<?xml version="1.0" encoding="utf-8" standalone="no"?>
<!DOCTYPE svg PUBLIC "-//W3C//DTD SVG 1.1//EN"
  "http://www.w3.org/Graphics/SVG/1.1/DTD/svg11.dtd">
<svg xmlns:xlink="http://www.w3.org/1999/xlink" width="872.39952pt" height="872.39952pt" viewBox="0 0 872.39952 872.39952" xmlns="http://www.w3.org/2000/svg" version="1.1">
 <metadata>
  <rdf:RDF xmlns:dc="http://purl.org/dc/elements/1.1/" xmlns:cc="http://creativecommons.org/ns#" xmlns:rdf="http://www.w3.org/1999/02/22-rdf-syntax-ns#">
   <cc:Work>
    <dc:type rdf:resource="http://purl.org/dc/dcmitype/StillImage"/>
    <dc:date>1980-01-01T00:00:00+00:00</dc:date>
    <dc:format>image/svg+xml</dc:format>
    <dc:creator>
     <cc:Agent>
      <dc:title>Matplotlib v3.6.2, https://matplotlib.org/</dc:title>
     </cc:Agent>
    </dc:creator>
   </cc:Work>
  </rdf:RDF>
 </metadata>
 <defs>
  <style type="text/css">*{stroke-linejoin: round; stroke-linecap: butt}</style>
 </defs>
 <g id="figure_1">
  <g id="patch_1">
   <path d="M 0 872.39952 
L 872.39952 872.39952 
L 872.39952 0 
L 0 0 
z
" style="fill: #ffffff"/>
  </g>
  <g id="patch_2">
   <path d="M 7.2 865.19952 
L 865.19952 865.19952 
L 865.19952 7.2 
L 7.2 7.2 
z
" style="fill: #ffffff"/>
  </g>
  <g id="pane3d_1">
   <g id="patch_3">
    <path d="M 192.668907 509.923031 
L 518.546294 419.124559 
L 520.685771 176.048913 
L 184.683789 261.171228 
" style="fill: #f2f2f2; opacity: 0.5; stroke: #f2f2f2; stroke-width: 0.24; stroke-linejoin: miter"/>
   </g>
  </g>
  <g id="pane3d_2">
   <g id="patch_4">
    <path d="M 518.546294 419.124559 
L 710.085837 587.530341 
L 718.533259 334.065929 
L 520.685771 176.048913 
" style="fill: #e6e6e6; opacity: 0.5; stroke: #e6e6e6; stroke-width: 0.24; stroke-linejoin: miter"/>
   </g>
  </g>
  <g id="pane3d_3">
   <g id="patch_5">
    <path d="M 192.668907 509.923031 
L 369.860976 690.354237 
L 710.085837 587.530341 
L 518.546294 419.124559 
" style="fill: #ececec; opacity: 0.5; stroke: #ececec; stroke-width: 0.24; stroke-linejoin: miter"/>
   </g>
  </g>
  <g id="axis3d_1">
   <g id="line2d_1">
    <path d="M 192.668907 509.923031 
L 369.860976 690.354237 
" style="fill: none; stroke: #000000; stroke-width: 0.8; stroke-linecap: square"/>
   </g>
   <g id="text_1">
    <!-- $\delta$ -->
    <g transform="translate(251.592046 621.460716) rotate(-314.481063) scale(0.1 -0.1)">
     <defs>
      <path id="CMMI12-e" d="M 1664 2795 
C 845 2597 256 1748 256 1001 
C 256 319 717 -64 1229 -64 
C 1984 -64 2496 970 2496 1818 
C 2496 2392 2227 2744 2067 2954 
C 1830 3254 1446 3746 1446 4052 
C 1446 4161 1530 4352 1811 4352 
C 2010 4352 2131 4282 2323 4173 
C 2381 4134 2528 4052 2611 4052 
C 2746 4052 2842 4185 2842 4287 
C 2842 4409 2746 4428 2522 4479 
C 2221 4543 2131 4543 2022 4543 
C 1914 4543 1286 4543 1286 3892 
C 1286 3579 1446 3216 1664 2795 
z
M 1734 2669 
C 1978 2165 2074 1974 2074 1560 
C 2074 1063 1805 63 1235 63 
C 986 63 627 229 627 821 
C 627 1235 864 2439 1734 2669 
z
" transform="scale(0.015625)"/>
     </defs>
     <use xlink:href="#CMMI12-e" transform="scale(0.996264)"/>
    </g>
   </g>
   <g id="Line3DCollection_1">
    <path d="M 218.00401 535.721269 
L 545.983167 443.247661 
L 548.979933 198.64692 
" style="fill: none; stroke: #b0b0b0; stroke-width: 0.8"/>
    <path d="M 247.903774 566.167612 
L 578.341733 471.698025 
L 582.369436 225.31448 
" style="fill: none; stroke: #b0b0b0; stroke-width: 0.8"/>
    <path d="M 278.463604 597.286087 
L 611.390453 500.755188 
L 616.493294 252.568555 
" style="fill: none; stroke: #b0b0b0; stroke-width: 0.8"/>
    <path d="M 309.705602 629.0992 
L 645.151646 530.438771 
L 651.376004 280.42871 
" style="fill: none; stroke: #b0b0b0; stroke-width: 0.8"/>
    <path d="M 341.652866 661.630472 
L 679.648601 560.769253 
L 687.043162 308.915389 
" style="fill: none; stroke: #b0b0b0; stroke-width: 0.8"/>
   </g>
   <g id="xtick_1">
    <g id="line2d_2">
     <path d="M 220.717087 534.956318 
L 212.573387 537.252431 
" style="fill: none; stroke: #000000; stroke-width: 0.8; stroke-linecap: square"/>
    </g>
    <g id="text_2">
     <!-- $\mathdefault{0.3}$ -->
     <g transform="translate(202.482845 551.553188) scale(0.08 -0.08)">
      <defs>
       <path id="CMR17-30" d="M 2688 2025 
C 2688 2416 2682 3080 2413 3591 
C 2176 4039 1798 4198 1466 4198 
C 1158 4198 768 4058 525 3597 
C 269 3118 243 2524 243 2025 
C 243 1661 250 1106 448 619 
C 723 -39 1216 -128 1466 -128 
C 1760 -128 2208 -7 2470 600 
C 2662 1042 2688 1559 2688 2025 
z
M 1466 -26 
C 1056 -26 813 325 723 812 
C 653 1188 653 1738 653 2096 
C 653 2588 653 2997 736 3387 
C 858 3929 1216 4096 1466 4096 
C 1728 4096 2067 3923 2189 3400 
C 2272 3036 2278 2607 2278 2096 
C 2278 1680 2278 1169 2202 792 
C 2067 95 1690 -26 1466 -26 
z
" transform="scale(0.015625)"/>
       <path id="CMMI12-3a" d="M 1178 307 
C 1178 492 1024 619 870 619 
C 685 619 557 466 557 313 
C 557 128 710 0 864 0 
C 1050 0 1178 153 1178 307 
z
" transform="scale(0.015625)"/>
       <path id="CMR17-33" d="M 1414 2157 
C 1984 2157 2234 1662 2234 1090 
C 2234 320 1824 25 1453 25 
C 1114 25 563 194 390 693 
C 422 680 454 680 486 680 
C 640 680 755 782 755 948 
C 755 1133 614 1216 486 1216 
C 378 1216 211 1165 211 926 
C 211 335 787 -128 1466 -128 
C 2176 -128 2720 430 2720 1085 
C 2720 1707 2208 2157 1600 2227 
C 2086 2328 2554 2756 2554 3329 
C 2554 3820 2048 4179 1472 4179 
C 890 4179 378 3829 378 3329 
C 378 3110 544 3072 627 3072 
C 762 3072 877 3155 877 3321 
C 877 3486 762 3569 627 3569 
C 602 3569 570 3569 544 3557 
C 730 3959 1235 4032 1459 4032 
C 1683 4032 2106 3925 2106 3320 
C 2106 3143 2080 2828 1862 2550 
C 1670 2304 1453 2304 1242 2284 
C 1210 2284 1062 2269 1037 2269 
C 992 2263 966 2257 966 2208 
C 966 2163 973 2157 1101 2157 
L 1414 2157 
z
" transform="scale(0.015625)"/>
      </defs>
      <use xlink:href="#CMR17-30" transform="scale(0.996264)"/>
      <use xlink:href="#CMMI12-3a" transform="translate(45.690477 0) scale(0.996264)"/>
      <use xlink:href="#CMR17-33" transform="translate(72.787654 0) scale(0.996264)"/>
     </g>
    </g>
   </g>
   <g id="xtick_2">
    <g id="line2d_3">
     <path d="M 250.638172 565.385869 
L 242.430425 567.732399 
" style="fill: none; stroke: #000000; stroke-width: 0.8; stroke-linecap: square"/>
    </g>
    <g id="text_3">
     <!-- $\mathdefault{0.4}$ -->
     <g transform="translate(232.275583 582.115395) scale(0.08 -0.08)">
      <defs>
       <path id="CMR17-34" d="M 2150 4122 
C 2150 4256 2144 4256 2029 4256 
L 128 1254 
L 128 1088 
L 1779 1088 
L 1779 457 
C 1779 224 1766 160 1318 160 
L 1197 160 
L 1197 0 
C 1402 0 1747 0 1965 0 
C 2182 0 2528 0 2733 0 
L 2733 160 
L 2611 160 
C 2163 160 2150 224 2150 457 
L 2150 1088 
L 2803 1088 
L 2803 1254 
L 2150 1254 
L 2150 4122 
z
M 1798 3703 
L 1798 1254 
L 256 1254 
L 1798 3703 
z
" transform="scale(0.015625)"/>
      </defs>
      <use xlink:href="#CMR17-30" transform="scale(0.996264)"/>
      <use xlink:href="#CMMI12-3a" transform="translate(45.690477 0) scale(0.996264)"/>
      <use xlink:href="#CMR17-34" transform="translate(72.787654 0) scale(0.996264)"/>
     </g>
    </g>
   </g>
   <g id="xtick_3">
    <g id="line2d_4">
     <path d="M 281.219608 596.486994 
L 272.946956 598.885619 
" style="fill: none; stroke: #000000; stroke-width: 0.8; stroke-linecap: square"/>
    </g>
    <g id="text_4">
     <!-- $\mathdefault{0.5}$ -->
     <g transform="translate(262.7261 613.352369) scale(0.08 -0.08)">
      <defs>
       <path id="CMR17-35" d="M 730 3692 
C 794 3666 1056 3584 1325 3584 
C 1920 3584 2246 3911 2432 4100 
C 2432 4157 2432 4192 2394 4192 
C 2387 4192 2374 4192 2323 4163 
C 2099 4058 1837 3973 1517 3973 
C 1325 3973 1037 3999 723 4139 
C 653 4171 640 4171 634 4171 
C 602 4171 595 4164 595 4037 
L 595 2203 
C 595 2089 595 2057 659 2057 
C 691 2057 704 2070 736 2114 
C 941 2401 1222 2522 1542 2522 
C 1766 2522 2246 2382 2246 1289 
C 2246 1085 2246 715 2054 421 
C 1894 159 1645 25 1370 25 
C 947 25 518 320 403 814 
C 429 807 480 795 506 795 
C 589 795 749 840 749 1038 
C 749 1210 627 1280 506 1280 
C 358 1280 262 1190 262 1011 
C 262 454 704 -128 1382 -128 
C 2042 -128 2669 440 2669 1264 
C 2669 2030 2170 2624 1549 2624 
C 1222 2624 947 2503 730 2274 
L 730 3692 
z
" transform="scale(0.015625)"/>
      </defs>
      <use xlink:href="#CMR17-30" transform="scale(0.996264)"/>
      <use xlink:href="#CMMI12-3a" transform="translate(45.690477 0) scale(0.996264)"/>
      <use xlink:href="#CMR17-35" transform="translate(72.787654 0) scale(0.996264)"/>
     </g>
    </g>
   </g>
   <g id="xtick_4">
    <g id="line2d_5">
     <path d="M 312.483501 628.282172 
L 304.145074 630.734646 
" style="fill: none; stroke: #000000; stroke-width: 0.8; stroke-linecap: square"/>
    </g>
    <g id="text_5">
     <!-- $\mathdefault{0.6}$ -->
     <g transform="translate(293.856422 645.286706) scale(0.08 -0.08)">
      <defs>
       <path id="CMR17-36" d="M 678 2176 
C 678 3690 1395 4032 1811 4032 
C 1946 4032 2272 4009 2400 3776 
C 2298 3776 2106 3776 2106 3553 
C 2106 3381 2246 3323 2336 3323 
C 2394 3323 2566 3348 2566 3560 
C 2566 3954 2246 4179 1805 4179 
C 1043 4179 243 3390 243 1984 
C 243 253 966 -128 1478 -128 
C 2099 -128 2688 427 2688 1283 
C 2688 2081 2170 2662 1517 2662 
C 1126 2662 838 2407 678 1960 
L 678 2176 
z
M 1478 25 
C 691 25 691 1200 691 1436 
C 691 1896 909 2560 1504 2560 
C 1613 2560 1926 2560 2138 2120 
C 2253 1870 2253 1609 2253 1289 
C 2253 944 2253 690 2118 434 
C 1978 171 1773 25 1478 25 
z
" transform="scale(0.015625)"/>
      </defs>
      <use xlink:href="#CMR17-30" transform="scale(0.996264)"/>
      <use xlink:href="#CMMI12-3a" transform="translate(45.690477 0) scale(0.996264)"/>
      <use xlink:href="#CMR17-36" transform="translate(72.787654 0) scale(0.996264)"/>
     </g>
    </g>
   </g>
   <g id="xtick_5">
    <g id="line2d_6">
     <path d="M 344.452953 660.794899 
L 336.047873 663.303057 
" style="fill: none; stroke: #000000; stroke-width: 0.8; stroke-linecap: square"/>
    </g>
    <g id="text_6">
     <!-- $\mathdefault{0.7}$ -->
     <g transform="translate(325.689572 677.942023) scale(0.08 -0.08)">
      <defs>
       <path id="CMR17-37" d="M 2886 3941 
L 2886 4081 
L 1382 4081 
C 634 4081 621 4165 595 4288 
L 480 4288 
L 294 3094 
L 410 3094 
C 429 3215 474 3540 550 3661 
C 589 3712 1062 3712 1171 3712 
L 2579 3712 
L 1869 2661 
C 1395 1954 1069 999 1069 165 
C 1069 89 1069 -128 1299 -128 
C 1530 -128 1530 89 1530 171 
L 1530 465 
C 1530 1508 1709 2196 2003 2636 
L 2886 3941 
z
" transform="scale(0.015625)"/>
      </defs>
      <use xlink:href="#CMR17-30" transform="scale(0.996264)"/>
      <use xlink:href="#CMMI12-3a" transform="translate(45.690477 0) scale(0.996264)"/>
      <use xlink:href="#CMR17-37" transform="translate(72.787654 0) scale(0.996264)"/>
     </g>
    </g>
   </g>
  </g>
  <g id="axis3d_2">
   <g id="line2d_7">
    <path d="M 710.085837 587.530341 
L 369.860976 690.354237 
" style="fill: none; stroke: #000000; stroke-width: 0.8; stroke-linecap: square"/>
   </g>
   <g id="text_7">
    <!-- $\Theta$ -->
    <g transform="translate(550.853655 665.843589) rotate(-16.816043) scale(0.1 -0.1)">
     <defs>
      <path id="CMR17-2" d="M 4307 2153 
C 4307 3467 3366 4455 2304 4455 
C 1216 4455 294 3454 294 2153 
C 294 852 1229 -128 2298 -128 
C 3392 -128 4307 872 4307 2153 
z
M 2304 -20 
C 1574 -20 762 673 762 2153 
C 762 3679 1600 4352 2298 4352 
C 3021 4352 3840 3660 3840 2153 
C 3840 653 3008 -20 2304 -20 
z
M 3501 2560 
L 3386 2560 
L 3386 2342 
L 1216 2342 
L 1216 2560 
L 1101 2560 
L 1101 1766 
L 1216 1766 
L 1216 1984 
L 3386 1984 
L 3386 1766 
L 3501 1766 
L 3501 2560 
z
" transform="scale(0.015625)"/>
     </defs>
     <use xlink:href="#CMR17-2" transform="scale(0.996264)"/>
    </g>
   </g>
   <g id="Line3DCollection_2">
    <path d="M 244.392851 246.04461 
L 250.529846 493.80137 
L 430.375951 672.065199 
" style="fill: none; stroke: #b0b0b0; stroke-width: 0.8"/>
    <path d="M 318.795616 227.195508 
L 322.659267 473.704114 
L 505.74937 649.285592 
" style="fill: none; stroke: #b0b0b0; stroke-width: 0.8"/>
    <path d="M 392.084437 208.628611 
L 393.740889 453.898804 
L 579.957906 626.85804 
" style="fill: none; stroke: #b0b0b0; stroke-width: 0.8"/>
    <path d="M 464.284143 190.337629 
L 463.797379 434.379124 
L 653.028356 604.774444 
" style="fill: none; stroke: #b0b0b0; stroke-width: 0.8"/>
   </g>
   <g id="xtick_6">
    <g id="line2d_8">
     <path d="M 428.844604 670.547325 
L 433.443419 675.105679 
" style="fill: none; stroke: #000000; stroke-width: 0.8; stroke-linecap: square"/>
    </g>
    <g id="text_8">
     <!-- $\mathdefault{35}$ -->
     <g transform="translate(431.993204 691.003543) scale(0.08 -0.08)">
      <use xlink:href="#CMR17-33" transform="scale(0.996264)"/>
      <use xlink:href="#CMR17-35" transform="translate(45.690477 0) scale(0.996264)"/>
     </g>
    </g>
   </g>
   <g id="xtick_7">
    <g id="line2d_9">
     <path d="M 504.191135 647.791261 
L 508.87066 652.278876 
" style="fill: none; stroke: #000000; stroke-width: 0.8; stroke-linecap: square"/>
    </g>
    <g id="text_9">
     <!-- $\mathdefault{50}$ -->
     <g transform="translate(507.395663 668.096889) scale(0.08 -0.08)">
      <use xlink:href="#CMR17-35" transform="scale(0.996264)"/>
      <use xlink:href="#CMR17-30" transform="translate(45.690477 0) scale(0.996264)"/>
     </g>
    </g>
   </g>
   <g id="xtick_8">
    <g id="line2d_10">
     <path d="M 578.373793 625.386709 
L 583.130994 629.805219 
" style="fill: none; stroke: #000000; stroke-width: 0.8; stroke-linecap: square"/>
    </g>
    <g id="text_10">
     <!-- $\mathdefault{65}$ -->
     <g transform="translate(581.631645 645.544602) scale(0.08 -0.08)">
      <use xlink:href="#CMR17-36" transform="scale(0.996264)"/>
      <use xlink:href="#CMR17-35" transform="translate(45.690477 0) scale(0.996264)"/>
     </g>
    </g>
   </g>
   <g id="xtick_9">
    <g id="line2d_11">
     <path d="M 651.419339 603.325586 
L 656.251291 607.676575 
" style="fill: none; stroke: #000000; stroke-width: 0.8; stroke-linecap: square"/>
    </g>
    <g id="text_11">
     <!-- $\mathdefault{80}$ -->
     <g transform="translate(654.728009 623.338521) scale(0.08 -0.08)">
      <defs>
       <path id="CMR17-38" d="M 1741 2264 
C 2144 2467 2554 2773 2554 3263 
C 2554 3841 1990 4179 1472 4179 
C 890 4179 378 3759 378 3180 
C 378 3021 416 2747 666 2505 
C 730 2442 998 2251 1171 2130 
C 883 1983 211 1634 211 934 
C 211 279 838 -128 1459 -128 
C 2144 -128 2720 362 2720 1010 
C 2720 1590 2330 1857 2074 2029 
L 1741 2264 
z
M 902 2822 
C 851 2854 595 3051 595 3351 
C 595 3739 998 4032 1459 4032 
C 1965 4032 2336 3676 2336 3262 
C 2336 2669 1670 2331 1638 2331 
C 1632 2331 1626 2331 1574 2370 
L 902 2822 
z
M 2080 1519 
C 2176 1449 2483 1240 2483 851 
C 2483 381 2010 25 1472 25 
C 890 25 448 438 448 940 
C 448 1443 838 1862 1280 2060 
L 2080 1519 
z
" transform="scale(0.015625)"/>
      </defs>
      <use xlink:href="#CMR17-38" transform="scale(0.996264)"/>
      <use xlink:href="#CMR17-30" transform="translate(45.690477 0) scale(0.996264)"/>
     </g>
    </g>
   </g>
  </g>
  <g id="axis3d_3">
   <g id="line2d_12">
    <path d="M 710.085837 587.530341 
L 718.533259 334.065929 
" style="fill: none; stroke: #000000; stroke-width: 0.8; stroke-linecap: square"/>
   </g>
   <g id="text_12">
    <!-- $\bar{P}/10^{-3}$ -->
    <g transform="translate(751.675686 484.391234) rotate(-88.091162) scale(0.1 -0.1)">
     <defs>
      <path id="CMR17-16" d="M 2554 3520 
L 2554 3666 
L 378 3666 
L 378 3520 
L 2554 3520 
z
" transform="scale(0.015625)"/>
      <path id="CMMI12-50" d="M 1894 2023 
L 2970 2023 
C 3853 2023 4736 2673 4736 3401 
C 4736 3898 4314 4352 3507 4352 
L 1530 4352 
C 1408 4352 1350 4352 1350 4231 
C 1350 4167 1408 4167 1504 4167 
C 1894 4167 1894 4116 1894 4046 
C 1894 4034 1894 3995 1869 3899 
L 1005 472 
C 947 249 934 185 486 185 
C 365 185 301 185 301 70 
C 301 0 358 0 397 0 
C 518 0 646 0 768 0 
L 1517 0 
C 1638 0 1773 0 1894 0 
C 1946 0 2016 0 2016 121 
C 2016 185 1958 185 1862 185 
C 1478 185 1472 230 1472 293 
C 1472 325 1478 369 1485 401 
L 1894 2023 
z
M 2355 3930 
C 2413 4167 2438 4167 2688 4167 
L 3322 4167 
C 3802 4167 4198 4013 4198 3535 
C 4198 3369 4115 2827 3821 2534 
C 3712 2419 3405 2176 2822 2176 
L 1920 2176 
L 2355 3930 
z
" transform="scale(0.015625)"/>
      <path id="CMMI12-3d" d="M 2746 4562 
C 2746 4569 2784 4666 2784 4678 
C 2784 4755 2720 4800 2669 4800 
C 2637 4800 2579 4800 2528 4659 
L 384 -1363 
C 384 -1370 346 -1465 346 -1478 
C 346 -1555 410 -1600 461 -1600 
C 499 -1600 557 -1593 602 -1459 
L 2746 4562 
z
" transform="scale(0.015625)"/>
      <path id="CMR17-31" d="M 1702 4058 
C 1702 4192 1696 4192 1606 4192 
C 1357 3916 979 3827 621 3827 
C 602 3827 570 3827 563 3808 
C 557 3795 557 3782 557 3648 
C 755 3648 1088 3686 1344 3839 
L 1344 461 
C 1344 236 1331 160 781 160 
L 589 160 
L 589 0 
C 896 0 1216 0 1523 0 
C 1830 0 2150 0 2458 0 
L 2458 160 
L 2266 160 
C 1715 160 1702 230 1702 458 
L 1702 4058 
z
" transform="scale(0.015625)"/>
      <path id="CMSY10-0" d="M 4218 1472 
C 4326 1472 4442 1472 4442 1600 
C 4442 1728 4326 1728 4218 1728 
L 755 1728 
C 646 1728 531 1728 531 1600 
C 531 1472 646 1472 755 1472 
L 4218 1472 
z
" transform="scale(0.015625)"/>
     </defs>
     <use xlink:href="#CMR17-16" transform="translate(23.496833 25.189733) scale(0.996264)"/>
     <use xlink:href="#CMMI12-50" transform="scale(0.996264)"/>
     <use xlink:href="#CMMI12-3d" transform="translate(76.425821 0) scale(0.996264)"/>
     <use xlink:href="#CMR17-31" transform="translate(125.20074 0) scale(0.996264)"/>
     <use xlink:href="#CMR17-30" transform="translate(170.891217 0) scale(0.996264)"/>
     <use xlink:href="#CMSY10-0" transform="translate(216.581694 36.153639) scale(0.697382)"/>
     <use xlink:href="#CMR17-33" transform="translate(270.822687 36.153639) scale(0.697382)"/>
    </g>
   </g>
   <g id="Line3DCollection_3">
    <path d="M 710.249616 582.616155 
L 518.587852 414.402967 
L 192.513957 505.096052 
" style="fill: none; stroke: #b0b0b0; stroke-width: 0.8"/>
    <path d="M 711.37596 548.820276 
L 518.873571 381.941067 
L 191.44848 471.904375 
" style="fill: none; stroke: #b0b0b0; stroke-width: 0.8"/>
    <path d="M 712.512013 514.733072 
L 519.161607 349.216074 
L 190.374071 438.434468 
" style="fill: none; stroke: #b0b0b0; stroke-width: 0.8"/>
    <path d="M 713.657901 480.350761 
L 519.451986 316.224779 
L 189.290618 404.68282 
" style="fill: none; stroke: #b0b0b0; stroke-width: 0.8"/>
    <path d="M 714.813753 445.669492 
L 519.744738 282.963917 
L 188.198006 370.645857 
" style="fill: none; stroke: #b0b0b0; stroke-width: 0.8"/>
    <path d="M 715.979699 410.685351 
L 520.039892 249.43017 
L 187.096119 336.319946 
" style="fill: none; stroke: #b0b0b0; stroke-width: 0.8"/>
    <path d="M 717.155872 375.394351 
L 520.337477 215.620167 
L 185.984837 301.701392 
" style="fill: none; stroke: #b0b0b0; stroke-width: 0.8"/>
    <path d="M 718.342407 339.792439 
L 520.637524 181.53048 
L 184.864041 266.786437 
" style="fill: none; stroke: #b0b0b0; stroke-width: 0.8"/>
   </g>
   <g id="xtick_10">
    <g id="line2d_13">
     <path d="M 708.620453 581.186309 
L 713.51288 585.48018 
" style="fill: none; stroke: #000000; stroke-width: 0.8; stroke-linecap: square"/>
    </g>
    <g id="text_13">
     <!-- $\mathdefault{0.0}$ -->
     <g transform="translate(721.052543 590.578556) scale(0.08 -0.08)">
      <use xlink:href="#CMR17-30" transform="scale(0.996264)"/>
      <use xlink:href="#CMMI12-3a" transform="translate(45.690477 0) scale(0.996264)"/>
      <use xlink:href="#CMR17-30" transform="translate(72.787654 0) scale(0.996264)"/>
     </g>
    </g>
   </g>
   <g id="xtick_11">
    <g id="line2d_14">
     <path d="M 709.739238 547.401411 
L 714.654385 551.662324 
" style="fill: none; stroke: #000000; stroke-width: 0.8; stroke-linecap: square"/>
    </g>
    <g id="text_14">
     <!-- $\mathdefault{0.5}$ -->
     <g transform="translate(722.249495 556.764047) scale(0.08 -0.08)">
      <use xlink:href="#CMR17-30" transform="scale(0.996264)"/>
      <use xlink:href="#CMMI12-3a" transform="translate(45.690477 0) scale(0.996264)"/>
      <use xlink:href="#CMR17-35" transform="translate(72.787654 0) scale(0.996264)"/>
     </g>
    </g>
   </g>
   <g id="xtick_12">
    <g id="line2d_15">
     <path d="M 710.867662 513.325431 
L 715.80574 517.552657 
" style="fill: none; stroke: #000000; stroke-width: 0.8; stroke-linecap: square"/>
    </g>
    <g id="text_15">
     <!-- $\mathdefault{1.0}$ -->
     <g transform="translate(723.456774 522.657801) scale(0.08 -0.08)">
      <use xlink:href="#CMR17-31" transform="scale(0.996264)"/>
      <use xlink:href="#CMMI12-3a" transform="translate(45.690477 0) scale(0.996264)"/>
      <use xlink:href="#CMR17-30" transform="translate(72.787654 0) scale(0.996264)"/>
     </g>
    </g>
   </g>
   <g id="xtick_13">
    <g id="line2d_16">
     <path d="M 712.005851 478.954591 
L 716.967073 483.147385 
" style="fill: none; stroke: #000000; stroke-width: 0.8; stroke-linecap: square"/>
    </g>
    <g id="text_16">
     <!-- $\mathdefault{1.5}$ -->
     <g transform="translate(724.674514 488.256027) scale(0.08 -0.08)">
      <use xlink:href="#CMR17-31" transform="scale(0.996264)"/>
      <use xlink:href="#CMMI12-3a" transform="translate(45.690477 0) scale(0.996264)"/>
      <use xlink:href="#CMR17-35" transform="translate(72.787654 0) scale(0.996264)"/>
     </g>
    </g>
   </g>
   <g id="xtick_14">
    <g id="line2d_17">
     <path d="M 713.153931 444.285047 
L 718.138514 448.44265 
" style="fill: none; stroke: #000000; stroke-width: 0.8; stroke-linecap: square"/>
    </g>
    <g id="text_17">
     <!-- $\mathdefault{2.0}$ -->
     <g transform="translate(725.902852 453.554866) scale(0.08 -0.08)">
      <defs>
       <path id="CMR17-32" d="M 2669 989 
L 2554 989 
C 2490 536 2438 459 2413 420 
C 2381 369 1920 369 1830 369 
L 602 369 
C 832 619 1280 1072 1824 1597 
C 2214 1967 2669 2402 2669 3035 
C 2669 3790 2067 4224 1395 4224 
C 691 4224 262 3604 262 3030 
C 262 2780 448 2748 525 2748 
C 589 2748 781 2787 781 3010 
C 781 3207 614 3264 525 3264 
C 486 3264 448 3258 422 3245 
C 544 3790 915 4058 1306 4058 
C 1862 4058 2227 3617 2227 3035 
C 2227 2479 1901 2000 1536 1584 
L 262 146 
L 262 0 
L 2515 0 
L 2669 989 
z
" transform="scale(0.015625)"/>
      </defs>
      <use xlink:href="#CMR17-32" transform="scale(0.996264)"/>
      <use xlink:href="#CMMI12-3a" transform="translate(45.690477 0) scale(0.996264)"/>
      <use xlink:href="#CMR17-30" transform="translate(72.787654 0) scale(0.996264)"/>
     </g>
    </g>
   </g>
   <g id="xtick_15">
    <g id="line2d_18">
     <path d="M 714.312032 409.312889 
L 719.320196 413.434524 
" style="fill: none; stroke: #000000; stroke-width: 0.8; stroke-linecap: square"/>
    </g>
    <g id="text_18">
     <!-- $\mathdefault{2.5}$ -->
     <g transform="translate(727.141926 418.550393) scale(0.08 -0.08)">
      <use xlink:href="#CMR17-32" transform="scale(0.996264)"/>
      <use xlink:href="#CMMI12-3a" transform="translate(45.690477 0) scale(0.996264)"/>
      <use xlink:href="#CMR17-35" transform="translate(72.787654 0) scale(0.996264)"/>
     </g>
    </g>
   </g>
   <g id="xtick_16">
    <g id="line2d_19">
     <path d="M 715.480287 374.034136 
L 720.512254 378.119011 
" style="fill: none; stroke: #000000; stroke-width: 0.8; stroke-linecap: square"/>
    </g>
    <g id="text_19">
     <!-- $\mathdefault{3.0}$ -->
     <g transform="translate(728.391878 383.238614) scale(0.08 -0.08)">
      <use xlink:href="#CMR17-33" transform="scale(0.996264)"/>
      <use xlink:href="#CMMI12-3a" transform="translate(45.690477 0) scale(0.996264)"/>
      <use xlink:href="#CMR17-30" transform="translate(72.787654 0) scale(0.996264)"/>
     </g>
    </g>
   </g>
   <g id="xtick_17">
    <g id="line2d_20">
     <path d="M 716.658828 338.44474 
L 721.714824 342.492045 
" style="fill: none; stroke: #000000; stroke-width: 0.8; stroke-linecap: square"/>
    </g>
    <g id="text_20">
     <!-- $\mathdefault{3.5}$ -->
     <g transform="translate(729.652852 347.615465) scale(0.08 -0.08)">
      <use xlink:href="#CMR17-33" transform="scale(0.996264)"/>
      <use xlink:href="#CMMI12-3a" transform="translate(45.690477 0) scale(0.996264)"/>
      <use xlink:href="#CMR17-35" transform="translate(72.787654 0) scale(0.996264)"/>
     </g>
    </g>
   </g>
  </g>
  <g id="axes_1">
   <g id="Poly3DCollection_1">
    <path d="M 440.166333 449.650669 
L 509.942419 430.146426 
L 541.839523 458.386683 
L 471.557979 478.30517 
z
" clip-path="url(#p2642b8f5b0)" style="fill: #87591c"/>
    <path d="M 440.166333 449.650669 
L 439.978586 252.55265 
L 511.460753 234.029022 
L 509.942419 430.146426 
z
" clip-path="url(#p2642b8f5b0)" style="fill: #df942f"/>
    <path d="M 369.368411 469.440543 
L 440.166333 449.650669 
L 471.557979 478.30517 
L 400.236202 498.518469 
z
" clip-path="url(#p2642b8f5b0)" style="fill: #867213"/>
    <path d="M 509.942419 430.146426 
L 511.460753 234.029022 
L 544.161913 260.851577 
L 541.839523 458.386683 
z
" clip-path="url(#p2642b8f5b0)" style="fill: #694616"/>
    <path d="M 471.557979 478.30517 
L 541.839523 458.386683 
L 574.415194 487.227713 
L 503.622397 507.573781 
z
" clip-path="url(#p2642b8f5b0)" style="fill: #86541f"/>
    <path d="M 297.526039 489.522368 
L 369.368411 469.440543 
L 400.236202 498.518469 
L 327.850927 519.033174 
z
" clip-path="url(#p2642b8f5b0)" style="fill: #808512"/>
    <path d="M 369.368411 469.440543 
L 367.210563 249.651355 
L 439.95802 230.962325 
L 440.166333 449.650669 
z
" clip-path="url(#p2642b8f5b0)" style="fill: #debc20"/>
    <path d="M 440.166333 449.650669 
L 471.557979 478.30517 
L 472.149226 279.778425 
L 439.978586 252.55265 
z
" clip-path="url(#p2642b8f5b0)" style="fill: #df942f"/>
    <path d="M 471.557979 478.30517 
L 472.132174 285.504031 
L 544.094946 266.54758 
L 541.839523 458.386683 
z
" clip-path="url(#p2642b8f5b0)" style="fill: #dd8b34"/>
    <path d="M 440.166333 449.650669 
L 439.95802 230.962325 
L 472.21401 258.025297 
L 471.557979 478.30517 
z
" clip-path="url(#p2642b8f5b0)" style="fill: #69590f"/>
    <path d="M 471.557979 478.30517 
L 541.839523 458.386683 
L 544.161913 260.851577 
L 472.149226 279.778425 
z
" clip-path="url(#p2642b8f5b0)" style="fill: #694616"/>
    <path d="M 400.236202 498.518469 
L 471.557979 478.30517 
L 503.622397 507.573781 
L 431.770488 528.224242 
z
" clip-path="url(#p2642b8f5b0)" style="fill: #876915"/>
    <path d="M 541.839523 458.386683 
L 544.094946 266.54758 
L 577.484941 293.997794 
L 574.415194 487.227713 
z
" clip-path="url(#p2642b8f5b0)" style="fill: #684219"/>
    <path d="M 503.622397 507.573781 
L 574.415194 487.227713 
L 607.691318 516.688892 
L 536.381449 537.476459 
z
" clip-path="url(#p2642b8f5b0)" style="fill: #834b25"/>
    <path d="M 224.615934 509.902653 
L 297.526039 489.522368 
L 327.850927 519.033174 
L 254.378187 539.856077 
z
" clip-path="url(#p2642b8f5b0)" style="fill: #876019"/>
    <path d="M 297.526039 489.522368 
L 293.040014 251.648761 
L 367.044779 232.765322 
L 369.368411 469.440543 
z
" clip-path="url(#p2642b8f5b0)" style="fill: #d4dc1e"/>
    <path d="M 439.978586 252.55265 
L 472.149226 279.778425 
L 544.161913 260.851577 
L 511.460753 234.029022 
z
" clip-path="url(#p2642b8f5b0)" style="fill: #c18129"/>
    <path d="M 369.368411 469.440543 
L 400.236202 498.518469 
L 398.9133 277.125341 
L 367.210563 249.651355 
z
" clip-path="url(#p2642b8f5b0)" style="fill: #debc20"/>
    <path d="M 327.850927 519.033174 
L 400.236202 498.518469 
L 431.770488 528.224242 
L 358.835521 549.185976 
z
" clip-path="url(#p2642b8f5b0)" style="fill: #847a14"/>
    <path d="M 369.368411 469.440543 
L 367.044779 232.765322 
L 398.811632 260.110696 
L 400.236202 498.518469 
z
" clip-path="url(#p2642b8f5b0)" style="fill: #64680e"/>
    <path d="M 400.236202 498.518469 
L 398.957009 284.440096 
L 472.192339 265.301833 
L 471.557979 478.30517 
z
" clip-path="url(#p2642b8f5b0)" style="fill: #e0ae23"/>
    <path d="M 471.557979 478.30517 
L 503.622397 507.573781 
L 504.986165 313.371133 
L 472.132174 285.504031 
z
" clip-path="url(#p2642b8f5b0)" style="fill: #dd8b34"/>
    <path d="M 400.236202 498.518469 
L 471.557979 478.30517 
L 472.21401 258.025297 
L 398.9133 277.125341 
z
" clip-path="url(#p2642b8f5b0)" style="fill: #69590f"/>
    <path d="M 503.622397 507.573781 
L 504.92053 322.717642 
L 577.337227 303.295895 
L 574.415194 487.227713 
z
" clip-path="url(#p2642b8f5b0)" style="fill: #d97d3d"/>
    <path d="M 471.557979 478.30517 
L 472.192339 265.301833 
L 505.129105 293.016258 
L 503.622397 507.573781 
z
" clip-path="url(#p2642b8f5b0)" style="fill: #6a5210"/>
    <path d="M 503.622397 507.573781 
L 574.415194 487.227713 
L 577.484941 293.997794 
L 504.986165 313.371133 
z
" clip-path="url(#p2642b8f5b0)" style="fill: #684219"/>
    <path d="M 431.770488 528.224242 
L 503.622397 507.573781 
L 536.381449 537.476459 
L 463.993089 558.578418 
z
" clip-path="url(#p2642b8f5b0)" style="fill: #875c1b"/>
    <path d="M 574.415194 487.227713 
L 577.337227 303.295895 
L 611.421861 331.420813 
L 607.691318 516.688892 
z
" clip-path="url(#p2642b8f5b0)" style="fill: #663b1d"/>
    <path d="M 224.615934 509.902653 
L 218.834371 304.013796 
L 293.662706 284.66728 
L 297.526039 489.522368 
z
" clip-path="url(#p2642b8f5b0)" style="fill: #e09f29"/>
    <path d="M 297.526039 489.522368 
L 293.662706 284.66728 
L 324.73319 312.68358 
L 327.850927 519.033174 
z
" clip-path="url(#p2642b8f5b0)" style="fill: #6a4b13"/>
    <path d="M 536.381449 537.476459 
L 607.691318 516.688892 
L 641.690732 546.790439 
L 569.857955 568.034034 
z
" clip-path="url(#p2642b8f5b0)" style="fill: #7f422b"/>
    <path d="M 254.378187 539.856077 
L 327.850927 519.033174 
L 358.835521 549.185976 
L 284.792823 570.466076 
z
" clip-path="url(#p2642b8f5b0)" style="fill: #844d24"/>
    <path d="M 297.526039 489.522368 
L 327.850927 519.033174 
L 324.230512 279.413489 
L 293.040014 251.648761 
z
" clip-path="url(#p2642b8f5b0)" style="fill: #d4dc1e"/>
    <path d="M 327.850927 519.033174 
L 324.373501 288.877352 
L 398.867884 269.524674 
L 400.236202 498.518469 
z
" clip-path="url(#p2642b8f5b0)" style="fill: #daca21"/>
    <path d="M 472.132174 285.504031 
L 504.986165 313.371133 
L 577.484941 293.997794 
L 544.094946 266.54758 
z
" clip-path="url(#p2642b8f5b0)" style="fill: #c0792d"/>
    <path d="M 367.210563 249.651355 
L 398.9133 277.125341 
L 472.21401 258.025297 
L 439.95802 230.962325 
z
" clip-path="url(#p2642b8f5b0)" style="fill: #c0a31c"/>
    <path d="M 327.850927 519.033174 
L 400.236202 498.518469 
L 398.811632 260.110696 
L 324.230512 279.413489 
z
" clip-path="url(#p2642b8f5b0)" style="fill: #64680e"/>
    <path d="M 400.236202 498.518469 
L 431.770488 528.224242 
L 431.334707 312.579707 
L 398.957009 284.440096 
z
" clip-path="url(#p2642b8f5b0)" style="fill: #e0ae23"/>
    <path d="M 431.770488 528.224242 
L 431.360554 325.369845 
L 505.039757 305.739507 
L 503.622397 507.573781 
z
" clip-path="url(#p2642b8f5b0)" style="fill: #df982d"/>
    <path d="M 400.236202 498.518469 
L 398.867884 269.524674 
L 431.304336 297.550499 
L 431.770488 528.224242 
z
" clip-path="url(#p2642b8f5b0)" style="fill: #675f10"/>
    <path d="M 358.835521 549.185976 
L 431.770488 528.224242 
L 463.993089 558.578418 
L 390.501586 580.001954 
z
" clip-path="url(#p2642b8f5b0)" style="fill: #876118"/>
    <path d="M 503.622397 507.573781 
L 536.381449 537.476459 
L 538.464144 351.273926 
L 504.92053 322.717642 
z
" clip-path="url(#p2642b8f5b0)" style="fill: #d97d3d"/>
    <path d="M 431.770488 528.224242 
L 503.622397 507.573781 
L 505.129105 293.016258 
L 431.334707 312.579707 
z
" clip-path="url(#p2642b8f5b0)" style="fill: #6a5210"/>
    <path d="M 536.381449 537.476459 
L 538.352665 361.240629 
L 611.222213 341.335854 
L 607.691318 516.688892 
z
" clip-path="url(#p2642b8f5b0)" style="fill: #d36e47"/>
    <path d="M 503.622397 507.573781 
L 505.039757 305.739507 
L 538.655482 334.167428 
L 536.381449 537.476459 
z
" clip-path="url(#p2642b8f5b0)" style="fill: #694815"/>
    <path d="M 536.381449 537.476459 
L 607.691318 516.688892 
L 611.421861 331.420813 
L 538.464144 351.273926 
z
" clip-path="url(#p2642b8f5b0)" style="fill: #663b1d"/>
    <path d="M 224.615934 509.902653 
L 254.378187 539.856077 
L 249.311889 332.461288 
L 218.834371 304.013796 
z
" clip-path="url(#p2642b8f5b0)" style="fill: #e09f29"/>
    <path d="M 254.378187 539.856077 
L 249.764466 350.988035 
L 325.01165 331.113681 
L 327.850927 519.033174 
z
" clip-path="url(#p2642b8f5b0)" style="fill: #da803b"/>
    <path d="M 607.691318 516.688892 
L 611.222213 341.335854 
L 646.019985 370.16121 
L 641.690732 546.790439 
z
" clip-path="url(#p2642b8f5b0)" style="fill: #633422"/>
    <path d="M 463.993089 558.578418 
L 536.381449 537.476459 
L 569.857955 568.034034 
L 496.926791 589.602461 
z
" clip-path="url(#p2642b8f5b0)" style="fill: #834b25"/>
    <path d="M 254.378187 539.856077 
L 327.850927 519.033174 
L 324.73319 312.68358 
L 249.311889 332.461288 
z
" clip-path="url(#p2642b8f5b0)" style="fill: #6a4b13"/>
    <path d="M 327.850927 519.033174 
L 325.01165 331.113681 
L 356.706252 359.89522 
L 358.835521 549.185976 
z
" clip-path="url(#p2642b8f5b0)" style="fill: #673d1c"/>
    <path d="M 569.857955 568.034034 
L 641.690732 546.790439 
L 676.437278 577.553464 
L 604.075745 599.268258 
z
" clip-path="url(#p2642b8f5b0)" style="fill: #7a3931"/>
    <path d="M 327.850927 519.033174 
L 358.835521 549.185976 
L 356.227531 317.337269 
L 324.373501 288.877352 
z
" clip-path="url(#p2642b8f5b0)" style="fill: #daca21"/>
    <path d="M 284.792823 570.466076 
L 358.835521 549.185976 
L 390.501586 580.001954 
L 315.88153 601.754475 
z
" clip-path="url(#p2642b8f5b0)" style="fill: #732f39"/>
    <path d="M 358.835521 549.185976 
L 356.481385 339.904704 
L 431.3497 319.999123 
L 431.770488 528.224242 
z
" clip-path="url(#p2642b8f5b0)" style="fill: #e0a128"/>
    <path d="M 293.040014 251.648761 
L 324.230512 279.413489 
L 398.811632 260.110696 
L 367.044779 232.765322 
z
" clip-path="url(#p2642b8f5b0)" style="fill: #b8bf1a"/>
    <path d="M 504.92053 322.717642 
L 538.464144 351.273926 
L 611.421861 331.420813 
L 577.337227 303.295895 
z
" clip-path="url(#p2642b8f5b0)" style="fill: #bc6c35"/>
    <path d="M 398.957009 284.440096 
L 431.334707 312.579707 
L 505.129105 293.016258 
L 472.192339 265.301833 
z
" clip-path="url(#p2642b8f5b0)" style="fill: #c2971e"/>
    <path d="M 431.770488 528.224242 
L 463.993089 558.578418 
L 464.412137 354.238082 
L 431.360554 325.369845 
z
" clip-path="url(#p2642b8f5b0)" style="fill: #df982d"/>
    <path d="M 358.835521 549.185976 
L 431.770488 528.224242 
L 431.304336 297.550499 
L 356.227531 317.337269 
z
" clip-path="url(#p2642b8f5b0)" style="fill: #675f10"/>
    <path d="M 431.770488 528.224242 
L 431.3497 319.999123 
L 464.423235 348.826467 
L 463.993089 558.578418 
z
" clip-path="url(#p2642b8f5b0)" style="fill: #6a4c13"/>
    <path d="M 463.993089 558.578418 
L 464.377847 370.958632 
L 538.469438 350.800624 
L 536.381449 537.476459 
z
" clip-path="url(#p2642b8f5b0)" style="fill: #d97d3d"/>
    <path d="M 463.993089 558.578418 
L 536.381449 537.476459 
L 538.655482 334.167428 
L 464.412137 354.238082 
z
" clip-path="url(#p2642b8f5b0)" style="fill: #694815"/>
    <path d="M 536.381449 537.476459 
L 569.857955 568.034034 
L 572.604493 390.512487 
L 538.352665 361.240629 
z
" clip-path="url(#p2642b8f5b0)" style="fill: #d36e47"/>
    <path d="M 390.501586 580.001954 
L 463.993089 558.578418 
L 496.926791 589.602461 
L 422.871853 611.50323 
z
" clip-path="url(#p2642b8f5b0)" style="fill: #814628"/>
    <path d="M 536.381449 537.476459 
L 538.469438 350.800624 
L 572.767237 379.993603 
L 569.857955 568.034034 
z
" clip-path="url(#p2642b8f5b0)" style="fill: #663b1d"/>
    <path d="M 218.834371 304.013796 
L 249.311889 332.461288 
L 324.73319 312.68358 
L 293.662706 284.66728 
z
" clip-path="url(#p2642b8f5b0)" style="fill: #c28a24"/>
    <path d="M 569.857955 568.034034 
L 572.432945 401.600422 
L 645.749624 381.191659 
L 641.690732 546.790439 
z
" clip-path="url(#p2642b8f5b0)" style="fill: #ca5f52"/>
    <path d="M 284.792823 570.466076 
L 281.622426 417.061045 
L 357.118555 396.548713 
L 358.835521 549.185976 
z
" clip-path="url(#p2642b8f5b0)" style="fill: #bf4d5f"/>
    <path d="M 254.378187 539.856077 
L 284.792823 570.466076 
L 280.860965 380.216488 
L 249.764466 350.988035 
z
" clip-path="url(#p2642b8f5b0)" style="fill: #da803b"/>
    <path d="M 569.857955 568.034034 
L 641.690732 546.790439 
L 646.019985 370.16121 
L 572.604493 390.512487 
z
" clip-path="url(#p2642b8f5b0)" style="fill: #633422"/>
    <path d="M 641.690732 546.790439 
L 645.749624 381.191659 
L 681.277232 410.747861 
L 676.437278 577.553464 
z
" clip-path="url(#p2642b8f5b0)" style="fill: #602d27"/>
    <path d="M 358.835521 549.185976 
L 357.118555 396.548713 
L 389.383399 426.254829 
L 390.501586 580.001954 
z
" clip-path="url(#p2642b8f5b0)" style="fill: #5a242d"/>
    <path d="M 284.792823 570.466076 
L 358.835521 549.185976 
L 356.706252 359.89522 
L 280.860965 380.216488 
z
" clip-path="url(#p2642b8f5b0)" style="fill: #673d1c"/>
    <path d="M 496.926791 589.602461 
L 569.857955 568.034034 
L 604.075745 599.268258 
L 530.595395 621.318794 
z
" clip-path="url(#p2642b8f5b0)" style="fill: #7c3c30"/>
    <path d="M 390.501586 580.001954 
L 389.175089 397.612912 
L 464.365236 377.108106 
L 463.993089 558.578418 
z
" clip-path="url(#p2642b8f5b0)" style="fill: #d67543"/>
    <path d="M 358.835521 549.185976 
L 390.501586 580.001954 
L 388.968316 369.182338 
L 356.481385 339.904704 
z
" clip-path="url(#p2642b8f5b0)" style="fill: #e0a128"/>
    <path d="M 431.360554 325.369845 
L 464.412137 354.238082 
L 538.655482 334.167428 
L 505.039757 305.739507 
z
" clip-path="url(#p2642b8f5b0)" style="fill: #c28427"/>
    <path d="M 324.373501 288.877352 
L 356.227531 317.337269 
L 431.304336 297.550499 
L 398.867884 269.524674 
z
" clip-path="url(#p2642b8f5b0)" style="fill: #bdaf1d"/>
    <path d="M 538.352665 361.240629 
L 572.604493 390.512487 
L 646.019985 370.16121 
L 611.222213 341.335854 
z
" clip-path="url(#p2642b8f5b0)" style="fill: #b75f3e"/>
    <path d="M 463.993089 558.578418 
L 464.365236 377.108106 
L 498.068296 406.804039 
L 496.926791 589.602461 
z
" clip-path="url(#p2642b8f5b0)" style="fill: #65371f"/>
    <path d="M 315.88153 601.754475 
L 390.501586 580.001954 
L 422.871853 611.50323 
L 347.666967 633.744081 
z
" clip-path="url(#p2642b8f5b0)" style="fill: #4f0956"/>
    <path d="M 390.501586 580.001954 
L 463.993089 558.578418 
L 464.423235 348.826467 
L 388.968316 369.182338 
z
" clip-path="url(#p2642b8f5b0)" style="fill: #6a4c13"/>
    <path d="M 463.993089 558.578418 
L 496.926791 589.602461 
L 498.106989 400.607936 
L 464.377847 370.958632 
z
" clip-path="url(#p2642b8f5b0)" style="fill: #d97d3d"/>
    <path d="M 496.926791 589.602461 
L 497.990844 419.207141 
L 572.480978 398.495875 
L 569.857955 568.034034 
z
" clip-path="url(#p2642b8f5b0)" style="fill: #cd634f"/>
    <path d="M 315.88153 601.754475 
L 314.110907 496.308393 
L 389.738502 475.08031 
L 390.501586 580.001954 
z
" clip-path="url(#p2642b8f5b0)" style="fill: #820e8f"/>
    <path d="M 249.764466 350.988035 
L 280.860965 380.216488 
L 356.706252 359.89522 
L 325.01165 331.113681 
z
" clip-path="url(#p2642b8f5b0)" style="fill: #bd6f33"/>
    <path d="M 496.926791 589.602461 
L 569.857955 568.034034 
L 572.767237 379.993603 
L 498.106989 400.607936 
z
" clip-path="url(#p2642b8f5b0)" style="fill: #663b1d"/>
    <path d="M 569.857955 568.034034 
L 604.075745 599.268258 
L 607.409857 431.618981 
L 572.432945 401.600422 
z
" clip-path="url(#p2642b8f5b0)" style="fill: #ca5f52"/>
    <path d="M 284.792823 570.466076 
L 315.88153 601.754475 
L 313.28682 447.23151 
L 281.622426 417.061045 
z
" clip-path="url(#p2642b8f5b0)" style="fill: #bf4d5f"/>
    <path d="M 569.857955 568.034034 
L 572.480978 398.495875 
L 607.472064 428.491013 
L 604.075745 599.268258 
z
" clip-path="url(#p2642b8f5b0)" style="fill: #612f25"/>
    <path d="M 390.501586 580.001954 
L 389.738502 475.08031 
L 422.536169 505.823522 
L 422.871853 611.50323 
z
" clip-path="url(#p2642b8f5b0)" style="fill: #3e0743"/>
    <path d="M 422.871853 611.50323 
L 496.926791 589.602461 
L 530.595395 621.318794 
L 455.970078 643.712921 
z
" clip-path="url(#p2642b8f5b0)" style="fill: #6f2a3d"/>
    <path d="M 604.075745 599.268258 
L 676.437278 577.553464 
L 681.277232 410.747861 
L 607.409857 431.618981 
z
" clip-path="url(#p2642b8f5b0)" style="fill: #602d27"/>
    <path d="M 315.88153 601.754475 
L 390.501586 580.001954 
L 389.383399 426.254829 
L 313.28682 447.23151 
z
" clip-path="url(#p2642b8f5b0)" style="fill: #5a242d"/>
    <path d="M 422.871853 611.50323 
L 422.399632 462.839221 
L 497.85048 441.684688 
L 496.926791 589.602461 
z
" clip-path="url(#p2642b8f5b0)" style="fill: #b94565"/>
    <path d="M 356.481385 339.904704 
L 388.968316 369.182338 
L 464.423235 348.826467 
L 431.3497 319.999123 
z
" clip-path="url(#p2642b8f5b0)" style="fill: #c28c23"/>
    <path d="M 390.501586 580.001954 
L 422.871853 611.50323 
L 422.288258 427.776326 
L 389.175089 397.612912 
z
" clip-path="url(#p2642b8f5b0)" style="fill: #d67543"/>
    <path d="M 464.377847 370.958632 
L 498.106989 400.607936 
L 572.767237 379.993603 
L 538.469438 350.800624 
z
" clip-path="url(#p2642b8f5b0)" style="fill: #bc6c35"/>
    <path d="M 281.622426 417.061045 
L 313.28682 447.23151 
L 389.383399 426.254829 
L 357.118555 396.548713 
z
" clip-path="url(#p2642b8f5b0)" style="fill: #a64352"/>
    <path d="M 347.666967 633.744081 
L 347.09149 588.777034 
L 422.729722 566.757763 
L 422.871853 611.50323 
z
" clip-path="url(#p2642b8f5b0)" style="fill: #0b0777"/>
    <path d="M 496.926791 589.602461 
L 497.85048 441.684688 
L 532.169752 472.322324 
L 530.595395 621.318794 
z
" clip-path="url(#p2642b8f5b0)" style="fill: #572130"/>
    <path d="M 572.432945 401.600422 
L 607.409857 431.618981 
L 681.277232 410.747861 
L 645.749624 381.191659 
z
" clip-path="url(#p2642b8f5b0)" style="fill: #b05247"/>
    <path d="M 422.871853 611.50323 
L 496.926791 589.602461 
L 498.068296 406.804039 
L 422.288258 427.776326 
z
" clip-path="url(#p2642b8f5b0)" style="fill: #65371f"/>
    <path d="M 422.871853 611.50323 
L 422.729722 566.757763 
L 456.017231 598.647191 
L 455.970078 643.712921 
z
" clip-path="url(#p2642b8f5b0)" style="fill: #050338"/>
    <path d="M 496.926791 589.602461 
L 530.595395 621.318794 
L 532.409049 449.675387 
L 497.990844 419.207141 
z
" clip-path="url(#p2642b8f5b0)" style="fill: #cd634f"/>
    <path d="M 315.88153 601.754475 
L 347.666967 633.744081 
L 346.307726 527.534642 
L 314.110907 496.308393 
z
" clip-path="url(#p2642b8f5b0)" style="fill: #820e8f"/>
    <path d="M 347.666967 633.744081 
L 422.871853 611.50323 
L 455.970078 643.712921 
L 380.172823 666.458732 
z
" clip-path="url(#p2642b8f5b0)" style="fill: #070448"/>
    <path d="M 530.595395 621.318794 
L 604.075745 599.268258 
L 607.472064 428.491013 
L 532.409049 449.675387 
z
" clip-path="url(#p2642b8f5b0)" style="fill: #612f25"/>
    <path d="M 347.666967 633.744081 
L 422.871853 611.50323 
L 422.536169 505.823522 
L 346.307726 527.534642 
z
" clip-path="url(#p2642b8f5b0)" style="fill: #3e0743"/>
    <path d="M 314.110907 496.308393 
L 346.307726 527.534642 
L 422.536169 505.823522 
L 389.738502 475.08031 
z
" clip-path="url(#p2642b8f5b0)" style="fill: #710d7c"/>
    <path d="M 389.175089 397.612912 
L 422.288258 427.776326 
L 498.068296 406.804039 
L 464.365236 377.108106 
z
" clip-path="url(#p2642b8f5b0)" style="fill: #ba653a"/>
    <path d="M 422.871853 611.50323 
L 455.970078 643.712921 
L 456.126764 493.962554 
L 422.399632 462.839221 
z
" clip-path="url(#p2642b8f5b0)" style="fill: #b94565"/>
    <path d="M 347.09149 588.777034 
L 379.779742 621.169303 
L 456.017231 598.647191 
L 422.729722 566.757763 
z
" clip-path="url(#p2642b8f5b0)" style="fill: #0a0667"/>
    <path d="M 497.990844 419.207141 
L 532.409049 449.675387 
L 607.472064 428.491013 
L 572.480978 398.495875 
z
" clip-path="url(#p2642b8f5b0)" style="fill: #b25644"/>
    <path d="M 347.666967 633.744081 
L 380.172823 666.458732 
L 379.779742 621.169303 
L 347.09149 588.777034 
z
" clip-path="url(#p2642b8f5b0)" style="fill: #0b0777"/>
    <path d="M 455.970078 643.712921 
L 530.595395 621.318794 
L 532.169752 472.322324 
L 456.126764 493.962554 
z
" clip-path="url(#p2642b8f5b0)" style="fill: #572130"/>
    <path d="M 380.172823 666.458732 
L 455.970078 643.712921 
L 456.017231 598.647191 
L 379.779742 621.169303 
z
" clip-path="url(#p2642b8f5b0)" style="fill: #050338"/>
    <path d="M 422.399632 462.839221 
L 456.126764 493.962554 
L 532.169752 472.322324 
L 497.85048 441.684688 
z
" clip-path="url(#p2642b8f5b0)" style="fill: #a03c58"/>
   </g>
  </g>
 </g>
 <defs>
  <clipPath id="p2642b8f5b0">
   <rect x="7.2" y="7.2" width="857.99952" height="857.99952"/>
  </clipPath>
 </defs>
</svg>
