<?xml version="1.0" encoding="utf-8" standalone="no"?>
<!DOCTYPE svg PUBLIC "-//W3C//DTD SVG 1.1//EN"
  "http://www.w3.org/Graphics/SVG/1.1/DTD/svg11.dtd">
<svg xmlns:xlink="http://www.w3.org/1999/xlink" width="872.39952pt" height="872.39952pt" viewBox="0 0 872.39952 872.39952" xmlns="http://www.w3.org/2000/svg" version="1.1">
 <metadata>
  <rdf:RDF xmlns:dc="http://purl.org/dc/elements/1.1/" xmlns:cc="http://creativecommons.org/ns#" xmlns:rdf="http://www.w3.org/1999/02/22-rdf-syntax-ns#">
   <cc:Work>
    <dc:type rdf:resource="http://purl.org/dc/dcmitype/StillImage"/>
    <dc:date>1980-01-01T00:00:00+00:00</dc:date>
    <dc:format>image/svg+xml</dc:format>
    <dc:creator>
     <cc:Agent>
      <dc:title>Matplotlib v3.6.2, https://matplotlib.org/</dc:title>
     </cc:Agent>
    </dc:creator>
   </cc:Work>
  </rdf:RDF>
 </metadata>
 <defs>
  <style type="text/css">*{stroke-linejoin: round; stroke-linecap: butt}</style>
 </defs>
 <g id="figure_1">
  <g id="patch_1">
   <path d="M 0 872.39952 
L 872.39952 872.39952 
L 872.39952 0 
L 0 0 
z
" style="fill: #ffffff"/>
  </g>
  <g id="patch_2">
   <path d="M 7.2 865.19952 
L 865.19952 865.19952 
L 865.19952 7.2 
L 7.2 7.2 
z
" style="fill: #ffffff"/>
  </g>
  <g id="pane3d_1">
   <g id="patch_3">
    <path d="M 339.028135 426.18163 
L 198.631718 608.963716 
L 190.544613 354.2204 
L 335.73019 182.65855 
" style="fill: #f2f2f2; opacity: 0.5; stroke: #f2f2f2; stroke-width: 0.24; stroke-linejoin: miter"/>
   </g>
  </g>
  <g id="pane3d_2">
   <g id="patch_4">
    <path d="M 686.595146 489.942226 
L 339.028135 426.18163 
L 335.73019 182.65855 
L 694.013594 242.424475 
" style="fill: #e6e6e6; opacity: 0.5; stroke: #e6e6e6; stroke-width: 0.24; stroke-linejoin: miter"/>
   </g>
  </g>
  <g id="pane3d_3">
   <g id="patch_5">
    <path d="M 686.595146 489.942226 
L 339.028135 426.18163 
L 198.631718 608.963716 
L 566.939243 681.839112 
" style="fill: #ececec; opacity: 0.5; stroke: #ececec; stroke-width: 0.24; stroke-linejoin: miter"/>
   </g>
  </g>
  <g id="axis3d_1">
   <g id="line2d_1">
    <path d="M 198.631718 608.963716 
L 566.939243 681.839112 
" style="fill: none; stroke: #000000; stroke-width: 0.8; stroke-linecap: square"/>
   </g>
   <g id="text_1">
    <!-- $\delta$ -->
    <g transform="translate(368.275928 678.176912) rotate(-348.807703) scale(0.1 -0.1)">
     <defs>
      <path id="CMMI12-e" d="M 1664 2795 
C 845 2597 256 1748 256 1001 
C 256 319 717 -64 1229 -64 
C 1984 -64 2496 970 2496 1818 
C 2496 2392 2227 2744 2067 2954 
C 1830 3254 1446 3746 1446 4052 
C 1446 4161 1530 4352 1811 4352 
C 2010 4352 2131 4282 2323 4173 
C 2381 4134 2528 4052 2611 4052 
C 2746 4052 2842 4185 2842 4287 
C 2842 4409 2746 4428 2522 4479 
C 2221 4543 2131 4543 2022 4543 
C 1914 4543 1286 4543 1286 3892 
C 1286 3579 1446 3216 1664 2795 
z
M 1734 2669 
C 1978 2165 2074 1974 2074 1560 
C 2074 1063 1805 63 1235 63 
C 986 63 627 229 627 821 
C 627 1235 864 2439 1734 2669 
z
" transform="scale(0.015625)"/>
     </defs>
     <use xlink:href="#CMMI12-e" transform="scale(0.996264)"/>
    </g>
   </g>
   <g id="Line3DCollection_1">
    <path d="M 510.161208 670.604691 
L 633.088053 480.126438 
L 638.823044 233.218036 
" style="fill: none; stroke: #b0b0b0; stroke-width: 0.8"/>
    <path d="M 445.029973 657.717458 
L 571.67598 468.860494 
L 575.493925 222.653987 
" style="fill: none; stroke: #b0b0b0; stroke-width: 0.8"/>
    <path d="M 380.470404 644.943339 
L 510.768099 457.687044 
L 512.700695 212.179331 
" style="fill: none; stroke: #b0b0b0; stroke-width: 0.8"/>
    <path d="M 316.475008 632.280851 
L 450.358229 446.604953 
L 450.43658 201.792938 
" style="fill: none; stroke: #b0b0b0; stroke-width: 0.8"/>
    <path d="M 253.036421 619.728536 
L 390.440285 435.613105 
L 388.69492 191.493696 
" style="fill: none; stroke: #b0b0b0; stroke-width: 0.8"/>
   </g>
   <g id="xtick_1">
    <g id="line2d_2">
     <path d="M 511.212572 668.975576 
L 508.054959 673.868376 
" style="fill: none; stroke: #000000; stroke-width: 0.8; stroke-linecap: square"/>
    </g>
    <g id="text_2">
     <!-- $\mathdefault{0.3}$ -->
     <g transform="translate(500.683432 689.966749) scale(0.08 -0.08)">
      <defs>
       <path id="CMR17-30" d="M 2688 2025 
C 2688 2416 2682 3080 2413 3591 
C 2176 4039 1798 4198 1466 4198 
C 1158 4198 768 4058 525 3597 
C 269 3118 243 2524 243 2025 
C 243 1661 250 1106 448 619 
C 723 -39 1216 -128 1466 -128 
C 1760 -128 2208 -7 2470 600 
C 2662 1042 2688 1559 2688 2025 
z
M 1466 -26 
C 1056 -26 813 325 723 812 
C 653 1188 653 1738 653 2096 
C 653 2588 653 2997 736 3387 
C 858 3929 1216 4096 1466 4096 
C 1728 4096 2067 3923 2189 3400 
C 2272 3036 2278 2607 2278 2096 
C 2278 1680 2278 1169 2202 792 
C 2067 95 1690 -26 1466 -26 
z
" transform="scale(0.015625)"/>
       <path id="CMMI12-3a" d="M 1178 307 
C 1178 492 1024 619 870 619 
C 685 619 557 466 557 313 
C 557 128 710 0 864 0 
C 1050 0 1178 153 1178 307 
z
" transform="scale(0.015625)"/>
       <path id="CMR17-33" d="M 1414 2157 
C 1984 2157 2234 1662 2234 1090 
C 2234 320 1824 25 1453 25 
C 1114 25 563 194 390 693 
C 422 680 454 680 486 680 
C 640 680 755 782 755 948 
C 755 1133 614 1216 486 1216 
C 378 1216 211 1165 211 926 
C 211 335 787 -128 1466 -128 
C 2176 -128 2720 430 2720 1085 
C 2720 1707 2208 2157 1600 2227 
C 2086 2328 2554 2756 2554 3329 
C 2554 3820 2048 4179 1472 4179 
C 890 4179 378 3829 378 3329 
C 378 3110 544 3072 627 3072 
C 762 3072 877 3155 877 3321 
C 877 3486 762 3569 627 3569 
C 602 3569 570 3569 544 3557 
C 730 3959 1235 4032 1459 4032 
C 1683 4032 2106 3925 2106 3320 
C 2106 3143 2080 2828 1862 2550 
C 1670 2304 1453 2304 1242 2284 
C 1210 2284 1062 2269 1037 2269 
C 992 2263 966 2257 966 2208 
C 966 2163 973 2157 1101 2157 
L 1414 2157 
z
" transform="scale(0.015625)"/>
      </defs>
      <use xlink:href="#CMR17-30" transform="scale(0.996264)"/>
      <use xlink:href="#CMMI12-3a" transform="translate(45.690477 0) scale(0.996264)"/>
      <use xlink:href="#CMR17-33" transform="translate(72.787654 0) scale(0.996264)"/>
     </g>
    </g>
   </g>
   <g id="xtick_2">
    <g id="line2d_3">
     <path d="M 446.112837 656.10267 
L 442.860633 660.952419 
" style="fill: none; stroke: #000000; stroke-width: 0.8; stroke-linecap: square"/>
    </g>
    <g id="text_3">
     <!-- $\mathdefault{0.4}$ -->
     <g transform="translate(435.495905 677.003808) scale(0.08 -0.08)">
      <defs>
       <path id="CMR17-34" d="M 2150 4122 
C 2150 4256 2144 4256 2029 4256 
L 128 1254 
L 128 1088 
L 1779 1088 
L 1779 457 
C 1779 224 1766 160 1318 160 
L 1197 160 
L 1197 0 
C 1402 0 1747 0 1965 0 
C 2182 0 2528 0 2733 0 
L 2733 160 
L 2611 160 
C 2163 160 2150 224 2150 457 
L 2150 1088 
L 2803 1088 
L 2803 1254 
L 2150 1254 
L 2150 4122 
z
M 1798 3703 
L 1798 1254 
L 256 1254 
L 1798 3703 
z
" transform="scale(0.015625)"/>
      </defs>
      <use xlink:href="#CMR17-30" transform="scale(0.996264)"/>
      <use xlink:href="#CMMI12-3a" transform="translate(45.690477 0) scale(0.996264)"/>
      <use xlink:href="#CMR17-34" transform="translate(72.787654 0) scale(0.996264)"/>
     </g>
    </g>
   </g>
   <g id="xtick_3">
    <g id="line2d_4">
     <path d="M 381.584177 643.342689 
L 378.23916 648.149953 
" style="fill: none; stroke: #000000; stroke-width: 0.8; stroke-linecap: square"/>
    </g>
    <g id="text_4">
     <!-- $\mathdefault{0.5}$ -->
     <g transform="translate(370.881187 664.154774) scale(0.08 -0.08)">
      <defs>
       <path id="CMR17-35" d="M 730 3692 
C 794 3666 1056 3584 1325 3584 
C 1920 3584 2246 3911 2432 4100 
C 2432 4157 2432 4192 2394 4192 
C 2387 4192 2374 4192 2323 4163 
C 2099 4058 1837 3973 1517 3973 
C 1325 3973 1037 3999 723 4139 
C 653 4171 640 4171 634 4171 
C 602 4171 595 4164 595 4037 
L 595 2203 
C 595 2089 595 2057 659 2057 
C 691 2057 704 2070 736 2114 
C 941 2401 1222 2522 1542 2522 
C 1766 2522 2246 2382 2246 1289 
C 2246 1085 2246 715 2054 421 
C 1894 159 1645 25 1370 25 
C 947 25 518 320 403 814 
C 429 807 480 795 506 795 
C 589 795 749 840 749 1038 
C 749 1210 627 1280 506 1280 
C 358 1280 262 1190 262 1011 
C 262 454 704 -128 1382 -128 
C 2042 -128 2669 440 2669 1264 
C 2669 2030 2170 2624 1549 2624 
C 1222 2624 947 2503 730 2274 
L 730 3692 
z
" transform="scale(0.015625)"/>
      </defs>
      <use xlink:href="#CMR17-30" transform="scale(0.996264)"/>
      <use xlink:href="#CMMI12-3a" transform="translate(45.690477 0) scale(0.996264)"/>
      <use xlink:href="#CMR17-35" transform="translate(72.787654 0) scale(0.996264)"/>
     </g>
    </g>
   </g>
   <g id="xtick_4">
    <g id="line2d_5">
     <path d="M 317.619109 630.694154 
L 314.183023 635.459489 
" style="fill: none; stroke: #000000; stroke-width: 0.8; stroke-linecap: square"/>
    </g>
    <g id="text_5">
     <!-- $\mathdefault{0.6}$ -->
     <g transform="translate(306.831763 651.418152) scale(0.08 -0.08)">
      <defs>
       <path id="CMR17-36" d="M 678 2176 
C 678 3690 1395 4032 1811 4032 
C 1946 4032 2272 4009 2400 3776 
C 2298 3776 2106 3776 2106 3553 
C 2106 3381 2246 3323 2336 3323 
C 2394 3323 2566 3348 2566 3560 
C 2566 3954 2246 4179 1805 4179 
C 1043 4179 243 3390 243 1984 
C 243 253 966 -128 1478 -128 
C 2099 -128 2688 427 2688 1283 
C 2688 2081 2170 2662 1517 2662 
C 1126 2662 838 2407 678 1960 
L 678 2176 
z
M 1478 25 
C 691 25 691 1200 691 1436 
C 691 1896 909 2560 1504 2560 
C 1613 2560 1926 2560 2138 2120 
C 2253 1870 2253 1609 2253 1289 
C 2253 944 2253 690 2118 434 
C 1978 171 1773 25 1478 25 
z
" transform="scale(0.015625)"/>
      </defs>
      <use xlink:href="#CMR17-30" transform="scale(0.996264)"/>
      <use xlink:href="#CMMI12-3a" transform="translate(45.690477 0) scale(0.996264)"/>
      <use xlink:href="#CMR17-36" transform="translate(72.787654 0) scale(0.996264)"/>
     </g>
    </g>
   </g>
   <g id="xtick_5">
    <g id="line2d_6">
     <path d="M 254.210283 618.155611 
L 250.684836 622.879562 
" style="fill: none; stroke: #000000; stroke-width: 0.8; stroke-linecap: square"/>
    </g>
    <g id="text_6">
     <!-- $\mathdefault{0.7}$ -->
     <g transform="translate(243.340245 638.792474) scale(0.08 -0.08)">
      <defs>
       <path id="CMR17-37" d="M 2886 3941 
L 2886 4081 
L 1382 4081 
C 634 4081 621 4165 595 4288 
L 480 4288 
L 294 3094 
L 410 3094 
C 429 3215 474 3540 550 3661 
C 589 3712 1062 3712 1171 3712 
L 2579 3712 
L 1869 2661 
C 1395 1954 1069 999 1069 165 
C 1069 89 1069 -128 1299 -128 
C 1530 -128 1530 89 1530 171 
L 1530 465 
C 1530 1508 1709 2196 2003 2636 
L 2886 3941 
z
" transform="scale(0.015625)"/>
      </defs>
      <use xlink:href="#CMR17-30" transform="scale(0.996264)"/>
      <use xlink:href="#CMMI12-3a" transform="translate(45.690477 0) scale(0.996264)"/>
      <use xlink:href="#CMR17-37" transform="translate(72.787654 0) scale(0.996264)"/>
     </g>
    </g>
   </g>
  </g>
  <g id="axis3d_2">
   <g id="line2d_7">
    <path d="M 686.595146 489.942226 
L 566.939243 681.839112 
" style="fill: none; stroke: #000000; stroke-width: 0.8; stroke-linecap: square"/>
   </g>
   <g id="text_7">
    <!-- $\Theta$ -->
    <g transform="translate(649.03023 604.872104) rotate(-58.054699) scale(0.1 -0.1)">
     <defs>
      <path id="CMR17-2" d="M 4307 2153 
C 4307 3467 3366 4455 2304 4455 
C 1216 4455 294 3454 294 2153 
C 294 852 1229 -128 2298 -128 
C 3392 -128 4307 872 4307 2153 
z
M 2304 -20 
C 1574 -20 762 673 762 2153 
C 762 3679 1600 4352 2298 4352 
C 3021 4352 3840 3660 3840 2153 
C 3840 653 3008 -20 2304 -20 
z
M 3501 2560 
L 3386 2560 
L 3386 2342 
L 1216 2342 
L 1216 2560 
L 1101 2560 
L 1101 1766 
L 1216 1766 
L 1216 1984 
L 3386 1984 
L 3386 1766 
L 3501 1766 
L 3501 2560 
z
" transform="scale(0.015625)"/>
     </defs>
     <use xlink:href="#CMR17-2" transform="scale(0.996264)"/>
    </g>
   </g>
   <g id="Line3DCollection_2">
    <path d="M 312.033485 210.660302 
L 316.073367 456.066441 
L 667.058022 521.274681 
" style="fill: none; stroke: #b0b0b0; stroke-width: 0.8"/>
    <path d="M 281.310539 246.964772 
L 286.335454 494.782228 
L 641.732236 561.890643 
" style="fill: none; stroke: #b0b0b0; stroke-width: 0.8"/>
    <path d="M 249.668604 284.355186 
L 255.735253 534.620628 
L 615.653896 603.713504 
" style="fill: none; stroke: #b0b0b0; stroke-width: 0.8"/>
    <path d="M 217.065821 322.88101 
L 224.234708 575.631185 
L 588.788954 646.797871 
" style="fill: none; stroke: #b0b0b0; stroke-width: 0.8"/>
   </g>
   <g id="xtick_6">
    <g id="line2d_8">
     <path d="M 664.183113 520.740562 
L 672.811163 522.343538 
" style="fill: none; stroke: #000000; stroke-width: 0.8; stroke-linecap: square"/>
    </g>
    <g id="text_8">
     <!-- $\mathdefault{35}$ -->
     <g transform="translate(673.557227 536.200227) scale(0.08 -0.08)">
      <use xlink:href="#CMR17-33" transform="scale(0.996264)"/>
      <use xlink:href="#CMR17-35" transform="translate(45.690477 0) scale(0.996264)"/>
     </g>
    </g>
   </g>
   <g id="xtick_7">
    <g id="line2d_9">
     <path d="M 638.820194 561.340771 
L 647.559735 562.991031 
" style="fill: none; stroke: #000000; stroke-width: 0.8; stroke-linecap: square"/>
    </g>
    <g id="text_9">
     <!-- $\mathdefault{50}$ -->
     <g transform="translate(648.393553 576.945611) scale(0.08 -0.08)">
      <use xlink:href="#CMR17-35" transform="scale(0.996264)"/>
      <use xlink:href="#CMR17-30" transform="translate(45.690477 0) scale(0.996264)"/>
     </g>
    </g>
   </g>
   <g id="xtick_8">
    <g id="line2d_10">
     <path d="M 612.703767 603.147173 
L 621.557666 604.846839 
" style="fill: none; stroke: #000000; stroke-width: 0.8; stroke-linecap: square"/>
    </g>
    <g id="text_10">
     <!-- $\mathdefault{65}$ -->
     <g transform="translate(622.482292 618.901498) scale(0.08 -0.08)">
      <use xlink:href="#CMR17-36" transform="scale(0.996264)"/>
      <use xlink:href="#CMR17-35" transform="translate(45.690477 0) scale(0.996264)"/>
     </g>
    </g>
   </g>
   <g id="xtick_9">
    <g id="line2d_11">
     <path d="M 585.799747 646.214331 
L 594.770978 647.965655 
" style="fill: none; stroke: #000000; stroke-width: 0.8; stroke-linecap: square"/>
    </g>
    <g id="text_11">
     <!-- $\mathdefault{80}$ -->
     <g transform="translate(595.789628 662.122646) scale(0.08 -0.08)">
      <defs>
       <path id="CMR17-38" d="M 1741 2264 
C 2144 2467 2554 2773 2554 3263 
C 2554 3841 1990 4179 1472 4179 
C 890 4179 378 3759 378 3180 
C 378 3021 416 2747 666 2505 
C 730 2442 998 2251 1171 2130 
C 883 1983 211 1634 211 934 
C 211 279 838 -128 1459 -128 
C 2144 -128 2720 362 2720 1010 
C 2720 1590 2330 1857 2074 2029 
L 1741 2264 
z
M 902 2822 
C 851 2854 595 3051 595 3351 
C 595 3739 998 4032 1459 4032 
C 1965 4032 2336 3676 2336 3262 
C 2336 2669 1670 2331 1638 2331 
C 1632 2331 1626 2331 1574 2370 
L 902 2822 
z
M 2080 1519 
C 2176 1449 2483 1240 2483 851 
C 2483 381 2010 25 1472 25 
C 890 25 448 438 448 940 
C 448 1443 838 1862 1280 2060 
L 2080 1519 
z
" transform="scale(0.015625)"/>
      </defs>
      <use xlink:href="#CMR17-38" transform="scale(0.996264)"/>
      <use xlink:href="#CMR17-30" transform="translate(45.690477 0) scale(0.996264)"/>
     </g>
    </g>
   </g>
  </g>
  <g id="axis3d_3">
   <g id="line2d_12">
    <path d="M 686.595146 489.942226 
L 694.013594 242.424475 
" style="fill: none; stroke: #000000; stroke-width: 0.8; stroke-linecap: square"/>
   </g>
   <g id="text_12">
    <!-- $-\bar{P}_\mathrm{int}/10^{-3}$ -->
    <g transform="translate(723.068992 385.657655) rotate(-88.283281) scale(0.1 -0.1)">
     <defs>
      <path id="CMSY10-0" d="M 4218 1472 
C 4326 1472 4442 1472 4442 1600 
C 4442 1728 4326 1728 4218 1728 
L 755 1728 
C 646 1728 531 1728 531 1600 
C 531 1472 646 1472 755 1472 
L 4218 1472 
z
" transform="scale(0.015625)"/>
      <path id="CMR17-16" d="M 2554 3520 
L 2554 3666 
L 378 3666 
L 378 3520 
L 2554 3520 
z
" transform="scale(0.015625)"/>
      <path id="CMMI12-50" d="M 1894 2023 
L 2970 2023 
C 3853 2023 4736 2673 4736 3401 
C 4736 3898 4314 4352 3507 4352 
L 1530 4352 
C 1408 4352 1350 4352 1350 4231 
C 1350 4167 1408 4167 1504 4167 
C 1894 4167 1894 4116 1894 4046 
C 1894 4034 1894 3995 1869 3899 
L 1005 472 
C 947 249 934 185 486 185 
C 365 185 301 185 301 70 
C 301 0 358 0 397 0 
C 518 0 646 0 768 0 
L 1517 0 
C 1638 0 1773 0 1894 0 
C 1946 0 2016 0 2016 121 
C 2016 185 1958 185 1862 185 
C 1478 185 1472 230 1472 293 
C 1472 325 1478 369 1485 401 
L 1894 2023 
z
M 2355 3930 
C 2413 4167 2438 4167 2688 4167 
L 3322 4167 
C 3802 4167 4198 4013 4198 3535 
C 4198 3369 4115 2827 3821 2534 
C 3712 2419 3405 2176 2822 2176 
L 1920 2176 
L 2355 3930 
z
" transform="scale(0.015625)"/>
      <path id="CMR17-69" d="M 992 3909 
C 992 4049 877 4170 730 4170 
C 589 4170 467 4056 467 3909 
C 467 3769 582 3648 730 3648 
C 870 3648 992 3763 992 3909 
z
M 243 2706 
L 243 2541 
C 602 2541 653 2502 653 2197 
L 653 427 
C 653 184 627 153 218 153 
L 218 -13 
C 371 0 646 0 806 0 
C 960 0 1222 0 1370 -13 
L 1370 153 
C 992 153 979 191 979 420 
L 979 2776 
L 243 2706 
z
" transform="scale(0.015625)"/>
      <path id="CMR17-6e" d="M 2656 1933 
C 2656 2259 2592 2790 1837 2790 
C 1331 2790 1069 2400 973 2144 
L 966 2144 
L 966 2790 
L 211 2720 
L 211 2554 
C 589 2554 646 2515 646 2208 
L 646 428 
C 646 184 621 153 211 153 
L 211 -13 
C 365 0 646 0 813 0 
C 979 0 1267 0 1421 -13 
L 1421 153 
C 1011 153 986 178 986 428 
L 986 1658 
C 986 2247 1344 2688 1792 2688 
C 2266 2688 2317 2266 2317 1958 
L 2317 428 
C 2317 184 2291 153 1882 153 
L 1882 -13 
C 2035 0 2317 0 2483 0 
C 2650 0 2938 0 3091 -13 
L 3091 153 
C 2682 153 2656 178 2656 428 
L 2656 1933 
z
" transform="scale(0.015625)"/>
      <path id="CMR17-74" d="M 966 2560 
L 1862 2560 
L 1862 2725 
L 966 2725 
L 966 3904 
L 851 3904 
C 838 3245 614 2668 70 2668 
L 70 2560 
L 627 2560 
L 627 771 
C 627 650 627 -64 1370 -64 
C 1747 -64 1965 306 1965 777 
L 1965 1140 
L 1850 1140 
L 1850 783 
C 1850 344 1677 51 1408 51 
C 1222 51 966 178 966 758 
L 966 2560 
z
" transform="scale(0.015625)"/>
      <path id="CMMI12-3d" d="M 2746 4562 
C 2746 4569 2784 4666 2784 4678 
C 2784 4755 2720 4800 2669 4800 
C 2637 4800 2579 4800 2528 4659 
L 384 -1363 
C 384 -1370 346 -1465 346 -1478 
C 346 -1555 410 -1600 461 -1600 
C 499 -1600 557 -1593 602 -1459 
L 2746 4562 
z
" transform="scale(0.015625)"/>
      <path id="CMR17-31" d="M 1702 4058 
C 1702 4192 1696 4192 1606 4192 
C 1357 3916 979 3827 621 3827 
C 602 3827 570 3827 563 3808 
C 557 3795 557 3782 557 3648 
C 755 3648 1088 3686 1344 3839 
L 1344 461 
C 1344 236 1331 160 781 160 
L 589 160 
L 589 0 
C 896 0 1216 0 1523 0 
C 1830 0 2150 0 2458 0 
L 2458 160 
L 2266 160 
C 1715 160 1702 230 1702 458 
L 1702 4058 
z
" transform="scale(0.015625)"/>
     </defs>
     <use xlink:href="#CMSY10-0" transform="scale(0.996264)"/>
     <use xlink:href="#CMR17-16" transform="translate(100.9843 25.189733) scale(0.996264)"/>
     <use xlink:href="#CMMI12-50" transform="translate(77.487468 0) scale(0.996264)"/>
     <use xlink:href="#CMR17-69" transform="translate(140.3647 -14.943915) scale(0.697382)"/>
     <use xlink:href="#CMR17-6e" transform="translate(157.774359 -14.943915) scale(0.697382)"/>
     <use xlink:href="#CMR17-74" transform="translate(191.579246 -14.943915) scale(0.697382)"/>
     <use xlink:href="#CMMI12-3d" transform="translate(216.773799 0) scale(0.996264)"/>
     <use xlink:href="#CMR17-31" transform="translate(265.548717 0) scale(0.996264)"/>
     <use xlink:href="#CMR17-30" transform="translate(311.239195 0) scale(0.996264)"/>
     <use xlink:href="#CMSY10-0" transform="translate(356.929672 36.153639) scale(0.697382)"/>
     <use xlink:href="#CMR17-33" transform="translate(411.170665 36.153639) scale(0.697382)"/>
    </g>
   </g>
   <g id="Line3DCollection_3">
    <path d="M 686.739132 485.138127 
L 338.964079 421.451718 
L 198.474962 604.025911 
" style="fill: none; stroke: #b0b0b0; stroke-width: 0.8"/>
    <path d="M 688.029197 442.094896 
L 338.390242 379.079087 
L 197.070111 559.773183 
" style="fill: none; stroke: #b0b0b0; stroke-width: 0.8"/>
    <path d="M 689.333267 398.584361 
L 337.810321 336.257245 
L 195.649338 515.018924 
" style="fill: none; stroke: #b0b0b0; stroke-width: 0.8"/>
    <path d="M 690.651573 354.598869 
L 337.22422 292.97901 
L 194.212371 469.754558 
" style="fill: none; stroke: #b0b0b0; stroke-width: 0.8"/>
    <path d="M 691.984348 310.130602 
L 336.631838 249.237047 
L 192.758932 423.971314 
" style="fill: none; stroke: #b0b0b0; stroke-width: 0.8"/>
    <path d="M 693.331832 265.171567 
L 336.033075 205.023862 
L 191.288736 377.66022 
" style="fill: none; stroke: #b0b0b0; stroke-width: 0.8"/>
   </g>
   <g id="xtick_10">
    <g id="line2d_13">
     <path d="M 683.891223 484.616603 
L 692.438206 486.181772 
" style="fill: none; stroke: #000000; stroke-width: 0.8; stroke-linecap: square"/>
    </g>
    <g id="text_13">
     <!-- $\mathdefault{0}$ -->
     <g transform="translate(698.845322 487.209692) scale(0.08 -0.08)">
      <use xlink:href="#CMR17-30" transform="scale(0.996264)"/>
     </g>
    </g>
   </g>
   <g id="xtick_11">
    <g id="line2d_14">
     <path d="M 685.165668 441.578799 
L 693.759546 443.127683 
" style="fill: none; stroke: #000000; stroke-width: 0.8; stroke-linecap: square"/>
    </g>
    <g id="text_14">
     <!-- $\mathdefault{1}$ -->
     <g transform="translate(700.21044 444.202521) scale(0.08 -0.08)">
      <use xlink:href="#CMR17-31" transform="scale(0.996264)"/>
     </g>
    </g>
   </g>
   <g id="xtick_12">
    <g id="line2d_15">
     <path d="M 686.453946 398.07384 
L 695.095237 399.605992 
" style="fill: none; stroke: #000000; stroke-width: 0.8; stroke-linecap: square"/>
    </g>
    <g id="text_15">
     <!-- $\mathdefault{2}$ -->
     <g transform="translate(701.59036 400.729034) scale(0.08 -0.08)">
      <defs>
       <path id="CMR17-32" d="M 2669 989 
L 2554 989 
C 2490 536 2438 459 2413 420 
C 2381 369 1920 369 1830 369 
L 602 369 
C 832 619 1280 1072 1824 1597 
C 2214 1967 2669 2402 2669 3035 
C 2669 3790 2067 4224 1395 4224 
C 691 4224 262 3604 262 3030 
C 262 2780 448 2748 525 2748 
C 589 2748 781 2787 781 3010 
C 781 3207 614 3264 525 3264 
C 486 3264 448 3258 422 3245 
C 544 3790 915 4058 1306 4058 
C 1862 4058 2227 3617 2227 3035 
C 2227 2479 1901 2000 1536 1584 
L 262 146 
L 262 0 
L 2515 0 
L 2669 989 
z
" transform="scale(0.015625)"/>
      </defs>
      <use xlink:href="#CMR17-32" transform="scale(0.996264)"/>
     </g>
    </g>
   </g>
   <g id="xtick_13">
    <g id="line2d_16">
     <path d="M 687.756284 354.094077 
L 696.445514 355.60904 
" style="fill: none; stroke: #000000; stroke-width: 0.8; stroke-linecap: square"/>
    </g>
    <g id="text_16">
     <!-- $\mathdefault{3}$ -->
     <g transform="translate(702.985324 356.781606) scale(0.08 -0.08)">
      <use xlink:href="#CMR17-33" transform="scale(0.996264)"/>
     </g>
    </g>
   </g>
   <g id="xtick_14">
    <g id="line2d_17">
     <path d="M 689.072914 309.631696 
L 697.810617 311.128997 
" style="fill: none; stroke: #000000; stroke-width: 0.8; stroke-linecap: square"/>
    </g>
    <g id="text_17">
     <!-- $\mathdefault{4}$ -->
     <g transform="translate(704.395579 312.352443) scale(0.08 -0.08)">
      <use xlink:href="#CMR17-34" transform="scale(0.996264)"/>
     </g>
    </g>
   </g>
   <g id="xtick_15">
    <g id="line2d_18">
     <path d="M 690.404072 264.678708 
L 699.190792 266.157865 
" style="fill: none; stroke: #000000; stroke-width: 0.8; stroke-linecap: square"/>
    </g>
    <g id="text_18">
     <!-- $\mathdefault{5}$ -->
     <g transform="translate(705.821377 267.433581) scale(0.08 -0.08)">
      <use xlink:href="#CMR17-35" transform="scale(0.996264)"/>
     </g>
    </g>
   </g>
  </g>
  <g id="axes_1">
   <g id="Poly3DCollection_1">
    <path d="M 412.205846 447.39297 
L 383.866227 485.951509 
L 323.211135 474.611019 
L 352.285454 436.368884 
z
" clip-path="url(#p90db6c72ce)" style="fill: #808512"/>
    <path d="M 472.619494 458.507805 
L 445.027782 497.38669 
L 383.866227 485.951509 
L 412.205846 447.39297 
z
" clip-path="url(#p90db6c72ce)" style="fill: #876118"/>
    <path d="M 412.205846 447.39297 
L 352.285454 436.368884 
L 349.491062 201.685202 
L 411.160207 212.042944 
z
" clip-path="url(#p90db6c72ce)" style="fill: #d4dc1e"/>
    <path d="M 533.532514 469.714514 
L 506.702171 508.917755 
L 445.027782 497.38669 
L 472.619494 458.507805 
z
" clip-path="url(#p90db6c72ce)" style="fill: #814629"/>
    <path d="M 472.619494 458.507805 
L 412.205846 447.39297 
L 411.325291 249.199761 
L 473.236325 259.754749 
z
" clip-path="url(#p90db6c72ce)" style="fill: #e0a128"/>
    <path d="M 533.532514 469.714514 
L 472.619494 458.507805 
L 473.129778 294.086102 
L 535.302307 304.830565 
z
" clip-path="url(#p90db6c72ce)" style="fill: #d57343"/>
    <path d="M 594.951124 481.01424 
L 568.89587 520.545913 
L 506.702171 508.917755 
L 533.532514 469.714514 
z
" clip-path="url(#p90db6c72ce)" style="fill: #732f39"/>
    <path d="M 352.285454 436.368884 
L 323.211135 474.611019 
L 319.51272 237.62646 
L 349.491062 201.685202 
z
" clip-path="url(#p90db6c72ce)" style="fill: #64680e"/>
    <path d="M 383.866227 485.951509 
L 323.211135 474.611019 
L 321.64252 374.098366 
L 383.057925 385.15907 
z
" clip-path="url(#p90db6c72ce)" style="fill: #a22b7a"/>
    <path d="M 594.951124 481.01424 
L 533.532514 469.714514 
L 534.943848 338.226581 
L 597.383688 349.158389 
z
" clip-path="url(#p90db6c72ce)" style="fill: #bf4d5f"/>
    <path d="M 383.866227 485.951509 
L 354.705585 525.627121 
L 293.298045 513.956408 
L 323.211135 474.611019 
z
" clip-path="url(#p90db6c72ce)" style="fill: #621a4a"/>
    <path d="M 412.205846 447.39297 
L 383.866227 485.951509 
L 382.261322 285.82534 
L 411.325291 249.199761 
z
" clip-path="url(#p90db6c72ce)" style="fill: #6a4c13"/>
    <path d="M 656.881644 492.408148 
L 594.951124 481.01424 
L 596.784233 381.651521 
L 659.497202 392.768697 
z
" clip-path="url(#p90db6c72ce)" style="fill: #a0297c"/>
    <path d="M 445.027782 497.38669 
L 383.866227 485.951509 
L 383.203325 403.28986 
L 444.998973 414.495417 
z
" clip-path="url(#p90db6c72ce)" style="fill: #8d178a"/>
    <path d="M 472.619494 458.507805 
L 445.027782 497.38669 
L 444.970083 331.369164 
L 473.129778 294.086102 
z
" clip-path="url(#p90db6c72ce)" style="fill: #653620"/>
    <path d="M 656.881644 492.408148 
L 631.615467 532.272397 
L 568.89587 520.545913 
L 594.951124 481.01424 
z
" clip-path="url(#p90db6c72ce)" style="fill: #61194b"/>
    <path d="M 412.205846 447.39297 
L 411.160207 212.042944 
L 381.960312 248.29039 
L 383.866227 485.951509 
z
" clip-path="url(#p90db6c72ce)" style="fill: #d4dc1e"/>
    <path d="M 445.027782 497.38669 
L 416.633329 537.396701 
L 354.705585 525.627121 
L 383.866227 485.951509 
z
" clip-path="url(#p90db6c72ce)" style="fill: #550e53"/>
    <path d="M 323.211135 474.611019 
L 293.298045 513.956408 
L 291.32438 412.478011 
L 321.64252 374.098366 
z
" clip-path="url(#p90db6c72ce)" style="fill: #4c143a"/>
    <path d="M 533.532514 469.714514 
L 506.702171 508.917755 
L 507.686046 376.159767 
L 534.943848 338.226581 
z
" clip-path="url(#p90db6c72ce)" style="fill: #5a242d"/>
    <path d="M 472.619494 458.507805 
L 473.236325 259.754749 
L 444.958031 296.692248 
L 445.027782 497.38669 
z
" clip-path="url(#p90db6c72ce)" style="fill: #e0a128"/>
    <path d="M 506.702171 508.917755 
L 445.027782 497.38669 
L 445.004515 430.439555 
L 507.199695 441.784966 
z
" clip-path="url(#p90db6c72ce)" style="fill: #770693"/>
    <path d="M 533.532514 469.714514 
L 535.302307 304.830565 
L 507.93601 342.431151 
L 506.702171 508.917755 
z
" clip-path="url(#p90db6c72ce)" style="fill: #d57343"/>
    <path d="M 594.951124 481.01424 
L 568.89587 520.545913 
L 570.4265 420.228006 
L 596.784233 381.651521 
z
" clip-path="url(#p90db6c72ce)" style="fill: #4b133a"/>
    <path d="M 383.866227 485.951509 
L 354.705585 525.627121 
L 353.726172 442.172923 
L 383.203325 403.28986 
z
" clip-path="url(#p90db6c72ce)" style="fill: #430b41"/>
    <path d="M 383.866227 485.951509 
L 381.960312 248.29039 
L 319.51272 237.62646 
L 323.211135 474.611019 
z
" clip-path="url(#p90db6c72ce)" style="fill: #64680e"/>
    <path d="M 506.702171 508.917755 
L 479.087917 549.266409 
L 416.633329 537.396701 
L 445.027782 497.38669 
z
" clip-path="url(#p90db6c72ce)" style="fill: #480459"/>
    <path d="M 383.866227 485.951509 
L 383.057925 385.15907 
L 353.511311 423.864944 
L 354.705585 525.627121 
z
" clip-path="url(#p90db6c72ce)" style="fill: #a22b7a"/>
    <path d="M 594.951124 481.01424 
L 597.383688 349.158389 
L 570.92716 387.41467 
L 568.89587 520.545913 
z
" clip-path="url(#p90db6c72ce)" style="fill: #bf4d5f"/>
    <path d="M 568.89587 520.545913 
L 506.702171 508.917755 
L 507.089979 456.589412 
L 569.696496 468.072682 
z
" clip-path="url(#p90db6c72ce)" style="fill: #620095"/>
    <path d="M 445.027782 497.38669 
L 444.958031 296.692248 
L 382.261322 285.82534 
L 383.866227 485.951509 
z
" clip-path="url(#p90db6c72ce)" style="fill: #6a4c13"/>
    <path d="M 354.705585 525.627121 
L 293.298045 513.956408 
L 292.401975 467.883852 
L 354.163384 479.427085 
z
" clip-path="url(#p90db6c72ce)" style="fill: #590094"/>
    <path d="M 445.027782 497.38669 
L 416.633329 537.396701 
L 416.367412 469.808821 
L 445.004515 430.439555 
z
" clip-path="url(#p90db6c72ce)" style="fill: #380345"/>
    <path d="M 656.881644 492.408148 
L 659.497202 392.768697 
L 633.948772 431.67382 
L 631.615467 532.272397 
z
" clip-path="url(#p90db6c72ce)" style="fill: #a0297c"/>
    <path d="M 445.027782 497.38669 
L 444.998973 414.495417 
L 416.304072 453.709644 
L 416.633329 537.396701 
z
" clip-path="url(#p90db6c72ce)" style="fill: #8d178a"/>
    <path d="M 506.702171 508.917755 
L 507.93601 342.431151 
L 444.970083 331.369164 
L 445.027782 497.38669 
z
" clip-path="url(#p90db6c72ce)" style="fill: #653620"/>
    <path d="M 631.615467 532.272397 
L 568.89587 520.545913 
L 569.483778 482.014251 
L 632.51165 493.634202 
z
" clip-path="url(#p90db6c72ce)" style="fill: #4c0191"/>
    <path d="M 568.89587 520.545913 
L 542.0761 561.237529 
L 479.087917 549.266409 
L 506.702171 508.917755 
z
" clip-path="url(#p90db6c72ce)" style="fill: #3b005a"/>
    <path d="M 383.057925 385.15907 
L 321.64252 374.098366 
L 291.32438 412.478011 
L 353.511311 423.864944 
z
" clip-path="url(#p90db6c72ce)" style="fill: #8d256a"/>
    <path d="M 354.705585 525.627121 
L 353.511311 423.864944 
L 291.32438 412.478011 
L 293.298045 513.956408 
z
" clip-path="url(#p90db6c72ce)" style="fill: #4c143a"/>
    <path d="M 568.89587 520.545913 
L 570.92716 387.41467 
L 507.686046 376.159767 
L 506.702171 508.917755 
z
" clip-path="url(#p90db6c72ce)" style="fill: #5a242d"/>
    <path d="M 416.633329 537.396701 
L 354.705585 525.627121 
L 354.277705 489.168187 
L 416.489489 500.836954 
z
" clip-path="url(#p90db6c72ce)" style="fill: #490290"/>
    <path d="M 506.702171 508.917755 
L 479.087917 549.266409 
L 479.296961 496.438046 
L 507.089979 456.589412 
z
" clip-path="url(#p90db6c72ce)" style="fill: #2e0046"/>
    <path d="M 354.705585 525.627121 
L 324.687717 566.469065 
L 262.509358 554.453493 
L 293.298045 513.956408 
z
" clip-path="url(#p90db6c72ce)" style="fill: #350059"/>
    <path d="M 473.236325 259.754749 
L 411.325291 249.199761 
L 382.261322 285.82534 
L 444.958031 296.692248 
z
" clip-path="url(#p90db6c72ce)" style="fill: #c28c23"/>
    <path d="M 535.302307 304.830565 
L 473.129778 294.086102 
L 444.970083 331.369164 
L 507.93601 342.431151 
z
" clip-path="url(#p90db6c72ce)" style="fill: #b9643a"/>
    <path d="M 444.998973 414.495417 
L 383.203325 403.28986 
L 353.726172 442.172923 
L 416.304072 453.709644 
z
" clip-path="url(#p90db6c72ce)" style="fill: #7a1478"/>
    <path d="M 597.383688 349.158389 
L 534.943848 338.226581 
L 507.686046 376.159767 
L 570.92716 387.41467 
z
" clip-path="url(#p90db6c72ce)" style="fill: #a64352"/>
    <path d="M 506.702171 508.917755 
L 507.199695 441.784966 
L 479.35611 481.490293 
L 479.087917 549.266409 
z
" clip-path="url(#p90db6c72ce)" style="fill: #770693"/>
    <path d="M 411.160207 212.042944 
L 349.491062 201.685202 
L 319.51272 237.62646 
L 381.960312 248.29039 
z
" clip-path="url(#p90db6c72ce)" style="fill: #b8bf1a"/>
    <path d="M 659.497202 392.768697 
L 596.784233 381.651521 
L 570.4265 420.228006 
L 633.948772 431.67382 
z
" clip-path="url(#p90db6c72ce)" style="fill: #8b246c"/>
    <path d="M 293.298045 513.956408 
L 262.509358 554.453493 
L 261.418894 507.941002 
L 292.401975 467.883852 
z
" clip-path="url(#p90db6c72ce)" style="fill: #2a0046"/>
    <path d="M 631.615467 532.272397 
L 633.948772 431.67382 
L 570.4265 420.228006 
L 568.89587 520.545913 
z
" clip-path="url(#p90db6c72ce)" style="fill: #4b133a"/>
    <path d="M 416.633329 537.396701 
L 416.304072 453.709644 
L 353.726172 442.172923 
L 354.705585 525.627121 
z
" clip-path="url(#p90db6c72ce)" style="fill: #430b41"/>
    <path d="M 507.199695 441.784966 
L 445.004515 430.439555 
L 416.367412 469.808821 
L 479.35611 481.490293 
z
" clip-path="url(#p90db6c72ce)" style="fill: #67057f"/>
    <path d="M 631.615467 532.272397 
L 605.604745 573.311366 
L 542.0761 561.237529 
L 568.89587 520.545913 
z
" clip-path="url(#p90db6c72ce)" style="fill: #2e0157"/>
    <path d="M 568.89587 520.545913 
L 542.0761 561.237529 
L 542.540555 522.338238 
L 569.483778 482.014251 
z
" clip-path="url(#p90db6c72ce)" style="fill: #240144"/>
    <path d="M 479.087917 549.266409 
L 416.633329 537.396701 
L 416.523955 509.597091 
L 479.198225 521.389971 
z
" clip-path="url(#p90db6c72ce)" style="fill: #3b038b"/>
    <path d="M 568.89587 520.545913 
L 569.696496 468.072682 
L 542.708621 508.262289 
L 542.0761 561.237529 
z
" clip-path="url(#p90db6c72ce)" style="fill: #620095"/>
    <path d="M 416.633329 537.396701 
L 387.400585 578.587929 
L 324.687717 566.469065 
L 354.705585 525.627121 
z
" clip-path="url(#p90db6c72ce)" style="fill: #2c0157"/>
    <path d="M 354.705585 525.627121 
L 324.687717 566.469065 
L 324.113505 529.662247 
L 354.277705 489.168187 
z
" clip-path="url(#p90db6c72ce)" style="fill: #230144"/>
    <path d="M 569.696496 468.072682 
L 507.089979 456.589412 
L 479.296961 496.438046 
L 542.708621 508.262289 
z
" clip-path="url(#p90db6c72ce)" style="fill: #550081"/>
    <path d="M 354.705585 525.627121 
L 354.163384 479.427085 
L 323.960074 519.827354 
L 324.687717 566.469065 
z
" clip-path="url(#p90db6c72ce)" style="fill: #590094"/>
    <path d="M 479.087917 549.266409 
L 479.35611 481.490293 
L 416.367412 469.808821 
L 416.633329 537.396701 
z
" clip-path="url(#p90db6c72ce)" style="fill: #380345"/>
    <path d="M 354.163384 479.427085 
L 292.401975 467.883852 
L 261.418894 507.941002 
L 323.960074 519.827354 
z
" clip-path="url(#p90db6c72ce)" style="fill: #4d0080"/>
    <path d="M 542.0761 561.237529 
L 479.087917 549.266409 
L 479.168038 529.018559 
L 542.318526 540.933741 
z
" clip-path="url(#p90db6c72ce)" style="fill: #2f0486"/>
    <path d="M 631.615467 532.272397 
L 632.51165 493.634202 
L 606.38551 534.304099 
L 605.604745 573.311366 
z
" clip-path="url(#p90db6c72ce)" style="fill: #4c0191"/>
    <path d="M 632.51165 493.634202 
L 569.483778 482.014251 
L 542.540555 522.338238 
L 606.38551 534.304099 
z
" clip-path="url(#p90db6c72ce)" style="fill: #42017e"/>
    <path d="M 416.633329 537.396701 
L 387.400585 578.587929 
L 387.185465 550.523214 
L 416.523955 509.597091 
z
" clip-path="url(#p90db6c72ce)" style="fill: #1c0142"/>
    <path d="M 479.087917 549.266409 
L 450.654887 590.811421 
L 387.400585 578.587929 
L 416.633329 537.396701 
z
" clip-path="url(#p90db6c72ce)" style="fill: #240254"/>
    <path d="M 324.687717 566.469065 
L 262.509358 554.453493 
L 262.015096 533.371296 
L 324.357911 545.328589 
z
" clip-path="url(#p90db6c72ce)" style="fill: #300487"/>
    <path d="M 416.633329 537.396701 
L 416.489489 500.836954 
L 387.117672 541.678937 
L 387.400585 578.587929 
z
" clip-path="url(#p90db6c72ce)" style="fill: #490290"/>
    <path d="M 542.0761 561.237529 
L 542.708621 508.262289 
L 479.296961 496.438046 
L 479.087917 549.266409 
z
" clip-path="url(#p90db6c72ce)" style="fill: #2e0046"/>
    <path d="M 416.489489 500.836954 
L 354.277705 489.168187 
L 324.113505 529.662247 
L 387.117672 541.678937 
z
" clip-path="url(#p90db6c72ce)" style="fill: #40017d"/>
    <path d="M 324.687717 566.469065 
L 323.960074 519.827354 
L 261.418894 507.941002 
L 262.509358 554.453493 
z
" clip-path="url(#p90db6c72ce)" style="fill: #2a0046"/>
    <path d="M 605.604745 573.311366 
L 542.0761 561.237529 
L 542.24525 547.070717 
L 605.88909 559.10542 
z
" clip-path="url(#p90db6c72ce)" style="fill: #230581"/>
    <path d="M 479.087917 549.266409 
L 450.654887 590.811421 
L 450.662319 570.370561 
L 479.168038 529.018559 
z
" clip-path="url(#p90db6c72ce)" style="fill: #16023f"/>
    <path d="M 479.198225 521.389971 
L 416.523955 509.597091 
L 387.185465 550.523214 
L 450.66512 562.668853 
z
" clip-path="url(#p90db6c72ce)" style="fill: #330379"/>
    <path d="M 605.604745 573.311366 
L 606.38551 534.304099 
L 542.540555 522.338238 
L 542.0761 561.237529 
z
" clip-path="url(#p90db6c72ce)" style="fill: #240144"/>
    <path d="M 479.087917 549.266409 
L 479.198225 521.389971 
L 450.66512 562.668853 
L 450.654887 590.811421 
z
" clip-path="url(#p90db6c72ce)" style="fill: #3b038b"/>
    <path d="M 387.400585 578.587929 
L 324.687717 566.469065 
L 324.443235 550.797852 
L 387.280131 562.873394 
z
" clip-path="url(#p90db6c72ce)" style="fill: #270483"/>
    <path d="M 542.0761 561.237529 
L 514.457662 603.140902 
L 450.654887 590.811421 
L 479.087917 549.266409 
z
" clip-path="url(#p90db6c72ce)" style="fill: #1c0251"/>
    <path d="M 262.509358 554.453493 
L 230.806057 596.15359 
L 230.218602 574.870305 
L 262.015096 533.371296 
z
" clip-path="url(#p90db6c72ce)" style="fill: #170240"/>
    <path d="M 387.400585 578.587929 
L 387.117672 541.678937 
L 324.113505 529.662247 
L 324.687717 566.469065 
z
" clip-path="url(#p90db6c72ce)" style="fill: #230144"/>
    <path d="M 324.687717 566.469065 
L 293.774259 608.529537 
L 230.806057 596.15359 
L 262.509358 554.453493 
z
" clip-path="url(#p90db6c72ce)" style="fill: #1d0251"/>
    <path d="M 542.318526 540.933741 
L 479.168038 529.018559 
L 450.662319 570.370561 
L 514.631632 582.643366 
z
" clip-path="url(#p90db6c72ce)" style="fill: #290375"/>
    <path d="M 542.0761 561.237529 
L 514.457662 603.140902 
L 514.579047 588.839069 
L 542.24525 547.070717 
z
" clip-path="url(#p90db6c72ce)" style="fill: #11023d"/>
    <path d="M 542.0761 561.237529 
L 542.318526 540.933741 
L 514.631632 582.643366 
L 514.457662 603.140902 
z
" clip-path="url(#p90db6c72ce)" style="fill: #2f0486"/>
    <path d="M 450.654887 590.811421 
L 387.400585 578.587929 
L 387.315723 567.516757 
L 450.658923 579.70964 
z
" clip-path="url(#p90db6c72ce)" style="fill: #1e057f"/>
    <path d="M 605.604745 573.311366 
L 578.816077 615.577757 
L 514.457662 603.140902 
L 542.0761 561.237529 
z
" clip-path="url(#p90db6c72ce)" style="fill: #15034e"/>
    <path d="M 324.357911 545.328589 
L 262.015096 533.371296 
L 230.218602 574.870305 
L 293.355463 587.187205 
z
" clip-path="url(#p90db6c72ce)" style="fill: #2a0375"/>
    <path d="M 450.654887 590.811421 
L 450.66512 562.668853 
L 387.185465 550.523214 
L 387.400585 578.587929 
z
" clip-path="url(#p90db6c72ce)" style="fill: #1c0142"/>
    <path d="M 324.687717 566.469065 
L 293.774259 608.529537 
L 293.463813 592.708854 
L 324.443235 550.797852 
z
" clip-path="url(#p90db6c72ce)" style="fill: #12023e"/>
    <path d="M 324.687717 566.469065 
L 324.357911 545.328589 
L 293.355463 587.187205 
L 293.774259 608.529537 
z
" clip-path="url(#p90db6c72ce)" style="fill: #300487"/>
    <path d="M 605.88909 559.10542 
L 542.24525 547.070717 
L 514.579047 588.839069 
L 579.05569 601.236279 
z
" clip-path="url(#p90db6c72ce)" style="fill: #1f0470"/>
    <path d="M 387.400585 578.587929 
L 357.291872 621.013467 
L 293.774259 608.529537 
L 324.687717 566.469065 
z
" clip-path="url(#p90db6c72ce)" style="fill: #17034f"/>
    <path d="M 605.604745 573.311366 
L 605.88909 559.10542 
L 579.05569 601.236279 
L 578.816077 615.577757 
z
" clip-path="url(#p90db6c72ce)" style="fill: #230581"/>
    <path d="M 514.457662 603.140902 
L 450.654887 590.811421 
L 450.65738 583.954776 
L 514.516018 596.265298 
z
" clip-path="url(#p90db6c72ce)" style="fill: #13067a"/>
    <path d="M 387.280131 562.873394 
L 324.443235 550.797852 
L 293.463813 592.708854 
L 357.108656 605.148897 
z
" clip-path="url(#p90db6c72ce)" style="fill: #220472"/>
    <path d="M 514.457662 603.140902 
L 514.631632 582.643366 
L 450.662319 570.370561 
L 450.654887 590.811421 
z
" clip-path="url(#p90db6c72ce)" style="fill: #16023f"/>
    <path d="M 387.400585 578.587929 
L 357.291872 621.013467 
L 357.162794 609.836692 
L 387.315723 567.516757 
z
" clip-path="url(#p90db6c72ce)" style="fill: #0e023c"/>
    <path d="M 387.400585 578.587929 
L 387.280131 562.873394 
L 357.108656 605.148897 
L 357.291872 621.013467 
z
" clip-path="url(#p90db6c72ce)" style="fill: #270483"/>
    <path d="M 450.654887 590.811421 
L 421.366117 633.606799 
L 357.291872 621.013467 
L 387.400585 578.587929 
z
" clip-path="url(#p90db6c72ce)" style="fill: #12034d"/>
    <path d="M 293.774259 608.529537 
L 293.355463 587.187205 
L 230.218602 574.870305 
L 230.806057 596.15359 
z
" clip-path="url(#p90db6c72ce)" style="fill: #170240"/>
    <path d="M 578.816077 615.577757 
L 514.457662 603.140902 
L 514.487554 599.618946 
L 578.875084 612.046059 
z
" clip-path="url(#p90db6c72ce)" style="fill: #0b0777"/>
    <path d="M 450.658923 579.70964 
L 387.315723 567.516757 
L 357.162794 609.836692 
L 421.328259 622.39902 
z
" clip-path="url(#p90db6c72ce)" style="fill: #1a046e"/>
    <path d="M 578.816077 615.577757 
L 579.05569 601.236279 
L 514.579047 588.839069 
L 514.457662 603.140902 
z
" clip-path="url(#p90db6c72ce)" style="fill: #11023d"/>
    <path d="M 450.654887 590.811421 
L 421.366117 633.606799 
L 421.342735 626.684744 
L 450.65738 583.954776 
z
" clip-path="url(#p90db6c72ce)" style="fill: #09033a"/>
    <path d="M 450.654887 590.811421 
L 450.658923 579.70964 
L 421.328259 622.39902 
L 421.366117 633.606799 
z
" clip-path="url(#p90db6c72ce)" style="fill: #1e057f"/>
    <path d="M 357.291872 621.013467 
L 357.108656 605.148897 
L 293.463813 592.708854 
L 293.774259 608.529537 
z
" clip-path="url(#p90db6c72ce)" style="fill: #12023e"/>
    <path d="M 514.457662 603.140902 
L 486.004344 646.310977 
L 421.366117 633.606799 
L 450.654887 590.811421 
z
" clip-path="url(#p90db6c72ce)" style="fill: #0c044a"/>
    <path d="M 514.516018 596.265298 
L 450.65738 583.954776 
L 421.342735 626.684744 
L 486.038298 639.36972 
z
" clip-path="url(#p90db6c72ce)" style="fill: #11056a"/>
    <path d="M 514.457662 603.140902 
L 486.004344 646.310977 
L 486.021736 642.755414 
L 514.487554 599.618946 
z
" clip-path="url(#p90db6c72ce)" style="fill: #050338"/>
    <path d="M 514.457662 603.140902 
L 514.516018 596.265298 
L 486.038298 639.36972 
L 486.004344 646.310977 
z
" clip-path="url(#p90db6c72ce)" style="fill: #13067a"/>
    <path d="M 421.366117 633.606799 
L 421.328259 622.39902 
L 357.162794 609.836692 
L 357.291872 621.013467 
z
" clip-path="url(#p90db6c72ce)" style="fill: #0e023c"/>
    <path d="M 578.816077 615.577757 
L 551.214031 659.127472 
L 486.004344 646.310977 
L 514.457662 603.140902 
z
" clip-path="url(#p90db6c72ce)" style="fill: #070448"/>
    <path d="M 578.875084 612.046059 
L 514.487554 599.618946 
L 486.021736 642.755414 
L 551.261314 655.562044 
z
" clip-path="url(#p90db6c72ce)" style="fill: #0a0667"/>
    <path d="M 578.816077 615.577757 
L 578.875084 612.046059 
L 551.261314 655.562044 
L 551.214031 659.127472 
z
" clip-path="url(#p90db6c72ce)" style="fill: #0b0777"/>
    <path d="M 486.004344 646.310977 
L 486.038298 639.36972 
L 421.342735 626.684744 
L 421.366117 633.606799 
z
" clip-path="url(#p90db6c72ce)" style="fill: #09033a"/>
    <path d="M 551.214031 659.127472 
L 551.261314 655.562044 
L 486.021736 642.755414 
L 486.004344 646.310977 
z
" clip-path="url(#p90db6c72ce)" style="fill: #050338"/>
   </g>
  </g>
 </g>
 <defs>
  <clipPath id="p90db6c72ce">
   <rect x="7.2" y="7.2" width="857.99952" height="857.99952"/>
  </clipPath>
 </defs>
</svg>
