<?xml version="1.0" encoding="utf-8" standalone="no"?>
<!DOCTYPE svg PUBLIC "-//W3C//DTD SVG 1.1//EN"
  "http://www.w3.org/Graphics/SVG/1.1/DTD/svg11.dtd">
<svg xmlns:xlink="http://www.w3.org/1999/xlink" width="872.39952pt" height="872.39952pt" viewBox="0 0 872.39952 872.39952" xmlns="http://www.w3.org/2000/svg" version="1.1">
 <metadata>
  <rdf:RDF xmlns:dc="http://purl.org/dc/elements/1.1/" xmlns:cc="http://creativecommons.org/ns#" xmlns:rdf="http://www.w3.org/1999/02/22-rdf-syntax-ns#">
   <cc:Work>
    <dc:type rdf:resource="http://purl.org/dc/dcmitype/StillImage"/>
    <dc:date>1980-01-01T00:00:00+00:00</dc:date>
    <dc:format>image/svg+xml</dc:format>
    <dc:creator>
     <cc:Agent>
      <dc:title>Matplotlib v3.6.2, https://matplotlib.org/</dc:title>
     </cc:Agent>
    </dc:creator>
   </cc:Work>
  </rdf:RDF>
 </metadata>
 <defs>
  <style type="text/css">*{stroke-linejoin: round; stroke-linecap: butt}</style>
 </defs>
 <g id="figure_1">
  <g id="patch_1">
   <path d="M 0 872.39952 
L 872.39952 872.39952 
L 872.39952 0 
L 0 0 
z
" style="fill: #ffffff"/>
  </g>
  <g id="patch_2">
   <path d="M 7.2 865.19952 
L 865.19952 865.19952 
L 865.19952 7.2 
L 7.2 7.2 
z
" style="fill: #ffffff"/>
  </g>
  <g id="pane3d_1">
   <g id="patch_3">
    <path d="M 192.668907 509.923031 
L 518.546294 419.124559 
L 520.685771 176.048913 
L 184.683789 261.171228 
" style="fill: #f2f2f2; opacity: 0.5; stroke: #f2f2f2; stroke-width: 0.24; stroke-linejoin: miter"/>
   </g>
  </g>
  <g id="pane3d_2">
   <g id="patch_4">
    <path d="M 518.546294 419.124559 
L 710.085837 587.530341 
L 718.533259 334.065929 
L 520.685771 176.048913 
" style="fill: #e6e6e6; opacity: 0.5; stroke: #e6e6e6; stroke-width: 0.24; stroke-linejoin: miter"/>
   </g>
  </g>
  <g id="pane3d_3">
   <g id="patch_5">
    <path d="M 192.668907 509.923031 
L 369.860976 690.354237 
L 710.085837 587.530341 
L 518.546294 419.124559 
" style="fill: #ececec; opacity: 0.5; stroke: #ececec; stroke-width: 0.24; stroke-linejoin: miter"/>
   </g>
  </g>
  <g id="axis3d_1">
   <g id="line2d_1">
    <path d="M 192.668907 509.923031 
L 369.860976 690.354237 
" style="fill: none; stroke: #000000; stroke-width: 0.8; stroke-linecap: square"/>
   </g>
   <g id="text_1">
    <!-- $\delta$ -->
    <g transform="translate(251.592046 621.460716) rotate(-314.481063) scale(0.1 -0.1)">
     <defs>
      <path id="CMMI12-e" d="M 1664 2795 
C 845 2597 256 1748 256 1001 
C 256 319 717 -64 1229 -64 
C 1984 -64 2496 970 2496 1818 
C 2496 2392 2227 2744 2067 2954 
C 1830 3254 1446 3746 1446 4052 
C 1446 4161 1530 4352 1811 4352 
C 2010 4352 2131 4282 2323 4173 
C 2381 4134 2528 4052 2611 4052 
C 2746 4052 2842 4185 2842 4287 
C 2842 4409 2746 4428 2522 4479 
C 2221 4543 2131 4543 2022 4543 
C 1914 4543 1286 4543 1286 3892 
C 1286 3579 1446 3216 1664 2795 
z
M 1734 2669 
C 1978 2165 2074 1974 2074 1560 
C 2074 1063 1805 63 1235 63 
C 986 63 627 229 627 821 
C 627 1235 864 2439 1734 2669 
z
" transform="scale(0.015625)"/>
     </defs>
     <use xlink:href="#CMMI12-e" transform="scale(0.996264)"/>
    </g>
   </g>
   <g id="Line3DCollection_1">
    <path d="M 218.00401 535.721269 
L 545.983167 443.247661 
L 548.979933 198.64692 
" style="fill: none; stroke: #b0b0b0; stroke-width: 0.8"/>
    <path d="M 247.903774 566.167612 
L 578.341733 471.698025 
L 582.369436 225.31448 
" style="fill: none; stroke: #b0b0b0; stroke-width: 0.8"/>
    <path d="M 278.463604 597.286087 
L 611.390453 500.755188 
L 616.493294 252.568555 
" style="fill: none; stroke: #b0b0b0; stroke-width: 0.8"/>
    <path d="M 309.705602 629.0992 
L 645.151646 530.438771 
L 651.376004 280.42871 
" style="fill: none; stroke: #b0b0b0; stroke-width: 0.8"/>
    <path d="M 341.652866 661.630472 
L 679.648601 560.769253 
L 687.043162 308.915389 
" style="fill: none; stroke: #b0b0b0; stroke-width: 0.8"/>
   </g>
   <g id="xtick_1">
    <g id="line2d_2">
     <path d="M 220.717087 534.956318 
L 212.573387 537.252431 
" style="fill: none; stroke: #000000; stroke-width: 0.8; stroke-linecap: square"/>
    </g>
    <g id="text_2">
     <!-- $\mathdefault{0.3}$ -->
     <g transform="translate(202.482845 551.553188) scale(0.08 -0.08)">
      <defs>
       <path id="CMR17-30" d="M 2688 2025 
C 2688 2416 2682 3080 2413 3591 
C 2176 4039 1798 4198 1466 4198 
C 1158 4198 768 4058 525 3597 
C 269 3118 243 2524 243 2025 
C 243 1661 250 1106 448 619 
C 723 -39 1216 -128 1466 -128 
C 1760 -128 2208 -7 2470 600 
C 2662 1042 2688 1559 2688 2025 
z
M 1466 -26 
C 1056 -26 813 325 723 812 
C 653 1188 653 1738 653 2096 
C 653 2588 653 2997 736 3387 
C 858 3929 1216 4096 1466 4096 
C 1728 4096 2067 3923 2189 3400 
C 2272 3036 2278 2607 2278 2096 
C 2278 1680 2278 1169 2202 792 
C 2067 95 1690 -26 1466 -26 
z
" transform="scale(0.015625)"/>
       <path id="CMMI12-3a" d="M 1178 307 
C 1178 492 1024 619 870 619 
C 685 619 557 466 557 313 
C 557 128 710 0 864 0 
C 1050 0 1178 153 1178 307 
z
" transform="scale(0.015625)"/>
       <path id="CMR17-33" d="M 1414 2157 
C 1984 2157 2234 1662 2234 1090 
C 2234 320 1824 25 1453 25 
C 1114 25 563 194 390 693 
C 422 680 454 680 486 680 
C 640 680 755 782 755 948 
C 755 1133 614 1216 486 1216 
C 378 1216 211 1165 211 926 
C 211 335 787 -128 1466 -128 
C 2176 -128 2720 430 2720 1085 
C 2720 1707 2208 2157 1600 2227 
C 2086 2328 2554 2756 2554 3329 
C 2554 3820 2048 4179 1472 4179 
C 890 4179 378 3829 378 3329 
C 378 3110 544 3072 627 3072 
C 762 3072 877 3155 877 3321 
C 877 3486 762 3569 627 3569 
C 602 3569 570 3569 544 3557 
C 730 3959 1235 4032 1459 4032 
C 1683 4032 2106 3925 2106 3320 
C 2106 3143 2080 2828 1862 2550 
C 1670 2304 1453 2304 1242 2284 
C 1210 2284 1062 2269 1037 2269 
C 992 2263 966 2257 966 2208 
C 966 2163 973 2157 1101 2157 
L 1414 2157 
z
" transform="scale(0.015625)"/>
      </defs>
      <use xlink:href="#CMR17-30" transform="scale(0.996264)"/>
      <use xlink:href="#CMMI12-3a" transform="translate(45.690477 0) scale(0.996264)"/>
      <use xlink:href="#CMR17-33" transform="translate(72.787654 0) scale(0.996264)"/>
     </g>
    </g>
   </g>
   <g id="xtick_2">
    <g id="line2d_3">
     <path d="M 250.638172 565.385869 
L 242.430425 567.732399 
" style="fill: none; stroke: #000000; stroke-width: 0.8; stroke-linecap: square"/>
    </g>
    <g id="text_3">
     <!-- $\mathdefault{0.4}$ -->
     <g transform="translate(232.275583 582.115395) scale(0.08 -0.08)">
      <defs>
       <path id="CMR17-34" d="M 2150 4122 
C 2150 4256 2144 4256 2029 4256 
L 128 1254 
L 128 1088 
L 1779 1088 
L 1779 457 
C 1779 224 1766 160 1318 160 
L 1197 160 
L 1197 0 
C 1402 0 1747 0 1965 0 
C 2182 0 2528 0 2733 0 
L 2733 160 
L 2611 160 
C 2163 160 2150 224 2150 457 
L 2150 1088 
L 2803 1088 
L 2803 1254 
L 2150 1254 
L 2150 4122 
z
M 1798 3703 
L 1798 1254 
L 256 1254 
L 1798 3703 
z
" transform="scale(0.015625)"/>
      </defs>
      <use xlink:href="#CMR17-30" transform="scale(0.996264)"/>
      <use xlink:href="#CMMI12-3a" transform="translate(45.690477 0) scale(0.996264)"/>
      <use xlink:href="#CMR17-34" transform="translate(72.787654 0) scale(0.996264)"/>
     </g>
    </g>
   </g>
   <g id="xtick_3">
    <g id="line2d_4">
     <path d="M 281.219608 596.486994 
L 272.946956 598.885619 
" style="fill: none; stroke: #000000; stroke-width: 0.8; stroke-linecap: square"/>
    </g>
    <g id="text_4">
     <!-- $\mathdefault{0.5}$ -->
     <g transform="translate(262.7261 613.352369) scale(0.08 -0.08)">
      <defs>
       <path id="CMR17-35" d="M 730 3692 
C 794 3666 1056 3584 1325 3584 
C 1920 3584 2246 3911 2432 4100 
C 2432 4157 2432 4192 2394 4192 
C 2387 4192 2374 4192 2323 4163 
C 2099 4058 1837 3973 1517 3973 
C 1325 3973 1037 3999 723 4139 
C 653 4171 640 4171 634 4171 
C 602 4171 595 4164 595 4037 
L 595 2203 
C 595 2089 595 2057 659 2057 
C 691 2057 704 2070 736 2114 
C 941 2401 1222 2522 1542 2522 
C 1766 2522 2246 2382 2246 1289 
C 2246 1085 2246 715 2054 421 
C 1894 159 1645 25 1370 25 
C 947 25 518 320 403 814 
C 429 807 480 795 506 795 
C 589 795 749 840 749 1038 
C 749 1210 627 1280 506 1280 
C 358 1280 262 1190 262 1011 
C 262 454 704 -128 1382 -128 
C 2042 -128 2669 440 2669 1264 
C 2669 2030 2170 2624 1549 2624 
C 1222 2624 947 2503 730 2274 
L 730 3692 
z
" transform="scale(0.015625)"/>
      </defs>
      <use xlink:href="#CMR17-30" transform="scale(0.996264)"/>
      <use xlink:href="#CMMI12-3a" transform="translate(45.690477 0) scale(0.996264)"/>
      <use xlink:href="#CMR17-35" transform="translate(72.787654 0) scale(0.996264)"/>
     </g>
    </g>
   </g>
   <g id="xtick_4">
    <g id="line2d_5">
     <path d="M 312.483501 628.282172 
L 304.145074 630.734646 
" style="fill: none; stroke: #000000; stroke-width: 0.8; stroke-linecap: square"/>
    </g>
    <g id="text_5">
     <!-- $\mathdefault{0.6}$ -->
     <g transform="translate(293.856422 645.286706) scale(0.08 -0.08)">
      <defs>
       <path id="CMR17-36" d="M 678 2176 
C 678 3690 1395 4032 1811 4032 
C 1946 4032 2272 4009 2400 3776 
C 2298 3776 2106 3776 2106 3553 
C 2106 3381 2246 3323 2336 3323 
C 2394 3323 2566 3348 2566 3560 
C 2566 3954 2246 4179 1805 4179 
C 1043 4179 243 3390 243 1984 
C 243 253 966 -128 1478 -128 
C 2099 -128 2688 427 2688 1283 
C 2688 2081 2170 2662 1517 2662 
C 1126 2662 838 2407 678 1960 
L 678 2176 
z
M 1478 25 
C 691 25 691 1200 691 1436 
C 691 1896 909 2560 1504 2560 
C 1613 2560 1926 2560 2138 2120 
C 2253 1870 2253 1609 2253 1289 
C 2253 944 2253 690 2118 434 
C 1978 171 1773 25 1478 25 
z
" transform="scale(0.015625)"/>
      </defs>
      <use xlink:href="#CMR17-30" transform="scale(0.996264)"/>
      <use xlink:href="#CMMI12-3a" transform="translate(45.690477 0) scale(0.996264)"/>
      <use xlink:href="#CMR17-36" transform="translate(72.787654 0) scale(0.996264)"/>
     </g>
    </g>
   </g>
   <g id="xtick_5">
    <g id="line2d_6">
     <path d="M 344.452953 660.794899 
L 336.047873 663.303057 
" style="fill: none; stroke: #000000; stroke-width: 0.8; stroke-linecap: square"/>
    </g>
    <g id="text_6">
     <!-- $\mathdefault{0.7}$ -->
     <g transform="translate(325.689572 677.942023) scale(0.08 -0.08)">
      <defs>
       <path id="CMR17-37" d="M 2886 3941 
L 2886 4081 
L 1382 4081 
C 634 4081 621 4165 595 4288 
L 480 4288 
L 294 3094 
L 410 3094 
C 429 3215 474 3540 550 3661 
C 589 3712 1062 3712 1171 3712 
L 2579 3712 
L 1869 2661 
C 1395 1954 1069 999 1069 165 
C 1069 89 1069 -128 1299 -128 
C 1530 -128 1530 89 1530 171 
L 1530 465 
C 1530 1508 1709 2196 2003 2636 
L 2886 3941 
z
" transform="scale(0.015625)"/>
      </defs>
      <use xlink:href="#CMR17-30" transform="scale(0.996264)"/>
      <use xlink:href="#CMMI12-3a" transform="translate(45.690477 0) scale(0.996264)"/>
      <use xlink:href="#CMR17-37" transform="translate(72.787654 0) scale(0.996264)"/>
     </g>
    </g>
   </g>
  </g>
  <g id="axis3d_2">
   <g id="line2d_7">
    <path d="M 710.085837 587.530341 
L 369.860976 690.354237 
" style="fill: none; stroke: #000000; stroke-width: 0.8; stroke-linecap: square"/>
   </g>
   <g id="text_7">
    <!-- $\Theta$ -->
    <g transform="translate(550.853655 665.843589) rotate(-16.816043) scale(0.1 -0.1)">
     <defs>
      <path id="CMR17-2" d="M 4307 2153 
C 4307 3467 3366 4455 2304 4455 
C 1216 4455 294 3454 294 2153 
C 294 852 1229 -128 2298 -128 
C 3392 -128 4307 872 4307 2153 
z
M 2304 -20 
C 1574 -20 762 673 762 2153 
C 762 3679 1600 4352 2298 4352 
C 3021 4352 3840 3660 3840 2153 
C 3840 653 3008 -20 2304 -20 
z
M 3501 2560 
L 3386 2560 
L 3386 2342 
L 1216 2342 
L 1216 2560 
L 1101 2560 
L 1101 1766 
L 1216 1766 
L 1216 1984 
L 3386 1984 
L 3386 1766 
L 3501 1766 
L 3501 2560 
z
" transform="scale(0.015625)"/>
     </defs>
     <use xlink:href="#CMR17-2" transform="scale(0.996264)"/>
    </g>
   </g>
   <g id="Line3DCollection_2">
    <path d="M 244.392851 246.04461 
L 250.529846 493.80137 
L 430.375951 672.065199 
" style="fill: none; stroke: #b0b0b0; stroke-width: 0.8"/>
    <path d="M 318.795616 227.195508 
L 322.659267 473.704114 
L 505.74937 649.285592 
" style="fill: none; stroke: #b0b0b0; stroke-width: 0.8"/>
    <path d="M 392.084437 208.628611 
L 393.740889 453.898804 
L 579.957906 626.85804 
" style="fill: none; stroke: #b0b0b0; stroke-width: 0.8"/>
    <path d="M 464.284143 190.337629 
L 463.797379 434.379124 
L 653.028356 604.774444 
" style="fill: none; stroke: #b0b0b0; stroke-width: 0.8"/>
   </g>
   <g id="xtick_6">
    <g id="line2d_8">
     <path d="M 428.844604 670.547325 
L 433.443419 675.105679 
" style="fill: none; stroke: #000000; stroke-width: 0.8; stroke-linecap: square"/>
    </g>
    <g id="text_8">
     <!-- $\mathdefault{35}$ -->
     <g transform="translate(431.993204 691.003543) scale(0.08 -0.08)">
      <use xlink:href="#CMR17-33" transform="scale(0.996264)"/>
      <use xlink:href="#CMR17-35" transform="translate(45.690477 0) scale(0.996264)"/>
     </g>
    </g>
   </g>
   <g id="xtick_7">
    <g id="line2d_9">
     <path d="M 504.191135 647.791261 
L 508.87066 652.278876 
" style="fill: none; stroke: #000000; stroke-width: 0.8; stroke-linecap: square"/>
    </g>
    <g id="text_9">
     <!-- $\mathdefault{50}$ -->
     <g transform="translate(507.395663 668.096889) scale(0.08 -0.08)">
      <use xlink:href="#CMR17-35" transform="scale(0.996264)"/>
      <use xlink:href="#CMR17-30" transform="translate(45.690477 0) scale(0.996264)"/>
     </g>
    </g>
   </g>
   <g id="xtick_8">
    <g id="line2d_10">
     <path d="M 578.373793 625.386709 
L 583.130994 629.805219 
" style="fill: none; stroke: #000000; stroke-width: 0.8; stroke-linecap: square"/>
    </g>
    <g id="text_10">
     <!-- $\mathdefault{65}$ -->
     <g transform="translate(581.631645 645.544602) scale(0.08 -0.08)">
      <use xlink:href="#CMR17-36" transform="scale(0.996264)"/>
      <use xlink:href="#CMR17-35" transform="translate(45.690477 0) scale(0.996264)"/>
     </g>
    </g>
   </g>
   <g id="xtick_9">
    <g id="line2d_11">
     <path d="M 651.419339 603.325586 
L 656.251291 607.676575 
" style="fill: none; stroke: #000000; stroke-width: 0.8; stroke-linecap: square"/>
    </g>
    <g id="text_11">
     <!-- $\mathdefault{80}$ -->
     <g transform="translate(654.728009 623.338521) scale(0.08 -0.08)">
      <defs>
       <path id="CMR17-38" d="M 1741 2264 
C 2144 2467 2554 2773 2554 3263 
C 2554 3841 1990 4179 1472 4179 
C 890 4179 378 3759 378 3180 
C 378 3021 416 2747 666 2505 
C 730 2442 998 2251 1171 2130 
C 883 1983 211 1634 211 934 
C 211 279 838 -128 1459 -128 
C 2144 -128 2720 362 2720 1010 
C 2720 1590 2330 1857 2074 2029 
L 1741 2264 
z
M 902 2822 
C 851 2854 595 3051 595 3351 
C 595 3739 998 4032 1459 4032 
C 1965 4032 2336 3676 2336 3262 
C 2336 2669 1670 2331 1638 2331 
C 1632 2331 1626 2331 1574 2370 
L 902 2822 
z
M 2080 1519 
C 2176 1449 2483 1240 2483 851 
C 2483 381 2010 25 1472 25 
C 890 25 448 438 448 940 
C 448 1443 838 1862 1280 2060 
L 2080 1519 
z
" transform="scale(0.015625)"/>
      </defs>
      <use xlink:href="#CMR17-38" transform="scale(0.996264)"/>
      <use xlink:href="#CMR17-30" transform="translate(45.690477 0) scale(0.996264)"/>
     </g>
    </g>
   </g>
  </g>
  <g id="axis3d_3">
   <g id="line2d_12">
    <path d="M 710.085837 587.530341 
L 718.533259 334.065929 
" style="fill: none; stroke: #000000; stroke-width: 0.8; stroke-linecap: square"/>
   </g>
   <g id="text_12">
    <!-- $\eta$ -->
    <g transform="translate(746.935583 469.703739) rotate(-88.091162) scale(0.1 -0.1)">
     <defs>
      <path id="CMMI12-11" d="M 3040 1768 
C 3072 1895 3091 1973 3091 2145 
C 3091 2528 2867 2815 2381 2815 
C 1811 2815 1510 2413 1395 2254 
C 1376 2618 1114 2815 832 2815 
C 646 2815 499 2726 378 2483 
C 262 2254 173 1864 173 1839 
C 173 1813 198 1781 243 1781 
C 294 1781 301 1788 339 1934 
C 435 2311 557 2688 813 2688 
C 960 2688 1011 2586 1011 2394 
C 1011 2254 947 2005 902 1807 
L 723 1118 
C 698 996 627 709 595 593 
C 550 428 480 127 480 96 
C 480 6 550 -64 646 -64 
C 723 -64 813 -25 864 70 
C 877 102 934 326 966 453 
L 1107 1028 
L 1318 1871 
C 1331 1909 1491 2228 1728 2432 
C 1894 2586 2112 2688 2362 2688 
C 2618 2688 2707 2496 2707 2241 
C 2707 2055 2682 1953 2650 1831 
L 1907 -1107 
C 1901 -1139 1888 -1177 1888 -1216 
C 1888 -1312 1965 -1376 2061 -1376 
C 2118 -1376 2253 -1350 2304 -1158 
L 3040 1768 
z
" transform="scale(0.015625)"/>
     </defs>
     <use xlink:href="#CMMI12-11" transform="scale(0.996264)"/>
    </g>
   </g>
   <g id="Line3DCollection_3">
    <path d="M 710.249616 582.616155 
L 518.587852 414.402967 
L 192.513957 505.096052 
" style="fill: none; stroke: #b0b0b0; stroke-width: 0.8"/>
    <path d="M 711.981673 530.645887 
L 519.027163 364.490881 
L 190.875602 454.058126 
" style="fill: none; stroke: #b0b0b0; stroke-width: 0.8"/>
    <path d="M 713.736743 477.985112 
L 519.47196 313.955466 
L 189.216081 402.36086 
" style="fill: none; stroke: #b0b0b0; stroke-width: 0.8"/>
    <path d="M 715.515288 424.619978 
L 519.922347 262.784971 
L 187.534982 349.991393 
" style="fill: none; stroke: #b0b0b0; stroke-width: 0.8"/>
    <path d="M 717.317782 370.536257 
L 520.37843 210.967349 
L 185.831882 296.936529 
" style="fill: none; stroke: #b0b0b0; stroke-width: 0.8"/>
   </g>
   <g id="xtick_10">
    <g id="line2d_13">
     <path d="M 708.620453 581.186309 
L 713.51288 585.48018 
" style="fill: none; stroke: #000000; stroke-width: 0.8; stroke-linecap: square"/>
    </g>
    <g id="text_13">
     <!-- $\mathdefault{0}$ -->
     <g transform="translate(724.345796 590.578556) scale(0.08 -0.08)">
      <use xlink:href="#CMR17-30" transform="scale(0.996264)"/>
     </g>
    </g>
   </g>
   <g id="xtick_11">
    <g id="line2d_14">
     <path d="M 710.340884 529.232987 
L 715.268256 533.475995 
" style="fill: none; stroke: #000000; stroke-width: 0.8; stroke-linecap: square"/>
    </g>
    <g id="text_14">
     <!-- $\mathdefault{10}$ -->
     <g transform="translate(724.069345 538.579536) scale(0.08 -0.08)">
      <defs>
       <path id="CMR17-31" d="M 1702 4058 
C 1702 4192 1696 4192 1606 4192 
C 1357 3916 979 3827 621 3827 
C 602 3827 570 3827 563 3808 
C 557 3795 557 3782 557 3648 
C 755 3648 1088 3686 1344 3839 
L 1344 461 
C 1344 236 1331 160 781 160 
L 589 160 
L 589 0 
C 896 0 1216 0 1523 0 
C 1830 0 2150 0 2458 0 
L 2458 160 
L 2266 160 
C 1715 160 1702 230 1702 458 
L 1702 4058 
z
" transform="scale(0.015625)"/>
      </defs>
      <use xlink:href="#CMR17-31" transform="scale(0.996264)"/>
      <use xlink:href="#CMR17-30" transform="translate(45.690477 0) scale(0.996264)"/>
     </g>
    </g>
   </g>
   <g id="xtick_12">
    <g id="line2d_15">
     <path d="M 712.084163 476.589737 
L 717.046978 480.780146 
" style="fill: none; stroke: #000000; stroke-width: 0.8; stroke-linecap: square"/>
    </g>
    <g id="text_15">
     <!-- $\mathdefault{20}$ -->
     <g transform="translate(725.934462 485.88903) scale(0.08 -0.08)">
      <defs>
       <path id="CMR17-32" d="M 2669 989 
L 2554 989 
C 2490 536 2438 459 2413 420 
C 2381 369 1920 369 1830 369 
L 602 369 
C 832 619 1280 1072 1824 1597 
C 2214 1967 2669 2402 2669 3035 
C 2669 3790 2067 4224 1395 4224 
C 691 4224 262 3604 262 3030 
C 262 2780 448 2748 525 2748 
C 589 2748 781 2787 781 3010 
C 781 3207 614 3264 525 3264 
C 486 3264 448 3258 422 3245 
C 544 3790 915 4058 1306 4058 
C 1862 4058 2227 3617 2227 3035 
C 2227 2479 1901 2000 1536 1584 
L 262 146 
L 262 0 
L 2515 0 
L 2669 989 
z
" transform="scale(0.015625)"/>
      </defs>
      <use xlink:href="#CMR17-32" transform="scale(0.996264)"/>
      <use xlink:href="#CMR17-30" transform="translate(45.690477 0) scale(0.996264)"/>
     </g>
    </g>
   </g>
   <g id="xtick_13">
    <g id="line2d_16">
     <path d="M 713.850747 423.242724 
L 718.849516 427.378742 
" style="fill: none; stroke: #000000; stroke-width: 0.8; stroke-linecap: square"/>
    </g>
    <g id="text_16">
     <!-- $\mathdefault{30}$ -->
     <g transform="translate(727.824548 432.49315) scale(0.08 -0.08)">
      <use xlink:href="#CMR17-33" transform="scale(0.996264)"/>
      <use xlink:href="#CMR17-30" transform="translate(45.690477 0) scale(0.996264)"/>
     </g>
    </g>
   </g>
   <g id="xtick_14">
    <g id="line2d_17">
     <path d="M 715.641106 369.177741 
L 720.676351 373.257517 
" style="fill: none; stroke: #000000; stroke-width: 0.8; stroke-linecap: square"/>
    </g>
    <g id="text_17">
     <!-- $\mathdefault{40}$ -->
     <g transform="translate(729.740107 378.377638) scale(0.08 -0.08)">
      <use xlink:href="#CMR17-34" transform="scale(0.996264)"/>
      <use xlink:href="#CMR17-30" transform="translate(45.690477 0) scale(0.996264)"/>
     </g>
    </g>
   </g>
  </g>
  <g id="axes_1">
   <g id="Poly3DCollection_1">
    <path d="M 440.166333 449.650669 
L 509.942419 430.146426 
L 541.839523 458.386683 
L 471.557979 478.30517 
z
" clip-path="url(#pfd3609c3c8)" style="fill: #808512"/>
    <path d="M 369.368411 469.440543 
L 440.166333 449.650669 
L 471.557979 478.30517 
L 400.236202 498.518469 
z
" clip-path="url(#pfd3609c3c8)" style="fill: #857613"/>
    <path d="M 440.166333 449.650669 
L 439.942019 214.164485 
L 511.756412 195.839953 
L 509.942419 430.146426 
z
" clip-path="url(#pfd3609c3c8)" style="fill: #d4dc1e"/>
    <path d="M 471.557979 478.30517 
L 541.839523 458.386683 
L 574.415194 487.227713 
L 503.622397 507.573781 
z
" clip-path="url(#pfd3609c3c8)" style="fill: #847a14"/>
    <path d="M 509.942419 430.146426 
L 511.756412 195.839953 
L 544.61428 222.374625 
L 541.839523 458.386683 
z
" clip-path="url(#pfd3609c3c8)" style="fill: #64680e"/>
    <path d="M 297.526039 489.522368 
L 369.368411 469.440543 
L 400.236202 498.518469 
L 327.850927 519.033174 
z
" clip-path="url(#pfd3609c3c8)" style="fill: #876118"/>
    <path d="M 369.368411 469.440543 
L 367.176352 246.166824 
L 439.954718 227.49595 
L 440.166333 449.650669 
z
" clip-path="url(#pfd3609c3c8)" style="fill: #dcc420"/>
    <path d="M 440.166333 449.650669 
L 439.954718 227.49595 
L 472.224412 254.532669 
L 471.557979 478.30517 
z
" clip-path="url(#pfd3609c3c8)" style="fill: #685c0f"/>
    <path d="M 400.236202 498.518469 
L 471.557979 478.30517 
L 503.622397 507.573781 
L 431.770488 528.224242 
z
" clip-path="url(#pfd3609c3c8)" style="fill: #876915"/>
    <path d="M 440.166333 449.650669 
L 471.557979 478.30517 
L 472.264417 241.099933 
L 439.942019 214.164485 
z
" clip-path="url(#pfd3609c3c8)" style="fill: #d4dc1e"/>
    <path d="M 471.557979 478.30517 
L 472.234421 251.171736 
L 544.496488 232.393685 
L 541.839523 458.386683 
z
" clip-path="url(#pfd3609c3c8)" style="fill: #daca21"/>
    <path d="M 471.557979 478.30517 
L 541.839523 458.386683 
L 544.61428 222.374625 
L 472.264417 241.099933 
z
" clip-path="url(#pfd3609c3c8)" style="fill: #64680e"/>
    <path d="M 541.839523 458.386683 
L 544.496488 232.393685 
L 578.031625 259.585946 
L 574.415194 487.227713 
z
" clip-path="url(#pfd3609c3c8)" style="fill: #675f10"/>
    <path d="M 503.622397 507.573781 
L 574.415194 487.227713 
L 607.691318 516.688892 
L 536.381449 537.476459 
z
" clip-path="url(#pfd3609c3c8)" style="fill: #866e14"/>
    <path d="M 297.526039 489.522368 
L 293.670965 285.10524 
L 367.371532 266.046998 
L 369.368411 469.440543 
z
" clip-path="url(#pfd3609c3c8)" style="fill: #e0a128"/>
    <path d="M 224.615934 509.902653 
L 297.526039 489.522368 
L 327.850927 519.033174 
L 254.378187 539.856077 
z
" clip-path="url(#pfd3609c3c8)" style="fill: #793733"/>
    <path d="M 369.368411 469.440543 
L 367.371532 266.046998 
L 399.012012 293.645126 
L 400.236202 498.518469 
z
" clip-path="url(#pfd3609c3c8)" style="fill: #6a4c13"/>
    <path d="M 369.368411 469.440543 
L 400.236202 498.518469 
L 398.892321 273.614332 
L 367.176352 246.166824 
z
" clip-path="url(#pfd3609c3c8)" style="fill: #dcc420"/>
    <path d="M 327.850927 519.033174 
L 400.236202 498.518469 
L 431.770488 528.224242 
L 358.835521 549.185976 
z
" clip-path="url(#pfd3609c3c8)" style="fill: #855221"/>
    <path d="M 400.236202 498.518469 
L 398.966441 286.018646 
L 472.187663 266.872149 
L 471.557979 478.30517 
z
" clip-path="url(#pfd3609c3c8)" style="fill: #e0ae23"/>
    <path d="M 224.615934 509.902653 
L 220.24593 354.281198 
L 294.605796 334.675066 
L 297.526039 489.522368 
z
" clip-path="url(#pfd3609c3c8)" style="fill: #c85a55"/>
    <path d="M 400.236202 498.518469 
L 471.557979 478.30517 
L 472.224412 254.532669 
L 398.892321 273.614332 
z
" clip-path="url(#pfd3609c3c8)" style="fill: #685c0f"/>
    <path d="M 471.557979 478.30517 
L 472.187663 266.872149 
L 505.117994 294.598481 
L 503.622397 507.573781 
z
" clip-path="url(#pfd3609c3c8)" style="fill: #6a5210"/>
    <path d="M 297.526039 489.522368 
L 294.605796 334.675066 
L 325.494429 363.06673 
L 327.850927 519.033174 
z
" clip-path="url(#pfd3609c3c8)" style="fill: #5e2b28"/>
    <path d="M 471.557979 478.30517 
L 503.622397 507.573781 
L 505.229087 278.778717 
L 472.234421 251.171736 
z
" clip-path="url(#pfd3609c3c8)" style="fill: #daca21"/>
    <path d="M 431.770488 528.224242 
L 503.622397 507.573781 
L 536.381449 537.476459 
L 463.993089 558.578418 
z
" clip-path="url(#pfd3609c3c8)" style="fill: #875c1b"/>
    <path d="M 439.942019 214.164485 
L 472.264417 241.099933 
L 544.61428 222.374625 
L 511.756412 195.839953 
z
" clip-path="url(#pfd3609c3c8)" style="fill: #b8bf1a"/>
    <path d="M 503.622397 507.573781 
L 505.152714 289.654247 
L 577.859756 270.404469 
L 574.415194 487.227713 
z
" clip-path="url(#pfd3609c3c8)" style="fill: #dfb621"/>
    <path d="M 503.622397 507.573781 
L 574.415194 487.227713 
L 578.031625 259.585946 
L 505.229087 278.778717 
z
" clip-path="url(#pfd3609c3c8)" style="fill: #675f10"/>
    <path d="M 574.415194 487.227713 
L 577.859756 270.404469 
L 612.089167 298.280738 
L 607.691318 516.688892 
z
" clip-path="url(#pfd3609c3c8)" style="fill: #69560f"/>
    <path d="M 297.526039 489.522368 
L 327.850927 519.033174 
L 324.739857 313.124856 
L 293.670965 285.10524 
z
" clip-path="url(#pfd3609c3c8)" style="fill: #e0a128"/>
    <path d="M 327.850927 519.033174 
L 324.999224 330.291212 
L 399.114054 310.722192 
L 400.236202 498.518469 
z
" clip-path="url(#pfd3609c3c8)" style="fill: #dc8836"/>
    <path d="M 536.381449 537.476459 
L 607.691318 516.688892 
L 641.690732 546.790439 
L 569.857955 568.034034 
z
" clip-path="url(#pfd3609c3c8)" style="fill: #876317"/>
    <path d="M 327.850927 519.033174 
L 400.236202 498.518469 
L 399.012012 293.645126 
L 324.739857 313.124856 
z
" clip-path="url(#pfd3609c3c8)" style="fill: #6a4c13"/>
    <path d="M 254.378187 539.856077 
L 327.850927 519.033174 
L 358.835521 549.185976 
L 284.792823 570.466076 
z
" clip-path="url(#pfd3609c3c8)" style="fill: #6b2442"/>
    <path d="M 400.236202 498.518469 
L 399.114054 310.722192 
L 431.388221 339.060824 
L 431.770488 528.224242 
z
" clip-path="url(#pfd3609c3c8)" style="fill: #68401a"/>
    <path d="M 367.176352 246.166824 
L 398.892321 273.614332 
L 472.224412 254.532669 
L 439.954718 227.49595 
z
" clip-path="url(#pfd3609c3c8)" style="fill: #bfaa1c"/>
    <path d="M 400.236202 498.518469 
L 431.770488 528.224242 
L 431.337921 314.170265 
L 398.966441 286.018646 
z
" clip-path="url(#pfd3609c3c8)" style="fill: #e0ae23"/>
    <path d="M 224.615934 509.902653 
L 254.378187 539.856077 
L 250.549079 383.107111 
L 220.24593 354.281198 
z
" clip-path="url(#pfd3609c3c8)" style="fill: #c85a55"/>
    <path d="M 254.378187 539.856077 
L 251.177041 408.81345 
L 325.88084 388.641582 
L 327.850927 519.033174 
z
" clip-path="url(#pfd3609c3c8)" style="fill: #b03b6d"/>
    <path d="M 431.770488 528.224242 
L 431.366154 328.141142 
L 505.020398 308.496351 
L 503.622397 507.573781 
z
" clip-path="url(#pfd3609c3c8)" style="fill: #df982d"/>
    <path d="M 358.835521 549.185976 
L 431.770488 528.224242 
L 463.993089 558.578418 
L 390.501586 580.001954 
z
" clip-path="url(#pfd3609c3c8)" style="fill: #7f412c"/>
    <path d="M 431.770488 528.224242 
L 503.622397 507.573781 
L 505.117994 294.598481 
L 431.337921 314.170265 
z
" clip-path="url(#pfd3609c3c8)" style="fill: #6a5210"/>
    <path d="M 254.378187 539.856077 
L 327.850927 519.033174 
L 325.494429 363.06673 
L 250.549079 383.107111 
z
" clip-path="url(#pfd3609c3c8)" style="fill: #5e2b28"/>
    <path d="M 327.850927 519.033174 
L 325.88084 388.641582 
L 357.358203 417.853261 
L 358.835521 549.185976 
z
" clip-path="url(#pfd3609c3c8)" style="fill: #531c33"/>
    <path d="M 503.622397 507.573781 
L 505.020398 308.496351 
L 538.624412 336.945168 
L 536.381449 537.476459 
z
" clip-path="url(#pfd3609c3c8)" style="fill: #694815"/>
    <path d="M 503.622397 507.573781 
L 536.381449 537.476459 
L 538.836765 317.959823 
L 505.152714 289.654247 
z
" clip-path="url(#pfd3609c3c8)" style="fill: #dfb621"/>
    <path d="M 472.234421 251.171736 
L 505.229087 278.778717 
L 578.031625 259.585946 
L 544.496488 232.393685 
z
" clip-path="url(#pfd3609c3c8)" style="fill: #bdaf1d"/>
    <path d="M 463.993089 558.578418 
L 536.381449 537.476459 
L 569.857955 568.034034 
L 496.926791 589.602461 
z
" clip-path="url(#pfd3609c3c8)" style="fill: #844e23"/>
    <path d="M 536.381449 537.476459 
L 538.711495 329.159533 
L 611.864833 309.421711 
L 607.691318 516.688892 
z
" clip-path="url(#pfd3609c3c8)" style="fill: #e0a427"/>
    <path d="M 293.670965 285.10524 
L 324.739857 313.124856 
L 399.012012 293.645126 
L 367.371532 266.046998 
z
" clip-path="url(#pfd3609c3c8)" style="fill: #c28c23"/>
    <path d="M 536.381449 537.476459 
L 607.691318 516.688892 
L 612.089167 298.280738 
L 538.836765 317.959823 
z
" clip-path="url(#pfd3609c3c8)" style="fill: #69560f"/>
    <path d="M 327.850927 519.033174 
L 358.835521 549.185976 
L 356.69693 359.066535 
L 324.999224 330.291212 
z
" clip-path="url(#pfd3609c3c8)" style="fill: #dc8836"/>
    <path d="M 607.691318 516.688892 
L 611.864833 309.421711 
L 646.80813 338.005679 
L 641.690732 546.790439 
z
" clip-path="url(#pfd3609c3c8)" style="fill: #6a4d12"/>
    <path d="M 358.835521 549.185976 
L 356.91673 378.606638 
L 431.427503 358.499532 
L 431.770488 528.224242 
z
" clip-path="url(#pfd3609c3c8)" style="fill: #d26c49"/>
    <path d="M 220.24593 354.281198 
L 250.549079 383.107111 
L 325.494429 363.06673 
L 294.605796 334.675066 
z
" clip-path="url(#pfd3609c3c8)" style="fill: #ad4f4a"/>
    <path d="M 358.835521 549.185976 
L 431.770488 528.224242 
L 431.388221 339.060824 
L 356.69693 359.066535 
z
" clip-path="url(#pfd3609c3c8)" style="fill: #68401a"/>
    <path d="M 569.857955 568.034034 
L 641.690732 546.790439 
L 676.437278 577.553464 
L 604.075745 599.268258 
z
" clip-path="url(#pfd3609c3c8)" style="fill: #86571e"/>
    <path d="M 431.770488 528.224242 
L 431.427503 358.499532 
L 464.343683 387.618246 
L 463.993089 558.578418 
z
" clip-path="url(#pfd3609c3c8)" style="fill: #633322"/>
    <path d="M 284.792823 570.466076 
L 358.835521 549.185976 
L 390.501586 580.001954 
L 315.88153 601.754475 
z
" clip-path="url(#pfd3609c3c8)" style="fill: #550e53"/>
    <path d="M 398.966441 286.018646 
L 431.337921 314.170265 
L 505.117994 294.598481 
L 472.187663 266.872149 
z
" clip-path="url(#pfd3609c3c8)" style="fill: #c2971e"/>
    <path d="M 284.792823 570.466076 
L 282.67124 467.809695 
L 357.686497 447.038421 
L 358.835521 549.185976 
z
" clip-path="url(#pfd3609c3c8)" style="fill: #8d178a"/>
    <path d="M 254.378187 539.856077 
L 284.792823 570.466076 
L 282.064994 438.475456 
L 251.177041 408.81345 
z
" clip-path="url(#pfd3609c3c8)" style="fill: #b03b6d"/>
    <path d="M 431.770488 528.224242 
L 463.993089 558.578418 
L 464.40641 357.030448 
L 431.366154 328.141142 
z
" clip-path="url(#pfd3609c3c8)" style="fill: #df982d"/>
    <path d="M 463.993089 558.578418 
L 464.37538 372.161762 
L 538.45605 351.997489 
L 536.381449 537.476459 
z
" clip-path="url(#pfd3609c3c8)" style="fill: #db823a"/>
    <path d="M 358.835521 549.185976 
L 357.686497 447.038421 
L 389.753328 477.118884 
L 390.501586 580.001954 
z
" clip-path="url(#pfd3609c3c8)" style="fill: #430b41"/>
    <path d="M 284.792823 570.466076 
L 358.835521 549.185976 
L 357.358203 417.853261 
L 282.064994 438.475456 
z
" clip-path="url(#pfd3609c3c8)" style="fill: #531c33"/>
    <path d="M 463.993089 558.578418 
L 536.381449 537.476459 
L 538.624412 336.945168 
L 464.40641 357.030448 
z
" clip-path="url(#pfd3609c3c8)" style="fill: #694815"/>
    <path d="M 390.501586 580.001954 
L 463.993089 558.578418 
L 496.926791 589.602461 
L 422.871853 611.50323 
z
" clip-path="url(#pfd3609c3c8)" style="fill: #743038"/>
    <path d="M 536.381449 537.476459 
L 538.45605 351.997489 
L 572.748579 381.199527 
L 569.857955 568.034034 
z
" clip-path="url(#pfd3609c3c8)" style="fill: #673d1b"/>
    <path d="M 505.152714 289.654247 
L 538.836765 317.959823 
L 612.089167 298.280738 
L 577.859756 270.404469 
z
" clip-path="url(#pfd3609c3c8)" style="fill: #c19e1c"/>
    <path d="M 536.381449 537.476459 
L 569.857955 568.034034 
L 573.104604 358.188036 
L 538.711495 329.159533 
z
" clip-path="url(#pfd3609c3c8)" style="fill: #e0a427"/>
    <path d="M 324.999224 330.291212 
L 356.69693 359.066535 
L 431.388221 339.060824 
L 399.114054 310.722192 
z
" clip-path="url(#pfd3609c3c8)" style="fill: #bf762f"/>
    <path d="M 251.177041 408.81345 
L 282.064994 438.475456 
L 357.358203 417.853261 
L 325.88084 388.641582 
z
" clip-path="url(#pfd3609c3c8)" style="fill: #99335f"/>
    <path d="M 569.857955 568.034034 
L 572.915198 370.430187 
L 646.509643 350.183621 
L 641.690732 546.790439 
z
" clip-path="url(#pfd3609c3c8)" style="fill: #de9031"/>
    <path d="M 496.926791 589.602461 
L 569.857955 568.034034 
L 604.075745 599.268258 
L 530.595395 621.318794 
z
" clip-path="url(#pfd3609c3c8)" style="fill: #7e402d"/>
    <path d="M 569.857955 568.034034 
L 641.690732 546.790439 
L 646.80813 338.005679 
L 573.104604 358.188036 
z
" clip-path="url(#pfd3609c3c8)" style="fill: #6a4d12"/>
    <path d="M 358.835521 549.185976 
L 390.501586 580.001954 
L 389.251928 408.178004 
L 356.91673 378.606638 
z
" clip-path="url(#pfd3609c3c8)" style="fill: #d26c49"/>
    <path d="M 390.501586 580.001954 
L 389.416401 430.792455 
L 464.297546 410.11579 
L 463.993089 558.578418 
z
" clip-path="url(#pfd3609c3c8)" style="fill: #c04f5d"/>
    <path d="M 641.690732 546.790439 
L 646.509643 350.183621 
L 682.183751 379.505318 
L 676.437278 577.553464 
z
" clip-path="url(#pfd3609c3c8)" style="fill: #694417"/>
    <path d="M 390.501586 580.001954 
L 463.993089 558.578418 
L 464.343683 387.618246 
L 389.251928 408.178004 
z
" clip-path="url(#pfd3609c3c8)" style="fill: #633322"/>
    <path d="M 463.993089 558.578418 
L 464.297546 410.11579 
L 497.860625 440.06019 
L 496.926791 589.602461 
z
" clip-path="url(#pfd3609c3c8)" style="fill: #5b252c"/>
    <path d="M 431.366154 328.141142 
L 464.40641 357.030448 
L 538.624412 336.945168 
L 505.020398 308.496351 
z
" clip-path="url(#pfd3609c3c8)" style="fill: #c28427"/>
    <path d="M 315.88153 601.754475 
L 314.691499 530.884488 
L 389.988702 509.482075 
L 390.501586 580.001954 
z
" clip-path="url(#pfd3609c3c8)" style="fill: #5b0094"/>
    <path d="M 284.792823 570.466076 
L 315.88153 601.754475 
L 314.145312 498.357362 
L 282.67124 467.809695 
z
" clip-path="url(#pfd3609c3c8)" style="fill: #8d178a"/>
    <path d="M 315.88153 601.754475 
L 390.501586 580.001954 
L 422.871853 611.50323 
L 347.666967 633.744081 
z
" clip-path="url(#pfd3609c3c8)" style="fill: #370059"/>
    <path d="M 463.993089 558.578418 
L 496.926791 589.602461 
L 498.099419 401.820197 
L 464.37538 372.161762 
z
" clip-path="url(#pfd3609c3c8)" style="fill: #db823a"/>
    <path d="M 390.501586 580.001954 
L 389.988702 509.482075 
L 422.646244 540.477291 
L 422.871853 611.50323 
z
" clip-path="url(#pfd3609c3c8)" style="fill: #2b0046"/>
    <path d="M 496.926791 589.602461 
L 497.990945 419.191011 
L 572.481226 398.479829 
L 569.857955 568.034034 
z
" clip-path="url(#pfd3609c3c8)" style="fill: #d1694a"/>
    <path d="M 315.88153 601.754475 
L 390.501586 580.001954 
L 389.753328 477.118884 
L 314.145312 498.357362 
z
" clip-path="url(#pfd3609c3c8)" style="fill: #430b41"/>
    <path d="M 282.67124 467.809695 
L 314.145312 498.357362 
L 389.753328 477.118884 
L 357.686497 447.038421 
z
" clip-path="url(#pfd3609c3c8)" style="fill: #7a1478"/>
    <path d="M 496.926791 589.602461 
L 569.857955 568.034034 
L 572.748579 381.199527 
L 498.099419 401.820197 
z
" clip-path="url(#pfd3609c3c8)" style="fill: #673d1b"/>
    <path d="M 569.857955 568.034034 
L 572.481226 398.479829 
L 607.472385 428.474846 
L 604.075745 599.268258 
z
" clip-path="url(#pfd3609c3c8)" style="fill: #623223"/>
    <path d="M 356.91673 378.606638 
L 389.251928 408.178004 
L 464.343683 387.618246 
L 431.427503 358.499532 
z
" clip-path="url(#pfd3609c3c8)" style="fill: #b65d3f"/>
    <path d="M 538.711495 329.159533 
L 573.104604 358.188036 
L 646.80813 338.005679 
L 611.864833 309.421711 
z
" clip-path="url(#pfd3609c3c8)" style="fill: #c28e22"/>
    <path d="M 422.871853 611.50323 
L 496.926791 589.602461 
L 530.595395 621.318794 
L 455.970078 643.712921 
z
" clip-path="url(#pfd3609c3c8)" style="fill: #641c48"/>
    <path d="M 569.857955 568.034034 
L 604.075745 599.268258 
L 608.034453 400.212362 
L 572.915198 370.430187 
z
" clip-path="url(#pfd3609c3c8)" style="fill: #de9031"/>
    <path d="M 390.501586 580.001954 
L 422.871853 611.50323 
L 422.394446 461.206289 
L 389.416401 430.792455 
z
" clip-path="url(#pfd3609c3c8)" style="fill: #c04f5d"/>
    <path d="M 422.871853 611.50323 
L 422.479149 487.872644 
L 497.69496 466.589452 
L 496.926791 589.602461 
z
" clip-path="url(#pfd3609c3c8)" style="fill: #a62f77"/>
    <path d="M 604.075745 599.268258 
L 676.437278 577.553464 
L 682.183751 379.505318 
L 608.034453 400.212362 
z
" clip-path="url(#pfd3609c3c8)" style="fill: #694417"/>
    <path d="M 422.871853 611.50323 
L 496.926791 589.602461 
L 497.860625 440.06019 
L 422.394446 461.206289 
z
" clip-path="url(#pfd3609c3c8)" style="fill: #5b252c"/>
    <path d="M 496.926791 589.602461 
L 497.69496 466.589452 
L 531.904633 497.413084 
L 530.595395 621.318794 
z
" clip-path="url(#pfd3609c3c8)" style="fill: #4e1638"/>
    <path d="M 347.666967 633.744081 
L 347.270592 602.771813 
L 422.773956 580.683157 
L 422.871853 611.50323 
z
" clip-path="url(#pfd3609c3c8)" style="fill: #0b0777"/>
    <path d="M 464.37538 372.161762 
L 498.099419 401.820197 
L 572.748579 381.199527 
L 538.45605 351.997489 
z
" clip-path="url(#pfd3609c3c8)" style="fill: #be7033"/>
    <path d="M 315.88153 601.754475 
L 347.666967 633.744081 
L 346.75347 562.364565 
L 314.691499 530.884488 
z
" clip-path="url(#pfd3609c3c8)" style="fill: #5b0094"/>
    <path d="M 314.691499 530.884488 
L 346.75347 562.364565 
L 422.646244 540.477291 
L 389.988702 509.482075 
z
" clip-path="url(#pfd3609c3c8)" style="fill: #4f0080"/>
    <path d="M 422.871853 611.50323 
L 422.773956 580.683157 
L 456.002556 612.672874 
L 455.970078 643.712921 
z
" clip-path="url(#pfd3609c3c8)" style="fill: #050338"/>
    <path d="M 347.666967 633.744081 
L 422.871853 611.50323 
L 422.646244 540.477291 
L 346.75347 562.364565 
z
" clip-path="url(#pfd3609c3c8)" style="fill: #2b0046"/>
    <path d="M 496.926791 589.602461 
L 530.595395 621.318794 
L 532.409221 449.659135 
L 497.990945 419.191011 
z
" clip-path="url(#pfd3609c3c8)" style="fill: #d1694a"/>
    <path d="M 389.416401 430.792455 
L 422.394446 461.206289 
L 497.860625 440.06019 
L 464.297546 410.11579 
z
" clip-path="url(#pfd3609c3c8)" style="fill: #a74551"/>
    <path d="M 347.666967 633.744081 
L 422.871853 611.50323 
L 455.970078 643.712921 
L 380.172823 666.458732 
z
" clip-path="url(#pfd3609c3c8)" style="fill: #070448"/>
    <path d="M 530.595395 621.318794 
L 604.075745 599.268258 
L 607.472385 428.474846 
L 532.409221 449.659135 
z
" clip-path="url(#pfd3609c3c8)" style="fill: #623223"/>
    <path d="M 572.915198 370.430187 
L 608.034453 400.212362 
L 682.183751 379.505318 
L 646.509643 350.183621 
z
" clip-path="url(#pfd3609c3c8)" style="fill: #c17d2b"/>
    <path d="M 347.270592 602.771813 
L 379.902084 635.265047 
L 456.002556 612.672874 
L 422.773956 580.683157 
z
" clip-path="url(#pfd3609c3c8)" style="fill: #0a0667"/>
    <path d="M 422.871853 611.50323 
L 455.970078 643.712921 
L 456.100375 519.183376 
L 422.479149 487.872644 
z
" clip-path="url(#pfd3609c3c8)" style="fill: #a62f77"/>
    <path d="M 455.970078 643.712921 
L 530.595395 621.318794 
L 531.904633 497.413084 
L 456.100375 519.183376 
z
" clip-path="url(#pfd3609c3c8)" style="fill: #4e1638"/>
    <path d="M 347.666967 633.744081 
L 380.172823 666.458732 
L 379.902084 635.265047 
L 347.270592 602.771813 
z
" clip-path="url(#pfd3609c3c8)" style="fill: #0b0777"/>
    <path d="M 497.990945 419.191011 
L 532.409221 449.659135 
L 607.472385 428.474846 
L 572.481226 398.479829 
z
" clip-path="url(#pfd3609c3c8)" style="fill: #b55c40"/>
    <path d="M 380.172823 666.458732 
L 455.970078 643.712921 
L 456.002556 612.672874 
L 379.902084 635.265047 
z
" clip-path="url(#pfd3609c3c8)" style="fill: #050338"/>
    <path d="M 422.479149 487.872644 
L 456.100375 519.183376 
L 531.904633 497.413084 
L 497.69496 466.589452 
z
" clip-path="url(#pfd3609c3c8)" style="fill: #902967"/>
   </g>
  </g>
 </g>
 <defs>
  <clipPath id="pfd3609c3c8">
   <rect x="7.2" y="7.2" width="857.99952" height="857.99952"/>
  </clipPath>
 </defs>
</svg>
