<?xml version="1.0" encoding="utf-8" standalone="no"?>
<!DOCTYPE svg PUBLIC "-//W3C//DTD SVG 1.1//EN"
  "http://www.w3.org/Graphics/SVG/1.1/DTD/svg11.dtd">
<svg xmlns:xlink="http://www.w3.org/1999/xlink" width="235.23826pt" height="106.320119pt" viewBox="0 0 235.23826 106.320119" xmlns="http://www.w3.org/2000/svg" version="1.1">
 <metadata>
  <rdf:RDF xmlns:dc="http://purl.org/dc/elements/1.1/" xmlns:cc="http://creativecommons.org/ns#" xmlns:rdf="http://www.w3.org/1999/02/22-rdf-syntax-ns#">
   <cc:Work>
    <dc:type rdf:resource="http://purl.org/dc/dcmitype/StillImage"/>
    <dc:date>1980-01-01T00:00:00+00:00</dc:date>
    <dc:format>image/svg+xml</dc:format>
    <dc:creator>
     <cc:Agent>
      <dc:title>Matplotlib v3.6.2, https://matplotlib.org/</dc:title>
     </cc:Agent>
    </dc:creator>
   </cc:Work>
  </rdf:RDF>
 </metadata>
 <defs>
  <style type="text/css">*{stroke-linejoin: round; stroke-linecap: butt}</style>
 </defs>
 <g id="figure_1">
  <g id="patch_1">
   <path d="M 0 106.320119 
L 235.23826 106.320119 
L 235.23826 0 
L 0 0 
z
" style="fill: #ffffff"/>
  </g>
  <g id="patch_2">
   <path d="M 7.2 98.948262 
L 98.948262 98.948262 
L 98.948262 7.2 
L 7.2 7.2 
z
" style="fill: #ffffff"/>
  </g>
  <g id="pane3d_1">
   <g id="patch_3">
    <path d="M 26.154459 68.996261 
L 47.211488 51.184367 
L 46.996765 25.19567 
L 25.248348 41.908194 
" style="fill: #f2f2f2; opacity: 0.5; stroke: #f2f2f2; stroke-width: 0.24; stroke-linejoin: miter"/>
   </g>
  </g>
  <g id="pane3d_2">
   <g id="patch_4">
    <path d="M 47.211488 51.184367 
L 81.750481 61.204031 
L 82.609949 34.589149 
L 46.996765 25.19567 
" style="fill: #e6e6e6; opacity: 0.5; stroke: #e6e6e6; stroke-width: 0.24; stroke-linejoin: miter"/>
   </g>
  </g>
  <g id="pane3d_3">
   <g id="patch_5">
    <path d="M 26.154459 68.996261 
L 62.141045 80.329096 
L 81.750481 61.204031 
L 47.211488 51.184367 
" style="fill: #ececec; opacity: 0.5; stroke: #ececec; stroke-width: 0.24; stroke-linejoin: miter"/>
   </g>
  </g>
  <g id="axis3d_1">
   <g id="line2d_1">
    <path d="M 26.154459 68.996261 
L 62.141045 80.329096 
" style="fill: none; stroke: #000000; stroke-width: 0.8; stroke-linecap: square"/>
   </g>
   <g id="text_1">
    <!-- $\delta$ -->
    <g transform="translate(29.612982 100.832454) rotate(-342.51983) scale(0.1 -0.1)">
     <defs>
      <path id="CMMI12-e" d="M 1664 2795 
C 845 2597 256 1748 256 1001 
C 256 319 717 -64 1229 -64 
C 1984 -64 2496 970 2496 1818 
C 2496 2392 2227 2744 2067 2954 
C 1830 3254 1446 3746 1446 4052 
C 1446 4161 1530 4352 1811 4352 
C 2010 4352 2131 4282 2323 4173 
C 2381 4134 2528 4052 2611 4052 
C 2746 4052 2842 4185 2842 4287 
C 2842 4409 2746 4428 2522 4479 
C 2221 4543 2131 4543 2022 4543 
C 1914 4543 1286 4543 1286 3892 
C 1286 3579 1446 3216 1664 2795 
z
M 1734 2669 
C 1978 2165 2074 1974 2074 1560 
C 2074 1063 1805 63 1235 63 
C 986 63 627 229 627 821 
C 627 1235 864 2439 1734 2669 
z
" transform="scale(0.015625)"/>
     </defs>
     <use xlink:href="#CMMI12-e" transform="scale(0.996264)"/>
    </g>
   </g>
   <g id="Line3DCollection_1">
    <path d="M 31.418266 70.65393 
L 52.273003 52.652698 
L 52.210973 26.570991 
" style="fill: none; stroke: #b0b0b0; stroke-width: 0.8"/>
    <path d="M 37.578697 72.593963 
L 58.192565 54.369947 
L 58.311171 28.180004 
" style="fill: none; stroke: #b0b0b0; stroke-width: 0.8"/>
    <path d="M 43.817961 74.558821 
L 64.183356 56.107858 
L 64.48703 29.808974 
" style="fill: none; stroke: #b0b0b0; stroke-width: 0.8"/>
    <path d="M 50.137581 76.548985 
L 70.246669 57.866808 
L 70.739965 31.458274 
" style="fill: none; stroke: #b0b0b0; stroke-width: 0.8"/>
    <path d="M 56.539119 78.564947 
L 76.383828 59.647181 
L 77.071429 33.128286 
" style="fill: none; stroke: #b0b0b0; stroke-width: 0.8"/>
   </g>
   <g id="xtick_1">
    <g id="line2d_2">
     <path d="M 31.595474 70.500969 
L 31.063316 70.960313 
" style="fill: none; stroke: #000000; stroke-width: 0.8; stroke-linecap: square"/>
    </g>
    <g id="text_2">
     <!-- $\mathdefault{0.3}$ -->
     <g transform="translate(19.849789 89.244681) scale(0.08 -0.08)">
      <defs>
       <path id="CMR17-30" d="M 2688 2025 
C 2688 2416 2682 3080 2413 3591 
C 2176 4039 1798 4198 1466 4198 
C 1158 4198 768 4058 525 3597 
C 269 3118 243 2524 243 2025 
C 243 1661 250 1106 448 619 
C 723 -39 1216 -128 1466 -128 
C 1760 -128 2208 -7 2470 600 
C 2662 1042 2688 1559 2688 2025 
z
M 1466 -26 
C 1056 -26 813 325 723 812 
C 653 1188 653 1738 653 2096 
C 653 2588 653 2997 736 3387 
C 858 3929 1216 4096 1466 4096 
C 1728 4096 2067 3923 2189 3400 
C 2272 3036 2278 2607 2278 2096 
C 2278 1680 2278 1169 2202 792 
C 2067 95 1690 -26 1466 -26 
z
" transform="scale(0.015625)"/>
       <path id="CMMI12-3a" d="M 1178 307 
C 1178 492 1024 619 870 619 
C 685 619 557 466 557 313 
C 557 128 710 0 864 0 
C 1050 0 1178 153 1178 307 
z
" transform="scale(0.015625)"/>
       <path id="CMR17-33" d="M 1414 2157 
C 1984 2157 2234 1662 2234 1090 
C 2234 320 1824 25 1453 25 
C 1114 25 563 194 390 693 
C 422 680 454 680 486 680 
C 640 680 755 782 755 948 
C 755 1133 614 1216 486 1216 
C 378 1216 211 1165 211 926 
C 211 335 787 -128 1466 -128 
C 2176 -128 2720 430 2720 1085 
C 2720 1707 2208 2157 1600 2227 
C 2086 2328 2554 2756 2554 3329 
C 2554 3820 2048 4179 1472 4179 
C 890 4179 378 3829 378 3329 
C 378 3110 544 3072 627 3072 
C 762 3072 877 3155 877 3321 
C 877 3486 762 3569 627 3569 
C 602 3569 570 3569 544 3557 
C 730 3959 1235 4032 1459 4032 
C 1683 4032 2106 3925 2106 3320 
C 2106 3143 2080 2828 1862 2550 
C 1670 2304 1453 2304 1242 2284 
C 1210 2284 1062 2269 1037 2269 
C 992 2263 966 2257 966 2208 
C 966 2163 973 2157 1101 2157 
L 1414 2157 
z
" transform="scale(0.015625)"/>
      </defs>
      <use xlink:href="#CMR17-30" transform="scale(0.996264)"/>
      <use xlink:href="#CMMI12-3a" transform="translate(45.690477 0) scale(0.996264)"/>
      <use xlink:href="#CMR17-33" transform="translate(72.787654 0) scale(0.996264)"/>
     </g>
    </g>
   </g>
   <g id="xtick_2">
    <g id="line2d_3">
     <path d="M 37.753923 72.439051 
L 37.227712 72.904256 
" style="fill: none; stroke: #000000; stroke-width: 0.8; stroke-linecap: square"/>
    </g>
    <g id="text_3">
     <!-- $\mathdefault{0.4}$ -->
     <g transform="translate(26.026521 91.286046) scale(0.08 -0.08)">
      <defs>
       <path id="CMR17-34" d="M 2150 4122 
C 2150 4256 2144 4256 2029 4256 
L 128 1254 
L 128 1088 
L 1779 1088 
L 1779 457 
C 1779 224 1766 160 1318 160 
L 1197 160 
L 1197 0 
C 1402 0 1747 0 1965 0 
C 2182 0 2528 0 2733 0 
L 2733 160 
L 2611 160 
C 2163 160 2150 224 2150 457 
L 2150 1088 
L 2803 1088 
L 2803 1254 
L 2150 1254 
L 2150 4122 
z
M 1798 3703 
L 1798 1254 
L 256 1254 
L 1798 3703 
z
" transform="scale(0.015625)"/>
      </defs>
      <use xlink:href="#CMR17-30" transform="scale(0.996264)"/>
      <use xlink:href="#CMMI12-3a" transform="translate(45.690477 0) scale(0.996264)"/>
      <use xlink:href="#CMR17-34" transform="translate(72.787654 0) scale(0.996264)"/>
     </g>
    </g>
   </g>
   <g id="xtick_3">
    <g id="line2d_4">
     <path d="M 43.99114 74.401921 
L 43.471073 74.8731 
" style="fill: none; stroke: #000000; stroke-width: 0.8; stroke-linecap: square"/>
    </g>
    <g id="text_4">
     <!-- $\mathdefault{0.5}$ -->
     <g transform="translate(32.283016 93.353771) scale(0.08 -0.08)">
      <defs>
       <path id="CMR17-35" d="M 730 3692 
C 794 3666 1056 3584 1325 3584 
C 1920 3584 2246 3911 2432 4100 
C 2432 4157 2432 4192 2394 4192 
C 2387 4192 2374 4192 2323 4163 
C 2099 4058 1837 3973 1517 3973 
C 1325 3973 1037 3999 723 4139 
C 653 4171 640 4171 634 4171 
C 602 4171 595 4164 595 4037 
L 595 2203 
C 595 2089 595 2057 659 2057 
C 691 2057 704 2070 736 2114 
C 941 2401 1222 2522 1542 2522 
C 1766 2522 2246 2382 2246 1289 
C 2246 1085 2246 715 2054 421 
C 1894 159 1645 25 1370 25 
C 947 25 518 320 403 814 
C 429 807 480 795 506 795 
C 589 795 749 840 749 1038 
C 749 1210 627 1280 506 1280 
C 358 1280 262 1190 262 1011 
C 262 454 704 -128 1382 -128 
C 2042 -128 2669 440 2669 1264 
C 2669 2030 2170 2624 1549 2624 
C 1222 2624 947 2503 730 2274 
L 730 3692 
z
" transform="scale(0.015625)"/>
      </defs>
      <use xlink:href="#CMR17-30" transform="scale(0.996264)"/>
      <use xlink:href="#CMMI12-3a" transform="translate(45.690477 0) scale(0.996264)"/>
      <use xlink:href="#CMR17-35" transform="translate(72.787654 0) scale(0.996264)"/>
     </g>
    </g>
   </g>
   <g id="xtick_4">
    <g id="line2d_5">
     <path d="M 50.308646 76.390059 
L 49.794925 76.867327 
" style="fill: none; stroke: #000000; stroke-width: 0.8; stroke-linecap: square"/>
    </g>
    <g id="text_5">
     <!-- $\mathdefault{0.6}$ -->
     <g transform="translate(38.620827 95.448371) scale(0.08 -0.08)">
      <defs>
       <path id="CMR17-36" d="M 678 2176 
C 678 3690 1395 4032 1811 4032 
C 1946 4032 2272 4009 2400 3776 
C 2298 3776 2106 3776 2106 3553 
C 2106 3381 2246 3323 2336 3323 
C 2394 3323 2566 3348 2566 3560 
C 2566 3954 2246 4179 1805 4179 
C 1043 4179 243 3390 243 1984 
C 243 253 966 -128 1478 -128 
C 2099 -128 2688 427 2688 1283 
C 2688 2081 2170 2662 1517 2662 
C 1126 2662 838 2407 678 1960 
L 678 2176 
z
M 1478 25 
C 691 25 691 1200 691 1436 
C 691 1896 909 2560 1504 2560 
C 1613 2560 1926 2560 2138 2120 
C 2253 1870 2253 1609 2253 1289 
C 2253 944 2253 690 2118 434 
C 1978 171 1773 25 1478 25 
z
" transform="scale(0.015625)"/>
      </defs>
      <use xlink:href="#CMR17-30" transform="scale(0.996264)"/>
      <use xlink:href="#CMMI12-3a" transform="translate(45.690477 0) scale(0.996264)"/>
      <use xlink:href="#CMR17-36" transform="translate(72.787654 0) scale(0.996264)"/>
     </g>
    </g>
   </g>
   <g id="xtick_5">
    <g id="line2d_6">
     <path d="M 56.708 78.403954 
L 56.200834 78.88743 
" style="fill: none; stroke: #000000; stroke-width: 0.8; stroke-linecap: square"/>
    </g>
    <g id="text_6">
     <!-- $\mathdefault{0.7}$ -->
     <g transform="translate(45.041552 97.570374) scale(0.08 -0.08)">
      <defs>
       <path id="CMR17-37" d="M 2886 3941 
L 2886 4081 
L 1382 4081 
C 634 4081 621 4165 595 4288 
L 480 4288 
L 294 3094 
L 410 3094 
C 429 3215 474 3540 550 3661 
C 589 3712 1062 3712 1171 3712 
L 2579 3712 
L 1869 2661 
C 1395 1954 1069 999 1069 165 
C 1069 89 1069 -128 1299 -128 
C 1530 -128 1530 89 1530 171 
L 1530 465 
C 1530 1508 1709 2196 2003 2636 
L 2886 3941 
z
" transform="scale(0.015625)"/>
      </defs>
      <use xlink:href="#CMR17-30" transform="scale(0.996264)"/>
      <use xlink:href="#CMMI12-3a" transform="translate(45.690477 0) scale(0.996264)"/>
      <use xlink:href="#CMR17-37" transform="translate(72.787654 0) scale(0.996264)"/>
     </g>
    </g>
   </g>
  </g>
  <g id="axis3d_2">
   <g id="line2d_7">
    <path d="M 81.750481 61.204031 
L 62.141045 80.329096 
" style="fill: none; stroke: #000000; stroke-width: 0.8; stroke-linecap: square"/>
   </g>
   <g id="text_7">
    <!-- $\Theta$ -->
    <g transform="translate(90.081822 94.548284) rotate(-44.28356) scale(0.1 -0.1)">
     <defs>
      <path id="CMR17-2" d="M 4307 2153 
C 4307 3467 3366 4455 2304 4455 
C 1216 4455 294 3454 294 2153 
C 294 852 1229 -128 2298 -128 
C 3392 -128 4307 872 4307 2153 
z
M 2304 -20 
C 1574 -20 762 673 762 2153 
C 762 3679 1600 4352 2298 4352 
C 3021 4352 3840 3660 3840 2153 
C 3840 653 3008 -20 2304 -20 
z
M 3501 2560 
L 3386 2560 
L 3386 2342 
L 1216 2342 
L 1216 2560 
L 1101 2560 
L 1101 1766 
L 1216 1766 
L 1216 1984 
L 3386 1984 
L 3386 1766 
L 3501 1766 
L 3501 2560 
z
" transform="scale(0.015625)"/>
     </defs>
     <use xlink:href="#CMR17-2" transform="scale(0.996264)"/>
    </g>
   </g>
   <g id="Line3DCollection_2">
    <path d="M 29.202691 38.869488 
L 29.977186 65.762661 
L 65.707356 76.850876 
" style="fill: none; stroke: #b0b0b0; stroke-width: 0.8"/>
    <path d="M 34.075075 35.125315 
L 34.691004 61.775298 
L 70.101084 72.565678 
" style="fill: none; stroke: #b0b0b0; stroke-width: 0.8"/>
    <path d="M 38.815792 31.482321 
L 39.281265 57.89245 
L 74.375507 68.396836 
" style="fill: none; stroke: #b0b0b0; stroke-width: 0.8"/>
    <path d="M 43.430107 27.93646 
L 43.752765 54.11006 
L 78.535421 64.339676 
" style="fill: none; stroke: #b0b0b0; stroke-width: 0.8"/>
   </g>
   <g id="xtick_6">
    <g id="line2d_8">
     <path d="M 65.411047 76.758922 
L 66.300501 77.034948 
" style="fill: none; stroke: #000000; stroke-width: 0.8; stroke-linecap: square"/>
    </g>
    <g id="text_8">
     <!-- $\mathdefault{35}$ -->
     <g transform="translate(71.928703 93.264165) scale(0.08 -0.08)">
      <use xlink:href="#CMR17-33" transform="scale(0.996264)"/>
      <use xlink:href="#CMR17-35" transform="translate(45.690477 0) scale(0.996264)"/>
     </g>
    </g>
   </g>
   <g id="xtick_7">
    <g id="line2d_9">
     <path d="M 69.807571 72.476237 
L 70.688622 72.744716 
" style="fill: none; stroke: #000000; stroke-width: 0.8; stroke-linecap: square"/>
    </g>
    <g id="text_9">
     <!-- $\mathdefault{50}$ -->
     <g transform="translate(76.184436 88.823073) scale(0.08 -0.08)">
      <use xlink:href="#CMR17-35" transform="scale(0.996264)"/>
      <use xlink:href="#CMR17-30" transform="translate(45.690477 0) scale(0.996264)"/>
     </g>
    </g>
   </g>
   <g id="xtick_8">
    <g id="line2d_10">
     <path d="M 74.084751 68.309807 
L 74.957523 68.571045 
" style="fill: none; stroke: #000000; stroke-width: 0.8; stroke-linecap: square"/>
    </g>
    <g id="text_10">
     <!-- $\mathdefault{65}$ -->
     <g transform="translate(80.324453 84.502737) scale(0.08 -0.08)">
      <use xlink:href="#CMR17-36" transform="scale(0.996264)"/>
      <use xlink:href="#CMR17-35" transform="translate(45.690477 0) scale(0.996264)"/>
     </g>
    </g>
   </g>
   <g id="xtick_9">
    <g id="line2d_11">
     <path d="M 78.247379 64.254962 
L 79.111997 64.509248 
" style="fill: none; stroke: #000000; stroke-width: 0.8; stroke-linecap: square"/>
    </g>
    <g id="text_11">
     <!-- $\mathdefault{80}$ -->
     <g transform="translate(84.353412 80.298297) scale(0.08 -0.08)">
      <defs>
       <path id="CMR17-38" d="M 1741 2264 
C 2144 2467 2554 2773 2554 3263 
C 2554 3841 1990 4179 1472 4179 
C 890 4179 378 3759 378 3180 
C 378 3021 416 2747 666 2505 
C 730 2442 998 2251 1171 2130 
C 883 1983 211 1634 211 934 
C 211 279 838 -128 1459 -128 
C 2144 -128 2720 362 2720 1010 
C 2720 1590 2330 1857 2074 2029 
L 1741 2264 
z
M 902 2822 
C 851 2854 595 3051 595 3351 
C 595 3739 998 4032 1459 4032 
C 1965 4032 2336 3676 2336 3262 
C 2336 2669 1670 2331 1638 2331 
C 1632 2331 1626 2331 1574 2370 
L 902 2822 
z
M 2080 1519 
C 2176 1449 2483 1240 2483 851 
C 2483 381 2010 25 1472 25 
C 890 25 448 438 448 940 
C 448 1443 838 1862 1280 2060 
L 2080 1519 
z
" transform="scale(0.015625)"/>
      </defs>
      <use xlink:href="#CMR17-38" transform="scale(0.996264)"/>
      <use xlink:href="#CMR17-30" transform="translate(45.690477 0) scale(0.996264)"/>
     </g>
    </g>
   </g>
  </g>
  <g id="axis3d_3">
   <g id="line2d_12">
    <path d="M 81.750481 61.204031 
L 82.609949 34.589149 
" style="fill: none; stroke: #000000; stroke-width: 0.8; stroke-linecap: square"/>
   </g>
   <g id="text_12">
    <!-- $\sigma_P/|P|$ -->
    <g transform="translate(112.552146 59.687342) rotate(-88.150403) scale(0.1 -0.1)">
     <defs>
      <path id="CMMI12-1b" d="M 3251 2408 
C 3334 2408 3546 2408 3546 2612 
C 3546 2752 3424 2752 3309 2752 
L 1894 2752 
C 934 2752 243 1686 243 932 
C 243 390 595 -64 1171 -64 
C 1926 -64 2752 747 2752 1705 
C 2752 1954 2694 2196 2541 2408 
L 3251 2408 
z
M 1178 64 
C 851 64 614 313 614 754 
C 614 1137 845 2408 1786 2408 
C 2061 2408 2368 2274 2368 1781 
C 2368 1558 2266 1021 2042 652 
C 1811 275 1466 64 1178 64 
z
" transform="scale(0.015625)"/>
      <path id="CMMI12-50" d="M 1894 2023 
L 2970 2023 
C 3853 2023 4736 2673 4736 3401 
C 4736 3898 4314 4352 3507 4352 
L 1530 4352 
C 1408 4352 1350 4352 1350 4231 
C 1350 4167 1408 4167 1504 4167 
C 1894 4167 1894 4116 1894 4046 
C 1894 4034 1894 3995 1869 3899 
L 1005 472 
C 947 249 934 185 486 185 
C 365 185 301 185 301 70 
C 301 0 358 0 397 0 
C 518 0 646 0 768 0 
L 1517 0 
C 1638 0 1773 0 1894 0 
C 1946 0 2016 0 2016 121 
C 2016 185 1958 185 1862 185 
C 1478 185 1472 230 1472 293 
C 1472 325 1478 369 1485 401 
L 1894 2023 
z
M 2355 3930 
C 2413 4167 2438 4167 2688 4167 
L 3322 4167 
C 3802 4167 4198 4013 4198 3535 
C 4198 3369 4115 2827 3821 2534 
C 3712 2419 3405 2176 2822 2176 
L 1920 2176 
L 2355 3930 
z
" transform="scale(0.015625)"/>
      <path id="CMMI12-3d" d="M 2746 4562 
C 2746 4569 2784 4666 2784 4678 
C 2784 4755 2720 4800 2669 4800 
C 2637 4800 2579 4800 2528 4659 
L 384 -1363 
C 384 -1370 346 -1465 346 -1478 
C 346 -1555 410 -1600 461 -1600 
C 499 -1600 557 -1593 602 -1459 
L 2746 4562 
z
" transform="scale(0.015625)"/>
      <path id="CMSY10-6a" d="M 1018 4570 
C 1018 4685 1018 4800 890 4800 
C 762 4800 762 4685 762 4570 
L 762 -1370 
C 762 -1485 762 -1600 890 -1600 
C 1018 -1600 1018 -1485 1018 -1370 
L 1018 4570 
z
" transform="scale(0.015625)"/>
     </defs>
     <use xlink:href="#CMMI12-1b" transform="scale(0.996264)"/>
     <use xlink:href="#CMMI12-50" transform="translate(55.445461 -14.943915) scale(0.697382)"/>
     <use xlink:href="#CMMI12-3d" transform="translate(109.441417 0) scale(0.996264)"/>
     <use xlink:href="#CMSY10-6a" transform="translate(158.216335 0) scale(0.996264)"/>
     <use xlink:href="#CMMI12-50" transform="translate(185.89042 0) scale(0.996264)"/>
     <use xlink:href="#CMSY10-6a" transform="translate(262.316241 0) scale(0.996264)"/>
    </g>
   </g>
   <g id="Line3DCollection_3">
    <path d="M 81.767158 60.687588 
L 47.207317 50.67955 
L 26.136891 68.471061 
" style="fill: none; stroke: #b0b0b0; stroke-width: 0.8"/>
    <path d="M 82.271084 45.082679 
L 47.08137 35.435728 
L 25.605782 52.593631 
" style="fill: none; stroke: #b0b0b0; stroke-width: 0.8"/>
   </g>
   <g id="xtick_10">
    <g id="line2d_13">
     <path d="M 81.481057 60.604737 
L 82.339843 60.85343 
" style="fill: none; stroke: #000000; stroke-width: 0.8; stroke-linecap: square"/>
    </g>
    <g id="text_13">
     <!-- $\mathdefault{0.00}$ -->
     <g transform="translate(89.553639 64.079753) scale(0.08 -0.08)">
      <use xlink:href="#CMR17-30" transform="scale(0.996264)"/>
      <use xlink:href="#CMMI12-3a" transform="translate(45.690477 0) scale(0.996264)"/>
      <use xlink:href="#CMR17-30" transform="translate(72.787654 0) scale(0.996264)"/>
      <use xlink:href="#CMR17-30" transform="translate(118.478131 0) scale(0.996264)"/>
     </g>
    </g>
   </g>
   <g id="xtick_11">
    <g id="line2d_14">
     <path d="M 81.979589 45.002768 
L 82.854575 45.242638 
" style="fill: none; stroke: #000000; stroke-width: 0.8; stroke-linecap: square"/>
    </g>
    <g id="text_14">
     <!-- $\mathdefault{0.01}$ -->
     <g transform="translate(90.332862 48.55114) scale(0.08 -0.08)">
      <defs>
       <path id="CMR17-31" d="M 1702 4058 
C 1702 4192 1696 4192 1606 4192 
C 1357 3916 979 3827 621 3827 
C 602 3827 570 3827 563 3808 
C 557 3795 557 3782 557 3648 
C 755 3648 1088 3686 1344 3839 
L 1344 461 
C 1344 236 1331 160 781 160 
L 589 160 
L 589 0 
C 896 0 1216 0 1523 0 
C 1830 0 2150 0 2458 0 
L 2458 160 
L 2266 160 
C 1715 160 1702 230 1702 458 
L 1702 4058 
z
" transform="scale(0.015625)"/>
      </defs>
      <use xlink:href="#CMR17-30" transform="scale(0.996264)"/>
      <use xlink:href="#CMMI12-3a" transform="translate(45.690477 0) scale(0.996264)"/>
      <use xlink:href="#CMR17-30" transform="translate(72.787654 0) scale(0.996264)"/>
      <use xlink:href="#CMR17-31" transform="translate(118.478131 0) scale(0.996264)"/>
     </g>
    </g>
   </g>
  </g>
  <g id="axes_1">
   <g id="Poly3DCollection_1">
    <path d="M 48.075025 52.370499 
L 48.062758 50.682688 
L 53.97696 52.39389 
L 53.977626 54.08843 
z
" clip-path="url(#p4cf7b067df)" style="fill: #050338"/>
    <path d="M 43.676644 56.116062 
L 43.655456 54.413631 
L 48.062758 50.682688 
L 48.075025 52.370499 
z
" clip-path="url(#p4cf7b067df)" style="fill: #0b0777"/>
    <path d="M 43.676644 56.116062 
L 48.075025 52.370499 
L 53.977626 54.08843 
L 49.630096 57.879286 
z
" clip-path="url(#p4cf7b067df)" style="fill: #070448"/>
    <path d="M 53.977626 54.08843 
L 53.97687 52.16304 
L 59.964095 53.893975 
L 59.95135 55.827061 
z
" clip-path="url(#p4cf7b067df)" style="fill: #080339"/>
    <path d="M 43.655456 54.413631 
L 49.62071 56.170037 
L 53.97696 52.39389 
L 48.062758 50.682688 
z
" clip-path="url(#p4cf7b067df)" style="fill: #0a0667"/>
    <path d="M 49.630096 57.879286 
L 53.977626 54.08843 
L 53.97696 52.39389 
L 49.62071 56.170037 
z
" clip-path="url(#p4cf7b067df)" style="fill: #050338"/>
    <path d="M 49.630096 57.879286 
L 49.619431 55.937177 
L 53.97687 52.16304 
L 53.977626 54.08843 
z
" clip-path="url(#p4cf7b067df)" style="fill: #110679"/>
    <path d="M 49.630096 57.879286 
L 53.977626 54.08843 
L 59.95135 55.827061 
L 55.656232 59.664036 
z
" clip-path="url(#p4cf7b067df)" style="fill: #0a0449"/>
    <path d="M 59.95135 55.827061 
L 59.965922 53.616876 
L 66.027876 55.367728 
L 65.99749 57.586769 
z
" clip-path="url(#p4cf7b067df)" style="fill: #0b033b"/>
    <path d="M 43.676644 56.116062 
L 49.630096 57.879286 
L 49.62071 56.170037 
L 43.655456 54.413631 
z
" clip-path="url(#p4cf7b067df)" style="fill: #0b0777"/>
    <path d="M 43.676644 56.116062 
L 43.653004 54.216574 
L 49.619623 55.972189 
L 49.630096 57.879286 
z
" clip-path="url(#p4cf7b067df)" style="fill: #080339"/>
    <path d="M 49.619431 55.937177 
L 55.659307 57.714133 
L 59.964095 53.893975 
L 53.97687 52.16304 
z
" clip-path="url(#p4cf7b067df)" style="fill: #0f0569"/>
    <path d="M 55.656232 59.664036 
L 59.95135 55.827061 
L 59.964095 53.893975 
L 55.659307 57.714133 
z
" clip-path="url(#p4cf7b067df)" style="fill: #080339"/>
    <path d="M 55.656232 59.664036 
L 55.659747 57.434613 
L 59.965922 53.616876 
L 59.95135 55.827061 
z
" clip-path="url(#p4cf7b067df)" style="fill: #18057c"/>
    <path d="M 39.161886 59.96073 
L 39.127766 58.044713 
L 43.653004 54.216574 
L 43.676644 56.116062 
z
" clip-path="url(#p4cf7b067df)" style="fill: #110679"/>
    <path d="M 55.656232 59.664036 
L 59.95135 55.827061 
L 65.99749 57.586769 
L 61.75639 61.470709 
z
" clip-path="url(#p4cf7b067df)" style="fill: #0e034b"/>
    <path d="M 39.161886 59.96073 
L 43.676644 56.116062 
L 49.630096 57.879286 
L 45.166827 61.771061 
z
" clip-path="url(#p4cf7b067df)" style="fill: #0a0449"/>
    <path d="M 65.99749 57.586769 
L 66.033879 54.929324 
L 72.17316 56.699819 
L 72.117371 59.367939 
z
" clip-path="url(#p4cf7b067df)" style="fill: #10023d"/>
    <path d="M 49.630096 57.879286 
L 55.656232 59.664036 
L 55.659307 57.714133 
L 49.619431 55.937177 
z
" clip-path="url(#p4cf7b067df)" style="fill: #110679"/>
    <path d="M 49.630096 57.879286 
L 49.618159 55.705577 
L 55.659673 57.481601 
L 55.656232 59.664036 
z
" clip-path="url(#p4cf7b067df)" style="fill: #0b033b"/>
    <path d="M 55.659747 57.434613 
L 61.776004 59.232319 
L 66.027876 55.367728 
L 59.965922 53.616876 
z
" clip-path="url(#p4cf7b067df)" style="fill: #15056c"/>
    <path d="M 39.127766 58.044713 
L 45.146102 59.847339 
L 49.619623 55.972189 
L 43.653004 54.216574 
z
" clip-path="url(#p4cf7b067df)" style="fill: #0f0569"/>
    <path d="M 61.75639 61.470709 
L 65.99749 57.586769 
L 66.027876 55.367728 
L 61.776004 59.232319 
z
" clip-path="url(#p4cf7b067df)" style="fill: #0b033b"/>
    <path d="M 61.75639 61.470709 
L 61.779879 58.790074 
L 66.033879 54.929324 
L 65.99749 57.586769 
z
" clip-path="url(#p4cf7b067df)" style="fill: #210581"/>
    <path d="M 45.166827 61.771061 
L 49.630096 57.879286 
L 49.619623 55.972189 
L 45.146102 59.847339 
z
" clip-path="url(#p4cf7b067df)" style="fill: #080339"/>
    <path d="M 45.166827 61.771061 
L 45.143204 59.578394 
L 49.618159 55.705577 
L 49.630096 57.879286 
z
" clip-path="url(#p4cf7b067df)" style="fill: #18057c"/>
    <path d="M 61.75639 61.470709 
L 65.99749 57.586769 
L 72.117371 59.367939 
L 67.931944 63.299712 
z
" clip-path="url(#p4cf7b067df)" style="fill: #14034e"/>
    <path d="M 45.166827 61.771061 
L 49.630096 57.879286 
L 55.656232 59.664036 
L 51.246062 63.603789 
z
" clip-path="url(#p4cf7b067df)" style="fill: #0e034b"/>
    <path d="M 72.117371 59.367939 
L 72.181953 56.279312 
L 78.39994 58.069899 
L 78.312351 61.170965 
z
" clip-path="url(#p4cf7b067df)" style="fill: #14023e"/>
    <path d="M 55.656232 59.664036 
L 61.75639 61.470709 
L 61.776004 59.232319 
L 55.659747 57.434613 
z
" clip-path="url(#p4cf7b067df)" style="fill: #18057c"/>
    <path d="M 55.656232 59.664036 
L 55.660213 57.139539 
L 61.7786 58.936052 
L 61.75639 61.470709 
z
" clip-path="url(#p4cf7b067df)" style="fill: #0e023c"/>
    <path d="M 39.161886 59.96073 
L 45.166827 61.771061 
L 45.146102 59.847339 
L 39.127766 58.044713 
z
" clip-path="url(#p4cf7b067df)" style="fill: #110679"/>
    <path d="M 39.161886 59.96073 
L 39.120386 57.630311 
L 45.141619 59.431264 
L 45.166827 61.771061 
z
" clip-path="url(#p4cf7b067df)" style="fill: #0c033b"/>
    <path d="M 61.779879 58.790074 
L 67.97519 60.608267 
L 72.17316 56.699819 
L 66.033879 54.929324 
z
" clip-path="url(#p4cf7b067df)" style="fill: #1d0470"/>
    <path d="M 45.143204 59.578394 
L 51.23809 61.402286 
L 55.659673 57.481601 
L 49.618159 55.705577 
z
" clip-path="url(#p4cf7b067df)" style="fill: #15056c"/>
    <path d="M 67.931944 63.299712 
L 72.117371 59.367939 
L 72.17316 56.699819 
L 67.97519 60.608267 
z
" clip-path="url(#p4cf7b067df)" style="fill: #10023d"/>
    <path d="M 67.931944 63.299712 
L 67.982006 60.184062 
L 72.181953 56.279312 
L 72.117371 59.367939 
z
" clip-path="url(#p4cf7b067df)" style="fill: #2a0484"/>
    <path d="M 51.246062 63.603789 
L 55.656232 59.664036 
L 55.659673 57.481601 
L 51.23809 61.402286 
z
" clip-path="url(#p4cf7b067df)" style="fill: #0b033b"/>
    <path d="M 51.246062 63.603789 
L 51.236841 61.057222 
L 55.660213 57.139539 
L 55.656232 59.664036 
z
" clip-path="url(#p4cf7b067df)" style="fill: #1e057f"/>
    <path d="M 67.931944 63.299712 
L 72.117371 59.367939 
L 78.312351 61.170965 
L 74.1843 65.151461 
z
" clip-path="url(#p4cf7b067df)" style="fill: #190350"/>
    <path d="M 34.526069 63.908488 
L 34.471144 61.557697 
L 39.120386 57.630311 
L 39.161886 59.96073 
z
" clip-path="url(#p4cf7b067df)" style="fill: #1a057d"/>
    <path d="M 51.246062 63.603789 
L 55.656232 59.664036 
L 61.75639 61.470709 
L 57.400979 65.459334 
z
" clip-path="url(#p4cf7b067df)" style="fill: #12034d"/>
    <path d="M 34.526069 63.908488 
L 39.161886 59.96073 
L 45.166827 61.771061 
L 40.583134 65.76784 
z
" clip-path="url(#p4cf7b067df)" style="fill: #10034c"/>
    <path d="M 61.75639 61.470709 
L 67.931944 63.299712 
L 67.97519 60.608267 
L 61.779879 58.790074 
z
" clip-path="url(#p4cf7b067df)" style="fill: #210581"/>
    <path d="M 61.75639 61.470709 
L 61.782429 58.499106 
L 67.979884 60.316119 
L 67.931944 63.299712 
z
" clip-path="url(#p4cf7b067df)" style="fill: #12023e"/>
    <path d="M 45.166827 61.771061 
L 51.246062 63.603789 
L 51.23809 61.402286 
L 45.143204 59.578394 
z
" clip-path="url(#p4cf7b067df)" style="fill: #18057c"/>
    <path d="M 45.166827 61.771061 
L 45.138044 59.099404 
L 51.236349 60.921356 
L 51.246062 63.603789 
z
" clip-path="url(#p4cf7b067df)" style="fill: #10023d"/>
    <path d="M 67.982006 60.184062 
L 74.257803 62.023216 
L 78.39994 58.069899 
L 72.181953 56.279312 
z
" clip-path="url(#p4cf7b067df)" style="fill: #240473"/>
    <path d="M 51.236841 61.057222 
L 57.410316 62.902479 
L 61.7786 58.936052 
L 55.660213 57.139539 
z
" clip-path="url(#p4cf7b067df)" style="fill: #1a046e"/>
    <path d="M 34.471144 61.557697 
L 40.544783 63.407553 
L 45.141619 59.431264 
L 39.120386 57.630311 
z
" clip-path="url(#p4cf7b067df)" style="fill: #17056d"/>
    <path d="M 74.1843 65.151461 
L 78.312351 61.170965 
L 78.39994 58.069899 
L 74.257803 62.023216 
z
" clip-path="url(#p4cf7b067df)" style="fill: #14023e"/>
    <path d="M 57.400979 65.459334 
L 61.75639 61.470709 
L 61.7786 58.936052 
L 57.410316 62.902479 
z
" clip-path="url(#p4cf7b067df)" style="fill: #0e023c"/>
    <path d="M 57.400979 65.459334 
L 57.411925 62.461685 
L 61.782429 58.499106 
L 61.75639 61.470709 
z
" clip-path="url(#p4cf7b067df)" style="fill: #270483"/>
    <path d="M 40.583134 65.76784 
L 45.166827 61.771061 
L 45.141619 59.431264 
L 40.544783 63.407553 
z
" clip-path="url(#p4cf7b067df)" style="fill: #0c033b"/>
    <path d="M 40.583134 65.76784 
L 40.539343 63.072773 
L 45.138044 59.099404 
L 45.166827 61.771061 
z
" clip-path="url(#p4cf7b067df)" style="fill: #210581"/>
    <path d="M 57.400979 65.459334 
L 61.75639 61.470709 
L 67.931944 63.299712 
L 63.632999 67.338123 
z
" clip-path="url(#p4cf7b067df)" style="fill: #17034f"/>
    <path d="M 40.583134 65.76784 
L 45.166827 61.771061 
L 51.246062 63.603789 
L 46.716155 67.650508 
z
" clip-path="url(#p4cf7b067df)" style="fill: #14034e"/>
    <path d="M 67.931944 63.299712 
L 74.1843 65.151461 
L 74.257803 62.023216 
L 67.982006 60.184062 
z
" clip-path="url(#p4cf7b067df)" style="fill: #2a0484"/>
    <path d="M 67.931944 63.299712 
L 67.988668 59.76946 
L 74.267584 61.606927 
L 74.1843 65.151461 
z
" clip-path="url(#p4cf7b067df)" style="fill: #170240"/>
    <path d="M 51.246062 63.603789 
L 57.400979 65.459334 
L 57.410316 62.902479 
L 51.236841 61.057222 
z
" clip-path="url(#p4cf7b067df)" style="fill: #1e057f"/>
    <path d="M 51.246062 63.603789 
L 51.234373 60.375919 
L 57.412814 62.218408 
L 57.400979 65.459334 
z
" clip-path="url(#p4cf7b067df)" style="fill: #15023f"/>
    <path d="M 34.526069 63.908488 
L 40.583134 65.76784 
L 40.544783 63.407553 
L 34.471144 61.557697 
z
" clip-path="url(#p4cf7b067df)" style="fill: #1a057d"/>
    <path d="M 57.411925 62.461685 
L 63.666252 64.328336 
L 67.979884 60.316119 
L 61.782429 58.499106 
z
" clip-path="url(#p4cf7b067df)" style="fill: #220472"/>
    <path d="M 34.526069 63.908488 
L 34.433456 59.944696 
L 40.518468 61.78799 
L 40.583134 65.76784 
z
" clip-path="url(#p4cf7b067df)" style="fill: #1a0241"/>
    <path d="M 40.539343 63.072773 
L 46.691772 64.944531 
L 51.236349 60.921356 
L 45.138044 59.099404 
z
" clip-path="url(#p4cf7b067df)" style="fill: #1d0470"/>
    <path d="M 63.632999 67.338123 
L 67.931944 63.299712 
L 67.979884 60.316119 
L 63.666252 64.328336 
z
" clip-path="url(#p4cf7b067df)" style="fill: #12023e"/>
    <path d="M 63.632999 67.338123 
L 63.672345 63.776846 
L 67.988668 59.76946 
L 67.931944 63.299712 
z
" clip-path="url(#p4cf7b067df)" style="fill: #300487"/>
    <path d="M 46.716155 67.650508 
L 51.246062 63.603789 
L 51.236349 60.921356 
L 46.691772 64.944531 
z
" clip-path="url(#p4cf7b067df)" style="fill: #10023d"/>
    <path d="M 46.716155 67.650508 
L 46.686814 64.394278 
L 51.234373 60.375919 
L 51.246062 63.603789 
z
" clip-path="url(#p4cf7b067df)" style="fill: #2c0485"/>
    <path d="M 63.632999 67.338123 
L 67.931944 63.299712 
L 74.1843 65.151461 
L 69.943581 69.240597 
z
" clip-path="url(#p4cf7b067df)" style="fill: #1d0251"/>
    <path d="M 46.716155 67.650508 
L 51.246062 63.603789 
L 57.400979 65.459334 
L 52.926571 69.556934 
z
" clip-path="url(#p4cf7b067df)" style="fill: #1a0250"/>
    <path d="M 29.764259 67.96354 
L 29.64779 63.964866 
L 34.433456 59.944696 
L 34.526069 63.908488 
z
" clip-path="url(#p4cf7b067df)" style="fill: #38038a"/>
    <path d="M 29.764259 67.96354 
L 34.526069 63.908488 
L 40.583134 65.76784 
L 35.874077 69.873931 
z
" clip-path="url(#p4cf7b067df)" style="fill: #220253"/>
    <path d="M 57.400979 65.459334 
L 63.632999 67.338123 
L 63.666252 64.328336 
L 57.411925 62.461685 
z
" clip-path="url(#p4cf7b067df)" style="fill: #270483"/>
    <path d="M 57.400979 65.459334 
L 57.415676 61.434439 
L 63.677648 63.296898 
L 63.632999 67.338123 
z
" clip-path="url(#p4cf7b067df)" style="fill: #1a0241"/>
    <path d="M 40.583134 65.76784 
L 46.716155 67.650508 
L 46.691772 64.944531 
L 40.539343 63.072773 
z
" clip-path="url(#p4cf7b067df)" style="fill: #210581"/>
    <path d="M 63.672345 63.776846 
L 70.009989 65.66486 
L 74.267584 61.606927 
L 67.988668 59.76946 
z
" clip-path="url(#p4cf7b067df)" style="fill: #2a0375"/>
    <path d="M 40.583134 65.76784 
L 40.505415 60.984666 
L 46.672879 62.847895 
L 46.716155 67.650508 
z
" clip-path="url(#p4cf7b067df)" style="fill: #210143"/>
    <path d="M 46.686814 64.394278 
L 52.921179 66.287488 
L 57.412814 62.218408 
L 51.234373 60.375919 
z
" clip-path="url(#p4cf7b067df)" style="fill: #260473"/>
    <path d="M 69.943581 69.240597 
L 74.1843 65.151461 
L 74.267584 61.606927 
L 70.009989 65.66486 
z
" clip-path="url(#p4cf7b067df)" style="fill: #170240"/>
    <path d="M 52.926571 69.556934 
L 57.400979 65.459334 
L 57.412814 62.218408 
L 52.921179 66.287488 
z
" clip-path="url(#p4cf7b067df)" style="fill: #15023f"/>
    <path d="M 52.926571 69.556934 
L 52.919875 65.496568 
L 57.415676 61.434439 
L 57.400979 65.459334 
z
" clip-path="url(#p4cf7b067df)" style="fill: #38038a"/>
    <path d="M 29.64779 63.964866 
L 35.78604 65.859 
L 40.518468 61.78799 
L 34.433456 59.944696 
z
" clip-path="url(#p4cf7b067df)" style="fill: #300378"/>
    <path d="M 52.926571 69.556934 
L 57.400979 65.459334 
L 63.632999 67.338123 
L 59.215855 71.487571 
z
" clip-path="url(#p4cf7b067df)" style="fill: #220253"/>
    <path d="M 35.874077 69.873931 
L 40.583134 65.76784 
L 40.518468 61.78799 
L 35.78604 65.859 
z
" clip-path="url(#p4cf7b067df)" style="fill: #1a0241"/>
    <path d="M 35.874077 69.873931 
L 35.768268 65.048532 
L 40.505415 60.984666 
L 40.583134 65.76784 
z
" clip-path="url(#p4cf7b067df)" style="fill: #45028f"/>
    <path d="M 35.874077 69.873931 
L 40.583134 65.76784 
L 46.716155 67.650508 
L 42.061568 71.808608 
z
" clip-path="url(#p4cf7b067df)" style="fill: #2a0156"/>
    <path d="M 63.632999 67.338123 
L 69.943581 69.240597 
L 70.009989 65.66486 
L 63.672345 63.776846 
z
" clip-path="url(#p4cf7b067df)" style="fill: #300487"/>
    <path d="M 46.716155 67.650508 
L 52.926571 69.556934 
L 52.921179 66.287488 
L 46.686814 64.394278 
z
" clip-path="url(#p4cf7b067df)" style="fill: #2c0485"/>
    <path d="M 63.632999 67.338123 
L 63.691773 62.018431 
L 70.04278 63.899236 
L 69.943581 69.240597 
z
" clip-path="url(#p4cf7b067df)" style="fill: #240144"/>
    <path d="M 29.764259 67.96354 
L 35.874077 69.873931 
L 35.78604 65.859 
L 29.64779 63.964866 
z
" clip-path="url(#p4cf7b067df)" style="fill: #38038a"/>
    <path d="M 46.716155 67.650508 
L 46.658056 61.202916 
L 52.915894 63.083018 
L 52.926571 69.556934 
z
" clip-path="url(#p4cf7b067df)" style="fill: #2c0046"/>
    <path d="M 52.919875 65.496568 
L 59.239665 67.410674 
L 63.677648 63.296898 
L 57.415676 61.434439 
z
" clip-path="url(#p4cf7b067df)" style="fill: #300378"/>
    <path d="M 59.215855 71.487571 
L 63.632999 67.338123 
L 63.677648 63.296898 
L 59.239665 67.410674 
z
" clip-path="url(#p4cf7b067df)" style="fill: #1a0241"/>
    <path d="M 59.215855 71.487571 
L 63.632999 67.338123 
L 69.943581 69.240597 
L 65.58552 73.442882 
z
" clip-path="url(#p4cf7b067df)" style="fill: #2e0157"/>
    <path d="M 59.215855 71.487571 
L 59.247198 66.12081 
L 63.691773 62.018431 
L 63.632999 67.338123 
z
" clip-path="url(#p4cf7b067df)" style="fill: #4c0191"/>
    <path d="M 35.768268 65.048532 
L 41.990814 66.963533 
L 46.672879 62.847895 
L 40.505415 60.984666 
z
" clip-path="url(#p4cf7b067df)" style="fill: #3c027c"/>
    <path d="M 42.061568 71.808608 
L 46.716155 67.650508 
L 46.672879 62.847895 
L 41.990814 66.963533 
z
" clip-path="url(#p4cf7b067df)" style="fill: #210143"/>
    <path d="M 42.061568 71.808608 
L 46.716155 67.650508 
L 52.926571 69.556934 
L 48.328222 73.768038 
z
" clip-path="url(#p4cf7b067df)" style="fill: #380059"/>
    <path d="M 42.061568 71.808608 
L 41.966577 65.303834 
L 46.658056 61.202916 
L 46.716155 67.650508 
z
" clip-path="url(#p4cf7b067df)" style="fill: #5d0094"/>
    <path d="M 52.926571 69.556934 
L 59.215855 71.487571 
L 59.239665 67.410674 
L 52.919875 65.496568 
z
" clip-path="url(#p4cf7b067df)" style="fill: #38038a"/>
    <path d="M 35.874077 69.873931 
L 42.061568 71.808608 
L 41.990814 66.963533 
L 35.768268 65.048532 
z
" clip-path="url(#p4cf7b067df)" style="fill: #45028f"/>
    <path d="M 65.58552 73.442882 
L 69.943581 69.240597 
L 70.04278 63.899236 
L 65.658054 68.054188 
z
" clip-path="url(#p4cf7b067df)" style="fill: #240144"/>
    <path d="M 59.247198 66.12081 
L 65.658054 68.054188 
L 70.04278 63.899236 
L 63.691773 62.018431 
z
" clip-path="url(#p4cf7b067df)" style="fill: #42017e"/>
    <path d="M 52.926571 69.556934 
L 52.909734 59.347438 
L 59.275726 61.236036 
L 59.215855 71.487571 
z
" clip-path="url(#p4cf7b067df)" style="fill: #440c40"/>
    <path d="M 48.328222 73.768038 
L 52.926571 69.556934 
L 59.215855 71.487571 
L 54.675569 75.752697 
z
" clip-path="url(#p4cf7b067df)" style="fill: #560f52"/>
    <path d="M 48.328222 73.768038 
L 52.926571 69.556934 
L 52.915894 63.083018 
L 48.281516 67.236617 
z
" clip-path="url(#p4cf7b067df)" style="fill: #2c0046"/>
    <path d="M 41.966577 65.303834 
L 48.281516 67.236617 
L 52.915894 63.083018 
L 46.658056 61.202916 
z
" clip-path="url(#p4cf7b067df)" style="fill: #500081"/>
    <path d="M 59.215855 71.487571 
L 65.58552 73.442882 
L 65.658054 68.054188 
L 59.247198 66.12081 
z
" clip-path="url(#p4cf7b067df)" style="fill: #4c0191"/>
    <path d="M 48.328222 73.768038 
L 48.254562 63.467222 
L 52.909734 59.347438 
L 52.926571 69.556934 
z
" clip-path="url(#p4cf7b067df)" style="fill: #8f1988"/>
    <path d="M 42.061568 71.808608 
L 48.328222 73.768038 
L 48.281516 67.236617 
L 41.966577 65.303834 
z
" clip-path="url(#p4cf7b067df)" style="fill: #5d0094"/>
    <path d="M 54.675569 75.752697 
L 59.215855 71.487571 
L 65.58552 73.442882 
L 61.105175 77.763078 
z
" clip-path="url(#p4cf7b067df)" style="fill: #808512"/>
    <path d="M 54.675569 75.752697 
L 59.215855 71.487571 
L 59.275726 61.236036 
L 54.680047 65.409324 
z
" clip-path="url(#p4cf7b067df)" style="fill: #440c40"/>
    <path d="M 48.254562 63.467222 
L 54.680047 65.409324 
L 59.275726 61.236036 
L 52.909734 59.347438 
z
" clip-path="url(#p4cf7b067df)" style="fill: #7c1676"/>
    <path d="M 48.328222 73.768038 
L 54.675569 75.752697 
L 54.680047 65.409324 
L 48.254562 63.467222 
z
" clip-path="url(#p4cf7b067df)" style="fill: #8f1988"/>
    <path d="M 59.215855 71.487571 
L 59.368734 45.31063 
L 65.939371 47.154795 
L 65.58552 73.442882 
z
" clip-path="url(#p4cf7b067df)" style="fill: #64680e"/>
    <path d="M 54.675569 75.752697 
L 54.687008 49.334262 
L 59.368734 45.31063 
L 59.215855 71.487571 
z
" clip-path="url(#p4cf7b067df)" style="fill: #d4dc1e"/>
    <path d="M 61.105175 77.763078 
L 65.58552 73.442882 
L 65.939371 47.154795 
L 61.32146 51.232027 
z
" clip-path="url(#p4cf7b067df)" style="fill: #64680e"/>
    <path d="M 54.675569 75.752697 
L 61.105175 77.763078 
L 61.32146 51.232027 
L 54.687008 49.334262 
z
" clip-path="url(#p4cf7b067df)" style="fill: #d4dc1e"/>
    <path d="M 54.687008 49.334262 
L 61.32146 51.232027 
L 65.939371 47.154795 
L 59.368734 45.31063 
z
" clip-path="url(#p4cf7b067df)" style="fill: #b8bf1a"/>
   </g>
  </g>
  <g id="patch_6">
   <path d="M 129.6 98.948262 
L 221.348262 98.948262 
L 221.348262 7.2 
L 129.6 7.2 
z
" style="fill: #ffffff"/>
  </g>
  <g id="pane3d_4">
   <g id="patch_7">
    <path d="M 148.554459 68.996261 
L 169.611488 51.184367 
L 169.396765 25.19567 
L 147.648348 41.908194 
" style="fill: #f2f2f2; opacity: 0.5; stroke: #f2f2f2; stroke-width: 0.24; stroke-linejoin: miter"/>
   </g>
  </g>
  <g id="pane3d_5">
   <g id="patch_8">
    <path d="M 169.611488 51.184367 
L 204.150481 61.204031 
L 205.009949 34.589149 
L 169.396765 25.19567 
" style="fill: #e6e6e6; opacity: 0.5; stroke: #e6e6e6; stroke-width: 0.24; stroke-linejoin: miter"/>
   </g>
  </g>
  <g id="pane3d_6">
   <g id="patch_9">
    <path d="M 148.554459 68.996261 
L 184.541045 80.329096 
L 204.150481 61.204031 
L 169.611488 51.184367 
" style="fill: #ececec; opacity: 0.5; stroke: #ececec; stroke-width: 0.24; stroke-linejoin: miter"/>
   </g>
  </g>
  <g id="axis3d_4">
   <g id="line2d_15">
    <path d="M 148.554459 68.996261 
L 184.541045 80.329096 
" style="fill: none; stroke: #000000; stroke-width: 0.8; stroke-linecap: square"/>
   </g>
   <g id="text_15">
    <!-- $\delta$ -->
    <g transform="translate(152.012982 100.832454) rotate(-342.51983) scale(0.1 -0.1)">
     <use xlink:href="#CMMI12-e" transform="scale(0.996264)"/>
    </g>
   </g>
   <g id="Line3DCollection_4">
    <path d="M 153.818266 70.65393 
L 174.673003 52.652698 
L 174.610973 26.570991 
" style="fill: none; stroke: #b0b0b0; stroke-width: 0.8"/>
    <path d="M 159.978697 72.593963 
L 180.592565 54.369947 
L 180.711171 28.180004 
" style="fill: none; stroke: #b0b0b0; stroke-width: 0.8"/>
    <path d="M 166.217961 74.558821 
L 186.583356 56.107858 
L 186.88703 29.808974 
" style="fill: none; stroke: #b0b0b0; stroke-width: 0.8"/>
    <path d="M 172.537581 76.548985 
L 192.646669 57.866808 
L 193.139965 31.458274 
" style="fill: none; stroke: #b0b0b0; stroke-width: 0.8"/>
    <path d="M 178.939119 78.564947 
L 198.783828 59.647181 
L 199.471429 33.128286 
" style="fill: none; stroke: #b0b0b0; stroke-width: 0.8"/>
   </g>
   <g id="xtick_12">
    <g id="line2d_16">
     <path d="M 153.995474 70.500969 
L 153.463316 70.960313 
" style="fill: none; stroke: #000000; stroke-width: 0.8; stroke-linecap: square"/>
    </g>
    <g id="text_16">
     <!-- $\mathdefault{0.3}$ -->
     <g transform="translate(142.249789 89.244681) scale(0.08 -0.08)">
      <use xlink:href="#CMR17-30" transform="scale(0.996264)"/>
      <use xlink:href="#CMMI12-3a" transform="translate(45.690477 0) scale(0.996264)"/>
      <use xlink:href="#CMR17-33" transform="translate(72.787654 0) scale(0.996264)"/>
     </g>
    </g>
   </g>
   <g id="xtick_13">
    <g id="line2d_17">
     <path d="M 160.153923 72.439051 
L 159.627712 72.904256 
" style="fill: none; stroke: #000000; stroke-width: 0.8; stroke-linecap: square"/>
    </g>
    <g id="text_17">
     <!-- $\mathdefault{0.4}$ -->
     <g transform="translate(148.426521 91.286046) scale(0.08 -0.08)">
      <use xlink:href="#CMR17-30" transform="scale(0.996264)"/>
      <use xlink:href="#CMMI12-3a" transform="translate(45.690477 0) scale(0.996264)"/>
      <use xlink:href="#CMR17-34" transform="translate(72.787654 0) scale(0.996264)"/>
     </g>
    </g>
   </g>
   <g id="xtick_14">
    <g id="line2d_18">
     <path d="M 166.39114 74.401921 
L 165.871073 74.8731 
" style="fill: none; stroke: #000000; stroke-width: 0.8; stroke-linecap: square"/>
    </g>
    <g id="text_18">
     <!-- $\mathdefault{0.5}$ -->
     <g transform="translate(154.683016 93.353771) scale(0.08 -0.08)">
      <use xlink:href="#CMR17-30" transform="scale(0.996264)"/>
      <use xlink:href="#CMMI12-3a" transform="translate(45.690477 0) scale(0.996264)"/>
      <use xlink:href="#CMR17-35" transform="translate(72.787654 0) scale(0.996264)"/>
     </g>
    </g>
   </g>
   <g id="xtick_15">
    <g id="line2d_19">
     <path d="M 172.708646 76.390059 
L 172.194925 76.867327 
" style="fill: none; stroke: #000000; stroke-width: 0.8; stroke-linecap: square"/>
    </g>
    <g id="text_19">
     <!-- $\mathdefault{0.6}$ -->
     <g transform="translate(161.020827 95.448371) scale(0.08 -0.08)">
      <use xlink:href="#CMR17-30" transform="scale(0.996264)"/>
      <use xlink:href="#CMMI12-3a" transform="translate(45.690477 0) scale(0.996264)"/>
      <use xlink:href="#CMR17-36" transform="translate(72.787654 0) scale(0.996264)"/>
     </g>
    </g>
   </g>
   <g id="xtick_16">
    <g id="line2d_20">
     <path d="M 179.108 78.403954 
L 178.600834 78.88743 
" style="fill: none; stroke: #000000; stroke-width: 0.8; stroke-linecap: square"/>
    </g>
    <g id="text_20">
     <!-- $\mathdefault{0.7}$ -->
     <g transform="translate(167.441552 97.570374) scale(0.08 -0.08)">
      <use xlink:href="#CMR17-30" transform="scale(0.996264)"/>
      <use xlink:href="#CMMI12-3a" transform="translate(45.690477 0) scale(0.996264)"/>
      <use xlink:href="#CMR17-37" transform="translate(72.787654 0) scale(0.996264)"/>
     </g>
    </g>
   </g>
  </g>
  <g id="axis3d_5">
   <g id="line2d_21">
    <path d="M 204.150481 61.204031 
L 184.541045 80.329096 
" style="fill: none; stroke: #000000; stroke-width: 0.8; stroke-linecap: square"/>
   </g>
   <g id="text_21">
    <!-- $\Theta$ -->
    <g transform="translate(212.481822 94.548284) rotate(-44.28356) scale(0.1 -0.1)">
     <use xlink:href="#CMR17-2" transform="scale(0.996264)"/>
    </g>
   </g>
   <g id="Line3DCollection_5">
    <path d="M 151.602691 38.869488 
L 152.377186 65.762661 
L 188.107356 76.850876 
" style="fill: none; stroke: #b0b0b0; stroke-width: 0.8"/>
    <path d="M 156.475075 35.125315 
L 157.091004 61.775298 
L 192.501084 72.565678 
" style="fill: none; stroke: #b0b0b0; stroke-width: 0.8"/>
    <path d="M 161.215792 31.482321 
L 161.681265 57.89245 
L 196.775507 68.396836 
" style="fill: none; stroke: #b0b0b0; stroke-width: 0.8"/>
    <path d="M 165.830107 27.93646 
L 166.152765 54.11006 
L 200.935421 64.339676 
" style="fill: none; stroke: #b0b0b0; stroke-width: 0.8"/>
   </g>
   <g id="xtick_17">
    <g id="line2d_22">
     <path d="M 187.811047 76.758922 
L 188.700501 77.034948 
" style="fill: none; stroke: #000000; stroke-width: 0.8; stroke-linecap: square"/>
    </g>
    <g id="text_22">
     <!-- $\mathdefault{35}$ -->
     <g transform="translate(194.328703 93.264165) scale(0.08 -0.08)">
      <use xlink:href="#CMR17-33" transform="scale(0.996264)"/>
      <use xlink:href="#CMR17-35" transform="translate(45.690477 0) scale(0.996264)"/>
     </g>
    </g>
   </g>
   <g id="xtick_18">
    <g id="line2d_23">
     <path d="M 192.207571 72.476237 
L 193.088622 72.744716 
" style="fill: none; stroke: #000000; stroke-width: 0.8; stroke-linecap: square"/>
    </g>
    <g id="text_23">
     <!-- $\mathdefault{50}$ -->
     <g transform="translate(198.584436 88.823073) scale(0.08 -0.08)">
      <use xlink:href="#CMR17-35" transform="scale(0.996264)"/>
      <use xlink:href="#CMR17-30" transform="translate(45.690477 0) scale(0.996264)"/>
     </g>
    </g>
   </g>
   <g id="xtick_19">
    <g id="line2d_24">
     <path d="M 196.484751 68.309807 
L 197.357523 68.571045 
" style="fill: none; stroke: #000000; stroke-width: 0.8; stroke-linecap: square"/>
    </g>
    <g id="text_24">
     <!-- $\mathdefault{65}$ -->
     <g transform="translate(202.724453 84.502737) scale(0.08 -0.08)">
      <use xlink:href="#CMR17-36" transform="scale(0.996264)"/>
      <use xlink:href="#CMR17-35" transform="translate(45.690477 0) scale(0.996264)"/>
     </g>
    </g>
   </g>
   <g id="xtick_20">
    <g id="line2d_25">
     <path d="M 200.647379 64.254962 
L 201.511997 64.509248 
" style="fill: none; stroke: #000000; stroke-width: 0.8; stroke-linecap: square"/>
    </g>
    <g id="text_25">
     <!-- $\mathdefault{80}$ -->
     <g transform="translate(206.753412 80.298297) scale(0.08 -0.08)">
      <use xlink:href="#CMR17-38" transform="scale(0.996264)"/>
      <use xlink:href="#CMR17-30" transform="translate(45.690477 0) scale(0.996264)"/>
     </g>
    </g>
   </g>
  </g>
  <g id="axis3d_6">
   <g id="line2d_26">
    <path d="M 204.150481 61.204031 
L 205.009949 34.589149 
" style="fill: none; stroke: #000000; stroke-width: 0.8; stroke-linecap: square"/>
   </g>
   <g id="text_26">
    <!-- $\sigma_\eta/|\eta|$ -->
    <g transform="translate(234.841206 57.549982) rotate(-88.150403) scale(0.1 -0.1)">
     <defs>
      <path id="CMMI12-11" d="M 3040 1768 
C 3072 1895 3091 1973 3091 2145 
C 3091 2528 2867 2815 2381 2815 
C 1811 2815 1510 2413 1395 2254 
C 1376 2618 1114 2815 832 2815 
C 646 2815 499 2726 378 2483 
C 262 2254 173 1864 173 1839 
C 173 1813 198 1781 243 1781 
C 294 1781 301 1788 339 1934 
C 435 2311 557 2688 813 2688 
C 960 2688 1011 2586 1011 2394 
C 1011 2254 947 2005 902 1807 
L 723 1118 
C 698 996 627 709 595 593 
C 550 428 480 127 480 96 
C 480 6 550 -64 646 -64 
C 723 -64 813 -25 864 70 
C 877 102 934 326 966 453 
L 1107 1028 
L 1318 1871 
C 1331 1909 1491 2228 1728 2432 
C 1894 2586 2112 2688 2362 2688 
C 2618 2688 2707 2496 2707 2241 
C 2707 2055 2682 1953 2650 1831 
L 1907 -1107 
C 1901 -1139 1888 -1177 1888 -1216 
C 1888 -1312 1965 -1376 2061 -1376 
C 2118 -1376 2253 -1350 2304 -1158 
L 3040 1768 
z
" transform="scale(0.015625)"/>
     </defs>
     <use xlink:href="#CMMI12-1b" transform="scale(0.996264)"/>
     <use xlink:href="#CMMI12-11" transform="translate(55.445461 -14.943915) scale(0.697382)"/>
     <use xlink:href="#CMMI12-3d" transform="translate(92.136088 0) scale(0.996264)"/>
     <use xlink:href="#CMSY10-6a" transform="translate(140.911006 0) scale(0.996264)"/>
     <use xlink:href="#CMMI12-11" transform="translate(168.585091 0) scale(0.996264)"/>
     <use xlink:href="#CMSY10-6a" transform="translate(220.288907 0) scale(0.996264)"/>
    </g>
   </g>
   <g id="Line3DCollection_6">
    <path d="M 204.167158 60.687588 
L 169.607317 50.67955 
L 148.536891 68.471061 
" style="fill: none; stroke: #b0b0b0; stroke-width: 0.8"/>
    <path d="M 204.496153 50.499726 
L 169.525073 40.725279 
L 148.190208 58.107022 
" style="fill: none; stroke: #b0b0b0; stroke-width: 0.8"/>
    <path d="M 204.833128 40.064723 
L 169.440903 30.537913 
L 147.834888 47.484774 
" style="fill: none; stroke: #b0b0b0; stroke-width: 0.8"/>
   </g>
   <g id="xtick_21">
    <g id="line2d_27">
     <path d="M 203.881057 60.604737 
L 204.739843 60.85343 
" style="fill: none; stroke: #000000; stroke-width: 0.8; stroke-linecap: square"/>
    </g>
    <g id="text_27">
     <!-- $\mathdefault{0.00}$ -->
     <g transform="translate(211.953639 64.079753) scale(0.08 -0.08)">
      <use xlink:href="#CMR17-30" transform="scale(0.996264)"/>
      <use xlink:href="#CMMI12-3a" transform="translate(45.690477 0) scale(0.996264)"/>
      <use xlink:href="#CMR17-30" transform="translate(72.787654 0) scale(0.996264)"/>
      <use xlink:href="#CMR17-30" transform="translate(118.478131 0) scale(0.996264)"/>
     </g>
    </g>
   </g>
   <g id="xtick_22">
    <g id="line2d_28">
     <path d="M 204.20653 50.418776 
L 205.075891 50.661764 
" style="fill: none; stroke: #000000; stroke-width: 0.8; stroke-linecap: square"/>
    </g>
    <g id="text_28">
     <!-- $\mathdefault{0.01}$ -->
     <g transform="translate(212.462388 53.941233) scale(0.08 -0.08)">
      <use xlink:href="#CMR17-30" transform="scale(0.996264)"/>
      <use xlink:href="#CMMI12-3a" transform="translate(45.690477 0) scale(0.996264)"/>
      <use xlink:href="#CMR17-30" transform="translate(72.787654 0) scale(0.996264)"/>
      <use xlink:href="#CMR17-31" transform="translate(118.478131 0) scale(0.996264)"/>
     </g>
    </g>
   </g>
   <g id="xtick_23">
    <g id="line2d_29">
     <path d="M 204.539897 39.985792 
L 205.420096 40.222722 
" style="fill: none; stroke: #000000; stroke-width: 0.8; stroke-linecap: square"/>
    </g>
    <g id="text_29">
     <!-- $\mathdefault{0.02}$ -->
     <g transform="translate(212.983387 43.558597) scale(0.08 -0.08)">
      <defs>
       <path id="CMR17-32" d="M 2669 989 
L 2554 989 
C 2490 536 2438 459 2413 420 
C 2381 369 1920 369 1830 369 
L 602 369 
C 832 619 1280 1072 1824 1597 
C 2214 1967 2669 2402 2669 3035 
C 2669 3790 2067 4224 1395 4224 
C 691 4224 262 3604 262 3030 
C 262 2780 448 2748 525 2748 
C 589 2748 781 2787 781 3010 
C 781 3207 614 3264 525 3264 
C 486 3264 448 3258 422 3245 
C 544 3790 915 4058 1306 4058 
C 1862 4058 2227 3617 2227 3035 
C 2227 2479 1901 2000 1536 1584 
L 262 146 
L 262 0 
L 2515 0 
L 2669 989 
z
" transform="scale(0.015625)"/>
      </defs>
      <use xlink:href="#CMR17-30" transform="scale(0.996264)"/>
      <use xlink:href="#CMMI12-3a" transform="translate(45.690477 0) scale(0.996264)"/>
      <use xlink:href="#CMR17-30" transform="translate(72.787654 0) scale(0.996264)"/>
      <use xlink:href="#CMR17-32" transform="translate(118.478131 0) scale(0.996264)"/>
     </g>
    </g>
   </g>
  </g>
  <g id="axes_2">
   <g id="Poly3DCollection_2">
    <path d="M 170.475025 52.370499 
L 170.431741 46.414841 
L 176.375278 48.108847 
L 176.377626 54.08843 
z
" clip-path="url(#p882e621b78)" style="fill: #15023f"/>
    <path d="M 166.076644 56.116062 
L 170.475025 52.370499 
L 176.377626 54.08843 
L 172.030096 57.879286 
z
" clip-path="url(#p882e621b78)" style="fill: #1a0250"/>
    <path d="M 166.076644 56.116062 
L 166.001875 50.108422 
L 170.431741 46.414841 
L 170.475025 52.370499 
z
" clip-path="url(#p882e621b78)" style="fill: #2c0485"/>
    <path d="M 176.377626 54.08843 
L 176.374924 47.205467 
L 182.396915 48.916348 
L 182.35135 55.827061 
z
" clip-path="url(#p882e621b78)" style="fill: #1c0142"/>
    <path d="M 172.030096 57.879286 
L 176.377626 54.08843 
L 182.35135 55.827061 
L 178.056232 59.664036 
z
" clip-path="url(#p882e621b78)" style="fill: #240254"/>
    <path d="M 172.030096 57.879286 
L 176.377626 54.08843 
L 176.375278 48.108847 
L 171.996972 51.847407 
z
" clip-path="url(#p882e621b78)" style="fill: #15023f"/>
    <path d="M 166.001875 50.108422 
L 171.996972 51.847407 
L 176.375278 48.108847 
L 170.431741 46.414841 
z
" clip-path="url(#p882e621b78)" style="fill: #260473"/>
    <path d="M 172.030096 57.879286 
L 171.991968 50.93603 
L 176.374924 47.205467 
L 176.377626 54.08843 
z
" clip-path="url(#p882e621b78)" style="fill: #3c038c"/>
    <path d="M 166.076644 56.116062 
L 166.011307 50.866279 
L 172.001151 52.60835 
L 172.030096 57.879286 
z
" clip-path="url(#p882e621b78)" style="fill: #0c033b"/>
    <path d="M 166.076644 56.116062 
L 172.030096 57.879286 
L 171.996972 51.847407 
L 166.001875 50.108422 
z
" clip-path="url(#p882e621b78)" style="fill: #2c0485"/>
    <path d="M 182.35135 55.827061 
L 182.402886 48.010846 
L 188.504952 49.738927 
L 188.39749 57.586769 
z
" clip-path="url(#p882e621b78)" style="fill: #250145"/>
    <path d="M 178.056232 59.664036 
L 182.35135 55.827061 
L 188.39749 57.586769 
L 184.15639 61.470709 
z
" clip-path="url(#p882e621b78)" style="fill: #2f0158"/>
    <path d="M 161.561886 59.96073 
L 166.076644 56.116062 
L 172.030096 57.879286 
L 167.566827 61.771061 
z
" clip-path="url(#p882e621b78)" style="fill: #10034c"/>
    <path d="M 178.056232 59.664036 
L 182.35135 55.827061 
L 182.396915 48.916348 
L 178.067225 52.692667 
z
" clip-path="url(#p882e621b78)" style="fill: #1c0142"/>
    <path d="M 161.561886 59.96073 
L 161.46758 54.664991 
L 166.011307 50.866279 
L 166.076644 56.116062 
z
" clip-path="url(#p882e621b78)" style="fill: #1a057d"/>
    <path d="M 178.056232 59.664036 
L 178.068666 51.779107 
L 182.402886 48.010846 
L 182.35135 55.827061 
z
" clip-path="url(#p882e621b78)" style="fill: #4d0191"/>
    <path d="M 171.991968 50.93603 
L 178.067225 52.692667 
L 182.396915 48.916348 
L 176.374924 47.205467 
z
" clip-path="url(#p882e621b78)" style="fill: #340279"/>
    <path d="M 172.030096 57.879286 
L 171.99701 51.85418 
L 178.065771 53.614574 
L 178.056232 59.664036 
z
" clip-path="url(#p882e621b78)" style="fill: #15023f"/>
    <path d="M 172.030096 57.879286 
L 178.056232 59.664036 
L 178.067225 52.692667 
L 171.991968 50.93603 
z
" clip-path="url(#p882e621b78)" style="fill: #3c038c"/>
    <path d="M 188.39749 57.586769 
L 188.523113 48.412657 
L 194.709976 50.156545 
L 194.517371 59.367939 
z
" clip-path="url(#p882e621b78)" style="fill: #300046"/>
    <path d="M 184.15639 61.470709 
L 188.39749 57.586769 
L 194.517371 59.367939 
L 190.331944 63.299712 
z
" clip-path="url(#p882e621b78)" style="fill: #3d005a"/>
    <path d="M 167.566827 61.771061 
L 172.030096 57.879286 
L 178.056232 59.664036 
L 173.646062 63.603789 
z
" clip-path="url(#p882e621b78)" style="fill: #1a0250"/>
    <path d="M 167.566827 61.771061 
L 172.030096 57.879286 
L 172.001151 52.60835 
L 167.509543 56.453896 
z
" clip-path="url(#p882e621b78)" style="fill: #0c033b"/>
    <path d="M 161.46758 54.664991 
L 167.509543 56.453896 
L 172.001151 52.60835 
L 166.011307 50.866279 
z
" clip-path="url(#p882e621b78)" style="fill: #17056d"/>
    <path d="M 167.566827 61.771061 
L 167.501346 55.693041 
L 171.99701 51.85418 
L 172.030096 57.879286 
z
" clip-path="url(#p882e621b78)" style="fill: #2c0485"/>
    <path d="M 184.15639 61.470709 
L 188.39749 57.586769 
L 188.504952 49.738927 
L 184.225762 53.553741 
z
" clip-path="url(#p882e621b78)" style="fill: #250145"/>
    <path d="M 184.15639 61.470709 
L 184.237488 52.215598 
L 188.523113 48.412657 
L 188.39749 57.586769 
z
" clip-path="url(#p882e621b78)" style="fill: #650095"/>
    <path d="M 178.068666 51.779107 
L 184.225762 53.553741 
L 188.504952 49.738927 
L 182.402886 48.010846 
z
" clip-path="url(#p882e621b78)" style="fill: #43017e"/>
    <path d="M 161.561886 59.96073 
L 161.477089 55.198967 
L 167.515319 56.990051 
L 167.566827 61.771061 
z
" clip-path="url(#p882e621b78)" style="fill: #050338"/>
    <path d="M 178.056232 59.664036 
L 178.066983 52.846279 
L 184.216373 54.625302 
L 184.15639 61.470709 
z
" clip-path="url(#p882e621b78)" style="fill: #1b0141"/>
    <path d="M 161.561886 59.96073 
L 167.566827 61.771061 
L 167.509543 56.453896 
L 161.46758 54.664991 
z
" clip-path="url(#p882e621b78)" style="fill: #1a057d"/>
    <path d="M 178.056232 59.664036 
L 184.15639 61.470709 
L 184.225762 53.553741 
L 178.068666 51.779107 
z
" clip-path="url(#p882e621b78)" style="fill: #4d0191"/>
    <path d="M 194.517371 59.367939 
L 194.732426 49.082867 
L 201.004038 50.843936 
L 200.712351 61.170965 
z
" clip-path="url(#p882e621b78)" style="fill: #380345"/>
    <path d="M 190.331944 63.299712 
L 194.517371 59.367939 
L 200.712351 61.170965 
L 196.5843 65.151461 
z
" clip-path="url(#p882e621b78)" style="fill: #470359"/>
    <path d="M 173.646062 63.603789 
L 178.056232 59.664036 
L 184.15639 61.470709 
L 179.800979 65.459334 
z
" clip-path="url(#p882e621b78)" style="fill: #230254"/>
    <path d="M 173.646062 63.603789 
L 178.056232 59.664036 
L 178.065771 53.614574 
L 173.623963 57.501101 
z
" clip-path="url(#p882e621b78)" style="fill: #15023f"/>
    <path d="M 156.926069 63.908488 
L 156.813835 59.104913 
L 161.477089 55.198967 
L 161.561886 59.96073 
z
" clip-path="url(#p882e621b78)" style="fill: #0b0777"/>
    <path d="M 173.646062 63.603789 
L 173.621156 56.725962 
L 178.066983 52.846279 
L 178.056232 59.664036 
z
" clip-path="url(#p882e621b78)" style="fill: #39038b"/>
    <path d="M 167.501346 55.693041 
L 173.623963 57.501101 
L 178.065771 53.614574 
L 171.99701 51.85418 
z
" clip-path="url(#p882e621b78)" style="fill: #260473"/>
    <path d="M 156.926069 63.908488 
L 161.561886 59.96073 
L 167.566827 61.771061 
L 162.983134 65.76784 
z
" clip-path="url(#p882e621b78)" style="fill: #070448"/>
    <path d="M 190.331944 63.299712 
L 194.517371 59.367939 
L 194.709976 50.156545 
L 190.481262 54.006833 
z
" clip-path="url(#p882e621b78)" style="fill: #300046"/>
    <path d="M 190.331944 63.299712 
L 190.498669 52.923482 
L 194.732426 49.082867 
L 194.517371 59.367939 
z
" clip-path="url(#p882e621b78)" style="fill: #760693"/>
    <path d="M 167.566827 61.771061 
L 167.508885 56.392862 
L 173.626508 58.20379 
L 173.646062 63.603789 
z
" clip-path="url(#p882e621b78)" style="fill: #0d023b"/>
    <path d="M 184.237488 52.215598 
L 190.481262 54.006833 
L 194.709976 50.156545 
L 188.523113 48.412657 
z
" clip-path="url(#p882e621b78)" style="fill: #580081"/>
    <path d="M 184.15639 61.470709 
L 184.223705 53.788558 
L 190.455883 55.586301 
L 190.331944 63.299712 
z
" clip-path="url(#p882e621b78)" style="fill: #230144"/>
    <path d="M 167.566827 61.771061 
L 173.646062 63.603789 
L 173.623963 57.501101 
L 167.501346 55.693041 
z
" clip-path="url(#p882e621b78)" style="fill: #2c0485"/>
    <path d="M 184.15639 61.470709 
L 190.331944 63.299712 
L 190.481262 54.006833 
L 184.237488 52.215598 
z
" clip-path="url(#p882e621b78)" style="fill: #650095"/>
    <path d="M 179.800979 65.459334 
L 184.15639 61.470709 
L 190.331944 63.299712 
L 186.032999 67.338123 
z
" clip-path="url(#p882e621b78)" style="fill: #2c0157"/>
    <path d="M 156.813835 59.104913 
L 162.904767 60.944775 
L 167.515319 56.990051 
L 161.477089 55.198967 
z
" clip-path="url(#p882e621b78)" style="fill: #0a0667"/>
    <path d="M 162.983134 65.76784 
L 167.566827 61.771061 
L 167.515319 56.990051 
L 162.904767 60.944775 
z
" clip-path="url(#p882e621b78)" style="fill: #050338"/>
    <path d="M 179.800979 65.459334 
L 184.15639 61.470709 
L 184.216373 54.625302 
L 179.826197 58.553504 
z
" clip-path="url(#p882e621b78)" style="fill: #1b0141"/>
    <path d="M 162.983134 65.76784 
L 167.566827 61.771061 
L 173.646062 63.603789 
L 169.116155 67.650508 
z
" clip-path="url(#p882e621b78)" style="fill: #11034c"/>
    <path d="M 162.983134 65.76784 
L 162.894977 60.342281 
L 167.508885 56.392862 
L 167.566827 61.771061 
z
" clip-path="url(#p882e621b78)" style="fill: #1c057e"/>
    <path d="M 179.800979 65.459334 
L 179.82928 57.709271 
L 184.223705 53.788558 
L 184.15639 61.470709 
z
" clip-path="url(#p882e621b78)" style="fill: #490290"/>
    <path d="M 173.621156 56.725962 
L 179.826197 58.553504 
L 184.216373 54.625302 
L 178.066983 52.846279 
z
" clip-path="url(#p882e621b78)" style="fill: #320378"/>
    <path d="M 196.5843 65.151461 
L 200.712351 61.170965 
L 201.004038 50.843936 
L 196.829104 54.732728 
z
" clip-path="url(#p882e621b78)" style="fill: #380345"/>
    <path d="M 173.646062 63.603789 
L 173.623696 57.427308 
L 179.823625 59.257737 
L 179.800979 65.459334 
z
" clip-path="url(#p882e621b78)" style="fill: #15023f"/>
    <path d="M 156.926069 63.908488 
L 162.983134 65.76784 
L 162.904767 60.944775 
L 156.813835 59.104913 
z
" clip-path="url(#p882e621b78)" style="fill: #0b0777"/>
    <path d="M 190.331944 63.299712 
L 190.46955 54.735758 
L 196.786345 56.552542 
L 196.5843 65.151461 
z
" clip-path="url(#p882e621b78)" style="fill: #2a0046"/>
    <path d="M 173.646062 63.603789 
L 179.800979 65.459334 
L 179.826197 58.553504 
L 173.621156 56.725962 
z
" clip-path="url(#p882e621b78)" style="fill: #39038b"/>
    <path d="M 156.926069 63.908488 
L 156.801832 58.591207 
L 162.896386 60.428965 
L 162.983134 65.76784 
z
" clip-path="url(#p882e621b78)" style="fill: #0c033b"/>
    <path d="M 190.498669 52.923482 
L 196.829104 54.732728 
L 201.004038 50.843936 
L 194.732426 49.082867 
z
" clip-path="url(#p882e621b78)" style="fill: #660580"/>
    <path d="M 190.331944 63.299712 
L 196.5843 65.151461 
L 196.829104 54.732728 
L 190.498669 52.923482 
z
" clip-path="url(#p882e621b78)" style="fill: #760693"/>
    <path d="M 186.032999 67.338123 
L 190.331944 63.299712 
L 196.5843 65.151461 
L 192.343581 69.240597 
z
" clip-path="url(#p882e621b78)" style="fill: #350059"/>
    <path d="M 169.116155 67.650508 
L 173.646062 63.603789 
L 179.800979 65.459334 
L 175.326571 69.556934 
z
" clip-path="url(#p882e621b78)" style="fill: #1b0251"/>
    <path d="M 169.116155 67.650508 
L 173.646062 63.603789 
L 173.626508 58.20379 
L 169.067067 62.202875 
z
" clip-path="url(#p882e621b78)" style="fill: #0d023b"/>
    <path d="M 162.894977 60.342281 
L 169.067067 62.202875 
L 173.626508 58.20379 
L 167.508885 56.392862 
z
" clip-path="url(#p882e621b78)" style="fill: #18046d"/>
    <path d="M 186.032999 67.338123 
L 190.331944 63.299712 
L 190.455883 55.586301 
L 186.118974 59.556402 
z
" clip-path="url(#p882e621b78)" style="fill: #230144"/>
    <path d="M 169.116155 67.650508 
L 169.060008 61.419466 
L 173.623696 57.427308 
L 173.646062 63.603789 
z
" clip-path="url(#p882e621b78)" style="fill: #2d0486"/>
    <path d="M 186.032999 67.338123 
L 186.128455 58.698209 
L 190.46955 54.735758 
L 190.331944 63.299712 
z
" clip-path="url(#p882e621b78)" style="fill: #590094"/>
    <path d="M 152.164259 67.96354 
L 156.926069 63.908488 
L 162.983134 65.76784 
L 158.274077 69.873931 
z
" clip-path="url(#p882e621b78)" style="fill: #10034c"/>
    <path d="M 152.164259 67.96354 
L 152.008017 62.59935 
L 156.801832 58.591207 
L 156.926069 63.908488 
z
" clip-path="url(#p882e621b78)" style="fill: #1a057d"/>
    <path d="M 179.82928 57.709271 
L 186.118974 59.556402 
L 190.455883 55.586301 
L 184.223705 53.788558 
z
" clip-path="url(#p882e621b78)" style="fill: #40017d"/>
    <path d="M 179.800979 65.459334 
L 179.82697 58.341738 
L 186.111957 60.191487 
L 186.032999 67.338123 
z
" clip-path="url(#p882e621b78)" style="fill: #1d0142"/>
    <path d="M 162.983134 65.76784 
L 169.116155 67.650508 
L 169.067067 62.202875 
L 162.894977 60.342281 
z
" clip-path="url(#p882e621b78)" style="fill: #1c057e"/>
    <path d="M 179.800979 65.459334 
L 186.032999 67.338123 
L 186.118974 59.556402 
L 179.82928 57.709271 
z
" clip-path="url(#p882e621b78)" style="fill: #490290"/>
    <path d="M 162.983134 65.76784 
L 162.883568 59.640094 
L 169.060713 61.497798 
L 169.116155 67.650508 
z
" clip-path="url(#p882e621b78)" style="fill: #15023f"/>
    <path d="M 175.326571 69.556934 
L 179.800979 65.459334 
L 186.032999 67.338123 
L 181.615855 71.487571 
z
" clip-path="url(#p882e621b78)" style="fill: #250255"/>
    <path d="M 175.326571 69.556934 
L 179.800979 65.459334 
L 179.823625 59.257737 
L 175.316253 63.300462 
z
" clip-path="url(#p882e621b78)" style="fill: #15023f"/>
    <path d="M 192.343581 69.240597 
L 196.5843 65.151461 
L 196.786345 56.552542 
L 192.504697 60.565275 
z
" clip-path="url(#p882e621b78)" style="fill: #2a0046"/>
    <path d="M 158.274077 69.873931 
L 162.983134 65.76784 
L 169.116155 67.650508 
L 164.461568 71.808608 
z
" clip-path="url(#p882e621b78)" style="fill: #1a0250"/>
    <path d="M 158.274077 69.873931 
L 162.983134 65.76784 
L 162.896386 60.428965 
L 158.155975 64.487878 
z
" clip-path="url(#p882e621b78)" style="fill: #0c033b"/>
    <path d="M 169.060008 61.419466 
L 175.316253 63.300462 
L 179.823625 59.257737 
L 173.623696 57.427308 
z
" clip-path="url(#p882e621b78)" style="fill: #270374"/>
    <path d="M 175.326571 69.556934 
L 175.314729 62.376252 
L 179.82697 58.341738 
L 179.800979 65.459334 
z
" clip-path="url(#p882e621b78)" style="fill: #3e038c"/>
    <path d="M 152.008017 62.59935 
L 158.155975 64.487878 
L 162.896386 60.428965 
L 156.801832 58.591207 
z
" clip-path="url(#p882e621b78)" style="fill: #17056d"/>
    <path d="M 158.274077 69.873931 
L 158.138522 63.691957 
L 162.883568 59.640094 
L 162.983134 65.76784 
z
" clip-path="url(#p882e621b78)" style="fill: #2c0485"/>
    <path d="M 186.128455 58.698209 
L 192.504697 60.565275 
L 196.786345 56.552542 
L 190.46955 54.735758 
z
" clip-path="url(#p882e621b78)" style="fill: #4d0080"/>
    <path d="M 169.116155 67.650508 
L 175.326571 69.556934 
L 175.316253 63.300462 
L 169.060008 61.419466 
z
" clip-path="url(#p882e621b78)" style="fill: #2d0486"/>
    <path d="M 186.032999 67.338123 
L 186.126088 58.912483 
L 192.500701 60.780441 
L 192.343581 69.240597 
z
" clip-path="url(#p882e621b78)" style="fill: #280045"/>
    <path d="M 186.032999 67.338123 
L 192.343581 69.240597 
L 192.504697 60.565275 
L 186.128455 58.698209 
z
" clip-path="url(#p882e621b78)" style="fill: #590094"/>
    <path d="M 152.164259 67.96354 
L 158.274077 69.873931 
L 158.155975 64.487878 
L 152.008017 62.59935 
z
" clip-path="url(#p882e621b78)" style="fill: #1a057d"/>
    <path d="M 169.116155 67.650508 
L 169.047121 59.989371 
L 175.313885 61.864449 
L 175.326571 69.556934 
z
" clip-path="url(#p882e621b78)" style="fill: #210144"/>
    <path d="M 181.615855 71.487571 
L 186.032999 67.338123 
L 192.343581 69.240597 
L 187.98552 73.442882 
z
" clip-path="url(#p882e621b78)" style="fill: #330059"/>
    <path d="M 164.461568 71.808608 
L 169.116155 67.650508 
L 175.326571 69.556934 
L 170.728222 73.768038 
z
" clip-path="url(#p882e621b78)" style="fill: #2b0156"/>
    <path d="M 181.615855 71.487571 
L 186.032999 67.338123 
L 186.111957 60.191487 
L 181.657963 64.277487 
z
" clip-path="url(#p882e621b78)" style="fill: #1d0142"/>
    <path d="M 164.461568 71.808608 
L 169.116155 67.650508 
L 169.060713 61.497798 
L 164.370922 65.601362 
z
" clip-path="url(#p882e621b78)" style="fill: #15023f"/>
    <path d="M 181.615855 71.487571 
L 181.6655 62.986951 
L 186.126088 58.912483 
L 186.032999 67.338123 
z
" clip-path="url(#p882e621b78)" style="fill: #540193"/>
    <path d="M 158.138522 63.691957 
L 164.370922 65.601362 
L 169.060713 61.497798 
L 162.883568 59.640094 
z
" clip-path="url(#p882e621b78)" style="fill: #260473"/>
    <path d="M 175.314729 62.376252 
L 181.657963 64.277487 
L 186.111957 60.191487 
L 179.82697 58.341738 
z
" clip-path="url(#p882e621b78)" style="fill: #36027a"/>
    <path d="M 164.461568 71.808608 
L 164.348696 64.079374 
L 169.047121 59.989371 
L 169.116155 67.650508 
z
" clip-path="url(#p882e621b78)" style="fill: #46028f"/>
    <path d="M 175.326571 69.556934 
L 181.615855 71.487571 
L 181.657963 64.277487 
L 175.314729 62.376252 
z
" clip-path="url(#p882e621b78)" style="fill: #3e038c"/>
    <path d="M 158.274077 69.873931 
L 164.461568 71.808608 
L 164.370922 65.601362 
L 158.138522 63.691957 
z
" clip-path="url(#p882e621b78)" style="fill: #2c0485"/>
    <path d="M 175.326571 69.556934 
L 175.308256 58.451228 
L 181.680982 60.33606 
L 181.615855 71.487571 
z
" clip-path="url(#p882e621b78)" style="fill: #3c0544"/>
    <path d="M 170.728222 73.768038 
L 175.326571 69.556934 
L 181.615855 71.487571 
L 177.075569 75.752697 
z
" clip-path="url(#p882e621b78)" style="fill: #4d0757"/>
    <path d="M 187.98552 73.442882 
L 192.343581 69.240597 
L 192.500701 60.780441 
L 188.100413 64.907318 
z
" clip-path="url(#p882e621b78)" style="fill: #280045"/>
    <path d="M 170.728222 73.768038 
L 175.326571 69.556934 
L 175.313885 61.864449 
L 170.672724 66.007068 
z
" clip-path="url(#p882e621b78)" style="fill: #210144"/>
    <path d="M 181.6655 62.986951 
L 188.100413 64.907318 
L 192.500701 60.780441 
L 186.126088 58.912483 
z
" clip-path="url(#p882e621b78)" style="fill: #49007f"/>
    <path d="M 164.348696 64.079374 
L 170.672724 66.007068 
L 175.313885 61.864449 
L 169.047121 59.989371 
z
" clip-path="url(#p882e621b78)" style="fill: #3d027c"/>
    <path d="M 170.728222 73.768038 
L 170.648094 62.56283 
L 175.308256 58.451228 
L 175.326571 69.556934 
z
" clip-path="url(#p882e621b78)" style="fill: #7f0c90"/>
    <path d="M 181.615855 71.487571 
L 187.98552 73.442882 
L 188.100413 64.907318 
L 181.6655 62.986951 
z
" clip-path="url(#p882e621b78)" style="fill: #540193"/>
    <path d="M 164.461568 71.808608 
L 170.728222 73.768038 
L 170.672724 66.007068 
L 164.348696 64.079374 
z
" clip-path="url(#p882e621b78)" style="fill: #46028f"/>
    <path d="M 177.075569 75.752697 
L 181.615855 71.487571 
L 187.98552 73.442882 
L 183.505175 77.763078 
z
" clip-path="url(#p882e621b78)" style="fill: #808512"/>
    <path d="M 177.075569 75.752697 
L 181.615855 71.487571 
L 181.680982 60.33606 
L 177.080441 64.501118 
z
" clip-path="url(#p882e621b78)" style="fill: #3c0544"/>
    <path d="M 170.648094 62.56283 
L 177.080441 64.501118 
L 181.680982 60.33606 
L 175.308256 58.451228 
z
" clip-path="url(#p882e621b78)" style="fill: #6e0a7d"/>
    <path d="M 170.728222 73.768038 
L 177.075569 75.752697 
L 177.080441 64.501118 
L 170.648094 62.56283 
z
" clip-path="url(#p882e621b78)" style="fill: #7f0c90"/>
    <path d="M 181.615855 71.487571 
L 181.768734 45.31063 
L 188.339371 47.154795 
L 187.98552 73.442882 
z
" clip-path="url(#p882e621b78)" style="fill: #64680e"/>
    <path d="M 177.075569 75.752697 
L 177.087008 49.334262 
L 181.768734 45.31063 
L 181.615855 71.487571 
z
" clip-path="url(#p882e621b78)" style="fill: #d4dc1e"/>
    <path d="M 183.505175 77.763078 
L 187.98552 73.442882 
L 188.339371 47.154795 
L 183.72146 51.232027 
z
" clip-path="url(#p882e621b78)" style="fill: #64680e"/>
    <path d="M 177.075569 75.752697 
L 183.505175 77.763078 
L 183.72146 51.232027 
L 177.087008 49.334262 
z
" clip-path="url(#p882e621b78)" style="fill: #d4dc1e"/>
    <path d="M 177.087008 49.334262 
L 183.72146 51.232027 
L 188.339371 47.154795 
L 181.768734 45.31063 
z
" clip-path="url(#p882e621b78)" style="fill: #b8bf1a"/>
   </g>
  </g>
 </g>
 <defs>
  <clipPath id="p4cf7b067df">
   <rect x="7.2" y="7.2" width="91.748262" height="91.748262"/>
  </clipPath>
  <clipPath id="p882e621b78">
   <rect x="129.6" y="7.2" width="91.748262" height="91.748262"/>
  </clipPath>
 </defs>
</svg>
