<?xml version="1.0" encoding="utf-8" standalone="no"?>
<!DOCTYPE svg PUBLIC "-//W3C//DTD SVG 1.1//EN"
  "http://www.w3.org/Graphics/SVG/1.1/DTD/svg11.dtd">
<svg xmlns:xlink="http://www.w3.org/1999/xlink" width="253.19952pt" height="253.19952pt" viewBox="0 0 253.19952 253.19952" xmlns="http://www.w3.org/2000/svg" version="1.1">
 <metadata>
  <rdf:RDF xmlns:dc="http://purl.org/dc/elements/1.1/" xmlns:cc="http://creativecommons.org/ns#" xmlns:rdf="http://www.w3.org/1999/02/22-rdf-syntax-ns#">
   <cc:Work>
    <dc:type rdf:resource="http://purl.org/dc/dcmitype/StillImage"/>
    <dc:date>1980-01-01T00:00:00+00:00</dc:date>
    <dc:format>image/svg+xml</dc:format>
    <dc:creator>
     <cc:Agent>
      <dc:title>Matplotlib v3.6.2, https://matplotlib.org/</dc:title>
     </cc:Agent>
    </dc:creator>
   </cc:Work>
  </rdf:RDF>
 </metadata>
 <defs>
  <style type="text/css">*{stroke-linejoin: round; stroke-linecap: butt}</style>
 </defs>
 <g id="figure_1">
  <g id="patch_1">
   <path d="M 0 253.19952 
L 253.19952 253.19952 
L 253.19952 0 
L 0 0 
z
" style="fill: #ffffff"/>
  </g>
  <g id="patch_2">
   <path d="M 7.2 245.99952 
L 245.99952 245.99952 
L 245.99952 7.2 
L 7.2 7.2 
z
" style="fill: #ffffff"/>
  </g>
  <g id="pane3d_1">
   <g id="patch_3">
    <path d="M 58.819943 147.118515 
L 149.518552 121.847368 
L 150.114014 54.194245 
L 56.597514 77.885596 
" style="fill: #f2f2f2; opacity: 0.5; stroke: #f2f2f2; stroke-width: 0.24; stroke-linejoin: miter"/>
   </g>
  </g>
  <g id="pane3d_2">
   <g id="patch_4">
    <path d="M 149.518552 121.847368 
L 202.828082 168.71828 
L 205.179179 98.173742 
L 150.114014 54.194245 
" style="fill: #e6e6e6; opacity: 0.5; stroke: #e6e6e6; stroke-width: 0.24; stroke-linejoin: miter"/>
   </g>
  </g>
  <g id="pane3d_3">
   <g id="patch_5">
    <path d="M 58.819943 147.118515 
L 108.136265 197.336358 
L 202.828082 168.71828 
L 149.518552 121.847368 
" style="fill: #ececec; opacity: 0.5; stroke: #ececec; stroke-width: 0.24; stroke-linejoin: miter"/>
   </g>
  </g>
  <g id="axis3d_1">
   <g id="line2d_1">
    <path d="M 58.819943 147.118515 
L 108.136265 197.336358 
" style="fill: none; stroke: #000000; stroke-width: 0.8; stroke-linecap: square"/>
   </g>
   <g id="text_1">
    <!-- $\delta$ -->
    <g transform="translate(55.810999 195.62433) rotate(-314.481063) scale(0.1 -0.1)">
     <defs>
      <path id="CMMI12-e" d="M 1664 2795 
C 845 2597 256 1748 256 1001 
C 256 319 717 -64 1229 -64 
C 1984 -64 2496 970 2496 1818 
C 2496 2392 2227 2744 2067 2954 
C 1830 3254 1446 3746 1446 4052 
C 1446 4161 1530 4352 1811 4352 
C 2010 4352 2131 4282 2323 4173 
C 2381 4134 2528 4052 2611 4052 
C 2746 4052 2842 4185 2842 4287 
C 2842 4409 2746 4428 2522 4479 
C 2221 4543 2131 4543 2022 4543 
C 1914 4543 1286 4543 1286 3892 
C 1286 3579 1446 3216 1664 2795 
z
M 1734 2669 
C 1978 2165 2074 1974 2074 1560 
C 2074 1063 1805 63 1235 63 
C 986 63 627 229 627 821 
C 627 1235 864 2439 1734 2669 
z
" transform="scale(0.015625)"/>
     </defs>
     <use xlink:href="#CMMI12-e" transform="scale(0.996264)"/>
    </g>
   </g>
   <g id="Line3DCollection_1">
    <path d="M 65.185868 153.600812 
L 156.412793 127.908937 
L 157.223483 59.872442 
" style="fill: none; stroke: #b0b0b0; stroke-width: 0.8"/>
    <path d="M 72.095558 160.636813 
L 163.891605 134.484472 
L 164.939737 66.035267 
" style="fill: none; stroke: #b0b0b0; stroke-width: 0.8"/>
    <path d="M 79.13178 167.80166 
L 171.502754 141.176362 
L 172.796769 72.310528 
" style="fill: none; stroke: #b0b0b0; stroke-width: 0.8"/>
    <path d="M 86.298043 175.098925 
L 179.249784 147.987721 
L 180.798467 78.701332 
" style="fill: none; stroke: #b0b0b0; stroke-width: 0.8"/>
    <path d="M 93.597986 182.532313 
L 187.136367 154.921779 
L 188.948865 85.210899 
" style="fill: none; stroke: #b0b0b0; stroke-width: 0.8"/>
    <path d="M 101.035384 190.10567 
L 195.166308 161.98188 
L 197.252146 91.842571 
" style="fill: none; stroke: #b0b0b0; stroke-width: 0.8"/>
   </g>
   <g id="xtick_1">
    <g id="line2d_2">
     <path d="M 65.940485 153.388292 
L 63.675394 154.026201 
" style="fill: none; stroke: #000000; stroke-width: 0.8; stroke-linecap: square"/>
    </g>
    <g id="text_2">
     <!-- $\mathdefault{0.2}$ -->
     <g transform="translate(49.670602 169.426165) scale(0.08 -0.08)">
      <defs>
       <path id="CMR17-30" d="M 2688 2025 
C 2688 2416 2682 3080 2413 3591 
C 2176 4039 1798 4198 1466 4198 
C 1158 4198 768 4058 525 3597 
C 269 3118 243 2524 243 2025 
C 243 1661 250 1106 448 619 
C 723 -39 1216 -128 1466 -128 
C 1760 -128 2208 -7 2470 600 
C 2662 1042 2688 1559 2688 2025 
z
M 1466 -26 
C 1056 -26 813 325 723 812 
C 653 1188 653 1738 653 2096 
C 653 2588 653 2997 736 3387 
C 858 3929 1216 4096 1466 4096 
C 1728 4096 2067 3923 2189 3400 
C 2272 3036 2278 2607 2278 2096 
C 2278 1680 2278 1169 2202 792 
C 2067 95 1690 -26 1466 -26 
z
" transform="scale(0.015625)"/>
       <path id="CMMI12-3a" d="M 1178 307 
C 1178 492 1024 619 870 619 
C 685 619 557 466 557 313 
C 557 128 710 0 864 0 
C 1050 0 1178 153 1178 307 
z
" transform="scale(0.015625)"/>
       <path id="CMR17-32" d="M 2669 989 
L 2554 989 
C 2490 536 2438 459 2413 420 
C 2381 369 1920 369 1830 369 
L 602 369 
C 832 619 1280 1072 1824 1597 
C 2214 1967 2669 2402 2669 3035 
C 2669 3790 2067 4224 1395 4224 
C 691 4224 262 3604 262 3030 
C 262 2780 448 2748 525 2748 
C 589 2748 781 2787 781 3010 
C 781 3207 614 3264 525 3264 
C 486 3264 448 3258 422 3245 
C 544 3790 915 4058 1306 4058 
C 1862 4058 2227 3617 2227 3035 
C 2227 2479 1901 2000 1536 1584 
L 262 146 
L 262 0 
L 2515 0 
L 2669 989 
z
" transform="scale(0.015625)"/>
      </defs>
      <use xlink:href="#CMR17-30" transform="scale(0.996264)"/>
      <use xlink:href="#CMMI12-3a" transform="translate(45.690477 0) scale(0.996264)"/>
      <use xlink:href="#CMR17-32" transform="translate(72.787654 0) scale(0.996264)"/>
     </g>
    </g>
   </g>
   <g id="xtick_2">
    <g id="line2d_3">
     <path d="M 72.855108 160.42042 
L 70.575196 161.069958 
" style="fill: none; stroke: #000000; stroke-width: 0.8; stroke-linecap: square"/>
    </g>
    <g id="text_3">
     <!-- $\mathdefault{0.3}$ -->
     <g transform="translate(56.491363 176.558415) scale(0.08 -0.08)">
      <defs>
       <path id="CMR17-33" d="M 1414 2157 
C 1984 2157 2234 1662 2234 1090 
C 2234 320 1824 25 1453 25 
C 1114 25 563 194 390 693 
C 422 680 454 680 486 680 
C 640 680 755 782 755 948 
C 755 1133 614 1216 486 1216 
C 378 1216 211 1165 211 926 
C 211 335 787 -128 1466 -128 
C 2176 -128 2720 430 2720 1085 
C 2720 1707 2208 2157 1600 2227 
C 2086 2328 2554 2756 2554 3329 
C 2554 3820 2048 4179 1472 4179 
C 890 4179 378 3829 378 3329 
C 378 3110 544 3072 627 3072 
C 762 3072 877 3155 877 3321 
C 877 3486 762 3569 627 3569 
C 602 3569 570 3569 544 3557 
C 730 3959 1235 4032 1459 4032 
C 1683 4032 2106 3925 2106 3320 
C 2106 3143 2080 2828 1862 2550 
C 1670 2304 1453 2304 1242 2284 
C 1210 2284 1062 2269 1037 2269 
C 992 2263 966 2257 966 2208 
C 966 2163 973 2157 1101 2157 
L 1414 2157 
z
" transform="scale(0.015625)"/>
      </defs>
      <use xlink:href="#CMR17-30" transform="scale(0.996264)"/>
      <use xlink:href="#CMMI12-3a" transform="translate(45.690477 0) scale(0.996264)"/>
      <use xlink:href="#CMR17-33" transform="translate(72.787654 0) scale(0.996264)"/>
     </g>
    </g>
   </g>
   <g id="xtick_3">
    <g id="line2d_4">
     <path d="M 79.896319 167.581287 
L 77.60142 168.242776 
" style="fill: none; stroke: #000000; stroke-width: 0.8; stroke-linecap: square"/>
    </g>
    <g id="text_4">
     <!-- $\mathdefault{0.4}$ -->
     <g transform="translate(63.43708 183.821326) scale(0.08 -0.08)">
      <defs>
       <path id="CMR17-34" d="M 2150 4122 
C 2150 4256 2144 4256 2029 4256 
L 128 1254 
L 128 1088 
L 1779 1088 
L 1779 457 
C 1779 224 1766 160 1318 160 
L 1197 160 
L 1197 0 
C 1402 0 1747 0 1965 0 
C 2182 0 2528 0 2733 0 
L 2733 160 
L 2611 160 
C 2163 160 2150 224 2150 457 
L 2150 1088 
L 2803 1088 
L 2803 1254 
L 2150 1254 
L 2150 4122 
z
M 1798 3703 
L 1798 1254 
L 256 1254 
L 1798 3703 
z
" transform="scale(0.015625)"/>
      </defs>
      <use xlink:href="#CMR17-30" transform="scale(0.996264)"/>
      <use xlink:href="#CMMI12-3a" transform="translate(45.690477 0) scale(0.996264)"/>
      <use xlink:href="#CMR17-34" transform="translate(72.787654 0) scale(0.996264)"/>
     </g>
    </g>
   </g>
   <g id="xtick_4">
    <g id="line2d_5">
     <path d="M 87.067627 174.874461 
L 84.757574 175.548233 
" style="fill: none; stroke: #000000; stroke-width: 0.8; stroke-linecap: square"/>
    </g>
    <g id="text_5">
     <!-- $\mathdefault{0.5}$ -->
     <g transform="translate(70.511217 191.218523) scale(0.08 -0.08)">
      <defs>
       <path id="CMR17-35" d="M 730 3692 
C 794 3666 1056 3584 1325 3584 
C 1920 3584 2246 3911 2432 4100 
C 2432 4157 2432 4192 2394 4192 
C 2387 4192 2374 4192 2323 4163 
C 2099 4058 1837 3973 1517 3973 
C 1325 3973 1037 3999 723 4139 
C 653 4171 640 4171 634 4171 
C 602 4171 595 4164 595 4037 
L 595 2203 
C 595 2089 595 2057 659 2057 
C 691 2057 704 2070 736 2114 
C 941 2401 1222 2522 1542 2522 
C 1766 2522 2246 2382 2246 1289 
C 2246 1085 2246 715 2054 421 
C 1894 159 1645 25 1370 25 
C 947 25 518 320 403 814 
C 429 807 480 795 506 795 
C 589 795 749 840 749 1038 
C 749 1210 627 1280 506 1280 
C 358 1280 262 1190 262 1011 
C 262 454 704 -128 1382 -128 
C 2042 -128 2669 440 2669 1264 
C 2669 2030 2170 2624 1549 2624 
C 1222 2624 947 2503 730 2274 
L 730 3692 
z
" transform="scale(0.015625)"/>
      </defs>
      <use xlink:href="#CMR17-30" transform="scale(0.996264)"/>
      <use xlink:href="#CMMI12-3a" transform="translate(45.690477 0) scale(0.996264)"/>
      <use xlink:href="#CMR17-35" transform="translate(72.787654 0) scale(0.996264)"/>
     </g>
    </g>
   </g>
   <g id="xtick_5">
    <g id="line2d_6">
     <path d="M 94.37267 182.303643 
L 92.047294 182.990045 
" style="fill: none; stroke: #000000; stroke-width: 0.8; stroke-linecap: square"/>
    </g>
    <g id="text_6">
     <!-- $\mathdefault{0.6}$ -->
     <g transform="translate(77.717371 198.753765) scale(0.08 -0.08)">
      <defs>
       <path id="CMR17-36" d="M 678 2176 
C 678 3690 1395 4032 1811 4032 
C 1946 4032 2272 4009 2400 3776 
C 2298 3776 2106 3776 2106 3553 
C 2106 3381 2246 3323 2336 3323 
C 2394 3323 2566 3348 2566 3560 
C 2566 3954 2246 4179 1805 4179 
C 1043 4179 243 3390 243 1984 
C 243 253 966 -128 1478 -128 
C 2099 -128 2688 427 2688 1283 
C 2688 2081 2170 2662 1517 2662 
C 1126 2662 838 2407 678 1960 
L 678 2176 
z
M 1478 25 
C 691 25 691 1200 691 1436 
C 691 1896 909 2560 1504 2560 
C 1613 2560 1926 2560 2138 2120 
C 2253 1870 2253 1609 2253 1289 
C 2253 944 2253 690 2118 434 
C 1978 171 1773 25 1478 25 
z
" transform="scale(0.015625)"/>
      </defs>
      <use xlink:href="#CMR17-30" transform="scale(0.996264)"/>
      <use xlink:href="#CMMI12-3a" transform="translate(45.690477 0) scale(0.996264)"/>
      <use xlink:href="#CMR17-36" transform="translate(72.787654 0) scale(0.996264)"/>
     </g>
    </g>
   </g>
   <g id="xtick_6">
    <g id="line2d_7">
     <path d="M 101.815226 189.872674 
L 99.474356 190.572063 
" style="fill: none; stroke: #000000; stroke-width: 0.8; stroke-linecap: square"/>
    </g>
    <g id="text_7">
     <!-- $\mathdefault{0.7}$ -->
     <g transform="translate(85.059271 206.430953) scale(0.08 -0.08)">
      <defs>
       <path id="CMR17-37" d="M 2886 3941 
L 2886 4081 
L 1382 4081 
C 634 4081 621 4165 595 4288 
L 480 4288 
L 294 3094 
L 410 3094 
C 429 3215 474 3540 550 3661 
C 589 3712 1062 3712 1171 3712 
L 2579 3712 
L 1869 2661 
C 1395 1954 1069 999 1069 165 
C 1069 89 1069 -128 1299 -128 
C 1530 -128 1530 89 1530 171 
L 1530 465 
C 1530 1508 1709 2196 2003 2636 
L 2886 3941 
z
" transform="scale(0.015625)"/>
      </defs>
      <use xlink:href="#CMR17-30" transform="scale(0.996264)"/>
      <use xlink:href="#CMMI12-3a" transform="translate(45.690477 0) scale(0.996264)"/>
      <use xlink:href="#CMR17-37" transform="translate(72.787654 0) scale(0.996264)"/>
     </g>
    </g>
   </g>
  </g>
  <g id="axis3d_2">
   <g id="line2d_8">
    <path d="M 202.828082 168.71828 
L 108.136265 197.336358 
" style="fill: none; stroke: #000000; stroke-width: 0.8; stroke-linecap: square"/>
   </g>
   <g id="text_8">
    <!-- $\Theta$ -->
    <g transform="translate(164.23124 210.703169) rotate(-16.816043) scale(0.1 -0.1)">
     <defs>
      <path id="CMR17-2" d="M 4307 2153 
C 4307 3467 3366 4455 2304 4455 
C 1216 4455 294 3454 294 2153 
C 294 852 1229 -128 2298 -128 
C 3392 -128 4307 872 4307 2153 
z
M 2304 -20 
C 1574 -20 762 673 762 2153 
C 762 3679 1600 4352 2298 4352 
C 3021 4352 3840 3660 3840 2153 
C 3840 653 3008 -20 2304 -20 
z
M 3501 2560 
L 3386 2560 
L 3386 2342 
L 1216 2342 
L 1216 2560 
L 1101 2560 
L 1101 1766 
L 1216 1766 
L 1216 1984 
L 3386 1984 
L 3386 1766 
L 3501 1766 
L 3501 2560 
z
" transform="scale(0.015625)"/>
     </defs>
     <use xlink:href="#CMR17-2" transform="scale(0.996264)"/>
    </g>
   </g>
   <g id="Line3DCollection_2">
    <path d="M 73.215817 73.675536 
L 74.923873 142.631513 
L 124.97887 192.24613 
" style="fill: none; stroke: #b0b0b0; stroke-width: 0.8"/>
    <path d="M 93.923689 68.42943 
L 94.999025 137.03802 
L 145.956896 185.90608 
" style="fill: none; stroke: #b0b0b0; stroke-width: 0.8"/>
    <path d="M 114.321527 63.261868 
L 114.782553 131.52578 
L 166.61071 179.664016 
" style="fill: none; stroke: #b0b0b0; stroke-width: 0.8"/>
    <path d="M 134.416241 58.171098 
L 134.280764 126.093038 
L 186.947771 173.517681 
" style="fill: none; stroke: #b0b0b0; stroke-width: 0.8"/>
   </g>
   <g id="xtick_7">
    <g id="line2d_9">
     <path d="M 124.552664 191.823673 
L 125.832612 193.09236 
" style="fill: none; stroke: #000000; stroke-width: 0.8; stroke-linecap: square"/>
    </g>
    <g id="text_9">
     <!-- $\mathdefault{35}$ -->
     <g transform="translate(126.611309 211.219257) scale(0.08 -0.08)">
      <use xlink:href="#CMR17-33" transform="scale(0.996264)"/>
      <use xlink:href="#CMR17-35" transform="translate(45.690477 0) scale(0.996264)"/>
     </g>
    </g>
   </g>
   <g id="xtick_8">
    <g id="line2d_10">
     <path d="M 145.523206 185.490176 
L 146.825618 186.739175 
" style="fill: none; stroke: #000000; stroke-width: 0.8; stroke-linecap: square"/>
    </g>
    <g id="text_10">
     <!-- $\mathdefault{50}$ -->
     <g transform="translate(147.618331 204.751562) scale(0.08 -0.08)">
      <use xlink:href="#CMR17-35" transform="scale(0.996264)"/>
      <use xlink:href="#CMR17-30" transform="translate(45.690477 0) scale(0.996264)"/>
     </g>
    </g>
   </g>
   <g id="xtick_9">
    <g id="line2d_11">
     <path d="M 166.169818 179.254513 
L 167.493848 180.484278 
" style="fill: none; stroke: #000000; stroke-width: 0.8; stroke-linecap: square"/>
    </g>
    <g id="text_11">
     <!-- $\mathdefault{65}$ -->
     <g transform="translate(168.299543 198.384179) scale(0.08 -0.08)">
      <use xlink:href="#CMR17-36" transform="scale(0.996264)"/>
      <use xlink:href="#CMR17-35" transform="translate(45.690477 0) scale(0.996264)"/>
     </g>
    </g>
   </g>
   <g id="xtick_10">
    <g id="line2d_12">
     <path d="M 186.499948 173.114433 
L 187.844782 174.325406 
" style="fill: none; stroke: #000000; stroke-width: 0.8; stroke-linecap: square"/>
    </g>
    <g id="text_12">
     <!-- $\mathdefault{80}$ -->
     <g transform="translate(188.662468 192.11479) scale(0.08 -0.08)">
      <defs>
       <path id="CMR17-38" d="M 1741 2264 
C 2144 2467 2554 2773 2554 3263 
C 2554 3841 1990 4179 1472 4179 
C 890 4179 378 3759 378 3180 
C 378 3021 416 2747 666 2505 
C 730 2442 998 2251 1171 2130 
C 883 1983 211 1634 211 934 
C 211 279 838 -128 1459 -128 
C 2144 -128 2720 362 2720 1010 
C 2720 1590 2330 1857 2074 2029 
L 1741 2264 
z
M 902 2822 
C 851 2854 595 3051 595 3351 
C 595 3739 998 4032 1459 4032 
C 1965 4032 2336 3676 2336 3262 
C 2336 2669 1670 2331 1638 2331 
C 1632 2331 1626 2331 1574 2370 
L 902 2822 
z
M 2080 1519 
C 2176 1449 2483 1240 2483 851 
C 2483 381 2010 25 1472 25 
C 890 25 448 438 448 940 
C 448 1443 838 1862 1280 2060 
L 2080 1519 
z
" transform="scale(0.015625)"/>
      </defs>
      <use xlink:href="#CMR17-38" transform="scale(0.996264)"/>
      <use xlink:href="#CMR17-30" transform="translate(45.690477 0) scale(0.996264)"/>
     </g>
    </g>
   </g>
  </g>
  <g id="axis3d_3">
   <g id="line2d_13">
    <path d="M 202.828082 168.71828 
L 205.179179 98.173742 
" style="fill: none; stroke: #000000; stroke-width: 0.8; stroke-linecap: square"/>
   </g>
   <g id="text_13">
    <!-- $\bar{P}_\mathrm{sys}/10^{-3}$ -->
    <g transform="translate(241.248066 160.411664) rotate(-88.091162) scale(0.1 -0.1)">
     <defs>
      <path id="CMR17-16" d="M 2554 3520 
L 2554 3666 
L 378 3666 
L 378 3520 
L 2554 3520 
z
" transform="scale(0.015625)"/>
      <path id="CMMI12-50" d="M 1894 2023 
L 2970 2023 
C 3853 2023 4736 2673 4736 3401 
C 4736 3898 4314 4352 3507 4352 
L 1530 4352 
C 1408 4352 1350 4352 1350 4231 
C 1350 4167 1408 4167 1504 4167 
C 1894 4167 1894 4116 1894 4046 
C 1894 4034 1894 3995 1869 3899 
L 1005 472 
C 947 249 934 185 486 185 
C 365 185 301 185 301 70 
C 301 0 358 0 397 0 
C 518 0 646 0 768 0 
L 1517 0 
C 1638 0 1773 0 1894 0 
C 1946 0 2016 0 2016 121 
C 2016 185 1958 185 1862 185 
C 1478 185 1472 230 1472 293 
C 1472 325 1478 369 1485 401 
L 1894 2023 
z
M 2355 3930 
C 2413 4167 2438 4167 2688 4167 
L 3322 4167 
C 3802 4167 4198 4013 4198 3535 
C 4198 3369 4115 2827 3821 2534 
C 3712 2419 3405 2176 2822 2176 
L 1920 2176 
L 2355 3930 
z
" transform="scale(0.015625)"/>
      <path id="CMR17-73" d="M 1978 2697 
C 1978 2813 1971 2819 1933 2819 
C 1907 2819 1901 2813 1824 2717 
C 1805 2691 1747 2626 1728 2601 
C 1523 2819 1235 2819 1126 2819 
C 416 2819 160 2447 160 2076 
C 160 1498 813 1365 998 1325 
C 1402 1243 1542 1217 1677 1101 
C 1760 1025 1901 884 1901 654 
C 1901 384 1747 38 1158 38 
C 602 38 403 460 288 1021 
C 269 1110 269 1117 218 1117 
C 166 1117 160 1110 160 983 
L 160 63 
C 160 -51 166 -58 205 -58 
C 237 -58 243 -51 275 0 
C 314 57 410 211 448 276 
C 576 103 800 -64 1158 -64 
C 1792 -64 2131 283 2131 784 
C 2131 1112 1958 1285 1875 1362 
C 1683 1561 1459 1606 1190 1657 
C 838 1735 390 1825 390 2217 
C 390 2383 480 2737 1126 2737 
C 1811 2737 1850 2094 1862 1888 
C 1869 1856 1901 1849 1920 1849 
C 1978 1849 1978 1869 1978 1978 
L 1978 2697 
z
" transform="scale(0.015625)"/>
      <path id="CMR17-79" d="M 2496 2197 
C 2656 2586 2944 2586 3034 2586 
L 3034 2752 
C 2912 2752 2752 2752 2630 2752 
C 2496 2752 2285 2752 2157 2758 
L 2157 2592 
C 2400 2573 2406 2394 2406 2343 
C 2406 2280 2394 2248 2362 2171 
L 1664 449 
L 902 2306 
C 870 2382 870 2426 870 2433 
C 870 2573 1018 2586 1171 2586 
L 1171 2758 
C 1018 2752 742 2752 582 2752 
C 410 2752 205 2752 64 2758 
L 64 2586 
C 410 2586 448 2554 531 2350 
L 1485 15 
C 1197 -738 1030 -1178 627 -1178 
C 557 -1178 397 -1159 282 -1044 
C 429 -1031 493 -942 493 -833 
C 493 -725 416 -629 288 -629 
C 147 -629 77 -725 77 -840 
C 77 -1095 339 -1280 627 -1280 
C 998 -1280 1229 -922 1357 -604 
L 2496 2197 
z
" transform="scale(0.015625)"/>
      <path id="CMMI12-3d" d="M 2746 4562 
C 2746 4569 2784 4666 2784 4678 
C 2784 4755 2720 4800 2669 4800 
C 2637 4800 2579 4800 2528 4659 
L 384 -1363 
C 384 -1370 346 -1465 346 -1478 
C 346 -1555 410 -1600 461 -1600 
C 499 -1600 557 -1593 602 -1459 
L 2746 4562 
z
" transform="scale(0.015625)"/>
      <path id="CMR17-31" d="M 1702 4058 
C 1702 4192 1696 4192 1606 4192 
C 1357 3916 979 3827 621 3827 
C 602 3827 570 3827 563 3808 
C 557 3795 557 3782 557 3648 
C 755 3648 1088 3686 1344 3839 
L 1344 461 
C 1344 236 1331 160 781 160 
L 589 160 
L 589 0 
C 896 0 1216 0 1523 0 
C 1830 0 2150 0 2458 0 
L 2458 160 
L 2266 160 
C 1715 160 1702 230 1702 458 
L 1702 4058 
z
" transform="scale(0.015625)"/>
      <path id="CMSY10-0" d="M 4218 1472 
C 4326 1472 4442 1472 4442 1600 
C 4442 1728 4326 1728 4218 1728 
L 755 1728 
C 646 1728 531 1728 531 1600 
C 531 1472 646 1472 755 1472 
L 4218 1472 
z
" transform="scale(0.015625)"/>
     </defs>
     <use xlink:href="#CMR17-16" transform="translate(23.496833 25.189733) scale(0.996264)"/>
     <use xlink:href="#CMMI12-50" transform="scale(0.996264)"/>
     <use xlink:href="#CMR17-73" transform="translate(62.877232 -14.943915) scale(0.697382)"/>
     <use xlink:href="#CMR17-79" transform="translate(87.938055 -14.943915) scale(0.697382)"/>
     <use xlink:href="#CMR17-73" transform="translate(121.742942 -14.943915) scale(0.697382)"/>
     <use xlink:href="#CMMI12-3d" transform="translate(147.301896 0) scale(0.996264)"/>
     <use xlink:href="#CMR17-31" transform="translate(196.076815 0) scale(0.996264)"/>
     <use xlink:href="#CMR17-30" transform="translate(241.767292 0) scale(0.996264)"/>
     <use xlink:href="#CMSY10-0" transform="translate(287.457769 36.153639) scale(0.697382)"/>
     <use xlink:href="#CMR17-33" transform="translate(341.698763 36.153639) scale(0.697382)"/>
    </g>
   </g>
   <g id="Line3DCollection_3">
    <path d="M 202.873665 167.350558 
L 149.530119 120.533249 
L 58.776817 145.775064 
" style="fill: none; stroke: #b0b0b0; stroke-width: 0.8"/>
    <path d="M 203.233377 156.557426 
L 149.621363 110.166529 
L 58.436549 135.175075 
" style="fill: none; stroke: #b0b0b0; stroke-width: 0.8"/>
    <path d="M 203.596649 145.65747 
L 149.713457 99.703348 
L 58.093007 124.473068 
" style="fill: none; stroke: #b0b0b0; stroke-width: 0.8"/>
    <path d="M 203.963535 134.649094 
L 149.806412 89.142352 
L 57.746142 113.667564 
" style="fill: none; stroke: #b0b0b0; stroke-width: 0.8"/>
    <path d="M 204.334088 123.530673 
L 149.900239 78.482163 
L 57.395907 102.757052 
" style="fill: none; stroke: #b0b0b0; stroke-width: 0.8"/>
    <path d="M 204.708363 112.300549 
L 149.994953 67.721379 
L 57.042251 91.739996 
" style="fill: none; stroke: #b0b0b0; stroke-width: 0.8"/>
    <path d="M 205.086418 100.957029 
L 150.090564 56.858567 
L 56.685125 80.614827 
" style="fill: none; stroke: #b0b0b0; stroke-width: 0.8"/>
   </g>
   <g id="xtick_11">
    <g id="line2d_14">
     <path d="M 202.420234 166.952601 
L 203.781901 168.147677 
" style="fill: none; stroke: #000000; stroke-width: 0.8; stroke-linecap: square"/>
    </g>
    <g id="text_14">
     <!-- $\mathdefault{0}$ -->
     <g transform="translate(217.005916 175.318359) scale(0.08 -0.08)">
      <use xlink:href="#CMR17-30" transform="scale(0.996264)"/>
     </g>
    </g>
   </g>
   <g id="xtick_12">
    <g id="line2d_15">
     <path d="M 202.777532 156.16298 
L 204.146455 157.34752 
" style="fill: none; stroke: #000000; stroke-width: 0.8; stroke-linecap: square"/>
    </g>
    <g id="text_15">
     <!-- $\mathdefault{1}$ -->
     <g transform="translate(217.447008 164.503809) scale(0.08 -0.08)">
      <use xlink:href="#CMR17-31" transform="scale(0.996264)"/>
     </g>
    </g>
   </g>
   <g id="xtick_13">
    <g id="line2d_16">
     <path d="M 203.138364 145.266623 
L 204.514621 146.440359 
" style="fill: none; stroke: #000000; stroke-width: 0.8; stroke-linecap: square"/>
    </g>
    <g id="text_16">
     <!-- $\mathdefault{2}$ -->
     <g transform="translate(217.89248 153.581888) scale(0.08 -0.08)">
      <use xlink:href="#CMR17-32" transform="scale(0.996264)"/>
     </g>
    </g>
   </g>
   <g id="xtick_14">
    <g id="line2d_17">
     <path d="M 203.502784 134.261938 
L 204.886452 135.424596 
" style="fill: none; stroke: #000000; stroke-width: 0.8; stroke-linecap: square"/>
    </g>
    <g id="text_17">
     <!-- $\mathdefault{3}$ -->
     <g transform="translate(218.342396 142.55099) scale(0.08 -0.08)">
      <use xlink:href="#CMR17-33" transform="scale(0.996264)"/>
     </g>
    </g>
   </g>
   <g id="xtick_15">
    <g id="line2d_18">
     <path d="M 203.870845 123.147301 
L 205.262005 124.298601 
" style="fill: none; stroke: #000000; stroke-width: 0.8; stroke-linecap: square"/>
    </g>
    <g id="text_18">
     <!-- $\mathdefault{4}$ -->
     <g transform="translate(218.796824 131.409474) scale(0.08 -0.08)">
      <use xlink:href="#CMR17-34" transform="scale(0.996264)"/>
     </g>
    </g>
   </g>
   <g id="xtick_16">
    <g id="line2d_19">
     <path d="M 204.242601 111.921057 
L 205.641334 113.060711 
" style="fill: none; stroke: #000000; stroke-width: 0.8; stroke-linecap: square"/>
    </g>
    <g id="text_19">
     <!-- $\mathdefault{5}$ -->
     <g transform="translate(219.255832 120.15567) scale(0.08 -0.08)">
      <use xlink:href="#CMR17-35" transform="scale(0.996264)"/>
     </g>
    </g>
   </g>
   <g id="xtick_17">
    <g id="line2d_20">
     <path d="M 204.61811 100.581516 
L 206.024498 101.709229 
" style="fill: none; stroke: #000000; stroke-width: 0.8; stroke-linecap: square"/>
    </g>
    <g id="text_20">
     <!-- $\mathdefault{6}$ -->
     <g transform="translate(219.71949 108.78787) scale(0.08 -0.08)">
      <use xlink:href="#CMR17-36" transform="scale(0.996264)"/>
     </g>
    </g>
   </g>
  </g>
  <g id="axes_1">
   <g id="Poly3DCollection_1">
    <path d="M 127.703742 130.343434 
L 147.123911 124.914988 
L 154.508992 131.453406 
L 134.971701 136.977676 
z
" clip-path="url(#p71e2b91543)" style="fill: #070448"/>
    <path d="M 127.703742 130.343434 
L 127.674453 99.596554 
L 147.360786 94.318694 
L 147.123911 124.914988 
z
" clip-path="url(#p71e2b91543)" style="fill: #0b0777"/>
    <path d="M 147.123911 124.914988 
L 147.360786 94.318694 
L 154.850003 100.675864 
L 154.508992 131.453406 
z
" clip-path="url(#p71e2b91543)" style="fill: #050338"/>
    <path d="M 107.999174 135.851377 
L 127.703742 130.343434 
L 134.971701 136.977676 
L 115.145755 142.583564 
z
" clip-path="url(#p71e2b91543)" style="fill: #2a0156"/>
    <path d="M 134.971701 136.977676 
L 154.508992 131.453406 
L 162.024533 138.107327 
L 142.369002 143.72998 
z
" clip-path="url(#p71e2b91543)" style="fill: #13034d"/>
    <path d="M 127.703742 130.343434 
L 134.971701 136.977676 
L 135.043312 106.048187 
L 127.674453 99.596554 
z
" clip-path="url(#p71e2b91543)" style="fill: #0b0777"/>
    <path d="M 107.999174 135.851377 
L 107.651136 100.401764 
L 127.67014 95.068409 
L 127.703742 130.343434 
z
" clip-path="url(#p71e2b91543)" style="fill: #45028f"/>
    <path d="M 134.971701 136.977676 
L 154.508992 131.453406 
L 154.850003 100.675864 
L 135.043312 106.048187 
z
" clip-path="url(#p71e2b91543)" style="fill: #050338"/>
    <path d="M 127.703742 130.343434 
L 127.67014 95.068409 
L 135.05386 101.492514 
L 134.971701 136.977676 
z
" clip-path="url(#p71e2b91543)" style="fill: #210143"/>
    <path d="M 134.971701 136.977676 
L 135.046243 104.782468 
L 154.863956 99.416496 
L 154.508992 131.453406 
z
" clip-path="url(#p71e2b91543)" style="fill: #200580"/>
    <path d="M 154.508992 131.453406 
L 154.863956 99.416496 
L 162.491731 105.879889 
L 162.024533 138.107327 
z
" clip-path="url(#p71e2b91543)" style="fill: #0f023c"/>
    <path d="M 127.674453 99.596554 
L 135.043312 106.048187 
L 154.850003 100.675864 
L 147.360786 94.318694 
z
" clip-path="url(#p71e2b91543)" style="fill: #0a0667"/>
    <path d="M 88.003913 141.440576 
L 107.999174 135.851377 
L 115.145755 142.583564 
L 95.024707 148.272894 
z
" clip-path="url(#p71e2b91543)" style="fill: #4c0658"/>
    <path d="M 115.145755 142.583564 
L 134.971701 136.977676 
L 142.369002 143.72998 
L 122.420465 149.436451 
z
" clip-path="url(#p71e2b91543)" style="fill: #3b005a"/>
    <path d="M 142.369002 143.72998 
L 162.024533 138.107327 
L 169.674023 144.87984 
L 149.899128 150.603529 
z
" clip-path="url(#p71e2b91543)" style="fill: #12034d"/>
    <path d="M 107.999174 135.851377 
L 115.145755 142.583564 
L 114.909555 106.922237 
L 107.651136 100.401764 
z
" clip-path="url(#p71e2b91543)" style="fill: #45028f"/>
    <path d="M 88.003913 141.440576 
L 87.224706 100.122721 
L 107.595533 94.7383 
L 107.999174 135.851377 
z
" clip-path="url(#p71e2b91543)" style="fill: #7e0b91"/>
    <path d="M 115.145755 142.583564 
L 134.971701 136.977676 
L 135.05386 101.492514 
L 114.909555 106.922237 
z
" clip-path="url(#p71e2b91543)" style="fill: #210143"/>
    <path d="M 134.971701 136.977676 
L 142.369002 143.72998 
L 142.552359 111.342824 
L 135.046243 104.782468 
z
" clip-path="url(#p71e2b91543)" style="fill: #200580"/>
    <path d="M 107.999174 135.851377 
L 107.595533 94.7383 
L 114.871813 101.224013 
L 115.145755 142.583564 
z
" clip-path="url(#p71e2b91543)" style="fill: #3b0544"/>
    <path d="M 115.145755 142.583564 
L 114.891212 104.152835 
L 135.06024 98.737144 
L 134.971701 136.977676 
z
" clip-path="url(#p71e2b91543)" style="fill: #620095"/>
    <path d="M 142.369002 143.72998 
L 142.551913 111.421577 
L 162.490595 105.958245 
L 162.024533 138.107327 
z
" clip-path="url(#p71e2b91543)" style="fill: #1e057f"/>
    <path d="M 142.369002 143.72998 
L 162.024533 138.107327 
L 162.491731 105.879889 
L 142.552359 111.342824 
z
" clip-path="url(#p71e2b91543)" style="fill: #0f023c"/>
    <path d="M 134.971701 136.977676 
L 135.06024 98.737144 
L 142.586794 105.260526 
L 142.369002 143.72998 
z
" clip-path="url(#p71e2b91543)" style="fill: #2e0046"/>
    <path d="M 162.024533 138.107327 
L 162.490595 105.958245 
L 170.256026 112.538999 
L 169.674023 144.87984 
z
" clip-path="url(#p71e2b91543)" style="fill: #0e023c"/>
    <path d="M 67.71148 147.112843 
L 88.003913 141.440576 
L 95.024707 148.272894 
L 74.60192 154.047543 
z
" clip-path="url(#p71e2b91543)" style="fill: #682144"/>
    <path d="M 107.651136 100.401764 
L 114.909555 106.922237 
L 135.05386 101.492514 
L 127.67014 95.068409 
z
" clip-path="url(#p71e2b91543)" style="fill: #3c027c"/>
    <path d="M 135.046243 104.782468 
L 142.552359 111.342824 
L 162.491731 105.879889 
L 154.863956 99.416496 
z
" clip-path="url(#p71e2b91543)" style="fill: #1b046f"/>
    <path d="M 95.024707 148.272894 
L 115.145755 142.583564 
L 122.420465 149.436451 
L 102.17232 155.228627 
z
" clip-path="url(#p71e2b91543)" style="fill: #672045"/>
    <path d="M 122.420465 149.436451 
L 142.369002 143.72998 
L 149.899128 150.603529 
L 129.826781 156.413312 
z
" clip-path="url(#p71e2b91543)" style="fill: #3d005a"/>
    <path d="M 149.899128 150.603529 
L 169.674023 144.87984 
L 177.461073 151.774143 
L 157.565688 157.601615 
z
" clip-path="url(#p71e2b91543)" style="fill: #0e034b"/>
    <path d="M 88.003913 141.440576 
L 95.024707 148.272894 
L 94.370392 106.706711 
L 87.224706 100.122721 
z
" clip-path="url(#p71e2b91543)" style="fill: #7e0b91"/>
    <path d="M 67.71148 147.112843 
L 66.372078 99.415042 
L 87.108875 93.980746 
L 88.003913 141.440576 
z
" clip-path="url(#p71e2b91543)" style="fill: #ad3770"/>
    <path d="M 95.024707 148.272894 
L 115.145755 142.583564 
L 114.871813 101.224013 
L 94.370392 106.706711 
z
" clip-path="url(#p71e2b91543)" style="fill: #3b0544"/>
    <path d="M 115.145755 142.583564 
L 122.420465 149.436451 
L 122.290881 110.775088 
L 114.891212 104.152835 
z
" clip-path="url(#p71e2b91543)" style="fill: #620095"/>
    <path d="M 142.369002 143.72998 
L 149.899128 150.603529 
L 150.194522 118.101948 
L 142.551913 111.421577 
z
" clip-path="url(#p71e2b91543)" style="fill: #1e057f"/>
    <path d="M 88.003913 141.440576 
L 87.108875 93.980746 
L 94.273108 100.526638 
L 95.024707 148.272894 
z
" clip-path="url(#p71e2b91543)" style="fill: #521a35"/>
    <path d="M 122.420465 149.436451 
L 142.369002 143.72998 
L 142.586794 105.260526 
L 122.290881 110.775088 
z
" clip-path="url(#p71e2b91543)" style="fill: #2e0046"/>
    <path d="M 149.899128 150.603529 
L 150.190691 118.523512 
L 170.248478 112.958432 
L 169.674023 144.87984 
z
" clip-path="url(#p71e2b91543)" style="fill: #18057c"/>
    <path d="M 122.420465 149.436451 
L 122.289597 110.392058 
L 142.588951 104.879447 
L 142.369002 143.72998 
z
" clip-path="url(#p71e2b91543)" style="fill: #650095"/>
    <path d="M 149.899128 150.603529 
L 169.674023 144.87984 
L 170.256026 112.538999 
L 150.194522 118.101948 
z
" clip-path="url(#p71e2b91543)" style="fill: #0e023c"/>
    <path d="M 95.024707 148.272894 
L 94.276778 100.759802 
L 114.832626 95.307606 
L 115.145755 142.583564 
z
" clip-path="url(#p71e2b91543)" style="fill: #ab3572"/>
    <path d="M 169.674023 144.87984 
L 170.248478 112.958432 
L 178.154054 119.661836 
L 177.461073 151.774143 
z
" clip-path="url(#p71e2b91543)" style="fill: #0b033b"/>
    <path d="M 142.369002 143.72998 
L 142.588951 104.879447 
L 150.254346 111.519666 
L 149.899128 150.603529 
z
" clip-path="url(#p71e2b91543)" style="fill: #300046"/>
    <path d="M 115.145755 142.583564 
L 114.832626 95.307606 
L 122.26105 101.875075 
L 122.420465 149.436451 
z
" clip-path="url(#p71e2b91543)" style="fill: #511936"/>
    <path d="M 74.60192 154.047543 
L 95.024707 148.272894 
L 102.17232 155.228627 
L 81.617766 161.108454 
z
" clip-path="url(#p71e2b91543)" style="fill: #855022"/>
    <path d="M 142.551913 111.421577 
L 150.194522 118.101948 
L 170.256026 112.538999 
L 162.490595 105.958245 
z
" clip-path="url(#p71e2b91543)" style="fill: #1a046e"/>
    <path d="M 102.17232 155.228627 
L 122.420465 149.436451 
L 129.826781 156.413312 
L 109.450219 162.311148 
z
" clip-path="url(#p71e2b91543)" style="fill: #6f293d"/>
    <path d="M 87.224706 100.122721 
L 94.370392 106.706711 
L 114.871813 101.224013 
L 107.595533 94.7383 
z
" clip-path="url(#p71e2b91543)" style="fill: #6d097e"/>
    <path d="M 114.891212 104.152835 
L 122.290881 110.775088 
L 142.586794 105.260526 
L 135.06024 98.737144 
z
" clip-path="url(#p71e2b91543)" style="fill: #550081"/>
    <path d="M 129.826781 156.413312 
L 149.899128 150.603529 
L 157.565688 157.601615 
L 137.368306 163.517543 
z
" clip-path="url(#p71e2b91543)" style="fill: #3d005a"/>
    <path d="M 157.565688 157.601615 
L 177.461073 151.774143 
L 185.389429 158.793552 
L 165.372425 164.727656 
z
" clip-path="url(#p71e2b91543)" style="fill: #0a0449"/>
    <path d="M 67.71148 147.112843 
L 74.60192 154.047543 
L 73.400126 106.061157 
L 66.372078 99.415042 
z
" clip-path="url(#p71e2b91543)" style="fill: #ad3770"/>
    <path d="M 74.60192 154.047543 
L 95.024707 148.272894 
L 94.273108 100.526638 
L 73.400126 106.061157 
z
" clip-path="url(#p71e2b91543)" style="fill: #521a35"/>
    <path d="M 149.899128 150.603529 
L 157.565688 157.601615 
L 157.972316 125.329303 
L 150.190691 118.523512 
z
" clip-path="url(#p71e2b91543)" style="fill: #18057c"/>
    <path d="M 122.420465 149.436451 
L 129.826781 156.413312 
L 129.826781 117.133862 
L 122.289597 110.392058 
z
" clip-path="url(#p71e2b91543)" style="fill: #650095"/>
    <path d="M 95.024707 148.272894 
L 102.17232 155.228627 
L 101.572516 107.427969 
L 94.276778 100.759802 
z
" clip-path="url(#p71e2b91543)" style="fill: #ab3572"/>
    <path d="M 157.565688 157.601615 
L 157.967032 125.748656 
L 178.14505 120.079064 
L 177.461073 151.774143 
z
" clip-path="url(#p71e2b91543)" style="fill: #110679"/>
    <path d="M 157.565688 157.601615 
L 177.461073 151.774143 
L 178.154054 119.661836 
L 157.972316 125.329303 
z
" clip-path="url(#p71e2b91543)" style="fill: #0b033b"/>
    <path d="M 129.826781 156.413312 
L 129.826781 117.227829 
L 150.253496 111.613152 
L 149.899128 150.603529 
z
" clip-path="url(#p71e2b91543)" style="fill: #650095"/>
    <path d="M 129.826781 156.413312 
L 149.899128 150.603529 
L 150.254346 111.519666 
L 129.826781 117.133862 
z
" clip-path="url(#p71e2b91543)" style="fill: #300046"/>
    <path d="M 102.17232 155.228627 
L 122.420465 149.436451 
L 122.26105 101.875075 
L 101.572516 107.427969 
z
" clip-path="url(#p71e2b91543)" style="fill: #511936"/>
    <path d="M 177.461073 151.774143 
L 178.14505 120.079064 
L 186.194593 126.908452 
L 185.389429 158.793552 
z
" clip-path="url(#p71e2b91543)" style="fill: #080339"/>
    <path d="M 149.899128 150.603529 
L 150.253496 111.613152 
L 158.059922 118.376409 
L 157.565688 157.601615 
z
" clip-path="url(#p71e2b91543)" style="fill: #300046"/>
    <path d="M 102.17232 155.228627 
L 101.546728 105.372868 
L 122.254198 99.830606 
L 122.420465 149.436451 
z
" clip-path="url(#p71e2b91543)" style="fill: #b84466"/>
    <path d="M 74.60192 154.047543 
L 73.144487 95.853789 
L 94.113264 90.372344 
L 95.024707 148.272894 
z
" clip-path="url(#p71e2b91543)" style="fill: #dc8538"/>
    <path d="M 122.420465 149.436451 
L 122.254198 99.830606 
L 129.826781 106.506669 
L 129.826781 156.413312 
z
" clip-path="url(#p71e2b91543)" style="fill: #572030"/>
    <path d="M 81.617766 161.108454 
L 102.17232 155.228627 
L 109.450219 162.311148 
L 88.762474 168.299054 
z
" clip-path="url(#p71e2b91543)" style="fill: #866f14"/>
    <path d="M 95.024707 148.272894 
L 94.113264 90.372344 
L 101.441354 96.97517 
L 102.17232 155.228627 
z
" clip-path="url(#p71e2b91543)" style="fill: #683f1a"/>
    <path d="M 150.190691 118.523512 
L 157.972316 125.329303 
L 178.154054 119.661836 
L 170.248478 112.958432 
z
" clip-path="url(#p71e2b91543)" style="fill: #15056c"/>
    <path d="M 109.450219 162.311148 
L 129.826781 156.413312 
L 137.368306 163.517543 
L 116.862 169.523957 
z
" clip-path="url(#p71e2b91543)" style="fill: #702a3c"/>
    <path d="M 122.289597 110.392058 
L 129.826781 117.133862 
L 150.254346 111.519666 
L 142.588951 104.879447 
z
" clip-path="url(#p71e2b91543)" style="fill: #580081"/>
    <path d="M 137.368306 163.517543 
L 157.565688 157.601615 
L 165.372425 164.727656 
L 145.048779 170.752664 
z
" clip-path="url(#p71e2b91543)" style="fill: #3a005a"/>
    <path d="M 66.372078 99.415042 
L 73.400126 106.061157 
L 94.273108 100.526638 
L 87.108875 93.980746 
z
" clip-path="url(#p71e2b91543)" style="fill: #963061"/>
    <path d="M 165.372425 164.727656 
L 185.389429 158.793552 
L 193.462972 165.941503 
L 173.323218 171.985192 
z
" clip-path="url(#p71e2b91543)" style="fill: #070448"/>
    <path d="M 94.276778 100.759802 
L 101.572516 107.427969 
L 122.26105 101.875075 
L 114.832626 95.307606 
z
" clip-path="url(#p71e2b91543)" style="fill: #952e63"/>
    <path d="M 157.565688 157.601615 
L 165.372425 164.727656 
L 165.891492 132.683303 
L 157.967032 125.748656 
z
" clip-path="url(#p71e2b91543)" style="fill: #110679"/>
    <path d="M 129.826781 156.413312 
L 137.368306 163.517543 
L 137.503715 124.095509 
L 129.826781 117.227829 
z
" clip-path="url(#p71e2b91543)" style="fill: #650095"/>
    <path d="M 165.372425 164.727656 
L 165.88553 133.051387 
L 186.185345 127.274667 
L 185.389429 158.793552 
z
" clip-path="url(#p71e2b91543)" style="fill: #0b0777"/>
    <path d="M 165.372425 164.727656 
L 185.389429 158.793552 
L 186.194593 126.908452 
L 165.891492 132.683303 
z
" clip-path="url(#p71e2b91543)" style="fill: #080339"/>
    <path d="M 137.368306 163.517543 
L 137.502276 124.514256 
L 158.054673 118.79301 
L 157.565688 157.601615 
z
" clip-path="url(#p71e2b91543)" style="fill: #610095"/>
    <path d="M 137.368306 163.517543 
L 157.565688 157.601615 
L 158.059922 118.376409 
L 137.503715 124.095509 
z
" clip-path="url(#p71e2b91543)" style="fill: #300046"/>
    <path d="M 102.17232 155.228627 
L 109.450219 162.311148 
L 108.984969 112.152342 
L 101.546728 105.372868 
z
" clip-path="url(#p71e2b91543)" style="fill: #b84466"/>
    <path d="M 74.60192 154.047543 
L 81.617766 161.108454 
L 80.333602 102.559114 
L 73.144487 95.853789 
z
" clip-path="url(#p71e2b91543)" style="fill: #dc8538"/>
    <path d="M 185.389429 158.793552 
L 186.185345 127.274667 
L 194.383006 134.233196 
L 193.462972 165.941503 
z
" clip-path="url(#p71e2b91543)" style="fill: #050338"/>
    <path d="M 157.565688 157.601615 
L 158.054673 118.79301 
L 166.004858 125.684734 
L 165.372425 164.727656 
z
" clip-path="url(#p71e2b91543)" style="fill: #2e0046"/>
    <path d="M 109.450219 162.311148 
L 129.826781 156.413312 
L 129.826781 106.506669 
L 108.984969 112.152342 
z
" clip-path="url(#p71e2b91543)" style="fill: #572030"/>
    <path d="M 109.450219 162.311148 
L 108.98298 111.937955 
L 129.826781 106.293396 
L 129.826781 156.413312 
z
" clip-path="url(#p71e2b91543)" style="fill: #b94664"/>
    <path d="M 81.617766 161.108454 
L 102.17232 155.228627 
L 101.441354 96.97517 
L 80.333602 102.559114 
z
" clip-path="url(#p71e2b91543)" style="fill: #683f1a"/>
    <path d="M 129.826781 156.413312 
L 129.826781 106.293396 
L 137.541507 113.092782 
L 137.368306 163.517543 
z
" clip-path="url(#p71e2b91543)" style="fill: #57212f"/>
    <path d="M 88.762474 168.299054 
L 109.450219 162.311148 
L 116.862 169.523957 
L 96.039626 175.622949 
z
" clip-path="url(#p71e2b91543)" style="fill: #818015"/>
    <path d="M 81.617766 161.108454 
L 80.21566 97.18174 
L 101.374234 91.626138 
L 102.17232 155.228627 
z
" clip-path="url(#p71e2b91543)" style="fill: #deb821"/>
    <path d="M 157.967032 125.748656 
L 165.891492 132.683303 
L 186.194593 126.908452 
L 178.14505 120.079064 
z
" clip-path="url(#p71e2b91543)" style="fill: #0f0569"/>
    <path d="M 102.17232 155.228627 
L 101.374234 91.626138 
L 108.856652 98.318415 
L 109.450219 162.311148 
z
" clip-path="url(#p71e2b91543)" style="fill: #69570f"/>
    <path d="M 116.862 169.523957 
L 137.368306 163.517543 
L 145.048779 170.752664 
L 124.411391 176.870682 
z
" clip-path="url(#p71e2b91543)" style="fill: #6f293e"/>
    <path d="M 129.826781 117.227829 
L 137.503715 124.095509 
L 158.059922 118.376409 
L 150.253496 111.613152 
z
" clip-path="url(#p71e2b91543)" style="fill: #580081"/>
    <path d="M 145.048779 170.752664 
L 165.372425 164.727656 
L 173.323218 171.985192 
L 152.872073 178.122326 
z
" clip-path="url(#p71e2b91543)" style="fill: #370059"/>
    <path d="M 101.546728 105.372868 
L 108.984969 112.152342 
L 129.826781 106.506669 
L 122.254198 99.830606 
z
" clip-path="url(#p71e2b91543)" style="fill: #a03b58"/>
    <path d="M 165.372425 164.727656 
L 173.323218 171.985192 
L 173.956971 140.118151 
L 165.88553 133.051387 
z
" clip-path="url(#p71e2b91543)" style="fill: #0b0777"/>
    <path d="M 137.368306 163.517543 
L 145.048779 170.752664 
L 145.321722 131.513364 
L 137.502276 124.514256 
z
" clip-path="url(#p71e2b91543)" style="fill: #610095"/>
    <path d="M 173.323218 171.985192 
L 193.462972 165.941503 
L 194.383006 134.233196 
L 173.956971 140.118151 
z
" clip-path="url(#p71e2b91543)" style="fill: #050338"/>
    <path d="M 145.048779 170.752664 
L 145.318536 131.971508 
L 165.997475 126.140525 
L 165.372425 164.727656 
z
" clip-path="url(#p71e2b91543)" style="fill: #5b0094"/>
    <path d="M 145.048779 170.752664 
L 165.372425 164.727656 
L 166.004858 125.684734 
L 145.321722 131.513364 
z
" clip-path="url(#p71e2b91543)" style="fill: #2e0046"/>
    <path d="M 109.450219 162.311148 
L 116.862 169.523957 
L 116.561917 118.843664 
L 108.98298 111.937955 
z
" clip-path="url(#p71e2b91543)" style="fill: #b94664"/>
    <path d="M 73.144487 95.853789 
L 80.333602 102.559114 
L 101.441354 96.97517 
L 94.113264 90.372344 
z
" clip-path="url(#p71e2b91543)" style="fill: #bf7431"/>
    <path d="M 165.372425 164.727656 
L 165.997475 126.140525 
L 174.095261 133.164539 
L 173.323218 171.985192 
z
" clip-path="url(#p71e2b91543)" style="fill: #2b0046"/>
    <path d="M 116.862 169.523957 
L 116.564437 119.26917 
L 137.540053 113.51607 
L 137.368306 163.517543 
z
" clip-path="url(#p71e2b91543)" style="fill: #b74367"/>
    <path d="M 116.862 169.523957 
L 137.368306 163.517543 
L 137.541507 113.092782 
L 116.561917 118.843664 
z
" clip-path="url(#p71e2b91543)" style="fill: #57212f"/>
    <path d="M 137.368306 163.517543 
L 137.540053 113.51607 
L 145.398704 120.446305 
L 145.048779 170.752664 
z
" clip-path="url(#p71e2b91543)" style="fill: #562030"/>
    <path d="M 81.617766 161.108454 
L 88.762474 168.299054 
L 87.556873 103.979136 
L 80.21566 97.18174 
z
" clip-path="url(#p71e2b91543)" style="fill: #deb821"/>
    <path d="M 96.039626 175.622949 
L 116.862 169.523957 
L 124.411391 176.870682 
L 103.452939 183.083881 
z
" clip-path="url(#p71e2b91543)" style="fill: #808512"/>
    <path d="M 165.88553 133.051387 
L 173.956971 140.118151 
L 194.383006 134.233196 
L 186.185345 127.274667 
z
" clip-path="url(#p71e2b91543)" style="fill: #0a0667"/>
    <path d="M 88.762474 168.299054 
L 109.450219 162.311148 
L 108.856652 98.318415 
L 87.556873 103.979136 
z
" clip-path="url(#p71e2b91543)" style="fill: #69570f"/>
    <path d="M 88.762474 168.299054 
L 87.50741 101.340208 
L 108.832305 95.693519 
L 109.450219 162.311148 
z
" clip-path="url(#p71e2b91543)" style="fill: #d6d422"/>
    <path d="M 124.411391 176.870682 
L 145.048779 170.752664 
L 152.872073 178.122326 
L 132.10226 184.355088 
z
" clip-path="url(#p71e2b91543)" style="fill: #6b2441"/>
    <path d="M 109.450219 162.311148 
L 108.832305 95.693519 
L 116.465119 102.495634 
L 116.862 169.523957 
z
" clip-path="url(#p71e2b91543)" style="fill: #656410"/>
    <path d="M 137.502276 124.514256 
L 145.321722 131.513364 
L 166.004858 125.684734 
L 158.054673 118.79301 
z
" clip-path="url(#p71e2b91543)" style="fill: #540081"/>
    <path d="M 108.98298 111.937955 
L 116.561917 118.843664 
L 137.541507 113.092782 
L 129.826781 106.293396 
z
" clip-path="url(#p71e2b91543)" style="fill: #a13d57"/>
    <path d="M 145.048779 170.752664 
L 152.872073 178.122326 
L 153.284336 139.10598 
L 145.318536 131.971508 
z
" clip-path="url(#p71e2b91543)" style="fill: #5b0094"/>
    <path d="M 152.872073 178.122326 
L 173.323218 171.985192 
L 174.095261 133.164539 
L 153.284336 139.10598 
z
" clip-path="url(#p71e2b91543)" style="fill: #2b0046"/>
    <path d="M 116.862 169.523957 
L 124.411391 176.870682 
L 124.285918 126.308782 
L 116.564437 119.26917 
z
" clip-path="url(#p71e2b91543)" style="fill: #b74367"/>
    <path d="M 124.411391 176.870682 
L 124.288234 127.24219 
L 145.392245 121.374834 
L 145.048779 170.752664 
z
" clip-path="url(#p71e2b91543)" style="fill: #b13c6c"/>
    <path d="M 124.411391 176.870682 
L 145.048779 170.752664 
L 145.398704 120.446305 
L 124.285918 126.308782 
z
" clip-path="url(#p71e2b91543)" style="fill: #562030"/>
    <path d="M 145.048779 170.752664 
L 145.392245 121.374834 
L 153.397007 128.442804 
L 152.872073 178.122326 
z
" clip-path="url(#p71e2b91543)" style="fill: #541c33"/>
    <path d="M 103.452939 183.083881 
L 124.411391 176.870682 
L 132.10226 184.355088 
L 111.006272 190.685731 
z
" clip-path="url(#p71e2b91543)" style="fill: #818214"/>
    <path d="M 88.762474 168.299054 
L 96.039626 175.622949 
L 94.997109 108.250314 
L 87.50741 101.340208 
z
" clip-path="url(#p71e2b91543)" style="fill: #d6d422"/>
    <path d="M 80.21566 97.18174 
L 87.556873 103.979136 
L 108.856652 98.318415 
L 101.374234 91.626138 
z
" clip-path="url(#p71e2b91543)" style="fill: #c1a01c"/>
    <path d="M 96.039626 175.622949 
L 116.862 169.523957 
L 116.465119 102.495634 
L 94.997109 108.250314 
z
" clip-path="url(#p71e2b91543)" style="fill: #656410"/>
    <path d="M 96.039626 175.622949 
L 94.984383 107.427889 
L 116.460275 101.677607 
L 116.862 169.523957 
z
" clip-path="url(#p71e2b91543)" style="fill: #d4dc1e"/>
    <path d="M 145.318536 131.971508 
L 153.284336 139.10598 
L 174.095261 133.164539 
L 165.997475 126.140525 
z
" clip-path="url(#p71e2b91543)" style="fill: #4f0080"/>
    <path d="M 116.862 169.523957 
L 116.460275 101.677607 
L 124.241984 108.604621 
L 124.411391 176.870682 
z
" clip-path="url(#p71e2b91543)" style="fill: #64680e"/>
    <path d="M 116.564437 119.26917 
L 124.285918 126.308782 
L 145.398704 120.446305 
L 137.540053 113.51607 
z
" clip-path="url(#p71e2b91543)" style="fill: #9f3a59"/>
    <path d="M 124.411391 176.870682 
L 132.10226 184.355088 
L 132.154505 134.422731 
L 124.288234 127.24219 
z
" clip-path="url(#p71e2b91543)" style="fill: #b13c6c"/>
    <path d="M 132.10226 184.355088 
L 152.872073 178.122326 
L 153.397007 128.442804 
L 132.154505 134.422731 
z
" clip-path="url(#p71e2b91543)" style="fill: #541c33"/>
    <path d="M 96.039626 175.622949 
L 103.452939 183.083881 
L 102.62128 114.465978 
L 94.984383 107.427889 
z
" clip-path="url(#p71e2b91543)" style="fill: #d4dc1e"/>
    <path d="M 103.452939 183.083881 
L 102.628279 115.043454 
L 124.243409 109.178997 
L 124.411391 176.870682 
z
" clip-path="url(#p71e2b91543)" style="fill: #d5d722"/>
    <path d="M 103.452939 183.083881 
L 124.411391 176.870682 
L 124.241984 108.604621 
L 102.62128 114.465978 
z
" clip-path="url(#p71e2b91543)" style="fill: #64680e"/>
    <path d="M 124.411391 176.870682 
L 124.243409 109.178997 
L 132.173526 116.243657 
L 132.10226 184.355088 
z
" clip-path="url(#p71e2b91543)" style="fill: #656510"/>
    <path d="M 87.50741 101.340208 
L 94.997109 108.250314 
L 116.465119 102.495634 
L 108.832305 95.693519 
z
" clip-path="url(#p71e2b91543)" style="fill: #bab81e"/>
    <path d="M 124.288234 127.24219 
L 132.154505 134.422731 
L 153.397007 128.442804 
L 145.392245 121.374834 
z
" clip-path="url(#p71e2b91543)" style="fill: #9a345e"/>
    <path d="M 103.452939 183.083881 
L 111.006272 190.685731 
L 110.412057 122.222469 
L 102.628279 115.043454 
z
" clip-path="url(#p71e2b91543)" style="fill: #d5d722"/>
    <path d="M 111.006272 190.685731 
L 132.10226 184.355088 
L 132.173526 116.243657 
L 110.412057 122.222469 
z
" clip-path="url(#p71e2b91543)" style="fill: #656510"/>
    <path d="M 94.984383 107.427889 
L 102.62128 114.465978 
L 124.241984 108.604621 
L 116.460275 101.677607 
z
" clip-path="url(#p71e2b91543)" style="fill: #b8bf1a"/>
    <path d="M 102.628279 115.043454 
L 110.412057 122.222469 
L 132.173526 116.243657 
L 124.243409 109.178997 
z
" clip-path="url(#p71e2b91543)" style="fill: #b9bb1d"/>
   </g>
  </g>
 </g>
 <defs>
  <clipPath id="p71e2b91543">
   <rect x="7.2" y="7.2" width="238.79952" height="238.79952"/>
  </clipPath>
 </defs>
</svg>
