<?xml version="1.0" encoding="utf-8" standalone="no"?>
<!DOCTYPE svg PUBLIC "-//W3C//DTD SVG 1.1//EN"
  "http://www.w3.org/Graphics/SVG/1.1/DTD/svg11.dtd">
<svg xmlns:xlink="http://www.w3.org/1999/xlink" width="253.19952pt" height="253.19952pt" viewBox="0 0 253.19952 253.19952" xmlns="http://www.w3.org/2000/svg" version="1.1">
 <metadata>
  <rdf:RDF xmlns:dc="http://purl.org/dc/elements/1.1/" xmlns:cc="http://creativecommons.org/ns#" xmlns:rdf="http://www.w3.org/1999/02/22-rdf-syntax-ns#">
   <cc:Work>
    <dc:type rdf:resource="http://purl.org/dc/dcmitype/StillImage"/>
    <dc:date>1980-01-01T00:00:00+00:00</dc:date>
    <dc:format>image/svg+xml</dc:format>
    <dc:creator>
     <cc:Agent>
      <dc:title>Matplotlib v3.6.2, https://matplotlib.org/</dc:title>
     </cc:Agent>
    </dc:creator>
   </cc:Work>
  </rdf:RDF>
 </metadata>
 <defs>
  <style type="text/css">*{stroke-linejoin: round; stroke-linecap: butt}</style>
 </defs>
 <g id="figure_1">
  <g id="patch_1">
   <path d="M 0 253.19952 
L 253.19952 253.19952 
L 253.19952 0 
L 0 0 
z
" style="fill: #ffffff"/>
  </g>
  <g id="patch_2">
   <path d="M 7.2 245.99952 
L 245.99952 245.99952 
L 245.99952 7.2 
L 7.2 7.2 
z
" style="fill: #ffffff"/>
  </g>
  <g id="pane3d_1">
   <g id="patch_3">
    <path d="M 99.554829 123.811501 
L 60.47952 174.683644 
L 58.228706 103.78316 
L 98.636941 56.033847 
" style="fill: #f2f2f2; opacity: 0.5; stroke: #f2f2f2; stroke-width: 0.24; stroke-linejoin: miter"/>
   </g>
  </g>
  <g id="pane3d_2">
   <g id="patch_4">
    <path d="M 196.290123 141.557432 
L 99.554829 123.811501 
L 98.636941 56.033847 
L 198.354835 72.667976 
" style="fill: #e6e6e6; opacity: 0.5; stroke: #e6e6e6; stroke-width: 0.24; stroke-linejoin: miter"/>
   </g>
  </g>
  <g id="pane3d_3">
   <g id="patch_5">
    <path d="M 196.290123 141.557432 
L 99.554829 123.811501 
L 60.47952 174.683644 
L 162.98734 194.966417 
" style="fill: #ececec; opacity: 0.5; stroke: #ececec; stroke-width: 0.24; stroke-linejoin: miter"/>
   </g>
  </g>
  <g id="axis3d_1">
   <g id="line2d_1">
    <path d="M 60.47952 174.683644 
L 162.98734 194.966417 
" style="fill: none; stroke: #000000; stroke-width: 0.8; stroke-linecap: square"/>
   </g>
   <g id="text_1">
    <!-- $\delta$ -->
    <g transform="translate(98.830108 218.142243) rotate(-348.807703) scale(0.1 -0.1)">
     <defs>
      <path id="CMMI12-e" d="M 1664 2795 
C 845 2597 256 1748 256 1001 
C 256 319 717 -64 1229 -64 
C 1984 -64 2496 970 2496 1818 
C 2496 2392 2227 2744 2067 2954 
C 1830 3254 1446 3746 1446 4052 
C 1446 4161 1530 4352 1811 4352 
C 2010 4352 2131 4282 2323 4173 
C 2381 4134 2528 4052 2611 4052 
C 2746 4052 2842 4185 2842 4287 
C 2842 4409 2746 4428 2522 4479 
C 2221 4543 2131 4543 2022 4543 
C 1914 4543 1286 4543 1286 3892 
C 1286 3579 1446 3216 1664 2795 
z
M 1734 2669 
C 1978 2165 2074 1974 2074 1560 
C 2074 1063 1805 63 1235 63 
C 986 63 627 229 627 821 
C 627 1235 864 2439 1734 2669 
z
" transform="scale(0.015625)"/>
     </defs>
     <use xlink:href="#CMMI12-e" transform="scale(0.996264)"/>
    </g>
   </g>
   <g id="Line3DCollection_1">
    <path d="M 148.70267 192.139972 
L 182.828707 139.087957 
L 184.469743 70.351778 
" style="fill: none; stroke: #b0b0b0; stroke-width: 0.8"/>
    <path d="M 133.57425 189.146578 
L 168.565522 136.471399 
L 169.760693 67.898133 
" style="fill: none; stroke: #b0b0b0; stroke-width: 0.8"/>
    <path d="M 118.556685 186.175119 
L 154.400089 133.872774 
L 155.155549 65.461822 
" style="fill: none; stroke: #b0b0b0; stroke-width: 0.8"/>
    <path d="M 103.648764 183.225353 
L 140.331405 131.291897 
L 140.653213 63.04266 
" style="fill: none; stroke: #b0b0b0; stroke-width: 0.8"/>
    <path d="M 88.849288 180.297046 
L 126.358483 128.728588 
L 126.252605 60.640468 
" style="fill: none; stroke: #b0b0b0; stroke-width: 0.8"/>
    <path d="M 74.157079 177.389963 
L 112.480349 126.182667 
L 111.952657 58.255067 
" style="fill: none; stroke: #b0b0b0; stroke-width: 0.8"/>
   </g>
   <g id="xtick_1">
    <g id="line2d_2">
     <path d="M 148.994549 191.68622 
L 148.117935 193.048997 
" style="fill: none; stroke: #000000; stroke-width: 0.8; stroke-linecap: square"/>
    </g>
    <g id="text_2">
     <!-- $\mathdefault{0.2}$ -->
     <g transform="translate(139.217536 211.549582) scale(0.08 -0.08)">
      <defs>
       <path id="CMR17-30" d="M 2688 2025 
C 2688 2416 2682 3080 2413 3591 
C 2176 4039 1798 4198 1466 4198 
C 1158 4198 768 4058 525 3597 
C 269 3118 243 2524 243 2025 
C 243 1661 250 1106 448 619 
C 723 -39 1216 -128 1466 -128 
C 1760 -128 2208 -7 2470 600 
C 2662 1042 2688 1559 2688 2025 
z
M 1466 -26 
C 1056 -26 813 325 723 812 
C 653 1188 653 1738 653 2096 
C 653 2588 653 2997 736 3387 
C 858 3929 1216 4096 1466 4096 
C 1728 4096 2067 3923 2189 3400 
C 2272 3036 2278 2607 2278 2096 
C 2278 1680 2278 1169 2202 792 
C 2067 95 1690 -26 1466 -26 
z
" transform="scale(0.015625)"/>
       <path id="CMMI12-3a" d="M 1178 307 
C 1178 492 1024 619 870 619 
C 685 619 557 466 557 313 
C 557 128 710 0 864 0 
C 1050 0 1178 153 1178 307 
z
" transform="scale(0.015625)"/>
       <path id="CMR17-32" d="M 2669 989 
L 2554 989 
C 2490 536 2438 459 2413 420 
C 2381 369 1920 369 1830 369 
L 602 369 
C 832 619 1280 1072 1824 1597 
C 2214 1967 2669 2402 2669 3035 
C 2669 3790 2067 4224 1395 4224 
C 691 4224 262 3604 262 3030 
C 262 2780 448 2748 525 2748 
C 589 2748 781 2787 781 3010 
C 781 3207 614 3264 525 3264 
C 486 3264 448 3258 422 3245 
C 544 3790 915 4058 1306 4058 
C 1862 4058 2227 3617 2227 3035 
C 2227 2479 1901 2000 1536 1584 
L 262 146 
L 262 0 
L 2515 0 
L 2669 989 
z
" transform="scale(0.015625)"/>
      </defs>
      <use xlink:href="#CMR17-30" transform="scale(0.996264)"/>
      <use xlink:href="#CMMI12-3a" transform="translate(45.690477 0) scale(0.996264)"/>
      <use xlink:href="#CMR17-32" transform="translate(72.787654 0) scale(0.996264)"/>
     </g>
    </g>
   </g>
   <g id="xtick_2">
    <g id="line2d_3">
     <path d="M 133.873458 188.696156 
L 132.974835 190.048925 
" style="fill: none; stroke: #000000; stroke-width: 0.8; stroke-linecap: square"/>
    </g>
    <g id="text_3">
     <!-- $\mathdefault{0.3}$ -->
     <g transform="translate(124.04195 208.492647) scale(0.08 -0.08)">
      <defs>
       <path id="CMR17-33" d="M 1414 2157 
C 1984 2157 2234 1662 2234 1090 
C 2234 320 1824 25 1453 25 
C 1114 25 563 194 390 693 
C 422 680 454 680 486 680 
C 640 680 755 782 755 948 
C 755 1133 614 1216 486 1216 
C 378 1216 211 1165 211 926 
C 211 335 787 -128 1466 -128 
C 2176 -128 2720 430 2720 1085 
C 2720 1707 2208 2157 1600 2227 
C 2086 2328 2554 2756 2554 3329 
C 2554 3820 2048 4179 1472 4179 
C 890 4179 378 3829 378 3329 
C 378 3110 544 3072 627 3072 
C 762 3072 877 3155 877 3321 
C 877 3486 762 3569 627 3569 
C 602 3569 570 3569 544 3557 
C 730 3959 1235 4032 1459 4032 
C 1683 4032 2106 3925 2106 3320 
C 2106 3143 2080 2828 1862 2550 
C 1670 2304 1453 2304 1242 2284 
C 1210 2284 1062 2269 1037 2269 
C 992 2263 966 2257 966 2208 
C 966 2163 973 2157 1101 2157 
L 1414 2157 
z
" transform="scale(0.015625)"/>
      </defs>
      <use xlink:href="#CMR17-30" transform="scale(0.996264)"/>
      <use xlink:href="#CMMI12-3a" transform="translate(45.690477 0) scale(0.996264)"/>
      <use xlink:href="#CMR17-33" transform="translate(72.787654 0) scale(0.996264)"/>
     </g>
    </g>
   </g>
   <g id="xtick_3">
    <g id="line2d_4">
     <path d="M 118.863108 185.72799 
L 117.942822 187.070862 
" style="fill: none; stroke: #000000; stroke-width: 0.8; stroke-linecap: square"/>
    </g>
    <g id="text_4">
     <!-- $\mathdefault{0.4}$ -->
     <g transform="translate(108.978022 205.458203) scale(0.08 -0.08)">
      <defs>
       <path id="CMR17-34" d="M 2150 4122 
C 2150 4256 2144 4256 2029 4256 
L 128 1254 
L 128 1088 
L 1779 1088 
L 1779 457 
C 1779 224 1766 160 1318 160 
L 1197 160 
L 1197 0 
C 1402 0 1747 0 1965 0 
C 2182 0 2528 0 2733 0 
L 2733 160 
L 2611 160 
C 2163 160 2150 224 2150 457 
L 2150 1088 
L 2803 1088 
L 2803 1254 
L 2150 1254 
L 2150 4122 
z
M 1798 3703 
L 1798 1254 
L 256 1254 
L 1798 3703 
z
" transform="scale(0.015625)"/>
      </defs>
      <use xlink:href="#CMR17-30" transform="scale(0.996264)"/>
      <use xlink:href="#CMMI12-3a" transform="translate(45.690477 0) scale(0.996264)"/>
      <use xlink:href="#CMR17-34" transform="translate(72.787654 0) scale(0.996264)"/>
     </g>
    </g>
   </g>
   <g id="xtick_4">
    <g id="line2d_5">
     <path d="M 103.962287 182.781483 
L 103.020678 184.114566 
" style="fill: none; stroke: #000000; stroke-width: 0.8; stroke-linecap: square"/>
    </g>
    <g id="text_5">
     <!-- $\mathdefault{0.5}$ -->
     <g transform="translate(94.024523 202.446004) scale(0.08 -0.08)">
      <defs>
       <path id="CMR17-35" d="M 730 3692 
C 794 3666 1056 3584 1325 3584 
C 1920 3584 2246 3911 2432 4100 
C 2432 4157 2432 4192 2394 4192 
C 2387 4192 2374 4192 2323 4163 
C 2099 4058 1837 3973 1517 3973 
C 1325 3973 1037 3999 723 4139 
C 653 4171 640 4171 634 4171 
C 602 4171 595 4164 595 4037 
L 595 2203 
C 595 2089 595 2057 659 2057 
C 691 2057 704 2070 736 2114 
C 941 2401 1222 2522 1542 2522 
C 1766 2522 2246 2382 2246 1289 
C 2246 1085 2246 715 2054 421 
C 1894 159 1645 25 1370 25 
C 947 25 518 320 403 814 
C 429 807 480 795 506 795 
C 589 795 749 840 749 1038 
C 749 1210 627 1280 506 1280 
C 358 1280 262 1190 262 1011 
C 262 454 704 -128 1382 -128 
C 2042 -128 2669 440 2669 1264 
C 2669 2030 2170 2624 1549 2624 
C 1222 2624 947 2503 730 2274 
L 730 3692 
z
" transform="scale(0.015625)"/>
      </defs>
      <use xlink:href="#CMR17-30" transform="scale(0.996264)"/>
      <use xlink:href="#CMMI12-3a" transform="translate(45.690477 0) scale(0.996264)"/>
      <use xlink:href="#CMR17-35" transform="translate(72.787654 0) scale(0.996264)"/>
     </g>
    </g>
   </g>
   <g id="xtick_5">
    <g id="line2d_6">
     <path d="M 89.169801 179.856397 
L 88.207203 181.179798 
" style="fill: none; stroke: #000000; stroke-width: 0.8; stroke-linecap: square"/>
    </g>
    <g id="text_6">
     <!-- $\mathdefault{0.6}$ -->
     <g transform="translate(79.180245 199.455807) scale(0.08 -0.08)">
      <defs>
       <path id="CMR17-36" d="M 678 2176 
C 678 3690 1395 4032 1811 4032 
C 1946 4032 2272 4009 2400 3776 
C 2298 3776 2106 3776 2106 3553 
C 2106 3381 2246 3323 2336 3323 
C 2394 3323 2566 3348 2566 3560 
C 2566 3954 2246 4179 1805 4179 
C 1043 4179 243 3390 243 1984 
C 243 253 966 -128 1478 -128 
C 2099 -128 2688 427 2688 1283 
C 2688 2081 2170 2662 1517 2662 
C 1126 2662 838 2407 678 1960 
L 678 2176 
z
M 1478 25 
C 691 25 691 1200 691 1436 
C 691 1896 909 2560 1504 2560 
C 1613 2560 1926 2560 2138 2120 
C 2253 1870 2253 1609 2253 1289 
C 2253 944 2253 690 2118 434 
C 1978 171 1773 25 1478 25 
z
" transform="scale(0.015625)"/>
      </defs>
      <use xlink:href="#CMR17-30" transform="scale(0.996264)"/>
      <use xlink:href="#CMMI12-3a" transform="translate(45.690477 0) scale(0.996264)"/>
      <use xlink:href="#CMR17-36" transform="translate(72.787654 0) scale(0.996264)"/>
     </g>
    </g>
   </g>
   <g id="xtick_6">
    <g id="line2d_7">
     <path d="M 74.484473 176.952502 
L 73.501214 178.266325 
" style="fill: none; stroke: #000000; stroke-width: 0.8; stroke-linecap: square"/>
    </g>
    <g id="text_7">
     <!-- $\mathdefault{0.7}$ -->
     <g transform="translate(64.443994 196.48737) scale(0.08 -0.08)">
      <defs>
       <path id="CMR17-37" d="M 2886 3941 
L 2886 4081 
L 1382 4081 
C 634 4081 621 4165 595 4288 
L 480 4288 
L 294 3094 
L 410 3094 
C 429 3215 474 3540 550 3661 
C 589 3712 1062 3712 1171 3712 
L 2579 3712 
L 1869 2661 
C 1395 1954 1069 999 1069 165 
C 1069 89 1069 -128 1299 -128 
C 1530 -128 1530 89 1530 171 
L 1530 465 
C 1530 1508 1709 2196 2003 2636 
L 2886 3941 
z
" transform="scale(0.015625)"/>
      </defs>
      <use xlink:href="#CMR17-30" transform="scale(0.996264)"/>
      <use xlink:href="#CMMI12-3a" transform="translate(45.690477 0) scale(0.996264)"/>
      <use xlink:href="#CMR17-37" transform="translate(72.787654 0) scale(0.996264)"/>
     </g>
    </g>
   </g>
  </g>
  <g id="axis3d_2">
   <g id="line2d_8">
    <path d="M 196.290123 141.557432 
L 162.98734 194.966417 
" style="fill: none; stroke: #000000; stroke-width: 0.8; stroke-linecap: square"/>
   </g>
   <g id="text_8">
    <!-- $\Theta$ -->
    <g transform="translate(200.423384 189.56691) rotate(-58.054699) scale(0.1 -0.1)">
     <defs>
      <path id="CMR17-2" d="M 4307 2153 
C 4307 3467 3366 4455 2304 4455 
C 1216 4455 294 3454 294 2153 
C 294 852 1229 -128 2298 -128 
C 3392 -128 4307 872 4307 2153 
z
M 2304 -20 
C 1574 -20 762 673 762 2153 
C 762 3679 1600 4352 2298 4352 
C 3021 4352 3840 3660 3840 2153 
C 3840 653 3008 -20 2304 -20 
z
M 3501 2560 
L 3386 2560 
L 3386 2342 
L 1216 2342 
L 1216 2560 
L 1101 2560 
L 1101 1766 
L 1216 1766 
L 1216 1984 
L 3386 1984 
L 3386 1766 
L 3501 1766 
L 3501 2560 
z
" transform="scale(0.015625)"/>
     </defs>
     <use xlink:href="#CMR17-2" transform="scale(0.996264)"/>
    </g>
   </g>
   <g id="Line3DCollection_2">
    <path d="M 92.041644 63.827331 
L 93.166029 132.12908 
L 190.852526 150.277921 
" style="fill: none; stroke: #b0b0b0; stroke-width: 0.8"/>
    <path d="M 83.490795 73.931637 
L 84.889335 142.904507 
L 183.803821 161.582207 
" style="fill: none; stroke: #b0b0b0; stroke-width: 0.8"/>
    <path d="M 74.684171 84.338185 
L 76.372648 153.992381 
L 176.545664 173.222399 
" style="fill: none; stroke: #b0b0b0; stroke-width: 0.8"/>
    <path d="M 65.610123 95.060741 
L 67.605376 165.406492 
L 169.068579 185.213695 
" style="fill: none; stroke: #b0b0b0; stroke-width: 0.8"/>
   </g>
   <g id="xtick_7">
    <g id="line2d_9">
     <path d="M 190.052377 150.129264 
L 192.453747 150.575406 
" style="fill: none; stroke: #000000; stroke-width: 0.8; stroke-linecap: square"/>
    </g>
    <g id="text_9">
     <!-- $\mathdefault{35}$ -->
     <g transform="translate(197.34631 165.198724) scale(0.08 -0.08)">
      <use xlink:href="#CMR17-33" transform="scale(0.996264)"/>
      <use xlink:href="#CMR17-35" transform="translate(45.690477 0) scale(0.996264)"/>
     </g>
    </g>
   </g>
   <g id="xtick_8">
    <g id="line2d_10">
     <path d="M 182.993337 161.429166 
L 185.425738 161.888468 
" style="fill: none; stroke: #000000; stroke-width: 0.8; stroke-linecap: square"/>
    </g>
    <g id="text_10">
     <!-- $\mathdefault{50}$ -->
     <g transform="translate(190.459555 176.632298) scale(0.08 -0.08)">
      <use xlink:href="#CMR17-35" transform="scale(0.996264)"/>
      <use xlink:href="#CMR17-30" transform="translate(45.690477 0) scale(0.996264)"/>
     </g>
    </g>
   </g>
   <g id="xtick_9">
    <g id="line2d_11">
     <path d="M 175.72458 173.064777 
L 178.188809 173.53783 
" style="fill: none; stroke: #000000; stroke-width: 0.8; stroke-linecap: square"/>
    </g>
    <g id="text_11">
     <!-- $\mathdefault{65}$ -->
     <g transform="translate(183.368308 188.405374) scale(0.08 -0.08)">
      <use xlink:href="#CMR17-36" transform="scale(0.996264)"/>
      <use xlink:href="#CMR17-35" transform="translate(45.690477 0) scale(0.996264)"/>
     </g>
    </g>
   </g>
   <g id="xtick_10">
    <g id="line2d_12">
     <path d="M 168.236619 185.051283 
L 170.733504 185.538714 
" style="fill: none; stroke: #000000; stroke-width: 0.8; stroke-linecap: square"/>
    </g>
    <g id="text_12">
     <!-- $\mathdefault{80}$ -->
     <g transform="translate(176.063323 200.533302) scale(0.08 -0.08)">
      <defs>
       <path id="CMR17-38" d="M 1741 2264 
C 2144 2467 2554 2773 2554 3263 
C 2554 3841 1990 4179 1472 4179 
C 890 4179 378 3759 378 3180 
C 378 3021 416 2747 666 2505 
C 730 2442 998 2251 1171 2130 
C 883 1983 211 1634 211 934 
C 211 279 838 -128 1459 -128 
C 2144 -128 2720 362 2720 1010 
C 2720 1590 2330 1857 2074 2029 
L 1741 2264 
z
M 902 2822 
C 851 2854 595 3051 595 3351 
C 595 3739 998 4032 1459 4032 
C 1965 4032 2336 3676 2336 3262 
C 2336 2669 1670 2331 1638 2331 
C 1632 2331 1626 2331 1574 2370 
L 902 2822 
z
M 2080 1519 
C 2176 1449 2483 1240 2483 851 
C 2483 381 2010 25 1472 25 
C 890 25 448 438 448 940 
C 448 1443 838 1862 1280 2060 
L 2080 1519 
z
" transform="scale(0.015625)"/>
      </defs>
      <use xlink:href="#CMR17-38" transform="scale(0.996264)"/>
      <use xlink:href="#CMR17-30" transform="translate(45.690477 0) scale(0.996264)"/>
     </g>
    </g>
   </g>
  </g>
  <g id="axis3d_3">
   <g id="line2d_13">
    <path d="M 196.290123 141.557432 
L 198.354835 72.667976 
" style="fill: none; stroke: #000000; stroke-width: 0.8; stroke-linecap: square"/>
   </g>
   <g id="text_13">
    <!-- $-\bar{P}_\mathrm{int}/10^{-3}$ -->
    <g transform="translate(229.911914 125.271328) rotate(-88.283281) scale(0.1 -0.1)">
     <defs>
      <path id="CMSY10-0" d="M 4218 1472 
C 4326 1472 4442 1472 4442 1600 
C 4442 1728 4326 1728 4218 1728 
L 755 1728 
C 646 1728 531 1728 531 1600 
C 531 1472 646 1472 755 1472 
L 4218 1472 
z
" transform="scale(0.015625)"/>
      <path id="CMR17-16" d="M 2554 3520 
L 2554 3666 
L 378 3666 
L 378 3520 
L 2554 3520 
z
" transform="scale(0.015625)"/>
      <path id="CMMI12-50" d="M 1894 2023 
L 2970 2023 
C 3853 2023 4736 2673 4736 3401 
C 4736 3898 4314 4352 3507 4352 
L 1530 4352 
C 1408 4352 1350 4352 1350 4231 
C 1350 4167 1408 4167 1504 4167 
C 1894 4167 1894 4116 1894 4046 
C 1894 4034 1894 3995 1869 3899 
L 1005 472 
C 947 249 934 185 486 185 
C 365 185 301 185 301 70 
C 301 0 358 0 397 0 
C 518 0 646 0 768 0 
L 1517 0 
C 1638 0 1773 0 1894 0 
C 1946 0 2016 0 2016 121 
C 2016 185 1958 185 1862 185 
C 1478 185 1472 230 1472 293 
C 1472 325 1478 369 1485 401 
L 1894 2023 
z
M 2355 3930 
C 2413 4167 2438 4167 2688 4167 
L 3322 4167 
C 3802 4167 4198 4013 4198 3535 
C 4198 3369 4115 2827 3821 2534 
C 3712 2419 3405 2176 2822 2176 
L 1920 2176 
L 2355 3930 
z
" transform="scale(0.015625)"/>
      <path id="CMR17-69" d="M 992 3909 
C 992 4049 877 4170 730 4170 
C 589 4170 467 4056 467 3909 
C 467 3769 582 3648 730 3648 
C 870 3648 992 3763 992 3909 
z
M 243 2706 
L 243 2541 
C 602 2541 653 2502 653 2197 
L 653 427 
C 653 184 627 153 218 153 
L 218 -13 
C 371 0 646 0 806 0 
C 960 0 1222 0 1370 -13 
L 1370 153 
C 992 153 979 191 979 420 
L 979 2776 
L 243 2706 
z
" transform="scale(0.015625)"/>
      <path id="CMR17-6e" d="M 2656 1933 
C 2656 2259 2592 2790 1837 2790 
C 1331 2790 1069 2400 973 2144 
L 966 2144 
L 966 2790 
L 211 2720 
L 211 2554 
C 589 2554 646 2515 646 2208 
L 646 428 
C 646 184 621 153 211 153 
L 211 -13 
C 365 0 646 0 813 0 
C 979 0 1267 0 1421 -13 
L 1421 153 
C 1011 153 986 178 986 428 
L 986 1658 
C 986 2247 1344 2688 1792 2688 
C 2266 2688 2317 2266 2317 1958 
L 2317 428 
C 2317 184 2291 153 1882 153 
L 1882 -13 
C 2035 0 2317 0 2483 0 
C 2650 0 2938 0 3091 -13 
L 3091 153 
C 2682 153 2656 178 2656 428 
L 2656 1933 
z
" transform="scale(0.015625)"/>
      <path id="CMR17-74" d="M 966 2560 
L 1862 2560 
L 1862 2725 
L 966 2725 
L 966 3904 
L 851 3904 
C 838 3245 614 2668 70 2668 
L 70 2560 
L 627 2560 
L 627 771 
C 627 650 627 -64 1370 -64 
C 1747 -64 1965 306 1965 777 
L 1965 1140 
L 1850 1140 
L 1850 783 
C 1850 344 1677 51 1408 51 
C 1222 51 966 178 966 758 
L 966 2560 
z
" transform="scale(0.015625)"/>
      <path id="CMMI12-3d" d="M 2746 4562 
C 2746 4569 2784 4666 2784 4678 
C 2784 4755 2720 4800 2669 4800 
C 2637 4800 2579 4800 2528 4659 
L 384 -1363 
C 384 -1370 346 -1465 346 -1478 
C 346 -1555 410 -1600 461 -1600 
C 499 -1600 557 -1593 602 -1459 
L 2746 4562 
z
" transform="scale(0.015625)"/>
      <path id="CMR17-31" d="M 1702 4058 
C 1702 4192 1696 4192 1606 4192 
C 1357 3916 979 3827 621 3827 
C 602 3827 570 3827 563 3808 
C 557 3795 557 3782 557 3648 
C 755 3648 1088 3686 1344 3839 
L 1344 461 
C 1344 236 1331 160 781 160 
L 589 160 
L 589 0 
C 896 0 1216 0 1523 0 
C 1830 0 2150 0 2458 0 
L 2458 160 
L 2266 160 
C 1715 160 1702 230 1702 458 
L 1702 4058 
z
" transform="scale(0.015625)"/>
     </defs>
     <use xlink:href="#CMSY10-0" transform="scale(0.996264)"/>
     <use xlink:href="#CMR17-16" transform="translate(100.9843 25.189733) scale(0.996264)"/>
     <use xlink:href="#CMMI12-50" transform="translate(77.487468 0) scale(0.996264)"/>
     <use xlink:href="#CMR17-69" transform="translate(140.3647 -14.943915) scale(0.697382)"/>
     <use xlink:href="#CMR17-6e" transform="translate(157.774359 -14.943915) scale(0.697382)"/>
     <use xlink:href="#CMR17-74" transform="translate(191.579246 -14.943915) scale(0.697382)"/>
     <use xlink:href="#CMMI12-3d" transform="translate(216.773799 0) scale(0.996264)"/>
     <use xlink:href="#CMR17-31" transform="translate(265.548717 0) scale(0.996264)"/>
     <use xlink:href="#CMR17-30" transform="translate(311.239195 0) scale(0.996264)"/>
     <use xlink:href="#CMSY10-0" transform="translate(356.929672 36.153639) scale(0.697382)"/>
     <use xlink:href="#CMR17-33" transform="translate(411.170665 36.153639) scale(0.697382)"/>
    </g>
   </g>
   <g id="Line3DCollection_3">
    <path d="M 196.330197 140.220349 
L 99.537001 122.495066 
L 60.435891 173.309348 
" style="fill: none; stroke: #b0b0b0; stroke-width: 0.8"/>
    <path d="M 196.68925 128.240502 
L 99.37729 110.701861 
L 60.044891 160.992873 
" style="fill: none; stroke: #b0b0b0; stroke-width: 0.8"/>
    <path d="M 197.0522 116.130594 
L 99.215886 98.783632 
L 59.64946 148.53681 
" style="fill: none; stroke: #b0b0b0; stroke-width: 0.8"/>
    <path d="M 197.419113 103.888496 
L 99.052762 86.738378 
L 59.249522 135.938774 
" style="fill: none; stroke: #b0b0b0; stroke-width: 0.8"/>
    <path d="M 197.790053 91.512031 
L 98.887889 74.564059 
L 58.844998 123.196323 
" style="fill: none; stroke: #b0b0b0; stroke-width: 0.8"/>
    <path d="M 198.165086 78.998975 
L 98.721241 62.25859 
L 58.435812 110.306961 
" style="fill: none; stroke: #b0b0b0; stroke-width: 0.8"/>
   </g>
   <g id="xtick_11">
    <g id="line2d_14">
     <path d="M 195.537564 140.075197 
L 197.916371 140.510817 
" style="fill: none; stroke: #000000; stroke-width: 0.8; stroke-linecap: square"/>
    </g>
    <g id="text_14">
     <!-- $\mathdefault{0}$ -->
     <g transform="translate(208.389894 142.303234) scale(0.08 -0.08)">
      <use xlink:href="#CMR17-30" transform="scale(0.996264)"/>
     </g>
    </g>
   </g>
   <g id="xtick_12">
    <g id="line2d_15">
     <path d="M 195.892269 128.096861 
L 198.284128 128.527948 
" style="fill: none; stroke: #000000; stroke-width: 0.8; stroke-linecap: square"/>
    </g>
    <g id="text_15">
     <!-- $\mathdefault{1}$ -->
     <g transform="translate(208.823503 130.35939) scale(0.08 -0.08)">
      <use xlink:href="#CMR17-31" transform="scale(0.996264)"/>
     </g>
    </g>
   </g>
   <g id="xtick_13">
    <g id="line2d_16">
     <path d="M 196.250824 115.988505 
L 198.655879 116.414936 
" style="fill: none; stroke: #000000; stroke-width: 0.8; stroke-linecap: square"/>
    </g>
    <g id="text_16">
     <!-- $\mathdefault{2}$ -->
     <g transform="translate(209.261799 118.286469) scale(0.08 -0.08)">
      <use xlink:href="#CMR17-32" transform="scale(0.996264)"/>
     </g>
    </g>
   </g>
   <g id="xtick_14">
    <g id="line2d_17">
     <path d="M 196.613292 103.748002 
L 199.03169 104.169648 
" style="fill: none; stroke: #000000; stroke-width: 0.8; stroke-linecap: square"/>
    </g>
    <g id="text_17">
     <!-- $\mathdefault{3}$ -->
     <g transform="translate(209.704857 106.082368) scale(0.08 -0.08)">
      <use xlink:href="#CMR17-33" transform="scale(0.996264)"/>
     </g>
    </g>
   </g>
   <g id="xtick_15">
    <g id="line2d_18">
     <path d="M 196.979739 91.373175 
L 199.411627 91.789906 
" style="fill: none; stroke: #000000; stroke-width: 0.8; stroke-linecap: square"/>
    </g>
    <g id="text_18">
     <!-- $\mathdefault{4}$ -->
     <g transform="translate(210.152755 93.744938) scale(0.08 -0.08)">
      <use xlink:href="#CMR17-34" transform="scale(0.996264)"/>
     </g>
    </g>
   </g>
   <g id="xtick_16">
    <g id="line2d_19">
     <path d="M 197.350228 78.861802 
L 199.795759 79.273483 
" style="fill: none; stroke: #000000; stroke-width: 0.8; stroke-linecap: square"/>
    </g>
    <g id="text_19">
     <!-- $\mathdefault{5}$ -->
     <g transform="translate(210.605573 81.271981) scale(0.08 -0.08)">
      <use xlink:href="#CMR17-35" transform="scale(0.996264)"/>
     </g>
    </g>
   </g>
  </g>
  <g id="axes_1">
   <g id="Poly3DCollection_1">
    <path d="M 117.132735 129.20195 
L 109.210882 139.918859 
L 95.152622 137.290431 
L 103.244623 126.646831 
z
" clip-path="url(#pc1b19f032f)" style="fill: #808512"/>
    <path d="M 131.115987 131.774573 
L 123.366828 142.565551 
L 109.210882 139.918859 
L 117.132735 129.20195 
z
" clip-path="url(#pc1b19f032f)" style="fill: #876218"/>
    <path d="M 145.195361 134.36488 
L 137.62148 145.230698 
L 123.366828 142.565551 
L 131.115987 131.774573 
z
" clip-path="url(#pc1b19f032f)" style="fill: #814628"/>
    <path d="M 117.132735 129.20195 
L 103.244623 126.646831 
L 102.466885 61.329369 
L 116.760029 63.729998 
z
" clip-path="url(#pc1b19f032f)" style="fill: #d4dc1e"/>
    <path d="M 131.115987 131.774573 
L 117.132735 129.20195 
L 116.81887 74.066467 
L 131.147975 76.509384 
z
" clip-path="url(#pc1b19f032f)" style="fill: #e0a327"/>
    <path d="M 145.195361 134.36488 
L 131.115987 131.774573 
L 131.14245 86.055276 
L 145.511929 88.538565 
z
" clip-path="url(#pc1b19f032f)" style="fill: #d67543"/>
    <path d="M 159.37185 136.973055 
L 151.975875 147.914494 
L 137.62148 145.230698 
L 145.195361 134.36488 
z
" clip-path="url(#pc1b19f032f)" style="fill: #742f39"/>
    <path d="M 159.37185 136.973055 
L 145.195361 134.36488 
L 145.447812 97.820029 
L 159.858873 100.343081 
z
" clip-path="url(#pc1b19f032f)" style="fill: #bf4e5e"/>
    <path d="M 173.646463 139.599282 
L 159.37185 136.973055 
L 159.73886 109.369466 
L 174.192701 111.931709 
z
" clip-path="url(#pc1b19f032f)" style="fill: #a12a7b"/>
    <path d="M 103.244623 126.646831 
L 95.152622 137.290431 
L 94.123274 71.332586 
L 102.466885 61.329369 
z
" clip-path="url(#pc1b19f032f)" style="fill: #64680e"/>
    <path d="M 109.210882 139.918859 
L 95.152622 137.290431 
L 94.716043 109.315621 
L 108.9504 111.87918 
z
" clip-path="url(#pc1b19f032f)" style="fill: #a32c79"/>
    <path d="M 173.646463 139.599282 
L 166.431062 150.617134 
L 151.975875 147.914494 
L 159.37185 136.973055 
z
" clip-path="url(#pc1b19f032f)" style="fill: #61194a"/>
    <path d="M 117.132735 129.20195 
L 109.210882 139.918859 
L 108.693691 84.245783 
L 116.81887 74.066467 
z
" clip-path="url(#pc1b19f032f)" style="fill: #6a4d13"/>
    <path d="M 109.210882 139.918859 
L 101.059688 150.946028 
L 86.827173 148.241089 
L 95.152622 137.290431 
z
" clip-path="url(#pc1b19f032f)" style="fill: #621b49"/>
    <path d="M 188.020223 142.24375 
L 173.646463 139.599282 
L 174.035724 119.882799 
L 188.53898 122.481759 
z
" clip-path="url(#pc1b19f032f)" style="fill: #7f0c90"/>
    <path d="M 131.115987 131.774573 
L 123.366828 142.565551 
L 123.23229 96.402736 
L 131.14245 86.055276 
z
" clip-path="url(#pc1b19f032f)" style="fill: #65371f"/>
    <path d="M 123.366828 142.565551 
L 109.210882 139.918859 
L 108.997256 116.922989 
L 123.299653 119.516479 
z
" clip-path="url(#pc1b19f032f)" style="fill: #8e1889"/>
    <path d="M 117.132735 129.20195 
L 116.760029 63.729998 
L 108.596691 73.804154 
L 109.210882 139.918859 
z
" clip-path="url(#pc1b19f032f)" style="fill: #d4dc1e"/>
    <path d="M 145.195361 134.36488 
L 137.62148 145.230698 
L 137.75139 108.333106 
L 145.447812 97.820029 
z
" clip-path="url(#pc1b19f032f)" style="fill: #5a252c"/>
    <path d="M 188.020223 142.24375 
L 180.988109 153.338819 
L 166.431062 150.617134 
L 173.646463 139.599282 
z
" clip-path="url(#pc1b19f032f)" style="fill: #4d0757"/>
    <path d="M 131.115987 131.774573 
L 131.147975 76.509384 
L 123.20419 86.760815 
L 123.366828 142.565551 
z
" clip-path="url(#pc1b19f032f)" style="fill: #e0a327"/>
    <path d="M 123.366828 142.565551 
L 115.392536 153.670035 
L 101.059688 150.946028 
L 109.210882 139.918859 
z
" clip-path="url(#pc1b19f032f)" style="fill: #560f53"/>
    <path d="M 137.62148 145.230698 
L 123.366828 142.565551 
L 123.312574 123.949916 
L 137.687174 126.572077 
z
" clip-path="url(#pc1b19f032f)" style="fill: #780792"/>
    <path d="M 159.37185 136.973055 
L 151.975875 147.914494 
L 152.255029 120.045786 
L 159.73886 109.369466 
z
" clip-path="url(#pc1b19f032f)" style="fill: #4c143a"/>
    <path d="M 95.152622 137.290431 
L 86.827173 148.241089 
L 86.27786 119.997493 
L 94.716043 109.315621 
z
" clip-path="url(#pc1b19f032f)" style="fill: #4d1539"/>
    <path d="M 145.195361 134.36488 
L 145.511929 88.538565 
L 137.784393 98.959281 
L 137.62148 145.230698 
z
" clip-path="url(#pc1b19f032f)" style="fill: #d67543"/>
    <path d="M 173.646463 139.599282 
L 166.431062 150.617134 
L 166.760974 130.712104 
L 174.035724 119.882799 
z
" clip-path="url(#pc1b19f032f)" style="fill: #3c0544"/>
    <path d="M 159.37185 136.973055 
L 159.858873 100.343081 
L 152.346334 110.930541 
L 151.975875 147.914494 
z
" clip-path="url(#pc1b19f032f)" style="fill: #bf4e5e"/>
    <path d="M 151.975875 147.914494 
L 137.62148 145.230698 
L 137.672687 130.686709 
L 152.121894 133.336979 
z
" clip-path="url(#pc1b19f032f)" style="fill: #640095"/>
    <path d="M 109.210882 139.918859 
L 101.059688 150.946028 
L 100.757236 127.729725 
L 108.997256 116.922989 
z
" clip-path="url(#pc1b19f032f)" style="fill: #430b41"/>
    <path d="M 137.62148 145.230698 
L 129.826781 156.413312 
L 115.392536 153.670035 
L 123.366828 142.565551 
z
" clip-path="url(#pc1b19f032f)" style="fill: #490458"/>
    <path d="M 109.210882 139.918859 
L 108.596691 73.804154 
L 94.123274 71.332586 
L 95.152622 137.290431 
z
" clip-path="url(#pc1b19f032f)" style="fill: #64680e"/>
    <path d="M 173.646463 139.599282 
L 174.192701 111.931709 
L 166.894041 122.683529 
L 166.431062 150.617134 
z
" clip-path="url(#pc1b19f032f)" style="fill: #a12a7b"/>
    <path d="M 109.210882 139.918859 
L 108.9504 111.87918 
L 100.690886 122.636635 
L 101.059688 150.946028 
z
" clip-path="url(#pc1b19f032f)" style="fill: #a32c79"/>
    <path d="M 123.366828 142.565551 
L 123.20419 86.760815 
L 108.693691 84.245783 
L 109.210882 139.918859 
z
" clip-path="url(#pc1b19f032f)" style="fill: #6a4d13"/>
    <path d="M 166.431062 150.617134 
L 151.975875 147.914494 
L 152.083099 137.210014 
L 166.60889 139.888019 
z
" clip-path="url(#pc1b19f032f)" style="fill: #4f0192"/>
    <path d="M 188.020223 142.24375 
L 188.53898 122.481759 
L 181.450861 133.387641 
L 180.988109 153.338819 
z
" clip-path="url(#pc1b19f032f)" style="fill: #7f0c90"/>
    <path d="M 123.366828 142.565551 
L 115.392536 153.670035 
L 115.269534 134.876306 
L 123.312574 123.949916 
z
" clip-path="url(#pc1b19f032f)" style="fill: #390345"/>
    <path d="M 101.059688 150.946028 
L 86.827173 148.241089 
L 86.577777 135.418117 
L 100.892251 138.093498 
z
" clip-path="url(#pc1b19f032f)" style="fill: #5a0094"/>
    <path d="M 137.62148 145.230698 
L 137.784393 98.959281 
L 123.23229 96.402736 
L 123.366828 142.565551 
z
" clip-path="url(#pc1b19f032f)" style="fill: #65371f"/>
    <path d="M 123.366828 142.565551 
L 123.299653 119.516479 
L 115.240236 130.399778 
L 115.392536 153.670035 
z
" clip-path="url(#pc1b19f032f)" style="fill: #8e1889"/>
    <path d="M 151.975875 147.914494 
L 144.363502 159.176066 
L 129.826781 156.413312 
L 137.62148 145.230698 
z
" clip-path="url(#pc1b19f032f)" style="fill: #3c005a"/>
    <path d="M 151.975875 147.914494 
L 152.346334 110.930541 
L 137.75139 108.333106 
L 137.62148 145.230698 
z
" clip-path="url(#pc1b19f032f)" style="fill: #5a252c"/>
    <path d="M 180.988109 153.338819 
L 166.431062 150.617134 
L 166.553453 143.232788 
L 181.159776 145.937501 
z
" clip-path="url(#pc1b19f032f)" style="fill: #3c038c"/>
    <path d="M 188.53898 122.481759 
L 174.035724 119.882799 
L 166.760974 130.712104 
L 181.450861 133.387641 
z
" clip-path="url(#pc1b19f032f)" style="fill: #6e0a7d"/>
    <path d="M 174.192701 111.931709 
L 159.73886 109.369466 
L 152.255029 120.045786 
L 166.894041 122.683529 
z
" clip-path="url(#pc1b19f032f)" style="fill: #8c256b"/>
    <path d="M 137.62148 145.230698 
L 129.826781 156.413312 
L 129.826781 141.730434 
L 137.672687 130.686709 
z
" clip-path="url(#pc1b19f032f)" style="fill: #2f0046"/>
    <path d="M 159.858873 100.343081 
L 145.447812 97.820029 
L 137.75139 108.333106 
L 152.346334 110.930541 
z
" clip-path="url(#pc1b19f032f)" style="fill: #a64452"/>
    <path d="M 108.9504 111.87918 
L 94.716043 109.315621 
L 86.27786 119.997493 
L 100.690886 122.636635 
z
" clip-path="url(#pc1b19f032f)" style="fill: #8d2669"/>
    <path d="M 115.392536 153.670035 
L 101.059688 150.946028 
L 100.927554 140.803396 
L 115.326001 143.504044 
z
" clip-path="url(#pc1b19f032f)" style="fill: #4b0190"/>
    <path d="M 137.62148 145.230698 
L 137.687174 126.572077 
L 129.826781 137.575998 
L 129.826781 156.413312 
z
" clip-path="url(#pc1b19f032f)" style="fill: #780792"/>
    <path d="M 166.431062 150.617134 
L 166.894041 122.683529 
L 152.255029 120.045786 
L 151.975875 147.914494 
z
" clip-path="url(#pc1b19f032f)" style="fill: #4c143a"/>
    <path d="M 145.511929 88.538565 
L 131.14245 86.055276 
L 123.23229 96.402736 
L 137.784393 98.959281 
z
" clip-path="url(#pc1b19f032f)" style="fill: #ba653a"/>
    <path d="M 101.059688 150.946028 
L 100.690886 122.636635 
L 86.27786 119.997493 
L 86.827173 148.241089 
z
" clip-path="url(#pc1b19f032f)" style="fill: #4d1539"/>
    <path d="M 131.147975 76.509384 
L 116.81887 74.066467 
L 108.693691 84.245783 
L 123.20419 86.760815 
z
" clip-path="url(#pc1b19f032f)" style="fill: #c28d22"/>
    <path d="M 123.299653 119.516479 
L 108.997256 116.922989 
L 100.757236 127.729725 
L 115.240236 130.399778 
z
" clip-path="url(#pc1b19f032f)" style="fill: #7b1577"/>
    <path d="M 166.431062 150.617134 
L 159.003795 161.958504 
L 144.363502 159.176066 
L 151.975875 147.914494 
z
" clip-path="url(#pc1b19f032f)" style="fill: #300158"/>
    <path d="M 101.059688 150.946028 
L 92.669047 162.297128 
L 78.258026 159.51229 
L 86.827173 148.241089 
z
" clip-path="url(#pc1b19f032f)" style="fill: #360059"/>
    <path d="M 151.975875 147.914494 
L 144.363502 159.176066 
L 144.434909 148.369535 
L 152.083099 137.210014 
z
" clip-path="url(#pc1b19f032f)" style="fill: #250045"/>
    <path d="M 180.988109 153.338819 
L 181.450861 133.387641 
L 166.760974 130.712104 
L 166.431062 150.617134 
z
" clip-path="url(#pc1b19f032f)" style="fill: #3c0544"/>
    <path d="M 116.760029 63.729998 
L 102.466885 61.329369 
L 94.123274 71.332586 
L 108.596691 73.804154 
z
" clip-path="url(#pc1b19f032f)" style="fill: #b8bf1a"/>
    <path d="M 137.687174 126.572077 
L 123.312574 123.949916 
L 115.269534 134.876306 
L 129.826781 137.575998 
z
" clip-path="url(#pc1b19f032f)" style="fill: #69067f"/>
    <path d="M 151.975875 147.914494 
L 152.121894 133.336979 
L 144.460748 144.4592 
L 144.363502 159.176066 
z
" clip-path="url(#pc1b19f032f)" style="fill: #640095"/>
    <path d="M 86.827173 148.241089 
L 78.258026 159.51229 
L 77.954527 146.566874 
L 86.577777 135.418117 
z
" clip-path="url(#pc1b19f032f)" style="fill: #2a0046"/>
    <path d="M 115.392536 153.670035 
L 115.240236 130.399778 
L 100.757236 127.729725 
L 101.059688 150.946028 
z
" clip-path="url(#pc1b19f032f)" style="fill: #430b41"/>
    <path d="M 129.826781 156.413312 
L 115.392536 153.670035 
L 115.341944 145.939921 
L 129.826781 148.665408 
z
" clip-path="url(#pc1b19f032f)" style="fill: #3e038c"/>
    <path d="M 152.121894 133.336979 
L 137.672687 130.686709 
L 129.826781 141.730434 
L 144.460748 144.4592 
z
" clip-path="url(#pc1b19f032f)" style="fill: #560081"/>
    <path d="M 166.431062 150.617134 
L 159.003795 161.958504 
L 159.102789 154.503856 
L 166.553453 143.232788 
z
" clip-path="url(#pc1b19f032f)" style="fill: #1c0142"/>
    <path d="M 180.988109 153.338819 
L 173.748771 164.760837 
L 159.003795 161.958504 
L 166.431062 150.617134 
z
" clip-path="url(#pc1b19f032f)" style="fill: #240254"/>
    <path d="M 115.392536 153.670035 
L 107.183155 165.101887 
L 92.669047 162.297128 
L 101.059688 150.946028 
z
" clip-path="url(#pc1b19f032f)" style="fill: #2d0157"/>
    <path d="M 166.431062 150.617134 
L 166.60889 139.888019 
L 159.147631 151.127003 
L 159.003795 161.958504 
z
" clip-path="url(#pc1b19f032f)" style="fill: #4f0192"/>
    <path d="M 129.826781 156.413312 
L 129.826781 137.575998 
L 115.269534 134.876306 
L 115.392536 153.670035 
z
" clip-path="url(#pc1b19f032f)" style="fill: #390345"/>
    <path d="M 101.059688 150.946028 
L 92.669047 162.297128 
L 92.495854 152.057736 
L 100.927554 140.803396 
z
" clip-path="url(#pc1b19f032f)" style="fill: #230144"/>
    <path d="M 166.60889 139.888019 
L 152.083099 137.210014 
L 144.434909 148.369535 
L 159.147631 151.127003 
z
" clip-path="url(#pc1b19f032f)" style="fill: #44017e"/>
    <path d="M 144.363502 159.176066 
L 129.826781 156.413312 
L 129.826781 150.785666 
L 144.400774 153.535475 
z
" clip-path="url(#pc1b19f032f)" style="fill: #320488"/>
    <path d="M 101.059688 150.946028 
L 100.892251 138.093498 
L 92.449577 149.321751 
L 92.669047 162.297128 
z
" clip-path="url(#pc1b19f032f)" style="fill: #5a0094"/>
    <path d="M 100.892251 138.093498 
L 86.577777 135.418117 
L 77.954527 146.566874 
L 92.449577 149.321751 
z
" clip-path="url(#pc1b19f032f)" style="fill: #4e0080"/>
    <path d="M 181.159776 145.937501 
L 166.553453 143.232788 
L 159.102789 154.503856 
L 173.898327 157.288989 
z
" clip-path="url(#pc1b19f032f)" style="fill: #340279"/>
    <path d="M 180.988109 153.338819 
L 181.159776 145.937501 
L 173.898327 157.288989 
L 173.748771 164.760837 
z
" clip-path="url(#pc1b19f032f)" style="fill: #3c038c"/>
    <path d="M 144.363502 159.176066 
L 144.460748 144.4592 
L 129.826781 141.730434 
L 129.826781 156.413312 
z
" clip-path="url(#pc1b19f032f)" style="fill: #2f0046"/>
    <path d="M 115.392536 153.670035 
L 107.183155 165.101887 
L 107.102615 157.298084 
L 115.341944 145.939921 
z
" clip-path="url(#pc1b19f032f)" style="fill: #1d0142"/>
    <path d="M 129.826781 156.413312 
L 121.801462 167.926782 
L 107.183155 165.101887 
L 115.392536 153.670035 
z
" clip-path="url(#pc1b19f032f)" style="fill: #250255"/>
    <path d="M 115.392536 153.670035 
L 115.326001 143.504044 
L 107.077234 154.838821 
L 107.183155 165.101887 
z
" clip-path="url(#pc1b19f032f)" style="fill: #4b0190"/>
    <path d="M 159.003795 161.958504 
L 144.363502 159.176066 
L 144.389508 155.240378 
L 159.056179 158.013766 
z
" clip-path="url(#pc1b19f032f)" style="fill: #270483"/>
    <path d="M 115.326001 143.504044 
L 100.927554 140.803396 
L 92.495854 152.057736 
L 107.077234 154.838821 
z
" clip-path="url(#pc1b19f032f)" style="fill: #41017d"/>
    <path d="M 92.669047 162.297128 
L 78.258026 159.51229 
L 78.120462 153.644666 
L 92.569571 156.415991 
z
" clip-path="url(#pc1b19f032f)" style="fill: #320488"/>
    <path d="M 159.003795 161.958504 
L 159.147631 151.127003 
L 144.434909 148.369535 
L 144.363502 159.176066 
z
" clip-path="url(#pc1b19f032f)" style="fill: #250045"/>
    <path d="M 129.826781 156.413312 
L 121.801462 167.926782 
L 121.780654 162.245521 
L 129.826781 150.785666 
z
" clip-path="url(#pc1b19f032f)" style="fill: #180240"/>
    <path d="M 92.669047 162.297128 
L 92.449577 149.321751 
L 77.954527 146.566874 
L 78.258026 159.51229 
z
" clip-path="url(#pc1b19f032f)" style="fill: #2a0046"/>
    <path d="M 129.826781 148.665408 
L 115.341944 145.939921 
L 107.102615 157.298084 
L 121.772814 160.104951 
z
" clip-path="url(#pc1b19f032f)" style="fill: #36027a"/>
    <path d="M 129.826781 156.413312 
L 129.826781 148.665408 
L 121.772814 160.104951 
L 121.801462 167.926782 
z
" clip-path="url(#pc1b19f032f)" style="fill: #3e038c"/>
    <path d="M 144.363502 159.176066 
L 136.525093 170.77203 
L 121.801462 167.926782 
L 129.826781 156.413312 
z
" clip-path="url(#pc1b19f032f)" style="fill: #1e0252"/>
    <path d="M 173.748771 164.760837 
L 159.003795 161.958504 
L 159.037012 159.457142 
L 173.798953 162.253724 
z
" clip-path="url(#pc1b19f032f)" style="fill: #1c057e"/>
    <path d="M 107.183155 165.101887 
L 92.669047 162.297128 
L 92.595306 157.937501 
L 107.138058 160.732222 
z
" clip-path="url(#pc1b19f032f)" style="fill: #280484"/>
    <path d="M 173.748771 164.760837 
L 173.898327 157.288989 
L 159.102789 154.503856 
L 159.003795 161.958504 
z
" clip-path="url(#pc1b19f032f)" style="fill: #1c0142"/>
    <path d="M 107.183155 165.101887 
L 107.077234 154.838821 
L 92.495854 152.057736 
L 92.669047 162.297128 
z
" clip-path="url(#pc1b19f032f)" style="fill: #230144"/>
    <path d="M 144.400774 153.535475 
L 129.826781 150.785666 
L 121.780654 162.245521 
L 136.542523 165.077653 
z
" clip-path="url(#pc1b19f032f)" style="fill: #2b0376"/>
    <path d="M 144.363502 159.176066 
L 136.525093 170.77203 
L 136.537255 166.798859 
L 144.389508 155.240378 
z
" clip-path="url(#pc1b19f032f)" style="fill: #12023e"/>
    <path d="M 144.363502 159.176066 
L 144.400774 153.535475 
L 136.542523 165.077653 
L 136.525093 170.77203 
z
" clip-path="url(#pc1b19f032f)" style="fill: #320488"/>
    <path d="M 78.258026 159.51229 
L 69.434323 171.118314 
L 69.270822 165.194723 
L 78.120462 153.644666 
z
" clip-path="url(#pc1b19f032f)" style="fill: #180240"/>
    <path d="M 159.003795 161.958504 
L 151.355191 173.637852 
L 136.525093 170.77203 
L 144.363502 159.176066 
z
" clip-path="url(#pc1b19f032f)" style="fill: #17034f"/>
    <path d="M 92.669047 162.297128 
L 84.02825 173.986645 
L 69.434323 171.118314 
L 78.258026 159.51229 
z
" clip-path="url(#pc1b19f032f)" style="fill: #1e0252"/>
    <path d="M 121.801462 167.926782 
L 107.183155 165.101887 
L 107.151383 162.023377 
L 121.790161 164.841184 
z
" clip-path="url(#pc1b19f032f)" style="fill: #200580"/>
    <path d="M 159.056179 158.013766 
L 144.389508 155.240378 
L 136.537255 166.798859 
L 151.39442 169.655512 
z
" clip-path="url(#pc1b19f032f)" style="fill: #220472"/>
    <path d="M 121.801462 167.926782 
L 121.772814 160.104951 
L 107.102615 157.298084 
L 107.183155 165.101887 
z
" clip-path="url(#pc1b19f032f)" style="fill: #1d0142"/>
    <path d="M 159.003795 161.958504 
L 151.355191 173.637852 
L 151.380066 171.112671 
L 159.037012 159.457142 
z
" clip-path="url(#pc1b19f032f)" style="fill: #0d023b"/>
    <path d="M 159.003795 161.958504 
L 159.056179 158.013766 
L 151.39442 169.655512 
L 151.355191 173.637852 
z
" clip-path="url(#pc1b19f032f)" style="fill: #270483"/>
    <path d="M 92.569571 156.415991 
L 78.120462 153.644666 
L 69.270822 165.194723 
L 83.903809 168.049363 
z
" clip-path="url(#pc1b19f032f)" style="fill: #2b0376"/>
    <path d="M 92.669047 162.297128 
L 84.02825 173.986645 
L 83.936004 169.585444 
L 92.595306 157.937501 
z
" clip-path="url(#pc1b19f032f)" style="fill: #13023e"/>
    <path d="M 92.669047 162.297128 
L 92.569571 156.415991 
L 83.903809 168.049363 
L 84.02825 173.986645 
z
" clip-path="url(#pc1b19f032f)" style="fill: #320488"/>
    <path d="M 173.748771 164.760837 
L 166.292915 176.524473 
L 151.355191 173.637852 
L 159.003795 161.958504 
z
" clip-path="url(#pc1b19f032f)" style="fill: #11034c"/>
    <path d="M 107.183155 165.101887 
L 98.728135 176.875802 
L 84.02825 173.986645 
L 92.669047 162.297128 
z
" clip-path="url(#pc1b19f032f)" style="fill: #18034f"/>
    <path d="M 136.525093 170.77203 
L 121.801462 167.926782 
L 121.794482 166.021063 
L 136.53094 168.861923 
z
" clip-path="url(#pc1b19f032f)" style="fill: #18057c"/>
    <path d="M 173.798953 162.253724 
L 159.037012 159.457142 
L 151.380066 171.112671 
L 166.335202 173.993466 
z
" clip-path="url(#pc1b19f032f)" style="fill: #18046d"/>
    <path d="M 136.525093 170.77203 
L 136.542523 165.077653 
L 121.780654 162.245521 
L 121.801462 167.926782 
z
" clip-path="url(#pc1b19f032f)" style="fill: #180240"/>
    <path d="M 173.748771 164.760837 
L 173.798953 162.253724 
L 166.335202 173.993466 
L 166.292915 176.524473 
z
" clip-path="url(#pc1b19f032f)" style="fill: #1c057e"/>
    <path d="M 107.138058 160.732222 
L 92.595306 157.937501 
L 83.936004 169.585444 
L 98.665269 172.464431 
z
" clip-path="url(#pc1b19f032f)" style="fill: #230472"/>
    <path d="M 107.183155 165.101887 
L 98.728135 176.875802 
L 98.683845 173.767937 
L 107.151383 162.023377 
z
" clip-path="url(#pc1b19f032f)" style="fill: #0f023c"/>
    <path d="M 107.183155 165.101887 
L 107.138058 160.732222 
L 98.665269 172.464431 
L 98.728135 176.875802 
z
" clip-path="url(#pc1b19f032f)" style="fill: #280484"/>
    <path d="M 151.355191 173.637852 
L 136.525093 170.77203 
L 136.528088 169.793597 
L 151.364852 172.657166 
z
" clip-path="url(#pc1b19f032f)" style="fill: #0e0678"/>
    <path d="M 121.801462 167.926782 
L 113.535136 179.786011 
L 98.728135 176.875802 
L 107.183155 165.101887 
z
" clip-path="url(#pc1b19f032f)" style="fill: #13034d"/>
    <path d="M 151.355191 173.637852 
L 151.39442 169.655512 
L 136.537255 166.798859 
L 136.525093 170.77203 
z
" clip-path="url(#pc1b19f032f)" style="fill: #12023e"/>
    <path d="M 121.790161 164.841184 
L 107.151383 162.023377 
L 98.683845 173.767937 
L 113.51185 176.670967 
z
" clip-path="url(#pc1b19f032f)" style="fill: #1b046f"/>
    <path d="M 84.02825 173.986645 
L 83.903809 168.049363 
L 69.270822 165.194723 
L 69.434323 171.118314 
z
" clip-path="url(#pc1b19f032f)" style="fill: #180240"/>
    <path d="M 121.801462 167.926782 
L 113.535136 179.786011 
L 113.520754 177.862121 
L 121.794482 166.021063 
z
" clip-path="url(#pc1b19f032f)" style="fill: #0b033b"/>
    <path d="M 121.801462 167.926782 
L 121.790161 164.841184 
L 113.51185 176.670967 
L 113.535136 179.786011 
z
" clip-path="url(#pc1b19f032f)" style="fill: #200580"/>
    <path d="M 166.292915 176.524473 
L 151.355191 173.637852 
L 151.36082 173.066451 
L 166.302484 175.951754 
z
" clip-path="url(#pc1b19f032f)" style="fill: #0b0777"/>
    <path d="M 136.525093 170.77203 
L 128.45043 182.717505 
L 113.535136 179.786011 
L 121.801462 167.926782 
z
" clip-path="url(#pc1b19f032f)" style="fill: #0e034b"/>
    <path d="M 166.292915 176.524473 
L 166.335202 173.993466 
L 151.380066 171.112671 
L 151.355191 173.637852 
z
" clip-path="url(#pc1b19f032f)" style="fill: #0d023b"/>
    <path d="M 136.53094 168.861923 
L 121.794482 166.021063 
L 113.520754 177.862121 
L 128.44921 180.789171 
z
" clip-path="url(#pc1b19f032f)" style="fill: #15056c"/>
    <path d="M 98.728135 176.875802 
L 98.665269 172.464431 
L 83.936004 169.585444 
L 84.02825 173.986645 
z
" clip-path="url(#pc1b19f032f)" style="fill: #13023e"/>
    <path d="M 136.525093 170.77203 
L 128.45043 182.717505 
L 128.449805 181.729741 
L 136.528088 169.793597 
z
" clip-path="url(#pc1b19f032f)" style="fill: #070339"/>
    <path d="M 136.525093 170.77203 
L 136.53094 168.861923 
L 128.44921 180.789171 
L 128.45043 182.717505 
z
" clip-path="url(#pc1b19f032f)" style="fill: #18057c"/>
    <path d="M 151.355191 173.637852 
L 143.475207 185.670517 
L 128.45043 182.717505 
L 136.525093 170.77203 
z
" clip-path="url(#pc1b19f032f)" style="fill: #090449"/>
    <path d="M 151.364852 172.657166 
L 136.528088 169.793597 
L 128.449805 181.729741 
L 143.481424 184.680471 
z
" clip-path="url(#pc1b19f032f)" style="fill: #0c0668"/>
    <path d="M 113.535136 179.786011 
L 113.51185 176.670967 
L 98.683845 173.767937 
L 98.728135 176.875802 
z
" clip-path="url(#pc1b19f032f)" style="fill: #0f023c"/>
    <path d="M 151.355191 173.637852 
L 143.475207 185.670517 
L 143.47883 185.093664 
L 151.36082 173.066451 
z
" clip-path="url(#pc1b19f032f)" style="fill: #050338"/>
    <path d="M 151.355191 173.637852 
L 151.364852 172.657166 
L 143.481424 184.680471 
L 143.475207 185.670517 
z
" clip-path="url(#pc1b19f032f)" style="fill: #0e0678"/>
    <path d="M 166.292915 176.524473 
L 158.610679 188.645285 
L 143.475207 185.670517 
L 151.355191 173.637852 
z
" clip-path="url(#pc1b19f032f)" style="fill: #070448"/>
    <path d="M 166.302484 175.951754 
L 151.36082 173.066451 
L 143.47883 185.093664 
L 158.618346 188.067098 
z
" clip-path="url(#pc1b19f032f)" style="fill: #0a0667"/>
    <path d="M 128.45043 182.717505 
L 128.44921 180.789171 
L 113.520754 177.862121 
L 113.535136 179.786011 
z
" clip-path="url(#pc1b19f032f)" style="fill: #0b033b"/>
    <path d="M 166.292915 176.524473 
L 166.302484 175.951754 
L 158.618346 188.067098 
L 158.610679 188.645285 
z
" clip-path="url(#pc1b19f032f)" style="fill: #0b0777"/>
    <path d="M 143.475207 185.670517 
L 143.481424 184.680471 
L 128.449805 181.729741 
L 128.45043 182.717505 
z
" clip-path="url(#pc1b19f032f)" style="fill: #070339"/>
    <path d="M 158.610679 188.645285 
L 158.618346 188.067098 
L 143.47883 185.093664 
L 143.475207 185.670517 
z
" clip-path="url(#pc1b19f032f)" style="fill: #050338"/>
   </g>
  </g>
 </g>
 <defs>
  <clipPath id="pc1b19f032f">
   <rect x="7.2" y="7.2" width="238.79952" height="238.79952"/>
  </clipPath>
 </defs>
</svg>
