<?xml version="1.0" encoding="utf-8" standalone="no"?>
<!DOCTYPE svg PUBLIC "-//W3C//DTD SVG 1.1//EN"
  "http://www.w3.org/Graphics/SVG/1.1/DTD/svg11.dtd">
<svg xmlns:xlink="http://www.w3.org/1999/xlink" width="253.202831pt" height="238.79952pt" viewBox="0 0 253.202831 238.79952" xmlns="http://www.w3.org/2000/svg" version="1.1">
 <metadata>
  <rdf:RDF xmlns:dc="http://purl.org/dc/elements/1.1/" xmlns:cc="http://creativecommons.org/ns#" xmlns:rdf="http://www.w3.org/1999/02/22-rdf-syntax-ns#">
   <cc:Work>
    <dc:type rdf:resource="http://purl.org/dc/dcmitype/StillImage"/>
    <dc:date>1980-01-01T00:00:00+00:00</dc:date>
    <dc:format>image/svg+xml</dc:format>
    <dc:creator>
     <cc:Agent>
      <dc:title>Matplotlib v3.6.2, https://matplotlib.org/</dc:title>
     </cc:Agent>
    </dc:creator>
   </cc:Work>
  </rdf:RDF>
 </metadata>
 <defs>
  <style type="text/css">*{stroke-linejoin: round; stroke-linecap: butt}</style>
 </defs>
 <g id="figure_1">
  <g id="patch_1">
   <path d="M 0 238.79952 
L 253.202831 238.79952 
L 253.202831 0 
L 0 0 
z
" style="fill: #ffffff"/>
  </g>
  <g id="axes_1">
   <g id="patch_2">
    <path d="M 59.265421 202.559296 
L 120.444913 202.559296 
L 120.444913 7.2 
L 59.265421 7.2 
z
" style="fill: #ffffff"/>
   </g>
   <g id="matplotlib.axis_1">
    <g id="xtick_1">
     <g id="line2d_1">
      <defs>
       <path id="me05cc8a4a5" d="M 0 0 
L 0 3.5 
" style="stroke: #000000; stroke-width: 0.8"/>
      </defs>
      <g>
       <use xlink:href="#me05cc8a4a5" x="73.96439" y="202.559296" style="stroke: #000000; stroke-width: 0.8"/>
      </g>
     </g>
     <g id="text_1">
      <!-- $\mathdefault{25000}$ -->
      <g transform="translate(63.378933 217.194098) scale(0.08 -0.08)">
       <defs>
        <path id="CMR17-32" d="M 2669 989 
L 2554 989 
C 2490 536 2438 459 2413 420 
C 2381 369 1920 369 1830 369 
L 602 369 
C 832 619 1280 1072 1824 1597 
C 2214 1967 2669 2402 2669 3035 
C 2669 3790 2067 4224 1395 4224 
C 691 4224 262 3604 262 3030 
C 262 2780 448 2748 525 2748 
C 589 2748 781 2787 781 3010 
C 781 3207 614 3264 525 3264 
C 486 3264 448 3258 422 3245 
C 544 3790 915 4058 1306 4058 
C 1862 4058 2227 3617 2227 3035 
C 2227 2479 1901 2000 1536 1584 
L 262 146 
L 262 0 
L 2515 0 
L 2669 989 
z
" transform="scale(0.015625)"/>
        <path id="CMR17-35" d="M 730 3692 
C 794 3666 1056 3584 1325 3584 
C 1920 3584 2246 3911 2432 4100 
C 2432 4157 2432 4192 2394 4192 
C 2387 4192 2374 4192 2323 4163 
C 2099 4058 1837 3973 1517 3973 
C 1325 3973 1037 3999 723 4139 
C 653 4171 640 4171 634 4171 
C 602 4171 595 4164 595 4037 
L 595 2203 
C 595 2089 595 2057 659 2057 
C 691 2057 704 2070 736 2114 
C 941 2401 1222 2522 1542 2522 
C 1766 2522 2246 2382 2246 1289 
C 2246 1085 2246 715 2054 421 
C 1894 159 1645 25 1370 25 
C 947 25 518 320 403 814 
C 429 807 480 795 506 795 
C 589 795 749 840 749 1038 
C 749 1210 627 1280 506 1280 
C 358 1280 262 1190 262 1011 
C 262 454 704 -128 1382 -128 
C 2042 -128 2669 440 2669 1264 
C 2669 2030 2170 2624 1549 2624 
C 1222 2624 947 2503 730 2274 
L 730 3692 
z
" transform="scale(0.015625)"/>
        <path id="CMR17-30" d="M 2688 2025 
C 2688 2416 2682 3080 2413 3591 
C 2176 4039 1798 4198 1466 4198 
C 1158 4198 768 4058 525 3597 
C 269 3118 243 2524 243 2025 
C 243 1661 250 1106 448 619 
C 723 -39 1216 -128 1466 -128 
C 1760 -128 2208 -7 2470 600 
C 2662 1042 2688 1559 2688 2025 
z
M 1466 -26 
C 1056 -26 813 325 723 812 
C 653 1188 653 1738 653 2096 
C 653 2588 653 2997 736 3387 
C 858 3929 1216 4096 1466 4096 
C 1728 4096 2067 3923 2189 3400 
C 2272 3036 2278 2607 2278 2096 
C 2278 1680 2278 1169 2202 792 
C 2067 95 1690 -26 1466 -26 
z
" transform="scale(0.015625)"/>
       </defs>
       <use xlink:href="#CMR17-32" transform="scale(0.996264)"/>
       <use xlink:href="#CMR17-35" transform="translate(45.690477 0) scale(0.996264)"/>
       <use xlink:href="#CMR17-30" transform="translate(91.380954 0) scale(0.996264)"/>
       <use xlink:href="#CMR17-30" transform="translate(137.071431 0) scale(0.996264)"/>
       <use xlink:href="#CMR17-30" transform="translate(182.761908 0) scale(0.996264)"/>
      </g>
     </g>
    </g>
    <g id="xtick_2">
     <g id="line2d_2">
      <g>
       <use xlink:href="#me05cc8a4a5" x="93.827862" y="202.559296" style="stroke: #000000; stroke-width: 0.8"/>
      </g>
     </g>
     <g id="text_2">
      <!-- $\mathdefault{50000}$ -->
      <g transform="translate(83.242405 217.194098) scale(0.08 -0.08)">
       <use xlink:href="#CMR17-35" transform="scale(0.996264)"/>
       <use xlink:href="#CMR17-30" transform="translate(45.690477 0) scale(0.996264)"/>
       <use xlink:href="#CMR17-30" transform="translate(91.380954 0) scale(0.996264)"/>
       <use xlink:href="#CMR17-30" transform="translate(137.071431 0) scale(0.996264)"/>
       <use xlink:href="#CMR17-30" transform="translate(182.761908 0) scale(0.996264)"/>
      </g>
     </g>
    </g>
    <g id="xtick_3">
     <g id="line2d_3">
      <g>
       <use xlink:href="#me05cc8a4a5" x="113.691333" y="202.559296" style="stroke: #000000; stroke-width: 0.8"/>
      </g>
     </g>
     <g id="text_3">
      <!-- $\mathdefault{75000}$ -->
      <g transform="translate(103.105876 217.194098) scale(0.08 -0.08)">
       <defs>
        <path id="CMR17-37" d="M 2886 3941 
L 2886 4081 
L 1382 4081 
C 634 4081 621 4165 595 4288 
L 480 4288 
L 294 3094 
L 410 3094 
C 429 3215 474 3540 550 3661 
C 589 3712 1062 3712 1171 3712 
L 2579 3712 
L 1869 2661 
C 1395 1954 1069 999 1069 165 
C 1069 89 1069 -128 1299 -128 
C 1530 -128 1530 89 1530 171 
L 1530 465 
C 1530 1508 1709 2196 2003 2636 
L 2886 3941 
z
" transform="scale(0.015625)"/>
       </defs>
       <use xlink:href="#CMR17-37" transform="scale(0.996264)"/>
       <use xlink:href="#CMR17-35" transform="translate(45.690477 0) scale(0.996264)"/>
       <use xlink:href="#CMR17-30" transform="translate(91.380954 0) scale(0.996264)"/>
       <use xlink:href="#CMR17-30" transform="translate(137.071431 0) scale(0.996264)"/>
       <use xlink:href="#CMR17-30" transform="translate(182.761908 0) scale(0.996264)"/>
      </g>
     </g>
    </g>
    <g id="text_4">
     <!-- $N$ -->
     <g transform="translate(85.852819 229.662342) scale(0.1 -0.1)">
      <defs>
       <path id="CMMI12-4e" d="M 4736 3698 
C 4806 3974 4909 4166 5395 4166 
C 5414 4166 5491 4166 5491 4279 
C 5491 4352 5434 4352 5408 4352 
C 5280 4352 4954 4352 4826 4352 
L 4518 4352 
C 4429 4352 4314 4352 4224 4352 
C 4186 4352 4109 4352 4109 4230 
C 4109 4166 4160 4166 4205 4166 
C 4589 4166 4614 4019 4614 3903 
C 4614 3846 4608 3826 4589 3737 
L 3866 850 
L 2496 4249 
C 2451 4352 2445 4352 2304 4352 
L 1523 4352 
C 1395 4352 1338 4352 1338 4230 
C 1338 4166 1382 4166 1504 4166 
C 1536 4166 1914 4166 1914 4115 
C 1914 4102 1901 4051 1894 4032 
L 1043 635 
C 966 320 813 186 390 186 
C 358 186 294 186 294 67 
C 294 0 358 0 378 0 
C 506 0 832 0 960 0 
L 1267 0 
C 1357 0 1466 0 1555 0 
C 1600 0 1670 0 1670 122 
C 1670 180 1606 186 1581 186 
C 1370 186 1165 224 1165 454 
C 1165 505 1178 562 1190 613 
L 2054 4032 
C 2093 3968 2093 3956 2118 3898 
L 3642 115 
C 3674 38 3686 0 3744 0 
C 3808 0 3814 19 3840 128 
L 4736 3698 
z
" transform="scale(0.015625)"/>
      </defs>
      <use xlink:href="#CMMI12-4e" transform="scale(0.996264)"/>
     </g>
    </g>
   </g>
   <g id="matplotlib.axis_2">
    <g id="ytick_1">
     <g id="line2d_4">
      <defs>
       <path id="m9b25394acc" d="M 0 0 
L -3.5 0 
" style="stroke: #000000; stroke-width: 0.8"/>
      </defs>
      <g>
       <use xlink:href="#m9b25394acc" x="59.265421" y="191.824812" style="stroke: #000000; stroke-width: 0.8"/>
      </g>
     </g>
     <g id="text_5">
      <!-- $\mathdefault{−0.0035}$ -->
      <g transform="translate(20.055677 194.592213) scale(0.08 -0.08)">
       <defs>
        <path id="CMSY10-0" d="M 4218 1472 
C 4326 1472 4442 1472 4442 1600 
C 4442 1728 4326 1728 4218 1728 
L 755 1728 
C 646 1728 531 1728 531 1600 
C 531 1472 646 1472 755 1472 
L 4218 1472 
z
" transform="scale(0.015625)"/>
        <path id="CMMI12-3a" d="M 1178 307 
C 1178 492 1024 619 870 619 
C 685 619 557 466 557 313 
C 557 128 710 0 864 0 
C 1050 0 1178 153 1178 307 
z
" transform="scale(0.015625)"/>
        <path id="CMR17-33" d="M 1414 2157 
C 1984 2157 2234 1662 2234 1090 
C 2234 320 1824 25 1453 25 
C 1114 25 563 194 390 693 
C 422 680 454 680 486 680 
C 640 680 755 782 755 948 
C 755 1133 614 1216 486 1216 
C 378 1216 211 1165 211 926 
C 211 335 787 -128 1466 -128 
C 2176 -128 2720 430 2720 1085 
C 2720 1707 2208 2157 1600 2227 
C 2086 2328 2554 2756 2554 3329 
C 2554 3820 2048 4179 1472 4179 
C 890 4179 378 3829 378 3329 
C 378 3110 544 3072 627 3072 
C 762 3072 877 3155 877 3321 
C 877 3486 762 3569 627 3569 
C 602 3569 570 3569 544 3557 
C 730 3959 1235 4032 1459 4032 
C 1683 4032 2106 3925 2106 3320 
C 2106 3143 2080 2828 1862 2550 
C 1670 2304 1453 2304 1242 2284 
C 1210 2284 1062 2269 1037 2269 
C 992 2263 966 2257 966 2208 
C 966 2163 973 2157 1101 2157 
L 1414 2157 
z
" transform="scale(0.015625)"/>
       </defs>
       <use xlink:href="#CMSY10-0" transform="scale(0.996264)"/>
       <use xlink:href="#CMR17-30" transform="translate(77.487468 0) scale(0.996264)"/>
       <use xlink:href="#CMMI12-3a" transform="translate(123.177945 0) scale(0.996264)"/>
       <use xlink:href="#CMR17-30" transform="translate(150.275122 0) scale(0.996264)"/>
       <use xlink:href="#CMR17-30" transform="translate(195.965599 0) scale(0.996264)"/>
       <use xlink:href="#CMR17-33" transform="translate(241.656076 0) scale(0.996264)"/>
       <use xlink:href="#CMR17-35" transform="translate(287.346553 0) scale(0.996264)"/>
      </g>
     </g>
    </g>
    <g id="ytick_2">
     <g id="line2d_5">
      <g>
       <use xlink:href="#m9b25394acc" x="59.265421" y="160.985569" style="stroke: #000000; stroke-width: 0.8"/>
      </g>
     </g>
     <g id="text_6">
      <!-- $\mathdefault{−0.0030}$ -->
      <g transform="translate(20.055677 163.75297) scale(0.08 -0.08)">
       <use xlink:href="#CMSY10-0" transform="scale(0.996264)"/>
       <use xlink:href="#CMR17-30" transform="translate(77.487468 0) scale(0.996264)"/>
       <use xlink:href="#CMMI12-3a" transform="translate(123.177945 0) scale(0.996264)"/>
       <use xlink:href="#CMR17-30" transform="translate(150.275122 0) scale(0.996264)"/>
       <use xlink:href="#CMR17-30" transform="translate(195.965599 0) scale(0.996264)"/>
       <use xlink:href="#CMR17-33" transform="translate(241.656076 0) scale(0.996264)"/>
       <use xlink:href="#CMR17-30" transform="translate(287.346553 0) scale(0.996264)"/>
      </g>
     </g>
    </g>
    <g id="ytick_3">
     <g id="line2d_6">
      <g>
       <use xlink:href="#m9b25394acc" x="59.265421" y="130.146327" style="stroke: #000000; stroke-width: 0.8"/>
      </g>
     </g>
     <g id="text_7">
      <!-- $\mathdefault{−0.0025}$ -->
      <g transform="translate(20.055677 132.913728) scale(0.08 -0.08)">
       <use xlink:href="#CMSY10-0" transform="scale(0.996264)"/>
       <use xlink:href="#CMR17-30" transform="translate(77.487468 0) scale(0.996264)"/>
       <use xlink:href="#CMMI12-3a" transform="translate(123.177945 0) scale(0.996264)"/>
       <use xlink:href="#CMR17-30" transform="translate(150.275122 0) scale(0.996264)"/>
       <use xlink:href="#CMR17-30" transform="translate(195.965599 0) scale(0.996264)"/>
       <use xlink:href="#CMR17-32" transform="translate(241.656076 0) scale(0.996264)"/>
       <use xlink:href="#CMR17-35" transform="translate(287.346553 0) scale(0.996264)"/>
      </g>
     </g>
    </g>
    <g id="ytick_4">
     <g id="line2d_7">
      <g>
       <use xlink:href="#m9b25394acc" x="59.265421" y="99.307084" style="stroke: #000000; stroke-width: 0.8"/>
      </g>
     </g>
     <g id="text_8">
      <!-- $\mathdefault{−0.0020}$ -->
      <g transform="translate(20.055677 102.074485) scale(0.08 -0.08)">
       <use xlink:href="#CMSY10-0" transform="scale(0.996264)"/>
       <use xlink:href="#CMR17-30" transform="translate(77.487468 0) scale(0.996264)"/>
       <use xlink:href="#CMMI12-3a" transform="translate(123.177945 0) scale(0.996264)"/>
       <use xlink:href="#CMR17-30" transform="translate(150.275122 0) scale(0.996264)"/>
       <use xlink:href="#CMR17-30" transform="translate(195.965599 0) scale(0.996264)"/>
       <use xlink:href="#CMR17-32" transform="translate(241.656076 0) scale(0.996264)"/>
       <use xlink:href="#CMR17-30" transform="translate(287.346553 0) scale(0.996264)"/>
      </g>
     </g>
    </g>
    <g id="ytick_5">
     <g id="line2d_8">
      <g>
       <use xlink:href="#m9b25394acc" x="59.265421" y="68.467842" style="stroke: #000000; stroke-width: 0.8"/>
      </g>
     </g>
     <g id="text_9">
      <!-- $\mathdefault{−0.0015}$ -->
      <g transform="translate(20.055677 71.235243) scale(0.08 -0.08)">
       <defs>
        <path id="CMR17-31" d="M 1702 4058 
C 1702 4192 1696 4192 1606 4192 
C 1357 3916 979 3827 621 3827 
C 602 3827 570 3827 563 3808 
C 557 3795 557 3782 557 3648 
C 755 3648 1088 3686 1344 3839 
L 1344 461 
C 1344 236 1331 160 781 160 
L 589 160 
L 589 0 
C 896 0 1216 0 1523 0 
C 1830 0 2150 0 2458 0 
L 2458 160 
L 2266 160 
C 1715 160 1702 230 1702 458 
L 1702 4058 
z
" transform="scale(0.015625)"/>
       </defs>
       <use xlink:href="#CMSY10-0" transform="scale(0.996264)"/>
       <use xlink:href="#CMR17-30" transform="translate(77.487468 0) scale(0.996264)"/>
       <use xlink:href="#CMMI12-3a" transform="translate(123.177945 0) scale(0.996264)"/>
       <use xlink:href="#CMR17-30" transform="translate(150.275122 0) scale(0.996264)"/>
       <use xlink:href="#CMR17-30" transform="translate(195.965599 0) scale(0.996264)"/>
       <use xlink:href="#CMR17-31" transform="translate(241.656076 0) scale(0.996264)"/>
       <use xlink:href="#CMR17-35" transform="translate(287.346553 0) scale(0.996264)"/>
      </g>
     </g>
    </g>
    <g id="ytick_6">
     <g id="line2d_9">
      <g>
       <use xlink:href="#m9b25394acc" x="59.265421" y="37.628599" style="stroke: #000000; stroke-width: 0.8"/>
      </g>
     </g>
     <g id="text_10">
      <!-- $\mathdefault{−0.0010}$ -->
      <g transform="translate(20.055677 40.396) scale(0.08 -0.08)">
       <use xlink:href="#CMSY10-0" transform="scale(0.996264)"/>
       <use xlink:href="#CMR17-30" transform="translate(77.487468 0) scale(0.996264)"/>
       <use xlink:href="#CMMI12-3a" transform="translate(123.177945 0) scale(0.996264)"/>
       <use xlink:href="#CMR17-30" transform="translate(150.275122 0) scale(0.996264)"/>
       <use xlink:href="#CMR17-30" transform="translate(195.965599 0) scale(0.996264)"/>
       <use xlink:href="#CMR17-31" transform="translate(241.656076 0) scale(0.996264)"/>
       <use xlink:href="#CMR17-30" transform="translate(287.346553 0) scale(0.996264)"/>
      </g>
     </g>
    </g>
    <g id="text_11">
     <!-- $P$ -->
     <g transform="translate(14.118498 108.077723) rotate(-90) scale(0.1 -0.1)">
      <defs>
       <path id="CMMI12-50" d="M 1894 2023 
L 2970 2023 
C 3853 2023 4736 2673 4736 3401 
C 4736 3898 4314 4352 3507 4352 
L 1530 4352 
C 1408 4352 1350 4352 1350 4231 
C 1350 4167 1408 4167 1504 4167 
C 1894 4167 1894 4116 1894 4046 
C 1894 4034 1894 3995 1869 3899 
L 1005 472 
C 947 249 934 185 486 185 
C 365 185 301 185 301 70 
C 301 0 358 0 397 0 
C 518 0 646 0 768 0 
L 1517 0 
C 1638 0 1773 0 1894 0 
C 1946 0 2016 0 2016 121 
C 2016 185 1958 185 1862 185 
C 1478 185 1472 230 1472 293 
C 1472 325 1478 369 1485 401 
L 1894 2023 
z
M 2355 3930 
C 2413 4167 2438 4167 2688 4167 
L 3322 4167 
C 3802 4167 4198 4013 4198 3535 
C 4198 3369 4115 2827 3821 2534 
C 3712 2419 3405 2176 2822 2176 
L 1920 2176 
L 2355 3930 
z
" transform="scale(0.015625)"/>
      </defs>
      <use xlink:href="#CMMI12-50" transform="scale(0.996264)"/>
     </g>
    </g>
   </g>
   <g id="line2d_10">
    <path d="M 62.046307 148.021687 
L 62.046307 148.021687 
" clip-path="url(#p39ec14e585)" style="fill: none; stroke: #1f77b4; stroke-width: 0.5; stroke-linecap: square"/>
   </g>
   <g id="line2d_11">
    <path d="M 62.046307 166.26217 
L 62.046307 166.26217 
L 69.991696 161.698712 
L 77.937085 161.212996 
L 85.882473 160.945537 
L 93.827862 161.66909 
L 101.77325 161.9152 
L 109.718639 162.52757 
L 117.664027 162.981812 
" clip-path="url(#p39ec14e585)" style="fill: none; stroke: #ff7f0e; stroke-width: 0.5; stroke-linecap: square"/>
   </g>
   <g id="line2d_12">
    <path d="M 62.046307 145.79918 
L 62.046307 145.79918 
L 69.991696 143.152215 
L 77.937085 140.799199 
L 85.882473 143.260827 
L 93.827862 145.177961 
L 101.77325 144.621986 
L 109.718639 145.53749 
L 117.664027 146.663374 
" clip-path="url(#p39ec14e585)" style="fill: none; stroke: #2ca02c; stroke-width: 0.5; stroke-linecap: square"/>
   </g>
   <g id="line2d_13">
    <path d="M 62.046307 112.730153 
L 62.046307 112.730153 
L 69.991696 111.457721 
L 77.937085 108.86663 
L 85.882473 111.886869 
L 93.827862 113.450976 
L 101.77325 111.575811 
L 109.718639 112.771388 
L 117.664027 114.233079 
" clip-path="url(#p39ec14e585)" style="fill: none; stroke: #d62728; stroke-width: 0.5; stroke-linecap: square"/>
   </g>
   <g id="line2d_14">
    <path d="M 62.046307 74.14447 
L 62.046307 74.14447 
L 69.991696 73.387459 
L 77.937085 70.625643 
L 85.882473 73.20444 
L 93.827862 73.328819 
L 101.77325 71.498034 
L 109.718639 70.868263 
L 117.664027 70.895764 
" clip-path="url(#p39ec14e585)" style="fill: none; stroke: #9467bd; stroke-width: 0.5; stroke-linecap: square"/>
   </g>
   <g id="line2d_15">
    <path d="M 62.046307 16.515655 
L 62.046307 16.515655 
L 69.991696 20.490189 
L 77.937085 16.079968 
L 85.882473 18.694854 
L 93.827862 19.399042 
L 101.77325 18.712232 
L 109.718639 17.078088 
L 117.664027 16.461148 
" clip-path="url(#p39ec14e585)" style="fill: none; stroke: #8c564b; stroke-width: 0.5; stroke-linecap: square"/>
   </g>
   <g id="line2d_16">
    <path d="M 62.046307 174.344279 
L 62.046307 174.344279 
" clip-path="url(#p39ec14e585)" style="fill: none; stroke: #e377c2; stroke-width: 0.5; stroke-linecap: square"/>
   </g>
   <g id="line2d_17">
    <path d="M 62.046307 191.754777 
L 62.046307 191.754777 
L 69.991696 190.611476 
L 77.937085 189.819782 
L 85.882473 191.866688 
L 93.827862 193.679328 
L 101.77325 193.203822 
L 109.718639 192.376803 
L 117.664027 192.253693 
" clip-path="url(#p39ec14e585)" style="fill: none; stroke: #7f7f7f; stroke-width: 0.5; stroke-linecap: square"/>
   </g>
   <g id="line2d_18">
    <path d="M 62.046307 187.353724 
L 62.046307 187.353724 
L 69.991696 182.823713 
L 77.937085 182.30832 
L 85.882473 183.726142 
L 93.827862 185.197861 
L 101.77325 184.803279 
L 109.718639 183.905679 
L 117.664027 183.951409 
" clip-path="url(#p39ec14e585)" style="fill: none; stroke: #bcbd22; stroke-width: 0.5; stroke-linecap: square"/>
   </g>
   <g id="line2d_19">
    <path d="M 62.046307 168.340779 
L 62.046307 168.340779 
L 69.991696 163.422498 
L 77.937085 162.168363 
L 85.882473 163.206974 
L 93.827862 165.08999 
L 101.77325 163.989008 
L 109.718639 163.916916 
L 117.664027 164.227174 
" clip-path="url(#p39ec14e585)" style="fill: none; stroke: #17becf; stroke-width: 0.5; stroke-linecap: square"/>
   </g>
   <g id="line2d_20">
    <path d="M 62.046307 140.132245 
L 62.046307 140.132245 
L 69.991696 138.800407 
L 77.937085 136.564221 
L 85.882473 137.503226 
L 93.827862 139.516077 
L 101.77325 138.671653 
L 109.718639 138.734559 
L 117.664027 139.411193 
" clip-path="url(#p39ec14e585)" style="fill: none; stroke: #1f77b4; stroke-width: 0.5; stroke-linecap: square"/>
   </g>
   <g id="line2d_21">
    <path d="M 62.046307 109.996314 
L 62.046307 109.996314 
L 69.991696 109.221554 
L 77.937085 106.726771 
L 85.882473 107.058349 
L 93.827862 108.654011 
L 101.77325 108.617216 
L 109.718639 108.152072 
L 117.664027 108.795963 
" clip-path="url(#p39ec14e585)" style="fill: none; stroke: #ff7f0e; stroke-width: 0.5; stroke-linecap: square"/>
   </g>
   <g id="line2d_22">
    <path d="M 62.046307 168.884996 
L 62.046307 168.884996 
" clip-path="url(#p39ec14e585)" style="fill: none; stroke: #2ca02c; stroke-width: 0.5; stroke-linecap: square"/>
   </g>
   <g id="line2d_23">
    <path d="M 62.046307 174.955754 
L 62.046307 174.955754 
L 69.991696 177.145988 
L 77.937085 175.976238 
L 85.882473 177.161216 
L 93.827862 178.39144 
L 101.77325 177.76725 
L 109.718639 177.561887 
L 117.664027 177.234362 
" clip-path="url(#p39ec14e585)" style="fill: none; stroke: #d62728; stroke-width: 0.5; stroke-linecap: square"/>
   </g>
   <g id="line2d_24">
    <path d="M 62.046307 166.207933 
L 62.046307 166.207933 
L 69.991696 171.565276 
L 77.937085 170.654006 
L 85.882473 170.578102 
L 93.827862 171.384018 
L 101.77325 170.716923 
L 109.718639 170.668569 
L 117.664027 170.75819 
" clip-path="url(#p39ec14e585)" style="fill: none; stroke: #9467bd; stroke-width: 0.5; stroke-linecap: square"/>
   </g>
   <g id="line2d_25">
    <path d="M 62.046307 159.663027 
L 62.046307 159.663027 
L 69.991696 163.345769 
L 77.937085 160.768889 
L 85.882473 159.508925 
L 93.827862 159.780164 
L 101.77325 159.410721 
L 109.718639 158.791303 
L 117.664027 159.492105 
" clip-path="url(#p39ec14e585)" style="fill: none; stroke: #8c564b; stroke-width: 0.5; stroke-linecap: square"/>
   </g>
   <g id="line2d_26">
    <path d="M 62.046307 145.633478 
L 62.046307 145.633478 
L 69.991696 148.615867 
L 77.937085 145.090496 
L 85.882473 144.55732 
L 93.827862 145.155126 
L 101.77325 144.742571 
L 109.718639 144.266607 
L 117.664027 144.821873 
" clip-path="url(#p39ec14e585)" style="fill: none; stroke: #e377c2; stroke-width: 0.5; stroke-linecap: square"/>
   </g>
   <g id="line2d_27">
    <path d="M 62.046307 128.9972 
L 62.046307 128.9972 
L 69.991696 131.198959 
L 77.937085 128.657149 
L 85.882473 128.597619 
L 93.827862 130.205653 
L 101.77325 129.14719 
L 109.718639 128.76424 
L 117.664027 128.555259 
" clip-path="url(#p39ec14e585)" style="fill: none; stroke: #7f7f7f; stroke-width: 0.5; stroke-linecap: square"/>
   </g>
   <g id="line2d_28">
    <path d="M 62.046307 153.903314 
L 62.046307 153.903314 
" clip-path="url(#p39ec14e585)" style="fill: none; stroke: #bcbd22; stroke-width: 0.5; stroke-linecap: square"/>
   </g>
   <g id="line2d_29">
    <path d="M 62.046307 155.72148 
L 62.046307 155.72148 
L 69.991696 155.295033 
L 77.937085 157.037131 
L 85.882473 156.665194 
L 93.827862 157.467831 
L 101.77325 158.270104 
L 109.718639 157.984445 
L 117.664027 157.839641 
" clip-path="url(#p39ec14e585)" style="fill: none; stroke: #17becf; stroke-width: 0.5; stroke-linecap: square"/>
   </g>
   <g id="line2d_30">
    <path d="M 62.046307 147.499697 
L 69.991696 148.508757 
L 77.937085 151.157545 
L 85.882473 151.27104 
L 93.827862 152.003039 
L 101.77325 153.125097 
L 109.718639 152.748354 
L 117.664027 152.717623 
L 117.664027 152.717623 
" clip-path="url(#p39ec14e585)" style="fill: none; stroke: #1f77b4; stroke-width: 0.5; stroke-linecap: square"/>
   </g>
   <g id="line2d_31">
    <path d="M 62.046307 142.31137 
L 69.991696 140.596504 
L 77.937085 142.42347 
L 85.882473 142.592152 
L 93.827862 142.385583 
L 101.77325 144.22611 
L 109.718639 144.505147 
L 117.664027 144.403547 
L 117.664027 144.403547 
" clip-path="url(#p39ec14e585)" style="fill: none; stroke: #ff7f0e; stroke-width: 0.5; stroke-linecap: square"/>
   </g>
   <g id="line2d_32">
    <path d="M 62.046307 137.138796 
L 69.991696 133.669813 
L 77.937085 133.826909 
L 85.882473 134.209047 
L 93.827862 133.781183 
L 101.77325 135.766217 
L 109.718639 135.489013 
L 111.550051 135.583154 
" clip-path="url(#p39ec14e585)" style="fill: none; stroke: #2ca02c; stroke-width: 0.5; stroke-linecap: square"/>
   </g>
   <g id="line2d_33">
    <path d="M 62.046307 130.148205 
L 69.991696 124.853645 
L 77.937085 124.847417 
L 85.882473 124.870307 
L 93.827862 124.820251 
L 101.77325 126.336418 
L 109.718639 125.818519 
L 109.718639 125.818519 
" clip-path="url(#p39ec14e585)" style="fill: none; stroke: #d62728; stroke-width: 0.5; stroke-linecap: square"/>
   </g>
   <g id="patch_3">
    <path d="M 59.265421 202.559296 
L 59.265421 7.2 
" style="fill: none; stroke: #000000; stroke-width: 0.8; stroke-linejoin: miter; stroke-linecap: square"/>
   </g>
   <g id="patch_4">
    <path d="M 120.444913 202.559296 
L 120.444913 7.2 
" style="fill: none; stroke: #000000; stroke-width: 0.8; stroke-linejoin: miter; stroke-linecap: square"/>
   </g>
   <g id="patch_5">
    <path d="M 59.265421 202.559296 
L 120.444913 202.559296 
" style="fill: none; stroke: #000000; stroke-width: 0.8; stroke-linejoin: miter; stroke-linecap: square"/>
   </g>
   <g id="patch_6">
    <path d="M 59.265421 7.2 
L 120.444913 7.2 
" style="fill: none; stroke: #000000; stroke-width: 0.8; stroke-linejoin: miter; stroke-linecap: square"/>
   </g>
  </g>
  <g id="axes_2">
   <g id="patch_7">
    <path d="M 180.991462 202.559296 
L 242.170954 202.559296 
L 242.170954 7.2 
L 180.991462 7.2 
z
" style="fill: #ffffff"/>
   </g>
   <g id="matplotlib.axis_3">
    <g id="xtick_4">
     <g id="line2d_34">
      <g>
       <use xlink:href="#me05cc8a4a5" x="195.690431" y="202.559296" style="stroke: #000000; stroke-width: 0.8"/>
      </g>
     </g>
     <g id="text_12">
      <!-- $\mathdefault{25000}$ -->
      <g transform="translate(185.104973 217.194098) scale(0.08 -0.08)">
       <use xlink:href="#CMR17-32" transform="scale(0.996264)"/>
       <use xlink:href="#CMR17-35" transform="translate(45.690477 0) scale(0.996264)"/>
       <use xlink:href="#CMR17-30" transform="translate(91.380954 0) scale(0.996264)"/>
       <use xlink:href="#CMR17-30" transform="translate(137.071431 0) scale(0.996264)"/>
       <use xlink:href="#CMR17-30" transform="translate(182.761908 0) scale(0.996264)"/>
      </g>
     </g>
    </g>
    <g id="xtick_5">
     <g id="line2d_35">
      <g>
       <use xlink:href="#me05cc8a4a5" x="215.553902" y="202.559296" style="stroke: #000000; stroke-width: 0.8"/>
      </g>
     </g>
     <g id="text_13">
      <!-- $\mathdefault{50000}$ -->
      <g transform="translate(204.968445 217.194098) scale(0.08 -0.08)">
       <use xlink:href="#CMR17-35" transform="scale(0.996264)"/>
       <use xlink:href="#CMR17-30" transform="translate(45.690477 0) scale(0.996264)"/>
       <use xlink:href="#CMR17-30" transform="translate(91.380954 0) scale(0.996264)"/>
       <use xlink:href="#CMR17-30" transform="translate(137.071431 0) scale(0.996264)"/>
       <use xlink:href="#CMR17-30" transform="translate(182.761908 0) scale(0.996264)"/>
      </g>
     </g>
    </g>
    <g id="xtick_6">
     <g id="line2d_36">
      <g>
       <use xlink:href="#me05cc8a4a5" x="235.417373" y="202.559296" style="stroke: #000000; stroke-width: 0.8"/>
      </g>
     </g>
     <g id="text_14">
      <!-- $\mathdefault{75000}$ -->
      <g transform="translate(224.831916 217.194098) scale(0.08 -0.08)">
       <use xlink:href="#CMR17-37" transform="scale(0.996264)"/>
       <use xlink:href="#CMR17-35" transform="translate(45.690477 0) scale(0.996264)"/>
       <use xlink:href="#CMR17-30" transform="translate(91.380954 0) scale(0.996264)"/>
       <use xlink:href="#CMR17-30" transform="translate(137.071431 0) scale(0.996264)"/>
       <use xlink:href="#CMR17-30" transform="translate(182.761908 0) scale(0.996264)"/>
      </g>
     </g>
    </g>
    <g id="text_15">
     <!-- $N$ -->
     <g transform="translate(207.57886 229.662342) scale(0.1 -0.1)">
      <use xlink:href="#CMMI12-4e" transform="scale(0.996264)"/>
     </g>
    </g>
   </g>
   <g id="matplotlib.axis_4">
    <g id="ytick_7">
     <g id="line2d_37">
      <g>
       <use xlink:href="#m9b25394acc" x="180.991462" y="148.15758" style="stroke: #000000; stroke-width: 0.8"/>
      </g>
     </g>
     <g id="text_16">
      <!-- $\mathdefault{10^{-1}}$ -->
      <g transform="translate(154.014044 150.924981) scale(0.08 -0.08)">
       <use xlink:href="#CMR17-31" transform="scale(0.996264)"/>
       <use xlink:href="#CMR17-30" transform="translate(45.690477 0) scale(0.996264)"/>
       <use xlink:href="#CMSY10-0" transform="translate(91.380954 36.153639) scale(0.697382)"/>
       <use xlink:href="#CMR17-31" transform="translate(145.621947 36.153639) scale(0.697382)"/>
      </g>
     </g>
    </g>
    <g id="ytick_8">
     <g id="line2d_38">
      <defs>
       <path id="m58241e79c9" d="M 0 0 
L -2 0 
" style="stroke: #000000; stroke-width: 0.4"/>
      </defs>
      <g>
       <use xlink:href="#m58241e79c9" x="180.991462" y="191.755479" style="stroke: #000000; stroke-width: 0.4"/>
      </g>
     </g>
     <g id="text_17">
      <!-- $\mathdefault{6\times10^{-2}}$ -->
      <g transform="translate(143.129636 194.728233) scale(0.08 -0.08)">
       <defs>
        <path id="CMR17-36" d="M 678 2176 
C 678 3690 1395 4032 1811 4032 
C 1946 4032 2272 4009 2400 3776 
C 2298 3776 2106 3776 2106 3553 
C 2106 3381 2246 3323 2336 3323 
C 2394 3323 2566 3348 2566 3560 
C 2566 3954 2246 4179 1805 4179 
C 1043 4179 243 3390 243 1984 
C 243 253 966 -128 1478 -128 
C 2099 -128 2688 427 2688 1283 
C 2688 2081 2170 2662 1517 2662 
C 1126 2662 838 2407 678 1960 
L 678 2176 
z
M 1478 25 
C 691 25 691 1200 691 1436 
C 691 1896 909 2560 1504 2560 
C 1613 2560 1926 2560 2138 2120 
C 2253 1870 2253 1609 2253 1289 
C 2253 944 2253 690 2118 434 
C 1978 171 1773 25 1478 25 
z
" transform="scale(0.015625)"/>
        <path id="CMSY10-2" d="M 2490 1785 
L 1210 3059 
C 1133 3136 1120 3148 1069 3148 
C 1005 3148 941 3091 941 3020 
C 941 2976 954 2963 1024 2892 
L 2304 1606 
L 1024 320 
C 954 249 941 236 941 192 
C 941 121 1005 64 1069 64 
C 1120 64 1133 76 1210 153 
L 2483 1427 
L 3808 102 
C 3821 96 3866 64 3904 64 
C 3981 64 4032 121 4032 192 
C 4032 204 4032 230 4013 262 
C 4006 275 2989 1280 2669 1606 
L 3840 2777 
C 3872 2816 3968 2899 4000 2937 
C 4006 2950 4032 2976 4032 3020 
C 4032 3091 3981 3148 3904 3148 
C 3853 3148 3827 3123 3757 3052 
L 2490 1785 
z
" transform="scale(0.015625)"/>
       </defs>
       <use xlink:href="#CMR17-36" transform="scale(0.996264)"/>
       <use xlink:href="#CMSY10-2" transform="translate(67.829684 0) scale(0.996264)"/>
       <use xlink:href="#CMR17-31" transform="translate(167.456359 0) scale(0.996264)"/>
       <use xlink:href="#CMR17-30" transform="translate(213.146836 0) scale(0.996264)"/>
       <use xlink:href="#CMSY10-0" transform="translate(258.837313 36.153639) scale(0.697382)"/>
       <use xlink:href="#CMR17-32" transform="translate(313.078306 36.153639) scale(0.697382)"/>
      </g>
     </g>
    </g>
    <g id="ytick_9">
     <g id="line2d_39">
      <g>
       <use xlink:href="#m58241e79c9" x="180.991462" y="178.599041" style="stroke: #000000; stroke-width: 0.4"/>
      </g>
     </g>
    </g>
    <g id="ytick_10">
     <g id="line2d_40">
      <g>
       <use xlink:href="#m58241e79c9" x="180.991462" y="167.202416" style="stroke: #000000; stroke-width: 0.4"/>
      </g>
     </g>
    </g>
    <g id="ytick_11">
     <g id="line2d_41">
      <g>
       <use xlink:href="#m58241e79c9" x="180.991462" y="157.14988" style="stroke: #000000; stroke-width: 0.4"/>
      </g>
     </g>
    </g>
    <g id="ytick_12">
     <g id="line2d_42">
      <g>
       <use xlink:href="#m58241e79c9" x="180.991462" y="88.998917" style="stroke: #000000; stroke-width: 0.4"/>
      </g>
     </g>
     <g id="text_18">
      <!-- $\mathdefault{2\times10^{-1}}$ -->
      <g transform="translate(143.129636 91.971671) scale(0.08 -0.08)">
       <use xlink:href="#CMR17-32" transform="scale(0.996264)"/>
       <use xlink:href="#CMSY10-2" transform="translate(67.829684 0) scale(0.996264)"/>
       <use xlink:href="#CMR17-31" transform="translate(167.456359 0) scale(0.996264)"/>
       <use xlink:href="#CMR17-30" transform="translate(213.146836 0) scale(0.996264)"/>
       <use xlink:href="#CMSY10-0" transform="translate(258.837313 36.153639) scale(0.697382)"/>
       <use xlink:href="#CMR17-31" transform="translate(313.078306 36.153639) scale(0.697382)"/>
      </g>
     </g>
    </g>
    <g id="ytick_13">
     <g id="line2d_43">
      <g>
       <use xlink:href="#m58241e79c9" x="180.991462" y="54.393318" style="stroke: #000000; stroke-width: 0.4"/>
      </g>
     </g>
     <g id="text_19">
      <!-- $\mathdefault{3\times10^{-1}}$ -->
      <g transform="translate(143.129636 57.366072) scale(0.08 -0.08)">
       <use xlink:href="#CMR17-33" transform="scale(0.996264)"/>
       <use xlink:href="#CMSY10-2" transform="translate(67.829684 0) scale(0.996264)"/>
       <use xlink:href="#CMR17-31" transform="translate(167.456359 0) scale(0.996264)"/>
       <use xlink:href="#CMR17-30" transform="translate(213.146836 0) scale(0.996264)"/>
       <use xlink:href="#CMSY10-0" transform="translate(258.837313 36.153639) scale(0.697382)"/>
       <use xlink:href="#CMR17-31" transform="translate(313.078306 36.153639) scale(0.697382)"/>
      </g>
     </g>
    </g>
    <g id="ytick_14">
     <g id="line2d_44">
      <g>
       <use xlink:href="#m58241e79c9" x="180.991462" y="29.840254" style="stroke: #000000; stroke-width: 0.4"/>
      </g>
     </g>
     <g id="text_20">
      <!-- $\mathdefault{4\times10^{-1}}$ -->
      <g transform="translate(143.129636 32.813008) scale(0.08 -0.08)">
       <defs>
        <path id="CMR17-34" d="M 2150 4122 
C 2150 4256 2144 4256 2029 4256 
L 128 1254 
L 128 1088 
L 1779 1088 
L 1779 457 
C 1779 224 1766 160 1318 160 
L 1197 160 
L 1197 0 
C 1402 0 1747 0 1965 0 
C 2182 0 2528 0 2733 0 
L 2733 160 
L 2611 160 
C 2163 160 2150 224 2150 457 
L 2150 1088 
L 2803 1088 
L 2803 1254 
L 2150 1254 
L 2150 4122 
z
M 1798 3703 
L 1798 1254 
L 256 1254 
L 1798 3703 
z
" transform="scale(0.015625)"/>
       </defs>
       <use xlink:href="#CMR17-34" transform="scale(0.996264)"/>
       <use xlink:href="#CMSY10-2" transform="translate(67.829684 0) scale(0.996264)"/>
       <use xlink:href="#CMR17-31" transform="translate(167.456359 0) scale(0.996264)"/>
       <use xlink:href="#CMR17-30" transform="translate(213.146836 0) scale(0.996264)"/>
       <use xlink:href="#CMSY10-0" transform="translate(258.837313 36.153639) scale(0.697382)"/>
       <use xlink:href="#CMR17-31" transform="translate(313.078306 36.153639) scale(0.697382)"/>
      </g>
     </g>
    </g>
    <g id="ytick_15">
     <g id="line2d_45">
      <g>
       <use xlink:href="#m58241e79c9" x="180.991462" y="10.795418" style="stroke: #000000; stroke-width: 0.4"/>
      </g>
     </g>
    </g>
    <g id="text_21">
     <!-- $\eta$ -->
     <g transform="translate(137.192458 107.353024) rotate(-90) scale(0.1 -0.1)">
      <defs>
       <path id="CMMI12-11" d="M 3040 1768 
C 3072 1895 3091 1973 3091 2145 
C 3091 2528 2867 2815 2381 2815 
C 1811 2815 1510 2413 1395 2254 
C 1376 2618 1114 2815 832 2815 
C 646 2815 499 2726 378 2483 
C 262 2254 173 1864 173 1839 
C 173 1813 198 1781 243 1781 
C 294 1781 301 1788 339 1934 
C 435 2311 557 2688 813 2688 
C 960 2688 1011 2586 1011 2394 
C 1011 2254 947 2005 902 1807 
L 723 1118 
C 698 996 627 709 595 593 
C 550 428 480 127 480 96 
C 480 6 550 -64 646 -64 
C 723 -64 813 -25 864 70 
C 877 102 934 326 966 453 
L 1107 1028 
L 1318 1871 
C 1331 1909 1491 2228 1728 2432 
C 1894 2586 2112 2688 2362 2688 
C 2618 2688 2707 2496 2707 2241 
C 2707 2055 2682 1953 2650 1831 
L 1907 -1107 
C 1901 -1139 1888 -1177 1888 -1216 
C 1888 -1312 1965 -1376 2061 -1376 
C 2118 -1376 2253 -1350 2304 -1158 
L 3040 1768 
z
" transform="scale(0.015625)"/>
      </defs>
      <use xlink:href="#CMMI12-11" transform="scale(0.996264)"/>
     </g>
    </g>
   </g>
   <g id="line2d_46">
    <path d="M 183.772348 44.323195 
L 183.772348 44.323195 
" clip-path="url(#p4c736cbe43)" style="fill: none; stroke: #1f77b4; stroke-width: 0.5; stroke-linecap: square"/>
   </g>
   <g id="line2d_47">
    <path d="M 183.772348 53.30546 
L 183.772348 53.30546 
L 191.717736 53.888463 
L 199.663125 54.780007 
L 207.608513 54.869413 
L 215.553902 54.95279 
L 223.499291 54.550467 
L 231.444679 54.415326 
L 239.390068 54.212853 
" clip-path="url(#p4c736cbe43)" style="fill: none; stroke: #ff7f0e; stroke-width: 0.5; stroke-linecap: square"/>
   </g>
   <g id="line2d_48">
    <path d="M 183.772348 69.802336 
L 183.772348 69.802336 
L 191.717736 70.348661 
L 199.663125 71.746216 
L 207.608513 70.636672 
L 215.553902 70.184799 
L 223.499291 70.039602 
L 231.444679 69.83209 
L 239.390068 69.228468 
" clip-path="url(#p4c736cbe43)" style="fill: none; stroke: #2ca02c; stroke-width: 0.5; stroke-linecap: square"/>
   </g>
   <g id="line2d_49">
    <path d="M 183.772348 91.250679 
L 183.772348 91.250679 
L 191.717736 91.225836 
L 199.663125 93.362472 
L 207.608513 91.405044 
L 215.553902 90.881569 
L 223.499291 91.520257 
L 231.444679 91.132035 
L 239.390068 90.367335 
" clip-path="url(#p4c736cbe43)" style="fill: none; stroke: #d62728; stroke-width: 0.5; stroke-linecap: square"/>
   </g>
   <g id="line2d_50">
    <path d="M 183.772348 120.416052 
L 183.772348 120.416052 
L 191.717736 120.240076 
L 199.663125 122.55893 
L 207.608513 120.109975 
L 215.553902 120.330313 
L 223.499291 121.434719 
L 231.444679 122.266186 
L 239.390068 122.256293 
" clip-path="url(#p4c736cbe43)" style="fill: none; stroke: #9467bd; stroke-width: 0.5; stroke-linecap: square"/>
   </g>
   <g id="line2d_51">
    <path d="M 183.772348 193.245091 
L 183.772348 193.245091 
L 191.717736 185.059829 
L 199.663125 193.679328 
L 207.608513 188.179276 
L 215.553902 187.23435 
L 223.499291 188.386848 
L 231.444679 191.854201 
L 239.390068 193.076933 
" clip-path="url(#p4c736cbe43)" style="fill: none; stroke: #8c564b; stroke-width: 0.5; stroke-linecap: square"/>
   </g>
   <g id="line2d_52">
    <path d="M 183.772348 26.113733 
L 183.772348 26.113733 
" clip-path="url(#p4c736cbe43)" style="fill: none; stroke: #e377c2; stroke-width: 0.5; stroke-linecap: square"/>
   </g>
   <g id="line2d_53">
    <path d="M 183.772348 29.048308 
L 183.772348 29.048308 
L 191.717736 30.218119 
L 199.663125 30.809228 
L 207.608513 30.804694 
L 215.553902 30.437163 
L 223.499291 30.653969 
L 231.444679 30.894596 
L 239.390068 31.029013 
" clip-path="url(#p4c736cbe43)" style="fill: none; stroke: #7f7f7f; stroke-width: 0.5; stroke-linecap: square"/>
   </g>
   <g id="line2d_54">
    <path d="M 183.772348 36.253676 
L 183.772348 36.253676 
L 191.717736 37.789269 
L 199.663125 38.351718 
L 207.608513 38.475045 
L 215.553902 37.990824 
L 223.499291 37.951956 
L 231.444679 38.112267 
L 239.390068 38.278485 
" clip-path="url(#p4c736cbe43)" style="fill: none; stroke: #bcbd22; stroke-width: 0.5; stroke-linecap: square"/>
   </g>
   <g id="line2d_55">
    <path d="M 183.772348 45.47799 
L 183.772348 45.47799 
L 191.717736 47.423889 
L 199.663125 47.7375 
L 207.608513 47.678693 
L 215.553902 47.039886 
L 223.499291 47.276082 
L 231.444679 47.202032 
L 239.390068 47.328459 
" clip-path="url(#p4c736cbe43)" style="fill: none; stroke: #17becf; stroke-width: 0.5; stroke-linecap: square"/>
   </g>
   <g id="line2d_56">
    <path d="M 183.772348 58.3414 
L 183.772348 58.3414 
L 191.717736 59.23961 
L 199.663125 59.845395 
L 207.608513 59.802842 
L 215.553902 59.023595 
L 223.499291 59.307387 
L 231.444679 59.093484 
L 239.390068 59.132557 
" clip-path="url(#p4c736cbe43)" style="fill: none; stroke: #1f77b4; stroke-width: 0.5; stroke-linecap: square"/>
   </g>
   <g id="line2d_57">
    <path d="M 183.772348 74.485674 
L 183.772348 74.485674 
L 191.717736 75.193947 
L 199.663125 76.087337 
L 207.608513 76.434642 
L 215.553902 75.599775 
L 223.499291 75.487447 
L 231.444679 75.505212 
L 239.390068 75.517187 
" clip-path="url(#p4c736cbe43)" style="fill: none; stroke: #ff7f0e; stroke-width: 0.5; stroke-linecap: square"/>
   </g>
   <g id="line2d_58">
    <path d="M 183.772348 18.731405 
L 183.772348 18.731405 
" clip-path="url(#p4c736cbe43)" style="fill: none; stroke: #2ca02c; stroke-width: 0.5; stroke-linecap: square"/>
   </g>
   <g id="line2d_59">
    <path d="M 183.772348 22.910421 
L 183.772348 22.910421 
L 191.717736 22.113813 
L 199.663125 23.168983 
L 207.608513 23.003409 
L 215.553902 22.875953 
L 223.499291 23.189161 
L 231.444679 23.21102 
L 239.390068 23.276714 
" clip-path="url(#p4c736cbe43)" style="fill: none; stroke: #d62728; stroke-width: 0.5; stroke-linecap: square"/>
   </g>
   <g id="line2d_60">
    <path d="M 183.772348 27.024877 
L 183.772348 27.024877 
L 191.717736 25.296688 
L 199.663125 26.938781 
L 207.608513 27.543917 
L 215.553902 27.664305 
L 223.499291 28.021384 
L 231.444679 28.024583 
L 239.390068 27.989307 
" clip-path="url(#p4c736cbe43)" style="fill: none; stroke: #9467bd; stroke-width: 0.5; stroke-linecap: square"/>
   </g>
   <g id="line2d_61">
    <path d="M 183.772348 29.699135 
L 183.772348 29.699135 
L 191.717736 29.086687 
L 199.663125 31.535324 
L 207.608513 32.830902 
L 215.553902 33.032503 
L 223.499291 33.432058 
L 231.444679 33.505922 
L 239.390068 33.603352 
" clip-path="url(#p4c736cbe43)" style="fill: none; stroke: #8c564b; stroke-width: 0.5; stroke-linecap: square"/>
   </g>
   <g id="line2d_62">
    <path d="M 183.772348 36.832877 
L 183.772348 36.832877 
L 191.717736 35.660152 
L 199.663125 38.121855 
L 207.608513 39.195416 
L 215.553902 39.353993 
L 223.499291 40.060488 
L 231.444679 39.938903 
L 239.390068 40.104599 
" clip-path="url(#p4c736cbe43)" style="fill: none; stroke: #e377c2; stroke-width: 0.5; stroke-linecap: square"/>
   </g>
   <g id="line2d_63">
    <path d="M 183.772348 45.664761 
L 183.772348 45.664761 
L 191.717736 44.099033 
L 199.663125 45.991848 
L 207.608513 46.919308 
L 215.553902 46.67894 
L 223.499291 47.838082 
L 231.444679 47.855313 
L 239.390068 48.204855 
" clip-path="url(#p4c736cbe43)" style="fill: none; stroke: #7f7f7f; stroke-width: 0.5; stroke-linecap: square"/>
   </g>
   <g id="line2d_64">
    <path d="M 183.772348 16.079968 
L 183.772348 16.079968 
" clip-path="url(#p4c736cbe43)" style="fill: none; stroke: #bcbd22; stroke-width: 0.5; stroke-linecap: square"/>
   </g>
   <g id="line2d_65">
    <path d="M 183.772348 19.64262 
L 183.772348 19.64262 
L 191.717736 19.361179 
L 199.663125 19.70155 
L 207.608513 19.298703 
L 215.553902 19.300569 
L 223.499291 18.92711 
L 231.444679 18.612498 
L 239.390068 18.440933 
" clip-path="url(#p4c736cbe43)" style="fill: none; stroke: #17becf; stroke-width: 0.5; stroke-linecap: square"/>
   </g>
   <g id="line2d_66">
    <path d="M 183.772348 22.926773 
L 191.717736 23.438131 
L 199.663125 23.364193 
L 207.608513 22.970878 
L 215.553902 23.024717 
L 223.499291 22.372409 
L 231.444679 22.10703 
L 239.390068 22.039331 
L 239.390068 22.039331 
" clip-path="url(#p4c736cbe43)" style="fill: none; stroke: #1f77b4; stroke-width: 0.5; stroke-linecap: square"/>
   </g>
   <g id="line2d_67">
    <path d="M 183.772348 24.346893 
L 191.717736 26.959514 
L 199.663125 27.267563 
L 207.608513 27.227962 
L 215.553902 27.594734 
L 223.499291 26.566377 
L 231.444679 25.918073 
L 239.390068 26.082278 
L 239.390068 26.082278 
" clip-path="url(#p4c736cbe43)" style="fill: none; stroke: #ff7f0e; stroke-width: 0.5; stroke-linecap: square"/>
   </g>
   <g id="line2d_68">
    <path d="M 183.772348 27.439038 
L 191.717736 30.939169 
L 199.663125 31.318505 
L 207.608513 31.327572 
L 215.553902 31.787711 
L 223.499291 30.974278 
L 231.444679 30.271803 
L 233.276091 30.434212 
" clip-path="url(#p4c736cbe43)" style="fill: none; stroke: #2ca02c; stroke-width: 0.5; stroke-linecap: square"/>
   </g>
   <g id="line2d_69">
    <path d="M 183.772348 31.348989 
L 191.717736 35.630622 
L 199.663125 35.765498 
L 207.608513 35.926349 
L 215.553902 36.593454 
L 223.499291 36.023688 
L 231.444679 35.435345 
L 231.444679 35.435345 
" clip-path="url(#p4c736cbe43)" style="fill: none; stroke: #d62728; stroke-width: 0.5; stroke-linecap: square"/>
   </g>
   <g id="patch_8">
    <path d="M 180.991462 202.559296 
L 180.991462 7.2 
" style="fill: none; stroke: #000000; stroke-width: 0.8; stroke-linejoin: miter; stroke-linecap: square"/>
   </g>
   <g id="patch_9">
    <path d="M 242.170954 202.559296 
L 242.170954 7.2 
" style="fill: none; stroke: #000000; stroke-width: 0.8; stroke-linejoin: miter; stroke-linecap: square"/>
   </g>
   <g id="patch_10">
    <path d="M 180.991462 202.559296 
L 242.170954 202.559296 
" style="fill: none; stroke: #000000; stroke-width: 0.8; stroke-linejoin: miter; stroke-linecap: square"/>
   </g>
   <g id="patch_11">
    <path d="M 180.991462 7.2 
L 242.170954 7.2 
" style="fill: none; stroke: #000000; stroke-width: 0.8; stroke-linejoin: miter; stroke-linecap: square"/>
   </g>
  </g>
 </g>
 <defs>
  <clipPath id="p39ec14e585">
   <rect x="59.265421" y="7.2" width="61.179492" height="195.359296"/>
  </clipPath>
  <clipPath id="p4c736cbe43">
   <rect x="180.991462" y="7.2" width="61.179492" height="195.359296"/>
  </clipPath>
 </defs>
</svg>
