<?xml version="1.0" encoding="utf-8" standalone="no"?>
<!DOCTYPE svg PUBLIC "-//W3C//DTD SVG 1.1//EN"
  "http://www.w3.org/Graphics/SVG/1.1/DTD/svg11.dtd">
<svg xmlns:xlink="http://www.w3.org/1999/xlink" width="253.19952pt" height="253.19952pt" viewBox="0 0 253.19952 253.19952" xmlns="http://www.w3.org/2000/svg" version="1.1">
 <metadata>
  <rdf:RDF xmlns:dc="http://purl.org/dc/elements/1.1/" xmlns:cc="http://creativecommons.org/ns#" xmlns:rdf="http://www.w3.org/1999/02/22-rdf-syntax-ns#">
   <cc:Work>
    <dc:type rdf:resource="http://purl.org/dc/dcmitype/StillImage"/>
    <dc:date>1980-01-01T00:00:00+00:00</dc:date>
    <dc:format>image/svg+xml</dc:format>
    <dc:creator>
     <cc:Agent>
      <dc:title>Matplotlib v3.6.2, https://matplotlib.org/</dc:title>
     </cc:Agent>
    </dc:creator>
   </cc:Work>
  </rdf:RDF>
 </metadata>
 <defs>
  <style type="text/css">*{stroke-linejoin: round; stroke-linecap: butt}</style>
 </defs>
 <g id="figure_1">
  <g id="patch_1">
   <path d="M 0 253.19952 
L 253.19952 253.19952 
L 253.19952 0 
L 0 0 
z
" style="fill: #ffffff"/>
  </g>
  <g id="patch_2">
   <path d="M 7.2 245.99952 
L 245.99952 245.99952 
L 245.99952 7.2 
L 7.2 7.2 
z
" style="fill: #ffffff"/>
  </g>
  <g id="pane3d_1">
   <g id="patch_3">
    <path d="M 58.819943 147.118515 
L 149.518552 121.847368 
L 150.114014 54.194245 
L 56.597514 77.885596 
" style="fill: #f2f2f2; opacity: 0.5; stroke: #f2f2f2; stroke-width: 0.24; stroke-linejoin: miter"/>
   </g>
  </g>
  <g id="pane3d_2">
   <g id="patch_4">
    <path d="M 149.518552 121.847368 
L 202.828082 168.71828 
L 205.179179 98.173742 
L 150.114014 54.194245 
" style="fill: #e6e6e6; opacity: 0.5; stroke: #e6e6e6; stroke-width: 0.24; stroke-linejoin: miter"/>
   </g>
  </g>
  <g id="pane3d_3">
   <g id="patch_5">
    <path d="M 58.819943 147.118515 
L 108.136265 197.336358 
L 202.828082 168.71828 
L 149.518552 121.847368 
" style="fill: #ececec; opacity: 0.5; stroke: #ececec; stroke-width: 0.24; stroke-linejoin: miter"/>
   </g>
  </g>
  <g id="axis3d_1">
   <g id="line2d_1">
    <path d="M 58.819943 147.118515 
L 108.136265 197.336358 
" style="fill: none; stroke: #000000; stroke-width: 0.8; stroke-linecap: square"/>
   </g>
   <g id="text_1">
    <!-- $\delta$ -->
    <g transform="translate(55.810999 195.62433) rotate(-314.481063) scale(0.1 -0.1)">
     <defs>
      <path id="CMMI12-e" d="M 1664 2795 
C 845 2597 256 1748 256 1001 
C 256 319 717 -64 1229 -64 
C 1984 -64 2496 970 2496 1818 
C 2496 2392 2227 2744 2067 2954 
C 1830 3254 1446 3746 1446 4052 
C 1446 4161 1530 4352 1811 4352 
C 2010 4352 2131 4282 2323 4173 
C 2381 4134 2528 4052 2611 4052 
C 2746 4052 2842 4185 2842 4287 
C 2842 4409 2746 4428 2522 4479 
C 2221 4543 2131 4543 2022 4543 
C 1914 4543 1286 4543 1286 3892 
C 1286 3579 1446 3216 1664 2795 
z
M 1734 2669 
C 1978 2165 2074 1974 2074 1560 
C 2074 1063 1805 63 1235 63 
C 986 63 627 229 627 821 
C 627 1235 864 2439 1734 2669 
z
" transform="scale(0.015625)"/>
     </defs>
     <use xlink:href="#CMMI12-e" transform="scale(0.996264)"/>
    </g>
   </g>
   <g id="Line3DCollection_1">
    <path d="M 65.185868 153.600812 
L 156.412793 127.908937 
L 157.223483 59.872442 
" style="fill: none; stroke: #b0b0b0; stroke-width: 0.8"/>
    <path d="M 72.095558 160.636813 
L 163.891605 134.484472 
L 164.939737 66.035267 
" style="fill: none; stroke: #b0b0b0; stroke-width: 0.8"/>
    <path d="M 79.13178 167.80166 
L 171.502754 141.176362 
L 172.796769 72.310528 
" style="fill: none; stroke: #b0b0b0; stroke-width: 0.8"/>
    <path d="M 86.298043 175.098925 
L 179.249784 147.987721 
L 180.798467 78.701332 
" style="fill: none; stroke: #b0b0b0; stroke-width: 0.8"/>
    <path d="M 93.597986 182.532313 
L 187.136367 154.921779 
L 188.948865 85.210899 
" style="fill: none; stroke: #b0b0b0; stroke-width: 0.8"/>
    <path d="M 101.035384 190.10567 
L 195.166308 161.98188 
L 197.252146 91.842571 
" style="fill: none; stroke: #b0b0b0; stroke-width: 0.8"/>
   </g>
   <g id="xtick_1">
    <g id="line2d_2">
     <path d="M 65.940485 153.388292 
L 63.675394 154.026201 
" style="fill: none; stroke: #000000; stroke-width: 0.8; stroke-linecap: square"/>
    </g>
    <g id="text_2">
     <!-- $\mathdefault{0.2}$ -->
     <g transform="translate(49.670602 169.426165) scale(0.08 -0.08)">
      <defs>
       <path id="CMR17-30" d="M 2688 2025 
C 2688 2416 2682 3080 2413 3591 
C 2176 4039 1798 4198 1466 4198 
C 1158 4198 768 4058 525 3597 
C 269 3118 243 2524 243 2025 
C 243 1661 250 1106 448 619 
C 723 -39 1216 -128 1466 -128 
C 1760 -128 2208 -7 2470 600 
C 2662 1042 2688 1559 2688 2025 
z
M 1466 -26 
C 1056 -26 813 325 723 812 
C 653 1188 653 1738 653 2096 
C 653 2588 653 2997 736 3387 
C 858 3929 1216 4096 1466 4096 
C 1728 4096 2067 3923 2189 3400 
C 2272 3036 2278 2607 2278 2096 
C 2278 1680 2278 1169 2202 792 
C 2067 95 1690 -26 1466 -26 
z
" transform="scale(0.015625)"/>
       <path id="CMMI12-3a" d="M 1178 307 
C 1178 492 1024 619 870 619 
C 685 619 557 466 557 313 
C 557 128 710 0 864 0 
C 1050 0 1178 153 1178 307 
z
" transform="scale(0.015625)"/>
       <path id="CMR17-32" d="M 2669 989 
L 2554 989 
C 2490 536 2438 459 2413 420 
C 2381 369 1920 369 1830 369 
L 602 369 
C 832 619 1280 1072 1824 1597 
C 2214 1967 2669 2402 2669 3035 
C 2669 3790 2067 4224 1395 4224 
C 691 4224 262 3604 262 3030 
C 262 2780 448 2748 525 2748 
C 589 2748 781 2787 781 3010 
C 781 3207 614 3264 525 3264 
C 486 3264 448 3258 422 3245 
C 544 3790 915 4058 1306 4058 
C 1862 4058 2227 3617 2227 3035 
C 2227 2479 1901 2000 1536 1584 
L 262 146 
L 262 0 
L 2515 0 
L 2669 989 
z
" transform="scale(0.015625)"/>
      </defs>
      <use xlink:href="#CMR17-30" transform="scale(0.996264)"/>
      <use xlink:href="#CMMI12-3a" transform="translate(45.690477 0) scale(0.996264)"/>
      <use xlink:href="#CMR17-32" transform="translate(72.787654 0) scale(0.996264)"/>
     </g>
    </g>
   </g>
   <g id="xtick_2">
    <g id="line2d_3">
     <path d="M 72.855108 160.42042 
L 70.575196 161.069958 
" style="fill: none; stroke: #000000; stroke-width: 0.8; stroke-linecap: square"/>
    </g>
    <g id="text_3">
     <!-- $\mathdefault{0.3}$ -->
     <g transform="translate(56.491363 176.558415) scale(0.08 -0.08)">
      <defs>
       <path id="CMR17-33" d="M 1414 2157 
C 1984 2157 2234 1662 2234 1090 
C 2234 320 1824 25 1453 25 
C 1114 25 563 194 390 693 
C 422 680 454 680 486 680 
C 640 680 755 782 755 948 
C 755 1133 614 1216 486 1216 
C 378 1216 211 1165 211 926 
C 211 335 787 -128 1466 -128 
C 2176 -128 2720 430 2720 1085 
C 2720 1707 2208 2157 1600 2227 
C 2086 2328 2554 2756 2554 3329 
C 2554 3820 2048 4179 1472 4179 
C 890 4179 378 3829 378 3329 
C 378 3110 544 3072 627 3072 
C 762 3072 877 3155 877 3321 
C 877 3486 762 3569 627 3569 
C 602 3569 570 3569 544 3557 
C 730 3959 1235 4032 1459 4032 
C 1683 4032 2106 3925 2106 3320 
C 2106 3143 2080 2828 1862 2550 
C 1670 2304 1453 2304 1242 2284 
C 1210 2284 1062 2269 1037 2269 
C 992 2263 966 2257 966 2208 
C 966 2163 973 2157 1101 2157 
L 1414 2157 
z
" transform="scale(0.015625)"/>
      </defs>
      <use xlink:href="#CMR17-30" transform="scale(0.996264)"/>
      <use xlink:href="#CMMI12-3a" transform="translate(45.690477 0) scale(0.996264)"/>
      <use xlink:href="#CMR17-33" transform="translate(72.787654 0) scale(0.996264)"/>
     </g>
    </g>
   </g>
   <g id="xtick_3">
    <g id="line2d_4">
     <path d="M 79.896319 167.581287 
L 77.60142 168.242776 
" style="fill: none; stroke: #000000; stroke-width: 0.8; stroke-linecap: square"/>
    </g>
    <g id="text_4">
     <!-- $\mathdefault{0.4}$ -->
     <g transform="translate(63.43708 183.821326) scale(0.08 -0.08)">
      <defs>
       <path id="CMR17-34" d="M 2150 4122 
C 2150 4256 2144 4256 2029 4256 
L 128 1254 
L 128 1088 
L 1779 1088 
L 1779 457 
C 1779 224 1766 160 1318 160 
L 1197 160 
L 1197 0 
C 1402 0 1747 0 1965 0 
C 2182 0 2528 0 2733 0 
L 2733 160 
L 2611 160 
C 2163 160 2150 224 2150 457 
L 2150 1088 
L 2803 1088 
L 2803 1254 
L 2150 1254 
L 2150 4122 
z
M 1798 3703 
L 1798 1254 
L 256 1254 
L 1798 3703 
z
" transform="scale(0.015625)"/>
      </defs>
      <use xlink:href="#CMR17-30" transform="scale(0.996264)"/>
      <use xlink:href="#CMMI12-3a" transform="translate(45.690477 0) scale(0.996264)"/>
      <use xlink:href="#CMR17-34" transform="translate(72.787654 0) scale(0.996264)"/>
     </g>
    </g>
   </g>
   <g id="xtick_4">
    <g id="line2d_5">
     <path d="M 87.067627 174.874461 
L 84.757574 175.548233 
" style="fill: none; stroke: #000000; stroke-width: 0.8; stroke-linecap: square"/>
    </g>
    <g id="text_5">
     <!-- $\mathdefault{0.5}$ -->
     <g transform="translate(70.511217 191.218523) scale(0.08 -0.08)">
      <defs>
       <path id="CMR17-35" d="M 730 3692 
C 794 3666 1056 3584 1325 3584 
C 1920 3584 2246 3911 2432 4100 
C 2432 4157 2432 4192 2394 4192 
C 2387 4192 2374 4192 2323 4163 
C 2099 4058 1837 3973 1517 3973 
C 1325 3973 1037 3999 723 4139 
C 653 4171 640 4171 634 4171 
C 602 4171 595 4164 595 4037 
L 595 2203 
C 595 2089 595 2057 659 2057 
C 691 2057 704 2070 736 2114 
C 941 2401 1222 2522 1542 2522 
C 1766 2522 2246 2382 2246 1289 
C 2246 1085 2246 715 2054 421 
C 1894 159 1645 25 1370 25 
C 947 25 518 320 403 814 
C 429 807 480 795 506 795 
C 589 795 749 840 749 1038 
C 749 1210 627 1280 506 1280 
C 358 1280 262 1190 262 1011 
C 262 454 704 -128 1382 -128 
C 2042 -128 2669 440 2669 1264 
C 2669 2030 2170 2624 1549 2624 
C 1222 2624 947 2503 730 2274 
L 730 3692 
z
" transform="scale(0.015625)"/>
      </defs>
      <use xlink:href="#CMR17-30" transform="scale(0.996264)"/>
      <use xlink:href="#CMMI12-3a" transform="translate(45.690477 0) scale(0.996264)"/>
      <use xlink:href="#CMR17-35" transform="translate(72.787654 0) scale(0.996264)"/>
     </g>
    </g>
   </g>
   <g id="xtick_5">
    <g id="line2d_6">
     <path d="M 94.37267 182.303643 
L 92.047294 182.990045 
" style="fill: none; stroke: #000000; stroke-width: 0.8; stroke-linecap: square"/>
    </g>
    <g id="text_6">
     <!-- $\mathdefault{0.6}$ -->
     <g transform="translate(77.717371 198.753765) scale(0.08 -0.08)">
      <defs>
       <path id="CMR17-36" d="M 678 2176 
C 678 3690 1395 4032 1811 4032 
C 1946 4032 2272 4009 2400 3776 
C 2298 3776 2106 3776 2106 3553 
C 2106 3381 2246 3323 2336 3323 
C 2394 3323 2566 3348 2566 3560 
C 2566 3954 2246 4179 1805 4179 
C 1043 4179 243 3390 243 1984 
C 243 253 966 -128 1478 -128 
C 2099 -128 2688 427 2688 1283 
C 2688 2081 2170 2662 1517 2662 
C 1126 2662 838 2407 678 1960 
L 678 2176 
z
M 1478 25 
C 691 25 691 1200 691 1436 
C 691 1896 909 2560 1504 2560 
C 1613 2560 1926 2560 2138 2120 
C 2253 1870 2253 1609 2253 1289 
C 2253 944 2253 690 2118 434 
C 1978 171 1773 25 1478 25 
z
" transform="scale(0.015625)"/>
      </defs>
      <use xlink:href="#CMR17-30" transform="scale(0.996264)"/>
      <use xlink:href="#CMMI12-3a" transform="translate(45.690477 0) scale(0.996264)"/>
      <use xlink:href="#CMR17-36" transform="translate(72.787654 0) scale(0.996264)"/>
     </g>
    </g>
   </g>
   <g id="xtick_6">
    <g id="line2d_7">
     <path d="M 101.815226 189.872674 
L 99.474356 190.572063 
" style="fill: none; stroke: #000000; stroke-width: 0.8; stroke-linecap: square"/>
    </g>
    <g id="text_7">
     <!-- $\mathdefault{0.7}$ -->
     <g transform="translate(85.059271 206.430953) scale(0.08 -0.08)">
      <defs>
       <path id="CMR17-37" d="M 2886 3941 
L 2886 4081 
L 1382 4081 
C 634 4081 621 4165 595 4288 
L 480 4288 
L 294 3094 
L 410 3094 
C 429 3215 474 3540 550 3661 
C 589 3712 1062 3712 1171 3712 
L 2579 3712 
L 1869 2661 
C 1395 1954 1069 999 1069 165 
C 1069 89 1069 -128 1299 -128 
C 1530 -128 1530 89 1530 171 
L 1530 465 
C 1530 1508 1709 2196 2003 2636 
L 2886 3941 
z
" transform="scale(0.015625)"/>
      </defs>
      <use xlink:href="#CMR17-30" transform="scale(0.996264)"/>
      <use xlink:href="#CMMI12-3a" transform="translate(45.690477 0) scale(0.996264)"/>
      <use xlink:href="#CMR17-37" transform="translate(72.787654 0) scale(0.996264)"/>
     </g>
    </g>
   </g>
  </g>
  <g id="axis3d_2">
   <g id="line2d_8">
    <path d="M 202.828082 168.71828 
L 108.136265 197.336358 
" style="fill: none; stroke: #000000; stroke-width: 0.8; stroke-linecap: square"/>
   </g>
   <g id="text_8">
    <!-- $\Theta$ -->
    <g transform="translate(164.23124 210.703169) rotate(-16.816043) scale(0.1 -0.1)">
     <defs>
      <path id="CMR17-2" d="M 4307 2153 
C 4307 3467 3366 4455 2304 4455 
C 1216 4455 294 3454 294 2153 
C 294 852 1229 -128 2298 -128 
C 3392 -128 4307 872 4307 2153 
z
M 2304 -20 
C 1574 -20 762 673 762 2153 
C 762 3679 1600 4352 2298 4352 
C 3021 4352 3840 3660 3840 2153 
C 3840 653 3008 -20 2304 -20 
z
M 3501 2560 
L 3386 2560 
L 3386 2342 
L 1216 2342 
L 1216 2560 
L 1101 2560 
L 1101 1766 
L 1216 1766 
L 1216 1984 
L 3386 1984 
L 3386 1766 
L 3501 1766 
L 3501 2560 
z
" transform="scale(0.015625)"/>
     </defs>
     <use xlink:href="#CMR17-2" transform="scale(0.996264)"/>
    </g>
   </g>
   <g id="Line3DCollection_2">
    <path d="M 73.215817 73.675536 
L 74.923873 142.631513 
L 124.97887 192.24613 
" style="fill: none; stroke: #b0b0b0; stroke-width: 0.8"/>
    <path d="M 93.923689 68.42943 
L 94.999025 137.03802 
L 145.956896 185.90608 
" style="fill: none; stroke: #b0b0b0; stroke-width: 0.8"/>
    <path d="M 114.321527 63.261868 
L 114.782553 131.52578 
L 166.61071 179.664016 
" style="fill: none; stroke: #b0b0b0; stroke-width: 0.8"/>
    <path d="M 134.416241 58.171098 
L 134.280764 126.093038 
L 186.947771 173.517681 
" style="fill: none; stroke: #b0b0b0; stroke-width: 0.8"/>
   </g>
   <g id="xtick_7">
    <g id="line2d_9">
     <path d="M 124.552664 191.823673 
L 125.832612 193.09236 
" style="fill: none; stroke: #000000; stroke-width: 0.8; stroke-linecap: square"/>
    </g>
    <g id="text_9">
     <!-- $\mathdefault{35}$ -->
     <g transform="translate(126.611309 211.219257) scale(0.08 -0.08)">
      <use xlink:href="#CMR17-33" transform="scale(0.996264)"/>
      <use xlink:href="#CMR17-35" transform="translate(45.690477 0) scale(0.996264)"/>
     </g>
    </g>
   </g>
   <g id="xtick_8">
    <g id="line2d_10">
     <path d="M 145.523206 185.490176 
L 146.825618 186.739175 
" style="fill: none; stroke: #000000; stroke-width: 0.8; stroke-linecap: square"/>
    </g>
    <g id="text_10">
     <!-- $\mathdefault{50}$ -->
     <g transform="translate(147.618331 204.751562) scale(0.08 -0.08)">
      <use xlink:href="#CMR17-35" transform="scale(0.996264)"/>
      <use xlink:href="#CMR17-30" transform="translate(45.690477 0) scale(0.996264)"/>
     </g>
    </g>
   </g>
   <g id="xtick_9">
    <g id="line2d_11">
     <path d="M 166.169818 179.254513 
L 167.493848 180.484278 
" style="fill: none; stroke: #000000; stroke-width: 0.8; stroke-linecap: square"/>
    </g>
    <g id="text_11">
     <!-- $\mathdefault{65}$ -->
     <g transform="translate(168.299543 198.384179) scale(0.08 -0.08)">
      <use xlink:href="#CMR17-36" transform="scale(0.996264)"/>
      <use xlink:href="#CMR17-35" transform="translate(45.690477 0) scale(0.996264)"/>
     </g>
    </g>
   </g>
   <g id="xtick_10">
    <g id="line2d_12">
     <path d="M 186.499948 173.114433 
L 187.844782 174.325406 
" style="fill: none; stroke: #000000; stroke-width: 0.8; stroke-linecap: square"/>
    </g>
    <g id="text_12">
     <!-- $\mathdefault{80}$ -->
     <g transform="translate(188.662468 192.11479) scale(0.08 -0.08)">
      <defs>
       <path id="CMR17-38" d="M 1741 2264 
C 2144 2467 2554 2773 2554 3263 
C 2554 3841 1990 4179 1472 4179 
C 890 4179 378 3759 378 3180 
C 378 3021 416 2747 666 2505 
C 730 2442 998 2251 1171 2130 
C 883 1983 211 1634 211 934 
C 211 279 838 -128 1459 -128 
C 2144 -128 2720 362 2720 1010 
C 2720 1590 2330 1857 2074 2029 
L 1741 2264 
z
M 902 2822 
C 851 2854 595 3051 595 3351 
C 595 3739 998 4032 1459 4032 
C 1965 4032 2336 3676 2336 3262 
C 2336 2669 1670 2331 1638 2331 
C 1632 2331 1626 2331 1574 2370 
L 902 2822 
z
M 2080 1519 
C 2176 1449 2483 1240 2483 851 
C 2483 381 2010 25 1472 25 
C 890 25 448 438 448 940 
C 448 1443 838 1862 1280 2060 
L 2080 1519 
z
" transform="scale(0.015625)"/>
      </defs>
      <use xlink:href="#CMR17-38" transform="scale(0.996264)"/>
      <use xlink:href="#CMR17-30" transform="translate(45.690477 0) scale(0.996264)"/>
     </g>
    </g>
   </g>
  </g>
  <g id="axis3d_3">
   <g id="line2d_13">
    <path d="M 202.828082 168.71828 
L 205.179179 98.173742 
" style="fill: none; stroke: #000000; stroke-width: 0.8; stroke-linecap: square"/>
   </g>
   <g id="text_13">
    <!-- $\eta$ -->
    <g transform="translate(236.804053 140.920242) rotate(-88.091162) scale(0.1 -0.1)">
     <defs>
      <path id="CMMI12-11" d="M 3040 1768 
C 3072 1895 3091 1973 3091 2145 
C 3091 2528 2867 2815 2381 2815 
C 1811 2815 1510 2413 1395 2254 
C 1376 2618 1114 2815 832 2815 
C 646 2815 499 2726 378 2483 
C 262 2254 173 1864 173 1839 
C 173 1813 198 1781 243 1781 
C 294 1781 301 1788 339 1934 
C 435 2311 557 2688 813 2688 
C 960 2688 1011 2586 1011 2394 
C 1011 2254 947 2005 902 1807 
L 723 1118 
C 698 996 627 709 595 593 
C 550 428 480 127 480 96 
C 480 6 550 -64 646 -64 
C 723 -64 813 -25 864 70 
C 877 102 934 326 966 453 
L 1107 1028 
L 1318 1871 
C 1331 1909 1491 2228 1728 2432 
C 1894 2586 2112 2688 2362 2688 
C 2618 2688 2707 2496 2707 2241 
C 2707 2055 2682 1953 2650 1831 
L 1907 -1107 
C 1901 -1139 1888 -1177 1888 -1216 
C 1888 -1312 1965 -1376 2061 -1376 
C 2118 -1376 2253 -1350 2304 -1158 
L 3040 1768 
z
" transform="scale(0.015625)"/>
     </defs>
     <use xlink:href="#CMMI12-11" transform="scale(0.996264)"/>
    </g>
   </g>
   <g id="Line3DCollection_3">
    <path d="M 202.873665 167.350558 
L 149.530119 120.533249 
L 58.776817 145.775064 
" style="fill: none; stroke: #b0b0b0; stroke-width: 0.8"/>
    <path d="M 203.337898 153.421288 
L 149.647866 107.155427 
L 58.337696 132.095592 
" style="fill: none; stroke: #b0b0b0; stroke-width: 0.8"/>
    <path d="M 203.808069 139.313837 
L 149.767029 93.616752 
L 57.893113 118.245979 
" style="fill: none; stroke: #b0b0b0; stroke-width: 0.8"/>
    <path d="M 204.284293 125.024764 
L 149.887634 79.914304 
L 57.442966 104.223029 
" style="fill: none; stroke: #b0b0b0; stroke-width: 0.8"/>
    <path d="M 204.766687 110.550539 
L 150.009707 66.045095 
L 56.987149 90.023467 
" style="fill: none; stroke: #b0b0b0; stroke-width: 0.8"/>
   </g>
   <g id="xtick_11">
    <g id="line2d_14">
     <path d="M 202.420234 166.952601 
L 203.781901 168.147677 
" style="fill: none; stroke: #000000; stroke-width: 0.8; stroke-linecap: square"/>
    </g>
    <g id="text_14">
     <!-- $\mathdefault{0}$ -->
     <g transform="translate(217.005916 175.318359) scale(0.08 -0.08)">
      <use xlink:href="#CMR17-30" transform="scale(0.996264)"/>
     </g>
    </g>
   </g>
   <g id="xtick_12">
    <g id="line2d_15">
     <path d="M 202.881351 153.027871 
L 204.252383 154.20932 
" style="fill: none; stroke: #000000; stroke-width: 0.8; stroke-linecap: square"/>
    </g>
    <g id="text_15">
     <!-- $\mathdefault{10}$ -->
     <g transform="translate(215.458087 161.361385) scale(0.08 -0.08)">
      <defs>
       <path id="CMR17-31" d="M 1702 4058 
C 1702 4192 1696 4192 1606 4192 
C 1357 3916 979 3827 621 3827 
C 602 3827 570 3827 563 3808 
C 557 3795 557 3782 557 3648 
C 755 3648 1088 3686 1344 3839 
L 1344 461 
C 1344 236 1331 160 781 160 
L 589 160 
L 589 0 
C 896 0 1216 0 1523 0 
C 1830 0 2150 0 2458 0 
L 2458 160 
L 2266 160 
C 1715 160 1702 230 1702 458 
L 1702 4058 
z
" transform="scale(0.015625)"/>
      </defs>
      <use xlink:href="#CMR17-31" transform="scale(0.996264)"/>
      <use xlink:href="#CMR17-30" transform="translate(45.690477 0) scale(0.996264)"/>
     </g>
    </g>
   </g>
   <g id="xtick_13">
    <g id="line2d_16">
     <path d="M 203.348363 138.92511 
L 204.72889 140.092483 
" style="fill: none; stroke: #000000; stroke-width: 0.8; stroke-linecap: square"/>
    </g>
    <g id="text_16">
     <!-- $\mathdefault{20}$ -->
     <g transform="translate(216.034653 147.225318) scale(0.08 -0.08)">
      <use xlink:href="#CMR17-32" transform="scale(0.996264)"/>
      <use xlink:href="#CMR17-30" transform="translate(45.690477 0) scale(0.996264)"/>
     </g>
    </g>
   </g>
   <g id="xtick_14">
    <g id="line2d_17">
     <path d="M 203.821385 124.64088 
L 205.211538 125.793717 
" style="fill: none; stroke: #000000; stroke-width: 0.8; stroke-linecap: square"/>
    </g>
    <g id="text_17">
     <!-- $\mathdefault{30}$ -->
     <g transform="translate(216.618666 132.906689) scale(0.08 -0.08)">
      <use xlink:href="#CMR17-33" transform="scale(0.996264)"/>
      <use xlink:href="#CMR17-30" transform="translate(45.690477 0) scale(0.996264)"/>
     </g>
    </g>
   </g>
   <g id="xtick_15">
    <g id="line2d_18">
     <path d="M 204.300533 110.171657 
L 205.700446 111.309481 
" style="fill: none; stroke: #000000; stroke-width: 0.8; stroke-linecap: square"/>
    </g>
    <g id="text_18">
     <!-- $\mathdefault{40}$ -->
     <g transform="translate(217.21027 118.401938) scale(0.08 -0.08)">
      <use xlink:href="#CMR17-34" transform="scale(0.996264)"/>
      <use xlink:href="#CMR17-30" transform="translate(45.690477 0) scale(0.996264)"/>
     </g>
    </g>
   </g>
  </g>
  <g id="axes_1">
   <g id="Poly3DCollection_1">
    <path d="M 127.703742 130.343434 
L 147.123911 124.914988 
L 154.508992 131.453406 
L 134.971701 136.977676 
z
" clip-path="url(#p53c1288c84)" style="fill: #808512"/>
    <path d="M 107.999174 135.851377 
L 127.703742 130.343434 
L 134.971701 136.977676 
L 115.145755 142.583564 
z
" clip-path="url(#p53c1288c84)" style="fill: #847914"/>
    <path d="M 134.971701 136.977676 
L 154.508992 131.453406 
L 162.024533 138.107327 
L 142.369002 143.72998 
z
" clip-path="url(#p53c1288c84)" style="fill: #837b14"/>
    <path d="M 127.703742 130.343434 
L 127.64131 64.802619 
L 147.628784 59.702512 
L 147.123911 124.914988 
z
" clip-path="url(#p53c1288c84)" style="fill: #d4dc1e"/>
    <path d="M 147.123911 124.914988 
L 147.628784 59.702512 
L 155.235916 65.845721 
L 154.508992 131.453406 
z
" clip-path="url(#p53c1288c84)" style="fill: #64680e"/>
    <path d="M 88.003913 141.440576 
L 107.999174 135.851377 
L 115.145755 142.583564 
L 95.024707 148.272894 
z
" clip-path="url(#p53c1288c84)" style="fill: #876716"/>
    <path d="M 115.145755 142.583564 
L 134.971701 136.977676 
L 142.369002 143.72998 
L 122.420465 149.436451 
z
" clip-path="url(#p53c1288c84)" style="fill: #876d14"/>
    <path d="M 107.999174 135.851377 
L 107.382994 73.089927 
L 127.644257 67.896658 
L 127.703742 130.343434 
z
" clip-path="url(#p53c1288c84)" style="fill: #dbc821"/>
    <path d="M 127.703742 130.343434 
L 127.644257 67.896658 
L 135.117161 74.152142 
L 134.971701 136.977676 
z
" clip-path="url(#p53c1288c84)" style="fill: #675e10"/>
    <path d="M 142.369002 143.72998 
L 162.024533 138.107327 
L 169.674023 144.87984 
L 149.899128 150.603529 
z
" clip-path="url(#p53c1288c84)" style="fill: #867113"/>
    <path d="M 127.703742 130.343434 
L 134.971701 136.977676 
L 135.12437 71.03853 
L 127.64131 64.802619 
z
" clip-path="url(#p53c1288c84)" style="fill: #d4dc1e"/>
    <path d="M 134.971701 136.977676 
L 135.118597 73.531984 
L 155.208433 68.326126 
L 154.508992 131.453406 
z
" clip-path="url(#p53c1288c84)" style="fill: #d9cd22"/>
    <path d="M 134.971701 136.977676 
L 154.508992 131.453406 
L 155.235916 65.845721 
L 135.12437 71.03853 
z
" clip-path="url(#p53c1288c84)" style="fill: #64680e"/>
    <path d="M 154.508992 131.453406 
L 155.208433 68.326126 
L 162.945239 74.59679 
L 162.024533 138.107327 
z
" clip-path="url(#p53c1288c84)" style="fill: #666010"/>
    <path d="M 67.71148 147.112843 
L 88.003913 141.440576 
L 95.024707 148.272894 
L 74.60192 154.047543 
z
" clip-path="url(#p53c1288c84)" style="fill: #7f422b"/>
    <path d="M 88.003913 141.440576 
L 86.904007 83.117532 
L 107.429439 77.820649 
L 107.999174 135.851377 
z
" clip-path="url(#p53c1288c84)" style="fill: #e0ab24"/>
    <path d="M 95.024707 148.272894 
L 115.145755 142.583564 
L 122.420465 149.436451 
L 102.17232 155.228627 
z
" clip-path="url(#p53c1288c84)" style="fill: #875a1c"/>
    <path d="M 107.999174 135.851377 
L 107.429439 77.820649 
L 114.759063 84.200993 
L 115.145755 142.583564 
z
" clip-path="url(#p53c1288c84)" style="fill: #6a5111"/>
    <path d="M 107.999174 135.851377 
L 115.145755 142.583564 
L 114.727531 79.440394 
L 107.382994 73.089927 
z
" clip-path="url(#p53c1288c84)" style="fill: #dbc821"/>
    <path d="M 122.420465 149.436451 
L 142.369002 143.72998 
L 149.899128 150.603529 
L 129.826781 156.413312 
z
" clip-path="url(#p53c1288c84)" style="fill: #876118"/>
    <path d="M 115.145755 142.583564 
L 114.747299 82.424845 
L 135.110288 77.120989 
L 134.971701 136.977676 
z
" clip-path="url(#p53c1288c84)" style="fill: #dfb521"/>
    <path d="M 115.145755 142.583564 
L 134.971701 136.977676 
L 135.117161 74.152142 
L 114.727531 79.440394 
z
" clip-path="url(#p53c1288c84)" style="fill: #675e10"/>
    <path d="M 134.971701 136.977676 
L 135.110288 77.120989 
L 142.709934 83.509755 
L 142.369002 143.72998 
z
" clip-path="url(#p53c1288c84)" style="fill: #695510"/>
    <path d="M 149.899128 150.603529 
L 169.674023 144.87984 
L 177.461073 151.774143 
L 157.565688 157.601615 
z
" clip-path="url(#p53c1288c84)" style="fill: #876616"/>
    <path d="M 134.971701 136.977676 
L 142.369002 143.72998 
L 142.730381 79.898034 
L 135.118597 73.531984 
z
" clip-path="url(#p53c1288c84)" style="fill: #d9cd22"/>
    <path d="M 142.369002 143.72998 
L 142.71505 82.606052 
L 162.906186 77.290626 
L 162.024533 138.107327 
z
" clip-path="url(#p53c1288c84)" style="fill: #debb20"/>
    <path d="M 142.369002 143.72998 
L 162.024533 138.107327 
L 162.945239 74.59679 
L 142.730381 79.898034 
z
" clip-path="url(#p53c1288c84)" style="fill: #666010"/>
    <path d="M 162.024533 138.107327 
L 162.906186 77.290626 
L 170.77513 83.693347 
L 169.674023 144.87984 
z
" clip-path="url(#p53c1288c84)" style="fill: #69580f"/>
    <path d="M 67.71148 147.112843 
L 66.378521 99.644485 
L 87.11318 94.209008 
L 88.003913 141.440576 
z
" clip-path="url(#p53c1288c84)" style="fill: #d36e47"/>
    <path d="M 88.003913 141.440576 
L 87.11318 94.209008 
L 94.276724 100.756321 
L 95.024707 148.272894 
z
" clip-path="url(#p53c1288c84)" style="fill: #633422"/>
    <path d="M 127.64131 64.802619 
L 135.12437 71.03853 
L 155.235916 65.845721 
L 147.628784 59.702512 
z
" clip-path="url(#p53c1288c84)" style="fill: #b8bf1a"/>
    <path d="M 74.60192 154.047543 
L 95.024707 148.272894 
L 102.17232 155.228627 
L 81.617766 161.108454 
z
" clip-path="url(#p53c1288c84)" style="fill: #763236"/>
    <path d="M 95.024707 148.272894 
L 94.157627 93.190534 
L 114.782751 87.777502 
L 115.145755 142.583564 
z
" clip-path="url(#p53c1288c84)" style="fill: #df962e"/>
    <path d="M 88.003913 141.440576 
L 95.024707 148.272894 
L 94.101032 89.59529 
L 86.904007 83.117532 
z
" clip-path="url(#p53c1288c84)" style="fill: #e0ab24"/>
    <path d="M 115.145755 142.583564 
L 114.782751 87.777502 
L 122.235653 94.297829 
L 122.420465 149.436451 
z
" clip-path="url(#p53c1288c84)" style="fill: #694716"/>
    <path d="M 95.024707 148.272894 
L 115.145755 142.583564 
L 114.759063 84.200993 
L 94.101032 89.59529 
z
" clip-path="url(#p53c1288c84)" style="fill: #6a5111"/>
    <path d="M 102.17232 155.228627 
L 122.420465 149.436451 
L 129.826781 156.413312 
L 109.450219 162.311148 
z
" clip-path="url(#p53c1288c84)" style="fill: #834b25"/>
    <path d="M 115.145755 142.583564 
L 122.420465 149.436451 
L 122.217599 88.911382 
L 114.747299 82.424845 
z
" clip-path="url(#p53c1288c84)" style="fill: #dfb521"/>
    <path d="M 122.420465 149.436451 
L 122.228779 92.24691 
L 142.691148 86.827848 
L 142.369002 143.72998 
z
" clip-path="url(#p53c1288c84)" style="fill: #e0a128"/>
    <path d="M 129.826781 156.413312 
L 149.899128 150.603529 
L 157.565688 157.601615 
L 137.368306 163.517543 
z
" clip-path="url(#p53c1288c84)" style="fill: #86551f"/>
    <path d="M 122.420465 149.436451 
L 142.369002 143.72998 
L 142.709934 83.509755 
L 122.217599 88.911382 
z
" clip-path="url(#p53c1288c84)" style="fill: #695510"/>
    <path d="M 142.369002 143.72998 
L 142.691148 86.827848 
L 150.419434 93.355463 
L 149.899128 150.603529 
z
" clip-path="url(#p53c1288c84)" style="fill: #6a4c13"/>
    <path d="M 142.369002 143.72998 
L 149.899128 150.603529 
L 150.458047 89.106949 
L 142.71505 82.606052 
z
" clip-path="url(#p53c1288c84)" style="fill: #debb20"/>
    <path d="M 107.382994 73.089927 
L 114.727531 79.440394 
L 135.117161 74.152142 
L 127.644257 67.896658 
z
" clip-path="url(#p53c1288c84)" style="fill: #beae1d"/>
    <path d="M 149.899128 150.603529 
L 150.431502 92.027595 
L 170.722845 86.598696 
L 169.674023 144.87984 
z
" clip-path="url(#p53c1288c84)" style="fill: #e0aa24"/>
    <path d="M 157.565688 157.601615 
L 177.461073 151.774143 
L 185.389429 158.793552 
L 165.372425 164.727656 
z
" clip-path="url(#p53c1288c84)" style="fill: #875c1b"/>
    <path d="M 149.899128 150.603529 
L 169.674023 144.87984 
L 170.77513 83.693347 
L 150.458047 89.106949 
z
" clip-path="url(#p53c1288c84)" style="fill: #69580f"/>
    <path d="M 74.60192 154.047543 
L 73.551515 112.105966 
L 94.367773 106.540348 
L 95.024707 148.272894 
z
" clip-path="url(#p53c1288c84)" style="fill: #c3535a"/>
    <path d="M 169.674023 144.87984 
L 170.722845 86.598696 
L 178.726432 93.138183 
L 177.461073 151.774143 
z
" clip-path="url(#p53c1288c84)" style="fill: #6a5011"/>
    <path d="M 67.71148 147.112843 
L 74.60192 154.047543 
L 73.405908 106.292032 
L 66.378521 99.644485 
z
" clip-path="url(#p53c1288c84)" style="fill: #d36e47"/>
    <path d="M 95.024707 148.272894 
L 94.367773 106.540348 
L 101.645502 113.244492 
L 102.17232 155.228627 
z
" clip-path="url(#p53c1288c84)" style="fill: #5c272b"/>
    <path d="M 135.118597 73.531984 
L 142.730381 79.898034 
L 162.945239 74.59679 
L 155.208433 68.326126 
z
" clip-path="url(#p53c1288c84)" style="fill: #bcb21d"/>
    <path d="M 74.60192 154.047543 
L 95.024707 148.272894 
L 94.276724 100.756321 
L 73.405908 106.292032 
z
" clip-path="url(#p53c1288c84)" style="fill: #633422"/>
    <path d="M 102.17232 155.228627 
L 101.534872 104.427997 
L 122.251047 98.890632 
L 122.420465 149.436451 
z
" clip-path="url(#p53c1288c84)" style="fill: #d97d3d"/>
    <path d="M 95.024707 148.272894 
L 102.17232 155.228627 
L 101.47694 99.811175 
L 94.157627 93.190534 
z
" clip-path="url(#p53c1288c84)" style="fill: #df962e"/>
    <path d="M 81.617766 161.108454 
L 102.17232 155.228627 
L 109.450219 162.311148 
L 88.762474 168.299054 
z
" clip-path="url(#p53c1288c84)" style="fill: #672045"/>
    <path d="M 122.420465 149.436451 
L 122.251047 98.890632 
L 129.826781 105.5608 
L 129.826781 156.413312 
z
" clip-path="url(#p53c1288c84)" style="fill: #663b1d"/>
    <path d="M 102.17232 155.228627 
L 122.420465 149.436451 
L 122.235653 94.297829 
L 101.47694 99.811175 
z
" clip-path="url(#p53c1288c84)" style="fill: #694716"/>
    <path d="M 86.904007 83.117532 
L 94.101032 89.59529 
L 114.759063 84.200993 
L 107.429439 77.820649 
z
" clip-path="url(#p53c1288c84)" style="fill: #c2941f"/>
    <path d="M 129.826781 156.413312 
L 129.826781 102.627612 
L 150.385507 97.088279 
L 149.899128 150.603529 
z
" clip-path="url(#p53c1288c84)" style="fill: #dd8d33"/>
    <path d="M 109.450219 162.311148 
L 129.826781 156.413312 
L 137.368306 163.517543 
L 116.862 169.523957 
z
" clip-path="url(#p53c1288c84)" style="fill: #7c3c2f"/>
    <path d="M 122.420465 149.436451 
L 129.826781 156.413312 
L 129.826781 98.8752 
L 122.228779 92.24691 
z
" clip-path="url(#p53c1288c84)" style="fill: #e0a128"/>
    <path d="M 149.899128 150.603529 
L 150.385507 97.088279 
L 158.244077 103.760848 
L 157.565688 157.601615 
z
" clip-path="url(#p53c1288c84)" style="fill: #684218"/>
    <path d="M 129.826781 156.413312 
L 149.899128 150.603529 
L 150.419434 93.355463 
L 129.826781 98.8752 
z
" clip-path="url(#p53c1288c84)" style="fill: #6a4c13"/>
    <path d="M 114.747299 82.424845 
L 122.217599 88.911382 
L 142.709934 83.509755 
L 135.110288 77.120989 
z
" clip-path="url(#p53c1288c84)" style="fill: #c19d1d"/>
    <path d="M 137.368306 163.517543 
L 157.565688 157.601615 
L 165.372425 164.727656 
L 145.048779 170.752664 
z
" clip-path="url(#p53c1288c84)" style="fill: #824927"/>
    <path d="M 66.378521 99.644485 
L 73.405908 106.292032 
L 94.276724 100.756321 
L 87.11318 94.209008 
z
" clip-path="url(#p53c1288c84)" style="fill: #b75f3e"/>
    <path d="M 81.617766 161.108454 
L 80.844 125.829875 
L 101.731845 120.12554 
L 102.17232 155.228627 
z
" clip-path="url(#p53c1288c84)" style="fill: #ab3572"/>
    <path d="M 149.899128 150.603529 
L 157.565688 157.601615 
L 158.308244 98.668157 
L 150.431502 92.027595 
z
" clip-path="url(#p53c1288c84)" style="fill: #e0aa24"/>
    <path d="M 157.565688 157.601615 
L 158.271769 101.563064 
L 178.664288 96.017928 
L 177.461073 151.774143 
z
" clip-path="url(#p53c1288c84)" style="fill: #df982d"/>
    <path d="M 102.17232 155.228627 
L 101.731845 120.12554 
L 109.12266 126.996843 
L 109.450219 162.311148 
z
" clip-path="url(#p53c1288c84)" style="fill: #511936"/>
    <path d="M 74.60192 154.047543 
L 81.617766 161.108454 
L 80.692302 118.913429 
L 73.551515 112.105966 
z
" clip-path="url(#p53c1288c84)" style="fill: #c3535a"/>
    <path d="M 157.565688 157.601615 
L 177.461073 151.774143 
L 178.726432 93.138183 
L 158.308244 98.668157 
z
" clip-path="url(#p53c1288c84)" style="fill: #6a5011"/>
    <path d="M 177.461073 151.774143 
L 178.664288 96.017928 
L 186.805968 102.697513 
L 185.389429 158.793552 
z
" clip-path="url(#p53c1288c84)" style="fill: #694815"/>
    <path d="M 165.372425 164.727656 
L 185.389429 158.793552 
L 193.462972 165.941503 
L 173.323218 171.985192 
z
" clip-path="url(#p53c1288c84)" style="fill: #855121"/>
    <path d="M 142.71505 82.606052 
L 150.458047 89.106949 
L 170.77513 83.693347 
L 162.906186 77.290626 
z
" clip-path="url(#p53c1288c84)" style="fill: #c1a21c"/>
    <path d="M 81.617766 161.108454 
L 102.17232 155.228627 
L 101.645502 113.244492 
L 80.692302 118.913429 
z
" clip-path="url(#p53c1288c84)" style="fill: #5c272b"/>
    <path d="M 109.450219 162.311148 
L 109.024841 116.450908 
L 129.826781 110.782953 
L 129.826781 156.413312 
z
" clip-path="url(#p53c1288c84)" style="fill: #ce644e"/>
    <path d="M 102.17232 155.228627 
L 109.450219 162.311148 
L 108.97615 111.201528 
L 101.534872 104.427997 
z
" clip-path="url(#p53c1288c84)" style="fill: #d97d3d"/>
    <path d="M 94.157627 93.190534 
L 101.47694 99.811175 
L 122.235653 94.297829 
L 114.782751 87.777502 
z
" clip-path="url(#p53c1288c84)" style="fill: #c28228"/>
    <path d="M 129.826781 156.413312 
L 129.826781 110.782953 
L 137.525989 117.6105 
L 137.368306 163.517543 
z
" clip-path="url(#p53c1288c84)" style="fill: #612f25"/>
    <path d="M 109.450219 162.311148 
L 129.826781 156.413312 
L 129.826781 105.5608 
L 108.97615 111.201528 
z
" clip-path="url(#p53c1288c84)" style="fill: #663b1d"/>
    <path d="M 88.762474 168.299054 
L 109.450219 162.311148 
L 116.862 169.523957 
L 96.039626 175.622949 
z
" clip-path="url(#p53c1288c84)" style="fill: #520c55"/>
    <path d="M 137.368306 163.517543 
L 137.540234 113.463305 
L 158.193195 107.799107 
L 157.565688 157.601615 
z
" clip-path="url(#p53c1288c84)" style="fill: #d77840"/>
    <path d="M 73.551515 112.105966 
L 80.692302 118.913429 
L 101.645502 113.244492 
L 94.367773 106.540348 
z
" clip-path="url(#p53c1288c84)" style="fill: #a9484e"/>
    <path d="M 129.826781 156.413312 
L 137.368306 163.517543 
L 137.554178 109.40388 
L 129.826781 102.627612 
z
" clip-path="url(#p53c1288c84)" style="fill: #dd8d33"/>
    <path d="M 122.228779 92.24691 
L 129.826781 98.8752 
L 150.419434 93.355463 
L 142.691148 86.827848 
z
" clip-path="url(#p53c1288c84)" style="fill: #c28c23"/>
    <path d="M 157.565688 157.601615 
L 158.193195 107.799107 
L 166.184054 114.622166 
L 165.372425 164.727656 
z
" clip-path="url(#p53c1288c84)" style="fill: #66391e"/>
    <path d="M 137.368306 163.517543 
L 157.565688 157.601615 
L 158.244077 103.760848 
L 137.554178 109.40388 
z
" clip-path="url(#p53c1288c84)" style="fill: #684218"/>
    <path d="M 116.862 169.523957 
L 137.368306 163.517543 
L 145.048779 170.752664 
L 124.411391 176.870682 
z
" clip-path="url(#p53c1288c84)" style="fill: #712c3b"/>
    <path d="M 88.762474 168.299054 
L 88.245017 140.692267 
L 109.195421 134.841305 
L 109.450219 162.311148 
z
" clip-path="url(#p53c1288c84)" style="fill: #88138c"/>
    <path d="M 109.450219 162.311148 
L 109.195421 134.841305 
L 116.698372 141.889295 
L 116.862 169.523957 
z
" clip-path="url(#p53c1288c84)" style="fill: #400942"/>
    <path d="M 81.617766 161.108454 
L 88.762474 168.299054 
L 88.097231 132.807731 
L 80.844 125.829875 
z
" clip-path="url(#p53c1288c84)" style="fill: #ab3572"/>
    <path d="M 157.565688 157.601615 
L 165.372425 164.727656 
L 166.285706 108.346724 
L 158.271769 101.563064 
z
" clip-path="url(#p53c1288c84)" style="fill: #df982d"/>
    <path d="M 165.372425 164.727656 
L 166.230796 111.736562 
L 186.720816 106.069608 
L 185.389429 158.793552 
z
" clip-path="url(#p53c1288c84)" style="fill: #dc8637"/>
    <path d="M 145.048779 170.752664 
L 165.372425 164.727656 
L 173.323218 171.985192 
L 152.872073 178.122326 
z
" clip-path="url(#p53c1288c84)" style="fill: #7b3b30"/>
    <path d="M 88.762474 168.299054 
L 109.450219 162.311148 
L 109.12266 126.996843 
L 88.097231 132.807731 
z
" clip-path="url(#p53c1288c84)" style="fill: #511936"/>
    <path d="M 150.431502 92.027595 
L 158.308244 98.668157 
L 178.726432 93.138183 
L 170.722845 86.598696 
z
" clip-path="url(#p53c1288c84)" style="fill: #c29320"/>
    <path d="M 165.372425 164.727656 
L 185.389429 158.793552 
L 186.805968 102.697513 
L 166.285706 108.346724 
z
" clip-path="url(#p53c1288c84)" style="fill: #694815"/>
    <path d="M 185.389429 158.793552 
L 186.720816 106.069608 
L 195.002115 112.896017 
L 193.462972 165.941503 
z
" clip-path="url(#p53c1288c84)" style="fill: #683f1a"/>
    <path d="M 116.862 169.523957 
L 116.62474 129.45372 
L 137.505252 123.647876 
L 137.368306 163.517543 
z
" clip-path="url(#p53c1288c84)" style="fill: #bc4962"/>
    <path d="M 101.534872 104.427997 
L 108.97615 111.201528 
L 129.826781 105.5608 
L 122.251047 98.890632 
z
" clip-path="url(#p53c1288c84)" style="fill: #bc6c35"/>
    <path d="M 109.450219 162.311148 
L 116.862 169.523957 
L 116.588807 123.385002 
L 109.024841 116.450908 
z
" clip-path="url(#p53c1288c84)" style="fill: #ce644e"/>
    <path d="M 80.844 125.829875 
L 88.097231 132.807731 
L 109.12266 126.996843 
L 101.731845 120.12554 
z
" clip-path="url(#p53c1288c84)" style="fill: #952e63"/>
    <path d="M 137.368306 163.517543 
L 137.505252 123.647876 
L 145.327786 130.641595 
L 145.048779 170.752664 
z
" clip-path="url(#p53c1288c84)" style="fill: #59222e"/>
    <path d="M 116.862 169.523957 
L 137.368306 163.517543 
L 137.525989 117.6105 
L 116.588807 123.385002 
z
" clip-path="url(#p53c1288c84)" style="fill: #612f25"/>
    <path d="M 145.048779 170.752664 
L 145.366693 125.048186 
L 166.109043 119.252933 
L 165.372425 164.727656 
z
" clip-path="url(#p53c1288c84)" style="fill: #cc6250"/>
    <path d="M 96.039626 175.622949 
L 95.745026 156.584449 
L 116.749828 150.579548 
L 116.862 169.523957 
z
" clip-path="url(#p53c1288c84)" style="fill: #590094"/>
    <path d="M 129.826781 102.627612 
L 137.554178 109.40388 
L 158.244077 103.760848 
L 150.385507 97.088279 
z
" clip-path="url(#p53c1288c84)" style="fill: #c07a2d"/>
    <path d="M 137.368306 163.517543 
L 145.048779 170.752664 
L 145.399073 120.393208 
L 137.540234 113.463305 
z
" clip-path="url(#p53c1288c84)" style="fill: #d77840"/>
    <path d="M 96.039626 175.622949 
L 116.862 169.523957 
L 124.411391 176.870682 
L 103.452939 183.083881 
z
" clip-path="url(#p53c1288c84)" style="fill: #350059"/>
    <path d="M 165.372425 164.727656 
L 166.109043 119.252933 
L 174.233093 126.23394 
L 173.323218 171.985192 
z
" clip-path="url(#p53c1288c84)" style="fill: #602e26"/>
    <path d="M 116.862 169.523957 
L 116.749828 150.579548 
L 124.364098 157.813032 
L 124.411391 176.870682 
z
" clip-path="url(#p53c1288c84)" style="fill: #2a0046"/>
    <path d="M 145.048779 170.752664 
L 165.372425 164.727656 
L 166.184054 114.622166 
L 145.399073 120.393208 
z
" clip-path="url(#p53c1288c84)" style="fill: #66391e"/>
    <path d="M 88.762474 168.299054 
L 96.039626 175.622949 
L 95.609873 147.850184 
L 88.245017 140.692267 
z
" clip-path="url(#p53c1288c84)" style="fill: #88138c"/>
    <path d="M 124.411391 176.870682 
L 145.048779 170.752664 
L 152.872073 178.122326 
L 132.10226 184.355088 
z
" clip-path="url(#p53c1288c84)" style="fill: #61194a"/>
    <path d="M 96.039626 175.622949 
L 116.862 169.523957 
L 116.698372 141.889295 
L 95.609873 147.850184 
z
" clip-path="url(#p53c1288c84)" style="fill: #400942"/>
    <path d="M 165.372425 164.727656 
L 173.323218 171.985192 
L 174.383516 118.670176 
L 166.230796 111.736562 
z
" clip-path="url(#p53c1288c84)" style="fill: #dc8637"/>
    <path d="M 158.271769 101.563064 
L 166.285706 108.346724 
L 186.805968 102.697513 
L 178.664288 96.017928 
z
" clip-path="url(#p53c1288c84)" style="fill: #c28427"/>
    <path d="M 173.323218 171.985192 
L 193.462972 165.941503 
L 195.002115 112.896017 
L 174.383516 118.670176 
z
" clip-path="url(#p53c1288c84)" style="fill: #683f1a"/>
    <path d="M 88.245017 140.692267 
L 95.609873 147.850184 
L 116.698372 141.889295 
L 109.195421 134.841305 
z
" clip-path="url(#p53c1288c84)" style="fill: #76117a"/>
    <path d="M 109.024841 116.450908 
L 116.588807 123.385002 
L 137.525989 117.6105 
L 129.826781 110.782953 
z
" clip-path="url(#p53c1288c84)" style="fill: #b25744"/>
    <path d="M 124.411391 176.870682 
L 124.32909 143.70595 
L 145.278317 137.753532 
L 145.048779 170.752664 
z
" clip-path="url(#p53c1288c84)" style="fill: #a12a7b"/>
    <path d="M 145.048779 170.752664 
L 145.278317 137.753532 
L 153.222862 144.923885 
L 152.872073 178.122326 
z
" clip-path="url(#p53c1288c84)" style="fill: #4c143a"/>
    <path d="M 116.862 169.523957 
L 124.411391 176.870682 
L 124.31135 136.557311 
L 116.62474 129.45372 
z
" clip-path="url(#p53c1288c84)" style="fill: #bc4962"/>
    <path d="M 124.411391 176.870682 
L 145.048779 170.752664 
L 145.327786 130.641595 
L 124.31135 136.557311 
z
" clip-path="url(#p53c1288c84)" style="fill: #59222e"/>
    <path d="M 103.452939 183.083881 
L 103.352197 174.771918 
L 124.390865 168.599571 
L 124.411391 176.870682 
z
" clip-path="url(#p53c1288c84)" style="fill: #0b0777"/>
    <path d="M 137.540234 113.463305 
L 145.399073 120.393208 
L 166.184054 114.622166 
L 158.193195 107.799107 
z
" clip-path="url(#p53c1288c84)" style="fill: #bb6838"/>
    <path d="M 124.411391 176.870682 
L 124.390865 168.599571 
L 132.110966 176.034812 
L 132.10226 184.355088 
z
" clip-path="url(#p53c1288c84)" style="fill: #050338"/>
    <path d="M 145.048779 170.752664 
L 152.872073 178.122326 
L 153.357949 132.139317 
L 145.366693 125.048186 
z
" clip-path="url(#p53c1288c84)" style="fill: #cc6250"/>
    <path d="M 96.039626 175.622949 
L 103.452939 183.083881 
L 103.220808 163.931368 
L 95.745026 156.584449 
z
" clip-path="url(#p53c1288c84)" style="fill: #590094"/>
    <path d="M 95.745026 156.584449 
L 103.220808 163.931368 
L 124.364098 157.813032 
L 116.749828 150.579548 
z
" clip-path="url(#p53c1288c84)" style="fill: #4d0080"/>
    <path d="M 152.872073 178.122326 
L 173.323218 171.985192 
L 174.233093 126.23394 
L 153.357949 132.139317 
z
" clip-path="url(#p53c1288c84)" style="fill: #602e26"/>
    <path d="M 103.452939 183.083881 
L 124.411391 176.870682 
L 124.364098 157.813032 
L 103.220808 163.931368 
z
" clip-path="url(#p53c1288c84)" style="fill: #2a0046"/>
    <path d="M 103.452939 183.083881 
L 124.411391 176.870682 
L 132.10226 184.355088 
L 111.006272 190.685731 
z
" clip-path="url(#p53c1288c84)" style="fill: #070448"/>
    <path d="M 166.230796 111.736562 
L 174.383516 118.670176 
L 195.002115 112.896017 
L 186.720816 106.069608 
z
" clip-path="url(#p53c1288c84)" style="fill: #bf7530"/>
    <path d="M 116.62474 129.45372 
L 124.31135 136.557311 
L 145.327786 130.641595 
L 137.505252 123.647876 
z
" clip-path="url(#p53c1288c84)" style="fill: #a33f55"/>
    <path d="M 124.411391 176.870682 
L 132.10226 184.355088 
L 132.137171 150.989654 
L 124.32909 143.70595 
z
" clip-path="url(#p53c1288c84)" style="fill: #a12a7b"/>
    <path d="M 103.352197 174.771918 
L 110.9337 182.324282 
L 132.110966 176.034812 
L 124.390865 168.599571 
z
" clip-path="url(#p53c1288c84)" style="fill: #0a0667"/>
    <path d="M 132.10226 184.355088 
L 152.872073 178.122326 
L 153.222862 144.923885 
L 132.137171 150.989654 
z
" clip-path="url(#p53c1288c84)" style="fill: #4c143a"/>
    <path d="M 145.366693 125.048186 
L 153.357949 132.139317 
L 174.233093 126.23394 
L 166.109043 119.252933 
z
" clip-path="url(#p53c1288c84)" style="fill: #b15545"/>
    <path d="M 103.452939 183.083881 
L 111.006272 190.685731 
L 110.9337 182.324282 
L 103.352197 174.771918 
z
" clip-path="url(#p53c1288c84)" style="fill: #0b0777"/>
    <path d="M 111.006272 190.685731 
L 132.10226 184.355088 
L 132.110966 176.034812 
L 110.9337 182.324282 
z
" clip-path="url(#p53c1288c84)" style="fill: #050338"/>
    <path d="M 124.32909 143.70595 
L 132.137171 150.989654 
L 153.222862 144.923885 
L 145.278317 137.753532 
z
" clip-path="url(#p53c1288c84)" style="fill: #8c256b"/>
   </g>
  </g>
 </g>
 <defs>
  <clipPath id="p53c1288c84">
   <rect x="7.2" y="7.2" width="238.79952" height="238.79952"/>
  </clipPath>
 </defs>
</svg>
