<?xml version="1.0" encoding="utf-8" standalone="no"?>
<!DOCTYPE svg PUBLIC "-//W3C//DTD SVG 1.1//EN"
  "http://www.w3.org/Graphics/SVG/1.1/DTD/svg11.dtd">
<svg xmlns:xlink="http://www.w3.org/1999/xlink" width="253.19952pt" height="253.19952pt" viewBox="0 0 253.19952 253.19952" xmlns="http://www.w3.org/2000/svg" version="1.1">
 <metadata>
  <rdf:RDF xmlns:dc="http://purl.org/dc/elements/1.1/" xmlns:cc="http://creativecommons.org/ns#" xmlns:rdf="http://www.w3.org/1999/02/22-rdf-syntax-ns#">
   <cc:Work>
    <dc:type rdf:resource="http://purl.org/dc/dcmitype/StillImage"/>
    <dc:date>1980-01-01T00:00:00+00:00</dc:date>
    <dc:format>image/svg+xml</dc:format>
    <dc:creator>
     <cc:Agent>
      <dc:title>Matplotlib v3.6.2, https://matplotlib.org/</dc:title>
     </cc:Agent>
    </dc:creator>
   </cc:Work>
  </rdf:RDF>
 </metadata>
 <defs>
  <style type="text/css">*{stroke-linejoin: round; stroke-linecap: butt}</style>
 </defs>
 <g id="figure_1">
  <g id="patch_1">
   <path d="M 0 253.19952 
L 253.19952 253.19952 
L 253.19952 0 
L 0 0 
z
" style="fill: #ffffff"/>
  </g>
  <g id="patch_2">
   <path d="M 7.2 245.99952 
L 245.99952 245.99952 
L 245.99952 7.2 
L 7.2 7.2 
z
" style="fill: #ffffff"/>
  </g>
  <g id="pane3d_1">
   <g id="patch_3">
    <path d="M 58.819943 147.118515 
L 149.518552 121.847368 
L 150.114014 54.194245 
L 56.597514 77.885596 
" style="fill: #f2f2f2; opacity: 0.5; stroke: #f2f2f2; stroke-width: 0.24; stroke-linejoin: miter"/>
   </g>
  </g>
  <g id="pane3d_2">
   <g id="patch_4">
    <path d="M 149.518552 121.847368 
L 202.828082 168.71828 
L 205.179179 98.173742 
L 150.114014 54.194245 
" style="fill: #e6e6e6; opacity: 0.5; stroke: #e6e6e6; stroke-width: 0.24; stroke-linejoin: miter"/>
   </g>
  </g>
  <g id="pane3d_3">
   <g id="patch_5">
    <path d="M 58.819943 147.118515 
L 108.136265 197.336358 
L 202.828082 168.71828 
L 149.518552 121.847368 
" style="fill: #ececec; opacity: 0.5; stroke: #ececec; stroke-width: 0.24; stroke-linejoin: miter"/>
   </g>
  </g>
  <g id="axis3d_1">
   <g id="line2d_1">
    <path d="M 58.819943 147.118515 
L 108.136265 197.336358 
" style="fill: none; stroke: #000000; stroke-width: 0.8; stroke-linecap: square"/>
   </g>
   <g id="text_1">
    <!-- $\delta$ -->
    <g transform="translate(55.810999 195.62433) rotate(-314.481063) scale(0.1 -0.1)">
     <defs>
      <path id="CMMI12-e" d="M 1664 2795 
C 845 2597 256 1748 256 1001 
C 256 319 717 -64 1229 -64 
C 1984 -64 2496 970 2496 1818 
C 2496 2392 2227 2744 2067 2954 
C 1830 3254 1446 3746 1446 4052 
C 1446 4161 1530 4352 1811 4352 
C 2010 4352 2131 4282 2323 4173 
C 2381 4134 2528 4052 2611 4052 
C 2746 4052 2842 4185 2842 4287 
C 2842 4409 2746 4428 2522 4479 
C 2221 4543 2131 4543 2022 4543 
C 1914 4543 1286 4543 1286 3892 
C 1286 3579 1446 3216 1664 2795 
z
M 1734 2669 
C 1978 2165 2074 1974 2074 1560 
C 2074 1063 1805 63 1235 63 
C 986 63 627 229 627 821 
C 627 1235 864 2439 1734 2669 
z
" transform="scale(0.015625)"/>
     </defs>
     <use xlink:href="#CMMI12-e" transform="scale(0.996264)"/>
    </g>
   </g>
   <g id="Line3DCollection_1">
    <path d="M 65.871241 154.298713 
L 157.154818 128.561341 
L 157.988882 60.483751 
" style="fill: none; stroke: #b0b0b0; stroke-width: 0.8"/>
    <path d="M 74.192981 162.772578 
L 166.160895 136.479682 
L 167.281891 67.9059 
" style="fill: none; stroke: #b0b0b0; stroke-width: 0.8"/>
    <path d="M 82.698432 171.433512 
L 175.359057 144.566909 
L 176.779286 75.491289 
" style="fill: none; stroke: #b0b0b0; stroke-width: 0.8"/>
    <path d="M 91.393745 180.287778 
L 184.755515 152.828482 
L 186.487886 83.245363 
" style="fill: none; stroke: #b0b0b0; stroke-width: 0.8"/>
    <path d="M 100.285348 189.341923 
L 194.356752 161.2701 
L 196.414815 91.173812 
" style="fill: none; stroke: #b0b0b0; stroke-width: 0.8"/>
   </g>
   <g id="xtick_1">
    <g id="line2d_2">
     <path d="M 66.626348 154.085811 
L 64.359783 154.724868 
" style="fill: none; stroke: #000000; stroke-width: 0.8; stroke-linecap: square"/>
    </g>
    <g id="text_2">
     <!-- $\mathdefault{0.3}$ -->
     <g transform="translate(50.347151 170.133611) scale(0.08 -0.08)">
      <defs>
       <path id="CMR17-30" d="M 2688 2025 
C 2688 2416 2682 3080 2413 3591 
C 2176 4039 1798 4198 1466 4198 
C 1158 4198 768 4058 525 3597 
C 269 3118 243 2524 243 2025 
C 243 1661 250 1106 448 619 
C 723 -39 1216 -128 1466 -128 
C 1760 -128 2208 -7 2470 600 
C 2662 1042 2688 1559 2688 2025 
z
M 1466 -26 
C 1056 -26 813 325 723 812 
C 653 1188 653 1738 653 2096 
C 653 2588 653 2997 736 3387 
C 858 3929 1216 4096 1466 4096 
C 1728 4096 2067 3923 2189 3400 
C 2272 3036 2278 2607 2278 2096 
C 2278 1680 2278 1169 2202 792 
C 2067 95 1690 -26 1466 -26 
z
" transform="scale(0.015625)"/>
       <path id="CMMI12-3a" d="M 1178 307 
C 1178 492 1024 619 870 619 
C 685 619 557 466 557 313 
C 557 128 710 0 864 0 
C 1050 0 1178 153 1178 307 
z
" transform="scale(0.015625)"/>
       <path id="CMR17-33" d="M 1414 2157 
C 1984 2157 2234 1662 2234 1090 
C 2234 320 1824 25 1453 25 
C 1114 25 563 194 390 693 
C 422 680 454 680 486 680 
C 640 680 755 782 755 948 
C 755 1133 614 1216 486 1216 
C 378 1216 211 1165 211 926 
C 211 335 787 -128 1466 -128 
C 2176 -128 2720 430 2720 1085 
C 2720 1707 2208 2157 1600 2227 
C 2086 2328 2554 2756 2554 3329 
C 2554 3820 2048 4179 1472 4179 
C 890 4179 378 3829 378 3329 
C 378 3110 544 3072 627 3072 
C 762 3072 877 3155 877 3321 
C 877 3486 762 3569 627 3569 
C 602 3569 570 3569 544 3557 
C 730 3959 1235 4032 1459 4032 
C 1683 4032 2106 3925 2106 3320 
C 2106 3143 2080 2828 1862 2550 
C 1670 2304 1453 2304 1242 2284 
C 1210 2284 1062 2269 1037 2269 
C 992 2263 966 2257 966 2208 
C 966 2163 973 2157 1101 2157 
L 1414 2157 
z
" transform="scale(0.015625)"/>
      </defs>
      <use xlink:href="#CMR17-30" transform="scale(0.996264)"/>
      <use xlink:href="#CMMI12-3a" transform="translate(45.690477 0) scale(0.996264)"/>
      <use xlink:href="#CMR17-33" transform="translate(72.787654 0) scale(0.996264)"/>
     </g>
    </g>
   </g>
   <g id="xtick_2">
    <g id="line2d_3">
     <path d="M 74.954022 162.555003 
L 72.669632 163.208092 
" style="fill: none; stroke: #000000; stroke-width: 0.8; stroke-linecap: square"/>
    </g>
    <g id="text_3">
     <!-- $\mathdefault{0.4}$ -->
     <g transform="translate(58.561802 178.723406) scale(0.08 -0.08)">
      <defs>
       <path id="CMR17-34" d="M 2150 4122 
C 2150 4256 2144 4256 2029 4256 
L 128 1254 
L 128 1088 
L 1779 1088 
L 1779 457 
C 1779 224 1766 160 1318 160 
L 1197 160 
L 1197 0 
C 1402 0 1747 0 1965 0 
C 2182 0 2528 0 2733 0 
L 2733 160 
L 2611 160 
C 2163 160 2150 224 2150 457 
L 2150 1088 
L 2803 1088 
L 2803 1254 
L 2150 1254 
L 2150 4122 
z
M 1798 3703 
L 1798 1254 
L 256 1254 
L 1798 3703 
z
" transform="scale(0.015625)"/>
      </defs>
      <use xlink:href="#CMR17-30" transform="scale(0.996264)"/>
      <use xlink:href="#CMMI12-3a" transform="translate(45.690477 0) scale(0.996264)"/>
      <use xlink:href="#CMR17-34" transform="translate(72.787654 0) scale(0.996264)"/>
     </g>
    </g>
   </g>
   <g id="xtick_3">
    <g id="line2d_4">
     <path d="M 83.465487 171.211107 
L 81.163031 171.878696 
" style="fill: none; stroke: #000000; stroke-width: 0.8; stroke-linecap: square"/>
    </g>
    <g id="text_4">
     <!-- $\mathdefault{0.5}$ -->
     <g transform="translate(66.957874 187.502907) scale(0.08 -0.08)">
      <defs>
       <path id="CMR17-35" d="M 730 3692 
C 794 3666 1056 3584 1325 3584 
C 1920 3584 2246 3911 2432 4100 
C 2432 4157 2432 4192 2394 4192 
C 2387 4192 2374 4192 2323 4163 
C 2099 4058 1837 3973 1517 3973 
C 1325 3973 1037 3999 723 4139 
C 653 4171 640 4171 634 4171 
C 602 4171 595 4164 595 4037 
L 595 2203 
C 595 2089 595 2057 659 2057 
C 691 2057 704 2070 736 2114 
C 941 2401 1222 2522 1542 2522 
C 1766 2522 2246 2382 2246 1289 
C 2246 1085 2246 715 2054 421 
C 1894 159 1645 25 1370 25 
C 947 25 518 320 403 814 
C 429 807 480 795 506 795 
C 589 795 749 840 749 1038 
C 749 1210 627 1280 506 1280 
C 358 1280 262 1190 262 1011 
C 262 454 704 -128 1382 -128 
C 2042 -128 2669 440 2669 1264 
C 2669 2030 2170 2624 1549 2624 
C 1222 2624 947 2503 730 2274 
L 730 3692 
z
" transform="scale(0.015625)"/>
      </defs>
      <use xlink:href="#CMR17-30" transform="scale(0.996264)"/>
      <use xlink:href="#CMMI12-3a" transform="translate(45.690477 0) scale(0.996264)"/>
      <use xlink:href="#CMR17-35" transform="translate(72.787654 0) scale(0.996264)"/>
     </g>
    </g>
   </g>
   <g id="xtick_4">
    <g id="line2d_5">
     <path d="M 92.166893 180.060382 
L 89.846131 180.742958 
" style="fill: none; stroke: #000000; stroke-width: 0.8; stroke-linecap: square"/>
    </g>
    <g id="text_5">
     <!-- $\mathdefault{0.6}$ -->
     <g transform="translate(75.541444 196.478469) scale(0.08 -0.08)">
      <defs>
       <path id="CMR17-36" d="M 678 2176 
C 678 3690 1395 4032 1811 4032 
C 1946 4032 2272 4009 2400 3776 
C 2298 3776 2106 3776 2106 3553 
C 2106 3381 2246 3323 2336 3323 
C 2394 3323 2566 3348 2566 3560 
C 2566 3954 2246 4179 1805 4179 
C 1043 4179 243 3390 243 1984 
C 243 253 966 -128 1478 -128 
C 2099 -128 2688 427 2688 1283 
C 2688 2081 2170 2662 1517 2662 
C 1126 2662 838 2407 678 1960 
L 678 2176 
z
M 1478 25 
C 691 25 691 1200 691 1436 
C 691 1896 909 2560 1504 2560 
C 1613 2560 1926 2560 2138 2120 
C 2253 1870 2253 1609 2253 1289 
C 2253 944 2253 690 2118 434 
C 1978 171 1773 25 1478 25 
z
" transform="scale(0.015625)"/>
      </defs>
      <use xlink:href="#CMR17-30" transform="scale(0.996264)"/>
      <use xlink:href="#CMMI12-3a" transform="translate(45.690477 0) scale(0.996264)"/>
      <use xlink:href="#CMR17-36" transform="translate(72.787654 0) scale(0.996264)"/>
     </g>
    </g>
   </g>
   <g id="xtick_5">
    <g id="line2d_6">
     <path d="M 101.064672 189.109365 
L 98.725359 189.807439 
" style="fill: none; stroke: #000000; stroke-width: 0.8; stroke-linecap: square"/>
    </g>
    <g id="text_6">
     <!-- $\mathdefault{0.7}$ -->
     <g transform="translate(84.318863 205.656732) scale(0.08 -0.08)">
      <defs>
       <path id="CMR17-37" d="M 2886 3941 
L 2886 4081 
L 1382 4081 
C 634 4081 621 4165 595 4288 
L 480 4288 
L 294 3094 
L 410 3094 
C 429 3215 474 3540 550 3661 
C 589 3712 1062 3712 1171 3712 
L 2579 3712 
L 1869 2661 
C 1395 1954 1069 999 1069 165 
C 1069 89 1069 -128 1299 -128 
C 1530 -128 1530 89 1530 171 
L 1530 465 
C 1530 1508 1709 2196 2003 2636 
L 2886 3941 
z
" transform="scale(0.015625)"/>
      </defs>
      <use xlink:href="#CMR17-30" transform="scale(0.996264)"/>
      <use xlink:href="#CMMI12-3a" transform="translate(45.690477 0) scale(0.996264)"/>
      <use xlink:href="#CMR17-37" transform="translate(72.787654 0) scale(0.996264)"/>
     </g>
    </g>
   </g>
  </g>
  <g id="axis3d_2">
   <g id="line2d_7">
    <path d="M 202.828082 168.71828 
L 108.136265 197.336358 
" style="fill: none; stroke: #000000; stroke-width: 0.8; stroke-linecap: square"/>
   </g>
   <g id="text_7">
    <!-- $\Theta$ -->
    <g transform="translate(164.23124 210.703169) rotate(-16.816043) scale(0.1 -0.1)">
     <defs>
      <path id="CMR17-2" d="M 4307 2153 
C 4307 3467 3366 4455 2304 4455 
C 1216 4455 294 3454 294 2153 
C 294 852 1229 -128 2298 -128 
C 3392 -128 4307 872 4307 2153 
z
M 2304 -20 
C 1574 -20 762 673 762 2153 
C 762 3679 1600 4352 2298 4352 
C 3021 4352 3840 3660 3840 2153 
C 3840 653 3008 -20 2304 -20 
z
M 3501 2560 
L 3386 2560 
L 3386 2342 
L 1216 2342 
L 1216 2560 
L 1101 2560 
L 1101 1766 
L 1216 1766 
L 1216 1984 
L 3386 1984 
L 3386 1766 
L 3501 1766 
L 3501 2560 
z
" transform="scale(0.015625)"/>
     </defs>
     <use xlink:href="#CMR17-2" transform="scale(0.996264)"/>
    </g>
   </g>
   <g id="Line3DCollection_2">
    <path d="M 73.215817 73.675536 
L 74.923873 142.631513 
L 124.97887 192.24613 
" style="fill: none; stroke: #b0b0b0; stroke-width: 0.8"/>
    <path d="M 93.923689 68.42943 
L 94.999025 137.03802 
L 145.956896 185.90608 
" style="fill: none; stroke: #b0b0b0; stroke-width: 0.8"/>
    <path d="M 114.321527 63.261868 
L 114.782553 131.52578 
L 166.61071 179.664016 
" style="fill: none; stroke: #b0b0b0; stroke-width: 0.8"/>
    <path d="M 134.416241 58.171098 
L 134.280764 126.093038 
L 186.947771 173.517681 
" style="fill: none; stroke: #b0b0b0; stroke-width: 0.8"/>
   </g>
   <g id="xtick_6">
    <g id="line2d_8">
     <path d="M 124.552664 191.823673 
L 125.832612 193.09236 
" style="fill: none; stroke: #000000; stroke-width: 0.8; stroke-linecap: square"/>
    </g>
    <g id="text_8">
     <!-- $\mathdefault{35}$ -->
     <g transform="translate(126.611309 211.219257) scale(0.08 -0.08)">
      <use xlink:href="#CMR17-33" transform="scale(0.996264)"/>
      <use xlink:href="#CMR17-35" transform="translate(45.690477 0) scale(0.996264)"/>
     </g>
    </g>
   </g>
   <g id="xtick_7">
    <g id="line2d_9">
     <path d="M 145.523206 185.490176 
L 146.825618 186.739175 
" style="fill: none; stroke: #000000; stroke-width: 0.8; stroke-linecap: square"/>
    </g>
    <g id="text_9">
     <!-- $\mathdefault{50}$ -->
     <g transform="translate(147.618331 204.751562) scale(0.08 -0.08)">
      <use xlink:href="#CMR17-35" transform="scale(0.996264)"/>
      <use xlink:href="#CMR17-30" transform="translate(45.690477 0) scale(0.996264)"/>
     </g>
    </g>
   </g>
   <g id="xtick_8">
    <g id="line2d_10">
     <path d="M 166.169818 179.254513 
L 167.493848 180.484278 
" style="fill: none; stroke: #000000; stroke-width: 0.8; stroke-linecap: square"/>
    </g>
    <g id="text_10">
     <!-- $\mathdefault{65}$ -->
     <g transform="translate(168.299543 198.384179) scale(0.08 -0.08)">
      <use xlink:href="#CMR17-36" transform="scale(0.996264)"/>
      <use xlink:href="#CMR17-35" transform="translate(45.690477 0) scale(0.996264)"/>
     </g>
    </g>
   </g>
   <g id="xtick_9">
    <g id="line2d_11">
     <path d="M 186.499948 173.114433 
L 187.844782 174.325406 
" style="fill: none; stroke: #000000; stroke-width: 0.8; stroke-linecap: square"/>
    </g>
    <g id="text_11">
     <!-- $\mathdefault{80}$ -->
     <g transform="translate(188.662468 192.11479) scale(0.08 -0.08)">
      <defs>
       <path id="CMR17-38" d="M 1741 2264 
C 2144 2467 2554 2773 2554 3263 
C 2554 3841 1990 4179 1472 4179 
C 890 4179 378 3759 378 3180 
C 378 3021 416 2747 666 2505 
C 730 2442 998 2251 1171 2130 
C 883 1983 211 1634 211 934 
C 211 279 838 -128 1459 -128 
C 2144 -128 2720 362 2720 1010 
C 2720 1590 2330 1857 2074 2029 
L 1741 2264 
z
M 902 2822 
C 851 2854 595 3051 595 3351 
C 595 3739 998 4032 1459 4032 
C 1965 4032 2336 3676 2336 3262 
C 2336 2669 1670 2331 1638 2331 
C 1632 2331 1626 2331 1574 2370 
L 902 2822 
z
M 2080 1519 
C 2176 1449 2483 1240 2483 851 
C 2483 381 2010 25 1472 25 
C 890 25 448 438 448 940 
C 448 1443 838 1862 1280 2060 
L 2080 1519 
z
" transform="scale(0.015625)"/>
      </defs>
      <use xlink:href="#CMR17-38" transform="scale(0.996264)"/>
      <use xlink:href="#CMR17-30" transform="translate(45.690477 0) scale(0.996264)"/>
     </g>
    </g>
   </g>
  </g>
  <g id="axis3d_3">
   <g id="line2d_12">
    <path d="M 202.828082 168.71828 
L 205.179179 98.173742 
" style="fill: none; stroke: #000000; stroke-width: 0.8; stroke-linecap: square"/>
   </g>
   <g id="text_12">
    <!-- $\eta$ -->
    <g transform="translate(236.804053 140.920242) rotate(-88.091162) scale(0.1 -0.1)">
     <defs>
      <path id="CMMI12-11" d="M 3040 1768 
C 3072 1895 3091 1973 3091 2145 
C 3091 2528 2867 2815 2381 2815 
C 1811 2815 1510 2413 1395 2254 
C 1376 2618 1114 2815 832 2815 
C 646 2815 499 2726 378 2483 
C 262 2254 173 1864 173 1839 
C 173 1813 198 1781 243 1781 
C 294 1781 301 1788 339 1934 
C 435 2311 557 2688 813 2688 
C 960 2688 1011 2586 1011 2394 
C 1011 2254 947 2005 902 1807 
L 723 1118 
C 698 996 627 709 595 593 
C 550 428 480 127 480 96 
C 480 6 550 -64 646 -64 
C 723 -64 813 -25 864 70 
C 877 102 934 326 966 453 
L 1107 1028 
L 1318 1871 
C 1331 1909 1491 2228 1728 2432 
C 1894 2586 2112 2688 2362 2688 
C 2618 2688 2707 2496 2707 2241 
C 2707 2055 2682 1953 2650 1831 
L 1907 -1107 
C 1901 -1139 1888 -1177 1888 -1216 
C 1888 -1312 1965 -1376 2061 -1376 
C 2118 -1376 2253 -1350 2304 -1158 
L 3040 1768 
z
" transform="scale(0.015625)"/>
     </defs>
     <use xlink:href="#CMMI12-11" transform="scale(0.996264)"/>
    </g>
   </g>
   <g id="Line3DCollection_3">
    <path d="M 202.873665 167.350558 
L 149.530119 120.533249 
L 58.776817 145.775064 
" style="fill: none; stroke: #b0b0b0; stroke-width: 0.8"/>
    <path d="M 203.355734 152.886126 
L 149.652388 106.641654 
L 58.320828 131.570123 
" style="fill: none; stroke: #b0b0b0; stroke-width: 0.8"/>
    <path d="M 203.844207 138.229512 
L 149.776185 92.576572 
L 57.858948 117.181674 
" style="fill: none; stroke: #b0b0b0; stroke-width: 0.8"/>
    <path d="M 204.339214 123.37686 
L 149.901537 78.334735 
L 57.391062 102.606137 
" style="fill: none; stroke: #b0b0b0; stroke-width: 0.8"/>
    <path d="M 204.840886 108.32421 
L 150.028475 63.912788 
L 56.917053 87.83984 
" style="fill: none; stroke: #b0b0b0; stroke-width: 0.8"/>
   </g>
   <g id="xtick_10">
    <g id="line2d_13">
     <path d="M 202.420234 166.952601 
L 203.781901 168.147677 
" style="fill: none; stroke: #000000; stroke-width: 0.8; stroke-linecap: square"/>
    </g>
    <g id="text_13">
     <!-- $\mathdefault{0}$ -->
     <g transform="translate(217.005916 175.318359) scale(0.08 -0.08)">
      <use xlink:href="#CMR17-30" transform="scale(0.996264)"/>
     </g>
    </g>
   </g>
   <g id="xtick_11">
    <g id="line2d_14">
     <path d="M 202.899067 152.492886 
L 204.270459 153.673806 
" style="fill: none; stroke: #000000; stroke-width: 0.8; stroke-linecap: square"/>
    </g>
    <g id="text_14">
     <!-- $\mathdefault{10}$ -->
     <g transform="translate(215.479958 160.825148) scale(0.08 -0.08)">
      <defs>
       <path id="CMR17-31" d="M 1702 4058 
C 1702 4192 1696 4192 1606 4192 
C 1357 3916 979 3827 621 3827 
C 602 3827 570 3827 563 3808 
C 557 3795 557 3782 557 3648 
C 755 3648 1088 3686 1344 3839 
L 1344 461 
C 1344 236 1331 160 781 160 
L 589 160 
L 589 0 
C 896 0 1216 0 1523 0 
C 1830 0 2150 0 2458 0 
L 2458 160 
L 2266 160 
C 1715 160 1702 230 1702 458 
L 1702 4058 
z
" transform="scale(0.015625)"/>
      </defs>
      <use xlink:href="#CMR17-31" transform="scale(0.996264)"/>
      <use xlink:href="#CMR17-30" transform="translate(45.690477 0) scale(0.996264)"/>
     </g>
    </g>
   </g>
   <g id="xtick_12">
    <g id="line2d_15">
     <path d="M 203.384259 137.84115 
L 204.765516 139.00743 
" style="fill: none; stroke: #000000; stroke-width: 0.8; stroke-linecap: square"/>
    </g>
    <g id="text_15">
     <!-- $\mathdefault{20}$ -->
     <g transform="translate(216.07897 146.138771) scale(0.08 -0.08)">
      <defs>
       <path id="CMR17-32" d="M 2669 989 
L 2554 989 
C 2490 536 2438 459 2413 420 
C 2381 369 1920 369 1830 369 
L 602 369 
C 832 619 1280 1072 1824 1597 
C 2214 1967 2669 2402 2669 3035 
C 2669 3790 2067 4224 1395 4224 
C 691 4224 262 3604 262 3030 
C 262 2780 448 2748 525 2748 
C 589 2748 781 2787 781 3010 
C 781 3207 614 3264 525 3264 
C 486 3264 448 3258 422 3245 
C 544 3790 915 4058 1306 4058 
C 1862 4058 2227 3617 2227 3035 
C 2227 2479 1901 2000 1536 1584 
L 262 146 
L 262 0 
L 2515 0 
L 2669 989 
z
" transform="scale(0.015625)"/>
      </defs>
      <use xlink:href="#CMR17-32" transform="scale(0.996264)"/>
      <use xlink:href="#CMR17-30" transform="translate(45.690477 0) scale(0.996264)"/>
     </g>
    </g>
   </g>
   <g id="xtick_13">
    <g id="line2d_16">
     <path d="M 203.875936 122.993541 
L 205.2672 124.144683 
" style="fill: none; stroke: #000000; stroke-width: 0.8; stroke-linecap: square"/>
    </g>
    <g id="text_16">
     <!-- $\mathdefault{30}$ -->
     <g transform="translate(216.68602 131.25534) scale(0.08 -0.08)">
      <use xlink:href="#CMR17-33" transform="scale(0.996264)"/>
      <use xlink:href="#CMR17-30" transform="translate(45.690477 0) scale(0.996264)"/>
     </g>
    </g>
   </g>
   <g id="xtick_14">
    <g id="line2d_17">
     <path d="M 204.374232 107.946106 
L 205.775647 109.081595 
" style="fill: none; stroke: #000000; stroke-width: 0.8; stroke-linecap: square"/>
    </g>
    <g id="text_17">
     <!-- $\mathdefault{40}$ -->
     <g transform="translate(217.301269 116.170862) scale(0.08 -0.08)">
      <use xlink:href="#CMR17-34" transform="scale(0.996264)"/>
      <use xlink:href="#CMR17-30" transform="translate(45.690477 0) scale(0.996264)"/>
     </g>
    </g>
   </g>
  </g>
  <g id="axes_1">
   <g id="Poly3DCollection_1">
    <path d="M 127.703742 130.343434 
L 147.123911 124.914988 
L 156.001554 132.774853 
L 136.440705 138.318591 
z
" clip-path="url(#pa621faffab)" style="fill: #808512"/>
    <path d="M 107.999174 135.851377 
L 127.703742 130.343434 
L 136.440705 138.318591 
L 116.590337 143.944382 
z
" clip-path="url(#pa621faffab)" style="fill: #857613"/>
    <path d="M 127.703742 130.343434 
L 127.64131 64.802619 
L 147.628784 59.702512 
L 147.123911 124.914988 
z
" clip-path="url(#pa621faffab)" style="fill: #d4dc1e"/>
    <path d="M 136.440705 138.318591 
L 156.001554 132.774853 
L 165.068056 140.801925 
L 145.364914 146.464669 
z
" clip-path="url(#pa621faffab)" style="fill: #847a14"/>
    <path d="M 147.123911 124.914988 
L 147.628784 59.702512 
L 156.773827 67.087676 
L 156.001554 132.774853 
z
" clip-path="url(#pa621faffab)" style="fill: #64680e"/>
    <path d="M 88.003913 141.440576 
L 107.999174 135.851377 
L 116.590337 143.944382 
L 96.443975 149.654061 
z
" clip-path="url(#pa621faffab)" style="fill: #876118"/>
    <path d="M 107.999174 135.851377 
L 107.389077 73.709551 
L 127.644845 68.51305 
L 127.703742 130.343434 
z
" clip-path="url(#pa621faffab)" style="fill: #dcc420"/>
    <path d="M 127.703742 130.343434 
L 127.644845 68.51305 
L 136.626187 76.037944 
L 136.440705 138.318591 
z
" clip-path="url(#pa621faffab)" style="fill: #685c0f"/>
    <path d="M 116.590337 143.944382 
L 136.440705 138.318591 
L 145.364914 146.464669 
L 125.366999 152.212131 
z
" clip-path="url(#pa621faffab)" style="fill: #876915"/>
    <path d="M 127.703742 130.343434 
L 136.440705 138.318591 
L 136.637321 72.299328 
L 127.64131 64.802619 
z
" clip-path="url(#pa621faffab)" style="fill: #d4dc1e"/>
    <path d="M 136.440705 138.318591 
L 136.628973 75.102524 
L 156.741043 69.876193 
L 156.001554 132.774853 
z
" clip-path="url(#pa621faffab)" style="fill: #daca21"/>
    <path d="M 136.440705 138.318591 
L 156.001554 132.774853 
L 156.773827 67.087676 
L 136.637321 72.299328 
z
" clip-path="url(#pa621faffab)" style="fill: #64680e"/>
    <path d="M 156.001554 132.774853 
L 156.741043 69.876193 
L 166.074585 77.444378 
L 165.068056 140.801925 
z
" clip-path="url(#pa621faffab)" style="fill: #675f10"/>
    <path d="M 145.364914 146.464669 
L 165.068056 140.801925 
L 174.329509 149.001598 
L 154.482455 154.78722 
z
" clip-path="url(#pa621faffab)" style="fill: #866e14"/>
    <path d="M 88.003913 141.440576 
L 86.930964 84.54694 
L 107.4434 79.242626 
L 107.999174 135.851377 
z
" clip-path="url(#pa621faffab)" style="fill: #e0a128"/>
    <path d="M 67.71148 147.112843 
L 88.003913 141.440576 
L 96.443975 149.654061 
L 75.994948 155.449518 
z
" clip-path="url(#pa621faffab)" style="fill: #793733"/>
    <path d="M 107.999174 135.851377 
L 107.4434 79.242626 
L 116.249619 86.923772 
L 116.590337 143.944382 
z
" clip-path="url(#pa621faffab)" style="fill: #6a4c13"/>
    <path d="M 107.999174 135.851377 
L 116.590337 143.944382 
L 116.216306 81.348777 
L 107.389077 73.709551 
z
" clip-path="url(#pa621faffab)" style="fill: #dcc420"/>
    <path d="M 96.443975 149.654061 
L 116.590337 143.944382 
L 125.366999 152.212131 
L 105.067646 158.046228 
z
" clip-path="url(#pa621faffab)" style="fill: #855221"/>
    <path d="M 116.590337 143.944382 
L 116.236935 84.801161 
L 136.615959 79.472283 
L 136.440705 138.318591 
z
" clip-path="url(#pa621faffab)" style="fill: #e0ae23"/>
    <path d="M 67.71148 147.112843 
L 66.495215 103.800081 
L 87.191147 98.343278 
L 88.003913 141.440576 
z
" clip-path="url(#pa621faffab)" style="fill: #c85a55"/>
    <path d="M 116.590337 143.944382 
L 136.440705 138.318591 
L 136.626187 76.037944 
L 116.216306 81.348777 
z
" clip-path="url(#pa621faffab)" style="fill: #685c0f"/>
    <path d="M 136.440705 138.318591 
L 136.615959 79.472283 
L 145.781171 87.189112 
L 145.364914 146.464669 
z
" clip-path="url(#pa621faffab)" style="fill: #6a5210"/>
    <path d="M 88.003913 141.440576 
L 87.191147 98.343278 
L 95.788111 106.245282 
L 96.443975 149.654061 
z
" clip-path="url(#pa621faffab)" style="fill: #5e2b28"/>
    <path d="M 136.440705 138.318591 
L 145.364914 146.464669 
L 145.81209 82.786135 
L 136.628973 75.102524 
z
" clip-path="url(#pa621faffab)" style="fill: #daca21"/>
    <path d="M 125.366999 152.212131 
L 145.364914 146.464669 
L 154.482455 154.78722 
L 134.335235 160.660344 
z
" clip-path="url(#pa621faffab)" style="fill: #875c1b"/>
    <path d="M 127.64131 64.802619 
L 136.637321 72.299328 
L 156.773827 67.087676 
L 147.628784 59.702512 
z
" clip-path="url(#pa621faffab)" style="fill: #b8bf1a"/>
    <path d="M 145.364914 146.464669 
L 145.790834 85.813026 
L 166.026751 80.455403 
L 165.068056 140.801925 
z
" clip-path="url(#pa621faffab)" style="fill: #dfb621"/>
    <path d="M 145.364914 146.464669 
L 165.068056 140.801925 
L 166.074585 77.444378 
L 145.81209 82.786135 
z
" clip-path="url(#pa621faffab)" style="fill: #675f10"/>
    <path d="M 165.068056 140.801925 
L 166.026751 80.455403 
L 175.553524 88.213962 
L 174.329509 149.001598 
z
" clip-path="url(#pa621faffab)" style="fill: #69560f"/>
    <path d="M 88.003913 141.440576 
L 96.443975 149.654061 
L 95.578098 92.345396 
L 86.930964 84.54694 
z
" clip-path="url(#pa621faffab)" style="fill: #e0a128"/>
    <path d="M 96.443975 149.654061 
L 95.650285 97.123158 
L 116.278019 91.676683 
L 116.590337 143.944382 
z
" clip-path="url(#pa621faffab)" style="fill: #dc8836"/>
    <path d="M 154.482455 154.78722 
L 174.329509 149.001598 
L 183.792269 157.379499 
L 163.799679 163.292043 
z
" clip-path="url(#pa621faffab)" style="fill: #876317"/>
    <path d="M 96.443975 149.654061 
L 116.590337 143.944382 
L 116.249619 86.923772 
L 95.578098 92.345396 
z
" clip-path="url(#pa621faffab)" style="fill: #6a4c13"/>
    <path d="M 75.994948 155.449518 
L 96.443975 149.654061 
L 105.067646 158.046228 
L 84.459988 163.968932 
z
" clip-path="url(#pa621faffab)" style="fill: #6b2442"/>
    <path d="M 116.590337 143.944382 
L 116.278019 91.676683 
L 125.260606 99.563928 
L 125.366999 152.212131 
z
" clip-path="url(#pa621faffab)" style="fill: #68401a"/>
    <path d="M 107.389077 73.709551 
L 116.216306 81.348777 
L 136.626187 76.037944 
L 127.644845 68.51305 
z
" clip-path="url(#pa621faffab)" style="fill: #bfaa1c"/>
    <path d="M 116.590337 143.944382 
L 125.366999 152.212131 
L 125.246607 92.636355 
L 116.236935 84.801161 
z
" clip-path="url(#pa621faffab)" style="fill: #e0ae23"/>
    <path d="M 67.71148 147.112843 
L 75.994948 155.449518 
L 74.929226 111.822946 
L 66.495215 103.800081 
z
" clip-path="url(#pa621faffab)" style="fill: #c85a55"/>
    <path d="M 75.994948 155.449518 
L 75.104001 118.977567 
L 95.895658 113.363307 
L 96.443975 149.654061 
z
" clip-path="url(#pa621faffab)" style="fill: #b03b6d"/>
    <path d="M 125.366999 152.212131 
L 125.254465 96.524748 
L 145.754008 91.057185 
L 145.364914 146.464669 
z
" clip-path="url(#pa621faffab)" style="fill: #df982d"/>
    <path d="M 105.067646 158.046228 
L 125.366999 152.212131 
L 134.335235 160.660344 
L 113.880986 166.62297 
z
" clip-path="url(#pa621faffab)" style="fill: #7f412c"/>
    <path d="M 125.366999 152.212131 
L 145.364914 146.464669 
L 145.781171 87.189112 
L 125.246607 92.636355 
z
" clip-path="url(#pa621faffab)" style="fill: #6a5210"/>
    <path d="M 75.994948 155.449518 
L 96.443975 149.654061 
L 95.788111 106.245282 
L 74.929226 111.822946 
z
" clip-path="url(#pa621faffab)" style="fill: #5e2b28"/>
    <path d="M 96.443975 149.654061 
L 95.895658 113.363307 
L 104.656477 121.493539 
L 105.067646 158.046228 
z
" clip-path="url(#pa621faffab)" style="fill: #531c33"/>
    <path d="M 145.364914 146.464669 
L 145.754008 91.057185 
L 155.10672 98.975096 
L 154.482455 154.78722 
z
" clip-path="url(#pa621faffab)" style="fill: #694815"/>
    <path d="M 145.364914 146.464669 
L 154.482455 154.78722 
L 155.165822 93.69107 
L 145.790834 85.813026 
z
" clip-path="url(#pa621faffab)" style="fill: #dfb621"/>
    <path d="M 136.628973 75.102524 
L 145.81209 82.786135 
L 166.074585 77.444378 
L 156.741043 69.876193 
z
" clip-path="url(#pa621faffab)" style="fill: #bdaf1d"/>
    <path d="M 134.335235 160.660344 
L 154.482455 154.78722 
L 163.799679 163.292043 
L 143.501385 169.294995 
z
" clip-path="url(#pa621faffab)" style="fill: #844e23"/>
    <path d="M 154.482455 154.78722 
L 155.130957 96.808188 
L 175.491087 91.314732 
L 174.329509 149.001598 
z
" clip-path="url(#pa621faffab)" style="fill: #e0a427"/>
    <path d="M 86.930964 84.54694 
L 95.578098 92.345396 
L 116.249619 86.923772 
L 107.4434 79.242626 
z
" clip-path="url(#pa621faffab)" style="fill: #c28c23"/>
    <path d="M 154.482455 154.78722 
L 174.329509 149.001598 
L 175.553524 88.213962 
L 155.165822 93.69107 
z
" clip-path="url(#pa621faffab)" style="fill: #69560f"/>
    <path d="M 96.443975 149.654061 
L 105.067646 158.046228 
L 104.472431 105.131943 
L 95.650285 97.123158 
z
" clip-path="url(#pa621faffab)" style="fill: #dc8836"/>
    <path d="M 174.329509 149.001598 
L 175.491087 91.314732 
L 185.21655 99.270258 
L 183.792269 157.379499 
z
" clip-path="url(#pa621faffab)" style="fill: #6a4d12"/>
    <path d="M 105.067646 158.046228 
L 104.533606 110.570369 
L 125.271539 104.974134 
L 125.366999 152.212131 
z
" clip-path="url(#pa621faffab)" style="fill: #d26c49"/>
    <path d="M 66.495215 103.800081 
L 74.929226 111.822946 
L 95.788111 106.245282 
L 87.191147 98.343278 
z
" clip-path="url(#pa621faffab)" style="fill: #ad4f4a"/>
    <path d="M 105.067646 158.046228 
L 125.366999 152.212131 
L 125.260606 99.563928 
L 104.472431 105.131943 
z
" clip-path="url(#pa621faffab)" style="fill: #68401a"/>
    <path d="M 163.799679 163.292043 
L 183.792269 157.379499 
L 193.462972 165.941503 
L 173.323218 171.985192 
z
" clip-path="url(#pa621faffab)" style="fill: #86571e"/>
    <path d="M 125.366999 152.212131 
L 125.271539 104.974134 
L 134.432813 113.078491 
L 134.335235 160.660344 
z
" clip-path="url(#pa621faffab)" style="fill: #633322"/>
    <path d="M 84.459988 163.968932 
L 105.067646 158.046228 
L 113.880986 166.62297 
L 93.112637 172.677159 
z
" clip-path="url(#pa621faffab)" style="fill: #550e53"/>
    <path d="M 116.236935 84.801161 
L 125.246607 92.636355 
L 145.781171 87.189112 
L 136.615959 79.472283 
z
" clip-path="url(#pa621faffab)" style="fill: #c2971e"/>
    <path d="M 84.459988 163.968932 
L 83.869507 135.397477 
L 104.747849 129.61639 
L 105.067646 158.046228 
z
" clip-path="url(#pa621faffab)" style="fill: #8d178a"/>
    <path d="M 75.994948 155.449518 
L 84.459988 163.968932 
L 83.700775 127.233135 
L 75.104001 118.977567 
z
" clip-path="url(#pa621faffab)" style="fill: #b03b6d"/>
    <path d="M 125.366999 152.212131 
L 134.335235 160.660344 
L 134.450271 104.565256 
L 125.254465 96.524748 
z
" clip-path="url(#pa621faffab)" style="fill: #df982d"/>
    <path d="M 134.335235 160.660344 
L 134.441634 108.776623 
L 155.059861 103.164477 
L 154.482455 154.78722 
z
" clip-path="url(#pa621faffab)" style="fill: #db823a"/>
    <path d="M 105.067646 158.046228 
L 104.747849 129.61639 
L 113.67273 137.988423 
L 113.880986 166.62297 
z
" clip-path="url(#pa621faffab)" style="fill: #430b41"/>
    <path d="M 84.459988 163.968932 
L 105.067646 158.046228 
L 104.656477 121.493539 
L 83.700775 127.233135 
z
" clip-path="url(#pa621faffab)" style="fill: #531c33"/>
    <path d="M 134.335235 160.660344 
L 154.482455 154.78722 
L 155.10672 98.975096 
L 134.450271 104.565256 
z
" clip-path="url(#pa621faffab)" style="fill: #694815"/>
    <path d="M 113.880986 166.62297 
L 134.335235 160.660344 
L 143.501385 169.294995 
L 122.89032 175.390445 
z
" clip-path="url(#pa621faffab)" style="fill: #743038"/>
    <path d="M 154.482455 154.78722 
L 155.059861 103.164477 
L 164.604201 111.292025 
L 163.799679 163.292043 
z
" clip-path="url(#pa621faffab)" style="fill: #673d1b"/>
    <path d="M 145.790834 85.813026 
L 155.165822 93.69107 
L 175.553524 88.213962 
L 166.026751 80.455403 
z
" clip-path="url(#pa621faffab)" style="fill: #c19e1c"/>
    <path d="M 154.482455 154.78722 
L 163.799679 163.292043 
L 164.703291 104.887438 
L 155.130957 96.808188 
z
" clip-path="url(#pa621faffab)" style="fill: #e0a427"/>
    <path d="M 95.650285 97.123158 
L 104.472431 105.131943 
L 125.260606 99.563928 
L 116.278019 91.676683 
z
" clip-path="url(#pa621faffab)" style="fill: #bf762f"/>
    <path d="M 75.104001 118.977567 
L 83.700775 127.233135 
L 104.656477 121.493539 
L 95.895658 113.363307 
z
" clip-path="url(#pa621faffab)" style="fill: #99335f"/>
    <path d="M 163.799679 163.292043 
L 164.650575 108.294688 
L 185.133475 102.659639 
L 183.792269 157.379499 
z
" clip-path="url(#pa621faffab)" style="fill: #de9031"/>
    <path d="M 143.501385 169.294995 
L 163.799679 163.292043 
L 173.323218 171.985192 
L 152.872073 178.122326 
z
" clip-path="url(#pa621faffab)" style="fill: #7e402d"/>
    <path d="M 163.799679 163.292043 
L 183.792269 157.379499 
L 185.21655 99.270258 
L 164.703291 104.887438 
z
" clip-path="url(#pa621faffab)" style="fill: #6a4d12"/>
    <path d="M 105.067646 158.046228 
L 113.880986 166.62297 
L 113.53318 118.800709 
L 104.533606 110.570369 
z
" clip-path="url(#pa621faffab)" style="fill: #d26c49"/>
    <path d="M 113.880986 166.62297 
L 113.578956 125.094792 
L 134.419972 119.340036 
L 134.335235 160.660344 
z
" clip-path="url(#pa621faffab)" style="fill: #c04f5d"/>
    <path d="M 183.792269 157.379499 
L 185.133475 102.659639 
L 195.062338 110.820491 
L 193.462972 165.941503 
z
" clip-path="url(#pa621faffab)" style="fill: #694417"/>
    <path d="M 113.880986 166.62297 
L 134.335235 160.660344 
L 134.432813 113.078491 
L 113.53318 118.800709 
z
" clip-path="url(#pa621faffab)" style="fill: #633322"/>
    <path d="M 134.335235 160.660344 
L 134.419972 119.340036 
L 143.76129 127.6742 
L 143.501385 169.294995 
z
" clip-path="url(#pa621faffab)" style="fill: #5b252c"/>
    <path d="M 125.254465 96.524748 
L 134.450271 104.565256 
L 155.10672 98.975096 
L 145.754008 91.057185 
z
" clip-path="url(#pa621faffab)" style="fill: #c28427"/>
    <path d="M 93.112637 172.677159 
L 92.781426 152.952534 
L 113.738239 146.995787 
L 113.880986 166.62297 
z
" clip-path="url(#pa621faffab)" style="fill: #5b0094"/>
    <path d="M 84.459988 163.968932 
L 93.112637 172.677159 
L 92.629411 143.899543 
L 83.869507 135.397477 
z
" clip-path="url(#pa621faffab)" style="fill: #8d178a"/>
    <path d="M 93.112637 172.677159 
L 113.880986 166.62297 
L 122.89032 175.390445 
L 101.9592 181.580547 
z
" clip-path="url(#pa621faffab)" style="fill: #370059"/>
    <path d="M 134.335235 160.660344 
L 143.501385 169.294995 
L 143.827752 117.031196 
L 134.441634 108.776623 
z
" clip-path="url(#pa621faffab)" style="fill: #db823a"/>
    <path d="M 113.880986 166.62297 
L 113.738239 146.995787 
L 122.827528 155.622415 
L 122.89032 175.390445 
z
" clip-path="url(#pa621faffab)" style="fill: #2b0046"/>
    <path d="M 143.501385 169.294995 
L 143.797561 121.865863 
L 164.529791 116.101501 
L 163.799679 163.292043 
z
" clip-path="url(#pa621faffab)" style="fill: #d1694a"/>
    <path d="M 93.112637 172.677159 
L 113.880986 166.62297 
L 113.67273 137.988423 
L 92.629411 143.899543 
z
" clip-path="url(#pa621faffab)" style="fill: #430b41"/>
    <path d="M 83.869507 135.397477 
L 92.629411 143.899543 
L 113.67273 137.988423 
L 104.747849 129.61639 
z
" clip-path="url(#pa621faffab)" style="fill: #7a1478"/>
    <path d="M 143.501385 169.294995 
L 163.799679 163.292043 
L 164.604201 111.292025 
L 143.827752 117.031196 
z
" clip-path="url(#pa621faffab)" style="fill: #673d1b"/>
    <path d="M 163.799679 163.292043 
L 164.529791 116.101501 
L 174.268575 124.449752 
L 173.323218 171.985192 
z
" clip-path="url(#pa621faffab)" style="fill: #623223"/>
    <path d="M 104.533606 110.570369 
L 113.53318 118.800709 
L 134.432813 113.078491 
L 125.271539 104.974134 
z
" clip-path="url(#pa621faffab)" style="fill: #b65d3f"/>
    <path d="M 155.130957 96.808188 
L 164.703291 104.887438 
L 185.21655 99.270258 
L 175.491087 91.314732 
z
" clip-path="url(#pa621faffab)" style="fill: #c28e22"/>
    <path d="M 122.89032 175.390445 
L 143.501385 169.294995 
L 152.872073 178.122326 
L 132.10226 184.355088 
z
" clip-path="url(#pa621faffab)" style="fill: #641c48"/>
    <path d="M 163.799679 163.292043 
L 173.323218 171.985192 
L 174.425011 116.583702 
L 164.650575 108.294688 
z
" clip-path="url(#pa621faffab)" style="fill: #de9031"/>
    <path d="M 113.880986 166.62297 
L 122.89032 175.390445 
L 122.757447 133.559609 
L 113.578956 125.094792 
z
" clip-path="url(#pa621faffab)" style="fill: #c04f5d"/>
    <path d="M 122.89032 175.390445 
L 122.781022 140.981423 
L 143.715182 135.057858 
L 143.501385 169.294995 
z
" clip-path="url(#pa621faffab)" style="fill: #a62f77"/>
    <path d="M 173.323218 171.985192 
L 193.462972 165.941503 
L 195.062338 110.820491 
L 174.425011 116.583702 
z
" clip-path="url(#pa621faffab)" style="fill: #694417"/>
    <path d="M 122.89032 175.390445 
L 143.501385 169.294995 
L 143.76129 127.6742 
L 122.757447 133.559609 
z
" clip-path="url(#pa621faffab)" style="fill: #5b252c"/>
    <path d="M 143.501385 169.294995 
L 143.715182 135.057858 
L 153.236462 143.63673 
L 152.872073 178.122326 
z
" clip-path="url(#pa621faffab)" style="fill: #4e1638"/>
    <path d="M 101.9592 181.580547 
L 101.848881 172.960306 
L 122.863073 166.812563 
L 122.89032 175.390445 
z
" clip-path="url(#pa621faffab)" style="fill: #0b0777"/>
    <path d="M 134.441634 108.776623 
L 143.827752 117.031196 
L 164.604201 111.292025 
L 155.059861 103.164477 
z
" clip-path="url(#pa621faffab)" style="fill: #be7033"/>
    <path d="M 93.112637 172.677159 
L 101.9592 181.580547 
L 101.704955 161.714109 
L 92.781426 152.952534 
z
" clip-path="url(#pa621faffab)" style="fill: #5b0094"/>
    <path d="M 92.781426 152.952534 
L 101.704955 161.714109 
L 122.827528 155.622415 
L 113.738239 146.995787 
z
" clip-path="url(#pa621faffab)" style="fill: #4f0080"/>
    <path d="M 122.89032 175.390445 
L 122.863073 166.812563 
L 132.111299 175.715982 
L 132.10226 184.355088 
z
" clip-path="url(#pa621faffab)" style="fill: #050338"/>
    <path d="M 101.9592 181.580547 
L 122.89032 175.390445 
L 122.827528 155.622415 
L 101.704955 161.714109 
z
" clip-path="url(#pa621faffab)" style="fill: #2b0046"/>
    <path d="M 143.501385 169.294995 
L 152.872073 178.122326 
L 153.3769 130.34579 
L 143.797561 121.865863 
z
" clip-path="url(#pa621faffab)" style="fill: #d1694a"/>
    <path d="M 113.578956 125.094792 
L 122.757447 133.559609 
L 143.76129 127.6742 
L 134.419972 119.340036 
z
" clip-path="url(#pa621faffab)" style="fill: #a74551"/>
    <path d="M 101.9592 181.580547 
L 122.89032 175.390445 
L 132.10226 184.355088 
L 111.006272 190.685731 
z
" clip-path="url(#pa621faffab)" style="fill: #070448"/>
    <path d="M 152.872073 178.122326 
L 173.323218 171.985192 
L 174.268575 124.449752 
L 153.3769 130.34579 
z
" clip-path="url(#pa621faffab)" style="fill: #623223"/>
    <path d="M 164.650575 108.294688 
L 174.425011 116.583702 
L 195.062338 110.820491 
L 185.133475 102.659639 
z
" clip-path="url(#pa621faffab)" style="fill: #c17d2b"/>
    <path d="M 101.848881 172.960306 
L 110.930919 182.003864 
L 132.111299 175.715982 
L 122.863073 166.812563 
z
" clip-path="url(#pa621faffab)" style="fill: #0a0667"/>
    <path d="M 122.89032 175.390445 
L 132.10226 184.355088 
L 132.138524 149.695866 
L 122.781022 140.981423 
z
" clip-path="url(#pa621faffab)" style="fill: #a62f77"/>
    <path d="M 132.10226 184.355088 
L 152.872073 178.122326 
L 153.236462 143.63673 
L 132.138524 149.695866 
z
" clip-path="url(#pa621faffab)" style="fill: #4e1638"/>
    <path d="M 101.9592 181.580547 
L 111.006272 190.685731 
L 110.930919 182.003864 
L 101.848881 172.960306 
z
" clip-path="url(#pa621faffab)" style="fill: #0b0777"/>
    <path d="M 143.797561 121.865863 
L 153.3769 130.34579 
L 174.268575 124.449752 
L 164.529791 116.101501 
z
" clip-path="url(#pa621faffab)" style="fill: #b55c40"/>
    <path d="M 111.006272 190.685731 
L 132.10226 184.355088 
L 132.111299 175.715982 
L 110.930919 182.003864 
z
" clip-path="url(#pa621faffab)" style="fill: #050338"/>
    <path d="M 122.781022 140.981423 
L 132.138524 149.695866 
L 153.236462 143.63673 
L 143.715182 135.057858 
z
" clip-path="url(#pa621faffab)" style="fill: #902967"/>
   </g>
  </g>
 </g>
 <defs>
  <clipPath id="pa621faffab">
   <rect x="7.2" y="7.2" width="238.79952" height="238.79952"/>
  </clipPath>
 </defs>
</svg>
