<?xml version="1.0" encoding="utf-8" standalone="no"?>
<!DOCTYPE svg PUBLIC "-//W3C//DTD SVG 1.1//EN"
  "http://www.w3.org/Graphics/SVG/1.1/DTD/svg11.dtd">
<svg xmlns:xlink="http://www.w3.org/1999/xlink" width="202.406547pt" height="181.19952pt" viewBox="0 0 202.406547 181.19952" xmlns="http://www.w3.org/2000/svg" version="1.1">
 <metadata>
  <rdf:RDF xmlns:dc="http://purl.org/dc/elements/1.1/" xmlns:cc="http://creativecommons.org/ns#" xmlns:rdf="http://www.w3.org/1999/02/22-rdf-syntax-ns#">
   <cc:Work>
    <dc:type rdf:resource="http://purl.org/dc/dcmitype/StillImage"/>
    <dc:date>1980-01-01T00:00:00+00:00</dc:date>
    <dc:format>image/svg+xml</dc:format>
    <dc:creator>
     <cc:Agent>
      <dc:title>Matplotlib v3.6.2, https://matplotlib.org/</dc:title>
     </cc:Agent>
    </dc:creator>
   </cc:Work>
  </rdf:RDF>
 </metadata>
 <defs>
  <style type="text/css">*{stroke-linejoin: round; stroke-linecap: butt}</style>
 </defs>
 <g id="figure_1">
  <g id="patch_1">
   <path d="M 0 181.19952 
L 202.406547 181.19952 
L 202.406547 0 
L 0 0 
z
" style="fill: #ffffff"/>
  </g>
  <g id="axes_1">
   <g id="patch_2">
    <path d="M 59.528914 136.435748 
L 188.764662 136.435748 
L 188.764662 7.2 
L 59.528914 7.2 
z
" style="fill: #ffffff"/>
   </g>
   <g id="matplotlib.axis_1">
    <g id="xtick_1">
     <g id="line2d_1">
      <defs>
       <path id="mb328a5f24f" d="M 0 0 
L 0 3.5 
" style="stroke: #000000; stroke-width: 0.8"/>
      </defs>
      <g>
       <use xlink:href="#mb328a5f24f" x="65.403266" y="136.435748" style="stroke: #000000; stroke-width: 0.8"/>
      </g>
     </g>
     <g id="text_1">
      <!-- $\mathdefault{0.0}$ -->
      <g transform="translate(57.30121 154.529776) scale(0.13 -0.13)">
       <defs>
        <path id="CMR17-30" d="M 2688 2025 
C 2688 2416 2682 3080 2413 3591 
C 2176 4039 1798 4198 1466 4198 
C 1158 4198 768 4058 525 3597 
C 269 3118 243 2524 243 2025 
C 243 1661 250 1106 448 619 
C 723 -39 1216 -128 1466 -128 
C 1760 -128 2208 -7 2470 600 
C 2662 1042 2688 1559 2688 2025 
z
M 1466 -26 
C 1056 -26 813 325 723 812 
C 653 1188 653 1738 653 2096 
C 653 2588 653 2997 736 3387 
C 858 3929 1216 4096 1466 4096 
C 1728 4096 2067 3923 2189 3400 
C 2272 3036 2278 2607 2278 2096 
C 2278 1680 2278 1169 2202 792 
C 2067 95 1690 -26 1466 -26 
z
" transform="scale(0.015625)"/>
        <path id="CMMI12-3a" d="M 1178 307 
C 1178 492 1024 619 870 619 
C 685 619 557 466 557 313 
C 557 128 710 0 864 0 
C 1050 0 1178 153 1178 307 
z
" transform="scale(0.015625)"/>
       </defs>
       <use xlink:href="#CMR17-30" transform="scale(0.996264)"/>
       <use xlink:href="#CMMI12-3a" transform="translate(45.690477 0) scale(0.996264)"/>
       <use xlink:href="#CMR17-30" transform="translate(72.787654 0) scale(0.996264)"/>
      </g>
     </g>
    </g>
    <g id="xtick_2">
     <g id="line2d_2">
      <g>
       <use xlink:href="#mb328a5f24f" x="112.398083" y="136.435748" style="stroke: #000000; stroke-width: 0.8"/>
      </g>
     </g>
     <g id="text_2">
      <!-- $\mathdefault{0.2}$ -->
      <g transform="translate(104.296027 154.529776) scale(0.13 -0.13)">
       <defs>
        <path id="CMR17-32" d="M 2669 989 
L 2554 989 
C 2490 536 2438 459 2413 420 
C 2381 369 1920 369 1830 369 
L 602 369 
C 832 619 1280 1072 1824 1597 
C 2214 1967 2669 2402 2669 3035 
C 2669 3790 2067 4224 1395 4224 
C 691 4224 262 3604 262 3030 
C 262 2780 448 2748 525 2748 
C 589 2748 781 2787 781 3010 
C 781 3207 614 3264 525 3264 
C 486 3264 448 3258 422 3245 
C 544 3790 915 4058 1306 4058 
C 1862 4058 2227 3617 2227 3035 
C 2227 2479 1901 2000 1536 1584 
L 262 146 
L 262 0 
L 2515 0 
L 2669 989 
z
" transform="scale(0.015625)"/>
       </defs>
       <use xlink:href="#CMR17-30" transform="scale(0.996264)"/>
       <use xlink:href="#CMMI12-3a" transform="translate(45.690477 0) scale(0.996264)"/>
       <use xlink:href="#CMR17-32" transform="translate(72.787654 0) scale(0.996264)"/>
      </g>
     </g>
    </g>
    <g id="xtick_3">
     <g id="line2d_3">
      <g>
       <use xlink:href="#mb328a5f24f" x="159.392901" y="136.435748" style="stroke: #000000; stroke-width: 0.8"/>
      </g>
     </g>
     <g id="text_3">
      <!-- $\mathdefault{0.4}$ -->
      <g transform="translate(151.290845 154.529776) scale(0.13 -0.13)">
       <defs>
        <path id="CMR17-34" d="M 2150 4122 
C 2150 4256 2144 4256 2029 4256 
L 128 1254 
L 128 1088 
L 1779 1088 
L 1779 457 
C 1779 224 1766 160 1318 160 
L 1197 160 
L 1197 0 
C 1402 0 1747 0 1965 0 
C 2182 0 2528 0 2733 0 
L 2733 160 
L 2611 160 
C 2163 160 2150 224 2150 457 
L 2150 1088 
L 2803 1088 
L 2803 1254 
L 2150 1254 
L 2150 4122 
z
M 1798 3703 
L 1798 1254 
L 256 1254 
L 1798 3703 
z
" transform="scale(0.015625)"/>
       </defs>
       <use xlink:href="#CMR17-30" transform="scale(0.996264)"/>
       <use xlink:href="#CMMI12-3a" transform="translate(45.690477 0) scale(0.996264)"/>
       <use xlink:href="#CMR17-34" transform="translate(72.787654 0) scale(0.996264)"/>
      </g>
     </g>
    </g>
    <g id="text_4">
     <!-- $||L_h(t)||$ -->
     <g transform="translate(102.48253 170.761662) scale(0.13 -0.13)">
      <defs>
       <path id="CMSY10-6a" d="M 1018 4570 
C 1018 4685 1018 4800 890 4800 
C 762 4800 762 4685 762 4570 
L 762 -1370 
C 762 -1485 762 -1600 890 -1600 
C 1018 -1600 1018 -1485 1018 -1370 
L 1018 4570 
z
" transform="scale(0.015625)"/>
       <path id="CMMI12-4c" d="M 2349 3861 
C 2406 4103 2426 4167 2989 4167 
C 3162 4167 3206 4167 3206 4288 
C 3206 4352 3136 4352 3110 4352 
C 2982 4352 2835 4352 2707 4352 
L 1850 4352 
C 1728 4352 1587 4352 1466 4352 
C 1414 4352 1344 4352 1344 4231 
C 1344 4167 1402 4167 1498 4167 
C 1888 4167 1888 4116 1888 4046 
C 1888 4034 1888 3995 1862 3899 
L 998 472 
C 941 249 928 185 480 185 
C 358 185 294 185 294 70 
C 294 0 333 0 461 0 
L 3328 0 
C 3469 0 3475 6 3520 121 
L 4013 1478 
C 4026 1510 4038 1548 4038 1567 
C 4038 1605 4006 1631 3974 1631 
C 3968 1631 3936 1631 3923 1605 
C 3910 1599 3910 1586 3859 1465 
C 3654 905 3366 185 2285 185 
L 1670 185 
C 1581 185 1568 185 1530 192 
C 1459 198 1453 211 1453 262 
C 1453 307 1466 345 1478 401 
L 2349 3861 
z
" transform="scale(0.015625)"/>
       <path id="CMMI12-68" d="M 1798 4257 
C 1805 4283 1818 4321 1818 4352 
C 1818 4416 1754 4416 1741 4416 
C 1734 4416 1421 4388 1389 4380 
C 1280 4373 1184 4358 1069 4358 
C 909 4345 864 4339 864 4224 
C 864 4160 915 4160 1005 4160 
C 1318 4160 1325 4103 1325 4040 
C 1325 4002 1312 3951 1306 3932 
L 378 248 
C 352 152 352 140 352 101 
C 352 -38 461 -64 525 -64 
C 634 -64 717 19 749 89 
L 1037 1245 
C 1069 1386 1107 1520 1139 1660 
C 1210 1929 1210 1935 1331 2120 
C 1453 2305 1741 2689 2234 2689 
C 2490 2689 2579 2497 2579 2242 
C 2579 1884 2330 1188 2189 805 
C 2131 651 2099 568 2099 453 
C 2099 166 2298 -64 2605 -64 
C 3200 -64 3424 875 3424 913 
C 3424 945 3398 971 3360 971 
C 3302 971 3296 952 3264 843 
C 3117 332 2880 64 2624 64 
C 2560 64 2458 64 2458 269 
C 2458 436 2534 640 2560 710 
C 2675 1018 2963 1773 2963 2145 
C 2963 2528 2739 2816 2253 2816 
C 1888 2816 1568 2644 1306 2312 
L 1798 4257 
z
" transform="scale(0.015625)"/>
       <path id="CMR17-28" d="M 1958 -1561 
C 1958 -1555 1958 -1542 1939 -1523 
C 1645 -1224 858 -407 858 1581 
C 858 3569 1632 4379 1946 4697 
C 1946 4704 1958 4717 1958 4736 
C 1958 4755 1939 4768 1914 4768 
C 1843 4768 1299 4296 986 3594 
C 666 2887 576 2199 576 1588 
C 576 1128 621 351 1005 -471 
C 1312 -1135 1837 -1600 1914 -1600 
C 1946 -1600 1958 -1587 1958 -1561 
z
" transform="scale(0.015625)"/>
       <path id="CMMI12-74" d="M 1286 2566 
L 1875 2566 
C 1997 2566 2061 2566 2061 2681 
C 2061 2752 2022 2752 1894 2752 
L 1331 2752 
L 1568 3692 
C 1594 3781 1594 3794 1594 3840 
C 1594 3943 1510 4000 1427 4000 
C 1376 4000 1229 3981 1178 3775 
L 928 2752 
L 326 2752 
C 198 2752 141 2752 141 2630 
C 141 2566 186 2566 307 2566 
L 877 2566 
L 454 881 
C 403 658 384 594 384 511 
C 384 211 595 -64 954 -64 
C 1600 -64 1946 868 1946 912 
C 1946 951 1920 970 1882 970 
C 1869 970 1843 970 1830 944 
C 1824 938 1818 931 1773 829 
C 1638 511 1344 64 973 64 
C 781 64 768 224 768 364 
C 768 370 768 492 787 568 
L 1286 2566 
z
" transform="scale(0.015625)"/>
       <path id="CMR17-29" d="M 1683 1581 
C 1683 2040 1638 2817 1254 3639 
C 947 4303 422 4768 346 4768 
C 326 4768 301 4761 301 4729 
C 301 4717 307 4710 314 4697 
C 621 4378 1402 3568 1402 1584 
C 1402 -407 627 -1217 314 -1537 
C 307 -1549 301 -1556 301 -1568 
C 301 -1600 326 -1600 346 -1600 
C 416 -1600 960 -1128 1274 -426 
C 1594 281 1683 969 1683 1581 
z
" transform="scale(0.015625)"/>
      </defs>
      <use xlink:href="#CMSY10-6a" transform="scale(0.996264)"/>
      <use xlink:href="#CMSY10-6a" transform="translate(27.674085 0) scale(0.996264)"/>
      <use xlink:href="#CMMI12-4c" transform="translate(55.348169 0) scale(0.996264)"/>
      <use xlink:href="#CMMI12-68" transform="translate(121.719045 -14.943915) scale(0.697382)"/>
      <use xlink:href="#CMR17-28" transform="translate(161.525231 0) scale(0.996264)"/>
      <use xlink:href="#CMMI12-74" transform="translate(196.805999 0) scale(0.996264)"/>
      <use xlink:href="#CMR17-29" transform="translate(232.032329 0) scale(0.996264)"/>
      <use xlink:href="#CMSY10-6a" transform="translate(267.313097 0) scale(0.996264)"/>
      <use xlink:href="#CMSY10-6a" transform="translate(294.987182 0) scale(0.996264)"/>
     </g>
    </g>
   </g>
   <g id="matplotlib.axis_2">
    <g id="ytick_1">
     <g id="line2d_4">
      <defs>
       <path id="m0fcf4b4645" d="M 0 0 
L -3.5 0 
" style="stroke: #000000; stroke-width: 0.8"/>
      </defs>
      <g>
       <use xlink:href="#m0fcf4b4645" x="59.528914" y="131.882633" style="stroke: #000000; stroke-width: 0.8"/>
      </g>
     </g>
     <g id="text_5">
      <!-- $\mathdefault{−0.6}$ -->
      <g transform="translate(24.151432 136.379647) scale(0.13 -0.13)">
       <defs>
        <path id="CMSY10-0" d="M 4218 1472 
C 4326 1472 4442 1472 4442 1600 
C 4442 1728 4326 1728 4218 1728 
L 755 1728 
C 646 1728 531 1728 531 1600 
C 531 1472 646 1472 755 1472 
L 4218 1472 
z
" transform="scale(0.015625)"/>
        <path id="CMR17-36" d="M 678 2176 
C 678 3690 1395 4032 1811 4032 
C 1946 4032 2272 4009 2400 3776 
C 2298 3776 2106 3776 2106 3553 
C 2106 3381 2246 3323 2336 3323 
C 2394 3323 2566 3348 2566 3560 
C 2566 3954 2246 4179 1805 4179 
C 1043 4179 243 3390 243 1984 
C 243 253 966 -128 1478 -128 
C 2099 -128 2688 427 2688 1283 
C 2688 2081 2170 2662 1517 2662 
C 1126 2662 838 2407 678 1960 
L 678 2176 
z
M 1478 25 
C 691 25 691 1200 691 1436 
C 691 1896 909 2560 1504 2560 
C 1613 2560 1926 2560 2138 2120 
C 2253 1870 2253 1609 2253 1289 
C 2253 944 2253 690 2118 434 
C 1978 171 1773 25 1478 25 
z
" transform="scale(0.015625)"/>
       </defs>
       <use xlink:href="#CMSY10-0" transform="scale(0.996264)"/>
       <use xlink:href="#CMR17-30" transform="translate(77.487468 0) scale(0.996264)"/>
       <use xlink:href="#CMMI12-3a" transform="translate(123.177945 0) scale(0.996264)"/>
       <use xlink:href="#CMR17-36" transform="translate(150.275122 0) scale(0.996264)"/>
      </g>
     </g>
    </g>
    <g id="ytick_2">
     <g id="line2d_5">
      <g>
       <use xlink:href="#m0fcf4b4645" x="59.528914" y="92.332754" style="stroke: #000000; stroke-width: 0.8"/>
      </g>
     </g>
     <g id="text_6">
      <!-- $\mathdefault{−0.4}$ -->
      <g transform="translate(24.151432 96.829768) scale(0.13 -0.13)">
       <use xlink:href="#CMSY10-0" transform="scale(0.996264)"/>
       <use xlink:href="#CMR17-30" transform="translate(77.487468 0) scale(0.996264)"/>
       <use xlink:href="#CMMI12-3a" transform="translate(123.177945 0) scale(0.996264)"/>
       <use xlink:href="#CMR17-34" transform="translate(150.275122 0) scale(0.996264)"/>
      </g>
     </g>
    </g>
    <g id="ytick_3">
     <g id="line2d_6">
      <g>
       <use xlink:href="#m0fcf4b4645" x="59.528914" y="52.782875" style="stroke: #000000; stroke-width: 0.8"/>
      </g>
     </g>
     <g id="text_7">
      <!-- $\mathdefault{−0.2}$ -->
      <g transform="translate(24.151432 57.279889) scale(0.13 -0.13)">
       <use xlink:href="#CMSY10-0" transform="scale(0.996264)"/>
       <use xlink:href="#CMR17-30" transform="translate(77.487468 0) scale(0.996264)"/>
       <use xlink:href="#CMMI12-3a" transform="translate(123.177945 0) scale(0.996264)"/>
       <use xlink:href="#CMR17-32" transform="translate(150.275122 0) scale(0.996264)"/>
      </g>
     </g>
    </g>
    <g id="ytick_4">
     <g id="line2d_7">
      <g>
       <use xlink:href="#m0fcf4b4645" x="59.528914" y="13.232996" style="stroke: #000000; stroke-width: 0.8"/>
      </g>
     </g>
     <g id="text_8">
      <!-- $\mathdefault{0.0}$ -->
      <g transform="translate(34.224802 17.73001) scale(0.13 -0.13)">
       <use xlink:href="#CMR17-30" transform="scale(0.996264)"/>
       <use xlink:href="#CMMI12-3a" transform="translate(45.690477 0) scale(0.996264)"/>
       <use xlink:href="#CMR17-30" transform="translate(72.787654 0) scale(0.996264)"/>
      </g>
     </g>
    </g>
    <g id="text_9">
     <!-- $\langle{H_\mathrm{I}}\rangle$ -->
     <g transform="translate(16.913574 84.038906) rotate(-90) scale(0.13 -0.13)">
      <defs>
       <path id="CMSY10-68" d="M 2099 4557 
C 2131 4627 2131 4640 2131 4672 
C 2131 4742 2074 4800 2003 4800 
C 1946 4800 1901 4768 1856 4653 
L 736 1715 
C 723 1677 704 1638 704 1600 
C 704 1581 704 1568 736 1491 
L 1856 -1446 
C 1882 -1517 1914 -1600 2003 -1600 
C 2074 -1600 2131 -1542 2131 -1472 
C 2131 -1453 2131 -1440 2099 -1370 
L 966 1600 
L 2099 4557 
z
" transform="scale(0.015625)"/>
       <path id="CMMI12-48" d="M 4787 3887 
C 4845 4103 4858 4167 5312 4167 
C 5427 4167 5491 4167 5491 4282 
C 5491 4352 5434 4352 5395 4352 
C 5280 4352 5146 4352 5024 4352 
L 4269 4352 
C 4147 4352 4013 4352 3891 4352 
C 3846 4352 3770 4352 3770 4231 
C 3770 4167 3814 4167 3936 4167 
C 4320 4167 4320 4116 4320 4046 
C 4320 4034 4320 3995 4294 3900 
L 3904 2361 
L 1971 2361 
L 2355 3887 
C 2413 4103 2426 4167 2880 4167 
C 2995 4167 3059 4167 3059 4282 
C 3059 4352 3002 4352 2963 4352 
C 2848 4352 2714 4352 2592 4352 
L 1837 4352 
C 1715 4352 1581 4352 1459 4352 
C 1414 4352 1338 4352 1338 4231 
C 1338 4167 1382 4167 1504 4167 
C 1888 4167 1888 4116 1888 4046 
C 1888 4034 1888 3995 1862 3899 
L 998 472 
C 941 249 928 185 486 185 
C 339 185 294 185 294 64 
C 294 0 365 0 384 0 
C 499 0 634 0 755 0 
L 1510 0 
C 1632 0 1766 0 1888 0 
C 1939 0 2010 0 2010 121 
C 2010 185 1952 185 1856 185 
C 1466 185 1466 236 1466 300 
C 1466 307 1466 351 1478 402 
L 1920 2176 
L 3859 2176 
C 3750 1753 3424 416 3411 376 
C 3341 185 3238 185 2861 185 
C 2784 185 2726 185 2726 64 
C 2726 0 2797 0 2816 0 
C 2931 0 3066 0 3187 0 
L 3942 0 
C 4064 0 4198 0 4320 0 
C 4371 0 4442 0 4442 121 
C 4442 185 4384 185 4288 185 
C 3898 185 3898 236 3898 300 
C 3898 307 3898 351 3910 402 
L 4787 3887 
z
" transform="scale(0.015625)"/>
       <path id="CMR17-49" d="M 1261 3905 
C 1261 4192 1338 4192 1798 4192 
L 1798 4352 
C 1594 4352 1267 4352 1050 4352 
C 832 4352 506 4352 301 4352 
L 301 4192 
C 762 4192 838 4192 838 3905 
L 838 447 
C 838 160 762 160 301 160 
L 301 0 
C 506 0 832 0 1050 0 
C 1267 0 1594 0 1798 0 
L 1798 160 
C 1338 160 1261 160 1261 447 
L 1261 3905 
z
" transform="scale(0.015625)"/>
       <path id="CMSY10-69" d="M 1747 1491 
C 1779 1568 1779 1581 1779 1600 
C 1779 1619 1779 1632 1747 1709 
L 627 4653 
C 589 4762 550 4800 480 4800 
C 410 4800 352 4742 352 4672 
C 352 4653 352 4640 384 4570 
L 1517 1600 
L 384 -1357 
C 352 -1427 352 -1440 352 -1472 
C 352 -1542 410 -1600 480 -1600 
C 563 -1600 589 -1536 614 -1472 
L 1747 1491 
z
" transform="scale(0.015625)"/>
      </defs>
      <use xlink:href="#CMSY10-68" transform="scale(0.996264)"/>
      <use xlink:href="#CMMI12-48" transform="translate(38.743734 0) scale(0.996264)"/>
      <use xlink:href="#CMR17-49" transform="translate(119.56857 -14.943915) scale(0.697382)"/>
      <use xlink:href="#CMSY10-69" transform="translate(142.913492 0) scale(0.996264)"/>
     </g>
    </g>
   </g>
   <g id="line2d_8">
    <path d="M 65.403266 13.232996 
L 66.001013 13.316494 
L 67.289197 13.677677 
L 68.529817 14.243218 
L 69.573331 14.907747 
L 70.797971 15.888797 
L 72.208116 17.236349 
L 74.675672 19.995717 
L 77.565011 23.671709 
L 80.866702 28.306267 
L 84.563053 33.936747 
L 90.061041 42.865587 
L 116.825575 87.182782 
L 120.478036 92.81261 
L 124.146788 98.141596 
L 127.815539 103.102899 
L 131.468 107.654276 
L 135.087989 111.76762 
L 138.659542 115.423301 
L 142.16702 118.613886 
L 145.595222 121.352535 
L 148.929489 123.671732 
L 152.155815 125.610511 
L 155.260955 127.206483 
L 158.232535 128.493782 
L 161.05916 129.489347 
L 163.730522 130.176918 
L 166.237512 130.521926 
L 168.572323 130.517244 
L 170.728565 130.221142 
L 173.617904 129.476903 
L 176.813912 128.34044 
L 178.720245 127.395152 
L 179.763759 126.669145 
L 180.632702 125.834346 
L 181.335911 124.858571 
L 181.88462 123.736823 
L 182.448749 121.895139 
L 182.754245 120.052967 
L 182.885005 117.531451 
L 182.890309 100.204129 
L 182.890309 79.613031 
L 182.810545 79.793327 
L 182.292562 79.811773 
L 181.62878 79.576943 
L 176.813912 77.474174 
L 173.617904 76.453101 
L 165.005083 74.022848 
L 161.05916 72.941838 
L 158.232535 71.943066 
L 155.260955 70.628061 
L 152.155815 69.021972 
L 129.644821 56.702477 
L 116.825575 49.743942 
L 111.412769 46.468124 
L 106.126555 42.869604 
L 91.529399 32.388472 
L 87.234416 29.756559 
L 77.565011 24.112369 
L 74.675672 22.163328 
L 72.208116 20.219431 
L 70.162687 18.267178 
L 67.660874 15.444473 
L 65.717493 13.074352 
L 65.539331 13.232996 
L 65.403266 13.232996 
L 65.403266 13.232996 
" clip-path="url(#p25a9b4cf00)" style="fill: none; stroke: #6495ed; stroke-width: 3; stroke-linecap: square"/>
   </g>
   <g id="LineCollection_1">
    <path d="M 65.403266 13.232996 
L 65.403266 13.232996 
" clip-path="url(#p25a9b4cf00)" style="fill: none; stroke: #6495ed; stroke-width: 3"/>
    <path d="M 65.403266 13.232996 
L 65.403266 13.232996 
" clip-path="url(#p25a9b4cf00)" style="fill: none; stroke: #6495ec; stroke-width: 3"/>
    <path d="M 65.403266 13.232996 
L 65.403938 13.232996 
" clip-path="url(#p25a9b4cf00)" style="fill: none; stroke: #6594ec; stroke-width: 3"/>
    <path d="M 65.403938 13.232996 
L 65.40857 13.232996 
" clip-path="url(#p25a9b4cf00)" style="fill: none; stroke: #6594eb; stroke-width: 3"/>
    <path d="M 65.40857 13.232996 
L 65.420942 13.232996 
" clip-path="url(#p25a9b4cf00)" style="fill: none; stroke: #6693ea; stroke-width: 3"/>
    <path d="M 65.420942 13.232996 
L 65.444633 13.232996 
" clip-path="url(#p25a9b4cf00)" style="fill: none; stroke: #6693ea; stroke-width: 3"/>
    <path d="M 65.444633 13.232996 
L 65.483031 13.232996 
" clip-path="url(#p25a9b4cf00)" style="fill: none; stroke: #6693e9; stroke-width: 3"/>
    <path d="M 65.483031 13.232996 
L 65.539331 13.232996 
" clip-path="url(#p25a9b4cf00)" style="fill: none; stroke: #6792e9; stroke-width: 3"/>
    <path d="M 65.539331 13.232996 
L 65.616543 13.232996 
" clip-path="url(#p25a9b4cf00)" style="fill: none; stroke: #6792e8; stroke-width: 3"/>
    <path d="M 65.616543 13.232996 
L 65.717493 13.27095 
" clip-path="url(#p25a9b4cf00)" style="fill: none; stroke: #6891e7; stroke-width: 3"/>
    <path d="M 65.717493 13.27095 
L 65.844827 13.288551 
" clip-path="url(#p25a9b4cf00)" style="fill: none; stroke: #6891e7; stroke-width: 3"/>
    <path d="M 65.844827 13.288551 
L 66.001013 13.316494 
" clip-path="url(#p25a9b4cf00)" style="fill: none; stroke: #6991e6; stroke-width: 3"/>
    <path d="M 66.001013 13.316494 
L 66.188347 13.356137 
" clip-path="url(#p25a9b4cf00)" style="fill: none; stroke: #6990e5; stroke-width: 3"/>
    <path d="M 66.188347 13.356137 
L 66.408955 13.409014 
" clip-path="url(#p25a9b4cf00)" style="fill: none; stroke: #6990e5; stroke-width: 3"/>
    <path d="M 66.408955 13.409014 
L 66.664795 13.477468 
" clip-path="url(#p25a9b4cf00)" style="fill: none; stroke: #6a8fe4; stroke-width: 3"/>
    <path d="M 66.664795 13.477468 
L 66.957664 13.565214 
" clip-path="url(#p25a9b4cf00)" style="fill: none; stroke: #6a8fe4; stroke-width: 3"/>
    <path d="M 66.957664 13.565214 
L 67.289197 13.677677 
" clip-path="url(#p25a9b4cf00)" style="fill: none; stroke: #6b8fe3; stroke-width: 3"/>
    <path d="M 67.289197 13.677677 
L 67.660874 13.822097 
" clip-path="url(#p25a9b4cf00)" style="fill: none; stroke: #6b8ee2; stroke-width: 3"/>
    <path d="M 67.660874 13.822097 
L 68.074021 14.007306 
" clip-path="url(#p25a9b4cf00)" style="fill: none; stroke: #6b8ee2; stroke-width: 3"/>
    <path d="M 68.074021 14.007306 
L 68.529817 14.243218 
" clip-path="url(#p25a9b4cf00)" style="fill: none; stroke: #6c8ee1; stroke-width: 3"/>
    <path d="M 68.529817 14.243218 
L 69.02929 14.540085 
" clip-path="url(#p25a9b4cf00)" style="fill: none; stroke: #6c8de0; stroke-width: 3"/>
    <path d="M 69.02929 14.540085 
L 69.573331 14.907747 
" clip-path="url(#p25a9b4cf00)" style="fill: none; stroke: #6d8de0; stroke-width: 3"/>
    <path d="M 69.573331 14.907747 
L 70.162687 15.354946 
" clip-path="url(#p25a9b4cf00)" style="fill: none; stroke: #6d8cdf; stroke-width: 3"/>
    <path d="M 70.162687 15.354946 
L 70.797971 15.888797 
" clip-path="url(#p25a9b4cf00)" style="fill: none; stroke: #6d8cdf; stroke-width: 3"/>
    <path d="M 70.797971 15.888797 
L 71.479664 16.514692 
" clip-path="url(#p25a9b4cf00)" style="fill: none; stroke: #6e8cde; stroke-width: 3"/>
    <path d="M 71.479664 16.514692 
L 72.208116 17.236349 
" clip-path="url(#p25a9b4cf00)" style="fill: none; stroke: #6e8bdd; stroke-width: 3"/>
    <path d="M 72.208116 17.236349 
L 72.983552 18.056144 
" clip-path="url(#p25a9b4cf00)" style="fill: none; stroke: #6f8bdd; stroke-width: 3"/>
    <path d="M 72.983552 18.056144 
L 73.806076 18.975583 
" clip-path="url(#p25a9b4cf00)" style="fill: none; stroke: #6f8adc; stroke-width: 3"/>
    <path d="M 73.806076 18.975583 
L 74.675672 19.995717 
" clip-path="url(#p25a9b4cf00)" style="fill: none; stroke: #6f8adb; stroke-width: 3"/>
    <path d="M 74.675672 19.995717 
L 75.592207 21.11757 
" clip-path="url(#p25a9b4cf00)" style="fill: none; stroke: #708adb; stroke-width: 3"/>
    <path d="M 75.592207 21.11757 
L 76.555437 22.34238 
" clip-path="url(#p25a9b4cf00)" style="fill: none; stroke: #7089da; stroke-width: 3"/>
    <path d="M 76.555437 22.34238 
L 77.565011 23.671709 
" clip-path="url(#p25a9b4cf00)" style="fill: none; stroke: #7189da; stroke-width: 3"/>
    <path d="M 77.565011 23.671709 
L 78.620469 25.107471 
" clip-path="url(#p25a9b4cf00)" style="fill: none; stroke: #7188d9; stroke-width: 3"/>
    <path d="M 78.620469 25.107471 
L 79.721252 26.651708 
" clip-path="url(#p25a9b4cf00)" style="fill: none; stroke: #7288d8; stroke-width: 3"/>
    <path d="M 79.721252 26.651708 
L 80.866702 28.306267 
" clip-path="url(#p25a9b4cf00)" style="fill: none; stroke: #7288d8; stroke-width: 3"/>
    <path d="M 80.866702 28.306267 
L 82.056064 30.072339 
" clip-path="url(#p25a9b4cf00)" style="fill: none; stroke: #7287d7; stroke-width: 3"/>
    <path d="M 82.056064 30.072339 
L 83.288492 31.949816 
" clip-path="url(#p25a9b4cf00)" style="fill: none; stroke: #7387d6; stroke-width: 3"/>
    <path d="M 83.288492 31.949816 
L 84.563053 33.936747 
" clip-path="url(#p25a9b4cf00)" style="fill: none; stroke: #7386d6; stroke-width: 3"/>
    <path d="M 84.563053 33.936747 
L 85.878728 36.028993 
" clip-path="url(#p25a9b4cf00)" style="fill: none; stroke: #7486d5; stroke-width: 3"/>
    <path d="M 85.878728 36.028993 
L 87.234416 38.220169 
" clip-path="url(#p25a9b4cf00)" style="fill: none; stroke: #7486d5; stroke-width: 3"/>
    <path d="M 87.234416 38.220169 
L 88.628938 40.502116 
" clip-path="url(#p25a9b4cf00)" style="fill: none; stroke: #7485d4; stroke-width: 3"/>
    <path d="M 88.628938 40.502116 
L 90.061041 42.865587 
" clip-path="url(#p25a9b4cf00)" style="fill: none; stroke: #7585d3; stroke-width: 3"/>
    <path d="M 90.061041 42.865587 
L 91.529399 45.301131 
" clip-path="url(#p25a9b4cf00)" style="fill: none; stroke: #7584d3; stroke-width: 3"/>
    <path d="M 91.529399 45.301131 
L 93.032621 47.800078 
" clip-path="url(#p25a9b4cf00)" style="fill: none; stroke: #7684d2; stroke-width: 3"/>
    <path d="M 93.032621 47.800078 
L 94.569247 50.355301 
" clip-path="url(#p25a9b4cf00)" style="fill: none; stroke: #7684d1; stroke-width: 3"/>
    <path d="M 94.569247 50.355301 
L 96.137761 52.961721 
" clip-path="url(#p25a9b4cf00)" style="fill: none; stroke: #7683d1; stroke-width: 3"/>
    <path d="M 96.137761 52.961721 
L 97.736584 55.61638 
" clip-path="url(#p25a9b4cf00)" style="fill: none; stroke: #7783d0; stroke-width: 3"/>
    <path d="M 97.736584 55.61638 
L 99.364086 58.31813 
" clip-path="url(#p25a9b4cf00)" style="fill: none; stroke: #7782d0; stroke-width: 3"/>
    <path d="M 99.364086 58.31813 
L 101.018586 61.066805 
" clip-path="url(#p25a9b4cf00)" style="fill: none; stroke: #7882cf; stroke-width: 3"/>
    <path d="M 101.018586 61.066805 
L 102.698353 63.862146 
" clip-path="url(#p25a9b4cf00)" style="fill: none; stroke: #7882ce; stroke-width: 3"/>
    <path d="M 102.698353 63.862146 
L 104.401614 66.702785 
" clip-path="url(#p25a9b4cf00)" style="fill: none; stroke: #7981ce; stroke-width: 3"/>
    <path d="M 104.401614 66.702785 
L 106.126555 69.58506 
" clip-path="url(#p25a9b4cf00)" style="fill: none; stroke: #7981cd; stroke-width: 3"/>
    <path d="M 106.126555 69.58506 
L 107.871324 72.50233 
" clip-path="url(#p25a9b4cf00)" style="fill: none; stroke: #7981cc; stroke-width: 3"/>
    <path d="M 107.871324 72.50233 
L 109.634034 75.444825 
" clip-path="url(#p25a9b4cf00)" style="fill: none; stroke: #7a80cc; stroke-width: 3"/>
    <path d="M 109.634034 75.444825 
L 111.412769 78.399693 
" clip-path="url(#p25a9b4cf00)" style="fill: none; stroke: #7a80cb; stroke-width: 3"/>
    <path d="M 111.412769 78.399693 
L 113.205587 81.351818 
" clip-path="url(#p25a9b4cf00)" style="fill: none; stroke: #7b7fcb; stroke-width: 3"/>
    <path d="M 113.205587 81.351818 
L 115.010518 84.284962 
" clip-path="url(#p25a9b4cf00)" style="fill: none; stroke: #7b7fca; stroke-width: 3"/>
    <path d="M 115.010518 84.284962 
L 116.825575 87.182782 
" clip-path="url(#p25a9b4cf00)" style="fill: none; stroke: #7b7fc9; stroke-width: 3"/>
    <path d="M 116.825575 87.182782 
L 118.648754 90.029863 
" clip-path="url(#p25a9b4cf00)" style="fill: none; stroke: #7c7ec9; stroke-width: 3"/>
    <path d="M 118.648754 90.029863 
L 120.478036 92.81261 
" clip-path="url(#p25a9b4cf00)" style="fill: none; stroke: #7c7ec8; stroke-width: 3"/>
    <path d="M 120.478036 92.81261 
L 122.311393 95.519627 
" clip-path="url(#p25a9b4cf00)" style="fill: none; stroke: #7d7dc7; stroke-width: 3"/>
    <path d="M 122.311393 95.519627 
L 124.146788 98.141596 
" clip-path="url(#p25a9b4cf00)" style="fill: none; stroke: #7d7dc7; stroke-width: 3"/>
    <path d="M 124.146788 98.141596 
L 125.982183 100.671245 
" clip-path="url(#p25a9b4cf00)" style="fill: none; stroke: #7d7dc6; stroke-width: 3"/>
    <path d="M 125.982183 100.671245 
L 127.815539 103.102899 
" clip-path="url(#p25a9b4cf00)" style="fill: none; stroke: #7e7cc6; stroke-width: 3"/>
    <path d="M 127.815539 103.102899 
L 129.644821 105.43183 
" clip-path="url(#p25a9b4cf00)" style="fill: none; stroke: #7e7cc5; stroke-width: 3"/>
    <path d="M 129.644821 105.43183 
L 131.468 107.654276 
" clip-path="url(#p25a9b4cf00)" style="fill: none; stroke: #7f7bc4; stroke-width: 3"/>
    <path d="M 131.468 107.654276 
L 133.283058 109.767148 
" clip-path="url(#p25a9b4cf00)" style="fill: none; stroke: #7f7bc4; stroke-width: 3"/>
    <path d="M 133.283058 109.767148 
L 135.087989 111.76762 
" clip-path="url(#p25a9b4cf00)" style="fill: none; stroke: #7f7bc3; stroke-width: 3"/>
    <path d="M 135.087989 111.76762 
L 136.880806 113.653479 
" clip-path="url(#p25a9b4cf00)" style="fill: none; stroke: #807ac2; stroke-width: 3"/>
    <path d="M 136.880806 113.653479 
L 138.659542 115.423301 
" clip-path="url(#p25a9b4cf00)" style="fill: none; stroke: #807ac2; stroke-width: 3"/>
    <path d="M 138.659542 115.423301 
L 140.422252 117.076494 
" clip-path="url(#p25a9b4cf00)" style="fill: none; stroke: #8179c1; stroke-width: 3"/>
    <path d="M 140.422252 117.076494 
L 142.16702 118.613886 
" clip-path="url(#p25a9b4cf00)" style="fill: none; stroke: #8179c0; stroke-width: 3"/>
    <path d="M 142.16702 118.613886 
L 143.891961 120.037997 
" clip-path="url(#p25a9b4cf00)" style="fill: none; stroke: #8279c0; stroke-width: 3"/>
    <path d="M 143.891961 120.037997 
L 145.595222 121.352535 
" clip-path="url(#p25a9b4cf00)" style="fill: none; stroke: #8278bf; stroke-width: 3"/>
    <path d="M 145.595222 121.352535 
L 147.27499 122.562082 
" clip-path="url(#p25a9b4cf00)" style="fill: none; stroke: #8278bf; stroke-width: 3"/>
    <path d="M 147.27499 122.562082 
L 148.929489 123.671732 
" clip-path="url(#p25a9b4cf00)" style="fill: none; stroke: #8377be; stroke-width: 3"/>
    <path d="M 148.929489 123.671732 
L 150.556992 124.686334 
" clip-path="url(#p25a9b4cf00)" style="fill: none; stroke: #8377bd; stroke-width: 3"/>
    <path d="M 150.556992 124.686334 
L 152.155815 125.610511 
" clip-path="url(#p25a9b4cf00)" style="fill: none; stroke: #8477bd; stroke-width: 3"/>
    <path d="M 152.155815 125.610511 
L 153.724328 126.449026 
" clip-path="url(#p25a9b4cf00)" style="fill: none; stroke: #8476bc; stroke-width: 3"/>
    <path d="M 153.724328 126.449026 
L 155.260955 127.206483 
" clip-path="url(#p25a9b4cf00)" style="fill: none; stroke: #8476bb; stroke-width: 3"/>
    <path d="M 155.260955 127.206483 
L 156.764176 127.886988 
" clip-path="url(#p25a9b4cf00)" style="fill: none; stroke: #8575bb; stroke-width: 3"/>
    <path d="M 156.764176 127.886988 
L 158.232535 128.493782 
" clip-path="url(#p25a9b4cf00)" style="fill: none; stroke: #8575ba; stroke-width: 3"/>
    <path d="M 158.232535 128.493782 
L 159.664638 129.028273 
" clip-path="url(#p25a9b4cf00)" style="fill: none; stroke: #8675ba; stroke-width: 3"/>
    <path d="M 159.664638 129.028273 
L 161.05916 129.489347 
" clip-path="url(#p25a9b4cf00)" style="fill: none; stroke: #8674b9; stroke-width: 3"/>
    <path d="M 161.05916 129.489347 
L 162.414848 129.873769 
" clip-path="url(#p25a9b4cf00)" style="fill: none; stroke: #8674b8; stroke-width: 3"/>
    <path d="M 162.414848 129.873769 
L 163.730522 130.176918 
" clip-path="url(#p25a9b4cf00)" style="fill: none; stroke: #8773b8; stroke-width: 3"/>
    <path d="M 163.730522 130.176918 
L 165.005083 130.393955 
" clip-path="url(#p25a9b4cf00)" style="fill: none; stroke: #8773b7; stroke-width: 3"/>
    <path d="M 165.005083 130.393955 
L 166.237512 130.521926 
" clip-path="url(#p25a9b4cf00)" style="fill: none; stroke: #8873b6; stroke-width: 3"/>
    <path d="M 166.237512 130.521926 
L 167.426874 130.561396 
" clip-path="url(#p25a9b4cf00)" style="fill: none; stroke: #8872b6; stroke-width: 3"/>
    <path d="M 167.426874 130.561396 
L 168.572323 130.517244 
" clip-path="url(#p25a9b4cf00)" style="fill: none; stroke: #8872b5; stroke-width: 3"/>
    <path d="M 168.572323 130.517244 
L 169.673106 130.399219 
" clip-path="url(#p25a9b4cf00)" style="fill: none; stroke: #8972b5; stroke-width: 3"/>
    <path d="M 169.673106 130.399219 
L 170.728565 130.221142 
" clip-path="url(#p25a9b4cf00)" style="fill: none; stroke: #8971b4; stroke-width: 3"/>
    <path d="M 170.728565 130.221142 
L 171.738138 129.998491 
" clip-path="url(#p25a9b4cf00)" style="fill: none; stroke: #8a71b3; stroke-width: 3"/>
    <path d="M 171.738138 129.998491 
L 172.701369 129.746209 
" clip-path="url(#p25a9b4cf00)" style="fill: none; stroke: #8a70b3; stroke-width: 3"/>
    <path d="M 172.701369 129.746209 
L 173.617904 129.476903 
" clip-path="url(#p25a9b4cf00)" style="fill: none; stroke: #8b70b2; stroke-width: 3"/>
    <path d="M 173.617904 129.476903 
L 174.487499 129.199036 
" clip-path="url(#p25a9b4cf00)" style="fill: none; stroke: #8b70b1; stroke-width: 3"/>
    <path d="M 174.487499 129.199036 
L 175.310023 128.916928 
" clip-path="url(#p25a9b4cf00)" style="fill: none; stroke: #8b6fb1; stroke-width: 3"/>
    <path d="M 175.310023 128.916928 
L 176.08546 128.631466 
" clip-path="url(#p25a9b4cf00)" style="fill: none; stroke: #8c6fb0; stroke-width: 3"/>
    <path d="M 176.08546 128.631466 
L 176.813912 128.34044 
" clip-path="url(#p25a9b4cf00)" style="fill: none; stroke: #8c6eb0; stroke-width: 3"/>
    <path d="M 176.813912 128.34044 
L 177.495604 128.040004 
" clip-path="url(#p25a9b4cf00)" style="fill: none; stroke: #8d6eaf; stroke-width: 3"/>
    <path d="M 177.495604 128.040004 
L 178.130889 127.726132 
" clip-path="url(#p25a9b4cf00)" style="fill: none; stroke: #8d6eae; stroke-width: 3"/>
    <path d="M 178.130889 127.726132 
L 178.720245 127.395152 
" clip-path="url(#p25a9b4cf00)" style="fill: none; stroke: #8d6dae; stroke-width: 3"/>
    <path d="M 178.720245 127.395152 
L 179.264285 127.043835 
" clip-path="url(#p25a9b4cf00)" style="fill: none; stroke: #8e6dad; stroke-width: 3"/>
    <path d="M 179.264285 127.043835 
L 179.763759 126.669145 
" clip-path="url(#p25a9b4cf00)" style="fill: none; stroke: #8e6cac; stroke-width: 3"/>
    <path d="M 179.763759 126.669145 
L 180.219554 126.267482 
" clip-path="url(#p25a9b4cf00)" style="fill: none; stroke: #8f6cac; stroke-width: 3"/>
    <path d="M 180.219554 126.267482 
L 180.632702 125.834346 
" clip-path="url(#p25a9b4cf00)" style="fill: none; stroke: #8f6cab; stroke-width: 3"/>
    <path d="M 180.632702 125.834346 
L 181.004378 125.36552 
" clip-path="url(#p25a9b4cf00)" style="fill: none; stroke: #8f6bab; stroke-width: 3"/>
    <path d="M 181.004378 125.36552 
L 181.335911 124.858571 
" clip-path="url(#p25a9b4cf00)" style="fill: none; stroke: #906baa; stroke-width: 3"/>
    <path d="M 181.335911 124.858571 
L 181.62878 124.314125 
" clip-path="url(#p25a9b4cf00)" style="fill: none; stroke: #906aa9; stroke-width: 3"/>
    <path d="M 181.62878 124.314125 
L 181.88462 123.736823 
" clip-path="url(#p25a9b4cf00)" style="fill: none; stroke: #916aa9; stroke-width: 3"/>
    <path d="M 181.88462 123.736823 
L 182.105228 123.134784 
" clip-path="url(#p25a9b4cf00)" style="fill: none; stroke: #916aa8; stroke-width: 3"/>
    <path d="M 182.105228 123.134784 
L 182.292562 122.517696 
" clip-path="url(#p25a9b4cf00)" style="fill: none; stroke: #9269a7; stroke-width: 3"/>
    <path d="M 182.292562 122.517696 
L 182.448749 121.895139 
" clip-path="url(#p25a9b4cf00)" style="fill: none; stroke: #9269a7; stroke-width: 3"/>
    <path d="M 182.448749 121.895139 
L 182.576082 121.274963 
" clip-path="url(#p25a9b4cf00)" style="fill: none; stroke: #9268a6; stroke-width: 3"/>
    <path d="M 182.576082 121.274963 
L 182.677032 120.661128 
" clip-path="url(#p25a9b4cf00)" style="fill: none; stroke: #9368a6; stroke-width: 3"/>
    <path d="M 182.677032 120.661128 
L 182.754245 120.052967 
" clip-path="url(#p25a9b4cf00)" style="fill: none; stroke: #9368a5; stroke-width: 3"/>
    <path d="M 182.754245 120.052967 
L 182.810545 119.445259 
" clip-path="url(#p25a9b4cf00)" style="fill: none; stroke: #9467a4; stroke-width: 3"/>
    <path d="M 182.810545 119.445259 
L 182.848942 118.82885 
" clip-path="url(#p25a9b4cf00)" style="fill: none; stroke: #9467a4; stroke-width: 3"/>
    <path d="M 182.848942 118.82885 
L 182.872634 118.193553 
" clip-path="url(#p25a9b4cf00)" style="fill: none; stroke: #9466a3; stroke-width: 3"/>
    <path d="M 182.872634 118.193553 
L 182.885005 117.531451 
" clip-path="url(#p25a9b4cf00)" style="fill: none; stroke: #9566a2; stroke-width: 3"/>
    <path d="M 182.885005 117.531451 
L 182.889638 116.839365 
" clip-path="url(#p25a9b4cf00)" style="fill: none; stroke: #9566a2; stroke-width: 3"/>
    <path d="M 182.889638 116.839365 
L 182.890309 116.120364 
" clip-path="url(#p25a9b4cf00)" style="fill: none; stroke: #9665a1; stroke-width: 3"/>
    <path d="M 182.890309 116.120364 
L 182.890309 115.383684 
" clip-path="url(#p25a9b4cf00)" style="fill: none; stroke: #9665a1; stroke-width: 3"/>
    <path d="M 182.890309 115.383684 
L 182.890309 114.64321 
" clip-path="url(#p25a9b4cf00)" style="fill: none; stroke: #9665a0; stroke-width: 3"/>
    <path d="M 182.890309 114.64321 
L 182.890309 113.915085 
" clip-path="url(#p25a9b4cf00)" style="fill: none; stroke: #97649f; stroke-width: 3"/>
    <path d="M 182.890309 113.915085 
L 182.890309 113.215591 
" clip-path="url(#p25a9b4cf00)" style="fill: none; stroke: #97649f; stroke-width: 3"/>
    <path d="M 182.890309 113.215591 
L 182.890309 112.558887 
" clip-path="url(#p25a9b4cf00)" style="fill: none; stroke: #98639e; stroke-width: 3"/>
    <path d="M 182.890309 112.558887 
L 182.890309 111.954697 
" clip-path="url(#p25a9b4cf00)" style="fill: none; stroke: #98639d; stroke-width: 3"/>
    <path d="M 182.890309 111.954697 
L 182.890309 111.407306 
" clip-path="url(#p25a9b4cf00)" style="fill: none; stroke: #98639d; stroke-width: 3"/>
    <path d="M 182.890309 111.407306 
L 182.890309 110.914776 
" clip-path="url(#p25a9b4cf00)" style="fill: none; stroke: #99629c; stroke-width: 3"/>
    <path d="M 182.890309 110.914776 
L 182.890309 110.46861 
" clip-path="url(#p25a9b4cf00)" style="fill: none; stroke: #99629b; stroke-width: 3"/>
    <path d="M 182.890309 110.46861 
L 182.890309 110.055144 
" clip-path="url(#p25a9b4cf00)" style="fill: none; stroke: #9a619b; stroke-width: 3"/>
    <path d="M 182.890309 110.055144 
L 182.890309 109.657283 
" clip-path="url(#p25a9b4cf00)" style="fill: none; stroke: #9a619a; stroke-width: 3"/>
    <path d="M 182.890309 109.657283 
L 182.890309 109.256518 
" clip-path="url(#p25a9b4cf00)" style="fill: none; stroke: #9b619a; stroke-width: 3"/>
    <path d="M 182.890309 109.256518 
L 182.890309 108.835731 
" clip-path="url(#p25a9b4cf00)" style="fill: none; stroke: #9b6099; stroke-width: 3"/>
    <path d="M 182.890309 108.835731 
L 182.890309 108.38138 
" clip-path="url(#p25a9b4cf00)" style="fill: none; stroke: #9b6098; stroke-width: 3"/>
    <path d="M 182.890309 108.38138 
L 182.890309 107.884575 
" clip-path="url(#p25a9b4cf00)" style="fill: none; stroke: #9c5f98; stroke-width: 3"/>
    <path d="M 182.890309 107.884575 
L 182.890309 107.341661 
" clip-path="url(#p25a9b4cf00)" style="fill: none; stroke: #9c5f97; stroke-width: 3"/>
    <path d="M 182.890309 107.341661 
L 182.890309 106.753976 
" clip-path="url(#p25a9b4cf00)" style="fill: none; stroke: #9d5f96; stroke-width: 3"/>
    <path d="M 182.890309 106.753976 
L 182.890309 106.126663 
" clip-path="url(#p25a9b4cf00)" style="fill: none; stroke: #9d5e96; stroke-width: 3"/>
    <path d="M 182.890309 106.126663 
L 182.890309 105.46776 
" clip-path="url(#p25a9b4cf00)" style="fill: none; stroke: #9d5e95; stroke-width: 3"/>
    <path d="M 182.890309 105.46776 
L 182.890309 104.787776 
" clip-path="url(#p25a9b4cf00)" style="fill: none; stroke: #9e5d95; stroke-width: 3"/>
    <path d="M 182.890309 104.787776 
L 182.890309 104.099311 
" clip-path="url(#p25a9b4cf00)" style="fill: none; stroke: #9e5d94; stroke-width: 3"/>
    <path d="M 182.890309 104.099311 
L 182.890309 103.416905 
" clip-path="url(#p25a9b4cf00)" style="fill: none; stroke: #9f5d93; stroke-width: 3"/>
    <path d="M 182.890309 103.416905 
L 182.890309 102.756726 
" clip-path="url(#p25a9b4cf00)" style="fill: none; stroke: #9f5c93; stroke-width: 3"/>
    <path d="M 182.890309 102.756726 
L 182.890309 102.134826 
" clip-path="url(#p25a9b4cf00)" style="fill: none; stroke: #9f5c92; stroke-width: 3"/>
    <path d="M 182.890309 102.134826 
L 182.890309 101.56431 
" clip-path="url(#p25a9b4cf00)" style="fill: none; stroke: #a05b91; stroke-width: 3"/>
    <path d="M 182.890309 101.56431 
L 182.890309 101.053047 
" clip-path="url(#p25a9b4cf00)" style="fill: none; stroke: #a05b91; stroke-width: 3"/>
    <path d="M 182.890309 101.053047 
L 182.890309 100.601798 
" clip-path="url(#p25a9b4cf00)" style="fill: none; stroke: #a15b90; stroke-width: 3"/>
    <path d="M 182.890309 100.601798 
L 182.890309 100.204129 
" clip-path="url(#p25a9b4cf00)" style="fill: none; stroke: #a15a90; stroke-width: 3"/>
    <path d="M 182.890309 100.204129 
L 182.890309 99.848858 
" clip-path="url(#p25a9b4cf00)" style="fill: none; stroke: #a25a8f; stroke-width: 3"/>
    <path d="M 182.890309 99.848858 
L 182.890309 99.523022 
" clip-path="url(#p25a9b4cf00)" style="fill: none; stroke: #a2598e; stroke-width: 3"/>
    <path d="M 182.890309 99.523022 
L 182.890309 99.214774 
" clip-path="url(#p25a9b4cf00)" style="fill: none; stroke: #a2598e; stroke-width: 3"/>
    <path d="M 182.890309 99.214774 
L 182.890309 98.915687 
" clip-path="url(#p25a9b4cf00)" style="fill: none; stroke: #a3598d; stroke-width: 3"/>
    <path d="M 182.890309 98.915687 
L 182.890309 98.621663 
" clip-path="url(#p25a9b4cf00)" style="fill: none; stroke: #a3588c; stroke-width: 3"/>
    <path d="M 182.890309 98.621663 
L 182.890309 98.332353 
" clip-path="url(#p25a9b4cf00)" style="fill: none; stroke: #a4588c; stroke-width: 3"/>
    <path d="M 182.890309 98.332353 
L 182.890309 98.049957 
" clip-path="url(#p25a9b4cf00)" style="fill: none; stroke: #a4588b; stroke-width: 3"/>
    <path d="M 182.890309 98.049957 
L 182.890309 97.777552 
" clip-path="url(#p25a9b4cf00)" style="fill: none; stroke: #a4578b; stroke-width: 3"/>
    <path d="M 182.890309 97.777552 
L 182.890309 97.516875 
" clip-path="url(#p25a9b4cf00)" style="fill: none; stroke: #a5578a; stroke-width: 3"/>
    <path d="M 182.890309 97.516875 
L 182.890309 97.267124 
" clip-path="url(#p25a9b4cf00)" style="fill: none; stroke: #a55689; stroke-width: 3"/>
    <path d="M 182.890309 97.267124 
L 182.890309 97.024538 
" clip-path="url(#p25a9b4cf00)" style="fill: none; stroke: #a65689; stroke-width: 3"/>
    <path d="M 182.890309 97.024538 
L 182.890309 96.782411 
" clip-path="url(#p25a9b4cf00)" style="fill: none; stroke: #a65688; stroke-width: 3"/>
    <path d="M 182.890309 96.782411 
L 182.890309 96.532005 
" clip-path="url(#p25a9b4cf00)" style="fill: none; stroke: #a65587; stroke-width: 3"/>
    <path d="M 182.890309 96.532005 
L 182.890309 96.264064 
" clip-path="url(#p25a9b4cf00)" style="fill: none; stroke: #a75587; stroke-width: 3"/>
    <path d="M 182.890309 96.264064 
L 182.890309 95.970285 
" clip-path="url(#p25a9b4cf00)" style="fill: none; stroke: #a75486; stroke-width: 3"/>
    <path d="M 182.890309 95.970285 
L 182.890309 95.644407 
" clip-path="url(#p25a9b4cf00)" style="fill: none; stroke: #a85486; stroke-width: 3"/>
    <path d="M 182.890309 95.644407 
L 182.890309 95.283204 
" clip-path="url(#p25a9b4cf00)" style="fill: none; stroke: #a85485; stroke-width: 3"/>
    <path d="M 182.890309 95.283204 
L 182.890309 94.886563 
" clip-path="url(#p25a9b4cf00)" style="fill: none; stroke: #a85384; stroke-width: 3"/>
    <path d="M 182.890309 94.886563 
L 182.890309 94.457315 
" clip-path="url(#p25a9b4cf00)" style="fill: none; stroke: #a95384; stroke-width: 3"/>
    <path d="M 182.890309 94.457315 
L 182.890309 94.001573 
" clip-path="url(#p25a9b4cf00)" style="fill: none; stroke: #a95283; stroke-width: 3"/>
    <path d="M 182.890309 94.001573 
L 182.890309 93.528209 
" clip-path="url(#p25a9b4cf00)" style="fill: none; stroke: #aa5282; stroke-width: 3"/>
    <path d="M 182.890309 93.528209 
L 182.890309 93.04773 
" clip-path="url(#p25a9b4cf00)" style="fill: none; stroke: #aa5282; stroke-width: 3"/>
    <path d="M 182.890309 93.04773 
L 182.890309 92.571261 
" clip-path="url(#p25a9b4cf00)" style="fill: none; stroke: #ab5181; stroke-width: 3"/>
    <path d="M 182.890309 92.571261 
L 182.890309 92.109174 
" clip-path="url(#p25a9b4cf00)" style="fill: none; stroke: #ab5181; stroke-width: 3"/>
    <path d="M 182.890309 92.109174 
L 182.890309 91.669727 
" clip-path="url(#p25a9b4cf00)" style="fill: none; stroke: #ab5080; stroke-width: 3"/>
    <path d="M 182.890309 91.669727 
L 182.890309 91.258477 
" clip-path="url(#p25a9b4cf00)" style="fill: none; stroke: #ac507f; stroke-width: 3"/>
    <path d="M 182.890309 91.258477 
L 182.890309 90.878138 
" clip-path="url(#p25a9b4cf00)" style="fill: none; stroke: #ac507f; stroke-width: 3"/>
    <path d="M 182.890309 90.878138 
L 182.890309 90.528783 
" clip-path="url(#p25a9b4cf00)" style="fill: none; stroke: #ad4f7e; stroke-width: 3"/>
    <path d="M 182.890309 90.528783 
L 182.890309 90.209125 
" clip-path="url(#p25a9b4cf00)" style="fill: none; stroke: #ad4f7d; stroke-width: 3"/>
    <path d="M 182.890309 90.209125 
L 182.890309 89.918175 
" clip-path="url(#p25a9b4cf00)" style="fill: none; stroke: #ad4e7d; stroke-width: 3"/>
    <path d="M 182.890309 89.918175 
L 182.890309 89.656224 
" clip-path="url(#p25a9b4cf00)" style="fill: none; stroke: #ae4e7c; stroke-width: 3"/>
    <path d="M 182.890309 89.656224 
L 182.890309 89.425101 
" clip-path="url(#p25a9b4cf00)" style="fill: none; stroke: #ae4e7c; stroke-width: 3"/>
    <path d="M 182.890309 89.425101 
L 182.890309 89.227459 
" clip-path="url(#p25a9b4cf00)" style="fill: none; stroke: #af4d7b; stroke-width: 3"/>
    <path d="M 182.890309 89.227459 
L 182.890309 89.064869 
" clip-path="url(#p25a9b4cf00)" style="fill: none; stroke: #af4d7a; stroke-width: 3"/>
    <path d="M 182.890309 89.064869 
L 182.890309 88.936316 
" clip-path="url(#p25a9b4cf00)" style="fill: none; stroke: #af4c7a; stroke-width: 3"/>
    <path d="M 182.890309 88.936316 
L 182.890309 88.837988 
" clip-path="url(#p25a9b4cf00)" style="fill: none; stroke: #b04c79; stroke-width: 3"/>
    <path d="M 182.890309 88.837988 
L 182.890309 88.763617 
" clip-path="url(#p25a9b4cf00)" style="fill: none; stroke: #b04c78; stroke-width: 3"/>
    <path d="M 182.890309 88.763617 
L 182.890309 88.705821 
" clip-path="url(#p25a9b4cf00)" style="fill: none; stroke: #b14b78; stroke-width: 3"/>
    <path d="M 182.890309 88.705821 
L 182.890309 88.657687 
" clip-path="url(#p25a9b4cf00)" style="fill: none; stroke: #b14b77; stroke-width: 3"/>
    <path d="M 182.890309 88.657687 
L 182.890309 88.613128 
" clip-path="url(#p25a9b4cf00)" style="fill: none; stroke: #b24a76; stroke-width: 3"/>
    <path d="M 182.890309 88.613128 
L 182.890309 88.566659 
" clip-path="url(#p25a9b4cf00)" style="fill: none; stroke: #b24a76; stroke-width: 3"/>
    <path d="M 182.890309 88.566659 
L 182.890309 88.51321 
" clip-path="url(#p25a9b4cf00)" style="fill: none; stroke: #b24a75; stroke-width: 3"/>
    <path d="M 182.890309 88.51321 
L 182.890309 88.448105 
" clip-path="url(#p25a9b4cf00)" style="fill: none; stroke: #b34975; stroke-width: 3"/>
    <path d="M 182.890309 88.448105 
L 182.890309 88.367336 
" clip-path="url(#p25a9b4cf00)" style="fill: none; stroke: #b34974; stroke-width: 3"/>
    <path d="M 182.890309 88.367336 
L 182.890309 88.267969 
" clip-path="url(#p25a9b4cf00)" style="fill: none; stroke: #b44973; stroke-width: 3"/>
    <path d="M 182.890309 88.267969 
L 182.890309 88.148327 
" clip-path="url(#p25a9b4cf00)" style="fill: none; stroke: #b44873; stroke-width: 3"/>
    <path d="M 182.890309 88.148327 
L 182.890309 88.00745 
" clip-path="url(#p25a9b4cf00)" style="fill: none; stroke: #b44872; stroke-width: 3"/>
    <path d="M 182.890309 88.00745 
L 182.890309 87.844692 
" clip-path="url(#p25a9b4cf00)" style="fill: none; stroke: #b54771; stroke-width: 3"/>
    <path d="M 182.890309 87.844692 
L 182.890309 87.659503 
" clip-path="url(#p25a9b4cf00)" style="fill: none; stroke: #b54771; stroke-width: 3"/>
    <path d="M 182.890309 87.659503 
L 182.890309 87.450988 
" clip-path="url(#p25a9b4cf00)" style="fill: none; stroke: #b64770; stroke-width: 3"/>
    <path d="M 182.890309 87.450988 
L 182.890309 87.21849 
" clip-path="url(#p25a9b4cf00)" style="fill: none; stroke: #b64670; stroke-width: 3"/>
    <path d="M 182.890309 87.21849 
L 182.890309 86.962607 
" clip-path="url(#p25a9b4cf00)" style="fill: none; stroke: #b6466f; stroke-width: 3"/>
    <path d="M 182.890309 86.962607 
L 182.890309 86.686 
" clip-path="url(#p25a9b4cf00)" style="fill: none; stroke: #b7456e; stroke-width: 3"/>
    <path d="M 182.890309 86.686 
L 182.890309 86.394291 
" clip-path="url(#p25a9b4cf00)" style="fill: none; stroke: #b7456e; stroke-width: 3"/>
    <path d="M 182.890309 86.394291 
L 182.890309 86.096338 
" clip-path="url(#p25a9b4cf00)" style="fill: none; stroke: #b8456d; stroke-width: 3"/>
    <path d="M 182.890309 86.096338 
L 182.890309 85.803623 
" clip-path="url(#p25a9b4cf00)" style="fill: none; stroke: #b8446c; stroke-width: 3"/>
    <path d="M 182.890309 85.803623 
L 182.890309 85.52908 
" clip-path="url(#p25a9b4cf00)" style="fill: none; stroke: #b8446c; stroke-width: 3"/>
    <path d="M 182.890309 85.52908 
L 182.890309 85.285712 
" clip-path="url(#p25a9b4cf00)" style="fill: none; stroke: #b9436b; stroke-width: 3"/>
    <path d="M 182.890309 85.285712 
L 182.890309 85.084749 
" clip-path="url(#p25a9b4cf00)" style="fill: none; stroke: #b9436b; stroke-width: 3"/>
    <path d="M 182.890309 85.084749 
L 182.890309 84.933607 
" clip-path="url(#p25a9b4cf00)" style="fill: none; stroke: #ba436a; stroke-width: 3"/>
    <path d="M 182.890309 84.933607 
L 182.890309 84.834695 
" clip-path="url(#p25a9b4cf00)" style="fill: none; stroke: #ba4269; stroke-width: 3"/>
    <path d="M 182.890309 84.834695 
L 182.890309 84.784661 
" clip-path="url(#p25a9b4cf00)" style="fill: none; stroke: #bb4269; stroke-width: 3"/>
    <path d="M 182.890309 84.784661 
L 182.890309 84.774365 
" clip-path="url(#p25a9b4cf00)" style="fill: none; stroke: #bb4168; stroke-width: 3"/>
    <path d="M 182.890309 84.774365 
L 182.890309 84.790307 
" clip-path="url(#p25a9b4cf00)" style="fill: none; stroke: #bb4167; stroke-width: 3"/>
    <path d="M 182.890309 84.790307 
L 182.890309 84.816216 
" clip-path="url(#p25a9b4cf00)" style="fill: none; stroke: #bc4167; stroke-width: 3"/>
    <path d="M 182.890309 84.816216 
L 182.890309 84.834689 
" clip-path="url(#p25a9b4cf00)" style="fill: none; stroke: #bc4066; stroke-width: 3"/>
    <path d="M 182.890309 84.834689 
L 182.890309 84.829414 
" clip-path="url(#p25a9b4cf00)" style="fill: none; stroke: #bd4066; stroke-width: 3"/>
    <path d="M 182.890309 84.829414 
L 182.890309 84.786893 
" clip-path="url(#p25a9b4cf00)" style="fill: none; stroke: #bd3f65; stroke-width: 3"/>
    <path d="M 182.890309 84.786893 
L 182.890309 84.697527 
" clip-path="url(#p25a9b4cf00)" style="fill: none; stroke: #bd3f64; stroke-width: 3"/>
    <path d="M 182.890309 84.697527 
L 182.890309 84.556464 
" clip-path="url(#p25a9b4cf00)" style="fill: none; stroke: #be3f64; stroke-width: 3"/>
    <path d="M 182.890309 84.556464 
L 182.890309 84.363689 
" clip-path="url(#p25a9b4cf00)" style="fill: none; stroke: #be3e63; stroke-width: 3"/>
    <path d="M 182.890309 84.363689 
L 182.890309 84.12322 
" clip-path="url(#p25a9b4cf00)" style="fill: none; stroke: #bf3e62; stroke-width: 3"/>
    <path d="M 182.890309 84.12322 
L 182.890309 83.842071 
" clip-path="url(#p25a9b4cf00)" style="fill: none; stroke: #bf3d62; stroke-width: 3"/>
    <path d="M 182.890309 83.842071 
L 182.890309 83.5292 
" clip-path="url(#p25a9b4cf00)" style="fill: none; stroke: #bf3d61; stroke-width: 3"/>
    <path d="M 182.890309 83.5292 
L 182.890309 83.194785 
" clip-path="url(#p25a9b4cf00)" style="fill: none; stroke: #c03d61; stroke-width: 3"/>
    <path d="M 182.890309 83.194785 
L 182.890309 82.850145 
" clip-path="url(#p25a9b4cf00)" style="fill: none; stroke: #c03c60; stroke-width: 3"/>
    <path d="M 182.890309 82.850145 
L 182.890309 82.507931 
" clip-path="url(#p25a9b4cf00)" style="fill: none; stroke: #c13c5f; stroke-width: 3"/>
    <path d="M 182.890309 82.507931 
L 182.890309 82.181673 
" clip-path="url(#p25a9b4cf00)" style="fill: none; stroke: #c13c5f; stroke-width: 3"/>
    <path d="M 182.890309 82.181673 
L 182.890309 81.884251 
" clip-path="url(#p25a9b4cf00)" style="fill: none; stroke: #c13b5e; stroke-width: 3"/>
    <path d="M 182.890309 81.884251 
L 182.890309 81.626146 
" clip-path="url(#p25a9b4cf00)" style="fill: none; stroke: #c23b5d; stroke-width: 3"/>
    <path d="M 182.890309 81.626146 
L 182.890309 81.413475 
" clip-path="url(#p25a9b4cf00)" style="fill: none; stroke: #c23a5d; stroke-width: 3"/>
    <path d="M 182.890309 81.413475 
L 182.890309 81.246719 
" clip-path="url(#p25a9b4cf00)" style="fill: none; stroke: #c33a5c; stroke-width: 3"/>
    <path d="M 182.890309 81.246719 
L 182.890309 81.121578 
" clip-path="url(#p25a9b4cf00)" style="fill: none; stroke: #c33a5c; stroke-width: 3"/>
    <path d="M 182.890309 81.121578 
L 182.890309 81.03025 
" clip-path="url(#p25a9b4cf00)" style="fill: none; stroke: #c4395b; stroke-width: 3"/>
    <path d="M 182.890309 81.03025 
L 182.890309 80.963052 
" clip-path="url(#p25a9b4cf00)" style="fill: none; stroke: #c4395a; stroke-width: 3"/>
    <path d="M 182.890309 80.963052 
L 182.890309 80.910344 
" clip-path="url(#p25a9b4cf00)" style="fill: none; stroke: #c4385a; stroke-width: 3"/>
    <path d="M 182.890309 80.910344 
L 182.890309 80.863569 
" clip-path="url(#p25a9b4cf00)" style="fill: none; stroke: #c53859; stroke-width: 3"/>
    <path d="M 182.890309 80.863569 
L 182.890309 80.815974 
" clip-path="url(#p25a9b4cf00)" style="fill: none; stroke: #c53858; stroke-width: 3"/>
    <path d="M 182.890309 80.815974 
L 182.890309 80.762727 
" clip-path="url(#p25a9b4cf00)" style="fill: none; stroke: #c63758; stroke-width: 3"/>
    <path d="M 182.890309 80.762727 
L 182.890309 80.700552 
" clip-path="url(#p25a9b4cf00)" style="fill: none; stroke: #c63757; stroke-width: 3"/>
    <path d="M 182.890309 80.700552 
L 182.890309 80.627037 
" clip-path="url(#p25a9b4cf00)" style="fill: none; stroke: #c63657; stroke-width: 3"/>
    <path d="M 182.890309 80.627037 
L 182.890309 80.54028 
" clip-path="url(#p25a9b4cf00)" style="fill: none; stroke: #c73656; stroke-width: 3"/>
    <path d="M 182.890309 80.54028 
L 182.890309 80.439464 
" clip-path="url(#p25a9b4cf00)" style="fill: none; stroke: #c73655; stroke-width: 3"/>
    <path d="M 182.890309 80.439464 
L 182.890309 80.325436 
" clip-path="url(#p25a9b4cf00)" style="fill: none; stroke: #c83555; stroke-width: 3"/>
    <path d="M 182.890309 80.325436 
L 182.890309 80.201415 
" clip-path="url(#p25a9b4cf00)" style="fill: none; stroke: #c83554; stroke-width: 3"/>
    <path d="M 182.890309 80.201415 
L 182.890309 80.073268 
" clip-path="url(#p25a9b4cf00)" style="fill: none; stroke: #c83453; stroke-width: 3"/>
    <path d="M 182.890309 80.073268 
L 182.890309 79.948596 
" clip-path="url(#p25a9b4cf00)" style="fill: none; stroke: #c93453; stroke-width: 3"/>
    <path d="M 182.890309 79.948596 
L 182.890309 79.835473 
" clip-path="url(#p25a9b4cf00)" style="fill: none; stroke: #c93452; stroke-width: 3"/>
    <path d="M 182.890309 79.835473 
L 182.890309 79.741366 
" clip-path="url(#p25a9b4cf00)" style="fill: none; stroke: #ca3352; stroke-width: 3"/>
    <path d="M 182.890309 79.741366 
L 182.890309 79.671732 
" clip-path="url(#p25a9b4cf00)" style="fill: none; stroke: #ca3351; stroke-width: 3"/>
    <path d="M 182.890309 79.671732 
L 182.890309 79.62909 
" clip-path="url(#p25a9b4cf00)" style="fill: none; stroke: #cb3250; stroke-width: 3"/>
    <path d="M 182.890309 79.62909 
L 182.890309 79.613031 
" clip-path="url(#p25a9b4cf00)" style="fill: none; stroke: #cb3250; stroke-width: 3"/>
    <path d="M 182.890309 79.613031 
L 182.890309 79.620312 
" clip-path="url(#p25a9b4cf00)" style="fill: none; stroke: #cb324f; stroke-width: 3"/>
    <path d="M 182.890309 79.620312 
L 182.890309 79.645631 
" clip-path="url(#p25a9b4cf00)" style="fill: none; stroke: #cc314e; stroke-width: 3"/>
    <path d="M 182.890309 79.645631 
L 182.890309 79.682935 
" clip-path="url(#p25a9b4cf00)" style="fill: none; stroke: #cc314e; stroke-width: 3"/>
    <path d="M 182.890309 79.682935 
L 182.890309 79.726389 
" clip-path="url(#p25a9b4cf00)" style="fill: none; stroke: #cd304d; stroke-width: 3"/>
    <path d="M 182.890309 79.726389 
L 182.890309 79.770881 
" clip-path="url(#p25a9b4cf00)" style="fill: none; stroke: #cd304c; stroke-width: 3"/>
    <path d="M 182.890309 79.770881 
L 182.890309 79.811916 
" clip-path="url(#p25a9b4cf00)" style="fill: none; stroke: #cd304c; stroke-width: 3"/>
    <path d="M 182.890309 79.811916 
L 182.890309 79.845453 
" clip-path="url(#p25a9b4cf00)" style="fill: none; stroke: #ce2f4b; stroke-width: 3"/>
    <path d="M 182.890309 79.845453 
L 182.890309 79.867892 
" clip-path="url(#p25a9b4cf00)" style="fill: none; stroke: #ce2f4b; stroke-width: 3"/>
    <path d="M 182.890309 79.867892 
L 182.890309 79.87678 
" clip-path="url(#p25a9b4cf00)" style="fill: none; stroke: #cf2f4a; stroke-width: 3"/>
    <path d="M 182.890309 79.87678 
L 182.890309 79.871951 
" clip-path="url(#p25a9b4cf00)" style="fill: none; stroke: #cf2e49; stroke-width: 3"/>
    <path d="M 182.890309 79.871951 
L 182.889638 79.855844 
" clip-path="url(#p25a9b4cf00)" style="fill: none; stroke: #cf2e49; stroke-width: 3"/>
    <path d="M 182.889638 79.855844 
L 182.885005 79.833442 
" clip-path="url(#p25a9b4cf00)" style="fill: none; stroke: #d02d48; stroke-width: 3"/>
    <path d="M 182.885005 79.833442 
L 182.872634 79.811569 
" clip-path="url(#p25a9b4cf00)" style="fill: none; stroke: #d02d47; stroke-width: 3"/>
    <path d="M 182.872634 79.811569 
L 182.848942 79.796795 
" clip-path="url(#p25a9b4cf00)" style="fill: none; stroke: #d12d47; stroke-width: 3"/>
    <path d="M 182.848942 79.796795 
L 182.810545 79.793327 
" clip-path="url(#p25a9b4cf00)" style="fill: none; stroke: #d12c46; stroke-width: 3"/>
    <path d="M 182.810545 79.793327 
L 182.754245 79.801517 
" clip-path="url(#p25a9b4cf00)" style="fill: none; stroke: #d12c46; stroke-width: 3"/>
    <path d="M 182.754245 79.801517 
L 182.677032 79.816796 
" clip-path="url(#p25a9b4cf00)" style="fill: none; stroke: #d22b45; stroke-width: 3"/>
    <path d="M 182.677032 79.816796 
L 182.576082 79.830463 
" clip-path="url(#p25a9b4cf00)" style="fill: none; stroke: #d22b44; stroke-width: 3"/>
    <path d="M 182.576082 79.830463 
L 182.448749 79.832025 
" clip-path="url(#p25a9b4cf00)" style="fill: none; stroke: #d32b44; stroke-width: 3"/>
    <path d="M 182.448749 79.832025 
L 182.292562 79.811773 
" clip-path="url(#p25a9b4cf00)" style="fill: none; stroke: #d32a43; stroke-width: 3"/>
    <path d="M 182.292562 79.811773 
L 182.105228 79.763214 
" clip-path="url(#p25a9b4cf00)" style="fill: none; stroke: #d42a42; stroke-width: 3"/>
    <path d="M 182.105228 79.763214 
L 181.88462 79.68433 
" clip-path="url(#p25a9b4cf00)" style="fill: none; stroke: #d42942; stroke-width: 3"/>
    <path d="M 181.88462 79.68433 
L 181.62878 79.576943 
" clip-path="url(#p25a9b4cf00)" style="fill: none; stroke: #d42941; stroke-width: 3"/>
    <path d="M 181.62878 79.576943 
L 181.335911 79.444773 
" clip-path="url(#p25a9b4cf00)" style="fill: none; stroke: #d52941; stroke-width: 3"/>
    <path d="M 181.335911 79.444773 
L 181.004378 79.291578 
" clip-path="url(#p25a9b4cf00)" style="fill: none; stroke: #d52840; stroke-width: 3"/>
    <path d="M 181.004378 79.291578 
L 180.632702 79.119768 
" clip-path="url(#p25a9b4cf00)" style="fill: none; stroke: #d6283f; stroke-width: 3"/>
    <path d="M 180.632702 79.119768 
L 180.219554 78.930001 
" clip-path="url(#p25a9b4cf00)" style="fill: none; stroke: #d6273f; stroke-width: 3"/>
    <path d="M 180.219554 78.930001 
L 179.763759 78.721946 
" clip-path="url(#p25a9b4cf00)" style="fill: none; stroke: #d6273e; stroke-width: 3"/>
    <path d="M 179.763759 78.721946 
L 179.264285 78.495622 
" clip-path="url(#p25a9b4cf00)" style="fill: none; stroke: #d7273d; stroke-width: 3"/>
    <path d="M 179.264285 78.495622 
L 178.720245 78.252752 
" clip-path="url(#p25a9b4cf00)" style="fill: none; stroke: #d7263d; stroke-width: 3"/>
    <path d="M 178.720245 78.252752 
L 178.130889 77.997404 
" clip-path="url(#p25a9b4cf00)" style="fill: none; stroke: #d8263c; stroke-width: 3"/>
    <path d="M 178.130889 77.997404 
L 177.495604 77.735779 
" clip-path="url(#p25a9b4cf00)" style="fill: none; stroke: #d8253c; stroke-width: 3"/>
    <path d="M 177.495604 77.735779 
L 176.813912 77.474174 
" clip-path="url(#p25a9b4cf00)" style="fill: none; stroke: #d8253b; stroke-width: 3"/>
    <path d="M 176.813912 77.474174 
L 176.08546 77.216649 
" clip-path="url(#p25a9b4cf00)" style="fill: none; stroke: #d9253a; stroke-width: 3"/>
    <path d="M 176.08546 77.216649 
L 175.310023 76.963632 
" clip-path="url(#p25a9b4cf00)" style="fill: none; stroke: #d9243a; stroke-width: 3"/>
    <path d="M 175.310023 76.963632 
L 174.487499 76.711264 
" clip-path="url(#p25a9b4cf00)" style="fill: none; stroke: #da2439; stroke-width: 3"/>
    <path d="M 174.487499 76.711264 
L 173.617904 76.453101 
" clip-path="url(#p25a9b4cf00)" style="fill: none; stroke: #da2338; stroke-width: 3"/>
    <path d="M 173.617904 76.453101 
L 172.701369 76.182819 
" clip-path="url(#p25a9b4cf00)" style="fill: none; stroke: #db2338; stroke-width: 3"/>
    <path d="M 172.701369 76.182819 
L 171.738138 75.896647 
" clip-path="url(#p25a9b4cf00)" style="fill: none; stroke: #db2337; stroke-width: 3"/>
    <path d="M 171.738138 75.896647 
L 170.728565 75.595043 
" clip-path="url(#p25a9b4cf00)" style="fill: none; stroke: #db2237; stroke-width: 3"/>
    <path d="M 170.728565 75.595043 
L 169.673106 75.282474 
" clip-path="url(#p25a9b4cf00)" style="fill: none; stroke: #dc2236; stroke-width: 3"/>
    <path d="M 169.673106 75.282474 
L 168.572323 74.96557 
" clip-path="url(#p25a9b4cf00)" style="fill: none; stroke: #dc2235; stroke-width: 3"/>
    <path d="M 168.572323 74.96557 
L 167.426874 74.649902 
" clip-path="url(#p25a9b4cf00)" style="fill: none; stroke: #dd2135; stroke-width: 3"/>
    <path d="M 167.426874 74.649902 
L 166.237512 74.337091 
" clip-path="url(#p25a9b4cf00)" style="fill: none; stroke: #dd2134; stroke-width: 3"/>
    <path d="M 166.237512 74.337091 
L 165.005083 74.022848 
" clip-path="url(#p25a9b4cf00)" style="fill: none; stroke: #dd2033; stroke-width: 3"/>
    <path d="M 165.005083 74.022848 
L 163.730522 73.69632 
" clip-path="url(#p25a9b4cf00)" style="fill: none; stroke: #de2033; stroke-width: 3"/>
    <path d="M 163.730522 73.69632 
L 162.414848 73.34187 
" clip-path="url(#p25a9b4cf00)" style="fill: none; stroke: #de2032; stroke-width: 3"/>
    <path d="M 162.414848 73.34187 
L 161.05916 72.941838 
" clip-path="url(#p25a9b4cf00)" style="fill: none; stroke: #df1f32; stroke-width: 3"/>
    <path d="M 161.05916 72.941838 
L 159.664638 72.479683 
" clip-path="url(#p25a9b4cf00)" style="fill: none; stroke: #df1f31; stroke-width: 3"/>
    <path d="M 159.664638 72.479683 
L 158.232535 71.943066 
" clip-path="url(#p25a9b4cf00)" style="fill: none; stroke: #df1e30; stroke-width: 3"/>
    <path d="M 158.232535 71.943066 
L 156.764176 71.325749 
" clip-path="url(#p25a9b4cf00)" style="fill: none; stroke: #e01e30; stroke-width: 3"/>
    <path d="M 156.764176 71.325749 
L 155.260955 70.628061 
" clip-path="url(#p25a9b4cf00)" style="fill: none; stroke: #e01e2f; stroke-width: 3"/>
    <path d="M 155.260955 70.628061 
L 153.724328 69.856384 
" clip-path="url(#p25a9b4cf00)" style="fill: none; stroke: #e11d2e; stroke-width: 3"/>
    <path d="M 153.724328 69.856384 
L 152.155815 69.021972 
" clip-path="url(#p25a9b4cf00)" style="fill: none; stroke: #e11d2e; stroke-width: 3"/>
    <path d="M 152.155815 69.021972 
L 150.556992 68.138782 
" clip-path="url(#p25a9b4cf00)" style="fill: none; stroke: #e11c2d; stroke-width: 3"/>
    <path d="M 150.556992 68.138782 
L 148.929489 67.221367 
" clip-path="url(#p25a9b4cf00)" style="fill: none; stroke: #e21c2d; stroke-width: 3"/>
    <path d="M 148.929489 67.221367 
L 147.27499 66.283151 
" clip-path="url(#p25a9b4cf00)" style="fill: none; stroke: #e21c2c; stroke-width: 3"/>
    <path d="M 147.27499 66.283151 
L 145.595222 65.334655 
" clip-path="url(#p25a9b4cf00)" style="fill: none; stroke: #e31b2b; stroke-width: 3"/>
    <path d="M 145.595222 65.334655 
L 143.891961 64.382802 
" clip-path="url(#p25a9b4cf00)" style="fill: none; stroke: #e31b2b; stroke-width: 3"/>
    <path d="M 143.891961 64.382802 
L 142.16702 63.431155 
" clip-path="url(#p25a9b4cf00)" style="fill: none; stroke: #e41a2a; stroke-width: 3"/>
    <path d="M 142.16702 63.431155 
L 140.422252 62.480371 
" clip-path="url(#p25a9b4cf00)" style="fill: none; stroke: #e41a29; stroke-width: 3"/>
    <path d="M 140.422252 62.480371 
L 138.659542 61.529163 
" clip-path="url(#p25a9b4cf00)" style="fill: none; stroke: #e41a29; stroke-width: 3"/>
    <path d="M 138.659542 61.529163 
L 136.880806 60.575366 
" clip-path="url(#p25a9b4cf00)" style="fill: none; stroke: #e51928; stroke-width: 3"/>
    <path d="M 136.880806 60.575366 
L 135.087989 59.616747 
" clip-path="url(#p25a9b4cf00)" style="fill: none; stroke: #e51928; stroke-width: 3"/>
    <path d="M 135.087989 59.616747 
L 133.283058 58.651714 
" clip-path="url(#p25a9b4cf00)" style="fill: none; stroke: #e61827; stroke-width: 3"/>
    <path d="M 133.283058 58.651714 
L 131.468 57.67992 
" clip-path="url(#p25a9b4cf00)" style="fill: none; stroke: #e61826; stroke-width: 3"/>
    <path d="M 131.468 57.67992 
L 129.644821 56.702477 
" clip-path="url(#p25a9b4cf00)" style="fill: none; stroke: #e61826; stroke-width: 3"/>
    <path d="M 129.644821 56.702477 
L 127.815539 55.721356 
" clip-path="url(#p25a9b4cf00)" style="fill: none; stroke: #e71725; stroke-width: 3"/>
    <path d="M 127.815539 55.721356 
L 125.982183 54.738522 
" clip-path="url(#p25a9b4cf00)" style="fill: none; stroke: #e71724; stroke-width: 3"/>
    <path d="M 125.982183 54.738522 
L 124.146788 53.754867 
" clip-path="url(#p25a9b4cf00)" style="fill: none; stroke: #e81624; stroke-width: 3"/>
    <path d="M 124.146788 53.754867 
L 122.311393 52.768853 
" clip-path="url(#p25a9b4cf00)" style="fill: none; stroke: #e81623; stroke-width: 3"/>
    <path d="M 122.311393 52.768853 
L 120.478036 51.776262 
" clip-path="url(#p25a9b4cf00)" style="fill: none; stroke: #e81622; stroke-width: 3"/>
    <path d="M 120.478036 51.776262 
L 118.648754 50.77063 
" clip-path="url(#p25a9b4cf00)" style="fill: none; stroke: #e91522; stroke-width: 3"/>
    <path d="M 118.648754 50.77063 
L 116.825575 49.743942 
" clip-path="url(#p25a9b4cf00)" style="fill: none; stroke: #e91521; stroke-width: 3"/>
    <path d="M 116.825575 49.743942 
L 115.010518 48.688293 
" clip-path="url(#p25a9b4cf00)" style="fill: none; stroke: #ea1421; stroke-width: 3"/>
    <path d="M 115.010518 48.688293 
L 113.205587 47.597491 
" clip-path="url(#p25a9b4cf00)" style="fill: none; stroke: #ea1420; stroke-width: 3"/>
    <path d="M 113.205587 47.597491 
L 111.412769 46.468124 
" clip-path="url(#p25a9b4cf00)" style="fill: none; stroke: #ea141f; stroke-width: 3"/>
    <path d="M 111.412769 46.468124 
L 109.634034 45.300405 
" clip-path="url(#p25a9b4cf00)" style="fill: none; stroke: #eb131f; stroke-width: 3"/>
    <path d="M 109.634034 45.300405 
L 107.871324 44.098426 
" clip-path="url(#p25a9b4cf00)" style="fill: none; stroke: #eb131e; stroke-width: 3"/>
    <path d="M 107.871324 44.098426 
L 106.126555 42.869604 
" clip-path="url(#p25a9b4cf00)" style="fill: none; stroke: #ec131d; stroke-width: 3"/>
    <path d="M 106.126555 42.869604 
L 104.401614 41.62382 
" clip-path="url(#p25a9b4cf00)" style="fill: none; stroke: #ec121d; stroke-width: 3"/>
    <path d="M 104.401614 41.62382 
L 102.698353 40.372498 
" clip-path="url(#p25a9b4cf00)" style="fill: none; stroke: #ed121c; stroke-width: 3"/>
    <path d="M 102.698353 40.372498 
L 101.018586 39.127559 
" clip-path="url(#p25a9b4cf00)" style="fill: none; stroke: #ed111c; stroke-width: 3"/>
    <path d="M 101.018586 39.127559 
L 99.364086 37.900698 
" clip-path="url(#p25a9b4cf00)" style="fill: none; stroke: #ed111b; stroke-width: 3"/>
    <path d="M 99.364086 37.900698 
L 97.736584 36.703096 
" clip-path="url(#p25a9b4cf00)" style="fill: none; stroke: #ee111a; stroke-width: 3"/>
    <path d="M 97.736584 36.703096 
L 96.137761 35.545132 
" clip-path="url(#p25a9b4cf00)" style="fill: none; stroke: #ee101a; stroke-width: 3"/>
    <path d="M 96.137761 35.545132 
L 94.569247 34.435805 
" clip-path="url(#p25a9b4cf00)" style="fill: none; stroke: #ef1019; stroke-width: 3"/>
    <path d="M 94.569247 34.435805 
L 93.032621 33.382151 
" clip-path="url(#p25a9b4cf00)" style="fill: none; stroke: #ef0f18; stroke-width: 3"/>
    <path d="M 93.032621 33.382151 
L 91.529399 32.388472 
" clip-path="url(#p25a9b4cf00)" style="fill: none; stroke: #ef0f18; stroke-width: 3"/>
    <path d="M 91.529399 32.388472 
L 90.061041 31.455432 
" clip-path="url(#p25a9b4cf00)" style="fill: none; stroke: #f00f17; stroke-width: 3"/>
    <path d="M 90.061041 31.455432 
L 88.628938 30.580119 
" clip-path="url(#p25a9b4cf00)" style="fill: none; stroke: #f00e17; stroke-width: 3"/>
    <path d="M 88.628938 30.580119 
L 87.234416 29.756559 
" clip-path="url(#p25a9b4cf00)" style="fill: none; stroke: #f10e16; stroke-width: 3"/>
    <path d="M 87.234416 29.756559 
L 85.878728 28.976456 
" clip-path="url(#p25a9b4cf00)" style="fill: none; stroke: #f10d15; stroke-width: 3"/>
    <path d="M 85.878728 28.976456 
L 84.563053 28.230716 
" clip-path="url(#p25a9b4cf00)" style="fill: none; stroke: #f10d15; stroke-width: 3"/>
    <path d="M 84.563053 28.230716 
L 83.288492 27.510729 
" clip-path="url(#p25a9b4cf00)" style="fill: none; stroke: #f20d14; stroke-width: 3"/>
    <path d="M 83.288492 27.510729 
L 82.056064 26.80926 
" clip-path="url(#p25a9b4cf00)" style="fill: none; stroke: #f20c13; stroke-width: 3"/>
    <path d="M 82.056064 26.80926 
L 80.866702 26.12112 
" clip-path="url(#p25a9b4cf00)" style="fill: none; stroke: #f30c13; stroke-width: 3"/>
    <path d="M 80.866702 26.12112 
L 79.721252 25.443178 
" clip-path="url(#p25a9b4cf00)" style="fill: none; stroke: #f30b12; stroke-width: 3"/>
    <path d="M 79.721252 25.443178 
L 78.620469 24.773862 
" clip-path="url(#p25a9b4cf00)" style="fill: none; stroke: #f40b12; stroke-width: 3"/>
    <path d="M 78.620469 24.773862 
L 77.565011 24.112369 
" clip-path="url(#p25a9b4cf00)" style="fill: none; stroke: #f40b11; stroke-width: 3"/>
    <path d="M 77.565011 24.112369 
L 76.555437 23.457907 
" clip-path="url(#p25a9b4cf00)" style="fill: none; stroke: #f40a10; stroke-width: 3"/>
    <path d="M 76.555437 23.457907 
L 75.592207 22.809015 
" clip-path="url(#p25a9b4cf00)" style="fill: none; stroke: #f50a10; stroke-width: 3"/>
    <path d="M 75.592207 22.809015 
L 74.675672 22.163328 
" clip-path="url(#p25a9b4cf00)" style="fill: none; stroke: #f5090f; stroke-width: 3"/>
    <path d="M 74.675672 22.163328 
L 73.806076 21.518021 
" clip-path="url(#p25a9b4cf00)" style="fill: none; stroke: #f6090e; stroke-width: 3"/>
    <path d="M 73.806076 21.518021 
L 72.983552 20.870506 
" clip-path="url(#p25a9b4cf00)" style="fill: none; stroke: #f6090e; stroke-width: 3"/>
    <path d="M 72.983552 20.870506 
L 72.208116 20.219431 
" clip-path="url(#p25a9b4cf00)" style="fill: none; stroke: #f6080d; stroke-width: 3"/>
    <path d="M 72.208116 20.219431 
L 71.479664 19.56566 
" clip-path="url(#p25a9b4cf00)" style="fill: none; stroke: #f7080d; stroke-width: 3"/>
    <path d="M 71.479664 19.56566 
L 70.797971 18.912809 
" clip-path="url(#p25a9b4cf00)" style="fill: none; stroke: #f7070c; stroke-width: 3"/>
    <path d="M 70.797971 18.912809 
L 70.162687 18.267178 
" clip-path="url(#p25a9b4cf00)" style="fill: none; stroke: #f8070b; stroke-width: 3"/>
    <path d="M 70.162687 18.267178 
L 69.573331 17.63711 
" clip-path="url(#p25a9b4cf00)" style="fill: none; stroke: #f8070b; stroke-width: 3"/>
    <path d="M 69.573331 17.63711 
L 69.02929 17.031929 
" clip-path="url(#p25a9b4cf00)" style="fill: none; stroke: #f8060a; stroke-width: 3"/>
    <path d="M 69.02929 17.031929 
L 68.529817 16.460423 
" clip-path="url(#p25a9b4cf00)" style="fill: none; stroke: #f90609; stroke-width: 3"/>
    <path d="M 68.529817 16.460423 
L 68.074021 15.929724 
" clip-path="url(#p25a9b4cf00)" style="fill: none; stroke: #f90609; stroke-width: 3"/>
    <path d="M 68.074021 15.929724 
L 67.660874 15.444473 
" clip-path="url(#p25a9b4cf00)" style="fill: none; stroke: #fa0508; stroke-width: 3"/>
    <path d="M 67.660874 15.444473 
L 67.289197 15.006374 
" clip-path="url(#p25a9b4cf00)" style="fill: none; stroke: #fa0508; stroke-width: 3"/>
    <path d="M 67.289197 15.006374 
L 66.957664 14.614663 
" clip-path="url(#p25a9b4cf00)" style="fill: none; stroke: #fa0407; stroke-width: 3"/>
    <path d="M 66.957664 14.614663 
L 66.664795 14.266751 
" clip-path="url(#p25a9b4cf00)" style="fill: none; stroke: #fb0406; stroke-width: 3"/>
    <path d="M 66.664795 14.266751 
L 66.408955 13.959174 
" clip-path="url(#p25a9b4cf00)" style="fill: none; stroke: #fb0406; stroke-width: 3"/>
    <path d="M 66.408955 13.959174 
L 66.188347 13.688542 
" clip-path="url(#p25a9b4cf00)" style="fill: none; stroke: #fc0305; stroke-width: 3"/>
    <path d="M 66.188347 13.688542 
L 66.001013 13.452021 
" clip-path="url(#p25a9b4cf00)" style="fill: none; stroke: #fc0304; stroke-width: 3"/>
    <path d="M 66.001013 13.452021 
L 65.844827 13.247687 
" clip-path="url(#p25a9b4cf00)" style="fill: none; stroke: #fd0204; stroke-width: 3"/>
    <path d="M 65.844827 13.247687 
L 65.717493 13.074352 
" clip-path="url(#p25a9b4cf00)" style="fill: none; stroke: #fd0203; stroke-width: 3"/>
    <path d="M 65.717493 13.074352 
L 65.616543 13.232996 
" clip-path="url(#p25a9b4cf00)" style="fill: none; stroke: #fd0203; stroke-width: 3"/>
    <path d="M 65.616543 13.232996 
L 65.539331 13.232996 
" clip-path="url(#p25a9b4cf00)" style="fill: none; stroke: #fe0102; stroke-width: 3"/>
    <path d="M 65.539331 13.232996 
L 65.483031 13.232996 
" clip-path="url(#p25a9b4cf00)" style="fill: none; stroke: #fe0101; stroke-width: 3"/>
    <path d="M 65.483031 13.232996 
L 65.444633 13.232996 
" clip-path="url(#p25a9b4cf00)" style="fill: none; stroke: #ff0001; stroke-width: 3"/>
    <path d="M 65.444633 13.232996 
L 65.420942 13.232996 
" clip-path="url(#p25a9b4cf00)" style="fill: none; stroke: #ff0000; stroke-width: 3"/>
   </g>
   <g id="patch_3">
    <path d="M 59.528914 136.435748 
L 59.528914 7.2 
" style="fill: none; stroke: #000000; stroke-width: 0.8; stroke-linejoin: miter; stroke-linecap: square"/>
   </g>
   <g id="patch_4">
    <path d="M 188.764662 136.435748 
L 188.764662 7.2 
" style="fill: none; stroke: #000000; stroke-width: 0.8; stroke-linejoin: miter; stroke-linecap: square"/>
   </g>
   <g id="patch_5">
    <path d="M 59.528914 136.435748 
L 188.764662 136.435748 
" style="fill: none; stroke: #000000; stroke-width: 0.8; stroke-linejoin: miter; stroke-linecap: square"/>
   </g>
   <g id="patch_6">
    <path d="M 59.528914 7.2 
L 188.764662 7.2 
" style="fill: none; stroke: #000000; stroke-width: 0.8; stroke-linejoin: miter; stroke-linecap: square"/>
   </g>
   <g id="text_10">
    <!-- 1 -->
    <g transform="translate(70.403266 23.232996) scale(0.15 -0.15)">
     <defs>
      <path id="CMR17-31" d="M 1702 4058 
C 1702 4192 1696 4192 1606 4192 
C 1357 3916 979 3827 621 3827 
C 602 3827 570 3827 563 3808 
C 557 3795 557 3782 557 3648 
C 755 3648 1088 3686 1344 3839 
L 1344 461 
C 1344 236 1331 160 781 160 
L 589 160 
L 589 0 
C 896 0 1216 0 1523 0 
C 1830 0 2150 0 2458 0 
L 2458 160 
L 2266 160 
C 1715 160 1702 230 1702 458 
L 1702 4058 
z
" transform="scale(0.015625)"/>
     </defs>
     <use xlink:href="#CMR17-31" transform="scale(0.996264)"/>
    </g>
   </g>
   <g id="text_11">
    <!-- 2 -->
    <g transform="translate(187.885005 112.531451) scale(0.15 -0.15)">
     <use xlink:href="#CMR17-32" transform="scale(0.996264)"/>
    </g>
   </g>
   <g id="text_12">
    <!-- 3 -->
    <g transform="translate(187.890309 74.867892) scale(0.15 -0.15)">
     <defs>
      <path id="CMR17-33" d="M 1414 2157 
C 1984 2157 2234 1662 2234 1090 
C 2234 320 1824 25 1453 25 
C 1114 25 563 194 390 693 
C 422 680 454 680 486 680 
C 640 680 755 782 755 948 
C 755 1133 614 1216 486 1216 
C 378 1216 211 1165 211 926 
C 211 335 787 -128 1466 -128 
C 2176 -128 2720 430 2720 1085 
C 2720 1707 2208 2157 1600 2227 
C 2086 2328 2554 2756 2554 3329 
C 2554 3820 2048 4179 1472 4179 
C 890 4179 378 3829 378 3329 
C 378 3110 544 3072 627 3072 
C 762 3072 877 3155 877 3321 
C 877 3486 762 3569 627 3569 
C 602 3569 570 3569 544 3557 
C 730 3959 1235 4032 1459 4032 
C 1683 4032 2106 3925 2106 3320 
C 2106 3143 2080 2828 1862 2550 
C 1670 2304 1453 2304 1242 2284 
C 1210 2284 1062 2269 1037 2269 
C 992 2263 966 2257 966 2208 
C 966 2163 973 2157 1101 2157 
L 1414 2157 
z
" transform="scale(0.015625)"/>
     </defs>
     <use xlink:href="#CMR17-33" transform="scale(0.996264)"/>
    </g>
   </g>
   <g id="PathCollection_1">
    <defs>
     <path id="m658221e805" d="M 0 3.535534 
C 0.937635 3.535534 1.836992 3.163008 2.5 2.5 
C 3.163008 1.836992 3.535534 0.937635 3.535534 0 
C 3.535534 -0.937635 3.163008 -1.836992 2.5 -2.5 
C 1.836992 -3.163008 0.937635 -3.535534 0 -3.535534 
C -0.937635 -3.535534 -1.836992 -3.163008 -2.5 -2.5 
C -3.163008 -1.836992 -3.535534 -0.937635 -3.535534 0 
C -3.535534 0.937635 -3.163008 1.836992 -2.5 2.5 
C -1.836992 3.163008 -0.937635 3.535534 0 3.535534 
z
" style="stroke: #000000; stroke-width: 0.24"/>
    </defs>
    <g clip-path="url(#p25a9b4cf00)">
     <use xlink:href="#m658221e805" x="65.403266" y="13.232996" style="stroke: #000000; stroke-width: 0.24"/>
    </g>
   </g>
   <g id="PathCollection_2">
    <g clip-path="url(#p25a9b4cf00)">
     <use xlink:href="#m658221e805" x="182.885005" y="117.531451" style="stroke: #000000; stroke-width: 0.24"/>
    </g>
   </g>
   <g id="PathCollection_3">
    <g clip-path="url(#p25a9b4cf00)">
     <use xlink:href="#m658221e805" x="182.890309" y="79.867892" style="stroke: #000000; stroke-width: 0.24"/>
    </g>
   </g>
  </g>
 </g>
 <defs>
  <clipPath id="p25a9b4cf00">
   <rect x="59.528914" y="7.2" width="129.235748" height="129.235748"/>
  </clipPath>
 </defs>
</svg>
