<?xml version="1.0" encoding="utf-8" standalone="no"?>
<!DOCTYPE svg PUBLIC "-//W3C//DTD SVG 1.1//EN"
  "http://www.w3.org/Graphics/SVG/1.1/DTD/svg11.dtd">
<svg xmlns:xlink="http://www.w3.org/1999/xlink" width="840.71952pt" height="216.47952pt" viewBox="0 0 840.71952 216.47952" xmlns="http://www.w3.org/2000/svg" version="1.1">
 <metadata>
  <rdf:RDF xmlns:dc="http://purl.org/dc/elements/1.1/" xmlns:cc="http://creativecommons.org/ns#" xmlns:rdf="http://www.w3.org/1999/02/22-rdf-syntax-ns#">
   <cc:Work>
    <dc:type rdf:resource="http://purl.org/dc/dcmitype/StillImage"/>
    <dc:date>1980-01-01T00:00:00+00:00</dc:date>
    <dc:format>image/svg+xml</dc:format>
    <dc:creator>
     <cc:Agent>
      <dc:title>Matplotlib v3.6.2, https://matplotlib.org/</dc:title>
     </cc:Agent>
    </dc:creator>
   </cc:Work>
  </rdf:RDF>
 </metadata>
 <defs>
  <style type="text/css">*{stroke-linejoin: round; stroke-linecap: butt}</style>
 </defs>
 <g id="figure_1">
  <g id="patch_1">
   <path d="M 0 216.47952 
L 840.71952 216.47952 
L 840.71952 0 
L 0 0 
z
" style="fill: #ffffff"/>
  </g>
  <g id="axes_1">
   <g id="patch_2">
    <path d="M 48.016452 173.15484 
L 827.178781 173.15484 
L 827.178781 7.2 
L 48.016452 7.2 
z
" style="fill: #ffffff"/>
   </g>
   <g id="matplotlib.axis_1">
    <g id="xtick_1">
     <g id="line2d_1">
      <defs>
       <path id="m7b8abcfcab" d="M 0 0 
L 0 3.5 
" style="stroke: #000000; stroke-width: 0.8"/>
      </defs>
      <g>
       <use xlink:href="#m7b8abcfcab" x="48.016452" y="173.15484" style="stroke: #000000; stroke-width: 0.8"/>
      </g>
     </g>
     <g id="text_1">
      <!-- $\mathdefault{0}$ -->
      <g transform="translate(44.846082 191.248868) scale(0.13 -0.13)">
       <defs>
        <path id="CMR17-30" d="M 2688 2025 
C 2688 2416 2682 3080 2413 3591 
C 2176 4039 1798 4198 1466 4198 
C 1158 4198 768 4058 525 3597 
C 269 3118 243 2524 243 2025 
C 243 1661 250 1106 448 619 
C 723 -39 1216 -128 1466 -128 
C 1760 -128 2208 -7 2470 600 
C 2662 1042 2688 1559 2688 2025 
z
M 1466 -26 
C 1056 -26 813 325 723 812 
C 653 1188 653 1738 653 2096 
C 653 2588 653 2997 736 3387 
C 858 3929 1216 4096 1466 4096 
C 1728 4096 2067 3923 2189 3400 
C 2272 3036 2278 2607 2278 2096 
C 2278 1680 2278 1169 2202 792 
C 2067 95 1690 -26 1466 -26 
z
" transform="scale(0.015625)"/>
       </defs>
       <use xlink:href="#CMR17-30" transform="scale(0.996264)"/>
      </g>
     </g>
    </g>
    <g id="xtick_2">
     <g id="line2d_2">
      <g>
       <use xlink:href="#m7b8abcfcab" x="177.87684" y="173.15484" style="stroke: #000000; stroke-width: 0.8"/>
      </g>
     </g>
     <g id="text_2">
      <!-- $\mathdefault{10}$ -->
      <g transform="translate(171.536101 191.248868) scale(0.13 -0.13)">
       <defs>
        <path id="CMR17-31" d="M 1702 4058 
C 1702 4192 1696 4192 1606 4192 
C 1357 3916 979 3827 621 3827 
C 602 3827 570 3827 563 3808 
C 557 3795 557 3782 557 3648 
C 755 3648 1088 3686 1344 3839 
L 1344 461 
C 1344 236 1331 160 781 160 
L 589 160 
L 589 0 
C 896 0 1216 0 1523 0 
C 1830 0 2150 0 2458 0 
L 2458 160 
L 2266 160 
C 1715 160 1702 230 1702 458 
L 1702 4058 
z
" transform="scale(0.015625)"/>
       </defs>
       <use xlink:href="#CMR17-31" transform="scale(0.996264)"/>
       <use xlink:href="#CMR17-30" transform="translate(45.690477 0) scale(0.996264)"/>
      </g>
     </g>
    </g>
    <g id="xtick_3">
     <g id="line2d_3">
      <g>
       <use xlink:href="#m7b8abcfcab" x="307.737228" y="173.15484" style="stroke: #000000; stroke-width: 0.8"/>
      </g>
     </g>
     <g id="text_3">
      <!-- $\mathdefault{20}$ -->
      <g transform="translate(301.396489 191.248868) scale(0.13 -0.13)">
       <defs>
        <path id="CMR17-32" d="M 2669 989 
L 2554 989 
C 2490 536 2438 459 2413 420 
C 2381 369 1920 369 1830 369 
L 602 369 
C 832 619 1280 1072 1824 1597 
C 2214 1967 2669 2402 2669 3035 
C 2669 3790 2067 4224 1395 4224 
C 691 4224 262 3604 262 3030 
C 262 2780 448 2748 525 2748 
C 589 2748 781 2787 781 3010 
C 781 3207 614 3264 525 3264 
C 486 3264 448 3258 422 3245 
C 544 3790 915 4058 1306 4058 
C 1862 4058 2227 3617 2227 3035 
C 2227 2479 1901 2000 1536 1584 
L 262 146 
L 262 0 
L 2515 0 
L 2669 989 
z
" transform="scale(0.015625)"/>
       </defs>
       <use xlink:href="#CMR17-32" transform="scale(0.996264)"/>
       <use xlink:href="#CMR17-30" transform="translate(45.690477 0) scale(0.996264)"/>
      </g>
     </g>
    </g>
    <g id="xtick_4">
     <g id="line2d_4">
      <g>
       <use xlink:href="#m7b8abcfcab" x="437.597616" y="173.15484" style="stroke: #000000; stroke-width: 0.8"/>
      </g>
     </g>
     <g id="text_4">
      <!-- $\mathdefault{30}$ -->
      <g transform="translate(431.256877 191.248868) scale(0.13 -0.13)">
       <defs>
        <path id="CMR17-33" d="M 1414 2157 
C 1984 2157 2234 1662 2234 1090 
C 2234 320 1824 25 1453 25 
C 1114 25 563 194 390 693 
C 422 680 454 680 486 680 
C 640 680 755 782 755 948 
C 755 1133 614 1216 486 1216 
C 378 1216 211 1165 211 926 
C 211 335 787 -128 1466 -128 
C 2176 -128 2720 430 2720 1085 
C 2720 1707 2208 2157 1600 2227 
C 2086 2328 2554 2756 2554 3329 
C 2554 3820 2048 4179 1472 4179 
C 890 4179 378 3829 378 3329 
C 378 3110 544 3072 627 3072 
C 762 3072 877 3155 877 3321 
C 877 3486 762 3569 627 3569 
C 602 3569 570 3569 544 3557 
C 730 3959 1235 4032 1459 4032 
C 1683 4032 2106 3925 2106 3320 
C 2106 3143 2080 2828 1862 2550 
C 1670 2304 1453 2304 1242 2284 
C 1210 2284 1062 2269 1037 2269 
C 992 2263 966 2257 966 2208 
C 966 2163 973 2157 1101 2157 
L 1414 2157 
z
" transform="scale(0.015625)"/>
       </defs>
       <use xlink:href="#CMR17-33" transform="scale(0.996264)"/>
       <use xlink:href="#CMR17-30" transform="translate(45.690477 0) scale(0.996264)"/>
      </g>
     </g>
    </g>
    <g id="xtick_5">
     <g id="line2d_5">
      <g>
       <use xlink:href="#m7b8abcfcab" x="567.458004" y="173.15484" style="stroke: #000000; stroke-width: 0.8"/>
      </g>
     </g>
     <g id="text_5">
      <!-- $\mathdefault{40}$ -->
      <g transform="translate(561.117265 191.248868) scale(0.13 -0.13)">
       <defs>
        <path id="CMR17-34" d="M 2150 4122 
C 2150 4256 2144 4256 2029 4256 
L 128 1254 
L 128 1088 
L 1779 1088 
L 1779 457 
C 1779 224 1766 160 1318 160 
L 1197 160 
L 1197 0 
C 1402 0 1747 0 1965 0 
C 2182 0 2528 0 2733 0 
L 2733 160 
L 2611 160 
C 2163 160 2150 224 2150 457 
L 2150 1088 
L 2803 1088 
L 2803 1254 
L 2150 1254 
L 2150 4122 
z
M 1798 3703 
L 1798 1254 
L 256 1254 
L 1798 3703 
z
" transform="scale(0.015625)"/>
       </defs>
       <use xlink:href="#CMR17-34" transform="scale(0.996264)"/>
       <use xlink:href="#CMR17-30" transform="translate(45.690477 0) scale(0.996264)"/>
      </g>
     </g>
    </g>
    <g id="xtick_6">
     <g id="line2d_6">
      <g>
       <use xlink:href="#m7b8abcfcab" x="697.318392" y="173.15484" style="stroke: #000000; stroke-width: 0.8"/>
      </g>
     </g>
     <g id="text_6">
      <!-- $\mathdefault{50}$ -->
      <g transform="translate(690.977653 191.248868) scale(0.13 -0.13)">
       <defs>
        <path id="CMR17-35" d="M 730 3692 
C 794 3666 1056 3584 1325 3584 
C 1920 3584 2246 3911 2432 4100 
C 2432 4157 2432 4192 2394 4192 
C 2387 4192 2374 4192 2323 4163 
C 2099 4058 1837 3973 1517 3973 
C 1325 3973 1037 3999 723 4139 
C 653 4171 640 4171 634 4171 
C 602 4171 595 4164 595 4037 
L 595 2203 
C 595 2089 595 2057 659 2057 
C 691 2057 704 2070 736 2114 
C 941 2401 1222 2522 1542 2522 
C 1766 2522 2246 2382 2246 1289 
C 2246 1085 2246 715 2054 421 
C 1894 159 1645 25 1370 25 
C 947 25 518 320 403 814 
C 429 807 480 795 506 795 
C 589 795 749 840 749 1038 
C 749 1210 627 1280 506 1280 
C 358 1280 262 1190 262 1011 
C 262 454 704 -128 1382 -128 
C 2042 -128 2669 440 2669 1264 
C 2669 2030 2170 2624 1549 2624 
C 1222 2624 947 2503 730 2274 
L 730 3692 
z
" transform="scale(0.015625)"/>
       </defs>
       <use xlink:href="#CMR17-35" transform="scale(0.996264)"/>
       <use xlink:href="#CMR17-30" transform="translate(45.690477 0) scale(0.996264)"/>
      </g>
     </g>
    </g>
    <g id="xtick_7">
     <g id="line2d_7">
      <g>
       <use xlink:href="#m7b8abcfcab" x="827.178781" y="173.15484" style="stroke: #000000; stroke-width: 0.8"/>
      </g>
     </g>
     <g id="text_7">
      <!-- $\mathdefault{60}$ -->
      <g transform="translate(820.838041 191.248868) scale(0.13 -0.13)">
       <defs>
        <path id="CMR17-36" d="M 678 2176 
C 678 3690 1395 4032 1811 4032 
C 1946 4032 2272 4009 2400 3776 
C 2298 3776 2106 3776 2106 3553 
C 2106 3381 2246 3323 2336 3323 
C 2394 3323 2566 3348 2566 3560 
C 2566 3954 2246 4179 1805 4179 
C 1043 4179 243 3390 243 1984 
C 243 253 966 -128 1478 -128 
C 2099 -128 2688 427 2688 1283 
C 2688 2081 2170 2662 1517 2662 
C 1126 2662 838 2407 678 1960 
L 678 2176 
z
M 1478 25 
C 691 25 691 1200 691 1436 
C 691 1896 909 2560 1504 2560 
C 1613 2560 1926 2560 2138 2120 
C 2253 1870 2253 1609 2253 1289 
C 2253 944 2253 690 2118 434 
C 1978 171 1773 25 1478 25 
z
" transform="scale(0.015625)"/>
       </defs>
       <use xlink:href="#CMR17-36" transform="scale(0.996264)"/>
       <use xlink:href="#CMR17-30" transform="translate(45.690477 0) scale(0.996264)"/>
      </g>
     </g>
    </g>
    <g id="text_8">
     <!-- $\tau$ -->
     <g transform="translate(434.843973 206.761208) scale(0.13 -0.13)">
      <defs>
       <path id="CMMI12-1c" d="M 1837 2408 
L 2899 2408 
C 2982 2408 3194 2408 3194 2612 
C 3194 2752 3072 2752 2957 2752 
L 1197 2752 
C 1050 2752 832 2752 538 2440 
C 371 2255 166 1917 166 1879 
C 166 1841 198 1828 237 1828 
C 282 1828 288 1847 320 1885 
C 653 2408 986 2408 1146 2408 
L 1677 2408 
L 1011 223 
C 979 127 979 114 979 95 
C 979 25 1024 -64 1152 -64 
C 1350 -64 1382 108 1402 203 
L 1837 2408 
z
" transform="scale(0.015625)"/>
      </defs>
      <use xlink:href="#CMMI12-1c" transform="scale(0.996264)"/>
     </g>
    </g>
   </g>
   <g id="matplotlib.axis_2">
    <g id="ytick_1">
     <g id="line2d_8">
      <defs>
       <path id="m316dca64d8" d="M 0 0 
L -3.5 0 
" style="stroke: #000000; stroke-width: 0.8"/>
      </defs>
      <g>
       <use xlink:href="#m316dca64d8" x="48.016452" y="165.611438" style="stroke: #000000; stroke-width: 0.8"/>
      </g>
     </g>
     <g id="text_9">
      <!-- $\mathdefault{0.0}$ -->
      <g transform="translate(22.71234 170.108452) scale(0.13 -0.13)">
       <defs>
        <path id="CMMI12-3a" d="M 1178 307 
C 1178 492 1024 619 870 619 
C 685 619 557 466 557 313 
C 557 128 710 0 864 0 
C 1050 0 1178 153 1178 307 
z
" transform="scale(0.015625)"/>
       </defs>
       <use xlink:href="#CMR17-30" transform="scale(0.996264)"/>
       <use xlink:href="#CMMI12-3a" transform="translate(45.690477 0) scale(0.996264)"/>
       <use xlink:href="#CMR17-30" transform="translate(72.787654 0) scale(0.996264)"/>
      </g>
     </g>
    </g>
    <g id="ytick_2">
     <g id="line2d_9">
      <g>
       <use xlink:href="#m316dca64d8" x="48.016452" y="135.437831" style="stroke: #000000; stroke-width: 0.8"/>
      </g>
     </g>
     <g id="text_10">
      <!-- $\mathdefault{0.1}$ -->
      <g transform="translate(22.71234 139.934845) scale(0.13 -0.13)">
       <use xlink:href="#CMR17-30" transform="scale(0.996264)"/>
       <use xlink:href="#CMMI12-3a" transform="translate(45.690477 0) scale(0.996264)"/>
       <use xlink:href="#CMR17-31" transform="translate(72.787654 0) scale(0.996264)"/>
      </g>
     </g>
    </g>
    <g id="ytick_3">
     <g id="line2d_10">
      <g>
       <use xlink:href="#m316dca64d8" x="48.016452" y="105.264223" style="stroke: #000000; stroke-width: 0.8"/>
      </g>
     </g>
     <g id="text_11">
      <!-- $\mathdefault{0.2}$ -->
      <g transform="translate(22.71234 109.761237) scale(0.13 -0.13)">
       <use xlink:href="#CMR17-30" transform="scale(0.996264)"/>
       <use xlink:href="#CMMI12-3a" transform="translate(45.690477 0) scale(0.996264)"/>
       <use xlink:href="#CMR17-32" transform="translate(72.787654 0) scale(0.996264)"/>
      </g>
     </g>
    </g>
    <g id="ytick_4">
     <g id="line2d_11">
      <g>
       <use xlink:href="#m316dca64d8" x="48.016452" y="75.090616" style="stroke: #000000; stroke-width: 0.8"/>
      </g>
     </g>
     <g id="text_12">
      <!-- $\mathdefault{0.3}$ -->
      <g transform="translate(22.71234 79.58763) scale(0.13 -0.13)">
       <use xlink:href="#CMR17-30" transform="scale(0.996264)"/>
       <use xlink:href="#CMMI12-3a" transform="translate(45.690477 0) scale(0.996264)"/>
       <use xlink:href="#CMR17-33" transform="translate(72.787654 0) scale(0.996264)"/>
      </g>
     </g>
    </g>
    <g id="ytick_5">
     <g id="line2d_12">
      <g>
       <use xlink:href="#m316dca64d8" x="48.016452" y="44.917009" style="stroke: #000000; stroke-width: 0.8"/>
      </g>
     </g>
     <g id="text_13">
      <!-- $\mathdefault{0.4}$ -->
      <g transform="translate(22.71234 49.414023) scale(0.13 -0.13)">
       <use xlink:href="#CMR17-30" transform="scale(0.996264)"/>
       <use xlink:href="#CMMI12-3a" transform="translate(45.690477 0) scale(0.996264)"/>
       <use xlink:href="#CMR17-34" transform="translate(72.787654 0) scale(0.996264)"/>
      </g>
     </g>
    </g>
    <g id="ytick_6">
     <g id="line2d_13">
      <g>
       <use xlink:href="#m316dca64d8" x="48.016452" y="14.743402" style="stroke: #000000; stroke-width: 0.8"/>
      </g>
     </g>
     <g id="text_14">
      <!-- $\mathdefault{0.5}$ -->
      <g transform="translate(22.71234 19.240416) scale(0.13 -0.13)">
       <use xlink:href="#CMR17-30" transform="scale(0.996264)"/>
       <use xlink:href="#CMMI12-3a" transform="translate(45.690477 0) scale(0.996264)"/>
       <use xlink:href="#CMR17-35" transform="translate(72.787654 0) scale(0.996264)"/>
      </g>
     </g>
    </g>
    <g id="text_15">
     <!-- Operator Norm -->
     <g transform="translate(16.194028 133.151293) rotate(-90) scale(0.13 -0.13)">
      <defs>
       <path id="CMR17-4f" d="M 4307 2135 
C 4307 3437 3366 4416 2304 4416 
C 1216 4416 294 3424 294 2135 
C 294 845 1229 -128 2298 -128 
C 3392 -128 4307 864 4307 2135 
z
M 2304 -13 
C 1574 -13 781 711 781 2217 
C 781 3716 1651 4301 2298 4301 
C 2976 4301 3821 3698 3821 2217 
C 3821 686 3008 -13 2304 -13 
z
" transform="scale(0.015625)"/>
       <path id="CMR17-70" d="M 1408 -1063 
C 998 -1063 973 -1037 973 -789 
L 973 402 
C 1158 134 1427 -38 1766 -38 
C 2406 -38 3053 523 3053 1388 
C 3053 2191 2496 2802 1837 2802 
C 1453 2802 1139 2592 960 2338 
L 960 2802 
L 198 2732 
L 198 2567 
C 576 2567 634 2528 634 2223 
L 634 -789 
C 634 -1031 608 -1063 198 -1063 
L 198 -1228 
C 352 -1216 634 -1216 800 -1216 
C 966 -1216 1254 -1216 1408 -1228 
L 1408 -1063 
z
M 973 2012 
C 973 2102 973 2235 1222 2471 
C 1254 2497 1472 2688 1792 2688 
C 2259 2688 2643 2108 2643 1382 
C 2643 656 2234 64 1728 64 
C 1498 64 1248 172 1056 472 
C 973 612 973 650 973 752 
L 973 2012 
z
" transform="scale(0.015625)"/>
       <path id="CMR17-65" d="M 2438 1472 
C 2464 1498 2464 1511 2464 1576 
C 2464 2238 2118 2816 1389 2816 
C 710 2816 173 2169 173 1383 
C 173 551 781 -64 1459 -64 
C 2176 -64 2458 607 2458 740 
C 2458 784 2419 784 2406 784 
C 2362 784 2355 771 2330 696 
C 2189 265 1837 51 1504 51 
C 1229 51 954 203 781 480 
C 582 803 582 1176 582 1472 
L 2438 1472 
z
M 589 1568 
C 634 2505 1126 2714 1382 2714 
C 1818 2714 2112 2297 2118 1568 
L 589 1568 
z
" transform="scale(0.015625)"/>
       <path id="CMR17-72" d="M 960 1497 
C 960 2112 1222 2688 1702 2688 
C 1747 2688 1792 2682 1837 2662 
C 1837 2662 1696 2617 1696 2452 
C 1696 2298 1818 2234 1914 2234 
C 1990 2234 2131 2279 2131 2458 
C 2131 2663 1926 2790 1709 2790 
C 1222 2790 1011 2317 947 2093 
L 941 2093 
L 941 2790 
L 198 2720 
L 198 2554 
C 576 2554 634 2515 634 2208 
L 634 428 
C 634 184 608 153 198 153 
L 198 -13 
C 352 0 646 0 813 0 
C 998 0 1325 0 1498 -13 
L 1498 153 
C 1037 153 960 153 960 440 
L 960 1497 
z
" transform="scale(0.015625)"/>
       <path id="CMR17-61" d="M 2304 1653 
C 2304 2072 2304 2294 2035 2543 
C 1798 2752 1523 2816 1306 2816 
C 800 2816 435 2407 435 1971 
C 435 1728 627 1728 666 1728 
C 749 1728 896 1778 896 1954 
C 896 2112 774 2181 666 2181 
C 640 2181 608 2174 589 2168 
C 723 2592 1069 2714 1293 2714 
C 1613 2714 1965 2429 1965 1885 
L 1965 1600 
C 1587 1600 1133 1549 774 1357 
C 371 1133 256 813 256 570 
C 256 77 832 -64 1171 -64 
C 1523 -64 1850 139 1990 511 
C 2003 233 2182 -18 2464 -18 
C 2598 -18 2938 70 2938 567 
L 2938 920 
L 2822 920 
L 2822 562 
C 2822 178 2650 128 2566 128 
C 2304 128 2304 458 2304 738 
L 2304 1653 
z
M 1965 870 
C 1965 317 1568 38 1216 38 
C 896 38 646 275 646 570 
C 646 761 730 1100 1101 1305 
C 1408 1478 1760 1504 1965 1504 
L 1965 870 
z
" transform="scale(0.015625)"/>
       <path id="CMR17-74" d="M 966 2560 
L 1862 2560 
L 1862 2725 
L 966 2725 
L 966 3904 
L 851 3904 
C 838 3245 614 2668 70 2668 
L 70 2560 
L 627 2560 
L 627 771 
C 627 650 627 -64 1370 -64 
C 1747 -64 1965 306 1965 777 
L 1965 1140 
L 1850 1140 
L 1850 783 
C 1850 344 1677 51 1408 51 
C 1222 51 966 178 966 758 
L 966 2560 
z
" transform="scale(0.015625)"/>
       <path id="CMR17-6f" d="M 2758 1356 
C 2758 2176 2163 2816 1466 2816 
C 768 2816 173 2176 173 1356 
C 173 551 768 -64 1466 -64 
C 2163 -64 2758 551 2758 1356 
z
M 1466 51 
C 1165 51 909 230 762 480 
C 602 767 582 1126 582 1408 
C 582 1677 595 2010 762 2298 
C 890 2509 1139 2714 1466 2714 
C 1754 2714 1997 2554 2150 2330 
C 2349 2029 2349 1607 2349 1408 
C 2349 1158 2336 775 2163 467 
C 1984 173 1709 51 1466 51 
z
" transform="scale(0.015625)"/>
       <path id="CMR17-4e" d="M 1312 4250 
C 1267 4320 1261 4320 1139 4320 
L 326 4320 
L 326 4160 
L 448 4160 
C 704 4160 819 4129 838 4122 
L 838 610 
C 838 451 838 153 326 153 
L 326 -13 
C 474 0 742 0 902 0 
C 1062 0 1331 0 1478 -13 
L 1478 153 
C 966 153 966 451 966 610 
L 966 4033 
C 1011 3995 1011 3982 1056 3919 
L 3430 76 
C 3475 0 3494 0 3526 0 
C 3590 0 3590 19 3590 139 
L 3590 3705 
C 3590 3863 3590 4160 4102 4160 
L 4102 4326 
C 3955 4320 3686 4320 3526 4320 
C 3366 4320 3098 4320 2950 4326 
L 2950 4160 
C 3462 4160 3462 3862 3462 3703 
L 3462 763 
L 1312 4250 
z
" transform="scale(0.015625)"/>
       <path id="CMR17-6d" d="M 4326 1933 
C 4326 2252 4269 2790 3507 2790 
C 3072 2790 2771 2496 2656 2151 
L 2650 2151 
C 2573 2676 2195 2790 1837 2790 
C 1331 2790 1069 2400 973 2144 
L 966 2144 
L 966 2790 
L 211 2720 
L 211 2554 
C 589 2554 646 2515 646 2208 
L 646 428 
C 646 184 621 153 211 153 
L 211 -13 
C 365 0 646 0 813 0 
C 979 0 1267 0 1421 -13 
L 1421 153 
C 1011 153 986 178 986 428 
L 986 1658 
C 986 2247 1344 2688 1792 2688 
C 2266 2688 2317 2266 2317 1958 
L 2317 428 
C 2317 184 2291 153 1882 153 
L 1882 -13 
C 2035 0 2317 0 2483 0 
C 2650 0 2938 0 3091 -13 
L 3091 153 
C 2682 153 2656 178 2656 428 
L 2656 1658 
C 2656 2247 3014 2688 3462 2688 
C 3936 2688 3987 2266 3987 1958 
L 3987 428 
C 3987 184 3962 153 3552 153 
L 3552 -13 
C 3706 0 3987 0 4154 0 
C 4320 0 4608 0 4762 -13 
L 4762 153 
C 4352 153 4326 178 4326 428 
L 4326 1933 
z
" transform="scale(0.015625)"/>
      </defs>
      <use xlink:href="#CMR17-4f" transform="scale(0.996264)"/>
      <use xlink:href="#CMR17-70" transform="translate(71.714788 0) scale(0.996264)"/>
      <use xlink:href="#CMR17-65" transform="translate(125.212597 0) scale(0.996264)"/>
      <use xlink:href="#CMR17-72" transform="translate(165.698257 0) scale(0.996264)"/>
      <use xlink:href="#CMR17-61" transform="translate(200.979025 0) scale(0.996264)"/>
      <use xlink:href="#CMR17-74" transform="translate(246.669502 0) scale(0.996264)"/>
      <use xlink:href="#CMR17-6f" transform="translate(281.95027 0) scale(0.996264)"/>
      <use xlink:href="#CMR17-72" transform="translate(327.640747 0) scale(0.996264)"/>
      <use xlink:href="#CMR17-4e" transform="translate(392.997481 0) scale(0.996264)"/>
      <use xlink:href="#CMR17-6f" transform="translate(462.069911 0) scale(0.996264)"/>
      <use xlink:href="#CMR17-72" transform="translate(507.760388 0) scale(0.996264)"/>
      <use xlink:href="#CMR17-6d" transform="translate(543.041156 0) scale(0.996264)"/>
     </g>
    </g>
   </g>
   <g id="line2d_14">
    <path d="M 48.016452 165.611438 
L 49.576337 165.55816 
L 51.136221 165.206761 
L 51.916163 164.841651 
L 52.696106 164.316334 
L 53.476048 163.609778 
L 54.25599 162.704314 
L 55.035933 161.5855 
L 55.815875 160.241976 
L 57.375759 156.849947 
L 58.935644 152.493713 
L 60.495528 147.179124 
L 62.055413 140.947905 
L 63.615298 133.873161 
L 65.955124 121.904419 
L 68.294951 108.695201 
L 77.654258 54.055707 
L 79.994085 42.63253 
L 81.55397 35.994003 
L 83.113854 30.241382 
L 84.673739 25.431697 
L 86.233623 21.588222 
L 87.793508 18.695973 
L 88.57345 17.59031 
L 89.353392 16.697219 
L 90.133335 16.002068 
L 90.913277 15.486992 
L 91.693219 15.13075 
L 93.253104 14.792101 
L 95.592931 14.743402 
L 439.547472 14.846131 
L 440.327414 15.018074 
L 441.107357 15.312058 
L 441.887299 15.754426 
L 442.667241 16.367947 
L 443.447183 17.171953 
L 444.227126 18.182483 
L 445.007068 19.41242 
L 445.78701 20.871632 
L 447.346895 24.50313 
L 448.906779 29.10098 
L 450.466664 34.649941 
L 452.026548 41.100021 
L 453.586433 48.370974 
L 455.92626 60.578692 
L 459.046029 78.573314 
L 466.065509 120.033295 
L 468.405336 132.212982 
L 469.965221 139.460733 
L 471.525105 145.884808 
L 473.08499 151.4058 
L 474.644874 155.974696 
L 476.204759 159.577367 
L 477.764643 162.239062 
L 478.544586 163.236806 
L 479.324528 164.028899 
L 480.10447 164.631572 
L 480.884412 165.06436 
L 481.664355 165.350242 
L 483.224239 165.591266 
L 487.903893 165.611438 
L 827.178781 165.611438 
L 827.178781 165.611438 
" clip-path="url(#pdaf9517792)" style="fill: none; stroke: #d3d3d3; stroke-width: 3; stroke-linecap: square"/>
   </g>
   <g id="line2d_15">
    <path d="M 48.016452 14.743402 
L 252.361327 14.819764 
L 253.141269 14.966748 
L 253.921212 15.228902 
L 254.701154 15.633449 
L 255.481096 16.204003 
L 256.261038 16.960708 
L 257.040981 17.920381 
L 257.820923 19.096648 
L 258.600865 20.50009 
L 260.16075 24.016419 
L 261.720634 28.498379 
L 263.280519 33.935203 
L 264.840403 40.280831 
L 266.400288 47.45841 
L 268.740115 59.552939 
L 271.859884 77.457537 
L 278.879364 119.001918 
L 281.219191 131.292661 
L 282.779076 138.63264 
L 284.33896 145.1603 
L 285.898845 150.792891 
L 287.458729 155.477514 
L 289.018614 159.195617 
L 290.578498 161.967486 
L 291.358441 163.016647 
L 292.138383 163.856738 
L 292.918325 164.503217 
L 293.698267 164.974814 
L 294.47821 165.293668 
L 296.038094 165.579601 
L 299.157863 165.611438 
L 735.145593 165.56705 
L 736.705477 165.240936 
L 737.485419 164.893472 
L 738.265362 164.388559 
L 739.045304 163.704749 
L 739.825246 162.823979 
L 740.605189 161.731426 
L 741.385131 160.415369 
L 742.945015 157.08052 
L 744.5049 152.782353 
L 746.064784 147.524424 
L 747.624669 141.346433 
L 749.184553 134.319727 
L 751.52438 122.410134 
L 753.864207 109.241227 
L 763.223514 54.544759 
L 765.563341 43.057265 
L 767.123226 36.36806 
L 768.68311 30.560362 
L 770.242995 25.693087 
L 771.802879 21.791659 
L 773.362764 18.843517 
L 774.142706 17.71151 
L 774.922648 16.793621 
L 775.702591 16.075596 
L 776.482533 15.539964 
L 777.262475 15.165898 
L 778.82236 14.80153 
L 781.162187 14.743402 
L 827.178781 14.743402 
L 827.178781 14.743402 
" clip-path="url(#pdaf9517792)" style="fill: none; stroke-dasharray: 1.85,0.8; stroke-dashoffset: 0; stroke: #1f77b4; stroke-width: 0.5"/>
   </g>
   <g id="line2d_16">
    <path d="M 48.016452 14.743402 
L 299.157863 14.825882 
L 299.937806 14.97894 
L 300.717748 15.248907 
L 301.49769 15.662783 
L 302.277632 16.243972 
L 303.057575 17.012414 
L 303.837517 17.984729 
L 304.617459 19.174358 
L 305.397401 20.591703 
L 306.957286 24.136788 
L 308.517171 28.647738 
L 310.077055 34.112661 
L 311.63694 40.484509 
L 313.196824 47.685573 
L 315.536651 59.808663 
L 318.65642 77.736187 
L 325.6759 119.260455 
L 328.015727 131.523702 
L 329.575612 138.840769 
L 331.135496 145.342643 
L 332.695381 150.947404 
L 334.255265 155.603119 
L 335.81515 159.292334 
L 337.375035 162.036571 
L 338.154977 163.07281 
L 338.934919 163.900816 
L 339.714861 164.53624 
L 340.494804 164.998014 
L 341.274746 165.308484 
L 342.83463 165.582848 
L 346.734342 165.611438 
L 781.942129 165.562738 
L 783.502013 165.22409 
L 784.281956 164.867848 
L 785.061898 164.352771 
L 785.84184 163.657621 
L 786.621782 162.76453 
L 787.401725 161.658867 
L 788.181667 160.329092 
L 789.741552 156.965669 
L 791.301436 152.638466 
L 792.861321 147.352188 
L 794.421205 141.14755 
L 795.98109 134.096781 
L 798.320917 122.157528 
L 800.660743 108.968364 
L 810.020051 54.299953 
L 812.359877 42.844538 
L 813.919762 36.180633 
L 815.479646 30.400447 
L 817.039531 25.561956 
L 818.599416 21.689511 
L 820.1593 18.76934 
L 820.939242 17.650525 
L 821.719185 16.745061 
L 822.499127 16.038505 
L 823.279069 15.513189 
L 824.059011 15.148079 
L 825.618896 14.796679 
L 827.178781 14.743402 
L 827.178781 14.743402 
" clip-path="url(#pdaf9517792)" style="fill: none; stroke-dasharray: 3.2,0.8,0.5,0.8; stroke-dashoffset: 0; stroke: #ff7f0e; stroke-width: 0.5"/>
   </g>
   <g id="line2d_17">
    <path d="M 48.016452 165.611438 
L 49.576337 165.55816 
L 51.136221 165.206761 
L 51.916163 164.841651 
L 52.696106 164.316334 
L 53.476048 163.609778 
L 54.25599 162.704314 
L 55.035933 161.5855 
L 55.815875 160.241976 
L 57.375759 156.849947 
L 58.935644 152.493713 
L 60.495528 147.179124 
L 62.055413 140.947905 
L 63.615298 133.873161 
L 65.955124 121.904419 
L 68.294951 108.695201 
L 77.654258 54.055707 
L 79.994085 42.63253 
L 81.55397 35.994003 
L 83.113854 30.241382 
L 84.673739 25.431697 
L 86.233623 21.588222 
L 87.793508 18.695973 
L 88.57345 17.59031 
L 89.353392 16.697219 
L 90.133335 16.002068 
L 90.913277 15.486992 
L 91.693219 15.13075 
L 93.253104 14.792101 
L 95.592931 14.743402 
L 345.9544 14.832311 
L 346.734342 14.991555 
L 347.514284 15.269431 
L 348.294226 15.692721 
L 349.074169 16.284617 
L 349.854111 17.064854 
L 350.634053 18.04986 
L 351.413995 19.252889 
L 352.193938 20.684163 
L 353.753822 24.25803 
L 355.313707 28.797959 
L 356.873591 34.290938 
L 358.433476 40.688935 
L 359.99336 47.913389 
L 362.333187 60.064867 
L 365.452956 78.015036 
L 372.472437 119.518532 
L 374.812264 131.754105 
L 376.372148 139.048163 
L 377.932033 145.524177 
L 379.491917 151.101061 
L 381.051802 155.72785 
L 382.611686 159.388197 
L 384.171571 162.10486 
L 384.951513 163.128222 
L 385.731455 163.944199 
L 386.511398 164.568638 
L 387.29134 165.020668 
L 388.071282 165.322848 
L 389.631167 165.585869 
L 393.530878 165.611438 
L 827.178781 165.611438 
L 827.178781 165.611438 
" clip-path="url(#pdaf9517792)" style="fill: none; stroke-dasharray: 0.5,0.825; stroke-dashoffset: 0; stroke: #2ca02c; stroke-width: 0.5"/>
   </g>
   <g id="line2d_18">
    <path d="M 48.016452 165.611438 
L 96.372873 165.55331 
L 97.932757 165.188942 
L 98.7127 164.814876 
L 99.492642 164.279244 
L 100.272584 163.561219 
L 101.052527 162.64333 
L 101.832469 161.511323 
L 102.612411 160.154021 
L 104.172296 156.733355 
L 105.73218 152.348094 
L 107.292065 147.005231 
L 108.851949 140.747498 
L 110.411834 133.648871 
L 112.751661 121.650812 
L 115.091487 108.421744 
L 124.450795 53.812025 
L 126.790621 42.421243 
L 128.350506 35.808173 
L 129.910391 30.083168 
L 131.470275 25.302311 
L 133.03016 21.487793 
L 134.590044 18.623413 
L 135.369986 17.53086 
L 136.149929 16.65009 
L 136.929871 15.966281 
L 137.709813 15.461367 
L 138.489756 15.113904 
L 140.04964 14.787789 
L 142.389467 14.743402 
L 392.750936 14.839058 
L 393.530878 15.004597 
L 394.31082 15.290479 
L 395.090763 15.723267 
L 395.870705 16.32594 
L 396.650647 17.118033 
L 397.430589 18.115778 
L 398.210532 19.332242 
L 398.990474 20.777472 
L 400.550358 24.380144 
L 402.110243 28.94904 
L 403.670128 34.470032 
L 405.230012 40.894106 
L 406.789897 48.141857 
L 409.129723 60.321544 
L 412.249493 78.29408 
L 419.268973 119.776147 
L 421.6088 131.983866 
L 423.168684 139.254818 
L 424.728569 145.704899 
L 426.288453 151.25386 
L 427.848338 155.85171 
L 429.408222 159.483208 
L 430.968107 162.172356 
L 431.748049 163.182886 
L 432.527992 163.986893 
L 433.307934 164.600414 
L 434.087876 165.042782 
L 434.867818 165.336765 
L 436.427703 165.588672 
L 441.107357 165.611438 
L 827.178781 165.611438 
L 827.178781 165.611438 
" clip-path="url(#pdaf9517792)" style="fill: none; stroke: #d62728; stroke-width: 0.5; stroke-linecap: square"/>
   </g>
   <g id="line2d_19">
    <path d="M 48.016452 165.611438 
L 143.169409 165.548179 
L 144.729294 165.170628 
L 145.509236 164.787518 
L 146.289178 164.241496 
L 147.06912 163.511939 
L 147.849063 162.581573 
L 148.629005 161.436334 
L 149.408947 160.065224 
L 150.968832 156.615892 
L 152.528716 152.201611 
L 154.088601 146.830514 
L 155.648485 140.546332 
L 157.20837 133.423912 
L 159.548197 121.39671 
L 161.888024 108.147996 
L 171.247331 53.568911 
L 173.587158 42.210681 
L 175.147042 35.623145 
L 176.706927 29.925806 
L 178.266811 25.173797 
L 179.826696 21.388222 
L 181.38658 18.55166 
L 182.166523 17.472174 
L 182.946465 16.603671 
L 183.726407 15.931138 
L 184.506349 15.436311 
L 185.286292 15.097536 
L 186.846176 14.783735 
L 189.965945 14.743402 
L 439.547472 14.846131 
L 440.327414 15.018074 
L 441.107357 15.312058 
L 441.887299 15.754426 
L 442.667241 16.367947 
L 443.447183 17.171953 
L 444.227126 18.182483 
L 445.007068 19.41242 
L 445.78701 20.871632 
L 447.346895 24.50313 
L 448.906779 29.10098 
L 450.466664 34.649941 
L 452.026548 41.100021 
L 453.586433 48.370974 
L 455.92626 60.578692 
L 459.046029 78.573314 
L 466.065509 120.033295 
L 468.405336 132.212982 
L 469.965221 139.460733 
L 471.525105 145.884808 
L 473.08499 151.4058 
L 474.644874 155.974696 
L 476.204759 159.577367 
L 477.764643 162.239062 
L 478.544586 163.236806 
L 479.324528 164.028899 
L 480.10447 164.631572 
L 480.884412 165.06436 
L 481.664355 165.350242 
L 483.224239 165.591266 
L 487.903893 165.611438 
L 827.178781 165.611438 
L 827.178781 165.611438 
" clip-path="url(#pdaf9517792)" style="fill: none; stroke-dasharray: 1.85,0.8; stroke-dashoffset: 0; stroke: #9467bd; stroke-width: 0.5"/>
   </g>
   <g id="line2d_20">
    <path d="M 48.016452 165.611438 
L 189.965945 165.54276 
L 191.52583 165.151813 
L 192.305772 164.759573 
L 193.085714 164.203086 
L 193.865657 163.461935 
L 194.645599 162.519043 
L 195.425541 161.360531 
L 196.205484 159.975583 
L 197.765368 156.497557 
L 199.325253 152.054265 
L 200.885137 146.654972 
L 202.445022 140.34441 
L 204.004906 133.198289 
L 206.344733 121.142116 
L 208.68456 107.873961 
L 217.263925 57.441017 
L 219.603752 45.591254 
L 221.163636 38.612943 
L 222.723521 32.488436 
L 224.283405 27.287312 
L 225.84329 23.047228 
L 227.403174 19.769426 
L 228.183117 18.480709 
L 228.963059 17.414249 
L 229.743001 16.557959 
L 230.522943 15.896636 
L 231.302886 15.411817 
L 232.082828 15.081641 
L 233.642713 14.779932 
L 236.762482 14.743402 
L 486.344008 14.853536 
L 487.123951 15.031992 
L 487.903893 15.334172 
L 488.683835 15.786202 
L 489.463777 16.41064 
L 490.24372 17.226618 
L 491.023662 18.249979 
L 491.803604 19.493423 
L 493.363489 22.676464 
L 494.923373 26.819736 
L 496.483258 31.925886 
L 498.043142 37.960693 
L 499.603027 44.857572 
L 501.942854 56.606119 
L 504.28268 69.663578 
L 508.962334 97.667111 
L 512.082103 115.953086 
L 514.42193 128.551093 
L 516.761757 139.665905 
L 518.321641 146.063901 
L 519.881526 151.556881 
L 521.44141 156.09681 
L 523.001295 159.670676 
L 524.56118 162.304979 
L 525.341122 163.289985 
L 526.121064 164.070223 
L 526.901006 164.662118 
L 527.680949 165.085409 
L 528.460891 165.363285 
L 530.020775 165.593656 
L 535.480371 165.611438 
L 827.178781 165.611438 
L 827.178781 165.611438 
" clip-path="url(#pdaf9517792)" style="fill: none; stroke-dasharray: 3.2,0.8,0.5,0.8; stroke-dashoffset: 0; stroke: #8c564b; stroke-width: 0.5"/>
   </g>
   <g id="line2d_21">
    <path d="M 48.016452 165.611438 
L 236.762482 165.537046 
L 237.542424 165.392063 
L 238.322366 165.132492 
L 239.102308 164.731036 
L 239.882251 164.164011 
L 240.662193 163.411204 
L 241.442135 162.455735 
L 242.222078 161.283913 
L 243.00202 159.885099 
L 244.561904 156.37835 
L 246.121789 151.906055 
L 247.681673 146.478607 
L 249.241558 140.141734 
L 250.801442 132.972004 
L 253.141269 120.887035 
L 256.261038 102.990141 
L 263.280519 61.439202 
L 265.620346 49.139334 
L 267.18023 41.791739 
L 268.740115 35.2555 
L 270.299999 29.613643 
L 271.859884 24.919388 
L 273.419768 21.191652 
L 274.979653 18.41056 
L 275.759595 17.357081 
L 276.539537 16.51295 
L 277.31948 15.862771 
L 278.099422 15.387882 
L 278.879364 15.066212 
L 280.439249 14.776373 
L 283.559018 14.743402 
L 532.360602 14.771992 
L 533.920487 15.046355 
L 534.700429 15.356826 
L 535.480371 15.818599 
L 536.260314 16.454024 
L 537.040256 17.28203 
L 537.820198 18.318269 
L 538.60014 19.575255 
L 540.160025 22.78668 
L 541.719909 26.958996 
L 543.279794 32.093675 
L 544.839679 38.155464 
L 546.399563 45.076874 
L 548.73939 56.855981 
L 551.079217 69.934771 
L 555.75887 97.948619 
L 558.878639 116.216683 
L 561.218466 128.789342 
L 563.558293 139.870331 
L 565.118178 146.242178 
L 566.678062 151.707101 
L 568.237947 156.218052 
L 569.797831 159.763137 
L 571.357716 162.370111 
L 572.137658 163.342426 
L 572.9176 164.110867 
L 573.697543 164.692056 
L 574.477485 165.105933 
L 576.037369 165.528958 
L 577.597254 165.61121 
L 827.178781 165.611438 
L 827.178781 165.611438 
" clip-path="url(#pdaf9517792)" style="fill: none; stroke-dasharray: 0.5,0.825; stroke-dashoffset: 0; stroke: #e377c2; stroke-width: 0.5"/>
   </g>
   <g id="line2d_22">
    <path d="M 48.016452 165.611438 
L 283.559018 165.531031 
L 284.33896 165.38001 
L 285.118902 165.112659 
L 285.898845 164.701901 
L 286.678787 164.124265 
L 287.458729 163.359743 
L 288.238671 162.391647 
L 289.018614 161.206476 
L 289.798556 159.793768 
L 291.358441 156.258272 
L 292.918325 151.756983 
L 294.47821 146.301422 
L 296.038094 139.938306 
L 297.597979 132.745061 
L 299.937806 120.631471 
L 303.057575 102.711558 
L 310.077055 61.180513 
L 312.416882 48.908081 
L 313.976766 41.583365 
L 315.536651 35.072887 
L 317.096536 29.458845 
L 318.65642 24.793492 
L 320.216305 21.09465 
L 321.776189 18.341209 
L 322.556131 17.300667 
L 323.336074 16.468639 
L 324.116016 15.829537 
L 324.895958 15.364498 
L 325.6759 15.051244 
L 327.235785 14.773049 
L 331.135496 14.743402 
L 579.157138 14.775239 
L 580.717023 15.061172 
L 581.496965 15.380026 
L 582.276908 15.851623 
L 583.05685 16.498102 
L 583.836792 17.338192 
L 584.616734 18.387354 
L 585.396677 19.657917 
L 586.956561 22.897764 
L 588.516446 27.099124 
L 590.07633 32.262302 
L 591.636215 38.351011 
L 593.196099 45.296865 
L 595.535926 57.106365 
L 597.875753 70.206287 
L 602.555407 98.230003 
L 605.675176 116.479867 
L 608.015002 129.026991 
L 610.354829 140.074008 
L 611.914714 146.419637 
L 613.474598 151.85646 
L 615.034483 156.338421 
L 616.594367 159.854749 
L 618.154252 162.434459 
L 618.934194 163.394132 
L 619.714137 164.150837 
L 620.494079 164.721391 
L 621.274021 165.125938 
L 622.833906 165.535075 
L 624.39379 165.611315 
L 827.178781 165.611438 
L 827.178781 165.611438 
" clip-path="url(#pdaf9517792)" style="fill: none; stroke: #7f7f7f; stroke-width: 0.5; stroke-linecap: square"/>
   </g>
   <g id="line2d_23">
    <path d="M 48.016452 165.611438 
L 330.355554 165.524707 
L 331.135496 165.367537 
L 331.915439 165.092308 
L 332.695381 164.672165 
L 333.475323 164.083846 
L 334.255265 163.307547 
L 335.035208 162.326777 
L 335.81515 161.128219 
L 336.595092 159.701591 
L 338.154977 156.137321 
L 339.714861 151.60705 
L 341.274746 146.123418 
L 342.83463 139.73413 
L 344.394515 132.517462 
L 346.734342 120.375427 
L 349.854111 102.432775 
L 356.873591 60.922282 
L 359.213418 48.677465 
L 360.773303 41.375726 
L 362.333187 34.891084 
L 363.893072 29.304902 
L 365.452956 24.66847 
L 367.012841 20.998502 
L 368.572725 18.272654 
L 369.352668 17.245005 
L 370.13261 16.425024 
L 370.912552 15.796932 
L 371.692494 15.341663 
L 372.472437 15.03673 
L 374.032321 14.769953 
L 377.932033 14.743402 
L 625.953675 14.778719 
L 627.513559 15.076447 
L 628.293502 15.403777 
L 629.073444 15.885277 
L 629.853386 16.542878 
L 630.633328 17.395109 
L 631.413271 18.457237 
L 632.193213 19.74141 
L 633.753097 23.009717 
L 635.312982 27.240121 
L 636.872867 32.431764 
L 638.432751 38.547331 
L 639.992636 45.517543 
L 642.332462 57.357268 
L 644.672289 70.478121 
L 649.351943 98.511258 
L 652.471712 116.742635 
L 654.811539 129.264037 
L 656.371423 136.798432 
L 657.931308 143.54636 
L 659.491192 149.418043 
L 661.051077 154.352388 
L 662.610961 158.321483 
L 664.170846 161.335083 
L 664.950788 162.498026 
L 665.730731 163.445106 
L 666.510673 164.190135 
L 667.290615 164.750127 
L 668.070557 165.145429 
L 669.630442 165.540888 
L 671.970269 165.611438 
L 827.178781 165.611438 
L 827.178781 165.611438 
" clip-path="url(#pdaf9517792)" style="fill: none; stroke-dasharray: 1.85,0.8; stroke-dashoffset: 0; stroke: #bcbd22; stroke-width: 0.5"/>
   </g>
   <g id="line2d_24">
    <path d="M 48.016452 165.611438 
L 377.15209 165.518066 
L 377.932033 165.354638 
L 378.711975 165.071435 
L 379.491917 164.641822 
L 380.271859 164.042749 
L 381.051802 163.254615 
L 381.831744 162.261122 
L 382.611686 161.04914 
L 383.391629 159.608565 
L 384.951513 156.015498 
L 386.511398 151.456256 
L 388.071282 145.944596 
L 389.631167 139.529206 
L 391.191051 132.28921 
L 393.530878 120.118907 
L 396.650647 102.153795 
L 403.670128 60.664512 
L 406.009954 48.447489 
L 407.569839 41.168824 
L 409.129723 34.710091 
L 410.689608 29.151818 
L 412.249493 24.544319 
L 413.809377 20.903207 
L 415.369262 18.204894 
L 416.149204 17.190092 
L 416.929146 16.382101 
L 417.709088 15.764949 
L 418.489031 15.319369 
L 419.268973 15.022664 
L 420.828858 14.767078 
L 424.728569 14.743402 
L 672.750211 14.78244 
L 674.310095 15.092186 
L 675.090038 15.428084 
L 675.86998 15.919566 
L 676.649922 16.588356 
L 677.429865 17.452781 
L 678.209807 18.52792 
L 678.989749 19.825737 
L 680.549634 23.122539 
L 682.109518 27.381985 
L 683.669403 32.60206 
L 685.229287 38.744423 
L 686.789172 45.738905 
L 689.128999 57.608686 
L 691.468825 70.750269 
L 696.928421 103.453988 
L 700.04819 121.3119 
L 702.388017 133.348778 
L 703.947902 140.479109 
L 705.507786 146.772091 
L 707.067671 152.152592 
L 708.627555 156.576543 
L 710.18744 160.035437 
L 710.967382 161.411157 
L 711.747324 162.560816 
L 712.527267 163.495352 
L 713.307209 164.228766 
L 714.087151 164.778269 
L 714.867094 165.164412 
L 716.426978 165.546405 
L 718.766805 165.611438 
L 827.178781 165.611438 
L 827.178781 165.611438 
" clip-path="url(#pdaf9517792)" style="fill: none; stroke-dasharray: 3.2,0.8,0.5,0.8; stroke-dashoffset: 0; stroke: #17becf; stroke-width: 0.5"/>
   </g>
   <g id="line2d_25">
    <path d="M 48.016452 165.611438 
L 423.948627 165.511103 
L 424.728569 165.341306 
L 425.508511 165.050034 
L 426.288453 164.610868 
L 427.068396 164.000971 
L 427.848338 163.200942 
L 428.62828 162.194679 
L 429.408222 160.969238 
L 430.188165 159.514689 
L 431.748049 155.892802 
L 433.307934 151.304602 
L 434.867818 145.764959 
L 436.427703 139.323539 
L 437.987587 132.06031 
L 440.327414 119.861915 
L 443.447183 101.874625 
L 450.466664 60.407208 
L 452.806491 48.218158 
L 454.366375 40.962662 
L 455.92626 34.529911 
L 457.486144 28.999591 
L 459.046029 24.421042 
L 460.605913 20.808764 
L 462.165798 18.137925 
L 462.94574 17.135924 
L 463.725682 16.339866 
L 464.505625 15.733585 
L 465.285567 15.297613 
L 466.065509 15.009041 
L 467.625394 14.764415 
L 472.305047 14.743402 
L 719.546747 14.78641 
L 721.106632 15.108395 
L 721.886574 15.452952 
L 722.666516 15.954495 
L 723.446459 16.634539 
L 724.226401 17.511214 
L 725.006343 18.599406 
L 725.786285 19.910898 
L 727.34617 23.23623 
L 728.906054 27.524717 
L 730.465939 32.773188 
L 732.025824 38.942283 
L 733.585708 45.960948 
L 735.925535 57.860616 
L 738.265362 71.022726 
L 747.624669 125.728354 
L 749.964496 137.226506 
L 751.52438 143.924127 
L 753.084265 149.740984 
L 754.644149 154.617848 
L 756.204034 158.528939 
L 757.763918 161.486417 
L 758.543861 162.62283 
L 759.323803 163.544872 
L 760.103745 164.266735 
L 760.883688 164.805822 
L 761.66363 165.182892 
L 763.223514 165.551631 
L 765.563341 165.611438 
L 827.178781 165.611438 
L 827.178781 165.611438 
" clip-path="url(#pdaf9517792)" style="fill: none; stroke-dasharray: 0.5,0.825; stroke-dashoffset: 0; stroke: #1f77b4; stroke-width: 0.5"/>
   </g>
   <g id="patch_3">
    <path d="M 48.016452 173.15484 
L 48.016452 7.2 
" style="fill: none; stroke: #000000; stroke-width: 0.8; stroke-linejoin: miter; stroke-linecap: square"/>
   </g>
   <g id="patch_4">
    <path d="M 827.178781 173.15484 
L 827.178781 7.2 
" style="fill: none; stroke: #000000; stroke-width: 0.8; stroke-linejoin: miter; stroke-linecap: square"/>
   </g>
   <g id="patch_5">
    <path d="M 48.016452 173.15484 
L 827.178781 173.15484 
" style="fill: none; stroke: #000000; stroke-width: 0.8; stroke-linejoin: miter; stroke-linecap: square"/>
   </g>
   <g id="patch_6">
    <path d="M 48.016452 7.2 
L 827.178781 7.2 
" style="fill: none; stroke: #000000; stroke-width: 0.8; stroke-linejoin: miter; stroke-linecap: square"/>
   </g>
   <g id="legend_1">
    <g id="patch_7">
     <path d="M 57.116452 111.744871 
L 169.329856 111.744871 
Q 171.929856 111.744871 171.929856 109.144871 
L 171.929856 71.209969 
Q 171.929856 68.609969 169.329856 68.609969 
L 57.116452 68.609969 
Q 54.516452 68.609969 54.516452 71.209969 
L 54.516452 109.144871 
Q 54.516452 111.744871 57.116452 111.744871 
z
" style="fill: #ffffff; opacity: 0.8; stroke: #cccccc; stroke-width: 0.24; stroke-linejoin: miter"/>
    </g>
    <g id="text_16">
     <!-- Reference -->
     <g transform="translate(82.435281 84.187694) scale(0.15 -0.15)">
      <defs>
       <path id="CMR17-52" d="M 2509 2146 
C 3117 2268 3629 2676 3629 3186 
C 3629 3785 2950 4326 2054 4326 
L 333 4326 
L 333 4160 
C 774 4160 845 4160 845 3873 
L 845 415 
C 845 128 774 128 333 128 
L 333 -26 
C 518 -26 851 -26 1050 -26 
C 1248 -26 1581 -26 1766 -26 
L 1766 128 
C 1325 128 1254 128 1254 417 
L 1254 2112 
L 2003 2112 
C 2368 2112 2573 1964 2662 1881 
C 2918 1632 2918 1459 2918 1024 
C 2918 595 2918 377 3110 160 
C 3354 -102 3680 -128 3821 -128 
C 4294 -128 4365 396 4365 503 
C 4365 540 4365 585 4307 585 
C 4256 585 4250 547 4250 522 
C 4218 112 4032 -26 3834 -26 
C 3482 -26 3443 375 3405 764 
C 3386 898 3373 993 3360 1133 
C 3322 1452 3270 1917 2509 2146 
z
M 1984 2214 
L 1254 2214 
L 1254 3913 
C 1254 4129 1267 4160 1523 4160 
L 1990 4160 
C 2522 4160 3142 3977 3142 3190 
C 3142 2372 2464 2214 1984 2214 
z
" transform="scale(0.015625)"/>
       <path id="CMR17-66" d="M 979 2560 
L 1709 2560 
L 1709 2725 
L 966 2725 
L 966 3494 
C 966 4022 1235 4352 1510 4352 
C 1594 4352 1690 4327 1754 4282 
C 1702 4269 1568 4225 1568 4067 
C 1568 3901 1696 3850 1786 3850 
C 1875 3850 2003 3901 2003 4067 
C 2003 4308 1773 4454 1517 4454 
C 1152 4454 653 4156 653 3481 
L 653 2725 
L 141 2725 
L 141 2560 
L 653 2560 
L 653 427 
C 653 184 627 153 218 153 
L 218 -13 
C 371 0 666 0 832 0 
C 1018 0 1344 0 1517 -13 
L 1517 153 
C 1056 153 979 153 979 439 
L 979 2560 
z
" transform="scale(0.015625)"/>
       <path id="CMR17-6e" d="M 2656 1933 
C 2656 2259 2592 2790 1837 2790 
C 1331 2790 1069 2400 973 2144 
L 966 2144 
L 966 2790 
L 211 2720 
L 211 2554 
C 589 2554 646 2515 646 2208 
L 646 428 
C 646 184 621 153 211 153 
L 211 -13 
C 365 0 646 0 813 0 
C 979 0 1267 0 1421 -13 
L 1421 153 
C 1011 153 986 178 986 428 
L 986 1658 
C 986 2247 1344 2688 1792 2688 
C 2266 2688 2317 2266 2317 1958 
L 2317 428 
C 2317 184 2291 153 1882 153 
L 1882 -13 
C 2035 0 2317 0 2483 0 
C 2650 0 2938 0 3091 -13 
L 3091 153 
C 2682 153 2656 178 2656 428 
L 2656 1933 
z
" transform="scale(0.015625)"/>
       <path id="CMR17-63" d="M 2234 2240 
C 2112 2240 1933 2240 1933 2017 
C 1933 1838 2080 1787 2163 1787 
C 2208 1787 2394 1807 2394 2024 
C 2394 2467 1958 2803 1466 2803 
C 787 2803 211 2178 211 1363 
C 211 516 813 -64 1466 -64 
C 2259 -64 2458 677 2458 748 
C 2458 774 2451 793 2406 793 
C 2362 793 2355 787 2330 703 
C 2163 180 1798 51 1523 51 
C 1114 51 621 427 621 1369 
C 621 2338 1094 2688 1472 2688 
C 1722 2688 2093 2573 2234 2240 
z
" transform="scale(0.015625)"/>
      </defs>
      <use xlink:href="#CMR17-52" transform="scale(0.996264)"/>
      <use xlink:href="#CMR17-65" transform="translate(67.791102 0) scale(0.996264)"/>
      <use xlink:href="#CMR17-66" transform="translate(108.276762 0) scale(0.996264)"/>
      <use xlink:href="#CMR17-65" transform="translate(135.750275 0) scale(0.996264)"/>
      <use xlink:href="#CMR17-72" transform="translate(176.235935 0) scale(0.996264)"/>
      <use xlink:href="#CMR17-65" transform="translate(211.516703 0) scale(0.996264)"/>
      <use xlink:href="#CMR17-6e" transform="translate(252.002364 0) scale(0.996264)"/>
      <use xlink:href="#CMR17-63" transform="translate(302.897733 0) scale(0.996264)"/>
      <use xlink:href="#CMR17-65" transform="translate(343.383394 0) scale(0.996264)"/>
     </g>
    </g>
    <g id="line2d_26">
     <path d="M 59.716452 98.757013 
L 72.716452 98.757013 
L 85.716452 98.757013 
" style="fill: none; stroke: #d3d3d3; stroke-width: 3; stroke-linecap: square"/>
    </g>
    <g id="text_17">
     <!-- $(||H||-1)/2$ -->
     <g transform="translate(96.116452 103.307013) scale(0.13 -0.13)">
      <defs>
       <path id="CMR17-28" d="M 1958 -1561 
C 1958 -1555 1958 -1542 1939 -1523 
C 1645 -1224 858 -407 858 1581 
C 858 3569 1632 4379 1946 4697 
C 1946 4704 1958 4717 1958 4736 
C 1958 4755 1939 4768 1914 4768 
C 1843 4768 1299 4296 986 3594 
C 666 2887 576 2199 576 1588 
C 576 1128 621 351 1005 -471 
C 1312 -1135 1837 -1600 1914 -1600 
C 1946 -1600 1958 -1587 1958 -1561 
z
" transform="scale(0.015625)"/>
       <path id="CMSY10-6a" d="M 1018 4570 
C 1018 4685 1018 4800 890 4800 
C 762 4800 762 4685 762 4570 
L 762 -1370 
C 762 -1485 762 -1600 890 -1600 
C 1018 -1600 1018 -1485 1018 -1370 
L 1018 4570 
z
" transform="scale(0.015625)"/>
       <path id="CMMI12-48" d="M 4787 3887 
C 4845 4103 4858 4167 5312 4167 
C 5427 4167 5491 4167 5491 4282 
C 5491 4352 5434 4352 5395 4352 
C 5280 4352 5146 4352 5024 4352 
L 4269 4352 
C 4147 4352 4013 4352 3891 4352 
C 3846 4352 3770 4352 3770 4231 
C 3770 4167 3814 4167 3936 4167 
C 4320 4167 4320 4116 4320 4046 
C 4320 4034 4320 3995 4294 3900 
L 3904 2361 
L 1971 2361 
L 2355 3887 
C 2413 4103 2426 4167 2880 4167 
C 2995 4167 3059 4167 3059 4282 
C 3059 4352 3002 4352 2963 4352 
C 2848 4352 2714 4352 2592 4352 
L 1837 4352 
C 1715 4352 1581 4352 1459 4352 
C 1414 4352 1338 4352 1338 4231 
C 1338 4167 1382 4167 1504 4167 
C 1888 4167 1888 4116 1888 4046 
C 1888 4034 1888 3995 1862 3899 
L 998 472 
C 941 249 928 185 486 185 
C 339 185 294 185 294 64 
C 294 0 365 0 384 0 
C 499 0 634 0 755 0 
L 1510 0 
C 1632 0 1766 0 1888 0 
C 1939 0 2010 0 2010 121 
C 2010 185 1952 185 1856 185 
C 1466 185 1466 236 1466 300 
C 1466 307 1466 351 1478 402 
L 1920 2176 
L 3859 2176 
C 3750 1753 3424 416 3411 376 
C 3341 185 3238 185 2861 185 
C 2784 185 2726 185 2726 64 
C 2726 0 2797 0 2816 0 
C 2931 0 3066 0 3187 0 
L 3942 0 
C 4064 0 4198 0 4320 0 
C 4371 0 4442 0 4442 121 
C 4442 185 4384 185 4288 185 
C 3898 185 3898 236 3898 300 
C 3898 307 3898 351 3910 402 
L 4787 3887 
z
" transform="scale(0.015625)"/>
       <path id="CMSY10-0" d="M 4218 1472 
C 4326 1472 4442 1472 4442 1600 
C 4442 1728 4326 1728 4218 1728 
L 755 1728 
C 646 1728 531 1728 531 1600 
C 531 1472 646 1472 755 1472 
L 4218 1472 
z
" transform="scale(0.015625)"/>
       <path id="CMR17-29" d="M 1683 1581 
C 1683 2040 1638 2817 1254 3639 
C 947 4303 422 4768 346 4768 
C 326 4768 301 4761 301 4729 
C 301 4717 307 4710 314 4697 
C 621 4378 1402 3568 1402 1584 
C 1402 -407 627 -1217 314 -1537 
C 307 -1549 301 -1556 301 -1568 
C 301 -1600 326 -1600 346 -1600 
C 416 -1600 960 -1128 1274 -426 
C 1594 281 1683 969 1683 1581 
z
" transform="scale(0.015625)"/>
       <path id="CMMI12-3d" d="M 2746 4562 
C 2746 4569 2784 4666 2784 4678 
C 2784 4755 2720 4800 2669 4800 
C 2637 4800 2579 4800 2528 4659 
L 384 -1363 
C 384 -1370 346 -1465 346 -1478 
C 346 -1555 410 -1600 461 -1600 
C 499 -1600 557 -1593 602 -1459 
L 2746 4562 
z
" transform="scale(0.015625)"/>
      </defs>
      <use xlink:href="#CMR17-28" transform="scale(0.996264)"/>
      <use xlink:href="#CMSY10-6a" transform="translate(35.280768 0) scale(0.996264)"/>
      <use xlink:href="#CMSY10-6a" transform="translate(62.954853 0) scale(0.996264)"/>
      <use xlink:href="#CMMI12-48" transform="translate(90.628937 0) scale(0.996264)"/>
      <use xlink:href="#CMSY10-6a" transform="translate(179.15071 0) scale(0.996264)"/>
      <use xlink:href="#CMSY10-6a" transform="translate(206.824795 0) scale(0.996264)"/>
      <use xlink:href="#CMSY10-0" transform="translate(256.638086 0) scale(0.996264)"/>
      <use xlink:href="#CMR17-31" transform="translate(356.264761 0) scale(0.996264)"/>
      <use xlink:href="#CMR17-29" transform="translate(401.955238 0) scale(0.996264)"/>
      <use xlink:href="#CMMI12-3d" transform="translate(437.236006 0) scale(0.996264)"/>
      <use xlink:href="#CMR17-32" transform="translate(486.010925 0) scale(0.996264)"/>
     </g>
    </g>
   </g>
   <g id="legend_2">
    <g id="patch_8">
     <path d="M 690.517833 144.508932 
L 819.891781 144.508932 
Q 821.973781 144.508932 821.973781 142.426932 
L 821.973781 37.927908 
Q 821.973781 35.845908 819.891781 35.845908 
L 690.517833 35.845908 
Q 688.435833 35.845908 688.435833 37.927908 
L 688.435833 142.426932 
Q 688.435833 144.508932 690.517833 144.508932 
z
" style="fill: #ffffff; opacity: 0.8; stroke: #cccccc; stroke-width: 0.24; stroke-linejoin: miter"/>
    </g>
    <g id="text_18">
     <!-- Shift of $L_h$ -->
     <g transform="translate(721.200191 50.387633) scale(0.15 -0.15)">
      <defs>
       <path id="CMR17-53" d="M 2803 4290 
C 2803 4404 2797 4411 2758 4411 
C 2720 4411 2707 4385 2682 4328 
L 2490 3907 
C 2246 4257 1875 4416 1472 4416 
C 819 4416 294 3901 294 3253 
C 294 3056 339 2776 557 2510 
C 794 2218 1018 2167 1530 2033 
C 1722 1982 2042 1899 2106 1874 
C 2470 1722 2662 1341 2662 985 
C 2662 527 2336 38 1779 38 
C 1094 38 454 419 410 1311 
C 403 1413 397 1419 352 1419 
C 301 1419 294 1413 294 1285 
L 294 -1 
C 294 -115 301 -122 339 -122 
C 384 -122 397 -90 486 108 
C 493 127 493 140 614 381 
C 934 -39 1472 -128 1779 -128 
C 2477 -128 2970 451 2970 1124 
C 2970 1454 2848 1708 2778 1823 
C 2509 2230 2221 2306 1914 2382 
C 1869 2402 1856 2402 1498 2490 
C 1152 2579 1005 2624 845 2796 
C 666 2992 602 3196 602 3399 
C 602 3812 934 4263 1478 4263 
C 2157 4263 2579 3786 2675 2993 
C 2694 2878 2701 2872 2746 2872 
C 2803 2872 2803 2891 2803 2999 
L 2803 4290 
z
" transform="scale(0.015625)"/>
       <path id="CMR17-68" d="M 2656 1933 
C 2656 2259 2592 2790 1837 2790 
C 1312 2790 1056 2368 979 2157 
L 973 2157 
L 973 4396 
L 211 4326 
L 211 4160 
C 589 4160 646 4122 646 3817 
L 646 426 
C 646 184 621 153 211 153 
L 211 -13 
C 365 0 646 0 813 0 
C 979 0 1267 0 1421 -13 
L 1421 153 
C 1011 153 986 178 986 428 
L 986 1658 
C 986 2247 1344 2688 1792 2688 
C 2266 2688 2317 2266 2317 1958 
L 2317 428 
C 2317 184 2291 153 1882 153 
L 1882 -13 
C 2035 0 2317 0 2483 0 
C 2650 0 2938 0 3091 -13 
L 3091 153 
C 2682 153 2656 178 2656 428 
L 2656 1933 
z
" transform="scale(0.015625)"/>
       <path id="CMR17-69" d="M 992 3909 
C 992 4049 877 4170 730 4170 
C 589 4170 467 4056 467 3909 
C 467 3769 582 3648 730 3648 
C 870 3648 992 3763 992 3909 
z
M 243 2706 
L 243 2541 
C 602 2541 653 2502 653 2197 
L 653 427 
C 653 184 627 153 218 153 
L 218 -13 
C 371 0 646 0 806 0 
C 960 0 1222 0 1370 -13 
L 1370 153 
C 992 153 979 191 979 420 
L 979 2776 
L 243 2706 
z
" transform="scale(0.015625)"/>
       <path id="CMMI12-4c" d="M 2349 3861 
C 2406 4103 2426 4167 2989 4167 
C 3162 4167 3206 4167 3206 4288 
C 3206 4352 3136 4352 3110 4352 
C 2982 4352 2835 4352 2707 4352 
L 1850 4352 
C 1728 4352 1587 4352 1466 4352 
C 1414 4352 1344 4352 1344 4231 
C 1344 4167 1402 4167 1498 4167 
C 1888 4167 1888 4116 1888 4046 
C 1888 4034 1888 3995 1862 3899 
L 998 472 
C 941 249 928 185 480 185 
C 358 185 294 185 294 70 
C 294 0 333 0 461 0 
L 3328 0 
C 3469 0 3475 6 3520 121 
L 4013 1478 
C 4026 1510 4038 1548 4038 1567 
C 4038 1605 4006 1631 3974 1631 
C 3968 1631 3936 1631 3923 1605 
C 3910 1599 3910 1586 3859 1465 
C 3654 905 3366 185 2285 185 
L 1670 185 
C 1581 185 1568 185 1530 192 
C 1459 198 1453 211 1453 262 
C 1453 307 1466 345 1478 401 
L 2349 3861 
z
" transform="scale(0.015625)"/>
       <path id="CMMI12-68" d="M 1798 4257 
C 1805 4283 1818 4321 1818 4352 
C 1818 4416 1754 4416 1741 4416 
C 1734 4416 1421 4388 1389 4380 
C 1280 4373 1184 4358 1069 4358 
C 909 4345 864 4339 864 4224 
C 864 4160 915 4160 1005 4160 
C 1318 4160 1325 4103 1325 4040 
C 1325 4002 1312 3951 1306 3932 
L 378 248 
C 352 152 352 140 352 101 
C 352 -38 461 -64 525 -64 
C 634 -64 717 19 749 89 
L 1037 1245 
C 1069 1386 1107 1520 1139 1660 
C 1210 1929 1210 1935 1331 2120 
C 1453 2305 1741 2689 2234 2689 
C 2490 2689 2579 2497 2579 2242 
C 2579 1884 2330 1188 2189 805 
C 2131 651 2099 568 2099 453 
C 2099 166 2298 -64 2605 -64 
C 3200 -64 3424 875 3424 913 
C 3424 945 3398 971 3360 971 
C 3302 971 3296 952 3264 843 
C 3117 332 2880 64 2624 64 
C 2560 64 2458 64 2458 269 
C 2458 436 2534 640 2560 710 
C 2675 1018 2963 1773 2963 2145 
C 2963 2528 2739 2816 2253 2816 
C 1888 2816 1568 2644 1306 2312 
L 1798 4257 
z
" transform="scale(0.015625)"/>
      </defs>
      <use xlink:href="#CMR17-53" transform="scale(0.996264)"/>
      <use xlink:href="#CMR17-68" transform="translate(50.89537 0) scale(0.996264)"/>
      <use xlink:href="#CMR17-69" transform="translate(101.79074 0) scale(0.996264)"/>
      <use xlink:href="#CMR17-66" transform="translate(126.661798 0) scale(0.996264)"/>
      <use xlink:href="#CMR17-74" transform="translate(154.13531 0) scale(0.996264)"/>
      <use xlink:href="#CMR17-6f" transform="translate(219.492045 0) scale(0.996264)"/>
      <use xlink:href="#CMR17-66" transform="translate(265.182522 0) scale(0.996264)"/>
      <use xlink:href="#CMMI12-4c" transform="translate(322.732 0) scale(0.996264)"/>
      <use xlink:href="#CMMI12-68" transform="translate(389.102876 -14.943915) scale(0.697382)"/>
     </g>
    </g>
    <g id="line2d_27">
     <path d="M 692.599833 62.141877 
L 703.009833 62.141877 
L 713.419833 62.141877 
" style="fill: none; stroke-dasharray: 1.85,0.8; stroke-dashoffset: 0; stroke: #1f77b4; stroke-width: 0.5"/>
    </g>
    <g id="text_19">
     <!-- $-18\%$ -->
     <g transform="translate(721.747833 65.785377) scale(0.1041 -0.1041)">
      <defs>
       <path id="CMR17-38" d="M 1741 2264 
C 2144 2467 2554 2773 2554 3263 
C 2554 3841 1990 4179 1472 4179 
C 890 4179 378 3759 378 3180 
C 378 3021 416 2747 666 2505 
C 730 2442 998 2251 1171 2130 
C 883 1983 211 1634 211 934 
C 211 279 838 -128 1459 -128 
C 2144 -128 2720 362 2720 1010 
C 2720 1590 2330 1857 2074 2029 
L 1741 2264 
z
M 902 2822 
C 851 2854 595 3051 595 3351 
C 595 3739 998 4032 1459 4032 
C 1965 4032 2336 3676 2336 3262 
C 2336 2669 1670 2331 1638 2331 
C 1632 2331 1626 2331 1574 2370 
L 902 2822 
z
M 2080 1519 
C 2176 1449 2483 1240 2483 851 
C 2483 381 2010 25 1472 25 
C 890 25 448 438 448 940 
C 448 1443 838 1862 1280 2060 
L 2080 1519 
z
" transform="scale(0.015625)"/>
       <path id="CMR17-25" d="M 4640 959 
C 4640 1698 4275 2240 3846 2240 
C 3411 2240 2970 1736 2970 959 
C 2970 183 3405 -320 3846 -320 
C 4275 -320 4640 215 4640 959 
z
M 3853 -218 
C 3686 -218 3270 -66 3270 959 
C 3270 1991 3686 2138 3853 2138 
C 4205 2138 4525 1634 4525 959 
C 4525 285 4205 -218 3853 -218 
z
M 4083 4577 
C 4128 4647 4134 4653 4134 4685 
C 4134 4761 4077 4800 4026 4800 
C 3962 4800 3936 4756 3891 4706 
C 3520 4190 3008 4134 2746 4134 
C 2106 4134 1715 4494 1594 4607 
C 1510 4682 1389 4800 1171 4800 
C 736 4800 294 4296 294 3519 
C 294 2743 730 2240 1171 2240 
C 1600 2240 1965 2778 1965 3527 
C 1965 3969 1830 4270 1811 4308 
C 2202 4064 2586 4032 2752 4032 
C 3162 4032 3456 4183 3616 4289 
L 3622 4283 
L 858 -84 
C 800 -174 800 -187 800 -206 
C 800 -276 858 -320 915 -320 
C 973 -320 992 -289 1037 -218 
L 4083 4577 
z
M 1178 2342 
C 1011 2342 595 2494 595 3519 
C 595 4551 1011 4698 1178 4698 
C 1530 4698 1850 4194 1850 3519 
C 1850 2845 1530 2342 1178 2342 
z
" transform="scale(0.015625)"/>
      </defs>
      <use xlink:href="#CMSY10-0" transform="scale(0.996264)"/>
      <use xlink:href="#CMR17-31" transform="translate(77.487468 0) scale(0.996264)"/>
      <use xlink:href="#CMR17-38" transform="translate(123.177945 0) scale(0.996264)"/>
      <use xlink:href="#CMR17-25" transform="translate(168.868422 0) scale(0.996264)"/>
     </g>
    </g>
    <g id="line2d_28">
     <path d="M 692.599833 76.65047 
L 703.009833 76.65047 
L 713.419833 76.65047 
" style="fill: none; stroke-dasharray: 3.2,0.8,0.5,0.8; stroke-dashoffset: 0; stroke: #ff7f0e; stroke-width: 0.5"/>
    </g>
    <g id="text_20">
     <!-- $-12\%$ -->
     <g transform="translate(721.747833 80.29397) scale(0.1041 -0.1041)">
      <use xlink:href="#CMSY10-0" transform="scale(0.996264)"/>
      <use xlink:href="#CMR17-31" transform="translate(77.487468 0) scale(0.996264)"/>
      <use xlink:href="#CMR17-32" transform="translate(123.177945 0) scale(0.996264)"/>
      <use xlink:href="#CMR17-25" transform="translate(168.868422 0) scale(0.996264)"/>
     </g>
    </g>
    <g id="line2d_29">
     <path d="M 692.599833 91.159062 
L 703.009833 91.159062 
L 713.419833 91.159062 
" style="fill: none; stroke-dasharray: 0.5,0.825; stroke-dashoffset: 0; stroke: #2ca02c; stroke-width: 0.5"/>
    </g>
    <g id="text_21">
     <!-- $-6\%$ -->
     <g transform="translate(721.747833 94.802562) scale(0.1041 -0.1041)">
      <use xlink:href="#CMSY10-0" transform="scale(0.996264)"/>
      <use xlink:href="#CMR17-36" transform="translate(77.487468 0) scale(0.996264)"/>
      <use xlink:href="#CMR17-25" transform="translate(123.177945 0) scale(0.996264)"/>
     </g>
    </g>
    <g id="line2d_30">
     <path d="M 692.599833 105.667655 
L 703.009833 105.667655 
L 713.419833 105.667655 
" style="fill: none; stroke: #d62728; stroke-width: 0.5; stroke-linecap: square"/>
    </g>
    <g id="text_22">
     <!-- $0\%$ -->
     <g transform="translate(721.747833 109.311155) scale(0.1041 -0.1041)">
      <use xlink:href="#CMR17-30" transform="scale(0.996264)"/>
      <use xlink:href="#CMR17-25" transform="translate(45.690477 0) scale(0.996264)"/>
     </g>
    </g>
    <g id="line2d_31">
     <path d="M 692.599833 120.176247 
L 703.009833 120.176247 
L 713.419833 120.176247 
" style="fill: none; stroke-dasharray: 1.85,0.8; stroke-dashoffset: 0; stroke: #9467bd; stroke-width: 0.5"/>
    </g>
    <g id="text_23">
     <!-- $6\%$ -->
     <g transform="translate(721.747833 123.819747) scale(0.1041 -0.1041)">
      <use xlink:href="#CMR17-36" transform="scale(0.996264)"/>
      <use xlink:href="#CMR17-25" transform="translate(45.690477 0) scale(0.996264)"/>
     </g>
    </g>
    <g id="line2d_32">
     <path d="M 692.599833 134.684839 
L 703.009833 134.684839 
L 713.419833 134.684839 
" style="fill: none; stroke-dasharray: 3.2,0.8,0.5,0.8; stroke-dashoffset: 0; stroke: #8c564b; stroke-width: 0.5"/>
    </g>
    <g id="text_24">
     <!-- $12\%$ -->
     <g transform="translate(721.747833 138.328339) scale(0.1041 -0.1041)">
      <use xlink:href="#CMR17-31" transform="scale(0.996264)"/>
      <use xlink:href="#CMR17-32" transform="translate(45.690477 0) scale(0.996264)"/>
      <use xlink:href="#CMR17-25" transform="translate(91.380954 0) scale(0.996264)"/>
     </g>
    </g>
    <g id="line2d_33">
     <path d="M 769.64803 62.141877 
L 780.05803 62.141877 
L 790.46803 62.141877 
" style="fill: none; stroke-dasharray: 0.5,0.825; stroke-dashoffset: 0; stroke: #e377c2; stroke-width: 0.5"/>
    </g>
    <g id="text_25">
     <!-- $18\%$ -->
     <g transform="translate(798.79603 65.785377) scale(0.1041 -0.1041)">
      <use xlink:href="#CMR17-31" transform="scale(0.996264)"/>
      <use xlink:href="#CMR17-38" transform="translate(45.690477 0) scale(0.996264)"/>
      <use xlink:href="#CMR17-25" transform="translate(91.380954 0) scale(0.996264)"/>
     </g>
    </g>
    <g id="line2d_34">
     <path d="M 769.64803 76.65047 
L 780.05803 76.65047 
L 790.46803 76.65047 
" style="fill: none; stroke: #7f7f7f; stroke-width: 0.5; stroke-linecap: square"/>
    </g>
    <g id="text_26">
     <!-- $24\%$ -->
     <g transform="translate(798.79603 80.29397) scale(0.1041 -0.1041)">
      <use xlink:href="#CMR17-32" transform="scale(0.996264)"/>
      <use xlink:href="#CMR17-34" transform="translate(45.690477 0) scale(0.996264)"/>
      <use xlink:href="#CMR17-25" transform="translate(91.380954 0) scale(0.996264)"/>
     </g>
    </g>
    <g id="line2d_35">
     <path d="M 769.64803 91.159062 
L 780.05803 91.159062 
L 790.46803 91.159062 
" style="fill: none; stroke-dasharray: 1.85,0.8; stroke-dashoffset: 0; stroke: #bcbd22; stroke-width: 0.5"/>
    </g>
    <g id="text_27">
     <!-- $30\%$ -->
     <g transform="translate(798.79603 94.802562) scale(0.1041 -0.1041)">
      <use xlink:href="#CMR17-33" transform="scale(0.996264)"/>
      <use xlink:href="#CMR17-30" transform="translate(45.690477 0) scale(0.996264)"/>
      <use xlink:href="#CMR17-25" transform="translate(91.380954 0) scale(0.996264)"/>
     </g>
    </g>
    <g id="line2d_36">
     <path d="M 769.64803 105.667655 
L 780.05803 105.667655 
L 790.46803 105.667655 
" style="fill: none; stroke-dasharray: 3.2,0.8,0.5,0.8; stroke-dashoffset: 0; stroke: #17becf; stroke-width: 0.5"/>
    </g>
    <g id="text_28">
     <!-- $36\%$ -->
     <g transform="translate(798.79603 109.311155) scale(0.1041 -0.1041)">
      <use xlink:href="#CMR17-33" transform="scale(0.996264)"/>
      <use xlink:href="#CMR17-36" transform="translate(45.690477 0) scale(0.996264)"/>
      <use xlink:href="#CMR17-25" transform="translate(91.380954 0) scale(0.996264)"/>
     </g>
    </g>
    <g id="line2d_37">
     <path d="M 769.64803 120.176247 
L 780.05803 120.176247 
L 790.46803 120.176247 
" style="fill: none; stroke-dasharray: 0.5,0.825; stroke-dashoffset: 0; stroke: #1f77b4; stroke-width: 0.5"/>
    </g>
    <g id="text_29">
     <!-- $42\%$ -->
     <g transform="translate(798.79603 123.819747) scale(0.1041 -0.1041)">
      <use xlink:href="#CMR17-34" transform="scale(0.996264)"/>
      <use xlink:href="#CMR17-32" transform="translate(45.690477 0) scale(0.996264)"/>
      <use xlink:href="#CMR17-25" transform="translate(91.380954 0) scale(0.996264)"/>
     </g>
    </g>
   </g>
  </g>
 </g>
 <defs>
  <clipPath id="pdaf9517792">
   <rect x="48.016452" y="7.2" width="779.162328" height="165.95484"/>
  </clipPath>
 </defs>
</svg>
