<?xml version="1.0" encoding="utf-8" standalone="no"?>
<!DOCTYPE svg PUBLIC "-//W3C//DTD SVG 1.1//EN"
  "http://www.w3.org/Graphics/SVG/1.1/DTD/svg11.dtd">
<svg xmlns:xlink="http://www.w3.org/1999/xlink" width="424.55952pt" height="181.19952pt" viewBox="0 0 424.55952 181.19952" xmlns="http://www.w3.org/2000/svg" version="1.1">
 <metadata>
  <rdf:RDF xmlns:dc="http://purl.org/dc/elements/1.1/" xmlns:cc="http://creativecommons.org/ns#" xmlns:rdf="http://www.w3.org/1999/02/22-rdf-syntax-ns#">
   <cc:Work>
    <dc:type rdf:resource="http://purl.org/dc/dcmitype/StillImage"/>
    <dc:date>1980-01-01T00:00:00+00:00</dc:date>
    <dc:format>image/svg+xml</dc:format>
    <dc:creator>
     <cc:Agent>
      <dc:title>Matplotlib v3.6.2, https://matplotlib.org/</dc:title>
     </cc:Agent>
    </dc:creator>
   </cc:Work>
  </rdf:RDF>
 </metadata>
 <defs>
  <style type="text/css">*{stroke-linejoin: round; stroke-linecap: butt}</style>
 </defs>
 <g id="figure_1">
  <g id="patch_1">
   <path d="M 0 181.19952 
L 424.55952 181.19952 
L 424.55952 -0 
L 0 -0 
z
" style="fill: #ffffff"/>
  </g>
  <g id="axes_1">
   <g id="patch_2">
    <path d="M 32.504112 153.38718 
L 417.35952 153.38718 
L 417.35952 7.2 
L 32.504112 7.2 
z
" style="fill: #ffffff"/>
   </g>
   <g id="matplotlib.axis_1">
    <g id="xtick_1">
     <g id="line2d_1">
      <defs>
       <path id="mfcc29f847c" d="M 0 0 
L 0 3.5 
" style="stroke: #000000; stroke-width: 0.8"/>
      </defs>
      <g>
       <use xlink:href="#mfcc29f847c" x="49.99754" y="153.38718" style="stroke: #000000; stroke-width: 0.8"/>
      </g>
     </g>
     <g id="text_1">
      <!-- $\mathdefault{0}$ -->
      <g transform="translate(46.82717 171.481208) scale(0.13 -0.13)">
       <defs>
        <path id="CMR17-30" d="M 2688 2025 
C 2688 2416 2682 3080 2413 3591 
C 2176 4039 1798 4198 1466 4198 
C 1158 4198 768 4058 525 3597 
C 269 3118 243 2524 243 2025 
C 243 1661 250 1106 448 619 
C 723 -39 1216 -128 1466 -128 
C 1760 -128 2208 -7 2470 600 
C 2662 1042 2688 1559 2688 2025 
z
M 1466 -26 
C 1056 -26 813 325 723 812 
C 653 1188 653 1738 653 2096 
C 653 2588 653 2997 736 3387 
C 858 3929 1216 4096 1466 4096 
C 1728 4096 2067 3923 2189 3400 
C 2272 3036 2278 2607 2278 2096 
C 2278 1680 2278 1169 2202 792 
C 2067 95 1690 -26 1466 -26 
z
" transform="scale(0.015625)"/>
       </defs>
       <use xlink:href="#CMR17-30" transform="scale(0.996264)"/>
      </g>
     </g>
    </g>
    <g id="xtick_2">
     <g id="line2d_2">
      <g>
       <use xlink:href="#mfcc29f847c" x="98.590394" y="153.38718" style="stroke: #000000; stroke-width: 0.8"/>
      </g>
     </g>
     <g id="text_2">
      <!-- $\mathdefault{25}$ -->
      <g transform="translate(92.249655 171.481208) scale(0.13 -0.13)">
       <defs>
        <path id="CMR17-32" d="M 2669 989 
L 2554 989 
C 2490 536 2438 459 2413 420 
C 2381 369 1920 369 1830 369 
L 602 369 
C 832 619 1280 1072 1824 1597 
C 2214 1967 2669 2402 2669 3035 
C 2669 3790 2067 4224 1395 4224 
C 691 4224 262 3604 262 3030 
C 262 2780 448 2748 525 2748 
C 589 2748 781 2787 781 3010 
C 781 3207 614 3264 525 3264 
C 486 3264 448 3258 422 3245 
C 544 3790 915 4058 1306 4058 
C 1862 4058 2227 3617 2227 3035 
C 2227 2479 1901 2000 1536 1584 
L 262 146 
L 262 0 
L 2515 0 
L 2669 989 
z
" transform="scale(0.015625)"/>
        <path id="CMR17-35" d="M 730 3692 
C 794 3666 1056 3584 1325 3584 
C 1920 3584 2246 3911 2432 4100 
C 2432 4157 2432 4192 2394 4192 
C 2387 4192 2374 4192 2323 4163 
C 2099 4058 1837 3973 1517 3973 
C 1325 3973 1037 3999 723 4139 
C 653 4171 640 4171 634 4171 
C 602 4171 595 4164 595 4037 
L 595 2203 
C 595 2089 595 2057 659 2057 
C 691 2057 704 2070 736 2114 
C 941 2401 1222 2522 1542 2522 
C 1766 2522 2246 2382 2246 1289 
C 2246 1085 2246 715 2054 421 
C 1894 159 1645 25 1370 25 
C 947 25 518 320 403 814 
C 429 807 480 795 506 795 
C 589 795 749 840 749 1038 
C 749 1210 627 1280 506 1280 
C 358 1280 262 1190 262 1011 
C 262 454 704 -128 1382 -128 
C 2042 -128 2669 440 2669 1264 
C 2669 2030 2170 2624 1549 2624 
C 1222 2624 947 2503 730 2274 
L 730 3692 
z
" transform="scale(0.015625)"/>
       </defs>
       <use xlink:href="#CMR17-32" transform="scale(0.996264)"/>
       <use xlink:href="#CMR17-35" transform="translate(45.690477 0) scale(0.996264)"/>
      </g>
     </g>
    </g>
    <g id="xtick_3">
     <g id="line2d_3">
      <g>
       <use xlink:href="#mfcc29f847c" x="147.183249" y="153.38718" style="stroke: #000000; stroke-width: 0.8"/>
      </g>
     </g>
     <g id="text_3">
      <!-- $\mathdefault{50}$ -->
      <g transform="translate(140.842509 171.481208) scale(0.13 -0.13)">
       <use xlink:href="#CMR17-35" transform="scale(0.996264)"/>
       <use xlink:href="#CMR17-30" transform="translate(45.690477 0) scale(0.996264)"/>
      </g>
     </g>
    </g>
    <g id="xtick_4">
     <g id="line2d_4">
      <g>
       <use xlink:href="#mfcc29f847c" x="195.776103" y="153.38718" style="stroke: #000000; stroke-width: 0.8"/>
      </g>
     </g>
     <g id="text_4">
      <!-- $\mathdefault{75}$ -->
      <g transform="translate(189.435364 171.481208) scale(0.13 -0.13)">
       <defs>
        <path id="CMR17-37" d="M 2886 3941 
L 2886 4081 
L 1382 4081 
C 634 4081 621 4165 595 4288 
L 480 4288 
L 294 3094 
L 410 3094 
C 429 3215 474 3540 550 3661 
C 589 3712 1062 3712 1171 3712 
L 2579 3712 
L 1869 2661 
C 1395 1954 1069 999 1069 165 
C 1069 89 1069 -128 1299 -128 
C 1530 -128 1530 89 1530 171 
L 1530 465 
C 1530 1508 1709 2196 2003 2636 
L 2886 3941 
z
" transform="scale(0.015625)"/>
       </defs>
       <use xlink:href="#CMR17-37" transform="scale(0.996264)"/>
       <use xlink:href="#CMR17-35" transform="translate(45.690477 0) scale(0.996264)"/>
      </g>
     </g>
    </g>
    <g id="xtick_5">
     <g id="line2d_5">
      <g>
       <use xlink:href="#mfcc29f847c" x="244.368958" y="153.38718" style="stroke: #000000; stroke-width: 0.8"/>
      </g>
     </g>
     <g id="text_5">
      <!-- $\mathdefault{100}$ -->
      <g transform="translate(234.857849 171.481208) scale(0.13 -0.13)">
       <defs>
        <path id="CMR17-31" d="M 1702 4058 
C 1702 4192 1696 4192 1606 4192 
C 1357 3916 979 3827 621 3827 
C 602 3827 570 3827 563 3808 
C 557 3795 557 3782 557 3648 
C 755 3648 1088 3686 1344 3839 
L 1344 461 
C 1344 236 1331 160 781 160 
L 589 160 
L 589 0 
C 896 0 1216 0 1523 0 
C 1830 0 2150 0 2458 0 
L 2458 160 
L 2266 160 
C 1715 160 1702 230 1702 458 
L 1702 4058 
z
" transform="scale(0.015625)"/>
       </defs>
       <use xlink:href="#CMR17-31" transform="scale(0.996264)"/>
       <use xlink:href="#CMR17-30" transform="translate(45.690477 0) scale(0.996264)"/>
       <use xlink:href="#CMR17-30" transform="translate(91.380954 0) scale(0.996264)"/>
      </g>
     </g>
    </g>
    <g id="xtick_6">
     <g id="line2d_6">
      <g>
       <use xlink:href="#mfcc29f847c" x="292.961812" y="153.38718" style="stroke: #000000; stroke-width: 0.8"/>
      </g>
     </g>
     <g id="text_6">
      <!-- $\mathdefault{125}$ -->
      <g transform="translate(283.450703 171.481208) scale(0.13 -0.13)">
       <use xlink:href="#CMR17-31" transform="scale(0.996264)"/>
       <use xlink:href="#CMR17-32" transform="translate(45.690477 0) scale(0.996264)"/>
       <use xlink:href="#CMR17-35" transform="translate(91.380954 0) scale(0.996264)"/>
      </g>
     </g>
    </g>
    <g id="xtick_7">
     <g id="line2d_7">
      <g>
       <use xlink:href="#mfcc29f847c" x="341.554667" y="153.38718" style="stroke: #000000; stroke-width: 0.8"/>
      </g>
     </g>
     <g id="text_7">
      <!-- $\mathdefault{150}$ -->
      <g transform="translate(332.043558 171.481208) scale(0.13 -0.13)">
       <use xlink:href="#CMR17-31" transform="scale(0.996264)"/>
       <use xlink:href="#CMR17-35" transform="translate(45.690477 0) scale(0.996264)"/>
       <use xlink:href="#CMR17-30" transform="translate(91.380954 0) scale(0.996264)"/>
      </g>
     </g>
    </g>
    <g id="xtick_8">
     <g id="line2d_8">
      <g>
       <use xlink:href="#mfcc29f847c" x="390.147521" y="153.38718" style="stroke: #000000; stroke-width: 0.8"/>
      </g>
     </g>
     <g id="text_8">
      <!-- $\mathdefault{175}$ -->
      <g transform="translate(380.636412 171.481208) scale(0.13 -0.13)">
       <use xlink:href="#CMR17-31" transform="scale(0.996264)"/>
       <use xlink:href="#CMR17-37" transform="translate(45.690477 0) scale(0.996264)"/>
       <use xlink:href="#CMR17-35" transform="translate(91.380954 0) scale(0.996264)"/>
      </g>
     </g>
    </g>
   </g>
   <g id="matplotlib.axis_2">
    <g id="ytick_1">
     <g id="line2d_9">
      <defs>
       <path id="me7baf8f199" d="M 0 0 
L -3.5 0 
" style="stroke: #000000; stroke-width: 0.8"/>
      </defs>
      <g>
       <use xlink:href="#me7baf8f199" x="32.504112" y="146.742308" style="stroke: #000000; stroke-width: 0.8"/>
      </g>
     </g>
     <g id="text_9">
      <!-- $\mathdefault{0.0}$ -->
      <g transform="translate(7.2 151.239322) scale(0.13 -0.13)">
       <defs>
        <path id="CMMI12-3a" d="M 1178 307 
C 1178 492 1024 619 870 619 
C 685 619 557 466 557 313 
C 557 128 710 0 864 0 
C 1050 0 1178 153 1178 307 
z
" transform="scale(0.015625)"/>
       </defs>
       <use xlink:href="#CMR17-30" transform="scale(0.996264)"/>
       <use xlink:href="#CMMI12-3a" transform="translate(45.690477 0) scale(0.996264)"/>
       <use xlink:href="#CMR17-30" transform="translate(72.787654 0) scale(0.996264)"/>
      </g>
     </g>
    </g>
    <g id="ytick_2">
     <g id="line2d_10">
      <g>
       <use xlink:href="#me7baf8f199" x="32.504112" y="113.517949" style="stroke: #000000; stroke-width: 0.8"/>
      </g>
     </g>
     <g id="text_10">
      <!-- $\mathdefault{0.5}$ -->
      <g transform="translate(7.2 118.014963) scale(0.13 -0.13)">
       <use xlink:href="#CMR17-30" transform="scale(0.996264)"/>
       <use xlink:href="#CMMI12-3a" transform="translate(45.690477 0) scale(0.996264)"/>
       <use xlink:href="#CMR17-35" transform="translate(72.787654 0) scale(0.996264)"/>
      </g>
     </g>
    </g>
    <g id="ytick_3">
     <g id="line2d_11">
      <g>
       <use xlink:href="#me7baf8f199" x="32.504112" y="80.29359" style="stroke: #000000; stroke-width: 0.8"/>
      </g>
     </g>
     <g id="text_11">
      <!-- $\mathdefault{1.0}$ -->
      <g transform="translate(7.2 84.790604) scale(0.13 -0.13)">
       <use xlink:href="#CMR17-31" transform="scale(0.996264)"/>
       <use xlink:href="#CMMI12-3a" transform="translate(45.690477 0) scale(0.996264)"/>
       <use xlink:href="#CMR17-30" transform="translate(72.787654 0) scale(0.996264)"/>
      </g>
     </g>
    </g>
    <g id="ytick_4">
     <g id="line2d_12">
      <g>
       <use xlink:href="#me7baf8f199" x="32.504112" y="47.069231" style="stroke: #000000; stroke-width: 0.8"/>
      </g>
     </g>
     <g id="text_12">
      <!-- $\mathdefault{1.5}$ -->
      <g transform="translate(7.2 51.566245) scale(0.13 -0.13)">
       <use xlink:href="#CMR17-31" transform="scale(0.996264)"/>
       <use xlink:href="#CMMI12-3a" transform="translate(45.690477 0) scale(0.996264)"/>
       <use xlink:href="#CMR17-35" transform="translate(72.787654 0) scale(0.996264)"/>
      </g>
     </g>
    </g>
    <g id="ytick_5">
     <g id="line2d_13">
      <g>
       <use xlink:href="#me7baf8f199" x="32.504112" y="13.844872" style="stroke: #000000; stroke-width: 0.8"/>
      </g>
     </g>
     <g id="text_13">
      <!-- $\mathdefault{2.0}$ -->
      <g transform="translate(7.2 18.341886) scale(0.13 -0.13)">
       <use xlink:href="#CMR17-32" transform="scale(0.996264)"/>
       <use xlink:href="#CMMI12-3a" transform="translate(45.690477 0) scale(0.996264)"/>
       <use xlink:href="#CMR17-30" transform="translate(72.787654 0) scale(0.996264)"/>
      </g>
     </g>
    </g>
   </g>
   <g id="line2d_14">
    <path d="M 49.99754 113.517949 
L 57.927893 113.60681 
L 58.511008 113.874699 
L 59.094122 114.402111 
L 59.677236 115.236304 
L 60.376973 116.67169 
L 61.193333 118.936177 
L 62.126316 122.209408 
L 63.52579 128.05975 
L 66.091493 138.928956 
L 67.141099 142.369377 
L 67.957459 144.366063 
L 68.657196 145.563048 
L 69.356933 146.302737 
L 69.940047 146.617438 
L 70.639784 146.737309 
L 74.488338 146.742308 
L 144.228803 146.653447 
L 144.811917 146.385558 
L 145.395032 145.858146 
L 145.978146 145.023953 
L 146.677883 143.588567 
L 147.494243 141.32408 
L 148.427226 138.050848 
L 149.8267 132.200506 
L 152.392403 121.331301 
L 153.442008 117.89088 
L 154.258368 115.894194 
L 154.958105 114.697209 
L 155.657842 113.95752 
L 156.240957 113.642819 
L 156.940694 113.522948 
L 160.789248 113.517949 
L 174.550744 113.60681 
L 175.133859 113.874699 
L 175.716973 114.402111 
L 176.300087 115.236304 
L 176.999824 116.67169 
L 177.816184 118.936177 
L 178.749167 122.209408 
L 180.148641 128.05975 
L 182.714344 138.928956 
L 183.76395 142.369377 
L 184.58031 144.366063 
L 185.280047 145.563048 
L 185.979784 146.302737 
L 186.562898 146.617438 
L 187.262635 146.737309 
L 191.111189 146.742308 
L 260.851654 146.653447 
L 261.434768 146.385558 
L 262.017883 145.858146 
L 262.600997 145.023953 
L 263.300734 143.588567 
L 264.117094 141.32408 
L 265.050077 138.050848 
L 266.449551 132.200506 
L 269.015254 121.331301 
L 270.064859 117.89088 
L 270.881219 115.894194 
L 271.580956 114.697209 
L 272.280693 113.95752 
L 272.863808 113.642819 
L 273.563545 113.522948 
L 277.412099 113.517949 
L 291.173595 113.60681 
L 291.75671 113.874699 
L 292.339824 114.402111 
L 292.922938 115.236304 
L 293.622675 116.67169 
L 294.439035 118.936177 
L 295.372018 122.209408 
L 296.771492 128.05975 
L 299.337195 138.928956 
L 300.386801 142.369377 
L 301.20316 144.366063 
L 301.902898 145.563048 
L 302.602635 146.302737 
L 303.185749 146.617438 
L 303.885486 146.737309 
L 307.73404 146.742308 
L 377.474505 146.653447 
L 378.057619 146.385558 
L 378.640733 145.858146 
L 379.223848 145.023953 
L 379.923585 143.588567 
L 380.739945 141.32408 
L 381.672928 138.050848 
L 383.072402 132.200506 
L 385.638105 121.331301 
L 386.68771 117.89088 
L 387.50407 115.894194 
L 388.203807 114.697209 
L 388.903544 113.95752 
L 389.486659 113.642819 
L 390.186396 113.522948 
L 394.03495 113.517949 
L 399.866092 113.517949 
L 399.866092 113.517949 
" clip-path="url(#pa0f17ac6d6)" style="fill: none; stroke: #1f77b4; stroke-linecap: square"/>
   </g>
   <g id="line2d_15">
    <path d="M 49.99754 80.29359 
L 50.697277 80.216634 
L 51.163768 79.955514 
L 51.630259 79.414448 
L 52.096751 78.525265 
L 52.679865 76.85688 
L 53.379602 73.986107 
L 54.195962 69.457133 
L 55.128945 62.910671 
L 56.528419 51.209987 
L 59.094122 29.471575 
L 60.143728 22.590734 
L 60.960088 18.597362 
L 61.659825 16.203391 
L 62.242939 14.911523 
L 62.826053 14.182948 
L 63.292545 13.921828 
L 63.992282 13.844872 
L 109.008702 13.921828 
L 109.475194 14.182948 
L 109.941685 14.724013 
L 110.408176 15.613197 
L 110.991291 17.281581 
L 111.691028 20.152354 
L 112.507388 24.681329 
L 113.44037 31.227791 
L 114.839845 42.928475 
L 117.405547 64.666886 
L 118.455153 71.547728 
L 119.271513 75.5411 
L 119.97125 77.935071 
L 120.554364 79.226939 
L 121.137479 79.955514 
L 121.60397 80.216634 
L 122.303707 80.29359 
L 167.320128 80.216634 
L 167.786619 79.955514 
L 168.25311 79.414448 
L 168.719602 78.525265 
L 169.302716 76.85688 
L 170.002453 73.986107 
L 170.818813 69.457133 
L 171.751796 62.910671 
L 173.15127 51.209987 
L 175.716973 29.471575 
L 176.766579 22.590734 
L 177.582938 18.597362 
L 178.282676 16.203391 
L 178.86579 14.911523 
L 179.448904 14.182948 
L 179.915395 13.921828 
L 180.615133 13.844872 
L 225.631553 13.921828 
L 226.098044 14.182948 
L 226.564536 14.724013 
L 227.031027 15.613197 
L 227.614142 17.281581 
L 228.313879 20.152354 
L 229.130239 24.681329 
L 230.063221 31.227791 
L 231.462696 42.928475 
L 234.028398 64.666886 
L 235.078004 71.547728 
L 235.894364 75.5411 
L 236.594101 77.935071 
L 237.177215 79.226939 
L 237.76033 79.955514 
L 238.226821 80.216634 
L 238.926558 80.29359 
L 283.942979 80.216634 
L 284.40947 79.955514 
L 284.875961 79.414448 
L 285.342453 78.525265 
L 285.925567 76.85688 
L 286.625304 73.986107 
L 287.441664 69.457133 
L 288.374647 62.910671 
L 289.774121 51.209987 
L 292.339824 29.471575 
L 293.389429 22.590734 
L 294.205789 18.597362 
L 294.905527 16.203391 
L 295.488641 14.911523 
L 296.071755 14.182948 
L 296.538246 13.921828 
L 297.237984 13.844872 
L 342.254404 13.921828 
L 342.720895 14.182948 
L 343.187387 14.724013 
L 343.653878 15.613197 
L 344.236992 17.281581 
L 344.93673 20.152354 
L 345.75309 24.681329 
L 346.686072 31.227791 
L 348.085547 42.928475 
L 350.651249 64.666886 
L 351.700855 71.547728 
L 352.517215 75.5411 
L 353.216952 77.935071 
L 353.800066 79.226939 
L 354.38318 79.955514 
L 354.849672 80.216634 
L 355.549409 80.29359 
L 399.866092 80.29359 
L 399.866092 80.29359 
" clip-path="url(#pa0f17ac6d6)" style="fill: none; stroke: #ff7f0e; stroke-linecap: square"/>
   </g>
   <g id="patch_3">
    <path d="M 32.504112 153.38718 
L 32.504112 7.2 
" style="fill: none; stroke: #000000; stroke-width: 0.8; stroke-linejoin: miter; stroke-linecap: square"/>
   </g>
   <g id="patch_4">
    <path d="M 417.35952 153.38718 
L 417.35952 7.2 
" style="fill: none; stroke: #000000; stroke-width: 0.8; stroke-linejoin: miter; stroke-linecap: square"/>
   </g>
   <g id="patch_5">
    <path d="M 32.504112 153.38718 
L 417.35952 153.38718 
" style="fill: none; stroke: #000000; stroke-width: 0.8; stroke-linejoin: miter; stroke-linecap: square"/>
   </g>
   <g id="patch_6">
    <path d="M 32.504112 7.2 
L 417.35952 7.2 
" style="fill: none; stroke: #000000; stroke-width: 0.8; stroke-linejoin: miter; stroke-linecap: square"/>
   </g>
  </g>
 </g>
 <defs>
  <clipPath id="pa0f17ac6d6">
   <rect x="32.504112" y="7.2" width="384.855408" height="146.18718"/>
  </clipPath>
 </defs>
</svg>
