<?xml version="1.0" encoding="utf-8" standalone="no"?>
<!DOCTYPE svg PUBLIC "-//W3C//DTD SVG 1.1//EN"
  "http://www.w3.org/Graphics/SVG/1.1/DTD/svg11.dtd">
<svg xmlns:xlink="http://www.w3.org/1999/xlink" width="202.406547pt" height="181.19952pt" viewBox="0 0 202.406547 181.19952" xmlns="http://www.w3.org/2000/svg" version="1.1">
 <metadata>
  <rdf:RDF xmlns:dc="http://purl.org/dc/elements/1.1/" xmlns:cc="http://creativecommons.org/ns#" xmlns:rdf="http://www.w3.org/1999/02/22-rdf-syntax-ns#">
   <cc:Work>
    <dc:type rdf:resource="http://purl.org/dc/dcmitype/StillImage"/>
    <dc:date>1980-01-01T00:00:00+00:00</dc:date>
    <dc:format>image/svg+xml</dc:format>
    <dc:creator>
     <cc:Agent>
      <dc:title>Matplotlib v3.6.2, https://matplotlib.org/</dc:title>
     </cc:Agent>
    </dc:creator>
   </cc:Work>
  </rdf:RDF>
 </metadata>
 <defs>
  <style type="text/css">*{stroke-linejoin: round; stroke-linecap: butt}</style>
 </defs>
 <g id="figure_1">
  <g id="patch_1">
   <path d="M 0 181.19952 
L 202.406547 181.19952 
L 202.406547 0 
L 0 0 
z
" style="fill: #ffffff"/>
  </g>
  <g id="axes_1">
   <g id="patch_2">
    <path d="M 59.528914 136.435748 
L 188.764662 136.435748 
L 188.764662 7.2 
L 59.528914 7.2 
z
" style="fill: #ffffff"/>
   </g>
   <g id="matplotlib.axis_1">
    <g id="xtick_1">
     <g id="line2d_1">
      <defs>
       <path id="mc33f3850e2" d="M 0 0 
L 0 3.5 
" style="stroke: #000000; stroke-width: 0.8"/>
      </defs>
      <g>
       <use xlink:href="#mc33f3850e2" x="65.403266" y="136.435748" style="stroke: #000000; stroke-width: 0.8"/>
      </g>
     </g>
     <g id="text_1">
      <!-- $\mathdefault{0.0}$ -->
      <g transform="translate(57.30121 154.529776) scale(0.13 -0.13)">
       <defs>
        <path id="CMR17-30" d="M 2688 2025 
C 2688 2416 2682 3080 2413 3591 
C 2176 4039 1798 4198 1466 4198 
C 1158 4198 768 4058 525 3597 
C 269 3118 243 2524 243 2025 
C 243 1661 250 1106 448 619 
C 723 -39 1216 -128 1466 -128 
C 1760 -128 2208 -7 2470 600 
C 2662 1042 2688 1559 2688 2025 
z
M 1466 -26 
C 1056 -26 813 325 723 812 
C 653 1188 653 1738 653 2096 
C 653 2588 653 2997 736 3387 
C 858 3929 1216 4096 1466 4096 
C 1728 4096 2067 3923 2189 3400 
C 2272 3036 2278 2607 2278 2096 
C 2278 1680 2278 1169 2202 792 
C 2067 95 1690 -26 1466 -26 
z
" transform="scale(0.015625)"/>
        <path id="CMMI12-3a" d="M 1178 307 
C 1178 492 1024 619 870 619 
C 685 619 557 466 557 313 
C 557 128 710 0 864 0 
C 1050 0 1178 153 1178 307 
z
" transform="scale(0.015625)"/>
       </defs>
       <use xlink:href="#CMR17-30" transform="scale(0.996264)"/>
       <use xlink:href="#CMMI12-3a" transform="translate(45.690477 0) scale(0.996264)"/>
       <use xlink:href="#CMR17-30" transform="translate(72.787654 0) scale(0.996264)"/>
      </g>
     </g>
    </g>
    <g id="xtick_2">
     <g id="line2d_2">
      <g>
       <use xlink:href="#mc33f3850e2" x="112.398083" y="136.435748" style="stroke: #000000; stroke-width: 0.8"/>
      </g>
     </g>
     <g id="text_2">
      <!-- $\mathdefault{0.2}$ -->
      <g transform="translate(104.296027 154.529776) scale(0.13 -0.13)">
       <defs>
        <path id="CMR17-32" d="M 2669 989 
L 2554 989 
C 2490 536 2438 459 2413 420 
C 2381 369 1920 369 1830 369 
L 602 369 
C 832 619 1280 1072 1824 1597 
C 2214 1967 2669 2402 2669 3035 
C 2669 3790 2067 4224 1395 4224 
C 691 4224 262 3604 262 3030 
C 262 2780 448 2748 525 2748 
C 589 2748 781 2787 781 3010 
C 781 3207 614 3264 525 3264 
C 486 3264 448 3258 422 3245 
C 544 3790 915 4058 1306 4058 
C 1862 4058 2227 3617 2227 3035 
C 2227 2479 1901 2000 1536 1584 
L 262 146 
L 262 0 
L 2515 0 
L 2669 989 
z
" transform="scale(0.015625)"/>
       </defs>
       <use xlink:href="#CMR17-30" transform="scale(0.996264)"/>
       <use xlink:href="#CMMI12-3a" transform="translate(45.690477 0) scale(0.996264)"/>
       <use xlink:href="#CMR17-32" transform="translate(72.787654 0) scale(0.996264)"/>
      </g>
     </g>
    </g>
    <g id="xtick_3">
     <g id="line2d_3">
      <g>
       <use xlink:href="#mc33f3850e2" x="159.392901" y="136.435748" style="stroke: #000000; stroke-width: 0.8"/>
      </g>
     </g>
     <g id="text_3">
      <!-- $\mathdefault{0.4}$ -->
      <g transform="translate(151.290845 154.529776) scale(0.13 -0.13)">
       <defs>
        <path id="CMR17-34" d="M 2150 4122 
C 2150 4256 2144 4256 2029 4256 
L 128 1254 
L 128 1088 
L 1779 1088 
L 1779 457 
C 1779 224 1766 160 1318 160 
L 1197 160 
L 1197 0 
C 1402 0 1747 0 1965 0 
C 2182 0 2528 0 2733 0 
L 2733 160 
L 2611 160 
C 2163 160 2150 224 2150 457 
L 2150 1088 
L 2803 1088 
L 2803 1254 
L 2150 1254 
L 2150 4122 
z
M 1798 3703 
L 1798 1254 
L 256 1254 
L 1798 3703 
z
" transform="scale(0.015625)"/>
       </defs>
       <use xlink:href="#CMR17-30" transform="scale(0.996264)"/>
       <use xlink:href="#CMMI12-3a" transform="translate(45.690477 0) scale(0.996264)"/>
       <use xlink:href="#CMR17-34" transform="translate(72.787654 0) scale(0.996264)"/>
      </g>
     </g>
    </g>
    <g id="text_4">
     <!-- $||L_h(t)||$ -->
     <g transform="translate(102.48253 170.761662) scale(0.13 -0.13)">
      <defs>
       <path id="CMSY10-6a" d="M 1018 4570 
C 1018 4685 1018 4800 890 4800 
C 762 4800 762 4685 762 4570 
L 762 -1370 
C 762 -1485 762 -1600 890 -1600 
C 1018 -1600 1018 -1485 1018 -1370 
L 1018 4570 
z
" transform="scale(0.015625)"/>
       <path id="CMMI12-4c" d="M 2349 3861 
C 2406 4103 2426 4167 2989 4167 
C 3162 4167 3206 4167 3206 4288 
C 3206 4352 3136 4352 3110 4352 
C 2982 4352 2835 4352 2707 4352 
L 1850 4352 
C 1728 4352 1587 4352 1466 4352 
C 1414 4352 1344 4352 1344 4231 
C 1344 4167 1402 4167 1498 4167 
C 1888 4167 1888 4116 1888 4046 
C 1888 4034 1888 3995 1862 3899 
L 998 472 
C 941 249 928 185 480 185 
C 358 185 294 185 294 70 
C 294 0 333 0 461 0 
L 3328 0 
C 3469 0 3475 6 3520 121 
L 4013 1478 
C 4026 1510 4038 1548 4038 1567 
C 4038 1605 4006 1631 3974 1631 
C 3968 1631 3936 1631 3923 1605 
C 3910 1599 3910 1586 3859 1465 
C 3654 905 3366 185 2285 185 
L 1670 185 
C 1581 185 1568 185 1530 192 
C 1459 198 1453 211 1453 262 
C 1453 307 1466 345 1478 401 
L 2349 3861 
z
" transform="scale(0.015625)"/>
       <path id="CMMI12-68" d="M 1798 4257 
C 1805 4283 1818 4321 1818 4352 
C 1818 4416 1754 4416 1741 4416 
C 1734 4416 1421 4388 1389 4380 
C 1280 4373 1184 4358 1069 4358 
C 909 4345 864 4339 864 4224 
C 864 4160 915 4160 1005 4160 
C 1318 4160 1325 4103 1325 4040 
C 1325 4002 1312 3951 1306 3932 
L 378 248 
C 352 152 352 140 352 101 
C 352 -38 461 -64 525 -64 
C 634 -64 717 19 749 89 
L 1037 1245 
C 1069 1386 1107 1520 1139 1660 
C 1210 1929 1210 1935 1331 2120 
C 1453 2305 1741 2689 2234 2689 
C 2490 2689 2579 2497 2579 2242 
C 2579 1884 2330 1188 2189 805 
C 2131 651 2099 568 2099 453 
C 2099 166 2298 -64 2605 -64 
C 3200 -64 3424 875 3424 913 
C 3424 945 3398 971 3360 971 
C 3302 971 3296 952 3264 843 
C 3117 332 2880 64 2624 64 
C 2560 64 2458 64 2458 269 
C 2458 436 2534 640 2560 710 
C 2675 1018 2963 1773 2963 2145 
C 2963 2528 2739 2816 2253 2816 
C 1888 2816 1568 2644 1306 2312 
L 1798 4257 
z
" transform="scale(0.015625)"/>
       <path id="CMR17-28" d="M 1958 -1561 
C 1958 -1555 1958 -1542 1939 -1523 
C 1645 -1224 858 -407 858 1581 
C 858 3569 1632 4379 1946 4697 
C 1946 4704 1958 4717 1958 4736 
C 1958 4755 1939 4768 1914 4768 
C 1843 4768 1299 4296 986 3594 
C 666 2887 576 2199 576 1588 
C 576 1128 621 351 1005 -471 
C 1312 -1135 1837 -1600 1914 -1600 
C 1946 -1600 1958 -1587 1958 -1561 
z
" transform="scale(0.015625)"/>
       <path id="CMMI12-74" d="M 1286 2566 
L 1875 2566 
C 1997 2566 2061 2566 2061 2681 
C 2061 2752 2022 2752 1894 2752 
L 1331 2752 
L 1568 3692 
C 1594 3781 1594 3794 1594 3840 
C 1594 3943 1510 4000 1427 4000 
C 1376 4000 1229 3981 1178 3775 
L 928 2752 
L 326 2752 
C 198 2752 141 2752 141 2630 
C 141 2566 186 2566 307 2566 
L 877 2566 
L 454 881 
C 403 658 384 594 384 511 
C 384 211 595 -64 954 -64 
C 1600 -64 1946 868 1946 912 
C 1946 951 1920 970 1882 970 
C 1869 970 1843 970 1830 944 
C 1824 938 1818 931 1773 829 
C 1638 511 1344 64 973 64 
C 781 64 768 224 768 364 
C 768 370 768 492 787 568 
L 1286 2566 
z
" transform="scale(0.015625)"/>
       <path id="CMR17-29" d="M 1683 1581 
C 1683 2040 1638 2817 1254 3639 
C 947 4303 422 4768 346 4768 
C 326 4768 301 4761 301 4729 
C 301 4717 307 4710 314 4697 
C 621 4378 1402 3568 1402 1584 
C 1402 -407 627 -1217 314 -1537 
C 307 -1549 301 -1556 301 -1568 
C 301 -1600 326 -1600 346 -1600 
C 416 -1600 960 -1128 1274 -426 
C 1594 281 1683 969 1683 1581 
z
" transform="scale(0.015625)"/>
      </defs>
      <use xlink:href="#CMSY10-6a" transform="scale(0.996264)"/>
      <use xlink:href="#CMSY10-6a" transform="translate(27.674085 0) scale(0.996264)"/>
      <use xlink:href="#CMMI12-4c" transform="translate(55.348169 0) scale(0.996264)"/>
      <use xlink:href="#CMMI12-68" transform="translate(121.719045 -14.943915) scale(0.697382)"/>
      <use xlink:href="#CMR17-28" transform="translate(161.525231 0) scale(0.996264)"/>
      <use xlink:href="#CMMI12-74" transform="translate(196.805999 0) scale(0.996264)"/>
      <use xlink:href="#CMR17-29" transform="translate(232.032329 0) scale(0.996264)"/>
      <use xlink:href="#CMSY10-6a" transform="translate(267.313097 0) scale(0.996264)"/>
      <use xlink:href="#CMSY10-6a" transform="translate(294.987182 0) scale(0.996264)"/>
     </g>
    </g>
   </g>
   <g id="matplotlib.axis_2">
    <g id="ytick_1">
     <g id="line2d_4">
      <defs>
       <path id="mfb56c3b08c" d="M 0 0 
L -3.5 0 
" style="stroke: #000000; stroke-width: 0.8"/>
      </defs>
      <g>
       <use xlink:href="#mfb56c3b08c" x="59.528914" y="97.089705" style="stroke: #000000; stroke-width: 0.8"/>
      </g>
     </g>
     <g id="text_5">
      <!-- $\mathdefault{−0.4}$ -->
      <g transform="translate(24.151432 101.586719) scale(0.13 -0.13)">
       <defs>
        <path id="CMSY10-0" d="M 4218 1472 
C 4326 1472 4442 1472 4442 1600 
C 4442 1728 4326 1728 4218 1728 
L 755 1728 
C 646 1728 531 1728 531 1600 
C 531 1472 646 1472 755 1472 
L 4218 1472 
z
" transform="scale(0.015625)"/>
       </defs>
       <use xlink:href="#CMSY10-0" transform="scale(0.996264)"/>
       <use xlink:href="#CMR17-30" transform="translate(77.487468 0) scale(0.996264)"/>
       <use xlink:href="#CMMI12-3a" transform="translate(123.177945 0) scale(0.996264)"/>
       <use xlink:href="#CMR17-34" transform="translate(150.275122 0) scale(0.996264)"/>
      </g>
     </g>
    </g>
    <g id="ytick_2">
     <g id="line2d_5">
      <g>
       <use xlink:href="#mfb56c3b08c" x="59.528914" y="57.187049" style="stroke: #000000; stroke-width: 0.8"/>
      </g>
     </g>
     <g id="text_6">
      <!-- $\mathdefault{−0.2}$ -->
      <g transform="translate(24.151432 61.684063) scale(0.13 -0.13)">
       <use xlink:href="#CMSY10-0" transform="scale(0.996264)"/>
       <use xlink:href="#CMR17-30" transform="translate(77.487468 0) scale(0.996264)"/>
       <use xlink:href="#CMMI12-3a" transform="translate(123.177945 0) scale(0.996264)"/>
       <use xlink:href="#CMR17-32" transform="translate(150.275122 0) scale(0.996264)"/>
      </g>
     </g>
    </g>
    <g id="ytick_3">
     <g id="line2d_6">
      <g>
       <use xlink:href="#mfb56c3b08c" x="59.528914" y="17.284393" style="stroke: #000000; stroke-width: 0.8"/>
      </g>
     </g>
     <g id="text_7">
      <!-- $\mathdefault{0.0}$ -->
      <g transform="translate(34.224802 21.781407) scale(0.13 -0.13)">
       <use xlink:href="#CMR17-30" transform="scale(0.996264)"/>
       <use xlink:href="#CMMI12-3a" transform="translate(45.690477 0) scale(0.996264)"/>
       <use xlink:href="#CMR17-30" transform="translate(72.787654 0) scale(0.996264)"/>
      </g>
     </g>
    </g>
    <g id="text_8">
     <!-- $\langle{H_\mathrm{I}}\rangle$ -->
     <g transform="translate(16.913574 84.038906) rotate(-90) scale(0.13 -0.13)">
      <defs>
       <path id="CMSY10-68" d="M 2099 4557 
C 2131 4627 2131 4640 2131 4672 
C 2131 4742 2074 4800 2003 4800 
C 1946 4800 1901 4768 1856 4653 
L 736 1715 
C 723 1677 704 1638 704 1600 
C 704 1581 704 1568 736 1491 
L 1856 -1446 
C 1882 -1517 1914 -1600 2003 -1600 
C 2074 -1600 2131 -1542 2131 -1472 
C 2131 -1453 2131 -1440 2099 -1370 
L 966 1600 
L 2099 4557 
z
" transform="scale(0.015625)"/>
       <path id="CMMI12-48" d="M 4787 3887 
C 4845 4103 4858 4167 5312 4167 
C 5427 4167 5491 4167 5491 4282 
C 5491 4352 5434 4352 5395 4352 
C 5280 4352 5146 4352 5024 4352 
L 4269 4352 
C 4147 4352 4013 4352 3891 4352 
C 3846 4352 3770 4352 3770 4231 
C 3770 4167 3814 4167 3936 4167 
C 4320 4167 4320 4116 4320 4046 
C 4320 4034 4320 3995 4294 3900 
L 3904 2361 
L 1971 2361 
L 2355 3887 
C 2413 4103 2426 4167 2880 4167 
C 2995 4167 3059 4167 3059 4282 
C 3059 4352 3002 4352 2963 4352 
C 2848 4352 2714 4352 2592 4352 
L 1837 4352 
C 1715 4352 1581 4352 1459 4352 
C 1414 4352 1338 4352 1338 4231 
C 1338 4167 1382 4167 1504 4167 
C 1888 4167 1888 4116 1888 4046 
C 1888 4034 1888 3995 1862 3899 
L 998 472 
C 941 249 928 185 486 185 
C 339 185 294 185 294 64 
C 294 0 365 0 384 0 
C 499 0 634 0 755 0 
L 1510 0 
C 1632 0 1766 0 1888 0 
C 1939 0 2010 0 2010 121 
C 2010 185 1952 185 1856 185 
C 1466 185 1466 236 1466 300 
C 1466 307 1466 351 1478 402 
L 1920 2176 
L 3859 2176 
C 3750 1753 3424 416 3411 376 
C 3341 185 3238 185 2861 185 
C 2784 185 2726 185 2726 64 
C 2726 0 2797 0 2816 0 
C 2931 0 3066 0 3187 0 
L 3942 0 
C 4064 0 4198 0 4320 0 
C 4371 0 4442 0 4442 121 
C 4442 185 4384 185 4288 185 
C 3898 185 3898 236 3898 300 
C 3898 307 3898 351 3910 402 
L 4787 3887 
z
" transform="scale(0.015625)"/>
       <path id="CMR17-49" d="M 1261 3905 
C 1261 4192 1338 4192 1798 4192 
L 1798 4352 
C 1594 4352 1267 4352 1050 4352 
C 832 4352 506 4352 301 4352 
L 301 4192 
C 762 4192 838 4192 838 3905 
L 838 447 
C 838 160 762 160 301 160 
L 301 0 
C 506 0 832 0 1050 0 
C 1267 0 1594 0 1798 0 
L 1798 160 
C 1338 160 1261 160 1261 447 
L 1261 3905 
z
" transform="scale(0.015625)"/>
       <path id="CMSY10-69" d="M 1747 1491 
C 1779 1568 1779 1581 1779 1600 
C 1779 1619 1779 1632 1747 1709 
L 627 4653 
C 589 4762 550 4800 480 4800 
C 410 4800 352 4742 352 4672 
C 352 4653 352 4640 384 4570 
L 1517 1600 
L 384 -1357 
C 352 -1427 352 -1440 352 -1472 
C 352 -1542 410 -1600 480 -1600 
C 563 -1600 589 -1536 614 -1472 
L 1747 1491 
z
" transform="scale(0.015625)"/>
      </defs>
      <use xlink:href="#CMSY10-68" transform="scale(0.996264)"/>
      <use xlink:href="#CMMI12-48" transform="translate(38.743734 0) scale(0.996264)"/>
      <use xlink:href="#CMR17-49" transform="translate(119.56857 -14.943915) scale(0.697382)"/>
      <use xlink:href="#CMSY10-69" transform="translate(142.913492 0) scale(0.996264)"/>
     </g>
    </g>
   </g>
   <g id="line2d_7">
    <path d="M 65.403266 17.284393 
L 65.717493 17.372283 
L 72.208116 18.6354 
L 75.592207 19.636585 
L 79.721252 21.177468 
L 84.563053 23.418321 
L 87.234416 24.855269 
L 90.061041 26.533155 
L 93.032621 28.473801 
L 96.137761 30.697184 
L 99.364086 33.220042 
L 102.698353 36.054313 
L 106.126555 39.205919 
L 109.634034 42.673769 
L 113.205587 46.449192 
L 116.825575 50.515861 
L 120.478036 54.849997 
L 124.146788 59.420856 
L 131.468 69.119684 
L 138.659542 79.257537 
L 148.929489 94.360116 
L 158.232535 107.953339 
L 163.730522 115.486132 
L 166.237512 118.686799 
L 168.572323 121.486106 
L 170.728565 123.878533 
L 172.701369 125.868345 
L 174.487499 127.468934 
L 176.08546 128.70142 
L 177.495604 129.593376 
L 178.720245 130.17721 
L 179.763759 130.487958 
L 180.632702 130.561396 
L 181.335911 130.432408 
L 181.88462 130.133192 
L 182.292562 129.69237 
L 182.576082 129.134997 
L 182.848942 127.752431 
L 182.890309 125.239999 
L 182.890309 80.063134 
L 182.848942 81.000481 
L 182.576082 81.068022 
L 181.335911 80.977863 
L 170.728565 79.709408 
L 163.730522 78.909003 
L 158.232535 78.12309 
L 152.155815 77.03076 
L 145.595222 75.557306 
L 138.659542 73.641369 
L 131.468 71.234438 
L 124.146788 68.320926 
L 116.825575 64.940394 
L 109.634034 61.177502 
L 102.698353 57.131113 
L 96.137761 52.895359 
L 90.061041 48.554021 
L 84.563053 44.172474 
L 82.056064 41.978002 
L 79.721252 39.781583 
L 77.565011 37.580873 
L 75.592207 35.372529 
L 73.806076 33.15434 
L 72.208116 30.926921 
L 70.797971 28.694837 
L 69.573331 26.466712 
L 68.529817 24.253459 
L 67.660874 22.064568 
L 66.957664 19.901169 
L 66.408955 17.743779 
L 66.001013 15.52697 
L 65.717493 13.074352 
L 65.444633 17.284393 
L 65.403266 17.284393 
L 65.403266 17.284393 
" clip-path="url(#p36a96c0cfa)" style="fill: none; stroke: #6495ed; stroke-width: 3; stroke-linecap: square"/>
   </g>
   <g id="LineCollection_1">
    <path d="M 65.403266 17.284393 
L 65.403266 17.284393 
" clip-path="url(#p36a96c0cfa)" style="fill: none; stroke: #6495ed; stroke-width: 3"/>
    <path d="M 65.403266 17.284393 
L 65.40857 17.284393 
" clip-path="url(#p36a96c0cfa)" style="fill: none; stroke: #6495ec; stroke-width: 3"/>
    <path d="M 65.40857 17.284393 
L 65.444633 17.284393 
" clip-path="url(#p36a96c0cfa)" style="fill: none; stroke: #6594ec; stroke-width: 3"/>
    <path d="M 65.444633 17.284393 
L 65.539331 17.284393 
" clip-path="url(#p36a96c0cfa)" style="fill: none; stroke: #6594eb; stroke-width: 3"/>
    <path d="M 65.539331 17.284393 
L 65.717493 17.372283 
" clip-path="url(#p36a96c0cfa)" style="fill: none; stroke: #6594eb; stroke-width: 3"/>
    <path d="M 65.717493 17.372283 
L 66.001013 17.424571 
" clip-path="url(#p36a96c0cfa)" style="fill: none; stroke: #6693ea; stroke-width: 3"/>
    <path d="M 66.001013 17.424571 
L 66.408955 17.489191 
" clip-path="url(#p36a96c0cfa)" style="fill: none; stroke: #6693ea; stroke-width: 3"/>
    <path d="M 66.408955 17.489191 
L 66.957664 17.572123 
" clip-path="url(#p36a96c0cfa)" style="fill: none; stroke: #6693e9; stroke-width: 3"/>
    <path d="M 66.957664 17.572123 
L 67.660874 17.681917 
" clip-path="url(#p36a96c0cfa)" style="fill: none; stroke: #6792e9; stroke-width: 3"/>
    <path d="M 67.660874 17.681917 
L 68.529817 17.829452 
" clip-path="url(#p36a96c0cfa)" style="fill: none; stroke: #6792e8; stroke-width: 3"/>
    <path d="M 68.529817 17.829452 
L 69.573331 18.027608 
" clip-path="url(#p36a96c0cfa)" style="fill: none; stroke: #6892e8; stroke-width: 3"/>
    <path d="M 69.573331 18.027608 
L 70.797971 18.290939 
" clip-path="url(#p36a96c0cfa)" style="fill: none; stroke: #6891e7; stroke-width: 3"/>
    <path d="M 70.797971 18.290939 
L 72.208116 18.6354 
" clip-path="url(#p36a96c0cfa)" style="fill: none; stroke: #6891e7; stroke-width: 3"/>
    <path d="M 72.208116 18.6354 
L 73.806076 19.07799 
" clip-path="url(#p36a96c0cfa)" style="fill: none; stroke: #6991e6; stroke-width: 3"/>
    <path d="M 73.806076 19.07799 
L 75.592207 19.636585 
" clip-path="url(#p36a96c0cfa)" style="fill: none; stroke: #6990e5; stroke-width: 3"/>
    <path d="M 75.592207 19.636585 
L 77.565011 20.329902 
" clip-path="url(#p36a96c0cfa)" style="fill: none; stroke: #6990e5; stroke-width: 3"/>
    <path d="M 77.565011 20.329902 
L 79.721252 21.177468 
" clip-path="url(#p36a96c0cfa)" style="fill: none; stroke: #6a90e4; stroke-width: 3"/>
    <path d="M 79.721252 21.177468 
L 82.056064 22.199788 
" clip-path="url(#p36a96c0cfa)" style="fill: none; stroke: #6a8fe4; stroke-width: 3"/>
    <path d="M 82.056064 22.199788 
L 84.563053 23.418321 
" clip-path="url(#p36a96c0cfa)" style="fill: none; stroke: #6a8fe3; stroke-width: 3"/>
    <path d="M 84.563053 23.418321 
L 87.234416 24.855269 
" clip-path="url(#p36a96c0cfa)" style="fill: none; stroke: #6b8fe3; stroke-width: 3"/>
    <path d="M 87.234416 24.855269 
L 90.061041 26.533155 
" clip-path="url(#p36a96c0cfa)" style="fill: none; stroke: #6b8ee2; stroke-width: 3"/>
    <path d="M 90.061041 26.533155 
L 93.032621 28.473801 
" clip-path="url(#p36a96c0cfa)" style="fill: none; stroke: #6b8ee2; stroke-width: 3"/>
    <path d="M 93.032621 28.473801 
L 96.137761 30.697184 
" clip-path="url(#p36a96c0cfa)" style="fill: none; stroke: #6c8ee1; stroke-width: 3"/>
    <path d="M 96.137761 30.697184 
L 99.364086 33.220042 
" clip-path="url(#p36a96c0cfa)" style="fill: none; stroke: #6c8de1; stroke-width: 3"/>
    <path d="M 99.364086 33.220042 
L 102.698353 36.054313 
" clip-path="url(#p36a96c0cfa)" style="fill: none; stroke: #6c8de0; stroke-width: 3"/>
    <path d="M 102.698353 36.054313 
L 106.126555 39.205919 
" clip-path="url(#p36a96c0cfa)" style="fill: none; stroke: #6d8cdf; stroke-width: 3"/>
    <path d="M 106.126555 39.205919 
L 109.634034 42.673769 
" clip-path="url(#p36a96c0cfa)" style="fill: none; stroke: #6d8cdf; stroke-width: 3"/>
    <path d="M 109.634034 42.673769 
L 113.205587 46.449192 
" clip-path="url(#p36a96c0cfa)" style="fill: none; stroke: #6e8cde; stroke-width: 3"/>
    <path d="M 113.205587 46.449192 
L 116.825575 50.515861 
" clip-path="url(#p36a96c0cfa)" style="fill: none; stroke: #6e8bde; stroke-width: 3"/>
    <path d="M 116.825575 50.515861 
L 120.478036 54.849997 
" clip-path="url(#p36a96c0cfa)" style="fill: none; stroke: #6e8bdd; stroke-width: 3"/>
    <path d="M 120.478036 54.849997 
L 124.146788 59.420856 
" clip-path="url(#p36a96c0cfa)" style="fill: none; stroke: #6f8bdd; stroke-width: 3"/>
    <path d="M 124.146788 59.420856 
L 127.815539 64.191501 
" clip-path="url(#p36a96c0cfa)" style="fill: none; stroke: #6f8adc; stroke-width: 3"/>
    <path d="M 127.815539 64.191501 
L 131.468 69.119684 
" clip-path="url(#p36a96c0cfa)" style="fill: none; stroke: #6f8adc; stroke-width: 3"/>
    <path d="M 131.468 69.119684 
L 135.087989 74.158583 
" clip-path="url(#p36a96c0cfa)" style="fill: none; stroke: #708adb; stroke-width: 3"/>
    <path d="M 135.087989 74.158583 
L 138.659542 79.257537 
" clip-path="url(#p36a96c0cfa)" style="fill: none; stroke: #7089db; stroke-width: 3"/>
    <path d="M 138.659542 79.257537 
L 142.16702 84.362457 
" clip-path="url(#p36a96c0cfa)" style="fill: none; stroke: #7089da; stroke-width: 3"/>
    <path d="M 142.16702 84.362457 
L 145.595222 89.416278 
" clip-path="url(#p36a96c0cfa)" style="fill: none; stroke: #7189da; stroke-width: 3"/>
    <path d="M 145.595222 89.416278 
L 148.929489 94.360116 
" clip-path="url(#p36a96c0cfa)" style="fill: none; stroke: #7188d9; stroke-width: 3"/>
    <path d="M 148.929489 94.360116 
L 152.155815 99.13486 
" clip-path="url(#p36a96c0cfa)" style="fill: none; stroke: #7188d8; stroke-width: 3"/>
    <path d="M 152.155815 99.13486 
L 155.260955 103.683382 
" clip-path="url(#p36a96c0cfa)" style="fill: none; stroke: #7288d8; stroke-width: 3"/>
    <path d="M 155.260955 103.683382 
L 158.232535 107.953339 
" clip-path="url(#p36a96c0cfa)" style="fill: none; stroke: #7287d7; stroke-width: 3"/>
    <path d="M 158.232535 107.953339 
L 161.05916 111.899639 
" clip-path="url(#p36a96c0cfa)" style="fill: none; stroke: #7387d7; stroke-width: 3"/>
    <path d="M 161.05916 111.899639 
L 163.730522 115.486132 
" clip-path="url(#p36a96c0cfa)" style="fill: none; stroke: #7387d6; stroke-width: 3"/>
    <path d="M 163.730522 115.486132 
L 166.237512 118.686799 
" clip-path="url(#p36a96c0cfa)" style="fill: none; stroke: #7386d6; stroke-width: 3"/>
    <path d="M 166.237512 118.686799 
L 168.572323 121.486106 
" clip-path="url(#p36a96c0cfa)" style="fill: none; stroke: #7486d5; stroke-width: 3"/>
    <path d="M 168.572323 121.486106 
L 170.728565 123.878533 
" clip-path="url(#p36a96c0cfa)" style="fill: none; stroke: #7486d5; stroke-width: 3"/>
    <path d="M 170.728565 123.878533 
L 172.701369 125.868345 
" clip-path="url(#p36a96c0cfa)" style="fill: none; stroke: #7485d4; stroke-width: 3"/>
    <path d="M 172.701369 125.868345 
L 174.487499 127.468934 
" clip-path="url(#p36a96c0cfa)" style="fill: none; stroke: #7585d4; stroke-width: 3"/>
    <path d="M 174.487499 127.468934 
L 176.08546 128.70142 
" clip-path="url(#p36a96c0cfa)" style="fill: none; stroke: #7585d3; stroke-width: 3"/>
    <path d="M 176.08546 128.70142 
L 177.495604 129.593376 
" clip-path="url(#p36a96c0cfa)" style="fill: none; stroke: #7584d2; stroke-width: 3"/>
    <path d="M 177.495604 129.593376 
L 178.720245 130.17721 
" clip-path="url(#p36a96c0cfa)" style="fill: none; stroke: #7684d2; stroke-width: 3"/>
    <path d="M 178.720245 130.17721 
L 179.763759 130.487958 
" clip-path="url(#p36a96c0cfa)" style="fill: none; stroke: #7684d1; stroke-width: 3"/>
    <path d="M 179.763759 130.487958 
L 180.632702 130.561396 
" clip-path="url(#p36a96c0cfa)" style="fill: none; stroke: #7683d1; stroke-width: 3"/>
    <path d="M 180.632702 130.561396 
L 181.335911 130.432408 
" clip-path="url(#p36a96c0cfa)" style="fill: none; stroke: #7783d0; stroke-width: 3"/>
    <path d="M 181.335911 130.432408 
L 181.88462 130.133192 
" clip-path="url(#p36a96c0cfa)" style="fill: none; stroke: #7783d0; stroke-width: 3"/>
    <path d="M 181.88462 130.133192 
L 182.292562 129.69237 
" clip-path="url(#p36a96c0cfa)" style="fill: none; stroke: #7782cf; stroke-width: 3"/>
    <path d="M 182.292562 129.69237 
L 182.576082 129.134997 
" clip-path="url(#p36a96c0cfa)" style="fill: none; stroke: #7882cf; stroke-width: 3"/>
    <path d="M 182.576082 129.134997 
L 182.754245 128.482408 
" clip-path="url(#p36a96c0cfa)" style="fill: none; stroke: #7882ce; stroke-width: 3"/>
    <path d="M 182.754245 128.482408 
L 182.848942 127.752431 
" clip-path="url(#p36a96c0cfa)" style="fill: none; stroke: #7981ce; stroke-width: 3"/>
    <path d="M 182.848942 127.752431 
L 182.885005 126.960017 
" clip-path="url(#p36a96c0cfa)" style="fill: none; stroke: #7981cd; stroke-width: 3"/>
    <path d="M 182.885005 126.960017 
L 182.890309 126.117506 
" clip-path="url(#p36a96c0cfa)" style="fill: none; stroke: #7981cd; stroke-width: 3"/>
    <path d="M 182.890309 126.117506 
L 182.890309 125.239999 
" clip-path="url(#p36a96c0cfa)" style="fill: none; stroke: #7a80cc; stroke-width: 3"/>
    <path d="M 182.890309 125.239999 
L 182.890309 124.35685 
" clip-path="url(#p36a96c0cfa)" style="fill: none; stroke: #7a80cb; stroke-width: 3"/>
    <path d="M 182.890309 124.35685 
L 182.890309 123.481508 
" clip-path="url(#p36a96c0cfa)" style="fill: none; stroke: #7a80cb; stroke-width: 3"/>
    <path d="M 182.890309 123.481508 
L 182.890309 122.620133 
" clip-path="url(#p36a96c0cfa)" style="fill: none; stroke: #7b7fca; stroke-width: 3"/>
    <path d="M 182.890309 122.620133 
L 182.890309 121.776878 
" clip-path="url(#p36a96c0cfa)" style="fill: none; stroke: #7b7fca; stroke-width: 3"/>
    <path d="M 182.890309 121.776878 
L 182.890309 120.954589 
" clip-path="url(#p36a96c0cfa)" style="fill: none; stroke: #7b7fc9; stroke-width: 3"/>
    <path d="M 182.890309 120.954589 
L 182.890309 120.155385 
" clip-path="url(#p36a96c0cfa)" style="fill: none; stroke: #7c7ec9; stroke-width: 3"/>
    <path d="M 182.890309 120.155385 
L 182.890309 119.381714 
" clip-path="url(#p36a96c0cfa)" style="fill: none; stroke: #7c7ec8; stroke-width: 3"/>
    <path d="M 182.890309 119.381714 
L 182.890309 118.636801 
" clip-path="url(#p36a96c0cfa)" style="fill: none; stroke: #7c7ec8; stroke-width: 3"/>
    <path d="M 182.890309 118.636801 
L 182.890309 117.924048 
" clip-path="url(#p36a96c0cfa)" style="fill: none; stroke: #7d7dc7; stroke-width: 3"/>
    <path d="M 182.890309 117.924048 
L 182.890309 117.246833 
" clip-path="url(#p36a96c0cfa)" style="fill: none; stroke: #7d7dc7; stroke-width: 3"/>
    <path d="M 182.890309 117.246833 
L 182.890309 116.608133 
" clip-path="url(#p36a96c0cfa)" style="fill: none; stroke: #7d7dc6; stroke-width: 3"/>
    <path d="M 182.890309 116.608133 
L 182.890309 116.009301 
" clip-path="url(#p36a96c0cfa)" style="fill: none; stroke: #7e7cc6; stroke-width: 3"/>
    <path d="M 182.890309 116.009301 
L 182.890309 115.44948 
" clip-path="url(#p36a96c0cfa)" style="fill: none; stroke: #7e7cc5; stroke-width: 3"/>
    <path d="M 182.890309 115.44948 
L 182.890309 114.92555 
" clip-path="url(#p36a96c0cfa)" style="fill: none; stroke: #7f7bc4; stroke-width: 3"/>
    <path d="M 182.890309 114.92555 
L 182.890309 114.431897 
" clip-path="url(#p36a96c0cfa)" style="fill: none; stroke: #7f7bc4; stroke-width: 3"/>
    <path d="M 182.890309 114.431897 
L 182.890309 113.961041 
" clip-path="url(#p36a96c0cfa)" style="fill: none; stroke: #7f7bc3; stroke-width: 3"/>
    <path d="M 182.890309 113.961041 
L 182.890309 113.504666 
" clip-path="url(#p36a96c0cfa)" style="fill: none; stroke: #807ac3; stroke-width: 3"/>
    <path d="M 182.890309 113.504666 
L 182.890309 113.054252 
" clip-path="url(#p36a96c0cfa)" style="fill: none; stroke: #807ac2; stroke-width: 3"/>
    <path d="M 182.890309 113.054252 
L 182.890309 112.60215 
" clip-path="url(#p36a96c0cfa)" style="fill: none; stroke: #807ac2; stroke-width: 3"/>
    <path d="M 182.890309 112.60215 
L 182.890309 112.143069 
" clip-path="url(#p36a96c0cfa)" style="fill: none; stroke: #8179c1; stroke-width: 3"/>
    <path d="M 182.890309 112.143069 
L 182.890309 111.674945 
" clip-path="url(#p36a96c0cfa)" style="fill: none; stroke: #8179c1; stroke-width: 3"/>
    <path d="M 182.890309 111.674945 
L 182.890309 111.198937 
" clip-path="url(#p36a96c0cfa)" style="fill: none; stroke: #8179c0; stroke-width: 3"/>
    <path d="M 182.890309 111.198937 
L 182.890309 110.71908 
" clip-path="url(#p36a96c0cfa)" style="fill: none; stroke: #8278c0; stroke-width: 3"/>
    <path d="M 182.890309 110.71908 
L 182.890309 110.240848 
" clip-path="url(#p36a96c0cfa)" style="fill: none; stroke: #8278bf; stroke-width: 3"/>
    <path d="M 182.890309 110.240848 
L 182.890309 109.769104 
" clip-path="url(#p36a96c0cfa)" style="fill: none; stroke: #8278be; stroke-width: 3"/>
    <path d="M 182.890309 109.769104 
L 182.890309 109.307231 
" clip-path="url(#p36a96c0cfa)" style="fill: none; stroke: #8377be; stroke-width: 3"/>
    <path d="M 182.890309 109.307231 
L 182.890309 108.856689 
" clip-path="url(#p36a96c0cfa)" style="fill: none; stroke: #8377bd; stroke-width: 3"/>
    <path d="M 182.890309 108.856689 
L 182.890309 108.417023 
" clip-path="url(#p36a96c0cfa)" style="fill: none; stroke: #8377bd; stroke-width: 3"/>
    <path d="M 182.890309 108.417023 
L 182.890309 107.987035 
" clip-path="url(#p36a96c0cfa)" style="fill: none; stroke: #8476bc; stroke-width: 3"/>
    <path d="M 182.890309 107.987035 
L 182.890309 107.565667 
" clip-path="url(#p36a96c0cfa)" style="fill: none; stroke: #8476bc; stroke-width: 3"/>
    <path d="M 182.890309 107.565667 
L 182.890309 107.152082 
" clip-path="url(#p36a96c0cfa)" style="fill: none; stroke: #8576bb; stroke-width: 3"/>
    <path d="M 182.890309 107.152082 
L 182.890309 106.74585 
" clip-path="url(#p36a96c0cfa)" style="fill: none; stroke: #8575bb; stroke-width: 3"/>
    <path d="M 182.890309 106.74585 
L 182.890309 106.346814 
" clip-path="url(#p36a96c0cfa)" style="fill: none; stroke: #8575ba; stroke-width: 3"/>
    <path d="M 182.890309 106.346814 
L 182.890309 105.954218 
" clip-path="url(#p36a96c0cfa)" style="fill: none; stroke: #8675ba; stroke-width: 3"/>
    <path d="M 182.890309 105.954218 
L 182.890309 105.566276 
" clip-path="url(#p36a96c0cfa)" style="fill: none; stroke: #8674b9; stroke-width: 3"/>
    <path d="M 182.890309 105.566276 
L 182.890309 105.180219 
" clip-path="url(#p36a96c0cfa)" style="fill: none; stroke: #8674b9; stroke-width: 3"/>
    <path d="M 182.890309 105.180219 
L 182.890309 104.792333 
" clip-path="url(#p36a96c0cfa)" style="fill: none; stroke: #8774b8; stroke-width: 3"/>
    <path d="M 182.890309 104.792333 
L 182.890309 104.398716 
" clip-path="url(#p36a96c0cfa)" style="fill: none; stroke: #8773b7; stroke-width: 3"/>
    <path d="M 182.890309 104.398716 
L 182.890309 103.996499 
" clip-path="url(#p36a96c0cfa)" style="fill: none; stroke: #8773b7; stroke-width: 3"/>
    <path d="M 182.890309 103.996499 
L 182.890309 103.584761 
" clip-path="url(#p36a96c0cfa)" style="fill: none; stroke: #8873b6; stroke-width: 3"/>
    <path d="M 182.890309 103.584761 
L 182.890309 103.165341 
" clip-path="url(#p36a96c0cfa)" style="fill: none; stroke: #8872b6; stroke-width: 3"/>
    <path d="M 182.890309 103.165341 
L 182.890309 102.743493 
" clip-path="url(#p36a96c0cfa)" style="fill: none; stroke: #8872b5; stroke-width: 3"/>
    <path d="M 182.890309 102.743493 
L 182.890309 102.327493 
" clip-path="url(#p36a96c0cfa)" style="fill: none; stroke: #8972b5; stroke-width: 3"/>
    <path d="M 182.890309 102.327493 
L 182.890309 101.927102 
" clip-path="url(#p36a96c0cfa)" style="fill: none; stroke: #8971b4; stroke-width: 3"/>
    <path d="M 182.890309 101.927102 
L 182.890309 101.551915 
" clip-path="url(#p36a96c0cfa)" style="fill: none; stroke: #8a71b4; stroke-width: 3"/>
    <path d="M 182.890309 101.551915 
L 182.890309 101.209261 
" clip-path="url(#p36a96c0cfa)" style="fill: none; stroke: #8a71b3; stroke-width: 3"/>
    <path d="M 182.890309 101.209261 
L 182.890309 100.902126 
" clip-path="url(#p36a96c0cfa)" style="fill: none; stroke: #8a70b3; stroke-width: 3"/>
    <path d="M 182.890309 100.902126 
L 182.890309 100.628606 
" clip-path="url(#p36a96c0cfa)" style="fill: none; stroke: #8b70b2; stroke-width: 3"/>
    <path d="M 182.890309 100.628606 
L 182.890309 100.382047 
" clip-path="url(#p36a96c0cfa)" style="fill: none; stroke: #8b70b1; stroke-width: 3"/>
    <path d="M 182.890309 100.382047 
L 182.890309 100.151818 
" clip-path="url(#p36a96c0cfa)" style="fill: none; stroke: #8b6fb1; stroke-width: 3"/>
    <path d="M 182.890309 100.151818 
L 182.890309 99.925315 
" clip-path="url(#p36a96c0cfa)" style="fill: none; stroke: #8c6fb0; stroke-width: 3"/>
    <path d="M 182.890309 99.925315 
L 182.890309 99.689988 
" clip-path="url(#p36a96c0cfa)" style="fill: none; stroke: #8c6fb0; stroke-width: 3"/>
    <path d="M 182.890309 99.689988 
L 182.890309 99.435092 
" clip-path="url(#p36a96c0cfa)" style="fill: none; stroke: #8c6eaf; stroke-width: 3"/>
    <path d="M 182.890309 99.435092 
L 182.890309 99.153101 
" clip-path="url(#p36a96c0cfa)" style="fill: none; stroke: #8d6eaf; stroke-width: 3"/>
    <path d="M 182.890309 99.153101 
L 182.890309 98.840467 
" clip-path="url(#p36a96c0cfa)" style="fill: none; stroke: #8d6eae; stroke-width: 3"/>
    <path d="M 182.890309 98.840467 
L 182.890309 98.497435 
" clip-path="url(#p36a96c0cfa)" style="fill: none; stroke: #8d6dae; stroke-width: 3"/>
    <path d="M 182.890309 98.497435 
L 182.890309 98.127356 
" clip-path="url(#p36a96c0cfa)" style="fill: none; stroke: #8e6dad; stroke-width: 3"/>
    <path d="M 182.890309 98.127356 
L 182.890309 97.736315 
" clip-path="url(#p36a96c0cfa)" style="fill: none; stroke: #8e6dad; stroke-width: 3"/>
    <path d="M 182.890309 97.736315 
L 182.890309 97.332336 
" clip-path="url(#p36a96c0cfa)" style="fill: none; stroke: #8e6cac; stroke-width: 3"/>
    <path d="M 182.890309 97.332336 
L 182.890309 96.924659 
" clip-path="url(#p36a96c0cfa)" style="fill: none; stroke: #8f6cac; stroke-width: 3"/>
    <path d="M 182.890309 96.924659 
L 182.890309 96.523656 
" clip-path="url(#p36a96c0cfa)" style="fill: none; stroke: #8f6bab; stroke-width: 3"/>
    <path d="M 182.890309 96.523656 
L 182.890309 96.140147 
" clip-path="url(#p36a96c0cfa)" style="fill: none; stroke: #906baa; stroke-width: 3"/>
    <path d="M 182.890309 96.140147 
L 182.890309 95.784645 
" clip-path="url(#p36a96c0cfa)" style="fill: none; stroke: #906baa; stroke-width: 3"/>
    <path d="M 182.890309 95.784645 
L 182.890309 95.46696 
" clip-path="url(#p36a96c0cfa)" style="fill: none; stroke: #906aa9; stroke-width: 3"/>
    <path d="M 182.890309 95.46696 
L 182.890309 95.194924 
" clip-path="url(#p36a96c0cfa)" style="fill: none; stroke: #916aa9; stroke-width: 3"/>
    <path d="M 182.890309 95.194924 
L 182.890309 94.973084 
" clip-path="url(#p36a96c0cfa)" style="fill: none; stroke: #916aa8; stroke-width: 3"/>
    <path d="M 182.890309 94.973084 
L 182.890309 94.802395 
" clip-path="url(#p36a96c0cfa)" style="fill: none; stroke: #9169a8; stroke-width: 3"/>
    <path d="M 182.890309 94.802395 
L 182.890309 94.68019 
" clip-path="url(#p36a96c0cfa)" style="fill: none; stroke: #9269a7; stroke-width: 3"/>
    <path d="M 182.890309 94.68019 
L 182.890309 94.600631 
" clip-path="url(#p36a96c0cfa)" style="fill: none; stroke: #9269a7; stroke-width: 3"/>
    <path d="M 182.890309 94.600631 
L 182.890309 94.555716 
" clip-path="url(#p36a96c0cfa)" style="fill: none; stroke: #9268a6; stroke-width: 3"/>
    <path d="M 182.890309 94.555716 
L 182.890309 94.536021 
" clip-path="url(#p36a96c0cfa)" style="fill: none; stroke: #9368a6; stroke-width: 3"/>
    <path d="M 182.890309 94.536021 
L 182.890309 94.530988 
" clip-path="url(#p36a96c0cfa)" style="fill: none; stroke: #9368a5; stroke-width: 3"/>
    <path d="M 182.890309 94.530988 
L 182.890309 94.529125 
" clip-path="url(#p36a96c0cfa)" style="fill: none; stroke: #9367a4; stroke-width: 3"/>
    <path d="M 182.890309 94.529125 
L 182.890309 94.518107 
" clip-path="url(#p36a96c0cfa)" style="fill: none; stroke: #9467a4; stroke-width: 3"/>
    <path d="M 182.890309 94.518107 
L 182.890309 94.48481 
" clip-path="url(#p36a96c0cfa)" style="fill: none; stroke: #9467a3; stroke-width: 3"/>
    <path d="M 182.890309 94.48481 
L 182.890309 94.4163 
" clip-path="url(#p36a96c0cfa)" style="fill: none; stroke: #9466a3; stroke-width: 3"/>
    <path d="M 182.890309 94.4163 
L 182.890309 94.301645 
" clip-path="url(#p36a96c0cfa)" style="fill: none; stroke: #9566a2; stroke-width: 3"/>
    <path d="M 182.890309 94.301645 
L 182.890309 94.133653 
" clip-path="url(#p36a96c0cfa)" style="fill: none; stroke: #9566a2; stroke-width: 3"/>
    <path d="M 182.890309 94.133653 
L 182.890309 93.910216 
" clip-path="url(#p36a96c0cfa)" style="fill: none; stroke: #9665a1; stroke-width: 3"/>
    <path d="M 182.890309 93.910216 
L 182.890309 93.634719 
" clip-path="url(#p36a96c0cfa)" style="fill: none; stroke: #9665a1; stroke-width: 3"/>
    <path d="M 182.890309 93.634719 
L 182.890309 93.314877 
" clip-path="url(#p36a96c0cfa)" style="fill: none; stroke: #9665a0; stroke-width: 3"/>
    <path d="M 182.890309 93.314877 
L 182.890309 92.960686 
" clip-path="url(#p36a96c0cfa)" style="fill: none; stroke: #9764a0; stroke-width: 3"/>
    <path d="M 182.890309 92.960686 
L 182.890309 92.582865 
" clip-path="url(#p36a96c0cfa)" style="fill: none; stroke: #97649f; stroke-width: 3"/>
    <path d="M 182.890309 92.582865 
L 182.890309 92.191563 
" clip-path="url(#p36a96c0cfa)" style="fill: none; stroke: #97649f; stroke-width: 3"/>
    <path d="M 182.890309 92.191563 
L 182.890309 91.795922 
" clip-path="url(#p36a96c0cfa)" style="fill: none; stroke: #98639e; stroke-width: 3"/>
    <path d="M 182.890309 91.795922 
L 182.890309 91.404638 
" clip-path="url(#p36a96c0cfa)" style="fill: none; stroke: #98639d; stroke-width: 3"/>
    <path d="M 182.890309 91.404638 
L 182.890309 91.026064 
" clip-path="url(#p36a96c0cfa)" style="fill: none; stroke: #98639d; stroke-width: 3"/>
    <path d="M 182.890309 91.026064 
L 182.890309 90.667771 
" clip-path="url(#p36a96c0cfa)" style="fill: none; stroke: #99629c; stroke-width: 3"/>
    <path d="M 182.890309 90.667771 
L 182.890309 90.335791 
" clip-path="url(#p36a96c0cfa)" style="fill: none; stroke: #99629c; stroke-width: 3"/>
    <path d="M 182.890309 90.335791 
L 182.890309 90.033747 
" clip-path="url(#p36a96c0cfa)" style="fill: none; stroke: #99629b; stroke-width: 3"/>
    <path d="M 182.890309 90.033747 
L 182.890309 89.762109 
" clip-path="url(#p36a96c0cfa)" style="fill: none; stroke: #9a619b; stroke-width: 3"/>
    <path d="M 182.890309 89.762109 
L 182.890309 89.518528 
" clip-path="url(#p36a96c0cfa)" style="fill: none; stroke: #9a619a; stroke-width: 3"/>
    <path d="M 182.890309 89.518528 
L 182.890309 89.298959 
" clip-path="url(#p36a96c0cfa)" style="fill: none; stroke: #9a619a; stroke-width: 3"/>
    <path d="M 182.890309 89.298959 
L 182.890309 89.098857 
" clip-path="url(#p36a96c0cfa)" style="fill: none; stroke: #9b6099; stroke-width: 3"/>
    <path d="M 182.890309 89.098857 
L 182.890309 88.914784 
" clip-path="url(#p36a96c0cfa)" style="fill: none; stroke: #9b6099; stroke-width: 3"/>
    <path d="M 182.890309 88.914784 
L 182.890309 88.745302 
" clip-path="url(#p36a96c0cfa)" style="fill: none; stroke: #9c6098; stroke-width: 3"/>
    <path d="M 182.890309 88.745302 
L 182.890309 88.590717 
" clip-path="url(#p36a96c0cfa)" style="fill: none; stroke: #9c5f98; stroke-width: 3"/>
    <path d="M 182.890309 88.590717 
L 182.890309 88.452041 
" clip-path="url(#p36a96c0cfa)" style="fill: none; stroke: #9c5f97; stroke-width: 3"/>
    <path d="M 182.890309 88.452041 
L 182.890309 88.329638 
" clip-path="url(#p36a96c0cfa)" style="fill: none; stroke: #9d5f96; stroke-width: 3"/>
    <path d="M 182.890309 88.329638 
L 182.890309 88.222062 
" clip-path="url(#p36a96c0cfa)" style="fill: none; stroke: #9d5e96; stroke-width: 3"/>
    <path d="M 182.890309 88.222062 
L 182.890309 88.125486 
" clip-path="url(#p36a96c0cfa)" style="fill: none; stroke: #9d5e95; stroke-width: 3"/>
    <path d="M 182.890309 88.125486 
L 182.890309 88.034364 
" clip-path="url(#p36a96c0cfa)" style="fill: none; stroke: #9e5e95; stroke-width: 3"/>
    <path d="M 182.890309 88.034364 
L 182.890309 87.942137 
" clip-path="url(#p36a96c0cfa)" style="fill: none; stroke: #9e5d94; stroke-width: 3"/>
    <path d="M 182.890309 87.942137 
L 182.890309 87.842086 
" clip-path="url(#p36a96c0cfa)" style="fill: none; stroke: #9e5d94; stroke-width: 3"/>
    <path d="M 182.890309 87.842086 
L 182.890309 87.729114 
" clip-path="url(#p36a96c0cfa)" style="fill: none; stroke: #9f5d93; stroke-width: 3"/>
    <path d="M 182.890309 87.729114 
L 182.890309 87.60092 
" clip-path="url(#p36a96c0cfa)" style="fill: none; stroke: #9f5c93; stroke-width: 3"/>
    <path d="M 182.890309 87.60092 
L 182.890309 87.458724 
" clip-path="url(#p36a96c0cfa)" style="fill: none; stroke: #9f5c92; stroke-width: 3"/>
    <path d="M 182.890309 87.458724 
L 182.890309 87.307439 
" clip-path="url(#p36a96c0cfa)" style="fill: none; stroke: #a05c92; stroke-width: 3"/>
    <path d="M 182.890309 87.307439 
L 182.890309 87.154567 
" clip-path="url(#p36a96c0cfa)" style="fill: none; stroke: #a05b91; stroke-width: 3"/>
    <path d="M 182.890309 87.154567 
L 182.890309 87.00856 
" clip-path="url(#p36a96c0cfa)" style="fill: none; stroke: #a15b90; stroke-width: 3"/>
    <path d="M 182.890309 87.00856 
L 182.890309 86.877444 
" clip-path="url(#p36a96c0cfa)" style="fill: none; stroke: #a15a90; stroke-width: 3"/>
    <path d="M 182.890309 86.877444 
L 182.890309 86.767576 
" clip-path="url(#p36a96c0cfa)" style="fill: none; stroke: #a15a8f; stroke-width: 3"/>
    <path d="M 182.890309 86.767576 
L 182.890309 86.682191 
" clip-path="url(#p36a96c0cfa)" style="fill: none; stroke: #a25a8f; stroke-width: 3"/>
    <path d="M 182.890309 86.682191 
L 182.890309 86.620784 
" clip-path="url(#p36a96c0cfa)" style="fill: none; stroke: #a2598e; stroke-width: 3"/>
    <path d="M 182.890309 86.620784 
L 182.890309 86.579162 
" clip-path="url(#p36a96c0cfa)" style="fill: none; stroke: #a2598e; stroke-width: 3"/>
    <path d="M 182.890309 86.579162 
L 182.890309 86.550033 
" clip-path="url(#p36a96c0cfa)" style="fill: none; stroke: #a3598d; stroke-width: 3"/>
    <path d="M 182.890309 86.550033 
L 182.890309 86.524732 
" clip-path="url(#p36a96c0cfa)" style="fill: none; stroke: #a3588d; stroke-width: 3"/>
    <path d="M 182.890309 86.524732 
L 182.890309 86.494971 
" clip-path="url(#p36a96c0cfa)" style="fill: none; stroke: #a3588c; stroke-width: 3"/>
    <path d="M 182.890309 86.494971 
L 182.890309 86.454155 
" clip-path="url(#p36a96c0cfa)" style="fill: none; stroke: #a4588c; stroke-width: 3"/>
    <path d="M 182.890309 86.454155 
L 182.890309 86.39814 
" clip-path="url(#p36a96c0cfa)" style="fill: none; stroke: #a4578b; stroke-width: 3"/>
    <path d="M 182.890309 86.39814 
L 182.890309 86.325219 
" clip-path="url(#p36a96c0cfa)" style="fill: none; stroke: #a4578b; stroke-width: 3"/>
    <path d="M 182.890309 86.325219 
L 182.890309 86.235247 
" clip-path="url(#p36a96c0cfa)" style="fill: none; stroke: #a5578a; stroke-width: 3"/>
    <path d="M 182.890309 86.235247 
L 182.890309 86.128268 
" clip-path="url(#p36a96c0cfa)" style="fill: none; stroke: #a55689; stroke-width: 3"/>
    <path d="M 182.890309 86.128268 
L 182.890309 86.003801 
" clip-path="url(#p36a96c0cfa)" style="fill: none; stroke: #a55689; stroke-width: 3"/>
    <path d="M 182.890309 86.003801 
L 182.890309 85.86062 
" clip-path="url(#p36a96c0cfa)" style="fill: none; stroke: #a65688; stroke-width: 3"/>
    <path d="M 182.890309 85.86062 
L 182.890309 85.697118 
" clip-path="url(#p36a96c0cfa)" style="fill: none; stroke: #a65588; stroke-width: 3"/>
    <path d="M 182.890309 85.697118 
L 182.890309 85.512376 
" clip-path="url(#p36a96c0cfa)" style="fill: none; stroke: #a75587; stroke-width: 3"/>
    <path d="M 182.890309 85.512376 
L 182.890309 85.307016 
" clip-path="url(#p36a96c0cfa)" style="fill: none; stroke: #a75587; stroke-width: 3"/>
    <path d="M 182.890309 85.307016 
L 182.890309 85.083702 
" clip-path="url(#p36a96c0cfa)" style="fill: none; stroke: #a75486; stroke-width: 3"/>
    <path d="M 182.890309 85.083702 
L 182.890309 84.847349 
" clip-path="url(#p36a96c0cfa)" style="fill: none; stroke: #a85486; stroke-width: 3"/>
    <path d="M 182.890309 84.847349 
L 182.890309 84.604747 
" clip-path="url(#p36a96c0cfa)" style="fill: none; stroke: #a85485; stroke-width: 3"/>
    <path d="M 182.890309 84.604747 
L 182.890309 84.363342 
" clip-path="url(#p36a96c0cfa)" style="fill: none; stroke: #a85385; stroke-width: 3"/>
    <path d="M 182.890309 84.363342 
L 182.890309 84.130231 
" clip-path="url(#p36a96c0cfa)" style="fill: none; stroke: #a95384; stroke-width: 3"/>
    <path d="M 182.890309 84.130231 
L 182.890309 83.911376 
" clip-path="url(#p36a96c0cfa)" style="fill: none; stroke: #a95383; stroke-width: 3"/>
    <path d="M 182.890309 83.911376 
L 182.890309 83.710477 
" clip-path="url(#p36a96c0cfa)" style="fill: none; stroke: #a95283; stroke-width: 3"/>
    <path d="M 182.890309 83.710477 
L 182.890309 83.528896 
" clip-path="url(#p36a96c0cfa)" style="fill: none; stroke: #aa5282; stroke-width: 3"/>
    <path d="M 182.890309 83.528896 
L 182.890309 83.365973 
" clip-path="url(#p36a96c0cfa)" style="fill: none; stroke: #aa5282; stroke-width: 3"/>
    <path d="M 182.890309 83.365973 
L 182.890309 83.219391 
" clip-path="url(#p36a96c0cfa)" style="fill: none; stroke: #aa5181; stroke-width: 3"/>
    <path d="M 182.890309 83.219391 
L 182.890309 83.08657 
" clip-path="url(#p36a96c0cfa)" style="fill: none; stroke: #ab5181; stroke-width: 3"/>
    <path d="M 182.890309 83.08657 
L 182.890309 82.966105 
" clip-path="url(#p36a96c0cfa)" style="fill: none; stroke: #ab5180; stroke-width: 3"/>
    <path d="M 182.890309 82.966105 
L 182.890309 82.858794 
" clip-path="url(#p36a96c0cfa)" style="fill: none; stroke: #ab5080; stroke-width: 3"/>
    <path d="M 182.890309 82.858794 
L 182.890309 82.768225 
" clip-path="url(#p36a96c0cfa)" style="fill: none; stroke: #ac507f; stroke-width: 3"/>
    <path d="M 182.890309 82.768225 
L 182.890309 82.700542 
" clip-path="url(#p36a96c0cfa)" style="fill: none; stroke: #ac507f; stroke-width: 3"/>
    <path d="M 182.890309 82.700542 
L 182.890309 82.663002 
" clip-path="url(#p36a96c0cfa)" style="fill: none; stroke: #ad4f7e; stroke-width: 3"/>
    <path d="M 182.890309 82.663002 
L 182.890309 82.661805 
" clip-path="url(#p36a96c0cfa)" style="fill: none; stroke: #ad4f7e; stroke-width: 3"/>
    <path d="M 182.890309 82.661805 
L 182.890309 82.700556 
" clip-path="url(#p36a96c0cfa)" style="fill: none; stroke: #ad4f7d; stroke-width: 3"/>
    <path d="M 182.890309 82.700556 
L 182.890309 82.779413 
" clip-path="url(#p36a96c0cfa)" style="fill: none; stroke: #ae4e7c; stroke-width: 3"/>
    <path d="M 182.890309 82.779413 
L 182.890309 82.895202 
" clip-path="url(#p36a96c0cfa)" style="fill: none; stroke: #ae4e7c; stroke-width: 3"/>
    <path d="M 182.890309 82.895202 
L 182.890309 83.042454 
" clip-path="url(#p36a96c0cfa)" style="fill: none; stroke: #ae4e7b; stroke-width: 3"/>
    <path d="M 182.890309 83.042454 
L 182.890309 83.214111 
" clip-path="url(#p36a96c0cfa)" style="fill: none; stroke: #af4d7b; stroke-width: 3"/>
    <path d="M 182.890309 83.214111 
L 182.890309 83.401734 
" clip-path="url(#p36a96c0cfa)" style="fill: none; stroke: #af4d7a; stroke-width: 3"/>
    <path d="M 182.890309 83.401734 
L 182.890309 83.596031 
" clip-path="url(#p36a96c0cfa)" style="fill: none; stroke: #af4d7a; stroke-width: 3"/>
    <path d="M 182.890309 83.596031 
L 182.890309 83.787366 
" clip-path="url(#p36a96c0cfa)" style="fill: none; stroke: #b04c79; stroke-width: 3"/>
    <path d="M 182.890309 83.787366 
L 182.890309 83.965908 
" clip-path="url(#p36a96c0cfa)" style="fill: none; stroke: #b04c79; stroke-width: 3"/>
    <path d="M 182.890309 83.965908 
L 182.890309 84.122304 
" clip-path="url(#p36a96c0cfa)" style="fill: none; stroke: #b04c78; stroke-width: 3"/>
    <path d="M 182.890309 84.122304 
L 182.890309 84.248331 
" clip-path="url(#p36a96c0cfa)" style="fill: none; stroke: #b14b78; stroke-width: 3"/>
    <path d="M 182.890309 84.248331 
L 182.890309 84.337429 
" clip-path="url(#p36a96c0cfa)" style="fill: none; stroke: #b14b77; stroke-width: 3"/>
    <path d="M 182.890309 84.337429 
L 182.890309 84.385735 
" clip-path="url(#p36a96c0cfa)" style="fill: none; stroke: #b24a77; stroke-width: 3"/>
    <path d="M 182.890309 84.385735 
L 182.890309 84.392637 
" clip-path="url(#p36a96c0cfa)" style="fill: none; stroke: #b24a76; stroke-width: 3"/>
    <path d="M 182.890309 84.392637 
L 182.890309 84.36051 
" clip-path="url(#p36a96c0cfa)" style="fill: none; stroke: #b24a75; stroke-width: 3"/>
    <path d="M 182.890309 84.36051 
L 182.890309 84.293999 
" clip-path="url(#p36a96c0cfa)" style="fill: none; stroke: #b34975; stroke-width: 3"/>
    <path d="M 182.890309 84.293999 
L 182.890309 84.199004 
" clip-path="url(#p36a96c0cfa)" style="fill: none; stroke: #b34974; stroke-width: 3"/>
    <path d="M 182.890309 84.199004 
L 182.890309 84.081529 
" clip-path="url(#p36a96c0cfa)" style="fill: none; stroke: #b34974; stroke-width: 3"/>
    <path d="M 182.890309 84.081529 
L 182.890309 83.946664 
" clip-path="url(#p36a96c0cfa)" style="fill: none; stroke: #b44873; stroke-width: 3"/>
    <path d="M 182.890309 83.946664 
L 182.890309 83.798172 
" clip-path="url(#p36a96c0cfa)" style="fill: none; stroke: #b44873; stroke-width: 3"/>
    <path d="M 182.890309 83.798172 
L 182.890309 83.638552 
" clip-path="url(#p36a96c0cfa)" style="fill: none; stroke: #b44872; stroke-width: 3"/>
    <path d="M 182.890309 83.638552 
L 182.890309 83.469541 
" clip-path="url(#p36a96c0cfa)" style="fill: none; stroke: #b54772; stroke-width: 3"/>
    <path d="M 182.890309 83.469541 
L 182.890309 83.293248 
" clip-path="url(#p36a96c0cfa)" style="fill: none; stroke: #b54771; stroke-width: 3"/>
    <path d="M 182.890309 83.293248 
L 182.890309 83.112843 
" clip-path="url(#p36a96c0cfa)" style="fill: none; stroke: #b54771; stroke-width: 3"/>
    <path d="M 182.890309 83.112843 
L 182.890309 82.932422 
" clip-path="url(#p36a96c0cfa)" style="fill: none; stroke: #b64670; stroke-width: 3"/>
    <path d="M 182.890309 82.932422 
L 182.890309 82.756829 
" clip-path="url(#p36a96c0cfa)" style="fill: none; stroke: #b6466f; stroke-width: 3"/>
    <path d="M 182.890309 82.756829 
L 182.890309 82.591039 
" clip-path="url(#p36a96c0cfa)" style="fill: none; stroke: #b6466f; stroke-width: 3"/>
    <path d="M 182.890309 82.591039 
L 182.890309 82.439486 
" clip-path="url(#p36a96c0cfa)" style="fill: none; stroke: #b7456e; stroke-width: 3"/>
    <path d="M 182.890309 82.439486 
L 182.890309 82.306142 
" clip-path="url(#p36a96c0cfa)" style="fill: none; stroke: #b7456e; stroke-width: 3"/>
    <path d="M 182.890309 82.306142 
L 182.890309 82.194552 
" clip-path="url(#p36a96c0cfa)" style="fill: none; stroke: #b8456d; stroke-width: 3"/>
    <path d="M 182.890309 82.194552 
L 182.890309 82.107528 
" clip-path="url(#p36a96c0cfa)" style="fill: none; stroke: #b8446d; stroke-width: 3"/>
    <path d="M 182.890309 82.107528 
L 182.890309 82.047139 
" clip-path="url(#p36a96c0cfa)" style="fill: none; stroke: #b8446c; stroke-width: 3"/>
    <path d="M 182.890309 82.047139 
L 182.890309 82.014775 
" clip-path="url(#p36a96c0cfa)" style="fill: none; stroke: #b9446c; stroke-width: 3"/>
    <path d="M 182.890309 82.014775 
L 182.890309 82.010993 
" clip-path="url(#p36a96c0cfa)" style="fill: none; stroke: #b9436b; stroke-width: 3"/>
    <path d="M 182.890309 82.010993 
L 182.890309 82.035465 
" clip-path="url(#p36a96c0cfa)" style="fill: none; stroke: #b9436b; stroke-width: 3"/>
    <path d="M 182.890309 82.035465 
L 182.890309 82.086746 
" clip-path="url(#p36a96c0cfa)" style="fill: none; stroke: #ba436a; stroke-width: 3"/>
    <path d="M 182.890309 82.086746 
L 182.890309 82.161538 
" clip-path="url(#p36a96c0cfa)" style="fill: none; stroke: #ba426a; stroke-width: 3"/>
    <path d="M 182.890309 82.161538 
L 182.890309 82.254368 
" clip-path="url(#p36a96c0cfa)" style="fill: none; stroke: #ba4269; stroke-width: 3"/>
    <path d="M 182.890309 82.254368 
L 182.890309 82.358082 
" clip-path="url(#p36a96c0cfa)" style="fill: none; stroke: #bb4268; stroke-width: 3"/>
    <path d="M 182.890309 82.358082 
L 182.890309 82.464428 
" clip-path="url(#p36a96c0cfa)" style="fill: none; stroke: #bb4168; stroke-width: 3"/>
    <path d="M 182.890309 82.464428 
L 182.890309 82.564899 
" clip-path="url(#p36a96c0cfa)" style="fill: none; stroke: #bb4167; stroke-width: 3"/>
    <path d="M 182.890309 82.564899 
L 182.890309 82.65182 
" clip-path="url(#p36a96c0cfa)" style="fill: none; stroke: #bc4167; stroke-width: 3"/>
    <path d="M 182.890309 82.65182 
L 182.890309 82.718931 
" clip-path="url(#p36a96c0cfa)" style="fill: none; stroke: #bc4066; stroke-width: 3"/>
    <path d="M 182.890309 82.718931 
L 182.890309 82.762029 
" clip-path="url(#p36a96c0cfa)" style="fill: none; stroke: #bc4066; stroke-width: 3"/>
    <path d="M 182.890309 82.762029 
L 182.890309 82.779743 
" clip-path="url(#p36a96c0cfa)" style="fill: none; stroke: #bd4065; stroke-width: 3"/>
    <path d="M 182.890309 82.779743 
L 182.890309 82.773943 
" clip-path="url(#p36a96c0cfa)" style="fill: none; stroke: #bd3f65; stroke-width: 3"/>
    <path d="M 182.890309 82.773943 
L 182.890309 82.74966 
" clip-path="url(#p36a96c0cfa)" style="fill: none; stroke: #be3f64; stroke-width: 3"/>
    <path d="M 182.890309 82.74966 
L 182.890309 82.71441 
" clip-path="url(#p36a96c0cfa)" style="fill: none; stroke: #be3f64; stroke-width: 3"/>
    <path d="M 182.890309 82.71441 
L 182.890309 82.676779 
" clip-path="url(#p36a96c0cfa)" style="fill: none; stroke: #be3e63; stroke-width: 3"/>
    <path d="M 182.890309 82.676779 
L 182.890309 82.644152 
" clip-path="url(#p36a96c0cfa)" style="fill: none; stroke: #bf3e62; stroke-width: 3"/>
    <path d="M 182.890309 82.644152 
L 182.890309 82.620973 
" clip-path="url(#p36a96c0cfa)" style="fill: none; stroke: #bf3e62; stroke-width: 3"/>
    <path d="M 182.890309 82.620973 
L 182.890309 82.607842 
" clip-path="url(#p36a96c0cfa)" style="fill: none; stroke: #bf3d61; stroke-width: 3"/>
    <path d="M 182.890309 82.607842 
L 182.890309 82.601372 
" clip-path="url(#p36a96c0cfa)" style="fill: none; stroke: #c03d61; stroke-width: 3"/>
    <path d="M 182.890309 82.601372 
L 182.890309 82.595701 
" clip-path="url(#p36a96c0cfa)" style="fill: none; stroke: #c03d60; stroke-width: 3"/>
    <path d="M 182.890309 82.595701 
L 182.890309 82.584432 
" clip-path="url(#p36a96c0cfa)" style="fill: none; stroke: #c03c60; stroke-width: 3"/>
    <path d="M 182.890309 82.584432 
L 182.890309 82.562424 
" clip-path="url(#p36a96c0cfa)" style="fill: none; stroke: #c13c5f; stroke-width: 3"/>
    <path d="M 182.890309 82.562424 
L 182.890309 82.527247 
" clip-path="url(#p36a96c0cfa)" style="fill: none; stroke: #c13c5f; stroke-width: 3"/>
    <path d="M 182.890309 82.527247 
L 182.890309 82.479805 
" clip-path="url(#p36a96c0cfa)" style="fill: none; stroke: #c13b5e; stroke-width: 3"/>
    <path d="M 182.890309 82.479805 
L 182.890309 82.424323 
" clip-path="url(#p36a96c0cfa)" style="fill: none; stroke: #c23b5e; stroke-width: 3"/>
    <path d="M 182.890309 82.424323 
L 182.890309 82.367358 
" clip-path="url(#p36a96c0cfa)" style="fill: none; stroke: #c23b5d; stroke-width: 3"/>
    <path d="M 182.890309 82.367358 
L 182.890309 82.316503 
" clip-path="url(#p36a96c0cfa)" style="fill: none; stroke: #c23a5d; stroke-width: 3"/>
    <path d="M 182.890309 82.316503 
L 182.890309 82.278493 
" clip-path="url(#p36a96c0cfa)" style="fill: none; stroke: #c33a5c; stroke-width: 3"/>
    <path d="M 182.890309 82.278493 
L 182.890309 82.257225 
" clip-path="url(#p36a96c0cfa)" style="fill: none; stroke: #c3395b; stroke-width: 3"/>
    <path d="M 182.890309 82.257225 
L 182.890309 82.253251 
" clip-path="url(#p36a96c0cfa)" style="fill: none; stroke: #c4395b; stroke-width: 3"/>
    <path d="M 182.890309 82.253251 
L 182.890309 82.26388 
" clip-path="url(#p36a96c0cfa)" style="fill: none; stroke: #c4395a; stroke-width: 3"/>
    <path d="M 182.890309 82.26388 
L 182.890309 82.284091 
" clip-path="url(#p36a96c0cfa)" style="fill: none; stroke: #c4385a; stroke-width: 3"/>
    <path d="M 182.890309 82.284091 
L 182.890309 82.30812 
" clip-path="url(#p36a96c0cfa)" style="fill: none; stroke: #c53859; stroke-width: 3"/>
    <path d="M 182.890309 82.30812 
L 182.890309 82.330387 
" clip-path="url(#p36a96c0cfa)" style="fill: none; stroke: #c53859; stroke-width: 3"/>
    <path d="M 182.890309 82.330387 
L 182.890309 82.345867 
" clip-path="url(#p36a96c0cfa)" style="fill: none; stroke: #c53758; stroke-width: 3"/>
    <path d="M 182.890309 82.345867 
L 182.890309 82.350282 
" clip-path="url(#p36a96c0cfa)" style="fill: none; stroke: #c63758; stroke-width: 3"/>
    <path d="M 182.890309 82.350282 
L 182.890309 82.339899 
" clip-path="url(#p36a96c0cfa)" style="fill: none; stroke: #c63757; stroke-width: 3"/>
    <path d="M 182.890309 82.339899 
L 182.890309 82.311089 
" clip-path="url(#p36a96c0cfa)" style="fill: none; stroke: #c63657; stroke-width: 3"/>
    <path d="M 182.890309 82.311089 
L 182.890309 82.260545 
" clip-path="url(#p36a96c0cfa)" style="fill: none; stroke: #c73656; stroke-width: 3"/>
    <path d="M 182.890309 82.260545 
L 182.890309 82.186005 
" clip-path="url(#p36a96c0cfa)" style="fill: none; stroke: #c73655; stroke-width: 3"/>
    <path d="M 182.890309 82.186005 
L 182.890309 82.086974 
" clip-path="url(#p36a96c0cfa)" style="fill: none; stroke: #c73555; stroke-width: 3"/>
    <path d="M 182.890309 82.086974 
L 182.890309 81.965505 
" clip-path="url(#p36a96c0cfa)" style="fill: none; stroke: #c83554; stroke-width: 3"/>
    <path d="M 182.890309 81.965505 
L 182.890309 81.826415 
" clip-path="url(#p36a96c0cfa)" style="fill: none; stroke: #c83554; stroke-width: 3"/>
    <path d="M 182.890309 81.826415 
L 182.890309 81.676724 
" clip-path="url(#p36a96c0cfa)" style="fill: none; stroke: #c93453; stroke-width: 3"/>
    <path d="M 182.890309 81.676724 
L 182.890309 81.524778 
" clip-path="url(#p36a96c0cfa)" style="fill: none; stroke: #c93453; stroke-width: 3"/>
    <path d="M 182.890309 81.524778 
L 182.890309 81.379238 
" clip-path="url(#p36a96c0cfa)" style="fill: none; stroke: #c93452; stroke-width: 3"/>
    <path d="M 182.890309 81.379238 
L 182.890309 81.247759 
" clip-path="url(#p36a96c0cfa)" style="fill: none; stroke: #ca3352; stroke-width: 3"/>
    <path d="M 182.890309 81.247759 
L 182.890309 81.135681 
" clip-path="url(#p36a96c0cfa)" style="fill: none; stroke: #ca3351; stroke-width: 3"/>
    <path d="M 182.890309 81.135681 
L 182.890309 81.045417 
" clip-path="url(#p36a96c0cfa)" style="fill: none; stroke: #ca3351; stroke-width: 3"/>
    <path d="M 182.890309 81.045417 
L 182.890309 80.976076 
" clip-path="url(#p36a96c0cfa)" style="fill: none; stroke: #cb3250; stroke-width: 3"/>
    <path d="M 182.890309 80.976076 
L 182.890309 80.923615 
" clip-path="url(#p36a96c0cfa)" style="fill: none; stroke: #cb3250; stroke-width: 3"/>
    <path d="M 182.890309 80.923615 
L 182.890309 80.88201 
" clip-path="url(#p36a96c0cfa)" style="fill: none; stroke: #cb324f; stroke-width: 3"/>
    <path d="M 182.890309 80.88201 
L 182.890309 80.844338 
" clip-path="url(#p36a96c0cfa)" style="fill: none; stroke: #cc314e; stroke-width: 3"/>
    <path d="M 182.890309 80.844338 
L 182.890309 80.803949 
" clip-path="url(#p36a96c0cfa)" style="fill: none; stroke: #cc314e; stroke-width: 3"/>
    <path d="M 182.890309 80.803949 
L 182.890309 80.75587 
" clip-path="url(#p36a96c0cfa)" style="fill: none; stroke: #cc314d; stroke-width: 3"/>
    <path d="M 182.890309 80.75587 
L 182.890309 80.697722 
" clip-path="url(#p36a96c0cfa)" style="fill: none; stroke: #cd304d; stroke-width: 3"/>
    <path d="M 182.890309 80.697722 
L 182.890309 80.63022 
" clip-path="url(#p36a96c0cfa)" style="fill: none; stroke: #cd304c; stroke-width: 3"/>
    <path d="M 182.890309 80.63022 
L 182.890309 80.557077 
" clip-path="url(#p36a96c0cfa)" style="fill: none; stroke: #cd304c; stroke-width: 3"/>
    <path d="M 182.890309 80.557077 
L 182.890309 80.484227 
" clip-path="url(#p36a96c0cfa)" style="fill: none; stroke: #ce2f4b; stroke-width: 3"/>
    <path d="M 182.890309 80.484227 
L 182.890309 80.418227 
" clip-path="url(#p36a96c0cfa)" style="fill: none; stroke: #ce2f4b; stroke-width: 3"/>
    <path d="M 182.890309 80.418227 
L 182.890309 80.364577 
" clip-path="url(#p36a96c0cfa)" style="fill: none; stroke: #cf2f4a; stroke-width: 3"/>
    <path d="M 182.890309 80.364577 
L 182.890309 80.326539 
" clip-path="url(#p36a96c0cfa)" style="fill: none; stroke: #cf2e4a; stroke-width: 3"/>
    <path d="M 182.890309 80.326539 
L 182.890309 80.304188 
" clip-path="url(#p36a96c0cfa)" style="fill: none; stroke: #cf2e49; stroke-width: 3"/>
    <path d="M 182.890309 80.304188 
L 182.890309 80.294501 
" clip-path="url(#p36a96c0cfa)" style="fill: none; stroke: #d02e49; stroke-width: 3"/>
    <path d="M 182.890309 80.294501 
L 182.890309 80.292499 
" clip-path="url(#p36a96c0cfa)" style="fill: none; stroke: #d02d48; stroke-width: 3"/>
    <path d="M 182.890309 80.292499 
L 182.890309 80.292435 
" clip-path="url(#p36a96c0cfa)" style="fill: none; stroke: #d02d47; stroke-width: 3"/>
    <path d="M 182.890309 80.292435 
L 182.890309 80.289291 
" clip-path="url(#p36a96c0cfa)" style="fill: none; stroke: #d12d47; stroke-width: 3"/>
    <path d="M 182.890309 80.289291 
L 182.890309 80.28006 
" clip-path="url(#p36a96c0cfa)" style="fill: none; stroke: #d12c46; stroke-width: 3"/>
    <path d="M 182.890309 80.28006 
L 182.890309 80.26381 
" clip-path="url(#p36a96c0cfa)" style="fill: none; stroke: #d12c46; stroke-width: 3"/>
    <path d="M 182.890309 80.26381 
L 182.890309 80.241271 
" clip-path="url(#p36a96c0cfa)" style="fill: none; stroke: #d22c45; stroke-width: 3"/>
    <path d="M 182.890309 80.241271 
L 182.890309 80.214286 
" clip-path="url(#p36a96c0cfa)" style="fill: none; stroke: #d22b45; stroke-width: 3"/>
    <path d="M 182.890309 80.214286 
L 182.890309 80.184987 
" clip-path="url(#p36a96c0cfa)" style="fill: none; stroke: #d22b44; stroke-width: 3"/>
    <path d="M 182.890309 80.184987 
L 182.890309 80.155244 
" clip-path="url(#p36a96c0cfa)" style="fill: none; stroke: #d32b44; stroke-width: 3"/>
    <path d="M 182.890309 80.155244 
L 182.890309 80.126674 
" clip-path="url(#p36a96c0cfa)" style="fill: none; stroke: #d32a43; stroke-width: 3"/>
    <path d="M 182.890309 80.126674 
L 182.890309 80.100898 
" clip-path="url(#p36a96c0cfa)" style="fill: none; stroke: #d32a43; stroke-width: 3"/>
    <path d="M 182.890309 80.100898 
L 182.890309 80.079858 
" clip-path="url(#p36a96c0cfa)" style="fill: none; stroke: #d42a42; stroke-width: 3"/>
    <path d="M 182.890309 80.079858 
L 182.890309 80.06617 
" clip-path="url(#p36a96c0cfa)" style="fill: none; stroke: #d42941; stroke-width: 3"/>
    <path d="M 182.890309 80.06617 
L 182.890309 80.063134 
" clip-path="url(#p36a96c0cfa)" style="fill: none; stroke: #d52941; stroke-width: 3"/>
    <path d="M 182.890309 80.063134 
L 182.890309 80.074097 
" clip-path="url(#p36a96c0cfa)" style="fill: none; stroke: #d52840; stroke-width: 3"/>
    <path d="M 182.890309 80.074097 
L 182.890309 80.101867 
" clip-path="url(#p36a96c0cfa)" style="fill: none; stroke: #d52840; stroke-width: 3"/>
    <path d="M 182.890309 80.101867 
L 182.890309 80.148135 
" clip-path="url(#p36a96c0cfa)" style="fill: none; stroke: #d6283f; stroke-width: 3"/>
    <path d="M 182.890309 80.148135 
L 182.890309 80.21272 
" clip-path="url(#p36a96c0cfa)" style="fill: none; stroke: #d6273f; stroke-width: 3"/>
    <path d="M 182.890309 80.21272 
L 182.890309 80.293632 
" clip-path="url(#p36a96c0cfa)" style="fill: none; stroke: #d6273e; stroke-width: 3"/>
    <path d="M 182.890309 80.293632 
L 182.890309 80.387717 
" clip-path="url(#p36a96c0cfa)" style="fill: none; stroke: #d7273e; stroke-width: 3"/>
    <path d="M 182.890309 80.387717 
L 182.890309 80.491062 
" clip-path="url(#p36a96c0cfa)" style="fill: none; stroke: #d7263d; stroke-width: 3"/>
    <path d="M 182.890309 80.491062 
L 182.890309 80.599481 
" clip-path="url(#p36a96c0cfa)" style="fill: none; stroke: #d7263d; stroke-width: 3"/>
    <path d="M 182.890309 80.599481 
L 182.890309 80.7087 
" clip-path="url(#p36a96c0cfa)" style="fill: none; stroke: #d8263c; stroke-width: 3"/>
    <path d="M 182.890309 80.7087 
L 182.890309 80.813939 
" clip-path="url(#p36a96c0cfa)" style="fill: none; stroke: #d8253c; stroke-width: 3"/>
    <path d="M 182.890309 80.813939 
L 182.890309 80.909942 
" clip-path="url(#p36a96c0cfa)" style="fill: none; stroke: #d8253b; stroke-width: 3"/>
    <path d="M 182.890309 80.909942 
L 182.890309 80.991814 
" clip-path="url(#p36a96c0cfa)" style="fill: none; stroke: #d9253a; stroke-width: 3"/>
    <path d="M 182.890309 80.991814 
L 182.890309 81.056067 
" clip-path="url(#p36a96c0cfa)" style="fill: none; stroke: #d9243a; stroke-width: 3"/>
    <path d="M 182.890309 81.056067 
L 182.890309 81.10163 
" clip-path="url(#p36a96c0cfa)" style="fill: none; stroke: #d92439; stroke-width: 3"/>
    <path d="M 182.890309 81.10163 
L 182.890309 81.130337 
" clip-path="url(#p36a96c0cfa)" style="fill: none; stroke: #da2439; stroke-width: 3"/>
    <path d="M 182.890309 81.130337 
L 182.890309 81.14622 
" clip-path="url(#p36a96c0cfa)" style="fill: none; stroke: #da2338; stroke-width: 3"/>
    <path d="M 182.890309 81.14622 
L 182.890309 81.153898 
" clip-path="url(#p36a96c0cfa)" style="fill: none; stroke: #db2338; stroke-width: 3"/>
    <path d="M 182.890309 81.153898 
L 182.890309 81.157225 
" clip-path="url(#p36a96c0cfa)" style="fill: none; stroke: #db2337; stroke-width: 3"/>
    <path d="M 182.890309 81.157225 
L 182.890309 81.158271 
" clip-path="url(#p36a96c0cfa)" style="fill: none; stroke: #db2237; stroke-width: 3"/>
    <path d="M 182.890309 81.158271 
L 182.890309 81.156932 
" clip-path="url(#p36a96c0cfa)" style="fill: none; stroke: #dc2236; stroke-width: 3"/>
    <path d="M 182.890309 81.156932 
L 182.890309 81.151907 
" clip-path="url(#p36a96c0cfa)" style="fill: none; stroke: #dc2236; stroke-width: 3"/>
    <path d="M 182.890309 81.151907 
L 182.890309 81.142222 
" clip-path="url(#p36a96c0cfa)" style="fill: none; stroke: #dc2135; stroke-width: 3"/>
    <path d="M 182.890309 81.142222 
L 182.890309 81.1285 
" clip-path="url(#p36a96c0cfa)" style="fill: none; stroke: #dd2134; stroke-width: 3"/>
    <path d="M 182.890309 81.1285 
L 182.890309 81.113479 
" clip-path="url(#p36a96c0cfa)" style="fill: none; stroke: #dd2134; stroke-width: 3"/>
    <path d="M 182.890309 81.113479 
L 182.890309 81.101108 
" clip-path="url(#p36a96c0cfa)" style="fill: none; stroke: #dd2033; stroke-width: 3"/>
    <path d="M 182.890309 81.101108 
L 182.890309 81.094236 
" clip-path="url(#p36a96c0cfa)" style="fill: none; stroke: #de2033; stroke-width: 3"/>
    <path d="M 182.890309 81.094236 
L 182.890309 81.09273 
" clip-path="url(#p36a96c0cfa)" style="fill: none; stroke: #de2032; stroke-width: 3"/>
    <path d="M 182.890309 81.09273 
L 182.890309 81.093052 
" clip-path="url(#p36a96c0cfa)" style="fill: none; stroke: #de1f32; stroke-width: 3"/>
    <path d="M 182.890309 81.093052 
L 182.890309 81.088999 
" clip-path="url(#p36a96c0cfa)" style="fill: none; stroke: #df1f31; stroke-width: 3"/>
    <path d="M 182.890309 81.088999 
L 182.890309 81.074035 
" clip-path="url(#p36a96c0cfa)" style="fill: none; stroke: #df1f31; stroke-width: 3"/>
    <path d="M 182.890309 81.074035 
L 182.890309 81.043774 
" clip-path="url(#p36a96c0cfa)" style="fill: none; stroke: #e01e30; stroke-width: 3"/>
    <path d="M 182.890309 81.043774 
L 182.890309 80.997452 
" clip-path="url(#p36a96c0cfa)" style="fill: none; stroke: #e01e30; stroke-width: 3"/>
    <path d="M 182.890309 80.997452 
L 182.890309 80.938325 
" clip-path="url(#p36a96c0cfa)" style="fill: none; stroke: #e01e2f; stroke-width: 3"/>
    <path d="M 182.890309 80.938325 
L 182.890309 80.872715 
" clip-path="url(#p36a96c0cfa)" style="fill: none; stroke: #e11d2f; stroke-width: 3"/>
    <path d="M 182.890309 80.872715 
L 182.890309 80.808305 
" clip-path="url(#p36a96c0cfa)" style="fill: none; stroke: #e11d2e; stroke-width: 3"/>
    <path d="M 182.890309 80.808305 
L 182.890309 80.752153 
" clip-path="url(#p36a96c0cfa)" style="fill: none; stroke: #e11d2d; stroke-width: 3"/>
    <path d="M 182.890309 80.752153 
L 182.890309 80.709377 
" clip-path="url(#p36a96c0cfa)" style="fill: none; stroke: #e21c2d; stroke-width: 3"/>
    <path d="M 182.890309 80.709377 
L 182.890309 80.682718 
" clip-path="url(#p36a96c0cfa)" style="fill: none; stroke: #e21c2c; stroke-width: 3"/>
    <path d="M 182.890309 80.682718 
L 182.890309 80.672389 
" clip-path="url(#p36a96c0cfa)" style="fill: none; stroke: #e21c2c; stroke-width: 3"/>
    <path d="M 182.890309 80.672389 
L 182.890309 80.676533 
" clip-path="url(#p36a96c0cfa)" style="fill: none; stroke: #e31b2b; stroke-width: 3"/>
    <path d="M 182.890309 80.676533 
L 182.890309 80.691462 
" clip-path="url(#p36a96c0cfa)" style="fill: none; stroke: #e31b2b; stroke-width: 3"/>
    <path d="M 182.890309 80.691462 
L 182.890309 80.711693 
" clip-path="url(#p36a96c0cfa)" style="fill: none; stroke: #e31b2a; stroke-width: 3"/>
    <path d="M 182.890309 80.711693 
L 182.890309 80.730828 
" clip-path="url(#p36a96c0cfa)" style="fill: none; stroke: #e41a2a; stroke-width: 3"/>
    <path d="M 182.890309 80.730828 
L 182.890309 80.742986 
" clip-path="url(#p36a96c0cfa)" style="fill: none; stroke: #e41a29; stroke-width: 3"/>
    <path d="M 182.890309 80.742986 
L 182.890309 80.744236 
" clip-path="url(#p36a96c0cfa)" style="fill: none; stroke: #e41a29; stroke-width: 3"/>
    <path d="M 182.890309 80.744236 
L 182.890309 80.733695 
" clip-path="url(#p36a96c0cfa)" style="fill: none; stroke: #e51928; stroke-width: 3"/>
    <path d="M 182.890309 80.733695 
L 182.890309 80.713703 
" clip-path="url(#p36a96c0cfa)" style="fill: none; stroke: #e51928; stroke-width: 3"/>
    <path d="M 182.890309 80.713703 
L 182.890309 80.68843 
" clip-path="url(#p36a96c0cfa)" style="fill: none; stroke: #e61827; stroke-width: 3"/>
    <path d="M 182.890309 80.68843 
L 182.890309 80.662299 
" clip-path="url(#p36a96c0cfa)" style="fill: none; stroke: #e61826; stroke-width: 3"/>
    <path d="M 182.890309 80.662299 
L 182.890309 80.639032 
" clip-path="url(#p36a96c0cfa)" style="fill: none; stroke: #e61826; stroke-width: 3"/>
    <path d="M 182.890309 80.639032 
L 182.890309 80.620737 
" clip-path="url(#p36a96c0cfa)" style="fill: none; stroke: #e71725; stroke-width: 3"/>
    <path d="M 182.890309 80.620737 
L 182.890309 80.60819 
" clip-path="url(#p36a96c0cfa)" style="fill: none; stroke: #e71725; stroke-width: 3"/>
    <path d="M 182.890309 80.60819 
L 182.890309 80.601715 
" clip-path="url(#p36a96c0cfa)" style="fill: none; stroke: #e71724; stroke-width: 3"/>
    <path d="M 182.890309 80.601715 
L 182.890309 80.601534 
" clip-path="url(#p36a96c0cfa)" style="fill: none; stroke: #e81624; stroke-width: 3"/>
    <path d="M 182.890309 80.601534 
L 182.890309 80.608203 
" clip-path="url(#p36a96c0cfa)" style="fill: none; stroke: #e81623; stroke-width: 3"/>
    <path d="M 182.890309 80.608203 
L 182.890309 80.622717 
" clip-path="url(#p36a96c0cfa)" style="fill: none; stroke: #e81623; stroke-width: 3"/>
    <path d="M 182.890309 80.622717 
L 182.890309 80.646318 
" clip-path="url(#p36a96c0cfa)" style="fill: none; stroke: #e91522; stroke-width: 3"/>
    <path d="M 182.890309 80.646318 
L 182.890309 80.680044 
" clip-path="url(#p36a96c0cfa)" style="fill: none; stroke: #e91522; stroke-width: 3"/>
    <path d="M 182.890309 80.680044 
L 182.890309 80.724093 
" clip-path="url(#p36a96c0cfa)" style="fill: none; stroke: #e91521; stroke-width: 3"/>
    <path d="M 182.890309 80.724093 
L 182.890309 80.77721 
" clip-path="url(#p36a96c0cfa)" style="fill: none; stroke: #ea1420; stroke-width: 3"/>
    <path d="M 182.890309 80.77721 
L 182.890309 80.835928 
" clip-path="url(#p36a96c0cfa)" style="fill: none; stroke: #ea1420; stroke-width: 3"/>
    <path d="M 182.890309 80.835928 
L 182.890309 80.89456 
" clip-path="url(#p36a96c0cfa)" style="fill: none; stroke: #ea141f; stroke-width: 3"/>
    <path d="M 182.890309 80.89456 
L 182.885005 80.948592 
" clip-path="url(#p36a96c0cfa)" style="fill: none; stroke: #eb131f; stroke-width: 3"/>
    <path d="M 182.885005 80.948592 
L 182.848942 81.000481 
" clip-path="url(#p36a96c0cfa)" style="fill: none; stroke: #eb131e; stroke-width: 3"/>
    <path d="M 182.848942 81.000481 
L 182.754245 81.043233 
" clip-path="url(#p36a96c0cfa)" style="fill: none; stroke: #ec131e; stroke-width: 3"/>
    <path d="M 182.754245 81.043233 
L 182.576082 81.068022 
" clip-path="url(#p36a96c0cfa)" style="fill: none; stroke: #ec121d; stroke-width: 3"/>
    <path d="M 182.576082 81.068022 
L 182.292562 81.067852 
" clip-path="url(#p36a96c0cfa)" style="fill: none; stroke: #ec121d; stroke-width: 3"/>
    <path d="M 182.292562 81.067852 
L 181.88462 81.038304 
" clip-path="url(#p36a96c0cfa)" style="fill: none; stroke: #ed121c; stroke-width: 3"/>
    <path d="M 181.88462 81.038304 
L 181.335911 80.977863 
" clip-path="url(#p36a96c0cfa)" style="fill: none; stroke: #ed111c; stroke-width: 3"/>
    <path d="M 181.335911 80.977863 
L 180.632702 80.887461 
" clip-path="url(#p36a96c0cfa)" style="fill: none; stroke: #ed111b; stroke-width: 3"/>
    <path d="M 180.632702 80.887461 
L 179.763759 80.769897 
" clip-path="url(#p36a96c0cfa)" style="fill: none; stroke: #ee111b; stroke-width: 3"/>
    <path d="M 179.763759 80.769897 
L 178.720245 80.629349 
" clip-path="url(#p36a96c0cfa)" style="fill: none; stroke: #ee101a; stroke-width: 3"/>
    <path d="M 178.720245 80.629349 
L 177.495604 80.470576 
" clip-path="url(#p36a96c0cfa)" style="fill: none; stroke: #ee1019; stroke-width: 3"/>
    <path d="M 177.495604 80.470576 
L 176.08546 80.297908 
" clip-path="url(#p36a96c0cfa)" style="fill: none; stroke: #ef1019; stroke-width: 3"/>
    <path d="M 176.08546 80.297908 
L 174.487499 80.114129 
" clip-path="url(#p36a96c0cfa)" style="fill: none; stroke: #ef0f18; stroke-width: 3"/>
    <path d="M 174.487499 80.114129 
L 172.701369 79.919197 
" clip-path="url(#p36a96c0cfa)" style="fill: none; stroke: #ef0f18; stroke-width: 3"/>
    <path d="M 172.701369 79.919197 
L 170.728565 79.709408 
" clip-path="url(#p36a96c0cfa)" style="fill: none; stroke: #f00f17; stroke-width: 3"/>
    <path d="M 170.728565 79.709408 
L 168.572323 79.477746 
" clip-path="url(#p36a96c0cfa)" style="fill: none; stroke: #f00e17; stroke-width: 3"/>
    <path d="M 168.572323 79.477746 
L 166.237512 79.214676 
" clip-path="url(#p36a96c0cfa)" style="fill: none; stroke: #f00e16; stroke-width: 3"/>
    <path d="M 166.237512 79.214676 
L 163.730522 78.909003 
" clip-path="url(#p36a96c0cfa)" style="fill: none; stroke: #f10e16; stroke-width: 3"/>
    <path d="M 163.730522 78.909003 
L 161.05916 78.548993 
" clip-path="url(#p36a96c0cfa)" style="fill: none; stroke: #f10d15; stroke-width: 3"/>
    <path d="M 161.05916 78.548993 
L 158.232535 78.12309 
" clip-path="url(#p36a96c0cfa)" style="fill: none; stroke: #f20d15; stroke-width: 3"/>
    <path d="M 158.232535 78.12309 
L 155.260955 77.620312 
" clip-path="url(#p36a96c0cfa)" style="fill: none; stroke: #f20d14; stroke-width: 3"/>
    <path d="M 155.260955 77.620312 
L 152.155815 77.03076 
" clip-path="url(#p36a96c0cfa)" style="fill: none; stroke: #f20c13; stroke-width: 3"/>
    <path d="M 152.155815 77.03076 
L 148.929489 76.345739 
" clip-path="url(#p36a96c0cfa)" style="fill: none; stroke: #f30c13; stroke-width: 3"/>
    <path d="M 148.929489 76.345739 
L 145.595222 75.557306 
" clip-path="url(#p36a96c0cfa)" style="fill: none; stroke: #f30c12; stroke-width: 3"/>
    <path d="M 145.595222 75.557306 
L 142.16702 74.658083 
" clip-path="url(#p36a96c0cfa)" style="fill: none; stroke: #f30b12; stroke-width: 3"/>
    <path d="M 142.16702 74.658083 
L 138.659542 73.641369 
" clip-path="url(#p36a96c0cfa)" style="fill: none; stroke: #f40b11; stroke-width: 3"/>
    <path d="M 138.659542 73.641369 
L 135.087989 72.501409 
" clip-path="url(#p36a96c0cfa)" style="fill: none; stroke: #f40b11; stroke-width: 3"/>
    <path d="M 135.087989 72.501409 
L 131.468 71.234438 
" clip-path="url(#p36a96c0cfa)" style="fill: none; stroke: #f40a10; stroke-width: 3"/>
    <path d="M 131.468 71.234438 
L 127.815539 69.839884 
" clip-path="url(#p36a96c0cfa)" style="fill: none; stroke: #f50a10; stroke-width: 3"/>
    <path d="M 127.815539 69.839884 
L 124.146788 68.320926 
" clip-path="url(#p36a96c0cfa)" style="fill: none; stroke: #f50a0f; stroke-width: 3"/>
    <path d="M 124.146788 68.320926 
L 120.478036 66.684436 
" clip-path="url(#p36a96c0cfa)" style="fill: none; stroke: #f5090f; stroke-width: 3"/>
    <path d="M 120.478036 66.684436 
L 116.825575 64.940394 
" clip-path="url(#p36a96c0cfa)" style="fill: none; stroke: #f6090e; stroke-width: 3"/>
    <path d="M 116.825575 64.940394 
L 113.205587 63.100609 
" clip-path="url(#p36a96c0cfa)" style="fill: none; stroke: #f6090e; stroke-width: 3"/>
    <path d="M 113.205587 63.100609 
L 109.634034 61.177502 
" clip-path="url(#p36a96c0cfa)" style="fill: none; stroke: #f7080d; stroke-width: 3"/>
    <path d="M 109.634034 61.177502 
L 106.126555 59.183624 
" clip-path="url(#p36a96c0cfa)" style="fill: none; stroke: #f7080c; stroke-width: 3"/>
    <path d="M 106.126555 59.183624 
L 102.698353 57.131113 
" clip-path="url(#p36a96c0cfa)" style="fill: none; stroke: #f7070c; stroke-width: 3"/>
    <path d="M 102.698353 57.131113 
L 99.364086 55.031394 
" clip-path="url(#p36a96c0cfa)" style="fill: none; stroke: #f8070b; stroke-width: 3"/>
    <path d="M 99.364086 55.031394 
L 96.137761 52.895359 
" clip-path="url(#p36a96c0cfa)" style="fill: none; stroke: #f8070b; stroke-width: 3"/>
    <path d="M 96.137761 52.895359 
L 93.032621 50.733222 
" clip-path="url(#p36a96c0cfa)" style="fill: none; stroke: #f8060a; stroke-width: 3"/>
    <path d="M 93.032621 50.733222 
L 90.061041 48.554021 
" clip-path="url(#p36a96c0cfa)" style="fill: none; stroke: #f9060a; stroke-width: 3"/>
    <path d="M 90.061041 48.554021 
L 87.234416 46.365294 
" clip-path="url(#p36a96c0cfa)" style="fill: none; stroke: #f90609; stroke-width: 3"/>
    <path d="M 87.234416 46.365294 
L 84.563053 44.172474 
" clip-path="url(#p36a96c0cfa)" style="fill: none; stroke: #f90509; stroke-width: 3"/>
    <path d="M 84.563053 44.172474 
L 82.056064 41.978002 
" clip-path="url(#p36a96c0cfa)" style="fill: none; stroke: #fa0508; stroke-width: 3"/>
    <path d="M 82.056064 41.978002 
L 79.721252 39.781583 
" clip-path="url(#p36a96c0cfa)" style="fill: none; stroke: #fa0508; stroke-width: 3"/>
    <path d="M 79.721252 39.781583 
L 77.565011 37.580873 
" clip-path="url(#p36a96c0cfa)" style="fill: none; stroke: #fa0407; stroke-width: 3"/>
    <path d="M 77.565011 37.580873 
L 75.592207 35.372529 
" clip-path="url(#p36a96c0cfa)" style="fill: none; stroke: #fb0406; stroke-width: 3"/>
    <path d="M 75.592207 35.372529 
L 73.806076 33.15434 
" clip-path="url(#p36a96c0cfa)" style="fill: none; stroke: #fb0406; stroke-width: 3"/>
    <path d="M 73.806076 33.15434 
L 72.208116 30.926921 
" clip-path="url(#p36a96c0cfa)" style="fill: none; stroke: #fb0305; stroke-width: 3"/>
    <path d="M 72.208116 30.926921 
L 70.797971 28.694837 
" clip-path="url(#p36a96c0cfa)" style="fill: none; stroke: #fc0305; stroke-width: 3"/>
    <path d="M 70.797971 28.694837 
L 69.573331 26.466712 
" clip-path="url(#p36a96c0cfa)" style="fill: none; stroke: #fc0304; stroke-width: 3"/>
    <path d="M 69.573331 26.466712 
L 68.529817 24.253459 
" clip-path="url(#p36a96c0cfa)" style="fill: none; stroke: #fd0204; stroke-width: 3"/>
    <path d="M 68.529817 24.253459 
L 67.660874 22.064568 
" clip-path="url(#p36a96c0cfa)" style="fill: none; stroke: #fd0203; stroke-width: 3"/>
    <path d="M 67.660874 22.064568 
L 66.957664 19.901169 
" clip-path="url(#p36a96c0cfa)" style="fill: none; stroke: #fd0203; stroke-width: 3"/>
    <path d="M 66.957664 19.901169 
L 66.408955 17.743779 
" clip-path="url(#p36a96c0cfa)" style="fill: none; stroke: #fe0102; stroke-width: 3"/>
    <path d="M 66.408955 17.743779 
L 66.001013 15.52697 
" clip-path="url(#p36a96c0cfa)" style="fill: none; stroke: #fe0102; stroke-width: 3"/>
    <path d="M 66.001013 15.52697 
L 65.717493 13.074352 
" clip-path="url(#p36a96c0cfa)" style="fill: none; stroke: #fe0101; stroke-width: 3"/>
    <path d="M 65.717493 13.074352 
L 65.539331 17.284393 
" clip-path="url(#p36a96c0cfa)" style="fill: none; stroke: #ff0001; stroke-width: 3"/>
    <path d="M 65.539331 17.284393 
L 65.444633 17.284393 
" clip-path="url(#p36a96c0cfa)" style="fill: none; stroke: #ff0000; stroke-width: 3"/>
   </g>
   <g id="patch_3">
    <path d="M 59.528914 136.435748 
L 59.528914 7.2 
" style="fill: none; stroke: #000000; stroke-width: 0.8; stroke-linejoin: miter; stroke-linecap: square"/>
   </g>
   <g id="patch_4">
    <path d="M 188.764662 136.435748 
L 188.764662 7.2 
" style="fill: none; stroke: #000000; stroke-width: 0.8; stroke-linejoin: miter; stroke-linecap: square"/>
   </g>
   <g id="patch_5">
    <path d="M 59.528914 136.435748 
L 188.764662 136.435748 
" style="fill: none; stroke: #000000; stroke-width: 0.8; stroke-linejoin: miter; stroke-linecap: square"/>
   </g>
   <g id="patch_6">
    <path d="M 59.528914 7.2 
L 188.764662 7.2 
" style="fill: none; stroke: #000000; stroke-width: 0.8; stroke-linejoin: miter; stroke-linecap: square"/>
   </g>
   <g id="text_9">
    <!-- 1 -->
    <g transform="translate(70.403266 27.284393) scale(0.15 -0.15)">
     <defs>
      <path id="CMR17-31" d="M 1702 4058 
C 1702 4192 1696 4192 1606 4192 
C 1357 3916 979 3827 621 3827 
C 602 3827 570 3827 563 3808 
C 557 3795 557 3782 557 3648 
C 755 3648 1088 3686 1344 3839 
L 1344 461 
C 1344 236 1331 160 781 160 
L 589 160 
L 589 0 
C 896 0 1216 0 1523 0 
C 1830 0 2150 0 2458 0 
L 2458 160 
L 2266 160 
C 1715 160 1702 230 1702 458 
L 1702 4058 
z
" transform="scale(0.015625)"/>
     </defs>
     <use xlink:href="#CMR17-31" transform="scale(0.996264)"/>
    </g>
   </g>
   <g id="text_10">
    <!-- 2 -->
    <g transform="translate(187.885005 121.960017) scale(0.15 -0.15)">
     <use xlink:href="#CMR17-32" transform="scale(0.996264)"/>
    </g>
   </g>
   <g id="text_11">
    <!-- 3 -->
    <g transform="translate(187.890309 75.835928) scale(0.15 -0.15)">
     <defs>
      <path id="CMR17-33" d="M 1414 2157 
C 1984 2157 2234 1662 2234 1090 
C 2234 320 1824 25 1453 25 
C 1114 25 563 194 390 693 
C 422 680 454 680 486 680 
C 640 680 755 782 755 948 
C 755 1133 614 1216 486 1216 
C 378 1216 211 1165 211 926 
C 211 335 787 -128 1466 -128 
C 2176 -128 2720 430 2720 1085 
C 2720 1707 2208 2157 1600 2227 
C 2086 2328 2554 2756 2554 3329 
C 2554 3820 2048 4179 1472 4179 
C 890 4179 378 3829 378 3329 
C 378 3110 544 3072 627 3072 
C 762 3072 877 3155 877 3321 
C 877 3486 762 3569 627 3569 
C 602 3569 570 3569 544 3557 
C 730 3959 1235 4032 1459 4032 
C 1683 4032 2106 3925 2106 3320 
C 2106 3143 2080 2828 1862 2550 
C 1670 2304 1453 2304 1242 2284 
C 1210 2284 1062 2269 1037 2269 
C 992 2263 966 2257 966 2208 
C 966 2163 973 2157 1101 2157 
L 1414 2157 
z
" transform="scale(0.015625)"/>
     </defs>
     <use xlink:href="#CMR17-33" transform="scale(0.996264)"/>
    </g>
   </g>
   <g id="PathCollection_1">
    <defs>
     <path id="m836a3b420c" d="M 0 3.535534 
C 0.937635 3.535534 1.836992 3.163008 2.5 2.5 
C 3.163008 1.836992 3.535534 0.937635 3.535534 0 
C 3.535534 -0.937635 3.163008 -1.836992 2.5 -2.5 
C 1.836992 -3.163008 0.937635 -3.535534 0 -3.535534 
C -0.937635 -3.535534 -1.836992 -3.163008 -2.5 -2.5 
C -3.163008 -1.836992 -3.535534 -0.937635 -3.535534 0 
C -3.535534 0.937635 -3.163008 1.836992 -2.5 2.5 
C -1.836992 3.163008 -0.937635 3.535534 0 3.535534 
z
" style="stroke: #000000; stroke-width: 0.24"/>
    </defs>
    <g clip-path="url(#p36a96c0cfa)">
     <use xlink:href="#m836a3b420c" x="65.403266" y="17.284393" style="stroke: #000000; stroke-width: 0.24"/>
    </g>
   </g>
   <g id="PathCollection_2">
    <g clip-path="url(#p36a96c0cfa)">
     <use xlink:href="#m836a3b420c" x="182.885005" y="126.960017" style="stroke: #000000; stroke-width: 0.24"/>
    </g>
   </g>
   <g id="PathCollection_3">
    <g clip-path="url(#p36a96c0cfa)">
     <use xlink:href="#m836a3b420c" x="182.890309" y="80.835928" style="stroke: #000000; stroke-width: 0.24"/>
    </g>
   </g>
  </g>
 </g>
 <defs>
  <clipPath id="p36a96c0cfa">
   <rect x="59.528914" y="7.2" width="129.235748" height="129.235748"/>
  </clipPath>
 </defs>
</svg>
