<?xml version="1.0" encoding="utf-8" standalone="no"?>
<!DOCTYPE svg PUBLIC "-//W3C//DTD SVG 1.1//EN"
  "http://www.w3.org/Graphics/SVG/1.1/DTD/svg11.dtd">
<svg xmlns:xlink="http://www.w3.org/1999/xlink" width="424.55952pt" height="299.71152pt" viewBox="0 0 424.55952 299.71152" xmlns="http://www.w3.org/2000/svg" version="1.1">
 <metadata>
  <rdf:RDF xmlns:dc="http://purl.org/dc/elements/1.1/" xmlns:cc="http://creativecommons.org/ns#" xmlns:rdf="http://www.w3.org/1999/02/22-rdf-syntax-ns#">
   <cc:Work>
    <dc:type rdf:resource="http://purl.org/dc/dcmitype/StillImage"/>
    <dc:date>1980-01-01T00:00:00+00:00</dc:date>
    <dc:format>image/svg+xml</dc:format>
    <dc:creator>
     <cc:Agent>
      <dc:title>Matplotlib v3.6.2, https://matplotlib.org/</dc:title>
     </cc:Agent>
    </dc:creator>
   </cc:Work>
  </rdf:RDF>
 </metadata>
 <defs>
  <style type="text/css">*{stroke-linejoin: round; stroke-linecap: butt}</style>
 </defs>
 <g id="figure_1">
  <g id="patch_1">
   <path d="M 0 299.71152 
L 424.55952 299.71152 
L 424.55952 0 
L 0 0 
z
" style="fill: #ffffff"/>
  </g>
  <g id="axes_1">
   <g id="patch_2">
    <path d="M 42.577482 256.38684 
L 417.35952 256.38684 
L 417.35952 7.2 
L 42.577482 7.2 
z
" style="fill: #ffffff"/>
   </g>
   <g id="matplotlib.axis_1">
    <g id="xtick_1">
     <g id="line2d_1">
      <defs>
       <path id="m7ac206df86" d="M 0 0 
L 0 3.5 
" style="stroke: #000000; stroke-width: 0.8"/>
      </defs>
      <g>
       <use xlink:href="#m7ac206df86" x="59.613029" y="256.38684" style="stroke: #000000; stroke-width: 0.8"/>
      </g>
     </g>
     <g id="text_1">
      <!-- $\mathdefault{0}$ -->
      <g transform="translate(56.442659 274.480868) scale(0.13 -0.13)">
       <defs>
        <path id="CMR17-30" d="M 2688 2025 
C 2688 2416 2682 3080 2413 3591 
C 2176 4039 1798 4198 1466 4198 
C 1158 4198 768 4058 525 3597 
C 269 3118 243 2524 243 2025 
C 243 1661 250 1106 448 619 
C 723 -39 1216 -128 1466 -128 
C 1760 -128 2208 -7 2470 600 
C 2662 1042 2688 1559 2688 2025 
z
M 1466 -26 
C 1056 -26 813 325 723 812 
C 653 1188 653 1738 653 2096 
C 653 2588 653 2997 736 3387 
C 858 3929 1216 4096 1466 4096 
C 1728 4096 2067 3923 2189 3400 
C 2272 3036 2278 2607 2278 2096 
C 2278 1680 2278 1169 2202 792 
C 2067 95 1690 -26 1466 -26 
z
" transform="scale(0.015625)"/>
       </defs>
       <use xlink:href="#CMR17-30" transform="scale(0.996264)"/>
      </g>
     </g>
    </g>
    <g id="xtick_2">
     <g id="line2d_2">
      <g>
       <use xlink:href="#m7ac206df86" x="106.933993" y="256.38684" style="stroke: #000000; stroke-width: 0.8"/>
      </g>
     </g>
     <g id="text_2">
      <!-- $\mathdefault{25}$ -->
      <g transform="translate(100.593254 274.480868) scale(0.13 -0.13)">
       <defs>
        <path id="CMR17-32" d="M 2669 989 
L 2554 989 
C 2490 536 2438 459 2413 420 
C 2381 369 1920 369 1830 369 
L 602 369 
C 832 619 1280 1072 1824 1597 
C 2214 1967 2669 2402 2669 3035 
C 2669 3790 2067 4224 1395 4224 
C 691 4224 262 3604 262 3030 
C 262 2780 448 2748 525 2748 
C 589 2748 781 2787 781 3010 
C 781 3207 614 3264 525 3264 
C 486 3264 448 3258 422 3245 
C 544 3790 915 4058 1306 4058 
C 1862 4058 2227 3617 2227 3035 
C 2227 2479 1901 2000 1536 1584 
L 262 146 
L 262 0 
L 2515 0 
L 2669 989 
z
" transform="scale(0.015625)"/>
        <path id="CMR17-35" d="M 730 3692 
C 794 3666 1056 3584 1325 3584 
C 1920 3584 2246 3911 2432 4100 
C 2432 4157 2432 4192 2394 4192 
C 2387 4192 2374 4192 2323 4163 
C 2099 4058 1837 3973 1517 3973 
C 1325 3973 1037 3999 723 4139 
C 653 4171 640 4171 634 4171 
C 602 4171 595 4164 595 4037 
L 595 2203 
C 595 2089 595 2057 659 2057 
C 691 2057 704 2070 736 2114 
C 941 2401 1222 2522 1542 2522 
C 1766 2522 2246 2382 2246 1289 
C 2246 1085 2246 715 2054 421 
C 1894 159 1645 25 1370 25 
C 947 25 518 320 403 814 
C 429 807 480 795 506 795 
C 589 795 749 840 749 1038 
C 749 1210 627 1280 506 1280 
C 358 1280 262 1190 262 1011 
C 262 454 704 -128 1382 -128 
C 2042 -128 2669 440 2669 1264 
C 2669 2030 2170 2624 1549 2624 
C 1222 2624 947 2503 730 2274 
L 730 3692 
z
" transform="scale(0.015625)"/>
       </defs>
       <use xlink:href="#CMR17-32" transform="scale(0.996264)"/>
       <use xlink:href="#CMR17-35" transform="translate(45.690477 0) scale(0.996264)"/>
      </g>
     </g>
    </g>
    <g id="xtick_3">
     <g id="line2d_3">
      <g>
       <use xlink:href="#m7ac206df86" x="154.254958" y="256.38684" style="stroke: #000000; stroke-width: 0.8"/>
      </g>
     </g>
     <g id="text_3">
      <!-- $\mathdefault{50}$ -->
      <g transform="translate(147.914218 274.480868) scale(0.13 -0.13)">
       <use xlink:href="#CMR17-35" transform="scale(0.996264)"/>
       <use xlink:href="#CMR17-30" transform="translate(45.690477 0) scale(0.996264)"/>
      </g>
     </g>
    </g>
    <g id="xtick_4">
     <g id="line2d_4">
      <g>
       <use xlink:href="#m7ac206df86" x="201.575922" y="256.38684" style="stroke: #000000; stroke-width: 0.8"/>
      </g>
     </g>
     <g id="text_4">
      <!-- $\mathdefault{75}$ -->
      <g transform="translate(195.235183 274.480868) scale(0.13 -0.13)">
       <defs>
        <path id="CMR17-37" d="M 2886 3941 
L 2886 4081 
L 1382 4081 
C 634 4081 621 4165 595 4288 
L 480 4288 
L 294 3094 
L 410 3094 
C 429 3215 474 3540 550 3661 
C 589 3712 1062 3712 1171 3712 
L 2579 3712 
L 1869 2661 
C 1395 1954 1069 999 1069 165 
C 1069 89 1069 -128 1299 -128 
C 1530 -128 1530 89 1530 171 
L 1530 465 
C 1530 1508 1709 2196 2003 2636 
L 2886 3941 
z
" transform="scale(0.015625)"/>
       </defs>
       <use xlink:href="#CMR17-37" transform="scale(0.996264)"/>
       <use xlink:href="#CMR17-35" transform="translate(45.690477 0) scale(0.996264)"/>
      </g>
     </g>
    </g>
    <g id="xtick_5">
     <g id="line2d_5">
      <g>
       <use xlink:href="#m7ac206df86" x="248.896887" y="256.38684" style="stroke: #000000; stroke-width: 0.8"/>
      </g>
     </g>
     <g id="text_5">
      <!-- $\mathdefault{100}$ -->
      <g transform="translate(239.385778 274.480868) scale(0.13 -0.13)">
       <defs>
        <path id="CMR17-31" d="M 1702 4058 
C 1702 4192 1696 4192 1606 4192 
C 1357 3916 979 3827 621 3827 
C 602 3827 570 3827 563 3808 
C 557 3795 557 3782 557 3648 
C 755 3648 1088 3686 1344 3839 
L 1344 461 
C 1344 236 1331 160 781 160 
L 589 160 
L 589 0 
C 896 0 1216 0 1523 0 
C 1830 0 2150 0 2458 0 
L 2458 160 
L 2266 160 
C 1715 160 1702 230 1702 458 
L 1702 4058 
z
" transform="scale(0.015625)"/>
       </defs>
       <use xlink:href="#CMR17-31" transform="scale(0.996264)"/>
       <use xlink:href="#CMR17-30" transform="translate(45.690477 0) scale(0.996264)"/>
       <use xlink:href="#CMR17-30" transform="translate(91.380954 0) scale(0.996264)"/>
      </g>
     </g>
    </g>
    <g id="xtick_6">
     <g id="line2d_6">
      <g>
       <use xlink:href="#m7ac206df86" x="296.217851" y="256.38684" style="stroke: #000000; stroke-width: 0.8"/>
      </g>
     </g>
     <g id="text_6">
      <!-- $\mathdefault{125}$ -->
      <g transform="translate(286.706742 274.480868) scale(0.13 -0.13)">
       <use xlink:href="#CMR17-31" transform="scale(0.996264)"/>
       <use xlink:href="#CMR17-32" transform="translate(45.690477 0) scale(0.996264)"/>
       <use xlink:href="#CMR17-35" transform="translate(91.380954 0) scale(0.996264)"/>
      </g>
     </g>
    </g>
    <g id="xtick_7">
     <g id="line2d_7">
      <g>
       <use xlink:href="#m7ac206df86" x="343.538816" y="256.38684" style="stroke: #000000; stroke-width: 0.8"/>
      </g>
     </g>
     <g id="text_7">
      <!-- $\mathdefault{150}$ -->
      <g transform="translate(334.027706 274.480868) scale(0.13 -0.13)">
       <use xlink:href="#CMR17-31" transform="scale(0.996264)"/>
       <use xlink:href="#CMR17-35" transform="translate(45.690477 0) scale(0.996264)"/>
       <use xlink:href="#CMR17-30" transform="translate(91.380954 0) scale(0.996264)"/>
      </g>
     </g>
    </g>
    <g id="xtick_8">
     <g id="line2d_8">
      <g>
       <use xlink:href="#m7ac206df86" x="390.85978" y="256.38684" style="stroke: #000000; stroke-width: 0.8"/>
      </g>
     </g>
     <g id="text_8">
      <!-- $\mathdefault{175}$ -->
      <g transform="translate(381.348671 274.480868) scale(0.13 -0.13)">
       <use xlink:href="#CMR17-31" transform="scale(0.996264)"/>
       <use xlink:href="#CMR17-37" transform="translate(45.690477 0) scale(0.996264)"/>
       <use xlink:href="#CMR17-35" transform="translate(91.380954 0) scale(0.996264)"/>
      </g>
     </g>
    </g>
    <g id="text_9">
     <!-- $\tau$ -->
     <g transform="translate(227.214858 289.993208) scale(0.13 -0.13)">
      <defs>
       <path id="CMMI12-1c" d="M 1837 2408 
L 2899 2408 
C 2982 2408 3194 2408 3194 2612 
C 3194 2752 3072 2752 2957 2752 
L 1197 2752 
C 1050 2752 832 2752 538 2440 
C 371 2255 166 1917 166 1879 
C 166 1841 198 1828 237 1828 
C 282 1828 288 1847 320 1885 
C 653 2408 986 2408 1146 2408 
L 1677 2408 
L 1011 223 
C 979 127 979 114 979 95 
C 979 25 1024 -64 1152 -64 
C 1350 -64 1382 108 1402 203 
L 1837 2408 
z
" transform="scale(0.015625)"/>
      </defs>
      <use xlink:href="#CMMI12-1c" transform="scale(0.996264)"/>
     </g>
    </g>
   </g>
   <g id="matplotlib.axis_2">
    <g id="ytick_1">
     <g id="line2d_9">
      <defs>
       <path id="m4acae62090" d="M 0 0 
L -3.5 0 
" style="stroke: #000000; stroke-width: 0.8"/>
      </defs>
      <g>
       <use xlink:href="#m4acae62090" x="42.577482" y="245.060165" style="stroke: #000000; stroke-width: 0.8"/>
      </g>
     </g>
     <g id="text_10">
      <!-- $\mathdefault{−1.0}$ -->
      <g transform="translate(7.2 249.557179) scale(0.13 -0.13)">
       <defs>
        <path id="CMSY10-0" d="M 4218 1472 
C 4326 1472 4442 1472 4442 1600 
C 4442 1728 4326 1728 4218 1728 
L 755 1728 
C 646 1728 531 1728 531 1600 
C 531 1472 646 1472 755 1472 
L 4218 1472 
z
" transform="scale(0.015625)"/>
        <path id="CMMI12-3a" d="M 1178 307 
C 1178 492 1024 619 870 619 
C 685 619 557 466 557 313 
C 557 128 710 0 864 0 
C 1050 0 1178 153 1178 307 
z
" transform="scale(0.015625)"/>
       </defs>
       <use xlink:href="#CMSY10-0" transform="scale(0.996264)"/>
       <use xlink:href="#CMR17-31" transform="translate(77.487468 0) scale(0.996264)"/>
       <use xlink:href="#CMMI12-3a" transform="translate(123.177945 0) scale(0.996264)"/>
       <use xlink:href="#CMR17-30" transform="translate(150.275122 0) scale(0.996264)"/>
      </g>
     </g>
    </g>
    <g id="ytick_2">
     <g id="line2d_10">
      <g>
       <use xlink:href="#m4acae62090" x="42.577482" y="200.011333" style="stroke: #000000; stroke-width: 0.8"/>
      </g>
     </g>
     <g id="text_11">
      <!-- $\mathdefault{−0.8}$ -->
      <g transform="translate(7.2 204.508347) scale(0.13 -0.13)">
       <defs>
        <path id="CMR17-38" d="M 1741 2264 
C 2144 2467 2554 2773 2554 3263 
C 2554 3841 1990 4179 1472 4179 
C 890 4179 378 3759 378 3180 
C 378 3021 416 2747 666 2505 
C 730 2442 998 2251 1171 2130 
C 883 1983 211 1634 211 934 
C 211 279 838 -128 1459 -128 
C 2144 -128 2720 362 2720 1010 
C 2720 1590 2330 1857 2074 2029 
L 1741 2264 
z
M 902 2822 
C 851 2854 595 3051 595 3351 
C 595 3739 998 4032 1459 4032 
C 1965 4032 2336 3676 2336 3262 
C 2336 2669 1670 2331 1638 2331 
C 1632 2331 1626 2331 1574 2370 
L 902 2822 
z
M 2080 1519 
C 2176 1449 2483 1240 2483 851 
C 2483 381 2010 25 1472 25 
C 890 25 448 438 448 940 
C 448 1443 838 1862 1280 2060 
L 2080 1519 
z
" transform="scale(0.015625)"/>
       </defs>
       <use xlink:href="#CMSY10-0" transform="scale(0.996264)"/>
       <use xlink:href="#CMR17-30" transform="translate(77.487468 0) scale(0.996264)"/>
       <use xlink:href="#CMMI12-3a" transform="translate(123.177945 0) scale(0.996264)"/>
       <use xlink:href="#CMR17-38" transform="translate(150.275122 0) scale(0.996264)"/>
      </g>
     </g>
    </g>
    <g id="ytick_3">
     <g id="line2d_11">
      <g>
       <use xlink:href="#m4acae62090" x="42.577482" y="154.962501" style="stroke: #000000; stroke-width: 0.8"/>
      </g>
     </g>
     <g id="text_12">
      <!-- $\mathdefault{−0.6}$ -->
      <g transform="translate(7.2 159.459515) scale(0.13 -0.13)">
       <defs>
        <path id="CMR17-36" d="M 678 2176 
C 678 3690 1395 4032 1811 4032 
C 1946 4032 2272 4009 2400 3776 
C 2298 3776 2106 3776 2106 3553 
C 2106 3381 2246 3323 2336 3323 
C 2394 3323 2566 3348 2566 3560 
C 2566 3954 2246 4179 1805 4179 
C 1043 4179 243 3390 243 1984 
C 243 253 966 -128 1478 -128 
C 2099 -128 2688 427 2688 1283 
C 2688 2081 2170 2662 1517 2662 
C 1126 2662 838 2407 678 1960 
L 678 2176 
z
M 1478 25 
C 691 25 691 1200 691 1436 
C 691 1896 909 2560 1504 2560 
C 1613 2560 1926 2560 2138 2120 
C 2253 1870 2253 1609 2253 1289 
C 2253 944 2253 690 2118 434 
C 1978 171 1773 25 1478 25 
z
" transform="scale(0.015625)"/>
       </defs>
       <use xlink:href="#CMSY10-0" transform="scale(0.996264)"/>
       <use xlink:href="#CMR17-30" transform="translate(77.487468 0) scale(0.996264)"/>
       <use xlink:href="#CMMI12-3a" transform="translate(123.177945 0) scale(0.996264)"/>
       <use xlink:href="#CMR17-36" transform="translate(150.275122 0) scale(0.996264)"/>
      </g>
     </g>
    </g>
    <g id="ytick_4">
     <g id="line2d_12">
      <g>
       <use xlink:href="#m4acae62090" x="42.577482" y="109.913668" style="stroke: #000000; stroke-width: 0.8"/>
      </g>
     </g>
     <g id="text_13">
      <!-- $\mathdefault{−0.4}$ -->
      <g transform="translate(7.2 114.410682) scale(0.13 -0.13)">
       <defs>
        <path id="CMR17-34" d="M 2150 4122 
C 2150 4256 2144 4256 2029 4256 
L 128 1254 
L 128 1088 
L 1779 1088 
L 1779 457 
C 1779 224 1766 160 1318 160 
L 1197 160 
L 1197 0 
C 1402 0 1747 0 1965 0 
C 2182 0 2528 0 2733 0 
L 2733 160 
L 2611 160 
C 2163 160 2150 224 2150 457 
L 2150 1088 
L 2803 1088 
L 2803 1254 
L 2150 1254 
L 2150 4122 
z
M 1798 3703 
L 1798 1254 
L 256 1254 
L 1798 3703 
z
" transform="scale(0.015625)"/>
       </defs>
       <use xlink:href="#CMSY10-0" transform="scale(0.996264)"/>
       <use xlink:href="#CMR17-30" transform="translate(77.487468 0) scale(0.996264)"/>
       <use xlink:href="#CMMI12-3a" transform="translate(123.177945 0) scale(0.996264)"/>
       <use xlink:href="#CMR17-34" transform="translate(150.275122 0) scale(0.996264)"/>
      </g>
     </g>
    </g>
    <g id="ytick_5">
     <g id="line2d_13">
      <g>
       <use xlink:href="#m4acae62090" x="42.577482" y="64.864836" style="stroke: #000000; stroke-width: 0.8"/>
      </g>
     </g>
     <g id="text_14">
      <!-- $\mathdefault{−0.2}$ -->
      <g transform="translate(7.2 69.36185) scale(0.13 -0.13)">
       <use xlink:href="#CMSY10-0" transform="scale(0.996264)"/>
       <use xlink:href="#CMR17-30" transform="translate(77.487468 0) scale(0.996264)"/>
       <use xlink:href="#CMMI12-3a" transform="translate(123.177945 0) scale(0.996264)"/>
       <use xlink:href="#CMR17-32" transform="translate(150.275122 0) scale(0.996264)"/>
      </g>
     </g>
    </g>
    <g id="ytick_6">
     <g id="line2d_14">
      <g>
       <use xlink:href="#m4acae62090" x="42.577482" y="19.816004" style="stroke: #000000; stroke-width: 0.8"/>
      </g>
     </g>
     <g id="text_15">
      <!-- $\mathdefault{0.0}$ -->
      <g transform="translate(17.27337 24.313018) scale(0.13 -0.13)">
       <use xlink:href="#CMR17-30" transform="scale(0.996264)"/>
       <use xlink:href="#CMMI12-3a" transform="translate(45.690477 0) scale(0.996264)"/>
       <use xlink:href="#CMR17-30" transform="translate(72.787654 0) scale(0.996264)"/>
      </g>
     </g>
    </g>
   </g>
   <g id="line2d_15">
    <path d="M 59.613029 245.060165 
L 68.017232 244.958651 
L 68.357943 244.664984 
L 68.585084 244.22112 
L 68.925795 242.877941 
L 69.266506 240.248979 
L 69.607217 235.772568 
L 70.061498 226.245618 
L 70.629349 208.980746 
L 71.765053 172.52143 
L 72.332904 161.151859 
L 73.014326 152.251629 
L 74.49074 136.831435 
L 76.080725 122.702932 
L 76.989287 116.581007 
L 79.374264 103.63251 
L 80.282826 99.728685 
L 81.5321 95.261386 
L 82.327092 93.331396 
L 83.349225 90.845693 
L 84.598498 87.752958 
L 85.620631 85.660573 
L 87.437756 82.953782 
L 88.68703 81.418921 
L 90.163444 79.47166 
L 90.958436 79.04576 
L 92.43485 78.394432 
L 93.456983 77.565679 
L 94.251975 77.184312 
L 95.046967 76.93524 
L 95.728389 76.329708 
L 96.523381 75.632588 
L 96.864092 75.569789 
L 97.204803 75.721872 
L 97.999795 76.255989 
L 98.340506 76.171891 
L 99.58978 75.340612 
L 100.157631 75.489281 
L 101.179764 75.851461 
L 101.634045 75.701953 
L 102.769749 75.227809 
L 103.905452 75.136775 
L 104.927585 75.246884 
L 105.381866 74.996698 
L 106.290428 74.387204 
L 106.631139 74.46961 
L 107.993983 75.279783 
L 109.129686 75.060843 
L 109.811108 75.165803 
L 110.946811 75.052907 
L 111.287522 75.329385 
L 111.741803 75.992044 
L 112.309655 77.299987 
L 113.104647 79.903354 
L 114.01321 82.739276 
L 114.581061 83.781773 
L 115.035343 84.188572 
L 115.603194 84.356606 
L 117.079608 84.376135 
L 125.597382 84.282227 
L 126.278804 83.973797 
L 127.528077 83.259665 
L 127.868788 83.398156 
L 128.209499 83.882858 
L 128.55021 84.82212 
L 129.004491 86.898055 
L 129.572343 90.829196 
L 130.367335 98.33252 
L 133.206593 127.169932 
L 134.342296 136.019382 
L 135.364429 142.49395 
L 136.500132 148.179661 
L 137.522265 152.018808 
L 139.33939 158.063048 
L 140.361523 160.701075 
L 141.610796 163.245035 
L 142.86007 165.309706 
L 144.336484 167.356741 
L 145.358617 168.444962 
L 146.267179 169.130943 
L 151.718554 172.359685 
L 152.854257 172.702695 
L 154.557812 172.823362 
L 156.942789 172.925851 
L 159.782046 173.442458 
L 160.804179 173.38473 
L 164.66557 173.03295 
L 167.391258 173.267782 
L 167.845539 173.530197 
L 168.29982 174.139217 
L 168.754101 175.220548 
L 169.321953 177.256681 
L 171.139078 184.586978 
L 171.593359 185.485992 
L 172.04764 185.922932 
L 172.501922 186.066631 
L 173.751195 186.088324 
L 181.587547 185.999232 
L 181.928258 185.784757 
L 182.268969 185.231938 
L 182.60968 184.039359 
L 182.950391 181.819021 
L 183.291102 178.169376 
L 183.745383 170.655742 
L 184.540375 152.042833 
L 185.335367 134.917371 
L 185.903219 127.070183 
L 186.47107 122.059447 
L 187.493203 115.703414 
L 189.423899 104.011087 
L 190.446031 99.745769 
L 191.354594 96.921283 
L 194.193852 88.910054 
L 195.556696 85.813192 
L 196.351688 84.469701 
L 197.941672 82.382383 
L 198.850235 81.488007 
L 200.440219 79.31361 
L 202.030203 78.497707 
L 203.052336 77.804093 
L 203.847329 77.542902 
L 205.323743 77.153299 
L 207.027297 76.234585 
L 207.82229 75.714528 
L 208.163 75.73089 
L 209.298704 76.015487 
L 210.661547 75.542333 
L 211.45654 75.329755 
L 212.478672 75.314935 
L 213.387235 75.274356 
L 213.955087 74.995872 
L 214.636508 74.663538 
L 215.20436 74.660002 
L 216.340063 74.758953 
L 217.248626 74.762304 
L 218.384329 74.833098 
L 219.065751 74.617482 
L 219.974313 74.342738 
L 221.337157 74.242779 
L 221.905009 74.168725 
L 224.289985 73.624939 
L 224.630696 73.886401 
L 225.084977 74.653172 
L 225.766399 76.389584 
L 227.810665 82.008105 
L 228.378516 82.751739 
L 228.832798 83.015908 
L 229.51422 83.105656 
L 238.372704 83.098112 
L 239.281267 82.965916 
L 239.962689 82.631219 
L 240.984821 82.011128 
L 241.325532 82.125287 
L 241.666243 82.592293 
L 242.006954 83.48982 
L 242.461235 85.435154 
L 243.029087 89.111522 
L 243.824079 96.189797 
L 245.186923 111.169899 
L 246.549767 124.983281 
L 247.5719 133.341833 
L 248.594032 139.770118 
L 250.184017 148.082664 
L 251.092579 151.817052 
L 252.341853 155.941825 
L 253.818267 160.103663 
L 255.06754 162.946574 
L 256.089673 164.688892 
L 258.020369 167.247237 
L 259.042501 168.395007 
L 260.178205 169.256068 
L 261.99533 170.335622 
L 265.74315 171.879573 
L 266.878853 172.043841 
L 269.036689 172.319563 
L 270.513103 172.786377 
L 272.443799 173.386939 
L 273.806642 173.408353 
L 277.781603 173.308619 
L 279.030877 173.187902 
L 280.961572 173.560839 
L 281.415853 173.807218 
L 281.870135 174.366401 
L 282.324416 175.359253 
L 282.892268 177.311261 
L 284.709393 184.572098 
L 285.163674 185.459217 
L 285.617955 185.895089 
L 286.072236 186.039868 
L 287.32151 186.06176 
L 295.157861 185.988397 
L 295.498572 185.783002 
L 295.839283 185.238263 
L 296.179994 184.044782 
L 296.520705 181.804567 
L 296.861416 178.122203 
L 297.315697 170.626099 
L 298.11069 152.365108 
L 298.905682 135.292685 
L 299.473533 127.275136 
L 300.041385 122.195365 
L 300.949948 116.536946 
L 303.221354 103.586817 
L 304.470627 98.758295 
L 306.401323 92.70221 
L 307.082745 90.875452 
L 308.786299 86.888169 
L 309.354151 85.799214 
L 309.808432 85.377693 
L 310.603424 84.756493 
L 311.284846 83.771565 
L 312.76126 81.453594 
L 314.691956 79.127732 
L 315.373377 78.476996 
L 316.054799 78.242037 
L 316.736221 78.027767 
L 317.190503 77.619984 
L 318.439776 76.283387 
L 318.894057 76.183903 
L 319.461909 76.291691 
L 320.484042 76.574608 
L 320.938323 76.395171 
L 321.960456 75.793163 
L 323.43687 75.544255 
L 325.140425 74.583101 
L 325.821846 74.577472 
L 327.638971 74.57227 
L 329.796807 74.159196 
L 331.159651 73.679117 
L 332.295354 73.562049 
L 332.976776 73.844223 
L 333.998909 74.262239 
L 335.134612 74.394217 
L 335.929604 74.32641 
L 337.065308 74.075403 
L 337.633159 74.26333 
L 338.314581 74.735506 
L 338.768862 75.294617 
L 339.223144 76.19661 
L 339.904565 78.207205 
L 341.040269 81.706206 
L 341.60812 82.78495 
L 342.062401 83.262168 
L 342.516683 83.469167 
L 343.311675 83.527303 
L 352.624441 83.431777 
L 353.305863 83.202373 
L 354.555136 82.623117 
L 354.895847 82.757323 
L 355.236558 83.177192 
L 355.577269 83.986033 
L 356.03155 85.832788 
L 356.599402 89.427648 
L 357.280824 95.312055 
L 358.530097 108.635833 
L 360.006511 123.554754 
L 361.142214 133.136446 
L 362.277917 140.83731 
L 363.30005 146.30624 
L 364.435753 151.266118 
L 365.457886 154.567725 
L 367.047871 159.07775 
L 368.183574 161.666592 
L 369.773558 164.683504 
L 370.795691 166.207307 
L 372.044964 167.661856 
L 373.521379 168.857578 
L 375.452074 170.246459 
L 376.474207 170.778223 
L 378.518472 171.706986 
L 380.222027 172.342709 
L 383.061285 173.012206 
L 383.969848 173.190419 
L 385.559832 173.15881 
L 389.421223 173.076851 
L 391.124777 173.349397 
L 394.077606 173.143542 
L 394.759027 173.194813 
L 395.099738 173.390142 
L 395.440449 173.817439 
L 395.894731 174.861204 
L 396.462582 176.883514 
L 398.279707 184.164163 
L 398.733988 185.048117 
L 399.18827 185.484613 
L 399.642551 185.628465 
L 400.323973 185.649978 
L 400.323973 185.649978 
" clip-path="url(#pf6099e8a64)" style="fill: none; stroke: #ff7f0e; stroke-linecap: square"/>
   </g>
   <g id="line2d_16">
    <path d="M 59.613029 19.816004 
L 69.380076 19.910561 
L 70.288639 20.145368 
L 71.197201 20.378047 
L 71.765053 20.275189 
L 72.673615 19.768158 
L 73.809318 19.232245 
L 74.717881 19.092757 
L 75.399303 19.201467 
L 77.216428 19.704463 
L 78.01142 19.593985 
L 79.147123 19.462901 
L 79.942115 19.627055 
L 81.077818 19.931826 
L 81.75924 19.806958 
L 83.917076 19.110267 
L 84.484928 19.263215 
L 85.16635 19.759271 
L 86.756334 21.083263 
L 87.210615 21.034376 
L 87.664897 20.717699 
L 88.91417 19.666326 
L 89.368451 19.613115 
L 89.936303 19.856186 
L 90.504155 20.088119 
L 90.958436 20.037841 
L 91.753428 19.617458 
L 92.43485 19.377336 
L 93.002701 19.416728 
L 94.138405 19.600903 
L 94.933397 19.788824 
L 95.95553 20.026589 
L 96.636952 19.914983 
L 98.226936 19.334265 
L 98.908358 19.54945 
L 100.952623 20.404647 
L 101.520475 20.262015 
L 102.088327 19.842578 
L 103.22403 18.951847 
L 103.791881 18.796349 
L 104.814014 18.842065 
L 105.495436 19.054007 
L 107.08542 19.853831 
L 107.766842 19.785284 
L 109.924678 19.317053 
L 110.49253 19.475772 
L 111.173952 19.946411 
L 112.082514 20.549059 
L 112.763936 20.658457 
L 113.445358 20.515458 
L 114.12678 20.118873 
L 115.603194 19.181669 
L 116.171046 19.119558 
L 116.738897 19.300442 
L 117.64746 19.907806 
L 118.556022 20.423061 
L 119.237444 20.517235 
L 119.918866 20.374211 
L 121.622421 19.664091 
L 122.985265 19.240183 
L 124.120968 19.112214 
L 125.370241 19.232439 
L 126.392374 19.550521 
L 129.004491 20.459905 
L 129.572343 20.407181 
L 130.253765 20.062971 
L 131.162327 19.648541 
L 133.433733 18.987438 
L 134.342296 19.089828 
L 136.386562 19.70691 
L 137.295124 19.983645 
L 138.430827 20.115633 
L 140.247952 19.956645 
L 141.497226 19.753106 
L 143.427921 19.264729 
L 144.336484 19.361672 
L 146.040038 19.583925 
L 148.084304 19.648754 
L 151.604984 20.100739 
L 157.964921 18.968552 
L 159.100625 18.969771 
L 160.577039 19.43222 
L 161.826312 19.975621 
L 163.416297 20.692429 
L 164.438429 20.923993 
L 165.233422 20.976014 
L 167.618398 20.808537 
L 169.094812 20.755486 
L 170.798367 20.513964 
L 172.274781 20.016928 
L 174.773328 19.097527 
L 175.681891 19.007323 
L 176.363312 19.129909 
L 177.044734 19.458076 
L 178.97543 20.61673 
L 179.429711 20.586852 
L 179.997562 20.309958 
L 181.928258 19.024595 
L 182.382539 19.062082 
L 182.83682 19.309283 
L 183.631813 20.082757 
L 184.426805 20.788006 
L 184.881086 20.958244 
L 185.221797 20.897357 
L 185.676078 20.542776 
L 187.038922 19.139178 
L 187.493203 19.107179 
L 188.061055 19.379743 
L 189.083188 19.957993 
L 189.651039 19.982723 
L 190.559602 19.754163 
L 191.354594 19.615446 
L 191.922445 19.719935 
L 192.831008 20.168584 
L 193.739571 20.637602 
L 194.193852 20.648914 
L 194.648133 20.439533 
L 196.351688 19.35563 
L 196.919539 19.233063 
L 197.373821 19.388392 
L 197.941672 19.869264 
L 198.736664 20.552883 
L 199.190946 20.616316 
L 199.758797 20.394536 
L 200.66736 19.973509 
L 201.121641 20.012569 
L 201.803063 20.34997 
L 202.938766 20.88476 
L 203.620188 21.052978 
L 204.074469 20.92328 
L 204.642321 20.486612 
L 205.891594 19.392785 
L 206.232305 19.350663 
L 206.686586 19.568619 
L 208.04943 20.546245 
L 208.617282 20.528845 
L 209.298704 20.283261 
L 210.888688 19.575449 
L 211.45654 19.583035 
L 213.046524 19.809855 
L 214.750079 19.504166 
L 215.772212 19.831406 
L 217.021485 20.196831 
L 217.589337 20.084786 
L 218.83861 19.674962 
L 219.520032 19.719275 
L 220.315024 20.061843 
L 220.882876 20.224604 
L 221.450727 20.139714 
L 222.245719 19.750876 
L 222.927141 19.484099 
L 223.494993 19.538828 
L 226.788532 20.423729 
L 227.356384 20.250067 
L 228.151376 19.744746 
L 229.059938 19.215669 
L 229.62779 19.134709 
L 230.195642 19.291689 
L 230.990634 19.791253 
L 232.012767 20.391458 
L 232.694188 20.499277 
L 233.37561 20.366925 
L 234.852024 19.757284 
L 236.328439 19.277256 
L 237.464142 19.132909 
L 238.599845 19.224739 
L 239.962689 19.567226 
L 242.006954 20.226506 
L 243.029087 20.256696 
L 244.05122 20.041149 
L 244.846212 19.68065 
L 245.981915 19.051036 
L 246.890478 18.904478 
L 248.480462 18.774348 
L 249.275454 18.982722 
L 251.092579 19.92662 
L 253.363986 21.076928 
L 254.272548 21.114635 
L 255.294681 20.935927 
L 258.70179 19.952641 
L 259.837494 19.995853 
L 261.541048 20.097316 
L 265.061728 19.971668 
L 266.424572 19.926261 
L 267.333134 19.904141 
L 268.923119 20.029318 
L 270.285963 19.839878 
L 271.535236 19.634533 
L 272.784509 19.681573 
L 275.055916 19.730217 
L 276.191619 19.677603 
L 278.917306 20.030575 
L 280.05301 20.250577 
L 282.324416 20.5682 
L 283.346549 20.60399 
L 284.482252 20.433404 
L 285.731525 19.988651 
L 288.002932 19.102516 
L 289.025064 18.969625 
L 289.820057 19.108858 
L 290.501479 19.44907 
L 292.432174 20.650256 
L 292.886455 20.624508 
L 293.454307 20.341493 
L 295.385002 18.996545 
L 295.839283 19.025131 
L 296.407135 19.316356 
L 298.11069 20.491825 
L 298.564971 20.423097 
L 299.132822 20.061038 
L 300.154955 19.314449 
L 300.609237 19.240235 
L 301.063518 19.424556 
L 301.85851 20.160094 
L 302.653502 20.736615 
L 303.221354 20.882327 
L 303.675635 20.746708 
L 304.243487 20.302594 
L 305.265619 19.478786 
L 305.833471 19.313624 
L 306.628463 19.335094 
L 307.309885 19.512132 
L 308.218448 20.027512 
L 308.89987 20.380666 
L 309.354151 20.383149 
L 310.489854 20.058316 
L 311.057706 19.631205 
L 312.193409 18.709577 
L 312.53412 18.696369 
L 312.988401 18.916444 
L 314.237674 19.716097 
L 314.919096 19.829753 
L 316.39551 19.80128 
L 317.190503 19.673563 
L 317.985495 19.484223 
L 318.439776 19.614298 
L 320.256901 20.481121 
L 320.711182 20.34733 
L 321.279034 19.883062 
L 321.960456 19.294481 
L 322.414737 19.180299 
L 322.869018 19.333988 
L 323.3233 19.754115 
L 324.231862 20.75337 
L 324.572573 20.878492 
L 324.913284 20.806217 
L 325.367565 20.460246 
L 326.503268 19.150085 
L 326.95755 18.752579 
L 327.298261 18.699561 
L 327.638971 18.867902 
L 328.206823 19.465937 
L 329.342526 20.808758 
L 329.796807 20.944676 
L 330.137518 20.843621 
L 330.5918 20.44444 
L 331.727503 19.214453 
L 332.068214 19.190199 
L 332.522495 19.467698 
L 334.33962 21.028877 
L 334.907472 21.265957 
L 335.361753 21.234385 
L 335.929604 20.920234 
L 336.838167 20.057288 
L 337.519589 19.528081 
L 337.97387 19.467123 
L 338.541722 19.65709 
L 339.677425 20.14853 
L 340.245276 20.189196 
L 340.813128 20.019634 
L 342.630253 19.255082 
L 343.198105 19.316214 
L 343.879526 19.613002 
L 345.355941 20.333318 
L 346.037362 20.363941 
L 346.832355 20.153779 
L 349.217331 19.365396 
L 350.466605 19.25181 
L 351.715878 19.374249 
L 353.533003 19.828952 
L 354.895847 20.046941 
L 355.690839 19.970008 
L 357.280824 19.731128 
L 359.097949 19.777847 
L 362.277917 20.59122 
L 363.640761 20.975737 
L 365.003605 20.84807 
L 365.685027 20.633924 
L 367.615722 19.842334 
L 369.092136 19.413448 
L 369.773558 19.460999 
L 372.158535 19.94777 
L 373.180668 19.785527 
L 375.452074 19.4649 
L 376.814918 19.320949 
L 378.404902 19.087351 
L 379.086324 19.269085 
L 382.266293 20.372615 
L 383.061285 20.465088 
L 384.87841 20.347716 
L 386.127683 20.117847 
L 388.39909 19.446017 
L 389.875504 19.398465 
L 391.011207 19.5377 
L 393.282613 19.854345 
L 394.986168 19.885541 
L 396.576152 19.841793 
L 400.323973 19.838035 
L 400.323973 19.838035 
" clip-path="url(#pf6099e8a64)" style="fill: none; stroke: #2ca02c; stroke-linecap: square"/>
   </g>
   <g id="line2d_17">
    <path d="M 59.613029 19.816004 
L 68.925795 19.714245 
L 70.515779 19.511875 
L 71.083631 19.829726 
L 72.105764 20.509088 
L 72.673615 20.560897 
L 73.355037 20.407421 
L 74.150029 19.954205 
L 75.058592 19.486116 
L 75.740014 19.44378 
L 77.443568 19.690713 
L 78.692842 19.94462 
L 79.374264 19.80441 
L 80.396397 19.548933 
L 80.850678 19.676748 
L 81.986381 20.190573 
L 82.781373 20.18822 
L 83.349225 20.0632 
L 83.917076 19.650942 
L 84.825639 18.899763 
L 85.27992 18.757905 
L 85.734201 18.851517 
L 86.188483 19.218634 
L 87.210615 20.517461 
L 87.664897 20.955561 
L 88.005608 21.020567 
L 88.346319 20.846923 
L 89.02774 20.157779 
L 89.709162 19.507015 
L 90.049873 19.424064 
L 90.390584 19.581652 
L 91.299147 20.219785 
L 91.753428 20.186282 
L 92.54842 19.771299 
L 93.116272 19.597433 
L 95.95553 19.741655 
L 96.750522 20.03592 
L 97.204803 20.132578 
L 97.659084 20.014387 
L 99.70335 19.158851 
L 100.271202 19.359259 
L 101.861186 20.298819 
L 102.315467 20.488497 
L 102.769749 20.450371 
L 103.45117 20.078333 
L 104.132592 19.774782 
L 106.290428 19.391936 
L 106.97185 19.775009 
L 107.766842 20.151513 
L 108.334694 20.181066 
L 109.811108 19.863055 
L 110.946811 19.235992 
L 111.401092 19.262578 
L 112.763936 19.870391 
L 114.467491 20.523186 
L 115.035343 20.425442 
L 115.716764 20.044351 
L 117.079608 19.185537 
L 117.64746 19.117704 
L 118.215311 19.280298 
L 119.237444 19.881771 
L 120.259577 20.372846 
L 121.054569 20.51503 
L 122.076702 20.443446 
L 123.325975 20.111918 
L 126.392374 19.176558 
L 127.300936 19.201869 
L 128.095929 19.457408 
L 129.231632 20.061556 
L 130.594476 20.842254 
L 131.162327 20.874936 
L 131.730179 20.646098 
L 134.228726 19.319779 
L 135.364429 19.017082 
L 136.045851 19.121632 
L 138.317257 19.900579 
L 139.56653 20.263962 
L 140.361523 20.314863 
L 142.405788 19.99933 
L 145.131476 19.60393 
L 147.516452 19.589214 
L 149.106437 19.631042 
L 150.24214 19.66104 
L 151.491413 19.980656 
L 153.535679 20.633741 
L 155.125664 20.544454 
L 156.488507 20.043151 
L 157.851351 19.353941 
L 158.759914 19.004454 
L 160.349898 18.842168 
L 161.258461 18.858132 
L 165.687703 19.441091 
L 168.29982 19.578338 
L 169.776234 19.904467 
L 171.252648 20.381403 
L 172.274781 20.602334 
L 173.296914 20.593617 
L 174.319047 20.360982 
L 175.45475 19.87337 
L 177.271875 19.031868 
L 177.839726 19.033536 
L 178.407578 19.266573 
L 179.316141 19.974613 
L 180.111133 20.51387 
L 180.678984 20.625222 
L 181.133266 20.506725 
L 181.701117 20.128232 
L 183.518242 18.67106 
L 183.972523 18.718305 
L 184.426805 19.069287 
L 185.108227 20.070506 
L 185.676078 20.788175 
L 186.016789 20.972671 
L 186.3575 20.942712 
L 186.811781 20.600202 
L 188.061055 19.305242 
L 188.515336 19.317062 
L 189.083188 19.616313 
L 190.10532 20.199568 
L 190.673172 20.202909 
L 191.241024 19.946253 
L 192.717438 19.11991 
L 193.058149 19.16141 
L 193.51243 19.465845 
L 194.761703 20.510342 
L 195.215985 20.488909 
L 196.578828 19.923607 
L 198.055242 19.084506 
L 198.395953 19.316962 
L 199.418086 20.294844 
L 199.872368 20.384672 
L 200.213078 20.256967 
L 200.8945 19.64074 
L 201.462352 19.266811 
L 201.916633 19.245715 
L 203.393047 19.693167 
L 203.847329 20.079767 
L 204.642321 20.803772 
L 204.983032 20.848778 
L 205.323743 20.671338 
L 205.778024 20.144056 
L 206.686586 18.967723 
L 207.027297 18.855034 
L 207.368008 18.981453 
L 208.844422 20.045022 
L 210.093696 20.082834 
L 210.661547 19.986703 
L 211.910821 19.532799 
L 212.592243 19.643049 
L 213.614376 19.931081 
L 214.295797 19.746197 
L 215.31793 19.473211 
L 215.999352 19.53045 
L 216.794344 19.797979 
L 217.930048 20.316942 
L 218.384329 20.197509 
L 220.315024 19.244204 
L 220.769305 19.438417 
L 222.132149 20.296864 
L 222.58643 20.2406 
L 223.267852 19.773868 
L 223.835704 19.516818 
L 225.99354 19.519795 
L 226.674962 19.866654 
L 227.697095 20.408271 
L 228.264946 20.465049 
L 228.832798 20.275936 
L 229.854931 19.588723 
L 230.649923 19.183642 
L 231.217774 19.144989 
L 231.785626 19.32709 
L 234.284173 20.475097 
L 235.192735 20.47275 
L 236.328439 20.23841 
L 240.3034 19.168292 
L 241.098392 19.314227 
L 242.688376 19.963662 
L 244.278361 20.493652 
L 245.073353 20.516685 
L 245.981915 20.360856 
L 246.776907 19.927832 
L 248.821173 18.707425 
L 249.502595 18.704784 
L 251.546861 19.121119 
L 252.455423 19.573142 
L 254.272548 20.378815 
L 254.95397 20.525782 
L 255.635392 20.458688 
L 258.47465 19.870892 
L 259.723923 19.931256 
L 261.313908 20.119949 
L 264.266736 19.801006 
L 266.311002 19.599476 
L 268.355267 19.449662 
L 269.49097 19.383587 
L 270.853814 19.555414 
L 272.557369 19.914401 
L 273.920213 19.884653 
L 276.305189 19.812376 
L 277.440892 19.881161 
L 278.463025 19.875969 
L 279.825869 19.659172 
L 280.961572 19.453955 
L 281.870135 19.606125 
L 283.573689 20.123455 
L 284.822963 20.504363 
L 285.958666 20.660843 
L 286.980799 20.577167 
L 288.002932 20.27224 
L 289.252205 19.662002 
L 290.615049 19.020934 
L 291.1829 18.979556 
L 291.750752 19.170709 
L 292.432174 19.670267 
L 293.567877 20.538271 
L 294.135729 20.661665 
L 294.59001 20.544194 
L 295.157861 20.159341 
L 296.747846 18.884039 
L 297.202127 18.888134 
L 297.656408 19.16157 
L 299.473533 20.62798 
L 299.814244 20.538745 
L 300.268526 20.174274 
L 301.404229 19.03071 
L 301.85851 19.003333 
L 302.426362 19.242057 
L 303.107784 19.796449 
L 304.016346 20.562634 
L 304.470627 20.652998 
L 304.924909 20.504009 
L 305.719901 19.940262 
L 306.287752 19.620065 
L 306.855604 19.613854 
L 307.423455 19.563006 
L 308.332018 19.387365 
L 308.786299 19.600973 
L 309.581291 19.986975 
L 310.376284 20.339375 
L 311.284846 20.791391 
L 311.625557 20.71583 
L 311.966268 20.40646 
L 313.101971 19.014504 
L 313.442682 18.960228 
L 313.896963 19.154708 
L 314.919096 19.764475 
L 315.941229 19.998312 
L 317.417643 19.948482 
L 319.007628 19.399423 
L 319.91619 19.685478 
L 320.484042 20.111616 
L 321.165464 20.665507 
L 321.506174 20.678458 
L 321.846885 20.44132 
L 322.528307 19.554084 
L 323.209729 18.750828 
L 323.55044 18.634921 
L 323.891151 18.849594 
L 324.459003 19.695982 
L 325.140425 20.69272 
L 325.594706 21.036623 
L 326.048987 21.114859 
L 326.389698 21.010947 
L 326.730409 20.703035 
L 327.298261 19.790212 
L 327.979682 18.810883 
L 328.433964 18.531266 
L 328.774675 18.603617 
L 329.228956 19.044453 
L 330.81894 20.970938 
L 331.046081 20.950682 
L 331.386792 20.656489 
L 332.749636 18.92702 
L 333.203917 18.947719 
L 334.566761 19.409768 
L 336.497456 20.698863 
L 336.951737 20.643175 
L 337.406019 20.319123 
L 338.541722 19.345539 
L 338.996003 19.314764 
L 339.677425 19.581812 
L 341.267409 20.303236 
L 341.835261 20.24604 
L 342.516683 19.945184 
L 343.879526 19.28948 
L 344.447378 19.266517 
L 345.1288 19.479675 
L 347.173066 20.34119 
L 348.081628 20.361505 
L 349.330902 20.12719 
L 352.738011 19.3458 
L 353.760144 19.409088 
L 355.690839 19.943758 
L 357.507964 20.479106 
L 358.302956 20.250548 
L 361.028644 19.23666 
L 361.710066 19.204238 
L 363.07291 19.498773 
L 365.117175 20.157392 
L 366.252878 20.071299 
L 368.297144 19.817789 
L 369.887128 19.601432 
L 371.363543 19.740195 
L 372.612816 20.113659 
L 373.748519 20.353825 
L 374.997793 20.389571 
L 376.133496 20.246396 
L 379.654176 19.458647 
L 380.676308 19.431453 
L 381.698441 19.532753 
L 383.061285 19.725919 
L 384.424129 19.926324 
L 386.241254 20.303176 
L 387.263387 20.230918 
L 388.285519 19.914352 
L 390.329785 19.272754 
L 391.465488 19.201065 
L 393.055473 19.465209 
L 396.121871 19.892124 
L 397.598285 19.822064 
L 399.869692 19.790874 
L 400.323973 19.795501 
L 400.323973 19.795501 
" clip-path="url(#pf6099e8a64)" style="fill: none; stroke: #d62728; stroke-linecap: square"/>
   </g>
   <g id="patch_3">
    <path d="M 42.577482 256.38684 
L 42.577482 7.2 
" style="fill: none; stroke: #000000; stroke-width: 0.8; stroke-linejoin: miter; stroke-linecap: square"/>
   </g>
   <g id="patch_4">
    <path d="M 417.35952 256.38684 
L 417.35952 7.2 
" style="fill: none; stroke: #000000; stroke-width: 0.8; stroke-linejoin: miter; stroke-linecap: square"/>
   </g>
   <g id="patch_5">
    <path d="M 42.577482 256.38684 
L 417.35952 256.38684 
" style="fill: none; stroke: #000000; stroke-width: 0.8; stroke-linejoin: miter; stroke-linecap: square"/>
   </g>
   <g id="patch_6">
    <path d="M 42.577482 7.2 
L 417.35952 7.2 
" style="fill: none; stroke: #000000; stroke-width: 0.8; stroke-linejoin: miter; stroke-linecap: square"/>
   </g>
   <g id="legend_1">
    <g id="patch_7">
     <path d="M 343.598644 249.88684 
L 408.25952 249.88684 
Q 410.85952 249.88684 410.85952 247.28684 
L 410.85952 189.764891 
Q 410.85952 187.164891 408.25952 187.164891 
L 343.598644 187.164891 
Q 340.998644 187.164891 340.998644 189.764891 
L 340.998644 247.28684 
Q 340.998644 249.88684 343.598644 249.88684 
z
" style="fill: #ffffff; opacity: 0.8; stroke: #cccccc; stroke-width: 0.24; stroke-linejoin: miter"/>
    </g>
    <g id="line2d_18">
     <path d="M 346.198644 197.528465 
L 359.198644 197.528465 
L 372.198644 197.528465 
" style="fill: none; stroke: #ff7f0e; stroke-linecap: square"/>
    </g>
    <g id="text_16">
     <!-- $\langle \sigma_z\rangle$ -->
     <g transform="translate(382.598644 202.078465) scale(0.13 -0.13)">
      <defs>
       <path id="CMSY10-68" d="M 2099 4557 
C 2131 4627 2131 4640 2131 4672 
C 2131 4742 2074 4800 2003 4800 
C 1946 4800 1901 4768 1856 4653 
L 736 1715 
C 723 1677 704 1638 704 1600 
C 704 1581 704 1568 736 1491 
L 1856 -1446 
C 1882 -1517 1914 -1600 2003 -1600 
C 2074 -1600 2131 -1542 2131 -1472 
C 2131 -1453 2131 -1440 2099 -1370 
L 966 1600 
L 2099 4557 
z
" transform="scale(0.015625)"/>
       <path id="CMMI12-1b" d="M 3251 2408 
C 3334 2408 3546 2408 3546 2612 
C 3546 2752 3424 2752 3309 2752 
L 1894 2752 
C 934 2752 243 1686 243 932 
C 243 390 595 -64 1171 -64 
C 1926 -64 2752 747 2752 1705 
C 2752 1954 2694 2196 2541 2408 
L 3251 2408 
z
M 1178 64 
C 851 64 614 313 614 754 
C 614 1137 845 2408 1786 2408 
C 2061 2408 2368 2274 2368 1781 
C 2368 1558 2266 1021 2042 652 
C 1811 275 1466 64 1178 64 
z
" transform="scale(0.015625)"/>
       <path id="CMMI12-7a" d="M 813 486 
C 1088 803 1312 1004 1632 1296 
C 2016 1632 2182 1793 2272 1891 
C 2720 2338 2944 2713 2944 2764 
C 2944 2816 2893 2816 2880 2816 
C 2835 2816 2822 2793 2790 2750 
C 2630 2494 2477 2367 2310 2367 
C 2176 2367 2106 2421 1984 2565 
C 1850 2715 1741 2816 1555 2816 
C 1088 2816 806 2257 806 2128 
C 806 2108 813 2068 870 2068 
C 922 2068 928 2091 947 2133 
C 1056 2372 1363 2414 1485 2414 
C 1619 2414 1747 2376 1882 2327 
C 2125 2240 2227 2240 2291 2240 
C 2336 2240 2362 2240 2394 2246 
C 2182 1994 1837 1683 1549 1418 
L 902 816 
C 512 415 275 33 275 -12 
C 275 -51 307 -64 346 -64 
C 384 -64 390 -57 435 14 
C 538 163 742 384 979 384 
C 1114 384 1178 342 1306 193 
C 1427 61 1536 -64 1741 -64 
C 2368 -64 2726 732 2726 876 
C 2726 903 2720 942 2656 942 
C 2605 942 2598 917 2579 855 
C 2438 488 2061 338 1811 338 
C 1677 338 1549 376 1414 425 
C 1158 512 1088 512 1005 512 
C 941 512 870 512 813 486 
z
" transform="scale(0.015625)"/>
       <path id="CMSY10-69" d="M 1747 1491 
C 1779 1568 1779 1581 1779 1600 
C 1779 1619 1779 1632 1747 1709 
L 627 4653 
C 589 4762 550 4800 480 4800 
C 410 4800 352 4742 352 4672 
C 352 4653 352 4640 384 4570 
L 1517 1600 
L 384 -1357 
C 352 -1427 352 -1440 352 -1472 
C 352 -1542 410 -1600 480 -1600 
C 563 -1600 589 -1536 614 -1472 
L 1747 1491 
z
" transform="scale(0.015625)"/>
      </defs>
      <use xlink:href="#CMSY10-68" transform="scale(0.996264)"/>
      <use xlink:href="#CMMI12-1b" transform="translate(38.743734 0) scale(0.996264)"/>
      <use xlink:href="#CMMI12-7a" transform="translate(94.189195 -14.943915) scale(0.697382)"/>
      <use xlink:href="#CMSY10-69" transform="translate(129.51575 0) scale(0.996264)"/>
     </g>
    </g>
    <g id="line2d_19">
     <path d="M 346.198644 216.979897 
L 359.198644 216.979897 
L 372.198644 216.979897 
" style="fill: none; stroke: #2ca02c; stroke-linecap: square"/>
    </g>
    <g id="text_17">
     <!-- $\langle \sigma_x\rangle$ -->
     <g transform="translate(382.598644 221.529897) scale(0.13 -0.13)">
      <defs>
       <path id="CMMI12-78" d="M 3034 2606 
C 2829 2567 2752 2414 2752 2293 
C 2752 2139 2874 2088 2963 2088 
C 3155 2088 3290 2254 3290 2427 
C 3290 2695 2982 2816 2714 2816 
C 2323 2816 2106 2433 2048 2312 
C 1901 2816 1504 2816 1389 2816 
C 736 2816 390 1980 390 1839 
C 390 1814 416 1782 461 1782 
C 512 1782 525 1820 538 1846 
C 755 2555 1184 2689 1370 2689 
C 1658 2689 1715 2420 1715 2267 
C 1715 2127 1677 1980 1600 1673 
L 1382 798 
C 1286 415 1101 64 762 64 
C 730 64 570 64 435 147 
C 666 192 717 383 717 460 
C 717 588 621 664 499 664 
C 346 664 179 530 179 326 
C 179 57 480 -64 755 -64 
C 1062 -64 1280 179 1414 441 
C 1517 64 1837 -64 2074 -64 
C 2726 -64 3072 773 3072 913 
C 3072 945 3046 971 3008 971 
C 2950 971 2944 939 2925 888 
C 2752 326 2381 64 2093 64 
C 1869 64 1747 230 1747 492 
C 1747 632 1773 734 1875 1156 
L 2099 2024 
C 2195 2408 2413 2689 2707 2689 
C 2720 2689 2899 2689 3034 2606 
z
" transform="scale(0.015625)"/>
      </defs>
      <use xlink:href="#CMSY10-68" transform="scale(0.996264)"/>
      <use xlink:href="#CMMI12-1b" transform="translate(38.743734 0) scale(0.996264)"/>
      <use xlink:href="#CMMI12-78" transform="translate(94.189195 -14.943915) scale(0.697382)"/>
      <use xlink:href="#CMSY10-69" transform="translate(133.490986 0) scale(0.996264)"/>
     </g>
    </g>
    <g id="line2d_20">
     <path d="M 346.198644 236.431329 
L 359.198644 236.431329 
L 372.198644 236.431329 
" style="fill: none; stroke: #d62728; stroke-linecap: square"/>
    </g>
    <g id="text_18">
     <!-- $\langle \sigma_y\rangle$ -->
     <g transform="translate(382.598644 240.981329) scale(0.13 -0.13)">
      <defs>
       <path id="CMMI12-79" d="M 1683 -700 
C 1510 -939 1261 -1152 947 -1152 
C 870 -1152 563 -1152 467 -889 
C 486 -895 518 -895 531 -895 
C 723 -895 851 -729 851 -582 
C 851 -435 730 -384 634 -384 
C 531 -384 307 -458 307 -759 
C 307 -1071 582 -1286 947 -1286 
C 1587 -1286 2234 -700 2413 6 
L 3040 2485 
C 3046 2517 3059 2556 3059 2594 
C 3059 2689 2982 2753 2886 2753 
C 2829 2753 2694 2727 2643 2535 
L 2170 658 
C 2138 543 2138 530 2086 460 
C 1958 281 1747 64 1440 64 
C 1082 64 1050 415 1050 588 
C 1050 952 1222 1443 1395 1903 
C 1466 2088 1504 2178 1504 2305 
C 1504 2574 1312 2816 998 2816 
C 410 2816 173 1890 173 1839 
C 173 1814 198 1782 243 1782 
C 301 1782 307 1807 333 1897 
C 486 2433 730 2689 979 2689 
C 1037 2689 1146 2689 1146 2478 
C 1146 2312 1075 2127 979 1884 
C 666 1047 666 837 666 683 
C 666 77 1101 -64 1421 -64 
C 1606 -64 1837 -6 2061 230 
L 2067 224 
C 1971 -147 1907 -392 1683 -700 
z
" transform="scale(0.015625)"/>
      </defs>
      <use xlink:href="#CMSY10-68" transform="scale(0.996264)"/>
      <use xlink:href="#CMMI12-1b" transform="translate(38.743734 0) scale(0.996264)"/>
      <use xlink:href="#CMMI12-79" transform="translate(94.189195 -14.943915) scale(0.697382)"/>
      <use xlink:href="#CMSY10-69" transform="translate(130.484301 0) scale(0.996264)"/>
     </g>
    </g>
   </g>
  </g>
 </g>
 <defs>
  <clipPath id="pf6099e8a64">
   <rect x="42.577482" y="7.2" width="374.782038" height="249.18684"/>
  </clipPath>
 </defs>
</svg>
