<?xml version="1.0" encoding="utf-8" standalone="no"?>
<!DOCTYPE svg PUBLIC "-//W3C//DTD SVG 1.1//EN"
  "http://www.w3.org/Graphics/SVG/1.1/DTD/svg11.dtd">
<svg xmlns:xlink="http://www.w3.org/1999/xlink" width="497.99952pt" height="276.17976pt" viewBox="0 0 497.99952 276.17976" xmlns="http://www.w3.org/2000/svg" version="1.1">
 <metadata>
  <rdf:RDF xmlns:dc="http://purl.org/dc/elements/1.1/" xmlns:cc="http://creativecommons.org/ns#" xmlns:rdf="http://www.w3.org/1999/02/22-rdf-syntax-ns#">
   <cc:Work>
    <dc:type rdf:resource="http://purl.org/dc/dcmitype/StillImage"/>
    <dc:date>1980-01-01T00:00:00+00:00</dc:date>
    <dc:format>image/svg+xml</dc:format>
    <dc:creator>
     <cc:Agent>
      <dc:title>Matplotlib v3.6.2, https://matplotlib.org/</dc:title>
     </cc:Agent>
    </dc:creator>
   </cc:Work>
  </rdf:RDF>
 </metadata>
 <defs>
  <style type="text/css">*{stroke-linejoin: round; stroke-linecap: butt}</style>
 </defs>
 <g id="figure_1">
  <g id="patch_1">
   <path d="M 0 276.17976 
L 497.99952 276.17976 
L 497.99952 0 
L 0 0 
z
" style="fill: #ffffff"/>
  </g>
  <g id="axes_1">
   <g id="patch_2">
    <path d="M 37.941379 99.004479 
L 243.882429 99.004479 
L 243.882429 20.118498 
L 37.941379 20.118498 
z
" style="fill: #ffffff"/>
   </g>
   <g id="matplotlib.axis_1">
    <g id="xtick_1">
     <g id="line2d_1">
      <defs>
       <path id="m3609e1855d" d="M 0 0 
L 0 3.5 
" style="stroke: #000000; stroke-width: 0.8"/>
      </defs>
      <g>
       <use xlink:href="#m3609e1855d" x="41.061698" y="99.004479" style="stroke: #000000; stroke-width: 0.8"/>
      </g>
     </g>
     <g id="text_1">
      <!-- $\mathdefault{−0.2}$ -->
      <g transform="translate(32.3581 113.639281) scale(0.08 -0.08)">
       <defs>
        <path id="CMSY10-0" d="M 4218 1472 
C 4326 1472 4442 1472 4442 1600 
C 4442 1728 4326 1728 4218 1728 
L 755 1728 
C 646 1728 531 1728 531 1600 
C 531 1472 646 1472 755 1472 
L 4218 1472 
z
" transform="scale(0.015625)"/>
        <path id="CMR17-30" d="M 2688 2025 
C 2688 2416 2682 3080 2413 3591 
C 2176 4039 1798 4198 1466 4198 
C 1158 4198 768 4058 525 3597 
C 269 3118 243 2524 243 2025 
C 243 1661 250 1106 448 619 
C 723 -39 1216 -128 1466 -128 
C 1760 -128 2208 -7 2470 600 
C 2662 1042 2688 1559 2688 2025 
z
M 1466 -26 
C 1056 -26 813 325 723 812 
C 653 1188 653 1738 653 2096 
C 653 2588 653 2997 736 3387 
C 858 3929 1216 4096 1466 4096 
C 1728 4096 2067 3923 2189 3400 
C 2272 3036 2278 2607 2278 2096 
C 2278 1680 2278 1169 2202 792 
C 2067 95 1690 -26 1466 -26 
z
" transform="scale(0.015625)"/>
        <path id="CMMI12-3a" d="M 1178 307 
C 1178 492 1024 619 870 619 
C 685 619 557 466 557 313 
C 557 128 710 0 864 0 
C 1050 0 1178 153 1178 307 
z
" transform="scale(0.015625)"/>
        <path id="CMR17-32" d="M 2669 989 
L 2554 989 
C 2490 536 2438 459 2413 420 
C 2381 369 1920 369 1830 369 
L 602 369 
C 832 619 1280 1072 1824 1597 
C 2214 1967 2669 2402 2669 3035 
C 2669 3790 2067 4224 1395 4224 
C 691 4224 262 3604 262 3030 
C 262 2780 448 2748 525 2748 
C 589 2748 781 2787 781 3010 
C 781 3207 614 3264 525 3264 
C 486 3264 448 3258 422 3245 
C 544 3790 915 4058 1306 4058 
C 1862 4058 2227 3617 2227 3035 
C 2227 2479 1901 2000 1536 1584 
L 262 146 
L 262 0 
L 2515 0 
L 2669 989 
z
" transform="scale(0.015625)"/>
       </defs>
       <use xlink:href="#CMSY10-0" transform="scale(0.996264)"/>
       <use xlink:href="#CMR17-30" transform="translate(77.487468 0) scale(0.996264)"/>
       <use xlink:href="#CMMI12-3a" transform="translate(123.177945 0) scale(0.996264)"/>
       <use xlink:href="#CMR17-32" transform="translate(150.275122 0) scale(0.996264)"/>
      </g>
     </g>
    </g>
    <g id="xtick_2">
     <g id="line2d_2">
      <g>
       <use xlink:href="#m3609e1855d" x="72.264887" y="99.004479" style="stroke: #000000; stroke-width: 0.8"/>
      </g>
     </g>
     <g id="text_2">
      <!-- $\mathdefault{−0.1}$ -->
      <g transform="translate(63.561289 113.639281) scale(0.08 -0.08)">
       <defs>
        <path id="CMR17-31" d="M 1702 4058 
C 1702 4192 1696 4192 1606 4192 
C 1357 3916 979 3827 621 3827 
C 602 3827 570 3827 563 3808 
C 557 3795 557 3782 557 3648 
C 755 3648 1088 3686 1344 3839 
L 1344 461 
C 1344 236 1331 160 781 160 
L 589 160 
L 589 0 
C 896 0 1216 0 1523 0 
C 1830 0 2150 0 2458 0 
L 2458 160 
L 2266 160 
C 1715 160 1702 230 1702 458 
L 1702 4058 
z
" transform="scale(0.015625)"/>
       </defs>
       <use xlink:href="#CMSY10-0" transform="scale(0.996264)"/>
       <use xlink:href="#CMR17-30" transform="translate(77.487468 0) scale(0.996264)"/>
       <use xlink:href="#CMMI12-3a" transform="translate(123.177945 0) scale(0.996264)"/>
       <use xlink:href="#CMR17-31" transform="translate(150.275122 0) scale(0.996264)"/>
      </g>
     </g>
    </g>
    <g id="xtick_3">
     <g id="line2d_3">
      <g>
       <use xlink:href="#m3609e1855d" x="103.468077" y="99.004479" style="stroke: #000000; stroke-width: 0.8"/>
      </g>
     </g>
     <g id="text_3">
      <!-- $\mathdefault{0.0}$ -->
      <g transform="translate(98.057732 113.639281) scale(0.08 -0.08)">
       <use xlink:href="#CMR17-30" transform="scale(0.996264)"/>
       <use xlink:href="#CMMI12-3a" transform="translate(45.690477 0) scale(0.996264)"/>
       <use xlink:href="#CMR17-30" transform="translate(72.787654 0) scale(0.996264)"/>
      </g>
     </g>
    </g>
    <g id="xtick_4">
     <g id="line2d_4">
      <g>
       <use xlink:href="#m3609e1855d" x="134.671266" y="99.004479" style="stroke: #000000; stroke-width: 0.8"/>
      </g>
     </g>
     <g id="text_4">
      <!-- $\mathdefault{0.1}$ -->
      <g transform="translate(129.260921 113.639281) scale(0.08 -0.08)">
       <use xlink:href="#CMR17-30" transform="scale(0.996264)"/>
       <use xlink:href="#CMMI12-3a" transform="translate(45.690477 0) scale(0.996264)"/>
       <use xlink:href="#CMR17-31" transform="translate(72.787654 0) scale(0.996264)"/>
      </g>
     </g>
    </g>
    <g id="xtick_5">
     <g id="line2d_5">
      <g>
       <use xlink:href="#m3609e1855d" x="165.874455" y="99.004479" style="stroke: #000000; stroke-width: 0.8"/>
      </g>
     </g>
     <g id="text_5">
      <!-- $\mathdefault{0.2}$ -->
      <g transform="translate(160.464111 113.639281) scale(0.08 -0.08)">
       <use xlink:href="#CMR17-30" transform="scale(0.996264)"/>
       <use xlink:href="#CMMI12-3a" transform="translate(45.690477 0) scale(0.996264)"/>
       <use xlink:href="#CMR17-32" transform="translate(72.787654 0) scale(0.996264)"/>
      </g>
     </g>
    </g>
    <g id="xtick_6">
     <g id="line2d_6">
      <g>
       <use xlink:href="#m3609e1855d" x="197.077645" y="99.004479" style="stroke: #000000; stroke-width: 0.8"/>
      </g>
     </g>
     <g id="text_6">
      <!-- $\mathdefault{0.3}$ -->
      <g transform="translate(191.6673 113.639281) scale(0.08 -0.08)">
       <defs>
        <path id="CMR17-33" d="M 1414 2157 
C 1984 2157 2234 1662 2234 1090 
C 2234 320 1824 25 1453 25 
C 1114 25 563 194 390 693 
C 422 680 454 680 486 680 
C 640 680 755 782 755 948 
C 755 1133 614 1216 486 1216 
C 378 1216 211 1165 211 926 
C 211 335 787 -128 1466 -128 
C 2176 -128 2720 430 2720 1085 
C 2720 1707 2208 2157 1600 2227 
C 2086 2328 2554 2756 2554 3329 
C 2554 3820 2048 4179 1472 4179 
C 890 4179 378 3829 378 3329 
C 378 3110 544 3072 627 3072 
C 762 3072 877 3155 877 3321 
C 877 3486 762 3569 627 3569 
C 602 3569 570 3569 544 3557 
C 730 3959 1235 4032 1459 4032 
C 1683 4032 2106 3925 2106 3320 
C 2106 3143 2080 2828 1862 2550 
C 1670 2304 1453 2304 1242 2284 
C 1210 2284 1062 2269 1037 2269 
C 992 2263 966 2257 966 2208 
C 966 2163 973 2157 1101 2157 
L 1414 2157 
z
" transform="scale(0.015625)"/>
       </defs>
       <use xlink:href="#CMR17-30" transform="scale(0.996264)"/>
       <use xlink:href="#CMMI12-3a" transform="translate(45.690477 0) scale(0.996264)"/>
       <use xlink:href="#CMR17-33" transform="translate(72.787654 0) scale(0.996264)"/>
      </g>
     </g>
    </g>
    <g id="xtick_7">
     <g id="line2d_7">
      <g>
       <use xlink:href="#m3609e1855d" x="228.280834" y="99.004479" style="stroke: #000000; stroke-width: 0.8"/>
      </g>
     </g>
     <g id="text_7">
      <!-- $\mathdefault{0.4}$ -->
      <g transform="translate(222.870489 113.639281) scale(0.08 -0.08)">
       <defs>
        <path id="CMR17-34" d="M 2150 4122 
C 2150 4256 2144 4256 2029 4256 
L 128 1254 
L 128 1088 
L 1779 1088 
L 1779 457 
C 1779 224 1766 160 1318 160 
L 1197 160 
L 1197 0 
C 1402 0 1747 0 1965 0 
C 2182 0 2528 0 2733 0 
L 2733 160 
L 2611 160 
C 2163 160 2150 224 2150 457 
L 2150 1088 
L 2803 1088 
L 2803 1254 
L 2150 1254 
L 2150 4122 
z
M 1798 3703 
L 1798 1254 
L 256 1254 
L 1798 3703 
z
" transform="scale(0.015625)"/>
       </defs>
       <use xlink:href="#CMR17-30" transform="scale(0.996264)"/>
       <use xlink:href="#CMMI12-3a" transform="translate(45.690477 0) scale(0.996264)"/>
       <use xlink:href="#CMR17-34" transform="translate(72.787654 0) scale(0.996264)"/>
      </g>
     </g>
    </g>
   </g>
   <g id="matplotlib.axis_2">
    <g id="ytick_1">
     <g id="line2d_8">
      <defs>
       <path id="m307f183480" d="M 0 0 
L -3.5 0 
" style="stroke: #000000; stroke-width: 0.8"/>
      </defs>
      <g>
       <use xlink:href="#m307f183480" x="37.941379" y="96.29005" style="stroke: #000000; stroke-width: 0.8"/>
      </g>
     </g>
     <g id="text_8">
      <!-- $\mathdefault{0}$ -->
      <g transform="translate(24.607196 99.057451) scale(0.08 -0.08)">
       <use xlink:href="#CMR17-30" transform="scale(0.996264)"/>
      </g>
     </g>
    </g>
    <g id="ytick_2">
     <g id="line2d_9">
      <g>
       <use xlink:href="#m307f183480" x="37.941379" y="64.019353" style="stroke: #000000; stroke-width: 0.8"/>
      </g>
     </g>
     <g id="text_9">
      <!-- $\mathdefault{20}$ -->
      <g transform="translate(20.373013 66.786753) scale(0.08 -0.08)">
       <use xlink:href="#CMR17-32" transform="scale(0.996264)"/>
       <use xlink:href="#CMR17-30" transform="translate(45.690477 0) scale(0.996264)"/>
      </g>
     </g>
    </g>
    <g id="ytick_3">
     <g id="line2d_10">
      <g>
       <use xlink:href="#m307f183480" x="37.941379" y="31.748655" style="stroke: #000000; stroke-width: 0.8"/>
      </g>
     </g>
     <g id="text_10">
      <!-- $\mathdefault{40}$ -->
      <g transform="translate(20.373013 34.516056) scale(0.08 -0.08)">
       <use xlink:href="#CMR17-34" transform="scale(0.996264)"/>
       <use xlink:href="#CMR17-30" transform="translate(45.690477 0) scale(0.996264)"/>
      </g>
     </g>
    </g>
   </g>
   <g id="line2d_11">
    <path d="M 84.746163 64.584073 
L 103.468077 47.545908 
L 122.18999 44.022025 
L 140.911904 42.887296 
L 159.633817 44.802297 
L 178.355731 48.2129 
L 197.077645 53.842618 
L 215.799558 73.145954 
" clip-path="url(#p3e9ff05ee2)" style="fill: none; stroke: #1f77b4; stroke-width: 0.5; stroke-linecap: square"/>
    <defs>
     <path id="m28e745ff10" d="M 0 1.4 
C 0.371284 1.4 0.727412 1.252487 0.989949 0.989949 
C 1.252487 0.727412 1.4 0.371284 1.4 0 
C 1.4 -0.371284 1.252487 -0.727412 0.989949 -0.989949 
C 0.727412 -1.252487 0.371284 -1.4 0 -1.4 
C -0.371284 -1.4 -0.727412 -1.252487 -0.989949 -0.989949 
C -1.252487 -0.727412 -1.4 -0.371284 -1.4 0 
C -1.4 0.371284 -1.252487 0.727412 -0.989949 0.989949 
C -0.727412 1.252487 -0.371284 1.4 0 1.4 
z
"/>
    </defs>
    <g clip-path="url(#p3e9ff05ee2)">
     <use xlink:href="#m28e745ff10" x="84.746163" y="64.584073" style="fill: #1f77b4"/>
     <use xlink:href="#m28e745ff10" x="103.468077" y="47.545908" style="fill: #1f77b4"/>
     <use xlink:href="#m28e745ff10" x="122.18999" y="44.022025" style="fill: #1f77b4"/>
     <use xlink:href="#m28e745ff10" x="140.911904" y="42.887296" style="fill: #1f77b4"/>
     <use xlink:href="#m28e745ff10" x="159.633817" y="44.802297" style="fill: #1f77b4"/>
     <use xlink:href="#m28e745ff10" x="178.355731" y="48.2129" style="fill: #1f77b4"/>
     <use xlink:href="#m28e745ff10" x="197.077645" y="53.842618" style="fill: #1f77b4"/>
     <use xlink:href="#m28e745ff10" x="215.799558" y="73.145954" style="fill: #1f77b4"/>
    </g>
   </g>
   <g id="line2d_12">
    <path d="M 66.024249 50.541894 
L 84.746163 25.95144 
L 103.468077 25.622278 
L 122.18999 25.707329 
L 140.911904 25.724877 
L 159.633817 30.987487 
L 178.355731 38.623627 
L 197.077645 59.893342 
" clip-path="url(#p3e9ff05ee2)" style="fill: none; stroke: #ff7f0e; stroke-width: 0.5; stroke-linecap: square"/>
    <defs>
     <path id="m11a8f96fbe" d="M 0 -2.8 
L -2.8 2.8 
L 2.8 2.8 
z
"/>
    </defs>
    <g clip-path="url(#p3e9ff05ee2)">
     <use xlink:href="#m11a8f96fbe" x="66.024249" y="50.541894" style="fill: #ff7f0e"/>
     <use xlink:href="#m11a8f96fbe" x="84.746163" y="25.95144" style="fill: #ff7f0e"/>
     <use xlink:href="#m11a8f96fbe" x="103.468077" y="25.622278" style="fill: #ff7f0e"/>
     <use xlink:href="#m11a8f96fbe" x="122.18999" y="25.707329" style="fill: #ff7f0e"/>
     <use xlink:href="#m11a8f96fbe" x="140.911904" y="25.724877" style="fill: #ff7f0e"/>
     <use xlink:href="#m11a8f96fbe" x="159.633817" y="30.987487" style="fill: #ff7f0e"/>
     <use xlink:href="#m11a8f96fbe" x="178.355731" y="38.623627" style="fill: #ff7f0e"/>
     <use xlink:href="#m11a8f96fbe" x="197.077645" y="59.893342" style="fill: #ff7f0e"/>
    </g>
   </g>
   <g id="line2d_13">
    <path d="M 47.302336 67.3043 
L 66.024249 33.701784 
L 84.746163 25.586797 
L 103.468077 25.687786 
L 122.18999 25.895806 
L 140.911904 23.704225 
L 159.633817 25.658723 
L 178.355731 33.015868 
L 197.077645 53.017566 
L 215.799558 80.954011 
L 234.521472 95.418753 
" clip-path="url(#p3e9ff05ee2)" style="fill: none; stroke: #2ca02c; stroke-width: 0.5; stroke-linecap: square"/>
    <defs>
     <path id="ma9acb6864a" d="M 0 -2.8 
L -0.628639 -0.865248 
L -2.662958 -0.865248 
L -1.01716 0.330495 
L -1.645799 2.265248 
L -0 1.069505 
L 1.645799 2.265248 
L 1.01716 0.330495 
L 2.662958 -0.865248 
L 0.628639 -0.865248 
z
"/>
    </defs>
    <g clip-path="url(#p3e9ff05ee2)">
     <use xlink:href="#ma9acb6864a" x="47.302336" y="67.3043" style="fill: #2ca02c"/>
     <use xlink:href="#ma9acb6864a" x="66.024249" y="33.701784" style="fill: #2ca02c"/>
     <use xlink:href="#ma9acb6864a" x="84.746163" y="25.586797" style="fill: #2ca02c"/>
     <use xlink:href="#ma9acb6864a" x="103.468077" y="25.687786" style="fill: #2ca02c"/>
     <use xlink:href="#ma9acb6864a" x="122.18999" y="25.895806" style="fill: #2ca02c"/>
     <use xlink:href="#ma9acb6864a" x="140.911904" y="23.704225" style="fill: #2ca02c"/>
     <use xlink:href="#ma9acb6864a" x="159.633817" y="25.658723" style="fill: #2ca02c"/>
     <use xlink:href="#ma9acb6864a" x="178.355731" y="33.015868" style="fill: #2ca02c"/>
     <use xlink:href="#ma9acb6864a" x="197.077645" y="53.017566" style="fill: #2ca02c"/>
     <use xlink:href="#ma9acb6864a" x="215.799558" y="80.954011" style="fill: #2ca02c"/>
     <use xlink:href="#ma9acb6864a" x="234.521472" y="95.418753" style="fill: #2ca02c"/>
    </g>
   </g>
   <g id="patch_3">
    <path d="M 37.941379 99.004479 
L 37.941379 20.118498 
" style="fill: none; stroke: #000000; stroke-width: 0.8; stroke-linejoin: miter; stroke-linecap: square"/>
   </g>
   <g id="patch_4">
    <path d="M 243.882429 99.004479 
L 243.882429 20.118498 
" style="fill: none; stroke: #000000; stroke-width: 0.8; stroke-linejoin: miter; stroke-linecap: square"/>
   </g>
   <g id="patch_5">
    <path d="M 37.941379 99.004479 
L 243.882429 99.004479 
" style="fill: none; stroke: #000000; stroke-width: 0.8; stroke-linejoin: miter; stroke-linecap: square"/>
   </g>
   <g id="patch_6">
    <path d="M 37.941379 20.118498 
L 243.882429 20.118498 
" style="fill: none; stroke: #000000; stroke-width: 0.8; stroke-linejoin: miter; stroke-linecap: square"/>
   </g>
   <g id="text_11">
    <!-- $\eta$ -->
    <g transform="translate(138.438528 14.118498) scale(0.1 -0.1)">
     <defs>
      <path id="CMMI12-11" d="M 3040 1768 
C 3072 1895 3091 1973 3091 2145 
C 3091 2528 2867 2815 2381 2815 
C 1811 2815 1510 2413 1395 2254 
C 1376 2618 1114 2815 832 2815 
C 646 2815 499 2726 378 2483 
C 262 2254 173 1864 173 1839 
C 173 1813 198 1781 243 1781 
C 294 1781 301 1788 339 1934 
C 435 2311 557 2688 813 2688 
C 960 2688 1011 2586 1011 2394 
C 1011 2254 947 2005 902 1807 
L 723 1118 
C 698 996 627 709 595 593 
C 550 428 480 127 480 96 
C 480 6 550 -64 646 -64 
C 723 -64 813 -25 864 70 
C 877 102 934 326 966 453 
L 1107 1028 
L 1318 1871 
C 1331 1909 1491 2228 1728 2432 
C 1894 2586 2112 2688 2362 2688 
C 2618 2688 2707 2496 2707 2241 
C 2707 2055 2682 1953 2650 1831 
L 1907 -1107 
C 1901 -1139 1888 -1177 1888 -1216 
C 1888 -1312 1965 -1376 2061 -1376 
C 2118 -1376 2253 -1350 2304 -1158 
L 3040 1768 
z
" transform="scale(0.015625)"/>
     </defs>
     <use xlink:href="#CMMI12-11" transform="scale(0.996264)"/>
    </g>
   </g>
  </g>
  <g id="axes_2">
   <g id="patch_7">
    <path d="M 284.85847 99.004479 
L 490.79952 99.004479 
L 490.79952 20.118498 
L 284.85847 20.118498 
z
" style="fill: #ffffff"/>
   </g>
   <g id="matplotlib.axis_3">
    <g id="xtick_8">
     <g id="line2d_14">
      <g>
       <use xlink:href="#m3609e1855d" x="287.978789" y="99.004479" style="stroke: #000000; stroke-width: 0.8"/>
      </g>
     </g>
     <g id="text_12">
      <!-- $\mathdefault{−0.2}$ -->
      <g transform="translate(279.275191 113.639281) scale(0.08 -0.08)">
       <use xlink:href="#CMSY10-0" transform="scale(0.996264)"/>
       <use xlink:href="#CMR17-30" transform="translate(77.487468 0) scale(0.996264)"/>
       <use xlink:href="#CMMI12-3a" transform="translate(123.177945 0) scale(0.996264)"/>
       <use xlink:href="#CMR17-32" transform="translate(150.275122 0) scale(0.996264)"/>
      </g>
     </g>
    </g>
    <g id="xtick_9">
     <g id="line2d_15">
      <g>
       <use xlink:href="#m3609e1855d" x="319.181979" y="99.004479" style="stroke: #000000; stroke-width: 0.8"/>
      </g>
     </g>
     <g id="text_13">
      <!-- $\mathdefault{−0.1}$ -->
      <g transform="translate(310.478381 113.639281) scale(0.08 -0.08)">
       <use xlink:href="#CMSY10-0" transform="scale(0.996264)"/>
       <use xlink:href="#CMR17-30" transform="translate(77.487468 0) scale(0.996264)"/>
       <use xlink:href="#CMMI12-3a" transform="translate(123.177945 0) scale(0.996264)"/>
       <use xlink:href="#CMR17-31" transform="translate(150.275122 0) scale(0.996264)"/>
      </g>
     </g>
    </g>
    <g id="xtick_10">
     <g id="line2d_16">
      <g>
       <use xlink:href="#m3609e1855d" x="350.385168" y="99.004479" style="stroke: #000000; stroke-width: 0.8"/>
      </g>
     </g>
     <g id="text_14">
      <!-- $\mathdefault{0.0}$ -->
      <g transform="translate(344.974823 113.639281) scale(0.08 -0.08)">
       <use xlink:href="#CMR17-30" transform="scale(0.996264)"/>
       <use xlink:href="#CMMI12-3a" transform="translate(45.690477 0) scale(0.996264)"/>
       <use xlink:href="#CMR17-30" transform="translate(72.787654 0) scale(0.996264)"/>
      </g>
     </g>
    </g>
    <g id="xtick_11">
     <g id="line2d_17">
      <g>
       <use xlink:href="#m3609e1855d" x="381.588357" y="99.004479" style="stroke: #000000; stroke-width: 0.8"/>
      </g>
     </g>
     <g id="text_15">
      <!-- $\mathdefault{0.1}$ -->
      <g transform="translate(376.178013 113.639281) scale(0.08 -0.08)">
       <use xlink:href="#CMR17-30" transform="scale(0.996264)"/>
       <use xlink:href="#CMMI12-3a" transform="translate(45.690477 0) scale(0.996264)"/>
       <use xlink:href="#CMR17-31" transform="translate(72.787654 0) scale(0.996264)"/>
      </g>
     </g>
    </g>
    <g id="xtick_12">
     <g id="line2d_18">
      <g>
       <use xlink:href="#m3609e1855d" x="412.791547" y="99.004479" style="stroke: #000000; stroke-width: 0.8"/>
      </g>
     </g>
     <g id="text_16">
      <!-- $\mathdefault{0.2}$ -->
      <g transform="translate(407.381202 113.639281) scale(0.08 -0.08)">
       <use xlink:href="#CMR17-30" transform="scale(0.996264)"/>
       <use xlink:href="#CMMI12-3a" transform="translate(45.690477 0) scale(0.996264)"/>
       <use xlink:href="#CMR17-32" transform="translate(72.787654 0) scale(0.996264)"/>
      </g>
     </g>
    </g>
    <g id="xtick_13">
     <g id="line2d_19">
      <g>
       <use xlink:href="#m3609e1855d" x="443.994736" y="99.004479" style="stroke: #000000; stroke-width: 0.8"/>
      </g>
     </g>
     <g id="text_17">
      <!-- $\mathdefault{0.3}$ -->
      <g transform="translate(438.584391 113.639281) scale(0.08 -0.08)">
       <use xlink:href="#CMR17-30" transform="scale(0.996264)"/>
       <use xlink:href="#CMMI12-3a" transform="translate(45.690477 0) scale(0.996264)"/>
       <use xlink:href="#CMR17-33" transform="translate(72.787654 0) scale(0.996264)"/>
      </g>
     </g>
    </g>
    <g id="xtick_14">
     <g id="line2d_20">
      <g>
       <use xlink:href="#m3609e1855d" x="475.197925" y="99.004479" style="stroke: #000000; stroke-width: 0.8"/>
      </g>
     </g>
     <g id="text_18">
      <!-- $\mathdefault{0.4}$ -->
      <g transform="translate(469.787581 113.639281) scale(0.08 -0.08)">
       <use xlink:href="#CMR17-30" transform="scale(0.996264)"/>
       <use xlink:href="#CMMI12-3a" transform="translate(45.690477 0) scale(0.996264)"/>
       <use xlink:href="#CMR17-34" transform="translate(72.787654 0) scale(0.996264)"/>
      </g>
     </g>
    </g>
   </g>
   <g id="matplotlib.axis_4">
    <g id="ytick_4">
     <g id="line2d_21">
      <g>
       <use xlink:href="#m307f183480" x="284.85847" y="84.550746" style="stroke: #000000; stroke-width: 0.8"/>
      </g>
     </g>
     <g id="text_19">
      <!-- $\mathdefault{−0.005}$ -->
      <g transform="translate(249.882909 87.318147) scale(0.08 -0.08)">
       <defs>
        <path id="CMR17-35" d="M 730 3692 
C 794 3666 1056 3584 1325 3584 
C 1920 3584 2246 3911 2432 4100 
C 2432 4157 2432 4192 2394 4192 
C 2387 4192 2374 4192 2323 4163 
C 2099 4058 1837 3973 1517 3973 
C 1325 3973 1037 3999 723 4139 
C 653 4171 640 4171 634 4171 
C 602 4171 595 4164 595 4037 
L 595 2203 
C 595 2089 595 2057 659 2057 
C 691 2057 704 2070 736 2114 
C 941 2401 1222 2522 1542 2522 
C 1766 2522 2246 2382 2246 1289 
C 2246 1085 2246 715 2054 421 
C 1894 159 1645 25 1370 25 
C 947 25 518 320 403 814 
C 429 807 480 795 506 795 
C 589 795 749 840 749 1038 
C 749 1210 627 1280 506 1280 
C 358 1280 262 1190 262 1011 
C 262 454 704 -128 1382 -128 
C 2042 -128 2669 440 2669 1264 
C 2669 2030 2170 2624 1549 2624 
C 1222 2624 947 2503 730 2274 
L 730 3692 
z
" transform="scale(0.015625)"/>
       </defs>
       <use xlink:href="#CMSY10-0" transform="scale(0.996264)"/>
       <use xlink:href="#CMR17-30" transform="translate(77.487468 0) scale(0.996264)"/>
       <use xlink:href="#CMMI12-3a" transform="translate(123.177945 0) scale(0.996264)"/>
       <use xlink:href="#CMR17-30" transform="translate(150.275122 0) scale(0.996264)"/>
       <use xlink:href="#CMR17-30" transform="translate(195.965599 0) scale(0.996264)"/>
       <use xlink:href="#CMR17-35" transform="translate(241.656076 0) scale(0.996264)"/>
      </g>
     </g>
    </g>
    <g id="ytick_5">
     <g id="line2d_22">
      <g>
       <use xlink:href="#m307f183480" x="284.85847" y="54.394567" style="stroke: #000000; stroke-width: 0.8"/>
      </g>
     </g>
     <g id="text_20">
      <!-- $\mathdefault{0.000}$ -->
      <g transform="translate(256.469415 57.161968) scale(0.08 -0.08)">
       <use xlink:href="#CMR17-30" transform="scale(0.996264)"/>
       <use xlink:href="#CMMI12-3a" transform="translate(45.690477 0) scale(0.996264)"/>
       <use xlink:href="#CMR17-30" transform="translate(72.787654 0) scale(0.996264)"/>
       <use xlink:href="#CMR17-30" transform="translate(118.478131 0) scale(0.996264)"/>
       <use xlink:href="#CMR17-30" transform="translate(164.168608 0) scale(0.996264)"/>
      </g>
     </g>
    </g>
    <g id="ytick_6">
     <g id="line2d_23">
      <g>
       <use xlink:href="#m307f183480" x="284.85847" y="24.238389" style="stroke: #000000; stroke-width: 0.8"/>
      </g>
     </g>
     <g id="text_21">
      <!-- $\mathdefault{0.005}$ -->
      <g transform="translate(256.469415 27.00579) scale(0.08 -0.08)">
       <use xlink:href="#CMR17-30" transform="scale(0.996264)"/>
       <use xlink:href="#CMMI12-3a" transform="translate(45.690477 0) scale(0.996264)"/>
       <use xlink:href="#CMR17-30" transform="translate(72.787654 0) scale(0.996264)"/>
       <use xlink:href="#CMR17-30" transform="translate(118.478131 0) scale(0.996264)"/>
       <use xlink:href="#CMR17-35" transform="translate(164.168608 0) scale(0.996264)"/>
      </g>
     </g>
    </g>
   </g>
   <g id="line2d_24">
    <path d="M 294.219427 95.418753 
L 312.941341 84.513851 
L 331.663254 45.931255 
L 350.385168 39.586774 
L 369.107082 37.139883 
L 387.828995 30.325368 
L 406.550909 29.513333 
L 425.272822 30.615414 
L 443.994736 33.468008 
L 462.71665 43.536617 
L 481.438563 72.904328 
" clip-path="url(#pa57dedccf2)" style="fill: none; stroke: #1f77b4; stroke-width: 0.5; stroke-linecap: square"/>
    <g clip-path="url(#pa57dedccf2)">
     <use xlink:href="#m28e745ff10" x="294.219427" y="95.418753" style="fill: #1f77b4"/>
     <use xlink:href="#m28e745ff10" x="312.941341" y="84.513851" style="fill: #1f77b4"/>
     <use xlink:href="#m28e745ff10" x="331.663254" y="45.931255" style="fill: #1f77b4"/>
     <use xlink:href="#m28e745ff10" x="350.385168" y="39.586774" style="fill: #1f77b4"/>
     <use xlink:href="#m28e745ff10" x="369.107082" y="37.139883" style="fill: #1f77b4"/>
     <use xlink:href="#m28e745ff10" x="387.828995" y="30.325368" style="fill: #1f77b4"/>
     <use xlink:href="#m28e745ff10" x="406.550909" y="29.513333" style="fill: #1f77b4"/>
     <use xlink:href="#m28e745ff10" x="425.272822" y="30.615414" style="fill: #1f77b4"/>
     <use xlink:href="#m28e745ff10" x="443.994736" y="33.468008" style="fill: #1f77b4"/>
     <use xlink:href="#m28e745ff10" x="462.71665" y="43.536617" style="fill: #1f77b4"/>
     <use xlink:href="#m28e745ff10" x="481.438563" y="72.904328" style="fill: #1f77b4"/>
    </g>
   </g>
   <g id="line2d_25">
    <path d="M 294.219427 72.222318 
L 312.941341 41.14716 
L 331.663254 30.759132 
L 350.385168 30.67383 
L 369.107082 30.86618 
L 387.828995 27.660221 
L 406.550909 23.704225 
L 425.272822 25.889124 
L 443.994736 36.962935 
L 462.71665 65.377247 
L 481.438563 89.518881 
" clip-path="url(#pa57dedccf2)" style="fill: none; stroke: #ff7f0e; stroke-width: 0.5; stroke-linecap: square"/>
    <g clip-path="url(#pa57dedccf2)">
     <use xlink:href="#m11a8f96fbe" x="294.219427" y="72.222318" style="fill: #ff7f0e"/>
     <use xlink:href="#m11a8f96fbe" x="312.941341" y="41.14716" style="fill: #ff7f0e"/>
     <use xlink:href="#m11a8f96fbe" x="331.663254" y="30.759132" style="fill: #ff7f0e"/>
     <use xlink:href="#m11a8f96fbe" x="350.385168" y="30.67383" style="fill: #ff7f0e"/>
     <use xlink:href="#m11a8f96fbe" x="369.107082" y="30.86618" style="fill: #ff7f0e"/>
     <use xlink:href="#m11a8f96fbe" x="387.828995" y="27.660221" style="fill: #ff7f0e"/>
     <use xlink:href="#m11a8f96fbe" x="406.550909" y="23.704225" style="fill: #ff7f0e"/>
     <use xlink:href="#m11a8f96fbe" x="425.272822" y="25.889124" style="fill: #ff7f0e"/>
     <use xlink:href="#m11a8f96fbe" x="443.994736" y="36.962935" style="fill: #ff7f0e"/>
     <use xlink:href="#m11a8f96fbe" x="462.71665" y="65.377247" style="fill: #ff7f0e"/>
     <use xlink:href="#m11a8f96fbe" x="481.438563" y="89.518881" style="fill: #ff7f0e"/>
    </g>
   </g>
   <g id="line2d_26">
    <path d="M 294.219427 44.64246 
L 312.941341 33.3771 
L 331.663254 30.557943 
L 350.385168 30.680614 
L 369.107082 30.844252 
L 387.828995 27.663313 
L 406.550909 24.225651 
L 425.272822 25.797265 
L 443.994736 31.526988 
L 462.71665 44.541388 
L 481.438563 53.764718 
" clip-path="url(#pa57dedccf2)" style="fill: none; stroke: #2ca02c; stroke-width: 0.5; stroke-linecap: square"/>
    <g clip-path="url(#pa57dedccf2)">
     <use xlink:href="#ma9acb6864a" x="294.219427" y="44.64246" style="fill: #2ca02c"/>
     <use xlink:href="#ma9acb6864a" x="312.941341" y="33.3771" style="fill: #2ca02c"/>
     <use xlink:href="#ma9acb6864a" x="331.663254" y="30.557943" style="fill: #2ca02c"/>
     <use xlink:href="#ma9acb6864a" x="350.385168" y="30.680614" style="fill: #2ca02c"/>
     <use xlink:href="#ma9acb6864a" x="369.107082" y="30.844252" style="fill: #2ca02c"/>
     <use xlink:href="#ma9acb6864a" x="387.828995" y="27.663313" style="fill: #2ca02c"/>
     <use xlink:href="#ma9acb6864a" x="406.550909" y="24.225651" style="fill: #2ca02c"/>
     <use xlink:href="#ma9acb6864a" x="425.272822" y="25.797265" style="fill: #2ca02c"/>
     <use xlink:href="#ma9acb6864a" x="443.994736" y="31.526988" style="fill: #2ca02c"/>
     <use xlink:href="#ma9acb6864a" x="462.71665" y="44.541388" style="fill: #2ca02c"/>
     <use xlink:href="#ma9acb6864a" x="481.438563" y="53.764718" style="fill: #2ca02c"/>
    </g>
   </g>
   <g id="patch_8">
    <path d="M 284.85847 99.004479 
L 284.85847 20.118498 
" style="fill: none; stroke: #000000; stroke-width: 0.8; stroke-linejoin: miter; stroke-linecap: square"/>
   </g>
   <g id="patch_9">
    <path d="M 490.79952 99.004479 
L 490.79952 20.118498 
" style="fill: none; stroke: #000000; stroke-width: 0.8; stroke-linejoin: miter; stroke-linecap: square"/>
   </g>
   <g id="patch_10">
    <path d="M 284.85847 99.004479 
L 490.79952 99.004479 
" style="fill: none; stroke: #000000; stroke-width: 0.8; stroke-linejoin: miter; stroke-linecap: square"/>
   </g>
   <g id="patch_11">
    <path d="M 284.85847 20.118498 
L 490.79952 20.118498 
" style="fill: none; stroke: #000000; stroke-width: 0.8; stroke-linejoin: miter; stroke-linecap: square"/>
   </g>
   <g id="text_22">
    <!-- $\bar{P}$ -->
    <g transform="translate(384.223573 14.118498) scale(0.1 -0.1)">
     <defs>
      <path id="CMR17-16" d="M 2554 3520 
L 2554 3666 
L 378 3666 
L 378 3520 
L 2554 3520 
z
" transform="scale(0.015625)"/>
      <path id="CMMI12-50" d="M 1894 2023 
L 2970 2023 
C 3853 2023 4736 2673 4736 3401 
C 4736 3898 4314 4352 3507 4352 
L 1530 4352 
C 1408 4352 1350 4352 1350 4231 
C 1350 4167 1408 4167 1504 4167 
C 1894 4167 1894 4116 1894 4046 
C 1894 4034 1894 3995 1869 3899 
L 1005 472 
C 947 249 934 185 486 185 
C 365 185 301 185 301 70 
C 301 0 358 0 397 0 
C 518 0 646 0 768 0 
L 1517 0 
C 1638 0 1773 0 1894 0 
C 1946 0 2016 0 2016 121 
C 2016 185 1958 185 1862 185 
C 1478 185 1472 230 1472 293 
C 1472 325 1478 369 1485 401 
L 1894 2023 
z
M 2355 3930 
C 2413 4167 2438 4167 2688 4167 
L 3322 4167 
C 3802 4167 4198 4013 4198 3535 
C 4198 3369 4115 2827 3821 2534 
C 3712 2419 3405 2176 2822 2176 
L 1920 2176 
L 2355 3930 
z
" transform="scale(0.015625)"/>
     </defs>
     <use xlink:href="#CMR17-16" transform="translate(23.496833 25.189733) scale(0.996264)"/>
     <use xlink:href="#CMMI12-50" transform="scale(0.996264)"/>
    </g>
   </g>
  </g>
  <g id="axes_3">
   <g id="patch_12">
    <path d="M 37.941379 214.250367 
L 243.882429 214.250367 
L 243.882429 135.364387 
L 37.941379 135.364387 
z
" style="fill: #ffffff"/>
   </g>
   <g id="matplotlib.axis_5">
    <g id="xtick_15">
     <g id="line2d_27">
      <g>
       <use xlink:href="#m3609e1855d" x="41.061698" y="214.250367" style="stroke: #000000; stroke-width: 0.8"/>
      </g>
     </g>
     <g id="text_23">
      <!-- $\mathdefault{−0.2}$ -->
      <g transform="translate(32.3581 228.885169) scale(0.08 -0.08)">
       <use xlink:href="#CMSY10-0" transform="scale(0.996264)"/>
       <use xlink:href="#CMR17-30" transform="translate(77.487468 0) scale(0.996264)"/>
       <use xlink:href="#CMMI12-3a" transform="translate(123.177945 0) scale(0.996264)"/>
       <use xlink:href="#CMR17-32" transform="translate(150.275122 0) scale(0.996264)"/>
      </g>
     </g>
    </g>
    <g id="xtick_16">
     <g id="line2d_28">
      <g>
       <use xlink:href="#m3609e1855d" x="72.264887" y="214.250367" style="stroke: #000000; stroke-width: 0.8"/>
      </g>
     </g>
     <g id="text_24">
      <!-- $\mathdefault{−0.1}$ -->
      <g transform="translate(63.561289 228.885169) scale(0.08 -0.08)">
       <use xlink:href="#CMSY10-0" transform="scale(0.996264)"/>
       <use xlink:href="#CMR17-30" transform="translate(77.487468 0) scale(0.996264)"/>
       <use xlink:href="#CMMI12-3a" transform="translate(123.177945 0) scale(0.996264)"/>
       <use xlink:href="#CMR17-31" transform="translate(150.275122 0) scale(0.996264)"/>
      </g>
     </g>
    </g>
    <g id="xtick_17">
     <g id="line2d_29">
      <g>
       <use xlink:href="#m3609e1855d" x="103.468077" y="214.250367" style="stroke: #000000; stroke-width: 0.8"/>
      </g>
     </g>
     <g id="text_25">
      <!-- $\mathdefault{0.0}$ -->
      <g transform="translate(98.057732 228.885169) scale(0.08 -0.08)">
       <use xlink:href="#CMR17-30" transform="scale(0.996264)"/>
       <use xlink:href="#CMMI12-3a" transform="translate(45.690477 0) scale(0.996264)"/>
       <use xlink:href="#CMR17-30" transform="translate(72.787654 0) scale(0.996264)"/>
      </g>
     </g>
    </g>
    <g id="xtick_18">
     <g id="line2d_30">
      <g>
       <use xlink:href="#m3609e1855d" x="134.671266" y="214.250367" style="stroke: #000000; stroke-width: 0.8"/>
      </g>
     </g>
     <g id="text_26">
      <!-- $\mathdefault{0.1}$ -->
      <g transform="translate(129.260921 228.885169) scale(0.08 -0.08)">
       <use xlink:href="#CMR17-30" transform="scale(0.996264)"/>
       <use xlink:href="#CMMI12-3a" transform="translate(45.690477 0) scale(0.996264)"/>
       <use xlink:href="#CMR17-31" transform="translate(72.787654 0) scale(0.996264)"/>
      </g>
     </g>
    </g>
    <g id="xtick_19">
     <g id="line2d_31">
      <g>
       <use xlink:href="#m3609e1855d" x="165.874455" y="214.250367" style="stroke: #000000; stroke-width: 0.8"/>
      </g>
     </g>
     <g id="text_27">
      <!-- $\mathdefault{0.2}$ -->
      <g transform="translate(160.464111 228.885169) scale(0.08 -0.08)">
       <use xlink:href="#CMR17-30" transform="scale(0.996264)"/>
       <use xlink:href="#CMMI12-3a" transform="translate(45.690477 0) scale(0.996264)"/>
       <use xlink:href="#CMR17-32" transform="translate(72.787654 0) scale(0.996264)"/>
      </g>
     </g>
    </g>
    <g id="xtick_20">
     <g id="line2d_32">
      <g>
       <use xlink:href="#m3609e1855d" x="197.077645" y="214.250367" style="stroke: #000000; stroke-width: 0.8"/>
      </g>
     </g>
     <g id="text_28">
      <!-- $\mathdefault{0.3}$ -->
      <g transform="translate(191.6673 228.885169) scale(0.08 -0.08)">
       <use xlink:href="#CMR17-30" transform="scale(0.996264)"/>
       <use xlink:href="#CMMI12-3a" transform="translate(45.690477 0) scale(0.996264)"/>
       <use xlink:href="#CMR17-33" transform="translate(72.787654 0) scale(0.996264)"/>
      </g>
     </g>
    </g>
    <g id="xtick_21">
     <g id="line2d_33">
      <g>
       <use xlink:href="#m3609e1855d" x="228.280834" y="214.250367" style="stroke: #000000; stroke-width: 0.8"/>
      </g>
     </g>
     <g id="text_29">
      <!-- $\mathdefault{0.4}$ -->
      <g transform="translate(222.870489 228.885169) scale(0.08 -0.08)">
       <use xlink:href="#CMR17-30" transform="scale(0.996264)"/>
       <use xlink:href="#CMMI12-3a" transform="translate(45.690477 0) scale(0.996264)"/>
       <use xlink:href="#CMR17-34" transform="translate(72.787654 0) scale(0.996264)"/>
      </g>
     </g>
    </g>
   </g>
   <g id="matplotlib.axis_6">
    <g id="ytick_7">
     <g id="line2d_34">
      <g>
       <use xlink:href="#m307f183480" x="37.941379" y="202.545259" style="stroke: #000000; stroke-width: 0.8"/>
      </g>
     </g>
     <g id="text_30">
      <!-- $\mathdefault{−0.01}$ -->
      <g transform="translate(7.2 205.31266) scale(0.08 -0.08)">
       <use xlink:href="#CMSY10-0" transform="scale(0.996264)"/>
       <use xlink:href="#CMR17-30" transform="translate(77.487468 0) scale(0.996264)"/>
       <use xlink:href="#CMMI12-3a" transform="translate(123.177945 0) scale(0.996264)"/>
       <use xlink:href="#CMR17-30" transform="translate(150.275122 0) scale(0.996264)"/>
       <use xlink:href="#CMR17-31" transform="translate(195.965599 0) scale(0.996264)"/>
      </g>
     </g>
    </g>
    <g id="ytick_8">
     <g id="line2d_35">
      <g>
       <use xlink:href="#m307f183480" x="37.941379" y="168.04974" style="stroke: #000000; stroke-width: 0.8"/>
      </g>
     </g>
     <g id="text_31">
      <!-- $\mathdefault{0.00}$ -->
      <g transform="translate(13.786507 170.817141) scale(0.08 -0.08)">
       <use xlink:href="#CMR17-30" transform="scale(0.996264)"/>
       <use xlink:href="#CMMI12-3a" transform="translate(45.690477 0) scale(0.996264)"/>
       <use xlink:href="#CMR17-30" transform="translate(72.787654 0) scale(0.996264)"/>
       <use xlink:href="#CMR17-30" transform="translate(118.478131 0) scale(0.996264)"/>
      </g>
     </g>
    </g>
   </g>
   <g id="line2d_36">
    <path d="M 47.302336 200.513879 
L 66.024249 187.973366 
L 84.746163 147.42654 
L 103.468077 141.821345 
L 122.18999 140.775728 
L 140.911904 139.264333 
L 159.633817 139.703786 
L 178.355731 140.865871 
L 197.077645 144.431812 
L 215.799558 155.787075 
L 234.521472 189.111675 
" clip-path="url(#pb3e2406a8e)" style="fill: none; stroke: #1f77b4; stroke-width: 0.5; stroke-linecap: square"/>
    <g clip-path="url(#pb3e2406a8e)">
     <use xlink:href="#m28e745ff10" x="47.302336" y="200.513879" style="fill: #1f77b4"/>
     <use xlink:href="#m28e745ff10" x="66.024249" y="187.973366" style="fill: #1f77b4"/>
     <use xlink:href="#m28e745ff10" x="84.746163" y="147.42654" style="fill: #1f77b4"/>
     <use xlink:href="#m28e745ff10" x="103.468077" y="141.821345" style="fill: #1f77b4"/>
     <use xlink:href="#m28e745ff10" x="122.18999" y="140.775728" style="fill: #1f77b4"/>
     <use xlink:href="#m28e745ff10" x="140.911904" y="139.264333" style="fill: #1f77b4"/>
     <use xlink:href="#m28e745ff10" x="159.633817" y="139.703786" style="fill: #1f77b4"/>
     <use xlink:href="#m28e745ff10" x="178.355731" y="140.865871" style="fill: #1f77b4"/>
     <use xlink:href="#m28e745ff10" x="197.077645" y="144.431812" style="fill: #1f77b4"/>
     <use xlink:href="#m28e745ff10" x="215.799558" y="155.787075" style="fill: #1f77b4"/>
     <use xlink:href="#m28e745ff10" x="234.521472" y="189.111675" style="fill: #1f77b4"/>
    </g>
   </g>
   <g id="line2d_37">
    <path d="M 47.302336 183.701888 
L 66.024249 150.853158 
L 84.746163 140.817495 
L 103.468077 140.799604 
L 122.18999 140.885709 
L 140.911904 139.301831 
L 159.633817 138.950113 
L 178.355731 143.050127 
L 197.077645 156.068217 
L 215.799558 187.272113 
L 234.521472 210.664641 
" clip-path="url(#pb3e2406a8e)" style="fill: none; stroke: #ff7f0e; stroke-width: 0.5; stroke-linecap: square"/>
    <g clip-path="url(#pb3e2406a8e)">
     <use xlink:href="#m11a8f96fbe" x="47.302336" y="183.701888" style="fill: #ff7f0e"/>
     <use xlink:href="#m11a8f96fbe" x="66.024249" y="150.853158" style="fill: #ff7f0e"/>
     <use xlink:href="#m11a8f96fbe" x="84.746163" y="140.817495" style="fill: #ff7f0e"/>
     <use xlink:href="#m11a8f96fbe" x="103.468077" y="140.799604" style="fill: #ff7f0e"/>
     <use xlink:href="#m11a8f96fbe" x="122.18999" y="140.885709" style="fill: #ff7f0e"/>
     <use xlink:href="#m11a8f96fbe" x="140.911904" y="139.301831" style="fill: #ff7f0e"/>
     <use xlink:href="#m11a8f96fbe" x="159.633817" y="138.950113" style="fill: #ff7f0e"/>
     <use xlink:href="#m11a8f96fbe" x="178.355731" y="143.050127" style="fill: #ff7f0e"/>
     <use xlink:href="#m11a8f96fbe" x="197.077645" y="156.068217" style="fill: #ff7f0e"/>
     <use xlink:href="#m11a8f96fbe" x="215.799558" y="187.272113" style="fill: #ff7f0e"/>
     <use xlink:href="#m11a8f96fbe" x="234.521472" y="210.664641" style="fill: #ff7f0e"/>
    </g>
   </g>
   <g id="line2d_38">
    <path d="M 47.302336 153.304328 
L 66.024249 142.35162 
L 84.746163 140.69574 
L 103.468077 140.798965 
L 122.18999 140.860157 
L 140.911904 141.364433 
L 159.633817 142.701307 
L 178.355731 144.824 
L 197.077645 151.406307 
L 215.799558 163.57328 
L 234.521472 167.878567 
" clip-path="url(#pb3e2406a8e)" style="fill: none; stroke: #2ca02c; stroke-width: 0.5; stroke-linecap: square"/>
    <g clip-path="url(#pb3e2406a8e)">
     <use xlink:href="#ma9acb6864a" x="47.302336" y="153.304328" style="fill: #2ca02c"/>
     <use xlink:href="#ma9acb6864a" x="66.024249" y="142.35162" style="fill: #2ca02c"/>
     <use xlink:href="#ma9acb6864a" x="84.746163" y="140.69574" style="fill: #2ca02c"/>
     <use xlink:href="#ma9acb6864a" x="103.468077" y="140.798965" style="fill: #2ca02c"/>
     <use xlink:href="#ma9acb6864a" x="122.18999" y="140.860157" style="fill: #2ca02c"/>
     <use xlink:href="#ma9acb6864a" x="140.911904" y="141.364433" style="fill: #2ca02c"/>
     <use xlink:href="#ma9acb6864a" x="159.633817" y="142.701307" style="fill: #2ca02c"/>
     <use xlink:href="#ma9acb6864a" x="178.355731" y="144.824" style="fill: #2ca02c"/>
     <use xlink:href="#ma9acb6864a" x="197.077645" y="151.406307" style="fill: #2ca02c"/>
     <use xlink:href="#ma9acb6864a" x="215.799558" y="163.57328" style="fill: #2ca02c"/>
     <use xlink:href="#ma9acb6864a" x="234.521472" y="167.878567" style="fill: #2ca02c"/>
    </g>
   </g>
   <g id="patch_13">
    <path d="M 37.941379 214.250367 
L 37.941379 135.364387 
" style="fill: none; stroke: #000000; stroke-width: 0.8; stroke-linejoin: miter; stroke-linecap: square"/>
   </g>
   <g id="patch_14">
    <path d="M 243.882429 214.250367 
L 243.882429 135.364387 
" style="fill: none; stroke: #000000; stroke-width: 0.8; stroke-linejoin: miter; stroke-linecap: square"/>
   </g>
   <g id="patch_15">
    <path d="M 37.941379 214.250367 
L 243.882429 214.250367 
" style="fill: none; stroke: #000000; stroke-width: 0.8; stroke-linejoin: miter; stroke-linecap: square"/>
   </g>
   <g id="patch_16">
    <path d="M 37.941379 135.364387 
L 243.882429 135.364387 
" style="fill: none; stroke: #000000; stroke-width: 0.8; stroke-linejoin: miter; stroke-linecap: square"/>
   </g>
   <g id="text_32">
    <!-- $\bar{P}_{\mathrm{sys}}$ -->
    <g transform="translate(132.464729 129.364387) scale(0.1 -0.1)">
     <defs>
      <path id="CMR17-73" d="M 1978 2697 
C 1978 2813 1971 2819 1933 2819 
C 1907 2819 1901 2813 1824 2717 
C 1805 2691 1747 2626 1728 2601 
C 1523 2819 1235 2819 1126 2819 
C 416 2819 160 2447 160 2076 
C 160 1498 813 1365 998 1325 
C 1402 1243 1542 1217 1677 1101 
C 1760 1025 1901 884 1901 654 
C 1901 384 1747 38 1158 38 
C 602 38 403 460 288 1021 
C 269 1110 269 1117 218 1117 
C 166 1117 160 1110 160 983 
L 160 63 
C 160 -51 166 -58 205 -58 
C 237 -58 243 -51 275 0 
C 314 57 410 211 448 276 
C 576 103 800 -64 1158 -64 
C 1792 -64 2131 283 2131 784 
C 2131 1112 1958 1285 1875 1362 
C 1683 1561 1459 1606 1190 1657 
C 838 1735 390 1825 390 2217 
C 390 2383 480 2737 1126 2737 
C 1811 2737 1850 2094 1862 1888 
C 1869 1856 1901 1849 1920 1849 
C 1978 1849 1978 1869 1978 1978 
L 1978 2697 
z
" transform="scale(0.015625)"/>
      <path id="CMR17-79" d="M 2496 2197 
C 2656 2586 2944 2586 3034 2586 
L 3034 2752 
C 2912 2752 2752 2752 2630 2752 
C 2496 2752 2285 2752 2157 2758 
L 2157 2592 
C 2400 2573 2406 2394 2406 2343 
C 2406 2280 2394 2248 2362 2171 
L 1664 449 
L 902 2306 
C 870 2382 870 2426 870 2433 
C 870 2573 1018 2586 1171 2586 
L 1171 2758 
C 1018 2752 742 2752 582 2752 
C 410 2752 205 2752 64 2758 
L 64 2586 
C 410 2586 448 2554 531 2350 
L 1485 15 
C 1197 -738 1030 -1178 627 -1178 
C 557 -1178 397 -1159 282 -1044 
C 429 -1031 493 -942 493 -833 
C 493 -725 416 -629 288 -629 
C 147 -629 77 -725 77 -840 
C 77 -1095 339 -1280 627 -1280 
C 998 -1280 1229 -922 1357 -604 
L 2496 2197 
z
" transform="scale(0.015625)"/>
     </defs>
     <use xlink:href="#CMR17-16" transform="translate(23.496833 25.189733) scale(0.996264)"/>
     <use xlink:href="#CMMI12-50" transform="scale(0.996264)"/>
     <use xlink:href="#CMR17-73" transform="translate(62.877232 -14.943915) scale(0.697382)"/>
     <use xlink:href="#CMR17-79" transform="translate(87.938055 -14.943915) scale(0.697382)"/>
     <use xlink:href="#CMR17-73" transform="translate(121.742942 -14.943915) scale(0.697382)"/>
    </g>
   </g>
  </g>
  <g id="axes_4">
   <g id="patch_17">
    <path d="M 284.85847 214.250367 
L 490.79952 214.250367 
L 490.79952 135.364387 
L 284.85847 135.364387 
z
" style="fill: #ffffff"/>
   </g>
   <g id="matplotlib.axis_7">
    <g id="xtick_22">
     <g id="line2d_39">
      <g>
       <use xlink:href="#m3609e1855d" x="287.978789" y="214.250367" style="stroke: #000000; stroke-width: 0.8"/>
      </g>
     </g>
     <g id="text_33">
      <!-- $\mathdefault{−0.2}$ -->
      <g transform="translate(279.275191 228.885169) scale(0.08 -0.08)">
       <use xlink:href="#CMSY10-0" transform="scale(0.996264)"/>
       <use xlink:href="#CMR17-30" transform="translate(77.487468 0) scale(0.996264)"/>
       <use xlink:href="#CMMI12-3a" transform="translate(123.177945 0) scale(0.996264)"/>
       <use xlink:href="#CMR17-32" transform="translate(150.275122 0) scale(0.996264)"/>
      </g>
     </g>
    </g>
    <g id="xtick_23">
     <g id="line2d_40">
      <g>
       <use xlink:href="#m3609e1855d" x="319.181979" y="214.250367" style="stroke: #000000; stroke-width: 0.8"/>
      </g>
     </g>
     <g id="text_34">
      <!-- $\mathdefault{−0.1}$ -->
      <g transform="translate(310.478381 228.885169) scale(0.08 -0.08)">
       <use xlink:href="#CMSY10-0" transform="scale(0.996264)"/>
       <use xlink:href="#CMR17-30" transform="translate(77.487468 0) scale(0.996264)"/>
       <use xlink:href="#CMMI12-3a" transform="translate(123.177945 0) scale(0.996264)"/>
       <use xlink:href="#CMR17-31" transform="translate(150.275122 0) scale(0.996264)"/>
      </g>
     </g>
    </g>
    <g id="xtick_24">
     <g id="line2d_41">
      <g>
       <use xlink:href="#m3609e1855d" x="350.385168" y="214.250367" style="stroke: #000000; stroke-width: 0.8"/>
      </g>
     </g>
     <g id="text_35">
      <!-- $\mathdefault{0.0}$ -->
      <g transform="translate(344.974823 228.885169) scale(0.08 -0.08)">
       <use xlink:href="#CMR17-30" transform="scale(0.996264)"/>
       <use xlink:href="#CMMI12-3a" transform="translate(45.690477 0) scale(0.996264)"/>
       <use xlink:href="#CMR17-30" transform="translate(72.787654 0) scale(0.996264)"/>
      </g>
     </g>
    </g>
    <g id="xtick_25">
     <g id="line2d_42">
      <g>
       <use xlink:href="#m3609e1855d" x="381.588357" y="214.250367" style="stroke: #000000; stroke-width: 0.8"/>
      </g>
     </g>
     <g id="text_36">
      <!-- $\mathdefault{0.1}$ -->
      <g transform="translate(376.178013 228.885169) scale(0.08 -0.08)">
       <use xlink:href="#CMR17-30" transform="scale(0.996264)"/>
       <use xlink:href="#CMMI12-3a" transform="translate(45.690477 0) scale(0.996264)"/>
       <use xlink:href="#CMR17-31" transform="translate(72.787654 0) scale(0.996264)"/>
      </g>
     </g>
    </g>
    <g id="xtick_26">
     <g id="line2d_43">
      <g>
       <use xlink:href="#m3609e1855d" x="412.791547" y="214.250367" style="stroke: #000000; stroke-width: 0.8"/>
      </g>
     </g>
     <g id="text_37">
      <!-- $\mathdefault{0.2}$ -->
      <g transform="translate(407.381202 228.885169) scale(0.08 -0.08)">
       <use xlink:href="#CMR17-30" transform="scale(0.996264)"/>
       <use xlink:href="#CMMI12-3a" transform="translate(45.690477 0) scale(0.996264)"/>
       <use xlink:href="#CMR17-32" transform="translate(72.787654 0) scale(0.996264)"/>
      </g>
     </g>
    </g>
    <g id="xtick_27">
     <g id="line2d_44">
      <g>
       <use xlink:href="#m3609e1855d" x="443.994736" y="214.250367" style="stroke: #000000; stroke-width: 0.8"/>
      </g>
     </g>
     <g id="text_38">
      <!-- $\mathdefault{0.3}$ -->
      <g transform="translate(438.584391 228.885169) scale(0.08 -0.08)">
       <use xlink:href="#CMR17-30" transform="scale(0.996264)"/>
       <use xlink:href="#CMMI12-3a" transform="translate(45.690477 0) scale(0.996264)"/>
       <use xlink:href="#CMR17-33" transform="translate(72.787654 0) scale(0.996264)"/>
      </g>
     </g>
    </g>
    <g id="xtick_28">
     <g id="line2d_45">
      <g>
       <use xlink:href="#m3609e1855d" x="475.197925" y="214.250367" style="stroke: #000000; stroke-width: 0.8"/>
      </g>
     </g>
     <g id="text_39">
      <!-- $\mathdefault{0.4}$ -->
      <g transform="translate(469.787581 228.885169) scale(0.08 -0.08)">
       <use xlink:href="#CMR17-30" transform="scale(0.996264)"/>
       <use xlink:href="#CMMI12-3a" transform="translate(45.690477 0) scale(0.996264)"/>
       <use xlink:href="#CMR17-34" transform="translate(72.787654 0) scale(0.996264)"/>
      </g>
     </g>
    </g>
   </g>
   <g id="matplotlib.axis_8">
    <g id="ytick_9">
     <g id="line2d_46">
      <g>
       <use xlink:href="#m307f183480" x="284.85847" y="208.419336" style="stroke: #000000; stroke-width: 0.8"/>
      </g>
     </g>
     <g id="text_40">
      <!-- $\mathdefault{−0.004}$ -->
      <g transform="translate(249.882909 211.186737) scale(0.08 -0.08)">
       <use xlink:href="#CMSY10-0" transform="scale(0.996264)"/>
       <use xlink:href="#CMR17-30" transform="translate(77.487468 0) scale(0.996264)"/>
       <use xlink:href="#CMMI12-3a" transform="translate(123.177945 0) scale(0.996264)"/>
       <use xlink:href="#CMR17-30" transform="translate(150.275122 0) scale(0.996264)"/>
       <use xlink:href="#CMR17-30" transform="translate(195.965599 0) scale(0.996264)"/>
       <use xlink:href="#CMR17-34" transform="translate(241.656076 0) scale(0.996264)"/>
      </g>
     </g>
    </g>
    <g id="ytick_10">
     <g id="line2d_47">
      <g>
       <use xlink:href="#m307f183480" x="284.85847" y="187.850595" style="stroke: #000000; stroke-width: 0.8"/>
      </g>
     </g>
     <g id="text_41">
      <!-- $\mathdefault{−0.002}$ -->
      <g transform="translate(249.882909 190.617996) scale(0.08 -0.08)">
       <use xlink:href="#CMSY10-0" transform="scale(0.996264)"/>
       <use xlink:href="#CMR17-30" transform="translate(77.487468 0) scale(0.996264)"/>
       <use xlink:href="#CMMI12-3a" transform="translate(123.177945 0) scale(0.996264)"/>
       <use xlink:href="#CMR17-30" transform="translate(150.275122 0) scale(0.996264)"/>
       <use xlink:href="#CMR17-30" transform="translate(195.965599 0) scale(0.996264)"/>
       <use xlink:href="#CMR17-32" transform="translate(241.656076 0) scale(0.996264)"/>
      </g>
     </g>
    </g>
    <g id="ytick_11">
     <g id="line2d_48">
      <g>
       <use xlink:href="#m307f183480" x="284.85847" y="167.281854" style="stroke: #000000; stroke-width: 0.8"/>
      </g>
     </g>
     <g id="text_42">
      <!-- $\mathdefault{0.000}$ -->
      <g transform="translate(256.469415 170.049255) scale(0.08 -0.08)">
       <use xlink:href="#CMR17-30" transform="scale(0.996264)"/>
       <use xlink:href="#CMMI12-3a" transform="translate(45.690477 0) scale(0.996264)"/>
       <use xlink:href="#CMR17-30" transform="translate(72.787654 0) scale(0.996264)"/>
       <use xlink:href="#CMR17-30" transform="translate(118.478131 0) scale(0.996264)"/>
       <use xlink:href="#CMR17-30" transform="translate(164.168608 0) scale(0.996264)"/>
      </g>
     </g>
    </g>
    <g id="ytick_12">
     <g id="line2d_49">
      <g>
       <use xlink:href="#m307f183480" x="284.85847" y="146.713113" style="stroke: #000000; stroke-width: 0.8"/>
      </g>
     </g>
     <g id="text_43">
      <!-- $\mathdefault{0.002}$ -->
      <g transform="translate(256.469415 149.480514) scale(0.08 -0.08)">
       <use xlink:href="#CMR17-30" transform="scale(0.996264)"/>
       <use xlink:href="#CMMI12-3a" transform="translate(45.690477 0) scale(0.996264)"/>
       <use xlink:href="#CMR17-30" transform="translate(72.787654 0) scale(0.996264)"/>
       <use xlink:href="#CMR17-30" transform="translate(118.478131 0) scale(0.996264)"/>
       <use xlink:href="#CMR17-32" transform="translate(164.168608 0) scale(0.996264)"/>
      </g>
     </g>
    </g>
   </g>
   <g id="line2d_50">
    <path d="M 294.219427 210.471943 
L 312.941341 210.664641 
L 331.663254 199.889652 
L 350.385168 194.952756 
L 369.107082 189.721295 
L 387.828995 170.975711 
L 406.550909 166.894814 
L 425.272822 167.190597 
L 443.994736 166.29249 
L 462.71665 166.793141 
L 481.438563 167.698278 
" clip-path="url(#pb9d1db501a)" style="fill: none; stroke: #1f77b4; stroke-width: 0.5; stroke-linecap: square"/>
    <g clip-path="url(#pb9d1db501a)">
     <use xlink:href="#m28e745ff10" x="294.219427" y="210.471943" style="fill: #1f77b4"/>
     <use xlink:href="#m28e745ff10" x="312.941341" y="210.664641" style="fill: #1f77b4"/>
     <use xlink:href="#m28e745ff10" x="331.663254" y="199.889652" style="fill: #1f77b4"/>
     <use xlink:href="#m28e745ff10" x="350.385168" y="194.952756" style="fill: #1f77b4"/>
     <use xlink:href="#m28e745ff10" x="369.107082" y="189.721295" style="fill: #1f77b4"/>
     <use xlink:href="#m28e745ff10" x="387.828995" y="170.975711" style="fill: #1f77b4"/>
     <use xlink:href="#m28e745ff10" x="406.550909" y="166.894814" style="fill: #1f77b4"/>
     <use xlink:href="#m28e745ff10" x="425.272822" y="167.190597" style="fill: #1f77b4"/>
     <use xlink:href="#m28e745ff10" x="443.994736" y="166.29249" style="fill: #1f77b4"/>
     <use xlink:href="#m28e745ff10" x="462.71665" y="166.793141" style="fill: #1f77b4"/>
     <use xlink:href="#m28e745ff10" x="481.438563" y="167.698278" style="fill: #1f77b4"/>
    </g>
   </g>
   <g id="line2d_51">
    <path d="M 294.219427 182.3204 
L 312.941341 173.349984 
L 331.663254 167.825226 
L 350.385168 167.587559 
L 369.107082 167.234402 
L 387.828995 161.770252 
L 406.550909 149.320701 
L 425.272822 144.552105 
L 443.994736 143.912459 
L 462.71665 147.44886 
L 481.438563 160.07808 
" clip-path="url(#pb9d1db501a)" style="fill: none; stroke: #ff7f0e; stroke-width: 0.5; stroke-linecap: square"/>
    <g clip-path="url(#pb9d1db501a)">
     <use xlink:href="#m11a8f96fbe" x="294.219427" y="182.3204" style="fill: #ff7f0e"/>
     <use xlink:href="#m11a8f96fbe" x="312.941341" y="173.349984" style="fill: #ff7f0e"/>
     <use xlink:href="#m11a8f96fbe" x="331.663254" y="167.825226" style="fill: #ff7f0e"/>
     <use xlink:href="#m11a8f96fbe" x="350.385168" y="167.587559" style="fill: #ff7f0e"/>
     <use xlink:href="#m11a8f96fbe" x="369.107082" y="167.234402" style="fill: #ff7f0e"/>
     <use xlink:href="#m11a8f96fbe" x="387.828995" y="161.770252" style="fill: #ff7f0e"/>
     <use xlink:href="#m11a8f96fbe" x="406.550909" y="149.320701" style="fill: #ff7f0e"/>
     <use xlink:href="#m11a8f96fbe" x="425.272822" y="144.552105" style="fill: #ff7f0e"/>
     <use xlink:href="#m11a8f96fbe" x="443.994736" y="143.912459" style="fill: #ff7f0e"/>
     <use xlink:href="#m11a8f96fbe" x="462.71665" y="147.44886" style="fill: #ff7f0e"/>
     <use xlink:href="#m11a8f96fbe" x="481.438563" y="160.07808" style="fill: #ff7f0e"/>
    </g>
   </g>
   <g id="line2d_52">
    <path d="M 294.219427 177.96838 
L 312.941341 172.184143 
L 331.663254 167.501749 
L 350.385168 167.612612 
L 369.107082 167.236783 
L 387.828995 155.631433 
L 406.550909 139.916172 
L 425.272822 138.950113 
L 443.994736 139.309242 
L 462.71665 147.010113 
L 481.438563 165.643084 
" clip-path="url(#pb9d1db501a)" style="fill: none; stroke: #2ca02c; stroke-width: 0.5; stroke-linecap: square"/>
    <g clip-path="url(#pb9d1db501a)">
     <use xlink:href="#ma9acb6864a" x="294.219427" y="177.96838" style="fill: #2ca02c"/>
     <use xlink:href="#ma9acb6864a" x="312.941341" y="172.184143" style="fill: #2ca02c"/>
     <use xlink:href="#ma9acb6864a" x="331.663254" y="167.501749" style="fill: #2ca02c"/>
     <use xlink:href="#ma9acb6864a" x="350.385168" y="167.612612" style="fill: #2ca02c"/>
     <use xlink:href="#ma9acb6864a" x="369.107082" y="167.236783" style="fill: #2ca02c"/>
     <use xlink:href="#ma9acb6864a" x="387.828995" y="155.631433" style="fill: #2ca02c"/>
     <use xlink:href="#ma9acb6864a" x="406.550909" y="139.916172" style="fill: #2ca02c"/>
     <use xlink:href="#ma9acb6864a" x="425.272822" y="138.950113" style="fill: #2ca02c"/>
     <use xlink:href="#ma9acb6864a" x="443.994736" y="139.309242" style="fill: #2ca02c"/>
     <use xlink:href="#ma9acb6864a" x="462.71665" y="147.010113" style="fill: #2ca02c"/>
     <use xlink:href="#ma9acb6864a" x="481.438563" y="165.643084" style="fill: #2ca02c"/>
    </g>
   </g>
   <g id="patch_18">
    <path d="M 284.85847 214.250367 
L 284.85847 135.364387 
" style="fill: none; stroke: #000000; stroke-width: 0.8; stroke-linejoin: miter; stroke-linecap: square"/>
   </g>
   <g id="patch_19">
    <path d="M 490.79952 214.250367 
L 490.79952 135.364387 
" style="fill: none; stroke: #000000; stroke-width: 0.8; stroke-linejoin: miter; stroke-linecap: square"/>
   </g>
   <g id="patch_20">
    <path d="M 284.85847 214.250367 
L 490.79952 214.250367 
" style="fill: none; stroke: #000000; stroke-width: 0.8; stroke-linejoin: miter; stroke-linecap: square"/>
   </g>
   <g id="patch_21">
    <path d="M 284.85847 135.364387 
L 490.79952 135.364387 
" style="fill: none; stroke: #000000; stroke-width: 0.8; stroke-linejoin: miter; stroke-linecap: square"/>
   </g>
   <g id="text_44">
    <!-- $\bar{P}_{\mathrm{int}}$ -->
    <g transform="translate(379.853677 129.364387) scale(0.1 -0.1)">
     <defs>
      <path id="CMR17-69" d="M 992 3909 
C 992 4049 877 4170 730 4170 
C 589 4170 467 4056 467 3909 
C 467 3769 582 3648 730 3648 
C 870 3648 992 3763 992 3909 
z
M 243 2706 
L 243 2541 
C 602 2541 653 2502 653 2197 
L 653 427 
C 653 184 627 153 218 153 
L 218 -13 
C 371 0 646 0 806 0 
C 960 0 1222 0 1370 -13 
L 1370 153 
C 992 153 979 191 979 420 
L 979 2776 
L 243 2706 
z
" transform="scale(0.015625)"/>
      <path id="CMR17-6e" d="M 2656 1933 
C 2656 2259 2592 2790 1837 2790 
C 1331 2790 1069 2400 973 2144 
L 966 2144 
L 966 2790 
L 211 2720 
L 211 2554 
C 589 2554 646 2515 646 2208 
L 646 428 
C 646 184 621 153 211 153 
L 211 -13 
C 365 0 646 0 813 0 
C 979 0 1267 0 1421 -13 
L 1421 153 
C 1011 153 986 178 986 428 
L 986 1658 
C 986 2247 1344 2688 1792 2688 
C 2266 2688 2317 2266 2317 1958 
L 2317 428 
C 2317 184 2291 153 1882 153 
L 1882 -13 
C 2035 0 2317 0 2483 0 
C 2650 0 2938 0 3091 -13 
L 3091 153 
C 2682 153 2656 178 2656 428 
L 2656 1933 
z
" transform="scale(0.015625)"/>
      <path id="CMR17-74" d="M 966 2560 
L 1862 2560 
L 1862 2725 
L 966 2725 
L 966 3904 
L 851 3904 
C 838 3245 614 2668 70 2668 
L 70 2560 
L 627 2560 
L 627 771 
C 627 650 627 -64 1370 -64 
C 1747 -64 1965 306 1965 777 
L 1965 1140 
L 1850 1140 
L 1850 783 
C 1850 344 1677 51 1408 51 
C 1222 51 966 178 966 758 
L 966 2560 
z
" transform="scale(0.015625)"/>
     </defs>
     <use xlink:href="#CMR17-16" transform="translate(23.496833 25.189733) scale(0.996264)"/>
     <use xlink:href="#CMMI12-50" transform="scale(0.996264)"/>
     <use xlink:href="#CMR17-69" transform="translate(62.877232 -14.943915) scale(0.697382)"/>
     <use xlink:href="#CMR17-6e" transform="translate(80.286891 -14.943915) scale(0.697382)"/>
     <use xlink:href="#CMR17-74" transform="translate(114.091779 -14.943915) scale(0.697382)"/>
    </g>
   </g>
  </g>
  <g id="text_45">
   <!-- Shift $\delta$ -->
   <g transform="translate(233.607446 243.907375) scale(0.108 -0.108)">
    <defs>
     <path id="CMR17-53" d="M 2803 4290 
C 2803 4404 2797 4411 2758 4411 
C 2720 4411 2707 4385 2682 4328 
L 2490 3907 
C 2246 4257 1875 4416 1472 4416 
C 819 4416 294 3901 294 3253 
C 294 3056 339 2776 557 2510 
C 794 2218 1018 2167 1530 2033 
C 1722 1982 2042 1899 2106 1874 
C 2470 1722 2662 1341 2662 985 
C 2662 527 2336 38 1779 38 
C 1094 38 454 419 410 1311 
C 403 1413 397 1419 352 1419 
C 301 1419 294 1413 294 1285 
L 294 -1 
C 294 -115 301 -122 339 -122 
C 384 -122 397 -90 486 108 
C 493 127 493 140 614 381 
C 934 -39 1472 -128 1779 -128 
C 2477 -128 2970 451 2970 1124 
C 2970 1454 2848 1708 2778 1823 
C 2509 2230 2221 2306 1914 2382 
C 1869 2402 1856 2402 1498 2490 
C 1152 2579 1005 2624 845 2796 
C 666 2992 602 3196 602 3399 
C 602 3812 934 4263 1478 4263 
C 2157 4263 2579 3786 2675 2993 
C 2694 2878 2701 2872 2746 2872 
C 2803 2872 2803 2891 2803 2999 
L 2803 4290 
z
" transform="scale(0.015625)"/>
     <path id="CMR17-68" d="M 2656 1933 
C 2656 2259 2592 2790 1837 2790 
C 1312 2790 1056 2368 979 2157 
L 973 2157 
L 973 4396 
L 211 4326 
L 211 4160 
C 589 4160 646 4122 646 3817 
L 646 426 
C 646 184 621 153 211 153 
L 211 -13 
C 365 0 646 0 813 0 
C 979 0 1267 0 1421 -13 
L 1421 153 
C 1011 153 986 178 986 428 
L 986 1658 
C 986 2247 1344 2688 1792 2688 
C 2266 2688 2317 2266 2317 1958 
L 2317 428 
C 2317 184 2291 153 1882 153 
L 1882 -13 
C 2035 0 2317 0 2483 0 
C 2650 0 2938 0 3091 -13 
L 3091 153 
C 2682 153 2656 178 2656 428 
L 2656 1933 
z
" transform="scale(0.015625)"/>
     <path id="CMR17-66" d="M 979 2560 
L 1709 2560 
L 1709 2725 
L 966 2725 
L 966 3494 
C 966 4022 1235 4352 1510 4352 
C 1594 4352 1690 4327 1754 4282 
C 1702 4269 1568 4225 1568 4067 
C 1568 3901 1696 3850 1786 3850 
C 1875 3850 2003 3901 2003 4067 
C 2003 4308 1773 4454 1517 4454 
C 1152 4454 653 4156 653 3481 
L 653 2725 
L 141 2725 
L 141 2560 
L 653 2560 
L 653 427 
C 653 184 627 153 218 153 
L 218 -13 
C 371 0 666 0 832 0 
C 1018 0 1344 0 1517 -13 
L 1517 153 
C 1056 153 979 153 979 439 
L 979 2560 
z
" transform="scale(0.015625)"/>
     <path id="CMMI12-e" d="M 1664 2795 
C 845 2597 256 1748 256 1001 
C 256 319 717 -64 1229 -64 
C 1984 -64 2496 970 2496 1818 
C 2496 2392 2227 2744 2067 2954 
C 1830 3254 1446 3746 1446 4052 
C 1446 4161 1530 4352 1811 4352 
C 2010 4352 2131 4282 2323 4173 
C 2381 4134 2528 4052 2611 4052 
C 2746 4052 2842 4185 2842 4287 
C 2842 4409 2746 4428 2522 4479 
C 2221 4543 2131 4543 2022 4543 
C 1914 4543 1286 4543 1286 3892 
C 1286 3579 1446 3216 1664 2795 
z
M 1734 2669 
C 1978 2165 2074 1974 2074 1560 
C 2074 1063 1805 63 1235 63 
C 986 63 627 229 627 821 
C 627 1235 864 2439 1734 2669 
z
" transform="scale(0.015625)"/>
    </defs>
    <use xlink:href="#CMR17-53" transform="scale(0.996264)"/>
    <use xlink:href="#CMR17-68" transform="translate(50.89537 0) scale(0.996264)"/>
    <use xlink:href="#CMR17-69" transform="translate(101.79074 0) scale(0.996264)"/>
    <use xlink:href="#CMR17-66" transform="translate(126.661798 0) scale(0.996264)"/>
    <use xlink:href="#CMR17-74" transform="translate(154.13531 0) scale(0.996264)"/>
    <use xlink:href="#CMMI12-e" transform="translate(219.492045 0) scale(0.996264)"/>
   </g>
  </g>
  <g id="legend_1">
   <g id="patch_22">
    <path d="M 68.754607 268.97976 
L 429.244913 268.97976 
Q 431.044913 268.97976 431.044913 267.17976 
L 431.044913 255.536298 
Q 431.044913 253.736298 429.244913 253.736298 
L 68.754607 253.736298 
Q 66.954607 253.736298 66.954607 255.536298 
L 66.954607 267.17976 
Q 66.954607 268.97976 68.754607 268.97976 
z
" style="fill: #ffffff; opacity: 0.8; stroke: #cccccc; stroke-width: 0.24; stroke-linejoin: miter"/>
   </g>
   <g id="line2d_53">
    <path d="M 70.554607 260.486298 
L 79.554607 260.486298 
L 88.554607 260.486298 
" style="fill: none; stroke: #1f77b4; stroke-width: 0.5; stroke-linecap: square"/>
    <g>
     <use xlink:href="#m28e745ff10" x="79.554607" y="260.486298" style="fill: #1f77b4"/>
    </g>
   </g>
   <g id="text_46">
    <!-- shifted -->
    <g transform="translate(95.754607 263.636298) scale(0.09 -0.09)">
     <defs>
      <path id="CMR17-65" d="M 2438 1472 
C 2464 1498 2464 1511 2464 1576 
C 2464 2238 2118 2816 1389 2816 
C 710 2816 173 2169 173 1383 
C 173 551 781 -64 1459 -64 
C 2176 -64 2458 607 2458 740 
C 2458 784 2419 784 2406 784 
C 2362 784 2355 771 2330 696 
C 2189 265 1837 51 1504 51 
C 1229 51 954 203 781 480 
C 582 803 582 1176 582 1472 
L 2438 1472 
z
M 589 1568 
C 634 2505 1126 2714 1382 2714 
C 1818 2714 2112 2297 2118 1568 
L 589 1568 
z
" transform="scale(0.015625)"/>
      <path id="CMR17-64" d="M 1869 4326 
L 1869 4160 
C 2246 4160 2304 4122 2304 3820 
L 2304 2345 
C 2278 2377 2016 2790 1498 2790 
C 845 2790 211 2208 211 1364 
C 211 525 806 -64 1434 -64 
C 1978 -64 2259 337 2291 380 
L 2291 -63 
L 3066 -63 
L 3066 128 
C 2688 128 2630 166 2630 473 
L 2630 4396 
L 1869 4326 
z
M 2291 755 
C 2291 563 2176 390 2029 262 
C 1811 70 1594 38 1472 38 
C 1286 38 621 134 621 1356 
C 621 2612 1363 2688 1530 2688 
C 1824 2688 2061 2522 2208 2291 
C 2291 2157 2291 2138 2291 2023 
L 2291 755 
z
" transform="scale(0.015625)"/>
     </defs>
     <use xlink:href="#CMR17-73" transform="scale(0.996264)"/>
     <use xlink:href="#CMR17-68" transform="translate(35.801338 0) scale(0.996264)"/>
     <use xlink:href="#CMR17-69" transform="translate(86.696707 0) scale(0.996264)"/>
     <use xlink:href="#CMR17-66" transform="translate(111.567766 0) scale(0.996264)"/>
     <use xlink:href="#CMR17-74" transform="translate(139.041278 0) scale(0.996264)"/>
     <use xlink:href="#CMR17-65" transform="translate(174.322046 0) scale(0.996264)"/>
     <use xlink:href="#CMR17-64" transform="translate(214.807707 0) scale(0.996264)"/>
    </g>
   </g>
   <g id="line2d_54">
    <path d="M 140.687453 260.486298 
L 149.687453 260.486298 
L 158.687453 260.486298 
" style="fill: none; stroke: #ff7f0e; stroke-width: 0.5; stroke-linecap: square"/>
    <g>
     <use xlink:href="#m11a8f96fbe" x="149.687453" y="260.486298" style="fill: #ff7f0e"/>
    </g>
   </g>
   <g id="text_47">
    <!-- shifted + slower modulation -->
    <g transform="translate(165.887453 263.636298) scale(0.09 -0.09)">
     <defs>
      <path id="CMR17-2b" d="M 2413 1472 
L 4109 1472 
C 4198 1472 4307 1472 4307 1580 
C 4307 1695 4205 1695 4109 1695 
L 2413 1695 
L 2413 3386 
C 2413 3475 2413 3584 2304 3584 
C 2189 3584 2189 3482 2189 3386 
L 2189 1695 
L 493 1695 
C 403 1695 294 1695 294 1587 
C 294 1472 397 1472 493 1472 
L 2189 1472 
L 2189 -218 
C 2189 -307 2189 -416 2298 -416 
C 2413 -416 2413 -314 2413 -218 
L 2413 1472 
z
" transform="scale(0.015625)"/>
      <path id="CMR17-6c" d="M 979 4396 
L 218 4326 
L 218 4160 
C 595 4160 653 4122 653 3817 
L 653 426 
C 653 184 627 153 218 153 
L 218 -13 
C 371 0 653 0 813 0 
C 979 0 1261 0 1414 -13 
L 1414 153 
C 1005 153 979 178 979 426 
L 979 4396 
z
" transform="scale(0.015625)"/>
      <path id="CMR17-6f" d="M 2758 1356 
C 2758 2176 2163 2816 1466 2816 
C 768 2816 173 2176 173 1356 
C 173 551 768 -64 1466 -64 
C 2163 -64 2758 551 2758 1356 
z
M 1466 51 
C 1165 51 909 230 762 480 
C 602 767 582 1126 582 1408 
C 582 1677 595 2010 762 2298 
C 890 2509 1139 2714 1466 2714 
C 1754 2714 1997 2554 2150 2330 
C 2349 2029 2349 1607 2349 1408 
C 2349 1158 2336 775 2163 467 
C 1984 173 1709 51 1466 51 
z
" transform="scale(0.015625)"/>
      <path id="CMR17-77" d="M 3725 2183 
C 3853 2560 4109 2560 4205 2560 
L 4205 2732 
C 4077 2732 3949 2732 3821 2732 
C 3699 2732 3424 2732 3315 2738 
L 3315 2560 
C 3514 2560 3622 2445 3622 2286 
C 3622 2241 3610 2184 3597 2140 
L 2995 407 
L 2342 2275 
C 2330 2319 2310 2370 2310 2395 
C 2310 2560 2528 2560 2630 2560 
L 2630 2738 
C 2483 2732 2214 2732 2061 2732 
C 1901 2732 1734 2732 1587 2738 
L 1587 2560 
C 1939 2560 1939 2547 2074 2149 
L 1485 451 
L 851 2281 
C 819 2363 819 2376 819 2395 
C 819 2560 1037 2560 1139 2560 
L 1139 2738 
C 986 2732 717 2732 557 2732 
C 416 2732 198 2732 64 2738 
L 64 2560 
C 346 2560 416 2541 486 2331 
L 1274 49 
C 1299 -33 1318 -52 1370 -52 
C 1414 -52 1440 -39 1472 56 
L 2131 1980 
L 2797 56 
C 2829 -39 2854 -52 2899 -52 
C 2950 -52 2970 -33 2995 50 
L 3725 2183 
z
" transform="scale(0.015625)"/>
      <path id="CMR17-72" d="M 960 1497 
C 960 2112 1222 2688 1702 2688 
C 1747 2688 1792 2682 1837 2662 
C 1837 2662 1696 2617 1696 2452 
C 1696 2298 1818 2234 1914 2234 
C 1990 2234 2131 2279 2131 2458 
C 2131 2663 1926 2790 1709 2790 
C 1222 2790 1011 2317 947 2093 
L 941 2093 
L 941 2790 
L 198 2720 
L 198 2554 
C 576 2554 634 2515 634 2208 
L 634 428 
C 634 184 608 153 198 153 
L 198 -13 
C 352 0 646 0 813 0 
C 998 0 1325 0 1498 -13 
L 1498 153 
C 1037 153 960 153 960 440 
L 960 1497 
z
" transform="scale(0.015625)"/>
      <path id="CMR17-6d" d="M 4326 1933 
C 4326 2252 4269 2790 3507 2790 
C 3072 2790 2771 2496 2656 2151 
L 2650 2151 
C 2573 2676 2195 2790 1837 2790 
C 1331 2790 1069 2400 973 2144 
L 966 2144 
L 966 2790 
L 211 2720 
L 211 2554 
C 589 2554 646 2515 646 2208 
L 646 428 
C 646 184 621 153 211 153 
L 211 -13 
C 365 0 646 0 813 0 
C 979 0 1267 0 1421 -13 
L 1421 153 
C 1011 153 986 178 986 428 
L 986 1658 
C 986 2247 1344 2688 1792 2688 
C 2266 2688 2317 2266 2317 1958 
L 2317 428 
C 2317 184 2291 153 1882 153 
L 1882 -13 
C 2035 0 2317 0 2483 0 
C 2650 0 2938 0 3091 -13 
L 3091 153 
C 2682 153 2656 178 2656 428 
L 2656 1658 
C 2656 2247 3014 2688 3462 2688 
C 3936 2688 3987 2266 3987 1958 
L 3987 428 
C 3987 184 3962 153 3552 153 
L 3552 -13 
C 3706 0 3987 0 4154 0 
C 4320 0 4608 0 4762 -13 
L 4762 153 
C 4352 153 4326 178 4326 428 
L 4326 1933 
z
" transform="scale(0.015625)"/>
      <path id="CMR17-75" d="M 1882 2693 
L 1882 2528 
C 2259 2528 2317 2489 2317 2186 
L 2317 1032 
C 2317 500 2029 38 1555 38 
C 1030 38 986 348 986 678 
L 986 2763 
L 211 2693 
L 211 2528 
C 467 2528 640 2528 646 2274 
L 646 1058 
C 646 633 646 361 813 183 
C 896 101 1056 -64 1517 -64 
C 2061 -64 2272 377 2323 506 
L 2330 506 
L 2330 -63 
L 3091 -63 
L 3091 128 
C 2714 128 2656 166 2656 473 
L 2656 2763 
L 1882 2693 
z
" transform="scale(0.015625)"/>
      <path id="CMR17-61" d="M 2304 1653 
C 2304 2072 2304 2294 2035 2543 
C 1798 2752 1523 2816 1306 2816 
C 800 2816 435 2407 435 1971 
C 435 1728 627 1728 666 1728 
C 749 1728 896 1778 896 1954 
C 896 2112 774 2181 666 2181 
C 640 2181 608 2174 589 2168 
C 723 2592 1069 2714 1293 2714 
C 1613 2714 1965 2429 1965 1885 
L 1965 1600 
C 1587 1600 1133 1549 774 1357 
C 371 1133 256 813 256 570 
C 256 77 832 -64 1171 -64 
C 1523 -64 1850 139 1990 511 
C 2003 233 2182 -18 2464 -18 
C 2598 -18 2938 70 2938 567 
L 2938 920 
L 2822 920 
L 2822 562 
C 2822 178 2650 128 2566 128 
C 2304 128 2304 458 2304 738 
L 2304 1653 
z
M 1965 870 
C 1965 317 1568 38 1216 38 
C 896 38 646 275 646 570 
C 646 761 730 1100 1101 1305 
C 1408 1478 1760 1504 1965 1504 
L 1965 870 
z
" transform="scale(0.015625)"/>
     </defs>
     <use xlink:href="#CMR17-73" transform="scale(0.996264)"/>
     <use xlink:href="#CMR17-68" transform="translate(35.801338 0) scale(0.996264)"/>
     <use xlink:href="#CMR17-69" transform="translate(86.696707 0) scale(0.996264)"/>
     <use xlink:href="#CMR17-66" transform="translate(111.567766 0) scale(0.996264)"/>
     <use xlink:href="#CMR17-74" transform="translate(139.041278 0) scale(0.996264)"/>
     <use xlink:href="#CMR17-65" transform="translate(174.322046 0) scale(0.996264)"/>
     <use xlink:href="#CMR17-64" transform="translate(214.807707 0) scale(0.996264)"/>
     <use xlink:href="#CMR17-2b" transform="translate(295.779043 0) scale(0.996264)"/>
     <use xlink:href="#CMR17-73" transform="translate(397.569797 0) scale(0.996264)"/>
     <use xlink:href="#CMR17-6c" transform="translate(433.371135 0) scale(0.996264)"/>
     <use xlink:href="#CMR17-6f" transform="translate(458.242194 0) scale(0.996264)"/>
     <use xlink:href="#CMR17-77" transform="translate(501.330217 0) scale(0.996264)"/>
     <use xlink:href="#CMR17-65" transform="translate(565.237643 0) scale(0.996264)"/>
     <use xlink:href="#CMR17-72" transform="translate(605.723304 0) scale(0.996264)"/>
     <use xlink:href="#CMR17-6d" transform="translate(671.080038 0) scale(0.996264)"/>
     <use xlink:href="#CMR17-6f" transform="translate(747.999628 0) scale(0.996264)"/>
     <use xlink:href="#CMR17-64" transform="translate(796.292544 0) scale(0.996264)"/>
     <use xlink:href="#CMR17-75" transform="translate(847.187913 0) scale(0.996264)"/>
     <use xlink:href="#CMR17-6c" transform="translate(898.083283 0) scale(0.996264)"/>
     <use xlink:href="#CMR17-61" transform="translate(922.954342 0) scale(0.996264)"/>
     <use xlink:href="#CMR17-74" transform="translate(968.644819 0) scale(0.996264)"/>
     <use xlink:href="#CMR17-69" transform="translate(1003.925587 0) scale(0.996264)"/>
     <use xlink:href="#CMR17-6f" transform="translate(1028.796645 0) scale(0.996264)"/>
     <use xlink:href="#CMR17-6e" transform="translate(1074.487122 0) scale(0.996264)"/>
    </g>
   </g>
   <g id="line2d_55">
    <path d="M 297.673874 260.486298 
L 306.673874 260.486298 
L 315.673874 260.486298 
" style="fill: none; stroke: #2ca02c; stroke-width: 0.5; stroke-linecap: square"/>
    <g>
     <use xlink:href="#ma9acb6864a" x="306.673874" y="260.486298" style="fill: #2ca02c"/>
    </g>
   </g>
   <g id="text_48">
    <!-- slower + only cold shifted -->
    <g transform="translate(322.873874 263.636298) scale(0.09 -0.09)">
     <defs>
      <path id="CMR17-63" d="M 2234 2240 
C 2112 2240 1933 2240 1933 2017 
C 1933 1838 2080 1787 2163 1787 
C 2208 1787 2394 1807 2394 2024 
C 2394 2467 1958 2803 1466 2803 
C 787 2803 211 2178 211 1363 
C 211 516 813 -64 1466 -64 
C 2259 -64 2458 677 2458 748 
C 2458 774 2451 793 2406 793 
C 2362 793 2355 787 2330 703 
C 2163 180 1798 51 1523 51 
C 1114 51 621 427 621 1369 
C 621 2338 1094 2688 1472 2688 
C 1722 2688 2093 2573 2234 2240 
z
" transform="scale(0.015625)"/>
     </defs>
     <use xlink:href="#CMR17-73" transform="scale(0.996264)"/>
     <use xlink:href="#CMR17-6c" transform="translate(35.801338 0) scale(0.996264)"/>
     <use xlink:href="#CMR17-6f" transform="translate(60.672396 0) scale(0.996264)"/>
     <use xlink:href="#CMR17-77" transform="translate(103.760419 0) scale(0.996264)"/>
     <use xlink:href="#CMR17-65" transform="translate(167.667846 0) scale(0.996264)"/>
     <use xlink:href="#CMR17-72" transform="translate(208.153506 0) scale(0.996264)"/>
     <use xlink:href="#CMR17-2b" transform="translate(273.510241 0) scale(0.996264)"/>
     <use xlink:href="#CMR17-6f" transform="translate(375.300995 0) scale(0.996264)"/>
     <use xlink:href="#CMR17-6e" transform="translate(420.991472 0) scale(0.996264)"/>
     <use xlink:href="#CMR17-6c" transform="translate(471.886842 0) scale(0.996264)"/>
     <use xlink:href="#CMR17-79" transform="translate(496.757901 0) scale(0.996264)"/>
     <use xlink:href="#CMR17-63" transform="translate(575.126783 0) scale(0.996264)"/>
     <use xlink:href="#CMR17-6f" transform="translate(615.612443 0) scale(0.996264)"/>
     <use xlink:href="#CMR17-6c" transform="translate(661.30292 0) scale(0.996264)"/>
     <use xlink:href="#CMR17-64" transform="translate(686.173979 0) scale(0.996264)"/>
     <use xlink:href="#CMR17-73" transform="translate(767.145315 0) scale(0.996264)"/>
     <use xlink:href="#CMR17-68" transform="translate(802.946653 0) scale(0.996264)"/>
     <use xlink:href="#CMR17-69" transform="translate(853.842022 0) scale(0.996264)"/>
     <use xlink:href="#CMR17-66" transform="translate(878.713081 0) scale(0.996264)"/>
     <use xlink:href="#CMR17-74" transform="translate(906.186593 0) scale(0.996264)"/>
     <use xlink:href="#CMR17-65" transform="translate(941.467361 0) scale(0.996264)"/>
     <use xlink:href="#CMR17-64" transform="translate(981.953022 0) scale(0.996264)"/>
    </g>
   </g>
  </g>
 </g>
 <defs>
  <clipPath id="p3e9ff05ee2">
   <rect x="37.941379" y="20.118498" width="205.94105" height="78.885981"/>
  </clipPath>
  <clipPath id="pa57dedccf2">
   <rect x="284.85847" y="20.118498" width="205.94105" height="78.885981"/>
  </clipPath>
  <clipPath id="pb3e2406a8e">
   <rect x="37.941379" y="135.364387" width="205.94105" height="78.885981"/>
  </clipPath>
  <clipPath id="pb9d1db501a">
   <rect x="284.85847" y="135.364387" width="205.94105" height="78.885981"/>
  </clipPath>
 </defs>
</svg>
