<?xml version="1.0" encoding="utf-8" standalone="no"?>
<!DOCTYPE svg PUBLIC "-//W3C//DTD SVG 1.1//EN"
  "http://www.w3.org/Graphics/SVG/1.1/DTD/svg11.dtd">
<svg xmlns:xlink="http://www.w3.org/1999/xlink" width="497.99952pt" height="179.75952pt" viewBox="0 0 497.99952 179.75952" xmlns="http://www.w3.org/2000/svg" version="1.1">
 <metadata>
  <rdf:RDF xmlns:dc="http://purl.org/dc/elements/1.1/" xmlns:cc="http://creativecommons.org/ns#" xmlns:rdf="http://www.w3.org/1999/02/22-rdf-syntax-ns#">
   <cc:Work>
    <dc:type rdf:resource="http://purl.org/dc/dcmitype/StillImage"/>
    <dc:date>1980-01-01T00:00:00+00:00</dc:date>
    <dc:format>image/svg+xml</dc:format>
    <dc:creator>
     <cc:Agent>
      <dc:title>Matplotlib v3.6.2, https://matplotlib.org/</dc:title>
     </cc:Agent>
    </dc:creator>
   </cc:Work>
  </rdf:RDF>
 </metadata>
 <defs>
  <style type="text/css">*{stroke-linejoin: round; stroke-linecap: butt}</style>
 </defs>
 <g id="figure_1">
  <g id="patch_1">
   <path d="M 0 179.75952 
L 497.99952 179.75952 
L 497.99952 0 
L 0 0 
z
" style="fill: #ffffff"/>
  </g>
  <g id="axes_1">
   <g id="patch_2">
    <path d="M 55.031239 143.519296 
L 215.575478 143.519296 
L 215.575478 20.118498 
L 55.031239 20.118498 
z
" style="fill: #ffffff"/>
   </g>
   <g id="matplotlib.axis_1">
    <g id="xtick_1">
     <g id="line2d_1">
      <defs>
       <path id="m5565f6a649" d="M 0 0 
L 0 3.5 
" style="stroke: #000000; stroke-width: 0.8"/>
      </defs>
      <g>
       <use xlink:href="#m5565f6a649" x="57.463727" y="143.519296" style="stroke: #000000; stroke-width: 0.8"/>
      </g>
     </g>
     <g id="text_1">
      <!-- $\mathdefault{−20}$ -->
      <g transform="translate(49.936291 158.154098) scale(0.08 -0.08)">
       <defs>
        <path id="CMSY10-0" d="M 4218 1472 
C 4326 1472 4442 1472 4442 1600 
C 4442 1728 4326 1728 4218 1728 
L 755 1728 
C 646 1728 531 1728 531 1600 
C 531 1472 646 1472 755 1472 
L 4218 1472 
z
" transform="scale(0.015625)"/>
        <path id="CMR17-32" d="M 2669 989 
L 2554 989 
C 2490 536 2438 459 2413 420 
C 2381 369 1920 369 1830 369 
L 602 369 
C 832 619 1280 1072 1824 1597 
C 2214 1967 2669 2402 2669 3035 
C 2669 3790 2067 4224 1395 4224 
C 691 4224 262 3604 262 3030 
C 262 2780 448 2748 525 2748 
C 589 2748 781 2787 781 3010 
C 781 3207 614 3264 525 3264 
C 486 3264 448 3258 422 3245 
C 544 3790 915 4058 1306 4058 
C 1862 4058 2227 3617 2227 3035 
C 2227 2479 1901 2000 1536 1584 
L 262 146 
L 262 0 
L 2515 0 
L 2669 989 
z
" transform="scale(0.015625)"/>
        <path id="CMR17-30" d="M 2688 2025 
C 2688 2416 2682 3080 2413 3591 
C 2176 4039 1798 4198 1466 4198 
C 1158 4198 768 4058 525 3597 
C 269 3118 243 2524 243 2025 
C 243 1661 250 1106 448 619 
C 723 -39 1216 -128 1466 -128 
C 1760 -128 2208 -7 2470 600 
C 2662 1042 2688 1559 2688 2025 
z
M 1466 -26 
C 1056 -26 813 325 723 812 
C 653 1188 653 1738 653 2096 
C 653 2588 653 2997 736 3387 
C 858 3929 1216 4096 1466 4096 
C 1728 4096 2067 3923 2189 3400 
C 2272 3036 2278 2607 2278 2096 
C 2278 1680 2278 1169 2202 792 
C 2067 95 1690 -26 1466 -26 
z
" transform="scale(0.015625)"/>
       </defs>
       <use xlink:href="#CMSY10-0" transform="scale(0.996264)"/>
       <use xlink:href="#CMR17-32" transform="translate(77.487468 0) scale(0.996264)"/>
       <use xlink:href="#CMR17-30" transform="translate(123.177945 0) scale(0.996264)"/>
      </g>
     </g>
    </g>
    <g id="xtick_2">
     <g id="line2d_2">
      <g>
       <use xlink:href="#m5565f6a649" x="106.113496" y="143.519296" style="stroke: #000000; stroke-width: 0.8"/>
      </g>
     </g>
     <g id="text_2">
      <!-- $\mathdefault{0}$ -->
      <g transform="translate(103.996405 158.154098) scale(0.08 -0.08)">
       <use xlink:href="#CMR17-30" transform="scale(0.996264)"/>
      </g>
     </g>
    </g>
    <g id="xtick_3">
     <g id="line2d_3">
      <g>
       <use xlink:href="#m5565f6a649" x="154.763266" y="143.519296" style="stroke: #000000; stroke-width: 0.8"/>
      </g>
     </g>
     <g id="text_3">
      <!-- $\mathdefault{20}$ -->
      <g transform="translate(150.529083 158.154098) scale(0.08 -0.08)">
       <use xlink:href="#CMR17-32" transform="scale(0.996264)"/>
       <use xlink:href="#CMR17-30" transform="translate(45.690477 0) scale(0.996264)"/>
      </g>
     </g>
    </g>
    <g id="xtick_4">
     <g id="line2d_4">
      <g>
       <use xlink:href="#m5565f6a649" x="203.413035" y="143.519296" style="stroke: #000000; stroke-width: 0.8"/>
      </g>
     </g>
     <g id="text_4">
      <!-- $\mathdefault{40}$ -->
      <g transform="translate(199.178852 158.154098) scale(0.08 -0.08)">
       <defs>
        <path id="CMR17-34" d="M 2150 4122 
C 2150 4256 2144 4256 2029 4256 
L 128 1254 
L 128 1088 
L 1779 1088 
L 1779 457 
C 1779 224 1766 160 1318 160 
L 1197 160 
L 1197 0 
C 1402 0 1747 0 1965 0 
C 2182 0 2528 0 2733 0 
L 2733 160 
L 2611 160 
C 2163 160 2150 224 2150 457 
L 2150 1088 
L 2803 1088 
L 2803 1254 
L 2150 1254 
L 2150 4122 
z
M 1798 3703 
L 1798 1254 
L 256 1254 
L 1798 3703 
z
" transform="scale(0.015625)"/>
       </defs>
       <use xlink:href="#CMR17-34" transform="scale(0.996264)"/>
       <use xlink:href="#CMR17-30" transform="translate(45.690477 0) scale(0.996264)"/>
      </g>
     </g>
    </g>
    <g id="text_5">
     <!-- Cycle Shift -->
     <g transform="translate(111.226927 170.622342) scale(0.1 -0.1)">
      <defs>
       <path id="CMR17-43" d="M 3974 4289 
C 3974 4403 3968 4410 3930 4410 
C 3904 4410 3898 4403 3853 4327 
L 3571 3792 
C 3258 4187 2874 4416 2381 4416 
C 1286 4416 294 3456 294 2148 
C 294 826 1286 -128 2387 -128 
C 3366 -128 3974 730 3974 1461 
C 3974 1524 3974 1550 3917 1550 
C 3866 1550 3866 1531 3859 1474 
C 3808 585 3168 38 2477 38 
C 1824 38 781 495 781 2147 
C 781 3805 1843 4250 2464 4250 
C 3187 4250 3712 3628 3834 2745 
C 3846 2668 3846 2655 3904 2655 
C 3974 2655 3974 2668 3974 2783 
L 3974 4289 
z
" transform="scale(0.015625)"/>
       <path id="CMR17-79" d="M 2496 2197 
C 2656 2586 2944 2586 3034 2586 
L 3034 2752 
C 2912 2752 2752 2752 2630 2752 
C 2496 2752 2285 2752 2157 2758 
L 2157 2592 
C 2400 2573 2406 2394 2406 2343 
C 2406 2280 2394 2248 2362 2171 
L 1664 449 
L 902 2306 
C 870 2382 870 2426 870 2433 
C 870 2573 1018 2586 1171 2586 
L 1171 2758 
C 1018 2752 742 2752 582 2752 
C 410 2752 205 2752 64 2758 
L 64 2586 
C 410 2586 448 2554 531 2350 
L 1485 15 
C 1197 -738 1030 -1178 627 -1178 
C 557 -1178 397 -1159 282 -1044 
C 429 -1031 493 -942 493 -833 
C 493 -725 416 -629 288 -629 
C 147 -629 77 -725 77 -840 
C 77 -1095 339 -1280 627 -1280 
C 998 -1280 1229 -922 1357 -604 
L 2496 2197 
z
" transform="scale(0.015625)"/>
       <path id="CMR17-63" d="M 2234 2240 
C 2112 2240 1933 2240 1933 2017 
C 1933 1838 2080 1787 2163 1787 
C 2208 1787 2394 1807 2394 2024 
C 2394 2467 1958 2803 1466 2803 
C 787 2803 211 2178 211 1363 
C 211 516 813 -64 1466 -64 
C 2259 -64 2458 677 2458 748 
C 2458 774 2451 793 2406 793 
C 2362 793 2355 787 2330 703 
C 2163 180 1798 51 1523 51 
C 1114 51 621 427 621 1369 
C 621 2338 1094 2688 1472 2688 
C 1722 2688 2093 2573 2234 2240 
z
" transform="scale(0.015625)"/>
       <path id="CMR17-6c" d="M 979 4396 
L 218 4326 
L 218 4160 
C 595 4160 653 4122 653 3817 
L 653 426 
C 653 184 627 153 218 153 
L 218 -13 
C 371 0 653 0 813 0 
C 979 0 1261 0 1414 -13 
L 1414 153 
C 1005 153 979 178 979 426 
L 979 4396 
z
" transform="scale(0.015625)"/>
       <path id="CMR17-65" d="M 2438 1472 
C 2464 1498 2464 1511 2464 1576 
C 2464 2238 2118 2816 1389 2816 
C 710 2816 173 2169 173 1383 
C 173 551 781 -64 1459 -64 
C 2176 -64 2458 607 2458 740 
C 2458 784 2419 784 2406 784 
C 2362 784 2355 771 2330 696 
C 2189 265 1837 51 1504 51 
C 1229 51 954 203 781 480 
C 582 803 582 1176 582 1472 
L 2438 1472 
z
M 589 1568 
C 634 2505 1126 2714 1382 2714 
C 1818 2714 2112 2297 2118 1568 
L 589 1568 
z
" transform="scale(0.015625)"/>
       <path id="CMR17-53" d="M 2803 4290 
C 2803 4404 2797 4411 2758 4411 
C 2720 4411 2707 4385 2682 4328 
L 2490 3907 
C 2246 4257 1875 4416 1472 4416 
C 819 4416 294 3901 294 3253 
C 294 3056 339 2776 557 2510 
C 794 2218 1018 2167 1530 2033 
C 1722 1982 2042 1899 2106 1874 
C 2470 1722 2662 1341 2662 985 
C 2662 527 2336 38 1779 38 
C 1094 38 454 419 410 1311 
C 403 1413 397 1419 352 1419 
C 301 1419 294 1413 294 1285 
L 294 -1 
C 294 -115 301 -122 339 -122 
C 384 -122 397 -90 486 108 
C 493 127 493 140 614 381 
C 934 -39 1472 -128 1779 -128 
C 2477 -128 2970 451 2970 1124 
C 2970 1454 2848 1708 2778 1823 
C 2509 2230 2221 2306 1914 2382 
C 1869 2402 1856 2402 1498 2490 
C 1152 2579 1005 2624 845 2796 
C 666 2992 602 3196 602 3399 
C 602 3812 934 4263 1478 4263 
C 2157 4263 2579 3786 2675 2993 
C 2694 2878 2701 2872 2746 2872 
C 2803 2872 2803 2891 2803 2999 
L 2803 4290 
z
" transform="scale(0.015625)"/>
       <path id="CMR17-68" d="M 2656 1933 
C 2656 2259 2592 2790 1837 2790 
C 1312 2790 1056 2368 979 2157 
L 973 2157 
L 973 4396 
L 211 4326 
L 211 4160 
C 589 4160 646 4122 646 3817 
L 646 426 
C 646 184 621 153 211 153 
L 211 -13 
C 365 0 646 0 813 0 
C 979 0 1267 0 1421 -13 
L 1421 153 
C 1011 153 986 178 986 428 
L 986 1658 
C 986 2247 1344 2688 1792 2688 
C 2266 2688 2317 2266 2317 1958 
L 2317 428 
C 2317 184 2291 153 1882 153 
L 1882 -13 
C 2035 0 2317 0 2483 0 
C 2650 0 2938 0 3091 -13 
L 3091 153 
C 2682 153 2656 178 2656 428 
L 2656 1933 
z
" transform="scale(0.015625)"/>
       <path id="CMR17-69" d="M 992 3909 
C 992 4049 877 4170 730 4170 
C 589 4170 467 4056 467 3909 
C 467 3769 582 3648 730 3648 
C 870 3648 992 3763 992 3909 
z
M 243 2706 
L 243 2541 
C 602 2541 653 2502 653 2197 
L 653 427 
C 653 184 627 153 218 153 
L 218 -13 
C 371 0 646 0 806 0 
C 960 0 1222 0 1370 -13 
L 1370 153 
C 992 153 979 191 979 420 
L 979 2776 
L 243 2706 
z
" transform="scale(0.015625)"/>
       <path id="CMR17-66" d="M 979 2560 
L 1709 2560 
L 1709 2725 
L 966 2725 
L 966 3494 
C 966 4022 1235 4352 1510 4352 
C 1594 4352 1690 4327 1754 4282 
C 1702 4269 1568 4225 1568 4067 
C 1568 3901 1696 3850 1786 3850 
C 1875 3850 2003 3901 2003 4067 
C 2003 4308 1773 4454 1517 4454 
C 1152 4454 653 4156 653 3481 
L 653 2725 
L 141 2725 
L 141 2560 
L 653 2560 
L 653 427 
C 653 184 627 153 218 153 
L 218 -13 
C 371 0 666 0 832 0 
C 1018 0 1344 0 1517 -13 
L 1517 153 
C 1056 153 979 153 979 439 
L 979 2560 
z
" transform="scale(0.015625)"/>
       <path id="CMR17-74" d="M 966 2560 
L 1862 2560 
L 1862 2725 
L 966 2725 
L 966 3904 
L 851 3904 
C 838 3245 614 2668 70 2668 
L 70 2560 
L 627 2560 
L 627 771 
C 627 650 627 -64 1370 -64 
C 1747 -64 1965 306 1965 777 
L 1965 1140 
L 1850 1140 
L 1850 783 
C 1850 344 1677 51 1408 51 
C 1222 51 966 178 966 758 
L 966 2560 
z
" transform="scale(0.015625)"/>
      </defs>
      <use xlink:href="#CMR17-43" transform="scale(0.996264)"/>
      <use xlink:href="#CMR17-79" transform="translate(66.509881 0) scale(0.996264)"/>
      <use xlink:href="#CMR17-63" transform="translate(114.802796 0) scale(0.996264)"/>
      <use xlink:href="#CMR17-6c" transform="translate(155.288457 0) scale(0.996264)"/>
      <use xlink:href="#CMR17-65" transform="translate(180.159515 0) scale(0.996264)"/>
      <use xlink:href="#CMR17-53" transform="translate(250.721142 0) scale(0.996264)"/>
      <use xlink:href="#CMR17-68" transform="translate(301.616512 0) scale(0.996264)"/>
      <use xlink:href="#CMR17-69" transform="translate(352.511882 0) scale(0.996264)"/>
      <use xlink:href="#CMR17-66" transform="translate(377.38294 0) scale(0.996264)"/>
      <use xlink:href="#CMR17-74" transform="translate(404.856453 0) scale(0.996264)"/>
     </g>
    </g>
   </g>
   <g id="matplotlib.axis_2">
    <g id="ytick_1">
     <g id="line2d_5">
      <defs>
       <path id="m963f45f06c" d="M 0 0 
L -3.5 0 
" style="stroke: #000000; stroke-width: 0.8"/>
      </defs>
      <g>
       <use xlink:href="#m963f45f06c" x="55.031239" y="136.280467" style="stroke: #000000; stroke-width: 0.8"/>
      </g>
     </g>
     <g id="text_6">
      <!-- $\mathdefault{−0.006}$ -->
      <g transform="translate(20.055677 139.047868) scale(0.08 -0.08)">
       <defs>
        <path id="CMMI12-3a" d="M 1178 307 
C 1178 492 1024 619 870 619 
C 685 619 557 466 557 313 
C 557 128 710 0 864 0 
C 1050 0 1178 153 1178 307 
z
" transform="scale(0.015625)"/>
        <path id="CMR17-36" d="M 678 2176 
C 678 3690 1395 4032 1811 4032 
C 1946 4032 2272 4009 2400 3776 
C 2298 3776 2106 3776 2106 3553 
C 2106 3381 2246 3323 2336 3323 
C 2394 3323 2566 3348 2566 3560 
C 2566 3954 2246 4179 1805 4179 
C 1043 4179 243 3390 243 1984 
C 243 253 966 -128 1478 -128 
C 2099 -128 2688 427 2688 1283 
C 2688 2081 2170 2662 1517 2662 
C 1126 2662 838 2407 678 1960 
L 678 2176 
z
M 1478 25 
C 691 25 691 1200 691 1436 
C 691 1896 909 2560 1504 2560 
C 1613 2560 1926 2560 2138 2120 
C 2253 1870 2253 1609 2253 1289 
C 2253 944 2253 690 2118 434 
C 1978 171 1773 25 1478 25 
z
" transform="scale(0.015625)"/>
       </defs>
       <use xlink:href="#CMSY10-0" transform="scale(0.996264)"/>
       <use xlink:href="#CMR17-30" transform="translate(77.487468 0) scale(0.996264)"/>
       <use xlink:href="#CMMI12-3a" transform="translate(123.177945 0) scale(0.996264)"/>
       <use xlink:href="#CMR17-30" transform="translate(150.275122 0) scale(0.996264)"/>
       <use xlink:href="#CMR17-30" transform="translate(195.965599 0) scale(0.996264)"/>
       <use xlink:href="#CMR17-36" transform="translate(241.656076 0) scale(0.996264)"/>
      </g>
     </g>
    </g>
    <g id="ytick_2">
     <g id="line2d_6">
      <g>
       <use xlink:href="#m963f45f06c" x="55.031239" y="116.323584" style="stroke: #000000; stroke-width: 0.8"/>
      </g>
     </g>
     <g id="text_7">
      <!-- $\mathdefault{−0.004}$ -->
      <g transform="translate(20.055677 119.090985) scale(0.08 -0.08)">
       <use xlink:href="#CMSY10-0" transform="scale(0.996264)"/>
       <use xlink:href="#CMR17-30" transform="translate(77.487468 0) scale(0.996264)"/>
       <use xlink:href="#CMMI12-3a" transform="translate(123.177945 0) scale(0.996264)"/>
       <use xlink:href="#CMR17-30" transform="translate(150.275122 0) scale(0.996264)"/>
       <use xlink:href="#CMR17-30" transform="translate(195.965599 0) scale(0.996264)"/>
       <use xlink:href="#CMR17-34" transform="translate(241.656076 0) scale(0.996264)"/>
      </g>
     </g>
    </g>
    <g id="ytick_3">
     <g id="line2d_7">
      <g>
       <use xlink:href="#m963f45f06c" x="55.031239" y="96.366701" style="stroke: #000000; stroke-width: 0.8"/>
      </g>
     </g>
     <g id="text_8">
      <!-- $\mathdefault{−0.002}$ -->
      <g transform="translate(20.055677 99.134102) scale(0.08 -0.08)">
       <use xlink:href="#CMSY10-0" transform="scale(0.996264)"/>
       <use xlink:href="#CMR17-30" transform="translate(77.487468 0) scale(0.996264)"/>
       <use xlink:href="#CMMI12-3a" transform="translate(123.177945 0) scale(0.996264)"/>
       <use xlink:href="#CMR17-30" transform="translate(150.275122 0) scale(0.996264)"/>
       <use xlink:href="#CMR17-30" transform="translate(195.965599 0) scale(0.996264)"/>
       <use xlink:href="#CMR17-32" transform="translate(241.656076 0) scale(0.996264)"/>
      </g>
     </g>
    </g>
    <g id="ytick_4">
     <g id="line2d_8">
      <g>
       <use xlink:href="#m963f45f06c" x="55.031239" y="76.409819" style="stroke: #000000; stroke-width: 0.8"/>
      </g>
     </g>
     <g id="text_9">
      <!-- $\mathdefault{0.000}$ -->
      <g transform="translate(26.642183 79.177219) scale(0.08 -0.08)">
       <use xlink:href="#CMR17-30" transform="scale(0.996264)"/>
       <use xlink:href="#CMMI12-3a" transform="translate(45.690477 0) scale(0.996264)"/>
       <use xlink:href="#CMR17-30" transform="translate(72.787654 0) scale(0.996264)"/>
       <use xlink:href="#CMR17-30" transform="translate(118.478131 0) scale(0.996264)"/>
       <use xlink:href="#CMR17-30" transform="translate(164.168608 0) scale(0.996264)"/>
      </g>
     </g>
    </g>
    <g id="ytick_5">
     <g id="line2d_9">
      <g>
       <use xlink:href="#m963f45f06c" x="55.031239" y="56.452936" style="stroke: #000000; stroke-width: 0.8"/>
      </g>
     </g>
     <g id="text_10">
      <!-- $\mathdefault{0.002}$ -->
      <g transform="translate(26.642183 59.220337) scale(0.08 -0.08)">
       <use xlink:href="#CMR17-30" transform="scale(0.996264)"/>
       <use xlink:href="#CMMI12-3a" transform="translate(45.690477 0) scale(0.996264)"/>
       <use xlink:href="#CMR17-30" transform="translate(72.787654 0) scale(0.996264)"/>
       <use xlink:href="#CMR17-30" transform="translate(118.478131 0) scale(0.996264)"/>
       <use xlink:href="#CMR17-32" transform="translate(164.168608 0) scale(0.996264)"/>
      </g>
     </g>
    </g>
    <g id="ytick_6">
     <g id="line2d_10">
      <g>
       <use xlink:href="#m963f45f06c" x="55.031239" y="36.496053" style="stroke: #000000; stroke-width: 0.8"/>
      </g>
     </g>
     <g id="text_11">
      <!-- $\mathdefault{0.004}$ -->
      <g transform="translate(26.642183 39.263454) scale(0.08 -0.08)">
       <use xlink:href="#CMR17-30" transform="scale(0.996264)"/>
       <use xlink:href="#CMMI12-3a" transform="translate(45.690477 0) scale(0.996264)"/>
       <use xlink:href="#CMR17-30" transform="translate(72.787654 0) scale(0.996264)"/>
       <use xlink:href="#CMR17-30" transform="translate(118.478131 0) scale(0.996264)"/>
       <use xlink:href="#CMR17-34" transform="translate(164.168608 0) scale(0.996264)"/>
      </g>
     </g>
    </g>
    <g id="text_12">
     <!-- $\bar{P}$ -->
     <g style="fill: #1f77b4" transform="translate(14.118498 85.424319) rotate(-90) scale(0.1 -0.1)">
      <defs>
       <path id="CMR17-16" d="M 2554 3520 
L 2554 3666 
L 378 3666 
L 378 3520 
L 2554 3520 
z
" transform="scale(0.015625)"/>
       <path id="CMMI12-50" d="M 1894 2023 
L 2970 2023 
C 3853 2023 4736 2673 4736 3401 
C 4736 3898 4314 4352 3507 4352 
L 1530 4352 
C 1408 4352 1350 4352 1350 4231 
C 1350 4167 1408 4167 1504 4167 
C 1894 4167 1894 4116 1894 4046 
C 1894 4034 1894 3995 1869 3899 
L 1005 472 
C 947 249 934 185 486 185 
C 365 185 301 185 301 70 
C 301 0 358 0 397 0 
C 518 0 646 0 768 0 
L 1517 0 
C 1638 0 1773 0 1894 0 
C 1946 0 2016 0 2016 121 
C 2016 185 1958 185 1862 185 
C 1478 185 1472 230 1472 293 
C 1472 325 1478 369 1485 401 
L 1894 2023 
z
M 2355 3930 
C 2413 4167 2438 4167 2688 4167 
L 3322 4167 
C 3802 4167 4198 4013 4198 3535 
C 4198 3369 4115 2827 3821 2534 
C 3712 2419 3405 2176 2822 2176 
L 1920 2176 
L 2355 3930 
z
" transform="scale(0.015625)"/>
      </defs>
      <use xlink:href="#CMR17-16" transform="translate(23.496833 25.189733) scale(0.996264)"/>
      <use xlink:href="#CMMI12-50" transform="scale(0.996264)"/>
     </g>
    </g>
   </g>
   <g id="line2d_11">
    <path d="M 55.031239 76.409819 
L 215.575478 76.409819 
" clip-path="url(#p95ccb981a8)" style="fill: none; stroke: #d3d3d3; stroke-width: 0.5; stroke-linecap: square"/>
   </g>
   <g id="LineCollection_1">
    <path d="M 62.328704 144.214921 
L 62.328704 144.09292 
" clip-path="url(#p95ccb981a8)" style="fill: none; stroke: #1f77b4; stroke-width: 0.5"/>
    <path d="M 76.923635 126.340707 
L 76.923635 126.216159 
" clip-path="url(#p95ccb981a8)" style="fill: none; stroke: #1f77b4; stroke-width: 0.5"/>
    <path d="M 91.518566 62.536089 
L 91.518566 62.413463 
" clip-path="url(#p95ccb981a8)" style="fill: none; stroke: #1f77b4; stroke-width: 0.5"/>
    <path d="M 106.113496 52.066877 
L 106.113496 51.945332 
" clip-path="url(#p95ccb981a8)" style="fill: none; stroke: #1f77b4; stroke-width: 0.5"/>
    <path d="M 120.708427 48.209182 
L 120.708427 48.087895 
" clip-path="url(#p95ccb981a8)" style="fill: none; stroke: #1f77b4; stroke-width: 0.5"/>
    <path d="M 135.303358 36.90879 
L 135.303358 36.790402 
" clip-path="url(#p95ccb981a8)" style="fill: none; stroke: #1f77b4; stroke-width: 0.5"/>
    <path d="M 149.898289 35.55967 
L 149.898289 35.442626 
" clip-path="url(#p95ccb981a8)" style="fill: none; stroke: #1f77b4; stroke-width: 0.5"/>
    <path d="M 164.49322 37.283214 
L 164.49322 37.16679 
" clip-path="url(#p95ccb981a8)" style="fill: none; stroke: #1f77b4; stroke-width: 0.5"/>
    <path d="M 179.088151 41.57578 
L 179.088151 41.459492 
" clip-path="url(#p95ccb981a8)" style="fill: none; stroke: #1f77b4; stroke-width: 0.5"/>
    <path d="M 193.683081 58.991867 
L 193.683081 58.87503 
" clip-path="url(#p95ccb981a8)" style="fill: none; stroke: #1f77b4; stroke-width: 0.5"/>
    <path d="M 208.278012 107.058361 
L 208.278012 106.941811 
" clip-path="url(#p95ccb981a8)" style="fill: none; stroke: #1f77b4; stroke-width: 0.5"/>
   </g>
   <g id="LineCollection_2">
    <path d="M 62.328704 123.483336 
L 62.328704 123.396844 
" clip-path="url(#p95ccb981a8)" style="fill: none; stroke: #ff7f0e; stroke-width: 0.5"/>
    <path d="M 76.923635 105.366483 
L 76.923635 105.271128 
" clip-path="url(#p95ccb981a8)" style="fill: none; stroke: #ff7f0e; stroke-width: 0.5"/>
    <path d="M 91.518566 46.542371 
L 91.518566 46.456711 
" clip-path="url(#p95ccb981a8)" style="fill: none; stroke: #ff7f0e; stroke-width: 0.5"/>
    <path d="M 106.113496 38.598004 
L 106.113496 38.516159 
" clip-path="url(#p95ccb981a8)" style="fill: none; stroke: #ff7f0e; stroke-width: 0.5"/>
    <path d="M 120.708427 37.095397 
L 120.708427 37.010857 
" clip-path="url(#p95ccb981a8)" style="fill: none; stroke: #ff7f0e; stroke-width: 0.5"/>
    <path d="M 135.303358 34.850637 
L 135.303358 34.7657 
" clip-path="url(#p95ccb981a8)" style="fill: none; stroke: #ff7f0e; stroke-width: 0.5"/>
    <path d="M 149.898289 35.528597 
L 149.898289 35.443649 
" clip-path="url(#p95ccb981a8)" style="fill: none; stroke: #ff7f0e; stroke-width: 0.5"/>
    <path d="M 164.49322 37.176379 
L 164.49322 37.091375 
" clip-path="url(#p95ccb981a8)" style="fill: none; stroke: #ff7f0e; stroke-width: 0.5"/>
    <path d="M 179.088151 42.288005 
L 179.088151 42.202912 
" clip-path="url(#p95ccb981a8)" style="fill: none; stroke: #ff7f0e; stroke-width: 0.5"/>
    <path d="M 193.683081 58.792154 
L 193.683081 58.706898 
" clip-path="url(#p95ccb981a8)" style="fill: none; stroke: #ff7f0e; stroke-width: 0.5"/>
    <path d="M 208.278012 107.112563 
L 208.278012 107.036031 
" clip-path="url(#p95ccb981a8)" style="fill: none; stroke: #ff7f0e; stroke-width: 0.5"/>
   </g>
   <g id="LineCollection_3">
    <path d="M 62.328704 97.276922 
L 62.328704 97.105736 
" clip-path="url(#p95ccb981a8)" style="fill: none; stroke: #2ca02c; stroke-width: 0.5"/>
    <path d="M 76.923635 97.517667 
L 76.923635 97.346484 
" clip-path="url(#p95ccb981a8)" style="fill: none; stroke: #2ca02c; stroke-width: 0.5"/>
    <path d="M 91.518566 92.454024 
L 91.518566 92.288175 
" clip-path="url(#p95ccb981a8)" style="fill: none; stroke: #2ca02c; stroke-width: 0.5"/>
    <path d="M 106.113496 89.917629 
L 106.113496 89.750867 
" clip-path="url(#p95ccb981a8)" style="fill: none; stroke: #2ca02c; stroke-width: 0.5"/>
    <path d="M 120.708427 87.562235 
L 120.708427 87.391592 
" clip-path="url(#p95ccb981a8)" style="fill: none; stroke: #2ca02c; stroke-width: 0.5"/>
    <path d="M 135.303358 78.494723 
L 135.303358 78.328601 
" clip-path="url(#p95ccb981a8)" style="fill: none; stroke: #2ca02c; stroke-width: 0.5"/>
    <path d="M 149.898289 76.465674 
L 149.898289 76.302147 
" clip-path="url(#p95ccb981a8)" style="fill: none; stroke: #2ca02c; stroke-width: 0.5"/>
    <path d="M 164.49322 76.542935 
L 164.49322 76.380531 
" clip-path="url(#p95ccb981a8)" style="fill: none; stroke: #2ca02c; stroke-width: 0.5"/>
    <path d="M 179.088151 75.728144 
L 179.088151 75.566004 
" clip-path="url(#p95ccb981a8)" style="fill: none; stroke: #2ca02c; stroke-width: 0.5"/>
    <path d="M 193.683081 76.656887 
L 193.683081 76.495552 
" clip-path="url(#p95ccb981a8)" style="fill: none; stroke: #2ca02c; stroke-width: 0.5"/>
    <path d="M 208.278012 76.497991 
L 208.278012 76.338763 
" clip-path="url(#p95ccb981a8)" style="fill: none; stroke: #2ca02c; stroke-width: 0.5"/>
   </g>
   <g id="line2d_12">
    <path d="M 62.328704 144.153921 
L 76.923635 126.278433 
L 91.518566 62.474776 
L 106.113496 52.006105 
L 120.708427 48.148538 
L 135.303358 36.849596 
L 149.898289 35.501148 
L 164.49322 37.225002 
L 179.088151 41.517636 
L 193.683081 58.933449 
L 208.278012 107.000086 
" clip-path="url(#p95ccb981a8)" style="fill: none; stroke: #1f77b4; stroke-width: 0.5; stroke-linecap: square"/>
    <defs>
     <path id="mbb712d8936" d="M 0 1.4 
C 0.371284 1.4 0.727412 1.252487 0.989949 0.989949 
C 1.252487 0.727412 1.4 0.371284 1.4 0 
C 1.4 -0.371284 1.252487 -0.727412 0.989949 -0.989949 
C 0.727412 -1.252487 0.371284 -1.4 0 -1.4 
C -0.371284 -1.4 -0.727412 -1.252487 -0.989949 -0.989949 
C -1.252487 -0.727412 -1.4 -0.371284 -1.4 0 
C -1.4 0.371284 -1.252487 0.727412 -0.989949 0.989949 
C -0.727412 1.252487 -0.371284 1.4 0 1.4 
z
"/>
    </defs>
    <g clip-path="url(#p95ccb981a8)">
     <use xlink:href="#mbb712d8936" x="62.328704" y="144.153921" style="fill: #1f77b4"/>
     <use xlink:href="#mbb712d8936" x="76.923635" y="126.278433" style="fill: #1f77b4"/>
     <use xlink:href="#mbb712d8936" x="91.518566" y="62.474776" style="fill: #1f77b4"/>
     <use xlink:href="#mbb712d8936" x="106.113496" y="52.006105" style="fill: #1f77b4"/>
     <use xlink:href="#mbb712d8936" x="120.708427" y="48.148538" style="fill: #1f77b4"/>
     <use xlink:href="#mbb712d8936" x="135.303358" y="36.849596" style="fill: #1f77b4"/>
     <use xlink:href="#mbb712d8936" x="149.898289" y="35.501148" style="fill: #1f77b4"/>
     <use xlink:href="#mbb712d8936" x="164.49322" y="37.225002" style="fill: #1f77b4"/>
     <use xlink:href="#mbb712d8936" x="179.088151" y="41.517636" style="fill: #1f77b4"/>
     <use xlink:href="#mbb712d8936" x="193.683081" y="58.933449" style="fill: #1f77b4"/>
     <use xlink:href="#mbb712d8936" x="208.278012" y="107.000086" style="fill: #1f77b4"/>
    </g>
   </g>
   <g id="line2d_13">
    <path d="M 62.328704 123.44009 
L 76.923635 105.318805 
L 91.518566 46.499541 
L 106.113496 38.557081 
L 120.708427 37.053127 
L 135.303358 34.808168 
L 149.898289 35.486123 
L 164.49322 37.133877 
L 179.088151 42.245459 
L 193.683081 58.749526 
L 208.278012 107.074297 
" clip-path="url(#p95ccb981a8)" style="fill: none; stroke: #ff7f0e; stroke-width: 0.5; stroke-linecap: square"/>
    <defs>
     <path id="m0c4d926468" d="M 0 1.4 
C 0.371284 1.4 0.727412 1.252487 0.989949 0.989949 
C 1.252487 0.727412 1.4 0.371284 1.4 0 
C 1.4 -0.371284 1.252487 -0.727412 0.989949 -0.989949 
C 0.727412 -1.252487 0.371284 -1.4 0 -1.4 
C -0.371284 -1.4 -0.727412 -1.252487 -0.989949 -0.989949 
C -1.252487 -0.727412 -1.4 -0.371284 -1.4 0 
C -1.4 0.371284 -1.252487 0.727412 -0.989949 0.989949 
C -0.727412 1.252487 -0.371284 1.4 0 1.4 
z
"/>
    </defs>
    <g clip-path="url(#p95ccb981a8)">
     <use xlink:href="#m0c4d926468" x="62.328704" y="123.44009" style="fill: #ff7f0e"/>
     <use xlink:href="#m0c4d926468" x="76.923635" y="105.318805" style="fill: #ff7f0e"/>
     <use xlink:href="#m0c4d926468" x="91.518566" y="46.499541" style="fill: #ff7f0e"/>
     <use xlink:href="#m0c4d926468" x="106.113496" y="38.557081" style="fill: #ff7f0e"/>
     <use xlink:href="#m0c4d926468" x="120.708427" y="37.053127" style="fill: #ff7f0e"/>
     <use xlink:href="#m0c4d926468" x="135.303358" y="34.808168" style="fill: #ff7f0e"/>
     <use xlink:href="#m0c4d926468" x="149.898289" y="35.486123" style="fill: #ff7f0e"/>
     <use xlink:href="#m0c4d926468" x="164.49322" y="37.133877" style="fill: #ff7f0e"/>
     <use xlink:href="#m0c4d926468" x="179.088151" y="42.245459" style="fill: #ff7f0e"/>
     <use xlink:href="#m0c4d926468" x="193.683081" y="58.749526" style="fill: #ff7f0e"/>
     <use xlink:href="#m0c4d926468" x="208.278012" y="107.074297" style="fill: #ff7f0e"/>
    </g>
   </g>
   <g id="line2d_14">
    <path d="M 62.328704 97.191329 
L 76.923635 97.432075 
L 91.518566 92.371099 
L 106.113496 89.834248 
L 120.708427 87.476914 
L 135.303358 78.411662 
L 149.898289 76.383911 
L 164.49322 76.461733 
L 179.088151 75.647074 
L 193.683081 76.576219 
L 208.278012 76.418377 
" clip-path="url(#p95ccb981a8)" style="fill: none; stroke: #2ca02c; stroke-width: 0.5; stroke-linecap: square"/>
    <defs>
     <path id="mb423df5498" d="M 0 1.4 
C 0.371284 1.4 0.727412 1.252487 0.989949 0.989949 
C 1.252487 0.727412 1.4 0.371284 1.4 0 
C 1.4 -0.371284 1.252487 -0.727412 0.989949 -0.989949 
C 0.727412 -1.252487 0.371284 -1.4 0 -1.4 
C -0.371284 -1.4 -0.727412 -1.252487 -0.989949 -0.989949 
C -1.252487 -0.727412 -1.4 -0.371284 -1.4 0 
C -1.4 0.371284 -1.252487 0.727412 -0.989949 0.989949 
C -0.727412 1.252487 -0.371284 1.4 0 1.4 
z
"/>
    </defs>
    <g clip-path="url(#p95ccb981a8)">
     <use xlink:href="#mb423df5498" x="62.328704" y="97.191329" style="fill: #2ca02c"/>
     <use xlink:href="#mb423df5498" x="76.923635" y="97.432075" style="fill: #2ca02c"/>
     <use xlink:href="#mb423df5498" x="91.518566" y="92.371099" style="fill: #2ca02c"/>
     <use xlink:href="#mb423df5498" x="106.113496" y="89.834248" style="fill: #2ca02c"/>
     <use xlink:href="#mb423df5498" x="120.708427" y="87.476914" style="fill: #2ca02c"/>
     <use xlink:href="#mb423df5498" x="135.303358" y="78.411662" style="fill: #2ca02c"/>
     <use xlink:href="#mb423df5498" x="149.898289" y="76.383911" style="fill: #2ca02c"/>
     <use xlink:href="#mb423df5498" x="164.49322" y="76.461733" style="fill: #2ca02c"/>
     <use xlink:href="#mb423df5498" x="179.088151" y="75.647074" style="fill: #2ca02c"/>
     <use xlink:href="#mb423df5498" x="193.683081" y="76.576219" style="fill: #2ca02c"/>
     <use xlink:href="#mb423df5498" x="208.278012" y="76.418377" style="fill: #2ca02c"/>
    </g>
   </g>
   <g id="patch_3">
    <path d="M 55.031239 143.519296 
L 55.031239 20.118498 
" style="fill: none; stroke: #000000; stroke-width: 0.8; stroke-linejoin: miter; stroke-linecap: square"/>
   </g>
   <g id="patch_4">
    <path d="M 215.575478 143.519296 
L 215.575478 20.118498 
" style="fill: none; stroke: #000000; stroke-width: 0.8; stroke-linejoin: miter; stroke-linecap: square"/>
   </g>
   <g id="patch_5">
    <path d="M 55.031239 143.519296 
L 215.575478 143.519296 
" style="fill: none; stroke: #000000; stroke-width: 0.8; stroke-linejoin: miter; stroke-linecap: square"/>
   </g>
   <g id="patch_6">
    <path d="M 55.031239 20.118498 
L 215.575478 20.118498 
" style="fill: none; stroke: #000000; stroke-width: 0.8; stroke-linejoin: miter; stroke-linecap: square"/>
   </g>
   <g id="text_13">
    <!-- Fast Coupling -->
    <g transform="translate(104.76503 14.118498) scale(0.1 -0.1)">
     <defs>
      <path id="CMR17-46" d="M 3482 4325 
L 326 4325 
L 326 4160 
C 768 4160 838 4160 838 3874 
L 838 446 
C 838 160 768 160 326 160 
L 326 0 
C 512 0 870 0 1069 0 
C 1331 0 1638 0 1901 0 
L 1901 160 
L 1760 160 
C 1274 160 1261 223 1261 452 
L 1261 2075 
L 1837 2075 
C 2432 2075 2490 1865 2490 1332 
L 2605 1332 
L 2605 2987 
L 2490 2987 
C 2490 2450 2432 2240 1837 2240 
L 1261 2240 
L 1261 3911 
C 1261 4128 1274 4160 1530 4160 
L 2355 4160 
C 3322 4160 3430 3765 3520 2916 
L 3635 2916 
L 3482 4325 
z
" transform="scale(0.015625)"/>
      <path id="CMR17-61" d="M 2304 1653 
C 2304 2072 2304 2294 2035 2543 
C 1798 2752 1523 2816 1306 2816 
C 800 2816 435 2407 435 1971 
C 435 1728 627 1728 666 1728 
C 749 1728 896 1778 896 1954 
C 896 2112 774 2181 666 2181 
C 640 2181 608 2174 589 2168 
C 723 2592 1069 2714 1293 2714 
C 1613 2714 1965 2429 1965 1885 
L 1965 1600 
C 1587 1600 1133 1549 774 1357 
C 371 1133 256 813 256 570 
C 256 77 832 -64 1171 -64 
C 1523 -64 1850 139 1990 511 
C 2003 233 2182 -18 2464 -18 
C 2598 -18 2938 70 2938 567 
L 2938 920 
L 2822 920 
L 2822 562 
C 2822 178 2650 128 2566 128 
C 2304 128 2304 458 2304 738 
L 2304 1653 
z
M 1965 870 
C 1965 317 1568 38 1216 38 
C 896 38 646 275 646 570 
C 646 761 730 1100 1101 1305 
C 1408 1478 1760 1504 1965 1504 
L 1965 870 
z
" transform="scale(0.015625)"/>
      <path id="CMR17-73" d="M 1978 2697 
C 1978 2813 1971 2819 1933 2819 
C 1907 2819 1901 2813 1824 2717 
C 1805 2691 1747 2626 1728 2601 
C 1523 2819 1235 2819 1126 2819 
C 416 2819 160 2447 160 2076 
C 160 1498 813 1365 998 1325 
C 1402 1243 1542 1217 1677 1101 
C 1760 1025 1901 884 1901 654 
C 1901 384 1747 38 1158 38 
C 602 38 403 460 288 1021 
C 269 1110 269 1117 218 1117 
C 166 1117 160 1110 160 983 
L 160 63 
C 160 -51 166 -58 205 -58 
C 237 -58 243 -51 275 0 
C 314 57 410 211 448 276 
C 576 103 800 -64 1158 -64 
C 1792 -64 2131 283 2131 784 
C 2131 1112 1958 1285 1875 1362 
C 1683 1561 1459 1606 1190 1657 
C 838 1735 390 1825 390 2217 
C 390 2383 480 2737 1126 2737 
C 1811 2737 1850 2094 1862 1888 
C 1869 1856 1901 1849 1920 1849 
C 1978 1849 1978 1869 1978 1978 
L 1978 2697 
z
" transform="scale(0.015625)"/>
      <path id="CMR17-6f" d="M 2758 1356 
C 2758 2176 2163 2816 1466 2816 
C 768 2816 173 2176 173 1356 
C 173 551 768 -64 1466 -64 
C 2163 -64 2758 551 2758 1356 
z
M 1466 51 
C 1165 51 909 230 762 480 
C 602 767 582 1126 582 1408 
C 582 1677 595 2010 762 2298 
C 890 2509 1139 2714 1466 2714 
C 1754 2714 1997 2554 2150 2330 
C 2349 2029 2349 1607 2349 1408 
C 2349 1158 2336 775 2163 467 
C 1984 173 1709 51 1466 51 
z
" transform="scale(0.015625)"/>
      <path id="CMR17-75" d="M 1882 2693 
L 1882 2528 
C 2259 2528 2317 2489 2317 2186 
L 2317 1032 
C 2317 500 2029 38 1555 38 
C 1030 38 986 348 986 678 
L 986 2763 
L 211 2693 
L 211 2528 
C 467 2528 640 2528 646 2274 
L 646 1058 
C 646 633 646 361 813 183 
C 896 101 1056 -64 1517 -64 
C 2061 -64 2272 377 2323 506 
L 2330 506 
L 2330 -63 
L 3091 -63 
L 3091 128 
C 2714 128 2656 166 2656 473 
L 2656 2763 
L 1882 2693 
z
" transform="scale(0.015625)"/>
      <path id="CMR17-70" d="M 1408 -1063 
C 998 -1063 973 -1037 973 -789 
L 973 402 
C 1158 134 1427 -38 1766 -38 
C 2406 -38 3053 523 3053 1388 
C 3053 2191 2496 2802 1837 2802 
C 1453 2802 1139 2592 960 2338 
L 960 2802 
L 198 2732 
L 198 2567 
C 576 2567 634 2528 634 2223 
L 634 -789 
C 634 -1031 608 -1063 198 -1063 
L 198 -1228 
C 352 -1216 634 -1216 800 -1216 
C 966 -1216 1254 -1216 1408 -1228 
L 1408 -1063 
z
M 973 2012 
C 973 2102 973 2235 1222 2471 
C 1254 2497 1472 2688 1792 2688 
C 2259 2688 2643 2108 2643 1382 
C 2643 656 2234 64 1728 64 
C 1498 64 1248 172 1056 472 
C 973 612 973 650 973 752 
L 973 2012 
z
" transform="scale(0.015625)"/>
      <path id="CMR17-6e" d="M 2656 1933 
C 2656 2259 2592 2790 1837 2790 
C 1331 2790 1069 2400 973 2144 
L 966 2144 
L 966 2790 
L 211 2720 
L 211 2554 
C 589 2554 646 2515 646 2208 
L 646 428 
C 646 184 621 153 211 153 
L 211 -13 
C 365 0 646 0 813 0 
C 979 0 1267 0 1421 -13 
L 1421 153 
C 1011 153 986 178 986 428 
L 986 1658 
C 986 2247 1344 2688 1792 2688 
C 2266 2688 2317 2266 2317 1958 
L 2317 428 
C 2317 184 2291 153 1882 153 
L 1882 -13 
C 2035 0 2317 0 2483 0 
C 2650 0 2938 0 3091 -13 
L 3091 153 
C 2682 153 2656 178 2656 428 
L 2656 1933 
z
" transform="scale(0.015625)"/>
      <path id="CMR17-67" d="M 710 1164 
C 832 1068 1043 960 1299 960 
C 1805 960 2240 1357 2240 1888 
C 2240 2054 2189 2310 1997 2509 
C 2176 2692 2438 2752 2586 2752 
C 2611 2752 2650 2752 2682 2734 
C 2656 2728 2598 2703 2598 2605 
C 2598 2527 2656 2471 2739 2471 
C 2835 2471 2886 2533 2886 2614 
C 2886 2731 2790 2854 2586 2854 
C 2330 2854 2106 2738 1926 2580 
C 1734 2753 1504 2816 1299 2816 
C 794 2816 358 2419 358 1888 
C 358 1522 570 1292 634 1228 
C 442 1004 442 743 442 711 
C 442 545 506 302 723 168 
C 390 85 128 -169 128 -486 
C 128 -943 736 -1280 1466 -1280 
C 2170 -1280 2803 -956 2803 -479 
C 2803 384 1856 384 1363 384 
C 1216 384 954 384 922 391 
C 723 423 589 602 589 826 
C 589 883 589 1024 710 1164 
z
M 1299 1068 
C 736 1068 736 1760 736 1889 
C 736 2016 736 2708 1299 2708 
C 1862 2708 1862 2016 1862 1889 
C 1862 1760 1862 1068 1299 1068 
z
M 1466 -1171 
C 826 -1171 384 -835 384 -486 
C 384 -289 493 -105 634 -4 
C 794 104 858 104 1293 104 
C 1818 104 2547 104 2547 -486 
C 2547 -835 2106 -1171 1466 -1171 
z
" transform="scale(0.015625)"/>
     </defs>
     <use xlink:href="#CMR17-46" transform="scale(0.996264)"/>
     <use xlink:href="#CMR17-61" transform="translate(52.176591 0) scale(0.996264)"/>
     <use xlink:href="#CMR17-73" transform="translate(97.867068 0) scale(0.996264)"/>
     <use xlink:href="#CMR17-74" transform="translate(133.668406 0) scale(0.996264)"/>
     <use xlink:href="#CMR17-43" transform="translate(199.02514 0) scale(0.996264)"/>
     <use xlink:href="#CMR17-6f" transform="translate(265.535021 0) scale(0.996264)"/>
     <use xlink:href="#CMR17-75" transform="translate(311.225498 0) scale(0.996264)"/>
     <use xlink:href="#CMR17-70" transform="translate(362.120868 0) scale(0.996264)"/>
     <use xlink:href="#CMR17-6c" transform="translate(413.016237 0) scale(0.996264)"/>
     <use xlink:href="#CMR17-69" transform="translate(437.887296 0) scale(0.996264)"/>
     <use xlink:href="#CMR17-6e" transform="translate(462.758354 0) scale(0.996264)"/>
     <use xlink:href="#CMR17-67" transform="translate(513.653724 0) scale(0.996264)"/>
    </g>
   </g>
   <g id="legend_1">
    <g id="patch_7">
     <path d="M 113.121338 139.019296 
L 157.485379 139.019296 
Q 159.285379 139.019296 159.285379 137.219296 
L 159.285379 98.654255 
Q 159.285379 96.854255 157.485379 96.854255 
L 113.121338 96.854255 
Q 111.321338 96.854255 111.321338 98.654255 
L 111.321338 137.219296 
Q 111.321338 139.019296 113.121338 139.019296 
z
" style="fill: #ffffff; opacity: 0.8; stroke: #cccccc; stroke-width: 0.24; stroke-linejoin: miter"/>
    </g>
    <g id="LineCollection_4">
     <path d="M 123.921338 108.104255 
L 123.921338 99.104255 
" style="fill: none; stroke: #1f77b4; stroke-width: 0.5"/>
    </g>
    <g id="line2d_15">
     <path d="M 114.921338 103.604255 
L 132.921338 103.604255 
" style="fill: none; stroke: #1f77b4; stroke-width: 0.5; stroke-linecap: square"/>
    </g>
    <g id="line2d_16">
     <g>
      <use xlink:href="#mbb712d8936" x="123.921338" y="103.604255" style="fill: #1f77b4"/>
     </g>
    </g>
    <g id="text_14">
     <!-- $\bar{P}$ -->
     <g transform="translate(140.121338 106.754255) scale(0.09 -0.09)">
      <use xlink:href="#CMR17-16" transform="translate(23.496833 25.189733) scale(0.996264)"/>
      <use xlink:href="#CMMI12-50" transform="scale(0.996264)"/>
     </g>
    </g>
    <g id="LineCollection_5">
     <path d="M 123.921338 121.731101 
L 123.921338 112.731101 
" style="fill: none; stroke: #ff7f0e; stroke-width: 0.5"/>
    </g>
    <g id="line2d_17">
     <path d="M 114.921338 117.231101 
L 132.921338 117.231101 
" style="fill: none; stroke: #ff7f0e; stroke-width: 0.5; stroke-linecap: square"/>
    </g>
    <g id="line2d_18">
     <g>
      <use xlink:href="#m0c4d926468" x="123.921338" y="117.231101" style="fill: #ff7f0e"/>
     </g>
    </g>
    <g id="text_15">
     <!-- $\bar{P}_{\mathrm{sys}}$ -->
     <g transform="translate(140.121338 120.381101) scale(0.09 -0.09)">
      <use xlink:href="#CMR17-16" transform="translate(23.496833 25.189733) scale(0.996264)"/>
      <use xlink:href="#CMMI12-50" transform="scale(0.996264)"/>
      <use xlink:href="#CMR17-73" transform="translate(62.877232 -14.943915) scale(0.697382)"/>
      <use xlink:href="#CMR17-79" transform="translate(87.938055 -14.943915) scale(0.697382)"/>
      <use xlink:href="#CMR17-73" transform="translate(121.742942 -14.943915) scale(0.697382)"/>
     </g>
    </g>
    <g id="LineCollection_6">
     <path d="M 123.921338 135.025834 
L 123.921338 126.025834 
" style="fill: none; stroke: #2ca02c; stroke-width: 0.5"/>
    </g>
    <g id="line2d_19">
     <path d="M 114.921338 130.525834 
L 132.921338 130.525834 
" style="fill: none; stroke: #2ca02c; stroke-width: 0.5; stroke-linecap: square"/>
    </g>
    <g id="line2d_20">
     <g>
      <use xlink:href="#mb423df5498" x="123.921338" y="130.525834" style="fill: #2ca02c"/>
     </g>
    </g>
    <g id="text_16">
     <!-- $\bar{P}_{\mathrm{int}}$ -->
     <g transform="translate(140.121338 133.675834) scale(0.09 -0.09)">
      <use xlink:href="#CMR17-16" transform="translate(23.496833 25.189733) scale(0.996264)"/>
      <use xlink:href="#CMMI12-50" transform="scale(0.996264)"/>
      <use xlink:href="#CMR17-69" transform="translate(62.877232 -14.943915) scale(0.697382)"/>
      <use xlink:href="#CMR17-6e" transform="translate(80.286891 -14.943915) scale(0.697382)"/>
      <use xlink:href="#CMR17-74" transform="translate(114.091779 -14.943915) scale(0.697382)"/>
     </g>
    </g>
   </g>
  </g>
  <g id="axes_2">
   <g id="patch_8">
    <path d="M 299.831239 143.519296 
L 460.375478 143.519296 
L 460.375478 20.118498 
L 299.831239 20.118498 
z
" style="fill: #ffffff"/>
   </g>
   <g id="matplotlib.axis_3">
    <g id="xtick_5">
     <g id="line2d_21">
      <g>
       <use xlink:href="#m5565f6a649" x="302.263727" y="143.519296" style="stroke: #000000; stroke-width: 0.8"/>
      </g>
     </g>
     <g id="text_17">
      <!-- $\mathdefault{−20}$ -->
      <g transform="translate(294.736291 158.154098) scale(0.08 -0.08)">
       <use xlink:href="#CMSY10-0" transform="scale(0.996264)"/>
       <use xlink:href="#CMR17-32" transform="translate(77.487468 0) scale(0.996264)"/>
       <use xlink:href="#CMR17-30" transform="translate(123.177945 0) scale(0.996264)"/>
      </g>
     </g>
    </g>
    <g id="xtick_6">
     <g id="line2d_22">
      <g>
       <use xlink:href="#m5565f6a649" x="350.913496" y="143.519296" style="stroke: #000000; stroke-width: 0.8"/>
      </g>
     </g>
     <g id="text_18">
      <!-- $\mathdefault{0}$ -->
      <g transform="translate(348.796405 158.154098) scale(0.08 -0.08)">
       <use xlink:href="#CMR17-30" transform="scale(0.996264)"/>
      </g>
     </g>
    </g>
    <g id="xtick_7">
     <g id="line2d_23">
      <g>
       <use xlink:href="#m5565f6a649" x="399.563266" y="143.519296" style="stroke: #000000; stroke-width: 0.8"/>
      </g>
     </g>
     <g id="text_19">
      <!-- $\mathdefault{20}$ -->
      <g transform="translate(395.329083 158.154098) scale(0.08 -0.08)">
       <use xlink:href="#CMR17-32" transform="scale(0.996264)"/>
       <use xlink:href="#CMR17-30" transform="translate(45.690477 0) scale(0.996264)"/>
      </g>
     </g>
    </g>
    <g id="xtick_8">
     <g id="line2d_24">
      <g>
       <use xlink:href="#m5565f6a649" x="448.213035" y="143.519296" style="stroke: #000000; stroke-width: 0.8"/>
      </g>
     </g>
     <g id="text_20">
      <!-- $\mathdefault{40}$ -->
      <g transform="translate(443.978852 158.154098) scale(0.08 -0.08)">
       <use xlink:href="#CMR17-34" transform="scale(0.996264)"/>
       <use xlink:href="#CMR17-30" transform="translate(45.690477 0) scale(0.996264)"/>
      </g>
     </g>
    </g>
    <g id="text_21">
     <!-- Cycle Shift -->
     <g transform="translate(356.026927 170.622342) scale(0.1 -0.1)">
      <use xlink:href="#CMR17-43" transform="scale(0.996264)"/>
      <use xlink:href="#CMR17-79" transform="translate(66.509881 0) scale(0.996264)"/>
      <use xlink:href="#CMR17-63" transform="translate(114.802796 0) scale(0.996264)"/>
      <use xlink:href="#CMR17-6c" transform="translate(155.288457 0) scale(0.996264)"/>
      <use xlink:href="#CMR17-65" transform="translate(180.159515 0) scale(0.996264)"/>
      <use xlink:href="#CMR17-53" transform="translate(250.721142 0) scale(0.996264)"/>
      <use xlink:href="#CMR17-68" transform="translate(301.616512 0) scale(0.996264)"/>
      <use xlink:href="#CMR17-69" transform="translate(352.511882 0) scale(0.996264)"/>
      <use xlink:href="#CMR17-66" transform="translate(377.38294 0) scale(0.996264)"/>
      <use xlink:href="#CMR17-74" transform="translate(404.856453 0) scale(0.996264)"/>
     </g>
    </g>
   </g>
   <g id="matplotlib.axis_4">
    <g id="ytick_7">
     <g id="line2d_25">
      <g>
       <use xlink:href="#m963f45f06c" x="299.831239" y="136.280467" style="stroke: #000000; stroke-width: 0.8"/>
      </g>
     </g>
     <g id="text_22">
      <!-- $\mathdefault{−0.006}$ -->
      <g transform="translate(264.855677 139.047868) scale(0.08 -0.08)">
       <use xlink:href="#CMSY10-0" transform="scale(0.996264)"/>
       <use xlink:href="#CMR17-30" transform="translate(77.487468 0) scale(0.996264)"/>
       <use xlink:href="#CMMI12-3a" transform="translate(123.177945 0) scale(0.996264)"/>
       <use xlink:href="#CMR17-30" transform="translate(150.275122 0) scale(0.996264)"/>
       <use xlink:href="#CMR17-30" transform="translate(195.965599 0) scale(0.996264)"/>
       <use xlink:href="#CMR17-36" transform="translate(241.656076 0) scale(0.996264)"/>
      </g>
     </g>
    </g>
    <g id="ytick_8">
     <g id="line2d_26">
      <g>
       <use xlink:href="#m963f45f06c" x="299.831239" y="116.323584" style="stroke: #000000; stroke-width: 0.8"/>
      </g>
     </g>
     <g id="text_23">
      <!-- $\mathdefault{−0.004}$ -->
      <g transform="translate(264.855677 119.090985) scale(0.08 -0.08)">
       <use xlink:href="#CMSY10-0" transform="scale(0.996264)"/>
       <use xlink:href="#CMR17-30" transform="translate(77.487468 0) scale(0.996264)"/>
       <use xlink:href="#CMMI12-3a" transform="translate(123.177945 0) scale(0.996264)"/>
       <use xlink:href="#CMR17-30" transform="translate(150.275122 0) scale(0.996264)"/>
       <use xlink:href="#CMR17-30" transform="translate(195.965599 0) scale(0.996264)"/>
       <use xlink:href="#CMR17-34" transform="translate(241.656076 0) scale(0.996264)"/>
      </g>
     </g>
    </g>
    <g id="ytick_9">
     <g id="line2d_27">
      <g>
       <use xlink:href="#m963f45f06c" x="299.831239" y="96.366701" style="stroke: #000000; stroke-width: 0.8"/>
      </g>
     </g>
     <g id="text_24">
      <!-- $\mathdefault{−0.002}$ -->
      <g transform="translate(264.855677 99.134102) scale(0.08 -0.08)">
       <use xlink:href="#CMSY10-0" transform="scale(0.996264)"/>
       <use xlink:href="#CMR17-30" transform="translate(77.487468 0) scale(0.996264)"/>
       <use xlink:href="#CMMI12-3a" transform="translate(123.177945 0) scale(0.996264)"/>
       <use xlink:href="#CMR17-30" transform="translate(150.275122 0) scale(0.996264)"/>
       <use xlink:href="#CMR17-30" transform="translate(195.965599 0) scale(0.996264)"/>
       <use xlink:href="#CMR17-32" transform="translate(241.656076 0) scale(0.996264)"/>
      </g>
     </g>
    </g>
    <g id="ytick_10">
     <g id="line2d_28">
      <g>
       <use xlink:href="#m963f45f06c" x="299.831239" y="76.409819" style="stroke: #000000; stroke-width: 0.8"/>
      </g>
     </g>
     <g id="text_25">
      <!-- $\mathdefault{0.000}$ -->
      <g transform="translate(271.442183 79.177219) scale(0.08 -0.08)">
       <use xlink:href="#CMR17-30" transform="scale(0.996264)"/>
       <use xlink:href="#CMMI12-3a" transform="translate(45.690477 0) scale(0.996264)"/>
       <use xlink:href="#CMR17-30" transform="translate(72.787654 0) scale(0.996264)"/>
       <use xlink:href="#CMR17-30" transform="translate(118.478131 0) scale(0.996264)"/>
       <use xlink:href="#CMR17-30" transform="translate(164.168608 0) scale(0.996264)"/>
      </g>
     </g>
    </g>
    <g id="ytick_11">
     <g id="line2d_29">
      <g>
       <use xlink:href="#m963f45f06c" x="299.831239" y="56.452936" style="stroke: #000000; stroke-width: 0.8"/>
      </g>
     </g>
     <g id="text_26">
      <!-- $\mathdefault{0.002}$ -->
      <g transform="translate(271.442183 59.220337) scale(0.08 -0.08)">
       <use xlink:href="#CMR17-30" transform="scale(0.996264)"/>
       <use xlink:href="#CMMI12-3a" transform="translate(45.690477 0) scale(0.996264)"/>
       <use xlink:href="#CMR17-30" transform="translate(72.787654 0) scale(0.996264)"/>
       <use xlink:href="#CMR17-30" transform="translate(118.478131 0) scale(0.996264)"/>
       <use xlink:href="#CMR17-32" transform="translate(164.168608 0) scale(0.996264)"/>
      </g>
     </g>
    </g>
    <g id="ytick_12">
     <g id="line2d_30">
      <g>
       <use xlink:href="#m963f45f06c" x="299.831239" y="36.496053" style="stroke: #000000; stroke-width: 0.8"/>
      </g>
     </g>
     <g id="text_27">
      <!-- $\mathdefault{0.004}$ -->
      <g transform="translate(271.442183 39.263454) scale(0.08 -0.08)">
       <use xlink:href="#CMR17-30" transform="scale(0.996264)"/>
       <use xlink:href="#CMMI12-3a" transform="translate(45.690477 0) scale(0.996264)"/>
       <use xlink:href="#CMR17-30" transform="translate(72.787654 0) scale(0.996264)"/>
       <use xlink:href="#CMR17-30" transform="translate(118.478131 0) scale(0.996264)"/>
       <use xlink:href="#CMR17-34" transform="translate(164.168608 0) scale(0.996264)"/>
      </g>
     </g>
    </g>
    <g id="text_28">
     <!-- $\bar{P}$ -->
     <g style="fill: #1f77b4" transform="translate(258.918498 85.424319) rotate(-90) scale(0.1 -0.1)">
      <use xlink:href="#CMR17-16" transform="translate(23.496833 25.189733) scale(0.996264)"/>
      <use xlink:href="#CMMI12-50" transform="scale(0.996264)"/>
     </g>
    </g>
   </g>
   <g id="line2d_31">
    <path d="M 299.831239 76.409819 
L 460.375478 76.409819 
" clip-path="url(#p27aca41f4b)" style="fill: none; stroke: #d3d3d3; stroke-width: 0.5; stroke-linecap: square"/>
   </g>
   <g id="LineCollection_7">
    <path d="M 307.128704 105.85731 
L 307.128704 105.767433 
" clip-path="url(#p27aca41f4b)" style="fill: none; stroke: #1f77b4; stroke-width: 0.5"/>
    <path d="M 321.723635 54.633211 
L 321.723635 54.545448 
" clip-path="url(#p27aca41f4b)" style="fill: none; stroke: #1f77b4; stroke-width: 0.5"/>
    <path d="M 336.318566 37.487569 
L 336.318566 37.401263 
" clip-path="url(#p27aca41f4b)" style="fill: none; stroke: #1f77b4; stroke-width: 0.5"/>
    <path d="M 350.913496 37.429565 
L 350.913496 37.343366 
" clip-path="url(#p27aca41f4b)" style="fill: none; stroke: #1f77b4; stroke-width: 0.5"/>
    <path d="M 365.508427 37.772642 
L 365.508427 37.686558 
" clip-path="url(#p27aca41f4b)" style="fill: none; stroke: #1f77b4; stroke-width: 0.5"/>
    <path d="M 380.103358 32.201174 
L 380.103358 32.115404 
" clip-path="url(#p27aca41f4b)" style="fill: none; stroke: #1f77b4; stroke-width: 0.5"/>
    <path d="M 394.698289 25.81273 
L 394.698289 25.727626 
" clip-path="url(#p27aca41f4b)" style="fill: none; stroke: #1f77b4; stroke-width: 0.5"/>
    <path d="M 409.29322 29.502123 
L 409.29322 29.417393 
" clip-path="url(#p27aca41f4b)" style="fill: none; stroke: #1f77b4; stroke-width: 0.5"/>
    <path d="M 423.888151 47.645326 
L 423.888151 47.560278 
" clip-path="url(#p27aca41f4b)" style="fill: none; stroke: #1f77b4; stroke-width: 0.5"/>
    <path d="M 438.483081 94.332697 
L 438.483081 94.24728 
" clip-path="url(#p27aca41f4b)" style="fill: none; stroke: #1f77b4; stroke-width: 0.5"/>
    <path d="M 453.078012 134.386505 
L 453.078012 134.301928 
" clip-path="url(#p27aca41f4b)" style="fill: none; stroke: #1f77b4; stroke-width: 0.5"/>
   </g>
   <g id="LineCollection_8">
    <path d="M 307.128704 99.332855 
L 307.128704 99.264887 
" clip-path="url(#p27aca41f4b)" style="fill: none; stroke: #ff7f0e; stroke-width: 0.5"/>
    <path d="M 321.723635 51.61682 
L 321.723635 51.556302 
" clip-path="url(#p27aca41f4b)" style="fill: none; stroke: #ff7f0e; stroke-width: 0.5"/>
    <path d="M 336.318566 36.986913 
L 336.318566 36.929656 
" clip-path="url(#p27aca41f4b)" style="fill: none; stroke: #ff7f0e; stroke-width: 0.5"/>
    <path d="M 350.913496 37.076025 
L 350.913496 37.018914 
" clip-path="url(#p27aca41f4b)" style="fill: none; stroke: #ff7f0e; stroke-width: 0.5"/>
    <path d="M 365.508427 37.314199 
L 365.508427 37.257018 
" clip-path="url(#p27aca41f4b)" style="fill: none; stroke: #ff7f0e; stroke-width: 0.5"/>
    <path d="M 380.103358 34.857097 
L 380.103358 34.797729 
" clip-path="url(#p27aca41f4b)" style="fill: none; stroke: #ff7f0e; stroke-width: 0.5"/>
    <path d="M 394.698289 34.380474 
L 394.698289 34.320842 
" clip-path="url(#p27aca41f4b)" style="fill: none; stroke: #ff7f0e; stroke-width: 0.5"/>
    <path d="M 409.29322 40.231358 
L 409.29322 40.171456 
" clip-path="url(#p27aca41f4b)" style="fill: none; stroke: #ff7f0e; stroke-width: 0.5"/>
    <path d="M 423.888151 59.022809 
L 423.888151 58.962928 
" clip-path="url(#p27aca41f4b)" style="fill: none; stroke: #ff7f0e; stroke-width: 0.5"/>
    <path d="M 438.483081 104.168821 
L 438.483081 104.115481 
" clip-path="url(#p27aca41f4b)" style="fill: none; stroke: #ff7f0e; stroke-width: 0.5"/>
    <path d="M 453.078012 137.910169 
L 453.078012 137.86481 
" clip-path="url(#p27aca41f4b)" style="fill: none; stroke: #ff7f0e; stroke-width: 0.5"/>
   </g>
   <g id="LineCollection_9">
    <path d="M 307.128704 83.862182 
L 307.128704 83.742133 
" clip-path="url(#p27aca41f4b)" style="fill: none; stroke: #2ca02c; stroke-width: 0.5"/>
    <path d="M 321.723635 79.451393 
L 321.723635 79.330136 
" clip-path="url(#p27aca41f4b)" style="fill: none; stroke: #2ca02c; stroke-width: 0.5"/>
    <path d="M 336.318566 76.917058 
L 336.318566 76.796907 
" clip-path="url(#p27aca41f4b)" style="fill: none; stroke: #2ca02c; stroke-width: 0.5"/>
    <path d="M 350.913496 76.769864 
L 350.913496 76.649814 
" clip-path="url(#p27aca41f4b)" style="fill: none; stroke: #2ca02c; stroke-width: 0.5"/>
    <path d="M 365.508427 76.145847 
L 365.508427 76.025766 
" clip-path="url(#p27aca41f4b)" style="fill: none; stroke: #2ca02c; stroke-width: 0.5"/>
    <path d="M 380.103358 73.757205 
L 380.103358 73.635667 
" clip-path="url(#p27aca41f4b)" style="fill: none; stroke: #2ca02c; stroke-width: 0.5"/>
    <path d="M 394.698289 67.838689 
L 394.698289 67.718702 
" clip-path="url(#p27aca41f4b)" style="fill: none; stroke: #2ca02c; stroke-width: 0.5"/>
    <path d="M 409.29322 65.680632 
L 409.29322 65.561797 
" clip-path="url(#p27aca41f4b)" style="fill: none; stroke: #2ca02c; stroke-width: 0.5"/>
    <path d="M 423.888151 65.426241 
L 423.888151 65.308166 
" clip-path="url(#p27aca41f4b)" style="fill: none; stroke: #2ca02c; stroke-width: 0.5"/>
    <path d="M 438.483081 66.636629 
L 438.483081 66.518871 
" clip-path="url(#p27aca41f4b)" style="fill: none; stroke: #2ca02c; stroke-width: 0.5"/>
    <path d="M 453.078012 72.983717 
L 453.078012 72.865228 
" clip-path="url(#p27aca41f4b)" style="fill: none; stroke: #2ca02c; stroke-width: 0.5"/>
   </g>
   <g id="line2d_32">
    <path d="M 307.128704 105.812371 
L 321.723635 54.58933 
L 336.318566 37.444416 
L 350.913496 37.386466 
L 365.508427 37.7296 
L 380.103358 32.158289 
L 394.698289 25.770178 
L 409.29322 29.459758 
L 423.888151 47.602802 
L 438.483081 94.289988 
L 453.078012 134.344216 
" clip-path="url(#p27aca41f4b)" style="fill: none; stroke: #1f77b4; stroke-width: 0.5; stroke-linecap: square"/>
    <g clip-path="url(#p27aca41f4b)">
     <use xlink:href="#mbb712d8936" x="307.128704" y="105.812371" style="fill: #1f77b4"/>
     <use xlink:href="#mbb712d8936" x="321.723635" y="54.58933" style="fill: #1f77b4"/>
     <use xlink:href="#mbb712d8936" x="336.318566" y="37.444416" style="fill: #1f77b4"/>
     <use xlink:href="#mbb712d8936" x="350.913496" y="37.386466" style="fill: #1f77b4"/>
     <use xlink:href="#mbb712d8936" x="365.508427" y="37.7296" style="fill: #1f77b4"/>
     <use xlink:href="#mbb712d8936" x="380.103358" y="32.158289" style="fill: #1f77b4"/>
     <use xlink:href="#mbb712d8936" x="394.698289" y="25.770178" style="fill: #1f77b4"/>
     <use xlink:href="#mbb712d8936" x="409.29322" y="29.459758" style="fill: #1f77b4"/>
     <use xlink:href="#mbb712d8936" x="423.888151" y="47.602802" style="fill: #1f77b4"/>
     <use xlink:href="#mbb712d8936" x="438.483081" y="94.289988" style="fill: #1f77b4"/>
     <use xlink:href="#mbb712d8936" x="453.078012" y="134.344216" style="fill: #1f77b4"/>
    </g>
   </g>
   <g id="line2d_33">
    <path d="M 307.128704 99.298871 
L 321.723635 51.586561 
L 336.318566 36.958284 
L 350.913496 37.04747 
L 365.508427 37.285609 
L 380.103358 34.827413 
L 394.698289 34.350658 
L 409.29322 40.201407 
L 423.888151 58.992868 
L 438.483081 104.142151 
L 453.078012 137.887489 
" clip-path="url(#p27aca41f4b)" style="fill: none; stroke: #ff7f0e; stroke-width: 0.5; stroke-linecap: square"/>
    <g clip-path="url(#p27aca41f4b)">
     <use xlink:href="#m0c4d926468" x="307.128704" y="99.298871" style="fill: #ff7f0e"/>
     <use xlink:href="#m0c4d926468" x="321.723635" y="51.586561" style="fill: #ff7f0e"/>
     <use xlink:href="#m0c4d926468" x="336.318566" y="36.958284" style="fill: #ff7f0e"/>
     <use xlink:href="#m0c4d926468" x="350.913496" y="37.04747" style="fill: #ff7f0e"/>
     <use xlink:href="#m0c4d926468" x="365.508427" y="37.285609" style="fill: #ff7f0e"/>
     <use xlink:href="#m0c4d926468" x="380.103358" y="34.827413" style="fill: #ff7f0e"/>
     <use xlink:href="#m0c4d926468" x="394.698289" y="34.350658" style="fill: #ff7f0e"/>
     <use xlink:href="#m0c4d926468" x="409.29322" y="40.201407" style="fill: #ff7f0e"/>
     <use xlink:href="#m0c4d926468" x="423.888151" y="58.992868" style="fill: #ff7f0e"/>
     <use xlink:href="#m0c4d926468" x="438.483081" y="104.142151" style="fill: #ff7f0e"/>
     <use xlink:href="#m0c4d926468" x="453.078012" y="137.887489" style="fill: #ff7f0e"/>
    </g>
   </g>
   <g id="line2d_34">
    <path d="M 307.128704 83.802158 
L 321.723635 79.390764 
L 336.318566 76.856983 
L 350.913496 76.709839 
L 365.508427 76.085806 
L 380.103358 73.696436 
L 394.698289 67.778695 
L 409.29322 65.621215 
L 423.888151 65.367204 
L 438.483081 66.57775 
L 453.078012 72.924472 
" clip-path="url(#p27aca41f4b)" style="fill: none; stroke: #2ca02c; stroke-width: 0.5; stroke-linecap: square"/>
    <g clip-path="url(#p27aca41f4b)">
     <use xlink:href="#mb423df5498" x="307.128704" y="83.802158" style="fill: #2ca02c"/>
     <use xlink:href="#mb423df5498" x="321.723635" y="79.390764" style="fill: #2ca02c"/>
     <use xlink:href="#mb423df5498" x="336.318566" y="76.856983" style="fill: #2ca02c"/>
     <use xlink:href="#mb423df5498" x="350.913496" y="76.709839" style="fill: #2ca02c"/>
     <use xlink:href="#mb423df5498" x="365.508427" y="76.085806" style="fill: #2ca02c"/>
     <use xlink:href="#mb423df5498" x="380.103358" y="73.696436" style="fill: #2ca02c"/>
     <use xlink:href="#mb423df5498" x="394.698289" y="67.778695" style="fill: #2ca02c"/>
     <use xlink:href="#mb423df5498" x="409.29322" y="65.621215" style="fill: #2ca02c"/>
     <use xlink:href="#mb423df5498" x="423.888151" y="65.367204" style="fill: #2ca02c"/>
     <use xlink:href="#mb423df5498" x="438.483081" y="66.57775" style="fill: #2ca02c"/>
     <use xlink:href="#mb423df5498" x="453.078012" y="72.924472" style="fill: #2ca02c"/>
    </g>
   </g>
   <g id="patch_9">
    <path d="M 299.831239 143.519296 
L 299.831239 20.118498 
" style="fill: none; stroke: #000000; stroke-width: 0.8; stroke-linejoin: miter; stroke-linecap: square"/>
   </g>
   <g id="patch_10">
    <path d="M 460.375478 143.519296 
L 460.375478 20.118498 
" style="fill: none; stroke: #000000; stroke-width: 0.8; stroke-linejoin: miter; stroke-linecap: square"/>
   </g>
   <g id="patch_11">
    <path d="M 299.831239 143.519296 
L 460.375478 143.519296 
" style="fill: none; stroke: #000000; stroke-width: 0.8; stroke-linejoin: miter; stroke-linecap: square"/>
   </g>
   <g id="patch_12">
    <path d="M 299.831239 20.118498 
L 460.375478 20.118498 
" style="fill: none; stroke: #000000; stroke-width: 0.8; stroke-linejoin: miter; stroke-linecap: square"/>
   </g>
   <g id="text_29">
    <!-- Slow Coupling -->
    <g transform="translate(348.693299 14.118498) scale(0.1 -0.1)">
     <defs>
      <path id="CMR17-77" d="M 3725 2183 
C 3853 2560 4109 2560 4205 2560 
L 4205 2732 
C 4077 2732 3949 2732 3821 2732 
C 3699 2732 3424 2732 3315 2738 
L 3315 2560 
C 3514 2560 3622 2445 3622 2286 
C 3622 2241 3610 2184 3597 2140 
L 2995 407 
L 2342 2275 
C 2330 2319 2310 2370 2310 2395 
C 2310 2560 2528 2560 2630 2560 
L 2630 2738 
C 2483 2732 2214 2732 2061 2732 
C 1901 2732 1734 2732 1587 2738 
L 1587 2560 
C 1939 2560 1939 2547 2074 2149 
L 1485 451 
L 851 2281 
C 819 2363 819 2376 819 2395 
C 819 2560 1037 2560 1139 2560 
L 1139 2738 
C 986 2732 717 2732 557 2732 
C 416 2732 198 2732 64 2738 
L 64 2560 
C 346 2560 416 2541 486 2331 
L 1274 49 
C 1299 -33 1318 -52 1370 -52 
C 1414 -52 1440 -39 1472 56 
L 2131 1980 
L 2797 56 
C 2829 -39 2854 -52 2899 -52 
C 2950 -52 2970 -33 2995 50 
L 3725 2183 
z
" transform="scale(0.015625)"/>
     </defs>
     <use xlink:href="#CMR17-53" transform="scale(0.996264)"/>
     <use xlink:href="#CMR17-6c" transform="translate(50.89537 0) scale(0.996264)"/>
     <use xlink:href="#CMR17-6f" transform="translate(75.766428 0) scale(0.996264)"/>
     <use xlink:href="#CMR17-77" transform="translate(118.854451 0) scale(0.996264)"/>
     <use xlink:href="#CMR17-43" transform="translate(215.440298 0) scale(0.996264)"/>
     <use xlink:href="#CMR17-6f" transform="translate(281.950179 0) scale(0.996264)"/>
     <use xlink:href="#CMR17-75" transform="translate(327.640656 0) scale(0.996264)"/>
     <use xlink:href="#CMR17-70" transform="translate(378.536026 0) scale(0.996264)"/>
     <use xlink:href="#CMR17-6c" transform="translate(429.431396 0) scale(0.996264)"/>
     <use xlink:href="#CMR17-69" transform="translate(454.302454 0) scale(0.996264)"/>
     <use xlink:href="#CMR17-6e" transform="translate(479.173513 0) scale(0.996264)"/>
     <use xlink:href="#CMR17-67" transform="translate(530.068882 0) scale(0.996264)"/>
    </g>
   </g>
   <g id="legend_2">
    <g id="patch_13">
     <path d="M 357.921338 139.019296 
L 402.285379 139.019296 
Q 404.085379 139.019296 404.085379 137.219296 
L 404.085379 98.654255 
Q 404.085379 96.854255 402.285379 96.854255 
L 357.921338 96.854255 
Q 356.121338 96.854255 356.121338 98.654255 
L 356.121338 137.219296 
Q 356.121338 139.019296 357.921338 139.019296 
z
" style="fill: #ffffff; opacity: 0.8; stroke: #cccccc; stroke-width: 0.24; stroke-linejoin: miter"/>
    </g>
    <g id="LineCollection_10">
     <path d="M 368.721338 108.104255 
L 368.721338 99.104255 
" style="fill: none; stroke: #1f77b4; stroke-width: 0.5"/>
    </g>
    <g id="line2d_35">
     <path d="M 359.721338 103.604255 
L 377.721338 103.604255 
" style="fill: none; stroke: #1f77b4; stroke-width: 0.5; stroke-linecap: square"/>
    </g>
    <g id="line2d_36">
     <g>
      <use xlink:href="#mbb712d8936" x="368.721338" y="103.604255" style="fill: #1f77b4"/>
     </g>
    </g>
    <g id="text_30">
     <!-- $\bar{P}$ -->
     <g transform="translate(384.921338 106.754255) scale(0.09 -0.09)">
      <use xlink:href="#CMR17-16" transform="translate(23.496833 25.189733) scale(0.996264)"/>
      <use xlink:href="#CMMI12-50" transform="scale(0.996264)"/>
     </g>
    </g>
    <g id="LineCollection_11">
     <path d="M 368.721338 121.731101 
L 368.721338 112.731101 
" style="fill: none; stroke: #ff7f0e; stroke-width: 0.5"/>
    </g>
    <g id="line2d_37">
     <path d="M 359.721338 117.231101 
L 377.721338 117.231101 
" style="fill: none; stroke: #ff7f0e; stroke-width: 0.5; stroke-linecap: square"/>
    </g>
    <g id="line2d_38">
     <g>
      <use xlink:href="#m0c4d926468" x="368.721338" y="117.231101" style="fill: #ff7f0e"/>
     </g>
    </g>
    <g id="text_31">
     <!-- $\bar{P}_{\mathrm{sys}}$ -->
     <g transform="translate(384.921338 120.381101) scale(0.09 -0.09)">
      <use xlink:href="#CMR17-16" transform="translate(23.496833 25.189733) scale(0.996264)"/>
      <use xlink:href="#CMMI12-50" transform="scale(0.996264)"/>
      <use xlink:href="#CMR17-73" transform="translate(62.877232 -14.943915) scale(0.697382)"/>
      <use xlink:href="#CMR17-79" transform="translate(87.938055 -14.943915) scale(0.697382)"/>
      <use xlink:href="#CMR17-73" transform="translate(121.742942 -14.943915) scale(0.697382)"/>
     </g>
    </g>
    <g id="LineCollection_12">
     <path d="M 368.721338 135.025834 
L 368.721338 126.025834 
" style="fill: none; stroke: #2ca02c; stroke-width: 0.5"/>
    </g>
    <g id="line2d_39">
     <path d="M 359.721338 130.525834 
L 377.721338 130.525834 
" style="fill: none; stroke: #2ca02c; stroke-width: 0.5; stroke-linecap: square"/>
    </g>
    <g id="line2d_40">
     <g>
      <use xlink:href="#mb423df5498" x="368.721338" y="130.525834" style="fill: #2ca02c"/>
     </g>
    </g>
    <g id="text_32">
     <!-- $\bar{P}_{\mathrm{int}}$ -->
     <g transform="translate(384.921338 133.675834) scale(0.09 -0.09)">
      <use xlink:href="#CMR17-16" transform="translate(23.496833 25.189733) scale(0.996264)"/>
      <use xlink:href="#CMMI12-50" transform="scale(0.996264)"/>
      <use xlink:href="#CMR17-69" transform="translate(62.877232 -14.943915) scale(0.697382)"/>
      <use xlink:href="#CMR17-6e" transform="translate(80.286891 -14.943915) scale(0.697382)"/>
      <use xlink:href="#CMR17-74" transform="translate(114.091779 -14.943915) scale(0.697382)"/>
     </g>
    </g>
   </g>
  </g>
  <g id="axes_3">
   <g id="matplotlib.axis_5">
    <g id="ytick_13">
     <g id="line2d_41">
      <defs>
       <path id="m5e5d5e756a" d="M 0 0 
L 3.5 0 
" style="stroke: #000000; stroke-width: 0.8"/>
      </defs>
      <g>
       <use xlink:href="#m5e5d5e756a" x="215.575478" y="133.447778" style="stroke: #000000; stroke-width: 0.8"/>
      </g>
     </g>
     <g id="text_33">
      <!-- $\mathdefault{15}$ -->
      <g transform="translate(224.675478 136.215178) scale(0.08 -0.08)">
       <defs>
        <path id="CMR17-31" d="M 1702 4058 
C 1702 4192 1696 4192 1606 4192 
C 1357 3916 979 3827 621 3827 
C 602 3827 570 3827 563 3808 
C 557 3795 557 3782 557 3648 
C 755 3648 1088 3686 1344 3839 
L 1344 461 
C 1344 236 1331 160 781 160 
L 589 160 
L 589 0 
C 896 0 1216 0 1523 0 
C 1830 0 2150 0 2458 0 
L 2458 160 
L 2266 160 
C 1715 160 1702 230 1702 458 
L 1702 4058 
z
" transform="scale(0.015625)"/>
        <path id="CMR17-35" d="M 730 3692 
C 794 3666 1056 3584 1325 3584 
C 1920 3584 2246 3911 2432 4100 
C 2432 4157 2432 4192 2394 4192 
C 2387 4192 2374 4192 2323 4163 
C 2099 4058 1837 3973 1517 3973 
C 1325 3973 1037 3999 723 4139 
C 653 4171 640 4171 634 4171 
C 602 4171 595 4164 595 4037 
L 595 2203 
C 595 2089 595 2057 659 2057 
C 691 2057 704 2070 736 2114 
C 941 2401 1222 2522 1542 2522 
C 1766 2522 2246 2382 2246 1289 
C 2246 1085 2246 715 2054 421 
C 1894 159 1645 25 1370 25 
C 947 25 518 320 403 814 
C 429 807 480 795 506 795 
C 589 795 749 840 749 1038 
C 749 1210 627 1280 506 1280 
C 358 1280 262 1190 262 1011 
C 262 454 704 -128 1382 -128 
C 2042 -128 2669 440 2669 1264 
C 2669 2030 2170 2624 1549 2624 
C 1222 2624 947 2503 730 2274 
L 730 3692 
z
" transform="scale(0.015625)"/>
       </defs>
       <use xlink:href="#CMR17-31" transform="scale(0.996264)"/>
       <use xlink:href="#CMR17-35" transform="translate(45.690477 0) scale(0.996264)"/>
      </g>
     </g>
    </g>
    <g id="ytick_14">
     <g id="line2d_42">
      <g>
       <use xlink:href="#m5e5d5e756a" x="215.575478" y="114.77023" style="stroke: #000000; stroke-width: 0.8"/>
      </g>
     </g>
     <g id="text_34">
      <!-- $\mathdefault{20}$ -->
      <g transform="translate(224.675478 117.53763) scale(0.08 -0.08)">
       <use xlink:href="#CMR17-32" transform="scale(0.996264)"/>
       <use xlink:href="#CMR17-30" transform="translate(45.690477 0) scale(0.996264)"/>
      </g>
     </g>
    </g>
    <g id="ytick_15">
     <g id="line2d_43">
      <g>
       <use xlink:href="#m5e5d5e756a" x="215.575478" y="96.092682" style="stroke: #000000; stroke-width: 0.8"/>
      </g>
     </g>
     <g id="text_35">
      <!-- $\mathdefault{25}$ -->
      <g transform="translate(224.675478 98.860082) scale(0.08 -0.08)">
       <use xlink:href="#CMR17-32" transform="scale(0.996264)"/>
       <use xlink:href="#CMR17-35" transform="translate(45.690477 0) scale(0.996264)"/>
      </g>
     </g>
    </g>
    <g id="ytick_16">
     <g id="line2d_44">
      <g>
       <use xlink:href="#m5e5d5e756a" x="215.575478" y="77.415134" style="stroke: #000000; stroke-width: 0.8"/>
      </g>
     </g>
     <g id="text_36">
      <!-- $\mathdefault{30}$ -->
      <g transform="translate(224.675478 80.182535) scale(0.08 -0.08)">
       <defs>
        <path id="CMR17-33" d="M 1414 2157 
C 1984 2157 2234 1662 2234 1090 
C 2234 320 1824 25 1453 25 
C 1114 25 563 194 390 693 
C 422 680 454 680 486 680 
C 640 680 755 782 755 948 
C 755 1133 614 1216 486 1216 
C 378 1216 211 1165 211 926 
C 211 335 787 -128 1466 -128 
C 2176 -128 2720 430 2720 1085 
C 2720 1707 2208 2157 1600 2227 
C 2086 2328 2554 2756 2554 3329 
C 2554 3820 2048 4179 1472 4179 
C 890 4179 378 3829 378 3329 
C 378 3110 544 3072 627 3072 
C 762 3072 877 3155 877 3321 
C 877 3486 762 3569 627 3569 
C 602 3569 570 3569 544 3557 
C 730 3959 1235 4032 1459 4032 
C 1683 4032 2106 3925 2106 3320 
C 2106 3143 2080 2828 1862 2550 
C 1670 2304 1453 2304 1242 2284 
C 1210 2284 1062 2269 1037 2269 
C 992 2263 966 2257 966 2208 
C 966 2163 973 2157 1101 2157 
L 1414 2157 
z
" transform="scale(0.015625)"/>
       </defs>
       <use xlink:href="#CMR17-33" transform="scale(0.996264)"/>
       <use xlink:href="#CMR17-30" transform="translate(45.690477 0) scale(0.996264)"/>
      </g>
     </g>
    </g>
    <g id="ytick_17">
     <g id="line2d_45">
      <g>
       <use xlink:href="#m5e5d5e756a" x="215.575478" y="58.737586" style="stroke: #000000; stroke-width: 0.8"/>
      </g>
     </g>
     <g id="text_37">
      <!-- $\mathdefault{35}$ -->
      <g transform="translate(224.675478 61.504987) scale(0.08 -0.08)">
       <use xlink:href="#CMR17-33" transform="scale(0.996264)"/>
       <use xlink:href="#CMR17-35" transform="translate(45.690477 0) scale(0.996264)"/>
      </g>
     </g>
    </g>
    <g id="ytick_18">
     <g id="line2d_46">
      <g>
       <use xlink:href="#m5e5d5e756a" x="215.575478" y="40.060038" style="stroke: #000000; stroke-width: 0.8"/>
      </g>
     </g>
     <g id="text_38">
      <!-- $\mathdefault{40}$ -->
      <g transform="translate(224.675478 42.827439) scale(0.08 -0.08)">
       <use xlink:href="#CMR17-34" transform="scale(0.996264)"/>
       <use xlink:href="#CMR17-30" transform="translate(45.690477 0) scale(0.996264)"/>
      </g>
     </g>
    </g>
    <g id="ytick_19">
     <g id="line2d_47">
      <g>
       <use xlink:href="#m5e5d5e756a" x="215.575478" y="21.38249" style="stroke: #000000; stroke-width: 0.8"/>
      </g>
     </g>
     <g id="text_39">
      <!-- $\mathdefault{45}$ -->
      <g transform="translate(224.675478 24.149891) scale(0.08 -0.08)">
       <use xlink:href="#CMR17-34" transform="scale(0.996264)"/>
       <use xlink:href="#CMR17-35" transform="translate(45.690477 0) scale(0.996264)"/>
      </g>
     </g>
    </g>
    <g id="text_40">
     <!-- $\eta$ -->
     <g style="fill: #9467bd" transform="translate(244.062342 84.292273) rotate(-90) scale(0.1 -0.1)">
      <defs>
       <path id="CMMI12-11" d="M 3040 1768 
C 3072 1895 3091 1973 3091 2145 
C 3091 2528 2867 2815 2381 2815 
C 1811 2815 1510 2413 1395 2254 
C 1376 2618 1114 2815 832 2815 
C 646 2815 499 2726 378 2483 
C 262 2254 173 1864 173 1839 
C 173 1813 198 1781 243 1781 
C 294 1781 301 1788 339 1934 
C 435 2311 557 2688 813 2688 
C 960 2688 1011 2586 1011 2394 
C 1011 2254 947 2005 902 1807 
L 723 1118 
C 698 996 627 709 595 593 
C 550 428 480 127 480 96 
C 480 6 550 -64 646 -64 
C 723 -64 813 -25 864 70 
C 877 102 934 326 966 453 
L 1107 1028 
L 1318 1871 
C 1331 1909 1491 2228 1728 2432 
C 1894 2586 2112 2688 2362 2688 
C 2618 2688 2707 2496 2707 2241 
C 2707 2055 2682 1953 2650 1831 
L 1907 -1107 
C 1901 -1139 1888 -1177 1888 -1216 
C 1888 -1312 1965 -1376 2061 -1376 
C 2118 -1376 2253 -1350 2304 -1158 
L 3040 1768 
z
" transform="scale(0.015625)"/>
      </defs>
      <use xlink:href="#CMMI12-11" transform="scale(0.996264)"/>
     </g>
    </g>
   </g>
   <g id="LineCollection_13">
    <path d="M 91.518566 118.104357 
L 91.518566 116.589907 
" clip-path="url(#p95ccb981a8)" style="fill: none; stroke: #9467bd; stroke-width: 0.5"/>
    <path d="M 106.113496 78.244734 
L 106.113496 76.423826 
" clip-path="url(#p95ccb981a8)" style="fill: none; stroke: #9467bd; stroke-width: 0.5"/>
    <path d="M 120.708427 70.773709 
L 120.708427 68.998617 
" clip-path="url(#p95ccb981a8)" style="fill: none; stroke: #9467bd; stroke-width: 0.5"/>
    <path d="M 135.303358 67.193546 
L 135.303358 65.862481 
" clip-path="url(#p95ccb981a8)" style="fill: none; stroke: #9467bd; stroke-width: 0.5"/>
    <path d="M 149.898289 72.191219 
L 149.898289 70.99482 
" clip-path="url(#p95ccb981a8)" style="fill: none; stroke: #9467bd; stroke-width: 0.5"/>
    <path d="M 164.49322 79.365244 
L 164.49322 78.244618 
" clip-path="url(#p95ccb981a8)" style="fill: none; stroke: #9467bd; stroke-width: 0.5"/>
    <path d="M 179.088151 91.275399 
L 179.088151 90.241487 
" clip-path="url(#p95ccb981a8)" style="fill: none; stroke: #9467bd; stroke-width: 0.5"/>
    <path d="M 193.683081 137.910169 
L 193.683081 137.17367 
" clip-path="url(#p95ccb981a8)" style="fill: none; stroke: #9467bd; stroke-width: 0.5"/>
   </g>
   <g id="line2d_48">
    <path d="M 91.518566 117.347132 
L 106.113496 77.33428 
L 120.708427 69.886163 
L 135.303358 66.528013 
L 149.898289 71.59302 
L 164.49322 78.804931 
L 179.088151 90.758443 
L 193.683081 137.541919 
" clip-path="url(#p95ccb981a8)" style="fill: none; stroke: #9467bd; stroke-width: 0.5; stroke-linecap: square"/>
    <defs>
     <path id="m321dd8208c" d="M 0 -2.8 
L -0.628639 -0.865248 
L -2.662958 -0.865248 
L -1.01716 0.330495 
L -1.645799 2.265248 
L -0 1.069505 
L 1.645799 2.265248 
L 1.01716 0.330495 
L 2.662958 -0.865248 
L 0.628639 -0.865248 
z
"/>
    </defs>
    <g clip-path="url(#p95ccb981a8)">
     <use xlink:href="#m321dd8208c" x="91.518566" y="117.347132" style="fill: #9467bd"/>
     <use xlink:href="#m321dd8208c" x="106.113496" y="77.33428" style="fill: #9467bd"/>
     <use xlink:href="#m321dd8208c" x="120.708427" y="69.886163" style="fill: #9467bd"/>
     <use xlink:href="#m321dd8208c" x="135.303358" y="66.528013" style="fill: #9467bd"/>
     <use xlink:href="#m321dd8208c" x="149.898289" y="71.59302" style="fill: #9467bd"/>
     <use xlink:href="#m321dd8208c" x="164.49322" y="78.804931" style="fill: #9467bd"/>
     <use xlink:href="#m321dd8208c" x="179.088151" y="90.758443" style="fill: #9467bd"/>
     <use xlink:href="#m321dd8208c" x="193.683081" y="137.541919" style="fill: #9467bd"/>
    </g>
   </g>
   <g id="patch_14">
    <path d="M 55.031239 143.519296 
L 55.031239 20.118498 
" style="fill: none; stroke: #000000; stroke-width: 0.8; stroke-linejoin: miter; stroke-linecap: square"/>
   </g>
   <g id="patch_15">
    <path d="M 215.575478 143.519296 
L 215.575478 20.118498 
" style="fill: none; stroke: #000000; stroke-width: 0.8; stroke-linejoin: miter; stroke-linecap: square"/>
   </g>
   <g id="patch_16">
    <path d="M 55.031239 143.519296 
L 215.575478 143.519296 
" style="fill: none; stroke: #000000; stroke-width: 0.8; stroke-linejoin: miter; stroke-linecap: square"/>
   </g>
   <g id="patch_17">
    <path d="M 55.031239 20.118498 
L 215.575478 20.118498 
" style="fill: none; stroke: #000000; stroke-width: 0.8; stroke-linejoin: miter; stroke-linecap: square"/>
   </g>
   <g id="legend_3">
    <g id="patch_18">
     <path d="M 61.331239 39.86196 
L 94.732712 39.86196 
Q 96.532712 39.86196 96.532712 38.06196 
L 96.532712 26.418498 
Q 96.532712 24.618498 94.732712 24.618498 
L 61.331239 24.618498 
Q 59.531239 24.618498 59.531239 26.418498 
L 59.531239 38.06196 
Q 59.531239 39.86196 61.331239 39.86196 
z
" style="fill: #ffffff; opacity: 0.8; stroke: #cccccc; stroke-width: 0.24; stroke-linejoin: miter"/>
    </g>
    <g id="LineCollection_14">
     <path d="M 72.131239 35.868498 
L 72.131239 26.868498 
" style="fill: none; stroke: #9467bd; stroke-width: 0.5"/>
    </g>
    <g id="line2d_49">
     <path d="M 63.131239 31.368498 
L 81.131239 31.368498 
" style="fill: none; stroke: #9467bd; stroke-width: 0.5; stroke-linecap: square"/>
    </g>
    <g id="line2d_50">
     <g>
      <use xlink:href="#m321dd8208c" x="72.131239" y="31.368498" style="fill: #9467bd"/>
     </g>
    </g>
    <g id="text_41">
     <!-- $\eta$ -->
     <g transform="translate(88.331239 34.518498) scale(0.09 -0.09)">
      <use xlink:href="#CMMI12-11" transform="scale(0.996264)"/>
     </g>
    </g>
   </g>
  </g>
  <g id="axes_4">
   <g id="matplotlib.axis_6">
    <g id="ytick_20">
     <g id="line2d_51">
      <g>
       <use xlink:href="#m5e5d5e756a" x="460.375478" y="133.447778" style="stroke: #000000; stroke-width: 0.8"/>
      </g>
     </g>
     <g id="text_42">
      <!-- $\mathdefault{15}$ -->
      <g transform="translate(469.475478 136.215178) scale(0.08 -0.08)">
       <use xlink:href="#CMR17-31" transform="scale(0.996264)"/>
       <use xlink:href="#CMR17-35" transform="translate(45.690477 0) scale(0.996264)"/>
      </g>
     </g>
    </g>
    <g id="ytick_21">
     <g id="line2d_52">
      <g>
       <use xlink:href="#m5e5d5e756a" x="460.375478" y="114.77023" style="stroke: #000000; stroke-width: 0.8"/>
      </g>
     </g>
     <g id="text_43">
      <!-- $\mathdefault{20}$ -->
      <g transform="translate(469.475478 117.53763) scale(0.08 -0.08)">
       <use xlink:href="#CMR17-32" transform="scale(0.996264)"/>
       <use xlink:href="#CMR17-30" transform="translate(45.690477 0) scale(0.996264)"/>
      </g>
     </g>
    </g>
    <g id="ytick_22">
     <g id="line2d_53">
      <g>
       <use xlink:href="#m5e5d5e756a" x="460.375478" y="96.092682" style="stroke: #000000; stroke-width: 0.8"/>
      </g>
     </g>
     <g id="text_44">
      <!-- $\mathdefault{25}$ -->
      <g transform="translate(469.475478 98.860082) scale(0.08 -0.08)">
       <use xlink:href="#CMR17-32" transform="scale(0.996264)"/>
       <use xlink:href="#CMR17-35" transform="translate(45.690477 0) scale(0.996264)"/>
      </g>
     </g>
    </g>
    <g id="ytick_23">
     <g id="line2d_54">
      <g>
       <use xlink:href="#m5e5d5e756a" x="460.375478" y="77.415134" style="stroke: #000000; stroke-width: 0.8"/>
      </g>
     </g>
     <g id="text_45">
      <!-- $\mathdefault{30}$ -->
      <g transform="translate(469.475478 80.182535) scale(0.08 -0.08)">
       <use xlink:href="#CMR17-33" transform="scale(0.996264)"/>
       <use xlink:href="#CMR17-30" transform="translate(45.690477 0) scale(0.996264)"/>
      </g>
     </g>
    </g>
    <g id="ytick_24">
     <g id="line2d_55">
      <g>
       <use xlink:href="#m5e5d5e756a" x="460.375478" y="58.737586" style="stroke: #000000; stroke-width: 0.8"/>
      </g>
     </g>
     <g id="text_46">
      <!-- $\mathdefault{35}$ -->
      <g transform="translate(469.475478 61.504987) scale(0.08 -0.08)">
       <use xlink:href="#CMR17-33" transform="scale(0.996264)"/>
       <use xlink:href="#CMR17-35" transform="translate(45.690477 0) scale(0.996264)"/>
      </g>
     </g>
    </g>
    <g id="ytick_25">
     <g id="line2d_56">
      <g>
       <use xlink:href="#m5e5d5e756a" x="460.375478" y="40.060038" style="stroke: #000000; stroke-width: 0.8"/>
      </g>
     </g>
     <g id="text_47">
      <!-- $\mathdefault{40}$ -->
      <g transform="translate(469.475478 42.827439) scale(0.08 -0.08)">
       <use xlink:href="#CMR17-34" transform="scale(0.996264)"/>
       <use xlink:href="#CMR17-30" transform="translate(45.690477 0) scale(0.996264)"/>
      </g>
     </g>
    </g>
    <g id="ytick_26">
     <g id="line2d_57">
      <g>
       <use xlink:href="#m5e5d5e756a" x="460.375478" y="21.38249" style="stroke: #000000; stroke-width: 0.8"/>
      </g>
     </g>
     <g id="text_48">
      <!-- $\mathdefault{45}$ -->
      <g transform="translate(469.475478 24.149891) scale(0.08 -0.08)">
       <use xlink:href="#CMR17-34" transform="scale(0.996264)"/>
       <use xlink:href="#CMR17-35" transform="translate(45.690477 0) scale(0.996264)"/>
      </g>
     </g>
    </g>
    <g id="text_49">
     <!-- $\eta$ -->
     <g style="fill: #9467bd" transform="translate(488.862342 84.292273) rotate(-90) scale(0.1 -0.1)">
      <use xlink:href="#CMMI12-11" transform="scale(0.996264)"/>
     </g>
    </g>
   </g>
   <g id="LineCollection_15">
    <path d="M 321.723635 84.385812 
L 321.723635 82.953505 
" clip-path="url(#p27aca41f4b)" style="fill: none; stroke: #9467bd; stroke-width: 0.5"/>
    <path d="M 336.318566 28.590371 
L 336.318566 26.84282 
" clip-path="url(#p27aca41f4b)" style="fill: none; stroke: #9467bd; stroke-width: 0.5"/>
    <path d="M 350.913496 28.602988 
L 350.913496 26.85815 
" clip-path="url(#p27aca41f4b)" style="fill: none; stroke: #9467bd; stroke-width: 0.5"/>
    <path d="M 365.508427 27.75227 
L 365.508427 25.989959 
" clip-path="url(#p27aca41f4b)" style="fill: none; stroke: #9467bd; stroke-width: 0.5"/>
    <path d="M 380.103358 27.293786 
L 380.103358 25.727626 
" clip-path="url(#p27aca41f4b)" style="fill: none; stroke: #9467bd; stroke-width: 0.5"/>
    <path d="M 394.698289 39.460698 
L 394.698289 38.280042 
" clip-path="url(#p27aca41f4b)" style="fill: none; stroke: #9467bd; stroke-width: 0.5"/>
    <path d="M 409.29322 56.776449 
L 409.29322 55.755254 
" clip-path="url(#p27aca41f4b)" style="fill: none; stroke: #9467bd; stroke-width: 0.5"/>
    <path d="M 423.888151 106.040414 
L 423.888151 105.305144 
" clip-path="url(#p27aca41f4b)" style="fill: none; stroke: #9467bd; stroke-width: 0.5"/>
   </g>
   <g id="line2d_58">
    <path d="M 321.723635 83.669659 
L 336.318566 27.716595 
L 350.913496 27.730569 
L 365.508427 26.871115 
L 380.103358 26.510706 
L 394.698289 38.87037 
L 409.29322 56.265851 
L 423.888151 105.672779 
" clip-path="url(#p27aca41f4b)" style="fill: none; stroke: #9467bd; stroke-width: 0.5; stroke-linecap: square"/>
    <g clip-path="url(#p27aca41f4b)">
     <use xlink:href="#m321dd8208c" x="321.723635" y="83.669659" style="fill: #9467bd"/>
     <use xlink:href="#m321dd8208c" x="336.318566" y="27.716595" style="fill: #9467bd"/>
     <use xlink:href="#m321dd8208c" x="350.913496" y="27.730569" style="fill: #9467bd"/>
     <use xlink:href="#m321dd8208c" x="365.508427" y="26.871115" style="fill: #9467bd"/>
     <use xlink:href="#m321dd8208c" x="380.103358" y="26.510706" style="fill: #9467bd"/>
     <use xlink:href="#m321dd8208c" x="394.698289" y="38.87037" style="fill: #9467bd"/>
     <use xlink:href="#m321dd8208c" x="409.29322" y="56.265851" style="fill: #9467bd"/>
     <use xlink:href="#m321dd8208c" x="423.888151" y="105.672779" style="fill: #9467bd"/>
    </g>
   </g>
   <g id="patch_19">
    <path d="M 299.831239 143.519296 
L 299.831239 20.118498 
" style="fill: none; stroke: #000000; stroke-width: 0.8; stroke-linejoin: miter; stroke-linecap: square"/>
   </g>
   <g id="patch_20">
    <path d="M 460.375478 143.519296 
L 460.375478 20.118498 
" style="fill: none; stroke: #000000; stroke-width: 0.8; stroke-linejoin: miter; stroke-linecap: square"/>
   </g>
   <g id="patch_21">
    <path d="M 299.831239 143.519296 
L 460.375478 143.519296 
" style="fill: none; stroke: #000000; stroke-width: 0.8; stroke-linejoin: miter; stroke-linecap: square"/>
   </g>
   <g id="patch_22">
    <path d="M 299.831239 20.118498 
L 460.375478 20.118498 
" style="fill: none; stroke: #000000; stroke-width: 0.8; stroke-linejoin: miter; stroke-linecap: square"/>
   </g>
   <g id="legend_4">
    <g id="patch_23">
     <path d="M 306.131239 39.86196 
L 339.532712 39.86196 
Q 341.332712 39.86196 341.332712 38.06196 
L 341.332712 26.418498 
Q 341.332712 24.618498 339.532712 24.618498 
L 306.131239 24.618498 
Q 304.331239 24.618498 304.331239 26.418498 
L 304.331239 38.06196 
Q 304.331239 39.86196 306.131239 39.86196 
z
" style="fill: #ffffff; opacity: 0.8; stroke: #cccccc; stroke-width: 0.24; stroke-linejoin: miter"/>
    </g>
    <g id="LineCollection_16">
     <path d="M 316.931239 35.868498 
L 316.931239 26.868498 
" style="fill: none; stroke: #9467bd; stroke-width: 0.5"/>
    </g>
    <g id="line2d_59">
     <path d="M 307.931239 31.368498 
L 325.931239 31.368498 
" style="fill: none; stroke: #9467bd; stroke-width: 0.5; stroke-linecap: square"/>
    </g>
    <g id="line2d_60">
     <g>
      <use xlink:href="#m321dd8208c" x="316.931239" y="31.368498" style="fill: #9467bd"/>
     </g>
    </g>
    <g id="text_50">
     <!-- $\eta$ -->
     <g transform="translate(333.131239 34.518498) scale(0.09 -0.09)">
      <use xlink:href="#CMMI12-11" transform="scale(0.996264)"/>
     </g>
    </g>
   </g>
  </g>
 </g>
 <defs>
  <clipPath id="p95ccb981a8">
   <rect x="55.031239" y="20.118498" width="160.544239" height="123.400797"/>
  </clipPath>
  <clipPath id="p27aca41f4b">
   <rect x="299.831239" y="20.118498" width="160.544239" height="123.400797"/>
  </clipPath>
 </defs>
</svg>
