<?xml version="1.0" encoding="utf-8" standalone="no"?>
<!DOCTYPE svg PUBLIC "-//W3C//DTD SVG 1.1//EN"
  "http://www.w3.org/Graphics/SVG/1.1/DTD/svg11.dtd">
<svg xmlns:xlink="http://www.w3.org/1999/xlink" width="497.99952pt" height="276.17976pt" viewBox="0 0 497.99952 276.17976" xmlns="http://www.w3.org/2000/svg" version="1.1">
 <metadata>
  <rdf:RDF xmlns:dc="http://purl.org/dc/elements/1.1/" xmlns:cc="http://creativecommons.org/ns#" xmlns:rdf="http://www.w3.org/1999/02/22-rdf-syntax-ns#">
   <cc:Work>
    <dc:type rdf:resource="http://purl.org/dc/dcmitype/StillImage"/>
    <dc:date>1980-01-01T00:00:00+00:00</dc:date>
    <dc:format>image/svg+xml</dc:format>
    <dc:creator>
     <cc:Agent>
      <dc:title>Matplotlib v3.6.2, https://matplotlib.org/</dc:title>
     </cc:Agent>
    </dc:creator>
   </cc:Work>
  </rdf:RDF>
 </metadata>
 <defs>
  <style type="text/css">*{stroke-linejoin: round; stroke-linecap: butt}</style>
 </defs>
 <g id="figure_1">
  <g id="patch_1">
   <path d="M 0 276.17976 
L 497.99952 276.17976 
L 497.99952 0 
L 0 0 
z
" style="fill: #ffffff"/>
  </g>
  <g id="axes_1">
   <g id="patch_2">
    <path d="M 42.175562 99.004479 
L 245.99952 99.004479 
L 245.99952 20.118498 
L 42.175562 20.118498 
z
" style="fill: #ffffff"/>
   </g>
   <g id="matplotlib.axis_1">
    <g id="xtick_1">
     <g id="line2d_1">
      <defs>
       <path id="m8c08eeba99" d="M 0 0 
L 0 3.5 
" style="stroke: #000000; stroke-width: 0.8"/>
      </defs>
      <g>
       <use xlink:href="#m8c08eeba99" x="45.263804" y="99.004479" style="stroke: #000000; stroke-width: 0.8"/>
      </g>
     </g>
     <g id="text_1">
      <!-- $\mathdefault{−0.2}$ -->
      <g transform="translate(36.560206 113.639281) scale(0.08 -0.08)">
       <defs>
        <path id="CMSY10-0" d="M 4218 1472 
C 4326 1472 4442 1472 4442 1600 
C 4442 1728 4326 1728 4218 1728 
L 755 1728 
C 646 1728 531 1728 531 1600 
C 531 1472 646 1472 755 1472 
L 4218 1472 
z
" transform="scale(0.015625)"/>
        <path id="CMR17-30" d="M 2688 2025 
C 2688 2416 2682 3080 2413 3591 
C 2176 4039 1798 4198 1466 4198 
C 1158 4198 768 4058 525 3597 
C 269 3118 243 2524 243 2025 
C 243 1661 250 1106 448 619 
C 723 -39 1216 -128 1466 -128 
C 1760 -128 2208 -7 2470 600 
C 2662 1042 2688 1559 2688 2025 
z
M 1466 -26 
C 1056 -26 813 325 723 812 
C 653 1188 653 1738 653 2096 
C 653 2588 653 2997 736 3387 
C 858 3929 1216 4096 1466 4096 
C 1728 4096 2067 3923 2189 3400 
C 2272 3036 2278 2607 2278 2096 
C 2278 1680 2278 1169 2202 792 
C 2067 95 1690 -26 1466 -26 
z
" transform="scale(0.015625)"/>
        <path id="CMMI12-3a" d="M 1178 307 
C 1178 492 1024 619 870 619 
C 685 619 557 466 557 313 
C 557 128 710 0 864 0 
C 1050 0 1178 153 1178 307 
z
" transform="scale(0.015625)"/>
        <path id="CMR17-32" d="M 2669 989 
L 2554 989 
C 2490 536 2438 459 2413 420 
C 2381 369 1920 369 1830 369 
L 602 369 
C 832 619 1280 1072 1824 1597 
C 2214 1967 2669 2402 2669 3035 
C 2669 3790 2067 4224 1395 4224 
C 691 4224 262 3604 262 3030 
C 262 2780 448 2748 525 2748 
C 589 2748 781 2787 781 3010 
C 781 3207 614 3264 525 3264 
C 486 3264 448 3258 422 3245 
C 544 3790 915 4058 1306 4058 
C 1862 4058 2227 3617 2227 3035 
C 2227 2479 1901 2000 1536 1584 
L 262 146 
L 262 0 
L 2515 0 
L 2669 989 
z
" transform="scale(0.015625)"/>
       </defs>
       <use xlink:href="#CMSY10-0" transform="scale(0.996264)"/>
       <use xlink:href="#CMR17-30" transform="translate(77.487468 0) scale(0.996264)"/>
       <use xlink:href="#CMMI12-3a" transform="translate(123.177945 0) scale(0.996264)"/>
       <use xlink:href="#CMR17-32" transform="translate(150.275122 0) scale(0.996264)"/>
      </g>
     </g>
    </g>
    <g id="xtick_2">
     <g id="line2d_2">
      <g>
       <use xlink:href="#m8c08eeba99" x="76.146222" y="99.004479" style="stroke: #000000; stroke-width: 0.8"/>
      </g>
     </g>
     <g id="text_2">
      <!-- $\mathdefault{−0.1}$ -->
      <g transform="translate(67.442623 113.639281) scale(0.08 -0.08)">
       <defs>
        <path id="CMR17-31" d="M 1702 4058 
C 1702 4192 1696 4192 1606 4192 
C 1357 3916 979 3827 621 3827 
C 602 3827 570 3827 563 3808 
C 557 3795 557 3782 557 3648 
C 755 3648 1088 3686 1344 3839 
L 1344 461 
C 1344 236 1331 160 781 160 
L 589 160 
L 589 0 
C 896 0 1216 0 1523 0 
C 1830 0 2150 0 2458 0 
L 2458 160 
L 2266 160 
C 1715 160 1702 230 1702 458 
L 1702 4058 
z
" transform="scale(0.015625)"/>
       </defs>
       <use xlink:href="#CMSY10-0" transform="scale(0.996264)"/>
       <use xlink:href="#CMR17-30" transform="translate(77.487468 0) scale(0.996264)"/>
       <use xlink:href="#CMMI12-3a" transform="translate(123.177945 0) scale(0.996264)"/>
       <use xlink:href="#CMR17-31" transform="translate(150.275122 0) scale(0.996264)"/>
      </g>
     </g>
    </g>
    <g id="xtick_3">
     <g id="line2d_3">
      <g>
       <use xlink:href="#m8c08eeba99" x="107.028639" y="99.004479" style="stroke: #000000; stroke-width: 0.8"/>
      </g>
     </g>
     <g id="text_3">
      <!-- $\mathdefault{0.0}$ -->
      <g transform="translate(101.618295 113.639281) scale(0.08 -0.08)">
       <use xlink:href="#CMR17-30" transform="scale(0.996264)"/>
       <use xlink:href="#CMMI12-3a" transform="translate(45.690477 0) scale(0.996264)"/>
       <use xlink:href="#CMR17-30" transform="translate(72.787654 0) scale(0.996264)"/>
      </g>
     </g>
    </g>
    <g id="xtick_4">
     <g id="line2d_4">
      <g>
       <use xlink:href="#m8c08eeba99" x="137.911057" y="99.004479" style="stroke: #000000; stroke-width: 0.8"/>
      </g>
     </g>
     <g id="text_4">
      <!-- $\mathdefault{0.1}$ -->
      <g transform="translate(132.500713 113.639281) scale(0.08 -0.08)">
       <use xlink:href="#CMR17-30" transform="scale(0.996264)"/>
       <use xlink:href="#CMMI12-3a" transform="translate(45.690477 0) scale(0.996264)"/>
       <use xlink:href="#CMR17-31" transform="translate(72.787654 0) scale(0.996264)"/>
      </g>
     </g>
    </g>
    <g id="xtick_5">
     <g id="line2d_5">
      <g>
       <use xlink:href="#m8c08eeba99" x="168.793475" y="99.004479" style="stroke: #000000; stroke-width: 0.8"/>
      </g>
     </g>
     <g id="text_5">
      <!-- $\mathdefault{0.2}$ -->
      <g transform="translate(163.38313 113.639281) scale(0.08 -0.08)">
       <use xlink:href="#CMR17-30" transform="scale(0.996264)"/>
       <use xlink:href="#CMMI12-3a" transform="translate(45.690477 0) scale(0.996264)"/>
       <use xlink:href="#CMR17-32" transform="translate(72.787654 0) scale(0.996264)"/>
      </g>
     </g>
    </g>
    <g id="xtick_6">
     <g id="line2d_6">
      <g>
       <use xlink:href="#m8c08eeba99" x="199.675893" y="99.004479" style="stroke: #000000; stroke-width: 0.8"/>
      </g>
     </g>
     <g id="text_6">
      <!-- $\mathdefault{0.3}$ -->
      <g transform="translate(194.265548 113.639281) scale(0.08 -0.08)">
       <defs>
        <path id="CMR17-33" d="M 1414 2157 
C 1984 2157 2234 1662 2234 1090 
C 2234 320 1824 25 1453 25 
C 1114 25 563 194 390 693 
C 422 680 454 680 486 680 
C 640 680 755 782 755 948 
C 755 1133 614 1216 486 1216 
C 378 1216 211 1165 211 926 
C 211 335 787 -128 1466 -128 
C 2176 -128 2720 430 2720 1085 
C 2720 1707 2208 2157 1600 2227 
C 2086 2328 2554 2756 2554 3329 
C 2554 3820 2048 4179 1472 4179 
C 890 4179 378 3829 378 3329 
C 378 3110 544 3072 627 3072 
C 762 3072 877 3155 877 3321 
C 877 3486 762 3569 627 3569 
C 602 3569 570 3569 544 3557 
C 730 3959 1235 4032 1459 4032 
C 1683 4032 2106 3925 2106 3320 
C 2106 3143 2080 2828 1862 2550 
C 1670 2304 1453 2304 1242 2284 
C 1210 2284 1062 2269 1037 2269 
C 992 2263 966 2257 966 2208 
C 966 2163 973 2157 1101 2157 
L 1414 2157 
z
" transform="scale(0.015625)"/>
       </defs>
       <use xlink:href="#CMR17-30" transform="scale(0.996264)"/>
       <use xlink:href="#CMMI12-3a" transform="translate(45.690477 0) scale(0.996264)"/>
       <use xlink:href="#CMR17-33" transform="translate(72.787654 0) scale(0.996264)"/>
      </g>
     </g>
    </g>
    <g id="xtick_7">
     <g id="line2d_7">
      <g>
       <use xlink:href="#m8c08eeba99" x="230.558311" y="99.004479" style="stroke: #000000; stroke-width: 0.8"/>
      </g>
     </g>
     <g id="text_7">
      <!-- $\mathdefault{0.4}$ -->
      <g transform="translate(225.147966 113.639281) scale(0.08 -0.08)">
       <defs>
        <path id="CMR17-34" d="M 2150 4122 
C 2150 4256 2144 4256 2029 4256 
L 128 1254 
L 128 1088 
L 1779 1088 
L 1779 457 
C 1779 224 1766 160 1318 160 
L 1197 160 
L 1197 0 
C 1402 0 1747 0 1965 0 
C 2182 0 2528 0 2733 0 
L 2733 160 
L 2611 160 
C 2163 160 2150 224 2150 457 
L 2150 1088 
L 2803 1088 
L 2803 1254 
L 2150 1254 
L 2150 4122 
z
M 1798 3703 
L 1798 1254 
L 256 1254 
L 1798 3703 
z
" transform="scale(0.015625)"/>
       </defs>
       <use xlink:href="#CMR17-30" transform="scale(0.996264)"/>
       <use xlink:href="#CMMI12-3a" transform="translate(45.690477 0) scale(0.996264)"/>
       <use xlink:href="#CMR17-34" transform="translate(72.787654 0) scale(0.996264)"/>
      </g>
     </g>
    </g>
   </g>
   <g id="matplotlib.axis_2">
    <g id="ytick_1">
     <g id="line2d_8">
      <defs>
       <path id="m293316f6a0" d="M 0 0 
L -3.5 0 
" style="stroke: #000000; stroke-width: 0.8"/>
      </defs>
      <g>
       <use xlink:href="#m293316f6a0" x="42.175562" y="95.874034" style="stroke: #000000; stroke-width: 0.8"/>
      </g>
     </g>
     <g id="text_8">
      <!-- $\mathdefault{0}$ -->
      <g transform="translate(28.841379 98.641434) scale(0.08 -0.08)">
       <use xlink:href="#CMR17-30" transform="scale(0.996264)"/>
      </g>
     </g>
    </g>
    <g id="ytick_2">
     <g id="line2d_9">
      <g>
       <use xlink:href="#m293316f6a0" x="42.175562" y="63.379401" style="stroke: #000000; stroke-width: 0.8"/>
      </g>
     </g>
     <g id="text_9">
      <!-- $\mathdefault{20}$ -->
      <g transform="translate(24.607196 66.146802) scale(0.08 -0.08)">
       <use xlink:href="#CMR17-32" transform="scale(0.996264)"/>
       <use xlink:href="#CMR17-30" transform="translate(45.690477 0) scale(0.996264)"/>
      </g>
     </g>
    </g>
    <g id="ytick_3">
     <g id="line2d_10">
      <g>
       <use xlink:href="#m293316f6a0" x="42.175562" y="30.884768" style="stroke: #000000; stroke-width: 0.8"/>
      </g>
     </g>
     <g id="text_10">
      <!-- $\mathdefault{40}$ -->
      <g transform="translate(24.607196 33.652169) scale(0.08 -0.08)">
       <use xlink:href="#CMR17-34" transform="scale(0.996264)"/>
       <use xlink:href="#CMR17-30" transform="translate(45.690477 0) scale(0.996264)"/>
      </g>
     </g>
    </g>
   </g>
   <g id="line2d_11">
    <path d="M 88.499189 64.500205 
L 107.028639 47.096918 
L 125.55809 43.857416 
L 144.087541 42.396814 
L 162.616992 44.5998 
L 181.146442 47.736566 
L 199.675893 52.935656 
L 218.205344 73.283775 
" clip-path="url(#pd4b8a81e20)" style="fill: none; stroke: #1f77b4; stroke-width: 0.5; stroke-linecap: square"/>
    <defs>
     <path id="mac9f8bef2b" d="M 0 1.4 
C 0.371284 1.4 0.727412 1.252487 0.989949 0.989949 
C 1.252487 0.727412 1.4 0.371284 1.4 0 
C 1.4 -0.371284 1.252487 -0.727412 0.989949 -0.989949 
C 0.727412 -1.252487 0.371284 -1.4 0 -1.4 
C -0.371284 -1.4 -0.727412 -1.252487 -0.989949 -0.989949 
C -1.252487 -0.727412 -1.4 -0.371284 -1.4 0 
C -1.4 0.371284 -1.252487 0.727412 -0.989949 0.989949 
C -0.727412 1.252487 -0.371284 1.4 0 1.4 
z
"/>
    </defs>
    <g clip-path="url(#pd4b8a81e20)">
     <use xlink:href="#mac9f8bef2b" x="88.499189" y="64.500205" style="fill: #1f77b4"/>
     <use xlink:href="#mac9f8bef2b" x="107.028639" y="47.096918" style="fill: #1f77b4"/>
     <use xlink:href="#mac9f8bef2b" x="125.55809" y="43.857416" style="fill: #1f77b4"/>
     <use xlink:href="#mac9f8bef2b" x="144.087541" y="42.396814" style="fill: #1f77b4"/>
     <use xlink:href="#mac9f8bef2b" x="162.616992" y="44.5998" style="fill: #1f77b4"/>
     <use xlink:href="#mac9f8bef2b" x="181.146442" y="47.736566" style="fill: #1f77b4"/>
     <use xlink:href="#mac9f8bef2b" x="199.675893" y="52.935656" style="fill: #1f77b4"/>
     <use xlink:href="#mac9f8bef2b" x="218.205344" y="73.283775" style="fill: #1f77b4"/>
    </g>
   </g>
   <g id="line2d_12">
    <path d="M 69.969738 49.852443 
L 88.499189 25.516081 
L 107.028639 25.522159 
L 125.55809 25.148346 
L 144.087541 24.991589 
L 162.616992 30.367331 
L 181.146442 37.933364 
L 199.675893 59.422534 
" clip-path="url(#pd4b8a81e20)" style="fill: none; stroke: #ff7f0e; stroke-width: 0.5; stroke-linecap: square"/>
    <defs>
     <path id="mb29f19bb9d" d="M 0 -2.8 
L -2.8 2.8 
L 2.8 2.8 
z
"/>
    </defs>
    <g clip-path="url(#pd4b8a81e20)">
     <use xlink:href="#mb29f19bb9d" x="69.969738" y="49.852443" style="fill: #ff7f0e"/>
     <use xlink:href="#mb29f19bb9d" x="88.499189" y="25.516081" style="fill: #ff7f0e"/>
     <use xlink:href="#mb29f19bb9d" x="107.028639" y="25.522159" style="fill: #ff7f0e"/>
     <use xlink:href="#mb29f19bb9d" x="125.55809" y="25.148346" style="fill: #ff7f0e"/>
     <use xlink:href="#mb29f19bb9d" x="144.087541" y="24.991589" style="fill: #ff7f0e"/>
     <use xlink:href="#mb29f19bb9d" x="162.616992" y="30.367331" style="fill: #ff7f0e"/>
     <use xlink:href="#mb29f19bb9d" x="181.146442" y="37.933364" style="fill: #ff7f0e"/>
     <use xlink:href="#mb29f19bb9d" x="199.675893" y="59.422534" style="fill: #ff7f0e"/>
    </g>
   </g>
   <g id="line2d_13">
    <path d="M 51.440287 66.622835 
L 69.969738 33.040611 
L 88.499189 25.290581 
L 107.028639 25.367473 
L 125.55809 25.581912 
L 144.087541 23.704225 
L 162.616992 25.265627 
L 181.146442 32.590393 
L 199.675893 52.833695 
L 218.205344 81.023629 
L 236.734795 95.418753 
" clip-path="url(#pd4b8a81e20)" style="fill: none; stroke: #2ca02c; stroke-width: 0.5; stroke-linecap: square"/>
    <defs>
     <path id="m921e66b4dd" d="M 0 -2.8 
L -0.628639 -0.865248 
L -2.662958 -0.865248 
L -1.01716 0.330495 
L -1.645799 2.265248 
L -0 1.069505 
L 1.645799 2.265248 
L 1.01716 0.330495 
L 2.662958 -0.865248 
L 0.628639 -0.865248 
z
"/>
    </defs>
    <g clip-path="url(#pd4b8a81e20)">
     <use xlink:href="#m921e66b4dd" x="51.440287" y="66.622835" style="fill: #2ca02c"/>
     <use xlink:href="#m921e66b4dd" x="69.969738" y="33.040611" style="fill: #2ca02c"/>
     <use xlink:href="#m921e66b4dd" x="88.499189" y="25.290581" style="fill: #2ca02c"/>
     <use xlink:href="#m921e66b4dd" x="107.028639" y="25.367473" style="fill: #2ca02c"/>
     <use xlink:href="#m921e66b4dd" x="125.55809" y="25.581912" style="fill: #2ca02c"/>
     <use xlink:href="#m921e66b4dd" x="144.087541" y="23.704225" style="fill: #2ca02c"/>
     <use xlink:href="#m921e66b4dd" x="162.616992" y="25.265627" style="fill: #2ca02c"/>
     <use xlink:href="#m921e66b4dd" x="181.146442" y="32.590393" style="fill: #2ca02c"/>
     <use xlink:href="#m921e66b4dd" x="199.675893" y="52.833695" style="fill: #2ca02c"/>
     <use xlink:href="#m921e66b4dd" x="218.205344" y="81.023629" style="fill: #2ca02c"/>
     <use xlink:href="#m921e66b4dd" x="236.734795" y="95.418753" style="fill: #2ca02c"/>
    </g>
   </g>
   <g id="patch_3">
    <path d="M 42.175562 99.004479 
L 42.175562 20.118498 
" style="fill: none; stroke: #000000; stroke-width: 0.8; stroke-linejoin: miter; stroke-linecap: square"/>
   </g>
   <g id="patch_4">
    <path d="M 245.99952 99.004479 
L 245.99952 20.118498 
" style="fill: none; stroke: #000000; stroke-width: 0.8; stroke-linejoin: miter; stroke-linecap: square"/>
   </g>
   <g id="patch_5">
    <path d="M 42.175562 99.004479 
L 245.99952 99.004479 
" style="fill: none; stroke: #000000; stroke-width: 0.8; stroke-linejoin: miter; stroke-linecap: square"/>
   </g>
   <g id="patch_6">
    <path d="M 42.175562 20.118498 
L 245.99952 20.118498 
" style="fill: none; stroke: #000000; stroke-width: 0.8; stroke-linejoin: miter; stroke-linecap: square"/>
   </g>
   <g id="text_11">
    <!-- $\eta$ -->
    <g transform="translate(141.614165 14.118498) scale(0.1 -0.1)">
     <defs>
      <path id="CMMI12-11" d="M 3040 1768 
C 3072 1895 3091 1973 3091 2145 
C 3091 2528 2867 2815 2381 2815 
C 1811 2815 1510 2413 1395 2254 
C 1376 2618 1114 2815 832 2815 
C 646 2815 499 2726 378 2483 
C 262 2254 173 1864 173 1839 
C 173 1813 198 1781 243 1781 
C 294 1781 301 1788 339 1934 
C 435 2311 557 2688 813 2688 
C 960 2688 1011 2586 1011 2394 
C 1011 2254 947 2005 902 1807 
L 723 1118 
C 698 996 627 709 595 593 
C 550 428 480 127 480 96 
C 480 6 550 -64 646 -64 
C 723 -64 813 -25 864 70 
C 877 102 934 326 966 453 
L 1107 1028 
L 1318 1871 
C 1331 1909 1491 2228 1728 2432 
C 1894 2586 2112 2688 2362 2688 
C 2618 2688 2707 2496 2707 2241 
C 2707 2055 2682 1953 2650 1831 
L 1907 -1107 
C 1901 -1139 1888 -1177 1888 -1216 
C 1888 -1312 1965 -1376 2061 -1376 
C 2118 -1376 2253 -1350 2304 -1158 
L 3040 1768 
z
" transform="scale(0.015625)"/>
     </defs>
     <use xlink:href="#CMMI12-11" transform="scale(0.996264)"/>
    </g>
   </g>
  </g>
  <g id="axes_2">
   <g id="patch_7">
    <path d="M 286.975562 99.004479 
L 490.79952 99.004479 
L 490.79952 20.118498 
L 286.975562 20.118498 
z
" style="fill: #ffffff"/>
   </g>
   <g id="matplotlib.axis_3">
    <g id="xtick_8">
     <g id="line2d_14">
      <g>
       <use xlink:href="#m8c08eeba99" x="290.063804" y="99.004479" style="stroke: #000000; stroke-width: 0.8"/>
      </g>
     </g>
     <g id="text_12">
      <!-- $\mathdefault{−0.2}$ -->
      <g transform="translate(281.360206 113.639281) scale(0.08 -0.08)">
       <use xlink:href="#CMSY10-0" transform="scale(0.996264)"/>
       <use xlink:href="#CMR17-30" transform="translate(77.487468 0) scale(0.996264)"/>
       <use xlink:href="#CMMI12-3a" transform="translate(123.177945 0) scale(0.996264)"/>
       <use xlink:href="#CMR17-32" transform="translate(150.275122 0) scale(0.996264)"/>
      </g>
     </g>
    </g>
    <g id="xtick_9">
     <g id="line2d_15">
      <g>
       <use xlink:href="#m8c08eeba99" x="320.946222" y="99.004479" style="stroke: #000000; stroke-width: 0.8"/>
      </g>
     </g>
     <g id="text_13">
      <!-- $\mathdefault{−0.1}$ -->
      <g transform="translate(312.242623 113.639281) scale(0.08 -0.08)">
       <use xlink:href="#CMSY10-0" transform="scale(0.996264)"/>
       <use xlink:href="#CMR17-30" transform="translate(77.487468 0) scale(0.996264)"/>
       <use xlink:href="#CMMI12-3a" transform="translate(123.177945 0) scale(0.996264)"/>
       <use xlink:href="#CMR17-31" transform="translate(150.275122 0) scale(0.996264)"/>
      </g>
     </g>
    </g>
    <g id="xtick_10">
     <g id="line2d_16">
      <g>
       <use xlink:href="#m8c08eeba99" x="351.828639" y="99.004479" style="stroke: #000000; stroke-width: 0.8"/>
      </g>
     </g>
     <g id="text_14">
      <!-- $\mathdefault{0.0}$ -->
      <g transform="translate(346.418295 113.639281) scale(0.08 -0.08)">
       <use xlink:href="#CMR17-30" transform="scale(0.996264)"/>
       <use xlink:href="#CMMI12-3a" transform="translate(45.690477 0) scale(0.996264)"/>
       <use xlink:href="#CMR17-30" transform="translate(72.787654 0) scale(0.996264)"/>
      </g>
     </g>
    </g>
    <g id="xtick_11">
     <g id="line2d_17">
      <g>
       <use xlink:href="#m8c08eeba99" x="382.711057" y="99.004479" style="stroke: #000000; stroke-width: 0.8"/>
      </g>
     </g>
     <g id="text_15">
      <!-- $\mathdefault{0.1}$ -->
      <g transform="translate(377.300713 113.639281) scale(0.08 -0.08)">
       <use xlink:href="#CMR17-30" transform="scale(0.996264)"/>
       <use xlink:href="#CMMI12-3a" transform="translate(45.690477 0) scale(0.996264)"/>
       <use xlink:href="#CMR17-31" transform="translate(72.787654 0) scale(0.996264)"/>
      </g>
     </g>
    </g>
    <g id="xtick_12">
     <g id="line2d_18">
      <g>
       <use xlink:href="#m8c08eeba99" x="413.593475" y="99.004479" style="stroke: #000000; stroke-width: 0.8"/>
      </g>
     </g>
     <g id="text_16">
      <!-- $\mathdefault{0.2}$ -->
      <g transform="translate(408.18313 113.639281) scale(0.08 -0.08)">
       <use xlink:href="#CMR17-30" transform="scale(0.996264)"/>
       <use xlink:href="#CMMI12-3a" transform="translate(45.690477 0) scale(0.996264)"/>
       <use xlink:href="#CMR17-32" transform="translate(72.787654 0) scale(0.996264)"/>
      </g>
     </g>
    </g>
    <g id="xtick_13">
     <g id="line2d_19">
      <g>
       <use xlink:href="#m8c08eeba99" x="444.475893" y="99.004479" style="stroke: #000000; stroke-width: 0.8"/>
      </g>
     </g>
     <g id="text_17">
      <!-- $\mathdefault{0.3}$ -->
      <g transform="translate(439.065548 113.639281) scale(0.08 -0.08)">
       <use xlink:href="#CMR17-30" transform="scale(0.996264)"/>
       <use xlink:href="#CMMI12-3a" transform="translate(45.690477 0) scale(0.996264)"/>
       <use xlink:href="#CMR17-33" transform="translate(72.787654 0) scale(0.996264)"/>
      </g>
     </g>
    </g>
    <g id="xtick_14">
     <g id="line2d_20">
      <g>
       <use xlink:href="#m8c08eeba99" x="475.358311" y="99.004479" style="stroke: #000000; stroke-width: 0.8"/>
      </g>
     </g>
     <g id="text_18">
      <!-- $\mathdefault{0.4}$ -->
      <g transform="translate(469.947966 113.639281) scale(0.08 -0.08)">
       <use xlink:href="#CMR17-30" transform="scale(0.996264)"/>
       <use xlink:href="#CMMI12-3a" transform="translate(45.690477 0) scale(0.996264)"/>
       <use xlink:href="#CMR17-34" transform="translate(72.787654 0) scale(0.996264)"/>
      </g>
     </g>
    </g>
   </g>
   <g id="matplotlib.axis_4">
    <g id="ytick_4">
     <g id="line2d_21">
      <g>
       <use xlink:href="#m293316f6a0" x="286.975562" y="84.604428" style="stroke: #000000; stroke-width: 0.8"/>
      </g>
     </g>
     <g id="text_19">
      <!-- $\mathdefault{−0.005}$ -->
      <g transform="translate(252 87.371829) scale(0.08 -0.08)">
       <defs>
        <path id="CMR17-35" d="M 730 3692 
C 794 3666 1056 3584 1325 3584 
C 1920 3584 2246 3911 2432 4100 
C 2432 4157 2432 4192 2394 4192 
C 2387 4192 2374 4192 2323 4163 
C 2099 4058 1837 3973 1517 3973 
C 1325 3973 1037 3999 723 4139 
C 653 4171 640 4171 634 4171 
C 602 4171 595 4164 595 4037 
L 595 2203 
C 595 2089 595 2057 659 2057 
C 691 2057 704 2070 736 2114 
C 941 2401 1222 2522 1542 2522 
C 1766 2522 2246 2382 2246 1289 
C 2246 1085 2246 715 2054 421 
C 1894 159 1645 25 1370 25 
C 947 25 518 320 403 814 
C 429 807 480 795 506 795 
C 589 795 749 840 749 1038 
C 749 1210 627 1280 506 1280 
C 358 1280 262 1190 262 1011 
C 262 454 704 -128 1382 -128 
C 2042 -128 2669 440 2669 1264 
C 2669 2030 2170 2624 1549 2624 
C 1222 2624 947 2503 730 2274 
L 730 3692 
z
" transform="scale(0.015625)"/>
       </defs>
       <use xlink:href="#CMSY10-0" transform="scale(0.996264)"/>
       <use xlink:href="#CMR17-30" transform="translate(77.487468 0) scale(0.996264)"/>
       <use xlink:href="#CMMI12-3a" transform="translate(123.177945 0) scale(0.996264)"/>
       <use xlink:href="#CMR17-30" transform="translate(150.275122 0) scale(0.996264)"/>
       <use xlink:href="#CMR17-30" transform="translate(195.965599 0) scale(0.996264)"/>
       <use xlink:href="#CMR17-35" transform="translate(241.656076 0) scale(0.996264)"/>
      </g>
     </g>
    </g>
    <g id="ytick_5">
     <g id="line2d_22">
      <g>
       <use xlink:href="#m293316f6a0" x="286.975562" y="54.380717" style="stroke: #000000; stroke-width: 0.8"/>
      </g>
     </g>
     <g id="text_20">
      <!-- $\mathdefault{0.000}$ -->
      <g transform="translate(258.586507 57.148118) scale(0.08 -0.08)">
       <use xlink:href="#CMR17-30" transform="scale(0.996264)"/>
       <use xlink:href="#CMMI12-3a" transform="translate(45.690477 0) scale(0.996264)"/>
       <use xlink:href="#CMR17-30" transform="translate(72.787654 0) scale(0.996264)"/>
       <use xlink:href="#CMR17-30" transform="translate(118.478131 0) scale(0.996264)"/>
       <use xlink:href="#CMR17-30" transform="translate(164.168608 0) scale(0.996264)"/>
      </g>
     </g>
    </g>
    <g id="ytick_6">
     <g id="line2d_23">
      <g>
       <use xlink:href="#m293316f6a0" x="286.975562" y="24.157005" style="stroke: #000000; stroke-width: 0.8"/>
      </g>
     </g>
     <g id="text_21">
      <!-- $\mathdefault{0.005}$ -->
      <g transform="translate(258.586507 26.924406) scale(0.08 -0.08)">
       <use xlink:href="#CMR17-30" transform="scale(0.996264)"/>
       <use xlink:href="#CMMI12-3a" transform="translate(45.690477 0) scale(0.996264)"/>
       <use xlink:href="#CMR17-30" transform="translate(72.787654 0) scale(0.996264)"/>
       <use xlink:href="#CMR17-30" transform="translate(118.478131 0) scale(0.996264)"/>
       <use xlink:href="#CMR17-35" transform="translate(164.168608 0) scale(0.996264)"/>
      </g>
     </g>
    </g>
   </g>
   <g id="line2d_24">
    <path d="M 296.240287 95.418753 
L 314.769738 84.590136 
L 333.299189 45.939144 
L 351.828639 39.59743 
L 370.35809 37.260593 
L 388.887541 30.415917 
L 407.416992 29.599054 
L 425.946442 30.643331 
L 444.475893 33.243723 
L 463.005344 43.793878 
L 481.534795 72.911695 
" clip-path="url(#p63b85d3864)" style="fill: none; stroke: #1f77b4; stroke-width: 0.5; stroke-linecap: square"/>
    <g clip-path="url(#p63b85d3864)">
     <use xlink:href="#mac9f8bef2b" x="296.240287" y="95.418753" style="fill: #1f77b4"/>
     <use xlink:href="#mac9f8bef2b" x="314.769738" y="84.590136" style="fill: #1f77b4"/>
     <use xlink:href="#mac9f8bef2b" x="333.299189" y="45.939144" style="fill: #1f77b4"/>
     <use xlink:href="#mac9f8bef2b" x="351.828639" y="39.59743" style="fill: #1f77b4"/>
     <use xlink:href="#mac9f8bef2b" x="370.35809" y="37.260593" style="fill: #1f77b4"/>
     <use xlink:href="#mac9f8bef2b" x="388.887541" y="30.415917" style="fill: #1f77b4"/>
     <use xlink:href="#mac9f8bef2b" x="407.416992" y="29.599054" style="fill: #1f77b4"/>
     <use xlink:href="#mac9f8bef2b" x="425.946442" y="30.643331" style="fill: #1f77b4"/>
     <use xlink:href="#mac9f8bef2b" x="444.475893" y="33.243723" style="fill: #1f77b4"/>
     <use xlink:href="#mac9f8bef2b" x="463.005344" y="43.793878" style="fill: #1f77b4"/>
     <use xlink:href="#mac9f8bef2b" x="481.534795" y="72.911695" style="fill: #1f77b4"/>
    </g>
   </g>
   <g id="line2d_25">
    <path d="M 296.240287 72.192201 
L 314.769738 41.162296 
L 333.299189 30.776247 
L 351.828639 30.741142 
L 370.35809 30.949006 
L 388.887541 27.574016 
L 407.416992 23.704225 
L 425.946442 25.939299 
L 444.475893 36.929996 
L 463.005344 65.21217 
L 481.534795 89.476228 
" clip-path="url(#p63b85d3864)" style="fill: none; stroke: #ff7f0e; stroke-width: 0.5; stroke-linecap: square"/>
    <g clip-path="url(#p63b85d3864)">
     <use xlink:href="#mb29f19bb9d" x="296.240287" y="72.192201" style="fill: #ff7f0e"/>
     <use xlink:href="#mb29f19bb9d" x="314.769738" y="41.162296" style="fill: #ff7f0e"/>
     <use xlink:href="#mb29f19bb9d" x="333.299189" y="30.776247" style="fill: #ff7f0e"/>
     <use xlink:href="#mb29f19bb9d" x="351.828639" y="30.741142" style="fill: #ff7f0e"/>
     <use xlink:href="#mb29f19bb9d" x="370.35809" y="30.949006" style="fill: #ff7f0e"/>
     <use xlink:href="#mb29f19bb9d" x="388.887541" y="27.574016" style="fill: #ff7f0e"/>
     <use xlink:href="#mb29f19bb9d" x="407.416992" y="23.704225" style="fill: #ff7f0e"/>
     <use xlink:href="#mb29f19bb9d" x="425.946442" y="25.939299" style="fill: #ff7f0e"/>
     <use xlink:href="#mb29f19bb9d" x="444.475893" y="36.929996" style="fill: #ff7f0e"/>
     <use xlink:href="#mb29f19bb9d" x="463.005344" y="65.21217" style="fill: #ff7f0e"/>
     <use xlink:href="#mb29f19bb9d" x="481.534795" y="89.476228" style="fill: #ff7f0e"/>
    </g>
   </g>
   <g id="line2d_26">
    <path d="M 296.240287 44.525978 
L 314.769738 33.334506 
L 333.299189 30.591231 
L 351.828639 30.701374 
L 370.35809 30.964599 
L 388.887541 27.817124 
L 407.416992 24.295157 
L 425.946442 25.864982 
L 444.475893 31.602325 
L 463.005344 44.84977 
L 481.534795 54.052764 
" clip-path="url(#p63b85d3864)" style="fill: none; stroke: #2ca02c; stroke-width: 0.5; stroke-linecap: square"/>
    <g clip-path="url(#p63b85d3864)">
     <use xlink:href="#m921e66b4dd" x="296.240287" y="44.525978" style="fill: #2ca02c"/>
     <use xlink:href="#m921e66b4dd" x="314.769738" y="33.334506" style="fill: #2ca02c"/>
     <use xlink:href="#m921e66b4dd" x="333.299189" y="30.591231" style="fill: #2ca02c"/>
     <use xlink:href="#m921e66b4dd" x="351.828639" y="30.701374" style="fill: #2ca02c"/>
     <use xlink:href="#m921e66b4dd" x="370.35809" y="30.964599" style="fill: #2ca02c"/>
     <use xlink:href="#m921e66b4dd" x="388.887541" y="27.817124" style="fill: #2ca02c"/>
     <use xlink:href="#m921e66b4dd" x="407.416992" y="24.295157" style="fill: #2ca02c"/>
     <use xlink:href="#m921e66b4dd" x="425.946442" y="25.864982" style="fill: #2ca02c"/>
     <use xlink:href="#m921e66b4dd" x="444.475893" y="31.602325" style="fill: #2ca02c"/>
     <use xlink:href="#m921e66b4dd" x="463.005344" y="44.84977" style="fill: #2ca02c"/>
     <use xlink:href="#m921e66b4dd" x="481.534795" y="54.052764" style="fill: #2ca02c"/>
    </g>
   </g>
   <g id="patch_8">
    <path d="M 286.975562 99.004479 
L 286.975562 20.118498 
" style="fill: none; stroke: #000000; stroke-width: 0.8; stroke-linejoin: miter; stroke-linecap: square"/>
   </g>
   <g id="patch_9">
    <path d="M 490.79952 99.004479 
L 490.79952 20.118498 
" style="fill: none; stroke: #000000; stroke-width: 0.8; stroke-linejoin: miter; stroke-linecap: square"/>
   </g>
   <g id="patch_10">
    <path d="M 286.975562 99.004479 
L 490.79952 99.004479 
" style="fill: none; stroke: #000000; stroke-width: 0.8; stroke-linejoin: miter; stroke-linecap: square"/>
   </g>
   <g id="patch_11">
    <path d="M 286.975562 20.118498 
L 490.79952 20.118498 
" style="fill: none; stroke: #000000; stroke-width: 0.8; stroke-linejoin: miter; stroke-linecap: square"/>
   </g>
   <g id="text_22">
    <!-- $\bar{P}$ -->
    <g transform="translate(385.282119 14.118498) scale(0.1 -0.1)">
     <defs>
      <path id="CMR17-16" d="M 2554 3520 
L 2554 3666 
L 378 3666 
L 378 3520 
L 2554 3520 
z
" transform="scale(0.015625)"/>
      <path id="CMMI12-50" d="M 1894 2023 
L 2970 2023 
C 3853 2023 4736 2673 4736 3401 
C 4736 3898 4314 4352 3507 4352 
L 1530 4352 
C 1408 4352 1350 4352 1350 4231 
C 1350 4167 1408 4167 1504 4167 
C 1894 4167 1894 4116 1894 4046 
C 1894 4034 1894 3995 1869 3899 
L 1005 472 
C 947 249 934 185 486 185 
C 365 185 301 185 301 70 
C 301 0 358 0 397 0 
C 518 0 646 0 768 0 
L 1517 0 
C 1638 0 1773 0 1894 0 
C 1946 0 2016 0 2016 121 
C 2016 185 1958 185 1862 185 
C 1478 185 1472 230 1472 293 
C 1472 325 1478 369 1485 401 
L 1894 2023 
z
M 2355 3930 
C 2413 4167 2438 4167 2688 4167 
L 3322 4167 
C 3802 4167 4198 4013 4198 3535 
C 4198 3369 4115 2827 3821 2534 
C 3712 2419 3405 2176 2822 2176 
L 1920 2176 
L 2355 3930 
z
" transform="scale(0.015625)"/>
     </defs>
     <use xlink:href="#CMR17-16" transform="translate(23.496833 25.189733) scale(0.996264)"/>
     <use xlink:href="#CMMI12-50" transform="scale(0.996264)"/>
    </g>
   </g>
  </g>
  <g id="axes_3">
   <g id="patch_12">
    <path d="M 42.175562 214.250367 
L 245.99952 214.250367 
L 245.99952 135.364387 
L 42.175562 135.364387 
z
" style="fill: #ffffff"/>
   </g>
   <g id="matplotlib.axis_5">
    <g id="xtick_15">
     <g id="line2d_27">
      <g>
       <use xlink:href="#m8c08eeba99" x="45.263804" y="214.250367" style="stroke: #000000; stroke-width: 0.8"/>
      </g>
     </g>
     <g id="text_23">
      <!-- $\mathdefault{−0.2}$ -->
      <g transform="translate(36.560206 228.885169) scale(0.08 -0.08)">
       <use xlink:href="#CMSY10-0" transform="scale(0.996264)"/>
       <use xlink:href="#CMR17-30" transform="translate(77.487468 0) scale(0.996264)"/>
       <use xlink:href="#CMMI12-3a" transform="translate(123.177945 0) scale(0.996264)"/>
       <use xlink:href="#CMR17-32" transform="translate(150.275122 0) scale(0.996264)"/>
      </g>
     </g>
    </g>
    <g id="xtick_16">
     <g id="line2d_28">
      <g>
       <use xlink:href="#m8c08eeba99" x="76.146222" y="214.250367" style="stroke: #000000; stroke-width: 0.8"/>
      </g>
     </g>
     <g id="text_24">
      <!-- $\mathdefault{−0.1}$ -->
      <g transform="translate(67.442623 228.885169) scale(0.08 -0.08)">
       <use xlink:href="#CMSY10-0" transform="scale(0.996264)"/>
       <use xlink:href="#CMR17-30" transform="translate(77.487468 0) scale(0.996264)"/>
       <use xlink:href="#CMMI12-3a" transform="translate(123.177945 0) scale(0.996264)"/>
       <use xlink:href="#CMR17-31" transform="translate(150.275122 0) scale(0.996264)"/>
      </g>
     </g>
    </g>
    <g id="xtick_17">
     <g id="line2d_29">
      <g>
       <use xlink:href="#m8c08eeba99" x="107.028639" y="214.250367" style="stroke: #000000; stroke-width: 0.8"/>
      </g>
     </g>
     <g id="text_25">
      <!-- $\mathdefault{0.0}$ -->
      <g transform="translate(101.618295 228.885169) scale(0.08 -0.08)">
       <use xlink:href="#CMR17-30" transform="scale(0.996264)"/>
       <use xlink:href="#CMMI12-3a" transform="translate(45.690477 0) scale(0.996264)"/>
       <use xlink:href="#CMR17-30" transform="translate(72.787654 0) scale(0.996264)"/>
      </g>
     </g>
    </g>
    <g id="xtick_18">
     <g id="line2d_30">
      <g>
       <use xlink:href="#m8c08eeba99" x="137.911057" y="214.250367" style="stroke: #000000; stroke-width: 0.8"/>
      </g>
     </g>
     <g id="text_26">
      <!-- $\mathdefault{0.1}$ -->
      <g transform="translate(132.500713 228.885169) scale(0.08 -0.08)">
       <use xlink:href="#CMR17-30" transform="scale(0.996264)"/>
       <use xlink:href="#CMMI12-3a" transform="translate(45.690477 0) scale(0.996264)"/>
       <use xlink:href="#CMR17-31" transform="translate(72.787654 0) scale(0.996264)"/>
      </g>
     </g>
    </g>
    <g id="xtick_19">
     <g id="line2d_31">
      <g>
       <use xlink:href="#m8c08eeba99" x="168.793475" y="214.250367" style="stroke: #000000; stroke-width: 0.8"/>
      </g>
     </g>
     <g id="text_27">
      <!-- $\mathdefault{0.2}$ -->
      <g transform="translate(163.38313 228.885169) scale(0.08 -0.08)">
       <use xlink:href="#CMR17-30" transform="scale(0.996264)"/>
       <use xlink:href="#CMMI12-3a" transform="translate(45.690477 0) scale(0.996264)"/>
       <use xlink:href="#CMR17-32" transform="translate(72.787654 0) scale(0.996264)"/>
      </g>
     </g>
    </g>
    <g id="xtick_20">
     <g id="line2d_32">
      <g>
       <use xlink:href="#m8c08eeba99" x="199.675893" y="214.250367" style="stroke: #000000; stroke-width: 0.8"/>
      </g>
     </g>
     <g id="text_28">
      <!-- $\mathdefault{0.3}$ -->
      <g transform="translate(194.265548 228.885169) scale(0.08 -0.08)">
       <use xlink:href="#CMR17-30" transform="scale(0.996264)"/>
       <use xlink:href="#CMMI12-3a" transform="translate(45.690477 0) scale(0.996264)"/>
       <use xlink:href="#CMR17-33" transform="translate(72.787654 0) scale(0.996264)"/>
      </g>
     </g>
    </g>
    <g id="xtick_21">
     <g id="line2d_33">
      <g>
       <use xlink:href="#m8c08eeba99" x="230.558311" y="214.250367" style="stroke: #000000; stroke-width: 0.8"/>
      </g>
     </g>
     <g id="text_29">
      <!-- $\mathdefault{0.4}$ -->
      <g transform="translate(225.147966 228.885169) scale(0.08 -0.08)">
       <use xlink:href="#CMR17-30" transform="scale(0.996264)"/>
       <use xlink:href="#CMMI12-3a" transform="translate(45.690477 0) scale(0.996264)"/>
       <use xlink:href="#CMR17-34" transform="translate(72.787654 0) scale(0.996264)"/>
      </g>
     </g>
    </g>
   </g>
   <g id="matplotlib.axis_6">
    <g id="ytick_7">
     <g id="line2d_34">
      <g>
       <use xlink:href="#m293316f6a0" x="42.175562" y="202.639998" style="stroke: #000000; stroke-width: 0.8"/>
      </g>
     </g>
     <g id="text_30">
      <!-- $\mathdefault{−0.005}$ -->
      <g transform="translate(7.2 205.407399) scale(0.08 -0.08)">
       <use xlink:href="#CMSY10-0" transform="scale(0.996264)"/>
       <use xlink:href="#CMR17-30" transform="translate(77.487468 0) scale(0.996264)"/>
       <use xlink:href="#CMMI12-3a" transform="translate(123.177945 0) scale(0.996264)"/>
       <use xlink:href="#CMR17-30" transform="translate(150.275122 0) scale(0.996264)"/>
       <use xlink:href="#CMR17-30" transform="translate(195.965599 0) scale(0.996264)"/>
       <use xlink:href="#CMR17-35" transform="translate(241.656076 0) scale(0.996264)"/>
      </g>
     </g>
    </g>
    <g id="ytick_8">
     <g id="line2d_35">
      <g>
       <use xlink:href="#m293316f6a0" x="42.175562" y="168.082285" style="stroke: #000000; stroke-width: 0.8"/>
      </g>
     </g>
     <g id="text_31">
      <!-- $\mathdefault{0.000}$ -->
      <g transform="translate(13.786507 170.849686) scale(0.08 -0.08)">
       <use xlink:href="#CMR17-30" transform="scale(0.996264)"/>
       <use xlink:href="#CMMI12-3a" transform="translate(45.690477 0) scale(0.996264)"/>
       <use xlink:href="#CMR17-30" transform="translate(72.787654 0) scale(0.996264)"/>
       <use xlink:href="#CMR17-30" transform="translate(118.478131 0) scale(0.996264)"/>
       <use xlink:href="#CMR17-30" transform="translate(164.168608 0) scale(0.996264)"/>
      </g>
     </g>
    </g>
   </g>
   <g id="line2d_36">
    <path d="M 51.440287 200.657686 
L 69.969738 188.106023 
L 88.499189 147.365006 
L 107.028639 141.863682 
L 125.55809 140.821971 
L 144.087541 139.267006 
L 162.616992 139.73659 
L 181.146442 140.877903 
L 199.675893 144.418427 
L 218.205344 155.849928 
L 236.734795 189.32196 
" clip-path="url(#pf076f3ab6d)" style="fill: none; stroke: #1f77b4; stroke-width: 0.5; stroke-linecap: square"/>
    <g clip-path="url(#pf076f3ab6d)">
     <use xlink:href="#mac9f8bef2b" x="51.440287" y="200.657686" style="fill: #1f77b4"/>
     <use xlink:href="#mac9f8bef2b" x="69.969738" y="188.106023" style="fill: #1f77b4"/>
     <use xlink:href="#mac9f8bef2b" x="88.499189" y="147.365006" style="fill: #1f77b4"/>
     <use xlink:href="#mac9f8bef2b" x="107.028639" y="141.863682" style="fill: #1f77b4"/>
     <use xlink:href="#mac9f8bef2b" x="125.55809" y="140.821971" style="fill: #1f77b4"/>
     <use xlink:href="#mac9f8bef2b" x="144.087541" y="139.267006" style="fill: #1f77b4"/>
     <use xlink:href="#mac9f8bef2b" x="162.616992" y="139.73659" style="fill: #1f77b4"/>
     <use xlink:href="#mac9f8bef2b" x="181.146442" y="140.877903" style="fill: #1f77b4"/>
     <use xlink:href="#mac9f8bef2b" x="199.675893" y="144.418427" style="fill: #1f77b4"/>
     <use xlink:href="#mac9f8bef2b" x="218.205344" y="155.849928" style="fill: #1f77b4"/>
     <use xlink:href="#mac9f8bef2b" x="236.734795" y="189.32196" style="fill: #1f77b4"/>
    </g>
   </g>
   <g id="line2d_37">
    <path d="M 51.440287 183.93633 
L 69.969738 150.888518 
L 88.499189 140.756279 
L 107.028639 140.818053 
L 125.55809 140.982999 
L 144.087541 139.280336 
L 162.616992 138.950113 
L 181.146442 143.00262 
L 199.675893 156.018478 
L 218.205344 187.291016 
L 236.734795 210.664641 
" clip-path="url(#pf076f3ab6d)" style="fill: none; stroke: #ff7f0e; stroke-width: 0.5; stroke-linecap: square"/>
    <g clip-path="url(#pf076f3ab6d)">
     <use xlink:href="#mb29f19bb9d" x="51.440287" y="183.93633" style="fill: #ff7f0e"/>
     <use xlink:href="#mb29f19bb9d" x="69.969738" y="150.888518" style="fill: #ff7f0e"/>
     <use xlink:href="#mb29f19bb9d" x="88.499189" y="140.756279" style="fill: #ff7f0e"/>
     <use xlink:href="#mb29f19bb9d" x="107.028639" y="140.818053" style="fill: #ff7f0e"/>
     <use xlink:href="#mb29f19bb9d" x="125.55809" y="140.982999" style="fill: #ff7f0e"/>
     <use xlink:href="#mb29f19bb9d" x="144.087541" y="139.280336" style="fill: #ff7f0e"/>
     <use xlink:href="#mb29f19bb9d" x="162.616992" y="138.950113" style="fill: #ff7f0e"/>
     <use xlink:href="#mb29f19bb9d" x="181.146442" y="143.00262" style="fill: #ff7f0e"/>
     <use xlink:href="#mb29f19bb9d" x="199.675893" y="156.018478" style="fill: #ff7f0e"/>
     <use xlink:href="#mb29f19bb9d" x="218.205344" y="187.291016" style="fill: #ff7f0e"/>
     <use xlink:href="#mb29f19bb9d" x="236.734795" y="210.664641" style="fill: #ff7f0e"/>
    </g>
   </g>
   <g id="line2d_38">
    <path d="M 51.440287 153.239259 
L 69.969738 142.294472 
L 88.499189 140.711146 
L 107.028639 140.792251 
L 125.55809 140.87476 
L 144.087541 141.459848 
L 162.616992 142.754326 
L 181.146442 144.881226 
L 199.675893 151.559468 
L 218.205344 163.83433 
L 236.734795 168.060038 
" clip-path="url(#pf076f3ab6d)" style="fill: none; stroke: #2ca02c; stroke-width: 0.5; stroke-linecap: square"/>
    <g clip-path="url(#pf076f3ab6d)">
     <use xlink:href="#m921e66b4dd" x="51.440287" y="153.239259" style="fill: #2ca02c"/>
     <use xlink:href="#m921e66b4dd" x="69.969738" y="142.294472" style="fill: #2ca02c"/>
     <use xlink:href="#m921e66b4dd" x="88.499189" y="140.711146" style="fill: #2ca02c"/>
     <use xlink:href="#m921e66b4dd" x="107.028639" y="140.792251" style="fill: #2ca02c"/>
     <use xlink:href="#m921e66b4dd" x="125.55809" y="140.87476" style="fill: #2ca02c"/>
     <use xlink:href="#m921e66b4dd" x="144.087541" y="141.459848" style="fill: #2ca02c"/>
     <use xlink:href="#m921e66b4dd" x="162.616992" y="142.754326" style="fill: #2ca02c"/>
     <use xlink:href="#m921e66b4dd" x="181.146442" y="144.881226" style="fill: #2ca02c"/>
     <use xlink:href="#m921e66b4dd" x="199.675893" y="151.559468" style="fill: #2ca02c"/>
     <use xlink:href="#m921e66b4dd" x="218.205344" y="163.83433" style="fill: #2ca02c"/>
     <use xlink:href="#m921e66b4dd" x="236.734795" y="168.060038" style="fill: #2ca02c"/>
    </g>
   </g>
   <g id="patch_13">
    <path d="M 42.175562 214.250367 
L 42.175562 135.364387 
" style="fill: none; stroke: #000000; stroke-width: 0.8; stroke-linejoin: miter; stroke-linecap: square"/>
   </g>
   <g id="patch_14">
    <path d="M 245.99952 214.250367 
L 245.99952 135.364387 
" style="fill: none; stroke: #000000; stroke-width: 0.8; stroke-linejoin: miter; stroke-linecap: square"/>
   </g>
   <g id="patch_15">
    <path d="M 42.175562 214.250367 
L 245.99952 214.250367 
" style="fill: none; stroke: #000000; stroke-width: 0.8; stroke-linejoin: miter; stroke-linecap: square"/>
   </g>
   <g id="patch_16">
    <path d="M 42.175562 135.364387 
L 245.99952 135.364387 
" style="fill: none; stroke: #000000; stroke-width: 0.8; stroke-linejoin: miter; stroke-linecap: square"/>
   </g>
   <g id="text_32">
    <!-- $\bar{P}_{\mathrm{sys}}$ -->
    <g transform="translate(135.640367 129.364387) scale(0.1 -0.1)">
     <defs>
      <path id="CMR17-73" d="M 1978 2697 
C 1978 2813 1971 2819 1933 2819 
C 1907 2819 1901 2813 1824 2717 
C 1805 2691 1747 2626 1728 2601 
C 1523 2819 1235 2819 1126 2819 
C 416 2819 160 2447 160 2076 
C 160 1498 813 1365 998 1325 
C 1402 1243 1542 1217 1677 1101 
C 1760 1025 1901 884 1901 654 
C 1901 384 1747 38 1158 38 
C 602 38 403 460 288 1021 
C 269 1110 269 1117 218 1117 
C 166 1117 160 1110 160 983 
L 160 63 
C 160 -51 166 -58 205 -58 
C 237 -58 243 -51 275 0 
C 314 57 410 211 448 276 
C 576 103 800 -64 1158 -64 
C 1792 -64 2131 283 2131 784 
C 2131 1112 1958 1285 1875 1362 
C 1683 1561 1459 1606 1190 1657 
C 838 1735 390 1825 390 2217 
C 390 2383 480 2737 1126 2737 
C 1811 2737 1850 2094 1862 1888 
C 1869 1856 1901 1849 1920 1849 
C 1978 1849 1978 1869 1978 1978 
L 1978 2697 
z
" transform="scale(0.015625)"/>
      <path id="CMR17-79" d="M 2496 2197 
C 2656 2586 2944 2586 3034 2586 
L 3034 2752 
C 2912 2752 2752 2752 2630 2752 
C 2496 2752 2285 2752 2157 2758 
L 2157 2592 
C 2400 2573 2406 2394 2406 2343 
C 2406 2280 2394 2248 2362 2171 
L 1664 449 
L 902 2306 
C 870 2382 870 2426 870 2433 
C 870 2573 1018 2586 1171 2586 
L 1171 2758 
C 1018 2752 742 2752 582 2752 
C 410 2752 205 2752 64 2758 
L 64 2586 
C 410 2586 448 2554 531 2350 
L 1485 15 
C 1197 -738 1030 -1178 627 -1178 
C 557 -1178 397 -1159 282 -1044 
C 429 -1031 493 -942 493 -833 
C 493 -725 416 -629 288 -629 
C 147 -629 77 -725 77 -840 
C 77 -1095 339 -1280 627 -1280 
C 998 -1280 1229 -922 1357 -604 
L 2496 2197 
z
" transform="scale(0.015625)"/>
     </defs>
     <use xlink:href="#CMR17-16" transform="translate(23.496833 25.189733) scale(0.996264)"/>
     <use xlink:href="#CMMI12-50" transform="scale(0.996264)"/>
     <use xlink:href="#CMR17-73" transform="translate(62.877232 -14.943915) scale(0.697382)"/>
     <use xlink:href="#CMR17-79" transform="translate(87.938055 -14.943915) scale(0.697382)"/>
     <use xlink:href="#CMR17-73" transform="translate(121.742942 -14.943915) scale(0.697382)"/>
    </g>
   </g>
  </g>
  <g id="axes_4">
   <g id="patch_17">
    <path d="M 286.975562 214.250367 
L 490.79952 214.250367 
L 490.79952 135.364387 
L 286.975562 135.364387 
z
" style="fill: #ffffff"/>
   </g>
   <g id="matplotlib.axis_7">
    <g id="xtick_22">
     <g id="line2d_39">
      <g>
       <use xlink:href="#m8c08eeba99" x="290.063804" y="214.250367" style="stroke: #000000; stroke-width: 0.8"/>
      </g>
     </g>
     <g id="text_33">
      <!-- $\mathdefault{−0.2}$ -->
      <g transform="translate(281.360206 228.885169) scale(0.08 -0.08)">
       <use xlink:href="#CMSY10-0" transform="scale(0.996264)"/>
       <use xlink:href="#CMR17-30" transform="translate(77.487468 0) scale(0.996264)"/>
       <use xlink:href="#CMMI12-3a" transform="translate(123.177945 0) scale(0.996264)"/>
       <use xlink:href="#CMR17-32" transform="translate(150.275122 0) scale(0.996264)"/>
      </g>
     </g>
    </g>
    <g id="xtick_23">
     <g id="line2d_40">
      <g>
       <use xlink:href="#m8c08eeba99" x="320.946222" y="214.250367" style="stroke: #000000; stroke-width: 0.8"/>
      </g>
     </g>
     <g id="text_34">
      <!-- $\mathdefault{−0.1}$ -->
      <g transform="translate(312.242623 228.885169) scale(0.08 -0.08)">
       <use xlink:href="#CMSY10-0" transform="scale(0.996264)"/>
       <use xlink:href="#CMR17-30" transform="translate(77.487468 0) scale(0.996264)"/>
       <use xlink:href="#CMMI12-3a" transform="translate(123.177945 0) scale(0.996264)"/>
       <use xlink:href="#CMR17-31" transform="translate(150.275122 0) scale(0.996264)"/>
      </g>
     </g>
    </g>
    <g id="xtick_24">
     <g id="line2d_41">
      <g>
       <use xlink:href="#m8c08eeba99" x="351.828639" y="214.250367" style="stroke: #000000; stroke-width: 0.8"/>
      </g>
     </g>
     <g id="text_35">
      <!-- $\mathdefault{0.0}$ -->
      <g transform="translate(346.418295 228.885169) scale(0.08 -0.08)">
       <use xlink:href="#CMR17-30" transform="scale(0.996264)"/>
       <use xlink:href="#CMMI12-3a" transform="translate(45.690477 0) scale(0.996264)"/>
       <use xlink:href="#CMR17-30" transform="translate(72.787654 0) scale(0.996264)"/>
      </g>
     </g>
    </g>
    <g id="xtick_25">
     <g id="line2d_42">
      <g>
       <use xlink:href="#m8c08eeba99" x="382.711057" y="214.250367" style="stroke: #000000; stroke-width: 0.8"/>
      </g>
     </g>
     <g id="text_36">
      <!-- $\mathdefault{0.1}$ -->
      <g transform="translate(377.300713 228.885169) scale(0.08 -0.08)">
       <use xlink:href="#CMR17-30" transform="scale(0.996264)"/>
       <use xlink:href="#CMMI12-3a" transform="translate(45.690477 0) scale(0.996264)"/>
       <use xlink:href="#CMR17-31" transform="translate(72.787654 0) scale(0.996264)"/>
      </g>
     </g>
    </g>
    <g id="xtick_26">
     <g id="line2d_43">
      <g>
       <use xlink:href="#m8c08eeba99" x="413.593475" y="214.250367" style="stroke: #000000; stroke-width: 0.8"/>
      </g>
     </g>
     <g id="text_37">
      <!-- $\mathdefault{0.2}$ -->
      <g transform="translate(408.18313 228.885169) scale(0.08 -0.08)">
       <use xlink:href="#CMR17-30" transform="scale(0.996264)"/>
       <use xlink:href="#CMMI12-3a" transform="translate(45.690477 0) scale(0.996264)"/>
       <use xlink:href="#CMR17-32" transform="translate(72.787654 0) scale(0.996264)"/>
      </g>
     </g>
    </g>
    <g id="xtick_27">
     <g id="line2d_44">
      <g>
       <use xlink:href="#m8c08eeba99" x="444.475893" y="214.250367" style="stroke: #000000; stroke-width: 0.8"/>
      </g>
     </g>
     <g id="text_38">
      <!-- $\mathdefault{0.3}$ -->
      <g transform="translate(439.065548 228.885169) scale(0.08 -0.08)">
       <use xlink:href="#CMR17-30" transform="scale(0.996264)"/>
       <use xlink:href="#CMMI12-3a" transform="translate(45.690477 0) scale(0.996264)"/>
       <use xlink:href="#CMR17-33" transform="translate(72.787654 0) scale(0.996264)"/>
      </g>
     </g>
    </g>
    <g id="xtick_28">
     <g id="line2d_45">
      <g>
       <use xlink:href="#m8c08eeba99" x="475.358311" y="214.250367" style="stroke: #000000; stroke-width: 0.8"/>
      </g>
     </g>
     <g id="text_39">
      <!-- $\mathdefault{0.4}$ -->
      <g transform="translate(469.947966 228.885169) scale(0.08 -0.08)">
       <use xlink:href="#CMR17-30" transform="scale(0.996264)"/>
       <use xlink:href="#CMMI12-3a" transform="translate(45.690477 0) scale(0.996264)"/>
       <use xlink:href="#CMR17-34" transform="translate(72.787654 0) scale(0.996264)"/>
      </g>
     </g>
    </g>
   </g>
   <g id="matplotlib.axis_8">
    <g id="ytick_9">
     <g id="line2d_46">
      <g>
       <use xlink:href="#m293316f6a0" x="286.975562" y="208.459392" style="stroke: #000000; stroke-width: 0.8"/>
      </g>
     </g>
     <g id="text_40">
      <!-- $\mathdefault{−0.002}$ -->
      <g transform="translate(252 211.226792) scale(0.08 -0.08)">
       <use xlink:href="#CMSY10-0" transform="scale(0.996264)"/>
       <use xlink:href="#CMR17-30" transform="translate(77.487468 0) scale(0.996264)"/>
       <use xlink:href="#CMMI12-3a" transform="translate(123.177945 0) scale(0.996264)"/>
       <use xlink:href="#CMR17-30" transform="translate(150.275122 0) scale(0.996264)"/>
       <use xlink:href="#CMR17-30" transform="translate(195.965599 0) scale(0.996264)"/>
       <use xlink:href="#CMR17-32" transform="translate(241.656076 0) scale(0.996264)"/>
      </g>
     </g>
    </g>
    <g id="ytick_10">
     <g id="line2d_47">
      <g>
       <use xlink:href="#m293316f6a0" x="286.975562" y="187.804719" style="stroke: #000000; stroke-width: 0.8"/>
      </g>
     </g>
     <g id="text_41">
      <!-- $\mathdefault{−0.001}$ -->
      <g transform="translate(252 190.57212) scale(0.08 -0.08)">
       <use xlink:href="#CMSY10-0" transform="scale(0.996264)"/>
       <use xlink:href="#CMR17-30" transform="translate(77.487468 0) scale(0.996264)"/>
       <use xlink:href="#CMMI12-3a" transform="translate(123.177945 0) scale(0.996264)"/>
       <use xlink:href="#CMR17-30" transform="translate(150.275122 0) scale(0.996264)"/>
       <use xlink:href="#CMR17-30" transform="translate(195.965599 0) scale(0.996264)"/>
       <use xlink:href="#CMR17-31" transform="translate(241.656076 0) scale(0.996264)"/>
      </g>
     </g>
    </g>
    <g id="ytick_11">
     <g id="line2d_48">
      <g>
       <use xlink:href="#m293316f6a0" x="286.975562" y="167.150046" style="stroke: #000000; stroke-width: 0.8"/>
      </g>
     </g>
     <g id="text_42">
      <!-- $\mathdefault{0.000}$ -->
      <g transform="translate(258.586507 169.917447) scale(0.08 -0.08)">
       <use xlink:href="#CMR17-30" transform="scale(0.996264)"/>
       <use xlink:href="#CMMI12-3a" transform="translate(45.690477 0) scale(0.996264)"/>
       <use xlink:href="#CMR17-30" transform="translate(72.787654 0) scale(0.996264)"/>
       <use xlink:href="#CMR17-30" transform="translate(118.478131 0) scale(0.996264)"/>
       <use xlink:href="#CMR17-30" transform="translate(164.168608 0) scale(0.996264)"/>
      </g>
     </g>
    </g>
    <g id="ytick_12">
     <g id="line2d_49">
      <g>
       <use xlink:href="#m293316f6a0" x="286.975562" y="146.495373" style="stroke: #000000; stroke-width: 0.8"/>
      </g>
     </g>
     <g id="text_43">
      <!-- $\mathdefault{0.001}$ -->
      <g transform="translate(258.586507 149.262774) scale(0.08 -0.08)">
       <use xlink:href="#CMR17-30" transform="scale(0.996264)"/>
       <use xlink:href="#CMMI12-3a" transform="translate(45.690477 0) scale(0.996264)"/>
       <use xlink:href="#CMR17-30" transform="translate(72.787654 0) scale(0.996264)"/>
       <use xlink:href="#CMR17-30" transform="translate(118.478131 0) scale(0.996264)"/>
       <use xlink:href="#CMR17-31" transform="translate(164.168608 0) scale(0.996264)"/>
      </g>
     </g>
    </g>
   </g>
   <g id="line2d_50">
    <path d="M 296.240287 210.166313 
L 314.769738 210.664641 
L 333.299189 200.188776 
L 351.828639 194.937672 
L 370.35809 190.058156 
L 388.887541 171.293722 
L 407.416992 167.096418 
L 425.946442 167.257505 
L 444.475893 165.571218 
L 463.005344 167.494484 
L 481.534795 167.167762 
" clip-path="url(#p849aa1cf2f)" style="fill: none; stroke: #1f77b4; stroke-width: 0.5; stroke-linecap: square"/>
    <g clip-path="url(#p849aa1cf2f)">
     <use xlink:href="#mac9f8bef2b" x="296.240287" y="210.166313" style="fill: #1f77b4"/>
     <use xlink:href="#mac9f8bef2b" x="314.769738" y="210.664641" style="fill: #1f77b4"/>
     <use xlink:href="#mac9f8bef2b" x="333.299189" y="200.188776" style="fill: #1f77b4"/>
     <use xlink:href="#mac9f8bef2b" x="351.828639" y="194.937672" style="fill: #1f77b4"/>
     <use xlink:href="#mac9f8bef2b" x="370.35809" y="190.058156" style="fill: #1f77b4"/>
     <use xlink:href="#mac9f8bef2b" x="388.887541" y="171.293722" style="fill: #1f77b4"/>
     <use xlink:href="#mac9f8bef2b" x="407.416992" y="167.096418" style="fill: #1f77b4"/>
     <use xlink:href="#mac9f8bef2b" x="425.946442" y="167.257505" style="fill: #1f77b4"/>
     <use xlink:href="#mac9f8bef2b" x="444.475893" y="165.571218" style="fill: #1f77b4"/>
     <use xlink:href="#mac9f8bef2b" x="463.005344" y="167.494484" style="fill: #1f77b4"/>
     <use xlink:href="#mac9f8bef2b" x="481.534795" y="167.167762" style="fill: #1f77b4"/>
    </g>
   </g>
   <g id="line2d_51">
    <path d="M 296.240287 182.451669 
L 314.769738 173.320394 
L 333.299189 168.075644 
L 351.828639 167.771067 
L 370.35809 166.479363 
L 388.887541 161.533535 
L 407.416992 149.284226 
L 425.946442 144.818393 
L 444.475893 144.292608 
L 463.005344 146.798355 
L 481.534795 159.935624 
" clip-path="url(#p849aa1cf2f)" style="fill: none; stroke: #ff7f0e; stroke-width: 0.5; stroke-linecap: square"/>
    <g clip-path="url(#p849aa1cf2f)">
     <use xlink:href="#mb29f19bb9d" x="296.240287" y="182.451669" style="fill: #ff7f0e"/>
     <use xlink:href="#mb29f19bb9d" x="314.769738" y="173.320394" style="fill: #ff7f0e"/>
     <use xlink:href="#mb29f19bb9d" x="333.299189" y="168.075644" style="fill: #ff7f0e"/>
     <use xlink:href="#mb29f19bb9d" x="351.828639" y="167.771067" style="fill: #ff7f0e"/>
     <use xlink:href="#mb29f19bb9d" x="370.35809" y="166.479363" style="fill: #ff7f0e"/>
     <use xlink:href="#mb29f19bb9d" x="388.887541" y="161.533535" style="fill: #ff7f0e"/>
     <use xlink:href="#mb29f19bb9d" x="407.416992" y="149.284226" style="fill: #ff7f0e"/>
     <use xlink:href="#mb29f19bb9d" x="425.946442" y="144.818393" style="fill: #ff7f0e"/>
     <use xlink:href="#mb29f19bb9d" x="444.475893" y="144.292608" style="fill: #ff7f0e"/>
     <use xlink:href="#mb29f19bb9d" x="463.005344" y="146.798355" style="fill: #ff7f0e"/>
     <use xlink:href="#mb29f19bb9d" x="481.534795" y="159.935624" style="fill: #ff7f0e"/>
    </g>
   </g>
   <g id="line2d_52">
    <path d="M 296.240287 177.80044 
L 314.769738 172.22908 
L 333.299189 167.577692 
L 351.828639 167.712153 
L 370.35809 166.858927 
L 388.887541 155.851733 
L 407.416992 139.936811 
L 425.946442 138.950113 
L 444.475893 139.483898 
L 463.005344 147.249571 
L 481.534795 166.094797 
" clip-path="url(#p849aa1cf2f)" style="fill: none; stroke: #2ca02c; stroke-width: 0.5; stroke-linecap: square"/>
    <g clip-path="url(#p849aa1cf2f)">
     <use xlink:href="#m921e66b4dd" x="296.240287" y="177.80044" style="fill: #2ca02c"/>
     <use xlink:href="#m921e66b4dd" x="314.769738" y="172.22908" style="fill: #2ca02c"/>
     <use xlink:href="#m921e66b4dd" x="333.299189" y="167.577692" style="fill: #2ca02c"/>
     <use xlink:href="#m921e66b4dd" x="351.828639" y="167.712153" style="fill: #2ca02c"/>
     <use xlink:href="#m921e66b4dd" x="370.35809" y="166.858927" style="fill: #2ca02c"/>
     <use xlink:href="#m921e66b4dd" x="388.887541" y="155.851733" style="fill: #2ca02c"/>
     <use xlink:href="#m921e66b4dd" x="407.416992" y="139.936811" style="fill: #2ca02c"/>
     <use xlink:href="#m921e66b4dd" x="425.946442" y="138.950113" style="fill: #2ca02c"/>
     <use xlink:href="#m921e66b4dd" x="444.475893" y="139.483898" style="fill: #2ca02c"/>
     <use xlink:href="#m921e66b4dd" x="463.005344" y="147.249571" style="fill: #2ca02c"/>
     <use xlink:href="#m921e66b4dd" x="481.534795" y="166.094797" style="fill: #2ca02c"/>
    </g>
   </g>
   <g id="patch_18">
    <path d="M 286.975562 214.250367 
L 286.975562 135.364387 
" style="fill: none; stroke: #000000; stroke-width: 0.8; stroke-linejoin: miter; stroke-linecap: square"/>
   </g>
   <g id="patch_19">
    <path d="M 490.79952 214.250367 
L 490.79952 135.364387 
" style="fill: none; stroke: #000000; stroke-width: 0.8; stroke-linejoin: miter; stroke-linecap: square"/>
   </g>
   <g id="patch_20">
    <path d="M 286.975562 214.250367 
L 490.79952 214.250367 
" style="fill: none; stroke: #000000; stroke-width: 0.8; stroke-linejoin: miter; stroke-linecap: square"/>
   </g>
   <g id="patch_21">
    <path d="M 286.975562 135.364387 
L 490.79952 135.364387 
" style="fill: none; stroke: #000000; stroke-width: 0.8; stroke-linejoin: miter; stroke-linecap: square"/>
   </g>
   <g id="text_44">
    <!-- $\bar{P}_{\mathrm{int}}$ -->
    <g transform="translate(380.912222 129.364387) scale(0.1 -0.1)">
     <defs>
      <path id="CMR17-69" d="M 992 3909 
C 992 4049 877 4170 730 4170 
C 589 4170 467 4056 467 3909 
C 467 3769 582 3648 730 3648 
C 870 3648 992 3763 992 3909 
z
M 243 2706 
L 243 2541 
C 602 2541 653 2502 653 2197 
L 653 427 
C 653 184 627 153 218 153 
L 218 -13 
C 371 0 646 0 806 0 
C 960 0 1222 0 1370 -13 
L 1370 153 
C 992 153 979 191 979 420 
L 979 2776 
L 243 2706 
z
" transform="scale(0.015625)"/>
      <path id="CMR17-6e" d="M 2656 1933 
C 2656 2259 2592 2790 1837 2790 
C 1331 2790 1069 2400 973 2144 
L 966 2144 
L 966 2790 
L 211 2720 
L 211 2554 
C 589 2554 646 2515 646 2208 
L 646 428 
C 646 184 621 153 211 153 
L 211 -13 
C 365 0 646 0 813 0 
C 979 0 1267 0 1421 -13 
L 1421 153 
C 1011 153 986 178 986 428 
L 986 1658 
C 986 2247 1344 2688 1792 2688 
C 2266 2688 2317 2266 2317 1958 
L 2317 428 
C 2317 184 2291 153 1882 153 
L 1882 -13 
C 2035 0 2317 0 2483 0 
C 2650 0 2938 0 3091 -13 
L 3091 153 
C 2682 153 2656 178 2656 428 
L 2656 1933 
z
" transform="scale(0.015625)"/>
      <path id="CMR17-74" d="M 966 2560 
L 1862 2560 
L 1862 2725 
L 966 2725 
L 966 3904 
L 851 3904 
C 838 3245 614 2668 70 2668 
L 70 2560 
L 627 2560 
L 627 771 
C 627 650 627 -64 1370 -64 
C 1747 -64 1965 306 1965 777 
L 1965 1140 
L 1850 1140 
L 1850 783 
C 1850 344 1677 51 1408 51 
C 1222 51 966 178 966 758 
L 966 2560 
z
" transform="scale(0.015625)"/>
     </defs>
     <use xlink:href="#CMR17-16" transform="translate(23.496833 25.189733) scale(0.996264)"/>
     <use xlink:href="#CMMI12-50" transform="scale(0.996264)"/>
     <use xlink:href="#CMR17-69" transform="translate(62.877232 -14.943915) scale(0.697382)"/>
     <use xlink:href="#CMR17-6e" transform="translate(80.286891 -14.943915) scale(0.697382)"/>
     <use xlink:href="#CMR17-74" transform="translate(114.091779 -14.943915) scale(0.697382)"/>
    </g>
   </g>
  </g>
  <g id="text_45">
   <!-- Shift $\delta$ -->
   <g transform="translate(233.607446 243.907375) scale(0.108 -0.108)">
    <defs>
     <path id="CMR17-53" d="M 2803 4290 
C 2803 4404 2797 4411 2758 4411 
C 2720 4411 2707 4385 2682 4328 
L 2490 3907 
C 2246 4257 1875 4416 1472 4416 
C 819 4416 294 3901 294 3253 
C 294 3056 339 2776 557 2510 
C 794 2218 1018 2167 1530 2033 
C 1722 1982 2042 1899 2106 1874 
C 2470 1722 2662 1341 2662 985 
C 2662 527 2336 38 1779 38 
C 1094 38 454 419 410 1311 
C 403 1413 397 1419 352 1419 
C 301 1419 294 1413 294 1285 
L 294 -1 
C 294 -115 301 -122 339 -122 
C 384 -122 397 -90 486 108 
C 493 127 493 140 614 381 
C 934 -39 1472 -128 1779 -128 
C 2477 -128 2970 451 2970 1124 
C 2970 1454 2848 1708 2778 1823 
C 2509 2230 2221 2306 1914 2382 
C 1869 2402 1856 2402 1498 2490 
C 1152 2579 1005 2624 845 2796 
C 666 2992 602 3196 602 3399 
C 602 3812 934 4263 1478 4263 
C 2157 4263 2579 3786 2675 2993 
C 2694 2878 2701 2872 2746 2872 
C 2803 2872 2803 2891 2803 2999 
L 2803 4290 
z
" transform="scale(0.015625)"/>
     <path id="CMR17-68" d="M 2656 1933 
C 2656 2259 2592 2790 1837 2790 
C 1312 2790 1056 2368 979 2157 
L 973 2157 
L 973 4396 
L 211 4326 
L 211 4160 
C 589 4160 646 4122 646 3817 
L 646 426 
C 646 184 621 153 211 153 
L 211 -13 
C 365 0 646 0 813 0 
C 979 0 1267 0 1421 -13 
L 1421 153 
C 1011 153 986 178 986 428 
L 986 1658 
C 986 2247 1344 2688 1792 2688 
C 2266 2688 2317 2266 2317 1958 
L 2317 428 
C 2317 184 2291 153 1882 153 
L 1882 -13 
C 2035 0 2317 0 2483 0 
C 2650 0 2938 0 3091 -13 
L 3091 153 
C 2682 153 2656 178 2656 428 
L 2656 1933 
z
" transform="scale(0.015625)"/>
     <path id="CMR17-66" d="M 979 2560 
L 1709 2560 
L 1709 2725 
L 966 2725 
L 966 3494 
C 966 4022 1235 4352 1510 4352 
C 1594 4352 1690 4327 1754 4282 
C 1702 4269 1568 4225 1568 4067 
C 1568 3901 1696 3850 1786 3850 
C 1875 3850 2003 3901 2003 4067 
C 2003 4308 1773 4454 1517 4454 
C 1152 4454 653 4156 653 3481 
L 653 2725 
L 141 2725 
L 141 2560 
L 653 2560 
L 653 427 
C 653 184 627 153 218 153 
L 218 -13 
C 371 0 666 0 832 0 
C 1018 0 1344 0 1517 -13 
L 1517 153 
C 1056 153 979 153 979 439 
L 979 2560 
z
" transform="scale(0.015625)"/>
     <path id="CMMI12-e" d="M 1664 2795 
C 845 2597 256 1748 256 1001 
C 256 319 717 -64 1229 -64 
C 1984 -64 2496 970 2496 1818 
C 2496 2392 2227 2744 2067 2954 
C 1830 3254 1446 3746 1446 4052 
C 1446 4161 1530 4352 1811 4352 
C 2010 4352 2131 4282 2323 4173 
C 2381 4134 2528 4052 2611 4052 
C 2746 4052 2842 4185 2842 4287 
C 2842 4409 2746 4428 2522 4479 
C 2221 4543 2131 4543 2022 4543 
C 1914 4543 1286 4543 1286 3892 
C 1286 3579 1446 3216 1664 2795 
z
M 1734 2669 
C 1978 2165 2074 1974 2074 1560 
C 2074 1063 1805 63 1235 63 
C 986 63 627 229 627 821 
C 627 1235 864 2439 1734 2669 
z
" transform="scale(0.015625)"/>
    </defs>
    <use xlink:href="#CMR17-53" transform="scale(0.996264)"/>
    <use xlink:href="#CMR17-68" transform="translate(50.89537 0) scale(0.996264)"/>
    <use xlink:href="#CMR17-69" transform="translate(101.79074 0) scale(0.996264)"/>
    <use xlink:href="#CMR17-66" transform="translate(126.661798 0) scale(0.996264)"/>
    <use xlink:href="#CMR17-74" transform="translate(154.13531 0) scale(0.996264)"/>
    <use xlink:href="#CMMI12-e" transform="translate(219.492045 0) scale(0.996264)"/>
   </g>
  </g>
  <g id="legend_1">
   <g id="patch_22">
    <path d="M 68.754607 268.97976 
L 429.244913 268.97976 
Q 431.044913 268.97976 431.044913 267.17976 
L 431.044913 255.536298 
Q 431.044913 253.736298 429.244913 253.736298 
L 68.754607 253.736298 
Q 66.954607 253.736298 66.954607 255.536298 
L 66.954607 267.17976 
Q 66.954607 268.97976 68.754607 268.97976 
z
" style="fill: #ffffff; opacity: 0.8; stroke: #cccccc; stroke-width: 0.24; stroke-linejoin: miter"/>
   </g>
   <g id="line2d_53">
    <path d="M 70.554607 260.486298 
L 79.554607 260.486298 
L 88.554607 260.486298 
" style="fill: none; stroke: #1f77b4; stroke-width: 0.5; stroke-linecap: square"/>
    <g>
     <use xlink:href="#mac9f8bef2b" x="79.554607" y="260.486298" style="fill: #1f77b4"/>
    </g>
   </g>
   <g id="text_46">
    <!-- shifted -->
    <g transform="translate(95.754607 263.636298) scale(0.09 -0.09)">
     <defs>
      <path id="CMR17-65" d="M 2438 1472 
C 2464 1498 2464 1511 2464 1576 
C 2464 2238 2118 2816 1389 2816 
C 710 2816 173 2169 173 1383 
C 173 551 781 -64 1459 -64 
C 2176 -64 2458 607 2458 740 
C 2458 784 2419 784 2406 784 
C 2362 784 2355 771 2330 696 
C 2189 265 1837 51 1504 51 
C 1229 51 954 203 781 480 
C 582 803 582 1176 582 1472 
L 2438 1472 
z
M 589 1568 
C 634 2505 1126 2714 1382 2714 
C 1818 2714 2112 2297 2118 1568 
L 589 1568 
z
" transform="scale(0.015625)"/>
      <path id="CMR17-64" d="M 1869 4326 
L 1869 4160 
C 2246 4160 2304 4122 2304 3820 
L 2304 2345 
C 2278 2377 2016 2790 1498 2790 
C 845 2790 211 2208 211 1364 
C 211 525 806 -64 1434 -64 
C 1978 -64 2259 337 2291 380 
L 2291 -63 
L 3066 -63 
L 3066 128 
C 2688 128 2630 166 2630 473 
L 2630 4396 
L 1869 4326 
z
M 2291 755 
C 2291 563 2176 390 2029 262 
C 1811 70 1594 38 1472 38 
C 1286 38 621 134 621 1356 
C 621 2612 1363 2688 1530 2688 
C 1824 2688 2061 2522 2208 2291 
C 2291 2157 2291 2138 2291 2023 
L 2291 755 
z
" transform="scale(0.015625)"/>
     </defs>
     <use xlink:href="#CMR17-73" transform="scale(0.996264)"/>
     <use xlink:href="#CMR17-68" transform="translate(35.801338 0) scale(0.996264)"/>
     <use xlink:href="#CMR17-69" transform="translate(86.696707 0) scale(0.996264)"/>
     <use xlink:href="#CMR17-66" transform="translate(111.567766 0) scale(0.996264)"/>
     <use xlink:href="#CMR17-74" transform="translate(139.041278 0) scale(0.996264)"/>
     <use xlink:href="#CMR17-65" transform="translate(174.322046 0) scale(0.996264)"/>
     <use xlink:href="#CMR17-64" transform="translate(214.807707 0) scale(0.996264)"/>
    </g>
   </g>
   <g id="line2d_54">
    <path d="M 140.687453 260.486298 
L 149.687453 260.486298 
L 158.687453 260.486298 
" style="fill: none; stroke: #ff7f0e; stroke-width: 0.5; stroke-linecap: square"/>
    <g>
     <use xlink:href="#mb29f19bb9d" x="149.687453" y="260.486298" style="fill: #ff7f0e"/>
    </g>
   </g>
   <g id="text_47">
    <!-- shifted + slower modulation -->
    <g transform="translate(165.887453 263.636298) scale(0.09 -0.09)">
     <defs>
      <path id="CMR17-2b" d="M 2413 1472 
L 4109 1472 
C 4198 1472 4307 1472 4307 1580 
C 4307 1695 4205 1695 4109 1695 
L 2413 1695 
L 2413 3386 
C 2413 3475 2413 3584 2304 3584 
C 2189 3584 2189 3482 2189 3386 
L 2189 1695 
L 493 1695 
C 403 1695 294 1695 294 1587 
C 294 1472 397 1472 493 1472 
L 2189 1472 
L 2189 -218 
C 2189 -307 2189 -416 2298 -416 
C 2413 -416 2413 -314 2413 -218 
L 2413 1472 
z
" transform="scale(0.015625)"/>
      <path id="CMR17-6c" d="M 979 4396 
L 218 4326 
L 218 4160 
C 595 4160 653 4122 653 3817 
L 653 426 
C 653 184 627 153 218 153 
L 218 -13 
C 371 0 653 0 813 0 
C 979 0 1261 0 1414 -13 
L 1414 153 
C 1005 153 979 178 979 426 
L 979 4396 
z
" transform="scale(0.015625)"/>
      <path id="CMR17-6f" d="M 2758 1356 
C 2758 2176 2163 2816 1466 2816 
C 768 2816 173 2176 173 1356 
C 173 551 768 -64 1466 -64 
C 2163 -64 2758 551 2758 1356 
z
M 1466 51 
C 1165 51 909 230 762 480 
C 602 767 582 1126 582 1408 
C 582 1677 595 2010 762 2298 
C 890 2509 1139 2714 1466 2714 
C 1754 2714 1997 2554 2150 2330 
C 2349 2029 2349 1607 2349 1408 
C 2349 1158 2336 775 2163 467 
C 1984 173 1709 51 1466 51 
z
" transform="scale(0.015625)"/>
      <path id="CMR17-77" d="M 3725 2183 
C 3853 2560 4109 2560 4205 2560 
L 4205 2732 
C 4077 2732 3949 2732 3821 2732 
C 3699 2732 3424 2732 3315 2738 
L 3315 2560 
C 3514 2560 3622 2445 3622 2286 
C 3622 2241 3610 2184 3597 2140 
L 2995 407 
L 2342 2275 
C 2330 2319 2310 2370 2310 2395 
C 2310 2560 2528 2560 2630 2560 
L 2630 2738 
C 2483 2732 2214 2732 2061 2732 
C 1901 2732 1734 2732 1587 2738 
L 1587 2560 
C 1939 2560 1939 2547 2074 2149 
L 1485 451 
L 851 2281 
C 819 2363 819 2376 819 2395 
C 819 2560 1037 2560 1139 2560 
L 1139 2738 
C 986 2732 717 2732 557 2732 
C 416 2732 198 2732 64 2738 
L 64 2560 
C 346 2560 416 2541 486 2331 
L 1274 49 
C 1299 -33 1318 -52 1370 -52 
C 1414 -52 1440 -39 1472 56 
L 2131 1980 
L 2797 56 
C 2829 -39 2854 -52 2899 -52 
C 2950 -52 2970 -33 2995 50 
L 3725 2183 
z
" transform="scale(0.015625)"/>
      <path id="CMR17-72" d="M 960 1497 
C 960 2112 1222 2688 1702 2688 
C 1747 2688 1792 2682 1837 2662 
C 1837 2662 1696 2617 1696 2452 
C 1696 2298 1818 2234 1914 2234 
C 1990 2234 2131 2279 2131 2458 
C 2131 2663 1926 2790 1709 2790 
C 1222 2790 1011 2317 947 2093 
L 941 2093 
L 941 2790 
L 198 2720 
L 198 2554 
C 576 2554 634 2515 634 2208 
L 634 428 
C 634 184 608 153 198 153 
L 198 -13 
C 352 0 646 0 813 0 
C 998 0 1325 0 1498 -13 
L 1498 153 
C 1037 153 960 153 960 440 
L 960 1497 
z
" transform="scale(0.015625)"/>
      <path id="CMR17-6d" d="M 4326 1933 
C 4326 2252 4269 2790 3507 2790 
C 3072 2790 2771 2496 2656 2151 
L 2650 2151 
C 2573 2676 2195 2790 1837 2790 
C 1331 2790 1069 2400 973 2144 
L 966 2144 
L 966 2790 
L 211 2720 
L 211 2554 
C 589 2554 646 2515 646 2208 
L 646 428 
C 646 184 621 153 211 153 
L 211 -13 
C 365 0 646 0 813 0 
C 979 0 1267 0 1421 -13 
L 1421 153 
C 1011 153 986 178 986 428 
L 986 1658 
C 986 2247 1344 2688 1792 2688 
C 2266 2688 2317 2266 2317 1958 
L 2317 428 
C 2317 184 2291 153 1882 153 
L 1882 -13 
C 2035 0 2317 0 2483 0 
C 2650 0 2938 0 3091 -13 
L 3091 153 
C 2682 153 2656 178 2656 428 
L 2656 1658 
C 2656 2247 3014 2688 3462 2688 
C 3936 2688 3987 2266 3987 1958 
L 3987 428 
C 3987 184 3962 153 3552 153 
L 3552 -13 
C 3706 0 3987 0 4154 0 
C 4320 0 4608 0 4762 -13 
L 4762 153 
C 4352 153 4326 178 4326 428 
L 4326 1933 
z
" transform="scale(0.015625)"/>
      <path id="CMR17-75" d="M 1882 2693 
L 1882 2528 
C 2259 2528 2317 2489 2317 2186 
L 2317 1032 
C 2317 500 2029 38 1555 38 
C 1030 38 986 348 986 678 
L 986 2763 
L 211 2693 
L 211 2528 
C 467 2528 640 2528 646 2274 
L 646 1058 
C 646 633 646 361 813 183 
C 896 101 1056 -64 1517 -64 
C 2061 -64 2272 377 2323 506 
L 2330 506 
L 2330 -63 
L 3091 -63 
L 3091 128 
C 2714 128 2656 166 2656 473 
L 2656 2763 
L 1882 2693 
z
" transform="scale(0.015625)"/>
      <path id="CMR17-61" d="M 2304 1653 
C 2304 2072 2304 2294 2035 2543 
C 1798 2752 1523 2816 1306 2816 
C 800 2816 435 2407 435 1971 
C 435 1728 627 1728 666 1728 
C 749 1728 896 1778 896 1954 
C 896 2112 774 2181 666 2181 
C 640 2181 608 2174 589 2168 
C 723 2592 1069 2714 1293 2714 
C 1613 2714 1965 2429 1965 1885 
L 1965 1600 
C 1587 1600 1133 1549 774 1357 
C 371 1133 256 813 256 570 
C 256 77 832 -64 1171 -64 
C 1523 -64 1850 139 1990 511 
C 2003 233 2182 -18 2464 -18 
C 2598 -18 2938 70 2938 567 
L 2938 920 
L 2822 920 
L 2822 562 
C 2822 178 2650 128 2566 128 
C 2304 128 2304 458 2304 738 
L 2304 1653 
z
M 1965 870 
C 1965 317 1568 38 1216 38 
C 896 38 646 275 646 570 
C 646 761 730 1100 1101 1305 
C 1408 1478 1760 1504 1965 1504 
L 1965 870 
z
" transform="scale(0.015625)"/>
     </defs>
     <use xlink:href="#CMR17-73" transform="scale(0.996264)"/>
     <use xlink:href="#CMR17-68" transform="translate(35.801338 0) scale(0.996264)"/>
     <use xlink:href="#CMR17-69" transform="translate(86.696707 0) scale(0.996264)"/>
     <use xlink:href="#CMR17-66" transform="translate(111.567766 0) scale(0.996264)"/>
     <use xlink:href="#CMR17-74" transform="translate(139.041278 0) scale(0.996264)"/>
     <use xlink:href="#CMR17-65" transform="translate(174.322046 0) scale(0.996264)"/>
     <use xlink:href="#CMR17-64" transform="translate(214.807707 0) scale(0.996264)"/>
     <use xlink:href="#CMR17-2b" transform="translate(295.779043 0) scale(0.996264)"/>
     <use xlink:href="#CMR17-73" transform="translate(397.569797 0) scale(0.996264)"/>
     <use xlink:href="#CMR17-6c" transform="translate(433.371135 0) scale(0.996264)"/>
     <use xlink:href="#CMR17-6f" transform="translate(458.242194 0) scale(0.996264)"/>
     <use xlink:href="#CMR17-77" transform="translate(501.330217 0) scale(0.996264)"/>
     <use xlink:href="#CMR17-65" transform="translate(565.237643 0) scale(0.996264)"/>
     <use xlink:href="#CMR17-72" transform="translate(605.723304 0) scale(0.996264)"/>
     <use xlink:href="#CMR17-6d" transform="translate(671.080038 0) scale(0.996264)"/>
     <use xlink:href="#CMR17-6f" transform="translate(747.999628 0) scale(0.996264)"/>
     <use xlink:href="#CMR17-64" transform="translate(796.292544 0) scale(0.996264)"/>
     <use xlink:href="#CMR17-75" transform="translate(847.187913 0) scale(0.996264)"/>
     <use xlink:href="#CMR17-6c" transform="translate(898.083283 0) scale(0.996264)"/>
     <use xlink:href="#CMR17-61" transform="translate(922.954342 0) scale(0.996264)"/>
     <use xlink:href="#CMR17-74" transform="translate(968.644819 0) scale(0.996264)"/>
     <use xlink:href="#CMR17-69" transform="translate(1003.925587 0) scale(0.996264)"/>
     <use xlink:href="#CMR17-6f" transform="translate(1028.796645 0) scale(0.996264)"/>
     <use xlink:href="#CMR17-6e" transform="translate(1074.487122 0) scale(0.996264)"/>
    </g>
   </g>
   <g id="line2d_55">
    <path d="M 297.673874 260.486298 
L 306.673874 260.486298 
L 315.673874 260.486298 
" style="fill: none; stroke: #2ca02c; stroke-width: 0.5; stroke-linecap: square"/>
    <g>
     <use xlink:href="#m921e66b4dd" x="306.673874" y="260.486298" style="fill: #2ca02c"/>
    </g>
   </g>
   <g id="text_48">
    <!-- slower + only cold shifted -->
    <g transform="translate(322.873874 263.636298) scale(0.09 -0.09)">
     <defs>
      <path id="CMR17-63" d="M 2234 2240 
C 2112 2240 1933 2240 1933 2017 
C 1933 1838 2080 1787 2163 1787 
C 2208 1787 2394 1807 2394 2024 
C 2394 2467 1958 2803 1466 2803 
C 787 2803 211 2178 211 1363 
C 211 516 813 -64 1466 -64 
C 2259 -64 2458 677 2458 748 
C 2458 774 2451 793 2406 793 
C 2362 793 2355 787 2330 703 
C 2163 180 1798 51 1523 51 
C 1114 51 621 427 621 1369 
C 621 2338 1094 2688 1472 2688 
C 1722 2688 2093 2573 2234 2240 
z
" transform="scale(0.015625)"/>
     </defs>
     <use xlink:href="#CMR17-73" transform="scale(0.996264)"/>
     <use xlink:href="#CMR17-6c" transform="translate(35.801338 0) scale(0.996264)"/>
     <use xlink:href="#CMR17-6f" transform="translate(60.672396 0) scale(0.996264)"/>
     <use xlink:href="#CMR17-77" transform="translate(103.760419 0) scale(0.996264)"/>
     <use xlink:href="#CMR17-65" transform="translate(167.667846 0) scale(0.996264)"/>
     <use xlink:href="#CMR17-72" transform="translate(208.153506 0) scale(0.996264)"/>
     <use xlink:href="#CMR17-2b" transform="translate(273.510241 0) scale(0.996264)"/>
     <use xlink:href="#CMR17-6f" transform="translate(375.300995 0) scale(0.996264)"/>
     <use xlink:href="#CMR17-6e" transform="translate(420.991472 0) scale(0.996264)"/>
     <use xlink:href="#CMR17-6c" transform="translate(471.886842 0) scale(0.996264)"/>
     <use xlink:href="#CMR17-79" transform="translate(496.757901 0) scale(0.996264)"/>
     <use xlink:href="#CMR17-63" transform="translate(575.126783 0) scale(0.996264)"/>
     <use xlink:href="#CMR17-6f" transform="translate(615.612443 0) scale(0.996264)"/>
     <use xlink:href="#CMR17-6c" transform="translate(661.30292 0) scale(0.996264)"/>
     <use xlink:href="#CMR17-64" transform="translate(686.173979 0) scale(0.996264)"/>
     <use xlink:href="#CMR17-73" transform="translate(767.145315 0) scale(0.996264)"/>
     <use xlink:href="#CMR17-68" transform="translate(802.946653 0) scale(0.996264)"/>
     <use xlink:href="#CMR17-69" transform="translate(853.842022 0) scale(0.996264)"/>
     <use xlink:href="#CMR17-66" transform="translate(878.713081 0) scale(0.996264)"/>
     <use xlink:href="#CMR17-74" transform="translate(906.186593 0) scale(0.996264)"/>
     <use xlink:href="#CMR17-65" transform="translate(941.467361 0) scale(0.996264)"/>
     <use xlink:href="#CMR17-64" transform="translate(981.953022 0) scale(0.996264)"/>
    </g>
   </g>
  </g>
 </g>
 <defs>
  <clipPath id="pd4b8a81e20">
   <rect x="42.175562" y="20.118498" width="203.823958" height="78.885981"/>
  </clipPath>
  <clipPath id="p63b85d3864">
   <rect x="286.975562" y="20.118498" width="203.823958" height="78.885981"/>
  </clipPath>
  <clipPath id="pf076f3ab6d">
   <rect x="42.175562" y="135.364387" width="203.823958" height="78.885981"/>
  </clipPath>
  <clipPath id="p849aa1cf2f">
   <rect x="286.975562" y="135.364387" width="203.823958" height="78.885981"/>
  </clipPath>
 </defs>
</svg>
