<?xml version="1.0" encoding="utf-8" standalone="no"?>
<!DOCTYPE svg PUBLIC "-//W3C//DTD SVG 1.1//EN"
  "http://www.w3.org/Graphics/SVG/1.1/DTD/svg11.dtd">
<svg xmlns:xlink="http://www.w3.org/1999/xlink" width="253.19952pt" height="179.75952pt" viewBox="0 0 253.19952 179.75952" xmlns="http://www.w3.org/2000/svg" version="1.1">
 <metadata>
  <rdf:RDF xmlns:dc="http://purl.org/dc/elements/1.1/" xmlns:cc="http://creativecommons.org/ns#" xmlns:rdf="http://www.w3.org/1999/02/22-rdf-syntax-ns#">
   <cc:Work>
    <dc:type rdf:resource="http://purl.org/dc/dcmitype/StillImage"/>
    <dc:date>1980-01-01T00:00:00+00:00</dc:date>
    <dc:format>image/svg+xml</dc:format>
    <dc:creator>
     <cc:Agent>
      <dc:title>Matplotlib v3.6.2, https://matplotlib.org/</dc:title>
     </cc:Agent>
    </dc:creator>
   </cc:Work>
  </rdf:RDF>
 </metadata>
 <defs>
  <style type="text/css">*{stroke-linejoin: round; stroke-linecap: butt}</style>
 </defs>
 <g id="figure_1">
  <g id="patch_1">
   <path d="M 0 179.75952 
L 253.19952 179.75952 
L 253.19952 0 
L 0 0 
z
" style="fill: #ffffff"/>
  </g>
  <g id="axes_1">
   <g id="patch_2">
    <path d="M 55.031239 143.519296 
L 215.575478 143.519296 
L 215.575478 7.2 
L 55.031239 7.2 
z
" style="fill: #ffffff"/>
   </g>
   <g id="matplotlib.axis_1">
    <g id="xtick_1">
     <g id="line2d_1">
      <defs>
       <path id="mc58b89cd03" d="M 0 0 
L 0 3.5 
" style="stroke: #000000; stroke-width: 0.8"/>
      </defs>
      <g>
       <use xlink:href="#mc58b89cd03" x="57.463727" y="143.519296" style="stroke: #000000; stroke-width: 0.8"/>
      </g>
     </g>
     <g id="text_1">
      <!-- $\mathdefault{−20}$ -->
      <g transform="translate(49.936291 158.154098) scale(0.08 -0.08)">
       <defs>
        <path id="CMSY10-0" d="M 4218 1472 
C 4326 1472 4442 1472 4442 1600 
C 4442 1728 4326 1728 4218 1728 
L 755 1728 
C 646 1728 531 1728 531 1600 
C 531 1472 646 1472 755 1472 
L 4218 1472 
z
" transform="scale(0.015625)"/>
        <path id="CMR17-32" d="M 2669 989 
L 2554 989 
C 2490 536 2438 459 2413 420 
C 2381 369 1920 369 1830 369 
L 602 369 
C 832 619 1280 1072 1824 1597 
C 2214 1967 2669 2402 2669 3035 
C 2669 3790 2067 4224 1395 4224 
C 691 4224 262 3604 262 3030 
C 262 2780 448 2748 525 2748 
C 589 2748 781 2787 781 3010 
C 781 3207 614 3264 525 3264 
C 486 3264 448 3258 422 3245 
C 544 3790 915 4058 1306 4058 
C 1862 4058 2227 3617 2227 3035 
C 2227 2479 1901 2000 1536 1584 
L 262 146 
L 262 0 
L 2515 0 
L 2669 989 
z
" transform="scale(0.015625)"/>
        <path id="CMR17-30" d="M 2688 2025 
C 2688 2416 2682 3080 2413 3591 
C 2176 4039 1798 4198 1466 4198 
C 1158 4198 768 4058 525 3597 
C 269 3118 243 2524 243 2025 
C 243 1661 250 1106 448 619 
C 723 -39 1216 -128 1466 -128 
C 1760 -128 2208 -7 2470 600 
C 2662 1042 2688 1559 2688 2025 
z
M 1466 -26 
C 1056 -26 813 325 723 812 
C 653 1188 653 1738 653 2096 
C 653 2588 653 2997 736 3387 
C 858 3929 1216 4096 1466 4096 
C 1728 4096 2067 3923 2189 3400 
C 2272 3036 2278 2607 2278 2096 
C 2278 1680 2278 1169 2202 792 
C 2067 95 1690 -26 1466 -26 
z
" transform="scale(0.015625)"/>
       </defs>
       <use xlink:href="#CMSY10-0" transform="scale(0.996264)"/>
       <use xlink:href="#CMR17-32" transform="translate(77.487468 0) scale(0.996264)"/>
       <use xlink:href="#CMR17-30" transform="translate(123.177945 0) scale(0.996264)"/>
      </g>
     </g>
    </g>
    <g id="xtick_2">
     <g id="line2d_2">
      <g>
       <use xlink:href="#mc58b89cd03" x="106.113496" y="143.519296" style="stroke: #000000; stroke-width: 0.8"/>
      </g>
     </g>
     <g id="text_2">
      <!-- $\mathdefault{0}$ -->
      <g transform="translate(103.996405 158.154098) scale(0.08 -0.08)">
       <use xlink:href="#CMR17-30" transform="scale(0.996264)"/>
      </g>
     </g>
    </g>
    <g id="xtick_3">
     <g id="line2d_3">
      <g>
       <use xlink:href="#mc58b89cd03" x="154.763266" y="143.519296" style="stroke: #000000; stroke-width: 0.8"/>
      </g>
     </g>
     <g id="text_3">
      <!-- $\mathdefault{20}$ -->
      <g transform="translate(150.529083 158.154098) scale(0.08 -0.08)">
       <use xlink:href="#CMR17-32" transform="scale(0.996264)"/>
       <use xlink:href="#CMR17-30" transform="translate(45.690477 0) scale(0.996264)"/>
      </g>
     </g>
    </g>
    <g id="xtick_4">
     <g id="line2d_4">
      <g>
       <use xlink:href="#mc58b89cd03" x="203.413035" y="143.519296" style="stroke: #000000; stroke-width: 0.8"/>
      </g>
     </g>
     <g id="text_4">
      <!-- $\mathdefault{40}$ -->
      <g transform="translate(199.178852 158.154098) scale(0.08 -0.08)">
       <defs>
        <path id="CMR17-34" d="M 2150 4122 
C 2150 4256 2144 4256 2029 4256 
L 128 1254 
L 128 1088 
L 1779 1088 
L 1779 457 
C 1779 224 1766 160 1318 160 
L 1197 160 
L 1197 0 
C 1402 0 1747 0 1965 0 
C 2182 0 2528 0 2733 0 
L 2733 160 
L 2611 160 
C 2163 160 2150 224 2150 457 
L 2150 1088 
L 2803 1088 
L 2803 1254 
L 2150 1254 
L 2150 4122 
z
M 1798 3703 
L 1798 1254 
L 256 1254 
L 1798 3703 
z
" transform="scale(0.015625)"/>
       </defs>
       <use xlink:href="#CMR17-34" transform="scale(0.996264)"/>
       <use xlink:href="#CMR17-30" transform="translate(45.690477 0) scale(0.996264)"/>
      </g>
     </g>
    </g>
    <g id="text_5">
     <!-- Cycle Shift -->
     <g transform="translate(111.226927 170.622342) scale(0.1 -0.1)">
      <defs>
       <path id="CMR17-43" d="M 3974 4289 
C 3974 4403 3968 4410 3930 4410 
C 3904 4410 3898 4403 3853 4327 
L 3571 3792 
C 3258 4187 2874 4416 2381 4416 
C 1286 4416 294 3456 294 2148 
C 294 826 1286 -128 2387 -128 
C 3366 -128 3974 730 3974 1461 
C 3974 1524 3974 1550 3917 1550 
C 3866 1550 3866 1531 3859 1474 
C 3808 585 3168 38 2477 38 
C 1824 38 781 495 781 2147 
C 781 3805 1843 4250 2464 4250 
C 3187 4250 3712 3628 3834 2745 
C 3846 2668 3846 2655 3904 2655 
C 3974 2655 3974 2668 3974 2783 
L 3974 4289 
z
" transform="scale(0.015625)"/>
       <path id="CMR17-79" d="M 2496 2197 
C 2656 2586 2944 2586 3034 2586 
L 3034 2752 
C 2912 2752 2752 2752 2630 2752 
C 2496 2752 2285 2752 2157 2758 
L 2157 2592 
C 2400 2573 2406 2394 2406 2343 
C 2406 2280 2394 2248 2362 2171 
L 1664 449 
L 902 2306 
C 870 2382 870 2426 870 2433 
C 870 2573 1018 2586 1171 2586 
L 1171 2758 
C 1018 2752 742 2752 582 2752 
C 410 2752 205 2752 64 2758 
L 64 2586 
C 410 2586 448 2554 531 2350 
L 1485 15 
C 1197 -738 1030 -1178 627 -1178 
C 557 -1178 397 -1159 282 -1044 
C 429 -1031 493 -942 493 -833 
C 493 -725 416 -629 288 -629 
C 147 -629 77 -725 77 -840 
C 77 -1095 339 -1280 627 -1280 
C 998 -1280 1229 -922 1357 -604 
L 2496 2197 
z
" transform="scale(0.015625)"/>
       <path id="CMR17-63" d="M 2234 2240 
C 2112 2240 1933 2240 1933 2017 
C 1933 1838 2080 1787 2163 1787 
C 2208 1787 2394 1807 2394 2024 
C 2394 2467 1958 2803 1466 2803 
C 787 2803 211 2178 211 1363 
C 211 516 813 -64 1466 -64 
C 2259 -64 2458 677 2458 748 
C 2458 774 2451 793 2406 793 
C 2362 793 2355 787 2330 703 
C 2163 180 1798 51 1523 51 
C 1114 51 621 427 621 1369 
C 621 2338 1094 2688 1472 2688 
C 1722 2688 2093 2573 2234 2240 
z
" transform="scale(0.015625)"/>
       <path id="CMR17-6c" d="M 979 4396 
L 218 4326 
L 218 4160 
C 595 4160 653 4122 653 3817 
L 653 426 
C 653 184 627 153 218 153 
L 218 -13 
C 371 0 653 0 813 0 
C 979 0 1261 0 1414 -13 
L 1414 153 
C 1005 153 979 178 979 426 
L 979 4396 
z
" transform="scale(0.015625)"/>
       <path id="CMR17-65" d="M 2438 1472 
C 2464 1498 2464 1511 2464 1576 
C 2464 2238 2118 2816 1389 2816 
C 710 2816 173 2169 173 1383 
C 173 551 781 -64 1459 -64 
C 2176 -64 2458 607 2458 740 
C 2458 784 2419 784 2406 784 
C 2362 784 2355 771 2330 696 
C 2189 265 1837 51 1504 51 
C 1229 51 954 203 781 480 
C 582 803 582 1176 582 1472 
L 2438 1472 
z
M 589 1568 
C 634 2505 1126 2714 1382 2714 
C 1818 2714 2112 2297 2118 1568 
L 589 1568 
z
" transform="scale(0.015625)"/>
       <path id="CMR17-53" d="M 2803 4290 
C 2803 4404 2797 4411 2758 4411 
C 2720 4411 2707 4385 2682 4328 
L 2490 3907 
C 2246 4257 1875 4416 1472 4416 
C 819 4416 294 3901 294 3253 
C 294 3056 339 2776 557 2510 
C 794 2218 1018 2167 1530 2033 
C 1722 1982 2042 1899 2106 1874 
C 2470 1722 2662 1341 2662 985 
C 2662 527 2336 38 1779 38 
C 1094 38 454 419 410 1311 
C 403 1413 397 1419 352 1419 
C 301 1419 294 1413 294 1285 
L 294 -1 
C 294 -115 301 -122 339 -122 
C 384 -122 397 -90 486 108 
C 493 127 493 140 614 381 
C 934 -39 1472 -128 1779 -128 
C 2477 -128 2970 451 2970 1124 
C 2970 1454 2848 1708 2778 1823 
C 2509 2230 2221 2306 1914 2382 
C 1869 2402 1856 2402 1498 2490 
C 1152 2579 1005 2624 845 2796 
C 666 2992 602 3196 602 3399 
C 602 3812 934 4263 1478 4263 
C 2157 4263 2579 3786 2675 2993 
C 2694 2878 2701 2872 2746 2872 
C 2803 2872 2803 2891 2803 2999 
L 2803 4290 
z
" transform="scale(0.015625)"/>
       <path id="CMR17-68" d="M 2656 1933 
C 2656 2259 2592 2790 1837 2790 
C 1312 2790 1056 2368 979 2157 
L 973 2157 
L 973 4396 
L 211 4326 
L 211 4160 
C 589 4160 646 4122 646 3817 
L 646 426 
C 646 184 621 153 211 153 
L 211 -13 
C 365 0 646 0 813 0 
C 979 0 1267 0 1421 -13 
L 1421 153 
C 1011 153 986 178 986 428 
L 986 1658 
C 986 2247 1344 2688 1792 2688 
C 2266 2688 2317 2266 2317 1958 
L 2317 428 
C 2317 184 2291 153 1882 153 
L 1882 -13 
C 2035 0 2317 0 2483 0 
C 2650 0 2938 0 3091 -13 
L 3091 153 
C 2682 153 2656 178 2656 428 
L 2656 1933 
z
" transform="scale(0.015625)"/>
       <path id="CMR17-69" d="M 992 3909 
C 992 4049 877 4170 730 4170 
C 589 4170 467 4056 467 3909 
C 467 3769 582 3648 730 3648 
C 870 3648 992 3763 992 3909 
z
M 243 2706 
L 243 2541 
C 602 2541 653 2502 653 2197 
L 653 427 
C 653 184 627 153 218 153 
L 218 -13 
C 371 0 646 0 806 0 
C 960 0 1222 0 1370 -13 
L 1370 153 
C 992 153 979 191 979 420 
L 979 2776 
L 243 2706 
z
" transform="scale(0.015625)"/>
       <path id="CMR17-66" d="M 979 2560 
L 1709 2560 
L 1709 2725 
L 966 2725 
L 966 3494 
C 966 4022 1235 4352 1510 4352 
C 1594 4352 1690 4327 1754 4282 
C 1702 4269 1568 4225 1568 4067 
C 1568 3901 1696 3850 1786 3850 
C 1875 3850 2003 3901 2003 4067 
C 2003 4308 1773 4454 1517 4454 
C 1152 4454 653 4156 653 3481 
L 653 2725 
L 141 2725 
L 141 2560 
L 653 2560 
L 653 427 
C 653 184 627 153 218 153 
L 218 -13 
C 371 0 666 0 832 0 
C 1018 0 1344 0 1517 -13 
L 1517 153 
C 1056 153 979 153 979 439 
L 979 2560 
z
" transform="scale(0.015625)"/>
       <path id="CMR17-74" d="M 966 2560 
L 1862 2560 
L 1862 2725 
L 966 2725 
L 966 3904 
L 851 3904 
C 838 3245 614 2668 70 2668 
L 70 2560 
L 627 2560 
L 627 771 
C 627 650 627 -64 1370 -64 
C 1747 -64 1965 306 1965 777 
L 1965 1140 
L 1850 1140 
L 1850 783 
C 1850 344 1677 51 1408 51 
C 1222 51 966 178 966 758 
L 966 2560 
z
" transform="scale(0.015625)"/>
      </defs>
      <use xlink:href="#CMR17-43" transform="scale(0.996264)"/>
      <use xlink:href="#CMR17-79" transform="translate(66.509881 0) scale(0.996264)"/>
      <use xlink:href="#CMR17-63" transform="translate(114.802796 0) scale(0.996264)"/>
      <use xlink:href="#CMR17-6c" transform="translate(155.288457 0) scale(0.996264)"/>
      <use xlink:href="#CMR17-65" transform="translate(180.159515 0) scale(0.996264)"/>
      <use xlink:href="#CMR17-53" transform="translate(250.721142 0) scale(0.996264)"/>
      <use xlink:href="#CMR17-68" transform="translate(301.616512 0) scale(0.996264)"/>
      <use xlink:href="#CMR17-69" transform="translate(352.511882 0) scale(0.996264)"/>
      <use xlink:href="#CMR17-66" transform="translate(377.38294 0) scale(0.996264)"/>
      <use xlink:href="#CMR17-74" transform="translate(404.856453 0) scale(0.996264)"/>
     </g>
    </g>
   </g>
   <g id="matplotlib.axis_2">
    <g id="ytick_1">
     <g id="line2d_5">
      <defs>
       <path id="m12ace9ebd5" d="M 0 0 
L -3.5 0 
" style="stroke: #000000; stroke-width: 0.8"/>
      </defs>
      <g>
       <use xlink:href="#m12ace9ebd5" x="55.031239" y="128.338979" style="stroke: #000000; stroke-width: 0.8"/>
      </g>
     </g>
     <g id="text_6">
      <!-- $\mathdefault{−0.006}$ -->
      <g transform="translate(20.055677 131.10638) scale(0.08 -0.08)">
       <defs>
        <path id="CMMI12-3a" d="M 1178 307 
C 1178 492 1024 619 870 619 
C 685 619 557 466 557 313 
C 557 128 710 0 864 0 
C 1050 0 1178 153 1178 307 
z
" transform="scale(0.015625)"/>
        <path id="CMR17-36" d="M 678 2176 
C 678 3690 1395 4032 1811 4032 
C 1946 4032 2272 4009 2400 3776 
C 2298 3776 2106 3776 2106 3553 
C 2106 3381 2246 3323 2336 3323 
C 2394 3323 2566 3348 2566 3560 
C 2566 3954 2246 4179 1805 4179 
C 1043 4179 243 3390 243 1984 
C 243 253 966 -128 1478 -128 
C 2099 -128 2688 427 2688 1283 
C 2688 2081 2170 2662 1517 2662 
C 1126 2662 838 2407 678 1960 
L 678 2176 
z
M 1478 25 
C 691 25 691 1200 691 1436 
C 691 1896 909 2560 1504 2560 
C 1613 2560 1926 2560 2138 2120 
C 2253 1870 2253 1609 2253 1289 
C 2253 944 2253 690 2118 434 
C 1978 171 1773 25 1478 25 
z
" transform="scale(0.015625)"/>
       </defs>
       <use xlink:href="#CMSY10-0" transform="scale(0.996264)"/>
       <use xlink:href="#CMR17-30" transform="translate(77.487468 0) scale(0.996264)"/>
       <use xlink:href="#CMMI12-3a" transform="translate(123.177945 0) scale(0.996264)"/>
       <use xlink:href="#CMR17-30" transform="translate(150.275122 0) scale(0.996264)"/>
       <use xlink:href="#CMR17-30" transform="translate(195.965599 0) scale(0.996264)"/>
       <use xlink:href="#CMR17-36" transform="translate(241.656076 0) scale(0.996264)"/>
      </g>
     </g>
    </g>
    <g id="ytick_2">
     <g id="line2d_6">
      <g>
       <use xlink:href="#m12ace9ebd5" x="55.031239" y="105.742296" style="stroke: #000000; stroke-width: 0.8"/>
      </g>
     </g>
     <g id="text_7">
      <!-- $\mathdefault{−0.004}$ -->
      <g transform="translate(20.055677 108.509697) scale(0.08 -0.08)">
       <use xlink:href="#CMSY10-0" transform="scale(0.996264)"/>
       <use xlink:href="#CMR17-30" transform="translate(77.487468 0) scale(0.996264)"/>
       <use xlink:href="#CMMI12-3a" transform="translate(123.177945 0) scale(0.996264)"/>
       <use xlink:href="#CMR17-30" transform="translate(150.275122 0) scale(0.996264)"/>
       <use xlink:href="#CMR17-30" transform="translate(195.965599 0) scale(0.996264)"/>
       <use xlink:href="#CMR17-34" transform="translate(241.656076 0) scale(0.996264)"/>
      </g>
     </g>
    </g>
    <g id="ytick_3">
     <g id="line2d_7">
      <g>
       <use xlink:href="#m12ace9ebd5" x="55.031239" y="83.145614" style="stroke: #000000; stroke-width: 0.8"/>
      </g>
     </g>
     <g id="text_8">
      <!-- $\mathdefault{−0.002}$ -->
      <g transform="translate(20.055677 85.913015) scale(0.08 -0.08)">
       <use xlink:href="#CMSY10-0" transform="scale(0.996264)"/>
       <use xlink:href="#CMR17-30" transform="translate(77.487468 0) scale(0.996264)"/>
       <use xlink:href="#CMMI12-3a" transform="translate(123.177945 0) scale(0.996264)"/>
       <use xlink:href="#CMR17-30" transform="translate(150.275122 0) scale(0.996264)"/>
       <use xlink:href="#CMR17-30" transform="translate(195.965599 0) scale(0.996264)"/>
       <use xlink:href="#CMR17-32" transform="translate(241.656076 0) scale(0.996264)"/>
      </g>
     </g>
    </g>
    <g id="ytick_4">
     <g id="line2d_8">
      <g>
       <use xlink:href="#m12ace9ebd5" x="55.031239" y="60.548932" style="stroke: #000000; stroke-width: 0.8"/>
      </g>
     </g>
     <g id="text_9">
      <!-- $\mathdefault{0.000}$ -->
      <g transform="translate(26.642183 63.316333) scale(0.08 -0.08)">
       <use xlink:href="#CMR17-30" transform="scale(0.996264)"/>
       <use xlink:href="#CMMI12-3a" transform="translate(45.690477 0) scale(0.996264)"/>
       <use xlink:href="#CMR17-30" transform="translate(72.787654 0) scale(0.996264)"/>
       <use xlink:href="#CMR17-30" transform="translate(118.478131 0) scale(0.996264)"/>
       <use xlink:href="#CMR17-30" transform="translate(164.168608 0) scale(0.996264)"/>
      </g>
     </g>
    </g>
    <g id="ytick_5">
     <g id="line2d_9">
      <g>
       <use xlink:href="#m12ace9ebd5" x="55.031239" y="37.95225" style="stroke: #000000; stroke-width: 0.8"/>
      </g>
     </g>
     <g id="text_10">
      <!-- $\mathdefault{0.002}$ -->
      <g transform="translate(26.642183 40.719651) scale(0.08 -0.08)">
       <use xlink:href="#CMR17-30" transform="scale(0.996264)"/>
       <use xlink:href="#CMMI12-3a" transform="translate(45.690477 0) scale(0.996264)"/>
       <use xlink:href="#CMR17-30" transform="translate(72.787654 0) scale(0.996264)"/>
       <use xlink:href="#CMR17-30" transform="translate(118.478131 0) scale(0.996264)"/>
       <use xlink:href="#CMR17-32" transform="translate(164.168608 0) scale(0.996264)"/>
      </g>
     </g>
    </g>
    <g id="ytick_6">
     <g id="line2d_10">
      <g>
       <use xlink:href="#m12ace9ebd5" x="55.031239" y="15.355567" style="stroke: #000000; stroke-width: 0.8"/>
      </g>
     </g>
     <g id="text_11">
      <!-- $\mathdefault{0.004}$ -->
      <g transform="translate(26.642183 18.122968) scale(0.08 -0.08)">
       <use xlink:href="#CMR17-30" transform="scale(0.996264)"/>
       <use xlink:href="#CMMI12-3a" transform="translate(45.690477 0) scale(0.996264)"/>
       <use xlink:href="#CMR17-30" transform="translate(72.787654 0) scale(0.996264)"/>
       <use xlink:href="#CMR17-30" transform="translate(118.478131 0) scale(0.996264)"/>
       <use xlink:href="#CMR17-34" transform="translate(164.168608 0) scale(0.996264)"/>
      </g>
     </g>
    </g>
    <g id="text_12">
     <!-- $\bar{P}$ -->
     <g style="fill: #1f77b4" transform="translate(14.118498 78.96507) rotate(-90) scale(0.1 -0.1)">
      <defs>
       <path id="CMR17-16" d="M 2554 3520 
L 2554 3666 
L 378 3666 
L 378 3520 
L 2554 3520 
z
" transform="scale(0.015625)"/>
       <path id="CMMI12-50" d="M 1894 2023 
L 2970 2023 
C 3853 2023 4736 2673 4736 3401 
C 4736 3898 4314 4352 3507 4352 
L 1530 4352 
C 1408 4352 1350 4352 1350 4231 
C 1350 4167 1408 4167 1504 4167 
C 1894 4167 1894 4116 1894 4046 
C 1894 4034 1894 3995 1869 3899 
L 1005 472 
C 947 249 934 185 486 185 
C 365 185 301 185 301 70 
C 301 0 358 0 397 0 
C 518 0 646 0 768 0 
L 1517 0 
C 1638 0 1773 0 1894 0 
C 1946 0 2016 0 2016 121 
C 2016 185 1958 185 1862 185 
C 1478 185 1472 230 1472 293 
C 1472 325 1478 369 1485 401 
L 1894 2023 
z
M 2355 3930 
C 2413 4167 2438 4167 2688 4167 
L 3322 4167 
C 3802 4167 4198 4013 4198 3535 
C 4198 3369 4115 2827 3821 2534 
C 3712 2419 3405 2176 2822 2176 
L 1920 2176 
L 2355 3930 
z
" transform="scale(0.015625)"/>
      </defs>
      <use xlink:href="#CMR17-16" transform="translate(23.496833 25.189733) scale(0.996264)"/>
      <use xlink:href="#CMMI12-50" transform="scale(0.996264)"/>
     </g>
    </g>
   </g>
   <g id="line2d_11">
    <path d="M 55.031239 60.548932 
L 215.575478 60.548932 
" clip-path="url(#pedc225f191)" style="fill: none; stroke: #d3d3d3; stroke-width: 0.5; stroke-linecap: square"/>
   </g>
   <g id="LineCollection_1">
    <path d="M 62.328704 137.322964 
L 62.328704 137.184825 
" clip-path="url(#pedc225f191)" style="fill: none; stroke: #1f77b4; stroke-width: 0.5"/>
    <path d="M 76.923635 117.084436 
L 76.923635 116.943413 
" clip-path="url(#pedc225f191)" style="fill: none; stroke: #1f77b4; stroke-width: 0.5"/>
    <path d="M 91.518566 44.840053 
L 91.518566 44.701206 
" clip-path="url(#pedc225f191)" style="fill: none; stroke: #1f77b4; stroke-width: 0.5"/>
    <path d="M 106.113496 32.986025 
L 106.113496 32.848402 
" clip-path="url(#pedc225f191)" style="fill: none; stroke: #1f77b4; stroke-width: 0.5"/>
    <path d="M 120.708427 28.618052 
L 120.708427 28.480722 
" clip-path="url(#pedc225f191)" style="fill: none; stroke: #1f77b4; stroke-width: 0.5"/>
    <path d="M 135.303358 15.822899 
L 135.303358 15.688852 
" clip-path="url(#pedc225f191)" style="fill: none; stroke: #1f77b4; stroke-width: 0.5"/>
    <path d="M 149.898289 14.295324 
L 149.898289 14.162798 
" clip-path="url(#pedc225f191)" style="fill: none; stroke: #1f77b4; stroke-width: 0.5"/>
    <path d="M 164.49322 16.24685 
L 164.49322 16.115027 
" clip-path="url(#pedc225f191)" style="fill: none; stroke: #1f77b4; stroke-width: 0.5"/>
    <path d="M 179.088151 21.107216 
L 179.088151 20.975546 
" clip-path="url(#pedc225f191)" style="fill: none; stroke: #1f77b4; stroke-width: 0.5"/>
    <path d="M 193.683081 40.827018 
L 193.683081 40.694727 
" clip-path="url(#pedc225f191)" style="fill: none; stroke: #1f77b4; stroke-width: 0.5"/>
    <path d="M 208.278012 95.251515 
L 208.278012 95.119548 
" clip-path="url(#pedc225f191)" style="fill: none; stroke: #1f77b4; stroke-width: 0.5"/>
   </g>
   <g id="LineCollection_2">
    <path d="M 62.328704 113.849106 
L 62.328704 113.751173 
" clip-path="url(#pedc225f191)" style="fill: none; stroke: #ff7f0e; stroke-width: 0.5"/>
    <path d="M 76.923635 93.335843 
L 76.923635 93.227875 
" clip-path="url(#pedc225f191)" style="fill: none; stroke: #ff7f0e; stroke-width: 0.5"/>
    <path d="M 91.518566 26.730763 
L 91.518566 26.633773 
" clip-path="url(#pedc225f191)" style="fill: none; stroke: #ff7f0e; stroke-width: 0.5"/>
    <path d="M 106.113496 17.735554 
L 106.113496 17.642883 
" clip-path="url(#pedc225f191)" style="fill: none; stroke: #ff7f0e; stroke-width: 0.5"/>
    <path d="M 120.708427 16.03419 
L 120.708427 15.938467 
" clip-path="url(#pedc225f191)" style="fill: none; stroke: #ff7f0e; stroke-width: 0.5"/>
    <path d="M 135.303358 13.492504 
L 135.303358 13.396332 
" clip-path="url(#pedc225f191)" style="fill: none; stroke: #ff7f0e; stroke-width: 0.5"/>
    <path d="M 149.898289 14.260142 
L 149.898289 14.163956 
" clip-path="url(#pedc225f191)" style="fill: none; stroke: #ff7f0e; stroke-width: 0.5"/>
    <path d="M 164.49322 16.125884 
L 164.49322 16.029636 
" clip-path="url(#pedc225f191)" style="fill: none; stroke: #ff7f0e; stroke-width: 0.5"/>
    <path d="M 179.088151 21.913651 
L 179.088151 21.817302 
" clip-path="url(#pedc225f191)" style="fill: none; stroke: #ff7f0e; stroke-width: 0.5"/>
    <path d="M 193.683081 40.600888 
L 193.683081 40.504355 
" clip-path="url(#pedc225f191)" style="fill: none; stroke: #ff7f0e; stroke-width: 0.5"/>
    <path d="M 208.278012 95.312886 
L 208.278012 95.226231 
" clip-path="url(#pedc225f191)" style="fill: none; stroke: #ff7f0e; stroke-width: 0.5"/>
   </g>
   <g id="LineCollection_3">
    <path d="M 62.328704 84.176235 
L 62.328704 83.982404 
" clip-path="url(#pedc225f191)" style="fill: none; stroke: #2ca02c; stroke-width: 0.5"/>
    <path d="M 76.923635 84.448824 
L 76.923635 84.254997 
" clip-path="url(#pedc225f191)" style="fill: none; stroke: #2ca02c; stroke-width: 0.5"/>
    <path d="M 91.518566 78.715387 
L 91.518566 78.5276 
" clip-path="url(#pedc225f191)" style="fill: none; stroke: #2ca02c; stroke-width: 0.5"/>
    <path d="M 106.113496 75.84349 
L 106.113496 75.654669 
" clip-path="url(#pedc225f191)" style="fill: none; stroke: #2ca02c; stroke-width: 0.5"/>
    <path d="M 120.708427 73.176536 
L 120.708427 72.983321 
" clip-path="url(#pedc225f191)" style="fill: none; stroke: #2ca02c; stroke-width: 0.5"/>
    <path d="M 135.303358 62.909618 
L 135.303358 62.721522 
" clip-path="url(#pedc225f191)" style="fill: none; stroke: #2ca02c; stroke-width: 0.5"/>
    <path d="M 149.898289 60.612176 
L 149.898289 60.427018 
" clip-path="url(#pedc225f191)" style="fill: none; stroke: #2ca02c; stroke-width: 0.5"/>
    <path d="M 164.49322 60.699656 
L 164.49322 60.515771 
" clip-path="url(#pedc225f191)" style="fill: none; stroke: #2ca02c; stroke-width: 0.5"/>
    <path d="M 179.088151 59.777089 
L 179.088151 59.593501 
" clip-path="url(#pedc225f191)" style="fill: none; stroke: #2ca02c; stroke-width: 0.5"/>
    <path d="M 193.683081 60.828681 
L 193.683081 60.646006 
" clip-path="url(#pedc225f191)" style="fill: none; stroke: #2ca02c; stroke-width: 0.5"/>
    <path d="M 208.278012 60.648768 
L 208.278012 60.468477 
" clip-path="url(#pedc225f191)" style="fill: none; stroke: #2ca02c; stroke-width: 0.5"/>
   </g>
   <g id="line2d_12">
    <path d="M 62.328704 137.253895 
L 76.923635 117.013925 
L 91.518566 44.77063 
L 106.113496 32.917214 
L 120.708427 28.549387 
L 135.303358 15.755876 
L 149.898289 14.229061 
L 164.49322 16.180938 
L 179.088151 21.041381 
L 193.683081 40.760873 
L 208.278012 95.185532 
" clip-path="url(#pedc225f191)" style="fill: none; stroke: #1f77b4; stroke-width: 0.5; stroke-linecap: square"/>
    <defs>
     <path id="m973994be43" d="M 0 1.4 
C 0.371284 1.4 0.727412 1.252487 0.989949 0.989949 
C 1.252487 0.727412 1.4 0.371284 1.4 0 
C 1.4 -0.371284 1.252487 -0.727412 0.989949 -0.989949 
C 0.727412 -1.252487 0.371284 -1.4 0 -1.4 
C -0.371284 -1.4 -0.727412 -1.252487 -0.989949 -0.989949 
C -1.252487 -0.727412 -1.4 -0.371284 -1.4 0 
C -1.4 0.371284 -1.252487 0.727412 -0.989949 0.989949 
C -0.727412 1.252487 -0.371284 1.4 0 1.4 
z
"/>
    </defs>
    <g clip-path="url(#pedc225f191)">
     <use xlink:href="#m973994be43" x="62.328704" y="137.253895" style="fill: #1f77b4"/>
     <use xlink:href="#m973994be43" x="76.923635" y="117.013925" style="fill: #1f77b4"/>
     <use xlink:href="#m973994be43" x="91.518566" y="44.77063" style="fill: #1f77b4"/>
     <use xlink:href="#m973994be43" x="106.113496" y="32.917214" style="fill: #1f77b4"/>
     <use xlink:href="#m973994be43" x="120.708427" y="28.549387" style="fill: #1f77b4"/>
     <use xlink:href="#m973994be43" x="135.303358" y="15.755876" style="fill: #1f77b4"/>
     <use xlink:href="#m973994be43" x="149.898289" y="14.229061" style="fill: #1f77b4"/>
     <use xlink:href="#m973994be43" x="164.49322" y="16.180938" style="fill: #1f77b4"/>
     <use xlink:href="#m973994be43" x="179.088151" y="21.041381" style="fill: #1f77b4"/>
     <use xlink:href="#m973994be43" x="193.683081" y="40.760873" style="fill: #1f77b4"/>
     <use xlink:href="#m973994be43" x="208.278012" y="95.185532" style="fill: #1f77b4"/>
    </g>
   </g>
   <g id="line2d_13">
    <path d="M 62.328704 113.80014 
L 76.923635 93.281859 
L 91.518566 26.682268 
L 106.113496 17.689219 
L 120.708427 15.986328 
L 135.303358 13.444418 
L 149.898289 14.212049 
L 164.49322 16.07776 
L 179.088151 21.865476 
L 193.683081 40.552622 
L 208.278012 95.269558 
" clip-path="url(#pedc225f191)" style="fill: none; stroke: #ff7f0e; stroke-width: 0.5; stroke-linecap: square"/>
    <defs>
     <path id="m10f4bafff4" d="M 0 1.4 
C 0.371284 1.4 0.727412 1.252487 0.989949 0.989949 
C 1.252487 0.727412 1.4 0.371284 1.4 0 
C 1.4 -0.371284 1.252487 -0.727412 0.989949 -0.989949 
C 0.727412 -1.252487 0.371284 -1.4 0 -1.4 
C -0.371284 -1.4 -0.727412 -1.252487 -0.989949 -0.989949 
C -1.252487 -0.727412 -1.4 -0.371284 -1.4 0 
C -1.4 0.371284 -1.252487 0.727412 -0.989949 0.989949 
C -0.727412 1.252487 -0.371284 1.4 0 1.4 
z
"/>
    </defs>
    <g clip-path="url(#pedc225f191)">
     <use xlink:href="#m10f4bafff4" x="62.328704" y="113.80014" style="fill: #ff7f0e"/>
     <use xlink:href="#m10f4bafff4" x="76.923635" y="93.281859" style="fill: #ff7f0e"/>
     <use xlink:href="#m10f4bafff4" x="91.518566" y="26.682268" style="fill: #ff7f0e"/>
     <use xlink:href="#m10f4bafff4" x="106.113496" y="17.689219" style="fill: #ff7f0e"/>
     <use xlink:href="#m10f4bafff4" x="120.708427" y="15.986328" style="fill: #ff7f0e"/>
     <use xlink:href="#m10f4bafff4" x="135.303358" y="13.444418" style="fill: #ff7f0e"/>
     <use xlink:href="#m10f4bafff4" x="149.898289" y="14.212049" style="fill: #ff7f0e"/>
     <use xlink:href="#m10f4bafff4" x="164.49322" y="16.07776" style="fill: #ff7f0e"/>
     <use xlink:href="#m10f4bafff4" x="179.088151" y="21.865476" style="fill: #ff7f0e"/>
     <use xlink:href="#m10f4bafff4" x="193.683081" y="40.552622" style="fill: #ff7f0e"/>
     <use xlink:href="#m10f4bafff4" x="208.278012" y="95.269558" style="fill: #ff7f0e"/>
    </g>
   </g>
   <g id="line2d_14">
    <path d="M 62.328704 84.07932 
L 76.923635 84.351911 
L 91.518566 78.621494 
L 106.113496 75.74908 
L 120.708427 73.079929 
L 135.303358 62.81557 
L 149.898289 60.519597 
L 164.49322 60.607713 
L 179.088151 59.685295 
L 193.683081 60.737343 
L 208.278012 60.558623 
" clip-path="url(#pedc225f191)" style="fill: none; stroke: #2ca02c; stroke-width: 0.5; stroke-linecap: square"/>
    <defs>
     <path id="ma35de2c15e" d="M 0 1.4 
C 0.371284 1.4 0.727412 1.252487 0.989949 0.989949 
C 1.252487 0.727412 1.4 0.371284 1.4 0 
C 1.4 -0.371284 1.252487 -0.727412 0.989949 -0.989949 
C 0.727412 -1.252487 0.371284 -1.4 0 -1.4 
C -0.371284 -1.4 -0.727412 -1.252487 -0.989949 -0.989949 
C -1.252487 -0.727412 -1.4 -0.371284 -1.4 0 
C -1.4 0.371284 -1.252487 0.727412 -0.989949 0.989949 
C -0.727412 1.252487 -0.371284 1.4 0 1.4 
z
"/>
    </defs>
    <g clip-path="url(#pedc225f191)">
     <use xlink:href="#ma35de2c15e" x="62.328704" y="84.07932" style="fill: #2ca02c"/>
     <use xlink:href="#ma35de2c15e" x="76.923635" y="84.351911" style="fill: #2ca02c"/>
     <use xlink:href="#ma35de2c15e" x="91.518566" y="78.621494" style="fill: #2ca02c"/>
     <use xlink:href="#ma35de2c15e" x="106.113496" y="75.74908" style="fill: #2ca02c"/>
     <use xlink:href="#ma35de2c15e" x="120.708427" y="73.079929" style="fill: #2ca02c"/>
     <use xlink:href="#ma35de2c15e" x="135.303358" y="62.81557" style="fill: #2ca02c"/>
     <use xlink:href="#ma35de2c15e" x="149.898289" y="60.519597" style="fill: #2ca02c"/>
     <use xlink:href="#ma35de2c15e" x="164.49322" y="60.607713" style="fill: #2ca02c"/>
     <use xlink:href="#ma35de2c15e" x="179.088151" y="59.685295" style="fill: #2ca02c"/>
     <use xlink:href="#ma35de2c15e" x="193.683081" y="60.737343" style="fill: #2ca02c"/>
     <use xlink:href="#ma35de2c15e" x="208.278012" y="60.558623" style="fill: #2ca02c"/>
    </g>
   </g>
   <g id="patch_3">
    <path d="M 55.031239 143.519296 
L 55.031239 7.2 
" style="fill: none; stroke: #000000; stroke-width: 0.8; stroke-linejoin: miter; stroke-linecap: square"/>
   </g>
   <g id="patch_4">
    <path d="M 215.575478 143.519296 
L 215.575478 7.2 
" style="fill: none; stroke: #000000; stroke-width: 0.8; stroke-linejoin: miter; stroke-linecap: square"/>
   </g>
   <g id="patch_5">
    <path d="M 55.031239 143.519296 
L 215.575478 143.519296 
" style="fill: none; stroke: #000000; stroke-width: 0.8; stroke-linejoin: miter; stroke-linecap: square"/>
   </g>
   <g id="patch_6">
    <path d="M 55.031239 7.2 
L 215.575478 7.2 
" style="fill: none; stroke: #000000; stroke-width: 0.8; stroke-linejoin: miter; stroke-linecap: square"/>
   </g>
   <g id="legend_1">
    <g id="patch_7">
     <path d="M 164.911437 139.019296 
L 209.275478 139.019296 
Q 211.075478 139.019296 211.075478 137.219296 
L 211.075478 98.654255 
Q 211.075478 96.854255 209.275478 96.854255 
L 164.911437 96.854255 
Q 163.111437 96.854255 163.111437 98.654255 
L 163.111437 137.219296 
Q 163.111437 139.019296 164.911437 139.019296 
z
" style="fill: #ffffff; opacity: 0.8; stroke: #cccccc; stroke-width: 0.24; stroke-linejoin: miter"/>
    </g>
    <g id="LineCollection_4">
     <path d="M 175.711437 108.104255 
L 175.711437 99.104255 
" style="fill: none; stroke: #1f77b4; stroke-width: 0.5"/>
    </g>
    <g id="line2d_15">
     <path d="M 166.711437 103.604255 
L 184.711437 103.604255 
" style="fill: none; stroke: #1f77b4; stroke-width: 0.5; stroke-linecap: square"/>
    </g>
    <g id="line2d_16">
     <g>
      <use xlink:href="#m973994be43" x="175.711437" y="103.604255" style="fill: #1f77b4"/>
     </g>
    </g>
    <g id="text_13">
     <!-- $\bar{P}$ -->
     <g transform="translate(191.911437 106.754255) scale(0.09 -0.09)">
      <use xlink:href="#CMR17-16" transform="translate(23.496833 25.189733) scale(0.996264)"/>
      <use xlink:href="#CMMI12-50" transform="scale(0.996264)"/>
     </g>
    </g>
    <g id="LineCollection_5">
     <path d="M 175.711437 121.731101 
L 175.711437 112.731101 
" style="fill: none; stroke: #ff7f0e; stroke-width: 0.5"/>
    </g>
    <g id="line2d_17">
     <path d="M 166.711437 117.231101 
L 184.711437 117.231101 
" style="fill: none; stroke: #ff7f0e; stroke-width: 0.5; stroke-linecap: square"/>
    </g>
    <g id="line2d_18">
     <g>
      <use xlink:href="#m10f4bafff4" x="175.711437" y="117.231101" style="fill: #ff7f0e"/>
     </g>
    </g>
    <g id="text_14">
     <!-- $\bar{P}_{\mathrm{sys}}$ -->
     <g transform="translate(191.911437 120.381101) scale(0.09 -0.09)">
      <defs>
       <path id="CMR17-73" d="M 1978 2697 
C 1978 2813 1971 2819 1933 2819 
C 1907 2819 1901 2813 1824 2717 
C 1805 2691 1747 2626 1728 2601 
C 1523 2819 1235 2819 1126 2819 
C 416 2819 160 2447 160 2076 
C 160 1498 813 1365 998 1325 
C 1402 1243 1542 1217 1677 1101 
C 1760 1025 1901 884 1901 654 
C 1901 384 1747 38 1158 38 
C 602 38 403 460 288 1021 
C 269 1110 269 1117 218 1117 
C 166 1117 160 1110 160 983 
L 160 63 
C 160 -51 166 -58 205 -58 
C 237 -58 243 -51 275 0 
C 314 57 410 211 448 276 
C 576 103 800 -64 1158 -64 
C 1792 -64 2131 283 2131 784 
C 2131 1112 1958 1285 1875 1362 
C 1683 1561 1459 1606 1190 1657 
C 838 1735 390 1825 390 2217 
C 390 2383 480 2737 1126 2737 
C 1811 2737 1850 2094 1862 1888 
C 1869 1856 1901 1849 1920 1849 
C 1978 1849 1978 1869 1978 1978 
L 1978 2697 
z
" transform="scale(0.015625)"/>
      </defs>
      <use xlink:href="#CMR17-16" transform="translate(23.496833 25.189733) scale(0.996264)"/>
      <use xlink:href="#CMMI12-50" transform="scale(0.996264)"/>
      <use xlink:href="#CMR17-73" transform="translate(62.877232 -14.943915) scale(0.697382)"/>
      <use xlink:href="#CMR17-79" transform="translate(87.938055 -14.943915) scale(0.697382)"/>
      <use xlink:href="#CMR17-73" transform="translate(121.742942 -14.943915) scale(0.697382)"/>
     </g>
    </g>
    <g id="LineCollection_6">
     <path d="M 175.711437 135.025834 
L 175.711437 126.025834 
" style="fill: none; stroke: #2ca02c; stroke-width: 0.5"/>
    </g>
    <g id="line2d_19">
     <path d="M 166.711437 130.525834 
L 184.711437 130.525834 
" style="fill: none; stroke: #2ca02c; stroke-width: 0.5; stroke-linecap: square"/>
    </g>
    <g id="line2d_20">
     <g>
      <use xlink:href="#ma35de2c15e" x="175.711437" y="130.525834" style="fill: #2ca02c"/>
     </g>
    </g>
    <g id="text_15">
     <!-- $\bar{P}_{\mathrm{int}}$ -->
     <g transform="translate(191.911437 133.675834) scale(0.09 -0.09)">
      <defs>
       <path id="CMR17-6e" d="M 2656 1933 
C 2656 2259 2592 2790 1837 2790 
C 1331 2790 1069 2400 973 2144 
L 966 2144 
L 966 2790 
L 211 2720 
L 211 2554 
C 589 2554 646 2515 646 2208 
L 646 428 
C 646 184 621 153 211 153 
L 211 -13 
C 365 0 646 0 813 0 
C 979 0 1267 0 1421 -13 
L 1421 153 
C 1011 153 986 178 986 428 
L 986 1658 
C 986 2247 1344 2688 1792 2688 
C 2266 2688 2317 2266 2317 1958 
L 2317 428 
C 2317 184 2291 153 1882 153 
L 1882 -13 
C 2035 0 2317 0 2483 0 
C 2650 0 2938 0 3091 -13 
L 3091 153 
C 2682 153 2656 178 2656 428 
L 2656 1933 
z
" transform="scale(0.015625)"/>
      </defs>
      <use xlink:href="#CMR17-16" transform="translate(23.496833 25.189733) scale(0.996264)"/>
      <use xlink:href="#CMMI12-50" transform="scale(0.996264)"/>
      <use xlink:href="#CMR17-69" transform="translate(62.877232 -14.943915) scale(0.697382)"/>
      <use xlink:href="#CMR17-6e" transform="translate(80.286891 -14.943915) scale(0.697382)"/>
      <use xlink:href="#CMR17-74" transform="translate(114.091779 -14.943915) scale(0.697382)"/>
     </g>
    </g>
   </g>
  </g>
  <g id="axes_2">
   <g id="matplotlib.axis_3">
    <g id="ytick_7">
     <g id="line2d_21">
      <defs>
       <path id="me015e88399" d="M 0 0 
L 3.5 0 
" style="stroke: #000000; stroke-width: 0.8"/>
      </defs>
      <g>
       <use xlink:href="#me015e88399" x="215.575478" y="129.647366" style="stroke: #000000; stroke-width: 0.8"/>
      </g>
     </g>
     <g id="text_16">
      <!-- $\mathdefault{15}$ -->
      <g transform="translate(224.675478 132.414767) scale(0.08 -0.08)">
       <defs>
        <path id="CMR17-31" d="M 1702 4058 
C 1702 4192 1696 4192 1606 4192 
C 1357 3916 979 3827 621 3827 
C 602 3827 570 3827 563 3808 
C 557 3795 557 3782 557 3648 
C 755 3648 1088 3686 1344 3839 
L 1344 461 
C 1344 236 1331 160 781 160 
L 589 160 
L 589 0 
C 896 0 1216 0 1523 0 
C 1830 0 2150 0 2458 0 
L 2458 160 
L 2266 160 
C 1715 160 1702 230 1702 458 
L 1702 4058 
z
" transform="scale(0.015625)"/>
        <path id="CMR17-35" d="M 730 3692 
C 794 3666 1056 3584 1325 3584 
C 1920 3584 2246 3911 2432 4100 
C 2432 4157 2432 4192 2394 4192 
C 2387 4192 2374 4192 2323 4163 
C 2099 4058 1837 3973 1517 3973 
C 1325 3973 1037 3999 723 4139 
C 653 4171 640 4171 634 4171 
C 602 4171 595 4164 595 4037 
L 595 2203 
C 595 2089 595 2057 659 2057 
C 691 2057 704 2070 736 2114 
C 941 2401 1222 2522 1542 2522 
C 1766 2522 2246 2382 2246 1289 
C 2246 1085 2246 715 2054 421 
C 1894 159 1645 25 1370 25 
C 947 25 518 320 403 814 
C 429 807 480 795 506 795 
C 589 795 749 840 749 1038 
C 749 1210 627 1280 506 1280 
C 358 1280 262 1190 262 1011 
C 262 454 704 -128 1382 -128 
C 2042 -128 2669 440 2669 1264 
C 2669 2030 2170 2624 1549 2624 
C 1222 2624 947 2503 730 2274 
L 730 3692 
z
" transform="scale(0.015625)"/>
       </defs>
       <use xlink:href="#CMR17-31" transform="scale(0.996264)"/>
       <use xlink:href="#CMR17-35" transform="translate(45.690477 0) scale(0.996264)"/>
      </g>
     </g>
    </g>
    <g id="ytick_8">
     <g id="line2d_22">
      <g>
       <use xlink:href="#me015e88399" x="215.575478" y="97.520788" style="stroke: #000000; stroke-width: 0.8"/>
      </g>
     </g>
     <g id="text_17">
      <!-- $\mathdefault{20}$ -->
      <g transform="translate(224.675478 100.288189) scale(0.08 -0.08)">
       <use xlink:href="#CMR17-32" transform="scale(0.996264)"/>
       <use xlink:href="#CMR17-30" transform="translate(45.690477 0) scale(0.996264)"/>
      </g>
     </g>
    </g>
    <g id="ytick_9">
     <g id="line2d_23">
      <g>
       <use xlink:href="#me015e88399" x="215.575478" y="65.394211" style="stroke: #000000; stroke-width: 0.8"/>
      </g>
     </g>
     <g id="text_18">
      <!-- $\mathdefault{25}$ -->
      <g transform="translate(224.675478 68.161612) scale(0.08 -0.08)">
       <use xlink:href="#CMR17-32" transform="scale(0.996264)"/>
       <use xlink:href="#CMR17-35" transform="translate(45.690477 0) scale(0.996264)"/>
      </g>
     </g>
    </g>
    <g id="ytick_10">
     <g id="line2d_24">
      <g>
       <use xlink:href="#me015e88399" x="215.575478" y="33.267633" style="stroke: #000000; stroke-width: 0.8"/>
      </g>
     </g>
     <g id="text_19">
      <!-- $\mathdefault{30}$ -->
      <g transform="translate(224.675478 36.035034) scale(0.08 -0.08)">
       <defs>
        <path id="CMR17-33" d="M 1414 2157 
C 1984 2157 2234 1662 2234 1090 
C 2234 320 1824 25 1453 25 
C 1114 25 563 194 390 693 
C 422 680 454 680 486 680 
C 640 680 755 782 755 948 
C 755 1133 614 1216 486 1216 
C 378 1216 211 1165 211 926 
C 211 335 787 -128 1466 -128 
C 2176 -128 2720 430 2720 1085 
C 2720 1707 2208 2157 1600 2227 
C 2086 2328 2554 2756 2554 3329 
C 2554 3820 2048 4179 1472 4179 
C 890 4179 378 3829 378 3329 
C 378 3110 544 3072 627 3072 
C 762 3072 877 3155 877 3321 
C 877 3486 762 3569 627 3569 
C 602 3569 570 3569 544 3557 
C 730 3959 1235 4032 1459 4032 
C 1683 4032 2106 3925 2106 3320 
C 2106 3143 2080 2828 1862 2550 
C 1670 2304 1453 2304 1242 2284 
C 1210 2284 1062 2269 1037 2269 
C 992 2263 966 2257 966 2208 
C 966 2163 973 2157 1101 2157 
L 1414 2157 
z
" transform="scale(0.015625)"/>
       </defs>
       <use xlink:href="#CMR17-33" transform="scale(0.996264)"/>
       <use xlink:href="#CMR17-30" transform="translate(45.690477 0) scale(0.996264)"/>
      </g>
     </g>
    </g>
    <g id="text_20">
     <!-- $\eta$ -->
     <g style="fill: #9467bd" transform="translate(244.062342 77.833024) rotate(-90) scale(0.1 -0.1)">
      <defs>
       <path id="CMMI12-11" d="M 3040 1768 
C 3072 1895 3091 1973 3091 2145 
C 3091 2528 2867 2815 2381 2815 
C 1811 2815 1510 2413 1395 2254 
C 1376 2618 1114 2815 832 2815 
C 646 2815 499 2726 378 2483 
C 262 2254 173 1864 173 1839 
C 173 1813 198 1781 243 1781 
C 294 1781 301 1788 339 1934 
C 435 2311 557 2688 813 2688 
C 960 2688 1011 2586 1011 2394 
C 1011 2254 947 2005 902 1807 
L 723 1118 
C 698 996 627 709 595 593 
C 550 428 480 127 480 96 
C 480 6 550 -64 646 -64 
C 723 -64 813 -25 864 70 
C 877 102 934 326 966 453 
L 1107 1028 
L 1318 1871 
C 1331 1909 1491 2228 1728 2432 
C 1894 2586 2112 2688 2362 2688 
C 2618 2688 2707 2496 2707 2241 
C 2707 2055 2682 1953 2650 1831 
L 1907 -1107 
C 1901 -1139 1888 -1177 1888 -1216 
C 1888 -1312 1965 -1376 2061 -1376 
C 2118 -1376 2253 -1350 2304 -1158 
L 3040 1768 
z
" transform="scale(0.015625)"/>
      </defs>
      <use xlink:href="#CMMI12-11" transform="scale(0.996264)"/>
     </g>
    </g>
   </g>
   <g id="LineCollection_7">
    <path d="M 91.518566 103.2557 
L 91.518566 100.650749 
" clip-path="url(#pedc225f191)" style="fill: none; stroke: #9467bd; stroke-width: 0.5"/>
    <path d="M 106.113496 34.694598 
L 106.113496 31.562521 
" clip-path="url(#pedc225f191)" style="fill: none; stroke: #9467bd; stroke-width: 0.5"/>
    <path d="M 120.708427 21.843958 
L 120.708427 18.790686 
" clip-path="url(#pedc225f191)" style="fill: none; stroke: #9467bd; stroke-width: 0.5"/>
    <path d="M 135.303358 15.685848 
L 135.303358 13.396332 
" clip-path="url(#pedc225f191)" style="fill: none; stroke: #9467bd; stroke-width: 0.5"/>
    <path d="M 149.898289 24.282166 
L 149.898289 22.224283 
" clip-path="url(#pedc225f191)" style="fill: none; stroke: #9467bd; stroke-width: 0.5"/>
    <path d="M 164.49322 36.621948 
L 164.49322 34.694399 
" clip-path="url(#pedc225f191)" style="fill: none; stroke: #9467bd; stroke-width: 0.5"/>
    <path d="M 179.088151 57.108176 
L 179.088151 55.329781 
" clip-path="url(#pedc225f191)" style="fill: none; stroke: #9467bd; stroke-width: 0.5"/>
    <path d="M 193.683081 137.322964 
L 193.683081 136.05614 
" clip-path="url(#pedc225f191)" style="fill: none; stroke: #9467bd; stroke-width: 0.5"/>
   </g>
   <g id="line2d_25">
    <path d="M 91.518566 101.953225 
L 106.113496 33.12856 
L 120.708427 20.317322 
L 135.303358 14.54109 
L 149.898289 23.253225 
L 164.49322 35.658174 
L 179.088151 56.218978 
L 193.683081 136.689552 
" clip-path="url(#pedc225f191)" style="fill: none; stroke: #9467bd; stroke-width: 0.5; stroke-linecap: square"/>
    <defs>
     <path id="m49bf48fd33" d="M 0 -2.8 
L -0.628639 -0.865248 
L -2.662958 -0.865248 
L -1.01716 0.330495 
L -1.645799 2.265248 
L -0 1.069505 
L 1.645799 2.265248 
L 1.01716 0.330495 
L 2.662958 -0.865248 
L 0.628639 -0.865248 
z
"/>
    </defs>
    <g clip-path="url(#pedc225f191)">
     <use xlink:href="#m49bf48fd33" x="91.518566" y="101.953225" style="fill: #9467bd"/>
     <use xlink:href="#m49bf48fd33" x="106.113496" y="33.12856" style="fill: #9467bd"/>
     <use xlink:href="#m49bf48fd33" x="120.708427" y="20.317322" style="fill: #9467bd"/>
     <use xlink:href="#m49bf48fd33" x="135.303358" y="14.54109" style="fill: #9467bd"/>
     <use xlink:href="#m49bf48fd33" x="149.898289" y="23.253225" style="fill: #9467bd"/>
     <use xlink:href="#m49bf48fd33" x="164.49322" y="35.658174" style="fill: #9467bd"/>
     <use xlink:href="#m49bf48fd33" x="179.088151" y="56.218978" style="fill: #9467bd"/>
     <use xlink:href="#m49bf48fd33" x="193.683081" y="136.689552" style="fill: #9467bd"/>
    </g>
   </g>
   <g id="patch_8">
    <path d="M 55.031239 143.519296 
L 55.031239 7.2 
" style="fill: none; stroke: #000000; stroke-width: 0.8; stroke-linejoin: miter; stroke-linecap: square"/>
   </g>
   <g id="patch_9">
    <path d="M 215.575478 143.519296 
L 215.575478 7.2 
" style="fill: none; stroke: #000000; stroke-width: 0.8; stroke-linejoin: miter; stroke-linecap: square"/>
   </g>
   <g id="patch_10">
    <path d="M 55.031239 143.519296 
L 215.575478 143.519296 
" style="fill: none; stroke: #000000; stroke-width: 0.8; stroke-linejoin: miter; stroke-linecap: square"/>
   </g>
   <g id="patch_11">
    <path d="M 55.031239 7.2 
L 215.575478 7.2 
" style="fill: none; stroke: #000000; stroke-width: 0.8; stroke-linejoin: miter; stroke-linecap: square"/>
   </g>
   <g id="legend_2">
    <g id="patch_12">
     <path d="M 61.331239 26.943462 
L 94.732712 26.943462 
Q 96.532712 26.943462 96.532712 25.143462 
L 96.532712 13.5 
Q 96.532712 11.7 94.732712 11.7 
L 61.331239 11.7 
Q 59.531239 11.7 59.531239 13.5 
L 59.531239 25.143462 
Q 59.531239 26.943462 61.331239 26.943462 
z
" style="fill: #ffffff; opacity: 0.8; stroke: #cccccc; stroke-width: 0.24; stroke-linejoin: miter"/>
    </g>
    <g id="LineCollection_8">
     <path d="M 72.131239 22.95 
L 72.131239 13.95 
" style="fill: none; stroke: #9467bd; stroke-width: 0.5"/>
    </g>
    <g id="line2d_26">
     <path d="M 63.131239 18.45 
L 81.131239 18.45 
" style="fill: none; stroke: #9467bd; stroke-width: 0.5; stroke-linecap: square"/>
    </g>
    <g id="line2d_27">
     <g>
      <use xlink:href="#m49bf48fd33" x="72.131239" y="18.45" style="fill: #9467bd"/>
     </g>
    </g>
    <g id="text_21">
     <!-- $\eta$ -->
     <g transform="translate(88.331239 21.6) scale(0.09 -0.09)">
      <use xlink:href="#CMMI12-11" transform="scale(0.996264)"/>
     </g>
    </g>
   </g>
  </g>
 </g>
 <defs>
  <clipPath id="pedc225f191">
   <rect x="55.031239" y="7.2" width="160.544239" height="136.319296"/>
  </clipPath>
 </defs>
</svg>
