<?xml version="1.0" encoding="utf-8" standalone="no"?>
<!DOCTYPE svg PUBLIC "-//W3C//DTD SVG 1.1//EN"
  "http://www.w3.org/Graphics/SVG/1.1/DTD/svg11.dtd">
<svg xmlns:xlink="http://www.w3.org/1999/xlink" width="202.406547pt" height="181.19952pt" viewBox="0 0 202.406547 181.19952" xmlns="http://www.w3.org/2000/svg" version="1.1">
 <metadata>
  <rdf:RDF xmlns:dc="http://purl.org/dc/elements/1.1/" xmlns:cc="http://creativecommons.org/ns#" xmlns:rdf="http://www.w3.org/1999/02/22-rdf-syntax-ns#">
   <cc:Work>
    <dc:type rdf:resource="http://purl.org/dc/dcmitype/StillImage"/>
    <dc:date>1980-01-01T00:00:00+00:00</dc:date>
    <dc:format>image/svg+xml</dc:format>
    <dc:creator>
     <cc:Agent>
      <dc:title>Matplotlib v3.6.2, https://matplotlib.org/</dc:title>
     </cc:Agent>
    </dc:creator>
   </cc:Work>
  </rdf:RDF>
 </metadata>
 <defs>
  <style type="text/css">*{stroke-linejoin: round; stroke-linecap: butt}</style>
 </defs>
 <g id="figure_1">
  <g id="patch_1">
   <path d="M 0 181.19952 
L 202.406547 181.19952 
L 202.406547 0 
L 0 0 
z
" style="fill: #ffffff"/>
  </g>
  <g id="axes_1">
   <g id="patch_2">
    <path d="M 59.528914 136.435748 
L 188.764662 136.435748 
L 188.764662 7.2 
L 59.528914 7.2 
z
" style="fill: #ffffff"/>
   </g>
   <g id="matplotlib.axis_1">
    <g id="xtick_1">
     <g id="line2d_1">
      <defs>
       <path id="m92ec3589e7" d="M 0 0 
L 0 3.5 
" style="stroke: #000000; stroke-width: 0.8"/>
      </defs>
      <g>
       <use xlink:href="#m92ec3589e7" x="65.403266" y="136.435748" style="stroke: #000000; stroke-width: 0.8"/>
      </g>
     </g>
     <g id="text_1">
      <!-- $\mathdefault{0.0}$ -->
      <g transform="translate(57.30121 154.529776) scale(0.13 -0.13)">
       <defs>
        <path id="CMR17-30" d="M 2688 2025 
C 2688 2416 2682 3080 2413 3591 
C 2176 4039 1798 4198 1466 4198 
C 1158 4198 768 4058 525 3597 
C 269 3118 243 2524 243 2025 
C 243 1661 250 1106 448 619 
C 723 -39 1216 -128 1466 -128 
C 1760 -128 2208 -7 2470 600 
C 2662 1042 2688 1559 2688 2025 
z
M 1466 -26 
C 1056 -26 813 325 723 812 
C 653 1188 653 1738 653 2096 
C 653 2588 653 2997 736 3387 
C 858 3929 1216 4096 1466 4096 
C 1728 4096 2067 3923 2189 3400 
C 2272 3036 2278 2607 2278 2096 
C 2278 1680 2278 1169 2202 792 
C 2067 95 1690 -26 1466 -26 
z
" transform="scale(0.015625)"/>
        <path id="CMMI12-3a" d="M 1178 307 
C 1178 492 1024 619 870 619 
C 685 619 557 466 557 313 
C 557 128 710 0 864 0 
C 1050 0 1178 153 1178 307 
z
" transform="scale(0.015625)"/>
       </defs>
       <use xlink:href="#CMR17-30" transform="scale(0.996264)"/>
       <use xlink:href="#CMMI12-3a" transform="translate(45.690477 0) scale(0.996264)"/>
       <use xlink:href="#CMR17-30" transform="translate(72.787654 0) scale(0.996264)"/>
      </g>
     </g>
    </g>
    <g id="xtick_2">
     <g id="line2d_2">
      <g>
       <use xlink:href="#m92ec3589e7" x="112.398083" y="136.435748" style="stroke: #000000; stroke-width: 0.8"/>
      </g>
     </g>
     <g id="text_2">
      <!-- $\mathdefault{0.2}$ -->
      <g transform="translate(104.296027 154.529776) scale(0.13 -0.13)">
       <defs>
        <path id="CMR17-32" d="M 2669 989 
L 2554 989 
C 2490 536 2438 459 2413 420 
C 2381 369 1920 369 1830 369 
L 602 369 
C 832 619 1280 1072 1824 1597 
C 2214 1967 2669 2402 2669 3035 
C 2669 3790 2067 4224 1395 4224 
C 691 4224 262 3604 262 3030 
C 262 2780 448 2748 525 2748 
C 589 2748 781 2787 781 3010 
C 781 3207 614 3264 525 3264 
C 486 3264 448 3258 422 3245 
C 544 3790 915 4058 1306 4058 
C 1862 4058 2227 3617 2227 3035 
C 2227 2479 1901 2000 1536 1584 
L 262 146 
L 262 0 
L 2515 0 
L 2669 989 
z
" transform="scale(0.015625)"/>
       </defs>
       <use xlink:href="#CMR17-30" transform="scale(0.996264)"/>
       <use xlink:href="#CMMI12-3a" transform="translate(45.690477 0) scale(0.996264)"/>
       <use xlink:href="#CMR17-32" transform="translate(72.787654 0) scale(0.996264)"/>
      </g>
     </g>
    </g>
    <g id="xtick_3">
     <g id="line2d_3">
      <g>
       <use xlink:href="#m92ec3589e7" x="159.392901" y="136.435748" style="stroke: #000000; stroke-width: 0.8"/>
      </g>
     </g>
     <g id="text_3">
      <!-- $\mathdefault{0.4}$ -->
      <g transform="translate(151.290845 154.529776) scale(0.13 -0.13)">
       <defs>
        <path id="CMR17-34" d="M 2150 4122 
C 2150 4256 2144 4256 2029 4256 
L 128 1254 
L 128 1088 
L 1779 1088 
L 1779 457 
C 1779 224 1766 160 1318 160 
L 1197 160 
L 1197 0 
C 1402 0 1747 0 1965 0 
C 2182 0 2528 0 2733 0 
L 2733 160 
L 2611 160 
C 2163 160 2150 224 2150 457 
L 2150 1088 
L 2803 1088 
L 2803 1254 
L 2150 1254 
L 2150 4122 
z
M 1798 3703 
L 1798 1254 
L 256 1254 
L 1798 3703 
z
" transform="scale(0.015625)"/>
       </defs>
       <use xlink:href="#CMR17-30" transform="scale(0.996264)"/>
       <use xlink:href="#CMMI12-3a" transform="translate(45.690477 0) scale(0.996264)"/>
       <use xlink:href="#CMR17-34" transform="translate(72.787654 0) scale(0.996264)"/>
      </g>
     </g>
    </g>
    <g id="text_4">
     <!-- $||L_c(t)||$ -->
     <g transform="translate(103.150063 170.761662) scale(0.13 -0.13)">
      <defs>
       <path id="CMSY10-6a" d="M 1018 4570 
C 1018 4685 1018 4800 890 4800 
C 762 4800 762 4685 762 4570 
L 762 -1370 
C 762 -1485 762 -1600 890 -1600 
C 1018 -1600 1018 -1485 1018 -1370 
L 1018 4570 
z
" transform="scale(0.015625)"/>
       <path id="CMMI12-4c" d="M 2349 3861 
C 2406 4103 2426 4167 2989 4167 
C 3162 4167 3206 4167 3206 4288 
C 3206 4352 3136 4352 3110 4352 
C 2982 4352 2835 4352 2707 4352 
L 1850 4352 
C 1728 4352 1587 4352 1466 4352 
C 1414 4352 1344 4352 1344 4231 
C 1344 4167 1402 4167 1498 4167 
C 1888 4167 1888 4116 1888 4046 
C 1888 4034 1888 3995 1862 3899 
L 998 472 
C 941 249 928 185 480 185 
C 358 185 294 185 294 70 
C 294 0 333 0 461 0 
L 3328 0 
C 3469 0 3475 6 3520 121 
L 4013 1478 
C 4026 1510 4038 1548 4038 1567 
C 4038 1605 4006 1631 3974 1631 
C 3968 1631 3936 1631 3923 1605 
C 3910 1599 3910 1586 3859 1465 
C 3654 905 3366 185 2285 185 
L 1670 185 
C 1581 185 1568 185 1530 192 
C 1459 198 1453 211 1453 262 
C 1453 307 1466 345 1478 401 
L 2349 3861 
z
" transform="scale(0.015625)"/>
       <path id="CMMI12-63" d="M 2502 2431 
C 2381 2431 2323 2431 2234 2355 
C 2195 2323 2125 2227 2125 2125 
C 2125 1997 2221 1920 2342 1920 
C 2496 1920 2669 2044 2669 2292 
C 2669 2588 2374 2816 1933 2816 
C 1094 2816 256 1903 256 996 
C 256 441 602 -64 1254 -64 
C 2125 -64 2675 622 2675 706 
C 2675 744 2637 776 2611 776 
C 2592 776 2586 770 2528 713 
C 2118 162 1510 64 1267 64 
C 826 64 685 446 685 764 
C 685 988 794 1605 1024 2039 
C 1190 2338 1536 2682 1939 2682 
C 2022 2682 2374 2682 2502 2431 
z
" transform="scale(0.015625)"/>
       <path id="CMR17-28" d="M 1958 -1561 
C 1958 -1555 1958 -1542 1939 -1523 
C 1645 -1224 858 -407 858 1581 
C 858 3569 1632 4379 1946 4697 
C 1946 4704 1958 4717 1958 4736 
C 1958 4755 1939 4768 1914 4768 
C 1843 4768 1299 4296 986 3594 
C 666 2887 576 2199 576 1588 
C 576 1128 621 351 1005 -471 
C 1312 -1135 1837 -1600 1914 -1600 
C 1946 -1600 1958 -1587 1958 -1561 
z
" transform="scale(0.015625)"/>
       <path id="CMMI12-74" d="M 1286 2566 
L 1875 2566 
C 1997 2566 2061 2566 2061 2681 
C 2061 2752 2022 2752 1894 2752 
L 1331 2752 
L 1568 3692 
C 1594 3781 1594 3794 1594 3840 
C 1594 3943 1510 4000 1427 4000 
C 1376 4000 1229 3981 1178 3775 
L 928 2752 
L 326 2752 
C 198 2752 141 2752 141 2630 
C 141 2566 186 2566 307 2566 
L 877 2566 
L 454 881 
C 403 658 384 594 384 511 
C 384 211 595 -64 954 -64 
C 1600 -64 1946 868 1946 912 
C 1946 951 1920 970 1882 970 
C 1869 970 1843 970 1830 944 
C 1824 938 1818 931 1773 829 
C 1638 511 1344 64 973 64 
C 781 64 768 224 768 364 
C 768 370 768 492 787 568 
L 1286 2566 
z
" transform="scale(0.015625)"/>
       <path id="CMR17-29" d="M 1683 1581 
C 1683 2040 1638 2817 1254 3639 
C 947 4303 422 4768 346 4768 
C 326 4768 301 4761 301 4729 
C 301 4717 307 4710 314 4697 
C 621 4378 1402 3568 1402 1584 
C 1402 -407 627 -1217 314 -1537 
C 307 -1549 301 -1556 301 -1568 
C 301 -1600 326 -1600 346 -1600 
C 416 -1600 960 -1128 1274 -426 
C 1594 281 1683 969 1683 1581 
z
" transform="scale(0.015625)"/>
      </defs>
      <use xlink:href="#CMSY10-6a" transform="scale(0.996264)"/>
      <use xlink:href="#CMSY10-6a" transform="translate(27.674085 0) scale(0.996264)"/>
      <use xlink:href="#CMMI12-4c" transform="translate(55.348169 0) scale(0.996264)"/>
      <use xlink:href="#CMMI12-63" transform="translate(121.719045 -14.943915) scale(0.697382)"/>
      <use xlink:href="#CMR17-28" transform="translate(151.605308 0) scale(0.996264)"/>
      <use xlink:href="#CMMI12-74" transform="translate(186.886076 0) scale(0.996264)"/>
      <use xlink:href="#CMR17-29" transform="translate(222.112406 0) scale(0.996264)"/>
      <use xlink:href="#CMSY10-6a" transform="translate(257.393174 0) scale(0.996264)"/>
      <use xlink:href="#CMSY10-6a" transform="translate(285.067259 0) scale(0.996264)"/>
     </g>
    </g>
   </g>
   <g id="matplotlib.axis_2">
    <g id="ytick_1">
     <g id="line2d_4">
      <defs>
       <path id="mc1235f8af0" d="M 0 0 
L -3.5 0 
" style="stroke: #000000; stroke-width: 0.8"/>
      </defs>
      <g>
       <use xlink:href="#mc1235f8af0" x="59.528914" y="123.117241" style="stroke: #000000; stroke-width: 0.8"/>
      </g>
     </g>
     <g id="text_5">
      <!-- $\mathdefault{−0.4}$ -->
      <g transform="translate(24.151432 127.614255) scale(0.13 -0.13)">
       <defs>
        <path id="CMSY10-0" d="M 4218 1472 
C 4326 1472 4442 1472 4442 1600 
C 4442 1728 4326 1728 4218 1728 
L 755 1728 
C 646 1728 531 1728 531 1600 
C 531 1472 646 1472 755 1472 
L 4218 1472 
z
" transform="scale(0.015625)"/>
       </defs>
       <use xlink:href="#CMSY10-0" transform="scale(0.996264)"/>
       <use xlink:href="#CMR17-30" transform="translate(77.487468 0) scale(0.996264)"/>
       <use xlink:href="#CMMI12-3a" transform="translate(123.177945 0) scale(0.996264)"/>
       <use xlink:href="#CMR17-34" transform="translate(150.275122 0) scale(0.996264)"/>
      </g>
     </g>
    </g>
    <g id="ytick_2">
     <g id="line2d_5">
      <g>
       <use xlink:href="#mc1235f8af0" x="59.528914" y="68.258229" style="stroke: #000000; stroke-width: 0.8"/>
      </g>
     </g>
     <g id="text_6">
      <!-- $\mathdefault{−0.2}$ -->
      <g transform="translate(24.151432 72.755243) scale(0.13 -0.13)">
       <use xlink:href="#CMSY10-0" transform="scale(0.996264)"/>
       <use xlink:href="#CMR17-30" transform="translate(77.487468 0) scale(0.996264)"/>
       <use xlink:href="#CMMI12-3a" transform="translate(123.177945 0) scale(0.996264)"/>
       <use xlink:href="#CMR17-32" transform="translate(150.275122 0) scale(0.996264)"/>
      </g>
     </g>
    </g>
    <g id="ytick_3">
     <g id="line2d_6">
      <g>
       <use xlink:href="#mc1235f8af0" x="59.528914" y="13.399216" style="stroke: #000000; stroke-width: 0.8"/>
      </g>
     </g>
     <g id="text_7">
      <!-- $\mathdefault{0.0}$ -->
      <g transform="translate(34.224802 17.89623) scale(0.13 -0.13)">
       <use xlink:href="#CMR17-30" transform="scale(0.996264)"/>
       <use xlink:href="#CMMI12-3a" transform="translate(45.690477 0) scale(0.996264)"/>
       <use xlink:href="#CMR17-30" transform="translate(72.787654 0) scale(0.996264)"/>
      </g>
     </g>
    </g>
    <g id="text_8">
     <!-- $\langle{H_\mathrm{I}}\rangle$ -->
     <g transform="translate(16.913574 84.038906) rotate(-90) scale(0.13 -0.13)">
      <defs>
       <path id="CMSY10-68" d="M 2099 4557 
C 2131 4627 2131 4640 2131 4672 
C 2131 4742 2074 4800 2003 4800 
C 1946 4800 1901 4768 1856 4653 
L 736 1715 
C 723 1677 704 1638 704 1600 
C 704 1581 704 1568 736 1491 
L 1856 -1446 
C 1882 -1517 1914 -1600 2003 -1600 
C 2074 -1600 2131 -1542 2131 -1472 
C 2131 -1453 2131 -1440 2099 -1370 
L 966 1600 
L 2099 4557 
z
" transform="scale(0.015625)"/>
       <path id="CMMI12-48" d="M 4787 3887 
C 4845 4103 4858 4167 5312 4167 
C 5427 4167 5491 4167 5491 4282 
C 5491 4352 5434 4352 5395 4352 
C 5280 4352 5146 4352 5024 4352 
L 4269 4352 
C 4147 4352 4013 4352 3891 4352 
C 3846 4352 3770 4352 3770 4231 
C 3770 4167 3814 4167 3936 4167 
C 4320 4167 4320 4116 4320 4046 
C 4320 4034 4320 3995 4294 3900 
L 3904 2361 
L 1971 2361 
L 2355 3887 
C 2413 4103 2426 4167 2880 4167 
C 2995 4167 3059 4167 3059 4282 
C 3059 4352 3002 4352 2963 4352 
C 2848 4352 2714 4352 2592 4352 
L 1837 4352 
C 1715 4352 1581 4352 1459 4352 
C 1414 4352 1338 4352 1338 4231 
C 1338 4167 1382 4167 1504 4167 
C 1888 4167 1888 4116 1888 4046 
C 1888 4034 1888 3995 1862 3899 
L 998 472 
C 941 249 928 185 486 185 
C 339 185 294 185 294 64 
C 294 0 365 0 384 0 
C 499 0 634 0 755 0 
L 1510 0 
C 1632 0 1766 0 1888 0 
C 1939 0 2010 0 2010 121 
C 2010 185 1952 185 1856 185 
C 1466 185 1466 236 1466 300 
C 1466 307 1466 351 1478 402 
L 1920 2176 
L 3859 2176 
C 3750 1753 3424 416 3411 376 
C 3341 185 3238 185 2861 185 
C 2784 185 2726 185 2726 64 
C 2726 0 2797 0 2816 0 
C 2931 0 3066 0 3187 0 
L 3942 0 
C 4064 0 4198 0 4320 0 
C 4371 0 4442 0 4442 121 
C 4442 185 4384 185 4288 185 
C 3898 185 3898 236 3898 300 
C 3898 307 3898 351 3910 402 
L 4787 3887 
z
" transform="scale(0.015625)"/>
       <path id="CMR17-49" d="M 1261 3905 
C 1261 4192 1338 4192 1798 4192 
L 1798 4352 
C 1594 4352 1267 4352 1050 4352 
C 832 4352 506 4352 301 4352 
L 301 4192 
C 762 4192 838 4192 838 3905 
L 838 447 
C 838 160 762 160 301 160 
L 301 0 
C 506 0 832 0 1050 0 
C 1267 0 1594 0 1798 0 
L 1798 160 
C 1338 160 1261 160 1261 447 
L 1261 3905 
z
" transform="scale(0.015625)"/>
       <path id="CMSY10-69" d="M 1747 1491 
C 1779 1568 1779 1581 1779 1600 
C 1779 1619 1779 1632 1747 1709 
L 627 4653 
C 589 4762 550 4800 480 4800 
C 410 4800 352 4742 352 4672 
C 352 4653 352 4640 384 4570 
L 1517 1600 
L 384 -1357 
C 352 -1427 352 -1440 352 -1472 
C 352 -1542 410 -1600 480 -1600 
C 563 -1600 589 -1536 614 -1472 
L 1747 1491 
z
" transform="scale(0.015625)"/>
      </defs>
      <use xlink:href="#CMSY10-68" transform="scale(0.996264)"/>
      <use xlink:href="#CMMI12-48" transform="translate(38.743734 0) scale(0.996264)"/>
      <use xlink:href="#CMR17-49" transform="translate(119.56857 -14.943915) scale(0.697382)"/>
      <use xlink:href="#CMSY10-69" transform="translate(142.913492 0) scale(0.996264)"/>
     </g>
    </g>
   </g>
   <g id="line2d_7">
    <path d="M 65.403266 13.399216 
L 65.539331 13.399216 
L 65.717493 13.196724 
L 66.957664 13.084654 
L 69.573331 13.110567 
L 73.806076 13.389875 
L 77.565011 13.809083 
L 82.056064 14.489018 
L 87.234416 15.492268 
L 93.032621 16.874737 
L 99.364086 18.681554 
L 106.126555 20.943352 
L 113.205587 23.673691 
L 120.478036 26.868988 
L 127.815539 30.51016 
L 135.087989 34.56444 
L 142.16702 38.986646 
L 148.929489 43.719475 
L 152.155815 46.181051 
L 155.260955 48.693217 
L 158.232535 51.245625 
L 161.05916 53.827627 
L 163.730522 56.428534 
L 166.237512 59.037782 
L 168.572323 61.645081 
L 170.728565 64.240509 
L 172.701369 66.814491 
L 174.487499 69.357802 
L 176.08546 71.86153 
L 177.495604 74.316984 
L 178.720245 76.715693 
L 179.763759 79.049394 
L 180.632702 81.310008 
L 181.335911 83.489691 
L 181.88462 85.580892 
L 182.576082 89.469473 
L 182.848942 92.923958 
L 182.890309 98.413339 
L 182.890309 129.546615 
L 182.848942 129.536329 
L 182.292562 129.791325 
L 180.632702 130.176266 
L 178.720245 130.415622 
L 176.08546 130.555535 
L 172.701369 130.509247 
L 168.572323 130.184342 
L 163.730522 129.489295 
L 158.232535 128.33987 
L 152.155815 126.66365 
L 148.929489 125.609083 
L 145.595222 124.402085 
L 142.16702 123.037781 
L 138.659542 121.512596 
L 135.087989 119.824273 
L 131.468 117.971815 
L 127.815539 115.955714 
L 124.146788 113.777752 
L 120.478036 111.4408 
L 116.825575 108.948999 
L 113.205587 106.307604 
L 109.634034 103.522932 
L 106.126555 100.602688 
L 102.698353 97.555788 
L 99.364086 94.392268 
L 96.137761 91.123403 
L 93.032621 87.761336 
L 90.061041 84.31891 
L 87.234416 80.809784 
L 84.563053 77.248155 
L 82.056064 73.648787 
L 79.721252 70.027202 
L 77.565011 66.399422 
L 75.592207 62.781956 
L 73.806076 59.19188 
L 72.208116 55.646503 
L 70.797971 52.163495 
L 69.573331 48.761226 
L 68.529817 45.458947 
L 67.660874 42.277683 
L 66.408955 36.382889 
L 65.717493 31.42031 
L 65.444633 13.399216 
L 65.40857 13.399216 
L 65.40857 13.399216 
" clip-path="url(#pfba8cd81d7)" style="fill: none; stroke: #6495ed; stroke-width: 3; stroke-linecap: square"/>
   </g>
   <g id="LineCollection_1">
    <path d="M 65.403266 13.399216 
L 65.403266 13.399216 
" clip-path="url(#pfba8cd81d7)" style="fill: none; stroke: #6495ed; stroke-width: 3"/>
    <path d="M 65.403266 13.399216 
L 65.40857 13.399216 
" clip-path="url(#pfba8cd81d7)" style="fill: none; stroke: #6495ec; stroke-width: 3"/>
    <path d="M 65.40857 13.399216 
L 65.444633 13.399216 
" clip-path="url(#pfba8cd81d7)" style="fill: none; stroke: #6594ec; stroke-width: 3"/>
    <path d="M 65.444633 13.399216 
L 65.539331 13.399216 
" clip-path="url(#pfba8cd81d7)" style="fill: none; stroke: #6594eb; stroke-width: 3"/>
    <path d="M 65.539331 13.399216 
L 65.717493 13.196724 
" clip-path="url(#pfba8cd81d7)" style="fill: none; stroke: #6594eb; stroke-width: 3"/>
    <path d="M 65.717493 13.196724 
L 66.001013 13.146488 
" clip-path="url(#pfba8cd81d7)" style="fill: none; stroke: #6693ea; stroke-width: 3"/>
    <path d="M 66.001013 13.146488 
L 66.408955 13.109232 
" clip-path="url(#pfba8cd81d7)" style="fill: none; stroke: #6693ea; stroke-width: 3"/>
    <path d="M 66.408955 13.109232 
L 66.957664 13.084654 
" clip-path="url(#pfba8cd81d7)" style="fill: none; stroke: #6693e9; stroke-width: 3"/>
    <path d="M 66.957664 13.084654 
L 67.660874 13.074352 
" clip-path="url(#pfba8cd81d7)" style="fill: none; stroke: #6792e9; stroke-width: 3"/>
    <path d="M 67.660874 13.074352 
L 68.529817 13.081494 
" clip-path="url(#pfba8cd81d7)" style="fill: none; stroke: #6792e8; stroke-width: 3"/>
    <path d="M 68.529817 13.081494 
L 69.573331 13.110567 
" clip-path="url(#pfba8cd81d7)" style="fill: none; stroke: #6892e8; stroke-width: 3"/>
    <path d="M 69.573331 13.110567 
L 70.797971 13.167189 
" clip-path="url(#pfba8cd81d7)" style="fill: none; stroke: #6891e7; stroke-width: 3"/>
    <path d="M 70.797971 13.167189 
L 72.208116 13.257879 
" clip-path="url(#pfba8cd81d7)" style="fill: none; stroke: #6891e7; stroke-width: 3"/>
    <path d="M 72.208116 13.257879 
L 73.806076 13.389875 
" clip-path="url(#pfba8cd81d7)" style="fill: none; stroke: #6991e6; stroke-width: 3"/>
    <path d="M 73.806076 13.389875 
L 75.592207 13.570932 
" clip-path="url(#pfba8cd81d7)" style="fill: none; stroke: #6990e5; stroke-width: 3"/>
    <path d="M 75.592207 13.570932 
L 77.565011 13.809083 
" clip-path="url(#pfba8cd81d7)" style="fill: none; stroke: #6990e5; stroke-width: 3"/>
    <path d="M 77.565011 13.809083 
L 79.721252 14.112442 
" clip-path="url(#pfba8cd81d7)" style="fill: none; stroke: #6a90e4; stroke-width: 3"/>
    <path d="M 79.721252 14.112442 
L 82.056064 14.489018 
" clip-path="url(#pfba8cd81d7)" style="fill: none; stroke: #6a8fe4; stroke-width: 3"/>
    <path d="M 82.056064 14.489018 
L 84.563053 14.94653 
" clip-path="url(#pfba8cd81d7)" style="fill: none; stroke: #6a8fe3; stroke-width: 3"/>
    <path d="M 84.563053 14.94653 
L 87.234416 15.492268 
" clip-path="url(#pfba8cd81d7)" style="fill: none; stroke: #6b8fe3; stroke-width: 3"/>
    <path d="M 87.234416 15.492268 
L 90.061041 16.132982 
" clip-path="url(#pfba8cd81d7)" style="fill: none; stroke: #6b8ee2; stroke-width: 3"/>
    <path d="M 90.061041 16.132982 
L 93.032621 16.874737 
" clip-path="url(#pfba8cd81d7)" style="fill: none; stroke: #6b8ee2; stroke-width: 3"/>
    <path d="M 93.032621 16.874737 
L 96.137761 17.722806 
" clip-path="url(#pfba8cd81d7)" style="fill: none; stroke: #6c8ee1; stroke-width: 3"/>
    <path d="M 96.137761 17.722806 
L 99.364086 18.681554 
" clip-path="url(#pfba8cd81d7)" style="fill: none; stroke: #6c8de1; stroke-width: 3"/>
    <path d="M 99.364086 18.681554 
L 102.698353 19.754319 
" clip-path="url(#pfba8cd81d7)" style="fill: none; stroke: #6c8de0; stroke-width: 3"/>
    <path d="M 102.698353 19.754319 
L 106.126555 20.943352 
" clip-path="url(#pfba8cd81d7)" style="fill: none; stroke: #6d8cdf; stroke-width: 3"/>
    <path d="M 106.126555 20.943352 
L 109.634034 22.249792 
" clip-path="url(#pfba8cd81d7)" style="fill: none; stroke: #6d8cdf; stroke-width: 3"/>
    <path d="M 109.634034 22.249792 
L 113.205587 23.673691 
" clip-path="url(#pfba8cd81d7)" style="fill: none; stroke: #6e8cde; stroke-width: 3"/>
    <path d="M 113.205587 23.673691 
L 116.825575 25.214072 
" clip-path="url(#pfba8cd81d7)" style="fill: none; stroke: #6e8bde; stroke-width: 3"/>
    <path d="M 116.825575 25.214072 
L 120.478036 26.868988 
" clip-path="url(#pfba8cd81d7)" style="fill: none; stroke: #6e8bdd; stroke-width: 3"/>
    <path d="M 120.478036 26.868988 
L 124.146788 28.635585 
" clip-path="url(#pfba8cd81d7)" style="fill: none; stroke: #6f8bdd; stroke-width: 3"/>
    <path d="M 124.146788 28.635585 
L 127.815539 30.51016 
" clip-path="url(#pfba8cd81d7)" style="fill: none; stroke: #6f8adc; stroke-width: 3"/>
    <path d="M 127.815539 30.51016 
L 131.468 32.488204 
" clip-path="url(#pfba8cd81d7)" style="fill: none; stroke: #6f8adc; stroke-width: 3"/>
    <path d="M 131.468 32.488204 
L 135.087989 34.56444 
" clip-path="url(#pfba8cd81d7)" style="fill: none; stroke: #708adb; stroke-width: 3"/>
    <path d="M 135.087989 34.56444 
L 138.659542 36.732845 
" clip-path="url(#pfba8cd81d7)" style="fill: none; stroke: #7089db; stroke-width: 3"/>
    <path d="M 138.659542 36.732845 
L 142.16702 38.986646 
" clip-path="url(#pfba8cd81d7)" style="fill: none; stroke: #7089da; stroke-width: 3"/>
    <path d="M 142.16702 38.986646 
L 145.595222 41.318301 
" clip-path="url(#pfba8cd81d7)" style="fill: none; stroke: #7189da; stroke-width: 3"/>
    <path d="M 145.595222 41.318301 
L 148.929489 43.719475 
" clip-path="url(#pfba8cd81d7)" style="fill: none; stroke: #7188d9; stroke-width: 3"/>
    <path d="M 148.929489 43.719475 
L 152.155815 46.181051 
" clip-path="url(#pfba8cd81d7)" style="fill: none; stroke: #7188d8; stroke-width: 3"/>
    <path d="M 152.155815 46.181051 
L 155.260955 48.693217 
" clip-path="url(#pfba8cd81d7)" style="fill: none; stroke: #7288d8; stroke-width: 3"/>
    <path d="M 155.260955 48.693217 
L 158.232535 51.245625 
" clip-path="url(#pfba8cd81d7)" style="fill: none; stroke: #7287d7; stroke-width: 3"/>
    <path d="M 158.232535 51.245625 
L 161.05916 53.827627 
" clip-path="url(#pfba8cd81d7)" style="fill: none; stroke: #7387d7; stroke-width: 3"/>
    <path d="M 161.05916 53.827627 
L 163.730522 56.428534 
" clip-path="url(#pfba8cd81d7)" style="fill: none; stroke: #7387d6; stroke-width: 3"/>
    <path d="M 163.730522 56.428534 
L 166.237512 59.037782 
" clip-path="url(#pfba8cd81d7)" style="fill: none; stroke: #7386d6; stroke-width: 3"/>
    <path d="M 166.237512 59.037782 
L 168.572323 61.645081 
" clip-path="url(#pfba8cd81d7)" style="fill: none; stroke: #7486d5; stroke-width: 3"/>
    <path d="M 168.572323 61.645081 
L 170.728565 64.240509 
" clip-path="url(#pfba8cd81d7)" style="fill: none; stroke: #7486d5; stroke-width: 3"/>
    <path d="M 170.728565 64.240509 
L 172.701369 66.814491 
" clip-path="url(#pfba8cd81d7)" style="fill: none; stroke: #7485d4; stroke-width: 3"/>
    <path d="M 172.701369 66.814491 
L 174.487499 69.357802 
" clip-path="url(#pfba8cd81d7)" style="fill: none; stroke: #7585d4; stroke-width: 3"/>
    <path d="M 174.487499 69.357802 
L 176.08546 71.86153 
" clip-path="url(#pfba8cd81d7)" style="fill: none; stroke: #7585d3; stroke-width: 3"/>
    <path d="M 176.08546 71.86153 
L 177.495604 74.316984 
" clip-path="url(#pfba8cd81d7)" style="fill: none; stroke: #7584d2; stroke-width: 3"/>
    <path d="M 177.495604 74.316984 
L 178.720245 76.715693 
" clip-path="url(#pfba8cd81d7)" style="fill: none; stroke: #7684d2; stroke-width: 3"/>
    <path d="M 178.720245 76.715693 
L 179.763759 79.049394 
" clip-path="url(#pfba8cd81d7)" style="fill: none; stroke: #7684d1; stroke-width: 3"/>
    <path d="M 179.763759 79.049394 
L 180.632702 81.310008 
" clip-path="url(#pfba8cd81d7)" style="fill: none; stroke: #7683d1; stroke-width: 3"/>
    <path d="M 180.632702 81.310008 
L 181.335911 83.489691 
" clip-path="url(#pfba8cd81d7)" style="fill: none; stroke: #7783d0; stroke-width: 3"/>
    <path d="M 181.335911 83.489691 
L 181.88462 85.580892 
" clip-path="url(#pfba8cd81d7)" style="fill: none; stroke: #7783d0; stroke-width: 3"/>
    <path d="M 181.88462 85.580892 
L 182.292562 87.576411 
" clip-path="url(#pfba8cd81d7)" style="fill: none; stroke: #7782cf; stroke-width: 3"/>
    <path d="M 182.292562 87.576411 
L 182.576082 89.469473 
" clip-path="url(#pfba8cd81d7)" style="fill: none; stroke: #7882cf; stroke-width: 3"/>
    <path d="M 182.576082 89.469473 
L 182.754245 91.253847 
" clip-path="url(#pfba8cd81d7)" style="fill: none; stroke: #7882ce; stroke-width: 3"/>
    <path d="M 182.754245 91.253847 
L 182.848942 92.923958 
" clip-path="url(#pfba8cd81d7)" style="fill: none; stroke: #7981ce; stroke-width: 3"/>
    <path d="M 182.848942 92.923958 
L 182.885005 94.475056 
" clip-path="url(#pfba8cd81d7)" style="fill: none; stroke: #7981cd; stroke-width: 3"/>
    <path d="M 182.885005 94.475056 
L 182.890309 95.90349 
" clip-path="url(#pfba8cd81d7)" style="fill: none; stroke: #7981cd; stroke-width: 3"/>
    <path d="M 182.890309 95.90349 
L 182.890309 97.210884 
" clip-path="url(#pfba8cd81d7)" style="fill: none; stroke: #7a80cc; stroke-width: 3"/>
    <path d="M 182.890309 97.210884 
L 182.890309 98.413339 
" clip-path="url(#pfba8cd81d7)" style="fill: none; stroke: #7a80cb; stroke-width: 3"/>
    <path d="M 182.890309 98.413339 
L 182.890309 99.518296 
" clip-path="url(#pfba8cd81d7)" style="fill: none; stroke: #7a80cb; stroke-width: 3"/>
    <path d="M 182.890309 99.518296 
L 182.890309 100.530447 
" clip-path="url(#pfba8cd81d7)" style="fill: none; stroke: #7b7fca; stroke-width: 3"/>
    <path d="M 182.890309 100.530447 
L 182.890309 101.455035 
" clip-path="url(#pfba8cd81d7)" style="fill: none; stroke: #7b7fca; stroke-width: 3"/>
    <path d="M 182.890309 101.455035 
L 182.890309 102.297755 
" clip-path="url(#pfba8cd81d7)" style="fill: none; stroke: #7b7fc9; stroke-width: 3"/>
    <path d="M 182.890309 102.297755 
L 182.890309 103.064652 
" clip-path="url(#pfba8cd81d7)" style="fill: none; stroke: #7c7ec9; stroke-width: 3"/>
    <path d="M 182.890309 103.064652 
L 182.890309 103.762008 
" clip-path="url(#pfba8cd81d7)" style="fill: none; stroke: #7c7ec8; stroke-width: 3"/>
    <path d="M 182.890309 103.762008 
L 182.890309 104.396331 
" clip-path="url(#pfba8cd81d7)" style="fill: none; stroke: #7c7ec8; stroke-width: 3"/>
    <path d="M 182.890309 104.396331 
L 182.890309 104.974195 
" clip-path="url(#pfba8cd81d7)" style="fill: none; stroke: #7d7dc7; stroke-width: 3"/>
    <path d="M 182.890309 104.974195 
L 182.890309 105.502016 
" clip-path="url(#pfba8cd81d7)" style="fill: none; stroke: #7d7dc7; stroke-width: 3"/>
    <path d="M 182.890309 105.502016 
L 182.890309 105.985933 
" clip-path="url(#pfba8cd81d7)" style="fill: none; stroke: #7d7dc6; stroke-width: 3"/>
    <path d="M 182.890309 105.985933 
L 182.890309 106.431624 
" clip-path="url(#pfba8cd81d7)" style="fill: none; stroke: #7e7cc6; stroke-width: 3"/>
    <path d="M 182.890309 106.431624 
L 182.890309 106.844206 
" clip-path="url(#pfba8cd81d7)" style="fill: none; stroke: #7e7cc5; stroke-width: 3"/>
    <path d="M 182.890309 106.844206 
L 182.890309 107.228287 
" clip-path="url(#pfba8cd81d7)" style="fill: none; stroke: #7f7bc4; stroke-width: 3"/>
    <path d="M 182.890309 107.228287 
L 182.890309 107.588002 
" clip-path="url(#pfba8cd81d7)" style="fill: none; stroke: #7f7bc4; stroke-width: 3"/>
    <path d="M 182.890309 107.588002 
L 182.890309 107.92709 
" clip-path="url(#pfba8cd81d7)" style="fill: none; stroke: #7f7bc3; stroke-width: 3"/>
    <path d="M 182.890309 107.92709 
L 182.890309 108.248978 
" clip-path="url(#pfba8cd81d7)" style="fill: none; stroke: #807ac3; stroke-width: 3"/>
    <path d="M 182.890309 108.248978 
L 182.890309 108.556765 
" clip-path="url(#pfba8cd81d7)" style="fill: none; stroke: #807ac2; stroke-width: 3"/>
    <path d="M 182.890309 108.556765 
L 182.890309 108.853238 
" clip-path="url(#pfba8cd81d7)" style="fill: none; stroke: #807ac2; stroke-width: 3"/>
    <path d="M 182.890309 108.853238 
L 182.890309 109.140916 
" clip-path="url(#pfba8cd81d7)" style="fill: none; stroke: #8179c1; stroke-width: 3"/>
    <path d="M 182.890309 109.140916 
L 182.890309 109.422028 
" clip-path="url(#pfba8cd81d7)" style="fill: none; stroke: #8179c1; stroke-width: 3"/>
    <path d="M 182.890309 109.422028 
L 182.890309 109.698525 
" clip-path="url(#pfba8cd81d7)" style="fill: none; stroke: #8179c0; stroke-width: 3"/>
    <path d="M 182.890309 109.698525 
L 182.890309 109.9721 
" clip-path="url(#pfba8cd81d7)" style="fill: none; stroke: #8278c0; stroke-width: 3"/>
    <path d="M 182.890309 109.9721 
L 182.890309 110.244083 
" clip-path="url(#pfba8cd81d7)" style="fill: none; stroke: #8278bf; stroke-width: 3"/>
    <path d="M 182.890309 110.244083 
L 182.890309 110.515388 
" clip-path="url(#pfba8cd81d7)" style="fill: none; stroke: #8278be; stroke-width: 3"/>
    <path d="M 182.890309 110.515388 
L 182.890309 110.786548 
" clip-path="url(#pfba8cd81d7)" style="fill: none; stroke: #8377be; stroke-width: 3"/>
    <path d="M 182.890309 110.786548 
L 182.890309 111.057648 
" clip-path="url(#pfba8cd81d7)" style="fill: none; stroke: #8377bd; stroke-width: 3"/>
    <path d="M 182.890309 111.057648 
L 182.890309 111.32847 
" clip-path="url(#pfba8cd81d7)" style="fill: none; stroke: #8377bd; stroke-width: 3"/>
    <path d="M 182.890309 111.32847 
L 182.890309 111.598751 
" clip-path="url(#pfba8cd81d7)" style="fill: none; stroke: #8476bc; stroke-width: 3"/>
    <path d="M 182.890309 111.598751 
L 182.890309 111.868287 
" clip-path="url(#pfba8cd81d7)" style="fill: none; stroke: #8476bc; stroke-width: 3"/>
    <path d="M 182.890309 111.868287 
L 182.890309 112.137167 
" clip-path="url(#pfba8cd81d7)" style="fill: none; stroke: #8576bb; stroke-width: 3"/>
    <path d="M 182.890309 112.137167 
L 182.890309 112.405901 
" clip-path="url(#pfba8cd81d7)" style="fill: none; stroke: #8575bb; stroke-width: 3"/>
    <path d="M 182.890309 112.405901 
L 182.890309 112.675247 
" clip-path="url(#pfba8cd81d7)" style="fill: none; stroke: #8575ba; stroke-width: 3"/>
    <path d="M 182.890309 112.675247 
L 182.890309 112.946109 
" clip-path="url(#pfba8cd81d7)" style="fill: none; stroke: #8675ba; stroke-width: 3"/>
    <path d="M 182.890309 112.946109 
L 182.890309 113.219394 
" clip-path="url(#pfba8cd81d7)" style="fill: none; stroke: #8674b9; stroke-width: 3"/>
    <path d="M 182.890309 113.219394 
L 182.890309 113.49574 
" clip-path="url(#pfba8cd81d7)" style="fill: none; stroke: #8674b9; stroke-width: 3"/>
    <path d="M 182.890309 113.49574 
L 182.890309 113.77547 
" clip-path="url(#pfba8cd81d7)" style="fill: none; stroke: #8774b8; stroke-width: 3"/>
    <path d="M 182.890309 113.77547 
L 182.890309 114.058492 
" clip-path="url(#pfba8cd81d7)" style="fill: none; stroke: #8773b7; stroke-width: 3"/>
    <path d="M 182.890309 114.058492 
L 182.890309 114.344105 
" clip-path="url(#pfba8cd81d7)" style="fill: none; stroke: #8773b7; stroke-width: 3"/>
    <path d="M 182.890309 114.344105 
L 182.890309 114.631064 
" clip-path="url(#pfba8cd81d7)" style="fill: none; stroke: #8873b6; stroke-width: 3"/>
    <path d="M 182.890309 114.631064 
L 182.890309 114.917688 
" clip-path="url(#pfba8cd81d7)" style="fill: none; stroke: #8872b6; stroke-width: 3"/>
    <path d="M 182.890309 114.917688 
L 182.890309 115.201995 
" clip-path="url(#pfba8cd81d7)" style="fill: none; stroke: #8872b5; stroke-width: 3"/>
    <path d="M 182.890309 115.201995 
L 182.890309 115.482075 
" clip-path="url(#pfba8cd81d7)" style="fill: none; stroke: #8972b5; stroke-width: 3"/>
    <path d="M 182.890309 115.482075 
L 182.890309 115.756345 
" clip-path="url(#pfba8cd81d7)" style="fill: none; stroke: #8971b4; stroke-width: 3"/>
    <path d="M 182.890309 115.756345 
L 182.890309 116.023703 
" clip-path="url(#pfba8cd81d7)" style="fill: none; stroke: #8a71b4; stroke-width: 3"/>
    <path d="M 182.890309 116.023703 
L 182.890309 116.283715 
" clip-path="url(#pfba8cd81d7)" style="fill: none; stroke: #8a71b3; stroke-width: 3"/>
    <path d="M 182.890309 116.283715 
L 182.890309 116.536567 
" clip-path="url(#pfba8cd81d7)" style="fill: none; stroke: #8a70b3; stroke-width: 3"/>
    <path d="M 182.890309 116.536567 
L 182.890309 116.782838 
" clip-path="url(#pfba8cd81d7)" style="fill: none; stroke: #8b70b2; stroke-width: 3"/>
    <path d="M 182.890309 116.782838 
L 182.890309 117.02334 
" clip-path="url(#pfba8cd81d7)" style="fill: none; stroke: #8b70b1; stroke-width: 3"/>
    <path d="M 182.890309 117.02334 
L 182.890309 117.2588 
" clip-path="url(#pfba8cd81d7)" style="fill: none; stroke: #8b6fb1; stroke-width: 3"/>
    <path d="M 182.890309 117.2588 
L 182.890309 117.489599 
" clip-path="url(#pfba8cd81d7)" style="fill: none; stroke: #8c6fb0; stroke-width: 3"/>
    <path d="M 182.890309 117.489599 
L 182.890309 117.715835 
" clip-path="url(#pfba8cd81d7)" style="fill: none; stroke: #8c6fb0; stroke-width: 3"/>
    <path d="M 182.890309 117.715835 
L 182.890309 117.937344 
" clip-path="url(#pfba8cd81d7)" style="fill: none; stroke: #8c6eaf; stroke-width: 3"/>
    <path d="M 182.890309 117.937344 
L 182.890309 118.153779 
" clip-path="url(#pfba8cd81d7)" style="fill: none; stroke: #8d6eaf; stroke-width: 3"/>
    <path d="M 182.890309 118.153779 
L 182.890309 118.364934 
" clip-path="url(#pfba8cd81d7)" style="fill: none; stroke: #8d6eae; stroke-width: 3"/>
    <path d="M 182.890309 118.364934 
L 182.890309 118.570787 
" clip-path="url(#pfba8cd81d7)" style="fill: none; stroke: #8d6dae; stroke-width: 3"/>
    <path d="M 182.890309 118.570787 
L 182.890309 118.771485 
" clip-path="url(#pfba8cd81d7)" style="fill: none; stroke: #8e6dad; stroke-width: 3"/>
    <path d="M 182.890309 118.771485 
L 182.890309 118.967461 
" clip-path="url(#pfba8cd81d7)" style="fill: none; stroke: #8e6dad; stroke-width: 3"/>
    <path d="M 182.890309 118.967461 
L 182.890309 119.159266 
" clip-path="url(#pfba8cd81d7)" style="fill: none; stroke: #8e6cac; stroke-width: 3"/>
    <path d="M 182.890309 119.159266 
L 182.890309 119.347446 
" clip-path="url(#pfba8cd81d7)" style="fill: none; stroke: #8f6cac; stroke-width: 3"/>
    <path d="M 182.890309 119.347446 
L 182.890309 119.532685 
" clip-path="url(#pfba8cd81d7)" style="fill: none; stroke: #8f6bab; stroke-width: 3"/>
    <path d="M 182.890309 119.532685 
L 182.890309 119.715629 
" clip-path="url(#pfba8cd81d7)" style="fill: none; stroke: #906baa; stroke-width: 3"/>
    <path d="M 182.890309 119.715629 
L 182.890309 119.896794 
" clip-path="url(#pfba8cd81d7)" style="fill: none; stroke: #906baa; stroke-width: 3"/>
    <path d="M 182.890309 119.896794 
L 182.890309 120.076654 
" clip-path="url(#pfba8cd81d7)" style="fill: none; stroke: #906aa9; stroke-width: 3"/>
    <path d="M 182.890309 120.076654 
L 182.890309 120.255437 
" clip-path="url(#pfba8cd81d7)" style="fill: none; stroke: #916aa9; stroke-width: 3"/>
    <path d="M 182.890309 120.255437 
L 182.890309 120.433137 
" clip-path="url(#pfba8cd81d7)" style="fill: none; stroke: #916aa8; stroke-width: 3"/>
    <path d="M 182.890309 120.433137 
L 182.890309 120.609718 
" clip-path="url(#pfba8cd81d7)" style="fill: none; stroke: #9169a8; stroke-width: 3"/>
    <path d="M 182.890309 120.609718 
L 182.890309 120.785028 
" clip-path="url(#pfba8cd81d7)" style="fill: none; stroke: #9269a7; stroke-width: 3"/>
    <path d="M 182.890309 120.785028 
L 182.890309 120.958878 
" clip-path="url(#pfba8cd81d7)" style="fill: none; stroke: #9269a7; stroke-width: 3"/>
    <path d="M 182.890309 120.958878 
L 182.890309 121.131186 
" clip-path="url(#pfba8cd81d7)" style="fill: none; stroke: #9268a6; stroke-width: 3"/>
    <path d="M 182.890309 121.131186 
L 182.890309 121.301807 
" clip-path="url(#pfba8cd81d7)" style="fill: none; stroke: #9368a6; stroke-width: 3"/>
    <path d="M 182.890309 121.301807 
L 182.890309 121.470527 
" clip-path="url(#pfba8cd81d7)" style="fill: none; stroke: #9368a5; stroke-width: 3"/>
    <path d="M 182.890309 121.470527 
L 182.890309 121.637105 
" clip-path="url(#pfba8cd81d7)" style="fill: none; stroke: #9367a4; stroke-width: 3"/>
    <path d="M 182.890309 121.637105 
L 182.890309 121.801086 
" clip-path="url(#pfba8cd81d7)" style="fill: none; stroke: #9467a4; stroke-width: 3"/>
    <path d="M 182.890309 121.801086 
L 182.890309 121.961923 
" clip-path="url(#pfba8cd81d7)" style="fill: none; stroke: #9467a3; stroke-width: 3"/>
    <path d="M 182.890309 121.961923 
L 182.890309 122.119123 
" clip-path="url(#pfba8cd81d7)" style="fill: none; stroke: #9466a3; stroke-width: 3"/>
    <path d="M 182.890309 122.119123 
L 182.890309 122.272188 
" clip-path="url(#pfba8cd81d7)" style="fill: none; stroke: #9566a2; stroke-width: 3"/>
    <path d="M 182.890309 122.272188 
L 182.890309 122.420752 
" clip-path="url(#pfba8cd81d7)" style="fill: none; stroke: #9566a2; stroke-width: 3"/>
    <path d="M 182.890309 122.420752 
L 182.890309 122.564661 
" clip-path="url(#pfba8cd81d7)" style="fill: none; stroke: #9665a1; stroke-width: 3"/>
    <path d="M 182.890309 122.564661 
L 182.890309 122.703878 
" clip-path="url(#pfba8cd81d7)" style="fill: none; stroke: #9665a1; stroke-width: 3"/>
    <path d="M 182.890309 122.703878 
L 182.890309 122.838633 
" clip-path="url(#pfba8cd81d7)" style="fill: none; stroke: #9665a0; stroke-width: 3"/>
    <path d="M 182.890309 122.838633 
L 182.890309 122.969473 
" clip-path="url(#pfba8cd81d7)" style="fill: none; stroke: #9764a0; stroke-width: 3"/>
    <path d="M 182.890309 122.969473 
L 182.890309 123.0971 
" clip-path="url(#pfba8cd81d7)" style="fill: none; stroke: #97649f; stroke-width: 3"/>
    <path d="M 182.890309 123.0971 
L 182.890309 123.222431 
" clip-path="url(#pfba8cd81d7)" style="fill: none; stroke: #97649f; stroke-width: 3"/>
    <path d="M 182.890309 123.222431 
L 182.890309 123.346477 
" clip-path="url(#pfba8cd81d7)" style="fill: none; stroke: #98639e; stroke-width: 3"/>
    <path d="M 182.890309 123.346477 
L 182.890309 123.470032 
" clip-path="url(#pfba8cd81d7)" style="fill: none; stroke: #98639d; stroke-width: 3"/>
    <path d="M 182.890309 123.470032 
L 182.890309 123.593679 
" clip-path="url(#pfba8cd81d7)" style="fill: none; stroke: #98639d; stroke-width: 3"/>
    <path d="M 182.890309 123.593679 
L 182.890309 123.717687 
" clip-path="url(#pfba8cd81d7)" style="fill: none; stroke: #99629c; stroke-width: 3"/>
    <path d="M 182.890309 123.717687 
L 182.890309 123.841847 
" clip-path="url(#pfba8cd81d7)" style="fill: none; stroke: #99629c; stroke-width: 3"/>
    <path d="M 182.890309 123.841847 
L 182.890309 123.965708 
" clip-path="url(#pfba8cd81d7)" style="fill: none; stroke: #99629b; stroke-width: 3"/>
    <path d="M 182.890309 123.965708 
L 182.890309 124.088653 
" clip-path="url(#pfba8cd81d7)" style="fill: none; stroke: #9a619b; stroke-width: 3"/>
    <path d="M 182.890309 124.088653 
L 182.890309 124.209938 
" clip-path="url(#pfba8cd81d7)" style="fill: none; stroke: #9a619a; stroke-width: 3"/>
    <path d="M 182.890309 124.209938 
L 182.890309 124.329016 
" clip-path="url(#pfba8cd81d7)" style="fill: none; stroke: #9a619a; stroke-width: 3"/>
    <path d="M 182.890309 124.329016 
L 182.890309 124.445558 
" clip-path="url(#pfba8cd81d7)" style="fill: none; stroke: #9b6099; stroke-width: 3"/>
    <path d="M 182.890309 124.445558 
L 182.890309 124.559332 
" clip-path="url(#pfba8cd81d7)" style="fill: none; stroke: #9b6099; stroke-width: 3"/>
    <path d="M 182.890309 124.559332 
L 182.890309 124.670246 
" clip-path="url(#pfba8cd81d7)" style="fill: none; stroke: #9c6098; stroke-width: 3"/>
    <path d="M 182.890309 124.670246 
L 182.890309 124.778157 
" clip-path="url(#pfba8cd81d7)" style="fill: none; stroke: #9c5f98; stroke-width: 3"/>
    <path d="M 182.890309 124.778157 
L 182.890309 124.882736 
" clip-path="url(#pfba8cd81d7)" style="fill: none; stroke: #9c5f97; stroke-width: 3"/>
    <path d="M 182.890309 124.882736 
L 182.890309 124.983639 
" clip-path="url(#pfba8cd81d7)" style="fill: none; stroke: #9d5f96; stroke-width: 3"/>
    <path d="M 182.890309 124.983639 
L 182.890309 125.080473 
" clip-path="url(#pfba8cd81d7)" style="fill: none; stroke: #9d5e96; stroke-width: 3"/>
    <path d="M 182.890309 125.080473 
L 182.890309 125.172866 
" clip-path="url(#pfba8cd81d7)" style="fill: none; stroke: #9d5e95; stroke-width: 3"/>
    <path d="M 182.890309 125.172866 
L 182.890309 125.260684 
" clip-path="url(#pfba8cd81d7)" style="fill: none; stroke: #9e5e95; stroke-width: 3"/>
    <path d="M 182.890309 125.260684 
L 182.890309 125.343977 
" clip-path="url(#pfba8cd81d7)" style="fill: none; stroke: #9e5d94; stroke-width: 3"/>
    <path d="M 182.890309 125.343977 
L 182.890309 125.422958 
" clip-path="url(#pfba8cd81d7)" style="fill: none; stroke: #9e5d94; stroke-width: 3"/>
    <path d="M 182.890309 125.422958 
L 182.890309 125.498044 
" clip-path="url(#pfba8cd81d7)" style="fill: none; stroke: #9f5d93; stroke-width: 3"/>
    <path d="M 182.890309 125.498044 
L 182.890309 125.56963 
" clip-path="url(#pfba8cd81d7)" style="fill: none; stroke: #9f5c93; stroke-width: 3"/>
    <path d="M 182.890309 125.56963 
L 182.890309 125.637998 
" clip-path="url(#pfba8cd81d7)" style="fill: none; stroke: #9f5c92; stroke-width: 3"/>
    <path d="M 182.890309 125.637998 
L 182.890309 125.703382 
" clip-path="url(#pfba8cd81d7)" style="fill: none; stroke: #a05c92; stroke-width: 3"/>
    <path d="M 182.890309 125.703382 
L 182.890309 125.765789 
" clip-path="url(#pfba8cd81d7)" style="fill: none; stroke: #a05b91; stroke-width: 3"/>
    <path d="M 182.890309 125.765789 
L 182.890309 125.825018 
" clip-path="url(#pfba8cd81d7)" style="fill: none; stroke: #a15b90; stroke-width: 3"/>
    <path d="M 182.890309 125.825018 
L 182.890309 125.880777 
" clip-path="url(#pfba8cd81d7)" style="fill: none; stroke: #a15a90; stroke-width: 3"/>
    <path d="M 182.890309 125.880777 
L 182.890309 125.932611 
" clip-path="url(#pfba8cd81d7)" style="fill: none; stroke: #a15a8f; stroke-width: 3"/>
    <path d="M 182.890309 125.932611 
L 182.890309 125.9801 
" clip-path="url(#pfba8cd81d7)" style="fill: none; stroke: #a25a8f; stroke-width: 3"/>
    <path d="M 182.890309 125.9801 
L 182.890309 126.02318 
" clip-path="url(#pfba8cd81d7)" style="fill: none; stroke: #a2598e; stroke-width: 3"/>
    <path d="M 182.890309 126.02318 
L 182.890309 126.06213 
" clip-path="url(#pfba8cd81d7)" style="fill: none; stroke: #a2598e; stroke-width: 3"/>
    <path d="M 182.890309 126.06213 
L 182.890309 126.097709 
" clip-path="url(#pfba8cd81d7)" style="fill: none; stroke: #a3598d; stroke-width: 3"/>
    <path d="M 182.890309 126.097709 
L 182.890309 126.131135 
" clip-path="url(#pfba8cd81d7)" style="fill: none; stroke: #a3588d; stroke-width: 3"/>
    <path d="M 182.890309 126.131135 
L 182.890309 126.163691 
" clip-path="url(#pfba8cd81d7)" style="fill: none; stroke: #a3588c; stroke-width: 3"/>
    <path d="M 182.890309 126.163691 
L 182.890309 126.196614 
" clip-path="url(#pfba8cd81d7)" style="fill: none; stroke: #a4588c; stroke-width: 3"/>
    <path d="M 182.890309 126.196614 
L 182.890309 126.231015 
" clip-path="url(#pfba8cd81d7)" style="fill: none; stroke: #a4578b; stroke-width: 3"/>
    <path d="M 182.890309 126.231015 
L 182.890309 126.267629 
" clip-path="url(#pfba8cd81d7)" style="fill: none; stroke: #a4578b; stroke-width: 3"/>
    <path d="M 182.890309 126.267629 
L 182.890309 126.306962 
" clip-path="url(#pfba8cd81d7)" style="fill: none; stroke: #a5578a; stroke-width: 3"/>
    <path d="M 182.890309 126.306962 
L 182.890309 126.349342 
" clip-path="url(#pfba8cd81d7)" style="fill: none; stroke: #a55689; stroke-width: 3"/>
    <path d="M 182.890309 126.349342 
L 182.890309 126.394742 
" clip-path="url(#pfba8cd81d7)" style="fill: none; stroke: #a55689; stroke-width: 3"/>
    <path d="M 182.890309 126.394742 
L 182.890309 126.442932 
" clip-path="url(#pfba8cd81d7)" style="fill: none; stroke: #a65688; stroke-width: 3"/>
    <path d="M 182.890309 126.442932 
L 182.890309 126.493533 
" clip-path="url(#pfba8cd81d7)" style="fill: none; stroke: #a65588; stroke-width: 3"/>
    <path d="M 182.890309 126.493533 
L 182.890309 126.54595 
" clip-path="url(#pfba8cd81d7)" style="fill: none; stroke: #a75587; stroke-width: 3"/>
    <path d="M 182.890309 126.54595 
L 182.890309 126.599646 
" clip-path="url(#pfba8cd81d7)" style="fill: none; stroke: #a75587; stroke-width: 3"/>
    <path d="M 182.890309 126.599646 
L 182.890309 126.654207 
" clip-path="url(#pfba8cd81d7)" style="fill: none; stroke: #a75486; stroke-width: 3"/>
    <path d="M 182.890309 126.654207 
L 182.890309 126.709213 
" clip-path="url(#pfba8cd81d7)" style="fill: none; stroke: #a85486; stroke-width: 3"/>
    <path d="M 182.890309 126.709213 
L 182.890309 126.764381 
" clip-path="url(#pfba8cd81d7)" style="fill: none; stroke: #a85485; stroke-width: 3"/>
    <path d="M 182.890309 126.764381 
L 182.890309 126.819498 
" clip-path="url(#pfba8cd81d7)" style="fill: none; stroke: #a85385; stroke-width: 3"/>
    <path d="M 182.890309 126.819498 
L 182.890309 126.874304 
" clip-path="url(#pfba8cd81d7)" style="fill: none; stroke: #a95384; stroke-width: 3"/>
    <path d="M 182.890309 126.874304 
L 182.890309 126.928679 
" clip-path="url(#pfba8cd81d7)" style="fill: none; stroke: #a95383; stroke-width: 3"/>
    <path d="M 182.890309 126.928679 
L 182.890309 126.982595 
" clip-path="url(#pfba8cd81d7)" style="fill: none; stroke: #a95283; stroke-width: 3"/>
    <path d="M 182.890309 126.982595 
L 182.890309 127.035987 
" clip-path="url(#pfba8cd81d7)" style="fill: none; stroke: #aa5282; stroke-width: 3"/>
    <path d="M 182.890309 127.035987 
L 182.890309 127.088891 
" clip-path="url(#pfba8cd81d7)" style="fill: none; stroke: #aa5282; stroke-width: 3"/>
    <path d="M 182.890309 127.088891 
L 182.890309 127.141347 
" clip-path="url(#pfba8cd81d7)" style="fill: none; stroke: #aa5181; stroke-width: 3"/>
    <path d="M 182.890309 127.141347 
L 182.890309 127.193321 
" clip-path="url(#pfba8cd81d7)" style="fill: none; stroke: #ab5181; stroke-width: 3"/>
    <path d="M 182.890309 127.193321 
L 182.890309 127.244898 
" clip-path="url(#pfba8cd81d7)" style="fill: none; stroke: #ab5180; stroke-width: 3"/>
    <path d="M 182.890309 127.244898 
L 182.890309 127.296162 
" clip-path="url(#pfba8cd81d7)" style="fill: none; stroke: #ab5080; stroke-width: 3"/>
    <path d="M 182.890309 127.296162 
L 182.890309 127.347089 
" clip-path="url(#pfba8cd81d7)" style="fill: none; stroke: #ac507f; stroke-width: 3"/>
    <path d="M 182.890309 127.347089 
L 182.890309 127.397655 
" clip-path="url(#pfba8cd81d7)" style="fill: none; stroke: #ac507f; stroke-width: 3"/>
    <path d="M 182.890309 127.397655 
L 182.890309 127.447663 
" clip-path="url(#pfba8cd81d7)" style="fill: none; stroke: #ad4f7e; stroke-width: 3"/>
    <path d="M 182.890309 127.447663 
L 182.890309 127.496694 
" clip-path="url(#pfba8cd81d7)" style="fill: none; stroke: #ad4f7e; stroke-width: 3"/>
    <path d="M 182.890309 127.496694 
L 182.890309 127.54428 
" clip-path="url(#pfba8cd81d7)" style="fill: none; stroke: #ad4f7d; stroke-width: 3"/>
    <path d="M 182.890309 127.54428 
L 182.890309 127.589804 
" clip-path="url(#pfba8cd81d7)" style="fill: none; stroke: #ae4e7c; stroke-width: 3"/>
    <path d="M 182.890309 127.589804 
L 182.890309 127.632568 
" clip-path="url(#pfba8cd81d7)" style="fill: none; stroke: #ae4e7c; stroke-width: 3"/>
    <path d="M 182.890309 127.632568 
L 182.890309 127.672047 
" clip-path="url(#pfba8cd81d7)" style="fill: none; stroke: #ae4e7b; stroke-width: 3"/>
    <path d="M 182.890309 127.672047 
L 182.890309 127.707855 
" clip-path="url(#pfba8cd81d7)" style="fill: none; stroke: #af4d7b; stroke-width: 3"/>
    <path d="M 182.890309 127.707855 
L 182.890309 127.739873 
" clip-path="url(#pfba8cd81d7)" style="fill: none; stroke: #af4d7a; stroke-width: 3"/>
    <path d="M 182.890309 127.739873 
L 182.890309 127.768387 
" clip-path="url(#pfba8cd81d7)" style="fill: none; stroke: #af4d7a; stroke-width: 3"/>
    <path d="M 182.890309 127.768387 
L 182.890309 127.793883 
" clip-path="url(#pfba8cd81d7)" style="fill: none; stroke: #b04c79; stroke-width: 3"/>
    <path d="M 182.890309 127.793883 
L 182.890309 127.817019 
" clip-path="url(#pfba8cd81d7)" style="fill: none; stroke: #b04c79; stroke-width: 3"/>
    <path d="M 182.890309 127.817019 
L 182.890309 127.838632 
" clip-path="url(#pfba8cd81d7)" style="fill: none; stroke: #b04c78; stroke-width: 3"/>
    <path d="M 182.890309 127.838632 
L 182.890309 127.859464 
" clip-path="url(#pfba8cd81d7)" style="fill: none; stroke: #b14b78; stroke-width: 3"/>
    <path d="M 182.890309 127.859464 
L 182.890309 127.880144 
" clip-path="url(#pfba8cd81d7)" style="fill: none; stroke: #b14b77; stroke-width: 3"/>
    <path d="M 182.890309 127.880144 
L 182.890309 127.901175 
" clip-path="url(#pfba8cd81d7)" style="fill: none; stroke: #b24a77; stroke-width: 3"/>
    <path d="M 182.890309 127.901175 
L 182.890309 127.922713 
" clip-path="url(#pfba8cd81d7)" style="fill: none; stroke: #b24a76; stroke-width: 3"/>
    <path d="M 182.890309 127.922713 
L 182.890309 127.944668 
" clip-path="url(#pfba8cd81d7)" style="fill: none; stroke: #b24a75; stroke-width: 3"/>
    <path d="M 182.890309 127.944668 
L 182.890309 127.966859 
" clip-path="url(#pfba8cd81d7)" style="fill: none; stroke: #b34975; stroke-width: 3"/>
    <path d="M 182.890309 127.966859 
L 182.890309 127.988932 
" clip-path="url(#pfba8cd81d7)" style="fill: none; stroke: #b34974; stroke-width: 3"/>
    <path d="M 182.890309 127.988932 
L 182.890309 128.010628 
" clip-path="url(#pfba8cd81d7)" style="fill: none; stroke: #b34974; stroke-width: 3"/>
    <path d="M 182.890309 128.010628 
L 182.890309 128.031919 
" clip-path="url(#pfba8cd81d7)" style="fill: none; stroke: #b44873; stroke-width: 3"/>
    <path d="M 182.890309 128.031919 
L 182.890309 128.052817 
" clip-path="url(#pfba8cd81d7)" style="fill: none; stroke: #b44873; stroke-width: 3"/>
    <path d="M 182.890309 128.052817 
L 182.890309 128.07348 
" clip-path="url(#pfba8cd81d7)" style="fill: none; stroke: #b44872; stroke-width: 3"/>
    <path d="M 182.890309 128.07348 
L 182.890309 128.094162 
" clip-path="url(#pfba8cd81d7)" style="fill: none; stroke: #b54772; stroke-width: 3"/>
    <path d="M 182.890309 128.094162 
L 182.890309 128.114916 
" clip-path="url(#pfba8cd81d7)" style="fill: none; stroke: #b54771; stroke-width: 3"/>
    <path d="M 182.890309 128.114916 
L 182.890309 128.135735 
" clip-path="url(#pfba8cd81d7)" style="fill: none; stroke: #b54771; stroke-width: 3"/>
    <path d="M 182.890309 128.135735 
L 182.890309 128.156548 
" clip-path="url(#pfba8cd81d7)" style="fill: none; stroke: #b64670; stroke-width: 3"/>
    <path d="M 182.890309 128.156548 
L 182.890309 128.177034 
" clip-path="url(#pfba8cd81d7)" style="fill: none; stroke: #b6466f; stroke-width: 3"/>
    <path d="M 182.890309 128.177034 
L 182.890309 128.196864 
" clip-path="url(#pfba8cd81d7)" style="fill: none; stroke: #b6466f; stroke-width: 3"/>
    <path d="M 182.890309 128.196864 
L 182.890309 128.215715 
" clip-path="url(#pfba8cd81d7)" style="fill: none; stroke: #b7456e; stroke-width: 3"/>
    <path d="M 182.890309 128.215715 
L 182.890309 128.233167 
" clip-path="url(#pfba8cd81d7)" style="fill: none; stroke: #b7456e; stroke-width: 3"/>
    <path d="M 182.890309 128.233167 
L 182.890309 128.248989 
" clip-path="url(#pfba8cd81d7)" style="fill: none; stroke: #b8456d; stroke-width: 3"/>
    <path d="M 182.890309 128.248989 
L 182.890309 128.263141 
" clip-path="url(#pfba8cd81d7)" style="fill: none; stroke: #b8446d; stroke-width: 3"/>
    <path d="M 182.890309 128.263141 
L 182.890309 128.275676 
" clip-path="url(#pfba8cd81d7)" style="fill: none; stroke: #b8446c; stroke-width: 3"/>
    <path d="M 182.890309 128.275676 
L 182.890309 128.286928 
" clip-path="url(#pfba8cd81d7)" style="fill: none; stroke: #b9446c; stroke-width: 3"/>
    <path d="M 182.890309 128.286928 
L 182.890309 128.297366 
" clip-path="url(#pfba8cd81d7)" style="fill: none; stroke: #b9436b; stroke-width: 3"/>
    <path d="M 182.890309 128.297366 
L 182.890309 128.307411 
" clip-path="url(#pfba8cd81d7)" style="fill: none; stroke: #b9436b; stroke-width: 3"/>
    <path d="M 182.890309 128.307411 
L 182.890309 128.317521 
" clip-path="url(#pfba8cd81d7)" style="fill: none; stroke: #ba436a; stroke-width: 3"/>
    <path d="M 182.890309 128.317521 
L 182.890309 128.328037 
" clip-path="url(#pfba8cd81d7)" style="fill: none; stroke: #ba426a; stroke-width: 3"/>
    <path d="M 182.890309 128.328037 
L 182.890309 128.339076 
" clip-path="url(#pfba8cd81d7)" style="fill: none; stroke: #ba4269; stroke-width: 3"/>
    <path d="M 182.890309 128.339076 
L 182.890309 128.350689 
" clip-path="url(#pfba8cd81d7)" style="fill: none; stroke: #bb4268; stroke-width: 3"/>
    <path d="M 182.890309 128.350689 
L 182.890309 128.362751 
" clip-path="url(#pfba8cd81d7)" style="fill: none; stroke: #bb4168; stroke-width: 3"/>
    <path d="M 182.890309 128.362751 
L 182.890309 128.374969 
" clip-path="url(#pfba8cd81d7)" style="fill: none; stroke: #bb4167; stroke-width: 3"/>
    <path d="M 182.890309 128.374969 
L 182.890309 128.387154 
" clip-path="url(#pfba8cd81d7)" style="fill: none; stroke: #bc4167; stroke-width: 3"/>
    <path d="M 182.890309 128.387154 
L 182.890309 128.399178 
" clip-path="url(#pfba8cd81d7)" style="fill: none; stroke: #bc4066; stroke-width: 3"/>
    <path d="M 182.890309 128.399178 
L 182.890309 128.41101 
" clip-path="url(#pfba8cd81d7)" style="fill: none; stroke: #bc4066; stroke-width: 3"/>
    <path d="M 182.890309 128.41101 
L 182.890309 128.422858 
" clip-path="url(#pfba8cd81d7)" style="fill: none; stroke: #bd4065; stroke-width: 3"/>
    <path d="M 182.890309 128.422858 
L 182.890309 128.434975 
" clip-path="url(#pfba8cd81d7)" style="fill: none; stroke: #bd3f65; stroke-width: 3"/>
    <path d="M 182.890309 128.434975 
L 182.890309 128.447617 
" clip-path="url(#pfba8cd81d7)" style="fill: none; stroke: #be3f64; stroke-width: 3"/>
    <path d="M 182.890309 128.447617 
L 182.890309 128.461166 
" clip-path="url(#pfba8cd81d7)" style="fill: none; stroke: #be3f64; stroke-width: 3"/>
    <path d="M 182.890309 128.461166 
L 182.890309 128.475939 
" clip-path="url(#pfba8cd81d7)" style="fill: none; stroke: #be3e63; stroke-width: 3"/>
    <path d="M 182.890309 128.475939 
L 182.890309 128.492234 
" clip-path="url(#pfba8cd81d7)" style="fill: none; stroke: #bf3e62; stroke-width: 3"/>
    <path d="M 182.890309 128.492234 
L 182.890309 128.510465 
" clip-path="url(#pfba8cd81d7)" style="fill: none; stroke: #bf3e62; stroke-width: 3"/>
    <path d="M 182.890309 128.510465 
L 182.890309 128.530975 
" clip-path="url(#pfba8cd81d7)" style="fill: none; stroke: #bf3d61; stroke-width: 3"/>
    <path d="M 182.890309 128.530975 
L 182.890309 128.554101 
" clip-path="url(#pfba8cd81d7)" style="fill: none; stroke: #c03d61; stroke-width: 3"/>
    <path d="M 182.890309 128.554101 
L 182.890309 128.580252 
" clip-path="url(#pfba8cd81d7)" style="fill: none; stroke: #c03d60; stroke-width: 3"/>
    <path d="M 182.890309 128.580252 
L 182.890309 128.609651 
" clip-path="url(#pfba8cd81d7)" style="fill: none; stroke: #c03c60; stroke-width: 3"/>
    <path d="M 182.890309 128.609651 
L 182.890309 128.642362 
" clip-path="url(#pfba8cd81d7)" style="fill: none; stroke: #c13c5f; stroke-width: 3"/>
    <path d="M 182.890309 128.642362 
L 182.890309 128.678286 
" clip-path="url(#pfba8cd81d7)" style="fill: none; stroke: #c13c5f; stroke-width: 3"/>
    <path d="M 182.890309 128.678286 
L 182.890309 128.716937 
" clip-path="url(#pfba8cd81d7)" style="fill: none; stroke: #c13b5e; stroke-width: 3"/>
    <path d="M 182.890309 128.716937 
L 182.890309 128.757591 
" clip-path="url(#pfba8cd81d7)" style="fill: none; stroke: #c23b5e; stroke-width: 3"/>
    <path d="M 182.890309 128.757591 
L 182.890309 128.799405 
" clip-path="url(#pfba8cd81d7)" style="fill: none; stroke: #c23b5d; stroke-width: 3"/>
    <path d="M 182.890309 128.799405 
L 182.890309 128.841315 
" clip-path="url(#pfba8cd81d7)" style="fill: none; stroke: #c23a5d; stroke-width: 3"/>
    <path d="M 182.890309 128.841315 
L 182.890309 128.882256 
" clip-path="url(#pfba8cd81d7)" style="fill: none; stroke: #c33a5c; stroke-width: 3"/>
    <path d="M 182.890309 128.882256 
L 182.890309 128.921251 
" clip-path="url(#pfba8cd81d7)" style="fill: none; stroke: #c3395b; stroke-width: 3"/>
    <path d="M 182.890309 128.921251 
L 182.890309 128.957332 
" clip-path="url(#pfba8cd81d7)" style="fill: none; stroke: #c4395b; stroke-width: 3"/>
    <path d="M 182.890309 128.957332 
L 182.890309 128.989793 
" clip-path="url(#pfba8cd81d7)" style="fill: none; stroke: #c4395a; stroke-width: 3"/>
    <path d="M 182.890309 128.989793 
L 182.890309 129.018259 
" clip-path="url(#pfba8cd81d7)" style="fill: none; stroke: #c4385a; stroke-width: 3"/>
    <path d="M 182.890309 129.018259 
L 182.890309 129.04253 
" clip-path="url(#pfba8cd81d7)" style="fill: none; stroke: #c53859; stroke-width: 3"/>
    <path d="M 182.890309 129.04253 
L 182.890309 129.062677 
" clip-path="url(#pfba8cd81d7)" style="fill: none; stroke: #c53859; stroke-width: 3"/>
    <path d="M 182.890309 129.062677 
L 182.890309 129.078911 
" clip-path="url(#pfba8cd81d7)" style="fill: none; stroke: #c53758; stroke-width: 3"/>
    <path d="M 182.890309 129.078911 
L 182.890309 129.09136 
" clip-path="url(#pfba8cd81d7)" style="fill: none; stroke: #c63758; stroke-width: 3"/>
    <path d="M 182.890309 129.09136 
L 182.890309 129.100262 
" clip-path="url(#pfba8cd81d7)" style="fill: none; stroke: #c63757; stroke-width: 3"/>
    <path d="M 182.890309 129.100262 
L 182.890309 129.105969 
" clip-path="url(#pfba8cd81d7)" style="fill: none; stroke: #c63657; stroke-width: 3"/>
    <path d="M 182.890309 129.105969 
L 182.890309 129.108897 
" clip-path="url(#pfba8cd81d7)" style="fill: none; stroke: #c73656; stroke-width: 3"/>
    <path d="M 182.890309 129.108897 
L 182.890309 129.109731 
" clip-path="url(#pfba8cd81d7)" style="fill: none; stroke: #c73655; stroke-width: 3"/>
    <path d="M 182.890309 129.109731 
L 182.890309 129.109331 
" clip-path="url(#pfba8cd81d7)" style="fill: none; stroke: #c73555; stroke-width: 3"/>
    <path d="M 182.890309 129.109331 
L 182.890309 129.108547 
" clip-path="url(#pfba8cd81d7)" style="fill: none; stroke: #c83554; stroke-width: 3"/>
    <path d="M 182.890309 129.108547 
L 182.890309 129.10829 
" clip-path="url(#pfba8cd81d7)" style="fill: none; stroke: #c83554; stroke-width: 3"/>
    <path d="M 182.890309 129.10829 
L 182.890309 129.109282 
" clip-path="url(#pfba8cd81d7)" style="fill: none; stroke: #c93453; stroke-width: 3"/>
    <path d="M 182.890309 129.109282 
L 182.890309 129.111842 
" clip-path="url(#pfba8cd81d7)" style="fill: none; stroke: #c93453; stroke-width: 3"/>
    <path d="M 182.890309 129.111842 
L 182.890309 129.116014 
" clip-path="url(#pfba8cd81d7)" style="fill: none; stroke: #c93452; stroke-width: 3"/>
    <path d="M 182.890309 129.116014 
L 182.890309 129.12146 
" clip-path="url(#pfba8cd81d7)" style="fill: none; stroke: #ca3352; stroke-width: 3"/>
    <path d="M 182.890309 129.12146 
L 182.890309 129.127503 
" clip-path="url(#pfba8cd81d7)" style="fill: none; stroke: #ca3351; stroke-width: 3"/>
    <path d="M 182.890309 129.127503 
L 182.890309 129.13344 
" clip-path="url(#pfba8cd81d7)" style="fill: none; stroke: #ca3351; stroke-width: 3"/>
    <path d="M 182.890309 129.13344 
L 182.890309 129.138521 
" clip-path="url(#pfba8cd81d7)" style="fill: none; stroke: #cb3250; stroke-width: 3"/>
    <path d="M 182.890309 129.138521 
L 182.890309 129.142054 
" clip-path="url(#pfba8cd81d7)" style="fill: none; stroke: #cb3250; stroke-width: 3"/>
    <path d="M 182.890309 129.142054 
L 182.890309 129.143695 
" clip-path="url(#pfba8cd81d7)" style="fill: none; stroke: #cb324f; stroke-width: 3"/>
    <path d="M 182.890309 129.143695 
L 182.890309 129.143397 
" clip-path="url(#pfba8cd81d7)" style="fill: none; stroke: #cc314e; stroke-width: 3"/>
    <path d="M 182.890309 129.143397 
L 182.890309 129.141458 
" clip-path="url(#pfba8cd81d7)" style="fill: none; stroke: #cc314e; stroke-width: 3"/>
    <path d="M 182.890309 129.141458 
L 182.890309 129.138595 
" clip-path="url(#pfba8cd81d7)" style="fill: none; stroke: #cc314d; stroke-width: 3"/>
    <path d="M 182.890309 129.138595 
L 182.890309 129.135605 
" clip-path="url(#pfba8cd81d7)" style="fill: none; stroke: #cd304d; stroke-width: 3"/>
    <path d="M 182.890309 129.135605 
L 182.890309 129.133196 
" clip-path="url(#pfba8cd81d7)" style="fill: none; stroke: #cd304c; stroke-width: 3"/>
    <path d="M 182.890309 129.133196 
L 182.890309 129.131974 
" clip-path="url(#pfba8cd81d7)" style="fill: none; stroke: #cd304c; stroke-width: 3"/>
    <path d="M 182.890309 129.131974 
L 182.890309 129.132186 
" clip-path="url(#pfba8cd81d7)" style="fill: none; stroke: #ce2f4b; stroke-width: 3"/>
    <path d="M 182.890309 129.132186 
L 182.890309 129.133785 
" clip-path="url(#pfba8cd81d7)" style="fill: none; stroke: #ce2f4b; stroke-width: 3"/>
    <path d="M 182.890309 129.133785 
L 182.890309 129.13659 
" clip-path="url(#pfba8cd81d7)" style="fill: none; stroke: #cf2f4a; stroke-width: 3"/>
    <path d="M 182.890309 129.13659 
L 182.890309 129.140152 
" clip-path="url(#pfba8cd81d7)" style="fill: none; stroke: #cf2e4a; stroke-width: 3"/>
    <path d="M 182.890309 129.140152 
L 182.890309 129.143944 
" clip-path="url(#pfba8cd81d7)" style="fill: none; stroke: #cf2e49; stroke-width: 3"/>
    <path d="M 182.890309 129.143944 
L 182.890309 129.147551 
" clip-path="url(#pfba8cd81d7)" style="fill: none; stroke: #d02e49; stroke-width: 3"/>
    <path d="M 182.890309 129.147551 
L 182.890309 129.150604 
" clip-path="url(#pfba8cd81d7)" style="fill: none; stroke: #d02d48; stroke-width: 3"/>
    <path d="M 182.890309 129.150604 
L 182.890309 129.153036 
" clip-path="url(#pfba8cd81d7)" style="fill: none; stroke: #d02d47; stroke-width: 3"/>
    <path d="M 182.890309 129.153036 
L 182.890309 129.15522 
" clip-path="url(#pfba8cd81d7)" style="fill: none; stroke: #d12d47; stroke-width: 3"/>
    <path d="M 182.890309 129.15522 
L 182.890309 129.157757 
" clip-path="url(#pfba8cd81d7)" style="fill: none; stroke: #d12c46; stroke-width: 3"/>
    <path d="M 182.890309 129.157757 
L 182.890309 129.161484 
" clip-path="url(#pfba8cd81d7)" style="fill: none; stroke: #d12c46; stroke-width: 3"/>
    <path d="M 182.890309 129.161484 
L 182.890309 129.167294 
" clip-path="url(#pfba8cd81d7)" style="fill: none; stroke: #d22c45; stroke-width: 3"/>
    <path d="M 182.890309 129.167294 
L 182.890309 129.175765 
" clip-path="url(#pfba8cd81d7)" style="fill: none; stroke: #d22b45; stroke-width: 3"/>
    <path d="M 182.890309 129.175765 
L 182.890309 129.187244 
" clip-path="url(#pfba8cd81d7)" style="fill: none; stroke: #d22b44; stroke-width: 3"/>
    <path d="M 182.890309 129.187244 
L 182.890309 129.201875 
" clip-path="url(#pfba8cd81d7)" style="fill: none; stroke: #d32b44; stroke-width: 3"/>
    <path d="M 182.890309 129.201875 
L 182.890309 129.219476 
" clip-path="url(#pfba8cd81d7)" style="fill: none; stroke: #d32a43; stroke-width: 3"/>
    <path d="M 182.890309 129.219476 
L 182.890309 129.23979 
" clip-path="url(#pfba8cd81d7)" style="fill: none; stroke: #d32a43; stroke-width: 3"/>
    <path d="M 182.890309 129.23979 
L 182.890309 129.262501 
" clip-path="url(#pfba8cd81d7)" style="fill: none; stroke: #d42a42; stroke-width: 3"/>
    <path d="M 182.890309 129.262501 
L 182.890309 129.287096 
" clip-path="url(#pfba8cd81d7)" style="fill: none; stroke: #d42941; stroke-width: 3"/>
    <path d="M 182.890309 129.287096 
L 182.890309 129.313056 
" clip-path="url(#pfba8cd81d7)" style="fill: none; stroke: #d52941; stroke-width: 3"/>
    <path d="M 182.890309 129.313056 
L 182.890309 129.339793 
" clip-path="url(#pfba8cd81d7)" style="fill: none; stroke: #d52840; stroke-width: 3"/>
    <path d="M 182.890309 129.339793 
L 182.890309 129.366564 
" clip-path="url(#pfba8cd81d7)" style="fill: none; stroke: #d52840; stroke-width: 3"/>
    <path d="M 182.890309 129.366564 
L 182.890309 129.392754 
" clip-path="url(#pfba8cd81d7)" style="fill: none; stroke: #d6283f; stroke-width: 3"/>
    <path d="M 182.890309 129.392754 
L 182.890309 129.417907 
" clip-path="url(#pfba8cd81d7)" style="fill: none; stroke: #d6273f; stroke-width: 3"/>
    <path d="M 182.890309 129.417907 
L 182.890309 129.441675 
" clip-path="url(#pfba8cd81d7)" style="fill: none; stroke: #d6273e; stroke-width: 3"/>
    <path d="M 182.890309 129.441675 
L 182.890309 129.463915 
" clip-path="url(#pfba8cd81d7)" style="fill: none; stroke: #d7273e; stroke-width: 3"/>
    <path d="M 182.890309 129.463915 
L 182.890309 129.484453 
" clip-path="url(#pfba8cd81d7)" style="fill: none; stroke: #d7263d; stroke-width: 3"/>
    <path d="M 182.890309 129.484453 
L 182.890309 129.502885 
" clip-path="url(#pfba8cd81d7)" style="fill: none; stroke: #d7263d; stroke-width: 3"/>
    <path d="M 182.890309 129.502885 
L 182.890309 129.518703 
" clip-path="url(#pfba8cd81d7)" style="fill: none; stroke: #d8263c; stroke-width: 3"/>
    <path d="M 182.890309 129.518703 
L 182.890309 129.531297 
" clip-path="url(#pfba8cd81d7)" style="fill: none; stroke: #d8253c; stroke-width: 3"/>
    <path d="M 182.890309 129.531297 
L 182.890309 129.540135 
" clip-path="url(#pfba8cd81d7)" style="fill: none; stroke: #d8253b; stroke-width: 3"/>
    <path d="M 182.890309 129.540135 
L 182.890309 129.545133 
" clip-path="url(#pfba8cd81d7)" style="fill: none; stroke: #d9253a; stroke-width: 3"/>
    <path d="M 182.890309 129.545133 
L 182.890309 129.546615 
" clip-path="url(#pfba8cd81d7)" style="fill: none; stroke: #d9243a; stroke-width: 3"/>
    <path d="M 182.890309 129.546615 
L 182.890309 129.545227 
" clip-path="url(#pfba8cd81d7)" style="fill: none; stroke: #d92439; stroke-width: 3"/>
    <path d="M 182.890309 129.545227 
L 182.890309 129.54187 
" clip-path="url(#pfba8cd81d7)" style="fill: none; stroke: #da2439; stroke-width: 3"/>
    <path d="M 182.890309 129.54187 
L 182.890309 129.537311 
" clip-path="url(#pfba8cd81d7)" style="fill: none; stroke: #da2338; stroke-width: 3"/>
    <path d="M 182.890309 129.537311 
L 182.890309 129.532005 
" clip-path="url(#pfba8cd81d7)" style="fill: none; stroke: #db2338; stroke-width: 3"/>
    <path d="M 182.890309 129.532005 
L 182.890309 129.526171 
" clip-path="url(#pfba8cd81d7)" style="fill: none; stroke: #db2337; stroke-width: 3"/>
    <path d="M 182.890309 129.526171 
L 182.890309 129.519652 
" clip-path="url(#pfba8cd81d7)" style="fill: none; stroke: #db2237; stroke-width: 3"/>
    <path d="M 182.890309 129.519652 
L 182.890309 129.512062 
" clip-path="url(#pfba8cd81d7)" style="fill: none; stroke: #dc2236; stroke-width: 3"/>
    <path d="M 182.890309 129.512062 
L 182.890309 129.503069 
" clip-path="url(#pfba8cd81d7)" style="fill: none; stroke: #dc2236; stroke-width: 3"/>
    <path d="M 182.890309 129.503069 
L 182.890309 129.492314 
" clip-path="url(#pfba8cd81d7)" style="fill: none; stroke: #dc2135; stroke-width: 3"/>
    <path d="M 182.890309 129.492314 
L 182.890309 129.47956 
" clip-path="url(#pfba8cd81d7)" style="fill: none; stroke: #dd2134; stroke-width: 3"/>
    <path d="M 182.890309 129.47956 
L 182.890309 129.464864 
" clip-path="url(#pfba8cd81d7)" style="fill: none; stroke: #dd2134; stroke-width: 3"/>
    <path d="M 182.890309 129.464864 
L 182.890309 129.448359 
" clip-path="url(#pfba8cd81d7)" style="fill: none; stroke: #dd2033; stroke-width: 3"/>
    <path d="M 182.890309 129.448359 
L 182.890309 129.430347 
" clip-path="url(#pfba8cd81d7)" style="fill: none; stroke: #de2033; stroke-width: 3"/>
    <path d="M 182.890309 129.430347 
L 182.890309 129.411411 
" clip-path="url(#pfba8cd81d7)" style="fill: none; stroke: #de2032; stroke-width: 3"/>
    <path d="M 182.890309 129.411411 
L 182.890309 129.392157 
" clip-path="url(#pfba8cd81d7)" style="fill: none; stroke: #de1f32; stroke-width: 3"/>
    <path d="M 182.890309 129.392157 
L 182.890309 129.373283 
" clip-path="url(#pfba8cd81d7)" style="fill: none; stroke: #df1f31; stroke-width: 3"/>
    <path d="M 182.890309 129.373283 
L 182.890309 129.355536 
" clip-path="url(#pfba8cd81d7)" style="fill: none; stroke: #df1f31; stroke-width: 3"/>
    <path d="M 182.890309 129.355536 
L 182.890309 129.339341 
" clip-path="url(#pfba8cd81d7)" style="fill: none; stroke: #e01e30; stroke-width: 3"/>
    <path d="M 182.890309 129.339341 
L 182.890309 129.324853 
" clip-path="url(#pfba8cd81d7)" style="fill: none; stroke: #e01e30; stroke-width: 3"/>
    <path d="M 182.890309 129.324853 
L 182.890309 129.312014 
" clip-path="url(#pfba8cd81d7)" style="fill: none; stroke: #e01e2f; stroke-width: 3"/>
    <path d="M 182.890309 129.312014 
L 182.890309 129.300466 
" clip-path="url(#pfba8cd81d7)" style="fill: none; stroke: #e11d2f; stroke-width: 3"/>
    <path d="M 182.890309 129.300466 
L 182.890309 129.289905 
" clip-path="url(#pfba8cd81d7)" style="fill: none; stroke: #e11d2e; stroke-width: 3"/>
    <path d="M 182.890309 129.289905 
L 182.890309 129.280272 
" clip-path="url(#pfba8cd81d7)" style="fill: none; stroke: #e11d2d; stroke-width: 3"/>
    <path d="M 182.890309 129.280272 
L 182.890309 129.271607 
" clip-path="url(#pfba8cd81d7)" style="fill: none; stroke: #e21c2d; stroke-width: 3"/>
    <path d="M 182.890309 129.271607 
L 182.890309 129.264171 
" clip-path="url(#pfba8cd81d7)" style="fill: none; stroke: #e21c2c; stroke-width: 3"/>
    <path d="M 182.890309 129.264171 
L 182.890309 129.258299 
" clip-path="url(#pfba8cd81d7)" style="fill: none; stroke: #e21c2c; stroke-width: 3"/>
    <path d="M 182.890309 129.258299 
L 182.890309 129.254144 
" clip-path="url(#pfba8cd81d7)" style="fill: none; stroke: #e31b2b; stroke-width: 3"/>
    <path d="M 182.890309 129.254144 
L 182.890309 129.251891 
" clip-path="url(#pfba8cd81d7)" style="fill: none; stroke: #e31b2b; stroke-width: 3"/>
    <path d="M 182.890309 129.251891 
L 182.890309 129.251805 
" clip-path="url(#pfba8cd81d7)" style="fill: none; stroke: #e31b2a; stroke-width: 3"/>
    <path d="M 182.890309 129.251805 
L 182.890309 129.254187 
" clip-path="url(#pfba8cd81d7)" style="fill: none; stroke: #e41a2a; stroke-width: 3"/>
    <path d="M 182.890309 129.254187 
L 182.890309 129.259561 
" clip-path="url(#pfba8cd81d7)" style="fill: none; stroke: #e41a29; stroke-width: 3"/>
    <path d="M 182.890309 129.259561 
L 182.890309 129.268491 
" clip-path="url(#pfba8cd81d7)" style="fill: none; stroke: #e41a29; stroke-width: 3"/>
    <path d="M 182.890309 129.268491 
L 182.890309 129.281266 
" clip-path="url(#pfba8cd81d7)" style="fill: none; stroke: #e51928; stroke-width: 3"/>
    <path d="M 182.890309 129.281266 
L 182.890309 129.297907 
" clip-path="url(#pfba8cd81d7)" style="fill: none; stroke: #e51928; stroke-width: 3"/>
    <path d="M 182.890309 129.297907 
L 182.890309 129.317983 
" clip-path="url(#pfba8cd81d7)" style="fill: none; stroke: #e61827; stroke-width: 3"/>
    <path d="M 182.890309 129.317983 
L 182.890309 129.340525 
" clip-path="url(#pfba8cd81d7)" style="fill: none; stroke: #e61826; stroke-width: 3"/>
    <path d="M 182.890309 129.340525 
L 182.890309 129.364317 
" clip-path="url(#pfba8cd81d7)" style="fill: none; stroke: #e61826; stroke-width: 3"/>
    <path d="M 182.890309 129.364317 
L 182.890309 129.387968 
" clip-path="url(#pfba8cd81d7)" style="fill: none; stroke: #e71725; stroke-width: 3"/>
    <path d="M 182.890309 129.387968 
L 182.890309 129.410056 
" clip-path="url(#pfba8cd81d7)" style="fill: none; stroke: #e71725; stroke-width: 3"/>
    <path d="M 182.890309 129.410056 
L 182.890309 129.429523 
" clip-path="url(#pfba8cd81d7)" style="fill: none; stroke: #e71724; stroke-width: 3"/>
    <path d="M 182.890309 129.429523 
L 182.890309 129.445694 
" clip-path="url(#pfba8cd81d7)" style="fill: none; stroke: #e81624; stroke-width: 3"/>
    <path d="M 182.890309 129.445694 
L 182.890309 129.458327 
" clip-path="url(#pfba8cd81d7)" style="fill: none; stroke: #e81623; stroke-width: 3"/>
    <path d="M 182.890309 129.458327 
L 182.890309 129.467727 
" clip-path="url(#pfba8cd81d7)" style="fill: none; stroke: #e81623; stroke-width: 3"/>
    <path d="M 182.890309 129.467727 
L 182.890309 129.474473 
" clip-path="url(#pfba8cd81d7)" style="fill: none; stroke: #e91522; stroke-width: 3"/>
    <path d="M 182.890309 129.474473 
L 182.890309 129.479262 
" clip-path="url(#pfba8cd81d7)" style="fill: none; stroke: #e91522; stroke-width: 3"/>
    <path d="M 182.890309 129.479262 
L 182.890309 129.48291 
" clip-path="url(#pfba8cd81d7)" style="fill: none; stroke: #e91521; stroke-width: 3"/>
    <path d="M 182.890309 129.48291 
L 182.890309 129.486078 
" clip-path="url(#pfba8cd81d7)" style="fill: none; stroke: #ea1420; stroke-width: 3"/>
    <path d="M 182.890309 129.486078 
L 182.890309 129.489216 
" clip-path="url(#pfba8cd81d7)" style="fill: none; stroke: #ea1420; stroke-width: 3"/>
    <path d="M 182.890309 129.489216 
L 182.890309 129.492677 
" clip-path="url(#pfba8cd81d7)" style="fill: none; stroke: #ea141f; stroke-width: 3"/>
    <path d="M 182.890309 129.492677 
L 182.885005 129.501776 
" clip-path="url(#pfba8cd81d7)" style="fill: none; stroke: #eb131f; stroke-width: 3"/>
    <path d="M 182.885005 129.501776 
L 182.848942 129.536329 
" clip-path="url(#pfba8cd81d7)" style="fill: none; stroke: #eb131e; stroke-width: 3"/>
    <path d="M 182.848942 129.536329 
L 182.754245 129.598593 
" clip-path="url(#pfba8cd81d7)" style="fill: none; stroke: #ec131e; stroke-width: 3"/>
    <path d="M 182.754245 129.598593 
L 182.576082 129.684974 
" clip-path="url(#pfba8cd81d7)" style="fill: none; stroke: #ec121d; stroke-width: 3"/>
    <path d="M 182.576082 129.684974 
L 182.292562 129.791325 
" clip-path="url(#pfba8cd81d7)" style="fill: none; stroke: #ec121d; stroke-width: 3"/>
    <path d="M 182.292562 129.791325 
L 181.88462 129.912787 
" clip-path="url(#pfba8cd81d7)" style="fill: none; stroke: #ed121c; stroke-width: 3"/>
    <path d="M 181.88462 129.912787 
L 181.335911 130.043428 
" clip-path="url(#pfba8cd81d7)" style="fill: none; stroke: #ed111c; stroke-width: 3"/>
    <path d="M 181.335911 130.043428 
L 180.632702 130.176266 
" clip-path="url(#pfba8cd81d7)" style="fill: none; stroke: #ed111b; stroke-width: 3"/>
    <path d="M 180.632702 130.176266 
L 179.763759 130.303345 
" clip-path="url(#pfba8cd81d7)" style="fill: none; stroke: #ee111b; stroke-width: 3"/>
    <path d="M 179.763759 130.303345 
L 178.720245 130.415622 
" clip-path="url(#pfba8cd81d7)" style="fill: none; stroke: #ee101a; stroke-width: 3"/>
    <path d="M 178.720245 130.415622 
L 177.495604 130.503204 
" clip-path="url(#pfba8cd81d7)" style="fill: none; stroke: #ee1019; stroke-width: 3"/>
    <path d="M 177.495604 130.503204 
L 176.08546 130.555535 
" clip-path="url(#pfba8cd81d7)" style="fill: none; stroke: #ef1019; stroke-width: 3"/>
    <path d="M 176.08546 130.555535 
L 174.487499 130.561396 
" clip-path="url(#pfba8cd81d7)" style="fill: none; stroke: #ef0f18; stroke-width: 3"/>
    <path d="M 174.487499 130.561396 
L 172.701369 130.509247 
" clip-path="url(#pfba8cd81d7)" style="fill: none; stroke: #ef0f18; stroke-width: 3"/>
    <path d="M 172.701369 130.509247 
L 170.728565 130.387454 
" clip-path="url(#pfba8cd81d7)" style="fill: none; stroke: #f00f17; stroke-width: 3"/>
    <path d="M 170.728565 130.387454 
L 168.572323 130.184342 
" clip-path="url(#pfba8cd81d7)" style="fill: none; stroke: #f00e17; stroke-width: 3"/>
    <path d="M 168.572323 130.184342 
L 166.237512 129.888569 
" clip-path="url(#pfba8cd81d7)" style="fill: none; stroke: #f00e16; stroke-width: 3"/>
    <path d="M 166.237512 129.888569 
L 163.730522 129.489295 
" clip-path="url(#pfba8cd81d7)" style="fill: none; stroke: #f10e16; stroke-width: 3"/>
    <path d="M 163.730522 129.489295 
L 161.05916 128.97622 
" clip-path="url(#pfba8cd81d7)" style="fill: none; stroke: #f10d15; stroke-width: 3"/>
    <path d="M 161.05916 128.97622 
L 158.232535 128.33987 
" clip-path="url(#pfba8cd81d7)" style="fill: none; stroke: #f20d15; stroke-width: 3"/>
    <path d="M 158.232535 128.33987 
L 155.260955 127.57163 
" clip-path="url(#pfba8cd81d7)" style="fill: none; stroke: #f20d14; stroke-width: 3"/>
    <path d="M 155.260955 127.57163 
L 152.155815 126.66365 
" clip-path="url(#pfba8cd81d7)" style="fill: none; stroke: #f20c13; stroke-width: 3"/>
    <path d="M 152.155815 126.66365 
L 148.929489 125.609083 
" clip-path="url(#pfba8cd81d7)" style="fill: none; stroke: #f30c13; stroke-width: 3"/>
    <path d="M 148.929489 125.609083 
L 145.595222 124.402085 
" clip-path="url(#pfba8cd81d7)" style="fill: none; stroke: #f30c12; stroke-width: 3"/>
    <path d="M 145.595222 124.402085 
L 142.16702 123.037781 
" clip-path="url(#pfba8cd81d7)" style="fill: none; stroke: #f30b12; stroke-width: 3"/>
    <path d="M 142.16702 123.037781 
L 138.659542 121.512596 
" clip-path="url(#pfba8cd81d7)" style="fill: none; stroke: #f40b11; stroke-width: 3"/>
    <path d="M 138.659542 121.512596 
L 135.087989 119.824273 
" clip-path="url(#pfba8cd81d7)" style="fill: none; stroke: #f40b11; stroke-width: 3"/>
    <path d="M 135.087989 119.824273 
L 131.468 117.971815 
" clip-path="url(#pfba8cd81d7)" style="fill: none; stroke: #f40a10; stroke-width: 3"/>
    <path d="M 131.468 117.971815 
L 127.815539 115.955714 
" clip-path="url(#pfba8cd81d7)" style="fill: none; stroke: #f50a10; stroke-width: 3"/>
    <path d="M 127.815539 115.955714 
L 124.146788 113.777752 
" clip-path="url(#pfba8cd81d7)" style="fill: none; stroke: #f50a0f; stroke-width: 3"/>
    <path d="M 124.146788 113.777752 
L 120.478036 111.4408 
" clip-path="url(#pfba8cd81d7)" style="fill: none; stroke: #f5090f; stroke-width: 3"/>
    <path d="M 120.478036 111.4408 
L 116.825575 108.948999 
" clip-path="url(#pfba8cd81d7)" style="fill: none; stroke: #f6090e; stroke-width: 3"/>
    <path d="M 116.825575 108.948999 
L 113.205587 106.307604 
" clip-path="url(#pfba8cd81d7)" style="fill: none; stroke: #f6090e; stroke-width: 3"/>
    <path d="M 113.205587 106.307604 
L 109.634034 103.522932 
" clip-path="url(#pfba8cd81d7)" style="fill: none; stroke: #f7080d; stroke-width: 3"/>
    <path d="M 109.634034 103.522932 
L 106.126555 100.602688 
" clip-path="url(#pfba8cd81d7)" style="fill: none; stroke: #f7080c; stroke-width: 3"/>
    <path d="M 106.126555 100.602688 
L 102.698353 97.555788 
" clip-path="url(#pfba8cd81d7)" style="fill: none; stroke: #f7070c; stroke-width: 3"/>
    <path d="M 102.698353 97.555788 
L 99.364086 94.392268 
" clip-path="url(#pfba8cd81d7)" style="fill: none; stroke: #f8070b; stroke-width: 3"/>
    <path d="M 99.364086 94.392268 
L 96.137761 91.123403 
" clip-path="url(#pfba8cd81d7)" style="fill: none; stroke: #f8070b; stroke-width: 3"/>
    <path d="M 96.137761 91.123403 
L 93.032621 87.761336 
" clip-path="url(#pfba8cd81d7)" style="fill: none; stroke: #f8060a; stroke-width: 3"/>
    <path d="M 93.032621 87.761336 
L 90.061041 84.31891 
" clip-path="url(#pfba8cd81d7)" style="fill: none; stroke: #f9060a; stroke-width: 3"/>
    <path d="M 90.061041 84.31891 
L 87.234416 80.809784 
" clip-path="url(#pfba8cd81d7)" style="fill: none; stroke: #f90609; stroke-width: 3"/>
    <path d="M 87.234416 80.809784 
L 84.563053 77.248155 
" clip-path="url(#pfba8cd81d7)" style="fill: none; stroke: #f90509; stroke-width: 3"/>
    <path d="M 84.563053 77.248155 
L 82.056064 73.648787 
" clip-path="url(#pfba8cd81d7)" style="fill: none; stroke: #fa0508; stroke-width: 3"/>
    <path d="M 82.056064 73.648787 
L 79.721252 70.027202 
" clip-path="url(#pfba8cd81d7)" style="fill: none; stroke: #fa0508; stroke-width: 3"/>
    <path d="M 79.721252 70.027202 
L 77.565011 66.399422 
" clip-path="url(#pfba8cd81d7)" style="fill: none; stroke: #fa0407; stroke-width: 3"/>
    <path d="M 77.565011 66.399422 
L 75.592207 62.781956 
" clip-path="url(#pfba8cd81d7)" style="fill: none; stroke: #fb0406; stroke-width: 3"/>
    <path d="M 75.592207 62.781956 
L 73.806076 59.19188 
" clip-path="url(#pfba8cd81d7)" style="fill: none; stroke: #fb0406; stroke-width: 3"/>
    <path d="M 73.806076 59.19188 
L 72.208116 55.646503 
" clip-path="url(#pfba8cd81d7)" style="fill: none; stroke: #fb0305; stroke-width: 3"/>
    <path d="M 72.208116 55.646503 
L 70.797971 52.163495 
" clip-path="url(#pfba8cd81d7)" style="fill: none; stroke: #fc0305; stroke-width: 3"/>
    <path d="M 70.797971 52.163495 
L 69.573331 48.761226 
" clip-path="url(#pfba8cd81d7)" style="fill: none; stroke: #fc0304; stroke-width: 3"/>
    <path d="M 69.573331 48.761226 
L 68.529817 45.458947 
" clip-path="url(#pfba8cd81d7)" style="fill: none; stroke: #fd0204; stroke-width: 3"/>
    <path d="M 68.529817 45.458947 
L 67.660874 42.277683 
" clip-path="url(#pfba8cd81d7)" style="fill: none; stroke: #fd0203; stroke-width: 3"/>
    <path d="M 67.660874 42.277683 
L 66.957664 39.241957 
" clip-path="url(#pfba8cd81d7)" style="fill: none; stroke: #fd0203; stroke-width: 3"/>
    <path d="M 66.957664 39.241957 
L 66.408955 36.382889 
" clip-path="url(#pfba8cd81d7)" style="fill: none; stroke: #fe0102; stroke-width: 3"/>
    <path d="M 66.408955 36.382889 
L 66.001013 33.747156 
" clip-path="url(#pfba8cd81d7)" style="fill: none; stroke: #fe0102; stroke-width: 3"/>
    <path d="M 66.001013 33.747156 
L 65.717493 31.42031 
" clip-path="url(#pfba8cd81d7)" style="fill: none; stroke: #fe0101; stroke-width: 3"/>
    <path d="M 65.717493 31.42031 
L 65.539331 13.399216 
" clip-path="url(#pfba8cd81d7)" style="fill: none; stroke: #ff0001; stroke-width: 3"/>
    <path d="M 65.539331 13.399216 
L 65.444633 13.399216 
" clip-path="url(#pfba8cd81d7)" style="fill: none; stroke: #ff0000; stroke-width: 3"/>
   </g>
   <g id="patch_3">
    <path d="M 59.528914 136.435748 
L 59.528914 7.2 
" style="fill: none; stroke: #000000; stroke-width: 0.8; stroke-linejoin: miter; stroke-linecap: square"/>
   </g>
   <g id="patch_4">
    <path d="M 188.764662 136.435748 
L 188.764662 7.2 
" style="fill: none; stroke: #000000; stroke-width: 0.8; stroke-linejoin: miter; stroke-linecap: square"/>
   </g>
   <g id="patch_5">
    <path d="M 59.528914 136.435748 
L 188.764662 136.435748 
" style="fill: none; stroke: #000000; stroke-width: 0.8; stroke-linejoin: miter; stroke-linecap: square"/>
   </g>
   <g id="patch_6">
    <path d="M 59.528914 7.2 
L 188.764662 7.2 
" style="fill: none; stroke: #000000; stroke-width: 0.8; stroke-linejoin: miter; stroke-linecap: square"/>
   </g>
   <g id="text_9">
    <!-- 1 -->
    <g transform="translate(70.403266 23.399216) scale(0.15 -0.15)">
     <defs>
      <path id="CMR17-31" d="M 1702 4058 
C 1702 4192 1696 4192 1606 4192 
C 1357 3916 979 3827 621 3827 
C 602 3827 570 3827 563 3808 
C 557 3795 557 3782 557 3648 
C 755 3648 1088 3686 1344 3839 
L 1344 461 
C 1344 236 1331 160 781 160 
L 589 160 
L 589 0 
C 896 0 1216 0 1523 0 
C 1830 0 2150 0 2458 0 
L 2458 160 
L 2266 160 
C 1715 160 1702 230 1702 458 
L 1702 4058 
z
" transform="scale(0.015625)"/>
     </defs>
     <use xlink:href="#CMR17-31" transform="scale(0.996264)"/>
    </g>
   </g>
   <g id="text_10">
    <!-- 2 -->
    <g transform="translate(187.885005 89.475056) scale(0.15 -0.15)">
     <use xlink:href="#CMR17-32" transform="scale(0.996264)"/>
    </g>
   </g>
   <g id="text_11">
    <!-- 3 -->
    <g transform="translate(187.890309 124.489216) scale(0.15 -0.15)">
     <defs>
      <path id="CMR17-33" d="M 1414 2157 
C 1984 2157 2234 1662 2234 1090 
C 2234 320 1824 25 1453 25 
C 1114 25 563 194 390 693 
C 422 680 454 680 486 680 
C 640 680 755 782 755 948 
C 755 1133 614 1216 486 1216 
C 378 1216 211 1165 211 926 
C 211 335 787 -128 1466 -128 
C 2176 -128 2720 430 2720 1085 
C 2720 1707 2208 2157 1600 2227 
C 2086 2328 2554 2756 2554 3329 
C 2554 3820 2048 4179 1472 4179 
C 890 4179 378 3829 378 3329 
C 378 3110 544 3072 627 3072 
C 762 3072 877 3155 877 3321 
C 877 3486 762 3569 627 3569 
C 602 3569 570 3569 544 3557 
C 730 3959 1235 4032 1459 4032 
C 1683 4032 2106 3925 2106 3320 
C 2106 3143 2080 2828 1862 2550 
C 1670 2304 1453 2304 1242 2284 
C 1210 2284 1062 2269 1037 2269 
C 992 2263 966 2257 966 2208 
C 966 2163 973 2157 1101 2157 
L 1414 2157 
z
" transform="scale(0.015625)"/>
     </defs>
     <use xlink:href="#CMR17-33" transform="scale(0.996264)"/>
    </g>
   </g>
   <g id="PathCollection_1">
    <defs>
     <path id="me86b5e5ec7" d="M 0 3.535534 
C 0.937635 3.535534 1.836992 3.163008 2.5 2.5 
C 3.163008 1.836992 3.535534 0.937635 3.535534 0 
C 3.535534 -0.937635 3.163008 -1.836992 2.5 -2.5 
C 1.836992 -3.163008 0.937635 -3.535534 0 -3.535534 
C -0.937635 -3.535534 -1.836992 -3.163008 -2.5 -2.5 
C -3.163008 -1.836992 -3.535534 -0.937635 -3.535534 0 
C -3.535534 0.937635 -3.163008 1.836992 -2.5 2.5 
C -1.836992 3.163008 -0.937635 3.535534 0 3.535534 
z
" style="stroke: #000000; stroke-width: 0.24"/>
    </defs>
    <g clip-path="url(#pfba8cd81d7)">
     <use xlink:href="#me86b5e5ec7" x="65.403266" y="13.399216" style="stroke: #000000; stroke-width: 0.24"/>
    </g>
   </g>
   <g id="PathCollection_2">
    <g clip-path="url(#pfba8cd81d7)">
     <use xlink:href="#me86b5e5ec7" x="182.885005" y="94.475056" style="stroke: #000000; stroke-width: 0.24"/>
    </g>
   </g>
   <g id="PathCollection_3">
    <g clip-path="url(#pfba8cd81d7)">
     <use xlink:href="#me86b5e5ec7" x="182.890309" y="129.489216" style="stroke: #000000; stroke-width: 0.24"/>
    </g>
   </g>
  </g>
 </g>
 <defs>
  <clipPath id="pfba8cd81d7">
   <rect x="59.528914" y="7.2" width="129.235748" height="129.235748"/>
  </clipPath>
 </defs>
</svg>
