<?xml version="1.0" encoding="utf-8" standalone="no"?>
<!DOCTYPE svg PUBLIC "-//W3C//DTD SVG 1.1//EN"
  "http://www.w3.org/Graphics/SVG/1.1/DTD/svg11.dtd">
<svg xmlns:xlink="http://www.w3.org/1999/xlink" width="497.99952pt" height="130.79952pt" viewBox="0 0 497.99952 130.79952" xmlns="http://www.w3.org/2000/svg" version="1.1">
 <metadata>
  <rdf:RDF xmlns:dc="http://purl.org/dc/elements/1.1/" xmlns:cc="http://creativecommons.org/ns#" xmlns:rdf="http://www.w3.org/1999/02/22-rdf-syntax-ns#">
   <cc:Work>
    <dc:type rdf:resource="http://purl.org/dc/dcmitype/StillImage"/>
    <dc:date>1980-01-01T00:00:00+00:00</dc:date>
    <dc:format>image/svg+xml</dc:format>
    <dc:creator>
     <cc:Agent>
      <dc:title>Matplotlib v3.6.2, https://matplotlib.org/</dc:title>
     </cc:Agent>
    </dc:creator>
   </cc:Work>
  </rdf:RDF>
 </metadata>
 <defs>
  <style type="text/css">*{stroke-linejoin: round; stroke-linecap: butt}</style>
 </defs>
 <g id="figure_1">
  <g id="patch_1">
   <path d="M 0 130.79952 
L 497.99952 130.79952 
L 497.99952 0 
L 0 0 
z
" style="fill: #ffffff"/>
  </g>
  <g id="axes_1">
   <g id="patch_2">
    <path d="M 39.976366 94.559296 
L 486.565337 94.559296 
L 486.565337 7.2 
L 39.976366 7.2 
z
" style="fill: #ffffff"/>
   </g>
   <g id="matplotlib.axis_1">
    <g id="xtick_1">
     <g id="line2d_1">
      <defs>
       <path id="mdfdeba68a8" d="M 0 0 
L 0 3.5 
" style="stroke: #000000; stroke-width: 0.8"/>
      </defs>
      <g>
       <use xlink:href="#mdfdeba68a8" x="39.976366" y="94.559296" style="stroke: #000000; stroke-width: 0.8"/>
      </g>
     </g>
     <g id="text_1">
      <!-- $\mathdefault{0}$ -->
      <g transform="translate(37.859275 109.194098) scale(0.08 -0.08)">
       <defs>
        <path id="CMR17-30" d="M 2688 2025 
C 2688 2416 2682 3080 2413 3591 
C 2176 4039 1798 4198 1466 4198 
C 1158 4198 768 4058 525 3597 
C 269 3118 243 2524 243 2025 
C 243 1661 250 1106 448 619 
C 723 -39 1216 -128 1466 -128 
C 1760 -128 2208 -7 2470 600 
C 2662 1042 2688 1559 2688 2025 
z
M 1466 -26 
C 1056 -26 813 325 723 812 
C 653 1188 653 1738 653 2096 
C 653 2588 653 2997 736 3387 
C 858 3929 1216 4096 1466 4096 
C 1728 4096 2067 3923 2189 3400 
C 2272 3036 2278 2607 2278 2096 
C 2278 1680 2278 1169 2202 792 
C 2067 95 1690 -26 1466 -26 
z
" transform="scale(0.015625)"/>
       </defs>
       <use xlink:href="#CMR17-30" transform="scale(0.996264)"/>
      </g>
     </g>
    </g>
    <g id="xtick_2">
     <g id="line2d_2">
      <g>
       <use xlink:href="#mdfdeba68a8" x="114.407861" y="94.559296" style="stroke: #000000; stroke-width: 0.8"/>
      </g>
     </g>
     <g id="text_2">
      <!-- $\mathdefault{10}$ -->
      <g transform="translate(110.173679 109.194098) scale(0.08 -0.08)">
       <defs>
        <path id="CMR17-31" d="M 1702 4058 
C 1702 4192 1696 4192 1606 4192 
C 1357 3916 979 3827 621 3827 
C 602 3827 570 3827 563 3808 
C 557 3795 557 3782 557 3648 
C 755 3648 1088 3686 1344 3839 
L 1344 461 
C 1344 236 1331 160 781 160 
L 589 160 
L 589 0 
C 896 0 1216 0 1523 0 
C 1830 0 2150 0 2458 0 
L 2458 160 
L 2266 160 
C 1715 160 1702 230 1702 458 
L 1702 4058 
z
" transform="scale(0.015625)"/>
       </defs>
       <use xlink:href="#CMR17-31" transform="scale(0.996264)"/>
       <use xlink:href="#CMR17-30" transform="translate(45.690477 0) scale(0.996264)"/>
      </g>
     </g>
    </g>
    <g id="xtick_3">
     <g id="line2d_3">
      <g>
       <use xlink:href="#mdfdeba68a8" x="188.839357" y="94.559296" style="stroke: #000000; stroke-width: 0.8"/>
      </g>
     </g>
     <g id="text_3">
      <!-- $\mathdefault{20}$ -->
      <g transform="translate(184.605174 109.194098) scale(0.08 -0.08)">
       <defs>
        <path id="CMR17-32" d="M 2669 989 
L 2554 989 
C 2490 536 2438 459 2413 420 
C 2381 369 1920 369 1830 369 
L 602 369 
C 832 619 1280 1072 1824 1597 
C 2214 1967 2669 2402 2669 3035 
C 2669 3790 2067 4224 1395 4224 
C 691 4224 262 3604 262 3030 
C 262 2780 448 2748 525 2748 
C 589 2748 781 2787 781 3010 
C 781 3207 614 3264 525 3264 
C 486 3264 448 3258 422 3245 
C 544 3790 915 4058 1306 4058 
C 1862 4058 2227 3617 2227 3035 
C 2227 2479 1901 2000 1536 1584 
L 262 146 
L 262 0 
L 2515 0 
L 2669 989 
z
" transform="scale(0.015625)"/>
       </defs>
       <use xlink:href="#CMR17-32" transform="scale(0.996264)"/>
       <use xlink:href="#CMR17-30" transform="translate(45.690477 0) scale(0.996264)"/>
      </g>
     </g>
    </g>
    <g id="xtick_4">
     <g id="line2d_4">
      <g>
       <use xlink:href="#mdfdeba68a8" x="263.270852" y="94.559296" style="stroke: #000000; stroke-width: 0.8"/>
      </g>
     </g>
     <g id="text_4">
      <!-- $\mathdefault{30}$ -->
      <g transform="translate(259.036669 109.194098) scale(0.08 -0.08)">
       <defs>
        <path id="CMR17-33" d="M 1414 2157 
C 1984 2157 2234 1662 2234 1090 
C 2234 320 1824 25 1453 25 
C 1114 25 563 194 390 693 
C 422 680 454 680 486 680 
C 640 680 755 782 755 948 
C 755 1133 614 1216 486 1216 
C 378 1216 211 1165 211 926 
C 211 335 787 -128 1466 -128 
C 2176 -128 2720 430 2720 1085 
C 2720 1707 2208 2157 1600 2227 
C 2086 2328 2554 2756 2554 3329 
C 2554 3820 2048 4179 1472 4179 
C 890 4179 378 3829 378 3329 
C 378 3110 544 3072 627 3072 
C 762 3072 877 3155 877 3321 
C 877 3486 762 3569 627 3569 
C 602 3569 570 3569 544 3557 
C 730 3959 1235 4032 1459 4032 
C 1683 4032 2106 3925 2106 3320 
C 2106 3143 2080 2828 1862 2550 
C 1670 2304 1453 2304 1242 2284 
C 1210 2284 1062 2269 1037 2269 
C 992 2263 966 2257 966 2208 
C 966 2163 973 2157 1101 2157 
L 1414 2157 
z
" transform="scale(0.015625)"/>
       </defs>
       <use xlink:href="#CMR17-33" transform="scale(0.996264)"/>
       <use xlink:href="#CMR17-30" transform="translate(45.690477 0) scale(0.996264)"/>
      </g>
     </g>
    </g>
    <g id="xtick_5">
     <g id="line2d_5">
      <g>
       <use xlink:href="#mdfdeba68a8" x="337.702347" y="94.559296" style="stroke: #000000; stroke-width: 0.8"/>
      </g>
     </g>
     <g id="text_5">
      <!-- $\mathdefault{40}$ -->
      <g transform="translate(333.468164 109.194098) scale(0.08 -0.08)">
       <defs>
        <path id="CMR17-34" d="M 2150 4122 
C 2150 4256 2144 4256 2029 4256 
L 128 1254 
L 128 1088 
L 1779 1088 
L 1779 457 
C 1779 224 1766 160 1318 160 
L 1197 160 
L 1197 0 
C 1402 0 1747 0 1965 0 
C 2182 0 2528 0 2733 0 
L 2733 160 
L 2611 160 
C 2163 160 2150 224 2150 457 
L 2150 1088 
L 2803 1088 
L 2803 1254 
L 2150 1254 
L 2150 4122 
z
M 1798 3703 
L 1798 1254 
L 256 1254 
L 1798 3703 
z
" transform="scale(0.015625)"/>
       </defs>
       <use xlink:href="#CMR17-34" transform="scale(0.996264)"/>
       <use xlink:href="#CMR17-30" transform="translate(45.690477 0) scale(0.996264)"/>
      </g>
     </g>
    </g>
    <g id="xtick_6">
     <g id="line2d_6">
      <g>
       <use xlink:href="#mdfdeba68a8" x="412.133842" y="94.559296" style="stroke: #000000; stroke-width: 0.8"/>
      </g>
     </g>
     <g id="text_6">
      <!-- $\mathdefault{50}$ -->
      <g transform="translate(407.899659 109.194098) scale(0.08 -0.08)">
       <defs>
        <path id="CMR17-35" d="M 730 3692 
C 794 3666 1056 3584 1325 3584 
C 1920 3584 2246 3911 2432 4100 
C 2432 4157 2432 4192 2394 4192 
C 2387 4192 2374 4192 2323 4163 
C 2099 4058 1837 3973 1517 3973 
C 1325 3973 1037 3999 723 4139 
C 653 4171 640 4171 634 4171 
C 602 4171 595 4164 595 4037 
L 595 2203 
C 595 2089 595 2057 659 2057 
C 691 2057 704 2070 736 2114 
C 941 2401 1222 2522 1542 2522 
C 1766 2522 2246 2382 2246 1289 
C 2246 1085 2246 715 2054 421 
C 1894 159 1645 25 1370 25 
C 947 25 518 320 403 814 
C 429 807 480 795 506 795 
C 589 795 749 840 749 1038 
C 749 1210 627 1280 506 1280 
C 358 1280 262 1190 262 1011 
C 262 454 704 -128 1382 -128 
C 2042 -128 2669 440 2669 1264 
C 2669 2030 2170 2624 1549 2624 
C 1222 2624 947 2503 730 2274 
L 730 3692 
z
" transform="scale(0.015625)"/>
       </defs>
       <use xlink:href="#CMR17-35" transform="scale(0.996264)"/>
       <use xlink:href="#CMR17-30" transform="translate(45.690477 0) scale(0.996264)"/>
      </g>
     </g>
    </g>
    <g id="xtick_7">
     <g id="line2d_7">
      <g>
       <use xlink:href="#mdfdeba68a8" x="486.565337" y="94.559296" style="stroke: #000000; stroke-width: 0.8"/>
      </g>
     </g>
     <g id="text_7">
      <!-- $\mathdefault{60}$ -->
      <g transform="translate(482.331154 109.194098) scale(0.08 -0.08)">
       <defs>
        <path id="CMR17-36" d="M 678 2176 
C 678 3690 1395 4032 1811 4032 
C 1946 4032 2272 4009 2400 3776 
C 2298 3776 2106 3776 2106 3553 
C 2106 3381 2246 3323 2336 3323 
C 2394 3323 2566 3348 2566 3560 
C 2566 3954 2246 4179 1805 4179 
C 1043 4179 243 3390 243 1984 
C 243 253 966 -128 1478 -128 
C 2099 -128 2688 427 2688 1283 
C 2688 2081 2170 2662 1517 2662 
C 1126 2662 838 2407 678 1960 
L 678 2176 
z
M 1478 25 
C 691 25 691 1200 691 1436 
C 691 1896 909 2560 1504 2560 
C 1613 2560 1926 2560 2138 2120 
C 2253 1870 2253 1609 2253 1289 
C 2253 944 2253 690 2118 434 
C 1978 171 1773 25 1478 25 
z
" transform="scale(0.015625)"/>
       </defs>
       <use xlink:href="#CMR17-36" transform="scale(0.996264)"/>
       <use xlink:href="#CMR17-30" transform="translate(45.690477 0) scale(0.996264)"/>
      </g>
     </g>
    </g>
    <g id="text_8">
     <!-- $\tau$ -->
     <g transform="translate(261.09325 121.662342) scale(0.1 -0.1)">
      <defs>
       <path id="CMMI12-1c" d="M 1837 2408 
L 2899 2408 
C 2982 2408 3194 2408 3194 2612 
C 3194 2752 3072 2752 2957 2752 
L 1197 2752 
C 1050 2752 832 2752 538 2440 
C 371 2255 166 1917 166 1879 
C 166 1841 198 1828 237 1828 
C 282 1828 288 1847 320 1885 
C 653 2408 986 2408 1146 2408 
L 1677 2408 
L 1011 223 
C 979 127 979 114 979 95 
C 979 25 1024 -64 1152 -64 
C 1350 -64 1382 108 1402 203 
L 1837 2408 
z
" transform="scale(0.015625)"/>
      </defs>
      <use xlink:href="#CMMI12-1c" transform="scale(0.996264)"/>
     </g>
    </g>
   </g>
   <g id="matplotlib.axis_2">
    <g id="ytick_1">
     <g id="line2d_8">
      <defs>
       <path id="m72dc610880" d="M 0 0 
L -3.5 0 
" style="stroke: #000000; stroke-width: 0.8"/>
      </defs>
      <g>
       <use xlink:href="#m72dc610880" x="39.976366" y="90.588419" style="stroke: #000000; stroke-width: 0.8"/>
      </g>
     </g>
     <g id="text_9">
      <!-- $\mathdefault{0.0}$ -->
      <g transform="translate(20.055677 93.35582) scale(0.08 -0.08)">
       <defs>
        <path id="CMMI12-3a" d="M 1178 307 
C 1178 492 1024 619 870 619 
C 685 619 557 466 557 313 
C 557 128 710 0 864 0 
C 1050 0 1178 153 1178 307 
z
" transform="scale(0.015625)"/>
       </defs>
       <use xlink:href="#CMR17-30" transform="scale(0.996264)"/>
       <use xlink:href="#CMMI12-3a" transform="translate(45.690477 0) scale(0.996264)"/>
       <use xlink:href="#CMR17-30" transform="translate(72.787654 0) scale(0.996264)"/>
      </g>
     </g>
    </g>
    <g id="ytick_2">
     <g id="line2d_9">
      <g>
       <use xlink:href="#m72dc610880" x="39.976366" y="58.821402" style="stroke: #000000; stroke-width: 0.8"/>
      </g>
     </g>
     <g id="text_10">
      <!-- $\mathdefault{0.2}$ -->
      <g transform="translate(20.055677 61.588803) scale(0.08 -0.08)">
       <use xlink:href="#CMR17-30" transform="scale(0.996264)"/>
       <use xlink:href="#CMMI12-3a" transform="translate(45.690477 0) scale(0.996264)"/>
       <use xlink:href="#CMR17-32" transform="translate(72.787654 0) scale(0.996264)"/>
      </g>
     </g>
    </g>
    <g id="ytick_3">
     <g id="line2d_10">
      <g>
       <use xlink:href="#m72dc610880" x="39.976366" y="27.054385" style="stroke: #000000; stroke-width: 0.8"/>
      </g>
     </g>
     <g id="text_11">
      <!-- $\mathdefault{0.4}$ -->
      <g transform="translate(20.055677 29.821786) scale(0.08 -0.08)">
       <use xlink:href="#CMR17-30" transform="scale(0.996264)"/>
       <use xlink:href="#CMMI12-3a" transform="translate(45.690477 0) scale(0.996264)"/>
       <use xlink:href="#CMR17-34" transform="translate(72.787654 0) scale(0.996264)"/>
      </g>
     </g>
    </g>
    <g id="text_12">
     <!-- Operator Norm -->
     <g transform="translate(14.118498 84.683517) rotate(-90) scale(0.1 -0.1)">
      <defs>
       <path id="CMR17-4f" d="M 4307 2135 
C 4307 3437 3366 4416 2304 4416 
C 1216 4416 294 3424 294 2135 
C 294 845 1229 -128 2298 -128 
C 3392 -128 4307 864 4307 2135 
z
M 2304 -13 
C 1574 -13 781 711 781 2217 
C 781 3716 1651 4301 2298 4301 
C 2976 4301 3821 3698 3821 2217 
C 3821 686 3008 -13 2304 -13 
z
" transform="scale(0.015625)"/>
       <path id="CMR17-70" d="M 1408 -1063 
C 998 -1063 973 -1037 973 -789 
L 973 402 
C 1158 134 1427 -38 1766 -38 
C 2406 -38 3053 523 3053 1388 
C 3053 2191 2496 2802 1837 2802 
C 1453 2802 1139 2592 960 2338 
L 960 2802 
L 198 2732 
L 198 2567 
C 576 2567 634 2528 634 2223 
L 634 -789 
C 634 -1031 608 -1063 198 -1063 
L 198 -1228 
C 352 -1216 634 -1216 800 -1216 
C 966 -1216 1254 -1216 1408 -1228 
L 1408 -1063 
z
M 973 2012 
C 973 2102 973 2235 1222 2471 
C 1254 2497 1472 2688 1792 2688 
C 2259 2688 2643 2108 2643 1382 
C 2643 656 2234 64 1728 64 
C 1498 64 1248 172 1056 472 
C 973 612 973 650 973 752 
L 973 2012 
z
" transform="scale(0.015625)"/>
       <path id="CMR17-65" d="M 2438 1472 
C 2464 1498 2464 1511 2464 1576 
C 2464 2238 2118 2816 1389 2816 
C 710 2816 173 2169 173 1383 
C 173 551 781 -64 1459 -64 
C 2176 -64 2458 607 2458 740 
C 2458 784 2419 784 2406 784 
C 2362 784 2355 771 2330 696 
C 2189 265 1837 51 1504 51 
C 1229 51 954 203 781 480 
C 582 803 582 1176 582 1472 
L 2438 1472 
z
M 589 1568 
C 634 2505 1126 2714 1382 2714 
C 1818 2714 2112 2297 2118 1568 
L 589 1568 
z
" transform="scale(0.015625)"/>
       <path id="CMR17-72" d="M 960 1497 
C 960 2112 1222 2688 1702 2688 
C 1747 2688 1792 2682 1837 2662 
C 1837 2662 1696 2617 1696 2452 
C 1696 2298 1818 2234 1914 2234 
C 1990 2234 2131 2279 2131 2458 
C 2131 2663 1926 2790 1709 2790 
C 1222 2790 1011 2317 947 2093 
L 941 2093 
L 941 2790 
L 198 2720 
L 198 2554 
C 576 2554 634 2515 634 2208 
L 634 428 
C 634 184 608 153 198 153 
L 198 -13 
C 352 0 646 0 813 0 
C 998 0 1325 0 1498 -13 
L 1498 153 
C 1037 153 960 153 960 440 
L 960 1497 
z
" transform="scale(0.015625)"/>
       <path id="CMR17-61" d="M 2304 1653 
C 2304 2072 2304 2294 2035 2543 
C 1798 2752 1523 2816 1306 2816 
C 800 2816 435 2407 435 1971 
C 435 1728 627 1728 666 1728 
C 749 1728 896 1778 896 1954 
C 896 2112 774 2181 666 2181 
C 640 2181 608 2174 589 2168 
C 723 2592 1069 2714 1293 2714 
C 1613 2714 1965 2429 1965 1885 
L 1965 1600 
C 1587 1600 1133 1549 774 1357 
C 371 1133 256 813 256 570 
C 256 77 832 -64 1171 -64 
C 1523 -64 1850 139 1990 511 
C 2003 233 2182 -18 2464 -18 
C 2598 -18 2938 70 2938 567 
L 2938 920 
L 2822 920 
L 2822 562 
C 2822 178 2650 128 2566 128 
C 2304 128 2304 458 2304 738 
L 2304 1653 
z
M 1965 870 
C 1965 317 1568 38 1216 38 
C 896 38 646 275 646 570 
C 646 761 730 1100 1101 1305 
C 1408 1478 1760 1504 1965 1504 
L 1965 870 
z
" transform="scale(0.015625)"/>
       <path id="CMR17-74" d="M 966 2560 
L 1862 2560 
L 1862 2725 
L 966 2725 
L 966 3904 
L 851 3904 
C 838 3245 614 2668 70 2668 
L 70 2560 
L 627 2560 
L 627 771 
C 627 650 627 -64 1370 -64 
C 1747 -64 1965 306 1965 777 
L 1965 1140 
L 1850 1140 
L 1850 783 
C 1850 344 1677 51 1408 51 
C 1222 51 966 178 966 758 
L 966 2560 
z
" transform="scale(0.015625)"/>
       <path id="CMR17-6f" d="M 2758 1356 
C 2758 2176 2163 2816 1466 2816 
C 768 2816 173 2176 173 1356 
C 173 551 768 -64 1466 -64 
C 2163 -64 2758 551 2758 1356 
z
M 1466 51 
C 1165 51 909 230 762 480 
C 602 767 582 1126 582 1408 
C 582 1677 595 2010 762 2298 
C 890 2509 1139 2714 1466 2714 
C 1754 2714 1997 2554 2150 2330 
C 2349 2029 2349 1607 2349 1408 
C 2349 1158 2336 775 2163 467 
C 1984 173 1709 51 1466 51 
z
" transform="scale(0.015625)"/>
       <path id="CMR17-4e" d="M 1312 4250 
C 1267 4320 1261 4320 1139 4320 
L 326 4320 
L 326 4160 
L 448 4160 
C 704 4160 819 4129 838 4122 
L 838 610 
C 838 451 838 153 326 153 
L 326 -13 
C 474 0 742 0 902 0 
C 1062 0 1331 0 1478 -13 
L 1478 153 
C 966 153 966 451 966 610 
L 966 4033 
C 1011 3995 1011 3982 1056 3919 
L 3430 76 
C 3475 0 3494 0 3526 0 
C 3590 0 3590 19 3590 139 
L 3590 3705 
C 3590 3863 3590 4160 4102 4160 
L 4102 4326 
C 3955 4320 3686 4320 3526 4320 
C 3366 4320 3098 4320 2950 4326 
L 2950 4160 
C 3462 4160 3462 3862 3462 3703 
L 3462 763 
L 1312 4250 
z
" transform="scale(0.015625)"/>
       <path id="CMR17-6d" d="M 4326 1933 
C 4326 2252 4269 2790 3507 2790 
C 3072 2790 2771 2496 2656 2151 
L 2650 2151 
C 2573 2676 2195 2790 1837 2790 
C 1331 2790 1069 2400 973 2144 
L 966 2144 
L 966 2790 
L 211 2720 
L 211 2554 
C 589 2554 646 2515 646 2208 
L 646 428 
C 646 184 621 153 211 153 
L 211 -13 
C 365 0 646 0 813 0 
C 979 0 1267 0 1421 -13 
L 1421 153 
C 1011 153 986 178 986 428 
L 986 1658 
C 986 2247 1344 2688 1792 2688 
C 2266 2688 2317 2266 2317 1958 
L 2317 428 
C 2317 184 2291 153 1882 153 
L 1882 -13 
C 2035 0 2317 0 2483 0 
C 2650 0 2938 0 3091 -13 
L 3091 153 
C 2682 153 2656 178 2656 428 
L 2656 1658 
C 2656 2247 3014 2688 3462 2688 
C 3936 2688 3987 2266 3987 1958 
L 3987 428 
C 3987 184 3962 153 3552 153 
L 3552 -13 
C 3706 0 3987 0 4154 0 
C 4320 0 4608 0 4762 -13 
L 4762 153 
C 4352 153 4326 178 4326 428 
L 4326 1933 
z
" transform="scale(0.015625)"/>
      </defs>
      <use xlink:href="#CMR17-4f" transform="scale(0.996264)"/>
      <use xlink:href="#CMR17-70" transform="translate(71.714788 0) scale(0.996264)"/>
      <use xlink:href="#CMR17-65" transform="translate(125.212597 0) scale(0.996264)"/>
      <use xlink:href="#CMR17-72" transform="translate(165.698257 0) scale(0.996264)"/>
      <use xlink:href="#CMR17-61" transform="translate(200.979025 0) scale(0.996264)"/>
      <use xlink:href="#CMR17-74" transform="translate(246.669502 0) scale(0.996264)"/>
      <use xlink:href="#CMR17-6f" transform="translate(281.95027 0) scale(0.996264)"/>
      <use xlink:href="#CMR17-72" transform="translate(327.640747 0) scale(0.996264)"/>
      <use xlink:href="#CMR17-4e" transform="translate(392.997481 0) scale(0.996264)"/>
      <use xlink:href="#CMR17-6f" transform="translate(462.069911 0) scale(0.996264)"/>
      <use xlink:href="#CMR17-72" transform="translate(507.760388 0) scale(0.996264)"/>
      <use xlink:href="#CMR17-6d" transform="translate(543.041156 0) scale(0.996264)"/>
     </g>
    </g>
   </g>
   <g id="line2d_11">
    <path d="M 39.976366 90.588419 
L 41.317474 90.496174 
L 42.211546 90.1832 
L 43.105618 89.534737 
L 43.99969 88.469149 
L 44.893762 86.931959 
L 45.787834 84.893488 
L 46.681906 82.346487 
L 48.023014 77.605436 
L 49.364122 71.868623 
L 51.152266 63.002036 
L 54.281518 45.851958 
L 56.516698 34.04519 
L 58.304842 25.851826 
L 59.645951 20.78262 
L 60.987059 16.797239 
L 61.881131 14.774018 
L 62.775203 13.251526 
L 63.669275 12.199374 
L 64.563347 11.562306 
L 65.457419 11.257832 
L 66.798527 11.170877 
L 264.388442 11.224954 
L 265.282514 11.47022 
L 266.176586 12.026044 
L 267.070658 12.981223 
L 267.96473 14.396802 
L 268.858802 16.308437 
L 269.752874 18.728764 
L 271.093982 23.290434 
L 272.43509 28.872566 
L 274.223234 37.589392 
L 276.90545 52.196043 
L 279.587666 66.595901 
L 281.37581 74.965985 
L 282.716918 80.204241 
L 284.058026 84.376628 
L 284.952098 86.52709 
L 285.84617 88.172835 
L 286.740242 89.338403 
L 287.634314 90.072614 
L 288.528386 90.450924 
L 289.422458 90.5778 
L 294.339854 90.588419 
L 486.565337 90.588419 
L 486.565337 90.588419 
" clip-path="url(#p09f537d1be)" style="fill: none; stroke: #d3d3d3; stroke-width: 3; stroke-linecap: square"/>
   </g>
   <g id="line2d_12">
    <path d="M 39.976366 11.170877 
L 157.0998 11.211075 
L 157.993872 11.426446 
L 158.887944 11.939743 
L 159.782016 12.843252 
L 160.676088 14.201221 
L 161.57016 16.052231 
L 162.464232 18.411553 
L 163.358304 21.273518 
L 164.699412 26.45139 
L 166.04052 32.554135 
L 167.828664 41.756685 
L 173.193096 70.447954 
L 174.534204 76.386671 
L 175.875312 81.366399 
L 176.769384 84.084317 
L 177.663456 86.29593 
L 178.557528 88.001398 
L 179.4516 89.222511 
L 180.345672 90.005047 
L 181.239744 90.421143 
L 182.133816 90.57166 
L 185.710104 90.588419 
L 434.262124 90.506552 
L 435.156196 90.210479 
L 436.050268 89.58473 
L 436.94434 88.545965 
L 437.838412 87.038144 
L 438.732484 85.030166 
L 439.626556 82.513504 
L 440.967664 77.815222 
L 442.308772 72.115066 
L 444.096916 63.283591 
L 447.226169 46.147501 
L 449.461349 34.311927 
L 451.249493 26.075409 
L 452.590601 20.965259 
L 453.931709 16.934836 
L 454.825781 14.881108 
L 455.719853 13.329194 
L 456.613925 12.250121 
L 457.507997 11.59019 
L 458.402069 11.268616 
L 459.743177 11.170878 
L 486.565337 11.170877 
L 486.565337 11.170877 
" clip-path="url(#p09f537d1be)" style="fill: none; stroke-dasharray: 1.85,0.8; stroke-dashoffset: 0; stroke: #1f77b4; stroke-width: 0.5"/>
   </g>
   <g id="line2d_13">
    <path d="M 39.976366 11.170877 
L 183.92196 11.214295 
L 184.816032 11.436977 
L 185.710104 11.960783 
L 186.604176 12.877125 
L 187.498249 14.249446 
L 188.392321 16.115593 
L 189.286393 18.490176 
L 190.180465 21.366933 
L 191.521573 26.564994 
L 192.862681 32.684258 
L 194.650825 41.901281 
L 200.015257 70.574921 
L 201.356365 76.496231 
L 202.697473 81.455165 
L 203.591545 84.158081 
L 204.485617 86.354405 
L 205.379689 88.044912 
L 206.273761 89.252075 
L 207.167833 90.02243 
L 208.061905 90.428943 
L 208.955977 90.573369 
L 212.532265 90.588419 
L 461.084285 90.501464 
L 461.978357 90.19699 
L 462.872429 89.559921 
L 463.766501 88.507769 
L 464.660573 86.985278 
L 465.554645 84.962057 
L 466.448717 82.43022 
L 467.789825 77.71053 
L 469.130933 71.992008 
L 470.919077 63.142911 
L 474.048329 45.99969 
L 476.283509 34.178428 
L 478.071653 25.963428 
L 479.412761 20.873722 
L 480.753869 16.865808 
L 481.647941 14.827337 
L 482.542013 13.290147 
L 483.436085 12.224559 
L 484.330157 11.576096 
L 485.224229 11.263122 
L 486.565337 11.170877 
L 486.565337 11.170877 
" clip-path="url(#p09f537d1be)" style="fill: none; stroke-dasharray: 3.2,0.8,0.5,0.8; stroke-dashoffset: 0; stroke: #ff7f0e; stroke-width: 0.5"/>
   </g>
   <g id="line2d_14">
    <path d="M 39.976366 90.588419 
L 41.317474 90.496174 
L 42.211546 90.1832 
L 43.105618 89.534737 
L 43.99969 88.469149 
L 44.893762 86.931959 
L 45.787834 84.893488 
L 46.681906 82.346487 
L 48.023014 77.605436 
L 49.364122 71.868623 
L 51.152266 63.002036 
L 54.281518 45.851958 
L 56.516698 34.04519 
L 58.304842 25.851826 
L 59.645951 20.78262 
L 60.987059 16.797239 
L 61.881131 14.774018 
L 62.775203 13.251526 
L 63.669275 12.199374 
L 64.563347 11.562306 
L 65.457419 11.257832 
L 66.798527 11.170877 
L 210.744121 11.217679 
L 211.638193 11.447781 
L 212.532265 11.982179 
L 213.426337 12.91141 
L 214.320409 14.298118 
L 215.214481 16.179415 
L 216.108553 18.569253 
L 217.002625 21.460779 
L 218.343733 26.678967 
L 219.684841 32.814666 
L 221.472985 42.046021 
L 226.837417 70.701581 
L 228.178525 76.605404 
L 229.519633 81.54349 
L 230.413705 84.231388 
L 231.307777 86.412423 
L 232.201849 88.087988 
L 233.095921 89.281244 
L 233.989993 90.039485 
L 234.884065 90.436504 
L 235.778137 90.574959 
L 239.801461 90.588419 
L 486.565337 90.588419 
L 486.565337 90.588419 
" clip-path="url(#p09f537d1be)" style="fill: none; stroke-dasharray: 0.5,0.825; stroke-dashoffset: 0; stroke: #2ca02c; stroke-width: 0.5"/>
   </g>
   <g id="line2d_15">
    <path d="M 39.976366 90.588419 
L 68.139635 90.49068 
L 69.033707 90.169105 
L 69.927779 89.509175 
L 70.821851 88.430102 
L 71.715923 86.878188 
L 72.609995 84.82446 
L 73.504067 82.262307 
L 74.845175 77.499941 
L 76.186283 71.744913 
L 77.974427 62.860969 
L 81.550715 43.257443 
L 83.785895 31.736758 
L 85.127003 25.740604 
L 86.468111 20.691954 
L 87.809219 16.729129 
L 88.703291 14.721152 
L 89.597363 13.213331 
L 90.491435 12.174566 
L 91.385507 11.548817 
L 92.279579 11.252743 
L 93.620687 11.170877 
L 237.566281 11.221231 
L 238.460353 11.458861 
L 239.354425 12.003932 
L 240.248497 12.946109 
L 241.142569 14.347236 
L 242.036641 16.243697 
L 242.930713 18.648782 
L 243.824785 21.555055 
L 245.165893 26.79331 
L 246.507001 32.945357 
L 248.295145 42.190901 
L 253.659578 70.827933 
L 255.000686 76.714188 
L 256.341794 81.631374 
L 257.235866 84.304237 
L 258.129938 86.469985 
L 259.02401 88.130629 
L 259.918082 89.310019 
L 260.812154 90.056212 
L 261.706226 90.44383 
L 262.600298 90.576435 
L 267.070658 90.588419 
L 486.565337 90.588419 
L 486.565337 90.588419 
" clip-path="url(#p09f537d1be)" style="fill: none; stroke: #d62728; stroke-width: 0.5; stroke-linecap: square"/>
   </g>
   <g id="line2d_16">
    <path d="M 39.976366 90.588419 
L 94.961795 90.484979 
L 95.855867 90.154704 
L 96.749939 89.483234 
L 97.644011 88.390627 
L 98.538083 86.823963 
L 99.432155 84.754973 
L 100.326227 82.17768 
L 101.667335 77.394046 
L 103.008443 71.620879 
L 104.796587 62.719711 
L 111.502127 27.525956 
L 112.843235 22.162058 
L 114.184343 17.848872 
L 115.078415 15.601587 
L 115.972487 13.861133 
L 116.866559 12.607314 
L 117.760631 11.796106 
L 118.654703 11.357295 
L 119.548775 11.192109 
L 122.230991 11.170877 
L 264.388442 11.224954 
L 265.282514 11.47022 
L 266.176586 12.026044 
L 267.070658 12.981223 
L 267.96473 14.396802 
L 268.858802 16.308437 
L 269.752874 18.728764 
L 271.093982 23.290434 
L 272.43509 28.872566 
L 274.223234 37.589392 
L 276.90545 52.196043 
L 279.587666 66.595901 
L 281.37581 74.965985 
L 282.716918 80.204241 
L 284.058026 84.376628 
L 284.952098 86.52709 
L 285.84617 88.172835 
L 286.740242 89.338403 
L 287.634314 90.072614 
L 288.528386 90.450924 
L 289.422458 90.5778 
L 294.339854 90.588419 
L 486.565337 90.588419 
L 486.565337 90.588419 
" clip-path="url(#p09f537d1be)" style="fill: none; stroke-dasharray: 1.85,0.8; stroke-dashoffset: 0; stroke: #9467bd; stroke-width: 0.5"/>
   </g>
   <g id="line2d_17">
    <path d="M 39.976366 90.588419 
L 121.783955 90.479066 
L 122.678027 90.139994 
L 123.5721 89.456912 
L 124.466172 88.350725 
L 125.360244 86.769284 
L 126.254316 84.685027 
L 127.148388 82.092607 
L 128.489496 77.287754 
L 129.830604 71.496523 
L 131.618748 62.578266 
L 138.324288 27.409311 
L 139.665396 22.065081 
L 141.006504 17.774042 
L 141.900576 15.542044 
L 142.794648 13.816597 
L 143.68872 12.576822 
L 144.582792 11.777944 
L 145.476864 11.348928 
L 146.370936 11.190107 
L 149.500188 11.170877 
L 291.210602 11.228852 
L 292.104674 11.481861 
L 292.998746 12.048518 
L 293.892818 13.016754 
L 294.78689 14.446816 
L 295.680962 16.373637 
L 296.575034 18.809198 
L 297.916142 23.392553 
L 299.25725 28.993513 
L 301.045394 37.728789 
L 303.72761 52.344996 
L 306.409826 66.731017 
L 308.19797 75.080328 
L 309.539078 80.298517 
L 310.880186 84.448561 
L 311.774258 86.58374 
L 312.66833 88.214607 
L 313.562402 89.366397 
L 314.456474 90.088693 
L 315.350546 90.45779 
L 316.244619 90.579059 
L 322.056087 90.588419 
L 486.565337 90.588419 
L 486.565337 90.588419 
" clip-path="url(#p09f537d1be)" style="fill: none; stroke-dasharray: 3.2,0.8,0.5,0.8; stroke-dashoffset: 0; stroke: #8c564b; stroke-width: 0.5"/>
   </g>
   <g id="line2d_18">
    <path d="M 39.976366 90.588419 
L 148.15908 90.549259 
L 149.053152 90.3363 
L 149.947224 89.826487 
L 150.841296 88.927244 
L 151.735368 87.574051 
L 152.62944 85.728084 
L 153.523512 83.37385 
L 154.417584 80.51682 
L 155.758692 75.34569 
L 157.0998 69.248472 
L 158.887944 60.050777 
L 164.252376 31.353732 
L 165.593484 25.409231 
L 166.934592 20.422583 
L 167.828664 17.699669 
L 168.722736 15.48296 
L 169.616808 13.772499 
L 170.51088 12.546728 
L 171.404952 11.760117 
L 172.299024 11.340806 
L 173.193096 11.188233 
L 176.322348 11.170877 
L 318.032763 11.232928 
L 318.926835 11.493786 
L 319.820907 12.071355 
L 320.714979 13.052702 
L 321.609051 14.497279 
L 322.503123 16.439297 
L 323.397195 18.890083 
L 324.738303 23.495081 
L 326.079411 29.114798 
L 327.867555 37.868394 
L 330.549771 52.493925 
L 333.231987 66.865884 
L 335.020131 75.194302 
L 336.361239 80.392363 
L 337.702347 84.520036 
L 338.596419 86.639934 
L 339.490491 88.255945 
L 340.384563 89.394002 
L 341.278635 90.104453 
L 342.172707 90.46443 
L 343.066779 90.580215 
L 349.325283 90.588419 
L 486.565337 90.588419 
L 486.565337 90.588419 
" clip-path="url(#p09f537d1be)" style="fill: none; stroke-dasharray: 0.5,0.825; stroke-dashoffset: 0; stroke: #e377c2; stroke-width: 0.5"/>
   </g>
   <g id="line2d_19">
    <path d="M 39.976366 90.588419 
L 174.98124 90.546092 
L 175.875312 90.325859 
L 176.769384 89.805565 
L 177.663456 88.893508 
L 178.557528 87.525974 
L 179.4516 85.664874 
L 180.345672 83.295378 
L 181.239744 80.423549 
L 182.580852 75.232211 
L 183.92196 69.118444 
L 185.710104 59.906229 
L 191.074537 31.226663 
L 192.415645 25.299542 
L 193.756753 20.333671 
L 194.650825 17.625752 
L 195.544897 15.424332 
L 196.438969 13.72884 
L 197.333041 12.517032 
L 198.227113 11.742623 
L 199.121185 11.332926 
L 200.015257 11.186483 
L 203.591545 11.170877 
L 344.854923 11.237187 
L 345.748995 11.505999 
L 346.643067 12.094558 
L 347.537139 13.089068 
L 348.431211 14.548191 
L 349.325283 16.505415 
L 350.219355 18.97142 
L 351.560463 23.598018 
L 352.901571 29.23642 
L 354.689715 38.008205 
L 357.371931 52.642829 
L 360.054147 67.000498 
L 361.842291 75.307905 
L 363.183399 80.485777 
L 364.524507 84.591052 
L 365.418579 86.695673 
L 366.312651 88.296852 
L 367.206723 89.42122 
L 368.100795 90.119894 
L 368.994867 90.470848 
L 369.888939 90.581272 
L 377.041515 90.588419 
L 486.565337 90.588419 
L 486.565337 90.588419 
" clip-path="url(#p09f537d1be)" style="fill: none; stroke: #7f7f7f; stroke-width: 0.5; stroke-linecap: square"/>
   </g>
   <g id="line2d_20">
    <path d="M 39.976366 90.588419 
L 201.803401 90.542763 
L 202.697473 90.315147 
L 203.591545 89.784288 
L 204.485617 88.85936 
L 205.379689 87.477451 
L 206.273761 85.601205 
L 207.167833 83.216453 
L 208.061905 80.329847 
L 209.403013 75.118361 
L 210.744121 68.988131 
L 212.532265 59.761538 
L 217.896697 31.0999 
L 219.237805 25.19024 
L 220.578913 20.245198 
L 221.472985 17.552293 
L 222.367057 15.366162 
L 223.261129 13.685618 
L 224.155201 12.487731 
L 225.049273 11.725459 
L 225.943345 11.325286 
L 226.837417 11.184854 
L 230.860741 11.170877 
L 371.677083 11.241631 
L 372.571155 11.518501 
L 373.465227 12.118129 
L 374.359299 13.125855 
L 375.253371 14.599553 
L 376.147443 16.571994 
L 377.041515 19.053207 
L 378.382623 23.701361 
L 379.723731 29.358375 
L 381.511876 38.14822 
L 384.641128 55.266614 
L 386.876308 67.134859 
L 388.664452 75.421136 
L 390.00556 80.57876 
L 391.346668 84.66161 
L 392.24074 86.750957 
L 393.134812 88.337328 
L 394.028884 89.448053 
L 394.922956 90.135021 
L 395.817028 90.477048 
L 397.158136 90.588389 
L 486.565337 90.588419 
L 486.565337 90.588419 
" clip-path="url(#p09f537d1be)" style="fill: none; stroke-dasharray: 1.85,0.8; stroke-dashoffset: 0; stroke: #bcbd22; stroke-width: 0.5"/>
   </g>
   <g id="line2d_21">
    <path d="M 39.976366 90.588419 
L 228.625561 90.539268 
L 229.519633 90.304159 
L 230.413705 89.762655 
L 231.307777 88.824799 
L 232.201849 87.428482 
L 233.095921 85.537077 
L 233.989993 83.137074 
L 234.884065 80.235714 
L 236.225173 75.004141 
L 237.566281 68.857534 
L 239.354425 59.616704 
L 244.718857 30.973446 
L 246.059965 25.081326 
L 247.401073 20.157167 
L 248.295145 17.479291 
L 249.189217 15.308448 
L 250.083289 13.642832 
L 250.977361 12.458825 
L 251.871434 11.708624 
L 252.765506 11.317882 
L 253.659578 11.18334 
L 258.129938 11.170877 
L 398.499244 11.246265 
L 399.393316 11.531297 
L 400.287388 12.142068 
L 401.18146 13.163063 
L 402.075532 14.651366 
L 402.969604 16.639031 
L 403.863676 19.135444 
L 405.204784 23.805111 
L 406.545892 29.480664 
L 408.334036 38.288438 
L 411.463288 55.414597 
L 413.698468 67.268964 
L 415.486612 75.533994 
L 416.82772 80.671311 
L 418.168828 84.731709 
L 419.0629 86.805787 
L 419.956972 88.377374 
L 420.851044 89.474502 
L 421.745116 90.149835 
L 422.639188 90.483031 
L 423.980296 90.588409 
L 486.565337 90.588419 
L 486.565337 90.588419 
" clip-path="url(#p09f537d1be)" style="fill: none; stroke-dasharray: 3.2,0.8,0.5,0.8; stroke-dashoffset: 0; stroke: #17becf; stroke-width: 0.5"/>
   </g>
   <g id="line2d_22">
    <path d="M 39.976366 90.588419 
L 255.447722 90.535602 
L 256.341794 90.292893 
L 257.235866 89.740663 
L 258.129938 88.789823 
L 259.02401 87.379066 
L 259.918082 85.47249 
L 260.812154 83.057243 
L 262.153262 78.50281 
L 263.49437 72.92697 
L 265.282514 64.216322 
L 267.96473 49.612908 
L 270.646946 35.208489 
L 272.43509 26.831506 
L 273.776198 21.586575 
L 275.117306 17.406748 
L 276.011378 15.25119 
L 276.90545 13.600481 
L 277.799522 12.43031 
L 278.693594 11.692114 
L 279.587666 11.310711 
L 280.481738 11.181939 
L 285.399134 11.170877 
L 425.321404 11.251091 
L 426.215476 11.544387 
L 427.109548 12.166379 
L 428.00362 13.200693 
L 428.897692 14.70363 
L 429.791764 16.706528 
L 430.685836 19.21813 
L 432.026944 23.909266 
L 433.368052 29.603283 
L 435.156196 38.428855 
L 438.285448 55.562508 
L 440.520628 67.40281 
L 442.308772 75.646477 
L 443.64988 80.763428 
L 444.990989 84.801349 
L 445.885061 86.860163 
L 446.779133 88.416991 
L 447.673205 89.50057 
L 448.567277 90.164339 
L 449.461349 90.488803 
L 450.802457 90.588417 
L 486.565337 90.588419 
L 486.565337 90.588419 
" clip-path="url(#p09f537d1be)" style="fill: none; stroke-dasharray: 0.5,0.825; stroke-dashoffset: 0; stroke: #1f77b4; stroke-width: 0.5"/>
   </g>
   <g id="patch_3">
    <path d="M 39.976366 94.559296 
L 39.976366 7.2 
" style="fill: none; stroke: #000000; stroke-width: 0.8; stroke-linejoin: miter; stroke-linecap: square"/>
   </g>
   <g id="patch_4">
    <path d="M 486.565337 94.559296 
L 486.565337 7.2 
" style="fill: none; stroke: #000000; stroke-width: 0.8; stroke-linejoin: miter; stroke-linecap: square"/>
   </g>
   <g id="patch_5">
    <path d="M 39.976366 94.559296 
L 486.565337 94.559296 
" style="fill: none; stroke: #000000; stroke-width: 0.8; stroke-linejoin: miter; stroke-linecap: square"/>
   </g>
   <g id="patch_6">
    <path d="M 39.976366 7.2 
L 486.565337 7.2 
" style="fill: none; stroke: #000000; stroke-width: 0.8; stroke-linejoin: miter; stroke-linecap: square"/>
   </g>
   <g id="legend_1">
    <g id="patch_7">
     <path d="M 46.276366 65.197892 
L 125.904879 65.197892 
Q 127.704879 65.197892 127.704879 63.397892 
L 127.704879 38.361404 
Q 127.704879 36.561404 125.904879 36.561404 
L 46.276366 36.561404 
Q 44.476366 36.561404 44.476366 38.361404 
L 44.476366 63.397892 
Q 44.476366 65.197892 46.276366 65.197892 
z
" style="fill: #ffffff; opacity: 0.8; stroke: #cccccc; stroke-width: 0.24; stroke-linejoin: miter"/>
    </g>
    <g id="text_13">
     <!-- Reference -->
     <g transform="translate(66.683001 46.388054) scale(0.09 -0.09)">
      <defs>
       <path id="CMR17-52" d="M 2509 2146 
C 3117 2268 3629 2676 3629 3186 
C 3629 3785 2950 4326 2054 4326 
L 333 4326 
L 333 4160 
C 774 4160 845 4160 845 3873 
L 845 415 
C 845 128 774 128 333 128 
L 333 -26 
C 518 -26 851 -26 1050 -26 
C 1248 -26 1581 -26 1766 -26 
L 1766 128 
C 1325 128 1254 128 1254 417 
L 1254 2112 
L 2003 2112 
C 2368 2112 2573 1964 2662 1881 
C 2918 1632 2918 1459 2918 1024 
C 2918 595 2918 377 3110 160 
C 3354 -102 3680 -128 3821 -128 
C 4294 -128 4365 396 4365 503 
C 4365 540 4365 585 4307 585 
C 4256 585 4250 547 4250 522 
C 4218 112 4032 -26 3834 -26 
C 3482 -26 3443 375 3405 764 
C 3386 898 3373 993 3360 1133 
C 3322 1452 3270 1917 2509 2146 
z
M 1984 2214 
L 1254 2214 
L 1254 3913 
C 1254 4129 1267 4160 1523 4160 
L 1990 4160 
C 2522 4160 3142 3977 3142 3190 
C 3142 2372 2464 2214 1984 2214 
z
" transform="scale(0.015625)"/>
       <path id="CMR17-66" d="M 979 2560 
L 1709 2560 
L 1709 2725 
L 966 2725 
L 966 3494 
C 966 4022 1235 4352 1510 4352 
C 1594 4352 1690 4327 1754 4282 
C 1702 4269 1568 4225 1568 4067 
C 1568 3901 1696 3850 1786 3850 
C 1875 3850 2003 3901 2003 4067 
C 2003 4308 1773 4454 1517 4454 
C 1152 4454 653 4156 653 3481 
L 653 2725 
L 141 2725 
L 141 2560 
L 653 2560 
L 653 427 
C 653 184 627 153 218 153 
L 218 -13 
C 371 0 666 0 832 0 
C 1018 0 1344 0 1517 -13 
L 1517 153 
C 1056 153 979 153 979 439 
L 979 2560 
z
" transform="scale(0.015625)"/>
       <path id="CMR17-6e" d="M 2656 1933 
C 2656 2259 2592 2790 1837 2790 
C 1331 2790 1069 2400 973 2144 
L 966 2144 
L 966 2790 
L 211 2720 
L 211 2554 
C 589 2554 646 2515 646 2208 
L 646 428 
C 646 184 621 153 211 153 
L 211 -13 
C 365 0 646 0 813 0 
C 979 0 1267 0 1421 -13 
L 1421 153 
C 1011 153 986 178 986 428 
L 986 1658 
C 986 2247 1344 2688 1792 2688 
C 2266 2688 2317 2266 2317 1958 
L 2317 428 
C 2317 184 2291 153 1882 153 
L 1882 -13 
C 2035 0 2317 0 2483 0 
C 2650 0 2938 0 3091 -13 
L 3091 153 
C 2682 153 2656 178 2656 428 
L 2656 1933 
z
" transform="scale(0.015625)"/>
       <path id="CMR17-63" d="M 2234 2240 
C 2112 2240 1933 2240 1933 2017 
C 1933 1838 2080 1787 2163 1787 
C 2208 1787 2394 1807 2394 2024 
C 2394 2467 1958 2803 1466 2803 
C 787 2803 211 2178 211 1363 
C 211 516 813 -64 1466 -64 
C 2259 -64 2458 677 2458 748 
C 2458 774 2451 793 2406 793 
C 2362 793 2355 787 2330 703 
C 2163 180 1798 51 1523 51 
C 1114 51 621 427 621 1369 
C 621 2338 1094 2688 1472 2688 
C 1722 2688 2093 2573 2234 2240 
z
" transform="scale(0.015625)"/>
      </defs>
      <use xlink:href="#CMR17-52" transform="scale(0.996264)"/>
      <use xlink:href="#CMR17-65" transform="translate(67.791102 0) scale(0.996264)"/>
      <use xlink:href="#CMR17-66" transform="translate(108.276762 0) scale(0.996264)"/>
      <use xlink:href="#CMR17-65" transform="translate(135.750275 0) scale(0.996264)"/>
      <use xlink:href="#CMR17-72" transform="translate(176.235935 0) scale(0.996264)"/>
      <use xlink:href="#CMR17-65" transform="translate(211.516703 0) scale(0.996264)"/>
      <use xlink:href="#CMR17-6e" transform="translate(252.002364 0) scale(0.996264)"/>
      <use xlink:href="#CMR17-63" transform="translate(302.897733 0) scale(0.996264)"/>
      <use xlink:href="#CMR17-65" transform="translate(343.383394 0) scale(0.996264)"/>
     </g>
    </g>
    <g id="line2d_23">
     <path d="M 48.076366 56.206298 
L 57.076366 56.206298 
L 66.076366 56.206298 
" style="fill: none; stroke: #d3d3d3; stroke-width: 3; stroke-linecap: square"/>
    </g>
    <g id="text_14">
     <!-- $(||H||-1)/2$ -->
     <g transform="translate(73.276366 59.356298) scale(0.09 -0.09)">
      <defs>
       <path id="CMR17-28" d="M 1958 -1561 
C 1958 -1555 1958 -1542 1939 -1523 
C 1645 -1224 858 -407 858 1581 
C 858 3569 1632 4379 1946 4697 
C 1946 4704 1958 4717 1958 4736 
C 1958 4755 1939 4768 1914 4768 
C 1843 4768 1299 4296 986 3594 
C 666 2887 576 2199 576 1588 
C 576 1128 621 351 1005 -471 
C 1312 -1135 1837 -1600 1914 -1600 
C 1946 -1600 1958 -1587 1958 -1561 
z
" transform="scale(0.015625)"/>
       <path id="CMSY10-6a" d="M 1018 4570 
C 1018 4685 1018 4800 890 4800 
C 762 4800 762 4685 762 4570 
L 762 -1370 
C 762 -1485 762 -1600 890 -1600 
C 1018 -1600 1018 -1485 1018 -1370 
L 1018 4570 
z
" transform="scale(0.015625)"/>
       <path id="CMMI12-48" d="M 4787 3887 
C 4845 4103 4858 4167 5312 4167 
C 5427 4167 5491 4167 5491 4282 
C 5491 4352 5434 4352 5395 4352 
C 5280 4352 5146 4352 5024 4352 
L 4269 4352 
C 4147 4352 4013 4352 3891 4352 
C 3846 4352 3770 4352 3770 4231 
C 3770 4167 3814 4167 3936 4167 
C 4320 4167 4320 4116 4320 4046 
C 4320 4034 4320 3995 4294 3900 
L 3904 2361 
L 1971 2361 
L 2355 3887 
C 2413 4103 2426 4167 2880 4167 
C 2995 4167 3059 4167 3059 4282 
C 3059 4352 3002 4352 2963 4352 
C 2848 4352 2714 4352 2592 4352 
L 1837 4352 
C 1715 4352 1581 4352 1459 4352 
C 1414 4352 1338 4352 1338 4231 
C 1338 4167 1382 4167 1504 4167 
C 1888 4167 1888 4116 1888 4046 
C 1888 4034 1888 3995 1862 3899 
L 998 472 
C 941 249 928 185 486 185 
C 339 185 294 185 294 64 
C 294 0 365 0 384 0 
C 499 0 634 0 755 0 
L 1510 0 
C 1632 0 1766 0 1888 0 
C 1939 0 2010 0 2010 121 
C 2010 185 1952 185 1856 185 
C 1466 185 1466 236 1466 300 
C 1466 307 1466 351 1478 402 
L 1920 2176 
L 3859 2176 
C 3750 1753 3424 416 3411 376 
C 3341 185 3238 185 2861 185 
C 2784 185 2726 185 2726 64 
C 2726 0 2797 0 2816 0 
C 2931 0 3066 0 3187 0 
L 3942 0 
C 4064 0 4198 0 4320 0 
C 4371 0 4442 0 4442 121 
C 4442 185 4384 185 4288 185 
C 3898 185 3898 236 3898 300 
C 3898 307 3898 351 3910 402 
L 4787 3887 
z
" transform="scale(0.015625)"/>
       <path id="CMSY10-0" d="M 4218 1472 
C 4326 1472 4442 1472 4442 1600 
C 4442 1728 4326 1728 4218 1728 
L 755 1728 
C 646 1728 531 1728 531 1600 
C 531 1472 646 1472 755 1472 
L 4218 1472 
z
" transform="scale(0.015625)"/>
       <path id="CMR17-29" d="M 1683 1581 
C 1683 2040 1638 2817 1254 3639 
C 947 4303 422 4768 346 4768 
C 326 4768 301 4761 301 4729 
C 301 4717 307 4710 314 4697 
C 621 4378 1402 3568 1402 1584 
C 1402 -407 627 -1217 314 -1537 
C 307 -1549 301 -1556 301 -1568 
C 301 -1600 326 -1600 346 -1600 
C 416 -1600 960 -1128 1274 -426 
C 1594 281 1683 969 1683 1581 
z
" transform="scale(0.015625)"/>
       <path id="CMMI12-3d" d="M 2746 4562 
C 2746 4569 2784 4666 2784 4678 
C 2784 4755 2720 4800 2669 4800 
C 2637 4800 2579 4800 2528 4659 
L 384 -1363 
C 384 -1370 346 -1465 346 -1478 
C 346 -1555 410 -1600 461 -1600 
C 499 -1600 557 -1593 602 -1459 
L 2746 4562 
z
" transform="scale(0.015625)"/>
      </defs>
      <use xlink:href="#CMR17-28" transform="scale(0.996264)"/>
      <use xlink:href="#CMSY10-6a" transform="translate(35.280768 0) scale(0.996264)"/>
      <use xlink:href="#CMSY10-6a" transform="translate(62.954853 0) scale(0.996264)"/>
      <use xlink:href="#CMMI12-48" transform="translate(90.628937 0) scale(0.996264)"/>
      <use xlink:href="#CMSY10-6a" transform="translate(179.15071 0) scale(0.996264)"/>
      <use xlink:href="#CMSY10-6a" transform="translate(206.824795 0) scale(0.996264)"/>
      <use xlink:href="#CMSY10-0" transform="translate(256.638086 0) scale(0.996264)"/>
      <use xlink:href="#CMR17-31" transform="translate(356.264761 0) scale(0.996264)"/>
      <use xlink:href="#CMR17-29" transform="translate(401.955238 0) scale(0.996264)"/>
      <use xlink:href="#CMMI12-3d" transform="translate(437.236006 0) scale(0.996264)"/>
      <use xlink:href="#CMR17-32" transform="translate(486.010925 0) scale(0.996264)"/>
     </g>
    </g>
   </g>
   <g id="legend_2">
    <g id="patch_8">
     <path d="M 398.577026 83.47857 
L 482.193137 83.47857 
Q 483.442337 83.47857 483.442337 82.22937 
L 483.442337 19.529925 
Q 483.442337 18.280725 482.193137 18.280725 
L 398.577026 18.280725 
Q 397.327826 18.280725 397.327826 19.529925 
L 397.327826 82.22937 
Q 397.327826 83.47857 398.577026 83.47857 
z
" style="fill: #ffffff; opacity: 0.8; stroke: #cccccc; stroke-width: 0.24; stroke-linejoin: miter"/>
    </g>
    <g id="text_15">
     <!-- Shift of $L_h$ -->
     <g transform="translate(418.697801 27.005776) scale(0.09 -0.09)">
      <defs>
       <path id="CMR17-53" d="M 2803 4290 
C 2803 4404 2797 4411 2758 4411 
C 2720 4411 2707 4385 2682 4328 
L 2490 3907 
C 2246 4257 1875 4416 1472 4416 
C 819 4416 294 3901 294 3253 
C 294 3056 339 2776 557 2510 
C 794 2218 1018 2167 1530 2033 
C 1722 1982 2042 1899 2106 1874 
C 2470 1722 2662 1341 2662 985 
C 2662 527 2336 38 1779 38 
C 1094 38 454 419 410 1311 
C 403 1413 397 1419 352 1419 
C 301 1419 294 1413 294 1285 
L 294 -1 
C 294 -115 301 -122 339 -122 
C 384 -122 397 -90 486 108 
C 493 127 493 140 614 381 
C 934 -39 1472 -128 1779 -128 
C 2477 -128 2970 451 2970 1124 
C 2970 1454 2848 1708 2778 1823 
C 2509 2230 2221 2306 1914 2382 
C 1869 2402 1856 2402 1498 2490 
C 1152 2579 1005 2624 845 2796 
C 666 2992 602 3196 602 3399 
C 602 3812 934 4263 1478 4263 
C 2157 4263 2579 3786 2675 2993 
C 2694 2878 2701 2872 2746 2872 
C 2803 2872 2803 2891 2803 2999 
L 2803 4290 
z
" transform="scale(0.015625)"/>
       <path id="CMR17-68" d="M 2656 1933 
C 2656 2259 2592 2790 1837 2790 
C 1312 2790 1056 2368 979 2157 
L 973 2157 
L 973 4396 
L 211 4326 
L 211 4160 
C 589 4160 646 4122 646 3817 
L 646 426 
C 646 184 621 153 211 153 
L 211 -13 
C 365 0 646 0 813 0 
C 979 0 1267 0 1421 -13 
L 1421 153 
C 1011 153 986 178 986 428 
L 986 1658 
C 986 2247 1344 2688 1792 2688 
C 2266 2688 2317 2266 2317 1958 
L 2317 428 
C 2317 184 2291 153 1882 153 
L 1882 -13 
C 2035 0 2317 0 2483 0 
C 2650 0 2938 0 3091 -13 
L 3091 153 
C 2682 153 2656 178 2656 428 
L 2656 1933 
z
" transform="scale(0.015625)"/>
       <path id="CMR17-69" d="M 992 3909 
C 992 4049 877 4170 730 4170 
C 589 4170 467 4056 467 3909 
C 467 3769 582 3648 730 3648 
C 870 3648 992 3763 992 3909 
z
M 243 2706 
L 243 2541 
C 602 2541 653 2502 653 2197 
L 653 427 
C 653 184 627 153 218 153 
L 218 -13 
C 371 0 646 0 806 0 
C 960 0 1222 0 1370 -13 
L 1370 153 
C 992 153 979 191 979 420 
L 979 2776 
L 243 2706 
z
" transform="scale(0.015625)"/>
       <path id="CMMI12-4c" d="M 2349 3861 
C 2406 4103 2426 4167 2989 4167 
C 3162 4167 3206 4167 3206 4288 
C 3206 4352 3136 4352 3110 4352 
C 2982 4352 2835 4352 2707 4352 
L 1850 4352 
C 1728 4352 1587 4352 1466 4352 
C 1414 4352 1344 4352 1344 4231 
C 1344 4167 1402 4167 1498 4167 
C 1888 4167 1888 4116 1888 4046 
C 1888 4034 1888 3995 1862 3899 
L 998 472 
C 941 249 928 185 480 185 
C 358 185 294 185 294 70 
C 294 0 333 0 461 0 
L 3328 0 
C 3469 0 3475 6 3520 121 
L 4013 1478 
C 4026 1510 4038 1548 4038 1567 
C 4038 1605 4006 1631 3974 1631 
C 3968 1631 3936 1631 3923 1605 
C 3910 1599 3910 1586 3859 1465 
C 3654 905 3366 185 2285 185 
L 1670 185 
C 1581 185 1568 185 1530 192 
C 1459 198 1453 211 1453 262 
C 1453 307 1466 345 1478 401 
L 2349 3861 
z
" transform="scale(0.015625)"/>
       <path id="CMMI12-68" d="M 1798 4257 
C 1805 4283 1818 4321 1818 4352 
C 1818 4416 1754 4416 1741 4416 
C 1734 4416 1421 4388 1389 4380 
C 1280 4373 1184 4358 1069 4358 
C 909 4345 864 4339 864 4224 
C 864 4160 915 4160 1005 4160 
C 1318 4160 1325 4103 1325 4040 
C 1325 4002 1312 3951 1306 3932 
L 378 248 
C 352 152 352 140 352 101 
C 352 -38 461 -64 525 -64 
C 634 -64 717 19 749 89 
L 1037 1245 
C 1069 1386 1107 1520 1139 1660 
C 1210 1929 1210 1935 1331 2120 
C 1453 2305 1741 2689 2234 2689 
C 2490 2689 2579 2497 2579 2242 
C 2579 1884 2330 1188 2189 805 
C 2131 651 2099 568 2099 453 
C 2099 166 2298 -64 2605 -64 
C 3200 -64 3424 875 3424 913 
C 3424 945 3398 971 3360 971 
C 3302 971 3296 952 3264 843 
C 3117 332 2880 64 2624 64 
C 2560 64 2458 64 2458 269 
C 2458 436 2534 640 2560 710 
C 2675 1018 2963 1773 2963 2145 
C 2963 2528 2739 2816 2253 2816 
C 1888 2816 1568 2644 1306 2312 
L 1798 4257 
z
" transform="scale(0.015625)"/>
      </defs>
      <use xlink:href="#CMR17-53" transform="scale(0.996264)"/>
      <use xlink:href="#CMR17-68" transform="translate(50.89537 0) scale(0.996264)"/>
      <use xlink:href="#CMR17-69" transform="translate(101.79074 0) scale(0.996264)"/>
      <use xlink:href="#CMR17-66" transform="translate(126.661798 0) scale(0.996264)"/>
      <use xlink:href="#CMR17-74" transform="translate(154.13531 0) scale(0.996264)"/>
      <use xlink:href="#CMR17-6f" transform="translate(219.492045 0) scale(0.996264)"/>
      <use xlink:href="#CMR17-66" transform="translate(265.182522 0) scale(0.996264)"/>
      <use xlink:href="#CMMI12-4c" transform="translate(322.732 0) scale(0.996264)"/>
      <use xlink:href="#CMMI12-68" transform="translate(389.102876 -14.943915) scale(0.697382)"/>
     </g>
    </g>
    <g id="line2d_24">
     <path d="M 399.826226 34.058338 
L 406.072226 34.058338 
L 412.318226 34.058338 
" style="fill: none; stroke-dasharray: 1.85,0.8; stroke-dashoffset: 0; stroke: #1f77b4; stroke-width: 0.5"/>
    </g>
    <g id="text_16">
     <!-- $-18\%$ -->
     <g transform="translate(417.315026 36.244438) scale(0.06246 -0.06246)">
      <defs>
       <path id="CMR17-38" d="M 1741 2264 
C 2144 2467 2554 2773 2554 3263 
C 2554 3841 1990 4179 1472 4179 
C 890 4179 378 3759 378 3180 
C 378 3021 416 2747 666 2505 
C 730 2442 998 2251 1171 2130 
C 883 1983 211 1634 211 934 
C 211 279 838 -128 1459 -128 
C 2144 -128 2720 362 2720 1010 
C 2720 1590 2330 1857 2074 2029 
L 1741 2264 
z
M 902 2822 
C 851 2854 595 3051 595 3351 
C 595 3739 998 4032 1459 4032 
C 1965 4032 2336 3676 2336 3262 
C 2336 2669 1670 2331 1638 2331 
C 1632 2331 1626 2331 1574 2370 
L 902 2822 
z
M 2080 1519 
C 2176 1449 2483 1240 2483 851 
C 2483 381 2010 25 1472 25 
C 890 25 448 438 448 940 
C 448 1443 838 1862 1280 2060 
L 2080 1519 
z
" transform="scale(0.015625)"/>
       <path id="CMR17-25" d="M 4640 959 
C 4640 1698 4275 2240 3846 2240 
C 3411 2240 2970 1736 2970 959 
C 2970 183 3405 -320 3846 -320 
C 4275 -320 4640 215 4640 959 
z
M 3853 -218 
C 3686 -218 3270 -66 3270 959 
C 3270 1991 3686 2138 3853 2138 
C 4205 2138 4525 1634 4525 959 
C 4525 285 4205 -218 3853 -218 
z
M 4083 4577 
C 4128 4647 4134 4653 4134 4685 
C 4134 4761 4077 4800 4026 4800 
C 3962 4800 3936 4756 3891 4706 
C 3520 4190 3008 4134 2746 4134 
C 2106 4134 1715 4494 1594 4607 
C 1510 4682 1389 4800 1171 4800 
C 736 4800 294 4296 294 3519 
C 294 2743 730 2240 1171 2240 
C 1600 2240 1965 2778 1965 3527 
C 1965 3969 1830 4270 1811 4308 
C 2202 4064 2586 4032 2752 4032 
C 3162 4032 3456 4183 3616 4289 
L 3622 4283 
L 858 -84 
C 800 -174 800 -187 800 -206 
C 800 -276 858 -320 915 -320 
C 973 -320 992 -289 1037 -218 
L 4083 4577 
z
M 1178 2342 
C 1011 2342 595 2494 595 3519 
C 595 4551 1011 4698 1178 4698 
C 1530 4698 1850 4194 1850 3519 
C 1850 2845 1530 2342 1178 2342 
z
" transform="scale(0.015625)"/>
      </defs>
      <use xlink:href="#CMSY10-0" transform="scale(0.996264)"/>
      <use xlink:href="#CMR17-31" transform="translate(77.487468 0) scale(0.996264)"/>
      <use xlink:href="#CMR17-38" transform="translate(123.177945 0) scale(0.996264)"/>
      <use xlink:href="#CMR17-25" transform="translate(168.868422 0) scale(0.996264)"/>
     </g>
    </g>
    <g id="line2d_25">
     <path d="M 399.826226 42.763493 
L 406.072226 42.763493 
L 412.318226 42.763493 
" style="fill: none; stroke-dasharray: 3.2,0.8,0.5,0.8; stroke-dashoffset: 0; stroke: #ff7f0e; stroke-width: 0.5"/>
    </g>
    <g id="text_17">
     <!-- $-12\%$ -->
     <g transform="translate(417.315026 44.949593) scale(0.06246 -0.06246)">
      <use xlink:href="#CMSY10-0" transform="scale(0.996264)"/>
      <use xlink:href="#CMR17-31" transform="translate(77.487468 0) scale(0.996264)"/>
      <use xlink:href="#CMR17-32" transform="translate(123.177945 0) scale(0.996264)"/>
      <use xlink:href="#CMR17-25" transform="translate(168.868422 0) scale(0.996264)"/>
     </g>
    </g>
    <g id="line2d_26">
     <path d="M 399.826226 51.468648 
L 406.072226 51.468648 
L 412.318226 51.468648 
" style="fill: none; stroke-dasharray: 0.5,0.825; stroke-dashoffset: 0; stroke: #2ca02c; stroke-width: 0.5"/>
    </g>
    <g id="text_18">
     <!-- $-6\%$ -->
     <g transform="translate(417.315026 53.654748) scale(0.06246 -0.06246)">
      <use xlink:href="#CMSY10-0" transform="scale(0.996264)"/>
      <use xlink:href="#CMR17-36" transform="translate(77.487468 0) scale(0.996264)"/>
      <use xlink:href="#CMR17-25" transform="translate(123.177945 0) scale(0.996264)"/>
     </g>
    </g>
    <g id="line2d_27">
     <path d="M 399.826226 60.173804 
L 406.072226 60.173804 
L 412.318226 60.173804 
" style="fill: none; stroke: #d62728; stroke-width: 0.5; stroke-linecap: square"/>
    </g>
    <g id="text_19">
     <!-- $0\%$ -->
     <g transform="translate(417.315026 62.359904) scale(0.06246 -0.06246)">
      <use xlink:href="#CMR17-30" transform="scale(0.996264)"/>
      <use xlink:href="#CMR17-25" transform="translate(45.690477 0) scale(0.996264)"/>
     </g>
    </g>
    <g id="line2d_28">
     <path d="M 399.826226 68.878959 
L 406.072226 68.878959 
L 412.318226 68.878959 
" style="fill: none; stroke-dasharray: 1.85,0.8; stroke-dashoffset: 0; stroke: #9467bd; stroke-width: 0.5"/>
    </g>
    <g id="text_20">
     <!-- $6\%$ -->
     <g transform="translate(417.315026 71.065059) scale(0.06246 -0.06246)">
      <use xlink:href="#CMR17-36" transform="scale(0.996264)"/>
      <use xlink:href="#CMR17-25" transform="translate(45.690477 0) scale(0.996264)"/>
     </g>
    </g>
    <g id="line2d_29">
     <path d="M 399.826226 77.584115 
L 406.072226 77.584115 
L 412.318226 77.584115 
" style="fill: none; stroke-dasharray: 3.2,0.8,0.5,0.8; stroke-dashoffset: 0; stroke: #8c564b; stroke-width: 0.5"/>
    </g>
    <g id="text_21">
     <!-- $12\%$ -->
     <g transform="translate(417.315026 79.770215) scale(0.06246 -0.06246)">
      <use xlink:href="#CMR17-31" transform="scale(0.996264)"/>
      <use xlink:href="#CMR17-32" transform="translate(45.690477 0) scale(0.996264)"/>
      <use xlink:href="#CMR17-25" transform="translate(91.380954 0) scale(0.996264)"/>
     </g>
    </g>
    <g id="line2d_30">
     <path d="M 449.627155 34.058338 
L 455.873155 34.058338 
L 462.119155 34.058338 
" style="fill: none; stroke-dasharray: 0.5,0.825; stroke-dashoffset: 0; stroke: #e377c2; stroke-width: 0.5"/>
    </g>
    <g id="text_22">
     <!-- $18\%$ -->
     <g transform="translate(467.115955 36.244438) scale(0.06246 -0.06246)">
      <use xlink:href="#CMR17-31" transform="scale(0.996264)"/>
      <use xlink:href="#CMR17-38" transform="translate(45.690477 0) scale(0.996264)"/>
      <use xlink:href="#CMR17-25" transform="translate(91.380954 0) scale(0.996264)"/>
     </g>
    </g>
    <g id="line2d_31">
     <path d="M 449.627155 42.763493 
L 455.873155 42.763493 
L 462.119155 42.763493 
" style="fill: none; stroke: #7f7f7f; stroke-width: 0.5; stroke-linecap: square"/>
    </g>
    <g id="text_23">
     <!-- $24\%$ -->
     <g transform="translate(467.115955 44.949593) scale(0.06246 -0.06246)">
      <use xlink:href="#CMR17-32" transform="scale(0.996264)"/>
      <use xlink:href="#CMR17-34" transform="translate(45.690477 0) scale(0.996264)"/>
      <use xlink:href="#CMR17-25" transform="translate(91.380954 0) scale(0.996264)"/>
     </g>
    </g>
    <g id="line2d_32">
     <path d="M 449.627155 51.468648 
L 455.873155 51.468648 
L 462.119155 51.468648 
" style="fill: none; stroke-dasharray: 1.85,0.8; stroke-dashoffset: 0; stroke: #bcbd22; stroke-width: 0.5"/>
    </g>
    <g id="text_24">
     <!-- $30\%$ -->
     <g transform="translate(467.115955 53.654748) scale(0.06246 -0.06246)">
      <use xlink:href="#CMR17-33" transform="scale(0.996264)"/>
      <use xlink:href="#CMR17-30" transform="translate(45.690477 0) scale(0.996264)"/>
      <use xlink:href="#CMR17-25" transform="translate(91.380954 0) scale(0.996264)"/>
     </g>
    </g>
    <g id="line2d_33">
     <path d="M 449.627155 60.173804 
L 455.873155 60.173804 
L 462.119155 60.173804 
" style="fill: none; stroke-dasharray: 3.2,0.8,0.5,0.8; stroke-dashoffset: 0; stroke: #17becf; stroke-width: 0.5"/>
    </g>
    <g id="text_25">
     <!-- $36\%$ -->
     <g transform="translate(467.115955 62.359904) scale(0.06246 -0.06246)">
      <use xlink:href="#CMR17-33" transform="scale(0.996264)"/>
      <use xlink:href="#CMR17-36" transform="translate(45.690477 0) scale(0.996264)"/>
      <use xlink:href="#CMR17-25" transform="translate(91.380954 0) scale(0.996264)"/>
     </g>
    </g>
    <g id="line2d_34">
     <path d="M 449.627155 68.878959 
L 455.873155 68.878959 
L 462.119155 68.878959 
" style="fill: none; stroke-dasharray: 0.5,0.825; stroke-dashoffset: 0; stroke: #1f77b4; stroke-width: 0.5"/>
    </g>
    <g id="text_26">
     <!-- $42\%$ -->
     <g transform="translate(467.115955 71.065059) scale(0.06246 -0.06246)">
      <use xlink:href="#CMR17-34" transform="scale(0.996264)"/>
      <use xlink:href="#CMR17-32" transform="translate(45.690477 0) scale(0.996264)"/>
      <use xlink:href="#CMR17-25" transform="translate(91.380954 0) scale(0.996264)"/>
     </g>
    </g>
   </g>
  </g>
 </g>
 <defs>
  <clipPath id="p09f537d1be">
   <rect x="39.976366" y="7.2" width="446.588971" height="87.359296"/>
  </clipPath>
 </defs>
</svg>
