<?xml version="1.0" encoding="utf-8" standalone="no"?>
<!DOCTYPE svg PUBLIC "-//W3C//DTD SVG 1.1//EN"
  "http://www.w3.org/Graphics/SVG/1.1/DTD/svg11.dtd">
<svg xmlns:xlink="http://www.w3.org/1999/xlink" width="253.19952pt" height="238.79952pt" viewBox="0 0 253.19952 238.79952" xmlns="http://www.w3.org/2000/svg" version="1.1">
 <metadata>
  <rdf:RDF xmlns:dc="http://purl.org/dc/elements/1.1/" xmlns:cc="http://creativecommons.org/ns#" xmlns:rdf="http://www.w3.org/1999/02/22-rdf-syntax-ns#">
   <cc:Work>
    <dc:type rdf:resource="http://purl.org/dc/dcmitype/StillImage"/>
    <dc:date>1980-01-01T00:00:00+00:00</dc:date>
    <dc:format>image/svg+xml</dc:format>
    <dc:creator>
     <cc:Agent>
      <dc:title>Matplotlib v3.6.2, https://matplotlib.org/</dc:title>
     </cc:Agent>
    </dc:creator>
   </cc:Work>
  </rdf:RDF>
 </metadata>
 <defs>
  <style type="text/css">*{stroke-linejoin: round; stroke-linecap: butt}</style>
 </defs>
 <g id="figure_1">
  <g id="patch_1">
   <path d="M 0 238.79952 
L 253.19952 238.79952 
L 253.19952 0 
L 0 0 
z
" style="fill: #ffffff"/>
  </g>
  <g id="axes_1">
   <g id="patch_2">
    <path d="M 39.976366 202.559296 
L 241.765337 202.559296 
L 241.765337 7.2 
L 39.976366 7.2 
z
" style="fill: #ffffff"/>
   </g>
   <g id="matplotlib.axis_1">
    <g id="xtick_1">
     <g id="line2d_1">
      <defs>
       <path id="m62dc7465af" d="M 0 0 
L 0 3.5 
" style="stroke: #000000; stroke-width: 0.8"/>
      </defs>
      <g>
       <use xlink:href="#m62dc7465af" x="39.976366" y="202.559296" style="stroke: #000000; stroke-width: 0.8"/>
      </g>
     </g>
     <g id="text_1">
      <!-- $\mathdefault{0}$ -->
      <g transform="translate(37.859275 217.194098) scale(0.08 -0.08)">
       <defs>
        <path id="CMR17-30" d="M 2688 2025 
C 2688 2416 2682 3080 2413 3591 
C 2176 4039 1798 4198 1466 4198 
C 1158 4198 768 4058 525 3597 
C 269 3118 243 2524 243 2025 
C 243 1661 250 1106 448 619 
C 723 -39 1216 -128 1466 -128 
C 1760 -128 2208 -7 2470 600 
C 2662 1042 2688 1559 2688 2025 
z
M 1466 -26 
C 1056 -26 813 325 723 812 
C 653 1188 653 1738 653 2096 
C 653 2588 653 2997 736 3387 
C 858 3929 1216 4096 1466 4096 
C 1728 4096 2067 3923 2189 3400 
C 2272 3036 2278 2607 2278 2096 
C 2278 1680 2278 1169 2202 792 
C 2067 95 1690 -26 1466 -26 
z
" transform="scale(0.015625)"/>
       </defs>
       <use xlink:href="#CMR17-30" transform="scale(0.996264)"/>
      </g>
     </g>
    </g>
    <g id="xtick_2">
     <g id="line2d_2">
      <g>
       <use xlink:href="#m62dc7465af" x="73.607861" y="202.559296" style="stroke: #000000; stroke-width: 0.8"/>
      </g>
     </g>
     <g id="text_2">
      <!-- $\mathdefault{10}$ -->
      <g transform="translate(69.373679 217.194098) scale(0.08 -0.08)">
       <defs>
        <path id="CMR17-31" d="M 1702 4058 
C 1702 4192 1696 4192 1606 4192 
C 1357 3916 979 3827 621 3827 
C 602 3827 570 3827 563 3808 
C 557 3795 557 3782 557 3648 
C 755 3648 1088 3686 1344 3839 
L 1344 461 
C 1344 236 1331 160 781 160 
L 589 160 
L 589 0 
C 896 0 1216 0 1523 0 
C 1830 0 2150 0 2458 0 
L 2458 160 
L 2266 160 
C 1715 160 1702 230 1702 458 
L 1702 4058 
z
" transform="scale(0.015625)"/>
       </defs>
       <use xlink:href="#CMR17-31" transform="scale(0.996264)"/>
       <use xlink:href="#CMR17-30" transform="translate(45.690477 0) scale(0.996264)"/>
      </g>
     </g>
    </g>
    <g id="xtick_3">
     <g id="line2d_3">
      <g>
       <use xlink:href="#m62dc7465af" x="107.239357" y="202.559296" style="stroke: #000000; stroke-width: 0.8"/>
      </g>
     </g>
     <g id="text_3">
      <!-- $\mathdefault{20}$ -->
      <g transform="translate(103.005174 217.194098) scale(0.08 -0.08)">
       <defs>
        <path id="CMR17-32" d="M 2669 989 
L 2554 989 
C 2490 536 2438 459 2413 420 
C 2381 369 1920 369 1830 369 
L 602 369 
C 832 619 1280 1072 1824 1597 
C 2214 1967 2669 2402 2669 3035 
C 2669 3790 2067 4224 1395 4224 
C 691 4224 262 3604 262 3030 
C 262 2780 448 2748 525 2748 
C 589 2748 781 2787 781 3010 
C 781 3207 614 3264 525 3264 
C 486 3264 448 3258 422 3245 
C 544 3790 915 4058 1306 4058 
C 1862 4058 2227 3617 2227 3035 
C 2227 2479 1901 2000 1536 1584 
L 262 146 
L 262 0 
L 2515 0 
L 2669 989 
z
" transform="scale(0.015625)"/>
       </defs>
       <use xlink:href="#CMR17-32" transform="scale(0.996264)"/>
       <use xlink:href="#CMR17-30" transform="translate(45.690477 0) scale(0.996264)"/>
      </g>
     </g>
    </g>
    <g id="xtick_4">
     <g id="line2d_4">
      <g>
       <use xlink:href="#m62dc7465af" x="140.870852" y="202.559296" style="stroke: #000000; stroke-width: 0.8"/>
      </g>
     </g>
     <g id="text_4">
      <!-- $\mathdefault{30}$ -->
      <g transform="translate(136.636669 217.194098) scale(0.08 -0.08)">
       <defs>
        <path id="CMR17-33" d="M 1414 2157 
C 1984 2157 2234 1662 2234 1090 
C 2234 320 1824 25 1453 25 
C 1114 25 563 194 390 693 
C 422 680 454 680 486 680 
C 640 680 755 782 755 948 
C 755 1133 614 1216 486 1216 
C 378 1216 211 1165 211 926 
C 211 335 787 -128 1466 -128 
C 2176 -128 2720 430 2720 1085 
C 2720 1707 2208 2157 1600 2227 
C 2086 2328 2554 2756 2554 3329 
C 2554 3820 2048 4179 1472 4179 
C 890 4179 378 3829 378 3329 
C 378 3110 544 3072 627 3072 
C 762 3072 877 3155 877 3321 
C 877 3486 762 3569 627 3569 
C 602 3569 570 3569 544 3557 
C 730 3959 1235 4032 1459 4032 
C 1683 4032 2106 3925 2106 3320 
C 2106 3143 2080 2828 1862 2550 
C 1670 2304 1453 2304 1242 2284 
C 1210 2284 1062 2269 1037 2269 
C 992 2263 966 2257 966 2208 
C 966 2163 973 2157 1101 2157 
L 1414 2157 
z
" transform="scale(0.015625)"/>
       </defs>
       <use xlink:href="#CMR17-33" transform="scale(0.996264)"/>
       <use xlink:href="#CMR17-30" transform="translate(45.690477 0) scale(0.996264)"/>
      </g>
     </g>
    </g>
    <g id="xtick_5">
     <g id="line2d_5">
      <g>
       <use xlink:href="#m62dc7465af" x="174.502347" y="202.559296" style="stroke: #000000; stroke-width: 0.8"/>
      </g>
     </g>
     <g id="text_5">
      <!-- $\mathdefault{40}$ -->
      <g transform="translate(170.268164 217.194098) scale(0.08 -0.08)">
       <defs>
        <path id="CMR17-34" d="M 2150 4122 
C 2150 4256 2144 4256 2029 4256 
L 128 1254 
L 128 1088 
L 1779 1088 
L 1779 457 
C 1779 224 1766 160 1318 160 
L 1197 160 
L 1197 0 
C 1402 0 1747 0 1965 0 
C 2182 0 2528 0 2733 0 
L 2733 160 
L 2611 160 
C 2163 160 2150 224 2150 457 
L 2150 1088 
L 2803 1088 
L 2803 1254 
L 2150 1254 
L 2150 4122 
z
M 1798 3703 
L 1798 1254 
L 256 1254 
L 1798 3703 
z
" transform="scale(0.015625)"/>
       </defs>
       <use xlink:href="#CMR17-34" transform="scale(0.996264)"/>
       <use xlink:href="#CMR17-30" transform="translate(45.690477 0) scale(0.996264)"/>
      </g>
     </g>
    </g>
    <g id="xtick_6">
     <g id="line2d_6">
      <g>
       <use xlink:href="#m62dc7465af" x="208.133842" y="202.559296" style="stroke: #000000; stroke-width: 0.8"/>
      </g>
     </g>
     <g id="text_6">
      <!-- $\mathdefault{50}$ -->
      <g transform="translate(203.899659 217.194098) scale(0.08 -0.08)">
       <defs>
        <path id="CMR17-35" d="M 730 3692 
C 794 3666 1056 3584 1325 3584 
C 1920 3584 2246 3911 2432 4100 
C 2432 4157 2432 4192 2394 4192 
C 2387 4192 2374 4192 2323 4163 
C 2099 4058 1837 3973 1517 3973 
C 1325 3973 1037 3999 723 4139 
C 653 4171 640 4171 634 4171 
C 602 4171 595 4164 595 4037 
L 595 2203 
C 595 2089 595 2057 659 2057 
C 691 2057 704 2070 736 2114 
C 941 2401 1222 2522 1542 2522 
C 1766 2522 2246 2382 2246 1289 
C 2246 1085 2246 715 2054 421 
C 1894 159 1645 25 1370 25 
C 947 25 518 320 403 814 
C 429 807 480 795 506 795 
C 589 795 749 840 749 1038 
C 749 1210 627 1280 506 1280 
C 358 1280 262 1190 262 1011 
C 262 454 704 -128 1382 -128 
C 2042 -128 2669 440 2669 1264 
C 2669 2030 2170 2624 1549 2624 
C 1222 2624 947 2503 730 2274 
L 730 3692 
z
" transform="scale(0.015625)"/>
       </defs>
       <use xlink:href="#CMR17-35" transform="scale(0.996264)"/>
       <use xlink:href="#CMR17-30" transform="translate(45.690477 0) scale(0.996264)"/>
      </g>
     </g>
    </g>
    <g id="xtick_7">
     <g id="line2d_7">
      <g>
       <use xlink:href="#m62dc7465af" x="241.765337" y="202.559296" style="stroke: #000000; stroke-width: 0.8"/>
      </g>
     </g>
     <g id="text_7">
      <!-- $\mathdefault{60}$ -->
      <g transform="translate(237.531154 217.194098) scale(0.08 -0.08)">
       <defs>
        <path id="CMR17-36" d="M 678 2176 
C 678 3690 1395 4032 1811 4032 
C 1946 4032 2272 4009 2400 3776 
C 2298 3776 2106 3776 2106 3553 
C 2106 3381 2246 3323 2336 3323 
C 2394 3323 2566 3348 2566 3560 
C 2566 3954 2246 4179 1805 4179 
C 1043 4179 243 3390 243 1984 
C 243 253 966 -128 1478 -128 
C 2099 -128 2688 427 2688 1283 
C 2688 2081 2170 2662 1517 2662 
C 1126 2662 838 2407 678 1960 
L 678 2176 
z
M 1478 25 
C 691 25 691 1200 691 1436 
C 691 1896 909 2560 1504 2560 
C 1613 2560 1926 2560 2138 2120 
C 2253 1870 2253 1609 2253 1289 
C 2253 944 2253 690 2118 434 
C 1978 171 1773 25 1478 25 
z
" transform="scale(0.015625)"/>
       </defs>
       <use xlink:href="#CMR17-36" transform="scale(0.996264)"/>
       <use xlink:href="#CMR17-30" transform="translate(45.690477 0) scale(0.996264)"/>
      </g>
     </g>
    </g>
    <g id="text_8">
     <!-- $\tau$ -->
     <g transform="translate(138.69325 229.662342) scale(0.1 -0.1)">
      <defs>
       <path id="CMMI12-1c" d="M 1837 2408 
L 2899 2408 
C 2982 2408 3194 2408 3194 2612 
C 3194 2752 3072 2752 2957 2752 
L 1197 2752 
C 1050 2752 832 2752 538 2440 
C 371 2255 166 1917 166 1879 
C 166 1841 198 1828 237 1828 
C 282 1828 288 1847 320 1885 
C 653 2408 986 2408 1146 2408 
L 1677 2408 
L 1011 223 
C 979 127 979 114 979 95 
C 979 25 1024 -64 1152 -64 
C 1350 -64 1382 108 1402 203 
L 1837 2408 
z
" transform="scale(0.015625)"/>
      </defs>
      <use xlink:href="#CMMI12-1c" transform="scale(0.996264)"/>
     </g>
    </g>
   </g>
   <g id="matplotlib.axis_2">
    <g id="ytick_1">
     <g id="line2d_8">
      <defs>
       <path id="m1997c9a548" d="M 0 0 
L -3.5 0 
" style="stroke: #000000; stroke-width: 0.8"/>
      </defs>
      <g>
       <use xlink:href="#m1997c9a548" x="39.976366" y="193.679328" style="stroke: #000000; stroke-width: 0.8"/>
      </g>
     </g>
     <g id="text_9">
      <!-- $\mathdefault{0.0}$ -->
      <g transform="translate(20.055677 196.446729) scale(0.08 -0.08)">
       <defs>
        <path id="CMMI12-3a" d="M 1178 307 
C 1178 492 1024 619 870 619 
C 685 619 557 466 557 313 
C 557 128 710 0 864 0 
C 1050 0 1178 153 1178 307 
z
" transform="scale(0.015625)"/>
       </defs>
       <use xlink:href="#CMR17-30" transform="scale(0.996264)"/>
       <use xlink:href="#CMMI12-3a" transform="translate(45.690477 0) scale(0.996264)"/>
       <use xlink:href="#CMR17-30" transform="translate(72.787654 0) scale(0.996264)"/>
      </g>
     </g>
    </g>
    <g id="ytick_2">
     <g id="line2d_9">
      <g>
       <use xlink:href="#m1997c9a548" x="39.976366" y="158.159456" style="stroke: #000000; stroke-width: 0.8"/>
      </g>
     </g>
     <g id="text_10">
      <!-- $\mathdefault{0.1}$ -->
      <g transform="translate(20.055677 160.926857) scale(0.08 -0.08)">
       <use xlink:href="#CMR17-30" transform="scale(0.996264)"/>
       <use xlink:href="#CMMI12-3a" transform="translate(45.690477 0) scale(0.996264)"/>
       <use xlink:href="#CMR17-31" transform="translate(72.787654 0) scale(0.996264)"/>
      </g>
     </g>
    </g>
    <g id="ytick_3">
     <g id="line2d_10">
      <g>
       <use xlink:href="#m1997c9a548" x="39.976366" y="122.639584" style="stroke: #000000; stroke-width: 0.8"/>
      </g>
     </g>
     <g id="text_11">
      <!-- $\mathdefault{0.2}$ -->
      <g transform="translate(20.055677 125.406985) scale(0.08 -0.08)">
       <use xlink:href="#CMR17-30" transform="scale(0.996264)"/>
       <use xlink:href="#CMMI12-3a" transform="translate(45.690477 0) scale(0.996264)"/>
       <use xlink:href="#CMR17-32" transform="translate(72.787654 0) scale(0.996264)"/>
      </g>
     </g>
    </g>
    <g id="ytick_4">
     <g id="line2d_11">
      <g>
       <use xlink:href="#m1997c9a548" x="39.976366" y="87.119712" style="stroke: #000000; stroke-width: 0.8"/>
      </g>
     </g>
     <g id="text_12">
      <!-- $\mathdefault{0.3}$ -->
      <g transform="translate(20.055677 89.887113) scale(0.08 -0.08)">
       <use xlink:href="#CMR17-30" transform="scale(0.996264)"/>
       <use xlink:href="#CMMI12-3a" transform="translate(45.690477 0) scale(0.996264)"/>
       <use xlink:href="#CMR17-33" transform="translate(72.787654 0) scale(0.996264)"/>
      </g>
     </g>
    </g>
    <g id="ytick_5">
     <g id="line2d_12">
      <g>
       <use xlink:href="#m1997c9a548" x="39.976366" y="51.59984" style="stroke: #000000; stroke-width: 0.8"/>
      </g>
     </g>
     <g id="text_13">
      <!-- $\mathdefault{0.4}$ -->
      <g transform="translate(20.055677 54.367241) scale(0.08 -0.08)">
       <use xlink:href="#CMR17-30" transform="scale(0.996264)"/>
       <use xlink:href="#CMMI12-3a" transform="translate(45.690477 0) scale(0.996264)"/>
       <use xlink:href="#CMR17-34" transform="translate(72.787654 0) scale(0.996264)"/>
      </g>
     </g>
    </g>
    <g id="ytick_6">
     <g id="line2d_13">
      <g>
       <use xlink:href="#m1997c9a548" x="39.976366" y="16.079968" style="stroke: #000000; stroke-width: 0.8"/>
      </g>
     </g>
     <g id="text_14">
      <!-- $\mathdefault{0.5}$ -->
      <g transform="translate(20.055677 18.847369) scale(0.08 -0.08)">
       <use xlink:href="#CMR17-30" transform="scale(0.996264)"/>
       <use xlink:href="#CMMI12-3a" transform="translate(45.690477 0) scale(0.996264)"/>
       <use xlink:href="#CMR17-35" transform="translate(72.787654 0) scale(0.996264)"/>
      </g>
     </g>
    </g>
    <g id="text_15">
     <!-- Operator Norm -->
     <g transform="translate(14.118498 138.683517) rotate(-90) scale(0.1 -0.1)">
      <defs>
       <path id="CMR17-4f" d="M 4307 2135 
C 4307 3437 3366 4416 2304 4416 
C 1216 4416 294 3424 294 2135 
C 294 845 1229 -128 2298 -128 
C 3392 -128 4307 864 4307 2135 
z
M 2304 -13 
C 1574 -13 781 711 781 2217 
C 781 3716 1651 4301 2298 4301 
C 2976 4301 3821 3698 3821 2217 
C 3821 686 3008 -13 2304 -13 
z
" transform="scale(0.015625)"/>
       <path id="CMR17-70" d="M 1408 -1063 
C 998 -1063 973 -1037 973 -789 
L 973 402 
C 1158 134 1427 -38 1766 -38 
C 2406 -38 3053 523 3053 1388 
C 3053 2191 2496 2802 1837 2802 
C 1453 2802 1139 2592 960 2338 
L 960 2802 
L 198 2732 
L 198 2567 
C 576 2567 634 2528 634 2223 
L 634 -789 
C 634 -1031 608 -1063 198 -1063 
L 198 -1228 
C 352 -1216 634 -1216 800 -1216 
C 966 -1216 1254 -1216 1408 -1228 
L 1408 -1063 
z
M 973 2012 
C 973 2102 973 2235 1222 2471 
C 1254 2497 1472 2688 1792 2688 
C 2259 2688 2643 2108 2643 1382 
C 2643 656 2234 64 1728 64 
C 1498 64 1248 172 1056 472 
C 973 612 973 650 973 752 
L 973 2012 
z
" transform="scale(0.015625)"/>
       <path id="CMR17-65" d="M 2438 1472 
C 2464 1498 2464 1511 2464 1576 
C 2464 2238 2118 2816 1389 2816 
C 710 2816 173 2169 173 1383 
C 173 551 781 -64 1459 -64 
C 2176 -64 2458 607 2458 740 
C 2458 784 2419 784 2406 784 
C 2362 784 2355 771 2330 696 
C 2189 265 1837 51 1504 51 
C 1229 51 954 203 781 480 
C 582 803 582 1176 582 1472 
L 2438 1472 
z
M 589 1568 
C 634 2505 1126 2714 1382 2714 
C 1818 2714 2112 2297 2118 1568 
L 589 1568 
z
" transform="scale(0.015625)"/>
       <path id="CMR17-72" d="M 960 1497 
C 960 2112 1222 2688 1702 2688 
C 1747 2688 1792 2682 1837 2662 
C 1837 2662 1696 2617 1696 2452 
C 1696 2298 1818 2234 1914 2234 
C 1990 2234 2131 2279 2131 2458 
C 2131 2663 1926 2790 1709 2790 
C 1222 2790 1011 2317 947 2093 
L 941 2093 
L 941 2790 
L 198 2720 
L 198 2554 
C 576 2554 634 2515 634 2208 
L 634 428 
C 634 184 608 153 198 153 
L 198 -13 
C 352 0 646 0 813 0 
C 998 0 1325 0 1498 -13 
L 1498 153 
C 1037 153 960 153 960 440 
L 960 1497 
z
" transform="scale(0.015625)"/>
       <path id="CMR17-61" d="M 2304 1653 
C 2304 2072 2304 2294 2035 2543 
C 1798 2752 1523 2816 1306 2816 
C 800 2816 435 2407 435 1971 
C 435 1728 627 1728 666 1728 
C 749 1728 896 1778 896 1954 
C 896 2112 774 2181 666 2181 
C 640 2181 608 2174 589 2168 
C 723 2592 1069 2714 1293 2714 
C 1613 2714 1965 2429 1965 1885 
L 1965 1600 
C 1587 1600 1133 1549 774 1357 
C 371 1133 256 813 256 570 
C 256 77 832 -64 1171 -64 
C 1523 -64 1850 139 1990 511 
C 2003 233 2182 -18 2464 -18 
C 2598 -18 2938 70 2938 567 
L 2938 920 
L 2822 920 
L 2822 562 
C 2822 178 2650 128 2566 128 
C 2304 128 2304 458 2304 738 
L 2304 1653 
z
M 1965 870 
C 1965 317 1568 38 1216 38 
C 896 38 646 275 646 570 
C 646 761 730 1100 1101 1305 
C 1408 1478 1760 1504 1965 1504 
L 1965 870 
z
" transform="scale(0.015625)"/>
       <path id="CMR17-74" d="M 966 2560 
L 1862 2560 
L 1862 2725 
L 966 2725 
L 966 3904 
L 851 3904 
C 838 3245 614 2668 70 2668 
L 70 2560 
L 627 2560 
L 627 771 
C 627 650 627 -64 1370 -64 
C 1747 -64 1965 306 1965 777 
L 1965 1140 
L 1850 1140 
L 1850 783 
C 1850 344 1677 51 1408 51 
C 1222 51 966 178 966 758 
L 966 2560 
z
" transform="scale(0.015625)"/>
       <path id="CMR17-6f" d="M 2758 1356 
C 2758 2176 2163 2816 1466 2816 
C 768 2816 173 2176 173 1356 
C 173 551 768 -64 1466 -64 
C 2163 -64 2758 551 2758 1356 
z
M 1466 51 
C 1165 51 909 230 762 480 
C 602 767 582 1126 582 1408 
C 582 1677 595 2010 762 2298 
C 890 2509 1139 2714 1466 2714 
C 1754 2714 1997 2554 2150 2330 
C 2349 2029 2349 1607 2349 1408 
C 2349 1158 2336 775 2163 467 
C 1984 173 1709 51 1466 51 
z
" transform="scale(0.015625)"/>
       <path id="CMR17-4e" d="M 1312 4250 
C 1267 4320 1261 4320 1139 4320 
L 326 4320 
L 326 4160 
L 448 4160 
C 704 4160 819 4129 838 4122 
L 838 610 
C 838 451 838 153 326 153 
L 326 -13 
C 474 0 742 0 902 0 
C 1062 0 1331 0 1478 -13 
L 1478 153 
C 966 153 966 451 966 610 
L 966 4033 
C 1011 3995 1011 3982 1056 3919 
L 3430 76 
C 3475 0 3494 0 3526 0 
C 3590 0 3590 19 3590 139 
L 3590 3705 
C 3590 3863 3590 4160 4102 4160 
L 4102 4326 
C 3955 4320 3686 4320 3526 4320 
C 3366 4320 3098 4320 2950 4326 
L 2950 4160 
C 3462 4160 3462 3862 3462 3703 
L 3462 763 
L 1312 4250 
z
" transform="scale(0.015625)"/>
       <path id="CMR17-6d" d="M 4326 1933 
C 4326 2252 4269 2790 3507 2790 
C 3072 2790 2771 2496 2656 2151 
L 2650 2151 
C 2573 2676 2195 2790 1837 2790 
C 1331 2790 1069 2400 973 2144 
L 966 2144 
L 966 2790 
L 211 2720 
L 211 2554 
C 589 2554 646 2515 646 2208 
L 646 428 
C 646 184 621 153 211 153 
L 211 -13 
C 365 0 646 0 813 0 
C 979 0 1267 0 1421 -13 
L 1421 153 
C 1011 153 986 178 986 428 
L 986 1658 
C 986 2247 1344 2688 1792 2688 
C 2266 2688 2317 2266 2317 1958 
L 2317 428 
C 2317 184 2291 153 1882 153 
L 1882 -13 
C 2035 0 2317 0 2483 0 
C 2650 0 2938 0 3091 -13 
L 3091 153 
C 2682 153 2656 178 2656 428 
L 2656 1658 
C 2656 2247 3014 2688 3462 2688 
C 3936 2688 3987 2266 3987 1958 
L 3987 428 
C 3987 184 3962 153 3552 153 
L 3552 -13 
C 3706 0 3987 0 4154 0 
C 4320 0 4608 0 4762 -13 
L 4762 153 
C 4352 153 4326 178 4326 428 
L 4326 1933 
z
" transform="scale(0.015625)"/>
      </defs>
      <use xlink:href="#CMR17-4f" transform="scale(0.996264)"/>
      <use xlink:href="#CMR17-70" transform="translate(71.714788 0) scale(0.996264)"/>
      <use xlink:href="#CMR17-65" transform="translate(125.212597 0) scale(0.996264)"/>
      <use xlink:href="#CMR17-72" transform="translate(165.698257 0) scale(0.996264)"/>
      <use xlink:href="#CMR17-61" transform="translate(200.979025 0) scale(0.996264)"/>
      <use xlink:href="#CMR17-74" transform="translate(246.669502 0) scale(0.996264)"/>
      <use xlink:href="#CMR17-6f" transform="translate(281.95027 0) scale(0.996264)"/>
      <use xlink:href="#CMR17-72" transform="translate(327.640747 0) scale(0.996264)"/>
      <use xlink:href="#CMR17-4e" transform="translate(392.997481 0) scale(0.996264)"/>
      <use xlink:href="#CMR17-6f" transform="translate(462.069911 0) scale(0.996264)"/>
      <use xlink:href="#CMR17-72" transform="translate(507.760388 0) scale(0.996264)"/>
      <use xlink:href="#CMR17-6d" transform="translate(543.041156 0) scale(0.996264)"/>
     </g>
    </g>
   </g>
   <g id="line2d_14">
    <path d="M 39.976366 193.679328 
L 65.023245 193.6109 
L 65.629218 193.339605 
L 66.235191 192.741628 
L 66.841164 191.716682 
L 67.447137 190.18532 
L 68.05311 188.087681 
L 68.861074 184.340658 
L 69.669038 179.463266 
L 70.678992 171.776409 
L 71.688947 162.409479 
L 72.900893 149.206916 
L 74.516821 129.028204 
L 80.374559 52.916053 
L 81.586504 40.877069 
L 82.596459 32.62476 
L 83.606414 26.122424 
L 84.414378 22.196695 
L 85.222342 19.361318 
L 85.828315 17.894261 
L 86.434287 16.925145 
L 87.04026 16.37209 
L 87.646233 16.13222 
L 88.656188 16.079968 
L 117.540896 16.161911 
L 118.146868 16.457001 
L 118.752841 17.088319 
L 119.358814 18.1543 
L 119.964787 19.732642 
L 120.57076 21.881567 
L 121.378724 25.701043 
L 122.186688 30.652512 
L 123.196643 38.429742 
L 124.408588 49.956041 
L 125.822525 65.998133 
L 127.640444 89.523623 
L 132.084245 148.307618 
L 133.498182 163.656963 
L 134.710127 174.457154 
L 135.720082 181.576038 
L 136.528046 185.992628 
L 137.33601 189.29366 
L 138.143974 191.552149 
L 138.749947 192.637266 
L 139.355919 193.284223 
L 139.961892 193.5906 
L 140.769856 193.6792 
L 241.765337 193.679328 
L 241.765337 193.679328 
" clip-path="url(#pc5bbf785db)" style="fill: none; stroke: #d3d3d3; stroke-width: 3; stroke-linecap: square"/>
   </g>
   <g id="line2d_15">
    <path d="M 39.976366 193.679328 
L 129.660353 193.594037 
L 130.266326 193.293327 
L 130.872299 192.654209 
L 131.478272 191.578676 
L 132.084245 189.98943 
L 132.690218 187.828626 
L 133.498182 183.992401 
L 134.306145 179.023837 
L 135.3161 171.225788 
L 136.528046 159.676821 
L 137.941983 143.613509 
L 139.759901 120.071832 
L 144.203703 61.309228 
L 145.617639 45.982855 
L 146.829585 35.206313 
L 147.83954 28.1086 
L 148.647504 23.709028 
L 149.455468 20.424307 
L 150.263431 18.18062 
L 150.869404 17.105087 
L 151.475377 16.465969 
L 152.08135 16.165259 
L 152.889314 16.080055 
L 181.976012 16.129797 
L 182.581985 16.364602 
L 183.187958 16.910314 
L 183.793931 17.870238 
L 184.399904 19.326664 
L 185.005877 21.342118 
L 185.813841 24.972566 
L 186.621805 29.730324 
L 187.631759 37.270691 
L 188.641714 46.502188 
L 189.85366 59.566474 
L 191.469588 79.616793 
L 197.529316 158.100447 
L 198.741262 169.926206 
L 199.751217 177.979848 
L 200.761172 184.275914 
L 201.569136 188.039637 
L 202.3771 190.723622 
L 202.983072 192.08897 
L 203.589045 192.970629 
L 204.195018 193.454441 
L 204.800991 193.647483 
L 206.012937 193.679328 
L 241.765337 193.679328 
L 241.765337 193.679328 
" clip-path="url(#pc5bbf785db)" style="fill: none; stroke-dasharray: 1.85,0.8; stroke-dashoffset: 0; stroke: #1f77b4; stroke-width: 0.5"/>
   </g>
   <g id="line2d_16">
    <path d="M 39.976366 193.679328 
L 141.779811 193.5906 
L 142.385784 193.284223 
L 142.991757 192.637266 
L 143.59773 191.552149 
L 144.203703 189.951976 
L 144.809675 187.779278 
L 145.617639 183.926294 
L 146.425603 178.940634 
L 147.435558 171.12178 
L 148.647504 159.550178 
L 150.06144 143.465703 
L 151.879359 119.907931 
L 156.121169 63.560105 
L 157.535106 47.879882 
L 158.747052 36.736107 
L 159.757007 29.307737 
L 160.56497 24.641076 
L 161.372934 21.09903 
L 162.180898 18.620221 
L 162.786871 17.391099 
L 163.392844 16.62478 
L 163.998817 16.229883 
L 164.60479 16.093455 
L 166.82669 16.079968 
L 194.297461 16.18463 
L 194.903434 16.516117 
L 195.509407 17.197491 
L 196.11538 18.32449 
L 196.721353 19.972276 
L 197.327326 22.196695 
L 198.135289 26.122424 
L 198.943253 31.182155 
L 199.953208 39.091005 
L 201.165154 50.760303 
L 202.579091 66.93583 
L 204.397009 90.562291 
L 208.638819 146.825827 
L 210.052756 162.409479 
L 211.264702 173.452392 
L 212.274657 180.789539 
L 213.082621 185.382236 
L 213.890584 188.85274 
L 214.698548 191.265844 
L 215.304521 192.451761 
L 215.910494 193.181972 
L 216.516467 193.54968 
L 217.12244 193.669764 
L 219.950313 193.679328 
L 241.765337 193.679328 
L 241.765337 193.679328 
" clip-path="url(#pc5bbf785db)" style="fill: none; stroke-dasharray: 3.2,0.8,0.5,0.8; stroke-dashoffset: 0; stroke: #ff7f0e; stroke-width: 0.5"/>
   </g>
   <g id="line2d_17">
    <path d="M 39.976366 193.679328 
L 153.899269 193.587075 
L 154.505242 193.274982 
L 155.111214 192.620147 
L 155.717187 191.525416 
L 156.32316 189.914293 
L 156.929133 187.729685 
L 157.737097 183.859931 
L 158.545061 178.857177 
L 159.555016 171.01753 
L 160.766961 159.423327 
L 162.180898 143.317745 
L 163.998817 119.743969 
L 168.240627 63.415226 
L 169.654564 47.757199 
L 170.86651 36.63665 
L 171.876464 29.229314 
L 172.684428 24.579726 
L 173.492392 21.054213 
L 174.300356 18.590611 
L 174.906329 17.371507 
L 175.512302 16.613582 
L 176.118275 16.225035 
L 176.724247 16.09247 
L 179.148139 16.079968 
L 206.416919 16.188554 
L 207.022892 16.525962 
L 207.628865 17.215381 
L 208.234837 18.352125 
L 208.84081 20.010959 
L 209.446783 22.247353 
L 210.254747 26.189896 
L 211.062711 31.266718 
L 212.072666 39.196298 
L 213.284612 50.888051 
L 214.698548 67.084437 
L 216.516467 90.726506 
L 220.758277 146.97 
L 222.172214 162.531224 
L 223.38416 173.550782 
L 224.394114 180.86685 
L 225.202078 185.442486 
L 226.010042 188.89652 
L 226.818006 191.294531 
L 227.423979 192.470555 
L 228.029952 193.192533 
L 228.635925 193.554088 
L 229.443888 193.678116 
L 241.765337 193.679328 
L 241.765337 193.679328 
" clip-path="url(#pc5bbf785db)" style="fill: none; stroke-dasharray: 0.5,0.825; stroke-dashoffset: 0; stroke: #2ca02c; stroke-width: 0.5"/>
   </g>
   <g id="line2d_18">
    <path d="M 39.976366 193.679328 
L 166.018726 193.583459 
L 166.624699 193.265603 
L 167.230672 192.602851 
L 167.836645 191.498475 
L 168.442618 189.87638 
L 169.048591 187.679847 
L 169.856555 183.793312 
L 170.664519 178.773464 
L 171.674473 170.913039 
L 172.886419 159.296269 
L 174.300356 143.169637 
L 176.118275 119.579948 
L 180.360085 63.270509 
L 181.774021 47.634731 
L 182.985967 36.537439 
L 183.995922 29.151147 
L 184.803886 24.51863 
L 185.61185 21.009637 
L 186.419814 18.561215 
L 187.025786 17.352101 
L 187.631759 16.602533 
L 188.237732 16.220291 
L 188.843705 16.091533 
L 191.267597 16.079968 
L 218.334386 16.137296 
L 218.940358 16.387443 
L 219.546331 16.95531 
L 220.152304 17.942906 
L 220.758277 19.431301 
L 221.36425 21.481875 
L 222.172214 25.16221 
L 222.980178 29.971233 
L 223.990133 37.574455 
L 225.000087 46.864146 
L 226.212033 59.987959 
L 227.827961 80.09376 
L 233.685699 156.317553 
L 234.897644 168.443773 
L 235.907599 176.777824 
L 236.917554 183.365446 
L 237.725518 187.358486 
L 238.533482 190.25711 
L 239.139455 191.76694 
L 239.745428 192.773147 
L 240.3514 193.355988 
L 240.957373 193.616611 
L 241.765337 193.679328 
L 241.765337 193.679328 
" clip-path="url(#pc5bbf785db)" style="fill: none; stroke: #d62728; stroke-width: 0.5; stroke-linecap: square"/>
   </g>
   <g id="line2d_19">
    <path d="M 39.976366 104.879648 
L 42.80424 142.377199 
L 44.420167 160.724027 
L 45.632113 172.083098 
L 46.642068 179.707248 
L 47.652023 185.562227 
L 48.459987 188.983362 
L 49.26795 191.351272 
L 49.873923 192.507597 
L 50.479896 193.21322 
L 51.085869 193.562608 
L 51.893833 193.678482 
L 78.55664 193.679328 
L 178.138184 193.579752 
L 178.744157 193.256086 
L 179.35013 192.585379 
L 179.956103 191.471327 
L 180.562076 189.838236 
L 181.168049 187.629763 
L 181.976012 183.726437 
L 182.783976 178.689495 
L 183.793931 170.808308 
L 185.005877 159.169003 
L 186.419814 143.021378 
L 188.237732 119.415868 
L 192.479542 63.125954 
L 193.893479 47.512481 
L 195.105425 36.438474 
L 196.11538 29.073238 
L 196.923344 24.457788 
L 197.731307 20.965299 
L 198.539271 18.532032 
L 199.145244 17.332879 
L 199.751217 16.591631 
L 200.35719 16.215648 
L 200.963163 16.090645 
L 203.589045 16.079968 
L 230.453843 16.139951 
L 231.059816 16.395311 
L 231.665789 16.970644 
L 232.271762 17.96753 
L 232.877735 19.46663 
L 233.483708 21.528945 
L 234.291672 25.225934 
L 235.099635 30.052048 
L 236.10959 37.676197 
L 237.119545 46.985236 
L 238.331491 60.128803 
L 239.947418 80.252946 
L 241.765337 104.879648 
L 241.765337 104.879648 
" clip-path="url(#pc5bbf785db)" style="fill: none; stroke-dasharray: 1.85,0.8; stroke-dashoffset: 0; stroke: #9467bd; stroke-width: 0.5"/>
   </g>
   <g id="line2d_20">
    <path d="M 39.976366 16.079968 
L 40.78433 16.142685 
L 41.390303 16.403308 
L 41.996276 16.986148 
L 42.602249 17.992356 
L 43.208222 19.502186 
L 43.814194 21.576259 
L 44.622158 25.289914 
L 45.430122 30.133119 
L 46.440077 37.778184 
L 47.450032 47.106545 
L 48.661978 60.269822 
L 50.277905 80.412231 
L 56.135643 156.580795 
L 57.347589 168.663471 
L 58.357544 176.956686 
L 59.367499 183.501671 
L 60.175462 187.461037 
L 60.983426 190.327995 
L 61.589399 191.81639 
L 62.195372 192.803986 
L 62.801345 193.371853 
L 63.407318 193.621999 
L 64.417273 193.679328 
L 190.257642 193.575953 
L 190.863615 193.246429 
L 191.469588 192.567728 
L 192.075561 191.443971 
L 192.681533 189.799862 
L 193.287506 187.579433 
L 194.09547 183.659306 
L 194.903434 178.605272 
L 195.913389 170.703335 
L 197.125335 159.04153 
L 198.539271 142.872969 
L 200.35719 119.25173 
L 204.599 62.981563 
L 206.012937 47.390446 
L 207.224883 36.339755 
L 208.234837 28.995584 
L 209.042801 24.3972 
L 209.850765 20.921202 
L 210.658729 18.503062 
L 211.264702 17.31384 
L 211.870675 16.580876 
L 212.476648 16.211107 
L 213.082621 16.089802 
L 215.910494 16.079968 
L 241.765337 16.079968 
L 241.765337 16.079968 
" clip-path="url(#pc5bbf785db)" style="fill: none; stroke-dasharray: 3.2,0.8,0.5,0.8; stroke-dashoffset: 0; stroke: #8c564b; stroke-width: 0.5"/>
   </g>
   <g id="line2d_21">
    <path d="M 39.976366 16.079968 
L 52.903788 16.1455 
L 53.509761 16.411434 
L 54.115734 17.001823 
L 54.721706 18.017383 
L 55.327679 19.537967 
L 55.933652 21.623815 
L 56.741616 25.354148 
L 57.54958 30.214447 
L 58.559535 37.880414 
L 59.56949 47.228072 
L 60.781435 60.411014 
L 62.397363 80.571613 
L 68.255101 156.712118 
L 69.467047 168.772966 
L 70.477001 177.045737 
L 71.486956 183.5694 
L 72.29492 187.511943 
L 73.102884 190.363099 
L 73.708857 191.840813 
L 74.31483 192.819152 
L 74.920803 193.379593 
L 75.526776 193.624576 
L 76.53673 193.679328 
L 202.3771 193.57206 
L 202.983072 193.236631 
L 203.589045 192.549898 
L 204.195018 191.416406 
L 204.800991 189.761257 
L 205.406964 187.528856 
L 206.214928 183.591919 
L 207.022892 178.520794 
L 208.032847 170.598122 
L 209.244792 158.913851 
L 210.658729 142.724411 
L 212.476648 119.087535 
L 216.718458 62.837335 
L 218.132395 47.268629 
L 219.34434 36.241283 
L 220.354295 28.918188 
L 221.162259 24.336865 
L 221.970223 20.877343 
L 222.778187 18.474304 
L 223.38416 17.294985 
L 223.990133 16.570267 
L 224.596105 16.206666 
L 225.404069 16.081249 
L 241.765337 16.079968 
L 241.765337 16.079968 
" clip-path="url(#pc5bbf785db)" style="fill: none; stroke-dasharray: 0.5,0.825; stroke-dashoffset: 0; stroke: #e377c2; stroke-width: 0.5"/>
   </g>
   <g id="line2d_22">
    <path d="M 39.976366 16.079968 
L 65.023245 16.148396 
L 65.629218 16.419691 
L 66.235191 17.017667 
L 66.841164 18.042613 
L 67.447137 19.573976 
L 68.05311 21.671615 
L 68.861074 25.418637 
L 69.669038 30.29603 
L 70.678992 37.982887 
L 71.688947 47.349817 
L 72.900893 60.552379 
L 74.516821 80.731092 
L 80.374559 156.843243 
L 81.586504 168.882227 
L 82.596459 177.134535 
L 83.606414 183.636872 
L 84.414378 187.562601 
L 85.222342 190.397978 
L 85.828315 191.865035 
L 86.434287 192.834151 
L 87.04026 193.387206 
L 87.646233 193.627076 
L 88.656188 193.679328 
L 214.294566 193.622867 
L 214.900539 193.374447 
L 215.506512 192.80906 
L 216.112485 191.824553 
L 216.718458 190.339721 
L 217.324431 188.293057 
L 218.132395 184.618271 
L 218.940358 179.814945 
L 219.950313 172.218701 
L 220.960268 162.935465 
L 222.172214 149.818246 
L 223.788142 129.718577 
L 229.645879 53.485693 
L 230.857825 41.35223 
L 231.86778 33.01138 
L 232.877735 26.416654 
L 233.685699 22.417997 
L 234.493663 19.514088 
L 235.099635 18.000676 
L 235.705608 16.991354 
L 236.311581 16.406002 
L 236.917554 16.143614 
L 237.725518 16.079968 
L 241.765337 16.079968 
L 241.765337 16.079968 
" clip-path="url(#pc5bbf785db)" style="fill: none; stroke: #7f7f7f; stroke-width: 0.5; stroke-linecap: square"/>
   </g>
   <g id="line2d_23">
    <path d="M 39.976366 53.353908 
L 41.188312 41.242186 
L 42.198267 32.921739 
L 43.208222 26.348328 
L 44.016185 22.366516 
L 44.824149 19.478457 
L 45.430122 17.975783 
L 46.036095 16.975794 
L 46.642068 16.397962 
L 47.248041 16.140854 
L 48.056005 16.079968 
L 77.142703 16.151374 
L 77.748676 16.428079 
L 78.354649 17.033684 
L 78.960622 18.068047 
L 79.566595 19.610211 
L 80.172568 21.719659 
L 80.980531 25.483382 
L 81.788495 30.377869 
L 82.79845 38.085603 
L 84.010396 49.536106 
L 85.424333 65.507057 
L 87.242251 88.977933 
L 91.686052 147.831568 
L 93.099989 163.257108 
L 94.311935 174.135928 
L 95.32189 181.325325 
L 96.129854 185.798675 
L 96.937817 189.154194 
L 97.745781 191.462232 
L 98.351754 192.579515 
L 98.957727 193.252882 
L 99.5637 193.578496 
L 100.371664 193.678977 
L 164.60479 193.679328 
L 226.414024 193.620238 
L 227.019997 193.366622 
L 227.62597 192.793782 
L 228.231943 191.799996 
L 228.837916 190.304467 
L 229.443888 188.246068 
L 230.251852 184.554631 
L 231.059816 179.734215 
L 232.069771 172.11704 
L 233.079726 162.814448 
L 234.291672 149.67746 
L 235.907599 129.559423 
L 241.765337 53.353908 
L 241.765337 53.353908 
" clip-path="url(#pc5bbf785db)" style="fill: none; stroke-dasharray: 1.85,0.8; stroke-dashoffset: 0; stroke: #bcbd22; stroke-width: 0.5"/>
   </g>
   <g id="line2d_24">
    <path d="M 39.976366 187.375647 
L 40.78433 183.388221 
L 41.592294 178.265829 
L 42.602249 170.281043 
L 43.814194 158.529578 
L 45.228131 142.277848 
L 47.04605 118.59461 
L 51.28786 62.405639 
L 52.701797 46.904485 
L 53.913743 35.947349 
L 54.923697 28.687538 
L 55.731661 24.15738 
L 56.539625 20.747198 
L 57.347589 18.389297 
L 57.953562 17.239513 
L 58.559535 16.539308 
L 59.165508 16.193934 
L 59.973471 16.080711 
L 88.656188 16.081903 
L 89.464152 16.218732 
L 90.070125 16.598883 
L 90.676098 17.345673 
L 91.282071 18.551463 
L 91.888043 20.288243 
L 92.696007 23.518713 
L 93.503971 27.861596 
L 94.311935 33.342226 
L 95.32189 41.757731 
L 96.533836 53.970591 
L 97.947772 70.64358 
L 99.967682 97.389814 
L 103.401528 143.120234 
L 104.815465 159.25387 
L 106.027411 170.878156 
L 107.037366 178.745503 
L 108.04732 184.849435 
L 108.855284 188.463279 
L 109.663248 191.008284 
L 110.269221 192.281144 
L 110.875194 193.084256 
L 111.481167 193.507191 
L 112.08714 193.660981 
L 113.905058 193.679328 
L 238.533482 193.617531 
L 239.139455 193.358668 
L 239.745428 192.778334 
L 240.3514 191.775238 
L 240.957373 190.268987 
L 241.563346 188.198835 
L 241.765337 187.375647 
L 241.765337 187.375647 
" clip-path="url(#pc5bbf785db)" style="fill: none; stroke-dasharray: 3.2,0.8,0.5,0.8; stroke-dashoffset: 0; stroke: #17becf; stroke-width: 0.5"/>
   </g>
   <g id="line2d_25">
    <path d="M 39.976366 193.679328 
L 48.863969 193.614743 
L 49.469941 193.350585 
L 50.075914 192.762717 
L 50.681887 191.750278 
L 51.28786 190.233281 
L 51.893833 188.15136 
L 52.701797 184.426588 
L 53.509761 179.571987 
L 54.519715 171.912986 
L 55.52967 162.571757 
L 56.741616 149.395365 
L 58.357544 129.240821 
L 64.215282 53.09093 
L 65.427227 41.022802 
L 66.437182 32.743214 
L 67.447137 26.212444 
L 68.255101 22.264294 
L 69.063065 19.407873 
L 69.669038 17.926602 
L 70.27501 16.94518 
L 70.880983 16.382269 
L 71.486956 16.13557 
L 72.496911 16.079968 
L 101.381619 16.157582 
L 101.987592 16.445254 
L 102.593564 17.066234 
L 103.199537 18.119526 
L 103.80551 19.683365 
L 104.411483 21.816478 
L 105.219447 25.613638 
L 106.027411 30.542314 
L 107.037366 38.291763 
L 108.249311 49.787787 
L 109.663248 65.801498 
L 111.481167 89.305264 
L 115.924968 148.117423 
L 117.338905 163.497315 
L 118.55085 174.328995 
L 119.560805 181.476095 
L 120.368769 185.915383 
L 121.176733 189.238189 
L 121.984697 191.516459 
L 122.59067 192.614401 
L 123.196643 193.271871 
L 123.802615 193.58588 
L 124.610579 193.679128 
L 237.119545 193.679328 
L 241.765337 193.679328 
L 241.765337 193.679328 
" clip-path="url(#pc5bbf785db)" style="fill: none; stroke-dasharray: 0.5,0.825; stroke-dashoffset: 0; stroke: #1f77b4; stroke-width: 0.5"/>
   </g>
   <g id="patch_3">
    <path d="M 39.976366 202.559296 
L 39.976366 7.2 
" style="fill: none; stroke: #000000; stroke-width: 0.8; stroke-linejoin: miter; stroke-linecap: square"/>
   </g>
   <g id="patch_4">
    <path d="M 241.765337 202.559296 
L 241.765337 7.2 
" style="fill: none; stroke: #000000; stroke-width: 0.8; stroke-linejoin: miter; stroke-linecap: square"/>
   </g>
   <g id="patch_5">
    <path d="M 39.976366 202.559296 
L 241.765337 202.559296 
" style="fill: none; stroke: #000000; stroke-width: 0.8; stroke-linejoin: miter; stroke-linecap: square"/>
   </g>
   <g id="patch_6">
    <path d="M 39.976366 7.2 
L 241.765337 7.2 
" style="fill: none; stroke: #000000; stroke-width: 0.8; stroke-linejoin: miter; stroke-linecap: square"/>
   </g>
   <g id="legend_1">
    <g id="patch_7">
     <path d="M 46.276366 119.197892 
L 125.904879 119.197892 
Q 127.704879 119.197892 127.704879 117.397892 
L 127.704879 92.361404 
Q 127.704879 90.561404 125.904879 90.561404 
L 46.276366 90.561404 
Q 44.476366 90.561404 44.476366 92.361404 
L 44.476366 117.397892 
Q 44.476366 119.197892 46.276366 119.197892 
z
" style="fill: #ffffff; opacity: 0.8; stroke: #cccccc; stroke-width: 0.24; stroke-linejoin: miter"/>
    </g>
    <g id="text_16">
     <!-- Reference -->
     <g transform="translate(66.683001 100.388054) scale(0.09 -0.09)">
      <defs>
       <path id="CMR17-52" d="M 2509 2146 
C 3117 2268 3629 2676 3629 3186 
C 3629 3785 2950 4326 2054 4326 
L 333 4326 
L 333 4160 
C 774 4160 845 4160 845 3873 
L 845 415 
C 845 128 774 128 333 128 
L 333 -26 
C 518 -26 851 -26 1050 -26 
C 1248 -26 1581 -26 1766 -26 
L 1766 128 
C 1325 128 1254 128 1254 417 
L 1254 2112 
L 2003 2112 
C 2368 2112 2573 1964 2662 1881 
C 2918 1632 2918 1459 2918 1024 
C 2918 595 2918 377 3110 160 
C 3354 -102 3680 -128 3821 -128 
C 4294 -128 4365 396 4365 503 
C 4365 540 4365 585 4307 585 
C 4256 585 4250 547 4250 522 
C 4218 112 4032 -26 3834 -26 
C 3482 -26 3443 375 3405 764 
C 3386 898 3373 993 3360 1133 
C 3322 1452 3270 1917 2509 2146 
z
M 1984 2214 
L 1254 2214 
L 1254 3913 
C 1254 4129 1267 4160 1523 4160 
L 1990 4160 
C 2522 4160 3142 3977 3142 3190 
C 3142 2372 2464 2214 1984 2214 
z
" transform="scale(0.015625)"/>
       <path id="CMR17-66" d="M 979 2560 
L 1709 2560 
L 1709 2725 
L 966 2725 
L 966 3494 
C 966 4022 1235 4352 1510 4352 
C 1594 4352 1690 4327 1754 4282 
C 1702 4269 1568 4225 1568 4067 
C 1568 3901 1696 3850 1786 3850 
C 1875 3850 2003 3901 2003 4067 
C 2003 4308 1773 4454 1517 4454 
C 1152 4454 653 4156 653 3481 
L 653 2725 
L 141 2725 
L 141 2560 
L 653 2560 
L 653 427 
C 653 184 627 153 218 153 
L 218 -13 
C 371 0 666 0 832 0 
C 1018 0 1344 0 1517 -13 
L 1517 153 
C 1056 153 979 153 979 439 
L 979 2560 
z
" transform="scale(0.015625)"/>
       <path id="CMR17-6e" d="M 2656 1933 
C 2656 2259 2592 2790 1837 2790 
C 1331 2790 1069 2400 973 2144 
L 966 2144 
L 966 2790 
L 211 2720 
L 211 2554 
C 589 2554 646 2515 646 2208 
L 646 428 
C 646 184 621 153 211 153 
L 211 -13 
C 365 0 646 0 813 0 
C 979 0 1267 0 1421 -13 
L 1421 153 
C 1011 153 986 178 986 428 
L 986 1658 
C 986 2247 1344 2688 1792 2688 
C 2266 2688 2317 2266 2317 1958 
L 2317 428 
C 2317 184 2291 153 1882 153 
L 1882 -13 
C 2035 0 2317 0 2483 0 
C 2650 0 2938 0 3091 -13 
L 3091 153 
C 2682 153 2656 178 2656 428 
L 2656 1933 
z
" transform="scale(0.015625)"/>
       <path id="CMR17-63" d="M 2234 2240 
C 2112 2240 1933 2240 1933 2017 
C 1933 1838 2080 1787 2163 1787 
C 2208 1787 2394 1807 2394 2024 
C 2394 2467 1958 2803 1466 2803 
C 787 2803 211 2178 211 1363 
C 211 516 813 -64 1466 -64 
C 2259 -64 2458 677 2458 748 
C 2458 774 2451 793 2406 793 
C 2362 793 2355 787 2330 703 
C 2163 180 1798 51 1523 51 
C 1114 51 621 427 621 1369 
C 621 2338 1094 2688 1472 2688 
C 1722 2688 2093 2573 2234 2240 
z
" transform="scale(0.015625)"/>
      </defs>
      <use xlink:href="#CMR17-52" transform="scale(0.996264)"/>
      <use xlink:href="#CMR17-65" transform="translate(67.791102 0) scale(0.996264)"/>
      <use xlink:href="#CMR17-66" transform="translate(108.276762 0) scale(0.996264)"/>
      <use xlink:href="#CMR17-65" transform="translate(135.750275 0) scale(0.996264)"/>
      <use xlink:href="#CMR17-72" transform="translate(176.235935 0) scale(0.996264)"/>
      <use xlink:href="#CMR17-65" transform="translate(211.516703 0) scale(0.996264)"/>
      <use xlink:href="#CMR17-6e" transform="translate(252.002364 0) scale(0.996264)"/>
      <use xlink:href="#CMR17-63" transform="translate(302.897733 0) scale(0.996264)"/>
      <use xlink:href="#CMR17-65" transform="translate(343.383394 0) scale(0.996264)"/>
     </g>
    </g>
    <g id="line2d_26">
     <path d="M 48.076366 110.206298 
L 57.076366 110.206298 
L 66.076366 110.206298 
" style="fill: none; stroke: #d3d3d3; stroke-width: 3; stroke-linecap: square"/>
    </g>
    <g id="text_17">
     <!-- $(||H||-1)/2$ -->
     <g transform="translate(73.276366 113.356298) scale(0.09 -0.09)">
      <defs>
       <path id="CMR17-28" d="M 1958 -1561 
C 1958 -1555 1958 -1542 1939 -1523 
C 1645 -1224 858 -407 858 1581 
C 858 3569 1632 4379 1946 4697 
C 1946 4704 1958 4717 1958 4736 
C 1958 4755 1939 4768 1914 4768 
C 1843 4768 1299 4296 986 3594 
C 666 2887 576 2199 576 1588 
C 576 1128 621 351 1005 -471 
C 1312 -1135 1837 -1600 1914 -1600 
C 1946 -1600 1958 -1587 1958 -1561 
z
" transform="scale(0.015625)"/>
       <path id="CMSY10-6a" d="M 1018 4570 
C 1018 4685 1018 4800 890 4800 
C 762 4800 762 4685 762 4570 
L 762 -1370 
C 762 -1485 762 -1600 890 -1600 
C 1018 -1600 1018 -1485 1018 -1370 
L 1018 4570 
z
" transform="scale(0.015625)"/>
       <path id="CMMI12-48" d="M 4787 3887 
C 4845 4103 4858 4167 5312 4167 
C 5427 4167 5491 4167 5491 4282 
C 5491 4352 5434 4352 5395 4352 
C 5280 4352 5146 4352 5024 4352 
L 4269 4352 
C 4147 4352 4013 4352 3891 4352 
C 3846 4352 3770 4352 3770 4231 
C 3770 4167 3814 4167 3936 4167 
C 4320 4167 4320 4116 4320 4046 
C 4320 4034 4320 3995 4294 3900 
L 3904 2361 
L 1971 2361 
L 2355 3887 
C 2413 4103 2426 4167 2880 4167 
C 2995 4167 3059 4167 3059 4282 
C 3059 4352 3002 4352 2963 4352 
C 2848 4352 2714 4352 2592 4352 
L 1837 4352 
C 1715 4352 1581 4352 1459 4352 
C 1414 4352 1338 4352 1338 4231 
C 1338 4167 1382 4167 1504 4167 
C 1888 4167 1888 4116 1888 4046 
C 1888 4034 1888 3995 1862 3899 
L 998 472 
C 941 249 928 185 486 185 
C 339 185 294 185 294 64 
C 294 0 365 0 384 0 
C 499 0 634 0 755 0 
L 1510 0 
C 1632 0 1766 0 1888 0 
C 1939 0 2010 0 2010 121 
C 2010 185 1952 185 1856 185 
C 1466 185 1466 236 1466 300 
C 1466 307 1466 351 1478 402 
L 1920 2176 
L 3859 2176 
C 3750 1753 3424 416 3411 376 
C 3341 185 3238 185 2861 185 
C 2784 185 2726 185 2726 64 
C 2726 0 2797 0 2816 0 
C 2931 0 3066 0 3187 0 
L 3942 0 
C 4064 0 4198 0 4320 0 
C 4371 0 4442 0 4442 121 
C 4442 185 4384 185 4288 185 
C 3898 185 3898 236 3898 300 
C 3898 307 3898 351 3910 402 
L 4787 3887 
z
" transform="scale(0.015625)"/>
       <path id="CMSY10-0" d="M 4218 1472 
C 4326 1472 4442 1472 4442 1600 
C 4442 1728 4326 1728 4218 1728 
L 755 1728 
C 646 1728 531 1728 531 1600 
C 531 1472 646 1472 755 1472 
L 4218 1472 
z
" transform="scale(0.015625)"/>
       <path id="CMR17-29" d="M 1683 1581 
C 1683 2040 1638 2817 1254 3639 
C 947 4303 422 4768 346 4768 
C 326 4768 301 4761 301 4729 
C 301 4717 307 4710 314 4697 
C 621 4378 1402 3568 1402 1584 
C 1402 -407 627 -1217 314 -1537 
C 307 -1549 301 -1556 301 -1568 
C 301 -1600 326 -1600 346 -1600 
C 416 -1600 960 -1128 1274 -426 
C 1594 281 1683 969 1683 1581 
z
" transform="scale(0.015625)"/>
       <path id="CMMI12-3d" d="M 2746 4562 
C 2746 4569 2784 4666 2784 4678 
C 2784 4755 2720 4800 2669 4800 
C 2637 4800 2579 4800 2528 4659 
L 384 -1363 
C 384 -1370 346 -1465 346 -1478 
C 346 -1555 410 -1600 461 -1600 
C 499 -1600 557 -1593 602 -1459 
L 2746 4562 
z
" transform="scale(0.015625)"/>
      </defs>
      <use xlink:href="#CMR17-28" transform="scale(0.996264)"/>
      <use xlink:href="#CMSY10-6a" transform="translate(35.280768 0) scale(0.996264)"/>
      <use xlink:href="#CMSY10-6a" transform="translate(62.954853 0) scale(0.996264)"/>
      <use xlink:href="#CMMI12-48" transform="translate(90.628937 0) scale(0.996264)"/>
      <use xlink:href="#CMSY10-6a" transform="translate(179.15071 0) scale(0.996264)"/>
      <use xlink:href="#CMSY10-6a" transform="translate(206.824795 0) scale(0.996264)"/>
      <use xlink:href="#CMSY10-0" transform="translate(256.638086 0) scale(0.996264)"/>
      <use xlink:href="#CMR17-31" transform="translate(356.264761 0) scale(0.996264)"/>
      <use xlink:href="#CMR17-29" transform="translate(401.955238 0) scale(0.996264)"/>
      <use xlink:href="#CMMI12-3d" transform="translate(437.236006 0) scale(0.996264)"/>
      <use xlink:href="#CMR17-32" transform="translate(486.010925 0) scale(0.996264)"/>
     </g>
    </g>
   </g>
   <g id="legend_2">
    <g id="patch_8">
     <path d="M 99.062796 137.47857 
L 182.678907 137.47857 
Q 183.928107 137.47857 183.928107 136.22937 
L 183.928107 73.529925 
Q 183.928107 72.280725 182.678907 72.280725 
L 99.062796 72.280725 
Q 97.813596 72.280725 97.813596 73.529925 
L 97.813596 136.22937 
Q 97.813596 137.47857 99.062796 137.47857 
z
" style="fill: #ffffff; opacity: 0.8; stroke: #cccccc; stroke-width: 0.24; stroke-linejoin: miter"/>
    </g>
    <g id="text_18">
     <!-- Shift of $L_h$ -->
     <g transform="translate(119.183571 81.005776) scale(0.09 -0.09)">
      <defs>
       <path id="CMR17-53" d="M 2803 4290 
C 2803 4404 2797 4411 2758 4411 
C 2720 4411 2707 4385 2682 4328 
L 2490 3907 
C 2246 4257 1875 4416 1472 4416 
C 819 4416 294 3901 294 3253 
C 294 3056 339 2776 557 2510 
C 794 2218 1018 2167 1530 2033 
C 1722 1982 2042 1899 2106 1874 
C 2470 1722 2662 1341 2662 985 
C 2662 527 2336 38 1779 38 
C 1094 38 454 419 410 1311 
C 403 1413 397 1419 352 1419 
C 301 1419 294 1413 294 1285 
L 294 -1 
C 294 -115 301 -122 339 -122 
C 384 -122 397 -90 486 108 
C 493 127 493 140 614 381 
C 934 -39 1472 -128 1779 -128 
C 2477 -128 2970 451 2970 1124 
C 2970 1454 2848 1708 2778 1823 
C 2509 2230 2221 2306 1914 2382 
C 1869 2402 1856 2402 1498 2490 
C 1152 2579 1005 2624 845 2796 
C 666 2992 602 3196 602 3399 
C 602 3812 934 4263 1478 4263 
C 2157 4263 2579 3786 2675 2993 
C 2694 2878 2701 2872 2746 2872 
C 2803 2872 2803 2891 2803 2999 
L 2803 4290 
z
" transform="scale(0.015625)"/>
       <path id="CMR17-68" d="M 2656 1933 
C 2656 2259 2592 2790 1837 2790 
C 1312 2790 1056 2368 979 2157 
L 973 2157 
L 973 4396 
L 211 4326 
L 211 4160 
C 589 4160 646 4122 646 3817 
L 646 426 
C 646 184 621 153 211 153 
L 211 -13 
C 365 0 646 0 813 0 
C 979 0 1267 0 1421 -13 
L 1421 153 
C 1011 153 986 178 986 428 
L 986 1658 
C 986 2247 1344 2688 1792 2688 
C 2266 2688 2317 2266 2317 1958 
L 2317 428 
C 2317 184 2291 153 1882 153 
L 1882 -13 
C 2035 0 2317 0 2483 0 
C 2650 0 2938 0 3091 -13 
L 3091 153 
C 2682 153 2656 178 2656 428 
L 2656 1933 
z
" transform="scale(0.015625)"/>
       <path id="CMR17-69" d="M 992 3909 
C 992 4049 877 4170 730 4170 
C 589 4170 467 4056 467 3909 
C 467 3769 582 3648 730 3648 
C 870 3648 992 3763 992 3909 
z
M 243 2706 
L 243 2541 
C 602 2541 653 2502 653 2197 
L 653 427 
C 653 184 627 153 218 153 
L 218 -13 
C 371 0 646 0 806 0 
C 960 0 1222 0 1370 -13 
L 1370 153 
C 992 153 979 191 979 420 
L 979 2776 
L 243 2706 
z
" transform="scale(0.015625)"/>
       <path id="CMMI12-4c" d="M 2349 3861 
C 2406 4103 2426 4167 2989 4167 
C 3162 4167 3206 4167 3206 4288 
C 3206 4352 3136 4352 3110 4352 
C 2982 4352 2835 4352 2707 4352 
L 1850 4352 
C 1728 4352 1587 4352 1466 4352 
C 1414 4352 1344 4352 1344 4231 
C 1344 4167 1402 4167 1498 4167 
C 1888 4167 1888 4116 1888 4046 
C 1888 4034 1888 3995 1862 3899 
L 998 472 
C 941 249 928 185 480 185 
C 358 185 294 185 294 70 
C 294 0 333 0 461 0 
L 3328 0 
C 3469 0 3475 6 3520 121 
L 4013 1478 
C 4026 1510 4038 1548 4038 1567 
C 4038 1605 4006 1631 3974 1631 
C 3968 1631 3936 1631 3923 1605 
C 3910 1599 3910 1586 3859 1465 
C 3654 905 3366 185 2285 185 
L 1670 185 
C 1581 185 1568 185 1530 192 
C 1459 198 1453 211 1453 262 
C 1453 307 1466 345 1478 401 
L 2349 3861 
z
" transform="scale(0.015625)"/>
       <path id="CMMI12-68" d="M 1798 4257 
C 1805 4283 1818 4321 1818 4352 
C 1818 4416 1754 4416 1741 4416 
C 1734 4416 1421 4388 1389 4380 
C 1280 4373 1184 4358 1069 4358 
C 909 4345 864 4339 864 4224 
C 864 4160 915 4160 1005 4160 
C 1318 4160 1325 4103 1325 4040 
C 1325 4002 1312 3951 1306 3932 
L 378 248 
C 352 152 352 140 352 101 
C 352 -38 461 -64 525 -64 
C 634 -64 717 19 749 89 
L 1037 1245 
C 1069 1386 1107 1520 1139 1660 
C 1210 1929 1210 1935 1331 2120 
C 1453 2305 1741 2689 2234 2689 
C 2490 2689 2579 2497 2579 2242 
C 2579 1884 2330 1188 2189 805 
C 2131 651 2099 568 2099 453 
C 2099 166 2298 -64 2605 -64 
C 3200 -64 3424 875 3424 913 
C 3424 945 3398 971 3360 971 
C 3302 971 3296 952 3264 843 
C 3117 332 2880 64 2624 64 
C 2560 64 2458 64 2458 269 
C 2458 436 2534 640 2560 710 
C 2675 1018 2963 1773 2963 2145 
C 2963 2528 2739 2816 2253 2816 
C 1888 2816 1568 2644 1306 2312 
L 1798 4257 
z
" transform="scale(0.015625)"/>
      </defs>
      <use xlink:href="#CMR17-53" transform="scale(0.996264)"/>
      <use xlink:href="#CMR17-68" transform="translate(50.89537 0) scale(0.996264)"/>
      <use xlink:href="#CMR17-69" transform="translate(101.79074 0) scale(0.996264)"/>
      <use xlink:href="#CMR17-66" transform="translate(126.661798 0) scale(0.996264)"/>
      <use xlink:href="#CMR17-74" transform="translate(154.13531 0) scale(0.996264)"/>
      <use xlink:href="#CMR17-6f" transform="translate(219.492045 0) scale(0.996264)"/>
      <use xlink:href="#CMR17-66" transform="translate(265.182522 0) scale(0.996264)"/>
      <use xlink:href="#CMMI12-4c" transform="translate(322.732 0) scale(0.996264)"/>
      <use xlink:href="#CMMI12-68" transform="translate(389.102876 -14.943915) scale(0.697382)"/>
     </g>
    </g>
    <g id="line2d_27">
     <path d="M 100.311996 88.058338 
L 106.557996 88.058338 
L 112.803996 88.058338 
" style="fill: none; stroke-dasharray: 1.85,0.8; stroke-dashoffset: 0; stroke: #1f77b4; stroke-width: 0.5"/>
    </g>
    <g id="text_19">
     <!-- $-18\%$ -->
     <g transform="translate(117.800796 90.244438) scale(0.06246 -0.06246)">
      <defs>
       <path id="CMR17-38" d="M 1741 2264 
C 2144 2467 2554 2773 2554 3263 
C 2554 3841 1990 4179 1472 4179 
C 890 4179 378 3759 378 3180 
C 378 3021 416 2747 666 2505 
C 730 2442 998 2251 1171 2130 
C 883 1983 211 1634 211 934 
C 211 279 838 -128 1459 -128 
C 2144 -128 2720 362 2720 1010 
C 2720 1590 2330 1857 2074 2029 
L 1741 2264 
z
M 902 2822 
C 851 2854 595 3051 595 3351 
C 595 3739 998 4032 1459 4032 
C 1965 4032 2336 3676 2336 3262 
C 2336 2669 1670 2331 1638 2331 
C 1632 2331 1626 2331 1574 2370 
L 902 2822 
z
M 2080 1519 
C 2176 1449 2483 1240 2483 851 
C 2483 381 2010 25 1472 25 
C 890 25 448 438 448 940 
C 448 1443 838 1862 1280 2060 
L 2080 1519 
z
" transform="scale(0.015625)"/>
       <path id="CMR17-25" d="M 4640 959 
C 4640 1698 4275 2240 3846 2240 
C 3411 2240 2970 1736 2970 959 
C 2970 183 3405 -320 3846 -320 
C 4275 -320 4640 215 4640 959 
z
M 3853 -218 
C 3686 -218 3270 -66 3270 959 
C 3270 1991 3686 2138 3853 2138 
C 4205 2138 4525 1634 4525 959 
C 4525 285 4205 -218 3853 -218 
z
M 4083 4577 
C 4128 4647 4134 4653 4134 4685 
C 4134 4761 4077 4800 4026 4800 
C 3962 4800 3936 4756 3891 4706 
C 3520 4190 3008 4134 2746 4134 
C 2106 4134 1715 4494 1594 4607 
C 1510 4682 1389 4800 1171 4800 
C 736 4800 294 4296 294 3519 
C 294 2743 730 2240 1171 2240 
C 1600 2240 1965 2778 1965 3527 
C 1965 3969 1830 4270 1811 4308 
C 2202 4064 2586 4032 2752 4032 
C 3162 4032 3456 4183 3616 4289 
L 3622 4283 
L 858 -84 
C 800 -174 800 -187 800 -206 
C 800 -276 858 -320 915 -320 
C 973 -320 992 -289 1037 -218 
L 4083 4577 
z
M 1178 2342 
C 1011 2342 595 2494 595 3519 
C 595 4551 1011 4698 1178 4698 
C 1530 4698 1850 4194 1850 3519 
C 1850 2845 1530 2342 1178 2342 
z
" transform="scale(0.015625)"/>
      </defs>
      <use xlink:href="#CMSY10-0" transform="scale(0.996264)"/>
      <use xlink:href="#CMR17-31" transform="translate(77.487468 0) scale(0.996264)"/>
      <use xlink:href="#CMR17-38" transform="translate(123.177945 0) scale(0.996264)"/>
      <use xlink:href="#CMR17-25" transform="translate(168.868422 0) scale(0.996264)"/>
     </g>
    </g>
    <g id="line2d_28">
     <path d="M 100.311996 96.763493 
L 106.557996 96.763493 
L 112.803996 96.763493 
" style="fill: none; stroke-dasharray: 3.2,0.8,0.5,0.8; stroke-dashoffset: 0; stroke: #ff7f0e; stroke-width: 0.5"/>
    </g>
    <g id="text_20">
     <!-- $-12\%$ -->
     <g transform="translate(117.800796 98.949593) scale(0.06246 -0.06246)">
      <use xlink:href="#CMSY10-0" transform="scale(0.996264)"/>
      <use xlink:href="#CMR17-31" transform="translate(77.487468 0) scale(0.996264)"/>
      <use xlink:href="#CMR17-32" transform="translate(123.177945 0) scale(0.996264)"/>
      <use xlink:href="#CMR17-25" transform="translate(168.868422 0) scale(0.996264)"/>
     </g>
    </g>
    <g id="line2d_29">
     <path d="M 100.311996 105.468648 
L 106.557996 105.468648 
L 112.803996 105.468648 
" style="fill: none; stroke-dasharray: 0.5,0.825; stroke-dashoffset: 0; stroke: #2ca02c; stroke-width: 0.5"/>
    </g>
    <g id="text_21">
     <!-- $-6\%$ -->
     <g transform="translate(117.800796 107.654748) scale(0.06246 -0.06246)">
      <use xlink:href="#CMSY10-0" transform="scale(0.996264)"/>
      <use xlink:href="#CMR17-36" transform="translate(77.487468 0) scale(0.996264)"/>
      <use xlink:href="#CMR17-25" transform="translate(123.177945 0) scale(0.996264)"/>
     </g>
    </g>
    <g id="line2d_30">
     <path d="M 100.311996 114.173804 
L 106.557996 114.173804 
L 112.803996 114.173804 
" style="fill: none; stroke: #d62728; stroke-width: 0.5; stroke-linecap: square"/>
    </g>
    <g id="text_22">
     <!-- $0\%$ -->
     <g transform="translate(117.800796 116.359904) scale(0.06246 -0.06246)">
      <use xlink:href="#CMR17-30" transform="scale(0.996264)"/>
      <use xlink:href="#CMR17-25" transform="translate(45.690477 0) scale(0.996264)"/>
     </g>
    </g>
    <g id="line2d_31">
     <path d="M 100.311996 122.878959 
L 106.557996 122.878959 
L 112.803996 122.878959 
" style="fill: none; stroke-dasharray: 1.85,0.8; stroke-dashoffset: 0; stroke: #9467bd; stroke-width: 0.5"/>
    </g>
    <g id="text_23">
     <!-- $6\%$ -->
     <g transform="translate(117.800796 125.065059) scale(0.06246 -0.06246)">
      <use xlink:href="#CMR17-36" transform="scale(0.996264)"/>
      <use xlink:href="#CMR17-25" transform="translate(45.690477 0) scale(0.996264)"/>
     </g>
    </g>
    <g id="line2d_32">
     <path d="M 100.311996 131.584115 
L 106.557996 131.584115 
L 112.803996 131.584115 
" style="fill: none; stroke-dasharray: 3.2,0.8,0.5,0.8; stroke-dashoffset: 0; stroke: #8c564b; stroke-width: 0.5"/>
    </g>
    <g id="text_24">
     <!-- $12\%$ -->
     <g transform="translate(117.800796 133.770215) scale(0.06246 -0.06246)">
      <use xlink:href="#CMR17-31" transform="scale(0.996264)"/>
      <use xlink:href="#CMR17-32" transform="translate(45.690477 0) scale(0.996264)"/>
      <use xlink:href="#CMR17-25" transform="translate(91.380954 0) scale(0.996264)"/>
     </g>
    </g>
    <g id="line2d_33">
     <path d="M 150.112925 88.058338 
L 156.358925 88.058338 
L 162.604925 88.058338 
" style="fill: none; stroke-dasharray: 0.5,0.825; stroke-dashoffset: 0; stroke: #e377c2; stroke-width: 0.5"/>
    </g>
    <g id="text_25">
     <!-- $18\%$ -->
     <g transform="translate(167.601725 90.244438) scale(0.06246 -0.06246)">
      <use xlink:href="#CMR17-31" transform="scale(0.996264)"/>
      <use xlink:href="#CMR17-38" transform="translate(45.690477 0) scale(0.996264)"/>
      <use xlink:href="#CMR17-25" transform="translate(91.380954 0) scale(0.996264)"/>
     </g>
    </g>
    <g id="line2d_34">
     <path d="M 150.112925 96.763493 
L 156.358925 96.763493 
L 162.604925 96.763493 
" style="fill: none; stroke: #7f7f7f; stroke-width: 0.5; stroke-linecap: square"/>
    </g>
    <g id="text_26">
     <!-- $24\%$ -->
     <g transform="translate(167.601725 98.949593) scale(0.06246 -0.06246)">
      <use xlink:href="#CMR17-32" transform="scale(0.996264)"/>
      <use xlink:href="#CMR17-34" transform="translate(45.690477 0) scale(0.996264)"/>
      <use xlink:href="#CMR17-25" transform="translate(91.380954 0) scale(0.996264)"/>
     </g>
    </g>
    <g id="line2d_35">
     <path d="M 150.112925 105.468648 
L 156.358925 105.468648 
L 162.604925 105.468648 
" style="fill: none; stroke-dasharray: 1.85,0.8; stroke-dashoffset: 0; stroke: #bcbd22; stroke-width: 0.5"/>
    </g>
    <g id="text_27">
     <!-- $30\%$ -->
     <g transform="translate(167.601725 107.654748) scale(0.06246 -0.06246)">
      <use xlink:href="#CMR17-33" transform="scale(0.996264)"/>
      <use xlink:href="#CMR17-30" transform="translate(45.690477 0) scale(0.996264)"/>
      <use xlink:href="#CMR17-25" transform="translate(91.380954 0) scale(0.996264)"/>
     </g>
    </g>
    <g id="line2d_36">
     <path d="M 150.112925 114.173804 
L 156.358925 114.173804 
L 162.604925 114.173804 
" style="fill: none; stroke-dasharray: 3.2,0.8,0.5,0.8; stroke-dashoffset: 0; stroke: #17becf; stroke-width: 0.5"/>
    </g>
    <g id="text_28">
     <!-- $36\%$ -->
     <g transform="translate(167.601725 116.359904) scale(0.06246 -0.06246)">
      <use xlink:href="#CMR17-33" transform="scale(0.996264)"/>
      <use xlink:href="#CMR17-36" transform="translate(45.690477 0) scale(0.996264)"/>
      <use xlink:href="#CMR17-25" transform="translate(91.380954 0) scale(0.996264)"/>
     </g>
    </g>
    <g id="line2d_37">
     <path d="M 150.112925 122.878959 
L 156.358925 122.878959 
L 162.604925 122.878959 
" style="fill: none; stroke-dasharray: 0.5,0.825; stroke-dashoffset: 0; stroke: #1f77b4; stroke-width: 0.5"/>
    </g>
    <g id="text_29">
     <!-- $42\%$ -->
     <g transform="translate(167.601725 125.065059) scale(0.06246 -0.06246)">
      <use xlink:href="#CMR17-34" transform="scale(0.996264)"/>
      <use xlink:href="#CMR17-32" transform="translate(45.690477 0) scale(0.996264)"/>
      <use xlink:href="#CMR17-25" transform="translate(91.380954 0) scale(0.996264)"/>
     </g>
    </g>
   </g>
  </g>
 </g>
 <defs>
  <clipPath id="pc5bbf785db">
   <rect x="39.976366" y="7.2" width="201.788971" height="195.359296"/>
  </clipPath>
 </defs>
</svg>
