<?xml version="1.0" encoding="utf-8" standalone="no"?>
<!DOCTYPE svg PUBLIC "-//W3C//DTD SVG 1.1//EN"
  "http://www.w3.org/Graphics/SVG/1.1/DTD/svg11.dtd">
<svg xmlns:xlink="http://www.w3.org/1999/xlink" width="424.55952pt" height="258.09552pt" viewBox="0 0 424.55952 258.09552" xmlns="http://www.w3.org/2000/svg" version="1.1">
 <metadata>
  <rdf:RDF xmlns:dc="http://purl.org/dc/elements/1.1/" xmlns:cc="http://creativecommons.org/ns#" xmlns:rdf="http://www.w3.org/1999/02/22-rdf-syntax-ns#">
   <cc:Work>
    <dc:type rdf:resource="http://purl.org/dc/dcmitype/StillImage"/>
    <dc:date>1980-01-01T00:00:00+00:00</dc:date>
    <dc:format>image/svg+xml</dc:format>
    <dc:creator>
     <cc:Agent>
      <dc:title>Matplotlib v3.6.2, https://matplotlib.org/</dc:title>
     </cc:Agent>
    </dc:creator>
   </cc:Work>
  </rdf:RDF>
 </metadata>
 <defs>
  <style type="text/css">*{stroke-linejoin: round; stroke-linecap: butt}</style>
 </defs>
 <g id="figure_1">
  <g id="patch_1">
   <path d="M 0 258.09552 
L 424.55952 258.09552 
L 424.55952 0 
L 0 0 
z
" style="fill: #ffffff"/>
  </g>
  <g id="axes_1">
   <g id="patch_2">
    <path d="M 50.822595 214.77084 
L 417.35952 214.77084 
L 417.35952 7.2 
L 50.822595 7.2 
z
" style="fill: #ffffff"/>
   </g>
   <g id="matplotlib.axis_1">
    <g id="xtick_1">
     <g id="line2d_1">
      <defs>
       <path id="ma9d83da1da" d="M 0 0 
L 0 3.5 
" style="stroke: #000000; stroke-width: 0.8"/>
      </defs>
      <g>
       <use xlink:href="#ma9d83da1da" x="67.483364" y="214.77084" style="stroke: #000000; stroke-width: 0.8"/>
      </g>
     </g>
     <g id="text_1">
      <!-- $\mathdefault{0}$ -->
      <g transform="translate(64.312994 232.864868) scale(0.13 -0.13)">
       <defs>
        <path id="CMR17-30" d="M 2688 2025 
C 2688 2416 2682 3080 2413 3591 
C 2176 4039 1798 4198 1466 4198 
C 1158 4198 768 4058 525 3597 
C 269 3118 243 2524 243 2025 
C 243 1661 250 1106 448 619 
C 723 -39 1216 -128 1466 -128 
C 1760 -128 2208 -7 2470 600 
C 2662 1042 2688 1559 2688 2025 
z
M 1466 -26 
C 1056 -26 813 325 723 812 
C 653 1188 653 1738 653 2096 
C 653 2588 653 2997 736 3387 
C 858 3929 1216 4096 1466 4096 
C 1728 4096 2067 3923 2189 3400 
C 2272 3036 2278 2607 2278 2096 
C 2278 1680 2278 1169 2202 792 
C 2067 95 1690 -26 1466 -26 
z
" transform="scale(0.015625)"/>
       </defs>
       <use xlink:href="#CMR17-30" transform="scale(0.996264)"/>
      </g>
     </g>
    </g>
    <g id="xtick_2">
     <g id="line2d_2">
      <g>
       <use xlink:href="#ma9d83da1da" x="123.019262" y="214.77084" style="stroke: #000000; stroke-width: 0.8"/>
      </g>
     </g>
     <g id="text_2">
      <!-- $\mathdefault{10}$ -->
      <g transform="translate(116.678522 232.864868) scale(0.13 -0.13)">
       <defs>
        <path id="CMR17-31" d="M 1702 4058 
C 1702 4192 1696 4192 1606 4192 
C 1357 3916 979 3827 621 3827 
C 602 3827 570 3827 563 3808 
C 557 3795 557 3782 557 3648 
C 755 3648 1088 3686 1344 3839 
L 1344 461 
C 1344 236 1331 160 781 160 
L 589 160 
L 589 0 
C 896 0 1216 0 1523 0 
C 1830 0 2150 0 2458 0 
L 2458 160 
L 2266 160 
C 1715 160 1702 230 1702 458 
L 1702 4058 
z
" transform="scale(0.015625)"/>
       </defs>
       <use xlink:href="#CMR17-31" transform="scale(0.996264)"/>
       <use xlink:href="#CMR17-30" transform="translate(45.690477 0) scale(0.996264)"/>
      </g>
     </g>
    </g>
    <g id="xtick_3">
     <g id="line2d_3">
      <g>
       <use xlink:href="#ma9d83da1da" x="178.55516" y="214.77084" style="stroke: #000000; stroke-width: 0.8"/>
      </g>
     </g>
     <g id="text_3">
      <!-- $\mathdefault{20}$ -->
      <g transform="translate(172.21442 232.864868) scale(0.13 -0.13)">
       <defs>
        <path id="CMR17-32" d="M 2669 989 
L 2554 989 
C 2490 536 2438 459 2413 420 
C 2381 369 1920 369 1830 369 
L 602 369 
C 832 619 1280 1072 1824 1597 
C 2214 1967 2669 2402 2669 3035 
C 2669 3790 2067 4224 1395 4224 
C 691 4224 262 3604 262 3030 
C 262 2780 448 2748 525 2748 
C 589 2748 781 2787 781 3010 
C 781 3207 614 3264 525 3264 
C 486 3264 448 3258 422 3245 
C 544 3790 915 4058 1306 4058 
C 1862 4058 2227 3617 2227 3035 
C 2227 2479 1901 2000 1536 1584 
L 262 146 
L 262 0 
L 2515 0 
L 2669 989 
z
" transform="scale(0.015625)"/>
       </defs>
       <use xlink:href="#CMR17-32" transform="scale(0.996264)"/>
       <use xlink:href="#CMR17-30" transform="translate(45.690477 0) scale(0.996264)"/>
      </g>
     </g>
    </g>
    <g id="xtick_4">
     <g id="line2d_4">
      <g>
       <use xlink:href="#ma9d83da1da" x="234.091057" y="214.77084" style="stroke: #000000; stroke-width: 0.8"/>
      </g>
     </g>
     <g id="text_4">
      <!-- $\mathdefault{30}$ -->
      <g transform="translate(227.750318 232.864868) scale(0.13 -0.13)">
       <defs>
        <path id="CMR17-33" d="M 1414 2157 
C 1984 2157 2234 1662 2234 1090 
C 2234 320 1824 25 1453 25 
C 1114 25 563 194 390 693 
C 422 680 454 680 486 680 
C 640 680 755 782 755 948 
C 755 1133 614 1216 486 1216 
C 378 1216 211 1165 211 926 
C 211 335 787 -128 1466 -128 
C 2176 -128 2720 430 2720 1085 
C 2720 1707 2208 2157 1600 2227 
C 2086 2328 2554 2756 2554 3329 
C 2554 3820 2048 4179 1472 4179 
C 890 4179 378 3829 378 3329 
C 378 3110 544 3072 627 3072 
C 762 3072 877 3155 877 3321 
C 877 3486 762 3569 627 3569 
C 602 3569 570 3569 544 3557 
C 730 3959 1235 4032 1459 4032 
C 1683 4032 2106 3925 2106 3320 
C 2106 3143 2080 2828 1862 2550 
C 1670 2304 1453 2304 1242 2284 
C 1210 2284 1062 2269 1037 2269 
C 992 2263 966 2257 966 2208 
C 966 2163 973 2157 1101 2157 
L 1414 2157 
z
" transform="scale(0.015625)"/>
       </defs>
       <use xlink:href="#CMR17-33" transform="scale(0.996264)"/>
       <use xlink:href="#CMR17-30" transform="translate(45.690477 0) scale(0.996264)"/>
      </g>
     </g>
    </g>
    <g id="xtick_5">
     <g id="line2d_5">
      <g>
       <use xlink:href="#ma9d83da1da" x="289.626955" y="214.77084" style="stroke: #000000; stroke-width: 0.8"/>
      </g>
     </g>
     <g id="text_5">
      <!-- $\mathdefault{40}$ -->
      <g transform="translate(283.286216 232.864868) scale(0.13 -0.13)">
       <defs>
        <path id="CMR17-34" d="M 2150 4122 
C 2150 4256 2144 4256 2029 4256 
L 128 1254 
L 128 1088 
L 1779 1088 
L 1779 457 
C 1779 224 1766 160 1318 160 
L 1197 160 
L 1197 0 
C 1402 0 1747 0 1965 0 
C 2182 0 2528 0 2733 0 
L 2733 160 
L 2611 160 
C 2163 160 2150 224 2150 457 
L 2150 1088 
L 2803 1088 
L 2803 1254 
L 2150 1254 
L 2150 4122 
z
M 1798 3703 
L 1798 1254 
L 256 1254 
L 1798 3703 
z
" transform="scale(0.015625)"/>
       </defs>
       <use xlink:href="#CMR17-34" transform="scale(0.996264)"/>
       <use xlink:href="#CMR17-30" transform="translate(45.690477 0) scale(0.996264)"/>
      </g>
     </g>
    </g>
    <g id="xtick_6">
     <g id="line2d_6">
      <g>
       <use xlink:href="#ma9d83da1da" x="345.162853" y="214.77084" style="stroke: #000000; stroke-width: 0.8"/>
      </g>
     </g>
     <g id="text_6">
      <!-- $\mathdefault{50}$ -->
      <g transform="translate(338.822113 232.864868) scale(0.13 -0.13)">
       <defs>
        <path id="CMR17-35" d="M 730 3692 
C 794 3666 1056 3584 1325 3584 
C 1920 3584 2246 3911 2432 4100 
C 2432 4157 2432 4192 2394 4192 
C 2387 4192 2374 4192 2323 4163 
C 2099 4058 1837 3973 1517 3973 
C 1325 3973 1037 3999 723 4139 
C 653 4171 640 4171 634 4171 
C 602 4171 595 4164 595 4037 
L 595 2203 
C 595 2089 595 2057 659 2057 
C 691 2057 704 2070 736 2114 
C 941 2401 1222 2522 1542 2522 
C 1766 2522 2246 2382 2246 1289 
C 2246 1085 2246 715 2054 421 
C 1894 159 1645 25 1370 25 
C 947 25 518 320 403 814 
C 429 807 480 795 506 795 
C 589 795 749 840 749 1038 
C 749 1210 627 1280 506 1280 
C 358 1280 262 1190 262 1011 
C 262 454 704 -128 1382 -128 
C 2042 -128 2669 440 2669 1264 
C 2669 2030 2170 2624 1549 2624 
C 1222 2624 947 2503 730 2274 
L 730 3692 
z
" transform="scale(0.015625)"/>
       </defs>
       <use xlink:href="#CMR17-35" transform="scale(0.996264)"/>
       <use xlink:href="#CMR17-30" transform="translate(45.690477 0) scale(0.996264)"/>
      </g>
     </g>
    </g>
    <g id="xtick_7">
     <g id="line2d_7">
      <g>
       <use xlink:href="#ma9d83da1da" x="400.698751" y="214.77084" style="stroke: #000000; stroke-width: 0.8"/>
      </g>
     </g>
     <g id="text_7">
      <!-- $\mathdefault{60}$ -->
      <g transform="translate(394.358011 232.864868) scale(0.13 -0.13)">
       <defs>
        <path id="CMR17-36" d="M 678 2176 
C 678 3690 1395 4032 1811 4032 
C 1946 4032 2272 4009 2400 3776 
C 2298 3776 2106 3776 2106 3553 
C 2106 3381 2246 3323 2336 3323 
C 2394 3323 2566 3348 2566 3560 
C 2566 3954 2246 4179 1805 4179 
C 1043 4179 243 3390 243 1984 
C 243 253 966 -128 1478 -128 
C 2099 -128 2688 427 2688 1283 
C 2688 2081 2170 2662 1517 2662 
C 1126 2662 838 2407 678 1960 
L 678 2176 
z
M 1478 25 
C 691 25 691 1200 691 1436 
C 691 1896 909 2560 1504 2560 
C 1613 2560 1926 2560 2138 2120 
C 2253 1870 2253 1609 2253 1289 
C 2253 944 2253 690 2118 434 
C 1978 171 1773 25 1478 25 
z
" transform="scale(0.015625)"/>
       </defs>
       <use xlink:href="#CMR17-36" transform="scale(0.996264)"/>
       <use xlink:href="#CMR17-30" transform="translate(45.690477 0) scale(0.996264)"/>
      </g>
     </g>
    </g>
    <g id="text_8">
     <!-- $\tau$ -->
     <g transform="translate(231.337414 248.377208) scale(0.13 -0.13)">
      <defs>
       <path id="CMMI12-1c" d="M 1837 2408 
L 2899 2408 
C 2982 2408 3194 2408 3194 2612 
C 3194 2752 3072 2752 2957 2752 
L 1197 2752 
C 1050 2752 832 2752 538 2440 
C 371 2255 166 1917 166 1879 
C 166 1841 198 1828 237 1828 
C 282 1828 288 1847 320 1885 
C 653 2408 986 2408 1146 2408 
L 1677 2408 
L 1011 223 
C 979 127 979 114 979 95 
C 979 25 1024 -64 1152 -64 
C 1350 -64 1382 108 1402 203 
L 1837 2408 
z
" transform="scale(0.015625)"/>
      </defs>
      <use xlink:href="#CMMI12-1c" transform="scale(0.996264)"/>
     </g>
    </g>
   </g>
   <g id="matplotlib.axis_2">
    <g id="ytick_1">
     <g id="line2d_8">
      <defs>
       <path id="m4c8a4d8c19" d="M 0 0 
L -3.5 0 
" style="stroke: #000000; stroke-width: 0.8"/>
      </defs>
      <g>
       <use xlink:href="#m4c8a4d8c19" x="50.822595" y="205.335801" style="stroke: #000000; stroke-width: 0.8"/>
      </g>
     </g>
     <g id="text_9">
      <!-- $\mathdefault{0.0}$ -->
      <g transform="translate(25.518483 209.832816) scale(0.13 -0.13)">
       <defs>
        <path id="CMMI12-3a" d="M 1178 307 
C 1178 492 1024 619 870 619 
C 685 619 557 466 557 313 
C 557 128 710 0 864 0 
C 1050 0 1178 153 1178 307 
z
" transform="scale(0.015625)"/>
       </defs>
       <use xlink:href="#CMR17-30" transform="scale(0.996264)"/>
       <use xlink:href="#CMMI12-3a" transform="translate(45.690477 0) scale(0.996264)"/>
       <use xlink:href="#CMR17-30" transform="translate(72.787654 0) scale(0.996264)"/>
      </g>
     </g>
    </g>
    <g id="ytick_2">
     <g id="line2d_9">
      <g>
       <use xlink:href="#m4c8a4d8c19" x="50.822595" y="167.595649" style="stroke: #000000; stroke-width: 0.8"/>
      </g>
     </g>
     <g id="text_10">
      <!-- $\mathdefault{0.1}$ -->
      <g transform="translate(25.518483 172.092663) scale(0.13 -0.13)">
       <use xlink:href="#CMR17-30" transform="scale(0.996264)"/>
       <use xlink:href="#CMMI12-3a" transform="translate(45.690477 0) scale(0.996264)"/>
       <use xlink:href="#CMR17-31" transform="translate(72.787654 0) scale(0.996264)"/>
      </g>
     </g>
    </g>
    <g id="ytick_3">
     <g id="line2d_10">
      <g>
       <use xlink:href="#m4c8a4d8c19" x="50.822595" y="129.855496" style="stroke: #000000; stroke-width: 0.8"/>
      </g>
     </g>
     <g id="text_11">
      <!-- $\mathdefault{0.2}$ -->
      <g transform="translate(25.518483 134.35251) scale(0.13 -0.13)">
       <use xlink:href="#CMR17-30" transform="scale(0.996264)"/>
       <use xlink:href="#CMMI12-3a" transform="translate(45.690477 0) scale(0.996264)"/>
       <use xlink:href="#CMR17-32" transform="translate(72.787654 0) scale(0.996264)"/>
      </g>
     </g>
    </g>
    <g id="ytick_4">
     <g id="line2d_11">
      <g>
       <use xlink:href="#m4c8a4d8c19" x="50.822595" y="92.115343" style="stroke: #000000; stroke-width: 0.8"/>
      </g>
     </g>
     <g id="text_12">
      <!-- $\mathdefault{0.3}$ -->
      <g transform="translate(25.518483 96.612358) scale(0.13 -0.13)">
       <use xlink:href="#CMR17-30" transform="scale(0.996264)"/>
       <use xlink:href="#CMMI12-3a" transform="translate(45.690477 0) scale(0.996264)"/>
       <use xlink:href="#CMR17-33" transform="translate(72.787654 0) scale(0.996264)"/>
      </g>
     </g>
    </g>
    <g id="ytick_5">
     <g id="line2d_12">
      <g>
       <use xlink:href="#m4c8a4d8c19" x="50.822595" y="54.375191" style="stroke: #000000; stroke-width: 0.8"/>
      </g>
     </g>
     <g id="text_13">
      <!-- $\mathdefault{0.4}$ -->
      <g transform="translate(25.518483 58.872205) scale(0.13 -0.13)">
       <use xlink:href="#CMR17-30" transform="scale(0.996264)"/>
       <use xlink:href="#CMMI12-3a" transform="translate(45.690477 0) scale(0.996264)"/>
       <use xlink:href="#CMR17-34" transform="translate(72.787654 0) scale(0.996264)"/>
      </g>
     </g>
    </g>
    <g id="ytick_6">
     <g id="line2d_13">
      <g>
       <use xlink:href="#m4c8a4d8c19" x="50.822595" y="16.635038" style="stroke: #000000; stroke-width: 0.8"/>
      </g>
     </g>
     <g id="text_14">
      <!-- $\mathdefault{0.5}$ -->
      <g transform="translate(25.518483 21.132052) scale(0.13 -0.13)">
       <use xlink:href="#CMR17-30" transform="scale(0.996264)"/>
       <use xlink:href="#CMMI12-3a" transform="translate(45.690477 0) scale(0.996264)"/>
       <use xlink:href="#CMR17-35" transform="translate(72.787654 0) scale(0.996264)"/>
      </g>
     </g>
    </g>
    <g id="text_15">
     <!-- $||L_{h/c}||$ -->
     <g transform="translate(16.913574 129.774625) rotate(-90) scale(0.13 -0.13)">
      <defs>
       <path id="CMSY10-6a" d="M 1018 4570 
C 1018 4685 1018 4800 890 4800 
C 762 4800 762 4685 762 4570 
L 762 -1370 
C 762 -1485 762 -1600 890 -1600 
C 1018 -1600 1018 -1485 1018 -1370 
L 1018 4570 
z
" transform="scale(0.015625)"/>
       <path id="CMMI12-4c" d="M 2349 3861 
C 2406 4103 2426 4167 2989 4167 
C 3162 4167 3206 4167 3206 4288 
C 3206 4352 3136 4352 3110 4352 
C 2982 4352 2835 4352 2707 4352 
L 1850 4352 
C 1728 4352 1587 4352 1466 4352 
C 1414 4352 1344 4352 1344 4231 
C 1344 4167 1402 4167 1498 4167 
C 1888 4167 1888 4116 1888 4046 
C 1888 4034 1888 3995 1862 3899 
L 998 472 
C 941 249 928 185 480 185 
C 358 185 294 185 294 70 
C 294 0 333 0 461 0 
L 3328 0 
C 3469 0 3475 6 3520 121 
L 4013 1478 
C 4026 1510 4038 1548 4038 1567 
C 4038 1605 4006 1631 3974 1631 
C 3968 1631 3936 1631 3923 1605 
C 3910 1599 3910 1586 3859 1465 
C 3654 905 3366 185 2285 185 
L 1670 185 
C 1581 185 1568 185 1530 192 
C 1459 198 1453 211 1453 262 
C 1453 307 1466 345 1478 401 
L 2349 3861 
z
" transform="scale(0.015625)"/>
       <path id="CMMI12-68" d="M 1798 4257 
C 1805 4283 1818 4321 1818 4352 
C 1818 4416 1754 4416 1741 4416 
C 1734 4416 1421 4388 1389 4380 
C 1280 4373 1184 4358 1069 4358 
C 909 4345 864 4339 864 4224 
C 864 4160 915 4160 1005 4160 
C 1318 4160 1325 4103 1325 4040 
C 1325 4002 1312 3951 1306 3932 
L 378 248 
C 352 152 352 140 352 101 
C 352 -38 461 -64 525 -64 
C 634 -64 717 19 749 89 
L 1037 1245 
C 1069 1386 1107 1520 1139 1660 
C 1210 1929 1210 1935 1331 2120 
C 1453 2305 1741 2689 2234 2689 
C 2490 2689 2579 2497 2579 2242 
C 2579 1884 2330 1188 2189 805 
C 2131 651 2099 568 2099 453 
C 2099 166 2298 -64 2605 -64 
C 3200 -64 3424 875 3424 913 
C 3424 945 3398 971 3360 971 
C 3302 971 3296 952 3264 843 
C 3117 332 2880 64 2624 64 
C 2560 64 2458 64 2458 269 
C 2458 436 2534 640 2560 710 
C 2675 1018 2963 1773 2963 2145 
C 2963 2528 2739 2816 2253 2816 
C 1888 2816 1568 2644 1306 2312 
L 1798 4257 
z
" transform="scale(0.015625)"/>
       <path id="CMMI12-3d" d="M 2746 4562 
C 2746 4569 2784 4666 2784 4678 
C 2784 4755 2720 4800 2669 4800 
C 2637 4800 2579 4800 2528 4659 
L 384 -1363 
C 384 -1370 346 -1465 346 -1478 
C 346 -1555 410 -1600 461 -1600 
C 499 -1600 557 -1593 602 -1459 
L 2746 4562 
z
" transform="scale(0.015625)"/>
       <path id="CMMI12-63" d="M 2502 2431 
C 2381 2431 2323 2431 2234 2355 
C 2195 2323 2125 2227 2125 2125 
C 2125 1997 2221 1920 2342 1920 
C 2496 1920 2669 2044 2669 2292 
C 2669 2588 2374 2816 1933 2816 
C 1094 2816 256 1903 256 996 
C 256 441 602 -64 1254 -64 
C 2125 -64 2675 622 2675 706 
C 2675 744 2637 776 2611 776 
C 2592 776 2586 770 2528 713 
C 2118 162 1510 64 1267 64 
C 826 64 685 446 685 764 
C 685 988 794 1605 1024 2039 
C 1190 2338 1536 2682 1939 2682 
C 2022 2682 2374 2682 2502 2431 
z
" transform="scale(0.015625)"/>
      </defs>
      <use xlink:href="#CMSY10-6a" transform="scale(0.996264)"/>
      <use xlink:href="#CMSY10-6a" transform="translate(27.674085 0) scale(0.996264)"/>
      <use xlink:href="#CMMI12-4c" transform="translate(55.348169 0) scale(0.996264)"/>
      <use xlink:href="#CMMI12-68" transform="translate(121.719045 -17.987904) scale(0.697382)"/>
      <use xlink:href="#CMMI12-3d" transform="translate(161.027099 -17.987904) scale(0.697382)"/>
      <use xlink:href="#CMMI12-63" transform="translate(195.16939 -17.987904) scale(0.697382)"/>
      <use xlink:href="#CMSY10-6a" transform="translate(225.055654 0) scale(0.996264)"/>
      <use xlink:href="#CMSY10-6a" transform="translate(252.729738 0) scale(0.996264)"/>
     </g>
    </g>
   </g>
   <g id="line2d_14">
    <path d="M 67.483364 56.238902 
L 69.151109 45.351157 
L 70.485304 37.848132 
L 71.8195 31.509169 
L 73.153696 26.375331 
L 74.154343 23.314547 
L 75.15499 20.908607 
L 76.155636 19.118602 
L 77.156283 17.886518 
L 78.15693 17.133902 
L 79.157577 16.760534 
L 80.158224 16.643084 
L 85.495007 16.635038 
L 128.856368 16.710908 
L 129.857015 17.004909 
L 130.524113 17.388036 
L 131.191211 17.959501 
L 131.858309 18.747388 
L 132.858955 20.38595 
L 133.859602 22.627255 
L 134.860249 25.515052 
L 135.860896 29.074972 
L 137.195092 34.880099 
L 138.529287 41.872923 
L 139.863483 49.989092 
L 141.531228 61.55558 
L 143.532521 77.157348 
L 146.200913 99.91723 
L 151.871245 148.809508 
L 153.872538 163.99045 
L 155.540283 175.109952 
L 156.874479 182.820486 
L 158.208675 189.379183 
L 159.54287 194.737028 
L 160.543517 197.963249 
L 161.544164 200.52781 
L 162.544811 202.465116 
L 163.545457 203.828343 
L 164.546104 204.690779 
L 165.546751 205.147151 
L 166.547398 205.314964 
L 169.215789 205.335801 
L 375.349032 205.273018 
L 376.349678 205.003549 
L 377.016776 204.642612 
L 377.683874 204.097312 
L 378.350972 203.338996 
L 379.351619 201.749984 
L 380.352266 199.562918 
L 381.352912 196.732416 
L 382.353559 193.231328 
L 383.354206 189.049405 
L 384.688402 182.425695 
L 386.022598 174.654047 
L 387.690342 163.466681 
L 389.691636 148.221019 
L 392.360027 125.732317 
L 398.697457 71.196739 
L 400.698751 56.238902 
L 400.698751 56.238902 
" clip-path="url(#pc16f8f87d0)" style="fill: none; stroke: #ff7f0e; stroke-linecap: square"/>
   </g>
   <g id="line2d_15">
    <path d="M 67.483364 205.335801 
L 208.908113 205.246375 
L 209.90876 204.928865 
L 210.575857 204.524766 
L 211.242955 203.928727 
L 211.910053 203.113188 
L 212.9107 201.428466 
L 213.911347 199.136803 
L 214.911994 196.195949 
L 215.91264 192.581663 
L 217.246836 186.70422 
L 218.581032 179.64178 
L 219.915228 171.461106 
L 221.582972 159.824309 
L 223.584266 144.157574 
L 226.252657 121.35049 
L 231.58944 75.202597 
L 233.590734 59.801256 
L 235.258479 48.449388 
L 236.926223 38.723659 
L 238.260419 32.236054 
L 239.594615 26.950859 
L 240.595262 23.778418 
L 241.595908 21.265543 
L 242.596555 19.376379 
L 243.597202 18.056188 
L 244.597849 17.230016 
L 245.598496 16.801364 
L 246.599142 16.650846 
L 249.934632 16.635038 
L 295.630836 16.740838 
L 296.631483 17.084736 
L 297.298581 17.512074 
L 297.965679 18.135182 
L 298.632776 18.981057 
L 299.633423 20.716229 
L 300.63407 23.06275 
L 301.634717 26.061257 
L 302.635364 29.734492 
L 303.969559 35.690177 
L 305.303755 42.827763 
L 306.637951 51.077892 
L 308.305696 62.790149 
L 310.306989 78.526211 
L 313.30893 104.321573 
L 317.978615 144.758913 
L 319.979908 160.366131 
L 321.647653 171.938501 
L 323.315398 181.918199 
L 324.649593 188.624425 
L 325.983789 194.133563 
L 326.984436 197.472161 
L 327.985083 200.145097 
L 328.98573 202.183776 
L 329.986376 203.638153 
L 330.987023 204.578071 
L 331.98767 205.094593 
L 332.988317 205.301332 
L 334.98961 205.335801 
L 400.698751 205.335801 
L 400.698751 205.335801 
" clip-path="url(#pc16f8f87d0)" style="fill: none; stroke-dasharray: 3.7,1.6; stroke-dashoffset: 0; stroke: #ff7f0e"/>
   </g>
   <g id="line2d_16">
    <path d="M 67.483364 56.238902 
L 69.151109 45.351157 
L 70.485304 37.848132 
L 71.8195 31.509169 
L 73.153696 26.375331 
L 74.154343 23.314547 
L 75.15499 20.908607 
L 76.155636 19.118602 
L 77.156283 17.886518 
L 78.15693 17.133902 
L 79.157577 16.760534 
L 80.158224 16.643084 
L 85.495007 16.635038 
L 128.856368 16.710908 
L 129.857015 17.004909 
L 130.524113 17.388036 
L 131.191211 17.959501 
L 131.858309 18.747388 
L 132.858955 20.38595 
L 133.859602 22.627255 
L 134.860249 25.515052 
L 135.860896 29.074972 
L 137.195092 34.880099 
L 138.529287 41.872923 
L 139.863483 49.989092 
L 141.531228 61.55558 
L 143.532521 77.157348 
L 146.200913 99.91723 
L 151.871245 148.809508 
L 153.872538 163.99045 
L 155.540283 175.109952 
L 156.874479 182.820486 
L 158.208675 189.379183 
L 159.54287 194.737028 
L 160.543517 197.963249 
L 161.544164 200.52781 
L 162.544811 202.465116 
L 163.545457 203.828343 
L 164.546104 204.690779 
L 165.546751 205.147151 
L 166.547398 205.314964 
L 169.215789 205.335801 
L 375.349032 205.273018 
L 376.349678 205.003549 
L 377.016776 204.642612 
L 377.683874 204.097312 
L 378.350972 203.338996 
L 379.351619 201.749984 
L 380.352266 199.562918 
L 381.352912 196.732416 
L 382.353559 193.231328 
L 383.354206 189.049405 
L 384.688402 182.425695 
L 386.022598 174.654047 
L 387.690342 163.466681 
L 389.691636 148.221019 
L 392.360027 125.732317 
L 398.697457 71.196739 
L 400.698751 56.238902 
L 400.698751 56.238902 
" clip-path="url(#pc16f8f87d0)" style="fill: none; stroke-dasharray: 1,1.65; stroke-dashoffset: 0; stroke: #2ca02c"/>
   </g>
   <g id="line2d_17">
    <path d="M 67.483364 205.335801 
L 108.843432 205.263097 
L 109.844079 204.974843 
L 110.511177 204.596886 
L 111.178275 204.031502 
L 111.845372 203.250475 
L 112.846019 201.62339 
L 113.846666 199.394631 
L 114.847313 196.520074 
L 115.84796 192.973736 
L 117.182155 187.186701 
L 118.516351 180.211318 
L 119.850547 172.111333 
L 121.518292 160.56252 
L 123.519585 144.977138 
L 126.187977 122.22928 
L 131.858309 73.321631 
L 133.859602 58.122965 
L 135.527347 46.984906 
L 136.861543 39.257678 
L 138.195738 32.681234 
L 139.529934 27.305229 
L 140.530581 24.065547 
L 141.531228 21.488029 
L 142.531875 19.538635 
L 143.532521 18.164575 
L 144.533168 17.292978 
L 145.533815 16.829558 
L 146.534462 16.657278 
L 149.202853 16.635038 
L 195.566155 16.722103 
L 196.566802 17.035638 
L 197.2339 17.43621 
L 197.900998 18.028125 
L 198.568096 18.839033 
L 199.568743 20.516034 
L 200.569389 22.799285 
L 201.570036 25.731285 
L 202.570683 29.336506 
L 203.904879 35.201902 
L 205.239074 42.252756 
L 206.57327 50.422705 
L 208.241015 62.047827 
L 210.242308 77.703799 
L 212.9107 100.503116 
L 218.247483 146.660169 
L 220.248777 162.07286 
L 221.916521 173.436794 
L 223.584266 183.176354 
L 224.918462 189.67582 
L 226.252657 194.973124 
L 227.253304 198.15452 
L 228.253951 200.675994 
L 229.254598 202.573158 
L 230.255245 203.900489 
L 231.255891 204.732662 
L 232.256538 205.165882 
L 233.257185 205.319218 
L 236.259125 205.335801 
L 400.698751 205.335801 
L 400.698751 205.335801 
" clip-path="url(#pc16f8f87d0)" style="fill: none; stroke-dasharray: 3.7,1.6; stroke-dashoffset: 0; stroke: #2ca02c"/>
   </g>
   <g id="line2d_18">
    <path d="M 67.483364 205.335801 
L 68.81756 205.269164 
L 69.818207 204.99225 
L 70.485304 204.624545 
L 71.152402 204.071246 
L 71.8195 203.303874 
L 72.820147 201.699667 
L 73.820794 199.495948 
L 74.821441 196.647838 
L 75.822087 193.128655 
L 77.156283 187.377816 
L 78.490479 180.437359 
L 79.824675 172.369811 
L 81.492419 160.856463 
L 83.493713 145.304027 
L 86.162104 122.580487 
L 91.832436 73.642675 
L 93.83373 58.408725 
L 95.501475 47.233662 
L 96.83567 39.473105 
L 98.169866 32.861204 
L 99.504062 27.448881 
L 100.504709 24.182255 
L 101.505355 21.578784 
L 102.506002 19.605149 
L 103.506649 18.209337 
L 104.507296 17.319305 
L 105.507943 16.841649 
L 106.50859 16.660269 
L 108.843432 16.635038 
L 235.592028 16.729312 
L 236.592674 17.05484 
L 237.259772 17.466032 
L 237.92687 18.070351 
L 238.593968 18.895183 
L 239.594615 20.595379 
L 240.595262 22.903889 
L 241.595908 25.862463 
L 242.596555 29.494882 
L 243.930751 35.396411 
L 245.264947 42.482004 
L 246.599142 50.684096 
L 248.266887 62.34419 
L 250.268181 78.032373 
L 252.936572 100.854872 
L 258.273355 146.984201 
L 260.274649 162.362766 
L 261.942393 173.690452 
L 263.610138 183.388485 
L 264.944334 189.852355 
L 266.27853 195.113331 
L 267.279176 198.267871 
L 268.279823 200.763568 
L 269.28047 202.636762 
L 270.281117 203.942714 
L 271.281764 204.756934 
L 272.28241 205.176516 
L 273.283057 205.321472 
L 276.618547 205.335801 
L 400.698751 205.335801 
L 400.698751 205.335801 
" clip-path="url(#pc16f8f87d0)" style="fill: none; stroke-dasharray: 3.7,1.6; stroke-dashoffset: 0; stroke: #d3d3d3"/>
   </g>
   <g id="patch_3">
    <path d="M 50.822595 214.77084 
L 50.822595 7.2 
" style="fill: none; stroke: #000000; stroke-width: 0.8; stroke-linejoin: miter; stroke-linecap: square"/>
   </g>
   <g id="patch_4">
    <path d="M 417.35952 214.77084 
L 417.35952 7.2 
" style="fill: none; stroke: #000000; stroke-width: 0.8; stroke-linejoin: miter; stroke-linecap: square"/>
   </g>
   <g id="patch_5">
    <path d="M 50.822595 214.77084 
L 417.35952 214.77084 
" style="fill: none; stroke: #000000; stroke-width: 0.8; stroke-linejoin: miter; stroke-linecap: square"/>
   </g>
   <g id="patch_6">
    <path d="M 50.822595 7.2 
L 417.35952 7.2 
" style="fill: none; stroke: #000000; stroke-width: 0.8; stroke-linejoin: miter; stroke-linecap: square"/>
   </g>
   <g id="legend_1">
    <g id="patch_7">
     <path d="M 275.000632 131.053732 
L 408.25952 131.053732 
Q 410.85952 131.053732 410.85952 128.453732 
L 410.85952 93.517108 
Q 410.85952 90.917108 408.25952 90.917108 
L 275.000632 90.917108 
Q 272.400632 90.917108 272.400632 93.517108 
L 272.400632 128.453732 
Q 272.400632 131.053732 275.000632 131.053732 
z
" style="fill: #ffffff; opacity: 0.8; stroke: #cccccc; stroke-width: 0.24; stroke-linejoin: miter"/>
    </g>
    <g id="line2d_19">
     <path d="M 277.600632 100.667108 
L 290.600632 100.667108 
L 303.600632 100.667108 
" style="fill: none; stroke: #ff7f0e; stroke-linecap: square"/>
    </g>
    <g id="text_16">
     <!-- both shifted -->
     <g transform="translate(314.000632 105.217108) scale(0.13 -0.13)">
      <defs>
       <path id="CMR17-62" d="M 960 4396 
L 198 4326 
L 198 4160 
C 576 4160 634 4122 634 3817 
L 634 -13 
L 749 -13 
L 934 441 
C 1120 141 1395 -64 1766 -64 
C 2406 -64 3053 500 3053 1370 
C 3053 2188 2477 2790 1830 2790 
C 1434 2790 1152 2579 960 2330 
L 960 4396 
z
M 973 2004 
C 973 2118 973 2138 1062 2272 
C 1312 2657 1670 2688 1792 2688 
C 1984 2688 2643 2585 2643 1376 
C 2643 108 1888 38 1734 38 
C 1536 38 1248 114 1043 486 
C 973 608 973 621 973 735 
L 973 2004 
z
" transform="scale(0.015625)"/>
       <path id="CMR17-6f" d="M 2758 1356 
C 2758 2176 2163 2816 1466 2816 
C 768 2816 173 2176 173 1356 
C 173 551 768 -64 1466 -64 
C 2163 -64 2758 551 2758 1356 
z
M 1466 51 
C 1165 51 909 230 762 480 
C 602 767 582 1126 582 1408 
C 582 1677 595 2010 762 2298 
C 890 2509 1139 2714 1466 2714 
C 1754 2714 1997 2554 2150 2330 
C 2349 2029 2349 1607 2349 1408 
C 2349 1158 2336 775 2163 467 
C 1984 173 1709 51 1466 51 
z
" transform="scale(0.015625)"/>
       <path id="CMR17-74" d="M 966 2560 
L 1862 2560 
L 1862 2725 
L 966 2725 
L 966 3904 
L 851 3904 
C 838 3245 614 2668 70 2668 
L 70 2560 
L 627 2560 
L 627 771 
C 627 650 627 -64 1370 -64 
C 1747 -64 1965 306 1965 777 
L 1965 1140 
L 1850 1140 
L 1850 783 
C 1850 344 1677 51 1408 51 
C 1222 51 966 178 966 758 
L 966 2560 
z
" transform="scale(0.015625)"/>
       <path id="CMR17-68" d="M 2656 1933 
C 2656 2259 2592 2790 1837 2790 
C 1312 2790 1056 2368 979 2157 
L 973 2157 
L 973 4396 
L 211 4326 
L 211 4160 
C 589 4160 646 4122 646 3817 
L 646 426 
C 646 184 621 153 211 153 
L 211 -13 
C 365 0 646 0 813 0 
C 979 0 1267 0 1421 -13 
L 1421 153 
C 1011 153 986 178 986 428 
L 986 1658 
C 986 2247 1344 2688 1792 2688 
C 2266 2688 2317 2266 2317 1958 
L 2317 428 
C 2317 184 2291 153 1882 153 
L 1882 -13 
C 2035 0 2317 0 2483 0 
C 2650 0 2938 0 3091 -13 
L 3091 153 
C 2682 153 2656 178 2656 428 
L 2656 1933 
z
" transform="scale(0.015625)"/>
       <path id="CMR17-73" d="M 1978 2697 
C 1978 2813 1971 2819 1933 2819 
C 1907 2819 1901 2813 1824 2717 
C 1805 2691 1747 2626 1728 2601 
C 1523 2819 1235 2819 1126 2819 
C 416 2819 160 2447 160 2076 
C 160 1498 813 1365 998 1325 
C 1402 1243 1542 1217 1677 1101 
C 1760 1025 1901 884 1901 654 
C 1901 384 1747 38 1158 38 
C 602 38 403 460 288 1021 
C 269 1110 269 1117 218 1117 
C 166 1117 160 1110 160 983 
L 160 63 
C 160 -51 166 -58 205 -58 
C 237 -58 243 -51 275 0 
C 314 57 410 211 448 276 
C 576 103 800 -64 1158 -64 
C 1792 -64 2131 283 2131 784 
C 2131 1112 1958 1285 1875 1362 
C 1683 1561 1459 1606 1190 1657 
C 838 1735 390 1825 390 2217 
C 390 2383 480 2737 1126 2737 
C 1811 2737 1850 2094 1862 1888 
C 1869 1856 1901 1849 1920 1849 
C 1978 1849 1978 1869 1978 1978 
L 1978 2697 
z
" transform="scale(0.015625)"/>
       <path id="CMR17-69" d="M 992 3909 
C 992 4049 877 4170 730 4170 
C 589 4170 467 4056 467 3909 
C 467 3769 582 3648 730 3648 
C 870 3648 992 3763 992 3909 
z
M 243 2706 
L 243 2541 
C 602 2541 653 2502 653 2197 
L 653 427 
C 653 184 627 153 218 153 
L 218 -13 
C 371 0 646 0 806 0 
C 960 0 1222 0 1370 -13 
L 1370 153 
C 992 153 979 191 979 420 
L 979 2776 
L 243 2706 
z
" transform="scale(0.015625)"/>
       <path id="CMR17-66" d="M 979 2560 
L 1709 2560 
L 1709 2725 
L 966 2725 
L 966 3494 
C 966 4022 1235 4352 1510 4352 
C 1594 4352 1690 4327 1754 4282 
C 1702 4269 1568 4225 1568 4067 
C 1568 3901 1696 3850 1786 3850 
C 1875 3850 2003 3901 2003 4067 
C 2003 4308 1773 4454 1517 4454 
C 1152 4454 653 4156 653 3481 
L 653 2725 
L 141 2725 
L 141 2560 
L 653 2560 
L 653 427 
C 653 184 627 153 218 153 
L 218 -13 
C 371 0 666 0 832 0 
C 1018 0 1344 0 1517 -13 
L 1517 153 
C 1056 153 979 153 979 439 
L 979 2560 
z
" transform="scale(0.015625)"/>
       <path id="CMR17-65" d="M 2438 1472 
C 2464 1498 2464 1511 2464 1576 
C 2464 2238 2118 2816 1389 2816 
C 710 2816 173 2169 173 1383 
C 173 551 781 -64 1459 -64 
C 2176 -64 2458 607 2458 740 
C 2458 784 2419 784 2406 784 
C 2362 784 2355 771 2330 696 
C 2189 265 1837 51 1504 51 
C 1229 51 954 203 781 480 
C 582 803 582 1176 582 1472 
L 2438 1472 
z
M 589 1568 
C 634 2505 1126 2714 1382 2714 
C 1818 2714 2112 2297 2118 1568 
L 589 1568 
z
" transform="scale(0.015625)"/>
       <path id="CMR17-64" d="M 1869 4326 
L 1869 4160 
C 2246 4160 2304 4122 2304 3820 
L 2304 2345 
C 2278 2377 2016 2790 1498 2790 
C 845 2790 211 2208 211 1364 
C 211 525 806 -64 1434 -64 
C 1978 -64 2259 337 2291 380 
L 2291 -63 
L 3066 -63 
L 3066 128 
C 2688 128 2630 166 2630 473 
L 2630 4396 
L 1869 4326 
z
M 2291 755 
C 2291 563 2176 390 2029 262 
C 1811 70 1594 38 1472 38 
C 1286 38 621 134 621 1356 
C 621 2612 1363 2688 1530 2688 
C 1824 2688 2061 2522 2208 2291 
C 2291 2157 2291 2138 2291 2023 
L 2291 755 
z
" transform="scale(0.015625)"/>
      </defs>
      <use xlink:href="#CMR17-62" transform="scale(0.996264)"/>
      <use xlink:href="#CMR17-6f" transform="translate(53.497809 0) scale(0.996264)"/>
      <use xlink:href="#CMR17-74" transform="translate(99.188286 0) scale(0.996264)"/>
      <use xlink:href="#CMR17-68" transform="translate(134.469053 0) scale(0.996264)"/>
      <use xlink:href="#CMR17-73" transform="translate(215.44039 0) scale(0.996264)"/>
      <use xlink:href="#CMR17-68" transform="translate(251.241727 0) scale(0.996264)"/>
      <use xlink:href="#CMR17-69" transform="translate(302.137097 0) scale(0.996264)"/>
      <use xlink:href="#CMR17-66" transform="translate(327.008155 0) scale(0.996264)"/>
      <use xlink:href="#CMR17-74" transform="translate(354.481668 0) scale(0.996264)"/>
      <use xlink:href="#CMR17-65" transform="translate(389.762436 0) scale(0.996264)"/>
      <use xlink:href="#CMR17-64" transform="translate(430.248096 0) scale(0.996264)"/>
     </g>
    </g>
    <g id="line2d_20">
     <path d="M 277.600632 118.78542 
L 290.600632 118.78542 
L 303.600632 118.78542 
" style="fill: none; stroke-dasharray: 1,1.65; stroke-dashoffset: 0; stroke: #2ca02c"/>
    </g>
    <g id="text_17">
     <!-- only cold shifted -->
     <g transform="translate(314.000632 123.33542) scale(0.13 -0.13)">
      <defs>
       <path id="CMR17-6e" d="M 2656 1933 
C 2656 2259 2592 2790 1837 2790 
C 1331 2790 1069 2400 973 2144 
L 966 2144 
L 966 2790 
L 211 2720 
L 211 2554 
C 589 2554 646 2515 646 2208 
L 646 428 
C 646 184 621 153 211 153 
L 211 -13 
C 365 0 646 0 813 0 
C 979 0 1267 0 1421 -13 
L 1421 153 
C 1011 153 986 178 986 428 
L 986 1658 
C 986 2247 1344 2688 1792 2688 
C 2266 2688 2317 2266 2317 1958 
L 2317 428 
C 2317 184 2291 153 1882 153 
L 1882 -13 
C 2035 0 2317 0 2483 0 
C 2650 0 2938 0 3091 -13 
L 3091 153 
C 2682 153 2656 178 2656 428 
L 2656 1933 
z
" transform="scale(0.015625)"/>
       <path id="CMR17-6c" d="M 979 4396 
L 218 4326 
L 218 4160 
C 595 4160 653 4122 653 3817 
L 653 426 
C 653 184 627 153 218 153 
L 218 -13 
C 371 0 653 0 813 0 
C 979 0 1261 0 1414 -13 
L 1414 153 
C 1005 153 979 178 979 426 
L 979 4396 
z
" transform="scale(0.015625)"/>
       <path id="CMR17-79" d="M 2496 2197 
C 2656 2586 2944 2586 3034 2586 
L 3034 2752 
C 2912 2752 2752 2752 2630 2752 
C 2496 2752 2285 2752 2157 2758 
L 2157 2592 
C 2400 2573 2406 2394 2406 2343 
C 2406 2280 2394 2248 2362 2171 
L 1664 449 
L 902 2306 
C 870 2382 870 2426 870 2433 
C 870 2573 1018 2586 1171 2586 
L 1171 2758 
C 1018 2752 742 2752 582 2752 
C 410 2752 205 2752 64 2758 
L 64 2586 
C 410 2586 448 2554 531 2350 
L 1485 15 
C 1197 -738 1030 -1178 627 -1178 
C 557 -1178 397 -1159 282 -1044 
C 429 -1031 493 -942 493 -833 
C 493 -725 416 -629 288 -629 
C 147 -629 77 -725 77 -840 
C 77 -1095 339 -1280 627 -1280 
C 998 -1280 1229 -922 1357 -604 
L 2496 2197 
z
" transform="scale(0.015625)"/>
       <path id="CMR17-63" d="M 2234 2240 
C 2112 2240 1933 2240 1933 2017 
C 1933 1838 2080 1787 2163 1787 
C 2208 1787 2394 1807 2394 2024 
C 2394 2467 1958 2803 1466 2803 
C 787 2803 211 2178 211 1363 
C 211 516 813 -64 1466 -64 
C 2259 -64 2458 677 2458 748 
C 2458 774 2451 793 2406 793 
C 2362 793 2355 787 2330 703 
C 2163 180 1798 51 1523 51 
C 1114 51 621 427 621 1369 
C 621 2338 1094 2688 1472 2688 
C 1722 2688 2093 2573 2234 2240 
z
" transform="scale(0.015625)"/>
      </defs>
      <use xlink:href="#CMR17-6f" transform="scale(0.996264)"/>
      <use xlink:href="#CMR17-6e" transform="translate(45.690477 0) scale(0.996264)"/>
      <use xlink:href="#CMR17-6c" transform="translate(96.585847 0) scale(0.996264)"/>
      <use xlink:href="#CMR17-79" transform="translate(121.456905 0) scale(0.996264)"/>
      <use xlink:href="#CMR17-63" transform="translate(199.825788 0) scale(0.996264)"/>
      <use xlink:href="#CMR17-6f" transform="translate(240.311448 0) scale(0.996264)"/>
      <use xlink:href="#CMR17-6c" transform="translate(286.001925 0) scale(0.996264)"/>
      <use xlink:href="#CMR17-64" transform="translate(310.872984 0) scale(0.996264)"/>
      <use xlink:href="#CMR17-73" transform="translate(391.84432 0) scale(0.996264)"/>
      <use xlink:href="#CMR17-68" transform="translate(427.645657 0) scale(0.996264)"/>
      <use xlink:href="#CMR17-69" transform="translate(478.541027 0) scale(0.996264)"/>
      <use xlink:href="#CMR17-66" transform="translate(503.412086 0) scale(0.996264)"/>
      <use xlink:href="#CMR17-74" transform="translate(530.885598 0) scale(0.996264)"/>
      <use xlink:href="#CMR17-65" transform="translate(566.166366 0) scale(0.996264)"/>
      <use xlink:href="#CMR17-64" transform="translate(606.652026 0) scale(0.996264)"/>
     </g>
    </g>
   </g>
  </g>
 </g>
 <defs>
  <clipPath id="pc16f8f87d0">
   <rect x="50.822595" y="7.2" width="366.536925" height="207.57084"/>
  </clipPath>
 </defs>
</svg>
