<?xml version="1.0" encoding="utf-8" standalone="no"?>
<!DOCTYPE svg PUBLIC "-//W3C//DTD SVG 1.1//EN"
  "http://www.w3.org/Graphics/SVG/1.1/DTD/svg11.dtd">
<svg xmlns:xlink="http://www.w3.org/1999/xlink" width="424.55952pt" height="181.19952pt" viewBox="0 0 424.55952 181.19952" xmlns="http://www.w3.org/2000/svg" version="1.1">
 <metadata>
  <rdf:RDF xmlns:dc="http://purl.org/dc/elements/1.1/" xmlns:cc="http://creativecommons.org/ns#" xmlns:rdf="http://www.w3.org/1999/02/22-rdf-syntax-ns#">
   <cc:Work>
    <dc:type rdf:resource="http://purl.org/dc/dcmitype/StillImage"/>
    <dc:date>1980-01-01T00:00:00+00:00</dc:date>
    <dc:format>image/svg+xml</dc:format>
    <dc:creator>
     <cc:Agent>
      <dc:title>Matplotlib v3.6.2, https://matplotlib.org/</dc:title>
     </cc:Agent>
    </dc:creator>
   </cc:Work>
  </rdf:RDF>
 </metadata>
 <defs>
  <style type="text/css">*{stroke-linejoin: round; stroke-linecap: butt}</style>
 </defs>
 <g id="figure_1">
  <g id="patch_1">
   <path d="M 0 181.19952 
L 424.55952 181.19952 
L 424.55952 -0 
L 0 -0 
z
" style="fill: #ffffff"/>
  </g>
  <g id="axes_1">
   <g id="patch_2">
    <path d="M 108.357388 153.38718 
L 417.35952 153.38718 
L 417.35952 11.751718 
L 108.357388 11.751718 
z
" style="fill: #ffffff"/>
   </g>
   <g id="matplotlib.axis_1">
    <g id="xtick_1">
     <g id="line2d_1">
      <defs>
       <path id="md150a1c88b" d="M 0 0 
L 0 3.5 
" style="stroke: #000000; stroke-width: 0.8"/>
      </defs>
      <g>
       <use xlink:href="#md150a1c88b" x="108.357388" y="153.38718" style="stroke: #000000; stroke-width: 0.8"/>
      </g>
     </g>
     <g id="text_1">
      <!-- $\mathdefault{120}$ -->
      <g transform="translate(98.846279 171.481208) scale(0.13 -0.13)">
       <defs>
        <path id="CMR17-31" d="M 1702 4058 
C 1702 4192 1696 4192 1606 4192 
C 1357 3916 979 3827 621 3827 
C 602 3827 570 3827 563 3808 
C 557 3795 557 3782 557 3648 
C 755 3648 1088 3686 1344 3839 
L 1344 461 
C 1344 236 1331 160 781 160 
L 589 160 
L 589 0 
C 896 0 1216 0 1523 0 
C 1830 0 2150 0 2458 0 
L 2458 160 
L 2266 160 
C 1715 160 1702 230 1702 458 
L 1702 4058 
z
" transform="scale(0.015625)"/>
        <path id="CMR17-32" d="M 2669 989 
L 2554 989 
C 2490 536 2438 459 2413 420 
C 2381 369 1920 369 1830 369 
L 602 369 
C 832 619 1280 1072 1824 1597 
C 2214 1967 2669 2402 2669 3035 
C 2669 3790 2067 4224 1395 4224 
C 691 4224 262 3604 262 3030 
C 262 2780 448 2748 525 2748 
C 589 2748 781 2787 781 3010 
C 781 3207 614 3264 525 3264 
C 486 3264 448 3258 422 3245 
C 544 3790 915 4058 1306 4058 
C 1862 4058 2227 3617 2227 3035 
C 2227 2479 1901 2000 1536 1584 
L 262 146 
L 262 0 
L 2515 0 
L 2669 989 
z
" transform="scale(0.015625)"/>
        <path id="CMR17-30" d="M 2688 2025 
C 2688 2416 2682 3080 2413 3591 
C 2176 4039 1798 4198 1466 4198 
C 1158 4198 768 4058 525 3597 
C 269 3118 243 2524 243 2025 
C 243 1661 250 1106 448 619 
C 723 -39 1216 -128 1466 -128 
C 1760 -128 2208 -7 2470 600 
C 2662 1042 2688 1559 2688 2025 
z
M 1466 -26 
C 1056 -26 813 325 723 812 
C 653 1188 653 1738 653 2096 
C 653 2588 653 2997 736 3387 
C 858 3929 1216 4096 1466 4096 
C 1728 4096 2067 3923 2189 3400 
C 2272 3036 2278 2607 2278 2096 
C 2278 1680 2278 1169 2202 792 
C 2067 95 1690 -26 1466 -26 
z
" transform="scale(0.015625)"/>
       </defs>
       <use xlink:href="#CMR17-31" transform="scale(0.996264)"/>
       <use xlink:href="#CMR17-32" transform="translate(45.690477 0) scale(0.996264)"/>
       <use xlink:href="#CMR17-30" transform="translate(91.380954 0) scale(0.996264)"/>
      </g>
     </g>
    </g>
    <g id="xtick_2">
     <g id="line2d_2">
      <g>
       <use xlink:href="#md150a1c88b" x="158.196442" y="153.38718" style="stroke: #000000; stroke-width: 0.8"/>
      </g>
     </g>
     <g id="text_2">
      <!-- $\mathdefault{125}$ -->
      <g transform="translate(148.685332 171.481208) scale(0.13 -0.13)">
       <defs>
        <path id="CMR17-35" d="M 730 3692 
C 794 3666 1056 3584 1325 3584 
C 1920 3584 2246 3911 2432 4100 
C 2432 4157 2432 4192 2394 4192 
C 2387 4192 2374 4192 2323 4163 
C 2099 4058 1837 3973 1517 3973 
C 1325 3973 1037 3999 723 4139 
C 653 4171 640 4171 634 4171 
C 602 4171 595 4164 595 4037 
L 595 2203 
C 595 2089 595 2057 659 2057 
C 691 2057 704 2070 736 2114 
C 941 2401 1222 2522 1542 2522 
C 1766 2522 2246 2382 2246 1289 
C 2246 1085 2246 715 2054 421 
C 1894 159 1645 25 1370 25 
C 947 25 518 320 403 814 
C 429 807 480 795 506 795 
C 589 795 749 840 749 1038 
C 749 1210 627 1280 506 1280 
C 358 1280 262 1190 262 1011 
C 262 454 704 -128 1382 -128 
C 2042 -128 2669 440 2669 1264 
C 2669 2030 2170 2624 1549 2624 
C 1222 2624 947 2503 730 2274 
L 730 3692 
z
" transform="scale(0.015625)"/>
       </defs>
       <use xlink:href="#CMR17-31" transform="scale(0.996264)"/>
       <use xlink:href="#CMR17-32" transform="translate(45.690477 0) scale(0.996264)"/>
       <use xlink:href="#CMR17-35" transform="translate(91.380954 0) scale(0.996264)"/>
      </g>
     </g>
    </g>
    <g id="xtick_3">
     <g id="line2d_3">
      <g>
       <use xlink:href="#md150a1c88b" x="208.035495" y="153.38718" style="stroke: #000000; stroke-width: 0.8"/>
      </g>
     </g>
     <g id="text_3">
      <!-- $\mathdefault{130}$ -->
      <g transform="translate(198.524386 171.481208) scale(0.13 -0.13)">
       <defs>
        <path id="CMR17-33" d="M 1414 2157 
C 1984 2157 2234 1662 2234 1090 
C 2234 320 1824 25 1453 25 
C 1114 25 563 194 390 693 
C 422 680 454 680 486 680 
C 640 680 755 782 755 948 
C 755 1133 614 1216 486 1216 
C 378 1216 211 1165 211 926 
C 211 335 787 -128 1466 -128 
C 2176 -128 2720 430 2720 1085 
C 2720 1707 2208 2157 1600 2227 
C 2086 2328 2554 2756 2554 3329 
C 2554 3820 2048 4179 1472 4179 
C 890 4179 378 3829 378 3329 
C 378 3110 544 3072 627 3072 
C 762 3072 877 3155 877 3321 
C 877 3486 762 3569 627 3569 
C 602 3569 570 3569 544 3557 
C 730 3959 1235 4032 1459 4032 
C 1683 4032 2106 3925 2106 3320 
C 2106 3143 2080 2828 1862 2550 
C 1670 2304 1453 2304 1242 2284 
C 1210 2284 1062 2269 1037 2269 
C 992 2263 966 2257 966 2208 
C 966 2163 973 2157 1101 2157 
L 1414 2157 
z
" transform="scale(0.015625)"/>
       </defs>
       <use xlink:href="#CMR17-31" transform="scale(0.996264)"/>
       <use xlink:href="#CMR17-33" transform="translate(45.690477 0) scale(0.996264)"/>
       <use xlink:href="#CMR17-30" transform="translate(91.380954 0) scale(0.996264)"/>
      </g>
     </g>
    </g>
    <g id="xtick_4">
     <g id="line2d_4">
      <g>
       <use xlink:href="#md150a1c88b" x="257.874549" y="153.38718" style="stroke: #000000; stroke-width: 0.8"/>
      </g>
     </g>
     <g id="text_4">
      <!-- $\mathdefault{135}$ -->
      <g transform="translate(248.363439 171.481208) scale(0.13 -0.13)">
       <use xlink:href="#CMR17-31" transform="scale(0.996264)"/>
       <use xlink:href="#CMR17-33" transform="translate(45.690477 0) scale(0.996264)"/>
       <use xlink:href="#CMR17-35" transform="translate(91.380954 0) scale(0.996264)"/>
      </g>
     </g>
    </g>
    <g id="xtick_5">
     <g id="line2d_5">
      <g>
       <use xlink:href="#md150a1c88b" x="307.713602" y="153.38718" style="stroke: #000000; stroke-width: 0.8"/>
      </g>
     </g>
     <g id="text_5">
      <!-- $\mathdefault{140}$ -->
      <g transform="translate(298.202493 171.481208) scale(0.13 -0.13)">
       <defs>
        <path id="CMR17-34" d="M 2150 4122 
C 2150 4256 2144 4256 2029 4256 
L 128 1254 
L 128 1088 
L 1779 1088 
L 1779 457 
C 1779 224 1766 160 1318 160 
L 1197 160 
L 1197 0 
C 1402 0 1747 0 1965 0 
C 2182 0 2528 0 2733 0 
L 2733 160 
L 2611 160 
C 2163 160 2150 224 2150 457 
L 2150 1088 
L 2803 1088 
L 2803 1254 
L 2150 1254 
L 2150 4122 
z
M 1798 3703 
L 1798 1254 
L 256 1254 
L 1798 3703 
z
" transform="scale(0.015625)"/>
       </defs>
       <use xlink:href="#CMR17-31" transform="scale(0.996264)"/>
       <use xlink:href="#CMR17-34" transform="translate(45.690477 0) scale(0.996264)"/>
       <use xlink:href="#CMR17-30" transform="translate(91.380954 0) scale(0.996264)"/>
      </g>
     </g>
    </g>
    <g id="xtick_6">
     <g id="line2d_6">
      <g>
       <use xlink:href="#md150a1c88b" x="357.552656" y="153.38718" style="stroke: #000000; stroke-width: 0.8"/>
      </g>
     </g>
     <g id="text_6">
      <!-- $\mathdefault{145}$ -->
      <g transform="translate(348.041547 171.481208) scale(0.13 -0.13)">
       <use xlink:href="#CMR17-31" transform="scale(0.996264)"/>
       <use xlink:href="#CMR17-34" transform="translate(45.690477 0) scale(0.996264)"/>
       <use xlink:href="#CMR17-35" transform="translate(91.380954 0) scale(0.996264)"/>
      </g>
     </g>
    </g>
    <g id="xtick_7">
     <g id="line2d_7">
      <g>
       <use xlink:href="#md150a1c88b" x="407.391709" y="153.38718" style="stroke: #000000; stroke-width: 0.8"/>
      </g>
     </g>
     <g id="text_7">
      <!-- $\mathdefault{150}$ -->
      <g transform="translate(397.8806 171.481208) scale(0.13 -0.13)">
       <use xlink:href="#CMR17-31" transform="scale(0.996264)"/>
       <use xlink:href="#CMR17-35" transform="translate(45.690477 0) scale(0.996264)"/>
       <use xlink:href="#CMR17-30" transform="translate(91.380954 0) scale(0.996264)"/>
      </g>
     </g>
    </g>
   </g>
   <g id="matplotlib.axis_2">
    <g id="ytick_1">
     <g id="line2d_8">
      <defs>
       <path id="ma5b93d3157" d="M 0 0 
L -3.5 0 
" style="stroke: #000000; stroke-width: 0.8"/>
      </defs>
      <g>
       <use xlink:href="#ma5b93d3157" x="108.357388" y="153.38718" style="stroke: #000000; stroke-width: 0.8"/>
      </g>
     </g>
     <g id="text_8">
      <!-- $\mathdefault{-8.05199\times10^{-1}}$ -->
      <g transform="translate(7.2 157.938897) scale(0.13 -0.13)">
       <defs>
        <path id="CMSY10-0" d="M 4218 1472 
C 4326 1472 4442 1472 4442 1600 
C 4442 1728 4326 1728 4218 1728 
L 755 1728 
C 646 1728 531 1728 531 1600 
C 531 1472 646 1472 755 1472 
L 4218 1472 
z
" transform="scale(0.015625)"/>
        <path id="CMR17-38" d="M 1741 2264 
C 2144 2467 2554 2773 2554 3263 
C 2554 3841 1990 4179 1472 4179 
C 890 4179 378 3759 378 3180 
C 378 3021 416 2747 666 2505 
C 730 2442 998 2251 1171 2130 
C 883 1983 211 1634 211 934 
C 211 279 838 -128 1459 -128 
C 2144 -128 2720 362 2720 1010 
C 2720 1590 2330 1857 2074 2029 
L 1741 2264 
z
M 902 2822 
C 851 2854 595 3051 595 3351 
C 595 3739 998 4032 1459 4032 
C 1965 4032 2336 3676 2336 3262 
C 2336 2669 1670 2331 1638 2331 
C 1632 2331 1626 2331 1574 2370 
L 902 2822 
z
M 2080 1519 
C 2176 1449 2483 1240 2483 851 
C 2483 381 2010 25 1472 25 
C 890 25 448 438 448 940 
C 448 1443 838 1862 1280 2060 
L 2080 1519 
z
" transform="scale(0.015625)"/>
        <path id="CMMI12-3a" d="M 1178 307 
C 1178 492 1024 619 870 619 
C 685 619 557 466 557 313 
C 557 128 710 0 864 0 
C 1050 0 1178 153 1178 307 
z
" transform="scale(0.015625)"/>
        <path id="CMR17-39" d="M 2253 1864 
C 2253 464 1670 31 1190 31 
C 1043 31 685 31 538 294 
C 704 268 826 357 826 518 
C 826 692 685 749 595 749 
C 538 749 365 723 365 506 
C 365 71 742 -128 1203 -128 
C 1939 -128 2688 674 2688 2073 
C 2688 3817 1971 4179 1485 4179 
C 851 4179 243 3628 243 2778 
C 243 1991 762 1408 1414 1408 
C 1952 1408 2189 1903 2253 2112 
L 2253 1864 
z
M 1427 1510 
C 1254 1510 1011 1542 813 1922 
C 678 2169 678 2461 678 2771 
C 678 3146 678 3405 858 3684 
C 947 3817 1114 4032 1485 4032 
C 2240 4032 2240 2885 2240 2632 
C 2240 2182 2035 1510 1427 1510 
z
" transform="scale(0.015625)"/>
        <path id="CMSY10-2" d="M 2490 1785 
L 1210 3059 
C 1133 3136 1120 3148 1069 3148 
C 1005 3148 941 3091 941 3020 
C 941 2976 954 2963 1024 2892 
L 2304 1606 
L 1024 320 
C 954 249 941 236 941 192 
C 941 121 1005 64 1069 64 
C 1120 64 1133 76 1210 153 
L 2483 1427 
L 3808 102 
C 3821 96 3866 64 3904 64 
C 3981 64 4032 121 4032 192 
C 4032 204 4032 230 4013 262 
C 4006 275 2989 1280 2669 1606 
L 3840 2777 
C 3872 2816 3968 2899 4000 2937 
C 4006 2950 4032 2976 4032 3020 
C 4032 3091 3981 3148 3904 3148 
C 3853 3148 3827 3123 3757 3052 
L 2490 1785 
z
" transform="scale(0.015625)"/>
       </defs>
       <use xlink:href="#CMSY10-0" transform="scale(0.996264)"/>
       <use xlink:href="#CMR17-38" transform="translate(77.487468 0) scale(0.996264)"/>
       <use xlink:href="#CMMI12-3a" transform="translate(123.177945 0) scale(0.996264)"/>
       <use xlink:href="#CMR17-30" transform="translate(150.275122 0) scale(0.996264)"/>
       <use xlink:href="#CMR17-35" transform="translate(195.965599 0) scale(0.996264)"/>
       <use xlink:href="#CMR17-31" transform="translate(241.656076 0) scale(0.996264)"/>
       <use xlink:href="#CMR17-39" transform="translate(287.346553 0) scale(0.996264)"/>
       <use xlink:href="#CMR17-39" transform="translate(333.03703 0) scale(0.996264)"/>
       <use xlink:href="#CMSY10-2" transform="translate(400.866714 0) scale(0.996264)"/>
       <use xlink:href="#CMR17-31" transform="translate(500.493389 0) scale(0.996264)"/>
       <use xlink:href="#CMR17-30" transform="translate(546.183866 0) scale(0.996264)"/>
       <use xlink:href="#CMSY10-0" transform="translate(591.874343 36.153639) scale(0.697382)"/>
       <use xlink:href="#CMR17-31" transform="translate(646.115337 36.153639) scale(0.697382)"/>
      </g>
     </g>
    </g>
    <g id="ytick_2">
     <g id="line2d_9">
      <g>
       <use xlink:href="#ma5b93d3157" x="108.357388" y="11.751718" style="stroke: #000000; stroke-width: 0.8"/>
      </g>
     </g>
     <g id="text_9">
      <!-- $\mathdefault{3.1116\times10^{-1}}$ -->
      <g transform="translate(23.614109 16.303435) scale(0.13 -0.13)">
       <defs>
        <path id="CMR17-36" d="M 678 2176 
C 678 3690 1395 4032 1811 4032 
C 1946 4032 2272 4009 2400 3776 
C 2298 3776 2106 3776 2106 3553 
C 2106 3381 2246 3323 2336 3323 
C 2394 3323 2566 3348 2566 3560 
C 2566 3954 2246 4179 1805 4179 
C 1043 4179 243 3390 243 1984 
C 243 253 966 -128 1478 -128 
C 2099 -128 2688 427 2688 1283 
C 2688 2081 2170 2662 1517 2662 
C 1126 2662 838 2407 678 1960 
L 678 2176 
z
M 1478 25 
C 691 25 691 1200 691 1436 
C 691 1896 909 2560 1504 2560 
C 1613 2560 1926 2560 2138 2120 
C 2253 1870 2253 1609 2253 1289 
C 2253 944 2253 690 2118 434 
C 1978 171 1773 25 1478 25 
z
" transform="scale(0.015625)"/>
       </defs>
       <use xlink:href="#CMR17-33" transform="scale(0.996264)"/>
       <use xlink:href="#CMMI12-3a" transform="translate(45.690477 0) scale(0.996264)"/>
       <use xlink:href="#CMR17-31" transform="translate(72.787654 0) scale(0.996264)"/>
       <use xlink:href="#CMR17-31" transform="translate(118.478131 0) scale(0.996264)"/>
       <use xlink:href="#CMR17-31" transform="translate(164.168608 0) scale(0.996264)"/>
       <use xlink:href="#CMR17-36" transform="translate(209.859086 0) scale(0.996264)"/>
       <use xlink:href="#CMSY10-2" transform="translate(277.68877 0) scale(0.996264)"/>
       <use xlink:href="#CMR17-31" transform="translate(377.315444 0) scale(0.996264)"/>
       <use xlink:href="#CMR17-30" transform="translate(423.005921 0) scale(0.996264)"/>
       <use xlink:href="#CMSY10-0" transform="translate(468.696399 36.153639) scale(0.697382)"/>
       <use xlink:href="#CMR17-31" transform="translate(522.937392 36.153639) scale(0.697382)"/>
      </g>
     </g>
    </g>
   </g>
   <g id="line2d_10">
    <path d="M 107.759319 51.229455 
L 144.241507 51.229455 
L 144.839575 51.087465 
L 145.437644 50.680587 
L 146.035712 50.036719 
L 147.23185 48.144724 
L 148.427987 45.615102 
L 150.222193 41.031997 
L 155.604811 26.476514 
L 156.800948 23.869228 
L 157.997085 21.68942 
L 159.193223 19.999742 
L 160.38936 18.847184 
L 160.987429 18.482727 
L 161.585497 18.263074 
L 162.183566 18.189693 
L 162.781634 18.263074 
L 163.379703 18.482727 
L 163.977772 18.847184 
L 165.173909 19.999742 
L 166.370046 21.68942 
L 167.566184 23.869228 
L 168.762321 26.476514 
L 170.556527 31.013363 
L 175.939145 45.615102 
L 177.135282 48.144724 
L 178.331419 50.036719 
L 178.929488 50.680587 
L 179.527556 51.087465 
L 180.125625 51.229455 
L 371.507591 51.229455 
L 372.105659 51.087465 
L 372.703728 50.680587 
L 373.301797 50.036719 
L 374.497934 48.144724 
L 375.694071 45.615102 
L 377.488277 41.031997 
L 382.870895 26.476514 
L 384.067032 23.869228 
L 385.26317 21.68942 
L 386.459307 19.999742 
L 387.655444 18.847184 
L 388.253513 18.482727 
L 388.851581 18.263074 
L 389.44965 18.189693 
L 390.047719 18.263074 
L 390.645787 18.482727 
L 391.243856 18.847184 
L 392.439993 19.999742 
L 393.636131 21.68942 
L 394.832268 23.869228 
L 396.028405 26.476514 
L 397.822611 31.013363 
L 403.205229 45.615102 
L 404.401366 48.144724 
L 405.597503 50.036719 
L 406.195572 50.680587 
L 406.793641 51.087465 
L 407.391709 51.229455 
L 425.55952 51.229455 
L 425.55952 51.229455 
" clip-path="url(#p42bf019958)" style="fill: none; stroke-dasharray: 3.7,1.6; stroke-dashoffset: 0; stroke: #ff0000"/>
   </g>
   <g id="line2d_11">
    <path d="M 107.759319 51.229455 
L 150.820262 51.330675 
L 152.614468 51.537687 
L 154.408673 52.000459 
L 155.604811 52.525487 
L 156.800948 53.275533 
L 157.997085 54.281388 
L 159.193223 55.545936 
L 160.987429 57.833158 
L 163.977772 61.803624 
L 165.173909 63.024458 
L 166.370046 63.816383 
L 166.968115 64.01662 
L 167.566184 64.074514 
L 168.164252 63.986438 
L 168.762321 63.753261 
L 169.958458 62.876911 
L 171.154595 61.533615 
L 172.948801 58.944486 
L 175.939145 54.420078 
L 177.135282 52.963003 
L 178.331419 51.89039 
L 178.929488 51.531269 
L 179.527556 51.306912 
L 180.723694 51.229455 
L 372.105659 51.184123 
L 373.301797 50.848721 
L 374.497934 50.247178 
L 376.29214 49.00023 
L 382.870895 43.904447 
L 384.067032 43.319274 
L 385.26317 42.945954 
L 386.459307 42.810998 
L 387.655444 42.9279 
L 388.851581 43.292195 
L 390.047719 43.877278 
L 391.841925 45.066215 
L 397.822611 49.482587 
L 399.616817 50.386214 
L 401.411023 50.962389 
L 403.205229 51.221091 
L 405.597503 51.253524 
L 412.774327 51.229455 
L 425.55952 51.229455 
L 425.55952 51.229455 
" clip-path="url(#p42bf019958)" style="fill: none; stroke: #ff0000; stroke-linecap: square"/>
   </g>
   <g id="line2d_12">
    <path d="M 107.759319 51.229455 
L 144.241507 51.229455 
L 144.839575 51.371444 
L 145.437644 51.778323 
L 146.035712 52.42219 
L 146.633781 51.399024 
L 148.427987 51.596607 
L 149.624124 51.859814 
L 150.820262 52.313144 
L 152.016399 53.043189 
L 153.212536 54.144029 
L 154.408673 55.717306 
L 155.604811 57.872346 
L 156.800948 60.71737 
L 157.997085 64.337327 
L 159.193223 68.765432 
L 160.38936 73.962019 
L 162.183566 82.921115 
L 166.968115 108.138065 
L 168.164252 113.228392 
L 169.360389 117.356438 
L 170.556527 120.430537 
L 171.154595 121.572523 
L 171.752664 122.463388 
L 172.350733 123.118656 
L 172.948801 123.557876 
L 173.54687 123.803559 
L 174.144939 123.879762 
L 174.743007 123.810878 
L 175.939145 123.330893 
L 177.135282 122.529003 
L 177.73335 122.049011 
L 178.331419 52.42219 
L 178.929488 51.778323 
L 179.527556 51.371444 
L 180.125625 51.229455 
L 371.507591 51.229455 
L 372.105659 51.371444 
L 372.703728 51.778323 
L 373.301797 52.42219 
L 373.899865 91.691912 
L 375.694071 91.430012 
L 378.086346 90.796339 
L 380.47862 89.969226 
L 382.272826 89.12985 
L 383.468964 88.369512 
L 384.665101 87.39044 
L 385.861238 86.154301 
L 387.057375 84.630649 
L 388.253513 82.802373 
L 390.047719 79.524657 
L 392.439993 74.435315 
L 400.812954 55.743062 
L 402.60716 52.37517 
L 403.205229 51.418461 
L 403.803297 51.893697 
L 404.999435 53.267925 
L 405.597503 52.42219 
L 406.195572 51.778323 
L 406.793641 51.371444 
L 407.391709 51.229455 
L 425.55952 51.229455 
L 425.55952 51.229455 
" clip-path="url(#p42bf019958)" style="fill: none; stroke-dasharray: 1,1.65; stroke-dashoffset: 0; stroke: #ff0000"/>
   </g>
   <g id="line2d_13">
    <path d="M 107.759319 51.229455 
L 144.241507 51.229455 
L 144.839575 51.087465 
L 145.437644 50.680587 
L 146.035712 50.036719 
L 147.23185 48.144724 
L 148.427987 45.615102 
L 150.222193 41.031997 
L 155.604811 26.476514 
L 156.800948 23.869228 
L 157.997085 21.68942 
L 159.193223 19.999742 
L 160.38936 18.847184 
L 160.987429 18.482727 
L 161.585497 18.263074 
L 162.183566 18.189693 
L 162.781634 18.263074 
L 163.379703 18.482727 
L 163.977772 18.847184 
L 165.173909 19.999742 
L 166.370046 21.68942 
L 167.566184 23.869228 
L 168.762321 26.476514 
L 170.556527 31.013363 
L 175.939145 45.615102 
L 177.135282 48.144724 
L 178.331419 50.036719 
L 178.929488 50.680587 
L 179.527556 51.087465 
L 180.125625 51.229455 
L 371.507591 51.229455 
L 372.105659 51.087465 
L 372.703728 50.680587 
L 373.301797 50.036719 
L 374.497934 48.144724 
L 375.694071 45.615102 
L 377.488277 41.031997 
L 382.870895 26.476514 
L 384.067032 23.869228 
L 385.26317 21.68942 
L 386.459307 19.999742 
L 387.655444 18.847184 
L 388.253513 18.482727 
L 388.851581 18.263074 
L 389.44965 18.189693 
L 390.047719 18.263074 
L 390.645787 18.482727 
L 391.243856 18.847184 
L 392.439993 19.999742 
L 393.636131 21.68942 
L 394.832268 23.869228 
L 396.028405 26.476514 
L 397.822611 31.013363 
L 403.205229 45.615102 
L 404.401366 48.144724 
L 405.597503 50.036719 
L 406.195572 50.680587 
L 406.793641 51.087465 
L 407.391709 51.229455 
L 417.558876 51.229455 
L 417.558876 51.229455 
" clip-path="url(#p42bf019958)" style="fill: none; stroke-dasharray: 3.7,1.6; stroke-dashoffset: 0; stroke: #008000"/>
   </g>
   <g id="line2d_14">
    <path d="M 107.759319 51.229455 
L 150.820262 51.330675 
L 152.614468 51.537687 
L 154.408673 52.000459 
L 155.604811 52.525487 
L 156.800948 53.275533 
L 157.997085 54.281388 
L 159.193223 55.545936 
L 160.987429 57.833158 
L 163.977772 61.803624 
L 165.173909 63.024458 
L 166.370046 63.816383 
L 166.968115 64.01662 
L 167.566184 64.074514 
L 168.164252 63.986438 
L 168.762321 63.753261 
L 169.958458 62.876911 
L 171.154595 61.533615 
L 172.948801 58.944486 
L 175.939145 54.420078 
L 177.135282 52.963003 
L 178.331419 51.89039 
L 178.929488 51.531269 
L 179.527556 51.306912 
L 180.723694 51.229455 
L 372.105659 51.184123 
L 373.301797 50.848721 
L 374.497934 50.247178 
L 376.29214 49.00023 
L 382.870895 43.904447 
L 384.067032 43.319274 
L 385.26317 42.945954 
L 386.459307 42.810998 
L 387.655444 42.9279 
L 388.851581 43.292195 
L 390.047719 43.877278 
L 391.841925 45.066215 
L 397.822611 49.482587 
L 399.616817 50.386214 
L 401.411023 50.962389 
L 403.205229 51.221091 
L 405.597503 51.253524 
L 412.774327 51.229455 
L 417.558876 51.229455 
L 417.558876 51.229455 
" clip-path="url(#p42bf019958)" style="fill: none; stroke: #008000; stroke-linecap: square"/>
   </g>
   <g id="line2d_15">
    <path d="M 107.759319 51.229455 
L 144.241507 51.229455 
L 144.839575 51.371444 
L 145.437644 51.778323 
L 146.035712 52.42219 
L 146.633781 51.399024 
L 148.427987 51.596607 
L 149.624124 51.859814 
L 150.820262 52.313144 
L 152.016399 53.043189 
L 153.212536 54.144029 
L 154.408673 55.717306 
L 155.604811 57.872346 
L 156.800948 60.71737 
L 157.997085 64.337327 
L 159.193223 68.765432 
L 160.38936 73.962019 
L 162.183566 82.921115 
L 166.968115 108.138065 
L 168.164252 113.228392 
L 169.360389 117.356438 
L 170.556527 120.430537 
L 171.154595 121.572523 
L 171.752664 122.463388 
L 172.350733 123.118656 
L 172.948801 123.557876 
L 173.54687 123.803559 
L 174.144939 123.879762 
L 174.743007 123.810878 
L 175.939145 123.330893 
L 177.135282 122.529003 
L 177.73335 122.049011 
L 178.331419 52.42219 
L 178.929488 51.778323 
L 179.527556 51.371444 
L 180.125625 51.229455 
L 371.507591 51.229455 
L 372.105659 51.371444 
L 372.703728 51.778323 
L 373.301797 52.42219 
L 373.899865 91.691912 
L 375.694071 91.430012 
L 378.086346 90.796339 
L 380.47862 89.969226 
L 382.272826 89.12985 
L 383.468964 88.369512 
L 384.665101 87.39044 
L 385.861238 86.154301 
L 387.057375 84.630649 
L 388.253513 82.802373 
L 390.047719 79.524657 
L 392.439993 74.435315 
L 400.812954 55.743062 
L 402.60716 52.37517 
L 403.205229 51.418461 
L 403.803297 51.893697 
L 404.999435 53.267925 
L 405.597503 52.42219 
L 406.195572 51.778323 
L 406.793641 51.371444 
L 407.391709 51.229455 
L 417.558876 51.229455 
L 417.558876 51.229455 
" clip-path="url(#p42bf019958)" style="fill: none; stroke-dasharray: 1,1.65; stroke-dashoffset: 0; stroke: #008000"/>
   </g>
   <g id="patch_3">
    <path d="M 108.357388 153.38718 
L 108.357388 11.751718 
" style="fill: none; stroke: #000000; stroke-width: 0.8; stroke-linejoin: miter; stroke-linecap: square"/>
   </g>
   <g id="patch_4">
    <path d="M 417.35952 153.38718 
L 417.35952 11.751718 
" style="fill: none; stroke: #000000; stroke-width: 0.8; stroke-linejoin: miter; stroke-linecap: square"/>
   </g>
   <g id="patch_5">
    <path d="M 108.357388 153.38718 
L 417.35952 153.38718 
" style="fill: none; stroke: #000000; stroke-width: 0.8; stroke-linejoin: miter; stroke-linecap: square"/>
   </g>
   <g id="patch_6">
    <path d="M 108.357388 11.751718 
L 417.35952 11.751718 
" style="fill: none; stroke: #000000; stroke-width: 0.8; stroke-linejoin: miter; stroke-linecap: square"/>
   </g>
  </g>
 </g>
 <defs>
  <clipPath id="p42bf019958">
   <rect x="108.357388" y="11.751718" width="309.002132" height="141.635462"/>
  </clipPath>
 </defs>
</svg>
