<?xml version="1.0" encoding="utf-8" standalone="no"?>
<!DOCTYPE svg PUBLIC "-//W3C//DTD SVG 1.1//EN"
  "http://www.w3.org/Graphics/SVG/1.1/DTD/svg11.dtd">
<svg xmlns:xlink="http://www.w3.org/1999/xlink" width="253.19952pt" height="179.75952pt" viewBox="0 0 253.19952 179.75952" xmlns="http://www.w3.org/2000/svg" version="1.1">
 <metadata>
  <rdf:RDF xmlns:dc="http://purl.org/dc/elements/1.1/" xmlns:cc="http://creativecommons.org/ns#" xmlns:rdf="http://www.w3.org/1999/02/22-rdf-syntax-ns#">
   <cc:Work>
    <dc:type rdf:resource="http://purl.org/dc/dcmitype/StillImage"/>
    <dc:date>1980-01-01T00:00:00+00:00</dc:date>
    <dc:format>image/svg+xml</dc:format>
    <dc:creator>
     <cc:Agent>
      <dc:title>Matplotlib v3.6.2, https://matplotlib.org/</dc:title>
     </cc:Agent>
    </dc:creator>
   </cc:Work>
  </rdf:RDF>
 </metadata>
 <defs>
  <style type="text/css">*{stroke-linejoin: round; stroke-linecap: butt}</style>
 </defs>
 <g id="figure_1">
  <g id="patch_1">
   <path d="M 0 179.75952 
L 253.19952 179.75952 
L 253.19952 0 
L 0 0 
z
" style="fill: #ffffff"/>
  </g>
  <g id="axes_1">
   <g id="patch_2">
    <path d="M 33.707196 143.519296 
L 245.99952 143.519296 
L 245.99952 7.2 
L 33.707196 7.2 
z
" style="fill: #ffffff"/>
   </g>
   <g id="matplotlib.axis_1">
    <g id="xtick_1">
     <g id="line2d_1">
      <defs>
       <path id="m1eb5c39023" d="M 0 0 
L 0 3.5 
" style="stroke: #000000; stroke-width: 0.8"/>
      </defs>
      <g>
       <use xlink:href="#m1eb5c39023" x="43.356847" y="143.519296" style="stroke: #000000; stroke-width: 0.8"/>
      </g>
     </g>
     <g id="text_1">
      <!-- $\mathdefault{0}$ -->
      <g transform="translate(41.239756 158.154098) scale(0.08 -0.08)">
       <defs>
        <path id="CMR17-30" d="M 2688 2025 
C 2688 2416 2682 3080 2413 3591 
C 2176 4039 1798 4198 1466 4198 
C 1158 4198 768 4058 525 3597 
C 269 3118 243 2524 243 2025 
C 243 1661 250 1106 448 619 
C 723 -39 1216 -128 1466 -128 
C 1760 -128 2208 -7 2470 600 
C 2662 1042 2688 1559 2688 2025 
z
M 1466 -26 
C 1056 -26 813 325 723 812 
C 653 1188 653 1738 653 2096 
C 653 2588 653 2997 736 3387 
C 858 3929 1216 4096 1466 4096 
C 1728 4096 2067 3923 2189 3400 
C 2272 3036 2278 2607 2278 2096 
C 2278 1680 2278 1169 2202 792 
C 2067 95 1690 -26 1466 -26 
z
" transform="scale(0.015625)"/>
       </defs>
       <use xlink:href="#CMR17-30" transform="scale(0.996264)"/>
      </g>
     </g>
    </g>
    <g id="xtick_2">
     <g id="line2d_2">
      <g>
       <use xlink:href="#m1eb5c39023" x="70.161434" y="143.519296" style="stroke: #000000; stroke-width: 0.8"/>
      </g>
     </g>
     <g id="text_2">
      <!-- $\mathdefault{25}$ -->
      <g transform="translate(65.927251 158.154098) scale(0.08 -0.08)">
       <defs>
        <path id="CMR17-32" d="M 2669 989 
L 2554 989 
C 2490 536 2438 459 2413 420 
C 2381 369 1920 369 1830 369 
L 602 369 
C 832 619 1280 1072 1824 1597 
C 2214 1967 2669 2402 2669 3035 
C 2669 3790 2067 4224 1395 4224 
C 691 4224 262 3604 262 3030 
C 262 2780 448 2748 525 2748 
C 589 2748 781 2787 781 3010 
C 781 3207 614 3264 525 3264 
C 486 3264 448 3258 422 3245 
C 544 3790 915 4058 1306 4058 
C 1862 4058 2227 3617 2227 3035 
C 2227 2479 1901 2000 1536 1584 
L 262 146 
L 262 0 
L 2515 0 
L 2669 989 
z
" transform="scale(0.015625)"/>
        <path id="CMR17-35" d="M 730 3692 
C 794 3666 1056 3584 1325 3584 
C 1920 3584 2246 3911 2432 4100 
C 2432 4157 2432 4192 2394 4192 
C 2387 4192 2374 4192 2323 4163 
C 2099 4058 1837 3973 1517 3973 
C 1325 3973 1037 3999 723 4139 
C 653 4171 640 4171 634 4171 
C 602 4171 595 4164 595 4037 
L 595 2203 
C 595 2089 595 2057 659 2057 
C 691 2057 704 2070 736 2114 
C 941 2401 1222 2522 1542 2522 
C 1766 2522 2246 2382 2246 1289 
C 2246 1085 2246 715 2054 421 
C 1894 159 1645 25 1370 25 
C 947 25 518 320 403 814 
C 429 807 480 795 506 795 
C 589 795 749 840 749 1038 
C 749 1210 627 1280 506 1280 
C 358 1280 262 1190 262 1011 
C 262 454 704 -128 1382 -128 
C 2042 -128 2669 440 2669 1264 
C 2669 2030 2170 2624 1549 2624 
C 1222 2624 947 2503 730 2274 
L 730 3692 
z
" transform="scale(0.015625)"/>
       </defs>
       <use xlink:href="#CMR17-32" transform="scale(0.996264)"/>
       <use xlink:href="#CMR17-35" transform="translate(45.690477 0) scale(0.996264)"/>
      </g>
     </g>
    </g>
    <g id="xtick_3">
     <g id="line2d_3">
      <g>
       <use xlink:href="#m1eb5c39023" x="96.96602" y="143.519296" style="stroke: #000000; stroke-width: 0.8"/>
      </g>
     </g>
     <g id="text_3">
      <!-- $\mathdefault{50}$ -->
      <g transform="translate(92.731837 158.154098) scale(0.08 -0.08)">
       <use xlink:href="#CMR17-35" transform="scale(0.996264)"/>
       <use xlink:href="#CMR17-30" transform="translate(45.690477 0) scale(0.996264)"/>
      </g>
     </g>
    </g>
    <g id="xtick_4">
     <g id="line2d_4">
      <g>
       <use xlink:href="#m1eb5c39023" x="123.770606" y="143.519296" style="stroke: #000000; stroke-width: 0.8"/>
      </g>
     </g>
     <g id="text_4">
      <!-- $\mathdefault{75}$ -->
      <g transform="translate(119.536423 158.154098) scale(0.08 -0.08)">
       <defs>
        <path id="CMR17-37" d="M 2886 3941 
L 2886 4081 
L 1382 4081 
C 634 4081 621 4165 595 4288 
L 480 4288 
L 294 3094 
L 410 3094 
C 429 3215 474 3540 550 3661 
C 589 3712 1062 3712 1171 3712 
L 2579 3712 
L 1869 2661 
C 1395 1954 1069 999 1069 165 
C 1069 89 1069 -128 1299 -128 
C 1530 -128 1530 89 1530 171 
L 1530 465 
C 1530 1508 1709 2196 2003 2636 
L 2886 3941 
z
" transform="scale(0.015625)"/>
       </defs>
       <use xlink:href="#CMR17-37" transform="scale(0.996264)"/>
       <use xlink:href="#CMR17-35" transform="translate(45.690477 0) scale(0.996264)"/>
      </g>
     </g>
    </g>
    <g id="xtick_5">
     <g id="line2d_5">
      <g>
       <use xlink:href="#m1eb5c39023" x="150.575193" y="143.519296" style="stroke: #000000; stroke-width: 0.8"/>
      </g>
     </g>
     <g id="text_5">
      <!-- $\mathdefault{100}$ -->
      <g transform="translate(144.223918 158.154098) scale(0.08 -0.08)">
       <defs>
        <path id="CMR17-31" d="M 1702 4058 
C 1702 4192 1696 4192 1606 4192 
C 1357 3916 979 3827 621 3827 
C 602 3827 570 3827 563 3808 
C 557 3795 557 3782 557 3648 
C 755 3648 1088 3686 1344 3839 
L 1344 461 
C 1344 236 1331 160 781 160 
L 589 160 
L 589 0 
C 896 0 1216 0 1523 0 
C 1830 0 2150 0 2458 0 
L 2458 160 
L 2266 160 
C 1715 160 1702 230 1702 458 
L 1702 4058 
z
" transform="scale(0.015625)"/>
       </defs>
       <use xlink:href="#CMR17-31" transform="scale(0.996264)"/>
       <use xlink:href="#CMR17-30" transform="translate(45.690477 0) scale(0.996264)"/>
       <use xlink:href="#CMR17-30" transform="translate(91.380954 0) scale(0.996264)"/>
      </g>
     </g>
    </g>
    <g id="xtick_6">
     <g id="line2d_6">
      <g>
       <use xlink:href="#m1eb5c39023" x="177.379779" y="143.519296" style="stroke: #000000; stroke-width: 0.8"/>
      </g>
     </g>
     <g id="text_6">
      <!-- $\mathdefault{125}$ -->
      <g transform="translate(171.028505 158.154098) scale(0.08 -0.08)">
       <use xlink:href="#CMR17-31" transform="scale(0.996264)"/>
       <use xlink:href="#CMR17-32" transform="translate(45.690477 0) scale(0.996264)"/>
       <use xlink:href="#CMR17-35" transform="translate(91.380954 0) scale(0.996264)"/>
      </g>
     </g>
    </g>
    <g id="xtick_7">
     <g id="line2d_7">
      <g>
       <use xlink:href="#m1eb5c39023" x="204.184365" y="143.519296" style="stroke: #000000; stroke-width: 0.8"/>
      </g>
     </g>
     <g id="text_7">
      <!-- $\mathdefault{150}$ -->
      <g transform="translate(197.833091 158.154098) scale(0.08 -0.08)">
       <use xlink:href="#CMR17-31" transform="scale(0.996264)"/>
       <use xlink:href="#CMR17-35" transform="translate(45.690477 0) scale(0.996264)"/>
       <use xlink:href="#CMR17-30" transform="translate(91.380954 0) scale(0.996264)"/>
      </g>
     </g>
    </g>
    <g id="xtick_8">
     <g id="line2d_8">
      <g>
       <use xlink:href="#m1eb5c39023" x="230.988952" y="143.519296" style="stroke: #000000; stroke-width: 0.8"/>
      </g>
     </g>
     <g id="text_8">
      <!-- $\mathdefault{175}$ -->
      <g transform="translate(224.637677 158.154098) scale(0.08 -0.08)">
       <use xlink:href="#CMR17-31" transform="scale(0.996264)"/>
       <use xlink:href="#CMR17-37" transform="translate(45.690477 0) scale(0.996264)"/>
       <use xlink:href="#CMR17-35" transform="translate(91.380954 0) scale(0.996264)"/>
      </g>
     </g>
    </g>
    <g id="text_9">
     <!-- $\tau$ -->
     <g transform="translate(137.675756 170.622342) scale(0.1 -0.1)">
      <defs>
       <path id="CMMI12-1c" d="M 1837 2408 
L 2899 2408 
C 2982 2408 3194 2408 3194 2612 
C 3194 2752 3072 2752 2957 2752 
L 1197 2752 
C 1050 2752 832 2752 538 2440 
C 371 2255 166 1917 166 1879 
C 166 1841 198 1828 237 1828 
C 282 1828 288 1847 320 1885 
C 653 2408 986 2408 1146 2408 
L 1677 2408 
L 1011 223 
C 979 127 979 114 979 95 
C 979 25 1024 -64 1152 -64 
C 1350 -64 1382 108 1402 203 
L 1837 2408 
z
" transform="scale(0.015625)"/>
      </defs>
      <use xlink:href="#CMMI12-1c" transform="scale(0.996264)"/>
     </g>
    </g>
   </g>
   <g id="matplotlib.axis_2">
    <g id="ytick_1">
     <g id="line2d_9">
      <defs>
       <path id="m8b0f6157df" d="M 0 0 
L -3.5 0 
" style="stroke: #000000; stroke-width: 0.8"/>
      </defs>
      <g>
       <use xlink:href="#m8b0f6157df" x="33.707196" y="137.322964" style="stroke: #000000; stroke-width: 0.8"/>
      </g>
     </g>
     <g id="text_10">
      <!-- $\mathdefault{−1.0}$ -->
      <g transform="translate(7.2 140.090365) scale(0.08 -0.08)">
       <defs>
        <path id="CMSY10-0" d="M 4218 1472 
C 4326 1472 4442 1472 4442 1600 
C 4442 1728 4326 1728 4218 1728 
L 755 1728 
C 646 1728 531 1728 531 1600 
C 531 1472 646 1472 755 1472 
L 4218 1472 
z
" transform="scale(0.015625)"/>
        <path id="CMMI12-3a" d="M 1178 307 
C 1178 492 1024 619 870 619 
C 685 619 557 466 557 313 
C 557 128 710 0 864 0 
C 1050 0 1178 153 1178 307 
z
" transform="scale(0.015625)"/>
       </defs>
       <use xlink:href="#CMSY10-0" transform="scale(0.996264)"/>
       <use xlink:href="#CMR17-31" transform="translate(77.487468 0) scale(0.996264)"/>
       <use xlink:href="#CMMI12-3a" transform="translate(123.177945 0) scale(0.996264)"/>
       <use xlink:href="#CMR17-30" transform="translate(150.275122 0) scale(0.996264)"/>
      </g>
     </g>
    </g>
    <g id="ytick_2">
     <g id="line2d_10">
      <g>
       <use xlink:href="#m8b0f6157df" x="33.707196" y="112.678705" style="stroke: #000000; stroke-width: 0.8"/>
      </g>
     </g>
     <g id="text_11">
      <!-- $\mathdefault{−0.8}$ -->
      <g transform="translate(7.2 115.446106) scale(0.08 -0.08)">
       <defs>
        <path id="CMR17-38" d="M 1741 2264 
C 2144 2467 2554 2773 2554 3263 
C 2554 3841 1990 4179 1472 4179 
C 890 4179 378 3759 378 3180 
C 378 3021 416 2747 666 2505 
C 730 2442 998 2251 1171 2130 
C 883 1983 211 1634 211 934 
C 211 279 838 -128 1459 -128 
C 2144 -128 2720 362 2720 1010 
C 2720 1590 2330 1857 2074 2029 
L 1741 2264 
z
M 902 2822 
C 851 2854 595 3051 595 3351 
C 595 3739 998 4032 1459 4032 
C 1965 4032 2336 3676 2336 3262 
C 2336 2669 1670 2331 1638 2331 
C 1632 2331 1626 2331 1574 2370 
L 902 2822 
z
M 2080 1519 
C 2176 1449 2483 1240 2483 851 
C 2483 381 2010 25 1472 25 
C 890 25 448 438 448 940 
C 448 1443 838 1862 1280 2060 
L 2080 1519 
z
" transform="scale(0.015625)"/>
       </defs>
       <use xlink:href="#CMSY10-0" transform="scale(0.996264)"/>
       <use xlink:href="#CMR17-30" transform="translate(77.487468 0) scale(0.996264)"/>
       <use xlink:href="#CMMI12-3a" transform="translate(123.177945 0) scale(0.996264)"/>
       <use xlink:href="#CMR17-38" transform="translate(150.275122 0) scale(0.996264)"/>
      </g>
     </g>
    </g>
    <g id="ytick_3">
     <g id="line2d_11">
      <g>
       <use xlink:href="#m8b0f6157df" x="33.707196" y="88.034446" style="stroke: #000000; stroke-width: 0.8"/>
      </g>
     </g>
     <g id="text_12">
      <!-- $\mathdefault{−0.6}$ -->
      <g transform="translate(7.2 90.801846) scale(0.08 -0.08)">
       <defs>
        <path id="CMR17-36" d="M 678 2176 
C 678 3690 1395 4032 1811 4032 
C 1946 4032 2272 4009 2400 3776 
C 2298 3776 2106 3776 2106 3553 
C 2106 3381 2246 3323 2336 3323 
C 2394 3323 2566 3348 2566 3560 
C 2566 3954 2246 4179 1805 4179 
C 1043 4179 243 3390 243 1984 
C 243 253 966 -128 1478 -128 
C 2099 -128 2688 427 2688 1283 
C 2688 2081 2170 2662 1517 2662 
C 1126 2662 838 2407 678 1960 
L 678 2176 
z
M 1478 25 
C 691 25 691 1200 691 1436 
C 691 1896 909 2560 1504 2560 
C 1613 2560 1926 2560 2138 2120 
C 2253 1870 2253 1609 2253 1289 
C 2253 944 2253 690 2118 434 
C 1978 171 1773 25 1478 25 
z
" transform="scale(0.015625)"/>
       </defs>
       <use xlink:href="#CMSY10-0" transform="scale(0.996264)"/>
       <use xlink:href="#CMR17-30" transform="translate(77.487468 0) scale(0.996264)"/>
       <use xlink:href="#CMMI12-3a" transform="translate(123.177945 0) scale(0.996264)"/>
       <use xlink:href="#CMR17-36" transform="translate(150.275122 0) scale(0.996264)"/>
      </g>
     </g>
    </g>
    <g id="ytick_4">
     <g id="line2d_12">
      <g>
       <use xlink:href="#m8b0f6157df" x="33.707196" y="63.390186" style="stroke: #000000; stroke-width: 0.8"/>
      </g>
     </g>
     <g id="text_13">
      <!-- $\mathdefault{−0.4}$ -->
      <g transform="translate(7.2 66.157587) scale(0.08 -0.08)">
       <defs>
        <path id="CMR17-34" d="M 2150 4122 
C 2150 4256 2144 4256 2029 4256 
L 128 1254 
L 128 1088 
L 1779 1088 
L 1779 457 
C 1779 224 1766 160 1318 160 
L 1197 160 
L 1197 0 
C 1402 0 1747 0 1965 0 
C 2182 0 2528 0 2733 0 
L 2733 160 
L 2611 160 
C 2163 160 2150 224 2150 457 
L 2150 1088 
L 2803 1088 
L 2803 1254 
L 2150 1254 
L 2150 4122 
z
M 1798 3703 
L 1798 1254 
L 256 1254 
L 1798 3703 
z
" transform="scale(0.015625)"/>
       </defs>
       <use xlink:href="#CMSY10-0" transform="scale(0.996264)"/>
       <use xlink:href="#CMR17-30" transform="translate(77.487468 0) scale(0.996264)"/>
       <use xlink:href="#CMMI12-3a" transform="translate(123.177945 0) scale(0.996264)"/>
       <use xlink:href="#CMR17-34" transform="translate(150.275122 0) scale(0.996264)"/>
      </g>
     </g>
    </g>
    <g id="ytick_5">
     <g id="line2d_13">
      <g>
       <use xlink:href="#m8b0f6157df" x="33.707196" y="38.745927" style="stroke: #000000; stroke-width: 0.8"/>
      </g>
     </g>
     <g id="text_14">
      <!-- $\mathdefault{−0.2}$ -->
      <g transform="translate(7.2 41.513328) scale(0.08 -0.08)">
       <use xlink:href="#CMSY10-0" transform="scale(0.996264)"/>
       <use xlink:href="#CMR17-30" transform="translate(77.487468 0) scale(0.996264)"/>
       <use xlink:href="#CMMI12-3a" transform="translate(123.177945 0) scale(0.996264)"/>
       <use xlink:href="#CMR17-32" transform="translate(150.275122 0) scale(0.996264)"/>
      </g>
     </g>
    </g>
    <g id="ytick_6">
     <g id="line2d_14">
      <g>
       <use xlink:href="#m8b0f6157df" x="33.707196" y="14.101668" style="stroke: #000000; stroke-width: 0.8"/>
      </g>
     </g>
     <g id="text_15">
      <!-- $\mathdefault{0.0}$ -->
      <g transform="translate(13.786507 16.869069) scale(0.08 -0.08)">
       <use xlink:href="#CMR17-30" transform="scale(0.996264)"/>
       <use xlink:href="#CMMI12-3a" transform="translate(45.690477 0) scale(0.996264)"/>
       <use xlink:href="#CMR17-30" transform="translate(72.787654 0) scale(0.996264)"/>
      </g>
     </g>
    </g>
   </g>
   <g id="line2d_15">
    <path d="M 43.356847 137.322964 
L 48.181673 137.23243 
L 48.374666 137.003794 
L 48.567659 136.437003 
L 48.824983 134.690973 
L 49.082307 131.156656 
L 49.468293 121.676036 
L 50.497589 92.449958 
L 51.012237 85.853806 
L 52.170195 74.633083 
L 53.006498 68.17075 
L 53.842801 63.719854 
L 55.129422 57.57532 
L 55.901394 55.03683 
L 57.959986 50.33735 
L 58.924951 48.874066 
L 60.726219 46.693758 
L 61.369529 46.426791 
L 61.884177 46.201753 
L 62.849142 45.526324 
L 63.685446 45.142068 
L 64.393087 44.600236 
L 64.650411 44.68534 
L 65.165059 44.979515 
L 65.422383 44.825263 
L 65.8727 44.487957 
L 66.258686 44.533383 
L 67.030658 44.727848 
L 68.317278 44.352102 
L 69.217912 44.333538 
L 69.925553 43.97021 
L 70.311539 44.272131 
L 70.697525 44.450688 
L 72.498794 44.357336 
L 72.820449 44.72597 
L 73.206435 45.548658 
L 74.621717 49.227915 
L 75.007703 49.400883 
L 76.036999 49.419715 
L 80.861824 49.328093 
L 81.440804 48.976525 
L 81.82679 48.808939 
L 82.084114 48.948947 
L 82.341438 49.461702 
L 82.663093 50.799344 
L 83.049079 53.469718 
L 83.75672 60.406123 
L 84.979009 72.292491 
L 85.879643 78.939692 
L 86.651615 83.172738 
L 87.359256 85.984859 
L 88.774538 90.422587 
L 89.610841 92.211243 
L 90.575807 93.788772 
L 91.605103 95.100638 
L 92.377075 95.745583 
L 95.464963 97.525944 
L 96.301266 97.754738 
L 98.038203 97.814099 
L 98.874506 97.950511 
L 100.225458 98.147444 
L 101.576409 98.012572 
L 103.184684 97.953797 
L 104.728628 98.254608 
L 105.050283 98.785642 
L 105.436269 99.979985 
L 106.722889 104.636114 
L 107.044544 104.971553 
L 107.43053 105.059715 
L 111.933701 105.061476 
L 112.577011 104.949213 
L 112.834335 104.59354 
L 113.091659 103.609997 
L 113.348983 101.494056 
L 113.670638 96.619536 
L 115.021589 71.537597 
L 115.536237 68.058548 
L 117.337506 58.289136 
L 118.045147 56.100428 
L 119.717753 51.594799 
L 120.554056 49.858731 
L 121.45469 48.602596 
L 123.255958 46.598218 
L 123.963599 46.253939 
L 124.735571 45.768741 
L 125.700536 45.539712 
L 126.53684 45.154333 
L 127.630467 44.738935 
L 128.080784 44.857074 
L 128.852756 44.612256 
L 129.496066 44.458761 
L 130.782686 44.288177 
L 131.297334 44.089898 
L 133.870574 44.005238 
L 134.642546 43.863921 
L 135.993498 43.703038 
L 136.636808 43.538199 
L 136.894132 43.762237 
L 137.280118 44.54639 
L 138.952724 48.531074 
L 139.33871 48.706133 
L 140.303675 48.725693 
L 145.192832 48.627401 
L 145.70748 48.327788 
L 146.157797 48.128741 
L 146.35079 48.249572 
L 146.608114 48.743159 
L 146.929769 49.999054 
L 147.315755 52.49602 
L 147.894734 57.827973 
L 149.56734 74.307901 
L 150.274981 79.01082 
L 151.368608 84.556838 
L 152.14058 87.389137 
L 153.234208 90.530403 
L 154.199173 92.638305 
L 154.971145 93.77266 
L 156.57942 95.587795 
L 157.801709 96.350844 
L 159.474315 97.089009 
L 160.632273 97.36723 
L 162.369211 97.631902 
L 164.299141 98.130209 
L 167.387029 98.001588 
L 167.966008 98.071837 
L 169.123966 98.470808 
L 169.445621 99.031311 
L 169.831607 100.260482 
L 170.989566 104.510027 
L 171.311221 104.915491 
L 171.697207 105.041753 
L 173.884461 105.047514 
L 176.908018 104.946576 
L 177.101011 104.726131 
L 177.294004 104.213988 
L 177.551328 102.718574 
L 177.872983 98.854867 
L 178.3233 89.638897 
L 179.030941 75.281365 
L 179.481259 70.574903 
L 180.124569 66.641737 
L 181.47552 59.407507 
L 182.311823 56.496133 
L 183.920098 52.179941 
L 185.013725 50.011263 
L 185.657035 49.471358 
L 188.101613 46.281676 
L 188.551931 46.077972 
L 189.13091 45.853354 
L 190.224537 44.938097 
L 190.674854 45.046498 
L 191.125171 45.151835 
L 191.511157 44.967107 
L 192.025805 44.717691 
L 192.733446 44.623805 
L 193.955735 44.047667 
L 195.499679 43.997058 
L 196.657637 43.714085 
L 197.300948 43.543401 
L 197.879927 43.52144 
L 199.488202 43.962206 
L 200.067181 43.861372 
L 200.581829 43.795869 
L 201.096477 44.040651 
L 201.482463 44.451607 
L 201.868449 45.270008 
L 203.155069 48.631083 
L 203.541055 48.905803 
L 204.120034 48.955404 
L 209.523839 48.854388 
L 210.617466 48.534129 
L 210.87479 48.884565 
L 211.132114 49.647561 
L 211.5181 51.731857 
L 212.032748 56.013381 
L 214.284333 77.015513 
L 215.120637 82.048986 
L 216.021271 86.012315 
L 216.921905 88.747176 
L 217.951201 91.310258 
L 219.109159 93.457521 
L 219.881131 94.500518 
L 220.588772 95.189934 
L 222.711695 96.63418 
L 225.284936 97.59312 
L 226.314232 97.827566 
L 227.214866 98.009967 
L 230.753071 98.071211 
L 231.589374 98.074966 
L 233.326312 98.068277 
L 233.583636 98.349163 
L 233.905291 99.109754 
L 234.419939 101.119375 
L 235.12758 103.844879 
L 235.513566 104.572964 
L 235.835221 104.784866 
L 236.349869 104.822231 
L 236.349869 104.822231 
" clip-path="url(#peac73e7b1a)" style="fill: none; stroke: #ff7f0e; stroke-width: 0.5; stroke-linecap: square"/>
   </g>
   <g id="line2d_16">
    <path d="M 43.356847 14.101668 
L 49.146638 14.202981 
L 50.175934 14.375087 
L 50.819244 14.039704 
L 51.591216 13.738514 
L 52.170195 13.73296 
L 53.714139 13.994071 
L 54.550442 13.919965 
L 56.030056 14.04753 
L 56.995021 13.719778 
L 57.445338 13.799261 
L 57.959986 14.183865 
L 58.796289 14.803442 
L 59.117944 14.696636 
L 60.211571 13.990676 
L 60.726219 14.217401 
L 61.112205 14.223025 
L 62.270163 13.883241 
L 64.071432 14.212497 
L 64.521749 14.069083 
L 65.165059 13.832908 
L 65.679707 13.985335 
L 66.773334 14.423689 
L 67.15932 14.310565 
L 68.510271 13.540947 
L 69.282243 13.654624 
L 70.504532 14.109151 
L 72.177138 13.915542 
L 72.820449 14.368368 
L 73.270766 14.550606 
L 73.785414 14.507783 
L 74.300062 14.222517 
L 75.136365 13.737138 
L 75.522351 13.745242 
L 76.036999 14.016222 
L 76.873302 14.467771 
L 77.38795 14.444168 
L 78.352915 14.068977 
L 79.446542 13.752028 
L 80.282845 13.737586 
L 81.119148 13.932183 
L 82.791755 14.457257 
L 83.242072 14.311487 
L 84.142706 13.920673 
L 85.107671 13.650993 
L 85.750981 13.719985 
L 88.131228 14.261338 
L 89.675172 14.084285 
L 91.090455 13.814139 
L 95.464963 14.257434 
L 99.453486 13.612541 
L 100.032465 13.733352 
L 101.705071 14.405537 
L 102.670036 14.6962 
L 103.313346 14.720601 
L 104.535635 14.64464 
L 105.757924 14.582898 
L 106.722889 14.373436 
L 109.231799 13.669848 
L 109.746447 13.833771 
L 111.22606 14.523365 
L 111.676377 14.280485 
L 112.641342 13.668722 
L 113.027328 13.742768 
L 113.477645 14.116618 
L 114.185286 14.69693 
L 114.506941 14.693229 
L 114.828596 14.429151 
L 115.536237 13.731406 
L 115.857892 13.731815 
L 116.436871 14.069319 
L 116.887189 14.200051 
L 117.466168 14.087861 
L 118.109478 14.001946 
L 118.624126 14.188007 
L 119.52476 14.567111 
L 119.910746 14.399452 
L 120.875711 13.825898 
L 121.261697 13.807825 
L 121.647683 14.069065 
L 122.290993 14.541405 
L 122.612648 14.480711 
L 123.448951 14.193296 
L 123.963599 14.429297 
L 124.799902 14.767808 
L 125.121557 14.73695 
L 125.507543 14.468528 
L 126.279516 13.85117 
L 126.601171 13.923477 
L 127.630467 14.509718 
L 128.145115 14.357284 
L 129.174411 13.957415 
L 129.817721 14.072805 
L 130.3967 14.065638 
L 131.104341 13.914271 
L 131.747651 14.087097 
L 132.648285 14.302944 
L 134.127898 14.116518 
L 134.83554 14.32165 
L 135.350188 14.137109 
L 135.929167 13.915667 
L 136.443815 14.036405 
L 137.859097 14.440678 
L 138.309414 14.366647 
L 138.952724 13.975032 
L 139.531703 13.730874 
L 139.98202 13.814838 
L 141.525964 14.463532 
L 142.233605 14.230208 
L 143.520225 13.793593 
L 144.356529 13.732871 
L 145.321494 13.904973 
L 147.187093 14.347904 
L 147.959065 14.183392 
L 148.602375 13.827168 
L 149.117023 13.641495 
L 150.467974 13.549861 
L 151.046953 13.768832 
L 153.298539 14.81416 
L 154.070511 14.747349 
L 155.2928 14.340534 
L 156.129103 14.176416 
L 157.158399 14.239197 
L 158.123364 14.209792 
L 159.15266 14.146207 
L 162.497873 14.155568 
L 163.784493 14.002951 
L 165.585761 14.029884 
L 166.357733 14.059242 
L 170.667911 14.454918 
L 171.632876 14.113796 
L 172.919496 13.670942 
L 173.562806 13.66452 
L 174.077454 13.862364 
L 175.428405 14.557238 
L 175.814391 14.38914 
L 177.03668 13.647844 
L 177.422666 13.78564 
L 178.580624 14.468137 
L 178.96661 14.284835 
L 179.802914 13.784398 
L 180.124569 13.887523 
L 181.346858 14.685007 
L 181.668513 14.572622 
L 182.890802 13.821241 
L 183.534112 13.889881 
L 184.113091 14.176501 
L 184.69207 14.424142 
L 185.33538 14.289808 
L 185.785697 14.000572 
L 186.493338 13.483195 
L 186.814993 13.569166 
L 187.844289 14.098996 
L 188.937917 14.087115 
L 190.095875 14.061808 
L 190.932178 14.464826 
L 191.253833 14.392333 
L 191.70415 14.013998 
L 192.090136 13.766405 
L 192.411791 13.803237 
L 192.733446 14.067811 
L 193.376756 14.672131 
L 193.63408 14.64337 
L 194.020066 14.324398 
L 194.9207 13.485879 
L 195.178024 13.583002 
L 195.628341 14.076684 
L 196.20732 14.678962 
L 196.528975 14.692958 
L 196.85063 14.445458 
L 197.558272 13.754469 
L 197.815596 13.815425 
L 198.523237 14.431286 
L 199.295209 14.894874 
L 199.681195 14.827591 
L 200.195843 14.42518 
L 200.839153 13.923737 
L 201.225139 13.958742 
L 202.318766 14.305825 
L 202.833414 14.118676 
L 203.669717 13.794812 
L 204.120034 13.870165 
L 205.663978 14.392193 
L 206.435951 14.13985 
L 207.529578 13.834188 
L 208.430212 13.808451 
L 209.459508 14.01021 
L 210.681797 14.229076 
L 211.453769 14.103563 
L 212.418734 14.044949 
L 213.190706 14.127985 
L 215.635285 14.734876 
L 216.664581 14.57611 
L 218.53018 13.895806 
L 219.109159 13.922766 
L 220.395779 14.173751 
L 221.553737 13.99784 
L 224.126978 13.739951 
L 226.893211 14.446074 
L 228.308493 14.266793 
L 229.788106 13.882498 
L 230.946064 13.926793 
L 232.940326 14.164876 
L 236.349869 14.11372 
L 236.349869 14.11372 
" clip-path="url(#peac73e7b1a)" style="fill: none; stroke: #2ca02c; stroke-width: 0.5; stroke-linecap: square"/>
   </g>
   <g id="line2d_17">
    <path d="M 43.356847 14.101668 
L 48.889314 13.993537 
L 49.532624 13.935292 
L 49.982941 14.20492 
L 50.497589 14.496994 
L 51.012237 14.468345 
L 51.591216 14.177272 
L 52.234526 13.897524 
L 52.942167 13.944234 
L 54.614774 14.074979 
L 55.258084 13.976227 
L 56.544704 14.299731 
L 56.93069 14.165706 
L 57.959986 13.522128 
L 58.281641 13.656889 
L 58.796289 14.241002 
L 59.310937 14.753081 
L 59.568261 14.708904 
L 60.018578 14.288638 
L 60.533226 13.886891 
L 60.79055 13.973464 
L 61.43386 14.330847 
L 61.819846 14.184403 
L 62.334494 13.982097 
L 64.135763 14.115648 
L 64.779073 14.255245 
L 65.358052 13.96587 
L 66.001362 13.737715 
L 66.387348 13.851802 
L 67.80263 14.448702 
L 69.73256 13.852042 
L 70.182877 14.079241 
L 70.761856 14.306836 
L 71.533828 14.237071 
L 71.919814 14.0435 
L 72.498794 13.775889 
L 72.88478 13.879532 
L 74.300062 14.474778 
L 74.750379 14.435065 
L 75.329358 14.090272 
L 75.972668 13.738771 
L 76.422985 13.759733 
L 77.066295 14.099137 
L 77.838267 14.440283 
L 78.481577 14.477895 
L 79.382211 14.284224 
L 81.376473 13.739955 
L 81.955452 13.83237 
L 82.791755 14.235999 
L 83.692389 14.688332 
L 84.078375 14.619242 
L 86.32996 13.66453 
L 86.97327 13.809548 
L 88.002566 14.170889 
L 88.9032 14.378082 
L 89.54651 14.295537 
L 91.476441 14.005011 
L 93.34204 13.992545 
L 95.464963 14.214327 
L 96.687252 14.54921 
L 97.587886 14.462729 
L 98.874506 13.916284 
L 99.582148 13.647237 
L 100.99743 13.587201 
L 103.442008 13.896569 
L 105.243276 14.032332 
L 107.752185 14.527066 
L 108.588489 14.307593 
L 110.389757 13.688957 
L 110.840074 13.930544 
L 111.805039 14.538617 
L 112.191025 14.479531 
L 112.641342 14.160859 
L 113.477645 13.49053 
L 113.7993 13.501164 
L 114.120955 13.768839 
L 114.957258 14.73443 
L 115.214582 14.687229 
L 115.600568 14.30734 
L 116.115216 13.822252 
L 116.436871 13.851349 
L 117.659161 14.295144 
L 118.23814 13.966965 
L 118.817119 13.717729 
L 119.138774 13.857232 
L 120.039408 14.49379 
L 120.554056 14.327123 
L 121.197366 13.977121 
L 121.712014 13.689347 
L 121.969338 13.828663 
L 122.676979 14.406384 
L 122.998634 14.342899 
L 123.963599 13.789688 
L 124.928564 14.12367 
L 125.636205 14.671671 
L 125.89353 14.569584 
L 126.279516 14.097558 
L 126.729833 13.602136 
L 126.987157 13.608505 
L 127.373143 13.942883 
L 127.82346 14.215465 
L 128.595432 14.247639 
L 129.045749 14.137012 
L 129.624728 13.946739 
L 130.139376 14.057484 
L 130.589693 14.164622 
L 131.233003 13.974055 
L 131.811982 13.923547 
L 132.455292 14.126237 
L 133.098602 14.371603 
L 133.484588 14.204423 
L 134.385222 13.788861 
L 134.706878 13.938743 
L 135.47885 14.372205 
L 135.800505 14.263344 
L 136.443815 13.934881 
L 137.923428 14.091555 
L 138.759731 14.460367 
L 139.145717 14.383689 
L 139.917689 13.896923 
L 140.432337 13.727398 
L 140.882654 13.834204 
L 142.426598 14.473233 
L 143.19857 14.3967 
L 144.485191 13.995244 
L 145.578818 13.748633 
L 146.157797 13.827167 
L 148.473713 14.480047 
L 149.117023 14.313487 
L 150.85396 13.485996 
L 152.14058 13.745073 
L 154.134842 14.489441 
L 154.842483 14.333308 
L 156.000441 14.131695 
L 156.901075 14.201229 
L 157.737378 14.257778 
L 162.433542 13.874603 
L 163.269845 14.026181 
L 164.23481 14.161982 
L 168.159001 13.999628 
L 168.866642 13.912439 
L 169.895938 14.150067 
L 171.311221 14.544577 
L 172.083193 14.529499 
L 172.919496 14.272307 
L 174.527771 13.644083 
L 174.978088 13.82544 
L 176.200377 14.564292 
L 176.586363 14.43085 
L 177.229673 13.878712 
L 177.744321 13.578255 
L 178.065976 13.65254 
L 178.580624 14.108835 
L 179.159603 14.538756 
L 179.416928 14.497048 
L 179.802914 14.157448 
L 180.317562 13.672067 
L 180.639217 13.672818 
L 181.089534 13.923651 
L 181.990168 14.561288 
L 182.376154 14.443043 
L 183.276788 13.981345 
L 183.855767 13.924118 
L 184.306084 13.885452 
L 186.171683 14.551644 
L 186.557669 14.066313 
L 186.943655 13.663202 
L 187.200979 13.647094 
L 187.651296 13.917822 
L 188.230276 14.150154 
L 188.873586 14.204703 
L 189.452565 14.148738 
L 190.224537 13.864264 
L 190.867847 14.065395 
L 191.768481 14.544255 
L 192.090136 14.218026 
L 192.797777 13.457408 
L 192.99077 13.514495 
L 193.312425 13.931942 
L 193.891404 14.695781 
L 194.213059 14.813179 
L 194.534714 14.713286 
L 194.856369 14.304522 
L 195.435348 13.494398 
L 195.692672 13.396332 
L 195.949996 13.537884 
L 196.528975 14.294684 
L 196.979292 14.733482 
L 197.172286 14.686563 
L 197.493941 14.280865 
L 198.008589 13.64039 
L 198.330244 13.626667 
L 199.230878 13.975032 
L 200.131512 14.574749 
L 200.517498 14.523331 
L 200.967815 14.124918 
L 201.418132 13.826036 
L 201.804118 13.886841 
L 203.155069 14.351943 
L 203.669717 14.136689 
L 204.441689 13.802415 
L 204.892006 13.844125 
L 205.79264 14.26218 
L 206.435951 14.408003 
L 207.207923 14.330588 
L 209.909825 13.867629 
L 211.132114 14.192141 
L 212.16141 14.454367 
L 212.869051 14.20233 
L 213.962678 13.814105 
L 214.541657 13.775559 
L 215.506623 14.03468 
L 216.278595 14.280038 
L 217.114898 14.236978 
L 218.401518 14.064151 
L 219.302152 13.990982 
L 220.331448 14.158399 
L 221.425075 14.408999 
L 222.454371 14.376768 
L 225.606591 13.911493 
L 228.951803 14.328649 
L 229.852437 14.039739 
L 230.817402 13.785858 
L 231.525043 13.787604 
L 234.419939 14.132148 
L 236.349869 14.090451 
L 236.349869 14.090451 
" clip-path="url(#peac73e7b1a)" style="fill: none; stroke: #d62728; stroke-width: 0.5; stroke-linecap: square"/>
   </g>
   <g id="patch_3">
    <path d="M 33.707196 143.519296 
L 33.707196 7.2 
" style="fill: none; stroke: #000000; stroke-width: 0.8; stroke-linejoin: miter; stroke-linecap: square"/>
   </g>
   <g id="patch_4">
    <path d="M 245.99952 143.519296 
L 245.99952 7.2 
" style="fill: none; stroke: #000000; stroke-width: 0.8; stroke-linejoin: miter; stroke-linecap: square"/>
   </g>
   <g id="patch_5">
    <path d="M 33.707196 143.519296 
L 245.99952 143.519296 
" style="fill: none; stroke: #000000; stroke-width: 0.8; stroke-linejoin: miter; stroke-linecap: square"/>
   </g>
   <g id="patch_6">
    <path d="M 33.707196 7.2 
L 245.99952 7.2 
" style="fill: none; stroke: #000000; stroke-width: 0.8; stroke-linejoin: miter; stroke-linecap: square"/>
   </g>
   <g id="legend_1">
    <g id="patch_7">
     <path d="M 40.007196 139.019296 
L 85.914112 139.019296 
Q 87.714112 139.019296 87.714112 137.219296 
L 87.714112 97.720168 
Q 87.714112 95.920168 85.914112 95.920168 
L 40.007196 95.920168 
Q 38.207196 95.920168 38.207196 97.720168 
L 38.207196 137.219296 
Q 38.207196 139.019296 40.007196 139.019296 
z
" style="fill: #ffffff; opacity: 0.8; stroke: #cccccc; stroke-width: 0.24; stroke-linejoin: miter"/>
    </g>
    <g id="line2d_18">
     <path d="M 41.807196 103.09495 
L 50.807196 103.09495 
L 59.807196 103.09495 
" style="fill: none; stroke: #ff7f0e; stroke-width: 0.5; stroke-linecap: square"/>
    </g>
    <g id="text_16">
     <!-- $\langle \sigma_z\rangle$ -->
     <g transform="translate(67.007196 106.24495) scale(0.09 -0.09)">
      <defs>
       <path id="CMSY10-68" d="M 2099 4557 
C 2131 4627 2131 4640 2131 4672 
C 2131 4742 2074 4800 2003 4800 
C 1946 4800 1901 4768 1856 4653 
L 736 1715 
C 723 1677 704 1638 704 1600 
C 704 1581 704 1568 736 1491 
L 1856 -1446 
C 1882 -1517 1914 -1600 2003 -1600 
C 2074 -1600 2131 -1542 2131 -1472 
C 2131 -1453 2131 -1440 2099 -1370 
L 966 1600 
L 2099 4557 
z
" transform="scale(0.015625)"/>
       <path id="CMMI12-1b" d="M 3251 2408 
C 3334 2408 3546 2408 3546 2612 
C 3546 2752 3424 2752 3309 2752 
L 1894 2752 
C 934 2752 243 1686 243 932 
C 243 390 595 -64 1171 -64 
C 1926 -64 2752 747 2752 1705 
C 2752 1954 2694 2196 2541 2408 
L 3251 2408 
z
M 1178 64 
C 851 64 614 313 614 754 
C 614 1137 845 2408 1786 2408 
C 2061 2408 2368 2274 2368 1781 
C 2368 1558 2266 1021 2042 652 
C 1811 275 1466 64 1178 64 
z
" transform="scale(0.015625)"/>
       <path id="CMMI12-7a" d="M 813 486 
C 1088 803 1312 1004 1632 1296 
C 2016 1632 2182 1793 2272 1891 
C 2720 2338 2944 2713 2944 2764 
C 2944 2816 2893 2816 2880 2816 
C 2835 2816 2822 2793 2790 2750 
C 2630 2494 2477 2367 2310 2367 
C 2176 2367 2106 2421 1984 2565 
C 1850 2715 1741 2816 1555 2816 
C 1088 2816 806 2257 806 2128 
C 806 2108 813 2068 870 2068 
C 922 2068 928 2091 947 2133 
C 1056 2372 1363 2414 1485 2414 
C 1619 2414 1747 2376 1882 2327 
C 2125 2240 2227 2240 2291 2240 
C 2336 2240 2362 2240 2394 2246 
C 2182 1994 1837 1683 1549 1418 
L 902 816 
C 512 415 275 33 275 -12 
C 275 -51 307 -64 346 -64 
C 384 -64 390 -57 435 14 
C 538 163 742 384 979 384 
C 1114 384 1178 342 1306 193 
C 1427 61 1536 -64 1741 -64 
C 2368 -64 2726 732 2726 876 
C 2726 903 2720 942 2656 942 
C 2605 942 2598 917 2579 855 
C 2438 488 2061 338 1811 338 
C 1677 338 1549 376 1414 425 
C 1158 512 1088 512 1005 512 
C 941 512 870 512 813 486 
z
" transform="scale(0.015625)"/>
       <path id="CMSY10-69" d="M 1747 1491 
C 1779 1568 1779 1581 1779 1600 
C 1779 1619 1779 1632 1747 1709 
L 627 4653 
C 589 4762 550 4800 480 4800 
C 410 4800 352 4742 352 4672 
C 352 4653 352 4640 384 4570 
L 1517 1600 
L 384 -1357 
C 352 -1427 352 -1440 352 -1472 
C 352 -1542 410 -1600 480 -1600 
C 563 -1600 589 -1536 614 -1472 
L 1747 1491 
z
" transform="scale(0.015625)"/>
      </defs>
      <use xlink:href="#CMSY10-68" transform="scale(0.996264)"/>
      <use xlink:href="#CMMI12-1b" transform="translate(38.743734 0) scale(0.996264)"/>
      <use xlink:href="#CMMI12-7a" transform="translate(94.189195 -14.943915) scale(0.697382)"/>
      <use xlink:href="#CMSY10-69" transform="translate(129.51575 0) scale(0.996264)"/>
     </g>
    </g>
    <g id="line2d_19">
     <path d="M 41.807196 116.561326 
L 50.807196 116.561326 
L 59.807196 116.561326 
" style="fill: none; stroke: #2ca02c; stroke-width: 0.5; stroke-linecap: square"/>
    </g>
    <g id="text_17">
     <!-- $\langle \sigma_x\rangle$ -->
     <g transform="translate(67.007196 119.711326) scale(0.09 -0.09)">
      <defs>
       <path id="CMMI12-78" d="M 3034 2606 
C 2829 2567 2752 2414 2752 2293 
C 2752 2139 2874 2088 2963 2088 
C 3155 2088 3290 2254 3290 2427 
C 3290 2695 2982 2816 2714 2816 
C 2323 2816 2106 2433 2048 2312 
C 1901 2816 1504 2816 1389 2816 
C 736 2816 390 1980 390 1839 
C 390 1814 416 1782 461 1782 
C 512 1782 525 1820 538 1846 
C 755 2555 1184 2689 1370 2689 
C 1658 2689 1715 2420 1715 2267 
C 1715 2127 1677 1980 1600 1673 
L 1382 798 
C 1286 415 1101 64 762 64 
C 730 64 570 64 435 147 
C 666 192 717 383 717 460 
C 717 588 621 664 499 664 
C 346 664 179 530 179 326 
C 179 57 480 -64 755 -64 
C 1062 -64 1280 179 1414 441 
C 1517 64 1837 -64 2074 -64 
C 2726 -64 3072 773 3072 913 
C 3072 945 3046 971 3008 971 
C 2950 971 2944 939 2925 888 
C 2752 326 2381 64 2093 64 
C 1869 64 1747 230 1747 492 
C 1747 632 1773 734 1875 1156 
L 2099 2024 
C 2195 2408 2413 2689 2707 2689 
C 2720 2689 2899 2689 3034 2606 
z
" transform="scale(0.015625)"/>
      </defs>
      <use xlink:href="#CMSY10-68" transform="scale(0.996264)"/>
      <use xlink:href="#CMMI12-1b" transform="translate(38.743734 0) scale(0.996264)"/>
      <use xlink:href="#CMMI12-78" transform="translate(94.189195 -14.943915) scale(0.697382)"/>
      <use xlink:href="#CMSY10-69" transform="translate(133.490986 0) scale(0.996264)"/>
     </g>
    </g>
    <g id="line2d_20">
     <path d="M 41.807196 130.027702 
L 50.807196 130.027702 
L 59.807196 130.027702 
" style="fill: none; stroke: #d62728; stroke-width: 0.5; stroke-linecap: square"/>
    </g>
    <g id="text_18">
     <!-- $\langle \sigma_y\rangle$ -->
     <g transform="translate(67.007196 133.177702) scale(0.09 -0.09)">
      <defs>
       <path id="CMMI12-79" d="M 1683 -700 
C 1510 -939 1261 -1152 947 -1152 
C 870 -1152 563 -1152 467 -889 
C 486 -895 518 -895 531 -895 
C 723 -895 851 -729 851 -582 
C 851 -435 730 -384 634 -384 
C 531 -384 307 -458 307 -759 
C 307 -1071 582 -1286 947 -1286 
C 1587 -1286 2234 -700 2413 6 
L 3040 2485 
C 3046 2517 3059 2556 3059 2594 
C 3059 2689 2982 2753 2886 2753 
C 2829 2753 2694 2727 2643 2535 
L 2170 658 
C 2138 543 2138 530 2086 460 
C 1958 281 1747 64 1440 64 
C 1082 64 1050 415 1050 588 
C 1050 952 1222 1443 1395 1903 
C 1466 2088 1504 2178 1504 2305 
C 1504 2574 1312 2816 998 2816 
C 410 2816 173 1890 173 1839 
C 173 1814 198 1782 243 1782 
C 301 1782 307 1807 333 1897 
C 486 2433 730 2689 979 2689 
C 1037 2689 1146 2689 1146 2478 
C 1146 2312 1075 2127 979 1884 
C 666 1047 666 837 666 683 
C 666 77 1101 -64 1421 -64 
C 1606 -64 1837 -6 2061 230 
L 2067 224 
C 1971 -147 1907 -392 1683 -700 
z
" transform="scale(0.015625)"/>
      </defs>
      <use xlink:href="#CMSY10-68" transform="scale(0.996264)"/>
      <use xlink:href="#CMMI12-1b" transform="translate(38.743734 0) scale(0.996264)"/>
      <use xlink:href="#CMMI12-79" transform="translate(94.189195 -14.943915) scale(0.697382)"/>
      <use xlink:href="#CMSY10-69" transform="translate(130.484301 0) scale(0.996264)"/>
     </g>
    </g>
   </g>
  </g>
 </g>
 <defs>
  <clipPath id="peac73e7b1a">
   <rect x="33.707196" y="7.2" width="212.292324" height="136.319296"/>
  </clipPath>
 </defs>
</svg>
