<?xml version="1.0" encoding="utf-8" standalone="no"?>
<!DOCTYPE svg PUBLIC "-//W3C//DTD SVG 1.1//EN"
  "http://www.w3.org/Graphics/SVG/1.1/DTD/svg11.dtd">
<svg xmlns:xlink="http://www.w3.org/1999/xlink" width="253.19952pt" height="238.79952pt" viewBox="0 0 253.19952 238.79952" xmlns="http://www.w3.org/2000/svg" version="1.1">
 <metadata>
  <rdf:RDF xmlns:dc="http://purl.org/dc/elements/1.1/" xmlns:cc="http://creativecommons.org/ns#" xmlns:rdf="http://www.w3.org/1999/02/22-rdf-syntax-ns#">
   <cc:Work>
    <dc:type rdf:resource="http://purl.org/dc/dcmitype/StillImage"/>
    <dc:date>1980-01-01T00:00:00+00:00</dc:date>
    <dc:format>image/svg+xml</dc:format>
    <dc:creator>
     <cc:Agent>
      <dc:title>Matplotlib v3.6.2, https://matplotlib.org/</dc:title>
     </cc:Agent>
    </dc:creator>
   </cc:Work>
  </rdf:RDF>
 </metadata>
 <defs>
  <style type="text/css">*{stroke-linejoin: round; stroke-linecap: butt}</style>
 </defs>
 <g id="figure_1">
  <g id="patch_1">
   <path d="M 0 238.79952 
L 253.19952 238.79952 
L 253.19952 0 
L 0 0 
z
" style="fill: #ffffff"/>
  </g>
  <g id="axes_1">
   <g id="patch_2">
    <path d="M 33.707196 202.559296 
L 245.99952 202.559296 
L 245.99952 7.2 
L 33.707196 7.2 
z
" style="fill: #ffffff"/>
   </g>
   <g id="matplotlib.axis_1">
    <g id="xtick_1">
     <g id="line2d_1">
      <defs>
       <path id="mb5d2879b10" d="M 0 0 
L 0 3.5 
" style="stroke: #000000; stroke-width: 0.8"/>
      </defs>
      <g>
       <use xlink:href="#mb5d2879b10" x="43.356847" y="202.559296" style="stroke: #000000; stroke-width: 0.8"/>
      </g>
     </g>
     <g id="text_1">
      <!-- $\mathdefault{0}$ -->
      <g transform="translate(41.239756 217.194098) scale(0.08 -0.08)">
       <defs>
        <path id="CMR17-30" d="M 2688 2025 
C 2688 2416 2682 3080 2413 3591 
C 2176 4039 1798 4198 1466 4198 
C 1158 4198 768 4058 525 3597 
C 269 3118 243 2524 243 2025 
C 243 1661 250 1106 448 619 
C 723 -39 1216 -128 1466 -128 
C 1760 -128 2208 -7 2470 600 
C 2662 1042 2688 1559 2688 2025 
z
M 1466 -26 
C 1056 -26 813 325 723 812 
C 653 1188 653 1738 653 2096 
C 653 2588 653 2997 736 3387 
C 858 3929 1216 4096 1466 4096 
C 1728 4096 2067 3923 2189 3400 
C 2272 3036 2278 2607 2278 2096 
C 2278 1680 2278 1169 2202 792 
C 2067 95 1690 -26 1466 -26 
z
" transform="scale(0.015625)"/>
       </defs>
       <use xlink:href="#CMR17-30" transform="scale(0.996264)"/>
      </g>
     </g>
    </g>
    <g id="xtick_2">
     <g id="line2d_2">
      <g>
       <use xlink:href="#mb5d2879b10" x="70.161434" y="202.559296" style="stroke: #000000; stroke-width: 0.8"/>
      </g>
     </g>
     <g id="text_2">
      <!-- $\mathdefault{25}$ -->
      <g transform="translate(65.927251 217.194098) scale(0.08 -0.08)">
       <defs>
        <path id="CMR17-32" d="M 2669 989 
L 2554 989 
C 2490 536 2438 459 2413 420 
C 2381 369 1920 369 1830 369 
L 602 369 
C 832 619 1280 1072 1824 1597 
C 2214 1967 2669 2402 2669 3035 
C 2669 3790 2067 4224 1395 4224 
C 691 4224 262 3604 262 3030 
C 262 2780 448 2748 525 2748 
C 589 2748 781 2787 781 3010 
C 781 3207 614 3264 525 3264 
C 486 3264 448 3258 422 3245 
C 544 3790 915 4058 1306 4058 
C 1862 4058 2227 3617 2227 3035 
C 2227 2479 1901 2000 1536 1584 
L 262 146 
L 262 0 
L 2515 0 
L 2669 989 
z
" transform="scale(0.015625)"/>
        <path id="CMR17-35" d="M 730 3692 
C 794 3666 1056 3584 1325 3584 
C 1920 3584 2246 3911 2432 4100 
C 2432 4157 2432 4192 2394 4192 
C 2387 4192 2374 4192 2323 4163 
C 2099 4058 1837 3973 1517 3973 
C 1325 3973 1037 3999 723 4139 
C 653 4171 640 4171 634 4171 
C 602 4171 595 4164 595 4037 
L 595 2203 
C 595 2089 595 2057 659 2057 
C 691 2057 704 2070 736 2114 
C 941 2401 1222 2522 1542 2522 
C 1766 2522 2246 2382 2246 1289 
C 2246 1085 2246 715 2054 421 
C 1894 159 1645 25 1370 25 
C 947 25 518 320 403 814 
C 429 807 480 795 506 795 
C 589 795 749 840 749 1038 
C 749 1210 627 1280 506 1280 
C 358 1280 262 1190 262 1011 
C 262 454 704 -128 1382 -128 
C 2042 -128 2669 440 2669 1264 
C 2669 2030 2170 2624 1549 2624 
C 1222 2624 947 2503 730 2274 
L 730 3692 
z
" transform="scale(0.015625)"/>
       </defs>
       <use xlink:href="#CMR17-32" transform="scale(0.996264)"/>
       <use xlink:href="#CMR17-35" transform="translate(45.690477 0) scale(0.996264)"/>
      </g>
     </g>
    </g>
    <g id="xtick_3">
     <g id="line2d_3">
      <g>
       <use xlink:href="#mb5d2879b10" x="96.96602" y="202.559296" style="stroke: #000000; stroke-width: 0.8"/>
      </g>
     </g>
     <g id="text_3">
      <!-- $\mathdefault{50}$ -->
      <g transform="translate(92.731837 217.194098) scale(0.08 -0.08)">
       <use xlink:href="#CMR17-35" transform="scale(0.996264)"/>
       <use xlink:href="#CMR17-30" transform="translate(45.690477 0) scale(0.996264)"/>
      </g>
     </g>
    </g>
    <g id="xtick_4">
     <g id="line2d_4">
      <g>
       <use xlink:href="#mb5d2879b10" x="123.770606" y="202.559296" style="stroke: #000000; stroke-width: 0.8"/>
      </g>
     </g>
     <g id="text_4">
      <!-- $\mathdefault{75}$ -->
      <g transform="translate(119.536423 217.194098) scale(0.08 -0.08)">
       <defs>
        <path id="CMR17-37" d="M 2886 3941 
L 2886 4081 
L 1382 4081 
C 634 4081 621 4165 595 4288 
L 480 4288 
L 294 3094 
L 410 3094 
C 429 3215 474 3540 550 3661 
C 589 3712 1062 3712 1171 3712 
L 2579 3712 
L 1869 2661 
C 1395 1954 1069 999 1069 165 
C 1069 89 1069 -128 1299 -128 
C 1530 -128 1530 89 1530 171 
L 1530 465 
C 1530 1508 1709 2196 2003 2636 
L 2886 3941 
z
" transform="scale(0.015625)"/>
       </defs>
       <use xlink:href="#CMR17-37" transform="scale(0.996264)"/>
       <use xlink:href="#CMR17-35" transform="translate(45.690477 0) scale(0.996264)"/>
      </g>
     </g>
    </g>
    <g id="xtick_5">
     <g id="line2d_5">
      <g>
       <use xlink:href="#mb5d2879b10" x="150.575193" y="202.559296" style="stroke: #000000; stroke-width: 0.8"/>
      </g>
     </g>
     <g id="text_5">
      <!-- $\mathdefault{100}$ -->
      <g transform="translate(144.223918 217.194098) scale(0.08 -0.08)">
       <defs>
        <path id="CMR17-31" d="M 1702 4058 
C 1702 4192 1696 4192 1606 4192 
C 1357 3916 979 3827 621 3827 
C 602 3827 570 3827 563 3808 
C 557 3795 557 3782 557 3648 
C 755 3648 1088 3686 1344 3839 
L 1344 461 
C 1344 236 1331 160 781 160 
L 589 160 
L 589 0 
C 896 0 1216 0 1523 0 
C 1830 0 2150 0 2458 0 
L 2458 160 
L 2266 160 
C 1715 160 1702 230 1702 458 
L 1702 4058 
z
" transform="scale(0.015625)"/>
       </defs>
       <use xlink:href="#CMR17-31" transform="scale(0.996264)"/>
       <use xlink:href="#CMR17-30" transform="translate(45.690477 0) scale(0.996264)"/>
       <use xlink:href="#CMR17-30" transform="translate(91.380954 0) scale(0.996264)"/>
      </g>
     </g>
    </g>
    <g id="xtick_6">
     <g id="line2d_6">
      <g>
       <use xlink:href="#mb5d2879b10" x="177.379779" y="202.559296" style="stroke: #000000; stroke-width: 0.8"/>
      </g>
     </g>
     <g id="text_6">
      <!-- $\mathdefault{125}$ -->
      <g transform="translate(171.028505 217.194098) scale(0.08 -0.08)">
       <use xlink:href="#CMR17-31" transform="scale(0.996264)"/>
       <use xlink:href="#CMR17-32" transform="translate(45.690477 0) scale(0.996264)"/>
       <use xlink:href="#CMR17-35" transform="translate(91.380954 0) scale(0.996264)"/>
      </g>
     </g>
    </g>
    <g id="xtick_7">
     <g id="line2d_7">
      <g>
       <use xlink:href="#mb5d2879b10" x="204.184365" y="202.559296" style="stroke: #000000; stroke-width: 0.8"/>
      </g>
     </g>
     <g id="text_7">
      <!-- $\mathdefault{150}$ -->
      <g transform="translate(197.833091 217.194098) scale(0.08 -0.08)">
       <use xlink:href="#CMR17-31" transform="scale(0.996264)"/>
       <use xlink:href="#CMR17-35" transform="translate(45.690477 0) scale(0.996264)"/>
       <use xlink:href="#CMR17-30" transform="translate(91.380954 0) scale(0.996264)"/>
      </g>
     </g>
    </g>
    <g id="xtick_8">
     <g id="line2d_8">
      <g>
       <use xlink:href="#mb5d2879b10" x="230.988952" y="202.559296" style="stroke: #000000; stroke-width: 0.8"/>
      </g>
     </g>
     <g id="text_8">
      <!-- $\mathdefault{175}$ -->
      <g transform="translate(224.637677 217.194098) scale(0.08 -0.08)">
       <use xlink:href="#CMR17-31" transform="scale(0.996264)"/>
       <use xlink:href="#CMR17-37" transform="translate(45.690477 0) scale(0.996264)"/>
       <use xlink:href="#CMR17-35" transform="translate(91.380954 0) scale(0.996264)"/>
      </g>
     </g>
    </g>
    <g id="text_9">
     <!-- $\tau$ -->
     <g transform="translate(137.675756 229.662342) scale(0.1 -0.1)">
      <defs>
       <path id="CMMI12-1c" d="M 1837 2408 
L 2899 2408 
C 2982 2408 3194 2408 3194 2612 
C 3194 2752 3072 2752 2957 2752 
L 1197 2752 
C 1050 2752 832 2752 538 2440 
C 371 2255 166 1917 166 1879 
C 166 1841 198 1828 237 1828 
C 282 1828 288 1847 320 1885 
C 653 2408 986 2408 1146 2408 
L 1677 2408 
L 1011 223 
C 979 127 979 114 979 95 
C 979 25 1024 -64 1152 -64 
C 1350 -64 1382 108 1402 203 
L 1837 2408 
z
" transform="scale(0.015625)"/>
      </defs>
      <use xlink:href="#CMMI12-1c" transform="scale(0.996264)"/>
     </g>
    </g>
   </g>
   <g id="matplotlib.axis_2">
    <g id="ytick_1">
     <g id="line2d_9">
      <defs>
       <path id="m10ebee4e33" d="M 0 0 
L -3.5 0 
" style="stroke: #000000; stroke-width: 0.8"/>
      </defs>
      <g>
       <use xlink:href="#m10ebee4e33" x="33.707196" y="193.679328" style="stroke: #000000; stroke-width: 0.8"/>
      </g>
     </g>
     <g id="text_10">
      <!-- $\mathdefault{−1.0}$ -->
      <g transform="translate(7.2 196.446729) scale(0.08 -0.08)">
       <defs>
        <path id="CMSY10-0" d="M 4218 1472 
C 4326 1472 4442 1472 4442 1600 
C 4442 1728 4326 1728 4218 1728 
L 755 1728 
C 646 1728 531 1728 531 1600 
C 531 1472 646 1472 755 1472 
L 4218 1472 
z
" transform="scale(0.015625)"/>
        <path id="CMMI12-3a" d="M 1178 307 
C 1178 492 1024 619 870 619 
C 685 619 557 466 557 313 
C 557 128 710 0 864 0 
C 1050 0 1178 153 1178 307 
z
" transform="scale(0.015625)"/>
       </defs>
       <use xlink:href="#CMSY10-0" transform="scale(0.996264)"/>
       <use xlink:href="#CMR17-31" transform="translate(77.487468 0) scale(0.996264)"/>
       <use xlink:href="#CMMI12-3a" transform="translate(123.177945 0) scale(0.996264)"/>
       <use xlink:href="#CMR17-30" transform="translate(150.275122 0) scale(0.996264)"/>
      </g>
     </g>
    </g>
    <g id="ytick_2">
     <g id="line2d_10">
      <g>
       <use xlink:href="#m10ebee4e33" x="33.707196" y="158.363945" style="stroke: #000000; stroke-width: 0.8"/>
      </g>
     </g>
     <g id="text_11">
      <!-- $\mathdefault{−0.8}$ -->
      <g transform="translate(7.2 161.131346) scale(0.08 -0.08)">
       <defs>
        <path id="CMR17-38" d="M 1741 2264 
C 2144 2467 2554 2773 2554 3263 
C 2554 3841 1990 4179 1472 4179 
C 890 4179 378 3759 378 3180 
C 378 3021 416 2747 666 2505 
C 730 2442 998 2251 1171 2130 
C 883 1983 211 1634 211 934 
C 211 279 838 -128 1459 -128 
C 2144 -128 2720 362 2720 1010 
C 2720 1590 2330 1857 2074 2029 
L 1741 2264 
z
M 902 2822 
C 851 2854 595 3051 595 3351 
C 595 3739 998 4032 1459 4032 
C 1965 4032 2336 3676 2336 3262 
C 2336 2669 1670 2331 1638 2331 
C 1632 2331 1626 2331 1574 2370 
L 902 2822 
z
M 2080 1519 
C 2176 1449 2483 1240 2483 851 
C 2483 381 2010 25 1472 25 
C 890 25 448 438 448 940 
C 448 1443 838 1862 1280 2060 
L 2080 1519 
z
" transform="scale(0.015625)"/>
       </defs>
       <use xlink:href="#CMSY10-0" transform="scale(0.996264)"/>
       <use xlink:href="#CMR17-30" transform="translate(77.487468 0) scale(0.996264)"/>
       <use xlink:href="#CMMI12-3a" transform="translate(123.177945 0) scale(0.996264)"/>
       <use xlink:href="#CMR17-38" transform="translate(150.275122 0) scale(0.996264)"/>
      </g>
     </g>
    </g>
    <g id="ytick_3">
     <g id="line2d_11">
      <g>
       <use xlink:href="#m10ebee4e33" x="33.707196" y="123.048562" style="stroke: #000000; stroke-width: 0.8"/>
      </g>
     </g>
     <g id="text_12">
      <!-- $\mathdefault{−0.6}$ -->
      <g transform="translate(7.2 125.815963) scale(0.08 -0.08)">
       <defs>
        <path id="CMR17-36" d="M 678 2176 
C 678 3690 1395 4032 1811 4032 
C 1946 4032 2272 4009 2400 3776 
C 2298 3776 2106 3776 2106 3553 
C 2106 3381 2246 3323 2336 3323 
C 2394 3323 2566 3348 2566 3560 
C 2566 3954 2246 4179 1805 4179 
C 1043 4179 243 3390 243 1984 
C 243 253 966 -128 1478 -128 
C 2099 -128 2688 427 2688 1283 
C 2688 2081 2170 2662 1517 2662 
C 1126 2662 838 2407 678 1960 
L 678 2176 
z
M 1478 25 
C 691 25 691 1200 691 1436 
C 691 1896 909 2560 1504 2560 
C 1613 2560 1926 2560 2138 2120 
C 2253 1870 2253 1609 2253 1289 
C 2253 944 2253 690 2118 434 
C 1978 171 1773 25 1478 25 
z
" transform="scale(0.015625)"/>
       </defs>
       <use xlink:href="#CMSY10-0" transform="scale(0.996264)"/>
       <use xlink:href="#CMR17-30" transform="translate(77.487468 0) scale(0.996264)"/>
       <use xlink:href="#CMMI12-3a" transform="translate(123.177945 0) scale(0.996264)"/>
       <use xlink:href="#CMR17-36" transform="translate(150.275122 0) scale(0.996264)"/>
      </g>
     </g>
    </g>
    <g id="ytick_4">
     <g id="line2d_12">
      <g>
       <use xlink:href="#m10ebee4e33" x="33.707196" y="87.733179" style="stroke: #000000; stroke-width: 0.8"/>
      </g>
     </g>
     <g id="text_13">
      <!-- $\mathdefault{−0.4}$ -->
      <g transform="translate(7.2 90.50058) scale(0.08 -0.08)">
       <defs>
        <path id="CMR17-34" d="M 2150 4122 
C 2150 4256 2144 4256 2029 4256 
L 128 1254 
L 128 1088 
L 1779 1088 
L 1779 457 
C 1779 224 1766 160 1318 160 
L 1197 160 
L 1197 0 
C 1402 0 1747 0 1965 0 
C 2182 0 2528 0 2733 0 
L 2733 160 
L 2611 160 
C 2163 160 2150 224 2150 457 
L 2150 1088 
L 2803 1088 
L 2803 1254 
L 2150 1254 
L 2150 4122 
z
M 1798 3703 
L 1798 1254 
L 256 1254 
L 1798 3703 
z
" transform="scale(0.015625)"/>
       </defs>
       <use xlink:href="#CMSY10-0" transform="scale(0.996264)"/>
       <use xlink:href="#CMR17-30" transform="translate(77.487468 0) scale(0.996264)"/>
       <use xlink:href="#CMMI12-3a" transform="translate(123.177945 0) scale(0.996264)"/>
       <use xlink:href="#CMR17-34" transform="translate(150.275122 0) scale(0.996264)"/>
      </g>
     </g>
    </g>
    <g id="ytick_5">
     <g id="line2d_13">
      <g>
       <use xlink:href="#m10ebee4e33" x="33.707196" y="52.417797" style="stroke: #000000; stroke-width: 0.8"/>
      </g>
     </g>
     <g id="text_14">
      <!-- $\mathdefault{−0.2}$ -->
      <g transform="translate(7.2 55.185198) scale(0.08 -0.08)">
       <use xlink:href="#CMSY10-0" transform="scale(0.996264)"/>
       <use xlink:href="#CMR17-30" transform="translate(77.487468 0) scale(0.996264)"/>
       <use xlink:href="#CMMI12-3a" transform="translate(123.177945 0) scale(0.996264)"/>
       <use xlink:href="#CMR17-32" transform="translate(150.275122 0) scale(0.996264)"/>
      </g>
     </g>
    </g>
    <g id="ytick_6">
     <g id="line2d_14">
      <g>
       <use xlink:href="#m10ebee4e33" x="33.707196" y="17.102414" style="stroke: #000000; stroke-width: 0.8"/>
      </g>
     </g>
     <g id="text_15">
      <!-- $\mathdefault{0.0}$ -->
      <g transform="translate(13.786507 19.869815) scale(0.08 -0.08)">
       <use xlink:href="#CMR17-30" transform="scale(0.996264)"/>
       <use xlink:href="#CMMI12-3a" transform="translate(45.690477 0) scale(0.996264)"/>
       <use xlink:href="#CMR17-30" transform="translate(72.787654 0) scale(0.996264)"/>
      </g>
     </g>
    </g>
   </g>
   <g id="line2d_15">
    <path d="M 43.356847 193.679328 
L 43.421178 193.435563 
L 43.54984 191.538702 
L 43.807164 183.287913 
L 44.643467 152.391202 
L 44.965122 147.590127 
L 45.158115 146.806637 
L 45.222446 146.850689 
L 45.351108 147.342739 
L 45.608432 149.663566 
L 46.187412 158.20829 
L 46.70206 164.718463 
L 47.023715 166.842643 
L 47.281039 167.475362 
L 47.474032 167.532112 
L 48.053011 167.41253 
L 48.246004 167.749646 
L 48.503328 168.703601 
L 49.017976 171.833189 
L 49.661286 175.464146 
L 50.047272 176.488398 
L 50.368927 176.783063 
L 50.819244 176.84434 
L 55.837063 176.765599 
L 56.030056 176.545803 
L 56.223049 175.974661 
L 56.416042 174.748061 
L 56.673366 171.431495 
L 56.995021 163.53254 
L 57.509669 143.437181 
L 58.088648 122.889312 
L 58.538965 113.933354 
L 59.246606 105.054968 
L 60.661888 90.046468 
L 61.305198 85.299013 
L 62.913473 76.181627 
L 63.556784 73.797226 
L 65.036397 69.479677 
L 65.551045 68.124308 
L 66.194355 66.454926 
L 66.580341 65.986061 
L 67.094989 65.534785 
L 68.381609 63.543837 
L 69.153581 62.866517 
L 69.796891 61.928739 
L 70.054215 61.942187 
L 70.633194 62.142363 
L 71.598159 61.757783 
L 72.3058 61.582974 
L 72.756118 61.49529 
L 73.52809 61.048463 
L 74.1714 61.187131 
L 74.686048 60.884677 
L 75.136365 60.639813 
L 75.651013 60.709956 
L 76.294323 60.892637 
L 76.551647 60.445461 
L 77.130626 58.726636 
L 77.580943 56.556325 
L 78.159922 52.539105 
L 79.31788 44.372418 
L 79.768197 42.686621 
L 80.154183 41.965016 
L 80.411507 41.805501 
L 80.668831 41.932024 
L 80.990486 42.436582 
L 81.569466 43.906765 
L 82.212776 45.357041 
L 82.598762 45.73486 
L 83.049079 45.820469 
L 88.581545 45.761574 
L 89.031862 45.799038 
L 89.289186 46.070484 
L 89.54651 46.717885 
L 89.868165 48.374582 
L 90.254152 52.022523 
L 90.7688 59.55328 
L 93.277709 100.883701 
L 94.114012 109.281344 
L 95.078977 116.784338 
L 95.91528 121.654805 
L 96.687252 124.950209 
L 97.652217 128.108309 
L 99.196162 131.997614 
L 99.903803 133.325226 
L 100.482782 133.966457 
L 101.705071 134.906044 
L 102.734367 135.498914 
L 103.57067 135.976089 
L 104.149649 136.206834 
L 105.050283 136.523965 
L 106.915882 137.190187 
L 108.459827 137.177217 
L 108.717151 137.539303 
L 108.974475 138.305887 
L 109.29613 140.052867 
L 109.682116 143.514875 
L 111.290391 160.628448 
L 111.676377 162.113496 
L 112.255356 163.33743 
L 112.577011 164.307261 
L 113.027328 166.70389 
L 113.992293 172.218487 
L 114.378279 173.207149 
L 114.699934 173.500195 
L 115.150251 173.564793 
L 120.16807 173.492271 
L 120.361063 173.28148 
L 120.554056 172.723962 
L 120.747049 171.521177 
L 121.004373 168.268345 
L 121.326028 160.479752 
L 121.840676 140.5652 
L 122.419655 120.678914 
L 122.869972 112.350006 
L 123.899268 99.441954 
L 124.606909 92.308173 
L 125.829199 83.81285 
L 127.373143 75.079599 
L 129.303073 68.636555 
L 129.75339 67.762669 
L 130.654024 66.513176 
L 131.68332 64.16143 
L 132.262299 63.731183 
L 133.484588 62.915316 
L 133.934905 62.17549 
L 134.385222 61.571448 
L 134.771209 61.363421 
L 135.221526 61.180183 
L 136.12216 60.620753 
L 136.572477 60.509164 
L 136.958463 60.642351 
L 137.40878 60.866428 
L 137.666104 60.732823 
L 138.373745 60.275668 
L 139.017055 60.169181 
L 139.467372 60.170584 
L 140.110682 59.769112 
L 140.689661 60.008601 
L 140.946985 59.642135 
L 141.525964 58.098973 
L 141.91195 56.533309 
L 142.426598 53.319424 
L 143.841881 43.745739 
L 144.292198 42.462973 
L 144.613853 42.082876 
L 144.871177 42.054219 
L 145.128501 42.292089 
L 145.514487 43.098842 
L 146.672445 45.864298 
L 147.058431 46.123276 
L 147.701741 46.159748 
L 153.555863 46.26832 
L 153.813187 46.789799 
L 154.070511 47.872849 
L 154.392166 50.279358 
L 154.842483 55.692158 
L 155.550124 67.663002 
L 156.901075 91.116995 
L 157.801709 102.501583 
L 158.573681 109.795835 
L 159.538646 116.71433 
L 160.632273 122.935452 
L 161.404245 126.099999 
L 162.30488 128.963519 
L 163.334176 131.426511 
L 163.977486 132.565608 
L 165.135444 134.006076 
L 167.065374 135.648516 
L 167.773015 135.912663 
L 168.673649 136.427162 
L 169.574283 136.58192 
L 170.153262 136.739609 
L 171.182559 136.993713 
L 172.53351 137.183579 
L 172.919496 137.510478 
L 173.17682 138.003912 
L 173.498475 139.278247 
L 173.884461 142.118258 
L 174.399109 148.042243 
L 175.299743 158.5964 
L 175.75006 161.444215 
L 176.136046 162.499548 
L 176.843687 163.873182 
L 177.229673 165.646526 
L 178.516293 172.733529 
L 178.837948 173.282003 
L 179.159603 173.450712 
L 179.995907 173.473967 
L 184.563408 173.36667 
L 184.756401 173.089432 
L 184.949394 172.39735 
L 185.206718 170.246001 
L 185.464042 165.849615 
L 185.785697 156.340221 
L 187.007986 114.929561 
L 187.586965 106.877405 
L 188.744924 94.129377 
L 189.967213 84.450901 
L 190.610523 80.571406 
L 192.34746 72.6264 
L 193.312425 69.249559 
L 193.891404 68.005647 
L 194.9207 66.264589 
L 195.499679 65.103242 
L 198.07292 61.753633 
L 198.394575 61.664511 
L 199.809857 61.690067 
L 200.195843 61.380002 
L 200.581829 61.151673 
L 200.903484 61.299093 
L 201.225139 61.403155 
L 201.546794 61.154544 
L 201.93278 60.899665 
L 202.254435 60.987699 
L 202.640421 61.08257 
L 203.541055 60.843985 
L 203.927041 61.174992 
L 204.313027 61.467519 
L 204.50602 61.389076 
L 204.827675 60.926732 
L 205.470985 59.636349 
L 205.921302 57.969585 
L 206.500282 54.862776 
L 207.207923 49.629999 
L 207.979895 44.228929 
L 208.365881 42.732735 
L 208.687536 42.246573 
L 209.009191 42.160778 
L 209.330846 42.325883 
L 209.652501 42.775114 
L 210.102818 43.879278 
L 210.87479 45.77109 
L 211.260776 46.165332 
L 211.711093 46.256847 
L 217.822539 46.37234 
L 218.079863 46.755165 
L 218.337187 47.595741 
L 218.658842 49.548436 
L 219.044828 53.632018 
L 219.623807 62.886816 
L 221.553737 96.002082 
L 222.325709 104.895198 
L 223.226343 112.850489 
L 224.126978 118.933723 
L 225.091943 123.920118 
L 225.992577 127.334558 
L 226.893211 129.969399 
L 227.600852 131.482233 
L 228.437155 132.81361 
L 229.530782 134.080953 
L 230.624409 135.076868 
L 231.396381 135.687358 
L 232.425677 136.16097 
L 233.326312 136.366151 
L 234.098284 136.470671 
L 236.156876 136.888923 
L 236.349869 136.852457 
L 236.349869 136.852457 
" clip-path="url(#pbb535d3dd9)" style="fill: none; stroke: #1f77b4; stroke-width: 0.5; stroke-linecap: square"/>
   </g>
   <g id="line2d_16">
    <path d="M 43.356847 17.102414 
L 44.19315 16.785021 
L 45.158115 16.710521 
L 49.339631 16.827708 
L 52.942167 16.847805 
L 57.188014 16.74567 
L 58.667627 16.629428 
L 69.475236 16.599198 
L 110.003771 16.710163 
L 115.021589 16.827969 
L 121.583352 16.726095 
L 123.127296 16.625648 
L 140.946985 16.59832 
L 172.404848 16.678026 
L 177.615659 16.795669 
L 181.47552 16.827609 
L 185.97869 16.718655 
L 187.522634 16.624958 
L 209.137853 16.586317 
L 236.349869 16.67763 
L 236.349869 16.67763 
" clip-path="url(#pbb535d3dd9)" style="fill: none; stroke: #ff7f0e; stroke-width: 0.5; stroke-linecap: square"/>
   </g>
   <g id="line2d_17">
    <path d="M 43.356847 17.102414 
L 44.064488 17.194915 
L 45.351108 17.067671 
L 52.620512 17.106708 
L 54.228787 17.092414 
L 55.901394 17.111838 
L 56.737697 16.91278 
L 57.509669 16.72851 
L 57.831324 16.920797 
L 58.21731 17.495961 
L 58.731958 18.23527 
L 58.924951 18.20156 
L 59.182275 17.862753 
L 59.761254 16.987595 
L 60.018578 16.919598 
L 61.305198 17.088956 
L 61.884177 16.959295 
L 62.334494 17.096886 
L 62.849142 17.254441 
L 63.749777 17.213442 
L 66.451679 17.015764 
L 67.15932 17.143522 
L 67.80263 16.930714 
L 68.960588 16.275802 
L 69.282243 16.464077 
L 70.37587 17.395136 
L 70.761856 17.271495 
L 72.112807 16.607467 
L 72.434463 16.793861 
L 73.52809 17.713987 
L 73.849745 17.783155 
L 74.1714 17.628096 
L 74.81471 17.005868 
L 75.329358 16.480758 
L 75.651013 16.516175 
L 75.972668 16.791881 
L 76.808971 17.619238 
L 77.38795 17.882082 
L 77.838267 17.863247 
L 78.352915 17.56067 
L 79.124887 17.13299 
L 79.832528 17.01167 
L 80.475838 16.927836 
L 81.376473 16.764337 
L 82.212776 16.937022 
L 84.207037 17.529953 
L 84.979009 17.458389 
L 86.008305 17.107902 
L 87.294925 16.702974 
L 88.066897 16.693836 
L 88.774538 16.905225 
L 90.189821 17.463266 
L 91.283448 17.387243 
L 92.119751 17.188417 
L 93.406371 16.878477 
L 94.049681 16.937257 
L 95.207639 17.16825 
L 95.722287 17.151994 
L 96.429928 17.082638 
L 97.2019 17.020864 
L 99.775141 16.480216 
L 100.611444 16.769089 
L 101.383416 17.195615 
L 102.541374 17.880916 
L 103.184684 18.04424 
L 105.822255 17.727666 
L 107.945178 17.281893 
L 108.845813 17.174663 
L 109.424792 17.265234 
L 110.389757 17.464019 
L 111.419053 17.368598 
L 115.021589 17.092877 
L 116.050885 17.209912 
L 117.144513 17.02775 
L 117.916485 17.010711 
L 119.846415 17.157895 
L 121.197366 17.013202 
L 121.905007 17.22635 
L 122.676979 17.438261 
L 123.706275 17.596955 
L 124.092261 17.562283 
L 125.31455 16.881767 
L 125.829199 16.652016 
L 126.215185 16.709666 
L 126.601171 17.013103 
L 127.437474 17.793956 
L 127.694798 17.770988 
L 128.080784 17.445808 
L 128.659763 16.986043 
L 128.917087 17.039754 
L 129.238742 17.391903 
L 129.75339 17.979967 
L 130.010714 17.943713 
L 130.268038 17.609086 
L 131.104341 16.318582 
L 131.361665 16.358586 
L 131.68332 16.771748 
L 132.262299 17.641574 
L 132.519623 17.692517 
L 132.776947 17.493467 
L 133.484588 16.721874 
L 133.999236 16.635024 
L 134.385222 16.786116 
L 135.028533 17.14921 
L 135.543181 17.107704 
L 135.993498 17.14747 
L 136.701139 17.249688 
L 137.537442 17.398753 
L 138.05209 17.467146 
L 138.373745 17.262751 
L 138.824062 16.68768 
L 139.33871 16.108781 
L 139.596034 16.111661 
L 139.917689 16.421657 
L 140.689661 17.36331 
L 141.011316 17.378391 
L 141.783288 17.025354 
L 142.619591 16.702147 
L 143.520225 16.784318 
L 144.356529 16.690897 
L 145.257163 16.587251 
L 145.836142 16.795099 
L 147.444417 17.467992 
L 148.216389 17.537127 
L 149.052692 17.37012 
L 151.49727 16.664357 
L 152.269242 16.793844 
L 153.234208 17.216199 
L 154.585159 17.794923 
L 155.099807 17.47601 
L 155.93611 16.942266 
L 156.643751 16.793331 
L 157.22273 16.925772 
L 158.638012 17.390594 
L 159.79597 17.569593 
L 160.632273 17.351269 
L 161.275583 17.24385 
L 162.240549 17.092228 
L 164.041817 16.792187 
L 165.071113 17.118733 
L 165.714423 17.187571 
L 168.609318 17.410316 
L 169.252628 17.526568 
L 169.960269 17.648139 
L 171.697207 17.5925 
L 172.404848 17.460005 
L 175.299743 17.201813 
L 176.457701 16.693112 
L 176.843687 16.775051 
L 177.422666 17.223732 
L 177.937314 17.506854 
L 178.3233 17.466148 
L 178.837948 17.132653 
L 179.54559 16.702222 
L 179.931576 16.713435 
L 180.381893 16.964496 
L 181.282527 17.513816 
L 181.668513 17.473452 
L 182.183161 17.150657 
L 182.890802 16.708344 
L 183.276788 16.706742 
L 183.727105 16.947414 
L 184.69207 17.544971 
L 185.142387 17.507124 
L 185.850028 17.172828 
L 186.879324 16.636837 
L 187.329641 16.604755 
L 187.779958 16.851386 
L 188.230276 17.000837 
L 188.680593 16.842025 
L 189.516896 16.55043 
L 189.77422 16.675844 
L 190.160206 17.204591 
L 190.674854 17.831319 
L 190.932178 17.88025 
L 191.253833 17.672931 
L 191.70415 17.042568 
L 192.154467 16.551032 
L 192.411791 16.535345 
L 192.669115 16.735125 
L 193.376756 17.441421 
L 193.698411 17.390507 
L 194.148728 17.056412 
L 194.9207 16.462944 
L 195.178024 16.525362 
L 195.499679 16.845209 
L 196.271651 17.752282 
L 196.593306 17.745784 
L 196.914961 17.450972 
L 197.558272 16.672986 
L 197.815596 16.7074 
L 198.137251 17.017285 
L 199.037885 18.025986 
L 199.35954 18.078214 
L 199.681195 17.916999 
L 200.195843 17.315781 
L 200.581829 16.981655 
L 200.839153 17.009772 
L 201.997111 17.478427 
L 202.57609 17.360881 
L 203.283731 16.90383 
L 203.734048 16.729351 
L 204.184365 16.778491 
L 204.570351 17.093845 
L 205.14933 17.579878 
L 205.535316 17.619065 
L 205.985634 17.356572 
L 206.886268 16.76747 
L 207.336585 16.83333 
L 207.979895 16.975027 
L 208.430212 16.746932 
L 209.266515 16.274048 
L 209.716832 16.253188 
L 210.295811 16.530262 
L 212.483065 17.72011 
L 213.126375 17.758094 
L 213.769685 17.56703 
L 214.798981 16.973946 
L 215.763947 16.507829 
L 216.407257 16.439185 
L 217.179229 16.623532 
L 218.208525 17.108679 
L 219.430814 17.711004 
L 219.881131 17.803846 
L 220.653103 17.661448 
L 223.933985 16.589216 
L 224.384302 16.767147 
L 226.056908 17.563379 
L 226.764549 17.729758 
L 227.407859 17.665551 
L 228.630148 17.207291 
L 229.595113 16.823077 
L 230.367085 16.70163 
L 231.139057 16.864118 
L 233.19765 17.227907 
L 234.419939 17.296177 
L 235.12758 17.200021 
L 235.963883 17.152091 
L 236.349869 17.334319 
L 236.349869 17.334319 
" clip-path="url(#pbb535d3dd9)" style="fill: none; stroke: #2ca02c; stroke-width: 0.5; stroke-linecap: square"/>
   </g>
   <g id="patch_3">
    <path d="M 33.707196 202.559296 
L 33.707196 7.2 
" style="fill: none; stroke: #000000; stroke-width: 0.8; stroke-linejoin: miter; stroke-linecap: square"/>
   </g>
   <g id="patch_4">
    <path d="M 245.99952 202.559296 
L 245.99952 7.2 
" style="fill: none; stroke: #000000; stroke-width: 0.8; stroke-linejoin: miter; stroke-linecap: square"/>
   </g>
   <g id="patch_5">
    <path d="M 33.707196 202.559296 
L 245.99952 202.559296 
" style="fill: none; stroke: #000000; stroke-width: 0.8; stroke-linejoin: miter; stroke-linecap: square"/>
   </g>
   <g id="patch_6">
    <path d="M 33.707196 7.2 
L 245.99952 7.2 
" style="fill: none; stroke: #000000; stroke-width: 0.8; stroke-linejoin: miter; stroke-linecap: square"/>
   </g>
   <g id="legend_1">
    <g id="patch_7">
     <path d="M 193.792605 198.059296 
L 239.69952 198.059296 
Q 241.49952 198.059296 241.49952 196.259296 
L 241.49952 156.760168 
Q 241.49952 154.960168 239.69952 154.960168 
L 193.792605 154.960168 
Q 191.992605 154.960168 191.992605 156.760168 
L 191.992605 196.259296 
Q 191.992605 198.059296 193.792605 198.059296 
z
" style="fill: #ffffff; opacity: 0.8; stroke: #cccccc; stroke-width: 0.24; stroke-linejoin: miter"/>
    </g>
    <g id="line2d_18">
     <path d="M 195.592605 162.13495 
L 204.592605 162.13495 
L 213.592605 162.13495 
" style="fill: none; stroke: #1f77b4; stroke-width: 0.5; stroke-linecap: square"/>
    </g>
    <g id="text_16">
     <!-- $\langle \sigma_z\rangle$ -->
     <g transform="translate(220.792605 165.28495) scale(0.09 -0.09)">
      <defs>
       <path id="CMSY10-68" d="M 2099 4557 
C 2131 4627 2131 4640 2131 4672 
C 2131 4742 2074 4800 2003 4800 
C 1946 4800 1901 4768 1856 4653 
L 736 1715 
C 723 1677 704 1638 704 1600 
C 704 1581 704 1568 736 1491 
L 1856 -1446 
C 1882 -1517 1914 -1600 2003 -1600 
C 2074 -1600 2131 -1542 2131 -1472 
C 2131 -1453 2131 -1440 2099 -1370 
L 966 1600 
L 2099 4557 
z
" transform="scale(0.015625)"/>
       <path id="CMMI12-1b" d="M 3251 2408 
C 3334 2408 3546 2408 3546 2612 
C 3546 2752 3424 2752 3309 2752 
L 1894 2752 
C 934 2752 243 1686 243 932 
C 243 390 595 -64 1171 -64 
C 1926 -64 2752 747 2752 1705 
C 2752 1954 2694 2196 2541 2408 
L 3251 2408 
z
M 1178 64 
C 851 64 614 313 614 754 
C 614 1137 845 2408 1786 2408 
C 2061 2408 2368 2274 2368 1781 
C 2368 1558 2266 1021 2042 652 
C 1811 275 1466 64 1178 64 
z
" transform="scale(0.015625)"/>
       <path id="CMMI12-7a" d="M 813 486 
C 1088 803 1312 1004 1632 1296 
C 2016 1632 2182 1793 2272 1891 
C 2720 2338 2944 2713 2944 2764 
C 2944 2816 2893 2816 2880 2816 
C 2835 2816 2822 2793 2790 2750 
C 2630 2494 2477 2367 2310 2367 
C 2176 2367 2106 2421 1984 2565 
C 1850 2715 1741 2816 1555 2816 
C 1088 2816 806 2257 806 2128 
C 806 2108 813 2068 870 2068 
C 922 2068 928 2091 947 2133 
C 1056 2372 1363 2414 1485 2414 
C 1619 2414 1747 2376 1882 2327 
C 2125 2240 2227 2240 2291 2240 
C 2336 2240 2362 2240 2394 2246 
C 2182 1994 1837 1683 1549 1418 
L 902 816 
C 512 415 275 33 275 -12 
C 275 -51 307 -64 346 -64 
C 384 -64 390 -57 435 14 
C 538 163 742 384 979 384 
C 1114 384 1178 342 1306 193 
C 1427 61 1536 -64 1741 -64 
C 2368 -64 2726 732 2726 876 
C 2726 903 2720 942 2656 942 
C 2605 942 2598 917 2579 855 
C 2438 488 2061 338 1811 338 
C 1677 338 1549 376 1414 425 
C 1158 512 1088 512 1005 512 
C 941 512 870 512 813 486 
z
" transform="scale(0.015625)"/>
       <path id="CMSY10-69" d="M 1747 1491 
C 1779 1568 1779 1581 1779 1600 
C 1779 1619 1779 1632 1747 1709 
L 627 4653 
C 589 4762 550 4800 480 4800 
C 410 4800 352 4742 352 4672 
C 352 4653 352 4640 384 4570 
L 1517 1600 
L 384 -1357 
C 352 -1427 352 -1440 352 -1472 
C 352 -1542 410 -1600 480 -1600 
C 563 -1600 589 -1536 614 -1472 
L 1747 1491 
z
" transform="scale(0.015625)"/>
      </defs>
      <use xlink:href="#CMSY10-68" transform="scale(0.996264)"/>
      <use xlink:href="#CMMI12-1b" transform="translate(38.743734 0) scale(0.996264)"/>
      <use xlink:href="#CMMI12-7a" transform="translate(94.189195 -14.943915) scale(0.697382)"/>
      <use xlink:href="#CMSY10-69" transform="translate(129.51575 0) scale(0.996264)"/>
     </g>
    </g>
    <g id="line2d_19">
     <path d="M 195.592605 175.601326 
L 204.592605 175.601326 
L 213.592605 175.601326 
" style="fill: none; stroke: #ff7f0e; stroke-width: 0.5; stroke-linecap: square"/>
    </g>
    <g id="text_17">
     <!-- $\langle \sigma_x\rangle$ -->
     <g transform="translate(220.792605 178.751326) scale(0.09 -0.09)">
      <defs>
       <path id="CMMI12-78" d="M 3034 2606 
C 2829 2567 2752 2414 2752 2293 
C 2752 2139 2874 2088 2963 2088 
C 3155 2088 3290 2254 3290 2427 
C 3290 2695 2982 2816 2714 2816 
C 2323 2816 2106 2433 2048 2312 
C 1901 2816 1504 2816 1389 2816 
C 736 2816 390 1980 390 1839 
C 390 1814 416 1782 461 1782 
C 512 1782 525 1820 538 1846 
C 755 2555 1184 2689 1370 2689 
C 1658 2689 1715 2420 1715 2267 
C 1715 2127 1677 1980 1600 1673 
L 1382 798 
C 1286 415 1101 64 762 64 
C 730 64 570 64 435 147 
C 666 192 717 383 717 460 
C 717 588 621 664 499 664 
C 346 664 179 530 179 326 
C 179 57 480 -64 755 -64 
C 1062 -64 1280 179 1414 441 
C 1517 64 1837 -64 2074 -64 
C 2726 -64 3072 773 3072 913 
C 3072 945 3046 971 3008 971 
C 2950 971 2944 939 2925 888 
C 2752 326 2381 64 2093 64 
C 1869 64 1747 230 1747 492 
C 1747 632 1773 734 1875 1156 
L 2099 2024 
C 2195 2408 2413 2689 2707 2689 
C 2720 2689 2899 2689 3034 2606 
z
" transform="scale(0.015625)"/>
      </defs>
      <use xlink:href="#CMSY10-68" transform="scale(0.996264)"/>
      <use xlink:href="#CMMI12-1b" transform="translate(38.743734 0) scale(0.996264)"/>
      <use xlink:href="#CMMI12-78" transform="translate(94.189195 -14.943915) scale(0.697382)"/>
      <use xlink:href="#CMSY10-69" transform="translate(133.490986 0) scale(0.996264)"/>
     </g>
    </g>
    <g id="line2d_20">
     <path d="M 195.592605 189.067702 
L 204.592605 189.067702 
L 213.592605 189.067702 
" style="fill: none; stroke: #2ca02c; stroke-width: 0.5; stroke-linecap: square"/>
    </g>
    <g id="text_18">
     <!-- $\langle \sigma_y\rangle$ -->
     <g transform="translate(220.792605 192.217702) scale(0.09 -0.09)">
      <defs>
       <path id="CMMI12-79" d="M 1683 -700 
C 1510 -939 1261 -1152 947 -1152 
C 870 -1152 563 -1152 467 -889 
C 486 -895 518 -895 531 -895 
C 723 -895 851 -729 851 -582 
C 851 -435 730 -384 634 -384 
C 531 -384 307 -458 307 -759 
C 307 -1071 582 -1286 947 -1286 
C 1587 -1286 2234 -700 2413 6 
L 3040 2485 
C 3046 2517 3059 2556 3059 2594 
C 3059 2689 2982 2753 2886 2753 
C 2829 2753 2694 2727 2643 2535 
L 2170 658 
C 2138 543 2138 530 2086 460 
C 1958 281 1747 64 1440 64 
C 1082 64 1050 415 1050 588 
C 1050 952 1222 1443 1395 1903 
C 1466 2088 1504 2178 1504 2305 
C 1504 2574 1312 2816 998 2816 
C 410 2816 173 1890 173 1839 
C 173 1814 198 1782 243 1782 
C 301 1782 307 1807 333 1897 
C 486 2433 730 2689 979 2689 
C 1037 2689 1146 2689 1146 2478 
C 1146 2312 1075 2127 979 1884 
C 666 1047 666 837 666 683 
C 666 77 1101 -64 1421 -64 
C 1606 -64 1837 -6 2061 230 
L 2067 224 
C 1971 -147 1907 -392 1683 -700 
z
" transform="scale(0.015625)"/>
      </defs>
      <use xlink:href="#CMSY10-68" transform="scale(0.996264)"/>
      <use xlink:href="#CMMI12-1b" transform="translate(38.743734 0) scale(0.996264)"/>
      <use xlink:href="#CMMI12-79" transform="translate(94.189195 -14.943915) scale(0.697382)"/>
      <use xlink:href="#CMSY10-69" transform="translate(130.484301 0) scale(0.996264)"/>
     </g>
    </g>
   </g>
  </g>
 </g>
 <defs>
  <clipPath id="pbb535d3dd9">
   <rect x="33.707196" y="7.2" width="212.292324" height="195.359296"/>
  </clipPath>
 </defs>
</svg>
