<?xml version="1.0" encoding="utf-8" standalone="no"?>
<!DOCTYPE svg PUBLIC "-//W3C//DTD SVG 1.1//EN"
  "http://www.w3.org/Graphics/SVG/1.1/DTD/svg11.dtd">
<svg xmlns:xlink="http://www.w3.org/1999/xlink" width="253.19952pt" height="179.75952pt" viewBox="0 0 253.19952 179.75952" xmlns="http://www.w3.org/2000/svg" version="1.1">
 <metadata>
  <rdf:RDF xmlns:dc="http://purl.org/dc/elements/1.1/" xmlns:cc="http://creativecommons.org/ns#" xmlns:rdf="http://www.w3.org/1999/02/22-rdf-syntax-ns#">
   <cc:Work>
    <dc:type rdf:resource="http://purl.org/dc/dcmitype/StillImage"/>
    <dc:date>1980-01-01T00:00:00+00:00</dc:date>
    <dc:format>image/svg+xml</dc:format>
    <dc:creator>
     <cc:Agent>
      <dc:title>Matplotlib v3.6.2, https://matplotlib.org/</dc:title>
     </cc:Agent>
    </dc:creator>
   </cc:Work>
  </rdf:RDF>
 </metadata>
 <defs>
  <style type="text/css">*{stroke-linejoin: round; stroke-linecap: butt}</style>
 </defs>
 <g id="figure_1">
  <g id="patch_1">
   <path d="M 0 179.75952 
L 253.19952 179.75952 
L 253.19952 0 
L 0 0 
z
" style="fill: #ffffff"/>
  </g>
  <g id="axes_1">
   <g id="patch_2">
    <path d="M 37.941379 143.519296 
L 245.99952 143.519296 
L 245.99952 19.620366 
L 37.941379 19.620366 
z
" style="fill: #ffffff"/>
   </g>
   <g id="matplotlib.axis_1">
    <g id="xtick_1">
     <g id="line2d_1">
      <defs>
       <path id="mbaf5a7321f" d="M 0 0 
L 0 3.5 
" style="stroke: #000000; stroke-width: 0.8"/>
      </defs>
      <g>
       <use xlink:href="#mbaf5a7321f" x="47.398567" y="143.519296" style="stroke: #000000; stroke-width: 0.8"/>
      </g>
     </g>
     <g id="text_1">
      <!-- $\mathdefault{0}$ -->
      <g transform="translate(45.281476 158.154098) scale(0.08 -0.08)">
       <defs>
        <path id="CMR17-30" d="M 2688 2025 
C 2688 2416 2682 3080 2413 3591 
C 2176 4039 1798 4198 1466 4198 
C 1158 4198 768 4058 525 3597 
C 269 3118 243 2524 243 2025 
C 243 1661 250 1106 448 619 
C 723 -39 1216 -128 1466 -128 
C 1760 -128 2208 -7 2470 600 
C 2662 1042 2688 1559 2688 2025 
z
M 1466 -26 
C 1056 -26 813 325 723 812 
C 653 1188 653 1738 653 2096 
C 653 2588 653 2997 736 3387 
C 858 3929 1216 4096 1466 4096 
C 1728 4096 2067 3923 2189 3400 
C 2272 3036 2278 2607 2278 2096 
C 2278 1680 2278 1169 2202 792 
C 2067 95 1690 -26 1466 -26 
z
" transform="scale(0.015625)"/>
       </defs>
       <use xlink:href="#CMR17-30" transform="scale(0.996264)"/>
      </g>
     </g>
    </g>
    <g id="xtick_2">
     <g id="line2d_2">
      <g>
       <use xlink:href="#mbaf5a7321f" x="73.668535" y="143.519296" style="stroke: #000000; stroke-width: 0.8"/>
      </g>
     </g>
     <g id="text_2">
      <!-- $\mathdefault{25}$ -->
      <g transform="translate(69.434352 158.154098) scale(0.08 -0.08)">
       <defs>
        <path id="CMR17-32" d="M 2669 989 
L 2554 989 
C 2490 536 2438 459 2413 420 
C 2381 369 1920 369 1830 369 
L 602 369 
C 832 619 1280 1072 1824 1597 
C 2214 1967 2669 2402 2669 3035 
C 2669 3790 2067 4224 1395 4224 
C 691 4224 262 3604 262 3030 
C 262 2780 448 2748 525 2748 
C 589 2748 781 2787 781 3010 
C 781 3207 614 3264 525 3264 
C 486 3264 448 3258 422 3245 
C 544 3790 915 4058 1306 4058 
C 1862 4058 2227 3617 2227 3035 
C 2227 2479 1901 2000 1536 1584 
L 262 146 
L 262 0 
L 2515 0 
L 2669 989 
z
" transform="scale(0.015625)"/>
        <path id="CMR17-35" d="M 730 3692 
C 794 3666 1056 3584 1325 3584 
C 1920 3584 2246 3911 2432 4100 
C 2432 4157 2432 4192 2394 4192 
C 2387 4192 2374 4192 2323 4163 
C 2099 4058 1837 3973 1517 3973 
C 1325 3973 1037 3999 723 4139 
C 653 4171 640 4171 634 4171 
C 602 4171 595 4164 595 4037 
L 595 2203 
C 595 2089 595 2057 659 2057 
C 691 2057 704 2070 736 2114 
C 941 2401 1222 2522 1542 2522 
C 1766 2522 2246 2382 2246 1289 
C 2246 1085 2246 715 2054 421 
C 1894 159 1645 25 1370 25 
C 947 25 518 320 403 814 
C 429 807 480 795 506 795 
C 589 795 749 840 749 1038 
C 749 1210 627 1280 506 1280 
C 358 1280 262 1190 262 1011 
C 262 454 704 -128 1382 -128 
C 2042 -128 2669 440 2669 1264 
C 2669 2030 2170 2624 1549 2624 
C 1222 2624 947 2503 730 2274 
L 730 3692 
z
" transform="scale(0.015625)"/>
       </defs>
       <use xlink:href="#CMR17-32" transform="scale(0.996264)"/>
       <use xlink:href="#CMR17-35" transform="translate(45.690477 0) scale(0.996264)"/>
      </g>
     </g>
    </g>
    <g id="xtick_3">
     <g id="line2d_3">
      <g>
       <use xlink:href="#mbaf5a7321f" x="99.938502" y="143.519296" style="stroke: #000000; stroke-width: 0.8"/>
      </g>
     </g>
     <g id="text_3">
      <!-- $\mathdefault{50}$ -->
      <g transform="translate(95.704319 158.154098) scale(0.08 -0.08)">
       <use xlink:href="#CMR17-35" transform="scale(0.996264)"/>
       <use xlink:href="#CMR17-30" transform="translate(45.690477 0) scale(0.996264)"/>
      </g>
     </g>
    </g>
    <g id="xtick_4">
     <g id="line2d_4">
      <g>
       <use xlink:href="#mbaf5a7321f" x="126.208469" y="143.519296" style="stroke: #000000; stroke-width: 0.8"/>
      </g>
     </g>
     <g id="text_4">
      <!-- $\mathdefault{75}$ -->
      <g transform="translate(121.974286 158.154098) scale(0.08 -0.08)">
       <defs>
        <path id="CMR17-37" d="M 2886 3941 
L 2886 4081 
L 1382 4081 
C 634 4081 621 4165 595 4288 
L 480 4288 
L 294 3094 
L 410 3094 
C 429 3215 474 3540 550 3661 
C 589 3712 1062 3712 1171 3712 
L 2579 3712 
L 1869 2661 
C 1395 1954 1069 999 1069 165 
C 1069 89 1069 -128 1299 -128 
C 1530 -128 1530 89 1530 171 
L 1530 465 
C 1530 1508 1709 2196 2003 2636 
L 2886 3941 
z
" transform="scale(0.015625)"/>
       </defs>
       <use xlink:href="#CMR17-37" transform="scale(0.996264)"/>
       <use xlink:href="#CMR17-35" transform="translate(45.690477 0) scale(0.996264)"/>
      </g>
     </g>
    </g>
    <g id="xtick_5">
     <g id="line2d_5">
      <g>
       <use xlink:href="#mbaf5a7321f" x="152.478436" y="143.519296" style="stroke: #000000; stroke-width: 0.8"/>
      </g>
     </g>
     <g id="text_5">
      <!-- $\mathdefault{100}$ -->
      <g transform="translate(146.127162 158.154098) scale(0.08 -0.08)">
       <defs>
        <path id="CMR17-31" d="M 1702 4058 
C 1702 4192 1696 4192 1606 4192 
C 1357 3916 979 3827 621 3827 
C 602 3827 570 3827 563 3808 
C 557 3795 557 3782 557 3648 
C 755 3648 1088 3686 1344 3839 
L 1344 461 
C 1344 236 1331 160 781 160 
L 589 160 
L 589 0 
C 896 0 1216 0 1523 0 
C 1830 0 2150 0 2458 0 
L 2458 160 
L 2266 160 
C 1715 160 1702 230 1702 458 
L 1702 4058 
z
" transform="scale(0.015625)"/>
       </defs>
       <use xlink:href="#CMR17-31" transform="scale(0.996264)"/>
       <use xlink:href="#CMR17-30" transform="translate(45.690477 0) scale(0.996264)"/>
       <use xlink:href="#CMR17-30" transform="translate(91.380954 0) scale(0.996264)"/>
      </g>
     </g>
    </g>
    <g id="xtick_6">
     <g id="line2d_6">
      <g>
       <use xlink:href="#mbaf5a7321f" x="178.748404" y="143.519296" style="stroke: #000000; stroke-width: 0.8"/>
      </g>
     </g>
     <g id="text_6">
      <!-- $\mathdefault{125}$ -->
      <g transform="translate(172.397129 158.154098) scale(0.08 -0.08)">
       <use xlink:href="#CMR17-31" transform="scale(0.996264)"/>
       <use xlink:href="#CMR17-32" transform="translate(45.690477 0) scale(0.996264)"/>
       <use xlink:href="#CMR17-35" transform="translate(91.380954 0) scale(0.996264)"/>
      </g>
     </g>
    </g>
    <g id="xtick_7">
     <g id="line2d_7">
      <g>
       <use xlink:href="#mbaf5a7321f" x="205.018371" y="143.519296" style="stroke: #000000; stroke-width: 0.8"/>
      </g>
     </g>
     <g id="text_7">
      <!-- $\mathdefault{150}$ -->
      <g transform="translate(198.667097 158.154098) scale(0.08 -0.08)">
       <use xlink:href="#CMR17-31" transform="scale(0.996264)"/>
       <use xlink:href="#CMR17-35" transform="translate(45.690477 0) scale(0.996264)"/>
       <use xlink:href="#CMR17-30" transform="translate(91.380954 0) scale(0.996264)"/>
      </g>
     </g>
    </g>
    <g id="xtick_8">
     <g id="line2d_8">
      <g>
       <use xlink:href="#mbaf5a7321f" x="231.288338" y="143.519296" style="stroke: #000000; stroke-width: 0.8"/>
      </g>
     </g>
     <g id="text_8">
      <!-- $\mathdefault{175}$ -->
      <g transform="translate(224.937064 158.154098) scale(0.08 -0.08)">
       <use xlink:href="#CMR17-31" transform="scale(0.996264)"/>
       <use xlink:href="#CMR17-37" transform="translate(45.690477 0) scale(0.996264)"/>
       <use xlink:href="#CMR17-35" transform="translate(91.380954 0) scale(0.996264)"/>
      </g>
     </g>
    </g>
    <g id="text_9">
     <!-- $\tau$ -->
     <g transform="translate(139.792847 170.622342) scale(0.1 -0.1)">
      <defs>
       <path id="CMMI12-1c" d="M 1837 2408 
L 2899 2408 
C 2982 2408 3194 2408 3194 2612 
C 3194 2752 3072 2752 2957 2752 
L 1197 2752 
C 1050 2752 832 2752 538 2440 
C 371 2255 166 1917 166 1879 
C 166 1841 198 1828 237 1828 
C 282 1828 288 1847 320 1885 
C 653 2408 986 2408 1146 2408 
L 1677 2408 
L 1011 223 
C 979 127 979 114 979 95 
C 979 25 1024 -64 1152 -64 
C 1350 -64 1382 108 1402 203 
L 1837 2408 
z
" transform="scale(0.015625)"/>
      </defs>
      <use xlink:href="#CMMI12-1c" transform="scale(0.996264)"/>
     </g>
    </g>
   </g>
   <g id="matplotlib.axis_2">
    <g id="ytick_1">
     <g id="line2d_9">
      <defs>
       <path id="m80319cbf70" d="M 0 0 
L -3.5 0 
" style="stroke: #000000; stroke-width: 0.8"/>
      </defs>
      <g>
       <use xlink:href="#m80319cbf70" x="37.941379" y="137.887526" style="stroke: #000000; stroke-width: 0.8"/>
      </g>
     </g>
     <g id="text_10">
      <!-- $\mathdefault{−1.00}$ -->
      <g transform="translate(7.2 140.654927) scale(0.08 -0.08)">
       <defs>
        <path id="CMSY10-0" d="M 4218 1472 
C 4326 1472 4442 1472 4442 1600 
C 4442 1728 4326 1728 4218 1728 
L 755 1728 
C 646 1728 531 1728 531 1600 
C 531 1472 646 1472 755 1472 
L 4218 1472 
z
" transform="scale(0.015625)"/>
        <path id="CMMI12-3a" d="M 1178 307 
C 1178 492 1024 619 870 619 
C 685 619 557 466 557 313 
C 557 128 710 0 864 0 
C 1050 0 1178 153 1178 307 
z
" transform="scale(0.015625)"/>
       </defs>
       <use xlink:href="#CMSY10-0" transform="scale(0.996264)"/>
       <use xlink:href="#CMR17-31" transform="translate(77.487468 0) scale(0.996264)"/>
       <use xlink:href="#CMMI12-3a" transform="translate(123.177945 0) scale(0.996264)"/>
       <use xlink:href="#CMR17-30" transform="translate(150.275122 0) scale(0.996264)"/>
       <use xlink:href="#CMR17-30" transform="translate(195.965599 0) scale(0.996264)"/>
      </g>
     </g>
    </g>
    <g id="ytick_2">
     <g id="line2d_10">
      <g>
       <use xlink:href="#m80319cbf70" x="37.941379" y="119.294621" style="stroke: #000000; stroke-width: 0.8"/>
      </g>
     </g>
     <g id="text_11">
      <!-- $\mathdefault{−0.75}$ -->
      <g transform="translate(7.2 122.062022) scale(0.08 -0.08)">
       <use xlink:href="#CMSY10-0" transform="scale(0.996264)"/>
       <use xlink:href="#CMR17-30" transform="translate(77.487468 0) scale(0.996264)"/>
       <use xlink:href="#CMMI12-3a" transform="translate(123.177945 0) scale(0.996264)"/>
       <use xlink:href="#CMR17-37" transform="translate(150.275122 0) scale(0.996264)"/>
       <use xlink:href="#CMR17-35" transform="translate(195.965599 0) scale(0.996264)"/>
      </g>
     </g>
    </g>
    <g id="ytick_3">
     <g id="line2d_11">
      <g>
       <use xlink:href="#m80319cbf70" x="37.941379" y="100.701715" style="stroke: #000000; stroke-width: 0.8"/>
      </g>
     </g>
     <g id="text_12">
      <!-- $\mathdefault{−0.50}$ -->
      <g transform="translate(7.2 103.469116) scale(0.08 -0.08)">
       <use xlink:href="#CMSY10-0" transform="scale(0.996264)"/>
       <use xlink:href="#CMR17-30" transform="translate(77.487468 0) scale(0.996264)"/>
       <use xlink:href="#CMMI12-3a" transform="translate(123.177945 0) scale(0.996264)"/>
       <use xlink:href="#CMR17-35" transform="translate(150.275122 0) scale(0.996264)"/>
       <use xlink:href="#CMR17-30" transform="translate(195.965599 0) scale(0.996264)"/>
      </g>
     </g>
    </g>
    <g id="ytick_4">
     <g id="line2d_12">
      <g>
       <use xlink:href="#m80319cbf70" x="37.941379" y="82.10881" style="stroke: #000000; stroke-width: 0.8"/>
      </g>
     </g>
     <g id="text_13">
      <!-- $\mathdefault{−0.25}$ -->
      <g transform="translate(7.2 84.876211) scale(0.08 -0.08)">
       <use xlink:href="#CMSY10-0" transform="scale(0.996264)"/>
       <use xlink:href="#CMR17-30" transform="translate(77.487468 0) scale(0.996264)"/>
       <use xlink:href="#CMMI12-3a" transform="translate(123.177945 0) scale(0.996264)"/>
       <use xlink:href="#CMR17-32" transform="translate(150.275122 0) scale(0.996264)"/>
       <use xlink:href="#CMR17-35" transform="translate(195.965599 0) scale(0.996264)"/>
      </g>
     </g>
    </g>
    <g id="ytick_5">
     <g id="line2d_13">
      <g>
       <use xlink:href="#m80319cbf70" x="37.941379" y="63.515904" style="stroke: #000000; stroke-width: 0.8"/>
      </g>
     </g>
     <g id="text_14">
      <!-- $\mathdefault{0.00}$ -->
      <g transform="translate(13.786507 66.283305) scale(0.08 -0.08)">
       <use xlink:href="#CMR17-30" transform="scale(0.996264)"/>
       <use xlink:href="#CMMI12-3a" transform="translate(45.690477 0) scale(0.996264)"/>
       <use xlink:href="#CMR17-30" transform="translate(72.787654 0) scale(0.996264)"/>
       <use xlink:href="#CMR17-30" transform="translate(118.478131 0) scale(0.996264)"/>
      </g>
     </g>
    </g>
    <g id="ytick_6">
     <g id="line2d_14">
      <g>
       <use xlink:href="#m80319cbf70" x="37.941379" y="44.922999" style="stroke: #000000; stroke-width: 0.8"/>
      </g>
     </g>
     <g id="text_15">
      <!-- $\mathdefault{0.25}$ -->
      <g transform="translate(13.786507 47.6904) scale(0.08 -0.08)">
       <use xlink:href="#CMR17-30" transform="scale(0.996264)"/>
       <use xlink:href="#CMMI12-3a" transform="translate(45.690477 0) scale(0.996264)"/>
       <use xlink:href="#CMR17-32" transform="translate(72.787654 0) scale(0.996264)"/>
       <use xlink:href="#CMR17-35" transform="translate(118.478131 0) scale(0.996264)"/>
      </g>
     </g>
    </g>
    <g id="ytick_7">
     <g id="line2d_15">
      <g>
       <use xlink:href="#m80319cbf70" x="37.941379" y="26.330093" style="stroke: #000000; stroke-width: 0.8"/>
      </g>
     </g>
     <g id="text_16">
      <!-- $\mathdefault{0.50}$ -->
      <g transform="translate(13.786507 29.097494) scale(0.08 -0.08)">
       <use xlink:href="#CMR17-30" transform="scale(0.996264)"/>
       <use xlink:href="#CMMI12-3a" transform="translate(45.690477 0) scale(0.996264)"/>
       <use xlink:href="#CMR17-35" transform="translate(72.787654 0) scale(0.996264)"/>
       <use xlink:href="#CMR17-30" transform="translate(118.478131 0) scale(0.996264)"/>
      </g>
     </g>
    </g>
   </g>
   <g id="line2d_16">
    <path d="M 47.398567 137.887526 
L 47.524663 137.695035 
L 47.713807 136.691862 
L 48.029046 133.17809 
L 48.407334 126.114101 
L 49.668292 98.535107 
L 49.73134 98.566596 
L 49.857436 99.489789 
L 50.04658 103.072233 
L 50.424867 116.603312 
L 50.992299 136.29086 
L 51.181443 137.88553 
L 51.307538 137.042095 
L 51.496682 133.079713 
L 51.87497 118.533595 
L 52.379353 100.502539 
L 52.568497 98.290741 
L 52.631545 98.298513 
L 52.757641 99.417169 
L 53.009832 105.327862 
L 53.514216 118.963108 
L 53.640311 119.645253 
L 53.766407 118.65573 
L 54.018599 112.557436 
L 54.649078 95.195149 
L 54.90127 92.773662 
L 55.090414 92.466098 
L 55.279557 92.863414 
L 55.783941 94.123262 
L 55.973085 94.138298 
L 56.162228 93.812181 
L 56.540516 92.464963 
L 57.738426 87.771757 
L 57.990618 87.568428 
L 58.558049 87.538574 
L 58.999385 86.868939 
L 60.386439 84.261764 
L 60.701679 83.765938 
L 60.890822 83.764439 
L 61.206062 84.123993 
L 61.458254 84.317259 
L 61.647397 84.159966 
L 61.962637 83.353772 
L 62.340925 82.46856 
L 62.530068 82.468871 
L 63.160548 83.061517 
L 63.601883 82.488314 
L 63.917123 82.235493 
L 64.232362 82.322804 
L 64.673698 82.402896 
L 65.115033 82.183019 
L 65.80856 81.862019 
L 67.069519 81.339729 
L 67.763046 81.05342 
L 68.204381 81.222497 
L 68.456573 81.232603 
L 68.771813 80.954033 
L 69.024004 80.790524 
L 69.213148 80.892007 
L 70.032771 81.644883 
L 70.348011 81.36929 
L 70.600202 81.244405 
L 71.167634 81.315301 
L 72.050305 80.250673 
L 72.302496 80.462 
L 72.743832 80.860248 
L 73.122119 80.76703 
L 74.32003 80.63324 
L 75.013557 80.892182 
L 75.51794 80.884686 
L 76.211467 81.1143 
L 77.220234 82.794302 
L 78.229001 83.426488 
L 78.922528 83.774864 
L 79.553007 84.051071 
L 79.994343 83.966354 
L 81.318349 83.474489 
L 82.074924 83.587612 
L 84.02941 84.004699 
L 84.659889 83.769494 
L 85.164272 83.652132 
L 85.416464 83.773875 
L 85.668656 84.115553 
L 85.983895 84.968935 
L 86.488279 87.22618 
L 87.433997 91.319886 
L 88.442764 94.556139 
L 91.469064 104.195023 
L 91.973448 104.839611 
L 94.9367 107.422699 
L 96.071563 108.253389 
L 96.828138 108.806249 
L 97.710809 109.129447 
L 99.665294 109.583504 
L 101.052348 110.146109 
L 103.322074 110.041043 
L 105.150463 109.57895 
L 105.84399 109.429044 
L 106.411422 109.427965 
L 107.546284 109.827767 
L 107.924572 110.355655 
L 108.365907 111.454578 
L 109.374674 114.086363 
L 109.81601 114.616119 
L 110.509537 115.041112 
L 111.266112 115.314752 
L 111.770495 115.302682 
L 112.274878 115.053155 
L 113.346693 114.326188 
L 113.661933 114.441827 
L 114.166316 114.948036 
L 114.607652 115.302665 
L 114.922891 115.298662 
L 115.175083 115.095673 
L 115.427275 114.641165 
L 115.742514 113.494983 
L 116.120802 110.963014 
L 118.264431 93.941211 
L 118.642719 92.370755 
L 118.89491 92.083891 
L 119.273198 91.91862 
L 119.525389 91.347421 
L 120.092821 89.83198 
L 120.471108 89.495262 
L 120.786348 88.549404 
L 121.164635 87.583529 
L 121.732067 86.729218 
L 122.110354 85.981282 
L 122.425594 85.842362 
L 122.866929 85.688358 
L 123.182169 85.277484 
L 123.938744 84.0611 
L 124.190936 84.060856 
L 124.506175 84.461639 
L 124.821415 84.696806 
L 125.073607 84.578549 
L 125.388846 84.139003 
L 126.019325 83.197123 
L 127.217236 82.13596 
L 127.40638 82.291686 
L 127.910763 82.973243 
L 128.099907 82.825426 
L 128.856482 81.941204 
L 129.550009 81.69942 
L 129.865249 81.64142 
L 130.11744 81.882918 
L 130.43268 82.213624 
L 130.621824 82.130501 
L 131.315351 81.408775 
L 131.819734 81.498017 
L 132.828501 81.179269 
L 133.14374 81.260666 
L 133.522028 81.675241 
L 133.900316 82.07856 
L 134.215555 82.084398 
L 134.467747 81.868965 
L 134.97213 81.380292 
L 135.602609 81.05553 
L 136.106993 81.262715 
L 136.548328 81.129187 
L 137.241855 81.384679 
L 139.070245 81.150241 
L 139.322437 81.422837 
L 140.457299 83.173566 
L 141.592162 83.667463 
L 142.537881 84.379813 
L 142.85312 84.310912 
L 143.420552 83.869025 
L 143.987983 83.52918 
L 144.492366 83.510149 
L 145.185894 83.756808 
L 146.699044 84.358522 
L 147.203427 84.305393 
L 148.527433 83.920509 
L 148.779625 84.197605 
L 149.094865 84.935323 
L 149.599248 86.867644 
L 151.679829 95.819615 
L 152.688596 98.746853 
L 154.327842 102.766421 
L 155.147465 104.368085 
L 155.90404 105.394374 
L 156.849759 106.299511 
L 160.380443 109.133484 
L 161.263113 109.280606 
L 163.091503 109.155983 
L 163.658935 109.414641 
L 164.667701 110.032472 
L 165.550372 110.361573 
L 166.306947 110.324725 
L 167.567906 110.040185 
L 168.702768 110.159703 
L 170.531158 109.964929 
L 170.846398 110.209876 
L 171.224685 110.883043 
L 171.918212 112.809357 
L 172.548691 114.246752 
L 173.179171 115.050311 
L 174.124889 115.908776 
L 174.629273 116.079295 
L 175.00756 115.957732 
L 175.385848 115.563353 
L 176.457663 114.212373 
L 176.709854 114.364808 
L 177.088142 115.001469 
L 177.655573 115.980161 
L 177.907765 116.076742 
L 178.096909 115.949122 
L 178.3491 115.488 
L 178.66434 114.406691 
L 179.042627 112.281358 
L 180.429682 101.829475 
L 181.3754 94.754072 
L 181.942832 92.205416 
L 182.384167 91.200992 
L 182.951598 90.64083 
L 184.71694 86.083097 
L 185.221324 86.071946 
L 186.040947 84.828839 
L 186.86057 84.357778 
L 187.680193 84.221934 
L 187.932384 83.745039 
L 188.37372 82.786725 
L 188.499816 82.816728 
L 188.815055 83.30558 
L 189.193343 83.729293 
L 189.382486 83.695149 
L 189.634678 83.343068 
L 190.139062 82.624696 
L 190.391253 82.545644 
L 190.706493 82.730255 
L 191.147828 83.020343 
L 191.40002 82.891783 
L 192.030499 82.413034 
L 192.345739 82.581289 
L 192.59793 82.679423 
L 192.787074 82.548641 
L 193.795841 81.361589 
L 193.984985 81.532193 
L 194.615464 82.440457 
L 194.804608 82.322683 
L 195.498135 81.569511 
L 195.750327 81.820239 
L 196.065566 82.07229 
L 196.25471 81.950269 
L 196.759093 81.359977 
L 197.011285 81.549416 
L 197.263477 81.662964 
L 197.704812 81.45265 
L 198.398339 80.908752 
L 198.650531 80.825848 
L 198.902723 81.029335 
L 199.217962 81.219546 
L 199.911489 81.020742 
L 200.605017 81.424262 
L 200.983304 81.338144 
L 202.055119 80.927648 
L 202.30731 81.230717 
L 202.685598 82.280123 
L 203.063885 83.141215 
L 203.379125 83.372435 
L 203.757413 83.331764 
L 204.261796 83.249537 
L 204.513988 83.407975 
L 204.829227 83.883305 
L 205.585802 85.135818 
L 205.837994 85.14884 
L 206.090186 84.90995 
L 207.288096 83.344576 
L 207.666384 83.356448 
L 208.107719 83.615942 
L 208.99039 84.469506 
L 209.746965 85.075956 
L 210.125253 85.156913 
L 210.50354 84.983637 
L 211.070971 84.379427 
L 211.512307 83.983561 
L 211.701451 84.01761 
L 211.953642 84.370869 
L 212.268882 85.291847 
L 212.773265 87.583043 
L 213.908128 92.999466 
L 214.601655 94.989003 
L 215.610422 97.886096 
L 216.556141 100.951661 
L 217.249668 103.000184 
L 218.321482 105.156949 
L 218.762818 105.676735 
L 220.402064 107.049481 
L 222.230454 108.573389 
L 223.23922 109.029683 
L 224.311035 109.233732 
L 225.38285 109.230394 
L 226.706856 109.403492 
L 227.589527 109.580457 
L 228.850485 109.476247 
L 229.796204 109.798935 
L 231.057163 109.862251 
L 231.876786 109.92593 
L 233.011648 109.645612 
L 233.452984 109.677277 
L 233.831271 109.946254 
L 234.209559 110.548285 
L 234.77699 112.08755 
L 235.407469 113.629558 
L 235.911853 114.336586 
L 236.542332 114.899282 
L 236.542332 114.899282 
" clip-path="url(#p9239f7364f)" style="fill: none; stroke: #ff7f0e; stroke-width: 0.5; stroke-linecap: square"/>
   </g>
   <g id="line2d_17">
    <path d="M 47.398567 63.515904 
L 47.524663 63.83673 
L 47.713807 65.508685 
L 48.029046 71.364966 
L 48.407334 83.138305 
L 49.668292 129.103358 
L 49.73134 129.05086 
L 49.857436 127.512228 
L 50.04658 121.54149 
L 50.424867 98.989708 
L 50.992299 66.177154 
L 51.181443 63.519373 
L 51.307538 64.925107 
L 51.496682 71.529465 
L 51.87497 95.767859 
L 52.379353 125.532036 
L 52.568497 128.877051 
L 52.631545 128.699679 
L 52.757641 126.392963 
L 53.009832 114.833527 
L 53.892503 64.384367 
L 54.018599 63.381089 
L 54.081647 63.612135 
L 54.270791 66.699071 
L 55.21651 89.619263 
L 55.279557 89.725524 
L 55.342605 89.614888 
L 55.531749 88.18363 
L 55.973085 81.542205 
L 56.41442 76.209508 
L 56.666612 75.197107 
L 56.792708 75.247895 
L 56.981851 75.889552 
L 57.92757 80.394368 
L 58.053666 80.297936 
L 58.305858 79.567927 
L 59.251576 76.037054 
L 59.44072 76.021235 
L 59.692912 76.313422 
L 60.449487 77.418075 
L 60.638631 77.344726 
L 60.890822 76.960145 
L 61.710445 75.25273 
L 61.899589 75.368122 
L 62.403973 75.890534 
L 62.593116 75.793735 
L 63.034452 75.107641 
L 63.349691 74.844139 
L 63.917123 74.735058 
L 64.421506 74.794592 
L 64.799794 75.19166 
L 65.304177 75.6798 
L 65.556369 75.660471 
L 65.934656 75.34608 
L 67.069519 74.249829 
L 67.510854 73.948585 
L 67.889142 74.00751 
L 68.330477 74.262096 
L 68.834861 74.624697 
L 69.087052 74.534176 
L 69.654484 73.967159 
L 70.095819 73.67608 
L 70.411059 73.763511 
L 71.861161 74.534689 
L 72.113352 74.309985 
L 72.80688 73.538172 
L 73.311263 73.39917 
L 73.689551 73.586538 
L 74.698317 74.223775 
L 75.265749 74.343745 
L 75.770132 74.326142 
L 76.841947 75.100649 
L 78.165953 76.156492 
L 78.481193 76.056263 
L 78.985576 75.579757 
L 79.489959 75.200433 
L 79.805199 75.220399 
L 80.246534 75.538447 
L 81.003109 76.088762 
L 81.444445 76.143205 
L 82.074924 75.959069 
L 84.092458 75.155712 
L 84.785985 75.245501 
L 85.983895 75.688593 
L 86.425231 76.020686 
L 86.74047 76.567613 
L 87.118758 77.856992 
L 87.749237 81.107268 
L 88.947148 87.407308 
L 89.514579 89.263293 
L 90.018962 90.293948 
L 90.460298 90.746704 
L 91.9104 91.966048 
L 93.360502 93.584387 
L 93.927933 93.854886 
L 94.432317 93.848903 
L 95.504131 93.778938 
L 96.828138 94.140724 
L 97.963 94.897462 
L 98.719575 95.381532 
L 99.854438 95.764306 
L 100.295773 95.58338 
L 101.745876 94.903831 
L 102.691594 95.140394 
L 103.700361 95.741763 
L 104.393888 96.102024 
L 106.47447 96.459408 
L 107.231045 96.238459 
L 108.365907 95.814182 
L 109.626866 94.757187 
L 111.140016 93.540894 
L 111.581351 93.468937 
L 111.959639 93.623698 
L 112.400974 94.098772 
L 113.220597 95.117874 
L 113.472789 95.112489 
L 113.724981 94.872341 
L 114.796795 93.466836 
L 115.048987 93.625942 
L 115.427275 94.222452 
L 115.805562 94.745388 
L 115.931658 94.733916 
L 116.120802 94.360783 
L 116.372993 92.933177 
L 116.688233 89.5112 
L 117.444808 80.603972 
L 117.697 79.666841 
L 117.823096 79.636659 
L 118.012239 80.012112 
L 118.768814 82.132907 
L 118.957958 81.990538 
L 119.273198 81.290915 
L 120.534156 78.209702 
L 120.786348 78.131094 
L 121.353779 78.094347 
L 121.858163 77.852027 
L 122.23645 77.346701 
L 122.803881 76.644117 
L 123.245217 76.364447 
L 123.560456 76.428878 
L 124.127888 76.674054 
L 124.380079 76.49039 
L 125.26275 75.470481 
L 125.57799 75.673457 
L 126.208469 76.148607 
L 126.586757 76.152888 
L 126.965044 75.881383 
L 127.721619 75.001524 
L 128.036859 74.789925 
L 128.289051 74.864082 
L 129.297817 75.410081 
L 129.865249 75.605496 
L 130.11744 75.452544 
L 130.621824 75.057132 
L 131.252303 74.89263 
L 131.693638 74.702076 
L 132.576309 74.673094 
L 133.332884 74.284254 
L 133.77422 74.021237 
L 134.215555 74.100974 
L 135.035178 74.444088 
L 135.539562 74.286548 
L 136.233089 73.939054 
L 136.611376 74.109143 
L 137.494047 74.612841 
L 137.809287 74.480523 
L 138.62891 73.95517 
L 138.944149 74.231408 
L 139.574628 74.79018 
L 140.015964 75.236596 
L 141.087779 76.524627 
L 141.33997 76.465281 
L 141.65521 76.119359 
L 142.474833 75.045446 
L 142.727025 75.057123 
L 143.042264 75.346516 
L 143.987983 76.445114 
L 144.366271 76.505381 
L 144.807606 76.330552 
L 145.690277 75.654651 
L 146.5099 75.119029 
L 147.014283 75.047276 
L 147.644762 75.223147 
L 148.275242 75.614943 
L 149.347056 76.693903 
L 149.788392 77.50012 
L 150.292775 79.013223 
L 151.04935 82.05589 
L 152.247261 87.12208 
L 153.066884 89.620032 
L 153.508219 90.387794 
L 154.012603 90.832751 
L 155.399657 91.671759 
L 155.90404 92.186195 
L 157.228047 93.865259 
L 157.795478 94.297263 
L 159.497772 95.035801 
L 160.128251 94.951964 
L 160.632634 94.944898 
L 161.137018 95.150362 
L 162.208832 95.687635 
L 162.902359 96.14341 
L 163.343695 96.380746 
L 163.721982 96.332527 
L 166.243899 95.558429 
L 167.252666 95.791667 
L 169.963727 96.624743 
L 170.909445 96.749993 
L 171.476877 96.547012 
L 172.107356 96.121977 
L 172.674787 95.458541 
L 174.503177 92.958113 
L 174.818417 92.985167 
L 175.133656 93.307911 
L 175.511944 94.109263 
L 176.331567 96.00759 
L 176.52071 96.027682 
L 176.709854 95.794991 
L 177.025094 94.945833 
L 177.655573 93.103811 
L 177.907765 92.944798 
L 178.096909 93.138051 
L 178.412148 93.940716 
L 178.916532 95.277398 
L 179.042627 95.289866 
L 179.168723 95.052781 
L 179.357867 94.126307 
L 179.673107 90.932309 
L 180.618825 79.147151 
L 180.807969 78.727207 
L 180.934065 78.860751 
L 181.186257 79.768388 
L 181.753688 81.994961 
L 181.942832 82.135836 
L 182.131976 81.907807 
L 182.447215 80.875742 
L 183.20379 78.055118 
L 183.51903 77.627965 
L 183.771221 77.622221 
L 184.527797 77.934313 
L 184.779988 77.617285 
L 185.914851 75.567627 
L 186.293138 75.408174 
L 186.54533 75.512293 
L 187.364953 76.127076 
L 187.806288 76.14146 
L 188.184576 76.235425 
L 188.436768 76.011961 
L 189.067247 75.333058 
L 189.382486 75.261641 
L 189.697726 75.459388 
L 190.202109 75.835335 
L 190.454301 75.760199 
L 190.832589 75.284731 
L 191.273924 74.778804 
L 191.778307 74.560427 
L 192.282691 74.520204 
L 192.660978 74.761334 
L 193.480601 75.525809 
L 193.732793 75.397482 
L 194.048033 74.861903 
L 194.489368 74.132203 
L 194.74156 74.038733 
L 194.993751 74.229446 
L 195.498135 74.684412 
L 195.876422 74.669395 
L 196.632997 74.388463 
L 197.263477 73.962757 
L 197.641764 74.060407 
L 198.272243 74.564039 
L 198.713579 74.852194 
L 198.965771 74.707463 
L 199.59625 74.266611 
L 200.037585 74.181158 
L 200.415873 74.368864 
L 201.298544 75.047833 
L 201.802927 74.990467 
L 202.181215 74.72644 
L 202.748646 74.16058 
L 202.93779 74.26484 
L 203.189981 74.743908 
L 204.324844 77.511518 
L 204.513988 77.339291 
L 204.829227 76.56301 
L 205.585802 74.475678 
L 205.774946 74.416547 
L 205.96409 74.607743 
L 206.279329 75.33832 
L 207.035905 77.215315 
L 207.351144 77.487666 
L 207.603336 77.472003 
L 207.981623 77.164728 
L 208.549055 76.337398 
L 209.683917 74.645049 
L 210.125253 74.409833 
L 210.50354 74.472006 
L 210.881828 74.78237 
L 211.575355 75.722874 
L 212.584122 77.282362 
L 213.088505 78.460304 
L 213.592888 80.30809 
L 214.727751 85.82467 
L 215.547374 89.369548 
L 215.988709 90.514485 
L 216.430045 91.072272 
L 216.934428 91.355095 
L 217.880147 91.705487 
L 219.519393 92.864936 
L 220.275968 93.736692 
L 220.843399 94.282662 
L 221.347783 94.465796 
L 223.176172 94.592473 
L 224.247987 94.627457 
L 224.689323 94.855551 
L 225.571993 95.412369 
L 227.841719 95.877075 
L 231.309354 95.836157 
L 233.137744 96.240505 
L 234.524798 96.076175 
L 235.218325 95.58418 
L 235.9749 94.756324 
L 236.542332 93.974334 
L 236.542332 93.974334 
" clip-path="url(#p9239f7364f)" style="fill: none; stroke: #2ca02c; stroke-width: 0.5; stroke-linecap: square"/>
   </g>
   <g id="line2d_18">
    <path d="M 47.398567 63.515904 
L 48.21819 32.907479 
L 48.596478 25.81449 
L 48.722574 25.252136 
L 48.785622 25.39022 
L 48.911717 26.59209 
L 49.100861 30.920527 
L 49.416101 45.165257 
L 50.424867 101.653479 
L 50.487915 101.721668 
L 50.614011 99.71558 
L 50.803155 91.609146 
L 51.24449 57.639555 
L 51.685826 28.850379 
L 51.87497 25.267405 
L 51.938018 25.555756 
L 52.064113 28.352311 
L 52.316305 41.843739 
L 53.198976 101.660519 
L 53.262024 102.149371 
L 53.325072 101.823473 
L 53.451168 98.819811 
L 53.703359 85.29525 
L 54.333839 48.913045 
L 54.522982 46.095178 
L 54.58603 46.117972 
L 54.712126 47.414986 
L 54.964318 53.620991 
L 55.594797 70.16651 
L 55.846989 72.034136 
L 55.910037 72.024306 
L 56.036132 71.508592 
L 56.288324 69.004071 
L 57.044899 60.609509 
L 57.234043 60.04186 
L 57.360139 60.123192 
L 57.549283 60.831178 
L 58.053666 64.329598 
L 58.368906 65.774057 
L 58.558049 65.963578 
L 58.684145 65.825677 
L 58.936337 65.069241 
L 59.629864 62.764618 
L 59.882056 62.48527 
L 60.071199 62.546619 
L 60.323391 63.008777 
L 61.079966 64.820079 
L 61.206062 64.777728 
L 61.395206 64.373291 
L 61.962637 62.798342 
L 62.088733 62.818325 
L 62.277877 63.174283 
L 62.78226 64.349334 
L 62.971404 64.274757 
L 63.538835 63.656383 
L 63.791027 63.704068 
L 64.169314 63.825901 
L 64.421506 63.613691 
L 64.925889 63.049901 
L 65.115033 63.136262 
L 65.871608 63.858977 
L 66.375992 63.871108 
L 66.691231 63.934364 
L 67.006471 64.028169 
L 67.32171 63.803426 
L 67.889142 63.36625 
L 68.267429 63.119455 
L 68.582669 62.975214 
L 68.771813 63.115625 
L 69.528388 63.982648 
L 69.717531 63.88026 
L 70.032771 63.376375 
L 70.348011 62.963177 
L 70.600202 63.007849 
L 70.915442 63.090945 
L 71.419825 62.994598 
L 71.672017 63.277305 
L 72.302496 64.148728 
L 72.554688 63.967542 
L 73.059071 63.519713 
L 74.130886 63.170893 
L 74.887461 63.427683 
L 75.580988 63.358891 
L 75.959276 63.165916 
L 76.589755 63.31814 
L 77.220234 62.932241 
L 77.598522 63.035048 
L 78.102905 63.44776 
L 78.796432 64.062744 
L 79.111672 64.021432 
L 79.489959 63.670823 
L 80.183486 62.994715 
L 80.498726 62.965443 
L 80.940061 63.198098 
L 82.137972 63.986218 
L 82.705403 64.078466 
L 83.272835 63.954809 
L 85.416464 63.208329 
L 85.857799 63.064997 
L 86.173039 62.665351 
L 86.551326 61.665548 
L 87.812285 57.827602 
L 88.064477 57.633751 
L 88.25362 57.679717 
L 88.505812 57.999314 
L 88.947148 59.040102 
L 90.018962 61.738129 
L 90.586393 62.618832 
L 90.964681 62.910373 
L 91.342969 62.926912 
L 91.9104 62.631925 
L 92.540879 62.404015 
L 92.982214 62.459748 
L 93.549646 62.75862 
L 94.558413 63.472126 
L 95.062796 63.439889 
L 97.017281 62.874887 
L 97.773857 62.620246 
L 98.404336 62.713891 
L 98.845671 62.956486 
L 100.232725 64.077661 
L 100.674061 64.222581 
L 101.115396 64.123728 
L 101.745876 63.73595 
L 102.754642 62.886247 
L 103.385122 62.803152 
L 103.889505 63.000202 
L 105.213511 63.539698 
L 106.285326 63.633089 
L 107.167997 63.95273 
L 107.98762 64.259204 
L 108.870291 64.341834 
L 110.572585 64.375682 
L 111.076968 63.988892 
L 111.959639 62.941285 
L 112.400974 62.565561 
L 112.653166 62.554928 
L 112.905358 62.751924 
L 113.283645 63.395238 
L 113.914124 64.445084 
L 114.166316 64.469097 
L 114.418508 64.202298 
L 114.985939 63.055983 
L 115.364227 62.565856 
L 115.55337 62.630717 
L 115.742514 63.033175 
L 115.994706 64.26862 
L 116.436041 68.195312 
L 116.751281 70.41862 
L 116.877377 70.618849 
L 117.003473 70.346435 
L 117.255664 68.628642 
L 118.075287 61.729878 
L 118.264431 61.433242 
L 118.390527 61.628494 
L 118.642719 62.719839 
L 119.147102 64.886619 
L 119.336246 65.018062 
L 119.840629 64.962341 
L 120.155869 65.080872 
L 120.345012 64.77267 
L 120.849396 63.631547 
L 121.164635 63.562618 
L 121.669019 63.63583 
L 122.425594 64.374364 
L 122.866929 64.116531 
L 123.182169 63.653801 
L 123.560456 63.152624 
L 123.7496 63.165491 
L 124.001792 63.534329 
L 124.506175 64.442566 
L 124.695319 64.391838 
L 125.010559 63.975318 
L 125.57799 63.131571 
L 125.830182 63.124233 
L 126.334565 63.481381 
L 126.901996 63.870586 
L 127.595523 64.153164 
L 127.847715 63.905874 
L 128.415146 63.140982 
L 128.667338 63.172068 
L 129.171721 63.291178 
L 129.550009 63.349975 
L 129.802201 63.624562 
L 130.243536 64.150001 
L 130.43268 64.029563 
L 130.874015 63.622554 
L 131.567542 63.575007 
L 131.94583 63.398451 
L 132.324118 63.489207 
L 133.395932 64.042566 
L 133.648124 63.895506 
L 134.467747 63.152408 
L 134.719939 63.236132 
L 135.602609 63.858822 
L 135.854801 63.871301 
L 137.052712 63.128547 
L 137.367951 63.32627 
L 137.99843 63.843499 
L 138.250622 63.697174 
L 139.007197 62.981224 
L 139.637676 63.102492 
L 140.520347 62.713246 
L 140.772539 62.916638 
L 141.213874 63.637441 
L 141.718258 64.332078 
L 141.97045 64.365578 
L 142.222641 64.140707 
L 142.790072 63.146721 
L 143.16836 62.698406 
L 143.420552 62.657175 
L 143.735791 62.864509 
L 145.311989 64.353084 
L 145.753325 64.362937 
L 146.257708 64.13295 
L 147.014283 63.473176 
L 147.770858 62.917547 
L 148.968769 62.102706 
L 149.5362 61.324541 
L 150.355823 59.682732 
L 150.923254 58.782971 
L 151.238494 58.640976 
L 151.490686 58.756549 
L 151.932021 59.277261 
L 152.499452 60.280588 
L 153.697363 62.595209 
L 154.138698 62.91239 
L 154.70613 63.01778 
L 155.462705 62.911933 
L 157.795478 62.709247 
L 158.236813 63.078715 
L 158.867292 63.566821 
L 159.56082 63.697927 
L 160.128251 63.637437 
L 160.695682 63.378377 
L 161.641401 62.860216 
L 162.082736 62.830684 
L 162.650168 63.06724 
L 163.406743 63.35434 
L 163.974174 63.562364 
L 164.478557 63.771271 
L 164.982941 63.649354 
L 166.496091 63.081529 
L 167.567906 63.180458 
L 169.081056 63.47423 
L 170.78335 63.488553 
L 171.602973 64.128131 
L 173.179171 65.324694 
L 173.49441 65.274098 
L 173.872698 64.936949 
L 174.314033 64.211021 
L 175.63804 61.701687 
L 175.827183 61.795131 
L 176.079375 62.273994 
L 176.52071 63.821729 
L 176.962046 65.162164 
L 177.15119 65.330556 
L 177.340333 65.184123 
L 177.592525 64.55006 
L 178.475196 61.81417 
L 178.601292 61.874001 
L 178.790436 62.386504 
L 179.042627 63.951408 
L 179.547011 69.223229 
L 179.86225 71.599159 
L 179.988346 71.768356 
L 180.114442 71.381223 
L 180.366634 69.121969 
L 181.060161 61.62144 
L 181.312353 61.028095 
L 181.438448 61.177381 
L 181.69064 62.10909 
L 182.510263 65.661372 
L 182.699407 65.739211 
L 182.888551 65.408836 
L 183.897317 63.009404 
L 184.086461 63.032357 
L 184.338653 63.380526 
L 185.095228 64.92758 
L 185.34742 64.617664 
L 186.482282 63.165396 
L 186.797522 62.999664 
L 187.049713 63.175382 
L 187.491049 63.551504 
L 187.743241 63.361079 
L 187.995432 63.25355 
L 188.184576 63.521245 
L 188.625911 64.295822 
L 188.878103 64.218566 
L 189.319439 63.783862 
L 189.760774 63.267628 
L 190.012966 63.375093 
L 190.895637 64.140044 
L 192.219643 63.386102 
L 192.91317 63.094838 
L 193.165362 63.19472 
L 193.480601 63.613453 
L 194.048033 64.472197 
L 194.237176 64.358359 
L 194.552416 63.776382 
L 195.056799 62.875464 
L 195.245943 62.897722 
L 196.380806 63.870489 
L 196.885189 64.126981 
L 197.137381 63.901647 
L 197.704812 63.217084 
L 198.146148 63.148191 
L 198.461387 63.208177 
L 198.776627 63.717818 
L 199.028818 63.97158 
L 199.785394 63.919081 
L 200.163681 63.256009 
L 200.541969 62.802132 
L 200.79416 62.835607 
L 202.496454 64.019312 
L 202.685598 63.67644 
L 203.505221 61.71209 
L 203.694365 61.803527 
L 203.946556 62.318635 
L 204.513988 64.342649 
L 204.892275 65.259347 
L 205.081419 65.299555 
L 205.270563 65.030216 
L 205.585802 64.048266 
L 206.216282 61.963363 
L 206.468473 61.711823 
L 206.657617 61.79515 
L 206.972857 62.322836 
L 208.296863 65.072126 
L 208.67515 65.31082 
L 208.99039 65.269571 
L 209.368678 64.941418 
L 209.873061 64.13496 
L 211.007924 62.199486 
L 211.449259 61.917023 
L 212.458026 61.616792 
L 212.836313 60.981341 
L 214.223368 58.220547 
L 214.475559 58.164145 
L 214.727751 58.357081 
L 215.106038 59.031061 
L 215.799566 60.90447 
L 216.430045 62.406691 
L 216.934428 63.093211 
L 217.312716 63.30193 
L 217.627955 63.199225 
L 219.204153 62.15967 
L 219.582441 62.227394 
L 220.023776 62.564156 
L 220.780351 63.142946 
L 221.789118 63.547909 
L 222.545693 63.659137 
L 223.428364 63.543635 
L 224.311035 63.370586 
L 224.878466 63.230323 
L 225.445898 63.093863 
L 225.887233 63.212879 
L 226.832952 63.590366 
L 227.400383 63.549119 
L 227.967814 63.484019 
L 228.787437 63.559659 
L 229.417917 63.495712 
L 230.552779 63.344918 
L 231.561546 63.237529 
L 232.381169 63.366038 
L 233.389936 63.674615 
L 234.335655 64.015134 
L 234.903086 64.202812 
L 236.479284 64.974547 
L 236.542332 64.955789 
L 236.542332 64.955789 
" clip-path="url(#p9239f7364f)" style="fill: none; stroke: #d62728; stroke-width: 0.5; stroke-linecap: square"/>
   </g>
   <g id="patch_3">
    <path d="M 37.941379 143.519296 
L 37.941379 19.620366 
" style="fill: none; stroke: #000000; stroke-width: 0.8; stroke-linejoin: miter; stroke-linecap: square"/>
   </g>
   <g id="patch_4">
    <path d="M 245.99952 143.519296 
L 245.99952 19.620366 
" style="fill: none; stroke: #000000; stroke-width: 0.8; stroke-linejoin: miter; stroke-linecap: square"/>
   </g>
   <g id="patch_5">
    <path d="M 37.941379 143.519296 
L 245.99952 143.519296 
" style="fill: none; stroke: #000000; stroke-width: 0.8; stroke-linejoin: miter; stroke-linecap: square"/>
   </g>
   <g id="patch_6">
    <path d="M 37.941379 19.620366 
L 245.99952 19.620366 
" style="fill: none; stroke: #000000; stroke-width: 0.8; stroke-linejoin: miter; stroke-linecap: square"/>
   </g>
   <g id="text_17">
    <!-- $r_y=0.6$ -->
    <g transform="translate(124.321948 13.620366) scale(0.1 -0.1)">
     <defs>
      <path id="CMMI12-72" d="M 2490 2612 
C 2291 2574 2189 2433 2189 2293 
C 2189 2139 2310 2088 2400 2088 
C 2579 2088 2726 2242 2726 2433 
C 2726 2638 2528 2816 2208 2816 
C 1952 2816 1658 2701 1389 2312 
C 1344 2650 1088 2816 832 2816 
C 582 2816 454 2625 378 2484 
C 269 2254 173 1871 173 1839 
C 173 1814 198 1782 243 1782 
C 294 1782 301 1788 339 1935 
C 435 2318 557 2689 813 2689 
C 966 2689 1011 2580 1011 2395 
C 1011 2254 947 2005 902 1807 
L 723 1118 
C 698 996 627 709 595 594 
C 550 428 480 128 480 96 
C 480 6 550 -64 646 -64 
C 717 -64 838 -19 877 109 
C 896 160 1133 1124 1171 1271 
C 1203 1411 1242 1546 1274 1686 
C 1299 1775 1325 1878 1344 1961 
C 1363 2018 1536 2331 1696 2472 
C 1773 2542 1939 2689 2202 2689 
C 2304 2689 2406 2670 2490 2612 
z
" transform="scale(0.015625)"/>
      <path id="CMMI12-79" d="M 1683 -700 
C 1510 -939 1261 -1152 947 -1152 
C 870 -1152 563 -1152 467 -889 
C 486 -895 518 -895 531 -895 
C 723 -895 851 -729 851 -582 
C 851 -435 730 -384 634 -384 
C 531 -384 307 -458 307 -759 
C 307 -1071 582 -1286 947 -1286 
C 1587 -1286 2234 -700 2413 6 
L 3040 2485 
C 3046 2517 3059 2556 3059 2594 
C 3059 2689 2982 2753 2886 2753 
C 2829 2753 2694 2727 2643 2535 
L 2170 658 
C 2138 543 2138 530 2086 460 
C 1958 281 1747 64 1440 64 
C 1082 64 1050 415 1050 588 
C 1050 952 1222 1443 1395 1903 
C 1466 2088 1504 2178 1504 2305 
C 1504 2574 1312 2816 998 2816 
C 410 2816 173 1890 173 1839 
C 173 1814 198 1782 243 1782 
C 301 1782 307 1807 333 1897 
C 486 2433 730 2689 979 2689 
C 1037 2689 1146 2689 1146 2478 
C 1146 2312 1075 2127 979 1884 
C 666 1047 666 837 666 683 
C 666 77 1101 -64 1421 -64 
C 1606 -64 1837 -6 2061 230 
L 2067 224 
C 1971 -147 1907 -392 1683 -700 
z
" transform="scale(0.015625)"/>
      <path id="CMR17-3d" d="M 4115 2017 
C 4211 2017 4307 2017 4307 2125 
C 4307 2240 4198 2240 4090 2240 
L 512 2240 
C 403 2240 294 2240 294 2125 
C 294 2017 390 2017 486 2017 
L 4115 2017 
z
M 4090 896 
C 4198 896 4307 896 4307 1011 
C 4307 1119 4211 1119 4115 1119 
L 486 1119 
C 390 1119 294 1119 294 1011 
C 294 896 403 896 512 896 
L 4090 896 
z
" transform="scale(0.015625)"/>
      <path id="CMR17-36" d="M 678 2176 
C 678 3690 1395 4032 1811 4032 
C 1946 4032 2272 4009 2400 3776 
C 2298 3776 2106 3776 2106 3553 
C 2106 3381 2246 3323 2336 3323 
C 2394 3323 2566 3348 2566 3560 
C 2566 3954 2246 4179 1805 4179 
C 1043 4179 243 3390 243 1984 
C 243 253 966 -128 1478 -128 
C 2099 -128 2688 427 2688 1283 
C 2688 2081 2170 2662 1517 2662 
C 1126 2662 838 2407 678 1960 
L 678 2176 
z
M 1478 25 
C 691 25 691 1200 691 1436 
C 691 1896 909 2560 1504 2560 
C 1613 2560 1926 2560 2138 2120 
C 2253 1870 2253 1609 2253 1289 
C 2253 944 2253 690 2118 434 
C 1978 171 1773 25 1478 25 
z
" transform="scale(0.015625)"/>
     </defs>
     <use xlink:href="#CMMI12-72" transform="scale(0.996264)"/>
     <use xlink:href="#CMMI12-79" transform="translate(43.960894 -14.943915) scale(0.697382)"/>
     <use xlink:href="#CMR17-3d" transform="translate(107.93001 0) scale(0.996264)"/>
     <use xlink:href="#CMR17-30" transform="translate(207.318807 0) scale(0.996264)"/>
     <use xlink:href="#CMMI12-3a" transform="translate(253.009284 0) scale(0.996264)"/>
     <use xlink:href="#CMR17-36" transform="translate(280.106461 0) scale(0.996264)"/>
    </g>
   </g>
   <g id="legend_1">
    <g id="patch_7">
     <path d="M 44.241379 139.019296 
L 90.148294 139.019296 
Q 91.948294 139.019296 91.948294 137.219296 
L 91.948294 97.720168 
Q 91.948294 95.920168 90.148294 95.920168 
L 44.241379 95.920168 
Q 42.441379 95.920168 42.441379 97.720168 
L 42.441379 137.219296 
Q 42.441379 139.019296 44.241379 139.019296 
z
" style="fill: #ffffff; opacity: 0.8; stroke: #cccccc; stroke-width: 0.24; stroke-linejoin: miter"/>
    </g>
    <g id="line2d_19">
     <path d="M 46.041379 103.09495 
L 55.041379 103.09495 
L 64.041379 103.09495 
" style="fill: none; stroke: #ff7f0e; stroke-width: 0.5; stroke-linecap: square"/>
    </g>
    <g id="text_18">
     <!-- $\langle \sigma_z\rangle$ -->
     <g transform="translate(71.241379 106.24495) scale(0.09 -0.09)">
      <defs>
       <path id="CMSY10-68" d="M 2099 4557 
C 2131 4627 2131 4640 2131 4672 
C 2131 4742 2074 4800 2003 4800 
C 1946 4800 1901 4768 1856 4653 
L 736 1715 
C 723 1677 704 1638 704 1600 
C 704 1581 704 1568 736 1491 
L 1856 -1446 
C 1882 -1517 1914 -1600 2003 -1600 
C 2074 -1600 2131 -1542 2131 -1472 
C 2131 -1453 2131 -1440 2099 -1370 
L 966 1600 
L 2099 4557 
z
" transform="scale(0.015625)"/>
       <path id="CMMI12-1b" d="M 3251 2408 
C 3334 2408 3546 2408 3546 2612 
C 3546 2752 3424 2752 3309 2752 
L 1894 2752 
C 934 2752 243 1686 243 932 
C 243 390 595 -64 1171 -64 
C 1926 -64 2752 747 2752 1705 
C 2752 1954 2694 2196 2541 2408 
L 3251 2408 
z
M 1178 64 
C 851 64 614 313 614 754 
C 614 1137 845 2408 1786 2408 
C 2061 2408 2368 2274 2368 1781 
C 2368 1558 2266 1021 2042 652 
C 1811 275 1466 64 1178 64 
z
" transform="scale(0.015625)"/>
       <path id="CMMI12-7a" d="M 813 486 
C 1088 803 1312 1004 1632 1296 
C 2016 1632 2182 1793 2272 1891 
C 2720 2338 2944 2713 2944 2764 
C 2944 2816 2893 2816 2880 2816 
C 2835 2816 2822 2793 2790 2750 
C 2630 2494 2477 2367 2310 2367 
C 2176 2367 2106 2421 1984 2565 
C 1850 2715 1741 2816 1555 2816 
C 1088 2816 806 2257 806 2128 
C 806 2108 813 2068 870 2068 
C 922 2068 928 2091 947 2133 
C 1056 2372 1363 2414 1485 2414 
C 1619 2414 1747 2376 1882 2327 
C 2125 2240 2227 2240 2291 2240 
C 2336 2240 2362 2240 2394 2246 
C 2182 1994 1837 1683 1549 1418 
L 902 816 
C 512 415 275 33 275 -12 
C 275 -51 307 -64 346 -64 
C 384 -64 390 -57 435 14 
C 538 163 742 384 979 384 
C 1114 384 1178 342 1306 193 
C 1427 61 1536 -64 1741 -64 
C 2368 -64 2726 732 2726 876 
C 2726 903 2720 942 2656 942 
C 2605 942 2598 917 2579 855 
C 2438 488 2061 338 1811 338 
C 1677 338 1549 376 1414 425 
C 1158 512 1088 512 1005 512 
C 941 512 870 512 813 486 
z
" transform="scale(0.015625)"/>
       <path id="CMSY10-69" d="M 1747 1491 
C 1779 1568 1779 1581 1779 1600 
C 1779 1619 1779 1632 1747 1709 
L 627 4653 
C 589 4762 550 4800 480 4800 
C 410 4800 352 4742 352 4672 
C 352 4653 352 4640 384 4570 
L 1517 1600 
L 384 -1357 
C 352 -1427 352 -1440 352 -1472 
C 352 -1542 410 -1600 480 -1600 
C 563 -1600 589 -1536 614 -1472 
L 1747 1491 
z
" transform="scale(0.015625)"/>
      </defs>
      <use xlink:href="#CMSY10-68" transform="scale(0.996264)"/>
      <use xlink:href="#CMMI12-1b" transform="translate(38.743734 0) scale(0.996264)"/>
      <use xlink:href="#CMMI12-7a" transform="translate(94.189195 -14.943915) scale(0.697382)"/>
      <use xlink:href="#CMSY10-69" transform="translate(129.51575 0) scale(0.996264)"/>
     </g>
    </g>
    <g id="line2d_20">
     <path d="M 46.041379 116.561326 
L 55.041379 116.561326 
L 64.041379 116.561326 
" style="fill: none; stroke: #2ca02c; stroke-width: 0.5; stroke-linecap: square"/>
    </g>
    <g id="text_19">
     <!-- $\langle \sigma_x\rangle$ -->
     <g transform="translate(71.241379 119.711326) scale(0.09 -0.09)">
      <defs>
       <path id="CMMI12-78" d="M 3034 2606 
C 2829 2567 2752 2414 2752 2293 
C 2752 2139 2874 2088 2963 2088 
C 3155 2088 3290 2254 3290 2427 
C 3290 2695 2982 2816 2714 2816 
C 2323 2816 2106 2433 2048 2312 
C 1901 2816 1504 2816 1389 2816 
C 736 2816 390 1980 390 1839 
C 390 1814 416 1782 461 1782 
C 512 1782 525 1820 538 1846 
C 755 2555 1184 2689 1370 2689 
C 1658 2689 1715 2420 1715 2267 
C 1715 2127 1677 1980 1600 1673 
L 1382 798 
C 1286 415 1101 64 762 64 
C 730 64 570 64 435 147 
C 666 192 717 383 717 460 
C 717 588 621 664 499 664 
C 346 664 179 530 179 326 
C 179 57 480 -64 755 -64 
C 1062 -64 1280 179 1414 441 
C 1517 64 1837 -64 2074 -64 
C 2726 -64 3072 773 3072 913 
C 3072 945 3046 971 3008 971 
C 2950 971 2944 939 2925 888 
C 2752 326 2381 64 2093 64 
C 1869 64 1747 230 1747 492 
C 1747 632 1773 734 1875 1156 
L 2099 2024 
C 2195 2408 2413 2689 2707 2689 
C 2720 2689 2899 2689 3034 2606 
z
" transform="scale(0.015625)"/>
      </defs>
      <use xlink:href="#CMSY10-68" transform="scale(0.996264)"/>
      <use xlink:href="#CMMI12-1b" transform="translate(38.743734 0) scale(0.996264)"/>
      <use xlink:href="#CMMI12-78" transform="translate(94.189195 -14.943915) scale(0.697382)"/>
      <use xlink:href="#CMSY10-69" transform="translate(133.490986 0) scale(0.996264)"/>
     </g>
    </g>
    <g id="line2d_21">
     <path d="M 46.041379 130.027702 
L 55.041379 130.027702 
L 64.041379 130.027702 
" style="fill: none; stroke: #d62728; stroke-width: 0.5; stroke-linecap: square"/>
    </g>
    <g id="text_20">
     <!-- $\langle \sigma_y\rangle$ -->
     <g transform="translate(71.241379 133.177702) scale(0.09 -0.09)">
      <use xlink:href="#CMSY10-68" transform="scale(0.996264)"/>
      <use xlink:href="#CMMI12-1b" transform="translate(38.743734 0) scale(0.996264)"/>
      <use xlink:href="#CMMI12-79" transform="translate(94.189195 -14.943915) scale(0.697382)"/>
      <use xlink:href="#CMSY10-69" transform="translate(130.484301 0) scale(0.996264)"/>
     </g>
    </g>
   </g>
  </g>
 </g>
 <defs>
  <clipPath id="p9239f7364f">
   <rect x="37.941379" y="19.620366" width="208.058141" height="123.898929"/>
  </clipPath>
 </defs>
</svg>
