<?xml version="1.0" encoding="utf-8" standalone="no"?>
<!DOCTYPE svg PUBLIC "-//W3C//DTD SVG 1.1//EN"
  "http://www.w3.org/Graphics/SVG/1.1/DTD/svg11.dtd">
<svg xmlns:xlink="http://www.w3.org/1999/xlink" width="424.55952pt" height="181.19952pt" viewBox="0 0 424.55952 181.19952" xmlns="http://www.w3.org/2000/svg" version="1.1">
 <metadata>
  <rdf:RDF xmlns:dc="http://purl.org/dc/elements/1.1/" xmlns:cc="http://creativecommons.org/ns#" xmlns:rdf="http://www.w3.org/1999/02/22-rdf-syntax-ns#">
   <cc:Work>
    <dc:type rdf:resource="http://purl.org/dc/dcmitype/StillImage"/>
    <dc:date>1980-01-01T00:00:00+00:00</dc:date>
    <dc:format>image/svg+xml</dc:format>
    <dc:creator>
     <cc:Agent>
      <dc:title>Matplotlib v3.6.2, https://matplotlib.org/</dc:title>
     </cc:Agent>
    </dc:creator>
   </cc:Work>
  </rdf:RDF>
 </metadata>
 <defs>
  <style type="text/css">*{stroke-linejoin: round; stroke-linecap: butt}</style>
 </defs>
 <g id="figure_1">
  <g id="patch_1">
   <path d="M 0 181.19952 
L 424.55952 181.19952 
L 424.55952 0 
L 0 0 
z
" style="fill: #ffffff"/>
  </g>
  <g id="axes_1">
   <g id="patch_2">
    <path d="M 48.016452 137.87484 
L 411.018781 137.87484 
L 411.018781 7.2 
L 48.016452 7.2 
z
" style="fill: #ffffff"/>
   </g>
   <g id="matplotlib.axis_1">
    <g id="xtick_1">
     <g id="line2d_1">
      <defs>
       <path id="m5a0973b747" d="M 0 0 
L 0 3.5 
" style="stroke: #000000; stroke-width: 0.8"/>
      </defs>
      <g>
       <use xlink:href="#m5a0973b747" x="48.016452" y="137.87484" style="stroke: #000000; stroke-width: 0.8"/>
      </g>
     </g>
     <g id="text_1">
      <!-- $\mathdefault{0}$ -->
      <g transform="translate(44.846082 155.968868) scale(0.13 -0.13)">
       <defs>
        <path id="CMR17-30" d="M 2688 2025 
C 2688 2416 2682 3080 2413 3591 
C 2176 4039 1798 4198 1466 4198 
C 1158 4198 768 4058 525 3597 
C 269 3118 243 2524 243 2025 
C 243 1661 250 1106 448 619 
C 723 -39 1216 -128 1466 -128 
C 1760 -128 2208 -7 2470 600 
C 2662 1042 2688 1559 2688 2025 
z
M 1466 -26 
C 1056 -26 813 325 723 812 
C 653 1188 653 1738 653 2096 
C 653 2588 653 2997 736 3387 
C 858 3929 1216 4096 1466 4096 
C 1728 4096 2067 3923 2189 3400 
C 2272 3036 2278 2607 2278 2096 
C 2278 1680 2278 1169 2202 792 
C 2067 95 1690 -26 1466 -26 
z
" transform="scale(0.015625)"/>
       </defs>
       <use xlink:href="#CMR17-30" transform="scale(0.996264)"/>
      </g>
     </g>
    </g>
    <g id="xtick_2">
     <g id="line2d_2">
      <g>
       <use xlink:href="#m5a0973b747" x="108.51684" y="137.87484" style="stroke: #000000; stroke-width: 0.8"/>
      </g>
     </g>
     <g id="text_2">
      <!-- $\mathdefault{10}$ -->
      <g transform="translate(102.176101 155.968868) scale(0.13 -0.13)">
       <defs>
        <path id="CMR17-31" d="M 1702 4058 
C 1702 4192 1696 4192 1606 4192 
C 1357 3916 979 3827 621 3827 
C 602 3827 570 3827 563 3808 
C 557 3795 557 3782 557 3648 
C 755 3648 1088 3686 1344 3839 
L 1344 461 
C 1344 236 1331 160 781 160 
L 589 160 
L 589 0 
C 896 0 1216 0 1523 0 
C 1830 0 2150 0 2458 0 
L 2458 160 
L 2266 160 
C 1715 160 1702 230 1702 458 
L 1702 4058 
z
" transform="scale(0.015625)"/>
       </defs>
       <use xlink:href="#CMR17-31" transform="scale(0.996264)"/>
       <use xlink:href="#CMR17-30" transform="translate(45.690477 0) scale(0.996264)"/>
      </g>
     </g>
    </g>
    <g id="xtick_3">
     <g id="line2d_3">
      <g>
       <use xlink:href="#m5a0973b747" x="169.017228" y="137.87484" style="stroke: #000000; stroke-width: 0.8"/>
      </g>
     </g>
     <g id="text_3">
      <!-- $\mathdefault{20}$ -->
      <g transform="translate(162.676489 155.968868) scale(0.13 -0.13)">
       <defs>
        <path id="CMR17-32" d="M 2669 989 
L 2554 989 
C 2490 536 2438 459 2413 420 
C 2381 369 1920 369 1830 369 
L 602 369 
C 832 619 1280 1072 1824 1597 
C 2214 1967 2669 2402 2669 3035 
C 2669 3790 2067 4224 1395 4224 
C 691 4224 262 3604 262 3030 
C 262 2780 448 2748 525 2748 
C 589 2748 781 2787 781 3010 
C 781 3207 614 3264 525 3264 
C 486 3264 448 3258 422 3245 
C 544 3790 915 4058 1306 4058 
C 1862 4058 2227 3617 2227 3035 
C 2227 2479 1901 2000 1536 1584 
L 262 146 
L 262 0 
L 2515 0 
L 2669 989 
z
" transform="scale(0.015625)"/>
       </defs>
       <use xlink:href="#CMR17-32" transform="scale(0.996264)"/>
       <use xlink:href="#CMR17-30" transform="translate(45.690477 0) scale(0.996264)"/>
      </g>
     </g>
    </g>
    <g id="xtick_4">
     <g id="line2d_4">
      <g>
       <use xlink:href="#m5a0973b747" x="229.517616" y="137.87484" style="stroke: #000000; stroke-width: 0.8"/>
      </g>
     </g>
     <g id="text_4">
      <!-- $\mathdefault{30}$ -->
      <g transform="translate(223.176877 155.968868) scale(0.13 -0.13)">
       <defs>
        <path id="CMR17-33" d="M 1414 2157 
C 1984 2157 2234 1662 2234 1090 
C 2234 320 1824 25 1453 25 
C 1114 25 563 194 390 693 
C 422 680 454 680 486 680 
C 640 680 755 782 755 948 
C 755 1133 614 1216 486 1216 
C 378 1216 211 1165 211 926 
C 211 335 787 -128 1466 -128 
C 2176 -128 2720 430 2720 1085 
C 2720 1707 2208 2157 1600 2227 
C 2086 2328 2554 2756 2554 3329 
C 2554 3820 2048 4179 1472 4179 
C 890 4179 378 3829 378 3329 
C 378 3110 544 3072 627 3072 
C 762 3072 877 3155 877 3321 
C 877 3486 762 3569 627 3569 
C 602 3569 570 3569 544 3557 
C 730 3959 1235 4032 1459 4032 
C 1683 4032 2106 3925 2106 3320 
C 2106 3143 2080 2828 1862 2550 
C 1670 2304 1453 2304 1242 2284 
C 1210 2284 1062 2269 1037 2269 
C 992 2263 966 2257 966 2208 
C 966 2163 973 2157 1101 2157 
L 1414 2157 
z
" transform="scale(0.015625)"/>
       </defs>
       <use xlink:href="#CMR17-33" transform="scale(0.996264)"/>
       <use xlink:href="#CMR17-30" transform="translate(45.690477 0) scale(0.996264)"/>
      </g>
     </g>
    </g>
    <g id="xtick_5">
     <g id="line2d_5">
      <g>
       <use xlink:href="#m5a0973b747" x="290.018004" y="137.87484" style="stroke: #000000; stroke-width: 0.8"/>
      </g>
     </g>
     <g id="text_5">
      <!-- $\mathdefault{40}$ -->
      <g transform="translate(283.677265 155.968868) scale(0.13 -0.13)">
       <defs>
        <path id="CMR17-34" d="M 2150 4122 
C 2150 4256 2144 4256 2029 4256 
L 128 1254 
L 128 1088 
L 1779 1088 
L 1779 457 
C 1779 224 1766 160 1318 160 
L 1197 160 
L 1197 0 
C 1402 0 1747 0 1965 0 
C 2182 0 2528 0 2733 0 
L 2733 160 
L 2611 160 
C 2163 160 2150 224 2150 457 
L 2150 1088 
L 2803 1088 
L 2803 1254 
L 2150 1254 
L 2150 4122 
z
M 1798 3703 
L 1798 1254 
L 256 1254 
L 1798 3703 
z
" transform="scale(0.015625)"/>
       </defs>
       <use xlink:href="#CMR17-34" transform="scale(0.996264)"/>
       <use xlink:href="#CMR17-30" transform="translate(45.690477 0) scale(0.996264)"/>
      </g>
     </g>
    </g>
    <g id="xtick_6">
     <g id="line2d_6">
      <g>
       <use xlink:href="#m5a0973b747" x="350.518392" y="137.87484" style="stroke: #000000; stroke-width: 0.8"/>
      </g>
     </g>
     <g id="text_6">
      <!-- $\mathdefault{50}$ -->
      <g transform="translate(344.177653 155.968868) scale(0.13 -0.13)">
       <defs>
        <path id="CMR17-35" d="M 730 3692 
C 794 3666 1056 3584 1325 3584 
C 1920 3584 2246 3911 2432 4100 
C 2432 4157 2432 4192 2394 4192 
C 2387 4192 2374 4192 2323 4163 
C 2099 4058 1837 3973 1517 3973 
C 1325 3973 1037 3999 723 4139 
C 653 4171 640 4171 634 4171 
C 602 4171 595 4164 595 4037 
L 595 2203 
C 595 2089 595 2057 659 2057 
C 691 2057 704 2070 736 2114 
C 941 2401 1222 2522 1542 2522 
C 1766 2522 2246 2382 2246 1289 
C 2246 1085 2246 715 2054 421 
C 1894 159 1645 25 1370 25 
C 947 25 518 320 403 814 
C 429 807 480 795 506 795 
C 589 795 749 840 749 1038 
C 749 1210 627 1280 506 1280 
C 358 1280 262 1190 262 1011 
C 262 454 704 -128 1382 -128 
C 2042 -128 2669 440 2669 1264 
C 2669 2030 2170 2624 1549 2624 
C 1222 2624 947 2503 730 2274 
L 730 3692 
z
" transform="scale(0.015625)"/>
       </defs>
       <use xlink:href="#CMR17-35" transform="scale(0.996264)"/>
       <use xlink:href="#CMR17-30" transform="translate(45.690477 0) scale(0.996264)"/>
      </g>
     </g>
    </g>
    <g id="xtick_7">
     <g id="line2d_7">
      <g>
       <use xlink:href="#m5a0973b747" x="411.018781" y="137.87484" style="stroke: #000000; stroke-width: 0.8"/>
      </g>
     </g>
     <g id="text_7">
      <!-- $\mathdefault{60}$ -->
      <g transform="translate(404.678041 155.968868) scale(0.13 -0.13)">
       <defs>
        <path id="CMR17-36" d="M 678 2176 
C 678 3690 1395 4032 1811 4032 
C 1946 4032 2272 4009 2400 3776 
C 2298 3776 2106 3776 2106 3553 
C 2106 3381 2246 3323 2336 3323 
C 2394 3323 2566 3348 2566 3560 
C 2566 3954 2246 4179 1805 4179 
C 1043 4179 243 3390 243 1984 
C 243 253 966 -128 1478 -128 
C 2099 -128 2688 427 2688 1283 
C 2688 2081 2170 2662 1517 2662 
C 1126 2662 838 2407 678 1960 
L 678 2176 
z
M 1478 25 
C 691 25 691 1200 691 1436 
C 691 1896 909 2560 1504 2560 
C 1613 2560 1926 2560 2138 2120 
C 2253 1870 2253 1609 2253 1289 
C 2253 944 2253 690 2118 434 
C 1978 171 1773 25 1478 25 
z
" transform="scale(0.015625)"/>
       </defs>
       <use xlink:href="#CMR17-36" transform="scale(0.996264)"/>
       <use xlink:href="#CMR17-30" transform="translate(45.690477 0) scale(0.996264)"/>
      </g>
     </g>
    </g>
    <g id="text_8">
     <!-- $\tau$ -->
     <g transform="translate(226.763973 171.481208) scale(0.13 -0.13)">
      <defs>
       <path id="CMMI12-1c" d="M 1837 2408 
L 2899 2408 
C 2982 2408 3194 2408 3194 2612 
C 3194 2752 3072 2752 2957 2752 
L 1197 2752 
C 1050 2752 832 2752 538 2440 
C 371 2255 166 1917 166 1879 
C 166 1841 198 1828 237 1828 
C 282 1828 288 1847 320 1885 
C 653 2408 986 2408 1146 2408 
L 1677 2408 
L 1011 223 
C 979 127 979 114 979 95 
C 979 25 1024 -64 1152 -64 
C 1350 -64 1382 108 1402 203 
L 1837 2408 
z
" transform="scale(0.015625)"/>
      </defs>
      <use xlink:href="#CMMI12-1c" transform="scale(0.996264)"/>
     </g>
    </g>
   </g>
   <g id="matplotlib.axis_2">
    <g id="ytick_1">
     <g id="line2d_8">
      <defs>
       <path id="m290d515ec0" d="M 0 0 
L -3.5 0 
" style="stroke: #000000; stroke-width: 0.8"/>
      </defs>
      <g>
       <use xlink:href="#m290d515ec0" x="48.016452" y="131.935074" style="stroke: #000000; stroke-width: 0.8"/>
      </g>
     </g>
     <g id="text_9">
      <!-- $\mathdefault{0.0}$ -->
      <g transform="translate(22.71234 136.432088) scale(0.13 -0.13)">
       <defs>
        <path id="CMMI12-3a" d="M 1178 307 
C 1178 492 1024 619 870 619 
C 685 619 557 466 557 313 
C 557 128 710 0 864 0 
C 1050 0 1178 153 1178 307 
z
" transform="scale(0.015625)"/>
       </defs>
       <use xlink:href="#CMR17-30" transform="scale(0.996264)"/>
       <use xlink:href="#CMMI12-3a" transform="translate(45.690477 0) scale(0.996264)"/>
       <use xlink:href="#CMR17-30" transform="translate(72.787654 0) scale(0.996264)"/>
      </g>
     </g>
    </g>
    <g id="ytick_2">
     <g id="line2d_9">
      <g>
       <use xlink:href="#m290d515ec0" x="48.016452" y="84.416951" style="stroke: #000000; stroke-width: 0.8"/>
      </g>
     </g>
     <g id="text_10">
      <!-- $\mathdefault{0.2}$ -->
      <g transform="translate(22.71234 88.913965) scale(0.13 -0.13)">
       <use xlink:href="#CMR17-30" transform="scale(0.996264)"/>
       <use xlink:href="#CMMI12-3a" transform="translate(45.690477 0) scale(0.996264)"/>
       <use xlink:href="#CMR17-32" transform="translate(72.787654 0) scale(0.996264)"/>
      </g>
     </g>
    </g>
    <g id="ytick_3">
     <g id="line2d_10">
      <g>
       <use xlink:href="#m290d515ec0" x="48.016452" y="36.898827" style="stroke: #000000; stroke-width: 0.8"/>
      </g>
     </g>
     <g id="text_11">
      <!-- $\mathdefault{0.4}$ -->
      <g transform="translate(22.71234 41.395841) scale(0.13 -0.13)">
       <use xlink:href="#CMR17-30" transform="scale(0.996264)"/>
       <use xlink:href="#CMMI12-3a" transform="translate(45.690477 0) scale(0.996264)"/>
       <use xlink:href="#CMR17-34" transform="translate(72.787654 0) scale(0.996264)"/>
      </g>
     </g>
    </g>
    <g id="text_12">
     <!-- Operator Norm -->
     <g transform="translate(16.194028 115.511293) rotate(-90) scale(0.13 -0.13)">
      <defs>
       <path id="CMR17-4f" d="M 4307 2135 
C 4307 3437 3366 4416 2304 4416 
C 1216 4416 294 3424 294 2135 
C 294 845 1229 -128 2298 -128 
C 3392 -128 4307 864 4307 2135 
z
M 2304 -13 
C 1574 -13 781 711 781 2217 
C 781 3716 1651 4301 2298 4301 
C 2976 4301 3821 3698 3821 2217 
C 3821 686 3008 -13 2304 -13 
z
" transform="scale(0.015625)"/>
       <path id="CMR17-70" d="M 1408 -1063 
C 998 -1063 973 -1037 973 -789 
L 973 402 
C 1158 134 1427 -38 1766 -38 
C 2406 -38 3053 523 3053 1388 
C 3053 2191 2496 2802 1837 2802 
C 1453 2802 1139 2592 960 2338 
L 960 2802 
L 198 2732 
L 198 2567 
C 576 2567 634 2528 634 2223 
L 634 -789 
C 634 -1031 608 -1063 198 -1063 
L 198 -1228 
C 352 -1216 634 -1216 800 -1216 
C 966 -1216 1254 -1216 1408 -1228 
L 1408 -1063 
z
M 973 2012 
C 973 2102 973 2235 1222 2471 
C 1254 2497 1472 2688 1792 2688 
C 2259 2688 2643 2108 2643 1382 
C 2643 656 2234 64 1728 64 
C 1498 64 1248 172 1056 472 
C 973 612 973 650 973 752 
L 973 2012 
z
" transform="scale(0.015625)"/>
       <path id="CMR17-65" d="M 2438 1472 
C 2464 1498 2464 1511 2464 1576 
C 2464 2238 2118 2816 1389 2816 
C 710 2816 173 2169 173 1383 
C 173 551 781 -64 1459 -64 
C 2176 -64 2458 607 2458 740 
C 2458 784 2419 784 2406 784 
C 2362 784 2355 771 2330 696 
C 2189 265 1837 51 1504 51 
C 1229 51 954 203 781 480 
C 582 803 582 1176 582 1472 
L 2438 1472 
z
M 589 1568 
C 634 2505 1126 2714 1382 2714 
C 1818 2714 2112 2297 2118 1568 
L 589 1568 
z
" transform="scale(0.015625)"/>
       <path id="CMR17-72" d="M 960 1497 
C 960 2112 1222 2688 1702 2688 
C 1747 2688 1792 2682 1837 2662 
C 1837 2662 1696 2617 1696 2452 
C 1696 2298 1818 2234 1914 2234 
C 1990 2234 2131 2279 2131 2458 
C 2131 2663 1926 2790 1709 2790 
C 1222 2790 1011 2317 947 2093 
L 941 2093 
L 941 2790 
L 198 2720 
L 198 2554 
C 576 2554 634 2515 634 2208 
L 634 428 
C 634 184 608 153 198 153 
L 198 -13 
C 352 0 646 0 813 0 
C 998 0 1325 0 1498 -13 
L 1498 153 
C 1037 153 960 153 960 440 
L 960 1497 
z
" transform="scale(0.015625)"/>
       <path id="CMR17-61" d="M 2304 1653 
C 2304 2072 2304 2294 2035 2543 
C 1798 2752 1523 2816 1306 2816 
C 800 2816 435 2407 435 1971 
C 435 1728 627 1728 666 1728 
C 749 1728 896 1778 896 1954 
C 896 2112 774 2181 666 2181 
C 640 2181 608 2174 589 2168 
C 723 2592 1069 2714 1293 2714 
C 1613 2714 1965 2429 1965 1885 
L 1965 1600 
C 1587 1600 1133 1549 774 1357 
C 371 1133 256 813 256 570 
C 256 77 832 -64 1171 -64 
C 1523 -64 1850 139 1990 511 
C 2003 233 2182 -18 2464 -18 
C 2598 -18 2938 70 2938 567 
L 2938 920 
L 2822 920 
L 2822 562 
C 2822 178 2650 128 2566 128 
C 2304 128 2304 458 2304 738 
L 2304 1653 
z
M 1965 870 
C 1965 317 1568 38 1216 38 
C 896 38 646 275 646 570 
C 646 761 730 1100 1101 1305 
C 1408 1478 1760 1504 1965 1504 
L 1965 870 
z
" transform="scale(0.015625)"/>
       <path id="CMR17-74" d="M 966 2560 
L 1862 2560 
L 1862 2725 
L 966 2725 
L 966 3904 
L 851 3904 
C 838 3245 614 2668 70 2668 
L 70 2560 
L 627 2560 
L 627 771 
C 627 650 627 -64 1370 -64 
C 1747 -64 1965 306 1965 777 
L 1965 1140 
L 1850 1140 
L 1850 783 
C 1850 344 1677 51 1408 51 
C 1222 51 966 178 966 758 
L 966 2560 
z
" transform="scale(0.015625)"/>
       <path id="CMR17-6f" d="M 2758 1356 
C 2758 2176 2163 2816 1466 2816 
C 768 2816 173 2176 173 1356 
C 173 551 768 -64 1466 -64 
C 2163 -64 2758 551 2758 1356 
z
M 1466 51 
C 1165 51 909 230 762 480 
C 602 767 582 1126 582 1408 
C 582 1677 595 2010 762 2298 
C 890 2509 1139 2714 1466 2714 
C 1754 2714 1997 2554 2150 2330 
C 2349 2029 2349 1607 2349 1408 
C 2349 1158 2336 775 2163 467 
C 1984 173 1709 51 1466 51 
z
" transform="scale(0.015625)"/>
       <path id="CMR17-4e" d="M 1312 4250 
C 1267 4320 1261 4320 1139 4320 
L 326 4320 
L 326 4160 
L 448 4160 
C 704 4160 819 4129 838 4122 
L 838 610 
C 838 451 838 153 326 153 
L 326 -13 
C 474 0 742 0 902 0 
C 1062 0 1331 0 1478 -13 
L 1478 153 
C 966 153 966 451 966 610 
L 966 4033 
C 1011 3995 1011 3982 1056 3919 
L 3430 76 
C 3475 0 3494 0 3526 0 
C 3590 0 3590 19 3590 139 
L 3590 3705 
C 3590 3863 3590 4160 4102 4160 
L 4102 4326 
C 3955 4320 3686 4320 3526 4320 
C 3366 4320 3098 4320 2950 4326 
L 2950 4160 
C 3462 4160 3462 3862 3462 3703 
L 3462 763 
L 1312 4250 
z
" transform="scale(0.015625)"/>
       <path id="CMR17-6d" d="M 4326 1933 
C 4326 2252 4269 2790 3507 2790 
C 3072 2790 2771 2496 2656 2151 
L 2650 2151 
C 2573 2676 2195 2790 1837 2790 
C 1331 2790 1069 2400 973 2144 
L 966 2144 
L 966 2790 
L 211 2720 
L 211 2554 
C 589 2554 646 2515 646 2208 
L 646 428 
C 646 184 621 153 211 153 
L 211 -13 
C 365 0 646 0 813 0 
C 979 0 1267 0 1421 -13 
L 1421 153 
C 1011 153 986 178 986 428 
L 986 1658 
C 986 2247 1344 2688 1792 2688 
C 2266 2688 2317 2266 2317 1958 
L 2317 428 
C 2317 184 2291 153 1882 153 
L 1882 -13 
C 2035 0 2317 0 2483 0 
C 2650 0 2938 0 3091 -13 
L 3091 153 
C 2682 153 2656 178 2656 428 
L 2656 1658 
C 2656 2247 3014 2688 3462 2688 
C 3936 2688 3987 2266 3987 1958 
L 3987 428 
C 3987 184 3962 153 3552 153 
L 3552 -13 
C 3706 0 3987 0 4154 0 
C 4320 0 4608 0 4762 -13 
L 4762 153 
C 4352 153 4326 178 4326 428 
L 4326 1933 
z
" transform="scale(0.015625)"/>
      </defs>
      <use xlink:href="#CMR17-4f" transform="scale(0.996264)"/>
      <use xlink:href="#CMR17-70" transform="translate(71.714788 0) scale(0.996264)"/>
      <use xlink:href="#CMR17-65" transform="translate(125.212597 0) scale(0.996264)"/>
      <use xlink:href="#CMR17-72" transform="translate(165.698257 0) scale(0.996264)"/>
      <use xlink:href="#CMR17-61" transform="translate(200.979025 0) scale(0.996264)"/>
      <use xlink:href="#CMR17-74" transform="translate(246.669502 0) scale(0.996264)"/>
      <use xlink:href="#CMR17-6f" transform="translate(281.95027 0) scale(0.996264)"/>
      <use xlink:href="#CMR17-72" transform="translate(327.640747 0) scale(0.996264)"/>
      <use xlink:href="#CMR17-4e" transform="translate(392.997481 0) scale(0.996264)"/>
      <use xlink:href="#CMR17-6f" transform="translate(462.069911 0) scale(0.996264)"/>
      <use xlink:href="#CMR17-72" transform="translate(507.760388 0) scale(0.996264)"/>
      <use xlink:href="#CMR17-6d" transform="translate(543.041156 0) scale(0.996264)"/>
     </g>
    </g>
   </g>
   <g id="line2d_11">
    <path d="M 48.016452 131.935074 
L 93.437164 131.848353 
L 94.527261 131.602396 
L 95.617358 131.113961 
L 96.707455 130.320707 
L 97.797552 129.173953 
L 98.887649 127.637838 
L 99.977746 125.688486 
L 101.067843 123.31316 
L 102.521306 119.480609 
L 103.974769 114.907558 
L 105.428232 109.640397 
L 107.24506 102.187704 
L 109.425254 92.208897 
L 112.33218 77.769351 
L 117.782665 50.521815 
L 119.96286 40.772799 
L 121.779688 33.569591 
L 123.233151 28.531731 
L 124.686614 24.206493 
L 126.140076 20.631698 
L 127.230173 18.45038 
L 128.320271 16.69059 
L 129.410368 15.334644 
L 130.500465 14.353337 
L 131.590562 13.7051 
L 132.680659 13.335164 
L 134.134122 13.153767 
L 138.49451 13.139765 
L 187.912244 13.240043 
L 189.002341 13.504188 
L 190.092439 14.016774 
L 191.182536 14.838928 
L 192.272633 16.018185 
L 193.36273 17.589334 
L 194.452827 19.575253 
L 195.542924 21.987753 
L 196.996387 25.869347 
L 198.449849 30.48919 
L 199.903312 35.799298 
L 201.720141 43.298218 
L 203.900335 53.318788 
L 207.170626 69.640194 
L 211.89438 93.282791 
L 214.074574 103.159182 
L 215.891403 110.499717 
L 217.708231 116.846445 
L 219.161694 121.123774 
L 220.615157 124.649119 
L 221.705254 126.79348 
L 222.795351 128.517411 
L 223.885448 129.839561 
L 224.975545 130.790173 
L 226.065642 131.411927 
L 227.155739 131.760777 
L 228.609202 131.924634 
L 233.696322 131.935074 
L 411.018781 131.935074 
L 411.018781 131.935074 
" clip-path="url(#p8a7b07ddff)" style="fill: none; stroke: #d3d3d3; stroke-width: 3; stroke-linecap: square"/>
   </g>
   <g id="line2d_12">
    <path d="M 48.016452 131.935074 
L 209.714186 131.831485 
L 210.804283 131.563062 
L 211.89438 131.044836 
L 212.984477 130.215963 
L 214.074574 129.029168 
L 215.164671 127.449909 
L 216.254768 125.455538 
L 217.344866 123.034459 
L 218.798328 119.141559 
L 220.251791 114.510947 
L 221.705254 109.19097 
L 223.522082 101.681452 
L 225.702277 91.651345 
L 228.972568 75.323309 
L 233.696322 51.688582 
L 235.876516 41.822312 
L 237.693344 34.492772 
L 239.510173 28.158824 
L 240.963636 23.892573 
L 242.417098 20.378645 
L 243.507196 18.242805 
L 244.597293 16.527129 
L 245.68739 15.212746 
L 246.777487 14.269172 
L 247.867584 13.653471 
L 248.957681 13.309413 
L 250.411144 13.149479 
L 255.861629 13.139765 
L 303.825901 13.207211 
L 304.915998 13.425013 
L 306.006095 13.875425 
L 307.096192 14.62277 
L 308.186289 15.717591 
L 309.276386 17.197492 
L 310.366483 19.087979 
L 311.45658 21.403295 
L 312.910043 25.156444 
L 314.363506 29.653495 
L 315.816969 34.85066 
L 317.633797 42.227668 
L 319.813991 52.13753 
L 322.720917 66.529103 
L 328.171402 93.833657 
L 330.351596 103.655647 
L 332.168425 110.937252 
L 333.985253 117.215617 
L 335.438716 121.433772 
L 336.892179 124.898205 
L 337.982276 126.997161 
L 339.072373 128.677151 
L 340.16247 129.958018 
L 341.252567 130.871292 
L 342.342664 131.461029 
L 343.432761 131.784648 
L 344.886224 131.928124 
L 352.153538 131.935074 
L 411.018781 131.935074 
L 411.018781 131.935074 
" clip-path="url(#p8a7b07ddff)" style="fill: none; stroke-dasharray: 1.85,0.8; stroke-dashoffset: 0; stroke: #1f77b4; stroke-width: 0.5"/>
   </g>
   <g id="line2d_13">
    <path d="M 48.016452 131.935074 
L 231.516128 131.828102 
L 232.606225 131.555371 
L 233.696322 131.031483 
L 234.786419 130.19587 
L 235.876516 129.001523 
L 236.966613 127.414146 
L 238.05671 125.411319 
L 239.146807 122.981659 
L 240.60027 119.07746 
L 242.053733 114.436089 
L 243.507196 109.106259 
L 245.324024 101.586168 
L 247.504218 91.546562 
L 250.774509 75.211961 
L 255.498263 51.585197 
L 257.678458 41.729084 
L 259.495286 34.410566 
L 261.312115 28.089415 
L 262.765577 23.83425 
L 264.21904 20.331742 
L 265.309137 18.204418 
L 266.399234 16.496991 
L 267.489331 15.190363 
L 268.579428 14.25381 
L 269.669526 13.644138 
L 270.759623 13.304844 
L 272.213085 13.148787 
L 278.026936 13.139765 
L 325.627842 13.209773 
L 326.71794 13.431503 
L 327.808037 13.887271 
L 328.898134 14.641115 
L 329.988231 15.743311 
L 331.078328 17.231213 
L 332.168425 19.130093 
L 333.258522 21.453978 
L 334.711985 25.218482 
L 336.165448 29.72642 
L 337.61891 34.933631 
L 339.435739 42.321527 
L 341.615933 52.241349 
L 344.522859 66.639947 
L 349.973344 93.93668 
L 352.153538 103.748353 
L 353.970367 111.018831 
L 355.423829 116.118123 
L 356.877292 120.509429 
L 358.330755 124.152618 
L 359.420852 126.385191 
L 360.510949 128.19485 
L 361.601046 129.59795 
L 362.691143 130.622271 
L 363.78124 131.307852 
L 364.871337 131.707835 
L 365.961434 131.889303 
L 368.141629 131.935074 
L 411.018781 131.935074 
L 411.018781 131.935074 
" clip-path="url(#p8a7b07ddff)" style="fill: none; stroke-dasharray: 3.2,0.8,0.5,0.8; stroke-dashoffset: 0; stroke: #ff7f0e; stroke-width: 0.5"/>
   </g>
   <g id="line2d_14">
    <path d="M 48.016452 131.935074 
L 253.318069 131.824649 
L 254.408166 131.54758 
L 255.498263 131.018004 
L 256.588361 130.175633 
L 257.678458 128.973721 
L 258.768555 127.378217 
L 259.858652 125.366929 
L 260.948749 122.928687 
L 262.402212 119.013194 
L 263.855674 114.361076 
L 265.309137 109.02141 
L 267.125966 101.490772 
L 269.30616 91.441703 
L 272.576451 75.100602 
L 277.300205 51.481895 
L 279.480399 41.635977 
L 281.297228 34.328504 
L 283.114056 28.020168 
L 284.567519 23.776097 
L 286.020982 20.28501 
L 287.111079 18.1662 
L 288.201176 16.467013 
L 289.291273 15.168128 
L 290.38137 14.238579 
L 291.471467 13.634914 
L 292.561564 13.300355 
L 294.015027 13.148128 
L 300.192244 13.139765 
L 347.429784 13.212398 
L 348.519881 13.438088 
L 349.609978 13.899237 
L 350.700075 14.6596 
L 351.790172 15.769185 
L 352.880269 17.265098 
L 353.970367 19.172377 
L 355.060464 21.504832 
L 356.513926 25.280688 
L 357.967389 29.799504 
L 359.420852 35.016745 
L 361.23768 42.415504 
L 363.417875 52.34525 
L 366.3248 66.750814 
L 371.775286 94.039618 
L 373.95548 103.840939 
L 375.772308 111.100266 
L 377.225771 116.189354 
L 378.679234 120.569671 
L 380.132697 124.201468 
L 381.222794 126.425493 
L 382.312891 128.226823 
L 383.402988 129.622036 
L 384.493085 130.639147 
L 385.583182 131.31845 
L 386.673279 131.713358 
L 387.763376 131.89124 
L 389.94357 131.935074 
L 411.018781 131.935074 
L 411.018781 131.935074 
" clip-path="url(#p8a7b07ddff)" style="fill: none; stroke-dasharray: 0.5,0.825; stroke-dashoffset: 0; stroke: #2ca02c; stroke-width: 0.5"/>
   </g>
   <g id="line2d_15">
    <path d="M 48.016452 131.935074 
L 274.756645 131.870948 
L 275.846742 131.658336 
L 276.936839 131.215025 
L 278.026936 130.476313 
L 279.117034 129.391302 
L 280.207131 127.922052 
L 281.297228 126.042747 
L 282.387325 123.738854 
L 283.840788 120.000853 
L 285.29425 115.518334 
L 286.747713 110.334585 
L 288.564542 102.972133 
L 290.744736 93.075611 
L 293.651661 78.69349 
L 299.465512 49.670992 
L 301.645707 40.011145 
L 303.462535 32.902789 
L 304.915998 27.951084 
L 306.369461 23.718114 
L 307.822923 20.238449 
L 308.913021 18.12815 
L 310.003118 16.437196 
L 311.093215 15.146041 
L 312.183312 14.223479 
L 313.273409 13.625798 
L 314.363506 13.295947 
L 315.816969 13.147502 
L 322.357551 13.139765 
L 369.231726 13.215086 
L 370.321823 13.444768 
L 371.41192 13.911323 
L 372.502017 14.678225 
L 373.592114 15.795215 
L 374.682211 17.299148 
L 375.772308 19.214831 
L 376.862405 21.555858 
L 378.315868 25.343061 
L 379.769331 29.872745 
L 381.222794 35.100001 
L 383.039622 42.509597 
L 385.219816 52.44923 
L 388.126742 66.861704 
L 393.577227 94.14247 
L 395.757421 103.933403 
L 397.57425 111.181555 
L 399.027713 116.260426 
L 400.481175 120.629744 
L 401.934638 124.250147 
L 403.024735 126.465624 
L 404.114832 128.258633 
L 405.204929 129.64597 
L 406.295027 130.655888 
L 407.385124 131.328935 
L 408.475221 131.718794 
L 409.565318 131.893123 
L 411.018781 131.935074 
L 411.018781 131.935074 
" clip-path="url(#p8a7b07ddff)" style="fill: none; stroke: #d62728; stroke-width: 0.5; stroke-linecap: square"/>
   </g>
   <g id="line2d_16">
    <path d="M 48.016452 72.53742 
L 52.013475 92.52155 
L 54.193669 102.471032 
L 56.010497 109.891441 
L 57.827326 116.331337 
L 59.280789 120.689649 
L 60.734251 124.298653 
L 61.824348 126.505587 
L 62.914446 128.290281 
L 64.004543 129.669753 
L 65.09464 130.672493 
L 66.184737 131.339305 
L 67.274834 131.724143 
L 68.364931 131.894952 
L 70.545125 131.935074 
L 296.558587 131.868468 
L 297.648684 131.65197 
L 298.738781 131.203337 
L 299.828878 130.458154 
L 300.918975 129.365788 
L 302.009072 127.888551 
L 303.099169 126.000861 
L 304.189266 123.6884 
L 305.642729 119.939038 
L 307.096192 115.445619 
L 308.549655 110.251805 
L 310.366483 102.878431 
L 312.546677 92.971899 
L 315.453603 78.582679 
L 320.904088 51.275542 
L 323.084283 41.450122 
L 324.901111 34.164813 
L 326.71794 27.882161 
L 328.171402 23.660301 
L 329.624865 20.19206 
L 330.714962 18.090268 
L 331.805059 16.407539 
L 332.895156 15.124102 
L 333.985253 14.208509 
L 335.07535 13.616789 
L 336.165448 13.291617 
L 337.61891 13.146907 
L 344.522859 13.139765 
L 391.033667 13.217839 
L 392.123764 13.451543 
L 393.213862 13.92353 
L 394.303959 14.69699 
L 395.394056 15.821399 
L 396.484153 17.333364 
L 397.57425 19.257456 
L 398.664347 21.607056 
L 400.11781 25.405603 
L 401.571273 29.946144 
L 403.024735 35.183399 
L 404.841564 42.603808 
L 407.021758 52.55329 
L 409.928683 66.972617 
L 411.018781 72.53742 
L 411.018781 72.53742 
" clip-path="url(#p8a7b07ddff)" style="fill: none; stroke-dasharray: 1.85,0.8; stroke-dashoffset: 0; stroke: #9467bd; stroke-width: 0.5"/>
   </g>
   <g id="line2d_17">
    <path d="M 48.016452 13.139765 
L 49.833281 13.220655 
L 50.923378 13.458413 
L 52.013475 13.935858 
L 53.103572 14.715896 
L 54.193669 15.84774 
L 55.283766 17.367744 
L 56.373863 19.300251 
L 57.46396 21.658426 
L 58.917423 25.468311 
L 60.370886 30.019699 
L 61.824348 35.266939 
L 63.641177 42.698134 
L 65.821371 52.657429 
L 68.728297 67.083553 
L 74.178782 94.34792 
L 76.358976 104.117966 
L 78.175805 111.343694 
L 79.629267 116.402088 
L 81.08273 120.749384 
L 82.536193 124.346988 
L 83.62629 126.54538 
L 84.716387 128.321766 
L 85.806484 129.693385 
L 86.896581 130.688964 
L 87.986678 131.349563 
L 89.076776 131.729406 
L 90.530238 131.91919 
L 94.527261 131.935074 
L 318.360529 131.865927 
L 319.450626 131.64551 
L 320.540723 131.191531 
L 321.63082 130.439855 
L 322.720917 129.340119 
L 323.811014 127.854885 
L 324.901111 125.958804 
L 325.991208 123.637775 
L 327.444671 119.877056 
L 328.898134 115.372745 
L 330.351596 110.168881 
L 332.168425 102.784612 
L 334.348619 92.868106 
L 337.255545 78.471843 
L 342.70603 51.172492 
L 344.886224 41.357375 
L 346.703053 34.083185 
L 348.156515 28.980496 
L 349.609978 24.585529 
L 351.063441 20.938543 
L 352.153538 18.70312 
L 353.243635 16.890684 
L 354.333732 15.484952 
L 355.423829 14.458225 
L 356.513926 13.770546 
L 357.604024 13.368865 
L 358.694121 13.186194 
L 360.874315 13.139765 
L 411.018781 13.139765 
L 411.018781 13.139765 
" clip-path="url(#p8a7b07ddff)" style="fill: none; stroke-dasharray: 3.2,0.8,0.5,0.8; stroke-dashoffset: 0; stroke: #8c564b; stroke-width: 0.5"/>
   </g>
   <g id="line2d_18">
    <path d="M 48.016452 13.139765 
L 71.635222 13.223538 
L 72.725319 13.46538 
L 73.815416 13.948307 
L 74.905513 14.734944 
L 75.995611 15.874235 
L 77.085708 17.40229 
L 78.175805 19.343217 
L 79.265902 21.709967 
L 80.719365 25.531187 
L 82.172827 30.093412 
L 83.62629 35.35062 
L 85.443119 42.792577 
L 87.623313 52.761646 
L 90.530238 67.19451 
L 95.980724 94.450515 
L 98.160918 104.210065 
L 99.977746 111.424545 
L 101.431209 116.472679 
L 102.884672 120.80895 
L 104.338135 124.395151 
L 105.428232 126.585004 
L 106.518329 128.353089 
L 107.608426 129.716865 
L 108.698523 130.705301 
L 109.78862 131.359707 
L 110.878717 131.734583 
L 112.33218 131.920151 
L 116.329203 131.935074 
L 340.16247 131.863323 
L 341.252567 131.638957 
L 342.342664 131.179604 
L 343.432761 130.421417 
L 344.522859 129.314296 
L 345.612956 127.821055 
L 346.703053 125.916577 
L 347.79315 123.586978 
L 349.246613 119.814906 
L 350.700075 115.299714 
L 352.153538 110.085815 
L 353.970367 102.690674 
L 356.150561 92.764232 
L 359.057486 78.360984 
L 364.507972 51.069525 
L 366.688166 41.264749 
L 368.504994 34.001702 
L 369.958457 28.909211 
L 371.41192 24.525231 
L 372.865383 20.889635 
L 373.95548 18.662762 
L 375.045577 16.858656 
L 376.135674 15.460815 
L 377.225771 14.441303 
L 378.315868 13.759909 
L 379.405965 13.363313 
L 380.496062 13.184239 
L 382.676256 13.139765 
L 411.018781 13.139765 
L 411.018781 13.139765 
" clip-path="url(#p8a7b07ddff)" style="fill: none; stroke-dasharray: 0.5,0.825; stroke-dashoffset: 0; stroke: #e377c2; stroke-width: 0.5"/>
   </g>
   <g id="line2d_19">
    <path d="M 48.016452 13.139765 
L 93.437164 13.226486 
L 94.527261 13.472444 
L 95.617358 13.960879 
L 96.707455 14.754133 
L 97.797552 15.900887 
L 98.887649 17.437001 
L 99.977746 19.386354 
L 101.067843 21.76168 
L 102.521306 25.594231 
L 103.974769 30.167282 
L 105.428232 35.434442 
L 107.24506 42.887135 
L 109.425254 52.865943 
L 112.33218 67.305488 
L 117.782665 94.553024 
L 119.96286 104.302041 
L 121.779688 111.505249 
L 123.233151 116.543109 
L 124.686614 120.868347 
L 126.140076 124.443142 
L 127.230173 126.624459 
L 128.320271 128.38425 
L 129.410368 129.740196 
L 130.500465 130.721503 
L 131.590562 131.369739 
L 132.680659 131.739675 
L 134.134122 131.921073 
L 138.49451 131.935074 
L 361.964412 131.860656 
L 363.054509 131.632309 
L 364.144606 131.167558 
L 365.234703 130.402839 
L 366.3248 129.288319 
L 367.414897 127.78706 
L 368.504994 125.874179 
L 369.595091 123.536009 
L 371.048554 119.752588 
L 372.502017 115.226526 
L 373.95548 110.002607 
L 375.772308 102.59662 
L 377.952502 92.660279 
L 380.859428 78.250101 
L 386.309913 50.966644 
L 388.490108 41.172245 
L 390.306936 33.920365 
L 391.760399 28.838087 
L 393.213862 24.465101 
L 394.667324 20.8409 
L 395.757421 18.622574 
L 396.847518 16.826792 
L 397.937616 15.436831 
L 399.027713 14.424517 
L 400.11781 13.749387 
L 401.207907 13.357848 
L 402.298004 13.182338 
L 404.478198 13.139765 
L 411.018781 13.139765 
L 411.018781 13.139765 
" clip-path="url(#p8a7b07ddff)" style="fill: none; stroke: #7f7f7f; stroke-width: 0.5; stroke-linecap: square"/>
   </g>
   <g id="line2d_20">
    <path d="M 48.016452 38.072114 
L 49.833281 31.217807 
L 51.286743 26.494327 
L 52.740206 22.503676 
L 54.193669 19.271702 
L 55.283766 17.344805 
L 56.373863 15.830162 
L 57.46396 14.703277 
L 58.554057 13.927626 
L 59.644154 13.453822 
L 60.734251 13.21877 
L 62.187714 13.140368 
L 114.512374 13.161066 
L 115.965837 13.372615 
L 117.055934 13.777701 
L 118.146031 14.469581 
L 119.236128 15.501127 
L 120.326225 16.912126 
L 121.416322 18.730119 
L 122.506419 20.971243 
L 123.596516 23.641068 
L 125.049979 27.859223 
L 126.503442 32.797057 
L 128.320271 39.890085 
L 130.500465 49.535436 
L 133.044025 61.900844 
L 140.311338 98.01715 
L 142.491533 107.38318 
L 144.308361 114.185442 
L 145.761824 118.862594 
L 147.215287 122.804421 
L 148.668749 125.986861 
L 149.758846 127.877347 
L 150.848944 129.357249 
L 151.939041 130.45207 
L 153.029138 131.199415 
L 154.119235 131.649827 
L 155.209332 131.867628 
L 157.02616 131.935074 
L 383.766353 131.857926 
L 384.856451 131.625566 
L 385.946548 131.155392 
L 387.036645 130.38412 
L 388.126742 129.262186 
L 389.216839 127.752899 
L 390.306936 125.831611 
L 391.397033 123.484869 
L 392.850496 119.690103 
L 394.303959 115.15318 
L 395.757421 109.919256 
L 397.57425 102.502448 
L 399.754444 92.556245 
L 402.66137 78.139196 
L 408.111855 50.863848 
L 410.292049 41.079861 
L 411.018781 38.072114 
L 411.018781 38.072114 
" clip-path="url(#p8a7b07ddff)" style="fill: none; stroke-dasharray: 1.85,0.8; stroke-dashoffset: 0; stroke: #bcbd22; stroke-width: 0.5"/>
   </g>
   <g id="line2d_21">
    <path d="M 48.016452 127.718574 
L 49.106549 125.788873 
L 50.196646 123.433556 
L 51.650109 119.62745 
L 53.103572 115.079676 
L 54.557035 109.835763 
L 56.373863 102.408161 
L 58.554057 92.452133 
L 61.460983 78.028268 
L 66.911468 50.761137 
L 69.091662 40.9876 
L 70.908491 33.758128 
L 72.361954 28.696317 
L 73.815416 24.345349 
L 75.268879 20.743944 
L 76.358976 18.542705 
L 77.449073 16.763551 
L 78.53917 15.389315 
L 79.629267 14.391351 
L 80.719365 13.728684 
L 81.809462 13.347179 
L 83.262924 13.155978 
L 86.896581 13.139765 
L 137.041047 13.232584 
L 138.131144 13.486865 
L 139.221241 13.986389 
L 140.311338 14.792936 
L 141.401435 15.954659 
L 142.491533 17.506921 
L 143.58163 19.47314 
L 144.671727 21.865621 
L 146.12519 25.720818 
L 147.578652 30.31549 
L 149.032115 35.60251 
L 150.848944 43.076598 
L 153.029138 53.074768 
L 156.299429 69.380454 
L 161.023183 93.041049 
L 163.203377 102.940912 
L 165.020206 110.307008 
L 166.837034 116.683486 
L 168.290497 120.986632 
L 169.74396 124.538609 
L 170.834057 126.702862 
L 171.924154 128.446086 
L 173.014251 129.786406 
L 174.104348 130.753507 
L 175.194445 131.389469 
L 176.284542 131.749608 
L 177.738005 131.922802 
L 182.461759 131.935074 
L 405.568295 131.85513 
L 406.658392 131.618727 
L 407.748489 131.143104 
L 408.838586 130.365261 
L 409.928683 129.235897 
L 411.018781 127.718574 
L 411.018781 127.718574 
" clip-path="url(#p8a7b07ddff)" style="fill: none; stroke-dasharray: 3.2,0.8,0.5,0.8; stroke-dashoffset: 0; stroke: #17becf; stroke-width: 0.5"/>
   </g>
   <g id="line2d_22">
    <path d="M 48.016452 131.935074 
L 64.367908 131.85227 
L 65.458005 131.611793 
L 66.548103 131.130695 
L 67.6382 130.346261 
L 68.728297 129.209454 
L 69.818394 127.684083 
L 70.908491 125.745963 
L 71.998588 123.382072 
L 73.452051 119.56463 
L 74.905513 115.006016 
L 76.358976 109.752129 
L 78.175805 102.313756 
L 80.355999 92.347941 
L 83.262924 77.917318 
L 88.71341 50.658513 
L 90.893604 40.895461 
L 92.710432 33.677229 
L 94.163895 28.625673 
L 95.617358 24.285726 
L 97.070821 20.695724 
L 98.160918 18.503025 
L 99.251015 16.732174 
L 100.341112 15.365784 
L 101.431209 14.37497 
L 102.521306 13.718501 
L 103.611403 13.341973 
L 105.064866 13.155004 
L 109.061889 13.139765 
L 158.842989 13.235735 
L 159.933086 13.494223 
L 161.023183 13.999329 
L 162.11328 14.812552 
L 163.203377 15.98178 
L 164.293474 17.54213 
L 165.383571 19.516789 
L 166.473668 21.917849 
L 167.927131 25.784362 
L 169.380594 30.389829 
L 170.834057 35.686754 
L 172.650885 43.171502 
L 174.831079 53.179297 
L 178.101371 69.491763 
L 182.825125 93.144707 
L 185.005319 103.034535 
L 186.822147 110.389693 
L 188.638976 116.753433 
L 190.092439 121.04552 
L 191.545901 124.586085 
L 192.635998 126.741811 
L 193.726095 128.476761 
L 194.816193 129.809286 
L 195.90629 130.769309 
L 196.996387 131.399168 
L 198.086484 131.75445 
L 199.539947 131.923611 
L 204.263701 131.935074 
L 411.018781 131.935074 
L 411.018781 131.935074 
" clip-path="url(#p8a7b07ddff)" style="fill: none; stroke-dasharray: 0.5,0.825; stroke-dashoffset: 0; stroke: #1f77b4; stroke-width: 0.5"/>
   </g>
   <g id="patch_3">
    <path d="M 48.016452 137.87484 
L 48.016452 7.2 
" style="fill: none; stroke: #000000; stroke-width: 0.8; stroke-linejoin: miter; stroke-linecap: square"/>
   </g>
   <g id="patch_4">
    <path d="M 411.018781 137.87484 
L 411.018781 7.2 
" style="fill: none; stroke: #000000; stroke-width: 0.8; stroke-linejoin: miter; stroke-linecap: square"/>
   </g>
   <g id="patch_5">
    <path d="M 48.016452 137.87484 
L 411.018781 137.87484 
" style="fill: none; stroke: #000000; stroke-width: 0.8; stroke-linejoin: miter; stroke-linecap: square"/>
   </g>
   <g id="patch_6">
    <path d="M 48.016452 7.2 
L 411.018781 7.2 
" style="fill: none; stroke: #000000; stroke-width: 0.8; stroke-linejoin: miter; stroke-linecap: square"/>
   </g>
   <g id="legend_1">
    <g id="patch_7">
     <path d="M 57.116452 94.104871 
L 169.329856 94.104871 
Q 171.929856 94.104871 171.929856 91.504871 
L 171.929856 53.569969 
Q 171.929856 50.969969 169.329856 50.969969 
L 57.116452 50.969969 
Q 54.516452 50.969969 54.516452 53.569969 
L 54.516452 91.504871 
Q 54.516452 94.104871 57.116452 94.104871 
z
" style="fill: #ffffff; opacity: 0.8; stroke: #cccccc; stroke-width: 0.24; stroke-linejoin: miter"/>
    </g>
    <g id="text_13">
     <!-- Reference -->
     <g transform="translate(82.435281 66.547694) scale(0.15 -0.15)">
      <defs>
       <path id="CMR17-52" d="M 2509 2146 
C 3117 2268 3629 2676 3629 3186 
C 3629 3785 2950 4326 2054 4326 
L 333 4326 
L 333 4160 
C 774 4160 845 4160 845 3873 
L 845 415 
C 845 128 774 128 333 128 
L 333 -26 
C 518 -26 851 -26 1050 -26 
C 1248 -26 1581 -26 1766 -26 
L 1766 128 
C 1325 128 1254 128 1254 417 
L 1254 2112 
L 2003 2112 
C 2368 2112 2573 1964 2662 1881 
C 2918 1632 2918 1459 2918 1024 
C 2918 595 2918 377 3110 160 
C 3354 -102 3680 -128 3821 -128 
C 4294 -128 4365 396 4365 503 
C 4365 540 4365 585 4307 585 
C 4256 585 4250 547 4250 522 
C 4218 112 4032 -26 3834 -26 
C 3482 -26 3443 375 3405 764 
C 3386 898 3373 993 3360 1133 
C 3322 1452 3270 1917 2509 2146 
z
M 1984 2214 
L 1254 2214 
L 1254 3913 
C 1254 4129 1267 4160 1523 4160 
L 1990 4160 
C 2522 4160 3142 3977 3142 3190 
C 3142 2372 2464 2214 1984 2214 
z
" transform="scale(0.015625)"/>
       <path id="CMR17-66" d="M 979 2560 
L 1709 2560 
L 1709 2725 
L 966 2725 
L 966 3494 
C 966 4022 1235 4352 1510 4352 
C 1594 4352 1690 4327 1754 4282 
C 1702 4269 1568 4225 1568 4067 
C 1568 3901 1696 3850 1786 3850 
C 1875 3850 2003 3901 2003 4067 
C 2003 4308 1773 4454 1517 4454 
C 1152 4454 653 4156 653 3481 
L 653 2725 
L 141 2725 
L 141 2560 
L 653 2560 
L 653 427 
C 653 184 627 153 218 153 
L 218 -13 
C 371 0 666 0 832 0 
C 1018 0 1344 0 1517 -13 
L 1517 153 
C 1056 153 979 153 979 439 
L 979 2560 
z
" transform="scale(0.015625)"/>
       <path id="CMR17-6e" d="M 2656 1933 
C 2656 2259 2592 2790 1837 2790 
C 1331 2790 1069 2400 973 2144 
L 966 2144 
L 966 2790 
L 211 2720 
L 211 2554 
C 589 2554 646 2515 646 2208 
L 646 428 
C 646 184 621 153 211 153 
L 211 -13 
C 365 0 646 0 813 0 
C 979 0 1267 0 1421 -13 
L 1421 153 
C 1011 153 986 178 986 428 
L 986 1658 
C 986 2247 1344 2688 1792 2688 
C 2266 2688 2317 2266 2317 1958 
L 2317 428 
C 2317 184 2291 153 1882 153 
L 1882 -13 
C 2035 0 2317 0 2483 0 
C 2650 0 2938 0 3091 -13 
L 3091 153 
C 2682 153 2656 178 2656 428 
L 2656 1933 
z
" transform="scale(0.015625)"/>
       <path id="CMR17-63" d="M 2234 2240 
C 2112 2240 1933 2240 1933 2017 
C 1933 1838 2080 1787 2163 1787 
C 2208 1787 2394 1807 2394 2024 
C 2394 2467 1958 2803 1466 2803 
C 787 2803 211 2178 211 1363 
C 211 516 813 -64 1466 -64 
C 2259 -64 2458 677 2458 748 
C 2458 774 2451 793 2406 793 
C 2362 793 2355 787 2330 703 
C 2163 180 1798 51 1523 51 
C 1114 51 621 427 621 1369 
C 621 2338 1094 2688 1472 2688 
C 1722 2688 2093 2573 2234 2240 
z
" transform="scale(0.015625)"/>
      </defs>
      <use xlink:href="#CMR17-52" transform="scale(0.996264)"/>
      <use xlink:href="#CMR17-65" transform="translate(67.791102 0) scale(0.996264)"/>
      <use xlink:href="#CMR17-66" transform="translate(108.276762 0) scale(0.996264)"/>
      <use xlink:href="#CMR17-65" transform="translate(135.750275 0) scale(0.996264)"/>
      <use xlink:href="#CMR17-72" transform="translate(176.235935 0) scale(0.996264)"/>
      <use xlink:href="#CMR17-65" transform="translate(211.516703 0) scale(0.996264)"/>
      <use xlink:href="#CMR17-6e" transform="translate(252.002364 0) scale(0.996264)"/>
      <use xlink:href="#CMR17-63" transform="translate(302.897733 0) scale(0.996264)"/>
      <use xlink:href="#CMR17-65" transform="translate(343.383394 0) scale(0.996264)"/>
     </g>
    </g>
    <g id="line2d_23">
     <path d="M 59.716452 81.117013 
L 72.716452 81.117013 
L 85.716452 81.117013 
" style="fill: none; stroke: #d3d3d3; stroke-width: 3; stroke-linecap: square"/>
    </g>
    <g id="text_14">
     <!-- $(||H||-1)/2$ -->
     <g transform="translate(96.116452 85.667013) scale(0.13 -0.13)">
      <defs>
       <path id="CMR17-28" d="M 1958 -1561 
C 1958 -1555 1958 -1542 1939 -1523 
C 1645 -1224 858 -407 858 1581 
C 858 3569 1632 4379 1946 4697 
C 1946 4704 1958 4717 1958 4736 
C 1958 4755 1939 4768 1914 4768 
C 1843 4768 1299 4296 986 3594 
C 666 2887 576 2199 576 1588 
C 576 1128 621 351 1005 -471 
C 1312 -1135 1837 -1600 1914 -1600 
C 1946 -1600 1958 -1587 1958 -1561 
z
" transform="scale(0.015625)"/>
       <path id="CMSY10-6a" d="M 1018 4570 
C 1018 4685 1018 4800 890 4800 
C 762 4800 762 4685 762 4570 
L 762 -1370 
C 762 -1485 762 -1600 890 -1600 
C 1018 -1600 1018 -1485 1018 -1370 
L 1018 4570 
z
" transform="scale(0.015625)"/>
       <path id="CMMI12-48" d="M 4787 3887 
C 4845 4103 4858 4167 5312 4167 
C 5427 4167 5491 4167 5491 4282 
C 5491 4352 5434 4352 5395 4352 
C 5280 4352 5146 4352 5024 4352 
L 4269 4352 
C 4147 4352 4013 4352 3891 4352 
C 3846 4352 3770 4352 3770 4231 
C 3770 4167 3814 4167 3936 4167 
C 4320 4167 4320 4116 4320 4046 
C 4320 4034 4320 3995 4294 3900 
L 3904 2361 
L 1971 2361 
L 2355 3887 
C 2413 4103 2426 4167 2880 4167 
C 2995 4167 3059 4167 3059 4282 
C 3059 4352 3002 4352 2963 4352 
C 2848 4352 2714 4352 2592 4352 
L 1837 4352 
C 1715 4352 1581 4352 1459 4352 
C 1414 4352 1338 4352 1338 4231 
C 1338 4167 1382 4167 1504 4167 
C 1888 4167 1888 4116 1888 4046 
C 1888 4034 1888 3995 1862 3899 
L 998 472 
C 941 249 928 185 486 185 
C 339 185 294 185 294 64 
C 294 0 365 0 384 0 
C 499 0 634 0 755 0 
L 1510 0 
C 1632 0 1766 0 1888 0 
C 1939 0 2010 0 2010 121 
C 2010 185 1952 185 1856 185 
C 1466 185 1466 236 1466 300 
C 1466 307 1466 351 1478 402 
L 1920 2176 
L 3859 2176 
C 3750 1753 3424 416 3411 376 
C 3341 185 3238 185 2861 185 
C 2784 185 2726 185 2726 64 
C 2726 0 2797 0 2816 0 
C 2931 0 3066 0 3187 0 
L 3942 0 
C 4064 0 4198 0 4320 0 
C 4371 0 4442 0 4442 121 
C 4442 185 4384 185 4288 185 
C 3898 185 3898 236 3898 300 
C 3898 307 3898 351 3910 402 
L 4787 3887 
z
" transform="scale(0.015625)"/>
       <path id="CMSY10-0" d="M 4218 1472 
C 4326 1472 4442 1472 4442 1600 
C 4442 1728 4326 1728 4218 1728 
L 755 1728 
C 646 1728 531 1728 531 1600 
C 531 1472 646 1472 755 1472 
L 4218 1472 
z
" transform="scale(0.015625)"/>
       <path id="CMR17-29" d="M 1683 1581 
C 1683 2040 1638 2817 1254 3639 
C 947 4303 422 4768 346 4768 
C 326 4768 301 4761 301 4729 
C 301 4717 307 4710 314 4697 
C 621 4378 1402 3568 1402 1584 
C 1402 -407 627 -1217 314 -1537 
C 307 -1549 301 -1556 301 -1568 
C 301 -1600 326 -1600 346 -1600 
C 416 -1600 960 -1128 1274 -426 
C 1594 281 1683 969 1683 1581 
z
" transform="scale(0.015625)"/>
       <path id="CMMI12-3d" d="M 2746 4562 
C 2746 4569 2784 4666 2784 4678 
C 2784 4755 2720 4800 2669 4800 
C 2637 4800 2579 4800 2528 4659 
L 384 -1363 
C 384 -1370 346 -1465 346 -1478 
C 346 -1555 410 -1600 461 -1600 
C 499 -1600 557 -1593 602 -1459 
L 2746 4562 
z
" transform="scale(0.015625)"/>
      </defs>
      <use xlink:href="#CMR17-28" transform="scale(0.996264)"/>
      <use xlink:href="#CMSY10-6a" transform="translate(35.280768 0) scale(0.996264)"/>
      <use xlink:href="#CMSY10-6a" transform="translate(62.954853 0) scale(0.996264)"/>
      <use xlink:href="#CMMI12-48" transform="translate(90.628937 0) scale(0.996264)"/>
      <use xlink:href="#CMSY10-6a" transform="translate(179.15071 0) scale(0.996264)"/>
      <use xlink:href="#CMSY10-6a" transform="translate(206.824795 0) scale(0.996264)"/>
      <use xlink:href="#CMSY10-0" transform="translate(256.638086 0) scale(0.996264)"/>
      <use xlink:href="#CMR17-31" transform="translate(356.264761 0) scale(0.996264)"/>
      <use xlink:href="#CMR17-29" transform="translate(401.955238 0) scale(0.996264)"/>
      <use xlink:href="#CMMI12-3d" transform="translate(437.236006 0) scale(0.996264)"/>
      <use xlink:href="#CMR17-32" transform="translate(486.010925 0) scale(0.996264)"/>
     </g>
    </g>
   </g>
   <g id="legend_2">
    <g id="patch_8">
     <path d="M 164.830643 126.868932 
L 294.20459 126.868932 
Q 296.28659 126.868932 296.28659 124.786932 
L 296.28659 20.287908 
Q 296.28659 18.205908 294.20459 18.205908 
L 164.830643 18.205908 
Q 162.748643 18.205908 162.748643 20.287908 
L 162.748643 124.786932 
Q 162.748643 126.868932 164.830643 126.868932 
z
" style="fill: #ffffff; opacity: 0.8; stroke: #cccccc; stroke-width: 0.24; stroke-linejoin: miter"/>
    </g>
    <g id="text_15">
     <!-- Shift of $L_h$ -->
     <g transform="translate(195.513 32.747633) scale(0.15 -0.15)">
      <defs>
       <path id="CMR17-53" d="M 2803 4290 
C 2803 4404 2797 4411 2758 4411 
C 2720 4411 2707 4385 2682 4328 
L 2490 3907 
C 2246 4257 1875 4416 1472 4416 
C 819 4416 294 3901 294 3253 
C 294 3056 339 2776 557 2510 
C 794 2218 1018 2167 1530 2033 
C 1722 1982 2042 1899 2106 1874 
C 2470 1722 2662 1341 2662 985 
C 2662 527 2336 38 1779 38 
C 1094 38 454 419 410 1311 
C 403 1413 397 1419 352 1419 
C 301 1419 294 1413 294 1285 
L 294 -1 
C 294 -115 301 -122 339 -122 
C 384 -122 397 -90 486 108 
C 493 127 493 140 614 381 
C 934 -39 1472 -128 1779 -128 
C 2477 -128 2970 451 2970 1124 
C 2970 1454 2848 1708 2778 1823 
C 2509 2230 2221 2306 1914 2382 
C 1869 2402 1856 2402 1498 2490 
C 1152 2579 1005 2624 845 2796 
C 666 2992 602 3196 602 3399 
C 602 3812 934 4263 1478 4263 
C 2157 4263 2579 3786 2675 2993 
C 2694 2878 2701 2872 2746 2872 
C 2803 2872 2803 2891 2803 2999 
L 2803 4290 
z
" transform="scale(0.015625)"/>
       <path id="CMR17-68" d="M 2656 1933 
C 2656 2259 2592 2790 1837 2790 
C 1312 2790 1056 2368 979 2157 
L 973 2157 
L 973 4396 
L 211 4326 
L 211 4160 
C 589 4160 646 4122 646 3817 
L 646 426 
C 646 184 621 153 211 153 
L 211 -13 
C 365 0 646 0 813 0 
C 979 0 1267 0 1421 -13 
L 1421 153 
C 1011 153 986 178 986 428 
L 986 1658 
C 986 2247 1344 2688 1792 2688 
C 2266 2688 2317 2266 2317 1958 
L 2317 428 
C 2317 184 2291 153 1882 153 
L 1882 -13 
C 2035 0 2317 0 2483 0 
C 2650 0 2938 0 3091 -13 
L 3091 153 
C 2682 153 2656 178 2656 428 
L 2656 1933 
z
" transform="scale(0.015625)"/>
       <path id="CMR17-69" d="M 992 3909 
C 992 4049 877 4170 730 4170 
C 589 4170 467 4056 467 3909 
C 467 3769 582 3648 730 3648 
C 870 3648 992 3763 992 3909 
z
M 243 2706 
L 243 2541 
C 602 2541 653 2502 653 2197 
L 653 427 
C 653 184 627 153 218 153 
L 218 -13 
C 371 0 646 0 806 0 
C 960 0 1222 0 1370 -13 
L 1370 153 
C 992 153 979 191 979 420 
L 979 2776 
L 243 2706 
z
" transform="scale(0.015625)"/>
       <path id="CMMI12-4c" d="M 2349 3861 
C 2406 4103 2426 4167 2989 4167 
C 3162 4167 3206 4167 3206 4288 
C 3206 4352 3136 4352 3110 4352 
C 2982 4352 2835 4352 2707 4352 
L 1850 4352 
C 1728 4352 1587 4352 1466 4352 
C 1414 4352 1344 4352 1344 4231 
C 1344 4167 1402 4167 1498 4167 
C 1888 4167 1888 4116 1888 4046 
C 1888 4034 1888 3995 1862 3899 
L 998 472 
C 941 249 928 185 480 185 
C 358 185 294 185 294 70 
C 294 0 333 0 461 0 
L 3328 0 
C 3469 0 3475 6 3520 121 
L 4013 1478 
C 4026 1510 4038 1548 4038 1567 
C 4038 1605 4006 1631 3974 1631 
C 3968 1631 3936 1631 3923 1605 
C 3910 1599 3910 1586 3859 1465 
C 3654 905 3366 185 2285 185 
L 1670 185 
C 1581 185 1568 185 1530 192 
C 1459 198 1453 211 1453 262 
C 1453 307 1466 345 1478 401 
L 2349 3861 
z
" transform="scale(0.015625)"/>
       <path id="CMMI12-68" d="M 1798 4257 
C 1805 4283 1818 4321 1818 4352 
C 1818 4416 1754 4416 1741 4416 
C 1734 4416 1421 4388 1389 4380 
C 1280 4373 1184 4358 1069 4358 
C 909 4345 864 4339 864 4224 
C 864 4160 915 4160 1005 4160 
C 1318 4160 1325 4103 1325 4040 
C 1325 4002 1312 3951 1306 3932 
L 378 248 
C 352 152 352 140 352 101 
C 352 -38 461 -64 525 -64 
C 634 -64 717 19 749 89 
L 1037 1245 
C 1069 1386 1107 1520 1139 1660 
C 1210 1929 1210 1935 1331 2120 
C 1453 2305 1741 2689 2234 2689 
C 2490 2689 2579 2497 2579 2242 
C 2579 1884 2330 1188 2189 805 
C 2131 651 2099 568 2099 453 
C 2099 166 2298 -64 2605 -64 
C 3200 -64 3424 875 3424 913 
C 3424 945 3398 971 3360 971 
C 3302 971 3296 952 3264 843 
C 3117 332 2880 64 2624 64 
C 2560 64 2458 64 2458 269 
C 2458 436 2534 640 2560 710 
C 2675 1018 2963 1773 2963 2145 
C 2963 2528 2739 2816 2253 2816 
C 1888 2816 1568 2644 1306 2312 
L 1798 4257 
z
" transform="scale(0.015625)"/>
      </defs>
      <use xlink:href="#CMR17-53" transform="scale(0.996264)"/>
      <use xlink:href="#CMR17-68" transform="translate(50.89537 0) scale(0.996264)"/>
      <use xlink:href="#CMR17-69" transform="translate(101.79074 0) scale(0.996264)"/>
      <use xlink:href="#CMR17-66" transform="translate(126.661798 0) scale(0.996264)"/>
      <use xlink:href="#CMR17-74" transform="translate(154.13531 0) scale(0.996264)"/>
      <use xlink:href="#CMR17-6f" transform="translate(219.492045 0) scale(0.996264)"/>
      <use xlink:href="#CMR17-66" transform="translate(265.182522 0) scale(0.996264)"/>
      <use xlink:href="#CMMI12-4c" transform="translate(322.732 0) scale(0.996264)"/>
      <use xlink:href="#CMMI12-68" transform="translate(389.102876 -14.943915) scale(0.697382)"/>
     </g>
    </g>
    <g id="line2d_24">
     <path d="M 166.912643 44.501877 
L 177.322643 44.501877 
L 187.732643 44.501877 
" style="fill: none; stroke-dasharray: 1.85,0.8; stroke-dashoffset: 0; stroke: #1f77b4; stroke-width: 0.5"/>
    </g>
    <g id="text_16">
     <!-- $-18\%$ -->
     <g transform="translate(196.060643 48.145377) scale(0.1041 -0.1041)">
      <defs>
       <path id="CMR17-38" d="M 1741 2264 
C 2144 2467 2554 2773 2554 3263 
C 2554 3841 1990 4179 1472 4179 
C 890 4179 378 3759 378 3180 
C 378 3021 416 2747 666 2505 
C 730 2442 998 2251 1171 2130 
C 883 1983 211 1634 211 934 
C 211 279 838 -128 1459 -128 
C 2144 -128 2720 362 2720 1010 
C 2720 1590 2330 1857 2074 2029 
L 1741 2264 
z
M 902 2822 
C 851 2854 595 3051 595 3351 
C 595 3739 998 4032 1459 4032 
C 1965 4032 2336 3676 2336 3262 
C 2336 2669 1670 2331 1638 2331 
C 1632 2331 1626 2331 1574 2370 
L 902 2822 
z
M 2080 1519 
C 2176 1449 2483 1240 2483 851 
C 2483 381 2010 25 1472 25 
C 890 25 448 438 448 940 
C 448 1443 838 1862 1280 2060 
L 2080 1519 
z
" transform="scale(0.015625)"/>
       <path id="CMR17-25" d="M 4640 959 
C 4640 1698 4275 2240 3846 2240 
C 3411 2240 2970 1736 2970 959 
C 2970 183 3405 -320 3846 -320 
C 4275 -320 4640 215 4640 959 
z
M 3853 -218 
C 3686 -218 3270 -66 3270 959 
C 3270 1991 3686 2138 3853 2138 
C 4205 2138 4525 1634 4525 959 
C 4525 285 4205 -218 3853 -218 
z
M 4083 4577 
C 4128 4647 4134 4653 4134 4685 
C 4134 4761 4077 4800 4026 4800 
C 3962 4800 3936 4756 3891 4706 
C 3520 4190 3008 4134 2746 4134 
C 2106 4134 1715 4494 1594 4607 
C 1510 4682 1389 4800 1171 4800 
C 736 4800 294 4296 294 3519 
C 294 2743 730 2240 1171 2240 
C 1600 2240 1965 2778 1965 3527 
C 1965 3969 1830 4270 1811 4308 
C 2202 4064 2586 4032 2752 4032 
C 3162 4032 3456 4183 3616 4289 
L 3622 4283 
L 858 -84 
C 800 -174 800 -187 800 -206 
C 800 -276 858 -320 915 -320 
C 973 -320 992 -289 1037 -218 
L 4083 4577 
z
M 1178 2342 
C 1011 2342 595 2494 595 3519 
C 595 4551 1011 4698 1178 4698 
C 1530 4698 1850 4194 1850 3519 
C 1850 2845 1530 2342 1178 2342 
z
" transform="scale(0.015625)"/>
      </defs>
      <use xlink:href="#CMSY10-0" transform="scale(0.996264)"/>
      <use xlink:href="#CMR17-31" transform="translate(77.487468 0) scale(0.996264)"/>
      <use xlink:href="#CMR17-38" transform="translate(123.177945 0) scale(0.996264)"/>
      <use xlink:href="#CMR17-25" transform="translate(168.868422 0) scale(0.996264)"/>
     </g>
    </g>
    <g id="line2d_25">
     <path d="M 166.912643 59.01047 
L 177.322643 59.01047 
L 187.732643 59.01047 
" style="fill: none; stroke-dasharray: 3.2,0.8,0.5,0.8; stroke-dashoffset: 0; stroke: #ff7f0e; stroke-width: 0.5"/>
    </g>
    <g id="text_17">
     <!-- $-12\%$ -->
     <g transform="translate(196.060643 62.65397) scale(0.1041 -0.1041)">
      <use xlink:href="#CMSY10-0" transform="scale(0.996264)"/>
      <use xlink:href="#CMR17-31" transform="translate(77.487468 0) scale(0.996264)"/>
      <use xlink:href="#CMR17-32" transform="translate(123.177945 0) scale(0.996264)"/>
      <use xlink:href="#CMR17-25" transform="translate(168.868422 0) scale(0.996264)"/>
     </g>
    </g>
    <g id="line2d_26">
     <path d="M 166.912643 73.519062 
L 177.322643 73.519062 
L 187.732643 73.519062 
" style="fill: none; stroke-dasharray: 0.5,0.825; stroke-dashoffset: 0; stroke: #2ca02c; stroke-width: 0.5"/>
    </g>
    <g id="text_18">
     <!-- $-6\%$ -->
     <g transform="translate(196.060643 77.162562) scale(0.1041 -0.1041)">
      <use xlink:href="#CMSY10-0" transform="scale(0.996264)"/>
      <use xlink:href="#CMR17-36" transform="translate(77.487468 0) scale(0.996264)"/>
      <use xlink:href="#CMR17-25" transform="translate(123.177945 0) scale(0.996264)"/>
     </g>
    </g>
    <g id="line2d_27">
     <path d="M 166.912643 88.027655 
L 177.322643 88.027655 
L 187.732643 88.027655 
" style="fill: none; stroke: #d62728; stroke-width: 0.5; stroke-linecap: square"/>
    </g>
    <g id="text_19">
     <!-- $0\%$ -->
     <g transform="translate(196.060643 91.671155) scale(0.1041 -0.1041)">
      <use xlink:href="#CMR17-30" transform="scale(0.996264)"/>
      <use xlink:href="#CMR17-25" transform="translate(45.690477 0) scale(0.996264)"/>
     </g>
    </g>
    <g id="line2d_28">
     <path d="M 166.912643 102.536247 
L 177.322643 102.536247 
L 187.732643 102.536247 
" style="fill: none; stroke-dasharray: 1.85,0.8; stroke-dashoffset: 0; stroke: #9467bd; stroke-width: 0.5"/>
    </g>
    <g id="text_20">
     <!-- $6\%$ -->
     <g transform="translate(196.060643 106.179747) scale(0.1041 -0.1041)">
      <use xlink:href="#CMR17-36" transform="scale(0.996264)"/>
      <use xlink:href="#CMR17-25" transform="translate(45.690477 0) scale(0.996264)"/>
     </g>
    </g>
    <g id="line2d_29">
     <path d="M 166.912643 117.044839 
L 177.322643 117.044839 
L 187.732643 117.044839 
" style="fill: none; stroke-dasharray: 3.2,0.8,0.5,0.8; stroke-dashoffset: 0; stroke: #8c564b; stroke-width: 0.5"/>
    </g>
    <g id="text_21">
     <!-- $12\%$ -->
     <g transform="translate(196.060643 120.688339) scale(0.1041 -0.1041)">
      <use xlink:href="#CMR17-31" transform="scale(0.996264)"/>
      <use xlink:href="#CMR17-32" transform="translate(45.690477 0) scale(0.996264)"/>
      <use xlink:href="#CMR17-25" transform="translate(91.380954 0) scale(0.996264)"/>
     </g>
    </g>
    <g id="line2d_30">
     <path d="M 243.960839 44.501877 
L 254.370839 44.501877 
L 264.780839 44.501877 
" style="fill: none; stroke-dasharray: 0.5,0.825; stroke-dashoffset: 0; stroke: #e377c2; stroke-width: 0.5"/>
    </g>
    <g id="text_22">
     <!-- $18\%$ -->
     <g transform="translate(273.108839 48.145377) scale(0.1041 -0.1041)">
      <use xlink:href="#CMR17-31" transform="scale(0.996264)"/>
      <use xlink:href="#CMR17-38" transform="translate(45.690477 0) scale(0.996264)"/>
      <use xlink:href="#CMR17-25" transform="translate(91.380954 0) scale(0.996264)"/>
     </g>
    </g>
    <g id="line2d_31">
     <path d="M 243.960839 59.01047 
L 254.370839 59.01047 
L 264.780839 59.01047 
" style="fill: none; stroke: #7f7f7f; stroke-width: 0.5; stroke-linecap: square"/>
    </g>
    <g id="text_23">
     <!-- $24\%$ -->
     <g transform="translate(273.108839 62.65397) scale(0.1041 -0.1041)">
      <use xlink:href="#CMR17-32" transform="scale(0.996264)"/>
      <use xlink:href="#CMR17-34" transform="translate(45.690477 0) scale(0.996264)"/>
      <use xlink:href="#CMR17-25" transform="translate(91.380954 0) scale(0.996264)"/>
     </g>
    </g>
    <g id="line2d_32">
     <path d="M 243.960839 73.519062 
L 254.370839 73.519062 
L 264.780839 73.519062 
" style="fill: none; stroke-dasharray: 1.85,0.8; stroke-dashoffset: 0; stroke: #bcbd22; stroke-width: 0.5"/>
    </g>
    <g id="text_24">
     <!-- $30\%$ -->
     <g transform="translate(273.108839 77.162562) scale(0.1041 -0.1041)">
      <use xlink:href="#CMR17-33" transform="scale(0.996264)"/>
      <use xlink:href="#CMR17-30" transform="translate(45.690477 0) scale(0.996264)"/>
      <use xlink:href="#CMR17-25" transform="translate(91.380954 0) scale(0.996264)"/>
     </g>
    </g>
    <g id="line2d_33">
     <path d="M 243.960839 88.027655 
L 254.370839 88.027655 
L 264.780839 88.027655 
" style="fill: none; stroke-dasharray: 3.2,0.8,0.5,0.8; stroke-dashoffset: 0; stroke: #17becf; stroke-width: 0.5"/>
    </g>
    <g id="text_25">
     <!-- $36\%$ -->
     <g transform="translate(273.108839 91.671155) scale(0.1041 -0.1041)">
      <use xlink:href="#CMR17-33" transform="scale(0.996264)"/>
      <use xlink:href="#CMR17-36" transform="translate(45.690477 0) scale(0.996264)"/>
      <use xlink:href="#CMR17-25" transform="translate(91.380954 0) scale(0.996264)"/>
     </g>
    </g>
    <g id="line2d_34">
     <path d="M 243.960839 102.536247 
L 254.370839 102.536247 
L 264.780839 102.536247 
" style="fill: none; stroke-dasharray: 0.5,0.825; stroke-dashoffset: 0; stroke: #1f77b4; stroke-width: 0.5"/>
    </g>
    <g id="text_26">
     <!-- $42\%$ -->
     <g transform="translate(273.108839 106.179747) scale(0.1041 -0.1041)">
      <use xlink:href="#CMR17-34" transform="scale(0.996264)"/>
      <use xlink:href="#CMR17-32" transform="translate(45.690477 0) scale(0.996264)"/>
      <use xlink:href="#CMR17-25" transform="translate(91.380954 0) scale(0.996264)"/>
     </g>
    </g>
   </g>
  </g>
 </g>
 <defs>
  <clipPath id="p8a7b07ddff">
   <rect x="48.016452" y="7.2" width="363.002328" height="130.67484"/>
  </clipPath>
 </defs>
</svg>
