<?xml version="1.0" encoding="utf-8" standalone="no"?>
<!DOCTYPE svg PUBLIC "-//W3C//DTD SVG 1.1//EN"
  "http://www.w3.org/Graphics/SVG/1.1/DTD/svg11.dtd">
<svg xmlns:xlink="http://www.w3.org/1999/xlink" width="424.55952pt" height="181.19952pt" viewBox="0 0 424.55952 181.19952" xmlns="http://www.w3.org/2000/svg" version="1.1">
 <metadata>
  <rdf:RDF xmlns:dc="http://purl.org/dc/elements/1.1/" xmlns:cc="http://creativecommons.org/ns#" xmlns:rdf="http://www.w3.org/1999/02/22-rdf-syntax-ns#">
   <cc:Work>
    <dc:type rdf:resource="http://purl.org/dc/dcmitype/StillImage"/>
    <dc:date>1980-01-01T00:00:00+00:00</dc:date>
    <dc:format>image/svg+xml</dc:format>
    <dc:creator>
     <cc:Agent>
      <dc:title>Matplotlib v3.6.2, https://matplotlib.org/</dc:title>
     </cc:Agent>
    </dc:creator>
   </cc:Work>
  </rdf:RDF>
 </metadata>
 <defs>
  <style type="text/css">*{stroke-linejoin: round; stroke-linecap: butt}</style>
 </defs>
 <g id="figure_1">
  <g id="patch_1">
   <path d="M 0 181.19952 
L 424.55952 181.19952 
L 424.55952 -0 
L 0 -0 
z
" style="fill: #ffffff"/>
  </g>
  <g id="axes_1">
   <g id="patch_2">
    <path d="M 73.131058 153.38718 
L 417.35952 153.38718 
L 417.35952 11.697014 
L 73.131058 11.697014 
z
" style="fill: #ffffff"/>
   </g>
   <g id="matplotlib.axis_1">
    <g id="xtick_1">
     <g id="line2d_1">
      <defs>
       <path id="mcfafb5c9f2" d="M 0 0 
L 0 3.5 
" style="stroke: #000000; stroke-width: 0.8"/>
      </defs>
      <g>
       <use xlink:href="#mcfafb5c9f2" x="73.131058" y="153.38718" style="stroke: #000000; stroke-width: 0.8"/>
      </g>
     </g>
     <g id="text_1">
      <!-- $\mathdefault{120}$ -->
      <g transform="translate(63.619949 171.481208) scale(0.13 -0.13)">
       <defs>
        <path id="CMR17-31" d="M 1702 4058 
C 1702 4192 1696 4192 1606 4192 
C 1357 3916 979 3827 621 3827 
C 602 3827 570 3827 563 3808 
C 557 3795 557 3782 557 3648 
C 755 3648 1088 3686 1344 3839 
L 1344 461 
C 1344 236 1331 160 781 160 
L 589 160 
L 589 0 
C 896 0 1216 0 1523 0 
C 1830 0 2150 0 2458 0 
L 2458 160 
L 2266 160 
C 1715 160 1702 230 1702 458 
L 1702 4058 
z
" transform="scale(0.015625)"/>
        <path id="CMR17-32" d="M 2669 989 
L 2554 989 
C 2490 536 2438 459 2413 420 
C 2381 369 1920 369 1830 369 
L 602 369 
C 832 619 1280 1072 1824 1597 
C 2214 1967 2669 2402 2669 3035 
C 2669 3790 2067 4224 1395 4224 
C 691 4224 262 3604 262 3030 
C 262 2780 448 2748 525 2748 
C 589 2748 781 2787 781 3010 
C 781 3207 614 3264 525 3264 
C 486 3264 448 3258 422 3245 
C 544 3790 915 4058 1306 4058 
C 1862 4058 2227 3617 2227 3035 
C 2227 2479 1901 2000 1536 1584 
L 262 146 
L 262 0 
L 2515 0 
L 2669 989 
z
" transform="scale(0.015625)"/>
        <path id="CMR17-30" d="M 2688 2025 
C 2688 2416 2682 3080 2413 3591 
C 2176 4039 1798 4198 1466 4198 
C 1158 4198 768 4058 525 3597 
C 269 3118 243 2524 243 2025 
C 243 1661 250 1106 448 619 
C 723 -39 1216 -128 1466 -128 
C 1760 -128 2208 -7 2470 600 
C 2662 1042 2688 1559 2688 2025 
z
M 1466 -26 
C 1056 -26 813 325 723 812 
C 653 1188 653 1738 653 2096 
C 653 2588 653 2997 736 3387 
C 858 3929 1216 4096 1466 4096 
C 1728 4096 2067 3923 2189 3400 
C 2272 3036 2278 2607 2278 2096 
C 2278 1680 2278 1169 2202 792 
C 2067 95 1690 -26 1466 -26 
z
" transform="scale(0.015625)"/>
       </defs>
       <use xlink:href="#CMR17-31" transform="scale(0.996264)"/>
       <use xlink:href="#CMR17-32" transform="translate(45.690477 0) scale(0.996264)"/>
       <use xlink:href="#CMR17-30" transform="translate(91.380954 0) scale(0.996264)"/>
      </g>
     </g>
    </g>
    <g id="xtick_2">
     <g id="line2d_2">
      <g>
       <use xlink:href="#mcfafb5c9f2" x="128.651777" y="153.38718" style="stroke: #000000; stroke-width: 0.8"/>
      </g>
     </g>
     <g id="text_2">
      <!-- $\mathdefault{125}$ -->
      <g transform="translate(119.140668 171.481208) scale(0.13 -0.13)">
       <defs>
        <path id="CMR17-35" d="M 730 3692 
C 794 3666 1056 3584 1325 3584 
C 1920 3584 2246 3911 2432 4100 
C 2432 4157 2432 4192 2394 4192 
C 2387 4192 2374 4192 2323 4163 
C 2099 4058 1837 3973 1517 3973 
C 1325 3973 1037 3999 723 4139 
C 653 4171 640 4171 634 4171 
C 602 4171 595 4164 595 4037 
L 595 2203 
C 595 2089 595 2057 659 2057 
C 691 2057 704 2070 736 2114 
C 941 2401 1222 2522 1542 2522 
C 1766 2522 2246 2382 2246 1289 
C 2246 1085 2246 715 2054 421 
C 1894 159 1645 25 1370 25 
C 947 25 518 320 403 814 
C 429 807 480 795 506 795 
C 589 795 749 840 749 1038 
C 749 1210 627 1280 506 1280 
C 358 1280 262 1190 262 1011 
C 262 454 704 -128 1382 -128 
C 2042 -128 2669 440 2669 1264 
C 2669 2030 2170 2624 1549 2624 
C 1222 2624 947 2503 730 2274 
L 730 3692 
z
" transform="scale(0.015625)"/>
       </defs>
       <use xlink:href="#CMR17-31" transform="scale(0.996264)"/>
       <use xlink:href="#CMR17-32" transform="translate(45.690477 0) scale(0.996264)"/>
       <use xlink:href="#CMR17-35" transform="translate(91.380954 0) scale(0.996264)"/>
      </g>
     </g>
    </g>
    <g id="xtick_3">
     <g id="line2d_3">
      <g>
       <use xlink:href="#mcfafb5c9f2" x="184.172497" y="153.38718" style="stroke: #000000; stroke-width: 0.8"/>
      </g>
     </g>
     <g id="text_3">
      <!-- $\mathdefault{130}$ -->
      <g transform="translate(174.661388 171.481208) scale(0.13 -0.13)">
       <defs>
        <path id="CMR17-33" d="M 1414 2157 
C 1984 2157 2234 1662 2234 1090 
C 2234 320 1824 25 1453 25 
C 1114 25 563 194 390 693 
C 422 680 454 680 486 680 
C 640 680 755 782 755 948 
C 755 1133 614 1216 486 1216 
C 378 1216 211 1165 211 926 
C 211 335 787 -128 1466 -128 
C 2176 -128 2720 430 2720 1085 
C 2720 1707 2208 2157 1600 2227 
C 2086 2328 2554 2756 2554 3329 
C 2554 3820 2048 4179 1472 4179 
C 890 4179 378 3829 378 3329 
C 378 3110 544 3072 627 3072 
C 762 3072 877 3155 877 3321 
C 877 3486 762 3569 627 3569 
C 602 3569 570 3569 544 3557 
C 730 3959 1235 4032 1459 4032 
C 1683 4032 2106 3925 2106 3320 
C 2106 3143 2080 2828 1862 2550 
C 1670 2304 1453 2304 1242 2284 
C 1210 2284 1062 2269 1037 2269 
C 992 2263 966 2257 966 2208 
C 966 2163 973 2157 1101 2157 
L 1414 2157 
z
" transform="scale(0.015625)"/>
       </defs>
       <use xlink:href="#CMR17-31" transform="scale(0.996264)"/>
       <use xlink:href="#CMR17-33" transform="translate(45.690477 0) scale(0.996264)"/>
       <use xlink:href="#CMR17-30" transform="translate(91.380954 0) scale(0.996264)"/>
      </g>
     </g>
    </g>
    <g id="xtick_4">
     <g id="line2d_4">
      <g>
       <use xlink:href="#mcfafb5c9f2" x="239.693217" y="153.38718" style="stroke: #000000; stroke-width: 0.8"/>
      </g>
     </g>
     <g id="text_4">
      <!-- $\mathdefault{135}$ -->
      <g transform="translate(230.182108 171.481208) scale(0.13 -0.13)">
       <use xlink:href="#CMR17-31" transform="scale(0.996264)"/>
       <use xlink:href="#CMR17-33" transform="translate(45.690477 0) scale(0.996264)"/>
       <use xlink:href="#CMR17-35" transform="translate(91.380954 0) scale(0.996264)"/>
      </g>
     </g>
    </g>
    <g id="xtick_5">
     <g id="line2d_5">
      <g>
       <use xlink:href="#mcfafb5c9f2" x="295.213937" y="153.38718" style="stroke: #000000; stroke-width: 0.8"/>
      </g>
     </g>
     <g id="text_5">
      <!-- $\mathdefault{140}$ -->
      <g transform="translate(285.702827 171.481208) scale(0.13 -0.13)">
       <defs>
        <path id="CMR17-34" d="M 2150 4122 
C 2150 4256 2144 4256 2029 4256 
L 128 1254 
L 128 1088 
L 1779 1088 
L 1779 457 
C 1779 224 1766 160 1318 160 
L 1197 160 
L 1197 0 
C 1402 0 1747 0 1965 0 
C 2182 0 2528 0 2733 0 
L 2733 160 
L 2611 160 
C 2163 160 2150 224 2150 457 
L 2150 1088 
L 2803 1088 
L 2803 1254 
L 2150 1254 
L 2150 4122 
z
M 1798 3703 
L 1798 1254 
L 256 1254 
L 1798 3703 
z
" transform="scale(0.015625)"/>
       </defs>
       <use xlink:href="#CMR17-31" transform="scale(0.996264)"/>
       <use xlink:href="#CMR17-34" transform="translate(45.690477 0) scale(0.996264)"/>
       <use xlink:href="#CMR17-30" transform="translate(91.380954 0) scale(0.996264)"/>
      </g>
     </g>
    </g>
    <g id="xtick_6">
     <g id="line2d_6">
      <g>
       <use xlink:href="#mcfafb5c9f2" x="350.734656" y="153.38718" style="stroke: #000000; stroke-width: 0.8"/>
      </g>
     </g>
     <g id="text_6">
      <!-- $\mathdefault{145}$ -->
      <g transform="translate(341.223547 171.481208) scale(0.13 -0.13)">
       <use xlink:href="#CMR17-31" transform="scale(0.996264)"/>
       <use xlink:href="#CMR17-34" transform="translate(45.690477 0) scale(0.996264)"/>
       <use xlink:href="#CMR17-35" transform="translate(91.380954 0) scale(0.996264)"/>
      </g>
     </g>
    </g>
    <g id="xtick_7">
     <g id="line2d_7">
      <g>
       <use xlink:href="#mcfafb5c9f2" x="406.255376" y="153.38718" style="stroke: #000000; stroke-width: 0.8"/>
      </g>
     </g>
     <g id="text_7">
      <!-- $\mathdefault{150}$ -->
      <g transform="translate(396.744267 171.481208) scale(0.13 -0.13)">
       <use xlink:href="#CMR17-31" transform="scale(0.996264)"/>
       <use xlink:href="#CMR17-35" transform="translate(45.690477 0) scale(0.996264)"/>
       <use xlink:href="#CMR17-30" transform="translate(91.380954 0) scale(0.996264)"/>
      </g>
     </g>
    </g>
   </g>
   <g id="matplotlib.axis_2">
    <g id="ytick_1">
     <g id="line2d_8">
      <defs>
       <path id="me525a4b9cb" d="M 0 0 
L -3.5 0 
" style="stroke: #000000; stroke-width: 0.8"/>
      </defs>
      <g>
       <use xlink:href="#me525a4b9cb" x="73.131058" y="153.38718" style="stroke: #000000; stroke-width: 0.8"/>
      </g>
     </g>
     <g id="text_8">
      <!-- $\mathdefault{-3\times10^{-1}}$ -->
      <g transform="translate(7.2 157.938897) scale(0.13 -0.13)">
       <defs>
        <path id="CMSY10-0" d="M 4218 1472 
C 4326 1472 4442 1472 4442 1600 
C 4442 1728 4326 1728 4218 1728 
L 755 1728 
C 646 1728 531 1728 531 1600 
C 531 1472 646 1472 755 1472 
L 4218 1472 
z
" transform="scale(0.015625)"/>
        <path id="CMSY10-2" d="M 2490 1785 
L 1210 3059 
C 1133 3136 1120 3148 1069 3148 
C 1005 3148 941 3091 941 3020 
C 941 2976 954 2963 1024 2892 
L 2304 1606 
L 1024 320 
C 954 249 941 236 941 192 
C 941 121 1005 64 1069 64 
C 1120 64 1133 76 1210 153 
L 2483 1427 
L 3808 102 
C 3821 96 3866 64 3904 64 
C 3981 64 4032 121 4032 192 
C 4032 204 4032 230 4013 262 
C 4006 275 2989 1280 2669 1606 
L 3840 2777 
C 3872 2816 3968 2899 4000 2937 
C 4006 2950 4032 2976 4032 3020 
C 4032 3091 3981 3148 3904 3148 
C 3853 3148 3827 3123 3757 3052 
L 2490 1785 
z
" transform="scale(0.015625)"/>
       </defs>
       <use xlink:href="#CMSY10-0" transform="scale(0.996264)"/>
       <use xlink:href="#CMR17-33" transform="translate(77.487468 0) scale(0.996264)"/>
       <use xlink:href="#CMSY10-2" transform="translate(145.317152 0) scale(0.996264)"/>
       <use xlink:href="#CMR17-31" transform="translate(244.943826 0) scale(0.996264)"/>
       <use xlink:href="#CMR17-30" transform="translate(290.634303 0) scale(0.996264)"/>
       <use xlink:href="#CMSY10-0" transform="translate(336.324781 36.153639) scale(0.697382)"/>
       <use xlink:href="#CMR17-31" transform="translate(390.565774 36.153639) scale(0.697382)"/>
      </g>
     </g>
    </g>
    <g id="ytick_2">
     <g id="line2d_9">
      <g>
       <use xlink:href="#me525a4b9cb" x="73.131058" y="11.697014" style="stroke: #000000; stroke-width: 0.8"/>
      </g>
     </g>
     <g id="text_9">
      <!-- $\mathdefault{10^{-1}}$ -->
      <g transform="translate(39.443604 16.194028) scale(0.13 -0.13)">
       <use xlink:href="#CMR17-31" transform="scale(0.996264)"/>
       <use xlink:href="#CMR17-30" transform="translate(45.690477 0) scale(0.996264)"/>
       <use xlink:href="#CMSY10-0" transform="translate(91.380954 36.153639) scale(0.697382)"/>
       <use xlink:href="#CMR17-31" transform="translate(145.621947 36.153639) scale(0.697382)"/>
      </g>
     </g>
    </g>
   </g>
   <g id="line2d_10">
    <path d="M 72.464809 47.119555 
L 120.434711 47.18902 
L 122.433457 47.399417 
L 123.765954 47.738047 
L 125.098451 48.368407 
L 125.7647 48.842715 
L 126.430949 49.455518 
L 127.097197 50.234377 
L 127.763446 51.208732 
L 128.429695 52.408902 
L 129.095943 53.86486 
L 130.42844 57.653618 
L 131.760938 62.752148 
L 133.093435 69.24014 
L 134.425932 77.065688 
L 136.424678 90.826056 
L 140.42217 120.078919 
L 141.754667 128.348771 
L 143.087165 135.152581 
L 144.419662 140.298388 
L 145.08591 142.240984 
L 145.752159 143.7801 
L 146.418408 144.938746 
L 147.084656 145.745942 
L 147.750905 146.234838 
L 148.417154 146.440603 
L 149.083402 146.399109 
L 149.749651 146.146446 
L 150.4159 145.718369 
L 151.748397 144.476833 
L 159.077132 136.459783 
L 161.075878 134.760016 
L 163.074624 133.359716 
L 172.402105 127.638459 
L 177.065845 125.146781 
L 181.729586 122.614348 
L 183.728331 121.621667 
L 185.727077 120.887329 
L 189.058321 119.796365 
L 191.057066 118.885786 
L 195.720807 116.524089 
L 197.053304 116.085663 
L 198.385801 115.825654 
L 200.384547 115.697672 
L 203.715791 115.591393 
L 205.048288 115.340481 
L 206.380785 114.897565 
L 208.379531 113.963809 
L 212.377023 111.969028 
L 214.375769 111.243524 
L 217.040763 110.557112 
L 219.705758 110.09262 
L 224.369498 109.414986 
L 227.700741 108.801438 
L 230.365736 108.60832 
L 233.696979 108.408747 
L 236.361974 107.996311 
L 239.026968 107.306622 
L 243.690709 105.926384 
L 246.355703 105.426781 
L 249.020698 105.157709 
L 251.019444 105.26105 
L 253.01819 105.646942 
L 257.015681 106.565044 
L 259.014427 106.693148 
L 261.013173 106.521255 
L 263.678168 106.023728 
L 269.674406 104.741855 
L 271.673151 104.582263 
L 273.671897 104.646153 
L 280.334384 105.256194 
L 294.991854 104.862439 
L 297.656848 104.845308 
L 299.655594 104.646356 
L 306.318081 103.613614 
L 311.64807 103.223559 
L 314.313064 103.063734 
L 326.971788 102.982535 
L 330.96928 103.516252 
L 333.634275 103.771642 
L 337.631766 103.820735 
L 345.62675 103.679161 
L 350.290491 103.390595 
L 358.951723 103.333603 
L 362.949215 103.39739 
L 367.612955 103.654252 
L 368.945452 103.453576 
L 370.27795 102.913697 
L 371.610447 101.977373 
L 372.942944 100.635845 
L 374.275441 98.905888 
L 375.607939 96.799293 
L 376.940436 94.304023 
L 378.272933 91.399725 
L 379.605431 88.085136 
L 381.604176 82.42856 
L 384.269171 74.050367 
L 387.600414 63.66796 
L 389.59916 58.348324 
L 390.931657 55.389408 
L 392.264155 52.945476 
L 393.596652 51.012143 
L 394.929149 49.55343 
L 396.261647 48.512105 
L 397.594144 47.821013 
L 398.926641 47.408879 
L 400.259138 47.201097 
L 402.257884 47.111618 
L 417.581603 47.119555 
L 417.581603 47.119555 
" clip-path="url(#p461db93c41)" style="fill: none; stroke: #1f77b4; stroke-width: 0.5; stroke-linecap: square"/>
   </g>
   <g id="line2d_11">
    <path d="M 72.464809 47.119555 
L 118.435965 47.194121 
L 120.434711 47.402159 
L 121.767208 47.727342 
L 123.099705 48.31156 
L 124.432203 49.272181 
L 125.7647 50.738046 
L 127.097197 52.832157 
L 128.429695 55.640479 
L 129.762192 59.171065 
L 131.094689 63.318965 
L 135.092181 76.642377 
L 136.424678 80.050915 
L 137.090927 81.327643 
L 137.757175 82.26195 
L 138.423424 82.821008 
L 139.089673 82.982647 
L 139.755921 82.736739 
L 140.42217 82.085716 
L 141.088419 81.044383 
L 141.754667 79.638968 
L 143.087165 75.888518 
L 144.419662 71.209812 
L 148.417154 56.027697 
L 149.749651 51.959579 
L 150.4159 50.309217 
L 151.082148 48.964872 
L 151.748397 47.962213 
L 152.414645 47.335816 
L 153.080894 47.119555 
L 366.280458 47.119555 
L 366.946706 46.992991 
L 367.612955 46.63023 
L 368.279204 46.056556 
L 369.611701 44.377062 
L 370.944198 42.152772 
L 372.942944 38.200174 
L 376.940436 29.995815 
L 378.272933 27.675687 
L 379.605431 25.783316 
L 380.937928 24.434066 
L 381.604176 23.992227 
L 382.270425 23.717321 
L 382.936674 23.615431 
L 383.602922 23.690117 
L 384.269171 23.94182 
L 384.93542 24.367214 
L 385.601668 24.958921 
L 386.934166 26.592459 
L 388.266663 28.715272 
L 390.265409 32.473248 
L 393.596652 38.945446 
L 395.595398 42.242343 
L 396.927895 44.021177 
L 398.260392 45.406433 
L 399.59289 46.373916 
L 400.925387 46.941581 
L 402.257884 47.182146 
L 404.25663 47.186758 
L 407.587873 47.119555 
L 417.581603 47.119555 
L 417.581603 47.119555 
" clip-path="url(#p461db93c41)" style="fill: none; stroke: #ff7f0e; stroke-width: 0.5; stroke-linecap: square"/>
   </g>
   <g id="patch_3">
    <path d="M 73.131058 153.38718 
L 73.131058 11.697014 
" style="fill: none; stroke: #000000; stroke-width: 0.8; stroke-linejoin: miter; stroke-linecap: square"/>
   </g>
   <g id="patch_4">
    <path d="M 417.35952 153.38718 
L 417.35952 11.697014 
" style="fill: none; stroke: #000000; stroke-width: 0.8; stroke-linejoin: miter; stroke-linecap: square"/>
   </g>
   <g id="patch_5">
    <path d="M 73.131058 153.38718 
L 417.35952 153.38718 
" style="fill: none; stroke: #000000; stroke-width: 0.8; stroke-linejoin: miter; stroke-linecap: square"/>
   </g>
   <g id="patch_6">
    <path d="M 73.131058 11.697014 
L 417.35952 11.697014 
" style="fill: none; stroke: #000000; stroke-width: 0.8; stroke-linejoin: miter; stroke-linecap: square"/>
   </g>
  </g>
 </g>
 <defs>
  <clipPath id="p461db93c41">
   <rect x="73.131058" y="11.697014" width="344.228462" height="141.690166"/>
  </clipPath>
 </defs>
</svg>
