<?xml version="1.0" encoding="utf-8" standalone="no"?>
<!DOCTYPE svg PUBLIC "-//W3C//DTD SVG 1.1//EN"
  "http://www.w3.org/Graphics/SVG/1.1/DTD/svg11.dtd">
<svg xmlns:xlink="http://www.w3.org/1999/xlink" width="253.19952pt" height="238.79952pt" viewBox="0 0 253.19952 238.79952" xmlns="http://www.w3.org/2000/svg" version="1.1">
 <metadata>
  <rdf:RDF xmlns:dc="http://purl.org/dc/elements/1.1/" xmlns:cc="http://creativecommons.org/ns#" xmlns:rdf="http://www.w3.org/1999/02/22-rdf-syntax-ns#">
   <cc:Work>
    <dc:type rdf:resource="http://purl.org/dc/dcmitype/StillImage"/>
    <dc:date>1980-01-01T00:00:00+00:00</dc:date>
    <dc:format>image/svg+xml</dc:format>
    <dc:creator>
     <cc:Agent>
      <dc:title>Matplotlib v3.6.2, https://matplotlib.org/</dc:title>
     </cc:Agent>
    </dc:creator>
   </cc:Work>
  </rdf:RDF>
 </metadata>
 <defs>
  <style type="text/css">*{stroke-linejoin: round; stroke-linecap: butt}</style>
 </defs>
 <g id="figure_1">
  <g id="patch_1">
   <path d="M 0 238.79952 
L 253.19952 238.79952 
L 253.19952 0 
L 0 0 
z
" style="fill: #ffffff"/>
  </g>
  <g id="axes_1">
   <g id="patch_2">
    <path d="M 33.707196 202.559296 
L 245.99952 202.559296 
L 245.99952 7.2 
L 33.707196 7.2 
z
" style="fill: #ffffff"/>
   </g>
   <g id="matplotlib.axis_1">
    <g id="xtick_1">
     <g id="line2d_1">
      <defs>
       <path id="m5e42b52306" d="M 0 0 
L 0 3.5 
" style="stroke: #000000; stroke-width: 0.8"/>
      </defs>
      <g>
       <use xlink:href="#m5e42b52306" x="43.356847" y="202.559296" style="stroke: #000000; stroke-width: 0.8"/>
      </g>
     </g>
     <g id="text_1">
      <!-- $\mathdefault{0}$ -->
      <g transform="translate(41.239756 217.194098) scale(0.08 -0.08)">
       <defs>
        <path id="CMR17-30" d="M 2688 2025 
C 2688 2416 2682 3080 2413 3591 
C 2176 4039 1798 4198 1466 4198 
C 1158 4198 768 4058 525 3597 
C 269 3118 243 2524 243 2025 
C 243 1661 250 1106 448 619 
C 723 -39 1216 -128 1466 -128 
C 1760 -128 2208 -7 2470 600 
C 2662 1042 2688 1559 2688 2025 
z
M 1466 -26 
C 1056 -26 813 325 723 812 
C 653 1188 653 1738 653 2096 
C 653 2588 653 2997 736 3387 
C 858 3929 1216 4096 1466 4096 
C 1728 4096 2067 3923 2189 3400 
C 2272 3036 2278 2607 2278 2096 
C 2278 1680 2278 1169 2202 792 
C 2067 95 1690 -26 1466 -26 
z
" transform="scale(0.015625)"/>
       </defs>
       <use xlink:href="#CMR17-30" transform="scale(0.996264)"/>
      </g>
     </g>
    </g>
    <g id="xtick_2">
     <g id="line2d_2">
      <g>
       <use xlink:href="#m5e42b52306" x="70.161434" y="202.559296" style="stroke: #000000; stroke-width: 0.8"/>
      </g>
     </g>
     <g id="text_2">
      <!-- $\mathdefault{25}$ -->
      <g transform="translate(65.927251 217.194098) scale(0.08 -0.08)">
       <defs>
        <path id="CMR17-32" d="M 2669 989 
L 2554 989 
C 2490 536 2438 459 2413 420 
C 2381 369 1920 369 1830 369 
L 602 369 
C 832 619 1280 1072 1824 1597 
C 2214 1967 2669 2402 2669 3035 
C 2669 3790 2067 4224 1395 4224 
C 691 4224 262 3604 262 3030 
C 262 2780 448 2748 525 2748 
C 589 2748 781 2787 781 3010 
C 781 3207 614 3264 525 3264 
C 486 3264 448 3258 422 3245 
C 544 3790 915 4058 1306 4058 
C 1862 4058 2227 3617 2227 3035 
C 2227 2479 1901 2000 1536 1584 
L 262 146 
L 262 0 
L 2515 0 
L 2669 989 
z
" transform="scale(0.015625)"/>
        <path id="CMR17-35" d="M 730 3692 
C 794 3666 1056 3584 1325 3584 
C 1920 3584 2246 3911 2432 4100 
C 2432 4157 2432 4192 2394 4192 
C 2387 4192 2374 4192 2323 4163 
C 2099 4058 1837 3973 1517 3973 
C 1325 3973 1037 3999 723 4139 
C 653 4171 640 4171 634 4171 
C 602 4171 595 4164 595 4037 
L 595 2203 
C 595 2089 595 2057 659 2057 
C 691 2057 704 2070 736 2114 
C 941 2401 1222 2522 1542 2522 
C 1766 2522 2246 2382 2246 1289 
C 2246 1085 2246 715 2054 421 
C 1894 159 1645 25 1370 25 
C 947 25 518 320 403 814 
C 429 807 480 795 506 795 
C 589 795 749 840 749 1038 
C 749 1210 627 1280 506 1280 
C 358 1280 262 1190 262 1011 
C 262 454 704 -128 1382 -128 
C 2042 -128 2669 440 2669 1264 
C 2669 2030 2170 2624 1549 2624 
C 1222 2624 947 2503 730 2274 
L 730 3692 
z
" transform="scale(0.015625)"/>
       </defs>
       <use xlink:href="#CMR17-32" transform="scale(0.996264)"/>
       <use xlink:href="#CMR17-35" transform="translate(45.690477 0) scale(0.996264)"/>
      </g>
     </g>
    </g>
    <g id="xtick_3">
     <g id="line2d_3">
      <g>
       <use xlink:href="#m5e42b52306" x="96.96602" y="202.559296" style="stroke: #000000; stroke-width: 0.8"/>
      </g>
     </g>
     <g id="text_3">
      <!-- $\mathdefault{50}$ -->
      <g transform="translate(92.731837 217.194098) scale(0.08 -0.08)">
       <use xlink:href="#CMR17-35" transform="scale(0.996264)"/>
       <use xlink:href="#CMR17-30" transform="translate(45.690477 0) scale(0.996264)"/>
      </g>
     </g>
    </g>
    <g id="xtick_4">
     <g id="line2d_4">
      <g>
       <use xlink:href="#m5e42b52306" x="123.770606" y="202.559296" style="stroke: #000000; stroke-width: 0.8"/>
      </g>
     </g>
     <g id="text_4">
      <!-- $\mathdefault{75}$ -->
      <g transform="translate(119.536423 217.194098) scale(0.08 -0.08)">
       <defs>
        <path id="CMR17-37" d="M 2886 3941 
L 2886 4081 
L 1382 4081 
C 634 4081 621 4165 595 4288 
L 480 4288 
L 294 3094 
L 410 3094 
C 429 3215 474 3540 550 3661 
C 589 3712 1062 3712 1171 3712 
L 2579 3712 
L 1869 2661 
C 1395 1954 1069 999 1069 165 
C 1069 89 1069 -128 1299 -128 
C 1530 -128 1530 89 1530 171 
L 1530 465 
C 1530 1508 1709 2196 2003 2636 
L 2886 3941 
z
" transform="scale(0.015625)"/>
       </defs>
       <use xlink:href="#CMR17-37" transform="scale(0.996264)"/>
       <use xlink:href="#CMR17-35" transform="translate(45.690477 0) scale(0.996264)"/>
      </g>
     </g>
    </g>
    <g id="xtick_5">
     <g id="line2d_5">
      <g>
       <use xlink:href="#m5e42b52306" x="150.575193" y="202.559296" style="stroke: #000000; stroke-width: 0.8"/>
      </g>
     </g>
     <g id="text_5">
      <!-- $\mathdefault{100}$ -->
      <g transform="translate(144.223918 217.194098) scale(0.08 -0.08)">
       <defs>
        <path id="CMR17-31" d="M 1702 4058 
C 1702 4192 1696 4192 1606 4192 
C 1357 3916 979 3827 621 3827 
C 602 3827 570 3827 563 3808 
C 557 3795 557 3782 557 3648 
C 755 3648 1088 3686 1344 3839 
L 1344 461 
C 1344 236 1331 160 781 160 
L 589 160 
L 589 0 
C 896 0 1216 0 1523 0 
C 1830 0 2150 0 2458 0 
L 2458 160 
L 2266 160 
C 1715 160 1702 230 1702 458 
L 1702 4058 
z
" transform="scale(0.015625)"/>
       </defs>
       <use xlink:href="#CMR17-31" transform="scale(0.996264)"/>
       <use xlink:href="#CMR17-30" transform="translate(45.690477 0) scale(0.996264)"/>
       <use xlink:href="#CMR17-30" transform="translate(91.380954 0) scale(0.996264)"/>
      </g>
     </g>
    </g>
    <g id="xtick_6">
     <g id="line2d_6">
      <g>
       <use xlink:href="#m5e42b52306" x="177.379779" y="202.559296" style="stroke: #000000; stroke-width: 0.8"/>
      </g>
     </g>
     <g id="text_6">
      <!-- $\mathdefault{125}$ -->
      <g transform="translate(171.028505 217.194098) scale(0.08 -0.08)">
       <use xlink:href="#CMR17-31" transform="scale(0.996264)"/>
       <use xlink:href="#CMR17-32" transform="translate(45.690477 0) scale(0.996264)"/>
       <use xlink:href="#CMR17-35" transform="translate(91.380954 0) scale(0.996264)"/>
      </g>
     </g>
    </g>
    <g id="xtick_7">
     <g id="line2d_7">
      <g>
       <use xlink:href="#m5e42b52306" x="204.184365" y="202.559296" style="stroke: #000000; stroke-width: 0.8"/>
      </g>
     </g>
     <g id="text_7">
      <!-- $\mathdefault{150}$ -->
      <g transform="translate(197.833091 217.194098) scale(0.08 -0.08)">
       <use xlink:href="#CMR17-31" transform="scale(0.996264)"/>
       <use xlink:href="#CMR17-35" transform="translate(45.690477 0) scale(0.996264)"/>
       <use xlink:href="#CMR17-30" transform="translate(91.380954 0) scale(0.996264)"/>
      </g>
     </g>
    </g>
    <g id="xtick_8">
     <g id="line2d_8">
      <g>
       <use xlink:href="#m5e42b52306" x="230.988952" y="202.559296" style="stroke: #000000; stroke-width: 0.8"/>
      </g>
     </g>
     <g id="text_8">
      <!-- $\mathdefault{175}$ -->
      <g transform="translate(224.637677 217.194098) scale(0.08 -0.08)">
       <use xlink:href="#CMR17-31" transform="scale(0.996264)"/>
       <use xlink:href="#CMR17-37" transform="translate(45.690477 0) scale(0.996264)"/>
       <use xlink:href="#CMR17-35" transform="translate(91.380954 0) scale(0.996264)"/>
      </g>
     </g>
    </g>
    <g id="text_9">
     <!-- $\tau$ -->
     <g transform="translate(137.675756 229.662342) scale(0.1 -0.1)">
      <defs>
       <path id="CMMI12-1c" d="M 1837 2408 
L 2899 2408 
C 2982 2408 3194 2408 3194 2612 
C 3194 2752 3072 2752 2957 2752 
L 1197 2752 
C 1050 2752 832 2752 538 2440 
C 371 2255 166 1917 166 1879 
C 166 1841 198 1828 237 1828 
C 282 1828 288 1847 320 1885 
C 653 2408 986 2408 1146 2408 
L 1677 2408 
L 1011 223 
C 979 127 979 114 979 95 
C 979 25 1024 -64 1152 -64 
C 1350 -64 1382 108 1402 203 
L 1837 2408 
z
" transform="scale(0.015625)"/>
      </defs>
      <use xlink:href="#CMMI12-1c" transform="scale(0.996264)"/>
     </g>
    </g>
   </g>
   <g id="matplotlib.axis_2">
    <g id="ytick_1">
     <g id="line2d_9">
      <defs>
       <path id="m49fd45dd99" d="M 0 0 
L -3.5 0 
" style="stroke: #000000; stroke-width: 0.8"/>
      </defs>
      <g>
       <use xlink:href="#m49fd45dd99" x="33.707196" y="193.679328" style="stroke: #000000; stroke-width: 0.8"/>
      </g>
     </g>
     <g id="text_10">
      <!-- $\mathdefault{−1.0}$ -->
      <g transform="translate(7.2 196.446729) scale(0.08 -0.08)">
       <defs>
        <path id="CMSY10-0" d="M 4218 1472 
C 4326 1472 4442 1472 4442 1600 
C 4442 1728 4326 1728 4218 1728 
L 755 1728 
C 646 1728 531 1728 531 1600 
C 531 1472 646 1472 755 1472 
L 4218 1472 
z
" transform="scale(0.015625)"/>
        <path id="CMMI12-3a" d="M 1178 307 
C 1178 492 1024 619 870 619 
C 685 619 557 466 557 313 
C 557 128 710 0 864 0 
C 1050 0 1178 153 1178 307 
z
" transform="scale(0.015625)"/>
       </defs>
       <use xlink:href="#CMSY10-0" transform="scale(0.996264)"/>
       <use xlink:href="#CMR17-31" transform="translate(77.487468 0) scale(0.996264)"/>
       <use xlink:href="#CMMI12-3a" transform="translate(123.177945 0) scale(0.996264)"/>
       <use xlink:href="#CMR17-30" transform="translate(150.275122 0) scale(0.996264)"/>
      </g>
     </g>
    </g>
    <g id="ytick_2">
     <g id="line2d_10">
      <g>
       <use xlink:href="#m49fd45dd99" x="33.707196" y="166.66399" style="stroke: #000000; stroke-width: 0.8"/>
      </g>
     </g>
     <g id="text_11">
      <!-- $\mathdefault{−0.8}$ -->
      <g transform="translate(7.2 169.431391) scale(0.08 -0.08)">
       <defs>
        <path id="CMR17-38" d="M 1741 2264 
C 2144 2467 2554 2773 2554 3263 
C 2554 3841 1990 4179 1472 4179 
C 890 4179 378 3759 378 3180 
C 378 3021 416 2747 666 2505 
C 730 2442 998 2251 1171 2130 
C 883 1983 211 1634 211 934 
C 211 279 838 -128 1459 -128 
C 2144 -128 2720 362 2720 1010 
C 2720 1590 2330 1857 2074 2029 
L 1741 2264 
z
M 902 2822 
C 851 2854 595 3051 595 3351 
C 595 3739 998 4032 1459 4032 
C 1965 4032 2336 3676 2336 3262 
C 2336 2669 1670 2331 1638 2331 
C 1632 2331 1626 2331 1574 2370 
L 902 2822 
z
M 2080 1519 
C 2176 1449 2483 1240 2483 851 
C 2483 381 2010 25 1472 25 
C 890 25 448 438 448 940 
C 448 1443 838 1862 1280 2060 
L 2080 1519 
z
" transform="scale(0.015625)"/>
       </defs>
       <use xlink:href="#CMSY10-0" transform="scale(0.996264)"/>
       <use xlink:href="#CMR17-30" transform="translate(77.487468 0) scale(0.996264)"/>
       <use xlink:href="#CMMI12-3a" transform="translate(123.177945 0) scale(0.996264)"/>
       <use xlink:href="#CMR17-38" transform="translate(150.275122 0) scale(0.996264)"/>
      </g>
     </g>
    </g>
    <g id="ytick_3">
     <g id="line2d_11">
      <g>
       <use xlink:href="#m49fd45dd99" x="33.707196" y="139.648652" style="stroke: #000000; stroke-width: 0.8"/>
      </g>
     </g>
     <g id="text_12">
      <!-- $\mathdefault{−0.6}$ -->
      <g transform="translate(7.2 142.416053) scale(0.08 -0.08)">
       <defs>
        <path id="CMR17-36" d="M 678 2176 
C 678 3690 1395 4032 1811 4032 
C 1946 4032 2272 4009 2400 3776 
C 2298 3776 2106 3776 2106 3553 
C 2106 3381 2246 3323 2336 3323 
C 2394 3323 2566 3348 2566 3560 
C 2566 3954 2246 4179 1805 4179 
C 1043 4179 243 3390 243 1984 
C 243 253 966 -128 1478 -128 
C 2099 -128 2688 427 2688 1283 
C 2688 2081 2170 2662 1517 2662 
C 1126 2662 838 2407 678 1960 
L 678 2176 
z
M 1478 25 
C 691 25 691 1200 691 1436 
C 691 1896 909 2560 1504 2560 
C 1613 2560 1926 2560 2138 2120 
C 2253 1870 2253 1609 2253 1289 
C 2253 944 2253 690 2118 434 
C 1978 171 1773 25 1478 25 
z
" transform="scale(0.015625)"/>
       </defs>
       <use xlink:href="#CMSY10-0" transform="scale(0.996264)"/>
       <use xlink:href="#CMR17-30" transform="translate(77.487468 0) scale(0.996264)"/>
       <use xlink:href="#CMMI12-3a" transform="translate(123.177945 0) scale(0.996264)"/>
       <use xlink:href="#CMR17-36" transform="translate(150.275122 0) scale(0.996264)"/>
      </g>
     </g>
    </g>
    <g id="ytick_4">
     <g id="line2d_12">
      <g>
       <use xlink:href="#m49fd45dd99" x="33.707196" y="112.633314" style="stroke: #000000; stroke-width: 0.8"/>
      </g>
     </g>
     <g id="text_13">
      <!-- $\mathdefault{−0.4}$ -->
      <g transform="translate(7.2 115.400715) scale(0.08 -0.08)">
       <defs>
        <path id="CMR17-34" d="M 2150 4122 
C 2150 4256 2144 4256 2029 4256 
L 128 1254 
L 128 1088 
L 1779 1088 
L 1779 457 
C 1779 224 1766 160 1318 160 
L 1197 160 
L 1197 0 
C 1402 0 1747 0 1965 0 
C 2182 0 2528 0 2733 0 
L 2733 160 
L 2611 160 
C 2163 160 2150 224 2150 457 
L 2150 1088 
L 2803 1088 
L 2803 1254 
L 2150 1254 
L 2150 4122 
z
M 1798 3703 
L 1798 1254 
L 256 1254 
L 1798 3703 
z
" transform="scale(0.015625)"/>
       </defs>
       <use xlink:href="#CMSY10-0" transform="scale(0.996264)"/>
       <use xlink:href="#CMR17-30" transform="translate(77.487468 0) scale(0.996264)"/>
       <use xlink:href="#CMMI12-3a" transform="translate(123.177945 0) scale(0.996264)"/>
       <use xlink:href="#CMR17-34" transform="translate(150.275122 0) scale(0.996264)"/>
      </g>
     </g>
    </g>
    <g id="ytick_5">
     <g id="line2d_13">
      <g>
       <use xlink:href="#m49fd45dd99" x="33.707196" y="85.617976" style="stroke: #000000; stroke-width: 0.8"/>
      </g>
     </g>
     <g id="text_14">
      <!-- $\mathdefault{−0.2}$ -->
      <g transform="translate(7.2 88.385377) scale(0.08 -0.08)">
       <use xlink:href="#CMSY10-0" transform="scale(0.996264)"/>
       <use xlink:href="#CMR17-30" transform="translate(77.487468 0) scale(0.996264)"/>
       <use xlink:href="#CMMI12-3a" transform="translate(123.177945 0) scale(0.996264)"/>
       <use xlink:href="#CMR17-32" transform="translate(150.275122 0) scale(0.996264)"/>
      </g>
     </g>
    </g>
    <g id="ytick_6">
     <g id="line2d_14">
      <g>
       <use xlink:href="#m49fd45dd99" x="33.707196" y="58.602638" style="stroke: #000000; stroke-width: 0.8"/>
      </g>
     </g>
     <g id="text_15">
      <!-- $\mathdefault{0.0}$ -->
      <g transform="translate(13.786507 61.370039) scale(0.08 -0.08)">
       <use xlink:href="#CMR17-30" transform="scale(0.996264)"/>
       <use xlink:href="#CMMI12-3a" transform="translate(45.690477 0) scale(0.996264)"/>
       <use xlink:href="#CMR17-30" transform="translate(72.787654 0) scale(0.996264)"/>
      </g>
     </g>
    </g>
    <g id="ytick_7">
     <g id="line2d_15">
      <g>
       <use xlink:href="#m49fd45dd99" x="33.707196" y="31.5873" style="stroke: #000000; stroke-width: 0.8"/>
      </g>
     </g>
     <g id="text_16">
      <!-- $\mathdefault{0.2}$ -->
      <g transform="translate(13.786507 34.354701) scale(0.08 -0.08)">
       <use xlink:href="#CMR17-30" transform="scale(0.996264)"/>
       <use xlink:href="#CMMI12-3a" transform="translate(45.690477 0) scale(0.996264)"/>
       <use xlink:href="#CMR17-32" transform="translate(72.787654 0) scale(0.996264)"/>
      </g>
     </g>
    </g>
   </g>
   <g id="line2d_16">
    <path d="M 43.356847 193.679328 
L 43.485509 193.329718 
L 43.678502 191.507714 
L 43.935826 186.727628 
L 44.321812 174.798571 
L 44.900791 148.544145 
L 45.47977 124.850206 
L 45.672764 122.205903 
L 45.737095 122.263095 
L 45.865757 123.939835 
L 46.05875 130.446411 
L 46.380405 150.237238 
L 47.023715 190.779399 
L 47.216708 193.675701 
L 47.34537 192.143841 
L 47.538363 184.945114 
L 47.924349 158.204749 
L 48.503328 120.334801 
L 48.696321 117.445636 
L 48.824983 119.28596 
L 49.017976 127.14582 
L 49.789948 168.361715 
L 49.854279 168.259017 
L 49.982941 165.803369 
L 50.240265 152.690265 
L 50.819244 117.322192 
L 51.269561 103.264995 
L 51.333892 103.437536 
L 51.462554 106.50362 
L 51.784209 124.310918 
L 52.105864 136.737484 
L 52.234526 137.295422 
L 52.363188 135.996197 
L 52.620512 129.816805 
L 53.263822 109.837762 
L 53.328153 109.804543 
L 53.456815 111.072742 
L 53.971463 120.646668 
L 54.035794 120.407191 
L 54.164456 117.09632 
L 54.42178 99.58203 
L 54.807767 75.627826 
L 54.936429 74.642625 
L 55.065091 77.122673 
L 55.772732 101.223152 
L 55.901394 99.880014 
L 56.158718 92.337444 
L 56.480373 75.204944 
L 56.802028 60.421805 
L 56.866359 61.008462 
L 56.995021 66.486122 
L 57.381007 100.422352 
L 57.831324 132.312435 
L 58.024317 137.171458 
L 58.088648 136.876968 
L 58.21731 133.844696 
L 58.474634 121.003697 
L 58.924951 97.338443 
L 58.989282 96.909628 
L 59.053613 97.206817 
L 59.439599 102.522498 
L 59.50393 102.229017 
L 59.696923 98.156681 
L 60.211571 82.208089 
L 60.533226 67.030013 
L 60.597557 66.895176 
L 60.726219 71.729057 
L 61.305198 113.480019 
L 61.369529 111.970336 
L 61.626853 95.973479 
L 61.948508 80.314585 
L 62.012839 79.650021 
L 62.07717 79.967623 
L 62.205832 83.295833 
L 62.72048 100.430851 
L 62.849142 98.246253 
L 63.299459 82.244988 
L 63.36379 82.809828 
L 63.556784 90.764841 
L 63.878439 104.621751 
L 63.94277 103.959261 
L 64.071432 97.97044 
L 64.650411 57.217914 
L 64.714742 57.760576 
L 64.907735 64.313055 
L 65.22939 74.510564 
L 65.679707 81.256026 
L 66.065693 90.144765 
L 66.130024 90.070647 
L 66.323017 87.656058 
L 66.51601 86.196334 
L 66.644672 87.524784 
L 66.901996 91.437387 
L 66.966327 91.242244 
L 67.094989 88.806897 
L 67.480975 79.555308 
L 67.545306 79.64105 
L 67.738299 82.51548 
L 68.767595 105.756571 
L 69.217912 118.053639 
L 69.282243 117.841612 
L 69.410905 114.063368 
L 69.668229 94.159486 
L 69.925553 77.163378 
L 69.989884 76.088125 
L 70.054215 76.424811 
L 70.182877 80.654342 
L 70.697525 103.345261 
L 70.890518 104.957661 
L 70.954849 104.86325 
L 71.083511 103.369995 
L 71.276504 96.089301 
L 71.533828 71.191952 
L 71.984145 22.478131 
L 72.048476 23.605213 
L 72.241469 41.600067 
L 72.498794 62.893912 
L 72.563125 62.225227 
L 72.949111 44.339097 
L 73.013442 45.29336 
L 73.463759 58.880284 
L 73.592421 57.374649 
L 74.364393 42.720335 
L 74.621717 40.610792 
L 74.686048 40.518532 
L 74.750379 40.619878 
L 74.943372 41.957754 
L 75.393689 48.193587 
L 75.844006 53.450146 
L 76.036999 54.126255 
L 76.10133 54.087145 
L 76.229992 53.621259 
L 76.487316 51.368382 
L 77.452281 40.835172 
L 77.709605 40.242392 
L 77.838267 40.347109 
L 78.03126 40.90966 
L 78.417246 43.041968 
L 80.154183 54.252321 
L 80.540169 55.27936 
L 80.668831 55.323743 
L 80.797493 55.133861 
L 80.990486 54.36275 
L 81.24781 52.307879 
L 81.569466 47.181607 
L 82.663093 24.416858 
L 82.727424 24.397114 
L 82.856086 25.325453 
L 83.049079 29.046964 
L 83.370734 40.177394 
L 84.271368 76.403706 
L 85.300664 102.800528 
L 86.136967 122.671512 
L 86.394291 123.983778 
L 86.587284 125.058019 
L 87.101932 129.977904 
L 87.166263 129.940923 
L 87.552249 129.075281 
L 87.61658 129.138243 
L 87.809573 129.932766 
L 88.388552 133.282028 
L 88.452883 133.353251 
L 88.517214 133.286568 
L 88.645876 132.708274 
L 89.160524 129.196284 
L 89.224855 129.24875 
L 89.353517 129.795501 
L 89.610841 132.326113 
L 89.996827 138.857547 
L 90.897462 155.899735 
L 91.219117 157.413901 
L 91.41211 157.613066 
L 91.605103 157.363837 
L 91.798096 157.139598 
L 91.926758 157.334447 
L 92.119751 158.365301 
L 92.69873 162.239958 
L 92.891723 162.357737 
L 93.084716 161.977559 
L 93.535033 160.028914 
L 94.307005 156.626839 
L 94.62866 156.067546 
L 95.014646 154.334684 
L 95.143308 155.055433 
L 95.529294 158.740335 
L 95.593625 158.685661 
L 95.722287 157.827488 
L 96.494259 150.372406 
L 96.687252 149.840405 
L 96.751583 149.835906 
L 96.880245 150.225652 
L 97.073238 152.110854 
L 97.84521 162.350819 
L 97.909541 162.394348 
L 98.038203 161.781514 
L 98.295527 158.302681 
L 98.681513 149.165601 
L 99.646479 124.59135 
L 99.968134 120.012718 
L 100.161127 119.38378 
L 100.289789 119.835822 
L 100.482782 122.408956 
L 100.804437 131.373336 
L 101.319085 145.611046 
L 101.512078 147.310425 
L 101.576409 147.29961 
L 101.769402 146.307103 
L 101.962395 145.642163 
L 102.091057 146.234122 
L 102.348381 149.835894 
L 102.734367 154.281346 
L 102.863029 154.591567 
L 102.991691 154.399652 
L 103.249015 153.116077 
L 103.506339 150.581341 
L 104.728628 135.785897 
L 105.050283 133.71697 
L 105.114614 133.619871 
L 105.178945 133.669729 
L 105.307607 134.202124 
L 105.693593 137.520966 
L 107.43053 154.323782 
L 108.910144 172.815708 
L 109.167468 173.675284 
L 109.29613 173.487813 
L 109.489123 172.287341 
L 109.746447 168.837168 
L 110.196764 158.68243 
L 110.711412 148.126008 
L 110.904405 147.040302 
L 110.968736 147.170654 
L 111.097398 148.182657 
L 111.354722 152.888717 
L 112.255356 173.066939 
L 112.319687 173.123398 
L 112.448349 172.252592 
L 112.641342 168.611369 
L 113.027328 155.683397 
L 113.7993 129.263328 
L 114.120955 124.001619 
L 114.313948 123.073411 
L 114.378279 123.163902 
L 114.506941 124.074731 
L 114.764265 128.719201 
L 115.021589 132.337546 
L 115.08592 132.20493 
L 115.278913 129.471183 
L 116.179547 109.434574 
L 116.501202 85.420012 
L 116.822857 64.161772 
L 116.887189 63.447216 
L 117.015851 66.236378 
L 117.401837 81.307144 
L 117.466168 81.270202 
L 117.59483 78.910261 
L 117.980816 70.491252 
L 118.045147 71.025606 
L 118.173809 75.018652 
L 118.431133 94.816827 
L 118.88145 133.895328 
L 119.074443 136.936622 
L 119.203105 136.396584 
L 119.396098 135.826707 
L 119.589091 136.572863 
L 119.717753 136.896869 
L 119.782084 136.703433 
L 119.910746 135.079073 
L 120.103739 128.66845 
L 120.682718 104.787201 
L 121.068704 99.57975 
L 121.390359 96.374548 
L 121.45469 96.401802 
L 121.583352 98.140875 
L 121.840676 108.748658 
L 122.098 118.680464 
L 122.162331 118.994249 
L 122.290993 115.953714 
L 122.548317 97.535278 
L 122.869972 78.360193 
L 122.934303 77.584922 
L 122.998634 77.732057 
L 123.191627 81.988367 
L 123.577613 91.428502 
L 123.641944 91.141609 
L 123.770606 87.707589 
L 124.220923 68.8543 
L 124.349585 71.727187 
L 124.606909 77.928007 
L 124.735571 75.602661 
L 125.121557 66.482703 
L 125.250219 68.342828 
L 125.571874 80.85519 
L 125.829199 88.273134 
L 125.89353 88.602596 
L 125.957861 88.164571 
L 126.086523 84.976634 
L 126.665502 61.799478 
L 126.729833 62.035844 
L 126.858495 65.204849 
L 127.051488 76.868211 
L 127.759129 136.948351 
L 127.82346 136.132952 
L 128.016453 125.920916 
L 128.531101 92.59273 
L 128.788425 89.975558 
L 129.174411 86.626256 
L 129.238742 86.690078 
L 129.367404 87.864796 
L 129.624728 93.97223 
L 130.3967 115.54848 
L 130.654024 117.808418 
L 130.847017 118.929725 
L 131.04001 122.755434 
L 131.361665 128.835167 
L 131.490327 125.899558 
L 132.133637 101.179136 
L 132.197968 101.178964 
L 132.32663 102.583805 
L 132.841278 111.315109 
L 132.96994 109.269089 
L 133.227264 97.769475 
L 133.548919 84.717027 
L 133.677581 83.742516 
L 133.806243 85.823344 
L 134.063567 96.807621 
L 134.578215 120.589372 
L 134.642546 120.788685 
L 134.771209 116.293408 
L 134.964202 96.026684 
L 135.350188 51.635995 
L 135.414519 50.648231 
L 135.543181 55.442261 
L 136.379484 108.76226 
L 136.572477 111.980661 
L 136.636808 111.683037 
L 136.76547 108.706577 
L 137.087125 91.844065 
L 137.280118 84.935115 
L 137.344449 85.053187 
L 137.473111 89.463415 
L 137.987759 115.968198 
L 138.05209 116.14699 
L 138.180752 114.552505 
L 139.017055 97.527377 
L 139.145717 97.079629 
L 139.210048 97.128913 
L 139.33871 97.80809 
L 139.596034 101.395967 
L 140.62533 120.274954 
L 140.689661 120.254697 
L 140.818323 119.604547 
L 141.075647 116.245097 
L 142.169274 98.330549 
L 142.426598 97.435272 
L 142.55526 97.501591 
L 142.748253 98.137647 
L 143.069908 100.325725 
L 143.584556 105.742909 
L 144.549522 116.405979 
L 144.806846 117.503711 
L 144.999839 117.624563 
L 145.385825 117.329331 
L 145.578818 116.882797 
L 145.836142 115.57218 
L 146.286459 113.149276 
L 146.415121 113.724512 
L 146.672445 117.548029 
L 146.929769 120.727895 
L 146.9941 120.89663 
L 147.058431 120.801578 
L 147.251424 119.251575 
L 147.63741 115.401992 
L 147.830403 115.056011 
L 148.409382 115.344605 
L 148.731037 116.342553 
L 148.795368 116.315075 
L 148.92403 115.902586 
L 149.696002 112.322952 
L 149.824664 112.666295 
L 150.017657 114.138938 
L 150.274981 118.572683 
L 151.046953 135.747304 
L 151.432939 138.234956 
L 152.011918 141.170973 
L 152.462235 143.156359 
L 152.590898 143.328488 
L 152.71956 143.146935 
L 152.976884 142.009229 
L 153.234208 139.864647 
L 153.555863 134.821265 
L 154.070511 126.433818 
L 154.134842 126.260964 
L 154.199173 126.36271 
L 154.392166 127.992469 
L 154.778152 134.621126 
L 155.550124 149.051284 
L 155.743117 149.914303 
L 155.871779 149.851427 
L 156.064772 149.167588 
L 156.257765 147.391592 
L 157.029737 136.98542 
L 157.158399 137.086192 
L 157.415723 137.3107 
L 157.801709 137.070962 
L 158.059033 137.699645 
L 158.316357 138.129435 
L 158.702343 138.343844 
L 158.831005 138.061739 
L 159.281322 136.112906 
L 159.345653 136.148371 
L 159.474315 136.677643 
L 159.79597 139.671125 
L 160.503611 146.197213 
L 160.632273 146.31594 
L 160.760935 146.036509 
L 161.275583 144.534069 
L 161.404245 144.671717 
L 161.597239 145.400049 
L 162.176218 148.418378 
L 162.369211 148.67743 
L 162.690866 149.478566 
L 162.819528 149.271248 
L 163.141183 147.792276 
L 163.462838 146.553037 
L 163.5915 146.62854 
L 163.784493 147.432334 
L 164.106148 150.324761 
L 164.492134 153.53491 
L 164.556465 153.505657 
L 164.685127 152.882732 
L 165.328437 148.422837 
L 165.585761 148.532487 
L 165.714423 148.187156 
L 165.971747 146.129718 
L 166.486395 139.524022 
L 167.065374 131.258059 
L 167.129705 131.106749 
L 167.194036 131.135904 
L 167.387029 131.862295 
L 168.09467 135.814603 
L 168.480656 142.45886 
L 169.188297 154.113896 
L 169.509952 156.654884 
L 169.638614 156.804523 
L 169.960269 156.415328 
L 170.0246 156.509092 
L 170.217593 157.393211 
L 170.796573 160.57278 
L 171.504214 163.21663 
L 171.761538 163.475806 
L 171.954531 163.429333 
L 172.211855 163.079549 
L 172.53351 162.217857 
L 172.983827 160.331441 
L 174.141785 155.025507 
L 174.270447 154.979955 
L 174.399109 155.162966 
L 174.592102 155.889221 
L 174.913757 158.151475 
L 175.557067 163.048063 
L 175.75006 163.480207 
L 175.878722 163.357818 
L 176.071715 162.584668 
L 176.457701 159.675594 
L 177.615659 150.815761 
L 177.744321 150.644308 
L 178.001645 150.746901 
L 178.130307 150.244853 
L 178.387631 147.810708 
L 178.773617 142.311858 
L 179.030941 134.859347 
L 179.416928 116.00899 
L 179.738583 102.636975 
L 179.802914 102.239328 
L 179.931576 104.878125 
L 180.124569 117.050104 
L 180.574886 150.297535 
L 180.703548 151.979323 
L 180.83221 149.839168 
L 181.089534 138.622645 
L 181.604182 113.472242 
L 181.732844 112.644255 
L 181.861506 114.295247 
L 182.11883 121.600896 
L 182.440485 137.190712 
L 182.76214 151.205617 
L 182.890802 152.370086 
L 183.019464 150.938491 
L 183.212457 144.166829 
L 183.855767 113.333628 
L 183.984429 116.672535 
L 184.627739 147.475856 
L 184.756401 145.343246 
L 185.33538 132.692226 
L 185.464042 132.076383 
L 185.528373 132.192285 
L 185.914359 134.447707 
L 185.97869 134.261035 
L 186.107352 133.095958 
L 186.300345 128.789476 
L 186.557669 114.664753 
L 187.072317 82.566277 
L 187.136648 83.24695 
L 187.329641 93.690613 
L 187.715627 117.949289 
L 187.779958 117.935906 
L 187.90862 113.969669 
L 188.616262 80.306765 
L 188.744924 82.210837 
L 189.066579 93.616088 
L 189.645558 113.863307 
L 189.709889 113.463114 
L 189.902882 107.550944 
L 190.288868 93.855506 
L 190.353199 93.813886 
L 190.481861 96.282009 
L 190.739185 109.270662 
L 191.125171 130.161106 
L 191.189502 131.197943 
L 191.253833 131.083948 
L 191.382495 127.2406 
L 191.639819 107.749691 
L 192.025805 76.344996 
L 192.090136 75.401603 
L 192.154467 76.298206 
L 192.34746 86.969331 
L 192.604784 99.866436 
L 192.669115 99.80638 
L 192.797777 94.983648 
L 193.376756 54.75197 
L 193.441087 55.687435 
L 193.63408 66.20797 
L 194.084397 91.905013 
L 194.727707 102.873135 
L 194.792038 102.775867 
L 194.9207 99.679246 
L 195.821334 63.821202 
L 195.885665 63.556468 
L 195.949996 64.094466 
L 196.078658 68.170469 
L 196.335982 88.985665 
L 196.657637 114.34682 
L 196.721968 115.289174 
L 196.786299 114.542977 
L 196.979292 104.790081 
L 197.365279 85.270534 
L 197.42961 84.922145 
L 197.558272 86.689223 
L 198.008589 97.692507 
L 198.07292 97.774444 
L 198.330244 96.803477 
L 198.394575 96.956232 
L 198.651899 98.890177 
L 198.71623 98.81364 
L 198.844892 96.629808 
L 199.295209 82.836649 
L 199.423871 84.994221 
L 200.00285 105.324825 
L 200.324505 115.849937 
L 200.388836 116.486415 
L 200.453167 116.470869 
L 200.581829 114.44715 
L 200.839153 104.250916 
L 201.160808 94.422814 
L 201.225139 94.202081 
L 201.353801 95.227911 
L 201.739787 100.7875 
L 201.868449 98.840003 
L 202.061442 89.903582 
L 202.57609 63.552075 
L 202.769083 61.32356 
L 202.833414 61.494995 
L 202.962076 62.997638 
L 203.2194 70.059095 
L 203.798379 97.178283 
L 204.120034 106.748584 
L 204.248696 107.681533 
L 204.313027 107.456375 
L 204.441689 105.646328 
L 204.699013 97.298578 
L 205.599647 61.56378 
L 205.79264 60.368874 
L 205.921302 61.163261 
L 206.178627 65.779023 
L 206.757606 83.078866 
L 207.400916 99.920773 
L 207.786902 105.742635 
L 208.044226 107.48938 
L 208.172888 107.680118 
L 208.30155 107.412787 
L 208.494543 106.188666 
L 208.816198 102.083154 
L 209.330846 91.550455 
L 209.781163 83.534871 
L 210.295811 76.751254 
L 211.003452 60.926116 
L 211.067783 61.003414 
L 211.196445 62.151272 
L 211.389438 66.263559 
L 211.711093 79.048341 
L 212.16141 95.376214 
L 212.740389 105.046245 
L 213.126375 111.6202 
L 213.576692 118.99591 
L 213.898347 120.767761 
L 214.027009 120.949664 
L 214.155671 120.461086 
L 214.348664 118.076805 
L 215.506623 97.933133 
L 215.699616 96.860784 
L 215.763947 96.97695 
L 215.892609 97.944893 
L 216.214264 103.112735 
L 216.60025 112.471751 
L 217.372222 133.799386 
L 217.500884 134.215687 
L 217.629546 133.978435 
L 217.951201 133.252096 
L 218.079863 133.313222 
L 218.465849 133.985531 
L 218.53018 133.920983 
L 218.723173 133.103349 
L 219.237821 130.433227 
L 219.495145 128.922984 
L 220.395779 120.774261 
L 220.846096 116.450557 
L 220.910427 116.361945 
L 221.039089 116.786602 
L 221.232082 118.792083 
L 221.74673 127.372818 
L 222.647364 146.3312 
L 222.904688 147.60037 
L 222.969019 147.61321 
L 223.097681 147.091072 
L 223.355005 143.943447 
L 223.805323 138.871871 
L 224.384302 134.455769 
L 224.512964 134.675589 
L 224.705957 134.911672 
L 224.834619 134.45187 
L 225.735253 129.463887 
L 225.928246 129.425016 
L 226.18557 129.519462 
L 226.378563 129.150311 
L 226.700218 128.508137 
L 226.82888 128.97613 
L 227.021873 131.305114 
L 227.279197 137.641878 
L 228.179831 164.823451 
L 228.244162 164.81597 
L 228.372824 163.897075 
L 228.630148 159.120689 
L 229.723775 133.441463 
L 230.302754 130.683273 
L 230.431416 130.344664 
L 230.495747 130.385835 
L 230.624409 130.914033 
L 230.881733 133.410995 
L 231.203388 139.301862 
L 231.911029 153.39803 
L 232.232684 156.6495 
L 232.490008 157.457566 
L 232.61867 157.073529 
L 232.811664 155.269671 
L 233.583636 145.816639 
L 233.712298 145.641509 
L 233.84096 146.266438 
L 234.419939 151.434881 
L 234.48427 151.392311 
L 234.677263 150.4106 
L 235.191911 147.347194 
L 235.513566 146.697062 
L 235.77089 146.584104 
L 235.963883 146.828398 
L 236.221207 147.75249 
L 236.349869 148.482726 
L 236.349869 148.482726 
" clip-path="url(#p64a709a388)" style="fill: none; stroke: #1f77b4; stroke-width: 0.5; stroke-linecap: square"/>
   </g>
   <g id="line2d_17">
    <path d="M 43.356847 58.602638 
L 47.667025 58.513726 
L 47.98868 58.112156 
L 49.082307 55.964562 
L 49.2753 53.996251 
L 49.532624 48.212871 
L 50.304596 27.72069 
L 50.626251 24.665749 
L 51.462554 20.609839 
L 51.526885 20.61671 
L 51.655547 21.302712 
L 51.912871 25.661762 
L 52.170195 29.010875 
L 52.234526 29.008418 
L 52.427519 27.887119 
L 52.877836 25.062223 
L 53.006498 24.995094 
L 53.199491 25.147709 
L 53.328153 24.911469 
L 53.585477 23.572314 
L 53.842801 22.590818 
L 53.971463 22.826304 
L 54.357449 23.746039 
L 54.486111 23.822925 
L 54.614774 23.522142 
L 54.872098 22.166131 
L 54.936429 22.325001 
L 55.065091 23.891597 
L 55.322415 27.925317 
L 55.386746 27.652559 
L 55.708401 23.643333 
L 55.965725 25.937991 
L 56.030056 25.583056 
L 56.416042 20.084481 
L 56.480373 20.289965 
L 56.673366 22.499334 
L 56.995021 25.579187 
L 57.316676 25.76129 
L 57.445338 25.14742 
L 57.702662 22.87109 
L 57.766993 22.99002 
L 58.024317 24.828815 
L 58.088648 24.760334 
L 58.345972 23.984585 
L 58.474634 23.982512 
L 58.603296 23.545013 
L 59.117944 20.936369 
L 59.246606 20.979515 
L 59.375268 21.648838 
L 59.825585 25.517099 
L 59.889916 25.503219 
L 60.14724 24.142382 
L 60.211571 24.223866 
L 60.404564 26.323786 
L 60.533226 27.096258 
L 60.661888 25.691716 
L 60.919212 22.290418 
L 61.047874 23.405003 
L 61.305198 26.920383 
L 61.369529 26.885301 
L 61.562522 25.996778 
L 61.626853 26.021218 
L 61.948508 27.042141 
L 62.141501 26.772264 
L 62.270163 27.181898 
L 62.591818 29.706602 
L 62.656149 29.597097 
L 62.784811 28.090321 
L 63.106466 23.563468 
L 63.235128 24.884032 
L 63.492453 28.233524 
L 63.556784 28.259747 
L 63.878439 27.048666 
L 64.071432 25.579564 
L 64.457418 21.135296 
L 64.58608 21.931944 
L 64.779073 23.333879 
L 64.843404 23.320941 
L 65.036397 22.079982 
L 65.293721 20.770755 
L 65.358052 20.838154 
L 65.486714 21.538522 
L 65.808369 25.612275 
L 66.001362 27.314007 
L 66.065693 27.161201 
L 66.258686 24.452572 
L 66.580341 20.129371 
L 66.773334 19.6817 
L 66.901996 19.719084 
L 67.030658 19.399391 
L 67.352313 18.175136 
L 67.480975 18.611777 
L 67.931292 22.053327 
L 68.317278 26.703052 
L 68.574602 29.349865 
L 68.638933 29.495564 
L 68.703264 29.406513 
L 68.896257 28.030446 
L 69.410905 23.276755 
L 69.603898 22.962105 
L 69.861222 23.144838 
L 70.054215 22.496563 
L 70.118546 22.52415 
L 70.247208 23.778123 
L 70.504532 28.052941 
L 70.568863 28.021411 
L 70.890518 25.20685 
L 70.954849 25.370153 
L 71.276504 27.86845 
L 71.340835 27.760045 
L 71.469497 26.424627 
L 71.791152 22.05748 
L 71.855483 22.079717 
L 72.112807 24.212782 
L 72.241469 25.810348 
L 72.434463 29.152345 
L 72.563125 24.907251 
L 72.820449 16.079968 
L 72.949111 17.979134 
L 73.206435 21.886037 
L 73.463759 23.790717 
L 73.656752 25.00404 
L 73.721083 24.927192 
L 74.364393 22.491348 
L 74.557386 22.142645 
L 74.81471 20.94716 
L 75.522351 16.803621 
L 75.651013 17.162781 
L 75.908337 19.268371 
L 76.422985 24.031567 
L 76.615978 24.324398 
L 76.808971 23.924428 
L 77.38795 22.450283 
L 77.838267 21.57779 
L 78.224253 20.158151 
L 78.996225 17.185893 
L 79.253549 16.812724 
L 79.446542 16.85636 
L 79.639535 17.1952 
L 79.96119 18.367729 
L 81.312142 24.514797 
L 81.569466 24.803796 
L 82.148445 24.757002 
L 82.277107 24.617487 
L 82.4701 23.959935 
L 82.856086 21.11153 
L 83.177741 19.575217 
L 83.370734 19.459443 
L 83.563727 19.798253 
L 84.014044 21.503532 
L 84.721685 24.719225 
L 84.979009 25.551609 
L 85.429326 26.022395 
L 85.750981 27.563197 
L 86.008305 28.326551 
L 86.522953 28.86109 
L 87.037601 30.809551 
L 87.101932 30.763371 
L 87.423587 30.450523 
L 87.873904 30.48811 
L 88.066897 30.757693 
L 88.324221 31.804072 
L 89.610841 38.406503 
L 89.868165 38.90504 
L 90.447145 39.423786 
L 90.704469 39.580962 
L 90.897462 39.390462 
L 91.347779 38.746622 
L 91.926758 38.502312 
L 92.184082 38.993469 
L 92.441406 39.401653 
L 92.570068 39.349904 
L 92.763061 38.860008 
L 93.149047 36.917133 
L 93.856688 33.206551 
L 94.178343 32.803525 
L 94.435667 32.484069 
L 94.692991 31.644396 
L 94.950315 30.894208 
L 95.078977 31.046379 
L 95.529294 32.60409 
L 95.657956 32.234227 
L 96.365597 28.872688 
L 96.55859 28.866795 
L 96.880245 29.250816 
L 97.137569 30.116915 
L 98.295527 36.033809 
L 98.617182 37.563167 
L 98.745844 37.589167 
L 99.003168 36.928629 
L 99.196162 36.680221 
L 99.389155 36.967494 
L 99.582148 37.188324 
L 99.71081 37.020579 
L 100.225458 35.555212 
L 100.289789 35.662647 
L 100.482782 36.85745 
L 101.126092 42.381413 
L 101.190423 42.319189 
L 101.319085 41.568782 
L 101.576409 37.818871 
L 102.091057 30.215651 
L 102.348381 28.845482 
L 102.670036 28.309612 
L 102.92736 28.198618 
L 103.120353 28.470891 
L 103.57067 29.940874 
L 103.956656 30.758545 
L 104.21398 31.442014 
L 104.792959 33.595002 
L 105.050283 34.059762 
L 105.371938 35.561248 
L 105.822255 37.266852 
L 106.529896 39.29748 
L 106.915882 39.717913 
L 107.366199 40.746784 
L 107.880847 41.845827 
L 108.138172 41.972029 
L 108.331165 41.800395 
L 108.65282 41.065445 
L 109.29613 39.386042 
L 109.489123 39.373737 
L 109.682116 39.744436 
L 110.325426 41.557613 
L 110.454088 41.347907 
L 111.033067 39.627457 
L 111.097398 39.690319 
L 111.290391 40.311505 
L 111.740708 41.978661 
L 111.86937 41.789317 
L 112.126694 40.527942 
L 112.51268 38.710601 
L 112.641342 38.585298 
L 112.770004 38.736161 
L 113.220321 39.491648 
L 113.413314 39.291898 
L 113.670638 38.496187 
L 113.927962 37.783402 
L 114.056624 37.825586 
L 114.44261 38.528086 
L 114.571272 38.125511 
L 114.764265 36.147524 
L 115.600568 24.166034 
L 115.857892 24.229799 
L 116.050885 23.229788 
L 116.308209 21.765407 
L 116.37254 21.8008 
L 116.501202 22.550748 
L 116.758526 26.468932 
L 117.080182 30.779492 
L 117.273175 31.495091 
L 117.401837 31.013712 
L 117.723492 29.172891 
L 117.980816 29.08842 
L 118.109478 28.405468 
L 118.495464 24.830289 
L 118.559795 24.867648 
L 118.752788 26.652261 
L 118.945781 27.858782 
L 119.074443 27.208757 
L 119.52476 24.230281 
L 119.653422 24.231359 
L 119.975077 25.036531 
L 120.039408 24.949728 
L 120.489725 24.004162 
L 120.682718 23.994559 
L 120.81138 24.223194 
L 121.004373 25.224905 
L 121.519021 30.053306 
L 121.583352 29.938163 
L 121.776345 27.037652 
L 122.033669 23.73247 
L 122.162331 23.536493 
L 122.290993 23.494215 
L 122.483986 22.776067 
L 122.676979 22.22371 
L 122.998634 22.084222 
L 123.191627 21.993502 
L 123.38462 22.462853 
L 123.513282 22.679529 
L 123.641944 21.947849 
L 123.899268 18.721936 
L 123.963599 18.775478 
L 124.092261 20.710666 
L 124.349585 24.534205 
L 124.67124 21.107925 
L 124.735571 21.558665 
L 124.992895 23.509733 
L 125.121557 22.436408 
L 125.443212 19.566116 
L 125.507543 19.602905 
L 125.700536 20.577316 
L 126.086523 24.210122 
L 126.408178 26.651546 
L 126.53684 26.23811 
L 126.794164 25.201009 
L 127.051488 26.223436 
L 127.115819 26.191741 
L 127.308812 25.530021 
L 127.373143 25.594943 
L 127.566136 27.006293 
L 127.759129 27.74168 
L 128.080784 27.062826 
L 128.209446 25.876548 
L 128.595432 21.563044 
L 128.724094 22.217242 
L 128.981418 23.917075 
L 129.045749 23.902845 
L 129.174411 23.252066 
L 129.496066 21.007323 
L 129.560397 21.073505 
L 129.882052 22.791511 
L 129.946383 22.724551 
L 130.203707 22.031926 
L 130.332369 22.428836 
L 130.589693 23.191778 
L 130.782686 22.454171 
L 130.911348 22.116336 
L 130.975679 22.18232 
L 131.168672 23.180502 
L 131.361665 23.82899 
L 131.490327 23.161308 
L 131.747651 21.410082 
L 131.811982 21.383528 
L 131.940644 21.85473 
L 132.455292 24.450078 
L 132.841278 24.616668 
L 132.96994 24.712586 
L 133.098602 24.523225 
L 133.741912 22.849158 
L 133.999236 22.890414 
L 134.192229 22.433958 
L 134.385222 22.124662 
L 134.513884 22.772698 
L 134.83554 27.256776 
L 135.285857 33.770963 
L 135.350188 32.866965 
L 135.671843 27.068787 
L 135.800505 26.603426 
L 135.993498 24.349469 
L 136.315153 20.907269 
L 136.443815 22.127963 
L 136.76547 26.686016 
L 137.40878 22.252746 
L 137.537442 21.546611 
L 137.601773 21.743049 
L 137.987759 25.694099 
L 138.116421 25.473502 
L 138.566738 23.709503 
L 138.6954 23.953577 
L 139.145717 25.320242 
L 139.274379 25.164761 
L 139.467372 24.286537 
L 140.046351 21.109464 
L 140.175013 21.160164 
L 140.368006 21.838343 
L 140.882654 24.093499 
L 141.075647 24.218471 
L 141.590295 24.108485 
L 141.847619 24.525398 
L 142.297936 25.262638 
L 142.490929 25.243734 
L 142.683922 24.966681 
L 143.069908 23.839311 
L 143.841881 21.407657 
L 144.099205 21.100808 
L 144.292198 21.111266 
L 144.549522 21.413226 
L 145.578818 23.067482 
L 145.836142 22.729589 
L 146.415121 21.62131 
L 146.543783 21.82653 
L 147.380086 24.141188 
L 148.152058 25.591665 
L 148.473713 26.811473 
L 149.052692 29.492062 
L 149.310016 29.805853 
L 149.503009 29.671332 
L 150.017657 28.952835 
L 150.146319 29.115691 
L 150.339312 29.895055 
L 150.596636 32.093768 
L 151.304277 38.824984 
L 151.690263 39.999141 
L 152.011918 40.604227 
L 152.14058 40.440729 
L 152.590898 39.093069 
L 153.169877 37.359187 
L 153.620194 37.122651 
L 154.070511 35.992966 
L 154.134842 36.030716 
L 154.327835 36.632767 
L 155.099807 40.194207 
L 155.2928 39.908022 
L 155.678786 38.8911 
L 155.93611 38.269444 
L 156.064772 38.349586 
L 156.322096 39.110469 
L 156.965406 40.912503 
L 157.22273 41.118766 
L 157.415723 41.001461 
L 158.316357 39.70385 
L 158.445019 39.830872 
L 158.831005 40.681362 
L 158.895336 40.647997 
L 159.088329 40.133384 
L 159.667308 38.371582 
L 160.053294 37.740407 
L 160.567942 37.227097 
L 160.760935 37.425015 
L 161.275583 38.646547 
L 161.66157 39.398428 
L 161.790232 39.413528 
L 161.918894 39.245853 
L 162.176218 38.324801 
L 162.497873 37.391189 
L 162.690866 37.384578 
L 163.141183 37.990354 
L 163.334176 37.441141 
L 163.720162 36.291328 
L 163.848824 36.389899 
L 164.041817 37.110791 
L 164.427803 38.79675 
L 164.556465 38.783159 
L 164.749458 38.255128 
L 165.071113 37.339973 
L 165.264106 37.297333 
L 165.52143 37.405581 
L 165.650092 37.122671 
L 165.907416 35.580725 
L 166.422064 32.598036 
L 166.743719 31.839198 
L 166.936712 31.77668 
L 167.129705 32.201384 
L 167.580022 33.457177 
L 167.966008 34.17543 
L 168.287663 35.584736 
L 168.673649 37.033983 
L 169.123966 37.594388 
L 169.316959 37.634945 
L 169.509952 37.323097 
L 170.153262 35.51098 
L 170.346256 35.728013 
L 170.989566 36.582892 
L 172.018862 38.034982 
L 172.469179 39.390499 
L 173.434144 42.551335 
L 173.562806 42.563595 
L 173.755799 42.204651 
L 174.077454 40.713416 
L 174.720764 37.527142 
L 174.978088 37.091168 
L 175.299743 36.982513 
L 175.557067 37.131805 
L 175.75006 37.553433 
L 176.007384 38.781238 
L 176.650694 42.585587 
L 176.779356 42.356332 
L 176.972349 41.107088 
L 178.580624 27.309213 
L 178.644955 27.251096 
L 178.709286 27.330304 
L 178.96661 28.44771 
L 179.159603 28.815507 
L 179.288266 28.419998 
L 179.54559 26.4762 
L 179.931576 23.549777 
L 179.995907 23.459225 
L 180.060238 23.542562 
L 180.253231 24.771637 
L 180.574886 27.046914 
L 180.639217 27.00778 
L 181.025203 26.164262 
L 181.218196 26.421223 
L 181.411189 27.288459 
L 181.797175 31.035909 
L 182.054499 32.393057 
L 182.440485 32.728559 
L 182.633478 33.18272 
L 182.697809 33.120981 
L 182.826471 32.44135 
L 183.083795 29.271073 
L 183.341119 26.264873 
L 183.40545 26.150956 
L 183.534112 26.917154 
L 183.984429 31.449697 
L 184.177422 30.920017 
L 184.241753 31.030137 
L 184.499077 32.57845 
L 184.563408 32.3659 
L 184.820732 28.836755 
L 185.013725 27.227367 
L 185.078056 27.21309 
L 185.206718 27.948749 
L 185.657035 33.109802 
L 185.721366 32.700746 
L 186.236014 26.518619 
L 186.429007 26.760697 
L 186.493338 26.663847 
L 186.622 25.913517 
L 187.136648 21.573017 
L 187.26531 22.235753 
L 187.586965 25.136565 
L 187.651296 25.038123 
L 188.423269 20.94888 
L 188.4876 21.094495 
L 188.616262 22.68078 
L 188.873586 26.616851 
L 188.937917 26.523339 
L 189.195241 24.694934 
L 189.259572 24.858446 
L 189.516896 26.384387 
L 189.645558 25.307037 
L 190.031544 20.663652 
L 190.095875 20.747333 
L 190.353199 22.377569 
L 190.867847 25.8567 
L 191.318164 34.659017 
L 191.382495 34.239487 
L 191.639819 28.780921 
L 191.897143 25.008202 
L 192.154467 24.383494 
L 192.34746 23.586177 
L 192.476122 24.152424 
L 192.669115 25.05523 
L 192.797777 24.561952 
L 192.99077 23.825043 
L 193.119432 24.604935 
L 193.441087 27.637195 
L 193.569749 27.20815 
L 193.827073 26.292456 
L 193.955735 26.402667 
L 194.084397 25.63721 
L 194.534714 19.94987 
L 194.663376 20.445954 
L 194.9207 21.599366 
L 195.113693 21.390468 
L 195.306686 20.953106 
L 195.56401 19.421361 
L 195.757003 18.589963 
L 195.821334 18.612821 
L 196.014327 19.345565 
L 196.528975 22.082092 
L 196.786299 24.447423 
L 196.85063 24.295585 
L 197.300948 20.977778 
L 197.365279 21.06946 
L 197.815596 22.187469 
L 197.944258 21.834603 
L 198.265913 20.851177 
L 198.394575 21.238954 
L 198.651899 23.456353 
L 198.844892 24.563304 
L 198.973554 23.532963 
L 199.295209 19.586689 
L 199.35954 19.721869 
L 199.745526 22.860988 
L 199.809857 22.681758 
L 200.195843 20.877921 
L 200.260174 20.892242 
L 200.388836 21.304359 
L 200.839153 24.106618 
L 200.903484 24.050626 
L 201.096477 22.985527 
L 201.353801 21.205223 
L 201.418132 21.213834 
L 201.546794 22.140919 
L 201.997111 27.333209 
L 202.125773 27.01272 
L 202.640421 24.96523 
L 202.962076 23.843818 
L 203.541055 21.353725 
L 203.927041 20.724355 
L 204.120034 20.707235 
L 204.248696 20.935799 
L 204.441689 21.777028 
L 204.827675 24.999654 
L 205.14933 27.279905 
L 205.277992 27.538635 
L 205.342323 27.502678 
L 205.535316 26.837353 
L 206.500282 21.919071 
L 206.886268 21.254756 
L 207.400916 20.786379 
L 207.786902 20.674891 
L 208.044226 20.803732 
L 208.30155 21.171768 
L 208.623205 22.038907 
L 209.202184 24.471459 
L 209.909825 28.112123 
L 210.23148 29.393334 
L 210.360142 29.559585 
L 210.424473 29.521803 
L 210.553135 29.117568 
L 210.810459 27.052075 
L 211.5181 20.725424 
L 211.711093 20.427205 
L 212.225741 20.713498 
L 212.933382 20.554954 
L 213.126375 21.260289 
L 213.641023 23.560107 
L 213.962678 25.310964 
L 214.284333 26.590135 
L 214.541657 27.038317 
L 214.73465 27.956721 
L 215.056306 30.984441 
L 215.377961 33.82373 
L 215.442292 33.850783 
L 215.570954 33.194265 
L 216.407257 25.965627 
L 216.535919 26.276213 
L 216.793243 27.953562 
L 217.436553 32.65383 
L 217.693877 33.030497 
L 217.88687 32.967183 
L 218.079863 32.673123 
L 218.401518 31.605019 
L 218.723173 30.704635 
L 218.851835 30.682001 
L 218.980497 30.974955 
L 219.237821 32.486678 
L 219.752469 36.29852 
L 219.8168 36.356618 
L 219.881131 36.276318 
L 220.074124 35.415546 
L 220.781765 31.347296 
L 221.10342 30.751906 
L 221.296413 30.785656 
L 221.682399 31.239232 
L 221.875392 31.786727 
L 222.518702 34.163126 
L 222.711695 34.006413 
L 222.969019 33.432533 
L 223.162012 32.380125 
L 223.869654 27.382879 
L 224.191309 26.539819 
L 224.319971 26.588002 
L 224.512964 27.150923 
L 225.349267 30.95594 
L 225.413598 30.940448 
L 225.799584 30.620318 
L 226.056908 30.933664 
L 226.314232 31.048631 
L 226.571556 31.126978 
L 227.279197 32.043574 
L 227.47219 33.449187 
L 227.858176 39.301857 
L 228.179831 42.478078 
L 228.244162 42.598526 
L 228.308493 42.527292 
L 228.437155 41.849005 
L 229.273458 35.243789 
L 229.530782 34.819222 
L 229.916768 34.611506 
L 230.109761 33.919052 
L 230.495747 32.405377 
L 230.624409 32.385277 
L 230.881733 32.733142 
L 231.139057 33.47666 
L 231.460712 34.468943 
L 231.589374 34.422299 
L 231.782367 33.809924 
L 232.232684 32.360853 
L 232.490008 32.188745 
L 232.811664 31.992969 
L 233.133319 31.792059 
L 233.454974 31.973941 
L 233.647967 32.268496 
L 233.84096 33.178602 
L 234.548601 37.969711 
L 234.677263 37.905189 
L 234.998918 37.598035 
L 235.191911 37.74971 
L 235.642228 38.640962 
L 236.285538 39.758967 
L 236.349869 39.818317 
L 236.349869 39.818317 
" clip-path="url(#p64a709a388)" style="fill: none; stroke: #ff7f0e; stroke-width: 0.5; stroke-linecap: square"/>
   </g>
   <g id="line2d_18">
    <path d="M 43.356847 58.602638 
L 43.421178 58.748477 
L 43.54984 59.91152 
L 43.807164 65.656383 
L 44.128819 78.985667 
L 44.579136 108.015192 
L 45.544101 175.512298 
L 45.672764 177.725172 
L 45.737095 177.629824 
L 45.865757 174.8353 
L 46.05875 163.991008 
L 46.380405 131.006315 
L 47.023715 63.436105 
L 47.216708 58.608939 
L 47.34537 61.162212 
L 47.538363 73.160332 
L 47.924349 117.240436 
L 48.438997 172.491355 
L 48.63199 179.688384 
L 48.696321 179.824561 
L 48.824983 176.708409 
L 49.082307 159.029184 
L 49.982941 83.417276 
L 50.240265 75.869689 
L 50.368927 74.903279 
L 50.433258 75.068955 
L 50.626251 77.427234 
L 50.947906 81.984848 
L 51.012237 82.109894 
L 51.140899 81.193084 
L 51.333892 77.26303 
L 51.719878 62.863366 
L 52.170195 47.990637 
L 52.427519 44.865254 
L 52.49185 45.09952 
L 52.620512 47.17154 
L 53.006498 60.770316 
L 53.392484 70.594973 
L 53.521146 71.216817 
L 53.649808 69.750971 
L 53.907132 61.085883 
L 54.357449 45.376188 
L 54.486111 44.717768 
L 54.614774 45.734492 
L 54.936429 49.243618 
L 55.00076 49.293418 
L 55.129422 48.632415 
L 55.386746 46.830535 
L 55.451077 46.882867 
L 55.579739 47.887796 
L 56.416042 60.203282 
L 56.866359 67.607009 
L 56.995021 67.050037 
L 57.252345 63.977517 
L 57.574 60.45161 
L 57.638331 60.552479 
L 57.766993 62.022556 
L 58.024317 69.792318 
L 58.86062 103.938619 
L 58.924951 103.823366 
L 59.053613 101.863988 
L 59.632592 89.056573 
L 59.696923 88.88138 
L 59.761254 88.919152 
L 59.889916 89.609347 
L 60.082909 92.643653 
L 60.404564 98.542357 
L 60.468895 98.488064 
L 60.597557 96.309933 
L 60.854881 85.181651 
L 61.176536 74.205213 
L 61.240867 74.557465 
L 61.369529 78.551132 
L 61.691184 101.382964 
L 62.07717 124.823608 
L 62.270163 127.316788 
L 62.398825 126.23295 
L 62.849142 120.703242 
L 63.106466 120.33971 
L 63.235128 118.715798 
L 63.428121 112.412146 
L 63.878439 95.559938 
L 63.94277 95.274957 
L 64.071432 96.78581 
L 64.521749 105.439922 
L 64.58608 105.516805 
L 64.714742 104.796828 
L 65.486714 95.32673 
L 66.065693 83.738507 
L 66.258686 83.251134 
L 66.387348 81.786264 
L 66.644672 74.015008 
L 67.030658 62.827623 
L 67.094989 62.406377 
L 67.15932 62.497532 
L 67.287982 64.010468 
L 67.673968 70.130113 
L 67.738299 70.261357 
L 67.866961 69.74863 
L 68.381609 66.438712 
L 68.638933 66.204125 
L 68.767595 65.327888 
L 69.08925 61.998169 
L 69.153581 62.313255 
L 69.282243 64.878654 
L 69.603898 79.441866 
L 69.925553 89.313013 
L 69.989884 89.603611 
L 70.054215 89.355892 
L 70.182877 87.352462 
L 70.504532 76.32064 
L 70.826187 67.213658 
L 71.01918 65.966585 
L 71.147842 67.414427 
L 71.340835 73.958898 
L 71.919814 99.751212 
L 72.048476 96.009128 
L 72.756118 59.226268 
L 73.013442 53.660587 
L 73.399428 44.050365 
L 73.463759 43.693848 
L 73.52809 43.796314 
L 73.656752 45.255631 
L 74.042738 54.891123 
L 74.428724 62.020301 
L 74.621717 63.059736 
L 74.686048 62.968521 
L 74.81471 62.088922 
L 75.072034 57.853993 
L 75.908337 40.718526 
L 76.036999 40.184133 
L 76.10133 40.249321 
L 76.229992 41.025807 
L 76.487316 44.780619 
L 77.452281 62.336011 
L 77.709605 63.323982 
L 77.838267 63.149455 
L 78.03126 62.211869 
L 78.417246 58.658023 
L 80.025521 41.241738 
L 80.282845 40.507936 
L 80.411507 40.619305 
L 80.6045 41.37475 
L 80.990486 44.088889 
L 81.312142 47.609574 
L 81.762459 55.389045 
L 82.148445 66.720988 
L 82.727424 84.63777 
L 82.920417 86.097962 
L 83.049079 85.335236 
L 83.75672 77.758681 
L 83.885382 77.602218 
L 84.014044 77.90354 
L 84.207037 78.943834 
L 84.40003 81.164315 
L 84.979009 89.532968 
L 85.107671 89.756415 
L 85.300664 89.443409 
L 85.493657 89.231278 
L 85.622319 89.48511 
L 86.008305 91.538816 
L 86.458622 93.42661 
L 86.780277 94.064853 
L 87.037601 95.618847 
L 87.938235 103.034957 
L 88.25989 110.750771 
L 89.289186 138.269874 
L 89.610841 140.315949 
L 89.803834 140.608721 
L 89.932496 140.267871 
L 90.189821 138.611966 
L 90.575807 133.960577 
L 91.090455 124.842978 
L 91.476441 119.583306 
L 91.733765 118.467264 
L 92.119751 117.719854 
L 92.377075 116.058714 
L 93.084716 109.555733 
L 93.470702 103.595963 
L 93.856688 97.931792 
L 94.049681 97.170424 
L 94.178343 97.243102 
L 94.307005 97.329675 
L 94.435667 97.024451 
L 94.692991 95.015402 
L 94.950315 93.818307 
L 95.078977 94.163022 
L 95.27197 94.749026 
L 95.336301 94.706487 
L 95.464963 94.181798 
L 96.108273 90.085374 
L 96.172604 90.204316 
L 96.365597 91.48704 
L 96.55859 92.573578 
L 96.622921 92.49359 
L 96.751583 91.443316 
L 97.330562 83.073904 
L 97.394893 83.090226 
L 97.523555 83.99535 
L 97.780879 88.373553 
L 98.938837 116.404947 
L 99.968134 148.95122 
L 100.289789 150.589174 
L 100.482782 151.016323 
L 100.611444 150.489396 
L 100.804437 147.646952 
L 101.061761 139.667345 
L 102.734367 74.327881 
L 102.92736 72.486039 
L 102.991691 72.560065 
L 103.120353 73.622974 
L 103.442008 79.364098 
L 103.892325 90.698059 
L 104.342642 108.720635 
L 104.85729 125.881114 
L 105.371938 136.003368 
L 105.950917 141.617199 
L 106.272572 143.350371 
L 106.401234 143.310406 
L 106.594227 142.355939 
L 106.915882 138.943945 
L 107.366199 131.078159 
L 109.038806 97.867889 
L 109.167468 97.461694 
L 109.231799 97.522232 
L 109.360461 98.227911 
L 109.553454 100.879692 
L 109.875109 109.659682 
L 110.840074 141.651942 
L 110.904405 141.853373 
L 110.968736 141.636123 
L 111.097398 139.949458 
L 111.354722 132.10604 
L 112.255356 98.19179 
L 112.319687 97.900167 
L 112.384018 98.07448 
L 112.51268 99.797863 
L 112.770004 108.115532 
L 113.734969 147.851312 
L 113.7993 147.851204 
L 113.927962 146.453395 
L 114.185286 139.074861 
L 114.764265 112.307712 
L 115.600568 75.437457 
L 115.986554 67.174156 
L 116.115216 66.414797 
L 116.243878 67.834945 
L 116.436871 75.086466 
L 117.466168 129.118739 
L 117.659161 131.167445 
L 117.787823 129.737263 
L 118.045147 122.4 
L 118.559795 100.946602 
L 119.52476 52.416881 
L 119.653422 53.744698 
L 119.846415 59.623612 
L 120.232401 80.955339 
L 120.875711 116.700874 
L 121.068704 119.477952 
L 121.133035 119.452019 
L 121.261697 117.982404 
L 121.519021 110.030062 
L 121.840676 90.766904 
L 122.226662 67.654372 
L 122.355324 66.236244 
L 122.483986 67.891348 
L 123.127296 80.724191 
L 123.255958 81.678914 
L 123.320289 81.599294 
L 123.448951 80.180117 
L 123.706275 73.576605 
L 124.220923 52.875746 
L 124.606909 40.659062 
L 124.799902 39.281455 
L 124.928564 39.597623 
L 125.185888 40.232066 
L 125.378881 40.007704 
L 125.443212 40.092486 
L 125.571874 41.173947 
L 125.764867 46.274474 
L 126.086523 63.661062 
L 126.665502 94.713685 
L 126.794164 95.903883 
L 126.922826 93.774355 
L 127.115819 84.80019 
L 127.759129 48.545273 
L 127.82346 48.442059 
L 127.952122 51.198389 
L 128.788425 81.430554 
L 129.045749 88.184884 
L 129.75339 109.072427 
L 129.946383 110.804183 
L 130.075045 109.893124 
L 130.332369 103.848616 
L 130.782686 92.208111 
L 131.361665 84.484361 
L 131.747651 71.555021 
L 132.069306 64.735309 
L 132.133637 64.593897 
L 132.262299 65.511702 
L 133.098602 79.252442 
L 133.61325 93.446453 
L 133.677581 93.709411 
L 133.741912 93.452685 
L 133.870574 91.30714 
L 134.578215 71.63121 
L 134.642546 72.168776 
L 134.771209 75.980203 
L 135.028533 93.842158 
L 135.350188 115.491622 
L 135.414519 116.188539 
L 135.543181 112.996197 
L 136.508146 67.721963 
L 136.572477 67.617953 
L 136.701139 68.794273 
L 137.022794 76.598676 
L 137.280118 81.050774 
L 137.40878 81.523134 
L 137.537442 80.871446 
L 137.859097 77.886616 
L 137.923428 77.895123 
L 138.05209 79.050215 
L 138.309414 85.539659 
L 139.017055 106.714092 
L 139.210048 107.916554 
L 139.33871 106.9929 
L 139.531703 103.075679 
L 139.917689 88.948957 
L 140.432337 71.727593 
L 140.62533 69.725416 
L 140.689661 69.759182 
L 140.818323 70.842776 
L 141.075647 76.441878 
L 142.169274 106.299506 
L 142.426598 107.79164 
L 142.490929 107.801376 
L 142.619591 107.438965 
L 142.876915 105.409191 
L 143.262901 99.94252 
L 144.034874 84.716578 
L 144.742515 72.579924 
L 145.321494 65.575231 
L 145.70748 62.909247 
L 145.771811 62.911309 
L 145.900473 63.558637 
L 146.157797 67.0639 
L 146.801107 79.74174 
L 147.830403 106.745321 
L 148.345051 117.074121 
L 149.310016 135.865729 
L 149.56734 138.023112 
L 149.631671 138.144316 
L 149.696002 138.081452 
L 149.888995 137.049035 
L 150.21065 135.270801 
L 150.274981 135.286893 
L 150.403643 135.821993 
L 150.660967 138.393719 
L 151.046953 141.964651 
L 151.175615 142.110241 
L 151.368608 141.471755 
L 151.690263 140.49452 
L 151.818925 140.530317 
L 152.333573 141.250974 
L 152.71956 141.91024 
L 153.105546 142.016739 
L 153.298539 143.280954 
L 153.877518 148.426434 
L 154.199173 149.425136 
L 154.520828 149.923891 
L 154.64949 149.723067 
L 154.842483 148.442782 
L 155.099807 144.457334 
L 155.678786 134.924937 
L 155.93611 133.172875 
L 156.000441 133.287691 
L 156.129103 134.426327 
L 156.386427 139.961872 
L 156.901075 151.646611 
L 157.094068 152.952733 
L 157.158399 152.980741 
L 157.287061 152.537312 
L 157.544385 150.230782 
L 157.994702 146.086599 
L 158.123364 145.742828 
L 158.187695 145.770192 
L 158.316357 146.222927 
L 158.831005 149.863205 
L 158.895336 149.799463 
L 159.023998 149.037091 
L 159.345653 144.661732 
L 159.924632 135.996383 
L 160.374949 133.652053 
L 160.567942 133.336437 
L 160.696604 133.707675 
L 161.211252 135.880339 
L 161.404245 136.098287 
L 161.532908 135.939687 
L 161.790232 134.798182 
L 162.626535 130.33596 
L 162.755197 130.754613 
L 163.141183 132.927971 
L 163.269845 132.611463 
L 163.784493 129.646418 
L 163.848824 129.661751 
L 164.041817 130.322488 
L 164.363472 131.285425 
L 164.492134 131.073585 
L 164.685127 129.934968 
L 165.457099 124.024518 
L 165.650092 123.934751 
L 165.843085 124.305224 
L 166.100409 125.381982 
L 166.550726 128.572989 
L 167.966008 137.901186 
L 168.159001 138.265919 
L 168.287663 137.912409 
L 168.544987 135.818366 
L 169.188297 127.297178 
L 169.831607 119.795939 
L 170.410587 115.752837 
L 170.796573 114.517826 
L 171.311221 112.783482 
L 171.632876 111.99564 
L 171.825869 111.883155 
L 172.018862 112.068563 
L 172.276186 112.782818 
L 172.662172 114.766154 
L 173.17682 118.800657 
L 174.013123 125.566265 
L 174.206116 126.062586 
L 174.334778 125.9523 
L 174.527771 125.042946 
L 174.849426 121.657597 
L 175.621398 112.235509 
L 175.75006 111.888208 
L 175.814391 111.92122 
L 175.943053 112.397787 
L 176.200377 114.816694 
L 177.03668 124.412803 
L 177.101011 124.334489 
L 177.229673 123.531215 
L 177.486997 119.326776 
L 177.937314 106.430664 
L 178.387631 94.281342 
L 178.580624 92.363949 
L 178.644955 92.302268 
L 178.773617 92.999797 
L 179.095272 97.371646 
L 179.416928 104.29805 
L 179.674252 109.585329 
L 179.738583 109.679099 
L 179.867245 107.566243 
L 180.060238 98.846336 
L 180.767879 55.732892 
L 180.83221 55.924557 
L 180.960872 59.534418 
L 181.218196 77.412899 
L 181.861506 129.424013 
L 181.990168 131.365168 
L 182.11883 128.581611 
L 182.311823 116.317161 
L 183.019464 59.733207 
L 183.083795 59.554939 
L 183.212457 62.763639 
L 183.469781 80.644921 
L 183.984429 118.373206 
L 184.113091 120.173054 
L 184.241753 118.295729 
L 184.499077 106.637449 
L 185.013725 82.116139 
L 185.271049 77.051597 
L 185.464042 75.942848 
L 185.592704 75.890496 
L 185.785697 76.311416 
L 186.043021 76.762968 
L 186.171683 76.770909 
L 186.300345 77.294978 
L 186.429007 79.368338 
L 186.622 86.915215 
L 187.136648 109.250507 
L 187.200979 108.909883 
L 187.329641 105.562007 
L 187.844289 87.887744 
L 187.972951 89.683242 
L 188.294607 101.796992 
L 188.551931 109.27356 
L 188.616262 109.650519 
L 188.680593 109.261204 
L 188.809255 106.264118 
L 189.13091 89.855808 
L 189.516896 71.486837 
L 189.709889 69.056078 
L 189.838551 70.273212 
L 190.031544 75.449728 
L 191.253833 117.994895 
L 191.511157 121.861956 
L 191.639819 120.594296 
L 191.897143 112.933114 
L 192.283129 91.650981 
L 192.604784 77.559392 
L 192.733446 76.571622 
L 192.862108 78.63168 
L 193.183763 92.076589 
L 193.441087 98.937357 
L 193.505418 98.718834 
L 193.63408 95.694061 
L 193.891404 81.70514 
L 194.470383 49.769797 
L 194.727707 42.623211 
L 194.792038 42.498288 
L 194.9207 45.079095 
L 195.242355 61.28373 
L 196.078658 104.20225 
L 196.142989 104.850377 
L 196.20732 104.732425 
L 196.400313 101.324136 
L 196.721968 95.603757 
L 197.686934 86.285634 
L 198.394575 74.191786 
L 198.844892 54.642684 
L 199.102216 46.90332 
L 199.230878 46.099128 
L 199.35954 47.394356 
L 199.552533 52.695705 
L 200.517498 87.399852 
L 200.581829 87.375698 
L 200.710491 84.702519 
L 201.032146 67.993812 
L 201.418132 51.758908 
L 201.611125 49.090493 
L 201.675456 49.391528 
L 201.804118 52.317576 
L 202.061442 67.592018 
L 202.640421 108.733789 
L 202.833414 111.814166 
L 202.962076 109.993215 
L 203.155069 101.921657 
L 203.541055 72.625673 
L 204.055703 37.867066 
L 204.248696 34.412502 
L 204.313027 34.787768 
L 204.441689 37.804524 
L 204.699013 51.717463 
L 205.599647 111.275524 
L 205.79264 113.267044 
L 205.921302 111.943072 
L 206.178627 104.250152 
L 206.757606 75.417084 
L 207.400916 47.347244 
L 207.786902 37.644148 
L 208.044226 34.732942 
L 208.172888 34.415388 
L 208.30155 34.867491 
L 208.494543 36.965777 
L 208.816198 44.033189 
L 209.330846 62.168123 
L 210.87479 123.499402 
L 210.939121 123.883754 
L 211.003452 123.836562 
L 211.132114 122.462889 
L 211.325107 117.197106 
L 211.646762 100.510889 
L 212.290072 64.339338 
L 212.676058 55.053318 
L 213.512361 40.496547 
L 213.576692 40.899472 
L 213.769685 44.007893 
L 214.155671 54.684407 
L 214.863313 83.473754 
L 215.699616 115.704263 
L 215.892609 116.900702 
L 215.95694 116.915777 
L 216.149933 116.333102 
L 216.471588 115.386852 
L 216.728912 114.845717 
L 217.179229 113.611492 
L 217.372222 113.237341 
L 217.565215 112.222027 
L 217.822539 108.887965 
L 218.658842 94.240173 
L 218.723173 94.235165 
L 218.851835 94.896871 
L 219.044828 97.455079 
L 219.430814 106.561297 
L 219.8168 113.981381 
L 220.009793 115.066896 
L 220.395779 115.629066 
L 220.653103 117.800309 
L 221.10342 121.420282 
L 221.489406 124.236997 
L 221.939723 127.388944 
L 222.004054 127.309275 
L 222.132716 126.417676 
L 222.454371 121.165198 
L 222.840357 116.034117 
L 223.097681 115.134071 
L 223.290674 114.746917 
L 223.483667 113.752901 
L 223.805323 110.130434 
L 224.25564 105.731554 
L 224.319971 105.584079 
L 224.384302 105.648638 
L 224.512964 106.456764 
L 224.89895 111.904206 
L 225.284936 115.738014 
L 225.606591 118.398679 
L 226.056908 122.856208 
L 226.314232 123.228636 
L 226.507225 123.937369 
L 226.764549 124.991667 
L 226.82888 124.851098 
L 226.957542 123.723822 
L 227.600852 114.778041 
L 227.729514 115.260261 
L 227.986838 117.605135 
L 229.144796 133.586391 
L 229.595113 139.217193 
L 229.788106 139.620169 
L 229.916768 139.289588 
L 230.624409 135.802424 
L 230.881733 133.58672 
L 231.33205 127.326729 
L 231.653705 120.337539 
L 232.425677 101.160277 
L 232.61867 100.18088 
L 232.747333 100.736216 
L 233.004657 104.416913 
L 233.454974 110.632945 
L 233.84096 115.320595 
L 234.612932 126.815922 
L 235.384904 133.325365 
L 235.706559 134.624085 
L 235.835221 134.648017 
L 235.963883 134.359545 
L 236.156876 133.330739 
L 236.349869 131.615421 
L 236.349869 131.615421 
" clip-path="url(#p64a709a388)" style="fill: none; stroke: #2ca02c; stroke-width: 0.5; stroke-linecap: square"/>
   </g>
   <g id="patch_3">
    <path d="M 33.707196 202.559296 
L 33.707196 7.2 
" style="fill: none; stroke: #000000; stroke-width: 0.8; stroke-linejoin: miter; stroke-linecap: square"/>
   </g>
   <g id="patch_4">
    <path d="M 245.99952 202.559296 
L 245.99952 7.2 
" style="fill: none; stroke: #000000; stroke-width: 0.8; stroke-linejoin: miter; stroke-linecap: square"/>
   </g>
   <g id="patch_5">
    <path d="M 33.707196 202.559296 
L 245.99952 202.559296 
" style="fill: none; stroke: #000000; stroke-width: 0.8; stroke-linejoin: miter; stroke-linecap: square"/>
   </g>
   <g id="patch_6">
    <path d="M 33.707196 7.2 
L 245.99952 7.2 
" style="fill: none; stroke: #000000; stroke-width: 0.8; stroke-linejoin: miter; stroke-linecap: square"/>
   </g>
   <g id="legend_1">
    <g id="patch_7">
     <path d="M 116.8999 198.059296 
L 162.806816 198.059296 
Q 164.606816 198.059296 164.606816 196.259296 
L 164.606816 156.760168 
Q 164.606816 154.960168 162.806816 154.960168 
L 116.8999 154.960168 
Q 115.0999 154.960168 115.0999 156.760168 
L 115.0999 196.259296 
Q 115.0999 198.059296 116.8999 198.059296 
z
" style="fill: #ffffff; opacity: 0.8; stroke: #cccccc; stroke-width: 0.24; stroke-linejoin: miter"/>
    </g>
    <g id="line2d_19">
     <path d="M 118.6999 162.13495 
L 127.6999 162.13495 
L 136.6999 162.13495 
" style="fill: none; stroke: #1f77b4; stroke-width: 0.5; stroke-linecap: square"/>
    </g>
    <g id="text_17">
     <!-- $\langle \sigma_z\rangle$ -->
     <g transform="translate(143.8999 165.28495) scale(0.09 -0.09)">
      <defs>
       <path id="CMSY10-68" d="M 2099 4557 
C 2131 4627 2131 4640 2131 4672 
C 2131 4742 2074 4800 2003 4800 
C 1946 4800 1901 4768 1856 4653 
L 736 1715 
C 723 1677 704 1638 704 1600 
C 704 1581 704 1568 736 1491 
L 1856 -1446 
C 1882 -1517 1914 -1600 2003 -1600 
C 2074 -1600 2131 -1542 2131 -1472 
C 2131 -1453 2131 -1440 2099 -1370 
L 966 1600 
L 2099 4557 
z
" transform="scale(0.015625)"/>
       <path id="CMMI12-1b" d="M 3251 2408 
C 3334 2408 3546 2408 3546 2612 
C 3546 2752 3424 2752 3309 2752 
L 1894 2752 
C 934 2752 243 1686 243 932 
C 243 390 595 -64 1171 -64 
C 1926 -64 2752 747 2752 1705 
C 2752 1954 2694 2196 2541 2408 
L 3251 2408 
z
M 1178 64 
C 851 64 614 313 614 754 
C 614 1137 845 2408 1786 2408 
C 2061 2408 2368 2274 2368 1781 
C 2368 1558 2266 1021 2042 652 
C 1811 275 1466 64 1178 64 
z
" transform="scale(0.015625)"/>
       <path id="CMMI12-7a" d="M 813 486 
C 1088 803 1312 1004 1632 1296 
C 2016 1632 2182 1793 2272 1891 
C 2720 2338 2944 2713 2944 2764 
C 2944 2816 2893 2816 2880 2816 
C 2835 2816 2822 2793 2790 2750 
C 2630 2494 2477 2367 2310 2367 
C 2176 2367 2106 2421 1984 2565 
C 1850 2715 1741 2816 1555 2816 
C 1088 2816 806 2257 806 2128 
C 806 2108 813 2068 870 2068 
C 922 2068 928 2091 947 2133 
C 1056 2372 1363 2414 1485 2414 
C 1619 2414 1747 2376 1882 2327 
C 2125 2240 2227 2240 2291 2240 
C 2336 2240 2362 2240 2394 2246 
C 2182 1994 1837 1683 1549 1418 
L 902 816 
C 512 415 275 33 275 -12 
C 275 -51 307 -64 346 -64 
C 384 -64 390 -57 435 14 
C 538 163 742 384 979 384 
C 1114 384 1178 342 1306 193 
C 1427 61 1536 -64 1741 -64 
C 2368 -64 2726 732 2726 876 
C 2726 903 2720 942 2656 942 
C 2605 942 2598 917 2579 855 
C 2438 488 2061 338 1811 338 
C 1677 338 1549 376 1414 425 
C 1158 512 1088 512 1005 512 
C 941 512 870 512 813 486 
z
" transform="scale(0.015625)"/>
       <path id="CMSY10-69" d="M 1747 1491 
C 1779 1568 1779 1581 1779 1600 
C 1779 1619 1779 1632 1747 1709 
L 627 4653 
C 589 4762 550 4800 480 4800 
C 410 4800 352 4742 352 4672 
C 352 4653 352 4640 384 4570 
L 1517 1600 
L 384 -1357 
C 352 -1427 352 -1440 352 -1472 
C 352 -1542 410 -1600 480 -1600 
C 563 -1600 589 -1536 614 -1472 
L 1747 1491 
z
" transform="scale(0.015625)"/>
      </defs>
      <use xlink:href="#CMSY10-68" transform="scale(0.996264)"/>
      <use xlink:href="#CMMI12-1b" transform="translate(38.743734 0) scale(0.996264)"/>
      <use xlink:href="#CMMI12-7a" transform="translate(94.189195 -14.943915) scale(0.697382)"/>
      <use xlink:href="#CMSY10-69" transform="translate(129.51575 0) scale(0.996264)"/>
     </g>
    </g>
    <g id="line2d_20">
     <path d="M 118.6999 175.601326 
L 127.6999 175.601326 
L 136.6999 175.601326 
" style="fill: none; stroke: #ff7f0e; stroke-width: 0.5; stroke-linecap: square"/>
    </g>
    <g id="text_18">
     <!-- $\langle \sigma_x\rangle$ -->
     <g transform="translate(143.8999 178.751326) scale(0.09 -0.09)">
      <defs>
       <path id="CMMI12-78" d="M 3034 2606 
C 2829 2567 2752 2414 2752 2293 
C 2752 2139 2874 2088 2963 2088 
C 3155 2088 3290 2254 3290 2427 
C 3290 2695 2982 2816 2714 2816 
C 2323 2816 2106 2433 2048 2312 
C 1901 2816 1504 2816 1389 2816 
C 736 2816 390 1980 390 1839 
C 390 1814 416 1782 461 1782 
C 512 1782 525 1820 538 1846 
C 755 2555 1184 2689 1370 2689 
C 1658 2689 1715 2420 1715 2267 
C 1715 2127 1677 1980 1600 1673 
L 1382 798 
C 1286 415 1101 64 762 64 
C 730 64 570 64 435 147 
C 666 192 717 383 717 460 
C 717 588 621 664 499 664 
C 346 664 179 530 179 326 
C 179 57 480 -64 755 -64 
C 1062 -64 1280 179 1414 441 
C 1517 64 1837 -64 2074 -64 
C 2726 -64 3072 773 3072 913 
C 3072 945 3046 971 3008 971 
C 2950 971 2944 939 2925 888 
C 2752 326 2381 64 2093 64 
C 1869 64 1747 230 1747 492 
C 1747 632 1773 734 1875 1156 
L 2099 2024 
C 2195 2408 2413 2689 2707 2689 
C 2720 2689 2899 2689 3034 2606 
z
" transform="scale(0.015625)"/>
      </defs>
      <use xlink:href="#CMSY10-68" transform="scale(0.996264)"/>
      <use xlink:href="#CMMI12-1b" transform="translate(38.743734 0) scale(0.996264)"/>
      <use xlink:href="#CMMI12-78" transform="translate(94.189195 -14.943915) scale(0.697382)"/>
      <use xlink:href="#CMSY10-69" transform="translate(133.490986 0) scale(0.996264)"/>
     </g>
    </g>
    <g id="line2d_21">
     <path d="M 118.6999 189.067702 
L 127.6999 189.067702 
L 136.6999 189.067702 
" style="fill: none; stroke: #2ca02c; stroke-width: 0.5; stroke-linecap: square"/>
    </g>
    <g id="text_19">
     <!-- $\langle \sigma_y\rangle$ -->
     <g transform="translate(143.8999 192.217702) scale(0.09 -0.09)">
      <defs>
       <path id="CMMI12-79" d="M 1683 -700 
C 1510 -939 1261 -1152 947 -1152 
C 870 -1152 563 -1152 467 -889 
C 486 -895 518 -895 531 -895 
C 723 -895 851 -729 851 -582 
C 851 -435 730 -384 634 -384 
C 531 -384 307 -458 307 -759 
C 307 -1071 582 -1286 947 -1286 
C 1587 -1286 2234 -700 2413 6 
L 3040 2485 
C 3046 2517 3059 2556 3059 2594 
C 3059 2689 2982 2753 2886 2753 
C 2829 2753 2694 2727 2643 2535 
L 2170 658 
C 2138 543 2138 530 2086 460 
C 1958 281 1747 64 1440 64 
C 1082 64 1050 415 1050 588 
C 1050 952 1222 1443 1395 1903 
C 1466 2088 1504 2178 1504 2305 
C 1504 2574 1312 2816 998 2816 
C 410 2816 173 1890 173 1839 
C 173 1814 198 1782 243 1782 
C 301 1782 307 1807 333 1897 
C 486 2433 730 2689 979 2689 
C 1037 2689 1146 2689 1146 2478 
C 1146 2312 1075 2127 979 1884 
C 666 1047 666 837 666 683 
C 666 77 1101 -64 1421 -64 
C 1606 -64 1837 -6 2061 230 
L 2067 224 
C 1971 -147 1907 -392 1683 -700 
z
" transform="scale(0.015625)"/>
      </defs>
      <use xlink:href="#CMSY10-68" transform="scale(0.996264)"/>
      <use xlink:href="#CMMI12-1b" transform="translate(38.743734 0) scale(0.996264)"/>
      <use xlink:href="#CMMI12-79" transform="translate(94.189195 -14.943915) scale(0.697382)"/>
      <use xlink:href="#CMSY10-69" transform="translate(130.484301 0) scale(0.996264)"/>
     </g>
    </g>
   </g>
  </g>
 </g>
 <defs>
  <clipPath id="p64a709a388">
   <rect x="33.707196" y="7.2" width="212.292324" height="195.359296"/>
  </clipPath>
 </defs>
</svg>
