<?xml version="1.0" encoding="utf-8" standalone="no"?>
<!DOCTYPE svg PUBLIC "-//W3C//DTD SVG 1.1//EN"
  "http://www.w3.org/Graphics/SVG/1.1/DTD/svg11.dtd">
<svg xmlns:xlink="http://www.w3.org/1999/xlink" width="253.19952pt" height="238.79952pt" viewBox="0 0 253.19952 238.79952" xmlns="http://www.w3.org/2000/svg" version="1.1">
 <metadata>
  <rdf:RDF xmlns:dc="http://purl.org/dc/elements/1.1/" xmlns:cc="http://creativecommons.org/ns#" xmlns:rdf="http://www.w3.org/1999/02/22-rdf-syntax-ns#">
   <cc:Work>
    <dc:type rdf:resource="http://purl.org/dc/dcmitype/StillImage"/>
    <dc:date>1980-01-01T00:00:00+00:00</dc:date>
    <dc:format>image/svg+xml</dc:format>
    <dc:creator>
     <cc:Agent>
      <dc:title>Matplotlib v3.6.2, https://matplotlib.org/</dc:title>
     </cc:Agent>
    </dc:creator>
   </cc:Work>
  </rdf:RDF>
 </metadata>
 <defs>
  <style type="text/css">*{stroke-linejoin: round; stroke-linecap: butt}</style>
 </defs>
 <g id="figure_1">
  <g id="patch_1">
   <path d="M 0 238.79952 
L 253.19952 238.79952 
L 253.19952 0 
L 0 0 
z
" style="fill: #ffffff"/>
  </g>
  <g id="axes_1">
   <g id="patch_2">
    <path d="M 33.707196 202.559296 
L 245.99952 202.559296 
L 245.99952 7.2 
L 33.707196 7.2 
z
" style="fill: #ffffff"/>
   </g>
   <g id="matplotlib.axis_1">
    <g id="xtick_1">
     <g id="line2d_1">
      <defs>
       <path id="mbfba70a238" d="M 0 0 
L 0 3.5 
" style="stroke: #000000; stroke-width: 0.8"/>
      </defs>
      <g>
       <use xlink:href="#mbfba70a238" x="43.356847" y="202.559296" style="stroke: #000000; stroke-width: 0.8"/>
      </g>
     </g>
     <g id="text_1">
      <!-- $\mathdefault{0}$ -->
      <g transform="translate(41.239756 217.194098) scale(0.08 -0.08)">
       <defs>
        <path id="CMR17-30" d="M 2688 2025 
C 2688 2416 2682 3080 2413 3591 
C 2176 4039 1798 4198 1466 4198 
C 1158 4198 768 4058 525 3597 
C 269 3118 243 2524 243 2025 
C 243 1661 250 1106 448 619 
C 723 -39 1216 -128 1466 -128 
C 1760 -128 2208 -7 2470 600 
C 2662 1042 2688 1559 2688 2025 
z
M 1466 -26 
C 1056 -26 813 325 723 812 
C 653 1188 653 1738 653 2096 
C 653 2588 653 2997 736 3387 
C 858 3929 1216 4096 1466 4096 
C 1728 4096 2067 3923 2189 3400 
C 2272 3036 2278 2607 2278 2096 
C 2278 1680 2278 1169 2202 792 
C 2067 95 1690 -26 1466 -26 
z
" transform="scale(0.015625)"/>
       </defs>
       <use xlink:href="#CMR17-30" transform="scale(0.996264)"/>
      </g>
     </g>
    </g>
    <g id="xtick_2">
     <g id="line2d_2">
      <g>
       <use xlink:href="#mbfba70a238" x="70.161434" y="202.559296" style="stroke: #000000; stroke-width: 0.8"/>
      </g>
     </g>
     <g id="text_2">
      <!-- $\mathdefault{25}$ -->
      <g transform="translate(65.927251 217.194098) scale(0.08 -0.08)">
       <defs>
        <path id="CMR17-32" d="M 2669 989 
L 2554 989 
C 2490 536 2438 459 2413 420 
C 2381 369 1920 369 1830 369 
L 602 369 
C 832 619 1280 1072 1824 1597 
C 2214 1967 2669 2402 2669 3035 
C 2669 3790 2067 4224 1395 4224 
C 691 4224 262 3604 262 3030 
C 262 2780 448 2748 525 2748 
C 589 2748 781 2787 781 3010 
C 781 3207 614 3264 525 3264 
C 486 3264 448 3258 422 3245 
C 544 3790 915 4058 1306 4058 
C 1862 4058 2227 3617 2227 3035 
C 2227 2479 1901 2000 1536 1584 
L 262 146 
L 262 0 
L 2515 0 
L 2669 989 
z
" transform="scale(0.015625)"/>
        <path id="CMR17-35" d="M 730 3692 
C 794 3666 1056 3584 1325 3584 
C 1920 3584 2246 3911 2432 4100 
C 2432 4157 2432 4192 2394 4192 
C 2387 4192 2374 4192 2323 4163 
C 2099 4058 1837 3973 1517 3973 
C 1325 3973 1037 3999 723 4139 
C 653 4171 640 4171 634 4171 
C 602 4171 595 4164 595 4037 
L 595 2203 
C 595 2089 595 2057 659 2057 
C 691 2057 704 2070 736 2114 
C 941 2401 1222 2522 1542 2522 
C 1766 2522 2246 2382 2246 1289 
C 2246 1085 2246 715 2054 421 
C 1894 159 1645 25 1370 25 
C 947 25 518 320 403 814 
C 429 807 480 795 506 795 
C 589 795 749 840 749 1038 
C 749 1210 627 1280 506 1280 
C 358 1280 262 1190 262 1011 
C 262 454 704 -128 1382 -128 
C 2042 -128 2669 440 2669 1264 
C 2669 2030 2170 2624 1549 2624 
C 1222 2624 947 2503 730 2274 
L 730 3692 
z
" transform="scale(0.015625)"/>
       </defs>
       <use xlink:href="#CMR17-32" transform="scale(0.996264)"/>
       <use xlink:href="#CMR17-35" transform="translate(45.690477 0) scale(0.996264)"/>
      </g>
     </g>
    </g>
    <g id="xtick_3">
     <g id="line2d_3">
      <g>
       <use xlink:href="#mbfba70a238" x="96.96602" y="202.559296" style="stroke: #000000; stroke-width: 0.8"/>
      </g>
     </g>
     <g id="text_3">
      <!-- $\mathdefault{50}$ -->
      <g transform="translate(92.731837 217.194098) scale(0.08 -0.08)">
       <use xlink:href="#CMR17-35" transform="scale(0.996264)"/>
       <use xlink:href="#CMR17-30" transform="translate(45.690477 0) scale(0.996264)"/>
      </g>
     </g>
    </g>
    <g id="xtick_4">
     <g id="line2d_4">
      <g>
       <use xlink:href="#mbfba70a238" x="123.770606" y="202.559296" style="stroke: #000000; stroke-width: 0.8"/>
      </g>
     </g>
     <g id="text_4">
      <!-- $\mathdefault{75}$ -->
      <g transform="translate(119.536423 217.194098) scale(0.08 -0.08)">
       <defs>
        <path id="CMR17-37" d="M 2886 3941 
L 2886 4081 
L 1382 4081 
C 634 4081 621 4165 595 4288 
L 480 4288 
L 294 3094 
L 410 3094 
C 429 3215 474 3540 550 3661 
C 589 3712 1062 3712 1171 3712 
L 2579 3712 
L 1869 2661 
C 1395 1954 1069 999 1069 165 
C 1069 89 1069 -128 1299 -128 
C 1530 -128 1530 89 1530 171 
L 1530 465 
C 1530 1508 1709 2196 2003 2636 
L 2886 3941 
z
" transform="scale(0.015625)"/>
       </defs>
       <use xlink:href="#CMR17-37" transform="scale(0.996264)"/>
       <use xlink:href="#CMR17-35" transform="translate(45.690477 0) scale(0.996264)"/>
      </g>
     </g>
    </g>
    <g id="xtick_5">
     <g id="line2d_5">
      <g>
       <use xlink:href="#mbfba70a238" x="150.575193" y="202.559296" style="stroke: #000000; stroke-width: 0.8"/>
      </g>
     </g>
     <g id="text_5">
      <!-- $\mathdefault{100}$ -->
      <g transform="translate(144.223918 217.194098) scale(0.08 -0.08)">
       <defs>
        <path id="CMR17-31" d="M 1702 4058 
C 1702 4192 1696 4192 1606 4192 
C 1357 3916 979 3827 621 3827 
C 602 3827 570 3827 563 3808 
C 557 3795 557 3782 557 3648 
C 755 3648 1088 3686 1344 3839 
L 1344 461 
C 1344 236 1331 160 781 160 
L 589 160 
L 589 0 
C 896 0 1216 0 1523 0 
C 1830 0 2150 0 2458 0 
L 2458 160 
L 2266 160 
C 1715 160 1702 230 1702 458 
L 1702 4058 
z
" transform="scale(0.015625)"/>
       </defs>
       <use xlink:href="#CMR17-31" transform="scale(0.996264)"/>
       <use xlink:href="#CMR17-30" transform="translate(45.690477 0) scale(0.996264)"/>
       <use xlink:href="#CMR17-30" transform="translate(91.380954 0) scale(0.996264)"/>
      </g>
     </g>
    </g>
    <g id="xtick_6">
     <g id="line2d_6">
      <g>
       <use xlink:href="#mbfba70a238" x="177.379779" y="202.559296" style="stroke: #000000; stroke-width: 0.8"/>
      </g>
     </g>
     <g id="text_6">
      <!-- $\mathdefault{125}$ -->
      <g transform="translate(171.028505 217.194098) scale(0.08 -0.08)">
       <use xlink:href="#CMR17-31" transform="scale(0.996264)"/>
       <use xlink:href="#CMR17-32" transform="translate(45.690477 0) scale(0.996264)"/>
       <use xlink:href="#CMR17-35" transform="translate(91.380954 0) scale(0.996264)"/>
      </g>
     </g>
    </g>
    <g id="xtick_7">
     <g id="line2d_7">
      <g>
       <use xlink:href="#mbfba70a238" x="204.184365" y="202.559296" style="stroke: #000000; stroke-width: 0.8"/>
      </g>
     </g>
     <g id="text_7">
      <!-- $\mathdefault{150}$ -->
      <g transform="translate(197.833091 217.194098) scale(0.08 -0.08)">
       <use xlink:href="#CMR17-31" transform="scale(0.996264)"/>
       <use xlink:href="#CMR17-35" transform="translate(45.690477 0) scale(0.996264)"/>
       <use xlink:href="#CMR17-30" transform="translate(91.380954 0) scale(0.996264)"/>
      </g>
     </g>
    </g>
    <g id="xtick_8">
     <g id="line2d_8">
      <g>
       <use xlink:href="#mbfba70a238" x="230.988952" y="202.559296" style="stroke: #000000; stroke-width: 0.8"/>
      </g>
     </g>
     <g id="text_8">
      <!-- $\mathdefault{175}$ -->
      <g transform="translate(224.637677 217.194098) scale(0.08 -0.08)">
       <use xlink:href="#CMR17-31" transform="scale(0.996264)"/>
       <use xlink:href="#CMR17-37" transform="translate(45.690477 0) scale(0.996264)"/>
       <use xlink:href="#CMR17-35" transform="translate(91.380954 0) scale(0.996264)"/>
      </g>
     </g>
    </g>
    <g id="text_9">
     <!-- $\tau$ -->
     <g transform="translate(137.675756 229.662342) scale(0.1 -0.1)">
      <defs>
       <path id="CMMI12-1c" d="M 1837 2408 
L 2899 2408 
C 2982 2408 3194 2408 3194 2612 
C 3194 2752 3072 2752 2957 2752 
L 1197 2752 
C 1050 2752 832 2752 538 2440 
C 371 2255 166 1917 166 1879 
C 166 1841 198 1828 237 1828 
C 282 1828 288 1847 320 1885 
C 653 2408 986 2408 1146 2408 
L 1677 2408 
L 1011 223 
C 979 127 979 114 979 95 
C 979 25 1024 -64 1152 -64 
C 1350 -64 1382 108 1402 203 
L 1837 2408 
z
" transform="scale(0.015625)"/>
      </defs>
      <use xlink:href="#CMMI12-1c" transform="scale(0.996264)"/>
     </g>
    </g>
   </g>
   <g id="matplotlib.axis_2">
    <g id="ytick_1">
     <g id="line2d_9">
      <defs>
       <path id="m82625889fe" d="M 0 0 
L -3.5 0 
" style="stroke: #000000; stroke-width: 0.8"/>
      </defs>
      <g>
       <use xlink:href="#m82625889fe" x="33.707196" y="193.679328" style="stroke: #000000; stroke-width: 0.8"/>
      </g>
     </g>
     <g id="text_10">
      <!-- $\mathdefault{−1.0}$ -->
      <g transform="translate(7.2 196.446729) scale(0.08 -0.08)">
       <defs>
        <path id="CMSY10-0" d="M 4218 1472 
C 4326 1472 4442 1472 4442 1600 
C 4442 1728 4326 1728 4218 1728 
L 755 1728 
C 646 1728 531 1728 531 1600 
C 531 1472 646 1472 755 1472 
L 4218 1472 
z
" transform="scale(0.015625)"/>
        <path id="CMMI12-3a" d="M 1178 307 
C 1178 492 1024 619 870 619 
C 685 619 557 466 557 313 
C 557 128 710 0 864 0 
C 1050 0 1178 153 1178 307 
z
" transform="scale(0.015625)"/>
       </defs>
       <use xlink:href="#CMSY10-0" transform="scale(0.996264)"/>
       <use xlink:href="#CMR17-31" transform="translate(77.487468 0) scale(0.996264)"/>
       <use xlink:href="#CMMI12-3a" transform="translate(123.177945 0) scale(0.996264)"/>
       <use xlink:href="#CMR17-30" transform="translate(150.275122 0) scale(0.996264)"/>
      </g>
     </g>
    </g>
    <g id="ytick_2">
     <g id="line2d_10">
      <g>
       <use xlink:href="#m82625889fe" x="33.707196" y="159.399014" style="stroke: #000000; stroke-width: 0.8"/>
      </g>
     </g>
     <g id="text_11">
      <!-- $\mathdefault{−0.8}$ -->
      <g transform="translate(7.2 162.166415) scale(0.08 -0.08)">
       <defs>
        <path id="CMR17-38" d="M 1741 2264 
C 2144 2467 2554 2773 2554 3263 
C 2554 3841 1990 4179 1472 4179 
C 890 4179 378 3759 378 3180 
C 378 3021 416 2747 666 2505 
C 730 2442 998 2251 1171 2130 
C 883 1983 211 1634 211 934 
C 211 279 838 -128 1459 -128 
C 2144 -128 2720 362 2720 1010 
C 2720 1590 2330 1857 2074 2029 
L 1741 2264 
z
M 902 2822 
C 851 2854 595 3051 595 3351 
C 595 3739 998 4032 1459 4032 
C 1965 4032 2336 3676 2336 3262 
C 2336 2669 1670 2331 1638 2331 
C 1632 2331 1626 2331 1574 2370 
L 902 2822 
z
M 2080 1519 
C 2176 1449 2483 1240 2483 851 
C 2483 381 2010 25 1472 25 
C 890 25 448 438 448 940 
C 448 1443 838 1862 1280 2060 
L 2080 1519 
z
" transform="scale(0.015625)"/>
       </defs>
       <use xlink:href="#CMSY10-0" transform="scale(0.996264)"/>
       <use xlink:href="#CMR17-30" transform="translate(77.487468 0) scale(0.996264)"/>
       <use xlink:href="#CMMI12-3a" transform="translate(123.177945 0) scale(0.996264)"/>
       <use xlink:href="#CMR17-38" transform="translate(150.275122 0) scale(0.996264)"/>
      </g>
     </g>
    </g>
    <g id="ytick_3">
     <g id="line2d_11">
      <g>
       <use xlink:href="#m82625889fe" x="33.707196" y="125.1187" style="stroke: #000000; stroke-width: 0.8"/>
      </g>
     </g>
     <g id="text_12">
      <!-- $\mathdefault{−0.6}$ -->
      <g transform="translate(7.2 127.886101) scale(0.08 -0.08)">
       <defs>
        <path id="CMR17-36" d="M 678 2176 
C 678 3690 1395 4032 1811 4032 
C 1946 4032 2272 4009 2400 3776 
C 2298 3776 2106 3776 2106 3553 
C 2106 3381 2246 3323 2336 3323 
C 2394 3323 2566 3348 2566 3560 
C 2566 3954 2246 4179 1805 4179 
C 1043 4179 243 3390 243 1984 
C 243 253 966 -128 1478 -128 
C 2099 -128 2688 427 2688 1283 
C 2688 2081 2170 2662 1517 2662 
C 1126 2662 838 2407 678 1960 
L 678 2176 
z
M 1478 25 
C 691 25 691 1200 691 1436 
C 691 1896 909 2560 1504 2560 
C 1613 2560 1926 2560 2138 2120 
C 2253 1870 2253 1609 2253 1289 
C 2253 944 2253 690 2118 434 
C 1978 171 1773 25 1478 25 
z
" transform="scale(0.015625)"/>
       </defs>
       <use xlink:href="#CMSY10-0" transform="scale(0.996264)"/>
       <use xlink:href="#CMR17-30" transform="translate(77.487468 0) scale(0.996264)"/>
       <use xlink:href="#CMMI12-3a" transform="translate(123.177945 0) scale(0.996264)"/>
       <use xlink:href="#CMR17-36" transform="translate(150.275122 0) scale(0.996264)"/>
      </g>
     </g>
    </g>
    <g id="ytick_4">
     <g id="line2d_12">
      <g>
       <use xlink:href="#m82625889fe" x="33.707196" y="90.838386" style="stroke: #000000; stroke-width: 0.8"/>
      </g>
     </g>
     <g id="text_13">
      <!-- $\mathdefault{−0.4}$ -->
      <g transform="translate(7.2 93.605787) scale(0.08 -0.08)">
       <defs>
        <path id="CMR17-34" d="M 2150 4122 
C 2150 4256 2144 4256 2029 4256 
L 128 1254 
L 128 1088 
L 1779 1088 
L 1779 457 
C 1779 224 1766 160 1318 160 
L 1197 160 
L 1197 0 
C 1402 0 1747 0 1965 0 
C 2182 0 2528 0 2733 0 
L 2733 160 
L 2611 160 
C 2163 160 2150 224 2150 457 
L 2150 1088 
L 2803 1088 
L 2803 1254 
L 2150 1254 
L 2150 4122 
z
M 1798 3703 
L 1798 1254 
L 256 1254 
L 1798 3703 
z
" transform="scale(0.015625)"/>
       </defs>
       <use xlink:href="#CMSY10-0" transform="scale(0.996264)"/>
       <use xlink:href="#CMR17-30" transform="translate(77.487468 0) scale(0.996264)"/>
       <use xlink:href="#CMMI12-3a" transform="translate(123.177945 0) scale(0.996264)"/>
       <use xlink:href="#CMR17-34" transform="translate(150.275122 0) scale(0.996264)"/>
      </g>
     </g>
    </g>
    <g id="ytick_5">
     <g id="line2d_13">
      <g>
       <use xlink:href="#m82625889fe" x="33.707196" y="56.558073" style="stroke: #000000; stroke-width: 0.8"/>
      </g>
     </g>
     <g id="text_14">
      <!-- $\mathdefault{−0.2}$ -->
      <g transform="translate(7.2 59.325474) scale(0.08 -0.08)">
       <use xlink:href="#CMSY10-0" transform="scale(0.996264)"/>
       <use xlink:href="#CMR17-30" transform="translate(77.487468 0) scale(0.996264)"/>
       <use xlink:href="#CMMI12-3a" transform="translate(123.177945 0) scale(0.996264)"/>
       <use xlink:href="#CMR17-32" transform="translate(150.275122 0) scale(0.996264)"/>
      </g>
     </g>
    </g>
    <g id="ytick_6">
     <g id="line2d_14">
      <g>
       <use xlink:href="#m82625889fe" x="33.707196" y="22.277759" style="stroke: #000000; stroke-width: 0.8"/>
      </g>
     </g>
     <g id="text_15">
      <!-- $\mathdefault{0.0}$ -->
      <g transform="translate(13.786507 25.04516) scale(0.08 -0.08)">
       <use xlink:href="#CMR17-30" transform="scale(0.996264)"/>
       <use xlink:href="#CMMI12-3a" transform="translate(45.690477 0) scale(0.996264)"/>
       <use xlink:href="#CMR17-30" transform="translate(72.787654 0) scale(0.996264)"/>
      </g>
     </g>
    </g>
   </g>
   <g id="line2d_15">
    <path d="M 43.356847 193.679328 
L 43.485509 193.568385 
L 43.678502 192.989023 
L 43.935826 191.459218 
L 44.321812 187.571129 
L 44.83646 179.647883 
L 45.672764 166.333055 
L 45.865757 165.389575 
L 45.930088 165.404682 
L 46.05875 165.975741 
L 46.251743 168.20529 
L 46.573398 175.053912 
L 47.34537 192.590359 
L 47.538363 193.676733 
L 47.602694 193.599364 
L 47.731356 192.786724 
L 47.98868 188.755915 
L 48.438997 176.611249 
L 49.210969 156.330112 
L 50.497589 130.918823 
L 51.462554 104.449091 
L 51.784209 100.831046 
L 52.170195 99.067014 
L 52.620512 96.735896 
L 53.714139 89.389414 
L 54.743436 81.184213 
L 55.129422 79.967615 
L 55.708401 78.805972 
L 56.416042 76.105955 
L 56.995021 73.76377 
L 57.574 71.177383 
L 57.831324 70.89088 
L 58.088648 70.643343 
L 58.345972 69.999503 
L 59.053613 67.670917 
L 59.182275 67.79344 
L 59.696923 68.61527 
L 59.889916 68.335496 
L 60.211571 67.163744 
L 60.597557 65.797618 
L 60.854881 65.568431 
L 61.047874 65.623956 
L 61.562522 66.07518 
L 62.205832 65.688696 
L 62.656149 65.775616 
L 62.849142 65.604338 
L 63.235128 64.769912 
L 63.492453 64.390543 
L 63.621115 64.416025 
L 63.814108 64.787273 
L 64.328756 66.073668 
L 64.457418 66.024126 
L 64.714742 65.563126 
L 65.100728 64.917436 
L 65.358052 64.887653 
L 65.679707 64.915522 
L 65.8727 64.665188 
L 66.709003 62.940346 
L 66.773334 62.982757 
L 67.030658 63.4843 
L 67.416644 64.221641 
L 67.609637 64.259247 
L 67.866961 64.006386 
L 68.574602 63.065356 
L 68.896257 62.90761 
L 69.539567 62.791856 
L 70.311539 62.06293 
L 70.697525 61.645696 
L 70.890518 61.721133 
L 71.083511 62.09026 
L 71.66249 63.565762 
L 71.855483 63.518178 
L 72.498794 62.952704 
L 72.691787 63.287233 
L 73.013442 64.42949 
L 74.300062 69.7953 
L 74.686048 70.360517 
L 75.072034 70.528458 
L 75.779675 70.803165 
L 76.487316 71.070066 
L 77.001964 71.020561 
L 78.996225 70.540801 
L 79.96119 70.655201 
L 80.861824 70.748581 
L 81.82679 70.713111 
L 82.084114 71.056663 
L 82.405769 71.987396 
L 82.727424 73.625291 
L 83.177741 77.459564 
L 83.821051 85.284721 
L 85.04334 100.16215 
L 85.879643 107.573298 
L 87.487918 119.09231 
L 88.517214 124.881818 
L 89.289186 127.868848 
L 89.932496 129.513308 
L 90.447145 130.220184 
L 91.347779 131.033878 
L 91.926758 131.365276 
L 92.570068 132.169935 
L 93.470702 133.659433 
L 94.114012 134.79038 
L 94.62866 135.348045 
L 95.014646 135.433668 
L 95.593625 135.519627 
L 97.652217 136.314305 
L 98.231196 136.167874 
L 99.453486 135.946776 
L 100.096796 136.042605 
L 100.868768 136.048494 
L 101.319085 135.940621 
L 103.57067 134.922013 
L 104.020987 135.068844 
L 104.535635 135.013543 
L 104.792959 135.385963 
L 105.114614 136.426532 
L 105.5006 138.622588 
L 106.594227 145.307535 
L 106.980213 146.331727 
L 107.366199 146.759494 
L 108.00951 147.056634 
L 108.588489 147.093278 
L 109.103137 146.890723 
L 109.682116 146.369242 
L 110.454088 145.666296 
L 110.775743 145.672419 
L 111.097398 145.931941 
L 112.191025 147.09691 
L 112.448349 146.976787 
L 112.641342 146.651566 
L 112.898666 145.637116 
L 113.15599 143.472527 
L 113.477645 138.322639 
L 113.927962 126.391093 
L 114.571272 109.759864 
L 115.150251 101.195386 
L 116.243878 89.128294 
L 116.565533 87.600693 
L 117.144513 86.105532 
L 119.010112 76.36389 
L 119.782084 74.289726 
L 120.103739 73.962607 
L 121.261697 71.399046 
L 121.776345 70.217889 
L 121.969338 70.262953 
L 122.483986 70.725573 
L 122.676979 70.53614 
L 122.998634 69.713071 
L 123.577613 68.118876 
L 124.478247 66.441196 
L 124.992895 64.954882 
L 125.185888 64.92386 
L 125.443212 65.33937 
L 125.829199 65.89856 
L 125.957861 65.853201 
L 126.150854 65.472218 
L 126.858495 63.627041 
L 126.987157 63.728771 
L 127.244481 64.351767 
L 127.759129 65.664456 
L 128.016453 65.900087 
L 128.209446 65.833459 
L 128.46677 65.371642 
L 129.045749 64.118016 
L 129.303073 64.063469 
L 129.624728 64.23697 
L 129.946383 64.780579 
L 130.203707 65.09743 
L 130.3967 65.015558 
L 130.911348 64.630387 
L 131.297334 64.640129 
L 131.554658 64.867662 
L 131.876313 65.13082 
L 132.069306 65.024327 
L 132.96994 64.049095 
L 133.355926 63.888416 
L 133.870574 64.034637 
L 134.899871 63.137517 
L 135.285857 62.886282 
L 135.47885 62.986744 
L 136.636808 64.324386 
L 137.280118 65.643986 
L 137.794766 67.29981 
L 138.6954 70.48329 
L 139.081386 71.092751 
L 139.403041 71.275726 
L 139.853358 71.245572 
L 141.461633 70.872598 
L 144.163536 71.269584 
L 145.06417 71.07165 
L 145.450156 70.729564 
L 146.093466 70.058948 
L 146.286459 70.130654 
L 146.479452 70.441714 
L 146.736776 71.314431 
L 147.058431 73.294466 
L 147.573079 78.317982 
L 148.538044 90.681863 
L 149.631671 103.454973 
L 150.532305 111.100925 
L 151.690263 118.537455 
L 153.041215 124.787575 
L 153.684525 126.678451 
L 154.842483 129.660581 
L 155.614455 131.474216 
L 156.708082 133.273586 
L 157.415723 133.980067 
L 158.252026 135.223807 
L 158.831005 135.977239 
L 159.15266 136.117001 
L 160.503611 135.934792 
L 161.275583 135.550819 
L 161.597239 135.620108 
L 161.918894 135.951233 
L 162.562204 136.73552 
L 163.269845 137.22254 
L 163.848824 137.852872 
L 164.299141 137.92848 
L 164.685127 137.804415 
L 165.071113 137.442716 
L 165.778754 136.644484 
L 166.100409 136.619339 
L 166.615057 136.899558 
L 167.001043 137.009036 
L 167.966008 136.967037 
L 168.480656 137.143269 
L 168.930973 137.261776 
L 169.252628 137.609318 
L 169.509952 138.24026 
L 169.895938 139.991577 
L 170.989566 145.706848 
L 171.375552 146.542344 
L 171.954531 147.164565 
L 173.112489 148.124824 
L 173.562806 148.248302 
L 173.884461 148.144841 
L 174.270447 147.755122 
L 175.428405 146.289844 
L 175.685729 146.412182 
L 176.071715 146.966806 
L 176.779356 148.074578 
L 176.972349 148.022458 
L 177.165342 147.545746 
L 177.358335 146.403597 
L 177.615659 143.417794 
L 177.937314 136.846446 
L 179.223935 106.138501 
L 180.510555 92.214732 
L 181.282527 85.974332 
L 181.797175 83.856702 
L 182.376154 81.244098 
L 183.341119 76.856158 
L 183.791436 75.966752 
L 184.177422 75.418084 
L 184.499077 74.284168 
L 185.464042 70.534479 
L 185.657035 70.455636 
L 185.850028 70.780035 
L 186.171683 71.358183 
L 186.300345 71.328753 
L 186.493338 70.948624 
L 187.393972 68.47974 
L 188.294607 68.083533 
L 188.551931 67.627224 
L 189.13091 66.397846 
L 189.645558 66.058546 
L 190.031544 65.692307 
L 190.353199 65.418853 
L 190.674854 65.479113 
L 190.867847 65.460962 
L 191.575488 65.006757 
L 192.476122 65.639524 
L 192.797777 65.36218 
L 193.248094 64.992159 
L 193.762742 64.947979 
L 194.27739 64.305233 
L 194.856369 64.436176 
L 195.113693 63.9444 
L 195.56401 63.045592 
L 195.821334 62.980946 
L 196.593306 63.238588 
L 197.043624 63.521737 
L 197.236617 63.315421 
L 197.751265 62.598492 
L 198.330244 62.431417 
L 198.844892 61.666666 
L 199.037885 62.018602 
L 199.745526 64.159382 
L 199.874188 64.079618 
L 200.324505 63.580897 
L 200.710491 63.68453 
L 201.032146 63.06513 
L 201.28947 62.811065 
L 201.418132 62.916122 
L 201.611125 63.390003 
L 201.93278 64.963378 
L 202.640421 68.807781 
L 202.962076 69.477389 
L 203.2194 69.599862 
L 203.669717 69.432498 
L 203.991372 69.434414 
L 204.313027 69.69457 
L 205.470985 70.929195 
L 205.79264 70.845193 
L 206.307289 70.412303 
L 207.207923 69.652421 
L 207.786902 69.429772 
L 208.365881 69.444478 
L 208.94486 69.691699 
L 210.102818 70.286719 
L 210.617466 70.241363 
L 210.810459 70.474449 
L 211.067783 71.268212 
L 211.389438 73.061129 
L 211.839755 77.021971 
L 212.547396 85.708766 
L 213.512361 97.561363 
L 214.73465 108.856967 
L 216.085602 119.306475 
L 216.728912 122.983132 
L 217.822539 127.128016 
L 218.337187 128.283671 
L 218.916166 129.374961 
L 219.881131 131.221588 
L 220.846096 132.661287 
L 221.360744 133.202675 
L 222.454371 134.063001 
L 223.03335 134.638906 
L 224.25564 135.181154 
L 225.091943 135.241212 
L 226.378563 135.304124 
L 226.893211 135.621686 
L 227.343528 135.817964 
L 227.729514 135.668225 
L 228.308493 135.49896 
L 228.630148 135.617033 
L 229.466451 136.110678 
L 229.852437 136.276272 
L 230.302754 136.472124 
L 230.946064 136.460978 
L 231.525043 136.744402 
L 232.104022 136.549773 
L 232.811664 136.13001 
L 233.19765 135.947828 
L 233.390643 136.057096 
L 233.647967 136.524687 
L 233.969622 137.698479 
L 234.48427 140.676682 
L 235.12758 144.094371 
L 235.577897 145.323439 
L 236.028214 145.858578 
L 236.349869 146.128938 
L 236.349869 146.128938 
" clip-path="url(#p673fbe86f6)" style="fill: none; stroke: #1f77b4; stroke-width: 0.5; stroke-linecap: square"/>
   </g>
   <g id="line2d_16">
    <path d="M 43.356847 22.277759 
L 48.310335 22.180829 
L 49.082307 21.84445 
L 50.754913 21.018923 
L 51.655547 20.993023 
L 53.199491 20.937387 
L 59.632592 20.90365 
L 72.370132 20.896873 
L 85.364995 20.99042 
L 90.447145 21.119581 
L 113.7993 21.131584 
L 115.278913 20.9513 
L 123.062965 20.906184 
L 136.829801 20.897677 
L 154.00618 21.102466 
L 165.264106 21.162206 
L 170.539249 21.232412 
L 173.369813 21.276026 
L 178.258969 21.113625 
L 179.54559 20.959499 
L 184.499077 20.909161 
L 189.323903 20.906368 
L 197.365279 20.898092 
L 202.254435 20.916928 
L 207.851233 20.930335 
L 214.991975 21.028287 
L 222.261378 21.139219 
L 236.349869 21.260094 
L 236.349869 21.260094 
" clip-path="url(#p673fbe86f6)" style="fill: none; stroke: #ff7f0e; stroke-width: 0.5; stroke-linecap: square"/>
   </g>
   <g id="line2d_17">
    <path d="M 43.356847 22.277759 
L 43.485509 22.647593 
L 43.678502 24.578778 
L 43.935826 29.67812 
L 44.321812 42.638458 
L 44.83646 69.049331 
L 45.672764 113.432084 
L 45.865757 116.57705 
L 45.930088 116.526717 
L 46.05875 114.623183 
L 46.251743 107.191372 
L 46.573398 84.362678 
L 47.34537 25.90792 
L 47.538363 22.287028 
L 47.602694 22.545375 
L 47.731356 25.254012 
L 47.98868 38.61765 
L 49.082307 113.697099 
L 49.146638 113.618231 
L 49.2753 110.965306 
L 49.468293 101.057702 
L 49.854279 66.316959 
L 50.368927 23.087316 
L 50.626251 16.079968 
L 50.690582 16.170758 
L 50.819244 18.321331 
L 51.076568 28.519463 
L 51.784209 59.163813 
L 51.977202 61.136731 
L 52.041533 61.030024 
L 52.170195 59.784448 
L 52.427519 54.035285 
L 53.263822 31.985352 
L 53.456815 31.04333 
L 53.585477 31.547746 
L 53.842801 34.717983 
L 54.614774 46.150673 
L 54.743436 46.266227 
L 54.872098 45.747573 
L 55.129422 43.272578 
L 55.837063 35.308048 
L 56.094387 34.508879 
L 56.223049 34.665046 
L 56.416042 35.471621 
L 57.316676 40.336922 
L 57.445338 40.266288 
L 57.638331 39.651396 
L 58.474634 35.751387 
L 58.603296 35.805576 
L 59.246606 36.592609 
L 59.825585 36.185808 
L 60.533226 35.69079 
L 60.79055 35.898825 
L 61.498191 36.677265 
L 61.819846 36.887466 
L 62.012839 36.763445 
L 62.334494 36.133936 
L 63.170797 34.366575 
L 63.492453 34.163208 
L 63.814108 34.289111 
L 64.714742 34.891474 
L 64.972066 34.708692 
L 65.358052 33.991304 
L 65.744038 33.412679 
L 65.8727 33.471085 
L 66.130024 34.004562 
L 66.580341 35.000353 
L 66.773334 35.028382 
L 67.480975 34.678246 
L 67.866961 35.000392 
L 68.317278 35.332092 
L 68.638933 35.329414 
L 68.960588 35.058467 
L 69.73256 34.288687 
L 69.925553 34.311762 
L 70.247208 34.680593 
L 70.697525 35.169259 
L 70.954849 35.116128 
L 71.598159 34.75122 
L 71.919814 35.14049 
L 72.498794 35.884063 
L 72.88478 36.067821 
L 73.52809 36.145912 
L 74.042738 36.745349 
L 74.81471 37.692088 
L 75.072034 37.720319 
L 75.329358 37.538244 
L 75.779675 36.857499 
L 76.358654 36.043669 
L 76.680309 35.947232 
L 77.001964 36.133015 
L 77.645274 36.902314 
L 78.288584 37.519073 
L 78.803232 37.72025 
L 79.31788 37.681572 
L 79.896859 37.390878 
L 80.733162 36.669461 
L 81.698128 35.886981 
L 82.084114 35.867907 
L 82.663093 36.047098 
L 83.049079 36.514137 
L 83.499396 37.345879 
L 83.821051 38.545392 
L 84.271368 41.288775 
L 86.394291 55.770472 
L 86.844608 57.13204 
L 87.166263 57.595833 
L 87.487918 57.68898 
L 88.452883 57.667231 
L 89.353517 58.138336 
L 89.803834 58.62671 
L 91.154786 60.17228 
L 91.540772 60.353478 
L 91.926758 60.25479 
L 93.020385 59.798159 
L 93.728026 59.366119 
L 94.242674 59.5211 
L 94.885984 59.955828 
L 95.464963 60.322772 
L 95.91528 60.35556 
L 96.365597 60.393834 
L 97.073238 60.619668 
L 97.973872 60.200682 
L 98.552851 59.76087 
L 98.874506 59.808588 
L 99.453486 59.91564 
L 99.903803 60.00128 
L 100.482782 60.43216 
L 100.933099 60.933175 
L 101.705071 61.861313 
L 102.348381 62.714054 
L 103.57067 64.411429 
L 103.956656 64.484531 
L 104.471304 64.328611 
L 104.85729 63.991794 
L 105.371938 63.195022 
L 105.950917 61.77322 
L 107.366199 58.191908 
L 107.945178 57.288199 
L 108.331165 57.057387 
L 108.65282 57.144519 
L 108.974475 57.531759 
L 109.360461 58.43829 
L 110.58275 61.956643 
L 110.775743 61.840941 
L 111.033067 61.208068 
L 111.547715 58.93943 
L 111.998032 57.31002 
L 112.255356 57.061571 
L 112.448349 57.279664 
L 112.705673 58.06287 
L 113.477645 60.950137 
L 113.606307 60.832657 
L 113.7993 59.908408 
L 114.056624 56.97749 
L 114.506941 47.938369 
L 115.021589 39.021843 
L 115.214582 37.946111 
L 115.278913 37.906367 
L 115.407575 38.257981 
L 115.664899 40.258582 
L 116.179547 44.48943 
L 116.37254 44.772508 
L 116.501202 44.498588 
L 116.758526 43.070305 
L 117.401837 38.970419 
L 117.659161 38.352979 
L 117.852154 38.278888 
L 118.045147 38.506812 
L 118.366802 39.430721 
L 118.88145 40.865644 
L 119.074443 40.928804 
L 119.267436 40.613018 
L 119.589091 39.510229 
L 120.296732 36.872712 
L 120.618387 36.419032 
L 120.81138 36.387899 
L 121.004373 36.579338 
L 121.905007 37.963192 
L 122.098 37.711463 
L 122.998634 35.966339 
L 123.191627 36.065989 
L 123.513282 36.566177 
L 124.02793 37.48595 
L 124.220923 37.430693 
L 124.478247 36.952752 
L 125.378881 34.869554 
L 125.829199 34.473896 
L 126.022192 34.475983 
L 126.215185 34.734331 
L 126.601171 35.922209 
L 126.922826 36.622167 
L 127.051488 36.626491 
L 127.244481 36.361979 
L 128.145115 34.600584 
L 128.338108 34.759602 
L 128.981418 35.507577 
L 129.238742 35.468464 
L 129.496066 35.193811 
L 130.268038 34.050201 
L 130.525362 34.189203 
L 131.233003 34.782024 
L 131.68332 34.849912 
L 132.069306 34.906768 
L 132.519623 35.08681 
L 133.227264 34.827558 
L 133.61325 35.019712 
L 134.192229 34.998585 
L 134.578215 35.440892 
L 135.028533 35.900556 
L 135.221526 35.878303 
L 135.47885 35.549409 
L 136.508146 33.629552 
L 136.701139 33.981019 
L 137.344449 36.283036 
L 137.794766 37.491397 
L 138.05209 37.731048 
L 138.245083 37.65837 
L 138.566738 37.231701 
L 139.274379 36.248408 
L 139.596034 36.17822 
L 139.917689 36.391216 
L 141.204309 37.661141 
L 141.525964 37.532129 
L 142.169274 36.952565 
L 142.941246 36.3633 
L 143.520225 36.177843 
L 144.099205 36.22676 
L 144.678184 36.51032 
L 145.578818 37.041148 
L 147.251424 37.33871 
L 147.508748 37.661373 
L 147.830403 38.509671 
L 148.409382 40.935914 
L 149.117023 44.702227 
L 150.403643 52.010943 
L 151.175615 54.993074 
L 151.625932 56.116495 
L 152.076249 56.687477 
L 154.134842 58.461289 
L 155.807448 61.053619 
L 157.351392 61.639808 
L 157.673047 61.493421 
L 158.638012 60.850602 
L 159.023998 60.933805 
L 159.345653 61.199756 
L 161.66157 64.123381 
L 161.918894 64.034908 
L 162.883859 63.055916 
L 163.462838 62.135364 
L 164.363472 60.778414 
L 164.749458 60.558124 
L 165.071113 60.612144 
L 165.843085 61.016384 
L 166.936712 61.800974 
L 167.45136 62.200148 
L 168.030339 62.643439 
L 168.544987 62.896339 
L 169.38129 63.475083 
L 169.831607 63.482435 
L 170.410587 63.294642 
L 170.796573 62.920135 
L 171.24689 62.11321 
L 171.825869 60.526927 
L 173.048158 57.042959 
L 173.434144 56.5391 
L 173.627137 56.530836 
L 173.82013 56.735632 
L 174.077454 57.38527 
L 174.46344 59.125838 
L 175.235412 62.823848 
L 175.428405 63.040029 
L 175.557067 62.934537 
L 175.75006 62.412522 
L 176.136046 60.387673 
L 176.779356 56.925249 
L 177.03668 56.509057 
L 177.165342 56.59229 
L 177.358335 57.044122 
L 177.937314 58.736875 
L 178.065976 58.53995 
L 178.258969 57.398942 
L 178.516293 54.152625 
L 179.609921 36.881569 
L 179.738583 36.774463 
L 179.867245 37.189453 
L 180.124569 39.174591 
L 180.767879 44.753629 
L 180.960872 45.257926 
L 181.089534 45.183812 
L 181.282527 44.545873 
L 181.604182 42.404055 
L 182.247492 37.798909 
L 182.504816 37.125658 
L 182.697809 37.042376 
L 182.955133 37.315812 
L 183.40545 38.27887 
L 183.662774 38.62608 
L 183.791436 38.564522 
L 184.04876 38.03596 
L 185.013725 35.467668 
L 185.206718 35.473073 
L 185.399711 35.82824 
L 186.107352 37.532748 
L 186.493338 37.576267 
L 186.943655 37.515802 
L 187.26531 37.209014 
L 187.586965 36.627974 
L 188.294607 35.143941 
L 188.4876 35.134094 
L 188.680593 35.484958 
L 189.323903 37.064205 
L 189.452565 36.964897 
L 189.709889 36.330229 
L 190.674854 33.32142 
L 190.803516 33.327197 
L 190.996509 33.671072 
L 191.382495 35.203156 
L 191.897143 37.056095 
L 192.154467 37.365783 
L 192.34746 37.269693 
L 192.604784 36.695669 
L 193.119432 34.636147 
L 193.569749 33.283297 
L 193.762742 33.192537 
L 193.955735 33.496846 
L 194.9207 35.661251 
L 195.242355 35.887804 
L 195.499679 35.756019 
L 196.271651 35.046703 
L 196.464644 35.197649 
L 196.85063 35.889859 
L 197.300948 36.608589 
L 197.493941 36.645656 
L 197.686934 36.436904 
L 198.330244 35.488309 
L 198.71623 35.342178 
L 199.745526 34.404899 
L 199.938519 34.551869 
L 200.903484 35.808194 
L 201.160808 35.789503 
L 201.418132 35.513908 
L 202.254435 34.155438 
L 202.447428 34.372868 
L 202.704752 35.128984 
L 203.798379 39.171996 
L 203.927041 39.15748 
L 204.120034 38.844751 
L 204.441689 37.682868 
L 205.277992 34.310144 
L 205.535316 34.108025 
L 205.728309 34.280179 
L 206.049965 35.021238 
L 207.336585 38.597629 
L 207.786902 39.107904 
L 208.108557 39.179592 
L 208.430212 39.004474 
L 208.816198 38.493462 
L 209.395177 37.262873 
L 210.488804 34.799354 
L 211.003452 34.294532 
L 211.389438 34.081761 
L 211.582431 34.225006 
L 211.839755 34.768495 
L 212.225741 36.118849 
L 212.611727 38.253499 
L 213.190706 43.040845 
L 214.412995 52.933957 
L 214.927644 55.583407 
L 215.31363 56.597631 
L 215.635285 56.933759 
L 215.95694 56.94207 
L 216.793243 56.782528 
L 217.24356 57.058091 
L 217.693877 57.261362 
L 218.144194 57.459863 
L 219.17349 58.464744 
L 219.623807 59.194525 
L 220.331448 60.389683 
L 220.653103 60.591769 
L 220.974758 60.545246 
L 221.74673 60.303374 
L 222.261378 60.21408 
L 223.612329 59.59398 
L 223.933985 59.571609 
L 224.191309 59.844554 
L 225.156274 61.224606 
L 226.764549 62.322072 
L 227.214866 62.644309 
L 227.600852 62.616405 
L 228.1155 62.611229 
L 228.437155 62.57463 
L 228.887472 62.173697 
L 229.595113 61.750049 
L 230.04543 61.615292 
L 231.589374 61.590044 
L 232.168353 61.90178 
L 232.683002 62.054545 
L 233.454974 62.285524 
L 234.162615 62.831267 
L 234.612932 62.807132 
L 234.998918 62.550953 
L 235.449235 61.964975 
L 235.963883 60.889976 
L 236.349869 59.850016 
L 236.349869 59.850016 
" clip-path="url(#p673fbe86f6)" style="fill: none; stroke: #2ca02c; stroke-width: 0.5; stroke-linecap: square"/>
   </g>
   <g id="patch_3">
    <path d="M 33.707196 202.559296 
L 33.707196 7.2 
" style="fill: none; stroke: #000000; stroke-width: 0.8; stroke-linejoin: miter; stroke-linecap: square"/>
   </g>
   <g id="patch_4">
    <path d="M 245.99952 202.559296 
L 245.99952 7.2 
" style="fill: none; stroke: #000000; stroke-width: 0.8; stroke-linejoin: miter; stroke-linecap: square"/>
   </g>
   <g id="patch_5">
    <path d="M 33.707196 202.559296 
L 245.99952 202.559296 
" style="fill: none; stroke: #000000; stroke-width: 0.8; stroke-linejoin: miter; stroke-linecap: square"/>
   </g>
   <g id="patch_6">
    <path d="M 33.707196 7.2 
L 245.99952 7.2 
" style="fill: none; stroke: #000000; stroke-width: 0.8; stroke-linejoin: miter; stroke-linecap: square"/>
   </g>
   <g id="legend_1">
    <g id="patch_7">
     <path d="M 193.792605 198.059296 
L 239.69952 198.059296 
Q 241.49952 198.059296 241.49952 196.259296 
L 241.49952 156.760168 
Q 241.49952 154.960168 239.69952 154.960168 
L 193.792605 154.960168 
Q 191.992605 154.960168 191.992605 156.760168 
L 191.992605 196.259296 
Q 191.992605 198.059296 193.792605 198.059296 
z
" style="fill: #ffffff; opacity: 0.8; stroke: #cccccc; stroke-width: 0.24; stroke-linejoin: miter"/>
    </g>
    <g id="line2d_18">
     <path d="M 195.592605 162.13495 
L 204.592605 162.13495 
L 213.592605 162.13495 
" style="fill: none; stroke: #1f77b4; stroke-width: 0.5; stroke-linecap: square"/>
    </g>
    <g id="text_16">
     <!-- $\langle \sigma_z\rangle$ -->
     <g transform="translate(220.792605 165.28495) scale(0.09 -0.09)">
      <defs>
       <path id="CMSY10-68" d="M 2099 4557 
C 2131 4627 2131 4640 2131 4672 
C 2131 4742 2074 4800 2003 4800 
C 1946 4800 1901 4768 1856 4653 
L 736 1715 
C 723 1677 704 1638 704 1600 
C 704 1581 704 1568 736 1491 
L 1856 -1446 
C 1882 -1517 1914 -1600 2003 -1600 
C 2074 -1600 2131 -1542 2131 -1472 
C 2131 -1453 2131 -1440 2099 -1370 
L 966 1600 
L 2099 4557 
z
" transform="scale(0.015625)"/>
       <path id="CMMI12-1b" d="M 3251 2408 
C 3334 2408 3546 2408 3546 2612 
C 3546 2752 3424 2752 3309 2752 
L 1894 2752 
C 934 2752 243 1686 243 932 
C 243 390 595 -64 1171 -64 
C 1926 -64 2752 747 2752 1705 
C 2752 1954 2694 2196 2541 2408 
L 3251 2408 
z
M 1178 64 
C 851 64 614 313 614 754 
C 614 1137 845 2408 1786 2408 
C 2061 2408 2368 2274 2368 1781 
C 2368 1558 2266 1021 2042 652 
C 1811 275 1466 64 1178 64 
z
" transform="scale(0.015625)"/>
       <path id="CMMI12-7a" d="M 813 486 
C 1088 803 1312 1004 1632 1296 
C 2016 1632 2182 1793 2272 1891 
C 2720 2338 2944 2713 2944 2764 
C 2944 2816 2893 2816 2880 2816 
C 2835 2816 2822 2793 2790 2750 
C 2630 2494 2477 2367 2310 2367 
C 2176 2367 2106 2421 1984 2565 
C 1850 2715 1741 2816 1555 2816 
C 1088 2816 806 2257 806 2128 
C 806 2108 813 2068 870 2068 
C 922 2068 928 2091 947 2133 
C 1056 2372 1363 2414 1485 2414 
C 1619 2414 1747 2376 1882 2327 
C 2125 2240 2227 2240 2291 2240 
C 2336 2240 2362 2240 2394 2246 
C 2182 1994 1837 1683 1549 1418 
L 902 816 
C 512 415 275 33 275 -12 
C 275 -51 307 -64 346 -64 
C 384 -64 390 -57 435 14 
C 538 163 742 384 979 384 
C 1114 384 1178 342 1306 193 
C 1427 61 1536 -64 1741 -64 
C 2368 -64 2726 732 2726 876 
C 2726 903 2720 942 2656 942 
C 2605 942 2598 917 2579 855 
C 2438 488 2061 338 1811 338 
C 1677 338 1549 376 1414 425 
C 1158 512 1088 512 1005 512 
C 941 512 870 512 813 486 
z
" transform="scale(0.015625)"/>
       <path id="CMSY10-69" d="M 1747 1491 
C 1779 1568 1779 1581 1779 1600 
C 1779 1619 1779 1632 1747 1709 
L 627 4653 
C 589 4762 550 4800 480 4800 
C 410 4800 352 4742 352 4672 
C 352 4653 352 4640 384 4570 
L 1517 1600 
L 384 -1357 
C 352 -1427 352 -1440 352 -1472 
C 352 -1542 410 -1600 480 -1600 
C 563 -1600 589 -1536 614 -1472 
L 1747 1491 
z
" transform="scale(0.015625)"/>
      </defs>
      <use xlink:href="#CMSY10-68" transform="scale(0.996264)"/>
      <use xlink:href="#CMMI12-1b" transform="translate(38.743734 0) scale(0.996264)"/>
      <use xlink:href="#CMMI12-7a" transform="translate(94.189195 -14.943915) scale(0.697382)"/>
      <use xlink:href="#CMSY10-69" transform="translate(129.51575 0) scale(0.996264)"/>
     </g>
    </g>
    <g id="line2d_19">
     <path d="M 195.592605 175.601326 
L 204.592605 175.601326 
L 213.592605 175.601326 
" style="fill: none; stroke: #ff7f0e; stroke-width: 0.5; stroke-linecap: square"/>
    </g>
    <g id="text_17">
     <!-- $\langle \sigma_x\rangle$ -->
     <g transform="translate(220.792605 178.751326) scale(0.09 -0.09)">
      <defs>
       <path id="CMMI12-78" d="M 3034 2606 
C 2829 2567 2752 2414 2752 2293 
C 2752 2139 2874 2088 2963 2088 
C 3155 2088 3290 2254 3290 2427 
C 3290 2695 2982 2816 2714 2816 
C 2323 2816 2106 2433 2048 2312 
C 1901 2816 1504 2816 1389 2816 
C 736 2816 390 1980 390 1839 
C 390 1814 416 1782 461 1782 
C 512 1782 525 1820 538 1846 
C 755 2555 1184 2689 1370 2689 
C 1658 2689 1715 2420 1715 2267 
C 1715 2127 1677 1980 1600 1673 
L 1382 798 
C 1286 415 1101 64 762 64 
C 730 64 570 64 435 147 
C 666 192 717 383 717 460 
C 717 588 621 664 499 664 
C 346 664 179 530 179 326 
C 179 57 480 -64 755 -64 
C 1062 -64 1280 179 1414 441 
C 1517 64 1837 -64 2074 -64 
C 2726 -64 3072 773 3072 913 
C 3072 945 3046 971 3008 971 
C 2950 971 2944 939 2925 888 
C 2752 326 2381 64 2093 64 
C 1869 64 1747 230 1747 492 
C 1747 632 1773 734 1875 1156 
L 2099 2024 
C 2195 2408 2413 2689 2707 2689 
C 2720 2689 2899 2689 3034 2606 
z
" transform="scale(0.015625)"/>
      </defs>
      <use xlink:href="#CMSY10-68" transform="scale(0.996264)"/>
      <use xlink:href="#CMMI12-1b" transform="translate(38.743734 0) scale(0.996264)"/>
      <use xlink:href="#CMMI12-78" transform="translate(94.189195 -14.943915) scale(0.697382)"/>
      <use xlink:href="#CMSY10-69" transform="translate(133.490986 0) scale(0.996264)"/>
     </g>
    </g>
    <g id="line2d_20">
     <path d="M 195.592605 189.067702 
L 204.592605 189.067702 
L 213.592605 189.067702 
" style="fill: none; stroke: #2ca02c; stroke-width: 0.5; stroke-linecap: square"/>
    </g>
    <g id="text_18">
     <!-- $\langle \sigma_y\rangle$ -->
     <g transform="translate(220.792605 192.217702) scale(0.09 -0.09)">
      <defs>
       <path id="CMMI12-79" d="M 1683 -700 
C 1510 -939 1261 -1152 947 -1152 
C 870 -1152 563 -1152 467 -889 
C 486 -895 518 -895 531 -895 
C 723 -895 851 -729 851 -582 
C 851 -435 730 -384 634 -384 
C 531 -384 307 -458 307 -759 
C 307 -1071 582 -1286 947 -1286 
C 1587 -1286 2234 -700 2413 6 
L 3040 2485 
C 3046 2517 3059 2556 3059 2594 
C 3059 2689 2982 2753 2886 2753 
C 2829 2753 2694 2727 2643 2535 
L 2170 658 
C 2138 543 2138 530 2086 460 
C 1958 281 1747 64 1440 64 
C 1082 64 1050 415 1050 588 
C 1050 952 1222 1443 1395 1903 
C 1466 2088 1504 2178 1504 2305 
C 1504 2574 1312 2816 998 2816 
C 410 2816 173 1890 173 1839 
C 173 1814 198 1782 243 1782 
C 301 1782 307 1807 333 1897 
C 486 2433 730 2689 979 2689 
C 1037 2689 1146 2689 1146 2478 
C 1146 2312 1075 2127 979 1884 
C 666 1047 666 837 666 683 
C 666 77 1101 -64 1421 -64 
C 1606 -64 1837 -6 2061 230 
L 2067 224 
C 1971 -147 1907 -392 1683 -700 
z
" transform="scale(0.015625)"/>
      </defs>
      <use xlink:href="#CMSY10-68" transform="scale(0.996264)"/>
      <use xlink:href="#CMMI12-1b" transform="translate(38.743734 0) scale(0.996264)"/>
      <use xlink:href="#CMMI12-79" transform="translate(94.189195 -14.943915) scale(0.697382)"/>
      <use xlink:href="#CMSY10-69" transform="translate(130.484301 0) scale(0.996264)"/>
     </g>
    </g>
   </g>
  </g>
 </g>
 <defs>
  <clipPath id="p673fbe86f6">
   <rect x="33.707196" y="7.2" width="212.292324" height="195.359296"/>
  </clipPath>
 </defs>
</svg>
