<?xml version="1.0" encoding="utf-8" standalone="no"?>
<!DOCTYPE svg PUBLIC "-//W3C//DTD SVG 1.1//EN"
  "http://www.w3.org/Graphics/SVG/1.1/DTD/svg11.dtd">
<svg xmlns:xlink="http://www.w3.org/1999/xlink" width="253.19952pt" height="238.79952pt" viewBox="0 0 253.19952 238.79952" xmlns="http://www.w3.org/2000/svg" version="1.1">
 <metadata>
  <rdf:RDF xmlns:dc="http://purl.org/dc/elements/1.1/" xmlns:cc="http://creativecommons.org/ns#" xmlns:rdf="http://www.w3.org/1999/02/22-rdf-syntax-ns#">
   <cc:Work>
    <dc:type rdf:resource="http://purl.org/dc/dcmitype/StillImage"/>
    <dc:date>1980-01-01T00:00:00+00:00</dc:date>
    <dc:format>image/svg+xml</dc:format>
    <dc:creator>
     <cc:Agent>
      <dc:title>Matplotlib v3.6.2, https://matplotlib.org/</dc:title>
     </cc:Agent>
    </dc:creator>
   </cc:Work>
  </rdf:RDF>
 </metadata>
 <defs>
  <style type="text/css">*{stroke-linejoin: round; stroke-linecap: butt}</style>
 </defs>
 <g id="figure_1">
  <g id="patch_1">
   <path d="M 0 238.79952 
L 253.19952 238.79952 
L 253.19952 0 
L 0 0 
z
" style="fill: #ffffff"/>
  </g>
  <g id="axes_1">
   <g id="patch_2">
    <path d="M 33.707196 202.559296 
L 245.99952 202.559296 
L 245.99952 7.2 
L 33.707196 7.2 
z
" style="fill: #ffffff"/>
   </g>
   <g id="matplotlib.axis_1">
    <g id="xtick_1">
     <g id="line2d_1">
      <defs>
       <path id="m5f9951fe83" d="M 0 0 
L 0 3.5 
" style="stroke: #000000; stroke-width: 0.8"/>
      </defs>
      <g>
       <use xlink:href="#m5f9951fe83" x="43.356847" y="202.559296" style="stroke: #000000; stroke-width: 0.8"/>
      </g>
     </g>
     <g id="text_1">
      <!-- $\mathdefault{0}$ -->
      <g transform="translate(41.239756 217.194098) scale(0.08 -0.08)">
       <defs>
        <path id="CMR17-30" d="M 2688 2025 
C 2688 2416 2682 3080 2413 3591 
C 2176 4039 1798 4198 1466 4198 
C 1158 4198 768 4058 525 3597 
C 269 3118 243 2524 243 2025 
C 243 1661 250 1106 448 619 
C 723 -39 1216 -128 1466 -128 
C 1760 -128 2208 -7 2470 600 
C 2662 1042 2688 1559 2688 2025 
z
M 1466 -26 
C 1056 -26 813 325 723 812 
C 653 1188 653 1738 653 2096 
C 653 2588 653 2997 736 3387 
C 858 3929 1216 4096 1466 4096 
C 1728 4096 2067 3923 2189 3400 
C 2272 3036 2278 2607 2278 2096 
C 2278 1680 2278 1169 2202 792 
C 2067 95 1690 -26 1466 -26 
z
" transform="scale(0.015625)"/>
       </defs>
       <use xlink:href="#CMR17-30" transform="scale(0.996264)"/>
      </g>
     </g>
    </g>
    <g id="xtick_2">
     <g id="line2d_2">
      <g>
       <use xlink:href="#m5f9951fe83" x="70.161434" y="202.559296" style="stroke: #000000; stroke-width: 0.8"/>
      </g>
     </g>
     <g id="text_2">
      <!-- $\mathdefault{25}$ -->
      <g transform="translate(65.927251 217.194098) scale(0.08 -0.08)">
       <defs>
        <path id="CMR17-32" d="M 2669 989 
L 2554 989 
C 2490 536 2438 459 2413 420 
C 2381 369 1920 369 1830 369 
L 602 369 
C 832 619 1280 1072 1824 1597 
C 2214 1967 2669 2402 2669 3035 
C 2669 3790 2067 4224 1395 4224 
C 691 4224 262 3604 262 3030 
C 262 2780 448 2748 525 2748 
C 589 2748 781 2787 781 3010 
C 781 3207 614 3264 525 3264 
C 486 3264 448 3258 422 3245 
C 544 3790 915 4058 1306 4058 
C 1862 4058 2227 3617 2227 3035 
C 2227 2479 1901 2000 1536 1584 
L 262 146 
L 262 0 
L 2515 0 
L 2669 989 
z
" transform="scale(0.015625)"/>
        <path id="CMR17-35" d="M 730 3692 
C 794 3666 1056 3584 1325 3584 
C 1920 3584 2246 3911 2432 4100 
C 2432 4157 2432 4192 2394 4192 
C 2387 4192 2374 4192 2323 4163 
C 2099 4058 1837 3973 1517 3973 
C 1325 3973 1037 3999 723 4139 
C 653 4171 640 4171 634 4171 
C 602 4171 595 4164 595 4037 
L 595 2203 
C 595 2089 595 2057 659 2057 
C 691 2057 704 2070 736 2114 
C 941 2401 1222 2522 1542 2522 
C 1766 2522 2246 2382 2246 1289 
C 2246 1085 2246 715 2054 421 
C 1894 159 1645 25 1370 25 
C 947 25 518 320 403 814 
C 429 807 480 795 506 795 
C 589 795 749 840 749 1038 
C 749 1210 627 1280 506 1280 
C 358 1280 262 1190 262 1011 
C 262 454 704 -128 1382 -128 
C 2042 -128 2669 440 2669 1264 
C 2669 2030 2170 2624 1549 2624 
C 1222 2624 947 2503 730 2274 
L 730 3692 
z
" transform="scale(0.015625)"/>
       </defs>
       <use xlink:href="#CMR17-32" transform="scale(0.996264)"/>
       <use xlink:href="#CMR17-35" transform="translate(45.690477 0) scale(0.996264)"/>
      </g>
     </g>
    </g>
    <g id="xtick_3">
     <g id="line2d_3">
      <g>
       <use xlink:href="#m5f9951fe83" x="96.96602" y="202.559296" style="stroke: #000000; stroke-width: 0.8"/>
      </g>
     </g>
     <g id="text_3">
      <!-- $\mathdefault{50}$ -->
      <g transform="translate(92.731837 217.194098) scale(0.08 -0.08)">
       <use xlink:href="#CMR17-35" transform="scale(0.996264)"/>
       <use xlink:href="#CMR17-30" transform="translate(45.690477 0) scale(0.996264)"/>
      </g>
     </g>
    </g>
    <g id="xtick_4">
     <g id="line2d_4">
      <g>
       <use xlink:href="#m5f9951fe83" x="123.770606" y="202.559296" style="stroke: #000000; stroke-width: 0.8"/>
      </g>
     </g>
     <g id="text_4">
      <!-- $\mathdefault{75}$ -->
      <g transform="translate(119.536423 217.194098) scale(0.08 -0.08)">
       <defs>
        <path id="CMR17-37" d="M 2886 3941 
L 2886 4081 
L 1382 4081 
C 634 4081 621 4165 595 4288 
L 480 4288 
L 294 3094 
L 410 3094 
C 429 3215 474 3540 550 3661 
C 589 3712 1062 3712 1171 3712 
L 2579 3712 
L 1869 2661 
C 1395 1954 1069 999 1069 165 
C 1069 89 1069 -128 1299 -128 
C 1530 -128 1530 89 1530 171 
L 1530 465 
C 1530 1508 1709 2196 2003 2636 
L 2886 3941 
z
" transform="scale(0.015625)"/>
       </defs>
       <use xlink:href="#CMR17-37" transform="scale(0.996264)"/>
       <use xlink:href="#CMR17-35" transform="translate(45.690477 0) scale(0.996264)"/>
      </g>
     </g>
    </g>
    <g id="xtick_5">
     <g id="line2d_5">
      <g>
       <use xlink:href="#m5f9951fe83" x="150.575193" y="202.559296" style="stroke: #000000; stroke-width: 0.8"/>
      </g>
     </g>
     <g id="text_5">
      <!-- $\mathdefault{100}$ -->
      <g transform="translate(144.223918 217.194098) scale(0.08 -0.08)">
       <defs>
        <path id="CMR17-31" d="M 1702 4058 
C 1702 4192 1696 4192 1606 4192 
C 1357 3916 979 3827 621 3827 
C 602 3827 570 3827 563 3808 
C 557 3795 557 3782 557 3648 
C 755 3648 1088 3686 1344 3839 
L 1344 461 
C 1344 236 1331 160 781 160 
L 589 160 
L 589 0 
C 896 0 1216 0 1523 0 
C 1830 0 2150 0 2458 0 
L 2458 160 
L 2266 160 
C 1715 160 1702 230 1702 458 
L 1702 4058 
z
" transform="scale(0.015625)"/>
       </defs>
       <use xlink:href="#CMR17-31" transform="scale(0.996264)"/>
       <use xlink:href="#CMR17-30" transform="translate(45.690477 0) scale(0.996264)"/>
       <use xlink:href="#CMR17-30" transform="translate(91.380954 0) scale(0.996264)"/>
      </g>
     </g>
    </g>
    <g id="xtick_6">
     <g id="line2d_6">
      <g>
       <use xlink:href="#m5f9951fe83" x="177.379779" y="202.559296" style="stroke: #000000; stroke-width: 0.8"/>
      </g>
     </g>
     <g id="text_6">
      <!-- $\mathdefault{125}$ -->
      <g transform="translate(171.028505 217.194098) scale(0.08 -0.08)">
       <use xlink:href="#CMR17-31" transform="scale(0.996264)"/>
       <use xlink:href="#CMR17-32" transform="translate(45.690477 0) scale(0.996264)"/>
       <use xlink:href="#CMR17-35" transform="translate(91.380954 0) scale(0.996264)"/>
      </g>
     </g>
    </g>
    <g id="xtick_7">
     <g id="line2d_7">
      <g>
       <use xlink:href="#m5f9951fe83" x="204.184365" y="202.559296" style="stroke: #000000; stroke-width: 0.8"/>
      </g>
     </g>
     <g id="text_7">
      <!-- $\mathdefault{150}$ -->
      <g transform="translate(197.833091 217.194098) scale(0.08 -0.08)">
       <use xlink:href="#CMR17-31" transform="scale(0.996264)"/>
       <use xlink:href="#CMR17-35" transform="translate(45.690477 0) scale(0.996264)"/>
       <use xlink:href="#CMR17-30" transform="translate(91.380954 0) scale(0.996264)"/>
      </g>
     </g>
    </g>
    <g id="xtick_8">
     <g id="line2d_8">
      <g>
       <use xlink:href="#m5f9951fe83" x="230.988952" y="202.559296" style="stroke: #000000; stroke-width: 0.8"/>
      </g>
     </g>
     <g id="text_8">
      <!-- $\mathdefault{175}$ -->
      <g transform="translate(224.637677 217.194098) scale(0.08 -0.08)">
       <use xlink:href="#CMR17-31" transform="scale(0.996264)"/>
       <use xlink:href="#CMR17-37" transform="translate(45.690477 0) scale(0.996264)"/>
       <use xlink:href="#CMR17-35" transform="translate(91.380954 0) scale(0.996264)"/>
      </g>
     </g>
    </g>
    <g id="text_9">
     <!-- $\tau$ -->
     <g transform="translate(137.675756 229.662342) scale(0.1 -0.1)">
      <defs>
       <path id="CMMI12-1c" d="M 1837 2408 
L 2899 2408 
C 2982 2408 3194 2408 3194 2612 
C 3194 2752 3072 2752 2957 2752 
L 1197 2752 
C 1050 2752 832 2752 538 2440 
C 371 2255 166 1917 166 1879 
C 166 1841 198 1828 237 1828 
C 282 1828 288 1847 320 1885 
C 653 2408 986 2408 1146 2408 
L 1677 2408 
L 1011 223 
C 979 127 979 114 979 95 
C 979 25 1024 -64 1152 -64 
C 1350 -64 1382 108 1402 203 
L 1837 2408 
z
" transform="scale(0.015625)"/>
      </defs>
      <use xlink:href="#CMMI12-1c" transform="scale(0.996264)"/>
     </g>
    </g>
   </g>
   <g id="matplotlib.axis_2">
    <g id="ytick_1">
     <g id="line2d_9">
      <defs>
       <path id="m838ab2df80" d="M 0 0 
L -3.5 0 
" style="stroke: #000000; stroke-width: 0.8"/>
      </defs>
      <g>
       <use xlink:href="#m838ab2df80" x="33.707196" y="193.679328" style="stroke: #000000; stroke-width: 0.8"/>
      </g>
     </g>
     <g id="text_10">
      <!-- $\mathdefault{−1.0}$ -->
      <g transform="translate(7.2 196.446729) scale(0.08 -0.08)">
       <defs>
        <path id="CMSY10-0" d="M 4218 1472 
C 4326 1472 4442 1472 4442 1600 
C 4442 1728 4326 1728 4218 1728 
L 755 1728 
C 646 1728 531 1728 531 1600 
C 531 1472 646 1472 755 1472 
L 4218 1472 
z
" transform="scale(0.015625)"/>
        <path id="CMMI12-3a" d="M 1178 307 
C 1178 492 1024 619 870 619 
C 685 619 557 466 557 313 
C 557 128 710 0 864 0 
C 1050 0 1178 153 1178 307 
z
" transform="scale(0.015625)"/>
       </defs>
       <use xlink:href="#CMSY10-0" transform="scale(0.996264)"/>
       <use xlink:href="#CMR17-31" transform="translate(77.487468 0) scale(0.996264)"/>
       <use xlink:href="#CMMI12-3a" transform="translate(123.177945 0) scale(0.996264)"/>
       <use xlink:href="#CMR17-30" transform="translate(150.275122 0) scale(0.996264)"/>
      </g>
     </g>
    </g>
    <g id="ytick_2">
     <g id="line2d_10">
      <g>
       <use xlink:href="#m838ab2df80" x="33.707196" y="158.420286" style="stroke: #000000; stroke-width: 0.8"/>
      </g>
     </g>
     <g id="text_11">
      <!-- $\mathdefault{−0.8}$ -->
      <g transform="translate(7.2 161.187686) scale(0.08 -0.08)">
       <defs>
        <path id="CMR17-38" d="M 1741 2264 
C 2144 2467 2554 2773 2554 3263 
C 2554 3841 1990 4179 1472 4179 
C 890 4179 378 3759 378 3180 
C 378 3021 416 2747 666 2505 
C 730 2442 998 2251 1171 2130 
C 883 1983 211 1634 211 934 
C 211 279 838 -128 1459 -128 
C 2144 -128 2720 362 2720 1010 
C 2720 1590 2330 1857 2074 2029 
L 1741 2264 
z
M 902 2822 
C 851 2854 595 3051 595 3351 
C 595 3739 998 4032 1459 4032 
C 1965 4032 2336 3676 2336 3262 
C 2336 2669 1670 2331 1638 2331 
C 1632 2331 1626 2331 1574 2370 
L 902 2822 
z
M 2080 1519 
C 2176 1449 2483 1240 2483 851 
C 2483 381 2010 25 1472 25 
C 890 25 448 438 448 940 
C 448 1443 838 1862 1280 2060 
L 2080 1519 
z
" transform="scale(0.015625)"/>
       </defs>
       <use xlink:href="#CMSY10-0" transform="scale(0.996264)"/>
       <use xlink:href="#CMR17-30" transform="translate(77.487468 0) scale(0.996264)"/>
       <use xlink:href="#CMMI12-3a" transform="translate(123.177945 0) scale(0.996264)"/>
       <use xlink:href="#CMR17-38" transform="translate(150.275122 0) scale(0.996264)"/>
      </g>
     </g>
    </g>
    <g id="ytick_3">
     <g id="line2d_11">
      <g>
       <use xlink:href="#m838ab2df80" x="33.707196" y="123.161243" style="stroke: #000000; stroke-width: 0.8"/>
      </g>
     </g>
     <g id="text_12">
      <!-- $\mathdefault{−0.6}$ -->
      <g transform="translate(7.2 125.928644) scale(0.08 -0.08)">
       <defs>
        <path id="CMR17-36" d="M 678 2176 
C 678 3690 1395 4032 1811 4032 
C 1946 4032 2272 4009 2400 3776 
C 2298 3776 2106 3776 2106 3553 
C 2106 3381 2246 3323 2336 3323 
C 2394 3323 2566 3348 2566 3560 
C 2566 3954 2246 4179 1805 4179 
C 1043 4179 243 3390 243 1984 
C 243 253 966 -128 1478 -128 
C 2099 -128 2688 427 2688 1283 
C 2688 2081 2170 2662 1517 2662 
C 1126 2662 838 2407 678 1960 
L 678 2176 
z
M 1478 25 
C 691 25 691 1200 691 1436 
C 691 1896 909 2560 1504 2560 
C 1613 2560 1926 2560 2138 2120 
C 2253 1870 2253 1609 2253 1289 
C 2253 944 2253 690 2118 434 
C 1978 171 1773 25 1478 25 
z
" transform="scale(0.015625)"/>
       </defs>
       <use xlink:href="#CMSY10-0" transform="scale(0.996264)"/>
       <use xlink:href="#CMR17-30" transform="translate(77.487468 0) scale(0.996264)"/>
       <use xlink:href="#CMMI12-3a" transform="translate(123.177945 0) scale(0.996264)"/>
       <use xlink:href="#CMR17-36" transform="translate(150.275122 0) scale(0.996264)"/>
      </g>
     </g>
    </g>
    <g id="ytick_4">
     <g id="line2d_12">
      <g>
       <use xlink:href="#m838ab2df80" x="33.707196" y="87.902201" style="stroke: #000000; stroke-width: 0.8"/>
      </g>
     </g>
     <g id="text_13">
      <!-- $\mathdefault{−0.4}$ -->
      <g transform="translate(7.2 90.669602) scale(0.08 -0.08)">
       <defs>
        <path id="CMR17-34" d="M 2150 4122 
C 2150 4256 2144 4256 2029 4256 
L 128 1254 
L 128 1088 
L 1779 1088 
L 1779 457 
C 1779 224 1766 160 1318 160 
L 1197 160 
L 1197 0 
C 1402 0 1747 0 1965 0 
C 2182 0 2528 0 2733 0 
L 2733 160 
L 2611 160 
C 2163 160 2150 224 2150 457 
L 2150 1088 
L 2803 1088 
L 2803 1254 
L 2150 1254 
L 2150 4122 
z
M 1798 3703 
L 1798 1254 
L 256 1254 
L 1798 3703 
z
" transform="scale(0.015625)"/>
       </defs>
       <use xlink:href="#CMSY10-0" transform="scale(0.996264)"/>
       <use xlink:href="#CMR17-30" transform="translate(77.487468 0) scale(0.996264)"/>
       <use xlink:href="#CMMI12-3a" transform="translate(123.177945 0) scale(0.996264)"/>
       <use xlink:href="#CMR17-34" transform="translate(150.275122 0) scale(0.996264)"/>
      </g>
     </g>
    </g>
    <g id="ytick_5">
     <g id="line2d_13">
      <g>
       <use xlink:href="#m838ab2df80" x="33.707196" y="52.643159" style="stroke: #000000; stroke-width: 0.8"/>
      </g>
     </g>
     <g id="text_14">
      <!-- $\mathdefault{−0.2}$ -->
      <g transform="translate(7.2 55.41056) scale(0.08 -0.08)">
       <use xlink:href="#CMSY10-0" transform="scale(0.996264)"/>
       <use xlink:href="#CMR17-30" transform="translate(77.487468 0) scale(0.996264)"/>
       <use xlink:href="#CMMI12-3a" transform="translate(123.177945 0) scale(0.996264)"/>
       <use xlink:href="#CMR17-32" transform="translate(150.275122 0) scale(0.996264)"/>
      </g>
     </g>
    </g>
    <g id="ytick_6">
     <g id="line2d_14">
      <g>
       <use xlink:href="#m838ab2df80" x="33.707196" y="17.384116" style="stroke: #000000; stroke-width: 0.8"/>
      </g>
     </g>
     <g id="text_15">
      <!-- $\mathdefault{0.0}$ -->
      <g transform="translate(13.786507 20.151517) scale(0.08 -0.08)">
       <use xlink:href="#CMR17-30" transform="scale(0.996264)"/>
       <use xlink:href="#CMMI12-3a" transform="translate(45.690477 0) scale(0.996264)"/>
       <use xlink:href="#CMR17-30" transform="translate(72.787654 0) scale(0.996264)"/>
      </g>
     </g>
    </g>
   </g>
   <g id="line2d_15">
    <path d="M 43.356847 193.679328 
L 52.749174 193.57606 
L 53.070829 193.347782 
L 53.392484 192.823747 
L 53.714139 191.786956 
L 54.035794 189.968234 
L 54.42178 186.372358 
L 54.872098 179.85765 
L 55.451077 168.004756 
L 56.544704 139.5046 
L 57.638331 113.537468 
L 58.410303 99.679573 
L 59.246606 89.097744 
L 59.889916 83.509211 
L 60.854881 76.99364 
L 61.819846 71.875048 
L 62.527487 69.04178 
L 63.106466 67.869583 
L 65.8727 62.240678 
L 66.773334 61.688096 
L 67.673968 61.910944 
L 68.510271 61.517285 
L 69.475236 61.464488 
L 70.054215 61.868455 
L 70.37587 62.042526 
L 70.761856 62.632607 
L 71.598159 63.979665 
L 72.88478 65.759225 
L 73.52809 66.151945 
L 74.300062 66.310231 
L 75.779675 66.336458 
L 86.008305 66.4446 
L 86.458622 66.726989 
L 86.844608 67.257998 
L 87.166263 68.090745 
L 87.552249 69.760019 
L 88.066897 73.189629 
L 88.710207 79.247552 
L 89.417848 87.932299 
L 91.154786 109.537051 
L 92.184082 119.217433 
L 93.020385 125.457623 
L 93.792357 129.485606 
L 94.692991 133.203497 
L 95.464963 135.49423 
L 96.55859 138.039834 
L 97.909541 140.249971 
L 100.418451 142.462601 
L 101.126092 142.820751 
L 101.64074 143.23525 
L 102.026726 144.06643 
L 102.605705 145.88191 
L 103.249015 148.524695 
L 104.535635 154.20797 
L 105.114614 155.795478 
L 105.629262 156.620967 
L 106.14391 157.023349 
L 106.722889 157.162796 
L 108.331165 157.182719 
L 117.208844 157.079945 
L 117.530499 156.844188 
L 117.852154 156.308406 
L 118.173809 155.292596 
L 118.559795 153.195268 
L 119.010112 149.158897 
L 119.52476 142.339012 
L 120.296732 128.285501 
L 121.776345 100.677178 
L 122.548317 90.001568 
L 123.255958 83.302162 
L 124.02793 78.098458 
L 124.864233 73.194493 
L 126.279516 67.635789 
L 126.794164 66.100884 
L 127.373143 65.149146 
L 128.46677 63.788263 
L 128.981418 63.034295 
L 129.624728 62.568503 
L 129.946383 62.548124 
L 130.461031 62.676206 
L 130.782686 62.328971 
L 131.490327 61.522009 
L 131.747651 61.511415 
L 132.262299 61.60361 
L 132.583954 61.394375 
L 133.484588 60.519217 
L 133.741912 60.626933 
L 134.320891 61.223053 
L 135.736174 63.021504 
L 136.508146 64.427095 
L 137.215787 65.247057 
L 137.859097 65.674824 
L 138.438076 65.812898 
L 140.175013 65.834717 
L 150.532305 65.941631 
L 150.918291 66.265775 
L 151.304277 66.917199 
L 151.690263 68.085331 
L 152.14058 70.352044 
L 152.655229 74.413532 
L 153.36287 82.096965 
L 156.257765 117.181653 
L 157.094068 123.722657 
L 157.994702 128.917 
L 158.831005 132.560684 
L 159.538646 134.863952 
L 160.889597 137.930907 
L 161.597239 138.902651 
L 162.240549 139.896231 
L 162.819528 140.618133 
L 164.106148 141.820594 
L 164.620796 142.058435 
L 165.199775 142.272768 
L 165.585761 142.655229 
L 166.036078 143.517281 
L 166.615057 145.136951 
L 167.322698 147.968277 
L 168.866642 154.370248 
L 169.509952 156.064779 
L 170.0246 156.824437 
L 170.539249 157.182024 
L 171.118228 157.299964 
L 173.17682 157.313422 
L 181.47552 157.220253 
L 181.861506 156.929887 
L 182.183161 156.383708 
L 182.504816 155.385469 
L 182.890802 153.335456 
L 183.276788 150.06499 
L 183.791436 143.464176 
L 184.499077 130.890506 
L 186.300345 97.580659 
L 187.200979 86.860245 
L 188.037282 79.719905 
L 188.873586 74.29079 
L 189.581227 71.014218 
L 190.41753 68.408258 
L 191.125171 66.493591 
L 192.218798 64.564951 
L 192.862108 63.688871 
L 193.891404 62.438771 
L 194.341721 61.794052 
L 195.049362 61.389941 
L 195.692672 61.289751 
L 196.20732 61.030629 
L 196.721968 60.995409 
L 197.300948 60.571974 
L 197.686934 60.31559 
L 197.944258 60.419481 
L 198.394575 60.905648 
L 199.423871 62.15127 
L 200.774822 63.480867 
L 201.418132 64.315018 
L 202.125773 64.815316 
L 202.769083 64.974686 
L 204.120034 65.008434 
L 214.73465 65.106163 
L 215.120637 65.366056 
L 215.442292 65.81224 
L 215.763947 66.621409 
L 216.214264 68.459335 
L 216.664581 71.209007 
L 217.24356 76.524659 
L 218.015532 85.84946 
L 219.945462 110.290739 
L 221.039089 120.541805 
L 221.875392 126.421969 
L 222.711695 130.734335 
L 223.547998 133.957742 
L 224.512964 136.635565 
L 225.220605 138.102656 
L 226.249901 139.688151 
L 228.565817 141.856424 
L 230.109761 142.74456 
L 230.495747 143.384743 
L 230.946064 144.699835 
L 231.846698 148.272871 
L 233.454974 154.890661 
L 234.033953 156.201431 
L 234.548601 156.828495 
L 234.998918 157.060768 
L 235.706559 157.142727 
L 236.349869 157.145977 
L 236.349869 157.145977 
" clip-path="url(#p0e790568ba)" style="fill: none; stroke: #ff7f0e; stroke-width: 0.5; stroke-linecap: square"/>
   </g>
   <g id="line2d_16">
    <path d="M 43.356847 17.384116 
L 55.451077 17.293933 
L 56.802028 16.420664 
L 57.123683 16.545698 
L 57.574 17.097372 
L 58.152979 17.828906 
L 58.474634 17.882417 
L 58.731958 17.672186 
L 59.053613 17.05733 
L 59.568261 16.11045 
L 59.761254 16.106821 
L 59.954247 16.350131 
L 60.983543 18.164563 
L 61.240867 18.056769 
L 61.755515 17.439674 
L 62.07717 17.172339 
L 62.398825 17.227737 
L 62.977804 17.594942 
L 63.428121 17.911379 
L 64.135763 17.87302 
L 64.650411 17.706833 
L 65.422383 17.175676 
L 66.130024 16.806265 
L 66.773334 16.886522 
L 67.480975 17.083636 
L 67.931292 17.34438 
L 68.252947 17.253545 
L 68.767595 16.977879 
L 69.08925 17.090684 
L 69.668229 17.280318 
L 70.054215 17.207598 
L 70.568863 16.821816 
L 70.954849 16.584352 
L 71.212173 16.664365 
L 71.598159 17.146635 
L 72.177138 17.807494 
L 72.563125 17.998364 
L 72.88478 17.886544 
L 73.270766 17.496492 
L 73.978407 16.729995 
L 74.300062 16.696253 
L 74.621717 16.901047 
L 75.908337 18.083623 
L 76.229992 17.934262 
L 76.74464 17.34916 
L 77.323619 16.759324 
L 77.645274 16.686147 
L 77.966929 16.825411 
L 78.545908 17.403093 
L 79.189218 17.974488 
L 79.639535 18.084203 
L 80.089852 17.947323 
L 80.861824 17.407054 
L 81.762459 16.836188 
L 82.405769 16.684039 
L 82.984748 16.763816 
L 83.692389 17.094541 
L 85.364995 17.983811 
L 86.008305 18.040826 
L 86.522953 17.882499 
L 88.645876 16.933368 
L 89.160524 17.053698 
L 89.54651 17.16248 
L 91.090455 17.096889 
L 92.377075 17.988534 
L 92.763061 18.2578 
L 93.149047 18.202169 
L 93.663695 18.006196 
L 94.049681 17.962099 
L 95.464963 17.577907 
L 96.944576 17.574953 
L 99.131831 17.642269 
L 100.35412 17.283533 
L 101.061761 17.15635 
L 102.991691 17.127386 
L 103.827994 17.338379 
L 105.243276 17.649139 
L 105.950917 17.581245 
L 108.717151 17.060853 
L 109.617785 17.272395 
L 111.290391 17.72824 
L 111.86937 17.605772 
L 113.477645 17.06121 
L 113.992293 17.286176 
L 114.892927 17.72231 
L 115.343244 17.659576 
L 116.050885 17.251767 
L 116.629864 17.039642 
L 117.080182 17.122106 
L 117.916485 17.607393 
L 118.431133 17.779077 
L 118.88145 17.674817 
L 119.846415 17.315618 
L 120.232401 17.490117 
L 120.940042 17.950435 
L 121.261697 17.861586 
L 121.969338 17.175958 
L 122.483986 16.827156 
L 122.934303 16.822545 
L 123.255958 17.136655 
L 124.02793 17.936477 
L 124.606909 18.128047 
L 125.121557 18.06286 
L 126.086523 17.291347 
L 126.53684 17.078335 
L 126.922826 17.136478 
L 127.759129 17.555441 
L 128.724094 17.497239 
L 129.238742 17.716619 
L 129.624728 17.674545 
L 129.946383 17.446848 
L 130.589693 16.803036 
L 131.04001 16.772554 
L 131.554658 17.12078 
L 132.069306 17.502537 
L 132.519623 17.793055 
L 132.776947 17.700347 
L 133.355926 17.113476 
L 134.127898 16.263809 
L 134.320891 16.312174 
L 134.642546 16.714904 
L 135.350188 17.583244 
L 135.864836 17.896723 
L 136.186491 17.869327 
L 136.701139 17.551834 
L 137.601773 16.977683 
L 137.987759 17.036916 
L 138.502407 17.400307 
L 139.145717 17.807836 
L 139.531703 17.798423 
L 139.98202 17.534296 
L 140.882654 16.949014 
L 141.26864 16.985169 
L 141.783288 17.306322 
L 142.55526 17.792095 
L 143.005577 17.812215 
L 143.584556 17.562425 
L 144.742515 16.986145 
L 145.385825 16.949648 
L 146.157797 17.152792 
L 148.216389 17.825121 
L 148.988361 17.769112 
L 150.339312 17.339212 
L 151.239946 17.006455 
L 151.947587 17.014494 
L 153.491532 17.242944 
L 154.327835 17.561431 
L 155.93611 17.358326 
L 156.836744 17.005418 
L 158.316357 16.734737 
L 158.766674 17.026944 
L 159.281322 17.235755 
L 162.369211 17.513936 
L 163.334176 17.196487 
L 163.5915 17.169076 
L 164.620796 17.458743 
L 165.071113 17.327192 
L 165.714423 17.134546 
L 166.743719 17.043652 
L 167.258367 17.056584 
L 169.123966 17.735495 
L 170.0246 17.800841 
L 170.796573 17.615266 
L 172.983827 16.934842 
L 173.691468 17.017707 
L 174.527771 17.352745 
L 175.685729 17.824029 
L 176.200377 17.776487 
L 176.779356 17.460106 
L 177.67999 16.945572 
L 178.065976 16.980061 
L 178.580624 17.305126 
L 179.352597 17.812279 
L 179.738583 17.797897 
L 180.1889 17.528071 
L 181.025203 16.9581 
L 181.411189 16.962545 
L 181.861506 17.241056 
L 182.697809 17.837641 
L 183.083795 17.772397 
L 183.920098 17.225504 
L 184.306084 17.068638 
L 184.69207 17.176693 
L 185.206718 17.646942 
L 185.914359 18.228336 
L 186.171683 18.268193 
L 186.493338 18.039271 
L 187.200979 17.432318 
L 187.458303 17.467695 
L 188.358938 17.903084 
L 188.744924 17.64954 
L 189.13091 17.478637 
L 189.77422 17.575744 
L 190.41753 17.538578 
L 190.996509 17.497425 
L 191.575488 17.714941 
L 191.897143 17.503904 
L 192.540453 17.02756 
L 193.055101 17.024178 
L 193.569749 17.196399 
L 194.213059 17.692361 
L 194.599045 17.532486 
L 194.985031 17.504516 
L 195.949996 17.556809 
L 196.593306 17.384465 
L 197.42961 17.353087 
L 198.265913 17.212368 
L 198.71623 17.389014 
L 199.681195 17.9666 
L 200.00285 17.885259 
L 200.388836 17.491967 
L 200.903484 17.015129 
L 201.225139 16.970821 
L 201.611125 17.170848 
L 202.704752 17.973347 
L 203.026407 17.906424 
L 203.476724 17.538025 
L 204.248696 16.848899 
L 204.570351 16.815194 
L 204.956337 17.032366 
L 206.114296 17.961228 
L 206.500282 17.875631 
L 207.01493 17.47113 
L 207.786902 16.883545 
L 208.237219 16.806442 
L 208.751867 16.967199 
L 210.87479 17.961416 
L 211.5181 17.894602 
L 212.354403 17.552338 
L 213.898347 16.857196 
L 214.670319 16.836686 
L 215.184968 16.978815 
L 216.407257 17.793482 
L 216.921905 18.054464 
L 218.401518 18.163838 
L 218.980497 18.182982 
L 219.945462 18.620433 
L 220.46011 18.682744 
L 221.167751 18.451801 
L 221.553737 18.166253 
L 222.39004 17.355769 
L 222.776026 17.316799 
L 223.226343 17.304205 
L 223.740992 17.185478 
L 224.577295 17.594633 
L 225.220605 17.759116 
L 226.571556 17.672276 
L 227.150535 17.396455 
L 227.793845 17.403134 
L 229.080465 17.467726 
L 229.530782 17.605785 
L 230.109761 17.842733 
L 230.560078 18.034958 
L 232.683002 17.867523 
L 233.647967 17.568767 
L 234.805925 17.103067 
L 235.642228 17.031425 
L 236.349869 17.13594 
L 236.349869 17.13594 
" clip-path="url(#p0e790568ba)" style="fill: none; stroke: #2ca02c; stroke-width: 0.5; stroke-linecap: square"/>
   </g>
   <g id="line2d_17">
    <path d="M 43.356847 17.384116 
L 55.065091 17.479293 
L 55.772732 17.848612 
L 56.223049 17.759581 
L 56.673366 17.446953 
L 57.123683 16.823454 
L 57.509669 16.435373 
L 57.766993 16.468116 
L 58.024317 16.848417 
L 59.053613 18.720399 
L 59.246606 18.528199 
L 59.568261 17.604089 
L 60.082909 16.180582 
L 60.275902 16.125134 
L 60.533226 16.448651 
L 61.562522 18.137043 
L 61.755515 18.071197 
L 62.141501 17.553519 
L 62.591818 17.12235 
L 62.977804 17.003644 
L 63.299459 17.129831 
L 63.94277 17.486157 
L 65.293721 17.596431 
L 65.808369 17.730409 
L 66.130024 17.453713 
L 66.51601 17.187324 
L 66.837665 17.181854 
L 67.287982 17.284056 
L 67.80263 17.201879 
L 68.124285 17.492354 
L 68.44594 17.688253 
L 68.703264 17.527328 
L 69.217912 17.149445 
L 69.539567 17.211153 
L 69.925553 17.606513 
L 70.311539 17.904793 
L 70.568863 17.860527 
L 70.826187 17.580822 
L 71.598159 16.556563 
L 71.855483 16.548055 
L 72.177138 16.834034 
L 73.270766 18.060439 
L 73.592421 18.014667 
L 73.978407 17.652448 
L 74.81471 16.738058 
L 75.136365 16.696968 
L 75.45802 16.895948 
L 76.165661 17.750132 
L 76.615978 18.073117 
L 76.937633 18.029153 
L 77.323619 17.702453 
L 78.288584 16.734718 
L 78.67457 16.701201 
L 79.060556 16.90234 
L 80.733162 18.07462 
L 81.24781 18.035698 
L 81.891121 17.749662 
L 83.821051 16.715458 
L 84.464361 16.713197 
L 85.107671 16.954021 
L 86.008305 17.540878 
L 86.908939 18.119975 
L 87.294925 18.116441 
L 87.873904 18.022563 
L 88.324221 17.910608 
L 88.838869 17.695327 
L 89.739503 17.434613 
L 90.7688 16.845568 
L 91.733765 16.759581 
L 92.891723 16.98409 
L 93.535033 17.252597 
L 94.049681 17.459517 
L 95.400632 17.95837 
L 96.108273 17.717132 
L 97.137569 17.179392 
L 97.652217 17.296309 
L 99.067499 17.838081 
L 99.968134 17.648668 
L 100.482782 17.551953 
L 101.833733 17.375649 
L 102.219719 17.348057 
L 102.863029 17.31752 
L 104.085318 17.107325 
L 104.728628 17.264762 
L 105.757924 17.624129 
L 106.722889 17.729343 
L 107.623523 17.598241 
L 110.132433 17.047601 
L 110.840074 17.211867 
L 112.448349 17.722613 
L 112.962997 17.559551 
L 114.185286 17.040139 
L 114.635603 17.169132 
L 115.922223 17.724809 
L 116.37254 17.572468 
L 117.530499 17.023445 
L 117.980816 17.120559 
L 119.396098 17.706113 
L 119.653422 17.534428 
L 120.232401 17.062213 
L 120.682718 17.095589 
L 121.004373 17.390454 
L 121.519021 17.969135 
L 121.776345 17.894902 
L 123.062965 16.878783 
L 123.448951 16.545306 
L 123.706275 16.65356 
L 125.378881 17.818005 
L 125.829199 17.91861 
L 126.150854 17.728414 
L 126.729833 17.357581 
L 127.18015 17.28349 
L 127.501805 17.439337 
L 127.887791 17.612859 
L 128.145115 17.493594 
L 128.724094 17.086347 
L 129.174411 17.233538 
L 129.496066 17.512889 
L 129.946383 17.895472 
L 130.268038 17.951089 
L 130.525362 17.729316 
L 131.168672 17.071165 
L 131.68332 16.914345 
L 132.004975 16.982901 
L 132.390961 17.298942 
L 132.96994 17.83632 
L 133.741912 17.761714 
L 133.999236 17.580195 
L 134.642546 16.892369 
L 135.221526 16.775834 
L 135.543181 16.901241 
L 136.958463 17.904657 
L 137.344449 17.708869 
L 138.438076 16.933604 
L 138.824062 17.022378 
L 139.403041 17.450425 
L 139.98202 17.805867 
L 140.368006 17.800271 
L 140.818323 17.54042 
L 141.718957 16.954954 
L 142.104943 16.969571 
L 142.619591 17.243765 
L 143.584556 17.794766 
L 144.099205 17.812415 
L 144.742515 17.589167 
L 146.286459 16.974994 
L 147.058431 16.958151 
L 147.894734 17.178328 
L 149.888995 17.811261 
L 150.789629 17.71411 
L 151.49727 17.378123 
L 152.333573 16.994544 
L 154.070511 16.783456 
L 155.035476 17.460923 
L 155.550124 17.684974 
L 156.257765 17.752581 
L 156.708082 17.575325 
L 157.544385 17.247196 
L 159.538646 16.914509 
L 160.117625 17.183188 
L 160.889597 17.646363 
L 162.755197 17.468218 
L 163.398507 17.308748 
L 164.041817 17.402033 
L 165.457099 17.292779 
L 166.100409 17.184688 
L 167.194036 16.962322 
L 167.901677 16.991308 
L 168.609318 17.01555 
L 169.38129 17.266473 
L 170.860904 17.786935 
L 171.632876 17.821377 
L 172.469179 17.619355 
L 174.656433 16.935138 
L 175.235412 17.060316 
L 176.007384 17.488021 
L 176.715025 17.817845 
L 177.165342 17.787392 
L 177.67999 17.48616 
L 178.516293 16.953258 
L 178.902279 16.972672 
L 179.352597 17.244794 
L 180.1889 17.810747 
L 180.574886 17.79993 
L 181.025203 17.529863 
L 181.990168 16.877426 
L 182.311823 16.942565 
L 182.697809 17.279833 
L 183.341119 17.828136 
L 183.662774 17.859326 
L 184.113091 17.634004 
L 185.206718 16.8602 
L 185.528373 16.85545 
L 185.785697 17.059118 
L 186.557669 17.96267 
L 186.814993 17.781489 
L 187.651296 16.93555 
L 187.90862 17.068184 
L 188.551931 17.552761 
L 188.873586 17.50954 
L 189.709889 17.276196 
L 190.095875 17.454804 
L 190.41753 17.492564 
L 190.739185 17.3286 
L 191.189502 17.064757 
L 191.382495 17.170252 
L 192.090136 17.822445 
L 192.476122 17.611216 
L 193.312425 17.016819 
L 193.891404 16.980306 
L 194.27739 17.48564 
L 194.534714 17.721559 
L 194.792038 17.666529 
L 195.371017 17.435155 
L 196.014327 17.489119 
L 196.657637 17.216326 
L 197.815596 17.603445 
L 198.07292 17.479879 
L 198.71623 17.093028 
L 199.037885 17.01395 
L 199.488202 17.189764 
L 200.453167 17.93352 
L 200.774822 17.759618 
L 201.93278 16.855057 
L 202.254435 16.950199 
L 202.769083 17.395045 
L 203.412393 17.923929 
L 203.734048 17.952057 
L 204.120034 17.730117 
L 205.277992 16.804322 
L 205.599647 16.884499 
L 206.049965 17.254593 
L 206.821937 17.902645 
L 207.207923 17.95749 
L 207.65824 17.767371 
L 209.266515 16.813722 
L 209.845494 16.859541 
L 210.617466 17.182619 
L 212.225741 17.91577 
L 212.933382 17.948432 
L 213.641023 17.756543 
L 214.73465 17.160197 
L 215.570954 16.819853 
L 216.535919 16.832576 
L 217.372222 17.125142 
L 218.53018 17.082261 
L 219.17349 17.032149 
L 220.267117 17.474567 
L 221.618068 18.405931 
L 222.068385 18.343082 
L 222.518702 18.021834 
L 223.869654 17.044216 
L 224.319971 16.984253 
L 225.413598 17.019403 
L 227.665183 17.944666 
L 228.951803 17.22421 
L 229.530782 16.877555 
L 230.109761 17.016545 
L 231.074726 17.323093 
L 231.911029 17.702984 
L 232.425677 17.788409 
L 233.647967 17.784625 
L 235.642228 17.334483 
L 236.349869 17.128908 
L 236.349869 17.128908 
" clip-path="url(#p0e790568ba)" style="fill: none; stroke: #d62728; stroke-width: 0.5; stroke-linecap: square"/>
   </g>
   <g id="patch_3">
    <path d="M 33.707196 202.559296 
L 33.707196 7.2 
" style="fill: none; stroke: #000000; stroke-width: 0.8; stroke-linejoin: miter; stroke-linecap: square"/>
   </g>
   <g id="patch_4">
    <path d="M 245.99952 202.559296 
L 245.99952 7.2 
" style="fill: none; stroke: #000000; stroke-width: 0.8; stroke-linejoin: miter; stroke-linecap: square"/>
   </g>
   <g id="patch_5">
    <path d="M 33.707196 202.559296 
L 245.99952 202.559296 
" style="fill: none; stroke: #000000; stroke-width: 0.8; stroke-linejoin: miter; stroke-linecap: square"/>
   </g>
   <g id="patch_6">
    <path d="M 33.707196 7.2 
L 245.99952 7.2 
" style="fill: none; stroke: #000000; stroke-width: 0.8; stroke-linejoin: miter; stroke-linecap: square"/>
   </g>
   <g id="legend_1">
    <g id="patch_7">
     <path d="M 40.007196 126.429212 
L 85.914112 126.429212 
Q 87.714112 126.429212 87.714112 124.629212 
L 87.714112 85.130084 
Q 87.714112 83.330084 85.914112 83.330084 
L 40.007196 83.330084 
Q 38.207196 83.330084 38.207196 85.130084 
L 38.207196 124.629212 
Q 38.207196 126.429212 40.007196 126.429212 
z
" style="fill: #ffffff; opacity: 0.8; stroke: #cccccc; stroke-width: 0.24; stroke-linejoin: miter"/>
    </g>
    <g id="line2d_18">
     <path d="M 41.807196 90.504866 
L 50.807196 90.504866 
L 59.807196 90.504866 
" style="fill: none; stroke: #ff7f0e; stroke-width: 0.5; stroke-linecap: square"/>
    </g>
    <g id="text_16">
     <!-- $\langle \sigma_z\rangle$ -->
     <g transform="translate(67.007196 93.654866) scale(0.09 -0.09)">
      <defs>
       <path id="CMSY10-68" d="M 2099 4557 
C 2131 4627 2131 4640 2131 4672 
C 2131 4742 2074 4800 2003 4800 
C 1946 4800 1901 4768 1856 4653 
L 736 1715 
C 723 1677 704 1638 704 1600 
C 704 1581 704 1568 736 1491 
L 1856 -1446 
C 1882 -1517 1914 -1600 2003 -1600 
C 2074 -1600 2131 -1542 2131 -1472 
C 2131 -1453 2131 -1440 2099 -1370 
L 966 1600 
L 2099 4557 
z
" transform="scale(0.015625)"/>
       <path id="CMMI12-1b" d="M 3251 2408 
C 3334 2408 3546 2408 3546 2612 
C 3546 2752 3424 2752 3309 2752 
L 1894 2752 
C 934 2752 243 1686 243 932 
C 243 390 595 -64 1171 -64 
C 1926 -64 2752 747 2752 1705 
C 2752 1954 2694 2196 2541 2408 
L 3251 2408 
z
M 1178 64 
C 851 64 614 313 614 754 
C 614 1137 845 2408 1786 2408 
C 2061 2408 2368 2274 2368 1781 
C 2368 1558 2266 1021 2042 652 
C 1811 275 1466 64 1178 64 
z
" transform="scale(0.015625)"/>
       <path id="CMMI12-7a" d="M 813 486 
C 1088 803 1312 1004 1632 1296 
C 2016 1632 2182 1793 2272 1891 
C 2720 2338 2944 2713 2944 2764 
C 2944 2816 2893 2816 2880 2816 
C 2835 2816 2822 2793 2790 2750 
C 2630 2494 2477 2367 2310 2367 
C 2176 2367 2106 2421 1984 2565 
C 1850 2715 1741 2816 1555 2816 
C 1088 2816 806 2257 806 2128 
C 806 2108 813 2068 870 2068 
C 922 2068 928 2091 947 2133 
C 1056 2372 1363 2414 1485 2414 
C 1619 2414 1747 2376 1882 2327 
C 2125 2240 2227 2240 2291 2240 
C 2336 2240 2362 2240 2394 2246 
C 2182 1994 1837 1683 1549 1418 
L 902 816 
C 512 415 275 33 275 -12 
C 275 -51 307 -64 346 -64 
C 384 -64 390 -57 435 14 
C 538 163 742 384 979 384 
C 1114 384 1178 342 1306 193 
C 1427 61 1536 -64 1741 -64 
C 2368 -64 2726 732 2726 876 
C 2726 903 2720 942 2656 942 
C 2605 942 2598 917 2579 855 
C 2438 488 2061 338 1811 338 
C 1677 338 1549 376 1414 425 
C 1158 512 1088 512 1005 512 
C 941 512 870 512 813 486 
z
" transform="scale(0.015625)"/>
       <path id="CMSY10-69" d="M 1747 1491 
C 1779 1568 1779 1581 1779 1600 
C 1779 1619 1779 1632 1747 1709 
L 627 4653 
C 589 4762 550 4800 480 4800 
C 410 4800 352 4742 352 4672 
C 352 4653 352 4640 384 4570 
L 1517 1600 
L 384 -1357 
C 352 -1427 352 -1440 352 -1472 
C 352 -1542 410 -1600 480 -1600 
C 563 -1600 589 -1536 614 -1472 
L 1747 1491 
z
" transform="scale(0.015625)"/>
      </defs>
      <use xlink:href="#CMSY10-68" transform="scale(0.996264)"/>
      <use xlink:href="#CMMI12-1b" transform="translate(38.743734 0) scale(0.996264)"/>
      <use xlink:href="#CMMI12-7a" transform="translate(94.189195 -14.943915) scale(0.697382)"/>
      <use xlink:href="#CMSY10-69" transform="translate(129.51575 0) scale(0.996264)"/>
     </g>
    </g>
    <g id="line2d_19">
     <path d="M 41.807196 103.971242 
L 50.807196 103.971242 
L 59.807196 103.971242 
" style="fill: none; stroke: #2ca02c; stroke-width: 0.5; stroke-linecap: square"/>
    </g>
    <g id="text_17">
     <!-- $\langle \sigma_x\rangle$ -->
     <g transform="translate(67.007196 107.121242) scale(0.09 -0.09)">
      <defs>
       <path id="CMMI12-78" d="M 3034 2606 
C 2829 2567 2752 2414 2752 2293 
C 2752 2139 2874 2088 2963 2088 
C 3155 2088 3290 2254 3290 2427 
C 3290 2695 2982 2816 2714 2816 
C 2323 2816 2106 2433 2048 2312 
C 1901 2816 1504 2816 1389 2816 
C 736 2816 390 1980 390 1839 
C 390 1814 416 1782 461 1782 
C 512 1782 525 1820 538 1846 
C 755 2555 1184 2689 1370 2689 
C 1658 2689 1715 2420 1715 2267 
C 1715 2127 1677 1980 1600 1673 
L 1382 798 
C 1286 415 1101 64 762 64 
C 730 64 570 64 435 147 
C 666 192 717 383 717 460 
C 717 588 621 664 499 664 
C 346 664 179 530 179 326 
C 179 57 480 -64 755 -64 
C 1062 -64 1280 179 1414 441 
C 1517 64 1837 -64 2074 -64 
C 2726 -64 3072 773 3072 913 
C 3072 945 3046 971 3008 971 
C 2950 971 2944 939 2925 888 
C 2752 326 2381 64 2093 64 
C 1869 64 1747 230 1747 492 
C 1747 632 1773 734 1875 1156 
L 2099 2024 
C 2195 2408 2413 2689 2707 2689 
C 2720 2689 2899 2689 3034 2606 
z
" transform="scale(0.015625)"/>
      </defs>
      <use xlink:href="#CMSY10-68" transform="scale(0.996264)"/>
      <use xlink:href="#CMMI12-1b" transform="translate(38.743734 0) scale(0.996264)"/>
      <use xlink:href="#CMMI12-78" transform="translate(94.189195 -14.943915) scale(0.697382)"/>
      <use xlink:href="#CMSY10-69" transform="translate(133.490986 0) scale(0.996264)"/>
     </g>
    </g>
    <g id="line2d_20">
     <path d="M 41.807196 117.437618 
L 50.807196 117.437618 
L 59.807196 117.437618 
" style="fill: none; stroke: #d62728; stroke-width: 0.5; stroke-linecap: square"/>
    </g>
    <g id="text_18">
     <!-- $\langle \sigma_y\rangle$ -->
     <g transform="translate(67.007196 120.587618) scale(0.09 -0.09)">
      <defs>
       <path id="CMMI12-79" d="M 1683 -700 
C 1510 -939 1261 -1152 947 -1152 
C 870 -1152 563 -1152 467 -889 
C 486 -895 518 -895 531 -895 
C 723 -895 851 -729 851 -582 
C 851 -435 730 -384 634 -384 
C 531 -384 307 -458 307 -759 
C 307 -1071 582 -1286 947 -1286 
C 1587 -1286 2234 -700 2413 6 
L 3040 2485 
C 3046 2517 3059 2556 3059 2594 
C 3059 2689 2982 2753 2886 2753 
C 2829 2753 2694 2727 2643 2535 
L 2170 658 
C 2138 543 2138 530 2086 460 
C 1958 281 1747 64 1440 64 
C 1082 64 1050 415 1050 588 
C 1050 952 1222 1443 1395 1903 
C 1466 2088 1504 2178 1504 2305 
C 1504 2574 1312 2816 998 2816 
C 410 2816 173 1890 173 1839 
C 173 1814 198 1782 243 1782 
C 301 1782 307 1807 333 1897 
C 486 2433 730 2689 979 2689 
C 1037 2689 1146 2689 1146 2478 
C 1146 2312 1075 2127 979 1884 
C 666 1047 666 837 666 683 
C 666 77 1101 -64 1421 -64 
C 1606 -64 1837 -6 2061 230 
L 2067 224 
C 1971 -147 1907 -392 1683 -700 
z
" transform="scale(0.015625)"/>
      </defs>
      <use xlink:href="#CMSY10-68" transform="scale(0.996264)"/>
      <use xlink:href="#CMMI12-1b" transform="translate(38.743734 0) scale(0.996264)"/>
      <use xlink:href="#CMMI12-79" transform="translate(94.189195 -14.943915) scale(0.697382)"/>
      <use xlink:href="#CMSY10-69" transform="translate(130.484301 0) scale(0.996264)"/>
     </g>
    </g>
   </g>
  </g>
 </g>
 <defs>
  <clipPath id="p0e790568ba">
   <rect x="33.707196" y="7.2" width="212.292324" height="195.359296"/>
  </clipPath>
 </defs>
</svg>
