<?xml version="1.0" encoding="utf-8" standalone="no"?>
<!DOCTYPE svg PUBLIC "-//W3C//DTD SVG 1.1//EN"
  "http://www.w3.org/Graphics/SVG/1.1/DTD/svg11.dtd">
<svg xmlns:xlink="http://www.w3.org/1999/xlink" width="253.19952pt" height="238.79952pt" viewBox="0 0 253.19952 238.79952" xmlns="http://www.w3.org/2000/svg" version="1.1">
 <metadata>
  <rdf:RDF xmlns:dc="http://purl.org/dc/elements/1.1/" xmlns:cc="http://creativecommons.org/ns#" xmlns:rdf="http://www.w3.org/1999/02/22-rdf-syntax-ns#">
   <cc:Work>
    <dc:type rdf:resource="http://purl.org/dc/dcmitype/StillImage"/>
    <dc:date>1980-01-01T00:00:00+00:00</dc:date>
    <dc:format>image/svg+xml</dc:format>
    <dc:creator>
     <cc:Agent>
      <dc:title>Matplotlib v3.6.2, https://matplotlib.org/</dc:title>
     </cc:Agent>
    </dc:creator>
   </cc:Work>
  </rdf:RDF>
 </metadata>
 <defs>
  <style type="text/css">*{stroke-linejoin: round; stroke-linecap: butt}</style>
 </defs>
 <g id="figure_1">
  <g id="patch_1">
   <path d="M 0 238.79952 
L 253.19952 238.79952 
L 253.19952 0 
L 0 0 
z
" style="fill: #ffffff"/>
  </g>
  <g id="axes_1">
   <g id="patch_2">
    <path d="M 33.707196 202.559296 
L 245.99952 202.559296 
L 245.99952 7.2 
L 33.707196 7.2 
z
" style="fill: #ffffff"/>
   </g>
   <g id="matplotlib.axis_1">
    <g id="xtick_1">
     <g id="line2d_1">
      <defs>
       <path id="m8b8a10b2b3" d="M 0 0 
L 0 3.5 
" style="stroke: #000000; stroke-width: 0.8"/>
      </defs>
      <g>
       <use xlink:href="#m8b8a10b2b3" x="43.356847" y="202.559296" style="stroke: #000000; stroke-width: 0.8"/>
      </g>
     </g>
     <g id="text_1">
      <!-- $\mathdefault{0}$ -->
      <g transform="translate(41.239756 217.194098) scale(0.08 -0.08)">
       <defs>
        <path id="CMR17-30" d="M 2688 2025 
C 2688 2416 2682 3080 2413 3591 
C 2176 4039 1798 4198 1466 4198 
C 1158 4198 768 4058 525 3597 
C 269 3118 243 2524 243 2025 
C 243 1661 250 1106 448 619 
C 723 -39 1216 -128 1466 -128 
C 1760 -128 2208 -7 2470 600 
C 2662 1042 2688 1559 2688 2025 
z
M 1466 -26 
C 1056 -26 813 325 723 812 
C 653 1188 653 1738 653 2096 
C 653 2588 653 2997 736 3387 
C 858 3929 1216 4096 1466 4096 
C 1728 4096 2067 3923 2189 3400 
C 2272 3036 2278 2607 2278 2096 
C 2278 1680 2278 1169 2202 792 
C 2067 95 1690 -26 1466 -26 
z
" transform="scale(0.015625)"/>
       </defs>
       <use xlink:href="#CMR17-30" transform="scale(0.996264)"/>
      </g>
     </g>
    </g>
    <g id="xtick_2">
     <g id="line2d_2">
      <g>
       <use xlink:href="#m8b8a10b2b3" x="70.161434" y="202.559296" style="stroke: #000000; stroke-width: 0.8"/>
      </g>
     </g>
     <g id="text_2">
      <!-- $\mathdefault{25}$ -->
      <g transform="translate(65.927251 217.194098) scale(0.08 -0.08)">
       <defs>
        <path id="CMR17-32" d="M 2669 989 
L 2554 989 
C 2490 536 2438 459 2413 420 
C 2381 369 1920 369 1830 369 
L 602 369 
C 832 619 1280 1072 1824 1597 
C 2214 1967 2669 2402 2669 3035 
C 2669 3790 2067 4224 1395 4224 
C 691 4224 262 3604 262 3030 
C 262 2780 448 2748 525 2748 
C 589 2748 781 2787 781 3010 
C 781 3207 614 3264 525 3264 
C 486 3264 448 3258 422 3245 
C 544 3790 915 4058 1306 4058 
C 1862 4058 2227 3617 2227 3035 
C 2227 2479 1901 2000 1536 1584 
L 262 146 
L 262 0 
L 2515 0 
L 2669 989 
z
" transform="scale(0.015625)"/>
        <path id="CMR17-35" d="M 730 3692 
C 794 3666 1056 3584 1325 3584 
C 1920 3584 2246 3911 2432 4100 
C 2432 4157 2432 4192 2394 4192 
C 2387 4192 2374 4192 2323 4163 
C 2099 4058 1837 3973 1517 3973 
C 1325 3973 1037 3999 723 4139 
C 653 4171 640 4171 634 4171 
C 602 4171 595 4164 595 4037 
L 595 2203 
C 595 2089 595 2057 659 2057 
C 691 2057 704 2070 736 2114 
C 941 2401 1222 2522 1542 2522 
C 1766 2522 2246 2382 2246 1289 
C 2246 1085 2246 715 2054 421 
C 1894 159 1645 25 1370 25 
C 947 25 518 320 403 814 
C 429 807 480 795 506 795 
C 589 795 749 840 749 1038 
C 749 1210 627 1280 506 1280 
C 358 1280 262 1190 262 1011 
C 262 454 704 -128 1382 -128 
C 2042 -128 2669 440 2669 1264 
C 2669 2030 2170 2624 1549 2624 
C 1222 2624 947 2503 730 2274 
L 730 3692 
z
" transform="scale(0.015625)"/>
       </defs>
       <use xlink:href="#CMR17-32" transform="scale(0.996264)"/>
       <use xlink:href="#CMR17-35" transform="translate(45.690477 0) scale(0.996264)"/>
      </g>
     </g>
    </g>
    <g id="xtick_3">
     <g id="line2d_3">
      <g>
       <use xlink:href="#m8b8a10b2b3" x="96.96602" y="202.559296" style="stroke: #000000; stroke-width: 0.8"/>
      </g>
     </g>
     <g id="text_3">
      <!-- $\mathdefault{50}$ -->
      <g transform="translate(92.731837 217.194098) scale(0.08 -0.08)">
       <use xlink:href="#CMR17-35" transform="scale(0.996264)"/>
       <use xlink:href="#CMR17-30" transform="translate(45.690477 0) scale(0.996264)"/>
      </g>
     </g>
    </g>
    <g id="xtick_4">
     <g id="line2d_4">
      <g>
       <use xlink:href="#m8b8a10b2b3" x="123.770606" y="202.559296" style="stroke: #000000; stroke-width: 0.8"/>
      </g>
     </g>
     <g id="text_4">
      <!-- $\mathdefault{75}$ -->
      <g transform="translate(119.536423 217.194098) scale(0.08 -0.08)">
       <defs>
        <path id="CMR17-37" d="M 2886 3941 
L 2886 4081 
L 1382 4081 
C 634 4081 621 4165 595 4288 
L 480 4288 
L 294 3094 
L 410 3094 
C 429 3215 474 3540 550 3661 
C 589 3712 1062 3712 1171 3712 
L 2579 3712 
L 1869 2661 
C 1395 1954 1069 999 1069 165 
C 1069 89 1069 -128 1299 -128 
C 1530 -128 1530 89 1530 171 
L 1530 465 
C 1530 1508 1709 2196 2003 2636 
L 2886 3941 
z
" transform="scale(0.015625)"/>
       </defs>
       <use xlink:href="#CMR17-37" transform="scale(0.996264)"/>
       <use xlink:href="#CMR17-35" transform="translate(45.690477 0) scale(0.996264)"/>
      </g>
     </g>
    </g>
    <g id="xtick_5">
     <g id="line2d_5">
      <g>
       <use xlink:href="#m8b8a10b2b3" x="150.575193" y="202.559296" style="stroke: #000000; stroke-width: 0.8"/>
      </g>
     </g>
     <g id="text_5">
      <!-- $\mathdefault{100}$ -->
      <g transform="translate(144.223918 217.194098) scale(0.08 -0.08)">
       <defs>
        <path id="CMR17-31" d="M 1702 4058 
C 1702 4192 1696 4192 1606 4192 
C 1357 3916 979 3827 621 3827 
C 602 3827 570 3827 563 3808 
C 557 3795 557 3782 557 3648 
C 755 3648 1088 3686 1344 3839 
L 1344 461 
C 1344 236 1331 160 781 160 
L 589 160 
L 589 0 
C 896 0 1216 0 1523 0 
C 1830 0 2150 0 2458 0 
L 2458 160 
L 2266 160 
C 1715 160 1702 230 1702 458 
L 1702 4058 
z
" transform="scale(0.015625)"/>
       </defs>
       <use xlink:href="#CMR17-31" transform="scale(0.996264)"/>
       <use xlink:href="#CMR17-30" transform="translate(45.690477 0) scale(0.996264)"/>
       <use xlink:href="#CMR17-30" transform="translate(91.380954 0) scale(0.996264)"/>
      </g>
     </g>
    </g>
    <g id="xtick_6">
     <g id="line2d_6">
      <g>
       <use xlink:href="#m8b8a10b2b3" x="177.379779" y="202.559296" style="stroke: #000000; stroke-width: 0.8"/>
      </g>
     </g>
     <g id="text_6">
      <!-- $\mathdefault{125}$ -->
      <g transform="translate(171.028505 217.194098) scale(0.08 -0.08)">
       <use xlink:href="#CMR17-31" transform="scale(0.996264)"/>
       <use xlink:href="#CMR17-32" transform="translate(45.690477 0) scale(0.996264)"/>
       <use xlink:href="#CMR17-35" transform="translate(91.380954 0) scale(0.996264)"/>
      </g>
     </g>
    </g>
    <g id="xtick_7">
     <g id="line2d_7">
      <g>
       <use xlink:href="#m8b8a10b2b3" x="204.184365" y="202.559296" style="stroke: #000000; stroke-width: 0.8"/>
      </g>
     </g>
     <g id="text_7">
      <!-- $\mathdefault{150}$ -->
      <g transform="translate(197.833091 217.194098) scale(0.08 -0.08)">
       <use xlink:href="#CMR17-31" transform="scale(0.996264)"/>
       <use xlink:href="#CMR17-35" transform="translate(45.690477 0) scale(0.996264)"/>
       <use xlink:href="#CMR17-30" transform="translate(91.380954 0) scale(0.996264)"/>
      </g>
     </g>
    </g>
    <g id="xtick_8">
     <g id="line2d_8">
      <g>
       <use xlink:href="#m8b8a10b2b3" x="230.988952" y="202.559296" style="stroke: #000000; stroke-width: 0.8"/>
      </g>
     </g>
     <g id="text_8">
      <!-- $\mathdefault{175}$ -->
      <g transform="translate(224.637677 217.194098) scale(0.08 -0.08)">
       <use xlink:href="#CMR17-31" transform="scale(0.996264)"/>
       <use xlink:href="#CMR17-37" transform="translate(45.690477 0) scale(0.996264)"/>
       <use xlink:href="#CMR17-35" transform="translate(91.380954 0) scale(0.996264)"/>
      </g>
     </g>
    </g>
    <g id="text_9">
     <!-- $\tau$ -->
     <g transform="translate(137.675756 229.662342) scale(0.1 -0.1)">
      <defs>
       <path id="CMMI12-1c" d="M 1837 2408 
L 2899 2408 
C 2982 2408 3194 2408 3194 2612 
C 3194 2752 3072 2752 2957 2752 
L 1197 2752 
C 1050 2752 832 2752 538 2440 
C 371 2255 166 1917 166 1879 
C 166 1841 198 1828 237 1828 
C 282 1828 288 1847 320 1885 
C 653 2408 986 2408 1146 2408 
L 1677 2408 
L 1011 223 
C 979 127 979 114 979 95 
C 979 25 1024 -64 1152 -64 
C 1350 -64 1382 108 1402 203 
L 1837 2408 
z
" transform="scale(0.015625)"/>
      </defs>
      <use xlink:href="#CMMI12-1c" transform="scale(0.996264)"/>
     </g>
    </g>
   </g>
   <g id="matplotlib.axis_2">
    <g id="ytick_1">
     <g id="line2d_9">
      <defs>
       <path id="ma8f93cb6c5" d="M 0 0 
L -3.5 0 
" style="stroke: #000000; stroke-width: 0.8"/>
      </defs>
      <g>
       <use xlink:href="#ma8f93cb6c5" x="33.707196" y="193.679328" style="stroke: #000000; stroke-width: 0.8"/>
      </g>
     </g>
     <g id="text_10">
      <!-- $\mathdefault{−1.0}$ -->
      <g transform="translate(7.2 196.446729) scale(0.08 -0.08)">
       <defs>
        <path id="CMSY10-0" d="M 4218 1472 
C 4326 1472 4442 1472 4442 1600 
C 4442 1728 4326 1728 4218 1728 
L 755 1728 
C 646 1728 531 1728 531 1600 
C 531 1472 646 1472 755 1472 
L 4218 1472 
z
" transform="scale(0.015625)"/>
        <path id="CMMI12-3a" d="M 1178 307 
C 1178 492 1024 619 870 619 
C 685 619 557 466 557 313 
C 557 128 710 0 864 0 
C 1050 0 1178 153 1178 307 
z
" transform="scale(0.015625)"/>
       </defs>
       <use xlink:href="#CMSY10-0" transform="scale(0.996264)"/>
       <use xlink:href="#CMR17-31" transform="translate(77.487468 0) scale(0.996264)"/>
       <use xlink:href="#CMMI12-3a" transform="translate(123.177945 0) scale(0.996264)"/>
       <use xlink:href="#CMR17-30" transform="translate(150.275122 0) scale(0.996264)"/>
      </g>
     </g>
    </g>
    <g id="ytick_2">
     <g id="line2d_10">
      <g>
       <use xlink:href="#ma8f93cb6c5" x="33.707196" y="158.344692" style="stroke: #000000; stroke-width: 0.8"/>
      </g>
     </g>
     <g id="text_11">
      <!-- $\mathdefault{−0.8}$ -->
      <g transform="translate(7.2 161.112093) scale(0.08 -0.08)">
       <defs>
        <path id="CMR17-38" d="M 1741 2264 
C 2144 2467 2554 2773 2554 3263 
C 2554 3841 1990 4179 1472 4179 
C 890 4179 378 3759 378 3180 
C 378 3021 416 2747 666 2505 
C 730 2442 998 2251 1171 2130 
C 883 1983 211 1634 211 934 
C 211 279 838 -128 1459 -128 
C 2144 -128 2720 362 2720 1010 
C 2720 1590 2330 1857 2074 2029 
L 1741 2264 
z
M 902 2822 
C 851 2854 595 3051 595 3351 
C 595 3739 998 4032 1459 4032 
C 1965 4032 2336 3676 2336 3262 
C 2336 2669 1670 2331 1638 2331 
C 1632 2331 1626 2331 1574 2370 
L 902 2822 
z
M 2080 1519 
C 2176 1449 2483 1240 2483 851 
C 2483 381 2010 25 1472 25 
C 890 25 448 438 448 940 
C 448 1443 838 1862 1280 2060 
L 2080 1519 
z
" transform="scale(0.015625)"/>
       </defs>
       <use xlink:href="#CMSY10-0" transform="scale(0.996264)"/>
       <use xlink:href="#CMR17-30" transform="translate(77.487468 0) scale(0.996264)"/>
       <use xlink:href="#CMMI12-3a" transform="translate(123.177945 0) scale(0.996264)"/>
       <use xlink:href="#CMR17-38" transform="translate(150.275122 0) scale(0.996264)"/>
      </g>
     </g>
    </g>
    <g id="ytick_3">
     <g id="line2d_11">
      <g>
       <use xlink:href="#ma8f93cb6c5" x="33.707196" y="123.010056" style="stroke: #000000; stroke-width: 0.8"/>
      </g>
     </g>
     <g id="text_12">
      <!-- $\mathdefault{−0.6}$ -->
      <g transform="translate(7.2 125.777457) scale(0.08 -0.08)">
       <defs>
        <path id="CMR17-36" d="M 678 2176 
C 678 3690 1395 4032 1811 4032 
C 1946 4032 2272 4009 2400 3776 
C 2298 3776 2106 3776 2106 3553 
C 2106 3381 2246 3323 2336 3323 
C 2394 3323 2566 3348 2566 3560 
C 2566 3954 2246 4179 1805 4179 
C 1043 4179 243 3390 243 1984 
C 243 253 966 -128 1478 -128 
C 2099 -128 2688 427 2688 1283 
C 2688 2081 2170 2662 1517 2662 
C 1126 2662 838 2407 678 1960 
L 678 2176 
z
M 1478 25 
C 691 25 691 1200 691 1436 
C 691 1896 909 2560 1504 2560 
C 1613 2560 1926 2560 2138 2120 
C 2253 1870 2253 1609 2253 1289 
C 2253 944 2253 690 2118 434 
C 1978 171 1773 25 1478 25 
z
" transform="scale(0.015625)"/>
       </defs>
       <use xlink:href="#CMSY10-0" transform="scale(0.996264)"/>
       <use xlink:href="#CMR17-30" transform="translate(77.487468 0) scale(0.996264)"/>
       <use xlink:href="#CMMI12-3a" transform="translate(123.177945 0) scale(0.996264)"/>
       <use xlink:href="#CMR17-36" transform="translate(150.275122 0) scale(0.996264)"/>
      </g>
     </g>
    </g>
    <g id="ytick_4">
     <g id="line2d_12">
      <g>
       <use xlink:href="#ma8f93cb6c5" x="33.707196" y="87.67542" style="stroke: #000000; stroke-width: 0.8"/>
      </g>
     </g>
     <g id="text_13">
      <!-- $\mathdefault{−0.4}$ -->
      <g transform="translate(7.2 90.44282) scale(0.08 -0.08)">
       <defs>
        <path id="CMR17-34" d="M 2150 4122 
C 2150 4256 2144 4256 2029 4256 
L 128 1254 
L 128 1088 
L 1779 1088 
L 1779 457 
C 1779 224 1766 160 1318 160 
L 1197 160 
L 1197 0 
C 1402 0 1747 0 1965 0 
C 2182 0 2528 0 2733 0 
L 2733 160 
L 2611 160 
C 2163 160 2150 224 2150 457 
L 2150 1088 
L 2803 1088 
L 2803 1254 
L 2150 1254 
L 2150 4122 
z
M 1798 3703 
L 1798 1254 
L 256 1254 
L 1798 3703 
z
" transform="scale(0.015625)"/>
       </defs>
       <use xlink:href="#CMSY10-0" transform="scale(0.996264)"/>
       <use xlink:href="#CMR17-30" transform="translate(77.487468 0) scale(0.996264)"/>
       <use xlink:href="#CMMI12-3a" transform="translate(123.177945 0) scale(0.996264)"/>
       <use xlink:href="#CMR17-34" transform="translate(150.275122 0) scale(0.996264)"/>
      </g>
     </g>
    </g>
    <g id="ytick_5">
     <g id="line2d_13">
      <g>
       <use xlink:href="#ma8f93cb6c5" x="33.707196" y="52.340784" style="stroke: #000000; stroke-width: 0.8"/>
      </g>
     </g>
     <g id="text_14">
      <!-- $\mathdefault{−0.2}$ -->
      <g transform="translate(7.2 55.108184) scale(0.08 -0.08)">
       <use xlink:href="#CMSY10-0" transform="scale(0.996264)"/>
       <use xlink:href="#CMR17-30" transform="translate(77.487468 0) scale(0.996264)"/>
       <use xlink:href="#CMMI12-3a" transform="translate(123.177945 0) scale(0.996264)"/>
       <use xlink:href="#CMR17-32" transform="translate(150.275122 0) scale(0.996264)"/>
      </g>
     </g>
    </g>
    <g id="ytick_6">
     <g id="line2d_14">
      <g>
       <use xlink:href="#ma8f93cb6c5" x="33.707196" y="17.006147" style="stroke: #000000; stroke-width: 0.8"/>
      </g>
     </g>
     <g id="text_15">
      <!-- $\mathdefault{0.0}$ -->
      <g transform="translate(13.786507 19.773548) scale(0.08 -0.08)">
       <use xlink:href="#CMR17-30" transform="scale(0.996264)"/>
       <use xlink:href="#CMMI12-3a" transform="translate(45.690477 0) scale(0.996264)"/>
       <use xlink:href="#CMR17-30" transform="translate(72.787654 0) scale(0.996264)"/>
      </g>
     </g>
    </g>
   </g>
   <g id="line2d_15">
    <path d="M 43.356847 193.679328 
L 43.421178 193.395517 
L 43.54984 191.210182 
L 43.871495 179.345028 
L 44.514805 155.236517 
L 44.900791 148.423356 
L 45.158115 146.995735 
L 45.286777 147.063377 
L 45.47977 147.970396 
L 45.801426 151.069369 
L 46.959384 163.69636 
L 47.34537 165.196368 
L 47.667025 165.694445 
L 48.053011 165.892777 
L 48.374666 166.073745 
L 48.696321 166.61738 
L 50.368927 170.169779 
L 52.234526 171.85849 
L 52.877836 173.071476 
L 53.392484 173.812474 
L 53.649808 173.892168 
L 53.842801 173.732094 
L 54.100125 173.09196 
L 54.357449 171.785426 
L 54.743436 168.333057 
L 55.193753 161.953533 
L 55.837063 148.822743 
L 57.638331 109.921045 
L 58.410303 98.034563 
L 59.117944 90.491882 
L 60.211571 81.411919 
L 61.112205 75.9467 
L 61.755515 73.032613 
L 63.170797 68.078562 
L 63.814108 66.768787 
L 65.165059 64.375805 
L 65.615376 63.799711 
L 66.387348 62.987912 
L 67.352313 61.916703 
L 70.054215 60.683832 
L 70.890518 60.648071 
L 71.469497 60.474365 
L 72.241469 60.401092 
L 73.335097 60.470807 
L 73.785414 60.542153 
L 74.235731 60.652797 
L 74.557386 60.466923 
L 75.200696 59.99884 
L 76.229992 59.844045 
L 76.74464 59.157985 
L 77.130626 58.326485 
L 77.516612 56.846815 
L 78.095591 53.589979 
L 79.639535 43.959586 
L 80.154183 42.143116 
L 80.668831 41.090821 
L 81.183479 40.602955 
L 81.955452 40.1008 
L 82.4701 40.075669 
L 83.049079 40.132095 
L 83.435065 39.816281 
L 83.949713 39.492582 
L 84.528692 39.351743 
L 84.979009 39.573478 
L 85.622319 40.185922 
L 86.136967 40.909685 
L 86.587284 41.923027 
L 87.101932 43.669697 
L 87.552249 45.928558 
L 88.066897 49.912661 
L 88.645876 56.277721 
L 89.54651 69.497442 
L 90.961793 90.153405 
L 91.926758 101.162806 
L 92.956054 110.267034 
L 93.792357 115.650972 
L 94.62866 119.613907 
L 95.593625 123.003133 
L 96.365597 125.002337 
L 97.523555 127.393316 
L 98.359858 128.579325 
L 99.196162 129.247387 
L 100.933099 130.443052 
L 105.114614 131.486691 
L 107.173206 131.716768 
L 108.00951 131.703097 
L 108.459827 131.855158 
L 108.717151 132.136686 
L 108.974475 132.747802 
L 109.29613 134.276661 
L 109.682116 137.48922 
L 110.389757 146.056236 
L 111.097398 154.010852 
L 111.612046 157.444023 
L 112.062363 158.976167 
L 113.027328 161.813307 
L 114.44261 166.026258 
L 115.214582 167.578465 
L 115.986554 168.754608 
L 116.758526 170.017648 
L 117.787823 172.003613 
L 118.045147 172.106651 
L 118.23814 171.934152 
L 118.495464 171.239243 
L 118.817119 169.441939 
L 119.203105 165.601444 
L 119.653422 158.538532 
L 120.425394 142.129949 
L 121.840676 111.60513 
L 122.676979 98.545444 
L 123.448951 89.295836 
L 124.220923 83.187249 
L 125.185888 76.802154 
L 126.858495 69.239735 
L 128.145115 65.708288 
L 128.788425 64.713491 
L 129.560397 63.801162 
L 130.010714 63.25685 
L 130.718355 62.193491 
L 131.04001 62.203498 
L 131.361665 62.186919 
L 131.940644 61.788852 
L 132.96994 61.238995 
L 133.61325 61.382814 
L 134.127898 61.285074 
L 136.636808 60.45423 
L 137.151456 60.454676 
L 137.537442 60.459804 
L 138.180752 60.345358 
L 138.888393 60.550596 
L 139.853358 60.307583 
L 140.432337 59.930367 
L 140.946985 59.820528 
L 141.26864 59.396189 
L 141.590295 58.471169 
L 141.976281 56.536358 
L 142.619591 51.963814 
L 143.391563 46.873998 
L 144.034874 44.042793 
L 144.485191 42.992506 
L 145.836142 40.951932 
L 146.736776 40.27232 
L 147.380086 40.177569 
L 148.023396 40.31611 
L 148.473713 40.510474 
L 148.731037 40.356715 
L 149.245685 39.93002 
L 149.56734 40.012412 
L 150.21065 40.501795 
L 150.596636 41.075996 
L 151.046953 42.170675 
L 151.49727 43.757586 
L 151.947587 46.294246 
L 152.462235 50.502072 
L 153.105546 57.916694 
L 154.00618 71.216411 
L 155.357131 90.818498 
L 156.322096 101.838851 
L 157.22273 109.87787 
L 157.994702 114.831556 
L 158.895336 119.100606 
L 159.924632 122.62759 
L 160.825266 125.178347 
L 161.790232 127.030734 
L 162.433542 127.984702 
L 163.462838 128.914323 
L 165.071113 130.126267 
L 166.743719 130.92484 
L 167.194036 131.130925 
L 167.773015 131.436127 
L 171.311221 131.897249 
L 171.825869 131.819448 
L 172.597841 131.7042 
L 172.855165 131.839187 
L 173.112489 132.25577 
L 173.434144 133.409893 
L 173.755799 135.484812 
L 174.206116 140.014138 
L 175.557067 155.065745 
L 176.007384 157.672537 
L 176.586363 159.606104 
L 177.744321 163.210699 
L 178.580624 165.650282 
L 180.1889 168.687678 
L 182.247492 172.212617 
L 182.440485 172.201866 
L 182.633478 171.915708 
L 182.890802 170.983362 
L 183.212457 168.788951 
L 183.598443 164.47089 
L 184.113091 155.902236 
L 185.013725 136.229085 
L 186.300345 109.129796 
L 187.072317 97.524999 
L 187.844289 88.801156 
L 188.551931 83.525777 
L 189.838551 75.462149 
L 190.867847 71.029661 
L 192.283129 66.224269 
L 192.797777 65.248878 
L 193.505418 64.353314 
L 194.341721 62.869182 
L 194.727707 62.700536 
L 195.435348 62.562001 
L 196.014327 61.837311 
L 196.464644 61.462291 
L 197.300948 61.1048 
L 197.686934 60.936044 
L 198.07292 61.102943 
L 198.394575 61.188765 
L 198.71623 61.037252 
L 199.616864 60.372545 
L 200.067181 60.254355 
L 201.096477 59.77309 
L 201.93278 59.580682 
L 202.962076 59.683656 
L 203.412393 59.37406 
L 203.927041 58.932191 
L 204.184365 59.000453 
L 204.892006 59.365611 
L 205.14933 59.136044 
L 205.663978 58.280215 
L 205.985634 57.3602 
L 206.37162 55.376521 
L 208.172888 44.343513 
L 208.687536 42.73656 
L 209.845494 40.22541 
L 210.23148 39.975954 
L 210.810459 39.638156 
L 212.16141 38.630481 
L 212.933382 38.682227 
L 213.255037 38.739748 
L 213.576692 39.055401 
L 215.120637 41.21058 
L 215.635285 42.786924 
L 216.085602 44.950752 
L 216.60025 48.575453 
L 217.179229 54.5136 
L 217.951201 65.264414 
L 219.623807 89.573067 
L 220.781765 102.802701 
L 221.553737 109.315287 
L 222.39004 114.823683 
L 223.355005 119.694441 
L 224.126978 122.552599 
L 225.091943 125.15043 
L 225.928246 126.777309 
L 226.507225 127.465934 
L 228.244162 129.155469 
L 228.951803 129.68561 
L 230.302754 130.512504 
L 230.881733 130.782659 
L 232.61867 131.493746 
L 233.712298 131.474091 
L 234.548601 131.380529 
L 235.642228 131.403212 
L 236.028214 131.5814 
L 236.349869 131.798672 
L 236.349869 131.798672 
" clip-path="url(#pa4aa8a8133)" style="fill: none; stroke: #1f77b4; stroke-width: 0.5; stroke-linecap: square"/>
   </g>
   <g id="line2d_16">
    <path d="M 43.356847 17.006147 
L 44.128819 16.695532 
L 45.093784 16.615618 
L 49.403962 16.697029 
L 55.193753 16.665912 
L 58.538965 16.519594 
L 72.498794 16.50101 
L 111.033067 16.636686 
L 116.694195 16.705446 
L 119.910746 16.632922 
L 122.934303 16.518438 
L 136.186491 16.501086 
L 175.042419 16.625802 
L 179.995907 16.697608 
L 184.306084 16.627531 
L 187.329641 16.517996 
L 203.927041 16.50071 
L 236.349869 16.570221 
L 236.349869 16.570221 
" clip-path="url(#pa4aa8a8133)" style="fill: none; stroke: #ff7f0e; stroke-width: 0.5; stroke-linecap: square"/>
   </g>
   <g id="line2d_17">
    <path d="M 43.356847 17.006147 
L 44.450474 17.245184 
L 45.801426 17.18382 
L 46.509067 17.278819 
L 47.216708 17.22264 
L 47.860018 17.111302 
L 48.824983 16.901657 
L 50.111603 17.119825 
L 50.56192 17.125151 
L 52.749174 16.910614 
L 54.357449 17.091044 
L 55.193753 17.162355 
L 56.480373 16.932595 
L 57.123683 16.568906 
L 57.766993 16.230816 
L 58.088648 16.361549 
L 59.375268 17.289476 
L 59.696923 17.144796 
L 60.468895 16.653773 
L 60.983543 16.625162 
L 62.527487 16.866709 
L 63.170797 17.167145 
L 63.685446 17.070595 
L 64.264425 16.749496 
L 64.58608 16.718245 
L 64.907735 16.947294 
L 65.551045 17.424857 
L 66.51601 17.802388 
L 66.901996 17.555615 
L 67.545306 17.140127 
L 68.059954 17.011899 
L 69.153581 17.150656 
L 70.504532 16.433714 
L 71.533828 16.683772 
L 73.077773 17.075543 
L 73.52809 16.798415 
L 73.978407 16.516613 
L 74.235731 16.60803 
L 75.265027 17.286294 
L 75.972668 17.109365 
L 76.937633 16.836201 
L 77.773936 17.031186 
L 79.96119 17.654514 
L 80.733162 17.598862 
L 82.084114 17.847218 
L 82.598762 17.549821 
L 83.049079 17.411541 
L 83.692389 17.205845 
L 84.335699 17.026647 
L 85.04334 17.068104 
L 85.68665 17.369761 
L 86.394291 17.72629 
L 87.037601 17.674806 
L 87.61658 17.421106 
L 88.517214 16.957397 
L 90.318483 16.681271 
L 91.41211 16.948085 
L 92.312744 17.008928 
L 93.277709 17.446395 
L 93.663695 17.389572 
L 95.91528 16.401428 
L 97.394893 16.307336 
L 98.552851 16.826985 
L 99.196162 17.082893 
L 99.646479 17.00694 
L 100.418451 16.857035 
L 101.512078 16.646091 
L 103.056022 17.404775 
L 103.506339 17.386903 
L 105.178945 17.101036 
L 107.237537 16.996752 
L 108.974475 16.916022 
L 109.93944 16.863524 
L 111.676377 16.863307 
L 112.191025 16.993137 
L 113.091659 16.935821 
L 113.863631 17.215827 
L 114.249617 17.331682 
L 114.699934 17.174292 
L 115.72923 16.860088 
L 116.565533 16.896017 
L 117.401837 17.107775 
L 118.173809 16.785474 
L 118.817119 16.645834 
L 119.267436 16.799395 
L 119.910746 17.009078 
L 120.361063 16.889316 
L 120.940042 16.760386 
L 121.45469 16.904207 
L 121.905007 16.976467 
L 122.355324 16.804448 
L 122.934303 16.633659 
L 123.320289 16.809732 
L 123.963599 17.114668 
L 124.478247 16.996118 
L 124.992895 16.883011 
L 125.443212 17.082643 
L 126.408178 17.655548 
L 126.665502 17.55358 
L 126.987157 17.160905 
L 127.630467 16.284165 
L 127.952122 16.158738 
L 128.273777 16.246365 
L 128.659763 16.607241 
L 129.367404 17.295232 
L 129.882052 17.543596 
L 130.332369 17.377815 
L 132.197968 16.64205 
L 132.583954 16.628032 
L 133.034271 16.954111 
L 133.677581 17.325934 
L 133.999236 17.286265 
L 134.385222 16.901596 
L 135.028533 16.254687 
L 135.285857 16.332529 
L 135.607512 16.814665 
L 136.186491 17.749033 
L 136.443815 17.862071 
L 136.701139 17.729195 
L 137.022794 17.277492 
L 137.666104 16.310903 
L 137.923428 16.297803 
L 138.309414 16.58333 
L 139.017055 17.202802 
L 139.33871 17.219175 
L 139.917689 16.873238 
L 140.432337 16.664553 
L 140.753992 16.801777 
L 141.718957 17.330311 
L 142.55526 17.508405 
L 143.455894 17.569012 
L 144.292198 17.567451 
L 144.871177 17.289774 
L 145.836142 16.737877 
L 146.736776 16.089795 
L 147.058431 16.149053 
L 147.63741 16.579667 
L 148.409382 17.108325 
L 149.117023 17.09137 
L 149.696002 16.947645 
L 150.918291 16.661782 
L 152.011918 16.746996 
L 153.234208 16.981757 
L 153.813187 17.099149 
L 155.228469 17.603674 
L 155.93611 17.306207 
L 156.836744 16.945986 
L 158.187695 16.60753 
L 159.731639 17.171564 
L 161.66157 17.793715 
L 162.819528 17.545827 
L 163.527169 17.331349 
L 164.620796 17.155575 
L 165.52143 16.969772 
L 166.679388 16.702987 
L 167.322698 16.780416 
L 169.445621 17.184968 
L 170.925235 16.827396 
L 171.697207 16.89108 
L 172.855165 16.994591 
L 174.206116 16.834711 
L 174.849426 16.851059 
L 176.200377 16.933079 
L 181.539851 16.796338 
L 182.76214 16.98041 
L 183.40545 16.873469 
L 184.756401 16.466939 
L 185.206718 16.553916 
L 185.721366 16.669055 
L 186.364676 16.473783 
L 186.814993 16.347909 
L 187.136648 16.574821 
L 187.844289 17.17464 
L 188.294607 17.236148 
L 188.680593 17.091365 
L 189.13091 16.658055 
L 189.516896 16.369973 
L 189.77422 16.473971 
L 190.288868 17.092414 
L 190.739185 17.570743 
L 190.996509 17.58475 
L 191.318164 17.347328 
L 191.961474 16.772577 
L 192.34746 16.717552 
L 192.797777 16.932116 
L 193.248094 17.081247 
L 195.049362 17.440007 
L 195.628341 17.644109 
L 195.949996 17.524889 
L 196.914961 16.957865 
L 197.300948 16.953873 
L 198.07292 17.153402 
L 199.295209 16.704065 
L 200.260174 17.179337 
L 200.64616 16.977811 
L 201.418132 16.478396 
L 201.739787 16.565498 
L 203.2194 17.356967 
L 203.734048 17.290816 
L 204.441689 16.969708 
L 205.213661 16.572119 
L 205.470985 16.704447 
L 206.628944 17.663818 
L 208.044226 17.656765 
L 208.623205 17.587673 
L 210.810459 17.307535 
L 211.711093 16.913406 
L 213.834016 17.237201 
L 216.986236 16.804419 
L 218.144194 16.969046 
L 218.594511 16.955218 
L 219.688138 17.412027 
L 220.202786 17.565683 
L 220.717434 17.522255 
L 222.583033 16.830818 
L 223.612329 16.947452 
L 225.284936 17.268471 
L 225.992577 17.46842 
L 226.957542 17.472553 
L 227.279197 17.307749 
L 227.986838 16.822054 
L 228.437155 16.848699 
L 228.823141 16.820084 
L 229.659444 16.617528 
L 230.68874 16.783679 
L 231.718036 17.094205 
L 233.19765 17.05033 
L 234.033953 17.092441 
L 234.805925 17.249396 
L 235.706559 17.346427 
L 236.349869 17.296281 
L 236.349869 17.296281 
" clip-path="url(#pa4aa8a8133)" style="fill: none; stroke: #2ca02c; stroke-width: 0.5; stroke-linecap: square"/>
   </g>
   <g id="patch_3">
    <path d="M 33.707196 202.559296 
L 33.707196 7.2 
" style="fill: none; stroke: #000000; stroke-width: 0.8; stroke-linejoin: miter; stroke-linecap: square"/>
   </g>
   <g id="patch_4">
    <path d="M 245.99952 202.559296 
L 245.99952 7.2 
" style="fill: none; stroke: #000000; stroke-width: 0.8; stroke-linejoin: miter; stroke-linecap: square"/>
   </g>
   <g id="patch_5">
    <path d="M 33.707196 202.559296 
L 245.99952 202.559296 
" style="fill: none; stroke: #000000; stroke-width: 0.8; stroke-linejoin: miter; stroke-linecap: square"/>
   </g>
   <g id="patch_6">
    <path d="M 33.707196 7.2 
L 245.99952 7.2 
" style="fill: none; stroke: #000000; stroke-width: 0.8; stroke-linejoin: miter; stroke-linecap: square"/>
   </g>
   <g id="legend_1">
    <g id="patch_7">
     <path d="M 193.792605 198.059296 
L 239.69952 198.059296 
Q 241.49952 198.059296 241.49952 196.259296 
L 241.49952 156.760168 
Q 241.49952 154.960168 239.69952 154.960168 
L 193.792605 154.960168 
Q 191.992605 154.960168 191.992605 156.760168 
L 191.992605 196.259296 
Q 191.992605 198.059296 193.792605 198.059296 
z
" style="fill: #ffffff; opacity: 0.8; stroke: #cccccc; stroke-width: 0.24; stroke-linejoin: miter"/>
    </g>
    <g id="line2d_18">
     <path d="M 195.592605 162.13495 
L 204.592605 162.13495 
L 213.592605 162.13495 
" style="fill: none; stroke: #1f77b4; stroke-width: 0.5; stroke-linecap: square"/>
    </g>
    <g id="text_16">
     <!-- $\langle \sigma_z\rangle$ -->
     <g transform="translate(220.792605 165.28495) scale(0.09 -0.09)">
      <defs>
       <path id="CMSY10-68" d="M 2099 4557 
C 2131 4627 2131 4640 2131 4672 
C 2131 4742 2074 4800 2003 4800 
C 1946 4800 1901 4768 1856 4653 
L 736 1715 
C 723 1677 704 1638 704 1600 
C 704 1581 704 1568 736 1491 
L 1856 -1446 
C 1882 -1517 1914 -1600 2003 -1600 
C 2074 -1600 2131 -1542 2131 -1472 
C 2131 -1453 2131 -1440 2099 -1370 
L 966 1600 
L 2099 4557 
z
" transform="scale(0.015625)"/>
       <path id="CMMI12-1b" d="M 3251 2408 
C 3334 2408 3546 2408 3546 2612 
C 3546 2752 3424 2752 3309 2752 
L 1894 2752 
C 934 2752 243 1686 243 932 
C 243 390 595 -64 1171 -64 
C 1926 -64 2752 747 2752 1705 
C 2752 1954 2694 2196 2541 2408 
L 3251 2408 
z
M 1178 64 
C 851 64 614 313 614 754 
C 614 1137 845 2408 1786 2408 
C 2061 2408 2368 2274 2368 1781 
C 2368 1558 2266 1021 2042 652 
C 1811 275 1466 64 1178 64 
z
" transform="scale(0.015625)"/>
       <path id="CMMI12-7a" d="M 813 486 
C 1088 803 1312 1004 1632 1296 
C 2016 1632 2182 1793 2272 1891 
C 2720 2338 2944 2713 2944 2764 
C 2944 2816 2893 2816 2880 2816 
C 2835 2816 2822 2793 2790 2750 
C 2630 2494 2477 2367 2310 2367 
C 2176 2367 2106 2421 1984 2565 
C 1850 2715 1741 2816 1555 2816 
C 1088 2816 806 2257 806 2128 
C 806 2108 813 2068 870 2068 
C 922 2068 928 2091 947 2133 
C 1056 2372 1363 2414 1485 2414 
C 1619 2414 1747 2376 1882 2327 
C 2125 2240 2227 2240 2291 2240 
C 2336 2240 2362 2240 2394 2246 
C 2182 1994 1837 1683 1549 1418 
L 902 816 
C 512 415 275 33 275 -12 
C 275 -51 307 -64 346 -64 
C 384 -64 390 -57 435 14 
C 538 163 742 384 979 384 
C 1114 384 1178 342 1306 193 
C 1427 61 1536 -64 1741 -64 
C 2368 -64 2726 732 2726 876 
C 2726 903 2720 942 2656 942 
C 2605 942 2598 917 2579 855 
C 2438 488 2061 338 1811 338 
C 1677 338 1549 376 1414 425 
C 1158 512 1088 512 1005 512 
C 941 512 870 512 813 486 
z
" transform="scale(0.015625)"/>
       <path id="CMSY10-69" d="M 1747 1491 
C 1779 1568 1779 1581 1779 1600 
C 1779 1619 1779 1632 1747 1709 
L 627 4653 
C 589 4762 550 4800 480 4800 
C 410 4800 352 4742 352 4672 
C 352 4653 352 4640 384 4570 
L 1517 1600 
L 384 -1357 
C 352 -1427 352 -1440 352 -1472 
C 352 -1542 410 -1600 480 -1600 
C 563 -1600 589 -1536 614 -1472 
L 1747 1491 
z
" transform="scale(0.015625)"/>
      </defs>
      <use xlink:href="#CMSY10-68" transform="scale(0.996264)"/>
      <use xlink:href="#CMMI12-1b" transform="translate(38.743734 0) scale(0.996264)"/>
      <use xlink:href="#CMMI12-7a" transform="translate(94.189195 -14.943915) scale(0.697382)"/>
      <use xlink:href="#CMSY10-69" transform="translate(129.51575 0) scale(0.996264)"/>
     </g>
    </g>
    <g id="line2d_19">
     <path d="M 195.592605 175.601326 
L 204.592605 175.601326 
L 213.592605 175.601326 
" style="fill: none; stroke: #ff7f0e; stroke-width: 0.5; stroke-linecap: square"/>
    </g>
    <g id="text_17">
     <!-- $\langle \sigma_x\rangle$ -->
     <g transform="translate(220.792605 178.751326) scale(0.09 -0.09)">
      <defs>
       <path id="CMMI12-78" d="M 3034 2606 
C 2829 2567 2752 2414 2752 2293 
C 2752 2139 2874 2088 2963 2088 
C 3155 2088 3290 2254 3290 2427 
C 3290 2695 2982 2816 2714 2816 
C 2323 2816 2106 2433 2048 2312 
C 1901 2816 1504 2816 1389 2816 
C 736 2816 390 1980 390 1839 
C 390 1814 416 1782 461 1782 
C 512 1782 525 1820 538 1846 
C 755 2555 1184 2689 1370 2689 
C 1658 2689 1715 2420 1715 2267 
C 1715 2127 1677 1980 1600 1673 
L 1382 798 
C 1286 415 1101 64 762 64 
C 730 64 570 64 435 147 
C 666 192 717 383 717 460 
C 717 588 621 664 499 664 
C 346 664 179 530 179 326 
C 179 57 480 -64 755 -64 
C 1062 -64 1280 179 1414 441 
C 1517 64 1837 -64 2074 -64 
C 2726 -64 3072 773 3072 913 
C 3072 945 3046 971 3008 971 
C 2950 971 2944 939 2925 888 
C 2752 326 2381 64 2093 64 
C 1869 64 1747 230 1747 492 
C 1747 632 1773 734 1875 1156 
L 2099 2024 
C 2195 2408 2413 2689 2707 2689 
C 2720 2689 2899 2689 3034 2606 
z
" transform="scale(0.015625)"/>
      </defs>
      <use xlink:href="#CMSY10-68" transform="scale(0.996264)"/>
      <use xlink:href="#CMMI12-1b" transform="translate(38.743734 0) scale(0.996264)"/>
      <use xlink:href="#CMMI12-78" transform="translate(94.189195 -14.943915) scale(0.697382)"/>
      <use xlink:href="#CMSY10-69" transform="translate(133.490986 0) scale(0.996264)"/>
     </g>
    </g>
    <g id="line2d_20">
     <path d="M 195.592605 189.067702 
L 204.592605 189.067702 
L 213.592605 189.067702 
" style="fill: none; stroke: #2ca02c; stroke-width: 0.5; stroke-linecap: square"/>
    </g>
    <g id="text_18">
     <!-- $\langle \sigma_y\rangle$ -->
     <g transform="translate(220.792605 192.217702) scale(0.09 -0.09)">
      <defs>
       <path id="CMMI12-79" d="M 1683 -700 
C 1510 -939 1261 -1152 947 -1152 
C 870 -1152 563 -1152 467 -889 
C 486 -895 518 -895 531 -895 
C 723 -895 851 -729 851 -582 
C 851 -435 730 -384 634 -384 
C 531 -384 307 -458 307 -759 
C 307 -1071 582 -1286 947 -1286 
C 1587 -1286 2234 -700 2413 6 
L 3040 2485 
C 3046 2517 3059 2556 3059 2594 
C 3059 2689 2982 2753 2886 2753 
C 2829 2753 2694 2727 2643 2535 
L 2170 658 
C 2138 543 2138 530 2086 460 
C 1958 281 1747 64 1440 64 
C 1082 64 1050 415 1050 588 
C 1050 952 1222 1443 1395 1903 
C 1466 2088 1504 2178 1504 2305 
C 1504 2574 1312 2816 998 2816 
C 410 2816 173 1890 173 1839 
C 173 1814 198 1782 243 1782 
C 301 1782 307 1807 333 1897 
C 486 2433 730 2689 979 2689 
C 1037 2689 1146 2689 1146 2478 
C 1146 2312 1075 2127 979 1884 
C 666 1047 666 837 666 683 
C 666 77 1101 -64 1421 -64 
C 1606 -64 1837 -6 2061 230 
L 2067 224 
C 1971 -147 1907 -392 1683 -700 
z
" transform="scale(0.015625)"/>
      </defs>
      <use xlink:href="#CMSY10-68" transform="scale(0.996264)"/>
      <use xlink:href="#CMMI12-1b" transform="translate(38.743734 0) scale(0.996264)"/>
      <use xlink:href="#CMMI12-79" transform="translate(94.189195 -14.943915) scale(0.697382)"/>
      <use xlink:href="#CMSY10-69" transform="translate(130.484301 0) scale(0.996264)"/>
     </g>
    </g>
   </g>
  </g>
 </g>
 <defs>
  <clipPath id="pa4aa8a8133">
   <rect x="33.707196" y="7.2" width="212.292324" height="195.359296"/>
  </clipPath>
 </defs>
</svg>
