<?xml version="1.0" encoding="utf-8" standalone="no"?>
<!DOCTYPE svg PUBLIC "-//W3C//DTD SVG 1.1//EN"
  "http://www.w3.org/Graphics/SVG/1.1/DTD/svg11.dtd">
<svg xmlns:xlink="http://www.w3.org/1999/xlink" width="253.19952pt" height="238.79952pt" viewBox="0 0 253.19952 238.79952" xmlns="http://www.w3.org/2000/svg" version="1.1">
 <metadata>
  <rdf:RDF xmlns:dc="http://purl.org/dc/elements/1.1/" xmlns:cc="http://creativecommons.org/ns#" xmlns:rdf="http://www.w3.org/1999/02/22-rdf-syntax-ns#">
   <cc:Work>
    <dc:type rdf:resource="http://purl.org/dc/dcmitype/StillImage"/>
    <dc:date>1980-01-01T00:00:00+00:00</dc:date>
    <dc:format>image/svg+xml</dc:format>
    <dc:creator>
     <cc:Agent>
      <dc:title>Matplotlib v3.6.2, https://matplotlib.org/</dc:title>
     </cc:Agent>
    </dc:creator>
   </cc:Work>
  </rdf:RDF>
 </metadata>
 <defs>
  <style type="text/css">*{stroke-linejoin: round; stroke-linecap: butt}</style>
 </defs>
 <g id="figure_1">
  <g id="patch_1">
   <path d="M 0 238.79952 
L 253.19952 238.79952 
L 253.19952 0 
L 0 0 
z
" style="fill: #ffffff"/>
  </g>
  <g id="axes_1">
   <g id="patch_2">
    <path d="M 33.707196 202.559296 
L 245.99952 202.559296 
L 245.99952 7.2 
L 33.707196 7.2 
z
" style="fill: #ffffff"/>
   </g>
   <g id="matplotlib.axis_1">
    <g id="xtick_1">
     <g id="line2d_1">
      <defs>
       <path id="m4f6dd8386b" d="M 0 0 
L 0 3.5 
" style="stroke: #000000; stroke-width: 0.8"/>
      </defs>
      <g>
       <use xlink:href="#m4f6dd8386b" x="43.356847" y="202.559296" style="stroke: #000000; stroke-width: 0.8"/>
      </g>
     </g>
     <g id="text_1">
      <!-- $\mathdefault{0}$ -->
      <g transform="translate(41.239756 217.194098) scale(0.08 -0.08)">
       <defs>
        <path id="CMR17-30" d="M 2688 2025 
C 2688 2416 2682 3080 2413 3591 
C 2176 4039 1798 4198 1466 4198 
C 1158 4198 768 4058 525 3597 
C 269 3118 243 2524 243 2025 
C 243 1661 250 1106 448 619 
C 723 -39 1216 -128 1466 -128 
C 1760 -128 2208 -7 2470 600 
C 2662 1042 2688 1559 2688 2025 
z
M 1466 -26 
C 1056 -26 813 325 723 812 
C 653 1188 653 1738 653 2096 
C 653 2588 653 2997 736 3387 
C 858 3929 1216 4096 1466 4096 
C 1728 4096 2067 3923 2189 3400 
C 2272 3036 2278 2607 2278 2096 
C 2278 1680 2278 1169 2202 792 
C 2067 95 1690 -26 1466 -26 
z
" transform="scale(0.015625)"/>
       </defs>
       <use xlink:href="#CMR17-30" transform="scale(0.996264)"/>
      </g>
     </g>
    </g>
    <g id="xtick_2">
     <g id="line2d_2">
      <g>
       <use xlink:href="#m4f6dd8386b" x="70.161434" y="202.559296" style="stroke: #000000; stroke-width: 0.8"/>
      </g>
     </g>
     <g id="text_2">
      <!-- $\mathdefault{25}$ -->
      <g transform="translate(65.927251 217.194098) scale(0.08 -0.08)">
       <defs>
        <path id="CMR17-32" d="M 2669 989 
L 2554 989 
C 2490 536 2438 459 2413 420 
C 2381 369 1920 369 1830 369 
L 602 369 
C 832 619 1280 1072 1824 1597 
C 2214 1967 2669 2402 2669 3035 
C 2669 3790 2067 4224 1395 4224 
C 691 4224 262 3604 262 3030 
C 262 2780 448 2748 525 2748 
C 589 2748 781 2787 781 3010 
C 781 3207 614 3264 525 3264 
C 486 3264 448 3258 422 3245 
C 544 3790 915 4058 1306 4058 
C 1862 4058 2227 3617 2227 3035 
C 2227 2479 1901 2000 1536 1584 
L 262 146 
L 262 0 
L 2515 0 
L 2669 989 
z
" transform="scale(0.015625)"/>
        <path id="CMR17-35" d="M 730 3692 
C 794 3666 1056 3584 1325 3584 
C 1920 3584 2246 3911 2432 4100 
C 2432 4157 2432 4192 2394 4192 
C 2387 4192 2374 4192 2323 4163 
C 2099 4058 1837 3973 1517 3973 
C 1325 3973 1037 3999 723 4139 
C 653 4171 640 4171 634 4171 
C 602 4171 595 4164 595 4037 
L 595 2203 
C 595 2089 595 2057 659 2057 
C 691 2057 704 2070 736 2114 
C 941 2401 1222 2522 1542 2522 
C 1766 2522 2246 2382 2246 1289 
C 2246 1085 2246 715 2054 421 
C 1894 159 1645 25 1370 25 
C 947 25 518 320 403 814 
C 429 807 480 795 506 795 
C 589 795 749 840 749 1038 
C 749 1210 627 1280 506 1280 
C 358 1280 262 1190 262 1011 
C 262 454 704 -128 1382 -128 
C 2042 -128 2669 440 2669 1264 
C 2669 2030 2170 2624 1549 2624 
C 1222 2624 947 2503 730 2274 
L 730 3692 
z
" transform="scale(0.015625)"/>
       </defs>
       <use xlink:href="#CMR17-32" transform="scale(0.996264)"/>
       <use xlink:href="#CMR17-35" transform="translate(45.690477 0) scale(0.996264)"/>
      </g>
     </g>
    </g>
    <g id="xtick_3">
     <g id="line2d_3">
      <g>
       <use xlink:href="#m4f6dd8386b" x="96.96602" y="202.559296" style="stroke: #000000; stroke-width: 0.8"/>
      </g>
     </g>
     <g id="text_3">
      <!-- $\mathdefault{50}$ -->
      <g transform="translate(92.731837 217.194098) scale(0.08 -0.08)">
       <use xlink:href="#CMR17-35" transform="scale(0.996264)"/>
       <use xlink:href="#CMR17-30" transform="translate(45.690477 0) scale(0.996264)"/>
      </g>
     </g>
    </g>
    <g id="xtick_4">
     <g id="line2d_4">
      <g>
       <use xlink:href="#m4f6dd8386b" x="123.770606" y="202.559296" style="stroke: #000000; stroke-width: 0.8"/>
      </g>
     </g>
     <g id="text_4">
      <!-- $\mathdefault{75}$ -->
      <g transform="translate(119.536423 217.194098) scale(0.08 -0.08)">
       <defs>
        <path id="CMR17-37" d="M 2886 3941 
L 2886 4081 
L 1382 4081 
C 634 4081 621 4165 595 4288 
L 480 4288 
L 294 3094 
L 410 3094 
C 429 3215 474 3540 550 3661 
C 589 3712 1062 3712 1171 3712 
L 2579 3712 
L 1869 2661 
C 1395 1954 1069 999 1069 165 
C 1069 89 1069 -128 1299 -128 
C 1530 -128 1530 89 1530 171 
L 1530 465 
C 1530 1508 1709 2196 2003 2636 
L 2886 3941 
z
" transform="scale(0.015625)"/>
       </defs>
       <use xlink:href="#CMR17-37" transform="scale(0.996264)"/>
       <use xlink:href="#CMR17-35" transform="translate(45.690477 0) scale(0.996264)"/>
      </g>
     </g>
    </g>
    <g id="xtick_5">
     <g id="line2d_5">
      <g>
       <use xlink:href="#m4f6dd8386b" x="150.575193" y="202.559296" style="stroke: #000000; stroke-width: 0.8"/>
      </g>
     </g>
     <g id="text_5">
      <!-- $\mathdefault{100}$ -->
      <g transform="translate(144.223918 217.194098) scale(0.08 -0.08)">
       <defs>
        <path id="CMR17-31" d="M 1702 4058 
C 1702 4192 1696 4192 1606 4192 
C 1357 3916 979 3827 621 3827 
C 602 3827 570 3827 563 3808 
C 557 3795 557 3782 557 3648 
C 755 3648 1088 3686 1344 3839 
L 1344 461 
C 1344 236 1331 160 781 160 
L 589 160 
L 589 0 
C 896 0 1216 0 1523 0 
C 1830 0 2150 0 2458 0 
L 2458 160 
L 2266 160 
C 1715 160 1702 230 1702 458 
L 1702 4058 
z
" transform="scale(0.015625)"/>
       </defs>
       <use xlink:href="#CMR17-31" transform="scale(0.996264)"/>
       <use xlink:href="#CMR17-30" transform="translate(45.690477 0) scale(0.996264)"/>
       <use xlink:href="#CMR17-30" transform="translate(91.380954 0) scale(0.996264)"/>
      </g>
     </g>
    </g>
    <g id="xtick_6">
     <g id="line2d_6">
      <g>
       <use xlink:href="#m4f6dd8386b" x="177.379779" y="202.559296" style="stroke: #000000; stroke-width: 0.8"/>
      </g>
     </g>
     <g id="text_6">
      <!-- $\mathdefault{125}$ -->
      <g transform="translate(171.028505 217.194098) scale(0.08 -0.08)">
       <use xlink:href="#CMR17-31" transform="scale(0.996264)"/>
       <use xlink:href="#CMR17-32" transform="translate(45.690477 0) scale(0.996264)"/>
       <use xlink:href="#CMR17-35" transform="translate(91.380954 0) scale(0.996264)"/>
      </g>
     </g>
    </g>
    <g id="xtick_7">
     <g id="line2d_7">
      <g>
       <use xlink:href="#m4f6dd8386b" x="204.184365" y="202.559296" style="stroke: #000000; stroke-width: 0.8"/>
      </g>
     </g>
     <g id="text_7">
      <!-- $\mathdefault{150}$ -->
      <g transform="translate(197.833091 217.194098) scale(0.08 -0.08)">
       <use xlink:href="#CMR17-31" transform="scale(0.996264)"/>
       <use xlink:href="#CMR17-35" transform="translate(45.690477 0) scale(0.996264)"/>
       <use xlink:href="#CMR17-30" transform="translate(91.380954 0) scale(0.996264)"/>
      </g>
     </g>
    </g>
    <g id="xtick_8">
     <g id="line2d_8">
      <g>
       <use xlink:href="#m4f6dd8386b" x="230.988952" y="202.559296" style="stroke: #000000; stroke-width: 0.8"/>
      </g>
     </g>
     <g id="text_8">
      <!-- $\mathdefault{175}$ -->
      <g transform="translate(224.637677 217.194098) scale(0.08 -0.08)">
       <use xlink:href="#CMR17-31" transform="scale(0.996264)"/>
       <use xlink:href="#CMR17-37" transform="translate(45.690477 0) scale(0.996264)"/>
       <use xlink:href="#CMR17-35" transform="translate(91.380954 0) scale(0.996264)"/>
      </g>
     </g>
    </g>
    <g id="text_9">
     <!-- $\tau$ -->
     <g transform="translate(137.675756 229.662342) scale(0.1 -0.1)">
      <defs>
       <path id="CMMI12-1c" d="M 1837 2408 
L 2899 2408 
C 2982 2408 3194 2408 3194 2612 
C 3194 2752 3072 2752 2957 2752 
L 1197 2752 
C 1050 2752 832 2752 538 2440 
C 371 2255 166 1917 166 1879 
C 166 1841 198 1828 237 1828 
C 282 1828 288 1847 320 1885 
C 653 2408 986 2408 1146 2408 
L 1677 2408 
L 1011 223 
C 979 127 979 114 979 95 
C 979 25 1024 -64 1152 -64 
C 1350 -64 1382 108 1402 203 
L 1837 2408 
z
" transform="scale(0.015625)"/>
      </defs>
      <use xlink:href="#CMMI12-1c" transform="scale(0.996264)"/>
     </g>
    </g>
   </g>
   <g id="matplotlib.axis_2">
    <g id="ytick_1">
     <g id="line2d_9">
      <defs>
       <path id="m0262af6b2c" d="M 0 0 
L -3.5 0 
" style="stroke: #000000; stroke-width: 0.8"/>
      </defs>
      <g>
       <use xlink:href="#m0262af6b2c" x="33.707196" y="193.679328" style="stroke: #000000; stroke-width: 0.8"/>
      </g>
     </g>
     <g id="text_10">
      <!-- $\mathdefault{−1.0}$ -->
      <g transform="translate(7.2 196.446729) scale(0.08 -0.08)">
       <defs>
        <path id="CMSY10-0" d="M 4218 1472 
C 4326 1472 4442 1472 4442 1600 
C 4442 1728 4326 1728 4218 1728 
L 755 1728 
C 646 1728 531 1728 531 1600 
C 531 1472 646 1472 755 1472 
L 4218 1472 
z
" transform="scale(0.015625)"/>
        <path id="CMMI12-3a" d="M 1178 307 
C 1178 492 1024 619 870 619 
C 685 619 557 466 557 313 
C 557 128 710 0 864 0 
C 1050 0 1178 153 1178 307 
z
" transform="scale(0.015625)"/>
       </defs>
       <use xlink:href="#CMSY10-0" transform="scale(0.996264)"/>
       <use xlink:href="#CMR17-31" transform="translate(77.487468 0) scale(0.996264)"/>
       <use xlink:href="#CMMI12-3a" transform="translate(123.177945 0) scale(0.996264)"/>
       <use xlink:href="#CMR17-30" transform="translate(150.275122 0) scale(0.996264)"/>
      </g>
     </g>
    </g>
    <g id="ytick_2">
     <g id="line2d_10">
      <g>
       <use xlink:href="#m0262af6b2c" x="33.707196" y="158.438618" style="stroke: #000000; stroke-width: 0.8"/>
      </g>
     </g>
     <g id="text_11">
      <!-- $\mathdefault{−0.8}$ -->
      <g transform="translate(7.2 161.206019) scale(0.08 -0.08)">
       <defs>
        <path id="CMR17-38" d="M 1741 2264 
C 2144 2467 2554 2773 2554 3263 
C 2554 3841 1990 4179 1472 4179 
C 890 4179 378 3759 378 3180 
C 378 3021 416 2747 666 2505 
C 730 2442 998 2251 1171 2130 
C 883 1983 211 1634 211 934 
C 211 279 838 -128 1459 -128 
C 2144 -128 2720 362 2720 1010 
C 2720 1590 2330 1857 2074 2029 
L 1741 2264 
z
M 902 2822 
C 851 2854 595 3051 595 3351 
C 595 3739 998 4032 1459 4032 
C 1965 4032 2336 3676 2336 3262 
C 2336 2669 1670 2331 1638 2331 
C 1632 2331 1626 2331 1574 2370 
L 902 2822 
z
M 2080 1519 
C 2176 1449 2483 1240 2483 851 
C 2483 381 2010 25 1472 25 
C 890 25 448 438 448 940 
C 448 1443 838 1862 1280 2060 
L 2080 1519 
z
" transform="scale(0.015625)"/>
       </defs>
       <use xlink:href="#CMSY10-0" transform="scale(0.996264)"/>
       <use xlink:href="#CMR17-30" transform="translate(77.487468 0) scale(0.996264)"/>
       <use xlink:href="#CMMI12-3a" transform="translate(123.177945 0) scale(0.996264)"/>
       <use xlink:href="#CMR17-38" transform="translate(150.275122 0) scale(0.996264)"/>
      </g>
     </g>
    </g>
    <g id="ytick_3">
     <g id="line2d_11">
      <g>
       <use xlink:href="#m0262af6b2c" x="33.707196" y="123.197908" style="stroke: #000000; stroke-width: 0.8"/>
      </g>
     </g>
     <g id="text_12">
      <!-- $\mathdefault{−0.6}$ -->
      <g transform="translate(7.2 125.965309) scale(0.08 -0.08)">
       <defs>
        <path id="CMR17-36" d="M 678 2176 
C 678 3690 1395 4032 1811 4032 
C 1946 4032 2272 4009 2400 3776 
C 2298 3776 2106 3776 2106 3553 
C 2106 3381 2246 3323 2336 3323 
C 2394 3323 2566 3348 2566 3560 
C 2566 3954 2246 4179 1805 4179 
C 1043 4179 243 3390 243 1984 
C 243 253 966 -128 1478 -128 
C 2099 -128 2688 427 2688 1283 
C 2688 2081 2170 2662 1517 2662 
C 1126 2662 838 2407 678 1960 
L 678 2176 
z
M 1478 25 
C 691 25 691 1200 691 1436 
C 691 1896 909 2560 1504 2560 
C 1613 2560 1926 2560 2138 2120 
C 2253 1870 2253 1609 2253 1289 
C 2253 944 2253 690 2118 434 
C 1978 171 1773 25 1478 25 
z
" transform="scale(0.015625)"/>
       </defs>
       <use xlink:href="#CMSY10-0" transform="scale(0.996264)"/>
       <use xlink:href="#CMR17-30" transform="translate(77.487468 0) scale(0.996264)"/>
       <use xlink:href="#CMMI12-3a" transform="translate(123.177945 0) scale(0.996264)"/>
       <use xlink:href="#CMR17-36" transform="translate(150.275122 0) scale(0.996264)"/>
      </g>
     </g>
    </g>
    <g id="ytick_4">
     <g id="line2d_12">
      <g>
       <use xlink:href="#m0262af6b2c" x="33.707196" y="87.957198" style="stroke: #000000; stroke-width: 0.8"/>
      </g>
     </g>
     <g id="text_13">
      <!-- $\mathdefault{−0.4}$ -->
      <g transform="translate(7.2 90.724599) scale(0.08 -0.08)">
       <defs>
        <path id="CMR17-34" d="M 2150 4122 
C 2150 4256 2144 4256 2029 4256 
L 128 1254 
L 128 1088 
L 1779 1088 
L 1779 457 
C 1779 224 1766 160 1318 160 
L 1197 160 
L 1197 0 
C 1402 0 1747 0 1965 0 
C 2182 0 2528 0 2733 0 
L 2733 160 
L 2611 160 
C 2163 160 2150 224 2150 457 
L 2150 1088 
L 2803 1088 
L 2803 1254 
L 2150 1254 
L 2150 4122 
z
M 1798 3703 
L 1798 1254 
L 256 1254 
L 1798 3703 
z
" transform="scale(0.015625)"/>
       </defs>
       <use xlink:href="#CMSY10-0" transform="scale(0.996264)"/>
       <use xlink:href="#CMR17-30" transform="translate(77.487468 0) scale(0.996264)"/>
       <use xlink:href="#CMMI12-3a" transform="translate(123.177945 0) scale(0.996264)"/>
       <use xlink:href="#CMR17-34" transform="translate(150.275122 0) scale(0.996264)"/>
      </g>
     </g>
    </g>
    <g id="ytick_5">
     <g id="line2d_13">
      <g>
       <use xlink:href="#m0262af6b2c" x="33.707196" y="52.716489" style="stroke: #000000; stroke-width: 0.8"/>
      </g>
     </g>
     <g id="text_14">
      <!-- $\mathdefault{−0.2}$ -->
      <g transform="translate(7.2 55.48389) scale(0.08 -0.08)">
       <use xlink:href="#CMSY10-0" transform="scale(0.996264)"/>
       <use xlink:href="#CMR17-30" transform="translate(77.487468 0) scale(0.996264)"/>
       <use xlink:href="#CMMI12-3a" transform="translate(123.177945 0) scale(0.996264)"/>
       <use xlink:href="#CMR17-32" transform="translate(150.275122 0) scale(0.996264)"/>
      </g>
     </g>
    </g>
    <g id="ytick_6">
     <g id="line2d_14">
      <g>
       <use xlink:href="#m0262af6b2c" x="33.707196" y="17.475779" style="stroke: #000000; stroke-width: 0.8"/>
      </g>
     </g>
     <g id="text_15">
      <!-- $\mathdefault{0.0}$ -->
      <g transform="translate(13.786507 20.24318) scale(0.08 -0.08)">
       <use xlink:href="#CMR17-30" transform="scale(0.996264)"/>
       <use xlink:href="#CMMI12-3a" transform="translate(45.690477 0) scale(0.996264)"/>
       <use xlink:href="#CMR17-30" transform="translate(72.787654 0) scale(0.996264)"/>
      </g>
     </g>
    </g>
   </g>
   <g id="line2d_15">
    <path d="M 43.356847 193.679328 
L 52.684843 193.568677 
L 53.006498 193.30422 
L 53.328153 192.675947 
L 53.649808 191.421006 
L 53.971463 189.227287 
L 54.357449 184.951963 
L 54.807767 177.394413 
L 55.515408 161.134295 
L 57.188014 122.415812 
L 58.024317 107.724208 
L 58.731958 98.767764 
L 59.375268 93.024988 
L 61.369529 79.294362 
L 63.106466 71.929011 
L 64.907735 67.452463 
L 65.422383 66.938851 
L 65.937031 65.875767 
L 66.451679 65.035171 
L 67.030658 64.458471 
L 67.995623 63.670498 
L 68.510271 63.03615 
L 68.896257 63.035929 
L 69.282243 62.930696 
L 69.73256 62.757199 
L 69.925553 62.936631 
L 70.247208 63.669339 
L 70.954849 65.341095 
L 72.3058 68.187651 
L 73.013442 69.527235 
L 73.592421 70.151123 
L 74.107069 70.375012 
L 74.943372 70.427209 
L 86.715946 70.552931 
L 87.101932 70.933692 
L 87.423587 71.554024 
L 87.809573 72.824625 
L 88.25989 75.133737 
L 88.838869 79.448415 
L 89.739503 88.124862 
L 92.312744 113.684314 
L 93.277709 119.98588 
L 94.242674 124.707378 
L 95.143308 128.182264 
L 96.172604 131.14658 
L 96.944576 132.613993 
L 98.231196 134.19058 
L 99.003168 134.917636 
L 99.775141 135.413842 
L 100.99743 136.117366 
L 101.512078 136.784361 
L 101.962395 137.739144 
L 102.477043 139.390438 
L 103.184684 142.550018 
L 104.664297 149.36863 
L 105.307607 151.239821 
L 105.757924 151.987836 
L 106.208241 152.366226 
L 106.722889 152.52376 
L 107.945178 152.551146 
L 117.015851 152.457778 
L 117.401837 152.20505 
L 117.723492 151.680109 
L 118.045147 150.661876 
L 118.431133 148.487955 
L 118.817119 144.909483 
L 119.331767 137.840181 
L 120.489725 117.620996 
L 121.712014 98.301877 
L 122.483986 89.722356 
L 123.191627 84.200144 
L 124.413916 77.221727 
L 125.121557 74.18896 
L 126.665502 69.172258 
L 127.308812 67.533292 
L 127.759129 66.954324 
L 128.145115 66.450013 
L 129.431735 64.359089 
L 130.010714 63.941608 
L 130.3967 63.676144 
L 131.554658 62.196543 
L 132.133637 61.44628 
L 132.390961 61.42439 
L 132.841278 61.673364 
L 133.355926 61.913595 
L 133.806243 62.094864 
L 134.578215 62.773977 
L 135.028533 63.413378 
L 135.800505 65.052313 
L 137.40878 68.192633 
L 137.859097 68.632518 
L 138.373745 68.824008 
L 139.33871 68.887815 
L 151.111284 69.023003 
L 151.49727 69.493358 
L 151.883256 70.387431 
L 152.333573 72.148797 
L 152.783891 74.872548 
L 153.427201 80.281876 
L 154.456497 91.253467 
L 156.193434 109.601927 
L 157.094068 116.486259 
L 157.930371 121.157345 
L 158.766674 124.864946 
L 159.79597 128.441347 
L 160.760935 130.997843 
L 161.404245 132.113535 
L 162.819528 134.072494 
L 163.848824 135.230887 
L 164.749458 135.831482 
L 165.650092 136.482074 
L 166.036078 137.119813 
L 166.550726 138.482897 
L 167.194036 140.806504 
L 167.901677 144.280883 
L 168.930973 149.217052 
L 169.509952 151.075085 
L 170.0246 152.063335 
L 170.474918 152.497932 
L 170.989566 152.678609 
L 172.018862 152.713375 
L 181.411189 152.615129 
L 181.732844 152.384003 
L 182.054499 151.831353 
L 182.376154 150.750894 
L 182.76214 148.437479 
L 183.212457 143.985244 
L 183.791436 135.520866 
L 186.171683 97.022742 
L 186.879324 89.132539 
L 187.586965 83.947485 
L 188.423269 79.421959 
L 190.288868 71.215353 
L 190.932178 69.765922 
L 191.575488 68.37536 
L 192.476122 66.327833 
L 193.055101 65.42214 
L 193.698411 64.47007 
L 194.148728 64.04349 
L 194.9207 63.670861 
L 195.435348 63.516221 
L 195.757003 63.209108 
L 196.593306 62.213031 
L 197.043624 61.950983 
L 197.879927 61.238835 
L 198.201582 61.442559 
L 198.651899 62.016955 
L 199.166547 62.985483 
L 201.160808 67.599781 
L 201.868449 68.482039 
L 202.447428 68.865778 
L 203.090738 69.000604 
L 205.535316 69.011263 
L 215.184968 69.11508 
L 215.570954 69.499809 
L 216.021271 70.346161 
L 216.471588 71.788602 
L 216.921905 74.049896 
L 217.500884 78.355982 
L 218.272856 85.923076 
L 220.717434 111.360695 
L 221.489406 116.915036 
L 222.776026 124.142425 
L 223.547998 127.062441 
L 224.512964 129.93987 
L 225.220605 131.516543 
L 227.021873 134.585835 
L 227.47219 134.984906 
L 230.174092 136.674754 
L 230.624409 137.608604 
L 231.139057 139.216161 
L 231.846698 142.37266 
L 233.390643 149.598169 
L 233.969622 151.247662 
L 234.48427 152.055613 
L 234.934587 152.384304 
L 235.513566 152.510992 
L 236.349869 152.524592 
L 236.349869 152.524592 
" clip-path="url(#p472a2b8cfc)" style="fill: none; stroke: #ff7f0e; stroke-width: 0.5; stroke-linecap: square"/>
   </g>
   <g id="line2d_16">
    <path d="M 43.356847 17.475779 
L 53.328153 17.369175 
L 54.550442 17.267004 
L 57.059352 17.299537 
L 57.702662 17.418624 
L 58.088648 17.806956 
L 58.667627 18.461323 
L 58.924951 18.480238 
L 59.182275 18.232693 
L 59.889916 17.286769 
L 60.211571 17.307992 
L 61.43386 17.704344 
L 62.72048 17.0721 
L 63.36379 17.188496 
L 64.007101 17.307573 
L 64.521749 17.141262 
L 65.615376 16.72361 
L 65.937031 16.882019 
L 66.387348 17.068291 
L 67.030658 16.978885 
L 67.480975 16.670877 
L 68.252947 16.079968 
L 68.510271 16.183203 
L 68.960588 16.700584 
L 69.603898 17.415659 
L 69.989884 17.504156 
L 71.469497 17.299241 
L 72.177138 17.050008 
L 72.563125 17.167416 
L 73.978407 17.92117 
L 74.364393 17.755322 
L 75.586682 17.028213 
L 75.972668 17.150447 
L 77.38795 17.913701 
L 77.838267 17.718597 
L 79.060556 17.035902 
L 79.575204 17.091177 
L 80.347176 17.452582 
L 81.312142 17.855778 
L 82.019783 17.919036 
L 82.791755 17.763563 
L 85.364995 17.016561 
L 86.32996 17.160553 
L 86.97327 17.447987 
L 87.873904 17.793844 
L 89.289186 17.946325 
L 89.675172 17.735984 
L 91.090455 16.648777 
L 91.540772 16.653306 
L 93.406371 17.059236 
L 94.821653 17.606239 
L 95.336301 17.654873 
L 95.979611 17.446546 
L 96.622921 17.323048 
L 97.459224 17.109103 
L 99.775141 16.82692 
L 102.92736 17.938135 
L 103.699332 17.934685 
L 105.307607 17.663683 
L 107.880847 17.23212 
L 108.974475 17.353884 
L 111.161729 17.706048 
L 111.933701 17.513972 
L 113.027328 17.232145 
L 113.606307 17.350759 
L 114.828596 17.717366 
L 115.407575 17.561597 
L 116.436871 17.234683 
L 116.95152 17.349024 
L 118.366802 17.833308 
L 119.074443 17.716301 
L 120.039408 17.568691 
L 121.068704 17.590626 
L 121.390359 17.68855 
L 122.162331 18.100553 
L 122.483986 17.885494 
L 122.998634 17.572532 
L 123.38462 17.633023 
L 124.413916 18.02453 
L 124.799902 17.775798 
L 125.185888 17.170985 
L 125.636205 16.597326 
L 125.89353 16.593774 
L 126.150854 16.835174 
L 126.729833 17.831156 
L 127.115819 18.317789 
L 127.373143 18.322167 
L 127.694798 17.998381 
L 128.209446 17.485013 
L 128.724094 17.379997 
L 129.238742 17.436468 
L 130.139376 17.698726 
L 131.490327 17.22761 
L 131.811982 17.408893 
L 132.648285 18.069588 
L 132.905609 17.853533 
L 133.677581 16.872701 
L 133.999236 16.895549 
L 134.513884 17.21507 
L 135.285857 17.787429 
L 135.671843 17.743337 
L 136.958463 17.240055 
L 137.537442 17.563401 
L 138.180752 17.869224 
L 138.566738 17.827192 
L 139.081386 17.508223 
L 139.789027 17.085867 
L 140.175013 17.09481 
L 140.62533 17.337769 
L 141.525964 17.873872 
L 141.976281 17.829783 
L 142.619591 17.453522 
L 143.327232 17.09817 
L 143.841881 17.08509 
L 144.549522 17.340845 
L 145.836142 17.839608 
L 146.608114 17.873719 
L 147.444417 17.682203 
L 149.631671 17.051435 
L 150.596636 17.114156 
L 151.368608 17.412665 
L 153.105546 18.047228 
L 154.906814 18.148709 
L 155.421462 17.913677 
L 156.000441 17.683209 
L 157.029737 17.583375 
L 157.86604 17.395971 
L 158.638012 17.230615 
L 159.345653 17.37506 
L 161.918894 18.383136 
L 162.690866 18.164392 
L 163.334176 17.636806 
L 163.977486 17.223022 
L 164.87812 16.956479 
L 165.971747 17.068189 
L 167.129705 17.518581 
L 168.223332 17.977239 
L 169.059635 17.95396 
L 170.088931 17.73575 
L 172.53351 17.04856 
L 173.305482 17.16642 
L 174.334778 17.576557 
L 175.299743 17.89458 
L 175.878722 17.835354 
L 176.522032 17.4985 
L 177.358335 17.063196 
L 177.808652 17.104444 
L 178.3233 17.421394 
L 179.095272 17.887284 
L 179.481259 17.861479 
L 179.995907 17.546125 
L 180.767879 17.069967 
L 181.153865 17.094078 
L 181.604182 17.363546 
L 182.504816 17.954963 
L 182.890802 17.897092 
L 183.276788 17.59362 
L 184.113091 16.864034 
L 184.434746 16.854613 
L 184.885063 17.110252 
L 185.850028 17.771784 
L 186.171683 17.539173 
L 186.879324 16.980733 
L 187.329641 16.972973 
L 187.779958 17.174054 
L 188.230276 17.362635 
L 188.4876 17.200648 
L 189.13091 16.683027 
L 189.452565 16.729635 
L 189.77422 16.975862 
L 190.160206 17.606843 
L 190.610523 18.293919 
L 190.867847 18.314713 
L 191.189502 18.039693 
L 192.025805 17.11581 
L 192.283129 17.181569 
L 192.862108 17.675126 
L 193.312425 17.988971 
L 193.63408 17.943309 
L 194.148728 17.559231 
L 194.856369 17.014127 
L 195.113693 17.163513 
L 195.499679 17.764154 
L 196.014327 18.582602 
L 196.271651 18.605612 
L 196.721968 18.291682 
L 197.365279 17.764802 
L 197.622603 17.935105 
L 198.137251 18.379443 
L 198.587568 18.380831 
L 199.423871 18.119353 
L 200.774822 17.599345 
L 202.125773 18.004529 
L 202.57609 17.68068 
L 203.412393 16.997273 
L 203.798379 16.983783 
L 204.184365 17.214793 
L 205.213661 17.986143 
L 205.599647 17.924572 
L 206.114296 17.537647 
L 206.821937 17.014365 
L 207.272254 16.97313 
L 207.786902 17.208905 
L 209.073522 17.949531 
L 209.652501 17.981099 
L 210.360142 17.774812 
L 212.547396 16.960809 
L 213.255037 17.030105 
L 214.220002 17.392203 
L 216.085602 18.009302 
L 216.60025 17.970201 
L 217.050567 17.710657 
L 218.079863 16.950074 
L 218.658842 16.853597 
L 219.044828 17.043039 
L 219.881131 17.847111 
L 220.46011 18.307943 
L 220.910427 18.360932 
L 221.74673 18.121335 
L 222.647364 17.622574 
L 223.933985 16.505623 
L 224.512964 16.586756 
L 225.156274 16.771564 
L 225.928246 17.304336 
L 226.764549 18.032736 
L 227.536521 18.360684 
L 228.051169 18.378944 
L 228.694479 18.125041 
L 230.624409 17.095248 
L 231.267719 17.248382 
L 234.098284 18.009989 
L 234.741594 17.932505 
L 235.706559 17.536298 
L 236.349869 17.235357 
L 236.349869 17.235357 
" clip-path="url(#p472a2b8cfc)" style="fill: none; stroke: #2ca02c; stroke-width: 0.5; stroke-linecap: square"/>
   </g>
   <g id="line2d_17">
    <path d="M 43.356847 17.475779 
L 57.123683 17.387106 
L 57.638331 16.983113 
L 58.024317 16.684151 
L 58.21731 16.757782 
L 58.538965 17.18608 
L 59.375268 18.548142 
L 59.568261 18.371161 
L 60.275902 17.337634 
L 60.726219 17.261208 
L 61.047874 17.440954 
L 61.626853 17.83517 
L 61.948508 17.766227 
L 62.656149 17.484273 
L 63.299459 17.408744 
L 64.007101 17.425314 
L 65.358052 17.573235 
L 65.744038 17.278924 
L 66.065693 17.117694 
L 66.387348 17.288794 
L 67.223651 17.732657 
L 67.866961 17.869912 
L 68.124285 17.608676 
L 68.767595 16.732086 
L 69.024919 16.760873 
L 69.410905 17.080096 
L 69.989884 17.545096 
L 71.855483 17.637459 
L 73.077773 17.061563 
L 73.52809 17.227151 
L 74.750379 17.923791 
L 75.136365 17.797793 
L 76.551647 17.043216 
L 77.001964 17.267887 
L 78.03126 17.910247 
L 78.481577 17.870362 
L 79.124887 17.518357 
L 79.96119 17.088481 
L 80.540169 17.034661 
L 81.24781 17.213987 
L 83.370734 17.918114 
L 84.142706 17.854401 
L 85.107671 17.523453 
L 86.587284 17.023409 
L 87.294925 17.137528 
L 87.938235 17.437709 
L 88.645876 17.782353 
L 89.675172 17.97922 
L 91.605103 17.636401 
L 92.184082 17.316775 
L 92.891723 16.981792 
L 93.535033 16.962769 
L 94.885984 17.265151 
L 95.593625 17.575376 
L 96.494259 18.07019 
L 97.2019 17.970817 
L 97.652217 17.733077 
L 98.745844 17.01318 
L 99.453486 16.729219 
L 99.968134 16.856288 
L 100.482782 16.84488 
L 100.99743 16.882977 
L 103.120353 17.484179 
L 104.985952 17.648188 
L 106.465565 17.71159 
L 107.623523 17.529983 
L 109.424792 17.232879 
L 110.325426 17.320714 
L 112.384018 17.685566 
L 113.15599 17.417472 
L 113.863631 17.232792 
L 114.378279 17.317996 
L 115.72923 17.712437 
L 116.308209 17.5339 
L 117.273175 17.20974 
L 117.852154 17.331552 
L 118.88145 17.580657 
L 120.16807 17.555678 
L 121.004373 17.363335 
L 121.647683 17.190497 
L 121.905007 17.39833 
L 122.483986 17.97442 
L 122.74131 17.861617 
L 123.191627 17.265696 
L 123.513282 16.977502 
L 123.770606 17.053964 
L 124.349585 17.702298 
L 125.185888 18.376712 
L 125.378881 18.280463 
L 125.636205 17.830005 
L 126.343847 16.37323 
L 126.601171 16.299249 
L 126.858495 16.582278 
L 127.244481 17.486801 
L 127.630467 18.216964 
L 127.82346 18.243946 
L 128.080784 17.988711 
L 128.531101 17.537527 
L 129.689059 17.13927 
L 130.525362 17.535346 
L 130.847017 17.573668 
L 131.168672 17.590082 
L 131.554658 17.247015 
L 132.004975 16.949235 
L 132.262299 17.030681 
L 132.519623 17.426003 
L 133.098602 18.422329 
L 133.291595 18.312811 
L 134.578215 16.846082 
L 134.83554 16.883551 
L 135.221526 17.24114 
L 135.929167 17.882889 
L 136.250822 17.859771 
L 136.701139 17.540941 
L 137.280118 17.142746 
L 137.666104 17.127005 
L 138.116421 17.349112 
L 139.017055 17.878635 
L 139.403041 17.832998 
L 139.917689 17.512468 
L 140.62533 17.087547 
L 141.011316 17.092002 
L 141.525964 17.369513 
L 142.362267 17.859548 
L 142.812584 17.860562 
L 143.391563 17.604037 
L 144.42086 17.112567 
L 145.06417 17.078224 
L 145.836142 17.282391 
L 147.701741 17.871219 
L 148.473713 17.849035 
L 149.438678 17.574943 
L 151.175615 17.046918 
L 151.883256 17.182051 
L 153.298539 17.442349 
L 154.199173 17.665297 
L 154.906814 17.802783 
L 156.064772 17.884352 
L 157.287061 18.229981 
L 157.86604 18.142646 
L 158.573681 17.793979 
L 159.602977 16.966749 
L 160.181956 16.648636 
L 160.632273 16.66371 
L 162.369211 17.256837 
L 164.23481 17.958454 
L 165.135444 17.532859 
L 166.422064 17.036155 
L 167.387029 17.224346 
L 171.24689 17.87143 
L 172.211855 17.589675 
L 173.884461 17.060159 
L 174.592102 17.105426 
L 175.299743 17.390384 
L 176.457701 17.898274 
L 176.908018 17.838463 
L 177.486997 17.494503 
L 178.258969 17.061089 
L 178.644955 17.093237 
L 179.159603 17.410217 
L 179.931576 17.885917 
L 180.317562 17.862925 
L 180.767879 17.595617 
L 181.668513 17.024181 
L 182.054499 17.049191 
L 182.504816 17.324327 
L 183.534112 18.098077 
L 183.855767 17.999617 
L 184.241753 17.611326 
L 184.820732 16.979056 
L 185.142387 16.952 
L 185.464042 17.208647 
L 186.236014 18.077324 
L 186.493338 17.983997 
L 187.715627 17.100738 
L 187.972951 17.293246 
L 188.680593 18.092337 
L 188.873586 17.950983 
L 189.967213 16.646531 
L 190.224537 16.641691 
L 190.481861 17.007503 
L 191.125171 18.141928 
L 191.446826 18.334729 
L 191.639819 18.236538 
L 191.961474 17.71429 
L 192.411791 17.096017 
L 192.797777 16.937059 
L 193.055101 17.018643 
L 193.569749 17.623629 
L 194.020066 17.968644 
L 194.406052 18.012506 
L 194.663376 17.800824 
L 195.628341 16.531358 
L 195.821334 16.767257 
L 196.657637 18.139845 
L 196.914961 18.135552 
L 197.172286 17.808909 
L 197.686934 17.022649 
L 197.879927 17.092754 
L 198.780561 17.787082 
L 199.616864 17.714086 
L 200.324505 17.5492 
L 201.225139 17.099782 
L 201.611125 17.265255 
L 202.769083 18.000707 
L 203.155069 17.874624 
L 203.734048 17.37082 
L 204.313027 16.978009 
L 204.699013 17.004634 
L 205.14933 17.321673 
L 205.985634 17.963638 
L 206.37162 17.96656 
L 206.821937 17.713358 
L 207.915564 16.989061 
L 208.365881 16.975004 
L 208.94486 17.194131 
L 210.617466 17.96095 
L 211.325107 17.970378 
L 212.097079 17.743725 
L 214.09134 17.007302 
L 214.798981 17.079607 
L 217.629546 17.728266 
L 218.144194 17.414767 
L 219.17349 16.654012 
L 219.688138 16.672348 
L 220.46011 17.040436 
L 221.232082 17.711276 
L 222.325709 18.553895 
L 222.711695 18.683483 
L 223.097681 18.536591 
L 224.191309 17.700228 
L 225.156274 16.895375 
L 225.670922 16.778542 
L 227.021873 16.940763 
L 228.308493 17.669804 
L 229.144796 17.875254 
L 229.723775 17.773495 
L 231.396381 17.10955 
L 232.811664 17.044311 
L 233.583636 17.29013 
L 235.513566 17.970043 
L 236.221207 17.959681 
L 236.349869 17.934196 
L 236.349869 17.934196 
" clip-path="url(#p472a2b8cfc)" style="fill: none; stroke: #d62728; stroke-width: 0.5; stroke-linecap: square"/>
   </g>
   <g id="patch_3">
    <path d="M 33.707196 202.559296 
L 33.707196 7.2 
" style="fill: none; stroke: #000000; stroke-width: 0.8; stroke-linejoin: miter; stroke-linecap: square"/>
   </g>
   <g id="patch_4">
    <path d="M 245.99952 202.559296 
L 245.99952 7.2 
" style="fill: none; stroke: #000000; stroke-width: 0.8; stroke-linejoin: miter; stroke-linecap: square"/>
   </g>
   <g id="patch_5">
    <path d="M 33.707196 202.559296 
L 245.99952 202.559296 
" style="fill: none; stroke: #000000; stroke-width: 0.8; stroke-linejoin: miter; stroke-linecap: square"/>
   </g>
   <g id="patch_6">
    <path d="M 33.707196 7.2 
L 245.99952 7.2 
" style="fill: none; stroke: #000000; stroke-width: 0.8; stroke-linejoin: miter; stroke-linecap: square"/>
   </g>
   <g id="legend_1">
    <g id="patch_7">
     <path d="M 193.792605 198.059296 
L 239.69952 198.059296 
Q 241.49952 198.059296 241.49952 196.259296 
L 241.49952 156.760168 
Q 241.49952 154.960168 239.69952 154.960168 
L 193.792605 154.960168 
Q 191.992605 154.960168 191.992605 156.760168 
L 191.992605 196.259296 
Q 191.992605 198.059296 193.792605 198.059296 
z
" style="fill: #ffffff; opacity: 0.8; stroke: #cccccc; stroke-width: 0.24; stroke-linejoin: miter"/>
    </g>
    <g id="line2d_18">
     <path d="M 195.592605 162.13495 
L 204.592605 162.13495 
L 213.592605 162.13495 
" style="fill: none; stroke: #ff7f0e; stroke-width: 0.5; stroke-linecap: square"/>
    </g>
    <g id="text_16">
     <!-- $\langle \sigma_z\rangle$ -->
     <g transform="translate(220.792605 165.28495) scale(0.09 -0.09)">
      <defs>
       <path id="CMSY10-68" d="M 2099 4557 
C 2131 4627 2131 4640 2131 4672 
C 2131 4742 2074 4800 2003 4800 
C 1946 4800 1901 4768 1856 4653 
L 736 1715 
C 723 1677 704 1638 704 1600 
C 704 1581 704 1568 736 1491 
L 1856 -1446 
C 1882 -1517 1914 -1600 2003 -1600 
C 2074 -1600 2131 -1542 2131 -1472 
C 2131 -1453 2131 -1440 2099 -1370 
L 966 1600 
L 2099 4557 
z
" transform="scale(0.015625)"/>
       <path id="CMMI12-1b" d="M 3251 2408 
C 3334 2408 3546 2408 3546 2612 
C 3546 2752 3424 2752 3309 2752 
L 1894 2752 
C 934 2752 243 1686 243 932 
C 243 390 595 -64 1171 -64 
C 1926 -64 2752 747 2752 1705 
C 2752 1954 2694 2196 2541 2408 
L 3251 2408 
z
M 1178 64 
C 851 64 614 313 614 754 
C 614 1137 845 2408 1786 2408 
C 2061 2408 2368 2274 2368 1781 
C 2368 1558 2266 1021 2042 652 
C 1811 275 1466 64 1178 64 
z
" transform="scale(0.015625)"/>
       <path id="CMMI12-7a" d="M 813 486 
C 1088 803 1312 1004 1632 1296 
C 2016 1632 2182 1793 2272 1891 
C 2720 2338 2944 2713 2944 2764 
C 2944 2816 2893 2816 2880 2816 
C 2835 2816 2822 2793 2790 2750 
C 2630 2494 2477 2367 2310 2367 
C 2176 2367 2106 2421 1984 2565 
C 1850 2715 1741 2816 1555 2816 
C 1088 2816 806 2257 806 2128 
C 806 2108 813 2068 870 2068 
C 922 2068 928 2091 947 2133 
C 1056 2372 1363 2414 1485 2414 
C 1619 2414 1747 2376 1882 2327 
C 2125 2240 2227 2240 2291 2240 
C 2336 2240 2362 2240 2394 2246 
C 2182 1994 1837 1683 1549 1418 
L 902 816 
C 512 415 275 33 275 -12 
C 275 -51 307 -64 346 -64 
C 384 -64 390 -57 435 14 
C 538 163 742 384 979 384 
C 1114 384 1178 342 1306 193 
C 1427 61 1536 -64 1741 -64 
C 2368 -64 2726 732 2726 876 
C 2726 903 2720 942 2656 942 
C 2605 942 2598 917 2579 855 
C 2438 488 2061 338 1811 338 
C 1677 338 1549 376 1414 425 
C 1158 512 1088 512 1005 512 
C 941 512 870 512 813 486 
z
" transform="scale(0.015625)"/>
       <path id="CMSY10-69" d="M 1747 1491 
C 1779 1568 1779 1581 1779 1600 
C 1779 1619 1779 1632 1747 1709 
L 627 4653 
C 589 4762 550 4800 480 4800 
C 410 4800 352 4742 352 4672 
C 352 4653 352 4640 384 4570 
L 1517 1600 
L 384 -1357 
C 352 -1427 352 -1440 352 -1472 
C 352 -1542 410 -1600 480 -1600 
C 563 -1600 589 -1536 614 -1472 
L 1747 1491 
z
" transform="scale(0.015625)"/>
      </defs>
      <use xlink:href="#CMSY10-68" transform="scale(0.996264)"/>
      <use xlink:href="#CMMI12-1b" transform="translate(38.743734 0) scale(0.996264)"/>
      <use xlink:href="#CMMI12-7a" transform="translate(94.189195 -14.943915) scale(0.697382)"/>
      <use xlink:href="#CMSY10-69" transform="translate(129.51575 0) scale(0.996264)"/>
     </g>
    </g>
    <g id="line2d_19">
     <path d="M 195.592605 175.601326 
L 204.592605 175.601326 
L 213.592605 175.601326 
" style="fill: none; stroke: #2ca02c; stroke-width: 0.5; stroke-linecap: square"/>
    </g>
    <g id="text_17">
     <!-- $\langle \sigma_x\rangle$ -->
     <g transform="translate(220.792605 178.751326) scale(0.09 -0.09)">
      <defs>
       <path id="CMMI12-78" d="M 3034 2606 
C 2829 2567 2752 2414 2752 2293 
C 2752 2139 2874 2088 2963 2088 
C 3155 2088 3290 2254 3290 2427 
C 3290 2695 2982 2816 2714 2816 
C 2323 2816 2106 2433 2048 2312 
C 1901 2816 1504 2816 1389 2816 
C 736 2816 390 1980 390 1839 
C 390 1814 416 1782 461 1782 
C 512 1782 525 1820 538 1846 
C 755 2555 1184 2689 1370 2689 
C 1658 2689 1715 2420 1715 2267 
C 1715 2127 1677 1980 1600 1673 
L 1382 798 
C 1286 415 1101 64 762 64 
C 730 64 570 64 435 147 
C 666 192 717 383 717 460 
C 717 588 621 664 499 664 
C 346 664 179 530 179 326 
C 179 57 480 -64 755 -64 
C 1062 -64 1280 179 1414 441 
C 1517 64 1837 -64 2074 -64 
C 2726 -64 3072 773 3072 913 
C 3072 945 3046 971 3008 971 
C 2950 971 2944 939 2925 888 
C 2752 326 2381 64 2093 64 
C 1869 64 1747 230 1747 492 
C 1747 632 1773 734 1875 1156 
L 2099 2024 
C 2195 2408 2413 2689 2707 2689 
C 2720 2689 2899 2689 3034 2606 
z
" transform="scale(0.015625)"/>
      </defs>
      <use xlink:href="#CMSY10-68" transform="scale(0.996264)"/>
      <use xlink:href="#CMMI12-1b" transform="translate(38.743734 0) scale(0.996264)"/>
      <use xlink:href="#CMMI12-78" transform="translate(94.189195 -14.943915) scale(0.697382)"/>
      <use xlink:href="#CMSY10-69" transform="translate(133.490986 0) scale(0.996264)"/>
     </g>
    </g>
    <g id="line2d_20">
     <path d="M 195.592605 189.067702 
L 204.592605 189.067702 
L 213.592605 189.067702 
" style="fill: none; stroke: #d62728; stroke-width: 0.5; stroke-linecap: square"/>
    </g>
    <g id="text_18">
     <!-- $\langle \sigma_y\rangle$ -->
     <g transform="translate(220.792605 192.217702) scale(0.09 -0.09)">
      <defs>
       <path id="CMMI12-79" d="M 1683 -700 
C 1510 -939 1261 -1152 947 -1152 
C 870 -1152 563 -1152 467 -889 
C 486 -895 518 -895 531 -895 
C 723 -895 851 -729 851 -582 
C 851 -435 730 -384 634 -384 
C 531 -384 307 -458 307 -759 
C 307 -1071 582 -1286 947 -1286 
C 1587 -1286 2234 -700 2413 6 
L 3040 2485 
C 3046 2517 3059 2556 3059 2594 
C 3059 2689 2982 2753 2886 2753 
C 2829 2753 2694 2727 2643 2535 
L 2170 658 
C 2138 543 2138 530 2086 460 
C 1958 281 1747 64 1440 64 
C 1082 64 1050 415 1050 588 
C 1050 952 1222 1443 1395 1903 
C 1466 2088 1504 2178 1504 2305 
C 1504 2574 1312 2816 998 2816 
C 410 2816 173 1890 173 1839 
C 173 1814 198 1782 243 1782 
C 301 1782 307 1807 333 1897 
C 486 2433 730 2689 979 2689 
C 1037 2689 1146 2689 1146 2478 
C 1146 2312 1075 2127 979 1884 
C 666 1047 666 837 666 683 
C 666 77 1101 -64 1421 -64 
C 1606 -64 1837 -6 2061 230 
L 2067 224 
C 1971 -147 1907 -392 1683 -700 
z
" transform="scale(0.015625)"/>
      </defs>
      <use xlink:href="#CMSY10-68" transform="scale(0.996264)"/>
      <use xlink:href="#CMMI12-1b" transform="translate(38.743734 0) scale(0.996264)"/>
      <use xlink:href="#CMMI12-79" transform="translate(94.189195 -14.943915) scale(0.697382)"/>
      <use xlink:href="#CMSY10-69" transform="translate(130.484301 0) scale(0.996264)"/>
     </g>
    </g>
   </g>
  </g>
 </g>
 <defs>
  <clipPath id="p472a2b8cfc">
   <rect x="33.707196" y="7.2" width="212.292324" height="195.359296"/>
  </clipPath>
 </defs>
</svg>
