<?xml version="1.0" encoding="utf-8" standalone="no"?>
<!DOCTYPE svg PUBLIC "-//W3C//DTD SVG 1.1//EN"
  "http://www.w3.org/Graphics/SVG/1.1/DTD/svg11.dtd">
<svg xmlns:xlink="http://www.w3.org/1999/xlink" width="253.19952pt" height="238.79952pt" viewBox="0 0 253.19952 238.79952" xmlns="http://www.w3.org/2000/svg" version="1.1">
 <metadata>
  <rdf:RDF xmlns:dc="http://purl.org/dc/elements/1.1/" xmlns:cc="http://creativecommons.org/ns#" xmlns:rdf="http://www.w3.org/1999/02/22-rdf-syntax-ns#">
   <cc:Work>
    <dc:type rdf:resource="http://purl.org/dc/dcmitype/StillImage"/>
    <dc:date>1980-01-01T00:00:00+00:00</dc:date>
    <dc:format>image/svg+xml</dc:format>
    <dc:creator>
     <cc:Agent>
      <dc:title>Matplotlib v3.6.2, https://matplotlib.org/</dc:title>
     </cc:Agent>
    </dc:creator>
   </cc:Work>
  </rdf:RDF>
 </metadata>
 <defs>
  <style type="text/css">*{stroke-linejoin: round; stroke-linecap: butt}</style>
 </defs>
 <g id="figure_1">
  <g id="patch_1">
   <path d="M 0 238.79952 
L 253.19952 238.79952 
L 253.19952 0 
L 0 0 
z
" style="fill: #ffffff"/>
  </g>
  <g id="axes_1">
   <g id="patch_2">
    <path d="M 33.707196 202.559296 
L 245.99952 202.559296 
L 245.99952 7.2 
L 33.707196 7.2 
z
" style="fill: #ffffff"/>
   </g>
   <g id="matplotlib.axis_1">
    <g id="xtick_1">
     <g id="line2d_1">
      <defs>
       <path id="maf945b7a47" d="M 0 0 
L 0 3.5 
" style="stroke: #000000; stroke-width: 0.8"/>
      </defs>
      <g>
       <use xlink:href="#maf945b7a47" x="43.356847" y="202.559296" style="stroke: #000000; stroke-width: 0.8"/>
      </g>
     </g>
     <g id="text_1">
      <!-- $\mathdefault{0}$ -->
      <g transform="translate(41.239756 217.194098) scale(0.08 -0.08)">
       <defs>
        <path id="CMR17-30" d="M 2688 2025 
C 2688 2416 2682 3080 2413 3591 
C 2176 4039 1798 4198 1466 4198 
C 1158 4198 768 4058 525 3597 
C 269 3118 243 2524 243 2025 
C 243 1661 250 1106 448 619 
C 723 -39 1216 -128 1466 -128 
C 1760 -128 2208 -7 2470 600 
C 2662 1042 2688 1559 2688 2025 
z
M 1466 -26 
C 1056 -26 813 325 723 812 
C 653 1188 653 1738 653 2096 
C 653 2588 653 2997 736 3387 
C 858 3929 1216 4096 1466 4096 
C 1728 4096 2067 3923 2189 3400 
C 2272 3036 2278 2607 2278 2096 
C 2278 1680 2278 1169 2202 792 
C 2067 95 1690 -26 1466 -26 
z
" transform="scale(0.015625)"/>
       </defs>
       <use xlink:href="#CMR17-30" transform="scale(0.996264)"/>
      </g>
     </g>
    </g>
    <g id="xtick_2">
     <g id="line2d_2">
      <g>
       <use xlink:href="#maf945b7a47" x="70.161434" y="202.559296" style="stroke: #000000; stroke-width: 0.8"/>
      </g>
     </g>
     <g id="text_2">
      <!-- $\mathdefault{25}$ -->
      <g transform="translate(65.927251 217.194098) scale(0.08 -0.08)">
       <defs>
        <path id="CMR17-32" d="M 2669 989 
L 2554 989 
C 2490 536 2438 459 2413 420 
C 2381 369 1920 369 1830 369 
L 602 369 
C 832 619 1280 1072 1824 1597 
C 2214 1967 2669 2402 2669 3035 
C 2669 3790 2067 4224 1395 4224 
C 691 4224 262 3604 262 3030 
C 262 2780 448 2748 525 2748 
C 589 2748 781 2787 781 3010 
C 781 3207 614 3264 525 3264 
C 486 3264 448 3258 422 3245 
C 544 3790 915 4058 1306 4058 
C 1862 4058 2227 3617 2227 3035 
C 2227 2479 1901 2000 1536 1584 
L 262 146 
L 262 0 
L 2515 0 
L 2669 989 
z
" transform="scale(0.015625)"/>
        <path id="CMR17-35" d="M 730 3692 
C 794 3666 1056 3584 1325 3584 
C 1920 3584 2246 3911 2432 4100 
C 2432 4157 2432 4192 2394 4192 
C 2387 4192 2374 4192 2323 4163 
C 2099 4058 1837 3973 1517 3973 
C 1325 3973 1037 3999 723 4139 
C 653 4171 640 4171 634 4171 
C 602 4171 595 4164 595 4037 
L 595 2203 
C 595 2089 595 2057 659 2057 
C 691 2057 704 2070 736 2114 
C 941 2401 1222 2522 1542 2522 
C 1766 2522 2246 2382 2246 1289 
C 2246 1085 2246 715 2054 421 
C 1894 159 1645 25 1370 25 
C 947 25 518 320 403 814 
C 429 807 480 795 506 795 
C 589 795 749 840 749 1038 
C 749 1210 627 1280 506 1280 
C 358 1280 262 1190 262 1011 
C 262 454 704 -128 1382 -128 
C 2042 -128 2669 440 2669 1264 
C 2669 2030 2170 2624 1549 2624 
C 1222 2624 947 2503 730 2274 
L 730 3692 
z
" transform="scale(0.015625)"/>
       </defs>
       <use xlink:href="#CMR17-32" transform="scale(0.996264)"/>
       <use xlink:href="#CMR17-35" transform="translate(45.690477 0) scale(0.996264)"/>
      </g>
     </g>
    </g>
    <g id="xtick_3">
     <g id="line2d_3">
      <g>
       <use xlink:href="#maf945b7a47" x="96.96602" y="202.559296" style="stroke: #000000; stroke-width: 0.8"/>
      </g>
     </g>
     <g id="text_3">
      <!-- $\mathdefault{50}$ -->
      <g transform="translate(92.731837 217.194098) scale(0.08 -0.08)">
       <use xlink:href="#CMR17-35" transform="scale(0.996264)"/>
       <use xlink:href="#CMR17-30" transform="translate(45.690477 0) scale(0.996264)"/>
      </g>
     </g>
    </g>
    <g id="xtick_4">
     <g id="line2d_4">
      <g>
       <use xlink:href="#maf945b7a47" x="123.770606" y="202.559296" style="stroke: #000000; stroke-width: 0.8"/>
      </g>
     </g>
     <g id="text_4">
      <!-- $\mathdefault{75}$ -->
      <g transform="translate(119.536423 217.194098) scale(0.08 -0.08)">
       <defs>
        <path id="CMR17-37" d="M 2886 3941 
L 2886 4081 
L 1382 4081 
C 634 4081 621 4165 595 4288 
L 480 4288 
L 294 3094 
L 410 3094 
C 429 3215 474 3540 550 3661 
C 589 3712 1062 3712 1171 3712 
L 2579 3712 
L 1869 2661 
C 1395 1954 1069 999 1069 165 
C 1069 89 1069 -128 1299 -128 
C 1530 -128 1530 89 1530 171 
L 1530 465 
C 1530 1508 1709 2196 2003 2636 
L 2886 3941 
z
" transform="scale(0.015625)"/>
       </defs>
       <use xlink:href="#CMR17-37" transform="scale(0.996264)"/>
       <use xlink:href="#CMR17-35" transform="translate(45.690477 0) scale(0.996264)"/>
      </g>
     </g>
    </g>
    <g id="xtick_5">
     <g id="line2d_5">
      <g>
       <use xlink:href="#maf945b7a47" x="150.575193" y="202.559296" style="stroke: #000000; stroke-width: 0.8"/>
      </g>
     </g>
     <g id="text_5">
      <!-- $\mathdefault{100}$ -->
      <g transform="translate(144.223918 217.194098) scale(0.08 -0.08)">
       <defs>
        <path id="CMR17-31" d="M 1702 4058 
C 1702 4192 1696 4192 1606 4192 
C 1357 3916 979 3827 621 3827 
C 602 3827 570 3827 563 3808 
C 557 3795 557 3782 557 3648 
C 755 3648 1088 3686 1344 3839 
L 1344 461 
C 1344 236 1331 160 781 160 
L 589 160 
L 589 0 
C 896 0 1216 0 1523 0 
C 1830 0 2150 0 2458 0 
L 2458 160 
L 2266 160 
C 1715 160 1702 230 1702 458 
L 1702 4058 
z
" transform="scale(0.015625)"/>
       </defs>
       <use xlink:href="#CMR17-31" transform="scale(0.996264)"/>
       <use xlink:href="#CMR17-30" transform="translate(45.690477 0) scale(0.996264)"/>
       <use xlink:href="#CMR17-30" transform="translate(91.380954 0) scale(0.996264)"/>
      </g>
     </g>
    </g>
    <g id="xtick_6">
     <g id="line2d_6">
      <g>
       <use xlink:href="#maf945b7a47" x="177.379779" y="202.559296" style="stroke: #000000; stroke-width: 0.8"/>
      </g>
     </g>
     <g id="text_6">
      <!-- $\mathdefault{125}$ -->
      <g transform="translate(171.028505 217.194098) scale(0.08 -0.08)">
       <use xlink:href="#CMR17-31" transform="scale(0.996264)"/>
       <use xlink:href="#CMR17-32" transform="translate(45.690477 0) scale(0.996264)"/>
       <use xlink:href="#CMR17-35" transform="translate(91.380954 0) scale(0.996264)"/>
      </g>
     </g>
    </g>
    <g id="xtick_7">
     <g id="line2d_7">
      <g>
       <use xlink:href="#maf945b7a47" x="204.184365" y="202.559296" style="stroke: #000000; stroke-width: 0.8"/>
      </g>
     </g>
     <g id="text_7">
      <!-- $\mathdefault{150}$ -->
      <g transform="translate(197.833091 217.194098) scale(0.08 -0.08)">
       <use xlink:href="#CMR17-31" transform="scale(0.996264)"/>
       <use xlink:href="#CMR17-35" transform="translate(45.690477 0) scale(0.996264)"/>
       <use xlink:href="#CMR17-30" transform="translate(91.380954 0) scale(0.996264)"/>
      </g>
     </g>
    </g>
    <g id="xtick_8">
     <g id="line2d_8">
      <g>
       <use xlink:href="#maf945b7a47" x="230.988952" y="202.559296" style="stroke: #000000; stroke-width: 0.8"/>
      </g>
     </g>
     <g id="text_8">
      <!-- $\mathdefault{175}$ -->
      <g transform="translate(224.637677 217.194098) scale(0.08 -0.08)">
       <use xlink:href="#CMR17-31" transform="scale(0.996264)"/>
       <use xlink:href="#CMR17-37" transform="translate(45.690477 0) scale(0.996264)"/>
       <use xlink:href="#CMR17-35" transform="translate(91.380954 0) scale(0.996264)"/>
      </g>
     </g>
    </g>
    <g id="text_9">
     <!-- $\tau$ -->
     <g transform="translate(137.675756 229.662342) scale(0.1 -0.1)">
      <defs>
       <path id="CMMI12-1c" d="M 1837 2408 
L 2899 2408 
C 2982 2408 3194 2408 3194 2612 
C 3194 2752 3072 2752 2957 2752 
L 1197 2752 
C 1050 2752 832 2752 538 2440 
C 371 2255 166 1917 166 1879 
C 166 1841 198 1828 237 1828 
C 282 1828 288 1847 320 1885 
C 653 2408 986 2408 1146 2408 
L 1677 2408 
L 1011 223 
C 979 127 979 114 979 95 
C 979 25 1024 -64 1152 -64 
C 1350 -64 1382 108 1402 203 
L 1837 2408 
z
" transform="scale(0.015625)"/>
      </defs>
      <use xlink:href="#CMMI12-1c" transform="scale(0.996264)"/>
     </g>
    </g>
   </g>
   <g id="matplotlib.axis_2">
    <g id="ytick_1">
     <g id="line2d_9">
      <defs>
       <path id="md823218453" d="M 0 0 
L -3.5 0 
" style="stroke: #000000; stroke-width: 0.8"/>
      </defs>
      <g>
       <use xlink:href="#md823218453" x="33.707196" y="193.679328" style="stroke: #000000; stroke-width: 0.8"/>
      </g>
     </g>
     <g id="text_10">
      <!-- $\mathdefault{−1.0}$ -->
      <g transform="translate(7.2 196.446729) scale(0.08 -0.08)">
       <defs>
        <path id="CMSY10-0" d="M 4218 1472 
C 4326 1472 4442 1472 4442 1600 
C 4442 1728 4326 1728 4218 1728 
L 755 1728 
C 646 1728 531 1728 531 1600 
C 531 1472 646 1472 755 1472 
L 4218 1472 
z
" transform="scale(0.015625)"/>
        <path id="CMMI12-3a" d="M 1178 307 
C 1178 492 1024 619 870 619 
C 685 619 557 466 557 313 
C 557 128 710 0 864 0 
C 1050 0 1178 153 1178 307 
z
" transform="scale(0.015625)"/>
       </defs>
       <use xlink:href="#CMSY10-0" transform="scale(0.996264)"/>
       <use xlink:href="#CMR17-31" transform="translate(77.487468 0) scale(0.996264)"/>
       <use xlink:href="#CMMI12-3a" transform="translate(123.177945 0) scale(0.996264)"/>
       <use xlink:href="#CMR17-30" transform="translate(150.275122 0) scale(0.996264)"/>
      </g>
     </g>
    </g>
    <g id="ytick_2">
     <g id="line2d_10">
      <g>
       <use xlink:href="#md823218453" x="33.707196" y="158.368752" style="stroke: #000000; stroke-width: 0.8"/>
      </g>
     </g>
     <g id="text_11">
      <!-- $\mathdefault{−0.8}$ -->
      <g transform="translate(7.2 161.136153) scale(0.08 -0.08)">
       <defs>
        <path id="CMR17-38" d="M 1741 2264 
C 2144 2467 2554 2773 2554 3263 
C 2554 3841 1990 4179 1472 4179 
C 890 4179 378 3759 378 3180 
C 378 3021 416 2747 666 2505 
C 730 2442 998 2251 1171 2130 
C 883 1983 211 1634 211 934 
C 211 279 838 -128 1459 -128 
C 2144 -128 2720 362 2720 1010 
C 2720 1590 2330 1857 2074 2029 
L 1741 2264 
z
M 902 2822 
C 851 2854 595 3051 595 3351 
C 595 3739 998 4032 1459 4032 
C 1965 4032 2336 3676 2336 3262 
C 2336 2669 1670 2331 1638 2331 
C 1632 2331 1626 2331 1574 2370 
L 902 2822 
z
M 2080 1519 
C 2176 1449 2483 1240 2483 851 
C 2483 381 2010 25 1472 25 
C 890 25 448 438 448 940 
C 448 1443 838 1862 1280 2060 
L 2080 1519 
z
" transform="scale(0.015625)"/>
       </defs>
       <use xlink:href="#CMSY10-0" transform="scale(0.996264)"/>
       <use xlink:href="#CMR17-30" transform="translate(77.487468 0) scale(0.996264)"/>
       <use xlink:href="#CMMI12-3a" transform="translate(123.177945 0) scale(0.996264)"/>
       <use xlink:href="#CMR17-38" transform="translate(150.275122 0) scale(0.996264)"/>
      </g>
     </g>
    </g>
    <g id="ytick_3">
     <g id="line2d_11">
      <g>
       <use xlink:href="#md823218453" x="33.707196" y="123.058176" style="stroke: #000000; stroke-width: 0.8"/>
      </g>
     </g>
     <g id="text_12">
      <!-- $\mathdefault{−0.6}$ -->
      <g transform="translate(7.2 125.825577) scale(0.08 -0.08)">
       <defs>
        <path id="CMR17-36" d="M 678 2176 
C 678 3690 1395 4032 1811 4032 
C 1946 4032 2272 4009 2400 3776 
C 2298 3776 2106 3776 2106 3553 
C 2106 3381 2246 3323 2336 3323 
C 2394 3323 2566 3348 2566 3560 
C 2566 3954 2246 4179 1805 4179 
C 1043 4179 243 3390 243 1984 
C 243 253 966 -128 1478 -128 
C 2099 -128 2688 427 2688 1283 
C 2688 2081 2170 2662 1517 2662 
C 1126 2662 838 2407 678 1960 
L 678 2176 
z
M 1478 25 
C 691 25 691 1200 691 1436 
C 691 1896 909 2560 1504 2560 
C 1613 2560 1926 2560 2138 2120 
C 2253 1870 2253 1609 2253 1289 
C 2253 944 2253 690 2118 434 
C 1978 171 1773 25 1478 25 
z
" transform="scale(0.015625)"/>
       </defs>
       <use xlink:href="#CMSY10-0" transform="scale(0.996264)"/>
       <use xlink:href="#CMR17-30" transform="translate(77.487468 0) scale(0.996264)"/>
       <use xlink:href="#CMMI12-3a" transform="translate(123.177945 0) scale(0.996264)"/>
       <use xlink:href="#CMR17-36" transform="translate(150.275122 0) scale(0.996264)"/>
      </g>
     </g>
    </g>
    <g id="ytick_4">
     <g id="line2d_12">
      <g>
       <use xlink:href="#md823218453" x="33.707196" y="87.7476" style="stroke: #000000; stroke-width: 0.8"/>
      </g>
     </g>
     <g id="text_13">
      <!-- $\mathdefault{−0.4}$ -->
      <g transform="translate(7.2 90.515001) scale(0.08 -0.08)">
       <defs>
        <path id="CMR17-34" d="M 2150 4122 
C 2150 4256 2144 4256 2029 4256 
L 128 1254 
L 128 1088 
L 1779 1088 
L 1779 457 
C 1779 224 1766 160 1318 160 
L 1197 160 
L 1197 0 
C 1402 0 1747 0 1965 0 
C 2182 0 2528 0 2733 0 
L 2733 160 
L 2611 160 
C 2163 160 2150 224 2150 457 
L 2150 1088 
L 2803 1088 
L 2803 1254 
L 2150 1254 
L 2150 4122 
z
M 1798 3703 
L 1798 1254 
L 256 1254 
L 1798 3703 
z
" transform="scale(0.015625)"/>
       </defs>
       <use xlink:href="#CMSY10-0" transform="scale(0.996264)"/>
       <use xlink:href="#CMR17-30" transform="translate(77.487468 0) scale(0.996264)"/>
       <use xlink:href="#CMMI12-3a" transform="translate(123.177945 0) scale(0.996264)"/>
       <use xlink:href="#CMR17-34" transform="translate(150.275122 0) scale(0.996264)"/>
      </g>
     </g>
    </g>
    <g id="ytick_5">
     <g id="line2d_13">
      <g>
       <use xlink:href="#md823218453" x="33.707196" y="52.437024" style="stroke: #000000; stroke-width: 0.8"/>
      </g>
     </g>
     <g id="text_14">
      <!-- $\mathdefault{−0.2}$ -->
      <g transform="translate(7.2 55.204425) scale(0.08 -0.08)">
       <use xlink:href="#CMSY10-0" transform="scale(0.996264)"/>
       <use xlink:href="#CMR17-30" transform="translate(77.487468 0) scale(0.996264)"/>
       <use xlink:href="#CMMI12-3a" transform="translate(123.177945 0) scale(0.996264)"/>
       <use xlink:href="#CMR17-32" transform="translate(150.275122 0) scale(0.996264)"/>
      </g>
     </g>
    </g>
    <g id="ytick_6">
     <g id="line2d_14">
      <g>
       <use xlink:href="#md823218453" x="33.707196" y="17.126448" style="stroke: #000000; stroke-width: 0.8"/>
      </g>
     </g>
     <g id="text_15">
      <!-- $\mathdefault{0.0}$ -->
      <g transform="translate(13.786507 19.893849) scale(0.08 -0.08)">
       <use xlink:href="#CMR17-30" transform="scale(0.996264)"/>
       <use xlink:href="#CMMI12-3a" transform="translate(45.690477 0) scale(0.996264)"/>
       <use xlink:href="#CMR17-30" transform="translate(72.787654 0) scale(0.996264)"/>
      </g>
     </g>
    </g>
   </g>
   <g id="line2d_15">
    <path d="M 43.356847 193.679328 
L 52.684843 193.590141 
L 53.006498 193.373892 
L 53.328153 192.852021 
L 53.649808 191.802075 
L 53.971463 189.970216 
L 54.357449 186.374943 
L 54.807767 179.83056 
L 55.386746 167.84514 
L 58.088648 105.668618 
L 58.796289 96.157608 
L 59.632592 88.002799 
L 60.79055 78.893438 
L 61.626853 74.329714 
L 62.398825 71.295415 
L 63.94277 66.6063 
L 64.58608 65.428501 
L 65.293721 64.073534 
L 65.744038 63.811077 
L 66.130024 63.538174 
L 66.773334 62.559365 
L 67.287982 61.889951 
L 68.059954 61.550243 
L 68.638933 61.517539 
L 69.024919 61.746429 
L 69.346574 61.902424 
L 69.925553 61.953426 
L 70.440201 62.585009 
L 71.01918 63.568559 
L 71.855483 65.005265 
L 72.691787 66.071156 
L 73.399428 66.637428 
L 73.978407 66.794006 
L 75.522351 66.829548 
L 86.265629 66.908053 
L 86.651615 67.234908 
L 86.97327 67.799201 
L 87.423587 69.16379 
L 87.873904 71.312238 
L 88.388552 74.996887 
L 89.031862 81.500138 
L 90.254152 97.302867 
L 91.347779 110.022254 
L 92.441406 120.014281 
L 93.277709 125.796922 
L 94.114012 130.201767 
L 95.207639 134.710514 
L 95.979611 136.96972 
L 96.55859 138.01636 
L 97.909541 139.981729 
L 99.646479 141.727879 
L 101.512078 143.058266 
L 101.962395 143.980337 
L 102.477043 145.601338 
L 103.120353 148.36924 
L 104.664297 155.28866 
L 105.243276 156.863101 
L 105.757924 157.62815 
L 106.208241 157.953614 
L 106.78722 158.091033 
L 108.459827 158.108 
L 117.080182 158.012787 
L 117.466168 157.725023 
L 117.787823 157.201225 
L 118.109478 156.20938 
L 118.431133 154.489382 
L 118.88145 150.564016 
L 119.396098 143.716981 
L 120.16807 129.523485 
L 121.712014 101.150823 
L 122.483986 91.160489 
L 123.255958 83.785862 
L 123.963599 78.697111 
L 124.864233 73.762657 
L 125.571874 71.09681 
L 126.408178 68.675742 
L 127.115819 66.529104 
L 127.630467 65.508233 
L 128.273777 64.747983 
L 128.659763 64.267151 
L 129.560397 62.656175 
L 130.3967 61.861561 
L 130.782686 61.893941 
L 131.168672 61.89781 
L 131.554658 61.639837 
L 132.004975 61.387564 
L 132.905609 61.250903 
L 133.548919 60.863331 
L 133.806243 61.028566 
L 134.25656 61.662668 
L 134.899871 62.902043 
L 136.315153 65.588193 
L 136.894132 66.337713 
L 137.601773 66.902886 
L 138.245083 67.147658 
L 139.210048 67.217968 
L 149.56734 67.187258 
L 150.660967 67.224063 
L 151.046953 67.531818 
L 151.368608 68.082412 
L 151.754594 69.235264 
L 152.204911 71.468231 
L 152.71956 75.352231 
L 153.36287 81.994516 
L 154.713821 98.890674 
L 156.064772 114.589588 
L 156.965406 122.116079 
L 157.673047 126.670986 
L 158.50935 130.4079 
L 159.731639 134.938783 
L 160.632273 137.436375 
L 161.339914 138.98992 
L 162.111887 140.044295 
L 162.755197 140.597645 
L 163.527169 141.311388 
L 164.363472 142.004401 
L 165.52143 142.993067 
L 166.100409 143.833974 
L 166.550726 144.935722 
L 167.194036 147.306407 
L 169.445621 156.578363 
L 169.960269 157.491663 
L 170.410587 157.880766 
L 170.989566 158.05857 
L 172.211855 158.087412 
L 181.411189 157.980592 
L 181.797175 157.710972 
L 182.11883 157.175098 
L 182.440485 156.176732 
L 182.826471 154.069128 
L 183.212457 150.612865 
L 183.727105 143.703061 
L 184.499077 129.624989 
L 186.107352 100.217629 
L 186.814993 91.735217 
L 187.844289 81.892259 
L 188.744924 76.693213 
L 189.709889 71.906708 
L 190.739185 68.782547 
L 192.476122 65.052037 
L 193.441087 64.077924 
L 193.955735 63.216541 
L 194.534714 62.241875 
L 194.792038 62.182412 
L 195.306686 62.266417 
L 195.56401 61.994039 
L 196.464644 60.74733 
L 196.786299 60.644443 
L 197.107955 60.783614 
L 197.558272 60.987071 
L 198.008589 61.088632 
L 198.330244 61.510206 
L 199.488202 63.554138 
L 200.131512 64.759292 
L 201.28947 66.258111 
L 201.997111 66.770836 
L 202.704752 66.986434 
L 203.734048 67.052122 
L 215.056306 67.153979 
L 215.442292 67.515306 
L 215.828278 68.265204 
L 216.214264 69.518382 
L 216.60025 71.493504 
L 217.114898 75.371412 
L 217.758208 82.16249 
L 220.653103 116.255453 
L 221.553737 123.48219 
L 222.518702 129.373124 
L 223.226343 132.430294 
L 224.062647 134.971709 
L 225.606591 138.795328 
L 226.314232 139.941208 
L 226.957542 140.579794 
L 229.466451 142.599845 
L 229.916768 143.074266 
L 230.431416 143.868149 
L 230.946064 145.139853 
L 231.460712 147.02166 
L 233.776629 156.48534 
L 234.291277 157.411199 
L 234.741594 157.824773 
L 235.256242 158.001038 
L 236.285538 158.0376 
L 236.349869 158.0376 
L 236.349869 158.0376 
" clip-path="url(#p45021dcd0c)" style="fill: none; stroke: #ff7f0e; stroke-width: 0.5; stroke-linecap: square"/>
   </g>
   <g id="line2d_16">
    <path d="M 43.356847 17.126448 
L 54.164456 17.01854 
L 55.129422 17.013204 
L 55.515408 17.276122 
L 56.480373 18.316414 
L 56.737697 18.096572 
L 57.895655 16.54973 
L 58.21731 16.551438 
L 59.117944 16.70141 
L 59.50393 16.483089 
L 60.082909 16.106847 
L 60.404564 16.167678 
L 61.240867 16.642554 
L 61.498191 16.571699 
L 62.205832 16.174332 
L 62.527487 16.341205 
L 63.428121 16.944698 
L 63.685446 16.891618 
L 64.457418 16.555243 
L 64.779073 16.774194 
L 65.744038 17.736372 
L 66.065693 17.651679 
L 67.80263 16.942513 
L 68.317278 17.228413 
L 69.217912 17.895783 
L 69.475236 17.755795 
L 70.568863 16.813215 
L 70.890518 16.925512 
L 72.241469 17.602658 
L 72.627456 17.361679 
L 73.52809 16.708597 
L 73.914076 16.760791 
L 74.428724 17.095028 
L 75.136365 17.533152 
L 75.522351 17.523096 
L 75.972668 17.268782 
L 76.873302 16.709556 
L 77.259288 16.741095 
L 77.773936 17.037623 
L 78.610239 17.522097 
L 79.060556 17.538441 
L 79.639535 17.321242 
L 80.990486 16.734495 
L 81.698128 16.716991 
L 82.534431 16.934438 
L 84.528692 17.549666 
L 85.364995 17.499639 
L 86.201298 17.266607 
L 86.908939 17.035631 
L 88.517214 16.831555 
L 89.803834 16.331557 
L 90.447145 16.600866 
L 91.733765 17.202352 
L 92.119751 17.334689 
L 92.570068 17.19299 
L 93.98535 16.634753 
L 94.821653 16.670701 
L 96.172604 16.961033 
L 97.459224 17.198183 
L 98.745844 16.86774 
L 99.646479 16.338155 
L 100.35412 16.344154 
L 101.061761 16.638719 
L 101.705071 16.878298 
L 102.477043 17.137355 
L 103.442008 17.673956 
L 104.149649 17.676494 
L 105.050283 17.399538 
L 106.980213 16.699685 
L 107.752185 16.710462 
L 108.588489 16.953505 
L 110.389757 17.573808 
L 110.968736 17.502647 
L 111.612046 17.182852 
L 112.577011 16.687789 
L 113.027328 16.735373 
L 113.541976 17.056871 
L 114.313948 17.553374 
L 114.699934 17.543062 
L 115.150251 17.277387 
L 116.050885 16.688069 
L 116.436871 16.728711 
L 116.887189 17.024432 
L 117.723492 17.603585 
L 118.109478 17.561649 
L 118.624126 17.207295 
L 119.267436 16.781014 
L 119.717753 16.76873 
L 121.712014 17.123672 
L 122.226662 16.950997 
L 122.805641 16.720327 
L 123.255958 16.82811 
L 123.577613 17.043439 
L 124.02793 17.73809 
L 124.349585 18.084261 
L 124.606909 18.085525 
L 124.864233 17.842649 
L 125.636205 16.847453 
L 125.957861 16.863327 
L 127.051488 17.044964 
L 127.82346 17.0414 
L 128.338108 17.209251 
L 128.788425 17.320224 
L 129.11008 17.156797 
L 130.3967 16.128225 
L 130.782686 16.312078 
L 132.519623 17.433152 
L 132.905609 17.171062 
L 133.677581 16.534338 
L 133.999236 16.624125 
L 134.449553 17.049739 
L 135.157195 17.667902 
L 135.414519 17.637688 
L 136.636808 16.962002 
L 137.087125 17.123343 
L 137.859097 17.413022 
L 138.309414 17.346179 
L 139.853358 16.86268 
L 140.432337 17.11403 
L 141.204309 17.414159 
L 141.718957 17.342204 
L 143.327232 16.842516 
L 144.034874 17.031775 
L 145.321494 17.399936 
L 146.157797 17.385051 
L 147.380086 17.105006 
L 148.731037 16.847425 
L 149.824664 16.906226 
L 151.561601 17.377978 
L 152.076249 17.417429 
L 152.912553 17.373788 
L 153.491532 17.386753 
L 154.778152 17.095605 
L 155.485793 17.094587 
L 157.158399 17.751355 
L 157.801709 17.832902 
L 158.316357 17.594149 
L 158.895336 17.03973 
L 159.474315 16.575124 
L 159.79597 16.509107 
L 160.246287 16.748917 
L 161.339914 17.441866 
L 161.854563 17.648463 
L 162.94819 17.903859 
L 163.655831 17.819258 
L 164.813789 17.641432 
L 165.650092 17.103438 
L 167.708684 16.724174 
L 170.796573 17.702978 
L 171.504214 17.52787 
L 172.662172 16.94572 
L 173.562806 16.590269 
L 174.206116 16.566451 
L 174.785095 16.770062 
L 175.685729 17.389802 
L 176.264708 17.684619 
L 176.650694 17.678635 
L 177.101011 17.420366 
L 178.258969 16.547942 
L 178.580624 16.619835 
L 179.030941 16.995433 
L 179.802914 17.669634 
L 180.124569 17.690066 
L 180.510555 17.458134 
L 181.668513 16.51473 
L 182.054499 16.613175 
L 183.341119 17.254627 
L 183.920098 17.126947 
L 184.949394 16.640003 
L 185.721366 16.087111 
L 186.107352 16.153899 
L 186.429007 16.447959 
L 187.458303 17.613793 
L 187.715627 17.6718 
L 187.972951 17.490147 
L 188.937917 16.544074 
L 189.259572 16.687364 
L 189.77422 17.280355 
L 190.224537 17.670795 
L 190.481861 17.57979 
L 190.803516 17.09527 
L 191.253833 16.494936 
L 191.575488 16.438682 
L 192.090136 16.600546 
L 193.827073 17.328168 
L 194.470383 17.302168 
L 194.856369 17.081741 
L 195.628341 16.492812 
L 195.885665 16.553825 
L 196.271651 16.912109 
L 196.914961 17.628729 
L 197.236617 17.59251 
L 197.622603 17.253202 
L 198.137251 16.840305 
L 198.458906 16.800298 
L 198.844892 16.972791 
L 199.295209 17.492005 
L 199.745526 17.901876 
L 200.00285 17.891988 
L 200.324505 17.641906 
L 201.546794 16.346229 
L 201.868449 16.432942 
L 202.254435 16.846016 
L 203.090738 17.86887 
L 203.412393 17.902846 
L 203.734048 17.664375 
L 205.020668 16.331185 
L 205.342323 16.506819 
L 205.856971 17.165471 
L 206.435951 17.8267 
L 206.757606 17.923967 
L 207.079261 17.797523 
L 207.593909 17.283454 
L 208.430212 16.464293 
L 208.880529 16.32835 
L 209.330846 16.427156 
L 209.974156 16.833921 
L 211.389438 17.796261 
L 211.968417 17.924286 
L 212.547396 17.824403 
L 213.255037 17.435043 
L 214.927644 16.367274 
L 215.506623 16.3178 
L 216.214264 16.574561 
L 217.307891 17.200705 
L 217.822539 17.493601 
L 218.337187 17.533346 
L 221.296413 16.771202 
L 222.068385 16.904421 
L 223.933985 17.182477 
L 225.54226 16.398892 
L 227.086204 16.644401 
L 228.565817 17.333933 
L 229.723775 17.750661 
L 230.109761 17.688414 
L 231.33205 17.118974 
L 232.232684 16.94343 
L 232.811664 16.774406 
L 233.583636 16.837043 
L 236.092545 17.473419 
L 236.349869 17.47054 
L 236.349869 17.47054 
" clip-path="url(#p45021dcd0c)" style="fill: none; stroke: #2ca02c; stroke-width: 0.5; stroke-linecap: square"/>
   </g>
   <g id="line2d_17">
    <path d="M 43.356847 17.126448 
L 55.00076 17.052675 
L 55.451077 16.642174 
L 55.837063 16.326713 
L 56.094387 16.393413 
L 56.351711 16.77696 
L 57.059352 18.157279 
L 57.252345 18.120235 
L 57.638331 17.719997 
L 58.281641 17.051642 
L 58.667627 17.061448 
L 59.182275 17.302105 
L 59.696923 17.508718 
L 60.018578 17.344303 
L 60.726219 16.877568 
L 61.176536 17.166146 
L 61.755515 17.557572 
L 62.012839 17.328923 
L 62.72048 16.517658 
L 62.977804 16.61331 
L 63.36379 17.057824 
L 63.814108 17.547673 
L 64.071432 17.540489 
L 64.328756 17.324647 
L 65.100728 16.386308 
L 65.358052 16.657951 
L 65.937031 17.34566 
L 66.258686 17.289503 
L 66.51601 17.300814 
L 67.094989 17.519579 
L 67.416644 17.213017 
L 67.866961 16.793719 
L 68.703264 16.607512 
L 69.024919 16.805582 
L 69.796891 17.585453 
L 70.247208 17.510681 
L 70.633194 17.212755 
L 71.212173 16.823937 
L 71.598159 16.786751 
L 71.919814 16.999103 
L 72.627456 17.565956 
L 73.013442 17.583203 
L 73.399428 17.342816 
L 74.235731 16.737485 
L 74.621717 16.714224 
L 75.072034 16.940928 
L 76.036999 17.545692 
L 76.422985 17.5034 
L 76.937633 17.179812 
L 77.709605 16.71878 
L 78.159922 16.738783 
L 78.738901 17.04156 
L 79.639535 17.509129 
L 80.218514 17.54045 
L 80.926155 17.328617 
L 82.663093 16.722051 
L 83.435065 16.727289 
L 84.335699 16.978034 
L 86.201298 17.577367 
L 87.037601 17.565444 
L 88.517214 17.176139 
L 88.967531 17.137102 
L 89.417848 17.03749 
L 90.640138 16.589999 
L 91.090455 16.63668 
L 91.540772 16.999255 
L 91.991089 17.279941 
L 93.663695 17.52244 
L 94.564329 17.246185 
L 95.91528 16.905843 
L 97.652217 17.376357 
L 99.517817 17.299433 
L 100.35412 16.95521 
L 101.64074 16.432262 
L 102.28405 16.512323 
L 105.243276 17.619422 
L 106.079579 17.554979 
L 107.173206 17.192248 
L 108.588489 16.710486 
L 109.360461 16.703773 
L 110.068102 16.918814 
L 111.740708 17.576167 
L 112.255356 17.43044 
L 113.7993 16.696883 
L 114.249617 16.933211 
L 115.214582 17.565907 
L 115.600568 17.522155 
L 116.115216 17.178088 
L 116.822857 16.70217 
L 117.208844 16.687531 
L 117.59483 16.913669 
L 118.495464 17.545686 
L 118.88145 17.485243 
L 119.910746 17.142767 
L 120.875711 17.048455 
L 121.390359 16.914011 
L 122.676979 17.261863 
L 123.641944 16.710205 
L 123.963599 16.710888 
L 124.285254 16.973807 
L 125.057226 17.768097 
L 125.31455 17.580791 
L 125.957861 16.866455 
L 126.408178 16.90652 
L 126.794164 17.14744 
L 127.18015 17.376792 
L 127.501805 17.272102 
L 128.273777 16.856817 
L 128.595432 17.099737 
L 129.431735 17.834016 
L 129.689059 17.732717 
L 130.010714 17.304687 
L 130.461031 16.787792 
L 130.847017 16.686956 
L 131.361665 16.560219 
L 131.747651 16.507411 
L 132.069306 16.725318 
L 133.098602 17.647194 
L 133.355926 17.590046 
L 133.741912 17.231414 
L 134.513884 16.429847 
L 134.771209 16.497798 
L 135.157195 16.930855 
L 135.671843 17.545232 
L 135.929167 17.525611 
L 137.40878 16.910664 
L 138.116421 17.227568 
L 138.759731 17.415625 
L 139.274379 17.298941 
L 140.496668 16.834549 
L 141.011316 16.975858 
L 142.169274 17.418963 
L 142.683922 17.326868 
L 144.356529 16.834756 
L 145.128501 16.967136 
L 147.122762 17.415155 
L 148.087727 17.344079 
L 151.561601 16.801599 
L 153.620194 17.02491 
L 154.842483 16.537982 
L 155.678786 16.741719 
L 156.386427 16.871623 
L 157.351392 17.194461 
L 158.702343 17.414048 
L 159.924632 17.326264 
L 161.918894 16.507804 
L 162.94819 16.847391 
L 163.398507 17.118775 
L 164.427803 17.83745 
L 164.813789 17.783123 
L 165.392768 17.728689 
L 166.036078 17.64593 
L 166.550726 17.353072 
L 167.194036 16.944397 
L 168.416325 16.640424 
L 169.252628 16.615948 
L 170.0246 16.827917 
L 172.340517 17.706691 
L 172.983827 17.598864 
L 173.82013 17.204728 
L 175.10675 16.568185 
L 175.621398 16.588462 
L 176.136046 16.865451 
L 177.358335 17.703947 
L 177.744321 17.61496 
L 178.194638 17.239303 
L 178.96661 16.580774 
L 179.288266 16.564364 
L 179.674252 16.79894 
L 180.767879 17.704144 
L 181.089534 17.650925 
L 181.539851 17.307447 
L 182.247492 16.762848 
L 182.569147 16.783269 
L 183.019464 17.088319 
L 183.469781 17.32013 
L 185.464042 17.486274 
L 185.785697 17.122739 
L 186.364676 16.43051 
L 186.686331 16.406885 
L 187.26531 16.671363 
L 187.586965 17.213844 
L 187.972951 17.846056 
L 188.294607 17.955354 
L 188.4876 17.828126 
L 188.809255 17.214684 
L 189.259572 16.347779 
L 189.516896 16.180751 
L 189.77422 16.288045 
L 190.031544 16.697188 
L 190.739185 17.995429 
L 190.932178 17.948531 
L 191.768481 17.090265 
L 192.090136 16.893596 
L 192.604784 17.00337 
L 193.376756 17.060961 
L 194.534714 17.300959 
L 195.178024 17.569904 
L 195.435348 17.47978 
L 195.757003 17.093913 
L 196.271651 16.452088 
L 196.528975 16.386614 
L 196.786299 16.586098 
L 197.686934 17.681416 
L 197.944258 17.557019 
L 199.295209 16.459535 
L 199.552533 16.675605 
L 200.581829 17.872209 
L 200.903484 17.804018 
L 201.28947 17.495198 
L 202.447428 16.331488 
L 202.704752 16.419292 
L 203.090738 16.837547 
L 203.927041 17.867998 
L 204.248696 17.90543 
L 204.570351 17.6708 
L 205.856971 16.329077 
L 206.178627 16.477425 
L 206.693275 17.076361 
L 207.336585 17.789285 
L 207.722571 17.924756 
L 208.108557 17.809352 
L 208.687536 17.333483 
L 209.652501 16.522745 
L 210.23148 16.333331 
L 210.746128 16.387542 
L 211.389438 16.692082 
L 213.512361 17.927734 
L 214.09134 17.897105 
L 214.670319 17.629051 
L 215.699616 16.85712 
L 216.278595 16.53452 
L 216.857574 16.499233 
L 217.24356 16.746717 
L 218.465849 17.64136 
L 218.851835 17.733365 
L 220.009793 17.577144 
L 221.425075 16.891261 
L 222.068385 16.781233 
L 222.454371 16.925268 
L 223.67666 17.596368 
L 225.349267 17.588559 
L 225.799584 17.359086 
L 226.571556 16.868382 
L 227.279197 16.609576 
L 227.729514 16.45037 
L 228.372824 16.513992 
L 228.951803 16.812897 
L 229.723775 17.220293 
L 230.753071 17.408043 
L 231.267719 17.527986 
L 231.911029 17.338845 
L 233.19765 16.964013 
L 234.741594 16.791043 
L 235.706559 16.976887 
L 236.349869 17.180069 
L 236.349869 17.180069 
" clip-path="url(#p45021dcd0c)" style="fill: none; stroke: #d62728; stroke-width: 0.5; stroke-linecap: square"/>
   </g>
   <g id="patch_3">
    <path d="M 33.707196 202.559296 
L 33.707196 7.2 
" style="fill: none; stroke: #000000; stroke-width: 0.8; stroke-linejoin: miter; stroke-linecap: square"/>
   </g>
   <g id="patch_4">
    <path d="M 245.99952 202.559296 
L 245.99952 7.2 
" style="fill: none; stroke: #000000; stroke-width: 0.8; stroke-linejoin: miter; stroke-linecap: square"/>
   </g>
   <g id="patch_5">
    <path d="M 33.707196 202.559296 
L 245.99952 202.559296 
" style="fill: none; stroke: #000000; stroke-width: 0.8; stroke-linejoin: miter; stroke-linecap: square"/>
   </g>
   <g id="patch_6">
    <path d="M 33.707196 7.2 
L 245.99952 7.2 
" style="fill: none; stroke: #000000; stroke-width: 0.8; stroke-linejoin: miter; stroke-linecap: square"/>
   </g>
   <g id="legend_1">
    <g id="patch_7">
     <path d="M 193.792605 198.059296 
L 239.69952 198.059296 
Q 241.49952 198.059296 241.49952 196.259296 
L 241.49952 156.760168 
Q 241.49952 154.960168 239.69952 154.960168 
L 193.792605 154.960168 
Q 191.992605 154.960168 191.992605 156.760168 
L 191.992605 196.259296 
Q 191.992605 198.059296 193.792605 198.059296 
z
" style="fill: #ffffff; opacity: 0.8; stroke: #cccccc; stroke-width: 0.24; stroke-linejoin: miter"/>
    </g>
    <g id="line2d_18">
     <path d="M 195.592605 162.13495 
L 204.592605 162.13495 
L 213.592605 162.13495 
" style="fill: none; stroke: #ff7f0e; stroke-width: 0.5; stroke-linecap: square"/>
    </g>
    <g id="text_16">
     <!-- $\langle \sigma_z\rangle$ -->
     <g transform="translate(220.792605 165.28495) scale(0.09 -0.09)">
      <defs>
       <path id="CMSY10-68" d="M 2099 4557 
C 2131 4627 2131 4640 2131 4672 
C 2131 4742 2074 4800 2003 4800 
C 1946 4800 1901 4768 1856 4653 
L 736 1715 
C 723 1677 704 1638 704 1600 
C 704 1581 704 1568 736 1491 
L 1856 -1446 
C 1882 -1517 1914 -1600 2003 -1600 
C 2074 -1600 2131 -1542 2131 -1472 
C 2131 -1453 2131 -1440 2099 -1370 
L 966 1600 
L 2099 4557 
z
" transform="scale(0.015625)"/>
       <path id="CMMI12-1b" d="M 3251 2408 
C 3334 2408 3546 2408 3546 2612 
C 3546 2752 3424 2752 3309 2752 
L 1894 2752 
C 934 2752 243 1686 243 932 
C 243 390 595 -64 1171 -64 
C 1926 -64 2752 747 2752 1705 
C 2752 1954 2694 2196 2541 2408 
L 3251 2408 
z
M 1178 64 
C 851 64 614 313 614 754 
C 614 1137 845 2408 1786 2408 
C 2061 2408 2368 2274 2368 1781 
C 2368 1558 2266 1021 2042 652 
C 1811 275 1466 64 1178 64 
z
" transform="scale(0.015625)"/>
       <path id="CMMI12-7a" d="M 813 486 
C 1088 803 1312 1004 1632 1296 
C 2016 1632 2182 1793 2272 1891 
C 2720 2338 2944 2713 2944 2764 
C 2944 2816 2893 2816 2880 2816 
C 2835 2816 2822 2793 2790 2750 
C 2630 2494 2477 2367 2310 2367 
C 2176 2367 2106 2421 1984 2565 
C 1850 2715 1741 2816 1555 2816 
C 1088 2816 806 2257 806 2128 
C 806 2108 813 2068 870 2068 
C 922 2068 928 2091 947 2133 
C 1056 2372 1363 2414 1485 2414 
C 1619 2414 1747 2376 1882 2327 
C 2125 2240 2227 2240 2291 2240 
C 2336 2240 2362 2240 2394 2246 
C 2182 1994 1837 1683 1549 1418 
L 902 816 
C 512 415 275 33 275 -12 
C 275 -51 307 -64 346 -64 
C 384 -64 390 -57 435 14 
C 538 163 742 384 979 384 
C 1114 384 1178 342 1306 193 
C 1427 61 1536 -64 1741 -64 
C 2368 -64 2726 732 2726 876 
C 2726 903 2720 942 2656 942 
C 2605 942 2598 917 2579 855 
C 2438 488 2061 338 1811 338 
C 1677 338 1549 376 1414 425 
C 1158 512 1088 512 1005 512 
C 941 512 870 512 813 486 
z
" transform="scale(0.015625)"/>
       <path id="CMSY10-69" d="M 1747 1491 
C 1779 1568 1779 1581 1779 1600 
C 1779 1619 1779 1632 1747 1709 
L 627 4653 
C 589 4762 550 4800 480 4800 
C 410 4800 352 4742 352 4672 
C 352 4653 352 4640 384 4570 
L 1517 1600 
L 384 -1357 
C 352 -1427 352 -1440 352 -1472 
C 352 -1542 410 -1600 480 -1600 
C 563 -1600 589 -1536 614 -1472 
L 1747 1491 
z
" transform="scale(0.015625)"/>
      </defs>
      <use xlink:href="#CMSY10-68" transform="scale(0.996264)"/>
      <use xlink:href="#CMMI12-1b" transform="translate(38.743734 0) scale(0.996264)"/>
      <use xlink:href="#CMMI12-7a" transform="translate(94.189195 -14.943915) scale(0.697382)"/>
      <use xlink:href="#CMSY10-69" transform="translate(129.51575 0) scale(0.996264)"/>
     </g>
    </g>
    <g id="line2d_19">
     <path d="M 195.592605 175.601326 
L 204.592605 175.601326 
L 213.592605 175.601326 
" style="fill: none; stroke: #2ca02c; stroke-width: 0.5; stroke-linecap: square"/>
    </g>
    <g id="text_17">
     <!-- $\langle \sigma_x\rangle$ -->
     <g transform="translate(220.792605 178.751326) scale(0.09 -0.09)">
      <defs>
       <path id="CMMI12-78" d="M 3034 2606 
C 2829 2567 2752 2414 2752 2293 
C 2752 2139 2874 2088 2963 2088 
C 3155 2088 3290 2254 3290 2427 
C 3290 2695 2982 2816 2714 2816 
C 2323 2816 2106 2433 2048 2312 
C 1901 2816 1504 2816 1389 2816 
C 736 2816 390 1980 390 1839 
C 390 1814 416 1782 461 1782 
C 512 1782 525 1820 538 1846 
C 755 2555 1184 2689 1370 2689 
C 1658 2689 1715 2420 1715 2267 
C 1715 2127 1677 1980 1600 1673 
L 1382 798 
C 1286 415 1101 64 762 64 
C 730 64 570 64 435 147 
C 666 192 717 383 717 460 
C 717 588 621 664 499 664 
C 346 664 179 530 179 326 
C 179 57 480 -64 755 -64 
C 1062 -64 1280 179 1414 441 
C 1517 64 1837 -64 2074 -64 
C 2726 -64 3072 773 3072 913 
C 3072 945 3046 971 3008 971 
C 2950 971 2944 939 2925 888 
C 2752 326 2381 64 2093 64 
C 1869 64 1747 230 1747 492 
C 1747 632 1773 734 1875 1156 
L 2099 2024 
C 2195 2408 2413 2689 2707 2689 
C 2720 2689 2899 2689 3034 2606 
z
" transform="scale(0.015625)"/>
      </defs>
      <use xlink:href="#CMSY10-68" transform="scale(0.996264)"/>
      <use xlink:href="#CMMI12-1b" transform="translate(38.743734 0) scale(0.996264)"/>
      <use xlink:href="#CMMI12-78" transform="translate(94.189195 -14.943915) scale(0.697382)"/>
      <use xlink:href="#CMSY10-69" transform="translate(133.490986 0) scale(0.996264)"/>
     </g>
    </g>
    <g id="line2d_20">
     <path d="M 195.592605 189.067702 
L 204.592605 189.067702 
L 213.592605 189.067702 
" style="fill: none; stroke: #d62728; stroke-width: 0.5; stroke-linecap: square"/>
    </g>
    <g id="text_18">
     <!-- $\langle \sigma_y\rangle$ -->
     <g transform="translate(220.792605 192.217702) scale(0.09 -0.09)">
      <defs>
       <path id="CMMI12-79" d="M 1683 -700 
C 1510 -939 1261 -1152 947 -1152 
C 870 -1152 563 -1152 467 -889 
C 486 -895 518 -895 531 -895 
C 723 -895 851 -729 851 -582 
C 851 -435 730 -384 634 -384 
C 531 -384 307 -458 307 -759 
C 307 -1071 582 -1286 947 -1286 
C 1587 -1286 2234 -700 2413 6 
L 3040 2485 
C 3046 2517 3059 2556 3059 2594 
C 3059 2689 2982 2753 2886 2753 
C 2829 2753 2694 2727 2643 2535 
L 2170 658 
C 2138 543 2138 530 2086 460 
C 1958 281 1747 64 1440 64 
C 1082 64 1050 415 1050 588 
C 1050 952 1222 1443 1395 1903 
C 1466 2088 1504 2178 1504 2305 
C 1504 2574 1312 2816 998 2816 
C 410 2816 173 1890 173 1839 
C 173 1814 198 1782 243 1782 
C 301 1782 307 1807 333 1897 
C 486 2433 730 2689 979 2689 
C 1037 2689 1146 2689 1146 2478 
C 1146 2312 1075 2127 979 1884 
C 666 1047 666 837 666 683 
C 666 77 1101 -64 1421 -64 
C 1606 -64 1837 -6 2061 230 
L 2067 224 
C 1971 -147 1907 -392 1683 -700 
z
" transform="scale(0.015625)"/>
      </defs>
      <use xlink:href="#CMSY10-68" transform="scale(0.996264)"/>
      <use xlink:href="#CMMI12-1b" transform="translate(38.743734 0) scale(0.996264)"/>
      <use xlink:href="#CMMI12-79" transform="translate(94.189195 -14.943915) scale(0.697382)"/>
      <use xlink:href="#CMSY10-69" transform="translate(130.484301 0) scale(0.996264)"/>
     </g>
    </g>
   </g>
  </g>
 </g>
 <defs>
  <clipPath id="p45021dcd0c">
   <rect x="33.707196" y="7.2" width="212.292324" height="195.359296"/>
  </clipPath>
 </defs>
</svg>
