<?xml version="1.0" encoding="utf-8" standalone="no"?>
<!DOCTYPE svg PUBLIC "-//W3C//DTD SVG 1.1//EN"
  "http://www.w3.org/Graphics/SVG/1.1/DTD/svg11.dtd">
<svg xmlns:xlink="http://www.w3.org/1999/xlink" width="253.19952pt" height="179.75952pt" viewBox="0 0 253.19952 179.75952" xmlns="http://www.w3.org/2000/svg" version="1.1">
 <metadata>
  <rdf:RDF xmlns:dc="http://purl.org/dc/elements/1.1/" xmlns:cc="http://creativecommons.org/ns#" xmlns:rdf="http://www.w3.org/1999/02/22-rdf-syntax-ns#">
   <cc:Work>
    <dc:type rdf:resource="http://purl.org/dc/dcmitype/StillImage"/>
    <dc:date>1980-01-01T00:00:00+00:00</dc:date>
    <dc:format>image/svg+xml</dc:format>
    <dc:creator>
     <cc:Agent>
      <dc:title>Matplotlib v3.6.2, https://matplotlib.org/</dc:title>
     </cc:Agent>
    </dc:creator>
   </cc:Work>
  </rdf:RDF>
 </metadata>
 <defs>
  <style type="text/css">*{stroke-linejoin: round; stroke-linecap: butt}</style>
 </defs>
 <g id="figure_1">
  <g id="patch_1">
   <path d="M 0 179.75952 
L 253.19952 179.75952 
L 253.19952 0 
L 0 0 
z
" style="fill: #ffffff"/>
  </g>
  <g id="axes_1">
   <g id="patch_2">
    <path d="M 55.844823 143.519296 
L 245.99952 143.519296 
L 245.99952 7.2 
L 55.844823 7.2 
z
" style="fill: #ffffff"/>
   </g>
   <g id="matplotlib.axis_1">
    <g id="xtick_1">
     <g id="line2d_1">
      <defs>
       <path id="m3f36c49b53" d="M 0 0 
L 0 3.5 
" style="stroke: #000000; stroke-width: 0.8"/>
      </defs>
      <g>
       <use xlink:href="#m3f36c49b53" x="81.775009" y="143.519296" style="stroke: #000000; stroke-width: 0.8"/>
      </g>
     </g>
     <g id="text_1">
      <!-- $\mathdefault{0.6}$ -->
      <g transform="translate(76.364664 158.154098) scale(0.08 -0.08)">
       <defs>
        <path id="CMR17-30" d="M 2688 2025 
C 2688 2416 2682 3080 2413 3591 
C 2176 4039 1798 4198 1466 4198 
C 1158 4198 768 4058 525 3597 
C 269 3118 243 2524 243 2025 
C 243 1661 250 1106 448 619 
C 723 -39 1216 -128 1466 -128 
C 1760 -128 2208 -7 2470 600 
C 2662 1042 2688 1559 2688 2025 
z
M 1466 -26 
C 1056 -26 813 325 723 812 
C 653 1188 653 1738 653 2096 
C 653 2588 653 2997 736 3387 
C 858 3929 1216 4096 1466 4096 
C 1728 4096 2067 3923 2189 3400 
C 2272 3036 2278 2607 2278 2096 
C 2278 1680 2278 1169 2202 792 
C 2067 95 1690 -26 1466 -26 
z
" transform="scale(0.015625)"/>
        <path id="CMMI12-3a" d="M 1178 307 
C 1178 492 1024 619 870 619 
C 685 619 557 466 557 313 
C 557 128 710 0 864 0 
C 1050 0 1178 153 1178 307 
z
" transform="scale(0.015625)"/>
        <path id="CMR17-36" d="M 678 2176 
C 678 3690 1395 4032 1811 4032 
C 1946 4032 2272 4009 2400 3776 
C 2298 3776 2106 3776 2106 3553 
C 2106 3381 2246 3323 2336 3323 
C 2394 3323 2566 3348 2566 3560 
C 2566 3954 2246 4179 1805 4179 
C 1043 4179 243 3390 243 1984 
C 243 253 966 -128 1478 -128 
C 2099 -128 2688 427 2688 1283 
C 2688 2081 2170 2662 1517 2662 
C 1126 2662 838 2407 678 1960 
L 678 2176 
z
M 1478 25 
C 691 25 691 1200 691 1436 
C 691 1896 909 2560 1504 2560 
C 1613 2560 1926 2560 2138 2120 
C 2253 1870 2253 1609 2253 1289 
C 2253 944 2253 690 2118 434 
C 1978 171 1773 25 1478 25 
z
" transform="scale(0.015625)"/>
       </defs>
       <use xlink:href="#CMR17-30" transform="scale(0.996264)"/>
       <use xlink:href="#CMMI12-3a" transform="translate(45.690477 0) scale(0.996264)"/>
       <use xlink:href="#CMR17-36" transform="translate(72.787654 0) scale(0.996264)"/>
      </g>
     </g>
    </g>
    <g id="xtick_2">
     <g id="line2d_2">
      <g>
       <use xlink:href="#m3f36c49b53" x="116.34859" y="143.519296" style="stroke: #000000; stroke-width: 0.8"/>
      </g>
     </g>
     <g id="text_2">
      <!-- $\mathdefault{0.8}$ -->
      <g transform="translate(110.938245 158.154098) scale(0.08 -0.08)">
       <defs>
        <path id="CMR17-38" d="M 1741 2264 
C 2144 2467 2554 2773 2554 3263 
C 2554 3841 1990 4179 1472 4179 
C 890 4179 378 3759 378 3180 
C 378 3021 416 2747 666 2505 
C 730 2442 998 2251 1171 2130 
C 883 1983 211 1634 211 934 
C 211 279 838 -128 1459 -128 
C 2144 -128 2720 362 2720 1010 
C 2720 1590 2330 1857 2074 2029 
L 1741 2264 
z
M 902 2822 
C 851 2854 595 3051 595 3351 
C 595 3739 998 4032 1459 4032 
C 1965 4032 2336 3676 2336 3262 
C 2336 2669 1670 2331 1638 2331 
C 1632 2331 1626 2331 1574 2370 
L 902 2822 
z
M 2080 1519 
C 2176 1449 2483 1240 2483 851 
C 2483 381 2010 25 1472 25 
C 890 25 448 438 448 940 
C 448 1443 838 1862 1280 2060 
L 2080 1519 
z
" transform="scale(0.015625)"/>
       </defs>
       <use xlink:href="#CMR17-30" transform="scale(0.996264)"/>
       <use xlink:href="#CMMI12-3a" transform="translate(45.690477 0) scale(0.996264)"/>
       <use xlink:href="#CMR17-38" transform="translate(72.787654 0) scale(0.996264)"/>
      </g>
     </g>
    </g>
    <g id="xtick_3">
     <g id="line2d_3">
      <g>
       <use xlink:href="#m3f36c49b53" x="150.922171" y="143.519296" style="stroke: #000000; stroke-width: 0.8"/>
      </g>
     </g>
     <g id="text_3">
      <!-- $\mathdefault{1.0}$ -->
      <g transform="translate(145.511827 158.154098) scale(0.08 -0.08)">
       <defs>
        <path id="CMR17-31" d="M 1702 4058 
C 1702 4192 1696 4192 1606 4192 
C 1357 3916 979 3827 621 3827 
C 602 3827 570 3827 563 3808 
C 557 3795 557 3782 557 3648 
C 755 3648 1088 3686 1344 3839 
L 1344 461 
C 1344 236 1331 160 781 160 
L 589 160 
L 589 0 
C 896 0 1216 0 1523 0 
C 1830 0 2150 0 2458 0 
L 2458 160 
L 2266 160 
C 1715 160 1702 230 1702 458 
L 1702 4058 
z
" transform="scale(0.015625)"/>
       </defs>
       <use xlink:href="#CMR17-31" transform="scale(0.996264)"/>
       <use xlink:href="#CMMI12-3a" transform="translate(45.690477 0) scale(0.996264)"/>
       <use xlink:href="#CMR17-30" transform="translate(72.787654 0) scale(0.996264)"/>
      </g>
     </g>
    </g>
    <g id="xtick_4">
     <g id="line2d_4">
      <g>
       <use xlink:href="#m3f36c49b53" x="185.495753" y="143.519296" style="stroke: #000000; stroke-width: 0.8"/>
      </g>
     </g>
     <g id="text_4">
      <!-- $\mathdefault{1.2}$ -->
      <g transform="translate(180.085408 158.154098) scale(0.08 -0.08)">
       <defs>
        <path id="CMR17-32" d="M 2669 989 
L 2554 989 
C 2490 536 2438 459 2413 420 
C 2381 369 1920 369 1830 369 
L 602 369 
C 832 619 1280 1072 1824 1597 
C 2214 1967 2669 2402 2669 3035 
C 2669 3790 2067 4224 1395 4224 
C 691 4224 262 3604 262 3030 
C 262 2780 448 2748 525 2748 
C 589 2748 781 2787 781 3010 
C 781 3207 614 3264 525 3264 
C 486 3264 448 3258 422 3245 
C 544 3790 915 4058 1306 4058 
C 1862 4058 2227 3617 2227 3035 
C 2227 2479 1901 2000 1536 1584 
L 262 146 
L 262 0 
L 2515 0 
L 2669 989 
z
" transform="scale(0.015625)"/>
       </defs>
       <use xlink:href="#CMR17-31" transform="scale(0.996264)"/>
       <use xlink:href="#CMMI12-3a" transform="translate(45.690477 0) scale(0.996264)"/>
       <use xlink:href="#CMR17-32" transform="translate(72.787654 0) scale(0.996264)"/>
      </g>
     </g>
    </g>
    <g id="xtick_5">
     <g id="line2d_5">
      <g>
       <use xlink:href="#m3f36c49b53" x="220.069334" y="143.519296" style="stroke: #000000; stroke-width: 0.8"/>
      </g>
     </g>
     <g id="text_5">
      <!-- $\mathdefault{1.4}$ -->
      <g transform="translate(214.658989 158.154098) scale(0.08 -0.08)">
       <defs>
        <path id="CMR17-34" d="M 2150 4122 
C 2150 4256 2144 4256 2029 4256 
L 128 1254 
L 128 1088 
L 1779 1088 
L 1779 457 
C 1779 224 1766 160 1318 160 
L 1197 160 
L 1197 0 
C 1402 0 1747 0 1965 0 
C 2182 0 2528 0 2733 0 
L 2733 160 
L 2611 160 
C 2163 160 2150 224 2150 457 
L 2150 1088 
L 2803 1088 
L 2803 1254 
L 2150 1254 
L 2150 4122 
z
M 1798 3703 
L 1798 1254 
L 256 1254 
L 1798 3703 
z
" transform="scale(0.015625)"/>
       </defs>
       <use xlink:href="#CMR17-31" transform="scale(0.996264)"/>
       <use xlink:href="#CMMI12-3a" transform="translate(45.690477 0) scale(0.996264)"/>
       <use xlink:href="#CMR17-34" transform="translate(72.787654 0) scale(0.996264)"/>
      </g>
     </g>
    </g>
    <g id="text_6">
     <!-- $\omega_c$ -->
     <g transform="translate(146.041335 170.622342) scale(0.1 -0.1)">
      <defs>
       <path id="CMMI12-21" d="M 3802 2395 
C 3802 2580 3750 2816 3526 2816 
C 3398 2816 3251 2657 3251 2529 
C 3251 2472 3277 2434 3328 2376 
C 3424 2268 3546 2096 3546 1797 
C 3546 1567 3405 1204 3302 1007 
C 3123 656 2829 357 2496 357 
C 2093 357 1939 615 1869 975 
C 1939 1143 2086 1560 2086 1728 
C 2086 1798 2061 1856 1978 1856 
C 1933 1856 1882 1831 1850 1779 
C 1760 1638 1677 1129 1683 994 
C 1562 756 1216 357 806 357 
C 378 357 262 733 262 1096 
C 262 1758 678 2338 794 2497 
C 858 2593 902 2657 902 2669 
C 902 2714 877 2784 819 2784 
C 717 2784 685 2701 634 2625 
C 307 2121 77 1414 77 803 
C 77 408 224 -64 704 -64 
C 1235 -64 1568 391 1702 634 
C 1754 275 1946 -64 2413 -64 
C 2899 -64 3206 363 3437 879 
C 3603 1249 3802 2045 3802 2395 
z
" transform="scale(0.015625)"/>
       <path id="CMMI12-63" d="M 2502 2431 
C 2381 2431 2323 2431 2234 2355 
C 2195 2323 2125 2227 2125 2125 
C 2125 1997 2221 1920 2342 1920 
C 2496 1920 2669 2044 2669 2292 
C 2669 2588 2374 2816 1933 2816 
C 1094 2816 256 1903 256 996 
C 256 441 602 -64 1254 -64 
C 2125 -64 2675 622 2675 706 
C 2675 744 2637 776 2611 776 
C 2592 776 2586 770 2528 713 
C 2118 162 1510 64 1267 64 
C 826 64 685 446 685 764 
C 685 988 794 1605 1024 2039 
C 1190 2338 1536 2682 1939 2682 
C 2022 2682 2374 2682 2502 2431 
z
" transform="scale(0.015625)"/>
      </defs>
      <use xlink:href="#CMMI12-21" transform="scale(0.996264)"/>
      <use xlink:href="#CMMI12-63" transform="translate(60.743753 -14.943915) scale(0.697382)"/>
     </g>
    </g>
   </g>
   <g id="matplotlib.axis_2">
    <g id="ytick_1">
     <g id="line2d_6">
      <defs>
       <path id="mf89c150767" d="M 0 0 
L -3.5 0 
" style="stroke: #000000; stroke-width: 0.8"/>
      </defs>
      <g>
       <use xlink:href="#mf89c150767" x="55.844823" y="139.325388" style="stroke: #000000; stroke-width: 0.8"/>
      </g>
     </g>
     <g id="text_7">
      <!-- $\mathdefault{−0.002}$ -->
      <g transform="translate(20.869261 142.092789) scale(0.08 -0.08)">
       <defs>
        <path id="CMSY10-0" d="M 4218 1472 
C 4326 1472 4442 1472 4442 1600 
C 4442 1728 4326 1728 4218 1728 
L 755 1728 
C 646 1728 531 1728 531 1600 
C 531 1472 646 1472 755 1472 
L 4218 1472 
z
" transform="scale(0.015625)"/>
       </defs>
       <use xlink:href="#CMSY10-0" transform="scale(0.996264)"/>
       <use xlink:href="#CMR17-30" transform="translate(77.487468 0) scale(0.996264)"/>
       <use xlink:href="#CMMI12-3a" transform="translate(123.177945 0) scale(0.996264)"/>
       <use xlink:href="#CMR17-30" transform="translate(150.275122 0) scale(0.996264)"/>
       <use xlink:href="#CMR17-30" transform="translate(195.965599 0) scale(0.996264)"/>
       <use xlink:href="#CMR17-32" transform="translate(241.656076 0) scale(0.996264)"/>
      </g>
     </g>
    </g>
    <g id="ytick_2">
     <g id="line2d_7">
      <g>
       <use xlink:href="#mf89c150767" x="55.844823" y="107.226804" style="stroke: #000000; stroke-width: 0.8"/>
      </g>
     </g>
     <g id="text_8">
      <!-- $\mathdefault{−0.001}$ -->
      <g transform="translate(20.869261 109.994205) scale(0.08 -0.08)">
       <use xlink:href="#CMSY10-0" transform="scale(0.996264)"/>
       <use xlink:href="#CMR17-30" transform="translate(77.487468 0) scale(0.996264)"/>
       <use xlink:href="#CMMI12-3a" transform="translate(123.177945 0) scale(0.996264)"/>
       <use xlink:href="#CMR17-30" transform="translate(150.275122 0) scale(0.996264)"/>
       <use xlink:href="#CMR17-30" transform="translate(195.965599 0) scale(0.996264)"/>
       <use xlink:href="#CMR17-31" transform="translate(241.656076 0) scale(0.996264)"/>
      </g>
     </g>
    </g>
    <g id="ytick_3">
     <g id="line2d_8">
      <g>
       <use xlink:href="#mf89c150767" x="55.844823" y="75.128219" style="stroke: #000000; stroke-width: 0.8"/>
      </g>
     </g>
     <g id="text_9">
      <!-- $\mathdefault{0.000}$ -->
      <g transform="translate(27.455768 77.89562) scale(0.08 -0.08)">
       <use xlink:href="#CMR17-30" transform="scale(0.996264)"/>
       <use xlink:href="#CMMI12-3a" transform="translate(45.690477 0) scale(0.996264)"/>
       <use xlink:href="#CMR17-30" transform="translate(72.787654 0) scale(0.996264)"/>
       <use xlink:href="#CMR17-30" transform="translate(118.478131 0) scale(0.996264)"/>
       <use xlink:href="#CMR17-30" transform="translate(164.168608 0) scale(0.996264)"/>
      </g>
     </g>
    </g>
    <g id="ytick_4">
     <g id="line2d_9">
      <g>
       <use xlink:href="#mf89c150767" x="55.844823" y="43.029635" style="stroke: #000000; stroke-width: 0.8"/>
      </g>
     </g>
     <g id="text_10">
      <!-- $\mathdefault{0.001}$ -->
      <g transform="translate(27.455768 45.797036) scale(0.08 -0.08)">
       <use xlink:href="#CMR17-30" transform="scale(0.996264)"/>
       <use xlink:href="#CMMI12-3a" transform="translate(45.690477 0) scale(0.996264)"/>
       <use xlink:href="#CMR17-30" transform="translate(72.787654 0) scale(0.996264)"/>
       <use xlink:href="#CMR17-30" transform="translate(118.478131 0) scale(0.996264)"/>
       <use xlink:href="#CMR17-31" transform="translate(164.168608 0) scale(0.996264)"/>
      </g>
     </g>
    </g>
    <g id="ytick_5">
     <g id="line2d_10">
      <g>
       <use xlink:href="#mf89c150767" x="55.844823" y="10.931051" style="stroke: #000000; stroke-width: 0.8"/>
      </g>
     </g>
     <g id="text_11">
      <!-- $\mathdefault{0.002}$ -->
      <g transform="translate(27.455768 13.698451) scale(0.08 -0.08)">
       <use xlink:href="#CMR17-30" transform="scale(0.996264)"/>
       <use xlink:href="#CMMI12-3a" transform="translate(45.690477 0) scale(0.996264)"/>
       <use xlink:href="#CMR17-30" transform="translate(72.787654 0) scale(0.996264)"/>
       <use xlink:href="#CMR17-30" transform="translate(118.478131 0) scale(0.996264)"/>
       <use xlink:href="#CMR17-32" transform="translate(164.168608 0) scale(0.996264)"/>
      </g>
     </g>
    </g>
    <g id="text_12">
     <!-- $\bar{P}_\mathrm{I}$ -->
     <g transform="translate(14.932083 79.996784) rotate(-90) scale(0.1 -0.1)">
      <defs>
       <path id="CMR17-16" d="M 2554 3520 
L 2554 3666 
L 378 3666 
L 378 3520 
L 2554 3520 
z
" transform="scale(0.015625)"/>
       <path id="CMMI12-50" d="M 1894 2023 
L 2970 2023 
C 3853 2023 4736 2673 4736 3401 
C 4736 3898 4314 4352 3507 4352 
L 1530 4352 
C 1408 4352 1350 4352 1350 4231 
C 1350 4167 1408 4167 1504 4167 
C 1894 4167 1894 4116 1894 4046 
C 1894 4034 1894 3995 1869 3899 
L 1005 472 
C 947 249 934 185 486 185 
C 365 185 301 185 301 70 
C 301 0 358 0 397 0 
C 518 0 646 0 768 0 
L 1517 0 
C 1638 0 1773 0 1894 0 
C 1946 0 2016 0 2016 121 
C 2016 185 1958 185 1862 185 
C 1478 185 1472 230 1472 293 
C 1472 325 1478 369 1485 401 
L 1894 2023 
z
M 2355 3930 
C 2413 4167 2438 4167 2688 4167 
L 3322 4167 
C 3802 4167 4198 4013 4198 3535 
C 4198 3369 4115 2827 3821 2534 
C 3712 2419 3405 2176 2822 2176 
L 1920 2176 
L 2355 3930 
z
" transform="scale(0.015625)"/>
       <path id="CMR17-49" d="M 1261 3905 
C 1261 4192 1338 4192 1798 4192 
L 1798 4352 
C 1594 4352 1267 4352 1050 4352 
C 832 4352 506 4352 301 4352 
L 301 4192 
C 762 4192 838 4192 838 3905 
L 838 447 
C 838 160 762 160 301 160 
L 301 0 
C 506 0 832 0 1050 0 
C 1267 0 1594 0 1798 0 
L 1798 160 
C 1338 160 1261 160 1261 447 
L 1261 3905 
z
" transform="scale(0.015625)"/>
      </defs>
      <use xlink:href="#CMR17-16" transform="translate(23.496833 25.189733) scale(0.996264)"/>
      <use xlink:href="#CMMI12-50" transform="scale(0.996264)"/>
      <use xlink:href="#CMR17-49" transform="translate(62.877232 -14.943915) scale(0.697382)"/>
     </g>
    </g>
   </g>
   <g id="line2d_11">
    <path d="M 64.488218 135.237797 
L 107.705195 115.728743 
L 150.922171 108.798792 
L 194.139148 103.671302 
L 237.356125 101.032686 
" clip-path="url(#p8dea8ae4b0)" style="fill: none; stroke-dasharray: 1.85,0.8; stroke-dashoffset: 0; stroke: #1f77b4; stroke-width: 0.5"/>
    <defs>
     <path id="m0f9c66d31a" d="M 0 1.4 
C 0.371284 1.4 0.727412 1.252487 0.989949 0.989949 
C 1.252487 0.727412 1.4 0.371284 1.4 0 
C 1.4 -0.371284 1.252487 -0.727412 0.989949 -0.989949 
C 0.727412 -1.252487 0.371284 -1.4 0 -1.4 
C -0.371284 -1.4 -0.727412 -1.252487 -0.989949 -0.989949 
C -1.252487 -0.727412 -1.4 -0.371284 -1.4 0 
C -1.4 0.371284 -1.252487 0.727412 -0.989949 0.989949 
C -0.727412 1.252487 -0.371284 1.4 0 1.4 
z
"/>
    </defs>
    <g clip-path="url(#p8dea8ae4b0)">
     <use xlink:href="#m0f9c66d31a" x="64.488218" y="135.237797" style="fill: #1f77b4"/>
     <use xlink:href="#m0f9c66d31a" x="107.705195" y="115.728743" style="fill: #1f77b4"/>
     <use xlink:href="#m0f9c66d31a" x="150.922171" y="108.798792" style="fill: #1f77b4"/>
     <use xlink:href="#m0f9c66d31a" x="194.139148" y="103.671302" style="fill: #1f77b4"/>
     <use xlink:href="#m0f9c66d31a" x="237.356125" y="101.032686" style="fill: #1f77b4"/>
    </g>
   </g>
   <g id="line2d_12">
    <path d="M 64.488218 137.138623 
L 107.705195 117.067852 
L 150.922171 109.598026 
L 194.139148 106.364552 
L 237.356125 103.006421 
" clip-path="url(#p8dea8ae4b0)" style="fill: none; stroke-dasharray: 1.85,0.8; stroke-dashoffset: 0; stroke: #ff7f0e; stroke-width: 0.5"/>
    <defs>
     <path id="mc5dab6ac4f" d="M 0 1.4 
C 0.371284 1.4 0.727412 1.252487 0.989949 0.989949 
C 1.252487 0.727412 1.4 0.371284 1.4 0 
C 1.4 -0.371284 1.252487 -0.727412 0.989949 -0.989949 
C 0.727412 -1.252487 0.371284 -1.4 0 -1.4 
C -0.371284 -1.4 -0.727412 -1.252487 -0.989949 -0.989949 
C -1.252487 -0.727412 -1.4 -0.371284 -1.4 0 
C -1.4 0.371284 -1.252487 0.727412 -0.989949 0.989949 
C -0.727412 1.252487 -0.371284 1.4 0 1.4 
z
"/>
    </defs>
    <g clip-path="url(#p8dea8ae4b0)">
     <use xlink:href="#mc5dab6ac4f" x="64.488218" y="137.138623" style="fill: #ff7f0e"/>
     <use xlink:href="#mc5dab6ac4f" x="107.705195" y="117.067852" style="fill: #ff7f0e"/>
     <use xlink:href="#mc5dab6ac4f" x="150.922171" y="109.598026" style="fill: #ff7f0e"/>
     <use xlink:href="#mc5dab6ac4f" x="194.139148" y="106.364552" style="fill: #ff7f0e"/>
     <use xlink:href="#mc5dab6ac4f" x="237.356125" y="103.006421" style="fill: #ff7f0e"/>
    </g>
   </g>
   <g id="line2d_13">
    <path d="M 64.488218 137.322964 
L 107.705195 117.622226 
L 150.922171 111.36688 
L 194.139148 107.176048 
L 237.356125 104.369662 
" clip-path="url(#p8dea8ae4b0)" style="fill: none; stroke-dasharray: 1.85,0.8; stroke-dashoffset: 0; stroke: #2ca02c; stroke-width: 0.5"/>
    <defs>
     <path id="m018225fd87" d="M 0 1.4 
C 0.371284 1.4 0.727412 1.252487 0.989949 0.989949 
C 1.252487 0.727412 1.4 0.371284 1.4 0 
C 1.4 -0.371284 1.252487 -0.727412 0.989949 -0.989949 
C 0.727412 -1.252487 0.371284 -1.4 0 -1.4 
C -0.371284 -1.4 -0.727412 -1.252487 -0.989949 -0.989949 
C -1.252487 -0.727412 -1.4 -0.371284 -1.4 0 
C -1.4 0.371284 -1.252487 0.727412 -0.989949 0.989949 
C -0.727412 1.252487 -0.371284 1.4 0 1.4 
z
"/>
    </defs>
    <g clip-path="url(#p8dea8ae4b0)">
     <use xlink:href="#m018225fd87" x="64.488218" y="137.322964" style="fill: #2ca02c"/>
     <use xlink:href="#m018225fd87" x="107.705195" y="117.622226" style="fill: #2ca02c"/>
     <use xlink:href="#m018225fd87" x="150.922171" y="111.36688" style="fill: #2ca02c"/>
     <use xlink:href="#m018225fd87" x="194.139148" y="107.176048" style="fill: #2ca02c"/>
     <use xlink:href="#m018225fd87" x="237.356125" y="104.369662" style="fill: #2ca02c"/>
    </g>
   </g>
   <g id="line2d_14">
    <path d="M 64.488218 136.990664 
L 107.705195 117.998277 
L 150.922171 111.786131 
L 194.139148 107.860011 
L 237.356125 105.263317 
" clip-path="url(#p8dea8ae4b0)" style="fill: none; stroke-dasharray: 1.85,0.8; stroke-dashoffset: 0; stroke: #d62728; stroke-width: 0.5"/>
    <defs>
     <path id="mb578420141" d="M 0 1.4 
C 0.371284 1.4 0.727412 1.252487 0.989949 0.989949 
C 1.252487 0.727412 1.4 0.371284 1.4 0 
C 1.4 -0.371284 1.252487 -0.727412 0.989949 -0.989949 
C 0.727412 -1.252487 0.371284 -1.4 0 -1.4 
C -0.371284 -1.4 -0.727412 -1.252487 -0.989949 -0.989949 
C -1.252487 -0.727412 -1.4 -0.371284 -1.4 0 
C -1.4 0.371284 -1.252487 0.727412 -0.989949 0.989949 
C -0.727412 1.252487 -0.371284 1.4 0 1.4 
z
"/>
    </defs>
    <g clip-path="url(#p8dea8ae4b0)">
     <use xlink:href="#mb578420141" x="64.488218" y="136.990664" style="fill: #d62728"/>
     <use xlink:href="#mb578420141" x="107.705195" y="117.998277" style="fill: #d62728"/>
     <use xlink:href="#mb578420141" x="150.922171" y="111.786131" style="fill: #d62728"/>
     <use xlink:href="#mb578420141" x="194.139148" y="107.860011" style="fill: #d62728"/>
     <use xlink:href="#mb578420141" x="237.356125" y="105.263317" style="fill: #d62728"/>
    </g>
   </g>
   <g id="line2d_15">
    <path d="M 64.488218 135.703749 
L 107.705195 118.219292 
L 150.922171 111.677855 
L 194.139148 107.269585 
L 237.356125 105.384691 
" clip-path="url(#p8dea8ae4b0)" style="fill: none; stroke-dasharray: 1.85,0.8; stroke-dashoffset: 0; stroke: #9467bd; stroke-width: 0.5"/>
    <defs>
     <path id="m65b605ad27" d="M 0 1.4 
C 0.371284 1.4 0.727412 1.252487 0.989949 0.989949 
C 1.252487 0.727412 1.4 0.371284 1.4 0 
C 1.4 -0.371284 1.252487 -0.727412 0.989949 -0.989949 
C 0.727412 -1.252487 0.371284 -1.4 0 -1.4 
C -0.371284 -1.4 -0.727412 -1.252487 -0.989949 -0.989949 
C -1.252487 -0.727412 -1.4 -0.371284 -1.4 0 
C -1.4 0.371284 -1.252487 0.727412 -0.989949 0.989949 
C -0.727412 1.252487 -0.371284 1.4 0 1.4 
z
"/>
    </defs>
    <g clip-path="url(#p8dea8ae4b0)">
     <use xlink:href="#m65b605ad27" x="64.488218" y="135.703749" style="fill: #9467bd"/>
     <use xlink:href="#m65b605ad27" x="107.705195" y="118.219292" style="fill: #9467bd"/>
     <use xlink:href="#m65b605ad27" x="150.922171" y="111.677855" style="fill: #9467bd"/>
     <use xlink:href="#m65b605ad27" x="194.139148" y="107.269585" style="fill: #9467bd"/>
     <use xlink:href="#m65b605ad27" x="237.356125" y="105.384691" style="fill: #9467bd"/>
    </g>
   </g>
   <g id="line2d_16">
    <path d="M 64.488218 13.396332 
L 107.705195 19.656993 
L 150.922171 32.764461 
L 194.139148 43.037909 
L 237.356125 48.709382 
" clip-path="url(#p8dea8ae4b0)" style="fill: none; stroke-dasharray: 1.85,0.8; stroke-dashoffset: 0; stroke: #1f77b4; stroke-width: 0.5"/>
    <defs>
     <path id="mac625be04b" d="M 0 -2.8 
L -0.628639 -0.865248 
L -2.662958 -0.865248 
L -1.01716 0.330495 
L -1.645799 2.265248 
L -0 1.069505 
L 1.645799 2.265248 
L 1.01716 0.330495 
L 2.662958 -0.865248 
L 0.628639 -0.865248 
z
"/>
    </defs>
    <g clip-path="url(#p8dea8ae4b0)">
     <use xlink:href="#mac625be04b" x="64.488218" y="13.396332" style="fill: #1f77b4"/>
     <use xlink:href="#mac625be04b" x="107.705195" y="19.656993" style="fill: #1f77b4"/>
     <use xlink:href="#mac625be04b" x="150.922171" y="32.764461" style="fill: #1f77b4"/>
     <use xlink:href="#mac625be04b" x="194.139148" y="43.037909" style="fill: #1f77b4"/>
     <use xlink:href="#mac625be04b" x="237.356125" y="48.709382" style="fill: #1f77b4"/>
    </g>
   </g>
   <g id="line2d_17">
    <path d="M 64.488218 20.747062 
L 107.705195 23.87506 
L 150.922171 35.953673 
L 194.139148 45.933807 
L 237.356125 50.244541 
" clip-path="url(#p8dea8ae4b0)" style="fill: none; stroke-dasharray: 1.85,0.8; stroke-dashoffset: 0; stroke: #ff7f0e; stroke-width: 0.5"/>
    <defs>
     <path id="m2d4e8a7bdb" d="M 0 -2.8 
L -0.628639 -0.865248 
L -2.662958 -0.865248 
L -1.01716 0.330495 
L -1.645799 2.265248 
L -0 1.069505 
L 1.645799 2.265248 
L 1.01716 0.330495 
L 2.662958 -0.865248 
L 0.628639 -0.865248 
z
"/>
    </defs>
    <g clip-path="url(#p8dea8ae4b0)">
     <use xlink:href="#m2d4e8a7bdb" x="64.488218" y="20.747062" style="fill: #ff7f0e"/>
     <use xlink:href="#m2d4e8a7bdb" x="107.705195" y="23.87506" style="fill: #ff7f0e"/>
     <use xlink:href="#m2d4e8a7bdb" x="150.922171" y="35.953673" style="fill: #ff7f0e"/>
     <use xlink:href="#m2d4e8a7bdb" x="194.139148" y="45.933807" style="fill: #ff7f0e"/>
     <use xlink:href="#m2d4e8a7bdb" x="237.356125" y="50.244541" style="fill: #ff7f0e"/>
    </g>
   </g>
   <g id="line2d_18">
    <path d="M 64.488218 30.525098 
L 107.705195 29.340755 
L 150.922171 39.66568 
L 194.139148 47.774014 
L 237.356125 52.92484 
" clip-path="url(#p8dea8ae4b0)" style="fill: none; stroke-dasharray: 1.85,0.8; stroke-dashoffset: 0; stroke: #2ca02c; stroke-width: 0.5"/>
    <defs>
     <path id="m49b794b886" d="M 0 -2.8 
L -0.628639 -0.865248 
L -2.662958 -0.865248 
L -1.01716 0.330495 
L -1.645799 2.265248 
L -0 1.069505 
L 1.645799 2.265248 
L 1.01716 0.330495 
L 2.662958 -0.865248 
L 0.628639 -0.865248 
z
"/>
    </defs>
    <g clip-path="url(#p8dea8ae4b0)">
     <use xlink:href="#m49b794b886" x="64.488218" y="30.525098" style="fill: #2ca02c"/>
     <use xlink:href="#m49b794b886" x="107.705195" y="29.340755" style="fill: #2ca02c"/>
     <use xlink:href="#m49b794b886" x="150.922171" y="39.66568" style="fill: #2ca02c"/>
     <use xlink:href="#m49b794b886" x="194.139148" y="47.774014" style="fill: #2ca02c"/>
     <use xlink:href="#m49b794b886" x="237.356125" y="52.92484" style="fill: #2ca02c"/>
    </g>
   </g>
   <g id="line2d_19">
    <path d="M 64.488218 37.978524 
L 107.705195 34.840801 
L 150.922171 42.874612 
L 194.139148 49.949397 
L 237.356125 55.176358 
" clip-path="url(#p8dea8ae4b0)" style="fill: none; stroke-dasharray: 1.85,0.8; stroke-dashoffset: 0; stroke: #d62728; stroke-width: 0.5"/>
    <defs>
     <path id="m564268ff1e" d="M 0 -2.8 
L -0.628639 -0.865248 
L -2.662958 -0.865248 
L -1.01716 0.330495 
L -1.645799 2.265248 
L -0 1.069505 
L 1.645799 2.265248 
L 1.01716 0.330495 
L 2.662958 -0.865248 
L 0.628639 -0.865248 
z
"/>
    </defs>
    <g clip-path="url(#p8dea8ae4b0)">
     <use xlink:href="#m564268ff1e" x="64.488218" y="37.978524" style="fill: #d62728"/>
     <use xlink:href="#m564268ff1e" x="107.705195" y="34.840801" style="fill: #d62728"/>
     <use xlink:href="#m564268ff1e" x="150.922171" y="42.874612" style="fill: #d62728"/>
     <use xlink:href="#m564268ff1e" x="194.139148" y="49.949397" style="fill: #d62728"/>
     <use xlink:href="#m564268ff1e" x="237.356125" y="55.176358" style="fill: #d62728"/>
    </g>
   </g>
   <g id="line2d_20">
    <path d="M 64.488218 46.432939 
L 107.705195 38.990572 
L 150.922171 47.682077 
L 194.139148 52.526228 
L 237.356125 57.160986 
" clip-path="url(#p8dea8ae4b0)" style="fill: none; stroke-dasharray: 1.85,0.8; stroke-dashoffset: 0; stroke: #9467bd; stroke-width: 0.5"/>
    <defs>
     <path id="m1c2c8165fd" d="M 0 -2.8 
L -0.628639 -0.865248 
L -2.662958 -0.865248 
L -1.01716 0.330495 
L -1.645799 2.265248 
L -0 1.069505 
L 1.645799 2.265248 
L 1.01716 0.330495 
L 2.662958 -0.865248 
L 0.628639 -0.865248 
z
"/>
    </defs>
    <g clip-path="url(#p8dea8ae4b0)">
     <use xlink:href="#m1c2c8165fd" x="64.488218" y="46.432939" style="fill: #9467bd"/>
     <use xlink:href="#m1c2c8165fd" x="107.705195" y="38.990572" style="fill: #9467bd"/>
     <use xlink:href="#m1c2c8165fd" x="150.922171" y="47.682077" style="fill: #9467bd"/>
     <use xlink:href="#m1c2c8165fd" x="194.139148" y="52.526228" style="fill: #9467bd"/>
     <use xlink:href="#m1c2c8165fd" x="237.356125" y="57.160986" style="fill: #9467bd"/>
    </g>
   </g>
   <g id="patch_3">
    <path d="M 55.844823 143.519296 
L 55.844823 7.2 
" style="fill: none; stroke: #000000; stroke-width: 0.8; stroke-linejoin: miter; stroke-linecap: square"/>
   </g>
   <g id="patch_4">
    <path d="M 245.99952 143.519296 
L 245.99952 7.2 
" style="fill: none; stroke: #000000; stroke-width: 0.8; stroke-linejoin: miter; stroke-linecap: square"/>
   </g>
   <g id="patch_5">
    <path d="M 55.844823 143.519296 
L 245.99952 143.519296 
" style="fill: none; stroke: #000000; stroke-width: 0.8; stroke-linejoin: miter; stroke-linecap: square"/>
   </g>
   <g id="patch_6">
    <path d="M 55.844823 7.2 
L 245.99952 7.2 
" style="fill: none; stroke: #000000; stroke-width: 0.8; stroke-linejoin: miter; stroke-linecap: square"/>
   </g>
   <g id="legend_1">
    <g id="patch_7">
     <path d="M 62.144823 114.303359 
L 107.327723 114.303359 
Q 109.127723 114.303359 109.127723 112.503359 
L 109.127723 38.215937 
Q 109.127723 36.415937 107.327723 36.415937 
L 62.144823 36.415937 
Q 60.344823 36.415937 60.344823 38.215937 
L 60.344823 112.503359 
Q 60.344823 114.303359 62.144823 114.303359 
z
" style="fill: #ffffff; opacity: 0.8; stroke: #cccccc; stroke-width: 0.24; stroke-linejoin: miter"/>
    </g>
    <g id="text_13">
     <!-- $T_c$ -->
     <g transform="translate(80.377116 46.242587) scale(0.09 -0.09)">
      <defs>
       <path id="CMMI12-54" d="M 2669 3910 
C 2707 4064 2720 4121 2816 4147 
C 2867 4160 3078 4160 3213 4160 
C 3853 4160 4154 4134 4154 3634 
C 4154 3537 4128 3295 4090 3057 
L 4083 2980 
C 4083 2954 4109 2916 4147 2916 
C 4211 2916 4211 2948 4230 3050 
L 4416 4184 
C 4429 4243 4429 4256 4429 4275 
C 4429 4345 4390 4345 4262 4345 
L 762 4345 
C 614 4345 608 4339 570 4224 
L 179 3070 
C 173 3056 154 2986 154 2980 
C 154 2948 179 2916 218 2916 
C 269 2916 282 2941 307 3024 
C 576 3801 710 4160 1562 4160 
L 1990 4160 
C 2144 4160 2208 4160 2208 4089 
C 2208 4069 2208 4057 2176 3941 
L 1318 499 
C 1254 249 1242 185 563 185 
C 403 185 358 185 358 64 
C 358 0 429 0 461 0 
C 621 0 787 0 947 0 
L 1946 0 
C 2106 0 2278 0 2438 0 
C 2509 0 2573 0 2573 121 
C 2573 185 2528 185 2362 185 
C 1786 185 1786 243 1786 339 
C 1786 346 1786 391 1811 494 
L 2669 3910 
z
" transform="scale(0.015625)"/>
      </defs>
      <use xlink:href="#CMMI12-54" transform="scale(0.996264)"/>
      <use xlink:href="#CMMI12-63" transform="translate(57.175044 -14.943915) scale(0.697382)"/>
     </g>
    </g>
    <g id="line2d_21">
     <path d="M 63.944823 55.636049 
L 72.944823 55.636049 
L 81.944823 55.636049 
" style="fill: none; stroke-dasharray: 1.85,0.8; stroke-dashoffset: 0; stroke: #1f77b4; stroke-width: 0.5"/>
     <g>
      <use xlink:href="#m0f9c66d31a" x="72.944823" y="55.636049" style="fill: #1f77b4"/>
     </g>
    </g>
    <g id="text_14">
     <!-- $0.4$ -->
     <g transform="translate(89.144823 58.786049) scale(0.09 -0.09)">
      <use xlink:href="#CMR17-30" transform="scale(0.996264)"/>
      <use xlink:href="#CMMI12-3a" transform="translate(45.690477 0) scale(0.996264)"/>
      <use xlink:href="#CMR17-34" transform="translate(72.787654 0) scale(0.996264)"/>
     </g>
    </g>
    <g id="line2d_22">
     <path d="M 63.944823 68.179511 
L 72.944823 68.179511 
L 81.944823 68.179511 
" style="fill: none; stroke-dasharray: 1.85,0.8; stroke-dashoffset: 0; stroke: #ff7f0e; stroke-width: 0.5"/>
     <g>
      <use xlink:href="#mc5dab6ac4f" x="72.944823" y="68.179511" style="fill: #ff7f0e"/>
     </g>
    </g>
    <g id="text_15">
     <!-- $0.45$ -->
     <g transform="translate(89.144823 71.329511) scale(0.09 -0.09)">
      <defs>
       <path id="CMR17-35" d="M 730 3692 
C 794 3666 1056 3584 1325 3584 
C 1920 3584 2246 3911 2432 4100 
C 2432 4157 2432 4192 2394 4192 
C 2387 4192 2374 4192 2323 4163 
C 2099 4058 1837 3973 1517 3973 
C 1325 3973 1037 3999 723 4139 
C 653 4171 640 4171 634 4171 
C 602 4171 595 4164 595 4037 
L 595 2203 
C 595 2089 595 2057 659 2057 
C 691 2057 704 2070 736 2114 
C 941 2401 1222 2522 1542 2522 
C 1766 2522 2246 2382 2246 1289 
C 2246 1085 2246 715 2054 421 
C 1894 159 1645 25 1370 25 
C 947 25 518 320 403 814 
C 429 807 480 795 506 795 
C 589 795 749 840 749 1038 
C 749 1210 627 1280 506 1280 
C 358 1280 262 1190 262 1011 
C 262 454 704 -128 1382 -128 
C 2042 -128 2669 440 2669 1264 
C 2669 2030 2170 2624 1549 2624 
C 1222 2624 947 2503 730 2274 
L 730 3692 
z
" transform="scale(0.015625)"/>
      </defs>
      <use xlink:href="#CMR17-30" transform="scale(0.996264)"/>
      <use xlink:href="#CMMI12-3a" transform="translate(45.690477 0) scale(0.996264)"/>
      <use xlink:href="#CMR17-34" transform="translate(72.787654 0) scale(0.996264)"/>
      <use xlink:href="#CMR17-35" transform="translate(118.478131 0) scale(0.996264)"/>
     </g>
    </g>
    <g id="line2d_23">
     <path d="M 63.944823 80.722973 
L 72.944823 80.722973 
L 81.944823 80.722973 
" style="fill: none; stroke-dasharray: 1.85,0.8; stroke-dashoffset: 0; stroke: #2ca02c; stroke-width: 0.5"/>
     <g>
      <use xlink:href="#m018225fd87" x="72.944823" y="80.722973" style="fill: #2ca02c"/>
     </g>
    </g>
    <g id="text_16">
     <!-- $0.5$ -->
     <g transform="translate(89.144823 83.872973) scale(0.09 -0.09)">
      <use xlink:href="#CMR17-30" transform="scale(0.996264)"/>
      <use xlink:href="#CMMI12-3a" transform="translate(45.690477 0) scale(0.996264)"/>
      <use xlink:href="#CMR17-35" transform="translate(72.787654 0) scale(0.996264)"/>
     </g>
    </g>
    <g id="line2d_24">
     <path d="M 63.944823 93.266435 
L 72.944823 93.266435 
L 81.944823 93.266435 
" style="fill: none; stroke-dasharray: 1.85,0.8; stroke-dashoffset: 0; stroke: #d62728; stroke-width: 0.5"/>
     <g>
      <use xlink:href="#mb578420141" x="72.944823" y="93.266435" style="fill: #d62728"/>
     </g>
    </g>
    <g id="text_17">
     <!-- $0.55$ -->
     <g transform="translate(89.144823 96.416435) scale(0.09 -0.09)">
      <use xlink:href="#CMR17-30" transform="scale(0.996264)"/>
      <use xlink:href="#CMMI12-3a" transform="translate(45.690477 0) scale(0.996264)"/>
      <use xlink:href="#CMR17-35" transform="translate(72.787654 0) scale(0.996264)"/>
      <use xlink:href="#CMR17-35" transform="translate(118.478131 0) scale(0.996264)"/>
     </g>
    </g>
    <g id="line2d_25">
     <path d="M 63.944823 105.809897 
L 72.944823 105.809897 
L 81.944823 105.809897 
" style="fill: none; stroke-dasharray: 1.85,0.8; stroke-dashoffset: 0; stroke: #9467bd; stroke-width: 0.5"/>
     <g>
      <use xlink:href="#m65b605ad27" x="72.944823" y="105.809897" style="fill: #9467bd"/>
     </g>
    </g>
    <g id="text_18">
     <!-- $0.6$ -->
     <g transform="translate(89.144823 108.959897) scale(0.09 -0.09)">
      <use xlink:href="#CMR17-30" transform="scale(0.996264)"/>
      <use xlink:href="#CMMI12-3a" transform="translate(45.690477 0) scale(0.996264)"/>
      <use xlink:href="#CMR17-36" transform="translate(72.787654 0) scale(0.996264)"/>
     </g>
    </g>
   </g>
   <g id="legend_2">
    <g id="patch_8">
     <path d="M 134.6114 99.467414 
L 205.263883 99.467414 
Q 207.063883 99.467414 207.063883 97.667414 
L 207.063883 73.48049 
Q 207.063883 71.68049 205.263883 71.68049 
L 134.6114 71.68049 
Q 132.8114 71.68049 132.8114 73.48049 
L 132.8114 97.667414 
Q 132.8114 99.467414 134.6114 99.467414 
z
" style="fill: #ffffff; opacity: 0.8; stroke: #cccccc; stroke-width: 0.24; stroke-linejoin: miter"/>
    </g>
    <g id="line2d_26">
     <path d="M 136.4114 78.43049 
L 145.4114 78.43049 
L 154.4114 78.43049 
" style="fill: none; stroke-dasharray: 1.85,0.8; stroke-dashoffset: 0; stroke: #000000; stroke-width: 0.5"/>
     <defs>
      <path id="mec4fa592ee" d="M 0 1.4 
C 0.371284 1.4 0.727412 1.252487 0.989949 0.989949 
C 1.252487 0.727412 1.4 0.371284 1.4 0 
C 1.4 -0.371284 1.252487 -0.727412 0.989949 -0.989949 
C 0.727412 -1.252487 0.371284 -1.4 0 -1.4 
C -0.371284 -1.4 -0.727412 -1.252487 -0.989949 -0.989949 
C -1.252487 -0.727412 -1.4 -0.371284 -1.4 0 
C -1.4 0.371284 -1.252487 0.727412 -0.989949 0.989949 
C -0.727412 1.252487 -0.371284 1.4 0 1.4 
z
"/>
     </defs>
     <g>
      <use xlink:href="#mec4fa592ee" x="145.4114" y="78.43049"/>
     </g>
    </g>
    <g id="text_19">
     <!-- Cold Bath -->
     <g transform="translate(161.6114 81.58049) scale(0.09 -0.09)">
      <defs>
       <path id="CMR17-43" d="M 3974 4289 
C 3974 4403 3968 4410 3930 4410 
C 3904 4410 3898 4403 3853 4327 
L 3571 3792 
C 3258 4187 2874 4416 2381 4416 
C 1286 4416 294 3456 294 2148 
C 294 826 1286 -128 2387 -128 
C 3366 -128 3974 730 3974 1461 
C 3974 1524 3974 1550 3917 1550 
C 3866 1550 3866 1531 3859 1474 
C 3808 585 3168 38 2477 38 
C 1824 38 781 495 781 2147 
C 781 3805 1843 4250 2464 4250 
C 3187 4250 3712 3628 3834 2745 
C 3846 2668 3846 2655 3904 2655 
C 3974 2655 3974 2668 3974 2783 
L 3974 4289 
z
" transform="scale(0.015625)"/>
       <path id="CMR17-6f" d="M 2758 1356 
C 2758 2176 2163 2816 1466 2816 
C 768 2816 173 2176 173 1356 
C 173 551 768 -64 1466 -64 
C 2163 -64 2758 551 2758 1356 
z
M 1466 51 
C 1165 51 909 230 762 480 
C 602 767 582 1126 582 1408 
C 582 1677 595 2010 762 2298 
C 890 2509 1139 2714 1466 2714 
C 1754 2714 1997 2554 2150 2330 
C 2349 2029 2349 1607 2349 1408 
C 2349 1158 2336 775 2163 467 
C 1984 173 1709 51 1466 51 
z
" transform="scale(0.015625)"/>
       <path id="CMR17-6c" d="M 979 4396 
L 218 4326 
L 218 4160 
C 595 4160 653 4122 653 3817 
L 653 426 
C 653 184 627 153 218 153 
L 218 -13 
C 371 0 653 0 813 0 
C 979 0 1261 0 1414 -13 
L 1414 153 
C 1005 153 979 178 979 426 
L 979 4396 
z
" transform="scale(0.015625)"/>
       <path id="CMR17-64" d="M 1869 4326 
L 1869 4160 
C 2246 4160 2304 4122 2304 3820 
L 2304 2345 
C 2278 2377 2016 2790 1498 2790 
C 845 2790 211 2208 211 1364 
C 211 525 806 -64 1434 -64 
C 1978 -64 2259 337 2291 380 
L 2291 -63 
L 3066 -63 
L 3066 128 
C 2688 128 2630 166 2630 473 
L 2630 4396 
L 1869 4326 
z
M 2291 755 
C 2291 563 2176 390 2029 262 
C 1811 70 1594 38 1472 38 
C 1286 38 621 134 621 1356 
C 621 2612 1363 2688 1530 2688 
C 1824 2688 2061 2522 2208 2291 
C 2291 2157 2291 2138 2291 2023 
L 2291 755 
z
" transform="scale(0.015625)"/>
       <path id="CMR17-42" d="M 333 4352 
L 333 4186 
C 774 4186 845 4186 845 3900 
L 845 452 
C 845 166 774 166 333 166 
L 333 0 
L 2534 0 
C 3354 0 3885 583 3885 1164 
C 3885 1741 3360 2233 2675 2233 
C 3290 2356 3718 2771 3718 3264 
C 3718 3802 3194 4352 2368 4352 
L 333 4352 
z
M 1248 2304 
L 1248 3937 
C 1248 4155 1261 4186 1517 4186 
L 2336 4186 
C 2970 4186 3251 3674 3251 3277 
C 3251 2791 2861 2304 2170 2304 
L 1248 2304 
z
M 1517 166 
C 1261 166 1248 197 1248 413 
L 1248 2202 
L 2432 2202 
C 3091 2202 3411 1625 3411 1162 
C 3411 699 3046 166 2349 166 
L 1517 166 
z
" transform="scale(0.015625)"/>
       <path id="CMR17-61" d="M 2304 1653 
C 2304 2072 2304 2294 2035 2543 
C 1798 2752 1523 2816 1306 2816 
C 800 2816 435 2407 435 1971 
C 435 1728 627 1728 666 1728 
C 749 1728 896 1778 896 1954 
C 896 2112 774 2181 666 2181 
C 640 2181 608 2174 589 2168 
C 723 2592 1069 2714 1293 2714 
C 1613 2714 1965 2429 1965 1885 
L 1965 1600 
C 1587 1600 1133 1549 774 1357 
C 371 1133 256 813 256 570 
C 256 77 832 -64 1171 -64 
C 1523 -64 1850 139 1990 511 
C 2003 233 2182 -18 2464 -18 
C 2598 -18 2938 70 2938 567 
L 2938 920 
L 2822 920 
L 2822 562 
C 2822 178 2650 128 2566 128 
C 2304 128 2304 458 2304 738 
L 2304 1653 
z
M 1965 870 
C 1965 317 1568 38 1216 38 
C 896 38 646 275 646 570 
C 646 761 730 1100 1101 1305 
C 1408 1478 1760 1504 1965 1504 
L 1965 870 
z
" transform="scale(0.015625)"/>
       <path id="CMR17-74" d="M 966 2560 
L 1862 2560 
L 1862 2725 
L 966 2725 
L 966 3904 
L 851 3904 
C 838 3245 614 2668 70 2668 
L 70 2560 
L 627 2560 
L 627 771 
C 627 650 627 -64 1370 -64 
C 1747 -64 1965 306 1965 777 
L 1965 1140 
L 1850 1140 
L 1850 783 
C 1850 344 1677 51 1408 51 
C 1222 51 966 178 966 758 
L 966 2560 
z
" transform="scale(0.015625)"/>
       <path id="CMR17-68" d="M 2656 1933 
C 2656 2259 2592 2790 1837 2790 
C 1312 2790 1056 2368 979 2157 
L 973 2157 
L 973 4396 
L 211 4326 
L 211 4160 
C 589 4160 646 4122 646 3817 
L 646 426 
C 646 184 621 153 211 153 
L 211 -13 
C 365 0 646 0 813 0 
C 979 0 1267 0 1421 -13 
L 1421 153 
C 1011 153 986 178 986 428 
L 986 1658 
C 986 2247 1344 2688 1792 2688 
C 2266 2688 2317 2266 2317 1958 
L 2317 428 
C 2317 184 2291 153 1882 153 
L 1882 -13 
C 2035 0 2317 0 2483 0 
C 2650 0 2938 0 3091 -13 
L 3091 153 
C 2682 153 2656 178 2656 428 
L 2656 1933 
z
" transform="scale(0.015625)"/>
      </defs>
      <use xlink:href="#CMR17-43" transform="scale(0.996264)"/>
      <use xlink:href="#CMR17-6f" transform="translate(66.509881 0) scale(0.996264)"/>
      <use xlink:href="#CMR17-6c" transform="translate(112.200358 0) scale(0.996264)"/>
      <use xlink:href="#CMR17-64" transform="translate(137.071416 0) scale(0.996264)"/>
      <use xlink:href="#CMR17-42" transform="translate(218.042752 0) scale(0.996264)"/>
      <use xlink:href="#CMR17-61" transform="translate(283.231507 0) scale(0.996264)"/>
      <use xlink:href="#CMR17-74" transform="translate(328.921984 0) scale(0.996264)"/>
      <use xlink:href="#CMR17-68" transform="translate(364.202752 0) scale(0.996264)"/>
     </g>
    </g>
    <g id="line2d_27">
     <path d="M 136.4114 90.973952 
L 145.4114 90.973952 
L 154.4114 90.973952 
" style="fill: none; stroke-dasharray: 1.85,0.8; stroke-dashoffset: 0; stroke: #000000; stroke-width: 0.5"/>
     <defs>
      <path id="m4e0a76839b" d="M 0 -2.8 
L -0.628639 -0.865248 
L -2.662958 -0.865248 
L -1.01716 0.330495 
L -1.645799 2.265248 
L -0 1.069505 
L 1.645799 2.265248 
L 1.01716 0.330495 
L 2.662958 -0.865248 
L 0.628639 -0.865248 
z
"/>
     </defs>
     <g>
      <use xlink:href="#m4e0a76839b" x="145.4114" y="90.973952"/>
     </g>
    </g>
    <g id="text_20">
     <!-- Hot Bath -->
     <g transform="translate(161.6114 94.123952) scale(0.09 -0.09)">
      <defs>
       <path id="CMR17-48" d="M 3590 3905 
C 3590 4192 3661 4192 4102 4192 
L 4102 4352 
C 3917 4352 3578 4352 3379 4352 
C 3181 4352 2842 4352 2656 4352 
L 2656 4192 
C 3098 4192 3168 4192 3168 3904 
L 3168 2341 
L 1261 2341 
L 1261 3904 
C 1261 4192 1331 4192 1773 4192 
L 1773 4352 
C 1587 4352 1248 4352 1050 4352 
C 851 4352 512 4352 326 4352 
L 326 4192 
C 768 4192 838 4192 838 3905 
L 838 447 
C 838 160 768 160 326 160 
L 326 0 
C 512 0 851 0 1050 0 
C 1248 0 1587 0 1773 0 
L 1773 160 
C 1331 160 1261 160 1261 446 
L 1261 2176 
L 3168 2176 
L 3168 446 
C 3168 160 3098 160 2656 160 
L 2656 0 
C 2842 0 3181 0 3379 0 
C 3578 0 3917 0 4102 0 
L 4102 160 
C 3661 160 3590 160 3590 447 
L 3590 3905 
z
" transform="scale(0.015625)"/>
      </defs>
      <use xlink:href="#CMR17-48" transform="scale(0.996264)"/>
      <use xlink:href="#CMR17-6f" transform="translate(69.07243 0) scale(0.996264)"/>
      <use xlink:href="#CMR17-74" transform="translate(114.762907 0) scale(0.996264)"/>
      <use xlink:href="#CMR17-42" transform="translate(180.119641 0) scale(0.996264)"/>
      <use xlink:href="#CMR17-61" transform="translate(245.308396 0) scale(0.996264)"/>
      <use xlink:href="#CMR17-74" transform="translate(290.998873 0) scale(0.996264)"/>
      <use xlink:href="#CMR17-68" transform="translate(326.27964 0) scale(0.996264)"/>
     </g>
    </g>
   </g>
  </g>
 </g>
 <defs>
  <clipPath id="p8dea8ae4b0">
   <rect x="55.844823" y="7.2" width="190.154697" height="136.319296"/>
  </clipPath>
 </defs>
</svg>
