<?xml version="1.0" encoding="utf-8" standalone="no"?>
<!DOCTYPE svg PUBLIC "-//W3C//DTD SVG 1.1//EN"
  "http://www.w3.org/Graphics/SVG/1.1/DTD/svg11.dtd">
<svg xmlns:xlink="http://www.w3.org/1999/xlink" width="253.19952pt" height="238.79952pt" viewBox="0 0 253.19952 238.79952" xmlns="http://www.w3.org/2000/svg" version="1.1">
 <metadata>
  <rdf:RDF xmlns:dc="http://purl.org/dc/elements/1.1/" xmlns:cc="http://creativecommons.org/ns#" xmlns:rdf="http://www.w3.org/1999/02/22-rdf-syntax-ns#">
   <cc:Work>
    <dc:type rdf:resource="http://purl.org/dc/dcmitype/StillImage"/>
    <dc:date>1980-01-01T00:00:00+00:00</dc:date>
    <dc:format>image/svg+xml</dc:format>
    <dc:creator>
     <cc:Agent>
      <dc:title>Matplotlib v3.6.2, https://matplotlib.org/</dc:title>
     </cc:Agent>
    </dc:creator>
   </cc:Work>
  </rdf:RDF>
 </metadata>
 <defs>
  <style type="text/css">*{stroke-linejoin: round; stroke-linecap: butt}</style>
 </defs>
 <g id="figure_1">
  <g id="patch_1">
   <path d="M 0 238.79952 
L 253.19952 238.79952 
L 253.19952 0 
L 0 0 
z
" style="fill: #ffffff"/>
  </g>
  <g id="axes_1">
   <g id="patch_2">
    <path d="M 33.707196 202.559296 
L 245.99952 202.559296 
L 245.99952 7.2 
L 33.707196 7.2 
z
" style="fill: #ffffff"/>
   </g>
   <g id="matplotlib.axis_1">
    <g id="xtick_1">
     <g id="line2d_1">
      <defs>
       <path id="m766f0daa41" d="M 0 0 
L 0 3.5 
" style="stroke: #000000; stroke-width: 0.8"/>
      </defs>
      <g>
       <use xlink:href="#m766f0daa41" x="43.356847" y="202.559296" style="stroke: #000000; stroke-width: 0.8"/>
      </g>
     </g>
     <g id="text_1">
      <!-- $\mathdefault{0}$ -->
      <g transform="translate(41.239756 217.194098) scale(0.08 -0.08)">
       <defs>
        <path id="CMR17-30" d="M 2688 2025 
C 2688 2416 2682 3080 2413 3591 
C 2176 4039 1798 4198 1466 4198 
C 1158 4198 768 4058 525 3597 
C 269 3118 243 2524 243 2025 
C 243 1661 250 1106 448 619 
C 723 -39 1216 -128 1466 -128 
C 1760 -128 2208 -7 2470 600 
C 2662 1042 2688 1559 2688 2025 
z
M 1466 -26 
C 1056 -26 813 325 723 812 
C 653 1188 653 1738 653 2096 
C 653 2588 653 2997 736 3387 
C 858 3929 1216 4096 1466 4096 
C 1728 4096 2067 3923 2189 3400 
C 2272 3036 2278 2607 2278 2096 
C 2278 1680 2278 1169 2202 792 
C 2067 95 1690 -26 1466 -26 
z
" transform="scale(0.015625)"/>
       </defs>
       <use xlink:href="#CMR17-30" transform="scale(0.996264)"/>
      </g>
     </g>
    </g>
    <g id="xtick_2">
     <g id="line2d_2">
      <g>
       <use xlink:href="#m766f0daa41" x="70.161434" y="202.559296" style="stroke: #000000; stroke-width: 0.8"/>
      </g>
     </g>
     <g id="text_2">
      <!-- $\mathdefault{25}$ -->
      <g transform="translate(65.927251 217.194098) scale(0.08 -0.08)">
       <defs>
        <path id="CMR17-32" d="M 2669 989 
L 2554 989 
C 2490 536 2438 459 2413 420 
C 2381 369 1920 369 1830 369 
L 602 369 
C 832 619 1280 1072 1824 1597 
C 2214 1967 2669 2402 2669 3035 
C 2669 3790 2067 4224 1395 4224 
C 691 4224 262 3604 262 3030 
C 262 2780 448 2748 525 2748 
C 589 2748 781 2787 781 3010 
C 781 3207 614 3264 525 3264 
C 486 3264 448 3258 422 3245 
C 544 3790 915 4058 1306 4058 
C 1862 4058 2227 3617 2227 3035 
C 2227 2479 1901 2000 1536 1584 
L 262 146 
L 262 0 
L 2515 0 
L 2669 989 
z
" transform="scale(0.015625)"/>
        <path id="CMR17-35" d="M 730 3692 
C 794 3666 1056 3584 1325 3584 
C 1920 3584 2246 3911 2432 4100 
C 2432 4157 2432 4192 2394 4192 
C 2387 4192 2374 4192 2323 4163 
C 2099 4058 1837 3973 1517 3973 
C 1325 3973 1037 3999 723 4139 
C 653 4171 640 4171 634 4171 
C 602 4171 595 4164 595 4037 
L 595 2203 
C 595 2089 595 2057 659 2057 
C 691 2057 704 2070 736 2114 
C 941 2401 1222 2522 1542 2522 
C 1766 2522 2246 2382 2246 1289 
C 2246 1085 2246 715 2054 421 
C 1894 159 1645 25 1370 25 
C 947 25 518 320 403 814 
C 429 807 480 795 506 795 
C 589 795 749 840 749 1038 
C 749 1210 627 1280 506 1280 
C 358 1280 262 1190 262 1011 
C 262 454 704 -128 1382 -128 
C 2042 -128 2669 440 2669 1264 
C 2669 2030 2170 2624 1549 2624 
C 1222 2624 947 2503 730 2274 
L 730 3692 
z
" transform="scale(0.015625)"/>
       </defs>
       <use xlink:href="#CMR17-32" transform="scale(0.996264)"/>
       <use xlink:href="#CMR17-35" transform="translate(45.690477 0) scale(0.996264)"/>
      </g>
     </g>
    </g>
    <g id="xtick_3">
     <g id="line2d_3">
      <g>
       <use xlink:href="#m766f0daa41" x="96.96602" y="202.559296" style="stroke: #000000; stroke-width: 0.8"/>
      </g>
     </g>
     <g id="text_3">
      <!-- $\mathdefault{50}$ -->
      <g transform="translate(92.731837 217.194098) scale(0.08 -0.08)">
       <use xlink:href="#CMR17-35" transform="scale(0.996264)"/>
       <use xlink:href="#CMR17-30" transform="translate(45.690477 0) scale(0.996264)"/>
      </g>
     </g>
    </g>
    <g id="xtick_4">
     <g id="line2d_4">
      <g>
       <use xlink:href="#m766f0daa41" x="123.770606" y="202.559296" style="stroke: #000000; stroke-width: 0.8"/>
      </g>
     </g>
     <g id="text_4">
      <!-- $\mathdefault{75}$ -->
      <g transform="translate(119.536423 217.194098) scale(0.08 -0.08)">
       <defs>
        <path id="CMR17-37" d="M 2886 3941 
L 2886 4081 
L 1382 4081 
C 634 4081 621 4165 595 4288 
L 480 4288 
L 294 3094 
L 410 3094 
C 429 3215 474 3540 550 3661 
C 589 3712 1062 3712 1171 3712 
L 2579 3712 
L 1869 2661 
C 1395 1954 1069 999 1069 165 
C 1069 89 1069 -128 1299 -128 
C 1530 -128 1530 89 1530 171 
L 1530 465 
C 1530 1508 1709 2196 2003 2636 
L 2886 3941 
z
" transform="scale(0.015625)"/>
       </defs>
       <use xlink:href="#CMR17-37" transform="scale(0.996264)"/>
       <use xlink:href="#CMR17-35" transform="translate(45.690477 0) scale(0.996264)"/>
      </g>
     </g>
    </g>
    <g id="xtick_5">
     <g id="line2d_5">
      <g>
       <use xlink:href="#m766f0daa41" x="150.575193" y="202.559296" style="stroke: #000000; stroke-width: 0.8"/>
      </g>
     </g>
     <g id="text_5">
      <!-- $\mathdefault{100}$ -->
      <g transform="translate(144.223918 217.194098) scale(0.08 -0.08)">
       <defs>
        <path id="CMR17-31" d="M 1702 4058 
C 1702 4192 1696 4192 1606 4192 
C 1357 3916 979 3827 621 3827 
C 602 3827 570 3827 563 3808 
C 557 3795 557 3782 557 3648 
C 755 3648 1088 3686 1344 3839 
L 1344 461 
C 1344 236 1331 160 781 160 
L 589 160 
L 589 0 
C 896 0 1216 0 1523 0 
C 1830 0 2150 0 2458 0 
L 2458 160 
L 2266 160 
C 1715 160 1702 230 1702 458 
L 1702 4058 
z
" transform="scale(0.015625)"/>
       </defs>
       <use xlink:href="#CMR17-31" transform="scale(0.996264)"/>
       <use xlink:href="#CMR17-30" transform="translate(45.690477 0) scale(0.996264)"/>
       <use xlink:href="#CMR17-30" transform="translate(91.380954 0) scale(0.996264)"/>
      </g>
     </g>
    </g>
    <g id="xtick_6">
     <g id="line2d_6">
      <g>
       <use xlink:href="#m766f0daa41" x="177.379779" y="202.559296" style="stroke: #000000; stroke-width: 0.8"/>
      </g>
     </g>
     <g id="text_6">
      <!-- $\mathdefault{125}$ -->
      <g transform="translate(171.028505 217.194098) scale(0.08 -0.08)">
       <use xlink:href="#CMR17-31" transform="scale(0.996264)"/>
       <use xlink:href="#CMR17-32" transform="translate(45.690477 0) scale(0.996264)"/>
       <use xlink:href="#CMR17-35" transform="translate(91.380954 0) scale(0.996264)"/>
      </g>
     </g>
    </g>
    <g id="xtick_7">
     <g id="line2d_7">
      <g>
       <use xlink:href="#m766f0daa41" x="204.184365" y="202.559296" style="stroke: #000000; stroke-width: 0.8"/>
      </g>
     </g>
     <g id="text_7">
      <!-- $\mathdefault{150}$ -->
      <g transform="translate(197.833091 217.194098) scale(0.08 -0.08)">
       <use xlink:href="#CMR17-31" transform="scale(0.996264)"/>
       <use xlink:href="#CMR17-35" transform="translate(45.690477 0) scale(0.996264)"/>
       <use xlink:href="#CMR17-30" transform="translate(91.380954 0) scale(0.996264)"/>
      </g>
     </g>
    </g>
    <g id="xtick_8">
     <g id="line2d_8">
      <g>
       <use xlink:href="#m766f0daa41" x="230.988952" y="202.559296" style="stroke: #000000; stroke-width: 0.8"/>
      </g>
     </g>
     <g id="text_8">
      <!-- $\mathdefault{175}$ -->
      <g transform="translate(224.637677 217.194098) scale(0.08 -0.08)">
       <use xlink:href="#CMR17-31" transform="scale(0.996264)"/>
       <use xlink:href="#CMR17-37" transform="translate(45.690477 0) scale(0.996264)"/>
       <use xlink:href="#CMR17-35" transform="translate(91.380954 0) scale(0.996264)"/>
      </g>
     </g>
    </g>
    <g id="text_9">
     <!-- $\tau$ -->
     <g transform="translate(137.675756 229.662342) scale(0.1 -0.1)">
      <defs>
       <path id="CMMI12-1c" d="M 1837 2408 
L 2899 2408 
C 2982 2408 3194 2408 3194 2612 
C 3194 2752 3072 2752 2957 2752 
L 1197 2752 
C 1050 2752 832 2752 538 2440 
C 371 2255 166 1917 166 1879 
C 166 1841 198 1828 237 1828 
C 282 1828 288 1847 320 1885 
C 653 2408 986 2408 1146 2408 
L 1677 2408 
L 1011 223 
C 979 127 979 114 979 95 
C 979 25 1024 -64 1152 -64 
C 1350 -64 1382 108 1402 203 
L 1837 2408 
z
" transform="scale(0.015625)"/>
      </defs>
      <use xlink:href="#CMMI12-1c" transform="scale(0.996264)"/>
     </g>
    </g>
   </g>
   <g id="matplotlib.axis_2">
    <g id="ytick_1">
     <g id="line2d_9">
      <defs>
       <path id="m02ae8145f7" d="M 0 0 
L -3.5 0 
" style="stroke: #000000; stroke-width: 0.8"/>
      </defs>
      <g>
       <use xlink:href="#m02ae8145f7" x="33.707196" y="193.679328" style="stroke: #000000; stroke-width: 0.8"/>
      </g>
     </g>
     <g id="text_10">
      <!-- $\mathdefault{−1.0}$ -->
      <g transform="translate(7.2 196.446729) scale(0.08 -0.08)">
       <defs>
        <path id="CMSY10-0" d="M 4218 1472 
C 4326 1472 4442 1472 4442 1600 
C 4442 1728 4326 1728 4218 1728 
L 755 1728 
C 646 1728 531 1728 531 1600 
C 531 1472 646 1472 755 1472 
L 4218 1472 
z
" transform="scale(0.015625)"/>
        <path id="CMMI12-3a" d="M 1178 307 
C 1178 492 1024 619 870 619 
C 685 619 557 466 557 313 
C 557 128 710 0 864 0 
C 1050 0 1178 153 1178 307 
z
" transform="scale(0.015625)"/>
       </defs>
       <use xlink:href="#CMSY10-0" transform="scale(0.996264)"/>
       <use xlink:href="#CMR17-31" transform="translate(77.487468 0) scale(0.996264)"/>
       <use xlink:href="#CMMI12-3a" transform="translate(123.177945 0) scale(0.996264)"/>
       <use xlink:href="#CMR17-30" transform="translate(150.275122 0) scale(0.996264)"/>
      </g>
     </g>
    </g>
    <g id="ytick_2">
     <g id="line2d_10">
      <g>
       <use xlink:href="#m02ae8145f7" x="33.707196" y="158.400688" style="stroke: #000000; stroke-width: 0.8"/>
      </g>
     </g>
     <g id="text_11">
      <!-- $\mathdefault{−0.8}$ -->
      <g transform="translate(7.2 161.168089) scale(0.08 -0.08)">
       <defs>
        <path id="CMR17-38" d="M 1741 2264 
C 2144 2467 2554 2773 2554 3263 
C 2554 3841 1990 4179 1472 4179 
C 890 4179 378 3759 378 3180 
C 378 3021 416 2747 666 2505 
C 730 2442 998 2251 1171 2130 
C 883 1983 211 1634 211 934 
C 211 279 838 -128 1459 -128 
C 2144 -128 2720 362 2720 1010 
C 2720 1590 2330 1857 2074 2029 
L 1741 2264 
z
M 902 2822 
C 851 2854 595 3051 595 3351 
C 595 3739 998 4032 1459 4032 
C 1965 4032 2336 3676 2336 3262 
C 2336 2669 1670 2331 1638 2331 
C 1632 2331 1626 2331 1574 2370 
L 902 2822 
z
M 2080 1519 
C 2176 1449 2483 1240 2483 851 
C 2483 381 2010 25 1472 25 
C 890 25 448 438 448 940 
C 448 1443 838 1862 1280 2060 
L 2080 1519 
z
" transform="scale(0.015625)"/>
       </defs>
       <use xlink:href="#CMSY10-0" transform="scale(0.996264)"/>
       <use xlink:href="#CMR17-30" transform="translate(77.487468 0) scale(0.996264)"/>
       <use xlink:href="#CMMI12-3a" transform="translate(123.177945 0) scale(0.996264)"/>
       <use xlink:href="#CMR17-38" transform="translate(150.275122 0) scale(0.996264)"/>
      </g>
     </g>
    </g>
    <g id="ytick_3">
     <g id="line2d_11">
      <g>
       <use xlink:href="#m02ae8145f7" x="33.707196" y="123.122049" style="stroke: #000000; stroke-width: 0.8"/>
      </g>
     </g>
     <g id="text_12">
      <!-- $\mathdefault{−0.6}$ -->
      <g transform="translate(7.2 125.88945) scale(0.08 -0.08)">
       <defs>
        <path id="CMR17-36" d="M 678 2176 
C 678 3690 1395 4032 1811 4032 
C 1946 4032 2272 4009 2400 3776 
C 2298 3776 2106 3776 2106 3553 
C 2106 3381 2246 3323 2336 3323 
C 2394 3323 2566 3348 2566 3560 
C 2566 3954 2246 4179 1805 4179 
C 1043 4179 243 3390 243 1984 
C 243 253 966 -128 1478 -128 
C 2099 -128 2688 427 2688 1283 
C 2688 2081 2170 2662 1517 2662 
C 1126 2662 838 2407 678 1960 
L 678 2176 
z
M 1478 25 
C 691 25 691 1200 691 1436 
C 691 1896 909 2560 1504 2560 
C 1613 2560 1926 2560 2138 2120 
C 2253 1870 2253 1609 2253 1289 
C 2253 944 2253 690 2118 434 
C 1978 171 1773 25 1478 25 
z
" transform="scale(0.015625)"/>
       </defs>
       <use xlink:href="#CMSY10-0" transform="scale(0.996264)"/>
       <use xlink:href="#CMR17-30" transform="translate(77.487468 0) scale(0.996264)"/>
       <use xlink:href="#CMMI12-3a" transform="translate(123.177945 0) scale(0.996264)"/>
       <use xlink:href="#CMR17-36" transform="translate(150.275122 0) scale(0.996264)"/>
      </g>
     </g>
    </g>
    <g id="ytick_4">
     <g id="line2d_12">
      <g>
       <use xlink:href="#m02ae8145f7" x="33.707196" y="87.843409" style="stroke: #000000; stroke-width: 0.8"/>
      </g>
     </g>
     <g id="text_13">
      <!-- $\mathdefault{−0.4}$ -->
      <g transform="translate(7.2 90.61081) scale(0.08 -0.08)">
       <defs>
        <path id="CMR17-34" d="M 2150 4122 
C 2150 4256 2144 4256 2029 4256 
L 128 1254 
L 128 1088 
L 1779 1088 
L 1779 457 
C 1779 224 1766 160 1318 160 
L 1197 160 
L 1197 0 
C 1402 0 1747 0 1965 0 
C 2182 0 2528 0 2733 0 
L 2733 160 
L 2611 160 
C 2163 160 2150 224 2150 457 
L 2150 1088 
L 2803 1088 
L 2803 1254 
L 2150 1254 
L 2150 4122 
z
M 1798 3703 
L 1798 1254 
L 256 1254 
L 1798 3703 
z
" transform="scale(0.015625)"/>
       </defs>
       <use xlink:href="#CMSY10-0" transform="scale(0.996264)"/>
       <use xlink:href="#CMR17-30" transform="translate(77.487468 0) scale(0.996264)"/>
       <use xlink:href="#CMMI12-3a" transform="translate(123.177945 0) scale(0.996264)"/>
       <use xlink:href="#CMR17-34" transform="translate(150.275122 0) scale(0.996264)"/>
      </g>
     </g>
    </g>
    <g id="ytick_5">
     <g id="line2d_13">
      <g>
       <use xlink:href="#m02ae8145f7" x="33.707196" y="52.56477" style="stroke: #000000; stroke-width: 0.8"/>
      </g>
     </g>
     <g id="text_14">
      <!-- $\mathdefault{−0.2}$ -->
      <g transform="translate(7.2 55.332171) scale(0.08 -0.08)">
       <use xlink:href="#CMSY10-0" transform="scale(0.996264)"/>
       <use xlink:href="#CMR17-30" transform="translate(77.487468 0) scale(0.996264)"/>
       <use xlink:href="#CMMI12-3a" transform="translate(123.177945 0) scale(0.996264)"/>
       <use xlink:href="#CMR17-32" transform="translate(150.275122 0) scale(0.996264)"/>
      </g>
     </g>
    </g>
    <g id="ytick_6">
     <g id="line2d_14">
      <g>
       <use xlink:href="#m02ae8145f7" x="33.707196" y="17.28613" style="stroke: #000000; stroke-width: 0.8"/>
      </g>
     </g>
     <g id="text_15">
      <!-- $\mathdefault{0.0}$ -->
      <g transform="translate(13.786507 20.053531) scale(0.08 -0.08)">
       <use xlink:href="#CMR17-30" transform="scale(0.996264)"/>
       <use xlink:href="#CMMI12-3a" transform="translate(45.690477 0) scale(0.996264)"/>
       <use xlink:href="#CMR17-30" transform="translate(72.787654 0) scale(0.996264)"/>
      </g>
     </g>
    </g>
   </g>
   <g id="line2d_15">
    <path d="M 43.356847 193.679328 
L 43.421178 193.347606 
L 43.614171 188.787089 
L 44.707798 150.541473 
L 45.029453 146.937484 
L 45.222446 146.283003 
L 45.351108 146.381446 
L 45.544101 147.199297 
L 45.865757 149.900804 
L 47.023715 160.983529 
L 47.409701 162.543012 
L 47.860018 163.27896 
L 48.760652 164.635889 
L 50.240265 167.68527 
L 50.947906 168.393111 
L 51.977202 169.287668 
L 52.427519 169.890434 
L 53.456815 171.554103 
L 53.714139 171.611441 
L 53.907132 171.43594 
L 54.164456 170.789998 
L 54.486111 169.10826 
L 54.872098 165.532547 
L 55.322415 159.001053 
L 55.965725 145.893986 
L 57.895655 104.075623 
L 58.667627 93.053528 
L 59.375268 85.619437 
L 60.211571 79.394457 
L 61.240867 73.514399 
L 62.141501 69.476544 
L 62.72048 67.759056 
L 63.492453 66.148071 
L 64.328756 64.860577 
L 65.808369 62.063852 
L 66.580341 61.409467 
L 66.966327 61.388585 
L 67.352313 61.342167 
L 67.866961 60.935151 
L 68.252947 60.73026 
L 69.282243 60.628388 
L 70.182877 60.552429 
L 70.504532 60.491066 
L 71.212173 60.544648 
L 71.919814 60.366679 
L 72.370132 60.456804 
L 72.88478 60.605277 
L 73.849745 60.449896 
L 74.621717 60.869047 
L 75.972668 60.665477 
L 76.358654 60.702537 
L 76.615978 60.463232 
L 77.001964 59.700063 
L 77.38795 58.506886 
L 77.773936 56.521241 
L 78.931894 48.456996 
L 79.575204 44.618729 
L 80.089852 43.037824 
L 80.540169 42.20185 
L 81.183479 41.375473 
L 81.82679 40.515633 
L 82.212776 40.315926 
L 82.727424 40.056446 
L 83.370734 39.681951 
L 84.528692 39.311195 
L 85.04334 39.606026 
L 85.493657 40.044772 
L 86.651615 41.718046 
L 87.101932 43.158422 
L 87.552249 45.540943 
L 88.066897 49.630012 
L 88.710207 56.967508 
L 89.739503 71.956959 
L 90.961793 88.979024 
L 91.862427 98.659403 
L 92.827392 106.705438 
L 93.792357 112.404755 
L 94.692991 116.349394 
L 95.336301 118.395299 
L 96.301266 120.501176 
L 97.073238 121.778129 
L 98.48852 123.466474 
L 99.131831 124.011217 
L 101.319085 125.266038 
L 101.769402 125.367214 
L 102.477043 125.426009 
L 104.985952 126.072285 
L 105.822255 125.942367 
L 108.138172 125.931856 
L 108.459827 125.987513 
L 108.717151 126.359502 
L 109.038806 127.413874 
L 109.360461 129.277317 
L 109.810778 133.371751 
L 110.711412 144.359098 
L 111.354722 150.698079 
L 111.933701 154.21584 
L 112.770004 157.525495 
L 114.44261 163.173528 
L 115.150251 164.722302 
L 116.436871 166.960805 
L 117.916485 170.046351 
L 118.173809 170.102674 
L 118.366802 169.862217 
L 118.624126 169.011328 
L 118.945781 166.872928 
L 119.331767 162.689905 
L 119.846415 154.37024 
L 120.554056 138.880189 
L 121.840676 110.115143 
L 122.612648 97.38855 
L 123.38462 88.113495 
L 124.02793 83.041186 
L 125.378881 74.457826 
L 126.601171 69.207304 
L 127.244481 67.582978 
L 128.273777 65.163371 
L 129.174411 63.936751 
L 129.75339 63.238867 
L 130.139376 63.078797 
L 130.525362 62.894039 
L 131.68332 61.970839 
L 132.197968 61.724662 
L 133.484588 60.878996 
L 133.806243 60.933739 
L 134.25656 60.982883 
L 134.706878 60.773578 
L 135.350188 60.393566 
L 135.800505 60.52308 
L 136.186491 60.556716 
L 136.76547 60.488231 
L 137.537442 60.690974 
L 138.180752 60.247892 
L 139.33871 60.131043 
L 139.660365 59.872162 
L 140.110682 59.347286 
L 140.368006 59.405526 
L 141.075647 59.688696 
L 141.332971 59.462521 
L 141.590295 58.836841 
L 141.976281 57.030224 
L 142.683922 52.342558 
L 143.713219 45.967255 
L 144.356529 43.306827 
L 144.935508 41.810719 
L 145.450156 41.143188 
L 146.093466 40.771158 
L 146.415121 40.476429 
L 147.830403 38.897452 
L 148.859699 38.535539 
L 149.438678 38.387751 
L 149.696002 38.558465 
L 150.146319 39.229033 
L 150.85396 40.817027 
L 151.304277 42.436216 
L 151.818925 45.162839 
L 152.333573 49.178335 
L 152.976884 56.253853 
L 154.070511 71.577064 
L 155.614455 92.557841 
L 156.515089 101.877491 
L 157.287061 107.880095 
L 158.059033 112.277146 
L 159.088329 116.654087 
L 159.924632 119.32795 
L 160.503611 120.591615 
L 162.30488 123.405375 
L 162.883859 124.050337 
L 163.848824 124.894671 
L 164.749458 125.343563 
L 166.100409 125.668091 
L 167.258367 126.169629 
L 167.837346 126.157541 
L 169.638614 126.186921 
L 170.925235 126.544261 
L 172.469179 126.492205 
L 172.790834 126.596011 
L 173.048158 126.905799 
L 173.305482 127.57674 
L 173.627137 129.185115 
L 174.013123 132.459429 
L 174.849426 142.477936 
L 175.557067 150.063705 
L 176.136046 153.803096 
L 176.908018 157.092576 
L 178.3233 161.980952 
L 179.481259 164.745201 
L 181.411189 168.611142 
L 182.11883 169.98222 
L 182.376154 170.109227 
L 182.569147 169.988582 
L 182.76214 169.624671 
L 183.019464 168.6166 
L 183.341119 166.341285 
L 183.791436 161.086005 
L 184.306084 152.057976 
L 185.271049 129.752795 
L 186.300345 107.749332 
L 187.072317 95.83912 
L 187.90862 86.678812 
L 188.809255 79.076377 
L 189.581227 74.367243 
L 190.224537 71.525762 
L 191.06084 68.900755 
L 192.090136 66.944965 
L 193.119432 64.390149 
L 194.27739 62.80104 
L 194.9207 62.271819 
L 195.435348 61.94186 
L 196.335982 61.637586 
L 197.686934 60.858403 
L 200.64616 59.905993 
L 201.482463 60.110095 
L 202.57609 59.884663 
L 203.283731 60.048128 
L 204.763344 60.103173 
L 205.084999 60.154338 
L 205.342323 59.913767 
L 205.599647 59.37851 
L 205.985634 57.956227 
L 206.693275 54.16779 
L 208.558874 43.583401 
L 209.009191 42.313936 
L 209.523839 41.47534 
L 210.295811 40.774424 
L 211.904086 39.320762 
L 212.418734 39.297025 
L 212.869051 39.463178 
L 213.44803 39.652469 
L 214.220002 39.911792 
L 214.670319 40.40197 
L 215.056306 41.103882 
L 215.506623 42.454111 
L 216.021271 44.75033 
L 216.535919 48.18837 
L 217.114898 53.727163 
L 217.822539 63.138932 
L 219.752469 89.819465 
L 220.653103 99.516673 
L 221.553737 106.922035 
L 222.39004 111.794134 
L 223.355005 116.048126 
L 224.191309 118.665869 
L 224.89895 120.247152 
L 225.477929 121.157316 
L 227.021873 123.415281 
L 227.600852 124.123691 
L 228.308493 124.559877 
L 230.109761 125.42796 
L 232.425677 126.004125 
L 233.004657 125.910452 
L 233.84096 125.964558 
L 234.291277 125.913762 
L 236.349869 126.378926 
L 236.349869 126.378926 
" clip-path="url(#p8172a33d4a)" style="fill: none; stroke: #1f77b4; stroke-width: 0.5; stroke-linecap: square"/>
   </g>
   <g id="line2d_16">
    <path d="M 43.356847 17.28613 
L 44.064488 16.981859 
L 44.965122 16.896624 
L 47.731356 16.952238 
L 55.965725 16.88761 
L 58.924951 16.794684 
L 74.750379 16.781231 
L 110.261095 16.872296 
L 115.793561 16.965034 
L 120.232401 16.889631 
L 123.255958 16.794358 
L 140.946985 16.781029 
L 174.527771 16.871062 
L 180.574886 16.96966 
L 184.434746 16.898894 
L 187.458303 16.796272 
L 201.546794 16.78126 
L 236.349869 16.839846 
L 236.349869 16.839846 
" clip-path="url(#p8172a33d4a)" style="fill: none; stroke: #ff7f0e; stroke-width: 0.5; stroke-linecap: square"/>
   </g>
   <g id="line2d_17">
    <path d="M 43.356847 17.28613 
L 44.321812 17.503283 
L 45.351108 17.466993 
L 47.538363 17.437775 
L 48.63199 17.215313 
L 49.532624 17.244918 
L 51.20523 17.410108 
L 51.84854 17.249891 
L 52.298857 17.173082 
L 53.328153 17.36467 
L 54.42178 17.73269 
L 54.872098 17.59861 
L 55.515408 17.102837 
L 56.28738 16.485516 
L 56.673366 16.457268 
L 57.059352 16.698232 
L 57.959986 17.516631 
L 58.281641 17.452424 
L 58.667627 17.132063 
L 59.568261 16.079968 
L 59.825585 16.228532 
L 60.14724 16.779674 
L 60.661888 17.698123 
L 60.983543 17.842762 
L 61.305198 17.68372 
L 62.012839 17.21756 
L 62.334494 17.361608 
L 63.235128 17.797601 
L 63.749777 17.765848 
L 64.779073 17.61615 
L 66.065693 16.907703 
L 66.451679 16.821759 
L 66.837665 17.009058 
L 67.931292 17.561263 
L 68.188616 17.449794 
L 68.960588 16.880338 
L 69.475236 17.015285 
L 70.37587 17.422932 
L 70.697525 17.293149 
L 71.340835 16.986155 
L 72.048476 17.153519 
L 72.563125 17.337995 
L 73.399428 17.622244 
L 74.364393 17.344097 
L 74.879041 17.374973 
L 76.036999 16.863541 
L 76.487316 17.217651 
L 77.066295 17.657701 
L 77.516612 17.671576 
L 79.382211 17.516815 
L 80.218514 17.638077 
L 81.569466 17.968784 
L 82.4701 17.621422 
L 83.435065 17.028011 
L 83.949713 16.939359 
L 84.528692 17.029127 
L 85.364995 17.078967 
L 86.715946 17.232333 
L 87.359256 17.289517 
L 87.873904 17.215744 
L 89.160524 17.628898 
L 89.610841 17.687708 
L 90.382814 17.449241 
L 91.926758 17.224862 
L 93.277709 17.05147 
L 93.728026 17.018982 
L 95.336301 17.325139 
L 95.786618 17.459732 
L 98.552851 17.703444 
L 99.324824 17.69547 
L 100.161127 17.643637 
L 100.99743 17.261132 
L 101.447747 17.290768 
L 101.833733 17.302876 
L 102.991691 16.867787 
L 104.406973 16.741426 
L 104.921621 16.884606 
L 106.722889 17.746311 
L 107.237537 17.525584 
L 107.816516 17.288622 
L 108.331165 17.186386 
L 109.231799 16.92637 
L 109.682116 17.021424 
L 110.454088 17.484647 
L 111.097398 17.890015 
L 111.419053 17.765057 
L 112.062363 17.142763 
L 112.448349 16.879513 
L 112.770004 16.901067 
L 114.056624 17.31121 
L 114.506941 17.260492 
L 114.892927 17.217056 
L 115.343244 17.200418 
L 116.501202 17.432656 
L 117.852154 17.859853 
L 118.366802 17.662352 
L 119.138774 17.318197 
L 119.52476 17.373826 
L 120.81138 17.813015 
L 121.326028 17.50191 
L 122.226662 16.888767 
L 123.127296 16.722931 
L 123.513282 16.955146 
L 124.928564 18.052849 
L 125.250219 17.898188 
L 126.408178 17.045174 
L 126.794164 17.05766 
L 127.82346 17.363546 
L 128.46677 17.180666 
L 128.788425 17.170703 
L 129.496066 17.334099 
L 129.882052 17.174956 
L 130.525362 16.747722 
L 131.233003 16.842382 
L 132.197968 17.422912 
L 132.712616 17.750218 
L 133.034271 17.68113 
L 133.548919 17.188252 
L 134.320891 16.525831 
L 134.771209 16.652687 
L 135.350188 16.993982 
L 136.12216 17.47804 
L 136.508146 17.455315 
L 137.473111 17.262898 
L 137.923428 17.381624 
L 138.566738 17.678043 
L 139.017055 17.53787 
L 140.175013 17.036495 
L 140.496668 17.326305 
L 140.946985 17.740853 
L 141.204309 17.738218 
L 142.619591 17.186658 
L 144.034874 17.306848 
L 145.836142 16.547132 
L 146.35079 16.785934 
L 147.959065 17.68684 
L 148.409382 17.689409 
L 148.795368 17.50732 
L 149.438678 17.098662 
L 149.953326 17.111364 
L 151.49727 17.484224 
L 152.011918 17.571796 
L 152.848222 17.356538 
L 153.684525 17.118021 
L 154.64949 17.348817 
L 155.421462 17.378773 
L 156.965406 16.855561 
L 158.573681 16.832582 
L 160.503611 17.319681 
L 161.08259 17.349894 
L 163.720162 16.747818 
L 164.620796 16.802095 
L 165.328437 16.661448 
L 165.778754 16.822749 
L 166.743719 17.370725 
L 167.322698 17.36674 
L 167.773015 17.479326 
L 168.287663 17.557923 
L 169.123966 17.508184 
L 170.0246 17.391489 
L 173.755799 17.709374 
L 175.171081 17.214562 
L 175.75006 17.295855 
L 176.136046 17.429883 
L 177.872983 17.282175 
L 178.451962 17.533354 
L 179.030941 17.518618 
L 179.609921 17.545676 
L 180.510555 17.728533 
L 181.539851 17.902646 
L 183.148126 17.331953 
L 184.370415 17.414267 
L 186.300345 17.73487 
L 187.522634 17.110581 
L 188.101613 17.473396 
L 188.551931 17.635071 
L 189.066579 17.572832 
L 189.709889 17.575685 
L 190.224537 17.42659 
L 191.06084 17.123199 
L 191.897143 17.319488 
L 192.476122 17.336486 
L 192.99077 17.345205 
L 193.376756 17.128971 
L 193.762742 16.975384 
L 194.406052 17.135929 
L 195.049362 17.45596 
L 195.499679 17.542967 
L 195.885665 17.319882 
L 196.593306 16.912362 
L 196.979292 17.011569 
L 197.365279 17.405259 
L 197.815596 17.800431 
L 198.201582 17.818246 
L 198.587568 17.565549 
L 199.037885 17.316936 
L 199.423871 17.377806 
L 199.874188 17.471698 
L 200.260174 17.248927 
L 200.839153 16.89405 
L 201.160808 16.964557 
L 201.546794 17.39856 
L 202.061442 17.968407 
L 202.318766 17.978691 
L 203.669717 17.369568 
L 204.184365 17.604132 
L 204.570351 17.666631 
L 204.956337 17.47918 
L 205.535316 17.190168 
L 205.985634 17.246576 
L 206.950599 17.442592 
L 209.909825 17.314484 
L 210.360142 17.483925 
L 210.939121 17.70153 
L 211.325107 17.577302 
L 212.354403 17.057045 
L 212.869051 17.128735 
L 213.705354 17.244301 
L 214.670319 17.144349 
L 215.828278 17.258477 
L 217.372222 17.675743 
L 217.758208 17.659936 
L 219.752469 17.194943 
L 220.974758 17.275881 
L 221.489406 17.197319 
L 222.132716 17.091723 
L 222.840357 17.254059 
L 223.290674 17.241177 
L 223.805323 17.230464 
L 225.735253 17.519126 
L 226.249901 17.575804 
L 226.700218 17.588855 
L 227.47219 17.585324 
L 228.308493 17.618363 
L 230.881733 17.121819 
L 231.525043 17.203638 
L 232.168353 17.368904 
L 233.712298 17.596377 
L 235.256242 17.204603 
L 235.77089 17.328808 
L 236.349869 17.427924 
L 236.349869 17.427924 
" clip-path="url(#p8172a33d4a)" style="fill: none; stroke: #2ca02c; stroke-width: 0.5; stroke-linecap: square"/>
   </g>
   <g id="patch_3">
    <path d="M 33.707196 202.559296 
L 33.707196 7.2 
" style="fill: none; stroke: #000000; stroke-width: 0.8; stroke-linejoin: miter; stroke-linecap: square"/>
   </g>
   <g id="patch_4">
    <path d="M 245.99952 202.559296 
L 245.99952 7.2 
" style="fill: none; stroke: #000000; stroke-width: 0.8; stroke-linejoin: miter; stroke-linecap: square"/>
   </g>
   <g id="patch_5">
    <path d="M 33.707196 202.559296 
L 245.99952 202.559296 
" style="fill: none; stroke: #000000; stroke-width: 0.8; stroke-linejoin: miter; stroke-linecap: square"/>
   </g>
   <g id="patch_6">
    <path d="M 33.707196 7.2 
L 245.99952 7.2 
" style="fill: none; stroke: #000000; stroke-width: 0.8; stroke-linejoin: miter; stroke-linecap: square"/>
   </g>
   <g id="legend_1">
    <g id="patch_7">
     <path d="M 193.792605 198.059296 
L 239.69952 198.059296 
Q 241.49952 198.059296 241.49952 196.259296 
L 241.49952 156.760168 
Q 241.49952 154.960168 239.69952 154.960168 
L 193.792605 154.960168 
Q 191.992605 154.960168 191.992605 156.760168 
L 191.992605 196.259296 
Q 191.992605 198.059296 193.792605 198.059296 
z
" style="fill: #ffffff; opacity: 0.8; stroke: #cccccc; stroke-width: 0.24; stroke-linejoin: miter"/>
    </g>
    <g id="line2d_18">
     <path d="M 195.592605 162.13495 
L 204.592605 162.13495 
L 213.592605 162.13495 
" style="fill: none; stroke: #1f77b4; stroke-width: 0.5; stroke-linecap: square"/>
    </g>
    <g id="text_16">
     <!-- $\langle \sigma_z\rangle$ -->
     <g transform="translate(220.792605 165.28495) scale(0.09 -0.09)">
      <defs>
       <path id="CMSY10-68" d="M 2099 4557 
C 2131 4627 2131 4640 2131 4672 
C 2131 4742 2074 4800 2003 4800 
C 1946 4800 1901 4768 1856 4653 
L 736 1715 
C 723 1677 704 1638 704 1600 
C 704 1581 704 1568 736 1491 
L 1856 -1446 
C 1882 -1517 1914 -1600 2003 -1600 
C 2074 -1600 2131 -1542 2131 -1472 
C 2131 -1453 2131 -1440 2099 -1370 
L 966 1600 
L 2099 4557 
z
" transform="scale(0.015625)"/>
       <path id="CMMI12-1b" d="M 3251 2408 
C 3334 2408 3546 2408 3546 2612 
C 3546 2752 3424 2752 3309 2752 
L 1894 2752 
C 934 2752 243 1686 243 932 
C 243 390 595 -64 1171 -64 
C 1926 -64 2752 747 2752 1705 
C 2752 1954 2694 2196 2541 2408 
L 3251 2408 
z
M 1178 64 
C 851 64 614 313 614 754 
C 614 1137 845 2408 1786 2408 
C 2061 2408 2368 2274 2368 1781 
C 2368 1558 2266 1021 2042 652 
C 1811 275 1466 64 1178 64 
z
" transform="scale(0.015625)"/>
       <path id="CMMI12-7a" d="M 813 486 
C 1088 803 1312 1004 1632 1296 
C 2016 1632 2182 1793 2272 1891 
C 2720 2338 2944 2713 2944 2764 
C 2944 2816 2893 2816 2880 2816 
C 2835 2816 2822 2793 2790 2750 
C 2630 2494 2477 2367 2310 2367 
C 2176 2367 2106 2421 1984 2565 
C 1850 2715 1741 2816 1555 2816 
C 1088 2816 806 2257 806 2128 
C 806 2108 813 2068 870 2068 
C 922 2068 928 2091 947 2133 
C 1056 2372 1363 2414 1485 2414 
C 1619 2414 1747 2376 1882 2327 
C 2125 2240 2227 2240 2291 2240 
C 2336 2240 2362 2240 2394 2246 
C 2182 1994 1837 1683 1549 1418 
L 902 816 
C 512 415 275 33 275 -12 
C 275 -51 307 -64 346 -64 
C 384 -64 390 -57 435 14 
C 538 163 742 384 979 384 
C 1114 384 1178 342 1306 193 
C 1427 61 1536 -64 1741 -64 
C 2368 -64 2726 732 2726 876 
C 2726 903 2720 942 2656 942 
C 2605 942 2598 917 2579 855 
C 2438 488 2061 338 1811 338 
C 1677 338 1549 376 1414 425 
C 1158 512 1088 512 1005 512 
C 941 512 870 512 813 486 
z
" transform="scale(0.015625)"/>
       <path id="CMSY10-69" d="M 1747 1491 
C 1779 1568 1779 1581 1779 1600 
C 1779 1619 1779 1632 1747 1709 
L 627 4653 
C 589 4762 550 4800 480 4800 
C 410 4800 352 4742 352 4672 
C 352 4653 352 4640 384 4570 
L 1517 1600 
L 384 -1357 
C 352 -1427 352 -1440 352 -1472 
C 352 -1542 410 -1600 480 -1600 
C 563 -1600 589 -1536 614 -1472 
L 1747 1491 
z
" transform="scale(0.015625)"/>
      </defs>
      <use xlink:href="#CMSY10-68" transform="scale(0.996264)"/>
      <use xlink:href="#CMMI12-1b" transform="translate(38.743734 0) scale(0.996264)"/>
      <use xlink:href="#CMMI12-7a" transform="translate(94.189195 -14.943915) scale(0.697382)"/>
      <use xlink:href="#CMSY10-69" transform="translate(129.51575 0) scale(0.996264)"/>
     </g>
    </g>
    <g id="line2d_19">
     <path d="M 195.592605 175.601326 
L 204.592605 175.601326 
L 213.592605 175.601326 
" style="fill: none; stroke: #ff7f0e; stroke-width: 0.5; stroke-linecap: square"/>
    </g>
    <g id="text_17">
     <!-- $\langle \sigma_x\rangle$ -->
     <g transform="translate(220.792605 178.751326) scale(0.09 -0.09)">
      <defs>
       <path id="CMMI12-78" d="M 3034 2606 
C 2829 2567 2752 2414 2752 2293 
C 2752 2139 2874 2088 2963 2088 
C 3155 2088 3290 2254 3290 2427 
C 3290 2695 2982 2816 2714 2816 
C 2323 2816 2106 2433 2048 2312 
C 1901 2816 1504 2816 1389 2816 
C 736 2816 390 1980 390 1839 
C 390 1814 416 1782 461 1782 
C 512 1782 525 1820 538 1846 
C 755 2555 1184 2689 1370 2689 
C 1658 2689 1715 2420 1715 2267 
C 1715 2127 1677 1980 1600 1673 
L 1382 798 
C 1286 415 1101 64 762 64 
C 730 64 570 64 435 147 
C 666 192 717 383 717 460 
C 717 588 621 664 499 664 
C 346 664 179 530 179 326 
C 179 57 480 -64 755 -64 
C 1062 -64 1280 179 1414 441 
C 1517 64 1837 -64 2074 -64 
C 2726 -64 3072 773 3072 913 
C 3072 945 3046 971 3008 971 
C 2950 971 2944 939 2925 888 
C 2752 326 2381 64 2093 64 
C 1869 64 1747 230 1747 492 
C 1747 632 1773 734 1875 1156 
L 2099 2024 
C 2195 2408 2413 2689 2707 2689 
C 2720 2689 2899 2689 3034 2606 
z
" transform="scale(0.015625)"/>
      </defs>
      <use xlink:href="#CMSY10-68" transform="scale(0.996264)"/>
      <use xlink:href="#CMMI12-1b" transform="translate(38.743734 0) scale(0.996264)"/>
      <use xlink:href="#CMMI12-78" transform="translate(94.189195 -14.943915) scale(0.697382)"/>
      <use xlink:href="#CMSY10-69" transform="translate(133.490986 0) scale(0.996264)"/>
     </g>
    </g>
    <g id="line2d_20">
     <path d="M 195.592605 189.067702 
L 204.592605 189.067702 
L 213.592605 189.067702 
" style="fill: none; stroke: #2ca02c; stroke-width: 0.5; stroke-linecap: square"/>
    </g>
    <g id="text_18">
     <!-- $\langle \sigma_y\rangle$ -->
     <g transform="translate(220.792605 192.217702) scale(0.09 -0.09)">
      <defs>
       <path id="CMMI12-79" d="M 1683 -700 
C 1510 -939 1261 -1152 947 -1152 
C 870 -1152 563 -1152 467 -889 
C 486 -895 518 -895 531 -895 
C 723 -895 851 -729 851 -582 
C 851 -435 730 -384 634 -384 
C 531 -384 307 -458 307 -759 
C 307 -1071 582 -1286 947 -1286 
C 1587 -1286 2234 -700 2413 6 
L 3040 2485 
C 3046 2517 3059 2556 3059 2594 
C 3059 2689 2982 2753 2886 2753 
C 2829 2753 2694 2727 2643 2535 
L 2170 658 
C 2138 543 2138 530 2086 460 
C 1958 281 1747 64 1440 64 
C 1082 64 1050 415 1050 588 
C 1050 952 1222 1443 1395 1903 
C 1466 2088 1504 2178 1504 2305 
C 1504 2574 1312 2816 998 2816 
C 410 2816 173 1890 173 1839 
C 173 1814 198 1782 243 1782 
C 301 1782 307 1807 333 1897 
C 486 2433 730 2689 979 2689 
C 1037 2689 1146 2689 1146 2478 
C 1146 2312 1075 2127 979 1884 
C 666 1047 666 837 666 683 
C 666 77 1101 -64 1421 -64 
C 1606 -64 1837 -6 2061 230 
L 2067 224 
C 1971 -147 1907 -392 1683 -700 
z
" transform="scale(0.015625)"/>
      </defs>
      <use xlink:href="#CMSY10-68" transform="scale(0.996264)"/>
      <use xlink:href="#CMMI12-1b" transform="translate(38.743734 0) scale(0.996264)"/>
      <use xlink:href="#CMMI12-79" transform="translate(94.189195 -14.943915) scale(0.697382)"/>
      <use xlink:href="#CMSY10-69" transform="translate(130.484301 0) scale(0.996264)"/>
     </g>
    </g>
   </g>
  </g>
 </g>
 <defs>
  <clipPath id="p8172a33d4a">
   <rect x="33.707196" y="7.2" width="212.292324" height="195.359296"/>
  </clipPath>
 </defs>
</svg>
