<?xml version="1.0" encoding="utf-8" standalone="no"?>
<!DOCTYPE svg PUBLIC "-//W3C//DTD SVG 1.1//EN"
  "http://www.w3.org/Graphics/SVG/1.1/DTD/svg11.dtd">
<svg xmlns:xlink="http://www.w3.org/1999/xlink" width="253.19952pt" height="238.79952pt" viewBox="0 0 253.19952 238.79952" xmlns="http://www.w3.org/2000/svg" version="1.1">
 <metadata>
  <rdf:RDF xmlns:dc="http://purl.org/dc/elements/1.1/" xmlns:cc="http://creativecommons.org/ns#" xmlns:rdf="http://www.w3.org/1999/02/22-rdf-syntax-ns#">
   <cc:Work>
    <dc:type rdf:resource="http://purl.org/dc/dcmitype/StillImage"/>
    <dc:date>1980-01-01T00:00:00+00:00</dc:date>
    <dc:format>image/svg+xml</dc:format>
    <dc:creator>
     <cc:Agent>
      <dc:title>Matplotlib v3.6.2, https://matplotlib.org/</dc:title>
     </cc:Agent>
    </dc:creator>
   </cc:Work>
  </rdf:RDF>
 </metadata>
 <defs>
  <style type="text/css">*{stroke-linejoin: round; stroke-linecap: butt}</style>
 </defs>
 <g id="figure_1">
  <g id="patch_1">
   <path d="M 0 238.79952 
L 253.19952 238.79952 
L 253.19952 0 
L 0 0 
z
" style="fill: #ffffff"/>
  </g>
  <g id="axes_1">
   <g id="patch_2">
    <path d="M 33.707196 202.559296 
L 245.99952 202.559296 
L 245.99952 7.2 
L 33.707196 7.2 
z
" style="fill: #ffffff"/>
   </g>
   <g id="matplotlib.axis_1">
    <g id="xtick_1">
     <g id="line2d_1">
      <defs>
       <path id="m2ff493dfe3" d="M 0 0 
L 0 3.5 
" style="stroke: #000000; stroke-width: 0.8"/>
      </defs>
      <g>
       <use xlink:href="#m2ff493dfe3" x="43.356847" y="202.559296" style="stroke: #000000; stroke-width: 0.8"/>
      </g>
     </g>
     <g id="text_1">
      <!-- $\mathdefault{0}$ -->
      <g transform="translate(41.239756 217.194098) scale(0.08 -0.08)">
       <defs>
        <path id="CMR17-30" d="M 2688 2025 
C 2688 2416 2682 3080 2413 3591 
C 2176 4039 1798 4198 1466 4198 
C 1158 4198 768 4058 525 3597 
C 269 3118 243 2524 243 2025 
C 243 1661 250 1106 448 619 
C 723 -39 1216 -128 1466 -128 
C 1760 -128 2208 -7 2470 600 
C 2662 1042 2688 1559 2688 2025 
z
M 1466 -26 
C 1056 -26 813 325 723 812 
C 653 1188 653 1738 653 2096 
C 653 2588 653 2997 736 3387 
C 858 3929 1216 4096 1466 4096 
C 1728 4096 2067 3923 2189 3400 
C 2272 3036 2278 2607 2278 2096 
C 2278 1680 2278 1169 2202 792 
C 2067 95 1690 -26 1466 -26 
z
" transform="scale(0.015625)"/>
       </defs>
       <use xlink:href="#CMR17-30" transform="scale(0.996264)"/>
      </g>
     </g>
    </g>
    <g id="xtick_2">
     <g id="line2d_2">
      <g>
       <use xlink:href="#m2ff493dfe3" x="70.161434" y="202.559296" style="stroke: #000000; stroke-width: 0.8"/>
      </g>
     </g>
     <g id="text_2">
      <!-- $\mathdefault{25}$ -->
      <g transform="translate(65.927251 217.194098) scale(0.08 -0.08)">
       <defs>
        <path id="CMR17-32" d="M 2669 989 
L 2554 989 
C 2490 536 2438 459 2413 420 
C 2381 369 1920 369 1830 369 
L 602 369 
C 832 619 1280 1072 1824 1597 
C 2214 1967 2669 2402 2669 3035 
C 2669 3790 2067 4224 1395 4224 
C 691 4224 262 3604 262 3030 
C 262 2780 448 2748 525 2748 
C 589 2748 781 2787 781 3010 
C 781 3207 614 3264 525 3264 
C 486 3264 448 3258 422 3245 
C 544 3790 915 4058 1306 4058 
C 1862 4058 2227 3617 2227 3035 
C 2227 2479 1901 2000 1536 1584 
L 262 146 
L 262 0 
L 2515 0 
L 2669 989 
z
" transform="scale(0.015625)"/>
        <path id="CMR17-35" d="M 730 3692 
C 794 3666 1056 3584 1325 3584 
C 1920 3584 2246 3911 2432 4100 
C 2432 4157 2432 4192 2394 4192 
C 2387 4192 2374 4192 2323 4163 
C 2099 4058 1837 3973 1517 3973 
C 1325 3973 1037 3999 723 4139 
C 653 4171 640 4171 634 4171 
C 602 4171 595 4164 595 4037 
L 595 2203 
C 595 2089 595 2057 659 2057 
C 691 2057 704 2070 736 2114 
C 941 2401 1222 2522 1542 2522 
C 1766 2522 2246 2382 2246 1289 
C 2246 1085 2246 715 2054 421 
C 1894 159 1645 25 1370 25 
C 947 25 518 320 403 814 
C 429 807 480 795 506 795 
C 589 795 749 840 749 1038 
C 749 1210 627 1280 506 1280 
C 358 1280 262 1190 262 1011 
C 262 454 704 -128 1382 -128 
C 2042 -128 2669 440 2669 1264 
C 2669 2030 2170 2624 1549 2624 
C 1222 2624 947 2503 730 2274 
L 730 3692 
z
" transform="scale(0.015625)"/>
       </defs>
       <use xlink:href="#CMR17-32" transform="scale(0.996264)"/>
       <use xlink:href="#CMR17-35" transform="translate(45.690477 0) scale(0.996264)"/>
      </g>
     </g>
    </g>
    <g id="xtick_3">
     <g id="line2d_3">
      <g>
       <use xlink:href="#m2ff493dfe3" x="96.96602" y="202.559296" style="stroke: #000000; stroke-width: 0.8"/>
      </g>
     </g>
     <g id="text_3">
      <!-- $\mathdefault{50}$ -->
      <g transform="translate(92.731837 217.194098) scale(0.08 -0.08)">
       <use xlink:href="#CMR17-35" transform="scale(0.996264)"/>
       <use xlink:href="#CMR17-30" transform="translate(45.690477 0) scale(0.996264)"/>
      </g>
     </g>
    </g>
    <g id="xtick_4">
     <g id="line2d_4">
      <g>
       <use xlink:href="#m2ff493dfe3" x="123.770606" y="202.559296" style="stroke: #000000; stroke-width: 0.8"/>
      </g>
     </g>
     <g id="text_4">
      <!-- $\mathdefault{75}$ -->
      <g transform="translate(119.536423 217.194098) scale(0.08 -0.08)">
       <defs>
        <path id="CMR17-37" d="M 2886 3941 
L 2886 4081 
L 1382 4081 
C 634 4081 621 4165 595 4288 
L 480 4288 
L 294 3094 
L 410 3094 
C 429 3215 474 3540 550 3661 
C 589 3712 1062 3712 1171 3712 
L 2579 3712 
L 1869 2661 
C 1395 1954 1069 999 1069 165 
C 1069 89 1069 -128 1299 -128 
C 1530 -128 1530 89 1530 171 
L 1530 465 
C 1530 1508 1709 2196 2003 2636 
L 2886 3941 
z
" transform="scale(0.015625)"/>
       </defs>
       <use xlink:href="#CMR17-37" transform="scale(0.996264)"/>
       <use xlink:href="#CMR17-35" transform="translate(45.690477 0) scale(0.996264)"/>
      </g>
     </g>
    </g>
    <g id="xtick_5">
     <g id="line2d_5">
      <g>
       <use xlink:href="#m2ff493dfe3" x="150.575193" y="202.559296" style="stroke: #000000; stroke-width: 0.8"/>
      </g>
     </g>
     <g id="text_5">
      <!-- $\mathdefault{100}$ -->
      <g transform="translate(144.223918 217.194098) scale(0.08 -0.08)">
       <defs>
        <path id="CMR17-31" d="M 1702 4058 
C 1702 4192 1696 4192 1606 4192 
C 1357 3916 979 3827 621 3827 
C 602 3827 570 3827 563 3808 
C 557 3795 557 3782 557 3648 
C 755 3648 1088 3686 1344 3839 
L 1344 461 
C 1344 236 1331 160 781 160 
L 589 160 
L 589 0 
C 896 0 1216 0 1523 0 
C 1830 0 2150 0 2458 0 
L 2458 160 
L 2266 160 
C 1715 160 1702 230 1702 458 
L 1702 4058 
z
" transform="scale(0.015625)"/>
       </defs>
       <use xlink:href="#CMR17-31" transform="scale(0.996264)"/>
       <use xlink:href="#CMR17-30" transform="translate(45.690477 0) scale(0.996264)"/>
       <use xlink:href="#CMR17-30" transform="translate(91.380954 0) scale(0.996264)"/>
      </g>
     </g>
    </g>
    <g id="xtick_6">
     <g id="line2d_6">
      <g>
       <use xlink:href="#m2ff493dfe3" x="177.379779" y="202.559296" style="stroke: #000000; stroke-width: 0.8"/>
      </g>
     </g>
     <g id="text_6">
      <!-- $\mathdefault{125}$ -->
      <g transform="translate(171.028505 217.194098) scale(0.08 -0.08)">
       <use xlink:href="#CMR17-31" transform="scale(0.996264)"/>
       <use xlink:href="#CMR17-32" transform="translate(45.690477 0) scale(0.996264)"/>
       <use xlink:href="#CMR17-35" transform="translate(91.380954 0) scale(0.996264)"/>
      </g>
     </g>
    </g>
    <g id="xtick_7">
     <g id="line2d_7">
      <g>
       <use xlink:href="#m2ff493dfe3" x="204.184365" y="202.559296" style="stroke: #000000; stroke-width: 0.8"/>
      </g>
     </g>
     <g id="text_7">
      <!-- $\mathdefault{150}$ -->
      <g transform="translate(197.833091 217.194098) scale(0.08 -0.08)">
       <use xlink:href="#CMR17-31" transform="scale(0.996264)"/>
       <use xlink:href="#CMR17-35" transform="translate(45.690477 0) scale(0.996264)"/>
       <use xlink:href="#CMR17-30" transform="translate(91.380954 0) scale(0.996264)"/>
      </g>
     </g>
    </g>
    <g id="xtick_8">
     <g id="line2d_8">
      <g>
       <use xlink:href="#m2ff493dfe3" x="230.988952" y="202.559296" style="stroke: #000000; stroke-width: 0.8"/>
      </g>
     </g>
     <g id="text_8">
      <!-- $\mathdefault{175}$ -->
      <g transform="translate(224.637677 217.194098) scale(0.08 -0.08)">
       <use xlink:href="#CMR17-31" transform="scale(0.996264)"/>
       <use xlink:href="#CMR17-37" transform="translate(45.690477 0) scale(0.996264)"/>
       <use xlink:href="#CMR17-35" transform="translate(91.380954 0) scale(0.996264)"/>
      </g>
     </g>
    </g>
    <g id="text_9">
     <!-- $\tau$ -->
     <g transform="translate(137.675756 229.662342) scale(0.1 -0.1)">
      <defs>
       <path id="CMMI12-1c" d="M 1837 2408 
L 2899 2408 
C 2982 2408 3194 2408 3194 2612 
C 3194 2752 3072 2752 2957 2752 
L 1197 2752 
C 1050 2752 832 2752 538 2440 
C 371 2255 166 1917 166 1879 
C 166 1841 198 1828 237 1828 
C 282 1828 288 1847 320 1885 
C 653 2408 986 2408 1146 2408 
L 1677 2408 
L 1011 223 
C 979 127 979 114 979 95 
C 979 25 1024 -64 1152 -64 
C 1350 -64 1382 108 1402 203 
L 1837 2408 
z
" transform="scale(0.015625)"/>
      </defs>
      <use xlink:href="#CMMI12-1c" transform="scale(0.996264)"/>
     </g>
    </g>
   </g>
   <g id="matplotlib.axis_2">
    <g id="ytick_1">
     <g id="line2d_9">
      <defs>
       <path id="m5994744ab9" d="M 0 0 
L -3.5 0 
" style="stroke: #000000; stroke-width: 0.8"/>
      </defs>
      <g>
       <use xlink:href="#m5994744ab9" x="33.707196" y="193.679328" style="stroke: #000000; stroke-width: 0.8"/>
      </g>
     </g>
     <g id="text_10">
      <!-- $\mathdefault{−1.0}$ -->
      <g transform="translate(7.2 196.446729) scale(0.08 -0.08)">
       <defs>
        <path id="CMSY10-0" d="M 4218 1472 
C 4326 1472 4442 1472 4442 1600 
C 4442 1728 4326 1728 4218 1728 
L 755 1728 
C 646 1728 531 1728 531 1600 
C 531 1472 646 1472 755 1472 
L 4218 1472 
z
" transform="scale(0.015625)"/>
        <path id="CMMI12-3a" d="M 1178 307 
C 1178 492 1024 619 870 619 
C 685 619 557 466 557 313 
C 557 128 710 0 864 0 
C 1050 0 1178 153 1178 307 
z
" transform="scale(0.015625)"/>
       </defs>
       <use xlink:href="#CMSY10-0" transform="scale(0.996264)"/>
       <use xlink:href="#CMR17-31" transform="translate(77.487468 0) scale(0.996264)"/>
       <use xlink:href="#CMMI12-3a" transform="translate(123.177945 0) scale(0.996264)"/>
       <use xlink:href="#CMR17-30" transform="translate(150.275122 0) scale(0.996264)"/>
      </g>
     </g>
    </g>
    <g id="ytick_2">
     <g id="line2d_10">
      <g>
       <use xlink:href="#m5994744ab9" x="33.707196" y="158.411642" style="stroke: #000000; stroke-width: 0.8"/>
      </g>
     </g>
     <g id="text_11">
      <!-- $\mathdefault{−0.8}$ -->
      <g transform="translate(7.2 161.179043) scale(0.08 -0.08)">
       <defs>
        <path id="CMR17-38" d="M 1741 2264 
C 2144 2467 2554 2773 2554 3263 
C 2554 3841 1990 4179 1472 4179 
C 890 4179 378 3759 378 3180 
C 378 3021 416 2747 666 2505 
C 730 2442 998 2251 1171 2130 
C 883 1983 211 1634 211 934 
C 211 279 838 -128 1459 -128 
C 2144 -128 2720 362 2720 1010 
C 2720 1590 2330 1857 2074 2029 
L 1741 2264 
z
M 902 2822 
C 851 2854 595 3051 595 3351 
C 595 3739 998 4032 1459 4032 
C 1965 4032 2336 3676 2336 3262 
C 2336 2669 1670 2331 1638 2331 
C 1632 2331 1626 2331 1574 2370 
L 902 2822 
z
M 2080 1519 
C 2176 1449 2483 1240 2483 851 
C 2483 381 2010 25 1472 25 
C 890 25 448 438 448 940 
C 448 1443 838 1862 1280 2060 
L 2080 1519 
z
" transform="scale(0.015625)"/>
       </defs>
       <use xlink:href="#CMSY10-0" transform="scale(0.996264)"/>
       <use xlink:href="#CMR17-30" transform="translate(77.487468 0) scale(0.996264)"/>
       <use xlink:href="#CMMI12-3a" transform="translate(123.177945 0) scale(0.996264)"/>
       <use xlink:href="#CMR17-38" transform="translate(150.275122 0) scale(0.996264)"/>
      </g>
     </g>
    </g>
    <g id="ytick_3">
     <g id="line2d_11">
      <g>
       <use xlink:href="#m5994744ab9" x="33.707196" y="123.143957" style="stroke: #000000; stroke-width: 0.8"/>
      </g>
     </g>
     <g id="text_12">
      <!-- $\mathdefault{−0.6}$ -->
      <g transform="translate(7.2 125.911357) scale(0.08 -0.08)">
       <defs>
        <path id="CMR17-36" d="M 678 2176 
C 678 3690 1395 4032 1811 4032 
C 1946 4032 2272 4009 2400 3776 
C 2298 3776 2106 3776 2106 3553 
C 2106 3381 2246 3323 2336 3323 
C 2394 3323 2566 3348 2566 3560 
C 2566 3954 2246 4179 1805 4179 
C 1043 4179 243 3390 243 1984 
C 243 253 966 -128 1478 -128 
C 2099 -128 2688 427 2688 1283 
C 2688 2081 2170 2662 1517 2662 
C 1126 2662 838 2407 678 1960 
L 678 2176 
z
M 1478 25 
C 691 25 691 1200 691 1436 
C 691 1896 909 2560 1504 2560 
C 1613 2560 1926 2560 2138 2120 
C 2253 1870 2253 1609 2253 1289 
C 2253 944 2253 690 2118 434 
C 1978 171 1773 25 1478 25 
z
" transform="scale(0.015625)"/>
       </defs>
       <use xlink:href="#CMSY10-0" transform="scale(0.996264)"/>
       <use xlink:href="#CMR17-30" transform="translate(77.487468 0) scale(0.996264)"/>
       <use xlink:href="#CMMI12-3a" transform="translate(123.177945 0) scale(0.996264)"/>
       <use xlink:href="#CMR17-36" transform="translate(150.275122 0) scale(0.996264)"/>
      </g>
     </g>
    </g>
    <g id="ytick_4">
     <g id="line2d_12">
      <g>
       <use xlink:href="#m5994744ab9" x="33.707196" y="87.876271" style="stroke: #000000; stroke-width: 0.8"/>
      </g>
     </g>
     <g id="text_13">
      <!-- $\mathdefault{−0.4}$ -->
      <g transform="translate(7.2 90.643672) scale(0.08 -0.08)">
       <defs>
        <path id="CMR17-34" d="M 2150 4122 
C 2150 4256 2144 4256 2029 4256 
L 128 1254 
L 128 1088 
L 1779 1088 
L 1779 457 
C 1779 224 1766 160 1318 160 
L 1197 160 
L 1197 0 
C 1402 0 1747 0 1965 0 
C 2182 0 2528 0 2733 0 
L 2733 160 
L 2611 160 
C 2163 160 2150 224 2150 457 
L 2150 1088 
L 2803 1088 
L 2803 1254 
L 2150 1254 
L 2150 4122 
z
M 1798 3703 
L 1798 1254 
L 256 1254 
L 1798 3703 
z
" transform="scale(0.015625)"/>
       </defs>
       <use xlink:href="#CMSY10-0" transform="scale(0.996264)"/>
       <use xlink:href="#CMR17-30" transform="translate(77.487468 0) scale(0.996264)"/>
       <use xlink:href="#CMMI12-3a" transform="translate(123.177945 0) scale(0.996264)"/>
       <use xlink:href="#CMR17-34" transform="translate(150.275122 0) scale(0.996264)"/>
      </g>
     </g>
    </g>
    <g id="ytick_5">
     <g id="line2d_13">
      <g>
       <use xlink:href="#m5994744ab9" x="33.707196" y="52.608585" style="stroke: #000000; stroke-width: 0.8"/>
      </g>
     </g>
     <g id="text_14">
      <!-- $\mathdefault{−0.2}$ -->
      <g transform="translate(7.2 55.375986) scale(0.08 -0.08)">
       <use xlink:href="#CMSY10-0" transform="scale(0.996264)"/>
       <use xlink:href="#CMR17-30" transform="translate(77.487468 0) scale(0.996264)"/>
       <use xlink:href="#CMMI12-3a" transform="translate(123.177945 0) scale(0.996264)"/>
       <use xlink:href="#CMR17-32" transform="translate(150.275122 0) scale(0.996264)"/>
      </g>
     </g>
    </g>
    <g id="ytick_6">
     <g id="line2d_14">
      <g>
       <use xlink:href="#m5994744ab9" x="33.707196" y="17.3409" style="stroke: #000000; stroke-width: 0.8"/>
      </g>
     </g>
     <g id="text_15">
      <!-- $\mathdefault{0.0}$ -->
      <g transform="translate(13.786507 20.1083) scale(0.08 -0.08)">
       <use xlink:href="#CMR17-30" transform="scale(0.996264)"/>
       <use xlink:href="#CMMI12-3a" transform="translate(45.690477 0) scale(0.996264)"/>
       <use xlink:href="#CMR17-30" transform="translate(72.787654 0) scale(0.996264)"/>
      </g>
     </g>
    </g>
   </g>
   <g id="line2d_15">
    <path d="M 43.356847 193.679328 
L 52.363188 193.589502 
L 52.620512 193.351715 
L 52.877836 192.739627 
L 53.13516 191.429486 
L 53.456815 188.186708 
L 53.842801 181.037184 
L 54.42178 164.503418 
L 55.129422 146.296254 
L 57.123683 108.777941 
L 57.895655 100.308932 
L 58.538965 96.395806 
L 60.468895 86.830668 
L 61.562522 83.13921 
L 62.977804 79.34037 
L 63.428121 77.972655 
L 63.878439 76.748279 
L 64.264425 76.31539 
L 64.58608 75.82777 
L 64.907735 74.793623 
L 65.358052 73.481848 
L 65.679707 73.12709 
L 66.001362 72.820705 
L 66.387348 71.985519 
L 66.837665 70.944712 
L 67.094989 70.880795 
L 67.352313 70.776634 
L 67.866961 70.064974 
L 68.638933 68.725183 
L 69.153581 68.854893 
L 69.475236 69.026487 
L 69.796891 69.559549 
L 70.182877 70.856196 
L 70.761856 73.70492 
L 71.533828 78.383296 
L 72.627456 87.233079 
L 73.335097 92.024336 
L 73.785414 93.783593 
L 74.1714 94.532963 
L 74.557386 94.815101 
L 75.136365 94.878405 
L 85.236333 94.809226 
L 85.750981 94.591436 
L 86.201298 94.167081 
L 86.715946 93.3283 
L 88.131228 90.601704 
L 88.324221 90.619221 
L 88.581545 90.936813 
L 88.9032 91.815714 
L 89.353517 93.869262 
L 89.996827 98.084859 
L 92.312744 114.293791 
L 93.406371 119.65401 
L 94.499998 124.080561 
L 96.043942 129.441881 
L 97.073238 132.114017 
L 97.973872 133.921689 
L 98.810175 135.098411 
L 101.126092 138.236142 
L 101.64074 139.443232 
L 102.091057 141.066579 
L 102.605705 143.807081 
L 103.313346 149.028493 
L 104.985952 162.151269 
L 105.564931 164.760357 
L 106.015248 165.86545 
L 106.401234 166.320845 
L 106.851551 166.507954 
L 107.752185 166.540893 
L 116.694195 166.456945 
L 116.95152 166.255292 
L 117.208844 165.742586 
L 117.466168 164.646466 
L 117.787823 161.929233 
L 118.109478 157.14996 
L 118.624126 145.301628 
L 119.396098 127.798348 
L 121.326028 96.741851 
L 122.033669 90.520678 
L 122.805641 85.72677 
L 124.67124 79.334069 
L 125.185888 77.886337 
L 125.636205 76.676725 
L 125.957861 75.912268 
L 126.472509 74.481061 
L 127.308812 73.027078 
L 127.630467 72.767251 
L 128.016453 72.086887 
L 129.11008 70.052204 
L 129.689059 69.482163 
L 130.010714 69.240509 
L 130.3967 68.226617 
L 130.718355 67.71748 
L 130.911348 67.785744 
L 131.168672 67.900731 
L 131.425996 67.751835 
L 131.68332 67.282812 
L 132.133637 66.460314 
L 132.648285 65.792893 
L 132.905609 65.834681 
L 133.61325 66.37669 
L 133.934905 66.90991 
L 134.320891 68.167781 
L 135.157195 71.884544 
L 135.671843 74.783356 
L 136.379484 80.546808 
L 137.473111 89.119831 
L 137.987759 91.56191 
L 138.373745 92.496926 
L 138.759731 92.892168 
L 139.210048 93.008663 
L 141.332971 93.016936 
L 149.824664 92.908714 
L 150.274981 92.64039 
L 150.725298 92.111539 
L 151.304277 91.023938 
L 152.14058 89.416035 
L 152.462235 89.238105 
L 152.655229 89.350233 
L 152.912553 89.79393 
L 153.234208 90.827749 
L 153.684525 93.069233 
L 154.520828 98.704921 
L 157.094068 116.327665 
L 157.994702 120.943514 
L 159.281322 126.215039 
L 160.181956 129.054711 
L 161.468577 132.31771 
L 162.497873 134.360011 
L 163.462838 135.737071 
L 165.457099 138.370739 
L 165.971747 139.623859 
L 166.486395 141.570852 
L 167.065374 144.833898 
L 167.773015 150.299069 
L 169.252628 161.970813 
L 169.831607 164.742639 
L 170.281924 165.955504 
L 170.667911 166.474135 
L 171.118228 166.699861 
L 171.8902 166.745124 
L 181.025203 166.656661 
L 181.282527 166.437242 
L 181.539851 165.893802 
L 181.797175 164.762978 
L 182.11883 162.030555 
L 182.504816 156.121196 
L 183.083795 142.562349 
L 183.791436 127.211315 
L 185.657035 96.916994 
L 186.557669 88.965217 
L 187.200979 85.366104 
L 187.844289 82.937336 
L 188.294607 81.632072 
L 189.066579 78.981803 
L 189.452565 78.005451 
L 189.838551 77.09381 
L 190.353199 75.769078 
L 190.867847 75.168416 
L 191.125171 74.435236 
L 191.70415 72.435868 
L 191.897143 72.412348 
L 192.090136 72.39753 
L 192.283129 71.995695 
L 192.733446 70.663456 
L 192.926439 70.662691 
L 193.183763 70.822483 
L 193.312425 70.685404 
L 193.63408 69.671434 
L 193.827073 69.276845 
L 193.955735 69.318539 
L 194.213059 69.556848 
L 194.341721 69.418072 
L 194.663376 68.427793 
L 194.985031 67.667798 
L 195.371017 67.399882 
L 195.885665 67.055255 
L 196.20732 67.100721 
L 196.464644 66.672258 
L 196.786299 66.129588 
L 197.42961 65.900532 
L 197.686934 66.083972 
L 198.330244 66.819533 
L 198.651899 67.736714 
L 199.423871 71.074682 
L 200.00285 75.028569 
L 201.997111 89.862556 
L 202.447428 91.644011 
L 202.833414 92.404513 
L 203.2194 92.685696 
L 203.798379 92.750368 
L 213.962678 92.690513 
L 214.477326 92.47214 
L 214.927644 92.031026 
L 215.442292 91.166052 
L 216.728912 88.743961 
L 216.921905 88.771201 
L 217.179229 89.11845 
L 217.500884 90.058766 
L 217.951201 92.186015 
L 218.658842 96.750681 
L 221.553737 116.827807 
L 222.647364 121.828078 
L 224.25564 128.011161 
L 225.027612 130.234703 
L 225.863915 131.938849 
L 227.536521 134.782802 
L 230.238423 139.245514 
L 230.68874 140.718107 
L 231.203388 143.256835 
L 231.846698 147.770455 
L 233.84096 163.172344 
L 234.355608 165.146366 
L 234.805925 166.050175 
L 235.191911 166.389966 
L 235.706559 166.516647 
L 236.349869 166.526688 
L 236.349869 166.526688 
" clip-path="url(#p9d14fe104e)" style="fill: none; stroke: #ff7f0e; stroke-width: 0.5; stroke-linecap: square"/>
   </g>
   <g id="line2d_16">
    <path d="M 43.356847 17.3409 
L 53.907132 17.447042 
L 55.065091 17.677291 
L 55.965725 17.887503 
L 56.737697 17.995592 
L 57.381007 18.384068 
L 57.895655 18.51632 
L 58.345972 18.684601 
L 58.603296 18.528804 
L 59.182275 18.069847 
L 59.954247 17.992658 
L 60.79055 17.488616 
L 61.112205 17.758199 
L 61.755515 18.376404 
L 62.012839 18.226525 
L 63.235128 17.081089 
L 63.556784 17.135482 
L 63.94277 17.47396 
L 64.328756 17.781404 
L 64.521749 17.724183 
L 64.843404 17.262863 
L 65.22939 16.857509 
L 65.486714 16.873187 
L 66.837665 17.373565 
L 67.287982 17.362523 
L 67.80263 17.410363 
L 68.960588 16.993933 
L 69.475236 16.767082 
L 69.861222 16.887602 
L 70.311539 17.259983 
L 71.212173 18.136584 
L 71.533828 18.092552 
L 72.177138 17.638832 
L 72.691787 17.43347 
L 73.270766 17.439749 
L 74.300062 17.499672 
L 75.329358 17.229947 
L 75.972668 17.186886 
L 76.808971 17.396659 
L 77.580943 17.50375 
L 78.417246 17.341124 
L 79.446542 17.175993 
L 80.411507 17.281726 
L 82.212776 17.505552 
L 83.499396 17.409495 
L 89.482179 16.455682 
L 89.996827 16.425601 
L 90.640138 16.633787 
L 91.605103 16.95028 
L 92.505737 17.236671 
L 93.663695 17.709058 
L 94.307005 17.775708 
L 94.885984 17.585341 
L 96.751583 16.779942 
L 97.459224 16.821081 
L 99.839472 17.085331 
L 100.804437 17.011639 
L 103.056022 17.356346 
L 104.921621 17.57124 
L 106.015248 17.452744 
L 108.202503 17.138952 
L 109.360461 17.239293 
L 111.547715 17.520814 
L 112.448349 17.289844 
L 113.284652 17.139231 
L 113.927962 17.273368 
L 114.957258 17.543265 
L 115.536237 17.43808 
L 116.694195 17.154016 
L 117.208844 17.301929 
L 118.302471 17.735398 
L 118.688457 17.616097 
L 119.846415 17.061774 
L 120.16807 17.275521 
L 120.875711 17.8828 
L 121.197366 17.827632 
L 121.519021 17.544348 
L 122.162331 16.834575 
L 122.548317 16.787203 
L 123.127296 16.905687 
L 123.577613 16.996422 
L 124.02793 17.047335 
L 124.478247 17.129672 
L 125.31455 16.868307 
L 125.764867 16.714836 
L 126.150854 16.876334 
L 126.794164 17.21145 
L 127.115819 16.984862 
L 127.694798 16.469196 
L 128.016453 16.493262 
L 128.852756 16.645313 
L 129.431735 16.811635 
L 129.882052 16.901585 
L 130.911348 16.654605 
L 131.68332 16.40241 
L 132.197968 16.559202 
L 132.841278 16.798102 
L 133.162933 16.597859 
L 133.61325 16.356294 
L 133.870574 16.452023 
L 134.513884 16.884603 
L 135.864836 17.020908 
L 136.76547 17.25548 
L 137.280118 17.068377 
L 137.859097 16.887359 
L 138.245083 17.000783 
L 138.952724 17.555162 
L 139.467372 17.795798 
L 139.853358 17.720763 
L 140.368006 17.348601 
L 141.011316 16.917692 
L 141.397302 16.904327 
L 141.847619 17.139201 
L 142.876915 17.77899 
L 143.327232 17.764634 
L 143.906212 17.500853 
L 145.06417 16.938862 
L 145.70748 16.890202 
L 146.479452 17.071779 
L 148.795368 17.798248 
L 149.56734 17.692447 
L 150.789629 17.241522 
L 152.011918 16.880453 
L 152.976884 16.758561 
L 153.555863 16.901102 
L 154.392166 17.400317 
L 155.550124 18.033324 
L 156.129103 18.094908 
L 156.772413 17.895657 
L 159.088329 17.044868 
L 160.181956 17.356581 
L 161.146921 17.513249 
L 162.176218 17.392328 
L 163.784493 17.236791 
L 171.761538 17.404573 
L 174.720764 17.259689 
L 177.229673 17.384603 
L 178.644955 17.246048 
L 180.703548 17.37696 
L 181.861506 17.245928 
L 182.890802 17.459701 
L 183.727105 17.697515 
L 184.885063 18.481529 
L 185.33538 18.347193 
L 185.914359 18.207964 
L 186.750662 18.091965 
L 187.393972 18.305286 
L 187.779958 18.200959 
L 188.165945 18.164595 
L 188.873586 18.330207 
L 189.195241 17.954717 
L 189.902882 16.953738 
L 190.160206 17.123746 
L 190.996509 17.913612 
L 191.253833 17.753252 
L 191.832812 17.3161 
L 192.283129 17.272337 
L 192.797777 17.21853 
L 193.055101 17.270835 
L 193.376756 17.6529 
L 193.891404 18.317724 
L 194.534714 18.487985 
L 194.792038 18.383441 
L 195.499679 17.779862 
L 195.821334 17.959876 
L 196.464644 18.405976 
L 196.721968 18.261 
L 197.365279 17.714734 
L 198.07292 17.560156 
L 198.394575 17.415759 
L 198.651899 17.550572 
L 199.037885 17.72802 
L 199.423871 17.547932 
L 199.938519 17.080987 
L 200.774822 16.08495 
L 201.032146 16.152045 
L 201.353801 16.518632 
L 202.57609 18.267021 
L 202.833414 18.193307 
L 203.155069 17.828141 
L 204.184365 16.413848 
L 204.441689 16.433949 
L 204.763344 16.741891 
L 205.921302 18.277753 
L 206.178627 18.236215 
L 206.500282 17.939641 
L 207.786902 16.416344 
L 208.108557 16.424951 
L 208.494543 16.659989 
L 209.395177 17.601876 
L 210.102818 18.151636 
L 210.617466 18.28544 
L 211.132114 18.188344 
L 211.775424 17.802897 
L 213.641023 16.45504 
L 214.155671 16.427961 
L 214.670319 16.634462 
L 215.377961 17.215192 
L 216.986236 18.63498 
L 217.436553 18.73885 
L 217.88687 18.607824 
L 218.337187 18.223591 
L 219.430814 17.146692 
L 219.945462 17.077609 
L 221.74673 17.263734 
L 222.647364 17.544198 
L 223.290674 17.611963 
L 223.998316 17.431054 
L 225.477929 16.92828 
L 225.928246 17.074106 
L 226.571556 17.566284 
L 227.600852 18.397478 
L 228.051169 18.491178 
L 228.565817 18.366619 
L 229.466451 17.867952 
L 230.753071 17.179148 
L 231.33205 17.087305 
L 231.97536 17.25027 
L 233.326312 17.645269 
L 234.226946 17.655803 
L 235.256242 17.440297 
L 236.349869 17.141002 
L 236.349869 17.141002 
" clip-path="url(#p9d14fe104e)" style="fill: none; stroke: #2ca02c; stroke-width: 0.5; stroke-linecap: square"/>
   </g>
   <g id="line2d_17">
    <path d="M 43.356847 17.3409 
L 54.42178 17.232925 
L 55.258084 17.21699 
L 55.901394 17.501158 
L 56.28738 17.538982 
L 56.609035 17.270797 
L 56.93069 17.06297 
L 57.188014 17.238442 
L 57.445338 17.384698 
L 57.702662 17.204121 
L 58.024317 17.034838 
L 58.21731 17.184954 
L 58.796289 17.853686 
L 58.989282 17.71786 
L 59.375268 17.338628 
L 59.632592 17.49084 
L 60.14724 17.768361 
L 60.340233 17.725848 
L 60.597557 17.375352 
L 61.112205 16.655136 
L 61.369529 16.589913 
L 61.562522 16.838678 
L 62.141501 17.846573 
L 62.527487 17.934077 
L 62.849142 17.775643 
L 63.685446 16.857844 
L 64.007101 16.631974 
L 64.200094 16.790253 
L 64.457418 17.416652 
L 64.779073 18.165702 
L 64.907735 18.127222 
L 65.22939 17.518265 
L 65.551045 17.050705 
L 65.808369 17.062216 
L 66.387348 17.27078 
L 66.773334 17.614719 
L 67.030658 17.493267 
L 67.480975 17.213132 
L 67.738299 17.365323 
L 68.252947 17.711373 
L 68.896257 17.834669 
L 69.08925 17.884408 
L 69.346574 17.617299 
L 69.73256 17.2913 
L 70.182877 16.957441 
L 70.633194 16.654522 
L 70.890518 16.804072 
L 71.855483 17.743033 
L 72.177138 17.679061 
L 73.335097 17.233629 
L 73.978407 17.325664 
L 75.007703 17.504834 
L 75.715344 17.359531 
L 76.680309 17.176891 
L 77.38795 17.311398 
L 78.417246 17.505877 
L 79.253549 17.389769 
L 80.668831 17.17633 
L 81.82679 17.271512 
L 84.142706 17.506344 
L 86.908939 17.566305 
L 87.873904 17.610203 
L 90.575807 17.293275 
L 92.119751 17.397686 
L 93.535033 17.202496 
L 94.435667 17.54448 
L 95.464963 17.770921 
L 96.301266 17.733741 
L 96.944576 17.42782 
L 97.909541 16.976731 
L 98.810175 16.895394 
L 99.453486 17.059531 
L 101.254754 17.679864 
L 101.962395 17.501686 
L 102.991691 17.334548 
L 104.278311 17.261421 
L 107.366199 17.492332 
L 110.518419 17.189235 
L 112.834335 17.46898 
L 114.313948 17.151986 
L 115.021589 17.363121 
L 115.793561 17.542786 
L 116.37254 17.427197 
L 117.659161 17.026388 
L 118.109478 17.163141 
L 119.138774 17.636042 
L 119.52476 17.433338 
L 120.425394 16.750461 
L 120.747049 17.07656 
L 121.712014 18.129096 
L 121.905007 17.989321 
L 122.612648 17.234152 
L 123.255958 17.130986 
L 123.706275 17.3511 
L 124.156592 17.276303 
L 124.67124 17.60569 
L 125.443212 17.624021 
L 126.343847 16.839414 
L 126.53684 17.001406 
L 127.18015 17.918522 
L 127.373143 17.895094 
L 128.273777 17.319852 
L 128.595432 17.224087 
L 129.496066 16.810574 
L 130.139376 17.299583 
L 130.782686 17.251281 
L 131.233003 17.32362 
L 131.811982 16.973064 
L 132.455292 16.803572 
L 132.712616 17.156031 
L 133.098602 17.720952 
L 133.291595 17.686895 
L 133.61325 17.34677 
L 134.063567 16.794346 
L 134.25656 16.894845 
L 134.706878 17.253844 
L 135.221526 17.164031 
L 136.379484 17.062073 
L 137.344449 17.529605 
L 137.730435 17.368092 
L 138.631069 16.877911 
L 139.017055 16.961939 
L 139.596034 17.393183 
L 140.175013 17.767263 
L 140.560999 17.772767 
L 141.011316 17.517251 
L 141.91195 16.909056 
L 142.297936 16.906049 
L 142.812584 17.161689 
L 143.841881 17.75492 
L 144.356529 17.78716 
L 144.999839 17.589723 
L 146.801107 16.906106 
L 147.573079 16.918388 
L 148.409382 17.166458 
L 150.21065 17.779531 
L 151.111284 17.766904 
L 152.204911 17.506246 
L 153.941849 17.01376 
L 154.842483 17.035185 
L 155.614455 17.314806 
L 156.836744 17.775131 
L 158.316357 17.835732 
L 158.959667 17.543444 
L 160.246287 16.830246 
L 160.760935 16.867287 
L 161.404245 17.17596 
L 162.497873 17.738433 
L 163.012521 17.734846 
L 167.322698 17.0129 
L 168.802311 17.032365 
L 172.469179 17.451197 
L 174.141785 17.32916 
L 175.814391 17.247155 
L 178.258969 17.359544 
L 179.416928 17.239227 
L 181.668513 17.351052 
L 182.633478 17.239403 
L 183.341119 17.254183 
L 184.113091 16.928672 
L 184.756401 17.358662 
L 185.399711 17.718119 
L 186.686331 17.091155 
L 186.943655 17.010945 
L 187.972951 17.318523 
L 188.294607 17.308574 
L 188.616262 17.502892 
L 189.452565 18.327123 
L 189.581227 18.181481 
L 190.481861 16.42963 
L 190.674854 16.526544 
L 190.932178 17.079447 
L 191.253833 17.614941 
L 191.511157 17.554391 
L 192.34746 17.23287 
L 192.797777 17.577911 
L 192.99077 17.327796 
L 193.441087 16.670697 
L 193.63408 16.758524 
L 194.148728 17.261598 
L 194.470383 17.311109 
L 194.792038 17.871572 
L 194.985031 18.048804 
L 195.178024 17.831832 
L 195.757003 16.863738 
L 196.014327 16.863361 
L 196.271651 17.147899 
L 196.786299 17.977386 
L 196.979292 17.872404 
L 197.622603 17.20078 
L 198.201582 17.486604 
L 198.71623 16.779544 
L 198.909223 17.023347 
L 199.35954 17.630053 
L 200.260174 18.023201 
L 200.517498 17.839152 
L 201.096477 16.901331 
L 201.546794 16.39867 
L 201.804118 16.350821 
L 202.061442 16.505063 
L 202.447428 17.048952 
L 203.2194 18.199467 
L 203.476724 18.283504 
L 203.734048 18.153395 
L 204.120034 17.633883 
L 204.892006 16.48881 
L 205.213661 16.406388 
L 205.470985 16.573272 
L 205.921302 17.217052 
L 206.564613 18.133271 
L 206.886268 18.285238 
L 207.207923 18.178287 
L 207.65824 17.706929 
L 208.687536 16.539317 
L 209.137853 16.395984 
L 209.58817 16.508084 
L 210.167149 16.909031 
L 211.775424 18.165271 
L 212.354403 18.285481 
L 212.869051 18.165405 
L 213.512361 17.757362 
L 215.249299 16.460972 
L 215.699616 16.43401 
L 216.278595 16.647777 
L 216.921905 17.118214 
L 218.53018 18.452837 
L 218.851835 18.412463 
L 219.237821 18.112913 
L 220.267117 17.208609 
L 220.781765 17.140008 
L 222.004054 17.265076 
L 222.776026 17.657234 
L 223.547998 17.978315 
L 224.126978 18.017229 
L 224.641626 17.824893 
L 225.349267 17.237314 
L 226.056908 16.768859 
L 226.571556 16.680388 
L 227.086204 16.847016 
L 227.986838 17.462997 
L 228.887472 17.940772 
L 229.530782 18.088419 
L 229.981099 17.96655 
L 230.68874 17.469988 
L 231.525043 16.959666 
L 232.168353 16.843951 
L 232.940326 16.967568 
L 235.77089 17.646311 
L 236.349869 17.577401 
L 236.349869 17.577401 
" clip-path="url(#p9d14fe104e)" style="fill: none; stroke: #d62728; stroke-width: 0.5; stroke-linecap: square"/>
   </g>
   <g id="patch_3">
    <path d="M 33.707196 202.559296 
L 33.707196 7.2 
" style="fill: none; stroke: #000000; stroke-width: 0.8; stroke-linejoin: miter; stroke-linecap: square"/>
   </g>
   <g id="patch_4">
    <path d="M 245.99952 202.559296 
L 245.99952 7.2 
" style="fill: none; stroke: #000000; stroke-width: 0.8; stroke-linejoin: miter; stroke-linecap: square"/>
   </g>
   <g id="patch_5">
    <path d="M 33.707196 202.559296 
L 245.99952 202.559296 
" style="fill: none; stroke: #000000; stroke-width: 0.8; stroke-linejoin: miter; stroke-linecap: square"/>
   </g>
   <g id="patch_6">
    <path d="M 33.707196 7.2 
L 245.99952 7.2 
" style="fill: none; stroke: #000000; stroke-width: 0.8; stroke-linejoin: miter; stroke-linecap: square"/>
   </g>
   <g id="legend_1">
    <g id="patch_7">
     <path d="M 116.8999 198.059296 
L 162.806816 198.059296 
Q 164.606816 198.059296 164.606816 196.259296 
L 164.606816 156.760168 
Q 164.606816 154.960168 162.806816 154.960168 
L 116.8999 154.960168 
Q 115.0999 154.960168 115.0999 156.760168 
L 115.0999 196.259296 
Q 115.0999 198.059296 116.8999 198.059296 
z
" style="fill: #ffffff; opacity: 0.8; stroke: #cccccc; stroke-width: 0.24; stroke-linejoin: miter"/>
    </g>
    <g id="line2d_18">
     <path d="M 118.6999 162.13495 
L 127.6999 162.13495 
L 136.6999 162.13495 
" style="fill: none; stroke: #ff7f0e; stroke-width: 0.5; stroke-linecap: square"/>
    </g>
    <g id="text_16">
     <!-- $\langle \sigma_z\rangle$ -->
     <g transform="translate(143.8999 165.28495) scale(0.09 -0.09)">
      <defs>
       <path id="CMSY10-68" d="M 2099 4557 
C 2131 4627 2131 4640 2131 4672 
C 2131 4742 2074 4800 2003 4800 
C 1946 4800 1901 4768 1856 4653 
L 736 1715 
C 723 1677 704 1638 704 1600 
C 704 1581 704 1568 736 1491 
L 1856 -1446 
C 1882 -1517 1914 -1600 2003 -1600 
C 2074 -1600 2131 -1542 2131 -1472 
C 2131 -1453 2131 -1440 2099 -1370 
L 966 1600 
L 2099 4557 
z
" transform="scale(0.015625)"/>
       <path id="CMMI12-1b" d="M 3251 2408 
C 3334 2408 3546 2408 3546 2612 
C 3546 2752 3424 2752 3309 2752 
L 1894 2752 
C 934 2752 243 1686 243 932 
C 243 390 595 -64 1171 -64 
C 1926 -64 2752 747 2752 1705 
C 2752 1954 2694 2196 2541 2408 
L 3251 2408 
z
M 1178 64 
C 851 64 614 313 614 754 
C 614 1137 845 2408 1786 2408 
C 2061 2408 2368 2274 2368 1781 
C 2368 1558 2266 1021 2042 652 
C 1811 275 1466 64 1178 64 
z
" transform="scale(0.015625)"/>
       <path id="CMMI12-7a" d="M 813 486 
C 1088 803 1312 1004 1632 1296 
C 2016 1632 2182 1793 2272 1891 
C 2720 2338 2944 2713 2944 2764 
C 2944 2816 2893 2816 2880 2816 
C 2835 2816 2822 2793 2790 2750 
C 2630 2494 2477 2367 2310 2367 
C 2176 2367 2106 2421 1984 2565 
C 1850 2715 1741 2816 1555 2816 
C 1088 2816 806 2257 806 2128 
C 806 2108 813 2068 870 2068 
C 922 2068 928 2091 947 2133 
C 1056 2372 1363 2414 1485 2414 
C 1619 2414 1747 2376 1882 2327 
C 2125 2240 2227 2240 2291 2240 
C 2336 2240 2362 2240 2394 2246 
C 2182 1994 1837 1683 1549 1418 
L 902 816 
C 512 415 275 33 275 -12 
C 275 -51 307 -64 346 -64 
C 384 -64 390 -57 435 14 
C 538 163 742 384 979 384 
C 1114 384 1178 342 1306 193 
C 1427 61 1536 -64 1741 -64 
C 2368 -64 2726 732 2726 876 
C 2726 903 2720 942 2656 942 
C 2605 942 2598 917 2579 855 
C 2438 488 2061 338 1811 338 
C 1677 338 1549 376 1414 425 
C 1158 512 1088 512 1005 512 
C 941 512 870 512 813 486 
z
" transform="scale(0.015625)"/>
       <path id="CMSY10-69" d="M 1747 1491 
C 1779 1568 1779 1581 1779 1600 
C 1779 1619 1779 1632 1747 1709 
L 627 4653 
C 589 4762 550 4800 480 4800 
C 410 4800 352 4742 352 4672 
C 352 4653 352 4640 384 4570 
L 1517 1600 
L 384 -1357 
C 352 -1427 352 -1440 352 -1472 
C 352 -1542 410 -1600 480 -1600 
C 563 -1600 589 -1536 614 -1472 
L 1747 1491 
z
" transform="scale(0.015625)"/>
      </defs>
      <use xlink:href="#CMSY10-68" transform="scale(0.996264)"/>
      <use xlink:href="#CMMI12-1b" transform="translate(38.743734 0) scale(0.996264)"/>
      <use xlink:href="#CMMI12-7a" transform="translate(94.189195 -14.943915) scale(0.697382)"/>
      <use xlink:href="#CMSY10-69" transform="translate(129.51575 0) scale(0.996264)"/>
     </g>
    </g>
    <g id="line2d_19">
     <path d="M 118.6999 175.601326 
L 127.6999 175.601326 
L 136.6999 175.601326 
" style="fill: none; stroke: #2ca02c; stroke-width: 0.5; stroke-linecap: square"/>
    </g>
    <g id="text_17">
     <!-- $\langle \sigma_x\rangle$ -->
     <g transform="translate(143.8999 178.751326) scale(0.09 -0.09)">
      <defs>
       <path id="CMMI12-78" d="M 3034 2606 
C 2829 2567 2752 2414 2752 2293 
C 2752 2139 2874 2088 2963 2088 
C 3155 2088 3290 2254 3290 2427 
C 3290 2695 2982 2816 2714 2816 
C 2323 2816 2106 2433 2048 2312 
C 1901 2816 1504 2816 1389 2816 
C 736 2816 390 1980 390 1839 
C 390 1814 416 1782 461 1782 
C 512 1782 525 1820 538 1846 
C 755 2555 1184 2689 1370 2689 
C 1658 2689 1715 2420 1715 2267 
C 1715 2127 1677 1980 1600 1673 
L 1382 798 
C 1286 415 1101 64 762 64 
C 730 64 570 64 435 147 
C 666 192 717 383 717 460 
C 717 588 621 664 499 664 
C 346 664 179 530 179 326 
C 179 57 480 -64 755 -64 
C 1062 -64 1280 179 1414 441 
C 1517 64 1837 -64 2074 -64 
C 2726 -64 3072 773 3072 913 
C 3072 945 3046 971 3008 971 
C 2950 971 2944 939 2925 888 
C 2752 326 2381 64 2093 64 
C 1869 64 1747 230 1747 492 
C 1747 632 1773 734 1875 1156 
L 2099 2024 
C 2195 2408 2413 2689 2707 2689 
C 2720 2689 2899 2689 3034 2606 
z
" transform="scale(0.015625)"/>
      </defs>
      <use xlink:href="#CMSY10-68" transform="scale(0.996264)"/>
      <use xlink:href="#CMMI12-1b" transform="translate(38.743734 0) scale(0.996264)"/>
      <use xlink:href="#CMMI12-78" transform="translate(94.189195 -14.943915) scale(0.697382)"/>
      <use xlink:href="#CMSY10-69" transform="translate(133.490986 0) scale(0.996264)"/>
     </g>
    </g>
    <g id="line2d_20">
     <path d="M 118.6999 189.067702 
L 127.6999 189.067702 
L 136.6999 189.067702 
" style="fill: none; stroke: #d62728; stroke-width: 0.5; stroke-linecap: square"/>
    </g>
    <g id="text_18">
     <!-- $\langle \sigma_y\rangle$ -->
     <g transform="translate(143.8999 192.217702) scale(0.09 -0.09)">
      <defs>
       <path id="CMMI12-79" d="M 1683 -700 
C 1510 -939 1261 -1152 947 -1152 
C 870 -1152 563 -1152 467 -889 
C 486 -895 518 -895 531 -895 
C 723 -895 851 -729 851 -582 
C 851 -435 730 -384 634 -384 
C 531 -384 307 -458 307 -759 
C 307 -1071 582 -1286 947 -1286 
C 1587 -1286 2234 -700 2413 6 
L 3040 2485 
C 3046 2517 3059 2556 3059 2594 
C 3059 2689 2982 2753 2886 2753 
C 2829 2753 2694 2727 2643 2535 
L 2170 658 
C 2138 543 2138 530 2086 460 
C 1958 281 1747 64 1440 64 
C 1082 64 1050 415 1050 588 
C 1050 952 1222 1443 1395 1903 
C 1466 2088 1504 2178 1504 2305 
C 1504 2574 1312 2816 998 2816 
C 410 2816 173 1890 173 1839 
C 173 1814 198 1782 243 1782 
C 301 1782 307 1807 333 1897 
C 486 2433 730 2689 979 2689 
C 1037 2689 1146 2689 1146 2478 
C 1146 2312 1075 2127 979 1884 
C 666 1047 666 837 666 683 
C 666 77 1101 -64 1421 -64 
C 1606 -64 1837 -6 2061 230 
L 2067 224 
C 1971 -147 1907 -392 1683 -700 
z
" transform="scale(0.015625)"/>
      </defs>
      <use xlink:href="#CMSY10-68" transform="scale(0.996264)"/>
      <use xlink:href="#CMMI12-1b" transform="translate(38.743734 0) scale(0.996264)"/>
      <use xlink:href="#CMMI12-79" transform="translate(94.189195 -14.943915) scale(0.697382)"/>
      <use xlink:href="#CMSY10-69" transform="translate(130.484301 0) scale(0.996264)"/>
     </g>
    </g>
   </g>
  </g>
 </g>
 <defs>
  <clipPath id="p9d14fe104e">
   <rect x="33.707196" y="7.2" width="212.292324" height="195.359296"/>
  </clipPath>
 </defs>
</svg>
