<?xml version="1.0" encoding="utf-8" standalone="no"?>
<!DOCTYPE svg PUBLIC "-//W3C//DTD SVG 1.1//EN"
  "http://www.w3.org/Graphics/SVG/1.1/DTD/svg11.dtd">
<svg xmlns:xlink="http://www.w3.org/1999/xlink" width="253.19952pt" height="238.79952pt" viewBox="0 0 253.19952 238.79952" xmlns="http://www.w3.org/2000/svg" version="1.1">
 <metadata>
  <rdf:RDF xmlns:dc="http://purl.org/dc/elements/1.1/" xmlns:cc="http://creativecommons.org/ns#" xmlns:rdf="http://www.w3.org/1999/02/22-rdf-syntax-ns#">
   <cc:Work>
    <dc:type rdf:resource="http://purl.org/dc/dcmitype/StillImage"/>
    <dc:date>1980-01-01T00:00:00+00:00</dc:date>
    <dc:format>image/svg+xml</dc:format>
    <dc:creator>
     <cc:Agent>
      <dc:title>Matplotlib v3.6.2, https://matplotlib.org/</dc:title>
     </cc:Agent>
    </dc:creator>
   </cc:Work>
  </rdf:RDF>
 </metadata>
 <defs>
  <style type="text/css">*{stroke-linejoin: round; stroke-linecap: butt}</style>
 </defs>
 <g id="figure_1">
  <g id="patch_1">
   <path d="M 0 238.79952 
L 253.19952 238.79952 
L 253.19952 0 
L 0 0 
z
" style="fill: #ffffff"/>
  </g>
  <g id="axes_1">
   <g id="patch_2">
    <path d="M 33.707196 202.559296 
L 245.99952 202.559296 
L 245.99952 7.2 
L 33.707196 7.2 
z
" style="fill: #ffffff"/>
   </g>
   <g id="matplotlib.axis_1">
    <g id="xtick_1">
     <g id="line2d_1">
      <defs>
       <path id="m9a2542b10b" d="M 0 0 
L 0 3.5 
" style="stroke: #000000; stroke-width: 0.8"/>
      </defs>
      <g>
       <use xlink:href="#m9a2542b10b" x="43.356847" y="202.559296" style="stroke: #000000; stroke-width: 0.8"/>
      </g>
     </g>
     <g id="text_1">
      <!-- $\mathdefault{0}$ -->
      <g transform="translate(41.239756 217.194098) scale(0.08 -0.08)">
       <defs>
        <path id="CMR17-30" d="M 2688 2025 
C 2688 2416 2682 3080 2413 3591 
C 2176 4039 1798 4198 1466 4198 
C 1158 4198 768 4058 525 3597 
C 269 3118 243 2524 243 2025 
C 243 1661 250 1106 448 619 
C 723 -39 1216 -128 1466 -128 
C 1760 -128 2208 -7 2470 600 
C 2662 1042 2688 1559 2688 2025 
z
M 1466 -26 
C 1056 -26 813 325 723 812 
C 653 1188 653 1738 653 2096 
C 653 2588 653 2997 736 3387 
C 858 3929 1216 4096 1466 4096 
C 1728 4096 2067 3923 2189 3400 
C 2272 3036 2278 2607 2278 2096 
C 2278 1680 2278 1169 2202 792 
C 2067 95 1690 -26 1466 -26 
z
" transform="scale(0.015625)"/>
       </defs>
       <use xlink:href="#CMR17-30" transform="scale(0.996264)"/>
      </g>
     </g>
    </g>
    <g id="xtick_2">
     <g id="line2d_2">
      <g>
       <use xlink:href="#m9a2542b10b" x="70.161434" y="202.559296" style="stroke: #000000; stroke-width: 0.8"/>
      </g>
     </g>
     <g id="text_2">
      <!-- $\mathdefault{25}$ -->
      <g transform="translate(65.927251 217.194098) scale(0.08 -0.08)">
       <defs>
        <path id="CMR17-32" d="M 2669 989 
L 2554 989 
C 2490 536 2438 459 2413 420 
C 2381 369 1920 369 1830 369 
L 602 369 
C 832 619 1280 1072 1824 1597 
C 2214 1967 2669 2402 2669 3035 
C 2669 3790 2067 4224 1395 4224 
C 691 4224 262 3604 262 3030 
C 262 2780 448 2748 525 2748 
C 589 2748 781 2787 781 3010 
C 781 3207 614 3264 525 3264 
C 486 3264 448 3258 422 3245 
C 544 3790 915 4058 1306 4058 
C 1862 4058 2227 3617 2227 3035 
C 2227 2479 1901 2000 1536 1584 
L 262 146 
L 262 0 
L 2515 0 
L 2669 989 
z
" transform="scale(0.015625)"/>
        <path id="CMR17-35" d="M 730 3692 
C 794 3666 1056 3584 1325 3584 
C 1920 3584 2246 3911 2432 4100 
C 2432 4157 2432 4192 2394 4192 
C 2387 4192 2374 4192 2323 4163 
C 2099 4058 1837 3973 1517 3973 
C 1325 3973 1037 3999 723 4139 
C 653 4171 640 4171 634 4171 
C 602 4171 595 4164 595 4037 
L 595 2203 
C 595 2089 595 2057 659 2057 
C 691 2057 704 2070 736 2114 
C 941 2401 1222 2522 1542 2522 
C 1766 2522 2246 2382 2246 1289 
C 2246 1085 2246 715 2054 421 
C 1894 159 1645 25 1370 25 
C 947 25 518 320 403 814 
C 429 807 480 795 506 795 
C 589 795 749 840 749 1038 
C 749 1210 627 1280 506 1280 
C 358 1280 262 1190 262 1011 
C 262 454 704 -128 1382 -128 
C 2042 -128 2669 440 2669 1264 
C 2669 2030 2170 2624 1549 2624 
C 1222 2624 947 2503 730 2274 
L 730 3692 
z
" transform="scale(0.015625)"/>
       </defs>
       <use xlink:href="#CMR17-32" transform="scale(0.996264)"/>
       <use xlink:href="#CMR17-35" transform="translate(45.690477 0) scale(0.996264)"/>
      </g>
     </g>
    </g>
    <g id="xtick_3">
     <g id="line2d_3">
      <g>
       <use xlink:href="#m9a2542b10b" x="96.96602" y="202.559296" style="stroke: #000000; stroke-width: 0.8"/>
      </g>
     </g>
     <g id="text_3">
      <!-- $\mathdefault{50}$ -->
      <g transform="translate(92.731837 217.194098) scale(0.08 -0.08)">
       <use xlink:href="#CMR17-35" transform="scale(0.996264)"/>
       <use xlink:href="#CMR17-30" transform="translate(45.690477 0) scale(0.996264)"/>
      </g>
     </g>
    </g>
    <g id="xtick_4">
     <g id="line2d_4">
      <g>
       <use xlink:href="#m9a2542b10b" x="123.770606" y="202.559296" style="stroke: #000000; stroke-width: 0.8"/>
      </g>
     </g>
     <g id="text_4">
      <!-- $\mathdefault{75}$ -->
      <g transform="translate(119.536423 217.194098) scale(0.08 -0.08)">
       <defs>
        <path id="CMR17-37" d="M 2886 3941 
L 2886 4081 
L 1382 4081 
C 634 4081 621 4165 595 4288 
L 480 4288 
L 294 3094 
L 410 3094 
C 429 3215 474 3540 550 3661 
C 589 3712 1062 3712 1171 3712 
L 2579 3712 
L 1869 2661 
C 1395 1954 1069 999 1069 165 
C 1069 89 1069 -128 1299 -128 
C 1530 -128 1530 89 1530 171 
L 1530 465 
C 1530 1508 1709 2196 2003 2636 
L 2886 3941 
z
" transform="scale(0.015625)"/>
       </defs>
       <use xlink:href="#CMR17-37" transform="scale(0.996264)"/>
       <use xlink:href="#CMR17-35" transform="translate(45.690477 0) scale(0.996264)"/>
      </g>
     </g>
    </g>
    <g id="xtick_5">
     <g id="line2d_5">
      <g>
       <use xlink:href="#m9a2542b10b" x="150.575193" y="202.559296" style="stroke: #000000; stroke-width: 0.8"/>
      </g>
     </g>
     <g id="text_5">
      <!-- $\mathdefault{100}$ -->
      <g transform="translate(144.223918 217.194098) scale(0.08 -0.08)">
       <defs>
        <path id="CMR17-31" d="M 1702 4058 
C 1702 4192 1696 4192 1606 4192 
C 1357 3916 979 3827 621 3827 
C 602 3827 570 3827 563 3808 
C 557 3795 557 3782 557 3648 
C 755 3648 1088 3686 1344 3839 
L 1344 461 
C 1344 236 1331 160 781 160 
L 589 160 
L 589 0 
C 896 0 1216 0 1523 0 
C 1830 0 2150 0 2458 0 
L 2458 160 
L 2266 160 
C 1715 160 1702 230 1702 458 
L 1702 4058 
z
" transform="scale(0.015625)"/>
       </defs>
       <use xlink:href="#CMR17-31" transform="scale(0.996264)"/>
       <use xlink:href="#CMR17-30" transform="translate(45.690477 0) scale(0.996264)"/>
       <use xlink:href="#CMR17-30" transform="translate(91.380954 0) scale(0.996264)"/>
      </g>
     </g>
    </g>
    <g id="xtick_6">
     <g id="line2d_6">
      <g>
       <use xlink:href="#m9a2542b10b" x="177.379779" y="202.559296" style="stroke: #000000; stroke-width: 0.8"/>
      </g>
     </g>
     <g id="text_6">
      <!-- $\mathdefault{125}$ -->
      <g transform="translate(171.028505 217.194098) scale(0.08 -0.08)">
       <use xlink:href="#CMR17-31" transform="scale(0.996264)"/>
       <use xlink:href="#CMR17-32" transform="translate(45.690477 0) scale(0.996264)"/>
       <use xlink:href="#CMR17-35" transform="translate(91.380954 0) scale(0.996264)"/>
      </g>
     </g>
    </g>
    <g id="xtick_7">
     <g id="line2d_7">
      <g>
       <use xlink:href="#m9a2542b10b" x="204.184365" y="202.559296" style="stroke: #000000; stroke-width: 0.8"/>
      </g>
     </g>
     <g id="text_7">
      <!-- $\mathdefault{150}$ -->
      <g transform="translate(197.833091 217.194098) scale(0.08 -0.08)">
       <use xlink:href="#CMR17-31" transform="scale(0.996264)"/>
       <use xlink:href="#CMR17-35" transform="translate(45.690477 0) scale(0.996264)"/>
       <use xlink:href="#CMR17-30" transform="translate(91.380954 0) scale(0.996264)"/>
      </g>
     </g>
    </g>
    <g id="xtick_8">
     <g id="line2d_8">
      <g>
       <use xlink:href="#m9a2542b10b" x="230.988952" y="202.559296" style="stroke: #000000; stroke-width: 0.8"/>
      </g>
     </g>
     <g id="text_8">
      <!-- $\mathdefault{175}$ -->
      <g transform="translate(224.637677 217.194098) scale(0.08 -0.08)">
       <use xlink:href="#CMR17-31" transform="scale(0.996264)"/>
       <use xlink:href="#CMR17-37" transform="translate(45.690477 0) scale(0.996264)"/>
       <use xlink:href="#CMR17-35" transform="translate(91.380954 0) scale(0.996264)"/>
      </g>
     </g>
    </g>
    <g id="text_9">
     <!-- $\tau$ -->
     <g transform="translate(137.675756 229.662342) scale(0.1 -0.1)">
      <defs>
       <path id="CMMI12-1c" d="M 1837 2408 
L 2899 2408 
C 2982 2408 3194 2408 3194 2612 
C 3194 2752 3072 2752 2957 2752 
L 1197 2752 
C 1050 2752 832 2752 538 2440 
C 371 2255 166 1917 166 1879 
C 166 1841 198 1828 237 1828 
C 282 1828 288 1847 320 1885 
C 653 2408 986 2408 1146 2408 
L 1677 2408 
L 1011 223 
C 979 127 979 114 979 95 
C 979 25 1024 -64 1152 -64 
C 1350 -64 1382 108 1402 203 
L 1837 2408 
z
" transform="scale(0.015625)"/>
      </defs>
      <use xlink:href="#CMMI12-1c" transform="scale(0.996264)"/>
     </g>
    </g>
   </g>
   <g id="matplotlib.axis_2">
    <g id="ytick_1">
     <g id="line2d_9">
      <defs>
       <path id="m5dcaa9be21" d="M 0 0 
L -3.5 0 
" style="stroke: #000000; stroke-width: 0.8"/>
      </defs>
      <g>
       <use xlink:href="#m5dcaa9be21" x="33.707196" y="193.679328" style="stroke: #000000; stroke-width: 0.8"/>
      </g>
     </g>
     <g id="text_10">
      <!-- $\mathdefault{−1.0}$ -->
      <g transform="translate(7.2 196.446729) scale(0.08 -0.08)">
       <defs>
        <path id="CMSY10-0" d="M 4218 1472 
C 4326 1472 4442 1472 4442 1600 
C 4442 1728 4326 1728 4218 1728 
L 755 1728 
C 646 1728 531 1728 531 1600 
C 531 1472 646 1472 755 1472 
L 4218 1472 
z
" transform="scale(0.015625)"/>
        <path id="CMMI12-3a" d="M 1178 307 
C 1178 492 1024 619 870 619 
C 685 619 557 466 557 313 
C 557 128 710 0 864 0 
C 1050 0 1178 153 1178 307 
z
" transform="scale(0.015625)"/>
       </defs>
       <use xlink:href="#CMSY10-0" transform="scale(0.996264)"/>
       <use xlink:href="#CMR17-31" transform="translate(77.487468 0) scale(0.996264)"/>
       <use xlink:href="#CMMI12-3a" transform="translate(123.177945 0) scale(0.996264)"/>
       <use xlink:href="#CMR17-30" transform="translate(150.275122 0) scale(0.996264)"/>
      </g>
     </g>
    </g>
    <g id="ytick_2">
     <g id="line2d_10">
      <g>
       <use xlink:href="#m5dcaa9be21" x="33.707196" y="158.383428" style="stroke: #000000; stroke-width: 0.8"/>
      </g>
     </g>
     <g id="text_11">
      <!-- $\mathdefault{−0.8}$ -->
      <g transform="translate(7.2 161.150829) scale(0.08 -0.08)">
       <defs>
        <path id="CMR17-38" d="M 1741 2264 
C 2144 2467 2554 2773 2554 3263 
C 2554 3841 1990 4179 1472 4179 
C 890 4179 378 3759 378 3180 
C 378 3021 416 2747 666 2505 
C 730 2442 998 2251 1171 2130 
C 883 1983 211 1634 211 934 
C 211 279 838 -128 1459 -128 
C 2144 -128 2720 362 2720 1010 
C 2720 1590 2330 1857 2074 2029 
L 1741 2264 
z
M 902 2822 
C 851 2854 595 3051 595 3351 
C 595 3739 998 4032 1459 4032 
C 1965 4032 2336 3676 2336 3262 
C 2336 2669 1670 2331 1638 2331 
C 1632 2331 1626 2331 1574 2370 
L 902 2822 
z
M 2080 1519 
C 2176 1449 2483 1240 2483 851 
C 2483 381 2010 25 1472 25 
C 890 25 448 438 448 940 
C 448 1443 838 1862 1280 2060 
L 2080 1519 
z
" transform="scale(0.015625)"/>
       </defs>
       <use xlink:href="#CMSY10-0" transform="scale(0.996264)"/>
       <use xlink:href="#CMR17-30" transform="translate(77.487468 0) scale(0.996264)"/>
       <use xlink:href="#CMMI12-3a" transform="translate(123.177945 0) scale(0.996264)"/>
       <use xlink:href="#CMR17-38" transform="translate(150.275122 0) scale(0.996264)"/>
      </g>
     </g>
    </g>
    <g id="ytick_3">
     <g id="line2d_11">
      <g>
       <use xlink:href="#m5dcaa9be21" x="33.707196" y="123.087528" style="stroke: #000000; stroke-width: 0.8"/>
      </g>
     </g>
     <g id="text_12">
      <!-- $\mathdefault{−0.6}$ -->
      <g transform="translate(7.2 125.854929) scale(0.08 -0.08)">
       <defs>
        <path id="CMR17-36" d="M 678 2176 
C 678 3690 1395 4032 1811 4032 
C 1946 4032 2272 4009 2400 3776 
C 2298 3776 2106 3776 2106 3553 
C 2106 3381 2246 3323 2336 3323 
C 2394 3323 2566 3348 2566 3560 
C 2566 3954 2246 4179 1805 4179 
C 1043 4179 243 3390 243 1984 
C 243 253 966 -128 1478 -128 
C 2099 -128 2688 427 2688 1283 
C 2688 2081 2170 2662 1517 2662 
C 1126 2662 838 2407 678 1960 
L 678 2176 
z
M 1478 25 
C 691 25 691 1200 691 1436 
C 691 1896 909 2560 1504 2560 
C 1613 2560 1926 2560 2138 2120 
C 2253 1870 2253 1609 2253 1289 
C 2253 944 2253 690 2118 434 
C 1978 171 1773 25 1478 25 
z
" transform="scale(0.015625)"/>
       </defs>
       <use xlink:href="#CMSY10-0" transform="scale(0.996264)"/>
       <use xlink:href="#CMR17-30" transform="translate(77.487468 0) scale(0.996264)"/>
       <use xlink:href="#CMMI12-3a" transform="translate(123.177945 0) scale(0.996264)"/>
       <use xlink:href="#CMR17-36" transform="translate(150.275122 0) scale(0.996264)"/>
      </g>
     </g>
    </g>
    <g id="ytick_4">
     <g id="line2d_12">
      <g>
       <use xlink:href="#m5dcaa9be21" x="33.707196" y="87.791629" style="stroke: #000000; stroke-width: 0.8"/>
      </g>
     </g>
     <g id="text_13">
      <!-- $\mathdefault{−0.4}$ -->
      <g transform="translate(7.2 90.55903) scale(0.08 -0.08)">
       <defs>
        <path id="CMR17-34" d="M 2150 4122 
C 2150 4256 2144 4256 2029 4256 
L 128 1254 
L 128 1088 
L 1779 1088 
L 1779 457 
C 1779 224 1766 160 1318 160 
L 1197 160 
L 1197 0 
C 1402 0 1747 0 1965 0 
C 2182 0 2528 0 2733 0 
L 2733 160 
L 2611 160 
C 2163 160 2150 224 2150 457 
L 2150 1088 
L 2803 1088 
L 2803 1254 
L 2150 1254 
L 2150 4122 
z
M 1798 3703 
L 1798 1254 
L 256 1254 
L 1798 3703 
z
" transform="scale(0.015625)"/>
       </defs>
       <use xlink:href="#CMSY10-0" transform="scale(0.996264)"/>
       <use xlink:href="#CMR17-30" transform="translate(77.487468 0) scale(0.996264)"/>
       <use xlink:href="#CMMI12-3a" transform="translate(123.177945 0) scale(0.996264)"/>
       <use xlink:href="#CMR17-34" transform="translate(150.275122 0) scale(0.996264)"/>
      </g>
     </g>
    </g>
    <g id="ytick_5">
     <g id="line2d_13">
      <g>
       <use xlink:href="#m5dcaa9be21" x="33.707196" y="52.495729" style="stroke: #000000; stroke-width: 0.8"/>
      </g>
     </g>
     <g id="text_14">
      <!-- $\mathdefault{−0.2}$ -->
      <g transform="translate(7.2 55.26313) scale(0.08 -0.08)">
       <use xlink:href="#CMSY10-0" transform="scale(0.996264)"/>
       <use xlink:href="#CMR17-30" transform="translate(77.487468 0) scale(0.996264)"/>
       <use xlink:href="#CMMI12-3a" transform="translate(123.177945 0) scale(0.996264)"/>
       <use xlink:href="#CMR17-32" transform="translate(150.275122 0) scale(0.996264)"/>
      </g>
     </g>
    </g>
    <g id="ytick_6">
     <g id="line2d_14">
      <g>
       <use xlink:href="#m5dcaa9be21" x="33.707196" y="17.199829" style="stroke: #000000; stroke-width: 0.8"/>
      </g>
     </g>
     <g id="text_15">
      <!-- $\mathdefault{0.0}$ -->
      <g transform="translate(13.786507 19.96723) scale(0.08 -0.08)">
       <use xlink:href="#CMR17-30" transform="scale(0.996264)"/>
       <use xlink:href="#CMMI12-3a" transform="translate(45.690477 0) scale(0.996264)"/>
       <use xlink:href="#CMR17-30" transform="translate(72.787654 0) scale(0.996264)"/>
      </g>
     </g>
    </g>
   </g>
   <g id="line2d_15">
    <path d="M 43.356847 193.679328 
L 52.363188 193.58943 
L 52.620512 193.351453 
L 52.877836 192.738875 
L 53.13516 191.427686 
L 53.456815 188.182313 
L 53.842801 181.02707 
L 54.42178 164.480077 
L 55.129422 146.258348 
L 57.123683 108.71002 
L 57.895655 100.234236 
L 58.538965 96.31798 
L 60.468895 86.745189 
L 61.562522 83.050778 
L 62.977804 79.248899 
L 63.428121 77.880089 
L 63.878439 76.654735 
L 64.264425 76.221499 
L 64.58608 75.733489 
L 64.907735 74.698515 
L 65.358052 73.38569 
L 65.679707 73.030648 
L 66.001362 72.724019 
L 66.387348 71.888164 
L 66.837665 70.846525 
L 67.094989 70.782557 
L 67.352313 70.678312 
L 67.866961 69.966083 
L 68.638933 68.62522 
L 69.153581 68.755034 
L 69.475236 68.926765 
L 69.796891 69.460253 
L 70.182877 70.757938 
L 70.761856 73.60894 
L 71.533828 78.29106 
L 72.627456 87.147922 
L 73.335097 91.943012 
L 73.785414 93.703677 
L 74.1714 94.453646 
L 74.557386 94.73601 
L 75.136365 94.799365 
L 85.300664 94.727599 
L 85.750981 94.490258 
L 86.136967 94.035481 
L 86.587284 93.086666 
L 87.101932 91.415579 
L 88.324221 87.179101 
L 88.581545 86.964455 
L 88.774538 87.065594 
L 89.031862 87.546875 
L 89.417848 88.932031 
L 90.061158 92.377799 
L 92.956054 108.776033 
L 94.178343 114.199165 
L 95.143308 117.407714 
L 96.172604 120.079444 
L 97.137569 121.897119 
L 99.067499 125.133245 
L 100.032465 126.294255 
L 101.126092 127.552089 
L 101.576409 128.450722 
L 102.026726 129.926297 
L 102.541374 132.489668 
L 103.184684 136.966469 
L 105.114614 151.468726 
L 105.629262 153.569734 
L 106.079579 154.584921 
L 106.465565 154.993748 
L 106.915882 155.155385 
L 108.00951 155.180801 
L 116.758526 155.089094 
L 117.015851 154.84918 
L 117.273175 154.256805 
L 117.530499 153.038307 
L 117.852154 150.146486 
L 118.23814 144.076729 
L 120.039408 110.059444 
L 121.197366 92.50861 
L 121.905007 86.392685 
L 122.74131 81.087953 
L 123.191627 79.483432 
L 123.963599 77.571706 
L 124.413916 76.194422 
L 124.992895 74.937418 
L 126.408178 71.856512 
L 126.665502 71.765435 
L 126.987157 71.061323 
L 127.308812 70.598027 
L 127.630467 70.468217 
L 127.887791 70.436843 
L 128.080784 70.135124 
L 128.917087 68.277243 
L 129.303073 67.788248 
L 130.010714 67.347406 
L 130.782686 66.064425 
L 131.233003 65.939551 
L 131.68332 65.471651 
L 132.519623 64.348231 
L 132.776947 64.362552 
L 133.484588 64.895981 
L 133.806243 65.472805 
L 134.192229 66.719322 
L 135.350188 71.699769 
L 135.864836 75.431075 
L 137.601773 88.689449 
L 138.05209 90.606325 
L 138.438076 91.435881 
L 138.824062 91.759809 
L 139.33871 91.843703 
L 146.029135 91.845831 
L 149.760333 91.735009 
L 150.21065 91.460468 
L 150.660967 90.877575 
L 151.111284 89.893234 
L 152.655229 86.016646 
L 152.912553 85.968411 
L 153.169877 86.213307 
L 153.491532 86.925589 
L 153.941849 88.606355 
L 154.713821 92.64333 
L 156.000441 100.548564 
L 157.158399 107.435831 
L 158.187695 112.061849 
L 159.281322 115.986299 
L 160.43928 119.592914 
L 161.211252 121.233768 
L 163.462838 125.163907 
L 164.87812 126.949161 
L 165.585761 128.026699 
L 166.036078 129.134184 
L 166.550726 131.109288 
L 167.129705 134.330791 
L 167.901677 140.060454 
L 169.316959 150.620707 
L 169.895938 153.238094 
L 170.346256 154.366569 
L 170.732242 154.840889 
L 171.182559 155.041078 
L 172.018862 155.07781 
L 181.089534 154.985984 
L 181.346858 154.737246 
L 181.604182 154.129641 
L 181.861506 152.895595 
L 182.183161 150.00904 
L 182.569147 144.033989 
L 184.756401 103.411973 
L 185.399711 93.756757 
L 185.914359 89.380391 
L 187.007986 81.968311 
L 187.586965 79.825077 
L 188.809255 76.242932 
L 189.645558 74.407631 
L 190.546192 72.930129 
L 190.739185 72.726579 
L 191.125171 71.726867 
L 191.768481 70.041965 
L 192.154467 69.951189 
L 192.411791 69.252522 
L 192.733446 68.600019 
L 192.99077 68.61725 
L 193.248094 68.598845 
L 193.505418 68.255852 
L 193.827073 67.862079 
L 194.020066 67.977529 
L 194.213059 68.104384 
L 194.341721 67.988623 
L 194.727707 66.984132 
L 195.049362 66.425778 
L 195.885665 65.836355 
L 196.142989 65.834671 
L 196.335982 65.55583 
L 196.721968 64.953787 
L 197.622603 64.681658 
L 198.523237 66.346909 
L 198.973554 67.992533 
L 199.552533 70.835435 
L 200.131512 74.876934 
L 201.804118 87.606266 
L 202.318766 90.077644 
L 202.704752 91.056938 
L 203.090738 91.459293 
L 203.541055 91.567205 
L 206.049965 91.573959 
L 213.962678 91.47334 
L 214.412995 91.234008 
L 214.798981 90.791164 
L 215.249299 89.88182 
L 215.828278 88.089837 
L 216.793243 85.043613 
L 217.050567 84.746249 
L 217.24356 84.761963 
L 217.500884 85.113667 
L 217.822539 86.049571 
L 218.337187 88.397711 
L 219.17349 93.395749 
L 221.296413 106.794534 
L 222.39004 111.802577 
L 223.290674 114.940391 
L 224.89895 119.648259 
L 225.863915 121.758285 
L 227.021873 123.637095 
L 230.367085 128.799884 
L 230.817402 130.394934 
L 231.33205 133.064673 
L 232.039691 138.125262 
L 233.776629 151.172883 
L 234.291277 153.344066 
L 234.741594 154.394302 
L 235.12758 154.813517 
L 235.577897 154.9762 
L 236.349869 155.000911 
L 236.349869 155.000911 
" clip-path="url(#p3c3dc031db)" style="fill: none; stroke: #ff7f0e; stroke-width: 0.5; stroke-linecap: square"/>
   </g>
   <g id="line2d_16">
    <path d="M 43.356847 17.199829 
L 53.907132 17.306056 
L 55.065091 17.536489 
L 55.965725 17.74687 
L 56.737697 17.855046 
L 57.381007 18.243832 
L 57.895655 18.37619 
L 58.345972 18.544606 
L 58.603296 18.388684 
L 59.182275 17.929359 
L 59.954247 17.852109 
L 60.79055 17.347664 
L 61.112205 17.617463 
L 61.755515 18.236162 
L 62.012839 18.086163 
L 63.235128 16.93981 
L 63.556784 16.994247 
L 63.94277 17.332997 
L 64.328756 17.640686 
L 64.521749 17.58342 
L 64.843404 17.121731 
L 65.22939 16.716052 
L 65.486714 16.731742 
L 66.837665 17.232521 
L 67.287982 17.22147 
L 67.80263 17.269348 
L 68.960588 16.852585 
L 69.475236 16.625553 
L 69.861222 16.746169 
L 70.311539 17.118848 
L 71.212173 17.99615 
L 71.533828 17.952083 
L 72.177138 17.498 
L 72.691787 17.292474 
L 73.270766 17.298758 
L 74.300062 17.358728 
L 75.329358 17.088787 
L 75.972668 17.045693 
L 76.808971 17.255633 
L 77.580943 17.36281 
L 78.417246 17.200054 
L 79.446542 17.034791 
L 80.411507 17.140608 
L 82.212776 17.364613 
L 83.499396 17.268479 
L 85.943974 17.031386 
L 89.289186 16.935081 
L 90.961793 16.868159 
L 92.570068 16.922482 
L 93.663695 17.091647 
L 94.692991 17.177252 
L 97.2019 17.495194 
L 99.646479 17.084167 
L 100.35412 17.307946 
L 102.28405 18.077991 
L 102.863029 18.003878 
L 103.442008 17.67758 
L 105.307607 16.461648 
L 105.886586 16.415435 
L 106.465565 16.582333 
L 107.237537 17.061197 
L 108.524158 17.874208 
L 109.103137 17.988513 
L 109.617785 17.882864 
L 110.196764 17.526584 
L 111.676377 16.417226 
L 112.062363 16.487378 
L 112.448349 16.803141 
L 113.606307 17.98179 
L 113.927962 17.91053 
L 114.313948 17.518017 
L 115.214582 16.449223 
L 115.536237 16.44357 
L 115.857892 16.702239 
L 117.080182 18.034797 
L 117.401837 17.932186 
L 117.852154 17.469568 
L 118.559795 16.735109 
L 118.945781 16.651904 
L 119.331767 16.823014 
L 119.717753 17.285649 
L 120.361063 18.049817 
L 120.747049 18.160474 
L 121.390359 18.025722 
L 121.712014 17.654706 
L 122.098 17.276893 
L 123.127296 17.130873 
L 123.513282 17.046082 
L 124.285254 17.139483 
L 125.378881 16.725368 
L 126.150854 16.089551 
L 126.601171 16.346388 
L 127.115819 16.631068 
L 127.952122 16.540088 
L 128.531101 16.782417 
L 129.946383 17.007212 
L 130.911348 16.723181 
L 131.425996 16.678229 
L 131.811982 16.557078 
L 132.197968 16.484414 
L 132.96994 16.511382 
L 133.677581 16.46285 
L 134.063567 16.753767 
L 134.449553 16.96582 
L 134.899871 16.903792 
L 135.607512 16.714872 
L 136.057829 16.940341 
L 136.701139 17.226669 
L 137.087125 17.120592 
L 138.05209 16.698272 
L 138.438076 16.834675 
L 139.853358 17.658923 
L 140.239344 17.475892 
L 141.397302 16.72975 
L 141.783288 16.819857 
L 142.426598 17.27899 
L 143.069908 17.639275 
L 143.520225 17.649063 
L 144.099205 17.412594 
L 145.450156 16.776285 
L 146.157797 16.745183 
L 146.929769 16.944974 
L 149.117023 17.666414 
L 149.888995 17.58078 
L 150.85396 17.206288 
L 152.14058 16.728601 
L 152.71956 16.748507 
L 153.427201 17.022014 
L 154.778152 17.618458 
L 155.485793 17.704624 
L 156.064772 17.542609 
L 158.123364 16.651428 
L 158.959667 16.608084 
L 160.567942 16.550532 
L 161.983225 16.555801 
L 166.357733 17.502569 
L 167.129705 17.38357 
L 168.159001 16.918491 
L 169.123966 16.602838 
L 169.831607 16.567892 
L 170.539249 16.758611 
L 171.632876 17.342232 
L 172.597841 17.757419 
L 173.241151 17.806071 
L 173.884461 17.625065 
L 174.720764 17.112802 
L 175.621398 16.613606 
L 176.071715 16.615337 
L 176.522032 16.862284 
L 177.808652 17.81513 
L 178.130307 17.719318 
L 178.580624 17.312185 
L 179.288266 16.643579 
L 179.609921 16.592169 
L 179.931576 16.752981 
L 180.574886 17.431551 
L 181.025203 17.77599 
L 181.346858 17.78852 
L 181.732844 17.532384 
L 182.633478 16.746644 
L 182.890802 16.791805 
L 183.212457 17.135232 
L 183.984429 18.188627 
L 184.241753 18.152848 
L 185.399711 17.684682 
L 186.043021 17.715364 
L 187.200979 17.562554 
L 187.651296 17.81196 
L 188.809255 17.773729 
L 189.259572 17.352711 
L 189.967213 16.395768 
L 190.160206 16.485704 
L 191.125171 17.350086 
L 191.768481 17.041177 
L 193.183763 17.286018 
L 193.505418 17.654551 
L 193.891404 18.036674 
L 194.727707 18.133909 
L 194.985031 18.020864 
L 195.499679 17.748965 
L 196.014327 17.885257 
L 196.593306 17.979498 
L 196.914961 17.715124 
L 197.365279 17.336844 
L 199.166547 17.104421 
L 199.552533 17.010654 
L 199.938519 16.935465 
L 200.324505 16.529322 
L 200.774822 16.123343 
L 201.032146 16.13614 
L 201.353801 16.391208 
L 201.997111 17.308403 
L 202.511759 17.872734 
L 202.833414 17.913754 
L 203.155069 17.689247 
L 204.377358 16.449573 
L 204.699013 16.577393 
L 205.14933 17.093764 
L 205.856971 17.885211 
L 206.178627 17.941265 
L 206.500282 17.767555 
L 207.079261 17.121548 
L 207.65824 16.568085 
L 208.044226 16.449616 
L 208.430212 16.545107 
L 209.009191 16.951698 
L 210.167149 17.798618 
L 210.746128 17.947729 
L 211.325107 17.869629 
L 212.032748 17.521344 
L 213.834016 16.493363 
L 214.412995 16.489558 
L 214.991975 16.733572 
L 216.342926 17.716744 
L 217.179229 18.175747 
L 217.693877 18.215605 
L 218.144194 17.993204 
L 219.366483 17.142447 
L 220.074124 17.215634 
L 220.846096 17.44244 
L 223.290674 18.405448 
L 223.869654 18.336025 
L 226.893211 17.690646 
L 228.887472 18.341331 
L 229.981099 18.589061 
L 230.624409 18.396225 
L 231.718036 17.8033 
L 233.004657 17.122844 
L 233.905291 16.895334 
L 234.677263 16.937904 
L 235.899552 17.276207 
L 236.349869 17.404774 
L 236.349869 17.404774 
" clip-path="url(#p3c3dc031db)" style="fill: none; stroke: #2ca02c; stroke-width: 0.5; stroke-linecap: square"/>
   </g>
   <g id="line2d_17">
    <path d="M 43.356847 17.199829 
L 54.42178 17.091769 
L 55.258084 17.075821 
L 55.901394 17.360215 
L 56.28738 17.39807 
L 56.609035 17.129671 
L 56.93069 16.921677 
L 57.188014 17.09729 
L 57.445338 17.243663 
L 57.702662 17.062941 
L 58.024317 16.893523 
L 58.21731 17.043759 
L 58.796289 17.713026 
L 58.989282 17.577091 
L 59.375268 17.197556 
L 59.632592 17.34989 
L 60.14724 17.627632 
L 60.340233 17.585085 
L 60.597557 17.23431 
L 61.112205 16.513517 
L 61.369529 16.448242 
L 61.562522 16.697205 
L 62.141501 17.705907 
L 62.527487 17.793482 
L 62.849142 17.63492 
L 63.685446 16.716387 
L 64.007101 16.490336 
L 64.200094 16.648742 
L 64.457418 17.275642 
L 64.779073 18.025292 
L 64.907735 17.98678 
L 65.22939 17.377336 
L 65.551045 16.909403 
L 65.808369 16.920923 
L 66.387348 17.129653 
L 66.773334 17.473868 
L 67.030658 17.352318 
L 67.480975 17.071959 
L 67.738299 17.224272 
L 68.252947 17.570599 
L 68.896257 17.693993 
L 69.08925 17.743772 
L 69.346574 17.47645 
L 69.73256 17.15019 
L 70.182877 16.816064 
L 70.633194 16.512903 
L 70.890518 16.662572 
L 71.855483 17.602284 
L 72.177138 17.538261 
L 73.335097 17.092472 
L 73.978407 17.184582 
L 75.007703 17.363895 
L 75.715344 17.218476 
L 76.680309 17.03569 
L 77.38795 17.170304 
L 78.417246 17.364939 
L 79.253549 17.248738 
L 80.668831 17.035128 
L 81.82679 17.130386 
L 84.142706 17.365055 
L 88.131228 17.184812 
L 89.353517 17.038996 
L 90.061158 17.285709 
L 90.7688 17.494655 
L 92.05542 17.532745 
L 93.856688 17.241829 
L 95.014646 16.730036 
L 95.593625 16.845643 
L 97.459224 17.38474 
L 98.102534 17.235099 
L 100.418451 16.588179 
L 101.254754 16.791772 
L 101.962395 17.166321 
L 103.249015 17.984734 
L 103.827994 18.054524 
L 104.535635 17.898001 
L 105.307607 17.47557 
L 106.915882 16.497406 
L 107.494861 16.412694 
L 108.073841 16.550463 
L 108.781482 16.96579 
L 110.325426 17.957397 
L 110.775743 17.963837 
L 111.22606 17.734411 
L 111.86937 17.077874 
L 112.51268 16.480936 
L 112.834335 16.415333 
L 113.15599 16.571643 
L 113.606307 17.096835 
L 114.313948 17.921513 
L 114.635603 17.975764 
L 114.957258 17.761169 
L 115.536237 16.975898 
L 116.050885 16.448497 
L 116.37254 16.42733 
L 116.694195 16.661439 
L 117.852154 17.818082 
L 118.173809 17.737332 
L 118.688457 17.300584 
L 119.717753 16.403558 
L 119.975077 16.495584 
L 120.489725 17.024129 
L 120.81138 17.276528 
L 121.261697 17.387733 
L 121.776345 18.047342 
L 121.969338 17.670081 
L 122.290993 17.148997 
L 122.869972 17.204171 
L 123.255958 17.310263 
L 123.706275 17.05455 
L 124.02793 17.303563 
L 124.349585 17.54301 
L 124.799902 17.562227 
L 125.185888 17.682272 
L 125.764867 17.630026 
L 126.472509 16.761395 
L 126.794164 16.789285 
L 126.987157 17.028423 
L 127.308812 17.502827 
L 127.501805 17.46659 
L 128.145115 17.123918 
L 128.46677 17.142978 
L 129.367404 16.759689 
L 129.560397 16.887995 
L 130.010714 17.246824 
L 132.133637 16.878265 
L 132.32663 16.823129 
L 132.648285 17.068255 
L 133.034271 17.29481 
L 133.420257 17.2635 
L 133.677581 17.011751 
L 133.999236 16.669779 
L 134.192229 16.733378 
L 134.964202 17.312272 
L 135.285857 17.295485 
L 135.671843 16.967993 
L 136.057829 16.719883 
L 136.379484 16.806149 
L 137.40878 17.462977 
L 137.794766 17.318092 
L 138.888393 16.720471 
L 139.274379 16.84307 
L 139.98202 17.410787 
L 140.496668 17.665657 
L 140.882654 17.596572 
L 141.397302 17.227803 
L 142.104943 16.761987 
L 142.490929 16.746733 
L 143.005577 16.987707 
L 144.163536 17.636296 
L 144.742515 17.645205 
L 145.450156 17.405662 
L 147.122762 16.764507 
L 147.894734 16.754187 
L 148.731037 16.993856 
L 150.789629 17.738015 
L 151.432939 17.665619 
L 152.011918 17.397128 
L 153.169877 16.744816 
L 153.684525 16.757373 
L 154.456497 17.054208 
L 156.193434 17.841377 
L 156.643751 17.768408 
L 157.86604 17.412911 
L 159.924632 17.313804 
L 160.953928 17.052978 
L 162.497873 17.122105 
L 164.106148 17.321722 
L 166.422064 17.032067 
L 167.129705 17.22015 
L 168.09467 17.464053 
L 168.866642 17.391475 
L 169.767276 17.062207 
L 171.053897 16.608901 
L 171.697207 16.610778 
L 172.404848 16.84376 
L 174.656433 17.813729 
L 175.171081 17.678062 
L 175.814391 17.228014 
L 176.650694 16.628505 
L 177.03668 16.602183 
L 177.422666 16.812044 
L 178.709286 17.814272 
L 179.030941 17.689698 
L 179.54559 17.176434 
L 180.124569 16.646585 
L 180.446224 16.59188 
L 180.767879 16.750973 
L 181.346858 17.368221 
L 181.861506 17.789402 
L 182.183161 17.774236 
L 182.504816 17.503663 
L 183.534112 16.336251 
L 183.791436 16.72958 
L 184.241753 17.550434 
L 184.499077 17.589153 
L 185.721366 17.320297 
L 186.043021 17.210874 
L 186.300345 17.210984 
L 186.622 17.338578 
L 186.814993 17.194577 
L 187.329641 16.67466 
L 187.90862 17.033759 
L 188.165945 17.13608 
L 188.937917 17.680406 
L 189.195241 17.886543 
L 189.516896 18.165154 
L 189.709889 17.957435 
L 190.031544 17.003763 
L 190.353199 16.253204 
L 190.546192 16.213133 
L 190.739185 16.39346 
L 191.318164 17.36094 
L 191.897143 16.976414 
L 192.411791 17.040874 
L 192.797777 17.374222 
L 192.99077 17.27826 
L 193.569749 16.665694 
L 193.827073 16.959788 
L 194.148728 17.238215 
L 194.599045 17.091482 
L 195.113693 17.592021 
L 196.014327 16.976695 
L 196.335982 17.179442 
L 196.914961 17.752115 
L 197.172286 17.446107 
L 197.558272 16.977982 
L 197.751265 17.055131 
L 198.137251 17.292339 
L 198.651899 16.987855 
L 199.166547 17.41585 
L 199.681195 17.227853 
L 200.00285 17.5251 
L 200.324505 17.72764 
L 200.581829 17.580486 
L 201.804118 16.398406 
L 202.125773 16.501534 
L 202.511759 16.916591 
L 203.348062 17.899789 
L 203.669717 17.927399 
L 203.991372 17.698632 
L 205.213661 16.449749 
L 205.535316 16.567514 
L 205.985634 17.059271 
L 206.693275 17.846923 
L 207.079261 17.946011 
L 207.465247 17.768741 
L 208.172888 17.07648 
L 208.816198 16.568322 
L 209.330846 16.450026 
L 209.845494 16.578172 
L 210.617466 17.048324 
L 211.904086 17.834361 
L 212.547396 17.949769 
L 213.126375 17.830103 
L 213.898347 17.408316 
L 215.377961 16.521567 
L 215.892609 16.536304 
L 216.60025 16.809134 
L 217.565215 17.412378 
L 218.53018 18.045231 
L 218.851835 17.969152 
L 219.302152 17.588777 
L 220.267117 16.769692 
L 220.846096 16.543865 
L 221.425075 16.616617 
L 222.39004 17.002766 
L 224.126978 17.758013 
L 225.670922 17.629114 
L 226.314232 17.570089 
L 227.47219 17.213112 
L 228.372824 16.949776 
L 229.080465 16.984111 
L 232.425677 17.628621 
L 234.226946 17.105802 
L 235.384904 16.869012 
L 236.285538 16.916315 
L 236.349869 16.928115 
L 236.349869 16.928115 
" clip-path="url(#p3c3dc031db)" style="fill: none; stroke: #d62728; stroke-width: 0.5; stroke-linecap: square"/>
   </g>
   <g id="patch_3">
    <path d="M 33.707196 202.559296 
L 33.707196 7.2 
" style="fill: none; stroke: #000000; stroke-width: 0.8; stroke-linejoin: miter; stroke-linecap: square"/>
   </g>
   <g id="patch_4">
    <path d="M 245.99952 202.559296 
L 245.99952 7.2 
" style="fill: none; stroke: #000000; stroke-width: 0.8; stroke-linejoin: miter; stroke-linecap: square"/>
   </g>
   <g id="patch_5">
    <path d="M 33.707196 202.559296 
L 245.99952 202.559296 
" style="fill: none; stroke: #000000; stroke-width: 0.8; stroke-linejoin: miter; stroke-linecap: square"/>
   </g>
   <g id="patch_6">
    <path d="M 33.707196 7.2 
L 245.99952 7.2 
" style="fill: none; stroke: #000000; stroke-width: 0.8; stroke-linejoin: miter; stroke-linecap: square"/>
   </g>
   <g id="legend_1">
    <g id="patch_7">
     <path d="M 193.792605 198.059296 
L 239.69952 198.059296 
Q 241.49952 198.059296 241.49952 196.259296 
L 241.49952 156.760168 
Q 241.49952 154.960168 239.69952 154.960168 
L 193.792605 154.960168 
Q 191.992605 154.960168 191.992605 156.760168 
L 191.992605 196.259296 
Q 191.992605 198.059296 193.792605 198.059296 
z
" style="fill: #ffffff; opacity: 0.8; stroke: #cccccc; stroke-width: 0.24; stroke-linejoin: miter"/>
    </g>
    <g id="line2d_18">
     <path d="M 195.592605 162.13495 
L 204.592605 162.13495 
L 213.592605 162.13495 
" style="fill: none; stroke: #ff7f0e; stroke-width: 0.5; stroke-linecap: square"/>
    </g>
    <g id="text_16">
     <!-- $\langle \sigma_z\rangle$ -->
     <g transform="translate(220.792605 165.28495) scale(0.09 -0.09)">
      <defs>
       <path id="CMSY10-68" d="M 2099 4557 
C 2131 4627 2131 4640 2131 4672 
C 2131 4742 2074 4800 2003 4800 
C 1946 4800 1901 4768 1856 4653 
L 736 1715 
C 723 1677 704 1638 704 1600 
C 704 1581 704 1568 736 1491 
L 1856 -1446 
C 1882 -1517 1914 -1600 2003 -1600 
C 2074 -1600 2131 -1542 2131 -1472 
C 2131 -1453 2131 -1440 2099 -1370 
L 966 1600 
L 2099 4557 
z
" transform="scale(0.015625)"/>
       <path id="CMMI12-1b" d="M 3251 2408 
C 3334 2408 3546 2408 3546 2612 
C 3546 2752 3424 2752 3309 2752 
L 1894 2752 
C 934 2752 243 1686 243 932 
C 243 390 595 -64 1171 -64 
C 1926 -64 2752 747 2752 1705 
C 2752 1954 2694 2196 2541 2408 
L 3251 2408 
z
M 1178 64 
C 851 64 614 313 614 754 
C 614 1137 845 2408 1786 2408 
C 2061 2408 2368 2274 2368 1781 
C 2368 1558 2266 1021 2042 652 
C 1811 275 1466 64 1178 64 
z
" transform="scale(0.015625)"/>
       <path id="CMMI12-7a" d="M 813 486 
C 1088 803 1312 1004 1632 1296 
C 2016 1632 2182 1793 2272 1891 
C 2720 2338 2944 2713 2944 2764 
C 2944 2816 2893 2816 2880 2816 
C 2835 2816 2822 2793 2790 2750 
C 2630 2494 2477 2367 2310 2367 
C 2176 2367 2106 2421 1984 2565 
C 1850 2715 1741 2816 1555 2816 
C 1088 2816 806 2257 806 2128 
C 806 2108 813 2068 870 2068 
C 922 2068 928 2091 947 2133 
C 1056 2372 1363 2414 1485 2414 
C 1619 2414 1747 2376 1882 2327 
C 2125 2240 2227 2240 2291 2240 
C 2336 2240 2362 2240 2394 2246 
C 2182 1994 1837 1683 1549 1418 
L 902 816 
C 512 415 275 33 275 -12 
C 275 -51 307 -64 346 -64 
C 384 -64 390 -57 435 14 
C 538 163 742 384 979 384 
C 1114 384 1178 342 1306 193 
C 1427 61 1536 -64 1741 -64 
C 2368 -64 2726 732 2726 876 
C 2726 903 2720 942 2656 942 
C 2605 942 2598 917 2579 855 
C 2438 488 2061 338 1811 338 
C 1677 338 1549 376 1414 425 
C 1158 512 1088 512 1005 512 
C 941 512 870 512 813 486 
z
" transform="scale(0.015625)"/>
       <path id="CMSY10-69" d="M 1747 1491 
C 1779 1568 1779 1581 1779 1600 
C 1779 1619 1779 1632 1747 1709 
L 627 4653 
C 589 4762 550 4800 480 4800 
C 410 4800 352 4742 352 4672 
C 352 4653 352 4640 384 4570 
L 1517 1600 
L 384 -1357 
C 352 -1427 352 -1440 352 -1472 
C 352 -1542 410 -1600 480 -1600 
C 563 -1600 589 -1536 614 -1472 
L 1747 1491 
z
" transform="scale(0.015625)"/>
      </defs>
      <use xlink:href="#CMSY10-68" transform="scale(0.996264)"/>
      <use xlink:href="#CMMI12-1b" transform="translate(38.743734 0) scale(0.996264)"/>
      <use xlink:href="#CMMI12-7a" transform="translate(94.189195 -14.943915) scale(0.697382)"/>
      <use xlink:href="#CMSY10-69" transform="translate(129.51575 0) scale(0.996264)"/>
     </g>
    </g>
    <g id="line2d_19">
     <path d="M 195.592605 175.601326 
L 204.592605 175.601326 
L 213.592605 175.601326 
" style="fill: none; stroke: #2ca02c; stroke-width: 0.5; stroke-linecap: square"/>
    </g>
    <g id="text_17">
     <!-- $\langle \sigma_x\rangle$ -->
     <g transform="translate(220.792605 178.751326) scale(0.09 -0.09)">
      <defs>
       <path id="CMMI12-78" d="M 3034 2606 
C 2829 2567 2752 2414 2752 2293 
C 2752 2139 2874 2088 2963 2088 
C 3155 2088 3290 2254 3290 2427 
C 3290 2695 2982 2816 2714 2816 
C 2323 2816 2106 2433 2048 2312 
C 1901 2816 1504 2816 1389 2816 
C 736 2816 390 1980 390 1839 
C 390 1814 416 1782 461 1782 
C 512 1782 525 1820 538 1846 
C 755 2555 1184 2689 1370 2689 
C 1658 2689 1715 2420 1715 2267 
C 1715 2127 1677 1980 1600 1673 
L 1382 798 
C 1286 415 1101 64 762 64 
C 730 64 570 64 435 147 
C 666 192 717 383 717 460 
C 717 588 621 664 499 664 
C 346 664 179 530 179 326 
C 179 57 480 -64 755 -64 
C 1062 -64 1280 179 1414 441 
C 1517 64 1837 -64 2074 -64 
C 2726 -64 3072 773 3072 913 
C 3072 945 3046 971 3008 971 
C 2950 971 2944 939 2925 888 
C 2752 326 2381 64 2093 64 
C 1869 64 1747 230 1747 492 
C 1747 632 1773 734 1875 1156 
L 2099 2024 
C 2195 2408 2413 2689 2707 2689 
C 2720 2689 2899 2689 3034 2606 
z
" transform="scale(0.015625)"/>
      </defs>
      <use xlink:href="#CMSY10-68" transform="scale(0.996264)"/>
      <use xlink:href="#CMMI12-1b" transform="translate(38.743734 0) scale(0.996264)"/>
      <use xlink:href="#CMMI12-78" transform="translate(94.189195 -14.943915) scale(0.697382)"/>
      <use xlink:href="#CMSY10-69" transform="translate(133.490986 0) scale(0.996264)"/>
     </g>
    </g>
    <g id="line2d_20">
     <path d="M 195.592605 189.067702 
L 204.592605 189.067702 
L 213.592605 189.067702 
" style="fill: none; stroke: #d62728; stroke-width: 0.5; stroke-linecap: square"/>
    </g>
    <g id="text_18">
     <!-- $\langle \sigma_y\rangle$ -->
     <g transform="translate(220.792605 192.217702) scale(0.09 -0.09)">
      <defs>
       <path id="CMMI12-79" d="M 1683 -700 
C 1510 -939 1261 -1152 947 -1152 
C 870 -1152 563 -1152 467 -889 
C 486 -895 518 -895 531 -895 
C 723 -895 851 -729 851 -582 
C 851 -435 730 -384 634 -384 
C 531 -384 307 -458 307 -759 
C 307 -1071 582 -1286 947 -1286 
C 1587 -1286 2234 -700 2413 6 
L 3040 2485 
C 3046 2517 3059 2556 3059 2594 
C 3059 2689 2982 2753 2886 2753 
C 2829 2753 2694 2727 2643 2535 
L 2170 658 
C 2138 543 2138 530 2086 460 
C 1958 281 1747 64 1440 64 
C 1082 64 1050 415 1050 588 
C 1050 952 1222 1443 1395 1903 
C 1466 2088 1504 2178 1504 2305 
C 1504 2574 1312 2816 998 2816 
C 410 2816 173 1890 173 1839 
C 173 1814 198 1782 243 1782 
C 301 1782 307 1807 333 1897 
C 486 2433 730 2689 979 2689 
C 1037 2689 1146 2689 1146 2478 
C 1146 2312 1075 2127 979 1884 
C 666 1047 666 837 666 683 
C 666 77 1101 -64 1421 -64 
C 1606 -64 1837 -6 2061 230 
L 2067 224 
C 1971 -147 1907 -392 1683 -700 
z
" transform="scale(0.015625)"/>
      </defs>
      <use xlink:href="#CMSY10-68" transform="scale(0.996264)"/>
      <use xlink:href="#CMMI12-1b" transform="translate(38.743734 0) scale(0.996264)"/>
      <use xlink:href="#CMMI12-79" transform="translate(94.189195 -14.943915) scale(0.697382)"/>
      <use xlink:href="#CMSY10-69" transform="translate(130.484301 0) scale(0.996264)"/>
     </g>
    </g>
   </g>
  </g>
 </g>
 <defs>
  <clipPath id="p3c3dc031db">
   <rect x="33.707196" y="7.2" width="212.292324" height="195.359296"/>
  </clipPath>
 </defs>
</svg>
