<?xml version="1.0" encoding="utf-8" standalone="no"?>
<!DOCTYPE svg PUBLIC "-//W3C//DTD SVG 1.1//EN"
  "http://www.w3.org/Graphics/SVG/1.1/DTD/svg11.dtd">
<svg xmlns:xlink="http://www.w3.org/1999/xlink" width="253.19952pt" height="238.79952pt" viewBox="0 0 253.19952 238.79952" xmlns="http://www.w3.org/2000/svg" version="1.1">
 <metadata>
  <rdf:RDF xmlns:dc="http://purl.org/dc/elements/1.1/" xmlns:cc="http://creativecommons.org/ns#" xmlns:rdf="http://www.w3.org/1999/02/22-rdf-syntax-ns#">
   <cc:Work>
    <dc:type rdf:resource="http://purl.org/dc/dcmitype/StillImage"/>
    <dc:date>1980-01-01T00:00:00+00:00</dc:date>
    <dc:format>image/svg+xml</dc:format>
    <dc:creator>
     <cc:Agent>
      <dc:title>Matplotlib v3.6.2, https://matplotlib.org/</dc:title>
     </cc:Agent>
    </dc:creator>
   </cc:Work>
  </rdf:RDF>
 </metadata>
 <defs>
  <style type="text/css">*{stroke-linejoin: round; stroke-linecap: butt}</style>
 </defs>
 <g id="figure_1">
  <g id="patch_1">
   <path d="M 0 238.79952 
L 253.19952 238.79952 
L 253.19952 0 
L 0 0 
z
" style="fill: #ffffff"/>
  </g>
  <g id="axes_1">
   <g id="patch_2">
    <path d="M 33.707196 202.559296 
L 245.99952 202.559296 
L 245.99952 7.2 
L 33.707196 7.2 
z
" style="fill: #ffffff"/>
   </g>
   <g id="matplotlib.axis_1">
    <g id="xtick_1">
     <g id="line2d_1">
      <defs>
       <path id="mbeb15f992b" d="M 0 0 
L 0 3.5 
" style="stroke: #000000; stroke-width: 0.8"/>
      </defs>
      <g>
       <use xlink:href="#mbeb15f992b" x="43.356847" y="202.559296" style="stroke: #000000; stroke-width: 0.8"/>
      </g>
     </g>
     <g id="text_1">
      <!-- $\mathdefault{0}$ -->
      <g transform="translate(41.239756 217.194098) scale(0.08 -0.08)">
       <defs>
        <path id="CMR17-30" d="M 2688 2025 
C 2688 2416 2682 3080 2413 3591 
C 2176 4039 1798 4198 1466 4198 
C 1158 4198 768 4058 525 3597 
C 269 3118 243 2524 243 2025 
C 243 1661 250 1106 448 619 
C 723 -39 1216 -128 1466 -128 
C 1760 -128 2208 -7 2470 600 
C 2662 1042 2688 1559 2688 2025 
z
M 1466 -26 
C 1056 -26 813 325 723 812 
C 653 1188 653 1738 653 2096 
C 653 2588 653 2997 736 3387 
C 858 3929 1216 4096 1466 4096 
C 1728 4096 2067 3923 2189 3400 
C 2272 3036 2278 2607 2278 2096 
C 2278 1680 2278 1169 2202 792 
C 2067 95 1690 -26 1466 -26 
z
" transform="scale(0.015625)"/>
       </defs>
       <use xlink:href="#CMR17-30" transform="scale(0.996264)"/>
      </g>
     </g>
    </g>
    <g id="xtick_2">
     <g id="line2d_2">
      <g>
       <use xlink:href="#mbeb15f992b" x="70.161434" y="202.559296" style="stroke: #000000; stroke-width: 0.8"/>
      </g>
     </g>
     <g id="text_2">
      <!-- $\mathdefault{25}$ -->
      <g transform="translate(65.927251 217.194098) scale(0.08 -0.08)">
       <defs>
        <path id="CMR17-32" d="M 2669 989 
L 2554 989 
C 2490 536 2438 459 2413 420 
C 2381 369 1920 369 1830 369 
L 602 369 
C 832 619 1280 1072 1824 1597 
C 2214 1967 2669 2402 2669 3035 
C 2669 3790 2067 4224 1395 4224 
C 691 4224 262 3604 262 3030 
C 262 2780 448 2748 525 2748 
C 589 2748 781 2787 781 3010 
C 781 3207 614 3264 525 3264 
C 486 3264 448 3258 422 3245 
C 544 3790 915 4058 1306 4058 
C 1862 4058 2227 3617 2227 3035 
C 2227 2479 1901 2000 1536 1584 
L 262 146 
L 262 0 
L 2515 0 
L 2669 989 
z
" transform="scale(0.015625)"/>
        <path id="CMR17-35" d="M 730 3692 
C 794 3666 1056 3584 1325 3584 
C 1920 3584 2246 3911 2432 4100 
C 2432 4157 2432 4192 2394 4192 
C 2387 4192 2374 4192 2323 4163 
C 2099 4058 1837 3973 1517 3973 
C 1325 3973 1037 3999 723 4139 
C 653 4171 640 4171 634 4171 
C 602 4171 595 4164 595 4037 
L 595 2203 
C 595 2089 595 2057 659 2057 
C 691 2057 704 2070 736 2114 
C 941 2401 1222 2522 1542 2522 
C 1766 2522 2246 2382 2246 1289 
C 2246 1085 2246 715 2054 421 
C 1894 159 1645 25 1370 25 
C 947 25 518 320 403 814 
C 429 807 480 795 506 795 
C 589 795 749 840 749 1038 
C 749 1210 627 1280 506 1280 
C 358 1280 262 1190 262 1011 
C 262 454 704 -128 1382 -128 
C 2042 -128 2669 440 2669 1264 
C 2669 2030 2170 2624 1549 2624 
C 1222 2624 947 2503 730 2274 
L 730 3692 
z
" transform="scale(0.015625)"/>
       </defs>
       <use xlink:href="#CMR17-32" transform="scale(0.996264)"/>
       <use xlink:href="#CMR17-35" transform="translate(45.690477 0) scale(0.996264)"/>
      </g>
     </g>
    </g>
    <g id="xtick_3">
     <g id="line2d_3">
      <g>
       <use xlink:href="#mbeb15f992b" x="96.96602" y="202.559296" style="stroke: #000000; stroke-width: 0.8"/>
      </g>
     </g>
     <g id="text_3">
      <!-- $\mathdefault{50}$ -->
      <g transform="translate(92.731837 217.194098) scale(0.08 -0.08)">
       <use xlink:href="#CMR17-35" transform="scale(0.996264)"/>
       <use xlink:href="#CMR17-30" transform="translate(45.690477 0) scale(0.996264)"/>
      </g>
     </g>
    </g>
    <g id="xtick_4">
     <g id="line2d_4">
      <g>
       <use xlink:href="#mbeb15f992b" x="123.770606" y="202.559296" style="stroke: #000000; stroke-width: 0.8"/>
      </g>
     </g>
     <g id="text_4">
      <!-- $\mathdefault{75}$ -->
      <g transform="translate(119.536423 217.194098) scale(0.08 -0.08)">
       <defs>
        <path id="CMR17-37" d="M 2886 3941 
L 2886 4081 
L 1382 4081 
C 634 4081 621 4165 595 4288 
L 480 4288 
L 294 3094 
L 410 3094 
C 429 3215 474 3540 550 3661 
C 589 3712 1062 3712 1171 3712 
L 2579 3712 
L 1869 2661 
C 1395 1954 1069 999 1069 165 
C 1069 89 1069 -128 1299 -128 
C 1530 -128 1530 89 1530 171 
L 1530 465 
C 1530 1508 1709 2196 2003 2636 
L 2886 3941 
z
" transform="scale(0.015625)"/>
       </defs>
       <use xlink:href="#CMR17-37" transform="scale(0.996264)"/>
       <use xlink:href="#CMR17-35" transform="translate(45.690477 0) scale(0.996264)"/>
      </g>
     </g>
    </g>
    <g id="xtick_5">
     <g id="line2d_5">
      <g>
       <use xlink:href="#mbeb15f992b" x="150.575193" y="202.559296" style="stroke: #000000; stroke-width: 0.8"/>
      </g>
     </g>
     <g id="text_5">
      <!-- $\mathdefault{100}$ -->
      <g transform="translate(144.223918 217.194098) scale(0.08 -0.08)">
       <defs>
        <path id="CMR17-31" d="M 1702 4058 
C 1702 4192 1696 4192 1606 4192 
C 1357 3916 979 3827 621 3827 
C 602 3827 570 3827 563 3808 
C 557 3795 557 3782 557 3648 
C 755 3648 1088 3686 1344 3839 
L 1344 461 
C 1344 236 1331 160 781 160 
L 589 160 
L 589 0 
C 896 0 1216 0 1523 0 
C 1830 0 2150 0 2458 0 
L 2458 160 
L 2266 160 
C 1715 160 1702 230 1702 458 
L 1702 4058 
z
" transform="scale(0.015625)"/>
       </defs>
       <use xlink:href="#CMR17-31" transform="scale(0.996264)"/>
       <use xlink:href="#CMR17-30" transform="translate(45.690477 0) scale(0.996264)"/>
       <use xlink:href="#CMR17-30" transform="translate(91.380954 0) scale(0.996264)"/>
      </g>
     </g>
    </g>
    <g id="xtick_6">
     <g id="line2d_6">
      <g>
       <use xlink:href="#mbeb15f992b" x="177.379779" y="202.559296" style="stroke: #000000; stroke-width: 0.8"/>
      </g>
     </g>
     <g id="text_6">
      <!-- $\mathdefault{125}$ -->
      <g transform="translate(171.028505 217.194098) scale(0.08 -0.08)">
       <use xlink:href="#CMR17-31" transform="scale(0.996264)"/>
       <use xlink:href="#CMR17-32" transform="translate(45.690477 0) scale(0.996264)"/>
       <use xlink:href="#CMR17-35" transform="translate(91.380954 0) scale(0.996264)"/>
      </g>
     </g>
    </g>
    <g id="xtick_7">
     <g id="line2d_7">
      <g>
       <use xlink:href="#mbeb15f992b" x="204.184365" y="202.559296" style="stroke: #000000; stroke-width: 0.8"/>
      </g>
     </g>
     <g id="text_7">
      <!-- $\mathdefault{150}$ -->
      <g transform="translate(197.833091 217.194098) scale(0.08 -0.08)">
       <use xlink:href="#CMR17-31" transform="scale(0.996264)"/>
       <use xlink:href="#CMR17-35" transform="translate(45.690477 0) scale(0.996264)"/>
       <use xlink:href="#CMR17-30" transform="translate(91.380954 0) scale(0.996264)"/>
      </g>
     </g>
    </g>
    <g id="xtick_8">
     <g id="line2d_8">
      <g>
       <use xlink:href="#mbeb15f992b" x="230.988952" y="202.559296" style="stroke: #000000; stroke-width: 0.8"/>
      </g>
     </g>
     <g id="text_8">
      <!-- $\mathdefault{175}$ -->
      <g transform="translate(224.637677 217.194098) scale(0.08 -0.08)">
       <use xlink:href="#CMR17-31" transform="scale(0.996264)"/>
       <use xlink:href="#CMR17-37" transform="translate(45.690477 0) scale(0.996264)"/>
       <use xlink:href="#CMR17-35" transform="translate(91.380954 0) scale(0.996264)"/>
      </g>
     </g>
    </g>
    <g id="text_9">
     <!-- $\tau$ -->
     <g transform="translate(137.675756 229.662342) scale(0.1 -0.1)">
      <defs>
       <path id="CMMI12-1c" d="M 1837 2408 
L 2899 2408 
C 2982 2408 3194 2408 3194 2612 
C 3194 2752 3072 2752 2957 2752 
L 1197 2752 
C 1050 2752 832 2752 538 2440 
C 371 2255 166 1917 166 1879 
C 166 1841 198 1828 237 1828 
C 282 1828 288 1847 320 1885 
C 653 2408 986 2408 1146 2408 
L 1677 2408 
L 1011 223 
C 979 127 979 114 979 95 
C 979 25 1024 -64 1152 -64 
C 1350 -64 1382 108 1402 203 
L 1837 2408 
z
" transform="scale(0.015625)"/>
      </defs>
      <use xlink:href="#CMMI12-1c" transform="scale(0.996264)"/>
     </g>
    </g>
   </g>
   <g id="matplotlib.axis_2">
    <g id="ytick_1">
     <g id="line2d_9">
      <defs>
       <path id="m47ce165a56" d="M 0 0 
L -3.5 0 
" style="stroke: #000000; stroke-width: 0.8"/>
      </defs>
      <g>
       <use xlink:href="#m47ce165a56" x="33.707196" y="193.679328" style="stroke: #000000; stroke-width: 0.8"/>
      </g>
     </g>
     <g id="text_10">
      <!-- $\mathdefault{−1.0}$ -->
      <g transform="translate(7.2 196.446729) scale(0.08 -0.08)">
       <defs>
        <path id="CMSY10-0" d="M 4218 1472 
C 4326 1472 4442 1472 4442 1600 
C 4442 1728 4326 1728 4218 1728 
L 755 1728 
C 646 1728 531 1728 531 1600 
C 531 1472 646 1472 755 1472 
L 4218 1472 
z
" transform="scale(0.015625)"/>
        <path id="CMMI12-3a" d="M 1178 307 
C 1178 492 1024 619 870 619 
C 685 619 557 466 557 313 
C 557 128 710 0 864 0 
C 1050 0 1178 153 1178 307 
z
" transform="scale(0.015625)"/>
       </defs>
       <use xlink:href="#CMSY10-0" transform="scale(0.996264)"/>
       <use xlink:href="#CMR17-31" transform="translate(77.487468 0) scale(0.996264)"/>
       <use xlink:href="#CMMI12-3a" transform="translate(123.177945 0) scale(0.996264)"/>
       <use xlink:href="#CMR17-30" transform="translate(150.275122 0) scale(0.996264)"/>
      </g>
     </g>
    </g>
    <g id="ytick_2">
     <g id="line2d_10">
      <g>
       <use xlink:href="#m47ce165a56" x="33.707196" y="158.438618" style="stroke: #000000; stroke-width: 0.8"/>
      </g>
     </g>
     <g id="text_11">
      <!-- $\mathdefault{−0.8}$ -->
      <g transform="translate(7.2 161.206019) scale(0.08 -0.08)">
       <defs>
        <path id="CMR17-38" d="M 1741 2264 
C 2144 2467 2554 2773 2554 3263 
C 2554 3841 1990 4179 1472 4179 
C 890 4179 378 3759 378 3180 
C 378 3021 416 2747 666 2505 
C 730 2442 998 2251 1171 2130 
C 883 1983 211 1634 211 934 
C 211 279 838 -128 1459 -128 
C 2144 -128 2720 362 2720 1010 
C 2720 1590 2330 1857 2074 2029 
L 1741 2264 
z
M 902 2822 
C 851 2854 595 3051 595 3351 
C 595 3739 998 4032 1459 4032 
C 1965 4032 2336 3676 2336 3262 
C 2336 2669 1670 2331 1638 2331 
C 1632 2331 1626 2331 1574 2370 
L 902 2822 
z
M 2080 1519 
C 2176 1449 2483 1240 2483 851 
C 2483 381 2010 25 1472 25 
C 890 25 448 438 448 940 
C 448 1443 838 1862 1280 2060 
L 2080 1519 
z
" transform="scale(0.015625)"/>
       </defs>
       <use xlink:href="#CMSY10-0" transform="scale(0.996264)"/>
       <use xlink:href="#CMR17-30" transform="translate(77.487468 0) scale(0.996264)"/>
       <use xlink:href="#CMMI12-3a" transform="translate(123.177945 0) scale(0.996264)"/>
       <use xlink:href="#CMR17-38" transform="translate(150.275122 0) scale(0.996264)"/>
      </g>
     </g>
    </g>
    <g id="ytick_3">
     <g id="line2d_11">
      <g>
       <use xlink:href="#m47ce165a56" x="33.707196" y="123.197908" style="stroke: #000000; stroke-width: 0.8"/>
      </g>
     </g>
     <g id="text_12">
      <!-- $\mathdefault{−0.6}$ -->
      <g transform="translate(7.2 125.965309) scale(0.08 -0.08)">
       <defs>
        <path id="CMR17-36" d="M 678 2176 
C 678 3690 1395 4032 1811 4032 
C 1946 4032 2272 4009 2400 3776 
C 2298 3776 2106 3776 2106 3553 
C 2106 3381 2246 3323 2336 3323 
C 2394 3323 2566 3348 2566 3560 
C 2566 3954 2246 4179 1805 4179 
C 1043 4179 243 3390 243 1984 
C 243 253 966 -128 1478 -128 
C 2099 -128 2688 427 2688 1283 
C 2688 2081 2170 2662 1517 2662 
C 1126 2662 838 2407 678 1960 
L 678 2176 
z
M 1478 25 
C 691 25 691 1200 691 1436 
C 691 1896 909 2560 1504 2560 
C 1613 2560 1926 2560 2138 2120 
C 2253 1870 2253 1609 2253 1289 
C 2253 944 2253 690 2118 434 
C 1978 171 1773 25 1478 25 
z
" transform="scale(0.015625)"/>
       </defs>
       <use xlink:href="#CMSY10-0" transform="scale(0.996264)"/>
       <use xlink:href="#CMR17-30" transform="translate(77.487468 0) scale(0.996264)"/>
       <use xlink:href="#CMMI12-3a" transform="translate(123.177945 0) scale(0.996264)"/>
       <use xlink:href="#CMR17-36" transform="translate(150.275122 0) scale(0.996264)"/>
      </g>
     </g>
    </g>
    <g id="ytick_4">
     <g id="line2d_12">
      <g>
       <use xlink:href="#m47ce165a56" x="33.707196" y="87.957198" style="stroke: #000000; stroke-width: 0.8"/>
      </g>
     </g>
     <g id="text_13">
      <!-- $\mathdefault{−0.4}$ -->
      <g transform="translate(7.2 90.724599) scale(0.08 -0.08)">
       <defs>
        <path id="CMR17-34" d="M 2150 4122 
C 2150 4256 2144 4256 2029 4256 
L 128 1254 
L 128 1088 
L 1779 1088 
L 1779 457 
C 1779 224 1766 160 1318 160 
L 1197 160 
L 1197 0 
C 1402 0 1747 0 1965 0 
C 2182 0 2528 0 2733 0 
L 2733 160 
L 2611 160 
C 2163 160 2150 224 2150 457 
L 2150 1088 
L 2803 1088 
L 2803 1254 
L 2150 1254 
L 2150 4122 
z
M 1798 3703 
L 1798 1254 
L 256 1254 
L 1798 3703 
z
" transform="scale(0.015625)"/>
       </defs>
       <use xlink:href="#CMSY10-0" transform="scale(0.996264)"/>
       <use xlink:href="#CMR17-30" transform="translate(77.487468 0) scale(0.996264)"/>
       <use xlink:href="#CMMI12-3a" transform="translate(123.177945 0) scale(0.996264)"/>
       <use xlink:href="#CMR17-34" transform="translate(150.275122 0) scale(0.996264)"/>
      </g>
     </g>
    </g>
    <g id="ytick_5">
     <g id="line2d_13">
      <g>
       <use xlink:href="#m47ce165a56" x="33.707196" y="52.716489" style="stroke: #000000; stroke-width: 0.8"/>
      </g>
     </g>
     <g id="text_14">
      <!-- $\mathdefault{−0.2}$ -->
      <g transform="translate(7.2 55.48389) scale(0.08 -0.08)">
       <use xlink:href="#CMSY10-0" transform="scale(0.996264)"/>
       <use xlink:href="#CMR17-30" transform="translate(77.487468 0) scale(0.996264)"/>
       <use xlink:href="#CMMI12-3a" transform="translate(123.177945 0) scale(0.996264)"/>
       <use xlink:href="#CMR17-32" transform="translate(150.275122 0) scale(0.996264)"/>
      </g>
     </g>
    </g>
    <g id="ytick_6">
     <g id="line2d_14">
      <g>
       <use xlink:href="#m47ce165a56" x="33.707196" y="17.475779" style="stroke: #000000; stroke-width: 0.8"/>
      </g>
     </g>
     <g id="text_15">
      <!-- $\mathdefault{0.0}$ -->
      <g transform="translate(13.786507 20.24318) scale(0.08 -0.08)">
       <use xlink:href="#CMR17-30" transform="scale(0.996264)"/>
       <use xlink:href="#CMMI12-3a" transform="translate(45.690477 0) scale(0.996264)"/>
       <use xlink:href="#CMR17-30" transform="translate(72.787654 0) scale(0.996264)"/>
      </g>
     </g>
    </g>
   </g>
   <g id="line2d_15">
    <path d="M 43.356847 193.679328 
L 52.684843 193.568677 
L 53.006498 193.30422 
L 53.328153 192.675947 
L 53.649808 191.421006 
L 53.971463 189.227287 
L 54.357449 184.951963 
L 54.807767 177.394413 
L 55.515408 161.134295 
L 57.188014 122.415812 
L 58.024317 107.724208 
L 58.731958 98.767764 
L 59.375268 93.024988 
L 61.369529 79.294362 
L 63.106466 71.929011 
L 64.907735 67.452463 
L 65.422383 66.938851 
L 65.937031 65.875767 
L 66.451679 65.035171 
L 67.030658 64.458471 
L 67.995623 63.670498 
L 68.510271 63.03615 
L 68.896257 63.035929 
L 69.282243 62.930696 
L 69.73256 62.757199 
L 69.925553 62.936631 
L 70.247208 63.669339 
L 70.954849 65.341095 
L 72.3058 68.187651 
L 73.013442 69.527235 
L 73.592421 70.151123 
L 74.107069 70.375012 
L 74.943372 70.427209 
L 86.394291 70.536765 
L 86.780277 70.840414 
L 87.166263 71.485213 
L 87.552249 72.695867 
L 88.002566 74.997627 
L 88.517214 78.98728 
L 89.160524 85.881765 
L 92.248413 122.403654 
L 93.149047 129.129135 
L 93.98535 133.77084 
L 95.27197 139.227975 
L 96.365597 142.739542 
L 97.073238 144.171055 
L 98.102534 145.712446 
L 99.324824 146.578655 
L 99.968134 147.043358 
L 101.447747 148.66668 
L 101.898064 149.63184 
L 102.412712 151.331139 
L 103.056022 154.311094 
L 104.792959 162.827301 
L 105.371938 164.433206 
L 105.822255 165.108544 
L 106.272572 165.434177 
L 106.851551 165.559545 
L 108.845813 165.572753 
L 117.080182 165.480715 
L 117.401837 165.222409 
L 117.723492 164.598948 
L 118.045147 163.371988 
L 118.431133 160.733607 
L 118.88145 155.688672 
L 119.460429 146.303885 
L 122.098 99.215879 
L 122.934303 90.480966 
L 123.641944 84.770971 
L 124.478247 79.917658 
L 125.764867 74.039923 
L 126.794164 70.510168 
L 127.630467 68.797293 
L 128.145115 68.047357 
L 128.788425 66.417968 
L 129.238742 65.491092 
L 129.624728 65.119294 
L 130.332369 64.745181 
L 130.654024 64.146983 
L 131.297334 62.886302 
L 131.876313 62.455208 
L 132.455292 62.279252 
L 132.841278 62.057721 
L 133.355926 61.755927 
L 133.677581 61.858946 
L 134.513884 62.438759 
L 134.899871 63.154236 
L 136.76547 67.270126 
L 137.537442 68.603105 
L 137.987759 68.934664 
L 138.631069 69.087791 
L 140.046351 69.117944 
L 150.725298 69.218299 
L 151.111284 69.498778 
L 151.432939 70.001446 
L 151.818925 71.105231 
L 152.269242 73.292452 
L 152.783891 77.142694 
L 153.491532 84.56311 
L 154.842483 102.133079 
L 156.064772 116.545512 
L 156.901075 124.180669 
L 157.801709 130.516635 
L 158.638012 135.087911 
L 159.474315 138.279158 
L 160.567942 141.633009 
L 161.404245 143.692528 
L 162.30488 145.267699 
L 163.334176 146.432268 
L 164.170479 147.209941 
L 165.457099 148.140754 
L 165.971747 148.960844 
L 166.422064 150.081232 
L 166.936712 152.015297 
L 167.708684 155.936631 
L 168.866642 161.627889 
L 169.509952 163.720219 
L 170.0246 164.694223 
L 170.474918 165.112201 
L 170.989566 165.286847 
L 172.018862 165.321324 
L 181.346858 165.221516 
L 181.668513 164.995298 
L 181.990168 164.467064 
L 182.311823 163.416748 
L 182.633478 161.594528 
L 183.019464 158.08206 
L 183.534112 150.859488 
L 184.370415 134.884244 
L 185.657035 111.073313 
L 186.879324 93.438337 
L 187.458303 88.440786 
L 188.423269 82.291443 
L 190.41753 72.723846 
L 191.446826 70.246522 
L 193.698411 65.236394 
L 194.084397 64.939537 
L 194.534714 64.62703 
L 195.435348 63.791599 
L 195.821334 63.322726 
L 196.528975 62.182488 
L 196.914961 62.203815 
L 197.236617 62.097038 
L 197.879927 61.754801 
L 198.201582 61.875095 
L 198.587568 62.28571 
L 199.102216 63.238654 
L 200.967815 67.415362 
L 201.611125 68.457977 
L 202.125773 68.89396 
L 202.833414 69.153498 
L 203.734048 69.204782 
L 214.991975 69.312979 
L 215.377961 69.558278 
L 215.763947 70.157899 
L 216.149933 71.233373 
L 216.535919 72.997367 
L 216.986236 76.117612 
L 217.565215 81.756857 
L 218.465849 92.965777 
L 219.945462 111.325134 
L 220.974758 121.943949 
L 221.875392 128.752423 
L 222.711695 133.724829 
L 223.67666 138.033371 
L 224.512964 140.781942 
L 225.54226 143.359585 
L 226.442894 144.865703 
L 227.343528 146.105625 
L 228.887472 147.567528 
L 230.109761 148.577571 
L 230.560078 149.513052 
L 231.074726 151.166749 
L 231.718036 154.08621 
L 233.519305 162.590893 
L 234.098284 164.124502 
L 234.548601 164.770281 
L 234.998918 165.062693 
L 235.577897 165.16947 
L 236.349869 165.17855 
L 236.349869 165.17855 
" clip-path="url(#pe18dd09787)" style="fill: none; stroke: #ff7f0e; stroke-width: 0.5; stroke-linecap: square"/>
   </g>
   <g id="line2d_16">
    <path d="M 43.356847 17.475779 
L 53.328153 17.369175 
L 54.550442 17.267004 
L 57.059352 17.299537 
L 57.702662 17.418624 
L 58.088648 17.806956 
L 58.667627 18.461323 
L 58.924951 18.480238 
L 59.182275 18.232693 
L 59.889916 17.286769 
L 60.211571 17.307992 
L 61.43386 17.704344 
L 62.72048 17.0721 
L 63.36379 17.188496 
L 64.007101 17.307573 
L 64.521749 17.141262 
L 65.615376 16.72361 
L 65.937031 16.882019 
L 66.387348 17.068291 
L 67.030658 16.978885 
L 67.480975 16.670877 
L 68.252947 16.079968 
L 68.510271 16.183203 
L 68.960588 16.700584 
L 69.603898 17.415659 
L 69.989884 17.504156 
L 71.469497 17.299241 
L 72.177138 17.050008 
L 72.563125 17.167416 
L 73.978407 17.92117 
L 74.364393 17.755322 
L 75.586682 17.028213 
L 75.972668 17.150447 
L 77.38795 17.913701 
L 77.838267 17.718597 
L 79.060556 17.035902 
L 79.575204 17.091177 
L 80.347176 17.452582 
L 81.312142 17.855778 
L 82.019783 17.919036 
L 82.791755 17.763563 
L 85.364995 17.012926 
L 86.32996 17.137937 
L 86.908939 17.395314 
L 88.195559 18.033617 
L 89.224855 18.3121 
L 89.54651 18.128232 
L 90.7688 17.100374 
L 91.347779 16.996875 
L 91.862427 17.244368 
L 93.34204 18.066878 
L 94.049681 18.229113 
L 94.499998 18.121993 
L 95.143308 17.673809 
L 95.91528 17.093808 
L 96.365597 17.064867 
L 97.073238 17.033404 
L 97.587886 17.126364 
L 98.552851 17.26059 
L 99.003168 17.153176 
L 99.968134 16.772682 
L 100.547113 16.704702 
L 101.447747 16.551034 
L 102.219719 16.761773 
L 105.307607 17.849389 
L 106.079579 17.773647 
L 107.237537 17.378451 
L 108.331165 17.08163 
L 109.103137 17.097901 
L 109.93944 17.355136 
L 111.419053 17.889014 
L 111.933701 17.802056 
L 112.577011 17.437097 
L 113.284652 17.0782 
L 113.734969 17.114851 
L 114.249617 17.426091 
L 115.021589 17.876296 
L 115.407575 17.846733 
L 115.922223 17.537618 
L 116.629864 17.103017 
L 117.015851 17.110411 
L 117.466168 17.376725 
L 118.495464 18.094703 
L 118.945781 18.095355 
L 119.396098 17.832746 
L 120.103739 17.318326 
L 120.489725 17.339283 
L 121.840676 17.623702 
L 122.290993 17.440418 
L 122.934303 17.006622 
L 123.191627 17.148425 
L 124.156592 18.030801 
L 124.542578 17.769097 
L 125.700536 16.872995 
L 126.279516 16.995649 
L 126.729833 17.293871 
L 127.373143 17.80854 
L 127.694798 17.752887 
L 129.174411 17.172606 
L 129.882052 17.598411 
L 130.332369 17.766783 
L 130.718355 17.696188 
L 131.168672 17.382092 
L 131.618989 17.115169 
L 131.940644 17.168516 
L 132.841278 17.549236 
L 133.61325 17.189245 
L 134.127898 17.243533 
L 135.157195 17.41151 
L 135.929167 17.274741 
L 136.443815 17.220705 
L 137.022794 17.467201 
L 137.794766 17.786292 
L 138.245083 17.758087 
L 138.824062 17.473968 
L 139.531703 17.157658 
L 139.98202 17.203849 
L 140.689661 17.585359 
L 141.26864 17.799407 
L 141.718957 17.737532 
L 143.520225 17.178105 
L 144.356529 17.472704 
L 145.385825 17.778995 
L 146.222128 17.770409 
L 147.315755 17.502663 
L 148.795368 17.156248 
L 149.760333 17.195031 
L 153.491532 17.588364 
L 154.456497 17.404577 
L 156.000441 16.678361 
L 156.57942 16.803203 
L 157.287061 17.219336 
L 157.930371 17.547269 
L 159.345653 18.121456 
L 159.860301 18.260446 
L 160.374949 18.120758 
L 161.275583 17.870203 
L 161.725901 17.701546 
L 162.690866 17.208972 
L 163.655831 16.807621 
L 164.492134 17.00733 
L 165.52143 17.175525 
L 167.515691 17.342996 
L 168.287663 17.339136 
L 169.767276 17.144861 
L 170.796573 17.344398 
L 172.726503 17.774929 
L 173.627137 17.715869 
L 174.720764 17.397761 
L 175.685729 17.172274 
L 176.329039 17.266044 
L 178.001645 17.750488 
L 178.580624 17.496222 
L 179.352597 17.176986 
L 179.802914 17.23 
L 180.574886 17.624678 
L 181.153865 17.79362 
L 181.668513 17.686688 
L 182.955133 17.278905 
L 183.598443 17.36769 
L 184.499077 17.524393 
L 184.820732 17.363385 
L 185.464042 16.944627 
L 186.364676 16.883229 
L 186.814993 16.92485 
L 187.393972 17.280016 
L 187.972951 17.550087 
L 188.358938 17.470909 
L 189.516896 17.040901 
L 189.77422 17.227343 
L 190.160206 17.869863 
L 190.610523 18.484187 
L 190.803516 18.489973 
L 191.06084 18.239206 
L 192.090136 16.761025 
L 192.34746 16.880044 
L 192.733446 17.413868 
L 193.183763 17.97722 
L 193.441087 17.955935 
L 193.762742 17.647304 
L 194.470383 16.864572 
L 194.727707 16.877317 
L 194.985031 17.156688 
L 196.078658 18.802708 
L 196.335982 18.591541 
L 196.786299 17.774093 
L 197.300948 16.92346 
L 197.493941 16.963839 
L 197.751265 17.319468 
L 198.458906 18.449463 
L 198.844892 18.669361 
L 199.166547 18.609281 
L 199.552533 18.277631 
L 200.517498 17.2618 
L 200.774822 17.321183 
L 201.160808 17.698747 
L 201.804118 18.32658 
L 202.125773 18.315655 
L 202.447428 18.038808 
L 203.669717 16.650345 
L 203.927041 16.735946 
L 204.313027 17.161205 
L 205.14933 18.234455 
L 205.470985 18.286993 
L 205.79264 18.06718 
L 206.435951 17.201687 
L 206.950599 16.705348 
L 207.272254 16.659142 
L 207.65824 16.86464 
L 208.365881 17.60872 
L 209.009191 18.156871 
L 209.523839 18.301317 
L 210.038487 18.188086 
L 210.746128 17.753626 
L 212.225741 16.76199 
L 212.80472 16.650482 
L 213.383699 16.774316 
L 214.155671 17.225339 
L 215.699616 18.141015 
L 216.342926 18.182817 
L 216.857574 17.995824 
L 217.436553 17.524105 
L 218.144194 16.96848 
L 218.787504 16.672762 
L 219.17349 16.776143 
L 220.138455 17.377706 
L 221.039089 17.821795 
L 222.39004 18.316953 
L 222.776026 18.216138 
L 223.290674 17.839081 
L 223.998316 17.296875 
L 226.249901 16.842305 
L 227.214866 17.163633 
L 228.179831 17.810579 
L 229.080465 18.433991 
L 229.659444 18.590748 
L 230.174092 18.552736 
L 231.911029 17.887828 
L 233.647967 16.968817 
L 234.355608 17.002596 
L 235.191911 17.259742 
L 236.349869 17.787486 
L 236.349869 17.787486 
" clip-path="url(#pe18dd09787)" style="fill: none; stroke: #2ca02c; stroke-width: 0.5; stroke-linecap: square"/>
   </g>
   <g id="line2d_17">
    <path d="M 43.356847 17.475779 
L 57.123683 17.387106 
L 57.638331 16.983113 
L 58.024317 16.684151 
L 58.21731 16.757782 
L 58.538965 17.18608 
L 59.375268 18.548142 
L 59.568261 18.371161 
L 60.275902 17.337634 
L 60.726219 17.261208 
L 61.047874 17.440954 
L 61.626853 17.83517 
L 61.948508 17.766227 
L 62.656149 17.484273 
L 63.299459 17.408744 
L 64.007101 17.425314 
L 65.358052 17.573235 
L 65.744038 17.278924 
L 66.065693 17.117694 
L 66.387348 17.288794 
L 67.223651 17.732657 
L 67.866961 17.869912 
L 68.124285 17.608676 
L 68.767595 16.732086 
L 69.024919 16.760873 
L 69.410905 17.080096 
L 69.989884 17.545096 
L 71.855483 17.637459 
L 73.077773 17.061563 
L 73.52809 17.227151 
L 74.750379 17.923791 
L 75.136365 17.797793 
L 76.551647 17.043216 
L 77.001964 17.267887 
L 78.03126 17.910247 
L 78.481577 17.870362 
L 79.124887 17.518357 
L 79.96119 17.088481 
L 80.540169 17.034661 
L 81.24781 17.213987 
L 83.370734 17.918114 
L 84.142706 17.854486 
L 85.172002 17.502847 
L 86.651615 17.020567 
L 87.487918 17.069457 
L 88.066897 17.334179 
L 89.482179 18.079467 
L 89.932496 17.992168 
L 90.511476 17.647595 
L 91.090455 17.344468 
L 91.733765 17.156211 
L 92.634399 16.691898 
L 93.084716 16.769867 
L 93.535033 17.103134 
L 94.62866 18.127579 
L 95.078977 18.308925 
L 95.593625 18.221964 
L 96.687252 17.809846 
L 97.587886 17.282123 
L 98.552851 17.029518 
L 99.260493 17.002625 
L 99.71081 17.238389 
L 100.161127 17.45199 
L 101.512078 17.395233 
L 102.219719 17.24929 
L 103.313346 16.994459 
L 103.956656 17.015377 
L 105.178945 17.374172 
L 106.465565 17.838117 
L 107.237537 17.878435 
L 108.073841 17.69362 
L 110.261095 17.062211 
L 110.904405 17.194468 
L 111.805039 17.665096 
L 112.448349 17.887394 
L 112.898666 17.811793 
L 113.477645 17.453422 
L 114.185286 17.073227 
L 114.571272 17.107248 
L 115.08592 17.418573 
L 115.857892 17.874787 
L 116.243878 17.845171 
L 116.694195 17.572289 
L 117.530499 17.035668 
L 117.916485 17.060886 
L 118.559795 17.402732 
L 119.717753 17.97379 
L 120.039408 17.801874 
L 120.875711 17.126199 
L 121.197366 17.221614 
L 122.483986 17.979315 
L 122.74131 17.718299 
L 123.513282 16.585802 
L 123.706275 16.756976 
L 124.606909 18.08611 
L 125.121557 17.965242 
L 125.571874 17.646122 
L 126.729833 16.824644 
L 126.987157 16.947742 
L 127.437474 17.564665 
L 127.759129 17.834251 
L 128.145115 17.845448 
L 128.724094 17.607816 
L 129.75339 17.031402 
L 130.332369 17.337592 
L 130.718355 17.6089 
L 131.104341 17.879243 
L 131.361665 17.767886 
L 132.197968 17.137512 
L 132.455292 17.274321 
L 133.162933 17.88706 
L 133.61325 17.634561 
L 134.320891 17.277031 
L 134.899871 17.308164 
L 135.929167 17.652202 
L 136.379484 17.454954 
L 137.022794 17.183411 
L 137.473111 17.238948 
L 139.081386 17.765483 
L 139.660365 17.477891 
L 140.368006 17.158561 
L 140.818323 17.201207 
L 141.525964 17.573305 
L 142.104943 17.793786 
L 142.619591 17.743378 
L 143.648888 17.285872 
L 144.292198 17.149087 
L 144.999839 17.237185 
L 147.573079 17.79973 
L 148.538044 17.636152 
L 150.532305 17.203684 
L 151.175615 17.290888 
L 152.71956 17.690856 
L 154.00618 17.816338 
L 154.842483 17.905737 
L 156.000441 17.629703 
L 156.515089 17.635085 
L 158.766674 17.242017 
L 159.667308 17.413102 
L 161.790232 17.674049 
L 163.398507 17.413887 
L 164.427803 17.537332 
L 165.650092 17.468993 
L 168.287663 17.574605 
L 170.217593 17.303576 
L 171.311221 17.171916 
L 172.276186 17.298301 
L 174.720764 17.77084 
L 175.492736 17.584116 
L 176.843687 17.170857 
L 177.358335 17.285033 
L 178.773617 17.768308 
L 179.288266 17.573288 
L 180.1889 17.17746 
L 180.639217 17.223321 
L 182.247492 17.652941 
L 183.598443 17.367563 
L 184.177422 17.534744 
L 185.078056 17.807951 
L 186.236014 17.58552 
L 186.686331 17.349102 
L 187.329641 16.939805 
L 187.586965 17.053867 
L 188.680593 17.881264 
L 189.002248 17.668598 
L 189.709889 16.835463 
L 190.031544 16.541448 
L 190.224537 16.603267 
L 190.481861 17.014728 
L 191.253833 18.502446 
L 191.511157 18.572704 
L 191.70415 18.371142 
L 192.797777 16.658801 
L 192.99077 16.828444 
L 193.955735 18.224676 
L 194.148728 18.113774 
L 194.534714 17.508204 
L 195.178024 16.533499 
L 195.435348 16.39212 
L 195.628341 16.546413 
L 195.949996 17.29389 
L 196.528975 18.606312 
L 196.786299 18.726418 
L 196.979292 18.547412 
L 197.300948 17.711846 
L 197.751265 16.637884 
L 197.944258 16.544907 
L 198.201582 16.755646 
L 199.102216 17.771167 
L 199.745526 18.104799 
L 200.067181 18.015561 
L 200.453167 17.559998 
L 201.032146 16.844002 
L 201.28947 16.77978 
L 201.546794 16.927278 
L 201.997111 17.526605 
L 202.57609 18.217447 
L 202.897745 18.297423 
L 203.2194 18.100895 
L 203.734048 17.393535 
L 204.313027 16.712442 
L 204.634682 16.668115 
L 204.956337 16.905034 
L 205.663978 17.899723 
L 206.114296 18.280865 
L 206.435951 18.254568 
L 206.821937 17.927864 
L 207.979895 16.705159 
L 208.365881 16.660938 
L 208.816198 16.864315 
L 209.716832 17.63562 
L 210.488804 18.160981 
L 211.067783 18.300801 
L 211.646762 18.198615 
L 212.354403 17.802236 
L 213.962678 16.760462 
L 214.477326 16.71911 
L 214.991975 16.906543 
L 217.114898 18.000326 
L 217.629546 17.95559 
L 218.208525 17.654334 
L 219.302152 16.95746 
L 219.945462 16.884601 
L 221.10342 16.963532 
L 221.553737 17.20329 
L 222.840357 18.067938 
L 224.25564 18.20683 
L 226.121239 17.640724 
L 227.150535 16.997315 
L 227.986838 16.747613 
L 229.273458 16.730332 
L 229.852437 17.019354 
L 230.560078 17.564597 
L 231.139057 17.966313 
L 231.911029 18.202004 
L 232.490008 18.095644 
L 233.776629 17.600705 
L 235.256242 16.989131 
L 235.963883 16.976284 
L 236.349869 17.059463 
L 236.349869 17.059463 
" clip-path="url(#pe18dd09787)" style="fill: none; stroke: #d62728; stroke-width: 0.5; stroke-linecap: square"/>
   </g>
   <g id="patch_3">
    <path d="M 33.707196 202.559296 
L 33.707196 7.2 
" style="fill: none; stroke: #000000; stroke-width: 0.8; stroke-linejoin: miter; stroke-linecap: square"/>
   </g>
   <g id="patch_4">
    <path d="M 245.99952 202.559296 
L 245.99952 7.2 
" style="fill: none; stroke: #000000; stroke-width: 0.8; stroke-linejoin: miter; stroke-linecap: square"/>
   </g>
   <g id="patch_5">
    <path d="M 33.707196 202.559296 
L 245.99952 202.559296 
" style="fill: none; stroke: #000000; stroke-width: 0.8; stroke-linejoin: miter; stroke-linecap: square"/>
   </g>
   <g id="patch_6">
    <path d="M 33.707196 7.2 
L 245.99952 7.2 
" style="fill: none; stroke: #000000; stroke-width: 0.8; stroke-linejoin: miter; stroke-linecap: square"/>
   </g>
   <g id="legend_1">
    <g id="patch_7">
     <path d="M 40.007196 126.429212 
L 85.914112 126.429212 
Q 87.714112 126.429212 87.714112 124.629212 
L 87.714112 85.130084 
Q 87.714112 83.330084 85.914112 83.330084 
L 40.007196 83.330084 
Q 38.207196 83.330084 38.207196 85.130084 
L 38.207196 124.629212 
Q 38.207196 126.429212 40.007196 126.429212 
z
" style="fill: #ffffff; opacity: 0.8; stroke: #cccccc; stroke-width: 0.24; stroke-linejoin: miter"/>
    </g>
    <g id="line2d_18">
     <path d="M 41.807196 90.504866 
L 50.807196 90.504866 
L 59.807196 90.504866 
" style="fill: none; stroke: #ff7f0e; stroke-width: 0.5; stroke-linecap: square"/>
    </g>
    <g id="text_16">
     <!-- $\langle \sigma_z\rangle$ -->
     <g transform="translate(67.007196 93.654866) scale(0.09 -0.09)">
      <defs>
       <path id="CMSY10-68" d="M 2099 4557 
C 2131 4627 2131 4640 2131 4672 
C 2131 4742 2074 4800 2003 4800 
C 1946 4800 1901 4768 1856 4653 
L 736 1715 
C 723 1677 704 1638 704 1600 
C 704 1581 704 1568 736 1491 
L 1856 -1446 
C 1882 -1517 1914 -1600 2003 -1600 
C 2074 -1600 2131 -1542 2131 -1472 
C 2131 -1453 2131 -1440 2099 -1370 
L 966 1600 
L 2099 4557 
z
" transform="scale(0.015625)"/>
       <path id="CMMI12-1b" d="M 3251 2408 
C 3334 2408 3546 2408 3546 2612 
C 3546 2752 3424 2752 3309 2752 
L 1894 2752 
C 934 2752 243 1686 243 932 
C 243 390 595 -64 1171 -64 
C 1926 -64 2752 747 2752 1705 
C 2752 1954 2694 2196 2541 2408 
L 3251 2408 
z
M 1178 64 
C 851 64 614 313 614 754 
C 614 1137 845 2408 1786 2408 
C 2061 2408 2368 2274 2368 1781 
C 2368 1558 2266 1021 2042 652 
C 1811 275 1466 64 1178 64 
z
" transform="scale(0.015625)"/>
       <path id="CMMI12-7a" d="M 813 486 
C 1088 803 1312 1004 1632 1296 
C 2016 1632 2182 1793 2272 1891 
C 2720 2338 2944 2713 2944 2764 
C 2944 2816 2893 2816 2880 2816 
C 2835 2816 2822 2793 2790 2750 
C 2630 2494 2477 2367 2310 2367 
C 2176 2367 2106 2421 1984 2565 
C 1850 2715 1741 2816 1555 2816 
C 1088 2816 806 2257 806 2128 
C 806 2108 813 2068 870 2068 
C 922 2068 928 2091 947 2133 
C 1056 2372 1363 2414 1485 2414 
C 1619 2414 1747 2376 1882 2327 
C 2125 2240 2227 2240 2291 2240 
C 2336 2240 2362 2240 2394 2246 
C 2182 1994 1837 1683 1549 1418 
L 902 816 
C 512 415 275 33 275 -12 
C 275 -51 307 -64 346 -64 
C 384 -64 390 -57 435 14 
C 538 163 742 384 979 384 
C 1114 384 1178 342 1306 193 
C 1427 61 1536 -64 1741 -64 
C 2368 -64 2726 732 2726 876 
C 2726 903 2720 942 2656 942 
C 2605 942 2598 917 2579 855 
C 2438 488 2061 338 1811 338 
C 1677 338 1549 376 1414 425 
C 1158 512 1088 512 1005 512 
C 941 512 870 512 813 486 
z
" transform="scale(0.015625)"/>
       <path id="CMSY10-69" d="M 1747 1491 
C 1779 1568 1779 1581 1779 1600 
C 1779 1619 1779 1632 1747 1709 
L 627 4653 
C 589 4762 550 4800 480 4800 
C 410 4800 352 4742 352 4672 
C 352 4653 352 4640 384 4570 
L 1517 1600 
L 384 -1357 
C 352 -1427 352 -1440 352 -1472 
C 352 -1542 410 -1600 480 -1600 
C 563 -1600 589 -1536 614 -1472 
L 1747 1491 
z
" transform="scale(0.015625)"/>
      </defs>
      <use xlink:href="#CMSY10-68" transform="scale(0.996264)"/>
      <use xlink:href="#CMMI12-1b" transform="translate(38.743734 0) scale(0.996264)"/>
      <use xlink:href="#CMMI12-7a" transform="translate(94.189195 -14.943915) scale(0.697382)"/>
      <use xlink:href="#CMSY10-69" transform="translate(129.51575 0) scale(0.996264)"/>
     </g>
    </g>
    <g id="line2d_19">
     <path d="M 41.807196 103.971242 
L 50.807196 103.971242 
L 59.807196 103.971242 
" style="fill: none; stroke: #2ca02c; stroke-width: 0.5; stroke-linecap: square"/>
    </g>
    <g id="text_17">
     <!-- $\langle \sigma_x\rangle$ -->
     <g transform="translate(67.007196 107.121242) scale(0.09 -0.09)">
      <defs>
       <path id="CMMI12-78" d="M 3034 2606 
C 2829 2567 2752 2414 2752 2293 
C 2752 2139 2874 2088 2963 2088 
C 3155 2088 3290 2254 3290 2427 
C 3290 2695 2982 2816 2714 2816 
C 2323 2816 2106 2433 2048 2312 
C 1901 2816 1504 2816 1389 2816 
C 736 2816 390 1980 390 1839 
C 390 1814 416 1782 461 1782 
C 512 1782 525 1820 538 1846 
C 755 2555 1184 2689 1370 2689 
C 1658 2689 1715 2420 1715 2267 
C 1715 2127 1677 1980 1600 1673 
L 1382 798 
C 1286 415 1101 64 762 64 
C 730 64 570 64 435 147 
C 666 192 717 383 717 460 
C 717 588 621 664 499 664 
C 346 664 179 530 179 326 
C 179 57 480 -64 755 -64 
C 1062 -64 1280 179 1414 441 
C 1517 64 1837 -64 2074 -64 
C 2726 -64 3072 773 3072 913 
C 3072 945 3046 971 3008 971 
C 2950 971 2944 939 2925 888 
C 2752 326 2381 64 2093 64 
C 1869 64 1747 230 1747 492 
C 1747 632 1773 734 1875 1156 
L 2099 2024 
C 2195 2408 2413 2689 2707 2689 
C 2720 2689 2899 2689 3034 2606 
z
" transform="scale(0.015625)"/>
      </defs>
      <use xlink:href="#CMSY10-68" transform="scale(0.996264)"/>
      <use xlink:href="#CMMI12-1b" transform="translate(38.743734 0) scale(0.996264)"/>
      <use xlink:href="#CMMI12-78" transform="translate(94.189195 -14.943915) scale(0.697382)"/>
      <use xlink:href="#CMSY10-69" transform="translate(133.490986 0) scale(0.996264)"/>
     </g>
    </g>
    <g id="line2d_20">
     <path d="M 41.807196 117.437618 
L 50.807196 117.437618 
L 59.807196 117.437618 
" style="fill: none; stroke: #d62728; stroke-width: 0.5; stroke-linecap: square"/>
    </g>
    <g id="text_18">
     <!-- $\langle \sigma_y\rangle$ -->
     <g transform="translate(67.007196 120.587618) scale(0.09 -0.09)">
      <defs>
       <path id="CMMI12-79" d="M 1683 -700 
C 1510 -939 1261 -1152 947 -1152 
C 870 -1152 563 -1152 467 -889 
C 486 -895 518 -895 531 -895 
C 723 -895 851 -729 851 -582 
C 851 -435 730 -384 634 -384 
C 531 -384 307 -458 307 -759 
C 307 -1071 582 -1286 947 -1286 
C 1587 -1286 2234 -700 2413 6 
L 3040 2485 
C 3046 2517 3059 2556 3059 2594 
C 3059 2689 2982 2753 2886 2753 
C 2829 2753 2694 2727 2643 2535 
L 2170 658 
C 2138 543 2138 530 2086 460 
C 1958 281 1747 64 1440 64 
C 1082 64 1050 415 1050 588 
C 1050 952 1222 1443 1395 1903 
C 1466 2088 1504 2178 1504 2305 
C 1504 2574 1312 2816 998 2816 
C 410 2816 173 1890 173 1839 
C 173 1814 198 1782 243 1782 
C 301 1782 307 1807 333 1897 
C 486 2433 730 2689 979 2689 
C 1037 2689 1146 2689 1146 2478 
C 1146 2312 1075 2127 979 1884 
C 666 1047 666 837 666 683 
C 666 77 1101 -64 1421 -64 
C 1606 -64 1837 -6 2061 230 
L 2067 224 
C 1971 -147 1907 -392 1683 -700 
z
" transform="scale(0.015625)"/>
      </defs>
      <use xlink:href="#CMSY10-68" transform="scale(0.996264)"/>
      <use xlink:href="#CMMI12-1b" transform="translate(38.743734 0) scale(0.996264)"/>
      <use xlink:href="#CMMI12-79" transform="translate(94.189195 -14.943915) scale(0.697382)"/>
      <use xlink:href="#CMSY10-69" transform="translate(130.484301 0) scale(0.996264)"/>
     </g>
    </g>
   </g>
  </g>
 </g>
 <defs>
  <clipPath id="pe18dd09787">
   <rect x="33.707196" y="7.2" width="212.292324" height="195.359296"/>
  </clipPath>
 </defs>
</svg>
