<?xml version="1.0" encoding="utf-8" standalone="no"?>
<!DOCTYPE svg PUBLIC "-//W3C//DTD SVG 1.1//EN"
  "http://www.w3.org/Graphics/SVG/1.1/DTD/svg11.dtd">
<svg xmlns:xlink="http://www.w3.org/1999/xlink" width="253.19952pt" height="238.79952pt" viewBox="0 0 253.19952 238.79952" xmlns="http://www.w3.org/2000/svg" version="1.1">
 <metadata>
  <rdf:RDF xmlns:dc="http://purl.org/dc/elements/1.1/" xmlns:cc="http://creativecommons.org/ns#" xmlns:rdf="http://www.w3.org/1999/02/22-rdf-syntax-ns#">
   <cc:Work>
    <dc:type rdf:resource="http://purl.org/dc/dcmitype/StillImage"/>
    <dc:date>1980-01-01T00:00:00+00:00</dc:date>
    <dc:format>image/svg+xml</dc:format>
    <dc:creator>
     <cc:Agent>
      <dc:title>Matplotlib v3.6.2, https://matplotlib.org/</dc:title>
     </cc:Agent>
    </dc:creator>
   </cc:Work>
  </rdf:RDF>
 </metadata>
 <defs>
  <style type="text/css">*{stroke-linejoin: round; stroke-linecap: butt}</style>
 </defs>
 <g id="figure_1">
  <g id="patch_1">
   <path d="M 0 238.79952 
L 253.19952 238.79952 
L 253.19952 0 
L 0 0 
z
" style="fill: #ffffff"/>
  </g>
  <g id="axes_1">
   <g id="patch_2">
    <path d="M 33.707196 202.559296 
L 245.99952 202.559296 
L 245.99952 7.2 
L 33.707196 7.2 
z
" style="fill: #ffffff"/>
   </g>
   <g id="matplotlib.axis_1">
    <g id="xtick_1">
     <g id="line2d_1">
      <defs>
       <path id="m99090d9b3e" d="M 0 0 
L 0 3.5 
" style="stroke: #000000; stroke-width: 0.8"/>
      </defs>
      <g>
       <use xlink:href="#m99090d9b3e" x="43.356847" y="202.559296" style="stroke: #000000; stroke-width: 0.8"/>
      </g>
     </g>
     <g id="text_1">
      <!-- $\mathdefault{0}$ -->
      <g transform="translate(41.239756 217.194098) scale(0.08 -0.08)">
       <defs>
        <path id="CMR17-30" d="M 2688 2025 
C 2688 2416 2682 3080 2413 3591 
C 2176 4039 1798 4198 1466 4198 
C 1158 4198 768 4058 525 3597 
C 269 3118 243 2524 243 2025 
C 243 1661 250 1106 448 619 
C 723 -39 1216 -128 1466 -128 
C 1760 -128 2208 -7 2470 600 
C 2662 1042 2688 1559 2688 2025 
z
M 1466 -26 
C 1056 -26 813 325 723 812 
C 653 1188 653 1738 653 2096 
C 653 2588 653 2997 736 3387 
C 858 3929 1216 4096 1466 4096 
C 1728 4096 2067 3923 2189 3400 
C 2272 3036 2278 2607 2278 2096 
C 2278 1680 2278 1169 2202 792 
C 2067 95 1690 -26 1466 -26 
z
" transform="scale(0.015625)"/>
       </defs>
       <use xlink:href="#CMR17-30" transform="scale(0.996264)"/>
      </g>
     </g>
    </g>
    <g id="xtick_2">
     <g id="line2d_2">
      <g>
       <use xlink:href="#m99090d9b3e" x="70.161434" y="202.559296" style="stroke: #000000; stroke-width: 0.8"/>
      </g>
     </g>
     <g id="text_2">
      <!-- $\mathdefault{25}$ -->
      <g transform="translate(65.927251 217.194098) scale(0.08 -0.08)">
       <defs>
        <path id="CMR17-32" d="M 2669 989 
L 2554 989 
C 2490 536 2438 459 2413 420 
C 2381 369 1920 369 1830 369 
L 602 369 
C 832 619 1280 1072 1824 1597 
C 2214 1967 2669 2402 2669 3035 
C 2669 3790 2067 4224 1395 4224 
C 691 4224 262 3604 262 3030 
C 262 2780 448 2748 525 2748 
C 589 2748 781 2787 781 3010 
C 781 3207 614 3264 525 3264 
C 486 3264 448 3258 422 3245 
C 544 3790 915 4058 1306 4058 
C 1862 4058 2227 3617 2227 3035 
C 2227 2479 1901 2000 1536 1584 
L 262 146 
L 262 0 
L 2515 0 
L 2669 989 
z
" transform="scale(0.015625)"/>
        <path id="CMR17-35" d="M 730 3692 
C 794 3666 1056 3584 1325 3584 
C 1920 3584 2246 3911 2432 4100 
C 2432 4157 2432 4192 2394 4192 
C 2387 4192 2374 4192 2323 4163 
C 2099 4058 1837 3973 1517 3973 
C 1325 3973 1037 3999 723 4139 
C 653 4171 640 4171 634 4171 
C 602 4171 595 4164 595 4037 
L 595 2203 
C 595 2089 595 2057 659 2057 
C 691 2057 704 2070 736 2114 
C 941 2401 1222 2522 1542 2522 
C 1766 2522 2246 2382 2246 1289 
C 2246 1085 2246 715 2054 421 
C 1894 159 1645 25 1370 25 
C 947 25 518 320 403 814 
C 429 807 480 795 506 795 
C 589 795 749 840 749 1038 
C 749 1210 627 1280 506 1280 
C 358 1280 262 1190 262 1011 
C 262 454 704 -128 1382 -128 
C 2042 -128 2669 440 2669 1264 
C 2669 2030 2170 2624 1549 2624 
C 1222 2624 947 2503 730 2274 
L 730 3692 
z
" transform="scale(0.015625)"/>
       </defs>
       <use xlink:href="#CMR17-32" transform="scale(0.996264)"/>
       <use xlink:href="#CMR17-35" transform="translate(45.690477 0) scale(0.996264)"/>
      </g>
     </g>
    </g>
    <g id="xtick_3">
     <g id="line2d_3">
      <g>
       <use xlink:href="#m99090d9b3e" x="96.96602" y="202.559296" style="stroke: #000000; stroke-width: 0.8"/>
      </g>
     </g>
     <g id="text_3">
      <!-- $\mathdefault{50}$ -->
      <g transform="translate(92.731837 217.194098) scale(0.08 -0.08)">
       <use xlink:href="#CMR17-35" transform="scale(0.996264)"/>
       <use xlink:href="#CMR17-30" transform="translate(45.690477 0) scale(0.996264)"/>
      </g>
     </g>
    </g>
    <g id="xtick_4">
     <g id="line2d_4">
      <g>
       <use xlink:href="#m99090d9b3e" x="123.770606" y="202.559296" style="stroke: #000000; stroke-width: 0.8"/>
      </g>
     </g>
     <g id="text_4">
      <!-- $\mathdefault{75}$ -->
      <g transform="translate(119.536423 217.194098) scale(0.08 -0.08)">
       <defs>
        <path id="CMR17-37" d="M 2886 3941 
L 2886 4081 
L 1382 4081 
C 634 4081 621 4165 595 4288 
L 480 4288 
L 294 3094 
L 410 3094 
C 429 3215 474 3540 550 3661 
C 589 3712 1062 3712 1171 3712 
L 2579 3712 
L 1869 2661 
C 1395 1954 1069 999 1069 165 
C 1069 89 1069 -128 1299 -128 
C 1530 -128 1530 89 1530 171 
L 1530 465 
C 1530 1508 1709 2196 2003 2636 
L 2886 3941 
z
" transform="scale(0.015625)"/>
       </defs>
       <use xlink:href="#CMR17-37" transform="scale(0.996264)"/>
       <use xlink:href="#CMR17-35" transform="translate(45.690477 0) scale(0.996264)"/>
      </g>
     </g>
    </g>
    <g id="xtick_5">
     <g id="line2d_5">
      <g>
       <use xlink:href="#m99090d9b3e" x="150.575193" y="202.559296" style="stroke: #000000; stroke-width: 0.8"/>
      </g>
     </g>
     <g id="text_5">
      <!-- $\mathdefault{100}$ -->
      <g transform="translate(144.223918 217.194098) scale(0.08 -0.08)">
       <defs>
        <path id="CMR17-31" d="M 1702 4058 
C 1702 4192 1696 4192 1606 4192 
C 1357 3916 979 3827 621 3827 
C 602 3827 570 3827 563 3808 
C 557 3795 557 3782 557 3648 
C 755 3648 1088 3686 1344 3839 
L 1344 461 
C 1344 236 1331 160 781 160 
L 589 160 
L 589 0 
C 896 0 1216 0 1523 0 
C 1830 0 2150 0 2458 0 
L 2458 160 
L 2266 160 
C 1715 160 1702 230 1702 458 
L 1702 4058 
z
" transform="scale(0.015625)"/>
       </defs>
       <use xlink:href="#CMR17-31" transform="scale(0.996264)"/>
       <use xlink:href="#CMR17-30" transform="translate(45.690477 0) scale(0.996264)"/>
       <use xlink:href="#CMR17-30" transform="translate(91.380954 0) scale(0.996264)"/>
      </g>
     </g>
    </g>
    <g id="xtick_6">
     <g id="line2d_6">
      <g>
       <use xlink:href="#m99090d9b3e" x="177.379779" y="202.559296" style="stroke: #000000; stroke-width: 0.8"/>
      </g>
     </g>
     <g id="text_6">
      <!-- $\mathdefault{125}$ -->
      <g transform="translate(171.028505 217.194098) scale(0.08 -0.08)">
       <use xlink:href="#CMR17-31" transform="scale(0.996264)"/>
       <use xlink:href="#CMR17-32" transform="translate(45.690477 0) scale(0.996264)"/>
       <use xlink:href="#CMR17-35" transform="translate(91.380954 0) scale(0.996264)"/>
      </g>
     </g>
    </g>
    <g id="xtick_7">
     <g id="line2d_7">
      <g>
       <use xlink:href="#m99090d9b3e" x="204.184365" y="202.559296" style="stroke: #000000; stroke-width: 0.8"/>
      </g>
     </g>
     <g id="text_7">
      <!-- $\mathdefault{150}$ -->
      <g transform="translate(197.833091 217.194098) scale(0.08 -0.08)">
       <use xlink:href="#CMR17-31" transform="scale(0.996264)"/>
       <use xlink:href="#CMR17-35" transform="translate(45.690477 0) scale(0.996264)"/>
       <use xlink:href="#CMR17-30" transform="translate(91.380954 0) scale(0.996264)"/>
      </g>
     </g>
    </g>
    <g id="xtick_8">
     <g id="line2d_8">
      <g>
       <use xlink:href="#m99090d9b3e" x="230.988952" y="202.559296" style="stroke: #000000; stroke-width: 0.8"/>
      </g>
     </g>
     <g id="text_8">
      <!-- $\mathdefault{175}$ -->
      <g transform="translate(224.637677 217.194098) scale(0.08 -0.08)">
       <use xlink:href="#CMR17-31" transform="scale(0.996264)"/>
       <use xlink:href="#CMR17-37" transform="translate(45.690477 0) scale(0.996264)"/>
       <use xlink:href="#CMR17-35" transform="translate(91.380954 0) scale(0.996264)"/>
      </g>
     </g>
    </g>
    <g id="text_9">
     <!-- $\tau$ -->
     <g transform="translate(137.675756 229.662342) scale(0.1 -0.1)">
      <defs>
       <path id="CMMI12-1c" d="M 1837 2408 
L 2899 2408 
C 2982 2408 3194 2408 3194 2612 
C 3194 2752 3072 2752 2957 2752 
L 1197 2752 
C 1050 2752 832 2752 538 2440 
C 371 2255 166 1917 166 1879 
C 166 1841 198 1828 237 1828 
C 282 1828 288 1847 320 1885 
C 653 2408 986 2408 1146 2408 
L 1677 2408 
L 1011 223 
C 979 127 979 114 979 95 
C 979 25 1024 -64 1152 -64 
C 1350 -64 1382 108 1402 203 
L 1837 2408 
z
" transform="scale(0.015625)"/>
      </defs>
      <use xlink:href="#CMMI12-1c" transform="scale(0.996264)"/>
     </g>
    </g>
   </g>
   <g id="matplotlib.axis_2">
    <g id="ytick_1">
     <g id="line2d_9">
      <defs>
       <path id="mb2daa30bc3" d="M 0 0 
L -3.5 0 
" style="stroke: #000000; stroke-width: 0.8"/>
      </defs>
      <g>
       <use xlink:href="#mb2daa30bc3" x="33.707196" y="193.679328" style="stroke: #000000; stroke-width: 0.8"/>
      </g>
     </g>
     <g id="text_10">
      <!-- $\mathdefault{−1.0}$ -->
      <g transform="translate(7.2 196.446729) scale(0.08 -0.08)">
       <defs>
        <path id="CMSY10-0" d="M 4218 1472 
C 4326 1472 4442 1472 4442 1600 
C 4442 1728 4326 1728 4218 1728 
L 755 1728 
C 646 1728 531 1728 531 1600 
C 531 1472 646 1472 755 1472 
L 4218 1472 
z
" transform="scale(0.015625)"/>
        <path id="CMMI12-3a" d="M 1178 307 
C 1178 492 1024 619 870 619 
C 685 619 557 466 557 313 
C 557 128 710 0 864 0 
C 1050 0 1178 153 1178 307 
z
" transform="scale(0.015625)"/>
       </defs>
       <use xlink:href="#CMSY10-0" transform="scale(0.996264)"/>
       <use xlink:href="#CMR17-31" transform="translate(77.487468 0) scale(0.996264)"/>
       <use xlink:href="#CMMI12-3a" transform="translate(123.177945 0) scale(0.996264)"/>
       <use xlink:href="#CMR17-30" transform="translate(150.275122 0) scale(0.996264)"/>
      </g>
     </g>
    </g>
    <g id="ytick_2">
     <g id="line2d_10">
      <g>
       <use xlink:href="#mb2daa30bc3" x="33.707196" y="158.37555" style="stroke: #000000; stroke-width: 0.8"/>
      </g>
     </g>
     <g id="text_11">
      <!-- $\mathdefault{−0.8}$ -->
      <g transform="translate(7.2 161.142951) scale(0.08 -0.08)">
       <defs>
        <path id="CMR17-38" d="M 1741 2264 
C 2144 2467 2554 2773 2554 3263 
C 2554 3841 1990 4179 1472 4179 
C 890 4179 378 3759 378 3180 
C 378 3021 416 2747 666 2505 
C 730 2442 998 2251 1171 2130 
C 883 1983 211 1634 211 934 
C 211 279 838 -128 1459 -128 
C 2144 -128 2720 362 2720 1010 
C 2720 1590 2330 1857 2074 2029 
L 1741 2264 
z
M 902 2822 
C 851 2854 595 3051 595 3351 
C 595 3739 998 4032 1459 4032 
C 1965 4032 2336 3676 2336 3262 
C 2336 2669 1670 2331 1638 2331 
C 1632 2331 1626 2331 1574 2370 
L 902 2822 
z
M 2080 1519 
C 2176 1449 2483 1240 2483 851 
C 2483 381 2010 25 1472 25 
C 890 25 448 438 448 940 
C 448 1443 838 1862 1280 2060 
L 2080 1519 
z
" transform="scale(0.015625)"/>
       </defs>
       <use xlink:href="#CMSY10-0" transform="scale(0.996264)"/>
       <use xlink:href="#CMR17-30" transform="translate(77.487468 0) scale(0.996264)"/>
       <use xlink:href="#CMMI12-3a" transform="translate(123.177945 0) scale(0.996264)"/>
       <use xlink:href="#CMR17-38" transform="translate(150.275122 0) scale(0.996264)"/>
      </g>
     </g>
    </g>
    <g id="ytick_3">
     <g id="line2d_11">
      <g>
       <use xlink:href="#mb2daa30bc3" x="33.707196" y="123.071773" style="stroke: #000000; stroke-width: 0.8"/>
      </g>
     </g>
     <g id="text_12">
      <!-- $\mathdefault{−0.6}$ -->
      <g transform="translate(7.2 125.839173) scale(0.08 -0.08)">
       <defs>
        <path id="CMR17-36" d="M 678 2176 
C 678 3690 1395 4032 1811 4032 
C 1946 4032 2272 4009 2400 3776 
C 2298 3776 2106 3776 2106 3553 
C 2106 3381 2246 3323 2336 3323 
C 2394 3323 2566 3348 2566 3560 
C 2566 3954 2246 4179 1805 4179 
C 1043 4179 243 3390 243 1984 
C 243 253 966 -128 1478 -128 
C 2099 -128 2688 427 2688 1283 
C 2688 2081 2170 2662 1517 2662 
C 1126 2662 838 2407 678 1960 
L 678 2176 
z
M 1478 25 
C 691 25 691 1200 691 1436 
C 691 1896 909 2560 1504 2560 
C 1613 2560 1926 2560 2138 2120 
C 2253 1870 2253 1609 2253 1289 
C 2253 944 2253 690 2118 434 
C 1978 171 1773 25 1478 25 
z
" transform="scale(0.015625)"/>
       </defs>
       <use xlink:href="#CMSY10-0" transform="scale(0.996264)"/>
       <use xlink:href="#CMR17-30" transform="translate(77.487468 0) scale(0.996264)"/>
       <use xlink:href="#CMMI12-3a" transform="translate(123.177945 0) scale(0.996264)"/>
       <use xlink:href="#CMR17-36" transform="translate(150.275122 0) scale(0.996264)"/>
      </g>
     </g>
    </g>
    <g id="ytick_4">
     <g id="line2d_12">
      <g>
       <use xlink:href="#mb2daa30bc3" x="33.707196" y="87.767995" style="stroke: #000000; stroke-width: 0.8"/>
      </g>
     </g>
     <g id="text_13">
      <!-- $\mathdefault{−0.4}$ -->
      <g transform="translate(7.2 90.535396) scale(0.08 -0.08)">
       <defs>
        <path id="CMR17-34" d="M 2150 4122 
C 2150 4256 2144 4256 2029 4256 
L 128 1254 
L 128 1088 
L 1779 1088 
L 1779 457 
C 1779 224 1766 160 1318 160 
L 1197 160 
L 1197 0 
C 1402 0 1747 0 1965 0 
C 2182 0 2528 0 2733 0 
L 2733 160 
L 2611 160 
C 2163 160 2150 224 2150 457 
L 2150 1088 
L 2803 1088 
L 2803 1254 
L 2150 1254 
L 2150 4122 
z
M 1798 3703 
L 1798 1254 
L 256 1254 
L 1798 3703 
z
" transform="scale(0.015625)"/>
       </defs>
       <use xlink:href="#CMSY10-0" transform="scale(0.996264)"/>
       <use xlink:href="#CMR17-30" transform="translate(77.487468 0) scale(0.996264)"/>
       <use xlink:href="#CMMI12-3a" transform="translate(123.177945 0) scale(0.996264)"/>
       <use xlink:href="#CMR17-34" transform="translate(150.275122 0) scale(0.996264)"/>
      </g>
     </g>
    </g>
    <g id="ytick_5">
     <g id="line2d_13">
      <g>
       <use xlink:href="#mb2daa30bc3" x="33.707196" y="52.464217" style="stroke: #000000; stroke-width: 0.8"/>
      </g>
     </g>
     <g id="text_14">
      <!-- $\mathdefault{−0.2}$ -->
      <g transform="translate(7.2 55.231618) scale(0.08 -0.08)">
       <use xlink:href="#CMSY10-0" transform="scale(0.996264)"/>
       <use xlink:href="#CMR17-30" transform="translate(77.487468 0) scale(0.996264)"/>
       <use xlink:href="#CMMI12-3a" transform="translate(123.177945 0) scale(0.996264)"/>
       <use xlink:href="#CMR17-32" transform="translate(150.275122 0) scale(0.996264)"/>
      </g>
     </g>
    </g>
    <g id="ytick_6">
     <g id="line2d_14">
      <g>
       <use xlink:href="#mb2daa30bc3" x="33.707196" y="17.16044" style="stroke: #000000; stroke-width: 0.8"/>
      </g>
     </g>
     <g id="text_15">
      <!-- $\mathdefault{0.0}$ -->
      <g transform="translate(13.786507 19.927841) scale(0.08 -0.08)">
       <use xlink:href="#CMR17-30" transform="scale(0.996264)"/>
       <use xlink:href="#CMMI12-3a" transform="translate(45.690477 0) scale(0.996264)"/>
       <use xlink:href="#CMR17-30" transform="translate(72.787654 0) scale(0.996264)"/>
      </g>
     </g>
    </g>
   </g>
   <g id="line2d_15">
    <path d="M 43.356847 193.679328 
L 52.556181 193.58586 
L 52.877836 193.318966 
L 53.13516 192.813259 
L 53.456815 191.532712 
L 53.77847 189.167234 
L 54.164456 184.427075 
L 54.679105 174.688201 
L 57.445338 114.969568 
L 58.088648 106.977128 
L 58.989282 98.595306 
L 60.340233 89.183109 
L 61.112205 84.556233 
L 63.685446 74.031042 
L 66.065693 67.966631 
L 66.387348 67.242533 
L 66.580341 67.167274 
L 67.030658 67.260591 
L 67.352313 66.945891 
L 68.317278 65.719044 
L 68.767595 65.105926 
L 69.153581 64.924851 
L 69.410905 65.055655 
L 69.73256 65.644215 
L 71.147842 69.060645 
L 72.627456 73.993687 
L 73.335097 75.443479 
L 73.849745 76.023936 
L 74.364393 76.23353 
L 75.265027 76.280154 
L 85.815312 76.17517 
L 86.908939 76.102957 
L 87.230594 76.340368 
L 87.552249 76.872319 
L 87.938235 78.062015 
L 88.388552 80.398756 
L 88.9032 84.381219 
L 89.803834 93.485521 
L 92.184082 118.494864 
L 93.020385 124.84866 
L 93.98535 130.434078 
L 95.014646 135.016043 
L 95.91528 138.11599 
L 96.622921 139.882433 
L 97.84521 142.249575 
L 98.874506 144.020864 
L 99.582148 144.727424 
L 101.061761 146.124119 
L 101.576409 146.927032 
L 102.026726 148.073102 
L 102.541374 150.117062 
L 103.249015 153.966163 
L 104.792959 162.713532 
L 105.371938 164.678056 
L 105.822255 165.561575 
L 106.272572 166.001785 
L 106.78722 166.170185 
L 107.945178 166.196133 
L 116.95152 166.107611 
L 117.273175 165.821416 
L 117.530499 165.294234 
L 117.852154 164.035073 
L 118.173809 161.833326 
L 118.559795 157.603568 
L 119.074443 149.139198 
L 121.326028 107.764675 
L 122.098 97.844652 
L 122.74131 92.481645 
L 123.834937 85.27887 
L 125.121557 79.400464 
L 126.022192 75.600229 
L 126.472509 74.125306 
L 127.694798 71.00683 
L 128.145115 70.110619 
L 128.724094 69.270609 
L 129.560397 67.703739 
L 130.010714 66.990055 
L 131.361665 64.410643 
L 131.618989 64.189085 
L 132.197968 64.003714 
L 133.484588 63.006727 
L 134.192229 63.117459 
L 134.449553 63.503491 
L 134.83554 64.612992 
L 136.508146 70.120282 
L 137.40878 72.685611 
L 137.923428 73.486956 
L 138.373745 73.811635 
L 138.952724 73.935519 
L 141.011316 73.947891 
L 150.660967 73.837808 
L 151.175615 73.900696 
L 151.49727 74.16177 
L 151.818925 74.70148 
L 152.204911 75.877597 
L 152.590898 77.832979 
L 153.105546 81.676365 
L 153.941849 89.953075 
L 156.901075 120.702648 
L 157.737378 126.628455 
L 158.702343 132.012973 
L 159.602977 135.75813 
L 160.567942 138.633978 
L 161.468577 140.730928 
L 162.433542 142.502439 
L 163.977486 144.672386 
L 164.87812 145.54973 
L 165.52143 146.240703 
L 165.971747 147.050245 
L 166.422064 148.316771 
L 167.001043 150.757259 
L 167.773015 155.109051 
L 168.995304 162.054038 
L 169.574283 164.201194 
L 170.088931 165.320493 
L 170.539249 165.79608 
L 171.053897 165.985213 
L 172.083193 166.018028 
L 181.282527 165.918691 
L 181.604182 165.641225 
L 181.861506 165.127498 
L 182.183161 163.86676 
L 182.504816 161.634532 
L 182.955133 156.543592 
L 183.534112 146.815041 
L 185.657035 107.974322 
L 186.300345 99.769481 
L 187.136648 91.887468 
L 187.651296 88.905106 
L 189.967213 78.416291 
L 190.996509 74.802074 
L 192.411791 70.798177 
L 193.441087 69.26259 
L 194.27739 66.968214 
L 194.663376 66.807339 
L 195.049362 66.58111 
L 196.014327 65.691105 
L 196.400313 65.539367 
L 196.657637 65.132024 
L 197.365279 63.768076 
L 197.558272 63.698505 
L 197.751265 63.846071 
L 198.201582 64.696147 
L 198.587568 65.1395 
L 199.166547 65.610168 
L 199.488202 66.281029 
L 200.00285 68.087661 
L 200.774822 70.577556 
L 202.061442 74.083267 
L 202.511759 74.54469 
L 203.026407 74.738157 
L 204.055703 74.769439 
L 214.155671 74.670268 
L 215.506623 74.524471 
L 215.828278 74.799233 
L 216.149933 75.385829 
L 216.535919 76.587615 
L 216.986236 78.800355 
L 217.500884 82.620218 
L 218.208525 89.831993 
L 220.524441 114.581566 
L 221.682399 124.369475 
L 222.39004 128.705944 
L 223.355005 133.157583 
L 224.705957 138.124576 
L 225.606591 140.457133 
L 226.442894 142.197548 
L 227.214866 143.224065 
L 228.694479 144.793637 
L 229.981099 146.113419 
L 230.431416 147.075242 
L 230.881733 148.621776 
L 231.525043 151.790867 
L 233.84096 164.295164 
L 234.355608 165.511073 
L 234.805925 166.048491 
L 235.256242 166.259982 
L 236.028214 166.318546 
L 236.349869 166.318812 
L 236.349869 166.318812 
" clip-path="url(#p06e5717068)" style="fill: none; stroke: #ff7f0e; stroke-width: 0.5; stroke-linecap: square"/>
   </g>
   <g id="line2d_16">
    <path d="M 43.356847 17.16044 
L 53.263822 17.267881 
L 54.872098 17.548553 
L 55.837063 17.249579 
L 56.28738 17.482428 
L 56.93069 17.83515 
L 57.574 17.739248 
L 58.152979 17.539806 
L 59.310937 16.885456 
L 59.632592 17.053306 
L 60.14724 17.41614 
L 60.404564 17.304126 
L 61.240867 16.659915 
L 61.755515 16.441241 
L 62.205832 16.257865 
L 62.527487 16.363752 
L 62.913473 16.811369 
L 63.492453 17.449898 
L 63.94277 17.71344 
L 64.264425 17.654994 
L 65.165059 17.087322 
L 65.551045 16.820192 
L 65.808369 16.872678 
L 66.773334 17.321391 
L 67.15932 17.123976 
L 67.609637 16.884578 
L 67.931292 17.01446 
L 69.08925 17.800619 
L 69.475236 17.496725 
L 70.440201 16.553261 
L 70.761856 16.680072 
L 71.598159 17.157259 
L 72.434463 17.066467 
L 74.107069 17.076787 
L 75.586682 17.283545 
L 77.645274 17.100533 
L 78.996225 17.298736 
L 80.154183 17.135088 
L 81.505135 17.020599 
L 82.984748 17.153241 
L 84.914678 17.297098 
L 86.136967 17.15493 
L 87.745242 16.924883 
L 88.452883 17.04537 
L 89.803834 17.371732 
L 92.570068 17.154645 
L 94.049681 16.952837 
L 95.27197 17.077413 
L 98.102534 17.787622 
L 98.938837 18.056035 
L 99.453486 17.922531 
L 102.863029 16.786293 
L 103.699332 16.719463 
L 104.664297 16.841075 
L 108.00951 17.39368 
L 109.103137 17.253042 
L 111.097398 16.932169 
L 111.86937 17.100386 
L 113.027328 17.395639 
L 113.606307 17.282259 
L 114.828596 16.92707 
L 115.407575 17.076358 
L 116.436871 17.39685 
L 117.015851 17.282528 
L 117.980816 17.037802 
L 118.431133 17.173288 
L 119.653422 17.728554 
L 119.975077 17.570197 
L 120.361063 17.118883 
L 121.133035 16.145604 
L 121.45469 16.096552 
L 121.776345 16.330404 
L 122.676979 17.201639 
L 123.38462 17.189749 
L 123.834937 16.957318 
L 124.413916 16.642148 
L 124.735571 16.782953 
L 125.185888 16.971127 
L 125.89353 16.933927 
L 126.279516 17.026296 
L 126.601171 17.341648 
L 127.18015 17.939958 
L 127.501805 17.967883 
L 128.209446 17.723691 
L 129.11008 17.269675 
L 129.946383 17.574666 
L 130.589693 17.857194 
L 130.911348 17.742741 
L 132.262299 17.013999 
L 132.648285 17.104991 
L 133.291595 17.248807 
L 133.741912 17.097271 
L 134.192229 16.943297 
L 134.513884 17.088212 
L 135.543181 17.883277 
L 135.864836 17.688024 
L 136.379484 16.993268 
L 136.894132 16.364695 
L 137.215787 16.290392 
L 137.473111 16.455148 
L 137.859097 17.000235 
L 138.566738 18.033938 
L 138.824062 18.122364 
L 139.081386 17.995567 
L 139.467372 17.474179 
L 140.239344 16.30083 
L 140.560999 16.20826 
L 140.818323 16.374352 
L 141.26864 17.03558 
L 141.91195 17.979985 
L 142.233605 18.121409 
L 142.55526 17.982137 
L 143.005577 17.448416 
L 143.841881 16.395952 
L 144.227867 16.208704 
L 144.613853 16.254695 
L 145.128501 16.588987 
L 146.929769 18.04219 
L 147.444417 18.118948 
L 147.959065 17.978775 
L 148.602375 17.550706 
L 150.274981 16.272899 
L 150.85396 16.170428 
L 151.432939 16.290524 
L 152.14058 16.719287 
L 153.169877 17.372555 
L 153.620194 17.389316 
L 155.035476 16.907244 
L 156.450758 16.537148 
L 158.316357 16.965622 
L 159.216991 17.265623 
L 159.731639 17.201567 
L 160.825266 16.998094 
L 161.854563 16.829939 
L 162.755197 16.497064 
L 163.527169 16.567815 
L 165.714423 16.774536 
L 166.486395 16.791363 
L 167.515691 16.965412 
L 168.802311 16.826511 
L 169.895938 17.097384 
L 171.504214 17.462134 
L 172.404848 17.425063 
L 173.562806 17.130044 
L 174.849426 16.848442 
L 175.557067 16.939412 
L 177.422666 17.435376 
L 178.065976 17.141115 
L 178.773617 16.854236 
L 179.223935 16.905534 
L 179.931576 17.273786 
L 180.510555 17.47166 
L 180.960872 17.3976 
L 181.861506 16.91794 
L 182.440485 16.745793 
L 182.955133 16.831629 
L 183.341119 17.12951 
L 184.370415 18.124618 
L 184.627739 18.038257 
L 184.949394 17.626101 
L 185.592704 16.703022 
L 185.914359 16.652947 
L 186.300345 16.827674 
L 187.007986 17.240548 
L 187.522634 17.15835 
L 188.4876 16.865953 
L 190.031544 16.902647 
L 190.481861 17.354232 
L 191.06084 17.8825 
L 191.318164 17.874873 
L 191.70415 17.579815 
L 192.218798 17.23431 
L 192.540453 17.30893 
L 193.441087 17.792004 
L 193.762742 17.612367 
L 194.470383 17.143532 
L 195.049362 17.058195 
L 195.306686 17.249348 
L 195.949996 17.903177 
L 196.271651 17.869067 
L 196.593306 17.562862 
L 197.365279 16.643188 
L 197.622603 16.695496 
L 197.944258 17.077118 
L 198.587568 17.934436 
L 198.844892 17.936525 
L 199.166547 17.655933 
L 200.324505 16.462199 
L 200.64616 16.565779 
L 201.096477 17.011074 
L 201.868449 17.808629 
L 202.190104 17.843995 
L 202.511759 17.640413 
L 203.155069 16.83473 
L 203.605386 16.455832 
L 203.927041 16.469152 
L 204.248696 16.723804 
L 205.406654 17.889933 
L 205.728309 17.79228 
L 206.178627 17.333714 
L 206.950599 16.518073 
L 207.336585 16.434757 
L 207.722571 16.602932 
L 208.430212 17.245873 
L 209.137853 17.772263 
L 209.652501 17.891261 
L 210.167149 17.790603 
L 210.87479 17.41099 
L 212.418734 16.510797 
L 213.062044 16.43602 
L 213.641023 16.592211 
L 214.412995 17.053494 
L 215.763947 17.929221 
L 216.214264 17.878158 
L 216.986236 17.505853 
L 218.079863 16.901181 
L 218.658842 16.924435 
L 219.302152 17.140301 
L 220.267117 17.538103 
L 220.717434 17.470499 
L 221.682399 17.224698 
L 222.325709 17.515746 
L 222.904688 17.641014 
L 224.577295 17.653908 
L 226.957542 16.967843 
L 228.308493 16.877667 
L 229.016134 16.892671 
L 230.560078 17.06132 
L 233.454974 17.005858 
L 234.355608 17.125896 
L 235.963883 17.335173 
L 236.349869 17.339631 
L 236.349869 17.339631 
" clip-path="url(#p06e5717068)" style="fill: none; stroke: #2ca02c; stroke-width: 0.5; stroke-linecap: square"/>
   </g>
   <g id="line2d_17">
    <path d="M 43.356847 17.16044 
L 53.199491 17.061 
L 54.228787 16.951621 
L 54.743436 17.208457 
L 55.258084 17.408919 
L 55.64407 17.281472 
L 56.544704 16.805872 
L 56.93069 17.038235 
L 57.381007 17.226874 
L 57.895655 17.454496 
L 58.474634 17.58387 
L 58.796289 17.558735 
L 59.117944 17.255262 
L 59.696923 16.675343 
L 59.889916 16.78364 
L 60.275902 17.470934 
L 60.597557 17.823785 
L 60.854881 17.725907 
L 61.305198 17.482585 
L 62.07717 17.466689 
L 62.463156 17.001028 
L 62.913473 16.472823 
L 63.170797 16.590436 
L 64.521749 17.611313 
L 65.422383 17.256228 
L 65.937031 16.676891 
L 66.194355 16.766677 
L 67.15932 17.34623 
L 67.416644 17.227893 
L 68.188616 16.561285 
L 68.44594 16.561126 
L 68.703264 16.856699 
L 69.217912 17.553686 
L 69.668229 17.679755 
L 69.989884 17.625027 
L 70.311539 17.22357 
L 70.761856 16.721384 
L 71.01918 16.751795 
L 72.048476 17.259204 
L 75.007703 17.084225 
L 76.358654 17.291468 
L 77.38795 17.072268 
L 78.159922 17.032968 
L 80.926155 17.227726 
L 83.242072 17.022323 
L 84.721685 17.169125 
L 86.651615 17.359573 
L 87.487918 17.212206 
L 89.224855 16.892446 
L 89.739503 17.022034 
L 91.347779 17.799698 
L 91.798096 17.577638 
L 92.441406 17.272927 
L 94.049681 17.072224 
L 96.815914 17.058186 
L 99.517817 17.339289 
L 100.675775 17.761941 
L 101.383416 17.590702 
L 103.699332 17.023699 
L 105.950917 16.903402 
L 107.301868 17.041515 
L 109.682116 17.392005 
L 110.647081 17.234173 
L 112.126694 16.927131 
L 112.770004 17.065174 
L 113.927962 17.395522 
L 114.506941 17.26736 
L 115.600568 16.925216 
L 116.179547 17.048383 
L 117.208844 17.364313 
L 117.723492 17.231154 
L 118.817119 16.839529 
L 119.267436 16.97253 
L 119.717753 17.346757 
L 120.425394 17.991076 
L 120.747049 17.945607 
L 121.068704 17.641672 
L 121.583352 16.719699 
L 121.905007 16.311151 
L 122.098 16.294388 
L 122.355324 16.535619 
L 122.74131 16.873584 
L 123.577613 17.07482 
L 124.156592 17.329171 
L 124.413916 17.120157 
L 124.735571 16.861494 
L 124.928564 16.947079 
L 125.571874 17.415792 
L 125.89353 17.288243 
L 126.343847 16.822325 
L 126.665502 16.564792 
L 126.922826 16.676408 
L 127.630467 17.237636 
L 128.016453 17.353009 
L 128.531101 17.681912 
L 128.788425 17.494019 
L 129.238742 17.135089 
L 129.882052 16.97061 
L 130.203707 16.900005 
L 130.525362 17.171373 
L 130.975679 17.505827 
L 131.618989 17.6082 
L 132.004975 17.458991 
L 132.712616 16.991983 
L 133.098602 17.073754 
L 133.806243 17.293518 
L 134.063567 17.192573 
L 134.513884 16.655562 
L 134.83554 16.459474 
L 135.092864 16.594019 
L 135.543181 17.231043 
L 136.12216 17.939932 
L 136.379484 18.003293 
L 136.636808 17.848847 
L 137.087125 17.211266 
L 137.730435 16.304839 
L 138.05209 16.219446 
L 138.309414 16.396423 
L 138.759731 17.081687 
L 139.403041 18.024595 
L 139.724696 18.111002 
L 139.98202 17.938398 
L 140.432337 17.260093 
L 141.075647 16.309579 
L 141.397302 16.204593 
L 141.654626 16.349449 
L 142.040612 16.853365 
L 142.876915 18.000892 
L 143.19857 18.121397 
L 143.520225 18.018299 
L 143.970543 17.601254 
L 145.192832 16.349331 
L 145.70748 16.199692 
L 146.222128 16.312124 
L 146.865438 16.725834 
L 148.666706 18.063113 
L 149.181354 18.119987 
L 149.696002 17.960536 
L 150.403643 17.4747 
L 151.754594 16.481275 
L 152.269242 16.428767 
L 152.71956 16.619273 
L 154.520828 17.670928 
L 155.035476 17.657096 
L 155.93611 17.346854 
L 157.673047 16.615526 
L 159.023998 16.605625 
L 159.860301 16.948331 
L 160.825266 17.296264 
L 161.790232 17.398721 
L 164.685127 17.166676 
L 165.585761 16.960147 
L 166.100409 17.114629 
L 166.872381 17.381615 
L 167.387029 17.269597 
L 168.09467 17.111759 
L 169.252628 16.951603 
L 170.346256 16.856267 
L 171.311221 17.022794 
L 173.434144 17.473758 
L 174.270447 17.373392 
L 176.522032 16.902114 
L 177.229673 17.214511 
L 177.937314 17.469434 
L 178.387631 17.410893 
L 179.159603 17.009802 
L 179.738583 16.847005 
L 180.1889 16.953579 
L 181.539851 17.480106 
L 182.11883 17.34372 
L 182.890802 16.919877 
L 183.534112 16.59803 
L 183.855767 16.666991 
L 184.241753 17.018502 
L 185.142387 18.099298 
L 185.399711 17.805064 
L 185.97869 17.038918 
L 186.493338 16.825957 
L 186.750662 16.977886 
L 187.586965 17.660206 
L 187.844289 17.67352 
L 188.358938 17.373766 
L 188.744924 17.179506 
L 189.13091 17.291158 
L 189.516896 17.348157 
L 189.77422 17.120715 
L 190.353199 16.463178 
L 190.610523 16.481412 
L 190.932178 16.794294 
L 191.575488 17.535645 
L 191.832812 17.482542 
L 192.218798 17.134157 
L 192.669115 16.749063 
L 193.055101 16.812268 
L 193.376756 17.074184 
L 193.827073 17.48642 
L 194.084397 17.424261 
L 194.599045 17.181341 
L 194.856369 17.093758 
L 195.113693 16.711609 
L 195.435348 16.295202 
L 195.628341 16.376302 
L 196.20732 17.195147 
L 196.786299 17.954691 
L 196.979292 17.889263 
L 197.300948 17.480169 
L 198.008589 16.524463 
L 198.201582 16.515879 
L 198.458906 16.775813 
L 199.295209 17.795797 
L 199.681195 17.889882 
L 199.938519 17.729413 
L 201.160808 16.475603 
L 201.482463 16.550937 
L 201.868449 16.917545 
L 202.769083 17.86027 
L 203.090738 17.847328 
L 203.412393 17.590524 
L 204.570351 16.430211 
L 204.892006 16.540678 
L 205.342323 17.030552 
L 206.049965 17.813029 
L 206.37162 17.887773 
L 206.693275 17.74352 
L 207.272254 17.147157 
L 207.915564 16.55231 
L 208.365881 16.429996 
L 208.816198 16.560325 
L 209.523839 17.056294 
L 210.553135 17.738389 
L 211.196445 17.890483 
L 211.775424 17.803582 
L 212.483065 17.455823 
L 214.284333 16.446628 
L 214.863313 16.404521 
L 215.377961 16.629057 
L 216.342926 17.129274 
L 217.822539 17.485414 
L 218.916166 17.186167 
L 219.495145 16.984573 
L 220.138455 17.069102 
L 220.974758 17.060109 
L 221.682399 17.191056 
L 222.454371 17.310809 
L 223.740992 17.525985 
L 224.512964 17.534301 
L 227.279197 17.11953 
L 228.308493 17.003434 
L 228.951803 17.146323 
L 230.431416 17.532017 
L 231.267719 17.324434 
L 232.168353 17.200389 
L 234.741594 16.981318 
L 236.092545 17.137094 
L 236.349869 17.180267 
L 236.349869 17.180267 
" clip-path="url(#p06e5717068)" style="fill: none; stroke: #d62728; stroke-width: 0.5; stroke-linecap: square"/>
   </g>
   <g id="patch_3">
    <path d="M 33.707196 202.559296 
L 33.707196 7.2 
" style="fill: none; stroke: #000000; stroke-width: 0.8; stroke-linejoin: miter; stroke-linecap: square"/>
   </g>
   <g id="patch_4">
    <path d="M 245.99952 202.559296 
L 245.99952 7.2 
" style="fill: none; stroke: #000000; stroke-width: 0.8; stroke-linejoin: miter; stroke-linecap: square"/>
   </g>
   <g id="patch_5">
    <path d="M 33.707196 202.559296 
L 245.99952 202.559296 
" style="fill: none; stroke: #000000; stroke-width: 0.8; stroke-linejoin: miter; stroke-linecap: square"/>
   </g>
   <g id="patch_6">
    <path d="M 33.707196 7.2 
L 245.99952 7.2 
" style="fill: none; stroke: #000000; stroke-width: 0.8; stroke-linejoin: miter; stroke-linecap: square"/>
   </g>
   <g id="legend_1">
    <g id="patch_7">
     <path d="M 116.8999 198.059296 
L 162.806816 198.059296 
Q 164.606816 198.059296 164.606816 196.259296 
L 164.606816 156.760168 
Q 164.606816 154.960168 162.806816 154.960168 
L 116.8999 154.960168 
Q 115.0999 154.960168 115.0999 156.760168 
L 115.0999 196.259296 
Q 115.0999 198.059296 116.8999 198.059296 
z
" style="fill: #ffffff; opacity: 0.8; stroke: #cccccc; stroke-width: 0.24; stroke-linejoin: miter"/>
    </g>
    <g id="line2d_18">
     <path d="M 118.6999 162.13495 
L 127.6999 162.13495 
L 136.6999 162.13495 
" style="fill: none; stroke: #ff7f0e; stroke-width: 0.5; stroke-linecap: square"/>
    </g>
    <g id="text_16">
     <!-- $\langle \sigma_z\rangle$ -->
     <g transform="translate(143.8999 165.28495) scale(0.09 -0.09)">
      <defs>
       <path id="CMSY10-68" d="M 2099 4557 
C 2131 4627 2131 4640 2131 4672 
C 2131 4742 2074 4800 2003 4800 
C 1946 4800 1901 4768 1856 4653 
L 736 1715 
C 723 1677 704 1638 704 1600 
C 704 1581 704 1568 736 1491 
L 1856 -1446 
C 1882 -1517 1914 -1600 2003 -1600 
C 2074 -1600 2131 -1542 2131 -1472 
C 2131 -1453 2131 -1440 2099 -1370 
L 966 1600 
L 2099 4557 
z
" transform="scale(0.015625)"/>
       <path id="CMMI12-1b" d="M 3251 2408 
C 3334 2408 3546 2408 3546 2612 
C 3546 2752 3424 2752 3309 2752 
L 1894 2752 
C 934 2752 243 1686 243 932 
C 243 390 595 -64 1171 -64 
C 1926 -64 2752 747 2752 1705 
C 2752 1954 2694 2196 2541 2408 
L 3251 2408 
z
M 1178 64 
C 851 64 614 313 614 754 
C 614 1137 845 2408 1786 2408 
C 2061 2408 2368 2274 2368 1781 
C 2368 1558 2266 1021 2042 652 
C 1811 275 1466 64 1178 64 
z
" transform="scale(0.015625)"/>
       <path id="CMMI12-7a" d="M 813 486 
C 1088 803 1312 1004 1632 1296 
C 2016 1632 2182 1793 2272 1891 
C 2720 2338 2944 2713 2944 2764 
C 2944 2816 2893 2816 2880 2816 
C 2835 2816 2822 2793 2790 2750 
C 2630 2494 2477 2367 2310 2367 
C 2176 2367 2106 2421 1984 2565 
C 1850 2715 1741 2816 1555 2816 
C 1088 2816 806 2257 806 2128 
C 806 2108 813 2068 870 2068 
C 922 2068 928 2091 947 2133 
C 1056 2372 1363 2414 1485 2414 
C 1619 2414 1747 2376 1882 2327 
C 2125 2240 2227 2240 2291 2240 
C 2336 2240 2362 2240 2394 2246 
C 2182 1994 1837 1683 1549 1418 
L 902 816 
C 512 415 275 33 275 -12 
C 275 -51 307 -64 346 -64 
C 384 -64 390 -57 435 14 
C 538 163 742 384 979 384 
C 1114 384 1178 342 1306 193 
C 1427 61 1536 -64 1741 -64 
C 2368 -64 2726 732 2726 876 
C 2726 903 2720 942 2656 942 
C 2605 942 2598 917 2579 855 
C 2438 488 2061 338 1811 338 
C 1677 338 1549 376 1414 425 
C 1158 512 1088 512 1005 512 
C 941 512 870 512 813 486 
z
" transform="scale(0.015625)"/>
       <path id="CMSY10-69" d="M 1747 1491 
C 1779 1568 1779 1581 1779 1600 
C 1779 1619 1779 1632 1747 1709 
L 627 4653 
C 589 4762 550 4800 480 4800 
C 410 4800 352 4742 352 4672 
C 352 4653 352 4640 384 4570 
L 1517 1600 
L 384 -1357 
C 352 -1427 352 -1440 352 -1472 
C 352 -1542 410 -1600 480 -1600 
C 563 -1600 589 -1536 614 -1472 
L 1747 1491 
z
" transform="scale(0.015625)"/>
      </defs>
      <use xlink:href="#CMSY10-68" transform="scale(0.996264)"/>
      <use xlink:href="#CMMI12-1b" transform="translate(38.743734 0) scale(0.996264)"/>
      <use xlink:href="#CMMI12-7a" transform="translate(94.189195 -14.943915) scale(0.697382)"/>
      <use xlink:href="#CMSY10-69" transform="translate(129.51575 0) scale(0.996264)"/>
     </g>
    </g>
    <g id="line2d_19">
     <path d="M 118.6999 175.601326 
L 127.6999 175.601326 
L 136.6999 175.601326 
" style="fill: none; stroke: #2ca02c; stroke-width: 0.5; stroke-linecap: square"/>
    </g>
    <g id="text_17">
     <!-- $\langle \sigma_x\rangle$ -->
     <g transform="translate(143.8999 178.751326) scale(0.09 -0.09)">
      <defs>
       <path id="CMMI12-78" d="M 3034 2606 
C 2829 2567 2752 2414 2752 2293 
C 2752 2139 2874 2088 2963 2088 
C 3155 2088 3290 2254 3290 2427 
C 3290 2695 2982 2816 2714 2816 
C 2323 2816 2106 2433 2048 2312 
C 1901 2816 1504 2816 1389 2816 
C 736 2816 390 1980 390 1839 
C 390 1814 416 1782 461 1782 
C 512 1782 525 1820 538 1846 
C 755 2555 1184 2689 1370 2689 
C 1658 2689 1715 2420 1715 2267 
C 1715 2127 1677 1980 1600 1673 
L 1382 798 
C 1286 415 1101 64 762 64 
C 730 64 570 64 435 147 
C 666 192 717 383 717 460 
C 717 588 621 664 499 664 
C 346 664 179 530 179 326 
C 179 57 480 -64 755 -64 
C 1062 -64 1280 179 1414 441 
C 1517 64 1837 -64 2074 -64 
C 2726 -64 3072 773 3072 913 
C 3072 945 3046 971 3008 971 
C 2950 971 2944 939 2925 888 
C 2752 326 2381 64 2093 64 
C 1869 64 1747 230 1747 492 
C 1747 632 1773 734 1875 1156 
L 2099 2024 
C 2195 2408 2413 2689 2707 2689 
C 2720 2689 2899 2689 3034 2606 
z
" transform="scale(0.015625)"/>
      </defs>
      <use xlink:href="#CMSY10-68" transform="scale(0.996264)"/>
      <use xlink:href="#CMMI12-1b" transform="translate(38.743734 0) scale(0.996264)"/>
      <use xlink:href="#CMMI12-78" transform="translate(94.189195 -14.943915) scale(0.697382)"/>
      <use xlink:href="#CMSY10-69" transform="translate(133.490986 0) scale(0.996264)"/>
     </g>
    </g>
    <g id="line2d_20">
     <path d="M 118.6999 189.067702 
L 127.6999 189.067702 
L 136.6999 189.067702 
" style="fill: none; stroke: #d62728; stroke-width: 0.5; stroke-linecap: square"/>
    </g>
    <g id="text_18">
     <!-- $\langle \sigma_y\rangle$ -->
     <g transform="translate(143.8999 192.217702) scale(0.09 -0.09)">
      <defs>
       <path id="CMMI12-79" d="M 1683 -700 
C 1510 -939 1261 -1152 947 -1152 
C 870 -1152 563 -1152 467 -889 
C 486 -895 518 -895 531 -895 
C 723 -895 851 -729 851 -582 
C 851 -435 730 -384 634 -384 
C 531 -384 307 -458 307 -759 
C 307 -1071 582 -1286 947 -1286 
C 1587 -1286 2234 -700 2413 6 
L 3040 2485 
C 3046 2517 3059 2556 3059 2594 
C 3059 2689 2982 2753 2886 2753 
C 2829 2753 2694 2727 2643 2535 
L 2170 658 
C 2138 543 2138 530 2086 460 
C 1958 281 1747 64 1440 64 
C 1082 64 1050 415 1050 588 
C 1050 952 1222 1443 1395 1903 
C 1466 2088 1504 2178 1504 2305 
C 1504 2574 1312 2816 998 2816 
C 410 2816 173 1890 173 1839 
C 173 1814 198 1782 243 1782 
C 301 1782 307 1807 333 1897 
C 486 2433 730 2689 979 2689 
C 1037 2689 1146 2689 1146 2478 
C 1146 2312 1075 2127 979 1884 
C 666 1047 666 837 666 683 
C 666 77 1101 -64 1421 -64 
C 1606 -64 1837 -6 2061 230 
L 2067 224 
C 1971 -147 1907 -392 1683 -700 
z
" transform="scale(0.015625)"/>
      </defs>
      <use xlink:href="#CMSY10-68" transform="scale(0.996264)"/>
      <use xlink:href="#CMMI12-1b" transform="translate(38.743734 0) scale(0.996264)"/>
      <use xlink:href="#CMMI12-79" transform="translate(94.189195 -14.943915) scale(0.697382)"/>
      <use xlink:href="#CMSY10-69" transform="translate(130.484301 0) scale(0.996264)"/>
     </g>
    </g>
   </g>
  </g>
 </g>
 <defs>
  <clipPath id="p06e5717068">
   <rect x="33.707196" y="7.2" width="212.292324" height="195.359296"/>
  </clipPath>
 </defs>
</svg>
