<?xml version="1.0" encoding="utf-8" standalone="no"?>
<!DOCTYPE svg PUBLIC "-//W3C//DTD SVG 1.1//EN"
  "http://www.w3.org/Graphics/SVG/1.1/DTD/svg11.dtd">
<svg xmlns:xlink="http://www.w3.org/1999/xlink" width="253.19952pt" height="238.79952pt" viewBox="0 0 253.19952 238.79952" xmlns="http://www.w3.org/2000/svg" version="1.1">
 <metadata>
  <rdf:RDF xmlns:dc="http://purl.org/dc/elements/1.1/" xmlns:cc="http://creativecommons.org/ns#" xmlns:rdf="http://www.w3.org/1999/02/22-rdf-syntax-ns#">
   <cc:Work>
    <dc:type rdf:resource="http://purl.org/dc/dcmitype/StillImage"/>
    <dc:date>1980-01-01T00:00:00+00:00</dc:date>
    <dc:format>image/svg+xml</dc:format>
    <dc:creator>
     <cc:Agent>
      <dc:title>Matplotlib v3.6.2, https://matplotlib.org/</dc:title>
     </cc:Agent>
    </dc:creator>
   </cc:Work>
  </rdf:RDF>
 </metadata>
 <defs>
  <style type="text/css">*{stroke-linejoin: round; stroke-linecap: butt}</style>
 </defs>
 <g id="figure_1">
  <g id="patch_1">
   <path d="M 0 238.79952 
L 253.19952 238.79952 
L 253.19952 0 
L 0 0 
z
" style="fill: #ffffff"/>
  </g>
  <g id="axes_1">
   <g id="patch_2">
    <path d="M 33.707196 202.559296 
L 245.99952 202.559296 
L 245.99952 7.2 
L 33.707196 7.2 
z
" style="fill: #ffffff"/>
   </g>
   <g id="matplotlib.axis_1">
    <g id="xtick_1">
     <g id="line2d_1">
      <defs>
       <path id="mca3501af69" d="M 0 0 
L 0 3.5 
" style="stroke: #000000; stroke-width: 0.8"/>
      </defs>
      <g>
       <use xlink:href="#mca3501af69" x="43.356847" y="202.559296" style="stroke: #000000; stroke-width: 0.8"/>
      </g>
     </g>
     <g id="text_1">
      <!-- $\mathdefault{0}$ -->
      <g transform="translate(41.239756 217.194098) scale(0.08 -0.08)">
       <defs>
        <path id="CMR17-30" d="M 2688 2025 
C 2688 2416 2682 3080 2413 3591 
C 2176 4039 1798 4198 1466 4198 
C 1158 4198 768 4058 525 3597 
C 269 3118 243 2524 243 2025 
C 243 1661 250 1106 448 619 
C 723 -39 1216 -128 1466 -128 
C 1760 -128 2208 -7 2470 600 
C 2662 1042 2688 1559 2688 2025 
z
M 1466 -26 
C 1056 -26 813 325 723 812 
C 653 1188 653 1738 653 2096 
C 653 2588 653 2997 736 3387 
C 858 3929 1216 4096 1466 4096 
C 1728 4096 2067 3923 2189 3400 
C 2272 3036 2278 2607 2278 2096 
C 2278 1680 2278 1169 2202 792 
C 2067 95 1690 -26 1466 -26 
z
" transform="scale(0.015625)"/>
       </defs>
       <use xlink:href="#CMR17-30" transform="scale(0.996264)"/>
      </g>
     </g>
    </g>
    <g id="xtick_2">
     <g id="line2d_2">
      <g>
       <use xlink:href="#mca3501af69" x="70.161434" y="202.559296" style="stroke: #000000; stroke-width: 0.8"/>
      </g>
     </g>
     <g id="text_2">
      <!-- $\mathdefault{25}$ -->
      <g transform="translate(65.927251 217.194098) scale(0.08 -0.08)">
       <defs>
        <path id="CMR17-32" d="M 2669 989 
L 2554 989 
C 2490 536 2438 459 2413 420 
C 2381 369 1920 369 1830 369 
L 602 369 
C 832 619 1280 1072 1824 1597 
C 2214 1967 2669 2402 2669 3035 
C 2669 3790 2067 4224 1395 4224 
C 691 4224 262 3604 262 3030 
C 262 2780 448 2748 525 2748 
C 589 2748 781 2787 781 3010 
C 781 3207 614 3264 525 3264 
C 486 3264 448 3258 422 3245 
C 544 3790 915 4058 1306 4058 
C 1862 4058 2227 3617 2227 3035 
C 2227 2479 1901 2000 1536 1584 
L 262 146 
L 262 0 
L 2515 0 
L 2669 989 
z
" transform="scale(0.015625)"/>
        <path id="CMR17-35" d="M 730 3692 
C 794 3666 1056 3584 1325 3584 
C 1920 3584 2246 3911 2432 4100 
C 2432 4157 2432 4192 2394 4192 
C 2387 4192 2374 4192 2323 4163 
C 2099 4058 1837 3973 1517 3973 
C 1325 3973 1037 3999 723 4139 
C 653 4171 640 4171 634 4171 
C 602 4171 595 4164 595 4037 
L 595 2203 
C 595 2089 595 2057 659 2057 
C 691 2057 704 2070 736 2114 
C 941 2401 1222 2522 1542 2522 
C 1766 2522 2246 2382 2246 1289 
C 2246 1085 2246 715 2054 421 
C 1894 159 1645 25 1370 25 
C 947 25 518 320 403 814 
C 429 807 480 795 506 795 
C 589 795 749 840 749 1038 
C 749 1210 627 1280 506 1280 
C 358 1280 262 1190 262 1011 
C 262 454 704 -128 1382 -128 
C 2042 -128 2669 440 2669 1264 
C 2669 2030 2170 2624 1549 2624 
C 1222 2624 947 2503 730 2274 
L 730 3692 
z
" transform="scale(0.015625)"/>
       </defs>
       <use xlink:href="#CMR17-32" transform="scale(0.996264)"/>
       <use xlink:href="#CMR17-35" transform="translate(45.690477 0) scale(0.996264)"/>
      </g>
     </g>
    </g>
    <g id="xtick_3">
     <g id="line2d_3">
      <g>
       <use xlink:href="#mca3501af69" x="96.96602" y="202.559296" style="stroke: #000000; stroke-width: 0.8"/>
      </g>
     </g>
     <g id="text_3">
      <!-- $\mathdefault{50}$ -->
      <g transform="translate(92.731837 217.194098) scale(0.08 -0.08)">
       <use xlink:href="#CMR17-35" transform="scale(0.996264)"/>
       <use xlink:href="#CMR17-30" transform="translate(45.690477 0) scale(0.996264)"/>
      </g>
     </g>
    </g>
    <g id="xtick_4">
     <g id="line2d_4">
      <g>
       <use xlink:href="#mca3501af69" x="123.770606" y="202.559296" style="stroke: #000000; stroke-width: 0.8"/>
      </g>
     </g>
     <g id="text_4">
      <!-- $\mathdefault{75}$ -->
      <g transform="translate(119.536423 217.194098) scale(0.08 -0.08)">
       <defs>
        <path id="CMR17-37" d="M 2886 3941 
L 2886 4081 
L 1382 4081 
C 634 4081 621 4165 595 4288 
L 480 4288 
L 294 3094 
L 410 3094 
C 429 3215 474 3540 550 3661 
C 589 3712 1062 3712 1171 3712 
L 2579 3712 
L 1869 2661 
C 1395 1954 1069 999 1069 165 
C 1069 89 1069 -128 1299 -128 
C 1530 -128 1530 89 1530 171 
L 1530 465 
C 1530 1508 1709 2196 2003 2636 
L 2886 3941 
z
" transform="scale(0.015625)"/>
       </defs>
       <use xlink:href="#CMR17-37" transform="scale(0.996264)"/>
       <use xlink:href="#CMR17-35" transform="translate(45.690477 0) scale(0.996264)"/>
      </g>
     </g>
    </g>
    <g id="xtick_5">
     <g id="line2d_5">
      <g>
       <use xlink:href="#mca3501af69" x="150.575193" y="202.559296" style="stroke: #000000; stroke-width: 0.8"/>
      </g>
     </g>
     <g id="text_5">
      <!-- $\mathdefault{100}$ -->
      <g transform="translate(144.223918 217.194098) scale(0.08 -0.08)">
       <defs>
        <path id="CMR17-31" d="M 1702 4058 
C 1702 4192 1696 4192 1606 4192 
C 1357 3916 979 3827 621 3827 
C 602 3827 570 3827 563 3808 
C 557 3795 557 3782 557 3648 
C 755 3648 1088 3686 1344 3839 
L 1344 461 
C 1344 236 1331 160 781 160 
L 589 160 
L 589 0 
C 896 0 1216 0 1523 0 
C 1830 0 2150 0 2458 0 
L 2458 160 
L 2266 160 
C 1715 160 1702 230 1702 458 
L 1702 4058 
z
" transform="scale(0.015625)"/>
       </defs>
       <use xlink:href="#CMR17-31" transform="scale(0.996264)"/>
       <use xlink:href="#CMR17-30" transform="translate(45.690477 0) scale(0.996264)"/>
       <use xlink:href="#CMR17-30" transform="translate(91.380954 0) scale(0.996264)"/>
      </g>
     </g>
    </g>
    <g id="xtick_6">
     <g id="line2d_6">
      <g>
       <use xlink:href="#mca3501af69" x="177.379779" y="202.559296" style="stroke: #000000; stroke-width: 0.8"/>
      </g>
     </g>
     <g id="text_6">
      <!-- $\mathdefault{125}$ -->
      <g transform="translate(171.028505 217.194098) scale(0.08 -0.08)">
       <use xlink:href="#CMR17-31" transform="scale(0.996264)"/>
       <use xlink:href="#CMR17-32" transform="translate(45.690477 0) scale(0.996264)"/>
       <use xlink:href="#CMR17-35" transform="translate(91.380954 0) scale(0.996264)"/>
      </g>
     </g>
    </g>
    <g id="xtick_7">
     <g id="line2d_7">
      <g>
       <use xlink:href="#mca3501af69" x="204.184365" y="202.559296" style="stroke: #000000; stroke-width: 0.8"/>
      </g>
     </g>
     <g id="text_7">
      <!-- $\mathdefault{150}$ -->
      <g transform="translate(197.833091 217.194098) scale(0.08 -0.08)">
       <use xlink:href="#CMR17-31" transform="scale(0.996264)"/>
       <use xlink:href="#CMR17-35" transform="translate(45.690477 0) scale(0.996264)"/>
       <use xlink:href="#CMR17-30" transform="translate(91.380954 0) scale(0.996264)"/>
      </g>
     </g>
    </g>
    <g id="xtick_8">
     <g id="line2d_8">
      <g>
       <use xlink:href="#mca3501af69" x="230.988952" y="202.559296" style="stroke: #000000; stroke-width: 0.8"/>
      </g>
     </g>
     <g id="text_8">
      <!-- $\mathdefault{175}$ -->
      <g transform="translate(224.637677 217.194098) scale(0.08 -0.08)">
       <use xlink:href="#CMR17-31" transform="scale(0.996264)"/>
       <use xlink:href="#CMR17-37" transform="translate(45.690477 0) scale(0.996264)"/>
       <use xlink:href="#CMR17-35" transform="translate(91.380954 0) scale(0.996264)"/>
      </g>
     </g>
    </g>
    <g id="text_9">
     <!-- $\tau$ -->
     <g transform="translate(137.675756 229.662342) scale(0.1 -0.1)">
      <defs>
       <path id="CMMI12-1c" d="M 1837 2408 
L 2899 2408 
C 2982 2408 3194 2408 3194 2612 
C 3194 2752 3072 2752 2957 2752 
L 1197 2752 
C 1050 2752 832 2752 538 2440 
C 371 2255 166 1917 166 1879 
C 166 1841 198 1828 237 1828 
C 282 1828 288 1847 320 1885 
C 653 2408 986 2408 1146 2408 
L 1677 2408 
L 1011 223 
C 979 127 979 114 979 95 
C 979 25 1024 -64 1152 -64 
C 1350 -64 1382 108 1402 203 
L 1837 2408 
z
" transform="scale(0.015625)"/>
      </defs>
      <use xlink:href="#CMMI12-1c" transform="scale(0.996264)"/>
     </g>
    </g>
   </g>
   <g id="matplotlib.axis_2">
    <g id="ytick_1">
     <g id="line2d_9">
      <defs>
       <path id="m374cfef3c3" d="M 0 0 
L -3.5 0 
" style="stroke: #000000; stroke-width: 0.8"/>
      </defs>
      <g>
       <use xlink:href="#m374cfef3c3" x="33.707196" y="193.679328" style="stroke: #000000; stroke-width: 0.8"/>
      </g>
     </g>
     <g id="text_10">
      <!-- $\mathdefault{−1.0}$ -->
      <g transform="translate(7.2 196.446729) scale(0.08 -0.08)">
       <defs>
        <path id="CMSY10-0" d="M 4218 1472 
C 4326 1472 4442 1472 4442 1600 
C 4442 1728 4326 1728 4218 1728 
L 755 1728 
C 646 1728 531 1728 531 1600 
C 531 1472 646 1472 755 1472 
L 4218 1472 
z
" transform="scale(0.015625)"/>
        <path id="CMMI12-3a" d="M 1178 307 
C 1178 492 1024 619 870 619 
C 685 619 557 466 557 313 
C 557 128 710 0 864 0 
C 1050 0 1178 153 1178 307 
z
" transform="scale(0.015625)"/>
       </defs>
       <use xlink:href="#CMSY10-0" transform="scale(0.996264)"/>
       <use xlink:href="#CMR17-31" transform="translate(77.487468 0) scale(0.996264)"/>
       <use xlink:href="#CMMI12-3a" transform="translate(123.177945 0) scale(0.996264)"/>
       <use xlink:href="#CMR17-30" transform="translate(150.275122 0) scale(0.996264)"/>
      </g>
     </g>
    </g>
    <g id="ytick_2">
     <g id="line2d_10">
      <g>
       <use xlink:href="#m374cfef3c3" x="33.707196" y="158.338021" style="stroke: #000000; stroke-width: 0.8"/>
      </g>
     </g>
     <g id="text_11">
      <!-- $\mathdefault{−0.8}$ -->
      <g transform="translate(7.2 161.105422) scale(0.08 -0.08)">
       <defs>
        <path id="CMR17-38" d="M 1741 2264 
C 2144 2467 2554 2773 2554 3263 
C 2554 3841 1990 4179 1472 4179 
C 890 4179 378 3759 378 3180 
C 378 3021 416 2747 666 2505 
C 730 2442 998 2251 1171 2130 
C 883 1983 211 1634 211 934 
C 211 279 838 -128 1459 -128 
C 2144 -128 2720 362 2720 1010 
C 2720 1590 2330 1857 2074 2029 
L 1741 2264 
z
M 902 2822 
C 851 2854 595 3051 595 3351 
C 595 3739 998 4032 1459 4032 
C 1965 4032 2336 3676 2336 3262 
C 2336 2669 1670 2331 1638 2331 
C 1632 2331 1626 2331 1574 2370 
L 902 2822 
z
M 2080 1519 
C 2176 1449 2483 1240 2483 851 
C 2483 381 2010 25 1472 25 
C 890 25 448 438 448 940 
C 448 1443 838 1862 1280 2060 
L 2080 1519 
z
" transform="scale(0.015625)"/>
       </defs>
       <use xlink:href="#CMSY10-0" transform="scale(0.996264)"/>
       <use xlink:href="#CMR17-30" transform="translate(77.487468 0) scale(0.996264)"/>
       <use xlink:href="#CMMI12-3a" transform="translate(123.177945 0) scale(0.996264)"/>
       <use xlink:href="#CMR17-38" transform="translate(150.275122 0) scale(0.996264)"/>
      </g>
     </g>
    </g>
    <g id="ytick_3">
     <g id="line2d_11">
      <g>
       <use xlink:href="#m374cfef3c3" x="33.707196" y="122.996714" style="stroke: #000000; stroke-width: 0.8"/>
      </g>
     </g>
     <g id="text_12">
      <!-- $\mathdefault{−0.6}$ -->
      <g transform="translate(7.2 125.764114) scale(0.08 -0.08)">
       <defs>
        <path id="CMR17-36" d="M 678 2176 
C 678 3690 1395 4032 1811 4032 
C 1946 4032 2272 4009 2400 3776 
C 2298 3776 2106 3776 2106 3553 
C 2106 3381 2246 3323 2336 3323 
C 2394 3323 2566 3348 2566 3560 
C 2566 3954 2246 4179 1805 4179 
C 1043 4179 243 3390 243 1984 
C 243 253 966 -128 1478 -128 
C 2099 -128 2688 427 2688 1283 
C 2688 2081 2170 2662 1517 2662 
C 1126 2662 838 2407 678 1960 
L 678 2176 
z
M 1478 25 
C 691 25 691 1200 691 1436 
C 691 1896 909 2560 1504 2560 
C 1613 2560 1926 2560 2138 2120 
C 2253 1870 2253 1609 2253 1289 
C 2253 944 2253 690 2118 434 
C 1978 171 1773 25 1478 25 
z
" transform="scale(0.015625)"/>
       </defs>
       <use xlink:href="#CMSY10-0" transform="scale(0.996264)"/>
       <use xlink:href="#CMR17-30" transform="translate(77.487468 0) scale(0.996264)"/>
       <use xlink:href="#CMMI12-3a" transform="translate(123.177945 0) scale(0.996264)"/>
       <use xlink:href="#CMR17-36" transform="translate(150.275122 0) scale(0.996264)"/>
      </g>
     </g>
    </g>
    <g id="ytick_4">
     <g id="line2d_12">
      <g>
       <use xlink:href="#m374cfef3c3" x="33.707196" y="87.655407" style="stroke: #000000; stroke-width: 0.8"/>
      </g>
     </g>
     <g id="text_13">
      <!-- $\mathdefault{−0.4}$ -->
      <g transform="translate(7.2 90.422807) scale(0.08 -0.08)">
       <defs>
        <path id="CMR17-34" d="M 2150 4122 
C 2150 4256 2144 4256 2029 4256 
L 128 1254 
L 128 1088 
L 1779 1088 
L 1779 457 
C 1779 224 1766 160 1318 160 
L 1197 160 
L 1197 0 
C 1402 0 1747 0 1965 0 
C 2182 0 2528 0 2733 0 
L 2733 160 
L 2611 160 
C 2163 160 2150 224 2150 457 
L 2150 1088 
L 2803 1088 
L 2803 1254 
L 2150 1254 
L 2150 4122 
z
M 1798 3703 
L 1798 1254 
L 256 1254 
L 1798 3703 
z
" transform="scale(0.015625)"/>
       </defs>
       <use xlink:href="#CMSY10-0" transform="scale(0.996264)"/>
       <use xlink:href="#CMR17-30" transform="translate(77.487468 0) scale(0.996264)"/>
       <use xlink:href="#CMMI12-3a" transform="translate(123.177945 0) scale(0.996264)"/>
       <use xlink:href="#CMR17-34" transform="translate(150.275122 0) scale(0.996264)"/>
      </g>
     </g>
    </g>
    <g id="ytick_5">
     <g id="line2d_13">
      <g>
       <use xlink:href="#m374cfef3c3" x="33.707196" y="52.314099" style="stroke: #000000; stroke-width: 0.8"/>
      </g>
     </g>
     <g id="text_14">
      <!-- $\mathdefault{−0.2}$ -->
      <g transform="translate(7.2 55.0815) scale(0.08 -0.08)">
       <use xlink:href="#CMSY10-0" transform="scale(0.996264)"/>
       <use xlink:href="#CMR17-30" transform="translate(77.487468 0) scale(0.996264)"/>
       <use xlink:href="#CMMI12-3a" transform="translate(123.177945 0) scale(0.996264)"/>
       <use xlink:href="#CMR17-32" transform="translate(150.275122 0) scale(0.996264)"/>
      </g>
     </g>
    </g>
    <g id="ytick_6">
     <g id="line2d_14">
      <g>
       <use xlink:href="#m374cfef3c3" x="33.707196" y="16.972792" style="stroke: #000000; stroke-width: 0.8"/>
      </g>
     </g>
     <g id="text_15">
      <!-- $\mathdefault{0.0}$ -->
      <g transform="translate(13.786507 19.740193) scale(0.08 -0.08)">
       <use xlink:href="#CMR17-30" transform="scale(0.996264)"/>
       <use xlink:href="#CMMI12-3a" transform="translate(45.690477 0) scale(0.996264)"/>
       <use xlink:href="#CMR17-30" transform="translate(72.787654 0) scale(0.996264)"/>
      </g>
     </g>
    </g>
   </g>
   <g id="line2d_15">
    <path d="M 43.356847 193.679328 
L 43.421178 193.397826 
L 43.54984 191.232406 
L 43.871495 179.552435 
L 44.514805 156.479897 
L 44.83646 151.00216 
L 45.093784 149.426666 
L 45.222446 149.429591 
L 45.415439 150.25316 
L 45.737095 153.265655 
L 46.959384 166.76778 
L 47.34537 168.248968 
L 47.667025 168.741777 
L 48.053011 168.942907 
L 48.374666 169.106531 
L 48.696321 169.607332 
L 49.468293 171.492533 
L 50.047272 172.705632 
L 50.497589 173.183406 
L 51.526885 174.034107 
L 52.427519 175.06502 
L 53.392484 176.653592 
L 53.649808 176.709066 
L 53.842801 176.520777 
L 54.100125 175.826095 
L 54.42178 174.002146 
L 54.807767 170.079899 
L 55.258084 163.082856 
L 55.965725 147.790542 
L 57.445338 114.80456 
L 58.281641 100.668597 
L 58.989282 92.465102 
L 60.018578 83.548926 
L 60.919212 77.502727 
L 61.626853 73.998795 
L 63.042135 68.622393 
L 63.621115 67.2681 
L 65.551045 63.952669 
L 66.387348 63.105446 
L 67.287982 61.990965 
L 67.866961 61.655201 
L 68.44594 61.29523 
L 69.08925 61.064652 
L 69.796891 60.810365 
L 70.247208 60.763676 
L 70.697525 60.756216 
L 71.66249 60.518853 
L 72.241469 60.483633 
L 73.785414 60.633598 
L 74.235731 60.701361 
L 74.621717 60.489921 
L 75.265027 60.07498 
L 76.10133 59.874253 
L 76.680309 59.245047 
L 77.066295 58.533638 
L 77.38795 57.463195 
L 77.902598 54.826977 
L 78.610239 49.919493 
L 79.31788 45.431359 
L 79.96119 42.611976 
L 80.475838 41.307798 
L 80.861824 40.770982 
L 81.633797 40.207237 
L 82.148445 40.082803 
L 82.727424 40.152337 
L 83.049079 40.127379 
L 83.435065 39.791404 
L 83.885382 39.50879 
L 84.593023 39.326359 
L 84.979009 39.501245 
L 85.493657 40.029617 
L 86.201298 41.041784 
L 86.651615 42.118698 
L 87.166263 43.970609 
L 87.61658 46.464311 
L 88.131228 50.810818 
L 88.710207 57.722975 
L 89.610841 71.890206 
L 91.026124 93.743466 
L 91.991089 105.43348 
L 92.827392 113.278478 
L 93.728026 119.440454 
L 94.62866 124.048061 
L 95.464963 127.487865 
L 96.365597 130.268204 
L 97.137569 131.874638 
L 98.166865 133.671485 
L 99.003168 134.527502 
L 99.968134 135.388761 
L 100.675775 135.848622 
L 101.319085 136.040279 
L 101.962395 136.183286 
L 103.120353 136.695107 
L 104.085318 136.85836 
L 106.14391 137.195474 
L 106.722889 137.137427 
L 108.65282 137.532721 
L 108.910144 138.064068 
L 109.167468 139.150758 
L 109.553454 142.082836 
L 110.132433 148.755792 
L 111.033067 158.939587 
L 111.483384 161.901109 
L 111.933701 163.414391 
L 113.15599 166.753211 
L 114.120955 169.244691 
L 115.214582 171.26519 
L 117.015851 174.208642 
L 117.659161 175.388235 
L 117.980816 175.559119 
L 118.173809 175.420536 
L 118.431133 174.816763 
L 118.688457 173.561381 
L 119.010112 170.844313 
L 119.396098 165.677066 
L 119.975077 154.509071 
L 122.419655 103.234523 
L 123.320289 91.52688 
L 123.963599 85.939701 
L 125.121557 77.835442 
L 126.472509 71.157045 
L 127.630467 67.219057 
L 128.273777 65.728582 
L 130.525362 62.491876 
L 130.847017 62.336228 
L 131.361665 62.218047 
L 132.905609 60.964827 
L 134.320891 60.922167 
L 137.087125 60.294377 
L 137.537442 60.278614 
L 137.923428 60.264134 
L 138.759731 60.433271 
L 139.210048 60.29916 
L 139.724696 60.206752 
L 141.26864 59.258635 
L 141.525964 58.600364 
L 141.91195 56.834484 
L 142.490929 52.978964 
L 143.391563 46.881057 
L 144.099205 43.824487 
L 144.549522 42.702593 
L 145.514487 41.11509 
L 145.964804 40.751816 
L 147.251424 40.030473 
L 148.087727 40.224006 
L 148.473713 40.378574 
L 148.731037 40.208493 
L 149.181354 39.863663 
L 149.438678 39.973193 
L 150.532305 40.954367 
L 150.918291 41.820099 
L 151.432939 43.565942 
L 151.883256 46.013006 
L 152.397904 50.249381 
L 153.041215 57.803961 
L 153.877518 70.490467 
L 155.421462 94.230019 
L 156.386427 105.98817 
L 157.22273 113.649983 
L 158.187695 120.102913 
L 158.959667 124.014527 
L 159.988963 127.844435 
L 160.953928 130.721857 
L 161.983225 132.86938 
L 162.562204 133.699329 
L 163.655831 134.814364 
L 165.264106 135.755745 
L 166.16474 136.370981 
L 167.387029 136.801038 
L 168.287663 137.173476 
L 168.995304 137.438894 
L 169.702945 137.344246 
L 170.732242 137.237608 
L 171.439883 137.438658 
L 172.083193 137.516375 
L 172.790834 137.481184 
L 173.048158 137.755505 
L 173.305482 138.449217 
L 173.627137 140.141034 
L 174.077454 144.156098 
L 175.75006 161.427835 
L 176.200377 163.112401 
L 179.095272 170.515441 
L 182.311823 175.601207 
L 182.504816 175.478431 
L 182.697809 175.033543 
L 182.955133 173.827242 
L 183.276788 171.25382 
L 183.727105 165.452471 
L 184.306084 154.455811 
L 186.750662 103.041028 
L 187.586965 92.222288 
L 188.230276 86.580722 
L 189.709889 76.59643 
L 190.674854 72.06447 
L 191.639819 68.560453 
L 192.411791 66.180474 
L 192.862108 65.29319 
L 193.569749 64.323171 
L 194.406052 62.958075 
L 194.792038 62.699433 
L 195.56401 62.532841 
L 196.593306 61.406105 
L 197.172286 61.262681 
L 197.751265 61.005014 
L 198.71623 61.003982 
L 199.166547 60.580883 
L 199.552533 60.373846 
L 200.067181 60.159388 
L 200.774822 59.818384 
L 201.997111 59.42498 
L 202.833414 59.667174 
L 203.2194 59.554165 
L 204.120034 59.073655 
L 204.956337 59.147003 
L 205.342323 58.667855 
L 205.79264 57.798174 
L 206.114296 56.603928 
L 206.564613 53.848149 
L 207.915564 45.217309 
L 208.430212 43.18903 
L 209.330846 40.950882 
L 209.781163 40.188918 
L 210.167149 39.936906 
L 210.681797 39.646069 
L 211.5181 38.850654 
L 211.968417 38.589588 
L 212.418734 38.652797 
L 213.44803 38.865391 
L 214.991975 40.903133 
L 215.506623 42.407916 
L 215.95694 44.415806 
L 216.471588 47.849705 
L 217.050567 53.456159 
L 217.758208 63.068757 
L 220.395779 102.720959 
L 221.232082 111.324046 
L 222.197047 118.55494 
L 222.904688 122.454238 
L 223.805323 126.432246 
L 225.027612 130.112026 
L 225.670922 131.568269 
L 227.086204 133.970479 
L 227.858176 134.829039 
L 228.437155 135.191991 
L 230.753071 136.331349 
L 231.33205 136.640767 
L 231.911029 136.916194 
L 234.998918 137.379085 
L 236.349869 137.241435 
L 236.349869 137.241435 
" clip-path="url(#p4f00338462)" style="fill: none; stroke: #1f77b4; stroke-width: 0.5; stroke-linecap: square"/>
   </g>
   <g id="line2d_16">
    <path d="M 43.356847 16.972792 
L 44.128819 16.664617 
L 45.093784 16.588548 
L 50.56192 16.690511 
L 55.708401 16.599356 
L 58.410303 16.488252 
L 70.118546 16.468129 
L 110.647081 16.608499 
L 114.828596 16.67644 
L 119.782084 16.618359 
L 122.676979 16.489091 
L 133.420257 16.467827 
L 175.364074 16.622763 
L 180.960872 16.692195 
L 184.113091 16.617746 
L 187.072317 16.487349 
L 199.35954 16.468498 
L 229.916768 16.546205 
L 236.349869 16.548676 
L 236.349869 16.548676 
" clip-path="url(#p4f00338462)" style="fill: none; stroke: #ff7f0e; stroke-width: 0.5; stroke-linecap: square"/>
   </g>
   <g id="line2d_17">
    <path d="M 43.356847 16.972792 
L 44.450474 17.214804 
L 45.865757 17.128068 
L 46.509067 17.187855 
L 47.088046 17.183051 
L 47.731356 17.188675 
L 49.017976 16.907645 
L 50.175934 17.099727 
L 50.690582 17.078884 
L 51.591216 16.906674 
L 52.105864 16.876394 
L 53.456815 16.948285 
L 54.42178 16.804404 
L 56.030056 17.111999 
L 56.737697 16.93018 
L 57.445338 16.420589 
L 57.831324 16.22345 
L 58.152979 16.296933 
L 58.731958 16.745853 
L 59.310937 17.182674 
L 59.632592 17.139025 
L 60.854881 16.480915 
L 61.369529 16.63384 
L 61.948508 16.789563 
L 62.591818 16.898824 
L 63.170797 17.056806 
L 63.814108 16.902549 
L 64.650411 16.65955 
L 65.100728 17.052622 
L 65.8727 17.632189 
L 66.323017 17.846744 
L 66.644672 17.777717 
L 68.188616 16.93096 
L 69.346574 16.978752 
L 70.440201 16.376056 
L 71.405166 16.568844 
L 71.984145 16.686888 
L 72.498794 16.874909 
L 73.013442 17.051637 
L 73.399428 16.949751 
L 74.107069 16.593286 
L 74.428724 16.768465 
L 75.136365 17.230966 
L 75.586682 17.187744 
L 76.294323 16.924797 
L 76.808971 16.769785 
L 77.38795 16.932505 
L 78.352915 17.248679 
L 79.382211 17.53048 
L 79.832528 17.661174 
L 80.990486 17.650036 
L 81.698128 17.874647 
L 82.212776 17.788054 
L 83.049079 17.412848 
L 83.75672 17.272936 
L 84.593023 17.105352 
L 85.172002 17.177573 
L 85.879643 17.532184 
L 86.394291 17.740891 
L 87.037601 17.668064 
L 87.61658 17.38762 
L 88.324221 17.045617 
L 88.838869 17.070436 
L 89.610841 17.102761 
L 90.704469 17.206185 
L 91.41211 17.248623 
L 92.441406 17.193835 
L 93.149047 17.367774 
L 93.599364 17.213558 
L 94.62866 16.751452 
L 95.336301 16.728076 
L 96.365597 16.914654 
L 96.751583 16.895684 
L 97.394893 16.796005 
L 99.389155 16.977148 
L 100.611444 16.635601 
L 101.319085 16.369241 
L 101.833733 16.55683 
L 103.442008 17.04001 
L 104.020987 16.863998 
L 104.535635 16.743162 
L 105.886586 16.671774 
L 106.336903 16.824061 
L 106.980213 16.9801 
L 109.103137 17.231307 
L 110.647081 17.144952 
L 112.062363 17.243042 
L 113.284652 16.769501 
L 113.734969 16.906447 
L 114.249617 17.148629 
L 114.699934 16.98662 
L 115.600568 16.741736 
L 117.080182 16.705178 
L 119.074443 17.018876 
L 119.717753 16.919903 
L 120.682718 16.668286 
L 121.261697 16.816497 
L 121.905007 17.007827 
L 122.290993 16.904902 
L 122.869972 16.673916 
L 123.191627 16.789531 
L 124.02793 17.207156 
L 124.478247 17.048684 
L 124.928564 16.916051 
L 125.507543 17.020128 
L 126.53684 17.417943 
L 126.858495 17.204263 
L 127.694798 16.438051 
L 128.080784 16.433892 
L 128.595432 16.65745 
L 129.817721 17.402585 
L 130.139376 17.448153 
L 130.654024 17.227584 
L 132.069306 16.565086 
L 132.455292 16.582182 
L 132.841278 16.813185 
L 133.420257 17.165089 
L 133.934905 17.170217 
L 134.320891 16.889634 
L 134.964202 16.334474 
L 135.221526 16.427482 
L 135.543181 16.926378 
L 136.12216 17.809686 
L 136.379484 17.867554 
L 136.636808 17.690882 
L 137.087125 17.024656 
L 137.601773 16.325532 
L 137.859097 16.306876 
L 138.245083 16.587067 
L 138.888393 17.10502 
L 139.210048 17.084966 
L 139.724696 16.726331 
L 140.175013 16.518109 
L 140.496668 16.572527 
L 142.490929 17.473759 
L 144.227867 17.42719 
L 145.643149 16.851433 
L 146.929769 16.091555 
L 147.380086 16.343989 
L 148.538044 17.114528 
L 149.438678 16.982337 
L 150.725298 16.650366 
L 151.754594 16.63378 
L 154.00618 17.070203 
L 154.906814 17.195959 
L 155.93611 16.979376 
L 156.515089 16.803286 
L 157.094068 16.821719 
L 157.544385 16.794057 
L 157.994702 16.801037 
L 159.538646 17.150994 
L 160.953928 17.200405 
L 161.468577 16.991815 
L 162.240549 16.680566 
L 163.527169 16.833704 
L 165.392768 17.210308 
L 166.036078 17.044905 
L 167.065374 16.780137 
L 167.644353 16.927326 
L 168.159001 16.995103 
L 169.123966 17.121649 
L 170.346256 17.347059 
L 170.925235 17.512479 
L 171.697207 17.478492 
L 172.662172 17.327907 
L 173.884461 16.769209 
L 174.720764 16.732963 
L 175.814391 16.999898 
L 176.522032 16.752019 
L 177.03668 16.568899 
L 177.486997 16.676525 
L 178.3233 16.963998 
L 179.159603 17.126065 
L 179.609921 16.914571 
L 180.317562 16.589551 
L 180.703548 16.646705 
L 181.925837 17.043304 
L 182.440485 16.922782 
L 184.241753 16.413592 
L 185.721366 16.733786 
L 186.879324 16.145568 
L 187.26531 16.491967 
L 187.844289 16.970628 
L 188.358938 17.140139 
L 188.809255 17.023213 
L 189.645558 16.615867 
L 190.095875 16.889738 
L 190.803516 17.246436 
L 191.189502 17.168147 
L 191.832812 16.93601 
L 192.476122 17.014388 
L 193.119432 17.144332 
L 194.020066 17.010886 
L 194.599045 17.195737 
L 195.178024 17.55653 
L 195.628341 17.729394 
L 195.949996 17.577547 
L 196.85063 16.905237 
L 197.236617 16.876103 
L 198.137251 17.035006 
L 199.037885 16.694763 
L 199.423871 16.842102 
L 200.131512 17.223492 
L 200.453167 17.131394 
L 200.967815 16.677288 
L 201.418132 16.368436 
L 201.739787 16.406722 
L 202.962076 17.130741 
L 203.476724 17.342983 
L 203.927041 17.33387 
L 204.313027 17.113455 
L 205.213661 16.438213 
L 205.470985 16.562331 
L 205.921302 17.149157 
L 206.37162 17.596181 
L 206.886268 17.729209 
L 207.851233 17.786569 
L 209.974156 17.411578 
L 210.810459 17.222773 
L 211.646762 16.926449 
L 212.290072 17.198617 
L 212.869051 17.352646 
L 213.962678 17.284602 
L 214.798981 17.130352 
L 215.763947 16.94456 
L 216.664581 16.713051 
L 218.208525 16.580787 
L 218.787504 16.343258 
L 219.17349 16.382008 
L 219.881131 16.768195 
L 220.781765 17.124796 
L 221.875392 17.232218 
L 222.776026 17.09593 
L 223.419336 17.294581 
L 224.512964 17.699086 
L 225.606591 17.63753 
L 226.571556 17.547111 
L 227.150535 17.4785 
L 228.308493 16.953582 
L 228.75881 16.940553 
L 229.659444 16.727505 
L 231.911029 16.903523 
L 233.004657 16.719883 
L 233.84096 16.810957 
L 234.741594 16.980586 
L 236.349869 16.952578 
L 236.349869 16.952578 
" clip-path="url(#p4f00338462)" style="fill: none; stroke: #2ca02c; stroke-width: 0.5; stroke-linecap: square"/>
   </g>
   <g id="patch_3">
    <path d="M 33.707196 202.559296 
L 33.707196 7.2 
" style="fill: none; stroke: #000000; stroke-width: 0.8; stroke-linejoin: miter; stroke-linecap: square"/>
   </g>
   <g id="patch_4">
    <path d="M 245.99952 202.559296 
L 245.99952 7.2 
" style="fill: none; stroke: #000000; stroke-width: 0.8; stroke-linejoin: miter; stroke-linecap: square"/>
   </g>
   <g id="patch_5">
    <path d="M 33.707196 202.559296 
L 245.99952 202.559296 
" style="fill: none; stroke: #000000; stroke-width: 0.8; stroke-linejoin: miter; stroke-linecap: square"/>
   </g>
   <g id="patch_6">
    <path d="M 33.707196 7.2 
L 245.99952 7.2 
" style="fill: none; stroke: #000000; stroke-width: 0.8; stroke-linejoin: miter; stroke-linecap: square"/>
   </g>
   <g id="legend_1">
    <g id="patch_7">
     <path d="M 193.792605 198.059296 
L 239.69952 198.059296 
Q 241.49952 198.059296 241.49952 196.259296 
L 241.49952 156.760168 
Q 241.49952 154.960168 239.69952 154.960168 
L 193.792605 154.960168 
Q 191.992605 154.960168 191.992605 156.760168 
L 191.992605 196.259296 
Q 191.992605 198.059296 193.792605 198.059296 
z
" style="fill: #ffffff; opacity: 0.8; stroke: #cccccc; stroke-width: 0.24; stroke-linejoin: miter"/>
    </g>
    <g id="line2d_18">
     <path d="M 195.592605 162.13495 
L 204.592605 162.13495 
L 213.592605 162.13495 
" style="fill: none; stroke: #1f77b4; stroke-width: 0.5; stroke-linecap: square"/>
    </g>
    <g id="text_16">
     <!-- $\langle \sigma_z\rangle$ -->
     <g transform="translate(220.792605 165.28495) scale(0.09 -0.09)">
      <defs>
       <path id="CMSY10-68" d="M 2099 4557 
C 2131 4627 2131 4640 2131 4672 
C 2131 4742 2074 4800 2003 4800 
C 1946 4800 1901 4768 1856 4653 
L 736 1715 
C 723 1677 704 1638 704 1600 
C 704 1581 704 1568 736 1491 
L 1856 -1446 
C 1882 -1517 1914 -1600 2003 -1600 
C 2074 -1600 2131 -1542 2131 -1472 
C 2131 -1453 2131 -1440 2099 -1370 
L 966 1600 
L 2099 4557 
z
" transform="scale(0.015625)"/>
       <path id="CMMI12-1b" d="M 3251 2408 
C 3334 2408 3546 2408 3546 2612 
C 3546 2752 3424 2752 3309 2752 
L 1894 2752 
C 934 2752 243 1686 243 932 
C 243 390 595 -64 1171 -64 
C 1926 -64 2752 747 2752 1705 
C 2752 1954 2694 2196 2541 2408 
L 3251 2408 
z
M 1178 64 
C 851 64 614 313 614 754 
C 614 1137 845 2408 1786 2408 
C 2061 2408 2368 2274 2368 1781 
C 2368 1558 2266 1021 2042 652 
C 1811 275 1466 64 1178 64 
z
" transform="scale(0.015625)"/>
       <path id="CMMI12-7a" d="M 813 486 
C 1088 803 1312 1004 1632 1296 
C 2016 1632 2182 1793 2272 1891 
C 2720 2338 2944 2713 2944 2764 
C 2944 2816 2893 2816 2880 2816 
C 2835 2816 2822 2793 2790 2750 
C 2630 2494 2477 2367 2310 2367 
C 2176 2367 2106 2421 1984 2565 
C 1850 2715 1741 2816 1555 2816 
C 1088 2816 806 2257 806 2128 
C 806 2108 813 2068 870 2068 
C 922 2068 928 2091 947 2133 
C 1056 2372 1363 2414 1485 2414 
C 1619 2414 1747 2376 1882 2327 
C 2125 2240 2227 2240 2291 2240 
C 2336 2240 2362 2240 2394 2246 
C 2182 1994 1837 1683 1549 1418 
L 902 816 
C 512 415 275 33 275 -12 
C 275 -51 307 -64 346 -64 
C 384 -64 390 -57 435 14 
C 538 163 742 384 979 384 
C 1114 384 1178 342 1306 193 
C 1427 61 1536 -64 1741 -64 
C 2368 -64 2726 732 2726 876 
C 2726 903 2720 942 2656 942 
C 2605 942 2598 917 2579 855 
C 2438 488 2061 338 1811 338 
C 1677 338 1549 376 1414 425 
C 1158 512 1088 512 1005 512 
C 941 512 870 512 813 486 
z
" transform="scale(0.015625)"/>
       <path id="CMSY10-69" d="M 1747 1491 
C 1779 1568 1779 1581 1779 1600 
C 1779 1619 1779 1632 1747 1709 
L 627 4653 
C 589 4762 550 4800 480 4800 
C 410 4800 352 4742 352 4672 
C 352 4653 352 4640 384 4570 
L 1517 1600 
L 384 -1357 
C 352 -1427 352 -1440 352 -1472 
C 352 -1542 410 -1600 480 -1600 
C 563 -1600 589 -1536 614 -1472 
L 1747 1491 
z
" transform="scale(0.015625)"/>
      </defs>
      <use xlink:href="#CMSY10-68" transform="scale(0.996264)"/>
      <use xlink:href="#CMMI12-1b" transform="translate(38.743734 0) scale(0.996264)"/>
      <use xlink:href="#CMMI12-7a" transform="translate(94.189195 -14.943915) scale(0.697382)"/>
      <use xlink:href="#CMSY10-69" transform="translate(129.51575 0) scale(0.996264)"/>
     </g>
    </g>
    <g id="line2d_19">
     <path d="M 195.592605 175.601326 
L 204.592605 175.601326 
L 213.592605 175.601326 
" style="fill: none; stroke: #ff7f0e; stroke-width: 0.5; stroke-linecap: square"/>
    </g>
    <g id="text_17">
     <!-- $\langle \sigma_x\rangle$ -->
     <g transform="translate(220.792605 178.751326) scale(0.09 -0.09)">
      <defs>
       <path id="CMMI12-78" d="M 3034 2606 
C 2829 2567 2752 2414 2752 2293 
C 2752 2139 2874 2088 2963 2088 
C 3155 2088 3290 2254 3290 2427 
C 3290 2695 2982 2816 2714 2816 
C 2323 2816 2106 2433 2048 2312 
C 1901 2816 1504 2816 1389 2816 
C 736 2816 390 1980 390 1839 
C 390 1814 416 1782 461 1782 
C 512 1782 525 1820 538 1846 
C 755 2555 1184 2689 1370 2689 
C 1658 2689 1715 2420 1715 2267 
C 1715 2127 1677 1980 1600 1673 
L 1382 798 
C 1286 415 1101 64 762 64 
C 730 64 570 64 435 147 
C 666 192 717 383 717 460 
C 717 588 621 664 499 664 
C 346 664 179 530 179 326 
C 179 57 480 -64 755 -64 
C 1062 -64 1280 179 1414 441 
C 1517 64 1837 -64 2074 -64 
C 2726 -64 3072 773 3072 913 
C 3072 945 3046 971 3008 971 
C 2950 971 2944 939 2925 888 
C 2752 326 2381 64 2093 64 
C 1869 64 1747 230 1747 492 
C 1747 632 1773 734 1875 1156 
L 2099 2024 
C 2195 2408 2413 2689 2707 2689 
C 2720 2689 2899 2689 3034 2606 
z
" transform="scale(0.015625)"/>
      </defs>
      <use xlink:href="#CMSY10-68" transform="scale(0.996264)"/>
      <use xlink:href="#CMMI12-1b" transform="translate(38.743734 0) scale(0.996264)"/>
      <use xlink:href="#CMMI12-78" transform="translate(94.189195 -14.943915) scale(0.697382)"/>
      <use xlink:href="#CMSY10-69" transform="translate(133.490986 0) scale(0.996264)"/>
     </g>
    </g>
    <g id="line2d_20">
     <path d="M 195.592605 189.067702 
L 204.592605 189.067702 
L 213.592605 189.067702 
" style="fill: none; stroke: #2ca02c; stroke-width: 0.5; stroke-linecap: square"/>
    </g>
    <g id="text_18">
     <!-- $\langle \sigma_y\rangle$ -->
     <g transform="translate(220.792605 192.217702) scale(0.09 -0.09)">
      <defs>
       <path id="CMMI12-79" d="M 1683 -700 
C 1510 -939 1261 -1152 947 -1152 
C 870 -1152 563 -1152 467 -889 
C 486 -895 518 -895 531 -895 
C 723 -895 851 -729 851 -582 
C 851 -435 730 -384 634 -384 
C 531 -384 307 -458 307 -759 
C 307 -1071 582 -1286 947 -1286 
C 1587 -1286 2234 -700 2413 6 
L 3040 2485 
C 3046 2517 3059 2556 3059 2594 
C 3059 2689 2982 2753 2886 2753 
C 2829 2753 2694 2727 2643 2535 
L 2170 658 
C 2138 543 2138 530 2086 460 
C 1958 281 1747 64 1440 64 
C 1082 64 1050 415 1050 588 
C 1050 952 1222 1443 1395 1903 
C 1466 2088 1504 2178 1504 2305 
C 1504 2574 1312 2816 998 2816 
C 410 2816 173 1890 173 1839 
C 173 1814 198 1782 243 1782 
C 301 1782 307 1807 333 1897 
C 486 2433 730 2689 979 2689 
C 1037 2689 1146 2689 1146 2478 
C 1146 2312 1075 2127 979 1884 
C 666 1047 666 837 666 683 
C 666 77 1101 -64 1421 -64 
C 1606 -64 1837 -6 2061 230 
L 2067 224 
C 1971 -147 1907 -392 1683 -700 
z
" transform="scale(0.015625)"/>
      </defs>
      <use xlink:href="#CMSY10-68" transform="scale(0.996264)"/>
      <use xlink:href="#CMMI12-1b" transform="translate(38.743734 0) scale(0.996264)"/>
      <use xlink:href="#CMMI12-79" transform="translate(94.189195 -14.943915) scale(0.697382)"/>
      <use xlink:href="#CMSY10-69" transform="translate(130.484301 0) scale(0.996264)"/>
     </g>
    </g>
   </g>
  </g>
 </g>
 <defs>
  <clipPath id="p4f00338462">
   <rect x="33.707196" y="7.2" width="212.292324" height="195.359296"/>
  </clipPath>
 </defs>
</svg>
