<?xml version="1.0" encoding="utf-8" standalone="no"?>
<!DOCTYPE svg PUBLIC "-//W3C//DTD SVG 1.1//EN"
  "http://www.w3.org/Graphics/SVG/1.1/DTD/svg11.dtd">
<svg xmlns:xlink="http://www.w3.org/1999/xlink" width="253.19952pt" height="238.79952pt" viewBox="0 0 253.19952 238.79952" xmlns="http://www.w3.org/2000/svg" version="1.1">
 <metadata>
  <rdf:RDF xmlns:dc="http://purl.org/dc/elements/1.1/" xmlns:cc="http://creativecommons.org/ns#" xmlns:rdf="http://www.w3.org/1999/02/22-rdf-syntax-ns#">
   <cc:Work>
    <dc:type rdf:resource="http://purl.org/dc/dcmitype/StillImage"/>
    <dc:date>1980-01-01T00:00:00+00:00</dc:date>
    <dc:format>image/svg+xml</dc:format>
    <dc:creator>
     <cc:Agent>
      <dc:title>Matplotlib v3.6.2, https://matplotlib.org/</dc:title>
     </cc:Agent>
    </dc:creator>
   </cc:Work>
  </rdf:RDF>
 </metadata>
 <defs>
  <style type="text/css">*{stroke-linejoin: round; stroke-linecap: butt}</style>
 </defs>
 <g id="figure_1">
  <g id="patch_1">
   <path d="M 0 238.79952 
L 253.19952 238.79952 
L 253.19952 0 
L 0 0 
z
" style="fill: #ffffff"/>
  </g>
  <g id="axes_1">
   <g id="patch_2">
    <path d="M 33.707196 202.559296 
L 245.99952 202.559296 
L 245.99952 7.2 
L 33.707196 7.2 
z
" style="fill: #ffffff"/>
   </g>
   <g id="matplotlib.axis_1">
    <g id="xtick_1">
     <g id="line2d_1">
      <defs>
       <path id="mb1a80c1ac7" d="M 0 0 
L 0 3.5 
" style="stroke: #000000; stroke-width: 0.8"/>
      </defs>
      <g>
       <use xlink:href="#mb1a80c1ac7" x="43.356847" y="202.559296" style="stroke: #000000; stroke-width: 0.8"/>
      </g>
     </g>
     <g id="text_1">
      <!-- $\mathdefault{0}$ -->
      <g transform="translate(41.239756 217.194098) scale(0.08 -0.08)">
       <defs>
        <path id="CMR17-30" d="M 2688 2025 
C 2688 2416 2682 3080 2413 3591 
C 2176 4039 1798 4198 1466 4198 
C 1158 4198 768 4058 525 3597 
C 269 3118 243 2524 243 2025 
C 243 1661 250 1106 448 619 
C 723 -39 1216 -128 1466 -128 
C 1760 -128 2208 -7 2470 600 
C 2662 1042 2688 1559 2688 2025 
z
M 1466 -26 
C 1056 -26 813 325 723 812 
C 653 1188 653 1738 653 2096 
C 653 2588 653 2997 736 3387 
C 858 3929 1216 4096 1466 4096 
C 1728 4096 2067 3923 2189 3400 
C 2272 3036 2278 2607 2278 2096 
C 2278 1680 2278 1169 2202 792 
C 2067 95 1690 -26 1466 -26 
z
" transform="scale(0.015625)"/>
       </defs>
       <use xlink:href="#CMR17-30" transform="scale(0.996264)"/>
      </g>
     </g>
    </g>
    <g id="xtick_2">
     <g id="line2d_2">
      <g>
       <use xlink:href="#mb1a80c1ac7" x="70.161434" y="202.559296" style="stroke: #000000; stroke-width: 0.8"/>
      </g>
     </g>
     <g id="text_2">
      <!-- $\mathdefault{25}$ -->
      <g transform="translate(65.927251 217.194098) scale(0.08 -0.08)">
       <defs>
        <path id="CMR17-32" d="M 2669 989 
L 2554 989 
C 2490 536 2438 459 2413 420 
C 2381 369 1920 369 1830 369 
L 602 369 
C 832 619 1280 1072 1824 1597 
C 2214 1967 2669 2402 2669 3035 
C 2669 3790 2067 4224 1395 4224 
C 691 4224 262 3604 262 3030 
C 262 2780 448 2748 525 2748 
C 589 2748 781 2787 781 3010 
C 781 3207 614 3264 525 3264 
C 486 3264 448 3258 422 3245 
C 544 3790 915 4058 1306 4058 
C 1862 4058 2227 3617 2227 3035 
C 2227 2479 1901 2000 1536 1584 
L 262 146 
L 262 0 
L 2515 0 
L 2669 989 
z
" transform="scale(0.015625)"/>
        <path id="CMR17-35" d="M 730 3692 
C 794 3666 1056 3584 1325 3584 
C 1920 3584 2246 3911 2432 4100 
C 2432 4157 2432 4192 2394 4192 
C 2387 4192 2374 4192 2323 4163 
C 2099 4058 1837 3973 1517 3973 
C 1325 3973 1037 3999 723 4139 
C 653 4171 640 4171 634 4171 
C 602 4171 595 4164 595 4037 
L 595 2203 
C 595 2089 595 2057 659 2057 
C 691 2057 704 2070 736 2114 
C 941 2401 1222 2522 1542 2522 
C 1766 2522 2246 2382 2246 1289 
C 2246 1085 2246 715 2054 421 
C 1894 159 1645 25 1370 25 
C 947 25 518 320 403 814 
C 429 807 480 795 506 795 
C 589 795 749 840 749 1038 
C 749 1210 627 1280 506 1280 
C 358 1280 262 1190 262 1011 
C 262 454 704 -128 1382 -128 
C 2042 -128 2669 440 2669 1264 
C 2669 2030 2170 2624 1549 2624 
C 1222 2624 947 2503 730 2274 
L 730 3692 
z
" transform="scale(0.015625)"/>
       </defs>
       <use xlink:href="#CMR17-32" transform="scale(0.996264)"/>
       <use xlink:href="#CMR17-35" transform="translate(45.690477 0) scale(0.996264)"/>
      </g>
     </g>
    </g>
    <g id="xtick_3">
     <g id="line2d_3">
      <g>
       <use xlink:href="#mb1a80c1ac7" x="96.96602" y="202.559296" style="stroke: #000000; stroke-width: 0.8"/>
      </g>
     </g>
     <g id="text_3">
      <!-- $\mathdefault{50}$ -->
      <g transform="translate(92.731837 217.194098) scale(0.08 -0.08)">
       <use xlink:href="#CMR17-35" transform="scale(0.996264)"/>
       <use xlink:href="#CMR17-30" transform="translate(45.690477 0) scale(0.996264)"/>
      </g>
     </g>
    </g>
    <g id="xtick_4">
     <g id="line2d_4">
      <g>
       <use xlink:href="#mb1a80c1ac7" x="123.770606" y="202.559296" style="stroke: #000000; stroke-width: 0.8"/>
      </g>
     </g>
     <g id="text_4">
      <!-- $\mathdefault{75}$ -->
      <g transform="translate(119.536423 217.194098) scale(0.08 -0.08)">
       <defs>
        <path id="CMR17-37" d="M 2886 3941 
L 2886 4081 
L 1382 4081 
C 634 4081 621 4165 595 4288 
L 480 4288 
L 294 3094 
L 410 3094 
C 429 3215 474 3540 550 3661 
C 589 3712 1062 3712 1171 3712 
L 2579 3712 
L 1869 2661 
C 1395 1954 1069 999 1069 165 
C 1069 89 1069 -128 1299 -128 
C 1530 -128 1530 89 1530 171 
L 1530 465 
C 1530 1508 1709 2196 2003 2636 
L 2886 3941 
z
" transform="scale(0.015625)"/>
       </defs>
       <use xlink:href="#CMR17-37" transform="scale(0.996264)"/>
       <use xlink:href="#CMR17-35" transform="translate(45.690477 0) scale(0.996264)"/>
      </g>
     </g>
    </g>
    <g id="xtick_5">
     <g id="line2d_5">
      <g>
       <use xlink:href="#mb1a80c1ac7" x="150.575193" y="202.559296" style="stroke: #000000; stroke-width: 0.8"/>
      </g>
     </g>
     <g id="text_5">
      <!-- $\mathdefault{100}$ -->
      <g transform="translate(144.223918 217.194098) scale(0.08 -0.08)">
       <defs>
        <path id="CMR17-31" d="M 1702 4058 
C 1702 4192 1696 4192 1606 4192 
C 1357 3916 979 3827 621 3827 
C 602 3827 570 3827 563 3808 
C 557 3795 557 3782 557 3648 
C 755 3648 1088 3686 1344 3839 
L 1344 461 
C 1344 236 1331 160 781 160 
L 589 160 
L 589 0 
C 896 0 1216 0 1523 0 
C 1830 0 2150 0 2458 0 
L 2458 160 
L 2266 160 
C 1715 160 1702 230 1702 458 
L 1702 4058 
z
" transform="scale(0.015625)"/>
       </defs>
       <use xlink:href="#CMR17-31" transform="scale(0.996264)"/>
       <use xlink:href="#CMR17-30" transform="translate(45.690477 0) scale(0.996264)"/>
       <use xlink:href="#CMR17-30" transform="translate(91.380954 0) scale(0.996264)"/>
      </g>
     </g>
    </g>
    <g id="xtick_6">
     <g id="line2d_6">
      <g>
       <use xlink:href="#mb1a80c1ac7" x="177.379779" y="202.559296" style="stroke: #000000; stroke-width: 0.8"/>
      </g>
     </g>
     <g id="text_6">
      <!-- $\mathdefault{125}$ -->
      <g transform="translate(171.028505 217.194098) scale(0.08 -0.08)">
       <use xlink:href="#CMR17-31" transform="scale(0.996264)"/>
       <use xlink:href="#CMR17-32" transform="translate(45.690477 0) scale(0.996264)"/>
       <use xlink:href="#CMR17-35" transform="translate(91.380954 0) scale(0.996264)"/>
      </g>
     </g>
    </g>
    <g id="xtick_7">
     <g id="line2d_7">
      <g>
       <use xlink:href="#mb1a80c1ac7" x="204.184365" y="202.559296" style="stroke: #000000; stroke-width: 0.8"/>
      </g>
     </g>
     <g id="text_7">
      <!-- $\mathdefault{150}$ -->
      <g transform="translate(197.833091 217.194098) scale(0.08 -0.08)">
       <use xlink:href="#CMR17-31" transform="scale(0.996264)"/>
       <use xlink:href="#CMR17-35" transform="translate(45.690477 0) scale(0.996264)"/>
       <use xlink:href="#CMR17-30" transform="translate(91.380954 0) scale(0.996264)"/>
      </g>
     </g>
    </g>
    <g id="xtick_8">
     <g id="line2d_8">
      <g>
       <use xlink:href="#mb1a80c1ac7" x="230.988952" y="202.559296" style="stroke: #000000; stroke-width: 0.8"/>
      </g>
     </g>
     <g id="text_8">
      <!-- $\mathdefault{175}$ -->
      <g transform="translate(224.637677 217.194098) scale(0.08 -0.08)">
       <use xlink:href="#CMR17-31" transform="scale(0.996264)"/>
       <use xlink:href="#CMR17-37" transform="translate(45.690477 0) scale(0.996264)"/>
       <use xlink:href="#CMR17-35" transform="translate(91.380954 0) scale(0.996264)"/>
      </g>
     </g>
    </g>
    <g id="text_9">
     <!-- $\tau$ -->
     <g transform="translate(137.675756 229.662342) scale(0.1 -0.1)">
      <defs>
       <path id="CMMI12-1c" d="M 1837 2408 
L 2899 2408 
C 2982 2408 3194 2408 3194 2612 
C 3194 2752 3072 2752 2957 2752 
L 1197 2752 
C 1050 2752 832 2752 538 2440 
C 371 2255 166 1917 166 1879 
C 166 1841 198 1828 237 1828 
C 282 1828 288 1847 320 1885 
C 653 2408 986 2408 1146 2408 
L 1677 2408 
L 1011 223 
C 979 127 979 114 979 95 
C 979 25 1024 -64 1152 -64 
C 1350 -64 1382 108 1402 203 
L 1837 2408 
z
" transform="scale(0.015625)"/>
      </defs>
      <use xlink:href="#CMMI12-1c" transform="scale(0.996264)"/>
     </g>
    </g>
   </g>
   <g id="matplotlib.axis_2">
    <g id="ytick_1">
     <g id="line2d_9">
      <defs>
       <path id="mdfd7388cfa" d="M 0 0 
L -3.5 0 
" style="stroke: #000000; stroke-width: 0.8"/>
      </defs>
      <g>
       <use xlink:href="#mdfd7388cfa" x="33.707196" y="193.679328" style="stroke: #000000; stroke-width: 0.8"/>
      </g>
     </g>
     <g id="text_10">
      <!-- $\mathdefault{−1.0}$ -->
      <g transform="translate(7.2 196.446729) scale(0.08 -0.08)">
       <defs>
        <path id="CMSY10-0" d="M 4218 1472 
C 4326 1472 4442 1472 4442 1600 
C 4442 1728 4326 1728 4218 1728 
L 755 1728 
C 646 1728 531 1728 531 1600 
C 531 1472 646 1472 755 1472 
L 4218 1472 
z
" transform="scale(0.015625)"/>
        <path id="CMMI12-3a" d="M 1178 307 
C 1178 492 1024 619 870 619 
C 685 619 557 466 557 313 
C 557 128 710 0 864 0 
C 1050 0 1178 153 1178 307 
z
" transform="scale(0.015625)"/>
       </defs>
       <use xlink:href="#CMSY10-0" transform="scale(0.996264)"/>
       <use xlink:href="#CMR17-31" transform="translate(77.487468 0) scale(0.996264)"/>
       <use xlink:href="#CMMI12-3a" transform="translate(123.177945 0) scale(0.996264)"/>
       <use xlink:href="#CMR17-30" transform="translate(150.275122 0) scale(0.996264)"/>
      </g>
     </g>
    </g>
    <g id="ytick_2">
     <g id="line2d_10">
      <g>
       <use xlink:href="#mdfd7388cfa" x="33.707196" y="158.358989" style="stroke: #000000; stroke-width: 0.8"/>
      </g>
     </g>
     <g id="text_11">
      <!-- $\mathdefault{−0.8}$ -->
      <g transform="translate(7.2 161.12639) scale(0.08 -0.08)">
       <defs>
        <path id="CMR17-38" d="M 1741 2264 
C 2144 2467 2554 2773 2554 3263 
C 2554 3841 1990 4179 1472 4179 
C 890 4179 378 3759 378 3180 
C 378 3021 416 2747 666 2505 
C 730 2442 998 2251 1171 2130 
C 883 1983 211 1634 211 934 
C 211 279 838 -128 1459 -128 
C 2144 -128 2720 362 2720 1010 
C 2720 1590 2330 1857 2074 2029 
L 1741 2264 
z
M 902 2822 
C 851 2854 595 3051 595 3351 
C 595 3739 998 4032 1459 4032 
C 1965 4032 2336 3676 2336 3262 
C 2336 2669 1670 2331 1638 2331 
C 1632 2331 1626 2331 1574 2370 
L 902 2822 
z
M 2080 1519 
C 2176 1449 2483 1240 2483 851 
C 2483 381 2010 25 1472 25 
C 890 25 448 438 448 940 
C 448 1443 838 1862 1280 2060 
L 2080 1519 
z
" transform="scale(0.015625)"/>
       </defs>
       <use xlink:href="#CMSY10-0" transform="scale(0.996264)"/>
       <use xlink:href="#CMR17-30" transform="translate(77.487468 0) scale(0.996264)"/>
       <use xlink:href="#CMMI12-3a" transform="translate(123.177945 0) scale(0.996264)"/>
       <use xlink:href="#CMR17-38" transform="translate(150.275122 0) scale(0.996264)"/>
      </g>
     </g>
    </g>
    <g id="ytick_3">
     <g id="line2d_11">
      <g>
       <use xlink:href="#mdfd7388cfa" x="33.707196" y="123.038651" style="stroke: #000000; stroke-width: 0.8"/>
      </g>
     </g>
     <g id="text_12">
      <!-- $\mathdefault{−0.6}$ -->
      <g transform="translate(7.2 125.806052) scale(0.08 -0.08)">
       <defs>
        <path id="CMR17-36" d="M 678 2176 
C 678 3690 1395 4032 1811 4032 
C 1946 4032 2272 4009 2400 3776 
C 2298 3776 2106 3776 2106 3553 
C 2106 3381 2246 3323 2336 3323 
C 2394 3323 2566 3348 2566 3560 
C 2566 3954 2246 4179 1805 4179 
C 1043 4179 243 3390 243 1984 
C 243 253 966 -128 1478 -128 
C 2099 -128 2688 427 2688 1283 
C 2688 2081 2170 2662 1517 2662 
C 1126 2662 838 2407 678 1960 
L 678 2176 
z
M 1478 25 
C 691 25 691 1200 691 1436 
C 691 1896 909 2560 1504 2560 
C 1613 2560 1926 2560 2138 2120 
C 2253 1870 2253 1609 2253 1289 
C 2253 944 2253 690 2118 434 
C 1978 171 1773 25 1478 25 
z
" transform="scale(0.015625)"/>
       </defs>
       <use xlink:href="#CMSY10-0" transform="scale(0.996264)"/>
       <use xlink:href="#CMR17-30" transform="translate(77.487468 0) scale(0.996264)"/>
       <use xlink:href="#CMMI12-3a" transform="translate(123.177945 0) scale(0.996264)"/>
       <use xlink:href="#CMR17-36" transform="translate(150.275122 0) scale(0.996264)"/>
      </g>
     </g>
    </g>
    <g id="ytick_4">
     <g id="line2d_12">
      <g>
       <use xlink:href="#mdfd7388cfa" x="33.707196" y="87.718312" style="stroke: #000000; stroke-width: 0.8"/>
      </g>
     </g>
     <g id="text_13">
      <!-- $\mathdefault{−0.4}$ -->
      <g transform="translate(7.2 90.485713) scale(0.08 -0.08)">
       <defs>
        <path id="CMR17-34" d="M 2150 4122 
C 2150 4256 2144 4256 2029 4256 
L 128 1254 
L 128 1088 
L 1779 1088 
L 1779 457 
C 1779 224 1766 160 1318 160 
L 1197 160 
L 1197 0 
C 1402 0 1747 0 1965 0 
C 2182 0 2528 0 2733 0 
L 2733 160 
L 2611 160 
C 2163 160 2150 224 2150 457 
L 2150 1088 
L 2803 1088 
L 2803 1254 
L 2150 1254 
L 2150 4122 
z
M 1798 3703 
L 1798 1254 
L 256 1254 
L 1798 3703 
z
" transform="scale(0.015625)"/>
       </defs>
       <use xlink:href="#CMSY10-0" transform="scale(0.996264)"/>
       <use xlink:href="#CMR17-30" transform="translate(77.487468 0) scale(0.996264)"/>
       <use xlink:href="#CMMI12-3a" transform="translate(123.177945 0) scale(0.996264)"/>
       <use xlink:href="#CMR17-34" transform="translate(150.275122 0) scale(0.996264)"/>
      </g>
     </g>
    </g>
    <g id="ytick_5">
     <g id="line2d_13">
      <g>
       <use xlink:href="#mdfd7388cfa" x="33.707196" y="52.397974" style="stroke: #000000; stroke-width: 0.8"/>
      </g>
     </g>
     <g id="text_14">
      <!-- $\mathdefault{−0.2}$ -->
      <g transform="translate(7.2 55.165374) scale(0.08 -0.08)">
       <use xlink:href="#CMSY10-0" transform="scale(0.996264)"/>
       <use xlink:href="#CMR17-30" transform="translate(77.487468 0) scale(0.996264)"/>
       <use xlink:href="#CMMI12-3a" transform="translate(123.177945 0) scale(0.996264)"/>
       <use xlink:href="#CMR17-32" transform="translate(150.275122 0) scale(0.996264)"/>
      </g>
     </g>
    </g>
    <g id="ytick_6">
     <g id="line2d_14">
      <g>
       <use xlink:href="#mdfd7388cfa" x="33.707196" y="17.077635" style="stroke: #000000; stroke-width: 0.8"/>
      </g>
     </g>
     <g id="text_15">
      <!-- $\mathdefault{0.0}$ -->
      <g transform="translate(13.786507 19.845036) scale(0.08 -0.08)">
       <use xlink:href="#CMR17-30" transform="scale(0.996264)"/>
       <use xlink:href="#CMMI12-3a" transform="translate(45.690477 0) scale(0.996264)"/>
       <use xlink:href="#CMR17-30" transform="translate(72.787654 0) scale(0.996264)"/>
      </g>
     </g>
    </g>
   </g>
   <g id="line2d_15">
    <path d="M 43.356847 193.679328 
L 43.421178 193.435529 
L 43.54984 191.538402 
L 43.807164 183.286455 
L 44.643467 152.385408 
L 44.965122 147.583658 
L 45.158115 146.800057 
L 45.222446 146.844118 
L 45.351108 147.336242 
L 45.608432 149.657419 
L 46.187412 158.20343 
L 46.70206 164.714535 
L 47.023715 166.838997 
L 47.281039 167.471794 
L 47.474032 167.527533 
L 47.924349 167.21509 
L 48.181673 167.150932 
L 48.438997 167.347053 
L 48.760652 167.956053 
L 50.240265 171.365898 
L 50.754913 171.784194 
L 51.84854 172.574047 
L 52.427519 173.563067 
L 53.328153 175.127119 
L 53.521146 175.187072 
L 53.714139 175.013738 
L 53.971463 174.315023 
L 54.293118 172.492161 
L 54.679105 168.541632 
L 55.193753 160.222211 
L 56.158718 139.526126 
L 57.509669 112.583462 
L 58.281641 101.075307 
L 58.989282 93.782481 
L 59.889916 86.83345 
L 60.983543 79.427211 
L 61.691184 76.273814 
L 63.492453 69.828333 
L 64.200094 68.026445 
L 64.650411 66.902856 
L 65.100728 66.526853 
L 65.422383 66.02696 
L 66.258686 64.484959 
L 66.709003 64.168402 
L 67.094989 63.797598 
L 67.866961 62.890839 
L 69.282243 61.900386 
L 69.73256 61.502534 
L 69.989884 61.53995 
L 70.633194 61.804995 
L 71.469497 61.56271 
L 71.855483 61.507489 
L 72.370132 61.380111 
L 72.820449 61.284429 
L 73.656752 60.885512 
L 74.235731 60.977559 
L 74.621717 60.723973 
L 75.072034 60.443679 
L 75.522351 60.515254 
L 76.294323 60.659919 
L 76.551647 60.273992 
L 77.066295 58.881136 
L 77.452281 57.157804 
L 78.03126 53.271701 
L 79.382211 43.954101 
L 79.832528 42.420958 
L 80.411507 41.262966 
L 81.440804 39.921653 
L 82.534431 39.343997 
L 83.499396 39.17845 
L 83.885382 39.120301 
L 84.335699 39.377436 
L 84.721685 39.466385 
L 85.364995 39.496766 
L 85.68665 39.829556 
L 86.201298 40.739114 
L 86.780277 42.229433 
L 87.230594 44.076613 
L 87.745242 47.311802 
L 88.25989 51.935636 
L 88.9032 59.917382 
L 90.125489 78.611993 
L 91.41211 97.020664 
L 92.312744 106.940841 
L 93.149047 113.811304 
L 94.114012 120.021122 
L 95.014646 124.353004 
L 96.043942 128.025871 
L 96.944576 130.446175 
L 97.716548 131.953591 
L 98.874506 133.576802 
L 100.032465 134.965587 
L 100.611444 135.293112 
L 102.92736 136.243847 
L 105.564931 137.010873 
L 106.465565 137.293258 
L 106.980213 137.396492 
L 107.945178 137.254567 
L 108.395496 137.285686 
L 108.65282 137.539491 
L 108.910144 138.162324 
L 109.231799 139.689839 
L 109.617785 142.876013 
L 110.261095 150.810689 
L 110.968736 158.55182 
L 111.419053 161.311537 
L 111.805039 162.508747 
L 112.384018 163.457524 
L 112.834335 164.428229 
L 114.313948 167.974243 
L 115.536237 170.074754 
L 116.758526 171.861502 
L 117.787823 173.660192 
L 117.980816 173.593068 
L 118.173809 173.267276 
L 118.431133 172.342641 
L 118.752788 170.163281 
L 119.138774 165.812939 
L 119.653422 156.974935 
L 122.290993 105.022355 
L 123.191627 94.38887 
L 123.963599 87.668129 
L 124.735571 82.685767 
L 126.022192 75.966753 
L 126.987157 72.055299 
L 127.630467 70.320112 
L 129.689059 65.931336 
L 130.332369 65.401467 
L 130.782686 64.526068 
L 131.425996 63.28528 
L 132.32663 62.574548 
L 132.776947 62.380331 
L 133.548919 62.132394 
L 133.999236 61.4846 
L 134.449553 60.958705 
L 134.771209 60.866603 
L 135.285857 60.799602 
L 136.379484 60.297597 
L 136.829801 60.369936 
L 137.473111 60.583216 
L 138.631069 60.085119 
L 140.110682 59.803877 
L 140.62533 60.148259 
L 140.818323 60.003315 
L 141.139978 59.405603 
L 141.654626 57.894908 
L 142.104943 55.600545 
L 142.748253 50.907197 
L 143.520225 45.139315 
L 143.970543 43.22985 
L 144.356529 42.374148 
L 145.578818 40.591863 
L 146.222128 40.279111 
L 148.409382 38.973629 
L 148.795368 39.16495 
L 150.274981 40.341386 
L 150.85396 41.556604 
L 151.368608 43.150022 
L 151.818925 45.346671 
L 152.269242 48.687984 
L 152.848222 54.760793 
L 153.620194 65.495814 
L 155.743117 96.187309 
L 156.772413 107.2837 
L 157.673047 114.901079 
L 158.50935 120.184577 
L 159.474315 124.804702 
L 160.310618 127.784068 
L 161.08259 129.67198 
L 162.690866 132.874201 
L 163.655831 134.354194 
L 164.23481 134.853794 
L 165.392768 135.563817 
L 165.971747 135.885132 
L 166.615057 136.193925 
L 167.966008 136.474315 
L 168.673649 136.846545 
L 169.445621 137.003171 
L 170.217593 137.138275 
L 171.24689 137.25352 
L 172.53351 137.320736 
L 172.919496 137.608197 
L 173.17682 138.085751 
L 173.434144 139.022576 
L 173.755799 141.06467 
L 174.206116 145.650071 
L 175.428405 159.641055 
L 175.814391 161.727566 
L 176.200377 162.643672 
L 177.165342 164.196134 
L 177.872983 166.218501 
L 178.580624 167.994523 
L 179.416928 169.33974 
L 180.574886 170.933478 
L 182.183161 173.612105 
L 182.376154 173.487567 
L 182.569147 173.072643 
L 182.826471 171.957985 
L 183.148126 169.481962 
L 183.534112 164.728138 
L 184.113091 154.347643 
L 186.557669 105.698113 
L 187.26531 96.826299 
L 188.101613 89.209232 
L 188.873586 83.895375 
L 190.610523 74.504242 
L 191.639819 71.09366 
L 192.476122 68.734765 
L 193.762742 65.747557 
L 194.148728 65.553822 
L 194.470383 65.327383 
L 194.9207 64.596514 
L 195.499679 63.714946 
L 198.201582 61.179391 
L 198.780561 61.0955 
L 199.809857 60.979564 
L 200.581829 60.565964 
L 201.482463 60.678573 
L 201.93278 60.419154 
L 202.254435 60.555249 
L 202.640421 60.708338 
L 203.541055 60.559655 
L 203.927041 60.927221 
L 204.313027 61.242019 
L 204.50602 61.166915 
L 204.827675 60.702305 
L 205.535316 59.249882 
L 206.049965 57.389 
L 206.564613 54.57902 
L 207.272254 49.164201 
L 207.915564 44.877627 
L 208.430212 42.790083 
L 208.751867 42.268139 
L 211.325107 40.002571 
L 211.968417 39.59967 
L 212.676058 38.964397 
L 213.383699 39.213985 
L 213.834016 39.44757 
L 214.348664 39.995242 
L 214.863313 40.857364 
L 215.377961 42.16954 
L 215.828278 43.96567 
L 216.342926 47.106704 
L 216.921905 52.316015 
L 217.629546 61.212362 
L 220.717434 104.264887 
L 221.618068 112.346975 
L 222.583033 119.162575 
L 223.355005 123.200935 
L 224.191309 126.395257 
L 225.220605 129.55892 
L 226.314232 132.01595 
L 227.086204 133.322157 
L 227.986838 134.33133 
L 229.466451 135.542315 
L 232.104022 136.491818 
L 233.454974 136.615257 
L 234.098284 136.689377 
L 235.963883 137.031872 
L 236.349869 136.973272 
L 236.349869 136.973272 
" clip-path="url(#p6bac590538)" style="fill: none; stroke: #1f77b4; stroke-width: 0.5; stroke-linecap: square"/>
   </g>
   <g id="line2d_16">
    <path d="M 43.356847 17.077635 
L 44.19315 16.760198 
L 45.158115 16.685687 
L 57.895655 16.599963 
L 67.416644 16.574593 
L 103.249015 16.651932 
L 114.764265 16.772043 
L 119.782084 16.707384 
L 122.612648 16.594455 
L 135.993498 16.57358 
L 174.592102 16.696619 
L 178.387631 16.766491 
L 183.984429 16.717317 
L 187.007986 16.593641 
L 200.00285 16.573694 
L 236.349869 16.65334 
L 236.349869 16.65334 
" clip-path="url(#p6bac590538)" style="fill: none; stroke: #ff7f0e; stroke-width: 0.5; stroke-linecap: square"/>
   </g>
   <g id="line2d_17">
    <path d="M 43.356847 17.077635 
L 44.064488 17.17015 
L 45.351108 17.042887 
L 49.339631 17.019783 
L 50.304596 16.992651 
L 52.49185 17.179718 
L 54.100125 16.839442 
L 56.094387 17.01983 
L 57.188014 16.495342 
L 57.509669 16.72058 
L 58.088648 17.544982 
L 58.474634 17.905746 
L 58.731958 17.865805 
L 59.117944 17.488626 
L 59.696923 16.856352 
L 59.954247 16.861138 
L 60.340233 17.194155 
L 60.854881 17.584403 
L 61.176536 17.561415 
L 61.626853 17.151529 
L 62.07717 16.875045 
L 62.463156 16.921522 
L 63.814108 17.237535 
L 64.393087 17.043471 
L 65.293721 16.726327 
L 65.679707 16.942321 
L 66.323017 17.374589 
L 66.644672 17.281274 
L 67.15932 16.878604 
L 67.995623 16.100758 
L 68.381609 16.122033 
L 69.024919 16.477461 
L 69.668229 17.067594 
L 70.182877 17.416162 
L 70.568863 17.425749 
L 70.954849 17.217034 
L 71.984145 16.444329 
L 72.241469 16.543209 
L 72.563125 16.950357 
L 73.399428 18.082228 
L 73.721083 18.175656 
L 74.042738 17.985935 
L 74.621717 17.27248 
L 75.265027 16.502401 
L 75.586682 16.532932 
L 75.972668 16.805307 
L 76.74464 17.480408 
L 77.452281 17.777628 
L 77.966929 17.754537 
L 81.119148 16.746425 
L 82.148445 16.999543 
L 82.856086 17.092226 
L 84.142706 16.815953 
L 85.68665 16.429448 
L 86.265629 16.673476 
L 87.037601 17.272692 
L 87.745242 17.719624 
L 88.517214 17.834655 
L 89.096193 17.697443 
L 89.610841 17.38255 
L 90.704469 16.554191 
L 91.219117 16.506956 
L 91.991089 16.743479 
L 93.277709 16.980246 
L 94.178343 17.217144 
L 95.336301 17.439638 
L 96.751583 17.17189 
L 98.359858 16.481087 
L 100.032465 16.613078 
L 102.734367 17.885339 
L 103.313346 17.921232 
L 104.342642 17.880664 
L 105.243276 17.870002 
L 106.594227 17.607314 
L 107.687854 17.378088 
L 109.424792 17.131993 
L 110.968736 17.450533 
L 112.126694 17.330966 
L 114.506941 17.175909 
L 115.600568 17.373168 
L 116.050885 17.284486 
L 116.887189 16.950846 
L 117.401837 17.077778 
L 118.624126 17.457632 
L 119.267436 17.339449 
L 119.910746 17.276429 
L 120.554056 17.226204 
L 121.197366 16.779436 
L 121.583352 16.632877 
L 121.969338 16.746544 
L 123.834937 17.683225 
L 124.220923 17.450786 
L 124.735571 17.202427 
L 126.472509 16.810894 
L 126.987157 17.219526 
L 127.437474 17.484818 
L 127.759129 17.405489 
L 128.46677 17.125521 
L 129.11008 17.173728 
L 129.817721 17.359818 
L 130.203707 17.141299 
L 131.04001 16.634634 
L 131.361665 16.65924 
L 131.747651 16.953253 
L 132.390961 17.463617 
L 132.648285 17.394334 
L 133.484588 16.868348 
L 134.127898 17.093982 
L 134.642546 17.160606 
L 135.092864 16.943573 
L 135.607512 16.717275 
L 135.929167 16.814784 
L 137.022794 17.349047 
L 138.309414 17.380119 
L 138.631069 17.025771 
L 139.274379 16.244145 
L 139.531703 16.234334 
L 139.853358 16.491078 
L 140.753992 17.47421 
L 141.011316 17.469262 
L 141.461633 17.1302 
L 142.426598 16.360029 
L 142.876915 16.339291 
L 144.42086 16.599874 
L 145.514487 16.598447 
L 147.959065 17.51825 
L 148.859699 17.533303 
L 149.631671 17.670349 
L 150.146319 17.493125 
L 151.49727 16.845733 
L 152.204911 16.925773 
L 153.105546 17.231568 
L 154.327835 17.570934 
L 155.421462 17.558946 
L 156.193434 17.47131 
L 158.316357 17.347609 
L 159.023998 17.131389 
L 159.860301 17.171436 
L 162.369211 17.326393 
L 164.041817 17.111241 
L 165.650092 16.971604 
L 166.293402 16.96431 
L 167.580022 17.180474 
L 168.223332 17.339339 
L 169.316959 17.527597 
L 170.088931 17.694322 
L 171.375552 17.657011 
L 171.954531 17.504688 
L 172.855165 17.415717 
L 173.755799 17.427733 
L 174.656433 17.32715 
L 176.586363 16.743087 
L 177.03668 16.890966 
L 178.001645 17.345716 
L 178.451962 17.275001 
L 179.867245 16.814173 
L 180.253231 16.887068 
L 181.282527 17.338299 
L 181.990168 17.333244 
L 182.826471 17.117062 
L 183.469781 16.933882 
L 183.984429 17.100241 
L 185.206718 17.596031 
L 185.657035 17.458903 
L 186.300345 16.846005 
L 186.686331 16.627635 
L 187.007986 16.720252 
L 188.037282 17.216781 
L 188.358938 17.06282 
L 189.323903 16.478541 
L 189.581227 16.536868 
L 189.902882 16.889847 
L 190.739185 18.049952 
L 190.996509 18.051929 
L 191.253833 17.779064 
L 192.218798 16.34815 
L 192.411791 16.435309 
L 192.733446 16.887601 
L 193.248094 17.58094 
L 193.505418 17.549095 
L 193.891404 17.136356 
L 194.599045 16.406919 
L 194.856369 16.358092 
L 195.113693 16.537228 
L 195.628341 17.290585 
L 196.078658 17.75602 
L 196.400313 17.754007 
L 196.721968 17.499163 
L 197.558272 16.577821 
L 197.815596 16.731618 
L 198.458906 17.57634 
L 199.037885 18.174895 
L 199.295209 18.145768 
L 199.616864 17.826623 
L 200.388836 16.943308 
L 200.64616 16.965151 
L 201.096477 17.35416 
L 201.482463 17.55792 
L 201.997111 17.505869 
L 202.57609 17.335893 
L 203.541055 16.918382 
L 204.248696 16.849681 
L 204.570351 17.089964 
L 205.342323 17.854388 
L 205.599647 17.800843 
L 205.985634 17.426958 
L 206.628944 16.743595 
L 206.950599 16.7024 
L 207.593909 16.978079 
L 208.044226 17.046214 
L 208.558874 16.82572 
L 209.523839 16.428595 
L 209.909825 16.517955 
L 211.260776 17.146111 
L 212.740389 17.146666 
L 214.027009 17.546828 
L 215.31363 17.733716 
L 216.085602 17.6972 
L 216.60025 17.508489 
L 218.208525 16.581727 
L 218.723173 16.494692 
L 219.302152 16.659484 
L 220.138455 17.163135 
L 220.653103 17.346143 
L 221.360744 17.332168 
L 222.840357 16.934661 
L 223.869654 16.614115 
L 224.319971 16.74439 
L 226.442894 17.592626 
L 227.279197 17.543514 
L 228.437155 17.353757 
L 229.788106 16.820744 
L 230.68874 16.769519 
L 233.519305 17.085648 
L 235.963883 17.07238 
L 236.349869 17.281557 
L 236.349869 17.281557 
" clip-path="url(#p6bac590538)" style="fill: none; stroke: #2ca02c; stroke-width: 0.5; stroke-linecap: square"/>
   </g>
   <g id="patch_3">
    <path d="M 33.707196 202.559296 
L 33.707196 7.2 
" style="fill: none; stroke: #000000; stroke-width: 0.8; stroke-linejoin: miter; stroke-linecap: square"/>
   </g>
   <g id="patch_4">
    <path d="M 245.99952 202.559296 
L 245.99952 7.2 
" style="fill: none; stroke: #000000; stroke-width: 0.8; stroke-linejoin: miter; stroke-linecap: square"/>
   </g>
   <g id="patch_5">
    <path d="M 33.707196 202.559296 
L 245.99952 202.559296 
" style="fill: none; stroke: #000000; stroke-width: 0.8; stroke-linejoin: miter; stroke-linecap: square"/>
   </g>
   <g id="patch_6">
    <path d="M 33.707196 7.2 
L 245.99952 7.2 
" style="fill: none; stroke: #000000; stroke-width: 0.8; stroke-linejoin: miter; stroke-linecap: square"/>
   </g>
   <g id="legend_1">
    <g id="patch_7">
     <path d="M 193.792605 198.059296 
L 239.69952 198.059296 
Q 241.49952 198.059296 241.49952 196.259296 
L 241.49952 156.760168 
Q 241.49952 154.960168 239.69952 154.960168 
L 193.792605 154.960168 
Q 191.992605 154.960168 191.992605 156.760168 
L 191.992605 196.259296 
Q 191.992605 198.059296 193.792605 198.059296 
z
" style="fill: #ffffff; opacity: 0.8; stroke: #cccccc; stroke-width: 0.24; stroke-linejoin: miter"/>
    </g>
    <g id="line2d_18">
     <path d="M 195.592605 162.13495 
L 204.592605 162.13495 
L 213.592605 162.13495 
" style="fill: none; stroke: #1f77b4; stroke-width: 0.5; stroke-linecap: square"/>
    </g>
    <g id="text_16">
     <!-- $\langle \sigma_z\rangle$ -->
     <g transform="translate(220.792605 165.28495) scale(0.09 -0.09)">
      <defs>
       <path id="CMSY10-68" d="M 2099 4557 
C 2131 4627 2131 4640 2131 4672 
C 2131 4742 2074 4800 2003 4800 
C 1946 4800 1901 4768 1856 4653 
L 736 1715 
C 723 1677 704 1638 704 1600 
C 704 1581 704 1568 736 1491 
L 1856 -1446 
C 1882 -1517 1914 -1600 2003 -1600 
C 2074 -1600 2131 -1542 2131 -1472 
C 2131 -1453 2131 -1440 2099 -1370 
L 966 1600 
L 2099 4557 
z
" transform="scale(0.015625)"/>
       <path id="CMMI12-1b" d="M 3251 2408 
C 3334 2408 3546 2408 3546 2612 
C 3546 2752 3424 2752 3309 2752 
L 1894 2752 
C 934 2752 243 1686 243 932 
C 243 390 595 -64 1171 -64 
C 1926 -64 2752 747 2752 1705 
C 2752 1954 2694 2196 2541 2408 
L 3251 2408 
z
M 1178 64 
C 851 64 614 313 614 754 
C 614 1137 845 2408 1786 2408 
C 2061 2408 2368 2274 2368 1781 
C 2368 1558 2266 1021 2042 652 
C 1811 275 1466 64 1178 64 
z
" transform="scale(0.015625)"/>
       <path id="CMMI12-7a" d="M 813 486 
C 1088 803 1312 1004 1632 1296 
C 2016 1632 2182 1793 2272 1891 
C 2720 2338 2944 2713 2944 2764 
C 2944 2816 2893 2816 2880 2816 
C 2835 2816 2822 2793 2790 2750 
C 2630 2494 2477 2367 2310 2367 
C 2176 2367 2106 2421 1984 2565 
C 1850 2715 1741 2816 1555 2816 
C 1088 2816 806 2257 806 2128 
C 806 2108 813 2068 870 2068 
C 922 2068 928 2091 947 2133 
C 1056 2372 1363 2414 1485 2414 
C 1619 2414 1747 2376 1882 2327 
C 2125 2240 2227 2240 2291 2240 
C 2336 2240 2362 2240 2394 2246 
C 2182 1994 1837 1683 1549 1418 
L 902 816 
C 512 415 275 33 275 -12 
C 275 -51 307 -64 346 -64 
C 384 -64 390 -57 435 14 
C 538 163 742 384 979 384 
C 1114 384 1178 342 1306 193 
C 1427 61 1536 -64 1741 -64 
C 2368 -64 2726 732 2726 876 
C 2726 903 2720 942 2656 942 
C 2605 942 2598 917 2579 855 
C 2438 488 2061 338 1811 338 
C 1677 338 1549 376 1414 425 
C 1158 512 1088 512 1005 512 
C 941 512 870 512 813 486 
z
" transform="scale(0.015625)"/>
       <path id="CMSY10-69" d="M 1747 1491 
C 1779 1568 1779 1581 1779 1600 
C 1779 1619 1779 1632 1747 1709 
L 627 4653 
C 589 4762 550 4800 480 4800 
C 410 4800 352 4742 352 4672 
C 352 4653 352 4640 384 4570 
L 1517 1600 
L 384 -1357 
C 352 -1427 352 -1440 352 -1472 
C 352 -1542 410 -1600 480 -1600 
C 563 -1600 589 -1536 614 -1472 
L 1747 1491 
z
" transform="scale(0.015625)"/>
      </defs>
      <use xlink:href="#CMSY10-68" transform="scale(0.996264)"/>
      <use xlink:href="#CMMI12-1b" transform="translate(38.743734 0) scale(0.996264)"/>
      <use xlink:href="#CMMI12-7a" transform="translate(94.189195 -14.943915) scale(0.697382)"/>
      <use xlink:href="#CMSY10-69" transform="translate(129.51575 0) scale(0.996264)"/>
     </g>
    </g>
    <g id="line2d_19">
     <path d="M 195.592605 175.601326 
L 204.592605 175.601326 
L 213.592605 175.601326 
" style="fill: none; stroke: #ff7f0e; stroke-width: 0.5; stroke-linecap: square"/>
    </g>
    <g id="text_17">
     <!-- $\langle \sigma_x\rangle$ -->
     <g transform="translate(220.792605 178.751326) scale(0.09 -0.09)">
      <defs>
       <path id="CMMI12-78" d="M 3034 2606 
C 2829 2567 2752 2414 2752 2293 
C 2752 2139 2874 2088 2963 2088 
C 3155 2088 3290 2254 3290 2427 
C 3290 2695 2982 2816 2714 2816 
C 2323 2816 2106 2433 2048 2312 
C 1901 2816 1504 2816 1389 2816 
C 736 2816 390 1980 390 1839 
C 390 1814 416 1782 461 1782 
C 512 1782 525 1820 538 1846 
C 755 2555 1184 2689 1370 2689 
C 1658 2689 1715 2420 1715 2267 
C 1715 2127 1677 1980 1600 1673 
L 1382 798 
C 1286 415 1101 64 762 64 
C 730 64 570 64 435 147 
C 666 192 717 383 717 460 
C 717 588 621 664 499 664 
C 346 664 179 530 179 326 
C 179 57 480 -64 755 -64 
C 1062 -64 1280 179 1414 441 
C 1517 64 1837 -64 2074 -64 
C 2726 -64 3072 773 3072 913 
C 3072 945 3046 971 3008 971 
C 2950 971 2944 939 2925 888 
C 2752 326 2381 64 2093 64 
C 1869 64 1747 230 1747 492 
C 1747 632 1773 734 1875 1156 
L 2099 2024 
C 2195 2408 2413 2689 2707 2689 
C 2720 2689 2899 2689 3034 2606 
z
" transform="scale(0.015625)"/>
      </defs>
      <use xlink:href="#CMSY10-68" transform="scale(0.996264)"/>
      <use xlink:href="#CMMI12-1b" transform="translate(38.743734 0) scale(0.996264)"/>
      <use xlink:href="#CMMI12-78" transform="translate(94.189195 -14.943915) scale(0.697382)"/>
      <use xlink:href="#CMSY10-69" transform="translate(133.490986 0) scale(0.996264)"/>
     </g>
    </g>
    <g id="line2d_20">
     <path d="M 195.592605 189.067702 
L 204.592605 189.067702 
L 213.592605 189.067702 
" style="fill: none; stroke: #2ca02c; stroke-width: 0.5; stroke-linecap: square"/>
    </g>
    <g id="text_18">
     <!-- $\langle \sigma_y\rangle$ -->
     <g transform="translate(220.792605 192.217702) scale(0.09 -0.09)">
      <defs>
       <path id="CMMI12-79" d="M 1683 -700 
C 1510 -939 1261 -1152 947 -1152 
C 870 -1152 563 -1152 467 -889 
C 486 -895 518 -895 531 -895 
C 723 -895 851 -729 851 -582 
C 851 -435 730 -384 634 -384 
C 531 -384 307 -458 307 -759 
C 307 -1071 582 -1286 947 -1286 
C 1587 -1286 2234 -700 2413 6 
L 3040 2485 
C 3046 2517 3059 2556 3059 2594 
C 3059 2689 2982 2753 2886 2753 
C 2829 2753 2694 2727 2643 2535 
L 2170 658 
C 2138 543 2138 530 2086 460 
C 1958 281 1747 64 1440 64 
C 1082 64 1050 415 1050 588 
C 1050 952 1222 1443 1395 1903 
C 1466 2088 1504 2178 1504 2305 
C 1504 2574 1312 2816 998 2816 
C 410 2816 173 1890 173 1839 
C 173 1814 198 1782 243 1782 
C 301 1782 307 1807 333 1897 
C 486 2433 730 2689 979 2689 
C 1037 2689 1146 2689 1146 2478 
C 1146 2312 1075 2127 979 1884 
C 666 1047 666 837 666 683 
C 666 77 1101 -64 1421 -64 
C 1606 -64 1837 -6 2061 230 
L 2067 224 
C 1971 -147 1907 -392 1683 -700 
z
" transform="scale(0.015625)"/>
      </defs>
      <use xlink:href="#CMSY10-68" transform="scale(0.996264)"/>
      <use xlink:href="#CMMI12-1b" transform="translate(38.743734 0) scale(0.996264)"/>
      <use xlink:href="#CMMI12-79" transform="translate(94.189195 -14.943915) scale(0.697382)"/>
      <use xlink:href="#CMSY10-69" transform="translate(130.484301 0) scale(0.996264)"/>
     </g>
    </g>
   </g>
  </g>
 </g>
 <defs>
  <clipPath id="p6bac590538">
   <rect x="33.707196" y="7.2" width="212.292324" height="195.359296"/>
  </clipPath>
 </defs>
</svg>
