<?xml version="1.0" encoding="utf-8" standalone="no"?>
<!DOCTYPE svg PUBLIC "-//W3C//DTD SVG 1.1//EN"
  "http://www.w3.org/Graphics/SVG/1.1/DTD/svg11.dtd">
<svg xmlns:xlink="http://www.w3.org/1999/xlink" width="253.19952pt" height="238.79952pt" viewBox="0 0 253.19952 238.79952" xmlns="http://www.w3.org/2000/svg" version="1.1">
 <metadata>
  <rdf:RDF xmlns:dc="http://purl.org/dc/elements/1.1/" xmlns:cc="http://creativecommons.org/ns#" xmlns:rdf="http://www.w3.org/1999/02/22-rdf-syntax-ns#">
   <cc:Work>
    <dc:type rdf:resource="http://purl.org/dc/dcmitype/StillImage"/>
    <dc:date>1980-01-01T00:00:00+00:00</dc:date>
    <dc:format>image/svg+xml</dc:format>
    <dc:creator>
     <cc:Agent>
      <dc:title>Matplotlib v3.6.2, https://matplotlib.org/</dc:title>
     </cc:Agent>
    </dc:creator>
   </cc:Work>
  </rdf:RDF>
 </metadata>
 <defs>
  <style type="text/css">*{stroke-linejoin: round; stroke-linecap: butt}</style>
 </defs>
 <g id="figure_1">
  <g id="patch_1">
   <path d="M 0 238.79952 
L 253.19952 238.79952 
L 253.19952 0 
L 0 0 
z
" style="fill: #ffffff"/>
  </g>
  <g id="axes_1">
   <g id="patch_2">
    <path d="M 33.707196 202.559296 
L 245.99952 202.559296 
L 245.99952 7.2 
L 33.707196 7.2 
z
" style="fill: #ffffff"/>
   </g>
   <g id="matplotlib.axis_1">
    <g id="xtick_1">
     <g id="line2d_1">
      <defs>
       <path id="m8eeafd6011" d="M 0 0 
L 0 3.5 
" style="stroke: #000000; stroke-width: 0.8"/>
      </defs>
      <g>
       <use xlink:href="#m8eeafd6011" x="43.356847" y="202.559296" style="stroke: #000000; stroke-width: 0.8"/>
      </g>
     </g>
     <g id="text_1">
      <!-- $\mathdefault{0}$ -->
      <g transform="translate(41.239756 217.194098) scale(0.08 -0.08)">
       <defs>
        <path id="CMR17-30" d="M 2688 2025 
C 2688 2416 2682 3080 2413 3591 
C 2176 4039 1798 4198 1466 4198 
C 1158 4198 768 4058 525 3597 
C 269 3118 243 2524 243 2025 
C 243 1661 250 1106 448 619 
C 723 -39 1216 -128 1466 -128 
C 1760 -128 2208 -7 2470 600 
C 2662 1042 2688 1559 2688 2025 
z
M 1466 -26 
C 1056 -26 813 325 723 812 
C 653 1188 653 1738 653 2096 
C 653 2588 653 2997 736 3387 
C 858 3929 1216 4096 1466 4096 
C 1728 4096 2067 3923 2189 3400 
C 2272 3036 2278 2607 2278 2096 
C 2278 1680 2278 1169 2202 792 
C 2067 95 1690 -26 1466 -26 
z
" transform="scale(0.015625)"/>
       </defs>
       <use xlink:href="#CMR17-30" transform="scale(0.996264)"/>
      </g>
     </g>
    </g>
    <g id="xtick_2">
     <g id="line2d_2">
      <g>
       <use xlink:href="#m8eeafd6011" x="70.161434" y="202.559296" style="stroke: #000000; stroke-width: 0.8"/>
      </g>
     </g>
     <g id="text_2">
      <!-- $\mathdefault{25}$ -->
      <g transform="translate(65.927251 217.194098) scale(0.08 -0.08)">
       <defs>
        <path id="CMR17-32" d="M 2669 989 
L 2554 989 
C 2490 536 2438 459 2413 420 
C 2381 369 1920 369 1830 369 
L 602 369 
C 832 619 1280 1072 1824 1597 
C 2214 1967 2669 2402 2669 3035 
C 2669 3790 2067 4224 1395 4224 
C 691 4224 262 3604 262 3030 
C 262 2780 448 2748 525 2748 
C 589 2748 781 2787 781 3010 
C 781 3207 614 3264 525 3264 
C 486 3264 448 3258 422 3245 
C 544 3790 915 4058 1306 4058 
C 1862 4058 2227 3617 2227 3035 
C 2227 2479 1901 2000 1536 1584 
L 262 146 
L 262 0 
L 2515 0 
L 2669 989 
z
" transform="scale(0.015625)"/>
        <path id="CMR17-35" d="M 730 3692 
C 794 3666 1056 3584 1325 3584 
C 1920 3584 2246 3911 2432 4100 
C 2432 4157 2432 4192 2394 4192 
C 2387 4192 2374 4192 2323 4163 
C 2099 4058 1837 3973 1517 3973 
C 1325 3973 1037 3999 723 4139 
C 653 4171 640 4171 634 4171 
C 602 4171 595 4164 595 4037 
L 595 2203 
C 595 2089 595 2057 659 2057 
C 691 2057 704 2070 736 2114 
C 941 2401 1222 2522 1542 2522 
C 1766 2522 2246 2382 2246 1289 
C 2246 1085 2246 715 2054 421 
C 1894 159 1645 25 1370 25 
C 947 25 518 320 403 814 
C 429 807 480 795 506 795 
C 589 795 749 840 749 1038 
C 749 1210 627 1280 506 1280 
C 358 1280 262 1190 262 1011 
C 262 454 704 -128 1382 -128 
C 2042 -128 2669 440 2669 1264 
C 2669 2030 2170 2624 1549 2624 
C 1222 2624 947 2503 730 2274 
L 730 3692 
z
" transform="scale(0.015625)"/>
       </defs>
       <use xlink:href="#CMR17-32" transform="scale(0.996264)"/>
       <use xlink:href="#CMR17-35" transform="translate(45.690477 0) scale(0.996264)"/>
      </g>
     </g>
    </g>
    <g id="xtick_3">
     <g id="line2d_3">
      <g>
       <use xlink:href="#m8eeafd6011" x="96.96602" y="202.559296" style="stroke: #000000; stroke-width: 0.8"/>
      </g>
     </g>
     <g id="text_3">
      <!-- $\mathdefault{50}$ -->
      <g transform="translate(92.731837 217.194098) scale(0.08 -0.08)">
       <use xlink:href="#CMR17-35" transform="scale(0.996264)"/>
       <use xlink:href="#CMR17-30" transform="translate(45.690477 0) scale(0.996264)"/>
      </g>
     </g>
    </g>
    <g id="xtick_4">
     <g id="line2d_4">
      <g>
       <use xlink:href="#m8eeafd6011" x="123.770606" y="202.559296" style="stroke: #000000; stroke-width: 0.8"/>
      </g>
     </g>
     <g id="text_4">
      <!-- $\mathdefault{75}$ -->
      <g transform="translate(119.536423 217.194098) scale(0.08 -0.08)">
       <defs>
        <path id="CMR17-37" d="M 2886 3941 
L 2886 4081 
L 1382 4081 
C 634 4081 621 4165 595 4288 
L 480 4288 
L 294 3094 
L 410 3094 
C 429 3215 474 3540 550 3661 
C 589 3712 1062 3712 1171 3712 
L 2579 3712 
L 1869 2661 
C 1395 1954 1069 999 1069 165 
C 1069 89 1069 -128 1299 -128 
C 1530 -128 1530 89 1530 171 
L 1530 465 
C 1530 1508 1709 2196 2003 2636 
L 2886 3941 
z
" transform="scale(0.015625)"/>
       </defs>
       <use xlink:href="#CMR17-37" transform="scale(0.996264)"/>
       <use xlink:href="#CMR17-35" transform="translate(45.690477 0) scale(0.996264)"/>
      </g>
     </g>
    </g>
    <g id="xtick_5">
     <g id="line2d_5">
      <g>
       <use xlink:href="#m8eeafd6011" x="150.575193" y="202.559296" style="stroke: #000000; stroke-width: 0.8"/>
      </g>
     </g>
     <g id="text_5">
      <!-- $\mathdefault{100}$ -->
      <g transform="translate(144.223918 217.194098) scale(0.08 -0.08)">
       <defs>
        <path id="CMR17-31" d="M 1702 4058 
C 1702 4192 1696 4192 1606 4192 
C 1357 3916 979 3827 621 3827 
C 602 3827 570 3827 563 3808 
C 557 3795 557 3782 557 3648 
C 755 3648 1088 3686 1344 3839 
L 1344 461 
C 1344 236 1331 160 781 160 
L 589 160 
L 589 0 
C 896 0 1216 0 1523 0 
C 1830 0 2150 0 2458 0 
L 2458 160 
L 2266 160 
C 1715 160 1702 230 1702 458 
L 1702 4058 
z
" transform="scale(0.015625)"/>
       </defs>
       <use xlink:href="#CMR17-31" transform="scale(0.996264)"/>
       <use xlink:href="#CMR17-30" transform="translate(45.690477 0) scale(0.996264)"/>
       <use xlink:href="#CMR17-30" transform="translate(91.380954 0) scale(0.996264)"/>
      </g>
     </g>
    </g>
    <g id="xtick_6">
     <g id="line2d_6">
      <g>
       <use xlink:href="#m8eeafd6011" x="177.379779" y="202.559296" style="stroke: #000000; stroke-width: 0.8"/>
      </g>
     </g>
     <g id="text_6">
      <!-- $\mathdefault{125}$ -->
      <g transform="translate(171.028505 217.194098) scale(0.08 -0.08)">
       <use xlink:href="#CMR17-31" transform="scale(0.996264)"/>
       <use xlink:href="#CMR17-32" transform="translate(45.690477 0) scale(0.996264)"/>
       <use xlink:href="#CMR17-35" transform="translate(91.380954 0) scale(0.996264)"/>
      </g>
     </g>
    </g>
    <g id="xtick_7">
     <g id="line2d_7">
      <g>
       <use xlink:href="#m8eeafd6011" x="204.184365" y="202.559296" style="stroke: #000000; stroke-width: 0.8"/>
      </g>
     </g>
     <g id="text_7">
      <!-- $\mathdefault{150}$ -->
      <g transform="translate(197.833091 217.194098) scale(0.08 -0.08)">
       <use xlink:href="#CMR17-31" transform="scale(0.996264)"/>
       <use xlink:href="#CMR17-35" transform="translate(45.690477 0) scale(0.996264)"/>
       <use xlink:href="#CMR17-30" transform="translate(91.380954 0) scale(0.996264)"/>
      </g>
     </g>
    </g>
    <g id="xtick_8">
     <g id="line2d_8">
      <g>
       <use xlink:href="#m8eeafd6011" x="230.988952" y="202.559296" style="stroke: #000000; stroke-width: 0.8"/>
      </g>
     </g>
     <g id="text_8">
      <!-- $\mathdefault{175}$ -->
      <g transform="translate(224.637677 217.194098) scale(0.08 -0.08)">
       <use xlink:href="#CMR17-31" transform="scale(0.996264)"/>
       <use xlink:href="#CMR17-37" transform="translate(45.690477 0) scale(0.996264)"/>
       <use xlink:href="#CMR17-35" transform="translate(91.380954 0) scale(0.996264)"/>
      </g>
     </g>
    </g>
    <g id="text_9">
     <!-- $\tau$ -->
     <g transform="translate(137.675756 229.662342) scale(0.1 -0.1)">
      <defs>
       <path id="CMMI12-1c" d="M 1837 2408 
L 2899 2408 
C 2982 2408 3194 2408 3194 2612 
C 3194 2752 3072 2752 2957 2752 
L 1197 2752 
C 1050 2752 832 2752 538 2440 
C 371 2255 166 1917 166 1879 
C 166 1841 198 1828 237 1828 
C 282 1828 288 1847 320 1885 
C 653 2408 986 2408 1146 2408 
L 1677 2408 
L 1011 223 
C 979 127 979 114 979 95 
C 979 25 1024 -64 1152 -64 
C 1350 -64 1382 108 1402 203 
L 1837 2408 
z
" transform="scale(0.015625)"/>
      </defs>
      <use xlink:href="#CMMI12-1c" transform="scale(0.996264)"/>
     </g>
    </g>
   </g>
   <g id="matplotlib.axis_2">
    <g id="ytick_1">
     <g id="line2d_9">
      <defs>
       <path id="m02b8159dc9" d="M 0 0 
L -3.5 0 
" style="stroke: #000000; stroke-width: 0.8"/>
      </defs>
      <g>
       <use xlink:href="#m02b8159dc9" x="33.707196" y="193.679328" style="stroke: #000000; stroke-width: 0.8"/>
      </g>
     </g>
     <g id="text_10">
      <!-- $\mathdefault{−1.0}$ -->
      <g transform="translate(7.2 196.446729) scale(0.08 -0.08)">
       <defs>
        <path id="CMSY10-0" d="M 4218 1472 
C 4326 1472 4442 1472 4442 1600 
C 4442 1728 4326 1728 4218 1728 
L 755 1728 
C 646 1728 531 1728 531 1600 
C 531 1472 646 1472 755 1472 
L 4218 1472 
z
" transform="scale(0.015625)"/>
        <path id="CMMI12-3a" d="M 1178 307 
C 1178 492 1024 619 870 619 
C 685 619 557 466 557 313 
C 557 128 710 0 864 0 
C 1050 0 1178 153 1178 307 
z
" transform="scale(0.015625)"/>
       </defs>
       <use xlink:href="#CMSY10-0" transform="scale(0.996264)"/>
       <use xlink:href="#CMR17-31" transform="translate(77.487468 0) scale(0.996264)"/>
       <use xlink:href="#CMMI12-3a" transform="translate(123.177945 0) scale(0.996264)"/>
       <use xlink:href="#CMR17-30" transform="translate(150.275122 0) scale(0.996264)"/>
      </g>
     </g>
    </g>
    <g id="ytick_2">
     <g id="line2d_10">
      <g>
       <use xlink:href="#m02b8159dc9" x="33.707196" y="158.438618" style="stroke: #000000; stroke-width: 0.8"/>
      </g>
     </g>
     <g id="text_11">
      <!-- $\mathdefault{−0.8}$ -->
      <g transform="translate(7.2 161.206019) scale(0.08 -0.08)">
       <defs>
        <path id="CMR17-38" d="M 1741 2264 
C 2144 2467 2554 2773 2554 3263 
C 2554 3841 1990 4179 1472 4179 
C 890 4179 378 3759 378 3180 
C 378 3021 416 2747 666 2505 
C 730 2442 998 2251 1171 2130 
C 883 1983 211 1634 211 934 
C 211 279 838 -128 1459 -128 
C 2144 -128 2720 362 2720 1010 
C 2720 1590 2330 1857 2074 2029 
L 1741 2264 
z
M 902 2822 
C 851 2854 595 3051 595 3351 
C 595 3739 998 4032 1459 4032 
C 1965 4032 2336 3676 2336 3262 
C 2336 2669 1670 2331 1638 2331 
C 1632 2331 1626 2331 1574 2370 
L 902 2822 
z
M 2080 1519 
C 2176 1449 2483 1240 2483 851 
C 2483 381 2010 25 1472 25 
C 890 25 448 438 448 940 
C 448 1443 838 1862 1280 2060 
L 2080 1519 
z
" transform="scale(0.015625)"/>
       </defs>
       <use xlink:href="#CMSY10-0" transform="scale(0.996264)"/>
       <use xlink:href="#CMR17-30" transform="translate(77.487468 0) scale(0.996264)"/>
       <use xlink:href="#CMMI12-3a" transform="translate(123.177945 0) scale(0.996264)"/>
       <use xlink:href="#CMR17-38" transform="translate(150.275122 0) scale(0.996264)"/>
      </g>
     </g>
    </g>
    <g id="ytick_3">
     <g id="line2d_11">
      <g>
       <use xlink:href="#m02b8159dc9" x="33.707196" y="123.197908" style="stroke: #000000; stroke-width: 0.8"/>
      </g>
     </g>
     <g id="text_12">
      <!-- $\mathdefault{−0.6}$ -->
      <g transform="translate(7.2 125.965309) scale(0.08 -0.08)">
       <defs>
        <path id="CMR17-36" d="M 678 2176 
C 678 3690 1395 4032 1811 4032 
C 1946 4032 2272 4009 2400 3776 
C 2298 3776 2106 3776 2106 3553 
C 2106 3381 2246 3323 2336 3323 
C 2394 3323 2566 3348 2566 3560 
C 2566 3954 2246 4179 1805 4179 
C 1043 4179 243 3390 243 1984 
C 243 253 966 -128 1478 -128 
C 2099 -128 2688 427 2688 1283 
C 2688 2081 2170 2662 1517 2662 
C 1126 2662 838 2407 678 1960 
L 678 2176 
z
M 1478 25 
C 691 25 691 1200 691 1436 
C 691 1896 909 2560 1504 2560 
C 1613 2560 1926 2560 2138 2120 
C 2253 1870 2253 1609 2253 1289 
C 2253 944 2253 690 2118 434 
C 1978 171 1773 25 1478 25 
z
" transform="scale(0.015625)"/>
       </defs>
       <use xlink:href="#CMSY10-0" transform="scale(0.996264)"/>
       <use xlink:href="#CMR17-30" transform="translate(77.487468 0) scale(0.996264)"/>
       <use xlink:href="#CMMI12-3a" transform="translate(123.177945 0) scale(0.996264)"/>
       <use xlink:href="#CMR17-36" transform="translate(150.275122 0) scale(0.996264)"/>
      </g>
     </g>
    </g>
    <g id="ytick_4">
     <g id="line2d_12">
      <g>
       <use xlink:href="#m02b8159dc9" x="33.707196" y="87.957198" style="stroke: #000000; stroke-width: 0.8"/>
      </g>
     </g>
     <g id="text_13">
      <!-- $\mathdefault{−0.4}$ -->
      <g transform="translate(7.2 90.724599) scale(0.08 -0.08)">
       <defs>
        <path id="CMR17-34" d="M 2150 4122 
C 2150 4256 2144 4256 2029 4256 
L 128 1254 
L 128 1088 
L 1779 1088 
L 1779 457 
C 1779 224 1766 160 1318 160 
L 1197 160 
L 1197 0 
C 1402 0 1747 0 1965 0 
C 2182 0 2528 0 2733 0 
L 2733 160 
L 2611 160 
C 2163 160 2150 224 2150 457 
L 2150 1088 
L 2803 1088 
L 2803 1254 
L 2150 1254 
L 2150 4122 
z
M 1798 3703 
L 1798 1254 
L 256 1254 
L 1798 3703 
z
" transform="scale(0.015625)"/>
       </defs>
       <use xlink:href="#CMSY10-0" transform="scale(0.996264)"/>
       <use xlink:href="#CMR17-30" transform="translate(77.487468 0) scale(0.996264)"/>
       <use xlink:href="#CMMI12-3a" transform="translate(123.177945 0) scale(0.996264)"/>
       <use xlink:href="#CMR17-34" transform="translate(150.275122 0) scale(0.996264)"/>
      </g>
     </g>
    </g>
    <g id="ytick_5">
     <g id="line2d_13">
      <g>
       <use xlink:href="#m02b8159dc9" x="33.707196" y="52.716489" style="stroke: #000000; stroke-width: 0.8"/>
      </g>
     </g>
     <g id="text_14">
      <!-- $\mathdefault{−0.2}$ -->
      <g transform="translate(7.2 55.48389) scale(0.08 -0.08)">
       <use xlink:href="#CMSY10-0" transform="scale(0.996264)"/>
       <use xlink:href="#CMR17-30" transform="translate(77.487468 0) scale(0.996264)"/>
       <use xlink:href="#CMMI12-3a" transform="translate(123.177945 0) scale(0.996264)"/>
       <use xlink:href="#CMR17-32" transform="translate(150.275122 0) scale(0.996264)"/>
      </g>
     </g>
    </g>
    <g id="ytick_6">
     <g id="line2d_14">
      <g>
       <use xlink:href="#m02b8159dc9" x="33.707196" y="17.475779" style="stroke: #000000; stroke-width: 0.8"/>
      </g>
     </g>
     <g id="text_15">
      <!-- $\mathdefault{0.0}$ -->
      <g transform="translate(13.786507 20.24318) scale(0.08 -0.08)">
       <use xlink:href="#CMR17-30" transform="scale(0.996264)"/>
       <use xlink:href="#CMMI12-3a" transform="translate(45.690477 0) scale(0.996264)"/>
       <use xlink:href="#CMR17-30" transform="translate(72.787654 0) scale(0.996264)"/>
      </g>
     </g>
    </g>
   </g>
   <g id="line2d_15">
    <path d="M 43.356847 193.679328 
L 52.684843 193.568677 
L 53.006498 193.30422 
L 53.328153 192.675947 
L 53.649808 191.421006 
L 53.971463 189.227287 
L 54.357449 184.951963 
L 54.807767 177.394413 
L 55.515408 161.134295 
L 57.188014 122.415812 
L 58.024317 107.724208 
L 58.731958 98.767764 
L 59.375268 93.024988 
L 61.369529 79.294362 
L 63.106466 71.929011 
L 64.907735 67.452463 
L 65.422383 66.938851 
L 65.937031 65.875767 
L 66.451679 65.035171 
L 67.030658 64.458471 
L 67.995623 63.670498 
L 68.510271 63.03615 
L 68.896257 63.035929 
L 69.282243 62.930696 
L 69.73256 62.757199 
L 69.925553 62.936631 
L 70.247208 63.669339 
L 70.954849 65.341095 
L 72.3058 68.187651 
L 73.013442 69.527235 
L 73.592421 70.151123 
L 74.107069 70.375012 
L 74.943372 70.427209 
L 86.715946 70.551559 
L 87.101932 70.970206 
L 87.423587 71.675749 
L 87.809573 73.128622 
L 88.25989 75.750587 
L 88.838869 80.698823 
L 89.803834 91.4408 
L 91.798096 113.247843 
L 92.69873 120.668731 
L 93.535033 125.962802 
L 94.435667 130.163377 
L 95.400632 133.781476 
L 96.494259 136.958341 
L 97.137569 138.296894 
L 98.295527 139.89706 
L 99.71081 141.412168 
L 101.383416 142.620314 
L 101.769402 143.321543 
L 102.28405 144.801515 
L 102.863029 147.070375 
L 103.699332 151.454812 
L 104.599966 155.754691 
L 105.178945 157.586072 
L 105.693593 158.542447 
L 106.14391 158.976142 
L 106.658558 159.157849 
L 107.687854 159.192887 
L 117.080182 159.083189 
L 117.401837 158.837172 
L 117.723492 158.27304 
L 118.045147 157.163782 
L 118.431133 154.784712 
L 118.88145 150.164995 
L 119.396098 142.369501 
L 122.098 96.216966 
L 122.869972 88.559165 
L 123.706275 82.790525 
L 124.413916 78.688345 
L 126.665502 70.302274 
L 127.373143 68.78101 
L 128.273777 67.171427 
L 129.238742 64.847671 
L 129.624728 64.521191 
L 130.525362 64.251222 
L 131.168672 63.302829 
L 131.876313 62.326826 
L 132.133637 62.378168 
L 132.648285 62.629692 
L 132.96994 62.422427 
L 133.484588 62.082724 
L 133.934905 62.10046 
L 134.320891 62.352449 
L 134.706878 62.949655 
L 135.47885 64.759955 
L 136.379484 66.706405 
L 137.730435 69.005436 
L 138.245083 69.249931 
L 139.081386 69.333009 
L 146.929769 69.335797 
L 150.918291 69.434395 
L 151.239946 69.722589 
L 151.625932 70.424643 
L 152.011918 71.669759 
L 152.397904 73.692068 
L 152.912553 77.649729 
L 153.748856 85.952732 
L 156.901075 119.564125 
L 157.673047 124.729558 
L 158.573681 129.278635 
L 159.538646 132.863543 
L 160.632273 136.124181 
L 161.597239 138.264443 
L 162.176218 139.12863 
L 163.977486 141.224698 
L 165.585761 142.452052 
L 166.036078 143.133585 
L 166.486395 144.352165 
L 167.129705 146.787617 
L 168.030339 151.248364 
L 168.995304 155.760654 
L 169.574283 157.564213 
L 170.088931 158.478645 
L 170.539249 158.860512 
L 171.053897 159.008989 
L 172.276186 159.035625 
L 181.346858 158.934847 
L 181.732844 158.653002 
L 182.054499 158.085734 
L 182.376154 156.975902 
L 182.697809 155.052191 
L 183.148126 150.678412 
L 183.727105 142.255353 
L 184.756401 123.01889 
L 185.721366 106.43575 
L 186.750662 92.78671 
L 187.329641 87.853204 
L 188.358938 81.376582 
L 190.353199 72.47241 
L 191.253833 70.376355 
L 191.897143 68.617791 
L 194.084397 64.415298 
L 194.599045 64.3403 
L 195.049362 64.164885 
L 195.435348 63.707468 
L 196.335982 62.487077 
L 196.657637 62.506172 
L 196.979292 62.474721 
L 197.300948 62.130432 
L 197.751265 61.61838 
L 198.008589 61.634742 
L 198.265913 61.922554 
L 199.488202 64.116933 
L 201.611125 68.520363 
L 202.125773 68.984264 
L 202.704752 69.206244 
L 203.541055 69.269767 
L 214.155671 69.237398 
L 215.056306 69.30186 
L 215.442292 69.550636 
L 215.828278 70.122867 
L 216.214264 71.131599 
L 216.60025 72.746195 
L 217.050567 75.639737 
L 217.629546 80.916245 
L 218.53018 91.510508 
L 219.945462 108.116147 
L 220.974758 117.957615 
L 221.74673 123.203483 
L 222.904688 129.631378 
L 223.740992 133.021392 
L 224.577295 135.580823 
L 225.220605 136.920235 
L 227.343528 140.366354 
L 228.244162 141.143482 
L 228.951803 141.583038 
L 229.852437 142.130423 
L 230.367085 142.859075 
L 230.817402 143.834062 
L 231.267719 145.412696 
L 232.039691 149.250412 
L 233.390643 155.631233 
L 233.969622 157.321416 
L 234.48427 158.160739 
L 234.934587 158.492902 
L 235.513566 158.617412 
L 236.349869 158.630251 
L 236.349869 158.630251 
" clip-path="url(#pf9e0d4fd8b)" style="fill: none; stroke: #ff7f0e; stroke-width: 0.5; stroke-linecap: square"/>
   </g>
   <g id="line2d_16">
    <path d="M 43.356847 17.475779 
L 53.328153 17.369175 
L 54.550442 17.267004 
L 57.059352 17.299537 
L 57.702662 17.418624 
L 58.088648 17.806956 
L 58.667627 18.461323 
L 58.924951 18.480238 
L 59.182275 18.232693 
L 59.889916 17.286769 
L 60.211571 17.307992 
L 61.43386 17.704344 
L 62.72048 17.0721 
L 63.36379 17.188496 
L 64.007101 17.307573 
L 64.521749 17.141262 
L 65.615376 16.72361 
L 65.937031 16.882019 
L 66.387348 17.068291 
L 67.030658 16.978885 
L 67.480975 16.670877 
L 68.252947 16.079968 
L 68.510271 16.183203 
L 68.960588 16.700584 
L 69.603898 17.415659 
L 69.989884 17.504156 
L 71.469497 17.299241 
L 72.177138 17.050008 
L 72.563125 17.167416 
L 73.978407 17.92117 
L 74.364393 17.755322 
L 75.586682 17.028213 
L 75.972668 17.150447 
L 77.38795 17.913701 
L 77.838267 17.718597 
L 79.060556 17.035902 
L 79.575204 17.091177 
L 80.347176 17.452582 
L 81.312142 17.855778 
L 82.019783 17.919036 
L 82.791755 17.763563 
L 85.364995 17.016313 
L 86.32996 17.153668 
L 86.908939 17.417498 
L 87.938235 17.889045 
L 89.54651 18.221666 
L 90.061158 17.779127 
L 90.897462 17.13817 
L 91.347779 16.971412 
L 93.020385 16.96098 
L 94.178343 16.643482 
L 94.950315 16.397974 
L 95.91528 16.458405 
L 96.301266 16.72285 
L 97.137569 17.415149 
L 98.038203 17.827435 
L 98.48852 17.822065 
L 99.003168 17.595079 
L 99.903803 17.039845 
L 100.675775 16.919078 
L 101.576409 16.669687 
L 102.863029 16.776529 
L 104.342642 17.193338 
L 106.272572 18.012127 
L 106.980213 18.009015 
L 107.752185 17.749161 
L 109.746447 16.914375 
L 110.325426 16.973022 
L 110.904405 17.257276 
L 112.255356 18.042208 
L 112.641342 17.959868 
L 113.15599 17.564281 
L 113.927962 16.943972 
L 114.313948 16.94245 
L 114.699934 17.200587 
L 115.72923 18.036398 
L 116.050885 17.989385 
L 116.501202 17.642777 
L 117.273175 17.012039 
L 117.59483 17.005963 
L 117.980816 17.258751 
L 119.203105 18.367246 
L 119.52476 18.22994 
L 120.296732 17.766839 
L 121.776345 17.508343 
L 122.290993 17.394982 
L 122.869972 17.445824 
L 124.092261 18.040633 
L 124.478247 17.747563 
L 125.507543 16.869426 
L 125.829199 17.011169 
L 127.051488 17.890748 
L 127.437474 17.871334 
L 127.887791 17.585517 
L 128.338108 17.364892 
L 128.852756 17.414959 
L 129.431735 17.734543 
L 129.882052 17.879884 
L 130.139376 17.7559 
L 130.589693 17.175626 
L 131.104341 16.624635 
L 131.361665 16.639235 
L 131.618989 16.933467 
L 132.519623 18.371822 
L 132.712616 18.228923 
L 133.034271 17.554277 
L 133.484588 16.768578 
L 133.741912 16.681813 
L 133.999236 16.842327 
L 135.092864 17.891369 
L 135.414519 17.772576 
L 135.929167 17.281307 
L 136.379484 16.992748 
L 136.701139 17.042558 
L 137.151456 17.402448 
L 137.923428 18.067636 
L 138.245083 18.083104 
L 138.631069 17.831163 
L 139.724696 16.846238 
L 140.046351 16.910173 
L 140.432337 17.240281 
L 141.332971 18.084175 
L 141.654626 18.084053 
L 142.040612 17.834959 
L 143.19857 16.866459 
L 143.584556 16.866357 
L 144.099205 17.126805 
L 145.578818 18.052523 
L 146.157797 18.103414 
L 146.801107 17.933765 
L 147.830403 17.377358 
L 148.859699 16.904229 
L 149.503009 16.8532 
L 150.339312 17.048696 
L 151.046953 17.412661 
L 152.076249 17.896309 
L 152.848222 18.074742 
L 153.298539 17.904595 
L 154.263504 17.551669 
L 155.550124 17.144752 
L 156.064772 17.110693 
L 156.901075 17.392982 
L 157.608716 17.560186 
L 158.380688 17.344311 
L 159.538646 17.14457 
L 160.889597 17.321138 
L 162.819528 18.21583 
L 163.398507 18.157027 
L 167.515691 17.404672 
L 170.217593 17.713698 
L 171.182559 17.793118 
L 172.147524 17.618911 
L 174.206116 17.150315 
L 174.978088 17.260111 
L 176.972349 17.755555 
L 177.615659 17.458301 
L 178.3233 17.160575 
L 178.773617 17.202489 
L 179.416928 17.540486 
L 180.060238 17.796646 
L 180.510555 17.73219 
L 182.054499 17.222877 
L 183.469781 17.547698 
L 184.113091 17.174903 
L 184.627739 16.950386 
L 185.013725 17.020398 
L 185.464042 17.375756 
L 185.914359 17.666258 
L 186.300345 17.551104 
L 187.329641 17.171226 
L 187.715627 17.17129 
L 188.551931 17.222871 
L 189.967213 17.470285 
L 190.932178 18.039334 
L 191.189502 17.820423 
L 192.025805 16.862615 
L 192.283129 17.018404 
L 192.669115 17.6348 
L 193.119432 18.349446 
L 193.312425 18.385358 
L 193.569749 18.146009 
L 194.470383 16.975959 
L 194.727707 17.008717 
L 195.049362 17.333154 
L 195.949996 18.448929 
L 196.20732 18.419071 
L 196.593306 18.0291 
L 197.300948 17.205285 
L 197.493941 17.315999 
L 197.944258 17.980092 
L 198.330244 18.417925 
L 198.651899 18.477317 
L 199.102216 18.32369 
L 199.681195 17.760883 
L 200.131512 17.430854 
L 200.453167 17.441724 
L 200.839153 17.72795 
L 201.546794 18.357271 
L 201.868449 18.33816 
L 202.190104 18.06303 
L 203.412393 16.702715 
L 203.734048 16.817125 
L 204.120034 17.248866 
L 204.892006 18.179681 
L 205.213661 18.239204 
L 205.535316 18.037899 
L 206.114296 17.29931 
L 206.628944 16.778444 
L 206.950599 16.704438 
L 207.272254 16.837269 
L 207.786902 17.329078 
L 208.623205 18.105134 
L 209.073522 18.248005 
L 209.523839 18.176267 
L 210.167149 17.817297 
L 211.775424 16.793805 
L 212.354403 16.702524 
L 212.933382 16.832132 
L 213.641023 17.235402 
L 214.991975 18.056325 
L 215.570954 18.171702 
L 216.214264 18.053739 
L 216.921905 17.683118 
L 218.401518 16.669699 
L 218.851835 16.661027 
L 219.302152 16.954999 
L 220.267117 17.542474 
L 220.781765 17.643278 
L 221.296413 17.511747 
L 222.39004 17.18069 
L 222.969019 17.030348 
L 223.933985 16.62803 
L 224.512964 16.784089 
L 225.477929 17.114199 
L 226.121239 17.514936 
L 226.764549 17.85346 
L 228.244162 18.307357 
L 228.694479 18.195214 
L 230.560078 17.445405 
L 231.010395 17.478191 
L 232.425677 17.70783 
L 235.12758 17.444616 
L 236.349869 17.365646 
L 236.349869 17.365646 
" clip-path="url(#pf9e0d4fd8b)" style="fill: none; stroke: #2ca02c; stroke-width: 0.5; stroke-linecap: square"/>
   </g>
   <g id="line2d_17">
    <path d="M 43.356847 17.475779 
L 57.123683 17.387106 
L 57.638331 16.983113 
L 58.024317 16.684151 
L 58.21731 16.757782 
L 58.538965 17.18608 
L 59.375268 18.548142 
L 59.568261 18.371161 
L 60.275902 17.337634 
L 60.726219 17.261208 
L 61.047874 17.440954 
L 61.626853 17.83517 
L 61.948508 17.766227 
L 62.656149 17.484273 
L 63.299459 17.408744 
L 64.007101 17.425314 
L 65.358052 17.573235 
L 65.744038 17.278924 
L 66.065693 17.117694 
L 66.387348 17.288794 
L 67.223651 17.732657 
L 67.866961 17.869912 
L 68.124285 17.608676 
L 68.767595 16.732086 
L 69.024919 16.760873 
L 69.410905 17.080096 
L 69.989884 17.545096 
L 71.855483 17.637459 
L 73.077773 17.061563 
L 73.52809 17.227151 
L 74.750379 17.923791 
L 75.136365 17.797793 
L 76.551647 17.043216 
L 77.001964 17.267887 
L 78.03126 17.910247 
L 78.481577 17.870362 
L 79.124887 17.518357 
L 79.96119 17.088481 
L 80.540169 17.034661 
L 81.24781 17.213987 
L 83.370734 17.918114 
L 84.142706 17.854129 
L 85.107671 17.524077 
L 86.651615 17.010422 
L 87.423587 17.100927 
L 88.195559 17.455927 
L 89.482179 17.963523 
L 90.511476 17.86484 
L 91.347779 17.685078 
L 91.926758 17.636993 
L 92.634399 17.532627 
L 93.728026 17.705874 
L 94.307005 17.793831 
L 94.821653 17.629494 
L 96.172604 16.940555 
L 97.073238 16.974905 
L 98.617182 17.285137 
L 99.324824 17.311678 
L 100.675775 17.610586 
L 101.769402 17.686028 
L 102.798698 17.550098 
L 104.985952 16.903563 
L 105.693593 17.056984 
L 106.658558 17.505089 
L 107.816516 17.988788 
L 108.524158 18.029807 
L 109.231799 17.8287 
L 110.261095 17.249522 
L 111.033067 16.923278 
L 111.483384 16.946298 
L 111.998032 17.224024 
L 113.220321 18.042869 
L 113.606307 17.933156 
L 114.120955 17.478717 
L 114.764265 16.94997 
L 115.08592 16.920911 
L 115.471906 17.137663 
L 116.629864 18.028899 
L 116.95152 17.92702 
L 117.466168 17.458945 
L 118.109478 16.909565 
L 118.495464 16.861675 
L 118.817119 17.032076 
L 119.331767 17.645254 
L 119.717753 17.952038 
L 120.039408 17.904152 
L 121.004373 17.422771 
L 121.905007 17.888856 
L 122.869972 17.19136 
L 123.320289 16.916087 
L 123.577613 17.010815 
L 123.963599 17.536787 
L 124.413916 18.054359 
L 124.735571 18.049322 
L 125.31455 17.808117 
L 125.764867 17.162585 
L 126.086523 16.851197 
L 126.343847 16.846891 
L 126.794164 17.160512 
L 127.952122 17.914157 
L 129.303073 17.123837 
L 129.624728 17.229457 
L 129.946383 17.630269 
L 130.332369 18.073395 
L 130.654024 18.106181 
L 130.911348 17.944218 
L 131.233003 17.400667 
L 131.747651 16.435917 
L 131.940644 16.387894 
L 132.133637 16.578814 
L 132.455292 17.381879 
L 132.96994 18.746276 
L 133.162933 18.721563 
L 133.420257 18.270357 
L 134.127898 16.811687 
L 134.385222 16.64367 
L 134.578215 16.703696 
L 134.899871 17.106559 
L 135.543181 17.973335 
L 135.864836 18.055256 
L 136.186491 17.83799 
L 137.215787 16.89859 
L 137.537442 16.958871 
L 137.987759 17.343742 
L 138.759731 18.067928 
L 139.081386 18.091405 
L 139.403041 17.898459 
L 140.689661 16.844047 
L 141.011316 16.987369 
L 141.590295 17.586329 
L 142.169274 18.06536 
L 142.55526 18.087752 
L 143.005577 17.823941 
L 144.292198 16.87584 
L 144.806846 16.868012 
L 145.385825 17.099836 
L 147.380086 18.088524 
L 148.023396 18.075062 
L 148.731037 17.818247 
L 150.85396 16.838867 
L 151.368608 16.959478 
L 152.269242 17.48186 
L 153.169877 17.96655 
L 154.00618 17.948681 
L 154.64949 17.837811 
L 155.678786 17.472275 
L 157.158399 17.746001 
L 158.766674 18.04496 
L 159.281322 17.739624 
L 160.825266 16.729171 
L 162.240549 16.763874 
L 162.819528 16.806428 
L 163.205514 16.962021 
L 164.363472 17.681671 
L 165.199775 17.804065 
L 167.644353 17.731944 
L 169.123966 17.183983 
L 170.088931 17.265851 
L 171.504214 17.636548 
L 172.53351 17.799887 
L 173.434144 17.711553 
L 174.720764 17.307299 
L 175.557067 17.150216 
L 176.200377 17.275295 
L 177.744321 17.788754 
L 178.258969 17.593544 
L 179.223935 17.154347 
L 179.674252 17.222629 
L 181.218196 17.752031 
L 181.797175 17.455526 
L 182.440485 17.163842 
L 182.826471 17.222425 
L 183.341119 17.595197 
L 183.920098 17.923857 
L 184.241753 17.881603 
L 184.627739 17.558984 
L 185.142387 17.095217 
L 185.464042 17.127734 
L 185.914359 17.543427 
L 186.300345 17.728709 
L 186.750662 17.634488 
L 187.715627 17.40934 
L 188.551931 17.539292 
L 189.452565 17.28212 
L 189.902882 17.154322 
L 190.353199 17.065854 
L 190.610523 17.273709 
L 191.511157 18.327884 
L 191.70415 18.154924 
L 192.090136 17.304212 
L 192.476122 16.578518 
L 192.733446 16.457206 
L 192.926439 16.626694 
L 193.248094 17.3931 
L 193.698411 18.309345 
L 193.955735 18.377206 
L 194.213059 18.128332 
L 195.242355 16.715418 
L 195.499679 16.735474 
L 195.757003 17.051245 
L 196.593306 18.325495 
L 196.85063 18.339759 
L 197.043624 18.081972 
L 197.751265 16.690556 
L 197.944258 16.739209 
L 198.265913 17.16817 
L 198.71623 17.747174 
L 199.230878 17.991099 
L 199.616864 17.984765 
L 199.938519 17.765669 
L 200.967815 16.83207 
L 201.225139 16.921852 
L 201.611125 17.349188 
L 202.318766 18.20088 
L 202.640421 18.271638 
L 202.962076 18.08278 
L 203.476724 17.419707 
L 204.055703 16.768082 
L 204.377358 16.714454 
L 204.699013 16.926602 
L 205.342323 17.78024 
L 205.79264 18.204324 
L 206.114296 18.229583 
L 206.435951 18.019675 
L 207.915564 16.701604 
L 208.30155 16.807555 
L 208.880529 17.245555 
L 209.974156 18.09058 
L 210.553135 18.247741 
L 211.132114 18.163845 
L 211.839755 17.800657 
L 213.576692 16.758582 
L 214.09134 16.735551 
L 214.605988 16.912426 
L 215.699616 17.658945 
L 216.407257 18.008634 
L 216.921905 17.965398 
L 217.951201 17.634542 
L 219.302152 16.884446 
L 219.881131 17.014993 
L 220.846096 17.373459 
L 222.132716 18.227853 
L 222.711695 18.203618 
L 223.226343 18.002751 
L 224.963281 17.206095 
L 227.279197 17.01078 
L 229.40212 17.595289 
L 231.460712 17.370637 
L 233.454974 17.551313 
L 234.48427 17.591724 
L 236.349869 17.48547 
L 236.349869 17.48547 
" clip-path="url(#pf9e0d4fd8b)" style="fill: none; stroke: #d62728; stroke-width: 0.5; stroke-linecap: square"/>
   </g>
   <g id="patch_3">
    <path d="M 33.707196 202.559296 
L 33.707196 7.2 
" style="fill: none; stroke: #000000; stroke-width: 0.8; stroke-linejoin: miter; stroke-linecap: square"/>
   </g>
   <g id="patch_4">
    <path d="M 245.99952 202.559296 
L 245.99952 7.2 
" style="fill: none; stroke: #000000; stroke-width: 0.8; stroke-linejoin: miter; stroke-linecap: square"/>
   </g>
   <g id="patch_5">
    <path d="M 33.707196 202.559296 
L 245.99952 202.559296 
" style="fill: none; stroke: #000000; stroke-width: 0.8; stroke-linejoin: miter; stroke-linecap: square"/>
   </g>
   <g id="patch_6">
    <path d="M 33.707196 7.2 
L 245.99952 7.2 
" style="fill: none; stroke: #000000; stroke-width: 0.8; stroke-linejoin: miter; stroke-linecap: square"/>
   </g>
   <g id="legend_1">
    <g id="patch_7">
     <path d="M 193.792605 198.059296 
L 239.69952 198.059296 
Q 241.49952 198.059296 241.49952 196.259296 
L 241.49952 156.760168 
Q 241.49952 154.960168 239.69952 154.960168 
L 193.792605 154.960168 
Q 191.992605 154.960168 191.992605 156.760168 
L 191.992605 196.259296 
Q 191.992605 198.059296 193.792605 198.059296 
z
" style="fill: #ffffff; opacity: 0.8; stroke: #cccccc; stroke-width: 0.24; stroke-linejoin: miter"/>
    </g>
    <g id="line2d_18">
     <path d="M 195.592605 162.13495 
L 204.592605 162.13495 
L 213.592605 162.13495 
" style="fill: none; stroke: #ff7f0e; stroke-width: 0.5; stroke-linecap: square"/>
    </g>
    <g id="text_16">
     <!-- $\langle \sigma_z\rangle$ -->
     <g transform="translate(220.792605 165.28495) scale(0.09 -0.09)">
      <defs>
       <path id="CMSY10-68" d="M 2099 4557 
C 2131 4627 2131 4640 2131 4672 
C 2131 4742 2074 4800 2003 4800 
C 1946 4800 1901 4768 1856 4653 
L 736 1715 
C 723 1677 704 1638 704 1600 
C 704 1581 704 1568 736 1491 
L 1856 -1446 
C 1882 -1517 1914 -1600 2003 -1600 
C 2074 -1600 2131 -1542 2131 -1472 
C 2131 -1453 2131 -1440 2099 -1370 
L 966 1600 
L 2099 4557 
z
" transform="scale(0.015625)"/>
       <path id="CMMI12-1b" d="M 3251 2408 
C 3334 2408 3546 2408 3546 2612 
C 3546 2752 3424 2752 3309 2752 
L 1894 2752 
C 934 2752 243 1686 243 932 
C 243 390 595 -64 1171 -64 
C 1926 -64 2752 747 2752 1705 
C 2752 1954 2694 2196 2541 2408 
L 3251 2408 
z
M 1178 64 
C 851 64 614 313 614 754 
C 614 1137 845 2408 1786 2408 
C 2061 2408 2368 2274 2368 1781 
C 2368 1558 2266 1021 2042 652 
C 1811 275 1466 64 1178 64 
z
" transform="scale(0.015625)"/>
       <path id="CMMI12-7a" d="M 813 486 
C 1088 803 1312 1004 1632 1296 
C 2016 1632 2182 1793 2272 1891 
C 2720 2338 2944 2713 2944 2764 
C 2944 2816 2893 2816 2880 2816 
C 2835 2816 2822 2793 2790 2750 
C 2630 2494 2477 2367 2310 2367 
C 2176 2367 2106 2421 1984 2565 
C 1850 2715 1741 2816 1555 2816 
C 1088 2816 806 2257 806 2128 
C 806 2108 813 2068 870 2068 
C 922 2068 928 2091 947 2133 
C 1056 2372 1363 2414 1485 2414 
C 1619 2414 1747 2376 1882 2327 
C 2125 2240 2227 2240 2291 2240 
C 2336 2240 2362 2240 2394 2246 
C 2182 1994 1837 1683 1549 1418 
L 902 816 
C 512 415 275 33 275 -12 
C 275 -51 307 -64 346 -64 
C 384 -64 390 -57 435 14 
C 538 163 742 384 979 384 
C 1114 384 1178 342 1306 193 
C 1427 61 1536 -64 1741 -64 
C 2368 -64 2726 732 2726 876 
C 2726 903 2720 942 2656 942 
C 2605 942 2598 917 2579 855 
C 2438 488 2061 338 1811 338 
C 1677 338 1549 376 1414 425 
C 1158 512 1088 512 1005 512 
C 941 512 870 512 813 486 
z
" transform="scale(0.015625)"/>
       <path id="CMSY10-69" d="M 1747 1491 
C 1779 1568 1779 1581 1779 1600 
C 1779 1619 1779 1632 1747 1709 
L 627 4653 
C 589 4762 550 4800 480 4800 
C 410 4800 352 4742 352 4672 
C 352 4653 352 4640 384 4570 
L 1517 1600 
L 384 -1357 
C 352 -1427 352 -1440 352 -1472 
C 352 -1542 410 -1600 480 -1600 
C 563 -1600 589 -1536 614 -1472 
L 1747 1491 
z
" transform="scale(0.015625)"/>
      </defs>
      <use xlink:href="#CMSY10-68" transform="scale(0.996264)"/>
      <use xlink:href="#CMMI12-1b" transform="translate(38.743734 0) scale(0.996264)"/>
      <use xlink:href="#CMMI12-7a" transform="translate(94.189195 -14.943915) scale(0.697382)"/>
      <use xlink:href="#CMSY10-69" transform="translate(129.51575 0) scale(0.996264)"/>
     </g>
    </g>
    <g id="line2d_19">
     <path d="M 195.592605 175.601326 
L 204.592605 175.601326 
L 213.592605 175.601326 
" style="fill: none; stroke: #2ca02c; stroke-width: 0.5; stroke-linecap: square"/>
    </g>
    <g id="text_17">
     <!-- $\langle \sigma_x\rangle$ -->
     <g transform="translate(220.792605 178.751326) scale(0.09 -0.09)">
      <defs>
       <path id="CMMI12-78" d="M 3034 2606 
C 2829 2567 2752 2414 2752 2293 
C 2752 2139 2874 2088 2963 2088 
C 3155 2088 3290 2254 3290 2427 
C 3290 2695 2982 2816 2714 2816 
C 2323 2816 2106 2433 2048 2312 
C 1901 2816 1504 2816 1389 2816 
C 736 2816 390 1980 390 1839 
C 390 1814 416 1782 461 1782 
C 512 1782 525 1820 538 1846 
C 755 2555 1184 2689 1370 2689 
C 1658 2689 1715 2420 1715 2267 
C 1715 2127 1677 1980 1600 1673 
L 1382 798 
C 1286 415 1101 64 762 64 
C 730 64 570 64 435 147 
C 666 192 717 383 717 460 
C 717 588 621 664 499 664 
C 346 664 179 530 179 326 
C 179 57 480 -64 755 -64 
C 1062 -64 1280 179 1414 441 
C 1517 64 1837 -64 2074 -64 
C 2726 -64 3072 773 3072 913 
C 3072 945 3046 971 3008 971 
C 2950 971 2944 939 2925 888 
C 2752 326 2381 64 2093 64 
C 1869 64 1747 230 1747 492 
C 1747 632 1773 734 1875 1156 
L 2099 2024 
C 2195 2408 2413 2689 2707 2689 
C 2720 2689 2899 2689 3034 2606 
z
" transform="scale(0.015625)"/>
      </defs>
      <use xlink:href="#CMSY10-68" transform="scale(0.996264)"/>
      <use xlink:href="#CMMI12-1b" transform="translate(38.743734 0) scale(0.996264)"/>
      <use xlink:href="#CMMI12-78" transform="translate(94.189195 -14.943915) scale(0.697382)"/>
      <use xlink:href="#CMSY10-69" transform="translate(133.490986 0) scale(0.996264)"/>
     </g>
    </g>
    <g id="line2d_20">
     <path d="M 195.592605 189.067702 
L 204.592605 189.067702 
L 213.592605 189.067702 
" style="fill: none; stroke: #d62728; stroke-width: 0.5; stroke-linecap: square"/>
    </g>
    <g id="text_18">
     <!-- $\langle \sigma_y\rangle$ -->
     <g transform="translate(220.792605 192.217702) scale(0.09 -0.09)">
      <defs>
       <path id="CMMI12-79" d="M 1683 -700 
C 1510 -939 1261 -1152 947 -1152 
C 870 -1152 563 -1152 467 -889 
C 486 -895 518 -895 531 -895 
C 723 -895 851 -729 851 -582 
C 851 -435 730 -384 634 -384 
C 531 -384 307 -458 307 -759 
C 307 -1071 582 -1286 947 -1286 
C 1587 -1286 2234 -700 2413 6 
L 3040 2485 
C 3046 2517 3059 2556 3059 2594 
C 3059 2689 2982 2753 2886 2753 
C 2829 2753 2694 2727 2643 2535 
L 2170 658 
C 2138 543 2138 530 2086 460 
C 1958 281 1747 64 1440 64 
C 1082 64 1050 415 1050 588 
C 1050 952 1222 1443 1395 1903 
C 1466 2088 1504 2178 1504 2305 
C 1504 2574 1312 2816 998 2816 
C 410 2816 173 1890 173 1839 
C 173 1814 198 1782 243 1782 
C 301 1782 307 1807 333 1897 
C 486 2433 730 2689 979 2689 
C 1037 2689 1146 2689 1146 2478 
C 1146 2312 1075 2127 979 1884 
C 666 1047 666 837 666 683 
C 666 77 1101 -64 1421 -64 
C 1606 -64 1837 -6 2061 230 
L 2067 224 
C 1971 -147 1907 -392 1683 -700 
z
" transform="scale(0.015625)"/>
      </defs>
      <use xlink:href="#CMSY10-68" transform="scale(0.996264)"/>
      <use xlink:href="#CMMI12-1b" transform="translate(38.743734 0) scale(0.996264)"/>
      <use xlink:href="#CMMI12-79" transform="translate(94.189195 -14.943915) scale(0.697382)"/>
      <use xlink:href="#CMSY10-69" transform="translate(130.484301 0) scale(0.996264)"/>
     </g>
    </g>
   </g>
  </g>
 </g>
 <defs>
  <clipPath id="pf9e0d4fd8b">
   <rect x="33.707196" y="7.2" width="212.292324" height="195.359296"/>
  </clipPath>
 </defs>
</svg>
