<?xml version="1.0" encoding="utf-8" standalone="no"?>
<!DOCTYPE svg PUBLIC "-//W3C//DTD SVG 1.1//EN"
  "http://www.w3.org/Graphics/SVG/1.1/DTD/svg11.dtd">
<svg xmlns:xlink="http://www.w3.org/1999/xlink" width="497.99952pt" height="253.19952pt" viewBox="0 0 497.99952 253.19952" xmlns="http://www.w3.org/2000/svg" version="1.1">
 <metadata>
  <rdf:RDF xmlns:dc="http://purl.org/dc/elements/1.1/" xmlns:cc="http://creativecommons.org/ns#" xmlns:rdf="http://www.w3.org/1999/02/22-rdf-syntax-ns#">
   <cc:Work>
    <dc:type rdf:resource="http://purl.org/dc/dcmitype/StillImage"/>
    <dc:date>1980-01-01T00:00:00+00:00</dc:date>
    <dc:format>image/svg+xml</dc:format>
    <dc:creator>
     <cc:Agent>
      <dc:title>Matplotlib v3.6.2, https://matplotlib.org/</dc:title>
     </cc:Agent>
    </dc:creator>
   </cc:Work>
  </rdf:RDF>
 </metadata>
 <defs>
  <style type="text/css">*{stroke-linejoin: round; stroke-linecap: butt}</style>
 </defs>
 <g id="figure_1">
  <g id="patch_1">
   <path d="M 0 253.19952 
L 497.99952 253.19952 
L 497.99952 0 
L 0 0 
z
" style="fill: #ffffff"/>
  </g>
  <g id="patch_2">
   <path d="M 7.2 245.99952 
L 245.99952 245.99952 
L 245.99952 7.2 
L 7.2 7.2 
z
" style="fill: #ffffff"/>
  </g>
  <g id="pane3d_1">
   <g id="patch_3">
    <path d="M 58.819943 147.118515 
L 149.518552 121.847368 
L 150.114014 54.194245 
L 56.597514 77.885596 
" style="fill: #f2f2f2; opacity: 0.5; stroke: #f2f2f2; stroke-width: 0.24; stroke-linejoin: miter"/>
   </g>
  </g>
  <g id="pane3d_2">
   <g id="patch_4">
    <path d="M 149.518552 121.847368 
L 202.828082 168.71828 
L 205.179179 98.173742 
L 150.114014 54.194245 
" style="fill: #e6e6e6; opacity: 0.5; stroke: #e6e6e6; stroke-width: 0.24; stroke-linejoin: miter"/>
   </g>
  </g>
  <g id="pane3d_3">
   <g id="patch_5">
    <path d="M 58.819943 147.118515 
L 108.136265 197.336358 
L 202.828082 168.71828 
L 149.518552 121.847368 
" style="fill: #ececec; opacity: 0.5; stroke: #ececec; stroke-width: 0.24; stroke-linejoin: miter"/>
   </g>
  </g>
  <g id="axis3d_1">
   <g id="line2d_1">
    <path d="M 58.819943 147.118515 
L 108.136265 197.336358 
" style="fill: none; stroke: #000000; stroke-width: 0.8; stroke-linecap: square"/>
   </g>
   <g id="text_1">
    <!-- $T_c$ -->
    <g transform="translate(54.075264 193.856866) rotate(-314.481063) scale(0.1 -0.1)">
     <defs>
      <path id="CMMI12-54" d="M 2669 3910 
C 2707 4064 2720 4121 2816 4147 
C 2867 4160 3078 4160 3213 4160 
C 3853 4160 4154 4134 4154 3634 
C 4154 3537 4128 3295 4090 3057 
L 4083 2980 
C 4083 2954 4109 2916 4147 2916 
C 4211 2916 4211 2948 4230 3050 
L 4416 4184 
C 4429 4243 4429 4256 4429 4275 
C 4429 4345 4390 4345 4262 4345 
L 762 4345 
C 614 4345 608 4339 570 4224 
L 179 3070 
C 173 3056 154 2986 154 2980 
C 154 2948 179 2916 218 2916 
C 269 2916 282 2941 307 3024 
C 576 3801 710 4160 1562 4160 
L 1990 4160 
C 2144 4160 2208 4160 2208 4089 
C 2208 4069 2208 4057 2176 3941 
L 1318 499 
C 1254 249 1242 185 563 185 
C 403 185 358 185 358 64 
C 358 0 429 0 461 0 
C 621 0 787 0 947 0 
L 1946 0 
C 2106 0 2278 0 2438 0 
C 2509 0 2573 0 2573 121 
C 2573 185 2528 185 2362 185 
C 1786 185 1786 243 1786 339 
C 1786 346 1786 391 1811 494 
L 2669 3910 
z
" transform="scale(0.015625)"/>
      <path id="CMMI12-63" d="M 2502 2431 
C 2381 2431 2323 2431 2234 2355 
C 2195 2323 2125 2227 2125 2125 
C 2125 1997 2221 1920 2342 1920 
C 2496 1920 2669 2044 2669 2292 
C 2669 2588 2374 2816 1933 2816 
C 1094 2816 256 1903 256 996 
C 256 441 602 -64 1254 -64 
C 2125 -64 2675 622 2675 706 
C 2675 744 2637 776 2611 776 
C 2592 776 2586 770 2528 713 
C 2118 162 1510 64 1267 64 
C 826 64 685 446 685 764 
C 685 988 794 1605 1024 2039 
C 1190 2338 1536 2682 1939 2682 
C 2022 2682 2374 2682 2502 2431 
z
" transform="scale(0.015625)"/>
     </defs>
     <use xlink:href="#CMMI12-54" transform="scale(0.996264)"/>
     <use xlink:href="#CMMI12-63" transform="translate(57.175044 -14.943915) scale(0.697382)"/>
    </g>
   </g>
   <g id="Line3DCollection_1">
    <path d="M 65.871241 154.298713 
L 157.154818 128.561341 
L 157.988882 60.483751 
" style="fill: none; stroke: #b0b0b0; stroke-width: 0.8"/>
    <path d="M 74.192981 162.772578 
L 166.160895 136.479682 
L 167.281891 67.9059 
" style="fill: none; stroke: #b0b0b0; stroke-width: 0.8"/>
    <path d="M 82.698432 171.433512 
L 175.359057 144.566909 
L 176.779286 75.491289 
" style="fill: none; stroke: #b0b0b0; stroke-width: 0.8"/>
    <path d="M 91.393745 180.287778 
L 184.755515 152.828482 
L 186.487886 83.245363 
" style="fill: none; stroke: #b0b0b0; stroke-width: 0.8"/>
    <path d="M 100.285348 189.341923 
L 194.356752 161.2701 
L 196.414815 91.173812 
" style="fill: none; stroke: #b0b0b0; stroke-width: 0.8"/>
   </g>
   <g id="xtick_1">
    <g id="line2d_2">
     <path d="M 66.626348 154.085811 
L 64.359783 154.724868 
" style="fill: none; stroke: #000000; stroke-width: 0.8; stroke-linecap: square"/>
    </g>
    <g id="text_2">
     <!-- $\mathdefault{0.40}$ -->
     <g transform="translate(48.23006 170.133611) scale(0.08 -0.08)">
      <defs>
       <path id="CMR17-30" d="M 2688 2025 
C 2688 2416 2682 3080 2413 3591 
C 2176 4039 1798 4198 1466 4198 
C 1158 4198 768 4058 525 3597 
C 269 3118 243 2524 243 2025 
C 243 1661 250 1106 448 619 
C 723 -39 1216 -128 1466 -128 
C 1760 -128 2208 -7 2470 600 
C 2662 1042 2688 1559 2688 2025 
z
M 1466 -26 
C 1056 -26 813 325 723 812 
C 653 1188 653 1738 653 2096 
C 653 2588 653 2997 736 3387 
C 858 3929 1216 4096 1466 4096 
C 1728 4096 2067 3923 2189 3400 
C 2272 3036 2278 2607 2278 2096 
C 2278 1680 2278 1169 2202 792 
C 2067 95 1690 -26 1466 -26 
z
" transform="scale(0.015625)"/>
       <path id="CMMI12-3a" d="M 1178 307 
C 1178 492 1024 619 870 619 
C 685 619 557 466 557 313 
C 557 128 710 0 864 0 
C 1050 0 1178 153 1178 307 
z
" transform="scale(0.015625)"/>
       <path id="CMR17-34" d="M 2150 4122 
C 2150 4256 2144 4256 2029 4256 
L 128 1254 
L 128 1088 
L 1779 1088 
L 1779 457 
C 1779 224 1766 160 1318 160 
L 1197 160 
L 1197 0 
C 1402 0 1747 0 1965 0 
C 2182 0 2528 0 2733 0 
L 2733 160 
L 2611 160 
C 2163 160 2150 224 2150 457 
L 2150 1088 
L 2803 1088 
L 2803 1254 
L 2150 1254 
L 2150 4122 
z
M 1798 3703 
L 1798 1254 
L 256 1254 
L 1798 3703 
z
" transform="scale(0.015625)"/>
      </defs>
      <use xlink:href="#CMR17-30" transform="scale(0.996264)"/>
      <use xlink:href="#CMMI12-3a" transform="translate(45.690477 0) scale(0.996264)"/>
      <use xlink:href="#CMR17-34" transform="translate(72.787654 0) scale(0.996264)"/>
      <use xlink:href="#CMR17-30" transform="translate(118.478131 0) scale(0.996264)"/>
     </g>
    </g>
   </g>
   <g id="xtick_2">
    <g id="line2d_3">
     <path d="M 74.954022 162.555003 
L 72.669632 163.208092 
" style="fill: none; stroke: #000000; stroke-width: 0.8; stroke-linecap: square"/>
    </g>
    <g id="text_3">
     <!-- $\mathdefault{0.45}$ -->
     <g transform="translate(56.444711 178.723406) scale(0.08 -0.08)">
      <defs>
       <path id="CMR17-35" d="M 730 3692 
C 794 3666 1056 3584 1325 3584 
C 1920 3584 2246 3911 2432 4100 
C 2432 4157 2432 4192 2394 4192 
C 2387 4192 2374 4192 2323 4163 
C 2099 4058 1837 3973 1517 3973 
C 1325 3973 1037 3999 723 4139 
C 653 4171 640 4171 634 4171 
C 602 4171 595 4164 595 4037 
L 595 2203 
C 595 2089 595 2057 659 2057 
C 691 2057 704 2070 736 2114 
C 941 2401 1222 2522 1542 2522 
C 1766 2522 2246 2382 2246 1289 
C 2246 1085 2246 715 2054 421 
C 1894 159 1645 25 1370 25 
C 947 25 518 320 403 814 
C 429 807 480 795 506 795 
C 589 795 749 840 749 1038 
C 749 1210 627 1280 506 1280 
C 358 1280 262 1190 262 1011 
C 262 454 704 -128 1382 -128 
C 2042 -128 2669 440 2669 1264 
C 2669 2030 2170 2624 1549 2624 
C 1222 2624 947 2503 730 2274 
L 730 3692 
z
" transform="scale(0.015625)"/>
      </defs>
      <use xlink:href="#CMR17-30" transform="scale(0.996264)"/>
      <use xlink:href="#CMMI12-3a" transform="translate(45.690477 0) scale(0.996264)"/>
      <use xlink:href="#CMR17-34" transform="translate(72.787654 0) scale(0.996264)"/>
      <use xlink:href="#CMR17-35" transform="translate(118.478131 0) scale(0.996264)"/>
     </g>
    </g>
   </g>
   <g id="xtick_3">
    <g id="line2d_4">
     <path d="M 83.465487 171.211107 
L 81.163031 171.878696 
" style="fill: none; stroke: #000000; stroke-width: 0.8; stroke-linecap: square"/>
    </g>
    <g id="text_4">
     <!-- $\mathdefault{0.50}$ -->
     <g transform="translate(64.840783 187.502907) scale(0.08 -0.08)">
      <use xlink:href="#CMR17-30" transform="scale(0.996264)"/>
      <use xlink:href="#CMMI12-3a" transform="translate(45.690477 0) scale(0.996264)"/>
      <use xlink:href="#CMR17-35" transform="translate(72.787654 0) scale(0.996264)"/>
      <use xlink:href="#CMR17-30" transform="translate(118.478131 0) scale(0.996264)"/>
     </g>
    </g>
   </g>
   <g id="xtick_4">
    <g id="line2d_5">
     <path d="M 92.166893 180.060382 
L 89.846131 180.742958 
" style="fill: none; stroke: #000000; stroke-width: 0.8; stroke-linecap: square"/>
    </g>
    <g id="text_5">
     <!-- $\mathdefault{0.55}$ -->
     <g transform="translate(73.424353 196.478469) scale(0.08 -0.08)">
      <use xlink:href="#CMR17-30" transform="scale(0.996264)"/>
      <use xlink:href="#CMMI12-3a" transform="translate(45.690477 0) scale(0.996264)"/>
      <use xlink:href="#CMR17-35" transform="translate(72.787654 0) scale(0.996264)"/>
      <use xlink:href="#CMR17-35" transform="translate(118.478131 0) scale(0.996264)"/>
     </g>
    </g>
   </g>
   <g id="xtick_5">
    <g id="line2d_6">
     <path d="M 101.064672 189.109365 
L 98.725359 189.807439 
" style="fill: none; stroke: #000000; stroke-width: 0.8; stroke-linecap: square"/>
    </g>
    <g id="text_6">
     <!-- $\mathdefault{0.60}$ -->
     <g transform="translate(82.201772 205.656732) scale(0.08 -0.08)">
      <defs>
       <path id="CMR17-36" d="M 678 2176 
C 678 3690 1395 4032 1811 4032 
C 1946 4032 2272 4009 2400 3776 
C 2298 3776 2106 3776 2106 3553 
C 2106 3381 2246 3323 2336 3323 
C 2394 3323 2566 3348 2566 3560 
C 2566 3954 2246 4179 1805 4179 
C 1043 4179 243 3390 243 1984 
C 243 253 966 -128 1478 -128 
C 2099 -128 2688 427 2688 1283 
C 2688 2081 2170 2662 1517 2662 
C 1126 2662 838 2407 678 1960 
L 678 2176 
z
M 1478 25 
C 691 25 691 1200 691 1436 
C 691 1896 909 2560 1504 2560 
C 1613 2560 1926 2560 2138 2120 
C 2253 1870 2253 1609 2253 1289 
C 2253 944 2253 690 2118 434 
C 1978 171 1773 25 1478 25 
z
" transform="scale(0.015625)"/>
      </defs>
      <use xlink:href="#CMR17-30" transform="scale(0.996264)"/>
      <use xlink:href="#CMMI12-3a" transform="translate(45.690477 0) scale(0.996264)"/>
      <use xlink:href="#CMR17-36" transform="translate(72.787654 0) scale(0.996264)"/>
      <use xlink:href="#CMR17-30" transform="translate(118.478131 0) scale(0.996264)"/>
     </g>
    </g>
   </g>
  </g>
  <g id="axis3d_2">
   <g id="line2d_7">
    <path d="M 202.828082 168.71828 
L 108.136265 197.336358 
" style="fill: none; stroke: #000000; stroke-width: 0.8; stroke-linecap: square"/>
   </g>
   <g id="text_7">
    <!-- $\omega_c$ -->
    <g transform="translate(163.267813 210.994339) rotate(-16.816043) scale(0.1 -0.1)">
     <defs>
      <path id="CMMI12-21" d="M 3802 2395 
C 3802 2580 3750 2816 3526 2816 
C 3398 2816 3251 2657 3251 2529 
C 3251 2472 3277 2434 3328 2376 
C 3424 2268 3546 2096 3546 1797 
C 3546 1567 3405 1204 3302 1007 
C 3123 656 2829 357 2496 357 
C 2093 357 1939 615 1869 975 
C 1939 1143 2086 1560 2086 1728 
C 2086 1798 2061 1856 1978 1856 
C 1933 1856 1882 1831 1850 1779 
C 1760 1638 1677 1129 1683 994 
C 1562 756 1216 357 806 357 
C 378 357 262 733 262 1096 
C 262 1758 678 2338 794 2497 
C 858 2593 902 2657 902 2669 
C 902 2714 877 2784 819 2784 
C 717 2784 685 2701 634 2625 
C 307 2121 77 1414 77 803 
C 77 408 224 -64 704 -64 
C 1235 -64 1568 391 1702 634 
C 1754 275 1946 -64 2413 -64 
C 2899 -64 3206 363 3437 879 
C 3603 1249 3802 2045 3802 2395 
z
" transform="scale(0.015625)"/>
     </defs>
     <use xlink:href="#CMMI12-21" transform="scale(0.996264)"/>
     <use xlink:href="#CMMI12-63" transform="translate(60.743753 -14.943915) scale(0.697382)"/>
    </g>
   </g>
   <g id="Line3DCollection_2">
    <path d="M 73.215817 73.675536 
L 74.923873 142.631513 
L 124.97887 192.24613 
" style="fill: none; stroke: #b0b0b0; stroke-width: 0.8"/>
    <path d="M 93.923689 68.42943 
L 94.999025 137.03802 
L 145.956896 185.90608 
" style="fill: none; stroke: #b0b0b0; stroke-width: 0.8"/>
    <path d="M 114.321527 63.261868 
L 114.782553 131.52578 
L 166.61071 179.664016 
" style="fill: none; stroke: #b0b0b0; stroke-width: 0.8"/>
    <path d="M 134.416241 58.171098 
L 134.280764 126.093038 
L 186.947771 173.517681 
" style="fill: none; stroke: #b0b0b0; stroke-width: 0.8"/>
   </g>
   <g id="xtick_6">
    <g id="line2d_8">
     <path d="M 124.552664 191.823673 
L 125.832612 193.09236 
" style="fill: none; stroke: #000000; stroke-width: 0.8; stroke-linecap: square"/>
    </g>
    <g id="text_8">
     <!-- $\mathdefault{0.50}$ -->
     <g transform="translate(123.318055 211.219257) scale(0.08 -0.08)">
      <use xlink:href="#CMR17-30" transform="scale(0.996264)"/>
      <use xlink:href="#CMMI12-3a" transform="translate(45.690477 0) scale(0.996264)"/>
      <use xlink:href="#CMR17-35" transform="translate(72.787654 0) scale(0.996264)"/>
      <use xlink:href="#CMR17-30" transform="translate(118.478131 0) scale(0.996264)"/>
     </g>
    </g>
   </g>
   <g id="xtick_7">
    <g id="line2d_9">
     <path d="M 145.523206 185.490176 
L 146.825618 186.739175 
" style="fill: none; stroke: #000000; stroke-width: 0.8; stroke-linecap: square"/>
    </g>
    <g id="text_9">
     <!-- $\mathdefault{0.75}$ -->
     <g transform="translate(144.325077 204.751562) scale(0.08 -0.08)">
      <defs>
       <path id="CMR17-37" d="M 2886 3941 
L 2886 4081 
L 1382 4081 
C 634 4081 621 4165 595 4288 
L 480 4288 
L 294 3094 
L 410 3094 
C 429 3215 474 3540 550 3661 
C 589 3712 1062 3712 1171 3712 
L 2579 3712 
L 1869 2661 
C 1395 1954 1069 999 1069 165 
C 1069 89 1069 -128 1299 -128 
C 1530 -128 1530 89 1530 171 
L 1530 465 
C 1530 1508 1709 2196 2003 2636 
L 2886 3941 
z
" transform="scale(0.015625)"/>
      </defs>
      <use xlink:href="#CMR17-30" transform="scale(0.996264)"/>
      <use xlink:href="#CMMI12-3a" transform="translate(45.690477 0) scale(0.996264)"/>
      <use xlink:href="#CMR17-37" transform="translate(72.787654 0) scale(0.996264)"/>
      <use xlink:href="#CMR17-35" transform="translate(118.478131 0) scale(0.996264)"/>
     </g>
    </g>
   </g>
   <g id="xtick_8">
    <g id="line2d_10">
     <path d="M 166.169818 179.254513 
L 167.493848 180.484278 
" style="fill: none; stroke: #000000; stroke-width: 0.8; stroke-linecap: square"/>
    </g>
    <g id="text_10">
     <!-- $\mathdefault{1.00}$ -->
     <g transform="translate(165.00629 198.384179) scale(0.08 -0.08)">
      <defs>
       <path id="CMR17-31" d="M 1702 4058 
C 1702 4192 1696 4192 1606 4192 
C 1357 3916 979 3827 621 3827 
C 602 3827 570 3827 563 3808 
C 557 3795 557 3782 557 3648 
C 755 3648 1088 3686 1344 3839 
L 1344 461 
C 1344 236 1331 160 781 160 
L 589 160 
L 589 0 
C 896 0 1216 0 1523 0 
C 1830 0 2150 0 2458 0 
L 2458 160 
L 2266 160 
C 1715 160 1702 230 1702 458 
L 1702 4058 
z
" transform="scale(0.015625)"/>
      </defs>
      <use xlink:href="#CMR17-31" transform="scale(0.996264)"/>
      <use xlink:href="#CMMI12-3a" transform="translate(45.690477 0) scale(0.996264)"/>
      <use xlink:href="#CMR17-30" transform="translate(72.787654 0) scale(0.996264)"/>
      <use xlink:href="#CMR17-30" transform="translate(118.478131 0) scale(0.996264)"/>
     </g>
    </g>
   </g>
   <g id="xtick_9">
    <g id="line2d_11">
     <path d="M 186.499948 173.114433 
L 187.844782 174.325406 
" style="fill: none; stroke: #000000; stroke-width: 0.8; stroke-linecap: square"/>
    </g>
    <g id="text_11">
     <!-- $\mathdefault{1.25}$ -->
     <g transform="translate(185.369215 192.11479) scale(0.08 -0.08)">
      <defs>
       <path id="CMR17-32" d="M 2669 989 
L 2554 989 
C 2490 536 2438 459 2413 420 
C 2381 369 1920 369 1830 369 
L 602 369 
C 832 619 1280 1072 1824 1597 
C 2214 1967 2669 2402 2669 3035 
C 2669 3790 2067 4224 1395 4224 
C 691 4224 262 3604 262 3030 
C 262 2780 448 2748 525 2748 
C 589 2748 781 2787 781 3010 
C 781 3207 614 3264 525 3264 
C 486 3264 448 3258 422 3245 
C 544 3790 915 4058 1306 4058 
C 1862 4058 2227 3617 2227 3035 
C 2227 2479 1901 2000 1536 1584 
L 262 146 
L 262 0 
L 2515 0 
L 2669 989 
z
" transform="scale(0.015625)"/>
      </defs>
      <use xlink:href="#CMR17-31" transform="scale(0.996264)"/>
      <use xlink:href="#CMMI12-3a" transform="translate(45.690477 0) scale(0.996264)"/>
      <use xlink:href="#CMR17-32" transform="translate(72.787654 0) scale(0.996264)"/>
      <use xlink:href="#CMR17-35" transform="translate(118.478131 0) scale(0.996264)"/>
     </g>
    </g>
   </g>
  </g>
  <g id="axis3d_3">
   <g id="line2d_12">
    <path d="M 202.828082 168.71828 
L 205.179179 98.173742 
" style="fill: none; stroke: #000000; stroke-width: 0.8; stroke-linecap: square"/>
   </g>
   <g id="text_12">
    <!-- $P$ -->
    <g transform="translate(231.199087 140.855937) scale(0.1 -0.1)">
     <defs>
      <path id="CMMI12-50" d="M 1894 2023 
L 2970 2023 
C 3853 2023 4736 2673 4736 3401 
C 4736 3898 4314 4352 3507 4352 
L 1530 4352 
C 1408 4352 1350 4352 1350 4231 
C 1350 4167 1408 4167 1504 4167 
C 1894 4167 1894 4116 1894 4046 
C 1894 4034 1894 3995 1869 3899 
L 1005 472 
C 947 249 934 185 486 185 
C 365 185 301 185 301 70 
C 301 0 358 0 397 0 
C 518 0 646 0 768 0 
L 1517 0 
C 1638 0 1773 0 1894 0 
C 1946 0 2016 0 2016 121 
C 2016 185 1958 185 1862 185 
C 1478 185 1472 230 1472 293 
C 1472 325 1478 369 1485 401 
L 1894 2023 
z
M 2355 3930 
C 2413 4167 2438 4167 2688 4167 
L 3322 4167 
C 3802 4167 4198 4013 4198 3535 
C 4198 3369 4115 2827 3821 2534 
C 3712 2419 3405 2176 2822 2176 
L 1920 2176 
L 2355 3930 
z
" transform="scale(0.015625)"/>
     </defs>
     <use xlink:href="#CMMI12-50" transform="scale(0.996264)"/>
    </g>
   </g>
   <g id="Line3DCollection_3">
    <path d="M 202.873665 167.350558 
L 149.530119 120.533249 
L 58.776817 145.775064 
" style="fill: none; stroke: #b0b0b0; stroke-width: 0.8"/>
    <path d="M 203.224133 156.834786 
L 149.619019 110.432855 
L 58.445292 135.447435 
" style="fill: none; stroke: #b0b0b0; stroke-width: 0.8"/>
    <path d="M 203.577981 146.217621 
L 149.708726 100.240902 
L 58.110659 125.022976 
" style="fill: none; stroke: #b0b0b0; stroke-width: 0.8"/>
    <path d="M 203.935256 135.49759 
L 149.799249 89.956141 
L 57.772874 114.500318 
" style="fill: none; stroke: #b0b0b0; stroke-width: 0.8"/>
    <path d="M 204.29601 124.67319 
L 149.8906 79.577298 
L 57.431892 103.878066 
" style="fill: none; stroke: #b0b0b0; stroke-width: 0.8"/>
    <path d="M 204.660293 113.742891 
L 149.982791 69.103076 
L 57.087667 93.154801 
" style="fill: none; stroke: #b0b0b0; stroke-width: 0.8"/>
    <path d="M 205.028158 102.70513 
L 150.075833 58.532153 
L 56.740153 82.329074 
" style="fill: none; stroke: #b0b0b0; stroke-width: 0.8"/>
   </g>
   <g id="xtick_10">
    <g id="line2d_13">
     <path d="M 202.420234 166.952601 
L 203.781901 168.147677 
" style="fill: none; stroke: #000000; stroke-width: 0.8; stroke-linecap: square"/>
    </g>
    <g id="text_13">
     <!-- $\mathdefault{0.000}$ -->
     <g transform="translate(209.47848 175.318359) scale(0.08 -0.08)">
      <use xlink:href="#CMR17-30" transform="scale(0.996264)"/>
      <use xlink:href="#CMMI12-3a" transform="translate(45.690477 0) scale(0.996264)"/>
      <use xlink:href="#CMR17-30" transform="translate(72.787654 0) scale(0.996264)"/>
      <use xlink:href="#CMR17-30" transform="translate(118.478131 0) scale(0.996264)"/>
      <use xlink:href="#CMR17-30" transform="translate(164.168608 0) scale(0.996264)"/>
     </g>
    </g>
   </g>
   <g id="xtick_11">
    <g id="line2d_14">
     <path d="M 202.76835 156.440249 
L 204.137087 157.625061 
" style="fill: none; stroke: #000000; stroke-width: 0.8; stroke-linecap: square"/>
    </g>
    <g id="text_14">
     <!-- $\mathdefault{0.001}$ -->
     <g transform="translate(209.908237 164.781723) scale(0.08 -0.08)">
      <use xlink:href="#CMR17-30" transform="scale(0.996264)"/>
      <use xlink:href="#CMMI12-3a" transform="translate(45.690477 0) scale(0.996264)"/>
      <use xlink:href="#CMR17-30" transform="translate(72.787654 0) scale(0.996264)"/>
      <use xlink:href="#CMR17-30" transform="translate(118.478131 0) scale(0.996264)"/>
      <use xlink:href="#CMR17-31" transform="translate(164.168608 0) scale(0.996264)"/>
     </g>
    </g>
   </g>
   <g id="xtick_12">
    <g id="line2d_15">
     <path d="M 203.119821 145.826588 
L 204.495701 147.000883 
" style="fill: none; stroke: #000000; stroke-width: 0.8; stroke-linecap: square"/>
    </g>
    <g id="text_15">
     <!-- $\mathdefault{0.002}$ -->
     <g transform="translate(210.34215 154.143176) scale(0.08 -0.08)">
      <use xlink:href="#CMR17-30" transform="scale(0.996264)"/>
      <use xlink:href="#CMMI12-3a" transform="translate(45.690477 0) scale(0.996264)"/>
      <use xlink:href="#CMR17-30" transform="translate(72.787654 0) scale(0.996264)"/>
      <use xlink:href="#CMR17-30" transform="translate(118.478131 0) scale(0.996264)"/>
      <use xlink:href="#CMR17-32" transform="translate(164.168608 0) scale(0.996264)"/>
     </g>
    </g>
   </g>
   <g id="xtick_13">
    <g id="line2d_16">
     <path d="M 203.474696 135.110147 
L 204.857793 136.273666 
" style="fill: none; stroke: #000000; stroke-width: 0.8; stroke-linecap: square"/>
    </g>
    <g id="text_16">
     <!-- $\mathdefault{0.003}$ -->
     <g transform="translate(210.780281 143.401234) scale(0.08 -0.08)">
      <defs>
       <path id="CMR17-33" d="M 1414 2157 
C 1984 2157 2234 1662 2234 1090 
C 2234 320 1824 25 1453 25 
C 1114 25 563 194 390 693 
C 422 680 454 680 486 680 
C 640 680 755 782 755 948 
C 755 1133 614 1216 486 1216 
C 378 1216 211 1165 211 926 
C 211 335 787 -128 1466 -128 
C 2176 -128 2720 430 2720 1085 
C 2720 1707 2208 2157 1600 2227 
C 2086 2328 2554 2756 2554 3329 
C 2554 3820 2048 4179 1472 4179 
C 890 4179 378 3829 378 3329 
C 378 3110 544 3072 627 3072 
C 762 3072 877 3155 877 3321 
C 877 3486 762 3569 627 3569 
C 602 3569 570 3569 544 3557 
C 730 3959 1235 4032 1459 4032 
C 1683 4032 2106 3925 2106 3320 
C 2106 3143 2080 2828 1862 2550 
C 1670 2304 1453 2304 1242 2284 
C 1210 2284 1062 2269 1037 2269 
C 992 2263 966 2257 966 2208 
C 966 2163 973 2157 1101 2157 
L 1414 2157 
z
" transform="scale(0.015625)"/>
      </defs>
      <use xlink:href="#CMR17-30" transform="scale(0.996264)"/>
      <use xlink:href="#CMMI12-3a" transform="translate(45.690477 0) scale(0.996264)"/>
      <use xlink:href="#CMR17-30" transform="translate(72.787654 0) scale(0.996264)"/>
      <use xlink:href="#CMR17-30" transform="translate(118.478131 0) scale(0.996264)"/>
      <use xlink:href="#CMR17-33" transform="translate(164.168608 0) scale(0.996264)"/>
     </g>
    </g>
   </g>
   <g id="xtick_14">
    <g id="line2d_17">
     <path d="M 203.833023 124.289427 
L 205.223413 125.441902 
" style="fill: none; stroke: #000000; stroke-width: 0.8; stroke-linecap: square"/>
    </g>
    <g id="text_17">
     <!-- $\mathdefault{0.004}$ -->
     <g transform="translate(211.222691 132.554381) scale(0.08 -0.08)">
      <use xlink:href="#CMR17-30" transform="scale(0.996264)"/>
      <use xlink:href="#CMMI12-3a" transform="translate(45.690477 0) scale(0.996264)"/>
      <use xlink:href="#CMR17-30" transform="translate(72.787654 0) scale(0.996264)"/>
      <use xlink:href="#CMR17-30" transform="translate(118.478131 0) scale(0.996264)"/>
      <use xlink:href="#CMR17-34" transform="translate(164.168608 0) scale(0.996264)"/>
     </g>
    </g>
   </g>
   <g id="xtick_15">
    <g id="line2d_18">
     <path d="M 204.194855 113.362898 
L 205.592615 114.504057 
" style="fill: none; stroke: #000000; stroke-width: 0.8; stroke-linecap: square"/>
    </g>
    <g id="text_18">
     <!-- $\mathdefault{0.005}$ -->
     <g transform="translate(211.669443 121.601073) scale(0.08 -0.08)">
      <use xlink:href="#CMR17-30" transform="scale(0.996264)"/>
      <use xlink:href="#CMMI12-3a" transform="translate(45.690477 0) scale(0.996264)"/>
      <use xlink:href="#CMR17-30" transform="translate(72.787654 0) scale(0.996264)"/>
      <use xlink:href="#CMR17-30" transform="translate(118.478131 0) scale(0.996264)"/>
      <use xlink:href="#CMR17-35" transform="translate(164.168608 0) scale(0.996264)"/>
     </g>
    </g>
   </g>
   <g id="xtick_16">
    <g id="line2d_19">
     <path d="M 204.560242 102.328999 
L 205.96545 103.458564 
" style="fill: none; stroke: #000000; stroke-width: 0.8; stroke-linecap: square"/>
    </g>
    <g id="text_19">
     <!-- $\mathdefault{0.006}$ -->
     <g transform="translate(212.120601 110.539736) scale(0.08 -0.08)">
      <use xlink:href="#CMR17-30" transform="scale(0.996264)"/>
      <use xlink:href="#CMMI12-3a" transform="translate(45.690477 0) scale(0.996264)"/>
      <use xlink:href="#CMR17-30" transform="translate(72.787654 0) scale(0.996264)"/>
      <use xlink:href="#CMR17-30" transform="translate(118.478131 0) scale(0.996264)"/>
      <use xlink:href="#CMR17-36" transform="translate(164.168608 0) scale(0.996264)"/>
     </g>
    </g>
   </g>
  </g>
  <g id="axes_1">
   <g id="Poly3DCollection_1">
    <path d="M 127.703742 130.343434 
L 147.123911 124.914988 
L 156.001554 132.774853 
L 136.440705 138.318591 
z
" clip-path="url(#p067c90f652)" style="fill: #86551f"/>
    <path d="M 107.999174 135.851377 
L 127.703742 130.343434 
L 136.440705 138.318591 
L 116.590337 143.944382 
z
" clip-path="url(#p067c90f652)" style="fill: #876915"/>
    <path d="M 127.703742 130.343434 
L 127.646264 70.003003 
L 147.588732 64.875832 
L 147.123911 124.914988 
z
" clip-path="url(#p067c90f652)" style="fill: #dd8d33"/>
    <path d="M 147.123911 124.914988 
L 147.588732 64.875832 
L 156.712545 72.300128 
L 156.001554 132.774853 
z
" clip-path="url(#p067c90f652)" style="fill: #684218"/>
    <path d="M 136.440705 138.318591 
L 156.001554 132.774853 
L 165.068056 140.801925 
L 145.364914 146.464669 
z
" clip-path="url(#p067c90f652)" style="fill: #793733"/>
    <path d="M 88.003913 141.440576 
L 107.999174 135.851377 
L 116.590337 143.944382 
L 96.443975 149.654061 
z
" clip-path="url(#p067c90f652)" style="fill: #808512"/>
    <path d="M 107.999174 135.851377 
L 107.381407 72.928269 
L 127.644104 67.735844 
L 127.703742 130.343434 
z
" clip-path="url(#p067c90f652)" style="fill: #e0ae23"/>
    <path d="M 127.703742 130.343434 
L 136.440705 138.318591 
L 136.621716 77.539178 
L 127.646264 70.003003 
z
" clip-path="url(#p067c90f652)" style="fill: #dd8d33"/>
    <path d="M 127.703742 130.343434 
L 127.644104 67.735844 
L 136.628519 75.254845 
L 136.440705 138.318591 
z
" clip-path="url(#p067c90f652)" style="fill: #6a5210"/>
    <path d="M 136.440705 138.318591 
L 136.609535 81.629394 
L 156.664707 76.369083 
L 156.001554 132.774853 
z
" clip-path="url(#p067c90f652)" style="fill: #c85a55"/>
    <path d="M 116.590337 143.944382 
L 136.440705 138.318591 
L 145.364914 146.464669 
L 125.366999 152.212131 
z
" clip-path="url(#p067c90f652)" style="fill: #814728"/>
    <path d="M 136.440705 138.318591 
L 156.001554 132.774853 
L 156.712545 72.300128 
L 136.621716 77.539178 
z
" clip-path="url(#p067c90f652)" style="fill: #684218"/>
    <path d="M 156.001554 132.774853 
L 156.664707 76.369083 
L 165.970655 83.986401 
L 165.068056 140.801925 
z
" clip-path="url(#p067c90f652)" style="fill: #5e2b28"/>
    <path d="M 145.364914 146.464669 
L 165.068056 140.801925 
L 174.329509 149.001598 
L 154.482455 154.78722 
z
" clip-path="url(#p067c90f652)" style="fill: #692243"/>
    <path d="M 67.71148 147.112843 
L 88.003913 141.440576 
L 96.443975 149.654061 
L 75.994948 155.449518 
z
" clip-path="url(#p067c90f652)" style="fill: #866f14"/>
    <path d="M 88.003913 141.440576 
L 86.755357 75.235291 
L 107.352457 69.979628 
L 107.999174 135.851377 
z
" clip-path="url(#p067c90f652)" style="fill: #d4dc1e"/>
    <path d="M 107.999174 135.851377 
L 116.590337 143.944382 
L 116.211602 80.561552 
L 107.381407 72.928269 
z
" clip-path="url(#p067c90f652)" style="fill: #e0ae23"/>
    <path d="M 96.443975 149.654061 
L 116.590337 143.944382 
L 125.366999 152.212131 
L 105.067646 158.046228 
z
" clip-path="url(#p067c90f652)" style="fill: #875d1a"/>
    <path d="M 107.999174 135.851377 
L 107.352457 69.979628 
L 116.193849 77.590427 
L 116.590337 143.944382 
z
" clip-path="url(#p067c90f652)" style="fill: #64680e"/>
    <path d="M 116.590337 143.944382 
L 116.235807 84.612337 
L 136.616518 79.284444 
L 136.440705 138.318591 
z
" clip-path="url(#p067c90f652)" style="fill: #d67642"/>
    <path d="M 116.590337 143.944382 
L 136.440705 138.318591 
L 136.628519 75.254845 
L 116.211602 80.561552 
z
" clip-path="url(#p067c90f652)" style="fill: #6a5210"/>
    <path d="M 127.646264 70.003003 
L 136.621716 77.539178 
L 156.712545 72.300128 
L 147.588732 64.875832 
z
" clip-path="url(#p067c90f652)" style="fill: #c07a2d"/>
    <path d="M 136.440705 138.318591 
L 145.364914 146.464669 
L 145.765908 89.362552 
L 136.609535 81.629394 
z
" clip-path="url(#p067c90f652)" style="fill: #c85a55"/>
    <path d="M 136.440705 138.318591 
L 136.616518 79.284444 
L 145.7825 86.999848 
L 145.364914 146.464669 
z
" clip-path="url(#p067c90f652)" style="fill: #65381f"/>
    <path d="M 145.364914 146.464669 
L 145.743965 92.487207 
L 165.921274 87.094815 
L 165.068056 140.801925 
z
" clip-path="url(#p067c90f652)" style="fill: #ae386f"/>
    <path d="M 145.364914 146.464669 
L 165.068056 140.801925 
L 165.970655 83.986401 
L 145.765908 89.362552 
z
" clip-path="url(#p067c90f652)" style="fill: #5e2b28"/>
    <path d="M 125.366999 152.212131 
L 145.364914 146.464669 
L 154.482455 154.78722 
L 134.335235 160.660344 
z
" clip-path="url(#p067c90f652)" style="fill: #702a3c"/>
    <path d="M 165.068056 140.801925 
L 165.921274 87.094815 
L 175.418821 94.903647 
L 174.329509 149.001598 
z
" clip-path="url(#p067c90f652)" style="fill: #521a35"/>
    <path d="M 67.71148 147.112843 
L 65.907419 82.867926 
L 86.798439 77.519712 
L 88.003913 141.440576 
z
" clip-path="url(#p067c90f652)" style="fill: #deb821"/>
    <path d="M 154.482455 154.78722 
L 174.329509 149.001598 
L 183.792269 157.379499 
L 163.799679 163.292043 
z
" clip-path="url(#p067c90f652)" style="fill: #4d0757"/>
    <path d="M 88.003913 141.440576 
L 86.798439 77.519712 
L 95.471116 85.264709 
L 96.443975 149.654061 
z
" clip-path="url(#p067c90f652)" style="fill: #69570f"/>
    <path d="M 75.994948 155.449518 
L 96.443975 149.654061 
L 105.067646 158.046228 
L 84.459988 163.968932 
z
" clip-path="url(#p067c90f652)" style="fill: #80442a"/>
    <path d="M 88.003913 141.440576 
L 96.443975 149.654061 
L 95.436336 82.962805 
L 86.755357 75.235291 
z
" clip-path="url(#p067c90f652)" style="fill: #d4dc1e"/>
    <path d="M 96.443975 149.654061 
L 95.501326 87.264179 
L 116.219415 81.869152 
L 116.590337 143.944382 
z
" clip-path="url(#p067c90f652)" style="fill: #e09b2b"/>
    <path d="M 96.443975 149.654061 
L 116.590337 143.944382 
L 116.193849 77.590427 
L 95.436336 82.962805 
z
" clip-path="url(#p067c90f652)" style="fill: #64680e"/>
    <path d="M 116.590337 143.944382 
L 125.366999 152.212131 
L 125.246222 92.446095 
L 116.235807 84.612337 
z
" clip-path="url(#p067c90f652)" style="fill: #d67642"/>
    <path d="M 107.381407 72.928269 
L 116.211602 80.561552 
L 136.628519 75.254845 
L 127.644104 67.735844 
z
" clip-path="url(#p067c90f652)" style="fill: #c2971e"/>
    <path d="M 116.590337 143.944382 
L 116.219415 81.869152 
L 125.240637 89.682009 
L 125.366999 152.212131 
z
" clip-path="url(#p067c90f652)" style="fill: #694914"/>
    <path d="M 125.366999 152.212131 
L 125.25463 96.606546 
L 145.753436 91.138556 
L 145.364914 146.464669 
z
" clip-path="url(#p067c90f652)" style="fill: #b94664"/>
    <path d="M 136.609535 81.629394 
L 145.765908 89.362552 
L 165.970655 83.986401 
L 156.664707 76.369083 
z
" clip-path="url(#p067c90f652)" style="fill: #ad4f4a"/>
    <path d="M 105.067646 158.046228 
L 125.366999 152.212131 
L 134.335235 160.660344 
L 113.880986 166.62297 
z
" clip-path="url(#p067c90f652)" style="fill: #7b3b30"/>
    <path d="M 125.366999 152.212131 
L 145.364914 146.464669 
L 145.7825 86.999848 
L 125.246222 92.446095 
z
" clip-path="url(#p067c90f652)" style="fill: #65381f"/>
    <path d="M 145.364914 146.464669 
L 154.482455 154.78722 
L 155.090604 100.415943 
L 145.743965 92.487207 
z
" clip-path="url(#p067c90f652)" style="fill: #ae386f"/>
    <path d="M 145.364914 146.464669 
L 145.753436 91.138556 
L 155.105803 99.057084 
L 154.482455 154.78722 
z
" clip-path="url(#p067c90f652)" style="fill: #57212f"/>
    <path d="M 154.482455 154.78722 
L 155.044117 104.572028 
L 175.335569 99.038138 
L 174.329509 149.001598 
z
" clip-path="url(#p067c90f652)" style="fill: #7f0c90"/>
    <path d="M 154.482455 154.78722 
L 174.329509 149.001598 
L 175.418821 94.903647 
L 155.090604 100.415943 
z
" clip-path="url(#p067c90f652)" style="fill: #521a35"/>
    <path d="M 174.329509 149.001598 
L 175.335569 99.038138 
L 185.025813 107.052126 
L 183.792269 157.379499 
z
" clip-path="url(#p067c90f652)" style="fill: #3c0544"/>
    <path d="M 134.335235 160.660344 
L 154.482455 154.78722 
L 163.799679 163.292043 
L 143.501385 169.294995 
z
" clip-path="url(#p067c90f652)" style="fill: #5b134f"/>
    <path d="M 67.71148 147.112843 
L 75.994948 155.449518 
L 74.414022 90.732492 
L 65.907419 82.867926 
z
" clip-path="url(#p067c90f652)" style="fill: #deb821"/>
    <path d="M 75.994948 155.449518 
L 74.54248 95.991049 
L 95.550149 90.495589 
L 96.443975 149.654061 
z
" clip-path="url(#p067c90f652)" style="fill: #d47046"/>
    <path d="M 75.994948 155.449518 
L 96.443975 149.654061 
L 95.471116 85.264709 
L 74.414022 90.732492 
z
" clip-path="url(#p067c90f652)" style="fill: #69570f"/>
    <path d="M 96.443975 149.654061 
L 95.550149 90.495589 
L 104.397314 98.454059 
L 105.067646 158.046228 
z
" clip-path="url(#p067c90f652)" style="fill: #643521"/>
    <path d="M 163.799679 163.292043 
L 183.792269 157.379499 
L 193.462972 165.941503 
L 173.323218 171.985192 
z
" clip-path="url(#p067c90f652)" style="fill: #2f0158"/>
    <path d="M 96.443975 149.654061 
L 105.067646 158.046228 
L 104.360687 95.19796 
L 95.501326 87.264179 
z
" clip-path="url(#p067c90f652)" style="fill: #e09b2b"/>
    <path d="M 84.459988 163.968932 
L 105.067646 158.046228 
L 113.880986 166.62297 
L 93.112637 172.677159 
z
" clip-path="url(#p067c90f652)" style="fill: #641c48"/>
    <path d="M 105.067646 158.046228 
L 104.410909 99.662674 
L 125.249612 94.123241 
L 125.366999 152.212131 
z
" clip-path="url(#p067c90f652)" style="fill: #cc6250"/>
    <path d="M 86.755357 75.235291 
L 95.436336 82.962805 
L 116.193849 77.590427 
L 107.352457 69.979628 
z
" clip-path="url(#p067c90f652)" style="fill: #b8bf1a"/>
    <path d="M 116.235807 84.612337 
L 125.246222 92.446095 
L 145.7825 86.999848 
L 136.616518 79.284444 
z
" clip-path="url(#p067c90f652)" style="fill: #ba6639"/>
    <path d="M 105.067646 158.046228 
L 125.366999 152.212131 
L 125.240637 89.682009 
L 104.360687 95.19796 
z
" clip-path="url(#p067c90f652)" style="fill: #694914"/>
    <path d="M 125.366999 152.212131 
L 134.335235 160.660344 
L 134.450102 104.647676 
L 125.25463 96.606546 
z
" clip-path="url(#p067c90f652)" style="fill: #b94664"/>
    <path d="M 145.743965 92.487207 
L 155.090604 100.415943 
L 175.418821 94.903647 
L 165.921274 87.094815 
z
" clip-path="url(#p067c90f652)" style="fill: #973161"/>
    <path d="M 125.366999 152.212131 
L 125.249612 94.123241 
L 134.455233 102.145472 
L 134.335235 160.660344 
z
" clip-path="url(#p067c90f652)" style="fill: #602e26"/>
    <path d="M 134.335235 160.660344 
L 134.442817 108.200197 
L 155.066275 102.591053 
L 154.482455 154.78722 
z
" clip-path="url(#p067c90f652)" style="fill: #972083"/>
    <path d="M 134.335235 160.660344 
L 154.482455 154.78722 
L 155.105803 99.057084 
L 134.450102 104.647676 
z
" clip-path="url(#p067c90f652)" style="fill: #57212f"/>
    <path d="M 154.482455 154.78722 
L 163.799679 163.292043 
L 164.58226 112.710217 
L 155.044117 104.572028 
z
" clip-path="url(#p067c90f652)" style="fill: #7f0c90"/>
    <path d="M 113.880986 166.62297 
L 134.335235 160.660344 
L 143.501385 169.294995 
L 122.89032 175.390445 
z
" clip-path="url(#p067c90f652)" style="fill: #672045"/>
    <path d="M 154.482455 154.78722 
L 155.066275 102.591053 
L 164.61314 110.714261 
L 163.799679 163.292043 
z
" clip-path="url(#p067c90f652)" style="fill: #470f3e"/>
    <path d="M 163.799679 163.292043 
L 164.52911 116.145517 
L 184.94205 110.469592 
L 183.792269 157.379499 
z
" clip-path="url(#p067c90f652)" style="fill: #4d0191"/>
    <path d="M 163.799679 163.292043 
L 183.792269 157.379499 
L 185.025813 107.052126 
L 164.58226 112.710217 
z
" clip-path="url(#p067c90f652)" style="fill: #3c0544"/>
    <path d="M 183.792269 157.379499 
L 184.94205 110.469592 
L 194.834013 118.689541 
L 193.462972 165.941503 
z
" clip-path="url(#p067c90f652)" style="fill: #250145"/>
    <path d="M 75.994948 155.449518 
L 84.459988 163.968932 
L 83.222139 104.073478 
L 74.54248 95.991049 
z
" clip-path="url(#p067c90f652)" style="fill: #d47046"/>
    <path d="M 84.459988 163.968932 
L 83.346523 110.092008 
L 104.464659 104.441007 
L 105.067646 158.046228 
z
" clip-path="url(#p067c90f652)" style="fill: #a52e78"/>
    <path d="M 143.501385 169.294995 
L 163.799679 163.292043 
L 173.323218 171.985192 
L 152.872073 178.122326 
z
" clip-path="url(#p067c90f652)" style="fill: #3c005a"/>
    <path d="M 65.907419 82.867926 
L 74.414022 90.732492 
L 95.471116 85.264709 
L 86.798439 77.519712 
z
" clip-path="url(#p067c90f652)" style="fill: #c1a01c"/>
    <path d="M 84.459988 163.968932 
L 105.067646 158.046228 
L 104.397314 98.454059 
L 83.222139 104.073478 
z
" clip-path="url(#p067c90f652)" style="fill: #643521"/>
    <path d="M 105.067646 158.046228 
L 104.464659 104.441007 
L 113.488264 112.624971 
L 113.880986 166.62297 
z
" clip-path="url(#p067c90f652)" style="fill: #4e1638"/>
    <path d="M 105.067646 158.046228 
L 113.880986 166.62297 
L 113.453247 107.810222 
L 104.410909 99.662674 
z
" clip-path="url(#p067c90f652)" style="fill: #cc6250"/>
    <path d="M 95.501326 87.264179 
L 104.360687 95.19796 
L 125.240637 89.682009 
L 116.219415 81.869152 
z
" clip-path="url(#p067c90f652)" style="fill: #c28626"/>
    <path d="M 125.25463 96.606546 
L 134.450102 104.647676 
L 155.105803 99.057084 
L 145.753436 91.138556 
z
" clip-path="url(#p067c90f652)" style="fill: #a13d57"/>
    <path d="M 113.880986 166.62297 
L 113.483386 111.954195 
L 134.44678 106.26768 
L 134.335235 160.660344 
z
" clip-path="url(#p067c90f652)" style="fill: #ab3572"/>
    <path d="M 155.044117 104.572028 
L 164.58226 112.710217 
L 185.025813 107.052126 
L 175.335569 99.038138 
z
" clip-path="url(#p067c90f652)" style="fill: #6e0a7d"/>
    <path d="M 93.112637 172.677159 
L 113.880986 166.62297 
L 122.89032 175.390445 
L 101.9592 181.580547 
z
" clip-path="url(#p067c90f652)" style="fill: #3b005a"/>
    <path d="M 113.880986 166.62297 
L 134.335235 160.660344 
L 134.455233 102.145472 
L 113.453247 107.810222 
z
" clip-path="url(#p067c90f652)" style="fill: #602e26"/>
    <path d="M 134.335235 160.660344 
L 143.501385 169.294995 
L 143.831379 116.450395 
L 134.442817 108.200197 
z
" clip-path="url(#p067c90f652)" style="fill: #972083"/>
    <path d="M 134.335235 160.660344 
L 134.44678 106.26768 
L 143.843538 114.503184 
L 143.501385 169.294995 
z
" clip-path="url(#p067c90f652)" style="fill: #511936"/>
    <path d="M 143.501385 169.294995 
L 143.806662 120.408556 
L 164.552221 114.651769 
L 163.799679 163.292043 
z
" clip-path="url(#p067c90f652)" style="fill: #640095"/>
    <path d="M 143.501385 169.294995 
L 163.799679 163.292043 
L 164.61314 110.714261 
L 143.831379 116.450395 
z
" clip-path="url(#p067c90f652)" style="fill: #470f3e"/>
    <path d="M 163.799679 163.292043 
L 173.323218 171.985192 
L 174.267693 124.4941 
L 164.52911 116.145517 
z
" clip-path="url(#p067c90f652)" style="fill: #4d0191"/>
    <path d="M 163.799679 163.292043 
L 164.552221 114.651769 
L 174.297625 122.989067 
L 173.323218 171.985192 
z
" clip-path="url(#p067c90f652)" style="fill: #2f0046"/>
    <path d="M 122.89032 175.390445 
L 143.501385 169.294995 
L 152.872073 178.122326 
L 132.10226 184.355088 
z
" clip-path="url(#p067c90f652)" style="fill: #4a0558"/>
    <path d="M 173.323218 171.985192 
L 193.462972 165.941503 
L 194.834013 118.689541 
L 174.267693 124.4941 
z
" clip-path="url(#p067c90f652)" style="fill: #250145"/>
    <path d="M 74.54248 95.991049 
L 83.222139 104.073478 
L 104.397314 98.454059 
L 95.550149 90.495589 
z
" clip-path="url(#p067c90f652)" style="fill: #b8613c"/>
    <path d="M 84.459988 163.968932 
L 93.112637 172.677159 
L 92.201305 118.404545 
L 83.346523 110.092008 
z
" clip-path="url(#p067c90f652)" style="fill: #a52e78"/>
    <path d="M 93.112637 172.677159 
L 92.291349 123.766913 
L 113.52706 117.959296 
L 113.880986 166.62297 
z
" clip-path="url(#p067c90f652)" style="fill: #620095"/>
    <path d="M 93.112637 172.677159 
L 113.880986 166.62297 
L 113.488264 112.624971 
L 92.201305 118.404545 
z
" clip-path="url(#p067c90f652)" style="fill: #4e1638"/>
    <path d="M 113.880986 166.62297 
L 113.52706 117.959296 
L 122.734611 126.370335 
L 122.89032 175.390445 
z
" clip-path="url(#p067c90f652)" style="fill: #2e0046"/>
    <path d="M 104.410909 99.662674 
L 113.453247 107.810222 
L 134.455233 102.145472 
L 125.249612 94.123241 
z
" clip-path="url(#p067c90f652)" style="fill: #b15545"/>
    <path d="M 134.442817 108.200197 
L 143.831379 116.450395 
L 164.61314 110.714261 
L 155.066275 102.591053 
z
" clip-path="url(#p067c90f652)" style="fill: #831c72"/>
    <path d="M 113.880986 166.62297 
L 122.89032 175.390445 
L 122.715391 120.319573 
L 113.483386 111.954195 
z
" clip-path="url(#p067c90f652)" style="fill: #ab3572"/>
    <path d="M 122.89032 175.390445 
L 122.728934 124.582992 
L 143.817055 118.744244 
L 143.501385 169.294995 
z
" clip-path="url(#p067c90f652)" style="fill: #7b0992"/>
    <path d="M 164.52911 116.145517 
L 174.267693 124.4941 
L 194.834013 118.689541 
L 184.94205 110.469592 
z
" clip-path="url(#p067c90f652)" style="fill: #43017e"/>
    <path d="M 122.89032 175.390445 
L 143.501385 169.294995 
L 143.843538 114.503184 
L 122.715391 120.319573 
z
" clip-path="url(#p067c90f652)" style="fill: #511936"/>
    <path d="M 143.501385 169.294995 
L 152.872073 178.122326 
L 153.392415 128.877443 
L 143.806662 120.408556 
z
" clip-path="url(#p067c90f652)" style="fill: #640095"/>
    <path d="M 143.501385 169.294995 
L 143.817055 118.744244 
L 153.410134 127.200496 
L 152.872073 178.122326 
z
" clip-path="url(#p067c90f652)" style="fill: #3a0445"/>
    <path d="M 101.9592 181.580547 
L 122.89032 175.390445 
L 132.10226 184.355088 
L 111.006272 190.685731 
z
" clip-path="url(#p067c90f652)" style="fill: #070448"/>
    <path d="M 152.872073 178.122326 
L 173.323218 171.985192 
L 174.297625 122.989067 
L 153.392415 128.877443 
z
" clip-path="url(#p067c90f652)" style="fill: #2f0046"/>
    <path d="M 83.346523 110.092008 
L 92.201305 118.404545 
L 113.488264 112.624971 
L 104.464659 104.441007 
z
" clip-path="url(#p067c90f652)" style="fill: #8f2868"/>
    <path d="M 93.112637 172.677159 
L 101.9592 181.580547 
L 101.328665 132.311284 
L 92.291349 123.766913 
z
" clip-path="url(#p067c90f652)" style="fill: #620095"/>
    <path d="M 101.9592 181.580547 
L 101.394702 137.471396 
L 122.750916 131.503552 
L 122.89032 175.390445 
z
" clip-path="url(#p067c90f652)" style="fill: #0b0777"/>
    <path d="M 101.9592 181.580547 
L 122.89032 175.390445 
L 122.734611 126.370335 
L 101.328665 132.311284 
z
" clip-path="url(#p067c90f652)" style="fill: #2e0046"/>
    <path d="M 113.483386 111.954195 
L 122.715391 120.319573 
L 143.843538 114.503184 
L 134.44678 106.26768 
z
" clip-path="url(#p067c90f652)" style="fill: #952e63"/>
    <path d="M 122.89032 175.390445 
L 122.750916 131.503552 
L 132.148516 140.14692 
L 132.10226 184.355088 
z
" clip-path="url(#p067c90f652)" style="fill: #050338"/>
    <path d="M 143.806662 120.408556 
L 153.392415 128.877443 
L 174.297625 122.989067 
L 164.552221 114.651769 
z
" clip-path="url(#p067c90f652)" style="fill: #560081"/>
    <path d="M 122.89032 175.390445 
L 132.10226 184.355088 
L 132.155812 133.173874 
L 122.728934 124.582992 
z
" clip-path="url(#p067c90f652)" style="fill: #7b0992"/>
    <path d="M 132.10226 184.355088 
L 152.872073 178.122326 
L 153.410134 127.200496 
L 132.155812 133.173874 
z
" clip-path="url(#p067c90f652)" style="fill: #3a0445"/>
    <path d="M 92.291349 123.766913 
L 101.328665 132.311284 
L 122.734611 126.370335 
L 113.52706 117.959296 
z
" clip-path="url(#p067c90f652)" style="fill: #550081"/>
    <path d="M 101.9592 181.580547 
L 111.006272 190.685731 
L 110.620626 146.25304 
L 101.394702 137.471396 
z
" clip-path="url(#p067c90f652)" style="fill: #0b0777"/>
    <path d="M 122.728934 124.582992 
L 132.155812 133.173874 
L 153.410134 127.200496 
L 143.817055 118.744244 
z
" clip-path="url(#p067c90f652)" style="fill: #6b087e"/>
    <path d="M 111.006272 190.685731 
L 132.10226 184.355088 
L 132.148516 140.14692 
L 110.620626 146.25304 
z
" clip-path="url(#p067c90f652)" style="fill: #050338"/>
    <path d="M 101.394702 137.471396 
L 110.620626 146.25304 
L 132.148516 140.14692 
L 122.750916 131.503552 
z
" clip-path="url(#p067c90f652)" style="fill: #0a0667"/>
   </g>
  </g>
  <g id="patch_6">
   <path d="M 252 245.99952 
L 490.79952 245.99952 
L 490.79952 7.2 
L 252 7.2 
z
" style="fill: #ffffff"/>
  </g>
  <g id="pane3d_4">
   <g id="patch_7">
    <path d="M 303.619943 147.118515 
L 394.318552 121.847368 
L 394.914014 54.194245 
L 301.397514 77.885596 
" style="fill: #f2f2f2; opacity: 0.5; stroke: #f2f2f2; stroke-width: 0.24; stroke-linejoin: miter"/>
   </g>
  </g>
  <g id="pane3d_5">
   <g id="patch_8">
    <path d="M 394.318552 121.847368 
L 447.628082 168.71828 
L 449.979179 98.173742 
L 394.914014 54.194245 
" style="fill: #e6e6e6; opacity: 0.5; stroke: #e6e6e6; stroke-width: 0.24; stroke-linejoin: miter"/>
   </g>
  </g>
  <g id="pane3d_6">
   <g id="patch_9">
    <path d="M 303.619943 147.118515 
L 352.936265 197.336358 
L 447.628082 168.71828 
L 394.318552 121.847368 
" style="fill: #ececec; opacity: 0.5; stroke: #ececec; stroke-width: 0.24; stroke-linejoin: miter"/>
   </g>
  </g>
  <g id="axis3d_4">
   <g id="line2d_20">
    <path d="M 303.619943 147.118515 
L 352.936265 197.336358 
" style="fill: none; stroke: #000000; stroke-width: 0.8; stroke-linecap: square"/>
   </g>
   <g id="text_20">
    <!-- $T_c$ -->
    <g transform="translate(298.875264 193.856866) rotate(-314.481063) scale(0.1 -0.1)">
     <use xlink:href="#CMMI12-54" transform="scale(0.996264)"/>
     <use xlink:href="#CMMI12-63" transform="translate(57.175044 -14.943915) scale(0.697382)"/>
    </g>
   </g>
   <g id="Line3DCollection_4">
    <path d="M 310.671241 154.298713 
L 401.954818 128.561341 
L 402.788882 60.483751 
" style="fill: none; stroke: #b0b0b0; stroke-width: 0.8"/>
    <path d="M 318.992981 162.772578 
L 410.960895 136.479682 
L 412.081891 67.9059 
" style="fill: none; stroke: #b0b0b0; stroke-width: 0.8"/>
    <path d="M 327.498432 171.433512 
L 420.159057 144.566909 
L 421.579286 75.491289 
" style="fill: none; stroke: #b0b0b0; stroke-width: 0.8"/>
    <path d="M 336.193745 180.287778 
L 429.555515 152.828482 
L 431.287886 83.245363 
" style="fill: none; stroke: #b0b0b0; stroke-width: 0.8"/>
    <path d="M 345.085348 189.341923 
L 439.156752 161.2701 
L 441.214815 91.173812 
" style="fill: none; stroke: #b0b0b0; stroke-width: 0.8"/>
   </g>
   <g id="xtick_17">
    <g id="line2d_21">
     <path d="M 311.426348 154.085811 
L 309.159783 154.724868 
" style="fill: none; stroke: #000000; stroke-width: 0.8; stroke-linecap: square"/>
    </g>
    <g id="text_21">
     <!-- $\mathdefault{0.40}$ -->
     <g transform="translate(293.03006 170.133611) scale(0.08 -0.08)">
      <use xlink:href="#CMR17-30" transform="scale(0.996264)"/>
      <use xlink:href="#CMMI12-3a" transform="translate(45.690477 0) scale(0.996264)"/>
      <use xlink:href="#CMR17-34" transform="translate(72.787654 0) scale(0.996264)"/>
      <use xlink:href="#CMR17-30" transform="translate(118.478131 0) scale(0.996264)"/>
     </g>
    </g>
   </g>
   <g id="xtick_18">
    <g id="line2d_22">
     <path d="M 319.754022 162.555003 
L 317.469632 163.208092 
" style="fill: none; stroke: #000000; stroke-width: 0.8; stroke-linecap: square"/>
    </g>
    <g id="text_22">
     <!-- $\mathdefault{0.45}$ -->
     <g transform="translate(301.244711 178.723406) scale(0.08 -0.08)">
      <use xlink:href="#CMR17-30" transform="scale(0.996264)"/>
      <use xlink:href="#CMMI12-3a" transform="translate(45.690477 0) scale(0.996264)"/>
      <use xlink:href="#CMR17-34" transform="translate(72.787654 0) scale(0.996264)"/>
      <use xlink:href="#CMR17-35" transform="translate(118.478131 0) scale(0.996264)"/>
     </g>
    </g>
   </g>
   <g id="xtick_19">
    <g id="line2d_23">
     <path d="M 328.265487 171.211107 
L 325.963031 171.878696 
" style="fill: none; stroke: #000000; stroke-width: 0.8; stroke-linecap: square"/>
    </g>
    <g id="text_23">
     <!-- $\mathdefault{0.50}$ -->
     <g transform="translate(309.640783 187.502907) scale(0.08 -0.08)">
      <use xlink:href="#CMR17-30" transform="scale(0.996264)"/>
      <use xlink:href="#CMMI12-3a" transform="translate(45.690477 0) scale(0.996264)"/>
      <use xlink:href="#CMR17-35" transform="translate(72.787654 0) scale(0.996264)"/>
      <use xlink:href="#CMR17-30" transform="translate(118.478131 0) scale(0.996264)"/>
     </g>
    </g>
   </g>
   <g id="xtick_20">
    <g id="line2d_24">
     <path d="M 336.966893 180.060382 
L 334.646131 180.742958 
" style="fill: none; stroke: #000000; stroke-width: 0.8; stroke-linecap: square"/>
    </g>
    <g id="text_24">
     <!-- $\mathdefault{0.55}$ -->
     <g transform="translate(318.224353 196.478469) scale(0.08 -0.08)">
      <use xlink:href="#CMR17-30" transform="scale(0.996264)"/>
      <use xlink:href="#CMMI12-3a" transform="translate(45.690477 0) scale(0.996264)"/>
      <use xlink:href="#CMR17-35" transform="translate(72.787654 0) scale(0.996264)"/>
      <use xlink:href="#CMR17-35" transform="translate(118.478131 0) scale(0.996264)"/>
     </g>
    </g>
   </g>
   <g id="xtick_21">
    <g id="line2d_25">
     <path d="M 345.864672 189.109365 
L 343.525359 189.807439 
" style="fill: none; stroke: #000000; stroke-width: 0.8; stroke-linecap: square"/>
    </g>
    <g id="text_25">
     <!-- $\mathdefault{0.60}$ -->
     <g transform="translate(327.001772 205.656732) scale(0.08 -0.08)">
      <use xlink:href="#CMR17-30" transform="scale(0.996264)"/>
      <use xlink:href="#CMMI12-3a" transform="translate(45.690477 0) scale(0.996264)"/>
      <use xlink:href="#CMR17-36" transform="translate(72.787654 0) scale(0.996264)"/>
      <use xlink:href="#CMR17-30" transform="translate(118.478131 0) scale(0.996264)"/>
     </g>
    </g>
   </g>
  </g>
  <g id="axis3d_5">
   <g id="line2d_26">
    <path d="M 447.628082 168.71828 
L 352.936265 197.336358 
" style="fill: none; stroke: #000000; stroke-width: 0.8; stroke-linecap: square"/>
   </g>
   <g id="text_26">
    <!-- $\omega_c$ -->
    <g transform="translate(408.067813 210.994339) rotate(-16.816043) scale(0.1 -0.1)">
     <use xlink:href="#CMMI12-21" transform="scale(0.996264)"/>
     <use xlink:href="#CMMI12-63" transform="translate(60.743753 -14.943915) scale(0.697382)"/>
    </g>
   </g>
   <g id="Line3DCollection_5">
    <path d="M 318.015817 73.675536 
L 319.723873 142.631513 
L 369.77887 192.24613 
" style="fill: none; stroke: #b0b0b0; stroke-width: 0.8"/>
    <path d="M 338.723689 68.42943 
L 339.799025 137.03802 
L 390.756896 185.90608 
" style="fill: none; stroke: #b0b0b0; stroke-width: 0.8"/>
    <path d="M 359.121527 63.261868 
L 359.582553 131.52578 
L 411.41071 179.664016 
" style="fill: none; stroke: #b0b0b0; stroke-width: 0.8"/>
    <path d="M 379.216241 58.171098 
L 379.080764 126.093038 
L 431.747771 173.517681 
" style="fill: none; stroke: #b0b0b0; stroke-width: 0.8"/>
   </g>
   <g id="xtick_22">
    <g id="line2d_27">
     <path d="M 369.352664 191.823673 
L 370.632612 193.09236 
" style="fill: none; stroke: #000000; stroke-width: 0.8; stroke-linecap: square"/>
    </g>
    <g id="text_27">
     <!-- $\mathdefault{0.50}$ -->
     <g transform="translate(368.118055 211.219257) scale(0.08 -0.08)">
      <use xlink:href="#CMR17-30" transform="scale(0.996264)"/>
      <use xlink:href="#CMMI12-3a" transform="translate(45.690477 0) scale(0.996264)"/>
      <use xlink:href="#CMR17-35" transform="translate(72.787654 0) scale(0.996264)"/>
      <use xlink:href="#CMR17-30" transform="translate(118.478131 0) scale(0.996264)"/>
     </g>
    </g>
   </g>
   <g id="xtick_23">
    <g id="line2d_28">
     <path d="M 390.323206 185.490176 
L 391.625618 186.739175 
" style="fill: none; stroke: #000000; stroke-width: 0.8; stroke-linecap: square"/>
    </g>
    <g id="text_28">
     <!-- $\mathdefault{0.75}$ -->
     <g transform="translate(389.125077 204.751562) scale(0.08 -0.08)">
      <use xlink:href="#CMR17-30" transform="scale(0.996264)"/>
      <use xlink:href="#CMMI12-3a" transform="translate(45.690477 0) scale(0.996264)"/>
      <use xlink:href="#CMR17-37" transform="translate(72.787654 0) scale(0.996264)"/>
      <use xlink:href="#CMR17-35" transform="translate(118.478131 0) scale(0.996264)"/>
     </g>
    </g>
   </g>
   <g id="xtick_24">
    <g id="line2d_29">
     <path d="M 410.969818 179.254513 
L 412.293848 180.484278 
" style="fill: none; stroke: #000000; stroke-width: 0.8; stroke-linecap: square"/>
    </g>
    <g id="text_29">
     <!-- $\mathdefault{1.00}$ -->
     <g transform="translate(409.80629 198.384179) scale(0.08 -0.08)">
      <use xlink:href="#CMR17-31" transform="scale(0.996264)"/>
      <use xlink:href="#CMMI12-3a" transform="translate(45.690477 0) scale(0.996264)"/>
      <use xlink:href="#CMR17-30" transform="translate(72.787654 0) scale(0.996264)"/>
      <use xlink:href="#CMR17-30" transform="translate(118.478131 0) scale(0.996264)"/>
     </g>
    </g>
   </g>
   <g id="xtick_25">
    <g id="line2d_30">
     <path d="M 431.299948 173.114433 
L 432.644782 174.325406 
" style="fill: none; stroke: #000000; stroke-width: 0.8; stroke-linecap: square"/>
    </g>
    <g id="text_30">
     <!-- $\mathdefault{1.25}$ -->
     <g transform="translate(430.169215 192.11479) scale(0.08 -0.08)">
      <use xlink:href="#CMR17-31" transform="scale(0.996264)"/>
      <use xlink:href="#CMMI12-3a" transform="translate(45.690477 0) scale(0.996264)"/>
      <use xlink:href="#CMR17-32" transform="translate(72.787654 0) scale(0.996264)"/>
      <use xlink:href="#CMR17-35" transform="translate(118.478131 0) scale(0.996264)"/>
     </g>
    </g>
   </g>
  </g>
  <g id="axis3d_6">
   <g id="line2d_31">
    <path d="M 447.628082 168.71828 
L 449.979179 98.173742 
" style="fill: none; stroke: #000000; stroke-width: 0.8; stroke-linecap: square"/>
   </g>
   <g id="text_31">
    <!-- $\eta$ -->
    <g transform="translate(481.604053 140.920242) rotate(-88.091162) scale(0.1 -0.1)">
     <defs>
      <path id="CMMI12-11" d="M 3040 1768 
C 3072 1895 3091 1973 3091 2145 
C 3091 2528 2867 2815 2381 2815 
C 1811 2815 1510 2413 1395 2254 
C 1376 2618 1114 2815 832 2815 
C 646 2815 499 2726 378 2483 
C 262 2254 173 1864 173 1839 
C 173 1813 198 1781 243 1781 
C 294 1781 301 1788 339 1934 
C 435 2311 557 2688 813 2688 
C 960 2688 1011 2586 1011 2394 
C 1011 2254 947 2005 902 1807 
L 723 1118 
C 698 996 627 709 595 593 
C 550 428 480 127 480 96 
C 480 6 550 -64 646 -64 
C 723 -64 813 -25 864 70 
C 877 102 934 326 966 453 
L 1107 1028 
L 1318 1871 
C 1331 1909 1491 2228 1728 2432 
C 1894 2586 2112 2688 2362 2688 
C 2618 2688 2707 2496 2707 2241 
C 2707 2055 2682 1953 2650 1831 
L 1907 -1107 
C 1901 -1139 1888 -1177 1888 -1216 
C 1888 -1312 1965 -1376 2061 -1376 
C 2118 -1376 2253 -1350 2304 -1158 
L 3040 1768 
z
" transform="scale(0.015625)"/>
     </defs>
     <use xlink:href="#CMMI12-11" transform="scale(0.996264)"/>
    </g>
   </g>
   <g id="Line3DCollection_6">
    <path d="M 447.673665 167.350558 
L 394.330119 120.533249 
L 303.576817 145.775064 
" style="fill: none; stroke: #b0b0b0; stroke-width: 0.8"/>
    <path d="M 447.936435 159.46618 
L 394.396778 112.959768 
L 303.328243 138.031495 
" style="fill: none; stroke: #b0b0b0; stroke-width: 0.8"/>
    <path d="M 448.201101 151.524872 
L 394.46389 105.334869 
L 303.077923 130.233554 
" style="fill: none; stroke: #b0b0b0; stroke-width: 0.8"/>
    <path d="M 448.467686 143.526016 
L 394.531459 97.658026 
L 302.825839 122.380664 
" style="fill: none; stroke: #b0b0b0; stroke-width: 0.8"/>
    <path d="M 448.736209 135.468985 
L 394.599491 89.928706 
L 302.571973 114.472243 
" style="fill: none; stroke: #b0b0b0; stroke-width: 0.8"/>
    <path d="M 449.006693 127.353141 
L 394.667988 82.14637 
L 302.316305 106.507701 
" style="fill: none; stroke: #b0b0b0; stroke-width: 0.8"/>
    <path d="M 449.279158 119.177837 
L 394.736957 74.31047 
L 302.058817 98.486437 
" style="fill: none; stroke: #b0b0b0; stroke-width: 0.8"/>
    <path d="M 449.553627 110.942418 
L 394.806403 66.420451 
L 301.799488 90.407843 
" style="fill: none; stroke: #b0b0b0; stroke-width: 0.8"/>
    <path d="M 449.830121 102.646219 
L 394.87633 58.475751 
L 301.538299 82.271303 
" style="fill: none; stroke: #b0b0b0; stroke-width: 0.8"/>
   </g>
   <g id="xtick_26">
    <g id="line2d_32">
     <path d="M 447.220234 166.952601 
L 448.581901 168.147677 
" style="fill: none; stroke: #000000; stroke-width: 0.8; stroke-linecap: square"/>
    </g>
    <g id="text_32">
     <!-- $\mathdefault{0}$ -->
     <g transform="translate(461.805916 175.318359) scale(0.08 -0.08)">
      <use xlink:href="#CMR17-30" transform="scale(0.996264)"/>
     </g>
    </g>
   </g>
   <g id="xtick_27">
    <g id="line2d_33">
     <path d="M 447.48124 159.070782 
L 448.848207 160.258177 
" style="fill: none; stroke: #000000; stroke-width: 0.8; stroke-linecap: square"/>
    </g>
    <g id="text_33">
     <!-- $\mathdefault{5}$ -->
     <g transform="translate(462.128132 167.418367) scale(0.08 -0.08)">
      <use xlink:href="#CMR17-35" transform="scale(0.996264)"/>
     </g>
    </g>
   </g>
   <g id="xtick_28">
    <g id="line2d_34">
     <path d="M 447.74413 151.132081 
L 449.116438 152.311653 
" style="fill: none; stroke: #000000; stroke-width: 0.8; stroke-linecap: square"/>
    </g>
    <g id="text_34">
     <!-- $\mathdefault{10}$ -->
     <g transform="translate(460.335591 159.461155) scale(0.08 -0.08)">
      <use xlink:href="#CMR17-31" transform="scale(0.996264)"/>
      <use xlink:href="#CMR17-30" transform="translate(45.690477 0) scale(0.996264)"/>
     </g>
    </g>
   </g>
   <g id="xtick_29">
    <g id="line2d_35">
     <path d="M 448.008924 143.13588 
L 449.386615 144.307484 
" style="fill: none; stroke: #000000; stroke-width: 0.8; stroke-linecap: square"/>
    </g>
    <g id="text_35">
     <!-- $\mathdefault{15}$ -->
     <g transform="translate(460.6625 151.446101) scale(0.08 -0.08)">
      <use xlink:href="#CMR17-31" transform="scale(0.996264)"/>
      <use xlink:href="#CMR17-35" transform="translate(45.690477 0) scale(0.996264)"/>
     </g>
    </g>
   </g>
   <g id="xtick_30">
    <g id="line2d_36">
     <path d="M 448.275643 135.081552 
L 449.658759 136.245042 
" style="fill: none; stroke: #000000; stroke-width: 0.8; stroke-linecap: square"/>
    </g>
    <g id="text_36">
     <!-- $\mathdefault{20}$ -->
     <g transform="translate(460.991795 143.37257) scale(0.08 -0.08)">
      <use xlink:href="#CMR17-32" transform="scale(0.996264)"/>
      <use xlink:href="#CMR17-30" transform="translate(45.690477 0) scale(0.996264)"/>
     </g>
    </g>
   </g>
   <g id="xtick_31">
    <g id="line2d_37">
     <path d="M 448.544307 126.968461 
L 449.932891 128.123686 
" style="fill: none; stroke: #000000; stroke-width: 0.8; stroke-linecap: square"/>
    </g>
    <g id="text_37">
     <!-- $\mathdefault{25}$ -->
     <g transform="translate(461.323501 135.239921) scale(0.08 -0.08)">
      <use xlink:href="#CMR17-32" transform="scale(0.996264)"/>
      <use xlink:href="#CMR17-35" transform="translate(45.690477 0) scale(0.996264)"/>
     </g>
    </g>
   </g>
   <g id="xtick_32">
    <g id="line2d_38">
     <path d="M 448.814939 118.795962 
L 450.209034 119.942769 
" style="fill: none; stroke: #000000; stroke-width: 0.8; stroke-linecap: square"/>
    </g>
    <g id="text_38">
     <!-- $\mathdefault{30}$ -->
     <g transform="translate(461.657644 127.047502) scale(0.08 -0.08)">
      <use xlink:href="#CMR17-33" transform="scale(0.996264)"/>
      <use xlink:href="#CMR17-30" transform="translate(45.690477 0) scale(0.996264)"/>
     </g>
    </g>
   </g>
   <g id="xtick_33">
    <g id="line2d_39">
     <path d="M 449.08756 110.5634 
L 450.487209 111.701634 
" style="fill: none; stroke: #000000; stroke-width: 0.8; stroke-linecap: square"/>
    </g>
    <g id="text_39">
     <!-- $\mathdefault{35}$ -->
     <g transform="translate(461.994253 118.794652) scale(0.08 -0.08)">
      <use xlink:href="#CMR17-33" transform="scale(0.996264)"/>
      <use xlink:href="#CMR17-35" transform="translate(45.690477 0) scale(0.996264)"/>
     </g>
    </g>
   </g>
   <g id="xtick_34">
    <g id="line2d_40">
     <path d="M 449.362192 102.270109 
L 450.76744 103.399612 
" style="fill: none; stroke: #000000; stroke-width: 0.8; stroke-linecap: square"/>
    </g>
    <g id="text_40">
     <!-- $\mathdefault{40}$ -->
     <g transform="translate(462.333353 110.480699) scale(0.08 -0.08)">
      <use xlink:href="#CMR17-34" transform="scale(0.996264)"/>
      <use xlink:href="#CMR17-30" transform="translate(45.690477 0) scale(0.996264)"/>
     </g>
    </g>
   </g>
  </g>
  <g id="axes_2">
   <g id="Poly3DCollection_2">
    <path d="M 372.503742 130.343434 
L 391.923911 124.914988 
L 400.801554 132.774853 
L 381.240705 138.318591 
z
" clip-path="url(#pca1688c965)" style="fill: #834b25"/>
    <path d="M 352.799174 135.851377 
L 372.503742 130.343434 
L 381.240705 138.318591 
L 361.390337 143.944382 
z
" clip-path="url(#pca1688c965)" style="fill: #876616"/>
    <path d="M 372.503742 130.343434 
L 372.445041 68.718695 
L 392.398623 63.598193 
L 391.923911 124.914988 
z
" clip-path="url(#pca1688c965)" style="fill: #d97d3d"/>
    <path d="M 391.923911 124.914988 
L 392.398623 63.598193 
L 401.52768 71.012848 
L 400.801554 132.774853 
z
" clip-path="url(#pca1688c965)" style="fill: #663b1d"/>
    <path d="M 381.240705 138.318591 
L 400.801554 132.774853 
L 409.868056 140.801925 
L 390.164914 146.464669 
z
" clip-path="url(#pca1688c965)" style="fill: #6e273f"/>
    <path d="M 332.803913 141.440576 
L 352.799174 135.851377 
L 361.390337 143.944382 
L 341.243975 149.654061 
z
" clip-path="url(#pca1688c965)" style="fill: #808512"/>
    <path d="M 352.799174 135.851377 
L 352.172249 71.995485 
L 372.44322 66.80793 
L 372.503742 130.343434 
z
" clip-path="url(#pca1688c965)" style="fill: #e0a825"/>
    <path d="M 372.503742 130.343434 
L 381.240705 138.318591 
L 381.42557 76.245148 
L 372.445041 68.718695 
z
" clip-path="url(#pca1688c965)" style="fill: #d97d3d"/>
    <path d="M 372.503742 130.343434 
L 372.44322 66.80793 
L 381.431304 74.319887 
L 381.240705 138.318591 
z
" clip-path="url(#pca1688c965)" style="fill: #6a4f11"/>
    <path d="M 361.390337 143.944382 
L 381.240705 138.318591 
L 390.164914 146.464669 
L 370.166999 152.212131 
z
" clip-path="url(#pca1688c965)" style="fill: #7e3f2d"/>
    <path d="M 381.240705 138.318591 
L 381.416167 79.402374 
L 401.490754 74.153625 
L 400.801554 132.774853 
z
" clip-path="url(#pca1688c965)" style="fill: #b54168"/>
    <path d="M 381.240705 138.318591 
L 400.801554 132.774853 
L 401.52768 71.012848 
L 381.42557 76.245148 
z
" clip-path="url(#pca1688c965)" style="fill: #663b1d"/>
    <path d="M 400.801554 132.774853 
L 401.490754 74.153625 
L 410.806117 81.754224 
L 409.868056 140.801925 
z
" clip-path="url(#pca1688c965)" style="fill: #561f31"/>
    <path d="M 390.164914 146.464669 
L 409.868056 140.801925 
L 419.129509 149.001598 
L 399.282455 154.78722 
z
" clip-path="url(#pca1688c965)" style="fill: #61194b"/>
    <path d="M 312.51148 147.112843 
L 332.803913 141.440576 
L 341.243975 149.654061 
L 320.794948 155.449518 
z
" clip-path="url(#pca1688c965)" style="fill: #876b15"/>
    <path d="M 332.803913 141.440576 
L 331.555357 75.235291 
L 352.152457 69.979628 
L 352.799174 135.851377 
z
" clip-path="url(#pca1688c965)" style="fill: #d4dc1e"/>
    <path d="M 352.799174 135.851377 
L 361.390337 143.944382 
L 361.005986 79.621664 
L 352.172249 71.995485 
z
" clip-path="url(#pca1688c965)" style="fill: #e0a825"/>
    <path d="M 341.243975 149.654061 
L 361.390337 143.944382 
L 370.166999 152.212131 
L 349.867646 158.046228 
z
" clip-path="url(#pca1688c965)" style="fill: #87591c"/>
    <path d="M 352.799174 135.851377 
L 352.152457 69.979628 
L 360.993849 77.590427 
L 361.390337 143.944382 
z
" clip-path="url(#pca1688c965)" style="fill: #64680e"/>
    <path d="M 361.390337 143.944382 
L 361.023659 82.579361 
L 381.422541 77.262087 
L 381.240705 138.318591 
z
" clip-path="url(#pca1688c965)" style="fill: #d0684b"/>
    <path d="M 361.390337 143.944382 
L 381.240705 138.318591 
L 381.431304 74.319887 
L 361.005986 79.621664 
z
" clip-path="url(#pca1688c965)" style="fill: #6a4f11"/>
    <path d="M 372.445041 68.718695 
L 381.42557 76.245148 
L 401.52768 71.012848 
L 392.398623 63.598193 
z
" clip-path="url(#pca1688c965)" style="fill: #bc6c35"/>
    <path d="M 381.240705 138.318591 
L 390.164914 146.464669 
L 390.581665 87.118672 
L 381.416167 79.402374 
z
" clip-path="url(#pca1688c965)" style="fill: #b54168"/>
    <path d="M 381.240705 138.318591 
L 381.422541 77.262087 
L 390.596809 84.962137 
L 390.164914 146.464669 
z
" clip-path="url(#pca1688c965)" style="fill: #623123"/>
    <path d="M 370.166999 152.212131 
L 390.164914 146.464669 
L 399.282455 154.78722 
L 379.135235 160.660344 
z
" clip-path="url(#pca1688c965)" style="fill: #671f45"/>
    <path d="M 390.164914 146.464669 
L 390.571847 88.516775 
L 410.784022 83.145032 
L 409.868056 140.801925 
z
" clip-path="url(#pca1688c965)" style="fill: #a0297c"/>
    <path d="M 390.164914 146.464669 
L 409.868056 140.801925 
L 410.806117 81.754224 
L 390.581665 87.118672 
z
" clip-path="url(#pca1688c965)" style="fill: #561f31"/>
    <path d="M 409.868056 140.801925 
L 410.784022 83.145032 
L 420.298955 90.924008 
L 419.129509 149.001598 
z
" clip-path="url(#pca1688c965)" style="fill: #4b133a"/>
    <path d="M 312.51148 147.112843 
L 310.689687 82.236482 
L 331.586593 76.89159 
L 332.803913 141.440576 
z
" clip-path="url(#pca1688c965)" style="fill: #dfb122"/>
    <path d="M 399.282455 154.78722 
L 419.129509 149.001598 
L 428.592269 157.379499 
L 408.599679 163.292043 
z
" clip-path="url(#pca1688c965)" style="fill: #3a005a"/>
    <path d="M 332.803913 141.440576 
L 331.586593 76.89159 
L 340.261553 84.631785 
L 341.243975 149.654061 
z
" clip-path="url(#pca1688c965)" style="fill: #695310"/>
    <path d="M 320.794948 155.449518 
L 341.243975 149.654061 
L 349.867646 158.046228 
L 329.259988 163.968932 
z
" clip-path="url(#pca1688c965)" style="fill: #80432b"/>
    <path d="M 332.803913 141.440576 
L 341.243975 149.654061 
L 340.236336 82.962805 
L 331.555357 75.235291 
z
" clip-path="url(#pca1688c965)" style="fill: #d4dc1e"/>
    <path d="M 341.243975 149.654061 
L 340.279737 85.835317 
L 361.010922 80.4478 
L 361.390337 143.944382 
z
" clip-path="url(#pca1688c965)" style="fill: #df942f"/>
    <path d="M 341.243975 149.654061 
L 361.390337 143.944382 
L 360.993849 77.590427 
L 340.236336 82.962805 
z
" clip-path="url(#pca1688c965)" style="fill: #64680e"/>
    <path d="M 361.390337 143.944382 
L 370.166999 152.212131 
L 370.042083 90.397636 
L 361.023659 82.579361 
z
" clip-path="url(#pca1688c965)" style="fill: #d0684b"/>
    <path d="M 352.172249 71.995485 
L 361.005986 79.621664 
L 381.431304 74.319887 
L 372.44322 66.80793 
z
" clip-path="url(#pca1688c965)" style="fill: #c29220"/>
    <path d="M 361.390337 143.944382 
L 361.010922 80.4478 
L 370.037742 88.249798 
L 370.166999 152.212131 
z
" clip-path="url(#pca1688c965)" style="fill: #694616"/>
    <path d="M 349.867646 158.046228 
L 370.166999 152.212131 
L 379.135235 160.660344 
L 358.680986 166.62297 
z
" clip-path="url(#pca1688c965)" style="fill: #7b3a30"/>
    <path d="M 370.166999 152.212131 
L 370.047992 93.321702 
L 390.576383 87.870869 
L 390.164914 146.464669 
z
" clip-path="url(#pca1688c965)" style="fill: #aa3473"/>
    <path d="M 381.416167 79.402374 
L 390.581665 87.118672 
L 410.806117 81.754224 
L 401.490754 74.153625 
z
" clip-path="url(#pca1688c965)" style="fill: #9d395a"/>
    <path d="M 370.166999 152.212131 
L 390.164914 146.464669 
L 390.596809 84.962137 
L 370.042083 90.397636 
z
" clip-path="url(#pca1688c965)" style="fill: #623123"/>
    <path d="M 390.164914 146.464669 
L 399.282455 154.78722 
L 399.93535 96.415408 
L 390.571847 88.516775 
z
" clip-path="url(#pca1688c965)" style="fill: #a0297c"/>
    <path d="M 390.164914 146.464669 
L 390.576383 87.870869 
L 399.94263 95.76459 
L 399.282455 154.78722 
z
" clip-path="url(#pca1688c965)" style="fill: #501936"/>
    <path d="M 399.282455 154.78722 
L 399.901477 99.44386 
L 420.238293 93.936632 
L 419.129509 149.001598 
z
" clip-path="url(#pca1688c965)" style="fill: #610095"/>
    <path d="M 379.135235 160.660344 
L 399.282455 154.78722 
L 408.599679 163.292043 
L 388.301385 169.294995 
z
" clip-path="url(#pca1688c965)" style="fill: #4c0658"/>
    <path d="M 399.282455 154.78722 
L 419.129509 149.001598 
L 420.298955 90.924008 
L 399.93535 96.415408 
z
" clip-path="url(#pca1688c965)" style="fill: #4b133a"/>
    <path d="M 312.51148 147.112843 
L 320.794948 155.449518 
L 319.198479 90.096206 
L 310.689687 82.236482 
z
" clip-path="url(#pca1688c965)" style="fill: #dfb122"/>
    <path d="M 419.129509 149.001598 
L 420.238293 93.936632 
L 429.951798 101.912071 
L 428.592269 157.379499 
z
" clip-path="url(#pca1688c965)" style="fill: #2e0046"/>
    <path d="M 320.794948 155.449518 
L 319.272347 93.120073 
L 340.306999 87.639701 
L 341.243975 149.654061 
z
" clip-path="url(#pca1688c965)" style="fill: #d36f46"/>
    <path d="M 320.794948 155.449518 
L 341.243975 149.654061 
L 340.261553 84.631785 
L 319.198479 90.096206 
z
" clip-path="url(#pca1688c965)" style="fill: #695310"/>
    <path d="M 408.599679 163.292043 
L 428.592269 157.379499 
L 438.262972 165.941503 
L 418.123218 171.985192 
z
" clip-path="url(#pca1688c965)" style="fill: #13034d"/>
    <path d="M 341.243975 149.654061 
L 340.306999 87.639701 
L 349.164943 95.576356 
L 349.867646 158.046228 
z
" clip-path="url(#pca1688c965)" style="fill: #643421"/>
    <path d="M 341.243975 149.654061 
L 349.867646 158.046228 
L 349.144491 93.758148 
L 340.279737 85.835317 
z
" clip-path="url(#pca1688c965)" style="fill: #df942f"/>
    <path d="M 329.259988 163.968932 
L 349.867646 158.046228 
L 358.680986 166.62297 
L 337.912637 172.677159 
z
" clip-path="url(#pca1688c965)" style="fill: #682144"/>
    <path d="M 331.555357 75.235291 
L 340.236336 82.962805 
L 360.993849 77.590427 
L 352.152457 69.979628 
z
" clip-path="url(#pca1688c965)" style="fill: #b8bf1a"/>
    <path d="M 349.867646 158.046228 
L 349.173045 96.296587 
L 370.042845 90.774845 
L 370.166999 152.212131 
z
" clip-path="url(#pca1688c965)" style="fill: #cc6150"/>
    <path d="M 349.867646 158.046228 
L 370.166999 152.212131 
L 370.037742 88.249798 
L 349.144491 93.758148 
z
" clip-path="url(#pca1688c965)" style="fill: #694616"/>
    <path d="M 361.023659 82.579361 
L 370.042083 90.397636 
L 390.596809 84.962137 
L 381.422541 77.262087 
z
" clip-path="url(#pca1688c965)" style="fill: #b55b41"/>
    <path d="M 370.166999 152.212131 
L 379.135235 160.660344 
L 379.25689 101.33782 
L 370.047992 93.321702 
z
" clip-path="url(#pca1688c965)" style="fill: #aa3473"/>
    <path d="M 370.166999 152.212131 
L 370.042845 90.774845 
L 379.262152 98.771496 
L 379.135235 160.660344 
z
" clip-path="url(#pca1688c965)" style="fill: #602e26"/>
    <path d="M 379.135235 160.660344 
L 379.251946 103.748444 
L 399.915808 98.162562 
L 399.282455 154.78722 
z
" clip-path="url(#pca1688c965)" style="fill: #7e0b91"/>
    <path d="M 390.571847 88.516775 
L 399.93535 96.415408 
L 420.298955 90.924008 
L 410.784022 83.145032 
z
" clip-path="url(#pca1688c965)" style="fill: #8b246c"/>
    <path d="M 358.680986 166.62297 
L 379.135235 160.660344 
L 388.301385 169.294995 
L 367.69032 175.390445 
z
" clip-path="url(#pca1688c965)" style="fill: #672045"/>
    <path d="M 379.135235 160.660344 
L 399.282455 154.78722 
L 399.94263 95.76459 
L 379.25689 101.33782 
z
" clip-path="url(#pca1688c965)" style="fill: #501936"/>
    <path d="M 399.282455 154.78722 
L 408.599679 163.292043 
L 409.462202 107.543186 
L 399.901477 99.44386 
z
" clip-path="url(#pca1688c965)" style="fill: #610095"/>
    <path d="M 399.282455 154.78722 
L 399.915808 98.162562 
L 409.482177 106.252137 
L 408.599679 163.292043 
z
" clip-path="url(#pca1688c965)" style="fill: #3b0544"/>
    <path d="M 408.599679 163.292043 
L 409.423097 110.070745 
L 429.890171 104.426412 
L 428.592269 157.379499 
z
" clip-path="url(#pca1688c965)" style="fill: #200580"/>
    <path d="M 408.599679 163.292043 
L 428.592269 157.379499 
L 429.951798 101.912071 
L 409.462202 107.543186 
z
" clip-path="url(#pca1688c965)" style="fill: #2e0046"/>
    <path d="M 388.301385 169.294995 
L 408.599679 163.292043 
L 418.123218 171.985192 
L 397.672073 178.122326 
z
" clip-path="url(#pca1688c965)" style="fill: #270155"/>
    <path d="M 320.794948 155.449518 
L 329.259988 163.968932 
L 327.96235 101.180505 
L 319.272347 93.120073 
z
" clip-path="url(#pca1688c965)" style="fill: #d36f46"/>
    <path d="M 310.689687 82.236482 
L 319.198479 90.096206 
L 340.261553 84.631785 
L 331.586593 76.89159 
z
" clip-path="url(#pca1688c965)" style="fill: #c2991e"/>
    <path d="M 428.592269 157.379499 
L 429.890171 104.426412 
L 439.810685 112.600686 
L 438.262972 165.941503 
z
" clip-path="url(#pca1688c965)" style="fill: #0f023c"/>
    <path d="M 329.259988 163.968932 
L 328.028124 104.363113 
L 349.200555 98.742168 
L 349.867646 158.046228 
z
" clip-path="url(#pca1688c965)" style="fill: #ac3671"/>
    <path d="M 329.259988 163.968932 
L 349.867646 158.046228 
L 349.164943 95.576356 
L 327.96235 101.180505 
z
" clip-path="url(#pca1688c965)" style="fill: #643421"/>
    <path d="M 349.867646 158.046228 
L 349.200555 98.742168 
L 358.246501 106.882674 
L 358.680986 166.62297 
z
" clip-path="url(#pca1688c965)" style="fill: #511a35"/>
    <path d="M 340.279737 85.835317 
L 349.144491 93.758148 
L 370.037742 88.249798 
L 361.010922 80.4478 
z
" clip-path="url(#pca1688c965)" style="fill: #c18129"/>
    <path d="M 349.867646 158.046228 
L 358.680986 166.62297 
L 358.228578 104.418343 
L 349.173045 96.296587 
z
" clip-path="url(#pca1688c965)" style="fill: #cc6150"/>
    <path d="M 337.912637 172.677159 
L 358.680986 166.62297 
L 367.69032 175.390445 
L 346.7592 181.580547 
z
" clip-path="url(#pca1688c965)" style="fill: #40015a"/>
    <path d="M 370.047992 93.321702 
L 379.25689 101.33782 
L 399.94263 95.76459 
L 390.576383 87.870869 
z
" clip-path="url(#pca1688c965)" style="fill: #942d64"/>
    <path d="M 358.680986 166.62297 
L 358.246828 106.927613 
L 379.257034 101.267514 
L 379.135235 160.660344 
z
" clip-path="url(#pca1688c965)" style="fill: #ab3572"/>
    <path d="M 358.680986 166.62297 
L 379.135235 160.660344 
L 379.262152 98.771496 
L 358.228578 104.418343 
z
" clip-path="url(#pca1688c965)" style="fill: #602e26"/>
    <path d="M 379.135235 160.660344 
L 388.301385 169.294995 
L 388.65939 111.964736 
L 379.251946 103.748444 
z
" clip-path="url(#pca1688c965)" style="fill: #7e0b91"/>
    <path d="M 379.135235 160.660344 
L 379.257034 101.267514 
L 388.675001 109.464823 
L 388.301385 169.294995 
z
" clip-path="url(#pca1688c965)" style="fill: #511936"/>
    <path d="M 399.901477 99.44386 
L 409.462202 107.543186 
L 429.951798 101.912071 
L 420.238293 93.936632 
z
" clip-path="url(#pca1688c965)" style="fill: #540081"/>
    <path d="M 388.301385 169.294995 
L 388.643191 114.558791 
L 409.442253 108.832565 
L 408.599679 163.292043 
z
" clip-path="url(#pca1688c965)" style="fill: #41028d"/>
    <path d="M 388.301385 169.294995 
L 408.599679 163.292043 
L 409.482177 106.252137 
L 388.65939 111.964736 
z
" clip-path="url(#pca1688c965)" style="fill: #3b0544"/>
    <path d="M 367.69032 175.390445 
L 388.301385 169.294995 
L 397.672073 178.122326 
L 376.90226 184.355088 
z
" clip-path="url(#pca1688c965)" style="fill: #4c0658"/>
    <path d="M 408.599679 163.292043 
L 418.123218 171.985192 
L 419.189421 118.37329 
L 409.423097 110.070745 
z
" clip-path="url(#pca1688c965)" style="fill: #200580"/>
    <path d="M 408.599679 163.292043 
L 409.442253 108.832565 
L 419.214232 117.125679 
L 418.123218 171.985192 
z
" clip-path="url(#pca1688c965)" style="fill: #1f0143"/>
    <path d="M 418.123218 171.985192 
L 438.262972 165.941503 
L 439.810685 112.600686 
L 419.189421 118.37329 
z
" clip-path="url(#pca1688c965)" style="fill: #0f023c"/>
    <path d="M 319.272347 93.120073 
L 327.96235 101.180505 
L 349.164943 95.576356 
L 340.306999 87.639701 
z
" clip-path="url(#pca1688c965)" style="fill: #b7603d"/>
    <path d="M 329.259988 163.968932 
L 337.912637 172.677159 
L 336.904371 112.631837 
L 328.028124 104.363113 
z
" clip-path="url(#pca1688c965)" style="fill: #ac3671"/>
    <path d="M 337.912637 172.677159 
L 336.961699 116.045869 
L 358.2712 110.278693 
L 358.680986 166.62297 
z
" clip-path="url(#pca1688c965)" style="fill: #6a0195"/>
    <path d="M 337.912637 172.677159 
L 358.680986 166.62297 
L 358.246501 106.882674 
L 336.904371 112.631837 
z
" clip-path="url(#pca1688c965)" style="fill: #511a35"/>
    <path d="M 358.680986 166.62297 
L 358.2712 110.278693 
L 367.510028 118.631264 
L 367.69032 175.390445 
z
" clip-path="url(#pca1688c965)" style="fill: #320146"/>
    <path d="M 349.173045 96.296587 
L 358.228578 104.418343 
L 379.262152 98.771496 
L 370.042845 90.774845 
z
" clip-path="url(#pca1688c965)" style="fill: #b15446"/>
    <path d="M 358.680986 166.62297 
L 367.69032 175.390445 
L 367.499302 115.254485 
L 358.246828 106.927613 
z
" clip-path="url(#pca1688c965)" style="fill: #ab3572"/>
    <path d="M 379.251946 103.748444 
L 388.65939 111.964736 
L 409.482177 106.252137 
L 399.915808 98.162562 
z
" clip-path="url(#pca1688c965)" style="fill: #6d097e"/>
    <path d="M 367.69032 175.390445 
L 367.507351 117.788361 
L 388.659262 111.985307 
L 388.301385 169.294995 
z
" clip-path="url(#pca1688c965)" style="fill: #7e0b91"/>
    <path d="M 346.7592 181.580547 
L 367.69032 175.390445 
L 376.90226 184.355088 
L 355.806272 190.685731 
z
" clip-path="url(#pca1688c965)" style="fill: #070448"/>
    <path d="M 367.69032 175.390445 
L 388.301385 169.294995 
L 388.675001 109.464823 
L 367.499302 115.254485 
z
" clip-path="url(#pca1688c965)" style="fill: #511936"/>
    <path d="M 388.301385 169.294995 
L 397.672073 178.122326 
L 398.254696 122.983143 
L 388.643191 114.558791 
z
" clip-path="url(#pca1688c965)" style="fill: #41028d"/>
    <path d="M 409.423097 110.070745 
L 419.189421 118.37329 
L 439.810685 112.600686 
L 429.890171 104.426412 
z
" clip-path="url(#pca1688c965)" style="fill: #1b046f"/>
    <path d="M 388.301385 169.294995 
L 388.659262 111.985307 
L 398.282097 120.389955 
L 397.672073 178.122326 
z
" clip-path="url(#pca1688c965)" style="fill: #3b0544"/>
    <path d="M 397.672073 178.122326 
L 418.123218 171.985192 
L 419.214232 117.125679 
L 398.254696 122.983143 
z
" clip-path="url(#pca1688c965)" style="fill: #1f0143"/>
    <path d="M 328.028124 104.363113 
L 336.904371 112.631837 
L 358.246501 106.882674 
L 349.200555 98.742168 
z
" clip-path="url(#pca1688c965)" style="fill: #952f62"/>
    <path d="M 337.912637 172.677159 
L 346.7592 181.580547 
L 346.029098 124.531307 
L 336.961699 116.045869 
z
" clip-path="url(#pca1688c965)" style="fill: #6a0195"/>
    <path d="M 346.7592 181.580547 
L 346.074521 128.080583 
L 367.521243 122.161826 
L 367.69032 175.390445 
z
" clip-path="url(#pca1688c965)" style="fill: #0b0777"/>
    <path d="M 346.7592 181.580547 
L 367.69032 175.390445 
L 367.510028 118.631264 
L 346.029098 124.531307 
z
" clip-path="url(#pca1688c965)" style="fill: #320146"/>
    <path d="M 358.246828 106.927613 
L 367.499302 115.254485 
L 388.675001 109.464823 
L 379.257034 101.267514 
z
" clip-path="url(#pca1688c965)" style="fill: #952e63"/>
    <path d="M 367.69032 175.390445 
L 367.521243 122.161826 
L 376.958364 130.734228 
L 376.90226 184.355088 
z
" clip-path="url(#pca1688c965)" style="fill: #050338"/>
    <path d="M 367.69032 175.390445 
L 376.90226 184.355088 
L 376.962975 126.327229 
L 367.507351 117.788361 
z
" clip-path="url(#pca1688c965)" style="fill: #7e0b91"/>
    <path d="M 388.643191 114.558791 
L 398.254696 122.983143 
L 419.214232 117.125679 
L 409.442253 108.832565 
z
" clip-path="url(#pca1688c965)" style="fill: #38027b"/>
    <path d="M 376.90226 184.355088 
L 397.672073 178.122326 
L 398.282097 120.389955 
L 376.962975 126.327229 
z
" clip-path="url(#pca1688c965)" style="fill: #3b0544"/>
    <path d="M 336.961699 116.045869 
L 346.029098 124.531307 
L 367.510028 118.631264 
L 358.2712 110.278693 
z
" clip-path="url(#pca1688c965)" style="fill: #5c0181"/>
    <path d="M 346.7592 181.580547 
L 355.806272 190.685731 
L 355.3385 136.790712 
L 346.074521 128.080583 
z
" clip-path="url(#pca1688c965)" style="fill: #0b0777"/>
    <path d="M 355.806272 190.685731 
L 376.90226 184.355088 
L 376.958364 130.734228 
L 355.3385 136.790712 
z
" clip-path="url(#pca1688c965)" style="fill: #050338"/>
    <path d="M 367.507351 117.788361 
L 376.962975 126.327229 
L 398.282097 120.389955 
L 388.659262 111.985307 
z
" clip-path="url(#pca1688c965)" style="fill: #6d097e"/>
    <path d="M 346.074521 128.080583 
L 355.3385 136.790712 
L 376.958364 130.734228 
L 367.521243 122.161826 
z
" clip-path="url(#pca1688c965)" style="fill: #0a0667"/>
   </g>
  </g>
 </g>
 <defs>
  <clipPath id="p067c90f652">
   <rect x="7.2" y="7.2" width="238.79952" height="238.79952"/>
  </clipPath>
  <clipPath id="pca1688c965">
   <rect x="252" y="7.2" width="238.79952" height="238.79952"/>
  </clipPath>
 </defs>
</svg>
