<?xml version="1.0" encoding="utf-8" standalone="no"?>
<!DOCTYPE svg PUBLIC "-//W3C//DTD SVG 1.1//EN"
  "http://www.w3.org/Graphics/SVG/1.1/DTD/svg11.dtd">
<svg xmlns:xlink="http://www.w3.org/1999/xlink" width="253.19952pt" height="238.79952pt" viewBox="0 0 253.19952 238.79952" xmlns="http://www.w3.org/2000/svg" version="1.1">
 <metadata>
  <rdf:RDF xmlns:dc="http://purl.org/dc/elements/1.1/" xmlns:cc="http://creativecommons.org/ns#" xmlns:rdf="http://www.w3.org/1999/02/22-rdf-syntax-ns#">
   <cc:Work>
    <dc:type rdf:resource="http://purl.org/dc/dcmitype/StillImage"/>
    <dc:date>1980-01-01T00:00:00+00:00</dc:date>
    <dc:format>image/svg+xml</dc:format>
    <dc:creator>
     <cc:Agent>
      <dc:title>Matplotlib v3.6.2, https://matplotlib.org/</dc:title>
     </cc:Agent>
    </dc:creator>
   </cc:Work>
  </rdf:RDF>
 </metadata>
 <defs>
  <style type="text/css">*{stroke-linejoin: round; stroke-linecap: butt}</style>
 </defs>
 <g id="figure_1">
  <g id="patch_1">
   <path d="M 0 238.79952 
L 253.19952 238.79952 
L 253.19952 0 
L 0 0 
z
" style="fill: #ffffff"/>
  </g>
  <g id="axes_1">
   <g id="patch_2">
    <path d="M 33.707196 202.559296 
L 245.99952 202.559296 
L 245.99952 7.2 
L 33.707196 7.2 
z
" style="fill: #ffffff"/>
   </g>
   <g id="matplotlib.axis_1">
    <g id="xtick_1">
     <g id="line2d_1">
      <defs>
       <path id="md0b9b374bb" d="M 0 0 
L 0 3.5 
" style="stroke: #000000; stroke-width: 0.8"/>
      </defs>
      <g>
       <use xlink:href="#md0b9b374bb" x="43.356847" y="202.559296" style="stroke: #000000; stroke-width: 0.8"/>
      </g>
     </g>
     <g id="text_1">
      <!-- $\mathdefault{0}$ -->
      <g transform="translate(41.239756 217.194098) scale(0.08 -0.08)">
       <defs>
        <path id="CMR17-30" d="M 2688 2025 
C 2688 2416 2682 3080 2413 3591 
C 2176 4039 1798 4198 1466 4198 
C 1158 4198 768 4058 525 3597 
C 269 3118 243 2524 243 2025 
C 243 1661 250 1106 448 619 
C 723 -39 1216 -128 1466 -128 
C 1760 -128 2208 -7 2470 600 
C 2662 1042 2688 1559 2688 2025 
z
M 1466 -26 
C 1056 -26 813 325 723 812 
C 653 1188 653 1738 653 2096 
C 653 2588 653 2997 736 3387 
C 858 3929 1216 4096 1466 4096 
C 1728 4096 2067 3923 2189 3400 
C 2272 3036 2278 2607 2278 2096 
C 2278 1680 2278 1169 2202 792 
C 2067 95 1690 -26 1466 -26 
z
" transform="scale(0.015625)"/>
       </defs>
       <use xlink:href="#CMR17-30" transform="scale(0.996264)"/>
      </g>
     </g>
    </g>
    <g id="xtick_2">
     <g id="line2d_2">
      <g>
       <use xlink:href="#md0b9b374bb" x="70.161434" y="202.559296" style="stroke: #000000; stroke-width: 0.8"/>
      </g>
     </g>
     <g id="text_2">
      <!-- $\mathdefault{25}$ -->
      <g transform="translate(65.927251 217.194098) scale(0.08 -0.08)">
       <defs>
        <path id="CMR17-32" d="M 2669 989 
L 2554 989 
C 2490 536 2438 459 2413 420 
C 2381 369 1920 369 1830 369 
L 602 369 
C 832 619 1280 1072 1824 1597 
C 2214 1967 2669 2402 2669 3035 
C 2669 3790 2067 4224 1395 4224 
C 691 4224 262 3604 262 3030 
C 262 2780 448 2748 525 2748 
C 589 2748 781 2787 781 3010 
C 781 3207 614 3264 525 3264 
C 486 3264 448 3258 422 3245 
C 544 3790 915 4058 1306 4058 
C 1862 4058 2227 3617 2227 3035 
C 2227 2479 1901 2000 1536 1584 
L 262 146 
L 262 0 
L 2515 0 
L 2669 989 
z
" transform="scale(0.015625)"/>
        <path id="CMR17-35" d="M 730 3692 
C 794 3666 1056 3584 1325 3584 
C 1920 3584 2246 3911 2432 4100 
C 2432 4157 2432 4192 2394 4192 
C 2387 4192 2374 4192 2323 4163 
C 2099 4058 1837 3973 1517 3973 
C 1325 3973 1037 3999 723 4139 
C 653 4171 640 4171 634 4171 
C 602 4171 595 4164 595 4037 
L 595 2203 
C 595 2089 595 2057 659 2057 
C 691 2057 704 2070 736 2114 
C 941 2401 1222 2522 1542 2522 
C 1766 2522 2246 2382 2246 1289 
C 2246 1085 2246 715 2054 421 
C 1894 159 1645 25 1370 25 
C 947 25 518 320 403 814 
C 429 807 480 795 506 795 
C 589 795 749 840 749 1038 
C 749 1210 627 1280 506 1280 
C 358 1280 262 1190 262 1011 
C 262 454 704 -128 1382 -128 
C 2042 -128 2669 440 2669 1264 
C 2669 2030 2170 2624 1549 2624 
C 1222 2624 947 2503 730 2274 
L 730 3692 
z
" transform="scale(0.015625)"/>
       </defs>
       <use xlink:href="#CMR17-32" transform="scale(0.996264)"/>
       <use xlink:href="#CMR17-35" transform="translate(45.690477 0) scale(0.996264)"/>
      </g>
     </g>
    </g>
    <g id="xtick_3">
     <g id="line2d_3">
      <g>
       <use xlink:href="#md0b9b374bb" x="96.96602" y="202.559296" style="stroke: #000000; stroke-width: 0.8"/>
      </g>
     </g>
     <g id="text_3">
      <!-- $\mathdefault{50}$ -->
      <g transform="translate(92.731837 217.194098) scale(0.08 -0.08)">
       <use xlink:href="#CMR17-35" transform="scale(0.996264)"/>
       <use xlink:href="#CMR17-30" transform="translate(45.690477 0) scale(0.996264)"/>
      </g>
     </g>
    </g>
    <g id="xtick_4">
     <g id="line2d_4">
      <g>
       <use xlink:href="#md0b9b374bb" x="123.770606" y="202.559296" style="stroke: #000000; stroke-width: 0.8"/>
      </g>
     </g>
     <g id="text_4">
      <!-- $\mathdefault{75}$ -->
      <g transform="translate(119.536423 217.194098) scale(0.08 -0.08)">
       <defs>
        <path id="CMR17-37" d="M 2886 3941 
L 2886 4081 
L 1382 4081 
C 634 4081 621 4165 595 4288 
L 480 4288 
L 294 3094 
L 410 3094 
C 429 3215 474 3540 550 3661 
C 589 3712 1062 3712 1171 3712 
L 2579 3712 
L 1869 2661 
C 1395 1954 1069 999 1069 165 
C 1069 89 1069 -128 1299 -128 
C 1530 -128 1530 89 1530 171 
L 1530 465 
C 1530 1508 1709 2196 2003 2636 
L 2886 3941 
z
" transform="scale(0.015625)"/>
       </defs>
       <use xlink:href="#CMR17-37" transform="scale(0.996264)"/>
       <use xlink:href="#CMR17-35" transform="translate(45.690477 0) scale(0.996264)"/>
      </g>
     </g>
    </g>
    <g id="xtick_5">
     <g id="line2d_5">
      <g>
       <use xlink:href="#md0b9b374bb" x="150.575193" y="202.559296" style="stroke: #000000; stroke-width: 0.8"/>
      </g>
     </g>
     <g id="text_5">
      <!-- $\mathdefault{100}$ -->
      <g transform="translate(144.223918 217.194098) scale(0.08 -0.08)">
       <defs>
        <path id="CMR17-31" d="M 1702 4058 
C 1702 4192 1696 4192 1606 4192 
C 1357 3916 979 3827 621 3827 
C 602 3827 570 3827 563 3808 
C 557 3795 557 3782 557 3648 
C 755 3648 1088 3686 1344 3839 
L 1344 461 
C 1344 236 1331 160 781 160 
L 589 160 
L 589 0 
C 896 0 1216 0 1523 0 
C 1830 0 2150 0 2458 0 
L 2458 160 
L 2266 160 
C 1715 160 1702 230 1702 458 
L 1702 4058 
z
" transform="scale(0.015625)"/>
       </defs>
       <use xlink:href="#CMR17-31" transform="scale(0.996264)"/>
       <use xlink:href="#CMR17-30" transform="translate(45.690477 0) scale(0.996264)"/>
       <use xlink:href="#CMR17-30" transform="translate(91.380954 0) scale(0.996264)"/>
      </g>
     </g>
    </g>
    <g id="xtick_6">
     <g id="line2d_6">
      <g>
       <use xlink:href="#md0b9b374bb" x="177.379779" y="202.559296" style="stroke: #000000; stroke-width: 0.8"/>
      </g>
     </g>
     <g id="text_6">
      <!-- $\mathdefault{125}$ -->
      <g transform="translate(171.028505 217.194098) scale(0.08 -0.08)">
       <use xlink:href="#CMR17-31" transform="scale(0.996264)"/>
       <use xlink:href="#CMR17-32" transform="translate(45.690477 0) scale(0.996264)"/>
       <use xlink:href="#CMR17-35" transform="translate(91.380954 0) scale(0.996264)"/>
      </g>
     </g>
    </g>
    <g id="xtick_7">
     <g id="line2d_7">
      <g>
       <use xlink:href="#md0b9b374bb" x="204.184365" y="202.559296" style="stroke: #000000; stroke-width: 0.8"/>
      </g>
     </g>
     <g id="text_7">
      <!-- $\mathdefault{150}$ -->
      <g transform="translate(197.833091 217.194098) scale(0.08 -0.08)">
       <use xlink:href="#CMR17-31" transform="scale(0.996264)"/>
       <use xlink:href="#CMR17-35" transform="translate(45.690477 0) scale(0.996264)"/>
       <use xlink:href="#CMR17-30" transform="translate(91.380954 0) scale(0.996264)"/>
      </g>
     </g>
    </g>
    <g id="xtick_8">
     <g id="line2d_8">
      <g>
       <use xlink:href="#md0b9b374bb" x="230.988952" y="202.559296" style="stroke: #000000; stroke-width: 0.8"/>
      </g>
     </g>
     <g id="text_8">
      <!-- $\mathdefault{175}$ -->
      <g transform="translate(224.637677 217.194098) scale(0.08 -0.08)">
       <use xlink:href="#CMR17-31" transform="scale(0.996264)"/>
       <use xlink:href="#CMR17-37" transform="translate(45.690477 0) scale(0.996264)"/>
       <use xlink:href="#CMR17-35" transform="translate(91.380954 0) scale(0.996264)"/>
      </g>
     </g>
    </g>
    <g id="text_9">
     <!-- $\tau$ -->
     <g transform="translate(137.675756 229.662342) scale(0.1 -0.1)">
      <defs>
       <path id="CMMI12-1c" d="M 1837 2408 
L 2899 2408 
C 2982 2408 3194 2408 3194 2612 
C 3194 2752 3072 2752 2957 2752 
L 1197 2752 
C 1050 2752 832 2752 538 2440 
C 371 2255 166 1917 166 1879 
C 166 1841 198 1828 237 1828 
C 282 1828 288 1847 320 1885 
C 653 2408 986 2408 1146 2408 
L 1677 2408 
L 1011 223 
C 979 127 979 114 979 95 
C 979 25 1024 -64 1152 -64 
C 1350 -64 1382 108 1402 203 
L 1837 2408 
z
" transform="scale(0.015625)"/>
      </defs>
      <use xlink:href="#CMMI12-1c" transform="scale(0.996264)"/>
     </g>
    </g>
   </g>
   <g id="matplotlib.axis_2">
    <g id="ytick_1">
     <g id="line2d_9">
      <defs>
       <path id="mce2ca9903f" d="M 0 0 
L -3.5 0 
" style="stroke: #000000; stroke-width: 0.8"/>
      </defs>
      <g>
       <use xlink:href="#mce2ca9903f" x="33.707196" y="193.679328" style="stroke: #000000; stroke-width: 0.8"/>
      </g>
     </g>
     <g id="text_10">
      <!-- $\mathdefault{−1.0}$ -->
      <g transform="translate(7.2 196.446729) scale(0.08 -0.08)">
       <defs>
        <path id="CMSY10-0" d="M 4218 1472 
C 4326 1472 4442 1472 4442 1600 
C 4442 1728 4326 1728 4218 1728 
L 755 1728 
C 646 1728 531 1728 531 1600 
C 531 1472 646 1472 755 1472 
L 4218 1472 
z
" transform="scale(0.015625)"/>
        <path id="CMMI12-3a" d="M 1178 307 
C 1178 492 1024 619 870 619 
C 685 619 557 466 557 313 
C 557 128 710 0 864 0 
C 1050 0 1178 153 1178 307 
z
" transform="scale(0.015625)"/>
       </defs>
       <use xlink:href="#CMSY10-0" transform="scale(0.996264)"/>
       <use xlink:href="#CMR17-31" transform="translate(77.487468 0) scale(0.996264)"/>
       <use xlink:href="#CMMI12-3a" transform="translate(123.177945 0) scale(0.996264)"/>
       <use xlink:href="#CMR17-30" transform="translate(150.275122 0) scale(0.996264)"/>
      </g>
     </g>
    </g>
    <g id="ytick_2">
     <g id="line2d_10">
      <g>
       <use xlink:href="#mce2ca9903f" x="33.707196" y="158.448286" style="stroke: #000000; stroke-width: 0.8"/>
      </g>
     </g>
     <g id="text_11">
      <!-- $\mathdefault{−0.8}$ -->
      <g transform="translate(7.2 161.215687) scale(0.08 -0.08)">
       <defs>
        <path id="CMR17-38" d="M 1741 2264 
C 2144 2467 2554 2773 2554 3263 
C 2554 3841 1990 4179 1472 4179 
C 890 4179 378 3759 378 3180 
C 378 3021 416 2747 666 2505 
C 730 2442 998 2251 1171 2130 
C 883 1983 211 1634 211 934 
C 211 279 838 -128 1459 -128 
C 2144 -128 2720 362 2720 1010 
C 2720 1590 2330 1857 2074 2029 
L 1741 2264 
z
M 902 2822 
C 851 2854 595 3051 595 3351 
C 595 3739 998 4032 1459 4032 
C 1965 4032 2336 3676 2336 3262 
C 2336 2669 1670 2331 1638 2331 
C 1632 2331 1626 2331 1574 2370 
L 902 2822 
z
M 2080 1519 
C 2176 1449 2483 1240 2483 851 
C 2483 381 2010 25 1472 25 
C 890 25 448 438 448 940 
C 448 1443 838 1862 1280 2060 
L 2080 1519 
z
" transform="scale(0.015625)"/>
       </defs>
       <use xlink:href="#CMSY10-0" transform="scale(0.996264)"/>
       <use xlink:href="#CMR17-30" transform="translate(77.487468 0) scale(0.996264)"/>
       <use xlink:href="#CMMI12-3a" transform="translate(123.177945 0) scale(0.996264)"/>
       <use xlink:href="#CMR17-38" transform="translate(150.275122 0) scale(0.996264)"/>
      </g>
     </g>
    </g>
    <g id="ytick_3">
     <g id="line2d_11">
      <g>
       <use xlink:href="#mce2ca9903f" x="33.707196" y="123.217244" style="stroke: #000000; stroke-width: 0.8"/>
      </g>
     </g>
     <g id="text_12">
      <!-- $\mathdefault{−0.6}$ -->
      <g transform="translate(7.2 125.984645) scale(0.08 -0.08)">
       <defs>
        <path id="CMR17-36" d="M 678 2176 
C 678 3690 1395 4032 1811 4032 
C 1946 4032 2272 4009 2400 3776 
C 2298 3776 2106 3776 2106 3553 
C 2106 3381 2246 3323 2336 3323 
C 2394 3323 2566 3348 2566 3560 
C 2566 3954 2246 4179 1805 4179 
C 1043 4179 243 3390 243 1984 
C 243 253 966 -128 1478 -128 
C 2099 -128 2688 427 2688 1283 
C 2688 2081 2170 2662 1517 2662 
C 1126 2662 838 2407 678 1960 
L 678 2176 
z
M 1478 25 
C 691 25 691 1200 691 1436 
C 691 1896 909 2560 1504 2560 
C 1613 2560 1926 2560 2138 2120 
C 2253 1870 2253 1609 2253 1289 
C 2253 944 2253 690 2118 434 
C 1978 171 1773 25 1478 25 
z
" transform="scale(0.015625)"/>
       </defs>
       <use xlink:href="#CMSY10-0" transform="scale(0.996264)"/>
       <use xlink:href="#CMR17-30" transform="translate(77.487468 0) scale(0.996264)"/>
       <use xlink:href="#CMMI12-3a" transform="translate(123.177945 0) scale(0.996264)"/>
       <use xlink:href="#CMR17-36" transform="translate(150.275122 0) scale(0.996264)"/>
      </g>
     </g>
    </g>
    <g id="ytick_4">
     <g id="line2d_12">
      <g>
       <use xlink:href="#mce2ca9903f" x="33.707196" y="87.986202" style="stroke: #000000; stroke-width: 0.8"/>
      </g>
     </g>
     <g id="text_13">
      <!-- $\mathdefault{−0.4}$ -->
      <g transform="translate(7.2 90.753603) scale(0.08 -0.08)">
       <defs>
        <path id="CMR17-34" d="M 2150 4122 
C 2150 4256 2144 4256 2029 4256 
L 128 1254 
L 128 1088 
L 1779 1088 
L 1779 457 
C 1779 224 1766 160 1318 160 
L 1197 160 
L 1197 0 
C 1402 0 1747 0 1965 0 
C 2182 0 2528 0 2733 0 
L 2733 160 
L 2611 160 
C 2163 160 2150 224 2150 457 
L 2150 1088 
L 2803 1088 
L 2803 1254 
L 2150 1254 
L 2150 4122 
z
M 1798 3703 
L 1798 1254 
L 256 1254 
L 1798 3703 
z
" transform="scale(0.015625)"/>
       </defs>
       <use xlink:href="#CMSY10-0" transform="scale(0.996264)"/>
       <use xlink:href="#CMR17-30" transform="translate(77.487468 0) scale(0.996264)"/>
       <use xlink:href="#CMMI12-3a" transform="translate(123.177945 0) scale(0.996264)"/>
       <use xlink:href="#CMR17-34" transform="translate(150.275122 0) scale(0.996264)"/>
      </g>
     </g>
    </g>
    <g id="ytick_5">
     <g id="line2d_13">
      <g>
       <use xlink:href="#mce2ca9903f" x="33.707196" y="52.75516" style="stroke: #000000; stroke-width: 0.8"/>
      </g>
     </g>
     <g id="text_14">
      <!-- $\mathdefault{−0.2}$ -->
      <g transform="translate(7.2 55.522561) scale(0.08 -0.08)">
       <use xlink:href="#CMSY10-0" transform="scale(0.996264)"/>
       <use xlink:href="#CMR17-30" transform="translate(77.487468 0) scale(0.996264)"/>
       <use xlink:href="#CMMI12-3a" transform="translate(123.177945 0) scale(0.996264)"/>
       <use xlink:href="#CMR17-32" transform="translate(150.275122 0) scale(0.996264)"/>
      </g>
     </g>
    </g>
    <g id="ytick_6">
     <g id="line2d_14">
      <g>
       <use xlink:href="#mce2ca9903f" x="33.707196" y="17.524118" style="stroke: #000000; stroke-width: 0.8"/>
      </g>
     </g>
     <g id="text_15">
      <!-- $\mathdefault{0.0}$ -->
      <g transform="translate(13.786507 20.291519) scale(0.08 -0.08)">
       <use xlink:href="#CMR17-30" transform="scale(0.996264)"/>
       <use xlink:href="#CMMI12-3a" transform="translate(45.690477 0) scale(0.996264)"/>
       <use xlink:href="#CMR17-30" transform="translate(72.787654 0) scale(0.996264)"/>
      </g>
     </g>
    </g>
   </g>
   <g id="line2d_15">
    <path d="M 43.356847 193.679328 
L 52.363188 193.589595 
L 52.620512 193.352055 
L 52.877836 192.740603 
L 53.13516 191.431824 
L 53.456815 188.192414 
L 53.842801 181.050319 
L 54.42178 164.533732 
L 55.129422 146.345486 
L 57.123683 108.866155 
L 57.895655 100.405946 
L 58.538965 96.496885 
L 60.468895 86.941685 
L 61.562522 83.254063 
L 62.977804 79.45917 
L 63.428121 78.092876 
L 63.878439 76.869772 
L 64.264425 76.437333 
L 64.58608 75.95022 
L 64.907735 74.917147 
L 65.358052 73.606735 
L 65.679707 73.252345 
L 66.001362 72.946279 
L 66.387348 72.11196 
L 66.837665 71.072235 
L 67.094989 71.008385 
L 67.352313 70.904332 
L 67.866961 70.193411 
L 68.638933 68.855012 
L 69.153581 68.984587 
L 69.475236 69.156003 
L 69.796891 69.688511 
L 70.182877 70.983811 
L 70.761856 73.829575 
L 71.533828 78.503091 
L 72.627456 87.343678 
L 73.335097 92.129957 
L 73.785414 93.887386 
L 74.1714 94.635978 
L 74.557386 94.917822 
L 75.136365 94.981061 
L 85.172002 94.917013 
L 85.622319 94.695607 
L 86.008305 94.255179 
L 86.394291 93.466528 
L 86.844608 92.004831 
L 87.487918 89.032737 
L 88.25989 85.565964 
L 88.581545 84.837101 
L 88.838869 84.705194 
L 89.031862 84.858986 
L 89.353517 85.517079 
L 89.803834 87.068197 
L 90.640138 90.97404 
L 92.69873 100.850539 
L 93.792357 104.870657 
L 94.757322 107.604655 
L 96.751583 112.605776 
L 97.780879 114.670831 
L 98.552851 115.734724 
L 100.35412 117.654297 
L 101.190423 118.342104 
L 101.576409 119.112724 
L 102.026726 120.606964 
L 102.541374 123.136594 
L 103.249015 127.840969 
L 105.178945 141.465845 
L 105.693593 143.378885 
L 106.14391 144.291728 
L 106.529896 144.6504 
L 107.044544 144.789944 
L 108.845813 144.801705 
L 116.758526 144.708739 
L 117.015851 144.469886 
L 117.273175 143.899737 
L 117.530499 142.764799 
L 117.852154 140.144492 
L 118.23814 134.725387 
L 118.945781 120.214067 
L 119.52476 110.773893 
L 120.361063 98.616855 
L 121.133035 87.847981 
L 121.519021 84.881775 
L 122.162331 80.716494 
L 122.676979 77.715117 
L 123.062965 76.480821 
L 123.641944 75.411182 
L 125.057226 71.838522 
L 125.571874 70.924148 
L 126.343847 69.481927 
L 126.665502 69.412866 
L 127.437474 68.471062 
L 128.016453 68.204278 
L 128.402439 67.30364 
L 128.852756 66.355338 
L 129.11008 66.163034 
L 129.431735 66.304618 
L 129.689059 66.340592 
L 129.946383 66.155101 
L 130.718355 64.994837 
L 131.618989 64.972602 
L 131.811982 64.70903 
L 132.583954 63.321117 
L 132.841278 63.33863 
L 133.162933 63.742223 
L 134.063567 65.215853 
L 134.513884 66.949798 
L 135.607512 72.299006 
L 136.443815 79.162551 
L 137.473111 86.801158 
L 137.987759 89.216172 
L 138.373745 90.151566 
L 138.759731 90.541469 
L 139.210048 90.651443 
L 141.590295 90.658476 
L 149.696002 90.555405 
L 150.146319 90.27599 
L 150.532305 89.764902 
L 150.982622 88.725808 
L 151.561601 86.660896 
L 152.655229 82.514122 
L 152.976884 82.035677 
L 153.169877 82.014482 
L 153.427201 82.291199 
L 153.748856 83.078812 
L 154.263504 85.122465 
L 155.2928 90.457475 
L 157.287061 101.001129 
L 158.123364 103.877841 
L 160.825266 112.067637 
L 161.66157 113.538064 
L 163.977486 116.756415 
L 164.620796 117.141993 
L 165.264106 117.592711 
L 165.714423 118.193374 
L 166.100409 119.061099 
L 166.550726 120.701878 
L 167.065374 123.542091 
L 167.901677 129.73602 
L 169.123966 138.697297 
L 169.767276 141.863489 
L 170.217593 143.163805 
L 170.667911 143.819243 
L 171.118228 144.058049 
L 171.825869 144.109869 
L 181.089534 144.008782 
L 181.346858 143.780637 
L 181.604182 143.243959 
L 181.861506 142.167739 
L 182.183161 139.634841 
L 182.569147 134.25901 
L 183.212457 120.856031 
L 183.791436 110.794621 
L 184.949394 94.419293 
L 185.528373 87.082286 
L 185.97869 84.109154 
L 187.136648 77.280769 
L 189.13091 72.534775 
L 189.902882 71.499576 
L 190.353199 70.845686 
L 190.610523 70.615461 
L 190.932178 69.890032 
L 191.70415 67.972538 
L 191.961474 68.379815 
L 192.154467 68.501146 
L 192.34746 68.149467 
L 192.733446 67.446942 
L 193.441087 67.024092 
L 193.891404 66.289147 
L 194.470383 66.169895 
L 195.757003 64.489162 
L 195.949996 64.517466 
L 196.20732 64.576661 
L 196.464644 64.189854 
L 196.721968 63.931191 
L 197.236617 63.901214 
L 197.493941 63.776753 
L 197.686934 63.938267 
L 198.330244 65.023852 
L 198.71623 66.215666 
L 199.552533 70.005239 
L 200.131512 74.102665 
L 201.868449 86.939611 
L 202.383097 89.175222 
L 202.769083 90.007376 
L 203.155069 90.334382 
L 203.669717 90.419148 
L 209.781163 90.421581 
L 213.898347 90.313502 
L 214.348664 90.078529 
L 214.73465 89.647318 
L 215.184968 88.757326 
L 215.699616 87.146824 
L 217.114898 82.112717 
L 217.372222 81.932422 
L 217.565215 82.038564 
L 217.822539 82.47702 
L 218.272856 83.842484 
L 218.980497 86.873595 
L 220.138455 93.082244 
L 221.360744 99.504329 
L 222.325709 103.482658 
L 223.67666 108.135202 
L 224.705957 110.738273 
L 225.477929 112.152896 
L 226.957542 114.687794 
L 228.1155 116.846435 
L 228.630148 117.297339 
L 230.04543 118.119267 
L 230.431416 118.883671 
L 230.817402 120.196967 
L 231.33205 122.869717 
L 232.039691 127.894538 
L 233.712298 140.279484 
L 234.226946 142.478867 
L 234.677263 143.578549 
L 235.063249 144.038137 
L 235.513566 144.230393 
L 236.349869 144.26548 
L 236.349869 144.26548 
" clip-path="url(#pd77ea4a621)" style="fill: none; stroke: #ff7f0e; stroke-width: 0.5; stroke-linecap: square"/>
   </g>
   <g id="line2d_16">
    <path d="M 43.356847 17.524118 
L 53.907132 17.63015 
L 55.065091 17.86016 
L 55.965725 18.070153 
L 56.737697 18.178131 
L 57.381007 18.566202 
L 57.895655 18.698318 
L 58.345972 18.866424 
L 58.603296 18.710788 
L 59.182275 18.252308 
L 59.954247 18.175199 
L 60.79055 17.671681 
L 61.112205 17.940984 
L 61.755515 18.558547 
L 62.012839 18.408823 
L 63.235128 17.264577 
L 63.556784 17.318913 
L 63.94277 17.657041 
L 64.328756 17.964165 
L 64.521749 17.907004 
L 64.843404 17.446163 
L 65.22939 17.04123 
L 65.486714 17.056891 
L 66.837665 17.55675 
L 67.287982 17.545719 
L 67.80263 17.593509 
L 68.960588 17.177511 
L 69.475236 16.950897 
L 69.861222 17.071291 
L 70.311539 17.443285 
L 71.212173 18.318975 
L 71.533828 18.274989 
L 72.177138 17.821741 
L 72.691787 17.616592 
L 73.270766 17.622865 
L 74.300062 17.682725 
L 75.329358 17.41328 
L 75.972668 17.370265 
L 76.808971 17.579819 
L 77.580943 17.6868 
L 78.417246 17.524342 
L 79.446542 17.359383 
L 80.411507 17.465005 
L 82.212776 17.688599 
L 83.499396 17.592642 
L 86.008305 17.349539 
L 87.61658 17.186956 
L 89.353517 16.990363 
L 89.803834 17.15068 
L 91.090455 17.824682 
L 91.669434 17.823903 
L 93.728026 17.529694 
L 94.307005 17.674143 
L 97.073238 18.681448 
L 97.523555 18.497619 
L 98.424189 17.784186 
L 99.131831 17.328792 
L 99.71081 17.217902 
L 101.64074 17.118002 
L 102.670036 16.888854 
L 103.57067 16.838069 
L 104.471304 17.04612 
L 105.371938 17.512324 
L 106.529896 18.076682 
L 107.173206 18.160866 
L 107.816516 18.022276 
L 108.717151 17.555912 
L 109.93944 16.934935 
L 110.518419 16.905967 
L 111.033067 17.120586 
L 111.805039 17.757322 
L 112.384018 18.131078 
L 112.770004 18.132524 
L 113.15599 17.889323 
L 114.378279 16.885515 
L 114.699934 17.001547 
L 115.150251 17.448052 
L 115.857892 18.119636 
L 116.179547 18.147175 
L 116.565533 17.902922 
L 117.59483 17.021955 
L 117.916485 17.105961 
L 118.302471 17.471375 
L 119.010112 18.1626 
L 119.267436 18.139007 
L 119.589091 17.881935 
L 120.296732 17.173488 
L 120.489725 17.25191 
L 120.747049 17.636597 
L 121.390359 18.84617 
L 121.583352 18.829404 
L 121.905007 18.471291 
L 122.869972 17.293135 
L 123.38462 17.346157 
L 124.606909 17.468549 
L 125.829199 17.228243 
L 126.279516 17.007191 
L 126.601171 17.142041 
L 127.051488 17.333571 
L 127.373143 17.198103 
L 127.887791 16.998139 
L 128.338108 17.173802 
L 129.367404 17.63614 
L 129.817721 17.684435 
L 131.04001 17.403663 
L 131.554658 16.950607 
L 132.004975 16.651003 
L 132.262299 16.680747 
L 132.583954 17.02046 
L 132.96994 17.345124 
L 133.227264 17.289529 
L 133.999236 16.925771 
L 134.771209 17.105212 
L 135.736174 17.156692 
L 136.701139 17.256075 
L 138.438076 17.396093 
L 139.403041 17.792499 
L 139.917689 17.723227 
L 141.397302 17.267058 
L 142.040612 17.503476 
L 142.876915 17.789144 
L 143.455894 17.746455 
L 145.836142 17.267493 
L 146.9941 17.497084 
L 148.602375 17.793703 
L 149.56734 17.724088 
L 150.725298 17.402166 
L 152.976884 16.71098 
L 153.620194 16.838737 
L 154.842483 17.434648 
L 155.678786 17.668543 
L 156.129103 17.55613 
L 157.801709 16.789282 
L 158.380688 16.957478 
L 159.860301 17.563562 
L 160.310618 17.322874 
L 161.983225 16.079968 
L 162.369211 16.192203 
L 162.819528 16.589007 
L 164.427803 18.273456 
L 164.942451 18.446827 
L 165.457099 18.391109 
L 166.422064 17.981936 
L 167.45136 17.661951 
L 168.480656 17.546438 
L 171.311221 17.551007 
L 176.071715 17.557194 
L 178.065976 17.489211 
L 182.440485 17.518334 
L 185.850028 18.101833 
L 186.236014 18.1391 
L 186.814993 18.153147 
L 187.329641 18.364554 
L 187.715627 18.133726 
L 188.037282 18.072033 
L 188.551931 18.083315 
L 188.937917 17.875235 
L 189.323903 17.357313 
L 189.838551 16.617052 
L 190.031544 16.652267 
L 190.41753 17.124733 
L 190.739185 17.377637 
L 190.996509 17.288677 
L 191.639819 16.837677 
L 192.090136 16.979246 
L 192.540453 17.062249 
L 192.99077 17.109575 
L 193.312425 17.499597 
L 193.955735 18.444487 
L 194.534714 18.676481 
L 194.792038 18.523699 
L 195.628341 17.61714 
L 195.949996 17.790134 
L 196.464644 18.142329 
L 196.721968 18.024384 
L 197.42961 17.433352 
L 198.137251 17.308852 
L 198.458906 17.25577 
L 199.552533 17.544566 
L 199.874188 17.379404 
L 200.260174 16.807061 
L 200.710491 16.160485 
L 200.967815 16.10212 
L 201.225139 16.320917 
L 201.611125 17.044546 
L 202.383097 18.561592 
L 202.640421 18.692921 
L 202.897745 18.551453 
L 203.2194 18.049723 
L 204.120034 16.412124 
L 204.377358 16.34908 
L 204.634682 16.551477 
L 205.020668 17.236607 
L 205.728309 18.554507 
L 206.049965 18.706602 
L 206.307289 18.555651 
L 206.693275 17.980596 
L 207.593909 16.50238 
L 207.915564 16.341528 
L 208.237219 16.427445 
L 208.687536 16.859987 
L 210.167149 18.557156 
L 210.617466 18.706065 
L 211.067783 18.63251 
L 211.582431 18.312217 
L 212.418734 17.462188 
L 213.383699 16.560472 
L 213.898347 16.360228 
L 214.348664 16.414696 
L 214.863313 16.729825 
L 215.570954 17.468894 
L 216.60025 18.501745 
L 217.050567 18.646504 
L 217.436553 18.542189 
L 217.951201 18.16027 
L 219.559476 16.720159 
L 219.945462 16.73996 
L 221.360744 17.088194 
L 222.583033 17.138698 
L 224.319971 17.471479 
L 225.027612 17.255996 
L 226.056908 16.954258 
L 226.571556 17.015763 
L 227.150535 17.335275 
L 228.694479 18.237758 
L 229.144796 18.29018 
L 229.659444 18.098693 
L 231.203388 17.306954 
L 231.911029 17.335831 
L 234.548601 17.646659 
L 236.349869 17.446785 
L 236.349869 17.446785 
" clip-path="url(#pd77ea4a621)" style="fill: none; stroke: #2ca02c; stroke-width: 0.5; stroke-linecap: square"/>
   </g>
   <g id="line2d_17">
    <path d="M 43.356847 17.524118 
L 54.42178 17.416256 
L 55.258084 17.400337 
L 55.901394 17.684209 
L 56.28738 17.721994 
L 56.609035 17.454088 
L 56.93069 17.246477 
L 57.188014 17.421767 
L 57.445338 17.567871 
L 57.702662 17.387482 
L 58.024317 17.218374 
L 58.21731 17.368334 
L 58.796289 18.036372 
L 58.989282 17.900686 
L 59.375268 17.521849 
L 59.632592 17.673903 
L 60.14724 17.951135 
L 60.340233 17.908666 
L 60.597557 17.558535 
L 61.112205 16.839067 
L 61.369529 16.773912 
L 61.562522 17.022418 
L 62.141501 18.029266 
L 62.527487 18.11668 
L 62.849142 17.958409 
L 63.685446 17.041564 
L 64.007101 16.815929 
L 64.200094 16.974044 
L 64.457418 17.599792 
L 64.779073 18.348063 
L 64.907735 18.309623 
L 65.22939 17.701299 
L 65.551045 17.234225 
L 65.808369 17.245724 
L 66.387348 17.454071 
L 66.773334 17.797653 
L 67.030658 17.676327 
L 67.480975 17.396483 
L 67.738299 17.548516 
L 68.252947 17.894206 
L 68.896257 18.017374 
L 69.08925 18.067062 
L 69.346574 17.80023 
L 69.73256 17.47457 
L 70.182877 17.141058 
L 70.633194 16.838454 
L 70.890518 16.987848 
L 71.855483 17.925834 
L 72.177138 17.861928 
L 73.335097 17.416958 
L 73.978407 17.508898 
L 75.007703 17.687882 
L 75.715344 17.54273 
L 76.680309 17.36028 
L 77.38795 17.494647 
L 78.417246 17.688924 
L 79.253549 17.572937 
L 80.668831 17.35972 
L 81.82679 17.454803 
L 84.142706 17.687784 
L 87.101932 17.722885 
L 87.938235 17.726781 
L 88.710207 17.498116 
L 89.482179 17.050177 
L 89.996827 16.84267 
L 90.382814 16.966327 
L 90.961793 17.471191 
L 91.798096 18.130718 
L 92.248413 18.248152 
L 92.763061 18.109673 
L 93.921019 17.492878 
L 95.207639 16.577604 
L 95.657956 16.625801 
L 96.236935 16.925404 
L 97.973872 18.093908 
L 98.48852 18.002684 
L 100.096796 17.417739 
L 100.547113 17.596389 
L 101.512078 18.071775 
L 102.219719 18.082184 
L 102.863029 17.920612 
L 105.371938 16.875259 
L 106.015248 16.977668 
L 106.78722 17.34421 
L 108.266834 18.092362 
L 108.910144 18.157025 
L 109.553454 17.982459 
L 110.325426 17.504476 
L 111.290391 16.92333 
L 111.740708 16.910392 
L 112.191025 17.154023 
L 113.541976 18.161363 
L 113.863631 18.034669 
L 114.378279 17.513763 
L 115.021589 16.926215 
L 115.343244 16.903828 
L 115.664899 17.098024 
L 116.887189 18.121705 
L 117.208844 17.984449 
L 117.659161 17.47716 
L 118.302471 16.787105 
L 118.559795 16.781267 
L 118.817119 17.010576 
L 119.782084 18.153495 
L 119.975077 18.084473 
L 120.232401 17.696292 
L 120.940042 16.282107 
L 121.068704 16.378609 
L 121.326028 17.092184 
L 121.776345 18.294171 
L 122.033669 18.359642 
L 122.548317 18.155257 
L 123.062965 17.340965 
L 123.513282 17.422952 
L 123.770606 17.461675 
L 124.02793 17.410929 
L 124.67124 17.776965 
L 125.057226 17.574465 
L 126.022192 17.730699 
L 126.665502 17.069855 
L 126.987157 17.397709 
L 127.437474 17.848279 
L 127.694798 17.797114 
L 128.724094 17.209132 
L 129.045749 17.296923 
L 129.496066 17.138288 
L 129.946383 17.46171 
L 130.589693 17.48397 
L 131.490327 17.805416 
L 131.811982 17.590756 
L 132.197968 17.06819 
L 132.519623 16.678868 
L 132.712616 16.884821 
L 133.291595 17.796426 
L 133.61325 17.867183 
L 133.870574 17.692242 
L 134.385222 17.204636 
L 134.964202 17.297325 
L 135.800505 17.438008 
L 136.379484 17.318063 
L 137.666104 17.469993 
L 138.759731 17.240799 
L 139.33871 17.436472 
L 140.303675 17.796899 
L 140.818323 17.702313 
L 142.169274 17.253062 
L 142.748253 17.402061 
L 143.970543 17.791091 
L 144.678184 17.7393 
L 147.444417 17.264188 
L 148.538044 17.464026 
L 150.789629 17.936584 
L 151.818925 17.906994 
L 152.655229 17.624417 
L 153.684525 17.280005 
L 154.456497 17.322793 
L 155.421462 17.597754 
L 156.708082 18.173021 
L 157.158399 17.954819 
L 158.316357 17.285905 
L 158.895336 17.212951 
L 159.345653 17.37317 
L 159.924632 17.852675 
L 160.567942 18.330863 
L 160.953928 18.348883 
L 161.404245 18.11588 
L 162.176218 17.397246 
L 162.883859 16.84413 
L 163.398507 16.710255 
L 163.848824 16.808347 
L 164.556465 17.271941 
L 165.392768 17.75277 
L 165.971747 17.866999 
L 166.679388 17.732429 
L 168.09467 17.418718 
L 169.123966 17.395735 
L 173.369813 17.540942 
L 176.715025 17.542412 
L 178.387631 17.514594 
L 179.931576 17.523635 
L 181.668513 17.536581 
L 183.791436 17.503829 
L 184.69207 17.69916 
L 185.914359 17.482463 
L 186.364676 17.517796 
L 186.557669 17.353157 
L 186.943655 16.950024 
L 187.136648 17.167865 
L 187.522634 17.779624 
L 187.651296 17.735062 
L 188.101613 17.358247 
L 188.873586 17.969917 
L 189.195241 18.267743 
L 189.452565 18.43058 
L 189.645558 18.224233 
L 189.967213 17.347839 
L 190.288868 16.629958 
L 190.481861 16.702589 
L 190.803516 17.257651 
L 191.125171 17.736467 
L 191.318164 17.644399 
L 191.768481 17.224557 
L 192.154467 17.292148 
L 192.797777 17.648541 
L 193.055101 17.200252 
L 193.376756 16.731343 
L 193.569749 16.789493 
L 194.213059 17.381835 
L 194.406052 17.418304 
L 194.599045 17.695986 
L 194.985031 18.374837 
L 195.113693 18.34666 
L 195.371017 17.902201 
L 195.821334 17.12441 
L 196.078658 17.057172 
L 196.271651 17.238149 
L 196.914961 18.191691 
L 197.172286 17.804441 
L 197.493941 17.421934 
L 197.686934 17.439763 
L 198.137251 17.667703 
L 198.394575 17.285776 
L 198.651899 17.024248 
L 198.909223 17.176233 
L 199.35954 17.386981 
L 199.681195 17.685943 
L 200.260174 18.349931 
L 200.453167 18.276751 
L 200.774822 17.782052 
L 201.546794 16.401263 
L 201.804118 16.302466 
L 202.061442 16.466932 
L 202.447428 17.122071 
L 203.2194 18.582202 
L 203.476724 18.707569 
L 203.734048 18.564355 
L 204.055703 18.062941 
L 204.956337 16.417271 
L 205.213661 16.346866 
L 205.470985 16.53692 
L 205.856971 17.192325 
L 206.628944 18.561489 
L 206.950599 18.70825 
L 207.207923 18.593469 
L 207.593909 18.123761 
L 208.751867 16.492929 
L 209.137853 16.340929 
L 209.523839 16.426211 
L 210.038487 16.814743 
L 212.032748 18.65316 
L 212.483065 18.701261 
L 212.933382 18.54402 
L 213.512361 18.088376 
L 215.249299 16.502738 
L 215.699616 16.469426 
L 216.149933 16.703659 
L 216.664581 17.261116 
L 217.693877 18.466545 
L 218.208525 18.691209 
L 218.594511 18.672898 
L 218.980497 18.421107 
L 219.559476 17.688213 
L 220.074124 17.10786 
L 220.395779 17.016366 
L 220.846096 17.165251 
L 221.939723 17.645736 
L 222.583033 17.624245 
L 223.419336 17.559189 
L 225.54226 17.779862 
L 226.82888 17.493752 
L 227.986838 17.085071 
L 228.372824 17.213635 
L 229.016134 17.745615 
L 229.530782 18.055339 
L 229.916768 18.057109 
L 230.431416 17.788046 
L 231.396381 17.243733 
L 232.168353 17.130491 
L 233.068988 17.205418 
L 235.513566 17.656327 
L 236.349869 17.6344 
L 236.349869 17.6344 
" clip-path="url(#pd77ea4a621)" style="fill: none; stroke: #d62728; stroke-width: 0.5; stroke-linecap: square"/>
   </g>
   <g id="patch_3">
    <path d="M 33.707196 202.559296 
L 33.707196 7.2 
" style="fill: none; stroke: #000000; stroke-width: 0.8; stroke-linejoin: miter; stroke-linecap: square"/>
   </g>
   <g id="patch_4">
    <path d="M 245.99952 202.559296 
L 245.99952 7.2 
" style="fill: none; stroke: #000000; stroke-width: 0.8; stroke-linejoin: miter; stroke-linecap: square"/>
   </g>
   <g id="patch_5">
    <path d="M 33.707196 202.559296 
L 245.99952 202.559296 
" style="fill: none; stroke: #000000; stroke-width: 0.8; stroke-linejoin: miter; stroke-linecap: square"/>
   </g>
   <g id="patch_6">
    <path d="M 33.707196 7.2 
L 245.99952 7.2 
" style="fill: none; stroke: #000000; stroke-width: 0.8; stroke-linejoin: miter; stroke-linecap: square"/>
   </g>
   <g id="legend_1">
    <g id="patch_7">
     <path d="M 193.792605 198.059296 
L 239.69952 198.059296 
Q 241.49952 198.059296 241.49952 196.259296 
L 241.49952 156.760168 
Q 241.49952 154.960168 239.69952 154.960168 
L 193.792605 154.960168 
Q 191.992605 154.960168 191.992605 156.760168 
L 191.992605 196.259296 
Q 191.992605 198.059296 193.792605 198.059296 
z
" style="fill: #ffffff; opacity: 0.8; stroke: #cccccc; stroke-width: 0.24; stroke-linejoin: miter"/>
    </g>
    <g id="line2d_18">
     <path d="M 195.592605 162.13495 
L 204.592605 162.13495 
L 213.592605 162.13495 
" style="fill: none; stroke: #ff7f0e; stroke-width: 0.5; stroke-linecap: square"/>
    </g>
    <g id="text_16">
     <!-- $\langle \sigma_z\rangle$ -->
     <g transform="translate(220.792605 165.28495) scale(0.09 -0.09)">
      <defs>
       <path id="CMSY10-68" d="M 2099 4557 
C 2131 4627 2131 4640 2131 4672 
C 2131 4742 2074 4800 2003 4800 
C 1946 4800 1901 4768 1856 4653 
L 736 1715 
C 723 1677 704 1638 704 1600 
C 704 1581 704 1568 736 1491 
L 1856 -1446 
C 1882 -1517 1914 -1600 2003 -1600 
C 2074 -1600 2131 -1542 2131 -1472 
C 2131 -1453 2131 -1440 2099 -1370 
L 966 1600 
L 2099 4557 
z
" transform="scale(0.015625)"/>
       <path id="CMMI12-1b" d="M 3251 2408 
C 3334 2408 3546 2408 3546 2612 
C 3546 2752 3424 2752 3309 2752 
L 1894 2752 
C 934 2752 243 1686 243 932 
C 243 390 595 -64 1171 -64 
C 1926 -64 2752 747 2752 1705 
C 2752 1954 2694 2196 2541 2408 
L 3251 2408 
z
M 1178 64 
C 851 64 614 313 614 754 
C 614 1137 845 2408 1786 2408 
C 2061 2408 2368 2274 2368 1781 
C 2368 1558 2266 1021 2042 652 
C 1811 275 1466 64 1178 64 
z
" transform="scale(0.015625)"/>
       <path id="CMMI12-7a" d="M 813 486 
C 1088 803 1312 1004 1632 1296 
C 2016 1632 2182 1793 2272 1891 
C 2720 2338 2944 2713 2944 2764 
C 2944 2816 2893 2816 2880 2816 
C 2835 2816 2822 2793 2790 2750 
C 2630 2494 2477 2367 2310 2367 
C 2176 2367 2106 2421 1984 2565 
C 1850 2715 1741 2816 1555 2816 
C 1088 2816 806 2257 806 2128 
C 806 2108 813 2068 870 2068 
C 922 2068 928 2091 947 2133 
C 1056 2372 1363 2414 1485 2414 
C 1619 2414 1747 2376 1882 2327 
C 2125 2240 2227 2240 2291 2240 
C 2336 2240 2362 2240 2394 2246 
C 2182 1994 1837 1683 1549 1418 
L 902 816 
C 512 415 275 33 275 -12 
C 275 -51 307 -64 346 -64 
C 384 -64 390 -57 435 14 
C 538 163 742 384 979 384 
C 1114 384 1178 342 1306 193 
C 1427 61 1536 -64 1741 -64 
C 2368 -64 2726 732 2726 876 
C 2726 903 2720 942 2656 942 
C 2605 942 2598 917 2579 855 
C 2438 488 2061 338 1811 338 
C 1677 338 1549 376 1414 425 
C 1158 512 1088 512 1005 512 
C 941 512 870 512 813 486 
z
" transform="scale(0.015625)"/>
       <path id="CMSY10-69" d="M 1747 1491 
C 1779 1568 1779 1581 1779 1600 
C 1779 1619 1779 1632 1747 1709 
L 627 4653 
C 589 4762 550 4800 480 4800 
C 410 4800 352 4742 352 4672 
C 352 4653 352 4640 384 4570 
L 1517 1600 
L 384 -1357 
C 352 -1427 352 -1440 352 -1472 
C 352 -1542 410 -1600 480 -1600 
C 563 -1600 589 -1536 614 -1472 
L 1747 1491 
z
" transform="scale(0.015625)"/>
      </defs>
      <use xlink:href="#CMSY10-68" transform="scale(0.996264)"/>
      <use xlink:href="#CMMI12-1b" transform="translate(38.743734 0) scale(0.996264)"/>
      <use xlink:href="#CMMI12-7a" transform="translate(94.189195 -14.943915) scale(0.697382)"/>
      <use xlink:href="#CMSY10-69" transform="translate(129.51575 0) scale(0.996264)"/>
     </g>
    </g>
    <g id="line2d_19">
     <path d="M 195.592605 175.601326 
L 204.592605 175.601326 
L 213.592605 175.601326 
" style="fill: none; stroke: #2ca02c; stroke-width: 0.5; stroke-linecap: square"/>
    </g>
    <g id="text_17">
     <!-- $\langle \sigma_x\rangle$ -->
     <g transform="translate(220.792605 178.751326) scale(0.09 -0.09)">
      <defs>
       <path id="CMMI12-78" d="M 3034 2606 
C 2829 2567 2752 2414 2752 2293 
C 2752 2139 2874 2088 2963 2088 
C 3155 2088 3290 2254 3290 2427 
C 3290 2695 2982 2816 2714 2816 
C 2323 2816 2106 2433 2048 2312 
C 1901 2816 1504 2816 1389 2816 
C 736 2816 390 1980 390 1839 
C 390 1814 416 1782 461 1782 
C 512 1782 525 1820 538 1846 
C 755 2555 1184 2689 1370 2689 
C 1658 2689 1715 2420 1715 2267 
C 1715 2127 1677 1980 1600 1673 
L 1382 798 
C 1286 415 1101 64 762 64 
C 730 64 570 64 435 147 
C 666 192 717 383 717 460 
C 717 588 621 664 499 664 
C 346 664 179 530 179 326 
C 179 57 480 -64 755 -64 
C 1062 -64 1280 179 1414 441 
C 1517 64 1837 -64 2074 -64 
C 2726 -64 3072 773 3072 913 
C 3072 945 3046 971 3008 971 
C 2950 971 2944 939 2925 888 
C 2752 326 2381 64 2093 64 
C 1869 64 1747 230 1747 492 
C 1747 632 1773 734 1875 1156 
L 2099 2024 
C 2195 2408 2413 2689 2707 2689 
C 2720 2689 2899 2689 3034 2606 
z
" transform="scale(0.015625)"/>
      </defs>
      <use xlink:href="#CMSY10-68" transform="scale(0.996264)"/>
      <use xlink:href="#CMMI12-1b" transform="translate(38.743734 0) scale(0.996264)"/>
      <use xlink:href="#CMMI12-78" transform="translate(94.189195 -14.943915) scale(0.697382)"/>
      <use xlink:href="#CMSY10-69" transform="translate(133.490986 0) scale(0.996264)"/>
     </g>
    </g>
    <g id="line2d_20">
     <path d="M 195.592605 189.067702 
L 204.592605 189.067702 
L 213.592605 189.067702 
" style="fill: none; stroke: #d62728; stroke-width: 0.5; stroke-linecap: square"/>
    </g>
    <g id="text_18">
     <!-- $\langle \sigma_y\rangle$ -->
     <g transform="translate(220.792605 192.217702) scale(0.09 -0.09)">
      <defs>
       <path id="CMMI12-79" d="M 1683 -700 
C 1510 -939 1261 -1152 947 -1152 
C 870 -1152 563 -1152 467 -889 
C 486 -895 518 -895 531 -895 
C 723 -895 851 -729 851 -582 
C 851 -435 730 -384 634 -384 
C 531 -384 307 -458 307 -759 
C 307 -1071 582 -1286 947 -1286 
C 1587 -1286 2234 -700 2413 6 
L 3040 2485 
C 3046 2517 3059 2556 3059 2594 
C 3059 2689 2982 2753 2886 2753 
C 2829 2753 2694 2727 2643 2535 
L 2170 658 
C 2138 543 2138 530 2086 460 
C 1958 281 1747 64 1440 64 
C 1082 64 1050 415 1050 588 
C 1050 952 1222 1443 1395 1903 
C 1466 2088 1504 2178 1504 2305 
C 1504 2574 1312 2816 998 2816 
C 410 2816 173 1890 173 1839 
C 173 1814 198 1782 243 1782 
C 301 1782 307 1807 333 1897 
C 486 2433 730 2689 979 2689 
C 1037 2689 1146 2689 1146 2478 
C 1146 2312 1075 2127 979 1884 
C 666 1047 666 837 666 683 
C 666 77 1101 -64 1421 -64 
C 1606 -64 1837 -6 2061 230 
L 2067 224 
C 1971 -147 1907 -392 1683 -700 
z
" transform="scale(0.015625)"/>
      </defs>
      <use xlink:href="#CMSY10-68" transform="scale(0.996264)"/>
      <use xlink:href="#CMMI12-1b" transform="translate(38.743734 0) scale(0.996264)"/>
      <use xlink:href="#CMMI12-79" transform="translate(94.189195 -14.943915) scale(0.697382)"/>
      <use xlink:href="#CMSY10-69" transform="translate(130.484301 0) scale(0.996264)"/>
     </g>
    </g>
   </g>
  </g>
 </g>
 <defs>
  <clipPath id="pd77ea4a621">
   <rect x="33.707196" y="7.2" width="212.292324" height="195.359296"/>
  </clipPath>
 </defs>
</svg>
