<?xml version="1.0" encoding="utf-8" standalone="no"?>
<!DOCTYPE svg PUBLIC "-//W3C//DTD SVG 1.1//EN"
  "http://www.w3.org/Graphics/SVG/1.1/DTD/svg11.dtd">
<svg xmlns:xlink="http://www.w3.org/1999/xlink" width="253.19952pt" height="238.79952pt" viewBox="0 0 253.19952 238.79952" xmlns="http://www.w3.org/2000/svg" version="1.1">
 <metadata>
  <rdf:RDF xmlns:dc="http://purl.org/dc/elements/1.1/" xmlns:cc="http://creativecommons.org/ns#" xmlns:rdf="http://www.w3.org/1999/02/22-rdf-syntax-ns#">
   <cc:Work>
    <dc:type rdf:resource="http://purl.org/dc/dcmitype/StillImage"/>
    <dc:date>1980-01-01T00:00:00+00:00</dc:date>
    <dc:format>image/svg+xml</dc:format>
    <dc:creator>
     <cc:Agent>
      <dc:title>Matplotlib v3.6.2, https://matplotlib.org/</dc:title>
     </cc:Agent>
    </dc:creator>
   </cc:Work>
  </rdf:RDF>
 </metadata>
 <defs>
  <style type="text/css">*{stroke-linejoin: round; stroke-linecap: butt}</style>
 </defs>
 <g id="figure_1">
  <g id="patch_1">
   <path d="M 0 238.79952 
L 253.19952 238.79952 
L 253.19952 0 
L 0 0 
z
" style="fill: #ffffff"/>
  </g>
  <g id="axes_1">
   <g id="patch_2">
    <path d="M 33.707196 202.559296 
L 245.99952 202.559296 
L 245.99952 7.2 
L 33.707196 7.2 
z
" style="fill: #ffffff"/>
   </g>
   <g id="matplotlib.axis_1">
    <g id="xtick_1">
     <g id="line2d_1">
      <defs>
       <path id="m2d01164c57" d="M 0 0 
L 0 3.5 
" style="stroke: #000000; stroke-width: 0.8"/>
      </defs>
      <g>
       <use xlink:href="#m2d01164c57" x="43.356847" y="202.559296" style="stroke: #000000; stroke-width: 0.8"/>
      </g>
     </g>
     <g id="text_1">
      <!-- $\mathdefault{0}$ -->
      <g transform="translate(41.239756 217.194098) scale(0.08 -0.08)">
       <defs>
        <path id="CMR17-30" d="M 2688 2025 
C 2688 2416 2682 3080 2413 3591 
C 2176 4039 1798 4198 1466 4198 
C 1158 4198 768 4058 525 3597 
C 269 3118 243 2524 243 2025 
C 243 1661 250 1106 448 619 
C 723 -39 1216 -128 1466 -128 
C 1760 -128 2208 -7 2470 600 
C 2662 1042 2688 1559 2688 2025 
z
M 1466 -26 
C 1056 -26 813 325 723 812 
C 653 1188 653 1738 653 2096 
C 653 2588 653 2997 736 3387 
C 858 3929 1216 4096 1466 4096 
C 1728 4096 2067 3923 2189 3400 
C 2272 3036 2278 2607 2278 2096 
C 2278 1680 2278 1169 2202 792 
C 2067 95 1690 -26 1466 -26 
z
" transform="scale(0.015625)"/>
       </defs>
       <use xlink:href="#CMR17-30" transform="scale(0.996264)"/>
      </g>
     </g>
    </g>
    <g id="xtick_2">
     <g id="line2d_2">
      <g>
       <use xlink:href="#m2d01164c57" x="70.161434" y="202.559296" style="stroke: #000000; stroke-width: 0.8"/>
      </g>
     </g>
     <g id="text_2">
      <!-- $\mathdefault{25}$ -->
      <g transform="translate(65.927251 217.194098) scale(0.08 -0.08)">
       <defs>
        <path id="CMR17-32" d="M 2669 989 
L 2554 989 
C 2490 536 2438 459 2413 420 
C 2381 369 1920 369 1830 369 
L 602 369 
C 832 619 1280 1072 1824 1597 
C 2214 1967 2669 2402 2669 3035 
C 2669 3790 2067 4224 1395 4224 
C 691 4224 262 3604 262 3030 
C 262 2780 448 2748 525 2748 
C 589 2748 781 2787 781 3010 
C 781 3207 614 3264 525 3264 
C 486 3264 448 3258 422 3245 
C 544 3790 915 4058 1306 4058 
C 1862 4058 2227 3617 2227 3035 
C 2227 2479 1901 2000 1536 1584 
L 262 146 
L 262 0 
L 2515 0 
L 2669 989 
z
" transform="scale(0.015625)"/>
        <path id="CMR17-35" d="M 730 3692 
C 794 3666 1056 3584 1325 3584 
C 1920 3584 2246 3911 2432 4100 
C 2432 4157 2432 4192 2394 4192 
C 2387 4192 2374 4192 2323 4163 
C 2099 4058 1837 3973 1517 3973 
C 1325 3973 1037 3999 723 4139 
C 653 4171 640 4171 634 4171 
C 602 4171 595 4164 595 4037 
L 595 2203 
C 595 2089 595 2057 659 2057 
C 691 2057 704 2070 736 2114 
C 941 2401 1222 2522 1542 2522 
C 1766 2522 2246 2382 2246 1289 
C 2246 1085 2246 715 2054 421 
C 1894 159 1645 25 1370 25 
C 947 25 518 320 403 814 
C 429 807 480 795 506 795 
C 589 795 749 840 749 1038 
C 749 1210 627 1280 506 1280 
C 358 1280 262 1190 262 1011 
C 262 454 704 -128 1382 -128 
C 2042 -128 2669 440 2669 1264 
C 2669 2030 2170 2624 1549 2624 
C 1222 2624 947 2503 730 2274 
L 730 3692 
z
" transform="scale(0.015625)"/>
       </defs>
       <use xlink:href="#CMR17-32" transform="scale(0.996264)"/>
       <use xlink:href="#CMR17-35" transform="translate(45.690477 0) scale(0.996264)"/>
      </g>
     </g>
    </g>
    <g id="xtick_3">
     <g id="line2d_3">
      <g>
       <use xlink:href="#m2d01164c57" x="96.96602" y="202.559296" style="stroke: #000000; stroke-width: 0.8"/>
      </g>
     </g>
     <g id="text_3">
      <!-- $\mathdefault{50}$ -->
      <g transform="translate(92.731837 217.194098) scale(0.08 -0.08)">
       <use xlink:href="#CMR17-35" transform="scale(0.996264)"/>
       <use xlink:href="#CMR17-30" transform="translate(45.690477 0) scale(0.996264)"/>
      </g>
     </g>
    </g>
    <g id="xtick_4">
     <g id="line2d_4">
      <g>
       <use xlink:href="#m2d01164c57" x="123.770606" y="202.559296" style="stroke: #000000; stroke-width: 0.8"/>
      </g>
     </g>
     <g id="text_4">
      <!-- $\mathdefault{75}$ -->
      <g transform="translate(119.536423 217.194098) scale(0.08 -0.08)">
       <defs>
        <path id="CMR17-37" d="M 2886 3941 
L 2886 4081 
L 1382 4081 
C 634 4081 621 4165 595 4288 
L 480 4288 
L 294 3094 
L 410 3094 
C 429 3215 474 3540 550 3661 
C 589 3712 1062 3712 1171 3712 
L 2579 3712 
L 1869 2661 
C 1395 1954 1069 999 1069 165 
C 1069 89 1069 -128 1299 -128 
C 1530 -128 1530 89 1530 171 
L 1530 465 
C 1530 1508 1709 2196 2003 2636 
L 2886 3941 
z
" transform="scale(0.015625)"/>
       </defs>
       <use xlink:href="#CMR17-37" transform="scale(0.996264)"/>
       <use xlink:href="#CMR17-35" transform="translate(45.690477 0) scale(0.996264)"/>
      </g>
     </g>
    </g>
    <g id="xtick_5">
     <g id="line2d_5">
      <g>
       <use xlink:href="#m2d01164c57" x="150.575193" y="202.559296" style="stroke: #000000; stroke-width: 0.8"/>
      </g>
     </g>
     <g id="text_5">
      <!-- $\mathdefault{100}$ -->
      <g transform="translate(144.223918 217.194098) scale(0.08 -0.08)">
       <defs>
        <path id="CMR17-31" d="M 1702 4058 
C 1702 4192 1696 4192 1606 4192 
C 1357 3916 979 3827 621 3827 
C 602 3827 570 3827 563 3808 
C 557 3795 557 3782 557 3648 
C 755 3648 1088 3686 1344 3839 
L 1344 461 
C 1344 236 1331 160 781 160 
L 589 160 
L 589 0 
C 896 0 1216 0 1523 0 
C 1830 0 2150 0 2458 0 
L 2458 160 
L 2266 160 
C 1715 160 1702 230 1702 458 
L 1702 4058 
z
" transform="scale(0.015625)"/>
       </defs>
       <use xlink:href="#CMR17-31" transform="scale(0.996264)"/>
       <use xlink:href="#CMR17-30" transform="translate(45.690477 0) scale(0.996264)"/>
       <use xlink:href="#CMR17-30" transform="translate(91.380954 0) scale(0.996264)"/>
      </g>
     </g>
    </g>
    <g id="xtick_6">
     <g id="line2d_6">
      <g>
       <use xlink:href="#m2d01164c57" x="177.379779" y="202.559296" style="stroke: #000000; stroke-width: 0.8"/>
      </g>
     </g>
     <g id="text_6">
      <!-- $\mathdefault{125}$ -->
      <g transform="translate(171.028505 217.194098) scale(0.08 -0.08)">
       <use xlink:href="#CMR17-31" transform="scale(0.996264)"/>
       <use xlink:href="#CMR17-32" transform="translate(45.690477 0) scale(0.996264)"/>
       <use xlink:href="#CMR17-35" transform="translate(91.380954 0) scale(0.996264)"/>
      </g>
     </g>
    </g>
    <g id="xtick_7">
     <g id="line2d_7">
      <g>
       <use xlink:href="#m2d01164c57" x="204.184365" y="202.559296" style="stroke: #000000; stroke-width: 0.8"/>
      </g>
     </g>
     <g id="text_7">
      <!-- $\mathdefault{150}$ -->
      <g transform="translate(197.833091 217.194098) scale(0.08 -0.08)">
       <use xlink:href="#CMR17-31" transform="scale(0.996264)"/>
       <use xlink:href="#CMR17-35" transform="translate(45.690477 0) scale(0.996264)"/>
       <use xlink:href="#CMR17-30" transform="translate(91.380954 0) scale(0.996264)"/>
      </g>
     </g>
    </g>
    <g id="xtick_8">
     <g id="line2d_8">
      <g>
       <use xlink:href="#m2d01164c57" x="230.988952" y="202.559296" style="stroke: #000000; stroke-width: 0.8"/>
      </g>
     </g>
     <g id="text_8">
      <!-- $\mathdefault{175}$ -->
      <g transform="translate(224.637677 217.194098) scale(0.08 -0.08)">
       <use xlink:href="#CMR17-31" transform="scale(0.996264)"/>
       <use xlink:href="#CMR17-37" transform="translate(45.690477 0) scale(0.996264)"/>
       <use xlink:href="#CMR17-35" transform="translate(91.380954 0) scale(0.996264)"/>
      </g>
     </g>
    </g>
    <g id="text_9">
     <!-- $\tau$ -->
     <g transform="translate(137.675756 229.662342) scale(0.1 -0.1)">
      <defs>
       <path id="CMMI12-1c" d="M 1837 2408 
L 2899 2408 
C 2982 2408 3194 2408 3194 2612 
C 3194 2752 3072 2752 2957 2752 
L 1197 2752 
C 1050 2752 832 2752 538 2440 
C 371 2255 166 1917 166 1879 
C 166 1841 198 1828 237 1828 
C 282 1828 288 1847 320 1885 
C 653 2408 986 2408 1146 2408 
L 1677 2408 
L 1011 223 
C 979 127 979 114 979 95 
C 979 25 1024 -64 1152 -64 
C 1350 -64 1382 108 1402 203 
L 1837 2408 
z
" transform="scale(0.015625)"/>
      </defs>
      <use xlink:href="#CMMI12-1c" transform="scale(0.996264)"/>
     </g>
    </g>
   </g>
   <g id="matplotlib.axis_2">
    <g id="ytick_1">
     <g id="line2d_9">
      <defs>
       <path id="m24ca1d9232" d="M 0 0 
L -3.5 0 
" style="stroke: #000000; stroke-width: 0.8"/>
      </defs>
      <g>
       <use xlink:href="#m24ca1d9232" x="33.707196" y="193.679328" style="stroke: #000000; stroke-width: 0.8"/>
      </g>
     </g>
     <g id="text_10">
      <!-- $\mathdefault{−1.0}$ -->
      <g transform="translate(7.2 196.446729) scale(0.08 -0.08)">
       <defs>
        <path id="CMSY10-0" d="M 4218 1472 
C 4326 1472 4442 1472 4442 1600 
C 4442 1728 4326 1728 4218 1728 
L 755 1728 
C 646 1728 531 1728 531 1600 
C 531 1472 646 1472 755 1472 
L 4218 1472 
z
" transform="scale(0.015625)"/>
        <path id="CMMI12-3a" d="M 1178 307 
C 1178 492 1024 619 870 619 
C 685 619 557 466 557 313 
C 557 128 710 0 864 0 
C 1050 0 1178 153 1178 307 
z
" transform="scale(0.015625)"/>
       </defs>
       <use xlink:href="#CMSY10-0" transform="scale(0.996264)"/>
       <use xlink:href="#CMR17-31" transform="translate(77.487468 0) scale(0.996264)"/>
       <use xlink:href="#CMMI12-3a" transform="translate(123.177945 0) scale(0.996264)"/>
       <use xlink:href="#CMR17-30" transform="translate(150.275122 0) scale(0.996264)"/>
      </g>
     </g>
    </g>
    <g id="ytick_2">
     <g id="line2d_10">
      <g>
       <use xlink:href="#m24ca1d9232" x="33.707196" y="158.347084" style="stroke: #000000; stroke-width: 0.8"/>
      </g>
     </g>
     <g id="text_11">
      <!-- $\mathdefault{−0.8}$ -->
      <g transform="translate(7.2 161.114485) scale(0.08 -0.08)">
       <defs>
        <path id="CMR17-38" d="M 1741 2264 
C 2144 2467 2554 2773 2554 3263 
C 2554 3841 1990 4179 1472 4179 
C 890 4179 378 3759 378 3180 
C 378 3021 416 2747 666 2505 
C 730 2442 998 2251 1171 2130 
C 883 1983 211 1634 211 934 
C 211 279 838 -128 1459 -128 
C 2144 -128 2720 362 2720 1010 
C 2720 1590 2330 1857 2074 2029 
L 1741 2264 
z
M 902 2822 
C 851 2854 595 3051 595 3351 
C 595 3739 998 4032 1459 4032 
C 1965 4032 2336 3676 2336 3262 
C 2336 2669 1670 2331 1638 2331 
C 1632 2331 1626 2331 1574 2370 
L 902 2822 
z
M 2080 1519 
C 2176 1449 2483 1240 2483 851 
C 2483 381 2010 25 1472 25 
C 890 25 448 438 448 940 
C 448 1443 838 1862 1280 2060 
L 2080 1519 
z
" transform="scale(0.015625)"/>
       </defs>
       <use xlink:href="#CMSY10-0" transform="scale(0.996264)"/>
       <use xlink:href="#CMR17-30" transform="translate(77.487468 0) scale(0.996264)"/>
       <use xlink:href="#CMMI12-3a" transform="translate(123.177945 0) scale(0.996264)"/>
       <use xlink:href="#CMR17-38" transform="translate(150.275122 0) scale(0.996264)"/>
      </g>
     </g>
    </g>
    <g id="ytick_3">
     <g id="line2d_11">
      <g>
       <use xlink:href="#m24ca1d9232" x="33.707196" y="123.01484" style="stroke: #000000; stroke-width: 0.8"/>
      </g>
     </g>
     <g id="text_12">
      <!-- $\mathdefault{−0.6}$ -->
      <g transform="translate(7.2 125.782241) scale(0.08 -0.08)">
       <defs>
        <path id="CMR17-36" d="M 678 2176 
C 678 3690 1395 4032 1811 4032 
C 1946 4032 2272 4009 2400 3776 
C 2298 3776 2106 3776 2106 3553 
C 2106 3381 2246 3323 2336 3323 
C 2394 3323 2566 3348 2566 3560 
C 2566 3954 2246 4179 1805 4179 
C 1043 4179 243 3390 243 1984 
C 243 253 966 -128 1478 -128 
C 2099 -128 2688 427 2688 1283 
C 2688 2081 2170 2662 1517 2662 
C 1126 2662 838 2407 678 1960 
L 678 2176 
z
M 1478 25 
C 691 25 691 1200 691 1436 
C 691 1896 909 2560 1504 2560 
C 1613 2560 1926 2560 2138 2120 
C 2253 1870 2253 1609 2253 1289 
C 2253 944 2253 690 2118 434 
C 1978 171 1773 25 1478 25 
z
" transform="scale(0.015625)"/>
       </defs>
       <use xlink:href="#CMSY10-0" transform="scale(0.996264)"/>
       <use xlink:href="#CMR17-30" transform="translate(77.487468 0) scale(0.996264)"/>
       <use xlink:href="#CMMI12-3a" transform="translate(123.177945 0) scale(0.996264)"/>
       <use xlink:href="#CMR17-36" transform="translate(150.275122 0) scale(0.996264)"/>
      </g>
     </g>
    </g>
    <g id="ytick_4">
     <g id="line2d_12">
      <g>
       <use xlink:href="#m24ca1d9232" x="33.707196" y="87.682597" style="stroke: #000000; stroke-width: 0.8"/>
      </g>
     </g>
     <g id="text_13">
      <!-- $\mathdefault{−0.4}$ -->
      <g transform="translate(7.2 90.449998) scale(0.08 -0.08)">
       <defs>
        <path id="CMR17-34" d="M 2150 4122 
C 2150 4256 2144 4256 2029 4256 
L 128 1254 
L 128 1088 
L 1779 1088 
L 1779 457 
C 1779 224 1766 160 1318 160 
L 1197 160 
L 1197 0 
C 1402 0 1747 0 1965 0 
C 2182 0 2528 0 2733 0 
L 2733 160 
L 2611 160 
C 2163 160 2150 224 2150 457 
L 2150 1088 
L 2803 1088 
L 2803 1254 
L 2150 1254 
L 2150 4122 
z
M 1798 3703 
L 1798 1254 
L 256 1254 
L 1798 3703 
z
" transform="scale(0.015625)"/>
       </defs>
       <use xlink:href="#CMSY10-0" transform="scale(0.996264)"/>
       <use xlink:href="#CMR17-30" transform="translate(77.487468 0) scale(0.996264)"/>
       <use xlink:href="#CMMI12-3a" transform="translate(123.177945 0) scale(0.996264)"/>
       <use xlink:href="#CMR17-34" transform="translate(150.275122 0) scale(0.996264)"/>
      </g>
     </g>
    </g>
    <g id="ytick_5">
     <g id="line2d_13">
      <g>
       <use xlink:href="#m24ca1d9232" x="33.707196" y="52.350353" style="stroke: #000000; stroke-width: 0.8"/>
      </g>
     </g>
     <g id="text_14">
      <!-- $\mathdefault{−0.2}$ -->
      <g transform="translate(7.2 55.117754) scale(0.08 -0.08)">
       <use xlink:href="#CMSY10-0" transform="scale(0.996264)"/>
       <use xlink:href="#CMR17-30" transform="translate(77.487468 0) scale(0.996264)"/>
       <use xlink:href="#CMMI12-3a" transform="translate(123.177945 0) scale(0.996264)"/>
       <use xlink:href="#CMR17-32" transform="translate(150.275122 0) scale(0.996264)"/>
      </g>
     </g>
    </g>
    <g id="ytick_6">
     <g id="line2d_14">
      <g>
       <use xlink:href="#m24ca1d9232" x="33.707196" y="17.018109" style="stroke: #000000; stroke-width: 0.8"/>
      </g>
     </g>
     <g id="text_15">
      <!-- $\mathdefault{0.0}$ -->
      <g transform="translate(13.786507 19.78551) scale(0.08 -0.08)">
       <use xlink:href="#CMR17-30" transform="scale(0.996264)"/>
       <use xlink:href="#CMMI12-3a" transform="translate(45.690477 0) scale(0.996264)"/>
       <use xlink:href="#CMR17-30" transform="translate(72.787654 0) scale(0.996264)"/>
      </g>
     </g>
    </g>
   </g>
   <g id="line2d_15">
    <path d="M 43.356847 193.679328 
L 43.421178 193.426774 
L 43.54984 191.457695 
L 43.807164 182.816256 
L 44.707798 147.380571 
L 45.029453 142.448856 
L 45.222446 141.655912 
L 45.351108 141.902423 
L 45.544101 143.236446 
L 45.930088 148.216042 
L 46.70206 158.711277 
L 47.088046 161.086723 
L 47.34537 161.585742 
L 47.538363 161.588327 
L 48.246004 161.178702 
L 48.503328 161.474605 
L 48.889314 162.343052 
L 49.982941 165.031845 
L 50.433258 165.518976 
L 51.526885 166.317139 
L 52.170195 167.306402 
L 53.456815 169.435178 
L 53.649808 169.376616 
L 53.842801 169.059646 
L 54.100125 168.139314 
L 54.42178 166.032967 
L 54.807767 161.859209 
L 55.322415 153.396192 
L 58.088648 101.540236 
L 58.86062 93.411245 
L 59.825585 85.797732 
L 60.726219 80.229206 
L 62.141501 73.710563 
L 63.170797 70.562373 
L 64.328756 67.201495 
L 64.714742 66.688107 
L 65.551045 65.851691 
L 66.065693 64.79824 
L 66.451679 64.201148 
L 67.15932 63.710293 
L 67.931292 63.013352 
L 68.960588 61.700446 
L 69.475236 61.330758 
L 70.182877 60.757602 
L 70.568863 60.731072 
L 71.147842 60.686014 
L 71.533828 60.748886 
L 72.434463 61.069107 
L 72.756118 60.798679 
L 73.270766 60.356159 
L 73.592421 60.343242 
L 74.235731 60.419128 
L 74.686048 60.494091 
L 75.265027 60.67483 
L 75.586682 60.456722 
L 76.165661 60.016514 
L 76.551647 59.734863 
L 76.873302 59.139919 
L 77.259288 57.878134 
L 77.709605 55.480419 
L 78.610239 49.229978 
L 79.189218 45.565058 
L 79.896859 42.805304 
L 80.411507 41.466763 
L 81.119148 40.405723 
L 81.633797 39.895222 
L 81.955452 39.886328 
L 82.791755 40.056842 
L 83.11341 39.889306 
L 84.142706 39.115454 
L 84.979009 39.143446 
L 85.364995 39.469613 
L 85.879643 40.265692 
L 86.587284 41.776089 
L 87.101932 43.446777 
L 87.552249 45.694468 
L 88.131228 49.915152 
L 88.774538 56.505078 
L 89.868165 70.686828 
L 91.283448 88.438562 
L 92.312744 98.987789 
L 93.213378 105.789055 
L 93.98535 110.026437 
L 94.757322 113.20584 
L 96.236935 118.049038 
L 97.137569 120.036138 
L 98.552851 122.467817 
L 99.260493 123.212708 
L 101.64074 125.154104 
L 102.219719 125.322816 
L 103.506339 125.45402 
L 104.406973 125.830354 
L 106.015248 126.170509 
L 107.880847 126.488027 
L 108.524158 126.547487 
L 108.781482 126.871286 
L 109.038806 127.644282 
L 109.360461 129.478303 
L 109.746447 133.062806 
L 111.419053 151.101112 
L 111.86937 152.592317 
L 112.898666 155.209742 
L 114.120955 159.146572 
L 115.214582 161.408793 
L 117.916485 166.334932 
L 118.109478 166.254512 
L 118.302471 165.870286 
L 118.559795 164.784996 
L 118.88145 162.351493 
L 119.331767 156.739844 
L 119.975077 144.917927 
L 121.840676 108.646559 
L 122.74131 96.526677 
L 123.38462 90.198958 
L 124.285254 84.123281 
L 125.507543 77.202322 
L 126.408178 73.514471 
L 127.051488 71.29384 
L 128.917087 66.19272 
L 129.496066 65.225594 
L 130.975679 63.716586 
L 132.004975 62.948818 
L 132.712616 62.078267 
L 133.291595 62.064848 
L 134.063567 61.859712 
L 134.83554 61.336107 
L 135.929167 61.261325 
L 136.508146 61.085742 
L 137.344449 60.903571 
L 138.05209 60.919443 
L 138.631069 60.941235 
L 139.210048 60.606045 
L 139.917689 60.402997 
L 140.62533 60.235901 
L 140.946985 59.879735 
L 141.26864 59.135227 
L 141.654626 57.634566 
L 142.169274 54.697121 
L 143.906212 43.580309 
L 144.42086 42.225034 
L 145.06417 41.223311 
L 145.450156 40.912094 
L 146.479452 40.557136 
L 148.92403 39.087928 
L 149.181354 39.153051 
L 149.503009 39.481529 
L 150.339312 40.844715 
L 151.304277 42.814956 
L 151.690263 44.200673 
L 152.14058 46.810774 
L 152.655229 51.151884 
L 153.36287 59.265239 
L 156.129103 94.03726 
L 157.029737 102.028794 
L 157.930371 108.059746 
L 158.831005 112.693716 
L 159.79597 116.244319 
L 160.632273 118.566967 
L 161.468577 120.26625 
L 162.562204 122.055709 
L 163.848824 123.763494 
L 164.685127 124.474053 
L 165.135444 124.585925 
L 165.843085 124.683739 
L 166.80805 125.042328 
L 167.644353 125.431486 
L 168.609318 125.685483 
L 170.153262 125.754575 
L 171.761538 126.039425 
L 172.404848 126.16246 
L 172.790834 126.444631 
L 173.112489 127.048271 
L 173.434144 128.224233 
L 173.755799 130.262165 
L 174.206116 134.779918 
L 175.557067 149.753043 
L 176.007384 152.097177 
L 176.457701 153.339059 
L 177.358335 155.468547 
L 179.030941 160.438485 
L 182.183161 166.450068 
L 182.376154 166.451024 
L 182.569147 166.179116 
L 182.826471 165.272907 
L 183.148126 163.047057 
L 183.534112 158.629182 
L 184.113091 148.938783 
L 186.557669 103.31066 
L 187.329641 94.412046 
L 188.358938 85.593194 
L 189.066579 80.872651 
L 189.902882 76.751045 
L 190.932178 72.748711 
L 191.639819 70.859519 
L 192.411791 69.291784 
L 193.055101 67.910022 
L 193.955735 65.527704 
L 195.885665 63.00821 
L 196.335982 62.614765 
L 197.172286 62.327372 
L 197.622603 61.962388 
L 199.037885 61.580999 
L 199.552533 61.286985 
L 200.00285 61.069231 
L 200.64616 60.960604 
L 202.061442 60.432888 
L 202.511759 60.507789 
L 203.090738 60.594629 
L 203.348062 60.391025 
L 203.927041 59.758478 
L 204.313027 59.816389 
L 204.892006 59.860911 
L 205.14933 59.651002 
L 205.470985 59.032036 
L 205.79264 57.826256 
L 206.564613 53.569617 
L 207.465247 47.607152 
L 208.108557 43.775726 
L 208.623205 42.11575 
L 209.266515 40.831013 
L 209.845494 39.958728 
L 210.102818 39.873054 
L 210.488804 40.051792 
L 210.810459 40.129056 
L 211.196445 39.918617 
L 212.097079 39.410956 
L 212.80472 39.304091 
L 213.383699 39.360779 
L 213.834016 39.356914 
L 214.09134 39.555104 
L 214.477326 40.203877 
L 215.249299 42.050264 
L 215.763947 43.787758 
L 216.278595 46.309324 
L 216.793243 50.0131 
L 217.436553 56.462767 
L 218.272856 67.408848 
L 219.752469 86.664918 
L 220.846096 97.806728 
L 221.682399 104.450854 
L 222.39004 108.573871 
L 223.740992 114.776816 
L 224.448633 117.234023 
L 225.156274 118.870385 
L 226.18557 120.574351 
L 228.308493 123.632146 
L 228.951803 124.072055 
L 230.495747 124.780068 
L 231.460712 125.22406 
L 233.905291 125.677687 
L 236.349869 126.434328 
L 236.349869 126.434328 
" clip-path="url(#p10b1d39157)" style="fill: none; stroke: #1f77b4; stroke-width: 0.5; stroke-linecap: square"/>
   </g>
   <g id="line2d_16">
    <path d="M 43.356847 17.018109 
L 44.19315 16.690027 
L 45.158115 16.608982 
L 49.596955 16.686423 
L 55.258084 16.644986 
L 58.474634 16.5262 
L 72.756118 16.509296 
L 110.518419 16.612333 
L 114.957258 16.67347 
L 120.103739 16.605424 
L 123.320289 16.521186 
L 150.660967 16.49836 
L 177.615659 16.656476 
L 184.04876 16.630143 
L 187.393972 16.524206 
L 210.617466 16.4956 
L 236.349869 16.566791 
L 236.349869 16.566791 
" clip-path="url(#p10b1d39157)" style="fill: none; stroke: #ff7f0e; stroke-width: 0.5; stroke-linecap: square"/>
   </g>
   <g id="line2d_17">
    <path d="M 43.356847 17.018109 
L 45.158115 17.221619 
L 45.930088 17.199533 
L 47.023715 17.350839 
L 47.602694 17.268722 
L 48.824983 17.089161 
L 49.596955 17.192734 
L 50.240265 17.263121 
L 50.819244 17.062233 
L 51.719878 16.813103 
L 52.298857 16.855145 
L 53.521146 17.097212 
L 54.614774 17.067039 
L 55.386746 16.94156 
L 56.609035 16.64653 
L 57.188014 16.951855 
L 57.638331 17.09984 
L 58.152979 17.027477 
L 59.310937 16.68518 
L 60.597557 17.147602 
L 61.176536 16.653917 
L 61.948508 16.114857 
L 62.270163 16.259341 
L 63.299459 16.965779 
L 63.621115 16.900552 
L 64.200094 16.475761 
L 64.779073 16.111976 
L 65.165059 16.104336 
L 65.486714 16.302168 
L 66.258686 16.929994 
L 66.709003 16.917655 
L 67.545306 16.57419 
L 68.059954 16.465402 
L 68.703264 16.631268 
L 70.182877 17.182223 
L 70.697525 17.602439 
L 71.01918 17.555379 
L 71.984145 17.151379 
L 72.88478 17.272549 
L 73.592421 16.970015 
L 74.750379 16.378215 
L 75.136365 16.741716 
L 75.715344 17.311105 
L 76.294323 17.378061 
L 77.001964 17.393474 
L 77.645274 17.044333 
L 78.159922 16.863859 
L 78.545908 16.945175 
L 79.253549 17.132753 
L 80.282845 17.198162 
L 80.861824 17.104265 
L 82.212776 16.805301 
L 84.786016 17.590034 
L 85.364995 17.764663 
L 86.715946 17.637607 
L 87.230594 17.300885 
L 88.388552 16.469933 
L 89.031862 16.25451 
L 89.803834 16.340185 
L 90.640138 16.523898 
L 91.347779 16.926094 
L 91.926758 17.260759 
L 92.377075 17.259531 
L 93.406371 16.942194 
L 94.692991 16.508038 
L 95.464963 16.529273 
L 97.2019 16.668037 
L 98.424189 16.56552 
L 100.675775 17.189294 
L 101.254754 16.984634 
L 101.898064 16.786014 
L 102.541374 16.923348 
L 103.313346 17.285249 
L 103.956656 17.5367 
L 104.792959 17.480558 
L 105.371938 17.265862 
L 106.208241 16.881386 
L 106.722889 16.904233 
L 107.752185 17.097288 
L 109.360461 16.983456 
L 110.196764 16.891779 
L 111.676377 17.032259 
L 112.384018 16.681408 
L 113.027328 16.478049 
L 113.413314 16.610094 
L 114.635603 17.381852 
L 115.150251 17.344927 
L 116.308209 16.904148 
L 117.015851 16.805242 
L 117.59483 17.002377 
L 118.366802 17.259061 
L 119.331767 17.221023 
L 119.975077 17.121634 
L 120.425394 17.380088 
L 121.004373 17.696962 
L 121.390359 17.668756 
L 121.712014 17.389963 
L 122.483986 16.595937 
L 122.805641 16.651068 
L 123.770606 17.032229 
L 124.156592 16.923775 
L 125.121557 16.388933 
L 125.443212 16.59625 
L 126.279516 17.332425 
L 126.53684 17.26015 
L 126.858495 16.87292 
L 127.244481 16.399186 
L 127.437474 16.425578 
L 127.759129 16.84021 
L 128.209446 17.38688 
L 128.531101 17.492303 
L 128.852756 17.361327 
L 130.010714 16.570179 
L 130.654024 16.795686 
L 131.490327 17.323084 
L 131.876313 17.231827 
L 132.262299 16.888605 
L 132.776947 16.442309 
L 133.034271 16.532438 
L 133.355926 16.972962 
L 133.870574 17.674104 
L 134.063567 17.681418 
L 134.320891 17.428757 
L 135.157195 16.392111 
L 135.414519 16.452839 
L 135.736174 16.804883 
L 136.572477 17.859702 
L 136.829801 17.861976 
L 137.151456 17.60422 
L 138.180752 16.497016 
L 138.502407 16.535556 
L 138.888393 16.93184 
L 139.33871 17.364881 
L 139.660365 17.35689 
L 140.046351 17.067574 
L 140.882654 16.368892 
L 141.26864 16.304278 
L 141.783288 16.515077 
L 142.876915 17.004109 
L 143.520225 17.02267 
L 144.871177 16.816735 
L 145.70748 16.739199 
L 146.801107 16.574137 
L 147.251424 16.722663 
L 148.859699 17.700242 
L 150.017657 17.734147 
L 150.596636 17.504145 
L 152.011918 16.694189 
L 152.976884 16.452048 
L 154.906814 16.738056 
L 155.743117 17.078509 
L 156.643751 17.124444 
L 157.930371 16.939253 
L 158.895336 16.80928 
L 162.176218 17.112147 
L 163.076852 17.234514 
L 164.363472 17.513085 
L 164.942451 17.638141 
L 165.585761 17.451847 
L 166.615057 17.134411 
L 167.45136 17.08683 
L 168.223332 16.984212 
L 170.539249 16.678633 
L 171.182559 16.752534 
L 172.018862 16.893871 
L 172.855165 16.791385 
L 173.498475 16.68042 
L 174.206116 16.874913 
L 175.042419 17.20042 
L 175.428405 17.07969 
L 176.200377 16.742604 
L 176.650694 16.820322 
L 177.937314 17.205561 
L 178.644955 16.948691 
L 179.352597 16.800805 
L 181.732844 16.836132 
L 183.083795 16.677272 
L 183.727105 16.695878 
L 184.627739 16.929457 
L 185.464042 17.346917 
L 185.785697 17.169188 
L 186.557669 16.58337 
L 186.879324 16.645931 
L 187.972951 17.106857 
L 188.937917 16.883161 
L 189.967213 16.923528 
L 190.996509 16.909402 
L 191.832812 16.971869 
L 193.441087 17.016581 
L 195.049362 17.712615 
L 195.306686 17.531821 
L 196.142989 16.681878 
L 196.464644 16.704219 
L 196.721968 16.949812 
L 197.493941 17.969839 
L 197.751265 17.861913 
L 198.265913 17.19641 
L 198.909223 16.522722 
L 199.35954 16.28545 
L 199.681195 16.295848 
L 200.067181 16.566363 
L 200.581829 16.88582 
L 201.032146 16.852932 
L 201.675456 16.816048 
L 202.511759 16.948157 
L 203.155069 17.170366 
L 205.084999 17.023305 
L 205.599647 17.29604 
L 206.178627 17.553232 
L 206.821937 17.504479 
L 208.044226 17.337242 
L 209.652501 17.69718 
L 210.681797 17.978847 
L 211.132114 17.804211 
L 212.16141 17.32554 
L 213.062044 16.985898 
L 213.641023 16.959972 
L 214.09134 17.114946 
L 215.184968 17.690653 
L 215.635285 17.643872 
L 216.149933 17.355982 
L 217.372222 16.556483 
L 217.88687 16.449268 
L 218.272856 16.62891 
L 220.267117 17.847028 
L 220.846096 17.817677 
L 221.553737 17.582985 
L 222.39004 17.014947 
L 222.969019 16.698617 
L 223.67666 16.586878 
L 224.89895 16.617139 
L 225.477929 16.866262 
L 226.18557 17.162029 
L 226.893211 17.170551 
L 228.501486 16.966595 
L 229.273458 17.2235 
L 230.04543 17.513275 
L 230.817402 17.559584 
L 231.718036 17.398316 
L 233.454974 17.028597 
L 234.741594 17.054895 
L 235.642228 17.208742 
L 236.349869 17.312007 
L 236.349869 17.312007 
" clip-path="url(#p10b1d39157)" style="fill: none; stroke: #2ca02c; stroke-width: 0.5; stroke-linecap: square"/>
   </g>
   <g id="patch_3">
    <path d="M 33.707196 202.559296 
L 33.707196 7.2 
" style="fill: none; stroke: #000000; stroke-width: 0.8; stroke-linejoin: miter; stroke-linecap: square"/>
   </g>
   <g id="patch_4">
    <path d="M 245.99952 202.559296 
L 245.99952 7.2 
" style="fill: none; stroke: #000000; stroke-width: 0.8; stroke-linejoin: miter; stroke-linecap: square"/>
   </g>
   <g id="patch_5">
    <path d="M 33.707196 202.559296 
L 245.99952 202.559296 
" style="fill: none; stroke: #000000; stroke-width: 0.8; stroke-linejoin: miter; stroke-linecap: square"/>
   </g>
   <g id="patch_6">
    <path d="M 33.707196 7.2 
L 245.99952 7.2 
" style="fill: none; stroke: #000000; stroke-width: 0.8; stroke-linejoin: miter; stroke-linecap: square"/>
   </g>
   <g id="legend_1">
    <g id="patch_7">
     <path d="M 193.792605 198.059296 
L 239.69952 198.059296 
Q 241.49952 198.059296 241.49952 196.259296 
L 241.49952 156.760168 
Q 241.49952 154.960168 239.69952 154.960168 
L 193.792605 154.960168 
Q 191.992605 154.960168 191.992605 156.760168 
L 191.992605 196.259296 
Q 191.992605 198.059296 193.792605 198.059296 
z
" style="fill: #ffffff; opacity: 0.8; stroke: #cccccc; stroke-width: 0.24; stroke-linejoin: miter"/>
    </g>
    <g id="line2d_18">
     <path d="M 195.592605 162.13495 
L 204.592605 162.13495 
L 213.592605 162.13495 
" style="fill: none; stroke: #1f77b4; stroke-width: 0.5; stroke-linecap: square"/>
    </g>
    <g id="text_16">
     <!-- $\langle \sigma_z\rangle$ -->
     <g transform="translate(220.792605 165.28495) scale(0.09 -0.09)">
      <defs>
       <path id="CMSY10-68" d="M 2099 4557 
C 2131 4627 2131 4640 2131 4672 
C 2131 4742 2074 4800 2003 4800 
C 1946 4800 1901 4768 1856 4653 
L 736 1715 
C 723 1677 704 1638 704 1600 
C 704 1581 704 1568 736 1491 
L 1856 -1446 
C 1882 -1517 1914 -1600 2003 -1600 
C 2074 -1600 2131 -1542 2131 -1472 
C 2131 -1453 2131 -1440 2099 -1370 
L 966 1600 
L 2099 4557 
z
" transform="scale(0.015625)"/>
       <path id="CMMI12-1b" d="M 3251 2408 
C 3334 2408 3546 2408 3546 2612 
C 3546 2752 3424 2752 3309 2752 
L 1894 2752 
C 934 2752 243 1686 243 932 
C 243 390 595 -64 1171 -64 
C 1926 -64 2752 747 2752 1705 
C 2752 1954 2694 2196 2541 2408 
L 3251 2408 
z
M 1178 64 
C 851 64 614 313 614 754 
C 614 1137 845 2408 1786 2408 
C 2061 2408 2368 2274 2368 1781 
C 2368 1558 2266 1021 2042 652 
C 1811 275 1466 64 1178 64 
z
" transform="scale(0.015625)"/>
       <path id="CMMI12-7a" d="M 813 486 
C 1088 803 1312 1004 1632 1296 
C 2016 1632 2182 1793 2272 1891 
C 2720 2338 2944 2713 2944 2764 
C 2944 2816 2893 2816 2880 2816 
C 2835 2816 2822 2793 2790 2750 
C 2630 2494 2477 2367 2310 2367 
C 2176 2367 2106 2421 1984 2565 
C 1850 2715 1741 2816 1555 2816 
C 1088 2816 806 2257 806 2128 
C 806 2108 813 2068 870 2068 
C 922 2068 928 2091 947 2133 
C 1056 2372 1363 2414 1485 2414 
C 1619 2414 1747 2376 1882 2327 
C 2125 2240 2227 2240 2291 2240 
C 2336 2240 2362 2240 2394 2246 
C 2182 1994 1837 1683 1549 1418 
L 902 816 
C 512 415 275 33 275 -12 
C 275 -51 307 -64 346 -64 
C 384 -64 390 -57 435 14 
C 538 163 742 384 979 384 
C 1114 384 1178 342 1306 193 
C 1427 61 1536 -64 1741 -64 
C 2368 -64 2726 732 2726 876 
C 2726 903 2720 942 2656 942 
C 2605 942 2598 917 2579 855 
C 2438 488 2061 338 1811 338 
C 1677 338 1549 376 1414 425 
C 1158 512 1088 512 1005 512 
C 941 512 870 512 813 486 
z
" transform="scale(0.015625)"/>
       <path id="CMSY10-69" d="M 1747 1491 
C 1779 1568 1779 1581 1779 1600 
C 1779 1619 1779 1632 1747 1709 
L 627 4653 
C 589 4762 550 4800 480 4800 
C 410 4800 352 4742 352 4672 
C 352 4653 352 4640 384 4570 
L 1517 1600 
L 384 -1357 
C 352 -1427 352 -1440 352 -1472 
C 352 -1542 410 -1600 480 -1600 
C 563 -1600 589 -1536 614 -1472 
L 1747 1491 
z
" transform="scale(0.015625)"/>
      </defs>
      <use xlink:href="#CMSY10-68" transform="scale(0.996264)"/>
      <use xlink:href="#CMMI12-1b" transform="translate(38.743734 0) scale(0.996264)"/>
      <use xlink:href="#CMMI12-7a" transform="translate(94.189195 -14.943915) scale(0.697382)"/>
      <use xlink:href="#CMSY10-69" transform="translate(129.51575 0) scale(0.996264)"/>
     </g>
    </g>
    <g id="line2d_19">
     <path d="M 195.592605 175.601326 
L 204.592605 175.601326 
L 213.592605 175.601326 
" style="fill: none; stroke: #ff7f0e; stroke-width: 0.5; stroke-linecap: square"/>
    </g>
    <g id="text_17">
     <!-- $\langle \sigma_x\rangle$ -->
     <g transform="translate(220.792605 178.751326) scale(0.09 -0.09)">
      <defs>
       <path id="CMMI12-78" d="M 3034 2606 
C 2829 2567 2752 2414 2752 2293 
C 2752 2139 2874 2088 2963 2088 
C 3155 2088 3290 2254 3290 2427 
C 3290 2695 2982 2816 2714 2816 
C 2323 2816 2106 2433 2048 2312 
C 1901 2816 1504 2816 1389 2816 
C 736 2816 390 1980 390 1839 
C 390 1814 416 1782 461 1782 
C 512 1782 525 1820 538 1846 
C 755 2555 1184 2689 1370 2689 
C 1658 2689 1715 2420 1715 2267 
C 1715 2127 1677 1980 1600 1673 
L 1382 798 
C 1286 415 1101 64 762 64 
C 730 64 570 64 435 147 
C 666 192 717 383 717 460 
C 717 588 621 664 499 664 
C 346 664 179 530 179 326 
C 179 57 480 -64 755 -64 
C 1062 -64 1280 179 1414 441 
C 1517 64 1837 -64 2074 -64 
C 2726 -64 3072 773 3072 913 
C 3072 945 3046 971 3008 971 
C 2950 971 2944 939 2925 888 
C 2752 326 2381 64 2093 64 
C 1869 64 1747 230 1747 492 
C 1747 632 1773 734 1875 1156 
L 2099 2024 
C 2195 2408 2413 2689 2707 2689 
C 2720 2689 2899 2689 3034 2606 
z
" transform="scale(0.015625)"/>
      </defs>
      <use xlink:href="#CMSY10-68" transform="scale(0.996264)"/>
      <use xlink:href="#CMMI12-1b" transform="translate(38.743734 0) scale(0.996264)"/>
      <use xlink:href="#CMMI12-78" transform="translate(94.189195 -14.943915) scale(0.697382)"/>
      <use xlink:href="#CMSY10-69" transform="translate(133.490986 0) scale(0.996264)"/>
     </g>
    </g>
    <g id="line2d_20">
     <path d="M 195.592605 189.067702 
L 204.592605 189.067702 
L 213.592605 189.067702 
" style="fill: none; stroke: #2ca02c; stroke-width: 0.5; stroke-linecap: square"/>
    </g>
    <g id="text_18">
     <!-- $\langle \sigma_y\rangle$ -->
     <g transform="translate(220.792605 192.217702) scale(0.09 -0.09)">
      <defs>
       <path id="CMMI12-79" d="M 1683 -700 
C 1510 -939 1261 -1152 947 -1152 
C 870 -1152 563 -1152 467 -889 
C 486 -895 518 -895 531 -895 
C 723 -895 851 -729 851 -582 
C 851 -435 730 -384 634 -384 
C 531 -384 307 -458 307 -759 
C 307 -1071 582 -1286 947 -1286 
C 1587 -1286 2234 -700 2413 6 
L 3040 2485 
C 3046 2517 3059 2556 3059 2594 
C 3059 2689 2982 2753 2886 2753 
C 2829 2753 2694 2727 2643 2535 
L 2170 658 
C 2138 543 2138 530 2086 460 
C 1958 281 1747 64 1440 64 
C 1082 64 1050 415 1050 588 
C 1050 952 1222 1443 1395 1903 
C 1466 2088 1504 2178 1504 2305 
C 1504 2574 1312 2816 998 2816 
C 410 2816 173 1890 173 1839 
C 173 1814 198 1782 243 1782 
C 301 1782 307 1807 333 1897 
C 486 2433 730 2689 979 2689 
C 1037 2689 1146 2689 1146 2478 
C 1146 2312 1075 2127 979 1884 
C 666 1047 666 837 666 683 
C 666 77 1101 -64 1421 -64 
C 1606 -64 1837 -6 2061 230 
L 2067 224 
C 1971 -147 1907 -392 1683 -700 
z
" transform="scale(0.015625)"/>
      </defs>
      <use xlink:href="#CMSY10-68" transform="scale(0.996264)"/>
      <use xlink:href="#CMMI12-1b" transform="translate(38.743734 0) scale(0.996264)"/>
      <use xlink:href="#CMMI12-79" transform="translate(94.189195 -14.943915) scale(0.697382)"/>
      <use xlink:href="#CMSY10-69" transform="translate(130.484301 0) scale(0.996264)"/>
     </g>
    </g>
   </g>
  </g>
 </g>
 <defs>
  <clipPath id="p10b1d39157">
   <rect x="33.707196" y="7.2" width="212.292324" height="195.359296"/>
  </clipPath>
 </defs>
</svg>
