<?xml version="1.0" encoding="utf-8" standalone="no"?>
<!DOCTYPE svg PUBLIC "-//W3C//DTD SVG 1.1//EN"
  "http://www.w3.org/Graphics/SVG/1.1/DTD/svg11.dtd">
<svg xmlns:xlink="http://www.w3.org/1999/xlink" width="253.19952pt" height="238.79952pt" viewBox="0 0 253.19952 238.79952" xmlns="http://www.w3.org/2000/svg" version="1.1">
 <metadata>
  <rdf:RDF xmlns:dc="http://purl.org/dc/elements/1.1/" xmlns:cc="http://creativecommons.org/ns#" xmlns:rdf="http://www.w3.org/1999/02/22-rdf-syntax-ns#">
   <cc:Work>
    <dc:type rdf:resource="http://purl.org/dc/dcmitype/StillImage"/>
    <dc:date>1980-01-01T00:00:00+00:00</dc:date>
    <dc:format>image/svg+xml</dc:format>
    <dc:creator>
     <cc:Agent>
      <dc:title>Matplotlib v3.6.2, https://matplotlib.org/</dc:title>
     </cc:Agent>
    </dc:creator>
   </cc:Work>
  </rdf:RDF>
 </metadata>
 <defs>
  <style type="text/css">*{stroke-linejoin: round; stroke-linecap: butt}</style>
 </defs>
 <g id="figure_1">
  <g id="patch_1">
   <path d="M 0 238.79952 
L 253.19952 238.79952 
L 253.19952 0 
L 0 0 
z
" style="fill: #ffffff"/>
  </g>
  <g id="axes_1">
   <g id="patch_2">
    <path d="M 33.707196 202.559296 
L 245.99952 202.559296 
L 245.99952 7.2 
L 33.707196 7.2 
z
" style="fill: #ffffff"/>
   </g>
   <g id="matplotlib.axis_1">
    <g id="xtick_1">
     <g id="line2d_1">
      <defs>
       <path id="m74463487ae" d="M 0 0 
L 0 3.5 
" style="stroke: #000000; stroke-width: 0.8"/>
      </defs>
      <g>
       <use xlink:href="#m74463487ae" x="43.356847" y="202.559296" style="stroke: #000000; stroke-width: 0.8"/>
      </g>
     </g>
     <g id="text_1">
      <!-- $\mathdefault{0}$ -->
      <g transform="translate(41.239756 217.194098) scale(0.08 -0.08)">
       <defs>
        <path id="CMR17-30" d="M 2688 2025 
C 2688 2416 2682 3080 2413 3591 
C 2176 4039 1798 4198 1466 4198 
C 1158 4198 768 4058 525 3597 
C 269 3118 243 2524 243 2025 
C 243 1661 250 1106 448 619 
C 723 -39 1216 -128 1466 -128 
C 1760 -128 2208 -7 2470 600 
C 2662 1042 2688 1559 2688 2025 
z
M 1466 -26 
C 1056 -26 813 325 723 812 
C 653 1188 653 1738 653 2096 
C 653 2588 653 2997 736 3387 
C 858 3929 1216 4096 1466 4096 
C 1728 4096 2067 3923 2189 3400 
C 2272 3036 2278 2607 2278 2096 
C 2278 1680 2278 1169 2202 792 
C 2067 95 1690 -26 1466 -26 
z
" transform="scale(0.015625)"/>
       </defs>
       <use xlink:href="#CMR17-30" transform="scale(0.996264)"/>
      </g>
     </g>
    </g>
    <g id="xtick_2">
     <g id="line2d_2">
      <g>
       <use xlink:href="#m74463487ae" x="70.161434" y="202.559296" style="stroke: #000000; stroke-width: 0.8"/>
      </g>
     </g>
     <g id="text_2">
      <!-- $\mathdefault{25}$ -->
      <g transform="translate(65.927251 217.194098) scale(0.08 -0.08)">
       <defs>
        <path id="CMR17-32" d="M 2669 989 
L 2554 989 
C 2490 536 2438 459 2413 420 
C 2381 369 1920 369 1830 369 
L 602 369 
C 832 619 1280 1072 1824 1597 
C 2214 1967 2669 2402 2669 3035 
C 2669 3790 2067 4224 1395 4224 
C 691 4224 262 3604 262 3030 
C 262 2780 448 2748 525 2748 
C 589 2748 781 2787 781 3010 
C 781 3207 614 3264 525 3264 
C 486 3264 448 3258 422 3245 
C 544 3790 915 4058 1306 4058 
C 1862 4058 2227 3617 2227 3035 
C 2227 2479 1901 2000 1536 1584 
L 262 146 
L 262 0 
L 2515 0 
L 2669 989 
z
" transform="scale(0.015625)"/>
        <path id="CMR17-35" d="M 730 3692 
C 794 3666 1056 3584 1325 3584 
C 1920 3584 2246 3911 2432 4100 
C 2432 4157 2432 4192 2394 4192 
C 2387 4192 2374 4192 2323 4163 
C 2099 4058 1837 3973 1517 3973 
C 1325 3973 1037 3999 723 4139 
C 653 4171 640 4171 634 4171 
C 602 4171 595 4164 595 4037 
L 595 2203 
C 595 2089 595 2057 659 2057 
C 691 2057 704 2070 736 2114 
C 941 2401 1222 2522 1542 2522 
C 1766 2522 2246 2382 2246 1289 
C 2246 1085 2246 715 2054 421 
C 1894 159 1645 25 1370 25 
C 947 25 518 320 403 814 
C 429 807 480 795 506 795 
C 589 795 749 840 749 1038 
C 749 1210 627 1280 506 1280 
C 358 1280 262 1190 262 1011 
C 262 454 704 -128 1382 -128 
C 2042 -128 2669 440 2669 1264 
C 2669 2030 2170 2624 1549 2624 
C 1222 2624 947 2503 730 2274 
L 730 3692 
z
" transform="scale(0.015625)"/>
       </defs>
       <use xlink:href="#CMR17-32" transform="scale(0.996264)"/>
       <use xlink:href="#CMR17-35" transform="translate(45.690477 0) scale(0.996264)"/>
      </g>
     </g>
    </g>
    <g id="xtick_3">
     <g id="line2d_3">
      <g>
       <use xlink:href="#m74463487ae" x="96.96602" y="202.559296" style="stroke: #000000; stroke-width: 0.8"/>
      </g>
     </g>
     <g id="text_3">
      <!-- $\mathdefault{50}$ -->
      <g transform="translate(92.731837 217.194098) scale(0.08 -0.08)">
       <use xlink:href="#CMR17-35" transform="scale(0.996264)"/>
       <use xlink:href="#CMR17-30" transform="translate(45.690477 0) scale(0.996264)"/>
      </g>
     </g>
    </g>
    <g id="xtick_4">
     <g id="line2d_4">
      <g>
       <use xlink:href="#m74463487ae" x="123.770606" y="202.559296" style="stroke: #000000; stroke-width: 0.8"/>
      </g>
     </g>
     <g id="text_4">
      <!-- $\mathdefault{75}$ -->
      <g transform="translate(119.536423 217.194098) scale(0.08 -0.08)">
       <defs>
        <path id="CMR17-37" d="M 2886 3941 
L 2886 4081 
L 1382 4081 
C 634 4081 621 4165 595 4288 
L 480 4288 
L 294 3094 
L 410 3094 
C 429 3215 474 3540 550 3661 
C 589 3712 1062 3712 1171 3712 
L 2579 3712 
L 1869 2661 
C 1395 1954 1069 999 1069 165 
C 1069 89 1069 -128 1299 -128 
C 1530 -128 1530 89 1530 171 
L 1530 465 
C 1530 1508 1709 2196 2003 2636 
L 2886 3941 
z
" transform="scale(0.015625)"/>
       </defs>
       <use xlink:href="#CMR17-37" transform="scale(0.996264)"/>
       <use xlink:href="#CMR17-35" transform="translate(45.690477 0) scale(0.996264)"/>
      </g>
     </g>
    </g>
    <g id="xtick_5">
     <g id="line2d_5">
      <g>
       <use xlink:href="#m74463487ae" x="150.575193" y="202.559296" style="stroke: #000000; stroke-width: 0.8"/>
      </g>
     </g>
     <g id="text_5">
      <!-- $\mathdefault{100}$ -->
      <g transform="translate(144.223918 217.194098) scale(0.08 -0.08)">
       <defs>
        <path id="CMR17-31" d="M 1702 4058 
C 1702 4192 1696 4192 1606 4192 
C 1357 3916 979 3827 621 3827 
C 602 3827 570 3827 563 3808 
C 557 3795 557 3782 557 3648 
C 755 3648 1088 3686 1344 3839 
L 1344 461 
C 1344 236 1331 160 781 160 
L 589 160 
L 589 0 
C 896 0 1216 0 1523 0 
C 1830 0 2150 0 2458 0 
L 2458 160 
L 2266 160 
C 1715 160 1702 230 1702 458 
L 1702 4058 
z
" transform="scale(0.015625)"/>
       </defs>
       <use xlink:href="#CMR17-31" transform="scale(0.996264)"/>
       <use xlink:href="#CMR17-30" transform="translate(45.690477 0) scale(0.996264)"/>
       <use xlink:href="#CMR17-30" transform="translate(91.380954 0) scale(0.996264)"/>
      </g>
     </g>
    </g>
    <g id="xtick_6">
     <g id="line2d_6">
      <g>
       <use xlink:href="#m74463487ae" x="177.379779" y="202.559296" style="stroke: #000000; stroke-width: 0.8"/>
      </g>
     </g>
     <g id="text_6">
      <!-- $\mathdefault{125}$ -->
      <g transform="translate(171.028505 217.194098) scale(0.08 -0.08)">
       <use xlink:href="#CMR17-31" transform="scale(0.996264)"/>
       <use xlink:href="#CMR17-32" transform="translate(45.690477 0) scale(0.996264)"/>
       <use xlink:href="#CMR17-35" transform="translate(91.380954 0) scale(0.996264)"/>
      </g>
     </g>
    </g>
    <g id="xtick_7">
     <g id="line2d_7">
      <g>
       <use xlink:href="#m74463487ae" x="204.184365" y="202.559296" style="stroke: #000000; stroke-width: 0.8"/>
      </g>
     </g>
     <g id="text_7">
      <!-- $\mathdefault{150}$ -->
      <g transform="translate(197.833091 217.194098) scale(0.08 -0.08)">
       <use xlink:href="#CMR17-31" transform="scale(0.996264)"/>
       <use xlink:href="#CMR17-35" transform="translate(45.690477 0) scale(0.996264)"/>
       <use xlink:href="#CMR17-30" transform="translate(91.380954 0) scale(0.996264)"/>
      </g>
     </g>
    </g>
    <g id="xtick_8">
     <g id="line2d_8">
      <g>
       <use xlink:href="#m74463487ae" x="230.988952" y="202.559296" style="stroke: #000000; stroke-width: 0.8"/>
      </g>
     </g>
     <g id="text_8">
      <!-- $\mathdefault{175}$ -->
      <g transform="translate(224.637677 217.194098) scale(0.08 -0.08)">
       <use xlink:href="#CMR17-31" transform="scale(0.996264)"/>
       <use xlink:href="#CMR17-37" transform="translate(45.690477 0) scale(0.996264)"/>
       <use xlink:href="#CMR17-35" transform="translate(91.380954 0) scale(0.996264)"/>
      </g>
     </g>
    </g>
    <g id="text_9">
     <!-- $\tau$ -->
     <g transform="translate(137.675756 229.662342) scale(0.1 -0.1)">
      <defs>
       <path id="CMMI12-1c" d="M 1837 2408 
L 2899 2408 
C 2982 2408 3194 2408 3194 2612 
C 3194 2752 3072 2752 2957 2752 
L 1197 2752 
C 1050 2752 832 2752 538 2440 
C 371 2255 166 1917 166 1879 
C 166 1841 198 1828 237 1828 
C 282 1828 288 1847 320 1885 
C 653 2408 986 2408 1146 2408 
L 1677 2408 
L 1011 223 
C 979 127 979 114 979 95 
C 979 25 1024 -64 1152 -64 
C 1350 -64 1382 108 1402 203 
L 1837 2408 
z
" transform="scale(0.015625)"/>
      </defs>
      <use xlink:href="#CMMI12-1c" transform="scale(0.996264)"/>
     </g>
    </g>
   </g>
   <g id="matplotlib.axis_2">
    <g id="ytick_1">
     <g id="line2d_9">
      <defs>
       <path id="m611325280e" d="M 0 0 
L -3.5 0 
" style="stroke: #000000; stroke-width: 0.8"/>
      </defs>
      <g>
       <use xlink:href="#m611325280e" x="33.707196" y="193.679328" style="stroke: #000000; stroke-width: 0.8"/>
      </g>
     </g>
     <g id="text_10">
      <!-- $\mathdefault{−1.0}$ -->
      <g transform="translate(7.2 196.446729) scale(0.08 -0.08)">
       <defs>
        <path id="CMSY10-0" d="M 4218 1472 
C 4326 1472 4442 1472 4442 1600 
C 4442 1728 4326 1728 4218 1728 
L 755 1728 
C 646 1728 531 1728 531 1600 
C 531 1472 646 1472 755 1472 
L 4218 1472 
z
" transform="scale(0.015625)"/>
        <path id="CMMI12-3a" d="M 1178 307 
C 1178 492 1024 619 870 619 
C 685 619 557 466 557 313 
C 557 128 710 0 864 0 
C 1050 0 1178 153 1178 307 
z
" transform="scale(0.015625)"/>
       </defs>
       <use xlink:href="#CMSY10-0" transform="scale(0.996264)"/>
       <use xlink:href="#CMR17-31" transform="translate(77.487468 0) scale(0.996264)"/>
       <use xlink:href="#CMMI12-3a" transform="translate(123.177945 0) scale(0.996264)"/>
       <use xlink:href="#CMR17-30" transform="translate(150.275122 0) scale(0.996264)"/>
      </g>
     </g>
    </g>
    <g id="ytick_2">
     <g id="line2d_10">
      <g>
       <use xlink:href="#m611325280e" x="33.707196" y="158.345494" style="stroke: #000000; stroke-width: 0.8"/>
      </g>
     </g>
     <g id="text_11">
      <!-- $\mathdefault{−0.8}$ -->
      <g transform="translate(7.2 161.112895) scale(0.08 -0.08)">
       <defs>
        <path id="CMR17-38" d="M 1741 2264 
C 2144 2467 2554 2773 2554 3263 
C 2554 3841 1990 4179 1472 4179 
C 890 4179 378 3759 378 3180 
C 378 3021 416 2747 666 2505 
C 730 2442 998 2251 1171 2130 
C 883 1983 211 1634 211 934 
C 211 279 838 -128 1459 -128 
C 2144 -128 2720 362 2720 1010 
C 2720 1590 2330 1857 2074 2029 
L 1741 2264 
z
M 902 2822 
C 851 2854 595 3051 595 3351 
C 595 3739 998 4032 1459 4032 
C 1965 4032 2336 3676 2336 3262 
C 2336 2669 1670 2331 1638 2331 
C 1632 2331 1626 2331 1574 2370 
L 902 2822 
z
M 2080 1519 
C 2176 1449 2483 1240 2483 851 
C 2483 381 2010 25 1472 25 
C 890 25 448 438 448 940 
C 448 1443 838 1862 1280 2060 
L 2080 1519 
z
" transform="scale(0.015625)"/>
       </defs>
       <use xlink:href="#CMSY10-0" transform="scale(0.996264)"/>
       <use xlink:href="#CMR17-30" transform="translate(77.487468 0) scale(0.996264)"/>
       <use xlink:href="#CMMI12-3a" transform="translate(123.177945 0) scale(0.996264)"/>
       <use xlink:href="#CMR17-38" transform="translate(150.275122 0) scale(0.996264)"/>
      </g>
     </g>
    </g>
    <g id="ytick_3">
     <g id="line2d_11">
      <g>
       <use xlink:href="#m611325280e" x="33.707196" y="123.01166" style="stroke: #000000; stroke-width: 0.8"/>
      </g>
     </g>
     <g id="text_12">
      <!-- $\mathdefault{−0.6}$ -->
      <g transform="translate(7.2 125.779061) scale(0.08 -0.08)">
       <defs>
        <path id="CMR17-36" d="M 678 2176 
C 678 3690 1395 4032 1811 4032 
C 1946 4032 2272 4009 2400 3776 
C 2298 3776 2106 3776 2106 3553 
C 2106 3381 2246 3323 2336 3323 
C 2394 3323 2566 3348 2566 3560 
C 2566 3954 2246 4179 1805 4179 
C 1043 4179 243 3390 243 1984 
C 243 253 966 -128 1478 -128 
C 2099 -128 2688 427 2688 1283 
C 2688 2081 2170 2662 1517 2662 
C 1126 2662 838 2407 678 1960 
L 678 2176 
z
M 1478 25 
C 691 25 691 1200 691 1436 
C 691 1896 909 2560 1504 2560 
C 1613 2560 1926 2560 2138 2120 
C 2253 1870 2253 1609 2253 1289 
C 2253 944 2253 690 2118 434 
C 1978 171 1773 25 1478 25 
z
" transform="scale(0.015625)"/>
       </defs>
       <use xlink:href="#CMSY10-0" transform="scale(0.996264)"/>
       <use xlink:href="#CMR17-30" transform="translate(77.487468 0) scale(0.996264)"/>
       <use xlink:href="#CMMI12-3a" transform="translate(123.177945 0) scale(0.996264)"/>
       <use xlink:href="#CMR17-36" transform="translate(150.275122 0) scale(0.996264)"/>
      </g>
     </g>
    </g>
    <g id="ytick_4">
     <g id="line2d_12">
      <g>
       <use xlink:href="#m611325280e" x="33.707196" y="87.677826" style="stroke: #000000; stroke-width: 0.8"/>
      </g>
     </g>
     <g id="text_13">
      <!-- $\mathdefault{−0.4}$ -->
      <g transform="translate(7.2 90.445227) scale(0.08 -0.08)">
       <defs>
        <path id="CMR17-34" d="M 2150 4122 
C 2150 4256 2144 4256 2029 4256 
L 128 1254 
L 128 1088 
L 1779 1088 
L 1779 457 
C 1779 224 1766 160 1318 160 
L 1197 160 
L 1197 0 
C 1402 0 1747 0 1965 0 
C 2182 0 2528 0 2733 0 
L 2733 160 
L 2611 160 
C 2163 160 2150 224 2150 457 
L 2150 1088 
L 2803 1088 
L 2803 1254 
L 2150 1254 
L 2150 4122 
z
M 1798 3703 
L 1798 1254 
L 256 1254 
L 1798 3703 
z
" transform="scale(0.015625)"/>
       </defs>
       <use xlink:href="#CMSY10-0" transform="scale(0.996264)"/>
       <use xlink:href="#CMR17-30" transform="translate(77.487468 0) scale(0.996264)"/>
       <use xlink:href="#CMMI12-3a" transform="translate(123.177945 0) scale(0.996264)"/>
       <use xlink:href="#CMR17-34" transform="translate(150.275122 0) scale(0.996264)"/>
      </g>
     </g>
    </g>
    <g id="ytick_5">
     <g id="line2d_13">
      <g>
       <use xlink:href="#m611325280e" x="33.707196" y="52.343992" style="stroke: #000000; stroke-width: 0.8"/>
      </g>
     </g>
     <g id="text_14">
      <!-- $\mathdefault{−0.2}$ -->
      <g transform="translate(7.2 55.111393) scale(0.08 -0.08)">
       <use xlink:href="#CMSY10-0" transform="scale(0.996264)"/>
       <use xlink:href="#CMR17-30" transform="translate(77.487468 0) scale(0.996264)"/>
       <use xlink:href="#CMMI12-3a" transform="translate(123.177945 0) scale(0.996264)"/>
       <use xlink:href="#CMR17-32" transform="translate(150.275122 0) scale(0.996264)"/>
      </g>
     </g>
    </g>
    <g id="ytick_6">
     <g id="line2d_14">
      <g>
       <use xlink:href="#m611325280e" x="33.707196" y="17.010158" style="stroke: #000000; stroke-width: 0.8"/>
      </g>
     </g>
     <g id="text_15">
      <!-- $\mathdefault{0.0}$ -->
      <g transform="translate(13.786507 19.777559) scale(0.08 -0.08)">
       <use xlink:href="#CMR17-30" transform="scale(0.996264)"/>
       <use xlink:href="#CMMI12-3a" transform="translate(45.690477 0) scale(0.996264)"/>
       <use xlink:href="#CMR17-30" transform="translate(72.787654 0) scale(0.996264)"/>
      </g>
     </g>
    </g>
   </g>
   <g id="line2d_15">
    <path d="M 43.356847 193.679328 
L 43.421178 193.347817 
L 43.614171 188.80997 
L 44.643467 154.361379 
L 44.965122 151.201734 
L 45.158115 150.787762 
L 45.286777 151.023757 
L 45.47977 152.018278 
L 45.865757 155.65558 
L 46.895053 166.283668 
L 47.281039 168.28348 
L 47.602694 169.029818 
L 49.082307 171.366637 
L 49.91861 173.105441 
L 50.626251 173.961363 
L 51.20523 174.383498 
L 51.912871 175.007064 
L 52.556181 175.864912 
L 53.456815 177.305462 
L 53.714139 177.364023 
L 53.907132 177.185474 
L 54.164456 176.508486 
L 54.42178 175.131486 
L 54.807767 171.548576 
L 55.258084 164.966265 
L 55.837063 152.997101 
L 58.024317 103.818762 
L 58.796289 92.711349 
L 59.50393 85.349686 
L 60.404564 78.792394 
L 61.498191 72.516939 
L 62.270163 69.10987 
L 62.849142 67.490014 
L 63.492453 66.309495 
L 64.200094 65.114071 
L 66.194355 61.603334 
L 66.709003 61.153052 
L 67.15932 61.195322 
L 67.480975 61.137388 
L 68.703264 60.564701 
L 69.925553 60.559671 
L 70.440201 60.243391 
L 71.276504 60.33782 
L 71.726821 60.206877 
L 72.370132 60.235808 
L 73.077773 60.501821 
L 73.52809 60.433618 
L 73.849745 60.430043 
L 74.557386 60.695417 
L 75.393689 60.522168 
L 76.358654 60.515725 
L 76.615978 60.297291 
L 77.001964 59.639251 
L 77.323619 58.675914 
L 77.709605 56.651782 
L 79.703866 43.82214 
L 80.282845 42.383614 
L 80.733162 41.749756 
L 81.183479 41.053876 
L 81.698128 40.323213 
L 82.148445 40.048768 
L 82.984748 39.644453 
L 83.75672 39.196227 
L 84.207037 38.884746 
L 84.528692 38.923158 
L 84.979009 39.208599 
L 85.750981 39.985446 
L 86.458622 40.917094 
L 86.844608 42.02387 
L 87.294925 44.106758 
L 87.809573 47.806328 
L 88.324221 53.324085 
L 89.031862 63.477943 
L 91.476441 101.264694 
L 92.441406 111.431932 
L 93.277709 118.054667 
L 94.049681 122.681588 
L 94.950315 126.795011 
L 95.593625 128.957659 
L 96.751583 131.671167 
L 97.587886 133.006713 
L 98.617182 134.166987 
L 100.675775 135.887152 
L 102.026726 136.523813 
L 103.056022 136.811723 
L 104.985952 136.996512 
L 105.564931 137.061952 
L 107.044544 137.194597 
L 108.00951 137.379807 
L 108.459827 137.452128 
L 108.717151 137.74642 
L 108.974475 138.450511 
L 109.29613 140.059321 
L 109.682116 143.25551 
L 110.454088 152.406374 
L 111.161729 159.70107 
L 111.676377 162.853775 
L 112.255356 164.977534 
L 114.185286 170.393277 
L 115.021589 172.102139 
L 116.887189 174.843466 
L 117.852154 176.424638 
L 118.109478 176.456871 
L 118.302471 176.227855 
L 118.559795 175.418009 
L 118.88145 173.379264 
L 119.267436 169.270804 
L 119.717753 162.058706 
L 120.425394 146.337179 
L 122.033669 109.240186 
L 122.869972 95.766293 
L 123.577613 87.693461 
L 124.606909 79.579049 
L 125.31455 75.19831 
L 126.601171 69.440114 
L 127.115819 68.180705 
L 127.694798 66.672648 
L 128.338108 65.123927 
L 128.852756 64.422546 
L 130.203707 62.965275 
L 130.589693 62.721852 
L 131.747651 61.727989 
L 133.034271 61.108473 
L 133.741912 60.771438 
L 134.192229 60.784487 
L 134.642546 60.481315 
L 135.285857 60.024164 
L 135.607512 60.118516 
L 136.12216 60.288231 
L 136.894132 60.333002 
L 137.344449 60.450932 
L 137.666104 60.223463 
L 138.05209 59.960684 
L 138.6954 59.943089 
L 139.145717 59.809453 
L 139.596034 59.551952 
L 140.175013 59.023506 
L 140.62533 59.294736 
L 141.011316 59.420832 
L 141.26864 59.25904 
L 141.525964 58.770103 
L 141.847619 57.479646 
L 142.362267 54.368845 
L 143.648888 46.025509 
L 144.292198 43.311843 
L 144.871177 41.744289 
L 145.450156 40.931114 
L 146.029135 40.544188 
L 146.415121 40.24578 
L 146.9941 39.417921 
L 147.573079 38.728599 
L 148.087727 38.47329 
L 148.859699 38.155563 
L 149.310016 38.034165 
L 149.56734 38.130672 
L 149.888995 38.510804 
L 150.403643 39.522635 
L 150.982622 41.091821 
L 151.49727 43.313966 
L 152.011918 46.615476 
L 152.526567 51.533504 
L 153.169877 60.139047 
L 156.257765 106.279553 
L 157.158399 114.901465 
L 157.930371 120.171601 
L 158.766674 124.440332 
L 159.79597 128.522747 
L 160.43928 130.11893 
L 161.08259 131.386629 
L 161.854563 132.753009 
L 162.497873 133.795984 
L 163.398507 134.879362 
L 164.106148 135.380387 
L 164.942451 135.88518 
L 165.650092 136.216834 
L 166.293402 136.420796 
L 167.194036 136.612286 
L 168.930973 137.103763 
L 170.217593 137.050815 
L 170.796573 137.228561 
L 171.697207 137.276864 
L 172.276186 137.304412 
L 172.726503 137.426957 
L 172.983827 137.69536 
L 173.241151 138.299521 
L 173.562806 139.764016 
L 173.948792 142.761475 
L 174.592102 149.930446 
L 175.428405 159.008128 
L 175.943053 162.432502 
L 176.457701 164.508485 
L 177.422666 167.239742 
L 179.223935 171.726118 
L 181.089534 174.554784 
L 182.11883 176.372955 
L 182.376154 176.46072 
L 182.569147 176.29676 
L 182.76214 175.851983 
L 183.019464 174.686469 
L 183.341119 172.229166 
L 183.727105 167.559458 
L 184.241753 158.238899 
L 185.142387 136.460662 
L 186.300345 110.299304 
L 187.072317 97.577478 
L 187.90862 87.751169 
L 188.809255 79.811345 
L 189.581227 74.835962 
L 190.160206 72.199436 
L 191.189502 68.824652 
L 192.34746 66.330918 
L 193.248094 64.203655 
L 194.341721 62.682578 
L 195.049362 62.165422 
L 195.499679 62.011703 
L 195.949996 61.887002 
L 199.102216 60.133712 
L 200.00285 59.947297 
L 200.774822 59.909383 
L 201.28947 60.079875 
L 201.868449 59.91758 
L 202.511759 59.721723 
L 203.86271 59.890037 
L 204.699013 59.825172 
L 205.084999 59.899418 
L 205.342323 59.644699 
L 205.663978 58.928118 
L 206.049965 57.428531 
L 206.757606 53.450998 
L 208.237219 44.824136 
L 208.751867 42.840221 
L 209.266515 41.748114 
L 209.781163 41.085062 
L 210.810459 40.040665 
L 211.904086 39.110964 
L 212.354403 39.085183 
L 212.740389 39.227049 
L 213.255037 39.45531 
L 214.220002 39.560338 
L 214.605988 39.960032 
L 214.991975 40.662777 
L 215.442292 42.10467 
L 215.95694 44.550214 
L 216.471588 48.249683 
L 216.986236 53.58149 
L 217.693877 63.662394 
L 220.202786 101.772015 
L 221.167751 111.700709 
L 221.939723 117.684186 
L 222.776026 122.349726 
L 223.612329 126.231401 
L 224.448633 128.915967 
L 225.477929 131.441831 
L 226.571556 133.223363 
L 228.051169 134.898023 
L 228.694479 135.377984 
L 230.109761 136.246228 
L 231.589374 136.545963 
L 232.232684 136.552815 
L 232.811664 136.617874 
L 234.934587 137.238566 
L 236.156876 137.285574 
L 236.349869 137.288925 
L 236.349869 137.288925 
" clip-path="url(#p218bb1fa68)" style="fill: none; stroke: #1f77b4; stroke-width: 0.5; stroke-linecap: square"/>
   </g>
   <g id="line2d_16">
    <path d="M 43.356847 17.010158 
L 44.064488 16.708706 
L 44.965122 16.630832 
L 48.246004 16.709063 
L 55.579739 16.655756 
L 58.345972 16.525461 
L 68.381609 16.504717 
L 110.068102 16.618367 
L 115.278913 16.723271 
L 119.910746 16.653521 
L 122.74131 16.523876 
L 133.227264 16.504909 
L 167.322698 16.584948 
L 178.773617 16.715214 
L 184.113091 16.664972 
L 187.007986 16.525039 
L 198.201582 16.504723 
L 236.349869 16.58612 
L 236.349869 16.58612 
" clip-path="url(#p218bb1fa68)" style="fill: none; stroke: #ff7f0e; stroke-width: 0.5; stroke-linecap: square"/>
   </g>
   <g id="line2d_17">
    <path d="M 43.356847 17.010158 
L 44.321812 17.233719 
L 46.380405 17.043373 
L 47.731356 17.213283 
L 49.017976 17.01991 
L 53.070829 16.915254 
L 53.585477 16.84759 
L 54.679105 17.116902 
L 55.193753 17.142229 
L 55.708401 16.955395 
L 56.673366 16.464087 
L 57.123683 16.527825 
L 58.281641 17.151485 
L 58.667627 16.945129 
L 59.182275 16.366938 
L 59.568261 16.079968 
L 59.825585 16.20387 
L 60.14724 16.707868 
L 60.726219 17.639397 
L 61.047874 17.760776 
L 61.369529 17.551548 
L 62.07717 16.901788 
L 62.527487 16.991494 
L 62.977804 17.216754 
L 63.492453 17.483719 
L 64.264425 17.611083 
L 64.714742 17.439239 
L 66.323017 16.48903 
L 66.709003 16.615135 
L 67.995623 17.129777 
L 68.317278 16.910603 
L 68.831926 16.546604 
L 69.153581 16.645681 
L 70.182877 17.058723 
L 70.568863 17.021485 
L 71.276504 16.785386 
L 73.52809 17.199438 
L 74.1714 16.990632 
L 75.007703 16.985423 
L 75.779675 16.468701 
L 76.10133 16.625894 
L 77.194957 17.515445 
L 77.773936 17.417957 
L 79.575204 17.042033 
L 80.475838 17.233705 
L 81.569466 17.585747 
L 82.405769 17.374023 
L 83.563727 16.806367 
L 84.207037 16.800122 
L 84.979009 16.796198 
L 85.943974 16.763123 
L 86.522953 16.863784 
L 87.359256 17.068621 
L 87.809573 17.023127 
L 88.838869 17.491247 
L 89.54651 17.779699 
L 90.061158 17.641918 
L 90.640138 17.317751 
L 91.219117 16.81647 
L 91.991089 16.693362 
L 92.570068 16.787334 
L 93.084716 16.773711 
L 93.921019 16.727143 
L 95.207639 16.946733 
L 95.657956 17.109074 
L 97.523555 16.981214 
L 99.196162 16.497961 
L 99.582148 16.600244 
L 100.096796 16.669218 
L 100.804437 16.525856 
L 101.383416 16.676082 
L 101.898064 16.875687 
L 102.412712 16.931545 
L 103.506339 17.248608 
L 104.085318 17.236362 
L 104.535635 17.207634 
L 105.243276 17.10239 
L 105.950917 17.145592 
L 107.044544 17.328723 
L 107.752185 17.288331 
L 108.459827 17.411432 
L 110.261095 16.930632 
L 110.904405 16.816224 
L 112.641342 16.801712 
L 113.477645 16.824803 
L 114.249617 16.677075 
L 114.635603 16.920945 
L 115.343244 17.23574 
L 115.72923 17.257282 
L 116.37254 16.996992 
L 116.887189 16.775844 
L 117.273175 16.812323 
L 118.688457 17.218677 
L 119.52476 17.150324 
L 120.682718 17.206911 
L 121.583352 17.1864 
L 122.162331 16.9528 
L 122.548317 16.624989 
L 123.062965 16.167216 
L 123.320289 16.224171 
L 123.641944 16.543302 
L 124.735571 17.820795 
L 125.057226 17.85105 
L 125.378881 17.588501 
L 126.343847 16.746415 
L 126.729833 16.670842 
L 127.051488 16.842967 
L 127.501805 17.073397 
L 127.952122 16.981181 
L 128.852756 16.833043 
L 129.75339 17.32021 
L 130.075045 17.10848 
L 130.782686 16.494744 
L 131.104341 16.425306 
L 131.618989 16.675947 
L 133.034271 17.272154 
L 133.484588 16.980062 
L 134.513884 16.229876 
L 135.092864 16.392157 
L 135.800505 16.92843 
L 136.315153 17.114835 
L 138.05209 17.295763 
L 138.438076 17.467205 
L 138.759731 17.356547 
L 139.917689 16.734053 
L 140.239344 16.864013 
L 141.139978 17.540201 
L 141.590295 17.290106 
L 142.490929 16.921117 
L 143.262901 16.972136 
L 143.906212 17.004276 
L 144.485191 16.657054 
L 145.192832 16.351523 
L 145.836142 16.220711 
L 146.35079 16.447385 
L 147.959065 17.358724 
L 148.538044 17.424893 
L 148.859699 17.272585 
L 149.438678 16.940992 
L 149.953326 16.911563 
L 152.397904 16.976624 
L 153.491532 16.849855 
L 153.877518 17.11513 
L 154.327835 17.444731 
L 155.421462 17.526983 
L 156.064772 17.134955 
L 156.57942 16.888531 
L 157.351392 16.875226 
L 158.50935 16.931612 
L 159.474315 17.340537 
L 160.246287 17.379807 
L 160.889597 17.461374 
L 161.275583 17.251059 
L 161.790232 16.973983 
L 163.398507 16.972756 
L 163.720162 17.17374 
L 164.427803 17.612329 
L 164.87812 17.711193 
L 165.52143 17.613456 
L 166.229071 17.518285 
L 166.80805 17.315709 
L 167.580022 16.740127 
L 169.831607 16.576575 
L 173.82013 17.150594 
L 174.849426 16.780572 
L 175.75006 16.590525 
L 176.972349 17.111314 
L 177.551328 17.049464 
L 179.288266 16.790649 
L 180.381893 16.988719 
L 184.241753 16.974622 
L 186.171683 17.41778 
L 186.686331 17.072847 
L 187.26531 16.795303 
L 187.586965 16.897053 
L 188.616262 17.501406 
L 189.002248 17.412169 
L 189.709889 17.276266 
L 190.546192 17.041391 
L 191.189502 16.798785 
L 191.768481 16.723933 
L 192.218798 16.665231 
L 192.669115 16.866987 
L 193.183763 17.057442 
L 194.792038 16.909743 
L 195.821334 17.107598 
L 196.721968 16.918358 
L 197.172286 16.90455 
L 198.844892 17.355687 
L 199.809857 17.297208 
L 200.388836 16.646097 
L 200.774822 16.43594 
L 201.096477 16.565166 
L 201.482463 17.042569 
L 202.125773 17.817917 
L 202.383097 17.789809 
L 203.798379 17.032594 
L 204.699013 17.261868 
L 205.406654 16.96509 
L 205.856971 16.9322 
L 207.851233 17.124343 
L 209.073522 16.882546 
L 209.716832 17.039062 
L 210.360142 17.409112 
L 210.87479 17.643734 
L 211.196445 17.557857 
L 212.611727 16.782142 
L 214.155671 16.764299 
L 214.73465 16.757564 
L 215.763947 16.895951 
L 217.565215 17.354366 
L 218.272856 17.120634 
L 219.559476 16.481406 
L 220.009793 16.607336 
L 221.618068 17.194973 
L 222.004054 17.235333 
L 222.904688 17.53423 
L 223.226343 17.388047 
L 223.740992 17.07374 
L 224.641626 17.142496 
L 225.091943 17.064886 
L 225.670922 16.917292 
L 226.635887 16.910218 
L 227.600852 16.819685 
L 228.372824 16.93745 
L 229.595113 17.435713 
L 231.203388 17.355037 
L 232.811664 17.002887 
L 233.84096 17.137302 
L 234.677263 16.916696 
L 236.285538 17.026718 
L 236.349869 17.037187 
L 236.349869 17.037187 
" clip-path="url(#p218bb1fa68)" style="fill: none; stroke: #2ca02c; stroke-width: 0.5; stroke-linecap: square"/>
   </g>
   <g id="patch_3">
    <path d="M 33.707196 202.559296 
L 33.707196 7.2 
" style="fill: none; stroke: #000000; stroke-width: 0.8; stroke-linejoin: miter; stroke-linecap: square"/>
   </g>
   <g id="patch_4">
    <path d="M 245.99952 202.559296 
L 245.99952 7.2 
" style="fill: none; stroke: #000000; stroke-width: 0.8; stroke-linejoin: miter; stroke-linecap: square"/>
   </g>
   <g id="patch_5">
    <path d="M 33.707196 202.559296 
L 245.99952 202.559296 
" style="fill: none; stroke: #000000; stroke-width: 0.8; stroke-linejoin: miter; stroke-linecap: square"/>
   </g>
   <g id="patch_6">
    <path d="M 33.707196 7.2 
L 245.99952 7.2 
" style="fill: none; stroke: #000000; stroke-width: 0.8; stroke-linejoin: miter; stroke-linecap: square"/>
   </g>
   <g id="legend_1">
    <g id="patch_7">
     <path d="M 193.792605 198.059296 
L 239.69952 198.059296 
Q 241.49952 198.059296 241.49952 196.259296 
L 241.49952 156.760168 
Q 241.49952 154.960168 239.69952 154.960168 
L 193.792605 154.960168 
Q 191.992605 154.960168 191.992605 156.760168 
L 191.992605 196.259296 
Q 191.992605 198.059296 193.792605 198.059296 
z
" style="fill: #ffffff; opacity: 0.8; stroke: #cccccc; stroke-width: 0.24; stroke-linejoin: miter"/>
    </g>
    <g id="line2d_18">
     <path d="M 195.592605 162.13495 
L 204.592605 162.13495 
L 213.592605 162.13495 
" style="fill: none; stroke: #1f77b4; stroke-width: 0.5; stroke-linecap: square"/>
    </g>
    <g id="text_16">
     <!-- $\langle \sigma_z\rangle$ -->
     <g transform="translate(220.792605 165.28495) scale(0.09 -0.09)">
      <defs>
       <path id="CMSY10-68" d="M 2099 4557 
C 2131 4627 2131 4640 2131 4672 
C 2131 4742 2074 4800 2003 4800 
C 1946 4800 1901 4768 1856 4653 
L 736 1715 
C 723 1677 704 1638 704 1600 
C 704 1581 704 1568 736 1491 
L 1856 -1446 
C 1882 -1517 1914 -1600 2003 -1600 
C 2074 -1600 2131 -1542 2131 -1472 
C 2131 -1453 2131 -1440 2099 -1370 
L 966 1600 
L 2099 4557 
z
" transform="scale(0.015625)"/>
       <path id="CMMI12-1b" d="M 3251 2408 
C 3334 2408 3546 2408 3546 2612 
C 3546 2752 3424 2752 3309 2752 
L 1894 2752 
C 934 2752 243 1686 243 932 
C 243 390 595 -64 1171 -64 
C 1926 -64 2752 747 2752 1705 
C 2752 1954 2694 2196 2541 2408 
L 3251 2408 
z
M 1178 64 
C 851 64 614 313 614 754 
C 614 1137 845 2408 1786 2408 
C 2061 2408 2368 2274 2368 1781 
C 2368 1558 2266 1021 2042 652 
C 1811 275 1466 64 1178 64 
z
" transform="scale(0.015625)"/>
       <path id="CMMI12-7a" d="M 813 486 
C 1088 803 1312 1004 1632 1296 
C 2016 1632 2182 1793 2272 1891 
C 2720 2338 2944 2713 2944 2764 
C 2944 2816 2893 2816 2880 2816 
C 2835 2816 2822 2793 2790 2750 
C 2630 2494 2477 2367 2310 2367 
C 2176 2367 2106 2421 1984 2565 
C 1850 2715 1741 2816 1555 2816 
C 1088 2816 806 2257 806 2128 
C 806 2108 813 2068 870 2068 
C 922 2068 928 2091 947 2133 
C 1056 2372 1363 2414 1485 2414 
C 1619 2414 1747 2376 1882 2327 
C 2125 2240 2227 2240 2291 2240 
C 2336 2240 2362 2240 2394 2246 
C 2182 1994 1837 1683 1549 1418 
L 902 816 
C 512 415 275 33 275 -12 
C 275 -51 307 -64 346 -64 
C 384 -64 390 -57 435 14 
C 538 163 742 384 979 384 
C 1114 384 1178 342 1306 193 
C 1427 61 1536 -64 1741 -64 
C 2368 -64 2726 732 2726 876 
C 2726 903 2720 942 2656 942 
C 2605 942 2598 917 2579 855 
C 2438 488 2061 338 1811 338 
C 1677 338 1549 376 1414 425 
C 1158 512 1088 512 1005 512 
C 941 512 870 512 813 486 
z
" transform="scale(0.015625)"/>
       <path id="CMSY10-69" d="M 1747 1491 
C 1779 1568 1779 1581 1779 1600 
C 1779 1619 1779 1632 1747 1709 
L 627 4653 
C 589 4762 550 4800 480 4800 
C 410 4800 352 4742 352 4672 
C 352 4653 352 4640 384 4570 
L 1517 1600 
L 384 -1357 
C 352 -1427 352 -1440 352 -1472 
C 352 -1542 410 -1600 480 -1600 
C 563 -1600 589 -1536 614 -1472 
L 1747 1491 
z
" transform="scale(0.015625)"/>
      </defs>
      <use xlink:href="#CMSY10-68" transform="scale(0.996264)"/>
      <use xlink:href="#CMMI12-1b" transform="translate(38.743734 0) scale(0.996264)"/>
      <use xlink:href="#CMMI12-7a" transform="translate(94.189195 -14.943915) scale(0.697382)"/>
      <use xlink:href="#CMSY10-69" transform="translate(129.51575 0) scale(0.996264)"/>
     </g>
    </g>
    <g id="line2d_19">
     <path d="M 195.592605 175.601326 
L 204.592605 175.601326 
L 213.592605 175.601326 
" style="fill: none; stroke: #ff7f0e; stroke-width: 0.5; stroke-linecap: square"/>
    </g>
    <g id="text_17">
     <!-- $\langle \sigma_x\rangle$ -->
     <g transform="translate(220.792605 178.751326) scale(0.09 -0.09)">
      <defs>
       <path id="CMMI12-78" d="M 3034 2606 
C 2829 2567 2752 2414 2752 2293 
C 2752 2139 2874 2088 2963 2088 
C 3155 2088 3290 2254 3290 2427 
C 3290 2695 2982 2816 2714 2816 
C 2323 2816 2106 2433 2048 2312 
C 1901 2816 1504 2816 1389 2816 
C 736 2816 390 1980 390 1839 
C 390 1814 416 1782 461 1782 
C 512 1782 525 1820 538 1846 
C 755 2555 1184 2689 1370 2689 
C 1658 2689 1715 2420 1715 2267 
C 1715 2127 1677 1980 1600 1673 
L 1382 798 
C 1286 415 1101 64 762 64 
C 730 64 570 64 435 147 
C 666 192 717 383 717 460 
C 717 588 621 664 499 664 
C 346 664 179 530 179 326 
C 179 57 480 -64 755 -64 
C 1062 -64 1280 179 1414 441 
C 1517 64 1837 -64 2074 -64 
C 2726 -64 3072 773 3072 913 
C 3072 945 3046 971 3008 971 
C 2950 971 2944 939 2925 888 
C 2752 326 2381 64 2093 64 
C 1869 64 1747 230 1747 492 
C 1747 632 1773 734 1875 1156 
L 2099 2024 
C 2195 2408 2413 2689 2707 2689 
C 2720 2689 2899 2689 3034 2606 
z
" transform="scale(0.015625)"/>
      </defs>
      <use xlink:href="#CMSY10-68" transform="scale(0.996264)"/>
      <use xlink:href="#CMMI12-1b" transform="translate(38.743734 0) scale(0.996264)"/>
      <use xlink:href="#CMMI12-78" transform="translate(94.189195 -14.943915) scale(0.697382)"/>
      <use xlink:href="#CMSY10-69" transform="translate(133.490986 0) scale(0.996264)"/>
     </g>
    </g>
    <g id="line2d_20">
     <path d="M 195.592605 189.067702 
L 204.592605 189.067702 
L 213.592605 189.067702 
" style="fill: none; stroke: #2ca02c; stroke-width: 0.5; stroke-linecap: square"/>
    </g>
    <g id="text_18">
     <!-- $\langle \sigma_y\rangle$ -->
     <g transform="translate(220.792605 192.217702) scale(0.09 -0.09)">
      <defs>
       <path id="CMMI12-79" d="M 1683 -700 
C 1510 -939 1261 -1152 947 -1152 
C 870 -1152 563 -1152 467 -889 
C 486 -895 518 -895 531 -895 
C 723 -895 851 -729 851 -582 
C 851 -435 730 -384 634 -384 
C 531 -384 307 -458 307 -759 
C 307 -1071 582 -1286 947 -1286 
C 1587 -1286 2234 -700 2413 6 
L 3040 2485 
C 3046 2517 3059 2556 3059 2594 
C 3059 2689 2982 2753 2886 2753 
C 2829 2753 2694 2727 2643 2535 
L 2170 658 
C 2138 543 2138 530 2086 460 
C 1958 281 1747 64 1440 64 
C 1082 64 1050 415 1050 588 
C 1050 952 1222 1443 1395 1903 
C 1466 2088 1504 2178 1504 2305 
C 1504 2574 1312 2816 998 2816 
C 410 2816 173 1890 173 1839 
C 173 1814 198 1782 243 1782 
C 301 1782 307 1807 333 1897 
C 486 2433 730 2689 979 2689 
C 1037 2689 1146 2689 1146 2478 
C 1146 2312 1075 2127 979 1884 
C 666 1047 666 837 666 683 
C 666 77 1101 -64 1421 -64 
C 1606 -64 1837 -6 2061 230 
L 2067 224 
C 1971 -147 1907 -392 1683 -700 
z
" transform="scale(0.015625)"/>
      </defs>
      <use xlink:href="#CMSY10-68" transform="scale(0.996264)"/>
      <use xlink:href="#CMMI12-1b" transform="translate(38.743734 0) scale(0.996264)"/>
      <use xlink:href="#CMMI12-79" transform="translate(94.189195 -14.943915) scale(0.697382)"/>
      <use xlink:href="#CMSY10-69" transform="translate(130.484301 0) scale(0.996264)"/>
     </g>
    </g>
   </g>
  </g>
 </g>
 <defs>
  <clipPath id="p218bb1fa68">
   <rect x="33.707196" y="7.2" width="212.292324" height="195.359296"/>
  </clipPath>
 </defs>
</svg>
