<?xml version="1.0" encoding="utf-8" standalone="no"?>
<!DOCTYPE svg PUBLIC "-//W3C//DTD SVG 1.1//EN"
  "http://www.w3.org/Graphics/SVG/1.1/DTD/svg11.dtd">
<svg xmlns:xlink="http://www.w3.org/1999/xlink" width="253.19952pt" height="238.79952pt" viewBox="0 0 253.19952 238.79952" xmlns="http://www.w3.org/2000/svg" version="1.1">
 <metadata>
  <rdf:RDF xmlns:dc="http://purl.org/dc/elements/1.1/" xmlns:cc="http://creativecommons.org/ns#" xmlns:rdf="http://www.w3.org/1999/02/22-rdf-syntax-ns#">
   <cc:Work>
    <dc:type rdf:resource="http://purl.org/dc/dcmitype/StillImage"/>
    <dc:date>1980-01-01T00:00:00+00:00</dc:date>
    <dc:format>image/svg+xml</dc:format>
    <dc:creator>
     <cc:Agent>
      <dc:title>Matplotlib v3.6.2, https://matplotlib.org/</dc:title>
     </cc:Agent>
    </dc:creator>
   </cc:Work>
  </rdf:RDF>
 </metadata>
 <defs>
  <style type="text/css">*{stroke-linejoin: round; stroke-linecap: butt}</style>
 </defs>
 <g id="figure_1">
  <g id="patch_1">
   <path d="M 0 238.79952 
L 253.19952 238.79952 
L 253.19952 0 
L 0 0 
z
" style="fill: #ffffff"/>
  </g>
  <g id="axes_1">
   <g id="patch_2">
    <path d="M 33.707196 202.559296 
L 245.99952 202.559296 
L 245.99952 7.2 
L 33.707196 7.2 
z
" style="fill: #ffffff"/>
   </g>
   <g id="matplotlib.axis_1">
    <g id="xtick_1">
     <g id="line2d_1">
      <defs>
       <path id="m7d02a99b98" d="M 0 0 
L 0 3.5 
" style="stroke: #000000; stroke-width: 0.8"/>
      </defs>
      <g>
       <use xlink:href="#m7d02a99b98" x="43.356847" y="202.559296" style="stroke: #000000; stroke-width: 0.8"/>
      </g>
     </g>
     <g id="text_1">
      <!-- $\mathdefault{0}$ -->
      <g transform="translate(41.239756 217.194098) scale(0.08 -0.08)">
       <defs>
        <path id="CMR17-30" d="M 2688 2025 
C 2688 2416 2682 3080 2413 3591 
C 2176 4039 1798 4198 1466 4198 
C 1158 4198 768 4058 525 3597 
C 269 3118 243 2524 243 2025 
C 243 1661 250 1106 448 619 
C 723 -39 1216 -128 1466 -128 
C 1760 -128 2208 -7 2470 600 
C 2662 1042 2688 1559 2688 2025 
z
M 1466 -26 
C 1056 -26 813 325 723 812 
C 653 1188 653 1738 653 2096 
C 653 2588 653 2997 736 3387 
C 858 3929 1216 4096 1466 4096 
C 1728 4096 2067 3923 2189 3400 
C 2272 3036 2278 2607 2278 2096 
C 2278 1680 2278 1169 2202 792 
C 2067 95 1690 -26 1466 -26 
z
" transform="scale(0.015625)"/>
       </defs>
       <use xlink:href="#CMR17-30" transform="scale(0.996264)"/>
      </g>
     </g>
    </g>
    <g id="xtick_2">
     <g id="line2d_2">
      <g>
       <use xlink:href="#m7d02a99b98" x="70.161434" y="202.559296" style="stroke: #000000; stroke-width: 0.8"/>
      </g>
     </g>
     <g id="text_2">
      <!-- $\mathdefault{25}$ -->
      <g transform="translate(65.927251 217.194098) scale(0.08 -0.08)">
       <defs>
        <path id="CMR17-32" d="M 2669 989 
L 2554 989 
C 2490 536 2438 459 2413 420 
C 2381 369 1920 369 1830 369 
L 602 369 
C 832 619 1280 1072 1824 1597 
C 2214 1967 2669 2402 2669 3035 
C 2669 3790 2067 4224 1395 4224 
C 691 4224 262 3604 262 3030 
C 262 2780 448 2748 525 2748 
C 589 2748 781 2787 781 3010 
C 781 3207 614 3264 525 3264 
C 486 3264 448 3258 422 3245 
C 544 3790 915 4058 1306 4058 
C 1862 4058 2227 3617 2227 3035 
C 2227 2479 1901 2000 1536 1584 
L 262 146 
L 262 0 
L 2515 0 
L 2669 989 
z
" transform="scale(0.015625)"/>
        <path id="CMR17-35" d="M 730 3692 
C 794 3666 1056 3584 1325 3584 
C 1920 3584 2246 3911 2432 4100 
C 2432 4157 2432 4192 2394 4192 
C 2387 4192 2374 4192 2323 4163 
C 2099 4058 1837 3973 1517 3973 
C 1325 3973 1037 3999 723 4139 
C 653 4171 640 4171 634 4171 
C 602 4171 595 4164 595 4037 
L 595 2203 
C 595 2089 595 2057 659 2057 
C 691 2057 704 2070 736 2114 
C 941 2401 1222 2522 1542 2522 
C 1766 2522 2246 2382 2246 1289 
C 2246 1085 2246 715 2054 421 
C 1894 159 1645 25 1370 25 
C 947 25 518 320 403 814 
C 429 807 480 795 506 795 
C 589 795 749 840 749 1038 
C 749 1210 627 1280 506 1280 
C 358 1280 262 1190 262 1011 
C 262 454 704 -128 1382 -128 
C 2042 -128 2669 440 2669 1264 
C 2669 2030 2170 2624 1549 2624 
C 1222 2624 947 2503 730 2274 
L 730 3692 
z
" transform="scale(0.015625)"/>
       </defs>
       <use xlink:href="#CMR17-32" transform="scale(0.996264)"/>
       <use xlink:href="#CMR17-35" transform="translate(45.690477 0) scale(0.996264)"/>
      </g>
     </g>
    </g>
    <g id="xtick_3">
     <g id="line2d_3">
      <g>
       <use xlink:href="#m7d02a99b98" x="96.96602" y="202.559296" style="stroke: #000000; stroke-width: 0.8"/>
      </g>
     </g>
     <g id="text_3">
      <!-- $\mathdefault{50}$ -->
      <g transform="translate(92.731837 217.194098) scale(0.08 -0.08)">
       <use xlink:href="#CMR17-35" transform="scale(0.996264)"/>
       <use xlink:href="#CMR17-30" transform="translate(45.690477 0) scale(0.996264)"/>
      </g>
     </g>
    </g>
    <g id="xtick_4">
     <g id="line2d_4">
      <g>
       <use xlink:href="#m7d02a99b98" x="123.770606" y="202.559296" style="stroke: #000000; stroke-width: 0.8"/>
      </g>
     </g>
     <g id="text_4">
      <!-- $\mathdefault{75}$ -->
      <g transform="translate(119.536423 217.194098) scale(0.08 -0.08)">
       <defs>
        <path id="CMR17-37" d="M 2886 3941 
L 2886 4081 
L 1382 4081 
C 634 4081 621 4165 595 4288 
L 480 4288 
L 294 3094 
L 410 3094 
C 429 3215 474 3540 550 3661 
C 589 3712 1062 3712 1171 3712 
L 2579 3712 
L 1869 2661 
C 1395 1954 1069 999 1069 165 
C 1069 89 1069 -128 1299 -128 
C 1530 -128 1530 89 1530 171 
L 1530 465 
C 1530 1508 1709 2196 2003 2636 
L 2886 3941 
z
" transform="scale(0.015625)"/>
       </defs>
       <use xlink:href="#CMR17-37" transform="scale(0.996264)"/>
       <use xlink:href="#CMR17-35" transform="translate(45.690477 0) scale(0.996264)"/>
      </g>
     </g>
    </g>
    <g id="xtick_5">
     <g id="line2d_5">
      <g>
       <use xlink:href="#m7d02a99b98" x="150.575193" y="202.559296" style="stroke: #000000; stroke-width: 0.8"/>
      </g>
     </g>
     <g id="text_5">
      <!-- $\mathdefault{100}$ -->
      <g transform="translate(144.223918 217.194098) scale(0.08 -0.08)">
       <defs>
        <path id="CMR17-31" d="M 1702 4058 
C 1702 4192 1696 4192 1606 4192 
C 1357 3916 979 3827 621 3827 
C 602 3827 570 3827 563 3808 
C 557 3795 557 3782 557 3648 
C 755 3648 1088 3686 1344 3839 
L 1344 461 
C 1344 236 1331 160 781 160 
L 589 160 
L 589 0 
C 896 0 1216 0 1523 0 
C 1830 0 2150 0 2458 0 
L 2458 160 
L 2266 160 
C 1715 160 1702 230 1702 458 
L 1702 4058 
z
" transform="scale(0.015625)"/>
       </defs>
       <use xlink:href="#CMR17-31" transform="scale(0.996264)"/>
       <use xlink:href="#CMR17-30" transform="translate(45.690477 0) scale(0.996264)"/>
       <use xlink:href="#CMR17-30" transform="translate(91.380954 0) scale(0.996264)"/>
      </g>
     </g>
    </g>
    <g id="xtick_6">
     <g id="line2d_6">
      <g>
       <use xlink:href="#m7d02a99b98" x="177.379779" y="202.559296" style="stroke: #000000; stroke-width: 0.8"/>
      </g>
     </g>
     <g id="text_6">
      <!-- $\mathdefault{125}$ -->
      <g transform="translate(171.028505 217.194098) scale(0.08 -0.08)">
       <use xlink:href="#CMR17-31" transform="scale(0.996264)"/>
       <use xlink:href="#CMR17-32" transform="translate(45.690477 0) scale(0.996264)"/>
       <use xlink:href="#CMR17-35" transform="translate(91.380954 0) scale(0.996264)"/>
      </g>
     </g>
    </g>
    <g id="xtick_7">
     <g id="line2d_7">
      <g>
       <use xlink:href="#m7d02a99b98" x="204.184365" y="202.559296" style="stroke: #000000; stroke-width: 0.8"/>
      </g>
     </g>
     <g id="text_7">
      <!-- $\mathdefault{150}$ -->
      <g transform="translate(197.833091 217.194098) scale(0.08 -0.08)">
       <use xlink:href="#CMR17-31" transform="scale(0.996264)"/>
       <use xlink:href="#CMR17-35" transform="translate(45.690477 0) scale(0.996264)"/>
       <use xlink:href="#CMR17-30" transform="translate(91.380954 0) scale(0.996264)"/>
      </g>
     </g>
    </g>
    <g id="xtick_8">
     <g id="line2d_8">
      <g>
       <use xlink:href="#m7d02a99b98" x="230.988952" y="202.559296" style="stroke: #000000; stroke-width: 0.8"/>
      </g>
     </g>
     <g id="text_8">
      <!-- $\mathdefault{175}$ -->
      <g transform="translate(224.637677 217.194098) scale(0.08 -0.08)">
       <use xlink:href="#CMR17-31" transform="scale(0.996264)"/>
       <use xlink:href="#CMR17-37" transform="translate(45.690477 0) scale(0.996264)"/>
       <use xlink:href="#CMR17-35" transform="translate(91.380954 0) scale(0.996264)"/>
      </g>
     </g>
    </g>
    <g id="text_9">
     <!-- $\tau$ -->
     <g transform="translate(137.675756 229.662342) scale(0.1 -0.1)">
      <defs>
       <path id="CMMI12-1c" d="M 1837 2408 
L 2899 2408 
C 2982 2408 3194 2408 3194 2612 
C 3194 2752 3072 2752 2957 2752 
L 1197 2752 
C 1050 2752 832 2752 538 2440 
C 371 2255 166 1917 166 1879 
C 166 1841 198 1828 237 1828 
C 282 1828 288 1847 320 1885 
C 653 2408 986 2408 1146 2408 
L 1677 2408 
L 1011 223 
C 979 127 979 114 979 95 
C 979 25 1024 -64 1152 -64 
C 1350 -64 1382 108 1402 203 
L 1837 2408 
z
" transform="scale(0.015625)"/>
      </defs>
      <use xlink:href="#CMMI12-1c" transform="scale(0.996264)"/>
     </g>
    </g>
   </g>
   <g id="matplotlib.axis_2">
    <g id="ytick_1">
     <g id="line2d_9">
      <defs>
       <path id="m035448e5c5" d="M 0 0 
L -3.5 0 
" style="stroke: #000000; stroke-width: 0.8"/>
      </defs>
      <g>
       <use xlink:href="#m035448e5c5" x="33.707196" y="193.679328" style="stroke: #000000; stroke-width: 0.8"/>
      </g>
     </g>
     <g id="text_10">
      <!-- $\mathdefault{−1.0}$ -->
      <g transform="translate(7.2 196.446729) scale(0.08 -0.08)">
       <defs>
        <path id="CMSY10-0" d="M 4218 1472 
C 4326 1472 4442 1472 4442 1600 
C 4442 1728 4326 1728 4218 1728 
L 755 1728 
C 646 1728 531 1728 531 1600 
C 531 1472 646 1472 755 1472 
L 4218 1472 
z
" transform="scale(0.015625)"/>
        <path id="CMMI12-3a" d="M 1178 307 
C 1178 492 1024 619 870 619 
C 685 619 557 466 557 313 
C 557 128 710 0 864 0 
C 1050 0 1178 153 1178 307 
z
" transform="scale(0.015625)"/>
       </defs>
       <use xlink:href="#CMSY10-0" transform="scale(0.996264)"/>
       <use xlink:href="#CMR17-31" transform="translate(77.487468 0) scale(0.996264)"/>
       <use xlink:href="#CMMI12-3a" transform="translate(123.177945 0) scale(0.996264)"/>
       <use xlink:href="#CMR17-30" transform="translate(150.275122 0) scale(0.996264)"/>
      </g>
     </g>
    </g>
    <g id="ytick_2">
     <g id="line2d_10">
      <g>
       <use xlink:href="#m035448e5c5" x="33.707196" y="158.357996" style="stroke: #000000; stroke-width: 0.8"/>
      </g>
     </g>
     <g id="text_11">
      <!-- $\mathdefault{−0.8}$ -->
      <g transform="translate(7.2 161.125397) scale(0.08 -0.08)">
       <defs>
        <path id="CMR17-38" d="M 1741 2264 
C 2144 2467 2554 2773 2554 3263 
C 2554 3841 1990 4179 1472 4179 
C 890 4179 378 3759 378 3180 
C 378 3021 416 2747 666 2505 
C 730 2442 998 2251 1171 2130 
C 883 1983 211 1634 211 934 
C 211 279 838 -128 1459 -128 
C 2144 -128 2720 362 2720 1010 
C 2720 1590 2330 1857 2074 2029 
L 1741 2264 
z
M 902 2822 
C 851 2854 595 3051 595 3351 
C 595 3739 998 4032 1459 4032 
C 1965 4032 2336 3676 2336 3262 
C 2336 2669 1670 2331 1638 2331 
C 1632 2331 1626 2331 1574 2370 
L 902 2822 
z
M 2080 1519 
C 2176 1449 2483 1240 2483 851 
C 2483 381 2010 25 1472 25 
C 890 25 448 438 448 940 
C 448 1443 838 1862 1280 2060 
L 2080 1519 
z
" transform="scale(0.015625)"/>
       </defs>
       <use xlink:href="#CMSY10-0" transform="scale(0.996264)"/>
       <use xlink:href="#CMR17-30" transform="translate(77.487468 0) scale(0.996264)"/>
       <use xlink:href="#CMMI12-3a" transform="translate(123.177945 0) scale(0.996264)"/>
       <use xlink:href="#CMR17-38" transform="translate(150.275122 0) scale(0.996264)"/>
      </g>
     </g>
    </g>
    <g id="ytick_3">
     <g id="line2d_11">
      <g>
       <use xlink:href="#m035448e5c5" x="33.707196" y="123.036663" style="stroke: #000000; stroke-width: 0.8"/>
      </g>
     </g>
     <g id="text_12">
      <!-- $\mathdefault{−0.6}$ -->
      <g transform="translate(7.2 125.804064) scale(0.08 -0.08)">
       <defs>
        <path id="CMR17-36" d="M 678 2176 
C 678 3690 1395 4032 1811 4032 
C 1946 4032 2272 4009 2400 3776 
C 2298 3776 2106 3776 2106 3553 
C 2106 3381 2246 3323 2336 3323 
C 2394 3323 2566 3348 2566 3560 
C 2566 3954 2246 4179 1805 4179 
C 1043 4179 243 3390 243 1984 
C 243 253 966 -128 1478 -128 
C 2099 -128 2688 427 2688 1283 
C 2688 2081 2170 2662 1517 2662 
C 1126 2662 838 2407 678 1960 
L 678 2176 
z
M 1478 25 
C 691 25 691 1200 691 1436 
C 691 1896 909 2560 1504 2560 
C 1613 2560 1926 2560 2138 2120 
C 2253 1870 2253 1609 2253 1289 
C 2253 944 2253 690 2118 434 
C 1978 171 1773 25 1478 25 
z
" transform="scale(0.015625)"/>
       </defs>
       <use xlink:href="#CMSY10-0" transform="scale(0.996264)"/>
       <use xlink:href="#CMR17-30" transform="translate(77.487468 0) scale(0.996264)"/>
       <use xlink:href="#CMMI12-3a" transform="translate(123.177945 0) scale(0.996264)"/>
       <use xlink:href="#CMR17-36" transform="translate(150.275122 0) scale(0.996264)"/>
      </g>
     </g>
    </g>
    <g id="ytick_4">
     <g id="line2d_12">
      <g>
       <use xlink:href="#m035448e5c5" x="33.707196" y="87.715331" style="stroke: #000000; stroke-width: 0.8"/>
      </g>
     </g>
     <g id="text_13">
      <!-- $\mathdefault{−0.4}$ -->
      <g transform="translate(7.2 90.482732) scale(0.08 -0.08)">
       <defs>
        <path id="CMR17-34" d="M 2150 4122 
C 2150 4256 2144 4256 2029 4256 
L 128 1254 
L 128 1088 
L 1779 1088 
L 1779 457 
C 1779 224 1766 160 1318 160 
L 1197 160 
L 1197 0 
C 1402 0 1747 0 1965 0 
C 2182 0 2528 0 2733 0 
L 2733 160 
L 2611 160 
C 2163 160 2150 224 2150 457 
L 2150 1088 
L 2803 1088 
L 2803 1254 
L 2150 1254 
L 2150 4122 
z
M 1798 3703 
L 1798 1254 
L 256 1254 
L 1798 3703 
z
" transform="scale(0.015625)"/>
       </defs>
       <use xlink:href="#CMSY10-0" transform="scale(0.996264)"/>
       <use xlink:href="#CMR17-30" transform="translate(77.487468 0) scale(0.996264)"/>
       <use xlink:href="#CMMI12-3a" transform="translate(123.177945 0) scale(0.996264)"/>
       <use xlink:href="#CMR17-34" transform="translate(150.275122 0) scale(0.996264)"/>
      </g>
     </g>
    </g>
    <g id="ytick_5">
     <g id="line2d_13">
      <g>
       <use xlink:href="#m035448e5c5" x="33.707196" y="52.393999" style="stroke: #000000; stroke-width: 0.8"/>
      </g>
     </g>
     <g id="text_14">
      <!-- $\mathdefault{−0.2}$ -->
      <g transform="translate(7.2 55.1614) scale(0.08 -0.08)">
       <use xlink:href="#CMSY10-0" transform="scale(0.996264)"/>
       <use xlink:href="#CMR17-30" transform="translate(77.487468 0) scale(0.996264)"/>
       <use xlink:href="#CMMI12-3a" transform="translate(123.177945 0) scale(0.996264)"/>
       <use xlink:href="#CMR17-32" transform="translate(150.275122 0) scale(0.996264)"/>
      </g>
     </g>
    </g>
    <g id="ytick_6">
     <g id="line2d_14">
      <g>
       <use xlink:href="#m035448e5c5" x="33.707196" y="17.072667" style="stroke: #000000; stroke-width: 0.8"/>
      </g>
     </g>
     <g id="text_15">
      <!-- $\mathdefault{0.0}$ -->
      <g transform="translate(13.786507 19.840068) scale(0.08 -0.08)">
       <use xlink:href="#CMR17-30" transform="scale(0.996264)"/>
       <use xlink:href="#CMMI12-3a" transform="translate(45.690477 0) scale(0.996264)"/>
       <use xlink:href="#CMR17-30" transform="translate(72.787654 0) scale(0.996264)"/>
      </g>
     </g>
    </g>
   </g>
   <g id="line2d_15">
    <path d="M 43.356847 193.679328 
L 52.556181 193.585517 
L 52.877836 193.317952 
L 53.13516 192.811269 
L 53.456815 191.528947 
L 53.77847 189.160534 
L 54.164456 184.414431 
L 54.679105 174.660735 
L 57.445338 114.947496 
L 58.152979 106.136249 
L 58.989282 98.483703 
L 59.889916 92.181333 
L 61.562522 82.527444 
L 62.398825 79.290061 
L 63.36379 74.886922 
L 63.94277 73.396791 
L 64.58608 71.782814 
L 65.422383 69.622948 
L 66.130024 67.966246 
L 66.451679 67.262592 
L 66.709003 67.172095 
L 67.094989 67.144428 
L 67.609637 66.642207 
L 68.252947 65.904288 
L 69.153581 64.678913 
L 69.346574 64.663265 
L 69.539567 64.886047 
L 69.989884 66.000371 
L 71.276504 69.472914 
L 72.756118 74.128259 
L 73.399428 75.342487 
L 73.849745 75.800616 
L 74.364393 76.001976 
L 75.265027 76.046177 
L 85.68665 75.940528 
L 87.037601 75.72701 
L 87.359256 75.979879 
L 87.680911 76.561517 
L 88.066897 77.839293 
L 88.517214 80.229792 
L 89.160524 85.132578 
L 90.189821 95.015098 
L 91.991089 112.332627 
L 92.956054 119.411901 
L 93.792357 124.0387 
L 94.885984 128.568361 
L 95.91528 131.993276 
L 96.944576 134.805675 
L 97.716548 136.286629 
L 98.681513 137.503139 
L 100.35412 139.465729 
L 101.319085 140.464449 
L 101.769402 141.292458 
L 102.219719 142.601656 
L 102.734367 144.779134 
L 103.506339 149.17182 
L 104.728628 155.957043 
L 105.307607 158.062309 
L 105.822255 159.126639 
L 106.272572 159.563562 
L 106.78722 159.726276 
L 108.00951 159.75092 
L 116.95152 159.64227 
L 117.273175 159.377293 
L 117.530499 158.903183 
L 117.852154 157.751054 
L 118.173809 155.683683 
L 118.559795 151.63158 
L 119.074443 143.532187 
L 121.197366 106.619327 
L 122.098 95.262713 
L 122.74131 90.011509 
L 123.577613 84.76644 
L 125.378881 76.833966 
L 126.858495 72.488256 
L 127.501805 71.176801 
L 128.46677 68.839859 
L 129.238742 67.34051 
L 129.689059 66.568116 
L 130.332369 65.754842 
L 131.233003 64.056499 
L 131.554658 63.85442 
L 132.004975 63.832025 
L 132.262299 63.510056 
L 132.905609 62.572875 
L 133.162933 62.488892 
L 133.484588 62.655535 
L 134.25656 63.286817 
L 134.578215 63.962859 
L 135.350188 66.404869 
L 137.473111 73.008837 
L 137.923428 73.646096 
L 138.438076 73.983408 
L 139.081386 74.090325 
L 142.683922 74.096231 
L 150.017657 73.988428 
L 151.304277 73.771896 
L 151.625932 74.016356 
L 151.947587 74.550525 
L 152.333573 75.74333 
L 152.783891 78.070634 
L 153.36287 82.385208 
L 154.392166 92.091494 
L 156.57942 113.245111 
L 157.544385 120.348423 
L 158.445019 125.227613 
L 159.345653 128.978749 
L 160.310618 131.998935 
L 161.08259 133.727152 
L 162.819528 136.914307 
L 163.848824 138.289793 
L 164.556465 138.974949 
L 165.457099 139.717004 
L 165.907416 140.46403 
L 166.357733 141.683224 
L 166.872381 143.784449 
L 167.644353 148.047248 
L 169.059635 156.035083 
L 169.638614 158.124232 
L 170.088931 159.07953 
L 170.539249 159.560717 
L 171.053897 159.753186 
L 172.083193 159.788303 
L 181.218196 159.702034 
L 181.539851 159.490181 
L 181.797175 159.09611 
L 182.11883 158.083768 
L 182.440485 156.194088 
L 182.826471 152.400708 
L 183.341119 144.626946 
L 185.850028 101.847366 
L 186.686331 92.798054 
L 187.393972 87.484248 
L 187.972951 84.791814 
L 190.610523 74.505588 
L 192.34746 69.409886 
L 193.312425 68.166083 
L 194.406052 65.777592 
L 194.792038 65.740736 
L 195.178024 65.653686 
L 195.499679 65.3096 
L 197.172286 63.010547 
L 197.42961 63.085947 
L 197.879927 63.530752 
L 199.230878 65.370391 
L 199.809857 67.029567 
L 201.546794 72.851001 
L 202.061442 73.882725 
L 202.511759 74.339264 
L 203.026407 74.534241 
L 203.991372 74.570293 
L 214.220002 74.461226 
L 215.763947 74.214486 
L 216.085602 74.561886 
L 216.407257 75.249825 
L 216.793243 76.607077 
L 217.24356 79.005318 
L 217.822539 83.466298 
L 218.787504 93.289165 
L 220.524441 110.459432 
L 221.553737 118.439988 
L 222.39004 123.60075 
L 223.226343 127.501624 
L 224.126978 130.60215 
L 225.027612 132.943108 
L 226.314232 135.648426 
L 227.793845 138.016548 
L 228.565817 138.870604 
L 229.723775 140.130371 
L 230.238423 140.950564 
L 230.68874 142.086513 
L 231.203388 144.017944 
L 231.846698 147.379748 
L 233.519305 156.618879 
L 234.098284 158.482825 
L 234.548601 159.291302 
L 234.998918 159.671496 
L 235.513566 159.809988 
L 236.349869 159.829019 
L 236.349869 159.829019 
" clip-path="url(#p71fb842ede)" style="fill: none; stroke: #ff7f0e; stroke-width: 0.5; stroke-linecap: square"/>
   </g>
   <g id="line2d_16">
    <path d="M 43.356847 17.072667 
L 53.392484 17.179007 
L 54.743436 17.406768 
L 56.094387 17.266966 
L 56.93069 17.491946 
L 57.702662 17.346419 
L 58.345972 17.364145 
L 59.761254 17.009554 
L 60.275902 17.127138 
L 61.369529 16.850295 
L 61.819846 16.383302 
L 62.205832 16.084097 
L 62.463156 16.162414 
L 62.784811 16.594687 
L 63.36379 17.476409 
L 63.685446 17.628771 
L 64.007101 17.537397 
L 64.972066 17.040243 
L 65.744038 17.195558 
L 66.130024 17.212485 
L 67.545306 16.892344 
L 69.475236 17.446871 
L 69.861222 17.262522 
L 70.568863 16.821794 
L 71.01918 16.891387 
L 71.598159 16.97297 
L 72.498794 16.975503 
L 73.592421 17.074968 
L 75.007703 17.031771 
L 76.615978 17.122492 
L 78.481577 17.029476 
L 80.540169 17.13308 
L 84.207037 17.03767 
L 86.394291 17.074764 
L 88.002566 17.01193 
L 89.868165 17.371297 
L 92.184082 16.824579 
L 93.213378 16.868148 
L 94.178343 17.089518 
L 95.979611 17.182635 
L 96.751583 16.906704 
L 97.84521 16.518438 
L 98.552851 16.602375 
L 99.517817 16.644655 
L 100.611444 16.629305 
L 101.962395 16.798988 
L 103.120353 16.811979 
L 104.471304 17.175961 
L 105.822255 17.471507 
L 106.594227 17.406565 
L 107.623523 17.064983 
L 108.910144 16.681178 
L 109.682116 16.693965 
L 110.454088 16.95033 
L 111.805039 17.486132 
L 112.319687 17.397161 
L 112.962997 17.008581 
L 113.606307 16.675029 
L 113.992293 16.689878 
L 114.44261 16.933042 
L 115.343244 17.476745 
L 115.72923 17.440857 
L 116.243878 17.12613 
L 116.95152 16.688806 
L 117.337506 16.686612 
L 117.787823 16.927191 
L 118.624126 17.433055 
L 119.138774 17.410932 
L 119.910746 17.097983 
L 120.489725 16.920194 
L 120.875711 17.082575 
L 121.519021 17.360343 
L 121.905007 17.29043 
L 122.74131 16.899755 
L 123.770606 17.195929 
L 124.478247 16.836139 
L 125.057226 16.679356 
L 125.507543 16.747512 
L 127.051488 17.749488 
L 127.373143 17.915759 
L 127.630467 17.81848 
L 129.045749 16.868037 
L 129.367404 17.037738 
L 130.203707 17.676494 
L 130.525362 17.552485 
L 131.490327 16.997831 
L 132.712616 17.228716 
L 133.162933 17.462477 
L 133.548919 17.368934 
L 134.25656 17.077245 
L 134.578215 17.220027 
L 135.350188 17.712867 
L 135.671843 17.610089 
L 136.12216 17.186279 
L 136.894132 16.371937 
L 137.215787 16.3674 
L 137.537442 16.617981 
L 138.759731 17.860556 
L 139.081386 17.706435 
L 139.531703 17.148727 
L 140.175013 16.371367 
L 140.496668 16.293739 
L 140.818323 16.486393 
L 141.332971 17.152989 
L 141.91195 17.785596 
L 142.233605 17.852537 
L 142.55526 17.692999 
L 143.134239 17.065053 
L 143.77755 16.434976 
L 144.227867 16.28717 
L 144.678184 16.396058 
L 145.321494 16.832364 
L 146.543783 17.694652 
L 147.187093 17.857288 
L 147.766072 17.766852 
L 148.473713 17.395102 
L 150.21065 16.328461 
L 150.789629 16.294208 
L 151.432939 16.474229 
L 152.076249 16.890006 
L 153.491532 17.929211 
L 153.941849 17.913431 
L 154.520828 17.616972 
L 155.93611 16.809595 
L 156.386427 16.868011 
L 157.415723 17.148383 
L 159.345653 17.082673 
L 160.374949 17.030462 
L 161.146921 17.096965 
L 161.854563 17.120846 
L 163.012521 16.92533 
L 165.135444 17.236054 
L 166.872381 17.201692 
L 167.515691 17.189807 
L 169.252628 16.962012 
L 171.375552 17.092874 
L 173.305482 17.167667 
L 176.972349 17.107206 
L 178.001645 17.162775 
L 180.124569 17.046571 
L 181.346858 17.172826 
L 182.183161 16.998181 
L 183.212457 16.77041 
L 183.662774 16.939355 
L 184.370415 17.258416 
L 184.69207 17.157912 
L 185.721366 16.579203 
L 186.493338 16.717754 
L 187.072317 17.07234 
L 187.651296 17.337584 
L 187.972951 17.251141 
L 189.388234 16.443473 
L 189.77422 16.653948 
L 191.06084 17.647547 
L 191.382495 17.426367 
L 192.025805 16.929791 
L 192.34746 16.942841 
L 192.669115 17.22337 
L 193.376756 17.930843 
L 193.63408 17.865754 
L 194.084397 17.376285 
L 194.599045 16.931995 
L 195.113693 16.819311 
L 195.499679 16.983966 
L 196.271651 17.41837 
L 196.593306 17.227221 
L 197.236617 16.696291 
L 197.493941 16.739448 
L 197.815596 17.087392 
L 198.587568 17.999162 
L 198.844892 18.032017 
L 199.166547 17.784649 
L 200.324505 16.504521 
L 200.64616 16.593555 
L 201.096477 17.008272 
L 201.868449 17.697823 
L 202.190104 17.730887 
L 202.511759 17.537911 
L 203.2194 16.705396 
L 203.669717 16.395205 
L 203.991372 16.448993 
L 204.377358 16.793682 
L 205.277992 17.725806 
L 205.599647 17.733833 
L 205.985634 17.460192 
L 207.143592 16.399862 
L 207.529578 16.439164 
L 208.044226 16.79012 
L 209.137853 17.640956 
L 209.652501 17.759465 
L 210.23148 17.648136 
L 211.003452 17.23987 
L 212.418734 16.467705 
L 213.062044 16.389489 
L 213.705354 16.552131 
L 214.541657 17.026957 
L 215.699616 17.7172 
L 216.214264 17.739804 
L 216.793243 17.523734 
L 218.787504 16.541322 
L 219.430814 16.55037 
L 220.846096 16.710171 
L 221.618068 16.727188 
L 223.869654 17.326837 
L 224.577295 17.432434 
L 226.700218 17.140079 
L 228.051169 16.504173 
L 228.694479 16.527212 
L 229.466451 16.831455 
L 230.753071 17.542039 
L 231.460712 17.878338 
L 232.104022 17.905124 
L 232.747333 17.752472 
L 233.454974 17.333226 
L 234.48427 16.749305 
L 235.320573 16.531138 
L 236.028214 16.589616 
L 236.349869 16.688756 
L 236.349869 16.688756 
" clip-path="url(#p71fb842ede)" style="fill: none; stroke: #2ca02c; stroke-width: 0.5; stroke-linecap: square"/>
   </g>
   <g id="line2d_17">
    <path d="M 43.356847 17.072667 
L 53.328153 16.970622 
L 54.100125 16.946152 
L 54.807767 17.174795 
L 55.322415 17.277334 
L 55.772732 17.139426 
L 56.480373 16.90143 
L 56.866359 17.145256 
L 57.188014 17.258428 
L 58.024317 17.160565 
L 58.86062 17.360535 
L 59.50393 16.939541 
L 59.825585 16.823136 
L 60.14724 17.024898 
L 60.533226 17.215496 
L 61.112205 17.340141 
L 61.755515 17.815942 
L 62.012839 17.654227 
L 62.398825 16.979866 
L 62.849142 16.244791 
L 63.042135 16.292711 
L 63.36379 16.778381 
L 63.878439 17.47391 
L 64.200094 17.598907 
L 64.521749 17.470561 
L 65.358052 16.86799 
L 65.679707 16.778392 
L 65.937031 16.928279 
L 66.387348 17.267403 
L 66.709003 17.174077 
L 67.738299 16.692815 
L 68.767595 16.906429 
L 70.054215 17.436984 
L 70.37587 17.213334 
L 70.826187 16.918829 
L 71.212173 16.999754 
L 71.791152 17.148752 
L 73.335097 17.086357 
L 74.1714 17.111519 
L 75.844006 17.03104 
L 77.452281 17.12557 
L 79.510873 17.026888 
L 82.019783 17.134417 
L 85.68665 17.081572 
L 87.166263 17.125828 
L 88.324221 16.844406 
L 89.031862 16.755071 
L 89.54651 16.963441 
L 90.640138 17.484954 
L 91.41211 17.496444 
L 92.05542 17.273797 
L 93.470702 16.686435 
L 93.98535 16.62495 
L 94.757322 16.836347 
L 95.850949 17.361046 
L 96.815914 17.736267 
L 97.330562 17.724086 
L 97.909541 17.479287 
L 98.938837 17.001859 
L 99.517817 16.973845 
L 102.091057 17.149106 
L 104.342642 16.676752 
L 105.114614 16.776859 
L 106.336903 17.224255 
L 107.301868 17.471966 
L 108.073841 17.449029 
L 108.974475 17.187969 
L 110.58275 16.661461 
L 111.161729 16.724081 
L 111.805039 17.029545 
L 112.705673 17.472777 
L 113.15599 17.440549 
L 113.670638 17.147454 
L 114.44261 16.681109 
L 114.828596 16.68573 
L 115.278913 16.927356 
L 116.179547 17.475798 
L 116.565533 17.44241 
L 117.080182 17.122424 
L 117.852154 16.63843 
L 118.23814 16.687735 
L 118.88145 17.103821 
L 119.460429 17.325091 
L 120.039408 17.305876 
L 120.425394 17.102507 
L 121.004373 16.792501 
L 121.390359 16.866477 
L 121.969338 17.311097 
L 122.226662 17.39355 
L 122.483986 17.169613 
L 122.998634 16.520391 
L 123.191627 16.554777 
L 124.478247 17.414818 
L 125.250219 17.174326 
L 125.957861 16.7667 
L 126.408178 16.766109 
L 127.051488 16.599099 
L 127.308812 16.88227 
L 127.759129 17.417869 
L 128.46677 17.550973 
L 128.724094 17.467364 
L 129.11008 16.958712 
L 129.496066 16.635896 
L 129.75339 16.675594 
L 130.203707 17.082038 
L 130.718355 17.502796 
L 131.04001 17.502705 
L 132.96994 16.785014 
L 133.548919 17.182454 
L 133.999236 17.083966 
L 134.964202 16.622503 
L 135.285857 16.934526 
L 136.057829 17.775685 
L 136.379484 17.801833 
L 136.701139 17.551751 
L 137.859097 16.301443 
L 138.180752 16.399277 
L 138.566738 16.822909 
L 139.403041 17.814226 
L 139.724696 17.831346 
L 140.046351 17.583471 
L 141.26864 16.287042 
L 141.590295 16.409849 
L 142.040612 16.909175 
L 142.812584 17.764867 
L 143.19857 17.853836 
L 143.584556 17.685829 
L 144.292198 17.026421 
L 144.999839 16.454345 
L 145.514487 16.291385 
L 146.029135 16.353947 
L 146.672445 16.671808 
L 148.666706 17.835198 
L 149.245685 17.81864 
L 149.888995 17.54185 
L 150.982622 16.735432 
L 151.818925 16.23951 
L 152.333573 16.145934 
L 152.783891 16.312124 
L 153.748856 17.028557 
L 154.585159 17.661921 
L 155.035476 17.700572 
L 155.678786 17.461102 
L 157.287061 16.746537 
L 157.801709 16.883511 
L 158.380688 17.003948 
L 159.409984 16.905417 
L 160.053294 16.863868 
L 161.404245 17.028073 
L 162.30488 17.012371 
L 163.269845 17.032453 
L 164.556465 16.895626 
L 167.129705 17.194101 
L 171.182559 16.967007 
L 173.048158 17.092328 
L 174.849426 17.164965 
L 177.744321 17.080853 
L 178.773617 17.170202 
L 181.153865 17.082095 
L 182.504816 17.257143 
L 183.148126 17.083563 
L 183.920098 16.879096 
L 184.306084 17.057665 
L 185.013725 17.497355 
L 185.33538 17.358589 
L 185.97869 16.979257 
L 186.493338 16.837724 
L 186.943655 16.695726 
L 187.26531 16.845755 
L 188.358938 17.609182 
L 189.066579 17.265863 
L 189.967213 16.515116 
L 190.353199 16.450131 
L 190.610523 16.630958 
L 191.511157 17.61338 
L 191.832812 17.410622 
L 192.862108 16.473733 
L 193.183763 16.637508 
L 193.63408 17.222988 
L 193.955735 17.519511 
L 194.213059 17.51161 
L 194.856369 17.110087 
L 195.757003 16.518752 
L 196.078658 16.776981 
L 196.786299 17.545337 
L 197.043624 17.388531 
L 198.008589 16.406419 
L 198.330244 16.49407 
L 198.651899 16.866244 
L 199.35954 17.810926 
L 199.681195 17.860498 
L 200.00285 17.60847 
L 201.032146 16.503421 
L 201.353801 16.486447 
L 201.739787 16.718835 
L 202.962076 17.755993 
L 203.283731 17.605167 
L 203.798379 17.022813 
L 204.377358 16.444913 
L 204.699013 16.396993 
L 205.020668 16.584125 
L 205.728309 17.407218 
L 206.178627 17.737017 
L 206.500282 17.728604 
L 206.886268 17.472084 
L 208.108557 16.423754 
L 208.558874 16.409926 
L 209.073522 16.645068 
L 210.939121 17.727555 
L 211.582431 17.729551 
L 212.225741 17.501287 
L 214.541657 16.41231 
L 215.056306 16.483051 
L 216.342926 17.053159 
L 217.693877 17.530716 
L 218.401518 17.417262 
L 220.009793 16.940525 
L 222.454371 17.298264 
L 223.67666 17.126086 
L 225.799584 17.361689 
L 226.378563 17.462067 
L 227.279197 17.324367 
L 228.372824 16.856908 
L 229.016134 16.692993 
L 230.04543 16.64701 
L 231.074726 16.93386 
L 233.326312 17.611273 
L 234.162615 17.619172 
L 234.934587 17.350792 
L 236.349869 16.679139 
L 236.349869 16.679139 
" clip-path="url(#p71fb842ede)" style="fill: none; stroke: #d62728; stroke-width: 0.5; stroke-linecap: square"/>
   </g>
   <g id="patch_3">
    <path d="M 33.707196 202.559296 
L 33.707196 7.2 
" style="fill: none; stroke: #000000; stroke-width: 0.8; stroke-linejoin: miter; stroke-linecap: square"/>
   </g>
   <g id="patch_4">
    <path d="M 245.99952 202.559296 
L 245.99952 7.2 
" style="fill: none; stroke: #000000; stroke-width: 0.8; stroke-linejoin: miter; stroke-linecap: square"/>
   </g>
   <g id="patch_5">
    <path d="M 33.707196 202.559296 
L 245.99952 202.559296 
" style="fill: none; stroke: #000000; stroke-width: 0.8; stroke-linejoin: miter; stroke-linecap: square"/>
   </g>
   <g id="patch_6">
    <path d="M 33.707196 7.2 
L 245.99952 7.2 
" style="fill: none; stroke: #000000; stroke-width: 0.8; stroke-linejoin: miter; stroke-linecap: square"/>
   </g>
   <g id="legend_1">
    <g id="patch_7">
     <path d="M 116.8999 198.059296 
L 162.806816 198.059296 
Q 164.606816 198.059296 164.606816 196.259296 
L 164.606816 156.760168 
Q 164.606816 154.960168 162.806816 154.960168 
L 116.8999 154.960168 
Q 115.0999 154.960168 115.0999 156.760168 
L 115.0999 196.259296 
Q 115.0999 198.059296 116.8999 198.059296 
z
" style="fill: #ffffff; opacity: 0.8; stroke: #cccccc; stroke-width: 0.24; stroke-linejoin: miter"/>
    </g>
    <g id="line2d_18">
     <path d="M 118.6999 162.13495 
L 127.6999 162.13495 
L 136.6999 162.13495 
" style="fill: none; stroke: #ff7f0e; stroke-width: 0.5; stroke-linecap: square"/>
    </g>
    <g id="text_16">
     <!-- $\langle \sigma_z\rangle$ -->
     <g transform="translate(143.8999 165.28495) scale(0.09 -0.09)">
      <defs>
       <path id="CMSY10-68" d="M 2099 4557 
C 2131 4627 2131 4640 2131 4672 
C 2131 4742 2074 4800 2003 4800 
C 1946 4800 1901 4768 1856 4653 
L 736 1715 
C 723 1677 704 1638 704 1600 
C 704 1581 704 1568 736 1491 
L 1856 -1446 
C 1882 -1517 1914 -1600 2003 -1600 
C 2074 -1600 2131 -1542 2131 -1472 
C 2131 -1453 2131 -1440 2099 -1370 
L 966 1600 
L 2099 4557 
z
" transform="scale(0.015625)"/>
       <path id="CMMI12-1b" d="M 3251 2408 
C 3334 2408 3546 2408 3546 2612 
C 3546 2752 3424 2752 3309 2752 
L 1894 2752 
C 934 2752 243 1686 243 932 
C 243 390 595 -64 1171 -64 
C 1926 -64 2752 747 2752 1705 
C 2752 1954 2694 2196 2541 2408 
L 3251 2408 
z
M 1178 64 
C 851 64 614 313 614 754 
C 614 1137 845 2408 1786 2408 
C 2061 2408 2368 2274 2368 1781 
C 2368 1558 2266 1021 2042 652 
C 1811 275 1466 64 1178 64 
z
" transform="scale(0.015625)"/>
       <path id="CMMI12-7a" d="M 813 486 
C 1088 803 1312 1004 1632 1296 
C 2016 1632 2182 1793 2272 1891 
C 2720 2338 2944 2713 2944 2764 
C 2944 2816 2893 2816 2880 2816 
C 2835 2816 2822 2793 2790 2750 
C 2630 2494 2477 2367 2310 2367 
C 2176 2367 2106 2421 1984 2565 
C 1850 2715 1741 2816 1555 2816 
C 1088 2816 806 2257 806 2128 
C 806 2108 813 2068 870 2068 
C 922 2068 928 2091 947 2133 
C 1056 2372 1363 2414 1485 2414 
C 1619 2414 1747 2376 1882 2327 
C 2125 2240 2227 2240 2291 2240 
C 2336 2240 2362 2240 2394 2246 
C 2182 1994 1837 1683 1549 1418 
L 902 816 
C 512 415 275 33 275 -12 
C 275 -51 307 -64 346 -64 
C 384 -64 390 -57 435 14 
C 538 163 742 384 979 384 
C 1114 384 1178 342 1306 193 
C 1427 61 1536 -64 1741 -64 
C 2368 -64 2726 732 2726 876 
C 2726 903 2720 942 2656 942 
C 2605 942 2598 917 2579 855 
C 2438 488 2061 338 1811 338 
C 1677 338 1549 376 1414 425 
C 1158 512 1088 512 1005 512 
C 941 512 870 512 813 486 
z
" transform="scale(0.015625)"/>
       <path id="CMSY10-69" d="M 1747 1491 
C 1779 1568 1779 1581 1779 1600 
C 1779 1619 1779 1632 1747 1709 
L 627 4653 
C 589 4762 550 4800 480 4800 
C 410 4800 352 4742 352 4672 
C 352 4653 352 4640 384 4570 
L 1517 1600 
L 384 -1357 
C 352 -1427 352 -1440 352 -1472 
C 352 -1542 410 -1600 480 -1600 
C 563 -1600 589 -1536 614 -1472 
L 1747 1491 
z
" transform="scale(0.015625)"/>
      </defs>
      <use xlink:href="#CMSY10-68" transform="scale(0.996264)"/>
      <use xlink:href="#CMMI12-1b" transform="translate(38.743734 0) scale(0.996264)"/>
      <use xlink:href="#CMMI12-7a" transform="translate(94.189195 -14.943915) scale(0.697382)"/>
      <use xlink:href="#CMSY10-69" transform="translate(129.51575 0) scale(0.996264)"/>
     </g>
    </g>
    <g id="line2d_19">
     <path d="M 118.6999 175.601326 
L 127.6999 175.601326 
L 136.6999 175.601326 
" style="fill: none; stroke: #2ca02c; stroke-width: 0.5; stroke-linecap: square"/>
    </g>
    <g id="text_17">
     <!-- $\langle \sigma_x\rangle$ -->
     <g transform="translate(143.8999 178.751326) scale(0.09 -0.09)">
      <defs>
       <path id="CMMI12-78" d="M 3034 2606 
C 2829 2567 2752 2414 2752 2293 
C 2752 2139 2874 2088 2963 2088 
C 3155 2088 3290 2254 3290 2427 
C 3290 2695 2982 2816 2714 2816 
C 2323 2816 2106 2433 2048 2312 
C 1901 2816 1504 2816 1389 2816 
C 736 2816 390 1980 390 1839 
C 390 1814 416 1782 461 1782 
C 512 1782 525 1820 538 1846 
C 755 2555 1184 2689 1370 2689 
C 1658 2689 1715 2420 1715 2267 
C 1715 2127 1677 1980 1600 1673 
L 1382 798 
C 1286 415 1101 64 762 64 
C 730 64 570 64 435 147 
C 666 192 717 383 717 460 
C 717 588 621 664 499 664 
C 346 664 179 530 179 326 
C 179 57 480 -64 755 -64 
C 1062 -64 1280 179 1414 441 
C 1517 64 1837 -64 2074 -64 
C 2726 -64 3072 773 3072 913 
C 3072 945 3046 971 3008 971 
C 2950 971 2944 939 2925 888 
C 2752 326 2381 64 2093 64 
C 1869 64 1747 230 1747 492 
C 1747 632 1773 734 1875 1156 
L 2099 2024 
C 2195 2408 2413 2689 2707 2689 
C 2720 2689 2899 2689 3034 2606 
z
" transform="scale(0.015625)"/>
      </defs>
      <use xlink:href="#CMSY10-68" transform="scale(0.996264)"/>
      <use xlink:href="#CMMI12-1b" transform="translate(38.743734 0) scale(0.996264)"/>
      <use xlink:href="#CMMI12-78" transform="translate(94.189195 -14.943915) scale(0.697382)"/>
      <use xlink:href="#CMSY10-69" transform="translate(133.490986 0) scale(0.996264)"/>
     </g>
    </g>
    <g id="line2d_20">
     <path d="M 118.6999 189.067702 
L 127.6999 189.067702 
L 136.6999 189.067702 
" style="fill: none; stroke: #d62728; stroke-width: 0.5; stroke-linecap: square"/>
    </g>
    <g id="text_18">
     <!-- $\langle \sigma_y\rangle$ -->
     <g transform="translate(143.8999 192.217702) scale(0.09 -0.09)">
      <defs>
       <path id="CMMI12-79" d="M 1683 -700 
C 1510 -939 1261 -1152 947 -1152 
C 870 -1152 563 -1152 467 -889 
C 486 -895 518 -895 531 -895 
C 723 -895 851 -729 851 -582 
C 851 -435 730 -384 634 -384 
C 531 -384 307 -458 307 -759 
C 307 -1071 582 -1286 947 -1286 
C 1587 -1286 2234 -700 2413 6 
L 3040 2485 
C 3046 2517 3059 2556 3059 2594 
C 3059 2689 2982 2753 2886 2753 
C 2829 2753 2694 2727 2643 2535 
L 2170 658 
C 2138 543 2138 530 2086 460 
C 1958 281 1747 64 1440 64 
C 1082 64 1050 415 1050 588 
C 1050 952 1222 1443 1395 1903 
C 1466 2088 1504 2178 1504 2305 
C 1504 2574 1312 2816 998 2816 
C 410 2816 173 1890 173 1839 
C 173 1814 198 1782 243 1782 
C 301 1782 307 1807 333 1897 
C 486 2433 730 2689 979 2689 
C 1037 2689 1146 2689 1146 2478 
C 1146 2312 1075 2127 979 1884 
C 666 1047 666 837 666 683 
C 666 77 1101 -64 1421 -64 
C 1606 -64 1837 -6 2061 230 
L 2067 224 
C 1971 -147 1907 -392 1683 -700 
z
" transform="scale(0.015625)"/>
      </defs>
      <use xlink:href="#CMSY10-68" transform="scale(0.996264)"/>
      <use xlink:href="#CMMI12-1b" transform="translate(38.743734 0) scale(0.996264)"/>
      <use xlink:href="#CMMI12-79" transform="translate(94.189195 -14.943915) scale(0.697382)"/>
      <use xlink:href="#CMSY10-69" transform="translate(130.484301 0) scale(0.996264)"/>
     </g>
    </g>
   </g>
  </g>
 </g>
 <defs>
  <clipPath id="p71fb842ede">
   <rect x="33.707196" y="7.2" width="212.292324" height="195.359296"/>
  </clipPath>
 </defs>
</svg>
