<?xml version="1.0" encoding="utf-8" standalone="no"?>
<!DOCTYPE svg PUBLIC "-//W3C//DTD SVG 1.1//EN"
  "http://www.w3.org/Graphics/SVG/1.1/DTD/svg11.dtd">
<svg xmlns:xlink="http://www.w3.org/1999/xlink" width="253.19952pt" height="238.79952pt" viewBox="0 0 253.19952 238.79952" xmlns="http://www.w3.org/2000/svg" version="1.1">
 <metadata>
  <rdf:RDF xmlns:dc="http://purl.org/dc/elements/1.1/" xmlns:cc="http://creativecommons.org/ns#" xmlns:rdf="http://www.w3.org/1999/02/22-rdf-syntax-ns#">
   <cc:Work>
    <dc:type rdf:resource="http://purl.org/dc/dcmitype/StillImage"/>
    <dc:date>1980-01-01T00:00:00+00:00</dc:date>
    <dc:format>image/svg+xml</dc:format>
    <dc:creator>
     <cc:Agent>
      <dc:title>Matplotlib v3.6.2, https://matplotlib.org/</dc:title>
     </cc:Agent>
    </dc:creator>
   </cc:Work>
  </rdf:RDF>
 </metadata>
 <defs>
  <style type="text/css">*{stroke-linejoin: round; stroke-linecap: butt}</style>
 </defs>
 <g id="figure_1">
  <g id="patch_1">
   <path d="M 0 238.79952 
L 253.19952 238.79952 
L 253.19952 0 
L 0 0 
z
" style="fill: #ffffff"/>
  </g>
  <g id="axes_1">
   <g id="patch_2">
    <path d="M 33.707196 202.559296 
L 245.99952 202.559296 
L 245.99952 7.2 
L 33.707196 7.2 
z
" style="fill: #ffffff"/>
   </g>
   <g id="matplotlib.axis_1">
    <g id="xtick_1">
     <g id="line2d_1">
      <defs>
       <path id="m4f596102c0" d="M 0 0 
L 0 3.5 
" style="stroke: #000000; stroke-width: 0.8"/>
      </defs>
      <g>
       <use xlink:href="#m4f596102c0" x="43.356847" y="202.559296" style="stroke: #000000; stroke-width: 0.8"/>
      </g>
     </g>
     <g id="text_1">
      <!-- $\mathdefault{0}$ -->
      <g transform="translate(41.239756 217.194098) scale(0.08 -0.08)">
       <defs>
        <path id="CMR17-30" d="M 2688 2025 
C 2688 2416 2682 3080 2413 3591 
C 2176 4039 1798 4198 1466 4198 
C 1158 4198 768 4058 525 3597 
C 269 3118 243 2524 243 2025 
C 243 1661 250 1106 448 619 
C 723 -39 1216 -128 1466 -128 
C 1760 -128 2208 -7 2470 600 
C 2662 1042 2688 1559 2688 2025 
z
M 1466 -26 
C 1056 -26 813 325 723 812 
C 653 1188 653 1738 653 2096 
C 653 2588 653 2997 736 3387 
C 858 3929 1216 4096 1466 4096 
C 1728 4096 2067 3923 2189 3400 
C 2272 3036 2278 2607 2278 2096 
C 2278 1680 2278 1169 2202 792 
C 2067 95 1690 -26 1466 -26 
z
" transform="scale(0.015625)"/>
       </defs>
       <use xlink:href="#CMR17-30" transform="scale(0.996264)"/>
      </g>
     </g>
    </g>
    <g id="xtick_2">
     <g id="line2d_2">
      <g>
       <use xlink:href="#m4f596102c0" x="70.161434" y="202.559296" style="stroke: #000000; stroke-width: 0.8"/>
      </g>
     </g>
     <g id="text_2">
      <!-- $\mathdefault{25}$ -->
      <g transform="translate(65.927251 217.194098) scale(0.08 -0.08)">
       <defs>
        <path id="CMR17-32" d="M 2669 989 
L 2554 989 
C 2490 536 2438 459 2413 420 
C 2381 369 1920 369 1830 369 
L 602 369 
C 832 619 1280 1072 1824 1597 
C 2214 1967 2669 2402 2669 3035 
C 2669 3790 2067 4224 1395 4224 
C 691 4224 262 3604 262 3030 
C 262 2780 448 2748 525 2748 
C 589 2748 781 2787 781 3010 
C 781 3207 614 3264 525 3264 
C 486 3264 448 3258 422 3245 
C 544 3790 915 4058 1306 4058 
C 1862 4058 2227 3617 2227 3035 
C 2227 2479 1901 2000 1536 1584 
L 262 146 
L 262 0 
L 2515 0 
L 2669 989 
z
" transform="scale(0.015625)"/>
        <path id="CMR17-35" d="M 730 3692 
C 794 3666 1056 3584 1325 3584 
C 1920 3584 2246 3911 2432 4100 
C 2432 4157 2432 4192 2394 4192 
C 2387 4192 2374 4192 2323 4163 
C 2099 4058 1837 3973 1517 3973 
C 1325 3973 1037 3999 723 4139 
C 653 4171 640 4171 634 4171 
C 602 4171 595 4164 595 4037 
L 595 2203 
C 595 2089 595 2057 659 2057 
C 691 2057 704 2070 736 2114 
C 941 2401 1222 2522 1542 2522 
C 1766 2522 2246 2382 2246 1289 
C 2246 1085 2246 715 2054 421 
C 1894 159 1645 25 1370 25 
C 947 25 518 320 403 814 
C 429 807 480 795 506 795 
C 589 795 749 840 749 1038 
C 749 1210 627 1280 506 1280 
C 358 1280 262 1190 262 1011 
C 262 454 704 -128 1382 -128 
C 2042 -128 2669 440 2669 1264 
C 2669 2030 2170 2624 1549 2624 
C 1222 2624 947 2503 730 2274 
L 730 3692 
z
" transform="scale(0.015625)"/>
       </defs>
       <use xlink:href="#CMR17-32" transform="scale(0.996264)"/>
       <use xlink:href="#CMR17-35" transform="translate(45.690477 0) scale(0.996264)"/>
      </g>
     </g>
    </g>
    <g id="xtick_3">
     <g id="line2d_3">
      <g>
       <use xlink:href="#m4f596102c0" x="96.96602" y="202.559296" style="stroke: #000000; stroke-width: 0.8"/>
      </g>
     </g>
     <g id="text_3">
      <!-- $\mathdefault{50}$ -->
      <g transform="translate(92.731837 217.194098) scale(0.08 -0.08)">
       <use xlink:href="#CMR17-35" transform="scale(0.996264)"/>
       <use xlink:href="#CMR17-30" transform="translate(45.690477 0) scale(0.996264)"/>
      </g>
     </g>
    </g>
    <g id="xtick_4">
     <g id="line2d_4">
      <g>
       <use xlink:href="#m4f596102c0" x="123.770606" y="202.559296" style="stroke: #000000; stroke-width: 0.8"/>
      </g>
     </g>
     <g id="text_4">
      <!-- $\mathdefault{75}$ -->
      <g transform="translate(119.536423 217.194098) scale(0.08 -0.08)">
       <defs>
        <path id="CMR17-37" d="M 2886 3941 
L 2886 4081 
L 1382 4081 
C 634 4081 621 4165 595 4288 
L 480 4288 
L 294 3094 
L 410 3094 
C 429 3215 474 3540 550 3661 
C 589 3712 1062 3712 1171 3712 
L 2579 3712 
L 1869 2661 
C 1395 1954 1069 999 1069 165 
C 1069 89 1069 -128 1299 -128 
C 1530 -128 1530 89 1530 171 
L 1530 465 
C 1530 1508 1709 2196 2003 2636 
L 2886 3941 
z
" transform="scale(0.015625)"/>
       </defs>
       <use xlink:href="#CMR17-37" transform="scale(0.996264)"/>
       <use xlink:href="#CMR17-35" transform="translate(45.690477 0) scale(0.996264)"/>
      </g>
     </g>
    </g>
    <g id="xtick_5">
     <g id="line2d_5">
      <g>
       <use xlink:href="#m4f596102c0" x="150.575193" y="202.559296" style="stroke: #000000; stroke-width: 0.8"/>
      </g>
     </g>
     <g id="text_5">
      <!-- $\mathdefault{100}$ -->
      <g transform="translate(144.223918 217.194098) scale(0.08 -0.08)">
       <defs>
        <path id="CMR17-31" d="M 1702 4058 
C 1702 4192 1696 4192 1606 4192 
C 1357 3916 979 3827 621 3827 
C 602 3827 570 3827 563 3808 
C 557 3795 557 3782 557 3648 
C 755 3648 1088 3686 1344 3839 
L 1344 461 
C 1344 236 1331 160 781 160 
L 589 160 
L 589 0 
C 896 0 1216 0 1523 0 
C 1830 0 2150 0 2458 0 
L 2458 160 
L 2266 160 
C 1715 160 1702 230 1702 458 
L 1702 4058 
z
" transform="scale(0.015625)"/>
       </defs>
       <use xlink:href="#CMR17-31" transform="scale(0.996264)"/>
       <use xlink:href="#CMR17-30" transform="translate(45.690477 0) scale(0.996264)"/>
       <use xlink:href="#CMR17-30" transform="translate(91.380954 0) scale(0.996264)"/>
      </g>
     </g>
    </g>
    <g id="xtick_6">
     <g id="line2d_6">
      <g>
       <use xlink:href="#m4f596102c0" x="177.379779" y="202.559296" style="stroke: #000000; stroke-width: 0.8"/>
      </g>
     </g>
     <g id="text_6">
      <!-- $\mathdefault{125}$ -->
      <g transform="translate(171.028505 217.194098) scale(0.08 -0.08)">
       <use xlink:href="#CMR17-31" transform="scale(0.996264)"/>
       <use xlink:href="#CMR17-32" transform="translate(45.690477 0) scale(0.996264)"/>
       <use xlink:href="#CMR17-35" transform="translate(91.380954 0) scale(0.996264)"/>
      </g>
     </g>
    </g>
    <g id="xtick_7">
     <g id="line2d_7">
      <g>
       <use xlink:href="#m4f596102c0" x="204.184365" y="202.559296" style="stroke: #000000; stroke-width: 0.8"/>
      </g>
     </g>
     <g id="text_7">
      <!-- $\mathdefault{150}$ -->
      <g transform="translate(197.833091 217.194098) scale(0.08 -0.08)">
       <use xlink:href="#CMR17-31" transform="scale(0.996264)"/>
       <use xlink:href="#CMR17-35" transform="translate(45.690477 0) scale(0.996264)"/>
       <use xlink:href="#CMR17-30" transform="translate(91.380954 0) scale(0.996264)"/>
      </g>
     </g>
    </g>
    <g id="xtick_8">
     <g id="line2d_8">
      <g>
       <use xlink:href="#m4f596102c0" x="230.988952" y="202.559296" style="stroke: #000000; stroke-width: 0.8"/>
      </g>
     </g>
     <g id="text_8">
      <!-- $\mathdefault{175}$ -->
      <g transform="translate(224.637677 217.194098) scale(0.08 -0.08)">
       <use xlink:href="#CMR17-31" transform="scale(0.996264)"/>
       <use xlink:href="#CMR17-37" transform="translate(45.690477 0) scale(0.996264)"/>
       <use xlink:href="#CMR17-35" transform="translate(91.380954 0) scale(0.996264)"/>
      </g>
     </g>
    </g>
    <g id="text_9">
     <!-- $\tau$ -->
     <g transform="translate(137.675756 229.662342) scale(0.1 -0.1)">
      <defs>
       <path id="CMMI12-1c" d="M 1837 2408 
L 2899 2408 
C 2982 2408 3194 2408 3194 2612 
C 3194 2752 3072 2752 2957 2752 
L 1197 2752 
C 1050 2752 832 2752 538 2440 
C 371 2255 166 1917 166 1879 
C 166 1841 198 1828 237 1828 
C 282 1828 288 1847 320 1885 
C 653 2408 986 2408 1146 2408 
L 1677 2408 
L 1011 223 
C 979 127 979 114 979 95 
C 979 25 1024 -64 1152 -64 
C 1350 -64 1382 108 1402 203 
L 1837 2408 
z
" transform="scale(0.015625)"/>
      </defs>
      <use xlink:href="#CMMI12-1c" transform="scale(0.996264)"/>
     </g>
    </g>
   </g>
   <g id="matplotlib.axis_2">
    <g id="ytick_1">
     <g id="line2d_9">
      <defs>
       <path id="mf7d7609243" d="M 0 0 
L -3.5 0 
" style="stroke: #000000; stroke-width: 0.8"/>
      </defs>
      <g>
       <use xlink:href="#mf7d7609243" x="33.707196" y="193.679328" style="stroke: #000000; stroke-width: 0.8"/>
      </g>
     </g>
     <g id="text_10">
      <!-- $\mathdefault{−1.0}$ -->
      <g transform="translate(7.2 196.446729) scale(0.08 -0.08)">
       <defs>
        <path id="CMSY10-0" d="M 4218 1472 
C 4326 1472 4442 1472 4442 1600 
C 4442 1728 4326 1728 4218 1728 
L 755 1728 
C 646 1728 531 1728 531 1600 
C 531 1472 646 1472 755 1472 
L 4218 1472 
z
" transform="scale(0.015625)"/>
        <path id="CMMI12-3a" d="M 1178 307 
C 1178 492 1024 619 870 619 
C 685 619 557 466 557 313 
C 557 128 710 0 864 0 
C 1050 0 1178 153 1178 307 
z
" transform="scale(0.015625)"/>
       </defs>
       <use xlink:href="#CMSY10-0" transform="scale(0.996264)"/>
       <use xlink:href="#CMR17-31" transform="translate(77.487468 0) scale(0.996264)"/>
       <use xlink:href="#CMMI12-3a" transform="translate(123.177945 0) scale(0.996264)"/>
       <use xlink:href="#CMR17-30" transform="translate(150.275122 0) scale(0.996264)"/>
      </g>
     </g>
    </g>
    <g id="ytick_2">
     <g id="line2d_10">
      <g>
       <use xlink:href="#mf7d7609243" x="33.707196" y="158.362242" style="stroke: #000000; stroke-width: 0.8"/>
      </g>
     </g>
     <g id="text_11">
      <!-- $\mathdefault{−0.8}$ -->
      <g transform="translate(7.2 161.129643) scale(0.08 -0.08)">
       <defs>
        <path id="CMR17-38" d="M 1741 2264 
C 2144 2467 2554 2773 2554 3263 
C 2554 3841 1990 4179 1472 4179 
C 890 4179 378 3759 378 3180 
C 378 3021 416 2747 666 2505 
C 730 2442 998 2251 1171 2130 
C 883 1983 211 1634 211 934 
C 211 279 838 -128 1459 -128 
C 2144 -128 2720 362 2720 1010 
C 2720 1590 2330 1857 2074 2029 
L 1741 2264 
z
M 902 2822 
C 851 2854 595 3051 595 3351 
C 595 3739 998 4032 1459 4032 
C 1965 4032 2336 3676 2336 3262 
C 2336 2669 1670 2331 1638 2331 
C 1632 2331 1626 2331 1574 2370 
L 902 2822 
z
M 2080 1519 
C 2176 1449 2483 1240 2483 851 
C 2483 381 2010 25 1472 25 
C 890 25 448 438 448 940 
C 448 1443 838 1862 1280 2060 
L 2080 1519 
z
" transform="scale(0.015625)"/>
       </defs>
       <use xlink:href="#CMSY10-0" transform="scale(0.996264)"/>
       <use xlink:href="#CMR17-30" transform="translate(77.487468 0) scale(0.996264)"/>
       <use xlink:href="#CMMI12-3a" transform="translate(123.177945 0) scale(0.996264)"/>
       <use xlink:href="#CMR17-38" transform="translate(150.275122 0) scale(0.996264)"/>
      </g>
     </g>
    </g>
    <g id="ytick_3">
     <g id="line2d_11">
      <g>
       <use xlink:href="#mf7d7609243" x="33.707196" y="123.045156" style="stroke: #000000; stroke-width: 0.8"/>
      </g>
     </g>
     <g id="text_12">
      <!-- $\mathdefault{−0.6}$ -->
      <g transform="translate(7.2 125.812557) scale(0.08 -0.08)">
       <defs>
        <path id="CMR17-36" d="M 678 2176 
C 678 3690 1395 4032 1811 4032 
C 1946 4032 2272 4009 2400 3776 
C 2298 3776 2106 3776 2106 3553 
C 2106 3381 2246 3323 2336 3323 
C 2394 3323 2566 3348 2566 3560 
C 2566 3954 2246 4179 1805 4179 
C 1043 4179 243 3390 243 1984 
C 243 253 966 -128 1478 -128 
C 2099 -128 2688 427 2688 1283 
C 2688 2081 2170 2662 1517 2662 
C 1126 2662 838 2407 678 1960 
L 678 2176 
z
M 1478 25 
C 691 25 691 1200 691 1436 
C 691 1896 909 2560 1504 2560 
C 1613 2560 1926 2560 2138 2120 
C 2253 1870 2253 1609 2253 1289 
C 2253 944 2253 690 2118 434 
C 1978 171 1773 25 1478 25 
z
" transform="scale(0.015625)"/>
       </defs>
       <use xlink:href="#CMSY10-0" transform="scale(0.996264)"/>
       <use xlink:href="#CMR17-30" transform="translate(77.487468 0) scale(0.996264)"/>
       <use xlink:href="#CMMI12-3a" transform="translate(123.177945 0) scale(0.996264)"/>
       <use xlink:href="#CMR17-36" transform="translate(150.275122 0) scale(0.996264)"/>
      </g>
     </g>
    </g>
    <g id="ytick_4">
     <g id="line2d_12">
      <g>
       <use xlink:href="#mf7d7609243" x="33.707196" y="87.72807" style="stroke: #000000; stroke-width: 0.8"/>
      </g>
     </g>
     <g id="text_13">
      <!-- $\mathdefault{−0.4}$ -->
      <g transform="translate(7.2 90.495471) scale(0.08 -0.08)">
       <defs>
        <path id="CMR17-34" d="M 2150 4122 
C 2150 4256 2144 4256 2029 4256 
L 128 1254 
L 128 1088 
L 1779 1088 
L 1779 457 
C 1779 224 1766 160 1318 160 
L 1197 160 
L 1197 0 
C 1402 0 1747 0 1965 0 
C 2182 0 2528 0 2733 0 
L 2733 160 
L 2611 160 
C 2163 160 2150 224 2150 457 
L 2150 1088 
L 2803 1088 
L 2803 1254 
L 2150 1254 
L 2150 4122 
z
M 1798 3703 
L 1798 1254 
L 256 1254 
L 1798 3703 
z
" transform="scale(0.015625)"/>
       </defs>
       <use xlink:href="#CMSY10-0" transform="scale(0.996264)"/>
       <use xlink:href="#CMR17-30" transform="translate(77.487468 0) scale(0.996264)"/>
       <use xlink:href="#CMMI12-3a" transform="translate(123.177945 0) scale(0.996264)"/>
       <use xlink:href="#CMR17-34" transform="translate(150.275122 0) scale(0.996264)"/>
      </g>
     </g>
    </g>
    <g id="ytick_5">
     <g id="line2d_13">
      <g>
       <use xlink:href="#mf7d7609243" x="33.707196" y="52.410984" style="stroke: #000000; stroke-width: 0.8"/>
      </g>
     </g>
     <g id="text_14">
      <!-- $\mathdefault{−0.2}$ -->
      <g transform="translate(7.2 55.178385) scale(0.08 -0.08)">
       <use xlink:href="#CMSY10-0" transform="scale(0.996264)"/>
       <use xlink:href="#CMR17-30" transform="translate(77.487468 0) scale(0.996264)"/>
       <use xlink:href="#CMMI12-3a" transform="translate(123.177945 0) scale(0.996264)"/>
       <use xlink:href="#CMR17-32" transform="translate(150.275122 0) scale(0.996264)"/>
      </g>
     </g>
    </g>
    <g id="ytick_6">
     <g id="line2d_14">
      <g>
       <use xlink:href="#mf7d7609243" x="33.707196" y="17.093898" style="stroke: #000000; stroke-width: 0.8"/>
      </g>
     </g>
     <g id="text_15">
      <!-- $\mathdefault{0.0}$ -->
      <g transform="translate(13.786507 19.861299) scale(0.08 -0.08)">
       <use xlink:href="#CMR17-30" transform="scale(0.996264)"/>
       <use xlink:href="#CMMI12-3a" transform="translate(45.690477 0) scale(0.996264)"/>
       <use xlink:href="#CMR17-30" transform="translate(72.787654 0) scale(0.996264)"/>
      </g>
     </g>
    </g>
   </g>
   <g id="line2d_15">
    <path d="M 43.356847 193.679328 
L 43.421178 193.430918 
L 43.54984 191.495444 
L 43.807164 183.030214 
L 44.707798 149.062623 
L 45.029453 144.646205 
L 45.222446 144.092605 
L 45.351108 144.46585 
L 45.608432 146.637681 
L 46.123081 154.092158 
L 46.70206 161.659188 
L 47.088046 164.070255 
L 47.34537 164.582549 
L 47.538363 164.589631 
L 48.310335 164.210854 
L 48.567659 164.578276 
L 49.017976 165.698042 
L 49.854279 167.823016 
L 50.368927 168.500736 
L 51.140899 169.011878 
L 51.655547 169.545399 
L 52.298857 170.592283 
L 53.392484 172.438293 
L 53.585477 172.435608 
L 53.77847 172.192825 
L 54.035794 171.379938 
L 54.357449 169.395508 
L 54.743436 165.348357 
L 55.258084 157.014968 
L 56.28738 134.882006 
L 57.381007 113.421394 
L 58.152979 101.842247 
L 58.924951 93.824568 
L 59.889916 86.111991 
L 60.726219 80.78859 
L 62.205832 73.977151 
L 62.913473 71.867078 
L 64.650411 67.196371 
L 65.615376 66.014065 
L 66.709003 64.114124 
L 67.480975 63.591551 
L 67.866961 63.265412 
L 69.08925 61.764953 
L 69.539567 61.413762 
L 70.247208 60.878073 
L 70.633194 60.881164 
L 71.791152 61.073341 
L 72.3058 61.260292 
L 72.563125 61.103203 
L 73.335097 60.372237 
L 73.656752 60.492144 
L 74.042738 60.621838 
L 74.81471 60.670054 
L 75.329358 60.868957 
L 75.586682 60.711159 
L 76.808971 59.396313 
L 77.194957 58.193355 
L 77.645274 55.883146 
L 78.610239 49.256478 
L 79.189218 45.649984 
L 79.896859 42.908284 
L 80.411507 41.674476 
L 81.376473 40.266182 
L 81.698128 40.010186 
L 81.955452 40.061321 
L 82.534431 40.258583 
L 82.920417 40.135522 
L 83.306403 39.790237 
L 83.949713 39.162613 
L 84.721685 39.128328 
L 85.172002 39.404273 
L 85.68665 39.974607 
L 86.265629 40.938186 
L 86.780277 42.261955 
L 87.230594 44.038412 
L 87.745242 47.116544 
L 88.324221 52.196361 
L 89.031862 60.844067 
L 91.862427 97.874036 
L 92.827392 106.844153 
L 93.599364 112.299607 
L 94.564329 117.358888 
L 95.529294 121.074917 
L 96.301266 123.328516 
L 97.2019 125.194985 
L 98.681513 127.952491 
L 99.582148 128.922733 
L 100.096796 129.226601 
L 101.576409 129.887607 
L 102.605705 130.63345 
L 103.956656 130.888059 
L 106.079579 131.07569 
L 106.915882 131.023939 
L 107.494861 131.192989 
L 108.073841 131.253345 
L 108.395496 131.380786 
L 108.65282 131.707591 
L 108.910144 132.381624 
L 109.231799 133.961012 
L 109.617785 137.173747 
L 110.196764 144.224177 
L 110.968736 153.32474 
L 111.419053 156.219733 
L 111.805039 157.476915 
L 113.15599 160.780084 
L 114.44261 164.148333 
L 115.214582 165.472856 
L 116.565533 167.828879 
L 117.659161 170.026205 
L 117.916485 170.136919 
L 118.109478 169.988234 
L 118.366802 169.3417 
L 118.688457 167.580813 
L 119.074443 163.719245 
L 119.52476 156.65169 
L 120.489725 136.534752 
L 121.712014 112.630663 
L 122.676979 98.437332 
L 123.320289 91.929459 
L 124.349585 84.572955 
L 125.764867 76.709891 
L 126.858495 72.174332 
L 127.82346 69.460556 
L 128.724094 66.941839 
L 129.367404 65.469952 
L 129.817721 65.017827 
L 130.203707 64.520207 
L 130.654024 64.003686 
L 132.133637 62.911497 
L 132.776947 62.072158 
L 133.162933 61.965782 
L 134.385222 61.686619 
L 135.028533 61.141036 
L 135.543181 60.944246 
L 136.701139 60.964748 
L 137.987759 60.80598 
L 138.566738 61.023594 
L 138.888393 60.866743 
L 139.596034 60.414256 
L 140.882654 59.997673 
L 141.204309 59.336327 
L 141.590295 57.96482 
L 142.104943 55.055291 
L 143.906212 43.63199 
L 144.356529 42.373934 
L 144.935508 41.424777 
L 145.385825 41.067358 
L 146.157797 40.787834 
L 146.9941 40.211577 
L 149.181354 39.386162 
L 149.503009 39.667848 
L 150.21065 40.724944 
L 151.111284 42.547064 
L 151.49727 43.736713 
L 151.883256 45.665959 
L 152.397904 49.542349 
L 153.041215 56.438152 
L 153.941849 68.854257 
L 155.614455 92.01422 
L 156.515089 101.712679 
L 157.351392 108.441951 
L 158.316357 114.345189 
L 159.216991 118.48464 
L 160.181956 122.019714 
L 161.08259 124.336046 
L 162.111887 126.529314 
L 163.334176 128.549231 
L 164.106148 129.337974 
L 165.264106 130.197003 
L 166.229071 130.548099 
L 167.837346 131.021129 
L 168.544987 131.318797 
L 171.439883 131.824127 
L 172.662172 131.918717 
L 172.983827 132.226873 
L 173.241151 132.798663 
L 173.562806 134.237321 
L 173.948792 137.369613 
L 174.527771 144.466489 
L 175.299743 153.359969 
L 175.75006 156.173496 
L 176.200377 157.549522 
L 177.358335 160.282521 
L 178.580624 163.83138 
L 179.159603 164.760461 
L 180.060238 166.175631 
L 182.054499 170.091943 
L 182.311823 170.167722 
L 182.504816 169.928975 
L 182.76214 169.091163 
L 183.083795 167.048996 
L 183.469781 162.882875 
L 183.984429 154.39479 
L 186.750662 102.190508 
L 187.586965 93.015401 
L 188.744924 83.762332 
L 189.452565 79.552231 
L 190.610523 74.641253 
L 191.189502 72.563676 
L 192.540453 69.336576 
L 193.248094 67.702182 
L 193.827073 66.298935 
L 195.628341 63.612735 
L 196.271651 62.830718 
L 196.593306 62.824887 
L 196.914961 62.83184 
L 197.236617 62.545446 
L 197.686934 62.169416 
L 199.488202 61.48518 
L 199.938519 61.424429 
L 200.324505 61.345076 
L 201.482463 60.58822 
L 202.190104 60.331922 
L 202.57609 60.268808 
L 203.348062 60.383878 
L 204.055703 59.843848 
L 204.827675 59.777455 
L 205.14933 59.57974 
L 205.406654 59.143771 
L 205.728309 58.069964 
L 206.307289 55.037256 
L 207.207923 49.358977 
L 208.044226 44.094761 
L 208.558874 42.327285 
L 209.137853 41.182966 
L 209.845494 39.98223 
L 210.102818 39.940488 
L 210.939121 40.168134 
L 212.16141 39.431401 
L 212.80472 39.258888 
L 213.512361 39.264462 
L 213.834016 39.302334 
L 214.155671 39.612175 
L 214.670319 40.541986 
L 215.377961 42.285092 
L 215.892609 44.225532 
L 216.407257 47.135442 
L 216.921905 51.51188 
L 217.629546 59.844512 
L 220.781765 100.969902 
L 221.74673 109.080046 
L 222.583033 114.252622 
L 223.483667 118.505456 
L 224.319971 121.386341 
L 225.477929 124.48777 
L 226.314232 126.175379 
L 227.343528 127.9553 
L 228.244162 129.10221 
L 229.080465 129.654105 
L 231.460712 130.617468 
L 232.232684 130.820622 
L 233.004657 131.075723 
L 233.969622 131.112042 
L 235.384904 131.328397 
L 235.899552 131.431507 
L 236.349869 131.377145 
L 236.349869 131.377145 
" clip-path="url(#pe02f4c7b94)" style="fill: none; stroke: #1f77b4; stroke-width: 0.5; stroke-linecap: square"/>
   </g>
   <g id="line2d_16">
    <path d="M 43.356847 17.093898 
L 44.19315 16.772515 
L 45.158115 16.695171 
L 51.20523 16.788882 
L 55.64407 16.704829 
L 58.603296 16.607077 
L 75.779675 16.590408 
L 110.132433 16.691178 
L 114.506941 16.767062 
L 119.975077 16.701124 
L 122.998634 16.605098 
L 141.204309 16.589168 
L 168.287663 16.657096 
L 180.124569 16.776427 
L 184.241753 16.706222 
L 187.26531 16.6068 
L 203.605386 16.589665 
L 227.793845 16.652422 
L 236.349869 16.657311 
L 236.349869 16.657311 
" clip-path="url(#pe02f4c7b94)" style="fill: none; stroke: #ff7f0e; stroke-width: 0.5; stroke-linecap: square"/>
   </g>
   <g id="line2d_17">
    <path d="M 43.356847 17.093898 
L 44.965122 17.275505 
L 46.70206 17.326086 
L 47.667025 17.397211 
L 49.661286 17.243715 
L 50.368927 17.375147 
L 50.947906 17.174718 
L 52.105864 16.836519 
L 52.556181 16.923491 
L 53.392484 17.166279 
L 55.258084 17.016823 
L 56.094387 16.971638 
L 56.802028 16.946326 
L 57.831324 17.102905 
L 59.375268 16.957183 
L 60.404564 17.208053 
L 60.79055 17.036734 
L 62.07717 16.264528 
L 62.463156 16.506963 
L 63.36379 17.114196 
L 63.685446 17.062824 
L 64.264425 16.67025 
L 64.907735 16.311442 
L 65.293721 16.351277 
L 65.744038 16.664753 
L 66.258686 16.977162 
L 66.773334 16.99265 
L 69.08925 16.739288 
L 69.796891 17.010176 
L 70.247208 17.441281 
L 70.697525 17.816224 
L 70.954849 17.772994 
L 71.598159 17.270203 
L 71.984145 17.104298 
L 73.721083 16.991508 
L 74.107069 16.706334 
L 74.557386 16.381563 
L 74.879041 16.457413 
L 75.329358 16.902187 
L 75.844006 17.340756 
L 76.680309 17.615036 
L 77.066295 17.52793 
L 78.352915 16.938619 
L 79.446542 17.093289 
L 80.025521 17.090711 
L 80.668831 17.07835 
L 82.212776 16.848281 
L 83.306403 17.189269 
L 84.207037 17.400958 
L 85.364995 17.841399 
L 86.715946 17.689579 
L 87.230594 17.34448 
L 88.002566 16.834903 
L 88.774538 16.650114 
L 89.353517 16.74721 
L 92.312744 17.354386 
L 93.34204 16.954979 
L 93.921019 16.776164 
L 94.371336 16.882978 
L 95.657956 17.351391 
L 96.429928 17.281591 
L 97.330562 17.135705 
L 98.295527 16.916363 
L 99.453486 16.986088 
L 100.804437 17.278457 
L 102.541374 16.875229 
L 103.184684 16.938507 
L 103.892325 17.00015 
L 104.921621 16.89902 
L 105.564931 16.879332 
L 106.14391 16.912092 
L 107.044544 17.27402 
L 107.623523 17.448588 
L 108.717151 17.423341 
L 110.196764 17.100209 
L 110.711412 17.276519 
L 111.290391 17.471992 
L 112.062363 17.336537 
L 112.705673 17.133073 
L 113.348983 16.894306 
L 113.7993 17.023672 
L 114.635603 17.252176 
L 115.214582 17.215804 
L 115.793561 16.894405 
L 116.501202 16.554434 
L 116.95152 16.589452 
L 117.530499 16.907961 
L 118.366802 17.364572 
L 119.203105 17.480209 
L 120.296732 17.26085 
L 121.390359 17.61489 
L 121.647683 17.404227 
L 122.419655 16.572133 
L 122.676979 16.685022 
L 123.577613 17.300412 
L 123.963599 17.216009 
L 124.285254 16.893081 
L 124.992895 16.082403 
L 125.250219 16.181875 
L 125.571874 16.661064 
L 126.150854 17.577863 
L 126.408178 17.700557 
L 126.665502 17.567388 
L 127.437474 16.845755 
L 127.82346 17.041746 
L 128.273777 17.193629 
L 128.981418 17.187158 
L 129.624728 17.055353 
L 130.782686 16.650735 
L 131.233003 17.062038 
L 131.811982 17.532611 
L 132.069306 17.469675 
L 132.390961 17.059361 
L 132.905609 16.423221 
L 133.098602 16.42569 
L 133.355926 16.681127 
L 134.063567 17.601315 
L 134.320891 17.563883 
L 134.642546 17.217031 
L 135.285857 16.404483 
L 135.543181 16.392108 
L 135.864836 16.660773 
L 136.829801 17.831725 
L 137.087125 17.755317 
L 137.473111 17.289495 
L 138.05209 16.580649 
L 138.438076 16.403804 
L 138.6954 16.518091 
L 139.724696 17.354205 
L 140.046351 17.16243 
L 141.204309 16.138592 
L 141.525964 16.215325 
L 142.104943 16.664721 
L 142.683922 17.033544 
L 143.262901 17.155091 
L 145.06417 17.167306 
L 145.514487 17.124218 
L 147.187093 16.716729 
L 147.573079 16.90343 
L 148.92403 17.786478 
L 149.696002 17.891899 
L 150.532305 17.641645 
L 151.690263 17.178276 
L 153.36287 17.028318 
L 154.327835 16.81449 
L 154.778152 16.834285 
L 157.158399 17.431687 
L 157.608716 17.291166 
L 158.573681 16.913137 
L 159.731639 16.544144 
L 160.246287 16.575186 
L 161.532908 16.890802 
L 162.240549 17.088656 
L 162.690866 17.155993 
L 163.784493 16.887239 
L 164.23481 16.900888 
L 165.199775 17.06313 
L 166.80805 17.093374 
L 167.387029 17.086116 
L 168.416325 16.979741 
L 169.252628 17.039884 
L 170.088931 17.1815 
L 172.147524 17.903411 
L 172.726503 17.724669 
L 173.434144 17.189988 
L 174.399109 16.671291 
L 174.785095 16.736532 
L 175.943053 17.109268 
L 176.522032 17.119234 
L 177.872983 16.924368 
L 179.416928 16.937563 
L 181.089534 16.897958 
L 182.11883 17.207775 
L 182.633478 17.135357 
L 183.148126 16.791199 
L 183.727105 16.469138 
L 184.113091 16.477625 
L 184.499077 16.73006 
L 185.464042 17.602928 
L 185.721366 17.456617 
L 186.750662 16.485085 
L 187.072317 16.713998 
L 187.651296 17.184689 
L 188.037282 17.154007 
L 188.873586 16.967815 
L 189.838551 17.146484 
L 190.932178 16.937387 
L 191.832812 17.01553 
L 192.862108 16.772276 
L 193.698411 16.912614 
L 194.213059 17.172646 
L 195.113693 17.860576 
L 195.371017 17.691826 
L 196.335982 16.728862 
L 196.593306 16.691225 
L 196.85063 16.89957 
L 197.622603 17.760868 
L 197.879927 17.690137 
L 198.330244 17.22905 
L 199.166547 16.364927 
L 199.488202 16.299954 
L 199.809857 16.466735 
L 200.774822 17.216067 
L 201.28947 17.168893 
L 203.026407 16.970096 
L 204.120034 17.089747 
L 204.634682 17.149917 
L 205.277992 17.296331 
L 206.242958 17.497423 
L 208.430212 17.46096 
L 209.202184 17.581938 
L 209.716832 17.693301 
L 210.681797 18.025422 
L 211.067783 17.916855 
L 212.933382 17.066666 
L 213.576692 16.993735 
L 214.09134 17.12586 
L 215.377961 17.741437 
L 215.828278 17.638535 
L 217.88687 16.747297 
L 218.337187 16.930889 
L 219.366483 17.389453 
L 220.395779 17.705465 
L 221.039089 17.642011 
L 222.39004 17.075539 
L 223.162012 16.885508 
L 224.062647 16.92081 
L 224.641626 17.127542 
L 226.121239 17.759407 
L 227.021873 17.589126 
L 228.308493 17.094434 
L 229.144796 17.184303 
L 229.981099 17.170858 
L 230.753071 17.108056 
L 232.104022 17.297118 
L 233.454974 17.118342 
L 234.998918 17.011282 
L 236.349869 17.131977 
L 236.349869 17.131977 
" clip-path="url(#pe02f4c7b94)" style="fill: none; stroke: #2ca02c; stroke-width: 0.5; stroke-linecap: square"/>
   </g>
   <g id="patch_3">
    <path d="M 33.707196 202.559296 
L 33.707196 7.2 
" style="fill: none; stroke: #000000; stroke-width: 0.8; stroke-linejoin: miter; stroke-linecap: square"/>
   </g>
   <g id="patch_4">
    <path d="M 245.99952 202.559296 
L 245.99952 7.2 
" style="fill: none; stroke: #000000; stroke-width: 0.8; stroke-linejoin: miter; stroke-linecap: square"/>
   </g>
   <g id="patch_5">
    <path d="M 33.707196 202.559296 
L 245.99952 202.559296 
" style="fill: none; stroke: #000000; stroke-width: 0.8; stroke-linejoin: miter; stroke-linecap: square"/>
   </g>
   <g id="patch_6">
    <path d="M 33.707196 7.2 
L 245.99952 7.2 
" style="fill: none; stroke: #000000; stroke-width: 0.8; stroke-linejoin: miter; stroke-linecap: square"/>
   </g>
   <g id="legend_1">
    <g id="patch_7">
     <path d="M 193.792605 198.059296 
L 239.69952 198.059296 
Q 241.49952 198.059296 241.49952 196.259296 
L 241.49952 156.760168 
Q 241.49952 154.960168 239.69952 154.960168 
L 193.792605 154.960168 
Q 191.992605 154.960168 191.992605 156.760168 
L 191.992605 196.259296 
Q 191.992605 198.059296 193.792605 198.059296 
z
" style="fill: #ffffff; opacity: 0.8; stroke: #cccccc; stroke-width: 0.24; stroke-linejoin: miter"/>
    </g>
    <g id="line2d_18">
     <path d="M 195.592605 162.13495 
L 204.592605 162.13495 
L 213.592605 162.13495 
" style="fill: none; stroke: #1f77b4; stroke-width: 0.5; stroke-linecap: square"/>
    </g>
    <g id="text_16">
     <!-- $\langle \sigma_z\rangle$ -->
     <g transform="translate(220.792605 165.28495) scale(0.09 -0.09)">
      <defs>
       <path id="CMSY10-68" d="M 2099 4557 
C 2131 4627 2131 4640 2131 4672 
C 2131 4742 2074 4800 2003 4800 
C 1946 4800 1901 4768 1856 4653 
L 736 1715 
C 723 1677 704 1638 704 1600 
C 704 1581 704 1568 736 1491 
L 1856 -1446 
C 1882 -1517 1914 -1600 2003 -1600 
C 2074 -1600 2131 -1542 2131 -1472 
C 2131 -1453 2131 -1440 2099 -1370 
L 966 1600 
L 2099 4557 
z
" transform="scale(0.015625)"/>
       <path id="CMMI12-1b" d="M 3251 2408 
C 3334 2408 3546 2408 3546 2612 
C 3546 2752 3424 2752 3309 2752 
L 1894 2752 
C 934 2752 243 1686 243 932 
C 243 390 595 -64 1171 -64 
C 1926 -64 2752 747 2752 1705 
C 2752 1954 2694 2196 2541 2408 
L 3251 2408 
z
M 1178 64 
C 851 64 614 313 614 754 
C 614 1137 845 2408 1786 2408 
C 2061 2408 2368 2274 2368 1781 
C 2368 1558 2266 1021 2042 652 
C 1811 275 1466 64 1178 64 
z
" transform="scale(0.015625)"/>
       <path id="CMMI12-7a" d="M 813 486 
C 1088 803 1312 1004 1632 1296 
C 2016 1632 2182 1793 2272 1891 
C 2720 2338 2944 2713 2944 2764 
C 2944 2816 2893 2816 2880 2816 
C 2835 2816 2822 2793 2790 2750 
C 2630 2494 2477 2367 2310 2367 
C 2176 2367 2106 2421 1984 2565 
C 1850 2715 1741 2816 1555 2816 
C 1088 2816 806 2257 806 2128 
C 806 2108 813 2068 870 2068 
C 922 2068 928 2091 947 2133 
C 1056 2372 1363 2414 1485 2414 
C 1619 2414 1747 2376 1882 2327 
C 2125 2240 2227 2240 2291 2240 
C 2336 2240 2362 2240 2394 2246 
C 2182 1994 1837 1683 1549 1418 
L 902 816 
C 512 415 275 33 275 -12 
C 275 -51 307 -64 346 -64 
C 384 -64 390 -57 435 14 
C 538 163 742 384 979 384 
C 1114 384 1178 342 1306 193 
C 1427 61 1536 -64 1741 -64 
C 2368 -64 2726 732 2726 876 
C 2726 903 2720 942 2656 942 
C 2605 942 2598 917 2579 855 
C 2438 488 2061 338 1811 338 
C 1677 338 1549 376 1414 425 
C 1158 512 1088 512 1005 512 
C 941 512 870 512 813 486 
z
" transform="scale(0.015625)"/>
       <path id="CMSY10-69" d="M 1747 1491 
C 1779 1568 1779 1581 1779 1600 
C 1779 1619 1779 1632 1747 1709 
L 627 4653 
C 589 4762 550 4800 480 4800 
C 410 4800 352 4742 352 4672 
C 352 4653 352 4640 384 4570 
L 1517 1600 
L 384 -1357 
C 352 -1427 352 -1440 352 -1472 
C 352 -1542 410 -1600 480 -1600 
C 563 -1600 589 -1536 614 -1472 
L 1747 1491 
z
" transform="scale(0.015625)"/>
      </defs>
      <use xlink:href="#CMSY10-68" transform="scale(0.996264)"/>
      <use xlink:href="#CMMI12-1b" transform="translate(38.743734 0) scale(0.996264)"/>
      <use xlink:href="#CMMI12-7a" transform="translate(94.189195 -14.943915) scale(0.697382)"/>
      <use xlink:href="#CMSY10-69" transform="translate(129.51575 0) scale(0.996264)"/>
     </g>
    </g>
    <g id="line2d_19">
     <path d="M 195.592605 175.601326 
L 204.592605 175.601326 
L 213.592605 175.601326 
" style="fill: none; stroke: #ff7f0e; stroke-width: 0.5; stroke-linecap: square"/>
    </g>
    <g id="text_17">
     <!-- $\langle \sigma_x\rangle$ -->
     <g transform="translate(220.792605 178.751326) scale(0.09 -0.09)">
      <defs>
       <path id="CMMI12-78" d="M 3034 2606 
C 2829 2567 2752 2414 2752 2293 
C 2752 2139 2874 2088 2963 2088 
C 3155 2088 3290 2254 3290 2427 
C 3290 2695 2982 2816 2714 2816 
C 2323 2816 2106 2433 2048 2312 
C 1901 2816 1504 2816 1389 2816 
C 736 2816 390 1980 390 1839 
C 390 1814 416 1782 461 1782 
C 512 1782 525 1820 538 1846 
C 755 2555 1184 2689 1370 2689 
C 1658 2689 1715 2420 1715 2267 
C 1715 2127 1677 1980 1600 1673 
L 1382 798 
C 1286 415 1101 64 762 64 
C 730 64 570 64 435 147 
C 666 192 717 383 717 460 
C 717 588 621 664 499 664 
C 346 664 179 530 179 326 
C 179 57 480 -64 755 -64 
C 1062 -64 1280 179 1414 441 
C 1517 64 1837 -64 2074 -64 
C 2726 -64 3072 773 3072 913 
C 3072 945 3046 971 3008 971 
C 2950 971 2944 939 2925 888 
C 2752 326 2381 64 2093 64 
C 1869 64 1747 230 1747 492 
C 1747 632 1773 734 1875 1156 
L 2099 2024 
C 2195 2408 2413 2689 2707 2689 
C 2720 2689 2899 2689 3034 2606 
z
" transform="scale(0.015625)"/>
      </defs>
      <use xlink:href="#CMSY10-68" transform="scale(0.996264)"/>
      <use xlink:href="#CMMI12-1b" transform="translate(38.743734 0) scale(0.996264)"/>
      <use xlink:href="#CMMI12-78" transform="translate(94.189195 -14.943915) scale(0.697382)"/>
      <use xlink:href="#CMSY10-69" transform="translate(133.490986 0) scale(0.996264)"/>
     </g>
    </g>
    <g id="line2d_20">
     <path d="M 195.592605 189.067702 
L 204.592605 189.067702 
L 213.592605 189.067702 
" style="fill: none; stroke: #2ca02c; stroke-width: 0.5; stroke-linecap: square"/>
    </g>
    <g id="text_18">
     <!-- $\langle \sigma_y\rangle$ -->
     <g transform="translate(220.792605 192.217702) scale(0.09 -0.09)">
      <defs>
       <path id="CMMI12-79" d="M 1683 -700 
C 1510 -939 1261 -1152 947 -1152 
C 870 -1152 563 -1152 467 -889 
C 486 -895 518 -895 531 -895 
C 723 -895 851 -729 851 -582 
C 851 -435 730 -384 634 -384 
C 531 -384 307 -458 307 -759 
C 307 -1071 582 -1286 947 -1286 
C 1587 -1286 2234 -700 2413 6 
L 3040 2485 
C 3046 2517 3059 2556 3059 2594 
C 3059 2689 2982 2753 2886 2753 
C 2829 2753 2694 2727 2643 2535 
L 2170 658 
C 2138 543 2138 530 2086 460 
C 1958 281 1747 64 1440 64 
C 1082 64 1050 415 1050 588 
C 1050 952 1222 1443 1395 1903 
C 1466 2088 1504 2178 1504 2305 
C 1504 2574 1312 2816 998 2816 
C 410 2816 173 1890 173 1839 
C 173 1814 198 1782 243 1782 
C 301 1782 307 1807 333 1897 
C 486 2433 730 2689 979 2689 
C 1037 2689 1146 2689 1146 2478 
C 1146 2312 1075 2127 979 1884 
C 666 1047 666 837 666 683 
C 666 77 1101 -64 1421 -64 
C 1606 -64 1837 -6 2061 230 
L 2067 224 
C 1971 -147 1907 -392 1683 -700 
z
" transform="scale(0.015625)"/>
      </defs>
      <use xlink:href="#CMSY10-68" transform="scale(0.996264)"/>
      <use xlink:href="#CMMI12-1b" transform="translate(38.743734 0) scale(0.996264)"/>
      <use xlink:href="#CMMI12-79" transform="translate(94.189195 -14.943915) scale(0.697382)"/>
      <use xlink:href="#CMSY10-69" transform="translate(130.484301 0) scale(0.996264)"/>
     </g>
    </g>
   </g>
  </g>
 </g>
 <defs>
  <clipPath id="pe02f4c7b94">
   <rect x="33.707196" y="7.2" width="212.292324" height="195.359296"/>
  </clipPath>
 </defs>
</svg>
