<?xml version="1.0" encoding="utf-8" standalone="no"?>
<!DOCTYPE svg PUBLIC "-//W3C//DTD SVG 1.1//EN"
  "http://www.w3.org/Graphics/SVG/1.1/DTD/svg11.dtd">
<svg xmlns:xlink="http://www.w3.org/1999/xlink" width="253.19952pt" height="238.79952pt" viewBox="0 0 253.19952 238.79952" xmlns="http://www.w3.org/2000/svg" version="1.1">
 <metadata>
  <rdf:RDF xmlns:dc="http://purl.org/dc/elements/1.1/" xmlns:cc="http://creativecommons.org/ns#" xmlns:rdf="http://www.w3.org/1999/02/22-rdf-syntax-ns#">
   <cc:Work>
    <dc:type rdf:resource="http://purl.org/dc/dcmitype/StillImage"/>
    <dc:date>1980-01-01T00:00:00+00:00</dc:date>
    <dc:format>image/svg+xml</dc:format>
    <dc:creator>
     <cc:Agent>
      <dc:title>Matplotlib v3.6.2, https://matplotlib.org/</dc:title>
     </cc:Agent>
    </dc:creator>
   </cc:Work>
  </rdf:RDF>
 </metadata>
 <defs>
  <style type="text/css">*{stroke-linejoin: round; stroke-linecap: butt}</style>
 </defs>
 <g id="figure_1">
  <g id="patch_1">
   <path d="M 0 238.79952 
L 253.19952 238.79952 
L 253.19952 0 
L 0 0 
z
" style="fill: #ffffff"/>
  </g>
  <g id="axes_1">
   <g id="patch_2">
    <path d="M 33.707196 202.559296 
L 245.99952 202.559296 
L 245.99952 7.2 
L 33.707196 7.2 
z
" style="fill: #ffffff"/>
   </g>
   <g id="matplotlib.axis_1">
    <g id="xtick_1">
     <g id="line2d_1">
      <defs>
       <path id="m440c648413" d="M 0 0 
L 0 3.5 
" style="stroke: #000000; stroke-width: 0.8"/>
      </defs>
      <g>
       <use xlink:href="#m440c648413" x="43.356847" y="202.559296" style="stroke: #000000; stroke-width: 0.8"/>
      </g>
     </g>
     <g id="text_1">
      <!-- $\mathdefault{0}$ -->
      <g transform="translate(41.239756 217.194098) scale(0.08 -0.08)">
       <defs>
        <path id="CMR17-30" d="M 2688 2025 
C 2688 2416 2682 3080 2413 3591 
C 2176 4039 1798 4198 1466 4198 
C 1158 4198 768 4058 525 3597 
C 269 3118 243 2524 243 2025 
C 243 1661 250 1106 448 619 
C 723 -39 1216 -128 1466 -128 
C 1760 -128 2208 -7 2470 600 
C 2662 1042 2688 1559 2688 2025 
z
M 1466 -26 
C 1056 -26 813 325 723 812 
C 653 1188 653 1738 653 2096 
C 653 2588 653 2997 736 3387 
C 858 3929 1216 4096 1466 4096 
C 1728 4096 2067 3923 2189 3400 
C 2272 3036 2278 2607 2278 2096 
C 2278 1680 2278 1169 2202 792 
C 2067 95 1690 -26 1466 -26 
z
" transform="scale(0.015625)"/>
       </defs>
       <use xlink:href="#CMR17-30" transform="scale(0.996264)"/>
      </g>
     </g>
    </g>
    <g id="xtick_2">
     <g id="line2d_2">
      <g>
       <use xlink:href="#m440c648413" x="70.161434" y="202.559296" style="stroke: #000000; stroke-width: 0.8"/>
      </g>
     </g>
     <g id="text_2">
      <!-- $\mathdefault{25}$ -->
      <g transform="translate(65.927251 217.194098) scale(0.08 -0.08)">
       <defs>
        <path id="CMR17-32" d="M 2669 989 
L 2554 989 
C 2490 536 2438 459 2413 420 
C 2381 369 1920 369 1830 369 
L 602 369 
C 832 619 1280 1072 1824 1597 
C 2214 1967 2669 2402 2669 3035 
C 2669 3790 2067 4224 1395 4224 
C 691 4224 262 3604 262 3030 
C 262 2780 448 2748 525 2748 
C 589 2748 781 2787 781 3010 
C 781 3207 614 3264 525 3264 
C 486 3264 448 3258 422 3245 
C 544 3790 915 4058 1306 4058 
C 1862 4058 2227 3617 2227 3035 
C 2227 2479 1901 2000 1536 1584 
L 262 146 
L 262 0 
L 2515 0 
L 2669 989 
z
" transform="scale(0.015625)"/>
        <path id="CMR17-35" d="M 730 3692 
C 794 3666 1056 3584 1325 3584 
C 1920 3584 2246 3911 2432 4100 
C 2432 4157 2432 4192 2394 4192 
C 2387 4192 2374 4192 2323 4163 
C 2099 4058 1837 3973 1517 3973 
C 1325 3973 1037 3999 723 4139 
C 653 4171 640 4171 634 4171 
C 602 4171 595 4164 595 4037 
L 595 2203 
C 595 2089 595 2057 659 2057 
C 691 2057 704 2070 736 2114 
C 941 2401 1222 2522 1542 2522 
C 1766 2522 2246 2382 2246 1289 
C 2246 1085 2246 715 2054 421 
C 1894 159 1645 25 1370 25 
C 947 25 518 320 403 814 
C 429 807 480 795 506 795 
C 589 795 749 840 749 1038 
C 749 1210 627 1280 506 1280 
C 358 1280 262 1190 262 1011 
C 262 454 704 -128 1382 -128 
C 2042 -128 2669 440 2669 1264 
C 2669 2030 2170 2624 1549 2624 
C 1222 2624 947 2503 730 2274 
L 730 3692 
z
" transform="scale(0.015625)"/>
       </defs>
       <use xlink:href="#CMR17-32" transform="scale(0.996264)"/>
       <use xlink:href="#CMR17-35" transform="translate(45.690477 0) scale(0.996264)"/>
      </g>
     </g>
    </g>
    <g id="xtick_3">
     <g id="line2d_3">
      <g>
       <use xlink:href="#m440c648413" x="96.96602" y="202.559296" style="stroke: #000000; stroke-width: 0.8"/>
      </g>
     </g>
     <g id="text_3">
      <!-- $\mathdefault{50}$ -->
      <g transform="translate(92.731837 217.194098) scale(0.08 -0.08)">
       <use xlink:href="#CMR17-35" transform="scale(0.996264)"/>
       <use xlink:href="#CMR17-30" transform="translate(45.690477 0) scale(0.996264)"/>
      </g>
     </g>
    </g>
    <g id="xtick_4">
     <g id="line2d_4">
      <g>
       <use xlink:href="#m440c648413" x="123.770606" y="202.559296" style="stroke: #000000; stroke-width: 0.8"/>
      </g>
     </g>
     <g id="text_4">
      <!-- $\mathdefault{75}$ -->
      <g transform="translate(119.536423 217.194098) scale(0.08 -0.08)">
       <defs>
        <path id="CMR17-37" d="M 2886 3941 
L 2886 4081 
L 1382 4081 
C 634 4081 621 4165 595 4288 
L 480 4288 
L 294 3094 
L 410 3094 
C 429 3215 474 3540 550 3661 
C 589 3712 1062 3712 1171 3712 
L 2579 3712 
L 1869 2661 
C 1395 1954 1069 999 1069 165 
C 1069 89 1069 -128 1299 -128 
C 1530 -128 1530 89 1530 171 
L 1530 465 
C 1530 1508 1709 2196 2003 2636 
L 2886 3941 
z
" transform="scale(0.015625)"/>
       </defs>
       <use xlink:href="#CMR17-37" transform="scale(0.996264)"/>
       <use xlink:href="#CMR17-35" transform="translate(45.690477 0) scale(0.996264)"/>
      </g>
     </g>
    </g>
    <g id="xtick_5">
     <g id="line2d_5">
      <g>
       <use xlink:href="#m440c648413" x="150.575193" y="202.559296" style="stroke: #000000; stroke-width: 0.8"/>
      </g>
     </g>
     <g id="text_5">
      <!-- $\mathdefault{100}$ -->
      <g transform="translate(144.223918 217.194098) scale(0.08 -0.08)">
       <defs>
        <path id="CMR17-31" d="M 1702 4058 
C 1702 4192 1696 4192 1606 4192 
C 1357 3916 979 3827 621 3827 
C 602 3827 570 3827 563 3808 
C 557 3795 557 3782 557 3648 
C 755 3648 1088 3686 1344 3839 
L 1344 461 
C 1344 236 1331 160 781 160 
L 589 160 
L 589 0 
C 896 0 1216 0 1523 0 
C 1830 0 2150 0 2458 0 
L 2458 160 
L 2266 160 
C 1715 160 1702 230 1702 458 
L 1702 4058 
z
" transform="scale(0.015625)"/>
       </defs>
       <use xlink:href="#CMR17-31" transform="scale(0.996264)"/>
       <use xlink:href="#CMR17-30" transform="translate(45.690477 0) scale(0.996264)"/>
       <use xlink:href="#CMR17-30" transform="translate(91.380954 0) scale(0.996264)"/>
      </g>
     </g>
    </g>
    <g id="xtick_6">
     <g id="line2d_6">
      <g>
       <use xlink:href="#m440c648413" x="177.379779" y="202.559296" style="stroke: #000000; stroke-width: 0.8"/>
      </g>
     </g>
     <g id="text_6">
      <!-- $\mathdefault{125}$ -->
      <g transform="translate(171.028505 217.194098) scale(0.08 -0.08)">
       <use xlink:href="#CMR17-31" transform="scale(0.996264)"/>
       <use xlink:href="#CMR17-32" transform="translate(45.690477 0) scale(0.996264)"/>
       <use xlink:href="#CMR17-35" transform="translate(91.380954 0) scale(0.996264)"/>
      </g>
     </g>
    </g>
    <g id="xtick_7">
     <g id="line2d_7">
      <g>
       <use xlink:href="#m440c648413" x="204.184365" y="202.559296" style="stroke: #000000; stroke-width: 0.8"/>
      </g>
     </g>
     <g id="text_7">
      <!-- $\mathdefault{150}$ -->
      <g transform="translate(197.833091 217.194098) scale(0.08 -0.08)">
       <use xlink:href="#CMR17-31" transform="scale(0.996264)"/>
       <use xlink:href="#CMR17-35" transform="translate(45.690477 0) scale(0.996264)"/>
       <use xlink:href="#CMR17-30" transform="translate(91.380954 0) scale(0.996264)"/>
      </g>
     </g>
    </g>
    <g id="xtick_8">
     <g id="line2d_8">
      <g>
       <use xlink:href="#m440c648413" x="230.988952" y="202.559296" style="stroke: #000000; stroke-width: 0.8"/>
      </g>
     </g>
     <g id="text_8">
      <!-- $\mathdefault{175}$ -->
      <g transform="translate(224.637677 217.194098) scale(0.08 -0.08)">
       <use xlink:href="#CMR17-31" transform="scale(0.996264)"/>
       <use xlink:href="#CMR17-37" transform="translate(45.690477 0) scale(0.996264)"/>
       <use xlink:href="#CMR17-35" transform="translate(91.380954 0) scale(0.996264)"/>
      </g>
     </g>
    </g>
    <g id="text_9">
     <!-- $\tau$ -->
     <g transform="translate(137.675756 229.662342) scale(0.1 -0.1)">
      <defs>
       <path id="CMMI12-1c" d="M 1837 2408 
L 2899 2408 
C 2982 2408 3194 2408 3194 2612 
C 3194 2752 3072 2752 2957 2752 
L 1197 2752 
C 1050 2752 832 2752 538 2440 
C 371 2255 166 1917 166 1879 
C 166 1841 198 1828 237 1828 
C 282 1828 288 1847 320 1885 
C 653 2408 986 2408 1146 2408 
L 1677 2408 
L 1011 223 
C 979 127 979 114 979 95 
C 979 25 1024 -64 1152 -64 
C 1350 -64 1382 108 1402 203 
L 1837 2408 
z
" transform="scale(0.015625)"/>
      </defs>
      <use xlink:href="#CMMI12-1c" transform="scale(0.996264)"/>
     </g>
    </g>
   </g>
   <g id="matplotlib.axis_2">
    <g id="ytick_1">
     <g id="line2d_9">
      <defs>
       <path id="mb96173e3f3" d="M 0 0 
L -3.5 0 
" style="stroke: #000000; stroke-width: 0.8"/>
      </defs>
      <g>
       <use xlink:href="#mb96173e3f3" x="33.707196" y="193.679328" style="stroke: #000000; stroke-width: 0.8"/>
      </g>
     </g>
     <g id="text_10">
      <!-- $\mathdefault{−1.0}$ -->
      <g transform="translate(7.2 196.446729) scale(0.08 -0.08)">
       <defs>
        <path id="CMSY10-0" d="M 4218 1472 
C 4326 1472 4442 1472 4442 1600 
C 4442 1728 4326 1728 4218 1728 
L 755 1728 
C 646 1728 531 1728 531 1600 
C 531 1472 646 1472 755 1472 
L 4218 1472 
z
" transform="scale(0.015625)"/>
        <path id="CMMI12-3a" d="M 1178 307 
C 1178 492 1024 619 870 619 
C 685 619 557 466 557 313 
C 557 128 710 0 864 0 
C 1050 0 1178 153 1178 307 
z
" transform="scale(0.015625)"/>
       </defs>
       <use xlink:href="#CMSY10-0" transform="scale(0.996264)"/>
       <use xlink:href="#CMR17-31" transform="translate(77.487468 0) scale(0.996264)"/>
       <use xlink:href="#CMMI12-3a" transform="translate(123.177945 0) scale(0.996264)"/>
       <use xlink:href="#CMR17-30" transform="translate(150.275122 0) scale(0.996264)"/>
      </g>
     </g>
    </g>
    <g id="ytick_2">
     <g id="line2d_10">
      <g>
       <use xlink:href="#mb96173e3f3" x="33.707196" y="158.352083" style="stroke: #000000; stroke-width: 0.8"/>
      </g>
     </g>
     <g id="text_11">
      <!-- $\mathdefault{−0.8}$ -->
      <g transform="translate(7.2 161.119484) scale(0.08 -0.08)">
       <defs>
        <path id="CMR17-38" d="M 1741 2264 
C 2144 2467 2554 2773 2554 3263 
C 2554 3841 1990 4179 1472 4179 
C 890 4179 378 3759 378 3180 
C 378 3021 416 2747 666 2505 
C 730 2442 998 2251 1171 2130 
C 883 1983 211 1634 211 934 
C 211 279 838 -128 1459 -128 
C 2144 -128 2720 362 2720 1010 
C 2720 1590 2330 1857 2074 2029 
L 1741 2264 
z
M 902 2822 
C 851 2854 595 3051 595 3351 
C 595 3739 998 4032 1459 4032 
C 1965 4032 2336 3676 2336 3262 
C 2336 2669 1670 2331 1638 2331 
C 1632 2331 1626 2331 1574 2370 
L 902 2822 
z
M 2080 1519 
C 2176 1449 2483 1240 2483 851 
C 2483 381 2010 25 1472 25 
C 890 25 448 438 448 940 
C 448 1443 838 1862 1280 2060 
L 2080 1519 
z
" transform="scale(0.015625)"/>
       </defs>
       <use xlink:href="#CMSY10-0" transform="scale(0.996264)"/>
       <use xlink:href="#CMR17-30" transform="translate(77.487468 0) scale(0.996264)"/>
       <use xlink:href="#CMMI12-3a" transform="translate(123.177945 0) scale(0.996264)"/>
       <use xlink:href="#CMR17-38" transform="translate(150.275122 0) scale(0.996264)"/>
      </g>
     </g>
    </g>
    <g id="ytick_3">
     <g id="line2d_11">
      <g>
       <use xlink:href="#mb96173e3f3" x="33.707196" y="123.024838" style="stroke: #000000; stroke-width: 0.8"/>
      </g>
     </g>
     <g id="text_12">
      <!-- $\mathdefault{−0.6}$ -->
      <g transform="translate(7.2 125.792239) scale(0.08 -0.08)">
       <defs>
        <path id="CMR17-36" d="M 678 2176 
C 678 3690 1395 4032 1811 4032 
C 1946 4032 2272 4009 2400 3776 
C 2298 3776 2106 3776 2106 3553 
C 2106 3381 2246 3323 2336 3323 
C 2394 3323 2566 3348 2566 3560 
C 2566 3954 2246 4179 1805 4179 
C 1043 4179 243 3390 243 1984 
C 243 253 966 -128 1478 -128 
C 2099 -128 2688 427 2688 1283 
C 2688 2081 2170 2662 1517 2662 
C 1126 2662 838 2407 678 1960 
L 678 2176 
z
M 1478 25 
C 691 25 691 1200 691 1436 
C 691 1896 909 2560 1504 2560 
C 1613 2560 1926 2560 2138 2120 
C 2253 1870 2253 1609 2253 1289 
C 2253 944 2253 690 2118 434 
C 1978 171 1773 25 1478 25 
z
" transform="scale(0.015625)"/>
       </defs>
       <use xlink:href="#CMSY10-0" transform="scale(0.996264)"/>
       <use xlink:href="#CMR17-30" transform="translate(77.487468 0) scale(0.996264)"/>
       <use xlink:href="#CMMI12-3a" transform="translate(123.177945 0) scale(0.996264)"/>
       <use xlink:href="#CMR17-36" transform="translate(150.275122 0) scale(0.996264)"/>
      </g>
     </g>
    </g>
    <g id="ytick_4">
     <g id="line2d_12">
      <g>
       <use xlink:href="#mb96173e3f3" x="33.707196" y="87.697593" style="stroke: #000000; stroke-width: 0.8"/>
      </g>
     </g>
     <g id="text_13">
      <!-- $\mathdefault{−0.4}$ -->
      <g transform="translate(7.2 90.464994) scale(0.08 -0.08)">
       <defs>
        <path id="CMR17-34" d="M 2150 4122 
C 2150 4256 2144 4256 2029 4256 
L 128 1254 
L 128 1088 
L 1779 1088 
L 1779 457 
C 1779 224 1766 160 1318 160 
L 1197 160 
L 1197 0 
C 1402 0 1747 0 1965 0 
C 2182 0 2528 0 2733 0 
L 2733 160 
L 2611 160 
C 2163 160 2150 224 2150 457 
L 2150 1088 
L 2803 1088 
L 2803 1254 
L 2150 1254 
L 2150 4122 
z
M 1798 3703 
L 1798 1254 
L 256 1254 
L 1798 3703 
z
" transform="scale(0.015625)"/>
       </defs>
       <use xlink:href="#CMSY10-0" transform="scale(0.996264)"/>
       <use xlink:href="#CMR17-30" transform="translate(77.487468 0) scale(0.996264)"/>
       <use xlink:href="#CMMI12-3a" transform="translate(123.177945 0) scale(0.996264)"/>
       <use xlink:href="#CMR17-34" transform="translate(150.275122 0) scale(0.996264)"/>
      </g>
     </g>
    </g>
    <g id="ytick_5">
     <g id="line2d_13">
      <g>
       <use xlink:href="#mb96173e3f3" x="33.707196" y="52.370348" style="stroke: #000000; stroke-width: 0.8"/>
      </g>
     </g>
     <g id="text_14">
      <!-- $\mathdefault{−0.2}$ -->
      <g transform="translate(7.2 55.137748) scale(0.08 -0.08)">
       <use xlink:href="#CMSY10-0" transform="scale(0.996264)"/>
       <use xlink:href="#CMR17-30" transform="translate(77.487468 0) scale(0.996264)"/>
       <use xlink:href="#CMMI12-3a" transform="translate(123.177945 0) scale(0.996264)"/>
       <use xlink:href="#CMR17-32" transform="translate(150.275122 0) scale(0.996264)"/>
      </g>
     </g>
    </g>
    <g id="ytick_6">
     <g id="line2d_14">
      <g>
       <use xlink:href="#mb96173e3f3" x="33.707196" y="17.043103" style="stroke: #000000; stroke-width: 0.8"/>
      </g>
     </g>
     <g id="text_15">
      <!-- $\mathdefault{0.0}$ -->
      <g transform="translate(13.786507 19.810503) scale(0.08 -0.08)">
       <use xlink:href="#CMR17-30" transform="scale(0.996264)"/>
       <use xlink:href="#CMMI12-3a" transform="translate(45.690477 0) scale(0.996264)"/>
       <use xlink:href="#CMR17-30" transform="translate(72.787654 0) scale(0.996264)"/>
      </g>
     </g>
    </g>
   </g>
   <g id="line2d_15">
    <path d="M 43.356847 193.679328 
L 43.421178 193.402413 
L 43.54984 191.275065 
L 43.871495 179.972005 
L 44.450474 160.558466 
L 44.772129 155.641915 
L 45.029453 154.46145 
L 45.158115 154.622668 
L 45.351108 155.63846 
L 45.672764 158.850453 
L 46.895053 172.543294 
L 47.281039 174.093471 
L 47.538363 174.444969 
L 47.924349 174.505908 
L 48.310335 174.656509 
L 48.63199 175.046082 
L 49.082307 176.006501 
L 49.789948 177.492893 
L 50.433258 178.240527 
L 51.20523 178.879965 
L 52.041533 179.565349 
L 52.49185 180.129714 
L 53.328153 181.329555 
L 53.585477 181.412349 
L 53.77847 181.245093 
L 54.035794 180.572681 
L 54.357449 178.778725 
L 54.743436 174.963197 
L 55.193753 168.022431 
L 55.837063 154.071051 
L 57.638331 112.747391 
L 58.410303 100.440126 
L 59.246606 90.969116 
L 60.14724 83.048835 
L 60.983543 77.471183 
L 61.626853 74.179482 
L 62.656149 70.32493 
L 63.749777 67.173608 
L 64.779073 64.884972 
L 65.358052 63.685866 
L 65.744038 63.428566 
L 66.194355 63.112618 
L 67.609637 61.734218 
L 68.510271 61.078375 
L 69.153581 61.013351 
L 69.539567 60.946431 
L 70.826187 60.352154 
L 71.855483 60.28622 
L 72.241469 60.093693 
L 73.077773 59.649405 
L 73.849745 59.347238 
L 74.107069 59.248167 
L 74.364393 59.392265 
L 74.750379 59.623643 
L 75.265027 59.751445 
L 76.165661 60.261365 
L 76.487316 60.016525 
L 76.808971 59.489354 
L 77.194957 58.393803 
L 77.645274 56.28064 
L 78.352915 51.584312 
L 79.253549 45.729314 
L 79.832528 43.072107 
L 80.282845 41.979423 
L 80.797493 41.257695 
L 81.24781 40.695003 
L 82.019783 39.433687 
L 82.534431 39.333024 
L 83.370734 39.214928 
L 84.014044 39.23316 
L 84.464361 39.264292 
L 85.236333 39.561796 
L 85.750981 39.983493 
L 86.265629 40.734505 
L 86.651615 41.605316 
L 87.037601 43.062054 
L 87.487918 45.677261 
L 87.938235 49.59607 
L 88.517214 56.817948 
L 89.289186 69.570152 
L 91.283448 104.234557 
L 92.248413 116.854593 
L 93.020385 124.373019 
L 93.921019 131.053192 
L 94.885984 136.229788 
L 95.593625 139.098124 
L 96.751583 142.680171 
L 97.459224 144.167362 
L 98.231196 145.35837 
L 100.611444 148.035416 
L 101.512078 148.684889 
L 102.155388 148.84842 
L 103.442008 149.203503 
L 104.921621 149.597033 
L 106.78722 149.856673 
L 107.494861 149.960058 
L 108.588489 150.131785 
L 108.845813 150.625631 
L 109.167468 151.810056 
L 109.489123 153.878651 
L 110.003771 159.070802 
L 110.968736 169.129334 
L 111.419053 171.670922 
L 111.805039 172.731686 
L 112.384018 173.539827 
L 112.898666 174.343773 
L 114.44261 177.267414 
L 115.471906 178.402558 
L 116.629864 179.598717 
L 117.852154 181.197602 
L 118.045147 181.079647 
L 118.302471 180.52908 
L 118.559795 179.39719 
L 118.88145 176.936778 
L 119.267436 172.155324 
L 119.782084 162.538533 
L 120.81138 137.649545 
L 121.905007 113.33539 
L 122.74131 100.024086 
L 123.513282 90.836674 
L 124.349585 83.620052 
L 125.185888 78.016418 
L 126.150854 73.208335 
L 126.922826 69.986613 
L 127.694798 67.884682 
L 128.852756 65.686693 
L 129.431735 64.192042 
L 130.010714 63.435181 
L 130.589693 62.939183 
L 131.104341 62.655833 
L 131.940644 61.94977 
L 132.32663 61.879497 
L 132.648285 61.779463 
L 133.098602 61.324535 
L 133.548919 60.98987 
L 133.999236 60.987001 
L 135.285857 61.031126 
L 135.929167 60.921373 
L 136.829801 60.781714 
L 138.180752 60.211848 
L 138.566738 60.243258 
L 139.145717 60.33607 
L 139.660365 60.372918 
L 140.239344 60.446804 
L 140.818323 60.351497 
L 141.075647 60.0015 
L 141.461633 59.006223 
L 141.91195 56.996448 
L 142.619591 52.565875 
L 144.034874 43.07879 
L 144.42086 42.284934 
L 145.257163 41.30237 
L 146.35079 40.102939 
L 147.315755 38.892667 
L 147.894734 38.597131 
L 148.28072 38.68181 
L 148.795368 38.76994 
L 149.438678 38.846537 
L 149.824664 39.108066 
L 150.21065 39.719757 
L 150.918291 41.395468 
L 151.368608 43.011329 
L 151.818925 45.555325 
L 152.269242 49.485511 
L 152.848222 56.791874 
L 153.684525 70.747293 
L 155.678786 104.988785 
L 156.57942 116.585366 
L 157.415723 124.749877 
L 158.252026 130.780395 
L 159.088329 135.244839 
L 159.988963 139.10491 
L 160.825266 141.664256 
L 161.725901 143.726347 
L 163.012521 146.044491 
L 164.427803 147.51758 
L 165.264106 148.075307 
L 166.872381 148.850605 
L 169.509952 149.55245 
L 170.474918 149.618582 
L 171.311221 149.768846 
L 172.018862 149.722692 
L 172.662172 149.821118 
L 172.983827 150.107812 
L 173.241151 150.666027 
L 173.562806 152.025652 
L 173.948792 154.889388 
L 174.527771 161.331076 
L 175.235412 168.79541 
L 175.685729 171.487088 
L 176.071715 172.613033 
L 176.650694 173.521448 
L 177.229673 174.451851 
L 179.223935 177.975617 
L 181.153865 179.896499 
L 181.990168 181.152212 
L 182.247492 181.189031 
L 182.440485 180.994804 
L 182.697809 180.336769 
L 183.019464 178.603705 
L 183.40545 174.809789 
L 183.855767 167.747328 
L 184.563408 152.216612 
L 186.364676 111.403033 
L 187.200979 98.735378 
L 188.037282 89.116504 
L 189.066579 81.19851 
L 189.967213 75.457461 
L 190.610523 72.759913 
L 192.604784 66.565176 
L 193.248094 65.326271 
L 194.9207 62.931338 
L 195.371017 62.60885 
L 196.335982 61.606696 
L 196.786299 61.12584 
L 197.043624 61.071203 
L 197.944258 61.200131 
L 198.651899 61.020407 
L 199.102216 61.047447 
L 199.938519 61.230419 
L 200.388836 60.975788 
L 200.903484 60.737439 
L 201.353801 60.475127 
L 202.383097 59.86109 
L 202.769083 60.113591 
L 203.2194 60.301022 
L 203.734048 60.27114 
L 204.120034 60.050694 
L 204.570351 59.748373 
L 204.892006 59.862373 
L 205.213661 59.962913 
L 205.470985 59.802659 
L 205.728309 59.420377 
L 205.985634 58.649576 
L 206.37162 56.629487 
L 207.207923 50.537991 
L 207.979895 45.527834 
L 208.494543 43.515863 
L 209.266515 41.757658 
L 209.781163 40.853495 
L 210.810459 39.795738 
L 211.325107 39.568083 
L 212.032748 39.471035 
L 212.483065 39.481664 
L 213.512361 39.230696 
L 213.962678 39.542598 
L 214.991975 40.453557 
L 215.31363 41.366206 
L 215.763947 43.422584 
L 216.278595 46.814515 
L 216.793243 51.827061 
L 217.372222 59.78354 
L 218.401518 78.140501 
L 219.8168 102.578896 
L 220.717434 114.451765 
L 221.618068 123.516529 
L 222.518702 130.728771 
L 223.226343 134.808744 
L 224.191309 138.98003 
L 224.89895 141.211756 
L 226.121239 143.995907 
L 227.214866 145.990051 
L 227.729514 146.553759 
L 230.04543 148.334943 
L 233.454974 149.420967 
L 234.291277 149.322347 
L 234.677263 149.350517 
L 235.77089 149.706176 
L 236.349869 149.669284 
L 236.349869 149.669284 
" clip-path="url(#p8b6cb662f8)" style="fill: none; stroke: #1f77b4; stroke-width: 0.5; stroke-linecap: square"/>
   </g>
   <g id="line2d_16">
    <path d="M 43.356847 17.043103 
L 44.128819 16.740379 
L 45.093784 16.674037 
L 55.772732 16.676048 
L 58.281641 16.561614 
L 68.510271 16.538566 
L 110.775743 16.73021 
L 114.378279 16.786537 
L 119.589091 16.723649 
L 122.355324 16.564913 
L 130.782686 16.539205 
L 173.82013 16.668342 
L 181.797175 16.814677 
L 183.855767 16.729806 
L 186.686331 16.565574 
L 194.856369 16.539442 
L 236.349869 16.653491 
L 236.349869 16.653491 
" clip-path="url(#p8b6cb662f8)" style="fill: none; stroke: #ff7f0e; stroke-width: 0.5; stroke-linecap: square"/>
   </g>
   <g id="line2d_17">
    <path d="M 43.356847 17.043103 
L 45.222446 17.122188 
L 45.994419 16.961082 
L 46.509067 16.89274 
L 53.199491 17.086747 
L 55.258084 16.693551 
L 55.579739 17.01299 
L 56.416042 18.096788 
L 56.673366 18.020954 
L 57.059352 17.552699 
L 57.831324 16.563373 
L 58.21731 16.42589 
L 58.667627 16.515138 
L 59.954247 17.067758 
L 60.404564 16.888157 
L 61.112205 16.640297 
L 62.205832 16.681436 
L 63.170797 17.440694 
L 63.492453 17.308019 
L 63.878439 16.806852 
L 64.264425 16.398189 
L 64.521749 16.4326 
L 64.843404 16.739116 
L 65.679707 17.655651 
L 65.937031 17.564982 
L 66.709003 17.005161 
L 67.480975 16.809752 
L 67.866961 17.038653 
L 68.317278 17.260678 
L 69.08925 17.296142 
L 70.054215 17.253168 
L 71.147842 17.527483 
L 71.66249 17.431538 
L 72.370132 17.421251 
L 72.820449 17.15979 
L 73.399428 16.805886 
L 73.785414 16.864949 
L 74.428724 17.168327 
L 74.943372 17.367551 
L 75.393689 17.373435 
L 76.165661 17.05928 
L 76.74464 16.91731 
L 77.194957 16.76731 
L 77.773936 16.467989 
L 78.288584 16.699081 
L 78.931894 16.880669 
L 79.446542 17.027557 
L 80.347176 17.666025 
L 80.861824 18.027554 
L 81.505135 18.059333 
L 81.955452 17.874934 
L 83.049079 17.146788 
L 83.435065 17.334736 
L 84.142706 17.731635 
L 84.464361 17.715564 
L 84.914678 17.431298 
L 85.622319 17.014931 
L 86.201298 16.815544 
L 86.715946 16.896747 
L 88.25989 17.456738 
L 91.669434 17.090688 
L 92.248413 17.150883 
L 93.084716 17.02124 
L 96.172604 16.724282 
L 96.751583 16.878952 
L 97.652217 17.094343 
L 98.874506 17.08886 
L 99.453486 17.155028 
L 100.547113 17.339381 
L 101.64074 17.14548 
L 102.477043 16.665419 
L 103.892325 16.400318 
L 104.406973 16.344675 
L 105.243276 16.443903 
L 105.693593 16.479826 
L 106.658558 16.823487 
L 107.108875 17.066947 
L 107.816516 17.522581 
L 108.781482 17.673157 
L 109.682116 17.641007 
L 110.840074 17.473741 
L 111.676377 17.221855 
L 112.062363 17.370354 
L 112.51268 17.516464 
L 113.863631 17.301591 
L 114.506941 17.146334 
L 115.08592 17.2109 
L 116.179547 17.489057 
L 116.629864 17.452942 
L 117.723492 17.154586 
L 118.817119 17.216151 
L 119.52476 17.190438 
L 120.425394 16.672025 
L 120.875711 16.535335 
L 121.197366 16.682548 
L 122.162331 17.32409 
L 122.483986 17.231169 
L 123.577613 16.681408 
L 123.899268 17.017764 
L 124.606909 17.849353 
L 124.928564 17.878796 
L 125.250219 17.602464 
L 126.022192 16.835852 
L 126.53684 16.645263 
L 126.922826 16.739679 
L 127.501805 17.14901 
L 128.016453 17.497771 
L 128.402439 17.558792 
L 128.788425 17.35025 
L 129.75339 16.532776 
L 130.075045 16.632785 
L 130.911348 17.093403 
L 131.361665 16.931776 
L 131.811982 16.876684 
L 134.320891 17.174159 
L 135.028533 17.445809 
L 135.350188 17.387188 
L 136.250822 16.872843 
L 136.701139 16.947786 
L 137.794766 17.397865 
L 138.116421 17.207706 
L 138.952724 16.517663 
L 139.403041 16.546316 
L 139.917689 16.813634 
L 140.946985 17.472487 
L 141.397302 17.363243 
L 144.485191 16.41018 
L 144.935508 16.378922 
L 145.321494 16.62677 
L 145.964804 17.058009 
L 146.479452 17.146486 
L 147.122762 17.280074 
L 147.766072 17.313755 
L 148.409382 17.36464 
L 149.631671 17.563298 
L 151.368608 17.300349 
L 153.36287 16.641962 
L 154.134842 16.874729 
L 155.164138 17.162014 
L 155.743117 17.215833 
L 156.193434 17.214176 
L 157.158399 17.059156 
L 157.994702 17.000843 
L 159.79597 16.738939 
L 161.08259 17.097141 
L 163.655831 17.073413 
L 165.006782 17.541673 
L 165.843085 17.638073 
L 166.872381 17.646186 
L 168.480656 17.029453 
L 169.252628 17.070831 
L 170.474918 17.133265 
L 170.989566 17.086475 
L 171.697207 16.923363 
L 172.147524 17.052331 
L 172.790834 17.328929 
L 174.527771 17.290176 
L 175.557067 17.013497 
L 175.943053 16.86787 
L 176.329039 17.009081 
L 176.843687 17.204358 
L 177.872983 17.107626 
L 178.644955 16.86306 
L 179.159603 16.69504 
L 179.609921 16.763367 
L 181.025203 17.286516 
L 181.604182 17.225141 
L 183.276788 16.931154 
L 184.177422 17.374947 
L 184.563408 17.429476 
L 184.949394 17.249549 
L 185.464042 16.72048 
L 185.97869 16.228215 
L 186.300345 16.207623 
L 186.557669 16.42565 
L 187.586965 17.65734 
L 187.844289 17.629862 
L 188.165945 17.304478 
L 189.066579 16.18649 
L 189.323903 16.255122 
L 189.709889 16.687967 
L 190.41753 17.57629 
L 190.674854 17.525717 
L 191.125171 17.021678 
L 191.639819 16.565115 
L 192.154467 16.425789 
L 192.540453 16.564113 
L 193.119432 17.092648 
L 193.762742 17.585904 
L 194.020066 17.528276 
L 194.406052 17.116699 
L 195.242355 16.081765 
L 195.499679 16.158768 
L 195.821334 16.545618 
L 196.464644 17.374765 
L 196.786299 17.513482 
L 197.043624 17.397326 
L 198.201582 16.533628 
L 198.523237 16.702287 
L 199.681195 17.520136 
L 200.00285 17.352196 
L 200.64616 16.976946 
L 201.353801 16.883277 
L 202.061442 16.824713 
L 202.704752 17.168708 
L 203.2194 17.321889 
L 203.86271 17.222826 
L 204.377358 16.996344 
L 204.763344 16.859538 
L 205.084999 17.018225 
L 205.856971 17.601661 
L 207.786902 17.543577 
L 208.30155 17.270561 
L 208.94486 16.853615 
L 209.395177 16.910081 
L 210.295811 17.145709 
L 210.939121 17.127421 
L 211.582431 17.156191 
L 213.834016 17.008166 
L 217.693877 17.567087 
L 218.723173 17.448328 
L 219.559476 17.397661 
L 220.202786 17.31474 
L 221.360744 16.99085 
L 222.197047 16.99992 
L 224.126978 17.028699 
L 225.284936 16.867192 
L 225.799584 17.004933 
L 226.249901 17.04062 
L 227.021873 16.993472 
L 227.47219 16.872382 
L 228.179831 16.676478 
L 229.080465 16.622313 
L 233.133319 17.415279 
L 234.741594 17.227341 
L 235.320573 17.416018 
L 236.156876 17.532806 
L 236.349869 17.514302 
L 236.349869 17.514302 
" clip-path="url(#p8b6cb662f8)" style="fill: none; stroke: #2ca02c; stroke-width: 0.5; stroke-linecap: square"/>
   </g>
   <g id="patch_3">
    <path d="M 33.707196 202.559296 
L 33.707196 7.2 
" style="fill: none; stroke: #000000; stroke-width: 0.8; stroke-linejoin: miter; stroke-linecap: square"/>
   </g>
   <g id="patch_4">
    <path d="M 245.99952 202.559296 
L 245.99952 7.2 
" style="fill: none; stroke: #000000; stroke-width: 0.8; stroke-linejoin: miter; stroke-linecap: square"/>
   </g>
   <g id="patch_5">
    <path d="M 33.707196 202.559296 
L 245.99952 202.559296 
" style="fill: none; stroke: #000000; stroke-width: 0.8; stroke-linejoin: miter; stroke-linecap: square"/>
   </g>
   <g id="patch_6">
    <path d="M 33.707196 7.2 
L 245.99952 7.2 
" style="fill: none; stroke: #000000; stroke-width: 0.8; stroke-linejoin: miter; stroke-linecap: square"/>
   </g>
   <g id="legend_1">
    <g id="patch_7">
     <path d="M 193.792605 198.059296 
L 239.69952 198.059296 
Q 241.49952 198.059296 241.49952 196.259296 
L 241.49952 156.760168 
Q 241.49952 154.960168 239.69952 154.960168 
L 193.792605 154.960168 
Q 191.992605 154.960168 191.992605 156.760168 
L 191.992605 196.259296 
Q 191.992605 198.059296 193.792605 198.059296 
z
" style="fill: #ffffff; opacity: 0.8; stroke: #cccccc; stroke-width: 0.24; stroke-linejoin: miter"/>
    </g>
    <g id="line2d_18">
     <path d="M 195.592605 162.13495 
L 204.592605 162.13495 
L 213.592605 162.13495 
" style="fill: none; stroke: #1f77b4; stroke-width: 0.5; stroke-linecap: square"/>
    </g>
    <g id="text_16">
     <!-- $\langle \sigma_z\rangle$ -->
     <g transform="translate(220.792605 165.28495) scale(0.09 -0.09)">
      <defs>
       <path id="CMSY10-68" d="M 2099 4557 
C 2131 4627 2131 4640 2131 4672 
C 2131 4742 2074 4800 2003 4800 
C 1946 4800 1901 4768 1856 4653 
L 736 1715 
C 723 1677 704 1638 704 1600 
C 704 1581 704 1568 736 1491 
L 1856 -1446 
C 1882 -1517 1914 -1600 2003 -1600 
C 2074 -1600 2131 -1542 2131 -1472 
C 2131 -1453 2131 -1440 2099 -1370 
L 966 1600 
L 2099 4557 
z
" transform="scale(0.015625)"/>
       <path id="CMMI12-1b" d="M 3251 2408 
C 3334 2408 3546 2408 3546 2612 
C 3546 2752 3424 2752 3309 2752 
L 1894 2752 
C 934 2752 243 1686 243 932 
C 243 390 595 -64 1171 -64 
C 1926 -64 2752 747 2752 1705 
C 2752 1954 2694 2196 2541 2408 
L 3251 2408 
z
M 1178 64 
C 851 64 614 313 614 754 
C 614 1137 845 2408 1786 2408 
C 2061 2408 2368 2274 2368 1781 
C 2368 1558 2266 1021 2042 652 
C 1811 275 1466 64 1178 64 
z
" transform="scale(0.015625)"/>
       <path id="CMMI12-7a" d="M 813 486 
C 1088 803 1312 1004 1632 1296 
C 2016 1632 2182 1793 2272 1891 
C 2720 2338 2944 2713 2944 2764 
C 2944 2816 2893 2816 2880 2816 
C 2835 2816 2822 2793 2790 2750 
C 2630 2494 2477 2367 2310 2367 
C 2176 2367 2106 2421 1984 2565 
C 1850 2715 1741 2816 1555 2816 
C 1088 2816 806 2257 806 2128 
C 806 2108 813 2068 870 2068 
C 922 2068 928 2091 947 2133 
C 1056 2372 1363 2414 1485 2414 
C 1619 2414 1747 2376 1882 2327 
C 2125 2240 2227 2240 2291 2240 
C 2336 2240 2362 2240 2394 2246 
C 2182 1994 1837 1683 1549 1418 
L 902 816 
C 512 415 275 33 275 -12 
C 275 -51 307 -64 346 -64 
C 384 -64 390 -57 435 14 
C 538 163 742 384 979 384 
C 1114 384 1178 342 1306 193 
C 1427 61 1536 -64 1741 -64 
C 2368 -64 2726 732 2726 876 
C 2726 903 2720 942 2656 942 
C 2605 942 2598 917 2579 855 
C 2438 488 2061 338 1811 338 
C 1677 338 1549 376 1414 425 
C 1158 512 1088 512 1005 512 
C 941 512 870 512 813 486 
z
" transform="scale(0.015625)"/>
       <path id="CMSY10-69" d="M 1747 1491 
C 1779 1568 1779 1581 1779 1600 
C 1779 1619 1779 1632 1747 1709 
L 627 4653 
C 589 4762 550 4800 480 4800 
C 410 4800 352 4742 352 4672 
C 352 4653 352 4640 384 4570 
L 1517 1600 
L 384 -1357 
C 352 -1427 352 -1440 352 -1472 
C 352 -1542 410 -1600 480 -1600 
C 563 -1600 589 -1536 614 -1472 
L 1747 1491 
z
" transform="scale(0.015625)"/>
      </defs>
      <use xlink:href="#CMSY10-68" transform="scale(0.996264)"/>
      <use xlink:href="#CMMI12-1b" transform="translate(38.743734 0) scale(0.996264)"/>
      <use xlink:href="#CMMI12-7a" transform="translate(94.189195 -14.943915) scale(0.697382)"/>
      <use xlink:href="#CMSY10-69" transform="translate(129.51575 0) scale(0.996264)"/>
     </g>
    </g>
    <g id="line2d_19">
     <path d="M 195.592605 175.601326 
L 204.592605 175.601326 
L 213.592605 175.601326 
" style="fill: none; stroke: #ff7f0e; stroke-width: 0.5; stroke-linecap: square"/>
    </g>
    <g id="text_17">
     <!-- $\langle \sigma_x\rangle$ -->
     <g transform="translate(220.792605 178.751326) scale(0.09 -0.09)">
      <defs>
       <path id="CMMI12-78" d="M 3034 2606 
C 2829 2567 2752 2414 2752 2293 
C 2752 2139 2874 2088 2963 2088 
C 3155 2088 3290 2254 3290 2427 
C 3290 2695 2982 2816 2714 2816 
C 2323 2816 2106 2433 2048 2312 
C 1901 2816 1504 2816 1389 2816 
C 736 2816 390 1980 390 1839 
C 390 1814 416 1782 461 1782 
C 512 1782 525 1820 538 1846 
C 755 2555 1184 2689 1370 2689 
C 1658 2689 1715 2420 1715 2267 
C 1715 2127 1677 1980 1600 1673 
L 1382 798 
C 1286 415 1101 64 762 64 
C 730 64 570 64 435 147 
C 666 192 717 383 717 460 
C 717 588 621 664 499 664 
C 346 664 179 530 179 326 
C 179 57 480 -64 755 -64 
C 1062 -64 1280 179 1414 441 
C 1517 64 1837 -64 2074 -64 
C 2726 -64 3072 773 3072 913 
C 3072 945 3046 971 3008 971 
C 2950 971 2944 939 2925 888 
C 2752 326 2381 64 2093 64 
C 1869 64 1747 230 1747 492 
C 1747 632 1773 734 1875 1156 
L 2099 2024 
C 2195 2408 2413 2689 2707 2689 
C 2720 2689 2899 2689 3034 2606 
z
" transform="scale(0.015625)"/>
      </defs>
      <use xlink:href="#CMSY10-68" transform="scale(0.996264)"/>
      <use xlink:href="#CMMI12-1b" transform="translate(38.743734 0) scale(0.996264)"/>
      <use xlink:href="#CMMI12-78" transform="translate(94.189195 -14.943915) scale(0.697382)"/>
      <use xlink:href="#CMSY10-69" transform="translate(133.490986 0) scale(0.996264)"/>
     </g>
    </g>
    <g id="line2d_20">
     <path d="M 195.592605 189.067702 
L 204.592605 189.067702 
L 213.592605 189.067702 
" style="fill: none; stroke: #2ca02c; stroke-width: 0.5; stroke-linecap: square"/>
    </g>
    <g id="text_18">
     <!-- $\langle \sigma_y\rangle$ -->
     <g transform="translate(220.792605 192.217702) scale(0.09 -0.09)">
      <defs>
       <path id="CMMI12-79" d="M 1683 -700 
C 1510 -939 1261 -1152 947 -1152 
C 870 -1152 563 -1152 467 -889 
C 486 -895 518 -895 531 -895 
C 723 -895 851 -729 851 -582 
C 851 -435 730 -384 634 -384 
C 531 -384 307 -458 307 -759 
C 307 -1071 582 -1286 947 -1286 
C 1587 -1286 2234 -700 2413 6 
L 3040 2485 
C 3046 2517 3059 2556 3059 2594 
C 3059 2689 2982 2753 2886 2753 
C 2829 2753 2694 2727 2643 2535 
L 2170 658 
C 2138 543 2138 530 2086 460 
C 1958 281 1747 64 1440 64 
C 1082 64 1050 415 1050 588 
C 1050 952 1222 1443 1395 1903 
C 1466 2088 1504 2178 1504 2305 
C 1504 2574 1312 2816 998 2816 
C 410 2816 173 1890 173 1839 
C 173 1814 198 1782 243 1782 
C 301 1782 307 1807 333 1897 
C 486 2433 730 2689 979 2689 
C 1037 2689 1146 2689 1146 2478 
C 1146 2312 1075 2127 979 1884 
C 666 1047 666 837 666 683 
C 666 77 1101 -64 1421 -64 
C 1606 -64 1837 -6 2061 230 
L 2067 224 
C 1971 -147 1907 -392 1683 -700 
z
" transform="scale(0.015625)"/>
      </defs>
      <use xlink:href="#CMSY10-68" transform="scale(0.996264)"/>
      <use xlink:href="#CMMI12-1b" transform="translate(38.743734 0) scale(0.996264)"/>
      <use xlink:href="#CMMI12-79" transform="translate(94.189195 -14.943915) scale(0.697382)"/>
      <use xlink:href="#CMSY10-69" transform="translate(130.484301 0) scale(0.996264)"/>
     </g>
    </g>
   </g>
  </g>
 </g>
 <defs>
  <clipPath id="p8b6cb662f8">
   <rect x="33.707196" y="7.2" width="212.292324" height="195.359296"/>
  </clipPath>
 </defs>
</svg>
