<?xml version="1.0" encoding="utf-8" standalone="no"?>
<!DOCTYPE svg PUBLIC "-//W3C//DTD SVG 1.1//EN"
  "http://www.w3.org/Graphics/SVG/1.1/DTD/svg11.dtd">
<svg xmlns:xlink="http://www.w3.org/1999/xlink" width="424.55952pt" height="181.19952pt" viewBox="0 0 424.55952 181.19952" xmlns="http://www.w3.org/2000/svg" version="1.1">
 <metadata>
  <rdf:RDF xmlns:dc="http://purl.org/dc/elements/1.1/" xmlns:cc="http://creativecommons.org/ns#" xmlns:rdf="http://www.w3.org/1999/02/22-rdf-syntax-ns#">
   <cc:Work>
    <dc:type rdf:resource="http://purl.org/dc/dcmitype/StillImage"/>
    <dc:date>1980-01-01T00:00:00+00:00</dc:date>
    <dc:format>image/svg+xml</dc:format>
    <dc:creator>
     <cc:Agent>
      <dc:title>Matplotlib v3.6.2, https://matplotlib.org/</dc:title>
     </cc:Agent>
    </dc:creator>
   </cc:Work>
  </rdf:RDF>
 </metadata>
 <defs>
  <style type="text/css">*{stroke-linejoin: round; stroke-linecap: butt}</style>
 </defs>
 <g id="figure_1">
  <g id="patch_1">
   <path d="M 0 181.19952 
L 424.55952 181.19952 
L 424.55952 0 
L 0 0 
z
" style="fill: #ffffff"/>
  </g>
  <g id="axes_1">
   <g id="patch_2">
    <path d="M 60.697931 137.87484 
L 380.065701 137.87484 
L 380.065701 7.2 
L 60.697931 7.2 
z
" style="fill: #ffffff"/>
   </g>
   <g id="matplotlib.axis_1">
    <g id="xtick_1">
     <g id="line2d_1">
      <defs>
       <path id="m4745d9f58a" d="M 0 0 
L 0 3.5 
" style="stroke: #000000; stroke-width: 0.8"/>
      </defs>
      <g>
       <use xlink:href="#m4745d9f58a" x="104.248081" y="137.87484" style="stroke: #000000; stroke-width: 0.8"/>
      </g>
     </g>
     <g id="text_1">
      <!-- $\mathdefault{0.6}$ -->
      <g transform="translate(96.146025 155.968868) scale(0.13 -0.13)">
       <defs>
        <path id="CMR17-30" d="M 2688 2025 
C 2688 2416 2682 3080 2413 3591 
C 2176 4039 1798 4198 1466 4198 
C 1158 4198 768 4058 525 3597 
C 269 3118 243 2524 243 2025 
C 243 1661 250 1106 448 619 
C 723 -39 1216 -128 1466 -128 
C 1760 -128 2208 -7 2470 600 
C 2662 1042 2688 1559 2688 2025 
z
M 1466 -26 
C 1056 -26 813 325 723 812 
C 653 1188 653 1738 653 2096 
C 653 2588 653 2997 736 3387 
C 858 3929 1216 4096 1466 4096 
C 1728 4096 2067 3923 2189 3400 
C 2272 3036 2278 2607 2278 2096 
C 2278 1680 2278 1169 2202 792 
C 2067 95 1690 -26 1466 -26 
z
" transform="scale(0.015625)"/>
        <path id="CMMI12-3a" d="M 1178 307 
C 1178 492 1024 619 870 619 
C 685 619 557 466 557 313 
C 557 128 710 0 864 0 
C 1050 0 1178 153 1178 307 
z
" transform="scale(0.015625)"/>
        <path id="CMR17-36" d="M 678 2176 
C 678 3690 1395 4032 1811 4032 
C 1946 4032 2272 4009 2400 3776 
C 2298 3776 2106 3776 2106 3553 
C 2106 3381 2246 3323 2336 3323 
C 2394 3323 2566 3348 2566 3560 
C 2566 3954 2246 4179 1805 4179 
C 1043 4179 243 3390 243 1984 
C 243 253 966 -128 1478 -128 
C 2099 -128 2688 427 2688 1283 
C 2688 2081 2170 2662 1517 2662 
C 1126 2662 838 2407 678 1960 
L 678 2176 
z
M 1478 25 
C 691 25 691 1200 691 1436 
C 691 1896 909 2560 1504 2560 
C 1613 2560 1926 2560 2138 2120 
C 2253 1870 2253 1609 2253 1289 
C 2253 944 2253 690 2118 434 
C 1978 171 1773 25 1478 25 
z
" transform="scale(0.015625)"/>
       </defs>
       <use xlink:href="#CMR17-30" transform="scale(0.996264)"/>
       <use xlink:href="#CMMI12-3a" transform="translate(45.690477 0) scale(0.996264)"/>
       <use xlink:href="#CMR17-36" transform="translate(72.787654 0) scale(0.996264)"/>
      </g>
     </g>
    </g>
    <g id="xtick_2">
     <g id="line2d_2">
      <g>
       <use xlink:href="#m4745d9f58a" x="162.314949" y="137.87484" style="stroke: #000000; stroke-width: 0.8"/>
      </g>
     </g>
     <g id="text_2">
      <!-- $\mathdefault{0.8}$ -->
      <g transform="translate(154.212893 155.968868) scale(0.13 -0.13)">
       <defs>
        <path id="CMR17-38" d="M 1741 2264 
C 2144 2467 2554 2773 2554 3263 
C 2554 3841 1990 4179 1472 4179 
C 890 4179 378 3759 378 3180 
C 378 3021 416 2747 666 2505 
C 730 2442 998 2251 1171 2130 
C 883 1983 211 1634 211 934 
C 211 279 838 -128 1459 -128 
C 2144 -128 2720 362 2720 1010 
C 2720 1590 2330 1857 2074 2029 
L 1741 2264 
z
M 902 2822 
C 851 2854 595 3051 595 3351 
C 595 3739 998 4032 1459 4032 
C 1965 4032 2336 3676 2336 3262 
C 2336 2669 1670 2331 1638 2331 
C 1632 2331 1626 2331 1574 2370 
L 902 2822 
z
M 2080 1519 
C 2176 1449 2483 1240 2483 851 
C 2483 381 2010 25 1472 25 
C 890 25 448 438 448 940 
C 448 1443 838 1862 1280 2060 
L 2080 1519 
z
" transform="scale(0.015625)"/>
       </defs>
       <use xlink:href="#CMR17-30" transform="scale(0.996264)"/>
       <use xlink:href="#CMMI12-3a" transform="translate(45.690477 0) scale(0.996264)"/>
       <use xlink:href="#CMR17-38" transform="translate(72.787654 0) scale(0.996264)"/>
      </g>
     </g>
    </g>
    <g id="xtick_3">
     <g id="line2d_3">
      <g>
       <use xlink:href="#m4745d9f58a" x="220.381816" y="137.87484" style="stroke: #000000; stroke-width: 0.8"/>
      </g>
     </g>
     <g id="text_3">
      <!-- $\mathdefault{1.0}$ -->
      <g transform="translate(212.27976 155.968868) scale(0.13 -0.13)">
       <defs>
        <path id="CMR17-31" d="M 1702 4058 
C 1702 4192 1696 4192 1606 4192 
C 1357 3916 979 3827 621 3827 
C 602 3827 570 3827 563 3808 
C 557 3795 557 3782 557 3648 
C 755 3648 1088 3686 1344 3839 
L 1344 461 
C 1344 236 1331 160 781 160 
L 589 160 
L 589 0 
C 896 0 1216 0 1523 0 
C 1830 0 2150 0 2458 0 
L 2458 160 
L 2266 160 
C 1715 160 1702 230 1702 458 
L 1702 4058 
z
" transform="scale(0.015625)"/>
       </defs>
       <use xlink:href="#CMR17-31" transform="scale(0.996264)"/>
       <use xlink:href="#CMMI12-3a" transform="translate(45.690477 0) scale(0.996264)"/>
       <use xlink:href="#CMR17-30" transform="translate(72.787654 0) scale(0.996264)"/>
      </g>
     </g>
    </g>
    <g id="xtick_4">
     <g id="line2d_4">
      <g>
       <use xlink:href="#m4745d9f58a" x="278.448683" y="137.87484" style="stroke: #000000; stroke-width: 0.8"/>
      </g>
     </g>
     <g id="text_4">
      <!-- $\mathdefault{1.2}$ -->
      <g transform="translate(270.346627 155.968868) scale(0.13 -0.13)">
       <defs>
        <path id="CMR17-32" d="M 2669 989 
L 2554 989 
C 2490 536 2438 459 2413 420 
C 2381 369 1920 369 1830 369 
L 602 369 
C 832 619 1280 1072 1824 1597 
C 2214 1967 2669 2402 2669 3035 
C 2669 3790 2067 4224 1395 4224 
C 691 4224 262 3604 262 3030 
C 262 2780 448 2748 525 2748 
C 589 2748 781 2787 781 3010 
C 781 3207 614 3264 525 3264 
C 486 3264 448 3258 422 3245 
C 544 3790 915 4058 1306 4058 
C 1862 4058 2227 3617 2227 3035 
C 2227 2479 1901 2000 1536 1584 
L 262 146 
L 262 0 
L 2515 0 
L 2669 989 
z
" transform="scale(0.015625)"/>
       </defs>
       <use xlink:href="#CMR17-31" transform="scale(0.996264)"/>
       <use xlink:href="#CMMI12-3a" transform="translate(45.690477 0) scale(0.996264)"/>
       <use xlink:href="#CMR17-32" transform="translate(72.787654 0) scale(0.996264)"/>
      </g>
     </g>
    </g>
    <g id="xtick_5">
     <g id="line2d_5">
      <g>
       <use xlink:href="#m4745d9f58a" x="336.51555" y="137.87484" style="stroke: #000000; stroke-width: 0.8"/>
      </g>
     </g>
     <g id="text_5">
      <!-- $\mathdefault{1.4}$ -->
      <g transform="translate(328.413495 155.968868) scale(0.13 -0.13)">
       <defs>
        <path id="CMR17-34" d="M 2150 4122 
C 2150 4256 2144 4256 2029 4256 
L 128 1254 
L 128 1088 
L 1779 1088 
L 1779 457 
C 1779 224 1766 160 1318 160 
L 1197 160 
L 1197 0 
C 1402 0 1747 0 1965 0 
C 2182 0 2528 0 2733 0 
L 2733 160 
L 2611 160 
C 2163 160 2150 224 2150 457 
L 2150 1088 
L 2803 1088 
L 2803 1254 
L 2150 1254 
L 2150 4122 
z
M 1798 3703 
L 1798 1254 
L 256 1254 
L 1798 3703 
z
" transform="scale(0.015625)"/>
       </defs>
       <use xlink:href="#CMR17-31" transform="scale(0.996264)"/>
       <use xlink:href="#CMMI12-3a" transform="translate(45.690477 0) scale(0.996264)"/>
       <use xlink:href="#CMR17-34" transform="translate(72.787654 0) scale(0.996264)"/>
      </g>
     </g>
    </g>
    <g id="text_6">
     <!-- $\omega_c$ -->
     <g transform="translate(214.416561 171.481208) scale(0.13 -0.13)">
      <defs>
       <path id="CMMI12-21" d="M 3802 2395 
C 3802 2580 3750 2816 3526 2816 
C 3398 2816 3251 2657 3251 2529 
C 3251 2472 3277 2434 3328 2376 
C 3424 2268 3546 2096 3546 1797 
C 3546 1567 3405 1204 3302 1007 
C 3123 656 2829 357 2496 357 
C 2093 357 1939 615 1869 975 
C 1939 1143 2086 1560 2086 1728 
C 2086 1798 2061 1856 1978 1856 
C 1933 1856 1882 1831 1850 1779 
C 1760 1638 1677 1129 1683 994 
C 1562 756 1216 357 806 357 
C 378 357 262 733 262 1096 
C 262 1758 678 2338 794 2497 
C 858 2593 902 2657 902 2669 
C 902 2714 877 2784 819 2784 
C 717 2784 685 2701 634 2625 
C 307 2121 77 1414 77 803 
C 77 408 224 -64 704 -64 
C 1235 -64 1568 391 1702 634 
C 1754 275 1946 -64 2413 -64 
C 2899 -64 3206 363 3437 879 
C 3603 1249 3802 2045 3802 2395 
z
" transform="scale(0.015625)"/>
       <path id="CMMI12-63" d="M 2502 2431 
C 2381 2431 2323 2431 2234 2355 
C 2195 2323 2125 2227 2125 2125 
C 2125 1997 2221 1920 2342 1920 
C 2496 1920 2669 2044 2669 2292 
C 2669 2588 2374 2816 1933 2816 
C 1094 2816 256 1903 256 996 
C 256 441 602 -64 1254 -64 
C 2125 -64 2675 622 2675 706 
C 2675 744 2637 776 2611 776 
C 2592 776 2586 770 2528 713 
C 2118 162 1510 64 1267 64 
C 826 64 685 446 685 764 
C 685 988 794 1605 1024 2039 
C 1190 2338 1536 2682 1939 2682 
C 2022 2682 2374 2682 2502 2431 
z
" transform="scale(0.015625)"/>
      </defs>
      <use xlink:href="#CMMI12-21" transform="scale(0.996264)"/>
      <use xlink:href="#CMMI12-63" transform="translate(60.743753 -14.943915) scale(0.697382)"/>
     </g>
    </g>
   </g>
   <g id="matplotlib.axis_2">
    <g id="ytick_1">
     <g id="line2d_6">
      <defs>
       <path id="m2c9043213f" d="M 0 0 
L -3.5 0 
" style="stroke: #000000; stroke-width: 0.8"/>
      </defs>
      <g>
       <use xlink:href="#m2c9043213f" x="60.697931" y="131.935074" style="stroke: #000000; stroke-width: 0.8"/>
      </g>
     </g>
     <g id="text_7">
      <!-- $\mathdefault{0.000}$ -->
      <g transform="translate(22.71234 136.432088) scale(0.13 -0.13)">
       <use xlink:href="#CMR17-30" transform="scale(0.996264)"/>
       <use xlink:href="#CMMI12-3a" transform="translate(45.690477 0) scale(0.996264)"/>
       <use xlink:href="#CMR17-30" transform="translate(72.787654 0) scale(0.996264)"/>
       <use xlink:href="#CMR17-30" transform="translate(118.478131 0) scale(0.996264)"/>
       <use xlink:href="#CMR17-30" transform="translate(164.168608 0) scale(0.996264)"/>
      </g>
     </g>
    </g>
    <g id="ytick_2">
     <g id="line2d_7">
      <g>
       <use xlink:href="#m2c9043213f" x="60.697931" y="82.617517" style="stroke: #000000; stroke-width: 0.8"/>
      </g>
     </g>
     <g id="text_8">
      <!-- $\mathdefault{0.002}$ -->
      <g transform="translate(22.71234 87.114531) scale(0.13 -0.13)">
       <use xlink:href="#CMR17-30" transform="scale(0.996264)"/>
       <use xlink:href="#CMMI12-3a" transform="translate(45.690477 0) scale(0.996264)"/>
       <use xlink:href="#CMR17-30" transform="translate(72.787654 0) scale(0.996264)"/>
       <use xlink:href="#CMR17-30" transform="translate(118.478131 0) scale(0.996264)"/>
       <use xlink:href="#CMR17-32" transform="translate(164.168608 0) scale(0.996264)"/>
      </g>
     </g>
    </g>
    <g id="ytick_3">
     <g id="line2d_8">
      <g>
       <use xlink:href="#m2c9043213f" x="60.697931" y="33.29996" style="stroke: #000000; stroke-width: 0.8"/>
      </g>
     </g>
     <g id="text_9">
      <!-- $\mathdefault{0.004}$ -->
      <g transform="translate(22.71234 37.796974) scale(0.13 -0.13)">
       <use xlink:href="#CMR17-30" transform="scale(0.996264)"/>
       <use xlink:href="#CMMI12-3a" transform="translate(45.690477 0) scale(0.996264)"/>
       <use xlink:href="#CMR17-30" transform="translate(72.787654 0) scale(0.996264)"/>
       <use xlink:href="#CMR17-30" transform="translate(118.478131 0) scale(0.996264)"/>
       <use xlink:href="#CMR17-34" transform="translate(164.168608 0) scale(0.996264)"/>
      </g>
     </g>
    </g>
    <g id="text_10">
     <!-- $\bar{P}$ -->
     <g style="fill: #1f77b4" transform="translate(16.194028 77.134834) rotate(-90) scale(0.13 -0.13)">
      <defs>
       <path id="CMR17-16" d="M 2554 3520 
L 2554 3666 
L 378 3666 
L 378 3520 
L 2554 3520 
z
" transform="scale(0.015625)"/>
       <path id="CMMI12-50" d="M 1894 2023 
L 2970 2023 
C 3853 2023 4736 2673 4736 3401 
C 4736 3898 4314 4352 3507 4352 
L 1530 4352 
C 1408 4352 1350 4352 1350 4231 
C 1350 4167 1408 4167 1504 4167 
C 1894 4167 1894 4116 1894 4046 
C 1894 4034 1894 3995 1869 3899 
L 1005 472 
C 947 249 934 185 486 185 
C 365 185 301 185 301 70 
C 301 0 358 0 397 0 
C 518 0 646 0 768 0 
L 1517 0 
C 1638 0 1773 0 1894 0 
C 1946 0 2016 0 2016 121 
C 2016 185 1958 185 1862 185 
C 1478 185 1472 230 1472 293 
C 1472 325 1478 369 1485 401 
L 1894 2023 
z
M 2355 3930 
C 2413 4167 2438 4167 2688 4167 
L 3322 4167 
C 3802 4167 4198 4013 4198 3535 
C 4198 3369 4115 2827 3821 2534 
C 3712 2419 3405 2176 2822 2176 
L 1920 2176 
L 2355 3930 
z
" transform="scale(0.015625)"/>
      </defs>
      <use xlink:href="#CMR17-16" transform="translate(23.496833 25.189733) scale(0.996264)"/>
      <use xlink:href="#CMMI12-50" transform="scale(0.996264)"/>
     </g>
    </g>
   </g>
   <g id="line2d_9">
    <path d="M 60.697931 131.935074 
L 380.065701 131.935074 
" clip-path="url(#pdbcdbf7853)" style="fill: none; stroke: #d3d3d3; stroke-linecap: square"/>
   </g>
   <g id="LineCollection_1">
    <path d="M 75.214648 44.614341 
L 75.214648 44.237179 
" clip-path="url(#pdbcdbf7853)" style="fill: none; stroke: #1f77b4"/>
    <path d="M 147.798232 14.621162 
L 147.798232 14.386247 
" clip-path="url(#pdbcdbf7853)" style="fill: none; stroke: #1f77b4"/>
    <path d="M 220.381816 13.334184 
L 220.381816 13.139765 
" clip-path="url(#pdbcdbf7853)" style="fill: none; stroke: #1f77b4"/>
    <path d="M 292.9654 15.534342 
L 292.9654 15.35631 
" clip-path="url(#pdbcdbf7853)" style="fill: none; stroke: #1f77b4"/>
    <path d="M 365.548984 16.714747 
L 365.548984 16.544259 
" clip-path="url(#pdbcdbf7853)" style="fill: none; stroke: #1f77b4"/>
   </g>
   <g id="LineCollection_2">
    <path d="M 75.214648 45.869128 
L 75.214648 45.735492 
" clip-path="url(#pdbcdbf7853)" style="fill: none; stroke: #ff7f0e"/>
    <path d="M 147.798232 26.081211 
L 147.798232 25.95007 
" clip-path="url(#pdbcdbf7853)" style="fill: none; stroke: #ff7f0e"/>
    <path d="M 220.381816 19.764977 
L 220.381816 19.635587 
" clip-path="url(#pdbcdbf7853)" style="fill: none; stroke: #ff7f0e"/>
    <path d="M 292.9654 18.499327 
L 292.9654 18.370338 
" clip-path="url(#pdbcdbf7853)" style="fill: none; stroke: #ff7f0e"/>
    <path d="M 365.548984 17.082231 
L 365.548984 16.952896 
" clip-path="url(#pdbcdbf7853)" style="fill: none; stroke: #ff7f0e"/>
   </g>
   <g id="LineCollection_3">
    <path d="M 75.214648 130.760318 
L 75.214648 130.182756 
" clip-path="url(#pdbcdbf7853)" style="fill: none; stroke: #2ca02c"/>
    <path d="M 147.798232 120.477213 
L 147.798232 120.134669 
" clip-path="url(#pdbcdbf7853)" style="fill: none; stroke: #2ca02c"/>
    <path d="M 220.381816 125.489605 
L 220.381816 125.216832 
" clip-path="url(#pdbcdbf7853)" style="fill: none; stroke: #2ca02c"/>
    <path d="M 292.9654 128.950975 
L 292.9654 128.707379 
" clip-path="url(#pdbcdbf7853)" style="fill: none; stroke: #2ca02c"/>
    <path d="M 365.548984 131.54622 
L 365.548984 131.317367 
" clip-path="url(#pdbcdbf7853)" style="fill: none; stroke: #2ca02c"/>
   </g>
   <g id="line2d_10">
    <path d="M 75.214648 44.42576 
L 147.798232 14.503705 
L 220.381816 13.236974 
L 292.9654 15.445326 
L 365.548984 16.629503 
" clip-path="url(#pdbcdbf7853)" style="fill: none; stroke: #1f77b4; stroke-linecap: square"/>
    <defs>
     <path id="m0746f12358" d="M 0 1.4 
C 0.371284 1.4 0.727412 1.252487 0.989949 0.989949 
C 1.252487 0.727412 1.4 0.371284 1.4 0 
C 1.4 -0.371284 1.252487 -0.727412 0.989949 -0.989949 
C 0.727412 -1.252487 0.371284 -1.4 0 -1.4 
C -0.371284 -1.4 -0.727412 -1.252487 -0.989949 -0.989949 
C -1.252487 -0.727412 -1.4 -0.371284 -1.4 0 
C -1.4 0.371284 -1.252487 0.727412 -0.989949 0.989949 
C -0.727412 1.252487 -0.371284 1.4 0 1.4 
z
"/>
    </defs>
    <g clip-path="url(#pdbcdbf7853)">
     <use xlink:href="#m0746f12358" x="75.214648" y="44.42576" style="fill: #1f77b4"/>
     <use xlink:href="#m0746f12358" x="147.798232" y="14.503705" style="fill: #1f77b4"/>
     <use xlink:href="#m0746f12358" x="220.381816" y="13.236974" style="fill: #1f77b4"/>
     <use xlink:href="#m0746f12358" x="292.9654" y="15.445326" style="fill: #1f77b4"/>
     <use xlink:href="#m0746f12358" x="365.548984" y="16.629503" style="fill: #1f77b4"/>
    </g>
   </g>
   <g id="line2d_11">
    <path d="M 75.214648 45.80231 
L 147.798232 26.015641 
L 220.381816 19.700282 
L 292.9654 18.434833 
L 365.548984 17.017564 
" clip-path="url(#pdbcdbf7853)" style="fill: none; stroke: #ff7f0e; stroke-linecap: square"/>
    <defs>
     <path id="mbcae6da720" d="M 0 1.4 
C 0.371284 1.4 0.727412 1.252487 0.989949 0.989949 
C 1.252487 0.727412 1.4 0.371284 1.4 0 
C 1.4 -0.371284 1.252487 -0.727412 0.989949 -0.989949 
C 0.727412 -1.252487 0.371284 -1.4 0 -1.4 
C -0.371284 -1.4 -0.727412 -1.252487 -0.989949 -0.989949 
C -1.252487 -0.727412 -1.4 -0.371284 -1.4 0 
C -1.4 0.371284 -1.252487 0.727412 -0.989949 0.989949 
C -0.727412 1.252487 -0.371284 1.4 0 1.4 
z
"/>
    </defs>
    <g clip-path="url(#pdbcdbf7853)">
     <use xlink:href="#mbcae6da720" x="75.214648" y="45.80231" style="fill: #ff7f0e"/>
     <use xlink:href="#mbcae6da720" x="147.798232" y="26.015641" style="fill: #ff7f0e"/>
     <use xlink:href="#mbcae6da720" x="220.381816" y="19.700282" style="fill: #ff7f0e"/>
     <use xlink:href="#mbcae6da720" x="292.9654" y="18.434833" style="fill: #ff7f0e"/>
     <use xlink:href="#mbcae6da720" x="365.548984" y="17.017564" style="fill: #ff7f0e"/>
    </g>
   </g>
   <g id="line2d_12">
    <path d="M 75.214648 130.471537 
L 147.798232 120.305941 
L 220.381816 125.353218 
L 292.9654 128.829177 
L 365.548984 131.431794 
" clip-path="url(#pdbcdbf7853)" style="fill: none; stroke: #2ca02c; stroke-linecap: square"/>
    <defs>
     <path id="m8935f09352" d="M 0 1.4 
C 0.371284 1.4 0.727412 1.252487 0.989949 0.989949 
C 1.252487 0.727412 1.4 0.371284 1.4 0 
C 1.4 -0.371284 1.252487 -0.727412 0.989949 -0.989949 
C 0.727412 -1.252487 0.371284 -1.4 0 -1.4 
C -0.371284 -1.4 -0.727412 -1.252487 -0.989949 -0.989949 
C -1.252487 -0.727412 -1.4 -0.371284 -1.4 0 
C -1.4 0.371284 -1.252487 0.727412 -0.989949 0.989949 
C -0.727412 1.252487 -0.371284 1.4 0 1.4 
z
"/>
    </defs>
    <g clip-path="url(#pdbcdbf7853)">
     <use xlink:href="#m8935f09352" x="75.214648" y="130.471537" style="fill: #2ca02c"/>
     <use xlink:href="#m8935f09352" x="147.798232" y="120.305941" style="fill: #2ca02c"/>
     <use xlink:href="#m8935f09352" x="220.381816" y="125.353218" style="fill: #2ca02c"/>
     <use xlink:href="#m8935f09352" x="292.9654" y="128.829177" style="fill: #2ca02c"/>
     <use xlink:href="#m8935f09352" x="365.548984" y="131.431794" style="fill: #2ca02c"/>
    </g>
   </g>
   <g id="patch_3">
    <path d="M 60.697931 137.87484 
L 60.697931 7.2 
" style="fill: none; stroke: #000000; stroke-width: 0.8; stroke-linejoin: miter; stroke-linecap: square"/>
   </g>
   <g id="patch_4">
    <path d="M 380.065701 137.87484 
L 380.065701 7.2 
" style="fill: none; stroke: #000000; stroke-width: 0.8; stroke-linejoin: miter; stroke-linecap: square"/>
   </g>
   <g id="patch_5">
    <path d="M 60.697931 137.87484 
L 380.065701 137.87484 
" style="fill: none; stroke: #000000; stroke-width: 0.8; stroke-linejoin: miter; stroke-linecap: square"/>
   </g>
   <g id="patch_6">
    <path d="M 60.697931 7.2 
L 380.065701 7.2 
" style="fill: none; stroke: #000000; stroke-width: 0.8; stroke-linejoin: miter; stroke-linecap: square"/>
   </g>
   <g id="legend_1">
    <g id="patch_7">
     <path d="M 308.923317 103.459633 
L 370.965701 103.459633 
Q 373.565701 103.459633 373.565701 100.859633 
L 373.565701 44.215207 
Q 373.565701 41.615207 370.965701 41.615207 
L 308.923317 41.615207 
Q 306.323317 41.615207 306.323317 44.215207 
L 306.323317 100.859633 
Q 306.323317 103.459633 308.923317 103.459633 
z
" style="fill: #ffffff; opacity: 0.8; stroke: #cccccc; stroke-width: 0.24; stroke-linejoin: miter"/>
    </g>
    <g id="LineCollection_4">
     <path d="M 324.523317 57.865207 
L 324.523317 44.865207 
" style="fill: none; stroke: #1f77b4"/>
    </g>
    <g id="line2d_13">
     <path d="M 311.523317 51.365207 
L 337.523317 51.365207 
" style="fill: none; stroke: #1f77b4; stroke-linecap: square"/>
    </g>
    <g id="line2d_14">
     <g>
      <use xlink:href="#m0746f12358" x="324.523317" y="51.365207" style="fill: #1f77b4"/>
     </g>
    </g>
    <g id="text_11">
     <!-- $\bar{P}$ -->
     <g transform="translate(347.923317 55.915207) scale(0.13 -0.13)">
      <use xlink:href="#CMR17-16" transform="translate(23.496833 25.189733) scale(0.996264)"/>
      <use xlink:href="#CMMI12-50" transform="scale(0.996264)"/>
     </g>
    </g>
    <g id="LineCollection_5">
     <path d="M 324.523317 77.472472 
L 324.523317 64.472472 
" style="fill: none; stroke: #ff7f0e"/>
    </g>
    <g id="line2d_15">
     <path d="M 311.523317 70.972472 
L 337.523317 70.972472 
" style="fill: none; stroke: #ff7f0e; stroke-linecap: square"/>
    </g>
    <g id="line2d_16">
     <g>
      <use xlink:href="#mbcae6da720" x="324.523317" y="70.972472" style="fill: #ff7f0e"/>
     </g>
    </g>
    <g id="text_12">
     <!-- $\bar{P}_{\mathrm{sys}}$ -->
     <g transform="translate(347.923317 75.522472) scale(0.13 -0.13)">
      <defs>
       <path id="CMR17-73" d="M 1978 2697 
C 1978 2813 1971 2819 1933 2819 
C 1907 2819 1901 2813 1824 2717 
C 1805 2691 1747 2626 1728 2601 
C 1523 2819 1235 2819 1126 2819 
C 416 2819 160 2447 160 2076 
C 160 1498 813 1365 998 1325 
C 1402 1243 1542 1217 1677 1101 
C 1760 1025 1901 884 1901 654 
C 1901 384 1747 38 1158 38 
C 602 38 403 460 288 1021 
C 269 1110 269 1117 218 1117 
C 166 1117 160 1110 160 983 
L 160 63 
C 160 -51 166 -58 205 -58 
C 237 -58 243 -51 275 0 
C 314 57 410 211 448 276 
C 576 103 800 -64 1158 -64 
C 1792 -64 2131 283 2131 784 
C 2131 1112 1958 1285 1875 1362 
C 1683 1561 1459 1606 1190 1657 
C 838 1735 390 1825 390 2217 
C 390 2383 480 2737 1126 2737 
C 1811 2737 1850 2094 1862 1888 
C 1869 1856 1901 1849 1920 1849 
C 1978 1849 1978 1869 1978 1978 
L 1978 2697 
z
" transform="scale(0.015625)"/>
       <path id="CMR17-79" d="M 2496 2197 
C 2656 2586 2944 2586 3034 2586 
L 3034 2752 
C 2912 2752 2752 2752 2630 2752 
C 2496 2752 2285 2752 2157 2758 
L 2157 2592 
C 2400 2573 2406 2394 2406 2343 
C 2406 2280 2394 2248 2362 2171 
L 1664 449 
L 902 2306 
C 870 2382 870 2426 870 2433 
C 870 2573 1018 2586 1171 2586 
L 1171 2758 
C 1018 2752 742 2752 582 2752 
C 410 2752 205 2752 64 2758 
L 64 2586 
C 410 2586 448 2554 531 2350 
L 1485 15 
C 1197 -738 1030 -1178 627 -1178 
C 557 -1178 397 -1159 282 -1044 
C 429 -1031 493 -942 493 -833 
C 493 -725 416 -629 288 -629 
C 147 -629 77 -725 77 -840 
C 77 -1095 339 -1280 627 -1280 
C 998 -1280 1229 -922 1357 -604 
L 2496 2197 
z
" transform="scale(0.015625)"/>
      </defs>
      <use xlink:href="#CMR17-16" transform="translate(23.496833 25.189733) scale(0.996264)"/>
      <use xlink:href="#CMMI12-50" transform="scale(0.996264)"/>
      <use xlink:href="#CMR17-73" transform="translate(62.877232 -14.943915) scale(0.697382)"/>
      <use xlink:href="#CMR17-79" transform="translate(87.938055 -14.943915) scale(0.697382)"/>
      <use xlink:href="#CMR17-73" transform="translate(121.742942 -14.943915) scale(0.697382)"/>
     </g>
    </g>
    <g id="LineCollection_6">
     <path d="M 324.523317 97.691321 
L 324.523317 84.691321 
" style="fill: none; stroke: #2ca02c"/>
    </g>
    <g id="line2d_17">
     <path d="M 311.523317 91.191321 
L 337.523317 91.191321 
" style="fill: none; stroke: #2ca02c; stroke-linecap: square"/>
    </g>
    <g id="line2d_18">
     <g>
      <use xlink:href="#m8935f09352" x="324.523317" y="91.191321" style="fill: #2ca02c"/>
     </g>
    </g>
    <g id="text_13">
     <!-- $\bar{P}_{\mathrm{int}}$ -->
     <g transform="translate(347.923317 95.741321) scale(0.13 -0.13)">
      <defs>
       <path id="CMR17-69" d="M 992 3909 
C 992 4049 877 4170 730 4170 
C 589 4170 467 4056 467 3909 
C 467 3769 582 3648 730 3648 
C 870 3648 992 3763 992 3909 
z
M 243 2706 
L 243 2541 
C 602 2541 653 2502 653 2197 
L 653 427 
C 653 184 627 153 218 153 
L 218 -13 
C 371 0 646 0 806 0 
C 960 0 1222 0 1370 -13 
L 1370 153 
C 992 153 979 191 979 420 
L 979 2776 
L 243 2706 
z
" transform="scale(0.015625)"/>
       <path id="CMR17-6e" d="M 2656 1933 
C 2656 2259 2592 2790 1837 2790 
C 1331 2790 1069 2400 973 2144 
L 966 2144 
L 966 2790 
L 211 2720 
L 211 2554 
C 589 2554 646 2515 646 2208 
L 646 428 
C 646 184 621 153 211 153 
L 211 -13 
C 365 0 646 0 813 0 
C 979 0 1267 0 1421 -13 
L 1421 153 
C 1011 153 986 178 986 428 
L 986 1658 
C 986 2247 1344 2688 1792 2688 
C 2266 2688 2317 2266 2317 1958 
L 2317 428 
C 2317 184 2291 153 1882 153 
L 1882 -13 
C 2035 0 2317 0 2483 0 
C 2650 0 2938 0 3091 -13 
L 3091 153 
C 2682 153 2656 178 2656 428 
L 2656 1933 
z
" transform="scale(0.015625)"/>
       <path id="CMR17-74" d="M 966 2560 
L 1862 2560 
L 1862 2725 
L 966 2725 
L 966 3904 
L 851 3904 
C 838 3245 614 2668 70 2668 
L 70 2560 
L 627 2560 
L 627 771 
C 627 650 627 -64 1370 -64 
C 1747 -64 1965 306 1965 777 
L 1965 1140 
L 1850 1140 
L 1850 783 
C 1850 344 1677 51 1408 51 
C 1222 51 966 178 966 758 
L 966 2560 
z
" transform="scale(0.015625)"/>
      </defs>
      <use xlink:href="#CMR17-16" transform="translate(23.496833 25.189733) scale(0.996264)"/>
      <use xlink:href="#CMMI12-50" transform="scale(0.996264)"/>
      <use xlink:href="#CMR17-69" transform="translate(62.877232 -14.943915) scale(0.697382)"/>
      <use xlink:href="#CMR17-6e" transform="translate(80.286891 -14.943915) scale(0.697382)"/>
      <use xlink:href="#CMR17-74" transform="translate(114.091779 -14.943915) scale(0.697382)"/>
     </g>
    </g>
   </g>
  </g>
  <g id="axes_2">
   <g id="matplotlib.axis_3">
    <g id="ytick_4">
     <g id="line2d_19">
      <defs>
       <path id="m635ad33d77" d="M 0 0 
L 3.5 0 
" style="stroke: #000000; stroke-width: 0.8"/>
      </defs>
      <g>
       <use xlink:href="#m635ad33d77" x="380.065701" y="137.311274" style="stroke: #000000; stroke-width: 0.8"/>
      </g>
     </g>
     <g id="text_14">
      <!-- $\mathdefault{38}$ -->
      <g transform="translate(389.165701 141.808288) scale(0.13 -0.13)">
       <defs>
        <path id="CMR17-33" d="M 1414 2157 
C 1984 2157 2234 1662 2234 1090 
C 2234 320 1824 25 1453 25 
C 1114 25 563 194 390 693 
C 422 680 454 680 486 680 
C 640 680 755 782 755 948 
C 755 1133 614 1216 486 1216 
C 378 1216 211 1165 211 926 
C 211 335 787 -128 1466 -128 
C 2176 -128 2720 430 2720 1085 
C 2720 1707 2208 2157 1600 2227 
C 2086 2328 2554 2756 2554 3329 
C 2554 3820 2048 4179 1472 4179 
C 890 4179 378 3829 378 3329 
C 378 3110 544 3072 627 3072 
C 762 3072 877 3155 877 3321 
C 877 3486 762 3569 627 3569 
C 602 3569 570 3569 544 3557 
C 730 3959 1235 4032 1459 4032 
C 1683 4032 2106 3925 2106 3320 
C 2106 3143 2080 2828 1862 2550 
C 1670 2304 1453 2304 1242 2284 
C 1210 2284 1062 2269 1037 2269 
C 992 2263 966 2257 966 2208 
C 966 2163 973 2157 1101 2157 
L 1414 2157 
z
" transform="scale(0.015625)"/>
       </defs>
       <use xlink:href="#CMR17-33" transform="scale(0.996264)"/>
       <use xlink:href="#CMR17-38" transform="translate(45.690477 0) scale(0.996264)"/>
      </g>
     </g>
    </g>
    <g id="ytick_5">
     <g id="line2d_20">
      <g>
       <use xlink:href="#m635ad33d77" x="380.065701" y="108.362512" style="stroke: #000000; stroke-width: 0.8"/>
      </g>
     </g>
     <g id="text_15">
      <!-- $\mathdefault{40}$ -->
      <g transform="translate(389.165701 112.859526) scale(0.13 -0.13)">
       <use xlink:href="#CMR17-34" transform="scale(0.996264)"/>
       <use xlink:href="#CMR17-30" transform="translate(45.690477 0) scale(0.996264)"/>
      </g>
     </g>
    </g>
    <g id="ytick_6">
     <g id="line2d_21">
      <g>
       <use xlink:href="#m635ad33d77" x="380.065701" y="79.41375" style="stroke: #000000; stroke-width: 0.8"/>
      </g>
     </g>
     <g id="text_16">
      <!-- $\mathdefault{42}$ -->
      <g transform="translate(389.165701 83.910764) scale(0.13 -0.13)">
       <use xlink:href="#CMR17-34" transform="scale(0.996264)"/>
       <use xlink:href="#CMR17-32" transform="translate(45.690477 0) scale(0.996264)"/>
      </g>
     </g>
    </g>
    <g id="ytick_7">
     <g id="line2d_22">
      <g>
       <use xlink:href="#m635ad33d77" x="380.065701" y="50.464988" style="stroke: #000000; stroke-width: 0.8"/>
      </g>
     </g>
     <g id="text_17">
      <!-- $\mathdefault{44}$ -->
      <g transform="translate(389.165701 54.962002) scale(0.13 -0.13)">
       <use xlink:href="#CMR17-34" transform="scale(0.996264)"/>
       <use xlink:href="#CMR17-34" transform="translate(45.690477 0) scale(0.996264)"/>
      </g>
     </g>
    </g>
    <g id="ytick_8">
     <g id="line2d_23">
      <g>
       <use xlink:href="#m635ad33d77" x="380.065701" y="21.516226" style="stroke: #000000; stroke-width: 0.8"/>
      </g>
     </g>
     <g id="text_18">
      <!-- $\mathdefault{46}$ -->
      <g transform="translate(389.165701 26.01324) scale(0.13 -0.13)">
       <use xlink:href="#CMR17-34" transform="scale(0.996264)"/>
       <use xlink:href="#CMR17-36" transform="translate(45.690477 0) scale(0.996264)"/>
      </g>
     </g>
    </g>
    <g id="text_19">
     <!-- $\eta$ -->
     <g style="fill: #9467bd" transform="translate(414.841208 75.665817) rotate(-90) scale(0.13 -0.13)">
      <defs>
       <path id="CMMI12-11" d="M 3040 1768 
C 3072 1895 3091 1973 3091 2145 
C 3091 2528 2867 2815 2381 2815 
C 1811 2815 1510 2413 1395 2254 
C 1376 2618 1114 2815 832 2815 
C 646 2815 499 2726 378 2483 
C 262 2254 173 1864 173 1839 
C 173 1813 198 1781 243 1781 
C 294 1781 301 1788 339 1934 
C 435 2311 557 2688 813 2688 
C 960 2688 1011 2586 1011 2394 
C 1011 2254 947 2005 902 1807 
L 723 1118 
C 698 996 627 709 595 593 
C 550 428 480 127 480 96 
C 480 6 550 -64 646 -64 
C 723 -64 813 -25 864 70 
C 877 102 934 326 966 453 
L 1107 1028 
L 1318 1871 
C 1331 1909 1491 2228 1728 2432 
C 1894 2586 2112 2688 2362 2688 
C 2618 2688 2707 2496 2707 2241 
C 2707 2055 2682 1953 2650 1831 
L 1907 -1107 
C 1901 -1139 1888 -1177 1888 -1216 
C 1888 -1312 1965 -1376 2061 -1376 
C 2118 -1376 2253 -1350 2304 -1158 
L 3040 1768 
z
" transform="scale(0.015625)"/>
      </defs>
      <use xlink:href="#CMMI12-11" transform="scale(0.996264)"/>
     </g>
    </g>
   </g>
   <g id="LineCollection_7">
    <path d="M 75.214648 131.935074 
L 75.214648 124.756151 
" clip-path="url(#pdbcdbf7853)" style="fill: none; stroke: #9467bd"/>
    <path d="M 147.798232 22.60339 
L 147.798232 16.74083 
" clip-path="url(#pdbcdbf7853)" style="fill: none; stroke: #9467bd"/>
    <path d="M 220.381816 22.441923 
L 220.381816 16.618899 
" clip-path="url(#pdbcdbf7853)" style="fill: none; stroke: #9467bd"/>
    <path d="M 292.9654 26.314404 
L 292.9654 20.03157 
" clip-path="url(#pdbcdbf7853)" style="fill: none; stroke: #9467bd"/>
    <path d="M 365.548984 20.176415 
L 365.548984 13.139765 
" clip-path="url(#pdbcdbf7853)" style="fill: none; stroke: #9467bd"/>
   </g>
   <g id="line2d_24">
    <path d="M 75.214648 128.345613 
L 147.798232 19.67211 
L 220.381816 19.530411 
L 292.9654 23.172987 
L 365.548984 16.65809 
" clip-path="url(#pdbcdbf7853)" style="fill: none; stroke: #9467bd; stroke-linecap: square"/>
    <defs>
     <path id="mce35a64465" d="M 0 -2.8 
L -0.628639 -0.865248 
L -2.662958 -0.865248 
L -1.01716 0.330495 
L -1.645799 2.265248 
L -0 1.069505 
L 1.645799 2.265248 
L 1.01716 0.330495 
L 2.662958 -0.865248 
L 0.628639 -0.865248 
z
"/>
    </defs>
    <g clip-path="url(#pdbcdbf7853)">
     <use xlink:href="#mce35a64465" x="75.214648" y="128.345613" style="fill: #9467bd"/>
     <use xlink:href="#mce35a64465" x="147.798232" y="19.67211" style="fill: #9467bd"/>
     <use xlink:href="#mce35a64465" x="220.381816" y="19.530411" style="fill: #9467bd"/>
     <use xlink:href="#mce35a64465" x="292.9654" y="23.172987" style="fill: #9467bd"/>
     <use xlink:href="#mce35a64465" x="365.548984" y="16.65809" style="fill: #9467bd"/>
    </g>
   </g>
   <g id="patch_8">
    <path d="M 60.697931 137.87484 
L 60.697931 7.2 
" style="fill: none; stroke: #000000; stroke-width: 0.8; stroke-linejoin: miter; stroke-linecap: square"/>
   </g>
   <g id="patch_9">
    <path d="M 380.065701 137.87484 
L 380.065701 7.2 
" style="fill: none; stroke: #000000; stroke-width: 0.8; stroke-linejoin: miter; stroke-linecap: square"/>
   </g>
   <g id="patch_10">
    <path d="M 60.697931 137.87484 
L 380.065701 137.87484 
" style="fill: none; stroke: #000000; stroke-width: 0.8; stroke-linejoin: miter; stroke-linecap: square"/>
   </g>
   <g id="patch_11">
    <path d="M 60.697931 7.2 
L 380.065701 7.2 
" style="fill: none; stroke: #000000; stroke-width: 0.8; stroke-linejoin: miter; stroke-linecap: square"/>
   </g>
   <g id="legend_2">
    <g id="patch_12">
     <path d="M 69.797931 35.718312 
L 117.654726 35.718312 
Q 120.254726 35.718312 120.254726 33.118312 
L 120.254726 16.3 
Q 120.254726 13.7 117.654726 13.7 
L 69.797931 13.7 
Q 67.197931 13.7 67.197931 16.3 
L 67.197931 33.118312 
Q 67.197931 35.718312 69.797931 35.718312 
z
" style="fill: #ffffff; opacity: 0.8; stroke: #cccccc; stroke-width: 0.24; stroke-linejoin: miter"/>
    </g>
    <g id="LineCollection_8">
     <path d="M 85.397931 29.95 
L 85.397931 16.95 
" style="fill: none; stroke: #9467bd"/>
    </g>
    <g id="line2d_25">
     <path d="M 72.397931 23.45 
L 98.397931 23.45 
" style="fill: none; stroke: #9467bd; stroke-linecap: square"/>
    </g>
    <g id="line2d_26">
     <g>
      <use xlink:href="#mce35a64465" x="85.397931" y="23.45" style="fill: #9467bd"/>
     </g>
    </g>
    <g id="text_20">
     <!-- $\eta$ -->
     <g transform="translate(108.797931 28) scale(0.13 -0.13)">
      <use xlink:href="#CMMI12-11" transform="scale(0.996264)"/>
     </g>
    </g>
   </g>
  </g>
 </g>
 <defs>
  <clipPath id="pdbcdbf7853">
   <rect x="60.697931" y="7.2" width="319.36777" height="130.67484"/>
  </clipPath>
 </defs>
</svg>
