<?xml version="1.0" encoding="utf-8" standalone="no"?>
<!DOCTYPE svg PUBLIC "-//W3C//DTD SVG 1.1//EN"
  "http://www.w3.org/Graphics/SVG/1.1/DTD/svg11.dtd">
<svg xmlns:xlink="http://www.w3.org/1999/xlink" width="253.19952pt" height="238.79952pt" viewBox="0 0 253.19952 238.79952" xmlns="http://www.w3.org/2000/svg" version="1.1">
 <metadata>
  <rdf:RDF xmlns:dc="http://purl.org/dc/elements/1.1/" xmlns:cc="http://creativecommons.org/ns#" xmlns:rdf="http://www.w3.org/1999/02/22-rdf-syntax-ns#">
   <cc:Work>
    <dc:type rdf:resource="http://purl.org/dc/dcmitype/StillImage"/>
    <dc:date>1980-01-01T00:00:00+00:00</dc:date>
    <dc:format>image/svg+xml</dc:format>
    <dc:creator>
     <cc:Agent>
      <dc:title>Matplotlib v3.6.2, https://matplotlib.org/</dc:title>
     </cc:Agent>
    </dc:creator>
   </cc:Work>
  </rdf:RDF>
 </metadata>
 <defs>
  <style type="text/css">*{stroke-linejoin: round; stroke-linecap: butt}</style>
 </defs>
 <g id="figure_1">
  <g id="patch_1">
   <path d="M 0 238.79952 
L 253.19952 238.79952 
L 253.19952 0 
L 0 0 
z
" style="fill: #ffffff"/>
  </g>
  <g id="axes_1">
   <g id="patch_2">
    <path d="M 33.707196 202.559296 
L 245.99952 202.559296 
L 245.99952 7.2 
L 33.707196 7.2 
z
" style="fill: #ffffff"/>
   </g>
   <g id="matplotlib.axis_1">
    <g id="xtick_1">
     <g id="line2d_1">
      <defs>
       <path id="m29ab02fdcd" d="M 0 0 
L 0 3.5 
" style="stroke: #000000; stroke-width: 0.8"/>
      </defs>
      <g>
       <use xlink:href="#m29ab02fdcd" x="43.356847" y="202.559296" style="stroke: #000000; stroke-width: 0.8"/>
      </g>
     </g>
     <g id="text_1">
      <!-- $\mathdefault{0}$ -->
      <g transform="translate(41.239756 217.194098) scale(0.08 -0.08)">
       <defs>
        <path id="CMR17-30" d="M 2688 2025 
C 2688 2416 2682 3080 2413 3591 
C 2176 4039 1798 4198 1466 4198 
C 1158 4198 768 4058 525 3597 
C 269 3118 243 2524 243 2025 
C 243 1661 250 1106 448 619 
C 723 -39 1216 -128 1466 -128 
C 1760 -128 2208 -7 2470 600 
C 2662 1042 2688 1559 2688 2025 
z
M 1466 -26 
C 1056 -26 813 325 723 812 
C 653 1188 653 1738 653 2096 
C 653 2588 653 2997 736 3387 
C 858 3929 1216 4096 1466 4096 
C 1728 4096 2067 3923 2189 3400 
C 2272 3036 2278 2607 2278 2096 
C 2278 1680 2278 1169 2202 792 
C 2067 95 1690 -26 1466 -26 
z
" transform="scale(0.015625)"/>
       </defs>
       <use xlink:href="#CMR17-30" transform="scale(0.996264)"/>
      </g>
     </g>
    </g>
    <g id="xtick_2">
     <g id="line2d_2">
      <g>
       <use xlink:href="#m29ab02fdcd" x="70.161434" y="202.559296" style="stroke: #000000; stroke-width: 0.8"/>
      </g>
     </g>
     <g id="text_2">
      <!-- $\mathdefault{25}$ -->
      <g transform="translate(65.927251 217.194098) scale(0.08 -0.08)">
       <defs>
        <path id="CMR17-32" d="M 2669 989 
L 2554 989 
C 2490 536 2438 459 2413 420 
C 2381 369 1920 369 1830 369 
L 602 369 
C 832 619 1280 1072 1824 1597 
C 2214 1967 2669 2402 2669 3035 
C 2669 3790 2067 4224 1395 4224 
C 691 4224 262 3604 262 3030 
C 262 2780 448 2748 525 2748 
C 589 2748 781 2787 781 3010 
C 781 3207 614 3264 525 3264 
C 486 3264 448 3258 422 3245 
C 544 3790 915 4058 1306 4058 
C 1862 4058 2227 3617 2227 3035 
C 2227 2479 1901 2000 1536 1584 
L 262 146 
L 262 0 
L 2515 0 
L 2669 989 
z
" transform="scale(0.015625)"/>
        <path id="CMR17-35" d="M 730 3692 
C 794 3666 1056 3584 1325 3584 
C 1920 3584 2246 3911 2432 4100 
C 2432 4157 2432 4192 2394 4192 
C 2387 4192 2374 4192 2323 4163 
C 2099 4058 1837 3973 1517 3973 
C 1325 3973 1037 3999 723 4139 
C 653 4171 640 4171 634 4171 
C 602 4171 595 4164 595 4037 
L 595 2203 
C 595 2089 595 2057 659 2057 
C 691 2057 704 2070 736 2114 
C 941 2401 1222 2522 1542 2522 
C 1766 2522 2246 2382 2246 1289 
C 2246 1085 2246 715 2054 421 
C 1894 159 1645 25 1370 25 
C 947 25 518 320 403 814 
C 429 807 480 795 506 795 
C 589 795 749 840 749 1038 
C 749 1210 627 1280 506 1280 
C 358 1280 262 1190 262 1011 
C 262 454 704 -128 1382 -128 
C 2042 -128 2669 440 2669 1264 
C 2669 2030 2170 2624 1549 2624 
C 1222 2624 947 2503 730 2274 
L 730 3692 
z
" transform="scale(0.015625)"/>
       </defs>
       <use xlink:href="#CMR17-32" transform="scale(0.996264)"/>
       <use xlink:href="#CMR17-35" transform="translate(45.690477 0) scale(0.996264)"/>
      </g>
     </g>
    </g>
    <g id="xtick_3">
     <g id="line2d_3">
      <g>
       <use xlink:href="#m29ab02fdcd" x="96.96602" y="202.559296" style="stroke: #000000; stroke-width: 0.8"/>
      </g>
     </g>
     <g id="text_3">
      <!-- $\mathdefault{50}$ -->
      <g transform="translate(92.731837 217.194098) scale(0.08 -0.08)">
       <use xlink:href="#CMR17-35" transform="scale(0.996264)"/>
       <use xlink:href="#CMR17-30" transform="translate(45.690477 0) scale(0.996264)"/>
      </g>
     </g>
    </g>
    <g id="xtick_4">
     <g id="line2d_4">
      <g>
       <use xlink:href="#m29ab02fdcd" x="123.770606" y="202.559296" style="stroke: #000000; stroke-width: 0.8"/>
      </g>
     </g>
     <g id="text_4">
      <!-- $\mathdefault{75}$ -->
      <g transform="translate(119.536423 217.194098) scale(0.08 -0.08)">
       <defs>
        <path id="CMR17-37" d="M 2886 3941 
L 2886 4081 
L 1382 4081 
C 634 4081 621 4165 595 4288 
L 480 4288 
L 294 3094 
L 410 3094 
C 429 3215 474 3540 550 3661 
C 589 3712 1062 3712 1171 3712 
L 2579 3712 
L 1869 2661 
C 1395 1954 1069 999 1069 165 
C 1069 89 1069 -128 1299 -128 
C 1530 -128 1530 89 1530 171 
L 1530 465 
C 1530 1508 1709 2196 2003 2636 
L 2886 3941 
z
" transform="scale(0.015625)"/>
       </defs>
       <use xlink:href="#CMR17-37" transform="scale(0.996264)"/>
       <use xlink:href="#CMR17-35" transform="translate(45.690477 0) scale(0.996264)"/>
      </g>
     </g>
    </g>
    <g id="xtick_5">
     <g id="line2d_5">
      <g>
       <use xlink:href="#m29ab02fdcd" x="150.575193" y="202.559296" style="stroke: #000000; stroke-width: 0.8"/>
      </g>
     </g>
     <g id="text_5">
      <!-- $\mathdefault{100}$ -->
      <g transform="translate(144.223918 217.194098) scale(0.08 -0.08)">
       <defs>
        <path id="CMR17-31" d="M 1702 4058 
C 1702 4192 1696 4192 1606 4192 
C 1357 3916 979 3827 621 3827 
C 602 3827 570 3827 563 3808 
C 557 3795 557 3782 557 3648 
C 755 3648 1088 3686 1344 3839 
L 1344 461 
C 1344 236 1331 160 781 160 
L 589 160 
L 589 0 
C 896 0 1216 0 1523 0 
C 1830 0 2150 0 2458 0 
L 2458 160 
L 2266 160 
C 1715 160 1702 230 1702 458 
L 1702 4058 
z
" transform="scale(0.015625)"/>
       </defs>
       <use xlink:href="#CMR17-31" transform="scale(0.996264)"/>
       <use xlink:href="#CMR17-30" transform="translate(45.690477 0) scale(0.996264)"/>
       <use xlink:href="#CMR17-30" transform="translate(91.380954 0) scale(0.996264)"/>
      </g>
     </g>
    </g>
    <g id="xtick_6">
     <g id="line2d_6">
      <g>
       <use xlink:href="#m29ab02fdcd" x="177.379779" y="202.559296" style="stroke: #000000; stroke-width: 0.8"/>
      </g>
     </g>
     <g id="text_6">
      <!-- $\mathdefault{125}$ -->
      <g transform="translate(171.028505 217.194098) scale(0.08 -0.08)">
       <use xlink:href="#CMR17-31" transform="scale(0.996264)"/>
       <use xlink:href="#CMR17-32" transform="translate(45.690477 0) scale(0.996264)"/>
       <use xlink:href="#CMR17-35" transform="translate(91.380954 0) scale(0.996264)"/>
      </g>
     </g>
    </g>
    <g id="xtick_7">
     <g id="line2d_7">
      <g>
       <use xlink:href="#m29ab02fdcd" x="204.184365" y="202.559296" style="stroke: #000000; stroke-width: 0.8"/>
      </g>
     </g>
     <g id="text_7">
      <!-- $\mathdefault{150}$ -->
      <g transform="translate(197.833091 217.194098) scale(0.08 -0.08)">
       <use xlink:href="#CMR17-31" transform="scale(0.996264)"/>
       <use xlink:href="#CMR17-35" transform="translate(45.690477 0) scale(0.996264)"/>
       <use xlink:href="#CMR17-30" transform="translate(91.380954 0) scale(0.996264)"/>
      </g>
     </g>
    </g>
    <g id="xtick_8">
     <g id="line2d_8">
      <g>
       <use xlink:href="#m29ab02fdcd" x="230.988952" y="202.559296" style="stroke: #000000; stroke-width: 0.8"/>
      </g>
     </g>
     <g id="text_8">
      <!-- $\mathdefault{175}$ -->
      <g transform="translate(224.637677 217.194098) scale(0.08 -0.08)">
       <use xlink:href="#CMR17-31" transform="scale(0.996264)"/>
       <use xlink:href="#CMR17-37" transform="translate(45.690477 0) scale(0.996264)"/>
       <use xlink:href="#CMR17-35" transform="translate(91.380954 0) scale(0.996264)"/>
      </g>
     </g>
    </g>
    <g id="text_9">
     <!-- $\tau$ -->
     <g transform="translate(137.675756 229.662342) scale(0.1 -0.1)">
      <defs>
       <path id="CMMI12-1c" d="M 1837 2408 
L 2899 2408 
C 2982 2408 3194 2408 3194 2612 
C 3194 2752 3072 2752 2957 2752 
L 1197 2752 
C 1050 2752 832 2752 538 2440 
C 371 2255 166 1917 166 1879 
C 166 1841 198 1828 237 1828 
C 282 1828 288 1847 320 1885 
C 653 2408 986 2408 1146 2408 
L 1677 2408 
L 1011 223 
C 979 127 979 114 979 95 
C 979 25 1024 -64 1152 -64 
C 1350 -64 1382 108 1402 203 
L 1837 2408 
z
" transform="scale(0.015625)"/>
      </defs>
      <use xlink:href="#CMMI12-1c" transform="scale(0.996264)"/>
     </g>
    </g>
   </g>
   <g id="matplotlib.axis_2">
    <g id="ytick_1">
     <g id="line2d_9">
      <defs>
       <path id="m0f1346ecb8" d="M 0 0 
L -3.5 0 
" style="stroke: #000000; stroke-width: 0.8"/>
      </defs>
      <g>
       <use xlink:href="#m0f1346ecb8" x="33.707196" y="193.679328" style="stroke: #000000; stroke-width: 0.8"/>
      </g>
     </g>
     <g id="text_10">
      <!-- $\mathdefault{−1.0}$ -->
      <g transform="translate(7.2 196.446729) scale(0.08 -0.08)">
       <defs>
        <path id="CMSY10-0" d="M 4218 1472 
C 4326 1472 4442 1472 4442 1600 
C 4442 1728 4326 1728 4218 1728 
L 755 1728 
C 646 1728 531 1728 531 1600 
C 531 1472 646 1472 755 1472 
L 4218 1472 
z
" transform="scale(0.015625)"/>
        <path id="CMMI12-3a" d="M 1178 307 
C 1178 492 1024 619 870 619 
C 685 619 557 466 557 313 
C 557 128 710 0 864 0 
C 1050 0 1178 153 1178 307 
z
" transform="scale(0.015625)"/>
       </defs>
       <use xlink:href="#CMSY10-0" transform="scale(0.996264)"/>
       <use xlink:href="#CMR17-31" transform="translate(77.487468 0) scale(0.996264)"/>
       <use xlink:href="#CMMI12-3a" transform="translate(123.177945 0) scale(0.996264)"/>
       <use xlink:href="#CMR17-30" transform="translate(150.275122 0) scale(0.996264)"/>
      </g>
     </g>
    </g>
    <g id="ytick_2">
     <g id="line2d_10">
      <g>
       <use xlink:href="#m0f1346ecb8" x="33.707196" y="158.36605" style="stroke: #000000; stroke-width: 0.8"/>
      </g>
     </g>
     <g id="text_11">
      <!-- $\mathdefault{−0.8}$ -->
      <g transform="translate(7.2 161.13345) scale(0.08 -0.08)">
       <defs>
        <path id="CMR17-38" d="M 1741 2264 
C 2144 2467 2554 2773 2554 3263 
C 2554 3841 1990 4179 1472 4179 
C 890 4179 378 3759 378 3180 
C 378 3021 416 2747 666 2505 
C 730 2442 998 2251 1171 2130 
C 883 1983 211 1634 211 934 
C 211 279 838 -128 1459 -128 
C 2144 -128 2720 362 2720 1010 
C 2720 1590 2330 1857 2074 2029 
L 1741 2264 
z
M 902 2822 
C 851 2854 595 3051 595 3351 
C 595 3739 998 4032 1459 4032 
C 1965 4032 2336 3676 2336 3262 
C 2336 2669 1670 2331 1638 2331 
C 1632 2331 1626 2331 1574 2370 
L 902 2822 
z
M 2080 1519 
C 2176 1449 2483 1240 2483 851 
C 2483 381 2010 25 1472 25 
C 890 25 448 438 448 940 
C 448 1443 838 1862 1280 2060 
L 2080 1519 
z
" transform="scale(0.015625)"/>
       </defs>
       <use xlink:href="#CMSY10-0" transform="scale(0.996264)"/>
       <use xlink:href="#CMR17-30" transform="translate(77.487468 0) scale(0.996264)"/>
       <use xlink:href="#CMMI12-3a" transform="translate(123.177945 0) scale(0.996264)"/>
       <use xlink:href="#CMR17-38" transform="translate(150.275122 0) scale(0.996264)"/>
      </g>
     </g>
    </g>
    <g id="ytick_3">
     <g id="line2d_11">
      <g>
       <use xlink:href="#m0f1346ecb8" x="33.707196" y="123.052771" style="stroke: #000000; stroke-width: 0.8"/>
      </g>
     </g>
     <g id="text_12">
      <!-- $\mathdefault{−0.6}$ -->
      <g transform="translate(7.2 125.820172) scale(0.08 -0.08)">
       <defs>
        <path id="CMR17-36" d="M 678 2176 
C 678 3690 1395 4032 1811 4032 
C 1946 4032 2272 4009 2400 3776 
C 2298 3776 2106 3776 2106 3553 
C 2106 3381 2246 3323 2336 3323 
C 2394 3323 2566 3348 2566 3560 
C 2566 3954 2246 4179 1805 4179 
C 1043 4179 243 3390 243 1984 
C 243 253 966 -128 1478 -128 
C 2099 -128 2688 427 2688 1283 
C 2688 2081 2170 2662 1517 2662 
C 1126 2662 838 2407 678 1960 
L 678 2176 
z
M 1478 25 
C 691 25 691 1200 691 1436 
C 691 1896 909 2560 1504 2560 
C 1613 2560 1926 2560 2138 2120 
C 2253 1870 2253 1609 2253 1289 
C 2253 944 2253 690 2118 434 
C 1978 171 1773 25 1478 25 
z
" transform="scale(0.015625)"/>
       </defs>
       <use xlink:href="#CMSY10-0" transform="scale(0.996264)"/>
       <use xlink:href="#CMR17-30" transform="translate(77.487468 0) scale(0.996264)"/>
       <use xlink:href="#CMMI12-3a" transform="translate(123.177945 0) scale(0.996264)"/>
       <use xlink:href="#CMR17-36" transform="translate(150.275122 0) scale(0.996264)"/>
      </g>
     </g>
    </g>
    <g id="ytick_4">
     <g id="line2d_12">
      <g>
       <use xlink:href="#m0f1346ecb8" x="33.707196" y="87.739493" style="stroke: #000000; stroke-width: 0.8"/>
      </g>
     </g>
     <g id="text_13">
      <!-- $\mathdefault{−0.4}$ -->
      <g transform="translate(7.2 90.506894) scale(0.08 -0.08)">
       <defs>
        <path id="CMR17-34" d="M 2150 4122 
C 2150 4256 2144 4256 2029 4256 
L 128 1254 
L 128 1088 
L 1779 1088 
L 1779 457 
C 1779 224 1766 160 1318 160 
L 1197 160 
L 1197 0 
C 1402 0 1747 0 1965 0 
C 2182 0 2528 0 2733 0 
L 2733 160 
L 2611 160 
C 2163 160 2150 224 2150 457 
L 2150 1088 
L 2803 1088 
L 2803 1254 
L 2150 1254 
L 2150 4122 
z
M 1798 3703 
L 1798 1254 
L 256 1254 
L 1798 3703 
z
" transform="scale(0.015625)"/>
       </defs>
       <use xlink:href="#CMSY10-0" transform="scale(0.996264)"/>
       <use xlink:href="#CMR17-30" transform="translate(77.487468 0) scale(0.996264)"/>
       <use xlink:href="#CMMI12-3a" transform="translate(123.177945 0) scale(0.996264)"/>
       <use xlink:href="#CMR17-34" transform="translate(150.275122 0) scale(0.996264)"/>
      </g>
     </g>
    </g>
    <g id="ytick_5">
     <g id="line2d_13">
      <g>
       <use xlink:href="#m0f1346ecb8" x="33.707196" y="52.426215" style="stroke: #000000; stroke-width: 0.8"/>
      </g>
     </g>
     <g id="text_14">
      <!-- $\mathdefault{−0.2}$ -->
      <g transform="translate(7.2 55.193616) scale(0.08 -0.08)">
       <use xlink:href="#CMSY10-0" transform="scale(0.996264)"/>
       <use xlink:href="#CMR17-30" transform="translate(77.487468 0) scale(0.996264)"/>
       <use xlink:href="#CMMI12-3a" transform="translate(123.177945 0) scale(0.996264)"/>
       <use xlink:href="#CMR17-32" transform="translate(150.275122 0) scale(0.996264)"/>
      </g>
     </g>
    </g>
    <g id="ytick_6">
     <g id="line2d_14">
      <g>
       <use xlink:href="#m0f1346ecb8" x="33.707196" y="17.112936" style="stroke: #000000; stroke-width: 0.8"/>
      </g>
     </g>
     <g id="text_15">
      <!-- $\mathdefault{0.0}$ -->
      <g transform="translate(13.786507 19.880337) scale(0.08 -0.08)">
       <use xlink:href="#CMR17-30" transform="scale(0.996264)"/>
       <use xlink:href="#CMMI12-3a" transform="translate(45.690477 0) scale(0.996264)"/>
       <use xlink:href="#CMR17-30" transform="translate(72.787654 0) scale(0.996264)"/>
      </g>
     </g>
    </g>
   </g>
   <g id="line2d_15">
    <path d="M 43.356847 193.679328 
L 43.421178 193.399261 
L 43.54984 191.188822 
L 43.807164 180.911957 
L 44.965122 120.941517 
L 45.158115 119.72362 
L 45.286777 120.670388 
L 45.544101 125.922727 
L 46.573398 153.080485 
L 46.766391 154.079234 
L 46.830722 154.068232 
L 46.959384 153.61756 
L 47.216708 151.522618 
L 47.860018 146.07032 
L 48.053011 145.682883 
L 48.181673 145.815203 
L 48.374666 146.50091 
L 48.953645 150.020474 
L 49.339631 151.649303 
L 49.596955 151.996774 
L 49.789948 151.914108 
L 50.111603 151.402278 
L 50.56192 150.713334 
L 50.819244 150.667314 
L 51.076568 150.942949 
L 51.526885 151.941119 
L 52.363188 153.771906 
L 52.813505 154.319078 
L 53.006498 154.324329 
L 53.199491 154.065099 
L 53.456815 153.110428 
L 53.714139 151.208116 
L 54.100125 146.220312 
L 54.807767 132.658569 
L 55.64407 118.473248 
L 56.995021 98.297892 
L 57.574 92.531394 
L 58.538965 86.430502 
L 60.597557 79.082994 
L 61.948508 75.857797 
L 62.527487 74.431031 
L 63.170797 73.829335 
L 64.264425 71.332726 
L 65.808369 68.992931 
L 66.258686 68.406289 
L 66.901996 67.467314 
L 67.15932 67.683963 
L 67.416644 67.789285 
L 67.609637 67.537653 
L 68.638933 65.534106 
L 68.960588 65.666575 
L 69.217912 65.663368 
L 69.475236 65.403683 
L 69.989884 64.748513 
L 70.504532 64.286742 
L 70.890518 64.079065 
L 71.276504 64.053526 
L 71.533828 63.594146 
L 72.112807 62.383606 
L 72.370132 62.316383 
L 73.013442 62.501169 
L 73.721083 61.98209 
L 74.042738 61.85147 
L 74.428724 61.615652 
L 74.943372 61.706958 
L 75.586682 60.914765 
L 76.358654 60.3465 
L 76.680309 59.317892 
L 77.130626 57.337799 
L 77.580943 53.707408 
L 78.67457 44.548661 
L 79.382211 40.569862 
L 79.639535 40.06561 
L 79.896859 39.984681 
L 80.475838 40.245394 
L 81.891121 38.905219 
L 82.341438 38.885285 
L 82.598762 38.826982 
L 83.306403 38.289904 
L 84.014044 38.561133 
L 84.271368 38.594663 
L 85.364995 39.79456 
L 86.32996 42.322577 
L 86.908939 44.786906 
L 87.61658 48.959946 
L 88.581545 55.904293 
L 90.640138 73.896671 
L 92.312744 87.449676 
L 93.277709 93.603669 
L 94.307005 98.685674 
L 95.400632 103.08464 
L 96.622921 107.138624 
L 98.48852 112.218678 
L 99.324824 113.950269 
L 100.418451 115.631104 
L 101.254754 116.518695 
L 104.406973 119.431644 
L 104.921621 119.670216 
L 105.564931 119.667243 
L 106.079579 119.76665 
L 106.594227 120.144586 
L 107.816516 121.229984 
L 108.588489 121.653014 
L 108.845813 122.303037 
L 109.103137 123.611088 
L 109.424792 126.474893 
L 109.875109 132.762199 
L 110.775743 146.022448 
L 111.097398 148.137995 
L 111.290391 148.556461 
L 111.419053 148.547704 
L 111.612046 148.230457 
L 112.319687 146.721669 
L 112.51268 146.771889 
L 112.770004 147.233382 
L 113.348983 149.074559 
L 113.7993 150.18235 
L 114.120955 150.511465 
L 114.44261 150.536092 
L 115.021589 150.526479 
L 115.407575 150.816033 
L 115.986554 151.625631 
L 117.208844 153.335904 
L 117.401837 153.306584 
L 117.59483 152.998157 
L 117.852154 151.963925 
L 118.173809 149.331169 
L 118.559795 143.925753 
L 121.326028 97.766747 
L 122.098 90.53116 
L 122.676979 86.939427 
L 123.38462 83.644159 
L 124.606909 79.747098 
L 125.121557 78.308669 
L 127.051488 73.397233 
L 127.373143 73.227334 
L 127.630467 73.006502 
L 128.016453 72.27217 
L 129.174411 70.012441 
L 130.075045 68.639398 
L 130.654024 68.198201 
L 131.168672 67.514824 
L 131.554658 67.243114 
L 131.811982 66.977326 
L 132.841278 65.579148 
L 133.420257 65.244208 
L 133.870574 64.822131 
L 134.127898 64.922023 
L 134.513884 65.085704 
L 134.706878 64.85204 
L 135.414519 63.61666 
L 135.800505 63.239007 
L 136.250822 62.723919 
L 136.443815 62.779893 
L 136.829801 63.047395 
L 137.087125 62.841952 
L 137.730435 62.228915 
L 138.245083 62.107713 
L 139.017055 61.574711 
L 139.274379 61.377529 
L 139.596034 61.524406 
L 139.853358 61.518552 
L 140.496668 61.0289 
L 140.753992 60.386162 
L 141.397302 57.742503 
L 141.783288 55.127881 
L 142.619591 47.581822 
L 143.134239 43.349492 
L 143.584556 41.627796 
L 144.034874 40.678648 
L 144.42086 40.379535 
L 145.257163 39.865094 
L 145.70748 39.658713 
L 145.964804 39.555928 
L 146.222128 39.128363 
L 146.543783 38.616287 
L 146.801107 38.629836 
L 147.187093 38.68071 
L 147.508748 38.518667 
L 147.830403 38.338639 
L 148.473713 38.614811 
L 148.731037 38.524735 
L 148.988361 38.734867 
L 149.888995 39.954645 
L 150.403643 41.499861 
L 151.239946 44.517895 
L 151.754594 47.589904 
L 152.783891 55.473685 
L 156.836744 88.688683 
L 157.930371 95.345934 
L 158.895336 99.996511 
L 160.053294 104.430131 
L 161.275583 108.161903 
L 162.497873 111.332015 
L 163.398507 113.132263 
L 164.299141 114.443146 
L 167.837346 118.396281 
L 168.73798 119.021971 
L 170.796573 120.151579 
L 172.790834 120.812733 
L 173.048158 121.308777 
L 173.305482 122.337709 
L 173.627137 124.720273 
L 174.013123 129.446635 
L 175.299743 147.332469 
L 175.557067 148.243197 
L 175.685729 148.317121 
L 175.878722 148.085393 
L 176.715025 146.469389 
L 176.908018 146.63097 
L 177.165342 147.212676 
L 178.194638 149.982725 
L 178.516293 150.167795 
L 179.481259 150.301309 
L 179.931576 150.868164 
L 181.411189 152.973285 
L 181.668513 153.105419 
L 181.861506 152.970976 
L 182.054499 152.495351 
L 182.311823 151.098649 
L 182.633478 147.794561 
L 183.083795 140.327991 
L 184.499077 114.896876 
L 185.592704 98.412731 
L 186.622 89.362554 
L 187.393972 85.071581 
L 187.844289 83.296434 
L 188.358938 81.88879 
L 189.323903 78.661559 
L 190.932178 75.499572 
L 191.189502 74.898523 
L 191.961474 72.55779 
L 192.34746 72.224596 
L 193.055101 70.938176 
L 193.312425 70.823513 
L 193.63408 70.133635 
L 193.891404 69.739745 
L 194.341721 69.499413 
L 195.242355 67.901717 
L 195.885665 67.386362 
L 196.271651 67.242036 
L 199.681195 64.136022 
L 200.067181 63.695747 
L 200.581829 62.984529 
L 201.032146 62.946351 
L 201.611125 62.944412 
L 202.254435 62.720229 
L 202.833414 62.68416 
L 203.026407 62.649276 
L 204.570351 61.298005 
L 204.892006 61.109016 
L 205.084999 60.674147 
L 205.599647 58.662496 
L 206.049965 55.758251 
L 206.693275 50.116656 
L 207.207923 46.166668 
L 207.915564 42.307115 
L 208.237219 41.616143 
L 209.009191 40.842646 
L 209.330846 40.599954 
L 209.909825 39.991864 
L 210.360142 40.056961 
L 211.003452 39.762119 
L 211.260776 39.873634 
L 211.453769 39.692842 
L 211.839755 39.265355 
L 212.225741 39.012976 
L 212.611727 38.750232 
L 213.319368 38.825186 
L 213.641023 39.160475 
L 214.348664 40.283948 
L 214.863313 42.043978 
L 215.699616 45.360483 
L 216.342926 49.07213 
L 217.050567 54.545936 
L 220.910427 87.083893 
L 221.875392 93.356846 
L 223.097681 99.604599 
L 224.126978 103.768431 
L 225.284936 107.565972 
L 226.314232 110.182542 
L 228.1155 114.04801 
L 228.694479 114.826496 
L 229.466451 115.446089 
L 230.302754 116.180615 
L 231.589374 117.812269 
L 232.683002 118.937983 
L 233.261981 119.268234 
L 235.12758 120.033234 
L 236.349869 120.507677 
L 236.349869 120.507677 
" clip-path="url(#p791d21606e)" style="fill: none; stroke: #1f77b4; stroke-width: 0.5; stroke-linecap: square"/>
   </g>
   <g id="line2d_16">
    <path d="M 43.356847 17.112936 
L 44.257481 16.742717 
L 45.222446 16.660464 
L 76.229992 16.602462 
L 106.465565 16.651165 
L 141.590295 16.594352 
L 151.625932 16.588784 
L 163.720162 16.645115 
L 205.663978 16.597153 
L 216.021271 16.589598 
L 229.209127 16.646386 
L 236.349869 16.652593 
L 236.349869 16.652593 
" clip-path="url(#p791d21606e)" style="fill: none; stroke: #ff7f0e; stroke-width: 0.5; stroke-linecap: square"/>
   </g>
   <g id="line2d_17">
    <path d="M 43.356847 17.112936 
L 44.450474 16.750705 
L 45.029453 16.773603 
L 45.47977 17.007032 
L 46.316074 17.537482 
L 46.637729 17.500759 
L 47.023715 17.198856 
L 47.924349 16.341009 
L 48.246004 16.386135 
L 48.63199 16.723033 
L 49.339631 17.373495 
L 49.661286 17.403834 
L 50.111603 17.162439 
L 50.883575 16.696979 
L 51.269561 16.760506 
L 52.684843 17.318411 
L 53.328153 17.141052 
L 54.164456 16.916988 
L 54.679105 17.074344 
L 55.708401 17.48107 
L 56.28738 17.303896 
L 56.866359 17.1736 
L 57.316676 17.37618 
L 58.024317 17.686004 
L 58.410303 17.576109 
L 58.989282 17.400652 
L 59.954247 17.431139 
L 60.854881 17.261649 
L 61.819846 17.451658 
L 62.205832 17.377833 
L 63.106466 16.985518 
L 64.007101 17.274491 
L 64.521749 17.283208 
L 65.486714 17.082557 
L 66.130024 17.112855 
L 67.223651 16.727482 
L 67.673968 17.064755 
L 68.059954 17.203267 
L 68.381609 17.03936 
L 69.282243 16.492472 
L 70.054215 16.607087 
L 70.504532 16.846599 
L 71.598159 17.484508 
L 72.627456 17.778827 
L 72.949111 17.546467 
L 73.656752 16.976197 
L 74.042738 16.84513 
L 74.493055 17.066485 
L 74.943372 17.464686 
L 75.329358 17.763012 
L 75.586682 17.742401 
L 75.908337 17.42553 
L 76.422985 16.869255 
L 77.001964 16.752393 
L 77.645274 16.923002 
L 78.095591 16.87272 
L 79.124887 16.668883 
L 79.832528 16.719312 
L 80.218514 17.024118 
L 80.733162 17.36915 
L 81.183479 17.334269 
L 81.698128 17.329507 
L 83.11341 17.555729 
L 83.821051 17.2814 
L 84.593023 17.008514 
L 85.815312 16.510804 
L 86.201298 16.76792 
L 86.908939 17.283773 
L 87.423587 17.347871 
L 88.066897 17.163447 
L 89.482179 16.688311 
L 89.932496 16.841326 
L 91.669434 17.705842 
L 92.184082 17.611525 
L 92.956054 17.156564 
L 93.921019 16.648865 
L 94.435667 16.632331 
L 95.464963 16.902148 
L 96.108273 17.292864 
L 96.751583 17.63797 
L 97.2019 17.624966 
L 97.84521 17.354278 
L 99.324824 16.642613 
L 99.968134 16.666711 
L 102.026726 16.945819 
L 107.880847 17.402264 
L 109.29613 17.137472 
L 110.196764 16.826565 
L 110.840074 16.632098 
L 111.22606 16.777211 
L 112.191025 17.264707 
L 112.641342 17.157142 
L 113.670638 16.800652 
L 114.120955 16.944337 
L 115.278913 17.540049 
L 115.857892 17.440941 
L 116.629864 17.354554 
L 117.273175 17.537336 
L 118.109478 17.865912 
L 118.431133 17.711432 
L 119.653422 16.790377 
L 120.16807 17.004975 
L 121.261697 17.514572 
L 121.712014 17.13533 
L 122.033669 16.984848 
L 122.355324 17.095401 
L 122.74131 17.213888 
L 123.770606 17.14686 
L 124.478247 17.45108 
L 124.928564 17.293813 
L 126.150854 16.658575 
L 126.472509 16.819931 
L 127.308812 17.404386 
L 128.016453 17.201545 
L 129.174411 16.712911 
L 129.624728 16.82151 
L 130.075045 17.191047 
L 130.525362 17.52033 
L 130.847017 17.471699 
L 131.361665 17.123609 
L 132.069306 16.565893 
L 132.519623 16.653909 
L 132.905609 16.652834 
L 133.741912 16.415782 
L 134.513884 16.797449 
L 135.993498 16.808013 
L 136.443815 16.874054 
L 136.958463 16.869143 
L 137.344449 16.864188 
L 137.730435 16.563457 
L 138.309414 16.146496 
L 138.6954 16.084791 
L 139.017055 16.222321 
L 139.724696 16.662324 
L 140.496668 16.483133 
L 141.139978 16.919505 
L 141.847619 17.500816 
L 143.005577 17.331042 
L 143.520225 17.260063 
L 144.42086 17.328669 
L 145.321494 17.307733 
L 146.35079 17.439438 
L 147.701741 17.194455 
L 151.046953 17.097799 
L 152.976884 16.781782 
L 153.877518 16.865479 
L 154.64949 17.137897 
L 155.807448 17.62589 
L 156.450758 17.583075 
L 157.544385 17.242514 
L 158.573681 16.872286 
L 159.15266 16.98319 
L 160.181956 17.18096 
L 160.825266 17.072473 
L 162.176218 16.704235 
L 162.690866 16.879128 
L 164.041817 17.504628 
L 164.87812 17.594337 
L 166.293402 17.489485 
L 168.09467 17.225139 
L 169.574283 17.311738 
L 170.732242 17.072302 
L 171.8902 16.850104 
L 172.726503 16.923264 
L 173.434144 17.184501 
L 174.399109 17.619205 
L 174.785095 17.555552 
L 175.235412 17.182711 
L 175.814391 16.727593 
L 176.136046 16.753204 
L 176.650694 17.101146 
L 177.422666 17.592224 
L 177.808652 17.540264 
L 178.387631 17.135264 
L 178.902279 16.883261 
L 179.288266 16.933761 
L 179.802914 17.266709 
L 180.446224 17.661087 
L 180.896541 17.649334 
L 181.47552 17.374418 
L 182.054499 17.158621 
L 182.633478 17.201841 
L 183.341119 17.514596 
L 184.04876 17.74587 
L 184.627739 17.71886 
L 186.043021 17.399264 
L 186.622 17.120456 
L 186.879324 17.231737 
L 187.393972 17.538141 
L 187.715627 17.334982 
L 188.037282 17.182396 
L 189.195241 17.116406 
L 190.160206 16.903505 
L 190.803516 17.069625 
L 191.125171 16.901613 
L 191.639819 16.575235 
L 192.025805 16.607755 
L 193.569749 17.257423 
L 193.891404 17.37799 
L 194.470383 17.468955 
L 196.335982 18.031718 
L 196.721968 17.874936 
L 197.300948 17.463919 
L 197.686934 17.574955 
L 198.137251 17.65398 
L 198.523237 17.767232 
L 198.844892 17.795217 
L 200.00285 17.120171 
L 200.453167 16.7887 
L 201.482463 16.481246 
L 202.833414 16.87565 
L 203.669717 16.806226 
L 204.055703 16.974278 
L 204.699013 17.286047 
L 205.084999 17.282057 
L 205.856971 16.979593 
L 206.564613 17.545119 
L 207.079261 17.834284 
L 207.65824 17.88455 
L 208.30155 17.713589 
L 208.880529 17.58971 
L 209.909825 17.450339 
L 210.553135 17.356855 
L 211.582431 17.506388 
L 212.097079 17.472997 
L 213.769685 17.914479 
L 214.220002 17.938888 
L 216.857574 17.569633 
L 218.015532 17.158791 
L 218.851835 17.153616 
L 220.267117 17.268378 
L 220.974758 16.921403 
L 221.939723 16.429061 
L 222.454371 16.500706 
L 223.03335 16.821908 
L 223.805323 17.243662 
L 224.448633 17.281951 
L 225.156274 17.07202 
L 225.992577 16.84917 
L 226.700218 16.907075 
L 229.273458 17.348722 
L 230.109761 17.057081 
L 231.010395 16.8001 
L 231.97536 16.839712 
L 232.940326 16.841245 
L 235.063249 16.455941 
L 236.028214 16.622861 
L 236.349869 16.734184 
L 236.349869 16.734184 
" clip-path="url(#p791d21606e)" style="fill: none; stroke: #2ca02c; stroke-width: 0.5; stroke-linecap: square"/>
   </g>
   <g id="patch_3">
    <path d="M 33.707196 202.559296 
L 33.707196 7.2 
" style="fill: none; stroke: #000000; stroke-width: 0.8; stroke-linejoin: miter; stroke-linecap: square"/>
   </g>
   <g id="patch_4">
    <path d="M 245.99952 202.559296 
L 245.99952 7.2 
" style="fill: none; stroke: #000000; stroke-width: 0.8; stroke-linejoin: miter; stroke-linecap: square"/>
   </g>
   <g id="patch_5">
    <path d="M 33.707196 202.559296 
L 245.99952 202.559296 
" style="fill: none; stroke: #000000; stroke-width: 0.8; stroke-linejoin: miter; stroke-linecap: square"/>
   </g>
   <g id="patch_6">
    <path d="M 33.707196 7.2 
L 245.99952 7.2 
" style="fill: none; stroke: #000000; stroke-width: 0.8; stroke-linejoin: miter; stroke-linecap: square"/>
   </g>
   <g id="legend_1">
    <g id="patch_7">
     <path d="M 193.792605 198.059296 
L 239.69952 198.059296 
Q 241.49952 198.059296 241.49952 196.259296 
L 241.49952 156.760168 
Q 241.49952 154.960168 239.69952 154.960168 
L 193.792605 154.960168 
Q 191.992605 154.960168 191.992605 156.760168 
L 191.992605 196.259296 
Q 191.992605 198.059296 193.792605 198.059296 
z
" style="fill: #ffffff; opacity: 0.8; stroke: #cccccc; stroke-width: 0.24; stroke-linejoin: miter"/>
    </g>
    <g id="line2d_18">
     <path d="M 195.592605 162.13495 
L 204.592605 162.13495 
L 213.592605 162.13495 
" style="fill: none; stroke: #1f77b4; stroke-width: 0.5; stroke-linecap: square"/>
    </g>
    <g id="text_16">
     <!-- $\langle \sigma_z\rangle$ -->
     <g transform="translate(220.792605 165.28495) scale(0.09 -0.09)">
      <defs>
       <path id="CMSY10-68" d="M 2099 4557 
C 2131 4627 2131 4640 2131 4672 
C 2131 4742 2074 4800 2003 4800 
C 1946 4800 1901 4768 1856 4653 
L 736 1715 
C 723 1677 704 1638 704 1600 
C 704 1581 704 1568 736 1491 
L 1856 -1446 
C 1882 -1517 1914 -1600 2003 -1600 
C 2074 -1600 2131 -1542 2131 -1472 
C 2131 -1453 2131 -1440 2099 -1370 
L 966 1600 
L 2099 4557 
z
" transform="scale(0.015625)"/>
       <path id="CMMI12-1b" d="M 3251 2408 
C 3334 2408 3546 2408 3546 2612 
C 3546 2752 3424 2752 3309 2752 
L 1894 2752 
C 934 2752 243 1686 243 932 
C 243 390 595 -64 1171 -64 
C 1926 -64 2752 747 2752 1705 
C 2752 1954 2694 2196 2541 2408 
L 3251 2408 
z
M 1178 64 
C 851 64 614 313 614 754 
C 614 1137 845 2408 1786 2408 
C 2061 2408 2368 2274 2368 1781 
C 2368 1558 2266 1021 2042 652 
C 1811 275 1466 64 1178 64 
z
" transform="scale(0.015625)"/>
       <path id="CMMI12-7a" d="M 813 486 
C 1088 803 1312 1004 1632 1296 
C 2016 1632 2182 1793 2272 1891 
C 2720 2338 2944 2713 2944 2764 
C 2944 2816 2893 2816 2880 2816 
C 2835 2816 2822 2793 2790 2750 
C 2630 2494 2477 2367 2310 2367 
C 2176 2367 2106 2421 1984 2565 
C 1850 2715 1741 2816 1555 2816 
C 1088 2816 806 2257 806 2128 
C 806 2108 813 2068 870 2068 
C 922 2068 928 2091 947 2133 
C 1056 2372 1363 2414 1485 2414 
C 1619 2414 1747 2376 1882 2327 
C 2125 2240 2227 2240 2291 2240 
C 2336 2240 2362 2240 2394 2246 
C 2182 1994 1837 1683 1549 1418 
L 902 816 
C 512 415 275 33 275 -12 
C 275 -51 307 -64 346 -64 
C 384 -64 390 -57 435 14 
C 538 163 742 384 979 384 
C 1114 384 1178 342 1306 193 
C 1427 61 1536 -64 1741 -64 
C 2368 -64 2726 732 2726 876 
C 2726 903 2720 942 2656 942 
C 2605 942 2598 917 2579 855 
C 2438 488 2061 338 1811 338 
C 1677 338 1549 376 1414 425 
C 1158 512 1088 512 1005 512 
C 941 512 870 512 813 486 
z
" transform="scale(0.015625)"/>
       <path id="CMSY10-69" d="M 1747 1491 
C 1779 1568 1779 1581 1779 1600 
C 1779 1619 1779 1632 1747 1709 
L 627 4653 
C 589 4762 550 4800 480 4800 
C 410 4800 352 4742 352 4672 
C 352 4653 352 4640 384 4570 
L 1517 1600 
L 384 -1357 
C 352 -1427 352 -1440 352 -1472 
C 352 -1542 410 -1600 480 -1600 
C 563 -1600 589 -1536 614 -1472 
L 1747 1491 
z
" transform="scale(0.015625)"/>
      </defs>
      <use xlink:href="#CMSY10-68" transform="scale(0.996264)"/>
      <use xlink:href="#CMMI12-1b" transform="translate(38.743734 0) scale(0.996264)"/>
      <use xlink:href="#CMMI12-7a" transform="translate(94.189195 -14.943915) scale(0.697382)"/>
      <use xlink:href="#CMSY10-69" transform="translate(129.51575 0) scale(0.996264)"/>
     </g>
    </g>
    <g id="line2d_19">
     <path d="M 195.592605 175.601326 
L 204.592605 175.601326 
L 213.592605 175.601326 
" style="fill: none; stroke: #ff7f0e; stroke-width: 0.5; stroke-linecap: square"/>
    </g>
    <g id="text_17">
     <!-- $\langle \sigma_x\rangle$ -->
     <g transform="translate(220.792605 178.751326) scale(0.09 -0.09)">
      <defs>
       <path id="CMMI12-78" d="M 3034 2606 
C 2829 2567 2752 2414 2752 2293 
C 2752 2139 2874 2088 2963 2088 
C 3155 2088 3290 2254 3290 2427 
C 3290 2695 2982 2816 2714 2816 
C 2323 2816 2106 2433 2048 2312 
C 1901 2816 1504 2816 1389 2816 
C 736 2816 390 1980 390 1839 
C 390 1814 416 1782 461 1782 
C 512 1782 525 1820 538 1846 
C 755 2555 1184 2689 1370 2689 
C 1658 2689 1715 2420 1715 2267 
C 1715 2127 1677 1980 1600 1673 
L 1382 798 
C 1286 415 1101 64 762 64 
C 730 64 570 64 435 147 
C 666 192 717 383 717 460 
C 717 588 621 664 499 664 
C 346 664 179 530 179 326 
C 179 57 480 -64 755 -64 
C 1062 -64 1280 179 1414 441 
C 1517 64 1837 -64 2074 -64 
C 2726 -64 3072 773 3072 913 
C 3072 945 3046 971 3008 971 
C 2950 971 2944 939 2925 888 
C 2752 326 2381 64 2093 64 
C 1869 64 1747 230 1747 492 
C 1747 632 1773 734 1875 1156 
L 2099 2024 
C 2195 2408 2413 2689 2707 2689 
C 2720 2689 2899 2689 3034 2606 
z
" transform="scale(0.015625)"/>
      </defs>
      <use xlink:href="#CMSY10-68" transform="scale(0.996264)"/>
      <use xlink:href="#CMMI12-1b" transform="translate(38.743734 0) scale(0.996264)"/>
      <use xlink:href="#CMMI12-78" transform="translate(94.189195 -14.943915) scale(0.697382)"/>
      <use xlink:href="#CMSY10-69" transform="translate(133.490986 0) scale(0.996264)"/>
     </g>
    </g>
    <g id="line2d_20">
     <path d="M 195.592605 189.067702 
L 204.592605 189.067702 
L 213.592605 189.067702 
" style="fill: none; stroke: #2ca02c; stroke-width: 0.5; stroke-linecap: square"/>
    </g>
    <g id="text_18">
     <!-- $\langle \sigma_y\rangle$ -->
     <g transform="translate(220.792605 192.217702) scale(0.09 -0.09)">
      <defs>
       <path id="CMMI12-79" d="M 1683 -700 
C 1510 -939 1261 -1152 947 -1152 
C 870 -1152 563 -1152 467 -889 
C 486 -895 518 -895 531 -895 
C 723 -895 851 -729 851 -582 
C 851 -435 730 -384 634 -384 
C 531 -384 307 -458 307 -759 
C 307 -1071 582 -1286 947 -1286 
C 1587 -1286 2234 -700 2413 6 
L 3040 2485 
C 3046 2517 3059 2556 3059 2594 
C 3059 2689 2982 2753 2886 2753 
C 2829 2753 2694 2727 2643 2535 
L 2170 658 
C 2138 543 2138 530 2086 460 
C 1958 281 1747 64 1440 64 
C 1082 64 1050 415 1050 588 
C 1050 952 1222 1443 1395 1903 
C 1466 2088 1504 2178 1504 2305 
C 1504 2574 1312 2816 998 2816 
C 410 2816 173 1890 173 1839 
C 173 1814 198 1782 243 1782 
C 301 1782 307 1807 333 1897 
C 486 2433 730 2689 979 2689 
C 1037 2689 1146 2689 1146 2478 
C 1146 2312 1075 2127 979 1884 
C 666 1047 666 837 666 683 
C 666 77 1101 -64 1421 -64 
C 1606 -64 1837 -6 2061 230 
L 2067 224 
C 1971 -147 1907 -392 1683 -700 
z
" transform="scale(0.015625)"/>
      </defs>
      <use xlink:href="#CMSY10-68" transform="scale(0.996264)"/>
      <use xlink:href="#CMMI12-1b" transform="translate(38.743734 0) scale(0.996264)"/>
      <use xlink:href="#CMMI12-79" transform="translate(94.189195 -14.943915) scale(0.697382)"/>
      <use xlink:href="#CMSY10-69" transform="translate(130.484301 0) scale(0.996264)"/>
     </g>
    </g>
   </g>
  </g>
 </g>
 <defs>
  <clipPath id="p791d21606e">
   <rect x="33.707196" y="7.2" width="212.292324" height="195.359296"/>
  </clipPath>
 </defs>
</svg>
