<?xml version="1.0" encoding="utf-8" standalone="no"?>
<!DOCTYPE svg PUBLIC "-//W3C//DTD SVG 1.1//EN"
  "http://www.w3.org/Graphics/SVG/1.1/DTD/svg11.dtd">
<svg xmlns:xlink="http://www.w3.org/1999/xlink" width="253.19952pt" height="238.79952pt" viewBox="0 0 253.19952 238.79952" xmlns="http://www.w3.org/2000/svg" version="1.1">
 <metadata>
  <rdf:RDF xmlns:dc="http://purl.org/dc/elements/1.1/" xmlns:cc="http://creativecommons.org/ns#" xmlns:rdf="http://www.w3.org/1999/02/22-rdf-syntax-ns#">
   <cc:Work>
    <dc:type rdf:resource="http://purl.org/dc/dcmitype/StillImage"/>
    <dc:date>1980-01-01T00:00:00+00:00</dc:date>
    <dc:format>image/svg+xml</dc:format>
    <dc:creator>
     <cc:Agent>
      <dc:title>Matplotlib v3.6.2, https://matplotlib.org/</dc:title>
     </cc:Agent>
    </dc:creator>
   </cc:Work>
  </rdf:RDF>
 </metadata>
 <defs>
  <style type="text/css">*{stroke-linejoin: round; stroke-linecap: butt}</style>
 </defs>
 <g id="figure_1">
  <g id="patch_1">
   <path d="M 0 238.79952 
L 253.19952 238.79952 
L 253.19952 0 
L 0 0 
z
" style="fill: #ffffff"/>
  </g>
  <g id="axes_1">
   <g id="patch_2">
    <path d="M 33.707196 202.559296 
L 245.99952 202.559296 
L 245.99952 7.2 
L 33.707196 7.2 
z
" style="fill: #ffffff"/>
   </g>
   <g id="matplotlib.axis_1">
    <g id="xtick_1">
     <g id="line2d_1">
      <defs>
       <path id="m1251e7354a" d="M 0 0 
L 0 3.5 
" style="stroke: #000000; stroke-width: 0.8"/>
      </defs>
      <g>
       <use xlink:href="#m1251e7354a" x="43.356847" y="202.559296" style="stroke: #000000; stroke-width: 0.8"/>
      </g>
     </g>
     <g id="text_1">
      <!-- $\mathdefault{0}$ -->
      <g transform="translate(41.239756 217.194098) scale(0.08 -0.08)">
       <defs>
        <path id="CMR17-30" d="M 2688 2025 
C 2688 2416 2682 3080 2413 3591 
C 2176 4039 1798 4198 1466 4198 
C 1158 4198 768 4058 525 3597 
C 269 3118 243 2524 243 2025 
C 243 1661 250 1106 448 619 
C 723 -39 1216 -128 1466 -128 
C 1760 -128 2208 -7 2470 600 
C 2662 1042 2688 1559 2688 2025 
z
M 1466 -26 
C 1056 -26 813 325 723 812 
C 653 1188 653 1738 653 2096 
C 653 2588 653 2997 736 3387 
C 858 3929 1216 4096 1466 4096 
C 1728 4096 2067 3923 2189 3400 
C 2272 3036 2278 2607 2278 2096 
C 2278 1680 2278 1169 2202 792 
C 2067 95 1690 -26 1466 -26 
z
" transform="scale(0.015625)"/>
       </defs>
       <use xlink:href="#CMR17-30" transform="scale(0.996264)"/>
      </g>
     </g>
    </g>
    <g id="xtick_2">
     <g id="line2d_2">
      <g>
       <use xlink:href="#m1251e7354a" x="70.161434" y="202.559296" style="stroke: #000000; stroke-width: 0.8"/>
      </g>
     </g>
     <g id="text_2">
      <!-- $\mathdefault{25}$ -->
      <g transform="translate(65.927251 217.194098) scale(0.08 -0.08)">
       <defs>
        <path id="CMR17-32" d="M 2669 989 
L 2554 989 
C 2490 536 2438 459 2413 420 
C 2381 369 1920 369 1830 369 
L 602 369 
C 832 619 1280 1072 1824 1597 
C 2214 1967 2669 2402 2669 3035 
C 2669 3790 2067 4224 1395 4224 
C 691 4224 262 3604 262 3030 
C 262 2780 448 2748 525 2748 
C 589 2748 781 2787 781 3010 
C 781 3207 614 3264 525 3264 
C 486 3264 448 3258 422 3245 
C 544 3790 915 4058 1306 4058 
C 1862 4058 2227 3617 2227 3035 
C 2227 2479 1901 2000 1536 1584 
L 262 146 
L 262 0 
L 2515 0 
L 2669 989 
z
" transform="scale(0.015625)"/>
        <path id="CMR17-35" d="M 730 3692 
C 794 3666 1056 3584 1325 3584 
C 1920 3584 2246 3911 2432 4100 
C 2432 4157 2432 4192 2394 4192 
C 2387 4192 2374 4192 2323 4163 
C 2099 4058 1837 3973 1517 3973 
C 1325 3973 1037 3999 723 4139 
C 653 4171 640 4171 634 4171 
C 602 4171 595 4164 595 4037 
L 595 2203 
C 595 2089 595 2057 659 2057 
C 691 2057 704 2070 736 2114 
C 941 2401 1222 2522 1542 2522 
C 1766 2522 2246 2382 2246 1289 
C 2246 1085 2246 715 2054 421 
C 1894 159 1645 25 1370 25 
C 947 25 518 320 403 814 
C 429 807 480 795 506 795 
C 589 795 749 840 749 1038 
C 749 1210 627 1280 506 1280 
C 358 1280 262 1190 262 1011 
C 262 454 704 -128 1382 -128 
C 2042 -128 2669 440 2669 1264 
C 2669 2030 2170 2624 1549 2624 
C 1222 2624 947 2503 730 2274 
L 730 3692 
z
" transform="scale(0.015625)"/>
       </defs>
       <use xlink:href="#CMR17-32" transform="scale(0.996264)"/>
       <use xlink:href="#CMR17-35" transform="translate(45.690477 0) scale(0.996264)"/>
      </g>
     </g>
    </g>
    <g id="xtick_3">
     <g id="line2d_3">
      <g>
       <use xlink:href="#m1251e7354a" x="96.96602" y="202.559296" style="stroke: #000000; stroke-width: 0.8"/>
      </g>
     </g>
     <g id="text_3">
      <!-- $\mathdefault{50}$ -->
      <g transform="translate(92.731837 217.194098) scale(0.08 -0.08)">
       <use xlink:href="#CMR17-35" transform="scale(0.996264)"/>
       <use xlink:href="#CMR17-30" transform="translate(45.690477 0) scale(0.996264)"/>
      </g>
     </g>
    </g>
    <g id="xtick_4">
     <g id="line2d_4">
      <g>
       <use xlink:href="#m1251e7354a" x="123.770606" y="202.559296" style="stroke: #000000; stroke-width: 0.8"/>
      </g>
     </g>
     <g id="text_4">
      <!-- $\mathdefault{75}$ -->
      <g transform="translate(119.536423 217.194098) scale(0.08 -0.08)">
       <defs>
        <path id="CMR17-37" d="M 2886 3941 
L 2886 4081 
L 1382 4081 
C 634 4081 621 4165 595 4288 
L 480 4288 
L 294 3094 
L 410 3094 
C 429 3215 474 3540 550 3661 
C 589 3712 1062 3712 1171 3712 
L 2579 3712 
L 1869 2661 
C 1395 1954 1069 999 1069 165 
C 1069 89 1069 -128 1299 -128 
C 1530 -128 1530 89 1530 171 
L 1530 465 
C 1530 1508 1709 2196 2003 2636 
L 2886 3941 
z
" transform="scale(0.015625)"/>
       </defs>
       <use xlink:href="#CMR17-37" transform="scale(0.996264)"/>
       <use xlink:href="#CMR17-35" transform="translate(45.690477 0) scale(0.996264)"/>
      </g>
     </g>
    </g>
    <g id="xtick_5">
     <g id="line2d_5">
      <g>
       <use xlink:href="#m1251e7354a" x="150.575193" y="202.559296" style="stroke: #000000; stroke-width: 0.8"/>
      </g>
     </g>
     <g id="text_5">
      <!-- $\mathdefault{100}$ -->
      <g transform="translate(144.223918 217.194098) scale(0.08 -0.08)">
       <defs>
        <path id="CMR17-31" d="M 1702 4058 
C 1702 4192 1696 4192 1606 4192 
C 1357 3916 979 3827 621 3827 
C 602 3827 570 3827 563 3808 
C 557 3795 557 3782 557 3648 
C 755 3648 1088 3686 1344 3839 
L 1344 461 
C 1344 236 1331 160 781 160 
L 589 160 
L 589 0 
C 896 0 1216 0 1523 0 
C 1830 0 2150 0 2458 0 
L 2458 160 
L 2266 160 
C 1715 160 1702 230 1702 458 
L 1702 4058 
z
" transform="scale(0.015625)"/>
       </defs>
       <use xlink:href="#CMR17-31" transform="scale(0.996264)"/>
       <use xlink:href="#CMR17-30" transform="translate(45.690477 0) scale(0.996264)"/>
       <use xlink:href="#CMR17-30" transform="translate(91.380954 0) scale(0.996264)"/>
      </g>
     </g>
    </g>
    <g id="xtick_6">
     <g id="line2d_6">
      <g>
       <use xlink:href="#m1251e7354a" x="177.379779" y="202.559296" style="stroke: #000000; stroke-width: 0.8"/>
      </g>
     </g>
     <g id="text_6">
      <!-- $\mathdefault{125}$ -->
      <g transform="translate(171.028505 217.194098) scale(0.08 -0.08)">
       <use xlink:href="#CMR17-31" transform="scale(0.996264)"/>
       <use xlink:href="#CMR17-32" transform="translate(45.690477 0) scale(0.996264)"/>
       <use xlink:href="#CMR17-35" transform="translate(91.380954 0) scale(0.996264)"/>
      </g>
     </g>
    </g>
    <g id="xtick_7">
     <g id="line2d_7">
      <g>
       <use xlink:href="#m1251e7354a" x="204.184365" y="202.559296" style="stroke: #000000; stroke-width: 0.8"/>
      </g>
     </g>
     <g id="text_7">
      <!-- $\mathdefault{150}$ -->
      <g transform="translate(197.833091 217.194098) scale(0.08 -0.08)">
       <use xlink:href="#CMR17-31" transform="scale(0.996264)"/>
       <use xlink:href="#CMR17-35" transform="translate(45.690477 0) scale(0.996264)"/>
       <use xlink:href="#CMR17-30" transform="translate(91.380954 0) scale(0.996264)"/>
      </g>
     </g>
    </g>
    <g id="xtick_8">
     <g id="line2d_8">
      <g>
       <use xlink:href="#m1251e7354a" x="230.988952" y="202.559296" style="stroke: #000000; stroke-width: 0.8"/>
      </g>
     </g>
     <g id="text_8">
      <!-- $\mathdefault{175}$ -->
      <g transform="translate(224.637677 217.194098) scale(0.08 -0.08)">
       <use xlink:href="#CMR17-31" transform="scale(0.996264)"/>
       <use xlink:href="#CMR17-37" transform="translate(45.690477 0) scale(0.996264)"/>
       <use xlink:href="#CMR17-35" transform="translate(91.380954 0) scale(0.996264)"/>
      </g>
     </g>
    </g>
    <g id="text_9">
     <!-- $\tau$ -->
     <g transform="translate(137.675756 229.662342) scale(0.1 -0.1)">
      <defs>
       <path id="CMMI12-1c" d="M 1837 2408 
L 2899 2408 
C 2982 2408 3194 2408 3194 2612 
C 3194 2752 3072 2752 2957 2752 
L 1197 2752 
C 1050 2752 832 2752 538 2440 
C 371 2255 166 1917 166 1879 
C 166 1841 198 1828 237 1828 
C 282 1828 288 1847 320 1885 
C 653 2408 986 2408 1146 2408 
L 1677 2408 
L 1011 223 
C 979 127 979 114 979 95 
C 979 25 1024 -64 1152 -64 
C 1350 -64 1382 108 1402 203 
L 1837 2408 
z
" transform="scale(0.015625)"/>
      </defs>
      <use xlink:href="#CMMI12-1c" transform="scale(0.996264)"/>
     </g>
    </g>
   </g>
   <g id="matplotlib.axis_2">
    <g id="ytick_1">
     <g id="line2d_9">
      <defs>
       <path id="m978ac86f6d" d="M 0 0 
L -3.5 0 
" style="stroke: #000000; stroke-width: 0.8"/>
      </defs>
      <g>
       <use xlink:href="#m978ac86f6d" x="33.707196" y="193.679328" style="stroke: #000000; stroke-width: 0.8"/>
      </g>
     </g>
     <g id="text_10">
      <!-- $\mathdefault{−1.0}$ -->
      <g transform="translate(7.2 196.446729) scale(0.08 -0.08)">
       <defs>
        <path id="CMSY10-0" d="M 4218 1472 
C 4326 1472 4442 1472 4442 1600 
C 4442 1728 4326 1728 4218 1728 
L 755 1728 
C 646 1728 531 1728 531 1600 
C 531 1472 646 1472 755 1472 
L 4218 1472 
z
" transform="scale(0.015625)"/>
        <path id="CMMI12-3a" d="M 1178 307 
C 1178 492 1024 619 870 619 
C 685 619 557 466 557 313 
C 557 128 710 0 864 0 
C 1050 0 1178 153 1178 307 
z
" transform="scale(0.015625)"/>
       </defs>
       <use xlink:href="#CMSY10-0" transform="scale(0.996264)"/>
       <use xlink:href="#CMR17-31" transform="translate(77.487468 0) scale(0.996264)"/>
       <use xlink:href="#CMMI12-3a" transform="translate(123.177945 0) scale(0.996264)"/>
       <use xlink:href="#CMR17-30" transform="translate(150.275122 0) scale(0.996264)"/>
      </g>
     </g>
    </g>
    <g id="ytick_2">
     <g id="line2d_10">
      <g>
       <use xlink:href="#m978ac86f6d" x="33.707196" y="158.376774" style="stroke: #000000; stroke-width: 0.8"/>
      </g>
     </g>
     <g id="text_11">
      <!-- $\mathdefault{−0.8}$ -->
      <g transform="translate(7.2 161.144175) scale(0.08 -0.08)">
       <defs>
        <path id="CMR17-38" d="M 1741 2264 
C 2144 2467 2554 2773 2554 3263 
C 2554 3841 1990 4179 1472 4179 
C 890 4179 378 3759 378 3180 
C 378 3021 416 2747 666 2505 
C 730 2442 998 2251 1171 2130 
C 883 1983 211 1634 211 934 
C 211 279 838 -128 1459 -128 
C 2144 -128 2720 362 2720 1010 
C 2720 1590 2330 1857 2074 2029 
L 1741 2264 
z
M 902 2822 
C 851 2854 595 3051 595 3351 
C 595 3739 998 4032 1459 4032 
C 1965 4032 2336 3676 2336 3262 
C 2336 2669 1670 2331 1638 2331 
C 1632 2331 1626 2331 1574 2370 
L 902 2822 
z
M 2080 1519 
C 2176 1449 2483 1240 2483 851 
C 2483 381 2010 25 1472 25 
C 890 25 448 438 448 940 
C 448 1443 838 1862 1280 2060 
L 2080 1519 
z
" transform="scale(0.015625)"/>
       </defs>
       <use xlink:href="#CMSY10-0" transform="scale(0.996264)"/>
       <use xlink:href="#CMR17-30" transform="translate(77.487468 0) scale(0.996264)"/>
       <use xlink:href="#CMMI12-3a" transform="translate(123.177945 0) scale(0.996264)"/>
       <use xlink:href="#CMR17-38" transform="translate(150.275122 0) scale(0.996264)"/>
      </g>
     </g>
    </g>
    <g id="ytick_3">
     <g id="line2d_11">
      <g>
       <use xlink:href="#m978ac86f6d" x="33.707196" y="123.07422" style="stroke: #000000; stroke-width: 0.8"/>
      </g>
     </g>
     <g id="text_12">
      <!-- $\mathdefault{−0.6}$ -->
      <g transform="translate(7.2 125.841621) scale(0.08 -0.08)">
       <defs>
        <path id="CMR17-36" d="M 678 2176 
C 678 3690 1395 4032 1811 4032 
C 1946 4032 2272 4009 2400 3776 
C 2298 3776 2106 3776 2106 3553 
C 2106 3381 2246 3323 2336 3323 
C 2394 3323 2566 3348 2566 3560 
C 2566 3954 2246 4179 1805 4179 
C 1043 4179 243 3390 243 1984 
C 243 253 966 -128 1478 -128 
C 2099 -128 2688 427 2688 1283 
C 2688 2081 2170 2662 1517 2662 
C 1126 2662 838 2407 678 1960 
L 678 2176 
z
M 1478 25 
C 691 25 691 1200 691 1436 
C 691 1896 909 2560 1504 2560 
C 1613 2560 1926 2560 2138 2120 
C 2253 1870 2253 1609 2253 1289 
C 2253 944 2253 690 2118 434 
C 1978 171 1773 25 1478 25 
z
" transform="scale(0.015625)"/>
       </defs>
       <use xlink:href="#CMSY10-0" transform="scale(0.996264)"/>
       <use xlink:href="#CMR17-30" transform="translate(77.487468 0) scale(0.996264)"/>
       <use xlink:href="#CMMI12-3a" transform="translate(123.177945 0) scale(0.996264)"/>
       <use xlink:href="#CMR17-36" transform="translate(150.275122 0) scale(0.996264)"/>
      </g>
     </g>
    </g>
    <g id="ytick_4">
     <g id="line2d_12">
      <g>
       <use xlink:href="#m978ac86f6d" x="33.707196" y="87.771666" style="stroke: #000000; stroke-width: 0.8"/>
      </g>
     </g>
     <g id="text_13">
      <!-- $\mathdefault{−0.4}$ -->
      <g transform="translate(7.2 90.539067) scale(0.08 -0.08)">
       <defs>
        <path id="CMR17-34" d="M 2150 4122 
C 2150 4256 2144 4256 2029 4256 
L 128 1254 
L 128 1088 
L 1779 1088 
L 1779 457 
C 1779 224 1766 160 1318 160 
L 1197 160 
L 1197 0 
C 1402 0 1747 0 1965 0 
C 2182 0 2528 0 2733 0 
L 2733 160 
L 2611 160 
C 2163 160 2150 224 2150 457 
L 2150 1088 
L 2803 1088 
L 2803 1254 
L 2150 1254 
L 2150 4122 
z
M 1798 3703 
L 1798 1254 
L 256 1254 
L 1798 3703 
z
" transform="scale(0.015625)"/>
       </defs>
       <use xlink:href="#CMSY10-0" transform="scale(0.996264)"/>
       <use xlink:href="#CMR17-30" transform="translate(77.487468 0) scale(0.996264)"/>
       <use xlink:href="#CMMI12-3a" transform="translate(123.177945 0) scale(0.996264)"/>
       <use xlink:href="#CMR17-34" transform="translate(150.275122 0) scale(0.996264)"/>
      </g>
     </g>
    </g>
    <g id="ytick_5">
     <g id="line2d_13">
      <g>
       <use xlink:href="#m978ac86f6d" x="33.707196" y="52.469113" style="stroke: #000000; stroke-width: 0.8"/>
      </g>
     </g>
     <g id="text_14">
      <!-- $\mathdefault{−0.2}$ -->
      <g transform="translate(7.2 55.236513) scale(0.08 -0.08)">
       <use xlink:href="#CMSY10-0" transform="scale(0.996264)"/>
       <use xlink:href="#CMR17-30" transform="translate(77.487468 0) scale(0.996264)"/>
       <use xlink:href="#CMMI12-3a" transform="translate(123.177945 0) scale(0.996264)"/>
       <use xlink:href="#CMR17-32" transform="translate(150.275122 0) scale(0.996264)"/>
      </g>
     </g>
    </g>
    <g id="ytick_6">
     <g id="line2d_14">
      <g>
       <use xlink:href="#m978ac86f6d" x="33.707196" y="17.166559" style="stroke: #000000; stroke-width: 0.8"/>
      </g>
     </g>
     <g id="text_15">
      <!-- $\mathdefault{0.0}$ -->
      <g transform="translate(13.786507 19.93396) scale(0.08 -0.08)">
       <use xlink:href="#CMR17-30" transform="scale(0.996264)"/>
       <use xlink:href="#CMMI12-3a" transform="translate(45.690477 0) scale(0.996264)"/>
       <use xlink:href="#CMR17-30" transform="translate(72.787654 0) scale(0.996264)"/>
      </g>
     </g>
    </g>
   </g>
   <g id="line2d_15">
    <path d="M 43.356847 193.679328 
L 43.421178 193.348173 
L 43.614171 188.8328 
L 44.514805 159.213029 
L 44.83646 155.975478 
L 45.029453 155.576754 
L 45.158115 155.829956 
L 45.415439 157.329614 
L 45.865757 161.936957 
L 46.766391 171.655081 
L 47.152377 173.815091 
L 47.538363 174.791471 
L 47.924349 175.158458 
L 48.374666 175.546651 
L 48.824983 176.309688 
L 50.047272 178.478333 
L 50.754913 179.26046 
L 51.333892 179.532434 
L 51.784209 179.817155 
L 52.427519 180.524075 
L 53.456815 181.963247 
L 53.714139 181.960674 
L 53.907132 181.716803 
L 54.164456 180.909724 
L 54.486111 178.894228 
L 54.872098 174.742146 
L 55.386746 166.141361 
L 56.094387 149.659474 
L 57.702662 111.002507 
L 58.474634 98.353589 
L 59.246606 88.936826 
L 59.954247 82.770025 
L 61.047874 75.359335 
L 61.755515 72.005923 
L 62.72048 68.610854 
L 65.036397 63.044434 
L 66.130024 61.984563 
L 67.480975 61.768697 
L 68.252947 61.341949 
L 69.08925 61.129812 
L 69.668229 61.327177 
L 69.989884 61.129169 
L 70.633194 60.650336 
L 71.919814 60.590254 
L 72.241469 60.294765 
L 72.563125 60.05717 
L 73.849745 59.728494 
L 74.1714 59.623617 
L 74.81471 59.919342 
L 75.329358 60.043798 
L 75.651013 59.831681 
L 76.294323 59.4446 
L 76.74464 59.119027 
L 77.066295 58.586487 
L 77.452281 57.357928 
L 77.966929 54.757695 
L 78.67457 49.814529 
L 79.382211 45.23607 
L 79.896859 43.271619 
L 80.475838 42.136743 
L 81.698128 40.131384 
L 82.598762 39.032717 
L 82.791755 39.050527 
L 83.563727 39.444148 
L 84.142706 39.626308 
L 84.786016 39.740249 
L 85.557988 39.988944 
L 86.201298 40.640046 
L 86.522953 41.327382 
L 86.97327 42.982227 
L 87.487918 45.817444 
L 87.938235 49.758363 
L 88.517214 57.306876 
L 89.353517 71.433565 
L 91.219117 104.404157 
L 92.184082 116.938771 
L 93.020385 125.206814 
L 93.792357 130.71164 
L 94.950315 136.913909 
L 95.657956 139.643821 
L 96.815914 143.122164 
L 97.587886 144.814927 
L 98.295527 145.914892 
L 99.131831 146.852304 
L 100.032465 147.47902 
L 101.061761 148.146761 
L 101.898064 148.57792 
L 103.57067 149.230587 
L 105.178945 149.437655 
L 106.915882 149.538341 
L 107.945178 149.580464 
L 108.331165 149.673671 
L 108.65282 149.983634 
L 108.910144 150.521421 
L 109.231799 151.890083 
L 109.617785 154.77001 
L 110.261095 161.705757 
L 111.033067 169.482267 
L 111.483384 171.840568 
L 111.933701 173.105539 
L 114.313948 177.668837 
L 114.957258 178.412514 
L 117.015851 180.734788 
L 117.787823 181.785372 
L 117.980816 181.822615 
L 118.173809 181.631394 
L 118.431133 180.929982 
L 118.752788 179.152407 
L 119.138774 175.359336 
L 119.589091 168.447804 
L 120.16807 155.925032 
L 122.162331 109.143159 
L 123.062965 94.63134 
L 123.770606 86.982855 
L 124.864233 78.466748 
L 125.636205 73.856728 
L 126.408178 70.707561 
L 128.016453 65.602299 
L 128.46677 64.707264 
L 129.560397 63.15617 
L 130.268038 62.223633 
L 130.782686 61.877802 
L 131.233003 61.685167 
L 131.940644 61.170584 
L 132.648285 60.789546 
L 133.227264 60.622665 
L 133.870574 60.222028 
L 134.642546 59.724777 
L 135.092864 59.784739 
L 135.607512 59.834054 
L 137.601773 59.606463 
L 138.373745 60.245344 
L 138.759731 60.172649 
L 139.403041 59.930244 
L 139.917689 60.043799 
L 140.560999 60.404718 
L 140.818323 60.241874 
L 141.139978 59.675751 
L 141.590295 58.326777 
L 142.104943 56.030992 
L 142.748253 52.162846 
L 143.970543 44.192175 
L 144.42086 42.695898 
L 144.806846 42.083333 
L 146.157797 40.957209 
L 147.122762 40.093828 
L 147.573079 39.665546 
L 147.959065 39.363699 
L 148.473713 38.812475 
L 148.795368 38.820243 
L 149.824664 39.192642 
L 150.21065 39.567323 
L 150.660967 40.371009 
L 151.111284 41.768367 
L 151.561601 43.869687 
L 152.011918 47.162583 
L 152.590898 53.525559 
L 153.234208 63.490261 
L 154.64949 90.016978 
L 155.678786 106.675411 
L 156.643751 118.71594 
L 157.544385 127.200198 
L 158.316357 132.299865 
L 159.281322 137.258002 
L 160.181956 140.547646 
L 161.275583 143.416826 
L 162.30488 145.258071 
L 163.334176 146.587595 
L 164.749458 147.800319 
L 166.679388 148.807431 
L 168.609318 149.045034 
L 169.445621 149.114678 
L 170.925235 149.33698 
L 172.340517 149.75349 
L 172.726503 149.81186 
L 173.048158 150.12834 
L 173.305482 150.758381 
L 173.627137 152.267724 
L 174.013123 155.307568 
L 174.849426 164.469432 
L 175.428405 169.682687 
L 175.878722 171.979718 
L 176.329039 173.185293 
L 178.516293 177.344448 
L 179.159603 178.249239 
L 181.282527 180.568687 
L 182.11883 181.776515 
L 182.311823 181.797627 
L 182.504816 181.610359 
L 182.76214 180.962327 
L 183.019464 179.675459 
L 183.40545 176.24019 
L 183.855767 169.717414 
L 184.499077 156.137145 
L 186.686331 105.475034 
L 187.458303 94.060693 
L 188.294607 85.430563 
L 189.13091 78.996599 
L 190.224537 72.444472 
L 190.867847 69.759134 
L 191.639819 67.47508 
L 192.862108 64.72897 
L 193.63408 63.833612 
L 193.955735 63.852976 
L 194.213059 63.817882 
L 194.534714 63.464465 
L 195.56401 62.061838 
L 196.142989 61.813058 
L 196.721968 61.493337 
L 197.815596 60.746224 
L 198.137251 60.585725 
L 198.909223 59.955282 
L 199.423871 59.869077 
L 199.938519 60.080782 
L 200.453167 60.153668 
L 201.096477 59.943299 
L 201.546794 59.880125 
L 201.868449 59.805822 
L 202.640421 59.312606 
L 203.155069 59.39339 
L 203.669717 59.482501 
L 204.50602 59.317172 
L 205.084999 59.5088 
L 205.342323 59.310411 
L 205.728309 58.673721 
L 206.178627 57.342508 
L 206.564613 55.279678 
L 207.400916 48.801324 
L 207.979895 45.027428 
L 208.558874 42.753149 
L 209.009191 41.780448 
L 209.716832 40.904747 
L 211.775424 39.457583 
L 212.997713 39.066328 
L 213.512361 39.328944 
L 214.220002 40.048872 
L 214.927644 40.86679 
L 215.377961 41.947409 
L 215.828278 43.692002 
L 216.278595 46.671933 
L 216.793243 51.784892 
L 217.372222 59.967895 
L 218.401518 78.578805 
L 219.881131 104.337492 
L 220.781765 116.133515 
L 221.682399 125.18418 
L 222.518702 131.420023 
L 223.483667 136.78348 
L 224.25564 139.73062 
L 225.027612 141.817595 
L 226.700218 145.293133 
L 227.665183 146.541076 
L 229.273458 147.850179 
L 231.074726 148.953401 
L 231.782367 149.200727 
L 232.490008 149.283712 
L 233.133319 149.3302 
L 233.969622 149.504269 
L 234.677263 149.611109 
L 235.963883 149.541429 
L 236.349869 149.502425 
L 236.349869 149.502425 
" clip-path="url(#p03799ffd79)" style="fill: none; stroke: #1f77b4; stroke-width: 0.5; stroke-linecap: square"/>
   </g>
   <g id="line2d_16">
    <path d="M 43.356847 17.166559 
L 44.064488 16.868955 
L 44.965122 16.800901 
L 50.690582 16.924364 
L 55.386746 16.845216 
L 58.088648 16.68719 
L 66.258686 16.661766 
L 97.84521 16.765446 
L 120.618387 16.762155 
L 123.191627 16.677998 
L 136.701139 16.661028 
L 166.100409 16.773894 
L 179.738583 16.921155 
L 184.04876 16.844889 
L 186.750662 16.687413 
L 195.178024 16.661587 
L 223.162012 16.741217 
L 235.706559 16.777095 
L 236.349869 16.776584 
L 236.349869 16.776584 
" clip-path="url(#p03799ffd79)" style="fill: none; stroke: #ff7f0e; stroke-width: 0.5; stroke-linecap: square"/>
   </g>
   <g id="line2d_17">
    <path d="M 43.356847 17.166559 
L 45.158115 17.270894 
L 47.538363 17.086601 
L 48.63199 17.242189 
L 49.339631 17.115138 
L 49.725617 17.075045 
L 50.626251 17.244131 
L 52.041533 17.207234 
L 52.620512 17.140258 
L 53.070829 17.080534 
L 53.714139 16.923184 
L 54.293118 17.07884 
L 55.258084 17.546632 
L 56.094387 17.244666 
L 56.995021 16.75941 
L 57.381007 16.927238 
L 58.024317 17.200972 
L 58.410303 17.145249 
L 59.246606 16.857226 
L 60.14724 16.796383 
L 61.305198 17.260562 
L 61.691184 17.093032 
L 62.205832 16.861442 
L 62.591818 16.970806 
L 63.042135 17.023543 
L 63.492453 17.170237 
L 64.264425 17.472907 
L 64.843404 17.310138 
L 66.773334 16.865921 
L 67.287982 17.320265 
L 67.80263 17.609376 
L 68.252947 17.638013 
L 68.510271 17.413668 
L 69.217912 16.691725 
L 69.475236 16.667689 
L 69.796891 16.923749 
L 70.440201 17.532226 
L 70.826187 17.575581 
L 71.276504 17.427866 
L 72.3058 16.608305 
L 72.563125 16.713424 
L 73.013442 17.218702 
L 73.656752 17.89222 
L 73.914076 17.928194 
L 74.1714 17.724722 
L 75.136365 16.479407 
L 75.651013 16.549834 
L 76.229992 16.919482 
L 77.194957 17.435823 
L 78.738901 17.534004 
L 79.382211 17.184746 
L 80.154183 16.867777 
L 80.797493 17.025633 
L 81.82679 17.37384 
L 82.920417 17.754684 
L 84.335699 17.759914 
L 84.979009 17.343594 
L 85.557988 17.034611 
L 87.294925 16.792499 
L 88.25989 16.951268 
L 89.868165 16.904977 
L 91.283448 17.168388 
L 92.119751 16.965188 
L 92.827392 17.082047 
L 93.728026 16.890075 
L 94.242674 16.799245 
L 94.821653 16.648115 
L 95.336301 16.700702 
L 95.722287 16.708478 
L 97.073238 17.221044 
L 99.003168 17.598175 
L 99.968134 17.132351 
L 100.547113 16.971726 
L 102.091057 16.449756 
L 102.670036 16.418539 
L 103.442008 16.705189 
L 104.149649 16.83388 
L 104.535635 17.05256 
L 104.921621 17.224037 
L 105.629262 17.499052 
L 106.78722 18.039885 
L 107.366199 18.111893 
L 109.553454 17.772474 
L 111.097398 17.080698 
L 111.998032 17.25684 
L 112.770004 17.611528 
L 113.15599 17.551427 
L 113.992293 17.332956 
L 115.471906 17.523706 
L 115.922223 17.546797 
L 116.37254 17.33011 
L 116.887189 17.083985 
L 119.203105 17.109571 
L 120.425394 16.57126 
L 120.747049 16.814567 
L 121.905007 17.900273 
L 122.226662 17.864544 
L 122.548317 17.539393 
L 123.127296 16.882422 
L 123.38462 16.89092 
L 123.770606 17.237471 
L 124.67124 18.131993 
L 124.864233 17.983888 
L 125.185888 17.350012 
L 125.764867 16.159027 
L 126.022192 16.097906 
L 126.279516 16.335515 
L 127.244481 17.489565 
L 127.630467 17.579865 
L 128.080784 17.39749 
L 129.238742 16.732804 
L 129.689059 16.84341 
L 130.589693 17.299976 
L 131.04001 17.011163 
L 131.554658 16.690353 
L 132.262299 16.537614 
L 132.96994 16.627134 
L 133.484588 17.023814 
L 134.449553 17.915306 
L 134.706878 17.813448 
L 135.800505 16.959598 
L 136.057829 17.052693 
L 136.829801 17.569426 
L 137.344449 17.451615 
L 138.245083 17.295925 
L 138.952724 17.458062 
L 140.818323 16.771989 
L 141.204309 17.182978 
L 141.654626 17.572067 
L 143.069908 17.924285 
L 143.648888 17.725328 
L 144.292198 17.244231 
L 144.999839 16.860195 
L 145.964804 16.626701 
L 146.672445 16.362013 
L 146.9941 16.480452 
L 147.959065 17.009483 
L 148.795368 17.072748 
L 149.760333 17.212181 
L 150.403643 17.4036 
L 151.046953 17.251796 
L 151.754594 16.972268 
L 152.269242 16.833662 
L 152.71956 16.642776 
L 153.427201 16.574439 
L 153.941849 16.45018 
L 155.807448 17.0427 
L 156.322096 17.325013 
L 157.22273 17.408167 
L 159.216991 17.280818 
L 160.43928 17.333369 
L 160.825266 17.404324 
L 161.468577 17.656208 
L 161.983225 17.649205 
L 163.462838 17.359125 
L 164.106148 17.471185 
L 164.492134 17.436762 
L 165.778754 17.098127 
L 167.129705 17.125388 
L 169.252628 17.663825 
L 170.0246 17.555153 
L 171.053897 17.08007 
L 171.504214 17.036192 
L 172.018862 17.02585 
L 172.919496 16.812254 
L 173.498475 16.980109 
L 174.013123 17.134759 
L 174.785095 17.268683 
L 175.364074 17.488964 
L 176.071715 17.331072 
L 176.586363 17.291308 
L 178.001645 17.452813 
L 179.288266 17.43593 
L 179.802914 17.495457 
L 180.83221 17.387371 
L 181.47552 17.45948 
L 181.990168 17.356969 
L 183.083795 16.936738 
L 183.662774 17.061424 
L 184.177422 17.415245 
L 184.820732 17.834582 
L 185.271049 17.829898 
L 186.043021 17.496239 
L 186.686331 17.117761 
L 187.072317 17.194086 
L 187.651296 17.314213 
L 188.744924 17.140411 
L 190.031544 16.504285 
L 190.41753 16.623785 
L 190.867847 17.043493 
L 191.253833 17.328427 
L 191.832812 17.384431 
L 192.476122 17.213298 
L 192.862108 17.144517 
L 193.312425 17.343176 
L 194.020066 17.749542 
L 194.406052 17.592243 
L 194.9207 17.244444 
L 195.821334 16.311512 
L 196.078658 16.493836 
L 196.593306 17.307332 
L 197.043624 17.784888 
L 197.300948 17.86593 
L 197.558272 17.680951 
L 198.394575 16.648197 
L 198.71623 16.666882 
L 199.166547 17.006159 
L 199.616864 17.255589 
L 199.874188 17.218229 
L 200.903484 16.679027 
L 201.225139 16.797315 
L 201.93278 17.176523 
L 202.318766 17.12648 
L 203.026407 16.923217 
L 203.348062 17.074393 
L 204.313027 17.777398 
L 204.699013 17.513824 
L 206.049965 16.301815 
L 206.564613 16.324096 
L 208.108557 16.488793 
L 208.623205 16.464323 
L 209.073522 16.670935 
L 210.553135 17.434821 
L 211.453769 17.429593 
L 212.032748 17.157149 
L 212.869051 16.884454 
L 213.512361 16.912441 
L 214.09134 17.088696 
L 215.635285 17.831669 
L 216.149933 17.777335 
L 216.728912 17.486521 
L 217.565215 17.097057 
L 218.401518 17.024715 
L 219.366483 16.927615 
L 220.267117 17.169289 
L 220.781765 17.259759 
L 221.618068 17.273518 
L 222.068385 17.290249 
L 222.840357 17.251792 
L 224.126978 17.472915 
L 224.448633 17.515424 
L 225.349267 17.412466 
L 226.764549 17.546244 
L 228.051169 17.482363 
L 228.565817 17.573376 
L 229.209127 17.71244 
L 229.595113 17.561748 
L 230.174092 17.410113 
L 231.074726 17.39014 
L 231.846698 17.204881 
L 232.683002 16.925407 
L 235.449235 16.720616 
L 236.349869 17.144607 
L 236.349869 17.144607 
" clip-path="url(#p03799ffd79)" style="fill: none; stroke: #2ca02c; stroke-width: 0.5; stroke-linecap: square"/>
   </g>
   <g id="patch_3">
    <path d="M 33.707196 202.559296 
L 33.707196 7.2 
" style="fill: none; stroke: #000000; stroke-width: 0.8; stroke-linejoin: miter; stroke-linecap: square"/>
   </g>
   <g id="patch_4">
    <path d="M 245.99952 202.559296 
L 245.99952 7.2 
" style="fill: none; stroke: #000000; stroke-width: 0.8; stroke-linejoin: miter; stroke-linecap: square"/>
   </g>
   <g id="patch_5">
    <path d="M 33.707196 202.559296 
L 245.99952 202.559296 
" style="fill: none; stroke: #000000; stroke-width: 0.8; stroke-linejoin: miter; stroke-linecap: square"/>
   </g>
   <g id="patch_6">
    <path d="M 33.707196 7.2 
L 245.99952 7.2 
" style="fill: none; stroke: #000000; stroke-width: 0.8; stroke-linejoin: miter; stroke-linecap: square"/>
   </g>
   <g id="legend_1">
    <g id="patch_7">
     <path d="M 193.792605 198.059296 
L 239.69952 198.059296 
Q 241.49952 198.059296 241.49952 196.259296 
L 241.49952 156.760168 
Q 241.49952 154.960168 239.69952 154.960168 
L 193.792605 154.960168 
Q 191.992605 154.960168 191.992605 156.760168 
L 191.992605 196.259296 
Q 191.992605 198.059296 193.792605 198.059296 
z
" style="fill: #ffffff; opacity: 0.8; stroke: #cccccc; stroke-width: 0.24; stroke-linejoin: miter"/>
    </g>
    <g id="line2d_18">
     <path d="M 195.592605 162.13495 
L 204.592605 162.13495 
L 213.592605 162.13495 
" style="fill: none; stroke: #1f77b4; stroke-width: 0.5; stroke-linecap: square"/>
    </g>
    <g id="text_16">
     <!-- $\langle \sigma_z\rangle$ -->
     <g transform="translate(220.792605 165.28495) scale(0.09 -0.09)">
      <defs>
       <path id="CMSY10-68" d="M 2099 4557 
C 2131 4627 2131 4640 2131 4672 
C 2131 4742 2074 4800 2003 4800 
C 1946 4800 1901 4768 1856 4653 
L 736 1715 
C 723 1677 704 1638 704 1600 
C 704 1581 704 1568 736 1491 
L 1856 -1446 
C 1882 -1517 1914 -1600 2003 -1600 
C 2074 -1600 2131 -1542 2131 -1472 
C 2131 -1453 2131 -1440 2099 -1370 
L 966 1600 
L 2099 4557 
z
" transform="scale(0.015625)"/>
       <path id="CMMI12-1b" d="M 3251 2408 
C 3334 2408 3546 2408 3546 2612 
C 3546 2752 3424 2752 3309 2752 
L 1894 2752 
C 934 2752 243 1686 243 932 
C 243 390 595 -64 1171 -64 
C 1926 -64 2752 747 2752 1705 
C 2752 1954 2694 2196 2541 2408 
L 3251 2408 
z
M 1178 64 
C 851 64 614 313 614 754 
C 614 1137 845 2408 1786 2408 
C 2061 2408 2368 2274 2368 1781 
C 2368 1558 2266 1021 2042 652 
C 1811 275 1466 64 1178 64 
z
" transform="scale(0.015625)"/>
       <path id="CMMI12-7a" d="M 813 486 
C 1088 803 1312 1004 1632 1296 
C 2016 1632 2182 1793 2272 1891 
C 2720 2338 2944 2713 2944 2764 
C 2944 2816 2893 2816 2880 2816 
C 2835 2816 2822 2793 2790 2750 
C 2630 2494 2477 2367 2310 2367 
C 2176 2367 2106 2421 1984 2565 
C 1850 2715 1741 2816 1555 2816 
C 1088 2816 806 2257 806 2128 
C 806 2108 813 2068 870 2068 
C 922 2068 928 2091 947 2133 
C 1056 2372 1363 2414 1485 2414 
C 1619 2414 1747 2376 1882 2327 
C 2125 2240 2227 2240 2291 2240 
C 2336 2240 2362 2240 2394 2246 
C 2182 1994 1837 1683 1549 1418 
L 902 816 
C 512 415 275 33 275 -12 
C 275 -51 307 -64 346 -64 
C 384 -64 390 -57 435 14 
C 538 163 742 384 979 384 
C 1114 384 1178 342 1306 193 
C 1427 61 1536 -64 1741 -64 
C 2368 -64 2726 732 2726 876 
C 2726 903 2720 942 2656 942 
C 2605 942 2598 917 2579 855 
C 2438 488 2061 338 1811 338 
C 1677 338 1549 376 1414 425 
C 1158 512 1088 512 1005 512 
C 941 512 870 512 813 486 
z
" transform="scale(0.015625)"/>
       <path id="CMSY10-69" d="M 1747 1491 
C 1779 1568 1779 1581 1779 1600 
C 1779 1619 1779 1632 1747 1709 
L 627 4653 
C 589 4762 550 4800 480 4800 
C 410 4800 352 4742 352 4672 
C 352 4653 352 4640 384 4570 
L 1517 1600 
L 384 -1357 
C 352 -1427 352 -1440 352 -1472 
C 352 -1542 410 -1600 480 -1600 
C 563 -1600 589 -1536 614 -1472 
L 1747 1491 
z
" transform="scale(0.015625)"/>
      </defs>
      <use xlink:href="#CMSY10-68" transform="scale(0.996264)"/>
      <use xlink:href="#CMMI12-1b" transform="translate(38.743734 0) scale(0.996264)"/>
      <use xlink:href="#CMMI12-7a" transform="translate(94.189195 -14.943915) scale(0.697382)"/>
      <use xlink:href="#CMSY10-69" transform="translate(129.51575 0) scale(0.996264)"/>
     </g>
    </g>
    <g id="line2d_19">
     <path d="M 195.592605 175.601326 
L 204.592605 175.601326 
L 213.592605 175.601326 
" style="fill: none; stroke: #ff7f0e; stroke-width: 0.5; stroke-linecap: square"/>
    </g>
    <g id="text_17">
     <!-- $\langle \sigma_x\rangle$ -->
     <g transform="translate(220.792605 178.751326) scale(0.09 -0.09)">
      <defs>
       <path id="CMMI12-78" d="M 3034 2606 
C 2829 2567 2752 2414 2752 2293 
C 2752 2139 2874 2088 2963 2088 
C 3155 2088 3290 2254 3290 2427 
C 3290 2695 2982 2816 2714 2816 
C 2323 2816 2106 2433 2048 2312 
C 1901 2816 1504 2816 1389 2816 
C 736 2816 390 1980 390 1839 
C 390 1814 416 1782 461 1782 
C 512 1782 525 1820 538 1846 
C 755 2555 1184 2689 1370 2689 
C 1658 2689 1715 2420 1715 2267 
C 1715 2127 1677 1980 1600 1673 
L 1382 798 
C 1286 415 1101 64 762 64 
C 730 64 570 64 435 147 
C 666 192 717 383 717 460 
C 717 588 621 664 499 664 
C 346 664 179 530 179 326 
C 179 57 480 -64 755 -64 
C 1062 -64 1280 179 1414 441 
C 1517 64 1837 -64 2074 -64 
C 2726 -64 3072 773 3072 913 
C 3072 945 3046 971 3008 971 
C 2950 971 2944 939 2925 888 
C 2752 326 2381 64 2093 64 
C 1869 64 1747 230 1747 492 
C 1747 632 1773 734 1875 1156 
L 2099 2024 
C 2195 2408 2413 2689 2707 2689 
C 2720 2689 2899 2689 3034 2606 
z
" transform="scale(0.015625)"/>
      </defs>
      <use xlink:href="#CMSY10-68" transform="scale(0.996264)"/>
      <use xlink:href="#CMMI12-1b" transform="translate(38.743734 0) scale(0.996264)"/>
      <use xlink:href="#CMMI12-78" transform="translate(94.189195 -14.943915) scale(0.697382)"/>
      <use xlink:href="#CMSY10-69" transform="translate(133.490986 0) scale(0.996264)"/>
     </g>
    </g>
    <g id="line2d_20">
     <path d="M 195.592605 189.067702 
L 204.592605 189.067702 
L 213.592605 189.067702 
" style="fill: none; stroke: #2ca02c; stroke-width: 0.5; stroke-linecap: square"/>
    </g>
    <g id="text_18">
     <!-- $\langle \sigma_y\rangle$ -->
     <g transform="translate(220.792605 192.217702) scale(0.09 -0.09)">
      <defs>
       <path id="CMMI12-79" d="M 1683 -700 
C 1510 -939 1261 -1152 947 -1152 
C 870 -1152 563 -1152 467 -889 
C 486 -895 518 -895 531 -895 
C 723 -895 851 -729 851 -582 
C 851 -435 730 -384 634 -384 
C 531 -384 307 -458 307 -759 
C 307 -1071 582 -1286 947 -1286 
C 1587 -1286 2234 -700 2413 6 
L 3040 2485 
C 3046 2517 3059 2556 3059 2594 
C 3059 2689 2982 2753 2886 2753 
C 2829 2753 2694 2727 2643 2535 
L 2170 658 
C 2138 543 2138 530 2086 460 
C 1958 281 1747 64 1440 64 
C 1082 64 1050 415 1050 588 
C 1050 952 1222 1443 1395 1903 
C 1466 2088 1504 2178 1504 2305 
C 1504 2574 1312 2816 998 2816 
C 410 2816 173 1890 173 1839 
C 173 1814 198 1782 243 1782 
C 301 1782 307 1807 333 1897 
C 486 2433 730 2689 979 2689 
C 1037 2689 1146 2689 1146 2478 
C 1146 2312 1075 2127 979 1884 
C 666 1047 666 837 666 683 
C 666 77 1101 -64 1421 -64 
C 1606 -64 1837 -6 2061 230 
L 2067 224 
C 1971 -147 1907 -392 1683 -700 
z
" transform="scale(0.015625)"/>
      </defs>
      <use xlink:href="#CMSY10-68" transform="scale(0.996264)"/>
      <use xlink:href="#CMMI12-1b" transform="translate(38.743734 0) scale(0.996264)"/>
      <use xlink:href="#CMMI12-79" transform="translate(94.189195 -14.943915) scale(0.697382)"/>
      <use xlink:href="#CMSY10-69" transform="translate(130.484301 0) scale(0.996264)"/>
     </g>
    </g>
   </g>
  </g>
 </g>
 <defs>
  <clipPath id="p03799ffd79">
   <rect x="33.707196" y="7.2" width="212.292324" height="195.359296"/>
  </clipPath>
 </defs>
</svg>
