<?xml version="1.0" encoding="utf-8" standalone="no"?>
<!DOCTYPE svg PUBLIC "-//W3C//DTD SVG 1.1//EN"
  "http://www.w3.org/Graphics/SVG/1.1/DTD/svg11.dtd">
<svg xmlns:xlink="http://www.w3.org/1999/xlink" width="253.19952pt" height="238.79952pt" viewBox="0 0 253.19952 238.79952" xmlns="http://www.w3.org/2000/svg" version="1.1">
 <metadata>
  <rdf:RDF xmlns:dc="http://purl.org/dc/elements/1.1/" xmlns:cc="http://creativecommons.org/ns#" xmlns:rdf="http://www.w3.org/1999/02/22-rdf-syntax-ns#">
   <cc:Work>
    <dc:type rdf:resource="http://purl.org/dc/dcmitype/StillImage"/>
    <dc:date>1980-01-01T00:00:00+00:00</dc:date>
    <dc:format>image/svg+xml</dc:format>
    <dc:creator>
     <cc:Agent>
      <dc:title>Matplotlib v3.6.2, https://matplotlib.org/</dc:title>
     </cc:Agent>
    </dc:creator>
   </cc:Work>
  </rdf:RDF>
 </metadata>
 <defs>
  <style type="text/css">*{stroke-linejoin: round; stroke-linecap: butt}</style>
 </defs>
 <g id="figure_1">
  <g id="patch_1">
   <path d="M 0 238.79952 
L 253.19952 238.79952 
L 253.19952 0 
L 0 0 
z
" style="fill: #ffffff"/>
  </g>
  <g id="axes_1">
   <g id="patch_2">
    <path d="M 33.707196 202.559296 
L 245.99952 202.559296 
L 245.99952 7.2 
L 33.707196 7.2 
z
" style="fill: #ffffff"/>
   </g>
   <g id="matplotlib.axis_1">
    <g id="xtick_1">
     <g id="line2d_1">
      <defs>
       <path id="me18eb7f6fd" d="M 0 0 
L 0 3.5 
" style="stroke: #000000; stroke-width: 0.8"/>
      </defs>
      <g>
       <use xlink:href="#me18eb7f6fd" x="43.356847" y="202.559296" style="stroke: #000000; stroke-width: 0.8"/>
      </g>
     </g>
     <g id="text_1">
      <!-- $\mathdefault{0}$ -->
      <g transform="translate(41.239756 217.194098) scale(0.08 -0.08)">
       <defs>
        <path id="CMR17-30" d="M 2688 2025 
C 2688 2416 2682 3080 2413 3591 
C 2176 4039 1798 4198 1466 4198 
C 1158 4198 768 4058 525 3597 
C 269 3118 243 2524 243 2025 
C 243 1661 250 1106 448 619 
C 723 -39 1216 -128 1466 -128 
C 1760 -128 2208 -7 2470 600 
C 2662 1042 2688 1559 2688 2025 
z
M 1466 -26 
C 1056 -26 813 325 723 812 
C 653 1188 653 1738 653 2096 
C 653 2588 653 2997 736 3387 
C 858 3929 1216 4096 1466 4096 
C 1728 4096 2067 3923 2189 3400 
C 2272 3036 2278 2607 2278 2096 
C 2278 1680 2278 1169 2202 792 
C 2067 95 1690 -26 1466 -26 
z
" transform="scale(0.015625)"/>
       </defs>
       <use xlink:href="#CMR17-30" transform="scale(0.996264)"/>
      </g>
     </g>
    </g>
    <g id="xtick_2">
     <g id="line2d_2">
      <g>
       <use xlink:href="#me18eb7f6fd" x="70.161434" y="202.559296" style="stroke: #000000; stroke-width: 0.8"/>
      </g>
     </g>
     <g id="text_2">
      <!-- $\mathdefault{25}$ -->
      <g transform="translate(65.927251 217.194098) scale(0.08 -0.08)">
       <defs>
        <path id="CMR17-32" d="M 2669 989 
L 2554 989 
C 2490 536 2438 459 2413 420 
C 2381 369 1920 369 1830 369 
L 602 369 
C 832 619 1280 1072 1824 1597 
C 2214 1967 2669 2402 2669 3035 
C 2669 3790 2067 4224 1395 4224 
C 691 4224 262 3604 262 3030 
C 262 2780 448 2748 525 2748 
C 589 2748 781 2787 781 3010 
C 781 3207 614 3264 525 3264 
C 486 3264 448 3258 422 3245 
C 544 3790 915 4058 1306 4058 
C 1862 4058 2227 3617 2227 3035 
C 2227 2479 1901 2000 1536 1584 
L 262 146 
L 262 0 
L 2515 0 
L 2669 989 
z
" transform="scale(0.015625)"/>
        <path id="CMR17-35" d="M 730 3692 
C 794 3666 1056 3584 1325 3584 
C 1920 3584 2246 3911 2432 4100 
C 2432 4157 2432 4192 2394 4192 
C 2387 4192 2374 4192 2323 4163 
C 2099 4058 1837 3973 1517 3973 
C 1325 3973 1037 3999 723 4139 
C 653 4171 640 4171 634 4171 
C 602 4171 595 4164 595 4037 
L 595 2203 
C 595 2089 595 2057 659 2057 
C 691 2057 704 2070 736 2114 
C 941 2401 1222 2522 1542 2522 
C 1766 2522 2246 2382 2246 1289 
C 2246 1085 2246 715 2054 421 
C 1894 159 1645 25 1370 25 
C 947 25 518 320 403 814 
C 429 807 480 795 506 795 
C 589 795 749 840 749 1038 
C 749 1210 627 1280 506 1280 
C 358 1280 262 1190 262 1011 
C 262 454 704 -128 1382 -128 
C 2042 -128 2669 440 2669 1264 
C 2669 2030 2170 2624 1549 2624 
C 1222 2624 947 2503 730 2274 
L 730 3692 
z
" transform="scale(0.015625)"/>
       </defs>
       <use xlink:href="#CMR17-32" transform="scale(0.996264)"/>
       <use xlink:href="#CMR17-35" transform="translate(45.690477 0) scale(0.996264)"/>
      </g>
     </g>
    </g>
    <g id="xtick_3">
     <g id="line2d_3">
      <g>
       <use xlink:href="#me18eb7f6fd" x="96.96602" y="202.559296" style="stroke: #000000; stroke-width: 0.8"/>
      </g>
     </g>
     <g id="text_3">
      <!-- $\mathdefault{50}$ -->
      <g transform="translate(92.731837 217.194098) scale(0.08 -0.08)">
       <use xlink:href="#CMR17-35" transform="scale(0.996264)"/>
       <use xlink:href="#CMR17-30" transform="translate(45.690477 0) scale(0.996264)"/>
      </g>
     </g>
    </g>
    <g id="xtick_4">
     <g id="line2d_4">
      <g>
       <use xlink:href="#me18eb7f6fd" x="123.770606" y="202.559296" style="stroke: #000000; stroke-width: 0.8"/>
      </g>
     </g>
     <g id="text_4">
      <!-- $\mathdefault{75}$ -->
      <g transform="translate(119.536423 217.194098) scale(0.08 -0.08)">
       <defs>
        <path id="CMR17-37" d="M 2886 3941 
L 2886 4081 
L 1382 4081 
C 634 4081 621 4165 595 4288 
L 480 4288 
L 294 3094 
L 410 3094 
C 429 3215 474 3540 550 3661 
C 589 3712 1062 3712 1171 3712 
L 2579 3712 
L 1869 2661 
C 1395 1954 1069 999 1069 165 
C 1069 89 1069 -128 1299 -128 
C 1530 -128 1530 89 1530 171 
L 1530 465 
C 1530 1508 1709 2196 2003 2636 
L 2886 3941 
z
" transform="scale(0.015625)"/>
       </defs>
       <use xlink:href="#CMR17-37" transform="scale(0.996264)"/>
       <use xlink:href="#CMR17-35" transform="translate(45.690477 0) scale(0.996264)"/>
      </g>
     </g>
    </g>
    <g id="xtick_5">
     <g id="line2d_5">
      <g>
       <use xlink:href="#me18eb7f6fd" x="150.575193" y="202.559296" style="stroke: #000000; stroke-width: 0.8"/>
      </g>
     </g>
     <g id="text_5">
      <!-- $\mathdefault{100}$ -->
      <g transform="translate(144.223918 217.194098) scale(0.08 -0.08)">
       <defs>
        <path id="CMR17-31" d="M 1702 4058 
C 1702 4192 1696 4192 1606 4192 
C 1357 3916 979 3827 621 3827 
C 602 3827 570 3827 563 3808 
C 557 3795 557 3782 557 3648 
C 755 3648 1088 3686 1344 3839 
L 1344 461 
C 1344 236 1331 160 781 160 
L 589 160 
L 589 0 
C 896 0 1216 0 1523 0 
C 1830 0 2150 0 2458 0 
L 2458 160 
L 2266 160 
C 1715 160 1702 230 1702 458 
L 1702 4058 
z
" transform="scale(0.015625)"/>
       </defs>
       <use xlink:href="#CMR17-31" transform="scale(0.996264)"/>
       <use xlink:href="#CMR17-30" transform="translate(45.690477 0) scale(0.996264)"/>
       <use xlink:href="#CMR17-30" transform="translate(91.380954 0) scale(0.996264)"/>
      </g>
     </g>
    </g>
    <g id="xtick_6">
     <g id="line2d_6">
      <g>
       <use xlink:href="#me18eb7f6fd" x="177.379779" y="202.559296" style="stroke: #000000; stroke-width: 0.8"/>
      </g>
     </g>
     <g id="text_6">
      <!-- $\mathdefault{125}$ -->
      <g transform="translate(171.028505 217.194098) scale(0.08 -0.08)">
       <use xlink:href="#CMR17-31" transform="scale(0.996264)"/>
       <use xlink:href="#CMR17-32" transform="translate(45.690477 0) scale(0.996264)"/>
       <use xlink:href="#CMR17-35" transform="translate(91.380954 0) scale(0.996264)"/>
      </g>
     </g>
    </g>
    <g id="xtick_7">
     <g id="line2d_7">
      <g>
       <use xlink:href="#me18eb7f6fd" x="204.184365" y="202.559296" style="stroke: #000000; stroke-width: 0.8"/>
      </g>
     </g>
     <g id="text_7">
      <!-- $\mathdefault{150}$ -->
      <g transform="translate(197.833091 217.194098) scale(0.08 -0.08)">
       <use xlink:href="#CMR17-31" transform="scale(0.996264)"/>
       <use xlink:href="#CMR17-35" transform="translate(45.690477 0) scale(0.996264)"/>
       <use xlink:href="#CMR17-30" transform="translate(91.380954 0) scale(0.996264)"/>
      </g>
     </g>
    </g>
    <g id="xtick_8">
     <g id="line2d_8">
      <g>
       <use xlink:href="#me18eb7f6fd" x="230.988952" y="202.559296" style="stroke: #000000; stroke-width: 0.8"/>
      </g>
     </g>
     <g id="text_8">
      <!-- $\mathdefault{175}$ -->
      <g transform="translate(224.637677 217.194098) scale(0.08 -0.08)">
       <use xlink:href="#CMR17-31" transform="scale(0.996264)"/>
       <use xlink:href="#CMR17-37" transform="translate(45.690477 0) scale(0.996264)"/>
       <use xlink:href="#CMR17-35" transform="translate(91.380954 0) scale(0.996264)"/>
      </g>
     </g>
    </g>
    <g id="text_9">
     <!-- $\tau$ -->
     <g transform="translate(137.675756 229.662342) scale(0.1 -0.1)">
      <defs>
       <path id="CMMI12-1c" d="M 1837 2408 
L 2899 2408 
C 2982 2408 3194 2408 3194 2612 
C 3194 2752 3072 2752 2957 2752 
L 1197 2752 
C 1050 2752 832 2752 538 2440 
C 371 2255 166 1917 166 1879 
C 166 1841 198 1828 237 1828 
C 282 1828 288 1847 320 1885 
C 653 2408 986 2408 1146 2408 
L 1677 2408 
L 1011 223 
C 979 127 979 114 979 95 
C 979 25 1024 -64 1152 -64 
C 1350 -64 1382 108 1402 203 
L 1837 2408 
z
" transform="scale(0.015625)"/>
      </defs>
      <use xlink:href="#CMMI12-1c" transform="scale(0.996264)"/>
     </g>
    </g>
   </g>
   <g id="matplotlib.axis_2">
    <g id="ytick_1">
     <g id="line2d_9">
      <defs>
       <path id="m0244d27744" d="M 0 0 
L -3.5 0 
" style="stroke: #000000; stroke-width: 0.8"/>
      </defs>
      <g>
       <use xlink:href="#m0244d27744" x="33.707196" y="193.679328" style="stroke: #000000; stroke-width: 0.8"/>
      </g>
     </g>
     <g id="text_10">
      <!-- $\mathdefault{−1.0}$ -->
      <g transform="translate(7.2 196.446729) scale(0.08 -0.08)">
       <defs>
        <path id="CMSY10-0" d="M 4218 1472 
C 4326 1472 4442 1472 4442 1600 
C 4442 1728 4326 1728 4218 1728 
L 755 1728 
C 646 1728 531 1728 531 1600 
C 531 1472 646 1472 755 1472 
L 4218 1472 
z
" transform="scale(0.015625)"/>
        <path id="CMMI12-3a" d="M 1178 307 
C 1178 492 1024 619 870 619 
C 685 619 557 466 557 313 
C 557 128 710 0 864 0 
C 1050 0 1178 153 1178 307 
z
" transform="scale(0.015625)"/>
       </defs>
       <use xlink:href="#CMSY10-0" transform="scale(0.996264)"/>
       <use xlink:href="#CMR17-31" transform="translate(77.487468 0) scale(0.996264)"/>
       <use xlink:href="#CMMI12-3a" transform="translate(123.177945 0) scale(0.996264)"/>
       <use xlink:href="#CMR17-30" transform="translate(150.275122 0) scale(0.996264)"/>
      </g>
     </g>
    </g>
    <g id="ytick_2">
     <g id="line2d_10">
      <g>
       <use xlink:href="#m0244d27744" x="33.707196" y="158.344765" style="stroke: #000000; stroke-width: 0.8"/>
      </g>
     </g>
     <g id="text_11">
      <!-- $\mathdefault{−0.8}$ -->
      <g transform="translate(7.2 161.112166) scale(0.08 -0.08)">
       <defs>
        <path id="CMR17-38" d="M 1741 2264 
C 2144 2467 2554 2773 2554 3263 
C 2554 3841 1990 4179 1472 4179 
C 890 4179 378 3759 378 3180 
C 378 3021 416 2747 666 2505 
C 730 2442 998 2251 1171 2130 
C 883 1983 211 1634 211 934 
C 211 279 838 -128 1459 -128 
C 2144 -128 2720 362 2720 1010 
C 2720 1590 2330 1857 2074 2029 
L 1741 2264 
z
M 902 2822 
C 851 2854 595 3051 595 3351 
C 595 3739 998 4032 1459 4032 
C 1965 4032 2336 3676 2336 3262 
C 2336 2669 1670 2331 1638 2331 
C 1632 2331 1626 2331 1574 2370 
L 902 2822 
z
M 2080 1519 
C 2176 1449 2483 1240 2483 851 
C 2483 381 2010 25 1472 25 
C 890 25 448 438 448 940 
C 448 1443 838 1862 1280 2060 
L 2080 1519 
z
" transform="scale(0.015625)"/>
       </defs>
       <use xlink:href="#CMSY10-0" transform="scale(0.996264)"/>
       <use xlink:href="#CMR17-30" transform="translate(77.487468 0) scale(0.996264)"/>
       <use xlink:href="#CMMI12-3a" transform="translate(123.177945 0) scale(0.996264)"/>
       <use xlink:href="#CMR17-38" transform="translate(150.275122 0) scale(0.996264)"/>
      </g>
     </g>
    </g>
    <g id="ytick_3">
     <g id="line2d_11">
      <g>
       <use xlink:href="#m0244d27744" x="33.707196" y="123.010203" style="stroke: #000000; stroke-width: 0.8"/>
      </g>
     </g>
     <g id="text_12">
      <!-- $\mathdefault{−0.6}$ -->
      <g transform="translate(7.2 125.777604) scale(0.08 -0.08)">
       <defs>
        <path id="CMR17-36" d="M 678 2176 
C 678 3690 1395 4032 1811 4032 
C 1946 4032 2272 4009 2400 3776 
C 2298 3776 2106 3776 2106 3553 
C 2106 3381 2246 3323 2336 3323 
C 2394 3323 2566 3348 2566 3560 
C 2566 3954 2246 4179 1805 4179 
C 1043 4179 243 3390 243 1984 
C 243 253 966 -128 1478 -128 
C 2099 -128 2688 427 2688 1283 
C 2688 2081 2170 2662 1517 2662 
C 1126 2662 838 2407 678 1960 
L 678 2176 
z
M 1478 25 
C 691 25 691 1200 691 1436 
C 691 1896 909 2560 1504 2560 
C 1613 2560 1926 2560 2138 2120 
C 2253 1870 2253 1609 2253 1289 
C 2253 944 2253 690 2118 434 
C 1978 171 1773 25 1478 25 
z
" transform="scale(0.015625)"/>
       </defs>
       <use xlink:href="#CMSY10-0" transform="scale(0.996264)"/>
       <use xlink:href="#CMR17-30" transform="translate(77.487468 0) scale(0.996264)"/>
       <use xlink:href="#CMMI12-3a" transform="translate(123.177945 0) scale(0.996264)"/>
       <use xlink:href="#CMR17-36" transform="translate(150.275122 0) scale(0.996264)"/>
      </g>
     </g>
    </g>
    <g id="ytick_4">
     <g id="line2d_12">
      <g>
       <use xlink:href="#m0244d27744" x="33.707196" y="87.67564" style="stroke: #000000; stroke-width: 0.8"/>
      </g>
     </g>
     <g id="text_13">
      <!-- $\mathdefault{−0.4}$ -->
      <g transform="translate(7.2 90.443041) scale(0.08 -0.08)">
       <defs>
        <path id="CMR17-34" d="M 2150 4122 
C 2150 4256 2144 4256 2029 4256 
L 128 1254 
L 128 1088 
L 1779 1088 
L 1779 457 
C 1779 224 1766 160 1318 160 
L 1197 160 
L 1197 0 
C 1402 0 1747 0 1965 0 
C 2182 0 2528 0 2733 0 
L 2733 160 
L 2611 160 
C 2163 160 2150 224 2150 457 
L 2150 1088 
L 2803 1088 
L 2803 1254 
L 2150 1254 
L 2150 4122 
z
M 1798 3703 
L 1798 1254 
L 256 1254 
L 1798 3703 
z
" transform="scale(0.015625)"/>
       </defs>
       <use xlink:href="#CMSY10-0" transform="scale(0.996264)"/>
       <use xlink:href="#CMR17-30" transform="translate(77.487468 0) scale(0.996264)"/>
       <use xlink:href="#CMMI12-3a" transform="translate(123.177945 0) scale(0.996264)"/>
       <use xlink:href="#CMR17-34" transform="translate(150.275122 0) scale(0.996264)"/>
      </g>
     </g>
    </g>
    <g id="ytick_5">
     <g id="line2d_13">
      <g>
       <use xlink:href="#m0244d27744" x="33.707196" y="52.341077" style="stroke: #000000; stroke-width: 0.8"/>
      </g>
     </g>
     <g id="text_14">
      <!-- $\mathdefault{−0.2}$ -->
      <g transform="translate(7.2 55.108478) scale(0.08 -0.08)">
       <use xlink:href="#CMSY10-0" transform="scale(0.996264)"/>
       <use xlink:href="#CMR17-30" transform="translate(77.487468 0) scale(0.996264)"/>
       <use xlink:href="#CMMI12-3a" transform="translate(123.177945 0) scale(0.996264)"/>
       <use xlink:href="#CMR17-32" transform="translate(150.275122 0) scale(0.996264)"/>
      </g>
     </g>
    </g>
    <g id="ytick_6">
     <g id="line2d_14">
      <g>
       <use xlink:href="#m0244d27744" x="33.707196" y="17.006515" style="stroke: #000000; stroke-width: 0.8"/>
      </g>
     </g>
     <g id="text_15">
      <!-- $\mathdefault{0.0}$ -->
      <g transform="translate(13.786507 19.773916) scale(0.08 -0.08)">
       <use xlink:href="#CMR17-30" transform="scale(0.996264)"/>
       <use xlink:href="#CMMI12-3a" transform="translate(45.690477 0) scale(0.996264)"/>
       <use xlink:href="#CMR17-30" transform="translate(72.787654 0) scale(0.996264)"/>
      </g>
     </g>
    </g>
   </g>
   <g id="line2d_15">
    <path d="M 43.356847 193.679328 
L 43.421178 193.348325 
L 43.614171 188.827575 
L 44.579136 156.75134 
L 44.900791 153.526288 
L 45.093784 153.107876 
L 45.222446 153.344175 
L 45.415439 154.341605 
L 45.801426 157.99301 
L 46.830722 168.941948 
L 47.281039 171.304556 
L 47.602694 172.007083 
L 49.017976 174.005531 
L 49.982941 175.878449 
L 50.819244 176.782531 
L 52.170195 177.897812 
L 52.813505 178.906205 
L 53.392484 179.779993 
L 53.649808 179.887657 
L 53.842801 179.742367 
L 54.100125 179.157076 
L 54.357449 177.913805 
L 54.679105 175.20583 
L 55.129422 169.161527 
L 55.708401 157.742861 
L 58.281641 100.632393 
L 59.117944 89.661597 
L 59.761254 83.761485 
L 60.79055 76.667437 
L 61.755515 71.400216 
L 62.463156 68.667635 
L 63.106466 67.053006 
L 65.551045 62.390047 
L 66.130024 61.691051 
L 66.773334 61.121164 
L 67.80263 60.871058 
L 68.317278 60.546761 
L 69.024919 60.466339 
L 69.539567 60.499521 
L 69.861222 60.562731 
L 70.633194 60.363225 
L 71.01918 60.463808 
L 72.498794 60.305962 
L 72.949111 60.442254 
L 73.592421 60.29577 
L 73.849745 60.31559 
L 74.621717 60.691192 
L 75.329358 60.552735 
L 76.487316 60.474416 
L 76.808971 60.036159 
L 77.194957 59.12857 
L 77.580943 57.490868 
L 78.159922 53.541817 
L 79.510873 44.650202 
L 80.025521 42.959695 
L 80.540169 41.894999 
L 81.119148 41.123758 
L 81.633797 40.357995 
L 82.019783 40.114869 
L 82.727424 39.810973 
L 84.142706 38.840704 
L 84.464361 38.863407 
L 84.914678 39.168033 
L 86.008305 40.221385 
L 86.394291 40.803851 
L 86.780277 41.903835 
L 87.230594 43.989903 
L 87.745242 47.746479 
L 88.25989 53.359835 
L 88.967531 63.911381 
L 91.476441 104.532518 
L 92.505737 116.04101 
L 93.277709 122.37612 
L 94.178343 128.09251 
L 95.014646 131.863888 
L 95.786618 134.404268 
L 96.751583 137.086914 
L 97.652217 138.749359 
L 98.681513 140.134175 
L 99.839472 141.438316 
L 100.418451 141.75662 
L 101.254754 142.19783 
L 102.219719 142.412025 
L 102.92736 142.566412 
L 103.892325 142.816504 
L 104.599966 142.943636 
L 105.629262 142.889924 
L 106.722889 143.242991 
L 107.559192 143.398382 
L 108.524158 143.324026 
L 108.717151 143.573891 
L 108.974475 144.328046 
L 109.29613 145.989664 
L 109.682116 149.118482 
L 110.389757 157.309342 
L 111.097398 164.541881 
L 111.612046 167.600785 
L 112.062363 169.0625 
L 114.828596 175.133857 
L 115.72923 176.242368 
L 116.629864 177.352296 
L 117.980816 179.334637 
L 118.173809 179.213264 
L 118.366802 178.813521 
L 118.624126 177.758315 
L 118.945781 175.394739 
L 119.331767 170.804046 
L 119.846415 161.57445 
L 120.682718 141.465589 
L 121.905007 112.810852 
L 122.676979 99.294493 
L 123.38462 90.185152 
L 124.092261 83.94949 
L 125.121557 76.637864 
L 126.408178 70.364546 
L 126.922826 68.709367 
L 127.759129 66.508103 
L 128.338108 65.173048 
L 129.817721 63.079617 
L 130.268038 62.866121 
L 130.589693 62.614366 
L 131.490327 61.729606 
L 132.004975 61.509612 
L 133.227264 60.896352 
L 133.677581 60.725926 
L 134.25656 60.724342 
L 134.771209 60.396384 
L 135.285857 60.037633 
L 135.607512 60.13488 
L 136.057829 60.299617 
L 136.829801 60.337807 
L 137.344449 60.503875 
L 137.601773 60.360681 
L 138.05209 60.052629 
L 139.531703 59.694929 
L 139.917689 59.270189 
L 140.175013 59.08946 
L 140.496668 59.184766 
L 141.075647 59.367981 
L 141.332971 59.147294 
L 141.590295 58.529266 
L 141.976281 56.785314 
L 142.55526 53.020846 
L 143.584556 46.504122 
L 144.292198 43.40271 
L 144.871177 41.719846 
L 145.385825 40.974829 
L 146.029135 40.492643 
L 146.479452 40.117243 
L 147.058431 39.295393 
L 147.63741 38.620442 
L 148.216389 38.347915 
L 148.731037 38.10053 
L 149.245685 37.888295 
L 149.56734 37.963665 
L 149.888995 38.336703 
L 150.403643 39.347246 
L 150.982622 41.001848 
L 151.49727 43.322185 
L 152.011918 46.793311 
L 152.526567 52.075135 
L 153.169877 61.217265 
L 154.713821 88.035044 
L 155.743117 103.728493 
L 156.57942 113.440259 
L 157.415723 120.995961 
L 158.252026 126.546405 
L 159.088329 130.589844 
L 159.988963 133.941419 
L 160.825266 136.340321 
L 161.597239 137.891833 
L 162.755197 139.832635 
L 164.299141 141.510241 
L 164.942451 141.687848 
L 165.714423 142.061407 
L 166.422064 142.367785 
L 167.837346 142.797969 
L 168.287663 142.843096 
L 168.930973 143.094787 
L 170.217593 143.063622 
L 172.404848 143.355632 
L 172.726503 143.41518 
L 172.983827 143.706831 
L 173.241151 144.341684 
L 173.562806 145.808352 
L 173.948792 148.78798 
L 174.592102 155.923347 
L 175.428405 164.497204 
L 175.878722 167.167936 
L 176.39337 168.908324 
L 178.258969 173.470833 
L 179.159603 175.162893 
L 179.931576 176.056691 
L 180.767879 177.090059 
L 181.47552 178.301532 
L 182.054499 179.236703 
L 182.311823 179.345271 
L 182.504816 179.213332 
L 182.76214 178.634511 
L 183.019464 177.408519 
L 183.341119 174.796978 
L 183.791436 168.877825 
L 184.306084 158.88276 
L 185.399711 131.533004 
L 186.429007 108.836269 
L 187.200979 96.536036 
L 188.037282 87.097881 
L 188.937917 79.346225 
L 189.77422 74.174817 
L 190.41753 71.461815 
L 191.125171 69.112245 
L 192.411791 66.247763 
L 193.183763 64.430555 
L 194.213059 62.879501 
L 194.727707 62.365103 
L 195.499679 61.824243 
L 196.335982 61.509118 
L 197.815596 60.743843 
L 199.488202 60.225621 
L 200.903484 59.994717 
L 201.353801 60.078821 
L 201.804118 59.93814 
L 202.511759 59.657947 
L 203.927041 59.971007 
L 204.763344 59.82062 
L 205.14933 59.809175 
L 205.406654 59.539215 
L 205.728309 58.798635 
L 206.114296 57.24546 
L 206.821937 53.140638 
L 208.108557 45.312394 
L 208.687536 42.993655 
L 209.202184 41.795938 
L 209.781163 40.964537 
L 210.87479 39.858185 
L 211.968417 38.977402 
L 212.418734 39.018125 
L 212.933382 39.304718 
L 213.319368 39.384576 
L 214.220002 39.453956 
L 214.605988 39.801899 
L 214.927644 40.344269 
L 215.31363 41.49337 
L 215.828278 43.725776 
L 216.278595 46.647292 
L 216.793243 51.493074 
L 217.372222 59.150423 
L 218.272856 74.572715 
L 219.752469 99.448001 
L 220.653103 111.095605 
L 221.553737 119.715963 
L 222.39004 125.672364 
L 223.355005 130.798565 
L 224.448633 134.81456 
L 225.156274 136.60915 
L 226.249901 138.57482 
L 227.600852 140.411998 
L 228.501486 141.162494 
L 230.238423 142.131619 
L 232.425677 142.692536 
L 234.870256 143.387143 
L 236.221207 143.205621 
L 236.349869 143.161358 
L 236.349869 143.161358 
" clip-path="url(#p71c5ebe994)" style="fill: none; stroke: #1f77b4; stroke-width: 0.5; stroke-linecap: square"/>
   </g>
   <g id="line2d_16">
    <path d="M 43.356847 17.006515 
L 44.064488 16.706891 
L 44.965122 16.633448 
L 48.889314 16.727674 
L 55.193753 16.694936 
L 58.345972 16.522924 
L 68.44594 16.500721 
L 109.167468 16.604187 
L 119.589091 16.687458 
L 122.612648 16.522885 
L 131.618989 16.50051 
L 174.527771 16.63975 
L 178.837948 16.733243 
L 183.984429 16.682031 
L 186.943655 16.522751 
L 197.043624 16.500525 
L 236.349869 16.597411 
L 236.349869 16.597411 
" clip-path="url(#p71c5ebe994)" style="fill: none; stroke: #ff7f0e; stroke-width: 0.5; stroke-linecap: square"/>
   </g>
   <g id="line2d_17">
    <path d="M 43.356847 17.006515 
L 44.321812 17.232984 
L 46.573398 17.02453 
L 47.474032 17.259861 
L 48.438997 17.164859 
L 49.017976 17.029151 
L 49.725617 17.065619 
L 50.626251 17.189025 
L 51.140899 17.165471 
L 52.427519 16.937537 
L 53.070829 16.976072 
L 53.77847 16.92118 
L 55.386746 16.884493 
L 56.93069 16.591848 
L 57.316676 16.804487 
L 57.895655 17.114775 
L 58.281641 17.08031 
L 58.731958 16.783214 
L 59.568261 16.079968 
L 59.825585 16.204671 
L 60.211571 16.780401 
L 60.726219 17.501513 
L 61.047874 17.631127 
L 61.369529 17.48602 
L 62.205832 16.869725 
L 62.72048 17.05024 
L 63.685446 17.607713 
L 64.328756 17.647631 
L 64.843404 17.387896 
L 65.808369 16.651933 
L 66.323017 16.534972 
L 66.709003 16.738585 
L 67.609637 17.189632 
L 67.931292 17.19746 
L 68.252947 16.936647 
L 68.831926 16.396908 
L 69.08925 16.450305 
L 70.568863 17.103651 
L 71.533828 16.812532 
L 73.592421 17.215845 
L 74.1714 16.950036 
L 74.557386 17.010948 
L 74.879041 17.024532 
L 75.45802 16.687642 
L 75.844006 16.570663 
L 76.165661 16.727104 
L 77.259288 17.517732 
L 78.03126 17.431279 
L 79.31788 17.096793 
L 79.832528 17.097888 
L 80.6045 17.302537 
L 81.698128 17.598159 
L 82.534431 17.284317 
L 83.242072 16.914043 
L 83.821051 16.774925 
L 86.201298 16.835003 
L 87.61658 17.090074 
L 88.002566 17.101442 
L 89.353517 17.51097 
L 89.868165 17.580683 
L 90.897462 17.280563 
L 91.347779 17.199043 
L 92.763061 17.373982 
L 93.277709 17.215407 
L 93.728026 17.080058 
L 96.108273 17.135484 
L 97.652217 17.299119 
L 99.517817 17.008323 
L 100.096796 17.004771 
L 101.126092 16.76983 
L 101.576409 16.838991 
L 101.898064 16.835118 
L 102.477043 16.751929 
L 104.085318 16.740448 
L 106.465565 17.021644 
L 106.980213 17.005351 
L 107.559192 16.963175 
L 109.360461 17.376738 
L 109.93944 17.297597 
L 110.58275 17.155367 
L 112.641342 17.16462 
L 113.348983 17.401581 
L 113.7993 17.183722 
L 114.635603 16.766632 
L 115.278913 16.744933 
L 116.436871 17.000049 
L 119.074443 16.823925 
L 119.589091 17.132352 
L 120.16807 17.428191 
L 120.682718 17.535233 
L 121.197366 17.297087 
L 122.998634 16.214782 
L 123.320289 16.317639 
L 123.834937 16.805409 
L 124.864233 17.796202 
L 125.121557 17.788499 
L 125.571874 17.446815 
L 126.729833 16.507981 
L 127.051488 16.637976 
L 127.630467 16.962483 
L 128.273777 16.937416 
L 128.724094 16.890771 
L 129.303073 17.212008 
L 129.689059 17.317804 
L 129.946383 17.167605 
L 130.782686 16.437782 
L 131.168672 16.394447 
L 131.811982 16.740385 
L 132.905609 17.439536 
L 133.227264 17.32223 
L 133.741912 16.820229 
L 134.385222 16.163507 
L 134.771209 16.228313 
L 135.221526 16.52854 
L 136.12216 17.232225 
L 136.508146 17.176164 
L 137.473111 16.925858 
L 137.923428 17.04593 
L 138.502407 17.35218 
L 138.952724 17.200956 
L 139.98202 16.794131 
L 140.303675 16.957624 
L 141.011316 17.516149 
L 141.332971 17.424752 
L 142.104943 17.050316 
L 142.748253 16.992515 
L 143.841881 16.985547 
L 144.42086 16.643666 
L 145.06417 16.370021 
L 145.836142 16.265457 
L 146.35079 16.528502 
L 147.701741 17.32628 
L 148.538044 17.393581 
L 148.92403 17.160071 
L 149.438678 16.863472 
L 150.017657 16.82648 
L 151.175615 16.94122 
L 152.397904 17.337644 
L 153.813187 17.39846 
L 154.520828 17.761169 
L 155.228469 17.794571 
L 155.614455 17.549234 
L 156.57942 16.833321 
L 157.86604 16.763474 
L 158.573681 16.993694 
L 159.216991 17.279953 
L 161.146921 17.226172 
L 162.047556 16.824949 
L 162.819528 16.578704 
L 163.655831 16.615251 
L 164.363472 16.975451 
L 164.749458 16.937668 
L 165.843085 16.669537 
L 167.901677 16.69506 
L 170.667911 17.209129 
L 173.434144 17.042894 
L 174.141785 17.339437 
L 174.527771 17.469844 
L 175.171081 17.319256 
L 175.814391 16.936701 
L 176.264708 16.774715 
L 176.586363 16.773277 
L 177.229673 16.907444 
L 177.744321 17.040471 
L 178.3233 17.251867 
L 178.773617 17.089709 
L 179.802914 16.630204 
L 180.124569 16.675504 
L 181.604182 17.266227 
L 183.341119 16.808927 
L 185.97869 17.3552 
L 186.364676 17.237474 
L 187.393972 16.788567 
L 187.715627 16.89598 
L 188.873586 17.497315 
L 189.709889 17.332214 
L 190.41753 16.927896 
L 190.932178 16.723074 
L 191.318164 16.869961 
L 191.70415 16.957777 
L 192.411791 16.999046 
L 192.926439 17.036197 
L 193.312425 16.851277 
L 193.762742 16.641632 
L 194.406052 16.721816 
L 194.792038 16.93036 
L 195.371017 17.217419 
L 195.692672 17.149959 
L 196.786299 16.530938 
L 197.107955 16.687526 
L 198.265913 17.5969 
L 198.587568 17.493332 
L 199.295209 17.122211 
L 200.067181 16.948647 
L 200.64616 16.694102 
L 200.967815 16.782774 
L 201.353801 17.126879 
L 202.061442 17.803764 
L 202.318766 17.743381 
L 203.348062 17.046039 
L 203.734048 17.09074 
L 204.50602 17.346122 
L 204.892006 17.139587 
L 205.535316 16.740713 
L 205.921302 16.78076 
L 207.143592 17.180125 
L 208.108557 17.078937 
L 208.880529 16.934208 
L 210.038487 17.132201 
L 211.067783 17.549694 
L 211.453769 17.342915 
L 212.16141 16.965462 
L 212.676058 16.928713 
L 213.769685 16.987044 
L 214.605988 16.867721 
L 216.085602 17.062677 
L 217.114898 17.462447 
L 218.208525 17.473049 
L 218.658842 17.333464 
L 219.559476 17.003908 
L 220.074124 17.118731 
L 221.618068 17.524279 
L 222.197047 17.400909 
L 223.097681 17.406849 
L 224.062647 17.050799 
L 224.577295 17.097559 
L 225.091943 17.041803 
L 225.928246 16.894132 
L 228.179831 16.924682 
L 228.823141 17.099049 
L 229.40212 17.310443 
L 230.431416 17.525477 
L 231.010395 17.553629 
L 231.718036 17.455894 
L 232.747333 17.462059 
L 233.712298 17.534024 
L 235.191911 17.007328 
L 235.642228 17.0004 
L 236.349869 16.951065 
L 236.349869 16.951065 
" clip-path="url(#p71c5ebe994)" style="fill: none; stroke: #2ca02c; stroke-width: 0.5; stroke-linecap: square"/>
   </g>
   <g id="patch_3">
    <path d="M 33.707196 202.559296 
L 33.707196 7.2 
" style="fill: none; stroke: #000000; stroke-width: 0.8; stroke-linejoin: miter; stroke-linecap: square"/>
   </g>
   <g id="patch_4">
    <path d="M 245.99952 202.559296 
L 245.99952 7.2 
" style="fill: none; stroke: #000000; stroke-width: 0.8; stroke-linejoin: miter; stroke-linecap: square"/>
   </g>
   <g id="patch_5">
    <path d="M 33.707196 202.559296 
L 245.99952 202.559296 
" style="fill: none; stroke: #000000; stroke-width: 0.8; stroke-linejoin: miter; stroke-linecap: square"/>
   </g>
   <g id="patch_6">
    <path d="M 33.707196 7.2 
L 245.99952 7.2 
" style="fill: none; stroke: #000000; stroke-width: 0.8; stroke-linejoin: miter; stroke-linecap: square"/>
   </g>
   <g id="legend_1">
    <g id="patch_7">
     <path d="M 193.792605 198.059296 
L 239.69952 198.059296 
Q 241.49952 198.059296 241.49952 196.259296 
L 241.49952 156.760168 
Q 241.49952 154.960168 239.69952 154.960168 
L 193.792605 154.960168 
Q 191.992605 154.960168 191.992605 156.760168 
L 191.992605 196.259296 
Q 191.992605 198.059296 193.792605 198.059296 
z
" style="fill: #ffffff; opacity: 0.8; stroke: #cccccc; stroke-width: 0.24; stroke-linejoin: miter"/>
    </g>
    <g id="line2d_18">
     <path d="M 195.592605 162.13495 
L 204.592605 162.13495 
L 213.592605 162.13495 
" style="fill: none; stroke: #1f77b4; stroke-width: 0.5; stroke-linecap: square"/>
    </g>
    <g id="text_16">
     <!-- $\langle \sigma_z\rangle$ -->
     <g transform="translate(220.792605 165.28495) scale(0.09 -0.09)">
      <defs>
       <path id="CMSY10-68" d="M 2099 4557 
C 2131 4627 2131 4640 2131 4672 
C 2131 4742 2074 4800 2003 4800 
C 1946 4800 1901 4768 1856 4653 
L 736 1715 
C 723 1677 704 1638 704 1600 
C 704 1581 704 1568 736 1491 
L 1856 -1446 
C 1882 -1517 1914 -1600 2003 -1600 
C 2074 -1600 2131 -1542 2131 -1472 
C 2131 -1453 2131 -1440 2099 -1370 
L 966 1600 
L 2099 4557 
z
" transform="scale(0.015625)"/>
       <path id="CMMI12-1b" d="M 3251 2408 
C 3334 2408 3546 2408 3546 2612 
C 3546 2752 3424 2752 3309 2752 
L 1894 2752 
C 934 2752 243 1686 243 932 
C 243 390 595 -64 1171 -64 
C 1926 -64 2752 747 2752 1705 
C 2752 1954 2694 2196 2541 2408 
L 3251 2408 
z
M 1178 64 
C 851 64 614 313 614 754 
C 614 1137 845 2408 1786 2408 
C 2061 2408 2368 2274 2368 1781 
C 2368 1558 2266 1021 2042 652 
C 1811 275 1466 64 1178 64 
z
" transform="scale(0.015625)"/>
       <path id="CMMI12-7a" d="M 813 486 
C 1088 803 1312 1004 1632 1296 
C 2016 1632 2182 1793 2272 1891 
C 2720 2338 2944 2713 2944 2764 
C 2944 2816 2893 2816 2880 2816 
C 2835 2816 2822 2793 2790 2750 
C 2630 2494 2477 2367 2310 2367 
C 2176 2367 2106 2421 1984 2565 
C 1850 2715 1741 2816 1555 2816 
C 1088 2816 806 2257 806 2128 
C 806 2108 813 2068 870 2068 
C 922 2068 928 2091 947 2133 
C 1056 2372 1363 2414 1485 2414 
C 1619 2414 1747 2376 1882 2327 
C 2125 2240 2227 2240 2291 2240 
C 2336 2240 2362 2240 2394 2246 
C 2182 1994 1837 1683 1549 1418 
L 902 816 
C 512 415 275 33 275 -12 
C 275 -51 307 -64 346 -64 
C 384 -64 390 -57 435 14 
C 538 163 742 384 979 384 
C 1114 384 1178 342 1306 193 
C 1427 61 1536 -64 1741 -64 
C 2368 -64 2726 732 2726 876 
C 2726 903 2720 942 2656 942 
C 2605 942 2598 917 2579 855 
C 2438 488 2061 338 1811 338 
C 1677 338 1549 376 1414 425 
C 1158 512 1088 512 1005 512 
C 941 512 870 512 813 486 
z
" transform="scale(0.015625)"/>
       <path id="CMSY10-69" d="M 1747 1491 
C 1779 1568 1779 1581 1779 1600 
C 1779 1619 1779 1632 1747 1709 
L 627 4653 
C 589 4762 550 4800 480 4800 
C 410 4800 352 4742 352 4672 
C 352 4653 352 4640 384 4570 
L 1517 1600 
L 384 -1357 
C 352 -1427 352 -1440 352 -1472 
C 352 -1542 410 -1600 480 -1600 
C 563 -1600 589 -1536 614 -1472 
L 1747 1491 
z
" transform="scale(0.015625)"/>
      </defs>
      <use xlink:href="#CMSY10-68" transform="scale(0.996264)"/>
      <use xlink:href="#CMMI12-1b" transform="translate(38.743734 0) scale(0.996264)"/>
      <use xlink:href="#CMMI12-7a" transform="translate(94.189195 -14.943915) scale(0.697382)"/>
      <use xlink:href="#CMSY10-69" transform="translate(129.51575 0) scale(0.996264)"/>
     </g>
    </g>
    <g id="line2d_19">
     <path d="M 195.592605 175.601326 
L 204.592605 175.601326 
L 213.592605 175.601326 
" style="fill: none; stroke: #ff7f0e; stroke-width: 0.5; stroke-linecap: square"/>
    </g>
    <g id="text_17">
     <!-- $\langle \sigma_x\rangle$ -->
     <g transform="translate(220.792605 178.751326) scale(0.09 -0.09)">
      <defs>
       <path id="CMMI12-78" d="M 3034 2606 
C 2829 2567 2752 2414 2752 2293 
C 2752 2139 2874 2088 2963 2088 
C 3155 2088 3290 2254 3290 2427 
C 3290 2695 2982 2816 2714 2816 
C 2323 2816 2106 2433 2048 2312 
C 1901 2816 1504 2816 1389 2816 
C 736 2816 390 1980 390 1839 
C 390 1814 416 1782 461 1782 
C 512 1782 525 1820 538 1846 
C 755 2555 1184 2689 1370 2689 
C 1658 2689 1715 2420 1715 2267 
C 1715 2127 1677 1980 1600 1673 
L 1382 798 
C 1286 415 1101 64 762 64 
C 730 64 570 64 435 147 
C 666 192 717 383 717 460 
C 717 588 621 664 499 664 
C 346 664 179 530 179 326 
C 179 57 480 -64 755 -64 
C 1062 -64 1280 179 1414 441 
C 1517 64 1837 -64 2074 -64 
C 2726 -64 3072 773 3072 913 
C 3072 945 3046 971 3008 971 
C 2950 971 2944 939 2925 888 
C 2752 326 2381 64 2093 64 
C 1869 64 1747 230 1747 492 
C 1747 632 1773 734 1875 1156 
L 2099 2024 
C 2195 2408 2413 2689 2707 2689 
C 2720 2689 2899 2689 3034 2606 
z
" transform="scale(0.015625)"/>
      </defs>
      <use xlink:href="#CMSY10-68" transform="scale(0.996264)"/>
      <use xlink:href="#CMMI12-1b" transform="translate(38.743734 0) scale(0.996264)"/>
      <use xlink:href="#CMMI12-78" transform="translate(94.189195 -14.943915) scale(0.697382)"/>
      <use xlink:href="#CMSY10-69" transform="translate(133.490986 0) scale(0.996264)"/>
     </g>
    </g>
    <g id="line2d_20">
     <path d="M 195.592605 189.067702 
L 204.592605 189.067702 
L 213.592605 189.067702 
" style="fill: none; stroke: #2ca02c; stroke-width: 0.5; stroke-linecap: square"/>
    </g>
    <g id="text_18">
     <!-- $\langle \sigma_y\rangle$ -->
     <g transform="translate(220.792605 192.217702) scale(0.09 -0.09)">
      <defs>
       <path id="CMMI12-79" d="M 1683 -700 
C 1510 -939 1261 -1152 947 -1152 
C 870 -1152 563 -1152 467 -889 
C 486 -895 518 -895 531 -895 
C 723 -895 851 -729 851 -582 
C 851 -435 730 -384 634 -384 
C 531 -384 307 -458 307 -759 
C 307 -1071 582 -1286 947 -1286 
C 1587 -1286 2234 -700 2413 6 
L 3040 2485 
C 3046 2517 3059 2556 3059 2594 
C 3059 2689 2982 2753 2886 2753 
C 2829 2753 2694 2727 2643 2535 
L 2170 658 
C 2138 543 2138 530 2086 460 
C 1958 281 1747 64 1440 64 
C 1082 64 1050 415 1050 588 
C 1050 952 1222 1443 1395 1903 
C 1466 2088 1504 2178 1504 2305 
C 1504 2574 1312 2816 998 2816 
C 410 2816 173 1890 173 1839 
C 173 1814 198 1782 243 1782 
C 301 1782 307 1807 333 1897 
C 486 2433 730 2689 979 2689 
C 1037 2689 1146 2689 1146 2478 
C 1146 2312 1075 2127 979 1884 
C 666 1047 666 837 666 683 
C 666 77 1101 -64 1421 -64 
C 1606 -64 1837 -6 2061 230 
L 2067 224 
C 1971 -147 1907 -392 1683 -700 
z
" transform="scale(0.015625)"/>
      </defs>
      <use xlink:href="#CMSY10-68" transform="scale(0.996264)"/>
      <use xlink:href="#CMMI12-1b" transform="translate(38.743734 0) scale(0.996264)"/>
      <use xlink:href="#CMMI12-79" transform="translate(94.189195 -14.943915) scale(0.697382)"/>
      <use xlink:href="#CMSY10-69" transform="translate(130.484301 0) scale(0.996264)"/>
     </g>
    </g>
   </g>
  </g>
 </g>
 <defs>
  <clipPath id="p71c5ebe994">
   <rect x="33.707196" y="7.2" width="212.292324" height="195.359296"/>
  </clipPath>
 </defs>
</svg>
