<?xml version="1.0" encoding="utf-8" standalone="no"?>
<!DOCTYPE svg PUBLIC "-//W3C//DTD SVG 1.1//EN"
  "http://www.w3.org/Graphics/SVG/1.1/DTD/svg11.dtd">
<svg xmlns:xlink="http://www.w3.org/1999/xlink" width="253.19952pt" height="238.79952pt" viewBox="0 0 253.19952 238.79952" xmlns="http://www.w3.org/2000/svg" version="1.1">
 <metadata>
  <rdf:RDF xmlns:dc="http://purl.org/dc/elements/1.1/" xmlns:cc="http://creativecommons.org/ns#" xmlns:rdf="http://www.w3.org/1999/02/22-rdf-syntax-ns#">
   <cc:Work>
    <dc:type rdf:resource="http://purl.org/dc/dcmitype/StillImage"/>
    <dc:date>1980-01-01T00:00:00+00:00</dc:date>
    <dc:format>image/svg+xml</dc:format>
    <dc:creator>
     <cc:Agent>
      <dc:title>Matplotlib v3.6.2, https://matplotlib.org/</dc:title>
     </cc:Agent>
    </dc:creator>
   </cc:Work>
  </rdf:RDF>
 </metadata>
 <defs>
  <style type="text/css">*{stroke-linejoin: round; stroke-linecap: butt}</style>
 </defs>
 <g id="figure_1">
  <g id="patch_1">
   <path d="M 0 238.79952 
L 253.19952 238.79952 
L 253.19952 0 
L 0 0 
z
" style="fill: #ffffff"/>
  </g>
  <g id="axes_1">
   <g id="patch_2">
    <path d="M 33.707196 202.559296 
L 245.99952 202.559296 
L 245.99952 7.2 
L 33.707196 7.2 
z
" style="fill: #ffffff"/>
   </g>
   <g id="matplotlib.axis_1">
    <g id="xtick_1">
     <g id="line2d_1">
      <defs>
       <path id="m6851d5076e" d="M 0 0 
L 0 3.5 
" style="stroke: #000000; stroke-width: 0.8"/>
      </defs>
      <g>
       <use xlink:href="#m6851d5076e" x="43.356847" y="202.559296" style="stroke: #000000; stroke-width: 0.8"/>
      </g>
     </g>
     <g id="text_1">
      <!-- $\mathdefault{0}$ -->
      <g transform="translate(41.239756 217.194098) scale(0.08 -0.08)">
       <defs>
        <path id="CMR17-30" d="M 2688 2025 
C 2688 2416 2682 3080 2413 3591 
C 2176 4039 1798 4198 1466 4198 
C 1158 4198 768 4058 525 3597 
C 269 3118 243 2524 243 2025 
C 243 1661 250 1106 448 619 
C 723 -39 1216 -128 1466 -128 
C 1760 -128 2208 -7 2470 600 
C 2662 1042 2688 1559 2688 2025 
z
M 1466 -26 
C 1056 -26 813 325 723 812 
C 653 1188 653 1738 653 2096 
C 653 2588 653 2997 736 3387 
C 858 3929 1216 4096 1466 4096 
C 1728 4096 2067 3923 2189 3400 
C 2272 3036 2278 2607 2278 2096 
C 2278 1680 2278 1169 2202 792 
C 2067 95 1690 -26 1466 -26 
z
" transform="scale(0.015625)"/>
       </defs>
       <use xlink:href="#CMR17-30" transform="scale(0.996264)"/>
      </g>
     </g>
    </g>
    <g id="xtick_2">
     <g id="line2d_2">
      <g>
       <use xlink:href="#m6851d5076e" x="70.161434" y="202.559296" style="stroke: #000000; stroke-width: 0.8"/>
      </g>
     </g>
     <g id="text_2">
      <!-- $\mathdefault{25}$ -->
      <g transform="translate(65.927251 217.194098) scale(0.08 -0.08)">
       <defs>
        <path id="CMR17-32" d="M 2669 989 
L 2554 989 
C 2490 536 2438 459 2413 420 
C 2381 369 1920 369 1830 369 
L 602 369 
C 832 619 1280 1072 1824 1597 
C 2214 1967 2669 2402 2669 3035 
C 2669 3790 2067 4224 1395 4224 
C 691 4224 262 3604 262 3030 
C 262 2780 448 2748 525 2748 
C 589 2748 781 2787 781 3010 
C 781 3207 614 3264 525 3264 
C 486 3264 448 3258 422 3245 
C 544 3790 915 4058 1306 4058 
C 1862 4058 2227 3617 2227 3035 
C 2227 2479 1901 2000 1536 1584 
L 262 146 
L 262 0 
L 2515 0 
L 2669 989 
z
" transform="scale(0.015625)"/>
        <path id="CMR17-35" d="M 730 3692 
C 794 3666 1056 3584 1325 3584 
C 1920 3584 2246 3911 2432 4100 
C 2432 4157 2432 4192 2394 4192 
C 2387 4192 2374 4192 2323 4163 
C 2099 4058 1837 3973 1517 3973 
C 1325 3973 1037 3999 723 4139 
C 653 4171 640 4171 634 4171 
C 602 4171 595 4164 595 4037 
L 595 2203 
C 595 2089 595 2057 659 2057 
C 691 2057 704 2070 736 2114 
C 941 2401 1222 2522 1542 2522 
C 1766 2522 2246 2382 2246 1289 
C 2246 1085 2246 715 2054 421 
C 1894 159 1645 25 1370 25 
C 947 25 518 320 403 814 
C 429 807 480 795 506 795 
C 589 795 749 840 749 1038 
C 749 1210 627 1280 506 1280 
C 358 1280 262 1190 262 1011 
C 262 454 704 -128 1382 -128 
C 2042 -128 2669 440 2669 1264 
C 2669 2030 2170 2624 1549 2624 
C 1222 2624 947 2503 730 2274 
L 730 3692 
z
" transform="scale(0.015625)"/>
       </defs>
       <use xlink:href="#CMR17-32" transform="scale(0.996264)"/>
       <use xlink:href="#CMR17-35" transform="translate(45.690477 0) scale(0.996264)"/>
      </g>
     </g>
    </g>
    <g id="xtick_3">
     <g id="line2d_3">
      <g>
       <use xlink:href="#m6851d5076e" x="96.96602" y="202.559296" style="stroke: #000000; stroke-width: 0.8"/>
      </g>
     </g>
     <g id="text_3">
      <!-- $\mathdefault{50}$ -->
      <g transform="translate(92.731837 217.194098) scale(0.08 -0.08)">
       <use xlink:href="#CMR17-35" transform="scale(0.996264)"/>
       <use xlink:href="#CMR17-30" transform="translate(45.690477 0) scale(0.996264)"/>
      </g>
     </g>
    </g>
    <g id="xtick_4">
     <g id="line2d_4">
      <g>
       <use xlink:href="#m6851d5076e" x="123.770606" y="202.559296" style="stroke: #000000; stroke-width: 0.8"/>
      </g>
     </g>
     <g id="text_4">
      <!-- $\mathdefault{75}$ -->
      <g transform="translate(119.536423 217.194098) scale(0.08 -0.08)">
       <defs>
        <path id="CMR17-37" d="M 2886 3941 
L 2886 4081 
L 1382 4081 
C 634 4081 621 4165 595 4288 
L 480 4288 
L 294 3094 
L 410 3094 
C 429 3215 474 3540 550 3661 
C 589 3712 1062 3712 1171 3712 
L 2579 3712 
L 1869 2661 
C 1395 1954 1069 999 1069 165 
C 1069 89 1069 -128 1299 -128 
C 1530 -128 1530 89 1530 171 
L 1530 465 
C 1530 1508 1709 2196 2003 2636 
L 2886 3941 
z
" transform="scale(0.015625)"/>
       </defs>
       <use xlink:href="#CMR17-37" transform="scale(0.996264)"/>
       <use xlink:href="#CMR17-35" transform="translate(45.690477 0) scale(0.996264)"/>
      </g>
     </g>
    </g>
    <g id="xtick_5">
     <g id="line2d_5">
      <g>
       <use xlink:href="#m6851d5076e" x="150.575193" y="202.559296" style="stroke: #000000; stroke-width: 0.8"/>
      </g>
     </g>
     <g id="text_5">
      <!-- $\mathdefault{100}$ -->
      <g transform="translate(144.223918 217.194098) scale(0.08 -0.08)">
       <defs>
        <path id="CMR17-31" d="M 1702 4058 
C 1702 4192 1696 4192 1606 4192 
C 1357 3916 979 3827 621 3827 
C 602 3827 570 3827 563 3808 
C 557 3795 557 3782 557 3648 
C 755 3648 1088 3686 1344 3839 
L 1344 461 
C 1344 236 1331 160 781 160 
L 589 160 
L 589 0 
C 896 0 1216 0 1523 0 
C 1830 0 2150 0 2458 0 
L 2458 160 
L 2266 160 
C 1715 160 1702 230 1702 458 
L 1702 4058 
z
" transform="scale(0.015625)"/>
       </defs>
       <use xlink:href="#CMR17-31" transform="scale(0.996264)"/>
       <use xlink:href="#CMR17-30" transform="translate(45.690477 0) scale(0.996264)"/>
       <use xlink:href="#CMR17-30" transform="translate(91.380954 0) scale(0.996264)"/>
      </g>
     </g>
    </g>
    <g id="xtick_6">
     <g id="line2d_6">
      <g>
       <use xlink:href="#m6851d5076e" x="177.379779" y="202.559296" style="stroke: #000000; stroke-width: 0.8"/>
      </g>
     </g>
     <g id="text_6">
      <!-- $\mathdefault{125}$ -->
      <g transform="translate(171.028505 217.194098) scale(0.08 -0.08)">
       <use xlink:href="#CMR17-31" transform="scale(0.996264)"/>
       <use xlink:href="#CMR17-32" transform="translate(45.690477 0) scale(0.996264)"/>
       <use xlink:href="#CMR17-35" transform="translate(91.380954 0) scale(0.996264)"/>
      </g>
     </g>
    </g>
    <g id="xtick_7">
     <g id="line2d_7">
      <g>
       <use xlink:href="#m6851d5076e" x="204.184365" y="202.559296" style="stroke: #000000; stroke-width: 0.8"/>
      </g>
     </g>
     <g id="text_7">
      <!-- $\mathdefault{150}$ -->
      <g transform="translate(197.833091 217.194098) scale(0.08 -0.08)">
       <use xlink:href="#CMR17-31" transform="scale(0.996264)"/>
       <use xlink:href="#CMR17-35" transform="translate(45.690477 0) scale(0.996264)"/>
       <use xlink:href="#CMR17-30" transform="translate(91.380954 0) scale(0.996264)"/>
      </g>
     </g>
    </g>
    <g id="xtick_8">
     <g id="line2d_8">
      <g>
       <use xlink:href="#m6851d5076e" x="230.988952" y="202.559296" style="stroke: #000000; stroke-width: 0.8"/>
      </g>
     </g>
     <g id="text_8">
      <!-- $\mathdefault{175}$ -->
      <g transform="translate(224.637677 217.194098) scale(0.08 -0.08)">
       <use xlink:href="#CMR17-31" transform="scale(0.996264)"/>
       <use xlink:href="#CMR17-37" transform="translate(45.690477 0) scale(0.996264)"/>
       <use xlink:href="#CMR17-35" transform="translate(91.380954 0) scale(0.996264)"/>
      </g>
     </g>
    </g>
    <g id="text_9">
     <!-- $\tau$ -->
     <g transform="translate(137.675756 229.662342) scale(0.1 -0.1)">
      <defs>
       <path id="CMMI12-1c" d="M 1837 2408 
L 2899 2408 
C 2982 2408 3194 2408 3194 2612 
C 3194 2752 3072 2752 2957 2752 
L 1197 2752 
C 1050 2752 832 2752 538 2440 
C 371 2255 166 1917 166 1879 
C 166 1841 198 1828 237 1828 
C 282 1828 288 1847 320 1885 
C 653 2408 986 2408 1146 2408 
L 1677 2408 
L 1011 223 
C 979 127 979 114 979 95 
C 979 25 1024 -64 1152 -64 
C 1350 -64 1382 108 1402 203 
L 1837 2408 
z
" transform="scale(0.015625)"/>
      </defs>
      <use xlink:href="#CMMI12-1c" transform="scale(0.996264)"/>
     </g>
    </g>
   </g>
   <g id="matplotlib.axis_2">
    <g id="ytick_1">
     <g id="line2d_9">
      <defs>
       <path id="m9e1b1dee60" d="M 0 0 
L -3.5 0 
" style="stroke: #000000; stroke-width: 0.8"/>
      </defs>
      <g>
       <use xlink:href="#m9e1b1dee60" x="33.707196" y="193.679328" style="stroke: #000000; stroke-width: 0.8"/>
      </g>
     </g>
     <g id="text_10">
      <!-- $\mathdefault{−1.0}$ -->
      <g transform="translate(7.2 196.446729) scale(0.08 -0.08)">
       <defs>
        <path id="CMSY10-0" d="M 4218 1472 
C 4326 1472 4442 1472 4442 1600 
C 4442 1728 4326 1728 4218 1728 
L 755 1728 
C 646 1728 531 1728 531 1600 
C 531 1472 646 1472 755 1472 
L 4218 1472 
z
" transform="scale(0.015625)"/>
        <path id="CMMI12-3a" d="M 1178 307 
C 1178 492 1024 619 870 619 
C 685 619 557 466 557 313 
C 557 128 710 0 864 0 
C 1050 0 1178 153 1178 307 
z
" transform="scale(0.015625)"/>
       </defs>
       <use xlink:href="#CMSY10-0" transform="scale(0.996264)"/>
       <use xlink:href="#CMR17-31" transform="translate(77.487468 0) scale(0.996264)"/>
       <use xlink:href="#CMMI12-3a" transform="translate(123.177945 0) scale(0.996264)"/>
       <use xlink:href="#CMR17-30" transform="translate(150.275122 0) scale(0.996264)"/>
      </g>
     </g>
    </g>
    <g id="ytick_2">
     <g id="line2d_10">
      <g>
       <use xlink:href="#m9e1b1dee60" x="33.707196" y="158.344606" style="stroke: #000000; stroke-width: 0.8"/>
      </g>
     </g>
     <g id="text_11">
      <!-- $\mathdefault{−0.8}$ -->
      <g transform="translate(7.2 161.112007) scale(0.08 -0.08)">
       <defs>
        <path id="CMR17-38" d="M 1741 2264 
C 2144 2467 2554 2773 2554 3263 
C 2554 3841 1990 4179 1472 4179 
C 890 4179 378 3759 378 3180 
C 378 3021 416 2747 666 2505 
C 730 2442 998 2251 1171 2130 
C 883 1983 211 1634 211 934 
C 211 279 838 -128 1459 -128 
C 2144 -128 2720 362 2720 1010 
C 2720 1590 2330 1857 2074 2029 
L 1741 2264 
z
M 902 2822 
C 851 2854 595 3051 595 3351 
C 595 3739 998 4032 1459 4032 
C 1965 4032 2336 3676 2336 3262 
C 2336 2669 1670 2331 1638 2331 
C 1632 2331 1626 2331 1574 2370 
L 902 2822 
z
M 2080 1519 
C 2176 1449 2483 1240 2483 851 
C 2483 381 2010 25 1472 25 
C 890 25 448 438 448 940 
C 448 1443 838 1862 1280 2060 
L 2080 1519 
z
" transform="scale(0.015625)"/>
       </defs>
       <use xlink:href="#CMSY10-0" transform="scale(0.996264)"/>
       <use xlink:href="#CMR17-30" transform="translate(77.487468 0) scale(0.996264)"/>
       <use xlink:href="#CMMI12-3a" transform="translate(123.177945 0) scale(0.996264)"/>
       <use xlink:href="#CMR17-38" transform="translate(150.275122 0) scale(0.996264)"/>
      </g>
     </g>
    </g>
    <g id="ytick_3">
     <g id="line2d_11">
      <g>
       <use xlink:href="#m9e1b1dee60" x="33.707196" y="123.009884" style="stroke: #000000; stroke-width: 0.8"/>
      </g>
     </g>
     <g id="text_12">
      <!-- $\mathdefault{−0.6}$ -->
      <g transform="translate(7.2 125.777285) scale(0.08 -0.08)">
       <defs>
        <path id="CMR17-36" d="M 678 2176 
C 678 3690 1395 4032 1811 4032 
C 1946 4032 2272 4009 2400 3776 
C 2298 3776 2106 3776 2106 3553 
C 2106 3381 2246 3323 2336 3323 
C 2394 3323 2566 3348 2566 3560 
C 2566 3954 2246 4179 1805 4179 
C 1043 4179 243 3390 243 1984 
C 243 253 966 -128 1478 -128 
C 2099 -128 2688 427 2688 1283 
C 2688 2081 2170 2662 1517 2662 
C 1126 2662 838 2407 678 1960 
L 678 2176 
z
M 1478 25 
C 691 25 691 1200 691 1436 
C 691 1896 909 2560 1504 2560 
C 1613 2560 1926 2560 2138 2120 
C 2253 1870 2253 1609 2253 1289 
C 2253 944 2253 690 2118 434 
C 1978 171 1773 25 1478 25 
z
" transform="scale(0.015625)"/>
       </defs>
       <use xlink:href="#CMSY10-0" transform="scale(0.996264)"/>
       <use xlink:href="#CMR17-30" transform="translate(77.487468 0) scale(0.996264)"/>
       <use xlink:href="#CMMI12-3a" transform="translate(123.177945 0) scale(0.996264)"/>
       <use xlink:href="#CMR17-36" transform="translate(150.275122 0) scale(0.996264)"/>
      </g>
     </g>
    </g>
    <g id="ytick_4">
     <g id="line2d_12">
      <g>
       <use xlink:href="#m9e1b1dee60" x="33.707196" y="87.675162" style="stroke: #000000; stroke-width: 0.8"/>
      </g>
     </g>
     <g id="text_13">
      <!-- $\mathdefault{−0.4}$ -->
      <g transform="translate(7.2 90.442563) scale(0.08 -0.08)">
       <defs>
        <path id="CMR17-34" d="M 2150 4122 
C 2150 4256 2144 4256 2029 4256 
L 128 1254 
L 128 1088 
L 1779 1088 
L 1779 457 
C 1779 224 1766 160 1318 160 
L 1197 160 
L 1197 0 
C 1402 0 1747 0 1965 0 
C 2182 0 2528 0 2733 0 
L 2733 160 
L 2611 160 
C 2163 160 2150 224 2150 457 
L 2150 1088 
L 2803 1088 
L 2803 1254 
L 2150 1254 
L 2150 4122 
z
M 1798 3703 
L 1798 1254 
L 256 1254 
L 1798 3703 
z
" transform="scale(0.015625)"/>
       </defs>
       <use xlink:href="#CMSY10-0" transform="scale(0.996264)"/>
       <use xlink:href="#CMR17-30" transform="translate(77.487468 0) scale(0.996264)"/>
       <use xlink:href="#CMMI12-3a" transform="translate(123.177945 0) scale(0.996264)"/>
       <use xlink:href="#CMR17-34" transform="translate(150.275122 0) scale(0.996264)"/>
      </g>
     </g>
    </g>
    <g id="ytick_5">
     <g id="line2d_13">
      <g>
       <use xlink:href="#m9e1b1dee60" x="33.707196" y="52.340441" style="stroke: #000000; stroke-width: 0.8"/>
      </g>
     </g>
     <g id="text_14">
      <!-- $\mathdefault{−0.2}$ -->
      <g transform="translate(7.2 55.107841) scale(0.08 -0.08)">
       <use xlink:href="#CMSY10-0" transform="scale(0.996264)"/>
       <use xlink:href="#CMR17-30" transform="translate(77.487468 0) scale(0.996264)"/>
       <use xlink:href="#CMMI12-3a" transform="translate(123.177945 0) scale(0.996264)"/>
       <use xlink:href="#CMR17-32" transform="translate(150.275122 0) scale(0.996264)"/>
      </g>
     </g>
    </g>
    <g id="ytick_6">
     <g id="line2d_14">
      <g>
       <use xlink:href="#m9e1b1dee60" x="33.707196" y="17.005719" style="stroke: #000000; stroke-width: 0.8"/>
      </g>
     </g>
     <g id="text_15">
      <!-- $\mathdefault{0.0}$ -->
      <g transform="translate(13.786507 19.77312) scale(0.08 -0.08)">
       <use xlink:href="#CMR17-30" transform="scale(0.996264)"/>
       <use xlink:href="#CMMI12-3a" transform="translate(45.690477 0) scale(0.996264)"/>
       <use xlink:href="#CMR17-30" transform="translate(72.787654 0) scale(0.996264)"/>
      </g>
     </g>
    </g>
   </g>
   <g id="line2d_15">
    <path d="M 43.356847 193.679328 
L 43.421178 193.421257 
L 43.54984 191.384236 
L 43.807164 181.909466 
L 44.965122 126.425628 
L 45.158115 125.348948 
L 45.286777 126.299405 
L 45.544101 131.431376 
L 46.637729 159.233468 
L 46.830722 159.881238 
L 46.959384 159.526053 
L 47.216708 157.52385 
L 47.924349 151.416705 
L 48.117342 151.083477 
L 48.246004 151.251742 
L 48.503328 152.331243 
L 49.468293 157.417202 
L 49.661286 157.619742 
L 49.854279 157.534809 
L 50.175934 157.015622 
L 50.690582 156.252322 
L 50.883575 156.234794 
L 51.140899 156.502787 
L 51.526885 157.370778 
L 52.427519 159.500462 
L 52.813505 159.936865 
L 53.006498 159.923582 
L 53.199491 159.632539 
L 53.456815 158.600225 
L 53.714139 156.558283 
L 54.100125 151.205367 
L 54.807767 136.618213 
L 55.579739 122.837415 
L 57.059352 100.038388 
L 57.638331 94.328538 
L 58.538965 88.470565 
L 60.597557 80.684283 
L 61.691184 77.729585 
L 62.656149 75.393048 
L 62.977804 75.190436 
L 63.235128 74.649584 
L 64.071432 72.46805 
L 64.58608 71.871632 
L 64.779073 71.53867 
L 65.486714 69.914945 
L 66.130024 69.237084 
L 66.966327 68.181808 
L 67.352313 68.37495 
L 67.545306 68.131074 
L 68.703264 66.007093 
L 69.217912 66.067802 
L 69.475236 65.824677 
L 70.054215 65.105202 
L 70.954849 64.474182 
L 71.212173 64.480896 
L 71.405166 64.23646 
L 72.3058 62.602013 
L 72.563125 62.744018 
L 72.88478 62.902757 
L 73.142104 62.677501 
L 73.592421 62.314496 
L 74.042738 62.127311 
L 74.428724 61.882179 
L 74.879041 61.999703 
L 75.136365 61.619053 
L 75.522351 61.198362 
L 76.358654 60.614033 
L 76.680309 59.455486 
L 77.194957 56.998394 
L 77.709605 52.649294 
L 78.803232 43.656177 
L 79.382211 40.489759 
L 79.639535 40.022715 
L 79.896859 39.97877 
L 80.475838 40.226606 
L 82.019783 38.817244 
L 82.727424 38.68047 
L 83.177741 38.290455 
L 83.370734 38.341663 
L 83.821051 38.645408 
L 84.335699 38.567193 
L 85.493657 40.085436 
L 86.265629 41.9901 
L 86.844608 44.372949 
L 87.423587 47.670103 
L 88.195559 53.473926 
L 89.096193 62.149557 
L 91.798096 89.462303 
L 92.891723 98.130551 
L 93.921019 104.646665 
L 95.014646 110.09493 
L 96.236935 115.155418 
L 97.330562 118.590547 
L 98.295527 120.976562 
L 99.196162 122.665797 
L 100.868768 125.135462 
L 103.442008 128.163836 
L 104.342642 128.83544 
L 105.243276 129.247428 
L 106.336903 129.718116 
L 107.752185 130.398842 
L 108.395496 130.719233 
L 108.65282 131.13155 
L 108.910144 132.023172 
L 109.231799 134.198422 
L 109.617785 138.721993 
L 111.033067 158.088083 
L 111.290391 158.729327 
L 111.419053 158.68159 
L 111.676377 158.105924 
L 112.255356 156.551858 
L 112.448349 156.465132 
L 112.641342 156.676006 
L 112.962997 157.536263 
L 113.734969 159.774954 
L 114.056624 160.129864 
L 114.378279 160.143136 
L 115.150251 159.969203 
L 115.471906 160.230812 
L 116.115216 161.175887 
L 116.95152 162.298652 
L 117.208844 162.386778 
L 117.401837 162.228568 
L 117.59483 161.767594 
L 117.852154 160.475283 
L 118.173809 157.404513 
L 118.559795 151.336673 
L 121.004373 106.398266 
L 121.776345 97.215473 
L 122.483986 91.308739 
L 123.320289 87.032431 
L 123.963599 84.53079 
L 124.478247 82.880865 
L 127.18015 75.249626 
L 127.759129 74.674118 
L 128.402439 73.517203 
L 129.560397 71.018687 
L 130.332369 69.820786 
L 130.654024 69.466526 
L 131.425996 68.480911 
L 131.811982 68.16344 
L 132.197968 67.402126 
L 132.583954 66.755828 
L 133.999236 65.749509 
L 134.642546 65.797642 
L 135.607512 64.295188 
L 136.315153 63.626459 
L 136.572477 63.597075 
L 136.894132 63.638796 
L 137.151456 63.376645 
L 137.666104 62.816933 
L 138.438076 62.714154 
L 138.952724 62.28022 
L 139.274379 61.964209 
L 139.531703 62.066575 
L 139.789027 62.142318 
L 140.110682 61.833699 
L 140.62533 61.263697 
L 140.946985 60.122449 
L 141.525964 57.341812 
L 142.233605 51.632997 
L 143.262901 42.694471 
L 143.713219 41.37601 
L 144.099205 40.680086 
L 144.485191 40.47037 
L 144.871177 40.206228 
L 146.736776 38.574716 
L 147.251424 38.683828 
L 147.573079 38.526483 
L 147.894734 38.391443 
L 148.345051 38.571713 
L 148.795368 38.482287 
L 149.374347 39.042408 
L 149.760333 39.543574 
L 150.081988 40.445242 
L 151.304277 45.021746 
L 151.883256 49.161113 
L 153.105546 59.795302 
L 154.713821 76.722279 
L 156.064772 89.769627 
L 157.287061 99.155816 
L 158.380688 106.029965 
L 159.216991 110.126364 
L 160.246287 114.003708 
L 161.468577 117.80895 
L 162.562204 120.571105 
L 164.170479 123.731619 
L 165.199775 125.552751 
L 166.100409 126.698161 
L 167.001043 127.515663 
L 168.995304 128.766301 
L 171.24689 130.130938 
L 172.018862 130.457716 
L 172.790834 130.746657 
L 173.048158 131.224081 
L 173.305482 132.261761 
L 173.627137 134.6973 
L 174.013123 139.527717 
L 175.235412 157.013569 
L 175.492736 158.154953 
L 175.685729 158.300314 
L 175.878722 158.000863 
L 176.715025 156.151938 
L 176.908018 156.288463 
L 177.229673 156.997179 
L 178.065976 159.15077 
L 178.387631 159.43938 
L 178.773617 159.469887 
L 179.352597 159.472267 
L 179.674252 159.713438 
L 180.253231 160.532179 
L 181.153865 161.716574 
L 181.539851 162.010476 
L 181.732844 161.951888 
L 181.925837 161.613559 
L 182.183161 160.479732 
L 182.504816 157.51961 
L 182.890802 151.399864 
L 185.271049 107.053136 
L 185.914359 98.956614 
L 186.622 92.616851 
L 187.200979 89.542461 
L 187.90862 86.063827 
L 188.358938 84.481293 
L 189.13091 81.507002 
L 189.516896 80.750134 
L 189.838551 79.890247 
L 190.481861 78.023875 
L 191.06084 76.867337 
L 191.382495 75.688871 
L 191.768481 74.440976 
L 192.34746 73.768342 
L 192.926439 72.272725 
L 193.441087 71.853059 
L 194.020066 70.967759 
L 194.27739 70.881107 
L 194.534714 70.389264 
L 195.113693 69.229996 
L 195.499679 68.937183 
L 196.20732 68.183012 
L 197.043624 67.141009 
L 197.944258 66.202054 
L 198.330244 65.729415 
L 198.909223 65.354827 
L 199.938519 64.22133 
L 200.581829 63.456886 
L 201.93278 63.042843 
L 202.190104 62.983973 
L 202.962076 63.061171 
L 203.2194 62.774552 
L 203.605386 62.360608 
L 203.927041 62.097508 
L 204.441689 61.569129 
L 204.892006 61.278145 
L 205.14933 60.671162 
L 205.599647 58.908986 
L 205.985634 56.34705 
L 206.693275 50.168326 
L 207.207923 46.131489 
L 207.915564 42.459673 
L 208.30155 41.558794 
L 208.94486 40.793865 
L 209.459508 40.35743 
L 209.845494 39.93265 
L 210.488804 39.718137 
L 210.810459 39.549316 
L 211.067783 39.704997 
L 211.325107 39.810602 
L 211.646762 39.5085 
L 212.740389 38.637054 
L 213.576692 38.993424 
L 214.220002 39.874968 
L 214.541657 40.842653 
L 215.699616 45.518199 
L 216.278595 49.145453 
L 217.050567 55.600775 
L 218.272856 68.320075 
L 220.267117 88.47526 
L 221.296413 97.154829 
L 222.325709 103.845996 
L 223.355005 109.264411 
L 224.25564 112.876308 
L 225.670922 117.382617 
L 226.635887 119.834755 
L 228.372824 123.513543 
L 229.595113 125.692371 
L 230.495747 126.83743 
L 231.203388 127.410724 
L 235.256242 129.897196 
L 236.349869 130.110981 
L 236.349869 130.110981 
" clip-path="url(#p1159f2ed94)" style="fill: none; stroke: #1f77b4; stroke-width: 0.5; stroke-linecap: square"/>
   </g>
   <g id="line2d_16">
    <path d="M 43.356847 17.005719 
L 44.257481 16.64464 
L 45.158115 16.562878 
L 110.454088 16.632118 
L 112.705673 16.651031 
L 118.945781 16.604313 
L 122.098 16.5026 
L 136.894132 16.49529 
L 174.592102 16.620958 
L 176.843687 16.64918 
L 183.727105 16.576537 
L 187.329641 16.499259 
L 217.951201 16.499476 
L 236.349869 16.561436 
L 236.349869 16.561436 
" clip-path="url(#p1159f2ed94)" style="fill: none; stroke: #ff7f0e; stroke-width: 0.5; stroke-linecap: square"/>
   </g>
   <g id="line2d_17">
    <path d="M 43.356847 17.005719 
L 44.450474 16.635141 
L 45.029453 16.639955 
L 45.47977 16.846056 
L 46.444736 17.395415 
L 46.830722 17.298155 
L 47.281039 16.878706 
L 47.924349 16.322818 
L 48.246004 16.294386 
L 48.63199 16.527949 
L 49.532624 17.241509 
L 49.854279 17.203736 
L 50.433258 16.837505 
L 50.947906 16.590383 
L 51.333892 16.680133 
L 52.556181 17.231464 
L 53.006498 17.127551 
L 53.842801 16.85362 
L 54.357449 16.958746 
L 55.772732 17.387582 
L 56.480373 17.219432 
L 56.995021 17.195064 
L 57.895655 17.420327 
L 58.281641 17.389064 
L 59.053613 17.245455 
L 59.761254 17.346336 
L 60.404564 17.207223 
L 61.176536 17.199527 
L 62.334494 17.22253 
L 63.106466 16.753173 
L 64.521749 17.102542 
L 65.422383 16.935077 
L 66.258686 16.964478 
L 67.352313 16.52867 
L 68.059954 16.961084 
L 68.381609 16.837073 
L 69.346574 16.357751 
L 70.118546 16.348145 
L 70.440201 16.503315 
L 71.533828 17.266174 
L 72.691787 17.580075 
L 73.013442 17.414233 
L 73.849745 16.856942 
L 74.1714 16.870987 
L 74.750379 17.259177 
L 75.45802 17.860749 
L 75.715344 17.738714 
L 76.10133 17.120139 
L 76.487316 16.693447 
L 77.001964 16.554412 
L 78.67457 16.583052 
L 79.575204 16.521422 
L 79.96119 16.662582 
L 80.861824 17.219281 
L 81.955452 17.223074 
L 82.920417 17.451807 
L 85.172002 16.561006 
L 85.68665 16.395739 
L 86.008305 16.529157 
L 87.166263 17.232855 
L 87.680911 17.21371 
L 89.932496 16.783271 
L 91.605103 17.019969 
L 98.166865 16.48403 
L 98.745844 16.448058 
L 99.389155 16.683845 
L 100.933099 17.289255 
L 101.447747 17.31152 
L 102.091057 17.06135 
L 103.056022 16.705472 
L 104.406973 16.489469 
L 105.114614 16.533475 
L 106.529896 16.692224 
L 108.910144 16.830472 
L 110.261095 17.030437 
L 111.161729 17.178707 
L 112.255356 17.395213 
L 113.027328 17.248362 
L 113.7993 17.162026 
L 115.021589 17.052041 
L 117.208844 16.751661 
L 118.495464 16.895697 
L 119.782084 16.696064 
L 121.583352 17.228534 
L 122.483986 16.9992 
L 123.641944 16.884472 
L 124.413916 17.13447 
L 125.378881 16.757387 
L 125.957861 16.294972 
L 126.279516 16.383837 
L 126.794164 16.876293 
L 127.244481 17.251576 
L 127.630467 17.221346 
L 128.145115 16.978121 
L 128.724094 16.616258 
L 129.238742 16.679686 
L 129.689059 16.934581 
L 130.525362 17.461955 
L 130.911348 17.254694 
L 131.618989 16.663229 
L 132.004975 16.398558 
L 132.390961 16.448433 
L 132.96994 16.555376 
L 133.870574 16.380964 
L 134.706878 16.668756 
L 135.221526 16.553783 
L 135.607512 16.552292 
L 136.76547 16.945418 
L 137.280118 16.850553 
L 138.631069 16.102145 
L 138.952724 16.106766 
L 139.274379 16.342715 
L 139.660365 16.623777 
L 139.917689 16.548175 
L 140.303675 16.442252 
L 140.753992 16.722415 
L 142.040612 17.401522 
L 143.648888 17.112665 
L 144.485191 17.125091 
L 145.385825 17.141433 
L 146.029135 17.287259 
L 146.608114 17.148301 
L 147.444417 16.971401 
L 148.216389 17.061092 
L 149.56734 17.243509 
L 151.368608 17.011437 
L 152.976884 16.696008 
L 153.877518 17.069257 
L 154.971145 17.49166 
L 155.678786 17.465193 
L 159.15266 17.054884 
L 160.825266 17.034742 
L 162.047556 16.66809 
L 162.755197 16.690959 
L 164.942451 17.045648 
L 166.679388 17.174092 
L 167.644353 17.094713 
L 170.474918 16.686361 
L 171.439883 16.937095 
L 172.211855 17.008325 
L 172.983827 16.836605 
L 174.013123 16.608005 
L 174.592102 16.713543 
L 176.136046 17.268318 
L 176.715025 16.993677 
L 177.358335 16.731688 
L 177.937314 16.760112 
L 179.54559 17.053472 
L 181.025203 17.155471 
L 181.925837 17.31207 
L 182.890802 17.356225 
L 183.662774 17.35293 
L 184.370415 17.347173 
L 185.013725 17.549545 
L 185.657035 17.788675 
L 185.97869 17.719103 
L 186.879324 17.270524 
L 187.522634 17.27203 
L 188.101613 17.206295 
L 188.680593 17.46296 
L 189.002248 17.226738 
L 189.645558 16.726136 
L 189.967213 16.661979 
L 190.41753 16.88688 
L 190.996509 17.186005 
L 191.382495 16.996249 
L 191.897143 16.825403 
L 193.183763 16.798827 
L 194.084397 17.398309 
L 194.470383 17.57535 
L 194.856369 17.681465 
L 195.56401 17.713547 
L 196.20732 17.744015 
L 196.721968 17.625154 
L 197.42961 17.198898 
L 198.201582 17.407858 
L 198.523237 17.510212 
L 198.844892 17.619095 
L 199.295209 17.433642 
L 199.809857 17.084273 
L 200.517498 16.377596 
L 201.225139 16.167574 
L 201.546794 16.282813 
L 202.383097 16.800765 
L 202.704752 16.769281 
L 203.348062 16.606435 
L 203.86271 16.617508 
L 204.377358 16.981019 
L 204.956337 17.248216 
L 205.213661 17.129468 
L 205.728309 16.731783 
L 206.049965 16.870706 
L 207.272254 17.657421 
L 208.172888 17.582184 
L 210.553135 17.146838 
L 211.646762 17.328155 
L 212.16141 17.389646 
L 214.284333 17.898047 
L 215.892609 17.748905 
L 216.986236 17.578508 
L 218.723173 17.0939 
L 219.495145 17.268836 
L 220.46011 17.50943 
L 221.553737 17.494189 
L 222.840357 17.418916 
L 228.823141 17.184049 
L 230.946064 17.376505 
L 232.168353 17.045624 
L 233.583636 16.668909 
L 234.355608 16.719775 
L 235.320573 16.752088 
L 236.349869 16.602276 
L 236.349869 16.602276 
" clip-path="url(#p1159f2ed94)" style="fill: none; stroke: #2ca02c; stroke-width: 0.5; stroke-linecap: square"/>
   </g>
   <g id="patch_3">
    <path d="M 33.707196 202.559296 
L 33.707196 7.2 
" style="fill: none; stroke: #000000; stroke-width: 0.8; stroke-linejoin: miter; stroke-linecap: square"/>
   </g>
   <g id="patch_4">
    <path d="M 245.99952 202.559296 
L 245.99952 7.2 
" style="fill: none; stroke: #000000; stroke-width: 0.8; stroke-linejoin: miter; stroke-linecap: square"/>
   </g>
   <g id="patch_5">
    <path d="M 33.707196 202.559296 
L 245.99952 202.559296 
" style="fill: none; stroke: #000000; stroke-width: 0.8; stroke-linejoin: miter; stroke-linecap: square"/>
   </g>
   <g id="patch_6">
    <path d="M 33.707196 7.2 
L 245.99952 7.2 
" style="fill: none; stroke: #000000; stroke-width: 0.8; stroke-linejoin: miter; stroke-linecap: square"/>
   </g>
   <g id="legend_1">
    <g id="patch_7">
     <path d="M 193.792605 198.059296 
L 239.69952 198.059296 
Q 241.49952 198.059296 241.49952 196.259296 
L 241.49952 156.760168 
Q 241.49952 154.960168 239.69952 154.960168 
L 193.792605 154.960168 
Q 191.992605 154.960168 191.992605 156.760168 
L 191.992605 196.259296 
Q 191.992605 198.059296 193.792605 198.059296 
z
" style="fill: #ffffff; opacity: 0.8; stroke: #cccccc; stroke-width: 0.24; stroke-linejoin: miter"/>
    </g>
    <g id="line2d_18">
     <path d="M 195.592605 162.13495 
L 204.592605 162.13495 
L 213.592605 162.13495 
" style="fill: none; stroke: #1f77b4; stroke-width: 0.5; stroke-linecap: square"/>
    </g>
    <g id="text_16">
     <!-- $\langle \sigma_z\rangle$ -->
     <g transform="translate(220.792605 165.28495) scale(0.09 -0.09)">
      <defs>
       <path id="CMSY10-68" d="M 2099 4557 
C 2131 4627 2131 4640 2131 4672 
C 2131 4742 2074 4800 2003 4800 
C 1946 4800 1901 4768 1856 4653 
L 736 1715 
C 723 1677 704 1638 704 1600 
C 704 1581 704 1568 736 1491 
L 1856 -1446 
C 1882 -1517 1914 -1600 2003 -1600 
C 2074 -1600 2131 -1542 2131 -1472 
C 2131 -1453 2131 -1440 2099 -1370 
L 966 1600 
L 2099 4557 
z
" transform="scale(0.015625)"/>
       <path id="CMMI12-1b" d="M 3251 2408 
C 3334 2408 3546 2408 3546 2612 
C 3546 2752 3424 2752 3309 2752 
L 1894 2752 
C 934 2752 243 1686 243 932 
C 243 390 595 -64 1171 -64 
C 1926 -64 2752 747 2752 1705 
C 2752 1954 2694 2196 2541 2408 
L 3251 2408 
z
M 1178 64 
C 851 64 614 313 614 754 
C 614 1137 845 2408 1786 2408 
C 2061 2408 2368 2274 2368 1781 
C 2368 1558 2266 1021 2042 652 
C 1811 275 1466 64 1178 64 
z
" transform="scale(0.015625)"/>
       <path id="CMMI12-7a" d="M 813 486 
C 1088 803 1312 1004 1632 1296 
C 2016 1632 2182 1793 2272 1891 
C 2720 2338 2944 2713 2944 2764 
C 2944 2816 2893 2816 2880 2816 
C 2835 2816 2822 2793 2790 2750 
C 2630 2494 2477 2367 2310 2367 
C 2176 2367 2106 2421 1984 2565 
C 1850 2715 1741 2816 1555 2816 
C 1088 2816 806 2257 806 2128 
C 806 2108 813 2068 870 2068 
C 922 2068 928 2091 947 2133 
C 1056 2372 1363 2414 1485 2414 
C 1619 2414 1747 2376 1882 2327 
C 2125 2240 2227 2240 2291 2240 
C 2336 2240 2362 2240 2394 2246 
C 2182 1994 1837 1683 1549 1418 
L 902 816 
C 512 415 275 33 275 -12 
C 275 -51 307 -64 346 -64 
C 384 -64 390 -57 435 14 
C 538 163 742 384 979 384 
C 1114 384 1178 342 1306 193 
C 1427 61 1536 -64 1741 -64 
C 2368 -64 2726 732 2726 876 
C 2726 903 2720 942 2656 942 
C 2605 942 2598 917 2579 855 
C 2438 488 2061 338 1811 338 
C 1677 338 1549 376 1414 425 
C 1158 512 1088 512 1005 512 
C 941 512 870 512 813 486 
z
" transform="scale(0.015625)"/>
       <path id="CMSY10-69" d="M 1747 1491 
C 1779 1568 1779 1581 1779 1600 
C 1779 1619 1779 1632 1747 1709 
L 627 4653 
C 589 4762 550 4800 480 4800 
C 410 4800 352 4742 352 4672 
C 352 4653 352 4640 384 4570 
L 1517 1600 
L 384 -1357 
C 352 -1427 352 -1440 352 -1472 
C 352 -1542 410 -1600 480 -1600 
C 563 -1600 589 -1536 614 -1472 
L 1747 1491 
z
" transform="scale(0.015625)"/>
      </defs>
      <use xlink:href="#CMSY10-68" transform="scale(0.996264)"/>
      <use xlink:href="#CMMI12-1b" transform="translate(38.743734 0) scale(0.996264)"/>
      <use xlink:href="#CMMI12-7a" transform="translate(94.189195 -14.943915) scale(0.697382)"/>
      <use xlink:href="#CMSY10-69" transform="translate(129.51575 0) scale(0.996264)"/>
     </g>
    </g>
    <g id="line2d_19">
     <path d="M 195.592605 175.601326 
L 204.592605 175.601326 
L 213.592605 175.601326 
" style="fill: none; stroke: #ff7f0e; stroke-width: 0.5; stroke-linecap: square"/>
    </g>
    <g id="text_17">
     <!-- $\langle \sigma_x\rangle$ -->
     <g transform="translate(220.792605 178.751326) scale(0.09 -0.09)">
      <defs>
       <path id="CMMI12-78" d="M 3034 2606 
C 2829 2567 2752 2414 2752 2293 
C 2752 2139 2874 2088 2963 2088 
C 3155 2088 3290 2254 3290 2427 
C 3290 2695 2982 2816 2714 2816 
C 2323 2816 2106 2433 2048 2312 
C 1901 2816 1504 2816 1389 2816 
C 736 2816 390 1980 390 1839 
C 390 1814 416 1782 461 1782 
C 512 1782 525 1820 538 1846 
C 755 2555 1184 2689 1370 2689 
C 1658 2689 1715 2420 1715 2267 
C 1715 2127 1677 1980 1600 1673 
L 1382 798 
C 1286 415 1101 64 762 64 
C 730 64 570 64 435 147 
C 666 192 717 383 717 460 
C 717 588 621 664 499 664 
C 346 664 179 530 179 326 
C 179 57 480 -64 755 -64 
C 1062 -64 1280 179 1414 441 
C 1517 64 1837 -64 2074 -64 
C 2726 -64 3072 773 3072 913 
C 3072 945 3046 971 3008 971 
C 2950 971 2944 939 2925 888 
C 2752 326 2381 64 2093 64 
C 1869 64 1747 230 1747 492 
C 1747 632 1773 734 1875 1156 
L 2099 2024 
C 2195 2408 2413 2689 2707 2689 
C 2720 2689 2899 2689 3034 2606 
z
" transform="scale(0.015625)"/>
      </defs>
      <use xlink:href="#CMSY10-68" transform="scale(0.996264)"/>
      <use xlink:href="#CMMI12-1b" transform="translate(38.743734 0) scale(0.996264)"/>
      <use xlink:href="#CMMI12-78" transform="translate(94.189195 -14.943915) scale(0.697382)"/>
      <use xlink:href="#CMSY10-69" transform="translate(133.490986 0) scale(0.996264)"/>
     </g>
    </g>
    <g id="line2d_20">
     <path d="M 195.592605 189.067702 
L 204.592605 189.067702 
L 213.592605 189.067702 
" style="fill: none; stroke: #2ca02c; stroke-width: 0.5; stroke-linecap: square"/>
    </g>
    <g id="text_18">
     <!-- $\langle \sigma_y\rangle$ -->
     <g transform="translate(220.792605 192.217702) scale(0.09 -0.09)">
      <defs>
       <path id="CMMI12-79" d="M 1683 -700 
C 1510 -939 1261 -1152 947 -1152 
C 870 -1152 563 -1152 467 -889 
C 486 -895 518 -895 531 -895 
C 723 -895 851 -729 851 -582 
C 851 -435 730 -384 634 -384 
C 531 -384 307 -458 307 -759 
C 307 -1071 582 -1286 947 -1286 
C 1587 -1286 2234 -700 2413 6 
L 3040 2485 
C 3046 2517 3059 2556 3059 2594 
C 3059 2689 2982 2753 2886 2753 
C 2829 2753 2694 2727 2643 2535 
L 2170 658 
C 2138 543 2138 530 2086 460 
C 1958 281 1747 64 1440 64 
C 1082 64 1050 415 1050 588 
C 1050 952 1222 1443 1395 1903 
C 1466 2088 1504 2178 1504 2305 
C 1504 2574 1312 2816 998 2816 
C 410 2816 173 1890 173 1839 
C 173 1814 198 1782 243 1782 
C 301 1782 307 1807 333 1897 
C 486 2433 730 2689 979 2689 
C 1037 2689 1146 2689 1146 2478 
C 1146 2312 1075 2127 979 1884 
C 666 1047 666 837 666 683 
C 666 77 1101 -64 1421 -64 
C 1606 -64 1837 -6 2061 230 
L 2067 224 
C 1971 -147 1907 -392 1683 -700 
z
" transform="scale(0.015625)"/>
      </defs>
      <use xlink:href="#CMSY10-68" transform="scale(0.996264)"/>
      <use xlink:href="#CMMI12-1b" transform="translate(38.743734 0) scale(0.996264)"/>
      <use xlink:href="#CMMI12-79" transform="translate(94.189195 -14.943915) scale(0.697382)"/>
      <use xlink:href="#CMSY10-69" transform="translate(130.484301 0) scale(0.996264)"/>
     </g>
    </g>
   </g>
  </g>
 </g>
 <defs>
  <clipPath id="p1159f2ed94">
   <rect x="33.707196" y="7.2" width="212.292324" height="195.359296"/>
  </clipPath>
 </defs>
</svg>
