<?xml version="1.0" encoding="utf-8" standalone="no"?>
<!DOCTYPE svg PUBLIC "-//W3C//DTD SVG 1.1//EN"
  "http://www.w3.org/Graphics/SVG/1.1/DTD/svg11.dtd">
<svg xmlns:xlink="http://www.w3.org/1999/xlink" width="253.19952pt" height="238.79952pt" viewBox="0 0 253.19952 238.79952" xmlns="http://www.w3.org/2000/svg" version="1.1">
 <metadata>
  <rdf:RDF xmlns:dc="http://purl.org/dc/elements/1.1/" xmlns:cc="http://creativecommons.org/ns#" xmlns:rdf="http://www.w3.org/1999/02/22-rdf-syntax-ns#">
   <cc:Work>
    <dc:type rdf:resource="http://purl.org/dc/dcmitype/StillImage"/>
    <dc:date>1980-01-01T00:00:00+00:00</dc:date>
    <dc:format>image/svg+xml</dc:format>
    <dc:creator>
     <cc:Agent>
      <dc:title>Matplotlib v3.6.2, https://matplotlib.org/</dc:title>
     </cc:Agent>
    </dc:creator>
   </cc:Work>
  </rdf:RDF>
 </metadata>
 <defs>
  <style type="text/css">*{stroke-linejoin: round; stroke-linecap: butt}</style>
 </defs>
 <g id="figure_1">
  <g id="patch_1">
   <path d="M 0 238.79952 
L 253.19952 238.79952 
L 253.19952 0 
L 0 0 
z
" style="fill: #ffffff"/>
  </g>
  <g id="axes_1">
   <g id="patch_2">
    <path d="M 33.707196 202.559296 
L 245.99952 202.559296 
L 245.99952 7.2 
L 33.707196 7.2 
z
" style="fill: #ffffff"/>
   </g>
   <g id="matplotlib.axis_1">
    <g id="xtick_1">
     <g id="line2d_1">
      <defs>
       <path id="me48c0af0f1" d="M 0 0 
L 0 3.5 
" style="stroke: #000000; stroke-width: 0.8"/>
      </defs>
      <g>
       <use xlink:href="#me48c0af0f1" x="43.356847" y="202.559296" style="stroke: #000000; stroke-width: 0.8"/>
      </g>
     </g>
     <g id="text_1">
      <!-- $\mathdefault{0}$ -->
      <g transform="translate(41.239756 217.194098) scale(0.08 -0.08)">
       <defs>
        <path id="CMR17-30" d="M 2688 2025 
C 2688 2416 2682 3080 2413 3591 
C 2176 4039 1798 4198 1466 4198 
C 1158 4198 768 4058 525 3597 
C 269 3118 243 2524 243 2025 
C 243 1661 250 1106 448 619 
C 723 -39 1216 -128 1466 -128 
C 1760 -128 2208 -7 2470 600 
C 2662 1042 2688 1559 2688 2025 
z
M 1466 -26 
C 1056 -26 813 325 723 812 
C 653 1188 653 1738 653 2096 
C 653 2588 653 2997 736 3387 
C 858 3929 1216 4096 1466 4096 
C 1728 4096 2067 3923 2189 3400 
C 2272 3036 2278 2607 2278 2096 
C 2278 1680 2278 1169 2202 792 
C 2067 95 1690 -26 1466 -26 
z
" transform="scale(0.015625)"/>
       </defs>
       <use xlink:href="#CMR17-30" transform="scale(0.996264)"/>
      </g>
     </g>
    </g>
    <g id="xtick_2">
     <g id="line2d_2">
      <g>
       <use xlink:href="#me48c0af0f1" x="70.161434" y="202.559296" style="stroke: #000000; stroke-width: 0.8"/>
      </g>
     </g>
     <g id="text_2">
      <!-- $\mathdefault{25}$ -->
      <g transform="translate(65.927251 217.194098) scale(0.08 -0.08)">
       <defs>
        <path id="CMR17-32" d="M 2669 989 
L 2554 989 
C 2490 536 2438 459 2413 420 
C 2381 369 1920 369 1830 369 
L 602 369 
C 832 619 1280 1072 1824 1597 
C 2214 1967 2669 2402 2669 3035 
C 2669 3790 2067 4224 1395 4224 
C 691 4224 262 3604 262 3030 
C 262 2780 448 2748 525 2748 
C 589 2748 781 2787 781 3010 
C 781 3207 614 3264 525 3264 
C 486 3264 448 3258 422 3245 
C 544 3790 915 4058 1306 4058 
C 1862 4058 2227 3617 2227 3035 
C 2227 2479 1901 2000 1536 1584 
L 262 146 
L 262 0 
L 2515 0 
L 2669 989 
z
" transform="scale(0.015625)"/>
        <path id="CMR17-35" d="M 730 3692 
C 794 3666 1056 3584 1325 3584 
C 1920 3584 2246 3911 2432 4100 
C 2432 4157 2432 4192 2394 4192 
C 2387 4192 2374 4192 2323 4163 
C 2099 4058 1837 3973 1517 3973 
C 1325 3973 1037 3999 723 4139 
C 653 4171 640 4171 634 4171 
C 602 4171 595 4164 595 4037 
L 595 2203 
C 595 2089 595 2057 659 2057 
C 691 2057 704 2070 736 2114 
C 941 2401 1222 2522 1542 2522 
C 1766 2522 2246 2382 2246 1289 
C 2246 1085 2246 715 2054 421 
C 1894 159 1645 25 1370 25 
C 947 25 518 320 403 814 
C 429 807 480 795 506 795 
C 589 795 749 840 749 1038 
C 749 1210 627 1280 506 1280 
C 358 1280 262 1190 262 1011 
C 262 454 704 -128 1382 -128 
C 2042 -128 2669 440 2669 1264 
C 2669 2030 2170 2624 1549 2624 
C 1222 2624 947 2503 730 2274 
L 730 3692 
z
" transform="scale(0.015625)"/>
       </defs>
       <use xlink:href="#CMR17-32" transform="scale(0.996264)"/>
       <use xlink:href="#CMR17-35" transform="translate(45.690477 0) scale(0.996264)"/>
      </g>
     </g>
    </g>
    <g id="xtick_3">
     <g id="line2d_3">
      <g>
       <use xlink:href="#me48c0af0f1" x="96.96602" y="202.559296" style="stroke: #000000; stroke-width: 0.8"/>
      </g>
     </g>
     <g id="text_3">
      <!-- $\mathdefault{50}$ -->
      <g transform="translate(92.731837 217.194098) scale(0.08 -0.08)">
       <use xlink:href="#CMR17-35" transform="scale(0.996264)"/>
       <use xlink:href="#CMR17-30" transform="translate(45.690477 0) scale(0.996264)"/>
      </g>
     </g>
    </g>
    <g id="xtick_4">
     <g id="line2d_4">
      <g>
       <use xlink:href="#me48c0af0f1" x="123.770606" y="202.559296" style="stroke: #000000; stroke-width: 0.8"/>
      </g>
     </g>
     <g id="text_4">
      <!-- $\mathdefault{75}$ -->
      <g transform="translate(119.536423 217.194098) scale(0.08 -0.08)">
       <defs>
        <path id="CMR17-37" d="M 2886 3941 
L 2886 4081 
L 1382 4081 
C 634 4081 621 4165 595 4288 
L 480 4288 
L 294 3094 
L 410 3094 
C 429 3215 474 3540 550 3661 
C 589 3712 1062 3712 1171 3712 
L 2579 3712 
L 1869 2661 
C 1395 1954 1069 999 1069 165 
C 1069 89 1069 -128 1299 -128 
C 1530 -128 1530 89 1530 171 
L 1530 465 
C 1530 1508 1709 2196 2003 2636 
L 2886 3941 
z
" transform="scale(0.015625)"/>
       </defs>
       <use xlink:href="#CMR17-37" transform="scale(0.996264)"/>
       <use xlink:href="#CMR17-35" transform="translate(45.690477 0) scale(0.996264)"/>
      </g>
     </g>
    </g>
    <g id="xtick_5">
     <g id="line2d_5">
      <g>
       <use xlink:href="#me48c0af0f1" x="150.575193" y="202.559296" style="stroke: #000000; stroke-width: 0.8"/>
      </g>
     </g>
     <g id="text_5">
      <!-- $\mathdefault{100}$ -->
      <g transform="translate(144.223918 217.194098) scale(0.08 -0.08)">
       <defs>
        <path id="CMR17-31" d="M 1702 4058 
C 1702 4192 1696 4192 1606 4192 
C 1357 3916 979 3827 621 3827 
C 602 3827 570 3827 563 3808 
C 557 3795 557 3782 557 3648 
C 755 3648 1088 3686 1344 3839 
L 1344 461 
C 1344 236 1331 160 781 160 
L 589 160 
L 589 0 
C 896 0 1216 0 1523 0 
C 1830 0 2150 0 2458 0 
L 2458 160 
L 2266 160 
C 1715 160 1702 230 1702 458 
L 1702 4058 
z
" transform="scale(0.015625)"/>
       </defs>
       <use xlink:href="#CMR17-31" transform="scale(0.996264)"/>
       <use xlink:href="#CMR17-30" transform="translate(45.690477 0) scale(0.996264)"/>
       <use xlink:href="#CMR17-30" transform="translate(91.380954 0) scale(0.996264)"/>
      </g>
     </g>
    </g>
    <g id="xtick_6">
     <g id="line2d_6">
      <g>
       <use xlink:href="#me48c0af0f1" x="177.379779" y="202.559296" style="stroke: #000000; stroke-width: 0.8"/>
      </g>
     </g>
     <g id="text_6">
      <!-- $\mathdefault{125}$ -->
      <g transform="translate(171.028505 217.194098) scale(0.08 -0.08)">
       <use xlink:href="#CMR17-31" transform="scale(0.996264)"/>
       <use xlink:href="#CMR17-32" transform="translate(45.690477 0) scale(0.996264)"/>
       <use xlink:href="#CMR17-35" transform="translate(91.380954 0) scale(0.996264)"/>
      </g>
     </g>
    </g>
    <g id="xtick_7">
     <g id="line2d_7">
      <g>
       <use xlink:href="#me48c0af0f1" x="204.184365" y="202.559296" style="stroke: #000000; stroke-width: 0.8"/>
      </g>
     </g>
     <g id="text_7">
      <!-- $\mathdefault{150}$ -->
      <g transform="translate(197.833091 217.194098) scale(0.08 -0.08)">
       <use xlink:href="#CMR17-31" transform="scale(0.996264)"/>
       <use xlink:href="#CMR17-35" transform="translate(45.690477 0) scale(0.996264)"/>
       <use xlink:href="#CMR17-30" transform="translate(91.380954 0) scale(0.996264)"/>
      </g>
     </g>
    </g>
    <g id="xtick_8">
     <g id="line2d_8">
      <g>
       <use xlink:href="#me48c0af0f1" x="230.988952" y="202.559296" style="stroke: #000000; stroke-width: 0.8"/>
      </g>
     </g>
     <g id="text_8">
      <!-- $\mathdefault{175}$ -->
      <g transform="translate(224.637677 217.194098) scale(0.08 -0.08)">
       <use xlink:href="#CMR17-31" transform="scale(0.996264)"/>
       <use xlink:href="#CMR17-37" transform="translate(45.690477 0) scale(0.996264)"/>
       <use xlink:href="#CMR17-35" transform="translate(91.380954 0) scale(0.996264)"/>
      </g>
     </g>
    </g>
    <g id="text_9">
     <!-- $\tau$ -->
     <g transform="translate(137.675756 229.662342) scale(0.1 -0.1)">
      <defs>
       <path id="CMMI12-1c" d="M 1837 2408 
L 2899 2408 
C 2982 2408 3194 2408 3194 2612 
C 3194 2752 3072 2752 2957 2752 
L 1197 2752 
C 1050 2752 832 2752 538 2440 
C 371 2255 166 1917 166 1879 
C 166 1841 198 1828 237 1828 
C 282 1828 288 1847 320 1885 
C 653 2408 986 2408 1146 2408 
L 1677 2408 
L 1011 223 
C 979 127 979 114 979 95 
C 979 25 1024 -64 1152 -64 
C 1350 -64 1382 108 1402 203 
L 1837 2408 
z
" transform="scale(0.015625)"/>
      </defs>
      <use xlink:href="#CMMI12-1c" transform="scale(0.996264)"/>
     </g>
    </g>
   </g>
   <g id="matplotlib.axis_2">
    <g id="ytick_1">
     <g id="line2d_9">
      <defs>
       <path id="m0e76ee59f2" d="M 0 0 
L -3.5 0 
" style="stroke: #000000; stroke-width: 0.8"/>
      </defs>
      <g>
       <use xlink:href="#m0e76ee59f2" x="33.707196" y="193.679328" style="stroke: #000000; stroke-width: 0.8"/>
      </g>
     </g>
     <g id="text_10">
      <!-- $\mathdefault{−1.0}$ -->
      <g transform="translate(7.2 196.446729) scale(0.08 -0.08)">
       <defs>
        <path id="CMSY10-0" d="M 4218 1472 
C 4326 1472 4442 1472 4442 1600 
C 4442 1728 4326 1728 4218 1728 
L 755 1728 
C 646 1728 531 1728 531 1600 
C 531 1472 646 1472 755 1472 
L 4218 1472 
z
" transform="scale(0.015625)"/>
        <path id="CMMI12-3a" d="M 1178 307 
C 1178 492 1024 619 870 619 
C 685 619 557 466 557 313 
C 557 128 710 0 864 0 
C 1050 0 1178 153 1178 307 
z
" transform="scale(0.015625)"/>
       </defs>
       <use xlink:href="#CMSY10-0" transform="scale(0.996264)"/>
       <use xlink:href="#CMR17-31" transform="translate(77.487468 0) scale(0.996264)"/>
       <use xlink:href="#CMMI12-3a" transform="translate(123.177945 0) scale(0.996264)"/>
       <use xlink:href="#CMR17-30" transform="translate(150.275122 0) scale(0.996264)"/>
      </g>
     </g>
    </g>
    <g id="ytick_2">
     <g id="line2d_10">
      <g>
       <use xlink:href="#m0e76ee59f2" x="33.707196" y="158.368391" style="stroke: #000000; stroke-width: 0.8"/>
      </g>
     </g>
     <g id="text_11">
      <!-- $\mathdefault{−0.8}$ -->
      <g transform="translate(7.2 161.135792) scale(0.08 -0.08)">
       <defs>
        <path id="CMR17-38" d="M 1741 2264 
C 2144 2467 2554 2773 2554 3263 
C 2554 3841 1990 4179 1472 4179 
C 890 4179 378 3759 378 3180 
C 378 3021 416 2747 666 2505 
C 730 2442 998 2251 1171 2130 
C 883 1983 211 1634 211 934 
C 211 279 838 -128 1459 -128 
C 2144 -128 2720 362 2720 1010 
C 2720 1590 2330 1857 2074 2029 
L 1741 2264 
z
M 902 2822 
C 851 2854 595 3051 595 3351 
C 595 3739 998 4032 1459 4032 
C 1965 4032 2336 3676 2336 3262 
C 2336 2669 1670 2331 1638 2331 
C 1632 2331 1626 2331 1574 2370 
L 902 2822 
z
M 2080 1519 
C 2176 1449 2483 1240 2483 851 
C 2483 381 2010 25 1472 25 
C 890 25 448 438 448 940 
C 448 1443 838 1862 1280 2060 
L 2080 1519 
z
" transform="scale(0.015625)"/>
       </defs>
       <use xlink:href="#CMSY10-0" transform="scale(0.996264)"/>
       <use xlink:href="#CMR17-30" transform="translate(77.487468 0) scale(0.996264)"/>
       <use xlink:href="#CMMI12-3a" transform="translate(123.177945 0) scale(0.996264)"/>
       <use xlink:href="#CMR17-38" transform="translate(150.275122 0) scale(0.996264)"/>
      </g>
     </g>
    </g>
    <g id="ytick_3">
     <g id="line2d_11">
      <g>
       <use xlink:href="#m0e76ee59f2" x="33.707196" y="123.057454" style="stroke: #000000; stroke-width: 0.8"/>
      </g>
     </g>
     <g id="text_12">
      <!-- $\mathdefault{−0.6}$ -->
      <g transform="translate(7.2 125.824855) scale(0.08 -0.08)">
       <defs>
        <path id="CMR17-36" d="M 678 2176 
C 678 3690 1395 4032 1811 4032 
C 1946 4032 2272 4009 2400 3776 
C 2298 3776 2106 3776 2106 3553 
C 2106 3381 2246 3323 2336 3323 
C 2394 3323 2566 3348 2566 3560 
C 2566 3954 2246 4179 1805 4179 
C 1043 4179 243 3390 243 1984 
C 243 253 966 -128 1478 -128 
C 2099 -128 2688 427 2688 1283 
C 2688 2081 2170 2662 1517 2662 
C 1126 2662 838 2407 678 1960 
L 678 2176 
z
M 1478 25 
C 691 25 691 1200 691 1436 
C 691 1896 909 2560 1504 2560 
C 1613 2560 1926 2560 2138 2120 
C 2253 1870 2253 1609 2253 1289 
C 2253 944 2253 690 2118 434 
C 1978 171 1773 25 1478 25 
z
" transform="scale(0.015625)"/>
       </defs>
       <use xlink:href="#CMSY10-0" transform="scale(0.996264)"/>
       <use xlink:href="#CMR17-30" transform="translate(77.487468 0) scale(0.996264)"/>
       <use xlink:href="#CMMI12-3a" transform="translate(123.177945 0) scale(0.996264)"/>
       <use xlink:href="#CMR17-36" transform="translate(150.275122 0) scale(0.996264)"/>
      </g>
     </g>
    </g>
    <g id="ytick_4">
     <g id="line2d_12">
      <g>
       <use xlink:href="#m0e76ee59f2" x="33.707196" y="87.746517" style="stroke: #000000; stroke-width: 0.8"/>
      </g>
     </g>
     <g id="text_13">
      <!-- $\mathdefault{−0.4}$ -->
      <g transform="translate(7.2 90.513918) scale(0.08 -0.08)">
       <defs>
        <path id="CMR17-34" d="M 2150 4122 
C 2150 4256 2144 4256 2029 4256 
L 128 1254 
L 128 1088 
L 1779 1088 
L 1779 457 
C 1779 224 1766 160 1318 160 
L 1197 160 
L 1197 0 
C 1402 0 1747 0 1965 0 
C 2182 0 2528 0 2733 0 
L 2733 160 
L 2611 160 
C 2163 160 2150 224 2150 457 
L 2150 1088 
L 2803 1088 
L 2803 1254 
L 2150 1254 
L 2150 4122 
z
M 1798 3703 
L 1798 1254 
L 256 1254 
L 1798 3703 
z
" transform="scale(0.015625)"/>
       </defs>
       <use xlink:href="#CMSY10-0" transform="scale(0.996264)"/>
       <use xlink:href="#CMR17-30" transform="translate(77.487468 0) scale(0.996264)"/>
       <use xlink:href="#CMMI12-3a" transform="translate(123.177945 0) scale(0.996264)"/>
       <use xlink:href="#CMR17-34" transform="translate(150.275122 0) scale(0.996264)"/>
      </g>
     </g>
    </g>
    <g id="ytick_5">
     <g id="line2d_13">
      <g>
       <use xlink:href="#m0e76ee59f2" x="33.707196" y="52.43558" style="stroke: #000000; stroke-width: 0.8"/>
      </g>
     </g>
     <g id="text_14">
      <!-- $\mathdefault{−0.2}$ -->
      <g transform="translate(7.2 55.202981) scale(0.08 -0.08)">
       <use xlink:href="#CMSY10-0" transform="scale(0.996264)"/>
       <use xlink:href="#CMR17-30" transform="translate(77.487468 0) scale(0.996264)"/>
       <use xlink:href="#CMMI12-3a" transform="translate(123.177945 0) scale(0.996264)"/>
       <use xlink:href="#CMR17-32" transform="translate(150.275122 0) scale(0.996264)"/>
      </g>
     </g>
    </g>
    <g id="ytick_6">
     <g id="line2d_14">
      <g>
       <use xlink:href="#m0e76ee59f2" x="33.707196" y="17.124643" style="stroke: #000000; stroke-width: 0.8"/>
      </g>
     </g>
     <g id="text_15">
      <!-- $\mathdefault{0.0}$ -->
      <g transform="translate(13.786507 19.892044) scale(0.08 -0.08)">
       <use xlink:href="#CMR17-30" transform="scale(0.996264)"/>
       <use xlink:href="#CMMI12-3a" transform="translate(45.690477 0) scale(0.996264)"/>
       <use xlink:href="#CMR17-30" transform="translate(72.787654 0) scale(0.996264)"/>
      </g>
     </g>
    </g>
   </g>
   <g id="line2d_15">
    <path d="M 43.356847 193.679328 
L 52.749174 193.575637 
L 53.070829 193.345957 
L 53.392484 192.817426 
L 53.714139 191.780863 
L 54.035794 189.973285 
L 54.42178 186.413504 
L 54.872098 179.935176 
L 55.451077 167.986396 
L 56.544704 139.275699 
L 57.702662 111.758715 
L 58.474634 98.845103 
L 59.246606 89.290989 
L 60.018578 82.560032 
L 61.112205 75.218046 
L 61.819846 71.88978 
L 62.72048 68.698533 
L 64.972066 62.926892 
L 65.937031 62.119229 
L 68.574602 61.246618 
L 68.896257 61.166803 
L 69.153581 61.318515 
L 69.925553 61.93281 
L 70.440201 62.150481 
L 70.826187 62.701774 
L 71.855483 64.358057 
L 72.563125 65.064695 
L 73.270766 65.573211 
L 73.978407 65.787397 
L 75.136365 65.850702 
L 86.008305 65.948812 
L 86.32996 66.163612 
L 86.715946 66.685683 
L 87.101932 67.558548 
L 87.423587 68.825684 
L 87.938235 71.986893 
L 88.452883 76.689185 
L 89.224855 86.109771 
L 91.862427 120.009762 
L 92.763061 128.033859 
L 93.599364 133.498155 
L 94.371336 137.123363 
L 95.464963 141.196638 
L 96.365597 143.465236 
L 97.459224 145.612006 
L 98.166865 146.513728 
L 99.453486 147.570061 
L 101.190423 148.730729 
L 101.705071 149.533342 
L 102.091057 150.471929 
L 102.605705 152.385264 
L 103.763663 157.83 
L 104.664297 161.555072 
L 105.243276 163.033071 
L 105.757924 163.749717 
L 106.272572 164.065219 
L 106.915882 164.16367 
L 110.58275 164.169935 
L 117.144513 164.060906 
L 117.530499 163.749142 
L 117.852154 163.16183 
L 118.173809 162.076594 
L 118.559795 159.810281 
L 119.010112 155.459112 
L 119.52476 148.064655 
L 120.296732 133.036371 
L 121.712014 104.658388 
L 122.612648 92.142942 
L 123.320289 84.411856 
L 123.963599 79.821679 
L 125.571874 70.964294 
L 126.408178 68.354386 
L 127.759129 64.935533 
L 128.338108 63.703691 
L 128.724094 63.407178 
L 129.496066 62.861267 
L 130.525362 61.876894 
L 132.519623 60.332312 
L 132.905609 60.529838 
L 133.291595 60.606692 
L 134.449553 60.675095 
L 134.83554 61.119464 
L 137.151456 64.201169 
L 137.859097 64.625908 
L 138.566738 64.777174 
L 140.368006 64.799425 
L 150.146319 64.897224 
L 150.596636 65.111521 
L 150.982622 65.566264 
L 151.368608 66.439391 
L 151.754594 67.907181 
L 152.204911 70.60618 
L 152.71956 75.168857 
L 153.427201 83.778396 
L 156.129103 119.441444 
L 157.158399 128.353975 
L 157.930371 133.36827 
L 158.895336 138.199839 
L 159.667308 140.843256 
L 160.760935 143.752378 
L 161.339914 144.794 
L 162.497873 146.394714 
L 163.205514 147.135448 
L 164.299141 147.897106 
L 165.585761 148.605119 
L 165.907416 149.064864 
L 166.293402 150.041781 
L 167.001043 152.537571 
L 168.416325 159.134698 
L 169.059635 161.548571 
L 169.638614 162.91973 
L 170.153262 163.582059 
L 170.667911 163.871976 
L 171.375552 163.95763 
L 178.3233 163.96044 
L 181.47552 163.858169 
L 181.861506 163.562109 
L 182.183161 162.987404 
L 182.504816 161.888279 
L 182.890802 159.6283 
L 183.276788 156.065025 
L 183.791436 148.939096 
L 184.563408 134.336064 
L 186.300345 100.063739 
L 187.072317 90.073945 
L 187.779958 83.280324 
L 188.616262 77.283011 
L 189.516896 72.707828 
L 190.610523 67.980841 
L 191.382495 65.905074 
L 192.411791 63.859478 
L 192.797777 63.433448 
L 193.63408 63.078053 
L 194.341721 62.814253 
L 195.499679 61.934064 
L 197.751265 60.657913 
L 198.587568 60.887462 
L 199.037885 61.13787 
L 199.423871 61.603204 
L 201.225139 64.416239 
L 201.93278 64.894927 
L 202.704752 65.073665 
L 203.991372 65.114741 
L 214.798981 65.219024 
L 215.184968 65.515778 
L 215.506623 66.013682 
L 215.892609 67.089489 
L 216.278595 68.857618 
L 216.793243 72.5954 
L 217.372222 78.648389 
L 218.401518 92.781805 
L 219.945462 113.631601 
L 220.910427 123.844386 
L 221.682399 129.987783 
L 222.454371 134.539764 
L 223.419336 138.798519 
L 224.191309 141.333888 
L 225.091943 143.607467 
L 226.507225 146.085309 
L 227.086204 146.784888 
L 227.858176 147.45348 
L 229.209127 148.297899 
L 229.788106 148.802664 
L 230.302754 149.451546 
L 230.68874 150.379877 
L 231.267719 152.483536 
L 232.554339 158.478754 
L 233.390643 161.769137 
L 233.969622 163.148879 
L 234.48427 163.824204 
L 234.998918 164.107767 
L 235.706559 164.188071 
L 236.349869 164.190349 
L 236.349869 164.190349 
" clip-path="url(#p14b9ffeb00)" style="fill: none; stroke: #ff7f0e; stroke-width: 0.5; stroke-linecap: square"/>
   </g>
   <g id="line2d_16">
    <path d="M 43.356847 17.124643 
L 54.164456 17.213887 
L 55.129422 17.53709 
L 55.772732 17.333209 
L 56.351711 16.949855 
L 56.866359 16.651904 
L 57.252345 16.704718 
L 58.024317 16.881658 
L 58.410303 16.745946 
L 58.924951 16.549537 
L 60.14724 16.720637 
L 61.112205 17.120909 
L 61.819846 17.025384 
L 62.270163 17.006965 
L 63.042135 17.166289 
L 63.556784 17.168754 
L 65.036397 17.348024 
L 65.551045 17.233616 
L 66.194355 16.835126 
L 66.644672 16.623081 
L 66.901996 16.716536 
L 68.252947 17.738186 
L 68.510271 17.499941 
L 69.217912 16.69044 
L 69.539567 16.654472 
L 69.861222 16.95603 
L 70.568863 17.719597 
L 70.890518 17.758987 
L 71.212173 17.600242 
L 72.370132 16.672684 
L 72.691787 16.782516 
L 73.206435 17.243287 
L 73.785414 17.696965 
L 74.107069 17.701107 
L 74.493055 17.435691 
L 75.522351 16.523124 
L 75.844006 16.563646 
L 76.229992 16.864024 
L 77.130626 17.698666 
L 77.452281 17.722207 
L 77.838267 17.509021 
L 79.124887 16.524682 
L 79.575204 16.568703 
L 80.154183 16.891385 
L 81.376473 17.630821 
L 82.019783 17.736475 
L 82.663093 17.613196 
L 83.563727 17.175611 
L 84.786016 16.597646 
L 85.493657 16.521634 
L 86.072636 16.691035 
L 87.037601 17.212725 
L 87.809573 17.68459 
L 88.517214 17.815488 
L 88.967531 17.70762 
L 90.125489 17.122061 
L 91.991089 16.392387 
L 92.377075 16.60194 
L 92.891723 16.810154 
L 93.792357 16.873159 
L 94.242674 16.864927 
L 94.821653 16.820341 
L 95.27197 16.882203 
L 95.850949 16.81235 
L 96.687252 17.043818 
L 97.330562 17.112767 
L 99.003168 17.495772 
L 100.096796 17.038708 
L 100.482782 16.887229 
L 101.061761 16.669933 
L 101.576409 16.531158 
L 102.091057 16.413667 
L 102.670036 16.444834 
L 103.313346 16.742845 
L 104.985952 17.643287 
L 105.757924 17.840176 
L 106.336903 17.782918 
L 107.044544 17.458572 
L 108.910144 16.431988 
L 109.489123 16.425916 
L 110.068102 16.662326 
L 110.840074 17.274707 
L 111.612046 17.80868 
L 111.998032 17.8315 
L 112.384018 17.619504 
L 113.027328 16.905549 
L 113.541976 16.448002 
L 113.863631 16.415503 
L 114.185286 16.617826 
L 114.828596 17.41845 
L 115.278913 17.814218 
L 115.600568 17.820254 
L 115.922223 17.583204 
L 117.144513 16.386921 
L 117.466168 16.510322 
L 117.916485 16.986465 
L 118.559795 17.642911 
L 118.88145 17.653661 
L 119.203105 17.388626 
L 120.296732 16.079968 
L 120.554056 16.23622 
L 120.940042 16.836204 
L 121.583352 17.859653 
L 121.840676 17.951732 
L 122.162331 17.807584 
L 122.548317 17.312153 
L 122.998634 16.778109 
L 123.255958 16.763588 
L 123.513282 17.018408 
L 124.349585 18.061753 
L 124.606909 18.187384 
L 124.864233 18.047662 
L 125.185888 17.540146 
L 125.829199 16.471121 
L 126.086523 16.457092 
L 126.408178 16.706142 
L 126.987157 17.228338 
L 127.566136 17.297638 
L 128.145115 17.043758 
L 129.045749 16.525383 
L 129.367404 16.683441 
L 130.203707 17.247264 
L 130.461031 17.165208 
L 130.911348 16.617222 
L 131.361665 16.227718 
L 131.68332 16.258085 
L 132.133637 16.534256 
L 132.648285 16.830504 
L 134.063567 17.279017 
L 134.642546 17.579098 
L 134.964202 17.464904 
L 135.929167 16.919163 
L 136.315153 16.960152 
L 137.923428 17.404795 
L 138.566738 17.035736 
L 139.145717 16.767413 
L 139.596034 16.817592 
L 140.239344 17.203962 
L 140.818323 17.479431 
L 141.26864 17.43919 
L 141.91195 17.076554 
L 142.55526 16.777514 
L 143.069908 16.796635 
L 143.77755 17.102756 
L 144.678184 17.453068 
L 145.385825 17.474549 
L 146.286459 17.247414 
L 148.023396 16.769938 
L 148.859699 16.796981 
L 149.760333 17.044399 
L 150.789629 17.355394 
L 151.49727 17.30211 
L 153.427201 17.286874 
L 154.392166 16.86847 
L 154.842483 16.694198 
L 155.357131 16.531559 
L 155.807448 16.535139 
L 156.515089 16.674887 
L 157.673047 16.929375 
L 158.766674 17.351009 
L 159.474315 17.627206 
L 160.117625 17.742334 
L 160.889597 17.789054 
L 161.275583 17.857722 
L 161.790232 17.726608 
L 162.883859 17.175571 
L 163.334176 17.129462 
L 164.620796 17.124557 
L 165.585761 16.865466 
L 168.09467 17.47838 
L 168.930973 17.716781 
L 169.767276 17.593748 
L 170.732242 17.216617 
L 172.211855 16.667849 
L 172.919496 16.651065 
L 173.691468 16.869455 
L 175.685729 17.608292 
L 176.200377 17.423569 
L 177.67999 16.639745 
L 178.065976 16.804385 
L 179.352597 17.615218 
L 179.738583 17.463814 
L 181.089534 16.633065 
L 181.47552 16.80479 
L 182.697809 17.58716 
L 183.083795 17.446388 
L 184.113091 16.854468 
L 184.563408 17.159418 
L 185.33538 17.680318 
L 185.721366 17.650894 
L 186.171683 17.396306 
L 187.007986 16.826744 
L 187.715627 16.852996 
L 188.037282 17.080121 
L 188.423269 17.347215 
L 188.937917 17.278563 
L 189.388234 16.991697 
L 190.095875 16.432992 
L 190.41753 16.489033 
L 190.739185 16.835105 
L 191.318164 17.526069 
L 191.70415 17.658221 
L 192.025805 17.548824 
L 193.055101 16.971029 
L 193.376756 17.208583 
L 193.955735 17.709366 
L 194.27739 17.619711 
L 194.9207 17.15919 
L 195.821334 16.248865 
L 196.142989 16.379651 
L 196.528975 16.855557 
L 197.172286 17.623626 
L 197.42961 17.674324 
L 197.686934 17.480092 
L 198.458906 16.754089 
L 198.780561 16.732263 
L 199.230878 16.983595 
L 199.874188 17.273284 
L 200.324505 17.0845 
L 201.096477 16.738847 
L 201.546794 16.830586 
L 203.090738 17.437294 
L 203.605386 17.200294 
L 204.441689 16.796016 
L 204.892006 16.846056 
L 205.599647 17.236229 
L 206.178627 17.45624 
L 206.628944 17.406992 
L 207.400916 17.037085 
L 208.108557 16.799094 
L 208.751867 16.84032 
L 209.909825 17.228377 
L 210.939121 17.452582 
L 211.839755 17.403926 
L 213.062044 17.066292 
L 214.284333 16.788477 
L 215.120637 16.862459 
L 216.278595 16.908635 
L 217.24356 16.963822 
L 218.594511 16.985586 
L 219.109159 16.81688 
L 221.232082 16.754273 
L 221.682399 16.684367 
L 222.840357 16.799641 
L 224.448633 17.672043 
L 225.54226 17.575048 
L 226.056908 17.677942 
L 227.729514 17.339612 
L 228.244162 17.279813 
L 229.40212 17.560877 
L 230.04543 17.238128 
L 230.431416 17.287769 
L 231.139057 17.363398 
L 232.104022 17.159061 
L 232.747333 17.013503 
L 234.226946 16.833702 
L 235.256242 16.940106 
L 236.349869 17.217048 
L 236.349869 17.217048 
" clip-path="url(#p14b9ffeb00)" style="fill: none; stroke: #2ca02c; stroke-width: 0.5; stroke-linecap: square"/>
   </g>
   <g id="line2d_17">
    <path d="M 43.356847 17.124643 
L 53.714139 17.02927 
L 54.357449 16.798827 
L 54.743436 16.944172 
L 55.708401 17.401767 
L 56.480373 17.511528 
L 57.252345 17.058345 
L 58.731958 17.279131 
L 59.246606 17.130606 
L 59.761254 17.118846 
L 60.468895 16.880779 
L 61.305198 17.29314 
L 61.948508 17.175499 
L 62.656149 16.869612 
L 63.428121 16.942726 
L 63.878439 16.912537 
L 65.486714 17.386076 
L 65.937031 17.66729 
L 66.194355 17.542811 
L 66.773334 16.908585 
L 67.223651 16.490532 
L 67.609637 16.479326 
L 67.866961 16.65329 
L 68.252947 17.302963 
L 68.638933 17.754207 
L 68.896257 17.725021 
L 69.217912 17.376856 
L 69.989884 16.431188 
L 70.247208 16.54843 
L 70.761856 17.200108 
L 71.212173 17.547707 
L 71.598159 17.619922 
L 71.984145 17.435851 
L 73.206435 16.577032 
L 73.52809 16.714046 
L 74.107069 17.309753 
L 74.621717 17.709735 
L 74.943372 17.709047 
L 75.329358 17.443499 
L 76.358654 16.524656 
L 76.680309 16.559252 
L 77.066295 16.846426 
L 78.03126 17.699564 
L 78.417246 17.712385 
L 78.867563 17.461854 
L 80.154183 16.558537 
L 80.668831 16.526468 
L 81.312142 16.74755 
L 83.435065 17.724304 
L 84.078375 17.689104 
L 84.850347 17.400826 
L 86.908939 16.470036 
L 87.359256 16.582424 
L 90.254152 17.600101 
L 91.219117 17.132011 
L 91.798096 16.91764 
L 92.248413 16.956861 
L 93.856688 17.27211 
L 94.435667 17.276613 
L 96.043942 17.091815 
L 97.266231 16.637048 
L 97.909541 16.786987 
L 99.389155 17.403061 
L 100.032465 17.776223 
L 101.126092 17.763575 
L 103.377677 16.456835 
L 104.085318 16.325729 
L 104.85729 16.511873 
L 105.629262 16.97228 
L 106.851551 17.699573 
L 107.494861 17.848451 
L 108.073841 17.767221 
L 108.781482 17.422429 
L 110.518419 16.411365 
L 110.968736 16.448683 
L 111.419053 16.711352 
L 112.898666 17.8468 
L 113.220321 17.706811 
L 113.670638 17.224301 
L 114.378279 16.462162 
L 114.699934 16.411033 
L 115.021589 16.607575 
L 115.600568 17.329129 
L 116.115216 17.812254 
L 116.436871 17.824774 
L 116.758526 17.596957 
L 117.980816 16.452457 
L 118.302471 16.596015 
L 118.688457 17.078842 
L 119.331767 17.884963 
L 119.589091 17.956413 
L 119.846415 17.784036 
L 120.425394 16.954334 
L 120.940042 16.289683 
L 121.197366 16.276609 
L 121.519021 16.586634 
L 122.226662 17.756651 
L 122.548317 18.030989 
L 122.74131 17.917428 
L 123.062965 17.42101 
L 123.706275 16.305662 
L 123.963599 16.308446 
L 124.220923 16.556732 
L 124.67124 17.388627 
L 125.057226 17.991683 
L 125.31455 18.05764 
L 125.571874 17.805639 
L 126.472509 16.539829 
L 126.729833 16.612459 
L 127.694798 17.293574 
L 128.016453 17.334588 
L 128.659763 17.521994 
L 128.981418 17.15803 
L 129.431735 16.660318 
L 129.689059 16.629723 
L 130.075045 16.872787 
L 130.525362 17.494393 
L 130.782686 17.713663 
L 131.04001 17.652253 
L 131.490327 17.229584 
L 132.004975 16.820405 
L 132.32663 16.902639 
L 132.712616 16.977657 
L 133.741912 16.765302 
L 134.25656 16.777866 
L 134.578215 16.931856 
L 135.285857 17.490376 
L 135.671843 17.437144 
L 136.186491 17.064264 
L 136.701139 16.825373 
L 137.087125 16.867361 
L 137.730435 17.210068 
L 138.309414 17.477786 
L 138.759731 17.427522 
L 139.403041 17.041262 
L 139.98202 16.768419 
L 140.432337 16.815296 
L 141.075647 17.196752 
L 141.718957 17.48548 
L 142.169274 17.433915 
L 142.876915 17.060803 
L 143.584556 16.775712 
L 144.163536 16.793776 
L 144.999839 17.087666 
L 146.157797 17.454545 
L 146.9941 17.473486 
L 147.959065 17.247304 
L 149.631671 16.801594 
L 150.660967 16.81416 
L 151.690263 17.113319 
L 152.397904 17.284519 
L 153.041215 17.292003 
L 153.684525 17.283474 
L 154.070511 17.321423 
L 155.099807 17.048247 
L 156.000441 17.220407 
L 156.708082 17.166567 
L 157.351392 17.029966 
L 160.310618 17.098341 
L 161.339914 17.409608 
L 162.433542 17.191107 
L 163.076852 17.274704 
L 164.170479 17.391935 
L 164.942451 17.290572 
L 166.357733 17.055785 
L 167.901677 16.709047 
L 169.445621 17.197501 
L 170.732242 17.60502 
L 171.439883 17.564638 
L 172.276186 17.281384 
L 173.948792 16.65169 
L 174.592102 16.67256 
L 175.235412 16.934405 
L 176.586363 17.616153 
L 177.03668 17.515719 
L 177.615659 17.092603 
L 178.258969 16.663368 
L 178.644955 16.661583 
L 179.095272 16.938345 
L 179.995907 17.598197 
L 180.381893 17.570851 
L 180.83221 17.269572 
L 181.604182 16.713046 
L 181.990168 16.692428 
L 182.440485 16.910715 
L 183.469781 17.553667 
L 183.791436 17.381403 
L 184.756401 16.600562 
L 185.013725 16.64889 
L 185.399711 17.024771 
L 185.97869 17.573465 
L 186.300345 17.673145 
L 186.622 17.530457 
L 187.393972 16.967617 
L 187.779958 16.941145 
L 188.165945 16.815469 
L 188.4876 17.012208 
L 189.388234 17.602015 
L 189.709889 17.661875 
L 189.967213 17.434829 
L 190.739185 16.432352 
L 190.996509 16.498006 
L 191.70415 17.133193 
L 192.154467 17.540519 
L 192.540453 17.558042 
L 192.862108 17.367633 
L 193.698411 16.630278 
L 194.020066 17.069471 
L 194.470383 17.578101 
L 194.9207 17.770672 
L 195.242355 17.765923 
L 195.499679 17.512594 
L 196.400313 16.427813 
L 196.657637 16.46408 
L 197.043624 16.785964 
L 197.944258 17.762691 
L 198.265913 17.583543 
L 199.230878 16.708286 
L 199.552533 16.823047 
L 200.453167 17.446154 
L 200.903484 17.253992 
L 201.93278 16.767177 
L 202.383097 16.857076 
L 203.927041 17.439315 
L 204.441689 17.203912 
L 205.277992 16.797399 
L 205.728309 16.84007 
L 206.435951 17.20914 
L 207.079261 17.452611 
L 207.593909 17.411851 
L 208.494543 17.042719 
L 209.330846 16.803106 
L 210.102818 16.829571 
L 211.260776 17.14416 
L 212.547396 17.446642 
L 213.44803 17.417599 
L 214.605988 17.131816 
L 215.249299 17.051556 
L 217.436553 16.9487 
L 218.015532 17.010111 
L 218.723173 16.999578 
L 220.074124 17.334767 
L 220.588772 17.26138 
L 221.296413 17.372541 
L 221.811061 17.440035 
L 222.325709 17.181274 
L 223.097681 16.822091 
L 223.547998 16.786558 
L 224.384302 16.864887 
L 225.156274 17.075259 
L 225.799584 17.395375 
L 227.665183 17.130611 
L 228.308493 17.28973 
L 228.823141 17.416268 
L 229.273458 17.181711 
L 229.659444 17.05534 
L 231.267719 17.077717 
L 233.583636 17.229024 
L 234.805925 16.991155 
L 236.028214 16.837888 
L 236.349869 16.853069 
L 236.349869 16.853069 
" clip-path="url(#p14b9ffeb00)" style="fill: none; stroke: #d62728; stroke-width: 0.5; stroke-linecap: square"/>
   </g>
   <g id="patch_3">
    <path d="M 33.707196 202.559296 
L 33.707196 7.2 
" style="fill: none; stroke: #000000; stroke-width: 0.8; stroke-linejoin: miter; stroke-linecap: square"/>
   </g>
   <g id="patch_4">
    <path d="M 245.99952 202.559296 
L 245.99952 7.2 
" style="fill: none; stroke: #000000; stroke-width: 0.8; stroke-linejoin: miter; stroke-linecap: square"/>
   </g>
   <g id="patch_5">
    <path d="M 33.707196 202.559296 
L 245.99952 202.559296 
" style="fill: none; stroke: #000000; stroke-width: 0.8; stroke-linejoin: miter; stroke-linecap: square"/>
   </g>
   <g id="patch_6">
    <path d="M 33.707196 7.2 
L 245.99952 7.2 
" style="fill: none; stroke: #000000; stroke-width: 0.8; stroke-linejoin: miter; stroke-linecap: square"/>
   </g>
   <g id="legend_1">
    <g id="patch_7">
     <path d="M 40.007196 126.429212 
L 85.914112 126.429212 
Q 87.714112 126.429212 87.714112 124.629212 
L 87.714112 85.130084 
Q 87.714112 83.330084 85.914112 83.330084 
L 40.007196 83.330084 
Q 38.207196 83.330084 38.207196 85.130084 
L 38.207196 124.629212 
Q 38.207196 126.429212 40.007196 126.429212 
z
" style="fill: #ffffff; opacity: 0.8; stroke: #cccccc; stroke-width: 0.24; stroke-linejoin: miter"/>
    </g>
    <g id="line2d_18">
     <path d="M 41.807196 90.504866 
L 50.807196 90.504866 
L 59.807196 90.504866 
" style="fill: none; stroke: #ff7f0e; stroke-width: 0.5; stroke-linecap: square"/>
    </g>
    <g id="text_16">
     <!-- $\langle \sigma_z\rangle$ -->
     <g transform="translate(67.007196 93.654866) scale(0.09 -0.09)">
      <defs>
       <path id="CMSY10-68" d="M 2099 4557 
C 2131 4627 2131 4640 2131 4672 
C 2131 4742 2074 4800 2003 4800 
C 1946 4800 1901 4768 1856 4653 
L 736 1715 
C 723 1677 704 1638 704 1600 
C 704 1581 704 1568 736 1491 
L 1856 -1446 
C 1882 -1517 1914 -1600 2003 -1600 
C 2074 -1600 2131 -1542 2131 -1472 
C 2131 -1453 2131 -1440 2099 -1370 
L 966 1600 
L 2099 4557 
z
" transform="scale(0.015625)"/>
       <path id="CMMI12-1b" d="M 3251 2408 
C 3334 2408 3546 2408 3546 2612 
C 3546 2752 3424 2752 3309 2752 
L 1894 2752 
C 934 2752 243 1686 243 932 
C 243 390 595 -64 1171 -64 
C 1926 -64 2752 747 2752 1705 
C 2752 1954 2694 2196 2541 2408 
L 3251 2408 
z
M 1178 64 
C 851 64 614 313 614 754 
C 614 1137 845 2408 1786 2408 
C 2061 2408 2368 2274 2368 1781 
C 2368 1558 2266 1021 2042 652 
C 1811 275 1466 64 1178 64 
z
" transform="scale(0.015625)"/>
       <path id="CMMI12-7a" d="M 813 486 
C 1088 803 1312 1004 1632 1296 
C 2016 1632 2182 1793 2272 1891 
C 2720 2338 2944 2713 2944 2764 
C 2944 2816 2893 2816 2880 2816 
C 2835 2816 2822 2793 2790 2750 
C 2630 2494 2477 2367 2310 2367 
C 2176 2367 2106 2421 1984 2565 
C 1850 2715 1741 2816 1555 2816 
C 1088 2816 806 2257 806 2128 
C 806 2108 813 2068 870 2068 
C 922 2068 928 2091 947 2133 
C 1056 2372 1363 2414 1485 2414 
C 1619 2414 1747 2376 1882 2327 
C 2125 2240 2227 2240 2291 2240 
C 2336 2240 2362 2240 2394 2246 
C 2182 1994 1837 1683 1549 1418 
L 902 816 
C 512 415 275 33 275 -12 
C 275 -51 307 -64 346 -64 
C 384 -64 390 -57 435 14 
C 538 163 742 384 979 384 
C 1114 384 1178 342 1306 193 
C 1427 61 1536 -64 1741 -64 
C 2368 -64 2726 732 2726 876 
C 2726 903 2720 942 2656 942 
C 2605 942 2598 917 2579 855 
C 2438 488 2061 338 1811 338 
C 1677 338 1549 376 1414 425 
C 1158 512 1088 512 1005 512 
C 941 512 870 512 813 486 
z
" transform="scale(0.015625)"/>
       <path id="CMSY10-69" d="M 1747 1491 
C 1779 1568 1779 1581 1779 1600 
C 1779 1619 1779 1632 1747 1709 
L 627 4653 
C 589 4762 550 4800 480 4800 
C 410 4800 352 4742 352 4672 
C 352 4653 352 4640 384 4570 
L 1517 1600 
L 384 -1357 
C 352 -1427 352 -1440 352 -1472 
C 352 -1542 410 -1600 480 -1600 
C 563 -1600 589 -1536 614 -1472 
L 1747 1491 
z
" transform="scale(0.015625)"/>
      </defs>
      <use xlink:href="#CMSY10-68" transform="scale(0.996264)"/>
      <use xlink:href="#CMMI12-1b" transform="translate(38.743734 0) scale(0.996264)"/>
      <use xlink:href="#CMMI12-7a" transform="translate(94.189195 -14.943915) scale(0.697382)"/>
      <use xlink:href="#CMSY10-69" transform="translate(129.51575 0) scale(0.996264)"/>
     </g>
    </g>
    <g id="line2d_19">
     <path d="M 41.807196 103.971242 
L 50.807196 103.971242 
L 59.807196 103.971242 
" style="fill: none; stroke: #2ca02c; stroke-width: 0.5; stroke-linecap: square"/>
    </g>
    <g id="text_17">
     <!-- $\langle \sigma_x\rangle$ -->
     <g transform="translate(67.007196 107.121242) scale(0.09 -0.09)">
      <defs>
       <path id="CMMI12-78" d="M 3034 2606 
C 2829 2567 2752 2414 2752 2293 
C 2752 2139 2874 2088 2963 2088 
C 3155 2088 3290 2254 3290 2427 
C 3290 2695 2982 2816 2714 2816 
C 2323 2816 2106 2433 2048 2312 
C 1901 2816 1504 2816 1389 2816 
C 736 2816 390 1980 390 1839 
C 390 1814 416 1782 461 1782 
C 512 1782 525 1820 538 1846 
C 755 2555 1184 2689 1370 2689 
C 1658 2689 1715 2420 1715 2267 
C 1715 2127 1677 1980 1600 1673 
L 1382 798 
C 1286 415 1101 64 762 64 
C 730 64 570 64 435 147 
C 666 192 717 383 717 460 
C 717 588 621 664 499 664 
C 346 664 179 530 179 326 
C 179 57 480 -64 755 -64 
C 1062 -64 1280 179 1414 441 
C 1517 64 1837 -64 2074 -64 
C 2726 -64 3072 773 3072 913 
C 3072 945 3046 971 3008 971 
C 2950 971 2944 939 2925 888 
C 2752 326 2381 64 2093 64 
C 1869 64 1747 230 1747 492 
C 1747 632 1773 734 1875 1156 
L 2099 2024 
C 2195 2408 2413 2689 2707 2689 
C 2720 2689 2899 2689 3034 2606 
z
" transform="scale(0.015625)"/>
      </defs>
      <use xlink:href="#CMSY10-68" transform="scale(0.996264)"/>
      <use xlink:href="#CMMI12-1b" transform="translate(38.743734 0) scale(0.996264)"/>
      <use xlink:href="#CMMI12-78" transform="translate(94.189195 -14.943915) scale(0.697382)"/>
      <use xlink:href="#CMSY10-69" transform="translate(133.490986 0) scale(0.996264)"/>
     </g>
    </g>
    <g id="line2d_20">
     <path d="M 41.807196 117.437618 
L 50.807196 117.437618 
L 59.807196 117.437618 
" style="fill: none; stroke: #d62728; stroke-width: 0.5; stroke-linecap: square"/>
    </g>
    <g id="text_18">
     <!-- $\langle \sigma_y\rangle$ -->
     <g transform="translate(67.007196 120.587618) scale(0.09 -0.09)">
      <defs>
       <path id="CMMI12-79" d="M 1683 -700 
C 1510 -939 1261 -1152 947 -1152 
C 870 -1152 563 -1152 467 -889 
C 486 -895 518 -895 531 -895 
C 723 -895 851 -729 851 -582 
C 851 -435 730 -384 634 -384 
C 531 -384 307 -458 307 -759 
C 307 -1071 582 -1286 947 -1286 
C 1587 -1286 2234 -700 2413 6 
L 3040 2485 
C 3046 2517 3059 2556 3059 2594 
C 3059 2689 2982 2753 2886 2753 
C 2829 2753 2694 2727 2643 2535 
L 2170 658 
C 2138 543 2138 530 2086 460 
C 1958 281 1747 64 1440 64 
C 1082 64 1050 415 1050 588 
C 1050 952 1222 1443 1395 1903 
C 1466 2088 1504 2178 1504 2305 
C 1504 2574 1312 2816 998 2816 
C 410 2816 173 1890 173 1839 
C 173 1814 198 1782 243 1782 
C 301 1782 307 1807 333 1897 
C 486 2433 730 2689 979 2689 
C 1037 2689 1146 2689 1146 2478 
C 1146 2312 1075 2127 979 1884 
C 666 1047 666 837 666 683 
C 666 77 1101 -64 1421 -64 
C 1606 -64 1837 -6 2061 230 
L 2067 224 
C 1971 -147 1907 -392 1683 -700 
z
" transform="scale(0.015625)"/>
      </defs>
      <use xlink:href="#CMSY10-68" transform="scale(0.996264)"/>
      <use xlink:href="#CMMI12-1b" transform="translate(38.743734 0) scale(0.996264)"/>
      <use xlink:href="#CMMI12-79" transform="translate(94.189195 -14.943915) scale(0.697382)"/>
      <use xlink:href="#CMSY10-69" transform="translate(130.484301 0) scale(0.996264)"/>
     </g>
    </g>
   </g>
  </g>
 </g>
 <defs>
  <clipPath id="p14b9ffeb00">
   <rect x="33.707196" y="7.2" width="212.292324" height="195.359296"/>
  </clipPath>
 </defs>
</svg>
