<?xml version="1.0" encoding="utf-8" standalone="no"?>
<!DOCTYPE svg PUBLIC "-//W3C//DTD SVG 1.1//EN"
  "http://www.w3.org/Graphics/SVG/1.1/DTD/svg11.dtd">
<svg xmlns:xlink="http://www.w3.org/1999/xlink" width="253.19952pt" height="238.79952pt" viewBox="0 0 253.19952 238.79952" xmlns="http://www.w3.org/2000/svg" version="1.1">
 <metadata>
  <rdf:RDF xmlns:dc="http://purl.org/dc/elements/1.1/" xmlns:cc="http://creativecommons.org/ns#" xmlns:rdf="http://www.w3.org/1999/02/22-rdf-syntax-ns#">
   <cc:Work>
    <dc:type rdf:resource="http://purl.org/dc/dcmitype/StillImage"/>
    <dc:date>1980-01-01T00:00:00+00:00</dc:date>
    <dc:format>image/svg+xml</dc:format>
    <dc:creator>
     <cc:Agent>
      <dc:title>Matplotlib v3.6.2, https://matplotlib.org/</dc:title>
     </cc:Agent>
    </dc:creator>
   </cc:Work>
  </rdf:RDF>
 </metadata>
 <defs>
  <style type="text/css">*{stroke-linejoin: round; stroke-linecap: butt}</style>
 </defs>
 <g id="figure_1">
  <g id="patch_1">
   <path d="M 0 238.79952 
L 253.19952 238.79952 
L 253.19952 0 
L 0 0 
z
" style="fill: #ffffff"/>
  </g>
  <g id="axes_1">
   <g id="patch_2">
    <path d="M 33.707196 202.559296 
L 245.99952 202.559296 
L 245.99952 7.2 
L 33.707196 7.2 
z
" style="fill: #ffffff"/>
   </g>
   <g id="matplotlib.axis_1">
    <g id="xtick_1">
     <g id="line2d_1">
      <defs>
       <path id="m93c2576dbb" d="M 0 0 
L 0 3.5 
" style="stroke: #000000; stroke-width: 0.8"/>
      </defs>
      <g>
       <use xlink:href="#m93c2576dbb" x="43.356847" y="202.559296" style="stroke: #000000; stroke-width: 0.8"/>
      </g>
     </g>
     <g id="text_1">
      <!-- $\mathdefault{0}$ -->
      <g transform="translate(41.239756 217.194098) scale(0.08 -0.08)">
       <defs>
        <path id="CMR17-30" d="M 2688 2025 
C 2688 2416 2682 3080 2413 3591 
C 2176 4039 1798 4198 1466 4198 
C 1158 4198 768 4058 525 3597 
C 269 3118 243 2524 243 2025 
C 243 1661 250 1106 448 619 
C 723 -39 1216 -128 1466 -128 
C 1760 -128 2208 -7 2470 600 
C 2662 1042 2688 1559 2688 2025 
z
M 1466 -26 
C 1056 -26 813 325 723 812 
C 653 1188 653 1738 653 2096 
C 653 2588 653 2997 736 3387 
C 858 3929 1216 4096 1466 4096 
C 1728 4096 2067 3923 2189 3400 
C 2272 3036 2278 2607 2278 2096 
C 2278 1680 2278 1169 2202 792 
C 2067 95 1690 -26 1466 -26 
z
" transform="scale(0.015625)"/>
       </defs>
       <use xlink:href="#CMR17-30" transform="scale(0.996264)"/>
      </g>
     </g>
    </g>
    <g id="xtick_2">
     <g id="line2d_2">
      <g>
       <use xlink:href="#m93c2576dbb" x="70.161434" y="202.559296" style="stroke: #000000; stroke-width: 0.8"/>
      </g>
     </g>
     <g id="text_2">
      <!-- $\mathdefault{25}$ -->
      <g transform="translate(65.927251 217.194098) scale(0.08 -0.08)">
       <defs>
        <path id="CMR17-32" d="M 2669 989 
L 2554 989 
C 2490 536 2438 459 2413 420 
C 2381 369 1920 369 1830 369 
L 602 369 
C 832 619 1280 1072 1824 1597 
C 2214 1967 2669 2402 2669 3035 
C 2669 3790 2067 4224 1395 4224 
C 691 4224 262 3604 262 3030 
C 262 2780 448 2748 525 2748 
C 589 2748 781 2787 781 3010 
C 781 3207 614 3264 525 3264 
C 486 3264 448 3258 422 3245 
C 544 3790 915 4058 1306 4058 
C 1862 4058 2227 3617 2227 3035 
C 2227 2479 1901 2000 1536 1584 
L 262 146 
L 262 0 
L 2515 0 
L 2669 989 
z
" transform="scale(0.015625)"/>
        <path id="CMR17-35" d="M 730 3692 
C 794 3666 1056 3584 1325 3584 
C 1920 3584 2246 3911 2432 4100 
C 2432 4157 2432 4192 2394 4192 
C 2387 4192 2374 4192 2323 4163 
C 2099 4058 1837 3973 1517 3973 
C 1325 3973 1037 3999 723 4139 
C 653 4171 640 4171 634 4171 
C 602 4171 595 4164 595 4037 
L 595 2203 
C 595 2089 595 2057 659 2057 
C 691 2057 704 2070 736 2114 
C 941 2401 1222 2522 1542 2522 
C 1766 2522 2246 2382 2246 1289 
C 2246 1085 2246 715 2054 421 
C 1894 159 1645 25 1370 25 
C 947 25 518 320 403 814 
C 429 807 480 795 506 795 
C 589 795 749 840 749 1038 
C 749 1210 627 1280 506 1280 
C 358 1280 262 1190 262 1011 
C 262 454 704 -128 1382 -128 
C 2042 -128 2669 440 2669 1264 
C 2669 2030 2170 2624 1549 2624 
C 1222 2624 947 2503 730 2274 
L 730 3692 
z
" transform="scale(0.015625)"/>
       </defs>
       <use xlink:href="#CMR17-32" transform="scale(0.996264)"/>
       <use xlink:href="#CMR17-35" transform="translate(45.690477 0) scale(0.996264)"/>
      </g>
     </g>
    </g>
    <g id="xtick_3">
     <g id="line2d_3">
      <g>
       <use xlink:href="#m93c2576dbb" x="96.96602" y="202.559296" style="stroke: #000000; stroke-width: 0.8"/>
      </g>
     </g>
     <g id="text_3">
      <!-- $\mathdefault{50}$ -->
      <g transform="translate(92.731837 217.194098) scale(0.08 -0.08)">
       <use xlink:href="#CMR17-35" transform="scale(0.996264)"/>
       <use xlink:href="#CMR17-30" transform="translate(45.690477 0) scale(0.996264)"/>
      </g>
     </g>
    </g>
    <g id="xtick_4">
     <g id="line2d_4">
      <g>
       <use xlink:href="#m93c2576dbb" x="123.770606" y="202.559296" style="stroke: #000000; stroke-width: 0.8"/>
      </g>
     </g>
     <g id="text_4">
      <!-- $\mathdefault{75}$ -->
      <g transform="translate(119.536423 217.194098) scale(0.08 -0.08)">
       <defs>
        <path id="CMR17-37" d="M 2886 3941 
L 2886 4081 
L 1382 4081 
C 634 4081 621 4165 595 4288 
L 480 4288 
L 294 3094 
L 410 3094 
C 429 3215 474 3540 550 3661 
C 589 3712 1062 3712 1171 3712 
L 2579 3712 
L 1869 2661 
C 1395 1954 1069 999 1069 165 
C 1069 89 1069 -128 1299 -128 
C 1530 -128 1530 89 1530 171 
L 1530 465 
C 1530 1508 1709 2196 2003 2636 
L 2886 3941 
z
" transform="scale(0.015625)"/>
       </defs>
       <use xlink:href="#CMR17-37" transform="scale(0.996264)"/>
       <use xlink:href="#CMR17-35" transform="translate(45.690477 0) scale(0.996264)"/>
      </g>
     </g>
    </g>
    <g id="xtick_5">
     <g id="line2d_5">
      <g>
       <use xlink:href="#m93c2576dbb" x="150.575193" y="202.559296" style="stroke: #000000; stroke-width: 0.8"/>
      </g>
     </g>
     <g id="text_5">
      <!-- $\mathdefault{100}$ -->
      <g transform="translate(144.223918 217.194098) scale(0.08 -0.08)">
       <defs>
        <path id="CMR17-31" d="M 1702 4058 
C 1702 4192 1696 4192 1606 4192 
C 1357 3916 979 3827 621 3827 
C 602 3827 570 3827 563 3808 
C 557 3795 557 3782 557 3648 
C 755 3648 1088 3686 1344 3839 
L 1344 461 
C 1344 236 1331 160 781 160 
L 589 160 
L 589 0 
C 896 0 1216 0 1523 0 
C 1830 0 2150 0 2458 0 
L 2458 160 
L 2266 160 
C 1715 160 1702 230 1702 458 
L 1702 4058 
z
" transform="scale(0.015625)"/>
       </defs>
       <use xlink:href="#CMR17-31" transform="scale(0.996264)"/>
       <use xlink:href="#CMR17-30" transform="translate(45.690477 0) scale(0.996264)"/>
       <use xlink:href="#CMR17-30" transform="translate(91.380954 0) scale(0.996264)"/>
      </g>
     </g>
    </g>
    <g id="xtick_6">
     <g id="line2d_6">
      <g>
       <use xlink:href="#m93c2576dbb" x="177.379779" y="202.559296" style="stroke: #000000; stroke-width: 0.8"/>
      </g>
     </g>
     <g id="text_6">
      <!-- $\mathdefault{125}$ -->
      <g transform="translate(171.028505 217.194098) scale(0.08 -0.08)">
       <use xlink:href="#CMR17-31" transform="scale(0.996264)"/>
       <use xlink:href="#CMR17-32" transform="translate(45.690477 0) scale(0.996264)"/>
       <use xlink:href="#CMR17-35" transform="translate(91.380954 0) scale(0.996264)"/>
      </g>
     </g>
    </g>
    <g id="xtick_7">
     <g id="line2d_7">
      <g>
       <use xlink:href="#m93c2576dbb" x="204.184365" y="202.559296" style="stroke: #000000; stroke-width: 0.8"/>
      </g>
     </g>
     <g id="text_7">
      <!-- $\mathdefault{150}$ -->
      <g transform="translate(197.833091 217.194098) scale(0.08 -0.08)">
       <use xlink:href="#CMR17-31" transform="scale(0.996264)"/>
       <use xlink:href="#CMR17-35" transform="translate(45.690477 0) scale(0.996264)"/>
       <use xlink:href="#CMR17-30" transform="translate(91.380954 0) scale(0.996264)"/>
      </g>
     </g>
    </g>
    <g id="xtick_8">
     <g id="line2d_8">
      <g>
       <use xlink:href="#m93c2576dbb" x="230.988952" y="202.559296" style="stroke: #000000; stroke-width: 0.8"/>
      </g>
     </g>
     <g id="text_8">
      <!-- $\mathdefault{175}$ -->
      <g transform="translate(224.637677 217.194098) scale(0.08 -0.08)">
       <use xlink:href="#CMR17-31" transform="scale(0.996264)"/>
       <use xlink:href="#CMR17-37" transform="translate(45.690477 0) scale(0.996264)"/>
       <use xlink:href="#CMR17-35" transform="translate(91.380954 0) scale(0.996264)"/>
      </g>
     </g>
    </g>
    <g id="text_9">
     <!-- $\tau$ -->
     <g transform="translate(137.675756 229.662342) scale(0.1 -0.1)">
      <defs>
       <path id="CMMI12-1c" d="M 1837 2408 
L 2899 2408 
C 2982 2408 3194 2408 3194 2612 
C 3194 2752 3072 2752 2957 2752 
L 1197 2752 
C 1050 2752 832 2752 538 2440 
C 371 2255 166 1917 166 1879 
C 166 1841 198 1828 237 1828 
C 282 1828 288 1847 320 1885 
C 653 2408 986 2408 1146 2408 
L 1677 2408 
L 1011 223 
C 979 127 979 114 979 95 
C 979 25 1024 -64 1152 -64 
C 1350 -64 1382 108 1402 203 
L 1837 2408 
z
" transform="scale(0.015625)"/>
      </defs>
      <use xlink:href="#CMMI12-1c" transform="scale(0.996264)"/>
     </g>
    </g>
   </g>
   <g id="matplotlib.axis_2">
    <g id="ytick_1">
     <g id="line2d_9">
      <defs>
       <path id="mbb8d70569f" d="M 0 0 
L -3.5 0 
" style="stroke: #000000; stroke-width: 0.8"/>
      </defs>
      <g>
       <use xlink:href="#mbb8d70569f" x="33.707196" y="193.679328" style="stroke: #000000; stroke-width: 0.8"/>
      </g>
     </g>
     <g id="text_10">
      <!-- $\mathdefault{−1.0}$ -->
      <g transform="translate(7.2 196.446729) scale(0.08 -0.08)">
       <defs>
        <path id="CMSY10-0" d="M 4218 1472 
C 4326 1472 4442 1472 4442 1600 
C 4442 1728 4326 1728 4218 1728 
L 755 1728 
C 646 1728 531 1728 531 1600 
C 531 1472 646 1472 755 1472 
L 4218 1472 
z
" transform="scale(0.015625)"/>
        <path id="CMMI12-3a" d="M 1178 307 
C 1178 492 1024 619 870 619 
C 685 619 557 466 557 313 
C 557 128 710 0 864 0 
C 1050 0 1178 153 1178 307 
z
" transform="scale(0.015625)"/>
       </defs>
       <use xlink:href="#CMSY10-0" transform="scale(0.996264)"/>
       <use xlink:href="#CMR17-31" transform="translate(77.487468 0) scale(0.996264)"/>
       <use xlink:href="#CMMI12-3a" transform="translate(123.177945 0) scale(0.996264)"/>
       <use xlink:href="#CMR17-30" transform="translate(150.275122 0) scale(0.996264)"/>
      </g>
     </g>
    </g>
    <g id="ytick_2">
     <g id="line2d_10">
      <g>
       <use xlink:href="#mbb8d70569f" x="33.707196" y="158.371362" style="stroke: #000000; stroke-width: 0.8"/>
      </g>
     </g>
     <g id="text_11">
      <!-- $\mathdefault{−0.8}$ -->
      <g transform="translate(7.2 161.138763) scale(0.08 -0.08)">
       <defs>
        <path id="CMR17-38" d="M 1741 2264 
C 2144 2467 2554 2773 2554 3263 
C 2554 3841 1990 4179 1472 4179 
C 890 4179 378 3759 378 3180 
C 378 3021 416 2747 666 2505 
C 730 2442 998 2251 1171 2130 
C 883 1983 211 1634 211 934 
C 211 279 838 -128 1459 -128 
C 2144 -128 2720 362 2720 1010 
C 2720 1590 2330 1857 2074 2029 
L 1741 2264 
z
M 902 2822 
C 851 2854 595 3051 595 3351 
C 595 3739 998 4032 1459 4032 
C 1965 4032 2336 3676 2336 3262 
C 2336 2669 1670 2331 1638 2331 
C 1632 2331 1626 2331 1574 2370 
L 902 2822 
z
M 2080 1519 
C 2176 1449 2483 1240 2483 851 
C 2483 381 2010 25 1472 25 
C 890 25 448 438 448 940 
C 448 1443 838 1862 1280 2060 
L 2080 1519 
z
" transform="scale(0.015625)"/>
       </defs>
       <use xlink:href="#CMSY10-0" transform="scale(0.996264)"/>
       <use xlink:href="#CMR17-30" transform="translate(77.487468 0) scale(0.996264)"/>
       <use xlink:href="#CMMI12-3a" transform="translate(123.177945 0) scale(0.996264)"/>
       <use xlink:href="#CMR17-38" transform="translate(150.275122 0) scale(0.996264)"/>
      </g>
     </g>
    </g>
    <g id="ytick_3">
     <g id="line2d_11">
      <g>
       <use xlink:href="#mbb8d70569f" x="33.707196" y="123.063397" style="stroke: #000000; stroke-width: 0.8"/>
      </g>
     </g>
     <g id="text_12">
      <!-- $\mathdefault{−0.6}$ -->
      <g transform="translate(7.2 125.830798) scale(0.08 -0.08)">
       <defs>
        <path id="CMR17-36" d="M 678 2176 
C 678 3690 1395 4032 1811 4032 
C 1946 4032 2272 4009 2400 3776 
C 2298 3776 2106 3776 2106 3553 
C 2106 3381 2246 3323 2336 3323 
C 2394 3323 2566 3348 2566 3560 
C 2566 3954 2246 4179 1805 4179 
C 1043 4179 243 3390 243 1984 
C 243 253 966 -128 1478 -128 
C 2099 -128 2688 427 2688 1283 
C 2688 2081 2170 2662 1517 2662 
C 1126 2662 838 2407 678 1960 
L 678 2176 
z
M 1478 25 
C 691 25 691 1200 691 1436 
C 691 1896 909 2560 1504 2560 
C 1613 2560 1926 2560 2138 2120 
C 2253 1870 2253 1609 2253 1289 
C 2253 944 2253 690 2118 434 
C 1978 171 1773 25 1478 25 
z
" transform="scale(0.015625)"/>
       </defs>
       <use xlink:href="#CMSY10-0" transform="scale(0.996264)"/>
       <use xlink:href="#CMR17-30" transform="translate(77.487468 0) scale(0.996264)"/>
       <use xlink:href="#CMMI12-3a" transform="translate(123.177945 0) scale(0.996264)"/>
       <use xlink:href="#CMR17-36" transform="translate(150.275122 0) scale(0.996264)"/>
      </g>
     </g>
    </g>
    <g id="ytick_4">
     <g id="line2d_12">
      <g>
       <use xlink:href="#mbb8d70569f" x="33.707196" y="87.755432" style="stroke: #000000; stroke-width: 0.8"/>
      </g>
     </g>
     <g id="text_13">
      <!-- $\mathdefault{−0.4}$ -->
      <g transform="translate(7.2 90.522833) scale(0.08 -0.08)">
       <defs>
        <path id="CMR17-34" d="M 2150 4122 
C 2150 4256 2144 4256 2029 4256 
L 128 1254 
L 128 1088 
L 1779 1088 
L 1779 457 
C 1779 224 1766 160 1318 160 
L 1197 160 
L 1197 0 
C 1402 0 1747 0 1965 0 
C 2182 0 2528 0 2733 0 
L 2733 160 
L 2611 160 
C 2163 160 2150 224 2150 457 
L 2150 1088 
L 2803 1088 
L 2803 1254 
L 2150 1254 
L 2150 4122 
z
M 1798 3703 
L 1798 1254 
L 256 1254 
L 1798 3703 
z
" transform="scale(0.015625)"/>
       </defs>
       <use xlink:href="#CMSY10-0" transform="scale(0.996264)"/>
       <use xlink:href="#CMR17-30" transform="translate(77.487468 0) scale(0.996264)"/>
       <use xlink:href="#CMMI12-3a" transform="translate(123.177945 0) scale(0.996264)"/>
       <use xlink:href="#CMR17-34" transform="translate(150.275122 0) scale(0.996264)"/>
      </g>
     </g>
    </g>
    <g id="ytick_5">
     <g id="line2d_13">
      <g>
       <use xlink:href="#mbb8d70569f" x="33.707196" y="52.447466" style="stroke: #000000; stroke-width: 0.8"/>
      </g>
     </g>
     <g id="text_14">
      <!-- $\mathdefault{−0.2}$ -->
      <g transform="translate(7.2 55.214867) scale(0.08 -0.08)">
       <use xlink:href="#CMSY10-0" transform="scale(0.996264)"/>
       <use xlink:href="#CMR17-30" transform="translate(77.487468 0) scale(0.996264)"/>
       <use xlink:href="#CMMI12-3a" transform="translate(123.177945 0) scale(0.996264)"/>
       <use xlink:href="#CMR17-32" transform="translate(150.275122 0) scale(0.996264)"/>
      </g>
     </g>
    </g>
    <g id="ytick_6">
     <g id="line2d_14">
      <g>
       <use xlink:href="#mbb8d70569f" x="33.707196" y="17.139501" style="stroke: #000000; stroke-width: 0.8"/>
      </g>
     </g>
     <g id="text_15">
      <!-- $\mathdefault{0.0}$ -->
      <g transform="translate(13.786507 19.906902) scale(0.08 -0.08)">
       <use xlink:href="#CMR17-30" transform="scale(0.996264)"/>
       <use xlink:href="#CMMI12-3a" transform="translate(45.690477 0) scale(0.996264)"/>
       <use xlink:href="#CMR17-30" transform="translate(72.787654 0) scale(0.996264)"/>
      </g>
     </g>
    </g>
   </g>
   <g id="line2d_15">
    <path d="M 43.356847 193.679328 
L 43.421178 193.347671 
L 43.614171 188.79781 
L 44.707798 151.959528 
L 45.029453 148.893096 
L 45.222446 148.510965 
L 45.351108 148.7654 
L 45.608432 150.258597 
L 46.05875 154.893191 
L 46.830722 162.748037 
L 47.281039 165.228181 
L 47.602694 165.984736 
L 49.017976 168.277648 
L 49.91861 170.245559 
L 50.626251 171.11851 
L 52.556181 173.056027 
L 53.456815 174.540524 
L 53.714139 174.611411 
L 53.907132 174.443231 
L 54.164456 173.775517 
L 54.486111 171.996612 
L 54.872098 168.25739 
L 55.322415 161.532175 
L 55.965725 147.983503 
L 57.831324 106.145245 
L 58.538965 95.275519 
L 59.310937 86.640196 
L 60.082909 80.616076 
L 60.983543 75.169906 
L 61.948508 70.385045 
L 62.591818 68.211129 
L 63.428121 66.413765 
L 64.393087 64.819039 
L 65.8727 62.003952 
L 66.644672 61.252363 
L 66.966327 61.263067 
L 67.416644 61.273073 
L 67.866961 60.92882 
L 68.317278 60.678202 
L 68.960588 60.677951 
L 69.989884 60.541875 
L 70.37587 60.301147 
L 70.697525 60.427319 
L 71.01918 60.509156 
L 71.469497 60.296323 
L 72.048476 60.158172 
L 72.370132 60.271333 
L 72.88478 60.492382 
L 73.849745 60.497268 
L 74.557386 60.816229 
L 75.908337 60.613894 
L 76.358654 60.622763 
L 76.615978 60.349811 
L 77.066295 59.41384 
L 77.452281 58.067029 
L 77.902598 55.451646 
L 79.639535 44.168041 
L 80.154183 42.770729 
L 80.6045 42.003254 
L 81.183479 41.220893 
L 81.82679 40.372888 
L 82.277107 40.114287 
L 82.984748 39.744418 
L 84.40003 39.056679 
L 84.850347 39.257725 
L 85.429326 39.797686 
L 86.651615 41.507819 
L 87.037601 42.795481 
L 87.487918 45.190064 
L 88.002566 49.304029 
L 88.645876 56.71394 
L 89.610841 71.13314 
L 91.154786 94.015439 
L 91.926758 102.425515 
L 92.891723 110.583322 
L 93.792357 116.123383 
L 94.564329 119.838733 
L 95.27197 122.294639 
L 96.429928 125.43733 
L 97.780879 127.946992 
L 98.617182 128.607415 
L 99.389155 129.106501 
L 101.061761 130.339359 
L 101.898064 130.591889 
L 102.605705 130.772036 
L 103.249015 130.798598 
L 104.085318 130.992669 
L 104.664297 131.104011 
L 107.623523 131.393716 
L 108.65282 132.051755 
L 108.910144 132.712494 
L 109.231799 134.264862 
L 109.682116 137.865182 
L 110.325426 145.471505 
L 111.161729 154.629437 
L 111.676377 157.950294 
L 112.319687 160.442263 
L 114.249617 166.607736 
L 115.08592 168.373404 
L 115.986554 169.929803 
L 116.694195 171.10405 
L 117.916485 173.386808 
L 118.109478 173.405635 
L 118.302471 173.188831 
L 118.559795 172.458841 
L 118.88145 170.611515 
L 119.267436 166.668161 
L 119.782084 158.444869 
L 120.489725 142.647521 
L 121.905007 110.423463 
L 122.74131 96.57236 
L 123.448951 88.062126 
L 124.156592 82.430653 
L 125.250219 75.309507 
L 126.601171 69.200335 
L 127.115819 67.856383 
L 127.952122 65.650463 
L 128.46677 64.69874 
L 130.075045 62.907762 
L 130.589693 62.596241 
L 131.618989 61.679533 
L 132.648285 61.156711 
L 133.162933 60.808236 
L 133.677581 60.630627 
L 134.25656 60.679653 
L 134.642546 60.376961 
L 135.285857 59.769163 
L 135.543181 59.862252 
L 136.12216 60.141407 
L 136.958463 60.305644 
L 137.40878 60.471118 
L 137.730435 60.285314 
L 138.180752 60.043716 
L 139.274379 59.755575 
L 139.660365 59.489715 
L 140.110682 59.083549 
L 140.432337 59.197813 
L 141.011316 59.395552 
L 141.26864 59.237952 
L 141.525964 58.732997 
L 141.847619 57.428032 
L 142.362267 54.38059 
L 143.648888 46.254643 
L 144.292198 43.49224 
L 144.871177 41.909012 
L 145.385825 41.204953 
L 145.900473 40.869803 
L 146.35079 40.601887 
L 146.865438 39.949427 
L 147.63741 38.879844 
L 148.152058 38.647673 
L 148.731037 38.466493 
L 149.374347 38.178536 
L 149.631671 38.261866 
L 149.953326 38.639361 
L 150.403643 39.560839 
L 150.982622 41.233532 
L 151.561601 43.769409 
L 152.076249 47.106314 
L 152.590898 52.036092 
L 153.234208 60.550375 
L 155.807448 97.767665 
L 156.772413 107.26907 
L 157.544385 112.961053 
L 158.445019 118.010969 
L 159.345653 121.769484 
L 160.117625 124.06362 
L 161.08259 126.070884 
L 162.30488 128.002362 
L 164.170479 129.97006 
L 164.749458 130.114553 
L 165.199775 130.257815 
L 166.80805 130.983677 
L 168.030339 131.164722 
L 169.831607 131.330504 
L 170.474918 131.527727 
L 170.989566 131.619859 
L 171.954531 131.875296 
L 172.919496 132.004373 
L 173.17682 132.44295 
L 173.434144 133.335139 
L 173.755799 135.237564 
L 174.206116 139.556567 
L 175.685729 155.931298 
L 176.264708 159.046496 
L 177.165342 162.254568 
L 178.773617 167.033843 
L 179.802914 169.220585 
L 180.703548 170.570156 
L 182.311823 173.469238 
L 182.504816 173.394734 
L 182.697809 173.083861 
L 182.955133 172.194164 
L 183.276788 170.086153 
L 183.662774 165.850447 
L 184.177422 157.229925 
L 184.949394 139.524402 
L 186.236014 110.504162 
L 187.007986 97.666684 
L 187.779958 88.630712 
L 188.680593 80.469833 
L 189.452565 75.342919 
L 190.095875 72.367157 
L 191.318164 68.454414 
L 192.540453 65.922243 
L 193.248094 64.288437 
L 194.406052 62.669341 
L 195.242355 62.109342 
L 196.464644 61.602083 
L 197.236617 61.050779 
L 198.201582 60.545467 
L 200.260174 59.922546 
L 200.774822 59.912609 
L 201.353801 60.106129 
L 201.997111 59.883723 
L 202.447428 59.728586 
L 203.734048 60.020602 
L 204.699013 59.954644 
L 205.020668 59.957449 
L 205.277992 59.69895 
L 205.599647 59.067407 
L 205.985634 57.748483 
L 206.564613 54.721396 
L 208.558874 43.598204 
L 209.073522 42.257999 
L 209.652501 41.31462 
L 211.582431 39.440912 
L 212.097079 39.295975 
L 212.676058 39.353919 
L 213.319368 39.519626 
L 213.898347 39.58 
L 214.348664 39.858773 
L 214.798981 40.388011 
L 215.120637 41.085441 
L 215.635285 42.867151 
L 216.149933 45.467184 
L 216.664581 49.385369 
L 217.24356 55.703847 
L 218.079863 67.878056 
L 219.881131 94.684649 
L 220.717434 103.991108 
L 221.618068 111.527232 
L 222.454371 116.532212 
L 223.355005 120.509336 
L 224.384302 123.806662 
L 225.027612 125.343689 
L 226.18557 127.477788 
L 227.47219 129.206224 
L 227.986838 129.662088 
L 230.302754 130.79063 
L 231.010395 130.843219 
L 232.039691 131.198775 
L 234.033953 131.677913 
L 235.320573 131.702669 
L 236.349869 131.388132 
L 236.349869 131.388132 
" clip-path="url(#p16bbc31c7f)" style="fill: none; stroke: #1f77b4; stroke-width: 0.5; stroke-linecap: square"/>
   </g>
   <g id="line2d_16">
    <path d="M 43.356847 17.139501 
L 44.064488 16.836568 
L 44.965122 16.754791 
L 47.924349 16.820814 
L 55.708401 16.766797 
L 58.538965 16.651991 
L 69.925553 16.634047 
L 111.033067 16.770126 
L 117.080182 16.849561 
L 119.910746 16.774524 
L 122.869972 16.651159 
L 133.999236 16.634086 
L 175.171081 16.763726 
L 180.1889 16.837925 
L 184.434746 16.760006 
L 187.26531 16.651299 
L 201.93278 16.63363 
L 236.349869 16.702753 
L 236.349869 16.702753 
" clip-path="url(#p16bbc31c7f)" style="fill: none; stroke: #ff7f0e; stroke-width: 0.5; stroke-linecap: square"/>
   </g>
   <g id="line2d_17">
    <path d="M 43.356847 17.139501 
L 44.321812 17.359875 
L 45.47977 17.309877 
L 47.860018 17.258545 
L 49.2753 17.121284 
L 50.497589 17.174625 
L 51.526885 17.236386 
L 53.521146 17.05532 
L 55.00076 17.46984 
L 55.451077 17.259942 
L 56.802028 16.351809 
L 57.123683 16.453584 
L 58.281641 17.310738 
L 58.603296 17.156961 
L 58.989282 16.705152 
L 59.50393 16.10291 
L 59.761254 16.128211 
L 60.018578 16.427821 
L 60.854881 17.722879 
L 61.112205 17.723078 
L 61.562522 17.380316 
L 62.012839 17.126377 
L 62.463156 17.288111 
L 63.814108 17.581467 
L 64.650411 17.555717 
L 65.036397 17.33286 
L 65.808369 16.919803 
L 66.51601 16.709376 
L 67.352313 17.021475 
L 67.995623 17.269153 
L 68.317278 17.105668 
L 68.896257 16.731696 
L 69.282243 16.817035 
L 70.568863 17.258841 
L 71.340835 16.933436 
L 72.691787 17.220143 
L 73.52809 17.435348 
L 74.1714 17.261314 
L 74.879041 17.221667 
L 75.779675 16.53571 
L 76.10133 16.727402 
L 77.194957 17.676835 
L 77.773936 17.562013 
L 79.189218 17.239126 
L 79.832528 17.26197 
L 80.733162 17.50733 
L 81.633797 17.712596 
L 82.4701 17.420958 
L 83.242072 16.978411 
L 83.821051 16.88067 
L 86.844608 17.046338 
L 87.359256 17.051027 
L 87.938235 16.924149 
L 88.774538 17.19122 
L 89.996827 17.768764 
L 90.704469 17.527394 
L 91.154786 17.364094 
L 92.248413 17.181106 
L 92.891723 16.897536 
L 93.792357 16.476033 
L 94.499998 16.436561 
L 95.143308 16.518264 
L 95.850949 16.87598 
L 97.266231 17.175758 
L 100.161127 17.697906 
L 100.804437 17.389324 
L 103.056022 17.053703 
L 103.699332 17.06049 
L 105.050283 17.14631 
L 105.757924 17.340175 
L 106.915882 17.336837 
L 107.880847 16.981524 
L 108.331165 16.923047 
L 108.845813 16.897593 
L 109.617785 17.110422 
L 110.711412 17.627119 
L 111.033067 17.528896 
L 111.547715 16.979462 
L 112.062363 16.544417 
L 112.384018 16.579919 
L 112.770004 16.916886 
L 113.348983 17.441171 
L 113.670638 17.440315 
L 114.056624 17.174652 
L 114.44261 16.940508 
L 115.150251 16.8096 
L 116.822857 17.382387 
L 117.59483 17.187254 
L 118.431133 16.926344 
L 118.817119 16.973046 
L 119.396098 17.314457 
L 120.039408 17.717395 
L 120.554056 17.681983 
L 121.068704 17.314559 
L 121.776345 16.868898 
L 122.676979 16.681921 
L 123.062965 16.467493 
L 123.38462 16.530429 
L 123.899268 16.921976 
L 125.185888 17.933523 
L 125.636205 17.6681 
L 126.086523 17.10053 
L 126.601171 16.505064 
L 126.858495 16.480003 
L 127.18015 16.746974 
L 127.759129 17.19297 
L 128.209446 17.281388 
L 129.11008 17.208651 
L 129.689059 17.170107 
L 130.203707 16.788901 
L 130.589693 16.665682 
L 131.554658 16.681498 
L 132.069306 16.951467 
L 133.034271 17.661037 
L 133.355926 17.463525 
L 134.578215 16.42134 
L 135.092864 16.589972 
L 136.508146 17.311943 
L 137.987759 17.274786 
L 138.438076 17.343236 
L 139.403041 16.946431 
L 139.789027 16.853369 
L 140.175013 16.978757 
L 140.62533 17.455773 
L 140.946985 17.680882 
L 141.204309 17.630288 
L 142.426598 16.934978 
L 142.876915 16.962476 
L 144.227867 17.130491 
L 146.029135 16.611952 
L 147.251424 17.211687 
L 147.701741 17.305303 
L 148.92403 17.19675 
L 149.374347 17.054559 
L 150.081988 17.13271 
L 151.561601 17.32819 
L 152.076249 17.354703 
L 153.36287 17.206728 
L 153.748856 17.338329 
L 154.392166 17.677812 
L 155.035476 17.687426 
L 155.421462 17.687823 
L 156.064772 17.237828 
L 156.515089 17.035232 
L 158.445019 16.793528 
L 163.205514 17.060055 
L 163.655831 17.020516 
L 164.620796 17.140421 
L 165.135444 16.944282 
L 165.778754 16.73766 
L 167.129705 16.82421 
L 167.515691 16.824417 
L 168.544987 17.046721 
L 169.316959 17.083701 
L 170.925235 17.18685 
L 172.276186 16.789527 
L 172.726503 16.665965 
L 173.884461 16.771565 
L 174.399109 17.06534 
L 175.299743 17.382316 
L 176.136046 17.141276 
L 176.586363 16.852893 
L 177.422666 16.782171 
L 177.808652 17.066041 
L 178.3233 17.455149 
L 178.709286 17.476235 
L 179.931576 17.220465 
L 180.767879 17.348945 
L 181.411189 17.439558 
L 184.69207 17.248388 
L 186.493338 17.390173 
L 187.586965 17.00399 
L 188.358938 17.418248 
L 188.873586 17.548036 
L 190.41753 17.292663 
L 191.125171 16.864766 
L 192.604784 16.948696 
L 193.119432 16.900736 
L 193.698411 16.841063 
L 194.856369 17.26376 
L 195.371017 17.303605 
L 195.757003 17.108453 
L 196.400313 16.800037 
L 196.914961 16.817196 
L 197.300948 17.097919 
L 197.879927 17.493426 
L 198.394575 17.539809 
L 199.488202 17.378795 
L 199.874188 17.374178 
L 200.260174 17.104926 
L 200.839153 16.728604 
L 201.160808 16.799306 
L 201.546794 17.210061 
L 202.190104 17.922488 
L 202.447428 17.841973 
L 203.476724 17.273796 
L 203.86271 17.337229 
L 204.50602 17.524061 
L 204.892006 17.339866 
L 205.663978 16.821729 
L 206.049965 16.871766 
L 207.207923 17.260644 
L 207.851233 17.22939 
L 208.816198 17.010166 
L 210.102818 17.268598 
L 211.003452 17.644416 
L 211.389438 17.482695 
L 212.16141 17.099494 
L 212.740389 17.092255 
L 213.769685 17.16345 
L 214.991975 16.988375 
L 215.95694 16.970144 
L 217.822539 17.488898 
L 218.723173 17.32316 
L 219.495145 17.123053 
L 220.074124 17.18129 
L 221.618068 17.401263 
L 222.132716 17.349245 
L 223.097681 17.428125 
L 223.740992 17.286067 
L 225.156274 17.828077 
L 226.056908 17.762372 
L 226.893211 17.746661 
L 227.665183 17.599044 
L 229.723775 17.172348 
L 230.174092 17.062112 
L 231.010395 16.996895 
L 231.911029 16.939969 
L 232.61867 17.005519 
L 233.969622 17.009787 
L 234.548601 16.82764 
L 235.320573 16.883028 
L 236.349869 17.320276 
L 236.349869 17.320276 
" clip-path="url(#p16bbc31c7f)" style="fill: none; stroke: #2ca02c; stroke-width: 0.5; stroke-linecap: square"/>
   </g>
   <g id="patch_3">
    <path d="M 33.707196 202.559296 
L 33.707196 7.2 
" style="fill: none; stroke: #000000; stroke-width: 0.8; stroke-linejoin: miter; stroke-linecap: square"/>
   </g>
   <g id="patch_4">
    <path d="M 245.99952 202.559296 
L 245.99952 7.2 
" style="fill: none; stroke: #000000; stroke-width: 0.8; stroke-linejoin: miter; stroke-linecap: square"/>
   </g>
   <g id="patch_5">
    <path d="M 33.707196 202.559296 
L 245.99952 202.559296 
" style="fill: none; stroke: #000000; stroke-width: 0.8; stroke-linejoin: miter; stroke-linecap: square"/>
   </g>
   <g id="patch_6">
    <path d="M 33.707196 7.2 
L 245.99952 7.2 
" style="fill: none; stroke: #000000; stroke-width: 0.8; stroke-linejoin: miter; stroke-linecap: square"/>
   </g>
   <g id="legend_1">
    <g id="patch_7">
     <path d="M 193.792605 198.059296 
L 239.69952 198.059296 
Q 241.49952 198.059296 241.49952 196.259296 
L 241.49952 156.760168 
Q 241.49952 154.960168 239.69952 154.960168 
L 193.792605 154.960168 
Q 191.992605 154.960168 191.992605 156.760168 
L 191.992605 196.259296 
Q 191.992605 198.059296 193.792605 198.059296 
z
" style="fill: #ffffff; opacity: 0.8; stroke: #cccccc; stroke-width: 0.24; stroke-linejoin: miter"/>
    </g>
    <g id="line2d_18">
     <path d="M 195.592605 162.13495 
L 204.592605 162.13495 
L 213.592605 162.13495 
" style="fill: none; stroke: #1f77b4; stroke-width: 0.5; stroke-linecap: square"/>
    </g>
    <g id="text_16">
     <!-- $\langle \sigma_z\rangle$ -->
     <g transform="translate(220.792605 165.28495) scale(0.09 -0.09)">
      <defs>
       <path id="CMSY10-68" d="M 2099 4557 
C 2131 4627 2131 4640 2131 4672 
C 2131 4742 2074 4800 2003 4800 
C 1946 4800 1901 4768 1856 4653 
L 736 1715 
C 723 1677 704 1638 704 1600 
C 704 1581 704 1568 736 1491 
L 1856 -1446 
C 1882 -1517 1914 -1600 2003 -1600 
C 2074 -1600 2131 -1542 2131 -1472 
C 2131 -1453 2131 -1440 2099 -1370 
L 966 1600 
L 2099 4557 
z
" transform="scale(0.015625)"/>
       <path id="CMMI12-1b" d="M 3251 2408 
C 3334 2408 3546 2408 3546 2612 
C 3546 2752 3424 2752 3309 2752 
L 1894 2752 
C 934 2752 243 1686 243 932 
C 243 390 595 -64 1171 -64 
C 1926 -64 2752 747 2752 1705 
C 2752 1954 2694 2196 2541 2408 
L 3251 2408 
z
M 1178 64 
C 851 64 614 313 614 754 
C 614 1137 845 2408 1786 2408 
C 2061 2408 2368 2274 2368 1781 
C 2368 1558 2266 1021 2042 652 
C 1811 275 1466 64 1178 64 
z
" transform="scale(0.015625)"/>
       <path id="CMMI12-7a" d="M 813 486 
C 1088 803 1312 1004 1632 1296 
C 2016 1632 2182 1793 2272 1891 
C 2720 2338 2944 2713 2944 2764 
C 2944 2816 2893 2816 2880 2816 
C 2835 2816 2822 2793 2790 2750 
C 2630 2494 2477 2367 2310 2367 
C 2176 2367 2106 2421 1984 2565 
C 1850 2715 1741 2816 1555 2816 
C 1088 2816 806 2257 806 2128 
C 806 2108 813 2068 870 2068 
C 922 2068 928 2091 947 2133 
C 1056 2372 1363 2414 1485 2414 
C 1619 2414 1747 2376 1882 2327 
C 2125 2240 2227 2240 2291 2240 
C 2336 2240 2362 2240 2394 2246 
C 2182 1994 1837 1683 1549 1418 
L 902 816 
C 512 415 275 33 275 -12 
C 275 -51 307 -64 346 -64 
C 384 -64 390 -57 435 14 
C 538 163 742 384 979 384 
C 1114 384 1178 342 1306 193 
C 1427 61 1536 -64 1741 -64 
C 2368 -64 2726 732 2726 876 
C 2726 903 2720 942 2656 942 
C 2605 942 2598 917 2579 855 
C 2438 488 2061 338 1811 338 
C 1677 338 1549 376 1414 425 
C 1158 512 1088 512 1005 512 
C 941 512 870 512 813 486 
z
" transform="scale(0.015625)"/>
       <path id="CMSY10-69" d="M 1747 1491 
C 1779 1568 1779 1581 1779 1600 
C 1779 1619 1779 1632 1747 1709 
L 627 4653 
C 589 4762 550 4800 480 4800 
C 410 4800 352 4742 352 4672 
C 352 4653 352 4640 384 4570 
L 1517 1600 
L 384 -1357 
C 352 -1427 352 -1440 352 -1472 
C 352 -1542 410 -1600 480 -1600 
C 563 -1600 589 -1536 614 -1472 
L 1747 1491 
z
" transform="scale(0.015625)"/>
      </defs>
      <use xlink:href="#CMSY10-68" transform="scale(0.996264)"/>
      <use xlink:href="#CMMI12-1b" transform="translate(38.743734 0) scale(0.996264)"/>
      <use xlink:href="#CMMI12-7a" transform="translate(94.189195 -14.943915) scale(0.697382)"/>
      <use xlink:href="#CMSY10-69" transform="translate(129.51575 0) scale(0.996264)"/>
     </g>
    </g>
    <g id="line2d_19">
     <path d="M 195.592605 175.601326 
L 204.592605 175.601326 
L 213.592605 175.601326 
" style="fill: none; stroke: #ff7f0e; stroke-width: 0.5; stroke-linecap: square"/>
    </g>
    <g id="text_17">
     <!-- $\langle \sigma_x\rangle$ -->
     <g transform="translate(220.792605 178.751326) scale(0.09 -0.09)">
      <defs>
       <path id="CMMI12-78" d="M 3034 2606 
C 2829 2567 2752 2414 2752 2293 
C 2752 2139 2874 2088 2963 2088 
C 3155 2088 3290 2254 3290 2427 
C 3290 2695 2982 2816 2714 2816 
C 2323 2816 2106 2433 2048 2312 
C 1901 2816 1504 2816 1389 2816 
C 736 2816 390 1980 390 1839 
C 390 1814 416 1782 461 1782 
C 512 1782 525 1820 538 1846 
C 755 2555 1184 2689 1370 2689 
C 1658 2689 1715 2420 1715 2267 
C 1715 2127 1677 1980 1600 1673 
L 1382 798 
C 1286 415 1101 64 762 64 
C 730 64 570 64 435 147 
C 666 192 717 383 717 460 
C 717 588 621 664 499 664 
C 346 664 179 530 179 326 
C 179 57 480 -64 755 -64 
C 1062 -64 1280 179 1414 441 
C 1517 64 1837 -64 2074 -64 
C 2726 -64 3072 773 3072 913 
C 3072 945 3046 971 3008 971 
C 2950 971 2944 939 2925 888 
C 2752 326 2381 64 2093 64 
C 1869 64 1747 230 1747 492 
C 1747 632 1773 734 1875 1156 
L 2099 2024 
C 2195 2408 2413 2689 2707 2689 
C 2720 2689 2899 2689 3034 2606 
z
" transform="scale(0.015625)"/>
      </defs>
      <use xlink:href="#CMSY10-68" transform="scale(0.996264)"/>
      <use xlink:href="#CMMI12-1b" transform="translate(38.743734 0) scale(0.996264)"/>
      <use xlink:href="#CMMI12-78" transform="translate(94.189195 -14.943915) scale(0.697382)"/>
      <use xlink:href="#CMSY10-69" transform="translate(133.490986 0) scale(0.996264)"/>
     </g>
    </g>
    <g id="line2d_20">
     <path d="M 195.592605 189.067702 
L 204.592605 189.067702 
L 213.592605 189.067702 
" style="fill: none; stroke: #2ca02c; stroke-width: 0.5; stroke-linecap: square"/>
    </g>
    <g id="text_18">
     <!-- $\langle \sigma_y\rangle$ -->
     <g transform="translate(220.792605 192.217702) scale(0.09 -0.09)">
      <defs>
       <path id="CMMI12-79" d="M 1683 -700 
C 1510 -939 1261 -1152 947 -1152 
C 870 -1152 563 -1152 467 -889 
C 486 -895 518 -895 531 -895 
C 723 -895 851 -729 851 -582 
C 851 -435 730 -384 634 -384 
C 531 -384 307 -458 307 -759 
C 307 -1071 582 -1286 947 -1286 
C 1587 -1286 2234 -700 2413 6 
L 3040 2485 
C 3046 2517 3059 2556 3059 2594 
C 3059 2689 2982 2753 2886 2753 
C 2829 2753 2694 2727 2643 2535 
L 2170 658 
C 2138 543 2138 530 2086 460 
C 1958 281 1747 64 1440 64 
C 1082 64 1050 415 1050 588 
C 1050 952 1222 1443 1395 1903 
C 1466 2088 1504 2178 1504 2305 
C 1504 2574 1312 2816 998 2816 
C 410 2816 173 1890 173 1839 
C 173 1814 198 1782 243 1782 
C 301 1782 307 1807 333 1897 
C 486 2433 730 2689 979 2689 
C 1037 2689 1146 2689 1146 2478 
C 1146 2312 1075 2127 979 1884 
C 666 1047 666 837 666 683 
C 666 77 1101 -64 1421 -64 
C 1606 -64 1837 -6 2061 230 
L 2067 224 
C 1971 -147 1907 -392 1683 -700 
z
" transform="scale(0.015625)"/>
      </defs>
      <use xlink:href="#CMSY10-68" transform="scale(0.996264)"/>
      <use xlink:href="#CMMI12-1b" transform="translate(38.743734 0) scale(0.996264)"/>
      <use xlink:href="#CMMI12-79" transform="translate(94.189195 -14.943915) scale(0.697382)"/>
      <use xlink:href="#CMSY10-69" transform="translate(130.484301 0) scale(0.996264)"/>
     </g>
    </g>
   </g>
  </g>
 </g>
 <defs>
  <clipPath id="p16bbc31c7f">
   <rect x="33.707196" y="7.2" width="212.292324" height="195.359296"/>
  </clipPath>
 </defs>
</svg>
