<?xml version="1.0" encoding="utf-8" standalone="no"?>
<!DOCTYPE svg PUBLIC "-//W3C//DTD SVG 1.1//EN"
  "http://www.w3.org/Graphics/SVG/1.1/DTD/svg11.dtd">
<svg xmlns:xlink="http://www.w3.org/1999/xlink" width="253.19952pt" height="238.79952pt" viewBox="0 0 253.19952 238.79952" xmlns="http://www.w3.org/2000/svg" version="1.1">
 <metadata>
  <rdf:RDF xmlns:dc="http://purl.org/dc/elements/1.1/" xmlns:cc="http://creativecommons.org/ns#" xmlns:rdf="http://www.w3.org/1999/02/22-rdf-syntax-ns#">
   <cc:Work>
    <dc:type rdf:resource="http://purl.org/dc/dcmitype/StillImage"/>
    <dc:date>1980-01-01T00:00:00+00:00</dc:date>
    <dc:format>image/svg+xml</dc:format>
    <dc:creator>
     <cc:Agent>
      <dc:title>Matplotlib v3.6.2, https://matplotlib.org/</dc:title>
     </cc:Agent>
    </dc:creator>
   </cc:Work>
  </rdf:RDF>
 </metadata>
 <defs>
  <style type="text/css">*{stroke-linejoin: round; stroke-linecap: butt}</style>
 </defs>
 <g id="figure_1">
  <g id="patch_1">
   <path d="M 0 238.79952 
L 253.19952 238.79952 
L 253.19952 0 
L 0 0 
z
" style="fill: #ffffff"/>
  </g>
  <g id="axes_1">
   <g id="patch_2">
    <path d="M 33.707196 202.559296 
L 245.99952 202.559296 
L 245.99952 7.2 
L 33.707196 7.2 
z
" style="fill: #ffffff"/>
   </g>
   <g id="matplotlib.axis_1">
    <g id="xtick_1">
     <g id="line2d_1">
      <defs>
       <path id="m093e682a2c" d="M 0 0 
L 0 3.5 
" style="stroke: #000000; stroke-width: 0.8"/>
      </defs>
      <g>
       <use xlink:href="#m093e682a2c" x="43.356847" y="202.559296" style="stroke: #000000; stroke-width: 0.8"/>
      </g>
     </g>
     <g id="text_1">
      <!-- $\mathdefault{0}$ -->
      <g transform="translate(41.239756 217.194098) scale(0.08 -0.08)">
       <defs>
        <path id="CMR17-30" d="M 2688 2025 
C 2688 2416 2682 3080 2413 3591 
C 2176 4039 1798 4198 1466 4198 
C 1158 4198 768 4058 525 3597 
C 269 3118 243 2524 243 2025 
C 243 1661 250 1106 448 619 
C 723 -39 1216 -128 1466 -128 
C 1760 -128 2208 -7 2470 600 
C 2662 1042 2688 1559 2688 2025 
z
M 1466 -26 
C 1056 -26 813 325 723 812 
C 653 1188 653 1738 653 2096 
C 653 2588 653 2997 736 3387 
C 858 3929 1216 4096 1466 4096 
C 1728 4096 2067 3923 2189 3400 
C 2272 3036 2278 2607 2278 2096 
C 2278 1680 2278 1169 2202 792 
C 2067 95 1690 -26 1466 -26 
z
" transform="scale(0.015625)"/>
       </defs>
       <use xlink:href="#CMR17-30" transform="scale(0.996264)"/>
      </g>
     </g>
    </g>
    <g id="xtick_2">
     <g id="line2d_2">
      <g>
       <use xlink:href="#m093e682a2c" x="70.161434" y="202.559296" style="stroke: #000000; stroke-width: 0.8"/>
      </g>
     </g>
     <g id="text_2">
      <!-- $\mathdefault{25}$ -->
      <g transform="translate(65.927251 217.194098) scale(0.08 -0.08)">
       <defs>
        <path id="CMR17-32" d="M 2669 989 
L 2554 989 
C 2490 536 2438 459 2413 420 
C 2381 369 1920 369 1830 369 
L 602 369 
C 832 619 1280 1072 1824 1597 
C 2214 1967 2669 2402 2669 3035 
C 2669 3790 2067 4224 1395 4224 
C 691 4224 262 3604 262 3030 
C 262 2780 448 2748 525 2748 
C 589 2748 781 2787 781 3010 
C 781 3207 614 3264 525 3264 
C 486 3264 448 3258 422 3245 
C 544 3790 915 4058 1306 4058 
C 1862 4058 2227 3617 2227 3035 
C 2227 2479 1901 2000 1536 1584 
L 262 146 
L 262 0 
L 2515 0 
L 2669 989 
z
" transform="scale(0.015625)"/>
        <path id="CMR17-35" d="M 730 3692 
C 794 3666 1056 3584 1325 3584 
C 1920 3584 2246 3911 2432 4100 
C 2432 4157 2432 4192 2394 4192 
C 2387 4192 2374 4192 2323 4163 
C 2099 4058 1837 3973 1517 3973 
C 1325 3973 1037 3999 723 4139 
C 653 4171 640 4171 634 4171 
C 602 4171 595 4164 595 4037 
L 595 2203 
C 595 2089 595 2057 659 2057 
C 691 2057 704 2070 736 2114 
C 941 2401 1222 2522 1542 2522 
C 1766 2522 2246 2382 2246 1289 
C 2246 1085 2246 715 2054 421 
C 1894 159 1645 25 1370 25 
C 947 25 518 320 403 814 
C 429 807 480 795 506 795 
C 589 795 749 840 749 1038 
C 749 1210 627 1280 506 1280 
C 358 1280 262 1190 262 1011 
C 262 454 704 -128 1382 -128 
C 2042 -128 2669 440 2669 1264 
C 2669 2030 2170 2624 1549 2624 
C 1222 2624 947 2503 730 2274 
L 730 3692 
z
" transform="scale(0.015625)"/>
       </defs>
       <use xlink:href="#CMR17-32" transform="scale(0.996264)"/>
       <use xlink:href="#CMR17-35" transform="translate(45.690477 0) scale(0.996264)"/>
      </g>
     </g>
    </g>
    <g id="xtick_3">
     <g id="line2d_3">
      <g>
       <use xlink:href="#m093e682a2c" x="96.96602" y="202.559296" style="stroke: #000000; stroke-width: 0.8"/>
      </g>
     </g>
     <g id="text_3">
      <!-- $\mathdefault{50}$ -->
      <g transform="translate(92.731837 217.194098) scale(0.08 -0.08)">
       <use xlink:href="#CMR17-35" transform="scale(0.996264)"/>
       <use xlink:href="#CMR17-30" transform="translate(45.690477 0) scale(0.996264)"/>
      </g>
     </g>
    </g>
    <g id="xtick_4">
     <g id="line2d_4">
      <g>
       <use xlink:href="#m093e682a2c" x="123.770606" y="202.559296" style="stroke: #000000; stroke-width: 0.8"/>
      </g>
     </g>
     <g id="text_4">
      <!-- $\mathdefault{75}$ -->
      <g transform="translate(119.536423 217.194098) scale(0.08 -0.08)">
       <defs>
        <path id="CMR17-37" d="M 2886 3941 
L 2886 4081 
L 1382 4081 
C 634 4081 621 4165 595 4288 
L 480 4288 
L 294 3094 
L 410 3094 
C 429 3215 474 3540 550 3661 
C 589 3712 1062 3712 1171 3712 
L 2579 3712 
L 1869 2661 
C 1395 1954 1069 999 1069 165 
C 1069 89 1069 -128 1299 -128 
C 1530 -128 1530 89 1530 171 
L 1530 465 
C 1530 1508 1709 2196 2003 2636 
L 2886 3941 
z
" transform="scale(0.015625)"/>
       </defs>
       <use xlink:href="#CMR17-37" transform="scale(0.996264)"/>
       <use xlink:href="#CMR17-35" transform="translate(45.690477 0) scale(0.996264)"/>
      </g>
     </g>
    </g>
    <g id="xtick_5">
     <g id="line2d_5">
      <g>
       <use xlink:href="#m093e682a2c" x="150.575193" y="202.559296" style="stroke: #000000; stroke-width: 0.8"/>
      </g>
     </g>
     <g id="text_5">
      <!-- $\mathdefault{100}$ -->
      <g transform="translate(144.223918 217.194098) scale(0.08 -0.08)">
       <defs>
        <path id="CMR17-31" d="M 1702 4058 
C 1702 4192 1696 4192 1606 4192 
C 1357 3916 979 3827 621 3827 
C 602 3827 570 3827 563 3808 
C 557 3795 557 3782 557 3648 
C 755 3648 1088 3686 1344 3839 
L 1344 461 
C 1344 236 1331 160 781 160 
L 589 160 
L 589 0 
C 896 0 1216 0 1523 0 
C 1830 0 2150 0 2458 0 
L 2458 160 
L 2266 160 
C 1715 160 1702 230 1702 458 
L 1702 4058 
z
" transform="scale(0.015625)"/>
       </defs>
       <use xlink:href="#CMR17-31" transform="scale(0.996264)"/>
       <use xlink:href="#CMR17-30" transform="translate(45.690477 0) scale(0.996264)"/>
       <use xlink:href="#CMR17-30" transform="translate(91.380954 0) scale(0.996264)"/>
      </g>
     </g>
    </g>
    <g id="xtick_6">
     <g id="line2d_6">
      <g>
       <use xlink:href="#m093e682a2c" x="177.379779" y="202.559296" style="stroke: #000000; stroke-width: 0.8"/>
      </g>
     </g>
     <g id="text_6">
      <!-- $\mathdefault{125}$ -->
      <g transform="translate(171.028505 217.194098) scale(0.08 -0.08)">
       <use xlink:href="#CMR17-31" transform="scale(0.996264)"/>
       <use xlink:href="#CMR17-32" transform="translate(45.690477 0) scale(0.996264)"/>
       <use xlink:href="#CMR17-35" transform="translate(91.380954 0) scale(0.996264)"/>
      </g>
     </g>
    </g>
    <g id="xtick_7">
     <g id="line2d_7">
      <g>
       <use xlink:href="#m093e682a2c" x="204.184365" y="202.559296" style="stroke: #000000; stroke-width: 0.8"/>
      </g>
     </g>
     <g id="text_7">
      <!-- $\mathdefault{150}$ -->
      <g transform="translate(197.833091 217.194098) scale(0.08 -0.08)">
       <use xlink:href="#CMR17-31" transform="scale(0.996264)"/>
       <use xlink:href="#CMR17-35" transform="translate(45.690477 0) scale(0.996264)"/>
       <use xlink:href="#CMR17-30" transform="translate(91.380954 0) scale(0.996264)"/>
      </g>
     </g>
    </g>
    <g id="xtick_8">
     <g id="line2d_8">
      <g>
       <use xlink:href="#m093e682a2c" x="230.988952" y="202.559296" style="stroke: #000000; stroke-width: 0.8"/>
      </g>
     </g>
     <g id="text_8">
      <!-- $\mathdefault{175}$ -->
      <g transform="translate(224.637677 217.194098) scale(0.08 -0.08)">
       <use xlink:href="#CMR17-31" transform="scale(0.996264)"/>
       <use xlink:href="#CMR17-37" transform="translate(45.690477 0) scale(0.996264)"/>
       <use xlink:href="#CMR17-35" transform="translate(91.380954 0) scale(0.996264)"/>
      </g>
     </g>
    </g>
    <g id="text_9">
     <!-- $\tau$ -->
     <g transform="translate(137.675756 229.662342) scale(0.1 -0.1)">
      <defs>
       <path id="CMMI12-1c" d="M 1837 2408 
L 2899 2408 
C 2982 2408 3194 2408 3194 2612 
C 3194 2752 3072 2752 2957 2752 
L 1197 2752 
C 1050 2752 832 2752 538 2440 
C 371 2255 166 1917 166 1879 
C 166 1841 198 1828 237 1828 
C 282 1828 288 1847 320 1885 
C 653 2408 986 2408 1146 2408 
L 1677 2408 
L 1011 223 
C 979 127 979 114 979 95 
C 979 25 1024 -64 1152 -64 
C 1350 -64 1382 108 1402 203 
L 1837 2408 
z
" transform="scale(0.015625)"/>
      </defs>
      <use xlink:href="#CMMI12-1c" transform="scale(0.996264)"/>
     </g>
    </g>
   </g>
   <g id="matplotlib.axis_2">
    <g id="ytick_1">
     <g id="line2d_9">
      <defs>
       <path id="m64925e1836" d="M 0 0 
L -3.5 0 
" style="stroke: #000000; stroke-width: 0.8"/>
      </defs>
      <g>
       <use xlink:href="#m64925e1836" x="33.707196" y="193.679328" style="stroke: #000000; stroke-width: 0.8"/>
      </g>
     </g>
     <g id="text_10">
      <!-- $\mathdefault{−1.0}$ -->
      <g transform="translate(7.2 196.446729) scale(0.08 -0.08)">
       <defs>
        <path id="CMSY10-0" d="M 4218 1472 
C 4326 1472 4442 1472 4442 1600 
C 4442 1728 4326 1728 4218 1728 
L 755 1728 
C 646 1728 531 1728 531 1600 
C 531 1472 646 1472 755 1472 
L 4218 1472 
z
" transform="scale(0.015625)"/>
        <path id="CMMI12-3a" d="M 1178 307 
C 1178 492 1024 619 870 619 
C 685 619 557 466 557 313 
C 557 128 710 0 864 0 
C 1050 0 1178 153 1178 307 
z
" transform="scale(0.015625)"/>
       </defs>
       <use xlink:href="#CMSY10-0" transform="scale(0.996264)"/>
       <use xlink:href="#CMR17-31" transform="translate(77.487468 0) scale(0.996264)"/>
       <use xlink:href="#CMMI12-3a" transform="translate(123.177945 0) scale(0.996264)"/>
       <use xlink:href="#CMR17-30" transform="translate(150.275122 0) scale(0.996264)"/>
      </g>
     </g>
    </g>
    <g id="ytick_2">
     <g id="line2d_10">
      <g>
       <use xlink:href="#m64925e1836" x="33.707196" y="158.435782" style="stroke: #000000; stroke-width: 0.8"/>
      </g>
     </g>
     <g id="text_11">
      <!-- $\mathdefault{−0.8}$ -->
      <g transform="translate(7.2 161.203183) scale(0.08 -0.08)">
       <defs>
        <path id="CMR17-38" d="M 1741 2264 
C 2144 2467 2554 2773 2554 3263 
C 2554 3841 1990 4179 1472 4179 
C 890 4179 378 3759 378 3180 
C 378 3021 416 2747 666 2505 
C 730 2442 998 2251 1171 2130 
C 883 1983 211 1634 211 934 
C 211 279 838 -128 1459 -128 
C 2144 -128 2720 362 2720 1010 
C 2720 1590 2330 1857 2074 2029 
L 1741 2264 
z
M 902 2822 
C 851 2854 595 3051 595 3351 
C 595 3739 998 4032 1459 4032 
C 1965 4032 2336 3676 2336 3262 
C 2336 2669 1670 2331 1638 2331 
C 1632 2331 1626 2331 1574 2370 
L 902 2822 
z
M 2080 1519 
C 2176 1449 2483 1240 2483 851 
C 2483 381 2010 25 1472 25 
C 890 25 448 438 448 940 
C 448 1443 838 1862 1280 2060 
L 2080 1519 
z
" transform="scale(0.015625)"/>
       </defs>
       <use xlink:href="#CMSY10-0" transform="scale(0.996264)"/>
       <use xlink:href="#CMR17-30" transform="translate(77.487468 0) scale(0.996264)"/>
       <use xlink:href="#CMMI12-3a" transform="translate(123.177945 0) scale(0.996264)"/>
       <use xlink:href="#CMR17-38" transform="translate(150.275122 0) scale(0.996264)"/>
      </g>
     </g>
    </g>
    <g id="ytick_3">
     <g id="line2d_11">
      <g>
       <use xlink:href="#m64925e1836" x="33.707196" y="123.192237" style="stroke: #000000; stroke-width: 0.8"/>
      </g>
     </g>
     <g id="text_12">
      <!-- $\mathdefault{−0.6}$ -->
      <g transform="translate(7.2 125.959638) scale(0.08 -0.08)">
       <defs>
        <path id="CMR17-36" d="M 678 2176 
C 678 3690 1395 4032 1811 4032 
C 1946 4032 2272 4009 2400 3776 
C 2298 3776 2106 3776 2106 3553 
C 2106 3381 2246 3323 2336 3323 
C 2394 3323 2566 3348 2566 3560 
C 2566 3954 2246 4179 1805 4179 
C 1043 4179 243 3390 243 1984 
C 243 253 966 -128 1478 -128 
C 2099 -128 2688 427 2688 1283 
C 2688 2081 2170 2662 1517 2662 
C 1126 2662 838 2407 678 1960 
L 678 2176 
z
M 1478 25 
C 691 25 691 1200 691 1436 
C 691 1896 909 2560 1504 2560 
C 1613 2560 1926 2560 2138 2120 
C 2253 1870 2253 1609 2253 1289 
C 2253 944 2253 690 2118 434 
C 1978 171 1773 25 1478 25 
z
" transform="scale(0.015625)"/>
       </defs>
       <use xlink:href="#CMSY10-0" transform="scale(0.996264)"/>
       <use xlink:href="#CMR17-30" transform="translate(77.487468 0) scale(0.996264)"/>
       <use xlink:href="#CMMI12-3a" transform="translate(123.177945 0) scale(0.996264)"/>
       <use xlink:href="#CMR17-36" transform="translate(150.275122 0) scale(0.996264)"/>
      </g>
     </g>
    </g>
    <g id="ytick_4">
     <g id="line2d_12">
      <g>
       <use xlink:href="#m64925e1836" x="33.707196" y="87.948691" style="stroke: #000000; stroke-width: 0.8"/>
      </g>
     </g>
     <g id="text_13">
      <!-- $\mathdefault{−0.4}$ -->
      <g transform="translate(7.2 90.716092) scale(0.08 -0.08)">
       <defs>
        <path id="CMR17-34" d="M 2150 4122 
C 2150 4256 2144 4256 2029 4256 
L 128 1254 
L 128 1088 
L 1779 1088 
L 1779 457 
C 1779 224 1766 160 1318 160 
L 1197 160 
L 1197 0 
C 1402 0 1747 0 1965 0 
C 2182 0 2528 0 2733 0 
L 2733 160 
L 2611 160 
C 2163 160 2150 224 2150 457 
L 2150 1088 
L 2803 1088 
L 2803 1254 
L 2150 1254 
L 2150 4122 
z
M 1798 3703 
L 1798 1254 
L 256 1254 
L 1798 3703 
z
" transform="scale(0.015625)"/>
       </defs>
       <use xlink:href="#CMSY10-0" transform="scale(0.996264)"/>
       <use xlink:href="#CMR17-30" transform="translate(77.487468 0) scale(0.996264)"/>
       <use xlink:href="#CMMI12-3a" transform="translate(123.177945 0) scale(0.996264)"/>
       <use xlink:href="#CMR17-34" transform="translate(150.275122 0) scale(0.996264)"/>
      </g>
     </g>
    </g>
    <g id="ytick_5">
     <g id="line2d_13">
      <g>
       <use xlink:href="#m64925e1836" x="33.707196" y="52.705146" style="stroke: #000000; stroke-width: 0.8"/>
      </g>
     </g>
     <g id="text_14">
      <!-- $\mathdefault{−0.2}$ -->
      <g transform="translate(7.2 55.472547) scale(0.08 -0.08)">
       <use xlink:href="#CMSY10-0" transform="scale(0.996264)"/>
       <use xlink:href="#CMR17-30" transform="translate(77.487468 0) scale(0.996264)"/>
       <use xlink:href="#CMMI12-3a" transform="translate(123.177945 0) scale(0.996264)"/>
       <use xlink:href="#CMR17-32" transform="translate(150.275122 0) scale(0.996264)"/>
      </g>
     </g>
    </g>
    <g id="ytick_6">
     <g id="line2d_14">
      <g>
       <use xlink:href="#m64925e1836" x="33.707196" y="17.4616" style="stroke: #000000; stroke-width: 0.8"/>
      </g>
     </g>
     <g id="text_15">
      <!-- $\mathdefault{0.0}$ -->
      <g transform="translate(13.786507 20.229001) scale(0.08 -0.08)">
       <use xlink:href="#CMR17-30" transform="scale(0.996264)"/>
       <use xlink:href="#CMMI12-3a" transform="translate(45.690477 0) scale(0.996264)"/>
       <use xlink:href="#CMR17-30" transform="translate(72.787654 0) scale(0.996264)"/>
      </g>
     </g>
    </g>
   </g>
   <g id="line2d_15">
    <path d="M 43.356847 193.679328 
L 52.363188 193.589563 
L 52.620512 193.351939 
L 52.877836 192.74027 
L 53.13516 191.431026 
L 53.456815 188.190467 
L 53.842801 181.045837 
L 54.42178 164.523389 
L 55.129422 146.328687 
L 57.123683 108.836055 
L 57.895655 100.372843 
L 58.538965 96.462395 
L 60.468895 86.903804 
L 61.562522 83.214873 
L 62.977804 79.418633 
L 63.428121 78.051854 
L 63.878439 76.828317 
L 64.264425 76.395723 
L 64.58608 75.908438 
L 64.907735 74.874998 
L 65.358052 73.564121 
L 65.679707 73.209606 
L 66.001362 72.903431 
L 66.387348 72.068816 
L 66.837665 71.028722 
L 67.094989 70.964849 
L 67.352313 70.860759 
L 67.866961 70.149586 
L 68.638933 68.810712 
L 69.153581 68.940333 
L 69.475236 69.11181 
L 69.796891 69.644507 
L 70.182877 70.940266 
L 70.761856 73.78704 
L 71.533828 78.462214 
L 72.627456 87.305939 
L 73.335097 92.093917 
L 73.785414 93.85197 
L 74.1714 94.600827 
L 74.557386 94.882772 
L 75.136365 94.946033 
L 85.236333 94.877214 
L 85.750981 94.638188 
L 86.201298 94.145198 
L 86.651615 93.274533 
L 87.230594 91.612617 
L 88.066897 89.19214 
L 88.388552 88.846804 
L 88.581545 88.905223 
L 88.838869 89.324086 
L 89.160524 90.392823 
L 89.675172 93.137294 
L 92.891723 112.656985 
L 93.921019 117.795199 
L 94.821653 120.961953 
L 95.786618 123.6047 
L 98.359858 129.708387 
L 99.389155 131.270033 
L 100.289789 132.151518 
L 101.190423 133.058186 
L 101.576409 133.800152 
L 102.026726 135.208141 
L 102.541374 137.716683 
L 103.184684 142.185387 
L 105.178945 157.231472 
L 105.693593 159.228138 
L 106.14391 160.146633 
L 106.529896 160.494108 
L 107.044544 160.625169 
L 108.974475 160.635906 
L 116.758526 160.536744 
L 117.015851 160.30066 
L 117.273175 159.71003 
L 117.530499 158.475876 
L 117.852154 155.518687 
L 118.23814 149.300604 
L 120.425394 106.755168 
L 121.133035 95.848141 
L 122.033669 87.761991 
L 122.419655 85.190862 
L 123.191627 82.059757 
L 124.413916 77.759827 
L 124.992895 76.518824 
L 125.507543 75.480676 
L 126.408178 73.302835 
L 126.665502 72.944068 
L 127.18015 71.928095 
L 127.82346 71.438516 
L 128.402439 70.496584 
L 129.174411 68.701527 
L 129.882052 68.501511 
L 130.139376 68.136928 
L 130.718355 67.156342 
L 131.297334 66.943623 
L 132.133637 65.940133 
L 132.583954 65.202584 
L 132.905609 65.122467 
L 133.162933 65.220146 
L 133.61325 65.769378 
L 133.934905 66.334988 
L 134.320891 67.775851 
L 135.607512 73.919649 
L 136.379484 80.129195 
L 137.473111 88.673763 
L 137.987759 91.133758 
L 138.373745 92.069519 
L 138.759731 92.45963 
L 139.210048 92.571635 
L 141.461633 92.579235 
L 149.631671 92.483683 
L 150.146319 92.220165 
L 150.596636 91.704813 
L 151.111284 90.693089 
L 152.397904 87.855521 
L 152.655229 87.795157 
L 152.912553 88.038546 
L 153.234208 88.773195 
L 153.684525 90.517972 
L 154.327835 94.129752 
L 156.193434 106.669106 
L 157.351392 113.839978 
L 158.059033 116.960907 
L 159.023998 120.123505 
L 161.532908 127.129148 
L 162.433542 128.975829 
L 163.913155 131.449394 
L 165.264106 133.191566 
L 165.778754 133.976805 
L 166.16474 134.961056 
L 166.615057 136.787018 
L 167.194036 140.277879 
L 168.030339 146.954505 
L 169.123966 155.459349 
L 169.702945 158.496779 
L 170.153262 159.928525 
L 170.60358 160.663415 
L 170.989566 160.917478 
L 171.568545 161.000759 
L 178.065976 161.003246 
L 181.025203 160.923122 
L 181.282527 160.717459 
L 181.539851 160.203281 
L 181.797175 159.127926 
L 182.11883 156.514843 
L 182.504816 150.833829 
L 183.083795 137.736353 
L 183.791436 123.08961 
L 185.785697 92.951464 
L 186.879324 84.590161 
L 187.329641 82.717754 
L 187.844289 81.317008 
L 188.165945 80.581539 
L 189.066579 77.416855 
L 189.838551 75.567455 
L 190.353199 74.495653 
L 190.674854 74.281634 
L 190.932178 73.685287 
L 191.768481 71.189382 
L 192.154467 71.171724 
L 192.411791 70.559012 
L 192.733446 69.856197 
L 192.926439 69.783188 
L 193.183763 69.811009 
L 193.376756 69.534208 
L 193.827073 68.641114 
L 194.020066 68.699935 
L 194.27739 68.828513 
L 194.470383 68.599354 
L 195.628341 66.402349 
L 195.885665 66.385334 
L 196.142989 66.414315 
L 196.400313 66.081375 
L 196.85063 65.490321 
L 197.493941 65.160179 
L 197.751265 65.590278 
L 198.265913 66.446496 
L 198.587568 67.169127 
L 199.102216 69.18231 
L 199.616864 71.972281 
L 200.453167 78.049239 
L 201.997111 89.232272 
L 202.447428 91.009865 
L 202.833414 91.772515 
L 203.2194 92.055695 
L 203.798379 92.120095 
L 213.834016 92.061256 
L 214.412995 91.831338 
L 214.863313 91.378522 
L 215.31363 90.593636 
L 215.95694 88.961296 
L 216.664581 87.258266 
L 216.921905 87.021126 
L 217.114898 87.064747 
L 217.372222 87.444721 
L 217.693877 88.415335 
L 218.208525 90.843732 
L 219.109159 96.434733 
L 221.811061 113.934346 
L 222.776026 118.089926 
L 223.869654 121.874744 
L 225.156274 125.476301 
L 226.249901 128.212246 
L 226.957542 129.329287 
L 228.565817 131.398481 
L 229.916768 132.863717 
L 230.367085 133.820207 
L 230.817402 135.427612 
L 231.33205 138.213128 
L 231.97536 143.031876 
L 233.647967 156.387631 
L 234.226946 159.048303 
L 234.677263 160.183768 
L 235.063249 160.65422 
L 235.513566 160.849013 
L 236.349869 160.883777 
L 236.349869 160.883777 
" clip-path="url(#pb58e8bc994)" style="fill: none; stroke: #ff7f0e; stroke-width: 0.5; stroke-linecap: square"/>
   </g>
   <g id="line2d_16">
    <path d="M 43.356847 17.4616 
L 53.907132 17.56767 
L 55.065091 17.797761 
L 55.965725 18.00783 
L 56.737697 18.115845 
L 57.381007 18.504054 
L 57.895655 18.636217 
L 58.345972 18.804382 
L 58.603296 18.648692 
L 59.182275 18.190048 
L 59.954247 18.112912 
L 60.79055 17.609216 
L 61.112205 17.878614 
L 61.755515 18.496396 
L 62.012839 18.34662 
L 63.235128 17.201967 
L 63.556784 17.256323 
L 63.94277 17.59457 
L 64.328756 17.901803 
L 64.521749 17.844622 
L 64.843404 17.383618 
L 65.22939 16.978541 
L 65.486714 16.994208 
L 66.837665 17.494244 
L 67.287982 17.483209 
L 67.80263 17.531016 
L 68.960588 17.114871 
L 69.475236 16.888176 
L 69.861222 17.008613 
L 70.311539 17.380739 
L 71.212173 18.25674 
L 71.533828 18.212738 
L 72.177138 17.759329 
L 72.691787 17.554107 
L 73.270766 17.560382 
L 74.300062 17.620264 
L 75.329358 17.350723 
L 75.972668 17.307693 
L 76.808971 17.517321 
L 77.580943 17.62434 
L 78.417246 17.461825 
L 79.446542 17.296806 
L 80.411507 17.402467 
L 82.212776 17.62614 
L 83.499396 17.530148 
L 86.587284 17.202022 
L 89.739503 17.044893 
L 90.254152 17.307717 
L 91.347779 17.960529 
L 91.991089 17.975845 
L 93.084716 17.739033 
L 94.564329 17.311697 
L 98.424189 17.620173 
L 101.64074 17.402025 
L 102.477043 17.627248 
L 104.085318 18.203597 
L 104.921621 18.165396 
L 105.693593 17.914903 
L 108.202503 16.817651 
L 108.845813 16.941543 
L 109.617785 17.348647 
L 110.904405 18.079002 
L 111.354722 18.077216 
L 111.805039 17.845679 
L 113.284652 16.827023 
L 113.670638 17.038897 
L 114.957258 18.103724 
L 115.278913 17.962956 
L 115.793561 17.417926 
L 116.37254 16.878534 
L 116.694195 16.842542 
L 117.015851 17.040904 
L 117.59483 17.7684 
L 118.045147 18.200913 
L 118.302471 18.215363 
L 118.624126 17.954988 
L 119.589091 16.863452 
L 119.846415 16.976768 
L 120.361063 17.542938 
L 120.940042 18.125698 
L 121.261697 18.17938 
L 121.519021 17.98233 
L 122.355324 16.963674 
L 122.676979 17.023822 
L 123.062965 17.369861 
L 123.38462 17.585158 
L 123.706275 17.498256 
L 124.156592 17.389948 
L 124.606909 17.490221 
L 124.992895 17.537826 
L 125.31455 17.281801 
L 125.829199 16.802815 
L 126.215185 16.762855 
L 126.53684 16.956941 
L 127.115819 17.401626 
L 127.566136 17.299016 
L 128.080784 17.030408 
L 128.531101 16.753331 
L 128.852756 16.856522 
L 130.3967 17.571415 
L 130.718355 17.480392 
L 131.297334 17.195299 
L 132.519623 17.351965 
L 132.841278 17.385751 
L 133.162933 17.131972 
L 133.61325 16.764663 
L 133.870574 16.83176 
L 134.642546 17.373828 
L 135.028533 17.306843 
L 135.864836 16.936686 
L 136.250822 17.199702 
L 136.894132 17.672514 
L 137.280118 17.647875 
L 137.859097 17.298075 
L 138.373745 17.061993 
L 138.759731 17.107381 
L 139.274379 17.421689 
L 139.98202 17.84265 
L 140.368006 17.839716 
L 140.818323 17.606039 
L 141.718957 17.073682 
L 142.169274 17.103799 
L 142.748253 17.413953 
L 143.584556 17.832403 
L 144.099205 17.850482 
L 144.806846 17.622505 
L 146.286459 17.092206 
L 147.058431 17.074781 
L 147.959065 17.294314 
L 149.953326 17.873253 
L 150.789629 17.82338 
L 153.813187 17.322906 
L 155.164138 17.55633 
L 155.807448 17.606434 
L 156.322096 17.419552 
L 157.415723 16.897354 
L 157.930371 16.943977 
L 158.702343 17.297224 
L 159.602977 17.711481 
L 160.567942 17.843908 
L 161.211252 17.743253 
L 162.690866 17.369796 
L 164.170479 17.361309 
L 166.16474 17.467993 
L 169.38129 17.08523 
L 170.281924 17.277537 
L 172.340517 17.833887 
L 173.17682 17.761967 
L 174.206116 17.421221 
L 175.299743 17.092542 
L 175.878722 17.146831 
L 176.522032 17.44455 
L 177.358335 17.825369 
L 177.808652 17.78685 
L 178.387631 17.462483 
L 179.095272 17.098754 
L 179.54559 17.145668 
L 180.124569 17.492575 
L 180.767879 17.821672 
L 181.218196 17.782857 
L 181.797175 17.444883 
L 182.376154 17.191253 
L 182.76214 17.272094 
L 183.212457 17.648959 
L 183.920098 18.297421 
L 184.306084 18.289099 
L 185.271049 18.072894 
L 185.97869 18.401908 
L 186.622 18.405792 
L 187.393972 18.562625 
L 187.651296 18.493737 
L 188.165945 18.234822 
L 188.937917 18.122345 
L 189.581227 17.651788 
L 189.967213 17.468806 
L 190.288868 17.587942 
L 191.06084 18.012649 
L 191.382495 17.657203 
L 191.768481 17.335346 
L 192.090136 17.383864 
L 192.669115 17.51176 
L 193.248094 17.625966 
L 194.084397 18.273936 
L 194.727707 18.774553 
L 194.985031 18.523155 
L 195.435348 18.048047 
L 195.757003 18.090119 
L 196.464644 18.19987 
L 196.721968 18.098669 
L 197.365279 17.665024 
L 198.008589 17.740962 
L 198.394575 17.643762 
L 199.037885 17.875169 
L 199.552533 17.42021 
L 200.131512 16.720291 
L 200.64616 16.115638 
L 200.903484 16.107321 
L 201.160808 16.344734 
L 201.611125 17.175844 
L 202.254435 18.347089 
L 202.57609 18.521124 
L 202.833414 18.384124 
L 203.2194 17.802445 
L 203.991372 16.496034 
L 204.248696 16.38711 
L 204.50602 16.521005 
L 204.892006 17.09633 
L 205.728309 18.460253 
L 205.985634 18.53264 
L 206.242958 18.383985 
L 206.628944 17.846952 
L 207.529578 16.513406 
L 207.851233 16.386886 
L 208.172888 16.488061 
L 208.623205 16.909929 
L 209.974156 18.366169 
L 210.488804 18.534762 
L 210.939121 18.461091 
L 211.5181 18.112501 
L 212.547396 17.1339 
L 213.319368 16.536366 
L 213.834016 16.377033 
L 214.348664 16.459362 
L 214.927644 16.815145 
L 216.085602 17.913371 
L 216.857574 18.51174 
L 217.307891 18.594353 
L 217.758208 18.434006 
L 218.401518 17.916918 
L 219.237821 17.291436 
L 219.752469 17.197092 
L 221.232082 17.392444 
L 223.933985 17.541751 
L 224.834619 17.498302 
L 225.670922 17.668653 
L 226.314232 18.053241 
L 227.214866 18.576733 
L 227.793845 18.644781 
L 228.437155 18.477436 
L 229.788106 18.018299 
L 231.139057 17.878213 
L 231.911029 18.056909 
L 232.811664 18.22159 
L 233.583636 18.131618 
L 234.419939 17.787671 
L 236.349869 16.86325 
L 236.349869 16.86325 
" clip-path="url(#pb58e8bc994)" style="fill: none; stroke: #2ca02c; stroke-width: 0.5; stroke-linecap: square"/>
   </g>
   <g id="line2d_17">
    <path d="M 43.356847 17.4616 
L 54.42178 17.3537 
L 55.258084 17.337776 
L 55.901394 17.621749 
L 56.28738 17.659547 
L 56.609035 17.391546 
L 56.93069 17.183861 
L 57.188014 17.359213 
L 57.445338 17.505369 
L 57.702662 17.324916 
L 58.024317 17.155748 
L 58.21731 17.305762 
L 58.796289 17.974036 
L 58.989282 17.838302 
L 59.375268 17.45933 
L 59.632592 17.611439 
L 60.14724 17.888769 
L 60.340233 17.846285 
L 60.597557 17.49603 
L 61.112205 16.776306 
L 61.369529 16.711128 
L 61.562522 16.959722 
L 62.141501 17.966928 
L 62.527487 18.054372 
L 62.849142 17.896046 
L 63.685446 16.978875 
L 64.007101 16.75316 
L 64.200094 16.911331 
L 64.457418 17.537301 
L 64.779073 18.285838 
L 64.907735 18.247384 
L 65.22939 17.638844 
L 65.551045 17.171605 
L 65.808369 17.183108 
L 66.387348 17.391529 
L 66.773334 17.735232 
L 67.030658 17.613863 
L 67.480975 17.33392 
L 67.738299 17.486007 
L 68.252947 17.83182 
L 68.896257 17.955032 
L 69.08925 18.004737 
L 69.346574 17.73781 
L 69.73256 17.412035 
L 70.182877 17.078404 
L 70.633194 16.775693 
L 70.890518 16.92514 
L 71.855483 17.863459 
L 72.177138 17.79953 
L 73.335097 17.354403 
L 73.978407 17.446375 
L 75.007703 17.625423 
L 75.715344 17.480219 
L 76.680309 17.297705 
L 77.38795 17.432119 
L 78.417246 17.626465 
L 79.253549 17.510437 
L 80.668831 17.297144 
L 81.82679 17.392261 
L 84.142706 17.627562 
L 88.195559 17.465562 
L 89.289186 17.070842 
L 90.125489 16.803097 
L 90.575807 16.912423 
L 91.090455 17.289659 
L 92.312744 18.334013 
L 92.763061 18.416347 
L 93.34204 18.281268 
L 93.921019 17.913494 
L 95.078977 17.111827 
L 95.529294 17.132566 
L 96.622921 17.327182 
L 98.295527 17.178272 
L 99.453486 17.445471 
L 100.99743 17.567422 
L 102.92736 17.254435 
L 104.020987 17.345809 
L 105.050283 17.710036 
L 106.208241 18.085245 
L 106.851551 18.069684 
L 107.559192 17.812684 
L 109.682116 16.821346 
L 110.261095 16.901323 
L 110.840074 17.229 
L 112.126694 18.097643 
L 112.51268 18.042456 
L 112.962997 17.700614 
L 113.927962 16.837713 
L 114.249617 16.853727 
L 114.635603 17.141747 
L 115.664899 18.096118 
L 115.986554 18.045314 
L 116.37254 17.712124 
L 117.337506 16.734091 
L 117.659161 16.763467 
L 117.980816 17.054533 
L 118.945781 18.204335 
L 119.138774 18.096802 
L 119.460429 17.590919 
L 119.910746 16.972669 
L 120.296732 16.865364 
L 120.618387 16.941138 
L 121.068704 17.343527 
L 121.390359 17.974334 
L 121.712014 18.493202 
L 121.905007 18.390487 
L 123.062965 16.77464 
L 123.255958 17.104972 
L 123.641944 17.790526 
L 123.834937 17.740225 
L 124.542578 17.356991 
L 124.735571 17.460044 
L 125.378881 18.162969 
L 125.571874 17.974549 
L 126.086523 17.369918 
L 126.665502 16.880827 
L 126.922826 17.161904 
L 127.373143 17.689019 
L 127.82346 17.94091 
L 128.145115 18.083481 
L 128.338108 17.935776 
L 128.917087 17.131306 
L 129.496066 16.846578 
L 129.817721 17.122255 
L 130.075045 17.20672 
L 130.461031 17.231054 
L 130.911348 17.594734 
L 131.168672 17.429302 
L 131.490327 17.2396 
L 131.876313 17.231474 
L 132.390961 17.004587 
L 132.648285 17.30002 
L 133.162933 17.967994 
L 133.355926 17.904754 
L 133.61325 17.537253 
L 134.063567 16.845762 
L 134.25656 16.937866 
L 135.028533 17.605551 
L 135.350188 17.767304 
L 135.543181 17.647986 
L 136.315153 16.824522 
L 136.572477 16.931083 
L 137.794766 17.786054 
L 138.180752 17.655397 
L 139.33871 17.055718 
L 139.724696 17.162429 
L 141.204309 17.84313 
L 141.718957 17.579977 
L 142.619591 17.07743 
L 143.069908 17.086339 
L 143.713219 17.367065 
L 144.742515 17.820736 
L 145.385825 17.85592 
L 146.222128 17.65172 
L 148.216389 17.063201 
L 148.988361 17.11692 
L 150.081988 17.462184 
L 151.239946 17.782279 
L 152.076249 17.752931 
L 153.813187 17.561792 
L 155.550124 17.648382 
L 156.643751 17.848481 
L 157.158399 17.638346 
L 158.187695 17.139134 
L 158.766674 17.145894 
L 161.018259 17.6766 
L 162.111887 18.106695 
L 162.755197 18.113133 
L 166.550726 17.346836 
L 169.767276 17.1815 
L 170.925235 17.084752 
L 171.825869 17.24251 
L 174.206116 17.83549 
L 174.913757 17.694453 
L 176.779356 17.109436 
L 177.294004 17.32715 
L 178.3233 17.83497 
L 178.773617 17.747313 
L 179.609921 17.221262 
L 180.060238 17.085782 
L 180.510555 17.199805 
L 181.861506 17.811886 
L 182.311823 17.575165 
L 183.40545 16.876322 
L 183.662774 17.0032 
L 184.69207 17.87821 
L 184.949394 17.657589 
L 185.399711 17.195842 
L 185.657035 17.278241 
L 186.107352 17.594134 
L 186.300345 17.455167 
L 186.622 17.169452 
L 187.458303 17.347109 
L 187.779958 17.709467 
L 189.13091 17.689748 
L 189.709889 17.961269 
L 190.031544 17.421216 
L 190.481861 16.800526 
L 190.674854 16.788523 
L 190.867847 17.097103 
L 191.253833 17.88499 
L 191.446826 17.818009 
L 192.025805 17.293692 
L 192.283129 17.340916 
L 192.862108 17.599169 
L 193.119432 17.452296 
L 193.569749 17.150959 
L 194.470383 17.062128 
L 195.049362 18.240297 
L 195.113693 18.190915 
L 195.435348 17.548264 
L 195.692672 17.251059 
L 195.949996 17.375865 
L 196.979292 17.90883 
L 197.622603 17.119144 
L 198.137251 17.509872 
L 198.651899 16.930419 
L 198.909223 17.377467 
L 199.230878 17.84458 
L 199.681195 17.958494 
L 200.324505 18.087981 
L 200.581829 17.790491 
L 201.546794 16.351906 
L 201.804118 16.356872 
L 202.061442 16.585019 
L 202.511759 17.372657 
L 203.155069 18.429704 
L 203.412393 18.534586 
L 203.669717 18.396179 
L 204.055703 17.814781 
L 204.827675 16.501566 
L 205.084999 16.38684 
L 205.342323 16.511645 
L 205.728309 17.064165 
L 206.564613 18.417005 
L 206.886268 18.534306 
L 207.207923 18.359296 
L 207.65824 17.776482 
L 208.558874 16.58752 
L 208.94486 16.397516 
L 209.330846 16.437347 
L 209.845494 16.765827 
L 211.968417 18.508029 
L 212.483065 18.503521 
L 212.997713 18.26709 
L 213.769685 17.62043 
L 214.927644 16.676701 
L 215.442292 16.520994 
L 215.95694 16.620176 
L 216.471588 16.939656 
L 217.372222 17.8553 
L 218.015532 18.345359 
L 218.401518 18.384339 
L 218.787504 18.199312 
L 220.395779 17.134472 
L 221.489406 17.226009 
L 222.004054 17.390028 
L 223.612329 18.16154 
L 224.062647 18.029442 
L 224.705957 17.576268 
L 225.606591 16.990802 
L 226.056908 16.917109 
L 226.442894 17.058321 
L 227.793845 17.805015 
L 228.630148 17.867087 
L 229.466451 17.724386 
L 230.367085 17.336912 
L 231.203388 17.006319 
L 231.846698 17.020651 
L 232.747333 17.271588 
L 234.998918 18.08701 
L 235.642228 17.971301 
L 236.349869 17.642509 
L 236.349869 17.642509 
" clip-path="url(#pb58e8bc994)" style="fill: none; stroke: #d62728; stroke-width: 0.5; stroke-linecap: square"/>
   </g>
   <g id="patch_3">
    <path d="M 33.707196 202.559296 
L 33.707196 7.2 
" style="fill: none; stroke: #000000; stroke-width: 0.8; stroke-linejoin: miter; stroke-linecap: square"/>
   </g>
   <g id="patch_4">
    <path d="M 245.99952 202.559296 
L 245.99952 7.2 
" style="fill: none; stroke: #000000; stroke-width: 0.8; stroke-linejoin: miter; stroke-linecap: square"/>
   </g>
   <g id="patch_5">
    <path d="M 33.707196 202.559296 
L 245.99952 202.559296 
" style="fill: none; stroke: #000000; stroke-width: 0.8; stroke-linejoin: miter; stroke-linecap: square"/>
   </g>
   <g id="patch_6">
    <path d="M 33.707196 7.2 
L 245.99952 7.2 
" style="fill: none; stroke: #000000; stroke-width: 0.8; stroke-linejoin: miter; stroke-linecap: square"/>
   </g>
   <g id="legend_1">
    <g id="patch_7">
     <path d="M 116.8999 198.059296 
L 162.806816 198.059296 
Q 164.606816 198.059296 164.606816 196.259296 
L 164.606816 156.760168 
Q 164.606816 154.960168 162.806816 154.960168 
L 116.8999 154.960168 
Q 115.0999 154.960168 115.0999 156.760168 
L 115.0999 196.259296 
Q 115.0999 198.059296 116.8999 198.059296 
z
" style="fill: #ffffff; opacity: 0.8; stroke: #cccccc; stroke-width: 0.24; stroke-linejoin: miter"/>
    </g>
    <g id="line2d_18">
     <path d="M 118.6999 162.13495 
L 127.6999 162.13495 
L 136.6999 162.13495 
" style="fill: none; stroke: #ff7f0e; stroke-width: 0.5; stroke-linecap: square"/>
    </g>
    <g id="text_16">
     <!-- $\langle \sigma_z\rangle$ -->
     <g transform="translate(143.8999 165.28495) scale(0.09 -0.09)">
      <defs>
       <path id="CMSY10-68" d="M 2099 4557 
C 2131 4627 2131 4640 2131 4672 
C 2131 4742 2074 4800 2003 4800 
C 1946 4800 1901 4768 1856 4653 
L 736 1715 
C 723 1677 704 1638 704 1600 
C 704 1581 704 1568 736 1491 
L 1856 -1446 
C 1882 -1517 1914 -1600 2003 -1600 
C 2074 -1600 2131 -1542 2131 -1472 
C 2131 -1453 2131 -1440 2099 -1370 
L 966 1600 
L 2099 4557 
z
" transform="scale(0.015625)"/>
       <path id="CMMI12-1b" d="M 3251 2408 
C 3334 2408 3546 2408 3546 2612 
C 3546 2752 3424 2752 3309 2752 
L 1894 2752 
C 934 2752 243 1686 243 932 
C 243 390 595 -64 1171 -64 
C 1926 -64 2752 747 2752 1705 
C 2752 1954 2694 2196 2541 2408 
L 3251 2408 
z
M 1178 64 
C 851 64 614 313 614 754 
C 614 1137 845 2408 1786 2408 
C 2061 2408 2368 2274 2368 1781 
C 2368 1558 2266 1021 2042 652 
C 1811 275 1466 64 1178 64 
z
" transform="scale(0.015625)"/>
       <path id="CMMI12-7a" d="M 813 486 
C 1088 803 1312 1004 1632 1296 
C 2016 1632 2182 1793 2272 1891 
C 2720 2338 2944 2713 2944 2764 
C 2944 2816 2893 2816 2880 2816 
C 2835 2816 2822 2793 2790 2750 
C 2630 2494 2477 2367 2310 2367 
C 2176 2367 2106 2421 1984 2565 
C 1850 2715 1741 2816 1555 2816 
C 1088 2816 806 2257 806 2128 
C 806 2108 813 2068 870 2068 
C 922 2068 928 2091 947 2133 
C 1056 2372 1363 2414 1485 2414 
C 1619 2414 1747 2376 1882 2327 
C 2125 2240 2227 2240 2291 2240 
C 2336 2240 2362 2240 2394 2246 
C 2182 1994 1837 1683 1549 1418 
L 902 816 
C 512 415 275 33 275 -12 
C 275 -51 307 -64 346 -64 
C 384 -64 390 -57 435 14 
C 538 163 742 384 979 384 
C 1114 384 1178 342 1306 193 
C 1427 61 1536 -64 1741 -64 
C 2368 -64 2726 732 2726 876 
C 2726 903 2720 942 2656 942 
C 2605 942 2598 917 2579 855 
C 2438 488 2061 338 1811 338 
C 1677 338 1549 376 1414 425 
C 1158 512 1088 512 1005 512 
C 941 512 870 512 813 486 
z
" transform="scale(0.015625)"/>
       <path id="CMSY10-69" d="M 1747 1491 
C 1779 1568 1779 1581 1779 1600 
C 1779 1619 1779 1632 1747 1709 
L 627 4653 
C 589 4762 550 4800 480 4800 
C 410 4800 352 4742 352 4672 
C 352 4653 352 4640 384 4570 
L 1517 1600 
L 384 -1357 
C 352 -1427 352 -1440 352 -1472 
C 352 -1542 410 -1600 480 -1600 
C 563 -1600 589 -1536 614 -1472 
L 1747 1491 
z
" transform="scale(0.015625)"/>
      </defs>
      <use xlink:href="#CMSY10-68" transform="scale(0.996264)"/>
      <use xlink:href="#CMMI12-1b" transform="translate(38.743734 0) scale(0.996264)"/>
      <use xlink:href="#CMMI12-7a" transform="translate(94.189195 -14.943915) scale(0.697382)"/>
      <use xlink:href="#CMSY10-69" transform="translate(129.51575 0) scale(0.996264)"/>
     </g>
    </g>
    <g id="line2d_19">
     <path d="M 118.6999 175.601326 
L 127.6999 175.601326 
L 136.6999 175.601326 
" style="fill: none; stroke: #2ca02c; stroke-width: 0.5; stroke-linecap: square"/>
    </g>
    <g id="text_17">
     <!-- $\langle \sigma_x\rangle$ -->
     <g transform="translate(143.8999 178.751326) scale(0.09 -0.09)">
      <defs>
       <path id="CMMI12-78" d="M 3034 2606 
C 2829 2567 2752 2414 2752 2293 
C 2752 2139 2874 2088 2963 2088 
C 3155 2088 3290 2254 3290 2427 
C 3290 2695 2982 2816 2714 2816 
C 2323 2816 2106 2433 2048 2312 
C 1901 2816 1504 2816 1389 2816 
C 736 2816 390 1980 390 1839 
C 390 1814 416 1782 461 1782 
C 512 1782 525 1820 538 1846 
C 755 2555 1184 2689 1370 2689 
C 1658 2689 1715 2420 1715 2267 
C 1715 2127 1677 1980 1600 1673 
L 1382 798 
C 1286 415 1101 64 762 64 
C 730 64 570 64 435 147 
C 666 192 717 383 717 460 
C 717 588 621 664 499 664 
C 346 664 179 530 179 326 
C 179 57 480 -64 755 -64 
C 1062 -64 1280 179 1414 441 
C 1517 64 1837 -64 2074 -64 
C 2726 -64 3072 773 3072 913 
C 3072 945 3046 971 3008 971 
C 2950 971 2944 939 2925 888 
C 2752 326 2381 64 2093 64 
C 1869 64 1747 230 1747 492 
C 1747 632 1773 734 1875 1156 
L 2099 2024 
C 2195 2408 2413 2689 2707 2689 
C 2720 2689 2899 2689 3034 2606 
z
" transform="scale(0.015625)"/>
      </defs>
      <use xlink:href="#CMSY10-68" transform="scale(0.996264)"/>
      <use xlink:href="#CMMI12-1b" transform="translate(38.743734 0) scale(0.996264)"/>
      <use xlink:href="#CMMI12-78" transform="translate(94.189195 -14.943915) scale(0.697382)"/>
      <use xlink:href="#CMSY10-69" transform="translate(133.490986 0) scale(0.996264)"/>
     </g>
    </g>
    <g id="line2d_20">
     <path d="M 118.6999 189.067702 
L 127.6999 189.067702 
L 136.6999 189.067702 
" style="fill: none; stroke: #d62728; stroke-width: 0.5; stroke-linecap: square"/>
    </g>
    <g id="text_18">
     <!-- $\langle \sigma_y\rangle$ -->
     <g transform="translate(143.8999 192.217702) scale(0.09 -0.09)">
      <defs>
       <path id="CMMI12-79" d="M 1683 -700 
C 1510 -939 1261 -1152 947 -1152 
C 870 -1152 563 -1152 467 -889 
C 486 -895 518 -895 531 -895 
C 723 -895 851 -729 851 -582 
C 851 -435 730 -384 634 -384 
C 531 -384 307 -458 307 -759 
C 307 -1071 582 -1286 947 -1286 
C 1587 -1286 2234 -700 2413 6 
L 3040 2485 
C 3046 2517 3059 2556 3059 2594 
C 3059 2689 2982 2753 2886 2753 
C 2829 2753 2694 2727 2643 2535 
L 2170 658 
C 2138 543 2138 530 2086 460 
C 1958 281 1747 64 1440 64 
C 1082 64 1050 415 1050 588 
C 1050 952 1222 1443 1395 1903 
C 1466 2088 1504 2178 1504 2305 
C 1504 2574 1312 2816 998 2816 
C 410 2816 173 1890 173 1839 
C 173 1814 198 1782 243 1782 
C 301 1782 307 1807 333 1897 
C 486 2433 730 2689 979 2689 
C 1037 2689 1146 2689 1146 2478 
C 1146 2312 1075 2127 979 1884 
C 666 1047 666 837 666 683 
C 666 77 1101 -64 1421 -64 
C 1606 -64 1837 -6 2061 230 
L 2067 224 
C 1971 -147 1907 -392 1683 -700 
z
" transform="scale(0.015625)"/>
      </defs>
      <use xlink:href="#CMSY10-68" transform="scale(0.996264)"/>
      <use xlink:href="#CMMI12-1b" transform="translate(38.743734 0) scale(0.996264)"/>
      <use xlink:href="#CMMI12-79" transform="translate(94.189195 -14.943915) scale(0.697382)"/>
      <use xlink:href="#CMSY10-69" transform="translate(130.484301 0) scale(0.996264)"/>
     </g>
    </g>
   </g>
  </g>
 </g>
 <defs>
  <clipPath id="pb58e8bc994">
   <rect x="33.707196" y="7.2" width="212.292324" height="195.359296"/>
  </clipPath>
 </defs>
</svg>
