<?xml version="1.0" encoding="utf-8" standalone="no"?>
<!DOCTYPE svg PUBLIC "-//W3C//DTD SVG 1.1//EN"
  "http://www.w3.org/Graphics/SVG/1.1/DTD/svg11.dtd">
<svg xmlns:xlink="http://www.w3.org/1999/xlink" width="253.19952pt" height="238.79952pt" viewBox="0 0 253.19952 238.79952" xmlns="http://www.w3.org/2000/svg" version="1.1">
 <metadata>
  <rdf:RDF xmlns:dc="http://purl.org/dc/elements/1.1/" xmlns:cc="http://creativecommons.org/ns#" xmlns:rdf="http://www.w3.org/1999/02/22-rdf-syntax-ns#">
   <cc:Work>
    <dc:type rdf:resource="http://purl.org/dc/dcmitype/StillImage"/>
    <dc:date>1980-01-01T00:00:00+00:00</dc:date>
    <dc:format>image/svg+xml</dc:format>
    <dc:creator>
     <cc:Agent>
      <dc:title>Matplotlib v3.6.2, https://matplotlib.org/</dc:title>
     </cc:Agent>
    </dc:creator>
   </cc:Work>
  </rdf:RDF>
 </metadata>
 <defs>
  <style type="text/css">*{stroke-linejoin: round; stroke-linecap: butt}</style>
 </defs>
 <g id="figure_1">
  <g id="patch_1">
   <path d="M 0 238.79952 
L 253.19952 238.79952 
L 253.19952 0 
L 0 0 
z
" style="fill: #ffffff"/>
  </g>
  <g id="axes_1">
   <g id="patch_2">
    <path d="M 33.707196 202.559296 
L 245.99952 202.559296 
L 245.99952 7.2 
L 33.707196 7.2 
z
" style="fill: #ffffff"/>
   </g>
   <g id="matplotlib.axis_1">
    <g id="xtick_1">
     <g id="line2d_1">
      <defs>
       <path id="m749a2c6e40" d="M 0 0 
L 0 3.5 
" style="stroke: #000000; stroke-width: 0.8"/>
      </defs>
      <g>
       <use xlink:href="#m749a2c6e40" x="43.356847" y="202.559296" style="stroke: #000000; stroke-width: 0.8"/>
      </g>
     </g>
     <g id="text_1">
      <!-- $\mathdefault{0}$ -->
      <g transform="translate(41.239756 217.194098) scale(0.08 -0.08)">
       <defs>
        <path id="CMR17-30" d="M 2688 2025 
C 2688 2416 2682 3080 2413 3591 
C 2176 4039 1798 4198 1466 4198 
C 1158 4198 768 4058 525 3597 
C 269 3118 243 2524 243 2025 
C 243 1661 250 1106 448 619 
C 723 -39 1216 -128 1466 -128 
C 1760 -128 2208 -7 2470 600 
C 2662 1042 2688 1559 2688 2025 
z
M 1466 -26 
C 1056 -26 813 325 723 812 
C 653 1188 653 1738 653 2096 
C 653 2588 653 2997 736 3387 
C 858 3929 1216 4096 1466 4096 
C 1728 4096 2067 3923 2189 3400 
C 2272 3036 2278 2607 2278 2096 
C 2278 1680 2278 1169 2202 792 
C 2067 95 1690 -26 1466 -26 
z
" transform="scale(0.015625)"/>
       </defs>
       <use xlink:href="#CMR17-30" transform="scale(0.996264)"/>
      </g>
     </g>
    </g>
    <g id="xtick_2">
     <g id="line2d_2">
      <g>
       <use xlink:href="#m749a2c6e40" x="70.161434" y="202.559296" style="stroke: #000000; stroke-width: 0.8"/>
      </g>
     </g>
     <g id="text_2">
      <!-- $\mathdefault{25}$ -->
      <g transform="translate(65.927251 217.194098) scale(0.08 -0.08)">
       <defs>
        <path id="CMR17-32" d="M 2669 989 
L 2554 989 
C 2490 536 2438 459 2413 420 
C 2381 369 1920 369 1830 369 
L 602 369 
C 832 619 1280 1072 1824 1597 
C 2214 1967 2669 2402 2669 3035 
C 2669 3790 2067 4224 1395 4224 
C 691 4224 262 3604 262 3030 
C 262 2780 448 2748 525 2748 
C 589 2748 781 2787 781 3010 
C 781 3207 614 3264 525 3264 
C 486 3264 448 3258 422 3245 
C 544 3790 915 4058 1306 4058 
C 1862 4058 2227 3617 2227 3035 
C 2227 2479 1901 2000 1536 1584 
L 262 146 
L 262 0 
L 2515 0 
L 2669 989 
z
" transform="scale(0.015625)"/>
        <path id="CMR17-35" d="M 730 3692 
C 794 3666 1056 3584 1325 3584 
C 1920 3584 2246 3911 2432 4100 
C 2432 4157 2432 4192 2394 4192 
C 2387 4192 2374 4192 2323 4163 
C 2099 4058 1837 3973 1517 3973 
C 1325 3973 1037 3999 723 4139 
C 653 4171 640 4171 634 4171 
C 602 4171 595 4164 595 4037 
L 595 2203 
C 595 2089 595 2057 659 2057 
C 691 2057 704 2070 736 2114 
C 941 2401 1222 2522 1542 2522 
C 1766 2522 2246 2382 2246 1289 
C 2246 1085 2246 715 2054 421 
C 1894 159 1645 25 1370 25 
C 947 25 518 320 403 814 
C 429 807 480 795 506 795 
C 589 795 749 840 749 1038 
C 749 1210 627 1280 506 1280 
C 358 1280 262 1190 262 1011 
C 262 454 704 -128 1382 -128 
C 2042 -128 2669 440 2669 1264 
C 2669 2030 2170 2624 1549 2624 
C 1222 2624 947 2503 730 2274 
L 730 3692 
z
" transform="scale(0.015625)"/>
       </defs>
       <use xlink:href="#CMR17-32" transform="scale(0.996264)"/>
       <use xlink:href="#CMR17-35" transform="translate(45.690477 0) scale(0.996264)"/>
      </g>
     </g>
    </g>
    <g id="xtick_3">
     <g id="line2d_3">
      <g>
       <use xlink:href="#m749a2c6e40" x="96.96602" y="202.559296" style="stroke: #000000; stroke-width: 0.8"/>
      </g>
     </g>
     <g id="text_3">
      <!-- $\mathdefault{50}$ -->
      <g transform="translate(92.731837 217.194098) scale(0.08 -0.08)">
       <use xlink:href="#CMR17-35" transform="scale(0.996264)"/>
       <use xlink:href="#CMR17-30" transform="translate(45.690477 0) scale(0.996264)"/>
      </g>
     </g>
    </g>
    <g id="xtick_4">
     <g id="line2d_4">
      <g>
       <use xlink:href="#m749a2c6e40" x="123.770606" y="202.559296" style="stroke: #000000; stroke-width: 0.8"/>
      </g>
     </g>
     <g id="text_4">
      <!-- $\mathdefault{75}$ -->
      <g transform="translate(119.536423 217.194098) scale(0.08 -0.08)">
       <defs>
        <path id="CMR17-37" d="M 2886 3941 
L 2886 4081 
L 1382 4081 
C 634 4081 621 4165 595 4288 
L 480 4288 
L 294 3094 
L 410 3094 
C 429 3215 474 3540 550 3661 
C 589 3712 1062 3712 1171 3712 
L 2579 3712 
L 1869 2661 
C 1395 1954 1069 999 1069 165 
C 1069 89 1069 -128 1299 -128 
C 1530 -128 1530 89 1530 171 
L 1530 465 
C 1530 1508 1709 2196 2003 2636 
L 2886 3941 
z
" transform="scale(0.015625)"/>
       </defs>
       <use xlink:href="#CMR17-37" transform="scale(0.996264)"/>
       <use xlink:href="#CMR17-35" transform="translate(45.690477 0) scale(0.996264)"/>
      </g>
     </g>
    </g>
    <g id="xtick_5">
     <g id="line2d_5">
      <g>
       <use xlink:href="#m749a2c6e40" x="150.575193" y="202.559296" style="stroke: #000000; stroke-width: 0.8"/>
      </g>
     </g>
     <g id="text_5">
      <!-- $\mathdefault{100}$ -->
      <g transform="translate(144.223918 217.194098) scale(0.08 -0.08)">
       <defs>
        <path id="CMR17-31" d="M 1702 4058 
C 1702 4192 1696 4192 1606 4192 
C 1357 3916 979 3827 621 3827 
C 602 3827 570 3827 563 3808 
C 557 3795 557 3782 557 3648 
C 755 3648 1088 3686 1344 3839 
L 1344 461 
C 1344 236 1331 160 781 160 
L 589 160 
L 589 0 
C 896 0 1216 0 1523 0 
C 1830 0 2150 0 2458 0 
L 2458 160 
L 2266 160 
C 1715 160 1702 230 1702 458 
L 1702 4058 
z
" transform="scale(0.015625)"/>
       </defs>
       <use xlink:href="#CMR17-31" transform="scale(0.996264)"/>
       <use xlink:href="#CMR17-30" transform="translate(45.690477 0) scale(0.996264)"/>
       <use xlink:href="#CMR17-30" transform="translate(91.380954 0) scale(0.996264)"/>
      </g>
     </g>
    </g>
    <g id="xtick_6">
     <g id="line2d_6">
      <g>
       <use xlink:href="#m749a2c6e40" x="177.379779" y="202.559296" style="stroke: #000000; stroke-width: 0.8"/>
      </g>
     </g>
     <g id="text_6">
      <!-- $\mathdefault{125}$ -->
      <g transform="translate(171.028505 217.194098) scale(0.08 -0.08)">
       <use xlink:href="#CMR17-31" transform="scale(0.996264)"/>
       <use xlink:href="#CMR17-32" transform="translate(45.690477 0) scale(0.996264)"/>
       <use xlink:href="#CMR17-35" transform="translate(91.380954 0) scale(0.996264)"/>
      </g>
     </g>
    </g>
    <g id="xtick_7">
     <g id="line2d_7">
      <g>
       <use xlink:href="#m749a2c6e40" x="204.184365" y="202.559296" style="stroke: #000000; stroke-width: 0.8"/>
      </g>
     </g>
     <g id="text_7">
      <!-- $\mathdefault{150}$ -->
      <g transform="translate(197.833091 217.194098) scale(0.08 -0.08)">
       <use xlink:href="#CMR17-31" transform="scale(0.996264)"/>
       <use xlink:href="#CMR17-35" transform="translate(45.690477 0) scale(0.996264)"/>
       <use xlink:href="#CMR17-30" transform="translate(91.380954 0) scale(0.996264)"/>
      </g>
     </g>
    </g>
    <g id="xtick_8">
     <g id="line2d_8">
      <g>
       <use xlink:href="#m749a2c6e40" x="230.988952" y="202.559296" style="stroke: #000000; stroke-width: 0.8"/>
      </g>
     </g>
     <g id="text_8">
      <!-- $\mathdefault{175}$ -->
      <g transform="translate(224.637677 217.194098) scale(0.08 -0.08)">
       <use xlink:href="#CMR17-31" transform="scale(0.996264)"/>
       <use xlink:href="#CMR17-37" transform="translate(45.690477 0) scale(0.996264)"/>
       <use xlink:href="#CMR17-35" transform="translate(91.380954 0) scale(0.996264)"/>
      </g>
     </g>
    </g>
    <g id="text_9">
     <!-- $\tau$ -->
     <g transform="translate(137.675756 229.662342) scale(0.1 -0.1)">
      <defs>
       <path id="CMMI12-1c" d="M 1837 2408 
L 2899 2408 
C 2982 2408 3194 2408 3194 2612 
C 3194 2752 3072 2752 2957 2752 
L 1197 2752 
C 1050 2752 832 2752 538 2440 
C 371 2255 166 1917 166 1879 
C 166 1841 198 1828 237 1828 
C 282 1828 288 1847 320 1885 
C 653 2408 986 2408 1146 2408 
L 1677 2408 
L 1011 223 
C 979 127 979 114 979 95 
C 979 25 1024 -64 1152 -64 
C 1350 -64 1382 108 1402 203 
L 1837 2408 
z
" transform="scale(0.015625)"/>
      </defs>
      <use xlink:href="#CMMI12-1c" transform="scale(0.996264)"/>
     </g>
    </g>
   </g>
   <g id="matplotlib.axis_2">
    <g id="ytick_1">
     <g id="line2d_9">
      <defs>
       <path id="me94cce419c" d="M 0 0 
L -3.5 0 
" style="stroke: #000000; stroke-width: 0.8"/>
      </defs>
      <g>
       <use xlink:href="#me94cce419c" x="33.707196" y="193.679328" style="stroke: #000000; stroke-width: 0.8"/>
      </g>
     </g>
     <g id="text_10">
      <!-- $\mathdefault{−1.0}$ -->
      <g transform="translate(7.2 196.446729) scale(0.08 -0.08)">
       <defs>
        <path id="CMSY10-0" d="M 4218 1472 
C 4326 1472 4442 1472 4442 1600 
C 4442 1728 4326 1728 4218 1728 
L 755 1728 
C 646 1728 531 1728 531 1600 
C 531 1472 646 1472 755 1472 
L 4218 1472 
z
" transform="scale(0.015625)"/>
        <path id="CMMI12-3a" d="M 1178 307 
C 1178 492 1024 619 870 619 
C 685 619 557 466 557 313 
C 557 128 710 0 864 0 
C 1050 0 1178 153 1178 307 
z
" transform="scale(0.015625)"/>
       </defs>
       <use xlink:href="#CMSY10-0" transform="scale(0.996264)"/>
       <use xlink:href="#CMR17-31" transform="translate(77.487468 0) scale(0.996264)"/>
       <use xlink:href="#CMMI12-3a" transform="translate(123.177945 0) scale(0.996264)"/>
       <use xlink:href="#CMR17-30" transform="translate(150.275122 0) scale(0.996264)"/>
      </g>
     </g>
    </g>
    <g id="ytick_2">
     <g id="line2d_10">
      <g>
       <use xlink:href="#me94cce419c" x="33.707196" y="158.3366" style="stroke: #000000; stroke-width: 0.8"/>
      </g>
     </g>
     <g id="text_11">
      <!-- $\mathdefault{−0.8}$ -->
      <g transform="translate(7.2 161.104001) scale(0.08 -0.08)">
       <defs>
        <path id="CMR17-38" d="M 1741 2264 
C 2144 2467 2554 2773 2554 3263 
C 2554 3841 1990 4179 1472 4179 
C 890 4179 378 3759 378 3180 
C 378 3021 416 2747 666 2505 
C 730 2442 998 2251 1171 2130 
C 883 1983 211 1634 211 934 
C 211 279 838 -128 1459 -128 
C 2144 -128 2720 362 2720 1010 
C 2720 1590 2330 1857 2074 2029 
L 1741 2264 
z
M 902 2822 
C 851 2854 595 3051 595 3351 
C 595 3739 998 4032 1459 4032 
C 1965 4032 2336 3676 2336 3262 
C 2336 2669 1670 2331 1638 2331 
C 1632 2331 1626 2331 1574 2370 
L 902 2822 
z
M 2080 1519 
C 2176 1449 2483 1240 2483 851 
C 2483 381 2010 25 1472 25 
C 890 25 448 438 448 940 
C 448 1443 838 1862 1280 2060 
L 2080 1519 
z
" transform="scale(0.015625)"/>
       </defs>
       <use xlink:href="#CMSY10-0" transform="scale(0.996264)"/>
       <use xlink:href="#CMR17-30" transform="translate(77.487468 0) scale(0.996264)"/>
       <use xlink:href="#CMMI12-3a" transform="translate(123.177945 0) scale(0.996264)"/>
       <use xlink:href="#CMR17-38" transform="translate(150.275122 0) scale(0.996264)"/>
      </g>
     </g>
    </g>
    <g id="ytick_3">
     <g id="line2d_11">
      <g>
       <use xlink:href="#me94cce419c" x="33.707196" y="122.993872" style="stroke: #000000; stroke-width: 0.8"/>
      </g>
     </g>
     <g id="text_12">
      <!-- $\mathdefault{−0.6}$ -->
      <g transform="translate(7.2 125.761273) scale(0.08 -0.08)">
       <defs>
        <path id="CMR17-36" d="M 678 2176 
C 678 3690 1395 4032 1811 4032 
C 1946 4032 2272 4009 2400 3776 
C 2298 3776 2106 3776 2106 3553 
C 2106 3381 2246 3323 2336 3323 
C 2394 3323 2566 3348 2566 3560 
C 2566 3954 2246 4179 1805 4179 
C 1043 4179 243 3390 243 1984 
C 243 253 966 -128 1478 -128 
C 2099 -128 2688 427 2688 1283 
C 2688 2081 2170 2662 1517 2662 
C 1126 2662 838 2407 678 1960 
L 678 2176 
z
M 1478 25 
C 691 25 691 1200 691 1436 
C 691 1896 909 2560 1504 2560 
C 1613 2560 1926 2560 2138 2120 
C 2253 1870 2253 1609 2253 1289 
C 2253 944 2253 690 2118 434 
C 1978 171 1773 25 1478 25 
z
" transform="scale(0.015625)"/>
       </defs>
       <use xlink:href="#CMSY10-0" transform="scale(0.996264)"/>
       <use xlink:href="#CMR17-30" transform="translate(77.487468 0) scale(0.996264)"/>
       <use xlink:href="#CMMI12-3a" transform="translate(123.177945 0) scale(0.996264)"/>
       <use xlink:href="#CMR17-36" transform="translate(150.275122 0) scale(0.996264)"/>
      </g>
     </g>
    </g>
    <g id="ytick_4">
     <g id="line2d_12">
      <g>
       <use xlink:href="#me94cce419c" x="33.707196" y="87.651144" style="stroke: #000000; stroke-width: 0.8"/>
      </g>
     </g>
     <g id="text_13">
      <!-- $\mathdefault{−0.4}$ -->
      <g transform="translate(7.2 90.418544) scale(0.08 -0.08)">
       <defs>
        <path id="CMR17-34" d="M 2150 4122 
C 2150 4256 2144 4256 2029 4256 
L 128 1254 
L 128 1088 
L 1779 1088 
L 1779 457 
C 1779 224 1766 160 1318 160 
L 1197 160 
L 1197 0 
C 1402 0 1747 0 1965 0 
C 2182 0 2528 0 2733 0 
L 2733 160 
L 2611 160 
C 2163 160 2150 224 2150 457 
L 2150 1088 
L 2803 1088 
L 2803 1254 
L 2150 1254 
L 2150 4122 
z
M 1798 3703 
L 1798 1254 
L 256 1254 
L 1798 3703 
z
" transform="scale(0.015625)"/>
       </defs>
       <use xlink:href="#CMSY10-0" transform="scale(0.996264)"/>
       <use xlink:href="#CMR17-30" transform="translate(77.487468 0) scale(0.996264)"/>
       <use xlink:href="#CMMI12-3a" transform="translate(123.177945 0) scale(0.996264)"/>
       <use xlink:href="#CMR17-34" transform="translate(150.275122 0) scale(0.996264)"/>
      </g>
     </g>
    </g>
    <g id="ytick_5">
     <g id="line2d_13">
      <g>
       <use xlink:href="#me94cce419c" x="33.707196" y="52.308415" style="stroke: #000000; stroke-width: 0.8"/>
      </g>
     </g>
     <g id="text_14">
      <!-- $\mathdefault{−0.2}$ -->
      <g transform="translate(7.2 55.075816) scale(0.08 -0.08)">
       <use xlink:href="#CMSY10-0" transform="scale(0.996264)"/>
       <use xlink:href="#CMR17-30" transform="translate(77.487468 0) scale(0.996264)"/>
       <use xlink:href="#CMMI12-3a" transform="translate(123.177945 0) scale(0.996264)"/>
       <use xlink:href="#CMR17-32" transform="translate(150.275122 0) scale(0.996264)"/>
      </g>
     </g>
    </g>
    <g id="ytick_6">
     <g id="line2d_14">
      <g>
       <use xlink:href="#me94cce419c" x="33.707196" y="16.965687" style="stroke: #000000; stroke-width: 0.8"/>
      </g>
     </g>
     <g id="text_15">
      <!-- $\mathdefault{0.0}$ -->
      <g transform="translate(13.786507 19.733088) scale(0.08 -0.08)">
       <use xlink:href="#CMR17-30" transform="scale(0.996264)"/>
       <use xlink:href="#CMMI12-3a" transform="translate(45.690477 0) scale(0.996264)"/>
       <use xlink:href="#CMR17-30" transform="translate(72.787654 0) scale(0.996264)"/>
      </g>
     </g>
    </g>
   </g>
   <g id="line2d_15">
    <path d="M 43.356847 193.679328 
L 43.421178 193.433572 
L 43.54984 191.493717 
L 43.807164 182.470181 
L 44.965122 129.632283 
L 45.093784 128.646559 
L 45.158115 128.657491 
L 45.286777 129.617943 
L 45.544101 134.676246 
L 46.637729 162.308591 
L 46.830722 163.027375 
L 46.959384 162.715641 
L 47.216708 160.762551 
L 47.924349 154.440927 
L 48.117342 154.003787 
L 48.246004 154.109283 
L 48.438997 154.771954 
L 48.889314 157.589072 
L 49.339631 159.993573 
L 49.596955 160.575224 
L 49.789948 160.626891 
L 50.047272 160.328397 
L 50.754913 159.207279 
L 50.947906 159.200972 
L 51.20523 159.480685 
L 51.591216 160.358879 
L 52.49185 162.506531 
L 52.813505 162.835046 
L 53.006498 162.796881 
L 53.199491 162.467239 
L 53.456815 161.360782 
L 53.77847 158.490426 
L 54.164456 152.479295 
L 56.544704 108.172512 
L 57.252345 99.106941 
L 57.831324 93.944715 
L 58.474634 89.777819 
L 60.340233 82.326354 
L 60.919212 80.696403 
L 62.656149 75.996947 
L 63.042135 75.588305 
L 63.36379 74.792193 
L 64.007101 73.095022 
L 64.457418 72.497118 
L 64.714742 72.136388 
L 65.615376 70.135502 
L 66.130024 69.630845 
L 66.51601 68.892239 
L 66.837665 68.461377 
L 67.030658 68.548869 
L 67.352313 68.717191 
L 67.545306 68.457292 
L 68.574602 66.304273 
L 68.831926 66.370286 
L 69.153581 66.394556 
L 69.410905 66.160483 
L 69.989884 65.419808 
L 70.247208 65.175102 
L 70.697525 64.663916 
L 71.083511 64.621775 
L 71.276504 64.514019 
L 71.598159 63.897301 
L 72.177138 62.870208 
L 72.434463 62.835562 
L 72.949111 63.033589 
L 73.270766 62.653053 
L 73.656752 62.298666 
L 74.107069 62.154977 
L 74.428724 61.996617 
L 74.879041 62.071688 
L 75.136365 61.69393 
L 75.522351 61.22745 
L 75.908337 60.996291 
L 76.229992 60.940568 
L 76.422985 60.571579 
L 76.808971 58.996191 
L 77.259288 56.506373 
L 77.966929 50.33299 
L 78.867563 43.204436 
L 79.382211 40.456218 
L 79.639535 40.00177 
L 79.896859 39.952117 
L 80.540169 40.118158 
L 81.633797 38.938526 
L 82.019783 38.797385 
L 82.727424 38.68904 
L 83.242072 38.233523 
L 83.499396 38.429927 
L 83.821051 38.626764 
L 84.271368 38.497621 
L 85.236333 39.551128 
L 86.136967 41.572965 
L 86.651615 43.504562 
L 87.166263 46.220673 
L 87.873904 51.281542 
L 88.645876 58.471543 
L 89.868165 72.706533 
L 91.283448 88.087497 
L 92.441406 98.832447 
L 93.470702 106.480002 
L 94.371336 111.561145 
L 95.722287 117.797121 
L 96.815914 121.833602 
L 97.973872 125.223773 
L 99.196162 128.097437 
L 100.096796 129.731401 
L 101.061761 130.94392 
L 102.091057 132.007223 
L 104.535635 133.729874 
L 107.43053 135.387769 
L 108.395496 135.726615 
L 108.65282 136.152746 
L 108.910144 137.075368 
L 109.231799 139.288193 
L 109.617785 143.818174 
L 111.033067 163.012877 
L 111.22606 163.478487 
L 111.354722 163.459312 
L 111.547715 163.066667 
L 112.319687 160.886098 
L 112.51268 160.91187 
L 112.770004 161.37596 
L 113.927962 164.193179 
L 114.185286 164.259226 
L 115.214582 164.163774 
L 115.664899 164.693404 
L 116.887189 166.239839 
L 117.208844 166.415084 
L 117.401837 166.284331 
L 117.59483 165.838944 
L 117.852154 164.522827 
L 118.173809 161.304312 
L 118.559795 154.836516 
L 120.81138 110.954048 
L 121.519021 101.710854 
L 122.419655 93.175295 
L 123.191627 88.680096 
L 124.156592 84.847731 
L 125.121557 81.601301 
L 125.957861 79.223311 
L 126.794164 76.820938 
L 127.630467 75.23839 
L 128.145115 74.367894 
L 129.11008 72.282538 
L 131.490327 68.774546 
L 131.747651 68.450999 
L 132.648285 66.876496 
L 134.063567 65.821665 
L 134.513884 66.012373 
L 134.706878 65.733322 
L 135.414519 64.431891 
L 135.736174 64.07774 
L 136.12216 63.625422 
L 136.636808 63.458749 
L 137.022794 63.394248 
L 137.40878 62.98202 
L 137.730435 62.719818 
L 138.631069 62.5357 
L 138.952724 62.276626 
L 139.403041 61.909873 
L 140.303675 61.689191 
L 140.496668 61.455753 
L 140.753992 60.746342 
L 141.397302 58.142992 
L 141.847619 54.813079 
L 142.812584 45.922644 
L 143.19857 43.053532 
L 143.648888 41.477951 
L 144.034874 40.672491 
L 145.128501 39.868652 
L 146.029135 39.302052 
L 146.736776 38.501928 
L 147.187093 38.627603 
L 147.701741 38.35728 
L 147.894734 38.362949 
L 148.28072 38.583263 
L 148.859699 38.461686 
L 149.760333 39.535666 
L 150.081988 40.388884 
L 151.239946 44.705838 
L 151.754594 48.142974 
L 152.655229 55.950204 
L 153.555863 65.782419 
L 155.2928 85.435558 
L 156.643751 97.939622 
L 157.737378 106.278489 
L 158.766674 112.386449 
L 159.731639 116.813473 
L 160.760935 120.535715 
L 162.111887 124.504322 
L 163.527169 128.137109 
L 164.427803 129.800254 
L 165.392768 131.200697 
L 166.293402 132.055765 
L 168.995304 134.118551 
L 171.8902 135.425783 
L 172.790834 135.911207 
L 173.048158 136.434171 
L 173.305482 137.506312 
L 173.627137 139.976425 
L 174.013123 144.846847 
L 175.235412 162.437332 
L 175.492736 163.495138 
L 175.621398 163.593384 
L 175.75006 163.463129 
L 176.007384 162.747749 
L 176.586363 161.052656 
L 176.779356 160.961943 
L 176.972349 161.175079 
L 177.294004 162.030757 
L 178.001645 164.103317 
L 178.3233 164.438398 
L 178.644955 164.415695 
L 179.288266 164.225498 
L 179.609921 164.367006 
L 180.060238 164.852 
L 181.346858 166.450035 
L 181.604182 166.477218 
L 181.797175 166.239185 
L 182.054499 165.361265 
L 182.311823 163.563745 
L 182.633478 159.642143 
L 183.083795 151.067975 
L 184.370415 124.816223 
L 185.528373 105.517342 
L 186.364676 96.72009 
L 187.007986 92.03585 
L 187.715627 88.312964 
L 189.452565 82.056715 
L 190.160206 80.06713 
L 190.674854 78.891597 
L 191.125171 77.870247 
L 191.897143 75.313386 
L 192.154467 75.154442 
L 192.411791 74.456803 
L 192.862108 73.149465 
L 193.119432 73.011647 
L 193.312425 72.900558 
L 193.569749 72.392076 
L 193.955735 71.678807 
L 194.341721 71.419987 
L 194.792038 70.410306 
L 195.242355 69.541128 
L 196.528975 68.400859 
L 198.651899 66.049576 
L 199.295209 65.510109 
L 200.774822 63.683569 
L 201.096477 63.606743 
L 201.546794 63.633457 
L 202.190104 63.223437 
L 202.833414 63.310144 
L 203.026407 63.196113 
L 203.669717 62.488797 
L 204.120034 62.16028 
L 204.956337 61.256334 
L 205.277992 60.217441 
L 205.79264 57.826417 
L 206.307289 53.790257 
L 207.272254 45.591409 
L 207.851233 42.516429 
L 208.237219 41.576673 
L 208.880529 40.855597 
L 209.459508 40.366 
L 209.845494 39.97172 
L 210.488804 39.823573 
L 210.939121 39.582927 
L 211.389438 39.701131 
L 212.740389 38.635624 
L 213.44803 38.782697 
L 214.09134 39.558389 
L 214.412995 40.344865 
L 215.442292 44.172185 
L 215.95694 46.903768 
L 216.60025 51.763418 
L 217.436553 59.985596 
L 221.039089 98.909064 
L 221.939723 105.573425 
L 223.03335 112.067363 
L 223.998316 116.613172 
L 225.091943 120.581588 
L 226.507225 124.926784 
L 227.665183 127.655282 
L 228.565817 129.204756 
L 229.723775 130.793824 
L 231.653705 132.847725 
L 232.811664 133.869623 
L 233.776629 134.284473 
L 234.870256 134.792444 
L 236.092545 135.408139 
L 236.349869 135.491968 
L 236.349869 135.491968 
" clip-path="url(#pc123542ef5)" style="fill: none; stroke: #1f77b4; stroke-width: 0.5; stroke-linecap: square"/>
   </g>
   <g id="line2d_16">
    <path d="M 43.356847 16.965687 
L 44.257481 16.610353 
L 45.158115 16.528753 
L 58.410303 16.459453 
L 91.669434 16.477998 
L 118.624126 16.596329 
L 121.712014 16.467704 
L 131.490327 16.455769 
L 174.913757 16.617306 
L 177.101011 16.627739 
L 183.019464 16.592369 
L 186.043021 16.467629 
L 195.885665 16.455257 
L 235.384904 16.531871 
L 236.349869 16.53274 
L 236.349869 16.53274 
" clip-path="url(#pc123542ef5)" style="fill: none; stroke: #ff7f0e; stroke-width: 0.5; stroke-linecap: square"/>
   </g>
   <g id="line2d_17">
    <path d="M 43.356847 16.965687 
L 44.450474 16.591568 
L 45.029453 16.586962 
L 45.544101 16.819653 
L 46.444736 17.324347 
L 46.830722 17.252519 
L 47.281039 16.871348 
L 47.924349 16.335564 
L 48.310335 16.293961 
L 48.696321 16.516866 
L 49.596955 17.172732 
L 49.982941 17.09911 
L 51.20523 16.574634 
L 51.719878 16.848599 
L 52.427519 17.170092 
L 52.877836 17.141629 
L 54.100125 16.804069 
L 54.807767 17.149806 
L 55.451077 17.35474 
L 56.158718 17.289638 
L 56.93069 17.20181 
L 58.152979 17.302819 
L 58.924951 17.068342 
L 59.375268 17.247034 
L 59.696923 17.273968 
L 60.597557 17.032452 
L 61.112205 17.138326 
L 61.819846 17.205556 
L 62.270163 17.138243 
L 62.72048 16.733521 
L 63.042135 16.601807 
L 63.428121 16.803996 
L 63.94277 16.960829 
L 64.650411 17.071132 
L 65.422383 16.929066 
L 66.258686 16.950156 
L 66.837665 16.506898 
L 67.15932 16.357474 
L 67.416644 16.515784 
L 67.995623 16.971515 
L 68.317278 16.882735 
L 69.346574 16.379385 
L 70.247208 16.474619 
L 72.370132 17.628847 
L 72.691787 17.635191 
L 73.077773 17.360078 
L 73.656752 17.011952 
L 74.107069 16.916331 
L 74.557386 17.159902 
L 75.586682 17.824411 
L 75.844006 17.565447 
L 76.487316 16.719655 
L 77.066295 16.497139 
L 79.896859 16.504444 
L 80.990486 17.133959 
L 81.698128 17.103754 
L 83.049079 17.351512 
L 83.821051 17.053494 
L 84.528692 16.826748 
L 85.815312 16.372207 
L 86.265629 16.705076 
L 86.908939 17.130498 
L 87.487918 17.229339 
L 88.066897 17.087247 
L 88.967531 16.59063 
L 89.675172 16.28104 
L 90.189821 16.316194 
L 92.377075 16.825278 
L 93.599364 16.880502 
L 95.014646 17.080101 
L 97.266231 16.969854 
L 98.681513 16.923353 
L 100.868768 16.587454 
L 102.155388 16.353304 
L 102.798698 16.475664 
L 105.243276 17.287467 
L 105.886586 17.204006 
L 108.588489 16.4968 
L 109.29613 16.59886 
L 111.033067 16.989975 
L 115.021589 16.83818 
L 115.922223 16.995965 
L 116.822857 17.234725 
L 117.401837 17.136311 
L 118.431133 16.894261 
L 120.554056 16.931239 
L 121.197366 17.174123 
L 121.647683 17.094525 
L 122.098 17.013449 
L 122.869972 17.067921 
L 123.963599 16.906141 
L 124.799902 17.070751 
L 125.250219 17.071833 
L 125.700536 16.645352 
L 126.022192 16.474265 
L 126.343847 16.547908 
L 127.373143 17.085838 
L 128.145115 17.015443 
L 128.724094 16.792266 
L 129.689059 17.041706 
L 130.654024 17.573245 
L 131.04001 17.401398 
L 131.425996 16.99574 
L 131.940644 16.418914 
L 132.262299 16.415801 
L 133.162933 16.578636 
L 133.741912 16.3804 
L 134.706878 16.573532 
L 135.607512 16.50715 
L 136.443815 16.937456 
L 137.280118 16.866756 
L 138.6954 16.112235 
L 139.017055 16.111016 
L 139.917689 16.501127 
L 140.432337 16.330793 
L 140.882654 16.554812 
L 141.976281 17.229031 
L 143.327232 17.05603 
L 145.514487 17.18693 
L 146.222128 17.338152 
L 148.152058 17.140936 
L 149.374347 17.277308 
L 150.21065 17.196307 
L 150.725298 17.092725 
L 151.883256 16.734159 
L 152.462235 16.771017 
L 153.298539 17.126011 
L 154.263504 17.423593 
L 155.035476 17.512368 
L 155.614455 17.307826 
L 156.57942 16.947995 
L 158.316357 16.784576 
L 159.023998 17.026309 
L 160.696604 17.730171 
L 161.211252 17.607469 
L 162.626535 17.068173 
L 163.655831 17.186672 
L 164.492134 17.162486 
L 165.778754 17.085311 
L 168.159001 16.974693 
L 168.995304 16.81535 
L 170.796573 16.316438 
L 171.439883 16.471886 
L 173.755799 17.337988 
L 174.270447 17.190182 
L 175.428405 16.750885 
L 175.878722 16.838086 
L 176.650694 17.052215 
L 177.165342 16.889035 
L 178.258969 16.470855 
L 178.773617 16.524204 
L 180.124569 16.841101 
L 180.703548 16.681746 
L 181.346858 16.512946 
L 181.797175 16.669209 
L 182.569147 17.299578 
L 183.083795 17.5727 
L 183.469781 17.530503 
L 184.563408 17.181745 
L 185.464042 17.563157 
L 185.850028 17.686784 
L 186.171683 17.554652 
L 186.814993 17.185519 
L 187.651296 17.211081 
L 187.972951 17.146892 
L 188.873586 17.35429 
L 189.323903 17.038315 
L 189.77422 16.744243 
L 190.031544 16.813169 
L 190.932178 17.349873 
L 191.253833 17.088873 
L 191.768481 16.6856 
L 192.154467 16.699184 
L 192.862108 16.744696 
L 193.183763 16.868524 
L 193.891404 17.272031 
L 194.406052 17.371905 
L 194.856369 17.479643 
L 195.371017 17.516489 
L 196.20732 17.952428 
L 196.593306 17.789494 
L 197.42961 17.199216 
L 198.780561 17.483959 
L 200.00285 16.930485 
L 200.581829 16.433872 
L 201.225139 16.208486 
L 201.611125 16.315802 
L 202.704752 16.789541 
L 203.283731 16.760719 
L 204.313027 16.960785 
L 205.020668 17.352079 
L 205.277992 17.173907 
L 205.728309 16.83003 
L 206.049965 16.956687 
L 207.143592 17.654983 
L 207.786902 17.602178 
L 210.810459 17.346572 
L 211.389438 17.431336 
L 212.16141 17.409517 
L 214.863313 17.950103 
L 215.95694 17.88872 
L 217.050567 17.638247 
L 217.88687 17.175825 
L 218.723173 16.798205 
L 219.366483 16.736128 
L 221.360744 16.951934 
L 222.776026 17.159686 
L 224.384302 17.230363 
L 225.735253 17.426463 
L 228.244162 17.975476 
L 229.144796 17.740665 
L 231.33205 17.018248 
L 232.039691 17.161876 
L 233.390643 17.491718 
L 234.098284 17.400983 
L 235.063249 17.000346 
L 236.349869 16.461004 
L 236.349869 16.461004 
" clip-path="url(#pc123542ef5)" style="fill: none; stroke: #2ca02c; stroke-width: 0.5; stroke-linecap: square"/>
   </g>
   <g id="patch_3">
    <path d="M 33.707196 202.559296 
L 33.707196 7.2 
" style="fill: none; stroke: #000000; stroke-width: 0.8; stroke-linejoin: miter; stroke-linecap: square"/>
   </g>
   <g id="patch_4">
    <path d="M 245.99952 202.559296 
L 245.99952 7.2 
" style="fill: none; stroke: #000000; stroke-width: 0.8; stroke-linejoin: miter; stroke-linecap: square"/>
   </g>
   <g id="patch_5">
    <path d="M 33.707196 202.559296 
L 245.99952 202.559296 
" style="fill: none; stroke: #000000; stroke-width: 0.8; stroke-linejoin: miter; stroke-linecap: square"/>
   </g>
   <g id="patch_6">
    <path d="M 33.707196 7.2 
L 245.99952 7.2 
" style="fill: none; stroke: #000000; stroke-width: 0.8; stroke-linejoin: miter; stroke-linecap: square"/>
   </g>
   <g id="legend_1">
    <g id="patch_7">
     <path d="M 193.792605 198.059296 
L 239.69952 198.059296 
Q 241.49952 198.059296 241.49952 196.259296 
L 241.49952 156.760168 
Q 241.49952 154.960168 239.69952 154.960168 
L 193.792605 154.960168 
Q 191.992605 154.960168 191.992605 156.760168 
L 191.992605 196.259296 
Q 191.992605 198.059296 193.792605 198.059296 
z
" style="fill: #ffffff; opacity: 0.8; stroke: #cccccc; stroke-width: 0.24; stroke-linejoin: miter"/>
    </g>
    <g id="line2d_18">
     <path d="M 195.592605 162.13495 
L 204.592605 162.13495 
L 213.592605 162.13495 
" style="fill: none; stroke: #1f77b4; stroke-width: 0.5; stroke-linecap: square"/>
    </g>
    <g id="text_16">
     <!-- $\langle \sigma_z\rangle$ -->
     <g transform="translate(220.792605 165.28495) scale(0.09 -0.09)">
      <defs>
       <path id="CMSY10-68" d="M 2099 4557 
C 2131 4627 2131 4640 2131 4672 
C 2131 4742 2074 4800 2003 4800 
C 1946 4800 1901 4768 1856 4653 
L 736 1715 
C 723 1677 704 1638 704 1600 
C 704 1581 704 1568 736 1491 
L 1856 -1446 
C 1882 -1517 1914 -1600 2003 -1600 
C 2074 -1600 2131 -1542 2131 -1472 
C 2131 -1453 2131 -1440 2099 -1370 
L 966 1600 
L 2099 4557 
z
" transform="scale(0.015625)"/>
       <path id="CMMI12-1b" d="M 3251 2408 
C 3334 2408 3546 2408 3546 2612 
C 3546 2752 3424 2752 3309 2752 
L 1894 2752 
C 934 2752 243 1686 243 932 
C 243 390 595 -64 1171 -64 
C 1926 -64 2752 747 2752 1705 
C 2752 1954 2694 2196 2541 2408 
L 3251 2408 
z
M 1178 64 
C 851 64 614 313 614 754 
C 614 1137 845 2408 1786 2408 
C 2061 2408 2368 2274 2368 1781 
C 2368 1558 2266 1021 2042 652 
C 1811 275 1466 64 1178 64 
z
" transform="scale(0.015625)"/>
       <path id="CMMI12-7a" d="M 813 486 
C 1088 803 1312 1004 1632 1296 
C 2016 1632 2182 1793 2272 1891 
C 2720 2338 2944 2713 2944 2764 
C 2944 2816 2893 2816 2880 2816 
C 2835 2816 2822 2793 2790 2750 
C 2630 2494 2477 2367 2310 2367 
C 2176 2367 2106 2421 1984 2565 
C 1850 2715 1741 2816 1555 2816 
C 1088 2816 806 2257 806 2128 
C 806 2108 813 2068 870 2068 
C 922 2068 928 2091 947 2133 
C 1056 2372 1363 2414 1485 2414 
C 1619 2414 1747 2376 1882 2327 
C 2125 2240 2227 2240 2291 2240 
C 2336 2240 2362 2240 2394 2246 
C 2182 1994 1837 1683 1549 1418 
L 902 816 
C 512 415 275 33 275 -12 
C 275 -51 307 -64 346 -64 
C 384 -64 390 -57 435 14 
C 538 163 742 384 979 384 
C 1114 384 1178 342 1306 193 
C 1427 61 1536 -64 1741 -64 
C 2368 -64 2726 732 2726 876 
C 2726 903 2720 942 2656 942 
C 2605 942 2598 917 2579 855 
C 2438 488 2061 338 1811 338 
C 1677 338 1549 376 1414 425 
C 1158 512 1088 512 1005 512 
C 941 512 870 512 813 486 
z
" transform="scale(0.015625)"/>
       <path id="CMSY10-69" d="M 1747 1491 
C 1779 1568 1779 1581 1779 1600 
C 1779 1619 1779 1632 1747 1709 
L 627 4653 
C 589 4762 550 4800 480 4800 
C 410 4800 352 4742 352 4672 
C 352 4653 352 4640 384 4570 
L 1517 1600 
L 384 -1357 
C 352 -1427 352 -1440 352 -1472 
C 352 -1542 410 -1600 480 -1600 
C 563 -1600 589 -1536 614 -1472 
L 1747 1491 
z
" transform="scale(0.015625)"/>
      </defs>
      <use xlink:href="#CMSY10-68" transform="scale(0.996264)"/>
      <use xlink:href="#CMMI12-1b" transform="translate(38.743734 0) scale(0.996264)"/>
      <use xlink:href="#CMMI12-7a" transform="translate(94.189195 -14.943915) scale(0.697382)"/>
      <use xlink:href="#CMSY10-69" transform="translate(129.51575 0) scale(0.996264)"/>
     </g>
    </g>
    <g id="line2d_19">
     <path d="M 195.592605 175.601326 
L 204.592605 175.601326 
L 213.592605 175.601326 
" style="fill: none; stroke: #ff7f0e; stroke-width: 0.5; stroke-linecap: square"/>
    </g>
    <g id="text_17">
     <!-- $\langle \sigma_x\rangle$ -->
     <g transform="translate(220.792605 178.751326) scale(0.09 -0.09)">
      <defs>
       <path id="CMMI12-78" d="M 3034 2606 
C 2829 2567 2752 2414 2752 2293 
C 2752 2139 2874 2088 2963 2088 
C 3155 2088 3290 2254 3290 2427 
C 3290 2695 2982 2816 2714 2816 
C 2323 2816 2106 2433 2048 2312 
C 1901 2816 1504 2816 1389 2816 
C 736 2816 390 1980 390 1839 
C 390 1814 416 1782 461 1782 
C 512 1782 525 1820 538 1846 
C 755 2555 1184 2689 1370 2689 
C 1658 2689 1715 2420 1715 2267 
C 1715 2127 1677 1980 1600 1673 
L 1382 798 
C 1286 415 1101 64 762 64 
C 730 64 570 64 435 147 
C 666 192 717 383 717 460 
C 717 588 621 664 499 664 
C 346 664 179 530 179 326 
C 179 57 480 -64 755 -64 
C 1062 -64 1280 179 1414 441 
C 1517 64 1837 -64 2074 -64 
C 2726 -64 3072 773 3072 913 
C 3072 945 3046 971 3008 971 
C 2950 971 2944 939 2925 888 
C 2752 326 2381 64 2093 64 
C 1869 64 1747 230 1747 492 
C 1747 632 1773 734 1875 1156 
L 2099 2024 
C 2195 2408 2413 2689 2707 2689 
C 2720 2689 2899 2689 3034 2606 
z
" transform="scale(0.015625)"/>
      </defs>
      <use xlink:href="#CMSY10-68" transform="scale(0.996264)"/>
      <use xlink:href="#CMMI12-1b" transform="translate(38.743734 0) scale(0.996264)"/>
      <use xlink:href="#CMMI12-78" transform="translate(94.189195 -14.943915) scale(0.697382)"/>
      <use xlink:href="#CMSY10-69" transform="translate(133.490986 0) scale(0.996264)"/>
     </g>
    </g>
    <g id="line2d_20">
     <path d="M 195.592605 189.067702 
L 204.592605 189.067702 
L 213.592605 189.067702 
" style="fill: none; stroke: #2ca02c; stroke-width: 0.5; stroke-linecap: square"/>
    </g>
    <g id="text_18">
     <!-- $\langle \sigma_y\rangle$ -->
     <g transform="translate(220.792605 192.217702) scale(0.09 -0.09)">
      <defs>
       <path id="CMMI12-79" d="M 1683 -700 
C 1510 -939 1261 -1152 947 -1152 
C 870 -1152 563 -1152 467 -889 
C 486 -895 518 -895 531 -895 
C 723 -895 851 -729 851 -582 
C 851 -435 730 -384 634 -384 
C 531 -384 307 -458 307 -759 
C 307 -1071 582 -1286 947 -1286 
C 1587 -1286 2234 -700 2413 6 
L 3040 2485 
C 3046 2517 3059 2556 3059 2594 
C 3059 2689 2982 2753 2886 2753 
C 2829 2753 2694 2727 2643 2535 
L 2170 658 
C 2138 543 2138 530 2086 460 
C 1958 281 1747 64 1440 64 
C 1082 64 1050 415 1050 588 
C 1050 952 1222 1443 1395 1903 
C 1466 2088 1504 2178 1504 2305 
C 1504 2574 1312 2816 998 2816 
C 410 2816 173 1890 173 1839 
C 173 1814 198 1782 243 1782 
C 301 1782 307 1807 333 1897 
C 486 2433 730 2689 979 2689 
C 1037 2689 1146 2689 1146 2478 
C 1146 2312 1075 2127 979 1884 
C 666 1047 666 837 666 683 
C 666 77 1101 -64 1421 -64 
C 1606 -64 1837 -6 2061 230 
L 2067 224 
C 1971 -147 1907 -392 1683 -700 
z
" transform="scale(0.015625)"/>
      </defs>
      <use xlink:href="#CMSY10-68" transform="scale(0.996264)"/>
      <use xlink:href="#CMMI12-1b" transform="translate(38.743734 0) scale(0.996264)"/>
      <use xlink:href="#CMMI12-79" transform="translate(94.189195 -14.943915) scale(0.697382)"/>
      <use xlink:href="#CMSY10-69" transform="translate(130.484301 0) scale(0.996264)"/>
     </g>
    </g>
   </g>
  </g>
 </g>
 <defs>
  <clipPath id="pc123542ef5">
   <rect x="33.707196" y="7.2" width="212.292324" height="195.359296"/>
  </clipPath>
 </defs>
</svg>
