<?xml version="1.0" encoding="utf-8" standalone="no"?>
<!DOCTYPE svg PUBLIC "-//W3C//DTD SVG 1.1//EN"
  "http://www.w3.org/Graphics/SVG/1.1/DTD/svg11.dtd">
<svg xmlns:xlink="http://www.w3.org/1999/xlink" width="253.19952pt" height="238.79952pt" viewBox="0 0 253.19952 238.79952" xmlns="http://www.w3.org/2000/svg" version="1.1">
 <metadata>
  <rdf:RDF xmlns:dc="http://purl.org/dc/elements/1.1/" xmlns:cc="http://creativecommons.org/ns#" xmlns:rdf="http://www.w3.org/1999/02/22-rdf-syntax-ns#">
   <cc:Work>
    <dc:type rdf:resource="http://purl.org/dc/dcmitype/StillImage"/>
    <dc:date>1980-01-01T00:00:00+00:00</dc:date>
    <dc:format>image/svg+xml</dc:format>
    <dc:creator>
     <cc:Agent>
      <dc:title>Matplotlib v3.6.2, https://matplotlib.org/</dc:title>
     </cc:Agent>
    </dc:creator>
   </cc:Work>
  </rdf:RDF>
 </metadata>
 <defs>
  <style type="text/css">*{stroke-linejoin: round; stroke-linecap: butt}</style>
 </defs>
 <g id="figure_1">
  <g id="patch_1">
   <path d="M 0 238.79952 
L 253.19952 238.79952 
L 253.19952 0 
L 0 0 
z
" style="fill: #ffffff"/>
  </g>
  <g id="axes_1">
   <g id="patch_2">
    <path d="M 33.707196 202.559296 
L 245.99952 202.559296 
L 245.99952 7.2 
L 33.707196 7.2 
z
" style="fill: #ffffff"/>
   </g>
   <g id="matplotlib.axis_1">
    <g id="xtick_1">
     <g id="line2d_1">
      <defs>
       <path id="m37710ca3b1" d="M 0 0 
L 0 3.5 
" style="stroke: #000000; stroke-width: 0.8"/>
      </defs>
      <g>
       <use xlink:href="#m37710ca3b1" x="43.356847" y="202.559296" style="stroke: #000000; stroke-width: 0.8"/>
      </g>
     </g>
     <g id="text_1">
      <!-- $\mathdefault{0}$ -->
      <g transform="translate(41.239756 217.194098) scale(0.08 -0.08)">
       <defs>
        <path id="CMR17-30" d="M 2688 2025 
C 2688 2416 2682 3080 2413 3591 
C 2176 4039 1798 4198 1466 4198 
C 1158 4198 768 4058 525 3597 
C 269 3118 243 2524 243 2025 
C 243 1661 250 1106 448 619 
C 723 -39 1216 -128 1466 -128 
C 1760 -128 2208 -7 2470 600 
C 2662 1042 2688 1559 2688 2025 
z
M 1466 -26 
C 1056 -26 813 325 723 812 
C 653 1188 653 1738 653 2096 
C 653 2588 653 2997 736 3387 
C 858 3929 1216 4096 1466 4096 
C 1728 4096 2067 3923 2189 3400 
C 2272 3036 2278 2607 2278 2096 
C 2278 1680 2278 1169 2202 792 
C 2067 95 1690 -26 1466 -26 
z
" transform="scale(0.015625)"/>
       </defs>
       <use xlink:href="#CMR17-30" transform="scale(0.996264)"/>
      </g>
     </g>
    </g>
    <g id="xtick_2">
     <g id="line2d_2">
      <g>
       <use xlink:href="#m37710ca3b1" x="70.161434" y="202.559296" style="stroke: #000000; stroke-width: 0.8"/>
      </g>
     </g>
     <g id="text_2">
      <!-- $\mathdefault{25}$ -->
      <g transform="translate(65.927251 217.194098) scale(0.08 -0.08)">
       <defs>
        <path id="CMR17-32" d="M 2669 989 
L 2554 989 
C 2490 536 2438 459 2413 420 
C 2381 369 1920 369 1830 369 
L 602 369 
C 832 619 1280 1072 1824 1597 
C 2214 1967 2669 2402 2669 3035 
C 2669 3790 2067 4224 1395 4224 
C 691 4224 262 3604 262 3030 
C 262 2780 448 2748 525 2748 
C 589 2748 781 2787 781 3010 
C 781 3207 614 3264 525 3264 
C 486 3264 448 3258 422 3245 
C 544 3790 915 4058 1306 4058 
C 1862 4058 2227 3617 2227 3035 
C 2227 2479 1901 2000 1536 1584 
L 262 146 
L 262 0 
L 2515 0 
L 2669 989 
z
" transform="scale(0.015625)"/>
        <path id="CMR17-35" d="M 730 3692 
C 794 3666 1056 3584 1325 3584 
C 1920 3584 2246 3911 2432 4100 
C 2432 4157 2432 4192 2394 4192 
C 2387 4192 2374 4192 2323 4163 
C 2099 4058 1837 3973 1517 3973 
C 1325 3973 1037 3999 723 4139 
C 653 4171 640 4171 634 4171 
C 602 4171 595 4164 595 4037 
L 595 2203 
C 595 2089 595 2057 659 2057 
C 691 2057 704 2070 736 2114 
C 941 2401 1222 2522 1542 2522 
C 1766 2522 2246 2382 2246 1289 
C 2246 1085 2246 715 2054 421 
C 1894 159 1645 25 1370 25 
C 947 25 518 320 403 814 
C 429 807 480 795 506 795 
C 589 795 749 840 749 1038 
C 749 1210 627 1280 506 1280 
C 358 1280 262 1190 262 1011 
C 262 454 704 -128 1382 -128 
C 2042 -128 2669 440 2669 1264 
C 2669 2030 2170 2624 1549 2624 
C 1222 2624 947 2503 730 2274 
L 730 3692 
z
" transform="scale(0.015625)"/>
       </defs>
       <use xlink:href="#CMR17-32" transform="scale(0.996264)"/>
       <use xlink:href="#CMR17-35" transform="translate(45.690477 0) scale(0.996264)"/>
      </g>
     </g>
    </g>
    <g id="xtick_3">
     <g id="line2d_3">
      <g>
       <use xlink:href="#m37710ca3b1" x="96.96602" y="202.559296" style="stroke: #000000; stroke-width: 0.8"/>
      </g>
     </g>
     <g id="text_3">
      <!-- $\mathdefault{50}$ -->
      <g transform="translate(92.731837 217.194098) scale(0.08 -0.08)">
       <use xlink:href="#CMR17-35" transform="scale(0.996264)"/>
       <use xlink:href="#CMR17-30" transform="translate(45.690477 0) scale(0.996264)"/>
      </g>
     </g>
    </g>
    <g id="xtick_4">
     <g id="line2d_4">
      <g>
       <use xlink:href="#m37710ca3b1" x="123.770606" y="202.559296" style="stroke: #000000; stroke-width: 0.8"/>
      </g>
     </g>
     <g id="text_4">
      <!-- $\mathdefault{75}$ -->
      <g transform="translate(119.536423 217.194098) scale(0.08 -0.08)">
       <defs>
        <path id="CMR17-37" d="M 2886 3941 
L 2886 4081 
L 1382 4081 
C 634 4081 621 4165 595 4288 
L 480 4288 
L 294 3094 
L 410 3094 
C 429 3215 474 3540 550 3661 
C 589 3712 1062 3712 1171 3712 
L 2579 3712 
L 1869 2661 
C 1395 1954 1069 999 1069 165 
C 1069 89 1069 -128 1299 -128 
C 1530 -128 1530 89 1530 171 
L 1530 465 
C 1530 1508 1709 2196 2003 2636 
L 2886 3941 
z
" transform="scale(0.015625)"/>
       </defs>
       <use xlink:href="#CMR17-37" transform="scale(0.996264)"/>
       <use xlink:href="#CMR17-35" transform="translate(45.690477 0) scale(0.996264)"/>
      </g>
     </g>
    </g>
    <g id="xtick_5">
     <g id="line2d_5">
      <g>
       <use xlink:href="#m37710ca3b1" x="150.575193" y="202.559296" style="stroke: #000000; stroke-width: 0.8"/>
      </g>
     </g>
     <g id="text_5">
      <!-- $\mathdefault{100}$ -->
      <g transform="translate(144.223918 217.194098) scale(0.08 -0.08)">
       <defs>
        <path id="CMR17-31" d="M 1702 4058 
C 1702 4192 1696 4192 1606 4192 
C 1357 3916 979 3827 621 3827 
C 602 3827 570 3827 563 3808 
C 557 3795 557 3782 557 3648 
C 755 3648 1088 3686 1344 3839 
L 1344 461 
C 1344 236 1331 160 781 160 
L 589 160 
L 589 0 
C 896 0 1216 0 1523 0 
C 1830 0 2150 0 2458 0 
L 2458 160 
L 2266 160 
C 1715 160 1702 230 1702 458 
L 1702 4058 
z
" transform="scale(0.015625)"/>
       </defs>
       <use xlink:href="#CMR17-31" transform="scale(0.996264)"/>
       <use xlink:href="#CMR17-30" transform="translate(45.690477 0) scale(0.996264)"/>
       <use xlink:href="#CMR17-30" transform="translate(91.380954 0) scale(0.996264)"/>
      </g>
     </g>
    </g>
    <g id="xtick_6">
     <g id="line2d_6">
      <g>
       <use xlink:href="#m37710ca3b1" x="177.379779" y="202.559296" style="stroke: #000000; stroke-width: 0.8"/>
      </g>
     </g>
     <g id="text_6">
      <!-- $\mathdefault{125}$ -->
      <g transform="translate(171.028505 217.194098) scale(0.08 -0.08)">
       <use xlink:href="#CMR17-31" transform="scale(0.996264)"/>
       <use xlink:href="#CMR17-32" transform="translate(45.690477 0) scale(0.996264)"/>
       <use xlink:href="#CMR17-35" transform="translate(91.380954 0) scale(0.996264)"/>
      </g>
     </g>
    </g>
    <g id="xtick_7">
     <g id="line2d_7">
      <g>
       <use xlink:href="#m37710ca3b1" x="204.184365" y="202.559296" style="stroke: #000000; stroke-width: 0.8"/>
      </g>
     </g>
     <g id="text_7">
      <!-- $\mathdefault{150}$ -->
      <g transform="translate(197.833091 217.194098) scale(0.08 -0.08)">
       <use xlink:href="#CMR17-31" transform="scale(0.996264)"/>
       <use xlink:href="#CMR17-35" transform="translate(45.690477 0) scale(0.996264)"/>
       <use xlink:href="#CMR17-30" transform="translate(91.380954 0) scale(0.996264)"/>
      </g>
     </g>
    </g>
    <g id="xtick_8">
     <g id="line2d_8">
      <g>
       <use xlink:href="#m37710ca3b1" x="230.988952" y="202.559296" style="stroke: #000000; stroke-width: 0.8"/>
      </g>
     </g>
     <g id="text_8">
      <!-- $\mathdefault{175}$ -->
      <g transform="translate(224.637677 217.194098) scale(0.08 -0.08)">
       <use xlink:href="#CMR17-31" transform="scale(0.996264)"/>
       <use xlink:href="#CMR17-37" transform="translate(45.690477 0) scale(0.996264)"/>
       <use xlink:href="#CMR17-35" transform="translate(91.380954 0) scale(0.996264)"/>
      </g>
     </g>
    </g>
    <g id="text_9">
     <!-- $\tau$ -->
     <g transform="translate(137.675756 229.662342) scale(0.1 -0.1)">
      <defs>
       <path id="CMMI12-1c" d="M 1837 2408 
L 2899 2408 
C 2982 2408 3194 2408 3194 2612 
C 3194 2752 3072 2752 2957 2752 
L 1197 2752 
C 1050 2752 832 2752 538 2440 
C 371 2255 166 1917 166 1879 
C 166 1841 198 1828 237 1828 
C 282 1828 288 1847 320 1885 
C 653 2408 986 2408 1146 2408 
L 1677 2408 
L 1011 223 
C 979 127 979 114 979 95 
C 979 25 1024 -64 1152 -64 
C 1350 -64 1382 108 1402 203 
L 1837 2408 
z
" transform="scale(0.015625)"/>
      </defs>
      <use xlink:href="#CMMI12-1c" transform="scale(0.996264)"/>
     </g>
    </g>
   </g>
   <g id="matplotlib.axis_2">
    <g id="ytick_1">
     <g id="line2d_9">
      <defs>
       <path id="ma2c7c6c527" d="M 0 0 
L -3.5 0 
" style="stroke: #000000; stroke-width: 0.8"/>
      </defs>
      <g>
       <use xlink:href="#ma2c7c6c527" x="33.707196" y="193.679328" style="stroke: #000000; stroke-width: 0.8"/>
      </g>
     </g>
     <g id="text_10">
      <!-- $\mathdefault{−1.0}$ -->
      <g transform="translate(7.2 196.446729) scale(0.08 -0.08)">
       <defs>
        <path id="CMSY10-0" d="M 4218 1472 
C 4326 1472 4442 1472 4442 1600 
C 4442 1728 4326 1728 4218 1728 
L 755 1728 
C 646 1728 531 1728 531 1600 
C 531 1472 646 1472 755 1472 
L 4218 1472 
z
" transform="scale(0.015625)"/>
        <path id="CMMI12-3a" d="M 1178 307 
C 1178 492 1024 619 870 619 
C 685 619 557 466 557 313 
C 557 128 710 0 864 0 
C 1050 0 1178 153 1178 307 
z
" transform="scale(0.015625)"/>
       </defs>
       <use xlink:href="#CMSY10-0" transform="scale(0.996264)"/>
       <use xlink:href="#CMR17-31" transform="translate(77.487468 0) scale(0.996264)"/>
       <use xlink:href="#CMMI12-3a" transform="translate(123.177945 0) scale(0.996264)"/>
       <use xlink:href="#CMR17-30" transform="translate(150.275122 0) scale(0.996264)"/>
      </g>
     </g>
    </g>
    <g id="ytick_2">
     <g id="line2d_10">
      <g>
       <use xlink:href="#ma2c7c6c527" x="33.707196" y="158.369998" style="stroke: #000000; stroke-width: 0.8"/>
      </g>
     </g>
     <g id="text_11">
      <!-- $\mathdefault{−0.8}$ -->
      <g transform="translate(7.2 161.137399) scale(0.08 -0.08)">
       <defs>
        <path id="CMR17-38" d="M 1741 2264 
C 2144 2467 2554 2773 2554 3263 
C 2554 3841 1990 4179 1472 4179 
C 890 4179 378 3759 378 3180 
C 378 3021 416 2747 666 2505 
C 730 2442 998 2251 1171 2130 
C 883 1983 211 1634 211 934 
C 211 279 838 -128 1459 -128 
C 2144 -128 2720 362 2720 1010 
C 2720 1590 2330 1857 2074 2029 
L 1741 2264 
z
M 902 2822 
C 851 2854 595 3051 595 3351 
C 595 3739 998 4032 1459 4032 
C 1965 4032 2336 3676 2336 3262 
C 2336 2669 1670 2331 1638 2331 
C 1632 2331 1626 2331 1574 2370 
L 902 2822 
z
M 2080 1519 
C 2176 1449 2483 1240 2483 851 
C 2483 381 2010 25 1472 25 
C 890 25 448 438 448 940 
C 448 1443 838 1862 1280 2060 
L 2080 1519 
z
" transform="scale(0.015625)"/>
       </defs>
       <use xlink:href="#CMSY10-0" transform="scale(0.996264)"/>
       <use xlink:href="#CMR17-30" transform="translate(77.487468 0) scale(0.996264)"/>
       <use xlink:href="#CMMI12-3a" transform="translate(123.177945 0) scale(0.996264)"/>
       <use xlink:href="#CMR17-38" transform="translate(150.275122 0) scale(0.996264)"/>
      </g>
     </g>
    </g>
    <g id="ytick_3">
     <g id="line2d_11">
      <g>
       <use xlink:href="#ma2c7c6c527" x="33.707196" y="123.060668" style="stroke: #000000; stroke-width: 0.8"/>
      </g>
     </g>
     <g id="text_12">
      <!-- $\mathdefault{−0.6}$ -->
      <g transform="translate(7.2 125.828069) scale(0.08 -0.08)">
       <defs>
        <path id="CMR17-36" d="M 678 2176 
C 678 3690 1395 4032 1811 4032 
C 1946 4032 2272 4009 2400 3776 
C 2298 3776 2106 3776 2106 3553 
C 2106 3381 2246 3323 2336 3323 
C 2394 3323 2566 3348 2566 3560 
C 2566 3954 2246 4179 1805 4179 
C 1043 4179 243 3390 243 1984 
C 243 253 966 -128 1478 -128 
C 2099 -128 2688 427 2688 1283 
C 2688 2081 2170 2662 1517 2662 
C 1126 2662 838 2407 678 1960 
L 678 2176 
z
M 1478 25 
C 691 25 691 1200 691 1436 
C 691 1896 909 2560 1504 2560 
C 1613 2560 1926 2560 2138 2120 
C 2253 1870 2253 1609 2253 1289 
C 2253 944 2253 690 2118 434 
C 1978 171 1773 25 1478 25 
z
" transform="scale(0.015625)"/>
       </defs>
       <use xlink:href="#CMSY10-0" transform="scale(0.996264)"/>
       <use xlink:href="#CMR17-30" transform="translate(77.487468 0) scale(0.996264)"/>
       <use xlink:href="#CMMI12-3a" transform="translate(123.177945 0) scale(0.996264)"/>
       <use xlink:href="#CMR17-36" transform="translate(150.275122 0) scale(0.996264)"/>
      </g>
     </g>
    </g>
    <g id="ytick_4">
     <g id="line2d_12">
      <g>
       <use xlink:href="#ma2c7c6c527" x="33.707196" y="87.751338" style="stroke: #000000; stroke-width: 0.8"/>
      </g>
     </g>
     <g id="text_13">
      <!-- $\mathdefault{−0.4}$ -->
      <g transform="translate(7.2 90.518739) scale(0.08 -0.08)">
       <defs>
        <path id="CMR17-34" d="M 2150 4122 
C 2150 4256 2144 4256 2029 4256 
L 128 1254 
L 128 1088 
L 1779 1088 
L 1779 457 
C 1779 224 1766 160 1318 160 
L 1197 160 
L 1197 0 
C 1402 0 1747 0 1965 0 
C 2182 0 2528 0 2733 0 
L 2733 160 
L 2611 160 
C 2163 160 2150 224 2150 457 
L 2150 1088 
L 2803 1088 
L 2803 1254 
L 2150 1254 
L 2150 4122 
z
M 1798 3703 
L 1798 1254 
L 256 1254 
L 1798 3703 
z
" transform="scale(0.015625)"/>
       </defs>
       <use xlink:href="#CMSY10-0" transform="scale(0.996264)"/>
       <use xlink:href="#CMR17-30" transform="translate(77.487468 0) scale(0.996264)"/>
       <use xlink:href="#CMMI12-3a" transform="translate(123.177945 0) scale(0.996264)"/>
       <use xlink:href="#CMR17-34" transform="translate(150.275122 0) scale(0.996264)"/>
      </g>
     </g>
    </g>
    <g id="ytick_5">
     <g id="line2d_13">
      <g>
       <use xlink:href="#ma2c7c6c527" x="33.707196" y="52.442009" style="stroke: #000000; stroke-width: 0.8"/>
      </g>
     </g>
     <g id="text_14">
      <!-- $\mathdefault{−0.2}$ -->
      <g transform="translate(7.2 55.20941) scale(0.08 -0.08)">
       <use xlink:href="#CMSY10-0" transform="scale(0.996264)"/>
       <use xlink:href="#CMR17-30" transform="translate(77.487468 0) scale(0.996264)"/>
       <use xlink:href="#CMMI12-3a" transform="translate(123.177945 0) scale(0.996264)"/>
       <use xlink:href="#CMR17-32" transform="translate(150.275122 0) scale(0.996264)"/>
      </g>
     </g>
    </g>
    <g id="ytick_6">
     <g id="line2d_14">
      <g>
       <use xlink:href="#ma2c7c6c527" x="33.707196" y="17.132679" style="stroke: #000000; stroke-width: 0.8"/>
      </g>
     </g>
     <g id="text_15">
      <!-- $\mathdefault{0.0}$ -->
      <g transform="translate(13.786507 19.90008) scale(0.08 -0.08)">
       <use xlink:href="#CMR17-30" transform="scale(0.996264)"/>
       <use xlink:href="#CMMI12-3a" transform="translate(45.690477 0) scale(0.996264)"/>
       <use xlink:href="#CMR17-30" transform="translate(72.787654 0) scale(0.996264)"/>
      </g>
     </g>
    </g>
   </g>
   <g id="line2d_15">
    <path d="M 43.356847 193.679328 
L 43.421178 193.409957 
L 43.54984 191.283819 
L 43.807164 181.396358 
L 44.965122 123.570646 
L 45.158115 122.415033 
L 45.286777 123.361182 
L 45.544101 128.55564 
L 46.637729 156.345052 
L 46.830722 156.907792 
L 46.959384 156.505435 
L 47.216708 154.456281 
L 47.860018 148.815851 
L 48.053011 148.336864 
L 48.181673 148.415374 
L 48.374666 149.041913 
L 48.824983 151.781161 
L 49.2753 154.125209 
L 49.532624 154.69454 
L 49.725617 154.744055 
L 49.982941 154.449761 
L 50.690582 153.403841 
L 50.883575 153.429095 
L 51.140899 153.746347 
L 51.591216 154.808144 
L 52.363188 156.55638 
L 52.813505 157.108573 
L 53.006498 157.111568 
L 53.199491 156.844094 
L 53.456815 155.859062 
L 53.714139 153.890788 
L 54.100125 148.714684 
L 54.807767 134.636641 
L 55.64407 120.152033 
L 56.995021 99.57598 
L 57.574 93.708394 
L 58.538965 87.477719 
L 60.533226 80.08095 
L 62.527487 75.017404 
L 63.170797 74.420819 
L 64.264425 71.827684 
L 64.972066 70.682657 
L 65.422383 69.702518 
L 66.451679 68.387064 
L 66.773334 67.878036 
L 66.966327 67.879032 
L 67.416644 68.109734 
L 67.609637 67.843053 
L 68.638933 65.782717 
L 69.346574 65.793988 
L 69.668229 65.37065 
L 70.182877 64.776764 
L 70.697525 64.348134 
L 71.01918 64.306664 
L 71.276504 64.261979 
L 71.533828 63.828206 
L 72.177138 62.53138 
L 72.434463 62.515586 
L 72.949111 62.678143 
L 74.493055 61.825569 
L 74.81471 61.975771 
L 75.007703 61.77444 
L 75.45802 61.194747 
L 76.229992 60.701351 
L 76.487316 60.108495 
L 77.066295 57.779631 
L 77.452281 54.957742 
L 78.867563 43.322077 
L 79.382211 40.575694 
L 79.639535 40.079961 
L 79.896859 40.012307 
L 80.540169 40.242578 
L 81.440804 39.184973 
L 81.891121 38.917203 
L 82.212776 38.8649 
L 82.598762 38.882864 
L 83.370734 38.369797 
L 83.821051 38.669714 
L 84.271368 38.583504 
L 85.236333 39.627964 
L 86.072636 41.512406 
L 86.522953 43.070691 
L 87.166263 46.184048 
L 87.938235 51.324604 
L 88.838869 58.847875 
L 92.441406 91.643147 
L 93.470702 98.324679 
L 94.435667 103.109151 
L 95.786618 108.75143 
L 96.880245 112.432738 
L 97.780879 114.625544 
L 99.389155 117.925832 
L 100.675775 120.125706 
L 101.833733 121.623257 
L 102.541374 122.2509 
L 104.21398 123.486916 
L 105.371938 124.453359 
L 106.015248 124.706992 
L 107.687854 125.125656 
L 108.331165 125.517356 
L 108.588489 125.903705 
L 108.845813 126.693339 
L 109.167468 128.635149 
L 109.553454 132.812783 
L 110.196764 143.203384 
L 110.775743 151.109111 
L 111.097398 153.040717 
L 111.290391 153.34488 
L 111.419053 153.27866 
L 111.676377 152.751433 
L 112.255356 151.503192 
L 112.448349 151.485927 
L 112.641342 151.735311 
L 112.962997 152.628759 
L 113.670638 154.769807 
L 113.992293 155.120311 
L 114.313948 155.107047 
L 114.892927 155.000698 
L 115.214582 155.213955 
L 115.664899 155.860172 
L 116.629864 157.336037 
L 117.080182 157.721236 
L 117.337506 157.689474 
L 117.530499 157.413294 
L 117.787823 156.507141 
L 118.045147 154.72961 
L 118.366802 150.936533 
L 118.88145 141.480889 
L 119.910746 122.216313 
L 121.326028 100.194571 
L 122.355324 90.515685 
L 123.062965 86.335067 
L 124.285254 82.080768 
L 126.53684 75.75861 
L 127.437474 73.91865 
L 128.080784 73.207352 
L 128.595432 71.91473 
L 129.11008 70.772511 
L 131.554658 67.969436 
L 131.747651 67.830668 
L 132.197968 66.924304 
L 132.648285 66.246303 
L 133.548919 65.372654 
L 133.806243 65.199487 
L 133.999236 65.286332 
L 134.385222 65.582605 
L 134.578215 65.390517 
L 135.414519 63.933851 
L 135.736174 63.528041 
L 136.12216 63.098118 
L 136.443815 63.125445 
L 136.894132 63.287716 
L 137.151456 63.040108 
L 137.730435 62.384899 
L 138.245083 62.444627 
L 138.824062 62.101195 
L 139.33871 61.607422 
L 140.303675 61.345933 
L 140.560999 60.937803 
L 140.946985 59.790768 
L 141.461633 57.593137 
L 141.976281 53.635264 
L 143.455894 42.009177 
L 143.906212 40.775069 
L 144.163536 40.54956 
L 144.613853 40.398982 
L 145.385825 39.729915 
L 146.157797 39.097192 
L 146.543783 38.634322 
L 146.801107 38.700806 
L 147.122762 38.808261 
L 147.508748 38.657035 
L 147.894734 38.464237 
L 148.345051 38.575425 
L 148.795368 38.456046 
L 149.117023 38.799313 
L 149.824664 39.801844 
L 150.339312 41.517146 
L 151.239946 44.822895 
L 151.818925 48.4657 
L 152.783891 56.087056 
L 157.287061 95.610424 
L 158.316357 101.128438 
L 159.731639 107.815739 
L 160.696604 111.265122 
L 161.532908 113.444662 
L 164.170479 119.102373 
L 165.071113 120.672124 
L 165.778754 121.498199 
L 168.030339 123.382759 
L 169.831607 124.36625 
L 172.404848 125.540993 
L 172.790834 125.788757 
L 173.048158 126.295483 
L 173.305482 127.367167 
L 173.627137 129.848803 
L 174.077454 135.685698 
L 175.171081 151.606952 
L 175.492736 153.273712 
L 175.685729 153.454674 
L 175.878722 153.196971 
L 176.715025 151.464866 
L 176.908018 151.607879 
L 177.229673 152.33299 
L 178.194638 154.860491 
L 178.580624 155.182828 
L 179.223935 155.281869 
L 179.674252 155.500974 
L 180.253231 156.102573 
L 181.153865 157.419395 
L 181.539851 157.81737 
L 181.732844 157.772154 
L 181.925837 157.424341 
L 182.183161 156.27947 
L 182.504816 153.410007 
L 182.890802 147.657986 
L 185.528373 101.543951 
L 186.364676 93.225931 
L 186.814993 89.911485 
L 187.972951 84.610628 
L 188.294607 83.691828 
L 189.195241 80.442861 
L 189.902882 78.712928 
L 190.481861 77.185386 
L 191.189502 75.956312 
L 191.897143 73.613032 
L 192.218798 73.327841 
L 193.376756 71.167839 
L 193.762742 70.453511 
L 194.020066 70.431563 
L 194.213059 70.38554 
L 194.470383 69.927325 
L 195.049362 68.918257 
L 195.499679 68.445569 
L 196.078658 67.95486 
L 196.464644 67.755135 
L 198.523237 65.546753 
L 198.844892 65.386986 
L 199.35954 64.785588 
L 200.388836 63.483425 
L 200.64616 63.432247 
L 201.160808 63.37292 
L 201.739787 63.253925 
L 202.061442 63.082617 
L 202.447428 63.038794 
L 202.769083 62.947273 
L 203.026407 62.91439 
L 203.798379 62.275606 
L 204.120034 62.109117 
L 204.827675 61.360165 
L 205.084999 60.807154 
L 205.663978 58.639218 
L 206.114296 55.508761 
L 206.757606 49.505788 
L 207.272254 45.637362 
L 207.915564 42.349322 
L 208.30155 41.414412 
L 208.816198 40.840182 
L 209.330846 40.570935 
L 209.909825 40.008896 
L 210.488804 39.902043 
L 210.939121 39.758269 
L 211.389438 39.853855 
L 211.968417 39.448558 
L 212.225741 39.249174 
L 212.611727 38.874126 
L 213.319368 38.807691 
L 213.576692 39.064502 
L 214.348664 40.34733 
L 214.798981 41.941586 
L 215.763947 45.891029 
L 216.342926 49.752192 
L 217.372222 58.509886 
L 220.717434 88.718516 
L 221.74673 96.041022 
L 222.840357 102.104388 
L 224.126978 107.932534 
L 225.156274 111.511266 
L 226.056908 113.838851 
L 228.823141 119.718679 
L 229.466451 120.538408 
L 232.875995 123.800151 
L 233.390643 123.986311 
L 234.419939 124.227986 
L 235.256242 124.809666 
L 236.349869 125.586293 
L 236.349869 125.586293 
" clip-path="url(#ped19b58fa0)" style="fill: none; stroke: #1f77b4; stroke-width: 0.5; stroke-linecap: square"/>
   </g>
   <g id="line2d_16">
    <path d="M 43.356847 17.132679 
L 44.257481 16.766843 
L 45.222446 16.68481 
L 57.188014 16.635334 
L 69.08925 16.623928 
L 110.840074 16.761679 
L 115.343244 16.776052 
L 119.589091 16.689515 
L 123.706275 16.624348 
L 157.094068 16.646654 
L 183.920098 16.69005 
L 187.972951 16.624962 
L 236.349869 16.680249 
L 236.349869 16.680249 
" clip-path="url(#ped19b58fa0)" style="fill: none; stroke: #ff7f0e; stroke-width: 0.5; stroke-linecap: square"/>
   </g>
   <g id="line2d_17">
    <path d="M 43.356847 17.132679 
L 44.450474 16.766282 
L 45.029453 16.780303 
L 45.47977 17.000619 
L 46.380405 17.54296 
L 46.766391 17.460209 
L 47.152377 17.112552 
L 47.860018 16.427241 
L 48.181673 16.386374 
L 48.503328 16.5714 
L 49.532624 17.406075 
L 49.854279 17.341898 
L 50.56192 16.858377 
L 51.012237 16.715412 
L 51.398223 16.849476 
L 52.427519 17.341956 
L 52.942167 17.282916 
L 54.100125 16.993266 
L 54.679105 17.157145 
L 55.708401 17.509099 
L 56.28738 17.367607 
L 56.866359 17.241038 
L 57.381007 17.394031 
L 58.152979 17.635181 
L 59.310937 17.509139 
L 59.696923 17.537634 
L 60.79055 17.268821 
L 61.562522 17.399714 
L 62.205832 17.439161 
L 62.591818 17.147923 
L 62.977804 16.959226 
L 63.36379 17.109634 
L 63.878439 17.239049 
L 64.521749 17.241548 
L 65.293721 17.035642 
L 65.808369 17.156193 
L 66.130024 17.132209 
L 67.287982 16.68441 
L 68.059954 17.133239 
L 68.44594 16.94212 
L 69.410905 16.449383 
L 70.247208 16.533928 
L 71.147842 17.118212 
L 71.919814 17.523706 
L 72.756118 17.720838 
L 73.270766 17.269978 
L 73.978407 16.863567 
L 74.300062 16.986784 
L 74.943372 17.519491 
L 75.393689 17.843707 
L 75.651013 17.780949 
L 75.972668 17.359466 
L 76.358654 16.878674 
L 76.873302 16.736476 
L 77.259288 16.761815 
L 77.966929 16.870943 
L 79.639535 16.680808 
L 80.025521 16.827826 
L 80.861824 17.325778 
L 81.955452 17.331488 
L 82.920417 17.589759 
L 84.271368 17.135992 
L 85.879643 16.591664 
L 86.458622 17.036338 
L 87.037601 17.34286 
L 87.61658 17.384434 
L 88.452883 17.163979 
L 89.54651 16.962067 
L 90.511476 16.990128 
L 91.41211 17.208948 
L 93.084716 17.728244 
L 93.663695 17.651311 
L 94.242674 17.307955 
L 95.336301 16.607248 
L 95.850949 16.510108 
L 96.301266 16.627648 
L 96.880245 17.029975 
L 97.780879 17.636364 
L 98.359858 17.737957 
L 98.938837 17.617374 
L 99.71081 17.202733 
L 100.868768 16.547165 
L 101.383416 16.53463 
L 101.962395 16.744497 
L 103.377677 17.402248 
L 104.020987 17.32246 
L 105.243276 17.089048 
L 106.529896 17.220824 
L 108.00951 17.294603 
L 109.103137 17.302725 
L 110.775743 17.552049 
L 111.483384 17.293875 
L 112.191025 17.132987 
L 113.606307 16.918485 
L 114.44261 16.723548 
L 115.407575 16.714799 
L 118.23814 17.298791 
L 118.752788 17.189191 
L 119.846415 16.833935 
L 120.618387 16.90381 
L 121.390359 17.295996 
L 122.419655 17.03946 
L 122.869972 17.085365 
L 123.577613 16.801358 
L 123.899268 16.760235 
L 125.121557 17.076464 
L 125.443212 16.803691 
L 126.086523 16.192361 
L 126.343847 16.230022 
L 126.665502 16.620634 
L 127.051488 17.025812 
L 127.373143 17.056646 
L 128.724094 16.894335 
L 129.624728 16.9666 
L 130.782686 17.353122 
L 132.32663 16.368732 
L 133.227264 16.633148 
L 133.677581 16.402462 
L 133.999236 16.543244 
L 134.449553 16.703322 
L 135.028533 16.658609 
L 135.736174 16.362696 
L 136.250822 16.586783 
L 137.151456 16.911489 
L 137.537442 16.646544 
L 138.180752 16.213033 
L 138.824062 16.084968 
L 139.210048 16.261956 
L 139.660365 16.444345 
L 140.432337 16.434371 
L 141.332971 17.143253 
L 141.847619 17.409995 
L 142.812584 17.276271 
L 143.584556 17.182356 
L 144.292198 17.257711 
L 145.257163 17.305019 
L 146.35079 17.527097 
L 147.508748 17.316965 
L 148.602375 17.314397 
L 149.631671 17.347533 
L 151.432939 17.18172 
L 153.748856 16.827332 
L 154.713821 16.989138 
L 155.550124 17.070315 
L 158.123364 16.885616 
L 159.216991 17.09208 
L 160.246287 17.363623 
L 160.953928 17.299755 
L 162.369211 17.073421 
L 163.269845 17.167293 
L 164.427803 17.339682 
L 165.328437 17.226677 
L 166.229071 16.835316 
L 167.001043 16.588098 
L 167.901677 16.598102 
L 169.831607 16.915654 
L 171.954531 17.507136 
L 172.662172 17.344917 
L 173.305482 17.228023 
L 173.82013 17.368193 
L 174.720764 17.633229 
L 175.10675 17.516617 
L 176.457701 16.777886 
L 176.908018 16.976291 
L 177.551328 17.291651 
L 178.001645 17.233718 
L 178.644955 16.889372 
L 179.288266 16.565862 
L 179.609921 16.637707 
L 180.1889 17.106097 
L 180.703548 17.403827 
L 181.089534 17.394827 
L 181.797175 17.08548 
L 182.247492 16.984514 
L 182.697809 17.123703 
L 183.662774 17.491375 
L 185.721366 17.636103 
L 186.300345 17.728198 
L 187.522634 17.512344 
L 187.90862 17.301541 
L 188.165945 17.474402 
L 188.616262 17.859548 
L 188.873586 17.78368 
L 189.967213 17.152767 
L 190.41753 17.309306 
L 190.932178 17.436203 
L 191.318164 17.054155 
L 191.639819 16.89259 
L 192.99077 16.880741 
L 193.376756 17.096488 
L 193.762742 17.277755 
L 194.341721 17.381859 
L 194.985031 17.761177 
L 195.692672 17.944278 
L 196.271651 18.039503 
L 196.657637 17.88781 
L 197.493941 17.268147 
L 198.07292 17.47409 
L 198.523237 17.514173 
L 198.844892 17.512822 
L 201.096477 16.408325 
L 201.418132 16.481117 
L 202.190104 16.816668 
L 202.769083 16.917227 
L 203.927041 16.799853 
L 204.827675 17.415116 
L 205.14933 17.359982 
L 205.79264 17.026493 
L 206.242958 17.370192 
L 206.950599 17.86236 
L 207.529578 17.906331 
L 210.102818 17.517187 
L 210.681797 17.4812 
L 211.453769 17.517328 
L 212.032748 17.513315 
L 214.477326 18.04405 
L 215.570954 17.980126 
L 217.179229 17.876482 
L 218.916166 17.426826 
L 219.752469 17.382602 
L 220.846096 17.383072 
L 222.776026 17.089894 
L 225.54226 17.224449 
L 226.82888 17.039685 
L 229.209127 17.203332 
L 230.817402 17.04583 
L 231.846698 16.940949 
L 233.776629 16.847888 
L 236.349869 16.467149 
L 236.349869 16.467149 
" clip-path="url(#ped19b58fa0)" style="fill: none; stroke: #2ca02c; stroke-width: 0.5; stroke-linecap: square"/>
   </g>
   <g id="patch_3">
    <path d="M 33.707196 202.559296 
L 33.707196 7.2 
" style="fill: none; stroke: #000000; stroke-width: 0.8; stroke-linejoin: miter; stroke-linecap: square"/>
   </g>
   <g id="patch_4">
    <path d="M 245.99952 202.559296 
L 245.99952 7.2 
" style="fill: none; stroke: #000000; stroke-width: 0.8; stroke-linejoin: miter; stroke-linecap: square"/>
   </g>
   <g id="patch_5">
    <path d="M 33.707196 202.559296 
L 245.99952 202.559296 
" style="fill: none; stroke: #000000; stroke-width: 0.8; stroke-linejoin: miter; stroke-linecap: square"/>
   </g>
   <g id="patch_6">
    <path d="M 33.707196 7.2 
L 245.99952 7.2 
" style="fill: none; stroke: #000000; stroke-width: 0.8; stroke-linejoin: miter; stroke-linecap: square"/>
   </g>
   <g id="legend_1">
    <g id="patch_7">
     <path d="M 193.792605 198.059296 
L 239.69952 198.059296 
Q 241.49952 198.059296 241.49952 196.259296 
L 241.49952 156.760168 
Q 241.49952 154.960168 239.69952 154.960168 
L 193.792605 154.960168 
Q 191.992605 154.960168 191.992605 156.760168 
L 191.992605 196.259296 
Q 191.992605 198.059296 193.792605 198.059296 
z
" style="fill: #ffffff; opacity: 0.8; stroke: #cccccc; stroke-width: 0.24; stroke-linejoin: miter"/>
    </g>
    <g id="line2d_18">
     <path d="M 195.592605 162.13495 
L 204.592605 162.13495 
L 213.592605 162.13495 
" style="fill: none; stroke: #1f77b4; stroke-width: 0.5; stroke-linecap: square"/>
    </g>
    <g id="text_16">
     <!-- $\langle \sigma_z\rangle$ -->
     <g transform="translate(220.792605 165.28495) scale(0.09 -0.09)">
      <defs>
       <path id="CMSY10-68" d="M 2099 4557 
C 2131 4627 2131 4640 2131 4672 
C 2131 4742 2074 4800 2003 4800 
C 1946 4800 1901 4768 1856 4653 
L 736 1715 
C 723 1677 704 1638 704 1600 
C 704 1581 704 1568 736 1491 
L 1856 -1446 
C 1882 -1517 1914 -1600 2003 -1600 
C 2074 -1600 2131 -1542 2131 -1472 
C 2131 -1453 2131 -1440 2099 -1370 
L 966 1600 
L 2099 4557 
z
" transform="scale(0.015625)"/>
       <path id="CMMI12-1b" d="M 3251 2408 
C 3334 2408 3546 2408 3546 2612 
C 3546 2752 3424 2752 3309 2752 
L 1894 2752 
C 934 2752 243 1686 243 932 
C 243 390 595 -64 1171 -64 
C 1926 -64 2752 747 2752 1705 
C 2752 1954 2694 2196 2541 2408 
L 3251 2408 
z
M 1178 64 
C 851 64 614 313 614 754 
C 614 1137 845 2408 1786 2408 
C 2061 2408 2368 2274 2368 1781 
C 2368 1558 2266 1021 2042 652 
C 1811 275 1466 64 1178 64 
z
" transform="scale(0.015625)"/>
       <path id="CMMI12-7a" d="M 813 486 
C 1088 803 1312 1004 1632 1296 
C 2016 1632 2182 1793 2272 1891 
C 2720 2338 2944 2713 2944 2764 
C 2944 2816 2893 2816 2880 2816 
C 2835 2816 2822 2793 2790 2750 
C 2630 2494 2477 2367 2310 2367 
C 2176 2367 2106 2421 1984 2565 
C 1850 2715 1741 2816 1555 2816 
C 1088 2816 806 2257 806 2128 
C 806 2108 813 2068 870 2068 
C 922 2068 928 2091 947 2133 
C 1056 2372 1363 2414 1485 2414 
C 1619 2414 1747 2376 1882 2327 
C 2125 2240 2227 2240 2291 2240 
C 2336 2240 2362 2240 2394 2246 
C 2182 1994 1837 1683 1549 1418 
L 902 816 
C 512 415 275 33 275 -12 
C 275 -51 307 -64 346 -64 
C 384 -64 390 -57 435 14 
C 538 163 742 384 979 384 
C 1114 384 1178 342 1306 193 
C 1427 61 1536 -64 1741 -64 
C 2368 -64 2726 732 2726 876 
C 2726 903 2720 942 2656 942 
C 2605 942 2598 917 2579 855 
C 2438 488 2061 338 1811 338 
C 1677 338 1549 376 1414 425 
C 1158 512 1088 512 1005 512 
C 941 512 870 512 813 486 
z
" transform="scale(0.015625)"/>
       <path id="CMSY10-69" d="M 1747 1491 
C 1779 1568 1779 1581 1779 1600 
C 1779 1619 1779 1632 1747 1709 
L 627 4653 
C 589 4762 550 4800 480 4800 
C 410 4800 352 4742 352 4672 
C 352 4653 352 4640 384 4570 
L 1517 1600 
L 384 -1357 
C 352 -1427 352 -1440 352 -1472 
C 352 -1542 410 -1600 480 -1600 
C 563 -1600 589 -1536 614 -1472 
L 1747 1491 
z
" transform="scale(0.015625)"/>
      </defs>
      <use xlink:href="#CMSY10-68" transform="scale(0.996264)"/>
      <use xlink:href="#CMMI12-1b" transform="translate(38.743734 0) scale(0.996264)"/>
      <use xlink:href="#CMMI12-7a" transform="translate(94.189195 -14.943915) scale(0.697382)"/>
      <use xlink:href="#CMSY10-69" transform="translate(129.51575 0) scale(0.996264)"/>
     </g>
    </g>
    <g id="line2d_19">
     <path d="M 195.592605 175.601326 
L 204.592605 175.601326 
L 213.592605 175.601326 
" style="fill: none; stroke: #ff7f0e; stroke-width: 0.5; stroke-linecap: square"/>
    </g>
    <g id="text_17">
     <!-- $\langle \sigma_x\rangle$ -->
     <g transform="translate(220.792605 178.751326) scale(0.09 -0.09)">
      <defs>
       <path id="CMMI12-78" d="M 3034 2606 
C 2829 2567 2752 2414 2752 2293 
C 2752 2139 2874 2088 2963 2088 
C 3155 2088 3290 2254 3290 2427 
C 3290 2695 2982 2816 2714 2816 
C 2323 2816 2106 2433 2048 2312 
C 1901 2816 1504 2816 1389 2816 
C 736 2816 390 1980 390 1839 
C 390 1814 416 1782 461 1782 
C 512 1782 525 1820 538 1846 
C 755 2555 1184 2689 1370 2689 
C 1658 2689 1715 2420 1715 2267 
C 1715 2127 1677 1980 1600 1673 
L 1382 798 
C 1286 415 1101 64 762 64 
C 730 64 570 64 435 147 
C 666 192 717 383 717 460 
C 717 588 621 664 499 664 
C 346 664 179 530 179 326 
C 179 57 480 -64 755 -64 
C 1062 -64 1280 179 1414 441 
C 1517 64 1837 -64 2074 -64 
C 2726 -64 3072 773 3072 913 
C 3072 945 3046 971 3008 971 
C 2950 971 2944 939 2925 888 
C 2752 326 2381 64 2093 64 
C 1869 64 1747 230 1747 492 
C 1747 632 1773 734 1875 1156 
L 2099 2024 
C 2195 2408 2413 2689 2707 2689 
C 2720 2689 2899 2689 3034 2606 
z
" transform="scale(0.015625)"/>
      </defs>
      <use xlink:href="#CMSY10-68" transform="scale(0.996264)"/>
      <use xlink:href="#CMMI12-1b" transform="translate(38.743734 0) scale(0.996264)"/>
      <use xlink:href="#CMMI12-78" transform="translate(94.189195 -14.943915) scale(0.697382)"/>
      <use xlink:href="#CMSY10-69" transform="translate(133.490986 0) scale(0.996264)"/>
     </g>
    </g>
    <g id="line2d_20">
     <path d="M 195.592605 189.067702 
L 204.592605 189.067702 
L 213.592605 189.067702 
" style="fill: none; stroke: #2ca02c; stroke-width: 0.5; stroke-linecap: square"/>
    </g>
    <g id="text_18">
     <!-- $\langle \sigma_y\rangle$ -->
     <g transform="translate(220.792605 192.217702) scale(0.09 -0.09)">
      <defs>
       <path id="CMMI12-79" d="M 1683 -700 
C 1510 -939 1261 -1152 947 -1152 
C 870 -1152 563 -1152 467 -889 
C 486 -895 518 -895 531 -895 
C 723 -895 851 -729 851 -582 
C 851 -435 730 -384 634 -384 
C 531 -384 307 -458 307 -759 
C 307 -1071 582 -1286 947 -1286 
C 1587 -1286 2234 -700 2413 6 
L 3040 2485 
C 3046 2517 3059 2556 3059 2594 
C 3059 2689 2982 2753 2886 2753 
C 2829 2753 2694 2727 2643 2535 
L 2170 658 
C 2138 543 2138 530 2086 460 
C 1958 281 1747 64 1440 64 
C 1082 64 1050 415 1050 588 
C 1050 952 1222 1443 1395 1903 
C 1466 2088 1504 2178 1504 2305 
C 1504 2574 1312 2816 998 2816 
C 410 2816 173 1890 173 1839 
C 173 1814 198 1782 243 1782 
C 301 1782 307 1807 333 1897 
C 486 2433 730 2689 979 2689 
C 1037 2689 1146 2689 1146 2478 
C 1146 2312 1075 2127 979 1884 
C 666 1047 666 837 666 683 
C 666 77 1101 -64 1421 -64 
C 1606 -64 1837 -6 2061 230 
L 2067 224 
C 1971 -147 1907 -392 1683 -700 
z
" transform="scale(0.015625)"/>
      </defs>
      <use xlink:href="#CMSY10-68" transform="scale(0.996264)"/>
      <use xlink:href="#CMMI12-1b" transform="translate(38.743734 0) scale(0.996264)"/>
      <use xlink:href="#CMMI12-79" transform="translate(94.189195 -14.943915) scale(0.697382)"/>
      <use xlink:href="#CMSY10-69" transform="translate(130.484301 0) scale(0.996264)"/>
     </g>
    </g>
   </g>
  </g>
 </g>
 <defs>
  <clipPath id="ped19b58fa0">
   <rect x="33.707196" y="7.2" width="212.292324" height="195.359296"/>
  </clipPath>
 </defs>
</svg>
