<?xml version="1.0" encoding="utf-8" standalone="no"?>
<!DOCTYPE svg PUBLIC "-//W3C//DTD SVG 1.1//EN"
  "http://www.w3.org/Graphics/SVG/1.1/DTD/svg11.dtd">
<svg xmlns:xlink="http://www.w3.org/1999/xlink" width="253.19952pt" height="238.79952pt" viewBox="0 0 253.19952 238.79952" xmlns="http://www.w3.org/2000/svg" version="1.1">
 <metadata>
  <rdf:RDF xmlns:dc="http://purl.org/dc/elements/1.1/" xmlns:cc="http://creativecommons.org/ns#" xmlns:rdf="http://www.w3.org/1999/02/22-rdf-syntax-ns#">
   <cc:Work>
    <dc:type rdf:resource="http://purl.org/dc/dcmitype/StillImage"/>
    <dc:date>1980-01-01T00:00:00+00:00</dc:date>
    <dc:format>image/svg+xml</dc:format>
    <dc:creator>
     <cc:Agent>
      <dc:title>Matplotlib v3.6.2, https://matplotlib.org/</dc:title>
     </cc:Agent>
    </dc:creator>
   </cc:Work>
  </rdf:RDF>
 </metadata>
 <defs>
  <style type="text/css">*{stroke-linejoin: round; stroke-linecap: butt}</style>
 </defs>
 <g id="figure_1">
  <g id="patch_1">
   <path d="M 0 238.79952 
L 253.19952 238.79952 
L 253.19952 0 
L 0 0 
z
" style="fill: #ffffff"/>
  </g>
  <g id="axes_1">
   <g id="patch_2">
    <path d="M 33.707196 202.559296 
L 245.99952 202.559296 
L 245.99952 7.2 
L 33.707196 7.2 
z
" style="fill: #ffffff"/>
   </g>
   <g id="matplotlib.axis_1">
    <g id="xtick_1">
     <g id="line2d_1">
      <defs>
       <path id="m7b9b908373" d="M 0 0 
L 0 3.5 
" style="stroke: #000000; stroke-width: 0.8"/>
      </defs>
      <g>
       <use xlink:href="#m7b9b908373" x="43.356847" y="202.559296" style="stroke: #000000; stroke-width: 0.8"/>
      </g>
     </g>
     <g id="text_1">
      <!-- $\mathdefault{0}$ -->
      <g transform="translate(41.239756 217.194098) scale(0.08 -0.08)">
       <defs>
        <path id="CMR17-30" d="M 2688 2025 
C 2688 2416 2682 3080 2413 3591 
C 2176 4039 1798 4198 1466 4198 
C 1158 4198 768 4058 525 3597 
C 269 3118 243 2524 243 2025 
C 243 1661 250 1106 448 619 
C 723 -39 1216 -128 1466 -128 
C 1760 -128 2208 -7 2470 600 
C 2662 1042 2688 1559 2688 2025 
z
M 1466 -26 
C 1056 -26 813 325 723 812 
C 653 1188 653 1738 653 2096 
C 653 2588 653 2997 736 3387 
C 858 3929 1216 4096 1466 4096 
C 1728 4096 2067 3923 2189 3400 
C 2272 3036 2278 2607 2278 2096 
C 2278 1680 2278 1169 2202 792 
C 2067 95 1690 -26 1466 -26 
z
" transform="scale(0.015625)"/>
       </defs>
       <use xlink:href="#CMR17-30" transform="scale(0.996264)"/>
      </g>
     </g>
    </g>
    <g id="xtick_2">
     <g id="line2d_2">
      <g>
       <use xlink:href="#m7b9b908373" x="70.161434" y="202.559296" style="stroke: #000000; stroke-width: 0.8"/>
      </g>
     </g>
     <g id="text_2">
      <!-- $\mathdefault{25}$ -->
      <g transform="translate(65.927251 217.194098) scale(0.08 -0.08)">
       <defs>
        <path id="CMR17-32" d="M 2669 989 
L 2554 989 
C 2490 536 2438 459 2413 420 
C 2381 369 1920 369 1830 369 
L 602 369 
C 832 619 1280 1072 1824 1597 
C 2214 1967 2669 2402 2669 3035 
C 2669 3790 2067 4224 1395 4224 
C 691 4224 262 3604 262 3030 
C 262 2780 448 2748 525 2748 
C 589 2748 781 2787 781 3010 
C 781 3207 614 3264 525 3264 
C 486 3264 448 3258 422 3245 
C 544 3790 915 4058 1306 4058 
C 1862 4058 2227 3617 2227 3035 
C 2227 2479 1901 2000 1536 1584 
L 262 146 
L 262 0 
L 2515 0 
L 2669 989 
z
" transform="scale(0.015625)"/>
        <path id="CMR17-35" d="M 730 3692 
C 794 3666 1056 3584 1325 3584 
C 1920 3584 2246 3911 2432 4100 
C 2432 4157 2432 4192 2394 4192 
C 2387 4192 2374 4192 2323 4163 
C 2099 4058 1837 3973 1517 3973 
C 1325 3973 1037 3999 723 4139 
C 653 4171 640 4171 634 4171 
C 602 4171 595 4164 595 4037 
L 595 2203 
C 595 2089 595 2057 659 2057 
C 691 2057 704 2070 736 2114 
C 941 2401 1222 2522 1542 2522 
C 1766 2522 2246 2382 2246 1289 
C 2246 1085 2246 715 2054 421 
C 1894 159 1645 25 1370 25 
C 947 25 518 320 403 814 
C 429 807 480 795 506 795 
C 589 795 749 840 749 1038 
C 749 1210 627 1280 506 1280 
C 358 1280 262 1190 262 1011 
C 262 454 704 -128 1382 -128 
C 2042 -128 2669 440 2669 1264 
C 2669 2030 2170 2624 1549 2624 
C 1222 2624 947 2503 730 2274 
L 730 3692 
z
" transform="scale(0.015625)"/>
       </defs>
       <use xlink:href="#CMR17-32" transform="scale(0.996264)"/>
       <use xlink:href="#CMR17-35" transform="translate(45.690477 0) scale(0.996264)"/>
      </g>
     </g>
    </g>
    <g id="xtick_3">
     <g id="line2d_3">
      <g>
       <use xlink:href="#m7b9b908373" x="96.96602" y="202.559296" style="stroke: #000000; stroke-width: 0.8"/>
      </g>
     </g>
     <g id="text_3">
      <!-- $\mathdefault{50}$ -->
      <g transform="translate(92.731837 217.194098) scale(0.08 -0.08)">
       <use xlink:href="#CMR17-35" transform="scale(0.996264)"/>
       <use xlink:href="#CMR17-30" transform="translate(45.690477 0) scale(0.996264)"/>
      </g>
     </g>
    </g>
    <g id="xtick_4">
     <g id="line2d_4">
      <g>
       <use xlink:href="#m7b9b908373" x="123.770606" y="202.559296" style="stroke: #000000; stroke-width: 0.8"/>
      </g>
     </g>
     <g id="text_4">
      <!-- $\mathdefault{75}$ -->
      <g transform="translate(119.536423 217.194098) scale(0.08 -0.08)">
       <defs>
        <path id="CMR17-37" d="M 2886 3941 
L 2886 4081 
L 1382 4081 
C 634 4081 621 4165 595 4288 
L 480 4288 
L 294 3094 
L 410 3094 
C 429 3215 474 3540 550 3661 
C 589 3712 1062 3712 1171 3712 
L 2579 3712 
L 1869 2661 
C 1395 1954 1069 999 1069 165 
C 1069 89 1069 -128 1299 -128 
C 1530 -128 1530 89 1530 171 
L 1530 465 
C 1530 1508 1709 2196 2003 2636 
L 2886 3941 
z
" transform="scale(0.015625)"/>
       </defs>
       <use xlink:href="#CMR17-37" transform="scale(0.996264)"/>
       <use xlink:href="#CMR17-35" transform="translate(45.690477 0) scale(0.996264)"/>
      </g>
     </g>
    </g>
    <g id="xtick_5">
     <g id="line2d_5">
      <g>
       <use xlink:href="#m7b9b908373" x="150.575193" y="202.559296" style="stroke: #000000; stroke-width: 0.8"/>
      </g>
     </g>
     <g id="text_5">
      <!-- $\mathdefault{100}$ -->
      <g transform="translate(144.223918 217.194098) scale(0.08 -0.08)">
       <defs>
        <path id="CMR17-31" d="M 1702 4058 
C 1702 4192 1696 4192 1606 4192 
C 1357 3916 979 3827 621 3827 
C 602 3827 570 3827 563 3808 
C 557 3795 557 3782 557 3648 
C 755 3648 1088 3686 1344 3839 
L 1344 461 
C 1344 236 1331 160 781 160 
L 589 160 
L 589 0 
C 896 0 1216 0 1523 0 
C 1830 0 2150 0 2458 0 
L 2458 160 
L 2266 160 
C 1715 160 1702 230 1702 458 
L 1702 4058 
z
" transform="scale(0.015625)"/>
       </defs>
       <use xlink:href="#CMR17-31" transform="scale(0.996264)"/>
       <use xlink:href="#CMR17-30" transform="translate(45.690477 0) scale(0.996264)"/>
       <use xlink:href="#CMR17-30" transform="translate(91.380954 0) scale(0.996264)"/>
      </g>
     </g>
    </g>
    <g id="xtick_6">
     <g id="line2d_6">
      <g>
       <use xlink:href="#m7b9b908373" x="177.379779" y="202.559296" style="stroke: #000000; stroke-width: 0.8"/>
      </g>
     </g>
     <g id="text_6">
      <!-- $\mathdefault{125}$ -->
      <g transform="translate(171.028505 217.194098) scale(0.08 -0.08)">
       <use xlink:href="#CMR17-31" transform="scale(0.996264)"/>
       <use xlink:href="#CMR17-32" transform="translate(45.690477 0) scale(0.996264)"/>
       <use xlink:href="#CMR17-35" transform="translate(91.380954 0) scale(0.996264)"/>
      </g>
     </g>
    </g>
    <g id="xtick_7">
     <g id="line2d_7">
      <g>
       <use xlink:href="#m7b9b908373" x="204.184365" y="202.559296" style="stroke: #000000; stroke-width: 0.8"/>
      </g>
     </g>
     <g id="text_7">
      <!-- $\mathdefault{150}$ -->
      <g transform="translate(197.833091 217.194098) scale(0.08 -0.08)">
       <use xlink:href="#CMR17-31" transform="scale(0.996264)"/>
       <use xlink:href="#CMR17-35" transform="translate(45.690477 0) scale(0.996264)"/>
       <use xlink:href="#CMR17-30" transform="translate(91.380954 0) scale(0.996264)"/>
      </g>
     </g>
    </g>
    <g id="xtick_8">
     <g id="line2d_8">
      <g>
       <use xlink:href="#m7b9b908373" x="230.988952" y="202.559296" style="stroke: #000000; stroke-width: 0.8"/>
      </g>
     </g>
     <g id="text_8">
      <!-- $\mathdefault{175}$ -->
      <g transform="translate(224.637677 217.194098) scale(0.08 -0.08)">
       <use xlink:href="#CMR17-31" transform="scale(0.996264)"/>
       <use xlink:href="#CMR17-37" transform="translate(45.690477 0) scale(0.996264)"/>
       <use xlink:href="#CMR17-35" transform="translate(91.380954 0) scale(0.996264)"/>
      </g>
     </g>
    </g>
    <g id="text_9">
     <!-- $\tau$ -->
     <g transform="translate(137.675756 229.662342) scale(0.1 -0.1)">
      <defs>
       <path id="CMMI12-1c" d="M 1837 2408 
L 2899 2408 
C 2982 2408 3194 2408 3194 2612 
C 3194 2752 3072 2752 2957 2752 
L 1197 2752 
C 1050 2752 832 2752 538 2440 
C 371 2255 166 1917 166 1879 
C 166 1841 198 1828 237 1828 
C 282 1828 288 1847 320 1885 
C 653 2408 986 2408 1146 2408 
L 1677 2408 
L 1011 223 
C 979 127 979 114 979 95 
C 979 25 1024 -64 1152 -64 
C 1350 -64 1382 108 1402 203 
L 1837 2408 
z
" transform="scale(0.015625)"/>
      </defs>
      <use xlink:href="#CMMI12-1c" transform="scale(0.996264)"/>
     </g>
    </g>
   </g>
   <g id="matplotlib.axis_2">
    <g id="ytick_1">
     <g id="line2d_9">
      <defs>
       <path id="meda30b579e" d="M 0 0 
L -3.5 0 
" style="stroke: #000000; stroke-width: 0.8"/>
      </defs>
      <g>
       <use xlink:href="#meda30b579e" x="33.707196" y="193.679328" style="stroke: #000000; stroke-width: 0.8"/>
      </g>
     </g>
     <g id="text_10">
      <!-- $\mathdefault{−1.0}$ -->
      <g transform="translate(7.2 196.446729) scale(0.08 -0.08)">
       <defs>
        <path id="CMSY10-0" d="M 4218 1472 
C 4326 1472 4442 1472 4442 1600 
C 4442 1728 4326 1728 4218 1728 
L 755 1728 
C 646 1728 531 1728 531 1600 
C 531 1472 646 1472 755 1472 
L 4218 1472 
z
" transform="scale(0.015625)"/>
        <path id="CMMI12-3a" d="M 1178 307 
C 1178 492 1024 619 870 619 
C 685 619 557 466 557 313 
C 557 128 710 0 864 0 
C 1050 0 1178 153 1178 307 
z
" transform="scale(0.015625)"/>
       </defs>
       <use xlink:href="#CMSY10-0" transform="scale(0.996264)"/>
       <use xlink:href="#CMR17-31" transform="translate(77.487468 0) scale(0.996264)"/>
       <use xlink:href="#CMMI12-3a" transform="translate(123.177945 0) scale(0.996264)"/>
       <use xlink:href="#CMR17-30" transform="translate(150.275122 0) scale(0.996264)"/>
      </g>
     </g>
    </g>
    <g id="ytick_2">
     <g id="line2d_10">
      <g>
       <use xlink:href="#meda30b579e" x="33.707196" y="158.412004" style="stroke: #000000; stroke-width: 0.8"/>
      </g>
     </g>
     <g id="text_11">
      <!-- $\mathdefault{−0.8}$ -->
      <g transform="translate(7.2 161.179405) scale(0.08 -0.08)">
       <defs>
        <path id="CMR17-38" d="M 1741 2264 
C 2144 2467 2554 2773 2554 3263 
C 2554 3841 1990 4179 1472 4179 
C 890 4179 378 3759 378 3180 
C 378 3021 416 2747 666 2505 
C 730 2442 998 2251 1171 2130 
C 883 1983 211 1634 211 934 
C 211 279 838 -128 1459 -128 
C 2144 -128 2720 362 2720 1010 
C 2720 1590 2330 1857 2074 2029 
L 1741 2264 
z
M 902 2822 
C 851 2854 595 3051 595 3351 
C 595 3739 998 4032 1459 4032 
C 1965 4032 2336 3676 2336 3262 
C 2336 2669 1670 2331 1638 2331 
C 1632 2331 1626 2331 1574 2370 
L 902 2822 
z
M 2080 1519 
C 2176 1449 2483 1240 2483 851 
C 2483 381 2010 25 1472 25 
C 890 25 448 438 448 940 
C 448 1443 838 1862 1280 2060 
L 2080 1519 
z
" transform="scale(0.015625)"/>
       </defs>
       <use xlink:href="#CMSY10-0" transform="scale(0.996264)"/>
       <use xlink:href="#CMR17-30" transform="translate(77.487468 0) scale(0.996264)"/>
       <use xlink:href="#CMMI12-3a" transform="translate(123.177945 0) scale(0.996264)"/>
       <use xlink:href="#CMR17-38" transform="translate(150.275122 0) scale(0.996264)"/>
      </g>
     </g>
    </g>
    <g id="ytick_3">
     <g id="line2d_11">
      <g>
       <use xlink:href="#meda30b579e" x="33.707196" y="123.14468" style="stroke: #000000; stroke-width: 0.8"/>
      </g>
     </g>
     <g id="text_12">
      <!-- $\mathdefault{−0.6}$ -->
      <g transform="translate(7.2 125.912081) scale(0.08 -0.08)">
       <defs>
        <path id="CMR17-36" d="M 678 2176 
C 678 3690 1395 4032 1811 4032 
C 1946 4032 2272 4009 2400 3776 
C 2298 3776 2106 3776 2106 3553 
C 2106 3381 2246 3323 2336 3323 
C 2394 3323 2566 3348 2566 3560 
C 2566 3954 2246 4179 1805 4179 
C 1043 4179 243 3390 243 1984 
C 243 253 966 -128 1478 -128 
C 2099 -128 2688 427 2688 1283 
C 2688 2081 2170 2662 1517 2662 
C 1126 2662 838 2407 678 1960 
L 678 2176 
z
M 1478 25 
C 691 25 691 1200 691 1436 
C 691 1896 909 2560 1504 2560 
C 1613 2560 1926 2560 2138 2120 
C 2253 1870 2253 1609 2253 1289 
C 2253 944 2253 690 2118 434 
C 1978 171 1773 25 1478 25 
z
" transform="scale(0.015625)"/>
       </defs>
       <use xlink:href="#CMSY10-0" transform="scale(0.996264)"/>
       <use xlink:href="#CMR17-30" transform="translate(77.487468 0) scale(0.996264)"/>
       <use xlink:href="#CMMI12-3a" transform="translate(123.177945 0) scale(0.996264)"/>
       <use xlink:href="#CMR17-36" transform="translate(150.275122 0) scale(0.996264)"/>
      </g>
     </g>
    </g>
    <g id="ytick_4">
     <g id="line2d_12">
      <g>
       <use xlink:href="#meda30b579e" x="33.707196" y="87.877356" style="stroke: #000000; stroke-width: 0.8"/>
      </g>
     </g>
     <g id="text_13">
      <!-- $\mathdefault{−0.4}$ -->
      <g transform="translate(7.2 90.644757) scale(0.08 -0.08)">
       <defs>
        <path id="CMR17-34" d="M 2150 4122 
C 2150 4256 2144 4256 2029 4256 
L 128 1254 
L 128 1088 
L 1779 1088 
L 1779 457 
C 1779 224 1766 160 1318 160 
L 1197 160 
L 1197 0 
C 1402 0 1747 0 1965 0 
C 2182 0 2528 0 2733 0 
L 2733 160 
L 2611 160 
C 2163 160 2150 224 2150 457 
L 2150 1088 
L 2803 1088 
L 2803 1254 
L 2150 1254 
L 2150 4122 
z
M 1798 3703 
L 1798 1254 
L 256 1254 
L 1798 3703 
z
" transform="scale(0.015625)"/>
       </defs>
       <use xlink:href="#CMSY10-0" transform="scale(0.996264)"/>
       <use xlink:href="#CMR17-30" transform="translate(77.487468 0) scale(0.996264)"/>
       <use xlink:href="#CMMI12-3a" transform="translate(123.177945 0) scale(0.996264)"/>
       <use xlink:href="#CMR17-34" transform="translate(150.275122 0) scale(0.996264)"/>
      </g>
     </g>
    </g>
    <g id="ytick_5">
     <g id="line2d_13">
      <g>
       <use xlink:href="#meda30b579e" x="33.707196" y="52.610032" style="stroke: #000000; stroke-width: 0.8"/>
      </g>
     </g>
     <g id="text_14">
      <!-- $\mathdefault{−0.2}$ -->
      <g transform="translate(7.2 55.377433) scale(0.08 -0.08)">
       <use xlink:href="#CMSY10-0" transform="scale(0.996264)"/>
       <use xlink:href="#CMR17-30" transform="translate(77.487468 0) scale(0.996264)"/>
       <use xlink:href="#CMMI12-3a" transform="translate(123.177945 0) scale(0.996264)"/>
       <use xlink:href="#CMR17-32" transform="translate(150.275122 0) scale(0.996264)"/>
      </g>
     </g>
    </g>
    <g id="ytick_6">
     <g id="line2d_14">
      <g>
       <use xlink:href="#meda30b579e" x="33.707196" y="17.342708" style="stroke: #000000; stroke-width: 0.8"/>
      </g>
     </g>
     <g id="text_15">
      <!-- $\mathdefault{0.0}$ -->
      <g transform="translate(13.786507 20.110109) scale(0.08 -0.08)">
       <use xlink:href="#CMR17-30" transform="scale(0.996264)"/>
       <use xlink:href="#CMMI12-3a" transform="translate(45.690477 0) scale(0.996264)"/>
       <use xlink:href="#CMR17-30" transform="translate(72.787654 0) scale(0.996264)"/>
      </g>
     </g>
    </g>
   </g>
   <g id="line2d_15">
    <path d="M 43.356847 193.679328 
L 52.556181 193.585957 
L 52.877836 193.319338 
L 53.13516 192.814153 
L 53.456815 191.534929 
L 53.77847 189.171893 
L 54.164456 184.436629 
L 54.679105 174.707811 
L 57.445338 115.050841 
L 58.088648 107.066654 
L 58.989282 98.693487 
L 60.340233 89.291009 
L 61.112205 84.668911 
L 63.685446 74.154587 
L 66.065693 68.096438 
L 66.387348 67.373088 
L 66.580341 67.297906 
L 67.030658 67.391127 
L 67.352313 67.076752 
L 68.317278 65.851172 
L 68.767595 65.238687 
L 69.153581 65.057799 
L 69.410905 65.188468 
L 69.73256 65.77642 
L 71.147842 69.189323 
L 72.627456 74.117271 
L 73.335097 75.565566 
L 73.849745 76.145423 
L 74.364393 76.354801 
L 75.265027 76.401377 
L 85.429326 76.30483 
L 86.201298 76.028289 
L 87.487918 75.371394 
L 87.745242 75.513497 
L 88.066897 76.02911 
L 88.388552 77.009845 
L 88.838869 79.230113 
L 89.54651 84.171403 
L 92.956054 110.278923 
L 94.242674 117.002363 
L 94.950315 119.658719 
L 95.850949 122.096161 
L 97.330562 125.205927 
L 98.295527 126.844093 
L 99.003168 127.671227 
L 99.968134 128.406348 
L 101.190423 129.116457 
L 101.576409 129.774706 
L 102.091057 131.161409 
L 102.670036 133.393577 
L 103.442008 137.428522 
L 104.792959 144.431998 
L 105.371938 146.357156 
L 105.886586 147.316202 
L 106.336903 147.705454 
L 106.851551 147.84793 
L 108.266834 147.8683 
L 116.95152 147.768097 
L 117.273175 147.533703 
L 117.59483 146.972112 
L 117.916485 145.812359 
L 118.23814 143.736795 
L 118.624126 139.75856 
L 119.203105 131.078435 
L 120.747049 106.859195 
L 121.712014 93.980358 
L 122.355324 88.291626 
L 123.127296 83.435192 
L 124.02793 78.848074 
L 124.992895 75.638235 
L 126.472509 70.985748 
L 127.566136 69.06868 
L 128.016453 67.931352 
L 128.273777 67.79101 
L 128.595432 67.678978 
L 128.852756 67.30811 
L 129.560397 66.148453 
L 130.010714 65.696288 
L 130.589693 64.466147 
L 131.168672 63.597001 
L 131.490327 63.366079 
L 132.133637 63.414844 
L 133.227264 62.252541 
L 133.806243 62.146471 
L 134.063567 62.293442 
L 134.320891 62.765309 
L 134.83554 64.448387 
L 136.250822 69.106282 
L 137.344449 72.222115 
L 137.859097 73.091823 
L 138.309414 73.471535 
L 138.824062 73.623087 
L 140.046351 73.64934 
L 150.274981 73.548088 
L 151.625932 73.274795 
L 151.947587 73.494741 
L 152.269242 74.025815 
L 152.655229 75.210073 
L 153.169877 77.670785 
L 153.813187 81.926683 
L 154.713821 89.55972 
L 156.515089 105.19928 
L 157.415723 110.932072 
L 158.252026 114.865342 
L 159.216991 118.397351 
L 160.117625 121.01085 
L 161.790232 125.102311 
L 162.369211 125.921361 
L 165.264106 128.998182 
L 165.843085 129.482609 
L 166.229071 130.156116 
L 166.679388 131.512857 
L 167.258367 134.14345 
L 169.509952 145.495089 
L 170.0246 146.700429 
L 170.474918 147.24251 
L 170.925235 147.460999 
L 171.632876 147.523601 
L 181.153865 147.480626 
L 181.539851 147.278298 
L 181.861506 146.789466 
L 182.183161 145.7483 
L 182.504816 143.882427 
L 182.890802 140.260573 
L 183.40545 133.064208 
L 185.785697 96.276374 
L 186.429007 89.853946 
L 187.072317 85.180103 
L 187.651296 82.720717 
L 188.616262 78.514286 
L 189.13091 76.854027 
L 189.709889 75.213336 
L 190.546192 72.522822 
L 191.253833 71.029965 
L 191.575488 70.330698 
L 192.218798 68.739287 
L 193.183763 67.616919 
L 193.698411 66.395982 
L 194.213059 65.259561 
L 194.534714 65.058086 
L 195.113693 64.902741 
L 196.014327 64.517724 
L 196.400313 64.541606 
L 196.593306 64.290627 
L 197.365279 62.868982 
L 197.622603 62.803865 
L 197.815596 62.988191 
L 198.71623 64.279046 
L 199.037885 64.517939 
L 199.35954 65.159111 
L 199.809857 66.745792 
L 200.64616 69.764357 
L 201.997111 73.296191 
L 202.447428 73.783276 
L 202.962076 74.003739 
L 203.798379 74.049076 
L 214.348664 73.948598 
L 216.021271 73.600117 
L 216.342926 73.914714 
L 216.728912 74.704805 
L 217.114898 76.039396 
L 217.629546 78.778271 
L 218.272856 83.579691 
L 221.425075 109.169058 
L 222.325709 113.796799 
L 223.483667 118.446778 
L 224.384302 121.14059 
L 225.477929 123.495465 
L 226.249901 124.910322 
L 227.407859 126.537083 
L 230.302754 129.420804 
L 230.68874 130.328706 
L 231.203388 132.300325 
L 231.97536 136.358109 
L 233.390643 143.803452 
L 233.969622 145.797662 
L 234.48427 146.834464 
L 234.934587 147.271677 
L 235.449235 147.442295 
L 236.349869 147.470163 
L 236.349869 147.470163 
" clip-path="url(#pfeadb1df47)" style="fill: none; stroke: #ff7f0e; stroke-width: 0.5; stroke-linecap: square"/>
   </g>
   <g id="line2d_16">
    <path d="M 43.356847 17.342708 
L 53.263822 17.450038 
L 54.872098 17.73042 
L 55.837063 17.431755 
L 56.28738 17.664364 
L 56.93069 18.016721 
L 57.574 17.920918 
L 58.152979 17.721683 
L 59.310937 17.068008 
L 59.632592 17.235685 
L 60.14724 17.598144 
L 60.404564 17.486245 
L 61.240867 16.8427 
L 61.755515 16.624251 
L 62.205832 16.441065 
L 62.527487 16.546843 
L 62.913473 16.993997 
L 63.492453 17.631867 
L 63.94277 17.895137 
L 64.264425 17.836752 
L 65.165059 17.269665 
L 65.551045 17.002812 
L 65.808369 17.055243 
L 66.773334 17.503492 
L 67.15932 17.306282 
L 67.609637 17.067131 
L 67.931292 17.196879 
L 69.08925 17.982226 
L 69.475236 17.678646 
L 70.440201 16.736156 
L 70.761856 16.862836 
L 71.598159 17.339531 
L 72.434463 17.248832 
L 74.107069 17.259141 
L 75.586682 17.465686 
L 77.645274 17.282863 
L 78.996225 17.480861 
L 80.154183 17.317382 
L 81.505135 17.203011 
L 82.984748 17.335516 
L 84.914678 17.481527 
L 86.458622 17.342492 
L 87.294925 17.322199 
L 88.002566 17.572726 
L 89.54651 18.306294 
L 89.932496 18.134558 
L 91.862427 16.740094 
L 92.312744 16.716878 
L 93.020385 16.996234 
L 93.792357 17.224469 
L 94.757322 17.238727 
L 97.652217 17.050264 
L 99.260493 17.333184 
L 100.482782 16.984 
L 102.541374 17.056136 
L 103.506339 17.337761 
L 105.5006 17.846381 
L 106.336903 17.730377 
L 107.366199 17.316124 
L 108.524158 16.89415 
L 109.231799 16.862911 
L 109.93944 17.06394 
L 111.86937 17.819975 
L 112.319687 17.630231 
L 113.670638 16.850308 
L 114.056624 16.995742 
L 115.407575 17.831135 
L 115.793561 17.658588 
L 117.015851 16.854815 
L 117.401837 16.990753 
L 118.045147 17.569112 
L 118.559795 17.916417 
L 118.945781 17.909363 
L 119.396098 17.638569 
L 120.489725 16.830013 
L 120.875711 16.862556 
L 121.519021 17.239255 
L 121.969338 17.459804 
L 122.355324 17.356458 
L 122.934303 17.153163 
L 124.092261 17.201509 
L 124.478247 17.091071 
L 125.378881 17.185848 
L 125.89353 16.926995 
L 126.215185 17.021577 
L 126.794164 17.559352 
L 127.501805 18.057857 
L 127.887791 18.0426 
L 128.338108 17.76089 
L 129.045749 17.167034 
L 129.303073 17.351113 
L 130.268038 18.38767 
L 130.525362 18.140531 
L 131.297334 17.235637 
L 131.811982 17.048172 
L 132.133637 17.147571 
L 133.098602 17.790588 
L 133.420257 17.507733 
L 134.063567 16.878837 
L 134.320891 16.87644 
L 134.578215 17.094256 
L 135.47885 18.128368 
L 135.736174 18.083122 
L 136.057829 17.708555 
L 137.022794 16.29042 
L 137.280118 16.298759 
L 137.537442 16.544135 
L 137.987759 17.372198 
L 138.566738 18.349064 
L 138.824062 18.470885 
L 139.081386 18.338981 
L 139.403041 17.866611 
L 140.368006 16.251372 
L 140.62533 16.243376 
L 140.882654 16.481128 
L 141.332971 17.293274 
L 141.91195 18.285864 
L 142.233605 18.469983 
L 142.490929 18.377651 
L 142.876915 17.919427 
L 143.970543 16.357043 
L 144.356529 16.215123 
L 144.742515 16.33388 
L 145.257163 16.776033 
L 146.801107 18.297856 
L 147.315755 18.466815 
L 147.766072 18.405303 
L 148.28072 18.110945 
L 149.052692 17.371052 
L 150.017657 16.485304 
L 150.532305 16.271941 
L 151.046953 16.292435 
L 151.561601 16.525542 
L 152.397904 17.217916 
L 153.169877 17.743871 
L 153.620194 17.777931 
L 155.421462 17.255665 
L 156.57942 16.78261 
L 157.544385 16.713188 
L 157.994702 16.856507 
L 158.638012 17.360724 
L 159.345653 17.850266 
L 160.053294 18.030921 
L 160.760935 18.010685 
L 161.404245 17.819695 
L 162.94819 17.114282 
L 165.585761 17.259108 
L 166.229071 17.248061 
L 166.872381 17.506949 
L 167.45136 17.677739 
L 170.0246 17.658502 
L 171.439883 17.121912 
L 172.340517 16.911532 
L 173.112489 16.960544 
L 173.948792 17.244202 
L 175.364074 17.776441 
L 175.878722 17.725999 
L 176.457701 17.433637 
L 177.422666 16.911957 
L 177.808652 16.948436 
L 178.3233 17.262302 
L 179.095272 17.759441 
L 179.481259 17.750176 
L 179.931576 17.490138 
L 180.83221 16.915116 
L 181.218196 16.956576 
L 181.732844 17.28319 
L 182.376154 17.634836 
L 182.76214 17.592138 
L 183.791436 17.283889 
L 184.306084 17.613197 
L 184.69207 17.774682 
L 185.013725 17.668501 
L 185.657035 17.388458 
L 186.557669 17.224705 
L 187.26531 16.946659 
L 187.586965 17.153913 
L 188.230276 17.671074 
L 188.4876 17.616972 
L 188.809255 17.283848 
L 189.452565 16.539646 
L 189.709889 16.54361 
L 190.031544 16.822026 
L 191.189502 18.114025 
L 191.446826 18.05347 
L 191.897143 17.63295 
L 192.476122 17.083752 
L 192.797777 17.110753 
L 193.698411 17.522234 
L 194.213059 17.71076 
L 194.599045 17.503978 
L 195.113693 17.26643 
L 195.435348 17.400689 
L 196.20732 17.960065 
L 196.464644 17.828137 
L 197.493941 16.838593 
L 197.815596 17.074383 
L 198.973554 18.26689 
L 199.230878 18.148156 
L 199.616864 17.644628 
L 200.324505 16.668109 
L 200.581829 16.613198 
L 200.903484 16.803667 
L 202.254435 18.037134 
L 202.57609 17.854489 
L 203.155069 17.135694 
L 203.669717 16.654542 
L 203.991372 16.645455 
L 204.313027 16.87983 
L 205.535316 18.067905 
L 205.856971 17.946575 
L 206.307289 17.476772 
L 207.01493 16.729955 
L 207.400916 16.618287 
L 207.786902 16.754752 
L 208.430212 17.303015 
L 209.202184 17.908361 
L 209.716832 18.063798 
L 210.23148 18.003794 
L 210.939121 17.66518 
L 212.740389 16.660666 
L 213.319368 16.632918 
L 213.962678 16.843278 
L 214.73465 17.355347 
L 215.892609 18.167994 
L 216.471588 18.245668 
L 217.179229 18.111527 
L 218.916166 17.585098 
L 220.074124 17.304768 
L 221.232082 17.019418 
L 221.74673 17.137935 
L 222.325709 17.581673 
L 222.904688 17.900155 
L 223.805323 18.086983 
L 224.641626 18.081747 
L 225.735253 17.664726 
L 226.635887 17.470423 
L 227.665183 17.448457 
L 229.273458 17.559258 
L 230.238423 17.753285 
L 231.010395 17.716548 
L 231.589374 17.428911 
L 232.811664 16.739134 
L 233.519305 16.549058 
L 234.033953 16.647818 
L 234.741594 17.075374 
L 236.285538 18.086852 
L 236.349869 18.107914 
L 236.349869 18.107914 
" clip-path="url(#pfeadb1df47)" style="fill: none; stroke: #2ca02c; stroke-width: 0.5; stroke-linecap: square"/>
   </g>
   <g id="line2d_17">
    <path d="M 43.356847 17.342708 
L 53.199491 17.243371 
L 54.228787 17.134105 
L 54.743436 17.390676 
L 55.258084 17.590931 
L 55.64407 17.463615 
L 56.544704 16.988506 
L 56.93069 17.220629 
L 57.381007 17.409074 
L 57.895655 17.63646 
L 58.474634 17.7657 
L 58.796289 17.740592 
L 59.117944 17.437432 
L 59.696923 16.858112 
L 59.889916 16.966297 
L 60.275902 17.652881 
L 60.597557 18.005368 
L 60.854881 17.907591 
L 61.305198 17.66452 
L 62.07717 17.648641 
L 62.463156 17.183461 
L 62.913473 16.655802 
L 63.170797 16.773293 
L 64.521749 17.793116 
L 65.422383 17.438397 
L 65.937031 16.859658 
L 66.194355 16.949352 
L 67.15932 17.528306 
L 67.416644 17.410091 
L 68.188616 16.744172 
L 68.44594 16.744013 
L 68.703264 17.03928 
L 69.217912 17.735549 
L 69.668229 17.861487 
L 69.989884 17.806815 
L 70.311539 17.405773 
L 70.761856 16.904106 
L 71.01918 16.934485 
L 72.048476 17.44137 
L 75.007703 17.266572 
L 76.358654 17.4736 
L 77.38795 17.254627 
L 78.159922 17.215368 
L 80.926155 17.409925 
L 83.242072 17.204734 
L 84.786016 17.355339 
L 86.201298 17.443171 
L 87.037601 17.314091 
L 88.838869 16.867306 
L 89.289186 17.164089 
L 89.868165 17.860257 
L 90.382814 18.399117 
L 90.7688 18.511152 
L 91.154786 18.425015 
L 91.605103 18.081535 
L 93.084716 16.689053 
L 93.535033 16.8067 
L 95.143308 17.465554 
L 96.301266 17.515061 
L 97.266231 17.391048 
L 97.973872 17.275107 
L 100.35412 17.59133 
L 101.254754 17.438384 
L 103.377677 16.807927 
L 104.664297 17.030927 
L 105.629262 17.363402 
L 106.851551 17.794201 
L 107.623523 17.816125 
L 108.395496 17.603727 
L 110.518419 16.848772 
L 111.097398 16.986768 
L 111.805039 17.42703 
L 112.51268 17.813176 
L 112.898666 17.811962 
L 113.348983 17.569248 
L 114.378279 16.856661 
L 114.764265 16.915896 
L 115.278913 17.30227 
L 115.986554 17.810339 
L 116.37254 17.8006 
L 116.822857 17.504789 
L 117.723492 16.804963 
L 118.045147 16.819254 
L 118.431133 17.068994 
L 119.460429 17.890461 
L 119.846415 17.851622 
L 120.875711 17.259716 
L 121.45469 16.893858 
L 121.712014 16.935549 
L 122.098 17.295852 
L 122.419655 17.533747 
L 122.612648 17.475145 
L 123.448951 16.873549 
L 123.770606 17.10813 
L 124.156592 17.377793 
L 124.413916 17.262229 
L 124.735571 17.107791 
L 124.928564 17.272173 
L 125.443212 17.909867 
L 125.636205 17.857815 
L 126.022192 17.356216 
L 126.408178 16.955825 
L 126.794164 16.944298 
L 127.308812 17.046572 
L 128.659763 18.014045 
L 128.852756 17.77381 
L 129.431735 16.772727 
L 129.689059 16.752441 
L 129.946383 16.958927 
L 130.332369 17.718972 
L 130.654024 18.139612 
L 130.847017 18.088332 
L 131.361665 17.810374 
L 131.68332 17.687231 
L 132.004975 17.217655 
L 132.390961 16.762334 
L 132.583954 16.816192 
L 132.841278 17.162167 
L 133.355926 17.90147 
L 133.61325 17.821904 
L 134.192229 17.286018 
L 134.83554 16.478267 
L 135.028533 16.525877 
L 135.285857 16.836369 
L 136.250822 18.344836 
L 136.508146 18.29285 
L 136.829801 17.899178 
L 137.923428 16.216672 
L 138.180752 16.289363 
L 138.502407 16.709417 
L 139.531703 18.437092 
L 139.789027 18.438847 
L 140.046351 18.192828 
L 140.496668 17.359372 
L 141.075647 16.360843 
L 141.397302 16.218093 
L 141.654626 16.373025 
L 142.040612 16.949838 
L 142.876915 18.311672 
L 143.19857 18.46947 
L 143.520225 18.364396 
L 143.970543 17.890394 
L 145.192832 16.409933 
L 145.643149 16.223071 
L 146.093466 16.27703 
L 146.608114 16.580263 
L 147.444417 17.389173 
L 148.409382 18.254386 
L 148.92403 18.458977 
L 149.374347 18.425422 
L 149.888995 18.150364 
L 150.596636 17.477871 
L 151.625932 16.51833 
L 152.076249 16.37306 
L 152.462235 16.454894 
L 153.041215 16.857974 
L 153.877518 17.43904 
L 154.585159 17.696084 
L 156.386427 17.810343 
L 156.836744 17.504056 
L 157.930371 16.603532 
L 159.023998 16.082026 
L 159.474315 16.151979 
L 159.860301 16.430577 
L 161.275583 17.806973 
L 161.790232 17.861974 
L 163.977486 17.554786 
L 165.006782 17.29959 
L 166.229071 17.161851 
L 167.129705 17.180071 
L 168.159001 17.050486 
L 168.930973 17.286485 
L 170.346256 17.730783 
L 171.118228 17.771766 
L 171.954531 17.578808 
L 174.141785 16.902379 
L 174.785095 17.002409 
L 175.557067 17.376531 
L 176.457701 17.77368 
L 176.908018 17.728915 
L 177.422666 17.43468 
L 178.258969 16.922005 
L 178.644955 16.938116 
L 179.095272 17.200093 
L 179.995907 17.772423 
L 180.381893 17.729262 
L 180.896541 17.389525 
L 181.604182 16.952258 
L 181.990168 17.001284 
L 182.569147 17.401982 
L 183.083795 17.638922 
L 183.40545 17.559481 
L 184.370415 17.082617 
L 184.69207 17.362654 
L 185.142387 17.722413 
L 185.399711 17.61586 
L 185.850028 17.366369 
L 186.236014 17.592207 
L 186.622 17.692708 
L 187.007986 17.555566 
L 187.779958 17.053344 
L 188.037282 17.227491 
L 188.873586 18.125927 
L 189.13091 17.97633 
L 189.581227 17.333682 
L 190.095875 16.653007 
L 190.481861 16.477584 
L 190.739185 16.617709 
L 191.125171 17.205445 
L 191.511157 17.714663 
L 191.897143 17.826741 
L 192.154467 17.749352 
L 193.248094 16.96354 
L 193.762742 16.932199 
L 194.084397 17.152927 
L 194.599045 17.601459 
L 194.792038 17.556667 
L 195.113693 17.15449 
L 195.499679 16.687345 
L 195.692672 16.701445 
L 196.014327 17.003644 
L 196.914961 18.047118 
L 197.236617 17.674752 
L 197.944258 16.845167 
L 198.265913 16.715082 
L 198.587568 16.865728 
L 198.973554 17.332343 
L 199.681195 18.238922 
L 199.938519 18.202453 
L 200.260174 17.813615 
L 201.032146 16.73112 
L 201.353801 16.619861 
L 201.675456 16.76827 
L 202.125773 17.284342 
L 202.769083 17.997958 
L 203.090738 18.056777 
L 203.412393 17.863418 
L 203.991372 17.143306 
L 204.50602 16.65718 
L 204.827675 16.643195 
L 205.14933 16.871752 
L 206.37162 18.065918 
L 206.693275 17.987569 
L 207.143592 17.596392 
L 208.044226 16.735287 
L 208.494543 16.617815 
L 208.94486 16.740849 
L 209.652501 17.2162 
L 210.746128 17.922394 
L 211.389438 18.067403 
L 211.968417 17.9781 
L 212.676058 17.631298 
L 214.541657 16.595136 
L 215.056306 16.546595 
L 215.828278 16.777987 
L 217.114898 17.287286 
L 217.951201 17.597733 
L 218.980497 17.815037 
L 220.074124 17.796271 
L 220.974758 17.344329 
L 221.74673 17.071518 
L 222.518702 17.024777 
L 223.290674 17.335473 
L 224.834619 17.865338 
L 225.413598 17.924218 
L 226.056908 17.724605 
L 227.729514 17.036674 
L 228.887472 17.047022 
L 229.659444 17.293311 
L 231.846698 18.047317 
L 232.361346 17.961697 
L 233.004657 17.585569 
L 234.48427 16.653007 
L 235.063249 16.512548 
L 235.642228 16.614128 
L 236.285538 16.969126 
L 236.349869 17.01442 
L 236.349869 17.01442 
" clip-path="url(#pfeadb1df47)" style="fill: none; stroke: #d62728; stroke-width: 0.5; stroke-linecap: square"/>
   </g>
   <g id="patch_3">
    <path d="M 33.707196 202.559296 
L 33.707196 7.2 
" style="fill: none; stroke: #000000; stroke-width: 0.8; stroke-linejoin: miter; stroke-linecap: square"/>
   </g>
   <g id="patch_4">
    <path d="M 245.99952 202.559296 
L 245.99952 7.2 
" style="fill: none; stroke: #000000; stroke-width: 0.8; stroke-linejoin: miter; stroke-linecap: square"/>
   </g>
   <g id="patch_5">
    <path d="M 33.707196 202.559296 
L 245.99952 202.559296 
" style="fill: none; stroke: #000000; stroke-width: 0.8; stroke-linejoin: miter; stroke-linecap: square"/>
   </g>
   <g id="patch_6">
    <path d="M 33.707196 7.2 
L 245.99952 7.2 
" style="fill: none; stroke: #000000; stroke-width: 0.8; stroke-linejoin: miter; stroke-linecap: square"/>
   </g>
   <g id="legend_1">
    <g id="patch_7">
     <path d="M 193.792605 198.059296 
L 239.69952 198.059296 
Q 241.49952 198.059296 241.49952 196.259296 
L 241.49952 156.760168 
Q 241.49952 154.960168 239.69952 154.960168 
L 193.792605 154.960168 
Q 191.992605 154.960168 191.992605 156.760168 
L 191.992605 196.259296 
Q 191.992605 198.059296 193.792605 198.059296 
z
" style="fill: #ffffff; opacity: 0.8; stroke: #cccccc; stroke-width: 0.24; stroke-linejoin: miter"/>
    </g>
    <g id="line2d_18">
     <path d="M 195.592605 162.13495 
L 204.592605 162.13495 
L 213.592605 162.13495 
" style="fill: none; stroke: #ff7f0e; stroke-width: 0.5; stroke-linecap: square"/>
    </g>
    <g id="text_16">
     <!-- $\langle \sigma_z\rangle$ -->
     <g transform="translate(220.792605 165.28495) scale(0.09 -0.09)">
      <defs>
       <path id="CMSY10-68" d="M 2099 4557 
C 2131 4627 2131 4640 2131 4672 
C 2131 4742 2074 4800 2003 4800 
C 1946 4800 1901 4768 1856 4653 
L 736 1715 
C 723 1677 704 1638 704 1600 
C 704 1581 704 1568 736 1491 
L 1856 -1446 
C 1882 -1517 1914 -1600 2003 -1600 
C 2074 -1600 2131 -1542 2131 -1472 
C 2131 -1453 2131 -1440 2099 -1370 
L 966 1600 
L 2099 4557 
z
" transform="scale(0.015625)"/>
       <path id="CMMI12-1b" d="M 3251 2408 
C 3334 2408 3546 2408 3546 2612 
C 3546 2752 3424 2752 3309 2752 
L 1894 2752 
C 934 2752 243 1686 243 932 
C 243 390 595 -64 1171 -64 
C 1926 -64 2752 747 2752 1705 
C 2752 1954 2694 2196 2541 2408 
L 3251 2408 
z
M 1178 64 
C 851 64 614 313 614 754 
C 614 1137 845 2408 1786 2408 
C 2061 2408 2368 2274 2368 1781 
C 2368 1558 2266 1021 2042 652 
C 1811 275 1466 64 1178 64 
z
" transform="scale(0.015625)"/>
       <path id="CMMI12-7a" d="M 813 486 
C 1088 803 1312 1004 1632 1296 
C 2016 1632 2182 1793 2272 1891 
C 2720 2338 2944 2713 2944 2764 
C 2944 2816 2893 2816 2880 2816 
C 2835 2816 2822 2793 2790 2750 
C 2630 2494 2477 2367 2310 2367 
C 2176 2367 2106 2421 1984 2565 
C 1850 2715 1741 2816 1555 2816 
C 1088 2816 806 2257 806 2128 
C 806 2108 813 2068 870 2068 
C 922 2068 928 2091 947 2133 
C 1056 2372 1363 2414 1485 2414 
C 1619 2414 1747 2376 1882 2327 
C 2125 2240 2227 2240 2291 2240 
C 2336 2240 2362 2240 2394 2246 
C 2182 1994 1837 1683 1549 1418 
L 902 816 
C 512 415 275 33 275 -12 
C 275 -51 307 -64 346 -64 
C 384 -64 390 -57 435 14 
C 538 163 742 384 979 384 
C 1114 384 1178 342 1306 193 
C 1427 61 1536 -64 1741 -64 
C 2368 -64 2726 732 2726 876 
C 2726 903 2720 942 2656 942 
C 2605 942 2598 917 2579 855 
C 2438 488 2061 338 1811 338 
C 1677 338 1549 376 1414 425 
C 1158 512 1088 512 1005 512 
C 941 512 870 512 813 486 
z
" transform="scale(0.015625)"/>
       <path id="CMSY10-69" d="M 1747 1491 
C 1779 1568 1779 1581 1779 1600 
C 1779 1619 1779 1632 1747 1709 
L 627 4653 
C 589 4762 550 4800 480 4800 
C 410 4800 352 4742 352 4672 
C 352 4653 352 4640 384 4570 
L 1517 1600 
L 384 -1357 
C 352 -1427 352 -1440 352 -1472 
C 352 -1542 410 -1600 480 -1600 
C 563 -1600 589 -1536 614 -1472 
L 1747 1491 
z
" transform="scale(0.015625)"/>
      </defs>
      <use xlink:href="#CMSY10-68" transform="scale(0.996264)"/>
      <use xlink:href="#CMMI12-1b" transform="translate(38.743734 0) scale(0.996264)"/>
      <use xlink:href="#CMMI12-7a" transform="translate(94.189195 -14.943915) scale(0.697382)"/>
      <use xlink:href="#CMSY10-69" transform="translate(129.51575 0) scale(0.996264)"/>
     </g>
    </g>
    <g id="line2d_19">
     <path d="M 195.592605 175.601326 
L 204.592605 175.601326 
L 213.592605 175.601326 
" style="fill: none; stroke: #2ca02c; stroke-width: 0.5; stroke-linecap: square"/>
    </g>
    <g id="text_17">
     <!-- $\langle \sigma_x\rangle$ -->
     <g transform="translate(220.792605 178.751326) scale(0.09 -0.09)">
      <defs>
       <path id="CMMI12-78" d="M 3034 2606 
C 2829 2567 2752 2414 2752 2293 
C 2752 2139 2874 2088 2963 2088 
C 3155 2088 3290 2254 3290 2427 
C 3290 2695 2982 2816 2714 2816 
C 2323 2816 2106 2433 2048 2312 
C 1901 2816 1504 2816 1389 2816 
C 736 2816 390 1980 390 1839 
C 390 1814 416 1782 461 1782 
C 512 1782 525 1820 538 1846 
C 755 2555 1184 2689 1370 2689 
C 1658 2689 1715 2420 1715 2267 
C 1715 2127 1677 1980 1600 1673 
L 1382 798 
C 1286 415 1101 64 762 64 
C 730 64 570 64 435 147 
C 666 192 717 383 717 460 
C 717 588 621 664 499 664 
C 346 664 179 530 179 326 
C 179 57 480 -64 755 -64 
C 1062 -64 1280 179 1414 441 
C 1517 64 1837 -64 2074 -64 
C 2726 -64 3072 773 3072 913 
C 3072 945 3046 971 3008 971 
C 2950 971 2944 939 2925 888 
C 2752 326 2381 64 2093 64 
C 1869 64 1747 230 1747 492 
C 1747 632 1773 734 1875 1156 
L 2099 2024 
C 2195 2408 2413 2689 2707 2689 
C 2720 2689 2899 2689 3034 2606 
z
" transform="scale(0.015625)"/>
      </defs>
      <use xlink:href="#CMSY10-68" transform="scale(0.996264)"/>
      <use xlink:href="#CMMI12-1b" transform="translate(38.743734 0) scale(0.996264)"/>
      <use xlink:href="#CMMI12-78" transform="translate(94.189195 -14.943915) scale(0.697382)"/>
      <use xlink:href="#CMSY10-69" transform="translate(133.490986 0) scale(0.996264)"/>
     </g>
    </g>
    <g id="line2d_20">
     <path d="M 195.592605 189.067702 
L 204.592605 189.067702 
L 213.592605 189.067702 
" style="fill: none; stroke: #d62728; stroke-width: 0.5; stroke-linecap: square"/>
    </g>
    <g id="text_18">
     <!-- $\langle \sigma_y\rangle$ -->
     <g transform="translate(220.792605 192.217702) scale(0.09 -0.09)">
      <defs>
       <path id="CMMI12-79" d="M 1683 -700 
C 1510 -939 1261 -1152 947 -1152 
C 870 -1152 563 -1152 467 -889 
C 486 -895 518 -895 531 -895 
C 723 -895 851 -729 851 -582 
C 851 -435 730 -384 634 -384 
C 531 -384 307 -458 307 -759 
C 307 -1071 582 -1286 947 -1286 
C 1587 -1286 2234 -700 2413 6 
L 3040 2485 
C 3046 2517 3059 2556 3059 2594 
C 3059 2689 2982 2753 2886 2753 
C 2829 2753 2694 2727 2643 2535 
L 2170 658 
C 2138 543 2138 530 2086 460 
C 1958 281 1747 64 1440 64 
C 1082 64 1050 415 1050 588 
C 1050 952 1222 1443 1395 1903 
C 1466 2088 1504 2178 1504 2305 
C 1504 2574 1312 2816 998 2816 
C 410 2816 173 1890 173 1839 
C 173 1814 198 1782 243 1782 
C 301 1782 307 1807 333 1897 
C 486 2433 730 2689 979 2689 
C 1037 2689 1146 2689 1146 2478 
C 1146 2312 1075 2127 979 1884 
C 666 1047 666 837 666 683 
C 666 77 1101 -64 1421 -64 
C 1606 -64 1837 -6 2061 230 
L 2067 224 
C 1971 -147 1907 -392 1683 -700 
z
" transform="scale(0.015625)"/>
      </defs>
      <use xlink:href="#CMSY10-68" transform="scale(0.996264)"/>
      <use xlink:href="#CMMI12-1b" transform="translate(38.743734 0) scale(0.996264)"/>
      <use xlink:href="#CMMI12-79" transform="translate(94.189195 -14.943915) scale(0.697382)"/>
      <use xlink:href="#CMSY10-69" transform="translate(130.484301 0) scale(0.996264)"/>
     </g>
    </g>
   </g>
  </g>
 </g>
 <defs>
  <clipPath id="pfeadb1df47">
   <rect x="33.707196" y="7.2" width="212.292324" height="195.359296"/>
  </clipPath>
 </defs>
</svg>
