<?xml version="1.0" encoding="utf-8" standalone="no"?>
<!DOCTYPE svg PUBLIC "-//W3C//DTD SVG 1.1//EN"
  "http://www.w3.org/Graphics/SVG/1.1/DTD/svg11.dtd">
<svg xmlns:xlink="http://www.w3.org/1999/xlink" width="253.19952pt" height="238.79952pt" viewBox="0 0 253.19952 238.79952" xmlns="http://www.w3.org/2000/svg" version="1.1">
 <metadata>
  <rdf:RDF xmlns:dc="http://purl.org/dc/elements/1.1/" xmlns:cc="http://creativecommons.org/ns#" xmlns:rdf="http://www.w3.org/1999/02/22-rdf-syntax-ns#">
   <cc:Work>
    <dc:type rdf:resource="http://purl.org/dc/dcmitype/StillImage"/>
    <dc:date>1980-01-01T00:00:00+00:00</dc:date>
    <dc:format>image/svg+xml</dc:format>
    <dc:creator>
     <cc:Agent>
      <dc:title>Matplotlib v3.6.2, https://matplotlib.org/</dc:title>
     </cc:Agent>
    </dc:creator>
   </cc:Work>
  </rdf:RDF>
 </metadata>
 <defs>
  <style type="text/css">*{stroke-linejoin: round; stroke-linecap: butt}</style>
 </defs>
 <g id="figure_1">
  <g id="patch_1">
   <path d="M 0 238.79952 
L 253.19952 238.79952 
L 253.19952 0 
L 0 0 
z
" style="fill: #ffffff"/>
  </g>
  <g id="axes_1">
   <g id="patch_2">
    <path d="M 33.707196 202.559296 
L 245.99952 202.559296 
L 245.99952 7.2 
L 33.707196 7.2 
z
" style="fill: #ffffff"/>
   </g>
   <g id="matplotlib.axis_1">
    <g id="xtick_1">
     <g id="line2d_1">
      <defs>
       <path id="mf44ad13d0d" d="M 0 0 
L 0 3.5 
" style="stroke: #000000; stroke-width: 0.8"/>
      </defs>
      <g>
       <use xlink:href="#mf44ad13d0d" x="43.356847" y="202.559296" style="stroke: #000000; stroke-width: 0.8"/>
      </g>
     </g>
     <g id="text_1">
      <!-- $\mathdefault{0}$ -->
      <g transform="translate(41.239756 217.194098) scale(0.08 -0.08)">
       <defs>
        <path id="CMR17-30" d="M 2688 2025 
C 2688 2416 2682 3080 2413 3591 
C 2176 4039 1798 4198 1466 4198 
C 1158 4198 768 4058 525 3597 
C 269 3118 243 2524 243 2025 
C 243 1661 250 1106 448 619 
C 723 -39 1216 -128 1466 -128 
C 1760 -128 2208 -7 2470 600 
C 2662 1042 2688 1559 2688 2025 
z
M 1466 -26 
C 1056 -26 813 325 723 812 
C 653 1188 653 1738 653 2096 
C 653 2588 653 2997 736 3387 
C 858 3929 1216 4096 1466 4096 
C 1728 4096 2067 3923 2189 3400 
C 2272 3036 2278 2607 2278 2096 
C 2278 1680 2278 1169 2202 792 
C 2067 95 1690 -26 1466 -26 
z
" transform="scale(0.015625)"/>
       </defs>
       <use xlink:href="#CMR17-30" transform="scale(0.996264)"/>
      </g>
     </g>
    </g>
    <g id="xtick_2">
     <g id="line2d_2">
      <g>
       <use xlink:href="#mf44ad13d0d" x="70.161434" y="202.559296" style="stroke: #000000; stroke-width: 0.8"/>
      </g>
     </g>
     <g id="text_2">
      <!-- $\mathdefault{25}$ -->
      <g transform="translate(65.927251 217.194098) scale(0.08 -0.08)">
       <defs>
        <path id="CMR17-32" d="M 2669 989 
L 2554 989 
C 2490 536 2438 459 2413 420 
C 2381 369 1920 369 1830 369 
L 602 369 
C 832 619 1280 1072 1824 1597 
C 2214 1967 2669 2402 2669 3035 
C 2669 3790 2067 4224 1395 4224 
C 691 4224 262 3604 262 3030 
C 262 2780 448 2748 525 2748 
C 589 2748 781 2787 781 3010 
C 781 3207 614 3264 525 3264 
C 486 3264 448 3258 422 3245 
C 544 3790 915 4058 1306 4058 
C 1862 4058 2227 3617 2227 3035 
C 2227 2479 1901 2000 1536 1584 
L 262 146 
L 262 0 
L 2515 0 
L 2669 989 
z
" transform="scale(0.015625)"/>
        <path id="CMR17-35" d="M 730 3692 
C 794 3666 1056 3584 1325 3584 
C 1920 3584 2246 3911 2432 4100 
C 2432 4157 2432 4192 2394 4192 
C 2387 4192 2374 4192 2323 4163 
C 2099 4058 1837 3973 1517 3973 
C 1325 3973 1037 3999 723 4139 
C 653 4171 640 4171 634 4171 
C 602 4171 595 4164 595 4037 
L 595 2203 
C 595 2089 595 2057 659 2057 
C 691 2057 704 2070 736 2114 
C 941 2401 1222 2522 1542 2522 
C 1766 2522 2246 2382 2246 1289 
C 2246 1085 2246 715 2054 421 
C 1894 159 1645 25 1370 25 
C 947 25 518 320 403 814 
C 429 807 480 795 506 795 
C 589 795 749 840 749 1038 
C 749 1210 627 1280 506 1280 
C 358 1280 262 1190 262 1011 
C 262 454 704 -128 1382 -128 
C 2042 -128 2669 440 2669 1264 
C 2669 2030 2170 2624 1549 2624 
C 1222 2624 947 2503 730 2274 
L 730 3692 
z
" transform="scale(0.015625)"/>
       </defs>
       <use xlink:href="#CMR17-32" transform="scale(0.996264)"/>
       <use xlink:href="#CMR17-35" transform="translate(45.690477 0) scale(0.996264)"/>
      </g>
     </g>
    </g>
    <g id="xtick_3">
     <g id="line2d_3">
      <g>
       <use xlink:href="#mf44ad13d0d" x="96.96602" y="202.559296" style="stroke: #000000; stroke-width: 0.8"/>
      </g>
     </g>
     <g id="text_3">
      <!-- $\mathdefault{50}$ -->
      <g transform="translate(92.731837 217.194098) scale(0.08 -0.08)">
       <use xlink:href="#CMR17-35" transform="scale(0.996264)"/>
       <use xlink:href="#CMR17-30" transform="translate(45.690477 0) scale(0.996264)"/>
      </g>
     </g>
    </g>
    <g id="xtick_4">
     <g id="line2d_4">
      <g>
       <use xlink:href="#mf44ad13d0d" x="123.770606" y="202.559296" style="stroke: #000000; stroke-width: 0.8"/>
      </g>
     </g>
     <g id="text_4">
      <!-- $\mathdefault{75}$ -->
      <g transform="translate(119.536423 217.194098) scale(0.08 -0.08)">
       <defs>
        <path id="CMR17-37" d="M 2886 3941 
L 2886 4081 
L 1382 4081 
C 634 4081 621 4165 595 4288 
L 480 4288 
L 294 3094 
L 410 3094 
C 429 3215 474 3540 550 3661 
C 589 3712 1062 3712 1171 3712 
L 2579 3712 
L 1869 2661 
C 1395 1954 1069 999 1069 165 
C 1069 89 1069 -128 1299 -128 
C 1530 -128 1530 89 1530 171 
L 1530 465 
C 1530 1508 1709 2196 2003 2636 
L 2886 3941 
z
" transform="scale(0.015625)"/>
       </defs>
       <use xlink:href="#CMR17-37" transform="scale(0.996264)"/>
       <use xlink:href="#CMR17-35" transform="translate(45.690477 0) scale(0.996264)"/>
      </g>
     </g>
    </g>
    <g id="xtick_5">
     <g id="line2d_5">
      <g>
       <use xlink:href="#mf44ad13d0d" x="150.575193" y="202.559296" style="stroke: #000000; stroke-width: 0.8"/>
      </g>
     </g>
     <g id="text_5">
      <!-- $\mathdefault{100}$ -->
      <g transform="translate(144.223918 217.194098) scale(0.08 -0.08)">
       <defs>
        <path id="CMR17-31" d="M 1702 4058 
C 1702 4192 1696 4192 1606 4192 
C 1357 3916 979 3827 621 3827 
C 602 3827 570 3827 563 3808 
C 557 3795 557 3782 557 3648 
C 755 3648 1088 3686 1344 3839 
L 1344 461 
C 1344 236 1331 160 781 160 
L 589 160 
L 589 0 
C 896 0 1216 0 1523 0 
C 1830 0 2150 0 2458 0 
L 2458 160 
L 2266 160 
C 1715 160 1702 230 1702 458 
L 1702 4058 
z
" transform="scale(0.015625)"/>
       </defs>
       <use xlink:href="#CMR17-31" transform="scale(0.996264)"/>
       <use xlink:href="#CMR17-30" transform="translate(45.690477 0) scale(0.996264)"/>
       <use xlink:href="#CMR17-30" transform="translate(91.380954 0) scale(0.996264)"/>
      </g>
     </g>
    </g>
    <g id="xtick_6">
     <g id="line2d_6">
      <g>
       <use xlink:href="#mf44ad13d0d" x="177.379779" y="202.559296" style="stroke: #000000; stroke-width: 0.8"/>
      </g>
     </g>
     <g id="text_6">
      <!-- $\mathdefault{125}$ -->
      <g transform="translate(171.028505 217.194098) scale(0.08 -0.08)">
       <use xlink:href="#CMR17-31" transform="scale(0.996264)"/>
       <use xlink:href="#CMR17-32" transform="translate(45.690477 0) scale(0.996264)"/>
       <use xlink:href="#CMR17-35" transform="translate(91.380954 0) scale(0.996264)"/>
      </g>
     </g>
    </g>
    <g id="xtick_7">
     <g id="line2d_7">
      <g>
       <use xlink:href="#mf44ad13d0d" x="204.184365" y="202.559296" style="stroke: #000000; stroke-width: 0.8"/>
      </g>
     </g>
     <g id="text_7">
      <!-- $\mathdefault{150}$ -->
      <g transform="translate(197.833091 217.194098) scale(0.08 -0.08)">
       <use xlink:href="#CMR17-31" transform="scale(0.996264)"/>
       <use xlink:href="#CMR17-35" transform="translate(45.690477 0) scale(0.996264)"/>
       <use xlink:href="#CMR17-30" transform="translate(91.380954 0) scale(0.996264)"/>
      </g>
     </g>
    </g>
    <g id="xtick_8">
     <g id="line2d_8">
      <g>
       <use xlink:href="#mf44ad13d0d" x="230.988952" y="202.559296" style="stroke: #000000; stroke-width: 0.8"/>
      </g>
     </g>
     <g id="text_8">
      <!-- $\mathdefault{175}$ -->
      <g transform="translate(224.637677 217.194098) scale(0.08 -0.08)">
       <use xlink:href="#CMR17-31" transform="scale(0.996264)"/>
       <use xlink:href="#CMR17-37" transform="translate(45.690477 0) scale(0.996264)"/>
       <use xlink:href="#CMR17-35" transform="translate(91.380954 0) scale(0.996264)"/>
      </g>
     </g>
    </g>
    <g id="text_9">
     <!-- $\tau$ -->
     <g transform="translate(137.675756 229.662342) scale(0.1 -0.1)">
      <defs>
       <path id="CMMI12-1c" d="M 1837 2408 
L 2899 2408 
C 2982 2408 3194 2408 3194 2612 
C 3194 2752 3072 2752 2957 2752 
L 1197 2752 
C 1050 2752 832 2752 538 2440 
C 371 2255 166 1917 166 1879 
C 166 1841 198 1828 237 1828 
C 282 1828 288 1847 320 1885 
C 653 2408 986 2408 1146 2408 
L 1677 2408 
L 1011 223 
C 979 127 979 114 979 95 
C 979 25 1024 -64 1152 -64 
C 1350 -64 1382 108 1402 203 
L 1837 2408 
z
" transform="scale(0.015625)"/>
      </defs>
      <use xlink:href="#CMMI12-1c" transform="scale(0.996264)"/>
     </g>
    </g>
   </g>
   <g id="matplotlib.axis_2">
    <g id="ytick_1">
     <g id="line2d_9">
      <defs>
       <path id="ma8ce632968" d="M 0 0 
L -3.5 0 
" style="stroke: #000000; stroke-width: 0.8"/>
      </defs>
      <g>
       <use xlink:href="#ma8ce632968" x="33.707196" y="193.679328" style="stroke: #000000; stroke-width: 0.8"/>
      </g>
     </g>
     <g id="text_10">
      <!-- $\mathdefault{−1.0}$ -->
      <g transform="translate(7.2 196.446729) scale(0.08 -0.08)">
       <defs>
        <path id="CMSY10-0" d="M 4218 1472 
C 4326 1472 4442 1472 4442 1600 
C 4442 1728 4326 1728 4218 1728 
L 755 1728 
C 646 1728 531 1728 531 1600 
C 531 1472 646 1472 755 1472 
L 4218 1472 
z
" transform="scale(0.015625)"/>
        <path id="CMMI12-3a" d="M 1178 307 
C 1178 492 1024 619 870 619 
C 685 619 557 466 557 313 
C 557 128 710 0 864 0 
C 1050 0 1178 153 1178 307 
z
" transform="scale(0.015625)"/>
       </defs>
       <use xlink:href="#CMSY10-0" transform="scale(0.996264)"/>
       <use xlink:href="#CMR17-31" transform="translate(77.487468 0) scale(0.996264)"/>
       <use xlink:href="#CMMI12-3a" transform="translate(123.177945 0) scale(0.996264)"/>
       <use xlink:href="#CMR17-30" transform="translate(150.275122 0) scale(0.996264)"/>
      </g>
     </g>
    </g>
    <g id="ytick_2">
     <g id="line2d_10">
      <g>
       <use xlink:href="#ma8ce632968" x="33.707196" y="158.328711" style="stroke: #000000; stroke-width: 0.8"/>
      </g>
     </g>
     <g id="text_11">
      <!-- $\mathdefault{−0.8}$ -->
      <g transform="translate(7.2 161.096111) scale(0.08 -0.08)">
       <defs>
        <path id="CMR17-38" d="M 1741 2264 
C 2144 2467 2554 2773 2554 3263 
C 2554 3841 1990 4179 1472 4179 
C 890 4179 378 3759 378 3180 
C 378 3021 416 2747 666 2505 
C 730 2442 998 2251 1171 2130 
C 883 1983 211 1634 211 934 
C 211 279 838 -128 1459 -128 
C 2144 -128 2720 362 2720 1010 
C 2720 1590 2330 1857 2074 2029 
L 1741 2264 
z
M 902 2822 
C 851 2854 595 3051 595 3351 
C 595 3739 998 4032 1459 4032 
C 1965 4032 2336 3676 2336 3262 
C 2336 2669 1670 2331 1638 2331 
C 1632 2331 1626 2331 1574 2370 
L 902 2822 
z
M 2080 1519 
C 2176 1449 2483 1240 2483 851 
C 2483 381 2010 25 1472 25 
C 890 25 448 438 448 940 
C 448 1443 838 1862 1280 2060 
L 2080 1519 
z
" transform="scale(0.015625)"/>
       </defs>
       <use xlink:href="#CMSY10-0" transform="scale(0.996264)"/>
       <use xlink:href="#CMR17-30" transform="translate(77.487468 0) scale(0.996264)"/>
       <use xlink:href="#CMMI12-3a" transform="translate(123.177945 0) scale(0.996264)"/>
       <use xlink:href="#CMR17-38" transform="translate(150.275122 0) scale(0.996264)"/>
      </g>
     </g>
    </g>
    <g id="ytick_3">
     <g id="line2d_11">
      <g>
       <use xlink:href="#ma8ce632968" x="33.707196" y="122.978093" style="stroke: #000000; stroke-width: 0.8"/>
      </g>
     </g>
     <g id="text_12">
      <!-- $\mathdefault{−0.6}$ -->
      <g transform="translate(7.2 125.745494) scale(0.08 -0.08)">
       <defs>
        <path id="CMR17-36" d="M 678 2176 
C 678 3690 1395 4032 1811 4032 
C 1946 4032 2272 4009 2400 3776 
C 2298 3776 2106 3776 2106 3553 
C 2106 3381 2246 3323 2336 3323 
C 2394 3323 2566 3348 2566 3560 
C 2566 3954 2246 4179 1805 4179 
C 1043 4179 243 3390 243 1984 
C 243 253 966 -128 1478 -128 
C 2099 -128 2688 427 2688 1283 
C 2688 2081 2170 2662 1517 2662 
C 1126 2662 838 2407 678 1960 
L 678 2176 
z
M 1478 25 
C 691 25 691 1200 691 1436 
C 691 1896 909 2560 1504 2560 
C 1613 2560 1926 2560 2138 2120 
C 2253 1870 2253 1609 2253 1289 
C 2253 944 2253 690 2118 434 
C 1978 171 1773 25 1478 25 
z
" transform="scale(0.015625)"/>
       </defs>
       <use xlink:href="#CMSY10-0" transform="scale(0.996264)"/>
       <use xlink:href="#CMR17-30" transform="translate(77.487468 0) scale(0.996264)"/>
       <use xlink:href="#CMMI12-3a" transform="translate(123.177945 0) scale(0.996264)"/>
       <use xlink:href="#CMR17-36" transform="translate(150.275122 0) scale(0.996264)"/>
      </g>
     </g>
    </g>
    <g id="ytick_4">
     <g id="line2d_12">
      <g>
       <use xlink:href="#ma8ce632968" x="33.707196" y="87.627476" style="stroke: #000000; stroke-width: 0.8"/>
      </g>
     </g>
     <g id="text_13">
      <!-- $\mathdefault{−0.4}$ -->
      <g transform="translate(7.2 90.394877) scale(0.08 -0.08)">
       <defs>
        <path id="CMR17-34" d="M 2150 4122 
C 2150 4256 2144 4256 2029 4256 
L 128 1254 
L 128 1088 
L 1779 1088 
L 1779 457 
C 1779 224 1766 160 1318 160 
L 1197 160 
L 1197 0 
C 1402 0 1747 0 1965 0 
C 2182 0 2528 0 2733 0 
L 2733 160 
L 2611 160 
C 2163 160 2150 224 2150 457 
L 2150 1088 
L 2803 1088 
L 2803 1254 
L 2150 1254 
L 2150 4122 
z
M 1798 3703 
L 1798 1254 
L 256 1254 
L 1798 3703 
z
" transform="scale(0.015625)"/>
       </defs>
       <use xlink:href="#CMSY10-0" transform="scale(0.996264)"/>
       <use xlink:href="#CMR17-30" transform="translate(77.487468 0) scale(0.996264)"/>
       <use xlink:href="#CMMI12-3a" transform="translate(123.177945 0) scale(0.996264)"/>
       <use xlink:href="#CMR17-34" transform="translate(150.275122 0) scale(0.996264)"/>
      </g>
     </g>
    </g>
    <g id="ytick_5">
     <g id="line2d_13">
      <g>
       <use xlink:href="#ma8ce632968" x="33.707196" y="52.276859" style="stroke: #000000; stroke-width: 0.8"/>
      </g>
     </g>
     <g id="text_14">
      <!-- $\mathdefault{−0.2}$ -->
      <g transform="translate(7.2 55.04426) scale(0.08 -0.08)">
       <use xlink:href="#CMSY10-0" transform="scale(0.996264)"/>
       <use xlink:href="#CMR17-30" transform="translate(77.487468 0) scale(0.996264)"/>
       <use xlink:href="#CMMI12-3a" transform="translate(123.177945 0) scale(0.996264)"/>
       <use xlink:href="#CMR17-32" transform="translate(150.275122 0) scale(0.996264)"/>
      </g>
     </g>
    </g>
    <g id="ytick_6">
     <g id="line2d_14">
      <g>
       <use xlink:href="#ma8ce632968" x="33.707196" y="16.926242" style="stroke: #000000; stroke-width: 0.8"/>
      </g>
     </g>
     <g id="text_15">
      <!-- $\mathdefault{0.0}$ -->
      <g transform="translate(13.786507 19.693643) scale(0.08 -0.08)">
       <use xlink:href="#CMR17-30" transform="scale(0.996264)"/>
       <use xlink:href="#CMMI12-3a" transform="translate(45.690477 0) scale(0.996264)"/>
       <use xlink:href="#CMR17-30" transform="translate(72.787654 0) scale(0.996264)"/>
      </g>
     </g>
    </g>
   </g>
   <g id="line2d_15">
    <path d="M 43.356847 193.679328 
L 43.421178 193.393166 
L 43.54984 191.187646 
L 43.871495 179.138543 
L 44.514805 154.030177 
L 44.900791 146.528383 
L 45.158115 144.720074 
L 45.286777 144.629723 
L 45.415439 145.002216 
L 45.672764 146.870355 
L 46.251743 153.823521 
L 46.830722 159.811552 
L 47.216708 161.779749 
L 47.538363 162.45942 
L 47.860018 162.725176 
L 48.374666 162.975453 
L 48.696321 163.548599 
L 50.304596 167.060551 
L 52.427519 169.149368 
L 53.328153 170.692118 
L 53.649808 170.854689 
L 53.842801 170.730047 
L 54.035794 170.348482 
L 54.293118 169.289099 
L 54.614774 166.927454 
L 55.00076 162.475171 
L 55.515408 153.54759 
L 56.609035 129.133578 
L 57.638331 108.683276 
L 58.410303 96.969566 
L 59.117944 89.550952 
L 60.082909 81.551871 
L 60.983543 76.135985 
L 61.691184 72.707826 
L 62.977804 68.218418 
L 63.878439 66.153967 
L 64.521749 65.032582 
L 65.8727 63.243079 
L 66.451679 62.629099 
L 67.352313 61.719857 
L 68.44594 61.28941 
L 68.831926 61.208675 
L 70.054215 60.512992 
L 71.01918 60.557067 
L 71.984145 60.325073 
L 73.849745 60.531965 
L 74.235731 60.676054 
L 74.557386 60.463729 
L 75.200696 59.933665 
L 75.715344 59.981264 
L 76.036999 59.942784 
L 76.358654 59.653495 
L 76.873302 58.888579 
L 77.259288 57.861448 
L 77.709605 55.815575 
L 78.352915 51.771992 
L 79.31788 45.429852 
L 80.025521 42.345801 
L 80.540169 41.078622 
L 80.926155 40.60371 
L 81.762459 40.095164 
L 82.405769 40.019474 
L 83.11341 40.00162 
L 84.40003 39.209737 
L 84.721685 39.257903 
L 85.172002 39.5657 
L 86.072636 40.553986 
L 86.522953 41.423123 
L 87.037601 43.033385 
L 87.487918 45.127053 
L 88.002566 48.797591 
L 88.581545 54.602113 
L 89.353517 65.056842 
L 90.961793 87.419756 
L 91.926758 97.787827 
L 92.827392 105.092758 
L 93.792357 110.668859 
L 94.692991 114.787365 
L 95.464963 117.512542 
L 96.301266 119.669942 
L 97.137569 121.368281 
L 97.84521 122.371211 
L 99.196162 123.756742 
L 100.933099 124.859581 
L 103.956656 125.983229 
L 104.599966 125.958032 
L 106.336903 125.73349 
L 107.494861 125.875514 
L 108.331165 126.026386 
L 108.588489 126.268197 
L 108.845813 126.861616 
L 109.167468 128.23703 
L 109.553454 131.001175 
L 110.068102 136.647831 
L 111.097398 148.629041 
L 111.612046 152.038166 
L 112.191025 154.312026 
L 113.15599 157.681529 
L 114.056624 160.838888 
L 114.764265 162.520801 
L 117.852154 168.549082 
L 118.109478 168.664125 
L 118.302471 168.454597 
L 118.559795 167.642407 
L 118.88145 165.640884 
L 119.267436 161.536167 
L 119.782084 153.134991 
L 120.618387 135.12736 
L 121.840676 109.624213 
L 122.612648 98.093074 
L 123.448951 88.100518 
L 124.156592 82.600767 
L 124.992895 77.279838 
L 126.53684 69.932529 
L 127.952122 65.731826 
L 128.402439 64.882581 
L 129.624728 63.453477 
L 130.203707 62.687675 
L 130.589693 62.313857 
L 130.975679 62.296659 
L 131.297334 62.19867 
L 132.776947 60.912388 
L 133.291595 61.084933 
L 133.934905 61.146056 
L 135.47885 60.606087 
L 135.993498 60.367665 
L 137.087125 60.354142 
L 137.859097 60.363356 
L 138.373745 60.453871 
L 138.759731 60.463394 
L 139.33871 60.380054 
L 139.789027 60.257986 
L 140.62533 59.816382 
L 141.011316 59.609408 
L 141.332971 59.171909 
L 141.654626 58.22116 
L 142.104943 55.874208 
L 142.812584 50.68596 
L 143.520225 46.212456 
L 144.099205 43.735125 
L 144.549522 42.698875 
L 145.70748 40.945314 
L 146.35079 40.502514 
L 147.058431 40.136497 
L 147.508748 40.110408 
L 148.023396 40.182855 
L 148.473713 40.287258 
L 148.795368 40.013662 
L 149.181354 39.741932 
L 149.438678 39.88871 
L 150.660967 41.282389 
L 151.175615 42.534997 
L 151.625932 44.222988 
L 152.076249 46.905001 
L 152.590898 51.299248 
L 153.298539 59.636877 
L 156.129103 96.448518 
L 157.029737 104.115288 
L 157.801709 109.26368 
L 158.766674 114.07018 
L 159.667308 117.303564 
L 160.43928 119.453128 
L 161.66157 121.954889 
L 162.626535 123.322827 
L 163.527169 124.210002 
L 164.106148 124.447522 
L 165.071113 124.909824 
L 166.100409 125.537109 
L 166.615057 125.740011 
L 170.474918 126.207533 
L 171.697207 126.638827 
L 172.147524 126.479145 
L 172.597841 126.364848 
L 172.855165 126.502291 
L 173.112489 126.925989 
L 173.434144 128.073663 
L 173.755799 130.131757 
L 174.206116 134.581911 
L 175.75006 151.454455 
L 176.329039 154.061032 
L 178.130307 160.196871 
L 178.837948 162.125322 
L 179.867245 164.238349 
L 180.960872 166.294878 
L 182.054499 168.730397 
L 182.311823 168.915743 
L 182.504816 168.816952 
L 182.697809 168.440249 
L 182.955133 167.408004 
L 183.276788 165.152441 
L 183.662774 160.793995 
L 184.177422 152.069217 
L 185.399711 125.666547 
L 186.493338 104.486098 
L 187.26531 94.142476 
L 187.972951 87.053175 
L 188.809255 81.280542 
L 190.160206 73.578834 
L 190.932178 70.406197 
L 192.090136 66.7671 
L 192.797777 65.32202 
L 193.505418 64.269249 
L 194.27739 62.883873 
L 194.727707 62.631379 
L 195.499679 62.468135 
L 196.593306 61.517844 
L 197.172286 61.400089 
L 197.751265 61.098693 
L 198.71623 61.108946 
L 200.517498 59.865941 
L 201.93278 59.451207 
L 203.283731 59.483343 
L 204.055703 58.957884 
L 204.441689 59.152855 
L 204.827675 59.354717 
L 205.084999 59.2193 
L 205.470985 58.617198 
L 205.856971 57.639471 
L 206.242958 55.913099 
L 208.558874 42.87861 
L 209.716832 40.22445 
L 210.038487 39.971106 
L 210.617466 39.648592 
L 212.032748 38.437494 
L 212.483065 38.548022 
L 213.512361 38.909428 
L 215.120637 40.956414 
L 215.635285 42.468433 
L 216.085602 44.513641 
L 216.60025 47.915923 
L 217.179229 53.437115 
L 217.88687 62.562301 
L 219.881131 89.803637 
L 220.910427 100.419025 
L 221.682399 106.298101 
L 222.583033 111.480131 
L 223.483667 115.407234 
L 224.384302 118.212565 
L 225.413598 120.702126 
L 226.314232 122.203261 
L 226.957542 123.019546 
L 227.986838 123.937997 
L 228.694479 124.382309 
L 229.40212 124.833338 
L 230.367085 125.343993 
L 232.104022 125.69107 
L 233.068988 126.160959 
L 233.84096 126.09428 
L 235.256242 125.909274 
L 235.899552 125.814957 
L 236.349869 125.792044 
L 236.349869 125.792044 
" clip-path="url(#p3e8a1fcd7f)" style="fill: none; stroke: #1f77b4; stroke-width: 0.5; stroke-linecap: square"/>
   </g>
   <g id="line2d_16">
    <path d="M 43.356847 16.926242 
L 44.128819 16.613178 
L 45.093784 16.529832 
L 48.889314 16.597095 
L 55.579739 16.548006 
L 58.603296 16.438207 
L 75.329358 16.421069 
L 110.968736 16.538455 
L 117.208844 16.613012 
L 120.039408 16.534948 
L 123.127296 16.435649 
L 137.923428 16.420915 
L 174.270447 16.502021 
L 180.639217 16.604235 
L 184.434746 16.531072 
L 187.522634 16.435678 
L 205.406654 16.420069 
L 236.349869 16.478254 
L 236.349869 16.478254 
" clip-path="url(#p3e8a1fcd7f)" style="fill: none; stroke: #ff7f0e; stroke-width: 0.5; stroke-linecap: square"/>
   </g>
   <g id="line2d_17">
    <path d="M 43.356847 16.926242 
L 44.450474 17.162461 
L 45.672764 17.11052 
L 46.637729 17.1966 
L 47.474032 17.067198 
L 49.146638 16.87501 
L 50.368927 17.074158 
L 51.655547 16.804342 
L 52.234526 16.738031 
L 52.942167 16.895494 
L 53.842801 17.186811 
L 54.743436 17.126146 
L 58.088648 16.503145 
L 59.375268 17.028986 
L 59.761254 16.897424 
L 60.404564 16.660501 
L 60.983543 16.608258 
L 62.591818 16.853962 
L 63.106466 16.935863 
L 63.814108 16.747367 
L 64.521749 16.58453 
L 64.907735 16.89128 
L 65.486714 17.345789 
L 66.451679 17.571735 
L 66.837665 17.336997 
L 67.352313 17.026689 
L 67.995623 17.001496 
L 68.896257 17.182397 
L 69.346574 16.881078 
L 69.925553 16.516466 
L 70.311539 16.482767 
L 71.083511 16.600135 
L 71.855483 16.698185 
L 72.370132 16.85082 
L 72.949111 17.061144 
L 73.270766 16.9274 
L 74.107069 16.446028 
L 74.428724 16.709359 
L 75.007703 17.24055 
L 75.329358 17.275088 
L 76.10133 16.997495 
L 76.873302 16.618115 
L 77.452281 16.725361 
L 78.610239 17.045287 
L 79.382211 17.214754 
L 79.896859 17.394929 
L 80.797493 17.402183 
L 81.955452 17.734132 
L 82.341438 17.544768 
L 82.920417 17.20813 
L 84.657354 16.977088 
L 85.300664 17.154382 
L 86.587284 17.632542 
L 87.294925 17.428501 
L 88.9032 16.735562 
L 90.382814 16.573369 
L 91.862427 17.074564 
L 92.505737 17.179926 
L 93.020385 17.233641 
L 93.470702 17.076169 
L 94.821653 16.212469 
L 95.91528 16.184246 
L 97.394893 16.649612 
L 99.196162 17.800151 
L 99.582148 17.806523 
L 100.161127 17.52776 
L 100.804437 17.140754 
L 101.319085 16.818299 
L 101.898064 16.77924 
L 102.605705 16.868487 
L 103.313346 16.998405 
L 105.757924 16.541804 
L 106.336903 16.412406 
L 108.266834 16.437995 
L 110.518419 17.276979 
L 111.033067 17.003141 
L 111.419053 16.898097 
L 113.15599 16.878175 
L 114.056624 16.904178 
L 114.635603 16.924734 
L 116.115216 17.056218 
L 117.080182 16.681771 
L 118.109478 16.640227 
L 119.396098 17.060189 
L 119.846415 16.964023 
L 120.747049 16.655175 
L 121.261697 16.82512 
L 121.776345 16.980818 
L 122.162331 16.859497 
L 122.998634 16.395722 
L 123.320289 16.536089 
L 124.285254 17.07354 
L 124.67124 17.015073 
L 125.250219 16.902499 
L 125.636205 17.029145 
L 126.53684 17.421665 
L 126.858495 17.194626 
L 127.630467 16.536635 
L 128.209446 16.457282 
L 128.595432 16.575444 
L 130.139376 17.308657 
L 130.911348 17.183378 
L 131.876313 16.75239 
L 132.455292 16.408348 
L 132.776947 16.517662 
L 133.934905 17.384739 
L 134.192229 17.237959 
L 134.642546 16.639495 
L 135.028533 16.210651 
L 135.221526 16.213321 
L 135.47885 16.50157 
L 136.250822 17.639438 
L 136.508146 17.679245 
L 136.829801 17.445458 
L 137.794766 16.379433 
L 138.180752 16.561034 
L 138.759731 16.87662 
L 139.33871 16.789642 
L 140.432337 16.515099 
L 141.075647 16.760352 
L 142.619591 17.476375 
L 144.678184 17.187227 
L 146.029135 16.528178 
L 146.801107 16.079968 
L 147.187093 16.210644 
L 148.538044 16.883525 
L 150.982622 16.58905 
L 152.269242 16.801684 
L 153.298539 17.082354 
L 154.070511 17.233486 
L 155.035476 17.379059 
L 155.807448 17.179027 
L 159.023998 16.583649 
L 160.117625 16.599866 
L 160.889597 16.720217 
L 161.404245 16.789183 
L 162.755197 16.744603 
L 164.87812 17.149945 
L 165.778754 16.941391 
L 167.065374 16.508748 
L 169.38129 17.099338 
L 169.831607 16.998631 
L 170.410587 16.904321 
L 171.504214 16.741244 
L 173.369813 16.366315 
L 173.755799 16.50279 
L 174.399109 17.065263 
L 174.849426 17.325359 
L 175.235412 17.276431 
L 175.685729 16.999223 
L 176.522032 16.42301 
L 176.908018 16.460202 
L 177.294004 16.750988 
L 177.872983 17.184231 
L 179.030941 17.294205 
L 179.481259 17.103054 
L 180.253231 16.751807 
L 180.703548 16.844661 
L 181.668513 17.115959 
L 182.183161 17.095008 
L 183.212457 16.637968 
L 183.920098 16.450219 
L 184.499077 16.572262 
L 185.464042 16.79226 
L 185.850028 16.56697 
L 186.557669 16.17211 
L 186.814993 16.205342 
L 187.136648 16.518228 
L 187.779958 17.183845 
L 188.230276 17.297702 
L 188.616262 17.178666 
L 189.77422 16.524059 
L 190.353199 16.812971 
L 190.932178 17.099049 
L 191.382495 17.034986 
L 191.832812 16.997151 
L 192.862108 17.013788 
L 193.698411 16.872569 
L 195.242355 17.539764 
L 195.628341 17.459696 
L 196.786299 16.914551 
L 197.42961 17.041864 
L 197.879927 17.122937 
L 198.523237 16.817358 
L 199.166547 16.612168 
L 199.616864 16.816751 
L 200.131512 17.010498 
L 200.581829 16.936848 
L 201.418132 16.681019 
L 201.93278 16.865051 
L 202.57609 17.033211 
L 204.184365 17.167006 
L 204.634682 16.870542 
L 205.14933 16.506436 
L 205.406654 16.548614 
L 205.728309 16.839944 
L 206.307289 17.380127 
L 206.757606 17.416081 
L 207.529578 17.525508 
L 208.816198 17.5604 
L 210.360142 17.212387 
L 211.646762 16.755863 
L 213.255037 17.287204 
L 214.09134 17.277948 
L 215.699616 17.000682 
L 216.857574 16.533687 
L 217.758208 16.551081 
L 218.208525 16.480979 
L 218.787504 16.379769 
L 219.17349 16.491529 
L 220.46011 17.158088 
L 220.974758 17.251353 
L 222.132716 17.215951 
L 222.583033 17.098256 
L 223.290674 17.275604 
L 226.764549 17.670409 
L 227.279197 17.407765 
L 228.051169 16.934024 
L 230.109761 16.477849 
L 231.203388 16.647353 
L 231.718036 16.64755 
L 232.490008 16.588908 
L 233.326312 16.855574 
L 234.741594 17.3747 
L 235.577897 17.365726 
L 236.349869 17.036736 
L 236.349869 17.036736 
" clip-path="url(#p3e8a1fcd7f)" style="fill: none; stroke: #2ca02c; stroke-width: 0.5; stroke-linecap: square"/>
   </g>
   <g id="patch_3">
    <path d="M 33.707196 202.559296 
L 33.707196 7.2 
" style="fill: none; stroke: #000000; stroke-width: 0.8; stroke-linejoin: miter; stroke-linecap: square"/>
   </g>
   <g id="patch_4">
    <path d="M 245.99952 202.559296 
L 245.99952 7.2 
" style="fill: none; stroke: #000000; stroke-width: 0.8; stroke-linejoin: miter; stroke-linecap: square"/>
   </g>
   <g id="patch_5">
    <path d="M 33.707196 202.559296 
L 245.99952 202.559296 
" style="fill: none; stroke: #000000; stroke-width: 0.8; stroke-linejoin: miter; stroke-linecap: square"/>
   </g>
   <g id="patch_6">
    <path d="M 33.707196 7.2 
L 245.99952 7.2 
" style="fill: none; stroke: #000000; stroke-width: 0.8; stroke-linejoin: miter; stroke-linecap: square"/>
   </g>
   <g id="legend_1">
    <g id="patch_7">
     <path d="M 193.792605 198.059296 
L 239.69952 198.059296 
Q 241.49952 198.059296 241.49952 196.259296 
L 241.49952 156.760168 
Q 241.49952 154.960168 239.69952 154.960168 
L 193.792605 154.960168 
Q 191.992605 154.960168 191.992605 156.760168 
L 191.992605 196.259296 
Q 191.992605 198.059296 193.792605 198.059296 
z
" style="fill: #ffffff; opacity: 0.8; stroke: #cccccc; stroke-width: 0.24; stroke-linejoin: miter"/>
    </g>
    <g id="line2d_18">
     <path d="M 195.592605 162.13495 
L 204.592605 162.13495 
L 213.592605 162.13495 
" style="fill: none; stroke: #1f77b4; stroke-width: 0.5; stroke-linecap: square"/>
    </g>
    <g id="text_16">
     <!-- $\langle \sigma_z\rangle$ -->
     <g transform="translate(220.792605 165.28495) scale(0.09 -0.09)">
      <defs>
       <path id="CMSY10-68" d="M 2099 4557 
C 2131 4627 2131 4640 2131 4672 
C 2131 4742 2074 4800 2003 4800 
C 1946 4800 1901 4768 1856 4653 
L 736 1715 
C 723 1677 704 1638 704 1600 
C 704 1581 704 1568 736 1491 
L 1856 -1446 
C 1882 -1517 1914 -1600 2003 -1600 
C 2074 -1600 2131 -1542 2131 -1472 
C 2131 -1453 2131 -1440 2099 -1370 
L 966 1600 
L 2099 4557 
z
" transform="scale(0.015625)"/>
       <path id="CMMI12-1b" d="M 3251 2408 
C 3334 2408 3546 2408 3546 2612 
C 3546 2752 3424 2752 3309 2752 
L 1894 2752 
C 934 2752 243 1686 243 932 
C 243 390 595 -64 1171 -64 
C 1926 -64 2752 747 2752 1705 
C 2752 1954 2694 2196 2541 2408 
L 3251 2408 
z
M 1178 64 
C 851 64 614 313 614 754 
C 614 1137 845 2408 1786 2408 
C 2061 2408 2368 2274 2368 1781 
C 2368 1558 2266 1021 2042 652 
C 1811 275 1466 64 1178 64 
z
" transform="scale(0.015625)"/>
       <path id="CMMI12-7a" d="M 813 486 
C 1088 803 1312 1004 1632 1296 
C 2016 1632 2182 1793 2272 1891 
C 2720 2338 2944 2713 2944 2764 
C 2944 2816 2893 2816 2880 2816 
C 2835 2816 2822 2793 2790 2750 
C 2630 2494 2477 2367 2310 2367 
C 2176 2367 2106 2421 1984 2565 
C 1850 2715 1741 2816 1555 2816 
C 1088 2816 806 2257 806 2128 
C 806 2108 813 2068 870 2068 
C 922 2068 928 2091 947 2133 
C 1056 2372 1363 2414 1485 2414 
C 1619 2414 1747 2376 1882 2327 
C 2125 2240 2227 2240 2291 2240 
C 2336 2240 2362 2240 2394 2246 
C 2182 1994 1837 1683 1549 1418 
L 902 816 
C 512 415 275 33 275 -12 
C 275 -51 307 -64 346 -64 
C 384 -64 390 -57 435 14 
C 538 163 742 384 979 384 
C 1114 384 1178 342 1306 193 
C 1427 61 1536 -64 1741 -64 
C 2368 -64 2726 732 2726 876 
C 2726 903 2720 942 2656 942 
C 2605 942 2598 917 2579 855 
C 2438 488 2061 338 1811 338 
C 1677 338 1549 376 1414 425 
C 1158 512 1088 512 1005 512 
C 941 512 870 512 813 486 
z
" transform="scale(0.015625)"/>
       <path id="CMSY10-69" d="M 1747 1491 
C 1779 1568 1779 1581 1779 1600 
C 1779 1619 1779 1632 1747 1709 
L 627 4653 
C 589 4762 550 4800 480 4800 
C 410 4800 352 4742 352 4672 
C 352 4653 352 4640 384 4570 
L 1517 1600 
L 384 -1357 
C 352 -1427 352 -1440 352 -1472 
C 352 -1542 410 -1600 480 -1600 
C 563 -1600 589 -1536 614 -1472 
L 1747 1491 
z
" transform="scale(0.015625)"/>
      </defs>
      <use xlink:href="#CMSY10-68" transform="scale(0.996264)"/>
      <use xlink:href="#CMMI12-1b" transform="translate(38.743734 0) scale(0.996264)"/>
      <use xlink:href="#CMMI12-7a" transform="translate(94.189195 -14.943915) scale(0.697382)"/>
      <use xlink:href="#CMSY10-69" transform="translate(129.51575 0) scale(0.996264)"/>
     </g>
    </g>
    <g id="line2d_19">
     <path d="M 195.592605 175.601326 
L 204.592605 175.601326 
L 213.592605 175.601326 
" style="fill: none; stroke: #ff7f0e; stroke-width: 0.5; stroke-linecap: square"/>
    </g>
    <g id="text_17">
     <!-- $\langle \sigma_x\rangle$ -->
     <g transform="translate(220.792605 178.751326) scale(0.09 -0.09)">
      <defs>
       <path id="CMMI12-78" d="M 3034 2606 
C 2829 2567 2752 2414 2752 2293 
C 2752 2139 2874 2088 2963 2088 
C 3155 2088 3290 2254 3290 2427 
C 3290 2695 2982 2816 2714 2816 
C 2323 2816 2106 2433 2048 2312 
C 1901 2816 1504 2816 1389 2816 
C 736 2816 390 1980 390 1839 
C 390 1814 416 1782 461 1782 
C 512 1782 525 1820 538 1846 
C 755 2555 1184 2689 1370 2689 
C 1658 2689 1715 2420 1715 2267 
C 1715 2127 1677 1980 1600 1673 
L 1382 798 
C 1286 415 1101 64 762 64 
C 730 64 570 64 435 147 
C 666 192 717 383 717 460 
C 717 588 621 664 499 664 
C 346 664 179 530 179 326 
C 179 57 480 -64 755 -64 
C 1062 -64 1280 179 1414 441 
C 1517 64 1837 -64 2074 -64 
C 2726 -64 3072 773 3072 913 
C 3072 945 3046 971 3008 971 
C 2950 971 2944 939 2925 888 
C 2752 326 2381 64 2093 64 
C 1869 64 1747 230 1747 492 
C 1747 632 1773 734 1875 1156 
L 2099 2024 
C 2195 2408 2413 2689 2707 2689 
C 2720 2689 2899 2689 3034 2606 
z
" transform="scale(0.015625)"/>
      </defs>
      <use xlink:href="#CMSY10-68" transform="scale(0.996264)"/>
      <use xlink:href="#CMMI12-1b" transform="translate(38.743734 0) scale(0.996264)"/>
      <use xlink:href="#CMMI12-78" transform="translate(94.189195 -14.943915) scale(0.697382)"/>
      <use xlink:href="#CMSY10-69" transform="translate(133.490986 0) scale(0.996264)"/>
     </g>
    </g>
    <g id="line2d_20">
     <path d="M 195.592605 189.067702 
L 204.592605 189.067702 
L 213.592605 189.067702 
" style="fill: none; stroke: #2ca02c; stroke-width: 0.5; stroke-linecap: square"/>
    </g>
    <g id="text_18">
     <!-- $\langle \sigma_y\rangle$ -->
     <g transform="translate(220.792605 192.217702) scale(0.09 -0.09)">
      <defs>
       <path id="CMMI12-79" d="M 1683 -700 
C 1510 -939 1261 -1152 947 -1152 
C 870 -1152 563 -1152 467 -889 
C 486 -895 518 -895 531 -895 
C 723 -895 851 -729 851 -582 
C 851 -435 730 -384 634 -384 
C 531 -384 307 -458 307 -759 
C 307 -1071 582 -1286 947 -1286 
C 1587 -1286 2234 -700 2413 6 
L 3040 2485 
C 3046 2517 3059 2556 3059 2594 
C 3059 2689 2982 2753 2886 2753 
C 2829 2753 2694 2727 2643 2535 
L 2170 658 
C 2138 543 2138 530 2086 460 
C 1958 281 1747 64 1440 64 
C 1082 64 1050 415 1050 588 
C 1050 952 1222 1443 1395 1903 
C 1466 2088 1504 2178 1504 2305 
C 1504 2574 1312 2816 998 2816 
C 410 2816 173 1890 173 1839 
C 173 1814 198 1782 243 1782 
C 301 1782 307 1807 333 1897 
C 486 2433 730 2689 979 2689 
C 1037 2689 1146 2689 1146 2478 
C 1146 2312 1075 2127 979 1884 
C 666 1047 666 837 666 683 
C 666 77 1101 -64 1421 -64 
C 1606 -64 1837 -6 2061 230 
L 2067 224 
C 1971 -147 1907 -392 1683 -700 
z
" transform="scale(0.015625)"/>
      </defs>
      <use xlink:href="#CMSY10-68" transform="scale(0.996264)"/>
      <use xlink:href="#CMMI12-1b" transform="translate(38.743734 0) scale(0.996264)"/>
      <use xlink:href="#CMMI12-79" transform="translate(94.189195 -14.943915) scale(0.697382)"/>
      <use xlink:href="#CMSY10-69" transform="translate(130.484301 0) scale(0.996264)"/>
     </g>
    </g>
   </g>
  </g>
 </g>
 <defs>
  <clipPath id="p3e8a1fcd7f">
   <rect x="33.707196" y="7.2" width="212.292324" height="195.359296"/>
  </clipPath>
 </defs>
</svg>
