<?xml version="1.0" encoding="utf-8" standalone="no"?>
<!DOCTYPE svg PUBLIC "-//W3C//DTD SVG 1.1//EN"
  "http://www.w3.org/Graphics/SVG/1.1/DTD/svg11.dtd">
<svg xmlns:xlink="http://www.w3.org/1999/xlink" width="253.19952pt" height="238.79952pt" viewBox="0 0 253.19952 238.79952" xmlns="http://www.w3.org/2000/svg" version="1.1">
 <metadata>
  <rdf:RDF xmlns:dc="http://purl.org/dc/elements/1.1/" xmlns:cc="http://creativecommons.org/ns#" xmlns:rdf="http://www.w3.org/1999/02/22-rdf-syntax-ns#">
   <cc:Work>
    <dc:type rdf:resource="http://purl.org/dc/dcmitype/StillImage"/>
    <dc:date>1980-01-01T00:00:00+00:00</dc:date>
    <dc:format>image/svg+xml</dc:format>
    <dc:creator>
     <cc:Agent>
      <dc:title>Matplotlib v3.6.2, https://matplotlib.org/</dc:title>
     </cc:Agent>
    </dc:creator>
   </cc:Work>
  </rdf:RDF>
 </metadata>
 <defs>
  <style type="text/css">*{stroke-linejoin: round; stroke-linecap: butt}</style>
 </defs>
 <g id="figure_1">
  <g id="patch_1">
   <path d="M 0 238.79952 
L 253.19952 238.79952 
L 253.19952 0 
L 0 0 
z
" style="fill: #ffffff"/>
  </g>
  <g id="axes_1">
   <g id="patch_2">
    <path d="M 33.707196 202.559296 
L 245.99952 202.559296 
L 245.99952 7.2 
L 33.707196 7.2 
z
" style="fill: #ffffff"/>
   </g>
   <g id="matplotlib.axis_1">
    <g id="xtick_1">
     <g id="line2d_1">
      <defs>
       <path id="meacfc7ee7b" d="M 0 0 
L 0 3.5 
" style="stroke: #000000; stroke-width: 0.8"/>
      </defs>
      <g>
       <use xlink:href="#meacfc7ee7b" x="43.356847" y="202.559296" style="stroke: #000000; stroke-width: 0.8"/>
      </g>
     </g>
     <g id="text_1">
      <!-- $\mathdefault{0}$ -->
      <g transform="translate(41.239756 217.194098) scale(0.08 -0.08)">
       <defs>
        <path id="CMR17-30" d="M 2688 2025 
C 2688 2416 2682 3080 2413 3591 
C 2176 4039 1798 4198 1466 4198 
C 1158 4198 768 4058 525 3597 
C 269 3118 243 2524 243 2025 
C 243 1661 250 1106 448 619 
C 723 -39 1216 -128 1466 -128 
C 1760 -128 2208 -7 2470 600 
C 2662 1042 2688 1559 2688 2025 
z
M 1466 -26 
C 1056 -26 813 325 723 812 
C 653 1188 653 1738 653 2096 
C 653 2588 653 2997 736 3387 
C 858 3929 1216 4096 1466 4096 
C 1728 4096 2067 3923 2189 3400 
C 2272 3036 2278 2607 2278 2096 
C 2278 1680 2278 1169 2202 792 
C 2067 95 1690 -26 1466 -26 
z
" transform="scale(0.015625)"/>
       </defs>
       <use xlink:href="#CMR17-30" transform="scale(0.996264)"/>
      </g>
     </g>
    </g>
    <g id="xtick_2">
     <g id="line2d_2">
      <g>
       <use xlink:href="#meacfc7ee7b" x="70.161434" y="202.559296" style="stroke: #000000; stroke-width: 0.8"/>
      </g>
     </g>
     <g id="text_2">
      <!-- $\mathdefault{25}$ -->
      <g transform="translate(65.927251 217.194098) scale(0.08 -0.08)">
       <defs>
        <path id="CMR17-32" d="M 2669 989 
L 2554 989 
C 2490 536 2438 459 2413 420 
C 2381 369 1920 369 1830 369 
L 602 369 
C 832 619 1280 1072 1824 1597 
C 2214 1967 2669 2402 2669 3035 
C 2669 3790 2067 4224 1395 4224 
C 691 4224 262 3604 262 3030 
C 262 2780 448 2748 525 2748 
C 589 2748 781 2787 781 3010 
C 781 3207 614 3264 525 3264 
C 486 3264 448 3258 422 3245 
C 544 3790 915 4058 1306 4058 
C 1862 4058 2227 3617 2227 3035 
C 2227 2479 1901 2000 1536 1584 
L 262 146 
L 262 0 
L 2515 0 
L 2669 989 
z
" transform="scale(0.015625)"/>
        <path id="CMR17-35" d="M 730 3692 
C 794 3666 1056 3584 1325 3584 
C 1920 3584 2246 3911 2432 4100 
C 2432 4157 2432 4192 2394 4192 
C 2387 4192 2374 4192 2323 4163 
C 2099 4058 1837 3973 1517 3973 
C 1325 3973 1037 3999 723 4139 
C 653 4171 640 4171 634 4171 
C 602 4171 595 4164 595 4037 
L 595 2203 
C 595 2089 595 2057 659 2057 
C 691 2057 704 2070 736 2114 
C 941 2401 1222 2522 1542 2522 
C 1766 2522 2246 2382 2246 1289 
C 2246 1085 2246 715 2054 421 
C 1894 159 1645 25 1370 25 
C 947 25 518 320 403 814 
C 429 807 480 795 506 795 
C 589 795 749 840 749 1038 
C 749 1210 627 1280 506 1280 
C 358 1280 262 1190 262 1011 
C 262 454 704 -128 1382 -128 
C 2042 -128 2669 440 2669 1264 
C 2669 2030 2170 2624 1549 2624 
C 1222 2624 947 2503 730 2274 
L 730 3692 
z
" transform="scale(0.015625)"/>
       </defs>
       <use xlink:href="#CMR17-32" transform="scale(0.996264)"/>
       <use xlink:href="#CMR17-35" transform="translate(45.690477 0) scale(0.996264)"/>
      </g>
     </g>
    </g>
    <g id="xtick_3">
     <g id="line2d_3">
      <g>
       <use xlink:href="#meacfc7ee7b" x="96.96602" y="202.559296" style="stroke: #000000; stroke-width: 0.8"/>
      </g>
     </g>
     <g id="text_3">
      <!-- $\mathdefault{50}$ -->
      <g transform="translate(92.731837 217.194098) scale(0.08 -0.08)">
       <use xlink:href="#CMR17-35" transform="scale(0.996264)"/>
       <use xlink:href="#CMR17-30" transform="translate(45.690477 0) scale(0.996264)"/>
      </g>
     </g>
    </g>
    <g id="xtick_4">
     <g id="line2d_4">
      <g>
       <use xlink:href="#meacfc7ee7b" x="123.770606" y="202.559296" style="stroke: #000000; stroke-width: 0.8"/>
      </g>
     </g>
     <g id="text_4">
      <!-- $\mathdefault{75}$ -->
      <g transform="translate(119.536423 217.194098) scale(0.08 -0.08)">
       <defs>
        <path id="CMR17-37" d="M 2886 3941 
L 2886 4081 
L 1382 4081 
C 634 4081 621 4165 595 4288 
L 480 4288 
L 294 3094 
L 410 3094 
C 429 3215 474 3540 550 3661 
C 589 3712 1062 3712 1171 3712 
L 2579 3712 
L 1869 2661 
C 1395 1954 1069 999 1069 165 
C 1069 89 1069 -128 1299 -128 
C 1530 -128 1530 89 1530 171 
L 1530 465 
C 1530 1508 1709 2196 2003 2636 
L 2886 3941 
z
" transform="scale(0.015625)"/>
       </defs>
       <use xlink:href="#CMR17-37" transform="scale(0.996264)"/>
       <use xlink:href="#CMR17-35" transform="translate(45.690477 0) scale(0.996264)"/>
      </g>
     </g>
    </g>
    <g id="xtick_5">
     <g id="line2d_5">
      <g>
       <use xlink:href="#meacfc7ee7b" x="150.575193" y="202.559296" style="stroke: #000000; stroke-width: 0.8"/>
      </g>
     </g>
     <g id="text_5">
      <!-- $\mathdefault{100}$ -->
      <g transform="translate(144.223918 217.194098) scale(0.08 -0.08)">
       <defs>
        <path id="CMR17-31" d="M 1702 4058 
C 1702 4192 1696 4192 1606 4192 
C 1357 3916 979 3827 621 3827 
C 602 3827 570 3827 563 3808 
C 557 3795 557 3782 557 3648 
C 755 3648 1088 3686 1344 3839 
L 1344 461 
C 1344 236 1331 160 781 160 
L 589 160 
L 589 0 
C 896 0 1216 0 1523 0 
C 1830 0 2150 0 2458 0 
L 2458 160 
L 2266 160 
C 1715 160 1702 230 1702 458 
L 1702 4058 
z
" transform="scale(0.015625)"/>
       </defs>
       <use xlink:href="#CMR17-31" transform="scale(0.996264)"/>
       <use xlink:href="#CMR17-30" transform="translate(45.690477 0) scale(0.996264)"/>
       <use xlink:href="#CMR17-30" transform="translate(91.380954 0) scale(0.996264)"/>
      </g>
     </g>
    </g>
    <g id="xtick_6">
     <g id="line2d_6">
      <g>
       <use xlink:href="#meacfc7ee7b" x="177.379779" y="202.559296" style="stroke: #000000; stroke-width: 0.8"/>
      </g>
     </g>
     <g id="text_6">
      <!-- $\mathdefault{125}$ -->
      <g transform="translate(171.028505 217.194098) scale(0.08 -0.08)">
       <use xlink:href="#CMR17-31" transform="scale(0.996264)"/>
       <use xlink:href="#CMR17-32" transform="translate(45.690477 0) scale(0.996264)"/>
       <use xlink:href="#CMR17-35" transform="translate(91.380954 0) scale(0.996264)"/>
      </g>
     </g>
    </g>
    <g id="xtick_7">
     <g id="line2d_7">
      <g>
       <use xlink:href="#meacfc7ee7b" x="204.184365" y="202.559296" style="stroke: #000000; stroke-width: 0.8"/>
      </g>
     </g>
     <g id="text_7">
      <!-- $\mathdefault{150}$ -->
      <g transform="translate(197.833091 217.194098) scale(0.08 -0.08)">
       <use xlink:href="#CMR17-31" transform="scale(0.996264)"/>
       <use xlink:href="#CMR17-35" transform="translate(45.690477 0) scale(0.996264)"/>
       <use xlink:href="#CMR17-30" transform="translate(91.380954 0) scale(0.996264)"/>
      </g>
     </g>
    </g>
    <g id="xtick_8">
     <g id="line2d_8">
      <g>
       <use xlink:href="#meacfc7ee7b" x="230.988952" y="202.559296" style="stroke: #000000; stroke-width: 0.8"/>
      </g>
     </g>
     <g id="text_8">
      <!-- $\mathdefault{175}$ -->
      <g transform="translate(224.637677 217.194098) scale(0.08 -0.08)">
       <use xlink:href="#CMR17-31" transform="scale(0.996264)"/>
       <use xlink:href="#CMR17-37" transform="translate(45.690477 0) scale(0.996264)"/>
       <use xlink:href="#CMR17-35" transform="translate(91.380954 0) scale(0.996264)"/>
      </g>
     </g>
    </g>
    <g id="text_9">
     <!-- $\tau$ -->
     <g transform="translate(137.675756 229.662342) scale(0.1 -0.1)">
      <defs>
       <path id="CMMI12-1c" d="M 1837 2408 
L 2899 2408 
C 2982 2408 3194 2408 3194 2612 
C 3194 2752 3072 2752 2957 2752 
L 1197 2752 
C 1050 2752 832 2752 538 2440 
C 371 2255 166 1917 166 1879 
C 166 1841 198 1828 237 1828 
C 282 1828 288 1847 320 1885 
C 653 2408 986 2408 1146 2408 
L 1677 2408 
L 1011 223 
C 979 127 979 114 979 95 
C 979 25 1024 -64 1152 -64 
C 1350 -64 1382 108 1402 203 
L 1837 2408 
z
" transform="scale(0.015625)"/>
      </defs>
      <use xlink:href="#CMMI12-1c" transform="scale(0.996264)"/>
     </g>
    </g>
   </g>
   <g id="matplotlib.axis_2">
    <g id="ytick_1">
     <g id="line2d_9">
      <defs>
       <path id="m43ee9a12c6" d="M 0 0 
L -3.5 0 
" style="stroke: #000000; stroke-width: 0.8"/>
      </defs>
      <g>
       <use xlink:href="#m43ee9a12c6" x="33.707196" y="193.679328" style="stroke: #000000; stroke-width: 0.8"/>
      </g>
     </g>
     <g id="text_10">
      <!-- $\mathdefault{−1.0}$ -->
      <g transform="translate(7.2 196.446729) scale(0.08 -0.08)">
       <defs>
        <path id="CMSY10-0" d="M 4218 1472 
C 4326 1472 4442 1472 4442 1600 
C 4442 1728 4326 1728 4218 1728 
L 755 1728 
C 646 1728 531 1728 531 1600 
C 531 1472 646 1472 755 1472 
L 4218 1472 
z
" transform="scale(0.015625)"/>
        <path id="CMMI12-3a" d="M 1178 307 
C 1178 492 1024 619 870 619 
C 685 619 557 466 557 313 
C 557 128 710 0 864 0 
C 1050 0 1178 153 1178 307 
z
" transform="scale(0.015625)"/>
       </defs>
       <use xlink:href="#CMSY10-0" transform="scale(0.996264)"/>
       <use xlink:href="#CMR17-31" transform="translate(77.487468 0) scale(0.996264)"/>
       <use xlink:href="#CMMI12-3a" transform="translate(123.177945 0) scale(0.996264)"/>
       <use xlink:href="#CMR17-30" transform="translate(150.275122 0) scale(0.996264)"/>
      </g>
     </g>
    </g>
    <g id="ytick_2">
     <g id="line2d_10">
      <g>
       <use xlink:href="#m43ee9a12c6" x="33.707196" y="158.343911" style="stroke: #000000; stroke-width: 0.8"/>
      </g>
     </g>
     <g id="text_11">
      <!-- $\mathdefault{−0.8}$ -->
      <g transform="translate(7.2 161.111312) scale(0.08 -0.08)">
       <defs>
        <path id="CMR17-38" d="M 1741 2264 
C 2144 2467 2554 2773 2554 3263 
C 2554 3841 1990 4179 1472 4179 
C 890 4179 378 3759 378 3180 
C 378 3021 416 2747 666 2505 
C 730 2442 998 2251 1171 2130 
C 883 1983 211 1634 211 934 
C 211 279 838 -128 1459 -128 
C 2144 -128 2720 362 2720 1010 
C 2720 1590 2330 1857 2074 2029 
L 1741 2264 
z
M 902 2822 
C 851 2854 595 3051 595 3351 
C 595 3739 998 4032 1459 4032 
C 1965 4032 2336 3676 2336 3262 
C 2336 2669 1670 2331 1638 2331 
C 1632 2331 1626 2331 1574 2370 
L 902 2822 
z
M 2080 1519 
C 2176 1449 2483 1240 2483 851 
C 2483 381 2010 25 1472 25 
C 890 25 448 438 448 940 
C 448 1443 838 1862 1280 2060 
L 2080 1519 
z
" transform="scale(0.015625)"/>
       </defs>
       <use xlink:href="#CMSY10-0" transform="scale(0.996264)"/>
       <use xlink:href="#CMR17-30" transform="translate(77.487468 0) scale(0.996264)"/>
       <use xlink:href="#CMMI12-3a" transform="translate(123.177945 0) scale(0.996264)"/>
       <use xlink:href="#CMR17-38" transform="translate(150.275122 0) scale(0.996264)"/>
      </g>
     </g>
    </g>
    <g id="ytick_3">
     <g id="line2d_11">
      <g>
       <use xlink:href="#m43ee9a12c6" x="33.707196" y="123.008494" style="stroke: #000000; stroke-width: 0.8"/>
      </g>
     </g>
     <g id="text_12">
      <!-- $\mathdefault{−0.6}$ -->
      <g transform="translate(7.2 125.775895) scale(0.08 -0.08)">
       <defs>
        <path id="CMR17-36" d="M 678 2176 
C 678 3690 1395 4032 1811 4032 
C 1946 4032 2272 4009 2400 3776 
C 2298 3776 2106 3776 2106 3553 
C 2106 3381 2246 3323 2336 3323 
C 2394 3323 2566 3348 2566 3560 
C 2566 3954 2246 4179 1805 4179 
C 1043 4179 243 3390 243 1984 
C 243 253 966 -128 1478 -128 
C 2099 -128 2688 427 2688 1283 
C 2688 2081 2170 2662 1517 2662 
C 1126 2662 838 2407 678 1960 
L 678 2176 
z
M 1478 25 
C 691 25 691 1200 691 1436 
C 691 1896 909 2560 1504 2560 
C 1613 2560 1926 2560 2138 2120 
C 2253 1870 2253 1609 2253 1289 
C 2253 944 2253 690 2118 434 
C 1978 171 1773 25 1478 25 
z
" transform="scale(0.015625)"/>
       </defs>
       <use xlink:href="#CMSY10-0" transform="scale(0.996264)"/>
       <use xlink:href="#CMR17-30" transform="translate(77.487468 0) scale(0.996264)"/>
       <use xlink:href="#CMMI12-3a" transform="translate(123.177945 0) scale(0.996264)"/>
       <use xlink:href="#CMR17-36" transform="translate(150.275122 0) scale(0.996264)"/>
      </g>
     </g>
    </g>
    <g id="ytick_4">
     <g id="line2d_12">
      <g>
       <use xlink:href="#m43ee9a12c6" x="33.707196" y="87.673077" style="stroke: #000000; stroke-width: 0.8"/>
      </g>
     </g>
     <g id="text_13">
      <!-- $\mathdefault{−0.4}$ -->
      <g transform="translate(7.2 90.440478) scale(0.08 -0.08)">
       <defs>
        <path id="CMR17-34" d="M 2150 4122 
C 2150 4256 2144 4256 2029 4256 
L 128 1254 
L 128 1088 
L 1779 1088 
L 1779 457 
C 1779 224 1766 160 1318 160 
L 1197 160 
L 1197 0 
C 1402 0 1747 0 1965 0 
C 2182 0 2528 0 2733 0 
L 2733 160 
L 2611 160 
C 2163 160 2150 224 2150 457 
L 2150 1088 
L 2803 1088 
L 2803 1254 
L 2150 1254 
L 2150 4122 
z
M 1798 3703 
L 1798 1254 
L 256 1254 
L 1798 3703 
z
" transform="scale(0.015625)"/>
       </defs>
       <use xlink:href="#CMSY10-0" transform="scale(0.996264)"/>
       <use xlink:href="#CMR17-30" transform="translate(77.487468 0) scale(0.996264)"/>
       <use xlink:href="#CMMI12-3a" transform="translate(123.177945 0) scale(0.996264)"/>
       <use xlink:href="#CMR17-34" transform="translate(150.275122 0) scale(0.996264)"/>
      </g>
     </g>
    </g>
    <g id="ytick_5">
     <g id="line2d_13">
      <g>
       <use xlink:href="#m43ee9a12c6" x="33.707196" y="52.33766" style="stroke: #000000; stroke-width: 0.8"/>
      </g>
     </g>
     <g id="text_14">
      <!-- $\mathdefault{−0.2}$ -->
      <g transform="translate(7.2 55.105061) scale(0.08 -0.08)">
       <use xlink:href="#CMSY10-0" transform="scale(0.996264)"/>
       <use xlink:href="#CMR17-30" transform="translate(77.487468 0) scale(0.996264)"/>
       <use xlink:href="#CMMI12-3a" transform="translate(123.177945 0) scale(0.996264)"/>
       <use xlink:href="#CMR17-32" transform="translate(150.275122 0) scale(0.996264)"/>
      </g>
     </g>
    </g>
    <g id="ytick_6">
     <g id="line2d_14">
      <g>
       <use xlink:href="#m43ee9a12c6" x="33.707196" y="17.002243" style="stroke: #000000; stroke-width: 0.8"/>
      </g>
     </g>
     <g id="text_15">
      <!-- $\mathdefault{0.0}$ -->
      <g transform="translate(13.786507 19.769644) scale(0.08 -0.08)">
       <use xlink:href="#CMR17-30" transform="scale(0.996264)"/>
       <use xlink:href="#CMMI12-3a" transform="translate(45.690477 0) scale(0.996264)"/>
       <use xlink:href="#CMR17-30" transform="translate(72.787654 0) scale(0.996264)"/>
      </g>
     </g>
    </g>
   </g>
   <g id="line2d_15">
    <path d="M 43.356847 193.679328 
L 43.421178 193.455485 
L 43.54984 191.698012 
L 43.807164 183.725106 
L 44.900791 142.850786 
L 45.158115 140.934778 
L 45.222446 140.989038 
L 45.351108 141.662503 
L 45.608432 144.869105 
L 46.895053 165.030289 
L 47.088046 165.543852 
L 47.216708 165.519612 
L 47.409701 165.090107 
L 48.117342 162.986868 
L 48.310335 162.95833 
L 48.503328 163.235589 
L 48.824983 164.217145 
L 49.725617 167.258119 
L 50.047272 167.687344 
L 50.368927 167.789008 
L 51.076568 167.883744 
L 51.462554 168.221501 
L 51.977202 169.055755 
L 53.199491 171.260471 
L 53.392484 171.282698 
L 53.585477 171.044737 
L 53.842801 170.189508 
L 54.164456 168.013625 
L 54.550442 163.542634 
L 55.065091 154.693472 
L 57.381007 110.812173 
L 58.088648 102.234328 
L 58.796289 96.259555 
L 59.954247 88.611583 
L 61.43386 80.739944 
L 62.527487 76.735358 
L 63.235128 73.871546 
L 63.814108 72.546201 
L 64.393087 71.169408 
L 65.551045 68.005528 
L 66.51601 66.308926 
L 67.094989 66.105713 
L 67.80263 65.510362 
L 68.252947 65.202897 
L 68.638933 64.61513 
L 69.475236 63.272975 
L 69.73256 63.304611 
L 70.054215 63.393156 
L 70.311539 63.22829 
L 70.761856 62.902281 
L 71.147842 62.947179 
L 71.533828 62.917035 
L 71.919814 62.576432 
L 73.463759 61.12999 
L 74.879041 60.455007 
L 75.265027 60.616723 
L 75.586682 60.677203 
L 75.908337 60.513534 
L 76.229992 60.092222 
L 76.615978 59.079728 
L 77.38795 56.451172 
L 77.838267 53.820027 
L 79.639535 42.074319 
L 80.025521 41.186116 
L 80.540169 40.605471 
L 81.505135 39.580003 
L 81.955452 39.139593 
L 82.405769 39.040423 
L 83.821051 38.823897 
L 84.207037 38.767945 
L 84.464361 38.976034 
L 85.300664 39.900851 
L 85.943974 40.186053 
L 86.265629 40.715102 
L 86.651615 41.858438 
L 87.166263 44.227133 
L 87.809573 48.218714 
L 88.388552 53.226329 
L 89.096193 61.516894 
L 91.991089 99.037034 
L 92.956054 107.5511 
L 93.98535 114.680973 
L 94.885984 119.528091 
L 95.786618 123.202336 
L 96.815914 126.639274 
L 97.716548 128.853427 
L 98.552851 130.339264 
L 100.418451 132.987631 
L 101.254754 133.787783 
L 102.412712 134.574316 
L 103.056022 134.856909 
L 104.85729 135.381938 
L 106.015248 136.074425 
L 106.980213 136.184559 
L 107.752185 136.084114 
L 108.331165 136.004477 
L 108.588489 136.196602 
L 108.845813 136.763201 
L 109.167468 138.263203 
L 109.553454 141.48828 
L 110.068102 148.016041 
L 110.840074 157.807123 
L 111.22606 160.276654 
L 111.547715 161.020079 
L 111.805039 161.10451 
L 112.319687 161.150124 
L 112.641342 161.529978 
L 113.027328 162.389481 
L 114.120955 165.09293 
L 114.699934 165.779616 
L 115.664899 166.85211 
L 116.629864 168.442253 
L 117.466168 169.795469 
L 117.723492 169.880059 
L 117.916485 169.681015 
L 118.173809 168.909713 
L 118.495464 166.877285 
L 118.88145 162.582182 
L 119.396098 153.897942 
L 121.776345 109.444234 
L 122.483986 100.966409 
L 123.255958 94.569904 
L 124.156592 88.667051 
L 125.378881 81.96705 
L 127.051488 75.437196 
L 129.431735 69.203091 
L 131.554658 65.429601 
L 132.455292 64.536163 
L 133.034271 63.870836 
L 133.934905 63.137034 
L 134.449553 62.498293 
L 135.157195 62.271161 
L 135.736174 62.116266 
L 136.12216 61.577866 
L 136.443815 61.220343 
L 136.76547 61.231999 
L 137.151456 61.210568 
L 137.473111 60.938438 
L 138.05209 60.351899 
L 138.309414 60.434126 
L 138.631069 60.547024 
L 138.952724 60.366571 
L 139.33871 60.159772 
L 139.660365 60.268876 
L 139.98202 60.32332 
L 140.368006 60.051257 
L 140.818323 59.605195 
L 141.204309 58.749814 
L 141.590295 57.322735 
L 142.040612 54.599858 
L 142.941246 47.38719 
L 143.455894 44.181156 
L 143.77755 43.236893 
L 145.450156 40.46206 
L 145.900473 40.088641 
L 146.479452 39.913195 
L 146.801107 39.791945 
L 147.187093 39.26396 
L 147.766072 38.527937 
L 148.087727 38.407349 
L 148.409382 38.559387 
L 149.181354 38.985795 
L 149.56734 39.203607 
L 149.953326 39.820512 
L 150.467974 41.034138 
L 151.046953 43.104717 
L 151.947587 47.076594 
L 152.462235 50.790547 
L 153.105546 57.329119 
L 154.00618 69.101815 
L 155.807448 93.114341 
L 156.836744 103.930206 
L 157.737378 111.093197 
L 158.702343 117.09361 
L 159.538646 120.867853 
L 160.632273 124.766896 
L 161.532908 127.325206 
L 162.690866 129.774457 
L 163.5915 131.24333 
L 164.556465 132.426343 
L 165.585761 133.353465 
L 167.065374 134.41671 
L 167.708684 134.593003 
L 168.866642 134.878066 
L 170.60358 135.760288 
L 172.855165 136.192684 
L 173.112489 136.68633 
L 173.369813 137.685603 
L 173.691468 139.874487 
L 174.141785 144.727682 
L 175.364074 159.219262 
L 175.685729 160.743415 
L 175.943053 161.226161 
L 176.200377 161.311992 
L 176.715025 161.349966 
L 176.972349 161.632386 
L 177.358335 162.47742 
L 178.516293 165.414069 
L 179.030941 165.933038 
L 179.802914 166.650389 
L 180.574886 167.873133 
L 181.990168 169.892568 
L 182.183161 169.804992 
L 182.376154 169.424109 
L 182.633478 168.319372 
L 182.955133 165.75021 
L 183.341119 160.754121 
L 183.984429 148.77722 
L 185.592704 117.705648 
L 186.300345 107.33346 
L 187.200979 97.372184 
L 187.779958 93.373059 
L 189.709889 82.580021 
L 191.446826 75.721527 
L 192.797777 71.814511 
L 194.599045 67.769981 
L 195.306686 67.22127 
L 196.721968 65.237204 
L 197.365279 64.248325 
L 197.751265 64.084646 
L 198.137251 63.953812 
L 198.458906 63.556095 
L 199.488202 62.151164 
L 199.809857 61.850109 
L 201.418132 61.414425 
L 201.868449 61.111263 
L 202.704752 61.127395 
L 204.055703 60.673748 
L 204.699013 60.947806 
L 204.956337 60.794781 
L 205.213661 60.381656 
L 205.535316 59.356291 
L 206.049965 56.696178 
L 206.628944 52.712951 
L 207.722571 44.672602 
L 208.237219 42.417724 
L 208.558874 41.783735 
L 209.781163 40.527163 
L 210.617466 40.038648 
L 211.132114 39.876615 
L 211.968417 39.349591 
L 212.740389 39.428904 
L 213.705354 39.907676 
L 214.09134 40.126329 
L 214.541657 40.66602 
L 215.056306 41.685717 
L 215.506623 43.093242 
L 216.085602 45.767302 
L 216.664581 49.639368 
L 217.24356 55.154779 
L 218.015532 65.096311 
L 219.945462 91.254199 
L 221.039089 102.799309 
L 221.939723 110.102714 
L 222.904688 116.203689 
L 223.869654 120.95135 
L 224.89895 124.708377 
L 225.799584 127.327058 
L 226.571556 128.941309 
L 227.858176 131.036013 
L 229.40212 133.093283 
L 230.04543 133.596245 
L 231.653705 134.418049 
L 232.940326 134.976089 
L 233.969622 135.379334 
L 236.092545 135.900766 
L 236.349869 135.991512 
L 236.349869 135.991512 
" clip-path="url(#p8f8d7a43d8)" style="fill: none; stroke: #1f77b4; stroke-width: 0.5; stroke-linecap: square"/>
   </g>
   <g id="line2d_16">
    <path d="M 43.356847 17.002243 
L 44.257481 16.66884 
L 45.222446 16.594558 
L 56.28738 16.560436 
L 60.018578 16.509084 
L 91.926758 16.519335 
L 105.371938 16.573785 
L 116.629864 16.695952 
L 119.589091 16.617805 
L 122.676979 16.514726 
L 139.467372 16.499764 
L 174.206116 16.603335 
L 178.387631 16.680788 
L 184.04876 16.609306 
L 187.072317 16.514424 
L 203.669717 16.499253 
L 225.992577 16.559566 
L 236.349869 16.574278 
L 236.349869 16.574278 
" clip-path="url(#p8f8d7a43d8)" style="fill: none; stroke: #ff7f0e; stroke-width: 0.5; stroke-linecap: square"/>
   </g>
   <g id="line2d_17">
    <path d="M 43.356847 17.002243 
L 44.064488 16.889744 
L 45.351108 16.917302 
L 46.637729 17.182311 
L 47.924349 16.620271 
L 48.567659 16.850199 
L 49.403962 17.161465 
L 49.854279 17.055521 
L 50.947906 16.675994 
L 51.398223 16.827338 
L 52.49185 17.257931 
L 53.006498 17.19486 
L 54.164456 16.891963 
L 54.872098 17.03323 
L 56.609035 17.446168 
L 56.93069 17.300749 
L 57.509669 16.95204 
L 58.024317 17.041845 
L 58.474634 17.005145 
L 59.182275 16.882806 
L 60.340233 17.018889 
L 60.983543 16.73596 
L 62.012839 16.610028 
L 62.527487 16.514547 
L 62.849142 16.687513 
L 63.621115 17.23225 
L 64.135763 17.297077 
L 65.22939 17.06327 
L 66.773334 16.594321 
L 68.124285 16.974826 
L 68.703264 17.109002 
L 69.539567 17.335892 
L 69.861222 17.137738 
L 70.37587 16.787285 
L 70.954849 16.842675 
L 71.66249 16.889163 
L 72.112807 16.67287 
L 72.691787 16.346161 
L 73.206435 16.42916 
L 74.428724 16.710717 
L 75.586682 17.104091 
L 75.908337 16.867744 
L 76.680309 16.170636 
L 77.001964 16.168757 
L 77.838267 16.545793 
L 78.481577 16.676296 
L 78.996225 16.579099 
L 80.218514 16.090059 
L 80.861824 16.302697 
L 81.82679 16.751448 
L 82.791755 16.966272 
L 84.593023 17.560086 
L 85.172002 17.344425 
L 85.879643 17.096953 
L 86.651615 17.083802 
L 88.388552 17.248007 
L 89.160524 17.083377 
L 90.640138 16.794395 
L 93.277709 16.936541 
L 97.330562 16.575701 
L 98.424189 16.859334 
L 99.324824 17.041426 
L 101.769402 17.241542 
L 102.412712 17.061564 
L 103.57067 16.708584 
L 105.822255 16.34093 
L 106.722889 16.554917 
L 108.138172 17.179374 
L 109.038806 17.580188 
L 109.875109 17.625154 
L 111.998032 17.4592 
L 113.284652 17.58147 
L 114.313948 17.382607 
L 115.150251 17.19306 
L 115.857892 17.340869 
L 116.887189 17.522787 
L 117.466168 17.36086 
L 118.431133 17.012913 
L 119.203105 17.05984 
L 119.910746 17.101369 
L 120.296732 16.898466 
L 121.004373 16.418162 
L 121.261697 16.484451 
L 121.840676 17.012246 
L 122.355324 17.271178 
L 122.805641 17.252953 
L 124.542578 16.89365 
L 125.185888 17.010427 
L 125.636205 16.739617 
L 126.150854 16.500556 
L 126.472509 16.587853 
L 126.858495 17.008674 
L 127.630467 17.938759 
L 127.887791 17.928579 
L 128.209446 17.612619 
L 129.045749 16.504878 
L 129.303073 16.676843 
L 130.268038 17.805707 
L 130.589693 17.668605 
L 131.104341 17.101342 
L 131.618989 16.660336 
L 132.004975 16.58772 
L 132.32663 16.787852 
L 133.162933 17.479265 
L 133.484588 17.360834 
L 134.449553 16.841583 
L 134.771209 17.040666 
L 135.543181 17.672503 
L 135.800505 17.590215 
L 136.250822 17.095453 
L 136.76547 16.622219 
L 137.151456 16.569971 
L 137.601773 16.785377 
L 138.438076 17.265088 
L 138.759731 17.153114 
L 139.596034 16.728321 
L 140.62533 16.791413 
L 141.397302 16.816926 
L 142.233605 17.016709 
L 142.812584 16.808952 
L 143.327232 16.67182 
L 144.999839 16.718775 
L 147.058431 16.570624 
L 148.023396 16.908756 
L 149.374347 16.76253 
L 150.146319 16.974254 
L 150.789629 16.937574 
L 153.041215 16.372881 
L 153.555863 16.461094 
L 154.263504 16.867658 
L 155.035476 17.276946 
L 155.614455 17.313842 
L 157.544385 17.004345 
L 158.187695 16.9442 
L 160.310618 16.944911 
L 162.240549 16.618066 
L 162.883859 16.488378 
L 164.299141 16.672618 
L 165.006782 16.85716 
L 167.322698 17.822953 
L 167.837346 17.63144 
L 169.445621 16.902251 
L 170.474918 16.717805 
L 171.375552 16.729088 
L 172.340517 17.003613 
L 173.241151 17.20583 
L 174.720764 17.162134 
L 175.557067 17.145798 
L 177.165342 17.221555 
L 179.802914 17.027933 
L 180.510555 17.07196 
L 181.732844 16.985097 
L 182.697809 17.189011 
L 185.399711 16.944932 
L 188.680593 17.057856 
L 189.581227 16.562476 
L 189.967213 16.748398 
L 191.253833 17.572858 
L 191.575488 17.491169 
L 192.411791 17.103042 
L 192.926439 17.372503 
L 193.441087 17.546462 
L 193.827073 17.415355 
L 194.9207 16.902591 
L 195.435348 16.835449 
L 196.593306 17.050304 
L 197.365279 16.769003 
L 197.686934 16.865407 
L 199.102216 17.67484 
L 199.423871 17.598008 
L 199.745526 17.238926 
L 200.260174 16.585505 
L 200.517498 16.565157 
L 200.903484 16.838036 
L 201.546794 17.275573 
L 202.190104 17.519969 
L 202.897745 17.329137 
L 203.348062 17.046003 
L 204.120034 16.361222 
L 204.50602 16.35243 
L 204.827675 16.525956 
L 205.213661 17.060531 
L 205.663978 17.624877 
L 205.921302 17.625086 
L 206.242958 17.334466 
L 206.886268 16.75007 
L 207.465247 16.604244 
L 209.137853 16.488592 
L 209.845494 16.916945 
L 210.360142 17.097002 
L 210.87479 17.016755 
L 212.740389 16.478706 
L 213.44803 16.743306 
L 214.541657 17.135946 
L 215.635285 17.075115 
L 216.728912 16.887623 
L 217.500884 16.709149 
L 218.272856 16.810098 
L 219.044828 16.896264 
L 219.945462 17.047214 
L 221.74673 17.617881 
L 222.518702 17.630045 
L 223.933985 17.331074 
L 224.963281 17.166149 
L 225.799584 17.147808 
L 226.764549 17.13828 
L 229.788106 16.623765 
L 231.203388 16.870952 
L 235.642228 17.660451 
L 236.349869 17.516354 
L 236.349869 17.516354 
" clip-path="url(#p8f8d7a43d8)" style="fill: none; stroke: #2ca02c; stroke-width: 0.5; stroke-linecap: square"/>
   </g>
   <g id="patch_3">
    <path d="M 33.707196 202.559296 
L 33.707196 7.2 
" style="fill: none; stroke: #000000; stroke-width: 0.8; stroke-linejoin: miter; stroke-linecap: square"/>
   </g>
   <g id="patch_4">
    <path d="M 245.99952 202.559296 
L 245.99952 7.2 
" style="fill: none; stroke: #000000; stroke-width: 0.8; stroke-linejoin: miter; stroke-linecap: square"/>
   </g>
   <g id="patch_5">
    <path d="M 33.707196 202.559296 
L 245.99952 202.559296 
" style="fill: none; stroke: #000000; stroke-width: 0.8; stroke-linejoin: miter; stroke-linecap: square"/>
   </g>
   <g id="patch_6">
    <path d="M 33.707196 7.2 
L 245.99952 7.2 
" style="fill: none; stroke: #000000; stroke-width: 0.8; stroke-linejoin: miter; stroke-linecap: square"/>
   </g>
   <g id="legend_1">
    <g id="patch_7">
     <path d="M 193.792605 198.059296 
L 239.69952 198.059296 
Q 241.49952 198.059296 241.49952 196.259296 
L 241.49952 156.760168 
Q 241.49952 154.960168 239.69952 154.960168 
L 193.792605 154.960168 
Q 191.992605 154.960168 191.992605 156.760168 
L 191.992605 196.259296 
Q 191.992605 198.059296 193.792605 198.059296 
z
" style="fill: #ffffff; opacity: 0.8; stroke: #cccccc; stroke-width: 0.24; stroke-linejoin: miter"/>
    </g>
    <g id="line2d_18">
     <path d="M 195.592605 162.13495 
L 204.592605 162.13495 
L 213.592605 162.13495 
" style="fill: none; stroke: #1f77b4; stroke-width: 0.5; stroke-linecap: square"/>
    </g>
    <g id="text_16">
     <!-- $\langle \sigma_z\rangle$ -->
     <g transform="translate(220.792605 165.28495) scale(0.09 -0.09)">
      <defs>
       <path id="CMSY10-68" d="M 2099 4557 
C 2131 4627 2131 4640 2131 4672 
C 2131 4742 2074 4800 2003 4800 
C 1946 4800 1901 4768 1856 4653 
L 736 1715 
C 723 1677 704 1638 704 1600 
C 704 1581 704 1568 736 1491 
L 1856 -1446 
C 1882 -1517 1914 -1600 2003 -1600 
C 2074 -1600 2131 -1542 2131 -1472 
C 2131 -1453 2131 -1440 2099 -1370 
L 966 1600 
L 2099 4557 
z
" transform="scale(0.015625)"/>
       <path id="CMMI12-1b" d="M 3251 2408 
C 3334 2408 3546 2408 3546 2612 
C 3546 2752 3424 2752 3309 2752 
L 1894 2752 
C 934 2752 243 1686 243 932 
C 243 390 595 -64 1171 -64 
C 1926 -64 2752 747 2752 1705 
C 2752 1954 2694 2196 2541 2408 
L 3251 2408 
z
M 1178 64 
C 851 64 614 313 614 754 
C 614 1137 845 2408 1786 2408 
C 2061 2408 2368 2274 2368 1781 
C 2368 1558 2266 1021 2042 652 
C 1811 275 1466 64 1178 64 
z
" transform="scale(0.015625)"/>
       <path id="CMMI12-7a" d="M 813 486 
C 1088 803 1312 1004 1632 1296 
C 2016 1632 2182 1793 2272 1891 
C 2720 2338 2944 2713 2944 2764 
C 2944 2816 2893 2816 2880 2816 
C 2835 2816 2822 2793 2790 2750 
C 2630 2494 2477 2367 2310 2367 
C 2176 2367 2106 2421 1984 2565 
C 1850 2715 1741 2816 1555 2816 
C 1088 2816 806 2257 806 2128 
C 806 2108 813 2068 870 2068 
C 922 2068 928 2091 947 2133 
C 1056 2372 1363 2414 1485 2414 
C 1619 2414 1747 2376 1882 2327 
C 2125 2240 2227 2240 2291 2240 
C 2336 2240 2362 2240 2394 2246 
C 2182 1994 1837 1683 1549 1418 
L 902 816 
C 512 415 275 33 275 -12 
C 275 -51 307 -64 346 -64 
C 384 -64 390 -57 435 14 
C 538 163 742 384 979 384 
C 1114 384 1178 342 1306 193 
C 1427 61 1536 -64 1741 -64 
C 2368 -64 2726 732 2726 876 
C 2726 903 2720 942 2656 942 
C 2605 942 2598 917 2579 855 
C 2438 488 2061 338 1811 338 
C 1677 338 1549 376 1414 425 
C 1158 512 1088 512 1005 512 
C 941 512 870 512 813 486 
z
" transform="scale(0.015625)"/>
       <path id="CMSY10-69" d="M 1747 1491 
C 1779 1568 1779 1581 1779 1600 
C 1779 1619 1779 1632 1747 1709 
L 627 4653 
C 589 4762 550 4800 480 4800 
C 410 4800 352 4742 352 4672 
C 352 4653 352 4640 384 4570 
L 1517 1600 
L 384 -1357 
C 352 -1427 352 -1440 352 -1472 
C 352 -1542 410 -1600 480 -1600 
C 563 -1600 589 -1536 614 -1472 
L 1747 1491 
z
" transform="scale(0.015625)"/>
      </defs>
      <use xlink:href="#CMSY10-68" transform="scale(0.996264)"/>
      <use xlink:href="#CMMI12-1b" transform="translate(38.743734 0) scale(0.996264)"/>
      <use xlink:href="#CMMI12-7a" transform="translate(94.189195 -14.943915) scale(0.697382)"/>
      <use xlink:href="#CMSY10-69" transform="translate(129.51575 0) scale(0.996264)"/>
     </g>
    </g>
    <g id="line2d_19">
     <path d="M 195.592605 175.601326 
L 204.592605 175.601326 
L 213.592605 175.601326 
" style="fill: none; stroke: #ff7f0e; stroke-width: 0.5; stroke-linecap: square"/>
    </g>
    <g id="text_17">
     <!-- $\langle \sigma_x\rangle$ -->
     <g transform="translate(220.792605 178.751326) scale(0.09 -0.09)">
      <defs>
       <path id="CMMI12-78" d="M 3034 2606 
C 2829 2567 2752 2414 2752 2293 
C 2752 2139 2874 2088 2963 2088 
C 3155 2088 3290 2254 3290 2427 
C 3290 2695 2982 2816 2714 2816 
C 2323 2816 2106 2433 2048 2312 
C 1901 2816 1504 2816 1389 2816 
C 736 2816 390 1980 390 1839 
C 390 1814 416 1782 461 1782 
C 512 1782 525 1820 538 1846 
C 755 2555 1184 2689 1370 2689 
C 1658 2689 1715 2420 1715 2267 
C 1715 2127 1677 1980 1600 1673 
L 1382 798 
C 1286 415 1101 64 762 64 
C 730 64 570 64 435 147 
C 666 192 717 383 717 460 
C 717 588 621 664 499 664 
C 346 664 179 530 179 326 
C 179 57 480 -64 755 -64 
C 1062 -64 1280 179 1414 441 
C 1517 64 1837 -64 2074 -64 
C 2726 -64 3072 773 3072 913 
C 3072 945 3046 971 3008 971 
C 2950 971 2944 939 2925 888 
C 2752 326 2381 64 2093 64 
C 1869 64 1747 230 1747 492 
C 1747 632 1773 734 1875 1156 
L 2099 2024 
C 2195 2408 2413 2689 2707 2689 
C 2720 2689 2899 2689 3034 2606 
z
" transform="scale(0.015625)"/>
      </defs>
      <use xlink:href="#CMSY10-68" transform="scale(0.996264)"/>
      <use xlink:href="#CMMI12-1b" transform="translate(38.743734 0) scale(0.996264)"/>
      <use xlink:href="#CMMI12-78" transform="translate(94.189195 -14.943915) scale(0.697382)"/>
      <use xlink:href="#CMSY10-69" transform="translate(133.490986 0) scale(0.996264)"/>
     </g>
    </g>
    <g id="line2d_20">
     <path d="M 195.592605 189.067702 
L 204.592605 189.067702 
L 213.592605 189.067702 
" style="fill: none; stroke: #2ca02c; stroke-width: 0.5; stroke-linecap: square"/>
    </g>
    <g id="text_18">
     <!-- $\langle \sigma_y\rangle$ -->
     <g transform="translate(220.792605 192.217702) scale(0.09 -0.09)">
      <defs>
       <path id="CMMI12-79" d="M 1683 -700 
C 1510 -939 1261 -1152 947 -1152 
C 870 -1152 563 -1152 467 -889 
C 486 -895 518 -895 531 -895 
C 723 -895 851 -729 851 -582 
C 851 -435 730 -384 634 -384 
C 531 -384 307 -458 307 -759 
C 307 -1071 582 -1286 947 -1286 
C 1587 -1286 2234 -700 2413 6 
L 3040 2485 
C 3046 2517 3059 2556 3059 2594 
C 3059 2689 2982 2753 2886 2753 
C 2829 2753 2694 2727 2643 2535 
L 2170 658 
C 2138 543 2138 530 2086 460 
C 1958 281 1747 64 1440 64 
C 1082 64 1050 415 1050 588 
C 1050 952 1222 1443 1395 1903 
C 1466 2088 1504 2178 1504 2305 
C 1504 2574 1312 2816 998 2816 
C 410 2816 173 1890 173 1839 
C 173 1814 198 1782 243 1782 
C 301 1782 307 1807 333 1897 
C 486 2433 730 2689 979 2689 
C 1037 2689 1146 2689 1146 2478 
C 1146 2312 1075 2127 979 1884 
C 666 1047 666 837 666 683 
C 666 77 1101 -64 1421 -64 
C 1606 -64 1837 -6 2061 230 
L 2067 224 
C 1971 -147 1907 -392 1683 -700 
z
" transform="scale(0.015625)"/>
      </defs>
      <use xlink:href="#CMSY10-68" transform="scale(0.996264)"/>
      <use xlink:href="#CMMI12-1b" transform="translate(38.743734 0) scale(0.996264)"/>
      <use xlink:href="#CMMI12-79" transform="translate(94.189195 -14.943915) scale(0.697382)"/>
      <use xlink:href="#CMSY10-69" transform="translate(130.484301 0) scale(0.996264)"/>
     </g>
    </g>
   </g>
  </g>
 </g>
 <defs>
  <clipPath id="p8f8d7a43d8">
   <rect x="33.707196" y="7.2" width="212.292324" height="195.359296"/>
  </clipPath>
 </defs>
</svg>
