<?xml version="1.0" encoding="utf-8" standalone="no"?>
<!DOCTYPE svg PUBLIC "-//W3C//DTD SVG 1.1//EN"
  "http://www.w3.org/Graphics/SVG/1.1/DTD/svg11.dtd">
<svg xmlns:xlink="http://www.w3.org/1999/xlink" width="253.19952pt" height="238.79952pt" viewBox="0 0 253.19952 238.79952" xmlns="http://www.w3.org/2000/svg" version="1.1">
 <metadata>
  <rdf:RDF xmlns:dc="http://purl.org/dc/elements/1.1/" xmlns:cc="http://creativecommons.org/ns#" xmlns:rdf="http://www.w3.org/1999/02/22-rdf-syntax-ns#">
   <cc:Work>
    <dc:type rdf:resource="http://purl.org/dc/dcmitype/StillImage"/>
    <dc:date>1980-01-01T00:00:00+00:00</dc:date>
    <dc:format>image/svg+xml</dc:format>
    <dc:creator>
     <cc:Agent>
      <dc:title>Matplotlib v3.6.2, https://matplotlib.org/</dc:title>
     </cc:Agent>
    </dc:creator>
   </cc:Work>
  </rdf:RDF>
 </metadata>
 <defs>
  <style type="text/css">*{stroke-linejoin: round; stroke-linecap: butt}</style>
 </defs>
 <g id="figure_1">
  <g id="patch_1">
   <path d="M 0 238.79952 
L 253.19952 238.79952 
L 253.19952 0 
L 0 0 
z
" style="fill: #ffffff"/>
  </g>
  <g id="axes_1">
   <g id="patch_2">
    <path d="M 33.707196 202.559296 
L 245.99952 202.559296 
L 245.99952 7.2 
L 33.707196 7.2 
z
" style="fill: #ffffff"/>
   </g>
   <g id="matplotlib.axis_1">
    <g id="xtick_1">
     <g id="line2d_1">
      <defs>
       <path id="macfb1f2d62" d="M 0 0 
L 0 3.5 
" style="stroke: #000000; stroke-width: 0.8"/>
      </defs>
      <g>
       <use xlink:href="#macfb1f2d62" x="43.356847" y="202.559296" style="stroke: #000000; stroke-width: 0.8"/>
      </g>
     </g>
     <g id="text_1">
      <!-- $\mathdefault{0}$ -->
      <g transform="translate(41.239756 217.194098) scale(0.08 -0.08)">
       <defs>
        <path id="CMR17-30" d="M 2688 2025 
C 2688 2416 2682 3080 2413 3591 
C 2176 4039 1798 4198 1466 4198 
C 1158 4198 768 4058 525 3597 
C 269 3118 243 2524 243 2025 
C 243 1661 250 1106 448 619 
C 723 -39 1216 -128 1466 -128 
C 1760 -128 2208 -7 2470 600 
C 2662 1042 2688 1559 2688 2025 
z
M 1466 -26 
C 1056 -26 813 325 723 812 
C 653 1188 653 1738 653 2096 
C 653 2588 653 2997 736 3387 
C 858 3929 1216 4096 1466 4096 
C 1728 4096 2067 3923 2189 3400 
C 2272 3036 2278 2607 2278 2096 
C 2278 1680 2278 1169 2202 792 
C 2067 95 1690 -26 1466 -26 
z
" transform="scale(0.015625)"/>
       </defs>
       <use xlink:href="#CMR17-30" transform="scale(0.996264)"/>
      </g>
     </g>
    </g>
    <g id="xtick_2">
     <g id="line2d_2">
      <g>
       <use xlink:href="#macfb1f2d62" x="70.161434" y="202.559296" style="stroke: #000000; stroke-width: 0.8"/>
      </g>
     </g>
     <g id="text_2">
      <!-- $\mathdefault{25}$ -->
      <g transform="translate(65.927251 217.194098) scale(0.08 -0.08)">
       <defs>
        <path id="CMR17-32" d="M 2669 989 
L 2554 989 
C 2490 536 2438 459 2413 420 
C 2381 369 1920 369 1830 369 
L 602 369 
C 832 619 1280 1072 1824 1597 
C 2214 1967 2669 2402 2669 3035 
C 2669 3790 2067 4224 1395 4224 
C 691 4224 262 3604 262 3030 
C 262 2780 448 2748 525 2748 
C 589 2748 781 2787 781 3010 
C 781 3207 614 3264 525 3264 
C 486 3264 448 3258 422 3245 
C 544 3790 915 4058 1306 4058 
C 1862 4058 2227 3617 2227 3035 
C 2227 2479 1901 2000 1536 1584 
L 262 146 
L 262 0 
L 2515 0 
L 2669 989 
z
" transform="scale(0.015625)"/>
        <path id="CMR17-35" d="M 730 3692 
C 794 3666 1056 3584 1325 3584 
C 1920 3584 2246 3911 2432 4100 
C 2432 4157 2432 4192 2394 4192 
C 2387 4192 2374 4192 2323 4163 
C 2099 4058 1837 3973 1517 3973 
C 1325 3973 1037 3999 723 4139 
C 653 4171 640 4171 634 4171 
C 602 4171 595 4164 595 4037 
L 595 2203 
C 595 2089 595 2057 659 2057 
C 691 2057 704 2070 736 2114 
C 941 2401 1222 2522 1542 2522 
C 1766 2522 2246 2382 2246 1289 
C 2246 1085 2246 715 2054 421 
C 1894 159 1645 25 1370 25 
C 947 25 518 320 403 814 
C 429 807 480 795 506 795 
C 589 795 749 840 749 1038 
C 749 1210 627 1280 506 1280 
C 358 1280 262 1190 262 1011 
C 262 454 704 -128 1382 -128 
C 2042 -128 2669 440 2669 1264 
C 2669 2030 2170 2624 1549 2624 
C 1222 2624 947 2503 730 2274 
L 730 3692 
z
" transform="scale(0.015625)"/>
       </defs>
       <use xlink:href="#CMR17-32" transform="scale(0.996264)"/>
       <use xlink:href="#CMR17-35" transform="translate(45.690477 0) scale(0.996264)"/>
      </g>
     </g>
    </g>
    <g id="xtick_3">
     <g id="line2d_3">
      <g>
       <use xlink:href="#macfb1f2d62" x="96.96602" y="202.559296" style="stroke: #000000; stroke-width: 0.8"/>
      </g>
     </g>
     <g id="text_3">
      <!-- $\mathdefault{50}$ -->
      <g transform="translate(92.731837 217.194098) scale(0.08 -0.08)">
       <use xlink:href="#CMR17-35" transform="scale(0.996264)"/>
       <use xlink:href="#CMR17-30" transform="translate(45.690477 0) scale(0.996264)"/>
      </g>
     </g>
    </g>
    <g id="xtick_4">
     <g id="line2d_4">
      <g>
       <use xlink:href="#macfb1f2d62" x="123.770606" y="202.559296" style="stroke: #000000; stroke-width: 0.8"/>
      </g>
     </g>
     <g id="text_4">
      <!-- $\mathdefault{75}$ -->
      <g transform="translate(119.536423 217.194098) scale(0.08 -0.08)">
       <defs>
        <path id="CMR17-37" d="M 2886 3941 
L 2886 4081 
L 1382 4081 
C 634 4081 621 4165 595 4288 
L 480 4288 
L 294 3094 
L 410 3094 
C 429 3215 474 3540 550 3661 
C 589 3712 1062 3712 1171 3712 
L 2579 3712 
L 1869 2661 
C 1395 1954 1069 999 1069 165 
C 1069 89 1069 -128 1299 -128 
C 1530 -128 1530 89 1530 171 
L 1530 465 
C 1530 1508 1709 2196 2003 2636 
L 2886 3941 
z
" transform="scale(0.015625)"/>
       </defs>
       <use xlink:href="#CMR17-37" transform="scale(0.996264)"/>
       <use xlink:href="#CMR17-35" transform="translate(45.690477 0) scale(0.996264)"/>
      </g>
     </g>
    </g>
    <g id="xtick_5">
     <g id="line2d_5">
      <g>
       <use xlink:href="#macfb1f2d62" x="150.575193" y="202.559296" style="stroke: #000000; stroke-width: 0.8"/>
      </g>
     </g>
     <g id="text_5">
      <!-- $\mathdefault{100}$ -->
      <g transform="translate(144.223918 217.194098) scale(0.08 -0.08)">
       <defs>
        <path id="CMR17-31" d="M 1702 4058 
C 1702 4192 1696 4192 1606 4192 
C 1357 3916 979 3827 621 3827 
C 602 3827 570 3827 563 3808 
C 557 3795 557 3782 557 3648 
C 755 3648 1088 3686 1344 3839 
L 1344 461 
C 1344 236 1331 160 781 160 
L 589 160 
L 589 0 
C 896 0 1216 0 1523 0 
C 1830 0 2150 0 2458 0 
L 2458 160 
L 2266 160 
C 1715 160 1702 230 1702 458 
L 1702 4058 
z
" transform="scale(0.015625)"/>
       </defs>
       <use xlink:href="#CMR17-31" transform="scale(0.996264)"/>
       <use xlink:href="#CMR17-30" transform="translate(45.690477 0) scale(0.996264)"/>
       <use xlink:href="#CMR17-30" transform="translate(91.380954 0) scale(0.996264)"/>
      </g>
     </g>
    </g>
    <g id="xtick_6">
     <g id="line2d_6">
      <g>
       <use xlink:href="#macfb1f2d62" x="177.379779" y="202.559296" style="stroke: #000000; stroke-width: 0.8"/>
      </g>
     </g>
     <g id="text_6">
      <!-- $\mathdefault{125}$ -->
      <g transform="translate(171.028505 217.194098) scale(0.08 -0.08)">
       <use xlink:href="#CMR17-31" transform="scale(0.996264)"/>
       <use xlink:href="#CMR17-32" transform="translate(45.690477 0) scale(0.996264)"/>
       <use xlink:href="#CMR17-35" transform="translate(91.380954 0) scale(0.996264)"/>
      </g>
     </g>
    </g>
    <g id="xtick_7">
     <g id="line2d_7">
      <g>
       <use xlink:href="#macfb1f2d62" x="204.184365" y="202.559296" style="stroke: #000000; stroke-width: 0.8"/>
      </g>
     </g>
     <g id="text_7">
      <!-- $\mathdefault{150}$ -->
      <g transform="translate(197.833091 217.194098) scale(0.08 -0.08)">
       <use xlink:href="#CMR17-31" transform="scale(0.996264)"/>
       <use xlink:href="#CMR17-35" transform="translate(45.690477 0) scale(0.996264)"/>
       <use xlink:href="#CMR17-30" transform="translate(91.380954 0) scale(0.996264)"/>
      </g>
     </g>
    </g>
    <g id="xtick_8">
     <g id="line2d_8">
      <g>
       <use xlink:href="#macfb1f2d62" x="230.988952" y="202.559296" style="stroke: #000000; stroke-width: 0.8"/>
      </g>
     </g>
     <g id="text_8">
      <!-- $\mathdefault{175}$ -->
      <g transform="translate(224.637677 217.194098) scale(0.08 -0.08)">
       <use xlink:href="#CMR17-31" transform="scale(0.996264)"/>
       <use xlink:href="#CMR17-37" transform="translate(45.690477 0) scale(0.996264)"/>
       <use xlink:href="#CMR17-35" transform="translate(91.380954 0) scale(0.996264)"/>
      </g>
     </g>
    </g>
    <g id="text_9">
     <!-- $\tau$ -->
     <g transform="translate(137.675756 229.662342) scale(0.1 -0.1)">
      <defs>
       <path id="CMMI12-1c" d="M 1837 2408 
L 2899 2408 
C 2982 2408 3194 2408 3194 2612 
C 3194 2752 3072 2752 2957 2752 
L 1197 2752 
C 1050 2752 832 2752 538 2440 
C 371 2255 166 1917 166 1879 
C 166 1841 198 1828 237 1828 
C 282 1828 288 1847 320 1885 
C 653 2408 986 2408 1146 2408 
L 1677 2408 
L 1011 223 
C 979 127 979 114 979 95 
C 979 25 1024 -64 1152 -64 
C 1350 -64 1382 108 1402 203 
L 1837 2408 
z
" transform="scale(0.015625)"/>
      </defs>
      <use xlink:href="#CMMI12-1c" transform="scale(0.996264)"/>
     </g>
    </g>
   </g>
   <g id="matplotlib.axis_2">
    <g id="ytick_1">
     <g id="line2d_9">
      <defs>
       <path id="m8610b44388" d="M 0 0 
L -3.5 0 
" style="stroke: #000000; stroke-width: 0.8"/>
      </defs>
      <g>
       <use xlink:href="#m8610b44388" x="33.707196" y="193.679328" style="stroke: #000000; stroke-width: 0.8"/>
      </g>
     </g>
     <g id="text_10">
      <!-- $\mathdefault{−1.0}$ -->
      <g transform="translate(7.2 196.446729) scale(0.08 -0.08)">
       <defs>
        <path id="CMSY10-0" d="M 4218 1472 
C 4326 1472 4442 1472 4442 1600 
C 4442 1728 4326 1728 4218 1728 
L 755 1728 
C 646 1728 531 1728 531 1600 
C 531 1472 646 1472 755 1472 
L 4218 1472 
z
" transform="scale(0.015625)"/>
        <path id="CMMI12-3a" d="M 1178 307 
C 1178 492 1024 619 870 619 
C 685 619 557 466 557 313 
C 557 128 710 0 864 0 
C 1050 0 1178 153 1178 307 
z
" transform="scale(0.015625)"/>
       </defs>
       <use xlink:href="#CMSY10-0" transform="scale(0.996264)"/>
       <use xlink:href="#CMR17-31" transform="translate(77.487468 0) scale(0.996264)"/>
       <use xlink:href="#CMMI12-3a" transform="translate(123.177945 0) scale(0.996264)"/>
       <use xlink:href="#CMR17-30" transform="translate(150.275122 0) scale(0.996264)"/>
      </g>
     </g>
    </g>
    <g id="ytick_2">
     <g id="line2d_10">
      <g>
       <use xlink:href="#m8610b44388" x="33.707196" y="158.467803" style="stroke: #000000; stroke-width: 0.8"/>
      </g>
     </g>
     <g id="text_11">
      <!-- $\mathdefault{−0.8}$ -->
      <g transform="translate(7.2 161.235204) scale(0.08 -0.08)">
       <defs>
        <path id="CMR17-38" d="M 1741 2264 
C 2144 2467 2554 2773 2554 3263 
C 2554 3841 1990 4179 1472 4179 
C 890 4179 378 3759 378 3180 
C 378 3021 416 2747 666 2505 
C 730 2442 998 2251 1171 2130 
C 883 1983 211 1634 211 934 
C 211 279 838 -128 1459 -128 
C 2144 -128 2720 362 2720 1010 
C 2720 1590 2330 1857 2074 2029 
L 1741 2264 
z
M 902 2822 
C 851 2854 595 3051 595 3351 
C 595 3739 998 4032 1459 4032 
C 1965 4032 2336 3676 2336 3262 
C 2336 2669 1670 2331 1638 2331 
C 1632 2331 1626 2331 1574 2370 
L 902 2822 
z
M 2080 1519 
C 2176 1449 2483 1240 2483 851 
C 2483 381 2010 25 1472 25 
C 890 25 448 438 448 940 
C 448 1443 838 1862 1280 2060 
L 2080 1519 
z
" transform="scale(0.015625)"/>
       </defs>
       <use xlink:href="#CMSY10-0" transform="scale(0.996264)"/>
       <use xlink:href="#CMR17-30" transform="translate(77.487468 0) scale(0.996264)"/>
       <use xlink:href="#CMMI12-3a" transform="translate(123.177945 0) scale(0.996264)"/>
       <use xlink:href="#CMR17-38" transform="translate(150.275122 0) scale(0.996264)"/>
      </g>
     </g>
    </g>
    <g id="ytick_3">
     <g id="line2d_11">
      <g>
       <use xlink:href="#m8610b44388" x="33.707196" y="123.256278" style="stroke: #000000; stroke-width: 0.8"/>
      </g>
     </g>
     <g id="text_12">
      <!-- $\mathdefault{−0.6}$ -->
      <g transform="translate(7.2 126.023679) scale(0.08 -0.08)">
       <defs>
        <path id="CMR17-36" d="M 678 2176 
C 678 3690 1395 4032 1811 4032 
C 1946 4032 2272 4009 2400 3776 
C 2298 3776 2106 3776 2106 3553 
C 2106 3381 2246 3323 2336 3323 
C 2394 3323 2566 3348 2566 3560 
C 2566 3954 2246 4179 1805 4179 
C 1043 4179 243 3390 243 1984 
C 243 253 966 -128 1478 -128 
C 2099 -128 2688 427 2688 1283 
C 2688 2081 2170 2662 1517 2662 
C 1126 2662 838 2407 678 1960 
L 678 2176 
z
M 1478 25 
C 691 25 691 1200 691 1436 
C 691 1896 909 2560 1504 2560 
C 1613 2560 1926 2560 2138 2120 
C 2253 1870 2253 1609 2253 1289 
C 2253 944 2253 690 2118 434 
C 1978 171 1773 25 1478 25 
z
" transform="scale(0.015625)"/>
       </defs>
       <use xlink:href="#CMSY10-0" transform="scale(0.996264)"/>
       <use xlink:href="#CMR17-30" transform="translate(77.487468 0) scale(0.996264)"/>
       <use xlink:href="#CMMI12-3a" transform="translate(123.177945 0) scale(0.996264)"/>
       <use xlink:href="#CMR17-36" transform="translate(150.275122 0) scale(0.996264)"/>
      </g>
     </g>
    </g>
    <g id="ytick_4">
     <g id="line2d_12">
      <g>
       <use xlink:href="#m8610b44388" x="33.707196" y="88.044753" style="stroke: #000000; stroke-width: 0.8"/>
      </g>
     </g>
     <g id="text_13">
      <!-- $\mathdefault{−0.4}$ -->
      <g transform="translate(7.2 90.812154) scale(0.08 -0.08)">
       <defs>
        <path id="CMR17-34" d="M 2150 4122 
C 2150 4256 2144 4256 2029 4256 
L 128 1254 
L 128 1088 
L 1779 1088 
L 1779 457 
C 1779 224 1766 160 1318 160 
L 1197 160 
L 1197 0 
C 1402 0 1747 0 1965 0 
C 2182 0 2528 0 2733 0 
L 2733 160 
L 2611 160 
C 2163 160 2150 224 2150 457 
L 2150 1088 
L 2803 1088 
L 2803 1254 
L 2150 1254 
L 2150 4122 
z
M 1798 3703 
L 1798 1254 
L 256 1254 
L 1798 3703 
z
" transform="scale(0.015625)"/>
       </defs>
       <use xlink:href="#CMSY10-0" transform="scale(0.996264)"/>
       <use xlink:href="#CMR17-30" transform="translate(77.487468 0) scale(0.996264)"/>
       <use xlink:href="#CMMI12-3a" transform="translate(123.177945 0) scale(0.996264)"/>
       <use xlink:href="#CMR17-34" transform="translate(150.275122 0) scale(0.996264)"/>
      </g>
     </g>
    </g>
    <g id="ytick_5">
     <g id="line2d_13">
      <g>
       <use xlink:href="#m8610b44388" x="33.707196" y="52.833228" style="stroke: #000000; stroke-width: 0.8"/>
      </g>
     </g>
     <g id="text_14">
      <!-- $\mathdefault{−0.2}$ -->
      <g transform="translate(7.2 55.600628) scale(0.08 -0.08)">
       <use xlink:href="#CMSY10-0" transform="scale(0.996264)"/>
       <use xlink:href="#CMR17-30" transform="translate(77.487468 0) scale(0.996264)"/>
       <use xlink:href="#CMMI12-3a" transform="translate(123.177945 0) scale(0.996264)"/>
       <use xlink:href="#CMR17-32" transform="translate(150.275122 0) scale(0.996264)"/>
      </g>
     </g>
    </g>
    <g id="ytick_6">
     <g id="line2d_14">
      <g>
       <use xlink:href="#m8610b44388" x="33.707196" y="17.621703" style="stroke: #000000; stroke-width: 0.8"/>
      </g>
     </g>
     <g id="text_15">
      <!-- $\mathdefault{0.0}$ -->
      <g transform="translate(13.786507 20.389103) scale(0.08 -0.08)">
       <use xlink:href="#CMR17-30" transform="scale(0.996264)"/>
       <use xlink:href="#CMMI12-3a" transform="translate(45.690477 0) scale(0.996264)"/>
       <use xlink:href="#CMR17-30" transform="translate(72.787654 0) scale(0.996264)"/>
      </g>
     </g>
    </g>
   </g>
   <g id="line2d_15">
    <path d="M 43.356847 193.679328 
L 52.684843 193.569393 
L 53.006498 193.304854 
L 53.328153 192.669978 
L 53.649808 191.396517 
L 53.971463 189.182351 
L 54.357449 184.898574 
L 54.872098 176.109194 
L 55.64407 158.088768 
L 57.188014 121.976019 
L 58.024317 107.428146 
L 58.796289 98.375119 
L 59.761254 89.508124 
L 60.597557 84.106342 
L 62.334494 75.542428 
L 63.299459 72.011236 
L 63.878439 69.932878 
L 64.328756 69.143907 
L 64.972066 68.190033 
L 66.130024 65.545839 
L 66.644672 64.633825 
L 67.030658 64.350856 
L 67.416644 64.049179 
L 67.80263 63.408077 
L 68.381609 62.370526 
L 68.703264 62.203205 
L 69.668229 62.217028 
L 69.989884 62.512671 
L 70.440201 63.262252 
L 71.533828 65.766731 
L 72.691787 68.488275 
L 73.206435 69.057382 
L 73.914076 69.503678 
L 74.557386 69.629043 
L 77.259288 69.637063 
L 86.072636 69.527957 
L 86.651615 69.565762 
L 87.037601 69.824254 
L 87.423587 70.359141 
L 87.745242 71.195751 
L 88.195559 73.172484 
L 88.774538 76.893403 
L 89.482179 83.062553 
L 92.248413 108.70298 
L 93.213378 114.773633 
L 93.98535 118.350693 
L 95.014646 122.166358 
L 95.91528 124.76358 
L 96.55859 125.981054 
L 98.102534 128.322228 
L 98.810175 129.078629 
L 99.775141 129.676127 
L 100.289789 129.713921 
L 100.804437 129.754255 
L 101.126092 130.001825 
L 101.576409 130.693033 
L 102.026726 131.831836 
L 102.670036 134.197554 
L 103.635001 138.690073 
L 104.728628 143.449239 
L 105.307607 145.064205 
L 105.822255 145.847076 
L 106.272572 146.164824 
L 106.851551 146.288862 
L 108.845813 146.302139 
L 117.080182 146.209204 
L 117.401837 145.980748 
L 117.723492 145.465831 
L 118.045147 144.480217 
L 118.431133 142.39025 
L 118.88145 138.322289 
L 119.396098 131.315782 
L 121.969338 92.111139 
L 122.676979 85.356882 
L 123.320289 81.142554 
L 124.02793 78.133434 
L 125.764867 71.439155 
L 126.343847 70.099921 
L 127.051488 68.351627 
L 128.917087 65.026527 
L 130.075045 64.079035 
L 130.3967 63.893789 
L 130.847017 63.800997 
L 131.168672 63.404866 
L 131.618989 62.877354 
L 132.197968 62.457698 
L 132.776947 61.783381 
L 133.034271 61.891248 
L 133.870574 62.782438 
L 135.285857 64.792726 
L 136.315153 67.139014 
L 137.087125 68.846418 
L 137.601773 69.452216 
L 138.180752 69.754233 
L 138.952724 69.893081 
L 141.654626 69.902263 
L 151.175615 69.97697 
L 151.561601 70.320654 
L 151.883256 70.894377 
L 152.269242 72.068937 
L 152.71956 74.184431 
L 153.234208 77.815211 
L 154.070511 85.764908 
L 156.064772 105.013748 
L 157.22273 113.140877 
L 157.994702 117.402894 
L 158.702343 120.035266 
L 159.988963 123.848914 
L 161.018259 126.202785 
L 161.983225 127.869671 
L 163.141183 129.290846 
L 163.848824 129.820614 
L 164.942451 130.344077 
L 165.52143 130.764148 
L 165.971747 131.451224 
L 166.486395 132.675619 
L 167.129705 134.869867 
L 167.901677 138.505205 
L 168.995304 143.562344 
L 169.574283 145.298151 
L 170.088931 146.180779 
L 170.539249 146.550078 
L 171.118228 146.707717 
L 172.597841 146.727338 
L 181.346858 146.630557 
L 181.732844 146.367737 
L 182.054499 145.837874 
L 182.376154 144.812107 
L 182.76214 142.658955 
L 183.212457 138.635498 
L 183.727105 131.911007 
L 186.557669 90.217941 
L 187.586965 82.112984 
L 188.294607 77.744267 
L 189.13091 73.795912 
L 189.77422 72.066453 
L 191.70415 67.559395 
L 192.025805 67.336231 
L 192.540453 67.11254 
L 192.862108 66.726517 
L 193.248094 65.805536 
L 193.762742 64.555586 
L 194.148728 64.133455 
L 195.949996 62.80667 
L 196.335982 62.411149 
L 196.657637 62.411946 
L 197.043624 62.374302 
L 197.622603 62.268037 
L 198.07292 62.421339 
L 198.458906 62.780003 
L 199.295209 64.127043 
L 199.938519 65.425117 
L 201.482463 68.821765 
L 201.997111 69.427166 
L 202.511759 69.6955 
L 203.283731 69.814609 
L 207.143592 69.820885 
L 214.412995 69.710482 
L 215.377961 69.777602 
L 215.763947 70.004155 
L 216.085602 70.453042 
L 216.407257 71.286754 
L 216.793243 72.943124 
L 217.372222 76.556446 
L 218.015532 82.046054 
L 220.717434 107.749381 
L 221.811061 114.936108 
L 222.583033 118.662741 
L 223.67666 122.499849 
L 224.577295 124.955069 
L 225.670922 126.99609 
L 226.507225 127.9747 
L 228.051169 129.52813 
L 229.144796 130.437442 
L 230.174092 131.214339 
L 230.560078 131.826182 
L 231.010395 133.003596 
L 231.589374 135.161309 
L 232.61867 140.053881 
L 233.454974 143.540315 
L 234.033953 145.102503 
L 234.548601 145.851928 
L 234.998918 146.147522 
L 235.577897 146.261276 
L 236.349869 146.271268 
L 236.349869 146.271268 
" clip-path="url(#pbe9fa217ff)" style="fill: none; stroke: #ff7f0e; stroke-width: 0.5; stroke-linecap: square"/>
   </g>
   <g id="line2d_16">
    <path d="M 43.356847 17.621703 
L 53.649808 17.513537 
L 55.00076 17.411047 
L 56.223049 17.421163 
L 56.995021 17.333294 
L 58.538965 17.582069 
L 59.568261 17.43931 
L 60.082909 17.584783 
L 60.533226 17.729721 
L 60.919212 17.609278 
L 61.498191 17.18068 
L 61.948508 16.806682 
L 62.270163 16.848317 
L 63.299459 17.196134 
L 64.007101 17.25501 
L 64.521749 17.100998 
L 65.422383 16.60399 
L 65.744038 16.866155 
L 66.51601 17.616633 
L 66.773334 17.642762 
L 67.15932 17.382015 
L 67.995623 16.703203 
L 68.381609 16.766811 
L 68.896257 17.184307 
L 70.054215 18.160872 
L 70.440201 18.232696 
L 70.761856 18.066752 
L 71.726821 17.29668 
L 72.048476 17.369681 
L 73.270766 17.988684 
L 73.721083 17.768484 
L 74.686048 17.157222 
L 75.072034 17.227284 
L 75.586682 17.60405 
L 76.229992 18.052395 
L 76.615978 18.069478 
L 77.066295 17.822347 
L 78.03126 17.176163 
L 78.481577 17.19247 
L 79.060556 17.498737 
L 80.025521 18.029035 
L 80.6045 18.084275 
L 81.312142 17.899593 
L 83.435065 17.159213 
L 84.207037 17.222324 
L 85.172002 17.570967 
L 86.587284 18.071924 
L 87.359256 18.036382 
L 88.324221 17.863054 
L 89.54651 17.314023 
L 90.511476 17.378511 
L 90.961793 17.629463 
L 91.926758 18.277335 
L 92.505737 18.248803 
L 93.535033 17.89999 
L 94.114012 17.752066 
L 94.885984 17.835546 
L 95.979611 18.005055 
L 97.523555 17.653822 
L 98.166865 17.351243 
L 98.874506 17.257043 
L 99.517817 17.3637 
L 100.096796 17.718217 
L 100.933099 18.326413 
L 101.447747 18.343843 
L 103.184684 18.079839 
L 103.763663 17.73015 
L 104.985952 16.868231 
L 105.629262 16.690089 
L 106.14391 16.795864 
L 106.78722 17.18601 
L 108.65282 18.50973 
L 109.167468 18.539144 
L 109.682116 18.334334 
L 110.261095 17.846525 
L 111.483384 16.726106 
L 111.86937 16.721652 
L 112.255356 17.006759 
L 112.834335 17.820829 
L 113.413314 18.494472 
L 113.734969 18.534051 
L 114.056624 18.275385 
L 114.635603 17.353233 
L 115.08592 16.777696 
L 115.407575 16.700469 
L 115.664899 16.872992 
L 116.115216 17.536396 
L 116.758526 18.451274 
L 117.015851 18.541738 
L 117.273175 18.415883 
L 117.659161 17.898302 
L 118.366802 16.873748 
L 118.624126 16.799905 
L 118.88145 16.953992 
L 119.331767 17.607254 
L 119.910746 18.413661 
L 120.296732 18.598598 
L 120.618387 18.522181 
L 121.068704 18.141702 
L 121.905007 17.364488 
L 122.290993 17.341501 
L 123.963599 17.624557 
L 124.285254 17.44349 
L 125.121557 16.74218 
L 125.378881 16.924277 
L 126.343847 17.902516 
L 126.601171 17.80412 
L 127.373143 17.249607 
L 127.630467 17.535127 
L 128.209446 18.228951 
L 128.531101 18.290305 
L 128.852756 18.098891 
L 129.303073 17.517551 
L 130.139376 16.340792 
L 130.332369 16.396551 
L 130.589693 16.770992 
L 131.361665 18.170337 
L 131.618989 18.181398 
L 131.876313 17.937599 
L 132.841278 16.624568 
L 133.034271 16.839219 
L 133.355926 17.663089 
L 133.870574 18.939619 
L 134.063567 18.971689 
L 134.25656 18.708454 
L 135.350188 16.617137 
L 135.607512 16.76038 
L 135.993498 17.350865 
L 136.701139 18.485879 
L 136.958463 18.587282 
L 137.215787 18.449695 
L 137.601773 17.87789 
L 138.309414 16.771699 
L 138.631069 16.662348 
L 138.888393 16.818687 
L 139.274379 17.371348 
L 140.046351 18.513566 
L 140.303675 18.583541 
L 140.560999 18.436688 
L 140.946985 17.897672 
L 141.718957 16.756429 
L 142.040612 16.661558 
L 142.362267 16.855691 
L 142.876915 17.548502 
L 143.584556 18.428982 
L 143.970543 18.586145 
L 144.356529 18.489009 
L 144.871177 18.081942 
L 146.286459 16.818947 
L 146.865438 16.656962 
L 147.380086 16.749097 
L 147.959065 17.085635 
L 150.081988 18.593223 
L 150.532305 18.550596 
L 151.432939 18.134032 
L 153.041215 17.45014 
L 153.813187 17.463615 
L 155.035476 17.449366 
L 156.386427 17.579034 
L 157.86604 17.392604 
L 158.573681 17.069265 
L 159.088329 16.940495 
L 159.79597 17.086152 
L 162.755197 17.704105 
L 163.913155 17.554909 
L 164.556465 17.718829 
L 165.264106 17.881002 
L 168.09467 17.620116 
L 169.509952 17.400785 
L 170.60358 17.442005 
L 173.884461 17.804413 
L 175.235412 17.488405 
L 176.071715 17.393659 
L 176.779356 17.548038 
L 177.937314 17.852513 
L 178.516293 17.722151 
L 179.609921 17.390305 
L 180.1889 17.514799 
L 181.282527 17.826801 
L 181.797175 17.684191 
L 183.212457 17.092563 
L 183.791436 17.284926 
L 185.142387 17.780136 
L 185.464042 17.628623 
L 185.914359 17.080932 
L 186.364676 16.662844 
L 186.622 16.734498 
L 186.943655 17.148699 
L 187.651296 18.191229 
L 187.90862 18.159207 
L 188.230276 17.847342 
L 188.744924 17.299159 
L 189.002248 17.326707 
L 189.77422 17.564136 
L 190.41753 17.293966 
L 191.125171 17.098033 
L 191.382495 17.322953 
L 192.025805 18.059518 
L 192.283129 17.935466 
L 193.183763 17.269541 
L 193.441087 17.403781 
L 194.470383 18.239488 
L 194.727707 18.151971 
L 195.049362 17.741629 
L 195.628341 16.987986 
L 195.821334 17.024774 
L 196.142989 17.393149 
L 196.786299 18.165929 
L 197.107955 18.297718 
L 197.42961 18.152803 
L 198.651899 17.290679 
L 199.037885 17.298952 
L 200.195843 17.745225 
L 200.581829 17.79125 
L 201.096477 17.55079 
L 201.93278 17.187247 
L 202.318766 17.253504 
L 202.833414 17.607343 
L 203.541055 18.045862 
L 203.927041 18.023128 
L 204.377358 17.751636 
L 205.213661 17.201158 
L 205.599647 17.21357 
L 206.114296 17.511956 
L 206.950599 18.029792 
L 207.400916 18.041347 
L 207.979895 17.791607 
L 209.137853 17.22884 
L 209.781163 17.191778 
L 210.553135 17.38812 
L 212.676058 18.060039 
L 213.512361 17.989154 
L 214.670319 17.64241 
L 216.149933 17.294647 
L 216.857574 17.426147 
L 219.237821 18.194324 
L 221.039089 17.837664 
L 221.489406 17.597678 
L 222.132716 17.28591 
L 223.03335 17.184581 
L 224.126978 17.363197 
L 225.54226 18.144506 
L 225.992577 18.286556 
L 226.571556 18.166492 
L 227.086204 17.920217 
L 227.793845 17.473862 
L 228.372824 17.434579 
L 229.209127 17.730066 
L 229.916768 17.843785 
L 230.881733 17.931438 
L 231.396381 17.980227 
L 232.104022 17.707077 
L 233.326312 17.240622 
L 234.033953 17.230005 
L 234.998918 17.435228 
L 236.349869 17.881969 
L 236.349869 17.881969 
" clip-path="url(#pbe9fa217ff)" style="fill: none; stroke: #2ca02c; stroke-width: 0.5; stroke-linecap: square"/>
   </g>
   <g id="line2d_17">
    <path d="M 43.356847 17.621703 
L 53.907132 17.730585 
L 54.550442 17.718271 
L 55.451077 17.645797 
L 56.351711 17.798029 
L 56.737697 17.639832 
L 57.252345 17.349629 
L 57.959986 17.547021 
L 58.989282 17.781234 
L 60.211571 17.390238 
L 61.176536 18.051086 
L 61.562522 18.246865 
L 61.755515 18.075108 
L 62.334494 17.416022 
L 62.849142 17.425853 
L 64.007101 17.649585 
L 64.457418 17.926165 
L 64.843404 18.133929 
L 65.036397 18.022225 
L 65.358052 17.484276 
L 65.744038 16.888309 
L 66.001362 16.861804 
L 66.323017 17.100587 
L 66.901996 17.958273 
L 67.352313 18.354905 
L 67.609637 18.281133 
L 68.703264 17.314847 
L 69.668229 17.274506 
L 70.247208 17.617977 
L 71.01918 18.13831 
L 71.340835 17.956595 
L 72.3058 17.185792 
L 72.691787 17.267307 
L 73.206435 17.650002 
L 73.785414 18.039147 
L 74.1714 18.028469 
L 74.621717 17.742924 
L 75.45802 17.170159 
L 75.844006 17.197374 
L 76.294323 17.487445 
L 77.130626 18.06661 
L 77.516612 18.060568 
L 77.966929 17.817209 
L 78.996225 17.1823 
L 79.510873 17.184782 
L 80.154183 17.455996 
L 81.440804 18.0333 
L 82.148445 18.082635 
L 82.920417 17.907058 
L 85.429326 17.126103 
L 86.201298 17.239399 
L 87.166263 17.648125 
L 88.066897 18.019163 
L 88.774538 18.119276 
L 89.224855 17.95062 
L 90.125489 17.562576 
L 91.991089 17.427873 
L 92.505737 17.692327 
L 93.149047 18.021414 
L 93.663695 18.071775 
L 94.564329 17.804613 
L 95.400632 17.486777 
L 96.108273 17.607666 
L 97.266231 17.940216 
L 97.973872 17.757772 
L 99.196162 17.396486 
L 99.775141 17.507544 
L 100.547113 17.691023 
L 101.576409 17.625685 
L 102.477043 17.929575 
L 104.149649 18.362153 
L 104.728628 18.249224 
L 105.307607 17.857654 
L 106.722889 16.821081 
L 107.301868 16.68858 
L 107.816516 16.791945 
L 108.459827 17.179149 
L 110.325426 18.541266 
L 110.775743 18.49412 
L 111.22606 18.173795 
L 111.933701 17.291286 
L 112.448349 16.76799 
L 112.770004 16.694069 
L 113.091659 16.879133 
L 113.541976 17.497121 
L 114.249617 18.472847 
L 114.571272 18.540938 
L 114.828596 18.364066 
L 115.278913 17.696766 
L 115.922223 16.782324 
L 116.243878 16.701129 
L 116.501202 16.873413 
L 116.95152 17.54951 
L 117.59483 18.488116 
L 117.852154 18.561717 
L 118.109478 18.388429 
L 118.495464 17.767688 
L 119.138774 16.756867 
L 119.396098 16.678184 
L 119.653422 16.850205 
L 121.004373 18.245105 
L 121.326028 18.24116 
L 121.840676 17.904632 
L 122.74131 17.332707 
L 123.062965 17.455615 
L 123.448951 17.563759 
L 123.834937 17.618526 
L 124.220923 17.995158 
L 124.542578 18.188989 
L 124.735571 18.06968 
L 125.121557 17.427626 
L 125.507543 16.94801 
L 125.700536 16.978141 
L 126.022192 17.317184 
L 126.729833 18.159872 
L 126.922826 18.062709 
L 127.244481 17.503374 
L 127.630467 16.829435 
L 127.82346 16.823742 
L 128.080784 17.122941 
L 128.981418 18.370739 
L 129.431735 18.558846 
L 129.689059 18.462139 
L 130.010714 18.006521 
L 130.847017 16.42373 
L 131.04001 16.620484 
L 132.262299 18.712209 
L 132.455292 18.527002 
L 132.776947 17.642394 
L 133.291595 16.160064 
L 133.484588 16.108368 
L 133.677581 16.466336 
L 134.578215 18.931225 
L 134.771209 18.819756 
L 135.092864 18.253696 
L 135.800505 16.886038 
L 136.12216 16.692829 
L 136.379484 16.814997 
L 136.701139 17.265616 
L 137.537442 18.555087 
L 137.794766 18.60005 
L 138.05209 18.427333 
L 138.502407 17.750285 
L 139.145717 16.77572 
L 139.467372 16.66087 
L 139.724696 16.812952 
L 140.110682 17.361362 
L 140.882654 18.507686 
L 141.139978 18.585141 
L 141.397302 18.452837 
L 141.783288 17.948749 
L 142.619591 16.769744 
L 142.941246 16.656543 
L 143.262901 16.78348 
L 143.713219 17.246889 
L 144.742515 18.392229 
L 145.192832 18.578302 
L 145.643149 18.531251 
L 146.222128 18.20702 
L 148.409382 16.667802 
L 148.92403 16.691503 
L 149.503009 16.947588 
L 150.467974 17.675338 
L 151.368608 18.220961 
L 152.14058 18.45911 
L 152.462235 18.346681 
L 153.491532 17.802242 
L 154.456497 17.618729 
L 155.099807 17.466875 
L 155.485793 17.432459 
L 156.57942 17.82982 
L 157.22273 17.967784 
L 158.316357 17.723486 
L 159.538646 17.415524 
L 160.696604 17.177717 
L 161.404245 17.307716 
L 162.30488 17.476736 
L 163.012521 17.415468 
L 163.848824 17.522598 
L 166.550726 17.86093 
L 167.001043 17.930343 
L 169.831607 17.67893 
L 171.182559 17.404627 
L 172.211855 17.43424 
L 173.884461 17.763718 
L 174.913757 17.847501 
L 175.75006 17.685992 
L 177.03668 17.391295 
L 177.67999 17.535223 
L 178.773617 17.853039 
L 179.352597 17.726293 
L 180.446224 17.39133 
L 180.960872 17.500466 
L 182.376154 17.974806 
L 182.890802 17.836701 
L 184.434746 17.279659 
L 184.820732 17.503337 
L 185.97869 18.339679 
L 186.236014 18.027224 
L 186.943655 16.883056 
L 187.200979 16.834625 
L 187.458303 17.089846 
L 188.230276 18.177966 
L 188.4876 18.177801 
L 188.809255 17.856076 
L 189.259572 17.438604 
L 189.516896 17.536905 
L 190.095875 17.908728 
L 190.481861 17.809642 
L 191.06084 17.433056 
L 191.511157 16.956072 
L 191.70415 17.090983 
L 192.540453 18.249034 
L 192.797777 18.05378 
L 193.698411 17.015851 
L 193.955735 17.131999 
L 194.470383 17.756215 
L 195.049362 18.504587 
L 195.242355 18.450085 
L 195.499679 18.013786 
L 196.078658 16.787082 
L 196.271651 16.765463 
L 196.657637 17.093857 
L 197.751265 18.148212 
L 198.07292 18.03249 
L 199.295209 17.289539 
L 200.324505 17.469128 
L 201.160808 18.008805 
L 201.546794 17.934302 
L 202.125773 17.517475 
L 202.704752 17.192544 
L 203.090738 17.221066 
L 203.541055 17.496367 
L 204.377358 18.044327 
L 204.763344 18.025202 
L 205.213661 17.758216 
L 206.049965 17.208665 
L 206.435951 17.200772 
L 206.950599 17.451538 
L 207.979895 18.0299 
L 208.494543 18.043682 
L 209.202184 17.794757 
L 210.617466 17.232484 
L 211.389438 17.191878 
L 212.225741 17.38916 
L 214.348664 18.042188 
L 215.31363 17.958172 
L 217.951201 17.46424 
L 219.109159 17.701258 
L 219.623807 17.746845 
L 222.068385 17.460978 
L 224.319971 16.564925 
L 224.89895 16.805958 
L 225.477929 17.297479 
L 226.121239 17.805159 
L 226.700218 18.004395 
L 227.214866 17.890284 
L 227.922507 17.778129 
L 232.297015 18.057315 
L 233.84096 17.60631 
L 235.191911 17.256237 
L 236.028214 17.27842 
L 236.349869 17.342886 
L 236.349869 17.342886 
" clip-path="url(#pbe9fa217ff)" style="fill: none; stroke: #d62728; stroke-width: 0.5; stroke-linecap: square"/>
   </g>
   <g id="patch_3">
    <path d="M 33.707196 202.559296 
L 33.707196 7.2 
" style="fill: none; stroke: #000000; stroke-width: 0.8; stroke-linejoin: miter; stroke-linecap: square"/>
   </g>
   <g id="patch_4">
    <path d="M 245.99952 202.559296 
L 245.99952 7.2 
" style="fill: none; stroke: #000000; stroke-width: 0.8; stroke-linejoin: miter; stroke-linecap: square"/>
   </g>
   <g id="patch_5">
    <path d="M 33.707196 202.559296 
L 245.99952 202.559296 
" style="fill: none; stroke: #000000; stroke-width: 0.8; stroke-linejoin: miter; stroke-linecap: square"/>
   </g>
   <g id="patch_6">
    <path d="M 33.707196 7.2 
L 245.99952 7.2 
" style="fill: none; stroke: #000000; stroke-width: 0.8; stroke-linejoin: miter; stroke-linecap: square"/>
   </g>
   <g id="legend_1">
    <g id="patch_7">
     <path d="M 193.792605 198.059296 
L 239.69952 198.059296 
Q 241.49952 198.059296 241.49952 196.259296 
L 241.49952 156.760168 
Q 241.49952 154.960168 239.69952 154.960168 
L 193.792605 154.960168 
Q 191.992605 154.960168 191.992605 156.760168 
L 191.992605 196.259296 
Q 191.992605 198.059296 193.792605 198.059296 
z
" style="fill: #ffffff; opacity: 0.8; stroke: #cccccc; stroke-width: 0.24; stroke-linejoin: miter"/>
    </g>
    <g id="line2d_18">
     <path d="M 195.592605 162.13495 
L 204.592605 162.13495 
L 213.592605 162.13495 
" style="fill: none; stroke: #ff7f0e; stroke-width: 0.5; stroke-linecap: square"/>
    </g>
    <g id="text_16">
     <!-- $\langle \sigma_z\rangle$ -->
     <g transform="translate(220.792605 165.28495) scale(0.09 -0.09)">
      <defs>
       <path id="CMSY10-68" d="M 2099 4557 
C 2131 4627 2131 4640 2131 4672 
C 2131 4742 2074 4800 2003 4800 
C 1946 4800 1901 4768 1856 4653 
L 736 1715 
C 723 1677 704 1638 704 1600 
C 704 1581 704 1568 736 1491 
L 1856 -1446 
C 1882 -1517 1914 -1600 2003 -1600 
C 2074 -1600 2131 -1542 2131 -1472 
C 2131 -1453 2131 -1440 2099 -1370 
L 966 1600 
L 2099 4557 
z
" transform="scale(0.015625)"/>
       <path id="CMMI12-1b" d="M 3251 2408 
C 3334 2408 3546 2408 3546 2612 
C 3546 2752 3424 2752 3309 2752 
L 1894 2752 
C 934 2752 243 1686 243 932 
C 243 390 595 -64 1171 -64 
C 1926 -64 2752 747 2752 1705 
C 2752 1954 2694 2196 2541 2408 
L 3251 2408 
z
M 1178 64 
C 851 64 614 313 614 754 
C 614 1137 845 2408 1786 2408 
C 2061 2408 2368 2274 2368 1781 
C 2368 1558 2266 1021 2042 652 
C 1811 275 1466 64 1178 64 
z
" transform="scale(0.015625)"/>
       <path id="CMMI12-7a" d="M 813 486 
C 1088 803 1312 1004 1632 1296 
C 2016 1632 2182 1793 2272 1891 
C 2720 2338 2944 2713 2944 2764 
C 2944 2816 2893 2816 2880 2816 
C 2835 2816 2822 2793 2790 2750 
C 2630 2494 2477 2367 2310 2367 
C 2176 2367 2106 2421 1984 2565 
C 1850 2715 1741 2816 1555 2816 
C 1088 2816 806 2257 806 2128 
C 806 2108 813 2068 870 2068 
C 922 2068 928 2091 947 2133 
C 1056 2372 1363 2414 1485 2414 
C 1619 2414 1747 2376 1882 2327 
C 2125 2240 2227 2240 2291 2240 
C 2336 2240 2362 2240 2394 2246 
C 2182 1994 1837 1683 1549 1418 
L 902 816 
C 512 415 275 33 275 -12 
C 275 -51 307 -64 346 -64 
C 384 -64 390 -57 435 14 
C 538 163 742 384 979 384 
C 1114 384 1178 342 1306 193 
C 1427 61 1536 -64 1741 -64 
C 2368 -64 2726 732 2726 876 
C 2726 903 2720 942 2656 942 
C 2605 942 2598 917 2579 855 
C 2438 488 2061 338 1811 338 
C 1677 338 1549 376 1414 425 
C 1158 512 1088 512 1005 512 
C 941 512 870 512 813 486 
z
" transform="scale(0.015625)"/>
       <path id="CMSY10-69" d="M 1747 1491 
C 1779 1568 1779 1581 1779 1600 
C 1779 1619 1779 1632 1747 1709 
L 627 4653 
C 589 4762 550 4800 480 4800 
C 410 4800 352 4742 352 4672 
C 352 4653 352 4640 384 4570 
L 1517 1600 
L 384 -1357 
C 352 -1427 352 -1440 352 -1472 
C 352 -1542 410 -1600 480 -1600 
C 563 -1600 589 -1536 614 -1472 
L 1747 1491 
z
" transform="scale(0.015625)"/>
      </defs>
      <use xlink:href="#CMSY10-68" transform="scale(0.996264)"/>
      <use xlink:href="#CMMI12-1b" transform="translate(38.743734 0) scale(0.996264)"/>
      <use xlink:href="#CMMI12-7a" transform="translate(94.189195 -14.943915) scale(0.697382)"/>
      <use xlink:href="#CMSY10-69" transform="translate(129.51575 0) scale(0.996264)"/>
     </g>
    </g>
    <g id="line2d_19">
     <path d="M 195.592605 175.601326 
L 204.592605 175.601326 
L 213.592605 175.601326 
" style="fill: none; stroke: #2ca02c; stroke-width: 0.5; stroke-linecap: square"/>
    </g>
    <g id="text_17">
     <!-- $\langle \sigma_x\rangle$ -->
     <g transform="translate(220.792605 178.751326) scale(0.09 -0.09)">
      <defs>
       <path id="CMMI12-78" d="M 3034 2606 
C 2829 2567 2752 2414 2752 2293 
C 2752 2139 2874 2088 2963 2088 
C 3155 2088 3290 2254 3290 2427 
C 3290 2695 2982 2816 2714 2816 
C 2323 2816 2106 2433 2048 2312 
C 1901 2816 1504 2816 1389 2816 
C 736 2816 390 1980 390 1839 
C 390 1814 416 1782 461 1782 
C 512 1782 525 1820 538 1846 
C 755 2555 1184 2689 1370 2689 
C 1658 2689 1715 2420 1715 2267 
C 1715 2127 1677 1980 1600 1673 
L 1382 798 
C 1286 415 1101 64 762 64 
C 730 64 570 64 435 147 
C 666 192 717 383 717 460 
C 717 588 621 664 499 664 
C 346 664 179 530 179 326 
C 179 57 480 -64 755 -64 
C 1062 -64 1280 179 1414 441 
C 1517 64 1837 -64 2074 -64 
C 2726 -64 3072 773 3072 913 
C 3072 945 3046 971 3008 971 
C 2950 971 2944 939 2925 888 
C 2752 326 2381 64 2093 64 
C 1869 64 1747 230 1747 492 
C 1747 632 1773 734 1875 1156 
L 2099 2024 
C 2195 2408 2413 2689 2707 2689 
C 2720 2689 2899 2689 3034 2606 
z
" transform="scale(0.015625)"/>
      </defs>
      <use xlink:href="#CMSY10-68" transform="scale(0.996264)"/>
      <use xlink:href="#CMMI12-1b" transform="translate(38.743734 0) scale(0.996264)"/>
      <use xlink:href="#CMMI12-78" transform="translate(94.189195 -14.943915) scale(0.697382)"/>
      <use xlink:href="#CMSY10-69" transform="translate(133.490986 0) scale(0.996264)"/>
     </g>
    </g>
    <g id="line2d_20">
     <path d="M 195.592605 189.067702 
L 204.592605 189.067702 
L 213.592605 189.067702 
" style="fill: none; stroke: #d62728; stroke-width: 0.5; stroke-linecap: square"/>
    </g>
    <g id="text_18">
     <!-- $\langle \sigma_y\rangle$ -->
     <g transform="translate(220.792605 192.217702) scale(0.09 -0.09)">
      <defs>
       <path id="CMMI12-79" d="M 1683 -700 
C 1510 -939 1261 -1152 947 -1152 
C 870 -1152 563 -1152 467 -889 
C 486 -895 518 -895 531 -895 
C 723 -895 851 -729 851 -582 
C 851 -435 730 -384 634 -384 
C 531 -384 307 -458 307 -759 
C 307 -1071 582 -1286 947 -1286 
C 1587 -1286 2234 -700 2413 6 
L 3040 2485 
C 3046 2517 3059 2556 3059 2594 
C 3059 2689 2982 2753 2886 2753 
C 2829 2753 2694 2727 2643 2535 
L 2170 658 
C 2138 543 2138 530 2086 460 
C 1958 281 1747 64 1440 64 
C 1082 64 1050 415 1050 588 
C 1050 952 1222 1443 1395 1903 
C 1466 2088 1504 2178 1504 2305 
C 1504 2574 1312 2816 998 2816 
C 410 2816 173 1890 173 1839 
C 173 1814 198 1782 243 1782 
C 301 1782 307 1807 333 1897 
C 486 2433 730 2689 979 2689 
C 1037 2689 1146 2689 1146 2478 
C 1146 2312 1075 2127 979 1884 
C 666 1047 666 837 666 683 
C 666 77 1101 -64 1421 -64 
C 1606 -64 1837 -6 2061 230 
L 2067 224 
C 1971 -147 1907 -392 1683 -700 
z
" transform="scale(0.015625)"/>
      </defs>
      <use xlink:href="#CMSY10-68" transform="scale(0.996264)"/>
      <use xlink:href="#CMMI12-1b" transform="translate(38.743734 0) scale(0.996264)"/>
      <use xlink:href="#CMMI12-79" transform="translate(94.189195 -14.943915) scale(0.697382)"/>
      <use xlink:href="#CMSY10-69" transform="translate(130.484301 0) scale(0.996264)"/>
     </g>
    </g>
   </g>
  </g>
 </g>
 <defs>
  <clipPath id="pbe9fa217ff">
   <rect x="33.707196" y="7.2" width="212.292324" height="195.359296"/>
  </clipPath>
 </defs>
</svg>
