<?xml version="1.0" encoding="utf-8" standalone="no"?>
<!DOCTYPE svg PUBLIC "-//W3C//DTD SVG 1.1//EN"
  "http://www.w3.org/Graphics/SVG/1.1/DTD/svg11.dtd">
<svg xmlns:xlink="http://www.w3.org/1999/xlink" width="253.19952pt" height="238.79952pt" viewBox="0 0 253.19952 238.79952" xmlns="http://www.w3.org/2000/svg" version="1.1">
 <metadata>
  <rdf:RDF xmlns:dc="http://purl.org/dc/elements/1.1/" xmlns:cc="http://creativecommons.org/ns#" xmlns:rdf="http://www.w3.org/1999/02/22-rdf-syntax-ns#">
   <cc:Work>
    <dc:type rdf:resource="http://purl.org/dc/dcmitype/StillImage"/>
    <dc:date>1980-01-01T00:00:00+00:00</dc:date>
    <dc:format>image/svg+xml</dc:format>
    <dc:creator>
     <cc:Agent>
      <dc:title>Matplotlib v3.6.2, https://matplotlib.org/</dc:title>
     </cc:Agent>
    </dc:creator>
   </cc:Work>
  </rdf:RDF>
 </metadata>
 <defs>
  <style type="text/css">*{stroke-linejoin: round; stroke-linecap: butt}</style>
 </defs>
 <g id="figure_1">
  <g id="patch_1">
   <path d="M 0 238.79952 
L 253.19952 238.79952 
L 253.19952 0 
L 0 0 
z
" style="fill: #ffffff"/>
  </g>
  <g id="axes_1">
   <g id="patch_2">
    <path d="M 33.707196 202.559296 
L 245.99952 202.559296 
L 245.99952 7.2 
L 33.707196 7.2 
z
" style="fill: #ffffff"/>
   </g>
   <g id="matplotlib.axis_1">
    <g id="xtick_1">
     <g id="line2d_1">
      <defs>
       <path id="m4e2c2e310a" d="M 0 0 
L 0 3.5 
" style="stroke: #000000; stroke-width: 0.8"/>
      </defs>
      <g>
       <use xlink:href="#m4e2c2e310a" x="43.356847" y="202.559296" style="stroke: #000000; stroke-width: 0.8"/>
      </g>
     </g>
     <g id="text_1">
      <!-- $\mathdefault{0}$ -->
      <g transform="translate(41.239756 217.194098) scale(0.08 -0.08)">
       <defs>
        <path id="CMR17-30" d="M 2688 2025 
C 2688 2416 2682 3080 2413 3591 
C 2176 4039 1798 4198 1466 4198 
C 1158 4198 768 4058 525 3597 
C 269 3118 243 2524 243 2025 
C 243 1661 250 1106 448 619 
C 723 -39 1216 -128 1466 -128 
C 1760 -128 2208 -7 2470 600 
C 2662 1042 2688 1559 2688 2025 
z
M 1466 -26 
C 1056 -26 813 325 723 812 
C 653 1188 653 1738 653 2096 
C 653 2588 653 2997 736 3387 
C 858 3929 1216 4096 1466 4096 
C 1728 4096 2067 3923 2189 3400 
C 2272 3036 2278 2607 2278 2096 
C 2278 1680 2278 1169 2202 792 
C 2067 95 1690 -26 1466 -26 
z
" transform="scale(0.015625)"/>
       </defs>
       <use xlink:href="#CMR17-30" transform="scale(0.996264)"/>
      </g>
     </g>
    </g>
    <g id="xtick_2">
     <g id="line2d_2">
      <g>
       <use xlink:href="#m4e2c2e310a" x="70.161434" y="202.559296" style="stroke: #000000; stroke-width: 0.8"/>
      </g>
     </g>
     <g id="text_2">
      <!-- $\mathdefault{25}$ -->
      <g transform="translate(65.927251 217.194098) scale(0.08 -0.08)">
       <defs>
        <path id="CMR17-32" d="M 2669 989 
L 2554 989 
C 2490 536 2438 459 2413 420 
C 2381 369 1920 369 1830 369 
L 602 369 
C 832 619 1280 1072 1824 1597 
C 2214 1967 2669 2402 2669 3035 
C 2669 3790 2067 4224 1395 4224 
C 691 4224 262 3604 262 3030 
C 262 2780 448 2748 525 2748 
C 589 2748 781 2787 781 3010 
C 781 3207 614 3264 525 3264 
C 486 3264 448 3258 422 3245 
C 544 3790 915 4058 1306 4058 
C 1862 4058 2227 3617 2227 3035 
C 2227 2479 1901 2000 1536 1584 
L 262 146 
L 262 0 
L 2515 0 
L 2669 989 
z
" transform="scale(0.015625)"/>
        <path id="CMR17-35" d="M 730 3692 
C 794 3666 1056 3584 1325 3584 
C 1920 3584 2246 3911 2432 4100 
C 2432 4157 2432 4192 2394 4192 
C 2387 4192 2374 4192 2323 4163 
C 2099 4058 1837 3973 1517 3973 
C 1325 3973 1037 3999 723 4139 
C 653 4171 640 4171 634 4171 
C 602 4171 595 4164 595 4037 
L 595 2203 
C 595 2089 595 2057 659 2057 
C 691 2057 704 2070 736 2114 
C 941 2401 1222 2522 1542 2522 
C 1766 2522 2246 2382 2246 1289 
C 2246 1085 2246 715 2054 421 
C 1894 159 1645 25 1370 25 
C 947 25 518 320 403 814 
C 429 807 480 795 506 795 
C 589 795 749 840 749 1038 
C 749 1210 627 1280 506 1280 
C 358 1280 262 1190 262 1011 
C 262 454 704 -128 1382 -128 
C 2042 -128 2669 440 2669 1264 
C 2669 2030 2170 2624 1549 2624 
C 1222 2624 947 2503 730 2274 
L 730 3692 
z
" transform="scale(0.015625)"/>
       </defs>
       <use xlink:href="#CMR17-32" transform="scale(0.996264)"/>
       <use xlink:href="#CMR17-35" transform="translate(45.690477 0) scale(0.996264)"/>
      </g>
     </g>
    </g>
    <g id="xtick_3">
     <g id="line2d_3">
      <g>
       <use xlink:href="#m4e2c2e310a" x="96.96602" y="202.559296" style="stroke: #000000; stroke-width: 0.8"/>
      </g>
     </g>
     <g id="text_3">
      <!-- $\mathdefault{50}$ -->
      <g transform="translate(92.731837 217.194098) scale(0.08 -0.08)">
       <use xlink:href="#CMR17-35" transform="scale(0.996264)"/>
       <use xlink:href="#CMR17-30" transform="translate(45.690477 0) scale(0.996264)"/>
      </g>
     </g>
    </g>
    <g id="xtick_4">
     <g id="line2d_4">
      <g>
       <use xlink:href="#m4e2c2e310a" x="123.770606" y="202.559296" style="stroke: #000000; stroke-width: 0.8"/>
      </g>
     </g>
     <g id="text_4">
      <!-- $\mathdefault{75}$ -->
      <g transform="translate(119.536423 217.194098) scale(0.08 -0.08)">
       <defs>
        <path id="CMR17-37" d="M 2886 3941 
L 2886 4081 
L 1382 4081 
C 634 4081 621 4165 595 4288 
L 480 4288 
L 294 3094 
L 410 3094 
C 429 3215 474 3540 550 3661 
C 589 3712 1062 3712 1171 3712 
L 2579 3712 
L 1869 2661 
C 1395 1954 1069 999 1069 165 
C 1069 89 1069 -128 1299 -128 
C 1530 -128 1530 89 1530 171 
L 1530 465 
C 1530 1508 1709 2196 2003 2636 
L 2886 3941 
z
" transform="scale(0.015625)"/>
       </defs>
       <use xlink:href="#CMR17-37" transform="scale(0.996264)"/>
       <use xlink:href="#CMR17-35" transform="translate(45.690477 0) scale(0.996264)"/>
      </g>
     </g>
    </g>
    <g id="xtick_5">
     <g id="line2d_5">
      <g>
       <use xlink:href="#m4e2c2e310a" x="150.575193" y="202.559296" style="stroke: #000000; stroke-width: 0.8"/>
      </g>
     </g>
     <g id="text_5">
      <!-- $\mathdefault{100}$ -->
      <g transform="translate(144.223918 217.194098) scale(0.08 -0.08)">
       <defs>
        <path id="CMR17-31" d="M 1702 4058 
C 1702 4192 1696 4192 1606 4192 
C 1357 3916 979 3827 621 3827 
C 602 3827 570 3827 563 3808 
C 557 3795 557 3782 557 3648 
C 755 3648 1088 3686 1344 3839 
L 1344 461 
C 1344 236 1331 160 781 160 
L 589 160 
L 589 0 
C 896 0 1216 0 1523 0 
C 1830 0 2150 0 2458 0 
L 2458 160 
L 2266 160 
C 1715 160 1702 230 1702 458 
L 1702 4058 
z
" transform="scale(0.015625)"/>
       </defs>
       <use xlink:href="#CMR17-31" transform="scale(0.996264)"/>
       <use xlink:href="#CMR17-30" transform="translate(45.690477 0) scale(0.996264)"/>
       <use xlink:href="#CMR17-30" transform="translate(91.380954 0) scale(0.996264)"/>
      </g>
     </g>
    </g>
    <g id="xtick_6">
     <g id="line2d_6">
      <g>
       <use xlink:href="#m4e2c2e310a" x="177.379779" y="202.559296" style="stroke: #000000; stroke-width: 0.8"/>
      </g>
     </g>
     <g id="text_6">
      <!-- $\mathdefault{125}$ -->
      <g transform="translate(171.028505 217.194098) scale(0.08 -0.08)">
       <use xlink:href="#CMR17-31" transform="scale(0.996264)"/>
       <use xlink:href="#CMR17-32" transform="translate(45.690477 0) scale(0.996264)"/>
       <use xlink:href="#CMR17-35" transform="translate(91.380954 0) scale(0.996264)"/>
      </g>
     </g>
    </g>
    <g id="xtick_7">
     <g id="line2d_7">
      <g>
       <use xlink:href="#m4e2c2e310a" x="204.184365" y="202.559296" style="stroke: #000000; stroke-width: 0.8"/>
      </g>
     </g>
     <g id="text_7">
      <!-- $\mathdefault{150}$ -->
      <g transform="translate(197.833091 217.194098) scale(0.08 -0.08)">
       <use xlink:href="#CMR17-31" transform="scale(0.996264)"/>
       <use xlink:href="#CMR17-35" transform="translate(45.690477 0) scale(0.996264)"/>
       <use xlink:href="#CMR17-30" transform="translate(91.380954 0) scale(0.996264)"/>
      </g>
     </g>
    </g>
    <g id="xtick_8">
     <g id="line2d_8">
      <g>
       <use xlink:href="#m4e2c2e310a" x="230.988952" y="202.559296" style="stroke: #000000; stroke-width: 0.8"/>
      </g>
     </g>
     <g id="text_8">
      <!-- $\mathdefault{175}$ -->
      <g transform="translate(224.637677 217.194098) scale(0.08 -0.08)">
       <use xlink:href="#CMR17-31" transform="scale(0.996264)"/>
       <use xlink:href="#CMR17-37" transform="translate(45.690477 0) scale(0.996264)"/>
       <use xlink:href="#CMR17-35" transform="translate(91.380954 0) scale(0.996264)"/>
      </g>
     </g>
    </g>
    <g id="text_9">
     <!-- $\tau$ -->
     <g transform="translate(137.675756 229.662342) scale(0.1 -0.1)">
      <defs>
       <path id="CMMI12-1c" d="M 1837 2408 
L 2899 2408 
C 2982 2408 3194 2408 3194 2612 
C 3194 2752 3072 2752 2957 2752 
L 1197 2752 
C 1050 2752 832 2752 538 2440 
C 371 2255 166 1917 166 1879 
C 166 1841 198 1828 237 1828 
C 282 1828 288 1847 320 1885 
C 653 2408 986 2408 1146 2408 
L 1677 2408 
L 1011 223 
C 979 127 979 114 979 95 
C 979 25 1024 -64 1152 -64 
C 1350 -64 1382 108 1402 203 
L 1837 2408 
z
" transform="scale(0.015625)"/>
      </defs>
      <use xlink:href="#CMMI12-1c" transform="scale(0.996264)"/>
     </g>
    </g>
   </g>
   <g id="matplotlib.axis_2">
    <g id="ytick_1">
     <g id="line2d_9">
      <defs>
       <path id="md0d51b9720" d="M 0 0 
L -3.5 0 
" style="stroke: #000000; stroke-width: 0.8"/>
      </defs>
      <g>
       <use xlink:href="#md0d51b9720" x="33.707196" y="193.679328" style="stroke: #000000; stroke-width: 0.8"/>
      </g>
     </g>
     <g id="text_10">
      <!-- $\mathdefault{−1.0}$ -->
      <g transform="translate(7.2 196.446729) scale(0.08 -0.08)">
       <defs>
        <path id="CMSY10-0" d="M 4218 1472 
C 4326 1472 4442 1472 4442 1600 
C 4442 1728 4326 1728 4218 1728 
L 755 1728 
C 646 1728 531 1728 531 1600 
C 531 1472 646 1472 755 1472 
L 4218 1472 
z
" transform="scale(0.015625)"/>
        <path id="CMMI12-3a" d="M 1178 307 
C 1178 492 1024 619 870 619 
C 685 619 557 466 557 313 
C 557 128 710 0 864 0 
C 1050 0 1178 153 1178 307 
z
" transform="scale(0.015625)"/>
       </defs>
       <use xlink:href="#CMSY10-0" transform="scale(0.996264)"/>
       <use xlink:href="#CMR17-31" transform="translate(77.487468 0) scale(0.996264)"/>
       <use xlink:href="#CMMI12-3a" transform="translate(123.177945 0) scale(0.996264)"/>
       <use xlink:href="#CMR17-30" transform="translate(150.275122 0) scale(0.996264)"/>
      </g>
     </g>
    </g>
    <g id="ytick_2">
     <g id="line2d_10">
      <g>
       <use xlink:href="#md0d51b9720" x="33.707196" y="158.341479" style="stroke: #000000; stroke-width: 0.8"/>
      </g>
     </g>
     <g id="text_11">
      <!-- $\mathdefault{−0.8}$ -->
      <g transform="translate(7.2 161.10888) scale(0.08 -0.08)">
       <defs>
        <path id="CMR17-38" d="M 1741 2264 
C 2144 2467 2554 2773 2554 3263 
C 2554 3841 1990 4179 1472 4179 
C 890 4179 378 3759 378 3180 
C 378 3021 416 2747 666 2505 
C 730 2442 998 2251 1171 2130 
C 883 1983 211 1634 211 934 
C 211 279 838 -128 1459 -128 
C 2144 -128 2720 362 2720 1010 
C 2720 1590 2330 1857 2074 2029 
L 1741 2264 
z
M 902 2822 
C 851 2854 595 3051 595 3351 
C 595 3739 998 4032 1459 4032 
C 1965 4032 2336 3676 2336 3262 
C 2336 2669 1670 2331 1638 2331 
C 1632 2331 1626 2331 1574 2370 
L 902 2822 
z
M 2080 1519 
C 2176 1449 2483 1240 2483 851 
C 2483 381 2010 25 1472 25 
C 890 25 448 438 448 940 
C 448 1443 838 1862 1280 2060 
L 2080 1519 
z
" transform="scale(0.015625)"/>
       </defs>
       <use xlink:href="#CMSY10-0" transform="scale(0.996264)"/>
       <use xlink:href="#CMR17-30" transform="translate(77.487468 0) scale(0.996264)"/>
       <use xlink:href="#CMMI12-3a" transform="translate(123.177945 0) scale(0.996264)"/>
       <use xlink:href="#CMR17-38" transform="translate(150.275122 0) scale(0.996264)"/>
      </g>
     </g>
    </g>
    <g id="ytick_3">
     <g id="line2d_11">
      <g>
       <use xlink:href="#md0d51b9720" x="33.707196" y="123.00363" style="stroke: #000000; stroke-width: 0.8"/>
      </g>
     </g>
     <g id="text_12">
      <!-- $\mathdefault{−0.6}$ -->
      <g transform="translate(7.2 125.77103) scale(0.08 -0.08)">
       <defs>
        <path id="CMR17-36" d="M 678 2176 
C 678 3690 1395 4032 1811 4032 
C 1946 4032 2272 4009 2400 3776 
C 2298 3776 2106 3776 2106 3553 
C 2106 3381 2246 3323 2336 3323 
C 2394 3323 2566 3348 2566 3560 
C 2566 3954 2246 4179 1805 4179 
C 1043 4179 243 3390 243 1984 
C 243 253 966 -128 1478 -128 
C 2099 -128 2688 427 2688 1283 
C 2688 2081 2170 2662 1517 2662 
C 1126 2662 838 2407 678 1960 
L 678 2176 
z
M 1478 25 
C 691 25 691 1200 691 1436 
C 691 1896 909 2560 1504 2560 
C 1613 2560 1926 2560 2138 2120 
C 2253 1870 2253 1609 2253 1289 
C 2253 944 2253 690 2118 434 
C 1978 171 1773 25 1478 25 
z
" transform="scale(0.015625)"/>
       </defs>
       <use xlink:href="#CMSY10-0" transform="scale(0.996264)"/>
       <use xlink:href="#CMR17-30" transform="translate(77.487468 0) scale(0.996264)"/>
       <use xlink:href="#CMMI12-3a" transform="translate(123.177945 0) scale(0.996264)"/>
       <use xlink:href="#CMR17-36" transform="translate(150.275122 0) scale(0.996264)"/>
      </g>
     </g>
    </g>
    <g id="ytick_4">
     <g id="line2d_12">
      <g>
       <use xlink:href="#md0d51b9720" x="33.707196" y="87.665781" style="stroke: #000000; stroke-width: 0.8"/>
      </g>
     </g>
     <g id="text_13">
      <!-- $\mathdefault{−0.4}$ -->
      <g transform="translate(7.2 90.433181) scale(0.08 -0.08)">
       <defs>
        <path id="CMR17-34" d="M 2150 4122 
C 2150 4256 2144 4256 2029 4256 
L 128 1254 
L 128 1088 
L 1779 1088 
L 1779 457 
C 1779 224 1766 160 1318 160 
L 1197 160 
L 1197 0 
C 1402 0 1747 0 1965 0 
C 2182 0 2528 0 2733 0 
L 2733 160 
L 2611 160 
C 2163 160 2150 224 2150 457 
L 2150 1088 
L 2803 1088 
L 2803 1254 
L 2150 1254 
L 2150 4122 
z
M 1798 3703 
L 1798 1254 
L 256 1254 
L 1798 3703 
z
" transform="scale(0.015625)"/>
       </defs>
       <use xlink:href="#CMSY10-0" transform="scale(0.996264)"/>
       <use xlink:href="#CMR17-30" transform="translate(77.487468 0) scale(0.996264)"/>
       <use xlink:href="#CMMI12-3a" transform="translate(123.177945 0) scale(0.996264)"/>
       <use xlink:href="#CMR17-34" transform="translate(150.275122 0) scale(0.996264)"/>
      </g>
     </g>
    </g>
    <g id="ytick_5">
     <g id="line2d_13">
      <g>
       <use xlink:href="#md0d51b9720" x="33.707196" y="52.327931" style="stroke: #000000; stroke-width: 0.8"/>
      </g>
     </g>
     <g id="text_14">
      <!-- $\mathdefault{−0.2}$ -->
      <g transform="translate(7.2 55.095332) scale(0.08 -0.08)">
       <use xlink:href="#CMSY10-0" transform="scale(0.996264)"/>
       <use xlink:href="#CMR17-30" transform="translate(77.487468 0) scale(0.996264)"/>
       <use xlink:href="#CMMI12-3a" transform="translate(123.177945 0) scale(0.996264)"/>
       <use xlink:href="#CMR17-32" transform="translate(150.275122 0) scale(0.996264)"/>
      </g>
     </g>
    </g>
    <g id="ytick_6">
     <g id="line2d_14">
      <g>
       <use xlink:href="#md0d51b9720" x="33.707196" y="16.990082" style="stroke: #000000; stroke-width: 0.8"/>
      </g>
     </g>
     <g id="text_15">
      <!-- $\mathdefault{0.0}$ -->
      <g transform="translate(13.786507 19.757483) scale(0.08 -0.08)">
       <use xlink:href="#CMR17-30" transform="scale(0.996264)"/>
       <use xlink:href="#CMMI12-3a" transform="translate(45.690477 0) scale(0.996264)"/>
       <use xlink:href="#CMR17-30" transform="translate(72.787654 0) scale(0.996264)"/>
      </g>
     </g>
    </g>
   </g>
   <g id="line2d_15">
    <path d="M 43.356847 193.679328 
L 43.421178 193.462631 
L 43.54984 191.761912 
L 43.807164 184.062785 
L 44.83646 146.335771 
L 45.093784 143.918062 
L 45.158115 143.845364 
L 45.286777 144.273399 
L 45.47977 146.158849 
L 45.865757 152.888614 
L 46.573398 165.43983 
L 46.895053 168.060974 
L 47.088046 168.573789 
L 47.216708 168.554708 
L 47.409701 168.133998 
L 48.181673 165.922993 
L 48.374666 165.960329 
L 48.63199 166.452078 
L 49.082307 168.044984 
L 49.661286 169.942835 
L 50.047272 170.547321 
L 50.368927 170.679418 
L 51.20523 170.833681 
L 51.591216 171.210472 
L 52.105864 172.081957 
L 53.13516 173.942937 
L 53.328153 173.99365 
L 53.521146 173.804225 
L 53.77847 173.044302 
L 54.100125 171.019754 
L 54.486111 166.716605 
L 55.00076 157.950536 
L 57.445338 111.035905 
L 58.152979 102.486941 
L 58.86062 96.531149 
L 60.018578 88.887076 
L 61.43386 81.107658 
L 62.72048 76.281101 
L 63.36379 73.874023 
L 64.007101 72.479807 
L 64.457418 71.300604 
L 65.358052 68.764942 
L 66.51601 66.514354 
L 67.287982 66.119638 
L 67.80263 65.773863 
L 68.188616 65.460011 
L 68.638933 64.72993 
L 69.410905 63.483533 
L 69.668229 63.462245 
L 70.118546 63.550877 
L 71.01918 63.109032 
L 71.405166 63.122488 
L 71.726821 62.880074 
L 73.463759 61.158112 
L 74.107069 60.820708 
L 74.943372 60.504959 
L 75.715344 60.637542 
L 76.10133 60.24449 
L 76.422985 59.576282 
L 77.259288 57.016678 
L 77.645274 55.05213 
L 78.352915 49.970341 
L 79.31788 43.450871 
L 79.768197 41.648494 
L 80.154183 41.01 
L 81.376473 39.75328 
L 81.82679 39.299514 
L 82.341438 39.141562 
L 83.242072 39.024386 
L 83.821051 38.913642 
L 84.207037 38.839075 
L 84.464361 39.04214 
L 85.300664 39.954273 
L 85.943974 40.217438 
L 86.265629 40.757709 
L 86.651615 41.934909 
L 87.166263 44.297956 
L 87.809573 48.339588 
L 88.388552 53.635658 
L 89.096193 62.491075 
L 92.119751 104.230468 
L 93.084716 113.078468 
L 93.98535 119.485421 
L 94.950315 124.66652 
L 96.043942 129.365962 
L 96.944576 132.443839 
L 97.84521 134.674217 
L 98.810175 136.485434 
L 100.032465 138.24916 
L 101.061761 139.266035 
L 102.091057 139.94119 
L 103.249015 140.617942 
L 104.020987 141.012047 
L 106.529896 141.857053 
L 107.366199 141.698405 
L 108.00951 141.667563 
L 108.395496 141.843877 
L 108.65282 142.179857 
L 108.910144 142.872446 
L 109.231799 144.556931 
L 109.617785 148.108284 
L 110.325426 157.534387 
L 110.904405 163.921075 
L 111.290391 165.914293 
L 111.547715 166.32814 
L 111.805039 166.32765 
L 112.448349 166.099927 
L 112.705673 166.321707 
L 113.027328 166.936463 
L 114.249617 169.713916 
L 114.892927 170.225411 
L 115.536237 170.818503 
L 116.436871 172.042649 
L 117.466168 173.482949 
L 117.723492 173.49899 
L 117.916485 173.251892 
L 118.173809 172.409917 
L 118.495464 170.241856 
L 118.88145 165.673317 
L 119.460429 155.309266 
L 121.647683 113.095188 
L 122.355324 103.964812 
L 123.191627 96.398926 
L 124.220923 89.215969 
L 125.31455 82.971952 
L 126.858495 76.55129 
L 129.11008 70.392797 
L 130.847017 66.44083 
L 132.712616 64.344364 
L 133.870574 63.337634 
L 134.513884 62.489741 
L 135.929167 61.649706 
L 136.379484 61.195413 
L 136.701139 61.19388 
L 137.151456 61.181187 
L 137.601773 60.8618 
L 138.05209 60.552766 
L 139.081386 60.262262 
L 139.467372 60.127253 
L 140.110682 60.1391 
L 140.689661 59.691077 
L 141.011316 59.093248 
L 141.461633 57.72427 
L 141.847619 55.834039 
L 142.426598 51.694832 
L 143.455894 43.885187 
L 143.77755 42.935764 
L 145.385825 40.43622 
L 145.900473 39.991421 
L 146.479452 39.85869 
L 146.801107 39.741119 
L 147.122762 39.311979 
L 147.766072 38.44139 
L 148.023396 38.343091 
L 148.345051 38.501127 
L 148.988361 38.872393 
L 149.503009 39.11383 
L 149.888995 39.690331 
L 150.467974 40.986614 
L 151.046953 43.029542 
L 151.818925 46.46727 
L 152.333573 50.087764 
L 152.912553 56.001253 
L 153.684525 66.461639 
L 155.871779 97.504156 
L 156.901075 108.653835 
L 157.801709 116.109912 
L 158.766674 122.400295 
L 159.602977 126.554769 
L 160.43928 129.639669 
L 161.597239 132.970347 
L 162.883859 135.925163 
L 163.720162 137.326427 
L 164.492134 138.201839 
L 167.065374 140.601394 
L 167.901677 141.010644 
L 168.480656 141.092721 
L 169.445621 141.173837 
L 172.919496 142.037436 
L 173.17682 142.551997 
L 173.434144 143.588558 
L 173.755799 145.876751 
L 174.206116 151.010546 
L 175.235412 163.804391 
L 175.557067 165.630356 
L 175.814391 166.197018 
L 176.007384 166.27065 
L 176.329039 166.089469 
L 176.650694 165.973426 
L 176.908018 166.148348 
L 177.229673 166.706669 
L 178.773617 169.915939 
L 180.83221 172.159082 
L 181.925837 173.7181 
L 182.11883 173.641916 
L 182.311823 173.285606 
L 182.569147 172.227551 
L 182.890802 169.719227 
L 183.276788 164.787071 
L 183.855767 154.136593 
L 185.785697 116.270468 
L 186.557669 105.519739 
L 187.329641 97.561219 
L 187.972951 93.254637 
L 189.77422 83.063722 
L 191.253833 76.893218 
L 193.055101 71.568223 
L 193.63408 70.16878 
L 194.27739 68.45334 
L 194.599045 68.139152 
L 195.242355 67.721666 
L 195.692672 66.971476 
L 196.335982 65.962339 
L 197.622603 64.318305 
L 198.394575 64.091082 
L 199.745526 62.425594 
L 200.388836 62.285087 
L 200.967815 61.869031 
L 201.418132 61.681754 
L 201.93278 61.376142 
L 202.640421 61.376357 
L 203.991372 60.790453 
L 204.827675 60.973382 
L 205.084999 60.698292 
L 205.406654 59.909496 
L 205.79264 58.213805 
L 206.435951 54.313004 
L 207.851233 44.239337 
L 208.30155 42.527053 
L 208.751867 41.673289 
L 209.459508 40.777715 
L 210.746128 39.957948 
L 211.132114 39.828114 
L 211.968417 39.272367 
L 212.611727 39.243087 
L 212.997713 39.573309 
L 213.383699 39.819008 
L 214.09134 40.02329 
L 214.541657 40.55037 
L 214.991975 41.471457 
L 215.442292 42.943466 
L 215.95694 45.44195 
L 216.535919 49.403068 
L 217.114898 54.963029 
L 217.88687 64.879204 
L 220.653103 103.126847 
L 221.553737 111.712424 
L 222.518702 118.874476 
L 223.419336 124.048863 
L 224.319971 128.066542 
L 225.349267 131.52024 
L 226.249901 133.824279 
L 227.793845 136.787903 
L 228.694479 138.136683 
L 229.916768 139.526879 
L 230.753071 140.141937 
L 231.782367 140.680754 
L 232.683002 140.995282 
L 234.870256 141.59468 
L 236.349869 141.96328 
L 236.349869 141.96328 
" clip-path="url(#p7daeb96bd3)" style="fill: none; stroke: #1f77b4; stroke-width: 0.5; stroke-linecap: square"/>
   </g>
   <g id="line2d_16">
    <path d="M 43.356847 16.990082 
L 44.257481 16.661515 
L 45.222446 16.589867 
L 55.386746 16.603513 
L 58.21731 16.504898 
L 74.81471 16.487512 
L 110.904405 16.661759 
L 115.021589 16.69286 
L 119.717753 16.604131 
L 122.612648 16.504599 
L 138.759731 16.487549 
L 172.983827 16.577092 
L 185.399711 16.533731 
L 190.095875 16.494053 
L 236.349869 16.576555 
L 236.349869 16.576555 
" clip-path="url(#p7daeb96bd3)" style="fill: none; stroke: #ff7f0e; stroke-width: 0.5; stroke-linecap: square"/>
   </g>
   <g id="line2d_17">
    <path d="M 43.356847 16.990082 
L 44.064488 16.877719 
L 45.415439 16.917473 
L 46.637729 17.169672 
L 47.98868 16.632955 
L 48.760652 16.906934 
L 49.403962 17.094242 
L 49.91861 16.988825 
L 51.012237 16.661609 
L 51.526885 16.835384 
L 52.556181 17.21834 
L 53.13516 17.188737 
L 54.357449 17.053383 
L 55.64407 17.111341 
L 56.93069 17.335506 
L 57.638331 17.033545 
L 58.410303 16.934426 
L 59.117944 16.826743 
L 59.632592 16.983691 
L 60.082909 17.120673 
L 60.404564 16.936165 
L 60.919212 16.606281 
L 61.369529 16.649094 
L 61.819846 16.647943 
L 62.591818 16.546726 
L 62.977804 16.804956 
L 63.556784 17.177384 
L 64.071432 17.246388 
L 65.615376 16.952987 
L 66.773334 16.55954 
L 67.995623 17.036665 
L 68.703264 17.113177 
L 69.539567 17.279596 
L 69.861222 17.103775 
L 70.311539 16.829076 
L 70.826187 16.874077 
L 71.66249 16.94188 
L 72.112807 16.721128 
L 72.756118 16.361353 
L 73.914076 16.450116 
L 74.364393 16.628339 
L 75.586682 17.123742 
L 75.908337 16.91004 
L 76.74464 16.168613 
L 77.066295 16.228813 
L 78.288584 16.788854 
L 78.931894 16.694965 
L 80.347176 16.199634 
L 80.990486 16.475508 
L 81.698128 16.825331 
L 83.049079 17.108767 
L 84.464361 17.5818 
L 84.979009 17.440778 
L 85.943974 17.085508 
L 86.587284 17.108897 
L 88.9032 17.493148 
L 89.675172 17.123506 
L 91.026124 16.348538 
L 91.926758 16.153577 
L 92.377075 16.247418 
L 93.599364 16.898092 
L 94.435667 17.219361 
L 95.014646 17.152567 
L 95.786618 16.84618 
L 97.330562 16.175559 
L 97.780879 16.236743 
L 98.617182 16.677559 
L 99.324824 16.903462 
L 100.096796 16.863549 
L 101.061761 16.873163 
L 101.898064 16.75614 
L 102.734367 16.660388 
L 103.57067 16.896581 
L 105.371938 17.423296 
L 106.14391 17.331215 
L 106.980213 17.042447 
L 108.395496 16.331062 
L 109.360461 16.093168 
L 109.746447 16.279872 
L 110.325426 16.867673 
L 110.775743 17.248852 
L 111.097398 17.268791 
L 111.547715 17.021542 
L 112.191025 16.663421 
L 112.641342 16.695416 
L 113.15599 17.007802 
L 113.992293 17.512977 
L 114.44261 17.522353 
L 115.857892 17.275498 
L 116.501202 17.557544 
L 117.144513 17.74576 
L 117.530499 17.640229 
L 119.010112 16.942684 
L 119.782084 17.044208 
L 120.232401 17.002537 
L 120.81138 16.630402 
L 121.261697 16.435463 
L 121.583352 16.551821 
L 122.74131 17.29452 
L 123.127296 17.215892 
L 124.349585 16.703253 
L 125.250219 16.962545 
L 126.472509 16.596469 
L 126.794164 16.830915 
L 127.759129 17.796858 
L 128.080784 17.748533 
L 128.402439 17.466527 
L 129.045749 16.812156 
L 129.303073 16.909818 
L 130.075045 17.43138 
L 130.3967 17.283467 
L 131.104341 16.879072 
L 131.747651 16.803936 
L 132.262299 16.873274 
L 133.291595 17.331991 
L 134.771209 17.093632 
L 135.543181 17.471941 
L 135.864836 17.343879 
L 136.894132 16.639854 
L 137.473111 16.757041 
L 138.309414 17.165918 
L 138.6954 17.23748 
L 139.081386 17.078608 
L 139.724696 16.794154 
L 140.368006 16.748886 
L 141.011316 17.017566 
L 142.169274 17.350713 
L 142.683922 17.140879 
L 143.391563 16.812105 
L 146.479452 16.75193 
L 147.058431 16.854632 
L 147.894734 17.205744 
L 148.345051 17.01001 
L 149.052692 16.697062 
L 149.696002 16.809496 
L 151.111284 16.912763 
L 153.105546 16.524371 
L 153.813187 16.493716 
L 154.585159 16.682978 
L 155.2928 16.822328 
L 158.702343 16.599357 
L 159.474315 16.597033 
L 160.374949 16.885458 
L 161.66157 17.228951 
L 162.369211 17.030495 
L 162.94819 16.986661 
L 165.328437 17.231951 
L 166.679388 16.972787 
L 167.644353 16.896744 
L 168.480656 16.878074 
L 169.252628 17.026062 
L 170.153262 17.203751 
L 171.24689 17.135084 
L 173.498475 16.722997 
L 174.013123 17.015642 
L 174.913757 17.613494 
L 175.364074 17.554907 
L 175.878722 17.196654 
L 176.39337 16.909284 
L 176.843687 16.917605 
L 177.358335 17.197527 
L 178.001645 17.50847 
L 178.387631 17.457317 
L 178.902279 17.089145 
L 179.481259 16.737891 
L 179.995907 16.698963 
L 180.83221 16.936256 
L 181.539851 17.07108 
L 182.311823 16.948508 
L 183.212457 16.784094 
L 183.727105 16.9812 
L 184.370415 17.236424 
L 184.820732 17.138362 
L 185.850028 16.773691 
L 186.300345 16.84133 
L 187.200979 17.128545 
L 188.165945 16.936248 
L 189.645558 16.75123 
L 190.031544 16.981261 
L 190.739185 17.468264 
L 191.189502 17.534432 
L 191.639819 17.330102 
L 192.218798 17.091357 
L 192.604784 17.164712 
L 193.376756 17.427057 
L 193.891404 17.25926 
L 194.985031 16.800326 
L 195.371017 16.816599 
L 196.335982 17.157762 
L 196.721968 16.880437 
L 197.107955 16.66222 
L 197.42961 16.714252 
L 197.815596 17.067665 
L 198.330244 17.486816 
L 198.780561 17.534407 
L 199.295209 17.374777 
L 199.681195 17.042315 
L 200.195843 16.583567 
L 200.517498 16.644746 
L 201.160808 17.16745 
L 201.675456 17.381897 
L 202.061442 17.336399 
L 202.833414 17.100339 
L 203.348062 16.98917 
L 203.927041 16.485363 
L 204.377358 16.288737 
L 204.763344 16.381443 
L 205.084999 16.765164 
L 205.728309 17.648045 
L 205.985634 17.605581 
L 206.435951 17.154914 
L 206.886268 16.834345 
L 207.722571 16.686493 
L 209.009191 16.501852 
L 209.58817 16.733863 
L 210.167149 16.929089 
L 210.87479 16.888146 
L 212.740389 16.52699 
L 213.44803 16.712245 
L 215.056306 17.243196 
L 216.085602 17.225524 
L 216.728912 17.024919 
L 218.144194 16.485844 
L 219.752469 16.357456 
L 220.46011 16.603902 
L 221.296413 16.838885 
L 222.840357 17.081723 
L 223.740992 17.023765 
L 227.729514 16.593352 
L 228.887472 16.342169 
L 229.466451 16.47221 
L 230.238423 16.868022 
L 231.653705 17.766207 
L 232.490008 17.87024 
L 233.068988 17.727122 
L 234.48427 17.223107 
L 235.642228 17.075949 
L 236.349869 16.975878 
L 236.349869 16.975878 
" clip-path="url(#p7daeb96bd3)" style="fill: none; stroke: #2ca02c; stroke-width: 0.5; stroke-linecap: square"/>
   </g>
   <g id="patch_3">
    <path d="M 33.707196 202.559296 
L 33.707196 7.2 
" style="fill: none; stroke: #000000; stroke-width: 0.8; stroke-linejoin: miter; stroke-linecap: square"/>
   </g>
   <g id="patch_4">
    <path d="M 245.99952 202.559296 
L 245.99952 7.2 
" style="fill: none; stroke: #000000; stroke-width: 0.8; stroke-linejoin: miter; stroke-linecap: square"/>
   </g>
   <g id="patch_5">
    <path d="M 33.707196 202.559296 
L 245.99952 202.559296 
" style="fill: none; stroke: #000000; stroke-width: 0.8; stroke-linejoin: miter; stroke-linecap: square"/>
   </g>
   <g id="patch_6">
    <path d="M 33.707196 7.2 
L 245.99952 7.2 
" style="fill: none; stroke: #000000; stroke-width: 0.8; stroke-linejoin: miter; stroke-linecap: square"/>
   </g>
   <g id="legend_1">
    <g id="patch_7">
     <path d="M 193.792605 198.059296 
L 239.69952 198.059296 
Q 241.49952 198.059296 241.49952 196.259296 
L 241.49952 156.760168 
Q 241.49952 154.960168 239.69952 154.960168 
L 193.792605 154.960168 
Q 191.992605 154.960168 191.992605 156.760168 
L 191.992605 196.259296 
Q 191.992605 198.059296 193.792605 198.059296 
z
" style="fill: #ffffff; opacity: 0.8; stroke: #cccccc; stroke-width: 0.24; stroke-linejoin: miter"/>
    </g>
    <g id="line2d_18">
     <path d="M 195.592605 162.13495 
L 204.592605 162.13495 
L 213.592605 162.13495 
" style="fill: none; stroke: #1f77b4; stroke-width: 0.5; stroke-linecap: square"/>
    </g>
    <g id="text_16">
     <!-- $\langle \sigma_z\rangle$ -->
     <g transform="translate(220.792605 165.28495) scale(0.09 -0.09)">
      <defs>
       <path id="CMSY10-68" d="M 2099 4557 
C 2131 4627 2131 4640 2131 4672 
C 2131 4742 2074 4800 2003 4800 
C 1946 4800 1901 4768 1856 4653 
L 736 1715 
C 723 1677 704 1638 704 1600 
C 704 1581 704 1568 736 1491 
L 1856 -1446 
C 1882 -1517 1914 -1600 2003 -1600 
C 2074 -1600 2131 -1542 2131 -1472 
C 2131 -1453 2131 -1440 2099 -1370 
L 966 1600 
L 2099 4557 
z
" transform="scale(0.015625)"/>
       <path id="CMMI12-1b" d="M 3251 2408 
C 3334 2408 3546 2408 3546 2612 
C 3546 2752 3424 2752 3309 2752 
L 1894 2752 
C 934 2752 243 1686 243 932 
C 243 390 595 -64 1171 -64 
C 1926 -64 2752 747 2752 1705 
C 2752 1954 2694 2196 2541 2408 
L 3251 2408 
z
M 1178 64 
C 851 64 614 313 614 754 
C 614 1137 845 2408 1786 2408 
C 2061 2408 2368 2274 2368 1781 
C 2368 1558 2266 1021 2042 652 
C 1811 275 1466 64 1178 64 
z
" transform="scale(0.015625)"/>
       <path id="CMMI12-7a" d="M 813 486 
C 1088 803 1312 1004 1632 1296 
C 2016 1632 2182 1793 2272 1891 
C 2720 2338 2944 2713 2944 2764 
C 2944 2816 2893 2816 2880 2816 
C 2835 2816 2822 2793 2790 2750 
C 2630 2494 2477 2367 2310 2367 
C 2176 2367 2106 2421 1984 2565 
C 1850 2715 1741 2816 1555 2816 
C 1088 2816 806 2257 806 2128 
C 806 2108 813 2068 870 2068 
C 922 2068 928 2091 947 2133 
C 1056 2372 1363 2414 1485 2414 
C 1619 2414 1747 2376 1882 2327 
C 2125 2240 2227 2240 2291 2240 
C 2336 2240 2362 2240 2394 2246 
C 2182 1994 1837 1683 1549 1418 
L 902 816 
C 512 415 275 33 275 -12 
C 275 -51 307 -64 346 -64 
C 384 -64 390 -57 435 14 
C 538 163 742 384 979 384 
C 1114 384 1178 342 1306 193 
C 1427 61 1536 -64 1741 -64 
C 2368 -64 2726 732 2726 876 
C 2726 903 2720 942 2656 942 
C 2605 942 2598 917 2579 855 
C 2438 488 2061 338 1811 338 
C 1677 338 1549 376 1414 425 
C 1158 512 1088 512 1005 512 
C 941 512 870 512 813 486 
z
" transform="scale(0.015625)"/>
       <path id="CMSY10-69" d="M 1747 1491 
C 1779 1568 1779 1581 1779 1600 
C 1779 1619 1779 1632 1747 1709 
L 627 4653 
C 589 4762 550 4800 480 4800 
C 410 4800 352 4742 352 4672 
C 352 4653 352 4640 384 4570 
L 1517 1600 
L 384 -1357 
C 352 -1427 352 -1440 352 -1472 
C 352 -1542 410 -1600 480 -1600 
C 563 -1600 589 -1536 614 -1472 
L 1747 1491 
z
" transform="scale(0.015625)"/>
      </defs>
      <use xlink:href="#CMSY10-68" transform="scale(0.996264)"/>
      <use xlink:href="#CMMI12-1b" transform="translate(38.743734 0) scale(0.996264)"/>
      <use xlink:href="#CMMI12-7a" transform="translate(94.189195 -14.943915) scale(0.697382)"/>
      <use xlink:href="#CMSY10-69" transform="translate(129.51575 0) scale(0.996264)"/>
     </g>
    </g>
    <g id="line2d_19">
     <path d="M 195.592605 175.601326 
L 204.592605 175.601326 
L 213.592605 175.601326 
" style="fill: none; stroke: #ff7f0e; stroke-width: 0.5; stroke-linecap: square"/>
    </g>
    <g id="text_17">
     <!-- $\langle \sigma_x\rangle$ -->
     <g transform="translate(220.792605 178.751326) scale(0.09 -0.09)">
      <defs>
       <path id="CMMI12-78" d="M 3034 2606 
C 2829 2567 2752 2414 2752 2293 
C 2752 2139 2874 2088 2963 2088 
C 3155 2088 3290 2254 3290 2427 
C 3290 2695 2982 2816 2714 2816 
C 2323 2816 2106 2433 2048 2312 
C 1901 2816 1504 2816 1389 2816 
C 736 2816 390 1980 390 1839 
C 390 1814 416 1782 461 1782 
C 512 1782 525 1820 538 1846 
C 755 2555 1184 2689 1370 2689 
C 1658 2689 1715 2420 1715 2267 
C 1715 2127 1677 1980 1600 1673 
L 1382 798 
C 1286 415 1101 64 762 64 
C 730 64 570 64 435 147 
C 666 192 717 383 717 460 
C 717 588 621 664 499 664 
C 346 664 179 530 179 326 
C 179 57 480 -64 755 -64 
C 1062 -64 1280 179 1414 441 
C 1517 64 1837 -64 2074 -64 
C 2726 -64 3072 773 3072 913 
C 3072 945 3046 971 3008 971 
C 2950 971 2944 939 2925 888 
C 2752 326 2381 64 2093 64 
C 1869 64 1747 230 1747 492 
C 1747 632 1773 734 1875 1156 
L 2099 2024 
C 2195 2408 2413 2689 2707 2689 
C 2720 2689 2899 2689 3034 2606 
z
" transform="scale(0.015625)"/>
      </defs>
      <use xlink:href="#CMSY10-68" transform="scale(0.996264)"/>
      <use xlink:href="#CMMI12-1b" transform="translate(38.743734 0) scale(0.996264)"/>
      <use xlink:href="#CMMI12-78" transform="translate(94.189195 -14.943915) scale(0.697382)"/>
      <use xlink:href="#CMSY10-69" transform="translate(133.490986 0) scale(0.996264)"/>
     </g>
    </g>
    <g id="line2d_20">
     <path d="M 195.592605 189.067702 
L 204.592605 189.067702 
L 213.592605 189.067702 
" style="fill: none; stroke: #2ca02c; stroke-width: 0.5; stroke-linecap: square"/>
    </g>
    <g id="text_18">
     <!-- $\langle \sigma_y\rangle$ -->
     <g transform="translate(220.792605 192.217702) scale(0.09 -0.09)">
      <defs>
       <path id="CMMI12-79" d="M 1683 -700 
C 1510 -939 1261 -1152 947 -1152 
C 870 -1152 563 -1152 467 -889 
C 486 -895 518 -895 531 -895 
C 723 -895 851 -729 851 -582 
C 851 -435 730 -384 634 -384 
C 531 -384 307 -458 307 -759 
C 307 -1071 582 -1286 947 -1286 
C 1587 -1286 2234 -700 2413 6 
L 3040 2485 
C 3046 2517 3059 2556 3059 2594 
C 3059 2689 2982 2753 2886 2753 
C 2829 2753 2694 2727 2643 2535 
L 2170 658 
C 2138 543 2138 530 2086 460 
C 1958 281 1747 64 1440 64 
C 1082 64 1050 415 1050 588 
C 1050 952 1222 1443 1395 1903 
C 1466 2088 1504 2178 1504 2305 
C 1504 2574 1312 2816 998 2816 
C 410 2816 173 1890 173 1839 
C 173 1814 198 1782 243 1782 
C 301 1782 307 1807 333 1897 
C 486 2433 730 2689 979 2689 
C 1037 2689 1146 2689 1146 2478 
C 1146 2312 1075 2127 979 1884 
C 666 1047 666 837 666 683 
C 666 77 1101 -64 1421 -64 
C 1606 -64 1837 -6 2061 230 
L 2067 224 
C 1971 -147 1907 -392 1683 -700 
z
" transform="scale(0.015625)"/>
      </defs>
      <use xlink:href="#CMSY10-68" transform="scale(0.996264)"/>
      <use xlink:href="#CMMI12-1b" transform="translate(38.743734 0) scale(0.996264)"/>
      <use xlink:href="#CMMI12-79" transform="translate(94.189195 -14.943915) scale(0.697382)"/>
      <use xlink:href="#CMSY10-69" transform="translate(130.484301 0) scale(0.996264)"/>
     </g>
    </g>
   </g>
  </g>
 </g>
 <defs>
  <clipPath id="p7daeb96bd3">
   <rect x="33.707196" y="7.2" width="212.292324" height="195.359296"/>
  </clipPath>
 </defs>
</svg>
