<?xml version="1.0" encoding="utf-8" standalone="no"?>
<!DOCTYPE svg PUBLIC "-//W3C//DTD SVG 1.1//EN"
  "http://www.w3.org/Graphics/SVG/1.1/DTD/svg11.dtd">
<svg xmlns:xlink="http://www.w3.org/1999/xlink" width="253.202831pt" height="238.79952pt" viewBox="0 0 253.202831 238.79952" xmlns="http://www.w3.org/2000/svg" version="1.1">
 <metadata>
  <rdf:RDF xmlns:dc="http://purl.org/dc/elements/1.1/" xmlns:cc="http://creativecommons.org/ns#" xmlns:rdf="http://www.w3.org/1999/02/22-rdf-syntax-ns#">
   <cc:Work>
    <dc:type rdf:resource="http://purl.org/dc/dcmitype/StillImage"/>
    <dc:date>1980-01-01T00:00:00+00:00</dc:date>
    <dc:format>image/svg+xml</dc:format>
    <dc:creator>
     <cc:Agent>
      <dc:title>Matplotlib v3.6.2, https://matplotlib.org/</dc:title>
     </cc:Agent>
    </dc:creator>
   </cc:Work>
  </rdf:RDF>
 </metadata>
 <defs>
  <style type="text/css">*{stroke-linejoin: round; stroke-linecap: butt}</style>
 </defs>
 <g id="figure_1">
  <g id="patch_1">
   <path d="M 0 238.79952 
L 253.202831 238.79952 
L 253.202831 0 
L 0 0 
z
" style="fill: #ffffff"/>
  </g>
  <g id="axes_1">
   <g id="patch_2">
    <path d="M 59.265421 202.559296 
L 120.444913 202.559296 
L 120.444913 7.2 
L 59.265421 7.2 
z
" style="fill: #ffffff"/>
   </g>
   <g id="matplotlib.axis_1">
    <g id="xtick_1">
     <g id="line2d_1">
      <defs>
       <path id="m303d68ed0a" d="M 0 0 
L 0 3.5 
" style="stroke: #000000; stroke-width: 0.8"/>
      </defs>
      <g>
       <use xlink:href="#m303d68ed0a" x="73.96439" y="202.559296" style="stroke: #000000; stroke-width: 0.8"/>
      </g>
     </g>
     <g id="text_1">
      <!-- $\mathdefault{25000}$ -->
      <g transform="translate(63.378933 217.194098) scale(0.08 -0.08)">
       <defs>
        <path id="CMR17-32" d="M 2669 989 
L 2554 989 
C 2490 536 2438 459 2413 420 
C 2381 369 1920 369 1830 369 
L 602 369 
C 832 619 1280 1072 1824 1597 
C 2214 1967 2669 2402 2669 3035 
C 2669 3790 2067 4224 1395 4224 
C 691 4224 262 3604 262 3030 
C 262 2780 448 2748 525 2748 
C 589 2748 781 2787 781 3010 
C 781 3207 614 3264 525 3264 
C 486 3264 448 3258 422 3245 
C 544 3790 915 4058 1306 4058 
C 1862 4058 2227 3617 2227 3035 
C 2227 2479 1901 2000 1536 1584 
L 262 146 
L 262 0 
L 2515 0 
L 2669 989 
z
" transform="scale(0.015625)"/>
        <path id="CMR17-35" d="M 730 3692 
C 794 3666 1056 3584 1325 3584 
C 1920 3584 2246 3911 2432 4100 
C 2432 4157 2432 4192 2394 4192 
C 2387 4192 2374 4192 2323 4163 
C 2099 4058 1837 3973 1517 3973 
C 1325 3973 1037 3999 723 4139 
C 653 4171 640 4171 634 4171 
C 602 4171 595 4164 595 4037 
L 595 2203 
C 595 2089 595 2057 659 2057 
C 691 2057 704 2070 736 2114 
C 941 2401 1222 2522 1542 2522 
C 1766 2522 2246 2382 2246 1289 
C 2246 1085 2246 715 2054 421 
C 1894 159 1645 25 1370 25 
C 947 25 518 320 403 814 
C 429 807 480 795 506 795 
C 589 795 749 840 749 1038 
C 749 1210 627 1280 506 1280 
C 358 1280 262 1190 262 1011 
C 262 454 704 -128 1382 -128 
C 2042 -128 2669 440 2669 1264 
C 2669 2030 2170 2624 1549 2624 
C 1222 2624 947 2503 730 2274 
L 730 3692 
z
" transform="scale(0.015625)"/>
        <path id="CMR17-30" d="M 2688 2025 
C 2688 2416 2682 3080 2413 3591 
C 2176 4039 1798 4198 1466 4198 
C 1158 4198 768 4058 525 3597 
C 269 3118 243 2524 243 2025 
C 243 1661 250 1106 448 619 
C 723 -39 1216 -128 1466 -128 
C 1760 -128 2208 -7 2470 600 
C 2662 1042 2688 1559 2688 2025 
z
M 1466 -26 
C 1056 -26 813 325 723 812 
C 653 1188 653 1738 653 2096 
C 653 2588 653 2997 736 3387 
C 858 3929 1216 4096 1466 4096 
C 1728 4096 2067 3923 2189 3400 
C 2272 3036 2278 2607 2278 2096 
C 2278 1680 2278 1169 2202 792 
C 2067 95 1690 -26 1466 -26 
z
" transform="scale(0.015625)"/>
       </defs>
       <use xlink:href="#CMR17-32" transform="scale(0.996264)"/>
       <use xlink:href="#CMR17-35" transform="translate(45.690477 0) scale(0.996264)"/>
       <use xlink:href="#CMR17-30" transform="translate(91.380954 0) scale(0.996264)"/>
       <use xlink:href="#CMR17-30" transform="translate(137.071431 0) scale(0.996264)"/>
       <use xlink:href="#CMR17-30" transform="translate(182.761908 0) scale(0.996264)"/>
      </g>
     </g>
    </g>
    <g id="xtick_2">
     <g id="line2d_2">
      <g>
       <use xlink:href="#m303d68ed0a" x="93.827862" y="202.559296" style="stroke: #000000; stroke-width: 0.8"/>
      </g>
     </g>
     <g id="text_2">
      <!-- $\mathdefault{50000}$ -->
      <g transform="translate(83.242405 217.194098) scale(0.08 -0.08)">
       <use xlink:href="#CMR17-35" transform="scale(0.996264)"/>
       <use xlink:href="#CMR17-30" transform="translate(45.690477 0) scale(0.996264)"/>
       <use xlink:href="#CMR17-30" transform="translate(91.380954 0) scale(0.996264)"/>
       <use xlink:href="#CMR17-30" transform="translate(137.071431 0) scale(0.996264)"/>
       <use xlink:href="#CMR17-30" transform="translate(182.761908 0) scale(0.996264)"/>
      </g>
     </g>
    </g>
    <g id="xtick_3">
     <g id="line2d_3">
      <g>
       <use xlink:href="#m303d68ed0a" x="113.691333" y="202.559296" style="stroke: #000000; stroke-width: 0.8"/>
      </g>
     </g>
     <g id="text_3">
      <!-- $\mathdefault{75000}$ -->
      <g transform="translate(103.105876 217.194098) scale(0.08 -0.08)">
       <defs>
        <path id="CMR17-37" d="M 2886 3941 
L 2886 4081 
L 1382 4081 
C 634 4081 621 4165 595 4288 
L 480 4288 
L 294 3094 
L 410 3094 
C 429 3215 474 3540 550 3661 
C 589 3712 1062 3712 1171 3712 
L 2579 3712 
L 1869 2661 
C 1395 1954 1069 999 1069 165 
C 1069 89 1069 -128 1299 -128 
C 1530 -128 1530 89 1530 171 
L 1530 465 
C 1530 1508 1709 2196 2003 2636 
L 2886 3941 
z
" transform="scale(0.015625)"/>
       </defs>
       <use xlink:href="#CMR17-37" transform="scale(0.996264)"/>
       <use xlink:href="#CMR17-35" transform="translate(45.690477 0) scale(0.996264)"/>
       <use xlink:href="#CMR17-30" transform="translate(91.380954 0) scale(0.996264)"/>
       <use xlink:href="#CMR17-30" transform="translate(137.071431 0) scale(0.996264)"/>
       <use xlink:href="#CMR17-30" transform="translate(182.761908 0) scale(0.996264)"/>
      </g>
     </g>
    </g>
    <g id="text_4">
     <!-- $N$ -->
     <g transform="translate(85.852819 229.662342) scale(0.1 -0.1)">
      <defs>
       <path id="CMMI12-4e" d="M 4736 3698 
C 4806 3974 4909 4166 5395 4166 
C 5414 4166 5491 4166 5491 4279 
C 5491 4352 5434 4352 5408 4352 
C 5280 4352 4954 4352 4826 4352 
L 4518 4352 
C 4429 4352 4314 4352 4224 4352 
C 4186 4352 4109 4352 4109 4230 
C 4109 4166 4160 4166 4205 4166 
C 4589 4166 4614 4019 4614 3903 
C 4614 3846 4608 3826 4589 3737 
L 3866 850 
L 2496 4249 
C 2451 4352 2445 4352 2304 4352 
L 1523 4352 
C 1395 4352 1338 4352 1338 4230 
C 1338 4166 1382 4166 1504 4166 
C 1536 4166 1914 4166 1914 4115 
C 1914 4102 1901 4051 1894 4032 
L 1043 635 
C 966 320 813 186 390 186 
C 358 186 294 186 294 67 
C 294 0 358 0 378 0 
C 506 0 832 0 960 0 
L 1267 0 
C 1357 0 1466 0 1555 0 
C 1600 0 1670 0 1670 122 
C 1670 180 1606 186 1581 186 
C 1370 186 1165 224 1165 454 
C 1165 505 1178 562 1190 613 
L 2054 4032 
C 2093 3968 2093 3956 2118 3898 
L 3642 115 
C 3674 38 3686 0 3744 0 
C 3808 0 3814 19 3840 128 
L 4736 3698 
z
" transform="scale(0.015625)"/>
      </defs>
      <use xlink:href="#CMMI12-4e" transform="scale(0.996264)"/>
     </g>
    </g>
   </g>
   <g id="matplotlib.axis_2">
    <g id="ytick_1">
     <g id="line2d_4">
      <defs>
       <path id="mf34764ac6d" d="M 0 0 
L -3.5 0 
" style="stroke: #000000; stroke-width: 0.8"/>
      </defs>
      <g>
       <use xlink:href="#mf34764ac6d" x="59.265421" y="195.80732" style="stroke: #000000; stroke-width: 0.8"/>
      </g>
     </g>
     <g id="text_5">
      <!-- $\mathdefault{−0.0050}$ -->
      <g transform="translate(20.055677 198.574721) scale(0.08 -0.08)">
       <defs>
        <path id="CMSY10-0" d="M 4218 1472 
C 4326 1472 4442 1472 4442 1600 
C 4442 1728 4326 1728 4218 1728 
L 755 1728 
C 646 1728 531 1728 531 1600 
C 531 1472 646 1472 755 1472 
L 4218 1472 
z
" transform="scale(0.015625)"/>
        <path id="CMMI12-3a" d="M 1178 307 
C 1178 492 1024 619 870 619 
C 685 619 557 466 557 313 
C 557 128 710 0 864 0 
C 1050 0 1178 153 1178 307 
z
" transform="scale(0.015625)"/>
       </defs>
       <use xlink:href="#CMSY10-0" transform="scale(0.996264)"/>
       <use xlink:href="#CMR17-30" transform="translate(77.487468 0) scale(0.996264)"/>
       <use xlink:href="#CMMI12-3a" transform="translate(123.177945 0) scale(0.996264)"/>
       <use xlink:href="#CMR17-30" transform="translate(150.275122 0) scale(0.996264)"/>
       <use xlink:href="#CMR17-30" transform="translate(195.965599 0) scale(0.996264)"/>
       <use xlink:href="#CMR17-35" transform="translate(241.656076 0) scale(0.996264)"/>
       <use xlink:href="#CMR17-30" transform="translate(287.346553 0) scale(0.996264)"/>
      </g>
     </g>
    </g>
    <g id="ytick_2">
     <g id="line2d_5">
      <g>
       <use xlink:href="#mf34764ac6d" x="59.265421" y="170.476287" style="stroke: #000000; stroke-width: 0.8"/>
      </g>
     </g>
     <g id="text_6">
      <!-- $\mathdefault{−0.0045}$ -->
      <g transform="translate(20.055677 173.243688) scale(0.08 -0.08)">
       <defs>
        <path id="CMR17-34" d="M 2150 4122 
C 2150 4256 2144 4256 2029 4256 
L 128 1254 
L 128 1088 
L 1779 1088 
L 1779 457 
C 1779 224 1766 160 1318 160 
L 1197 160 
L 1197 0 
C 1402 0 1747 0 1965 0 
C 2182 0 2528 0 2733 0 
L 2733 160 
L 2611 160 
C 2163 160 2150 224 2150 457 
L 2150 1088 
L 2803 1088 
L 2803 1254 
L 2150 1254 
L 2150 4122 
z
M 1798 3703 
L 1798 1254 
L 256 1254 
L 1798 3703 
z
" transform="scale(0.015625)"/>
       </defs>
       <use xlink:href="#CMSY10-0" transform="scale(0.996264)"/>
       <use xlink:href="#CMR17-30" transform="translate(77.487468 0) scale(0.996264)"/>
       <use xlink:href="#CMMI12-3a" transform="translate(123.177945 0) scale(0.996264)"/>
       <use xlink:href="#CMR17-30" transform="translate(150.275122 0) scale(0.996264)"/>
       <use xlink:href="#CMR17-30" transform="translate(195.965599 0) scale(0.996264)"/>
       <use xlink:href="#CMR17-34" transform="translate(241.656076 0) scale(0.996264)"/>
       <use xlink:href="#CMR17-35" transform="translate(287.346553 0) scale(0.996264)"/>
      </g>
     </g>
    </g>
    <g id="ytick_3">
     <g id="line2d_6">
      <g>
       <use xlink:href="#mf34764ac6d" x="59.265421" y="145.145254" style="stroke: #000000; stroke-width: 0.8"/>
      </g>
     </g>
     <g id="text_7">
      <!-- $\mathdefault{−0.0040}$ -->
      <g transform="translate(20.055677 147.912655) scale(0.08 -0.08)">
       <use xlink:href="#CMSY10-0" transform="scale(0.996264)"/>
       <use xlink:href="#CMR17-30" transform="translate(77.487468 0) scale(0.996264)"/>
       <use xlink:href="#CMMI12-3a" transform="translate(123.177945 0) scale(0.996264)"/>
       <use xlink:href="#CMR17-30" transform="translate(150.275122 0) scale(0.996264)"/>
       <use xlink:href="#CMR17-30" transform="translate(195.965599 0) scale(0.996264)"/>
       <use xlink:href="#CMR17-34" transform="translate(241.656076 0) scale(0.996264)"/>
       <use xlink:href="#CMR17-30" transform="translate(287.346553 0) scale(0.996264)"/>
      </g>
     </g>
    </g>
    <g id="ytick_4">
     <g id="line2d_7">
      <g>
       <use xlink:href="#mf34764ac6d" x="59.265421" y="119.814221" style="stroke: #000000; stroke-width: 0.8"/>
      </g>
     </g>
     <g id="text_8">
      <!-- $\mathdefault{−0.0035}$ -->
      <g transform="translate(20.055677 122.581622) scale(0.08 -0.08)">
       <defs>
        <path id="CMR17-33" d="M 1414 2157 
C 1984 2157 2234 1662 2234 1090 
C 2234 320 1824 25 1453 25 
C 1114 25 563 194 390 693 
C 422 680 454 680 486 680 
C 640 680 755 782 755 948 
C 755 1133 614 1216 486 1216 
C 378 1216 211 1165 211 926 
C 211 335 787 -128 1466 -128 
C 2176 -128 2720 430 2720 1085 
C 2720 1707 2208 2157 1600 2227 
C 2086 2328 2554 2756 2554 3329 
C 2554 3820 2048 4179 1472 4179 
C 890 4179 378 3829 378 3329 
C 378 3110 544 3072 627 3072 
C 762 3072 877 3155 877 3321 
C 877 3486 762 3569 627 3569 
C 602 3569 570 3569 544 3557 
C 730 3959 1235 4032 1459 4032 
C 1683 4032 2106 3925 2106 3320 
C 2106 3143 2080 2828 1862 2550 
C 1670 2304 1453 2304 1242 2284 
C 1210 2284 1062 2269 1037 2269 
C 992 2263 966 2257 966 2208 
C 966 2163 973 2157 1101 2157 
L 1414 2157 
z
" transform="scale(0.015625)"/>
       </defs>
       <use xlink:href="#CMSY10-0" transform="scale(0.996264)"/>
       <use xlink:href="#CMR17-30" transform="translate(77.487468 0) scale(0.996264)"/>
       <use xlink:href="#CMMI12-3a" transform="translate(123.177945 0) scale(0.996264)"/>
       <use xlink:href="#CMR17-30" transform="translate(150.275122 0) scale(0.996264)"/>
       <use xlink:href="#CMR17-30" transform="translate(195.965599 0) scale(0.996264)"/>
       <use xlink:href="#CMR17-33" transform="translate(241.656076 0) scale(0.996264)"/>
       <use xlink:href="#CMR17-35" transform="translate(287.346553 0) scale(0.996264)"/>
      </g>
     </g>
    </g>
    <g id="ytick_5">
     <g id="line2d_8">
      <g>
       <use xlink:href="#mf34764ac6d" x="59.265421" y="94.483188" style="stroke: #000000; stroke-width: 0.8"/>
      </g>
     </g>
     <g id="text_9">
      <!-- $\mathdefault{−0.0030}$ -->
      <g transform="translate(20.055677 97.250589) scale(0.08 -0.08)">
       <use xlink:href="#CMSY10-0" transform="scale(0.996264)"/>
       <use xlink:href="#CMR17-30" transform="translate(77.487468 0) scale(0.996264)"/>
       <use xlink:href="#CMMI12-3a" transform="translate(123.177945 0) scale(0.996264)"/>
       <use xlink:href="#CMR17-30" transform="translate(150.275122 0) scale(0.996264)"/>
       <use xlink:href="#CMR17-30" transform="translate(195.965599 0) scale(0.996264)"/>
       <use xlink:href="#CMR17-33" transform="translate(241.656076 0) scale(0.996264)"/>
       <use xlink:href="#CMR17-30" transform="translate(287.346553 0) scale(0.996264)"/>
      </g>
     </g>
    </g>
    <g id="ytick_6">
     <g id="line2d_9">
      <g>
       <use xlink:href="#mf34764ac6d" x="59.265421" y="69.152155" style="stroke: #000000; stroke-width: 0.8"/>
      </g>
     </g>
     <g id="text_10">
      <!-- $\mathdefault{−0.0025}$ -->
      <g transform="translate(20.055677 71.919556) scale(0.08 -0.08)">
       <use xlink:href="#CMSY10-0" transform="scale(0.996264)"/>
       <use xlink:href="#CMR17-30" transform="translate(77.487468 0) scale(0.996264)"/>
       <use xlink:href="#CMMI12-3a" transform="translate(123.177945 0) scale(0.996264)"/>
       <use xlink:href="#CMR17-30" transform="translate(150.275122 0) scale(0.996264)"/>
       <use xlink:href="#CMR17-30" transform="translate(195.965599 0) scale(0.996264)"/>
       <use xlink:href="#CMR17-32" transform="translate(241.656076 0) scale(0.996264)"/>
       <use xlink:href="#CMR17-35" transform="translate(287.346553 0) scale(0.996264)"/>
      </g>
     </g>
    </g>
    <g id="ytick_7">
     <g id="line2d_10">
      <g>
       <use xlink:href="#mf34764ac6d" x="59.265421" y="43.821122" style="stroke: #000000; stroke-width: 0.8"/>
      </g>
     </g>
     <g id="text_11">
      <!-- $\mathdefault{−0.0020}$ -->
      <g transform="translate(20.055677 46.588523) scale(0.08 -0.08)">
       <use xlink:href="#CMSY10-0" transform="scale(0.996264)"/>
       <use xlink:href="#CMR17-30" transform="translate(77.487468 0) scale(0.996264)"/>
       <use xlink:href="#CMMI12-3a" transform="translate(123.177945 0) scale(0.996264)"/>
       <use xlink:href="#CMR17-30" transform="translate(150.275122 0) scale(0.996264)"/>
       <use xlink:href="#CMR17-30" transform="translate(195.965599 0) scale(0.996264)"/>
       <use xlink:href="#CMR17-32" transform="translate(241.656076 0) scale(0.996264)"/>
       <use xlink:href="#CMR17-30" transform="translate(287.346553 0) scale(0.996264)"/>
      </g>
     </g>
    </g>
    <g id="ytick_8">
     <g id="line2d_11">
      <g>
       <use xlink:href="#mf34764ac6d" x="59.265421" y="18.490089" style="stroke: #000000; stroke-width: 0.8"/>
      </g>
     </g>
     <g id="text_12">
      <!-- $\mathdefault{−0.0015}$ -->
      <g transform="translate(20.055677 21.25749) scale(0.08 -0.08)">
       <defs>
        <path id="CMR17-31" d="M 1702 4058 
C 1702 4192 1696 4192 1606 4192 
C 1357 3916 979 3827 621 3827 
C 602 3827 570 3827 563 3808 
C 557 3795 557 3782 557 3648 
C 755 3648 1088 3686 1344 3839 
L 1344 461 
C 1344 236 1331 160 781 160 
L 589 160 
L 589 0 
C 896 0 1216 0 1523 0 
C 1830 0 2150 0 2458 0 
L 2458 160 
L 2266 160 
C 1715 160 1702 230 1702 458 
L 1702 4058 
z
" transform="scale(0.015625)"/>
       </defs>
       <use xlink:href="#CMSY10-0" transform="scale(0.996264)"/>
       <use xlink:href="#CMR17-30" transform="translate(77.487468 0) scale(0.996264)"/>
       <use xlink:href="#CMMI12-3a" transform="translate(123.177945 0) scale(0.996264)"/>
       <use xlink:href="#CMR17-30" transform="translate(150.275122 0) scale(0.996264)"/>
       <use xlink:href="#CMR17-30" transform="translate(195.965599 0) scale(0.996264)"/>
       <use xlink:href="#CMR17-31" transform="translate(241.656076 0) scale(0.996264)"/>
       <use xlink:href="#CMR17-35" transform="translate(287.346553 0) scale(0.996264)"/>
      </g>
     </g>
    </g>
    <g id="text_13">
     <!-- $P$ -->
     <g transform="translate(14.118498 108.077723) rotate(-90) scale(0.1 -0.1)">
      <defs>
       <path id="CMMI12-50" d="M 1894 2023 
L 2970 2023 
C 3853 2023 4736 2673 4736 3401 
C 4736 3898 4314 4352 3507 4352 
L 1530 4352 
C 1408 4352 1350 4352 1350 4231 
C 1350 4167 1408 4167 1504 4167 
C 1894 4167 1894 4116 1894 4046 
C 1894 4034 1894 3995 1869 3899 
L 1005 472 
C 947 249 934 185 486 185 
C 365 185 301 185 301 70 
C 301 0 358 0 397 0 
C 518 0 646 0 768 0 
L 1517 0 
C 1638 0 1773 0 1894 0 
C 1946 0 2016 0 2016 121 
C 2016 185 1958 185 1862 185 
C 1478 185 1472 230 1472 293 
C 1472 325 1478 369 1485 401 
L 1894 2023 
z
M 2355 3930 
C 2413 4167 2438 4167 2688 4167 
L 3322 4167 
C 3802 4167 4198 4013 4198 3535 
C 4198 3369 4115 2827 3821 2534 
C 3712 2419 3405 2176 2822 2176 
L 1920 2176 
L 2355 3930 
z
" transform="scale(0.015625)"/>
      </defs>
      <use xlink:href="#CMMI12-50" transform="scale(0.996264)"/>
     </g>
    </g>
   </g>
   <g id="line2d_12">
    <path d="M 62.046307 120.695826 
L 69.991696 117.542835 
L 77.937085 122.736497 
L 85.882473 123.337008 
L 93.827862 123.663983 
L 101.77325 121.611486 
L 109.718639 121.292176 
L 117.664027 121.115523 
L 117.664027 121.115523 
" clip-path="url(#p54d74dd5ab)" style="fill: none; stroke: #1f77b4; stroke-width: 0.5; stroke-linecap: square"/>
   </g>
   <g id="line2d_13">
    <path d="M 62.046307 93.447432 
L 69.991696 89.649855 
L 77.937085 96.193166 
L 85.882473 94.964214 
L 93.827862 95.609399 
L 101.77325 94.344571 
L 109.718639 93.877785 
L 117.664027 94.646956 
L 117.664027 94.646956 
" clip-path="url(#p54d74dd5ab)" style="fill: none; stroke: #ff7f0e; stroke-width: 0.5; stroke-linecap: square"/>
   </g>
   <g id="line2d_14">
    <path d="M 62.046307 69.277969 
L 69.991696 62.360222 
L 77.937085 67.902436 
L 85.882473 67.170737 
L 93.827862 67.713216 
L 101.77325 68.599086 
L 109.718639 68.18605 
L 117.664027 68.454216 
L 117.664027 68.454216 
" clip-path="url(#p54d74dd5ab)" style="fill: none; stroke: #2ca02c; stroke-width: 0.5; stroke-linecap: square"/>
   </g>
   <g id="line2d_15">
    <path d="M 62.046307 49.042465 
L 69.991696 40.554099 
L 77.937085 44.581538 
L 85.882473 44.227705 
L 93.827862 45.285401 
L 101.77325 45.475116 
L 109.718639 44.828981 
L 117.664027 45.400344 
L 117.664027 45.400344 
" clip-path="url(#p54d74dd5ab)" style="fill: none; stroke: #d62728; stroke-width: 0.5; stroke-linecap: square"/>
   </g>
   <g id="line2d_16">
    <path d="M 62.046307 23.445133 
L 69.991696 16.079968 
L 77.937085 21.619414 
L 85.882473 21.255153 
L 93.827862 22.392957 
L 101.77325 22.113521 
L 109.718639 21.803165 
L 117.664027 22.354659 
L 117.664027 22.354659 
" clip-path="url(#p54d74dd5ab)" style="fill: none; stroke: #9467bd; stroke-width: 0.5; stroke-linecap: square"/>
   </g>
   <g id="line2d_17">
    <path d="M 62.046307 186.461559 
L 69.991696 185.360134 
L 77.937085 183.503897 
L 85.882473 184.992324 
L 93.827862 184.574867 
L 101.77325 184.813248 
L 109.718639 184.895138 
L 117.664027 185.624265 
L 117.664027 185.624265 
" clip-path="url(#p54d74dd5ab)" style="fill: none; stroke: #8c564b; stroke-width: 0.5; stroke-linecap: square"/>
   </g>
   <g id="line2d_18">
    <path d="M 62.046307 161.712043 
L 69.991696 162.669811 
L 77.937085 161.373281 
L 85.882473 161.635298 
L 93.827862 161.198403 
L 101.77325 160.344749 
L 109.718639 160.690935 
L 117.664027 161.618701 
L 117.664027 161.618701 
" clip-path="url(#p54d74dd5ab)" style="fill: none; stroke: #e377c2; stroke-width: 0.5; stroke-linecap: square"/>
   </g>
   <g id="line2d_19">
    <path d="M 62.046307 137.534964 
L 69.991696 136.93574 
L 77.937085 136.725881 
L 85.882473 137.587404 
L 93.827862 136.680674 
L 101.77325 136.133374 
L 109.718639 135.961839 
L 117.664027 136.673095 
L 117.664027 136.673095 
" clip-path="url(#p54d74dd5ab)" style="fill: none; stroke: #7f7f7f; stroke-width: 0.5; stroke-linecap: square"/>
   </g>
   <g id="line2d_20">
    <path d="M 62.046307 116.073699 
L 69.991696 113.969057 
L 77.937085 112.921048 
L 85.882473 114.730662 
L 93.827862 114.882437 
L 101.77325 115.291271 
L 109.718639 115.283347 
L 117.664027 115.58055 
L 117.664027 115.58055 
" clip-path="url(#p54d74dd5ab)" style="fill: none; stroke: #bcbd22; stroke-width: 0.5; stroke-linecap: square"/>
   </g>
   <g id="line2d_21">
    <path d="M 117.664027 95.431232 
" clip-path="url(#p54d74dd5ab)" style="fill: none; stroke: #17becf; stroke-width: 0.5; stroke-linecap: square"/>
   </g>
   <g id="line2d_22">
    <path d="M 62.046307 193.679328 
L 69.991696 189.288978 
L 77.937085 187.018184 
L 85.882473 185.723366 
L 93.827862 185.354861 
L 101.77325 185.67793 
L 109.718639 185.988646 
L 117.664027 185.765422 
L 117.664027 185.765422 
" clip-path="url(#p54d74dd5ab)" style="fill: none; stroke: #1f77b4; stroke-width: 0.5; stroke-linecap: square"/>
   </g>
   <g id="line2d_23">
    <path d="M 62.046307 171.675033 
L 69.991696 167.617137 
L 77.937085 164.570168 
L 85.882473 163.15898 
L 93.827862 163.313745 
L 101.77325 162.757794 
L 109.718639 162.886928 
L 117.664027 162.4167 
L 117.664027 162.4167 
" clip-path="url(#p54d74dd5ab)" style="fill: none; stroke: #ff7f0e; stroke-width: 0.5; stroke-linecap: square"/>
   </g>
   <g id="line2d_24">
    <path d="M 62.046307 147.710302 
L 69.991696 144.332034 
L 77.937085 141.707288 
L 85.882473 141.138631 
L 93.827862 141.756575 
L 101.77325 141.597571 
L 109.718639 140.957796 
L 117.664027 140.624495 
L 117.664027 140.624495 
" clip-path="url(#p54d74dd5ab)" style="fill: none; stroke: #2ca02c; stroke-width: 0.5; stroke-linecap: square"/>
   </g>
   <g id="line2d_25">
    <path d="M 62.046307 118.5633 
L 69.991696 123.170391 
L 77.937085 121.414783 
L 85.882473 118.858452 
L 93.827862 118.512801 
L 101.77325 119.098206 
L 109.718639 118.806899 
L 117.664027 118.575305 
L 117.664027 118.575305 
" clip-path="url(#p54d74dd5ab)" style="fill: none; stroke: #d62728; stroke-width: 0.5; stroke-linecap: square"/>
   </g>
   <g id="line2d_26">
    <path d="M 62.046307 93.11031 
L 69.991696 99.572441 
L 77.937085 98.168581 
L 85.882473 97.038816 
L 93.827862 97.050703 
L 101.77325 98.173783 
L 109.718639 97.798587 
L 117.664027 97.783194 
L 117.664027 97.783194 
" clip-path="url(#p54d74dd5ab)" style="fill: none; stroke: #9467bd; stroke-width: 0.5; stroke-linecap: square"/>
   </g>
   <g id="line2d_27">
    <path d="M 62.046307 180.828629 
L 69.991696 181.37091 
L 77.937085 180.662447 
L 85.882473 181.517884 
L 93.827862 182.822286 
L 101.77325 182.346832 
L 109.718639 182.746166 
L 117.664027 182.349609 
L 117.664027 182.349609 
" clip-path="url(#p54d74dd5ab)" style="fill: none; stroke: #8c564b; stroke-width: 0.5; stroke-linecap: square"/>
   </g>
   <g id="line2d_28">
    <path d="M 62.046307 155.145498 
L 69.991696 156.491087 
L 77.937085 155.132765 
L 85.882473 157.134108 
L 93.827862 158.822545 
L 101.77325 158.701957 
L 109.718639 159.002387 
L 117.664027 158.478854 
L 117.664027 158.478854 
" clip-path="url(#p54d74dd5ab)" style="fill: none; stroke: #e377c2; stroke-width: 0.5; stroke-linecap: square"/>
   </g>
   <g id="line2d_29">
    <path d="M 62.046307 141.779567 
L 69.991696 138.641959 
L 77.937085 138.127369 
L 85.882473 137.515821 
L 93.827862 137.187305 
L 101.77325 137.795557 
L 109.718639 137.583224 
L 117.664027 137.902702 
L 117.664027 137.902702 
" clip-path="url(#p54d74dd5ab)" style="fill: none; stroke: #7f7f7f; stroke-width: 0.5; stroke-linecap: square"/>
   </g>
   <g id="line2d_30">
    <path d="M 62.046307 120.920196 
L 69.991696 119.092057 
L 77.937085 119.708561 
L 85.882473 118.241123 
L 93.827862 118.107114 
L 101.77325 117.857598 
L 109.718639 117.534733 
L 117.664027 118.150162 
L 117.664027 118.150162 
" clip-path="url(#p54d74dd5ab)" style="fill: none; stroke: #bcbd22; stroke-width: 0.5; stroke-linecap: square"/>
   </g>
   <g id="line2d_31">
    <path d="M 62.046307 106.292308 
L 69.991696 103.138373 
L 77.937085 101.273115 
L 85.882473 99.814326 
L 93.827862 98.626248 
L 101.77325 98.752984 
L 109.718639 99.238151 
L 117.664027 99.394473 
L 117.664027 99.394473 
" clip-path="url(#p54d74dd5ab)" style="fill: none; stroke: #17becf; stroke-width: 0.5; stroke-linecap: square"/>
   </g>
   <g id="line2d_32">
    <path d="M 62.046307 179.343037 
L 69.991696 181.314177 
L 77.937085 181.103473 
L 85.882473 180.174672 
L 93.827862 179.041767 
L 101.77325 178.346054 
L 109.718639 179.748447 
L 117.664027 179.403925 
L 117.664027 179.403925 
" clip-path="url(#p54d74dd5ab)" style="fill: none; stroke: #1f77b4; stroke-width: 0.5; stroke-linecap: square"/>
   </g>
   <g id="line2d_33">
    <path d="M 62.046307 160.329903 
L 69.991696 158.419437 
L 77.937085 158.668778 
L 85.882473 158.268347 
L 93.827862 158.358282 
L 101.77325 158.000676 
L 109.718639 157.041331 
L 117.664027 156.812818 
L 117.664027 156.812818 
" clip-path="url(#p54d74dd5ab)" style="fill: none; stroke: #ff7f0e; stroke-width: 0.5; stroke-linecap: square"/>
   </g>
   <g id="line2d_34">
    <path d="M 117.664027 135.297628 
" clip-path="url(#p54d74dd5ab)" style="fill: none; stroke: #2ca02c; stroke-width: 0.5; stroke-linecap: square"/>
   </g>
   <g id="line2d_35">
    <path d="M 62.046307 117.7344 
L 69.991696 116.565482 
L 77.937085 116.475105 
L 85.882473 116.445471 
L 93.827862 117.193647 
L 101.77325 116.184958 
L 109.718639 115.791999 
L 117.664027 115.915604 
L 117.664027 115.915604 
" clip-path="url(#p54d74dd5ab)" style="fill: none; stroke: #d62728; stroke-width: 0.5; stroke-linecap: square"/>
   </g>
   <g id="line2d_36">
    <path d="M 62.046307 101.120545 
L 69.991696 100.733297 
L 77.937085 99.630792 
L 85.882473 100.377266 
L 93.827862 100.551181 
L 101.77325 99.922785 
L 109.718639 98.744136 
L 117.664027 98.306488 
L 117.664027 98.306488 
" clip-path="url(#p54d74dd5ab)" style="fill: none; stroke: #9467bd; stroke-width: 0.5; stroke-linecap: square"/>
   </g>
   <g id="patch_3">
    <path d="M 59.265421 202.559296 
L 59.265421 7.2 
" style="fill: none; stroke: #000000; stroke-width: 0.8; stroke-linejoin: miter; stroke-linecap: square"/>
   </g>
   <g id="patch_4">
    <path d="M 120.444913 202.559296 
L 120.444913 7.2 
" style="fill: none; stroke: #000000; stroke-width: 0.8; stroke-linejoin: miter; stroke-linecap: square"/>
   </g>
   <g id="patch_5">
    <path d="M 59.265421 202.559296 
L 120.444913 202.559296 
" style="fill: none; stroke: #000000; stroke-width: 0.8; stroke-linejoin: miter; stroke-linecap: square"/>
   </g>
   <g id="patch_6">
    <path d="M 59.265421 7.2 
L 120.444913 7.2 
" style="fill: none; stroke: #000000; stroke-width: 0.8; stroke-linejoin: miter; stroke-linecap: square"/>
   </g>
  </g>
  <g id="axes_2">
   <g id="patch_7">
    <path d="M 180.991462 202.559296 
L 242.170954 202.559296 
L 242.170954 7.2 
L 180.991462 7.2 
z
" style="fill: #ffffff"/>
   </g>
   <g id="matplotlib.axis_3">
    <g id="xtick_4">
     <g id="line2d_37">
      <g>
       <use xlink:href="#m303d68ed0a" x="195.690431" y="202.559296" style="stroke: #000000; stroke-width: 0.8"/>
      </g>
     </g>
     <g id="text_14">
      <!-- $\mathdefault{25000}$ -->
      <g transform="translate(185.104973 217.194098) scale(0.08 -0.08)">
       <use xlink:href="#CMR17-32" transform="scale(0.996264)"/>
       <use xlink:href="#CMR17-35" transform="translate(45.690477 0) scale(0.996264)"/>
       <use xlink:href="#CMR17-30" transform="translate(91.380954 0) scale(0.996264)"/>
       <use xlink:href="#CMR17-30" transform="translate(137.071431 0) scale(0.996264)"/>
       <use xlink:href="#CMR17-30" transform="translate(182.761908 0) scale(0.996264)"/>
      </g>
     </g>
    </g>
    <g id="xtick_5">
     <g id="line2d_38">
      <g>
       <use xlink:href="#m303d68ed0a" x="215.553902" y="202.559296" style="stroke: #000000; stroke-width: 0.8"/>
      </g>
     </g>
     <g id="text_15">
      <!-- $\mathdefault{50000}$ -->
      <g transform="translate(204.968445 217.194098) scale(0.08 -0.08)">
       <use xlink:href="#CMR17-35" transform="scale(0.996264)"/>
       <use xlink:href="#CMR17-30" transform="translate(45.690477 0) scale(0.996264)"/>
       <use xlink:href="#CMR17-30" transform="translate(91.380954 0) scale(0.996264)"/>
       <use xlink:href="#CMR17-30" transform="translate(137.071431 0) scale(0.996264)"/>
       <use xlink:href="#CMR17-30" transform="translate(182.761908 0) scale(0.996264)"/>
      </g>
     </g>
    </g>
    <g id="xtick_6">
     <g id="line2d_39">
      <g>
       <use xlink:href="#m303d68ed0a" x="235.417373" y="202.559296" style="stroke: #000000; stroke-width: 0.8"/>
      </g>
     </g>
     <g id="text_16">
      <!-- $\mathdefault{75000}$ -->
      <g transform="translate(224.831916 217.194098) scale(0.08 -0.08)">
       <use xlink:href="#CMR17-37" transform="scale(0.996264)"/>
       <use xlink:href="#CMR17-35" transform="translate(45.690477 0) scale(0.996264)"/>
       <use xlink:href="#CMR17-30" transform="translate(91.380954 0) scale(0.996264)"/>
       <use xlink:href="#CMR17-30" transform="translate(137.071431 0) scale(0.996264)"/>
       <use xlink:href="#CMR17-30" transform="translate(182.761908 0) scale(0.996264)"/>
      </g>
     </g>
    </g>
    <g id="text_17">
     <!-- $N$ -->
     <g transform="translate(207.57886 229.662342) scale(0.1 -0.1)">
      <use xlink:href="#CMMI12-4e" transform="scale(0.996264)"/>
     </g>
    </g>
   </g>
   <g id="matplotlib.axis_4">
    <g id="ytick_9">
     <g id="line2d_40">
      <defs>
       <path id="m239f5df29e" d="M 0 0 
L -2 0 
" style="stroke: #000000; stroke-width: 0.4"/>
      </defs>
      <g>
       <use xlink:href="#m239f5df29e" x="180.991462" y="133.449192" style="stroke: #000000; stroke-width: 0.4"/>
      </g>
     </g>
     <g id="text_18">
      <!-- $\mathdefault{3\times10^{-1}}$ -->
      <g transform="translate(143.129636 136.421946) scale(0.08 -0.08)">
       <defs>
        <path id="CMSY10-2" d="M 2490 1785 
L 1210 3059 
C 1133 3136 1120 3148 1069 3148 
C 1005 3148 941 3091 941 3020 
C 941 2976 954 2963 1024 2892 
L 2304 1606 
L 1024 320 
C 954 249 941 236 941 192 
C 941 121 1005 64 1069 64 
C 1120 64 1133 76 1210 153 
L 2483 1427 
L 3808 102 
C 3821 96 3866 64 3904 64 
C 3981 64 4032 121 4032 192 
C 4032 204 4032 230 4013 262 
C 4006 275 2989 1280 2669 1606 
L 3840 2777 
C 3872 2816 3968 2899 4000 2937 
C 4006 2950 4032 2976 4032 3020 
C 4032 3091 3981 3148 3904 3148 
C 3853 3148 3827 3123 3757 3052 
L 2490 1785 
z
" transform="scale(0.015625)"/>
       </defs>
       <use xlink:href="#CMR17-33" transform="scale(0.996264)"/>
       <use xlink:href="#CMSY10-2" transform="translate(67.829684 0) scale(0.996264)"/>
       <use xlink:href="#CMR17-31" transform="translate(167.456359 0) scale(0.996264)"/>
       <use xlink:href="#CMR17-30" transform="translate(213.146836 0) scale(0.996264)"/>
       <use xlink:href="#CMSY10-0" transform="translate(258.837313 36.153639) scale(0.697382)"/>
       <use xlink:href="#CMR17-31" transform="translate(313.078306 36.153639) scale(0.697382)"/>
      </g>
     </g>
    </g>
    <g id="ytick_10">
     <g id="line2d_41">
      <g>
       <use xlink:href="#m239f5df29e" x="180.991462" y="60.701321" style="stroke: #000000; stroke-width: 0.4"/>
      </g>
     </g>
     <g id="text_19">
      <!-- $\mathdefault{4\times10^{-1}}$ -->
      <g transform="translate(143.129636 63.674075) scale(0.08 -0.08)">
       <use xlink:href="#CMR17-34" transform="scale(0.996264)"/>
       <use xlink:href="#CMSY10-2" transform="translate(67.829684 0) scale(0.996264)"/>
       <use xlink:href="#CMR17-31" transform="translate(167.456359 0) scale(0.996264)"/>
       <use xlink:href="#CMR17-30" transform="translate(213.146836 0) scale(0.996264)"/>
       <use xlink:href="#CMSY10-0" transform="translate(258.837313 36.153639) scale(0.697382)"/>
       <use xlink:href="#CMR17-31" transform="translate(313.078306 36.153639) scale(0.697382)"/>
      </g>
     </g>
    </g>
    <g id="text_20">
     <!-- $\eta$ -->
     <g transform="translate(137.192458 107.353024) rotate(-90) scale(0.1 -0.1)">
      <defs>
       <path id="CMMI12-11" d="M 3040 1768 
C 3072 1895 3091 1973 3091 2145 
C 3091 2528 2867 2815 2381 2815 
C 1811 2815 1510 2413 1395 2254 
C 1376 2618 1114 2815 832 2815 
C 646 2815 499 2726 378 2483 
C 262 2254 173 1864 173 1839 
C 173 1813 198 1781 243 1781 
C 294 1781 301 1788 339 1934 
C 435 2311 557 2688 813 2688 
C 960 2688 1011 2586 1011 2394 
C 1011 2254 947 2005 902 1807 
L 723 1118 
C 698 996 627 709 595 593 
C 550 428 480 127 480 96 
C 480 6 550 -64 646 -64 
C 723 -64 813 -25 864 70 
C 877 102 934 326 966 453 
L 1107 1028 
L 1318 1871 
C 1331 1909 1491 2228 1728 2432 
C 1894 2586 2112 2688 2362 2688 
C 2618 2688 2707 2496 2707 2241 
C 2707 2055 2682 1953 2650 1831 
L 1907 -1107 
C 1901 -1139 1888 -1177 1888 -1216 
C 1888 -1312 1965 -1376 2061 -1376 
C 2118 -1376 2253 -1350 2304 -1158 
L 3040 1768 
z
" transform="scale(0.015625)"/>
      </defs>
      <use xlink:href="#CMMI12-11" transform="scale(0.996264)"/>
     </g>
    </g>
   </g>
   <g id="line2d_42">
    <path d="M 183.772348 68.007111 
L 191.717736 74.370571 
L 199.663125 70.211108 
L 207.608513 72.290886 
L 215.553902 69.084452 
L 223.499291 72.526361 
L 231.444679 70.572118 
L 239.390068 70.248195 
L 239.390068 70.248195 
" clip-path="url(#p30494e4313)" style="fill: none; stroke: #1f77b4; stroke-width: 0.5; stroke-linecap: square"/>
   </g>
   <g id="line2d_43">
    <path d="M 183.772348 88.252251 
L 191.717736 97.251516 
L 199.663125 85.883482 
L 207.608513 91.882919 
L 215.553902 89.458466 
L 223.499291 91.555685 
L 231.444679 91.263339 
L 239.390068 90.15956 
L 239.390068 90.15956 
" clip-path="url(#p30494e4313)" style="fill: none; stroke: #ff7f0e; stroke-width: 0.5; stroke-linecap: square"/>
   </g>
   <g id="line2d_44">
    <path d="M 183.772348 107.432132 
L 191.717736 121.628311 
L 199.663125 112.925928 
L 207.608513 117.871664 
L 215.553902 115.331937 
L 223.499291 114.984076 
L 231.444679 114.379706 
L 239.390068 112.977047 
L 239.390068 112.977047 
" clip-path="url(#p30494e4313)" style="fill: none; stroke: #2ca02c; stroke-width: 0.5; stroke-linecap: square"/>
   </g>
   <g id="line2d_45">
    <path d="M 183.772348 124.457393 
L 191.717736 148.098358 
L 199.663125 139.538924 
L 207.608513 146.196898 
L 215.553902 142.434481 
L 223.499291 143.965538 
L 231.444679 142.648094 
L 239.390068 140.57037 
L 239.390068 140.57037 
" clip-path="url(#p30494e4313)" style="fill: none; stroke: #d62728; stroke-width: 0.5; stroke-linecap: square"/>
   </g>
   <g id="line2d_46">
    <path d="M 183.772348 165.886144 
L 191.717736 193.679328 
L 199.663125 177.248251 
L 207.608513 183.056699 
L 215.553902 177.917877 
L 223.499291 179.873587 
L 231.444679 178.62639 
L 239.390068 176.108588 
L 239.390068 176.108588 
" clip-path="url(#p30494e4313)" style="fill: none; stroke: #9467bd; stroke-width: 0.5; stroke-linecap: square"/>
   </g>
   <g id="line2d_47">
    <path d="M 183.772348 16.079968 
L 191.717736 19.32038 
L 199.663125 22.299713 
L 207.608513 21.478767 
L 215.553902 24.011551 
L 223.499291 22.770097 
L 231.444679 23.66865 
L 239.390068 23.919746 
L 239.390068 23.919746 
" clip-path="url(#p30494e4313)" style="fill: none; stroke: #8c564b; stroke-width: 0.5; stroke-linecap: square"/>
   </g>
   <g id="line2d_48">
    <path d="M 183.772348 25.055747 
L 191.717736 27.401046 
L 199.663125 29.804412 
L 207.608513 29.826939 
L 215.553902 31.605924 
L 223.499291 30.788204 
L 231.444679 31.483023 
L 239.390068 31.469515 
L 239.390068 31.469515 
" clip-path="url(#p30494e4313)" style="fill: none; stroke: #e377c2; stroke-width: 0.5; stroke-linecap: square"/>
   </g>
   <g id="line2d_49">
    <path d="M 183.772348 36.250017 
L 191.717736 37.621102 
L 199.663125 39.512947 
L 207.608513 39.877317 
L 215.553902 41.441444 
L 223.499291 40.90959 
L 231.444679 41.574501 
L 239.390068 41.970574 
L 239.390068 41.970574 
" clip-path="url(#p30494e4313)" style="fill: none; stroke: #7f7f7f; stroke-width: 0.5; stroke-linecap: square"/>
   </g>
   <g id="line2d_50">
    <path d="M 183.772348 41.712959 
L 191.717736 48.244233 
L 199.663125 51.513804 
L 207.608513 50.587416 
L 215.553902 52.43436 
L 223.499291 50.791395 
L 231.444679 51.616094 
L 239.390068 52.189856 
L 239.390068 52.189856 
" clip-path="url(#p30494e4313)" style="fill: none; stroke: #bcbd22; stroke-width: 0.5; stroke-linecap: square"/>
   </g>
   <g id="line2d_51">
    <path d="M 183.772348 17.842903 
L 191.717736 20.741298 
L 199.663125 23.562442 
L 207.608513 24.045558 
L 215.553902 24.75228 
L 223.499291 24.833027 
L 231.444679 24.492443 
L 239.390068 24.694064 
L 239.390068 24.694064 
" clip-path="url(#p30494e4313)" style="fill: none; stroke: #17becf; stroke-width: 0.5; stroke-linecap: square"/>
   </g>
   <g id="line2d_52">
    <path d="M 183.772348 24.688843 
L 191.717736 28.85074 
L 199.663125 32.232691 
L 207.608513 32.84137 
L 215.553902 32.887014 
L 223.499291 33.101752 
L 231.444679 32.952924 
L 239.390068 33.197202 
L 239.390068 33.197202 
" clip-path="url(#p30494e4313)" style="fill: none; stroke: #1f77b4; stroke-width: 0.5; stroke-linecap: square"/>
   </g>
   <g id="line2d_53">
    <path d="M 183.772348 32.22814 
L 191.717736 37.724764 
L 199.663125 41.107601 
L 207.608513 40.046923 
L 215.553902 40.301589 
L 223.499291 39.875492 
L 231.444679 40.096067 
L 239.390068 40.651467 
L 239.390068 40.651467 
" clip-path="url(#p30494e4313)" style="fill: none; stroke: #ff7f0e; stroke-width: 0.5; stroke-linecap: square"/>
   </g>
   <g id="line2d_54">
    <path d="M 183.772348 46.272591 
L 191.717736 43.82384 
L 199.663125 47.199515 
L 207.608513 50.051415 
L 215.553902 50.158516 
L 223.499291 49.19131 
L 231.444679 49.782082 
L 239.390068 49.781669 
L 239.390068 49.781669 
" clip-path="url(#p30494e4313)" style="fill: none; stroke: #2ca02c; stroke-width: 0.5; stroke-linecap: square"/>
   </g>
   <g id="line2d_55">
    <path d="M 183.772348 60.648445 
L 191.717736 52.853153 
L 199.663125 54.904715 
L 207.608513 57.766388 
L 215.553902 58.479339 
L 223.499291 57.580639 
L 231.444679 58.378941 
L 239.390068 58.692019 
L 239.390068 58.692019 
" clip-path="url(#p30494e4313)" style="fill: none; stroke: #d62728; stroke-width: 0.5; stroke-linecap: square"/>
   </g>
   <g id="line2d_56">
    <path d="M 183.772348 27.846295 
L 191.717736 28.555147 
L 199.663125 28.952816 
L 207.608513 27.870276 
L 215.553902 26.015816 
L 223.499291 26.316461 
L 231.444679 26.564425 
L 239.390068 26.251308 
L 239.390068 26.251308 
" clip-path="url(#p30494e4313)" style="fill: none; stroke: #9467bd; stroke-width: 0.5; stroke-linecap: square"/>
   </g>
   <g id="line2d_57">
    <path d="M 183.772348 37.546754 
L 191.717736 38.970427 
L 199.663125 39.825818 
L 207.608513 38.091955 
L 215.553902 34.966545 
L 223.499291 34.745285 
L 231.444679 34.542292 
L 239.390068 34.023344 
L 239.390068 34.023344 
" clip-path="url(#p30494e4313)" style="fill: none; stroke: #8c564b; stroke-width: 0.5; stroke-linecap: square"/>
   </g>
   <g id="line2d_58">
    <path d="M 183.772348 33.831965 
L 191.717736 36.218546 
L 199.663125 36.690852 
L 207.608513 37.165795 
L 215.553902 37.122534 
L 223.499291 37.168733 
L 231.444679 37.854099 
L 239.390068 38.464518 
L 239.390068 38.464518 
" clip-path="url(#p30494e4313)" style="fill: none; stroke: #e377c2; stroke-width: 0.5; stroke-linecap: square"/>
   </g>
   <g id="line2d_59">
    <path d="M 183.772348 43.973159 
L 191.717736 44.643164 
L 199.663125 43.680871 
L 207.608513 45.295036 
L 215.553902 44.712217 
L 223.499291 45.100118 
L 231.444679 46.056845 
L 239.390068 46.716513 
L 239.390068 46.716513 
" clip-path="url(#p30494e4313)" style="fill: none; stroke: #7f7f7f; stroke-width: 0.5; stroke-linecap: square"/>
   </g>
   <g id="line2d_60">
    <path d="M 183.772348 47.971147 
L 191.717736 50.052588 
L 199.663125 49.46642 
L 207.608513 50.115338 
L 215.553902 52.062354 
L 223.499291 51.760504 
L 231.444679 52.599173 
L 239.390068 53.985789 
L 239.390068 53.985789 
" clip-path="url(#p30494e4313)" style="fill: none; stroke: #bcbd22; stroke-width: 0.5; stroke-linecap: square"/>
   </g>
   <g id="line2d_61">
    <path d="M 183.772348 21.416881 
L 191.717736 21.712304 
L 199.663125 20.49128 
L 207.608513 21.574954 
L 215.553902 22.962898 
L 223.499291 22.755508 
L 231.444679 22.665818 
L 239.390068 23.033899 
L 239.390068 23.033899 
" clip-path="url(#p30494e4313)" style="fill: none; stroke: #17becf; stroke-width: 0.5; stroke-linecap: square"/>
   </g>
   <g id="line2d_62">
    <path d="M 183.772348 30.71294 
L 191.717736 31.800341 
L 199.663125 30.379628 
L 207.608513 31.816916 
L 215.553902 31.368522 
L 223.499291 31.931847 
L 231.444679 32.455113 
L 239.390068 33.105967 
L 239.390068 33.105967 
" clip-path="url(#p30494e4313)" style="fill: none; stroke: #1f77b4; stroke-width: 0.5; stroke-linecap: square"/>
   </g>
   <g id="line2d_63">
    <path d="M 183.772348 48.551803 
L 191.717736 46.554141 
L 199.663125 47.531708 
L 207.608513 49.089932 
L 215.553902 48.250043 
L 223.499291 48.742935 
L 231.444679 48.487755 
L 239.390068 48.577015 
L 239.390068 48.577015 
" clip-path="url(#p30494e4313)" style="fill: none; stroke: #ff7f0e; stroke-width: 0.5; stroke-linecap: square"/>
   </g>
   <g id="line2d_64">
    <path d="M 183.772348 56.237258 
L 191.717736 52.146677 
L 199.663125 53.241815 
L 207.608513 53.021522 
L 215.553902 52.609915 
L 223.499291 52.441882 
L 231.444679 53.449524 
L 239.390068 54.584825 
L 239.390068 54.584825 
" clip-path="url(#p30494e4313)" style="fill: none; stroke: #2ca02c; stroke-width: 0.5; stroke-linecap: square"/>
   </g>
   <g id="patch_8">
    <path d="M 180.991462 202.559296 
L 180.991462 7.2 
" style="fill: none; stroke: #000000; stroke-width: 0.8; stroke-linejoin: miter; stroke-linecap: square"/>
   </g>
   <g id="patch_9">
    <path d="M 242.170954 202.559296 
L 242.170954 7.2 
" style="fill: none; stroke: #000000; stroke-width: 0.8; stroke-linejoin: miter; stroke-linecap: square"/>
   </g>
   <g id="patch_10">
    <path d="M 180.991462 202.559296 
L 242.170954 202.559296 
" style="fill: none; stroke: #000000; stroke-width: 0.8; stroke-linejoin: miter; stroke-linecap: square"/>
   </g>
   <g id="patch_11">
    <path d="M 180.991462 7.2 
L 242.170954 7.2 
" style="fill: none; stroke: #000000; stroke-width: 0.8; stroke-linejoin: miter; stroke-linecap: square"/>
   </g>
  </g>
 </g>
 <defs>
  <clipPath id="p54d74dd5ab">
   <rect x="59.265421" y="7.2" width="61.179492" height="195.359296"/>
  </clipPath>
  <clipPath id="p30494e4313">
   <rect x="180.991462" y="7.2" width="61.179492" height="195.359296"/>
  </clipPath>
 </defs>
</svg>
