<?xml version="1.0" encoding="utf-8" standalone="no"?>
<!DOCTYPE svg PUBLIC "-//W3C//DTD SVG 1.1//EN"
  "http://www.w3.org/Graphics/SVG/1.1/DTD/svg11.dtd">
<svg xmlns:xlink="http://www.w3.org/1999/xlink" width="253.19952pt" height="238.79952pt" viewBox="0 0 253.19952 238.79952" xmlns="http://www.w3.org/2000/svg" version="1.1">
 <metadata>
  <rdf:RDF xmlns:dc="http://purl.org/dc/elements/1.1/" xmlns:cc="http://creativecommons.org/ns#" xmlns:rdf="http://www.w3.org/1999/02/22-rdf-syntax-ns#">
   <cc:Work>
    <dc:type rdf:resource="http://purl.org/dc/dcmitype/StillImage"/>
    <dc:date>1980-01-01T00:00:00+00:00</dc:date>
    <dc:format>image/svg+xml</dc:format>
    <dc:creator>
     <cc:Agent>
      <dc:title>Matplotlib v3.6.2, https://matplotlib.org/</dc:title>
     </cc:Agent>
    </dc:creator>
   </cc:Work>
  </rdf:RDF>
 </metadata>
 <defs>
  <style type="text/css">*{stroke-linejoin: round; stroke-linecap: butt}</style>
 </defs>
 <g id="figure_1">
  <g id="patch_1">
   <path d="M 0 238.79952 
L 253.19952 238.79952 
L 253.19952 0 
L 0 0 
z
" style="fill: #ffffff"/>
  </g>
  <g id="axes_1">
   <g id="patch_2">
    <path d="M 33.707196 202.559296 
L 245.99952 202.559296 
L 245.99952 7.2 
L 33.707196 7.2 
z
" style="fill: #ffffff"/>
   </g>
   <g id="matplotlib.axis_1">
    <g id="xtick_1">
     <g id="line2d_1">
      <defs>
       <path id="m4d30fc1123" d="M 0 0 
L 0 3.5 
" style="stroke: #000000; stroke-width: 0.8"/>
      </defs>
      <g>
       <use xlink:href="#m4d30fc1123" x="43.356847" y="202.559296" style="stroke: #000000; stroke-width: 0.8"/>
      </g>
     </g>
     <g id="text_1">
      <!-- $\mathdefault{0}$ -->
      <g transform="translate(41.239756 217.194098) scale(0.08 -0.08)">
       <defs>
        <path id="CMR17-30" d="M 2688 2025 
C 2688 2416 2682 3080 2413 3591 
C 2176 4039 1798 4198 1466 4198 
C 1158 4198 768 4058 525 3597 
C 269 3118 243 2524 243 2025 
C 243 1661 250 1106 448 619 
C 723 -39 1216 -128 1466 -128 
C 1760 -128 2208 -7 2470 600 
C 2662 1042 2688 1559 2688 2025 
z
M 1466 -26 
C 1056 -26 813 325 723 812 
C 653 1188 653 1738 653 2096 
C 653 2588 653 2997 736 3387 
C 858 3929 1216 4096 1466 4096 
C 1728 4096 2067 3923 2189 3400 
C 2272 3036 2278 2607 2278 2096 
C 2278 1680 2278 1169 2202 792 
C 2067 95 1690 -26 1466 -26 
z
" transform="scale(0.015625)"/>
       </defs>
       <use xlink:href="#CMR17-30" transform="scale(0.996264)"/>
      </g>
     </g>
    </g>
    <g id="xtick_2">
     <g id="line2d_2">
      <g>
       <use xlink:href="#m4d30fc1123" x="70.161434" y="202.559296" style="stroke: #000000; stroke-width: 0.8"/>
      </g>
     </g>
     <g id="text_2">
      <!-- $\mathdefault{25}$ -->
      <g transform="translate(65.927251 217.194098) scale(0.08 -0.08)">
       <defs>
        <path id="CMR17-32" d="M 2669 989 
L 2554 989 
C 2490 536 2438 459 2413 420 
C 2381 369 1920 369 1830 369 
L 602 369 
C 832 619 1280 1072 1824 1597 
C 2214 1967 2669 2402 2669 3035 
C 2669 3790 2067 4224 1395 4224 
C 691 4224 262 3604 262 3030 
C 262 2780 448 2748 525 2748 
C 589 2748 781 2787 781 3010 
C 781 3207 614 3264 525 3264 
C 486 3264 448 3258 422 3245 
C 544 3790 915 4058 1306 4058 
C 1862 4058 2227 3617 2227 3035 
C 2227 2479 1901 2000 1536 1584 
L 262 146 
L 262 0 
L 2515 0 
L 2669 989 
z
" transform="scale(0.015625)"/>
        <path id="CMR17-35" d="M 730 3692 
C 794 3666 1056 3584 1325 3584 
C 1920 3584 2246 3911 2432 4100 
C 2432 4157 2432 4192 2394 4192 
C 2387 4192 2374 4192 2323 4163 
C 2099 4058 1837 3973 1517 3973 
C 1325 3973 1037 3999 723 4139 
C 653 4171 640 4171 634 4171 
C 602 4171 595 4164 595 4037 
L 595 2203 
C 595 2089 595 2057 659 2057 
C 691 2057 704 2070 736 2114 
C 941 2401 1222 2522 1542 2522 
C 1766 2522 2246 2382 2246 1289 
C 2246 1085 2246 715 2054 421 
C 1894 159 1645 25 1370 25 
C 947 25 518 320 403 814 
C 429 807 480 795 506 795 
C 589 795 749 840 749 1038 
C 749 1210 627 1280 506 1280 
C 358 1280 262 1190 262 1011 
C 262 454 704 -128 1382 -128 
C 2042 -128 2669 440 2669 1264 
C 2669 2030 2170 2624 1549 2624 
C 1222 2624 947 2503 730 2274 
L 730 3692 
z
" transform="scale(0.015625)"/>
       </defs>
       <use xlink:href="#CMR17-32" transform="scale(0.996264)"/>
       <use xlink:href="#CMR17-35" transform="translate(45.690477 0) scale(0.996264)"/>
      </g>
     </g>
    </g>
    <g id="xtick_3">
     <g id="line2d_3">
      <g>
       <use xlink:href="#m4d30fc1123" x="96.96602" y="202.559296" style="stroke: #000000; stroke-width: 0.8"/>
      </g>
     </g>
     <g id="text_3">
      <!-- $\mathdefault{50}$ -->
      <g transform="translate(92.731837 217.194098) scale(0.08 -0.08)">
       <use xlink:href="#CMR17-35" transform="scale(0.996264)"/>
       <use xlink:href="#CMR17-30" transform="translate(45.690477 0) scale(0.996264)"/>
      </g>
     </g>
    </g>
    <g id="xtick_4">
     <g id="line2d_4">
      <g>
       <use xlink:href="#m4d30fc1123" x="123.770606" y="202.559296" style="stroke: #000000; stroke-width: 0.8"/>
      </g>
     </g>
     <g id="text_4">
      <!-- $\mathdefault{75}$ -->
      <g transform="translate(119.536423 217.194098) scale(0.08 -0.08)">
       <defs>
        <path id="CMR17-37" d="M 2886 3941 
L 2886 4081 
L 1382 4081 
C 634 4081 621 4165 595 4288 
L 480 4288 
L 294 3094 
L 410 3094 
C 429 3215 474 3540 550 3661 
C 589 3712 1062 3712 1171 3712 
L 2579 3712 
L 1869 2661 
C 1395 1954 1069 999 1069 165 
C 1069 89 1069 -128 1299 -128 
C 1530 -128 1530 89 1530 171 
L 1530 465 
C 1530 1508 1709 2196 2003 2636 
L 2886 3941 
z
" transform="scale(0.015625)"/>
       </defs>
       <use xlink:href="#CMR17-37" transform="scale(0.996264)"/>
       <use xlink:href="#CMR17-35" transform="translate(45.690477 0) scale(0.996264)"/>
      </g>
     </g>
    </g>
    <g id="xtick_5">
     <g id="line2d_5">
      <g>
       <use xlink:href="#m4d30fc1123" x="150.575193" y="202.559296" style="stroke: #000000; stroke-width: 0.8"/>
      </g>
     </g>
     <g id="text_5">
      <!-- $\mathdefault{100}$ -->
      <g transform="translate(144.223918 217.194098) scale(0.08 -0.08)">
       <defs>
        <path id="CMR17-31" d="M 1702 4058 
C 1702 4192 1696 4192 1606 4192 
C 1357 3916 979 3827 621 3827 
C 602 3827 570 3827 563 3808 
C 557 3795 557 3782 557 3648 
C 755 3648 1088 3686 1344 3839 
L 1344 461 
C 1344 236 1331 160 781 160 
L 589 160 
L 589 0 
C 896 0 1216 0 1523 0 
C 1830 0 2150 0 2458 0 
L 2458 160 
L 2266 160 
C 1715 160 1702 230 1702 458 
L 1702 4058 
z
" transform="scale(0.015625)"/>
       </defs>
       <use xlink:href="#CMR17-31" transform="scale(0.996264)"/>
       <use xlink:href="#CMR17-30" transform="translate(45.690477 0) scale(0.996264)"/>
       <use xlink:href="#CMR17-30" transform="translate(91.380954 0) scale(0.996264)"/>
      </g>
     </g>
    </g>
    <g id="xtick_6">
     <g id="line2d_6">
      <g>
       <use xlink:href="#m4d30fc1123" x="177.379779" y="202.559296" style="stroke: #000000; stroke-width: 0.8"/>
      </g>
     </g>
     <g id="text_6">
      <!-- $\mathdefault{125}$ -->
      <g transform="translate(171.028505 217.194098) scale(0.08 -0.08)">
       <use xlink:href="#CMR17-31" transform="scale(0.996264)"/>
       <use xlink:href="#CMR17-32" transform="translate(45.690477 0) scale(0.996264)"/>
       <use xlink:href="#CMR17-35" transform="translate(91.380954 0) scale(0.996264)"/>
      </g>
     </g>
    </g>
    <g id="xtick_7">
     <g id="line2d_7">
      <g>
       <use xlink:href="#m4d30fc1123" x="204.184365" y="202.559296" style="stroke: #000000; stroke-width: 0.8"/>
      </g>
     </g>
     <g id="text_7">
      <!-- $\mathdefault{150}$ -->
      <g transform="translate(197.833091 217.194098) scale(0.08 -0.08)">
       <use xlink:href="#CMR17-31" transform="scale(0.996264)"/>
       <use xlink:href="#CMR17-35" transform="translate(45.690477 0) scale(0.996264)"/>
       <use xlink:href="#CMR17-30" transform="translate(91.380954 0) scale(0.996264)"/>
      </g>
     </g>
    </g>
    <g id="xtick_8">
     <g id="line2d_8">
      <g>
       <use xlink:href="#m4d30fc1123" x="230.988952" y="202.559296" style="stroke: #000000; stroke-width: 0.8"/>
      </g>
     </g>
     <g id="text_8">
      <!-- $\mathdefault{175}$ -->
      <g transform="translate(224.637677 217.194098) scale(0.08 -0.08)">
       <use xlink:href="#CMR17-31" transform="scale(0.996264)"/>
       <use xlink:href="#CMR17-37" transform="translate(45.690477 0) scale(0.996264)"/>
       <use xlink:href="#CMR17-35" transform="translate(91.380954 0) scale(0.996264)"/>
      </g>
     </g>
    </g>
    <g id="text_9">
     <!-- $\tau$ -->
     <g transform="translate(137.675756 229.662342) scale(0.1 -0.1)">
      <defs>
       <path id="CMMI12-1c" d="M 1837 2408 
L 2899 2408 
C 2982 2408 3194 2408 3194 2612 
C 3194 2752 3072 2752 2957 2752 
L 1197 2752 
C 1050 2752 832 2752 538 2440 
C 371 2255 166 1917 166 1879 
C 166 1841 198 1828 237 1828 
C 282 1828 288 1847 320 1885 
C 653 2408 986 2408 1146 2408 
L 1677 2408 
L 1011 223 
C 979 127 979 114 979 95 
C 979 25 1024 -64 1152 -64 
C 1350 -64 1382 108 1402 203 
L 1837 2408 
z
" transform="scale(0.015625)"/>
      </defs>
      <use xlink:href="#CMMI12-1c" transform="scale(0.996264)"/>
     </g>
    </g>
   </g>
   <g id="matplotlib.axis_2">
    <g id="ytick_1">
     <g id="line2d_9">
      <defs>
       <path id="m2b11f84876" d="M 0 0 
L -3.5 0 
" style="stroke: #000000; stroke-width: 0.8"/>
      </defs>
      <g>
       <use xlink:href="#m2b11f84876" x="33.707196" y="193.679328" style="stroke: #000000; stroke-width: 0.8"/>
      </g>
     </g>
     <g id="text_10">
      <!-- $\mathdefault{−1.0}$ -->
      <g transform="translate(7.2 196.446729) scale(0.08 -0.08)">
       <defs>
        <path id="CMSY10-0" d="M 4218 1472 
C 4326 1472 4442 1472 4442 1600 
C 4442 1728 4326 1728 4218 1728 
L 755 1728 
C 646 1728 531 1728 531 1600 
C 531 1472 646 1472 755 1472 
L 4218 1472 
z
" transform="scale(0.015625)"/>
        <path id="CMMI12-3a" d="M 1178 307 
C 1178 492 1024 619 870 619 
C 685 619 557 466 557 313 
C 557 128 710 0 864 0 
C 1050 0 1178 153 1178 307 
z
" transform="scale(0.015625)"/>
       </defs>
       <use xlink:href="#CMSY10-0" transform="scale(0.996264)"/>
       <use xlink:href="#CMR17-31" transform="translate(77.487468 0) scale(0.996264)"/>
       <use xlink:href="#CMMI12-3a" transform="translate(123.177945 0) scale(0.996264)"/>
       <use xlink:href="#CMR17-30" transform="translate(150.275122 0) scale(0.996264)"/>
      </g>
     </g>
    </g>
    <g id="ytick_2">
     <g id="line2d_10">
      <g>
       <use xlink:href="#m2b11f84876" x="33.707196" y="158.365062" style="stroke: #000000; stroke-width: 0.8"/>
      </g>
     </g>
     <g id="text_11">
      <!-- $\mathdefault{−0.8}$ -->
      <g transform="translate(7.2 161.132462) scale(0.08 -0.08)">
       <defs>
        <path id="CMR17-38" d="M 1741 2264 
C 2144 2467 2554 2773 2554 3263 
C 2554 3841 1990 4179 1472 4179 
C 890 4179 378 3759 378 3180 
C 378 3021 416 2747 666 2505 
C 730 2442 998 2251 1171 2130 
C 883 1983 211 1634 211 934 
C 211 279 838 -128 1459 -128 
C 2144 -128 2720 362 2720 1010 
C 2720 1590 2330 1857 2074 2029 
L 1741 2264 
z
M 902 2822 
C 851 2854 595 3051 595 3351 
C 595 3739 998 4032 1459 4032 
C 1965 4032 2336 3676 2336 3262 
C 2336 2669 1670 2331 1638 2331 
C 1632 2331 1626 2331 1574 2370 
L 902 2822 
z
M 2080 1519 
C 2176 1449 2483 1240 2483 851 
C 2483 381 2010 25 1472 25 
C 890 25 448 438 448 940 
C 448 1443 838 1862 1280 2060 
L 2080 1519 
z
" transform="scale(0.015625)"/>
       </defs>
       <use xlink:href="#CMSY10-0" transform="scale(0.996264)"/>
       <use xlink:href="#CMR17-30" transform="translate(77.487468 0) scale(0.996264)"/>
       <use xlink:href="#CMMI12-3a" transform="translate(123.177945 0) scale(0.996264)"/>
       <use xlink:href="#CMR17-38" transform="translate(150.275122 0) scale(0.996264)"/>
      </g>
     </g>
    </g>
    <g id="ytick_3">
     <g id="line2d_11">
      <g>
       <use xlink:href="#m2b11f84876" x="33.707196" y="123.050795" style="stroke: #000000; stroke-width: 0.8"/>
      </g>
     </g>
     <g id="text_12">
      <!-- $\mathdefault{−0.6}$ -->
      <g transform="translate(7.2 125.818196) scale(0.08 -0.08)">
       <defs>
        <path id="CMR17-36" d="M 678 2176 
C 678 3690 1395 4032 1811 4032 
C 1946 4032 2272 4009 2400 3776 
C 2298 3776 2106 3776 2106 3553 
C 2106 3381 2246 3323 2336 3323 
C 2394 3323 2566 3348 2566 3560 
C 2566 3954 2246 4179 1805 4179 
C 1043 4179 243 3390 243 1984 
C 243 253 966 -128 1478 -128 
C 2099 -128 2688 427 2688 1283 
C 2688 2081 2170 2662 1517 2662 
C 1126 2662 838 2407 678 1960 
L 678 2176 
z
M 1478 25 
C 691 25 691 1200 691 1436 
C 691 1896 909 2560 1504 2560 
C 1613 2560 1926 2560 2138 2120 
C 2253 1870 2253 1609 2253 1289 
C 2253 944 2253 690 2118 434 
C 1978 171 1773 25 1478 25 
z
" transform="scale(0.015625)"/>
       </defs>
       <use xlink:href="#CMSY10-0" transform="scale(0.996264)"/>
       <use xlink:href="#CMR17-30" transform="translate(77.487468 0) scale(0.996264)"/>
       <use xlink:href="#CMMI12-3a" transform="translate(123.177945 0) scale(0.996264)"/>
       <use xlink:href="#CMR17-36" transform="translate(150.275122 0) scale(0.996264)"/>
      </g>
     </g>
    </g>
    <g id="ytick_4">
     <g id="line2d_12">
      <g>
       <use xlink:href="#m2b11f84876" x="33.707196" y="87.736529" style="stroke: #000000; stroke-width: 0.8"/>
      </g>
     </g>
     <g id="text_13">
      <!-- $\mathdefault{−0.4}$ -->
      <g transform="translate(7.2 90.50393) scale(0.08 -0.08)">
       <defs>
        <path id="CMR17-34" d="M 2150 4122 
C 2150 4256 2144 4256 2029 4256 
L 128 1254 
L 128 1088 
L 1779 1088 
L 1779 457 
C 1779 224 1766 160 1318 160 
L 1197 160 
L 1197 0 
C 1402 0 1747 0 1965 0 
C 2182 0 2528 0 2733 0 
L 2733 160 
L 2611 160 
C 2163 160 2150 224 2150 457 
L 2150 1088 
L 2803 1088 
L 2803 1254 
L 2150 1254 
L 2150 4122 
z
M 1798 3703 
L 1798 1254 
L 256 1254 
L 1798 3703 
z
" transform="scale(0.015625)"/>
       </defs>
       <use xlink:href="#CMSY10-0" transform="scale(0.996264)"/>
       <use xlink:href="#CMR17-30" transform="translate(77.487468 0) scale(0.996264)"/>
       <use xlink:href="#CMMI12-3a" transform="translate(123.177945 0) scale(0.996264)"/>
       <use xlink:href="#CMR17-34" transform="translate(150.275122 0) scale(0.996264)"/>
      </g>
     </g>
    </g>
    <g id="ytick_5">
     <g id="line2d_13">
      <g>
       <use xlink:href="#m2b11f84876" x="33.707196" y="52.422263" style="stroke: #000000; stroke-width: 0.8"/>
      </g>
     </g>
     <g id="text_14">
      <!-- $\mathdefault{−0.2}$ -->
      <g transform="translate(7.2 55.189664) scale(0.08 -0.08)">
       <use xlink:href="#CMSY10-0" transform="scale(0.996264)"/>
       <use xlink:href="#CMR17-30" transform="translate(77.487468 0) scale(0.996264)"/>
       <use xlink:href="#CMMI12-3a" transform="translate(123.177945 0) scale(0.996264)"/>
       <use xlink:href="#CMR17-32" transform="translate(150.275122 0) scale(0.996264)"/>
      </g>
     </g>
    </g>
    <g id="ytick_6">
     <g id="line2d_14">
      <g>
       <use xlink:href="#m2b11f84876" x="33.707196" y="17.107997" style="stroke: #000000; stroke-width: 0.8"/>
      </g>
     </g>
     <g id="text_15">
      <!-- $\mathdefault{0.0}$ -->
      <g transform="translate(13.786507 19.875398) scale(0.08 -0.08)">
       <use xlink:href="#CMR17-30" transform="scale(0.996264)"/>
       <use xlink:href="#CMMI12-3a" transform="translate(45.690477 0) scale(0.996264)"/>
       <use xlink:href="#CMR17-30" transform="translate(72.787654 0) scale(0.996264)"/>
      </g>
     </g>
    </g>
   </g>
   <g id="line2d_15">
    <path d="M 43.356847 193.679328 
L 52.684843 193.590131 
L 53.006498 193.37386 
L 53.328153 192.851935 
L 53.649808 191.801879 
L 53.971463 189.969828 
L 54.357449 186.37418 
L 54.807767 179.829113 
L 55.386746 167.84244 
L 58.088648 105.65942 
L 58.796289 96.147416 
L 59.632592 87.991754 
L 60.79055 78.881441 
L 61.626853 74.317241 
L 62.398825 71.282624 
L 63.94277 66.593019 
L 64.58608 65.415097 
L 65.293721 64.059989 
L 65.744038 63.797504 
L 66.130024 63.524572 
L 66.773334 62.545661 
L 67.287982 61.876178 
L 68.059954 61.536434 
L 68.638933 61.503727 
L 69.024919 61.732641 
L 69.346574 61.888652 
L 69.925553 61.939659 
L 70.440201 62.571308 
L 71.01918 63.554961 
L 71.855483 64.991817 
L 72.691787 66.057819 
L 73.399428 66.62415 
L 73.978407 66.780745 
L 75.522351 66.816291 
L 86.201298 66.902784 
L 86.587284 67.246915 
L 86.908939 67.832021 
L 87.294925 69.048745 
L 87.745242 71.23218 
L 88.25989 75.048278 
L 88.9032 81.731349 
L 89.803834 93.755244 
L 91.283448 113.400986 
L 92.377075 124.355482 
L 93.213378 130.364286 
L 94.114012 135.1843 
L 95.464963 140.64756 
L 96.301266 142.911447 
L 97.266231 145.004146 
L 98.102534 146.221035 
L 98.810175 146.934378 
L 99.517817 147.596717 
L 100.161127 148.243081 
L 101.061761 149.042318 
L 101.576409 149.717052 
L 102.026726 150.72169 
L 102.605705 152.586844 
L 103.249015 155.477224 
L 104.599966 161.726642 
L 105.178945 163.375262 
L 105.693593 164.233771 
L 106.14391 164.593522 
L 106.722889 164.756449 
L 108.073841 164.778457 
L 117.080182 164.672173 
L 117.466168 164.378755 
L 117.787823 163.805208 
L 118.109478 162.699064 
L 118.495464 160.403484 
L 118.945781 156.048491 
L 119.460429 148.441219 
L 120.232401 133.017643 
L 121.583352 106.03567 
L 122.355324 95.337977 
L 123.320289 85.269175 
L 124.02793 80.174587 
L 125.121557 74.012011 
L 125.764867 71.775229 
L 126.408178 69.364538 
L 127.051488 67.290209 
L 127.694798 65.943387 
L 128.531101 64.959936 
L 129.560397 62.775701 
L 131.104341 61.639283 
L 132.32663 61.317845 
L 132.712616 61.420724 
L 132.96994 61.251003 
L 133.484588 60.853512 
L 133.741912 60.969318 
L 134.063567 61.449197 
L 136.315153 65.968752 
L 136.829801 66.622858 
L 137.537442 67.119633 
L 138.309414 67.401337 
L 139.274379 67.47471 
L 150.725298 67.622239 
L 151.046953 67.93305 
L 151.368608 68.547045 
L 151.754594 69.821709 
L 152.204911 72.271757 
L 152.71956 76.507353 
L 153.36287 83.653323 
L 154.64949 101.041854 
L 155.93611 117.502175 
L 156.901075 126.484151 
L 157.737378 132.298744 
L 158.50935 136.014625 
L 159.731639 140.667929 
L 160.503611 142.676083 
L 161.597239 144.847532 
L 162.94819 146.680632 
L 164.106148 147.786565 
L 164.749458 148.2823 
L 165.650092 148.777482 
L 166.100409 149.574277 
L 166.550726 150.908528 
L 167.194036 153.608675 
L 169.38129 163.247621 
L 169.895938 164.223344 
L 170.410587 164.72591 
L 170.925235 164.906378 
L 171.954531 164.943813 
L 181.411189 164.855841 
L 181.732844 164.636046 
L 182.054499 164.114805 
L 182.376154 163.130357 
L 182.76214 161.061704 
L 183.148126 157.609128 
L 183.662774 150.728179 
L 184.370415 137.937103 
L 186.236014 101.687103 
L 187.072317 91.438687 
L 187.90862 83.473557 
L 189.002248 76.873007 
L 189.709889 73.11209 
L 190.481861 70.318574 
L 192.283129 65.419516 
L 192.862108 64.761913 
L 193.505418 64.002601 
L 194.084397 62.989647 
L 194.599045 62.01228 
L 194.792038 62.047899 
L 195.242355 62.299777 
L 195.499679 62.122829 
L 196.721968 60.734982 
L 197.043624 60.929957 
L 197.493941 61.245736 
L 198.201582 61.314332 
L 198.71623 61.952836 
L 199.423871 63.315382 
L 200.388836 65.173132 
L 201.160808 66.223179 
L 202.061442 66.893934 
L 202.833414 67.104645 
L 203.991372 67.143514 
L 214.927644 67.22137 
L 215.31363 67.572309 
L 215.635285 68.151091 
L 216.021271 69.339565 
L 216.471588 71.508342 
L 216.986236 75.441944 
L 217.565215 81.708324 
L 218.723173 97.493474 
L 220.138455 115.568777 
L 221.039089 124.503755 
L 221.875392 130.715771 
L 222.840357 136.131399 
L 223.483667 138.661106 
L 224.25564 140.85847 
L 225.349267 143.592069 
L 226.571556 145.906909 
L 227.536521 147.162754 
L 228.501486 147.830869 
L 229.273458 148.436263 
L 230.04543 149.141266 
L 230.431416 149.769078 
L 230.946064 151.109629 
L 231.525043 153.345807 
L 232.61867 158.77134 
L 233.390643 161.893949 
L 233.969622 163.412623 
L 234.419939 164.066205 
L 234.934587 164.42039 
L 235.577897 164.532509 
L 236.349869 164.539955 
L 236.349869 164.539955 
" clip-path="url(#pee2a47dee7)" style="fill: none; stroke: #ff7f0e; stroke-width: 0.5; stroke-linecap: square"/>
   </g>
   <g id="line2d_16">
    <path d="M 43.356847 17.107997 
L 54.164456 17.000077 
L 55.129422 16.99474 
L 55.515408 17.257686 
L 56.480373 18.298086 
L 56.737697 18.078221 
L 57.895655 16.531218 
L 58.21731 16.532926 
L 59.117944 16.682913 
L 59.50393 16.46457 
L 60.082909 16.088289 
L 60.404564 16.149126 
L 61.240867 16.624052 
L 61.498191 16.553189 
L 62.205832 16.15578 
L 62.527487 16.322671 
L 63.428121 16.926227 
L 63.685446 16.873141 
L 64.457418 16.536731 
L 64.779073 16.755706 
L 65.744038 17.717984 
L 66.065693 17.633282 
L 67.80263 16.924042 
L 68.317278 17.209972 
L 69.217912 17.877412 
L 69.475236 17.737409 
L 70.568863 16.79473 
L 70.890518 16.907039 
L 72.241469 17.584256 
L 72.627456 17.343252 
L 73.52809 16.690101 
L 73.914076 16.742301 
L 74.428724 17.076573 
L 75.136365 17.514742 
L 75.522351 17.504686 
L 75.972668 17.250345 
L 76.873302 16.691061 
L 77.259288 16.722603 
L 77.773936 17.019162 
L 78.610239 17.503686 
L 79.060556 17.520032 
L 79.639535 17.30281 
L 80.990486 16.716002 
L 81.698128 16.698496 
L 82.534431 16.915966 
L 84.528692 17.530926 
L 85.364995 17.475815 
L 86.201298 17.222126 
L 86.908939 16.98452 
L 89.482179 17.006914 
L 90.061158 17.244702 
L 90.897462 17.675839 
L 91.540772 17.856598 
L 92.184082 18.076488 
L 92.505737 17.91813 
L 93.792357 17.058099 
L 95.014646 16.438022 
L 96.687252 16.414054 
L 98.938837 17.060442 
L 99.582148 17.115505 
L 100.611444 17.321504 
L 101.64074 17.187325 
L 102.734367 16.772269 
L 105.178945 16.683624 
L 106.079579 17.053286 
L 107.43053 17.602403 
L 108.138172 17.63969 
L 108.845813 17.4505 
L 110.003771 16.850368 
L 110.775743 16.57226 
L 111.290391 16.622413 
L 111.805039 16.906638 
L 112.962997 17.64948 
L 113.348983 17.574207 
L 113.7993 17.228995 
L 114.571272 16.601201 
L 114.957258 16.593782 
L 115.343244 16.841122 
L 116.37254 17.645176 
L 116.758526 17.573614 
L 117.208844 17.215839 
L 117.916485 16.653484 
L 118.302471 16.611606 
L 118.688457 16.826376 
L 119.589091 17.516368 
L 119.910746 17.42678 
L 120.232401 17.09016 
L 120.875711 16.365354 
L 121.133035 16.389363 
L 121.45469 16.661072 
L 122.098 17.294454 
L 122.419655 17.321662 
L 122.869972 17.056082 
L 123.577613 16.621175 
L 123.834937 16.763483 
L 124.799902 17.593447 
L 125.121557 17.540575 
L 126.215185 16.95159 
L 126.729833 16.633784 
L 127.18015 16.644636 
L 127.566136 16.957098 
L 128.338108 17.524666 
L 128.788425 17.809436 
L 129.045749 17.716882 
L 129.431735 17.241272 
L 130.139376 16.205187 
L 130.3967 16.207181 
L 130.847017 16.578683 
L 131.425996 16.951651 
L 132.004975 17.094948 
L 132.648285 16.951947 
L 133.677581 16.925982 
L 135.028533 17.359414 
L 135.350188 17.247748 
L 136.057829 16.815619 
L 136.443815 16.924637 
L 136.894132 17.303709 
L 137.40878 17.679192 
L 137.730435 17.660064 
L 138.116421 17.369523 
L 139.081386 16.514325 
L 139.403041 16.544671 
L 139.789027 16.834568 
L 140.753992 17.698045 
L 141.075647 17.678053 
L 141.461633 17.406937 
L 142.490929 16.526775 
L 142.876915 16.533298 
L 143.327232 16.790787 
L 144.613853 17.66909 
L 145.128501 17.703459 
L 145.771811 17.495275 
L 148.023396 16.505003 
L 148.666706 16.572108 
L 149.503009 16.924862 
L 151.175615 17.700961 
L 151.947587 17.770793 
L 153.105546 17.350277 
L 153.877518 16.969775 
L 155.228469 16.323002 
L 155.614455 16.411514 
L 157.86604 17.69548 
L 158.252026 17.597739 
L 158.831005 17.157373 
L 159.602977 16.61709 
L 159.924632 16.600686 
L 160.567942 16.690363 
L 161.404245 16.523862 
L 162.176218 16.380433 
L 163.334176 16.494925 
L 163.784493 16.783957 
L 164.942451 17.706871 
L 165.52143 17.770888 
L 166.293402 18.020266 
L 166.679388 18.021514 
L 167.129705 17.742536 
L 167.708684 17.410017 
L 170.0246 16.849241 
L 171.053897 16.934271 
L 173.884461 17.351711 
L 174.849426 17.139469 
L 176.136046 16.843758 
L 176.779356 16.961435 
L 178.194638 17.362601 
L 178.773617 17.170423 
L 179.674252 16.846094 
L 180.1889 16.929014 
L 181.539851 17.336655 
L 181.990168 17.155604 
L 183.212457 16.499976 
L 183.598443 16.674124 
L 184.241753 17.290791 
L 184.563408 17.488613 
L 184.820732 17.42978 
L 185.206718 17.0599 
L 185.97869 16.231914 
L 186.236014 16.241205 
L 186.493338 16.472707 
L 187.651296 17.948652 
L 187.972951 17.92098 
L 188.294607 17.647641 
L 189.259572 16.458161 
L 189.645558 16.586475 
L 190.674854 17.078432 
L 191.318164 16.800943 
L 191.961474 16.902778 
L 192.411791 16.951437 
L 192.926439 16.932842 
L 193.698411 17.03451 
L 194.341721 16.977213 
L 195.499679 16.765618 
L 195.821334 17.037948 
L 196.335982 17.490619 
L 196.657637 17.534182 
L 196.914961 17.334636 
L 197.686934 16.544109 
L 198.008589 16.530799 
L 198.394575 16.796953 
L 199.102216 17.608103 
L 199.616864 18.146356 
L 199.874188 18.179933 
L 200.131512 17.960831 
L 200.64616 17.082478 
L 201.225139 16.236409 
L 201.546794 16.114776 
L 201.804118 16.249603 
L 202.190104 16.775076 
L 202.962076 17.929982 
L 203.283731 18.024017 
L 203.541055 17.865612 
L 203.927041 17.327945 
L 204.634682 16.292346 
L 204.956337 16.188378 
L 205.213661 16.336486 
L 205.599647 16.854318 
L 206.37162 17.931499 
L 206.693275 18.030249 
L 207.01493 17.86729 
L 207.529578 17.251341 
L 208.30155 16.357382 
L 208.751867 16.183879 
L 209.137853 16.264002 
L 209.716832 16.660368 
L 211.325107 17.92141 
L 211.904086 18.032047 
L 212.418734 17.90845 
L 213.062044 17.502683 
L 214.863313 16.193529 
L 215.442292 16.16167 
L 216.021271 16.399001 
L 216.793243 16.85603 
L 217.179229 17.228617 
L 217.88687 17.96446 
L 218.272856 18.097383 
L 219.688138 18.006049 
L 220.717434 17.480407 
L 221.360744 17.124182 
L 222.004054 17.013797 
L 224.448633 16.811384 
L 225.027612 16.781825 
L 226.442894 16.897855 
L 226.957542 16.955376 
L 227.47219 16.979223 
L 228.887472 16.782763 
L 229.40212 16.912168 
L 229.981099 17.062401 
L 230.431416 16.851324 
L 231.010395 16.68049 
L 231.460712 16.800311 
L 232.425677 17.137629 
L 235.12758 17.298426 
L 236.349869 16.973062 
L 236.349869 16.973062 
" clip-path="url(#pee2a47dee7)" style="fill: none; stroke: #2ca02c; stroke-width: 0.5; stroke-linecap: square"/>
   </g>
   <g id="line2d_17">
    <path d="M 43.356847 17.107997 
L 55.00076 17.034216 
L 55.451077 16.623672 
L 55.837063 16.308178 
L 56.094387 16.374885 
L 56.351711 16.758472 
L 57.059352 18.138935 
L 57.252345 18.101887 
L 57.638331 17.701607 
L 58.281641 17.033182 
L 58.667627 17.04299 
L 59.182275 17.283671 
L 59.696923 17.490306 
L 60.018578 17.325874 
L 60.726219 16.85909 
L 61.176536 17.147699 
L 61.755515 17.539166 
L 62.012839 17.310492 
L 62.72048 16.499143 
L 62.977804 16.594804 
L 63.36379 17.039365 
L 63.814108 17.529265 
L 64.071432 17.522081 
L 64.328756 17.306216 
L 65.100728 16.367779 
L 65.358052 16.63945 
L 65.937031 17.327231 
L 66.258686 17.271068 
L 66.51601 17.28238 
L 67.094989 17.501168 
L 67.416644 17.194574 
L 67.866961 16.775233 
L 68.703264 16.589006 
L 69.024919 16.787097 
L 69.796891 17.567049 
L 70.247208 17.492269 
L 70.633194 17.194312 
L 71.212173 16.805453 
L 71.598159 16.768264 
L 71.919814 16.980638 
L 72.627456 17.54755 
L 73.013442 17.564799 
L 73.399428 17.324387 
L 74.235731 16.718993 
L 74.621717 16.695729 
L 75.072034 16.922457 
L 76.036999 17.527284 
L 76.422985 17.484988 
L 76.937633 17.161366 
L 77.709605 16.700286 
L 78.159922 16.72029 
L 78.738901 17.0231 
L 79.639535 17.490717 
L 80.218514 17.522041 
L 80.926155 17.310186 
L 82.663093 16.703557 
L 83.435065 16.708796 
L 84.335699 16.960314 
L 86.265629 17.593908 
L 86.97327 17.55336 
L 88.066897 17.161924 
L 89.160524 16.654328 
L 89.996827 16.48843 
L 91.283448 16.780318 
L 91.991089 17.1882 
L 92.763061 17.414388 
L 93.921019 17.805515 
L 94.499998 17.659646 
L 96.301266 17.23521 
L 97.137569 16.975947 
L 97.780879 16.799447 
L 99.067499 16.648221 
L 100.032465 16.919611 
L 102.155388 17.338684 
L 102.863029 17.578407 
L 103.635001 17.415475 
L 104.728628 17.027272 
L 106.015248 16.582288 
L 106.658558 16.608374 
L 107.43053 16.877799 
L 109.29613 17.637666 
L 109.93944 17.605402 
L 110.58275 17.331152 
L 112.062363 16.56263 
L 112.51268 16.693573 
L 113.091659 17.162232 
L 113.734969 17.622212 
L 114.120955 17.618115 
L 114.506941 17.368339 
L 115.536237 16.568861 
L 115.857892 16.616858 
L 116.308209 16.95883 
L 117.080182 17.599282 
L 117.466168 17.624124 
L 117.852154 17.404412 
L 119.074443 16.53384 
L 119.331767 16.691491 
L 119.717753 17.253388 
L 120.232401 17.928168 
L 120.425394 17.953474 
L 120.618387 17.771792 
L 121.647683 16.299441 
L 121.905007 16.471969 
L 122.934303 17.572304 
L 123.320289 17.427283 
L 124.349585 16.779449 
L 124.735571 16.92813 
L 125.31455 17.147814 
L 125.89353 17.261162 
L 126.408178 17.469405 
L 126.922826 17.304673 
L 127.952122 16.605633 
L 128.338108 16.62607 
L 128.659763 16.969121 
L 129.560397 18.145262 
L 129.75339 18.044759 
L 130.010714 17.56839 
L 130.461031 16.642265 
L 130.718355 16.542283 
L 131.168672 16.752205 
L 132.455292 17.213761 
L 133.098602 17.087078 
L 133.677581 17.008335 
L 134.449553 16.822651 
L 135.157195 17.252759 
L 135.607512 17.473858 
L 135.864836 17.324561 
L 136.701139 16.641218 
L 137.022794 16.660984 
L 137.40878 16.984422 
L 138.180752 17.683907 
L 138.502407 17.689279 
L 138.888393 17.437207 
L 139.98202 16.503924 
L 140.303675 16.5728 
L 140.753992 16.963279 
L 141.525964 17.667922 
L 141.91195 17.690668 
L 142.297936 17.460356 
L 143.520225 16.521945 
L 143.970543 16.539403 
L 144.549522 16.832143 
L 145.900473 17.622181 
L 146.543783 17.714306 
L 147.187093 17.584845 
L 148.087727 17.145874 
L 149.310016 16.565741 
L 149.888995 16.507509 
L 150.725298 16.716846 
L 153.491532 17.518158 
L 154.070511 17.182087 
L 154.906814 16.691601 
L 155.421462 16.681055 
L 156.064772 16.688629 
L 156.643751 16.70459 
L 158.702343 17.031327 
L 159.281322 17.294359 
L 160.181956 17.69883 
L 160.825266 17.680266 
L 161.532908 17.425153 
L 163.012521 16.701962 
L 163.720162 16.50943 
L 165.071113 16.498097 
L 165.907416 17.020344 
L 166.486395 17.229344 
L 167.387029 17.327238 
L 168.09467 17.433863 
L 169.188297 17.287295 
L 172.404848 16.881713 
L 173.691468 17.160962 
L 174.913757 17.371988 
L 175.685729 17.264347 
L 177.358335 16.861449 
L 178.001645 17.087707 
L 178.837948 17.370355 
L 179.352597 17.284791 
L 180.703548 16.853345 
L 181.218196 17.023257 
L 182.440485 17.552256 
L 182.890802 17.444717 
L 183.276788 17.151298 
L 183.984429 16.521826 
L 184.241753 16.599928 
L 184.627739 17.045924 
L 185.271049 17.812371 
L 185.528373 17.814963 
L 185.785697 17.547405 
L 186.750662 16.117442 
L 187.007986 16.243918 
L 187.458303 16.840233 
L 188.358938 18.000958 
L 188.551931 18.075768 
L 188.744924 17.877834 
L 189.516896 16.628128 
L 189.838551 16.573931 
L 190.160206 16.722374 
L 190.996509 17.410247 
L 191.639819 17.197682 
L 192.025805 16.981083 
L 192.283129 17.153643 
L 192.669115 17.379714 
L 193.055101 17.258603 
L 193.63408 17.152336 
L 194.148728 17.193371 
L 194.727707 17.226535 
L 195.306686 16.992922 
L 196.014327 16.646771 
L 196.335982 16.870533 
L 197.236617 17.605589 
L 197.558272 17.438169 
L 198.909223 16.369627 
L 199.230878 16.461083 
L 199.552533 16.7959 
L 200.581829 18.126107 
L 200.839153 18.004828 
L 201.225139 17.540827 
L 202.190104 16.210035 
L 202.447428 16.176076 
L 202.704752 16.348722 
L 203.155069 17.005715 
L 203.798379 17.928352 
L 204.120034 18.026315 
L 204.377358 17.87145 
L 204.763344 17.338096 
L 205.470985 16.302079 
L 205.79264 16.185453 
L 206.049965 16.311478 
L 206.435951 16.780786 
L 207.272254 17.895392 
L 207.65824 18.032309 
L 207.979895 17.918055 
L 208.494543 17.441993 
L 209.58817 16.36799 
L 210.102818 16.188078 
L 210.617466 16.257451 
L 211.196445 16.572972 
L 213.383699 18.031561 
L 213.898347 17.999107 
L 214.477326 17.722869 
L 215.828278 16.6541 
L 216.471588 16.256267 
L 216.857574 16.249112 
L 217.565215 16.59277 
L 218.272856 17.107513 
L 218.723173 17.353394 
L 220.074124 17.574161 
L 221.875392 17.138901 
L 222.647364 17.240522 
L 223.483667 17.426598 
L 224.770288 17.25757 
L 225.928246 17.113203 
L 226.442894 16.995096 
L 229.981099 17.116416 
L 230.560078 17.005429 
L 231.718036 16.802077 
L 232.554339 16.686673 
L 233.905291 17.011974 
L 235.706559 17.413692 
L 236.349869 17.385383 
L 236.349869 17.385383 
" clip-path="url(#pee2a47dee7)" style="fill: none; stroke: #d62728; stroke-width: 0.5; stroke-linecap: square"/>
   </g>
   <g id="patch_3">
    <path d="M 33.707196 202.559296 
L 33.707196 7.2 
" style="fill: none; stroke: #000000; stroke-width: 0.8; stroke-linejoin: miter; stroke-linecap: square"/>
   </g>
   <g id="patch_4">
    <path d="M 245.99952 202.559296 
L 245.99952 7.2 
" style="fill: none; stroke: #000000; stroke-width: 0.8; stroke-linejoin: miter; stroke-linecap: square"/>
   </g>
   <g id="patch_5">
    <path d="M 33.707196 202.559296 
L 245.99952 202.559296 
" style="fill: none; stroke: #000000; stroke-width: 0.8; stroke-linejoin: miter; stroke-linecap: square"/>
   </g>
   <g id="patch_6">
    <path d="M 33.707196 7.2 
L 245.99952 7.2 
" style="fill: none; stroke: #000000; stroke-width: 0.8; stroke-linejoin: miter; stroke-linecap: square"/>
   </g>
   <g id="legend_1">
    <g id="patch_7">
     <path d="M 40.007196 126.429212 
L 85.914112 126.429212 
Q 87.714112 126.429212 87.714112 124.629212 
L 87.714112 85.130084 
Q 87.714112 83.330084 85.914112 83.330084 
L 40.007196 83.330084 
Q 38.207196 83.330084 38.207196 85.130084 
L 38.207196 124.629212 
Q 38.207196 126.429212 40.007196 126.429212 
z
" style="fill: #ffffff; opacity: 0.8; stroke: #cccccc; stroke-width: 0.24; stroke-linejoin: miter"/>
    </g>
    <g id="line2d_18">
     <path d="M 41.807196 90.504866 
L 50.807196 90.504866 
L 59.807196 90.504866 
" style="fill: none; stroke: #ff7f0e; stroke-width: 0.5; stroke-linecap: square"/>
    </g>
    <g id="text_16">
     <!-- $\langle \sigma_z\rangle$ -->
     <g transform="translate(67.007196 93.654866) scale(0.09 -0.09)">
      <defs>
       <path id="CMSY10-68" d="M 2099 4557 
C 2131 4627 2131 4640 2131 4672 
C 2131 4742 2074 4800 2003 4800 
C 1946 4800 1901 4768 1856 4653 
L 736 1715 
C 723 1677 704 1638 704 1600 
C 704 1581 704 1568 736 1491 
L 1856 -1446 
C 1882 -1517 1914 -1600 2003 -1600 
C 2074 -1600 2131 -1542 2131 -1472 
C 2131 -1453 2131 -1440 2099 -1370 
L 966 1600 
L 2099 4557 
z
" transform="scale(0.015625)"/>
       <path id="CMMI12-1b" d="M 3251 2408 
C 3334 2408 3546 2408 3546 2612 
C 3546 2752 3424 2752 3309 2752 
L 1894 2752 
C 934 2752 243 1686 243 932 
C 243 390 595 -64 1171 -64 
C 1926 -64 2752 747 2752 1705 
C 2752 1954 2694 2196 2541 2408 
L 3251 2408 
z
M 1178 64 
C 851 64 614 313 614 754 
C 614 1137 845 2408 1786 2408 
C 2061 2408 2368 2274 2368 1781 
C 2368 1558 2266 1021 2042 652 
C 1811 275 1466 64 1178 64 
z
" transform="scale(0.015625)"/>
       <path id="CMMI12-7a" d="M 813 486 
C 1088 803 1312 1004 1632 1296 
C 2016 1632 2182 1793 2272 1891 
C 2720 2338 2944 2713 2944 2764 
C 2944 2816 2893 2816 2880 2816 
C 2835 2816 2822 2793 2790 2750 
C 2630 2494 2477 2367 2310 2367 
C 2176 2367 2106 2421 1984 2565 
C 1850 2715 1741 2816 1555 2816 
C 1088 2816 806 2257 806 2128 
C 806 2108 813 2068 870 2068 
C 922 2068 928 2091 947 2133 
C 1056 2372 1363 2414 1485 2414 
C 1619 2414 1747 2376 1882 2327 
C 2125 2240 2227 2240 2291 2240 
C 2336 2240 2362 2240 2394 2246 
C 2182 1994 1837 1683 1549 1418 
L 902 816 
C 512 415 275 33 275 -12 
C 275 -51 307 -64 346 -64 
C 384 -64 390 -57 435 14 
C 538 163 742 384 979 384 
C 1114 384 1178 342 1306 193 
C 1427 61 1536 -64 1741 -64 
C 2368 -64 2726 732 2726 876 
C 2726 903 2720 942 2656 942 
C 2605 942 2598 917 2579 855 
C 2438 488 2061 338 1811 338 
C 1677 338 1549 376 1414 425 
C 1158 512 1088 512 1005 512 
C 941 512 870 512 813 486 
z
" transform="scale(0.015625)"/>
       <path id="CMSY10-69" d="M 1747 1491 
C 1779 1568 1779 1581 1779 1600 
C 1779 1619 1779 1632 1747 1709 
L 627 4653 
C 589 4762 550 4800 480 4800 
C 410 4800 352 4742 352 4672 
C 352 4653 352 4640 384 4570 
L 1517 1600 
L 384 -1357 
C 352 -1427 352 -1440 352 -1472 
C 352 -1542 410 -1600 480 -1600 
C 563 -1600 589 -1536 614 -1472 
L 1747 1491 
z
" transform="scale(0.015625)"/>
      </defs>
      <use xlink:href="#CMSY10-68" transform="scale(0.996264)"/>
      <use xlink:href="#CMMI12-1b" transform="translate(38.743734 0) scale(0.996264)"/>
      <use xlink:href="#CMMI12-7a" transform="translate(94.189195 -14.943915) scale(0.697382)"/>
      <use xlink:href="#CMSY10-69" transform="translate(129.51575 0) scale(0.996264)"/>
     </g>
    </g>
    <g id="line2d_19">
     <path d="M 41.807196 103.971242 
L 50.807196 103.971242 
L 59.807196 103.971242 
" style="fill: none; stroke: #2ca02c; stroke-width: 0.5; stroke-linecap: square"/>
    </g>
    <g id="text_17">
     <!-- $\langle \sigma_x\rangle$ -->
     <g transform="translate(67.007196 107.121242) scale(0.09 -0.09)">
      <defs>
       <path id="CMMI12-78" d="M 3034 2606 
C 2829 2567 2752 2414 2752 2293 
C 2752 2139 2874 2088 2963 2088 
C 3155 2088 3290 2254 3290 2427 
C 3290 2695 2982 2816 2714 2816 
C 2323 2816 2106 2433 2048 2312 
C 1901 2816 1504 2816 1389 2816 
C 736 2816 390 1980 390 1839 
C 390 1814 416 1782 461 1782 
C 512 1782 525 1820 538 1846 
C 755 2555 1184 2689 1370 2689 
C 1658 2689 1715 2420 1715 2267 
C 1715 2127 1677 1980 1600 1673 
L 1382 798 
C 1286 415 1101 64 762 64 
C 730 64 570 64 435 147 
C 666 192 717 383 717 460 
C 717 588 621 664 499 664 
C 346 664 179 530 179 326 
C 179 57 480 -64 755 -64 
C 1062 -64 1280 179 1414 441 
C 1517 64 1837 -64 2074 -64 
C 2726 -64 3072 773 3072 913 
C 3072 945 3046 971 3008 971 
C 2950 971 2944 939 2925 888 
C 2752 326 2381 64 2093 64 
C 1869 64 1747 230 1747 492 
C 1747 632 1773 734 1875 1156 
L 2099 2024 
C 2195 2408 2413 2689 2707 2689 
C 2720 2689 2899 2689 3034 2606 
z
" transform="scale(0.015625)"/>
      </defs>
      <use xlink:href="#CMSY10-68" transform="scale(0.996264)"/>
      <use xlink:href="#CMMI12-1b" transform="translate(38.743734 0) scale(0.996264)"/>
      <use xlink:href="#CMMI12-78" transform="translate(94.189195 -14.943915) scale(0.697382)"/>
      <use xlink:href="#CMSY10-69" transform="translate(133.490986 0) scale(0.996264)"/>
     </g>
    </g>
    <g id="line2d_20">
     <path d="M 41.807196 117.437618 
L 50.807196 117.437618 
L 59.807196 117.437618 
" style="fill: none; stroke: #d62728; stroke-width: 0.5; stroke-linecap: square"/>
    </g>
    <g id="text_18">
     <!-- $\langle \sigma_y\rangle$ -->
     <g transform="translate(67.007196 120.587618) scale(0.09 -0.09)">
      <defs>
       <path id="CMMI12-79" d="M 1683 -700 
C 1510 -939 1261 -1152 947 -1152 
C 870 -1152 563 -1152 467 -889 
C 486 -895 518 -895 531 -895 
C 723 -895 851 -729 851 -582 
C 851 -435 730 -384 634 -384 
C 531 -384 307 -458 307 -759 
C 307 -1071 582 -1286 947 -1286 
C 1587 -1286 2234 -700 2413 6 
L 3040 2485 
C 3046 2517 3059 2556 3059 2594 
C 3059 2689 2982 2753 2886 2753 
C 2829 2753 2694 2727 2643 2535 
L 2170 658 
C 2138 543 2138 530 2086 460 
C 1958 281 1747 64 1440 64 
C 1082 64 1050 415 1050 588 
C 1050 952 1222 1443 1395 1903 
C 1466 2088 1504 2178 1504 2305 
C 1504 2574 1312 2816 998 2816 
C 410 2816 173 1890 173 1839 
C 173 1814 198 1782 243 1782 
C 301 1782 307 1807 333 1897 
C 486 2433 730 2689 979 2689 
C 1037 2689 1146 2689 1146 2478 
C 1146 2312 1075 2127 979 1884 
C 666 1047 666 837 666 683 
C 666 77 1101 -64 1421 -64 
C 1606 -64 1837 -6 2061 230 
L 2067 224 
C 1971 -147 1907 -392 1683 -700 
z
" transform="scale(0.015625)"/>
      </defs>
      <use xlink:href="#CMSY10-68" transform="scale(0.996264)"/>
      <use xlink:href="#CMMI12-1b" transform="translate(38.743734 0) scale(0.996264)"/>
      <use xlink:href="#CMMI12-79" transform="translate(94.189195 -14.943915) scale(0.697382)"/>
      <use xlink:href="#CMSY10-69" transform="translate(130.484301 0) scale(0.996264)"/>
     </g>
    </g>
   </g>
  </g>
 </g>
 <defs>
  <clipPath id="pee2a47dee7">
   <rect x="33.707196" y="7.2" width="212.292324" height="195.359296"/>
  </clipPath>
 </defs>
</svg>
