<?xml version="1.0" encoding="utf-8" standalone="no"?>
<!DOCTYPE svg PUBLIC "-//W3C//DTD SVG 1.1//EN"
  "http://www.w3.org/Graphics/SVG/1.1/DTD/svg11.dtd">
<svg xmlns:xlink="http://www.w3.org/1999/xlink" width="253.19952pt" height="238.79952pt" viewBox="0 0 253.19952 238.79952" xmlns="http://www.w3.org/2000/svg" version="1.1">
 <metadata>
  <rdf:RDF xmlns:dc="http://purl.org/dc/elements/1.1/" xmlns:cc="http://creativecommons.org/ns#" xmlns:rdf="http://www.w3.org/1999/02/22-rdf-syntax-ns#">
   <cc:Work>
    <dc:type rdf:resource="http://purl.org/dc/dcmitype/StillImage"/>
    <dc:date>1980-01-01T00:00:00+00:00</dc:date>
    <dc:format>image/svg+xml</dc:format>
    <dc:creator>
     <cc:Agent>
      <dc:title>Matplotlib v3.6.2, https://matplotlib.org/</dc:title>
     </cc:Agent>
    </dc:creator>
   </cc:Work>
  </rdf:RDF>
 </metadata>
 <defs>
  <style type="text/css">*{stroke-linejoin: round; stroke-linecap: butt}</style>
 </defs>
 <g id="figure_1">
  <g id="patch_1">
   <path d="M 0 238.79952 
L 253.19952 238.79952 
L 253.19952 0 
L 0 0 
z
" style="fill: #ffffff"/>
  </g>
  <g id="axes_1">
   <g id="patch_2">
    <path d="M 33.707196 202.559296 
L 245.99952 202.559296 
L 245.99952 7.2 
L 33.707196 7.2 
z
" style="fill: #ffffff"/>
   </g>
   <g id="matplotlib.axis_1">
    <g id="xtick_1">
     <g id="line2d_1">
      <defs>
       <path id="mfc0176cfe7" d="M 0 0 
L 0 3.5 
" style="stroke: #000000; stroke-width: 0.8"/>
      </defs>
      <g>
       <use xlink:href="#mfc0176cfe7" x="43.356847" y="202.559296" style="stroke: #000000; stroke-width: 0.8"/>
      </g>
     </g>
     <g id="text_1">
      <!-- $\mathdefault{0}$ -->
      <g transform="translate(41.239756 217.194098) scale(0.08 -0.08)">
       <defs>
        <path id="CMR17-30" d="M 2688 2025 
C 2688 2416 2682 3080 2413 3591 
C 2176 4039 1798 4198 1466 4198 
C 1158 4198 768 4058 525 3597 
C 269 3118 243 2524 243 2025 
C 243 1661 250 1106 448 619 
C 723 -39 1216 -128 1466 -128 
C 1760 -128 2208 -7 2470 600 
C 2662 1042 2688 1559 2688 2025 
z
M 1466 -26 
C 1056 -26 813 325 723 812 
C 653 1188 653 1738 653 2096 
C 653 2588 653 2997 736 3387 
C 858 3929 1216 4096 1466 4096 
C 1728 4096 2067 3923 2189 3400 
C 2272 3036 2278 2607 2278 2096 
C 2278 1680 2278 1169 2202 792 
C 2067 95 1690 -26 1466 -26 
z
" transform="scale(0.015625)"/>
       </defs>
       <use xlink:href="#CMR17-30" transform="scale(0.996264)"/>
      </g>
     </g>
    </g>
    <g id="xtick_2">
     <g id="line2d_2">
      <g>
       <use xlink:href="#mfc0176cfe7" x="70.161434" y="202.559296" style="stroke: #000000; stroke-width: 0.8"/>
      </g>
     </g>
     <g id="text_2">
      <!-- $\mathdefault{25}$ -->
      <g transform="translate(65.927251 217.194098) scale(0.08 -0.08)">
       <defs>
        <path id="CMR17-32" d="M 2669 989 
L 2554 989 
C 2490 536 2438 459 2413 420 
C 2381 369 1920 369 1830 369 
L 602 369 
C 832 619 1280 1072 1824 1597 
C 2214 1967 2669 2402 2669 3035 
C 2669 3790 2067 4224 1395 4224 
C 691 4224 262 3604 262 3030 
C 262 2780 448 2748 525 2748 
C 589 2748 781 2787 781 3010 
C 781 3207 614 3264 525 3264 
C 486 3264 448 3258 422 3245 
C 544 3790 915 4058 1306 4058 
C 1862 4058 2227 3617 2227 3035 
C 2227 2479 1901 2000 1536 1584 
L 262 146 
L 262 0 
L 2515 0 
L 2669 989 
z
" transform="scale(0.015625)"/>
        <path id="CMR17-35" d="M 730 3692 
C 794 3666 1056 3584 1325 3584 
C 1920 3584 2246 3911 2432 4100 
C 2432 4157 2432 4192 2394 4192 
C 2387 4192 2374 4192 2323 4163 
C 2099 4058 1837 3973 1517 3973 
C 1325 3973 1037 3999 723 4139 
C 653 4171 640 4171 634 4171 
C 602 4171 595 4164 595 4037 
L 595 2203 
C 595 2089 595 2057 659 2057 
C 691 2057 704 2070 736 2114 
C 941 2401 1222 2522 1542 2522 
C 1766 2522 2246 2382 2246 1289 
C 2246 1085 2246 715 2054 421 
C 1894 159 1645 25 1370 25 
C 947 25 518 320 403 814 
C 429 807 480 795 506 795 
C 589 795 749 840 749 1038 
C 749 1210 627 1280 506 1280 
C 358 1280 262 1190 262 1011 
C 262 454 704 -128 1382 -128 
C 2042 -128 2669 440 2669 1264 
C 2669 2030 2170 2624 1549 2624 
C 1222 2624 947 2503 730 2274 
L 730 3692 
z
" transform="scale(0.015625)"/>
       </defs>
       <use xlink:href="#CMR17-32" transform="scale(0.996264)"/>
       <use xlink:href="#CMR17-35" transform="translate(45.690477 0) scale(0.996264)"/>
      </g>
     </g>
    </g>
    <g id="xtick_3">
     <g id="line2d_3">
      <g>
       <use xlink:href="#mfc0176cfe7" x="96.96602" y="202.559296" style="stroke: #000000; stroke-width: 0.8"/>
      </g>
     </g>
     <g id="text_3">
      <!-- $\mathdefault{50}$ -->
      <g transform="translate(92.731837 217.194098) scale(0.08 -0.08)">
       <use xlink:href="#CMR17-35" transform="scale(0.996264)"/>
       <use xlink:href="#CMR17-30" transform="translate(45.690477 0) scale(0.996264)"/>
      </g>
     </g>
    </g>
    <g id="xtick_4">
     <g id="line2d_4">
      <g>
       <use xlink:href="#mfc0176cfe7" x="123.770606" y="202.559296" style="stroke: #000000; stroke-width: 0.8"/>
      </g>
     </g>
     <g id="text_4">
      <!-- $\mathdefault{75}$ -->
      <g transform="translate(119.536423 217.194098) scale(0.08 -0.08)">
       <defs>
        <path id="CMR17-37" d="M 2886 3941 
L 2886 4081 
L 1382 4081 
C 634 4081 621 4165 595 4288 
L 480 4288 
L 294 3094 
L 410 3094 
C 429 3215 474 3540 550 3661 
C 589 3712 1062 3712 1171 3712 
L 2579 3712 
L 1869 2661 
C 1395 1954 1069 999 1069 165 
C 1069 89 1069 -128 1299 -128 
C 1530 -128 1530 89 1530 171 
L 1530 465 
C 1530 1508 1709 2196 2003 2636 
L 2886 3941 
z
" transform="scale(0.015625)"/>
       </defs>
       <use xlink:href="#CMR17-37" transform="scale(0.996264)"/>
       <use xlink:href="#CMR17-35" transform="translate(45.690477 0) scale(0.996264)"/>
      </g>
     </g>
    </g>
    <g id="xtick_5">
     <g id="line2d_5">
      <g>
       <use xlink:href="#mfc0176cfe7" x="150.575193" y="202.559296" style="stroke: #000000; stroke-width: 0.8"/>
      </g>
     </g>
     <g id="text_5">
      <!-- $\mathdefault{100}$ -->
      <g transform="translate(144.223918 217.194098) scale(0.08 -0.08)">
       <defs>
        <path id="CMR17-31" d="M 1702 4058 
C 1702 4192 1696 4192 1606 4192 
C 1357 3916 979 3827 621 3827 
C 602 3827 570 3827 563 3808 
C 557 3795 557 3782 557 3648 
C 755 3648 1088 3686 1344 3839 
L 1344 461 
C 1344 236 1331 160 781 160 
L 589 160 
L 589 0 
C 896 0 1216 0 1523 0 
C 1830 0 2150 0 2458 0 
L 2458 160 
L 2266 160 
C 1715 160 1702 230 1702 458 
L 1702 4058 
z
" transform="scale(0.015625)"/>
       </defs>
       <use xlink:href="#CMR17-31" transform="scale(0.996264)"/>
       <use xlink:href="#CMR17-30" transform="translate(45.690477 0) scale(0.996264)"/>
       <use xlink:href="#CMR17-30" transform="translate(91.380954 0) scale(0.996264)"/>
      </g>
     </g>
    </g>
    <g id="xtick_6">
     <g id="line2d_6">
      <g>
       <use xlink:href="#mfc0176cfe7" x="177.379779" y="202.559296" style="stroke: #000000; stroke-width: 0.8"/>
      </g>
     </g>
     <g id="text_6">
      <!-- $\mathdefault{125}$ -->
      <g transform="translate(171.028505 217.194098) scale(0.08 -0.08)">
       <use xlink:href="#CMR17-31" transform="scale(0.996264)"/>
       <use xlink:href="#CMR17-32" transform="translate(45.690477 0) scale(0.996264)"/>
       <use xlink:href="#CMR17-35" transform="translate(91.380954 0) scale(0.996264)"/>
      </g>
     </g>
    </g>
    <g id="xtick_7">
     <g id="line2d_7">
      <g>
       <use xlink:href="#mfc0176cfe7" x="204.184365" y="202.559296" style="stroke: #000000; stroke-width: 0.8"/>
      </g>
     </g>
     <g id="text_7">
      <!-- $\mathdefault{150}$ -->
      <g transform="translate(197.833091 217.194098) scale(0.08 -0.08)">
       <use xlink:href="#CMR17-31" transform="scale(0.996264)"/>
       <use xlink:href="#CMR17-35" transform="translate(45.690477 0) scale(0.996264)"/>
       <use xlink:href="#CMR17-30" transform="translate(91.380954 0) scale(0.996264)"/>
      </g>
     </g>
    </g>
    <g id="xtick_8">
     <g id="line2d_8">
      <g>
       <use xlink:href="#mfc0176cfe7" x="230.988952" y="202.559296" style="stroke: #000000; stroke-width: 0.8"/>
      </g>
     </g>
     <g id="text_8">
      <!-- $\mathdefault{175}$ -->
      <g transform="translate(224.637677 217.194098) scale(0.08 -0.08)">
       <use xlink:href="#CMR17-31" transform="scale(0.996264)"/>
       <use xlink:href="#CMR17-37" transform="translate(45.690477 0) scale(0.996264)"/>
       <use xlink:href="#CMR17-35" transform="translate(91.380954 0) scale(0.996264)"/>
      </g>
     </g>
    </g>
    <g id="text_9">
     <!-- $\tau$ -->
     <g transform="translate(137.675756 229.662342) scale(0.1 -0.1)">
      <defs>
       <path id="CMMI12-1c" d="M 1837 2408 
L 2899 2408 
C 2982 2408 3194 2408 3194 2612 
C 3194 2752 3072 2752 2957 2752 
L 1197 2752 
C 1050 2752 832 2752 538 2440 
C 371 2255 166 1917 166 1879 
C 166 1841 198 1828 237 1828 
C 282 1828 288 1847 320 1885 
C 653 2408 986 2408 1146 2408 
L 1677 2408 
L 1011 223 
C 979 127 979 114 979 95 
C 979 25 1024 -64 1152 -64 
C 1350 -64 1382 108 1402 203 
L 1837 2408 
z
" transform="scale(0.015625)"/>
      </defs>
      <use xlink:href="#CMMI12-1c" transform="scale(0.996264)"/>
     </g>
    </g>
   </g>
   <g id="matplotlib.axis_2">
    <g id="ytick_1">
     <g id="line2d_9">
      <defs>
       <path id="m083b313224" d="M 0 0 
L -3.5 0 
" style="stroke: #000000; stroke-width: 0.8"/>
      </defs>
      <g>
       <use xlink:href="#m083b313224" x="33.707196" y="193.679328" style="stroke: #000000; stroke-width: 0.8"/>
      </g>
     </g>
     <g id="text_10">
      <!-- $\mathdefault{−1.0}$ -->
      <g transform="translate(7.2 196.446729) scale(0.08 -0.08)">
       <defs>
        <path id="CMSY10-0" d="M 4218 1472 
C 4326 1472 4442 1472 4442 1600 
C 4442 1728 4326 1728 4218 1728 
L 755 1728 
C 646 1728 531 1728 531 1600 
C 531 1472 646 1472 755 1472 
L 4218 1472 
z
" transform="scale(0.015625)"/>
        <path id="CMMI12-3a" d="M 1178 307 
C 1178 492 1024 619 870 619 
C 685 619 557 466 557 313 
C 557 128 710 0 864 0 
C 1050 0 1178 153 1178 307 
z
" transform="scale(0.015625)"/>
       </defs>
       <use xlink:href="#CMSY10-0" transform="scale(0.996264)"/>
       <use xlink:href="#CMR17-31" transform="translate(77.487468 0) scale(0.996264)"/>
       <use xlink:href="#CMMI12-3a" transform="translate(123.177945 0) scale(0.996264)"/>
       <use xlink:href="#CMR17-30" transform="translate(150.275122 0) scale(0.996264)"/>
      </g>
     </g>
    </g>
    <g id="ytick_2">
     <g id="line2d_10">
      <g>
       <use xlink:href="#m083b313224" x="33.707196" y="158.326497" style="stroke: #000000; stroke-width: 0.8"/>
      </g>
     </g>
     <g id="text_11">
      <!-- $\mathdefault{−0.8}$ -->
      <g transform="translate(7.2 161.093898) scale(0.08 -0.08)">
       <defs>
        <path id="CMR17-38" d="M 1741 2264 
C 2144 2467 2554 2773 2554 3263 
C 2554 3841 1990 4179 1472 4179 
C 890 4179 378 3759 378 3180 
C 378 3021 416 2747 666 2505 
C 730 2442 998 2251 1171 2130 
C 883 1983 211 1634 211 934 
C 211 279 838 -128 1459 -128 
C 2144 -128 2720 362 2720 1010 
C 2720 1590 2330 1857 2074 2029 
L 1741 2264 
z
M 902 2822 
C 851 2854 595 3051 595 3351 
C 595 3739 998 4032 1459 4032 
C 1965 4032 2336 3676 2336 3262 
C 2336 2669 1670 2331 1638 2331 
C 1632 2331 1626 2331 1574 2370 
L 902 2822 
z
M 2080 1519 
C 2176 1449 2483 1240 2483 851 
C 2483 381 2010 25 1472 25 
C 890 25 448 438 448 940 
C 448 1443 838 1862 1280 2060 
L 2080 1519 
z
" transform="scale(0.015625)"/>
       </defs>
       <use xlink:href="#CMSY10-0" transform="scale(0.996264)"/>
       <use xlink:href="#CMR17-30" transform="translate(77.487468 0) scale(0.996264)"/>
       <use xlink:href="#CMMI12-3a" transform="translate(123.177945 0) scale(0.996264)"/>
       <use xlink:href="#CMR17-38" transform="translate(150.275122 0) scale(0.996264)"/>
      </g>
     </g>
    </g>
    <g id="ytick_3">
     <g id="line2d_11">
      <g>
       <use xlink:href="#m083b313224" x="33.707196" y="122.973667" style="stroke: #000000; stroke-width: 0.8"/>
      </g>
     </g>
     <g id="text_12">
      <!-- $\mathdefault{−0.6}$ -->
      <g transform="translate(7.2 125.741068) scale(0.08 -0.08)">
       <defs>
        <path id="CMR17-36" d="M 678 2176 
C 678 3690 1395 4032 1811 4032 
C 1946 4032 2272 4009 2400 3776 
C 2298 3776 2106 3776 2106 3553 
C 2106 3381 2246 3323 2336 3323 
C 2394 3323 2566 3348 2566 3560 
C 2566 3954 2246 4179 1805 4179 
C 1043 4179 243 3390 243 1984 
C 243 253 966 -128 1478 -128 
C 2099 -128 2688 427 2688 1283 
C 2688 2081 2170 2662 1517 2662 
C 1126 2662 838 2407 678 1960 
L 678 2176 
z
M 1478 25 
C 691 25 691 1200 691 1436 
C 691 1896 909 2560 1504 2560 
C 1613 2560 1926 2560 2138 2120 
C 2253 1870 2253 1609 2253 1289 
C 2253 944 2253 690 2118 434 
C 1978 171 1773 25 1478 25 
z
" transform="scale(0.015625)"/>
       </defs>
       <use xlink:href="#CMSY10-0" transform="scale(0.996264)"/>
       <use xlink:href="#CMR17-30" transform="translate(77.487468 0) scale(0.996264)"/>
       <use xlink:href="#CMMI12-3a" transform="translate(123.177945 0) scale(0.996264)"/>
       <use xlink:href="#CMR17-36" transform="translate(150.275122 0) scale(0.996264)"/>
      </g>
     </g>
    </g>
    <g id="ytick_4">
     <g id="line2d_12">
      <g>
       <use xlink:href="#m083b313224" x="33.707196" y="87.620836" style="stroke: #000000; stroke-width: 0.8"/>
      </g>
     </g>
     <g id="text_13">
      <!-- $\mathdefault{−0.4}$ -->
      <g transform="translate(7.2 90.388237) scale(0.08 -0.08)">
       <defs>
        <path id="CMR17-34" d="M 2150 4122 
C 2150 4256 2144 4256 2029 4256 
L 128 1254 
L 128 1088 
L 1779 1088 
L 1779 457 
C 1779 224 1766 160 1318 160 
L 1197 160 
L 1197 0 
C 1402 0 1747 0 1965 0 
C 2182 0 2528 0 2733 0 
L 2733 160 
L 2611 160 
C 2163 160 2150 224 2150 457 
L 2150 1088 
L 2803 1088 
L 2803 1254 
L 2150 1254 
L 2150 4122 
z
M 1798 3703 
L 1798 1254 
L 256 1254 
L 1798 3703 
z
" transform="scale(0.015625)"/>
       </defs>
       <use xlink:href="#CMSY10-0" transform="scale(0.996264)"/>
       <use xlink:href="#CMR17-30" transform="translate(77.487468 0) scale(0.996264)"/>
       <use xlink:href="#CMMI12-3a" transform="translate(123.177945 0) scale(0.996264)"/>
       <use xlink:href="#CMR17-34" transform="translate(150.275122 0) scale(0.996264)"/>
      </g>
     </g>
    </g>
    <g id="ytick_5">
     <g id="line2d_13">
      <g>
       <use xlink:href="#m083b313224" x="33.707196" y="52.268006" style="stroke: #000000; stroke-width: 0.8"/>
      </g>
     </g>
     <g id="text_14">
      <!-- $\mathdefault{−0.2}$ -->
      <g transform="translate(7.2 55.035407) scale(0.08 -0.08)">
       <use xlink:href="#CMSY10-0" transform="scale(0.996264)"/>
       <use xlink:href="#CMR17-30" transform="translate(77.487468 0) scale(0.996264)"/>
       <use xlink:href="#CMMI12-3a" transform="translate(123.177945 0) scale(0.996264)"/>
       <use xlink:href="#CMR17-32" transform="translate(150.275122 0) scale(0.996264)"/>
      </g>
     </g>
    </g>
    <g id="ytick_6">
     <g id="line2d_14">
      <g>
       <use xlink:href="#m083b313224" x="33.707196" y="16.915176" style="stroke: #000000; stroke-width: 0.8"/>
      </g>
     </g>
     <g id="text_15">
      <!-- $\mathdefault{0.0}$ -->
      <g transform="translate(13.786507 19.682576) scale(0.08 -0.08)">
       <use xlink:href="#CMR17-30" transform="scale(0.996264)"/>
       <use xlink:href="#CMMI12-3a" transform="translate(45.690477 0) scale(0.996264)"/>
       <use xlink:href="#CMR17-30" transform="translate(72.787654 0) scale(0.996264)"/>
      </g>
     </g>
    </g>
   </g>
   <g id="line2d_15">
    <path d="M 43.356847 193.679328 
L 43.421178 193.446844 
L 43.54984 191.612446 
L 43.807164 183.078054 
L 44.965122 133.188016 
L 45.093784 132.303169 
L 45.158115 132.342793 
L 45.286777 133.321957 
L 45.544101 138.299417 
L 46.637729 165.544099 
L 46.830722 166.310773 
L 46.959384 166.034102 
L 47.216708 164.127014 
L 47.98868 157.346523 
L 48.181673 157.046769 
L 48.310335 157.233561 
L 48.567659 158.341845 
L 49.532624 163.559047 
L 49.789948 163.778923 
L 49.982941 163.619059 
L 50.497589 162.654005 
L 50.819244 162.270259 
L 51.012237 162.267519 
L 51.269561 162.546769 
L 51.655547 163.416186 
L 52.556181 165.533033 
L 52.877836 165.770115 
L 53.070829 165.614562 
L 53.263822 165.107585 
L 53.521146 163.663972 
L 53.842801 160.235212 
L 54.293118 152.171187 
L 55.64407 125.000035 
L 56.995021 103.213541 
L 57.702662 95.951239 
L 58.410303 90.985935 
L 59.50393 86.384768 
L 60.597557 82.181997 
L 61.369529 79.812755 
L 62.398825 76.99347 
L 62.849142 76.333799 
L 63.170797 75.758914 
L 64.457418 72.877056 
L 64.714742 72.49828 
L 65.679707 70.458176 
L 66.194355 69.872302 
L 66.901996 68.802864 
L 67.416644 68.981959 
L 67.673968 68.485508 
L 68.510271 66.568256 
L 68.703264 66.581612 
L 69.024919 66.689564 
L 69.282243 66.522512 
L 71.01918 64.708149 
L 71.276504 64.543028 
L 71.66249 63.772521 
L 72.112807 63.01462 
L 72.370132 62.974211 
L 72.949111 63.151764 
L 73.335097 62.665415 
L 73.721083 62.312014 
L 74.107069 62.166562 
L 74.364393 62.032326 
L 74.943372 62.140991 
L 75.908337 61.001048 
L 76.229992 61.000071 
L 76.422985 60.649662 
L 76.808971 59.068559 
L 77.259288 56.551201 
L 77.966929 50.364912 
L 78.867563 43.230362 
L 79.382211 40.48544 
L 79.639535 40.03446 
L 79.896859 39.927778 
L 80.154183 40.045016 
L 80.411507 40.161791 
L 80.6045 40.001934 
L 81.569466 38.927231 
L 81.955452 38.726517 
L 82.341438 38.772367 
L 82.598762 38.763805 
L 82.920417 38.404384 
L 83.242072 38.176057 
L 83.499396 38.369236 
L 83.75672 38.545782 
L 84.335699 38.525815 
L 84.850347 39.059819 
L 85.172002 39.355396 
L 85.68665 40.414045 
L 86.201298 41.71686 
L 86.780277 44.076341 
L 87.359256 47.318979 
L 88.002566 52.342156 
L 88.710207 59.778276 
L 89.868165 74.942184 
L 91.026124 88.922728 
L 92.184082 100.265701 
L 93.470702 110.551272 
L 94.435667 116.652822 
L 95.464963 121.774261 
L 96.429928 125.525171 
L 97.909541 130.158048 
L 98.874506 132.592131 
L 99.968134 134.672554 
L 101.190423 136.58065 
L 102.091057 137.536928 
L 103.892325 139.134681 
L 105.050283 139.891811 
L 105.822255 140.095302 
L 106.658558 140.335712 
L 108.395496 141.184709 
L 108.65282 141.576003 
L 108.910144 142.434975 
L 109.231799 144.571101 
L 109.617785 149.056916 
L 111.033067 168.205725 
L 111.22606 168.614025 
L 111.354722 168.544244 
L 111.547715 168.060092 
L 112.319687 165.550953 
L 112.51268 165.525187 
L 112.705673 165.80823 
L 113.091659 166.988099 
L 113.734969 168.909197 
L 114.056624 169.22772 
L 114.313948 169.181132 
L 115.214582 168.74092 
L 115.536237 168.921449 
L 116.050885 169.547621 
L 116.95152 170.660377 
L 117.208844 170.693503 
L 117.401837 170.464771 
L 117.659161 169.613102 
L 117.916485 167.872902 
L 118.23814 164.073645 
L 118.688457 155.575275 
L 120.103739 126.100162 
L 121.197366 107.279191 
L 121.905007 99.285352 
L 122.548317 93.787279 
L 123.38462 89.191924 
L 125.31455 82.185734 
L 125.829199 80.537707 
L 126.665502 77.974476 
L 127.373143 76.43858 
L 127.887791 75.612775 
L 128.852756 73.449442 
L 129.367404 72.247826 
L 129.75339 71.570665 
L 130.203707 70.66903 
L 130.654024 70.255478 
L 131.297334 69.312892 
L 131.811982 68.73633 
L 132.583954 67.379972 
L 133.61325 66.279426 
L 133.934905 66.180069 
L 134.513884 66.185688 
L 134.771209 65.731903 
L 135.285857 64.815925 
L 136.443815 63.757168 
L 136.958463 63.729883 
L 137.344449 63.171738 
L 137.666104 62.834023 
L 138.502407 62.756647 
L 138.824062 62.564251 
L 139.467372 61.913385 
L 139.853358 61.932181 
L 140.496668 61.51641 
L 140.753992 60.936704 
L 141.332971 58.587916 
L 141.718957 55.97799 
L 142.683922 47.298333 
L 143.19857 43.195753 
L 143.648888 41.546728 
L 144.034874 40.82935 
L 144.485191 40.50122 
L 146.157797 39.117037 
L 146.608114 38.500105 
L 146.865438 38.576968 
L 147.187093 38.658456 
L 147.444417 38.539651 
L 147.894734 38.241934 
L 148.345051 38.487931 
L 148.795368 38.294986 
L 149.052692 38.578265 
L 149.953326 40.020596 
L 150.982622 43.514655 
L 151.432939 45.873929 
L 152.076249 50.823522 
L 152.912553 58.980663 
L 153.877518 71.005027 
L 155.357131 89.105488 
L 156.643751 101.849531 
L 157.737378 110.648819 
L 158.702343 116.473945 
L 159.860301 122.117183 
L 160.953928 126.322155 
L 162.047556 129.64045 
L 163.141183 132.330823 
L 164.170479 134.215016 
L 165.714423 136.582762 
L 166.679388 137.658411 
L 168.73798 139.408089 
L 169.831607 139.933707 
L 171.8902 140.870254 
L 172.726503 141.382798 
L 172.983827 141.828423 
L 173.241151 142.733 
L 173.562806 144.89047 
L 173.948792 149.351522 
L 175.364074 168.247826 
L 175.557067 168.686634 
L 175.685729 168.636544 
L 175.878722 168.170997 
L 176.715025 165.476705 
L 176.908018 165.516095 
L 177.165342 166.026326 
L 178.3233 169.095821 
L 178.580624 169.109131 
L 179.030941 168.778729 
L 179.416928 168.573867 
L 179.738583 168.655424 
L 180.124569 169.056288 
L 181.411189 170.669373 
L 181.604182 170.598784 
L 181.797175 170.26637 
L 182.054499 169.221079 
L 182.376154 166.5393 
L 182.76214 160.789137 
L 183.40545 146.590577 
L 184.306084 128.26993 
L 185.464042 108.052095 
L 186.236014 99.27481 
L 186.879324 93.933518 
L 187.715627 89.573312 
L 189.388234 83.218955 
L 191.189502 78.37229 
L 191.961474 75.950244 
L 192.154467 75.806074 
L 192.411791 75.145433 
L 192.862108 73.949886 
L 193.505418 73.000887 
L 193.891404 72.336479 
L 194.341721 72.138842 
L 195.371017 70.097187 
L 195.757003 69.663996 
L 197.686934 67.41046 
L 197.944258 67.16924 
L 198.651899 66.166765 
L 199.166547 65.864004 
L 199.681195 65.309457 
L 200.195843 64.546571 
L 200.581829 64.107902 
L 201.096477 63.885197 
L 201.546794 63.837447 
L 202.190104 63.319313 
L 202.57609 63.337153 
L 203.090738 63.237621 
L 203.734048 62.505831 
L 204.956337 61.48612 
L 205.342323 60.152619 
L 205.79264 57.984088 
L 206.37162 53.327785 
L 207.272254 45.59274 
L 207.915564 42.23606 
L 208.237219 41.539004 
L 209.073522 40.714321 
L 209.395177 40.481128 
L 209.909825 39.913854 
L 210.424473 39.759227 
L 210.87479 39.595362 
L 211.325107 39.740529 
L 212.097079 39.155531 
L 212.933382 38.661197 
L 213.319368 38.687908 
L 213.641023 39.043659 
L 214.284333 39.999146 
L 214.670319 41.257482 
L 215.763947 45.788978 
L 216.342926 49.799612 
L 217.050567 56.565139 
L 217.951201 67.722672 
L 219.559476 87.932544 
L 220.846096 101.20151 
L 221.811061 109.112268 
L 222.904688 116.056029 
L 223.869654 120.940606 
L 224.770288 124.429517 
L 226.507225 129.896716 
L 227.47219 132.475922 
L 228.437155 134.244004 
L 230.04543 136.797339 
L 231.139057 137.959083 
L 232.747333 139.209427 
L 235.063249 140.589429 
L 236.349869 141.083327 
L 236.349869 141.083327 
" clip-path="url(#p9455e11c98)" style="fill: none; stroke: #1f77b4; stroke-width: 0.5; stroke-linecap: square"/>
   </g>
   <g id="line2d_16">
    <path d="M 43.356847 16.915176 
L 44.321812 16.553315 
L 45.286777 16.486881 
L 53.199491 16.597696 
L 56.544704 16.431362 
L 62.07717 16.40514 
L 109.746447 16.529026 
L 112.641342 16.594614 
L 118.752788 16.545798 
L 121.45469 16.421376 
L 129.75339 16.405343 
L 174.334778 16.546347 
L 176.522032 16.595009 
L 209.266515 16.369277 
L 236.349869 16.49521 
L 236.349869 16.49521 
" clip-path="url(#p9455e11c98)" style="fill: none; stroke: #ff7f0e; stroke-width: 0.5; stroke-linecap: square"/>
   </g>
   <g id="line2d_17">
    <path d="M 43.356847 16.915176 
L 44.450474 16.538128 
L 45.093784 16.537246 
L 45.608432 16.779364 
L 46.444736 17.238913 
L 46.830722 17.187214 
L 47.281039 16.839308 
L 47.924349 16.330353 
L 48.310335 16.269121 
L 48.696321 16.448247 
L 49.725617 17.093557 
L 50.111603 16.987271 
L 51.20523 16.520368 
L 51.655547 16.726136 
L 52.427519 17.087939 
L 52.942167 17.068471 
L 54.228787 16.754528 
L 55.708401 17.29445 
L 57.188014 17.239905 
L 58.21731 17.242148 
L 58.796289 16.945385 
L 59.117944 17.011278 
L 59.696923 17.251984 
L 60.79055 16.911192 
L 61.884177 17.114447 
L 62.270163 17.03187 
L 62.72048 16.637492 
L 63.042135 16.48512 
L 63.36379 16.614665 
L 64.071432 16.921366 
L 64.58608 17.025992 
L 66.580341 16.603119 
L 67.15932 16.276565 
L 67.416644 16.447659 
L 67.995623 16.905915 
L 68.317278 16.838611 
L 69.346574 16.376622 
L 70.440201 16.567122 
L 71.212173 17.169548 
L 71.791152 17.427781 
L 72.370132 17.604229 
L 72.691787 17.598814 
L 73.077773 17.291796 
L 73.721083 16.834222 
L 74.107069 16.75722 
L 74.557386 16.992233 
L 75.072034 17.515232 
L 75.393689 17.737949 
L 75.651013 17.659909 
L 75.972668 17.243619 
L 76.422985 16.692687 
L 77.001964 16.494762 
L 77.516612 16.550839 
L 78.159922 16.558397 
L 79.639535 16.389093 
L 80.025521 16.573634 
L 80.797493 17.110243 
L 82.212776 17.223068 
L 82.856086 17.365438 
L 83.242072 17.198148 
L 83.75672 17.013561 
L 84.657354 16.7571 
L 85.815312 16.393899 
L 86.265629 16.723792 
L 86.844608 17.079099 
L 87.423587 17.157217 
L 88.066897 17.022513 
L 89.096193 16.506897 
L 89.739503 16.309474 
L 90.511476 16.402375 
L 94.049681 17.039096 
L 94.950315 16.865095 
L 95.979611 16.411631 
L 96.687252 16.203748 
L 97.523555 16.19325 
L 98.231196 16.4223 
L 99.131831 16.71618 
L 99.646479 16.632491 
L 100.804437 16.331993 
L 102.091057 16.553733 
L 104.278311 16.828171 
L 105.693593 16.470522 
L 106.594227 16.313502 
L 107.237537 16.46538 
L 108.073841 16.940635 
L 109.038806 17.404741 
L 109.489123 17.402104 
L 109.93944 17.139184 
L 110.775743 16.548392 
L 111.161729 16.566649 
L 111.612046 16.843116 
L 112.319687 17.321332 
L 112.641342 17.307462 
L 113.027328 17.024245 
L 113.863631 16.331718 
L 114.249617 16.303606 
L 114.699934 16.558541 
L 115.343244 16.9332 
L 115.793561 16.909836 
L 116.501202 16.559235 
L 117.015851 16.38948 
L 117.466168 16.497834 
L 118.624126 16.985899 
L 119.010112 16.811204 
L 119.846415 16.337058 
L 120.232401 16.381386 
L 120.618387 16.642441 
L 121.326028 17.159908 
L 121.647683 17.081456 
L 122.226662 16.883478 
L 124.02793 16.878497 
L 124.478247 17.036581 
L 125.185888 16.984693 
L 125.507543 16.660566 
L 125.89353 16.276294 
L 126.215185 16.286334 
L 126.729833 16.604703 
L 127.437474 17.088159 
L 128.016453 17.031585 
L 128.981418 16.751112 
L 129.75339 17.05347 
L 130.203707 17.404434 
L 130.589693 17.615623 
L 130.911348 17.495205 
L 131.297334 17.074973 
L 131.940644 16.299468 
L 132.262299 16.26567 
L 133.291595 16.384324 
L 133.741912 16.239073 
L 135.157195 16.293475 
L 135.47885 16.305192 
L 135.993498 16.642861 
L 136.508146 16.872716 
L 137.344449 16.784435 
L 139.017055 16.112145 
L 140.046351 16.498427 
L 140.368006 16.520991 
L 141.204309 16.987457 
L 141.847619 17.426431 
L 142.748253 17.298395 
L 143.584556 17.215798 
L 144.292198 17.268329 
L 145.385825 17.257084 
L 146.157797 17.442824 
L 146.736776 17.235966 
L 147.508748 17.031275 
L 148.087727 17.074302 
L 149.310016 17.246209 
L 150.982622 16.964177 
L 151.625932 16.782525 
L 152.269242 16.821138 
L 154.070511 17.175105 
L 155.807448 17.126861 
L 156.708082 17.238014 
L 157.930371 17.462413 
L 158.702343 17.313256 
L 159.474315 17.228966 
L 162.176218 17.236957 
L 163.655831 16.983367 
L 166.80805 16.871051 
L 169.123966 16.995648 
L 170.60358 16.765715 
L 171.632876 16.938404 
L 172.469179 16.993598 
L 174.656433 16.877516 
L 175.685729 17.061721 
L 176.264708 16.850619 
L 177.294004 16.446772 
L 177.808652 16.501146 
L 179.223935 16.813518 
L 180.446224 16.730049 
L 181.282527 17.00889 
L 182.183161 17.21654 
L 183.276788 17.220758 
L 184.113091 17.17191 
L 185.013725 17.32443 
L 186.107352 17.195038 
L 186.557669 16.964359 
L 186.879324 17.070023 
L 187.329641 17.195685 
L 188.101613 17.19137 
L 188.551931 17.443625 
L 188.809255 17.379523 
L 189.967213 16.710004 
L 190.481861 16.998884 
L 190.932178 17.156154 
L 191.318164 16.914303 
L 191.897143 16.646755 
L 192.283129 16.676849 
L 193.569749 17.297845 
L 193.955735 17.454135 
L 194.599045 17.594516 
L 195.049362 17.570597 
L 195.435348 17.632248 
L 196.078658 17.844354 
L 196.593306 17.809976 
L 196.979292 17.519052 
L 197.365279 17.28136 
L 197.815596 17.363108 
L 199.552533 17.339154 
L 199.874188 17.155296 
L 200.903484 16.210592 
L 201.28947 16.173343 
L 202.833414 16.653227 
L 203.798379 16.641673 
L 204.248696 16.809249 
L 205.084999 17.087862 
L 205.470985 16.840196 
L 205.79264 16.775094 
L 206.178627 17.010076 
L 206.950599 17.512837 
L 207.529578 17.510796 
L 210.810459 17.183363 
L 211.5181 17.265948 
L 212.225741 17.276339 
L 213.319368 17.593844 
L 214.220002 17.838522 
L 217.565215 17.361716 
L 218.465849 17.336123 
L 219.559476 17.332285 
L 220.395779 17.057224 
L 222.261378 16.344551 
L 223.290674 16.710194 
L 224.834619 17.152486 
L 227.47219 17.306201 
L 228.630148 17.410748 
L 230.238423 17.100381 
L 231.589374 16.964298 
L 233.326312 17.133484 
L 234.548601 16.760683 
L 235.642228 16.592828 
L 236.349869 16.684232 
L 236.349869 16.684232 
" clip-path="url(#p9455e11c98)" style="fill: none; stroke: #2ca02c; stroke-width: 0.5; stroke-linecap: square"/>
   </g>
   <g id="patch_3">
    <path d="M 33.707196 202.559296 
L 33.707196 7.2 
" style="fill: none; stroke: #000000; stroke-width: 0.8; stroke-linejoin: miter; stroke-linecap: square"/>
   </g>
   <g id="patch_4">
    <path d="M 245.99952 202.559296 
L 245.99952 7.2 
" style="fill: none; stroke: #000000; stroke-width: 0.8; stroke-linejoin: miter; stroke-linecap: square"/>
   </g>
   <g id="patch_5">
    <path d="M 33.707196 202.559296 
L 245.99952 202.559296 
" style="fill: none; stroke: #000000; stroke-width: 0.8; stroke-linejoin: miter; stroke-linecap: square"/>
   </g>
   <g id="patch_6">
    <path d="M 33.707196 7.2 
L 245.99952 7.2 
" style="fill: none; stroke: #000000; stroke-width: 0.8; stroke-linejoin: miter; stroke-linecap: square"/>
   </g>
   <g id="legend_1">
    <g id="patch_7">
     <path d="M 193.792605 198.059296 
L 239.69952 198.059296 
Q 241.49952 198.059296 241.49952 196.259296 
L 241.49952 156.760168 
Q 241.49952 154.960168 239.69952 154.960168 
L 193.792605 154.960168 
Q 191.992605 154.960168 191.992605 156.760168 
L 191.992605 196.259296 
Q 191.992605 198.059296 193.792605 198.059296 
z
" style="fill: #ffffff; opacity: 0.8; stroke: #cccccc; stroke-width: 0.24; stroke-linejoin: miter"/>
    </g>
    <g id="line2d_18">
     <path d="M 195.592605 162.13495 
L 204.592605 162.13495 
L 213.592605 162.13495 
" style="fill: none; stroke: #1f77b4; stroke-width: 0.5; stroke-linecap: square"/>
    </g>
    <g id="text_16">
     <!-- $\langle \sigma_z\rangle$ -->
     <g transform="translate(220.792605 165.28495) scale(0.09 -0.09)">
      <defs>
       <path id="CMSY10-68" d="M 2099 4557 
C 2131 4627 2131 4640 2131 4672 
C 2131 4742 2074 4800 2003 4800 
C 1946 4800 1901 4768 1856 4653 
L 736 1715 
C 723 1677 704 1638 704 1600 
C 704 1581 704 1568 736 1491 
L 1856 -1446 
C 1882 -1517 1914 -1600 2003 -1600 
C 2074 -1600 2131 -1542 2131 -1472 
C 2131 -1453 2131 -1440 2099 -1370 
L 966 1600 
L 2099 4557 
z
" transform="scale(0.015625)"/>
       <path id="CMMI12-1b" d="M 3251 2408 
C 3334 2408 3546 2408 3546 2612 
C 3546 2752 3424 2752 3309 2752 
L 1894 2752 
C 934 2752 243 1686 243 932 
C 243 390 595 -64 1171 -64 
C 1926 -64 2752 747 2752 1705 
C 2752 1954 2694 2196 2541 2408 
L 3251 2408 
z
M 1178 64 
C 851 64 614 313 614 754 
C 614 1137 845 2408 1786 2408 
C 2061 2408 2368 2274 2368 1781 
C 2368 1558 2266 1021 2042 652 
C 1811 275 1466 64 1178 64 
z
" transform="scale(0.015625)"/>
       <path id="CMMI12-7a" d="M 813 486 
C 1088 803 1312 1004 1632 1296 
C 2016 1632 2182 1793 2272 1891 
C 2720 2338 2944 2713 2944 2764 
C 2944 2816 2893 2816 2880 2816 
C 2835 2816 2822 2793 2790 2750 
C 2630 2494 2477 2367 2310 2367 
C 2176 2367 2106 2421 1984 2565 
C 1850 2715 1741 2816 1555 2816 
C 1088 2816 806 2257 806 2128 
C 806 2108 813 2068 870 2068 
C 922 2068 928 2091 947 2133 
C 1056 2372 1363 2414 1485 2414 
C 1619 2414 1747 2376 1882 2327 
C 2125 2240 2227 2240 2291 2240 
C 2336 2240 2362 2240 2394 2246 
C 2182 1994 1837 1683 1549 1418 
L 902 816 
C 512 415 275 33 275 -12 
C 275 -51 307 -64 346 -64 
C 384 -64 390 -57 435 14 
C 538 163 742 384 979 384 
C 1114 384 1178 342 1306 193 
C 1427 61 1536 -64 1741 -64 
C 2368 -64 2726 732 2726 876 
C 2726 903 2720 942 2656 942 
C 2605 942 2598 917 2579 855 
C 2438 488 2061 338 1811 338 
C 1677 338 1549 376 1414 425 
C 1158 512 1088 512 1005 512 
C 941 512 870 512 813 486 
z
" transform="scale(0.015625)"/>
       <path id="CMSY10-69" d="M 1747 1491 
C 1779 1568 1779 1581 1779 1600 
C 1779 1619 1779 1632 1747 1709 
L 627 4653 
C 589 4762 550 4800 480 4800 
C 410 4800 352 4742 352 4672 
C 352 4653 352 4640 384 4570 
L 1517 1600 
L 384 -1357 
C 352 -1427 352 -1440 352 -1472 
C 352 -1542 410 -1600 480 -1600 
C 563 -1600 589 -1536 614 -1472 
L 1747 1491 
z
" transform="scale(0.015625)"/>
      </defs>
      <use xlink:href="#CMSY10-68" transform="scale(0.996264)"/>
      <use xlink:href="#CMMI12-1b" transform="translate(38.743734 0) scale(0.996264)"/>
      <use xlink:href="#CMMI12-7a" transform="translate(94.189195 -14.943915) scale(0.697382)"/>
      <use xlink:href="#CMSY10-69" transform="translate(129.51575 0) scale(0.996264)"/>
     </g>
    </g>
    <g id="line2d_19">
     <path d="M 195.592605 175.601326 
L 204.592605 175.601326 
L 213.592605 175.601326 
" style="fill: none; stroke: #ff7f0e; stroke-width: 0.5; stroke-linecap: square"/>
    </g>
    <g id="text_17">
     <!-- $\langle \sigma_x\rangle$ -->
     <g transform="translate(220.792605 178.751326) scale(0.09 -0.09)">
      <defs>
       <path id="CMMI12-78" d="M 3034 2606 
C 2829 2567 2752 2414 2752 2293 
C 2752 2139 2874 2088 2963 2088 
C 3155 2088 3290 2254 3290 2427 
C 3290 2695 2982 2816 2714 2816 
C 2323 2816 2106 2433 2048 2312 
C 1901 2816 1504 2816 1389 2816 
C 736 2816 390 1980 390 1839 
C 390 1814 416 1782 461 1782 
C 512 1782 525 1820 538 1846 
C 755 2555 1184 2689 1370 2689 
C 1658 2689 1715 2420 1715 2267 
C 1715 2127 1677 1980 1600 1673 
L 1382 798 
C 1286 415 1101 64 762 64 
C 730 64 570 64 435 147 
C 666 192 717 383 717 460 
C 717 588 621 664 499 664 
C 346 664 179 530 179 326 
C 179 57 480 -64 755 -64 
C 1062 -64 1280 179 1414 441 
C 1517 64 1837 -64 2074 -64 
C 2726 -64 3072 773 3072 913 
C 3072 945 3046 971 3008 971 
C 2950 971 2944 939 2925 888 
C 2752 326 2381 64 2093 64 
C 1869 64 1747 230 1747 492 
C 1747 632 1773 734 1875 1156 
L 2099 2024 
C 2195 2408 2413 2689 2707 2689 
C 2720 2689 2899 2689 3034 2606 
z
" transform="scale(0.015625)"/>
      </defs>
      <use xlink:href="#CMSY10-68" transform="scale(0.996264)"/>
      <use xlink:href="#CMMI12-1b" transform="translate(38.743734 0) scale(0.996264)"/>
      <use xlink:href="#CMMI12-78" transform="translate(94.189195 -14.943915) scale(0.697382)"/>
      <use xlink:href="#CMSY10-69" transform="translate(133.490986 0) scale(0.996264)"/>
     </g>
    </g>
    <g id="line2d_20">
     <path d="M 195.592605 189.067702 
L 204.592605 189.067702 
L 213.592605 189.067702 
" style="fill: none; stroke: #2ca02c; stroke-width: 0.5; stroke-linecap: square"/>
    </g>
    <g id="text_18">
     <!-- $\langle \sigma_y\rangle$ -->
     <g transform="translate(220.792605 192.217702) scale(0.09 -0.09)">
      <defs>
       <path id="CMMI12-79" d="M 1683 -700 
C 1510 -939 1261 -1152 947 -1152 
C 870 -1152 563 -1152 467 -889 
C 486 -895 518 -895 531 -895 
C 723 -895 851 -729 851 -582 
C 851 -435 730 -384 634 -384 
C 531 -384 307 -458 307 -759 
C 307 -1071 582 -1286 947 -1286 
C 1587 -1286 2234 -700 2413 6 
L 3040 2485 
C 3046 2517 3059 2556 3059 2594 
C 3059 2689 2982 2753 2886 2753 
C 2829 2753 2694 2727 2643 2535 
L 2170 658 
C 2138 543 2138 530 2086 460 
C 1958 281 1747 64 1440 64 
C 1082 64 1050 415 1050 588 
C 1050 952 1222 1443 1395 1903 
C 1466 2088 1504 2178 1504 2305 
C 1504 2574 1312 2816 998 2816 
C 410 2816 173 1890 173 1839 
C 173 1814 198 1782 243 1782 
C 301 1782 307 1807 333 1897 
C 486 2433 730 2689 979 2689 
C 1037 2689 1146 2689 1146 2478 
C 1146 2312 1075 2127 979 1884 
C 666 1047 666 837 666 683 
C 666 77 1101 -64 1421 -64 
C 1606 -64 1837 -6 2061 230 
L 2067 224 
C 1971 -147 1907 -392 1683 -700 
z
" transform="scale(0.015625)"/>
      </defs>
      <use xlink:href="#CMSY10-68" transform="scale(0.996264)"/>
      <use xlink:href="#CMMI12-1b" transform="translate(38.743734 0) scale(0.996264)"/>
      <use xlink:href="#CMMI12-79" transform="translate(94.189195 -14.943915) scale(0.697382)"/>
      <use xlink:href="#CMSY10-69" transform="translate(130.484301 0) scale(0.996264)"/>
     </g>
    </g>
   </g>
  </g>
 </g>
 <defs>
  <clipPath id="p9455e11c98">
   <rect x="33.707196" y="7.2" width="212.292324" height="195.359296"/>
  </clipPath>
 </defs>
</svg>
