<?xml version="1.0" encoding="utf-8" standalone="no"?>
<!DOCTYPE svg PUBLIC "-//W3C//DTD SVG 1.1//EN"
  "http://www.w3.org/Graphics/SVG/1.1/DTD/svg11.dtd">
<svg xmlns:xlink="http://www.w3.org/1999/xlink" width="253.19952pt" height="238.79952pt" viewBox="0 0 253.19952 238.79952" xmlns="http://www.w3.org/2000/svg" version="1.1">
 <metadata>
  <rdf:RDF xmlns:dc="http://purl.org/dc/elements/1.1/" xmlns:cc="http://creativecommons.org/ns#" xmlns:rdf="http://www.w3.org/1999/02/22-rdf-syntax-ns#">
   <cc:Work>
    <dc:type rdf:resource="http://purl.org/dc/dcmitype/StillImage"/>
    <dc:date>1980-01-01T00:00:00+00:00</dc:date>
    <dc:format>image/svg+xml</dc:format>
    <dc:creator>
     <cc:Agent>
      <dc:title>Matplotlib v3.6.2, https://matplotlib.org/</dc:title>
     </cc:Agent>
    </dc:creator>
   </cc:Work>
  </rdf:RDF>
 </metadata>
 <defs>
  <style type="text/css">*{stroke-linejoin: round; stroke-linecap: butt}</style>
 </defs>
 <g id="figure_1">
  <g id="patch_1">
   <path d="M 0 238.79952 
L 253.19952 238.79952 
L 253.19952 0 
L 0 0 
z
" style="fill: #ffffff"/>
  </g>
  <g id="axes_1">
   <g id="patch_2">
    <path d="M 33.707196 202.559296 
L 245.99952 202.559296 
L 245.99952 7.2 
L 33.707196 7.2 
z
" style="fill: #ffffff"/>
   </g>
   <g id="matplotlib.axis_1">
    <g id="xtick_1">
     <g id="line2d_1">
      <defs>
       <path id="m36a56bd989" d="M 0 0 
L 0 3.5 
" style="stroke: #000000; stroke-width: 0.8"/>
      </defs>
      <g>
       <use xlink:href="#m36a56bd989" x="43.356847" y="202.559296" style="stroke: #000000; stroke-width: 0.8"/>
      </g>
     </g>
     <g id="text_1">
      <!-- $\mathdefault{0}$ -->
      <g transform="translate(41.239756 217.194098) scale(0.08 -0.08)">
       <defs>
        <path id="CMR17-30" d="M 2688 2025 
C 2688 2416 2682 3080 2413 3591 
C 2176 4039 1798 4198 1466 4198 
C 1158 4198 768 4058 525 3597 
C 269 3118 243 2524 243 2025 
C 243 1661 250 1106 448 619 
C 723 -39 1216 -128 1466 -128 
C 1760 -128 2208 -7 2470 600 
C 2662 1042 2688 1559 2688 2025 
z
M 1466 -26 
C 1056 -26 813 325 723 812 
C 653 1188 653 1738 653 2096 
C 653 2588 653 2997 736 3387 
C 858 3929 1216 4096 1466 4096 
C 1728 4096 2067 3923 2189 3400 
C 2272 3036 2278 2607 2278 2096 
C 2278 1680 2278 1169 2202 792 
C 2067 95 1690 -26 1466 -26 
z
" transform="scale(0.015625)"/>
       </defs>
       <use xlink:href="#CMR17-30" transform="scale(0.996264)"/>
      </g>
     </g>
    </g>
    <g id="xtick_2">
     <g id="line2d_2">
      <g>
       <use xlink:href="#m36a56bd989" x="70.161434" y="202.559296" style="stroke: #000000; stroke-width: 0.8"/>
      </g>
     </g>
     <g id="text_2">
      <!-- $\mathdefault{25}$ -->
      <g transform="translate(65.927251 217.194098) scale(0.08 -0.08)">
       <defs>
        <path id="CMR17-32" d="M 2669 989 
L 2554 989 
C 2490 536 2438 459 2413 420 
C 2381 369 1920 369 1830 369 
L 602 369 
C 832 619 1280 1072 1824 1597 
C 2214 1967 2669 2402 2669 3035 
C 2669 3790 2067 4224 1395 4224 
C 691 4224 262 3604 262 3030 
C 262 2780 448 2748 525 2748 
C 589 2748 781 2787 781 3010 
C 781 3207 614 3264 525 3264 
C 486 3264 448 3258 422 3245 
C 544 3790 915 4058 1306 4058 
C 1862 4058 2227 3617 2227 3035 
C 2227 2479 1901 2000 1536 1584 
L 262 146 
L 262 0 
L 2515 0 
L 2669 989 
z
" transform="scale(0.015625)"/>
        <path id="CMR17-35" d="M 730 3692 
C 794 3666 1056 3584 1325 3584 
C 1920 3584 2246 3911 2432 4100 
C 2432 4157 2432 4192 2394 4192 
C 2387 4192 2374 4192 2323 4163 
C 2099 4058 1837 3973 1517 3973 
C 1325 3973 1037 3999 723 4139 
C 653 4171 640 4171 634 4171 
C 602 4171 595 4164 595 4037 
L 595 2203 
C 595 2089 595 2057 659 2057 
C 691 2057 704 2070 736 2114 
C 941 2401 1222 2522 1542 2522 
C 1766 2522 2246 2382 2246 1289 
C 2246 1085 2246 715 2054 421 
C 1894 159 1645 25 1370 25 
C 947 25 518 320 403 814 
C 429 807 480 795 506 795 
C 589 795 749 840 749 1038 
C 749 1210 627 1280 506 1280 
C 358 1280 262 1190 262 1011 
C 262 454 704 -128 1382 -128 
C 2042 -128 2669 440 2669 1264 
C 2669 2030 2170 2624 1549 2624 
C 1222 2624 947 2503 730 2274 
L 730 3692 
z
" transform="scale(0.015625)"/>
       </defs>
       <use xlink:href="#CMR17-32" transform="scale(0.996264)"/>
       <use xlink:href="#CMR17-35" transform="translate(45.690477 0) scale(0.996264)"/>
      </g>
     </g>
    </g>
    <g id="xtick_3">
     <g id="line2d_3">
      <g>
       <use xlink:href="#m36a56bd989" x="96.96602" y="202.559296" style="stroke: #000000; stroke-width: 0.8"/>
      </g>
     </g>
     <g id="text_3">
      <!-- $\mathdefault{50}$ -->
      <g transform="translate(92.731837 217.194098) scale(0.08 -0.08)">
       <use xlink:href="#CMR17-35" transform="scale(0.996264)"/>
       <use xlink:href="#CMR17-30" transform="translate(45.690477 0) scale(0.996264)"/>
      </g>
     </g>
    </g>
    <g id="xtick_4">
     <g id="line2d_4">
      <g>
       <use xlink:href="#m36a56bd989" x="123.770606" y="202.559296" style="stroke: #000000; stroke-width: 0.8"/>
      </g>
     </g>
     <g id="text_4">
      <!-- $\mathdefault{75}$ -->
      <g transform="translate(119.536423 217.194098) scale(0.08 -0.08)">
       <defs>
        <path id="CMR17-37" d="M 2886 3941 
L 2886 4081 
L 1382 4081 
C 634 4081 621 4165 595 4288 
L 480 4288 
L 294 3094 
L 410 3094 
C 429 3215 474 3540 550 3661 
C 589 3712 1062 3712 1171 3712 
L 2579 3712 
L 1869 2661 
C 1395 1954 1069 999 1069 165 
C 1069 89 1069 -128 1299 -128 
C 1530 -128 1530 89 1530 171 
L 1530 465 
C 1530 1508 1709 2196 2003 2636 
L 2886 3941 
z
" transform="scale(0.015625)"/>
       </defs>
       <use xlink:href="#CMR17-37" transform="scale(0.996264)"/>
       <use xlink:href="#CMR17-35" transform="translate(45.690477 0) scale(0.996264)"/>
      </g>
     </g>
    </g>
    <g id="xtick_5">
     <g id="line2d_5">
      <g>
       <use xlink:href="#m36a56bd989" x="150.575193" y="202.559296" style="stroke: #000000; stroke-width: 0.8"/>
      </g>
     </g>
     <g id="text_5">
      <!-- $\mathdefault{100}$ -->
      <g transform="translate(144.223918 217.194098) scale(0.08 -0.08)">
       <defs>
        <path id="CMR17-31" d="M 1702 4058 
C 1702 4192 1696 4192 1606 4192 
C 1357 3916 979 3827 621 3827 
C 602 3827 570 3827 563 3808 
C 557 3795 557 3782 557 3648 
C 755 3648 1088 3686 1344 3839 
L 1344 461 
C 1344 236 1331 160 781 160 
L 589 160 
L 589 0 
C 896 0 1216 0 1523 0 
C 1830 0 2150 0 2458 0 
L 2458 160 
L 2266 160 
C 1715 160 1702 230 1702 458 
L 1702 4058 
z
" transform="scale(0.015625)"/>
       </defs>
       <use xlink:href="#CMR17-31" transform="scale(0.996264)"/>
       <use xlink:href="#CMR17-30" transform="translate(45.690477 0) scale(0.996264)"/>
       <use xlink:href="#CMR17-30" transform="translate(91.380954 0) scale(0.996264)"/>
      </g>
     </g>
    </g>
    <g id="xtick_6">
     <g id="line2d_6">
      <g>
       <use xlink:href="#m36a56bd989" x="177.379779" y="202.559296" style="stroke: #000000; stroke-width: 0.8"/>
      </g>
     </g>
     <g id="text_6">
      <!-- $\mathdefault{125}$ -->
      <g transform="translate(171.028505 217.194098) scale(0.08 -0.08)">
       <use xlink:href="#CMR17-31" transform="scale(0.996264)"/>
       <use xlink:href="#CMR17-32" transform="translate(45.690477 0) scale(0.996264)"/>
       <use xlink:href="#CMR17-35" transform="translate(91.380954 0) scale(0.996264)"/>
      </g>
     </g>
    </g>
    <g id="xtick_7">
     <g id="line2d_7">
      <g>
       <use xlink:href="#m36a56bd989" x="204.184365" y="202.559296" style="stroke: #000000; stroke-width: 0.8"/>
      </g>
     </g>
     <g id="text_7">
      <!-- $\mathdefault{150}$ -->
      <g transform="translate(197.833091 217.194098) scale(0.08 -0.08)">
       <use xlink:href="#CMR17-31" transform="scale(0.996264)"/>
       <use xlink:href="#CMR17-35" transform="translate(45.690477 0) scale(0.996264)"/>
       <use xlink:href="#CMR17-30" transform="translate(91.380954 0) scale(0.996264)"/>
      </g>
     </g>
    </g>
    <g id="xtick_8">
     <g id="line2d_8">
      <g>
       <use xlink:href="#m36a56bd989" x="230.988952" y="202.559296" style="stroke: #000000; stroke-width: 0.8"/>
      </g>
     </g>
     <g id="text_8">
      <!-- $\mathdefault{175}$ -->
      <g transform="translate(224.637677 217.194098) scale(0.08 -0.08)">
       <use xlink:href="#CMR17-31" transform="scale(0.996264)"/>
       <use xlink:href="#CMR17-37" transform="translate(45.690477 0) scale(0.996264)"/>
       <use xlink:href="#CMR17-35" transform="translate(91.380954 0) scale(0.996264)"/>
      </g>
     </g>
    </g>
    <g id="text_9">
     <!-- $\tau$ -->
     <g transform="translate(137.675756 229.662342) scale(0.1 -0.1)">
      <defs>
       <path id="CMMI12-1c" d="M 1837 2408 
L 2899 2408 
C 2982 2408 3194 2408 3194 2612 
C 3194 2752 3072 2752 2957 2752 
L 1197 2752 
C 1050 2752 832 2752 538 2440 
C 371 2255 166 1917 166 1879 
C 166 1841 198 1828 237 1828 
C 282 1828 288 1847 320 1885 
C 653 2408 986 2408 1146 2408 
L 1677 2408 
L 1011 223 
C 979 127 979 114 979 95 
C 979 25 1024 -64 1152 -64 
C 1350 -64 1382 108 1402 203 
L 1837 2408 
z
" transform="scale(0.015625)"/>
      </defs>
      <use xlink:href="#CMMI12-1c" transform="scale(0.996264)"/>
     </g>
    </g>
   </g>
   <g id="matplotlib.axis_2">
    <g id="ytick_1">
     <g id="line2d_9">
      <defs>
       <path id="m31a7f272e9" d="M 0 0 
L -3.5 0 
" style="stroke: #000000; stroke-width: 0.8"/>
      </defs>
      <g>
       <use xlink:href="#m31a7f272e9" x="33.707196" y="193.679328" style="stroke: #000000; stroke-width: 0.8"/>
      </g>
     </g>
     <g id="text_10">
      <!-- $\mathdefault{−1.0}$ -->
      <g transform="translate(7.2 196.446729) scale(0.08 -0.08)">
       <defs>
        <path id="CMSY10-0" d="M 4218 1472 
C 4326 1472 4442 1472 4442 1600 
C 4442 1728 4326 1728 4218 1728 
L 755 1728 
C 646 1728 531 1728 531 1600 
C 531 1472 646 1472 755 1472 
L 4218 1472 
z
" transform="scale(0.015625)"/>
        <path id="CMMI12-3a" d="M 1178 307 
C 1178 492 1024 619 870 619 
C 685 619 557 466 557 313 
C 557 128 710 0 864 0 
C 1050 0 1178 153 1178 307 
z
" transform="scale(0.015625)"/>
       </defs>
       <use xlink:href="#CMSY10-0" transform="scale(0.996264)"/>
       <use xlink:href="#CMR17-31" transform="translate(77.487468 0) scale(0.996264)"/>
       <use xlink:href="#CMMI12-3a" transform="translate(123.177945 0) scale(0.996264)"/>
       <use xlink:href="#CMR17-30" transform="translate(150.275122 0) scale(0.996264)"/>
      </g>
     </g>
    </g>
    <g id="ytick_2">
     <g id="line2d_10">
      <g>
       <use xlink:href="#m31a7f272e9" x="33.707196" y="158.370616" style="stroke: #000000; stroke-width: 0.8"/>
      </g>
     </g>
     <g id="text_11">
      <!-- $\mathdefault{−0.8}$ -->
      <g transform="translate(7.2 161.138017) scale(0.08 -0.08)">
       <defs>
        <path id="CMR17-38" d="M 1741 2264 
C 2144 2467 2554 2773 2554 3263 
C 2554 3841 1990 4179 1472 4179 
C 890 4179 378 3759 378 3180 
C 378 3021 416 2747 666 2505 
C 730 2442 998 2251 1171 2130 
C 883 1983 211 1634 211 934 
C 211 279 838 -128 1459 -128 
C 2144 -128 2720 362 2720 1010 
C 2720 1590 2330 1857 2074 2029 
L 1741 2264 
z
M 902 2822 
C 851 2854 595 3051 595 3351 
C 595 3739 998 4032 1459 4032 
C 1965 4032 2336 3676 2336 3262 
C 2336 2669 1670 2331 1638 2331 
C 1632 2331 1626 2331 1574 2370 
L 902 2822 
z
M 2080 1519 
C 2176 1449 2483 1240 2483 851 
C 2483 381 2010 25 1472 25 
C 890 25 448 438 448 940 
C 448 1443 838 1862 1280 2060 
L 2080 1519 
z
" transform="scale(0.015625)"/>
       </defs>
       <use xlink:href="#CMSY10-0" transform="scale(0.996264)"/>
       <use xlink:href="#CMR17-30" transform="translate(77.487468 0) scale(0.996264)"/>
       <use xlink:href="#CMMI12-3a" transform="translate(123.177945 0) scale(0.996264)"/>
       <use xlink:href="#CMR17-38" transform="translate(150.275122 0) scale(0.996264)"/>
      </g>
     </g>
    </g>
    <g id="ytick_3">
     <g id="line2d_11">
      <g>
       <use xlink:href="#m31a7f272e9" x="33.707196" y="123.061903" style="stroke: #000000; stroke-width: 0.8"/>
      </g>
     </g>
     <g id="text_12">
      <!-- $\mathdefault{−0.6}$ -->
      <g transform="translate(7.2 125.829304) scale(0.08 -0.08)">
       <defs>
        <path id="CMR17-36" d="M 678 2176 
C 678 3690 1395 4032 1811 4032 
C 1946 4032 2272 4009 2400 3776 
C 2298 3776 2106 3776 2106 3553 
C 2106 3381 2246 3323 2336 3323 
C 2394 3323 2566 3348 2566 3560 
C 2566 3954 2246 4179 1805 4179 
C 1043 4179 243 3390 243 1984 
C 243 253 966 -128 1478 -128 
C 2099 -128 2688 427 2688 1283 
C 2688 2081 2170 2662 1517 2662 
C 1126 2662 838 2407 678 1960 
L 678 2176 
z
M 1478 25 
C 691 25 691 1200 691 1436 
C 691 1896 909 2560 1504 2560 
C 1613 2560 1926 2560 2138 2120 
C 2253 1870 2253 1609 2253 1289 
C 2253 944 2253 690 2118 434 
C 1978 171 1773 25 1478 25 
z
" transform="scale(0.015625)"/>
       </defs>
       <use xlink:href="#CMSY10-0" transform="scale(0.996264)"/>
       <use xlink:href="#CMR17-30" transform="translate(77.487468 0) scale(0.996264)"/>
       <use xlink:href="#CMMI12-3a" transform="translate(123.177945 0) scale(0.996264)"/>
       <use xlink:href="#CMR17-36" transform="translate(150.275122 0) scale(0.996264)"/>
      </g>
     </g>
    </g>
    <g id="ytick_4">
     <g id="line2d_12">
      <g>
       <use xlink:href="#m31a7f272e9" x="33.707196" y="87.753191" style="stroke: #000000; stroke-width: 0.8"/>
      </g>
     </g>
     <g id="text_13">
      <!-- $\mathdefault{−0.4}$ -->
      <g transform="translate(7.2 90.520592) scale(0.08 -0.08)">
       <defs>
        <path id="CMR17-34" d="M 2150 4122 
C 2150 4256 2144 4256 2029 4256 
L 128 1254 
L 128 1088 
L 1779 1088 
L 1779 457 
C 1779 224 1766 160 1318 160 
L 1197 160 
L 1197 0 
C 1402 0 1747 0 1965 0 
C 2182 0 2528 0 2733 0 
L 2733 160 
L 2611 160 
C 2163 160 2150 224 2150 457 
L 2150 1088 
L 2803 1088 
L 2803 1254 
L 2150 1254 
L 2150 4122 
z
M 1798 3703 
L 1798 1254 
L 256 1254 
L 1798 3703 
z
" transform="scale(0.015625)"/>
       </defs>
       <use xlink:href="#CMSY10-0" transform="scale(0.996264)"/>
       <use xlink:href="#CMR17-30" transform="translate(77.487468 0) scale(0.996264)"/>
       <use xlink:href="#CMMI12-3a" transform="translate(123.177945 0) scale(0.996264)"/>
       <use xlink:href="#CMR17-34" transform="translate(150.275122 0) scale(0.996264)"/>
      </g>
     </g>
    </g>
    <g id="ytick_5">
     <g id="line2d_13">
      <g>
       <use xlink:href="#m31a7f272e9" x="33.707196" y="52.444479" style="stroke: #000000; stroke-width: 0.8"/>
      </g>
     </g>
     <g id="text_14">
      <!-- $\mathdefault{−0.2}$ -->
      <g transform="translate(7.2 55.21188) scale(0.08 -0.08)">
       <use xlink:href="#CMSY10-0" transform="scale(0.996264)"/>
       <use xlink:href="#CMR17-30" transform="translate(77.487468 0) scale(0.996264)"/>
       <use xlink:href="#CMMI12-3a" transform="translate(123.177945 0) scale(0.996264)"/>
       <use xlink:href="#CMR17-32" transform="translate(150.275122 0) scale(0.996264)"/>
      </g>
     </g>
    </g>
    <g id="ytick_6">
     <g id="line2d_14">
      <g>
       <use xlink:href="#m31a7f272e9" x="33.707196" y="17.135767" style="stroke: #000000; stroke-width: 0.8"/>
      </g>
     </g>
     <g id="text_15">
      <!-- $\mathdefault{0.0}$ -->
      <g transform="translate(13.786507 19.903168) scale(0.08 -0.08)">
       <use xlink:href="#CMR17-30" transform="scale(0.996264)"/>
       <use xlink:href="#CMMI12-3a" transform="translate(45.690477 0) scale(0.996264)"/>
       <use xlink:href="#CMR17-30" transform="translate(72.787654 0) scale(0.996264)"/>
      </g>
     </g>
    </g>
   </g>
   <g id="line2d_15">
    <path d="M 43.356847 193.679328 
L 52.684843 193.569089 
L 53.006498 193.303821 
L 53.328153 192.667192 
L 53.649808 191.390216 
L 53.971463 189.169939 
L 54.357449 184.874338 
L 54.872098 176.060698 
L 55.64407 157.990535 
L 57.188014 121.778111 
L 58.024317 107.190085 
L 58.796289 98.11207 
L 59.761254 89.220602 
L 60.597557 83.80391 
L 62.334494 75.216359 
L 63.299459 71.675421 
L 63.878439 69.591326 
L 64.328756 68.800177 
L 64.972066 67.843671 
L 66.130024 65.192179 
L 66.644672 64.277647 
L 67.030658 63.993897 
L 67.416644 63.691387 
L 67.80263 63.048516 
L 68.381609 62.008101 
L 68.703264 61.840319 
L 69.668229 61.85418 
L 69.989884 62.150639 
L 70.440201 62.902289 
L 71.533828 65.41368 
L 72.691787 68.142736 
L 73.206435 68.713414 
L 73.914076 69.160942 
L 74.557386 69.286653 
L 77.259288 69.294694 
L 86.394291 69.186156 
L 86.908939 69.243584 
L 87.359256 69.518907 
L 87.680911 70.043702 
L 88.066897 71.28936 
L 88.581545 73.931614 
L 89.224855 78.496514 
L 90.189821 87.217386 
L 91.540772 99.074083 
L 92.634399 106.671825 
L 93.535033 111.658155 
L 94.435667 115.127758 
L 95.207639 117.121407 
L 96.365597 119.690445 
L 97.2019 121.292485 
L 98.552851 123.151325 
L 99.260493 123.658715 
L 101.383416 125.191804 
L 101.833733 125.903282 
L 102.348381 127.22153 
L 102.991691 129.565283 
L 104.085318 134.666952 
L 104.85729 137.645369 
L 105.436269 139.05498 
L 105.950917 139.743095 
L 106.401234 140.000392 
L 107.044544 140.091224 
L 111.612046 140.095546 
L 117.144513 139.991329 
L 117.466168 139.735013 
L 117.787823 139.161927 
L 118.109478 138.090154 
L 118.495464 135.853549 
L 118.945781 131.66307 
L 119.589091 123.024308 
L 121.776345 91.419935 
L 122.612648 83.929276 
L 123.255958 79.937116 
L 124.092261 76.198092 
L 125.31455 71.705606 
L 125.829199 70.541955 
L 126.279516 69.470002 
L 127.051488 67.385586 
L 129.367404 63.205948 
L 129.624728 63.199356 
L 130.139376 63.368832 
L 130.461031 63.110422 
L 131.233003 62.454942 
L 132.133637 62.138648 
L 132.712616 61.42269 
L 132.96994 61.564297 
L 133.420257 61.863023 
L 133.934905 62.095535 
L 134.513884 62.643558 
L 135.028533 63.578398 
L 137.473111 68.439029 
L 138.05209 68.827575 
L 138.759731 69.007524 
L 140.303675 69.030616 
L 150.339312 68.922908 
L 151.046953 68.97936 
L 151.49727 69.239738 
L 151.818925 69.679959 
L 152.204911 70.612014 
L 152.655229 72.2312 
L 153.105546 74.675691 
L 153.684525 79.134069 
L 155.099807 92.365409 
L 156.257765 102.379674 
L 157.158399 108.346194 
L 157.994702 112.460354 
L 158.702343 114.91863 
L 160.246287 118.95719 
L 161.983225 122.347294 
L 162.819528 123.380694 
L 163.784493 124.15752 
L 165.199775 125.172628 
L 165.585761 125.346707 
L 166.036078 125.878914 
L 166.486395 126.742286 
L 166.936712 128.199245 
L 167.773015 131.824808 
L 168.995304 137.310078 
L 169.574283 138.931559 
L 170.088931 139.74939 
L 170.60358 140.13568 
L 171.182559 140.270179 
L 172.983827 140.28531 
L 181.346858 140.191127 
L 181.732844 139.938183 
L 182.054499 139.426016 
L 182.376154 138.423461 
L 182.76214 136.31717 
L 183.212457 132.432763 
L 183.791436 125.096652 
L 186.364676 88.966058 
L 187.007986 83.758345 
L 187.844289 78.664862 
L 189.323903 71.838278 
L 189.967213 70.500109 
L 190.546192 69.288688 
L 191.382495 67.22821 
L 191.832812 66.607904 
L 192.218798 66.388055 
L 192.669115 66.160328 
L 192.99077 65.671303 
L 194.084397 63.345134 
L 194.727707 62.756471 
L 195.049362 62.713116 
L 195.435348 62.712911 
L 195.757003 62.387232 
L 196.335982 61.726919 
L 196.593306 61.789377 
L 197.107955 62.030581 
L 198.201582 62.039971 
L 198.523237 62.460481 
L 199.874188 65.222695 
L 201.418132 68.31986 
L 201.997111 69.03244 
L 202.511759 69.312842 
L 203.2194 69.434875 
L 205.728309 69.445299 
L 213.962678 69.339323 
L 215.31363 69.146837 
L 215.699616 69.249078 
L 216.021271 69.544354 
L 216.342926 70.143669 
L 216.728912 71.41324 
L 217.24356 74.023165 
L 217.822539 78.169992 
L 218.980497 88.962593 
L 220.267117 100.092109 
L 221.296413 107.338869 
L 222.197047 111.883495 
L 222.969019 114.554685 
L 224.770288 120.21769 
L 225.477929 121.524368 
L 226.249901 122.483922 
L 229.080465 124.849043 
L 229.788106 124.961356 
L 230.174092 125.34083 
L 230.560078 126.037149 
L 231.139057 127.702275 
L 231.846698 130.558418 
L 233.519305 137.750757 
L 234.098284 139.17057 
L 234.612932 139.856497 
L 235.063249 140.113394 
L 235.706559 140.207995 
L 236.349869 140.212849 
L 236.349869 140.212849 
" clip-path="url(#p673b1edc0a)" style="fill: none; stroke: #ff7f0e; stroke-width: 0.5; stroke-linecap: square"/>
   </g>
   <g id="line2d_16">
    <path d="M 43.356847 17.135767 
L 53.649808 17.027303 
L 55.00076 16.92453 
L 56.223049 16.934674 
L 56.995021 16.846562 
L 58.538965 17.096024 
L 59.568261 16.95287 
L 60.082909 17.098745 
L 60.533226 17.244084 
L 60.919212 17.123308 
L 61.498191 16.693527 
L 61.948508 16.318497 
L 62.270163 16.360247 
L 63.299459 16.709024 
L 64.007101 16.768062 
L 64.521749 16.613625 
L 65.422383 16.115246 
L 65.744038 16.378134 
L 66.51601 17.130683 
L 66.773334 17.156884 
L 67.15932 16.895418 
L 67.995623 16.214732 
L 68.381609 16.278516 
L 68.896257 16.697164 
L 70.054215 17.676424 
L 70.440201 17.748447 
L 70.761856 17.582044 
L 71.726821 16.809848 
L 72.048476 16.883049 
L 73.270766 17.503762 
L 73.656752 17.328789 
L 74.750379 16.665232 
L 75.136365 16.773644 
L 75.779675 17.284929 
L 76.294323 17.586923 
L 76.680309 17.564883 
L 77.130626 17.2862 
L 78.03126 16.688998 
L 78.481577 16.70535 
L 79.060556 17.012462 
L 80.025521 17.544224 
L 80.6045 17.599616 
L 81.312142 17.414424 
L 83.435065 16.672001 
L 84.142706 16.720926 
L 85.04334 17.027332 
L 86.522953 17.531934 
L 87.230594 17.488047 
L 88.517214 17.266052 
L 89.289186 16.954508 
L 90.511476 16.789875 
L 90.961793 16.966821 
L 92.05542 17.564923 
L 93.020385 17.489913 
L 94.821653 16.831096 
L 95.657956 16.992724 
L 96.172604 16.997761 
L 96.751583 16.973768 
L 98.359858 17.486419 
L 99.003168 17.690537 
L 100.547113 17.667301 
L 100.99743 17.339806 
L 101.962395 16.507777 
L 102.541374 16.515958 
L 103.184684 16.707185 
L 104.471304 17.151378 
L 105.5006 17.342489 
L 106.851551 17.302734 
L 110.003771 16.954115 
L 111.22606 17.249417 
L 112.062363 17.358782 
L 112.770004 17.202627 
L 113.863631 16.910492 
L 114.44261 17.032648 
L 115.600568 17.359805 
L 116.179547 17.219509 
L 117.273175 16.897141 
L 117.852154 17.00987 
L 119.138774 17.41711 
L 120.232401 17.234543 
L 120.875711 17.651158 
L 121.261697 17.795616 
L 121.583352 17.656079 
L 122.805641 16.833368 
L 123.320289 17.100197 
L 123.770606 17.256682 
L 124.02793 17.120977 
L 124.478247 16.531223 
L 124.864233 16.120512 
L 125.121557 16.100683 
L 125.378881 16.319833 
L 126.279516 17.345286 
L 126.601171 17.288476 
L 127.437474 16.923572 
L 128.273777 16.987882 
L 129.11008 16.823849 
L 129.946383 16.613292 
L 130.525362 16.421848 
L 130.975679 16.616666 
L 132.004975 17.276878 
L 132.262299 17.103113 
L 132.905609 16.558976 
L 133.162933 16.715231 
L 133.61325 17.459921 
L 133.999236 17.94254 
L 134.25656 17.969317 
L 134.578215 17.754946 
L 135.671843 16.804367 
L 135.993498 16.919825 
L 136.636808 17.501286 
L 137.087125 17.755373 
L 137.40878 17.674372 
L 137.859097 17.277198 
L 138.631069 16.592438 
L 138.952724 16.565196 
L 139.33871 16.792275 
L 140.496668 17.720678 
L 140.818323 17.632208 
L 141.26864 17.243315 
L 141.976281 16.619718 
L 142.362267 16.558814 
L 142.748253 16.729952 
L 144.292198 17.717498 
L 144.806846 17.645318 
L 145.578818 17.257384 
L 146.801107 16.647506 
L 147.508748 16.55217 
L 148.216389 16.702205 
L 149.181354 17.183569 
L 150.017657 17.536693 
L 150.532305 17.528971 
L 153.36287 16.922519 
L 155.421462 17.073354 
L 156.193434 17.02952 
L 156.772413 17.240626 
L 157.608716 17.747074 
L 158.059033 17.789263 
L 158.831005 17.527885 
L 160.053294 17.214953 
L 162.047556 17.16021 
L 162.626535 17.321929 
L 163.462838 17.374172 
L 165.778754 17.801941 
L 167.001043 17.609687 
L 167.580022 17.404758 
L 169.574283 16.565206 
L 170.281924 16.564389 
L 171.053897 16.80553 
L 173.241151 17.709383 
L 173.884461 17.640397 
L 174.592102 17.308117 
L 175.943053 16.565313 
L 176.39337 16.627154 
L 176.908018 16.982775 
L 177.808652 17.686865 
L 178.194638 17.671833 
L 178.580624 17.403546 
L 179.54559 16.576995 
L 179.867245 16.590702 
L 180.253231 16.853088 
L 181.218196 17.6756 
L 181.539851 17.661577 
L 181.925837 17.387166 
L 182.955133 16.434764 
L 183.276788 16.450021 
L 183.727105 16.739096 
L 184.306084 17.071343 
L 185.206718 17.27441 
L 185.528373 17.161098 
L 185.97869 16.697255 
L 186.429007 16.314853 
L 186.686331 16.393315 
L 187.779958 17.222875 
L 188.809255 17.293484 
L 189.259572 17.436684 
L 189.581227 17.291728 
L 190.867847 16.367036 
L 191.125171 16.543084 
L 191.511157 17.252903 
L 191.897143 17.801699 
L 192.090136 17.797112 
L 192.540453 17.412401 
L 193.312425 16.789231 
L 193.698411 16.796098 
L 194.084397 17.089438 
L 195.113693 18.085976 
L 195.435348 17.801059 
L 196.078658 17.115821 
L 196.464644 17.063352 
L 196.85063 17.300962 
L 197.42961 17.637655 
L 197.751265 17.578381 
L 198.330244 17.45522 
L 198.780561 17.273036 
L 199.745526 16.69344 
L 200.067181 16.90523 
L 200.839153 17.527041 
L 201.225139 17.533539 
L 201.611125 17.28706 
L 202.511759 16.572274 
L 202.833414 16.595183 
L 203.2194 16.863062 
L 204.184365 17.694222 
L 204.50602 17.68114 
L 204.892006 17.419819 
L 205.921302 16.568913 
L 206.307289 16.624208 
L 206.821937 17.015111 
L 207.65824 17.652729 
L 208.108557 17.704336 
L 208.623205 17.510791 
L 210.424473 16.581038 
L 211.067783 16.589084 
L 211.839755 16.84988 
L 213.962678 17.74428 
L 214.541657 17.691556 
L 215.249299 17.37663 
L 216.60025 16.653626 
L 217.179229 16.611688 
L 218.079863 16.743487 
L 218.980497 17.069658 
L 220.138455 17.586879 
L 220.846096 17.482342 
L 221.296413 17.238056 
L 222.197047 16.697552 
L 223.097681 16.495038 
L 223.933985 16.639976 
L 224.705957 16.938592 
L 225.799584 17.320629 
L 226.378563 17.340747 
L 227.086204 17.184268 
L 227.793845 16.91319 
L 228.501486 17.041441 
L 230.367085 17.784075 
L 231.139057 17.789779 
L 232.297015 17.409682 
L 233.776629 16.994356 
L 234.998918 16.961731 
L 236.349869 17.157348 
L 236.349869 17.157348 
" clip-path="url(#p673b1edc0a)" style="fill: none; stroke: #2ca02c; stroke-width: 0.5; stroke-linecap: square"/>
   </g>
   <g id="line2d_17">
    <path d="M 43.356847 17.135767 
L 53.907132 17.24495 
L 54.550442 17.232602 
L 55.451077 17.159928 
L 56.351711 17.31258 
L 56.737697 17.153946 
L 57.252345 16.862942 
L 57.959986 17.060879 
L 58.989282 17.295739 
L 60.211571 16.903664 
L 61.176536 17.566335 
L 61.498191 17.772464 
L 61.691184 17.669561 
L 62.398825 16.917675 
L 63.106466 16.980631 
L 64.393087 17.387487 
L 64.843404 17.649407 
L 65.036397 17.537395 
L 65.358052 16.997961 
L 65.744038 16.400349 
L 66.001362 16.373771 
L 66.323017 16.613213 
L 66.901996 17.473266 
L 67.352313 17.870993 
L 67.609637 17.797018 
L 68.059954 17.194988 
L 68.44594 16.896678 
L 69.217912 16.722851 
L 69.603898 16.762395 
L 70.247208 17.132031 
L 71.01918 17.6538 
L 71.340835 17.471584 
L 72.3058 16.698653 
L 72.691787 16.780394 
L 73.206435 17.164144 
L 73.785414 17.554364 
L 74.1714 17.543656 
L 74.621717 17.257323 
L 75.45802 16.682977 
L 75.844006 16.710267 
L 76.294323 17.001139 
L 77.130626 17.581902 
L 77.516612 17.575844 
L 77.966929 17.331813 
L 78.996225 16.695151 
L 79.510873 16.697641 
L 80.154183 16.969603 
L 81.440804 17.548501 
L 82.148445 17.597972 
L 82.920417 17.42191 
L 85.364995 16.657347 
L 86.136967 16.774615 
L 88.9032 17.488542 
L 89.353517 17.358968 
L 89.932496 17.234938 
L 92.248413 17.376044 
L 93.728026 17.679293 
L 94.307005 17.521064 
L 95.657956 16.962594 
L 96.365597 17.013561 
L 96.815914 17.022509 
L 98.231196 16.592708 
L 98.681513 16.70845 
L 99.260493 17.157623 
L 100.35412 18.08078 
L 100.804437 18.128898 
L 101.447747 17.944574 
L 102.155388 17.38852 
L 103.120353 16.692152 
L 103.699332 16.590777 
L 104.278311 16.700385 
L 105.307607 16.942243 
L 108.138172 17.346239 
L 109.360461 17.143618 
L 110.840074 16.910482 
L 111.612046 17.025029 
L 113.091659 17.354646 
L 113.734969 17.180112 
L 114.699934 16.910361 
L 115.278913 17.029741 
L 116.436871 17.363264 
L 117.015851 17.237612 
L 118.302471 16.865628 
L 118.752788 16.982407 
L 119.589091 17.323421 
L 119.975077 17.188389 
L 120.747049 16.783567 
L 121.004373 16.934587 
L 121.840676 17.651507 
L 122.162331 17.708487 
L 122.419655 17.517927 
L 123.062965 16.835446 
L 123.448951 16.933473 
L 123.770606 17.225123 
L 124.285254 17.797363 
L 124.542578 17.778513 
L 124.799902 17.508854 
L 125.636205 16.370688 
L 125.89353 16.630038 
L 126.601171 17.504367 
L 126.858495 17.440844 
L 127.759129 16.984619 
L 128.788425 17.35682 
L 130.461031 17.165279 
L 131.233003 16.60738 
L 131.554658 16.685626 
L 131.876313 17.07064 
L 132.390961 17.76351 
L 132.583954 17.687406 
L 132.841278 17.269819 
L 133.355926 16.329893 
L 133.61325 16.268694 
L 133.870574 16.529951 
L 134.642546 17.545392 
L 135.028533 17.685784 
L 135.350188 17.561704 
L 135.800505 17.123377 
L 136.250822 16.742867 
L 136.572477 16.731485 
L 136.958463 17.005201 
L 137.794766 17.691736 
L 138.180752 17.679654 
L 138.566738 17.414414 
L 139.596034 16.556746 
L 139.917689 16.609444 
L 140.368006 16.975027 
L 141.139978 17.670262 
L 141.525964 17.698116 
L 141.91195 17.468175 
L 143.069908 16.56997 
L 143.455894 16.580091 
L 143.970543 16.839334 
L 145.321494 17.654713 
L 145.900473 17.71704 
L 146.543783 17.566706 
L 147.573079 17.055614 
L 148.602375 16.615219 
L 149.245685 16.564081 
L 149.888995 16.728448 
L 152.333573 17.732239 
L 152.912553 17.525529 
L 154.134842 17.039174 
L 155.035476 17.235674 
L 156.000441 17.033373 
L 156.836744 16.675081 
L 157.994702 16.809055 
L 159.345653 17.268749 
L 159.860301 17.328055 
L 162.433542 16.890338 
L 163.012521 16.802494 
L 166.036078 17.243218 
L 168.609318 17.759724 
L 169.38129 17.468496 
L 171.504214 16.567278 
L 172.147524 16.606821 
L 172.919496 16.893574 
L 174.785095 17.712034 
L 175.299743 17.630403 
L 175.878722 17.281161 
L 176.908018 16.578189 
L 177.294004 16.597125 
L 177.744321 16.899566 
L 178.709286 17.69679 
L 179.030941 17.678491 
L 179.416928 17.412878 
L 180.381893 16.579028 
L 180.703548 16.590909 
L 181.089534 16.85638 
L 182.11883 17.760783 
L 182.440485 17.745237 
L 182.890802 17.433329 
L 183.727105 16.789405 
L 184.113091 16.801006 
L 185.271049 17.208286 
L 186.107352 17.672079 
L 186.364676 17.325144 
L 186.814993 16.687334 
L 187.072317 16.683833 
L 187.972951 17.101237 
L 188.937917 17.014838 
L 189.452565 17.528985 
L 189.838551 17.79628 
L 190.160206 17.712626 
L 190.481861 17.415593 
L 191.06084 16.495032 
L 191.382495 16.150151 
L 191.575488 16.271508 
L 191.897143 16.992793 
L 192.283129 17.672755 
L 192.604784 17.717253 
L 193.119432 17.548277 
L 193.698411 16.926105 
L 194.213059 16.531329 
L 194.534714 16.514652 
L 194.792038 16.809835 
L 195.499679 17.825531 
L 195.692672 17.757703 
L 196.85063 16.768414 
L 197.172286 16.84258 
L 198.008589 17.282434 
L 198.523237 17.220216 
L 199.230878 17.377402 
L 199.552533 17.124075 
L 200.131512 16.603644 
L 200.453167 16.631714 
L 200.839153 16.950204 
L 201.611125 17.65646 
L 201.93278 17.669202 
L 202.318766 17.438115 
L 203.412393 16.561956 
L 203.734048 16.62005 
L 204.184365 16.986203 
L 204.956337 17.669592 
L 205.277992 17.702212 
L 205.663978 17.491296 
L 206.886268 16.560753 
L 207.272254 16.63314 
L 207.851233 17.031365 
L 208.751867 17.630371 
L 209.266515 17.71256 
L 209.845494 17.578004 
L 210.87479 17.050103 
L 211.904086 16.617026 
L 212.611727 16.569857 
L 213.319368 16.759281 
L 214.220002 17.261408 
L 215.120637 17.69883 
L 215.828278 17.800515 
L 216.664581 17.70613 
L 218.144194 17.031862 
L 219.044828 16.637356 
L 219.623807 16.72091 
L 221.360744 17.346742 
L 222.454371 16.979308 
L 223.933985 16.237183 
L 224.448633 16.414419 
L 225.156274 16.97813 
L 225.735253 17.329053 
L 226.378563 17.39308 
L 227.086204 17.342406 
L 227.922507 17.27908 
L 229.530782 17.265198 
L 230.624409 17.58616 
L 231.267719 17.802095 
L 231.782367 17.700827 
L 232.940326 17.384656 
L 236.349869 16.946463 
L 236.349869 16.946463 
" clip-path="url(#p673b1edc0a)" style="fill: none; stroke: #d62728; stroke-width: 0.5; stroke-linecap: square"/>
   </g>
   <g id="patch_3">
    <path d="M 33.707196 202.559296 
L 33.707196 7.2 
" style="fill: none; stroke: #000000; stroke-width: 0.8; stroke-linejoin: miter; stroke-linecap: square"/>
   </g>
   <g id="patch_4">
    <path d="M 245.99952 202.559296 
L 245.99952 7.2 
" style="fill: none; stroke: #000000; stroke-width: 0.8; stroke-linejoin: miter; stroke-linecap: square"/>
   </g>
   <g id="patch_5">
    <path d="M 33.707196 202.559296 
L 245.99952 202.559296 
" style="fill: none; stroke: #000000; stroke-width: 0.8; stroke-linejoin: miter; stroke-linecap: square"/>
   </g>
   <g id="patch_6">
    <path d="M 33.707196 7.2 
L 245.99952 7.2 
" style="fill: none; stroke: #000000; stroke-width: 0.8; stroke-linejoin: miter; stroke-linecap: square"/>
   </g>
   <g id="legend_1">
    <g id="patch_7">
     <path d="M 193.792605 198.059296 
L 239.69952 198.059296 
Q 241.49952 198.059296 241.49952 196.259296 
L 241.49952 156.760168 
Q 241.49952 154.960168 239.69952 154.960168 
L 193.792605 154.960168 
Q 191.992605 154.960168 191.992605 156.760168 
L 191.992605 196.259296 
Q 191.992605 198.059296 193.792605 198.059296 
z
" style="fill: #ffffff; opacity: 0.8; stroke: #cccccc; stroke-width: 0.24; stroke-linejoin: miter"/>
    </g>
    <g id="line2d_18">
     <path d="M 195.592605 162.13495 
L 204.592605 162.13495 
L 213.592605 162.13495 
" style="fill: none; stroke: #ff7f0e; stroke-width: 0.5; stroke-linecap: square"/>
    </g>
    <g id="text_16">
     <!-- $\langle \sigma_z\rangle$ -->
     <g transform="translate(220.792605 165.28495) scale(0.09 -0.09)">
      <defs>
       <path id="CMSY10-68" d="M 2099 4557 
C 2131 4627 2131 4640 2131 4672 
C 2131 4742 2074 4800 2003 4800 
C 1946 4800 1901 4768 1856 4653 
L 736 1715 
C 723 1677 704 1638 704 1600 
C 704 1581 704 1568 736 1491 
L 1856 -1446 
C 1882 -1517 1914 -1600 2003 -1600 
C 2074 -1600 2131 -1542 2131 -1472 
C 2131 -1453 2131 -1440 2099 -1370 
L 966 1600 
L 2099 4557 
z
" transform="scale(0.015625)"/>
       <path id="CMMI12-1b" d="M 3251 2408 
C 3334 2408 3546 2408 3546 2612 
C 3546 2752 3424 2752 3309 2752 
L 1894 2752 
C 934 2752 243 1686 243 932 
C 243 390 595 -64 1171 -64 
C 1926 -64 2752 747 2752 1705 
C 2752 1954 2694 2196 2541 2408 
L 3251 2408 
z
M 1178 64 
C 851 64 614 313 614 754 
C 614 1137 845 2408 1786 2408 
C 2061 2408 2368 2274 2368 1781 
C 2368 1558 2266 1021 2042 652 
C 1811 275 1466 64 1178 64 
z
" transform="scale(0.015625)"/>
       <path id="CMMI12-7a" d="M 813 486 
C 1088 803 1312 1004 1632 1296 
C 2016 1632 2182 1793 2272 1891 
C 2720 2338 2944 2713 2944 2764 
C 2944 2816 2893 2816 2880 2816 
C 2835 2816 2822 2793 2790 2750 
C 2630 2494 2477 2367 2310 2367 
C 2176 2367 2106 2421 1984 2565 
C 1850 2715 1741 2816 1555 2816 
C 1088 2816 806 2257 806 2128 
C 806 2108 813 2068 870 2068 
C 922 2068 928 2091 947 2133 
C 1056 2372 1363 2414 1485 2414 
C 1619 2414 1747 2376 1882 2327 
C 2125 2240 2227 2240 2291 2240 
C 2336 2240 2362 2240 2394 2246 
C 2182 1994 1837 1683 1549 1418 
L 902 816 
C 512 415 275 33 275 -12 
C 275 -51 307 -64 346 -64 
C 384 -64 390 -57 435 14 
C 538 163 742 384 979 384 
C 1114 384 1178 342 1306 193 
C 1427 61 1536 -64 1741 -64 
C 2368 -64 2726 732 2726 876 
C 2726 903 2720 942 2656 942 
C 2605 942 2598 917 2579 855 
C 2438 488 2061 338 1811 338 
C 1677 338 1549 376 1414 425 
C 1158 512 1088 512 1005 512 
C 941 512 870 512 813 486 
z
" transform="scale(0.015625)"/>
       <path id="CMSY10-69" d="M 1747 1491 
C 1779 1568 1779 1581 1779 1600 
C 1779 1619 1779 1632 1747 1709 
L 627 4653 
C 589 4762 550 4800 480 4800 
C 410 4800 352 4742 352 4672 
C 352 4653 352 4640 384 4570 
L 1517 1600 
L 384 -1357 
C 352 -1427 352 -1440 352 -1472 
C 352 -1542 410 -1600 480 -1600 
C 563 -1600 589 -1536 614 -1472 
L 1747 1491 
z
" transform="scale(0.015625)"/>
      </defs>
      <use xlink:href="#CMSY10-68" transform="scale(0.996264)"/>
      <use xlink:href="#CMMI12-1b" transform="translate(38.743734 0) scale(0.996264)"/>
      <use xlink:href="#CMMI12-7a" transform="translate(94.189195 -14.943915) scale(0.697382)"/>
      <use xlink:href="#CMSY10-69" transform="translate(129.51575 0) scale(0.996264)"/>
     </g>
    </g>
    <g id="line2d_19">
     <path d="M 195.592605 175.601326 
L 204.592605 175.601326 
L 213.592605 175.601326 
" style="fill: none; stroke: #2ca02c; stroke-width: 0.5; stroke-linecap: square"/>
    </g>
    <g id="text_17">
     <!-- $\langle \sigma_x\rangle$ -->
     <g transform="translate(220.792605 178.751326) scale(0.09 -0.09)">
      <defs>
       <path id="CMMI12-78" d="M 3034 2606 
C 2829 2567 2752 2414 2752 2293 
C 2752 2139 2874 2088 2963 2088 
C 3155 2088 3290 2254 3290 2427 
C 3290 2695 2982 2816 2714 2816 
C 2323 2816 2106 2433 2048 2312 
C 1901 2816 1504 2816 1389 2816 
C 736 2816 390 1980 390 1839 
C 390 1814 416 1782 461 1782 
C 512 1782 525 1820 538 1846 
C 755 2555 1184 2689 1370 2689 
C 1658 2689 1715 2420 1715 2267 
C 1715 2127 1677 1980 1600 1673 
L 1382 798 
C 1286 415 1101 64 762 64 
C 730 64 570 64 435 147 
C 666 192 717 383 717 460 
C 717 588 621 664 499 664 
C 346 664 179 530 179 326 
C 179 57 480 -64 755 -64 
C 1062 -64 1280 179 1414 441 
C 1517 64 1837 -64 2074 -64 
C 2726 -64 3072 773 3072 913 
C 3072 945 3046 971 3008 971 
C 2950 971 2944 939 2925 888 
C 2752 326 2381 64 2093 64 
C 1869 64 1747 230 1747 492 
C 1747 632 1773 734 1875 1156 
L 2099 2024 
C 2195 2408 2413 2689 2707 2689 
C 2720 2689 2899 2689 3034 2606 
z
" transform="scale(0.015625)"/>
      </defs>
      <use xlink:href="#CMSY10-68" transform="scale(0.996264)"/>
      <use xlink:href="#CMMI12-1b" transform="translate(38.743734 0) scale(0.996264)"/>
      <use xlink:href="#CMMI12-78" transform="translate(94.189195 -14.943915) scale(0.697382)"/>
      <use xlink:href="#CMSY10-69" transform="translate(133.490986 0) scale(0.996264)"/>
     </g>
    </g>
    <g id="line2d_20">
     <path d="M 195.592605 189.067702 
L 204.592605 189.067702 
L 213.592605 189.067702 
" style="fill: none; stroke: #d62728; stroke-width: 0.5; stroke-linecap: square"/>
    </g>
    <g id="text_18">
     <!-- $\langle \sigma_y\rangle$ -->
     <g transform="translate(220.792605 192.217702) scale(0.09 -0.09)">
      <defs>
       <path id="CMMI12-79" d="M 1683 -700 
C 1510 -939 1261 -1152 947 -1152 
C 870 -1152 563 -1152 467 -889 
C 486 -895 518 -895 531 -895 
C 723 -895 851 -729 851 -582 
C 851 -435 730 -384 634 -384 
C 531 -384 307 -458 307 -759 
C 307 -1071 582 -1286 947 -1286 
C 1587 -1286 2234 -700 2413 6 
L 3040 2485 
C 3046 2517 3059 2556 3059 2594 
C 3059 2689 2982 2753 2886 2753 
C 2829 2753 2694 2727 2643 2535 
L 2170 658 
C 2138 543 2138 530 2086 460 
C 1958 281 1747 64 1440 64 
C 1082 64 1050 415 1050 588 
C 1050 952 1222 1443 1395 1903 
C 1466 2088 1504 2178 1504 2305 
C 1504 2574 1312 2816 998 2816 
C 410 2816 173 1890 173 1839 
C 173 1814 198 1782 243 1782 
C 301 1782 307 1807 333 1897 
C 486 2433 730 2689 979 2689 
C 1037 2689 1146 2689 1146 2478 
C 1146 2312 1075 2127 979 1884 
C 666 1047 666 837 666 683 
C 666 77 1101 -64 1421 -64 
C 1606 -64 1837 -6 2061 230 
L 2067 224 
C 1971 -147 1907 -392 1683 -700 
z
" transform="scale(0.015625)"/>
      </defs>
      <use xlink:href="#CMSY10-68" transform="scale(0.996264)"/>
      <use xlink:href="#CMMI12-1b" transform="translate(38.743734 0) scale(0.996264)"/>
      <use xlink:href="#CMMI12-79" transform="translate(94.189195 -14.943915) scale(0.697382)"/>
      <use xlink:href="#CMSY10-69" transform="translate(130.484301 0) scale(0.996264)"/>
     </g>
    </g>
   </g>
  </g>
 </g>
 <defs>
  <clipPath id="p673b1edc0a">
   <rect x="33.707196" y="7.2" width="212.292324" height="195.359296"/>
  </clipPath>
 </defs>
</svg>
