<?xml version="1.0" encoding="utf-8" standalone="no"?>
<!DOCTYPE svg PUBLIC "-//W3C//DTD SVG 1.1//EN"
  "http://www.w3.org/Graphics/SVG/1.1/DTD/svg11.dtd">
<svg xmlns:xlink="http://www.w3.org/1999/xlink" width="253.19952pt" height="238.79952pt" viewBox="0 0 253.19952 238.79952" xmlns="http://www.w3.org/2000/svg" version="1.1">
 <metadata>
  <rdf:RDF xmlns:dc="http://purl.org/dc/elements/1.1/" xmlns:cc="http://creativecommons.org/ns#" xmlns:rdf="http://www.w3.org/1999/02/22-rdf-syntax-ns#">
   <cc:Work>
    <dc:type rdf:resource="http://purl.org/dc/dcmitype/StillImage"/>
    <dc:date>1980-01-01T00:00:00+00:00</dc:date>
    <dc:format>image/svg+xml</dc:format>
    <dc:creator>
     <cc:Agent>
      <dc:title>Matplotlib v3.6.2, https://matplotlib.org/</dc:title>
     </cc:Agent>
    </dc:creator>
   </cc:Work>
  </rdf:RDF>
 </metadata>
 <defs>
  <style type="text/css">*{stroke-linejoin: round; stroke-linecap: butt}</style>
 </defs>
 <g id="figure_1">
  <g id="patch_1">
   <path d="M 0 238.79952 
L 253.19952 238.79952 
L 253.19952 0 
L 0 0 
z
" style="fill: #ffffff"/>
  </g>
  <g id="axes_1">
   <g id="patch_2">
    <path d="M 33.707196 202.559296 
L 245.99952 202.559296 
L 245.99952 7.2 
L 33.707196 7.2 
z
" style="fill: #ffffff"/>
   </g>
   <g id="matplotlib.axis_1">
    <g id="xtick_1">
     <g id="line2d_1">
      <defs>
       <path id="mf3e87689cd" d="M 0 0 
L 0 3.5 
" style="stroke: #000000; stroke-width: 0.8"/>
      </defs>
      <g>
       <use xlink:href="#mf3e87689cd" x="43.356847" y="202.559296" style="stroke: #000000; stroke-width: 0.8"/>
      </g>
     </g>
     <g id="text_1">
      <!-- $\mathdefault{0}$ -->
      <g transform="translate(41.239756 217.194098) scale(0.08 -0.08)">
       <defs>
        <path id="CMR17-30" d="M 2688 2025 
C 2688 2416 2682 3080 2413 3591 
C 2176 4039 1798 4198 1466 4198 
C 1158 4198 768 4058 525 3597 
C 269 3118 243 2524 243 2025 
C 243 1661 250 1106 448 619 
C 723 -39 1216 -128 1466 -128 
C 1760 -128 2208 -7 2470 600 
C 2662 1042 2688 1559 2688 2025 
z
M 1466 -26 
C 1056 -26 813 325 723 812 
C 653 1188 653 1738 653 2096 
C 653 2588 653 2997 736 3387 
C 858 3929 1216 4096 1466 4096 
C 1728 4096 2067 3923 2189 3400 
C 2272 3036 2278 2607 2278 2096 
C 2278 1680 2278 1169 2202 792 
C 2067 95 1690 -26 1466 -26 
z
" transform="scale(0.015625)"/>
       </defs>
       <use xlink:href="#CMR17-30" transform="scale(0.996264)"/>
      </g>
     </g>
    </g>
    <g id="xtick_2">
     <g id="line2d_2">
      <g>
       <use xlink:href="#mf3e87689cd" x="70.161434" y="202.559296" style="stroke: #000000; stroke-width: 0.8"/>
      </g>
     </g>
     <g id="text_2">
      <!-- $\mathdefault{25}$ -->
      <g transform="translate(65.927251 217.194098) scale(0.08 -0.08)">
       <defs>
        <path id="CMR17-32" d="M 2669 989 
L 2554 989 
C 2490 536 2438 459 2413 420 
C 2381 369 1920 369 1830 369 
L 602 369 
C 832 619 1280 1072 1824 1597 
C 2214 1967 2669 2402 2669 3035 
C 2669 3790 2067 4224 1395 4224 
C 691 4224 262 3604 262 3030 
C 262 2780 448 2748 525 2748 
C 589 2748 781 2787 781 3010 
C 781 3207 614 3264 525 3264 
C 486 3264 448 3258 422 3245 
C 544 3790 915 4058 1306 4058 
C 1862 4058 2227 3617 2227 3035 
C 2227 2479 1901 2000 1536 1584 
L 262 146 
L 262 0 
L 2515 0 
L 2669 989 
z
" transform="scale(0.015625)"/>
        <path id="CMR17-35" d="M 730 3692 
C 794 3666 1056 3584 1325 3584 
C 1920 3584 2246 3911 2432 4100 
C 2432 4157 2432 4192 2394 4192 
C 2387 4192 2374 4192 2323 4163 
C 2099 4058 1837 3973 1517 3973 
C 1325 3973 1037 3999 723 4139 
C 653 4171 640 4171 634 4171 
C 602 4171 595 4164 595 4037 
L 595 2203 
C 595 2089 595 2057 659 2057 
C 691 2057 704 2070 736 2114 
C 941 2401 1222 2522 1542 2522 
C 1766 2522 2246 2382 2246 1289 
C 2246 1085 2246 715 2054 421 
C 1894 159 1645 25 1370 25 
C 947 25 518 320 403 814 
C 429 807 480 795 506 795 
C 589 795 749 840 749 1038 
C 749 1210 627 1280 506 1280 
C 358 1280 262 1190 262 1011 
C 262 454 704 -128 1382 -128 
C 2042 -128 2669 440 2669 1264 
C 2669 2030 2170 2624 1549 2624 
C 1222 2624 947 2503 730 2274 
L 730 3692 
z
" transform="scale(0.015625)"/>
       </defs>
       <use xlink:href="#CMR17-32" transform="scale(0.996264)"/>
       <use xlink:href="#CMR17-35" transform="translate(45.690477 0) scale(0.996264)"/>
      </g>
     </g>
    </g>
    <g id="xtick_3">
     <g id="line2d_3">
      <g>
       <use xlink:href="#mf3e87689cd" x="96.96602" y="202.559296" style="stroke: #000000; stroke-width: 0.8"/>
      </g>
     </g>
     <g id="text_3">
      <!-- $\mathdefault{50}$ -->
      <g transform="translate(92.731837 217.194098) scale(0.08 -0.08)">
       <use xlink:href="#CMR17-35" transform="scale(0.996264)"/>
       <use xlink:href="#CMR17-30" transform="translate(45.690477 0) scale(0.996264)"/>
      </g>
     </g>
    </g>
    <g id="xtick_4">
     <g id="line2d_4">
      <g>
       <use xlink:href="#mf3e87689cd" x="123.770606" y="202.559296" style="stroke: #000000; stroke-width: 0.8"/>
      </g>
     </g>
     <g id="text_4">
      <!-- $\mathdefault{75}$ -->
      <g transform="translate(119.536423 217.194098) scale(0.08 -0.08)">
       <defs>
        <path id="CMR17-37" d="M 2886 3941 
L 2886 4081 
L 1382 4081 
C 634 4081 621 4165 595 4288 
L 480 4288 
L 294 3094 
L 410 3094 
C 429 3215 474 3540 550 3661 
C 589 3712 1062 3712 1171 3712 
L 2579 3712 
L 1869 2661 
C 1395 1954 1069 999 1069 165 
C 1069 89 1069 -128 1299 -128 
C 1530 -128 1530 89 1530 171 
L 1530 465 
C 1530 1508 1709 2196 2003 2636 
L 2886 3941 
z
" transform="scale(0.015625)"/>
       </defs>
       <use xlink:href="#CMR17-37" transform="scale(0.996264)"/>
       <use xlink:href="#CMR17-35" transform="translate(45.690477 0) scale(0.996264)"/>
      </g>
     </g>
    </g>
    <g id="xtick_5">
     <g id="line2d_5">
      <g>
       <use xlink:href="#mf3e87689cd" x="150.575193" y="202.559296" style="stroke: #000000; stroke-width: 0.8"/>
      </g>
     </g>
     <g id="text_5">
      <!-- $\mathdefault{100}$ -->
      <g transform="translate(144.223918 217.194098) scale(0.08 -0.08)">
       <defs>
        <path id="CMR17-31" d="M 1702 4058 
C 1702 4192 1696 4192 1606 4192 
C 1357 3916 979 3827 621 3827 
C 602 3827 570 3827 563 3808 
C 557 3795 557 3782 557 3648 
C 755 3648 1088 3686 1344 3839 
L 1344 461 
C 1344 236 1331 160 781 160 
L 589 160 
L 589 0 
C 896 0 1216 0 1523 0 
C 1830 0 2150 0 2458 0 
L 2458 160 
L 2266 160 
C 1715 160 1702 230 1702 458 
L 1702 4058 
z
" transform="scale(0.015625)"/>
       </defs>
       <use xlink:href="#CMR17-31" transform="scale(0.996264)"/>
       <use xlink:href="#CMR17-30" transform="translate(45.690477 0) scale(0.996264)"/>
       <use xlink:href="#CMR17-30" transform="translate(91.380954 0) scale(0.996264)"/>
      </g>
     </g>
    </g>
    <g id="xtick_6">
     <g id="line2d_6">
      <g>
       <use xlink:href="#mf3e87689cd" x="177.379779" y="202.559296" style="stroke: #000000; stroke-width: 0.8"/>
      </g>
     </g>
     <g id="text_6">
      <!-- $\mathdefault{125}$ -->
      <g transform="translate(171.028505 217.194098) scale(0.08 -0.08)">
       <use xlink:href="#CMR17-31" transform="scale(0.996264)"/>
       <use xlink:href="#CMR17-32" transform="translate(45.690477 0) scale(0.996264)"/>
       <use xlink:href="#CMR17-35" transform="translate(91.380954 0) scale(0.996264)"/>
      </g>
     </g>
    </g>
    <g id="xtick_7">
     <g id="line2d_7">
      <g>
       <use xlink:href="#mf3e87689cd" x="204.184365" y="202.559296" style="stroke: #000000; stroke-width: 0.8"/>
      </g>
     </g>
     <g id="text_7">
      <!-- $\mathdefault{150}$ -->
      <g transform="translate(197.833091 217.194098) scale(0.08 -0.08)">
       <use xlink:href="#CMR17-31" transform="scale(0.996264)"/>
       <use xlink:href="#CMR17-35" transform="translate(45.690477 0) scale(0.996264)"/>
       <use xlink:href="#CMR17-30" transform="translate(91.380954 0) scale(0.996264)"/>
      </g>
     </g>
    </g>
    <g id="xtick_8">
     <g id="line2d_8">
      <g>
       <use xlink:href="#mf3e87689cd" x="230.988952" y="202.559296" style="stroke: #000000; stroke-width: 0.8"/>
      </g>
     </g>
     <g id="text_8">
      <!-- $\mathdefault{175}$ -->
      <g transform="translate(224.637677 217.194098) scale(0.08 -0.08)">
       <use xlink:href="#CMR17-31" transform="scale(0.996264)"/>
       <use xlink:href="#CMR17-37" transform="translate(45.690477 0) scale(0.996264)"/>
       <use xlink:href="#CMR17-35" transform="translate(91.380954 0) scale(0.996264)"/>
      </g>
     </g>
    </g>
    <g id="text_9">
     <!-- $\tau$ -->
     <g transform="translate(137.675756 229.662342) scale(0.1 -0.1)">
      <defs>
       <path id="CMMI12-1c" d="M 1837 2408 
L 2899 2408 
C 2982 2408 3194 2408 3194 2612 
C 3194 2752 3072 2752 2957 2752 
L 1197 2752 
C 1050 2752 832 2752 538 2440 
C 371 2255 166 1917 166 1879 
C 166 1841 198 1828 237 1828 
C 282 1828 288 1847 320 1885 
C 653 2408 986 2408 1146 2408 
L 1677 2408 
L 1011 223 
C 979 127 979 114 979 95 
C 979 25 1024 -64 1152 -64 
C 1350 -64 1382 108 1402 203 
L 1837 2408 
z
" transform="scale(0.015625)"/>
      </defs>
      <use xlink:href="#CMMI12-1c" transform="scale(0.996264)"/>
     </g>
    </g>
   </g>
   <g id="matplotlib.axis_2">
    <g id="ytick_1">
     <g id="line2d_9">
      <defs>
       <path id="me118930ace" d="M 0 0 
L -3.5 0 
" style="stroke: #000000; stroke-width: 0.8"/>
      </defs>
      <g>
       <use xlink:href="#me118930ace" x="33.707196" y="193.679328" style="stroke: #000000; stroke-width: 0.8"/>
      </g>
     </g>
     <g id="text_10">
      <!-- $\mathdefault{−1.0}$ -->
      <g transform="translate(7.2 196.446729) scale(0.08 -0.08)">
       <defs>
        <path id="CMSY10-0" d="M 4218 1472 
C 4326 1472 4442 1472 4442 1600 
C 4442 1728 4326 1728 4218 1728 
L 755 1728 
C 646 1728 531 1728 531 1600 
C 531 1472 646 1472 755 1472 
L 4218 1472 
z
" transform="scale(0.015625)"/>
        <path id="CMMI12-3a" d="M 1178 307 
C 1178 492 1024 619 870 619 
C 685 619 557 466 557 313 
C 557 128 710 0 864 0 
C 1050 0 1178 153 1178 307 
z
" transform="scale(0.015625)"/>
       </defs>
       <use xlink:href="#CMSY10-0" transform="scale(0.996264)"/>
       <use xlink:href="#CMR17-31" transform="translate(77.487468 0) scale(0.996264)"/>
       <use xlink:href="#CMMI12-3a" transform="translate(123.177945 0) scale(0.996264)"/>
       <use xlink:href="#CMR17-30" transform="translate(150.275122 0) scale(0.996264)"/>
      </g>
     </g>
    </g>
    <g id="ytick_2">
     <g id="line2d_10">
      <g>
       <use xlink:href="#me118930ace" x="33.707196" y="158.420286" style="stroke: #000000; stroke-width: 0.8"/>
      </g>
     </g>
     <g id="text_11">
      <!-- $\mathdefault{−0.8}$ -->
      <g transform="translate(7.2 161.187686) scale(0.08 -0.08)">
       <defs>
        <path id="CMR17-38" d="M 1741 2264 
C 2144 2467 2554 2773 2554 3263 
C 2554 3841 1990 4179 1472 4179 
C 890 4179 378 3759 378 3180 
C 378 3021 416 2747 666 2505 
C 730 2442 998 2251 1171 2130 
C 883 1983 211 1634 211 934 
C 211 279 838 -128 1459 -128 
C 2144 -128 2720 362 2720 1010 
C 2720 1590 2330 1857 2074 2029 
L 1741 2264 
z
M 902 2822 
C 851 2854 595 3051 595 3351 
C 595 3739 998 4032 1459 4032 
C 1965 4032 2336 3676 2336 3262 
C 2336 2669 1670 2331 1638 2331 
C 1632 2331 1626 2331 1574 2370 
L 902 2822 
z
M 2080 1519 
C 2176 1449 2483 1240 2483 851 
C 2483 381 2010 25 1472 25 
C 890 25 448 438 448 940 
C 448 1443 838 1862 1280 2060 
L 2080 1519 
z
" transform="scale(0.015625)"/>
       </defs>
       <use xlink:href="#CMSY10-0" transform="scale(0.996264)"/>
       <use xlink:href="#CMR17-30" transform="translate(77.487468 0) scale(0.996264)"/>
       <use xlink:href="#CMMI12-3a" transform="translate(123.177945 0) scale(0.996264)"/>
       <use xlink:href="#CMR17-38" transform="translate(150.275122 0) scale(0.996264)"/>
      </g>
     </g>
    </g>
    <g id="ytick_3">
     <g id="line2d_11">
      <g>
       <use xlink:href="#me118930ace" x="33.707196" y="123.161243" style="stroke: #000000; stroke-width: 0.8"/>
      </g>
     </g>
     <g id="text_12">
      <!-- $\mathdefault{−0.6}$ -->
      <g transform="translate(7.2 125.928644) scale(0.08 -0.08)">
       <defs>
        <path id="CMR17-36" d="M 678 2176 
C 678 3690 1395 4032 1811 4032 
C 1946 4032 2272 4009 2400 3776 
C 2298 3776 2106 3776 2106 3553 
C 2106 3381 2246 3323 2336 3323 
C 2394 3323 2566 3348 2566 3560 
C 2566 3954 2246 4179 1805 4179 
C 1043 4179 243 3390 243 1984 
C 243 253 966 -128 1478 -128 
C 2099 -128 2688 427 2688 1283 
C 2688 2081 2170 2662 1517 2662 
C 1126 2662 838 2407 678 1960 
L 678 2176 
z
M 1478 25 
C 691 25 691 1200 691 1436 
C 691 1896 909 2560 1504 2560 
C 1613 2560 1926 2560 2138 2120 
C 2253 1870 2253 1609 2253 1289 
C 2253 944 2253 690 2118 434 
C 1978 171 1773 25 1478 25 
z
" transform="scale(0.015625)"/>
       </defs>
       <use xlink:href="#CMSY10-0" transform="scale(0.996264)"/>
       <use xlink:href="#CMR17-30" transform="translate(77.487468 0) scale(0.996264)"/>
       <use xlink:href="#CMMI12-3a" transform="translate(123.177945 0) scale(0.996264)"/>
       <use xlink:href="#CMR17-36" transform="translate(150.275122 0) scale(0.996264)"/>
      </g>
     </g>
    </g>
    <g id="ytick_4">
     <g id="line2d_12">
      <g>
       <use xlink:href="#me118930ace" x="33.707196" y="87.902201" style="stroke: #000000; stroke-width: 0.8"/>
      </g>
     </g>
     <g id="text_13">
      <!-- $\mathdefault{−0.4}$ -->
      <g transform="translate(7.2 90.669602) scale(0.08 -0.08)">
       <defs>
        <path id="CMR17-34" d="M 2150 4122 
C 2150 4256 2144 4256 2029 4256 
L 128 1254 
L 128 1088 
L 1779 1088 
L 1779 457 
C 1779 224 1766 160 1318 160 
L 1197 160 
L 1197 0 
C 1402 0 1747 0 1965 0 
C 2182 0 2528 0 2733 0 
L 2733 160 
L 2611 160 
C 2163 160 2150 224 2150 457 
L 2150 1088 
L 2803 1088 
L 2803 1254 
L 2150 1254 
L 2150 4122 
z
M 1798 3703 
L 1798 1254 
L 256 1254 
L 1798 3703 
z
" transform="scale(0.015625)"/>
       </defs>
       <use xlink:href="#CMSY10-0" transform="scale(0.996264)"/>
       <use xlink:href="#CMR17-30" transform="translate(77.487468 0) scale(0.996264)"/>
       <use xlink:href="#CMMI12-3a" transform="translate(123.177945 0) scale(0.996264)"/>
       <use xlink:href="#CMR17-34" transform="translate(150.275122 0) scale(0.996264)"/>
      </g>
     </g>
    </g>
    <g id="ytick_5">
     <g id="line2d_13">
      <g>
       <use xlink:href="#me118930ace" x="33.707196" y="52.643159" style="stroke: #000000; stroke-width: 0.8"/>
      </g>
     </g>
     <g id="text_14">
      <!-- $\mathdefault{−0.2}$ -->
      <g transform="translate(7.2 55.41056) scale(0.08 -0.08)">
       <use xlink:href="#CMSY10-0" transform="scale(0.996264)"/>
       <use xlink:href="#CMR17-30" transform="translate(77.487468 0) scale(0.996264)"/>
       <use xlink:href="#CMMI12-3a" transform="translate(123.177945 0) scale(0.996264)"/>
       <use xlink:href="#CMR17-32" transform="translate(150.275122 0) scale(0.996264)"/>
      </g>
     </g>
    </g>
    <g id="ytick_6">
     <g id="line2d_14">
      <g>
       <use xlink:href="#me118930ace" x="33.707196" y="17.384116" style="stroke: #000000; stroke-width: 0.8"/>
      </g>
     </g>
     <g id="text_15">
      <!-- $\mathdefault{0.0}$ -->
      <g transform="translate(13.786507 20.151517) scale(0.08 -0.08)">
       <use xlink:href="#CMR17-30" transform="scale(0.996264)"/>
       <use xlink:href="#CMMI12-3a" transform="translate(45.690477 0) scale(0.996264)"/>
       <use xlink:href="#CMR17-30" transform="translate(72.787654 0) scale(0.996264)"/>
      </g>
     </g>
    </g>
   </g>
   <g id="line2d_15">
    <path d="M 43.356847 193.679328 
L 52.749174 193.57606 
L 53.070829 193.347782 
L 53.392484 192.823747 
L 53.714139 191.786956 
L 54.035794 189.968234 
L 54.42178 186.372358 
L 54.872098 179.85765 
L 55.451077 168.004756 
L 56.544704 139.5046 
L 57.638331 113.537468 
L 58.410303 99.679573 
L 59.246606 89.097744 
L 59.889916 83.509211 
L 60.854881 76.99364 
L 61.819846 71.875048 
L 62.527487 69.04178 
L 63.106466 67.869583 
L 65.8727 62.240678 
L 66.773334 61.688096 
L 67.673968 61.910944 
L 68.510271 61.517285 
L 69.475236 61.464488 
L 70.054215 61.868455 
L 70.37587 62.042526 
L 70.761856 62.632607 
L 71.598159 63.979665 
L 72.88478 65.759225 
L 73.52809 66.151945 
L 74.300062 66.310231 
L 75.779675 66.336458 
L 86.072636 66.425872 
L 86.522953 66.681434 
L 86.844608 67.102229 
L 87.166263 67.887969 
L 87.552249 69.461697 
L 88.066897 72.603702 
L 88.774538 78.602653 
L 89.54651 87.125048 
L 91.669434 110.799826 
L 92.570068 118.355808 
L 93.34204 123.24542 
L 94.049681 126.302051 
L 94.757322 128.726803 
L 95.464963 130.543158 
L 97.008907 133.228962 
L 97.909541 134.158026 
L 98.617182 134.512008 
L 99.196162 135.108756 
L 99.839472 135.680311 
L 101.126092 136.389947 
L 101.769402 137.34631 
L 102.28405 138.744061 
L 102.92736 141.127483 
L 104.792959 148.449887 
L 105.371938 149.692626 
L 105.886586 150.278985 
L 106.401234 150.521704 
L 107.173206 150.589509 
L 116.822857 150.562886 
L 117.337506 150.401358 
L 117.659161 150.070697 
L 117.980816 149.401752 
L 118.302471 148.238531 
L 118.688457 145.908884 
L 119.138774 141.48996 
L 119.717753 133.293773 
L 120.747049 114.460218 
L 121.647683 99.435278 
L 122.483986 88.457042 
L 123.191627 81.85654 
L 123.834937 78.027878 
L 125.121557 71.295321 
L 126.987157 65.811609 
L 127.82346 64.968971 
L 129.689059 62.300804 
L 130.139376 62.171814 
L 130.589693 62.160488 
L 131.425996 61.704042 
L 131.747651 61.420796 
L 132.197968 61.378126 
L 132.583954 61.311347 
L 133.420257 60.802679 
L 133.741912 60.842711 
L 134.25656 61.198066 
L 135.543181 62.455113 
L 136.958463 64.779213 
L 137.537442 65.323663 
L 138.180752 65.587872 
L 139.017055 65.653173 
L 150.532305 65.825942 
L 150.918291 66.14825 
L 151.304277 66.771909 
L 151.690263 67.889266 
L 152.14058 70.058649 
L 152.655229 73.67663 
L 153.298539 79.937133 
L 154.520828 94.716266 
L 155.743117 108.2739 
L 156.708082 116.806788 
L 157.544385 121.838105 
L 158.380688 125.892771 
L 159.216991 128.859959 
L 160.43928 132.033716 
L 161.018259 132.991484 
L 162.433542 134.657359 
L 163.527169 135.56742 
L 164.492134 136.413439 
L 166.036078 137.673632 
L 166.422064 138.570147 
L 167.065374 140.750711 
L 167.901677 144.401104 
L 168.866642 148.287853 
L 169.509952 149.957693 
L 170.0246 150.705392 
L 170.539249 151.051419 
L 171.182559 151.175397 
L 173.562806 151.185664 
L 181.411189 151.087242 
L 181.797175 150.848658 
L 182.11883 150.396409 
L 182.440485 149.552996 
L 182.826471 147.753957 
L 183.276788 144.263333 
L 183.791436 138.056743 
L 184.434746 127.20724 
L 186.043021 98.534063 
L 186.879324 87.944042 
L 187.522634 81.987036 
L 188.744924 73.448945 
L 189.195241 71.330549 
L 189.645558 70.170952 
L 190.41753 68.353033 
L 191.253833 66.008984 
L 191.639819 65.524124 
L 192.090136 65.069654 
L 193.376756 63.074929 
L 193.827073 62.557396 
L 194.406052 61.877976 
L 195.306686 61.605448 
L 195.885665 61.643275 
L 196.400313 61.552756 
L 196.85063 61.459709 
L 197.42961 61.083299 
L 197.751265 60.963945 
L 198.137251 61.074724 
L 198.523237 61.430822 
L 199.616864 62.554088 
L 200.388836 63.175927 
L 200.903484 63.826878 
L 201.482463 64.49906 
L 202.190104 64.965984 
L 202.897745 65.114599 
L 204.50602 65.140944 
L 214.670319 65.234088 
L 215.184968 65.524322 
L 215.506623 65.960106 
L 215.892609 66.921092 
L 216.342926 68.75707 
L 216.793243 71.613161 
L 217.436553 77.520886 
L 218.594511 91.080425 
L 220.009793 107.349626 
L 220.974758 115.542841 
L 221.875392 121.335878 
L 222.776026 125.58025 
L 223.483667 128.192332 
L 224.384302 130.605793 
L 225.156274 132.34972 
L 225.735253 133.235998 
L 226.571556 134.05659 
L 228.1155 135.316461 
L 229.788106 136.680326 
L 230.109761 136.949557 
L 230.495747 137.626592 
L 231.139057 139.289351 
L 231.718036 141.555718 
L 233.390643 148.403463 
L 233.969622 149.698922 
L 234.48427 150.357148 
L 234.998918 150.640808 
L 235.706559 150.722359 
L 236.349869 150.725318 
L 236.349869 150.725318 
" clip-path="url(#p3e3863f1b4)" style="fill: none; stroke: #ff7f0e; stroke-width: 0.5; stroke-linecap: square"/>
   </g>
   <g id="line2d_16">
    <path d="M 43.356847 17.384116 
L 55.451077 17.293933 
L 56.802028 16.420664 
L 57.123683 16.545698 
L 57.574 17.097372 
L 58.152979 17.828906 
L 58.474634 17.882417 
L 58.731958 17.672186 
L 59.053613 17.05733 
L 59.568261 16.11045 
L 59.761254 16.106821 
L 59.954247 16.350131 
L 60.983543 18.164563 
L 61.240867 18.056769 
L 61.755515 17.439674 
L 62.07717 17.172339 
L 62.398825 17.227737 
L 62.977804 17.594942 
L 63.428121 17.911379 
L 64.135763 17.87302 
L 64.650411 17.706833 
L 65.422383 17.175676 
L 66.130024 16.806265 
L 66.773334 16.886522 
L 67.480975 17.083636 
L 67.931292 17.34438 
L 68.252947 17.253545 
L 68.767595 16.977879 
L 69.08925 17.090684 
L 69.668229 17.280318 
L 70.054215 17.207598 
L 70.568863 16.821816 
L 70.954849 16.584352 
L 71.212173 16.664365 
L 71.598159 17.146635 
L 72.177138 17.807494 
L 72.563125 17.998364 
L 72.88478 17.886544 
L 73.270766 17.496492 
L 73.978407 16.729995 
L 74.300062 16.696253 
L 74.621717 16.901047 
L 75.908337 18.083623 
L 76.229992 17.934262 
L 76.74464 17.34916 
L 77.323619 16.759324 
L 77.645274 16.686147 
L 77.966929 16.825411 
L 78.545908 17.403093 
L 79.189218 17.974488 
L 79.639535 18.084203 
L 80.089852 17.947323 
L 80.861824 17.407054 
L 81.762459 16.836188 
L 82.405769 16.684039 
L 82.984748 16.763816 
L 83.692389 17.09454 
L 85.364995 17.982254 
L 86.008305 18.041599 
L 86.587284 17.874877 
L 88.002566 17.387408 
L 88.710207 17.330951 
L 89.224855 17.590217 
L 89.675172 17.777632 
L 90.125489 17.75072 
L 91.154786 17.546884 
L 93.084716 17.847474 
L 94.242674 17.372971 
L 95.207639 17.143533 
L 96.108273 17.373676 
L 96.687252 17.490102 
L 97.459224 17.340573 
L 97.973872 17.315989 
L 98.681513 17.428102 
L 99.517817 17.593369 
L 99.968134 17.576785 
L 100.740106 17.129944 
L 101.64074 16.796449 
L 102.026726 16.530366 
L 102.412712 16.376675 
L 102.92736 16.490555 
L 104.921621 17.486391 
L 105.822255 17.910666 
L 106.465565 17.952639 
L 107.173206 17.753797 
L 109.617785 16.802963 
L 110.196764 16.935962 
L 110.904405 17.361148 
L 111.86937 17.941671 
L 112.255356 17.942602 
L 112.705673 17.69368 
L 113.927962 16.801395 
L 114.249617 16.898873 
L 114.699934 17.296794 
L 115.407575 17.920304 
L 115.72923 17.955491 
L 116.115216 17.738392 
L 117.337506 16.787708 
L 117.659161 16.898253 
L 118.109478 17.343951 
L 118.752788 17.980988 
L 119.074443 18.008807 
L 119.460429 17.749033 
L 120.361063 17.04478 
L 120.747049 17.090664 
L 121.583352 17.306897 
L 122.676979 17.029776 
L 123.448951 16.639034 
L 123.834937 16.731785 
L 124.156592 17.001704 
L 125.057226 18.013641 
L 125.443212 18.014129 
L 125.764867 17.825491 
L 126.665502 17.139779 
L 126.987157 17.167916 
L 127.566136 17.340933 
L 128.273777 17.410222 
L 129.367404 17.582353 
L 129.882052 17.188816 
L 130.461031 16.648982 
L 130.847017 16.87136 
L 131.68332 17.232438 
L 132.133637 17.415589 
L 132.841278 17.693552 
L 133.291595 17.6319 
L 133.741912 17.294338 
L 134.385222 16.806782 
L 135.092864 16.891737 
L 135.47885 17.100559 
L 136.379484 17.710018 
L 136.894132 17.734114 
L 137.40878 17.474767 
L 138.180752 17.099512 
L 138.631069 17.13679 
L 139.33871 17.478499 
L 139.917689 17.674731 
L 140.368006 17.614161 
L 141.976281 17.120317 
L 142.683922 17.408549 
L 143.455894 17.665737 
L 144.099205 17.628492 
L 146.801107 17.109309 
L 147.894734 17.33124 
L 149.631671 17.690482 
L 150.403643 17.622821 
L 152.011918 17.112293 
L 153.491532 16.845247 
L 154.199173 17.032828 
L 154.906814 17.100942 
L 156.515089 17.283216 
L 157.994702 17.327715 
L 158.380688 17.364338 
L 159.538646 17.8924 
L 160.696604 17.997532 
L 161.146921 17.989403 
L 162.433542 17.661354 
L 163.269845 17.406841 
L 163.5915 17.405752 
L 164.041817 17.728059 
L 164.749458 18.188963 
L 165.264106 18.240176 
L 166.872381 18.057281 
L 167.45136 17.687793 
L 168.480656 17.177409 
L 169.445621 16.726539 
L 170.153262 16.706098 
L 170.796573 16.899235 
L 171.825869 17.498022 
L 172.790834 17.980401 
L 173.434144 18.059507 
L 174.013123 17.906218 
L 174.720764 17.454239 
L 175.814391 16.73293 
L 176.200377 16.727212 
L 176.586363 16.932698 
L 177.229673 17.595468 
L 177.744321 18.018341 
L 178.065976 18.049735 
L 178.387631 17.863581 
L 179.030941 17.116451 
L 179.481259 16.740402 
L 179.802914 16.729472 
L 180.124569 16.947223 
L 181.346858 18.057927 
L 181.668513 17.942607 
L 182.183161 17.434203 
L 182.890802 16.772214 
L 183.212457 16.764405 
L 183.534112 17.029966 
L 184.499077 18.05795 
L 184.820732 18.127192 
L 185.142387 17.898752 
L 185.97869 17.150977 
L 186.364676 17.197921 
L 187.844289 17.839242 
L 188.230276 17.756088 
L 189.13091 17.373021 
L 189.452565 17.579278 
L 189.967213 17.994277 
L 190.224537 17.952918 
L 190.546192 17.634181 
L 190.996509 17.210128 
L 191.382495 17.176683 
L 192.733446 17.306134 
L 193.248094 17.138743 
L 193.63408 17.136432 
L 194.727707 17.767436 
L 195.113693 17.931743 
L 195.56401 17.848202 
L 196.014327 17.419314 
L 196.464644 17.064691 
L 196.914961 17.117517 
L 200.067181 17.650468 
L 201.160808 17.438105 
L 202.640421 17.54999 
L 204.441689 17.250952 
L 206.049965 17.53814 
L 208.108557 17.246527 
L 210.488804 17.557846 
L 211.968417 17.359033 
L 213.576692 17.200479 
L 214.863313 17.336873 
L 215.442292 17.511652 
L 216.535919 17.86119 
L 217.436553 17.943415 
L 218.015532 17.855419 
L 218.594511 17.661984 
L 219.17349 17.523588 
L 220.588772 17.363282 
L 221.618068 16.97761 
L 222.068385 16.997574 
L 222.647364 17.333255 
L 223.162012 17.558379 
L 224.448633 17.684384 
L 224.963281 17.772378 
L 226.700218 17.269987 
L 227.086204 17.227292 
L 227.600852 17.409889 
L 228.179831 17.577245 
L 228.694479 17.748169 
L 229.337789 18.008694 
L 231.139057 17.710445 
L 231.718036 17.640919 
L 233.583636 17.485542 
L 235.191911 17.201049 
L 236.349869 17.294733 
L 236.349869 17.294733 
" clip-path="url(#p3e3863f1b4)" style="fill: none; stroke: #2ca02c; stroke-width: 0.5; stroke-linecap: square"/>
   </g>
   <g id="line2d_17">
    <path d="M 43.356847 17.384116 
L 55.065091 17.479293 
L 55.772732 17.848612 
L 56.223049 17.759581 
L 56.673366 17.446953 
L 57.123683 16.823454 
L 57.509669 16.435373 
L 57.766993 16.468116 
L 58.024317 16.848417 
L 59.053613 18.720399 
L 59.246606 18.528199 
L 59.568261 17.604089 
L 60.082909 16.180582 
L 60.275902 16.125134 
L 60.533226 16.448651 
L 61.562522 18.137043 
L 61.755515 18.071197 
L 62.141501 17.553519 
L 62.591818 17.12235 
L 62.977804 17.003644 
L 63.299459 17.129831 
L 63.94277 17.486157 
L 65.293721 17.596431 
L 65.808369 17.730409 
L 66.130024 17.453713 
L 66.51601 17.187324 
L 66.837665 17.181854 
L 67.287982 17.284056 
L 67.80263 17.201879 
L 68.124285 17.492354 
L 68.44594 17.688253 
L 68.703264 17.527328 
L 69.217912 17.149445 
L 69.539567 17.211153 
L 69.925553 17.606513 
L 70.311539 17.904793 
L 70.568863 17.860527 
L 70.826187 17.580822 
L 71.598159 16.556563 
L 71.855483 16.548055 
L 72.177138 16.834034 
L 73.270766 18.060439 
L 73.592421 18.014667 
L 73.978407 17.652448 
L 74.81471 16.738058 
L 75.136365 16.696968 
L 75.45802 16.895948 
L 76.165661 17.750132 
L 76.615978 18.073117 
L 76.937633 18.029153 
L 77.323619 17.702453 
L 78.288584 16.734718 
L 78.67457 16.701201 
L 79.060556 16.90234 
L 80.733162 18.07462 
L 81.24781 18.035698 
L 81.891121 17.749662 
L 83.821051 16.715511 
L 84.40003 16.703003 
L 85.04334 16.923958 
L 86.008305 17.527234 
L 86.844608 18.002898 
L 87.230594 18.013766 
L 89.160524 17.43161 
L 89.54651 17.430207 
L 90.704469 17.144192 
L 92.05542 17.243181 
L 92.763061 17.418847 
L 93.084716 17.422092 
L 93.470702 17.381618 
L 93.98535 17.381458 
L 96.108273 17.299021 
L 98.231196 17.460031 
L 98.745844 17.343124 
L 99.453486 17.515041 
L 101.126092 18.12627 
L 101.512078 17.998901 
L 102.412712 17.475749 
L 103.313346 16.968521 
L 103.827994 16.779608 
L 104.535635 16.753631 
L 105.371938 16.986706 
L 106.401234 17.48618 
L 107.43053 17.909634 
L 108.138172 17.953618 
L 108.845813 17.755049 
L 109.93944 17.15102 
L 110.711412 16.823748 
L 111.22606 16.842065 
L 111.740708 17.113762 
L 113.027328 17.966706 
L 113.413314 17.848895 
L 113.927962 17.385105 
L 114.571272 16.845016 
L 114.892927 16.814048 
L 115.278913 17.03502 
L 116.436871 17.966123 
L 116.758526 17.886309 
L 117.208844 17.498628 
L 117.980816 16.790789 
L 118.302471 16.772023 
L 118.688457 17.047366 
L 119.717753 18.011762 
L 120.16807 17.79242 
L 120.618387 17.338305 
L 120.940042 17.074284 
L 121.197366 17.158297 
L 121.647683 17.413177 
L 122.290993 17.410856 
L 122.869972 17.685293 
L 123.127296 17.618518 
L 124.542578 16.685613 
L 124.864233 16.96821 
L 125.764867 17.873212 
L 126.086523 17.816719 
L 127.18015 17.427136 
L 127.952122 17.377026 
L 128.531101 17.065087 
L 128.852756 17.22741 
L 129.882052 17.957228 
L 130.139376 17.856671 
L 130.525362 17.294246 
L 130.847017 17.021232 
L 131.168672 17.121541 
L 131.618989 17.217098 
L 132.712616 17.305311 
L 133.999236 17.737123 
L 134.385222 17.6112 
L 135.092864 17.248464 
L 135.543181 16.876076 
L 135.864836 16.86883 
L 136.379484 17.182177 
L 137.215787 17.739016 
L 137.666104 17.70061 
L 138.373745 17.35213 
L 139.017055 17.099534 
L 139.467372 17.13539 
L 140.175013 17.475408 
L 140.753992 17.674042 
L 141.204309 17.618514 
L 142.941246 17.124675 
L 143.77755 17.43075 
L 144.678184 17.669225 
L 145.450156 17.625755 
L 147.058431 17.215342 
L 148.087727 17.08957 
L 148.988361 17.195463 
L 151.368608 17.676163 
L 153.041215 17.052281 
L 153.555863 16.846958 
L 154.263504 16.958281 
L 155.743117 17.309818 
L 156.836744 17.198764 
L 157.351392 17.031319 
L 157.737378 16.978039 
L 159.088329 17.075124 
L 159.538646 17.002252 
L 160.181956 17.42538 
L 160.889597 17.951774 
L 161.66157 18.088379 
L 161.918894 18.041653 
L 163.527169 17.088012 
L 165.392768 16.94868 
L 168.09467 18.1158 
L 168.995304 17.901782 
L 169.895938 17.438025 
L 171.053897 16.804006 
L 171.697207 16.7051 
L 172.340517 16.8423 
L 173.17682 17.2927 
L 174.46344 18.011874 
L 174.978088 18.050414 
L 175.428405 17.875848 
L 176.071715 17.334754 
L 176.779356 16.764003 
L 177.165342 16.719043 
L 177.551328 16.943419 
L 178.837948 18.063162 
L 179.159603 17.927697 
L 179.609921 17.443331 
L 180.253231 16.774486 
L 180.574886 16.711934 
L 180.896541 16.883824 
L 181.539851 17.60937 
L 181.990168 17.960976 
L 182.376154 17.987969 
L 182.76214 17.748248 
L 183.920098 16.733617 
L 184.241753 16.868353 
L 184.627739 17.354387 
L 185.142387 17.999896 
L 185.399711 17.97158 
L 185.914359 17.648862 
L 186.750662 16.917233 
L 187.072317 16.96643 
L 187.844289 17.416526 
L 188.294607 17.688661 
L 188.616262 17.616631 
L 189.645558 16.960811 
L 189.902882 17.202667 
L 190.41753 17.86369 
L 190.674854 17.838416 
L 191.253833 17.31083 
L 191.575488 17.18512 
L 193.441087 17.2895 
L 194.084397 17.066234 
L 194.663376 17.196637 
L 195.306686 17.604509 
L 195.821334 17.893613 
L 196.078658 17.737847 
L 196.721968 17.204021 
L 197.558272 17.389825 
L 197.944258 17.416383 
L 198.780561 17.25915 
L 199.35954 17.305107 
L 200.710491 17.472709 
L 201.611125 17.293289 
L 202.254435 17.377176 
L 203.2194 17.569572 
L 203.86271 17.442775 
L 204.892006 17.201587 
L 205.535316 17.319504 
L 206.628944 17.566688 
L 207.336585 17.458291 
L 208.687536 17.202276 
L 209.716832 17.301161 
L 211.839755 17.566659 
L 213.126375 17.450012 
L 215.828278 17.148038 
L 217.24356 17.304676 
L 217.758208 17.270419 
L 218.401518 17.287494 
L 219.17349 17.495278 
L 219.945462 17.76031 
L 220.524441 17.878458 
L 221.296413 17.759838 
L 222.518702 17.36589 
L 222.904688 17.20286 
L 223.355005 17.016979 
L 223.998316 17.257087 
L 224.705957 17.3498 
L 225.54226 17.365378 
L 226.121239 17.438483 
L 227.793845 17.100859 
L 228.308493 16.97066 
L 229.337789 17.115623 
L 229.852437 17.335315 
L 230.431416 17.606027 
L 231.267719 17.706272 
L 232.168353 17.814573 
L 233.454974 17.598351 
L 236.349869 17.224473 
L 236.349869 17.224473 
" clip-path="url(#p3e3863f1b4)" style="fill: none; stroke: #d62728; stroke-width: 0.5; stroke-linecap: square"/>
   </g>
   <g id="patch_3">
    <path d="M 33.707196 202.559296 
L 33.707196 7.2 
" style="fill: none; stroke: #000000; stroke-width: 0.8; stroke-linejoin: miter; stroke-linecap: square"/>
   </g>
   <g id="patch_4">
    <path d="M 245.99952 202.559296 
L 245.99952 7.2 
" style="fill: none; stroke: #000000; stroke-width: 0.8; stroke-linejoin: miter; stroke-linecap: square"/>
   </g>
   <g id="patch_5">
    <path d="M 33.707196 202.559296 
L 245.99952 202.559296 
" style="fill: none; stroke: #000000; stroke-width: 0.8; stroke-linejoin: miter; stroke-linecap: square"/>
   </g>
   <g id="patch_6">
    <path d="M 33.707196 7.2 
L 245.99952 7.2 
" style="fill: none; stroke: #000000; stroke-width: 0.8; stroke-linejoin: miter; stroke-linecap: square"/>
   </g>
   <g id="legend_1">
    <g id="patch_7">
     <path d="M 193.792605 198.059296 
L 239.69952 198.059296 
Q 241.49952 198.059296 241.49952 196.259296 
L 241.49952 156.760168 
Q 241.49952 154.960168 239.69952 154.960168 
L 193.792605 154.960168 
Q 191.992605 154.960168 191.992605 156.760168 
L 191.992605 196.259296 
Q 191.992605 198.059296 193.792605 198.059296 
z
" style="fill: #ffffff; opacity: 0.8; stroke: #cccccc; stroke-width: 0.24; stroke-linejoin: miter"/>
    </g>
    <g id="line2d_18">
     <path d="M 195.592605 162.13495 
L 204.592605 162.13495 
L 213.592605 162.13495 
" style="fill: none; stroke: #ff7f0e; stroke-width: 0.5; stroke-linecap: square"/>
    </g>
    <g id="text_16">
     <!-- $\langle \sigma_z\rangle$ -->
     <g transform="translate(220.792605 165.28495) scale(0.09 -0.09)">
      <defs>
       <path id="CMSY10-68" d="M 2099 4557 
C 2131 4627 2131 4640 2131 4672 
C 2131 4742 2074 4800 2003 4800 
C 1946 4800 1901 4768 1856 4653 
L 736 1715 
C 723 1677 704 1638 704 1600 
C 704 1581 704 1568 736 1491 
L 1856 -1446 
C 1882 -1517 1914 -1600 2003 -1600 
C 2074 -1600 2131 -1542 2131 -1472 
C 2131 -1453 2131 -1440 2099 -1370 
L 966 1600 
L 2099 4557 
z
" transform="scale(0.015625)"/>
       <path id="CMMI12-1b" d="M 3251 2408 
C 3334 2408 3546 2408 3546 2612 
C 3546 2752 3424 2752 3309 2752 
L 1894 2752 
C 934 2752 243 1686 243 932 
C 243 390 595 -64 1171 -64 
C 1926 -64 2752 747 2752 1705 
C 2752 1954 2694 2196 2541 2408 
L 3251 2408 
z
M 1178 64 
C 851 64 614 313 614 754 
C 614 1137 845 2408 1786 2408 
C 2061 2408 2368 2274 2368 1781 
C 2368 1558 2266 1021 2042 652 
C 1811 275 1466 64 1178 64 
z
" transform="scale(0.015625)"/>
       <path id="CMMI12-7a" d="M 813 486 
C 1088 803 1312 1004 1632 1296 
C 2016 1632 2182 1793 2272 1891 
C 2720 2338 2944 2713 2944 2764 
C 2944 2816 2893 2816 2880 2816 
C 2835 2816 2822 2793 2790 2750 
C 2630 2494 2477 2367 2310 2367 
C 2176 2367 2106 2421 1984 2565 
C 1850 2715 1741 2816 1555 2816 
C 1088 2816 806 2257 806 2128 
C 806 2108 813 2068 870 2068 
C 922 2068 928 2091 947 2133 
C 1056 2372 1363 2414 1485 2414 
C 1619 2414 1747 2376 1882 2327 
C 2125 2240 2227 2240 2291 2240 
C 2336 2240 2362 2240 2394 2246 
C 2182 1994 1837 1683 1549 1418 
L 902 816 
C 512 415 275 33 275 -12 
C 275 -51 307 -64 346 -64 
C 384 -64 390 -57 435 14 
C 538 163 742 384 979 384 
C 1114 384 1178 342 1306 193 
C 1427 61 1536 -64 1741 -64 
C 2368 -64 2726 732 2726 876 
C 2726 903 2720 942 2656 942 
C 2605 942 2598 917 2579 855 
C 2438 488 2061 338 1811 338 
C 1677 338 1549 376 1414 425 
C 1158 512 1088 512 1005 512 
C 941 512 870 512 813 486 
z
" transform="scale(0.015625)"/>
       <path id="CMSY10-69" d="M 1747 1491 
C 1779 1568 1779 1581 1779 1600 
C 1779 1619 1779 1632 1747 1709 
L 627 4653 
C 589 4762 550 4800 480 4800 
C 410 4800 352 4742 352 4672 
C 352 4653 352 4640 384 4570 
L 1517 1600 
L 384 -1357 
C 352 -1427 352 -1440 352 -1472 
C 352 -1542 410 -1600 480 -1600 
C 563 -1600 589 -1536 614 -1472 
L 1747 1491 
z
" transform="scale(0.015625)"/>
      </defs>
      <use xlink:href="#CMSY10-68" transform="scale(0.996264)"/>
      <use xlink:href="#CMMI12-1b" transform="translate(38.743734 0) scale(0.996264)"/>
      <use xlink:href="#CMMI12-7a" transform="translate(94.189195 -14.943915) scale(0.697382)"/>
      <use xlink:href="#CMSY10-69" transform="translate(129.51575 0) scale(0.996264)"/>
     </g>
    </g>
    <g id="line2d_19">
     <path d="M 195.592605 175.601326 
L 204.592605 175.601326 
L 213.592605 175.601326 
" style="fill: none; stroke: #2ca02c; stroke-width: 0.5; stroke-linecap: square"/>
    </g>
    <g id="text_17">
     <!-- $\langle \sigma_x\rangle$ -->
     <g transform="translate(220.792605 178.751326) scale(0.09 -0.09)">
      <defs>
       <path id="CMMI12-78" d="M 3034 2606 
C 2829 2567 2752 2414 2752 2293 
C 2752 2139 2874 2088 2963 2088 
C 3155 2088 3290 2254 3290 2427 
C 3290 2695 2982 2816 2714 2816 
C 2323 2816 2106 2433 2048 2312 
C 1901 2816 1504 2816 1389 2816 
C 736 2816 390 1980 390 1839 
C 390 1814 416 1782 461 1782 
C 512 1782 525 1820 538 1846 
C 755 2555 1184 2689 1370 2689 
C 1658 2689 1715 2420 1715 2267 
C 1715 2127 1677 1980 1600 1673 
L 1382 798 
C 1286 415 1101 64 762 64 
C 730 64 570 64 435 147 
C 666 192 717 383 717 460 
C 717 588 621 664 499 664 
C 346 664 179 530 179 326 
C 179 57 480 -64 755 -64 
C 1062 -64 1280 179 1414 441 
C 1517 64 1837 -64 2074 -64 
C 2726 -64 3072 773 3072 913 
C 3072 945 3046 971 3008 971 
C 2950 971 2944 939 2925 888 
C 2752 326 2381 64 2093 64 
C 1869 64 1747 230 1747 492 
C 1747 632 1773 734 1875 1156 
L 2099 2024 
C 2195 2408 2413 2689 2707 2689 
C 2720 2689 2899 2689 3034 2606 
z
" transform="scale(0.015625)"/>
      </defs>
      <use xlink:href="#CMSY10-68" transform="scale(0.996264)"/>
      <use xlink:href="#CMMI12-1b" transform="translate(38.743734 0) scale(0.996264)"/>
      <use xlink:href="#CMMI12-78" transform="translate(94.189195 -14.943915) scale(0.697382)"/>
      <use xlink:href="#CMSY10-69" transform="translate(133.490986 0) scale(0.996264)"/>
     </g>
    </g>
    <g id="line2d_20">
     <path d="M 195.592605 189.067702 
L 204.592605 189.067702 
L 213.592605 189.067702 
" style="fill: none; stroke: #d62728; stroke-width: 0.5; stroke-linecap: square"/>
    </g>
    <g id="text_18">
     <!-- $\langle \sigma_y\rangle$ -->
     <g transform="translate(220.792605 192.217702) scale(0.09 -0.09)">
      <defs>
       <path id="CMMI12-79" d="M 1683 -700 
C 1510 -939 1261 -1152 947 -1152 
C 870 -1152 563 -1152 467 -889 
C 486 -895 518 -895 531 -895 
C 723 -895 851 -729 851 -582 
C 851 -435 730 -384 634 -384 
C 531 -384 307 -458 307 -759 
C 307 -1071 582 -1286 947 -1286 
C 1587 -1286 2234 -700 2413 6 
L 3040 2485 
C 3046 2517 3059 2556 3059 2594 
C 3059 2689 2982 2753 2886 2753 
C 2829 2753 2694 2727 2643 2535 
L 2170 658 
C 2138 543 2138 530 2086 460 
C 1958 281 1747 64 1440 64 
C 1082 64 1050 415 1050 588 
C 1050 952 1222 1443 1395 1903 
C 1466 2088 1504 2178 1504 2305 
C 1504 2574 1312 2816 998 2816 
C 410 2816 173 1890 173 1839 
C 173 1814 198 1782 243 1782 
C 301 1782 307 1807 333 1897 
C 486 2433 730 2689 979 2689 
C 1037 2689 1146 2689 1146 2478 
C 1146 2312 1075 2127 979 1884 
C 666 1047 666 837 666 683 
C 666 77 1101 -64 1421 -64 
C 1606 -64 1837 -6 2061 230 
L 2067 224 
C 1971 -147 1907 -392 1683 -700 
z
" transform="scale(0.015625)"/>
      </defs>
      <use xlink:href="#CMSY10-68" transform="scale(0.996264)"/>
      <use xlink:href="#CMMI12-1b" transform="translate(38.743734 0) scale(0.996264)"/>
      <use xlink:href="#CMMI12-79" transform="translate(94.189195 -14.943915) scale(0.697382)"/>
      <use xlink:href="#CMSY10-69" transform="translate(130.484301 0) scale(0.996264)"/>
     </g>
    </g>
   </g>
  </g>
 </g>
 <defs>
  <clipPath id="p3e3863f1b4">
   <rect x="33.707196" y="7.2" width="212.292324" height="195.359296"/>
  </clipPath>
 </defs>
</svg>
