<?xml version="1.0" encoding="utf-8" standalone="no"?>
<!DOCTYPE svg PUBLIC "-//W3C//DTD SVG 1.1//EN"
  "http://www.w3.org/Graphics/SVG/1.1/DTD/svg11.dtd">
<svg xmlns:xlink="http://www.w3.org/1999/xlink" width="253.19952pt" height="238.79952pt" viewBox="0 0 253.19952 238.79952" xmlns="http://www.w3.org/2000/svg" version="1.1">
 <metadata>
  <rdf:RDF xmlns:dc="http://purl.org/dc/elements/1.1/" xmlns:cc="http://creativecommons.org/ns#" xmlns:rdf="http://www.w3.org/1999/02/22-rdf-syntax-ns#">
   <cc:Work>
    <dc:type rdf:resource="http://purl.org/dc/dcmitype/StillImage"/>
    <dc:date>1980-01-01T00:00:00+00:00</dc:date>
    <dc:format>image/svg+xml</dc:format>
    <dc:creator>
     <cc:Agent>
      <dc:title>Matplotlib v3.6.2, https://matplotlib.org/</dc:title>
     </cc:Agent>
    </dc:creator>
   </cc:Work>
  </rdf:RDF>
 </metadata>
 <defs>
  <style type="text/css">*{stroke-linejoin: round; stroke-linecap: butt}</style>
 </defs>
 <g id="figure_1">
  <g id="patch_1">
   <path d="M 0 238.79952 
L 253.19952 238.79952 
L 253.19952 0 
L 0 0 
z
" style="fill: #ffffff"/>
  </g>
  <g id="axes_1">
   <g id="patch_2">
    <path d="M 33.707196 202.559296 
L 245.99952 202.559296 
L 245.99952 7.2 
L 33.707196 7.2 
z
" style="fill: #ffffff"/>
   </g>
   <g id="matplotlib.axis_1">
    <g id="xtick_1">
     <g id="line2d_1">
      <defs>
       <path id="m284227c00d" d="M 0 0 
L 0 3.5 
" style="stroke: #000000; stroke-width: 0.8"/>
      </defs>
      <g>
       <use xlink:href="#m284227c00d" x="43.356847" y="202.559296" style="stroke: #000000; stroke-width: 0.8"/>
      </g>
     </g>
     <g id="text_1">
      <!-- $\mathdefault{0}$ -->
      <g transform="translate(41.239756 217.194098) scale(0.08 -0.08)">
       <defs>
        <path id="CMR17-30" d="M 2688 2025 
C 2688 2416 2682 3080 2413 3591 
C 2176 4039 1798 4198 1466 4198 
C 1158 4198 768 4058 525 3597 
C 269 3118 243 2524 243 2025 
C 243 1661 250 1106 448 619 
C 723 -39 1216 -128 1466 -128 
C 1760 -128 2208 -7 2470 600 
C 2662 1042 2688 1559 2688 2025 
z
M 1466 -26 
C 1056 -26 813 325 723 812 
C 653 1188 653 1738 653 2096 
C 653 2588 653 2997 736 3387 
C 858 3929 1216 4096 1466 4096 
C 1728 4096 2067 3923 2189 3400 
C 2272 3036 2278 2607 2278 2096 
C 2278 1680 2278 1169 2202 792 
C 2067 95 1690 -26 1466 -26 
z
" transform="scale(0.015625)"/>
       </defs>
       <use xlink:href="#CMR17-30" transform="scale(0.996264)"/>
      </g>
     </g>
    </g>
    <g id="xtick_2">
     <g id="line2d_2">
      <g>
       <use xlink:href="#m284227c00d" x="70.161434" y="202.559296" style="stroke: #000000; stroke-width: 0.8"/>
      </g>
     </g>
     <g id="text_2">
      <!-- $\mathdefault{25}$ -->
      <g transform="translate(65.927251 217.194098) scale(0.08 -0.08)">
       <defs>
        <path id="CMR17-32" d="M 2669 989 
L 2554 989 
C 2490 536 2438 459 2413 420 
C 2381 369 1920 369 1830 369 
L 602 369 
C 832 619 1280 1072 1824 1597 
C 2214 1967 2669 2402 2669 3035 
C 2669 3790 2067 4224 1395 4224 
C 691 4224 262 3604 262 3030 
C 262 2780 448 2748 525 2748 
C 589 2748 781 2787 781 3010 
C 781 3207 614 3264 525 3264 
C 486 3264 448 3258 422 3245 
C 544 3790 915 4058 1306 4058 
C 1862 4058 2227 3617 2227 3035 
C 2227 2479 1901 2000 1536 1584 
L 262 146 
L 262 0 
L 2515 0 
L 2669 989 
z
" transform="scale(0.015625)"/>
        <path id="CMR17-35" d="M 730 3692 
C 794 3666 1056 3584 1325 3584 
C 1920 3584 2246 3911 2432 4100 
C 2432 4157 2432 4192 2394 4192 
C 2387 4192 2374 4192 2323 4163 
C 2099 4058 1837 3973 1517 3973 
C 1325 3973 1037 3999 723 4139 
C 653 4171 640 4171 634 4171 
C 602 4171 595 4164 595 4037 
L 595 2203 
C 595 2089 595 2057 659 2057 
C 691 2057 704 2070 736 2114 
C 941 2401 1222 2522 1542 2522 
C 1766 2522 2246 2382 2246 1289 
C 2246 1085 2246 715 2054 421 
C 1894 159 1645 25 1370 25 
C 947 25 518 320 403 814 
C 429 807 480 795 506 795 
C 589 795 749 840 749 1038 
C 749 1210 627 1280 506 1280 
C 358 1280 262 1190 262 1011 
C 262 454 704 -128 1382 -128 
C 2042 -128 2669 440 2669 1264 
C 2669 2030 2170 2624 1549 2624 
C 1222 2624 947 2503 730 2274 
L 730 3692 
z
" transform="scale(0.015625)"/>
       </defs>
       <use xlink:href="#CMR17-32" transform="scale(0.996264)"/>
       <use xlink:href="#CMR17-35" transform="translate(45.690477 0) scale(0.996264)"/>
      </g>
     </g>
    </g>
    <g id="xtick_3">
     <g id="line2d_3">
      <g>
       <use xlink:href="#m284227c00d" x="96.96602" y="202.559296" style="stroke: #000000; stroke-width: 0.8"/>
      </g>
     </g>
     <g id="text_3">
      <!-- $\mathdefault{50}$ -->
      <g transform="translate(92.731837 217.194098) scale(0.08 -0.08)">
       <use xlink:href="#CMR17-35" transform="scale(0.996264)"/>
       <use xlink:href="#CMR17-30" transform="translate(45.690477 0) scale(0.996264)"/>
      </g>
     </g>
    </g>
    <g id="xtick_4">
     <g id="line2d_4">
      <g>
       <use xlink:href="#m284227c00d" x="123.770606" y="202.559296" style="stroke: #000000; stroke-width: 0.8"/>
      </g>
     </g>
     <g id="text_4">
      <!-- $\mathdefault{75}$ -->
      <g transform="translate(119.536423 217.194098) scale(0.08 -0.08)">
       <defs>
        <path id="CMR17-37" d="M 2886 3941 
L 2886 4081 
L 1382 4081 
C 634 4081 621 4165 595 4288 
L 480 4288 
L 294 3094 
L 410 3094 
C 429 3215 474 3540 550 3661 
C 589 3712 1062 3712 1171 3712 
L 2579 3712 
L 1869 2661 
C 1395 1954 1069 999 1069 165 
C 1069 89 1069 -128 1299 -128 
C 1530 -128 1530 89 1530 171 
L 1530 465 
C 1530 1508 1709 2196 2003 2636 
L 2886 3941 
z
" transform="scale(0.015625)"/>
       </defs>
       <use xlink:href="#CMR17-37" transform="scale(0.996264)"/>
       <use xlink:href="#CMR17-35" transform="translate(45.690477 0) scale(0.996264)"/>
      </g>
     </g>
    </g>
    <g id="xtick_5">
     <g id="line2d_5">
      <g>
       <use xlink:href="#m284227c00d" x="150.575193" y="202.559296" style="stroke: #000000; stroke-width: 0.8"/>
      </g>
     </g>
     <g id="text_5">
      <!-- $\mathdefault{100}$ -->
      <g transform="translate(144.223918 217.194098) scale(0.08 -0.08)">
       <defs>
        <path id="CMR17-31" d="M 1702 4058 
C 1702 4192 1696 4192 1606 4192 
C 1357 3916 979 3827 621 3827 
C 602 3827 570 3827 563 3808 
C 557 3795 557 3782 557 3648 
C 755 3648 1088 3686 1344 3839 
L 1344 461 
C 1344 236 1331 160 781 160 
L 589 160 
L 589 0 
C 896 0 1216 0 1523 0 
C 1830 0 2150 0 2458 0 
L 2458 160 
L 2266 160 
C 1715 160 1702 230 1702 458 
L 1702 4058 
z
" transform="scale(0.015625)"/>
       </defs>
       <use xlink:href="#CMR17-31" transform="scale(0.996264)"/>
       <use xlink:href="#CMR17-30" transform="translate(45.690477 0) scale(0.996264)"/>
       <use xlink:href="#CMR17-30" transform="translate(91.380954 0) scale(0.996264)"/>
      </g>
     </g>
    </g>
    <g id="xtick_6">
     <g id="line2d_6">
      <g>
       <use xlink:href="#m284227c00d" x="177.379779" y="202.559296" style="stroke: #000000; stroke-width: 0.8"/>
      </g>
     </g>
     <g id="text_6">
      <!-- $\mathdefault{125}$ -->
      <g transform="translate(171.028505 217.194098) scale(0.08 -0.08)">
       <use xlink:href="#CMR17-31" transform="scale(0.996264)"/>
       <use xlink:href="#CMR17-32" transform="translate(45.690477 0) scale(0.996264)"/>
       <use xlink:href="#CMR17-35" transform="translate(91.380954 0) scale(0.996264)"/>
      </g>
     </g>
    </g>
    <g id="xtick_7">
     <g id="line2d_7">
      <g>
       <use xlink:href="#m284227c00d" x="204.184365" y="202.559296" style="stroke: #000000; stroke-width: 0.8"/>
      </g>
     </g>
     <g id="text_7">
      <!-- $\mathdefault{150}$ -->
      <g transform="translate(197.833091 217.194098) scale(0.08 -0.08)">
       <use xlink:href="#CMR17-31" transform="scale(0.996264)"/>
       <use xlink:href="#CMR17-35" transform="translate(45.690477 0) scale(0.996264)"/>
       <use xlink:href="#CMR17-30" transform="translate(91.380954 0) scale(0.996264)"/>
      </g>
     </g>
    </g>
    <g id="xtick_8">
     <g id="line2d_8">
      <g>
       <use xlink:href="#m284227c00d" x="230.988952" y="202.559296" style="stroke: #000000; stroke-width: 0.8"/>
      </g>
     </g>
     <g id="text_8">
      <!-- $\mathdefault{175}$ -->
      <g transform="translate(224.637677 217.194098) scale(0.08 -0.08)">
       <use xlink:href="#CMR17-31" transform="scale(0.996264)"/>
       <use xlink:href="#CMR17-37" transform="translate(45.690477 0) scale(0.996264)"/>
       <use xlink:href="#CMR17-35" transform="translate(91.380954 0) scale(0.996264)"/>
      </g>
     </g>
    </g>
    <g id="text_9">
     <!-- $\tau$ -->
     <g transform="translate(137.675756 229.662342) scale(0.1 -0.1)">
      <defs>
       <path id="CMMI12-1c" d="M 1837 2408 
L 2899 2408 
C 2982 2408 3194 2408 3194 2612 
C 3194 2752 3072 2752 2957 2752 
L 1197 2752 
C 1050 2752 832 2752 538 2440 
C 371 2255 166 1917 166 1879 
C 166 1841 198 1828 237 1828 
C 282 1828 288 1847 320 1885 
C 653 2408 986 2408 1146 2408 
L 1677 2408 
L 1011 223 
C 979 127 979 114 979 95 
C 979 25 1024 -64 1152 -64 
C 1350 -64 1382 108 1402 203 
L 1837 2408 
z
" transform="scale(0.015625)"/>
      </defs>
      <use xlink:href="#CMMI12-1c" transform="scale(0.996264)"/>
     </g>
    </g>
   </g>
   <g id="matplotlib.axis_2">
    <g id="ytick_1">
     <g id="line2d_9">
      <defs>
       <path id="md348a2f8ca" d="M 0 0 
L -3.5 0 
" style="stroke: #000000; stroke-width: 0.8"/>
      </defs>
      <g>
       <use xlink:href="#md348a2f8ca" x="33.707196" y="193.679328" style="stroke: #000000; stroke-width: 0.8"/>
      </g>
     </g>
     <g id="text_10">
      <!-- $\mathdefault{−1.0}$ -->
      <g transform="translate(7.2 196.446729) scale(0.08 -0.08)">
       <defs>
        <path id="CMSY10-0" d="M 4218 1472 
C 4326 1472 4442 1472 4442 1600 
C 4442 1728 4326 1728 4218 1728 
L 755 1728 
C 646 1728 531 1728 531 1600 
C 531 1472 646 1472 755 1472 
L 4218 1472 
z
" transform="scale(0.015625)"/>
        <path id="CMMI12-3a" d="M 1178 307 
C 1178 492 1024 619 870 619 
C 685 619 557 466 557 313 
C 557 128 710 0 864 0 
C 1050 0 1178 153 1178 307 
z
" transform="scale(0.015625)"/>
       </defs>
       <use xlink:href="#CMSY10-0" transform="scale(0.996264)"/>
       <use xlink:href="#CMR17-31" transform="translate(77.487468 0) scale(0.996264)"/>
       <use xlink:href="#CMMI12-3a" transform="translate(123.177945 0) scale(0.996264)"/>
       <use xlink:href="#CMR17-30" transform="translate(150.275122 0) scale(0.996264)"/>
      </g>
     </g>
    </g>
    <g id="ytick_2">
     <g id="line2d_10">
      <g>
       <use xlink:href="#md348a2f8ca" x="33.707196" y="158.405625" style="stroke: #000000; stroke-width: 0.8"/>
      </g>
     </g>
     <g id="text_11">
      <!-- $\mathdefault{−0.8}$ -->
      <g transform="translate(7.2 161.173026) scale(0.08 -0.08)">
       <defs>
        <path id="CMR17-38" d="M 1741 2264 
C 2144 2467 2554 2773 2554 3263 
C 2554 3841 1990 4179 1472 4179 
C 890 4179 378 3759 378 3180 
C 378 3021 416 2747 666 2505 
C 730 2442 998 2251 1171 2130 
C 883 1983 211 1634 211 934 
C 211 279 838 -128 1459 -128 
C 2144 -128 2720 362 2720 1010 
C 2720 1590 2330 1857 2074 2029 
L 1741 2264 
z
M 902 2822 
C 851 2854 595 3051 595 3351 
C 595 3739 998 4032 1459 4032 
C 1965 4032 2336 3676 2336 3262 
C 2336 2669 1670 2331 1638 2331 
C 1632 2331 1626 2331 1574 2370 
L 902 2822 
z
M 2080 1519 
C 2176 1449 2483 1240 2483 851 
C 2483 381 2010 25 1472 25 
C 890 25 448 438 448 940 
C 448 1443 838 1862 1280 2060 
L 2080 1519 
z
" transform="scale(0.015625)"/>
       </defs>
       <use xlink:href="#CMSY10-0" transform="scale(0.996264)"/>
       <use xlink:href="#CMR17-30" transform="translate(77.487468 0) scale(0.996264)"/>
       <use xlink:href="#CMMI12-3a" transform="translate(123.177945 0) scale(0.996264)"/>
       <use xlink:href="#CMR17-38" transform="translate(150.275122 0) scale(0.996264)"/>
      </g>
     </g>
    </g>
    <g id="ytick_3">
     <g id="line2d_11">
      <g>
       <use xlink:href="#md348a2f8ca" x="33.707196" y="123.131922" style="stroke: #000000; stroke-width: 0.8"/>
      </g>
     </g>
     <g id="text_12">
      <!-- $\mathdefault{−0.6}$ -->
      <g transform="translate(7.2 125.899323) scale(0.08 -0.08)">
       <defs>
        <path id="CMR17-36" d="M 678 2176 
C 678 3690 1395 4032 1811 4032 
C 1946 4032 2272 4009 2400 3776 
C 2298 3776 2106 3776 2106 3553 
C 2106 3381 2246 3323 2336 3323 
C 2394 3323 2566 3348 2566 3560 
C 2566 3954 2246 4179 1805 4179 
C 1043 4179 243 3390 243 1984 
C 243 253 966 -128 1478 -128 
C 2099 -128 2688 427 2688 1283 
C 2688 2081 2170 2662 1517 2662 
C 1126 2662 838 2407 678 1960 
L 678 2176 
z
M 1478 25 
C 691 25 691 1200 691 1436 
C 691 1896 909 2560 1504 2560 
C 1613 2560 1926 2560 2138 2120 
C 2253 1870 2253 1609 2253 1289 
C 2253 944 2253 690 2118 434 
C 1978 171 1773 25 1478 25 
z
" transform="scale(0.015625)"/>
       </defs>
       <use xlink:href="#CMSY10-0" transform="scale(0.996264)"/>
       <use xlink:href="#CMR17-30" transform="translate(77.487468 0) scale(0.996264)"/>
       <use xlink:href="#CMMI12-3a" transform="translate(123.177945 0) scale(0.996264)"/>
       <use xlink:href="#CMR17-36" transform="translate(150.275122 0) scale(0.996264)"/>
      </g>
     </g>
    </g>
    <g id="ytick_4">
     <g id="line2d_12">
      <g>
       <use xlink:href="#md348a2f8ca" x="33.707196" y="87.858219" style="stroke: #000000; stroke-width: 0.8"/>
      </g>
     </g>
     <g id="text_13">
      <!-- $\mathdefault{−0.4}$ -->
      <g transform="translate(7.2 90.62562) scale(0.08 -0.08)">
       <defs>
        <path id="CMR17-34" d="M 2150 4122 
C 2150 4256 2144 4256 2029 4256 
L 128 1254 
L 128 1088 
L 1779 1088 
L 1779 457 
C 1779 224 1766 160 1318 160 
L 1197 160 
L 1197 0 
C 1402 0 1747 0 1965 0 
C 2182 0 2528 0 2733 0 
L 2733 160 
L 2611 160 
C 2163 160 2150 224 2150 457 
L 2150 1088 
L 2803 1088 
L 2803 1254 
L 2150 1254 
L 2150 4122 
z
M 1798 3703 
L 1798 1254 
L 256 1254 
L 1798 3703 
z
" transform="scale(0.015625)"/>
       </defs>
       <use xlink:href="#CMSY10-0" transform="scale(0.996264)"/>
       <use xlink:href="#CMR17-30" transform="translate(77.487468 0) scale(0.996264)"/>
       <use xlink:href="#CMMI12-3a" transform="translate(123.177945 0) scale(0.996264)"/>
       <use xlink:href="#CMR17-34" transform="translate(150.275122 0) scale(0.996264)"/>
      </g>
     </g>
    </g>
    <g id="ytick_5">
     <g id="line2d_13">
      <g>
       <use xlink:href="#md348a2f8ca" x="33.707196" y="52.584517" style="stroke: #000000; stroke-width: 0.8"/>
      </g>
     </g>
     <g id="text_14">
      <!-- $\mathdefault{−0.2}$ -->
      <g transform="translate(7.2 55.351917) scale(0.08 -0.08)">
       <use xlink:href="#CMSY10-0" transform="scale(0.996264)"/>
       <use xlink:href="#CMR17-30" transform="translate(77.487468 0) scale(0.996264)"/>
       <use xlink:href="#CMMI12-3a" transform="translate(123.177945 0) scale(0.996264)"/>
       <use xlink:href="#CMR17-32" transform="translate(150.275122 0) scale(0.996264)"/>
      </g>
     </g>
    </g>
    <g id="ytick_6">
     <g id="line2d_14">
      <g>
       <use xlink:href="#md348a2f8ca" x="33.707196" y="17.310814" style="stroke: #000000; stroke-width: 0.8"/>
      </g>
     </g>
     <g id="text_15">
      <!-- $\mathdefault{0.0}$ -->
      <g transform="translate(13.786507 20.078215) scale(0.08 -0.08)">
       <use xlink:href="#CMR17-30" transform="scale(0.996264)"/>
       <use xlink:href="#CMMI12-3a" transform="translate(45.690477 0) scale(0.996264)"/>
       <use xlink:href="#CMR17-30" transform="translate(72.787654 0) scale(0.996264)"/>
      </g>
     </g>
    </g>
   </g>
   <g id="line2d_15">
    <path d="M 43.356847 193.679328 
L 52.684843 193.589719 
L 53.006498 193.374989 
L 53.328153 192.86108 
L 53.649808 191.828804 
L 53.971463 190.005262 
L 54.357449 186.378457 
L 54.807767 179.816794 
L 55.386746 167.723981 
L 57.895655 109.062861 
L 58.603296 98.61104 
L 59.439599 89.765451 
L 60.404564 81.677232 
L 61.176536 76.732498 
L 61.948508 73.196947 
L 63.36379 68.087554 
L 63.814108 67.251347 
L 64.521749 66.045915 
L 65.744038 63.68788 
L 66.258686 63.128773 
L 67.030658 62.131016 
L 68.510271 61.24826 
L 69.475236 61.528194 
L 70.054215 61.996885 
L 70.504532 62.864376 
L 71.598159 64.914089 
L 72.756118 66.816028 
L 73.270766 67.187594 
L 73.978407 67.410189 
L 75.136365 67.461712 
L 85.815312 67.382132 
L 86.394291 67.399688 
L 86.780277 67.658053 
L 87.101932 68.165771 
L 87.552249 69.351581 
L 88.002566 71.202717 
L 88.452883 74.174336 
L 89.096193 80.155278 
L 91.991089 108.599969 
L 92.891723 114.894383 
L 93.599364 118.588293 
L 94.692991 122.635413 
L 95.593625 125.202264 
L 96.301266 126.587037 
L 97.2019 127.952283 
L 99.646479 130.683419 
L 100.547113 131.230922 
L 101.126092 131.359629 
L 101.447747 131.632656 
L 102.026726 132.555781 
L 102.412712 133.479569 
L 102.991691 135.58896 
L 105.050283 143.709571 
L 105.564931 144.650834 
L 106.079579 145.126576 
L 106.594227 145.297488 
L 107.687854 145.332225 
L 117.080182 145.232428 
L 117.466168 144.978571 
L 117.787823 144.519295 
L 118.109478 143.643777 
L 118.431133 142.117397 
L 118.817119 139.20577 
L 119.331767 133.421662 
L 120.039408 122.446913 
L 121.712014 95.776582 
L 122.419655 87.660887 
L 123.38462 79.492433 
L 123.963599 76.215598 
L 124.928564 72.19619 
L 125.571874 70.38262 
L 127.308812 65.336289 
L 128.080784 64.049917 
L 128.46677 63.833395 
L 128.788425 63.588221 
L 130.139376 62.069627 
L 130.975679 61.691827 
L 131.425996 61.701421 
L 131.876313 61.214328 
L 132.519623 60.763775 
L 132.776947 60.76969 
L 134.25656 61.674758 
L 134.771209 62.249025 
L 135.736174 63.555065 
L 137.280118 66.060228 
L 137.859097 66.492337 
L 138.502407 66.691557 
L 139.596034 66.737268 
L 150.789629 66.837527 
L 151.175615 67.20964 
L 151.561601 67.982016 
L 151.947587 69.281659 
L 152.462235 71.924057 
L 153.041215 76.151267 
L 153.813187 83.700096 
L 155.807448 104.607756 
L 156.836744 112.5763 
L 157.608716 117.204244 
L 158.252026 119.955554 
L 159.474315 123.971838 
L 160.43928 126.407959 
L 161.08259 127.445166 
L 162.819528 129.762849 
L 163.398507 129.977312 
L 164.492134 130.330694 
L 165.585761 131.044971 
L 165.971747 131.658443 
L 166.486395 132.8691 
L 167.129705 135.074067 
L 169.316959 143.739113 
L 169.831607 144.736089 
L 170.346256 145.269579 
L 170.860904 145.477984 
L 171.761538 145.528904 
L 181.47552 145.436903 
L 181.861506 145.175689 
L 182.183161 144.638162 
L 182.504816 143.613948 
L 182.890802 141.50268 
L 183.341119 137.535044 
L 183.855767 130.775866 
L 185.271049 107.61236 
L 186.300345 92.855036 
L 187.072317 84.987483 
L 187.779958 79.243684 
L 188.423269 76.278275 
L 189.388234 71.957062 
L 190.031544 69.337125 
L 190.546192 68.141523 
L 191.06084 67.043874 
L 192.090136 64.691133 
L 192.669115 63.791662 
L 193.63408 62.65319 
L 194.084397 62.295084 
L 194.792038 61.945839 
L 196.721968 60.941376 
L 197.172286 60.929118 
L 197.558272 60.912822 
L 197.879927 61.22528 
L 198.780561 62.258314 
L 199.423871 63.052078 
L 200.324505 64.584166 
L 202.125773 66.61743 
L 202.833414 66.81591 
L 203.991372 66.861465 
L 215.249299 66.971834 
L 215.635285 67.289739 
L 215.95694 67.859544 
L 216.342926 69.114187 
L 216.793243 71.421274 
L 217.307891 75.231856 
L 218.144194 83.345664 
L 220.588772 107.791017 
L 221.618068 115.01883 
L 222.325709 118.536241 
L 223.355005 122.547759 
L 224.191309 124.78894 
L 225.027612 126.421098 
L 226.249901 128.286827 
L 226.893211 128.877277 
L 227.858176 129.651338 
L 228.437155 130.195302 
L 229.40212 130.67707 
L 230.174092 131.37372 
L 230.560078 132.005398 
L 231.010395 133.282048 
L 231.718036 136.070981 
L 233.326312 142.626445 
L 233.905291 144.083823 
L 234.419939 144.83882 
L 234.870256 145.153976 
L 235.449235 145.284672 
L 236.349869 145.301108 
L 236.349869 145.301108 
" clip-path="url(#pd1d3bacc86)" style="fill: none; stroke: #ff7f0e; stroke-width: 0.5; stroke-linecap: square"/>
   </g>
   <g id="line2d_16">
    <path d="M 43.356847 17.310814 
L 53.907132 17.207843 
L 54.743436 17.186072 
L 56.673366 17.301134 
L 57.252345 17.035025 
L 57.895655 16.668029 
L 58.345972 16.698749 
L 58.86062 16.935021 
L 59.761254 17.507885 
L 60.211571 17.42669 
L 61.305198 16.939484 
L 62.205832 17.013078 
L 63.042135 17.315629 
L 63.36379 17.055814 
L 64.007101 16.508773 
L 64.328756 16.50172 
L 64.58608 16.759142 
L 65.358052 17.777227 
L 66.065693 17.989482 
L 66.580341 17.941436 
L 67.995623 17.294386 
L 68.381609 17.42739 
L 69.024919 17.670714 
L 69.346574 17.363486 
L 70.118546 16.471236 
L 70.440201 16.367297 
L 70.826187 16.514544 
L 71.276504 16.997607 
L 71.919814 17.702296 
L 72.3058 17.822486 
L 72.627456 17.670293 
L 73.914076 16.641135 
L 74.235731 16.811653 
L 74.81471 17.474432 
L 75.329358 17.937954 
L 75.651013 17.963688 
L 75.972668 17.761451 
L 77.259288 16.640635 
L 77.580943 16.767964 
L 78.095591 17.270223 
L 78.803232 17.900528 
L 79.189218 17.98026 
L 79.639535 17.823452 
L 80.475838 17.192794 
L 81.24781 16.737473 
L 81.82679 16.639862 
L 82.4701 16.775852 
L 83.306403 17.216816 
L 84.593023 17.895175 
L 85.300664 17.993858 
L 86.008305 17.848289 
L 88.324221 17.021603 
L 88.9032 17.253704 
L 89.610841 17.522284 
L 90.833131 17.84997 
L 91.41211 17.934501 
L 92.312744 17.883488 
L 93.084716 18.020452 
L 93.470702 17.746192 
L 94.178343 17.194558 
L 95.078977 16.932645 
L 95.91528 16.934172 
L 97.137569 17.396969 
L 97.84521 17.586977 
L 99.131831 17.61739 
L 99.453486 17.464781 
L 101.254754 16.165637 
L 101.64074 16.332479 
L 102.412712 16.651489 
L 104.728628 17.639935 
L 105.5006 17.741508 
L 106.401234 17.600862 
L 107.752185 17.094068 
L 108.65282 16.882882 
L 109.424792 16.936145 
L 110.261095 17.249795 
L 111.483384 17.741083 
L 111.998032 17.681089 
L 112.577011 17.356684 
L 113.413314 16.887888 
L 113.7993 16.913304 
L 114.249617 17.173718 
L 115.150251 17.737958 
L 115.536237 17.694081 
L 116.050885 17.357879 
L 116.822857 16.870877 
L 117.208844 16.890851 
L 117.723492 17.194967 
L 118.431133 17.633562 
L 118.752788 17.608246 
L 119.138774 17.3296 
L 120.039408 16.585857 
L 120.361063 16.583975 
L 120.682718 16.852221 
L 121.326028 17.472975 
L 121.583352 17.491139 
L 121.905007 17.232075 
L 122.676979 16.512229 
L 122.934303 16.551439 
L 123.255958 16.871263 
L 123.834937 17.429475 
L 124.285254 17.553722 
L 125.443212 17.522085 
L 126.215185 17.512281 
L 126.601171 17.563623 
L 126.922826 17.321886 
L 127.694798 16.56637 
L 128.016453 16.632388 
L 128.531101 17.04454 
L 129.238742 17.605077 
L 129.817721 17.767012 
L 130.461031 17.750498 
L 131.425996 17.486478 
L 132.069306 17.183406 
L 132.648285 16.997798 
L 132.96994 17.156945 
L 133.870574 17.685615 
L 134.127898 17.655069 
L 134.578215 17.308332 
L 135.221526 16.778298 
L 135.47885 16.87431 
L 135.800505 17.302325 
L 136.443815 18.179558 
L 136.701139 18.246301 
L 136.958463 18.103201 
L 137.344449 17.549111 
L 138.05209 16.503718 
L 138.373745 16.386483 
L 138.631069 16.52745 
L 139.017055 17.050146 
L 139.789027 18.160743 
L 140.046351 18.237786 
L 140.303675 18.105417 
L 140.689661 17.592701 
L 141.461633 16.479689 
L 141.783288 16.38773 
L 142.104943 16.584995 
L 142.619591 17.280955 
L 143.262901 18.080658 
L 143.648888 18.239264 
L 144.034874 18.127226 
L 144.549522 17.689444 
L 145.771811 16.56558 
L 146.286459 16.38991 
L 146.801107 16.440884 
L 147.380086 16.733288 
L 148.409382 17.576419 
L 149.245685 18.124755 
L 149.824664 18.228778 
L 150.274981 18.099767 
L 151.111284 17.532173 
L 152.976884 16.184772 
L 153.491532 16.0966 
L 153.877518 16.333193 
L 154.392166 16.9101 
L 154.906814 17.43778 
L 155.614455 17.808599 
L 156.129103 18.159371 
L 156.515089 18.149937 
L 157.029737 17.868673 
L 158.123364 17.142397 
L 159.988963 17.662431 
L 161.725901 18.430517 
L 162.497873 18.329906 
L 163.462838 18.073464 
L 164.170479 17.915928 
L 164.492134 17.785453 
L 165.392768 17.301834 
L 167.129705 16.854045 
L 168.351994 17.123558 
L 171.182559 17.089015 
L 172.53351 17.357149 
L 173.884461 17.561902 
L 174.785095 17.46775 
L 176.779356 17.090342 
L 177.551328 17.366221 
L 178.258969 17.561704 
L 178.773617 17.476233 
L 180.124569 17.065511 
L 180.703548 17.247257 
L 181.604182 17.56638 
L 182.11883 17.483965 
L 183.212457 16.961706 
L 183.920098 16.667991 
L 184.434746 16.693547 
L 184.885063 16.886098 
L 185.464042 17.147842 
L 185.721366 16.999054 
L 186.686331 16.193066 
L 186.943655 16.187936 
L 187.200979 16.395106 
L 188.4876 17.785249 
L 188.744924 17.769099 
L 189.066579 17.489072 
L 190.031544 16.536009 
L 190.288868 16.626803 
L 190.803516 17.212506 
L 191.253833 17.557442 
L 191.897143 17.729445 
L 192.797777 17.742207 
L 193.119432 17.568225 
L 193.827073 17.07668 
L 194.084397 17.184877 
L 194.470383 17.687497 
L 194.985031 18.231229 
L 195.306686 18.29116 
L 195.692672 18.091853 
L 196.528975 17.496082 
L 196.914961 17.716127 
L 197.558272 18.163598 
L 197.815596 18.008876 
L 198.265913 17.281661 
L 198.71623 16.717212 
L 199.037885 16.592394 
L 199.295209 16.708281 
L 199.809857 17.304017 
L 200.260174 17.717482 
L 200.517498 17.714548 
L 200.967815 17.399222 
L 201.739787 16.871143 
L 202.125773 16.906484 
L 202.640421 17.247007 
L 203.348062 17.715317 
L 203.734048 17.727274 
L 204.184365 17.486425 
L 205.14933 16.879948 
L 205.535316 16.931079 
L 206.049965 17.258896 
L 206.821937 17.721088 
L 207.272254 17.720182 
L 207.851233 17.453714 
L 208.94486 16.917675 
L 209.58817 16.888858 
L 210.360142 17.100908 
L 212.290072 17.735874 
L 213.062044 17.697512 
L 214.027009 17.390174 
L 215.699616 16.811099 
L 216.407257 16.79313 
L 217.629546 17.008325 
L 218.723173 16.974338 
L 219.366483 17.224359 
L 220.46011 17.783273 
L 221.039089 17.958177 
L 221.811061 17.980608 
L 222.518702 17.694425 
L 223.805323 17.903455 
L 225.670922 17.537908 
L 226.378563 17.351342 
L 227.021873 17.453219 
L 227.47219 17.41237 
L 227.986838 17.406955 
L 229.209127 17.605363 
L 231.460712 17.47943 
L 232.232684 17.221932 
L 233.133319 17.048422 
L 234.419939 17.136653 
L 236.349869 17.522378 
L 236.349869 17.522378 
" clip-path="url(#pd1d3bacc86)" style="fill: none; stroke: #2ca02c; stroke-width: 0.5; stroke-linecap: square"/>
   </g>
   <g id="line2d_17">
    <path d="M 43.356847 17.310814 
L 56.609035 17.418176 
L 57.188014 17.640366 
L 57.574 17.576447 
L 58.86062 16.944584 
L 59.375268 16.905032 
L 59.761254 17.141407 
L 60.340233 17.512024 
L 60.661888 17.456469 
L 61.240867 17.339233 
L 62.07717 17.322222 
L 62.527487 16.967657 
L 62.72048 17.057115 
L 63.556784 17.913525 
L 63.878439 17.756531 
L 64.264425 17.253525 
L 64.843404 16.475337 
L 65.036397 16.486712 
L 65.358052 16.85189 
L 65.744038 17.166746 
L 67.15932 17.767756 
L 67.80263 17.377152 
L 68.574602 16.977648 
L 68.831926 17.145809 
L 69.539567 17.879196 
L 69.989884 17.664439 
L 70.568863 17.183095 
L 71.212173 16.638768 
L 71.533828 16.651655 
L 71.919814 16.943859 
L 72.949111 17.941305 
L 73.270766 17.857557 
L 73.721083 17.444723 
L 74.493055 16.67988 
L 74.81471 16.659593 
L 75.136365 16.865713 
L 76.422985 17.978707 
L 76.74464 17.82643 
L 77.323619 17.194636 
L 77.902598 16.688859 
L 78.288584 16.661744 
L 78.67457 16.880033 
L 80.154183 17.967688 
L 80.668831 17.929708 
L 81.312142 17.621217 
L 82.984748 16.703556 
L 83.628058 16.647957 
L 84.271368 16.823058 
L 86.587284 17.755663 
L 87.359256 17.613772 
L 88.9032 17.19362 
L 90.511476 17.032404 
L 91.090455 16.991602 
L 92.184082 17.053512 
L 92.827392 17.301248 
L 93.535033 17.403099 
L 96.622921 17.114816 
L 97.008907 17.120122 
L 98.102534 17.540635 
L 98.681513 17.911334 
L 99.196162 18.237673 
L 99.71081 18.216037 
L 100.289789 18.003239 
L 101.126092 17.589716 
L 101.64074 17.255442 
L 102.219719 16.889594 
L 102.670036 16.841441 
L 103.120353 16.763678 
L 103.763663 16.624308 
L 104.21398 16.761288 
L 106.14391 17.547888 
L 106.980213 17.739429 
L 107.752185 17.690751 
L 108.717151 17.37512 
L 110.196764 16.883209 
L 110.840074 16.936865 
L 111.483384 17.232077 
L 112.51268 17.738713 
L 112.962997 17.687169 
L 113.477645 17.373834 
L 114.249617 16.895439 
L 114.635603 16.907123 
L 115.08592 17.16614 
L 115.986554 17.737739 
L 116.37254 17.703216 
L 116.887189 17.391852 
L 117.723492 16.885231 
L 118.109478 16.919429 
L 118.495464 17.206338 
L 119.267436 17.876052 
L 119.589091 17.823625 
L 119.975077 17.514518 
L 120.747049 16.772054 
L 121.068704 16.854822 
L 121.390359 17.2103 
L 121.969338 18.002815 
L 122.226662 17.981521 
L 122.548317 17.605246 
L 123.191627 16.717501 
L 123.513282 16.650481 
L 123.770606 16.813369 
L 124.413916 17.40358 
L 126.472509 17.364399 
L 127.051488 17.953585 
L 127.308812 17.90735 
L 127.694798 17.425361 
L 128.209446 16.939019 
L 128.659763 16.822805 
L 129.11008 16.995318 
L 130.525362 17.404053 
L 131.233003 17.602708 
L 131.618989 17.630541 
L 132.583954 17.26804 
L 133.227264 16.780679 
L 133.484588 16.866297 
L 133.806243 17.203957 
L 134.320891 17.770786 
L 134.706878 17.865385 
L 134.964202 17.688556 
L 135.47885 16.882421 
L 135.864836 16.47805 
L 136.057829 16.50787 
L 136.315153 16.78329 
L 137.344449 18.233751 
L 137.601773 18.212385 
L 137.923428 17.929083 
L 138.502407 17.007644 
L 138.952724 16.455239 
L 139.210048 16.384102 
L 139.467372 16.521494 
L 139.853358 17.040425 
L 140.62533 18.156034 
L 140.946985 18.226683 
L 141.26864 17.985585 
L 141.847619 17.103029 
L 142.362267 16.477938 
L 142.683922 16.384346 
L 143.005577 16.535685 
L 143.520225 17.112398 
L 144.356529 18.045623 
L 144.806846 18.233723 
L 145.257163 18.169229 
L 145.836142 17.815791 
L 147.701741 16.445078 
L 148.216389 16.387448 
L 148.731037 16.54045 
L 149.374347 16.976372 
L 150.789629 18.063203 
L 151.368608 18.19098 
L 151.883256 18.052738 
L 153.105546 17.276278 
L 154.713821 16.351168 
L 155.099807 16.394515 
L 155.550124 16.734637 
L 156.386427 17.459595 
L 157.287061 17.761584 
L 158.059033 17.833762 
L 158.831005 17.297649 
L 160.117625 16.589046 
L 160.43928 16.598968 
L 161.854563 17.240223 
L 162.497873 17.610824 
L 163.076852 17.579493 
L 163.5915 17.65771 
L 164.170479 17.750368 
L 166.16474 16.8781 
L 166.679388 16.846462 
L 169.638614 17.479686 
L 170.796573 17.277291 
L 172.147524 17.06276 
L 173.17682 17.1339 
L 175.814391 17.51347 
L 176.779356 17.188937 
L 177.486997 17.060436 
L 178.065976 17.203689 
L 179.159603 17.56273 
L 179.674252 17.455318 
L 180.960872 17.059334 
L 181.539851 17.231514 
L 182.569147 17.583951 
L 184.04876 17.506297 
L 185.142387 17.051914 
L 185.399711 17.263187 
L 186.043021 17.984172 
L 186.300345 17.825887 
L 187.007986 16.944361 
L 187.393972 16.501576 
L 187.651296 16.562555 
L 188.744924 17.462009 
L 189.195241 17.875623 
L 189.516896 17.918448 
L 189.77422 17.732605 
L 190.674854 16.827448 
L 190.996509 16.965433 
L 191.511157 17.210414 
L 192.283129 17.186351 
L 192.669115 17.125082 
L 192.99077 17.375866 
L 193.376756 17.643314 
L 193.569749 17.535342 
L 194.470383 16.640684 
L 194.792038 16.834644 
L 195.242355 17.326765 
L 195.757003 17.88995 
L 195.949996 17.850936 
L 196.20732 17.536831 
L 196.721968 16.884526 
L 197.043624 16.807586 
L 197.300948 16.948083 
L 197.622603 17.485688 
L 198.07292 18.231887 
L 198.265913 18.238827 
L 198.587568 17.958198 
L 199.166547 17.094515 
L 199.552533 16.644484 
L 199.809857 16.646297 
L 200.131512 16.965855 
L 200.839153 17.73154 
L 201.160808 17.793353 
L 201.546794 17.614421 
L 202.640421 16.872737 
L 203.026407 16.94538 
L 203.605386 17.345764 
L 204.248696 17.730725 
L 204.634682 17.709788 
L 205.084999 17.442798 
L 205.921302 16.898658 
L 206.307289 16.896602 
L 206.821937 17.156091 
L 207.786902 17.710242 
L 208.30155 17.730381 
L 208.94486 17.504992 
L 210.424473 16.913338 
L 211.196445 16.892183 
L 212.032748 17.105371 
L 214.09134 17.759835 
L 214.927644 17.735046 
L 216.857574 17.377641 
L 217.693877 17.458594 
L 218.144194 17.289292 
L 218.594511 17.16398 
L 219.430814 17.158144 
L 219.945462 16.897815 
L 221.10342 16.990429 
L 221.939723 17.477122 
L 222.325709 17.688515 
L 222.711695 17.91721 
L 223.097681 17.860861 
L 224.384302 17.295206 
L 224.89895 17.101136 
L 226.249901 17.112153 
L 227.021873 17.111507 
L 227.600852 17.054182 
L 231.267719 17.414944 
L 231.97536 17.337145 
L 233.647967 17.301577 
L 235.320573 17.072249 
L 236.349869 17.19307 
L 236.349869 17.19307 
" clip-path="url(#pd1d3bacc86)" style="fill: none; stroke: #d62728; stroke-width: 0.5; stroke-linecap: square"/>
   </g>
   <g id="patch_3">
    <path d="M 33.707196 202.559296 
L 33.707196 7.2 
" style="fill: none; stroke: #000000; stroke-width: 0.8; stroke-linejoin: miter; stroke-linecap: square"/>
   </g>
   <g id="patch_4">
    <path d="M 245.99952 202.559296 
L 245.99952 7.2 
" style="fill: none; stroke: #000000; stroke-width: 0.8; stroke-linejoin: miter; stroke-linecap: square"/>
   </g>
   <g id="patch_5">
    <path d="M 33.707196 202.559296 
L 245.99952 202.559296 
" style="fill: none; stroke: #000000; stroke-width: 0.8; stroke-linejoin: miter; stroke-linecap: square"/>
   </g>
   <g id="patch_6">
    <path d="M 33.707196 7.2 
L 245.99952 7.2 
" style="fill: none; stroke: #000000; stroke-width: 0.8; stroke-linejoin: miter; stroke-linecap: square"/>
   </g>
   <g id="legend_1">
    <g id="patch_7">
     <path d="M 193.792605 198.059296 
L 239.69952 198.059296 
Q 241.49952 198.059296 241.49952 196.259296 
L 241.49952 156.760168 
Q 241.49952 154.960168 239.69952 154.960168 
L 193.792605 154.960168 
Q 191.992605 154.960168 191.992605 156.760168 
L 191.992605 196.259296 
Q 191.992605 198.059296 193.792605 198.059296 
z
" style="fill: #ffffff; opacity: 0.8; stroke: #cccccc; stroke-width: 0.24; stroke-linejoin: miter"/>
    </g>
    <g id="line2d_18">
     <path d="M 195.592605 162.13495 
L 204.592605 162.13495 
L 213.592605 162.13495 
" style="fill: none; stroke: #ff7f0e; stroke-width: 0.5; stroke-linecap: square"/>
    </g>
    <g id="text_16">
     <!-- $\langle \sigma_z\rangle$ -->
     <g transform="translate(220.792605 165.28495) scale(0.09 -0.09)">
      <defs>
       <path id="CMSY10-68" d="M 2099 4557 
C 2131 4627 2131 4640 2131 4672 
C 2131 4742 2074 4800 2003 4800 
C 1946 4800 1901 4768 1856 4653 
L 736 1715 
C 723 1677 704 1638 704 1600 
C 704 1581 704 1568 736 1491 
L 1856 -1446 
C 1882 -1517 1914 -1600 2003 -1600 
C 2074 -1600 2131 -1542 2131 -1472 
C 2131 -1453 2131 -1440 2099 -1370 
L 966 1600 
L 2099 4557 
z
" transform="scale(0.015625)"/>
       <path id="CMMI12-1b" d="M 3251 2408 
C 3334 2408 3546 2408 3546 2612 
C 3546 2752 3424 2752 3309 2752 
L 1894 2752 
C 934 2752 243 1686 243 932 
C 243 390 595 -64 1171 -64 
C 1926 -64 2752 747 2752 1705 
C 2752 1954 2694 2196 2541 2408 
L 3251 2408 
z
M 1178 64 
C 851 64 614 313 614 754 
C 614 1137 845 2408 1786 2408 
C 2061 2408 2368 2274 2368 1781 
C 2368 1558 2266 1021 2042 652 
C 1811 275 1466 64 1178 64 
z
" transform="scale(0.015625)"/>
       <path id="CMMI12-7a" d="M 813 486 
C 1088 803 1312 1004 1632 1296 
C 2016 1632 2182 1793 2272 1891 
C 2720 2338 2944 2713 2944 2764 
C 2944 2816 2893 2816 2880 2816 
C 2835 2816 2822 2793 2790 2750 
C 2630 2494 2477 2367 2310 2367 
C 2176 2367 2106 2421 1984 2565 
C 1850 2715 1741 2816 1555 2816 
C 1088 2816 806 2257 806 2128 
C 806 2108 813 2068 870 2068 
C 922 2068 928 2091 947 2133 
C 1056 2372 1363 2414 1485 2414 
C 1619 2414 1747 2376 1882 2327 
C 2125 2240 2227 2240 2291 2240 
C 2336 2240 2362 2240 2394 2246 
C 2182 1994 1837 1683 1549 1418 
L 902 816 
C 512 415 275 33 275 -12 
C 275 -51 307 -64 346 -64 
C 384 -64 390 -57 435 14 
C 538 163 742 384 979 384 
C 1114 384 1178 342 1306 193 
C 1427 61 1536 -64 1741 -64 
C 2368 -64 2726 732 2726 876 
C 2726 903 2720 942 2656 942 
C 2605 942 2598 917 2579 855 
C 2438 488 2061 338 1811 338 
C 1677 338 1549 376 1414 425 
C 1158 512 1088 512 1005 512 
C 941 512 870 512 813 486 
z
" transform="scale(0.015625)"/>
       <path id="CMSY10-69" d="M 1747 1491 
C 1779 1568 1779 1581 1779 1600 
C 1779 1619 1779 1632 1747 1709 
L 627 4653 
C 589 4762 550 4800 480 4800 
C 410 4800 352 4742 352 4672 
C 352 4653 352 4640 384 4570 
L 1517 1600 
L 384 -1357 
C 352 -1427 352 -1440 352 -1472 
C 352 -1542 410 -1600 480 -1600 
C 563 -1600 589 -1536 614 -1472 
L 1747 1491 
z
" transform="scale(0.015625)"/>
      </defs>
      <use xlink:href="#CMSY10-68" transform="scale(0.996264)"/>
      <use xlink:href="#CMMI12-1b" transform="translate(38.743734 0) scale(0.996264)"/>
      <use xlink:href="#CMMI12-7a" transform="translate(94.189195 -14.943915) scale(0.697382)"/>
      <use xlink:href="#CMSY10-69" transform="translate(129.51575 0) scale(0.996264)"/>
     </g>
    </g>
    <g id="line2d_19">
     <path d="M 195.592605 175.601326 
L 204.592605 175.601326 
L 213.592605 175.601326 
" style="fill: none; stroke: #2ca02c; stroke-width: 0.5; stroke-linecap: square"/>
    </g>
    <g id="text_17">
     <!-- $\langle \sigma_x\rangle$ -->
     <g transform="translate(220.792605 178.751326) scale(0.09 -0.09)">
      <defs>
       <path id="CMMI12-78" d="M 3034 2606 
C 2829 2567 2752 2414 2752 2293 
C 2752 2139 2874 2088 2963 2088 
C 3155 2088 3290 2254 3290 2427 
C 3290 2695 2982 2816 2714 2816 
C 2323 2816 2106 2433 2048 2312 
C 1901 2816 1504 2816 1389 2816 
C 736 2816 390 1980 390 1839 
C 390 1814 416 1782 461 1782 
C 512 1782 525 1820 538 1846 
C 755 2555 1184 2689 1370 2689 
C 1658 2689 1715 2420 1715 2267 
C 1715 2127 1677 1980 1600 1673 
L 1382 798 
C 1286 415 1101 64 762 64 
C 730 64 570 64 435 147 
C 666 192 717 383 717 460 
C 717 588 621 664 499 664 
C 346 664 179 530 179 326 
C 179 57 480 -64 755 -64 
C 1062 -64 1280 179 1414 441 
C 1517 64 1837 -64 2074 -64 
C 2726 -64 3072 773 3072 913 
C 3072 945 3046 971 3008 971 
C 2950 971 2944 939 2925 888 
C 2752 326 2381 64 2093 64 
C 1869 64 1747 230 1747 492 
C 1747 632 1773 734 1875 1156 
L 2099 2024 
C 2195 2408 2413 2689 2707 2689 
C 2720 2689 2899 2689 3034 2606 
z
" transform="scale(0.015625)"/>
      </defs>
      <use xlink:href="#CMSY10-68" transform="scale(0.996264)"/>
      <use xlink:href="#CMMI12-1b" transform="translate(38.743734 0) scale(0.996264)"/>
      <use xlink:href="#CMMI12-78" transform="translate(94.189195 -14.943915) scale(0.697382)"/>
      <use xlink:href="#CMSY10-69" transform="translate(133.490986 0) scale(0.996264)"/>
     </g>
    </g>
    <g id="line2d_20">
     <path d="M 195.592605 189.067702 
L 204.592605 189.067702 
L 213.592605 189.067702 
" style="fill: none; stroke: #d62728; stroke-width: 0.5; stroke-linecap: square"/>
    </g>
    <g id="text_18">
     <!-- $\langle \sigma_y\rangle$ -->
     <g transform="translate(220.792605 192.217702) scale(0.09 -0.09)">
      <defs>
       <path id="CMMI12-79" d="M 1683 -700 
C 1510 -939 1261 -1152 947 -1152 
C 870 -1152 563 -1152 467 -889 
C 486 -895 518 -895 531 -895 
C 723 -895 851 -729 851 -582 
C 851 -435 730 -384 634 -384 
C 531 -384 307 -458 307 -759 
C 307 -1071 582 -1286 947 -1286 
C 1587 -1286 2234 -700 2413 6 
L 3040 2485 
C 3046 2517 3059 2556 3059 2594 
C 3059 2689 2982 2753 2886 2753 
C 2829 2753 2694 2727 2643 2535 
L 2170 658 
C 2138 543 2138 530 2086 460 
C 1958 281 1747 64 1440 64 
C 1082 64 1050 415 1050 588 
C 1050 952 1222 1443 1395 1903 
C 1466 2088 1504 2178 1504 2305 
C 1504 2574 1312 2816 998 2816 
C 410 2816 173 1890 173 1839 
C 173 1814 198 1782 243 1782 
C 301 1782 307 1807 333 1897 
C 486 2433 730 2689 979 2689 
C 1037 2689 1146 2689 1146 2478 
C 1146 2312 1075 2127 979 1884 
C 666 1047 666 837 666 683 
C 666 77 1101 -64 1421 -64 
C 1606 -64 1837 -6 2061 230 
L 2067 224 
C 1971 -147 1907 -392 1683 -700 
z
" transform="scale(0.015625)"/>
      </defs>
      <use xlink:href="#CMSY10-68" transform="scale(0.996264)"/>
      <use xlink:href="#CMMI12-1b" transform="translate(38.743734 0) scale(0.996264)"/>
      <use xlink:href="#CMMI12-79" transform="translate(94.189195 -14.943915) scale(0.697382)"/>
      <use xlink:href="#CMSY10-69" transform="translate(130.484301 0) scale(0.996264)"/>
     </g>
    </g>
   </g>
  </g>
 </g>
 <defs>
  <clipPath id="pd1d3bacc86">
   <rect x="33.707196" y="7.2" width="212.292324" height="195.359296"/>
  </clipPath>
 </defs>
</svg>
