<?xml version="1.0" encoding="utf-8" standalone="no"?>
<!DOCTYPE svg PUBLIC "-//W3C//DTD SVG 1.1//EN"
  "http://www.w3.org/Graphics/SVG/1.1/DTD/svg11.dtd">
<svg xmlns:xlink="http://www.w3.org/1999/xlink" width="253.19952pt" height="238.79952pt" viewBox="0 0 253.19952 238.79952" xmlns="http://www.w3.org/2000/svg" version="1.1">
 <metadata>
  <rdf:RDF xmlns:dc="http://purl.org/dc/elements/1.1/" xmlns:cc="http://creativecommons.org/ns#" xmlns:rdf="http://www.w3.org/1999/02/22-rdf-syntax-ns#">
   <cc:Work>
    <dc:type rdf:resource="http://purl.org/dc/dcmitype/StillImage"/>
    <dc:date>1980-01-01T00:00:00+00:00</dc:date>
    <dc:format>image/svg+xml</dc:format>
    <dc:creator>
     <cc:Agent>
      <dc:title>Matplotlib v3.6.2, https://matplotlib.org/</dc:title>
     </cc:Agent>
    </dc:creator>
   </cc:Work>
  </rdf:RDF>
 </metadata>
 <defs>
  <style type="text/css">*{stroke-linejoin: round; stroke-linecap: butt}</style>
 </defs>
 <g id="figure_1">
  <g id="patch_1">
   <path d="M 0 238.79952 
L 253.19952 238.79952 
L 253.19952 0 
L 0 0 
z
" style="fill: #ffffff"/>
  </g>
  <g id="axes_1">
   <g id="patch_2">
    <path d="M 33.707196 202.559296 
L 245.99952 202.559296 
L 245.99952 7.2 
L 33.707196 7.2 
z
" style="fill: #ffffff"/>
   </g>
   <g id="matplotlib.axis_1">
    <g id="xtick_1">
     <g id="line2d_1">
      <defs>
       <path id="m437d78cda6" d="M 0 0 
L 0 3.5 
" style="stroke: #000000; stroke-width: 0.8"/>
      </defs>
      <g>
       <use xlink:href="#m437d78cda6" x="43.356847" y="202.559296" style="stroke: #000000; stroke-width: 0.8"/>
      </g>
     </g>
     <g id="text_1">
      <!-- $\mathdefault{0}$ -->
      <g transform="translate(41.239756 217.194098) scale(0.08 -0.08)">
       <defs>
        <path id="CMR17-30" d="M 2688 2025 
C 2688 2416 2682 3080 2413 3591 
C 2176 4039 1798 4198 1466 4198 
C 1158 4198 768 4058 525 3597 
C 269 3118 243 2524 243 2025 
C 243 1661 250 1106 448 619 
C 723 -39 1216 -128 1466 -128 
C 1760 -128 2208 -7 2470 600 
C 2662 1042 2688 1559 2688 2025 
z
M 1466 -26 
C 1056 -26 813 325 723 812 
C 653 1188 653 1738 653 2096 
C 653 2588 653 2997 736 3387 
C 858 3929 1216 4096 1466 4096 
C 1728 4096 2067 3923 2189 3400 
C 2272 3036 2278 2607 2278 2096 
C 2278 1680 2278 1169 2202 792 
C 2067 95 1690 -26 1466 -26 
z
" transform="scale(0.015625)"/>
       </defs>
       <use xlink:href="#CMR17-30" transform="scale(0.996264)"/>
      </g>
     </g>
    </g>
    <g id="xtick_2">
     <g id="line2d_2">
      <g>
       <use xlink:href="#m437d78cda6" x="70.161434" y="202.559296" style="stroke: #000000; stroke-width: 0.8"/>
      </g>
     </g>
     <g id="text_2">
      <!-- $\mathdefault{25}$ -->
      <g transform="translate(65.927251 217.194098) scale(0.08 -0.08)">
       <defs>
        <path id="CMR17-32" d="M 2669 989 
L 2554 989 
C 2490 536 2438 459 2413 420 
C 2381 369 1920 369 1830 369 
L 602 369 
C 832 619 1280 1072 1824 1597 
C 2214 1967 2669 2402 2669 3035 
C 2669 3790 2067 4224 1395 4224 
C 691 4224 262 3604 262 3030 
C 262 2780 448 2748 525 2748 
C 589 2748 781 2787 781 3010 
C 781 3207 614 3264 525 3264 
C 486 3264 448 3258 422 3245 
C 544 3790 915 4058 1306 4058 
C 1862 4058 2227 3617 2227 3035 
C 2227 2479 1901 2000 1536 1584 
L 262 146 
L 262 0 
L 2515 0 
L 2669 989 
z
" transform="scale(0.015625)"/>
        <path id="CMR17-35" d="M 730 3692 
C 794 3666 1056 3584 1325 3584 
C 1920 3584 2246 3911 2432 4100 
C 2432 4157 2432 4192 2394 4192 
C 2387 4192 2374 4192 2323 4163 
C 2099 4058 1837 3973 1517 3973 
C 1325 3973 1037 3999 723 4139 
C 653 4171 640 4171 634 4171 
C 602 4171 595 4164 595 4037 
L 595 2203 
C 595 2089 595 2057 659 2057 
C 691 2057 704 2070 736 2114 
C 941 2401 1222 2522 1542 2522 
C 1766 2522 2246 2382 2246 1289 
C 2246 1085 2246 715 2054 421 
C 1894 159 1645 25 1370 25 
C 947 25 518 320 403 814 
C 429 807 480 795 506 795 
C 589 795 749 840 749 1038 
C 749 1210 627 1280 506 1280 
C 358 1280 262 1190 262 1011 
C 262 454 704 -128 1382 -128 
C 2042 -128 2669 440 2669 1264 
C 2669 2030 2170 2624 1549 2624 
C 1222 2624 947 2503 730 2274 
L 730 3692 
z
" transform="scale(0.015625)"/>
       </defs>
       <use xlink:href="#CMR17-32" transform="scale(0.996264)"/>
       <use xlink:href="#CMR17-35" transform="translate(45.690477 0) scale(0.996264)"/>
      </g>
     </g>
    </g>
    <g id="xtick_3">
     <g id="line2d_3">
      <g>
       <use xlink:href="#m437d78cda6" x="96.96602" y="202.559296" style="stroke: #000000; stroke-width: 0.8"/>
      </g>
     </g>
     <g id="text_3">
      <!-- $\mathdefault{50}$ -->
      <g transform="translate(92.731837 217.194098) scale(0.08 -0.08)">
       <use xlink:href="#CMR17-35" transform="scale(0.996264)"/>
       <use xlink:href="#CMR17-30" transform="translate(45.690477 0) scale(0.996264)"/>
      </g>
     </g>
    </g>
    <g id="xtick_4">
     <g id="line2d_4">
      <g>
       <use xlink:href="#m437d78cda6" x="123.770606" y="202.559296" style="stroke: #000000; stroke-width: 0.8"/>
      </g>
     </g>
     <g id="text_4">
      <!-- $\mathdefault{75}$ -->
      <g transform="translate(119.536423 217.194098) scale(0.08 -0.08)">
       <defs>
        <path id="CMR17-37" d="M 2886 3941 
L 2886 4081 
L 1382 4081 
C 634 4081 621 4165 595 4288 
L 480 4288 
L 294 3094 
L 410 3094 
C 429 3215 474 3540 550 3661 
C 589 3712 1062 3712 1171 3712 
L 2579 3712 
L 1869 2661 
C 1395 1954 1069 999 1069 165 
C 1069 89 1069 -128 1299 -128 
C 1530 -128 1530 89 1530 171 
L 1530 465 
C 1530 1508 1709 2196 2003 2636 
L 2886 3941 
z
" transform="scale(0.015625)"/>
       </defs>
       <use xlink:href="#CMR17-37" transform="scale(0.996264)"/>
       <use xlink:href="#CMR17-35" transform="translate(45.690477 0) scale(0.996264)"/>
      </g>
     </g>
    </g>
    <g id="xtick_5">
     <g id="line2d_5">
      <g>
       <use xlink:href="#m437d78cda6" x="150.575193" y="202.559296" style="stroke: #000000; stroke-width: 0.8"/>
      </g>
     </g>
     <g id="text_5">
      <!-- $\mathdefault{100}$ -->
      <g transform="translate(144.223918 217.194098) scale(0.08 -0.08)">
       <defs>
        <path id="CMR17-31" d="M 1702 4058 
C 1702 4192 1696 4192 1606 4192 
C 1357 3916 979 3827 621 3827 
C 602 3827 570 3827 563 3808 
C 557 3795 557 3782 557 3648 
C 755 3648 1088 3686 1344 3839 
L 1344 461 
C 1344 236 1331 160 781 160 
L 589 160 
L 589 0 
C 896 0 1216 0 1523 0 
C 1830 0 2150 0 2458 0 
L 2458 160 
L 2266 160 
C 1715 160 1702 230 1702 458 
L 1702 4058 
z
" transform="scale(0.015625)"/>
       </defs>
       <use xlink:href="#CMR17-31" transform="scale(0.996264)"/>
       <use xlink:href="#CMR17-30" transform="translate(45.690477 0) scale(0.996264)"/>
       <use xlink:href="#CMR17-30" transform="translate(91.380954 0) scale(0.996264)"/>
      </g>
     </g>
    </g>
    <g id="xtick_6">
     <g id="line2d_6">
      <g>
       <use xlink:href="#m437d78cda6" x="177.379779" y="202.559296" style="stroke: #000000; stroke-width: 0.8"/>
      </g>
     </g>
     <g id="text_6">
      <!-- $\mathdefault{125}$ -->
      <g transform="translate(171.028505 217.194098) scale(0.08 -0.08)">
       <use xlink:href="#CMR17-31" transform="scale(0.996264)"/>
       <use xlink:href="#CMR17-32" transform="translate(45.690477 0) scale(0.996264)"/>
       <use xlink:href="#CMR17-35" transform="translate(91.380954 0) scale(0.996264)"/>
      </g>
     </g>
    </g>
    <g id="xtick_7">
     <g id="line2d_7">
      <g>
       <use xlink:href="#m437d78cda6" x="204.184365" y="202.559296" style="stroke: #000000; stroke-width: 0.8"/>
      </g>
     </g>
     <g id="text_7">
      <!-- $\mathdefault{150}$ -->
      <g transform="translate(197.833091 217.194098) scale(0.08 -0.08)">
       <use xlink:href="#CMR17-31" transform="scale(0.996264)"/>
       <use xlink:href="#CMR17-35" transform="translate(45.690477 0) scale(0.996264)"/>
       <use xlink:href="#CMR17-30" transform="translate(91.380954 0) scale(0.996264)"/>
      </g>
     </g>
    </g>
    <g id="xtick_8">
     <g id="line2d_8">
      <g>
       <use xlink:href="#m437d78cda6" x="230.988952" y="202.559296" style="stroke: #000000; stroke-width: 0.8"/>
      </g>
     </g>
     <g id="text_8">
      <!-- $\mathdefault{175}$ -->
      <g transform="translate(224.637677 217.194098) scale(0.08 -0.08)">
       <use xlink:href="#CMR17-31" transform="scale(0.996264)"/>
       <use xlink:href="#CMR17-37" transform="translate(45.690477 0) scale(0.996264)"/>
       <use xlink:href="#CMR17-35" transform="translate(91.380954 0) scale(0.996264)"/>
      </g>
     </g>
    </g>
    <g id="text_9">
     <!-- $\tau$ -->
     <g transform="translate(137.675756 229.662342) scale(0.1 -0.1)">
      <defs>
       <path id="CMMI12-1c" d="M 1837 2408 
L 2899 2408 
C 2982 2408 3194 2408 3194 2612 
C 3194 2752 3072 2752 2957 2752 
L 1197 2752 
C 1050 2752 832 2752 538 2440 
C 371 2255 166 1917 166 1879 
C 166 1841 198 1828 237 1828 
C 282 1828 288 1847 320 1885 
C 653 2408 986 2408 1146 2408 
L 1677 2408 
L 1011 223 
C 979 127 979 114 979 95 
C 979 25 1024 -64 1152 -64 
C 1350 -64 1382 108 1402 203 
L 1837 2408 
z
" transform="scale(0.015625)"/>
      </defs>
      <use xlink:href="#CMMI12-1c" transform="scale(0.996264)"/>
     </g>
    </g>
   </g>
   <g id="matplotlib.axis_2">
    <g id="ytick_1">
     <g id="line2d_9">
      <defs>
       <path id="mc9da5119fb" d="M 0 0 
L -3.5 0 
" style="stroke: #000000; stroke-width: 0.8"/>
      </defs>
      <g>
       <use xlink:href="#mc9da5119fb" x="33.707196" y="193.679328" style="stroke: #000000; stroke-width: 0.8"/>
      </g>
     </g>
     <g id="text_10">
      <!-- $\mathdefault{−1.0}$ -->
      <g transform="translate(7.2 196.446729) scale(0.08 -0.08)">
       <defs>
        <path id="CMSY10-0" d="M 4218 1472 
C 4326 1472 4442 1472 4442 1600 
C 4442 1728 4326 1728 4218 1728 
L 755 1728 
C 646 1728 531 1728 531 1600 
C 531 1472 646 1472 755 1472 
L 4218 1472 
z
" transform="scale(0.015625)"/>
        <path id="CMMI12-3a" d="M 1178 307 
C 1178 492 1024 619 870 619 
C 685 619 557 466 557 313 
C 557 128 710 0 864 0 
C 1050 0 1178 153 1178 307 
z
" transform="scale(0.015625)"/>
       </defs>
       <use xlink:href="#CMSY10-0" transform="scale(0.996264)"/>
       <use xlink:href="#CMR17-31" transform="translate(77.487468 0) scale(0.996264)"/>
       <use xlink:href="#CMMI12-3a" transform="translate(123.177945 0) scale(0.996264)"/>
       <use xlink:href="#CMR17-30" transform="translate(150.275122 0) scale(0.996264)"/>
      </g>
     </g>
    </g>
    <g id="ytick_2">
     <g id="line2d_10">
      <g>
       <use xlink:href="#mc9da5119fb" x="33.707196" y="158.329803" style="stroke: #000000; stroke-width: 0.8"/>
      </g>
     </g>
     <g id="text_11">
      <!-- $\mathdefault{−0.8}$ -->
      <g transform="translate(7.2 161.097204) scale(0.08 -0.08)">
       <defs>
        <path id="CMR17-38" d="M 1741 2264 
C 2144 2467 2554 2773 2554 3263 
C 2554 3841 1990 4179 1472 4179 
C 890 4179 378 3759 378 3180 
C 378 3021 416 2747 666 2505 
C 730 2442 998 2251 1171 2130 
C 883 1983 211 1634 211 934 
C 211 279 838 -128 1459 -128 
C 2144 -128 2720 362 2720 1010 
C 2720 1590 2330 1857 2074 2029 
L 1741 2264 
z
M 902 2822 
C 851 2854 595 3051 595 3351 
C 595 3739 998 4032 1459 4032 
C 1965 4032 2336 3676 2336 3262 
C 2336 2669 1670 2331 1638 2331 
C 1632 2331 1626 2331 1574 2370 
L 902 2822 
z
M 2080 1519 
C 2176 1449 2483 1240 2483 851 
C 2483 381 2010 25 1472 25 
C 890 25 448 438 448 940 
C 448 1443 838 1862 1280 2060 
L 2080 1519 
z
" transform="scale(0.015625)"/>
       </defs>
       <use xlink:href="#CMSY10-0" transform="scale(0.996264)"/>
       <use xlink:href="#CMR17-30" transform="translate(77.487468 0) scale(0.996264)"/>
       <use xlink:href="#CMMI12-3a" transform="translate(123.177945 0) scale(0.996264)"/>
       <use xlink:href="#CMR17-38" transform="translate(150.275122 0) scale(0.996264)"/>
      </g>
     </g>
    </g>
    <g id="ytick_3">
     <g id="line2d_11">
      <g>
       <use xlink:href="#mc9da5119fb" x="33.707196" y="122.980279" style="stroke: #000000; stroke-width: 0.8"/>
      </g>
     </g>
     <g id="text_12">
      <!-- $\mathdefault{−0.6}$ -->
      <g transform="translate(7.2 125.747679) scale(0.08 -0.08)">
       <defs>
        <path id="CMR17-36" d="M 678 2176 
C 678 3690 1395 4032 1811 4032 
C 1946 4032 2272 4009 2400 3776 
C 2298 3776 2106 3776 2106 3553 
C 2106 3381 2246 3323 2336 3323 
C 2394 3323 2566 3348 2566 3560 
C 2566 3954 2246 4179 1805 4179 
C 1043 4179 243 3390 243 1984 
C 243 253 966 -128 1478 -128 
C 2099 -128 2688 427 2688 1283 
C 2688 2081 2170 2662 1517 2662 
C 1126 2662 838 2407 678 1960 
L 678 2176 
z
M 1478 25 
C 691 25 691 1200 691 1436 
C 691 1896 909 2560 1504 2560 
C 1613 2560 1926 2560 2138 2120 
C 2253 1870 2253 1609 2253 1289 
C 2253 944 2253 690 2118 434 
C 1978 171 1773 25 1478 25 
z
" transform="scale(0.015625)"/>
       </defs>
       <use xlink:href="#CMSY10-0" transform="scale(0.996264)"/>
       <use xlink:href="#CMR17-30" transform="translate(77.487468 0) scale(0.996264)"/>
       <use xlink:href="#CMMI12-3a" transform="translate(123.177945 0) scale(0.996264)"/>
       <use xlink:href="#CMR17-36" transform="translate(150.275122 0) scale(0.996264)"/>
      </g>
     </g>
    </g>
    <g id="ytick_4">
     <g id="line2d_12">
      <g>
       <use xlink:href="#mc9da5119fb" x="33.707196" y="87.630754" style="stroke: #000000; stroke-width: 0.8"/>
      </g>
     </g>
     <g id="text_13">
      <!-- $\mathdefault{−0.4}$ -->
      <g transform="translate(7.2 90.398155) scale(0.08 -0.08)">
       <defs>
        <path id="CMR17-34" d="M 2150 4122 
C 2150 4256 2144 4256 2029 4256 
L 128 1254 
L 128 1088 
L 1779 1088 
L 1779 457 
C 1779 224 1766 160 1318 160 
L 1197 160 
L 1197 0 
C 1402 0 1747 0 1965 0 
C 2182 0 2528 0 2733 0 
L 2733 160 
L 2611 160 
C 2163 160 2150 224 2150 457 
L 2150 1088 
L 2803 1088 
L 2803 1254 
L 2150 1254 
L 2150 4122 
z
M 1798 3703 
L 1798 1254 
L 256 1254 
L 1798 3703 
z
" transform="scale(0.015625)"/>
       </defs>
       <use xlink:href="#CMSY10-0" transform="scale(0.996264)"/>
       <use xlink:href="#CMR17-30" transform="translate(77.487468 0) scale(0.996264)"/>
       <use xlink:href="#CMMI12-3a" transform="translate(123.177945 0) scale(0.996264)"/>
       <use xlink:href="#CMR17-34" transform="translate(150.275122 0) scale(0.996264)"/>
      </g>
     </g>
    </g>
    <g id="ytick_5">
     <g id="line2d_13">
      <g>
       <use xlink:href="#mc9da5119fb" x="33.707196" y="52.281229" style="stroke: #000000; stroke-width: 0.8"/>
      </g>
     </g>
     <g id="text_14">
      <!-- $\mathdefault{−0.2}$ -->
      <g transform="translate(7.2 55.04863) scale(0.08 -0.08)">
       <use xlink:href="#CMSY10-0" transform="scale(0.996264)"/>
       <use xlink:href="#CMR17-30" transform="translate(77.487468 0) scale(0.996264)"/>
       <use xlink:href="#CMMI12-3a" transform="translate(123.177945 0) scale(0.996264)"/>
       <use xlink:href="#CMR17-32" transform="translate(150.275122 0) scale(0.996264)"/>
      </g>
     </g>
    </g>
    <g id="ytick_6">
     <g id="line2d_14">
      <g>
       <use xlink:href="#mc9da5119fb" x="33.707196" y="16.931705" style="stroke: #000000; stroke-width: 0.8"/>
      </g>
     </g>
     <g id="text_15">
      <!-- $\mathdefault{0.0}$ -->
      <g transform="translate(13.786507 19.699105) scale(0.08 -0.08)">
       <use xlink:href="#CMR17-30" transform="scale(0.996264)"/>
       <use xlink:href="#CMMI12-3a" transform="translate(45.690477 0) scale(0.996264)"/>
       <use xlink:href="#CMR17-30" transform="translate(72.787654 0) scale(0.996264)"/>
      </g>
     </g>
    </g>
   </g>
   <g id="line2d_15">
    <path d="M 43.356847 193.679328 
L 43.421178 193.44241 
L 43.54984 191.581087 
L 43.807164 183.107528 
L 44.900791 138.267796 
L 45.158115 135.720891 
L 45.222446 135.656901 
L 45.351108 136.13975 
L 45.544101 138.169579 
L 45.994419 146.510866 
L 46.573398 156.586164 
L 46.895053 159.191199 
L 47.088046 159.651354 
L 47.216708 159.591712 
L 47.409701 159.122083 
L 48.117342 157.096226 
L 48.310335 157.129202 
L 48.503328 157.468415 
L 48.889314 158.783171 
L 49.596955 161.221839 
L 49.982941 161.77746 
L 50.304596 161.867603 
L 50.947906 161.958024 
L 51.333892 162.267349 
L 51.912871 163.09594 
L 52.684843 164.602371 
L 53.199491 165.524843 
L 53.392484 165.599578 
L 53.585477 165.414974 
L 53.842801 164.642129 
L 54.164456 162.619979 
L 54.550442 158.468864 
L 55.065091 150.262904 
L 57.574 105.662017 
L 58.281641 98.237257 
L 59.117944 92.002307 
L 59.954247 87.008835 
L 60.854881 82.037173 
L 61.369529 79.721473 
L 62.784811 74.675126 
L 63.299459 72.915095 
L 64.135763 70.981927 
L 64.714742 69.53354 
L 65.486714 67.545225 
L 66.130024 66.409162 
L 66.451679 65.864846 
L 66.709003 65.82182 
L 67.030658 65.800976 
L 68.317278 64.855549 
L 68.703264 64.25132 
L 69.475236 62.943919 
L 69.73256 63.031186 
L 70.054215 63.155007 
L 70.311539 62.982637 
L 70.697525 62.709747 
L 71.01918 62.767713 
L 71.405166 62.818663 
L 71.726821 62.589017 
L 73.077773 61.320383 
L 73.721083 61.200842 
L 74.1714 60.839462 
L 74.686048 60.430385 
L 74.943372 60.459675 
L 75.586682 60.689901 
L 75.908337 60.457428 
L 76.229992 59.982642 
L 76.615978 58.962627 
L 77.323619 56.467072 
L 77.838267 53.585762 
L 79.703866 41.898042 
L 80.154183 40.935713 
L 80.861824 40.140316 
L 82.019783 39.160863 
L 83.306403 38.913157 
L 84.142706 38.65822 
L 84.40003 38.805209 
L 85.429326 39.726594 
L 85.815312 39.928612 
L 86.136967 40.379921 
L 86.522953 41.350728 
L 87.037601 43.352908 
L 87.680911 46.775418 
L 88.25989 51.076822 
L 88.967531 58.245696 
L 92.119751 93.408058 
L 93.020385 100.521392 
L 93.98535 106.470954 
L 94.885984 110.605642 
L 95.850949 114.133827 
L 96.815914 116.841676 
L 98.038203 119.545094 
L 98.810175 120.722298 
L 100.161127 122.322335 
L 101.190423 123.167228 
L 101.898064 123.50352 
L 103.377677 123.893093 
L 104.792959 124.574574 
L 105.886586 124.80117 
L 108.524158 125.343646 
L 108.781482 125.824889 
L 109.038806 126.766422 
L 109.360461 128.829285 
L 109.810778 133.554125 
L 111.097398 148.741557 
L 111.419053 150.191047 
L 111.740708 150.748155 
L 112.577011 151.542283 
L 112.962997 152.511996 
L 114.056624 155.483856 
L 114.828596 156.700087 
L 115.793561 158.383791 
L 117.659161 161.668055 
L 117.852154 161.698699 
L 118.045147 161.452602 
L 118.302471 160.541545 
L 118.624126 158.246959 
L 119.010112 153.652943 
L 119.653422 142.608603 
L 121.390359 111.640688 
L 122.226662 100.613507 
L 122.998634 93.856308 
L 123.899268 87.848067 
L 124.928564 82.340793 
L 126.665502 75.322098 
L 127.630467 72.8584 
L 128.46677 70.519945 
L 130.010714 67.545348 
L 130.847017 65.757709 
L 131.747651 64.889299 
L 132.069306 64.529501 
L 132.905609 63.418033 
L 133.355926 63.164055 
L 133.741912 62.96087 
L 134.771209 62.027014 
L 135.864836 61.424287 
L 136.508146 60.886675 
L 136.894132 61.00522 
L 137.215787 60.993376 
L 137.601773 60.6721 
L 138.116421 60.286209 
L 138.952724 60.14416 
L 139.531703 59.852906 
L 140.496668 59.783277 
L 140.753992 59.589101 
L 141.075647 58.922071 
L 141.525964 57.38527 
L 141.976281 54.970093 
L 142.55526 50.580087 
L 143.327232 44.611321 
L 143.648888 43.453623 
L 144.034874 42.897249 
L 144.485191 42.135786 
L 145.514487 40.43833 
L 146.029135 39.963804 
L 146.415121 39.853386 
L 146.801107 39.789205 
L 147.122762 39.384382 
L 147.766072 38.468402 
L 148.023396 38.362144 
L 148.345051 38.520993 
L 149.117023 38.976426 
L 149.56734 39.221979 
L 149.953326 39.817494 
L 150.467974 41.011121 
L 151.111284 43.247375 
L 151.947587 46.628432 
L 152.462235 49.991193 
L 153.105546 55.874715 
L 154.134842 67.816991 
L 155.678786 85.463818 
L 156.772413 95.519248 
L 157.737378 102.423564 
L 158.702343 107.72977 
L 159.731639 112.160314 
L 160.567942 114.823093 
L 161.790232 117.858829 
L 162.819528 119.719895 
L 163.913155 121.487417 
L 164.556465 122.150555 
L 166.100409 123.269006 
L 167.966008 124.482336 
L 169.059635 124.766419 
L 171.24689 124.791952 
L 171.954531 124.759793 
L 172.597841 124.980338 
L 172.919496 125.326927 
L 173.17682 125.943296 
L 173.498475 127.421451 
L 173.884461 130.574171 
L 174.399109 136.990963 
L 175.235412 147.316767 
L 175.621398 149.776019 
L 175.943053 150.650107 
L 176.264708 150.891609 
L 176.650694 151.094413 
L 176.972349 151.574609 
L 177.358335 152.592911 
L 178.451962 155.759948 
L 179.159603 156.892273 
L 179.995907 158.138477 
L 182.11883 161.914396 
L 182.311823 161.774356 
L 182.504816 161.307958 
L 182.76214 160.020932 
L 183.083795 157.161858 
L 183.534112 150.873727 
L 184.499077 132.864085 
L 185.850028 109.617378 
L 186.622 100.130486 
L 187.329641 93.586701 
L 188.037282 89.563742 
L 189.77422 80.723505 
L 192.34746 71.621758 
L 193.183763 69.90246 
L 193.698411 68.698737 
L 194.213059 67.472138 
L 194.534714 67.207396 
L 194.985031 66.951755 
L 195.371017 66.415843 
L 196.014327 65.447955 
L 196.593306 64.979857 
L 197.42961 63.73635 
L 198.330244 63.39088 
L 199.681195 61.790188 
L 200.581829 61.421819 
L 200.967815 61.237901 
L 201.482463 61.122884 
L 201.868449 60.990567 
L 202.383097 61.02442 
L 203.283731 60.542902 
L 203.927041 60.510293 
L 204.570351 60.74332 
L 204.892006 60.639816 
L 205.14933 60.286564 
L 205.470985 59.349302 
L 206.049965 56.651202 
L 206.500282 53.664624 
L 207.722571 44.668029 
L 208.237219 42.418362 
L 208.558874 41.833552 
L 210.424473 40.094383 
L 211.196445 39.731585 
L 211.839755 39.121242 
L 212.354403 39.121913 
L 212.740389 39.216023 
L 213.898347 39.908372 
L 214.348664 40.327295 
L 214.798981 41.073885 
L 215.31363 42.32137 
L 215.828278 44.268493 
L 216.342926 47.11285 
L 216.986236 52.069141 
L 217.822539 60.6608 
L 220.653103 91.815998 
L 221.682399 100.488373 
L 222.454371 105.340133 
L 223.419336 109.852067 
L 224.448633 113.734505 
L 225.606591 117.149756 
L 226.442894 118.999253 
L 227.407859 120.581683 
L 228.372824 121.61535 
L 229.273458 122.377195 
L 230.68874 123.233151 
L 231.653705 123.703833 
L 232.940326 124.389234 
L 233.647967 124.488158 
L 235.577897 124.693852 
L 236.349869 124.820302 
L 236.349869 124.820302 
" clip-path="url(#p00525b8256)" style="fill: none; stroke: #1f77b4; stroke-width: 0.5; stroke-linecap: square"/>
   </g>
   <g id="line2d_16">
    <path d="M 43.356847 16.931705 
L 44.257481 16.589982 
L 45.222446 16.511605 
L 52.684843 16.606353 
L 55.386746 16.528475 
L 58.538965 16.442376 
L 84.142706 16.410427 
L 112.448349 16.558006 
L 120.489725 16.485506 
L 124.67124 16.434671 
L 174.785095 16.529826 
L 178.580624 16.57403 
L 184.563408 16.497146 
L 188.423269 16.437544 
L 215.184968 16.415792 
L 236.349869 16.481004 
L 236.349869 16.481004 
" clip-path="url(#p00525b8256)" style="fill: none; stroke: #ff7f0e; stroke-width: 0.5; stroke-linecap: square"/>
   </g>
   <g id="line2d_17">
    <path d="M 43.356847 16.931705 
L 44.128819 16.815325 
L 45.286777 16.837354 
L 46.573398 17.137617 
L 47.924349 16.516469 
L 48.503328 16.786648 
L 49.2753 17.194971 
L 49.661286 17.118842 
L 50.883575 16.641762 
L 51.462554 16.85889 
L 52.298857 17.118458 
L 52.749174 17.015872 
L 53.77847 16.632764 
L 54.293118 16.77111 
L 55.451077 17.176379 
L 56.673366 17.230436 
L 57.638331 16.812186 
L 58.281641 17.035563 
L 58.731958 16.794172 
L 59.182275 16.658821 
L 59.568261 16.771588 
L 60.275902 17.062548 
L 60.726219 16.829276 
L 61.43386 16.511515 
L 62.398825 16.431646 
L 62.784811 16.606026 
L 63.621115 17.150983 
L 64.135763 17.188368 
L 65.422383 16.971996 
L 66.901996 16.630232 
L 67.80263 16.972837 
L 69.668229 17.231636 
L 70.054215 16.926537 
L 70.440201 16.695284 
L 70.954849 16.72242 
L 71.919814 16.805733 
L 72.434463 16.551534 
L 72.88478 16.425196 
L 74.364393 16.525264 
L 75.586682 16.869411 
L 75.908337 16.752178 
L 77.001964 16.084414 
L 77.452281 16.258539 
L 78.481577 16.670773 
L 78.996225 16.600593 
L 80.347176 16.178819 
L 80.926155 16.436086 
L 81.633797 16.795491 
L 83.049079 17.084112 
L 84.207037 17.451103 
L 84.850347 17.345008 
L 86.265629 16.931837 
L 87.230594 17.088244 
L 88.452883 17.176388 
L 89.482179 17.173314 
L 92.184082 16.658004 
L 94.307005 17.212439 
L 95.336301 17.410644 
L 96.108273 17.384461 
L 96.622921 17.09443 
L 97.909541 16.265218 
L 98.48852 16.159865 
L 99.71081 16.309029 
L 100.289789 16.567294 
L 102.219719 17.795616 
L 103.056022 17.719085 
L 106.015248 17.648548 
L 108.331165 17.648489 
L 109.103137 17.310835 
L 109.875109 17.009862 
L 110.325426 17.045531 
L 111.86937 17.47098 
L 112.319687 17.340154 
L 113.670638 16.744088 
L 114.120955 17.079463 
L 114.892927 17.663284 
L 115.214582 17.627368 
L 115.72923 17.23282 
L 116.501202 16.687085 
L 116.887189 16.705108 
L 117.401837 17.059685 
L 117.980816 17.38696 
L 118.366802 17.376667 
L 118.88145 17.093418 
L 119.782084 16.630164 
L 120.489725 16.513758 
L 121.068704 16.683234 
L 121.583352 16.785115 
L 122.483986 16.77726 
L 123.320289 17.001924 
L 124.285254 16.908085 
L 124.928564 16.950636 
L 126.343847 16.648681 
L 126.665502 16.937119 
L 127.501805 17.905526 
L 127.759129 17.88154 
L 128.145115 17.563748 
L 129.11008 16.514743 
L 129.367404 16.774464 
L 130.010714 17.615762 
L 130.268038 17.567551 
L 130.654024 17.121499 
L 131.168672 16.625142 
L 131.554658 16.546536 
L 132.004975 16.686836 
L 132.455292 17.072641 
L 132.905609 17.432862 
L 133.162933 17.384783 
L 134.25656 16.782216 
L 134.578215 16.91928 
L 135.414519 17.482173 
L 135.736174 17.413664 
L 136.829801 16.788649 
L 137.794766 16.914952 
L 138.373745 17.043512 
L 138.824062 17.101617 
L 139.33871 16.851123 
L 139.853358 16.747357 
L 140.560999 16.833906 
L 141.847619 17.072785 
L 142.490929 17.041041 
L 143.77755 16.754875 
L 144.42086 16.809209 
L 146.35079 16.560036 
L 146.9941 16.649185 
L 148.023396 17.042563 
L 149.438678 16.738191 
L 150.467974 16.864708 
L 151.239946 16.728199 
L 151.947587 16.694527 
L 152.848222 16.67075 
L 153.620194 16.62657 
L 155.743117 16.909442 
L 156.57942 16.95747 
L 157.094068 16.895557 
L 158.252026 16.625539 
L 159.216991 16.695111 
L 161.018259 17.221855 
L 161.66157 17.167041 
L 162.819528 17.018673 
L 163.977486 17.116446 
L 165.52143 16.90107 
L 166.615057 16.750647 
L 168.73798 17.225877 
L 169.895938 17.682096 
L 170.410587 17.620672 
L 171.697207 17.152293 
L 172.469179 16.956146 
L 173.305482 16.997152 
L 174.720764 17.178476 
L 175.299743 16.799708 
L 175.75006 16.634788 
L 176.200377 16.740504 
L 177.744321 17.296398 
L 178.3233 17.106746 
L 179.288266 16.708319 
L 179.802914 16.784557 
L 180.83221 17.009696 
L 181.47552 16.813454 
L 182.054499 16.747816 
L 183.662774 16.921116 
L 184.499077 17.055657 
L 185.013725 16.849637 
L 185.721366 16.579269 
L 186.107352 16.715389 
L 187.007986 17.161268 
L 187.586965 17.094758 
L 189.066579 16.741137 
L 189.838551 16.823431 
L 191.06084 17.29984 
L 191.511157 17.130236 
L 192.218798 16.829261 
L 192.540453 16.953346 
L 193.248094 17.330152 
L 193.63408 17.307466 
L 194.27739 16.963516 
L 194.792038 16.805197 
L 195.499679 16.803041 
L 196.271651 16.904077 
L 197.236617 16.581745 
L 197.622603 16.851064 
L 198.330244 17.406172 
L 198.844892 17.429276 
L 199.35954 17.277466 
L 200.453167 16.667852 
L 201.160808 16.908629 
L 201.868449 17.225639 
L 202.254435 17.324339 
L 202.833414 17.178148 
L 203.348062 16.793621 
L 204.055703 16.14331 
L 204.441689 16.152191 
L 204.892006 16.402938 
L 205.406654 17.104259 
L 205.728309 17.382241 
L 205.985634 17.311222 
L 207.143592 16.473779 
L 209.266515 16.401757 
L 210.23148 16.777316 
L 211.067783 16.668573 
L 212.676058 16.553609 
L 214.991975 17.14707 
L 216.278595 17.223971 
L 216.793243 16.990793 
L 217.565215 16.617355 
L 218.144194 16.605506 
L 219.366483 16.743706 
L 220.781765 16.649555 
L 221.489406 16.425504 
L 221.939723 16.525204 
L 222.904688 16.818343 
L 223.67666 17.018634 
L 224.641626 17.210807 
L 225.477929 17.058282 
L 226.249901 17.062505 
L 227.729514 17.161408 
L 228.308493 16.981746 
L 229.723775 16.447664 
L 230.238423 16.432529 
L 230.753071 16.655318 
L 231.911029 17.293035 
L 232.747333 17.476027 
L 233.261981 17.321468 
L 234.226946 16.90648 
L 235.256242 16.915914 
L 236.349869 17.14109 
L 236.349869 17.14109 
" clip-path="url(#p00525b8256)" style="fill: none; stroke: #2ca02c; stroke-width: 0.5; stroke-linecap: square"/>
   </g>
   <g id="patch_3">
    <path d="M 33.707196 202.559296 
L 33.707196 7.2 
" style="fill: none; stroke: #000000; stroke-width: 0.8; stroke-linejoin: miter; stroke-linecap: square"/>
   </g>
   <g id="patch_4">
    <path d="M 245.99952 202.559296 
L 245.99952 7.2 
" style="fill: none; stroke: #000000; stroke-width: 0.8; stroke-linejoin: miter; stroke-linecap: square"/>
   </g>
   <g id="patch_5">
    <path d="M 33.707196 202.559296 
L 245.99952 202.559296 
" style="fill: none; stroke: #000000; stroke-width: 0.8; stroke-linejoin: miter; stroke-linecap: square"/>
   </g>
   <g id="patch_6">
    <path d="M 33.707196 7.2 
L 245.99952 7.2 
" style="fill: none; stroke: #000000; stroke-width: 0.8; stroke-linejoin: miter; stroke-linecap: square"/>
   </g>
   <g id="legend_1">
    <g id="patch_7">
     <path d="M 193.792605 198.059296 
L 239.69952 198.059296 
Q 241.49952 198.059296 241.49952 196.259296 
L 241.49952 156.760168 
Q 241.49952 154.960168 239.69952 154.960168 
L 193.792605 154.960168 
Q 191.992605 154.960168 191.992605 156.760168 
L 191.992605 196.259296 
Q 191.992605 198.059296 193.792605 198.059296 
z
" style="fill: #ffffff; opacity: 0.8; stroke: #cccccc; stroke-width: 0.24; stroke-linejoin: miter"/>
    </g>
    <g id="line2d_18">
     <path d="M 195.592605 162.13495 
L 204.592605 162.13495 
L 213.592605 162.13495 
" style="fill: none; stroke: #1f77b4; stroke-width: 0.5; stroke-linecap: square"/>
    </g>
    <g id="text_16">
     <!-- $\langle \sigma_z\rangle$ -->
     <g transform="translate(220.792605 165.28495) scale(0.09 -0.09)">
      <defs>
       <path id="CMSY10-68" d="M 2099 4557 
C 2131 4627 2131 4640 2131 4672 
C 2131 4742 2074 4800 2003 4800 
C 1946 4800 1901 4768 1856 4653 
L 736 1715 
C 723 1677 704 1638 704 1600 
C 704 1581 704 1568 736 1491 
L 1856 -1446 
C 1882 -1517 1914 -1600 2003 -1600 
C 2074 -1600 2131 -1542 2131 -1472 
C 2131 -1453 2131 -1440 2099 -1370 
L 966 1600 
L 2099 4557 
z
" transform="scale(0.015625)"/>
       <path id="CMMI12-1b" d="M 3251 2408 
C 3334 2408 3546 2408 3546 2612 
C 3546 2752 3424 2752 3309 2752 
L 1894 2752 
C 934 2752 243 1686 243 932 
C 243 390 595 -64 1171 -64 
C 1926 -64 2752 747 2752 1705 
C 2752 1954 2694 2196 2541 2408 
L 3251 2408 
z
M 1178 64 
C 851 64 614 313 614 754 
C 614 1137 845 2408 1786 2408 
C 2061 2408 2368 2274 2368 1781 
C 2368 1558 2266 1021 2042 652 
C 1811 275 1466 64 1178 64 
z
" transform="scale(0.015625)"/>
       <path id="CMMI12-7a" d="M 813 486 
C 1088 803 1312 1004 1632 1296 
C 2016 1632 2182 1793 2272 1891 
C 2720 2338 2944 2713 2944 2764 
C 2944 2816 2893 2816 2880 2816 
C 2835 2816 2822 2793 2790 2750 
C 2630 2494 2477 2367 2310 2367 
C 2176 2367 2106 2421 1984 2565 
C 1850 2715 1741 2816 1555 2816 
C 1088 2816 806 2257 806 2128 
C 806 2108 813 2068 870 2068 
C 922 2068 928 2091 947 2133 
C 1056 2372 1363 2414 1485 2414 
C 1619 2414 1747 2376 1882 2327 
C 2125 2240 2227 2240 2291 2240 
C 2336 2240 2362 2240 2394 2246 
C 2182 1994 1837 1683 1549 1418 
L 902 816 
C 512 415 275 33 275 -12 
C 275 -51 307 -64 346 -64 
C 384 -64 390 -57 435 14 
C 538 163 742 384 979 384 
C 1114 384 1178 342 1306 193 
C 1427 61 1536 -64 1741 -64 
C 2368 -64 2726 732 2726 876 
C 2726 903 2720 942 2656 942 
C 2605 942 2598 917 2579 855 
C 2438 488 2061 338 1811 338 
C 1677 338 1549 376 1414 425 
C 1158 512 1088 512 1005 512 
C 941 512 870 512 813 486 
z
" transform="scale(0.015625)"/>
       <path id="CMSY10-69" d="M 1747 1491 
C 1779 1568 1779 1581 1779 1600 
C 1779 1619 1779 1632 1747 1709 
L 627 4653 
C 589 4762 550 4800 480 4800 
C 410 4800 352 4742 352 4672 
C 352 4653 352 4640 384 4570 
L 1517 1600 
L 384 -1357 
C 352 -1427 352 -1440 352 -1472 
C 352 -1542 410 -1600 480 -1600 
C 563 -1600 589 -1536 614 -1472 
L 1747 1491 
z
" transform="scale(0.015625)"/>
      </defs>
      <use xlink:href="#CMSY10-68" transform="scale(0.996264)"/>
      <use xlink:href="#CMMI12-1b" transform="translate(38.743734 0) scale(0.996264)"/>
      <use xlink:href="#CMMI12-7a" transform="translate(94.189195 -14.943915) scale(0.697382)"/>
      <use xlink:href="#CMSY10-69" transform="translate(129.51575 0) scale(0.996264)"/>
     </g>
    </g>
    <g id="line2d_19">
     <path d="M 195.592605 175.601326 
L 204.592605 175.601326 
L 213.592605 175.601326 
" style="fill: none; stroke: #ff7f0e; stroke-width: 0.5; stroke-linecap: square"/>
    </g>
    <g id="text_17">
     <!-- $\langle \sigma_x\rangle$ -->
     <g transform="translate(220.792605 178.751326) scale(0.09 -0.09)">
      <defs>
       <path id="CMMI12-78" d="M 3034 2606 
C 2829 2567 2752 2414 2752 2293 
C 2752 2139 2874 2088 2963 2088 
C 3155 2088 3290 2254 3290 2427 
C 3290 2695 2982 2816 2714 2816 
C 2323 2816 2106 2433 2048 2312 
C 1901 2816 1504 2816 1389 2816 
C 736 2816 390 1980 390 1839 
C 390 1814 416 1782 461 1782 
C 512 1782 525 1820 538 1846 
C 755 2555 1184 2689 1370 2689 
C 1658 2689 1715 2420 1715 2267 
C 1715 2127 1677 1980 1600 1673 
L 1382 798 
C 1286 415 1101 64 762 64 
C 730 64 570 64 435 147 
C 666 192 717 383 717 460 
C 717 588 621 664 499 664 
C 346 664 179 530 179 326 
C 179 57 480 -64 755 -64 
C 1062 -64 1280 179 1414 441 
C 1517 64 1837 -64 2074 -64 
C 2726 -64 3072 773 3072 913 
C 3072 945 3046 971 3008 971 
C 2950 971 2944 939 2925 888 
C 2752 326 2381 64 2093 64 
C 1869 64 1747 230 1747 492 
C 1747 632 1773 734 1875 1156 
L 2099 2024 
C 2195 2408 2413 2689 2707 2689 
C 2720 2689 2899 2689 3034 2606 
z
" transform="scale(0.015625)"/>
      </defs>
      <use xlink:href="#CMSY10-68" transform="scale(0.996264)"/>
      <use xlink:href="#CMMI12-1b" transform="translate(38.743734 0) scale(0.996264)"/>
      <use xlink:href="#CMMI12-78" transform="translate(94.189195 -14.943915) scale(0.697382)"/>
      <use xlink:href="#CMSY10-69" transform="translate(133.490986 0) scale(0.996264)"/>
     </g>
    </g>
    <g id="line2d_20">
     <path d="M 195.592605 189.067702 
L 204.592605 189.067702 
L 213.592605 189.067702 
" style="fill: none; stroke: #2ca02c; stroke-width: 0.5; stroke-linecap: square"/>
    </g>
    <g id="text_18">
     <!-- $\langle \sigma_y\rangle$ -->
     <g transform="translate(220.792605 192.217702) scale(0.09 -0.09)">
      <defs>
       <path id="CMMI12-79" d="M 1683 -700 
C 1510 -939 1261 -1152 947 -1152 
C 870 -1152 563 -1152 467 -889 
C 486 -895 518 -895 531 -895 
C 723 -895 851 -729 851 -582 
C 851 -435 730 -384 634 -384 
C 531 -384 307 -458 307 -759 
C 307 -1071 582 -1286 947 -1286 
C 1587 -1286 2234 -700 2413 6 
L 3040 2485 
C 3046 2517 3059 2556 3059 2594 
C 3059 2689 2982 2753 2886 2753 
C 2829 2753 2694 2727 2643 2535 
L 2170 658 
C 2138 543 2138 530 2086 460 
C 1958 281 1747 64 1440 64 
C 1082 64 1050 415 1050 588 
C 1050 952 1222 1443 1395 1903 
C 1466 2088 1504 2178 1504 2305 
C 1504 2574 1312 2816 998 2816 
C 410 2816 173 1890 173 1839 
C 173 1814 198 1782 243 1782 
C 301 1782 307 1807 333 1897 
C 486 2433 730 2689 979 2689 
C 1037 2689 1146 2689 1146 2478 
C 1146 2312 1075 2127 979 1884 
C 666 1047 666 837 666 683 
C 666 77 1101 -64 1421 -64 
C 1606 -64 1837 -6 2061 230 
L 2067 224 
C 1971 -147 1907 -392 1683 -700 
z
" transform="scale(0.015625)"/>
      </defs>
      <use xlink:href="#CMSY10-68" transform="scale(0.996264)"/>
      <use xlink:href="#CMMI12-1b" transform="translate(38.743734 0) scale(0.996264)"/>
      <use xlink:href="#CMMI12-79" transform="translate(94.189195 -14.943915) scale(0.697382)"/>
      <use xlink:href="#CMSY10-69" transform="translate(130.484301 0) scale(0.996264)"/>
     </g>
    </g>
   </g>
  </g>
 </g>
 <defs>
  <clipPath id="p00525b8256">
   <rect x="33.707196" y="7.2" width="212.292324" height="195.359296"/>
  </clipPath>
 </defs>
</svg>
