<?xml version="1.0" encoding="utf-8" standalone="no"?>
<!DOCTYPE svg PUBLIC "-//W3C//DTD SVG 1.1//EN"
  "http://www.w3.org/Graphics/SVG/1.1/DTD/svg11.dtd">
<svg xmlns:xlink="http://www.w3.org/1999/xlink" width="253.19952pt" height="238.79952pt" viewBox="0 0 253.19952 238.79952" xmlns="http://www.w3.org/2000/svg" version="1.1">
 <metadata>
  <rdf:RDF xmlns:dc="http://purl.org/dc/elements/1.1/" xmlns:cc="http://creativecommons.org/ns#" xmlns:rdf="http://www.w3.org/1999/02/22-rdf-syntax-ns#">
   <cc:Work>
    <dc:type rdf:resource="http://purl.org/dc/dcmitype/StillImage"/>
    <dc:date>1980-01-01T00:00:00+00:00</dc:date>
    <dc:format>image/svg+xml</dc:format>
    <dc:creator>
     <cc:Agent>
      <dc:title>Matplotlib v3.6.2, https://matplotlib.org/</dc:title>
     </cc:Agent>
    </dc:creator>
   </cc:Work>
  </rdf:RDF>
 </metadata>
 <defs>
  <style type="text/css">*{stroke-linejoin: round; stroke-linecap: butt}</style>
 </defs>
 <g id="figure_1">
  <g id="patch_1">
   <path d="M 0 238.79952 
L 253.19952 238.79952 
L 253.19952 0 
L 0 0 
z
" style="fill: #ffffff"/>
  </g>
  <g id="axes_1">
   <g id="patch_2">
    <path d="M 33.707196 202.559296 
L 245.99952 202.559296 
L 245.99952 7.2 
L 33.707196 7.2 
z
" style="fill: #ffffff"/>
   </g>
   <g id="matplotlib.axis_1">
    <g id="xtick_1">
     <g id="line2d_1">
      <defs>
       <path id="mb10c8e0211" d="M 0 0 
L 0 3.5 
" style="stroke: #000000; stroke-width: 0.8"/>
      </defs>
      <g>
       <use xlink:href="#mb10c8e0211" x="43.356847" y="202.559296" style="stroke: #000000; stroke-width: 0.8"/>
      </g>
     </g>
     <g id="text_1">
      <!-- $\mathdefault{0}$ -->
      <g transform="translate(41.239756 217.194098) scale(0.08 -0.08)">
       <defs>
        <path id="CMR17-30" d="M 2688 2025 
C 2688 2416 2682 3080 2413 3591 
C 2176 4039 1798 4198 1466 4198 
C 1158 4198 768 4058 525 3597 
C 269 3118 243 2524 243 2025 
C 243 1661 250 1106 448 619 
C 723 -39 1216 -128 1466 -128 
C 1760 -128 2208 -7 2470 600 
C 2662 1042 2688 1559 2688 2025 
z
M 1466 -26 
C 1056 -26 813 325 723 812 
C 653 1188 653 1738 653 2096 
C 653 2588 653 2997 736 3387 
C 858 3929 1216 4096 1466 4096 
C 1728 4096 2067 3923 2189 3400 
C 2272 3036 2278 2607 2278 2096 
C 2278 1680 2278 1169 2202 792 
C 2067 95 1690 -26 1466 -26 
z
" transform="scale(0.015625)"/>
       </defs>
       <use xlink:href="#CMR17-30" transform="scale(0.996264)"/>
      </g>
     </g>
    </g>
    <g id="xtick_2">
     <g id="line2d_2">
      <g>
       <use xlink:href="#mb10c8e0211" x="70.161434" y="202.559296" style="stroke: #000000; stroke-width: 0.8"/>
      </g>
     </g>
     <g id="text_2">
      <!-- $\mathdefault{25}$ -->
      <g transform="translate(65.927251 217.194098) scale(0.08 -0.08)">
       <defs>
        <path id="CMR17-32" d="M 2669 989 
L 2554 989 
C 2490 536 2438 459 2413 420 
C 2381 369 1920 369 1830 369 
L 602 369 
C 832 619 1280 1072 1824 1597 
C 2214 1967 2669 2402 2669 3035 
C 2669 3790 2067 4224 1395 4224 
C 691 4224 262 3604 262 3030 
C 262 2780 448 2748 525 2748 
C 589 2748 781 2787 781 3010 
C 781 3207 614 3264 525 3264 
C 486 3264 448 3258 422 3245 
C 544 3790 915 4058 1306 4058 
C 1862 4058 2227 3617 2227 3035 
C 2227 2479 1901 2000 1536 1584 
L 262 146 
L 262 0 
L 2515 0 
L 2669 989 
z
" transform="scale(0.015625)"/>
        <path id="CMR17-35" d="M 730 3692 
C 794 3666 1056 3584 1325 3584 
C 1920 3584 2246 3911 2432 4100 
C 2432 4157 2432 4192 2394 4192 
C 2387 4192 2374 4192 2323 4163 
C 2099 4058 1837 3973 1517 3973 
C 1325 3973 1037 3999 723 4139 
C 653 4171 640 4171 634 4171 
C 602 4171 595 4164 595 4037 
L 595 2203 
C 595 2089 595 2057 659 2057 
C 691 2057 704 2070 736 2114 
C 941 2401 1222 2522 1542 2522 
C 1766 2522 2246 2382 2246 1289 
C 2246 1085 2246 715 2054 421 
C 1894 159 1645 25 1370 25 
C 947 25 518 320 403 814 
C 429 807 480 795 506 795 
C 589 795 749 840 749 1038 
C 749 1210 627 1280 506 1280 
C 358 1280 262 1190 262 1011 
C 262 454 704 -128 1382 -128 
C 2042 -128 2669 440 2669 1264 
C 2669 2030 2170 2624 1549 2624 
C 1222 2624 947 2503 730 2274 
L 730 3692 
z
" transform="scale(0.015625)"/>
       </defs>
       <use xlink:href="#CMR17-32" transform="scale(0.996264)"/>
       <use xlink:href="#CMR17-35" transform="translate(45.690477 0) scale(0.996264)"/>
      </g>
     </g>
    </g>
    <g id="xtick_3">
     <g id="line2d_3">
      <g>
       <use xlink:href="#mb10c8e0211" x="96.96602" y="202.559296" style="stroke: #000000; stroke-width: 0.8"/>
      </g>
     </g>
     <g id="text_3">
      <!-- $\mathdefault{50}$ -->
      <g transform="translate(92.731837 217.194098) scale(0.08 -0.08)">
       <use xlink:href="#CMR17-35" transform="scale(0.996264)"/>
       <use xlink:href="#CMR17-30" transform="translate(45.690477 0) scale(0.996264)"/>
      </g>
     </g>
    </g>
    <g id="xtick_4">
     <g id="line2d_4">
      <g>
       <use xlink:href="#mb10c8e0211" x="123.770606" y="202.559296" style="stroke: #000000; stroke-width: 0.8"/>
      </g>
     </g>
     <g id="text_4">
      <!-- $\mathdefault{75}$ -->
      <g transform="translate(119.536423 217.194098) scale(0.08 -0.08)">
       <defs>
        <path id="CMR17-37" d="M 2886 3941 
L 2886 4081 
L 1382 4081 
C 634 4081 621 4165 595 4288 
L 480 4288 
L 294 3094 
L 410 3094 
C 429 3215 474 3540 550 3661 
C 589 3712 1062 3712 1171 3712 
L 2579 3712 
L 1869 2661 
C 1395 1954 1069 999 1069 165 
C 1069 89 1069 -128 1299 -128 
C 1530 -128 1530 89 1530 171 
L 1530 465 
C 1530 1508 1709 2196 2003 2636 
L 2886 3941 
z
" transform="scale(0.015625)"/>
       </defs>
       <use xlink:href="#CMR17-37" transform="scale(0.996264)"/>
       <use xlink:href="#CMR17-35" transform="translate(45.690477 0) scale(0.996264)"/>
      </g>
     </g>
    </g>
    <g id="xtick_5">
     <g id="line2d_5">
      <g>
       <use xlink:href="#mb10c8e0211" x="150.575193" y="202.559296" style="stroke: #000000; stroke-width: 0.8"/>
      </g>
     </g>
     <g id="text_5">
      <!-- $\mathdefault{100}$ -->
      <g transform="translate(144.223918 217.194098) scale(0.08 -0.08)">
       <defs>
        <path id="CMR17-31" d="M 1702 4058 
C 1702 4192 1696 4192 1606 4192 
C 1357 3916 979 3827 621 3827 
C 602 3827 570 3827 563 3808 
C 557 3795 557 3782 557 3648 
C 755 3648 1088 3686 1344 3839 
L 1344 461 
C 1344 236 1331 160 781 160 
L 589 160 
L 589 0 
C 896 0 1216 0 1523 0 
C 1830 0 2150 0 2458 0 
L 2458 160 
L 2266 160 
C 1715 160 1702 230 1702 458 
L 1702 4058 
z
" transform="scale(0.015625)"/>
       </defs>
       <use xlink:href="#CMR17-31" transform="scale(0.996264)"/>
       <use xlink:href="#CMR17-30" transform="translate(45.690477 0) scale(0.996264)"/>
       <use xlink:href="#CMR17-30" transform="translate(91.380954 0) scale(0.996264)"/>
      </g>
     </g>
    </g>
    <g id="xtick_6">
     <g id="line2d_6">
      <g>
       <use xlink:href="#mb10c8e0211" x="177.379779" y="202.559296" style="stroke: #000000; stroke-width: 0.8"/>
      </g>
     </g>
     <g id="text_6">
      <!-- $\mathdefault{125}$ -->
      <g transform="translate(171.028505 217.194098) scale(0.08 -0.08)">
       <use xlink:href="#CMR17-31" transform="scale(0.996264)"/>
       <use xlink:href="#CMR17-32" transform="translate(45.690477 0) scale(0.996264)"/>
       <use xlink:href="#CMR17-35" transform="translate(91.380954 0) scale(0.996264)"/>
      </g>
     </g>
    </g>
    <g id="xtick_7">
     <g id="line2d_7">
      <g>
       <use xlink:href="#mb10c8e0211" x="204.184365" y="202.559296" style="stroke: #000000; stroke-width: 0.8"/>
      </g>
     </g>
     <g id="text_7">
      <!-- $\mathdefault{150}$ -->
      <g transform="translate(197.833091 217.194098) scale(0.08 -0.08)">
       <use xlink:href="#CMR17-31" transform="scale(0.996264)"/>
       <use xlink:href="#CMR17-35" transform="translate(45.690477 0) scale(0.996264)"/>
       <use xlink:href="#CMR17-30" transform="translate(91.380954 0) scale(0.996264)"/>
      </g>
     </g>
    </g>
    <g id="xtick_8">
     <g id="line2d_8">
      <g>
       <use xlink:href="#mb10c8e0211" x="230.988952" y="202.559296" style="stroke: #000000; stroke-width: 0.8"/>
      </g>
     </g>
     <g id="text_8">
      <!-- $\mathdefault{175}$ -->
      <g transform="translate(224.637677 217.194098) scale(0.08 -0.08)">
       <use xlink:href="#CMR17-31" transform="scale(0.996264)"/>
       <use xlink:href="#CMR17-37" transform="translate(45.690477 0) scale(0.996264)"/>
       <use xlink:href="#CMR17-35" transform="translate(91.380954 0) scale(0.996264)"/>
      </g>
     </g>
    </g>
    <g id="text_9">
     <!-- $\tau$ -->
     <g transform="translate(137.675756 229.662342) scale(0.1 -0.1)">
      <defs>
       <path id="CMMI12-1c" d="M 1837 2408 
L 2899 2408 
C 2982 2408 3194 2408 3194 2612 
C 3194 2752 3072 2752 2957 2752 
L 1197 2752 
C 1050 2752 832 2752 538 2440 
C 371 2255 166 1917 166 1879 
C 166 1841 198 1828 237 1828 
C 282 1828 288 1847 320 1885 
C 653 2408 986 2408 1146 2408 
L 1677 2408 
L 1011 223 
C 979 127 979 114 979 95 
C 979 25 1024 -64 1152 -64 
C 1350 -64 1382 108 1402 203 
L 1837 2408 
z
" transform="scale(0.015625)"/>
      </defs>
      <use xlink:href="#CMMI12-1c" transform="scale(0.996264)"/>
     </g>
    </g>
   </g>
   <g id="matplotlib.axis_2">
    <g id="ytick_1">
     <g id="line2d_9">
      <defs>
       <path id="mba9e2211f8" d="M 0 0 
L -3.5 0 
" style="stroke: #000000; stroke-width: 0.8"/>
      </defs>
      <g>
       <use xlink:href="#mba9e2211f8" x="33.707196" y="193.679328" style="stroke: #000000; stroke-width: 0.8"/>
      </g>
     </g>
     <g id="text_10">
      <!-- $\mathdefault{−1.0}$ -->
      <g transform="translate(7.2 196.446729) scale(0.08 -0.08)">
       <defs>
        <path id="CMSY10-0" d="M 4218 1472 
C 4326 1472 4442 1472 4442 1600 
C 4442 1728 4326 1728 4218 1728 
L 755 1728 
C 646 1728 531 1728 531 1600 
C 531 1472 646 1472 755 1472 
L 4218 1472 
z
" transform="scale(0.015625)"/>
        <path id="CMMI12-3a" d="M 1178 307 
C 1178 492 1024 619 870 619 
C 685 619 557 466 557 313 
C 557 128 710 0 864 0 
C 1050 0 1178 153 1178 307 
z
" transform="scale(0.015625)"/>
       </defs>
       <use xlink:href="#CMSY10-0" transform="scale(0.996264)"/>
       <use xlink:href="#CMR17-31" transform="translate(77.487468 0) scale(0.996264)"/>
       <use xlink:href="#CMMI12-3a" transform="translate(123.177945 0) scale(0.996264)"/>
       <use xlink:href="#CMR17-30" transform="translate(150.275122 0) scale(0.996264)"/>
      </g>
     </g>
    </g>
    <g id="ytick_2">
     <g id="line2d_10">
      <g>
       <use xlink:href="#mba9e2211f8" x="33.707196" y="158.39641" style="stroke: #000000; stroke-width: 0.8"/>
      </g>
     </g>
     <g id="text_11">
      <!-- $\mathdefault{−0.8}$ -->
      <g transform="translate(7.2 161.163811) scale(0.08 -0.08)">
       <defs>
        <path id="CMR17-38" d="M 1741 2264 
C 2144 2467 2554 2773 2554 3263 
C 2554 3841 1990 4179 1472 4179 
C 890 4179 378 3759 378 3180 
C 378 3021 416 2747 666 2505 
C 730 2442 998 2251 1171 2130 
C 883 1983 211 1634 211 934 
C 211 279 838 -128 1459 -128 
C 2144 -128 2720 362 2720 1010 
C 2720 1590 2330 1857 2074 2029 
L 1741 2264 
z
M 902 2822 
C 851 2854 595 3051 595 3351 
C 595 3739 998 4032 1459 4032 
C 1965 4032 2336 3676 2336 3262 
C 2336 2669 1670 2331 1638 2331 
C 1632 2331 1626 2331 1574 2370 
L 902 2822 
z
M 2080 1519 
C 2176 1449 2483 1240 2483 851 
C 2483 381 2010 25 1472 25 
C 890 25 448 438 448 940 
C 448 1443 838 1862 1280 2060 
L 2080 1519 
z
" transform="scale(0.015625)"/>
       </defs>
       <use xlink:href="#CMSY10-0" transform="scale(0.996264)"/>
       <use xlink:href="#CMR17-30" transform="translate(77.487468 0) scale(0.996264)"/>
       <use xlink:href="#CMMI12-3a" transform="translate(123.177945 0) scale(0.996264)"/>
       <use xlink:href="#CMR17-38" transform="translate(150.275122 0) scale(0.996264)"/>
      </g>
     </g>
    </g>
    <g id="ytick_3">
     <g id="line2d_11">
      <g>
       <use xlink:href="#mba9e2211f8" x="33.707196" y="123.113492" style="stroke: #000000; stroke-width: 0.8"/>
      </g>
     </g>
     <g id="text_12">
      <!-- $\mathdefault{−0.6}$ -->
      <g transform="translate(7.2 125.880893) scale(0.08 -0.08)">
       <defs>
        <path id="CMR17-36" d="M 678 2176 
C 678 3690 1395 4032 1811 4032 
C 1946 4032 2272 4009 2400 3776 
C 2298 3776 2106 3776 2106 3553 
C 2106 3381 2246 3323 2336 3323 
C 2394 3323 2566 3348 2566 3560 
C 2566 3954 2246 4179 1805 4179 
C 1043 4179 243 3390 243 1984 
C 243 253 966 -128 1478 -128 
C 2099 -128 2688 427 2688 1283 
C 2688 2081 2170 2662 1517 2662 
C 1126 2662 838 2407 678 1960 
L 678 2176 
z
M 1478 25 
C 691 25 691 1200 691 1436 
C 691 1896 909 2560 1504 2560 
C 1613 2560 1926 2560 2138 2120 
C 2253 1870 2253 1609 2253 1289 
C 2253 944 2253 690 2118 434 
C 1978 171 1773 25 1478 25 
z
" transform="scale(0.015625)"/>
       </defs>
       <use xlink:href="#CMSY10-0" transform="scale(0.996264)"/>
       <use xlink:href="#CMR17-30" transform="translate(77.487468 0) scale(0.996264)"/>
       <use xlink:href="#CMMI12-3a" transform="translate(123.177945 0) scale(0.996264)"/>
       <use xlink:href="#CMR17-36" transform="translate(150.275122 0) scale(0.996264)"/>
      </g>
     </g>
    </g>
    <g id="ytick_4">
     <g id="line2d_12">
      <g>
       <use xlink:href="#mba9e2211f8" x="33.707196" y="87.830575" style="stroke: #000000; stroke-width: 0.8"/>
      </g>
     </g>
     <g id="text_13">
      <!-- $\mathdefault{−0.4}$ -->
      <g transform="translate(7.2 90.597975) scale(0.08 -0.08)">
       <defs>
        <path id="CMR17-34" d="M 2150 4122 
C 2150 4256 2144 4256 2029 4256 
L 128 1254 
L 128 1088 
L 1779 1088 
L 1779 457 
C 1779 224 1766 160 1318 160 
L 1197 160 
L 1197 0 
C 1402 0 1747 0 1965 0 
C 2182 0 2528 0 2733 0 
L 2733 160 
L 2611 160 
C 2163 160 2150 224 2150 457 
L 2150 1088 
L 2803 1088 
L 2803 1254 
L 2150 1254 
L 2150 4122 
z
M 1798 3703 
L 1798 1254 
L 256 1254 
L 1798 3703 
z
" transform="scale(0.015625)"/>
       </defs>
       <use xlink:href="#CMSY10-0" transform="scale(0.996264)"/>
       <use xlink:href="#CMR17-30" transform="translate(77.487468 0) scale(0.996264)"/>
       <use xlink:href="#CMMI12-3a" transform="translate(123.177945 0) scale(0.996264)"/>
       <use xlink:href="#CMR17-34" transform="translate(150.275122 0) scale(0.996264)"/>
      </g>
     </g>
    </g>
    <g id="ytick_5">
     <g id="line2d_13">
      <g>
       <use xlink:href="#mba9e2211f8" x="33.707196" y="52.547657" style="stroke: #000000; stroke-width: 0.8"/>
      </g>
     </g>
     <g id="text_14">
      <!-- $\mathdefault{−0.2}$ -->
      <g transform="translate(7.2 55.315058) scale(0.08 -0.08)">
       <use xlink:href="#CMSY10-0" transform="scale(0.996264)"/>
       <use xlink:href="#CMR17-30" transform="translate(77.487468 0) scale(0.996264)"/>
       <use xlink:href="#CMMI12-3a" transform="translate(123.177945 0) scale(0.996264)"/>
       <use xlink:href="#CMR17-32" transform="translate(150.275122 0) scale(0.996264)"/>
      </g>
     </g>
    </g>
    <g id="ytick_6">
     <g id="line2d_14">
      <g>
       <use xlink:href="#mba9e2211f8" x="33.707196" y="17.264739" style="stroke: #000000; stroke-width: 0.8"/>
      </g>
     </g>
     <g id="text_15">
      <!-- $\mathdefault{0.0}$ -->
      <g transform="translate(13.786507 20.03214) scale(0.08 -0.08)">
       <use xlink:href="#CMR17-30" transform="scale(0.996264)"/>
       <use xlink:href="#CMMI12-3a" transform="translate(45.690477 0) scale(0.996264)"/>
       <use xlink:href="#CMR17-30" transform="translate(72.787654 0) scale(0.996264)"/>
      </g>
     </g>
    </g>
   </g>
   <g id="line2d_15">
    <path d="M 43.356847 193.679328 
L 52.749174 193.575925 
L 53.070829 193.346829 
L 53.392484 192.819282 
L 53.714139 191.784352 
L 54.035794 189.976397 
L 54.42178 186.417893 
L 54.872098 179.933672 
L 55.451077 168.05004 
L 56.480373 140.909336 
L 57.574 114.452402 
L 58.345972 100.834019 
L 59.117944 90.775179 
L 59.825585 84.126952 
L 61.112205 75.130786 
L 61.755515 71.996509 
L 62.656149 68.829176 
L 63.556784 66.440103 
L 64.843404 62.795274 
L 65.22939 62.568162 
L 66.644672 61.86717 
L 67.416644 61.511066 
L 67.866961 61.392164 
L 68.44594 61.300517 
L 68.896257 61.098306 
L 69.153581 61.254209 
L 69.861222 61.94507 
L 70.37587 62.168064 
L 70.761856 62.679646 
L 71.791152 64.289006 
L 72.498794 65.011002 
L 73.270766 65.572862 
L 73.914076 65.789276 
L 75.007703 65.867167 
L 86.072636 65.989052 
L 86.458622 66.306534 
L 86.844608 66.920846 
L 87.230594 67.998826 
L 87.61658 69.872701 
L 88.131228 73.535262 
L 88.774538 80.205266 
L 89.739503 93.080745 
L 91.283448 113.486016 
L 92.248413 123.587234 
L 93.213378 131.172256 
L 93.98535 135.45277 
L 94.950315 139.381197 
L 95.657956 141.652423 
L 97.073238 144.88754 
L 97.652217 145.915408 
L 98.295527 146.632974 
L 99.646479 147.75674 
L 100.482782 148.112151 
L 101.447747 149.044075 
L 101.962395 150.10746 
L 102.412712 151.571504 
L 103.377677 155.889956 
L 104.664297 161.496023 
L 105.243276 162.988116 
L 105.757924 163.715046 
L 106.208241 164.008601 
L 106.851551 164.125077 
L 109.746447 164.133809 
L 117.144513 164.024215 
L 117.530499 163.713325 
L 117.852154 163.137635 
L 118.173809 162.077659 
L 118.559795 159.83774 
L 118.945781 156.236489 
L 119.460429 149.160012 
L 120.16807 135.94704 
L 121.840676 102.83809 
L 122.934303 88.153795 
L 123.513282 82.849327 
L 124.349585 77.21694 
L 125.250219 72.174461 
L 126.022192 69.526938 
L 127.051488 66.765208 
L 128.209446 63.892974 
L 128.595432 63.31009 
L 130.075045 62.308542 
L 130.654024 61.87674 
L 131.297334 61.269952 
L 131.747651 61.048755 
L 132.004975 60.854207 
L 132.519623 60.336981 
L 132.841278 60.408046 
L 134.063567 60.764767 
L 134.449553 60.918786 
L 134.83554 61.434715 
L 136.443815 63.811044 
L 137.022794 64.372514 
L 137.859097 64.865514 
L 138.566738 65.009894 
L 140.368006 65.034587 
L 150.274981 65.132666 
L 150.725298 65.416045 
L 151.111284 66.008513 
L 151.49727 67.0546 
L 151.883256 68.72714 
L 152.333573 71.693999 
L 152.912553 77.222559 
L 153.684525 87.272556 
L 155.807448 115.945273 
L 156.643751 123.999269 
L 157.608716 131.453797 
L 158.50935 136.352938 
L 159.281322 139.518395 
L 159.988963 141.656672 
L 161.275583 144.653661 
L 162.369211 146.471077 
L 163.076852 147.21923 
L 163.977486 147.90669 
L 165.457099 148.65019 
L 165.843085 149.089865 
L 166.16474 149.826549 
L 166.872381 152.269152 
L 167.837346 156.671741 
L 168.995304 161.527214 
L 169.574283 162.971761 
L 170.088931 163.679156 
L 170.60358 163.998284 
L 171.24689 164.097611 
L 174.720764 164.104137 
L 181.47552 163.998692 
L 181.861506 163.697555 
L 182.183161 163.126099 
L 182.504816 162.036587 
L 182.890802 159.798619 
L 183.276788 156.240242 
L 183.791436 149.081899 
L 184.563408 134.570903 
L 186.364676 99.201093 
L 187.136648 89.590796 
L 187.844289 82.968337 
L 188.744924 76.570441 
L 189.516896 72.830137 
L 190.739185 67.637456 
L 191.446826 65.840883 
L 192.476122 63.990838 
L 192.862108 63.721193 
L 194.599045 63.164259 
L 194.985031 62.71922 
L 195.306686 62.44555 
L 196.20732 62.07432 
L 197.558272 61.037043 
L 197.751265 61.121861 
L 198.265913 61.485607 
L 199.166547 61.564938 
L 199.488202 61.9981 
L 200.64616 63.870765 
L 201.418132 64.703034 
L 202.061442 65.118295 
L 202.833414 65.297013 
L 204.377358 65.323518 
L 214.73465 65.408269 
L 215.184968 65.735362 
L 215.506623 66.196176 
L 215.892609 67.240436 
L 216.278595 68.98714 
L 216.728912 72.189428 
L 217.307891 78.090303 
L 218.272856 91.076437 
L 219.945462 113.622459 
L 221.039089 125.059932 
L 221.74673 130.510182 
L 222.647364 135.662427 
L 223.483667 139.173604 
L 224.25564 141.530781 
L 225.027612 143.346899 
L 225.992577 145.109338 
L 226.957542 146.596879 
L 228.244162 147.646911 
L 229.659444 148.617961 
L 230.302754 149.533416 
L 230.68874 150.456301 
L 231.267719 152.524257 
L 232.61867 158.731446 
L 233.454974 161.941883 
L 233.969622 163.144102 
L 234.48427 163.832609 
L 234.934587 164.091526 
L 235.577897 164.187384 
L 236.349869 164.192903 
L 236.349869 164.192903 
" clip-path="url(#pa1ac3b5753)" style="fill: none; stroke: #ff7f0e; stroke-width: 0.5; stroke-linecap: square"/>
   </g>
   <g id="line2d_16">
    <path d="M 43.356847 17.264739 
L 54.100125 17.365415 
L 55.451077 17.708156 
L 55.901394 17.445432 
L 56.93069 16.63198 
L 57.316676 16.770139 
L 57.895655 16.9883 
L 58.281641 16.932446 
L 59.50393 16.208777 
L 59.889916 16.159686 
L 60.275902 16.384018 
L 60.983543 16.869839 
L 61.691184 17.07289 
L 62.913473 17.547692 
L 63.814108 17.134262 
L 64.200094 17.263991 
L 65.22939 17.639461 
L 65.551045 17.42154 
L 66.323017 16.789226 
L 66.644672 16.833462 
L 66.966327 17.182696 
L 67.480975 17.725834 
L 67.866961 17.808469 
L 68.188616 17.697035 
L 68.510271 17.289737 
L 69.024919 16.632379 
L 69.282243 16.59616 
L 69.539567 16.757984 
L 69.925553 17.340806 
L 70.37587 17.910709 
L 70.633194 17.9889 
L 71.01918 17.801055 
L 71.469497 17.301185 
L 71.984145 16.795412 
L 72.3058 16.761233 
L 72.627456 16.990509 
L 73.721083 17.959866 
L 74.042738 17.874071 
L 74.428724 17.492212 
L 75.265027 16.601444 
L 75.586682 16.584228 
L 75.908337 16.804679 
L 77.130626 17.968362 
L 77.452281 17.866299 
L 77.902598 17.433743 
L 78.67457 16.665797 
L 79.060556 16.561163 
L 79.446542 16.676886 
L 80.089852 17.163753 
L 80.990486 17.814175 
L 81.569466 17.966612 
L 82.148445 17.886572 
L 82.856086 17.549885 
L 84.593023 16.607231 
L 85.172002 16.577687 
L 85.815312 16.778137 
L 87.037601 17.524645 
L 87.680911 17.931104 
L 88.324221 18.1302 
L 88.774538 18.109367 
L 92.184082 16.540214 
L 92.956054 16.841808 
L 95.014646 16.814755 
L 95.336301 16.785874 
L 95.850949 16.66426 
L 97.330562 17.064603 
L 97.973872 17.457104 
L 98.48852 17.689919 
L 98.874506 17.754007 
L 99.260493 17.536221 
L 99.839472 17.228862 
L 100.482782 17.014876 
L 100.933099 16.838741 
L 102.348381 16.569145 
L 102.798698 16.757576 
L 103.827994 17.224077 
L 104.471304 17.524046 
L 105.050283 17.785731 
L 105.822255 17.895975 
L 106.465565 17.787339 
L 107.301868 17.372313 
L 108.65282 16.689449 
L 109.29613 16.625216 
L 109.875109 16.7883 
L 110.58275 17.243499 
L 111.547715 17.870588 
L 111.998032 17.883242 
L 112.384018 17.671198 
L 113.7993 16.626912 
L 114.120955 16.791722 
L 114.699934 17.424271 
L 115.214582 17.869296 
L 115.536237 17.893216 
L 115.857892 17.697553 
L 117.144513 16.604095 
L 117.466168 16.737964 
L 118.045147 17.313004 
L 118.495464 17.68434 
L 118.817119 17.698542 
L 119.138774 17.451151 
L 120.232401 16.168186 
L 120.489725 16.289791 
L 120.875711 16.808968 
L 121.583352 17.784039 
L 121.905007 17.809538 
L 122.290993 17.618871 
L 123.191627 16.956995 
L 123.448951 17.031289 
L 124.735571 18.048171 
L 124.992895 17.883533 
L 125.443212 17.199486 
L 125.829199 16.717536 
L 126.022192 16.730058 
L 126.343847 17.053069 
L 126.858495 17.658745 
L 127.244481 17.656787 
L 127.630467 17.455421 
L 129.045749 16.423129 
L 129.303073 16.560289 
L 129.75339 17.136867 
L 130.203707 17.612362 
L 130.461031 17.587356 
L 130.975679 17.045885 
L 131.490327 16.61499 
L 131.811982 16.601232 
L 132.133637 16.835376 
L 132.712616 17.309548 
L 133.162933 17.341224 
L 133.870574 17.234549 
L 134.83554 17.429194 
L 135.47885 17.070272 
L 135.864836 17.104839 
L 136.443815 17.494697 
L 137.022794 17.751246 
L 137.473111 17.665633 
L 137.987759 17.274819 
L 138.631069 16.814462 
L 139.017055 16.797928 
L 139.403041 17.011773 
L 140.432337 17.745415 
L 140.818323 17.689156 
L 141.332971 17.315234 
L 142.040612 16.816518 
L 142.426598 16.789131 
L 142.876915 16.989648 
L 144.163536 17.730954 
L 144.678184 17.728543 
L 145.385825 17.476784 
L 146.9941 16.821269 
L 147.701741 16.786883 
L 148.473713 16.976106 
L 150.789629 17.724575 
L 151.432939 17.53322 
L 153.36287 16.926326 
L 154.199173 16.45064 
L 155.228469 16.288532 
L 155.678786 16.41046 
L 156.386427 16.789006 
L 159.602977 17.688116 
L 160.181956 17.7847 
L 160.760935 17.848692 
L 161.211252 18.018861 
L 161.66157 17.894999 
L 162.433542 17.540507 
L 164.813789 17.317121 
L 165.457099 17.182347 
L 165.971747 17.161649 
L 166.550726 17.131754 
L 167.45136 17.427315 
L 168.73798 17.951944 
L 169.316959 17.961647 
L 170.0246 17.770753 
L 171.311221 17.04711 
L 172.211855 16.661416 
L 172.855165 16.62631 
L 173.498475 16.822816 
L 174.334778 17.340218 
L 175.299743 17.88373 
L 175.75006 17.893742 
L 176.200377 17.665029 
L 177.67999 16.621275 
L 178.001645 16.782458 
L 178.580624 17.408277 
L 179.095272 17.86706 
L 179.416928 17.904093 
L 179.738583 17.71799 
L 181.089534 16.614744 
L 181.411189 16.782759 
L 182.054499 17.489259 
L 182.504816 17.849708 
L 182.826471 17.843952 
L 183.212457 17.527462 
L 183.984429 16.732845 
L 184.306084 16.757258 
L 184.885063 17.069023 
L 185.657035 17.696543 
L 186.171683 18.073847 
L 186.429007 18.012956 
L 186.879324 17.5871 
L 187.90862 16.58231 
L 188.230276 16.820302 
L 188.937917 17.304793 
L 189.259572 17.311274 
L 189.645558 17.073121 
L 190.160206 16.759399 
L 190.41753 16.805257 
L 190.803516 17.189106 
L 191.318164 17.689924 
L 191.768481 17.856819 
L 192.090136 17.677761 
L 192.99077 16.966292 
L 193.312425 17.180167 
L 194.148728 17.948123 
L 194.470383 17.782027 
L 194.9207 17.23322 
L 195.692672 16.085795 
L 195.949996 16.141732 
L 196.271651 16.482908 
L 197.365279 18.058174 
L 197.622603 17.928775 
L 198.137251 17.216527 
L 198.587568 16.725865 
L 198.909223 16.691659 
L 199.35954 17.032448 
L 200.00285 17.444055 
L 200.388836 17.391603 
L 201.611125 16.963636 
L 202.061442 17.08029 
L 203.283731 17.549266 
L 203.798379 17.416086 
L 204.956337 16.979299 
L 205.470985 17.105507 
L 206.693275 17.550298 
L 207.272254 17.433193 
L 208.751867 16.981275 
L 209.523839 17.061467 
L 212.16141 17.544284 
L 213.190706 17.371887 
L 214.991975 17.011393 
L 217.114898 17.030537 
L 218.723173 17.160239 
L 219.109159 17.094935 
L 219.623807 17.092657 
L 220.074124 17.097518 
L 220.524441 17.037739 
L 221.167751 16.774076 
L 221.875392 16.566792 
L 222.583033 16.528815 
L 223.67666 17.028594 
L 224.25564 17.643342 
L 224.577295 17.612336 
L 225.349267 17.466665 
L 226.378563 17.634011 
L 227.407859 17.39078 
L 228.244162 17.315439 
L 228.630148 17.566095 
L 229.144796 17.864045 
L 229.40212 17.848298 
L 230.238423 17.471701 
L 231.718036 17.622288 
L 233.004657 16.910259 
L 234.419939 16.635808 
L 235.063249 16.784091 
L 236.028214 17.289627 
L 236.349869 17.474479 
L 236.349869 17.474479 
" clip-path="url(#pa1ac3b5753)" style="fill: none; stroke: #2ca02c; stroke-width: 0.5; stroke-linecap: square"/>
   </g>
   <g id="line2d_17">
    <path d="M 43.356847 17.264739 
L 53.714139 17.171441 
L 54.357449 16.939688 
L 54.872098 17.12521 
L 56.351711 17.832056 
L 56.673366 17.530344 
L 57.059352 17.186122 
L 57.445338 17.206739 
L 58.024317 17.373122 
L 58.538965 17.595163 
L 58.924951 17.500862 
L 59.375268 17.43673 
L 59.696923 17.333803 
L 60.404564 16.954333 
L 61.305198 17.219147 
L 62.205832 16.955253 
L 62.591818 17.078293 
L 63.235128 17.480191 
L 63.94277 17.16307 
L 64.650411 16.853415 
L 64.907735 16.937852 
L 65.293721 17.391202 
L 65.808369 17.995844 
L 66.001362 17.917854 
L 66.387348 17.330957 
L 66.901996 16.668078 
L 67.15932 16.654348 
L 67.609637 16.93672 
L 67.995623 17.394046 
L 68.44594 17.973119 
L 68.703264 17.948139 
L 68.960588 17.625226 
L 69.73256 16.409776 
L 69.925553 16.398229 
L 70.247208 16.705547 
L 71.147842 17.831612 
L 71.533828 17.816657 
L 71.919814 17.511508 
L 72.756118 16.710195 
L 73.077773 16.678509 
L 73.399428 16.859348 
L 74.042738 17.611265 
L 74.493055 17.952031 
L 74.81471 17.916044 
L 75.200696 17.578131 
L 76.165661 16.579836 
L 76.487316 16.606953 
L 76.873302 16.929411 
L 77.838267 17.925415 
L 78.159922 17.955985 
L 78.545908 17.747161 
L 80.089852 16.568101 
L 80.540169 16.61495 
L 81.183479 16.945535 
L 82.791755 17.890033 
L 83.435065 17.963331 
L 84.078375 17.791717 
L 85.04334 17.239071 
L 86.008305 16.730023 
L 86.844608 16.595144 
L 87.294925 16.741025 
L 88.774538 17.437196 
L 90.447145 17.669276 
L 91.540772 17.272586 
L 92.119751 17.230333 
L 92.827392 17.317991 
L 94.564329 17.391956 
L 97.137569 16.729422 
L 97.587886 16.824116 
L 98.295527 17.044238 
L 100.547113 17.836586 
L 100.933099 17.838535 
L 103.120353 16.698629 
L 103.635001 16.513524 
L 104.149649 16.520161 
L 105.307607 16.96155 
L 106.980213 17.843124 
L 107.623523 17.905641 
L 108.266834 17.74508 
L 109.167468 17.25103 
L 110.261095 16.670554 
L 110.775743 16.631079 
L 111.22606 16.803033 
L 111.86937 17.332342 
L 112.577011 17.86746 
L 112.962997 17.888052 
L 113.348983 17.649103 
L 114.571272 16.618167 
L 114.892927 16.73419 
L 115.343244 17.185641 
L 116.050885 17.867276 
L 116.37254 17.897444 
L 116.694195 17.709593 
L 117.916485 16.685497 
L 118.23814 16.788015 
L 118.624126 17.184861 
L 119.331767 18.044986 
L 119.589091 18.063289 
L 119.846415 17.814659 
L 120.747049 16.670384 
L 121.068704 16.550033 
L 121.326028 16.708463 
L 122.612648 17.915317 
L 122.934303 17.719676 
L 123.38462 17.106271 
L 123.706275 16.766826 
L 124.092261 16.741113 
L 124.349585 16.867076 
L 124.67124 17.34315 
L 125.121557 17.969407 
L 125.378881 18.015221 
L 125.636205 17.784751 
L 126.472509 16.560399 
L 126.665502 16.615777 
L 126.987157 17.043964 
L 127.501805 17.708231 
L 127.82346 17.669644 
L 128.145115 17.705094 
L 128.595432 17.829724 
L 128.852756 17.544967 
L 129.624728 16.42664 
L 129.882052 16.559384 
L 130.268038 17.094001 
L 130.782686 17.794318 
L 131.104341 17.789856 
L 131.490327 17.50492 
L 132.197968 16.826832 
L 132.648285 17.073054 
L 133.355926 17.323581 
L 133.741912 17.173018 
L 134.385222 16.994637 
L 134.642546 17.164394 
L 135.092864 17.508017 
L 135.414519 17.412855 
L 136.443815 16.872156 
L 136.829801 17.050451 
L 137.923428 17.752368 
L 138.309414 17.679544 
L 138.824062 17.289291 
L 139.467372 16.817891 
L 139.853358 16.796384 
L 140.239344 17.007232 
L 141.332971 17.751988 
L 141.718957 17.671571 
L 142.297936 17.252239 
L 143.005577 16.812486 
L 143.455894 16.794534 
L 144.034874 17.038193 
L 145.385825 17.706325 
L 146.029135 17.743808 
L 146.801107 17.549274 
L 149.117023 16.779242 
L 149.824664 16.898368 
L 150.85396 17.264457 
L 152.397904 17.75245 
L 152.912553 17.662317 
L 153.684525 17.468399 
L 154.00618 17.498947 
L 154.520828 17.199184 
L 154.906814 16.942217 
L 155.421462 17.02093 
L 156.450758 17.202734 
L 157.287061 17.225715 
L 157.994702 17.377382 
L 158.831005 17.306971 
L 159.216991 17.283114 
L 159.667308 17.324674 
L 160.310618 17.311155 
L 161.018259 17.499224 
L 162.111887 17.250447 
L 164.23481 17.655857 
L 164.749458 17.525302 
L 165.52143 17.454151 
L 166.357733 17.076683 
L 167.065374 16.812693 
L 167.515691 16.703446 
L 168.351994 16.819284 
L 169.316959 17.290118 
L 170.667911 17.889231 
L 171.311221 17.880404 
L 172.018862 17.618051 
L 174.141785 16.614606 
L 174.656433 16.683752 
L 175.235412 17.0078 
L 176.586363 17.91568 
L 176.972349 17.824616 
L 177.422666 17.442955 
L 178.258969 16.655355 
L 178.580624 16.627905 
L 178.902279 16.817617 
L 180.1889 17.915915 
L 180.510555 17.776151 
L 181.025203 17.231004 
L 181.604182 16.704014 
L 181.925837 16.657316 
L 182.247492 16.818635 
L 182.76214 17.395214 
L 183.276788 17.893121 
L 183.598443 17.85018 
L 183.984429 17.504103 
L 184.563408 17.001687 
L 185.206718 16.76638 
L 185.785697 16.853415 
L 186.107352 17.160607 
L 186.686331 17.761724 
L 187.007986 17.806759 
L 187.651296 17.649681 
L 188.423269 16.840917 
L 188.809255 16.956667 
L 189.452565 17.553175 
L 189.709889 17.663248 
L 189.967213 17.481696 
L 190.674854 16.663262 
L 190.932178 16.69686 
L 191.575488 17.187458 
L 192.218798 17.862573 
L 192.540453 17.812494 
L 192.862108 17.533431 
L 193.569749 16.605274 
L 193.762742 16.66895 
L 194.084397 17.136956 
L 194.727707 18.082545 
L 195.049362 18.215455 
L 195.242355 18.081199 
L 195.56401 17.486127 
L 196.078658 16.617073 
L 196.464644 16.335813 
L 196.721968 16.423492 
L 197.043624 16.812535 
L 198.008589 18.242494 
L 198.265913 18.072458 
L 199.423871 16.7458 
L 199.681195 16.819515 
L 200.64616 17.495906 
L 201.28947 17.363121 
L 202.318766 16.984013 
L 202.833414 17.067654 
L 204.313027 17.527607 
L 204.892006 17.29057 
L 205.663978 16.987317 
L 206.178627 17.04311 
L 207.915564 17.534538 
L 208.751867 17.29927 
L 209.909825 16.999644 
L 210.810459 17.015588 
L 212.097079 17.306219 
L 213.44803 17.547609 
L 214.348664 17.492113 
L 216.793243 16.889879 
L 217.307891 16.708147 
L 218.272856 16.766261 
L 218.658842 16.79112 
L 219.237821 17.141987 
L 219.945462 17.486737 
L 220.653103 17.513116 
L 221.489406 17.671829 
L 221.939723 17.564997 
L 223.547998 16.801524 
L 224.062647 16.969638 
L 224.834619 17.178462 
L 225.349267 17.539738 
L 225.670922 17.726246 
L 226.056908 17.649999 
L 227.214866 17.224589 
L 228.1155 17.148292 
L 229.016134 17.325738 
L 229.852437 17.084152 
L 230.753071 17.372032 
L 231.267719 17.465709 
L 232.490008 17.609923 
L 233.068988 17.709595 
L 233.647967 17.552055 
L 234.48427 17.133213 
L 235.513566 16.695071 
L 236.156876 16.643047 
L 236.349869 16.671003 
L 236.349869 16.671003 
" clip-path="url(#pa1ac3b5753)" style="fill: none; stroke: #d62728; stroke-width: 0.5; stroke-linecap: square"/>
   </g>
   <g id="patch_3">
    <path d="M 33.707196 202.559296 
L 33.707196 7.2 
" style="fill: none; stroke: #000000; stroke-width: 0.8; stroke-linejoin: miter; stroke-linecap: square"/>
   </g>
   <g id="patch_4">
    <path d="M 245.99952 202.559296 
L 245.99952 7.2 
" style="fill: none; stroke: #000000; stroke-width: 0.8; stroke-linejoin: miter; stroke-linecap: square"/>
   </g>
   <g id="patch_5">
    <path d="M 33.707196 202.559296 
L 245.99952 202.559296 
" style="fill: none; stroke: #000000; stroke-width: 0.8; stroke-linejoin: miter; stroke-linecap: square"/>
   </g>
   <g id="patch_6">
    <path d="M 33.707196 7.2 
L 245.99952 7.2 
" style="fill: none; stroke: #000000; stroke-width: 0.8; stroke-linejoin: miter; stroke-linecap: square"/>
   </g>
   <g id="legend_1">
    <g id="patch_7">
     <path d="M 40.007196 126.429212 
L 85.914112 126.429212 
Q 87.714112 126.429212 87.714112 124.629212 
L 87.714112 85.130084 
Q 87.714112 83.330084 85.914112 83.330084 
L 40.007196 83.330084 
Q 38.207196 83.330084 38.207196 85.130084 
L 38.207196 124.629212 
Q 38.207196 126.429212 40.007196 126.429212 
z
" style="fill: #ffffff; opacity: 0.8; stroke: #cccccc; stroke-width: 0.24; stroke-linejoin: miter"/>
    </g>
    <g id="line2d_18">
     <path d="M 41.807196 90.504866 
L 50.807196 90.504866 
L 59.807196 90.504866 
" style="fill: none; stroke: #ff7f0e; stroke-width: 0.5; stroke-linecap: square"/>
    </g>
    <g id="text_16">
     <!-- $\langle \sigma_z\rangle$ -->
     <g transform="translate(67.007196 93.654866) scale(0.09 -0.09)">
      <defs>
       <path id="CMSY10-68" d="M 2099 4557 
C 2131 4627 2131 4640 2131 4672 
C 2131 4742 2074 4800 2003 4800 
C 1946 4800 1901 4768 1856 4653 
L 736 1715 
C 723 1677 704 1638 704 1600 
C 704 1581 704 1568 736 1491 
L 1856 -1446 
C 1882 -1517 1914 -1600 2003 -1600 
C 2074 -1600 2131 -1542 2131 -1472 
C 2131 -1453 2131 -1440 2099 -1370 
L 966 1600 
L 2099 4557 
z
" transform="scale(0.015625)"/>
       <path id="CMMI12-1b" d="M 3251 2408 
C 3334 2408 3546 2408 3546 2612 
C 3546 2752 3424 2752 3309 2752 
L 1894 2752 
C 934 2752 243 1686 243 932 
C 243 390 595 -64 1171 -64 
C 1926 -64 2752 747 2752 1705 
C 2752 1954 2694 2196 2541 2408 
L 3251 2408 
z
M 1178 64 
C 851 64 614 313 614 754 
C 614 1137 845 2408 1786 2408 
C 2061 2408 2368 2274 2368 1781 
C 2368 1558 2266 1021 2042 652 
C 1811 275 1466 64 1178 64 
z
" transform="scale(0.015625)"/>
       <path id="CMMI12-7a" d="M 813 486 
C 1088 803 1312 1004 1632 1296 
C 2016 1632 2182 1793 2272 1891 
C 2720 2338 2944 2713 2944 2764 
C 2944 2816 2893 2816 2880 2816 
C 2835 2816 2822 2793 2790 2750 
C 2630 2494 2477 2367 2310 2367 
C 2176 2367 2106 2421 1984 2565 
C 1850 2715 1741 2816 1555 2816 
C 1088 2816 806 2257 806 2128 
C 806 2108 813 2068 870 2068 
C 922 2068 928 2091 947 2133 
C 1056 2372 1363 2414 1485 2414 
C 1619 2414 1747 2376 1882 2327 
C 2125 2240 2227 2240 2291 2240 
C 2336 2240 2362 2240 2394 2246 
C 2182 1994 1837 1683 1549 1418 
L 902 816 
C 512 415 275 33 275 -12 
C 275 -51 307 -64 346 -64 
C 384 -64 390 -57 435 14 
C 538 163 742 384 979 384 
C 1114 384 1178 342 1306 193 
C 1427 61 1536 -64 1741 -64 
C 2368 -64 2726 732 2726 876 
C 2726 903 2720 942 2656 942 
C 2605 942 2598 917 2579 855 
C 2438 488 2061 338 1811 338 
C 1677 338 1549 376 1414 425 
C 1158 512 1088 512 1005 512 
C 941 512 870 512 813 486 
z
" transform="scale(0.015625)"/>
       <path id="CMSY10-69" d="M 1747 1491 
C 1779 1568 1779 1581 1779 1600 
C 1779 1619 1779 1632 1747 1709 
L 627 4653 
C 589 4762 550 4800 480 4800 
C 410 4800 352 4742 352 4672 
C 352 4653 352 4640 384 4570 
L 1517 1600 
L 384 -1357 
C 352 -1427 352 -1440 352 -1472 
C 352 -1542 410 -1600 480 -1600 
C 563 -1600 589 -1536 614 -1472 
L 1747 1491 
z
" transform="scale(0.015625)"/>
      </defs>
      <use xlink:href="#CMSY10-68" transform="scale(0.996264)"/>
      <use xlink:href="#CMMI12-1b" transform="translate(38.743734 0) scale(0.996264)"/>
      <use xlink:href="#CMMI12-7a" transform="translate(94.189195 -14.943915) scale(0.697382)"/>
      <use xlink:href="#CMSY10-69" transform="translate(129.51575 0) scale(0.996264)"/>
     </g>
    </g>
    <g id="line2d_19">
     <path d="M 41.807196 103.971242 
L 50.807196 103.971242 
L 59.807196 103.971242 
" style="fill: none; stroke: #2ca02c; stroke-width: 0.5; stroke-linecap: square"/>
    </g>
    <g id="text_17">
     <!-- $\langle \sigma_x\rangle$ -->
     <g transform="translate(67.007196 107.121242) scale(0.09 -0.09)">
      <defs>
       <path id="CMMI12-78" d="M 3034 2606 
C 2829 2567 2752 2414 2752 2293 
C 2752 2139 2874 2088 2963 2088 
C 3155 2088 3290 2254 3290 2427 
C 3290 2695 2982 2816 2714 2816 
C 2323 2816 2106 2433 2048 2312 
C 1901 2816 1504 2816 1389 2816 
C 736 2816 390 1980 390 1839 
C 390 1814 416 1782 461 1782 
C 512 1782 525 1820 538 1846 
C 755 2555 1184 2689 1370 2689 
C 1658 2689 1715 2420 1715 2267 
C 1715 2127 1677 1980 1600 1673 
L 1382 798 
C 1286 415 1101 64 762 64 
C 730 64 570 64 435 147 
C 666 192 717 383 717 460 
C 717 588 621 664 499 664 
C 346 664 179 530 179 326 
C 179 57 480 -64 755 -64 
C 1062 -64 1280 179 1414 441 
C 1517 64 1837 -64 2074 -64 
C 2726 -64 3072 773 3072 913 
C 3072 945 3046 971 3008 971 
C 2950 971 2944 939 2925 888 
C 2752 326 2381 64 2093 64 
C 1869 64 1747 230 1747 492 
C 1747 632 1773 734 1875 1156 
L 2099 2024 
C 2195 2408 2413 2689 2707 2689 
C 2720 2689 2899 2689 3034 2606 
z
" transform="scale(0.015625)"/>
      </defs>
      <use xlink:href="#CMSY10-68" transform="scale(0.996264)"/>
      <use xlink:href="#CMMI12-1b" transform="translate(38.743734 0) scale(0.996264)"/>
      <use xlink:href="#CMMI12-78" transform="translate(94.189195 -14.943915) scale(0.697382)"/>
      <use xlink:href="#CMSY10-69" transform="translate(133.490986 0) scale(0.996264)"/>
     </g>
    </g>
    <g id="line2d_20">
     <path d="M 41.807196 117.437618 
L 50.807196 117.437618 
L 59.807196 117.437618 
" style="fill: none; stroke: #d62728; stroke-width: 0.5; stroke-linecap: square"/>
    </g>
    <g id="text_18">
     <!-- $\langle \sigma_y\rangle$ -->
     <g transform="translate(67.007196 120.587618) scale(0.09 -0.09)">
      <defs>
       <path id="CMMI12-79" d="M 1683 -700 
C 1510 -939 1261 -1152 947 -1152 
C 870 -1152 563 -1152 467 -889 
C 486 -895 518 -895 531 -895 
C 723 -895 851 -729 851 -582 
C 851 -435 730 -384 634 -384 
C 531 -384 307 -458 307 -759 
C 307 -1071 582 -1286 947 -1286 
C 1587 -1286 2234 -700 2413 6 
L 3040 2485 
C 3046 2517 3059 2556 3059 2594 
C 3059 2689 2982 2753 2886 2753 
C 2829 2753 2694 2727 2643 2535 
L 2170 658 
C 2138 543 2138 530 2086 460 
C 1958 281 1747 64 1440 64 
C 1082 64 1050 415 1050 588 
C 1050 952 1222 1443 1395 1903 
C 1466 2088 1504 2178 1504 2305 
C 1504 2574 1312 2816 998 2816 
C 410 2816 173 1890 173 1839 
C 173 1814 198 1782 243 1782 
C 301 1782 307 1807 333 1897 
C 486 2433 730 2689 979 2689 
C 1037 2689 1146 2689 1146 2478 
C 1146 2312 1075 2127 979 1884 
C 666 1047 666 837 666 683 
C 666 77 1101 -64 1421 -64 
C 1606 -64 1837 -6 2061 230 
L 2067 224 
C 1971 -147 1907 -392 1683 -700 
z
" transform="scale(0.015625)"/>
      </defs>
      <use xlink:href="#CMSY10-68" transform="scale(0.996264)"/>
      <use xlink:href="#CMMI12-1b" transform="translate(38.743734 0) scale(0.996264)"/>
      <use xlink:href="#CMMI12-79" transform="translate(94.189195 -14.943915) scale(0.697382)"/>
      <use xlink:href="#CMSY10-69" transform="translate(130.484301 0) scale(0.996264)"/>
     </g>
    </g>
   </g>
  </g>
 </g>
 <defs>
  <clipPath id="pa1ac3b5753">
   <rect x="33.707196" y="7.2" width="212.292324" height="195.359296"/>
  </clipPath>
 </defs>
</svg>
