<?xml version="1.0" encoding="utf-8" standalone="no"?>
<!DOCTYPE svg PUBLIC "-//W3C//DTD SVG 1.1//EN"
  "http://www.w3.org/Graphics/SVG/1.1/DTD/svg11.dtd">
<svg xmlns:xlink="http://www.w3.org/1999/xlink" width="253.19952pt" height="238.79952pt" viewBox="0 0 253.19952 238.79952" xmlns="http://www.w3.org/2000/svg" version="1.1">
 <metadata>
  <rdf:RDF xmlns:dc="http://purl.org/dc/elements/1.1/" xmlns:cc="http://creativecommons.org/ns#" xmlns:rdf="http://www.w3.org/1999/02/22-rdf-syntax-ns#">
   <cc:Work>
    <dc:type rdf:resource="http://purl.org/dc/dcmitype/StillImage"/>
    <dc:date>1980-01-01T00:00:00+00:00</dc:date>
    <dc:format>image/svg+xml</dc:format>
    <dc:creator>
     <cc:Agent>
      <dc:title>Matplotlib v3.6.2, https://matplotlib.org/</dc:title>
     </cc:Agent>
    </dc:creator>
   </cc:Work>
  </rdf:RDF>
 </metadata>
 <defs>
  <style type="text/css">*{stroke-linejoin: round; stroke-linecap: butt}</style>
 </defs>
 <g id="figure_1">
  <g id="patch_1">
   <path d="M 0 238.79952 
L 253.19952 238.79952 
L 253.19952 0 
L 0 0 
z
" style="fill: #ffffff"/>
  </g>
  <g id="axes_1">
   <g id="patch_2">
    <path d="M 33.707196 202.559296 
L 245.99952 202.559296 
L 245.99952 7.2 
L 33.707196 7.2 
z
" style="fill: #ffffff"/>
   </g>
   <g id="matplotlib.axis_1">
    <g id="xtick_1">
     <g id="line2d_1">
      <defs>
       <path id="mce659040a6" d="M 0 0 
L 0 3.5 
" style="stroke: #000000; stroke-width: 0.8"/>
      </defs>
      <g>
       <use xlink:href="#mce659040a6" x="43.356847" y="202.559296" style="stroke: #000000; stroke-width: 0.8"/>
      </g>
     </g>
     <g id="text_1">
      <!-- $\mathdefault{0}$ -->
      <g transform="translate(41.239756 217.194098) scale(0.08 -0.08)">
       <defs>
        <path id="CMR17-30" d="M 2688 2025 
C 2688 2416 2682 3080 2413 3591 
C 2176 4039 1798 4198 1466 4198 
C 1158 4198 768 4058 525 3597 
C 269 3118 243 2524 243 2025 
C 243 1661 250 1106 448 619 
C 723 -39 1216 -128 1466 -128 
C 1760 -128 2208 -7 2470 600 
C 2662 1042 2688 1559 2688 2025 
z
M 1466 -26 
C 1056 -26 813 325 723 812 
C 653 1188 653 1738 653 2096 
C 653 2588 653 2997 736 3387 
C 858 3929 1216 4096 1466 4096 
C 1728 4096 2067 3923 2189 3400 
C 2272 3036 2278 2607 2278 2096 
C 2278 1680 2278 1169 2202 792 
C 2067 95 1690 -26 1466 -26 
z
" transform="scale(0.015625)"/>
       </defs>
       <use xlink:href="#CMR17-30" transform="scale(0.996264)"/>
      </g>
     </g>
    </g>
    <g id="xtick_2">
     <g id="line2d_2">
      <g>
       <use xlink:href="#mce659040a6" x="70.161434" y="202.559296" style="stroke: #000000; stroke-width: 0.8"/>
      </g>
     </g>
     <g id="text_2">
      <!-- $\mathdefault{25}$ -->
      <g transform="translate(65.927251 217.194098) scale(0.08 -0.08)">
       <defs>
        <path id="CMR17-32" d="M 2669 989 
L 2554 989 
C 2490 536 2438 459 2413 420 
C 2381 369 1920 369 1830 369 
L 602 369 
C 832 619 1280 1072 1824 1597 
C 2214 1967 2669 2402 2669 3035 
C 2669 3790 2067 4224 1395 4224 
C 691 4224 262 3604 262 3030 
C 262 2780 448 2748 525 2748 
C 589 2748 781 2787 781 3010 
C 781 3207 614 3264 525 3264 
C 486 3264 448 3258 422 3245 
C 544 3790 915 4058 1306 4058 
C 1862 4058 2227 3617 2227 3035 
C 2227 2479 1901 2000 1536 1584 
L 262 146 
L 262 0 
L 2515 0 
L 2669 989 
z
" transform="scale(0.015625)"/>
        <path id="CMR17-35" d="M 730 3692 
C 794 3666 1056 3584 1325 3584 
C 1920 3584 2246 3911 2432 4100 
C 2432 4157 2432 4192 2394 4192 
C 2387 4192 2374 4192 2323 4163 
C 2099 4058 1837 3973 1517 3973 
C 1325 3973 1037 3999 723 4139 
C 653 4171 640 4171 634 4171 
C 602 4171 595 4164 595 4037 
L 595 2203 
C 595 2089 595 2057 659 2057 
C 691 2057 704 2070 736 2114 
C 941 2401 1222 2522 1542 2522 
C 1766 2522 2246 2382 2246 1289 
C 2246 1085 2246 715 2054 421 
C 1894 159 1645 25 1370 25 
C 947 25 518 320 403 814 
C 429 807 480 795 506 795 
C 589 795 749 840 749 1038 
C 749 1210 627 1280 506 1280 
C 358 1280 262 1190 262 1011 
C 262 454 704 -128 1382 -128 
C 2042 -128 2669 440 2669 1264 
C 2669 2030 2170 2624 1549 2624 
C 1222 2624 947 2503 730 2274 
L 730 3692 
z
" transform="scale(0.015625)"/>
       </defs>
       <use xlink:href="#CMR17-32" transform="scale(0.996264)"/>
       <use xlink:href="#CMR17-35" transform="translate(45.690477 0) scale(0.996264)"/>
      </g>
     </g>
    </g>
    <g id="xtick_3">
     <g id="line2d_3">
      <g>
       <use xlink:href="#mce659040a6" x="96.96602" y="202.559296" style="stroke: #000000; stroke-width: 0.8"/>
      </g>
     </g>
     <g id="text_3">
      <!-- $\mathdefault{50}$ -->
      <g transform="translate(92.731837 217.194098) scale(0.08 -0.08)">
       <use xlink:href="#CMR17-35" transform="scale(0.996264)"/>
       <use xlink:href="#CMR17-30" transform="translate(45.690477 0) scale(0.996264)"/>
      </g>
     </g>
    </g>
    <g id="xtick_4">
     <g id="line2d_4">
      <g>
       <use xlink:href="#mce659040a6" x="123.770606" y="202.559296" style="stroke: #000000; stroke-width: 0.8"/>
      </g>
     </g>
     <g id="text_4">
      <!-- $\mathdefault{75}$ -->
      <g transform="translate(119.536423 217.194098) scale(0.08 -0.08)">
       <defs>
        <path id="CMR17-37" d="M 2886 3941 
L 2886 4081 
L 1382 4081 
C 634 4081 621 4165 595 4288 
L 480 4288 
L 294 3094 
L 410 3094 
C 429 3215 474 3540 550 3661 
C 589 3712 1062 3712 1171 3712 
L 2579 3712 
L 1869 2661 
C 1395 1954 1069 999 1069 165 
C 1069 89 1069 -128 1299 -128 
C 1530 -128 1530 89 1530 171 
L 1530 465 
C 1530 1508 1709 2196 2003 2636 
L 2886 3941 
z
" transform="scale(0.015625)"/>
       </defs>
       <use xlink:href="#CMR17-37" transform="scale(0.996264)"/>
       <use xlink:href="#CMR17-35" transform="translate(45.690477 0) scale(0.996264)"/>
      </g>
     </g>
    </g>
    <g id="xtick_5">
     <g id="line2d_5">
      <g>
       <use xlink:href="#mce659040a6" x="150.575193" y="202.559296" style="stroke: #000000; stroke-width: 0.8"/>
      </g>
     </g>
     <g id="text_5">
      <!-- $\mathdefault{100}$ -->
      <g transform="translate(144.223918 217.194098) scale(0.08 -0.08)">
       <defs>
        <path id="CMR17-31" d="M 1702 4058 
C 1702 4192 1696 4192 1606 4192 
C 1357 3916 979 3827 621 3827 
C 602 3827 570 3827 563 3808 
C 557 3795 557 3782 557 3648 
C 755 3648 1088 3686 1344 3839 
L 1344 461 
C 1344 236 1331 160 781 160 
L 589 160 
L 589 0 
C 896 0 1216 0 1523 0 
C 1830 0 2150 0 2458 0 
L 2458 160 
L 2266 160 
C 1715 160 1702 230 1702 458 
L 1702 4058 
z
" transform="scale(0.015625)"/>
       </defs>
       <use xlink:href="#CMR17-31" transform="scale(0.996264)"/>
       <use xlink:href="#CMR17-30" transform="translate(45.690477 0) scale(0.996264)"/>
       <use xlink:href="#CMR17-30" transform="translate(91.380954 0) scale(0.996264)"/>
      </g>
     </g>
    </g>
    <g id="xtick_6">
     <g id="line2d_6">
      <g>
       <use xlink:href="#mce659040a6" x="177.379779" y="202.559296" style="stroke: #000000; stroke-width: 0.8"/>
      </g>
     </g>
     <g id="text_6">
      <!-- $\mathdefault{125}$ -->
      <g transform="translate(171.028505 217.194098) scale(0.08 -0.08)">
       <use xlink:href="#CMR17-31" transform="scale(0.996264)"/>
       <use xlink:href="#CMR17-32" transform="translate(45.690477 0) scale(0.996264)"/>
       <use xlink:href="#CMR17-35" transform="translate(91.380954 0) scale(0.996264)"/>
      </g>
     </g>
    </g>
    <g id="xtick_7">
     <g id="line2d_7">
      <g>
       <use xlink:href="#mce659040a6" x="204.184365" y="202.559296" style="stroke: #000000; stroke-width: 0.8"/>
      </g>
     </g>
     <g id="text_7">
      <!-- $\mathdefault{150}$ -->
      <g transform="translate(197.833091 217.194098) scale(0.08 -0.08)">
       <use xlink:href="#CMR17-31" transform="scale(0.996264)"/>
       <use xlink:href="#CMR17-35" transform="translate(45.690477 0) scale(0.996264)"/>
       <use xlink:href="#CMR17-30" transform="translate(91.380954 0) scale(0.996264)"/>
      </g>
     </g>
    </g>
    <g id="xtick_8">
     <g id="line2d_8">
      <g>
       <use xlink:href="#mce659040a6" x="230.988952" y="202.559296" style="stroke: #000000; stroke-width: 0.8"/>
      </g>
     </g>
     <g id="text_8">
      <!-- $\mathdefault{175}$ -->
      <g transform="translate(224.637677 217.194098) scale(0.08 -0.08)">
       <use xlink:href="#CMR17-31" transform="scale(0.996264)"/>
       <use xlink:href="#CMR17-37" transform="translate(45.690477 0) scale(0.996264)"/>
       <use xlink:href="#CMR17-35" transform="translate(91.380954 0) scale(0.996264)"/>
      </g>
     </g>
    </g>
    <g id="text_9">
     <!-- $\tau$ -->
     <g transform="translate(137.675756 229.662342) scale(0.1 -0.1)">
      <defs>
       <path id="CMMI12-1c" d="M 1837 2408 
L 2899 2408 
C 2982 2408 3194 2408 3194 2612 
C 3194 2752 3072 2752 2957 2752 
L 1197 2752 
C 1050 2752 832 2752 538 2440 
C 371 2255 166 1917 166 1879 
C 166 1841 198 1828 237 1828 
C 282 1828 288 1847 320 1885 
C 653 2408 986 2408 1146 2408 
L 1677 2408 
L 1011 223 
C 979 127 979 114 979 95 
C 979 25 1024 -64 1152 -64 
C 1350 -64 1382 108 1402 203 
L 1837 2408 
z
" transform="scale(0.015625)"/>
      </defs>
      <use xlink:href="#CMMI12-1c" transform="scale(0.996264)"/>
     </g>
    </g>
   </g>
   <g id="matplotlib.axis_2">
    <g id="ytick_1">
     <g id="line2d_9">
      <defs>
       <path id="mf20f19331b" d="M 0 0 
L -3.5 0 
" style="stroke: #000000; stroke-width: 0.8"/>
      </defs>
      <g>
       <use xlink:href="#mf20f19331b" x="33.707196" y="193.679328" style="stroke: #000000; stroke-width: 0.8"/>
      </g>
     </g>
     <g id="text_10">
      <!-- $\mathdefault{−1.0}$ -->
      <g transform="translate(7.2 196.446729) scale(0.08 -0.08)">
       <defs>
        <path id="CMSY10-0" d="M 4218 1472 
C 4326 1472 4442 1472 4442 1600 
C 4442 1728 4326 1728 4218 1728 
L 755 1728 
C 646 1728 531 1728 531 1600 
C 531 1472 646 1472 755 1472 
L 4218 1472 
z
" transform="scale(0.015625)"/>
        <path id="CMMI12-3a" d="M 1178 307 
C 1178 492 1024 619 870 619 
C 685 619 557 466 557 313 
C 557 128 710 0 864 0 
C 1050 0 1178 153 1178 307 
z
" transform="scale(0.015625)"/>
       </defs>
       <use xlink:href="#CMSY10-0" transform="scale(0.996264)"/>
       <use xlink:href="#CMR17-31" transform="translate(77.487468 0) scale(0.996264)"/>
       <use xlink:href="#CMMI12-3a" transform="translate(123.177945 0) scale(0.996264)"/>
       <use xlink:href="#CMR17-30" transform="translate(150.275122 0) scale(0.996264)"/>
      </g>
     </g>
    </g>
    <g id="ytick_2">
     <g id="line2d_10">
      <g>
       <use xlink:href="#mf20f19331b" x="33.707196" y="158.3869" style="stroke: #000000; stroke-width: 0.8"/>
      </g>
     </g>
     <g id="text_11">
      <!-- $\mathdefault{−0.8}$ -->
      <g transform="translate(7.2 161.1543) scale(0.08 -0.08)">
       <defs>
        <path id="CMR17-38" d="M 1741 2264 
C 2144 2467 2554 2773 2554 3263 
C 2554 3841 1990 4179 1472 4179 
C 890 4179 378 3759 378 3180 
C 378 3021 416 2747 666 2505 
C 730 2442 998 2251 1171 2130 
C 883 1983 211 1634 211 934 
C 211 279 838 -128 1459 -128 
C 2144 -128 2720 362 2720 1010 
C 2720 1590 2330 1857 2074 2029 
L 1741 2264 
z
M 902 2822 
C 851 2854 595 3051 595 3351 
C 595 3739 998 4032 1459 4032 
C 1965 4032 2336 3676 2336 3262 
C 2336 2669 1670 2331 1638 2331 
C 1632 2331 1626 2331 1574 2370 
L 902 2822 
z
M 2080 1519 
C 2176 1449 2483 1240 2483 851 
C 2483 381 2010 25 1472 25 
C 890 25 448 438 448 940 
C 448 1443 838 1862 1280 2060 
L 2080 1519 
z
" transform="scale(0.015625)"/>
       </defs>
       <use xlink:href="#CMSY10-0" transform="scale(0.996264)"/>
       <use xlink:href="#CMR17-30" transform="translate(77.487468 0) scale(0.996264)"/>
       <use xlink:href="#CMMI12-3a" transform="translate(123.177945 0) scale(0.996264)"/>
       <use xlink:href="#CMR17-38" transform="translate(150.275122 0) scale(0.996264)"/>
      </g>
     </g>
    </g>
    <g id="ytick_3">
     <g id="line2d_11">
      <g>
       <use xlink:href="#mf20f19331b" x="33.707196" y="123.094471" style="stroke: #000000; stroke-width: 0.8"/>
      </g>
     </g>
     <g id="text_12">
      <!-- $\mathdefault{−0.6}$ -->
      <g transform="translate(7.2 125.861872) scale(0.08 -0.08)">
       <defs>
        <path id="CMR17-36" d="M 678 2176 
C 678 3690 1395 4032 1811 4032 
C 1946 4032 2272 4009 2400 3776 
C 2298 3776 2106 3776 2106 3553 
C 2106 3381 2246 3323 2336 3323 
C 2394 3323 2566 3348 2566 3560 
C 2566 3954 2246 4179 1805 4179 
C 1043 4179 243 3390 243 1984 
C 243 253 966 -128 1478 -128 
C 2099 -128 2688 427 2688 1283 
C 2688 2081 2170 2662 1517 2662 
C 1126 2662 838 2407 678 1960 
L 678 2176 
z
M 1478 25 
C 691 25 691 1200 691 1436 
C 691 1896 909 2560 1504 2560 
C 1613 2560 1926 2560 2138 2120 
C 2253 1870 2253 1609 2253 1289 
C 2253 944 2253 690 2118 434 
C 1978 171 1773 25 1478 25 
z
" transform="scale(0.015625)"/>
       </defs>
       <use xlink:href="#CMSY10-0" transform="scale(0.996264)"/>
       <use xlink:href="#CMR17-30" transform="translate(77.487468 0) scale(0.996264)"/>
       <use xlink:href="#CMMI12-3a" transform="translate(123.177945 0) scale(0.996264)"/>
       <use xlink:href="#CMR17-36" transform="translate(150.275122 0) scale(0.996264)"/>
      </g>
     </g>
    </g>
    <g id="ytick_4">
     <g id="line2d_12">
      <g>
       <use xlink:href="#mf20f19331b" x="33.707196" y="87.802043" style="stroke: #000000; stroke-width: 0.8"/>
      </g>
     </g>
     <g id="text_13">
      <!-- $\mathdefault{−0.4}$ -->
      <g transform="translate(7.2 90.569444) scale(0.08 -0.08)">
       <defs>
        <path id="CMR17-34" d="M 2150 4122 
C 2150 4256 2144 4256 2029 4256 
L 128 1254 
L 128 1088 
L 1779 1088 
L 1779 457 
C 1779 224 1766 160 1318 160 
L 1197 160 
L 1197 0 
C 1402 0 1747 0 1965 0 
C 2182 0 2528 0 2733 0 
L 2733 160 
L 2611 160 
C 2163 160 2150 224 2150 457 
L 2150 1088 
L 2803 1088 
L 2803 1254 
L 2150 1254 
L 2150 4122 
z
M 1798 3703 
L 1798 1254 
L 256 1254 
L 1798 3703 
z
" transform="scale(0.015625)"/>
       </defs>
       <use xlink:href="#CMSY10-0" transform="scale(0.996264)"/>
       <use xlink:href="#CMR17-30" transform="translate(77.487468 0) scale(0.996264)"/>
       <use xlink:href="#CMMI12-3a" transform="translate(123.177945 0) scale(0.996264)"/>
       <use xlink:href="#CMR17-34" transform="translate(150.275122 0) scale(0.996264)"/>
      </g>
     </g>
    </g>
    <g id="ytick_5">
     <g id="line2d_13">
      <g>
       <use xlink:href="#mf20f19331b" x="33.707196" y="52.509615" style="stroke: #000000; stroke-width: 0.8"/>
      </g>
     </g>
     <g id="text_14">
      <!-- $\mathdefault{−0.2}$ -->
      <g transform="translate(7.2 55.277016) scale(0.08 -0.08)">
       <use xlink:href="#CMSY10-0" transform="scale(0.996264)"/>
       <use xlink:href="#CMR17-30" transform="translate(77.487468 0) scale(0.996264)"/>
       <use xlink:href="#CMMI12-3a" transform="translate(123.177945 0) scale(0.996264)"/>
       <use xlink:href="#CMR17-32" transform="translate(150.275122 0) scale(0.996264)"/>
      </g>
     </g>
    </g>
    <g id="ytick_6">
     <g id="line2d_14">
      <g>
       <use xlink:href="#mf20f19331b" x="33.707196" y="17.217187" style="stroke: #000000; stroke-width: 0.8"/>
      </g>
     </g>
     <g id="text_15">
      <!-- $\mathdefault{0.0}$ -->
      <g transform="translate(13.786507 19.984587) scale(0.08 -0.08)">
       <use xlink:href="#CMR17-30" transform="scale(0.996264)"/>
       <use xlink:href="#CMMI12-3a" transform="translate(45.690477 0) scale(0.996264)"/>
       <use xlink:href="#CMR17-30" transform="translate(72.787654 0) scale(0.996264)"/>
      </g>
     </g>
    </g>
   </g>
   <g id="line2d_15">
    <path d="M 43.356847 193.679328 
L 52.684843 193.589671 
L 53.006498 193.374828 
L 53.328153 192.860645 
L 53.649808 191.827821 
L 53.971463 190.003311 
L 54.357449 186.374581 
L 54.807767 179.809435 
L 55.386746 167.710202 
L 57.895655 109.017941 
L 58.603296 98.560571 
L 59.439599 89.710287 
L 60.404564 81.617775 
L 61.176536 76.670416 
L 61.948508 73.132988 
L 63.36379 68.020882 
L 63.814108 67.184231 
L 64.521749 65.978159 
L 65.744038 63.618873 
L 66.258686 63.059469 
L 67.030658 62.061182 
L 68.510271 61.177958 
L 69.475236 61.45804 
L 70.054215 61.92698 
L 70.504532 62.794931 
L 71.598159 64.845733 
L 72.756118 66.748681 
L 73.270766 67.120444 
L 73.978407 67.343158 
L 75.136365 67.394707 
L 86.587284 67.507255 
L 86.908939 67.878328 
L 87.294925 68.757288 
L 87.745242 70.360306 
L 88.195559 72.90336 
L 88.710207 77.3313 
L 89.675172 88.227835 
L 91.283448 105.839097 
L 92.248413 114.242103 
L 93.406371 122.123807 
L 94.049681 125.074929 
L 95.078977 128.632501 
L 95.91528 130.666455 
L 97.073238 132.959625 
L 98.038203 134.45885 
L 99.003168 135.214157 
L 101.447747 136.888655 
L 101.833733 137.48729 
L 102.219719 138.561086 
L 102.991691 141.553125 
L 104.921621 149.340242 
L 105.5006 150.559753 
L 105.950917 151.061918 
L 106.465565 151.285229 
L 107.301868 151.345644 
L 117.015851 151.272182 
L 117.401837 151.067569 
L 117.723492 150.628141 
L 118.045147 149.750673 
L 118.431133 147.841448 
L 118.88145 144.144767 
L 119.396098 137.69208 
L 120.232401 123.505548 
L 121.776345 97.171237 
L 122.483986 89.053181 
L 123.513282 80.422729 
L 124.799902 73.349708 
L 126.150854 67.962503 
L 126.53684 66.665585 
L 128.531101 63.080131 
L 129.045749 62.400144 
L 129.624728 61.789771 
L 130.332369 61.156917 
L 130.654024 61.126494 
L 130.975679 61.386083 
L 131.297334 61.606164 
L 131.554658 61.476218 
L 132.519623 60.722831 
L 132.712616 60.678049 
L 132.96994 60.909278 
L 133.420257 61.336971 
L 133.870574 61.754203 
L 135.47885 63.811724 
L 136.701139 65.941072 
L 137.473111 66.750796 
L 138.05209 67.079537 
L 138.824062 67.217432 
L 141.783288 67.227451 
L 150.789629 67.335674 
L 151.175615 67.754472 
L 151.561601 68.585312 
L 151.947587 69.917954 
L 152.462235 72.683946 
L 153.041215 77.104757 
L 153.748856 84.296602 
L 156.193434 110.807607 
L 157.287061 119.120064 
L 158.123364 123.808925 
L 158.895336 126.83414 
L 159.988963 130.105233 
L 160.953928 132.451763 
L 162.30488 134.65578 
L 163.141183 135.411406 
L 163.655831 135.621961 
L 164.942451 136.069727 
L 165.457099 136.484715 
L 165.971747 137.172753 
L 166.486395 138.333818 
L 167.001043 140.048042 
L 167.837346 143.833954 
L 168.866642 148.368243 
L 169.509952 150.234703 
L 170.0246 151.099891 
L 170.474918 151.459198 
L 171.053897 151.60938 
L 172.53351 151.631025 
L 181.411189 151.532449 
L 181.797175 151.274513 
L 182.11883 150.762315 
L 182.440485 149.80027 
L 182.826471 147.761897 
L 183.276788 143.771906 
L 183.791436 136.961859 
L 184.627739 122.417873 
L 185.914359 100.313749 
L 186.686331 90.440222 
L 187.586965 81.954772 
L 188.037282 79.444481 
L 189.323903 73.419243 
L 190.224537 69.552862 
L 190.739185 68.354605 
L 191.189502 67.401818 
L 192.476122 63.774738 
L 192.926439 63.287565 
L 193.441087 62.759609 
L 194.534714 61.660044 
L 194.9207 61.614621 
L 195.306686 61.533607 
L 196.335982 61.105363 
L 197.236617 60.760029 
L 197.493941 60.694986 
L 197.751265 60.922961 
L 199.102216 62.701977 
L 199.423871 63.017117 
L 201.611125 66.377668 
L 202.190104 66.707149 
L 202.897745 66.883416 
L 204.248696 66.916155 
L 215.120637 67.026727 
L 215.506623 67.357703 
L 215.828278 67.925904 
L 216.214264 69.191034 
L 216.664581 71.576278 
L 217.24356 76.016689 
L 218.015532 83.864135 
L 220.653103 112.431631 
L 221.489406 118.510912 
L 222.325709 123.096354 
L 223.419336 127.644693 
L 224.319971 130.452607 
L 225.091943 132.246506 
L 225.735253 133.278311 
L 227.600852 135.4903 
L 228.372824 136.070647 
L 230.04543 136.716791 
L 230.495747 137.385383 
L 230.881733 138.356594 
L 231.396381 140.363672 
L 233.519305 149.398554 
L 234.098284 150.711972 
L 234.548601 151.250899 
L 235.063249 151.517565 
L 235.835221 151.593875 
L 236.349869 151.595295 
L 236.349869 151.595295 
" clip-path="url(#p6bd8e79ee8)" style="fill: none; stroke: #ff7f0e; stroke-width: 0.5; stroke-linecap: square"/>
   </g>
   <g id="line2d_16">
    <path d="M 43.356847 17.217187 
L 53.907132 17.114161 
L 54.743436 17.092379 
L 56.673366 17.207502 
L 57.252345 16.941252 
L 57.895655 16.574061 
L 58.345972 16.604797 
L 58.86062 16.841195 
L 59.761254 17.414363 
L 60.211571 17.333124 
L 61.305198 16.84566 
L 62.205832 16.919293 
L 63.042135 17.222004 
L 63.36379 16.962052 
L 64.007101 16.41472 
L 64.328756 16.407663 
L 64.58608 16.665222 
L 65.358052 17.683848 
L 66.065693 17.896216 
L 66.580341 17.848143 
L 67.995623 17.20075 
L 68.381609 17.333824 
L 69.024919 17.577278 
L 69.346574 17.269886 
L 70.118546 16.377163 
L 70.440201 16.273169 
L 70.826187 16.420494 
L 71.276504 16.903813 
L 71.919814 17.608876 
L 72.3058 17.729131 
L 72.627456 17.576856 
L 73.914076 16.547153 
L 74.235731 16.71776 
L 74.81471 17.380892 
L 75.329358 17.844659 
L 75.651013 17.870408 
L 75.972668 17.668063 
L 77.259288 16.546652 
L 77.580943 16.674049 
L 78.095591 17.176574 
L 78.803232 17.807214 
L 79.189218 17.886988 
L 79.639535 17.730097 
L 80.475838 17.099104 
L 81.24781 16.643542 
L 81.82679 16.545879 
L 82.4701 16.681941 
L 83.306403 17.123139 
L 84.593023 17.800023 
L 85.236333 17.893739 
L 85.879643 17.7747 
L 86.651615 17.373615 
L 88.131228 16.679589 
L 88.517214 16.772773 
L 89.353517 17.390467 
L 90.447145 18.018027 
L 91.41211 18.407772 
L 91.926758 18.198196 
L 92.377075 18.064809 
L 92.956054 17.933822 
L 93.535033 17.445513 
L 94.178343 16.910555 
L 94.757322 16.759605 
L 95.27197 16.826736 
L 96.236935 17.277769 
L 96.751583 17.504586 
L 97.909541 17.578701 
L 99.903803 17.273814 
L 101.126092 16.913043 
L 101.64074 17.112137 
L 103.249015 17.755179 
L 103.763663 17.607288 
L 105.050283 17.025169 
L 106.079579 16.752886 
L 106.851551 16.803267 
L 107.752185 17.103038 
L 109.29613 17.655301 
L 110.003771 17.650486 
L 110.647081 17.422688 
L 112.126694 16.750497 
L 112.577011 16.860293 
L 113.220321 17.314482 
L 113.7993 17.657944 
L 114.185286 17.652615 
L 114.635603 17.386076 
L 115.536237 16.766485 
L 115.922223 16.798412 
L 116.37254 17.088867 
L 117.144513 17.620032 
L 117.530499 17.620288 
L 117.980816 17.349917 
L 118.817119 16.763233 
L 119.138774 16.771763 
L 119.589091 17.045976 
L 120.16807 17.385385 
L 120.618387 17.376653 
L 121.197366 17.131146 
L 121.647683 17.054436 
L 123.127296 17.128193 
L 123.577613 17.325009 
L 123.899268 17.237846 
L 124.735571 16.857148 
L 124.992895 17.016263 
L 125.829199 17.758222 
L 126.279516 17.857654 
L 126.53684 17.646585 
L 126.922826 16.921281 
L 127.308812 16.306873 
L 127.566136 16.2434 
L 127.82346 16.438668 
L 128.724094 17.370072 
L 129.045749 17.369496 
L 129.946383 17.203385 
L 130.525362 17.226044 
L 131.425996 17.572803 
L 131.747651 17.38487 
L 132.776947 16.511419 
L 133.355926 16.779255 
L 134.127898 17.013079 
L 135.028533 16.786032 
L 135.350188 16.965231 
L 135.736174 17.5247 
L 136.250822 18.206197 
L 136.508146 18.246462 
L 136.76547 18.067786 
L 137.151456 17.466883 
L 137.794766 16.409133 
L 138.116421 16.251762 
L 138.373745 16.369509 
L 138.759731 16.888945 
L 139.596034 18.128964 
L 139.853358 18.182738 
L 140.110682 18.018302 
L 140.496668 17.456113 
L 141.204309 16.368832 
L 141.525964 16.246733 
L 141.783288 16.378156 
L 142.169274 16.867641 
L 143.069908 18.085238 
L 143.391563 18.190019 
L 143.713219 18.081188 
L 144.163536 17.671539 
L 145.385825 16.426217 
L 145.900473 16.24829 
L 146.415121 16.325309 
L 146.9941 16.657721 
L 149.181354 18.18565 
L 149.760333 18.133786 
L 150.274981 17.860591 
L 152.333573 16.373497 
L 153.041215 16.259805 
L 153.427201 16.428662 
L 154.392166 17.287023 
L 154.842483 17.636401 
L 155.678786 17.732017 
L 156.322096 17.577752 
L 156.965406 17.218512 
L 157.737378 16.895346 
L 158.316357 16.92042 
L 159.538646 16.902027 
L 160.310618 17.08781 
L 161.532908 17.269672 
L 162.176218 17.282542 
L 163.205514 17.472274 
L 163.913155 17.490385 
L 164.556465 17.630259 
L 166.743719 17.107832 
L 167.194036 17.000114 
L 170.860904 17.360734 
L 172.53351 17.174626 
L 174.077454 17.070818 
L 175.299743 17.225571 
L 176.586363 17.360347 
L 177.486997 17.185438 
L 178.387631 17.071718 
L 179.223935 17.250346 
L 180.060238 17.363852 
L 180.83221 17.206568 
L 181.732844 17.06939 
L 182.440485 17.22227 
L 183.019464 17.310812 
L 183.469781 17.128751 
L 184.434746 16.628459 
L 184.756401 16.764467 
L 185.142387 17.226207 
L 185.528373 17.625985 
L 185.785697 17.591309 
L 186.107352 17.25626 
L 186.943655 16.144647 
L 187.200979 16.218938 
L 187.586965 16.673367 
L 188.358938 17.697069 
L 188.616262 17.647223 
L 188.873586 17.310437 
L 189.645558 16.110057 
L 189.902882 16.11284 
L 190.224537 16.41307 
L 191.06084 17.481713 
L 191.382495 17.433568 
L 192.218798 17.16088 
L 192.797777 17.25213 
L 194.084397 17.642213 
L 194.663376 17.922528 
L 195.821334 17.539176 
L 196.400313 17.349501 
L 197.493941 17.614169 
L 197.815596 17.333905 
L 198.523237 16.627782 
L 198.973554 16.635661 
L 199.295209 16.850063 
L 200.195843 17.723763 
L 200.517498 17.694116 
L 201.096477 17.289757 
L 201.804118 16.869512 
L 202.254435 16.87285 
L 202.833414 17.169711 
L 203.605386 17.549662 
L 204.055703 17.50728 
L 204.699013 17.148847 
L 205.342323 16.877939 
L 205.79264 16.941321 
L 206.628944 17.394072 
L 207.207923 17.560722 
L 207.722571 17.480107 
L 209.781163 16.875547 
L 210.617466 17.023639 
L 212.933382 17.559377 
L 213.834016 17.437166 
L 216.149933 16.907687 
L 216.664581 17.137784 
L 217.436553 17.368497 
L 218.079863 17.324055 
L 218.658842 17.254358 
L 219.623807 17.213234 
L 220.331448 17.018843 
L 221.489406 16.998354 
L 222.197047 17.411359 
L 222.647364 17.726741 
L 223.226343 18.13576 
L 223.998316 18.378086 
L 224.448633 18.199632 
L 225.863915 17.225756 
L 226.249901 17.176695 
L 227.536521 17.300353 
L 228.1155 17.251039 
L 228.823141 17.27722 
L 229.788106 17.086665 
L 230.495747 16.989361 
L 231.97536 16.782989 
L 232.683002 16.795074 
L 233.390643 17.083621 
L 234.741594 17.609142 
L 235.513566 17.657933 
L 236.349869 17.456754 
L 236.349869 17.456754 
" clip-path="url(#p6bd8e79ee8)" style="fill: none; stroke: #2ca02c; stroke-width: 0.5; stroke-linecap: square"/>
   </g>
   <g id="line2d_17">
    <path d="M 43.356847 17.217187 
L 56.609035 17.324606 
L 57.188014 17.546914 
L 57.574 17.48296 
L 58.86062 16.850763 
L 59.375268 16.811189 
L 59.761254 17.04769 
L 60.340233 17.418504 
L 60.661888 17.362919 
L 61.240867 17.24562 
L 62.07717 17.228601 
L 62.527487 16.873848 
L 62.72048 16.963353 
L 63.556784 17.820217 
L 63.878439 17.66314 
L 64.264425 17.159867 
L 64.843404 16.381266 
L 65.036397 16.392648 
L 65.358052 16.758019 
L 65.744038 17.073042 
L 67.15932 17.674372 
L 67.80263 17.28356 
L 68.574602 16.883844 
L 68.831926 17.052094 
L 69.539567 17.785871 
L 69.989884 17.570999 
L 70.568863 17.0894 
L 71.212173 16.544784 
L 71.533828 16.557677 
L 71.919814 16.850037 
L 72.949111 17.848013 
L 73.270766 17.76422 
L 73.721083 17.351167 
L 74.493055 16.585918 
L 74.81471 16.56562 
L 75.136365 16.771849 
L 76.422985 17.885434 
L 76.74464 17.733076 
L 77.323619 17.100947 
L 77.902598 16.594902 
L 78.288584 16.567772 
L 78.67457 16.786177 
L 80.154183 17.87441 
L 80.668831 17.836409 
L 81.312142 17.527755 
L 82.984748 16.609607 
L 83.628058 16.554052 
L 84.271368 16.731754 
L 85.493657 17.405591 
L 86.394291 17.747585 
L 87.101932 17.727249 
L 87.680911 17.497925 
L 88.9032 16.840673 
L 89.803834 16.649746 
L 90.447145 16.650326 
L 91.026124 17.056562 
L 91.926758 17.530863 
L 92.441406 17.687155 
L 93.084716 17.671913 
L 94.178343 17.234289 
L 94.885984 16.890129 
L 95.786618 16.764395 
L 97.008907 17.171988 
L 97.587886 17.424668 
L 99.260493 17.629834 
L 100.225458 17.373749 
L 101.126092 16.928144 
L 101.962395 16.796626 
L 102.605705 16.920091 
L 104.599966 17.560453 
L 105.5006 17.497292 
L 106.529896 17.128649 
L 107.623523 16.781571 
L 108.395496 16.779424 
L 109.231799 17.028785 
L 111.033067 17.683766 
L 111.547715 17.569957 
L 112.255356 17.129452 
L 112.962997 16.762852 
L 113.348983 16.793787 
L 113.7993 17.063725 
L 114.699934 17.669302 
L 115.08592 17.633673 
L 115.536237 17.338372 
L 116.308209 16.791499 
L 116.694195 16.79505 
L 117.144513 17.072961 
L 117.916485 17.599391 
L 118.302471 17.608732 
L 118.752788 17.394979 
L 119.717753 16.83393 
L 120.103739 16.954848 
L 120.618387 17.361567 
L 121.004373 17.528455 
L 121.390359 17.397419 
L 121.840676 17.314589 
L 122.612648 17.299081 
L 123.255958 16.879283 
L 123.577613 17.048099 
L 124.349585 17.631435 
L 124.606909 17.342513 
L 125.185888 16.535729 
L 125.443212 16.573569 
L 125.829199 16.882432 
L 126.279516 17.541901 
L 126.794164 18.311753 
L 126.987157 18.246135 
L 127.244481 17.829866 
L 127.887791 16.592256 
L 128.145115 16.571651 
L 128.595432 16.951 
L 129.174411 17.339909 
L 130.139376 17.269358 
L 130.911348 16.905791 
L 131.297334 17.330999 
L 131.811982 17.814239 
L 132.133637 17.859469 
L 132.455292 17.547881 
L 133.098602 16.844486 
L 133.420257 16.893609 
L 133.806243 17.205006 
L 134.192229 17.49663 
L 134.513884 17.476394 
L 134.899871 17.180309 
L 135.736174 16.391049 
L 135.993498 16.52551 
L 136.315153 17.030689 
L 136.958463 18.107546 
L 137.280118 18.243175 
L 137.537442 18.083785 
L 137.987759 17.420096 
L 138.6954 16.346416 
L 139.017055 16.252669 
L 139.274379 16.422063 
L 139.660365 16.989199 
L 140.368006 18.076735 
L 140.689661 18.184211 
L 140.946985 18.027492 
L 141.332971 17.483431 
L 142.104943 16.353288 
L 142.426598 16.246468 
L 142.748253 16.411588 
L 143.19857 16.955761 
L 144.034874 17.988967 
L 144.485191 18.187063 
L 144.871177 18.120886 
L 145.385825 17.783769 
L 147.251424 16.31083 
L 147.766072 16.249883 
L 148.28072 16.406973 
L 148.988361 16.900235 
L 150.467974 18.013965 
L 151.111284 18.103152 
L 151.625932 17.986959 
L 152.14058 17.606795 
L 153.555863 16.391488 
L 153.941849 16.418427 
L 154.520828 16.687128 
L 155.228469 17.225995 
L 155.807448 17.649675 
L 156.322096 17.734687 
L 157.86604 17.677 
L 158.252026 17.630926 
L 160.117625 16.969371 
L 161.468577 17.207425 
L 162.047556 17.216694 
L 162.433542 17.217547 
L 163.784493 16.969085 
L 164.299141 17.003295 
L 164.87812 16.905979 
L 166.615057 17.004098 
L 167.322698 17.295214 
L 167.901677 17.244838 
L 168.673649 17.172476 
L 173.562806 17.26168 
L 175.557067 17.07843 
L 176.650694 17.276165 
L 177.551328 17.359378 
L 178.451962 17.163692 
L 179.223935 17.070879 
L 179.995907 17.230917 
L 180.83221 17.363096 
L 181.604182 17.214323 
L 182.440485 17.077139 
L 182.955133 17.223125 
L 183.984429 17.693266 
L 184.306084 17.42839 
L 185.206718 16.494466 
L 185.399711 16.721376 
L 186.236014 18.187869 
L 186.429007 18.129181 
L 186.750662 17.663748 
L 187.522634 16.461797 
L 187.779958 16.454271 
L 188.101613 16.702785 
L 188.423269 17.259326 
L 188.937917 18.140387 
L 189.195241 18.15066 
L 189.452565 17.89718 
L 190.41753 16.477756 
L 190.610523 16.473015 
L 190.867847 16.756373 
L 191.446826 17.495977 
L 191.768481 17.472417 
L 192.218798 17.219034 
L 192.797777 16.861799 
L 193.248094 16.975018 
L 193.63408 16.932095 
L 194.084397 16.852164 
L 194.406052 17.072025 
L 194.856369 17.420445 
L 195.692672 17.50112 
L 195.949996 17.465571 
L 196.271651 17.138316 
L 196.593306 16.888714 
L 196.914961 16.97636 
L 197.365279 17.379206 
L 197.944258 17.928785 
L 198.201582 17.856941 
L 199.102216 16.906128 
L 199.488202 16.589464 
L 199.745526 16.651689 
L 200.388836 17.278097 
L 200.903484 17.618325 
L 201.28947 17.620685 
L 201.804118 17.372136 
L 202.704752 16.88781 
L 203.155069 16.910622 
L 203.734048 17.207119 
L 204.441689 17.548472 
L 204.892006 17.509481 
L 205.535316 17.156979 
L 206.178627 16.882275 
L 206.628944 16.921307 
L 207.336585 17.258084 
L 208.108557 17.544812 
L 208.751867 17.514942 
L 209.781163 17.171191 
L 210.87479 16.893329 
L 211.711093 16.904584 
L 212.740389 17.156203 
L 214.348664 17.547906 
L 215.056306 17.49626 
L 216.021271 17.162865 
L 216.664581 16.957658 
L 217.500884 17.039129 
L 218.465849 17.290278 
L 219.559476 17.799428 
L 220.267117 17.459332 
L 221.553737 16.795452 
L 222.132716 16.742755 
L 224.191309 17.513394 
L 225.220605 17.390885 
L 226.056908 16.98667 
L 227.729514 17.065601 
L 228.437155 17.397874 
L 229.337789 17.441761 
L 230.753071 17.493072 
L 233.19765 16.763752 
L 234.355608 16.876407 
L 235.835221 17.446808 
L 236.349869 17.600699 
L 236.349869 17.600699 
" clip-path="url(#p6bd8e79ee8)" style="fill: none; stroke: #d62728; stroke-width: 0.5; stroke-linecap: square"/>
   </g>
   <g id="patch_3">
    <path d="M 33.707196 202.559296 
L 33.707196 7.2 
" style="fill: none; stroke: #000000; stroke-width: 0.8; stroke-linejoin: miter; stroke-linecap: square"/>
   </g>
   <g id="patch_4">
    <path d="M 245.99952 202.559296 
L 245.99952 7.2 
" style="fill: none; stroke: #000000; stroke-width: 0.8; stroke-linejoin: miter; stroke-linecap: square"/>
   </g>
   <g id="patch_5">
    <path d="M 33.707196 202.559296 
L 245.99952 202.559296 
" style="fill: none; stroke: #000000; stroke-width: 0.8; stroke-linejoin: miter; stroke-linecap: square"/>
   </g>
   <g id="patch_6">
    <path d="M 33.707196 7.2 
L 245.99952 7.2 
" style="fill: none; stroke: #000000; stroke-width: 0.8; stroke-linejoin: miter; stroke-linecap: square"/>
   </g>
   <g id="legend_1">
    <g id="patch_7">
     <path d="M 193.792605 198.059296 
L 239.69952 198.059296 
Q 241.49952 198.059296 241.49952 196.259296 
L 241.49952 156.760168 
Q 241.49952 154.960168 239.69952 154.960168 
L 193.792605 154.960168 
Q 191.992605 154.960168 191.992605 156.760168 
L 191.992605 196.259296 
Q 191.992605 198.059296 193.792605 198.059296 
z
" style="fill: #ffffff; opacity: 0.8; stroke: #cccccc; stroke-width: 0.24; stroke-linejoin: miter"/>
    </g>
    <g id="line2d_18">
     <path d="M 195.592605 162.13495 
L 204.592605 162.13495 
L 213.592605 162.13495 
" style="fill: none; stroke: #ff7f0e; stroke-width: 0.5; stroke-linecap: square"/>
    </g>
    <g id="text_16">
     <!-- $\langle \sigma_z\rangle$ -->
     <g transform="translate(220.792605 165.28495) scale(0.09 -0.09)">
      <defs>
       <path id="CMSY10-68" d="M 2099 4557 
C 2131 4627 2131 4640 2131 4672 
C 2131 4742 2074 4800 2003 4800 
C 1946 4800 1901 4768 1856 4653 
L 736 1715 
C 723 1677 704 1638 704 1600 
C 704 1581 704 1568 736 1491 
L 1856 -1446 
C 1882 -1517 1914 -1600 2003 -1600 
C 2074 -1600 2131 -1542 2131 -1472 
C 2131 -1453 2131 -1440 2099 -1370 
L 966 1600 
L 2099 4557 
z
" transform="scale(0.015625)"/>
       <path id="CMMI12-1b" d="M 3251 2408 
C 3334 2408 3546 2408 3546 2612 
C 3546 2752 3424 2752 3309 2752 
L 1894 2752 
C 934 2752 243 1686 243 932 
C 243 390 595 -64 1171 -64 
C 1926 -64 2752 747 2752 1705 
C 2752 1954 2694 2196 2541 2408 
L 3251 2408 
z
M 1178 64 
C 851 64 614 313 614 754 
C 614 1137 845 2408 1786 2408 
C 2061 2408 2368 2274 2368 1781 
C 2368 1558 2266 1021 2042 652 
C 1811 275 1466 64 1178 64 
z
" transform="scale(0.015625)"/>
       <path id="CMMI12-7a" d="M 813 486 
C 1088 803 1312 1004 1632 1296 
C 2016 1632 2182 1793 2272 1891 
C 2720 2338 2944 2713 2944 2764 
C 2944 2816 2893 2816 2880 2816 
C 2835 2816 2822 2793 2790 2750 
C 2630 2494 2477 2367 2310 2367 
C 2176 2367 2106 2421 1984 2565 
C 1850 2715 1741 2816 1555 2816 
C 1088 2816 806 2257 806 2128 
C 806 2108 813 2068 870 2068 
C 922 2068 928 2091 947 2133 
C 1056 2372 1363 2414 1485 2414 
C 1619 2414 1747 2376 1882 2327 
C 2125 2240 2227 2240 2291 2240 
C 2336 2240 2362 2240 2394 2246 
C 2182 1994 1837 1683 1549 1418 
L 902 816 
C 512 415 275 33 275 -12 
C 275 -51 307 -64 346 -64 
C 384 -64 390 -57 435 14 
C 538 163 742 384 979 384 
C 1114 384 1178 342 1306 193 
C 1427 61 1536 -64 1741 -64 
C 2368 -64 2726 732 2726 876 
C 2726 903 2720 942 2656 942 
C 2605 942 2598 917 2579 855 
C 2438 488 2061 338 1811 338 
C 1677 338 1549 376 1414 425 
C 1158 512 1088 512 1005 512 
C 941 512 870 512 813 486 
z
" transform="scale(0.015625)"/>
       <path id="CMSY10-69" d="M 1747 1491 
C 1779 1568 1779 1581 1779 1600 
C 1779 1619 1779 1632 1747 1709 
L 627 4653 
C 589 4762 550 4800 480 4800 
C 410 4800 352 4742 352 4672 
C 352 4653 352 4640 384 4570 
L 1517 1600 
L 384 -1357 
C 352 -1427 352 -1440 352 -1472 
C 352 -1542 410 -1600 480 -1600 
C 563 -1600 589 -1536 614 -1472 
L 1747 1491 
z
" transform="scale(0.015625)"/>
      </defs>
      <use xlink:href="#CMSY10-68" transform="scale(0.996264)"/>
      <use xlink:href="#CMMI12-1b" transform="translate(38.743734 0) scale(0.996264)"/>
      <use xlink:href="#CMMI12-7a" transform="translate(94.189195 -14.943915) scale(0.697382)"/>
      <use xlink:href="#CMSY10-69" transform="translate(129.51575 0) scale(0.996264)"/>
     </g>
    </g>
    <g id="line2d_19">
     <path d="M 195.592605 175.601326 
L 204.592605 175.601326 
L 213.592605 175.601326 
" style="fill: none; stroke: #2ca02c; stroke-width: 0.5; stroke-linecap: square"/>
    </g>
    <g id="text_17">
     <!-- $\langle \sigma_x\rangle$ -->
     <g transform="translate(220.792605 178.751326) scale(0.09 -0.09)">
      <defs>
       <path id="CMMI12-78" d="M 3034 2606 
C 2829 2567 2752 2414 2752 2293 
C 2752 2139 2874 2088 2963 2088 
C 3155 2088 3290 2254 3290 2427 
C 3290 2695 2982 2816 2714 2816 
C 2323 2816 2106 2433 2048 2312 
C 1901 2816 1504 2816 1389 2816 
C 736 2816 390 1980 390 1839 
C 390 1814 416 1782 461 1782 
C 512 1782 525 1820 538 1846 
C 755 2555 1184 2689 1370 2689 
C 1658 2689 1715 2420 1715 2267 
C 1715 2127 1677 1980 1600 1673 
L 1382 798 
C 1286 415 1101 64 762 64 
C 730 64 570 64 435 147 
C 666 192 717 383 717 460 
C 717 588 621 664 499 664 
C 346 664 179 530 179 326 
C 179 57 480 -64 755 -64 
C 1062 -64 1280 179 1414 441 
C 1517 64 1837 -64 2074 -64 
C 2726 -64 3072 773 3072 913 
C 3072 945 3046 971 3008 971 
C 2950 971 2944 939 2925 888 
C 2752 326 2381 64 2093 64 
C 1869 64 1747 230 1747 492 
C 1747 632 1773 734 1875 1156 
L 2099 2024 
C 2195 2408 2413 2689 2707 2689 
C 2720 2689 2899 2689 3034 2606 
z
" transform="scale(0.015625)"/>
      </defs>
      <use xlink:href="#CMSY10-68" transform="scale(0.996264)"/>
      <use xlink:href="#CMMI12-1b" transform="translate(38.743734 0) scale(0.996264)"/>
      <use xlink:href="#CMMI12-78" transform="translate(94.189195 -14.943915) scale(0.697382)"/>
      <use xlink:href="#CMSY10-69" transform="translate(133.490986 0) scale(0.996264)"/>
     </g>
    </g>
    <g id="line2d_20">
     <path d="M 195.592605 189.067702 
L 204.592605 189.067702 
L 213.592605 189.067702 
" style="fill: none; stroke: #d62728; stroke-width: 0.5; stroke-linecap: square"/>
    </g>
    <g id="text_18">
     <!-- $\langle \sigma_y\rangle$ -->
     <g transform="translate(220.792605 192.217702) scale(0.09 -0.09)">
      <defs>
       <path id="CMMI12-79" d="M 1683 -700 
C 1510 -939 1261 -1152 947 -1152 
C 870 -1152 563 -1152 467 -889 
C 486 -895 518 -895 531 -895 
C 723 -895 851 -729 851 -582 
C 851 -435 730 -384 634 -384 
C 531 -384 307 -458 307 -759 
C 307 -1071 582 -1286 947 -1286 
C 1587 -1286 2234 -700 2413 6 
L 3040 2485 
C 3046 2517 3059 2556 3059 2594 
C 3059 2689 2982 2753 2886 2753 
C 2829 2753 2694 2727 2643 2535 
L 2170 658 
C 2138 543 2138 530 2086 460 
C 1958 281 1747 64 1440 64 
C 1082 64 1050 415 1050 588 
C 1050 952 1222 1443 1395 1903 
C 1466 2088 1504 2178 1504 2305 
C 1504 2574 1312 2816 998 2816 
C 410 2816 173 1890 173 1839 
C 173 1814 198 1782 243 1782 
C 301 1782 307 1807 333 1897 
C 486 2433 730 2689 979 2689 
C 1037 2689 1146 2689 1146 2478 
C 1146 2312 1075 2127 979 1884 
C 666 1047 666 837 666 683 
C 666 77 1101 -64 1421 -64 
C 1606 -64 1837 -6 2061 230 
L 2067 224 
C 1971 -147 1907 -392 1683 -700 
z
" transform="scale(0.015625)"/>
      </defs>
      <use xlink:href="#CMSY10-68" transform="scale(0.996264)"/>
      <use xlink:href="#CMMI12-1b" transform="translate(38.743734 0) scale(0.996264)"/>
      <use xlink:href="#CMMI12-79" transform="translate(94.189195 -14.943915) scale(0.697382)"/>
      <use xlink:href="#CMSY10-69" transform="translate(130.484301 0) scale(0.996264)"/>
     </g>
    </g>
   </g>
  </g>
 </g>
 <defs>
  <clipPath id="p6bd8e79ee8">
   <rect x="33.707196" y="7.2" width="212.292324" height="195.359296"/>
  </clipPath>
 </defs>
</svg>
