<?xml version="1.0" encoding="utf-8" standalone="no"?>
<!DOCTYPE svg PUBLIC "-//W3C//DTD SVG 1.1//EN"
  "http://www.w3.org/Graphics/SVG/1.1/DTD/svg11.dtd">
<svg xmlns:xlink="http://www.w3.org/1999/xlink" width="253.19952pt" height="238.79952pt" viewBox="0 0 253.19952 238.79952" xmlns="http://www.w3.org/2000/svg" version="1.1">
 <metadata>
  <rdf:RDF xmlns:dc="http://purl.org/dc/elements/1.1/" xmlns:cc="http://creativecommons.org/ns#" xmlns:rdf="http://www.w3.org/1999/02/22-rdf-syntax-ns#">
   <cc:Work>
    <dc:type rdf:resource="http://purl.org/dc/dcmitype/StillImage"/>
    <dc:date>1980-01-01T00:00:00+00:00</dc:date>
    <dc:format>image/svg+xml</dc:format>
    <dc:creator>
     <cc:Agent>
      <dc:title>Matplotlib v3.6.2, https://matplotlib.org/</dc:title>
     </cc:Agent>
    </dc:creator>
   </cc:Work>
  </rdf:RDF>
 </metadata>
 <defs>
  <style type="text/css">*{stroke-linejoin: round; stroke-linecap: butt}</style>
 </defs>
 <g id="figure_1">
  <g id="patch_1">
   <path d="M 0 238.79952 
L 253.19952 238.79952 
L 253.19952 0 
L 0 0 
z
" style="fill: #ffffff"/>
  </g>
  <g id="axes_1">
   <g id="patch_2">
    <path d="M 33.707196 202.559296 
L 245.99952 202.559296 
L 245.99952 7.2 
L 33.707196 7.2 
z
" style="fill: #ffffff"/>
   </g>
   <g id="matplotlib.axis_1">
    <g id="xtick_1">
     <g id="line2d_1">
      <defs>
       <path id="mcae4e07610" d="M 0 0 
L 0 3.5 
" style="stroke: #000000; stroke-width: 0.8"/>
      </defs>
      <g>
       <use xlink:href="#mcae4e07610" x="43.356847" y="202.559296" style="stroke: #000000; stroke-width: 0.8"/>
      </g>
     </g>
     <g id="text_1">
      <!-- $\mathdefault{0}$ -->
      <g transform="translate(41.239756 217.194098) scale(0.08 -0.08)">
       <defs>
        <path id="CMR17-30" d="M 2688 2025 
C 2688 2416 2682 3080 2413 3591 
C 2176 4039 1798 4198 1466 4198 
C 1158 4198 768 4058 525 3597 
C 269 3118 243 2524 243 2025 
C 243 1661 250 1106 448 619 
C 723 -39 1216 -128 1466 -128 
C 1760 -128 2208 -7 2470 600 
C 2662 1042 2688 1559 2688 2025 
z
M 1466 -26 
C 1056 -26 813 325 723 812 
C 653 1188 653 1738 653 2096 
C 653 2588 653 2997 736 3387 
C 858 3929 1216 4096 1466 4096 
C 1728 4096 2067 3923 2189 3400 
C 2272 3036 2278 2607 2278 2096 
C 2278 1680 2278 1169 2202 792 
C 2067 95 1690 -26 1466 -26 
z
" transform="scale(0.015625)"/>
       </defs>
       <use xlink:href="#CMR17-30" transform="scale(0.996264)"/>
      </g>
     </g>
    </g>
    <g id="xtick_2">
     <g id="line2d_2">
      <g>
       <use xlink:href="#mcae4e07610" x="70.161434" y="202.559296" style="stroke: #000000; stroke-width: 0.8"/>
      </g>
     </g>
     <g id="text_2">
      <!-- $\mathdefault{25}$ -->
      <g transform="translate(65.927251 217.194098) scale(0.08 -0.08)">
       <defs>
        <path id="CMR17-32" d="M 2669 989 
L 2554 989 
C 2490 536 2438 459 2413 420 
C 2381 369 1920 369 1830 369 
L 602 369 
C 832 619 1280 1072 1824 1597 
C 2214 1967 2669 2402 2669 3035 
C 2669 3790 2067 4224 1395 4224 
C 691 4224 262 3604 262 3030 
C 262 2780 448 2748 525 2748 
C 589 2748 781 2787 781 3010 
C 781 3207 614 3264 525 3264 
C 486 3264 448 3258 422 3245 
C 544 3790 915 4058 1306 4058 
C 1862 4058 2227 3617 2227 3035 
C 2227 2479 1901 2000 1536 1584 
L 262 146 
L 262 0 
L 2515 0 
L 2669 989 
z
" transform="scale(0.015625)"/>
        <path id="CMR17-35" d="M 730 3692 
C 794 3666 1056 3584 1325 3584 
C 1920 3584 2246 3911 2432 4100 
C 2432 4157 2432 4192 2394 4192 
C 2387 4192 2374 4192 2323 4163 
C 2099 4058 1837 3973 1517 3973 
C 1325 3973 1037 3999 723 4139 
C 653 4171 640 4171 634 4171 
C 602 4171 595 4164 595 4037 
L 595 2203 
C 595 2089 595 2057 659 2057 
C 691 2057 704 2070 736 2114 
C 941 2401 1222 2522 1542 2522 
C 1766 2522 2246 2382 2246 1289 
C 2246 1085 2246 715 2054 421 
C 1894 159 1645 25 1370 25 
C 947 25 518 320 403 814 
C 429 807 480 795 506 795 
C 589 795 749 840 749 1038 
C 749 1210 627 1280 506 1280 
C 358 1280 262 1190 262 1011 
C 262 454 704 -128 1382 -128 
C 2042 -128 2669 440 2669 1264 
C 2669 2030 2170 2624 1549 2624 
C 1222 2624 947 2503 730 2274 
L 730 3692 
z
" transform="scale(0.015625)"/>
       </defs>
       <use xlink:href="#CMR17-32" transform="scale(0.996264)"/>
       <use xlink:href="#CMR17-35" transform="translate(45.690477 0) scale(0.996264)"/>
      </g>
     </g>
    </g>
    <g id="xtick_3">
     <g id="line2d_3">
      <g>
       <use xlink:href="#mcae4e07610" x="96.96602" y="202.559296" style="stroke: #000000; stroke-width: 0.8"/>
      </g>
     </g>
     <g id="text_3">
      <!-- $\mathdefault{50}$ -->
      <g transform="translate(92.731837 217.194098) scale(0.08 -0.08)">
       <use xlink:href="#CMR17-35" transform="scale(0.996264)"/>
       <use xlink:href="#CMR17-30" transform="translate(45.690477 0) scale(0.996264)"/>
      </g>
     </g>
    </g>
    <g id="xtick_4">
     <g id="line2d_4">
      <g>
       <use xlink:href="#mcae4e07610" x="123.770606" y="202.559296" style="stroke: #000000; stroke-width: 0.8"/>
      </g>
     </g>
     <g id="text_4">
      <!-- $\mathdefault{75}$ -->
      <g transform="translate(119.536423 217.194098) scale(0.08 -0.08)">
       <defs>
        <path id="CMR17-37" d="M 2886 3941 
L 2886 4081 
L 1382 4081 
C 634 4081 621 4165 595 4288 
L 480 4288 
L 294 3094 
L 410 3094 
C 429 3215 474 3540 550 3661 
C 589 3712 1062 3712 1171 3712 
L 2579 3712 
L 1869 2661 
C 1395 1954 1069 999 1069 165 
C 1069 89 1069 -128 1299 -128 
C 1530 -128 1530 89 1530 171 
L 1530 465 
C 1530 1508 1709 2196 2003 2636 
L 2886 3941 
z
" transform="scale(0.015625)"/>
       </defs>
       <use xlink:href="#CMR17-37" transform="scale(0.996264)"/>
       <use xlink:href="#CMR17-35" transform="translate(45.690477 0) scale(0.996264)"/>
      </g>
     </g>
    </g>
    <g id="xtick_5">
     <g id="line2d_5">
      <g>
       <use xlink:href="#mcae4e07610" x="150.575193" y="202.559296" style="stroke: #000000; stroke-width: 0.8"/>
      </g>
     </g>
     <g id="text_5">
      <!-- $\mathdefault{100}$ -->
      <g transform="translate(144.223918 217.194098) scale(0.08 -0.08)">
       <defs>
        <path id="CMR17-31" d="M 1702 4058 
C 1702 4192 1696 4192 1606 4192 
C 1357 3916 979 3827 621 3827 
C 602 3827 570 3827 563 3808 
C 557 3795 557 3782 557 3648 
C 755 3648 1088 3686 1344 3839 
L 1344 461 
C 1344 236 1331 160 781 160 
L 589 160 
L 589 0 
C 896 0 1216 0 1523 0 
C 1830 0 2150 0 2458 0 
L 2458 160 
L 2266 160 
C 1715 160 1702 230 1702 458 
L 1702 4058 
z
" transform="scale(0.015625)"/>
       </defs>
       <use xlink:href="#CMR17-31" transform="scale(0.996264)"/>
       <use xlink:href="#CMR17-30" transform="translate(45.690477 0) scale(0.996264)"/>
       <use xlink:href="#CMR17-30" transform="translate(91.380954 0) scale(0.996264)"/>
      </g>
     </g>
    </g>
    <g id="xtick_6">
     <g id="line2d_6">
      <g>
       <use xlink:href="#mcae4e07610" x="177.379779" y="202.559296" style="stroke: #000000; stroke-width: 0.8"/>
      </g>
     </g>
     <g id="text_6">
      <!-- $\mathdefault{125}$ -->
      <g transform="translate(171.028505 217.194098) scale(0.08 -0.08)">
       <use xlink:href="#CMR17-31" transform="scale(0.996264)"/>
       <use xlink:href="#CMR17-32" transform="translate(45.690477 0) scale(0.996264)"/>
       <use xlink:href="#CMR17-35" transform="translate(91.380954 0) scale(0.996264)"/>
      </g>
     </g>
    </g>
    <g id="xtick_7">
     <g id="line2d_7">
      <g>
       <use xlink:href="#mcae4e07610" x="204.184365" y="202.559296" style="stroke: #000000; stroke-width: 0.8"/>
      </g>
     </g>
     <g id="text_7">
      <!-- $\mathdefault{150}$ -->
      <g transform="translate(197.833091 217.194098) scale(0.08 -0.08)">
       <use xlink:href="#CMR17-31" transform="scale(0.996264)"/>
       <use xlink:href="#CMR17-35" transform="translate(45.690477 0) scale(0.996264)"/>
       <use xlink:href="#CMR17-30" transform="translate(91.380954 0) scale(0.996264)"/>
      </g>
     </g>
    </g>
    <g id="xtick_8">
     <g id="line2d_8">
      <g>
       <use xlink:href="#mcae4e07610" x="230.988952" y="202.559296" style="stroke: #000000; stroke-width: 0.8"/>
      </g>
     </g>
     <g id="text_8">
      <!-- $\mathdefault{175}$ -->
      <g transform="translate(224.637677 217.194098) scale(0.08 -0.08)">
       <use xlink:href="#CMR17-31" transform="scale(0.996264)"/>
       <use xlink:href="#CMR17-37" transform="translate(45.690477 0) scale(0.996264)"/>
       <use xlink:href="#CMR17-35" transform="translate(91.380954 0) scale(0.996264)"/>
      </g>
     </g>
    </g>
    <g id="text_9">
     <!-- $\tau$ -->
     <g transform="translate(137.675756 229.662342) scale(0.1 -0.1)">
      <defs>
       <path id="CMMI12-1c" d="M 1837 2408 
L 2899 2408 
C 2982 2408 3194 2408 3194 2612 
C 3194 2752 3072 2752 2957 2752 
L 1197 2752 
C 1050 2752 832 2752 538 2440 
C 371 2255 166 1917 166 1879 
C 166 1841 198 1828 237 1828 
C 282 1828 288 1847 320 1885 
C 653 2408 986 2408 1146 2408 
L 1677 2408 
L 1011 223 
C 979 127 979 114 979 95 
C 979 25 1024 -64 1152 -64 
C 1350 -64 1382 108 1402 203 
L 1837 2408 
z
" transform="scale(0.015625)"/>
      </defs>
      <use xlink:href="#CMMI12-1c" transform="scale(0.996264)"/>
     </g>
    </g>
   </g>
   <g id="matplotlib.axis_2">
    <g id="ytick_1">
     <g id="line2d_9">
      <defs>
       <path id="m778667415e" d="M 0 0 
L -3.5 0 
" style="stroke: #000000; stroke-width: 0.8"/>
      </defs>
      <g>
       <use xlink:href="#m778667415e" x="33.707196" y="193.679328" style="stroke: #000000; stroke-width: 0.8"/>
      </g>
     </g>
     <g id="text_10">
      <!-- $\mathdefault{−1.0}$ -->
      <g transform="translate(7.2 196.446729) scale(0.08 -0.08)">
       <defs>
        <path id="CMSY10-0" d="M 4218 1472 
C 4326 1472 4442 1472 4442 1600 
C 4442 1728 4326 1728 4218 1728 
L 755 1728 
C 646 1728 531 1728 531 1600 
C 531 1472 646 1472 755 1472 
L 4218 1472 
z
" transform="scale(0.015625)"/>
        <path id="CMMI12-3a" d="M 1178 307 
C 1178 492 1024 619 870 619 
C 685 619 557 466 557 313 
C 557 128 710 0 864 0 
C 1050 0 1178 153 1178 307 
z
" transform="scale(0.015625)"/>
       </defs>
       <use xlink:href="#CMSY10-0" transform="scale(0.996264)"/>
       <use xlink:href="#CMR17-31" transform="translate(77.487468 0) scale(0.996264)"/>
       <use xlink:href="#CMMI12-3a" transform="translate(123.177945 0) scale(0.996264)"/>
       <use xlink:href="#CMR17-30" transform="translate(150.275122 0) scale(0.996264)"/>
      </g>
     </g>
    </g>
    <g id="ytick_2">
     <g id="line2d_10">
      <g>
       <use xlink:href="#m778667415e" x="33.707196" y="158.344514" style="stroke: #000000; stroke-width: 0.8"/>
      </g>
     </g>
     <g id="text_11">
      <!-- $\mathdefault{−0.8}$ -->
      <g transform="translate(7.2 161.111915) scale(0.08 -0.08)">
       <defs>
        <path id="CMR17-38" d="M 1741 2264 
C 2144 2467 2554 2773 2554 3263 
C 2554 3841 1990 4179 1472 4179 
C 890 4179 378 3759 378 3180 
C 378 3021 416 2747 666 2505 
C 730 2442 998 2251 1171 2130 
C 883 1983 211 1634 211 934 
C 211 279 838 -128 1459 -128 
C 2144 -128 2720 362 2720 1010 
C 2720 1590 2330 1857 2074 2029 
L 1741 2264 
z
M 902 2822 
C 851 2854 595 3051 595 3351 
C 595 3739 998 4032 1459 4032 
C 1965 4032 2336 3676 2336 3262 
C 2336 2669 1670 2331 1638 2331 
C 1632 2331 1626 2331 1574 2370 
L 902 2822 
z
M 2080 1519 
C 2176 1449 2483 1240 2483 851 
C 2483 381 2010 25 1472 25 
C 890 25 448 438 448 940 
C 448 1443 838 1862 1280 2060 
L 2080 1519 
z
" transform="scale(0.015625)"/>
       </defs>
       <use xlink:href="#CMSY10-0" transform="scale(0.996264)"/>
       <use xlink:href="#CMR17-30" transform="translate(77.487468 0) scale(0.996264)"/>
       <use xlink:href="#CMMI12-3a" transform="translate(123.177945 0) scale(0.996264)"/>
       <use xlink:href="#CMR17-38" transform="translate(150.275122 0) scale(0.996264)"/>
      </g>
     </g>
    </g>
    <g id="ytick_3">
     <g id="line2d_11">
      <g>
       <use xlink:href="#m778667415e" x="33.707196" y="123.0097" style="stroke: #000000; stroke-width: 0.8"/>
      </g>
     </g>
     <g id="text_12">
      <!-- $\mathdefault{−0.6}$ -->
      <g transform="translate(7.2 125.777101) scale(0.08 -0.08)">
       <defs>
        <path id="CMR17-36" d="M 678 2176 
C 678 3690 1395 4032 1811 4032 
C 1946 4032 2272 4009 2400 3776 
C 2298 3776 2106 3776 2106 3553 
C 2106 3381 2246 3323 2336 3323 
C 2394 3323 2566 3348 2566 3560 
C 2566 3954 2246 4179 1805 4179 
C 1043 4179 243 3390 243 1984 
C 243 253 966 -128 1478 -128 
C 2099 -128 2688 427 2688 1283 
C 2688 2081 2170 2662 1517 2662 
C 1126 2662 838 2407 678 1960 
L 678 2176 
z
M 1478 25 
C 691 25 691 1200 691 1436 
C 691 1896 909 2560 1504 2560 
C 1613 2560 1926 2560 2138 2120 
C 2253 1870 2253 1609 2253 1289 
C 2253 944 2253 690 2118 434 
C 1978 171 1773 25 1478 25 
z
" transform="scale(0.015625)"/>
       </defs>
       <use xlink:href="#CMSY10-0" transform="scale(0.996264)"/>
       <use xlink:href="#CMR17-30" transform="translate(77.487468 0) scale(0.996264)"/>
       <use xlink:href="#CMMI12-3a" transform="translate(123.177945 0) scale(0.996264)"/>
       <use xlink:href="#CMR17-36" transform="translate(150.275122 0) scale(0.996264)"/>
      </g>
     </g>
    </g>
    <g id="ytick_4">
     <g id="line2d_12">
      <g>
       <use xlink:href="#m778667415e" x="33.707196" y="87.674886" style="stroke: #000000; stroke-width: 0.8"/>
      </g>
     </g>
     <g id="text_13">
      <!-- $\mathdefault{−0.4}$ -->
      <g transform="translate(7.2 90.442287) scale(0.08 -0.08)">
       <defs>
        <path id="CMR17-34" d="M 2150 4122 
C 2150 4256 2144 4256 2029 4256 
L 128 1254 
L 128 1088 
L 1779 1088 
L 1779 457 
C 1779 224 1766 160 1318 160 
L 1197 160 
L 1197 0 
C 1402 0 1747 0 1965 0 
C 2182 0 2528 0 2733 0 
L 2733 160 
L 2611 160 
C 2163 160 2150 224 2150 457 
L 2150 1088 
L 2803 1088 
L 2803 1254 
L 2150 1254 
L 2150 4122 
z
M 1798 3703 
L 1798 1254 
L 256 1254 
L 1798 3703 
z
" transform="scale(0.015625)"/>
       </defs>
       <use xlink:href="#CMSY10-0" transform="scale(0.996264)"/>
       <use xlink:href="#CMR17-30" transform="translate(77.487468 0) scale(0.996264)"/>
       <use xlink:href="#CMMI12-3a" transform="translate(123.177945 0) scale(0.996264)"/>
       <use xlink:href="#CMR17-34" transform="translate(150.275122 0) scale(0.996264)"/>
      </g>
     </g>
    </g>
    <g id="ytick_5">
     <g id="line2d_13">
      <g>
       <use xlink:href="#m778667415e" x="33.707196" y="52.340073" style="stroke: #000000; stroke-width: 0.8"/>
      </g>
     </g>
     <g id="text_14">
      <!-- $\mathdefault{−0.2}$ -->
      <g transform="translate(7.2 55.107473) scale(0.08 -0.08)">
       <use xlink:href="#CMSY10-0" transform="scale(0.996264)"/>
       <use xlink:href="#CMR17-30" transform="translate(77.487468 0) scale(0.996264)"/>
       <use xlink:href="#CMMI12-3a" transform="translate(123.177945 0) scale(0.996264)"/>
       <use xlink:href="#CMR17-32" transform="translate(150.275122 0) scale(0.996264)"/>
      </g>
     </g>
    </g>
    <g id="ytick_6">
     <g id="line2d_14">
      <g>
       <use xlink:href="#m778667415e" x="33.707196" y="17.005259" style="stroke: #000000; stroke-width: 0.8"/>
      </g>
     </g>
     <g id="text_15">
      <!-- $\mathdefault{0.0}$ -->
      <g transform="translate(13.786507 19.77266) scale(0.08 -0.08)">
       <use xlink:href="#CMR17-30" transform="scale(0.996264)"/>
       <use xlink:href="#CMMI12-3a" transform="translate(45.690477 0) scale(0.996264)"/>
       <use xlink:href="#CMR17-30" transform="translate(72.787654 0) scale(0.996264)"/>
      </g>
     </g>
    </g>
   </g>
   <g id="line2d_15">
    <path d="M 43.356847 193.679328 
L 43.421178 193.448786 
L 43.54984 191.638097 
L 43.807164 183.408484 
L 44.900791 140.484039 
L 45.158115 138.238001 
L 45.222446 138.230337 
L 45.351108 138.804166 
L 45.608432 141.898303 
L 46.895053 162.069076 
L 47.088046 162.5628 
L 47.216708 162.52394 
L 47.409701 162.077074 
L 48.117342 160.017443 
L 48.310335 160.023055 
L 48.503328 160.335549 
L 48.889314 161.616979 
L 49.661286 164.251895 
L 49.982941 164.718915 
L 50.304596 164.835087 
L 51.012237 164.9226 
L 51.398223 165.259018 
L 51.912871 166.057423 
L 53.328153 168.488277 
L 53.521146 168.381284 
L 53.714139 167.967396 
L 53.971463 166.807831 
L 54.293118 164.185287 
L 54.743436 158.212773 
L 55.451077 144.881164 
L 56.995021 115.461674 
L 57.766993 104.601616 
L 58.474634 97.818932 
L 59.50393 90.45843 
L 60.79055 83.073353 
L 61.305198 80.638853 
L 63.814108 72.120557 
L 64.650411 70.035403 
L 65.551045 67.705517 
L 66.644672 66.060405 
L 67.030658 65.967085 
L 68.574602 64.599757 
L 69.539567 63.080001 
L 69.861222 63.234744 
L 70.118546 63.251165 
L 70.504532 62.911074 
L 70.826187 62.765286 
L 71.66249 62.725408 
L 72.691787 61.640699 
L 73.077773 61.374655 
L 74.107069 60.877223 
L 74.81471 60.410626 
L 75.136365 60.540871 
L 75.522351 60.708024 
L 75.844006 60.570318 
L 76.165661 60.187539 
L 76.487316 59.417821 
L 77.323619 56.604395 
L 77.773936 54.108129 
L 79.703866 41.961709 
L 80.154183 41.0262 
L 80.797493 40.31257 
L 81.569466 39.473973 
L 82.019783 39.127688 
L 82.598762 39.104371 
L 83.435065 38.941453 
L 84.271368 38.76155 
L 84.593023 39.096833 
L 85.172002 39.731466 
L 86.008305 40.190942 
L 86.32996 40.795851 
L 86.715946 41.99147 
L 87.294925 44.634482 
L 87.938235 48.624231 
L 88.517214 53.688982 
L 89.224855 61.940698 
L 91.476441 89.881185 
L 92.505737 99.846243 
L 93.470702 106.95746 
L 94.435667 112.577116 
L 95.464963 116.988569 
L 96.365597 120.058176 
L 97.780879 123.916341 
L 98.552851 125.43591 
L 99.324824 126.47507 
L 100.161127 127.196515 
L 101.576409 128.461513 
L 102.863029 129.551939 
L 103.57067 129.978836 
L 104.085318 130.016785 
L 105.307607 130.026177 
L 106.208241 130.206795 
L 107.108875 130.268937 
L 108.138172 130.425649 
L 108.524158 130.589893 
L 108.781482 130.992885 
L 109.038806 131.878727 
L 109.360461 133.940913 
L 109.746447 138.001345 
L 111.097398 154.323642 
L 111.419053 155.611986 
L 111.676377 155.955819 
L 111.998032 155.994518 
L 112.319687 156.104525 
L 112.641342 156.572119 
L 113.15599 157.914014 
L 113.992293 160.101486 
L 114.699934 161.3143 
L 116.887189 164.813739 
L 117.466168 165.923861 
L 117.723492 166.058824 
L 117.916485 165.898424 
L 118.173809 165.21568 
L 118.431133 163.826497 
L 118.752788 160.848992 
L 119.203105 154.308737 
L 120.16807 135.533847 
L 121.390359 113.492108 
L 122.290993 101.365531 
L 122.934303 95.658071 
L 124.092261 87.785628 
L 124.992895 82.932414 
L 126.729833 75.914548 
L 127.437474 74.140228 
L 128.852756 70.369431 
L 131.04001 65.784335 
L 131.68332 64.89927 
L 132.133637 64.446619 
L 132.905609 63.53301 
L 133.61325 63.021444 
L 133.934905 62.70382 
L 134.449553 62.128305 
L 135.157195 61.963999 
L 135.736174 61.763126 
L 136.636808 60.876059 
L 137.151456 60.930457 
L 137.537442 60.587086 
L 138.05209 60.161766 
L 138.373745 60.249239 
L 138.6954 60.309528 
L 140.560999 59.721619 
L 140.818323 59.41504 
L 141.26864 58.340176 
L 141.654626 56.947391 
L 142.104943 54.326012 
L 142.748253 49.073848 
L 143.391563 44.262714 
L 143.713219 43.190914 
L 144.678184 41.547333 
L 145.514487 40.474601 
L 146.157797 39.927092 
L 147.058431 39.436923 
L 147.701741 38.598412 
L 148.023396 38.46374 
L 148.409382 38.605048 
L 149.052692 38.853049 
L 149.438678 38.961167 
L 149.760333 39.365889 
L 150.339312 40.616977 
L 150.918291 42.457283 
L 151.883256 46.254847 
L 152.333573 49.203167 
L 152.912553 54.576235 
L 153.813187 65.42326 
L 155.743117 88.989851 
L 156.772413 98.997217 
L 157.801709 106.820343 
L 158.766674 112.606862 
L 159.602977 116.347111 
L 160.374949 118.876902 
L 161.918894 123.007777 
L 162.883859 124.834749 
L 163.784493 126.183934 
L 164.620796 127.002824 
L 165.971747 128.179834 
L 168.544987 129.537037 
L 169.702945 130.031344 
L 170.796573 130.654789 
L 171.504214 130.640943 
L 172.726503 130.623858 
L 172.983827 130.865349 
L 173.241151 131.478427 
L 173.562806 133.06807 
L 173.948792 136.525563 
L 174.592102 145.124876 
L 175.235412 152.854213 
L 175.621398 155.166895 
L 175.943053 155.84284 
L 176.264708 155.944957 
L 176.586363 156.03622 
L 176.843687 156.317914 
L 177.229673 157.154433 
L 178.709286 160.92791 
L 180.960872 164.268414 
L 181.861506 165.844912 
L 182.11883 165.886923 
L 182.311823 165.640717 
L 182.569147 164.803888 
L 182.890802 162.709226 
L 183.276788 158.389015 
L 183.791436 149.814488 
L 185.914359 111.076325 
L 186.686331 101.315984 
L 187.393972 94.980491 
L 188.294607 89.314959 
L 189.388234 83.351429 
L 191.189502 75.967976 
L 192.733446 71.448514 
L 194.599045 67.536066 
L 195.242355 67.028604 
L 197.493941 64.071071 
L 198.394575 63.797544 
L 199.745526 62.098084 
L 200.517498 62.054485 
L 201.160808 61.574427 
L 201.997111 61.113847 
L 202.447428 61.20413 
L 203.412393 60.814946 
L 203.86271 60.662313 
L 204.248696 60.914639 
L 204.634682 61.059786 
L 204.892006 60.925178 
L 205.14933 60.529934 
L 205.470985 59.56654 
L 205.985634 57.063617 
L 206.564613 53.257209 
L 207.722571 44.662227 
L 208.172888 42.811435 
L 208.558874 42.067133 
L 210.102818 40.291149 
L 212.097079 39.231608 
L 212.740389 39.289012 
L 213.576692 39.692354 
L 213.962678 39.791632 
L 214.348664 40.1872 
L 214.863313 41.122283 
L 215.31363 42.387791 
L 215.828278 44.58104 
L 216.407257 47.989093 
L 217.050567 53.268662 
L 217.822539 61.861077 
L 220.46011 93.616389 
L 221.489406 102.760346 
L 222.39004 108.951618 
L 223.419336 114.368605 
L 224.319971 118.056868 
L 225.156274 120.625073 
L 226.056908 122.71942 
L 227.407859 125.29028 
L 228.887472 127.392807 
L 229.788106 128.360512 
L 230.367085 128.666069 
L 231.074726 128.994773 
L 232.297015 129.724674 
L 234.612932 130.088703 
L 235.256242 130.109275 
L 236.349869 130.537942 
L 236.349869 130.537942 
" clip-path="url(#p0157b9a476)" style="fill: none; stroke: #1f77b4; stroke-width: 0.5; stroke-linecap: square"/>
   </g>
   <g id="line2d_16">
    <path d="M 43.356847 17.005259 
L 44.257481 16.667536 
L 45.222446 16.591051 
L 60.340233 16.511164 
L 109.810778 16.588678 
L 114.44261 16.665796 
L 120.039408 16.585606 
L 123.448951 16.513543 
L 156.064772 16.516558 
L 171.504214 16.566015 
L 179.802914 16.671075 
L 184.306084 16.589362 
L 187.586965 16.514888 
L 219.109159 16.504344 
L 236.349869 16.565747 
L 236.349869 16.565747 
" clip-path="url(#p0157b9a476)" style="fill: none; stroke: #ff7f0e; stroke-width: 0.5; stroke-linecap: square"/>
   </g>
   <g id="line2d_17">
    <path d="M 43.356847 17.005259 
L 44.128819 16.889025 
L 45.286777 16.90724 
L 46.637729 17.181942 
L 47.860018 16.595583 
L 48.438997 16.805886 
L 49.403962 17.219237 
L 49.854279 17.080717 
L 50.819244 16.68888 
L 51.269561 16.811262 
L 52.427519 17.246389 
L 52.877836 17.146643 
L 53.907132 16.755476 
L 54.486111 16.898127 
L 55.64407 17.267412 
L 56.673366 17.386867 
L 57.123683 17.061582 
L 57.509669 16.883091 
L 57.895655 17.025352 
L 58.281641 17.116 
L 58.731958 16.937837 
L 59.246606 16.814268 
L 59.696923 16.957896 
L 60.211571 17.109468 
L 60.79055 16.879555 
L 61.755515 16.636248 
L 62.527487 16.545682 
L 62.913473 16.798664 
L 63.492453 17.176541 
L 64.135763 17.288123 
L 65.22939 17.130482 
L 66.773334 16.589019 
L 68.574602 17.175327 
L 69.603898 17.318592 
L 69.989884 17.039245 
L 70.37587 16.798971 
L 70.890518 16.819333 
L 71.726821 16.88308 
L 72.177138 16.666717 
L 72.756118 16.400431 
L 74.1714 16.561101 
L 74.879041 16.785007 
L 75.715344 16.99658 
L 76.165661 16.609993 
L 76.74464 16.147052 
L 77.066295 16.137232 
L 77.838267 16.472338 
L 78.545908 16.661398 
L 79.060556 16.552104 
L 80.218514 16.083494 
L 80.797493 16.244973 
L 82.019783 16.745323 
L 82.920417 17.03142 
L 84.40003 17.537314 
L 84.979009 17.416127 
L 86.201298 16.972873 
L 86.908939 17.001592 
L 88.066897 17.083975 
L 89.224855 16.894373 
L 90.511476 16.684685 
L 91.669434 16.868916 
L 92.763061 17.036634 
L 93.792357 16.796614 
L 94.62866 16.626401 
L 95.722287 16.684863 
L 96.944576 17.007408 
L 98.424189 17.433118 
L 98.938837 17.348864 
L 100.611444 16.688794 
L 102.92736 16.512075 
L 103.57067 16.77906 
L 105.371938 17.56568 
L 107.108875 17.980754 
L 108.459827 17.897576 
L 109.29613 17.640759 
L 110.389757 17.281475 
L 116.887189 17.198218 
L 117.723492 16.990066 
L 118.173809 17.051846 
L 119.267436 17.402583 
L 119.653422 17.248167 
L 120.16807 16.753636 
L 120.682718 16.299358 
L 121.004373 16.259477 
L 121.326028 16.479112 
L 122.162331 17.259017 
L 122.548317 17.243081 
L 123.38462 16.882824 
L 124.092261 16.671152 
L 124.542578 16.791902 
L 125.31455 17.062579 
L 125.829199 16.922876 
L 126.53684 16.745761 
L 126.858495 16.969488 
L 127.82346 17.921928 
L 128.080784 17.874774 
L 128.402439 17.514904 
L 128.981418 16.71538 
L 129.238742 16.739151 
L 129.689059 17.175924 
L 130.139376 17.497694 
L 130.461031 17.462176 
L 131.361665 17.034943 
L 132.069306 16.688169 
L 132.32663 16.789211 
L 132.712616 17.271375 
L 133.098602 17.612522 
L 133.355926 17.567549 
L 134.513884 17.025964 
L 135.157195 17.48978 
L 135.607512 17.620723 
L 135.929167 17.424652 
L 136.76547 16.658288 
L 137.151456 16.732188 
L 138.824062 17.309307 
L 139.98202 16.77445 
L 141.590295 16.960229 
L 142.104943 17.127727 
L 142.619591 17.053348 
L 143.455894 16.824759 
L 144.356529 16.887073 
L 145.257163 16.704112 
L 146.929769 16.847273 
L 148.023396 17.097439 
L 149.245685 16.682703 
L 150.532305 16.819501 
L 151.304277 16.613496 
L 152.011918 16.51885 
L 153.491532 16.621428 
L 154.263504 16.936402 
L 154.971145 17.217991 
L 155.421462 17.145552 
L 157.801709 16.280243 
L 158.252026 16.559531 
L 159.79597 17.713143 
L 160.374949 17.701035 
L 161.211252 17.410017 
L 162.94819 16.638665 
L 163.913155 16.867402 
L 165.199775 17.067204 
L 170.346256 17.227834 
L 171.504214 17.018221 
L 173.241151 16.738728 
L 174.013123 16.922616 
L 175.814391 17.48942 
L 177.229673 17.154659 
L 178.451962 17.332499 
L 179.738583 16.957558 
L 181.218196 17.102698 
L 181.925837 16.915479 
L 182.826471 16.661529 
L 183.276788 16.775723 
L 183.920098 17.273603 
L 184.306084 17.405086 
L 184.627739 17.254907 
L 185.528373 16.56264 
L 185.850028 16.767058 
L 186.557669 17.294703 
L 187.072317 17.380037 
L 187.586965 17.20073 
L 188.358938 16.990376 
L 189.902882 16.877974 
L 190.610523 17.112111 
L 191.318164 17.306488 
L 192.733446 17.144231 
L 193.376756 17.168587 
L 195.628341 16.912766 
L 196.335982 17.002629 
L 196.786299 16.720375 
L 197.107955 16.631844 
L 197.493941 16.794531 
L 198.71623 17.61542 
L 199.102216 17.577688 
L 199.488202 17.3063 
L 200.324505 16.493925 
L 200.581829 16.601535 
L 201.675456 17.394423 
L 202.061442 17.338391 
L 202.897745 17.04344 
L 203.348062 16.937123 
L 204.377358 16.375116 
L 204.763344 16.486253 
L 205.084999 16.833061 
L 205.663978 17.569247 
L 205.921302 17.562136 
L 206.242958 17.247924 
L 206.886268 16.610167 
L 207.465247 16.450622 
L 208.751867 16.423559 
L 209.395177 16.662708 
L 210.102818 16.919682 
L 210.746128 16.869398 
L 212.547396 16.4358 
L 213.126375 16.66947 
L 214.477326 17.304311 
L 215.699616 17.266626 
L 216.342926 17.078191 
L 218.208525 16.261525 
L 219.688138 16.251888 
L 220.395779 16.454694 
L 221.74673 17.110768 
L 222.711695 17.642829 
L 223.483667 17.745636 
L 224.834619 17.699695 
L 225.799584 17.613409 
L 227.407859 17.556183 
L 228.437155 17.306476 
L 229.144796 17.207678 
L 231.525043 17.085764 
L 233.84096 16.5729 
L 234.419939 16.755481 
L 235.77089 17.229256 
L 236.349869 17.32331 
L 236.349869 17.32331 
" clip-path="url(#p0157b9a476)" style="fill: none; stroke: #2ca02c; stroke-width: 0.5; stroke-linecap: square"/>
   </g>
   <g id="patch_3">
    <path d="M 33.707196 202.559296 
L 33.707196 7.2 
" style="fill: none; stroke: #000000; stroke-width: 0.8; stroke-linejoin: miter; stroke-linecap: square"/>
   </g>
   <g id="patch_4">
    <path d="M 245.99952 202.559296 
L 245.99952 7.2 
" style="fill: none; stroke: #000000; stroke-width: 0.8; stroke-linejoin: miter; stroke-linecap: square"/>
   </g>
   <g id="patch_5">
    <path d="M 33.707196 202.559296 
L 245.99952 202.559296 
" style="fill: none; stroke: #000000; stroke-width: 0.8; stroke-linejoin: miter; stroke-linecap: square"/>
   </g>
   <g id="patch_6">
    <path d="M 33.707196 7.2 
L 245.99952 7.2 
" style="fill: none; stroke: #000000; stroke-width: 0.8; stroke-linejoin: miter; stroke-linecap: square"/>
   </g>
   <g id="legend_1">
    <g id="patch_7">
     <path d="M 193.792605 198.059296 
L 239.69952 198.059296 
Q 241.49952 198.059296 241.49952 196.259296 
L 241.49952 156.760168 
Q 241.49952 154.960168 239.69952 154.960168 
L 193.792605 154.960168 
Q 191.992605 154.960168 191.992605 156.760168 
L 191.992605 196.259296 
Q 191.992605 198.059296 193.792605 198.059296 
z
" style="fill: #ffffff; opacity: 0.8; stroke: #cccccc; stroke-width: 0.24; stroke-linejoin: miter"/>
    </g>
    <g id="line2d_18">
     <path d="M 195.592605 162.13495 
L 204.592605 162.13495 
L 213.592605 162.13495 
" style="fill: none; stroke: #1f77b4; stroke-width: 0.5; stroke-linecap: square"/>
    </g>
    <g id="text_16">
     <!-- $\langle \sigma_z\rangle$ -->
     <g transform="translate(220.792605 165.28495) scale(0.09 -0.09)">
      <defs>
       <path id="CMSY10-68" d="M 2099 4557 
C 2131 4627 2131 4640 2131 4672 
C 2131 4742 2074 4800 2003 4800 
C 1946 4800 1901 4768 1856 4653 
L 736 1715 
C 723 1677 704 1638 704 1600 
C 704 1581 704 1568 736 1491 
L 1856 -1446 
C 1882 -1517 1914 -1600 2003 -1600 
C 2074 -1600 2131 -1542 2131 -1472 
C 2131 -1453 2131 -1440 2099 -1370 
L 966 1600 
L 2099 4557 
z
" transform="scale(0.015625)"/>
       <path id="CMMI12-1b" d="M 3251 2408 
C 3334 2408 3546 2408 3546 2612 
C 3546 2752 3424 2752 3309 2752 
L 1894 2752 
C 934 2752 243 1686 243 932 
C 243 390 595 -64 1171 -64 
C 1926 -64 2752 747 2752 1705 
C 2752 1954 2694 2196 2541 2408 
L 3251 2408 
z
M 1178 64 
C 851 64 614 313 614 754 
C 614 1137 845 2408 1786 2408 
C 2061 2408 2368 2274 2368 1781 
C 2368 1558 2266 1021 2042 652 
C 1811 275 1466 64 1178 64 
z
" transform="scale(0.015625)"/>
       <path id="CMMI12-7a" d="M 813 486 
C 1088 803 1312 1004 1632 1296 
C 2016 1632 2182 1793 2272 1891 
C 2720 2338 2944 2713 2944 2764 
C 2944 2816 2893 2816 2880 2816 
C 2835 2816 2822 2793 2790 2750 
C 2630 2494 2477 2367 2310 2367 
C 2176 2367 2106 2421 1984 2565 
C 1850 2715 1741 2816 1555 2816 
C 1088 2816 806 2257 806 2128 
C 806 2108 813 2068 870 2068 
C 922 2068 928 2091 947 2133 
C 1056 2372 1363 2414 1485 2414 
C 1619 2414 1747 2376 1882 2327 
C 2125 2240 2227 2240 2291 2240 
C 2336 2240 2362 2240 2394 2246 
C 2182 1994 1837 1683 1549 1418 
L 902 816 
C 512 415 275 33 275 -12 
C 275 -51 307 -64 346 -64 
C 384 -64 390 -57 435 14 
C 538 163 742 384 979 384 
C 1114 384 1178 342 1306 193 
C 1427 61 1536 -64 1741 -64 
C 2368 -64 2726 732 2726 876 
C 2726 903 2720 942 2656 942 
C 2605 942 2598 917 2579 855 
C 2438 488 2061 338 1811 338 
C 1677 338 1549 376 1414 425 
C 1158 512 1088 512 1005 512 
C 941 512 870 512 813 486 
z
" transform="scale(0.015625)"/>
       <path id="CMSY10-69" d="M 1747 1491 
C 1779 1568 1779 1581 1779 1600 
C 1779 1619 1779 1632 1747 1709 
L 627 4653 
C 589 4762 550 4800 480 4800 
C 410 4800 352 4742 352 4672 
C 352 4653 352 4640 384 4570 
L 1517 1600 
L 384 -1357 
C 352 -1427 352 -1440 352 -1472 
C 352 -1542 410 -1600 480 -1600 
C 563 -1600 589 -1536 614 -1472 
L 1747 1491 
z
" transform="scale(0.015625)"/>
      </defs>
      <use xlink:href="#CMSY10-68" transform="scale(0.996264)"/>
      <use xlink:href="#CMMI12-1b" transform="translate(38.743734 0) scale(0.996264)"/>
      <use xlink:href="#CMMI12-7a" transform="translate(94.189195 -14.943915) scale(0.697382)"/>
      <use xlink:href="#CMSY10-69" transform="translate(129.51575 0) scale(0.996264)"/>
     </g>
    </g>
    <g id="line2d_19">
     <path d="M 195.592605 175.601326 
L 204.592605 175.601326 
L 213.592605 175.601326 
" style="fill: none; stroke: #ff7f0e; stroke-width: 0.5; stroke-linecap: square"/>
    </g>
    <g id="text_17">
     <!-- $\langle \sigma_x\rangle$ -->
     <g transform="translate(220.792605 178.751326) scale(0.09 -0.09)">
      <defs>
       <path id="CMMI12-78" d="M 3034 2606 
C 2829 2567 2752 2414 2752 2293 
C 2752 2139 2874 2088 2963 2088 
C 3155 2088 3290 2254 3290 2427 
C 3290 2695 2982 2816 2714 2816 
C 2323 2816 2106 2433 2048 2312 
C 1901 2816 1504 2816 1389 2816 
C 736 2816 390 1980 390 1839 
C 390 1814 416 1782 461 1782 
C 512 1782 525 1820 538 1846 
C 755 2555 1184 2689 1370 2689 
C 1658 2689 1715 2420 1715 2267 
C 1715 2127 1677 1980 1600 1673 
L 1382 798 
C 1286 415 1101 64 762 64 
C 730 64 570 64 435 147 
C 666 192 717 383 717 460 
C 717 588 621 664 499 664 
C 346 664 179 530 179 326 
C 179 57 480 -64 755 -64 
C 1062 -64 1280 179 1414 441 
C 1517 64 1837 -64 2074 -64 
C 2726 -64 3072 773 3072 913 
C 3072 945 3046 971 3008 971 
C 2950 971 2944 939 2925 888 
C 2752 326 2381 64 2093 64 
C 1869 64 1747 230 1747 492 
C 1747 632 1773 734 1875 1156 
L 2099 2024 
C 2195 2408 2413 2689 2707 2689 
C 2720 2689 2899 2689 3034 2606 
z
" transform="scale(0.015625)"/>
      </defs>
      <use xlink:href="#CMSY10-68" transform="scale(0.996264)"/>
      <use xlink:href="#CMMI12-1b" transform="translate(38.743734 0) scale(0.996264)"/>
      <use xlink:href="#CMMI12-78" transform="translate(94.189195 -14.943915) scale(0.697382)"/>
      <use xlink:href="#CMSY10-69" transform="translate(133.490986 0) scale(0.996264)"/>
     </g>
    </g>
    <g id="line2d_20">
     <path d="M 195.592605 189.067702 
L 204.592605 189.067702 
L 213.592605 189.067702 
" style="fill: none; stroke: #2ca02c; stroke-width: 0.5; stroke-linecap: square"/>
    </g>
    <g id="text_18">
     <!-- $\langle \sigma_y\rangle$ -->
     <g transform="translate(220.792605 192.217702) scale(0.09 -0.09)">
      <defs>
       <path id="CMMI12-79" d="M 1683 -700 
C 1510 -939 1261 -1152 947 -1152 
C 870 -1152 563 -1152 467 -889 
C 486 -895 518 -895 531 -895 
C 723 -895 851 -729 851 -582 
C 851 -435 730 -384 634 -384 
C 531 -384 307 -458 307 -759 
C 307 -1071 582 -1286 947 -1286 
C 1587 -1286 2234 -700 2413 6 
L 3040 2485 
C 3046 2517 3059 2556 3059 2594 
C 3059 2689 2982 2753 2886 2753 
C 2829 2753 2694 2727 2643 2535 
L 2170 658 
C 2138 543 2138 530 2086 460 
C 1958 281 1747 64 1440 64 
C 1082 64 1050 415 1050 588 
C 1050 952 1222 1443 1395 1903 
C 1466 2088 1504 2178 1504 2305 
C 1504 2574 1312 2816 998 2816 
C 410 2816 173 1890 173 1839 
C 173 1814 198 1782 243 1782 
C 301 1782 307 1807 333 1897 
C 486 2433 730 2689 979 2689 
C 1037 2689 1146 2689 1146 2478 
C 1146 2312 1075 2127 979 1884 
C 666 1047 666 837 666 683 
C 666 77 1101 -64 1421 -64 
C 1606 -64 1837 -6 2061 230 
L 2067 224 
C 1971 -147 1907 -392 1683 -700 
z
" transform="scale(0.015625)"/>
      </defs>
      <use xlink:href="#CMSY10-68" transform="scale(0.996264)"/>
      <use xlink:href="#CMMI12-1b" transform="translate(38.743734 0) scale(0.996264)"/>
      <use xlink:href="#CMMI12-79" transform="translate(94.189195 -14.943915) scale(0.697382)"/>
      <use xlink:href="#CMSY10-69" transform="translate(130.484301 0) scale(0.996264)"/>
     </g>
    </g>
   </g>
  </g>
 </g>
 <defs>
  <clipPath id="p0157b9a476">
   <rect x="33.707196" y="7.2" width="212.292324" height="195.359296"/>
  </clipPath>
 </defs>
</svg>
