<?xml version="1.0" encoding="utf-8" standalone="no"?>
<!DOCTYPE svg PUBLIC "-//W3C//DTD SVG 1.1//EN"
  "http://www.w3.org/Graphics/SVG/1.1/DTD/svg11.dtd">
<svg xmlns:xlink="http://www.w3.org/1999/xlink" width="235.051181pt" height="106.320912pt" viewBox="0 0 235.051181 106.320912" xmlns="http://www.w3.org/2000/svg" version="1.1">
 <metadata>
  <rdf:RDF xmlns:dc="http://purl.org/dc/elements/1.1/" xmlns:cc="http://creativecommons.org/ns#" xmlns:rdf="http://www.w3.org/1999/02/22-rdf-syntax-ns#">
   <cc:Work>
    <dc:type rdf:resource="http://purl.org/dc/dcmitype/StillImage"/>
    <dc:date>1980-01-01T00:00:00+00:00</dc:date>
    <dc:format>image/svg+xml</dc:format>
    <dc:creator>
     <cc:Agent>
      <dc:title>Matplotlib v3.6.2, https://matplotlib.org/</dc:title>
     </cc:Agent>
    </dc:creator>
   </cc:Work>
  </rdf:RDF>
 </metadata>
 <defs>
  <style type="text/css">*{stroke-linejoin: round; stroke-linecap: butt}</style>
 </defs>
 <g id="figure_1">
  <g id="patch_1">
   <path d="M 0 106.320912 
L 235.051181 106.320912 
L 235.051181 0 
L 0 0 
z
" style="fill: #ffffff"/>
  </g>
  <g id="patch_2">
   <path d="M 7.2 98.72047 
L 98.72047 98.72047 
L 98.72047 7.2 
L 7.2 7.2 
z
" style="fill: #ffffff"/>
  </g>
  <g id="pane3d_1">
   <g id="patch_3">
    <path d="M 26.107399 68.842834 
L 47.112148 51.075163 
L 46.897958 25.150991 
L 25.203538 41.822021 
" style="fill: #f2f2f2; opacity: 0.5; stroke: #f2f2f2; stroke-width: 0.24; stroke-linejoin: miter"/>
   </g>
  </g>
  <g id="pane3d_2">
   <g id="patch_4">
    <path d="M 47.112148 51.075163 
L 81.565388 61.069951 
L 82.422722 34.521148 
L 46.897958 25.150991 
" style="fill: #e6e6e6; opacity: 0.5; stroke: #e6e6e6; stroke-width: 0.24; stroke-linejoin: miter"/>
   </g>
  </g>
  <g id="pane3d_3">
   <g id="patch_5">
    <path d="M 26.107399 68.842834 
L 62.004638 80.147532 
L 81.565388 61.069951 
L 47.112148 51.075163 
" style="fill: #ececec; opacity: 0.5; stroke: #ececec; stroke-width: 0.24; stroke-linejoin: miter"/>
   </g>
  </g>
  <g id="axis3d_1">
   <g id="line2d_1">
    <path d="M 26.107399 68.842834 
L 62.004638 80.147532 
" style="fill: none; stroke: #000000; stroke-width: 0.8; stroke-linecap: square"/>
   </g>
   <g id="text_1">
    <!-- $\delta$ -->
    <g transform="translate(29.52159 100.666249) rotate(-342.51983) scale(0.1 -0.1)">
     <defs>
      <path id="CMMI12-e" d="M 1664 2795 
C 845 2597 256 1748 256 1001 
C 256 319 717 -64 1229 -64 
C 1984 -64 2496 970 2496 1818 
C 2496 2392 2227 2744 2067 2954 
C 1830 3254 1446 3746 1446 4052 
C 1446 4161 1530 4352 1811 4352 
C 2010 4352 2131 4282 2323 4173 
C 2381 4134 2528 4052 2611 4052 
C 2746 4052 2842 4185 2842 4287 
C 2842 4409 2746 4428 2522 4479 
C 2221 4543 2131 4543 2022 4543 
C 1914 4543 1286 4543 1286 3892 
C 1286 3579 1446 3216 1664 2795 
z
M 1734 2669 
C 1978 2165 2074 1974 2074 1560 
C 2074 1063 1805 63 1235 63 
C 986 63 627 229 627 821 
C 627 1235 864 2439 1734 2669 
z
" transform="scale(0.015625)"/>
     </defs>
     <use xlink:href="#CMMI12-e" transform="scale(0.996264)"/>
    </g>
   </g>
   <g id="Line3DCollection_1">
    <path d="M 30.849545 70.336222 
L 51.672191 52.398019 
L 51.595496 26.390033 
" style="fill: none; stroke: #b0b0b0; stroke-width: 0.8"/>
    <path d="M 35.959675 71.945496 
L 56.583134 53.822669 
L 56.655989 27.724809 
" style="fill: none; stroke: #b0b0b0; stroke-width: 0.8"/>
    <path d="M 41.124154 73.571885 
L 61.543196 55.261569 
L 61.768651 29.073345 
" style="fill: none; stroke: #b0b0b0; stroke-width: 0.8"/>
    <path d="M 46.343853 75.215664 
L 66.55312 56.714934 
L 66.934293 30.435856 
" style="fill: none; stroke: #b0b0b0; stroke-width: 0.8"/>
    <path d="M 51.619664 76.877113 
L 71.613659 58.182982 
L 72.153743 31.81256 
" style="fill: none; stroke: #b0b0b0; stroke-width: 0.8"/>
    <path d="M 56.952496 78.55652 
L 76.725586 59.665938 
L 77.427847 33.203679 
" style="fill: none; stroke: #b0b0b0; stroke-width: 0.8"/>
   </g>
   <g id="xtick_1">
    <g id="line2d_2">
     <path d="M 31.026475 70.183801 
L 30.495152 70.641523 
" style="fill: none; stroke: #000000; stroke-width: 0.8; stroke-linecap: square"/>
    </g>
    <g id="text_2">
     <!-- $\mathdefault{0.2}$ -->
     <g transform="translate(19.279613 88.918889) scale(0.08 -0.08)">
      <defs>
       <path id="CMR17-30" d="M 2688 2025 
C 2688 2416 2682 3080 2413 3591 
C 2176 4039 1798 4198 1466 4198 
C 1158 4198 768 4058 525 3597 
C 269 3118 243 2524 243 2025 
C 243 1661 250 1106 448 619 
C 723 -39 1216 -128 1466 -128 
C 1760 -128 2208 -7 2470 600 
C 2662 1042 2688 1559 2688 2025 
z
M 1466 -26 
C 1056 -26 813 325 723 812 
C 653 1188 653 1738 653 2096 
C 653 2588 653 2997 736 3387 
C 858 3929 1216 4096 1466 4096 
C 1728 4096 2067 3923 2189 3400 
C 2272 3036 2278 2607 2278 2096 
C 2278 1680 2278 1169 2202 792 
C 2067 95 1690 -26 1466 -26 
z
" transform="scale(0.015625)"/>
       <path id="CMMI12-3a" d="M 1178 307 
C 1178 492 1024 619 870 619 
C 685 619 557 466 557 313 
C 557 128 710 0 864 0 
C 1050 0 1178 153 1178 307 
z
" transform="scale(0.015625)"/>
       <path id="CMR17-32" d="M 2669 989 
L 2554 989 
C 2490 536 2438 459 2413 420 
C 2381 369 1920 369 1830 369 
L 602 369 
C 832 619 1280 1072 1824 1597 
C 2214 1967 2669 2402 2669 3035 
C 2669 3790 2067 4224 1395 4224 
C 691 4224 262 3604 262 3030 
C 262 2780 448 2748 525 2748 
C 589 2748 781 2787 781 3010 
C 781 3207 614 3264 525 3264 
C 486 3264 448 3258 422 3245 
C 544 3790 915 4058 1306 4058 
C 1862 4058 2227 3617 2227 3035 
C 2227 2479 1901 2000 1536 1584 
L 262 146 
L 262 0 
L 2515 0 
L 2669 989 
z
" transform="scale(0.015625)"/>
      </defs>
      <use xlink:href="#CMR17-30" transform="scale(0.996264)"/>
      <use xlink:href="#CMMI12-3a" transform="translate(45.690477 0) scale(0.996264)"/>
      <use xlink:href="#CMR17-32" transform="translate(72.787654 0) scale(0.996264)"/>
     </g>
    </g>
   </g>
   <g id="xtick_2">
    <g id="line2d_3">
     <path d="M 36.134966 71.791459 
L 35.608561 72.254036 
" style="fill: none; stroke: #000000; stroke-width: 0.8; stroke-linecap: square"/>
    </g>
    <g id="text_3">
     <!-- $\mathdefault{0.3}$ -->
     <g transform="translate(24.4032 90.612399) scale(0.08 -0.08)">
      <defs>
       <path id="CMR17-33" d="M 1414 2157 
C 1984 2157 2234 1662 2234 1090 
C 2234 320 1824 25 1453 25 
C 1114 25 563 194 390 693 
C 422 680 454 680 486 680 
C 640 680 755 782 755 948 
C 755 1133 614 1216 486 1216 
C 378 1216 211 1165 211 926 
C 211 335 787 -128 1466 -128 
C 2176 -128 2720 430 2720 1085 
C 2720 1707 2208 2157 1600 2227 
C 2086 2328 2554 2756 2554 3329 
C 2554 3820 2048 4179 1472 4179 
C 890 4179 378 3829 378 3329 
C 378 3110 544 3072 627 3072 
C 762 3072 877 3155 877 3321 
C 877 3486 762 3569 627 3569 
C 602 3569 570 3569 544 3557 
C 730 3959 1235 4032 1459 4032 
C 1683 4032 2106 3925 2106 3320 
C 2106 3143 2080 2828 1862 2550 
C 1670 2304 1453 2304 1242 2284 
C 1210 2284 1062 2269 1037 2269 
C 992 2263 966 2257 966 2208 
C 966 2163 973 2157 1101 2157 
L 1414 2157 
z
" transform="scale(0.015625)"/>
      </defs>
      <use xlink:href="#CMR17-30" transform="scale(0.996264)"/>
      <use xlink:href="#CMMI12-3a" transform="translate(45.690477 0) scale(0.996264)"/>
      <use xlink:href="#CMR17-33" transform="translate(72.787654 0) scale(0.996264)"/>
     </g>
    </g>
   </g>
   <g id="xtick_3">
    <g id="line2d_4">
     <path d="M 41.297762 73.416205 
L 40.776409 73.883717 
" style="fill: none; stroke: #000000; stroke-width: 0.8; stroke-linecap: square"/>
    </g>
    <g id="text_4">
     <!-- $\mathdefault{0.4}$ -->
     <g transform="translate(29.581776 92.324084) scale(0.08 -0.08)">
      <defs>
       <path id="CMR17-34" d="M 2150 4122 
C 2150 4256 2144 4256 2029 4256 
L 128 1254 
L 128 1088 
L 1779 1088 
L 1779 457 
C 1779 224 1766 160 1318 160 
L 1197 160 
L 1197 0 
C 1402 0 1747 0 1965 0 
C 2182 0 2528 0 2733 0 
L 2733 160 
L 2611 160 
C 2163 160 2150 224 2150 457 
L 2150 1088 
L 2803 1088 
L 2803 1254 
L 2150 1254 
L 2150 4122 
z
M 1798 3703 
L 1798 1254 
L 256 1254 
L 1798 3703 
z
" transform="scale(0.015625)"/>
      </defs>
      <use xlink:href="#CMR17-30" transform="scale(0.996264)"/>
      <use xlink:href="#CMMI12-3a" transform="translate(45.690477 0) scale(0.996264)"/>
      <use xlink:href="#CMR17-34" transform="translate(72.787654 0) scale(0.996264)"/>
     </g>
    </g>
   </g>
   <g id="xtick_4">
    <g id="line2d_5">
     <path d="M 46.515732 75.058316 
L 45.999569 75.530841 
" style="fill: none; stroke: #000000; stroke-width: 0.8; stroke-linecap: square"/>
    </g>
    <g id="text_5">
     <!-- $\mathdefault{0.5}$ -->
     <g transform="translate(34.816231 94.054239) scale(0.08 -0.08)">
      <defs>
       <path id="CMR17-35" d="M 730 3692 
C 794 3666 1056 3584 1325 3584 
C 1920 3584 2246 3911 2432 4100 
C 2432 4157 2432 4192 2394 4192 
C 2387 4192 2374 4192 2323 4163 
C 2099 4058 1837 3973 1517 3973 
C 1325 3973 1037 3999 723 4139 
C 653 4171 640 4171 634 4171 
C 602 4171 595 4164 595 4037 
L 595 2203 
C 595 2089 595 2057 659 2057 
C 691 2057 704 2070 736 2114 
C 941 2401 1222 2522 1542 2522 
C 1766 2522 2246 2382 2246 1289 
C 2246 1085 2246 715 2054 421 
C 1894 159 1645 25 1370 25 
C 947 25 518 320 403 814 
C 429 807 480 795 506 795 
C 589 795 749 840 749 1038 
C 749 1210 627 1280 506 1280 
C 358 1280 262 1190 262 1011 
C 262 454 704 -128 1382 -128 
C 2042 -128 2669 440 2669 1264 
C 2669 2030 2170 2624 1549 2624 
C 1222 2624 947 2503 730 2274 
L 730 3692 
z
" transform="scale(0.015625)"/>
      </defs>
      <use xlink:href="#CMR17-30" transform="scale(0.996264)"/>
      <use xlink:href="#CMMI12-3a" transform="translate(45.690477 0) scale(0.996264)"/>
      <use xlink:href="#CMR17-35" transform="translate(72.787654 0) scale(0.996264)"/>
     </g>
    </g>
   </g>
   <g id="xtick_5">
    <g id="line2d_6">
     <path d="M 51.789766 76.71807 
L 51.278936 77.19569 
" style="fill: none; stroke: #000000; stroke-width: 0.8; stroke-linecap: square"/>
    </g>
    <g id="text_6">
     <!-- $\mathdefault{0.6}$ -->
     <g transform="translate(40.107473 95.803164) scale(0.08 -0.08)">
      <defs>
       <path id="CMR17-36" d="M 678 2176 
C 678 3690 1395 4032 1811 4032 
C 1946 4032 2272 4009 2400 3776 
C 2298 3776 2106 3776 2106 3553 
C 2106 3381 2246 3323 2336 3323 
C 2394 3323 2566 3348 2566 3560 
C 2566 3954 2246 4179 1805 4179 
C 1043 4179 243 3390 243 1984 
C 243 253 966 -128 1478 -128 
C 2099 -128 2688 427 2688 1283 
C 2688 2081 2170 2662 1517 2662 
C 1126 2662 838 2407 678 1960 
L 678 2176 
z
M 1478 25 
C 691 25 691 1200 691 1436 
C 691 1896 909 2560 1504 2560 
C 1613 2560 1926 2560 2138 2120 
C 2253 1870 2253 1609 2253 1289 
C 2253 944 2253 690 2118 434 
C 1978 171 1773 25 1478 25 
z
" transform="scale(0.015625)"/>
      </defs>
      <use xlink:href="#CMR17-30" transform="scale(0.996264)"/>
      <use xlink:href="#CMMI12-3a" transform="translate(45.690477 0) scale(0.996264)"/>
      <use xlink:href="#CMR17-36" transform="translate(72.787654 0) scale(0.996264)"/>
     </g>
    </g>
   </g>
   <g id="xtick_6">
    <g id="line2d_7">
     <path d="M 57.120773 78.395753 
L 56.615421 78.87855 
" style="fill: none; stroke: #000000; stroke-width: 0.8; stroke-linecap: square"/>
    </g>
    <g id="text_7">
     <!-- $\mathdefault{0.7}$ -->
     <g transform="translate(45.456434 97.571167) scale(0.08 -0.08)">
      <defs>
       <path id="CMR17-37" d="M 2886 3941 
L 2886 4081 
L 1382 4081 
C 634 4081 621 4165 595 4288 
L 480 4288 
L 294 3094 
L 410 3094 
C 429 3215 474 3540 550 3661 
C 589 3712 1062 3712 1171 3712 
L 2579 3712 
L 1869 2661 
C 1395 1954 1069 999 1069 165 
C 1069 89 1069 -128 1299 -128 
C 1530 -128 1530 89 1530 171 
L 1530 465 
C 1530 1508 1709 2196 2003 2636 
L 2886 3941 
z
" transform="scale(0.015625)"/>
      </defs>
      <use xlink:href="#CMR17-30" transform="scale(0.996264)"/>
      <use xlink:href="#CMMI12-3a" transform="translate(45.690477 0) scale(0.996264)"/>
      <use xlink:href="#CMR17-37" transform="translate(72.787654 0) scale(0.996264)"/>
     </g>
    </g>
   </g>
  </g>
  <g id="axis3d_2">
   <g id="line2d_8">
    <path d="M 81.565388 61.069951 
L 62.004638 80.147532 
" style="fill: none; stroke: #000000; stroke-width: 0.8; stroke-linecap: square"/>
   </g>
   <g id="text_8">
    <!-- $\Theta$ -->
    <g transform="translate(89.920429 94.391329) rotate(-44.28356) scale(0.1 -0.1)">
     <defs>
      <path id="CMR17-2" d="M 4307 2153 
C 4307 3467 3366 4455 2304 4455 
C 1216 4455 294 3454 294 2153 
C 294 852 1229 -128 2298 -128 
C 3392 -128 4307 872 4307 2153 
z
M 2304 -20 
C 1574 -20 762 673 762 2153 
C 762 3679 1600 4352 2298 4352 
C 3021 4352 3840 3660 3840 2153 
C 3840 653 3008 -20 2304 -20 
z
M 3501 2560 
L 3386 2560 
L 3386 2342 
L 1216 2342 
L 1216 2560 
L 1101 2560 
L 1101 1766 
L 1216 1766 
L 1216 1984 
L 3386 1984 
L 3386 1766 
L 3501 1766 
L 3501 2560 
z
" transform="scale(0.015625)"/>
     </defs>
     <use xlink:href="#CMR17-2" transform="scale(0.996264)"/>
    </g>
   </g>
   <g id="Line3DCollection_2">
    <path d="M 29.148063 38.790859 
L 29.920635 65.617262 
L 65.562095 76.677948 
" style="fill: none; stroke: #b0b0b0; stroke-width: 0.8"/>
    <path d="M 34.00835 35.055982 
L 34.622749 61.639799 
L 69.944914 72.403388 
" style="fill: none; stroke: #b0b0b0; stroke-width: 0.8"/>
    <path d="M 38.737297 31.422033 
L 39.201614 57.766591 
L 74.208725 68.244897 
" style="fill: none; stroke: #b0b0b0; stroke-width: 0.8"/>
    <path d="M 43.340156 27.884976 
L 43.662012 53.993592 
L 78.35831 64.19781 
" style="fill: none; stroke: #b0b0b0; stroke-width: 0.8"/>
   </g>
   <g id="xtick_7">
    <g id="line2d_9">
     <path d="M 65.266521 76.586222 
L 66.153767 76.861562 
" style="fill: none; stroke: #000000; stroke-width: 0.8; stroke-linecap: square"/>
    </g>
    <g id="text_9">
     <!-- $\mathdefault{35}$ -->
     <g transform="translate(71.783478 93.091274) scale(0.08 -0.08)">
      <use xlink:href="#CMR17-33" transform="scale(0.996264)"/>
      <use xlink:href="#CMR17-35" transform="translate(45.690477 0) scale(0.996264)"/>
     </g>
    </g>
   </g>
   <g id="xtick_8">
    <g id="line2d_10">
     <path d="M 69.65213 72.31417 
L 70.530993 72.581982 
" style="fill: none; stroke: #000000; stroke-width: 0.8; stroke-linecap: square"/>
    </g>
    <g id="text_10">
     <!-- $\mathdefault{50}$ -->
     <g transform="translate(76.028301 88.660821) scale(0.08 -0.08)">
      <use xlink:href="#CMR17-35" transform="scale(0.996264)"/>
      <use xlink:href="#CMR17-30" transform="translate(45.690477 0) scale(0.996264)"/>
     </g>
    </g>
   </g>
   <g id="xtick_9">
    <g id="line2d_11">
     <path d="M 73.91869 68.158084 
L 74.789295 68.418673 
" style="fill: none; stroke: #000000; stroke-width: 0.8; stroke-linecap: square"/>
    </g>
    <g id="text_11">
     <!-- $\mathdefault{65}$ -->
     <g transform="translate(80.157705 84.350834) scale(0.08 -0.08)">
      <use xlink:href="#CMR17-36" transform="scale(0.996264)"/>
      <use xlink:href="#CMR17-35" transform="translate(45.690477 0) scale(0.996264)"/>
     </g>
    </g>
   </g>
   <g id="xtick_10">
    <g id="line2d_12">
     <path d="M 78.070983 64.113307 
L 78.933454 64.366961 
" style="fill: none; stroke: #000000; stroke-width: 0.8; stroke-linecap: square"/>
    </g>
    <g id="text_12">
     <!-- $\mathdefault{80}$ -->
     <g transform="translate(84.176335 80.156466) scale(0.08 -0.08)">
      <defs>
       <path id="CMR17-38" d="M 1741 2264 
C 2144 2467 2554 2773 2554 3263 
C 2554 3841 1990 4179 1472 4179 
C 890 4179 378 3759 378 3180 
C 378 3021 416 2747 666 2505 
C 730 2442 998 2251 1171 2130 
C 883 1983 211 1634 211 934 
C 211 279 838 -128 1459 -128 
C 2144 -128 2720 362 2720 1010 
C 2720 1590 2330 1857 2074 2029 
L 1741 2264 
z
M 902 2822 
C 851 2854 595 3051 595 3351 
C 595 3739 998 4032 1459 4032 
C 1965 4032 2336 3676 2336 3262 
C 2336 2669 1670 2331 1638 2331 
C 1632 2331 1626 2331 1574 2370 
L 902 2822 
z
M 2080 1519 
C 2176 1449 2483 1240 2483 851 
C 2483 381 2010 25 1472 25 
C 890 25 448 438 448 940 
C 448 1443 838 1862 1280 2060 
L 2080 1519 
z
" transform="scale(0.015625)"/>
      </defs>
      <use xlink:href="#CMR17-38" transform="scale(0.996264)"/>
      <use xlink:href="#CMR17-30" transform="translate(45.690477 0) scale(0.996264)"/>
     </g>
    </g>
   </g>
  </g>
  <g id="axis3d_3">
   <g id="line2d_13">
    <path d="M 81.565388 61.069951 
L 82.422722 34.521148 
" style="fill: none; stroke: #000000; stroke-width: 0.8; stroke-linecap: square"/>
   </g>
   <g id="text_13">
    <!-- $\sigma_P/|P|$ -->
    <g transform="translate(112.365052 59.585918) rotate(-88.150403) scale(0.1 -0.1)">
     <defs>
      <path id="CMMI12-1b" d="M 3251 2408 
C 3334 2408 3546 2408 3546 2612 
C 3546 2752 3424 2752 3309 2752 
L 1894 2752 
C 934 2752 243 1686 243 932 
C 243 390 595 -64 1171 -64 
C 1926 -64 2752 747 2752 1705 
C 2752 1954 2694 2196 2541 2408 
L 3251 2408 
z
M 1178 64 
C 851 64 614 313 614 754 
C 614 1137 845 2408 1786 2408 
C 2061 2408 2368 2274 2368 1781 
C 2368 1558 2266 1021 2042 652 
C 1811 275 1466 64 1178 64 
z
" transform="scale(0.015625)"/>
      <path id="CMMI12-50" d="M 1894 2023 
L 2970 2023 
C 3853 2023 4736 2673 4736 3401 
C 4736 3898 4314 4352 3507 4352 
L 1530 4352 
C 1408 4352 1350 4352 1350 4231 
C 1350 4167 1408 4167 1504 4167 
C 1894 4167 1894 4116 1894 4046 
C 1894 4034 1894 3995 1869 3899 
L 1005 472 
C 947 249 934 185 486 185 
C 365 185 301 185 301 70 
C 301 0 358 0 397 0 
C 518 0 646 0 768 0 
L 1517 0 
C 1638 0 1773 0 1894 0 
C 1946 0 2016 0 2016 121 
C 2016 185 1958 185 1862 185 
C 1478 185 1472 230 1472 293 
C 1472 325 1478 369 1485 401 
L 1894 2023 
z
M 2355 3930 
C 2413 4167 2438 4167 2688 4167 
L 3322 4167 
C 3802 4167 4198 4013 4198 3535 
C 4198 3369 4115 2827 3821 2534 
C 3712 2419 3405 2176 2822 2176 
L 1920 2176 
L 2355 3930 
z
" transform="scale(0.015625)"/>
      <path id="CMMI12-3d" d="M 2746 4562 
C 2746 4569 2784 4666 2784 4678 
C 2784 4755 2720 4800 2669 4800 
C 2637 4800 2579 4800 2528 4659 
L 384 -1363 
C 384 -1370 346 -1465 346 -1478 
C 346 -1555 410 -1600 461 -1600 
C 499 -1600 557 -1593 602 -1459 
L 2746 4562 
z
" transform="scale(0.015625)"/>
      <path id="CMSY10-6a" d="M 1018 4570 
C 1018 4685 1018 4800 890 4800 
C 762 4800 762 4685 762 4570 
L 762 -1370 
C 762 -1485 762 -1600 890 -1600 
C 1018 -1600 1018 -1485 1018 -1370 
L 1018 4570 
z
" transform="scale(0.015625)"/>
     </defs>
     <use xlink:href="#CMMI12-1b" transform="scale(0.996264)"/>
     <use xlink:href="#CMMI12-50" transform="translate(55.445461 -14.943915) scale(0.697382)"/>
     <use xlink:href="#CMMI12-3d" transform="translate(109.441417 0) scale(0.996264)"/>
     <use xlink:href="#CMSY10-6a" transform="translate(158.216335 0) scale(0.996264)"/>
     <use xlink:href="#CMMI12-50" transform="translate(185.89042 0) scale(0.996264)"/>
     <use xlink:href="#CMSY10-6a" transform="translate(262.316241 0) scale(0.996264)"/>
    </g>
   </g>
   <g id="Line3DCollection_3">
    <path d="M 81.582024 60.55479 
L 47.107987 50.571599 
L 26.089874 68.318938 
" style="fill: none; stroke: #b0b0b0; stroke-width: 0.8"/>
    <path d="M 82.084698 44.988624 
L 46.982353 35.365625 
L 25.560084 52.480928 
" style="fill: none; stroke: #b0b0b0; stroke-width: 0.8"/>
   </g>
   <g id="xtick_11">
    <g id="line2d_14">
     <path d="M 81.296633 60.472144 
L 82.153286 60.720219 
" style="fill: none; stroke: #000000; stroke-width: 0.8; stroke-linecap: square"/>
    </g>
    <g id="text_14">
     <!-- $\mathdefault{0.00}$ -->
     <g transform="translate(89.368228 63.946993) scale(0.08 -0.08)">
      <use xlink:href="#CMR17-30" transform="scale(0.996264)"/>
      <use xlink:href="#CMMI12-3a" transform="translate(45.690477 0) scale(0.996264)"/>
      <use xlink:href="#CMR17-30" transform="translate(72.787654 0) scale(0.996264)"/>
      <use xlink:href="#CMR17-30" transform="translate(118.478131 0) scale(0.996264)"/>
     </g>
    </g>
   </g>
   <g id="xtick_12">
    <g id="line2d_15">
     <path d="M 81.793927 44.908912 
L 82.666741 45.148186 
" style="fill: none; stroke: #000000; stroke-width: 0.8; stroke-linecap: square"/>
    </g>
    <g id="text_15">
     <!-- $\mathdefault{0.01}$ -->
     <g transform="translate(90.14619 48.457123) scale(0.08 -0.08)">
      <defs>
       <path id="CMR17-31" d="M 1702 4058 
C 1702 4192 1696 4192 1606 4192 
C 1357 3916 979 3827 621 3827 
C 602 3827 570 3827 563 3808 
C 557 3795 557 3782 557 3648 
C 755 3648 1088 3686 1344 3839 
L 1344 461 
C 1344 236 1331 160 781 160 
L 589 160 
L 589 0 
C 896 0 1216 0 1523 0 
C 1830 0 2150 0 2458 0 
L 2458 160 
L 2266 160 
C 1715 160 1702 230 1702 458 
L 1702 4058 
z
" transform="scale(0.015625)"/>
      </defs>
      <use xlink:href="#CMR17-30" transform="scale(0.996264)"/>
      <use xlink:href="#CMMI12-3a" transform="translate(45.690477 0) scale(0.996264)"/>
      <use xlink:href="#CMR17-30" transform="translate(72.787654 0) scale(0.996264)"/>
      <use xlink:href="#CMR17-31" transform="translate(118.478131 0) scale(0.996264)"/>
     </g>
    </g>
   </g>
  </g>
  <g id="axes_1">
   <g id="Poly3DCollection_1">
    <path d="M 47.97354 52.25835 
L 47.95936 50.307123 
L 52.872243 51.727271 
L 52.87527 53.684981 
z
" clip-path="url(#p73be9da275)" style="fill: #09033a"/>
    <path d="M 43.58608 55.994614 
L 43.561586 54.026476 
L 47.95936 50.307123 
L 47.97354 52.25835 
z
" clip-path="url(#p73be9da275)" style="fill: #13067a"/>
    <path d="M 52.87527 53.684981 
L 52.872658 51.995769 
L 57.833327 53.431077 
L 57.82612 55.125908 
z
" clip-path="url(#p73be9da275)" style="fill: #050338"/>
    <path d="M 43.58608 55.994614 
L 47.97354 52.25835 
L 52.87527 53.684981 
L 48.529973 57.458838 
z
" clip-path="url(#p73be9da275)" style="fill: #0c044a"/>
    <path d="M 43.561586 54.026476 
L 48.516825 55.484133 
L 52.872243 51.727271 
L 47.95936 50.307123 
z
" clip-path="url(#p73be9da275)" style="fill: #11056a"/>
    <path d="M 48.529973 57.458838 
L 48.518628 55.754969 
L 52.872658 51.995769 
L 52.87527 53.684981 
z
" clip-path="url(#p73be9da275)" style="fill: #0b0777"/>
    <path d="M 48.529973 57.458838 
L 52.87527 53.684981 
L 52.872243 51.727271 
L 48.516825 55.484133 
z
" clip-path="url(#p73be9da275)" style="fill: #09033a"/>
    <path d="M 57.82612 55.125908 
L 57.834308 53.200186 
L 62.846403 54.649206 
L 62.826832 56.581348 
z
" clip-path="url(#p73be9da275)" style="fill: #080339"/>
    <path d="M 48.529973 57.458838 
L 52.87527 53.684981 
L 57.82612 55.125908 
L 53.524063 58.937929 
z
" clip-path="url(#p73be9da275)" style="fill: #070448"/>
    <path d="M 48.518628 55.754969 
L 53.522708 57.228369 
L 57.833327 53.431077 
L 52.872658 51.995769 
z
" clip-path="url(#p73be9da275)" style="fill: #0a0667"/>
    <path d="M 43.58608 55.994614 
L 48.529973 57.458838 
L 48.516825 55.484133 
L 43.561586 54.026476 
z
" clip-path="url(#p73be9da275)" style="fill: #13067a"/>
    <path d="M 43.58608 55.994614 
L 43.558171 53.752135 
L 48.514992 55.208874 
L 48.529973 57.458838 
z
" clip-path="url(#p73be9da275)" style="fill: #0c033b"/>
    <path d="M 53.524063 58.937929 
L 57.82612 55.125908 
L 57.833327 53.431077 
L 53.522708 57.228369 
z
" clip-path="url(#p73be9da275)" style="fill: #050338"/>
    <path d="M 53.524063 58.937929 
L 53.522524 56.995464 
L 57.834308 53.200186 
L 57.82612 55.125908 
z
" clip-path="url(#p73be9da275)" style="fill: #110679"/>
    <path d="M 62.826832 56.581348 
L 62.849208 54.37224 
L 67.913818 55.835033 
L 67.878164 58.05152 
z
" clip-path="url(#p73be9da275)" style="fill: #0b033b"/>
    <path d="M 53.524063 58.937929 
L 57.82612 55.125908 
L 62.826832 56.581348 
L 58.569117 60.432113 
z
" clip-path="url(#p73be9da275)" style="fill: #0a0449"/>
    <path d="M 39.082531 59.829736 
L 39.04225 57.567732 
L 43.558171 53.752135 
L 43.58608 55.994614 
z
" clip-path="url(#p73be9da275)" style="fill: #1a057d"/>
    <path d="M 53.522524 56.995464 
L 58.579164 58.483148 
L 62.846403 54.649206 
L 57.834308 53.200186 
z
" clip-path="url(#p73be9da275)" style="fill: #0f0569"/>
    <path d="M 48.529973 57.458838 
L 53.524063 58.937929 
L 53.522708 57.228369 
L 48.518628 55.754969 
z
" clip-path="url(#p73be9da275)" style="fill: #0b0777"/>
    <path d="M 48.529973 57.458838 
L 48.517315 55.557744 
L 53.522552 57.030483 
L 53.524063 58.937929 
z
" clip-path="url(#p73be9da275)" style="fill: #080339"/>
    <path d="M 39.082531 59.829736 
L 43.58608 55.994614 
L 48.529973 57.458838 
L 44.069115 61.333059 
z
" clip-path="url(#p73be9da275)" style="fill: #10034c"/>
    <path d="M 58.569117 60.432113 
L 62.826832 56.581348 
L 62.846403 54.649206 
L 58.579164 58.483148 
z
" clip-path="url(#p73be9da275)" style="fill: #080339"/>
    <path d="M 58.569117 60.432113 
L 58.580604 58.20376 
L 62.849208 54.37224 
L 62.826832 56.581348 
z
" clip-path="url(#p73be9da275)" style="fill: #18057c"/>
    <path d="M 58.569117 60.432113 
L 62.826832 56.581348 
L 67.878164 58.05152 
L 63.66592 61.941625 
z
" clip-path="url(#p73be9da275)" style="fill: #0e034b"/>
    <path d="M 67.878164 58.05152 
L 67.921577 55.352675 
L 73.040797 56.828768 
L 72.980889 59.53665 
z
" clip-path="url(#p73be9da275)" style="fill: #11023d"/>
    <path d="M 39.04225 57.567732 
L 44.041984 59.063474 
L 48.514992 55.208874 
L 43.558171 53.752135 
z
" clip-path="url(#p73be9da275)" style="fill: #17056d"/>
    <path d="M 44.069115 61.333059 
L 44.046191 59.415398 
L 48.517315 55.557744 
L 48.529973 57.458838 
z
" clip-path="url(#p73be9da275)" style="fill: #110679"/>
    <path d="M 44.069115 61.333059 
L 48.529973 57.458838 
L 48.514992 55.208874 
L 44.041984 59.063474 
z
" clip-path="url(#p73be9da275)" style="fill: #0c033b"/>
    <path d="M 58.580604 58.20376 
L 63.690926 59.705799 
L 67.913818 55.835033 
L 62.849208 54.37224 
z
" clip-path="url(#p73be9da275)" style="fill: #15056c"/>
    <path d="M 53.524063 58.937929 
L 58.569117 60.432113 
L 58.579164 58.483148 
L 53.522524 56.995464 
z
" clip-path="url(#p73be9da275)" style="fill: #110679"/>
    <path d="M 53.524063 58.937929 
L 53.522341 56.763819 
L 58.580362 58.250725 
L 58.569117 60.432113 
z
" clip-path="url(#p73be9da275)" style="fill: #0b033b"/>
    <path d="M 44.069115 61.333059 
L 48.529973 57.458838 
L 53.524063 58.937929 
L 49.107005 62.85185 
z
" clip-path="url(#p73be9da275)" style="fill: #0a0449"/>
    <path d="M 63.66592 61.941625 
L 67.878164 58.05152 
L 67.913818 55.835033 
L 63.690926 59.705799 
z
" clip-path="url(#p73be9da275)" style="fill: #0b033b"/>
    <path d="M 63.66592 61.941625 
L 63.696368 59.219211 
L 67.921577 55.352675 
L 67.878164 58.05152 
z
" clip-path="url(#p73be9da275)" style="fill: #230581"/>
    <path d="M 63.66592 61.941625 
L 67.878164 58.05152 
L 72.980889 59.53665 
L 68.815273 63.466699 
z
" clip-path="url(#p73be9da275)" style="fill: #15034e"/>
    <path d="M 44.046191 59.415398 
L 49.095425 60.927756 
L 53.522552 57.030483 
L 48.517315 55.557744 
z
" clip-path="url(#p73be9da275)" style="fill: #0f0569"/>
    <path d="M 72.980889 59.53665 
L 73.049096 56.453628 
L 78.223166 57.9436 
L 78.135794 61.036967 
z
" clip-path="url(#p73be9da275)" style="fill: #14023e"/>
    <path d="M 39.082531 59.829736 
L 44.069115 61.333059 
L 44.041984 59.063474 
L 39.04225 57.567732 
z
" clip-path="url(#p73be9da275)" style="fill: #1a057d"/>
    <path d="M 39.082531 59.829736 
L 39.030854 56.927789 
L 44.034309 58.421375 
L 44.069115 61.333059 
z
" clip-path="url(#p73be9da275)" style="fill: #12023e"/>
    <path d="M 49.107005 62.85185 
L 53.524063 58.937929 
L 53.522552 57.030483 
L 49.095425 60.927756 
z
" clip-path="url(#p73be9da275)" style="fill: #080339"/>
    <path d="M 49.107005 62.85185 
L 49.093806 60.658756 
L 53.522341 56.763819 
L 53.524063 58.937929 
z
" clip-path="url(#p73be9da275)" style="fill: #18057c"/>
    <path d="M 58.569117 60.432113 
L 63.66592 61.941625 
L 63.690926 59.705799 
L 58.580604 58.20376 
z
" clip-path="url(#p73be9da275)" style="fill: #18057c"/>
    <path d="M 58.569117 60.432113 
L 58.582124 57.908825 
L 63.694236 59.40987 
L 63.66592 61.941625 
z
" clip-path="url(#p73be9da275)" style="fill: #0e023c"/>
    <path d="M 49.107005 62.85185 
L 53.524063 58.937929 
L 58.569117 60.432113 
L 54.196998 64.386348 
z
" clip-path="url(#p73be9da275)" style="fill: #0e034b"/>
    <path d="M 63.696368 59.219211 
L 68.862522 60.735135 
L 73.040797 56.828768 
L 67.921577 55.352675 
z
" clip-path="url(#p73be9da275)" style="fill: #1f0470"/>
    <path d="M 68.815273 63.466699 
L 72.980889 59.53665 
L 73.040797 56.828768 
L 68.862522 60.735135 
z
" clip-path="url(#p73be9da275)" style="fill: #11023d"/>
    <path d="M 68.815273 63.466699 
L 68.869068 60.356696 
L 73.049096 56.453628 
L 72.980889 59.53665 
z
" clip-path="url(#p73be9da275)" style="fill: #2a0484"/>
    <path d="M 68.815273 63.466699 
L 72.980889 59.53665 
L 78.135794 61.036967 
L 74.017992 65.00758 
z
" clip-path="url(#p73be9da275)" style="fill: #190350"/>
    <path d="M 34.458224 63.767693 
L 34.389828 60.84035 
L 39.030854 56.927789 
L 39.082531 59.829736 
z
" clip-path="url(#p73be9da275)" style="fill: #270483"/>
    <path d="M 49.093806 60.658756 
L 54.196998 62.185884 
L 58.580362 58.250725 
L 53.522341 56.763819 
z
" clip-path="url(#p73be9da275)" style="fill: #15056c"/>
    <path d="M 44.069115 61.333059 
L 49.107005 62.85185 
L 49.095425 60.927756 
L 44.046191 59.415398 
z
" clip-path="url(#p73be9da275)" style="fill: #110679"/>
    <path d="M 44.069115 61.333059 
L 44.041233 59.000634 
L 49.09292 60.511595 
L 49.107005 62.85185 
z
" clip-path="url(#p73be9da275)" style="fill: #0c033b"/>
    <path d="M 34.458224 63.767693 
L 39.082531 59.829736 
L 44.069115 61.333059 
L 39.488023 65.311702 
z
" clip-path="url(#p73be9da275)" style="fill: #17034f"/>
    <path d="M 54.196998 64.386348 
L 58.569117 60.432113 
L 58.580362 58.250725 
L 54.196998 62.185884 
z
" clip-path="url(#p73be9da275)" style="fill: #0b033b"/>
    <path d="M 54.196998 64.386348 
L 54.196998 61.840979 
L 58.582124 57.908825 
L 58.569117 60.432113 
z
" clip-path="url(#p73be9da275)" style="fill: #1e057f"/>
    <path d="M 54.196998 64.386348 
L 58.569117 60.432113 
L 63.66592 61.941625 
L 59.339906 65.936799 
z
" clip-path="url(#p73be9da275)" style="fill: #12034d"/>
    <path d="M 63.66592 61.941625 
L 68.815273 63.466699 
L 68.862522 60.735135 
L 63.696368 59.219211 
z
" clip-path="url(#p73be9da275)" style="fill: #230581"/>
    <path d="M 63.66592 61.941625 
L 63.699117 58.973421 
L 68.866788 60.488514 
L 68.815273 63.466699 
z
" clip-path="url(#p73be9da275)" style="fill: #12023e"/>
    <path d="M 68.869068 60.356696 
L 74.091312 61.887101 
L 78.223166 57.9436 
L 73.049096 56.453628 
z
" clip-path="url(#p73be9da275)" style="fill: #240473"/>
    <path d="M 74.017992 65.00758 
L 78.135794 61.036967 
L 78.223166 57.9436 
L 74.091312 61.887101 
z
" clip-path="url(#p73be9da275)" style="fill: #14023e"/>
    <path d="M 34.389828 60.84035 
L 39.43679 62.3745 
L 44.034309 58.421375 
L 39.030854 56.927789 
z
" clip-path="url(#p73be9da275)" style="fill: #220472"/>
    <path d="M 39.488023 65.311702 
L 39.446983 62.958858 
L 44.041233 59.000634 
L 44.069115 61.333059 
z
" clip-path="url(#p73be9da275)" style="fill: #1a057d"/>
    <path d="M 39.488023 65.311702 
L 44.069115 61.333059 
L 44.034309 58.421375 
L 39.43679 62.3745 
z
" clip-path="url(#p73be9da275)" style="fill: #12023e"/>
    <path d="M 49.107005 62.85185 
L 54.196998 64.386348 
L 54.196998 62.185884 
L 49.093806 60.658756 
z
" clip-path="url(#p73be9da275)" style="fill: #18057c"/>
    <path d="M 54.196998 61.840979 
L 59.355493 63.382859 
L 63.694236 59.40987 
L 58.582124 57.908825 
z
" clip-path="url(#p73be9da275)" style="fill: #1a046e"/>
    <path d="M 49.107005 62.85185 
L 49.090923 60.179666 
L 54.196998 61.705176 
L 54.196998 64.386348 
z
" clip-path="url(#p73be9da275)" style="fill: #10023d"/>
    <path d="M 39.488023 65.311702 
L 44.069115 61.333059 
L 49.107005 62.85185 
L 44.570274 66.871813 
z
" clip-path="url(#p73be9da275)" style="fill: #10034c"/>
    <path d="M 59.339906 65.936799 
L 63.66592 61.941625 
L 63.694236 59.40987 
L 59.355493 63.382859 
z
" clip-path="url(#p73be9da275)" style="fill: #0e023c"/>
    <path d="M 59.339906 65.936799 
L 59.358181 62.942564 
L 63.699117 58.973421 
L 63.66592 61.941625 
z
" clip-path="url(#p73be9da275)" style="fill: #270483"/>
    <path d="M 59.339906 65.936799 
L 63.66592 61.941625 
L 68.815273 63.466699 
L 64.536558 67.503452 
z
" clip-path="url(#p73be9da275)" style="fill: #17034f"/>
    <path d="M 68.815273 63.466699 
L 74.017992 65.00758 
L 74.091312 61.887101 
L 68.869068 60.356696 
z
" clip-path="url(#p73be9da275)" style="fill: #2a0484"/>
    <path d="M 68.815273 63.466699 
L 68.876226 59.942844 
L 74.101069 61.471846 
L 74.017992 65.00758 
z
" clip-path="url(#p73be9da275)" style="fill: #170240"/>
    <path d="M 39.446983 62.958858 
L 44.543273 64.511041 
L 49.09292 60.511595 
L 44.041233 59.000634 
z
" clip-path="url(#p73be9da275)" style="fill: #17056d"/>
    <path d="M 34.458224 63.767693 
L 39.488023 65.311702 
L 39.43679 62.3745 
L 34.389828 60.84035 
z
" clip-path="url(#p73be9da275)" style="fill: #270483"/>
    <path d="M 44.570274 66.871813 
L 49.107005 62.85185 
L 49.09292 60.511595 
L 44.543273 64.511041 
z
" clip-path="url(#p73be9da275)" style="fill: #0c033b"/>
    <path d="M 44.570274 66.871813 
L 44.539444 64.176188 
L 49.090923 60.179666 
L 49.107005 62.85185 
z
" clip-path="url(#p73be9da275)" style="fill: #210581"/>
    <path d="M 34.458224 63.767693 
L 34.344137 58.884808 
L 39.402564 60.412313 
L 39.488023 65.311702 
z
" clip-path="url(#p73be9da275)" style="fill: #210144"/>
    <path d="M 54.196998 64.386348 
L 59.339906 65.936799 
L 59.355493 63.382859 
L 54.196998 61.840979 
z
" clip-path="url(#p73be9da275)" style="fill: #1e057f"/>
    <path d="M 44.570274 66.871813 
L 49.107005 62.85185 
L 54.196998 64.386348 
L 49.705802 68.448278 
z
" clip-path="url(#p73be9da275)" style="fill: #14034e"/>
    <path d="M 54.196998 64.386348 
L 54.196998 61.15999 
L 59.359664 62.699562 
L 59.339906 65.936799 
z
" clip-path="url(#p73be9da275)" style="fill: #15023f"/>
    <path d="M 59.358181 62.942564 
L 64.573492 64.499112 
L 68.866788 60.488514 
L 63.699117 58.973421 
z
" clip-path="url(#p73be9da275)" style="fill: #220472"/>
    <path d="M 64.536558 67.503452 
L 68.815273 63.466699 
L 68.866788 60.488514 
L 64.573492 64.499112 
z
" clip-path="url(#p73be9da275)" style="fill: #12023e"/>
    <path d="M 64.536558 67.503452 
L 64.580259 63.948618 
L 68.876226 59.942844 
L 68.815273 63.466699 
z
" clip-path="url(#p73be9da275)" style="fill: #300487"/>
    <path d="M 64.536558 67.503452 
L 68.815273 63.466699 
L 74.017992 65.00758 
L 69.787802 69.086563 
z
" clip-path="url(#p73be9da275)" style="fill: #1d0251"/>
    <path d="M 39.488023 65.311702 
L 44.570274 66.871813 
L 44.543273 64.511041 
L 39.446983 62.958858 
z
" clip-path="url(#p73be9da275)" style="fill: #1a057d"/>
    <path d="M 29.708236 67.812677 
L 34.458224 63.767693 
L 39.488023 65.311702 
L 34.78177 69.399047 
z
" clip-path="url(#p73be9da275)" style="fill: #2b0156"/>
    <path d="M 44.539444 64.176188 
L 49.691343 65.743554 
L 54.196998 61.705176 
L 49.090923 60.179666 
z
" clip-path="url(#p73be9da275)" style="fill: #1d0470"/>
    <path d="M 29.708236 67.812677 
L 29.56476 62.886748 
L 34.344137 58.884808 
L 34.458224 63.767693 
z
" clip-path="url(#p73be9da275)" style="fill: #46028f"/>
    <path d="M 39.488023 65.311702 
L 39.418822 61.344409 
L 44.524746 62.891114 
L 44.570274 66.871813 
z
" clip-path="url(#p73be9da275)" style="fill: #1a0241"/>
    <path d="M 49.705802 68.448278 
L 54.196998 64.386348 
L 54.196998 61.705176 
L 49.691343 65.743554 
z
" clip-path="url(#p73be9da275)" style="fill: #10023d"/>
    <path d="M 49.705802 68.448278 
L 49.688403 65.19355 
L 54.196998 61.15999 
L 54.196998 64.386348 
z
" clip-path="url(#p73be9da275)" style="fill: #2c0485"/>
    <path d="M 49.705802 68.448278 
L 54.196998 64.386348 
L 59.339906 65.936799 
L 54.895449 70.041357 
z
" clip-path="url(#p73be9da275)" style="fill: #1a0250"/>
    <path d="M 59.339906 65.936799 
L 64.536558 67.503452 
L 64.573492 64.499112 
L 59.358181 62.942564 
z
" clip-path="url(#p73be9da275)" style="fill: #270483"/>
    <path d="M 59.339906 65.936799 
L 59.364443 61.916477 
L 64.586148 63.469537 
L 64.536558 67.503452 
z
" clip-path="url(#p73be9da275)" style="fill: #1a0241"/>
    <path d="M 64.580259 63.948618 
L 69.854045 65.519704 
L 74.101069 61.471846 
L 68.876226 59.942844 
z
" clip-path="url(#p73be9da275)" style="fill: #2a0375"/>
    <path d="M 69.787802 69.086563 
L 74.017992 65.00758 
L 74.101069 61.471846 
L 69.854045 65.519704 
z
" clip-path="url(#p73be9da275)" style="fill: #170240"/>
    <path d="M 34.78177 69.399047 
L 34.689174 65.396793 
L 39.418822 61.344409 
L 39.488023 65.311702 
z
" clip-path="url(#p73be9da275)" style="fill: #38038a"/>
    <path d="M 44.570274 66.871813 
L 49.705802 68.448278 
L 49.691343 65.743554 
L 44.539444 64.176188 
z
" clip-path="url(#p73be9da275)" style="fill: #210581"/>
    <path d="M 34.78177 69.399047 
L 39.488023 65.311702 
L 44.570274 66.871813 
L 39.908938 71.002187 
z
" clip-path="url(#p73be9da275)" style="fill: #220253"/>
    <path d="M 34.78177 69.399047 
L 39.488023 65.311702 
L 39.402564 60.412313 
L 34.667417 64.456409 
z
" clip-path="url(#p73be9da275)" style="fill: #210144"/>
    <path d="M 29.56476 62.886748 
L 34.667417 64.456409 
L 39.402564 60.412313 
L 34.344137 58.884808 
z
" clip-path="url(#p73be9da275)" style="fill: #3d027c"/>
    <path d="M 49.688403 65.19355 
L 54.89817 66.775617 
L 59.359664 62.699562 
L 54.196998 61.15999 
z
" clip-path="url(#p73be9da275)" style="fill: #260473"/>
    <path d="M 44.570274 66.871813 
L 44.515556 62.0876 
L 49.68014 63.647853 
L 49.705802 68.448278 
z
" clip-path="url(#p73be9da275)" style="fill: #210143"/>
    <path d="M 54.895449 70.041357 
L 59.339906 65.936799 
L 59.359664 62.699562 
L 54.89817 66.775617 
z
" clip-path="url(#p73be9da275)" style="fill: #15023f"/>
    <path d="M 54.895449 70.041357 
L 54.898828 65.985585 
L 59.364443 61.916477 
L 59.339906 65.936799 
z
" clip-path="url(#p73be9da275)" style="fill: #38038a"/>
    <path d="M 54.895449 70.041357 
L 59.339906 65.936799 
L 64.536558 67.503452 
L 60.140076 71.651312 
z
" clip-path="url(#p73be9da275)" style="fill: #220253"/>
    <path d="M 64.536558 67.503452 
L 69.787802 69.086563 
L 69.854045 65.519704 
L 64.580259 63.948618 
z
" clip-path="url(#p73be9da275)" style="fill: #300487"/>
    <path d="M 64.536558 67.503452 
L 64.601837 62.193373 
L 69.886754 63.758463 
L 69.787802 69.086563 
z
" clip-path="url(#p73be9da275)" style="fill: #240144"/>
    <path d="M 29.708236 67.812677 
L 34.78177 69.399047 
L 34.667417 64.456409 
L 29.56476 62.886748 
z
" clip-path="url(#p73be9da275)" style="fill: #46028f"/>
    <path d="M 34.689174 65.396793 
L 39.840433 66.986363 
L 44.524746 62.891114 
L 39.418822 61.344409 
z
" clip-path="url(#p73be9da275)" style="fill: #300378"/>
    <path d="M 39.908938 71.002187 
L 44.570274 66.871813 
L 44.524746 62.891114 
L 39.840433 66.986363 
z
" clip-path="url(#p73be9da275)" style="fill: #1a0241"/>
    <path d="M 39.908938 71.002187 
L 44.570274 66.871813 
L 49.705802 68.448278 
L 45.090597 72.622365 
z
" clip-path="url(#p73be9da275)" style="fill: #2a0156"/>
    <path d="M 39.908938 71.002187 
L 39.826604 66.175696 
L 44.515556 62.0876 
L 44.570274 66.871813 
z
" clip-path="url(#p73be9da275)" style="fill: #45028f"/>
    <path d="M 49.705802 68.448278 
L 54.895449 70.041357 
L 54.89817 66.775617 
L 49.688403 65.19355 
z
" clip-path="url(#p73be9da275)" style="fill: #2c0485"/>
    <path d="M 54.898828 65.985585 
L 60.168974 67.581781 
L 64.586148 63.469537 
L 59.364443 61.916477 
z
" clip-path="url(#p73be9da275)" style="fill: #300378"/>
    <path d="M 60.140076 71.651312 
L 64.536558 67.503452 
L 64.586148 63.469537 
L 60.168974 67.581781 
z
" clip-path="url(#p73be9da275)" style="fill: #1a0241"/>
    <path d="M 60.140076 71.651312 
L 64.536558 67.503452 
L 69.787802 69.086563 
L 65.44056 73.278414 
z
" clip-path="url(#p73be9da275)" style="fill: #2e0157"/>
    <path d="M 49.705802 68.448278 
L 49.67135 62.003583 
L 54.900836 63.574727 
L 54.895449 70.041357 
z
" clip-path="url(#p73be9da275)" style="fill: #2c0046"/>
    <path d="M 60.140076 71.651312 
L 60.178117 66.294238 
L 64.601837 62.193373 
L 64.536558 67.503452 
z
" clip-path="url(#p73be9da275)" style="fill: #4c0191"/>
    <path d="M 34.78177 69.399047 
L 39.908938 71.002187 
L 39.840433 66.986363 
L 34.689174 65.396793 
z
" clip-path="url(#p73be9da275)" style="fill: #38038a"/>
    <path d="M 45.090597 72.622365 
L 49.705802 68.448278 
L 54.895449 70.041357 
L 50.327619 74.259853 
z
" clip-path="url(#p73be9da275)" style="fill: #380059"/>
    <path d="M 45.090597 72.622365 
L 49.705802 68.448278 
L 49.68014 63.647853 
L 45.037841 67.779464 
z
" clip-path="url(#p73be9da275)" style="fill: #210143"/>
    <path d="M 39.826604 66.175696 
L 45.037841 67.779464 
L 49.68014 63.647853 
L 44.515556 62.0876 
z
" clip-path="url(#p73be9da275)" style="fill: #3c027c"/>
    <path d="M 54.895449 70.041357 
L 60.140076 71.651312 
L 60.168974 67.581781 
L 54.898828 65.985585 
z
" clip-path="url(#p73be9da275)" style="fill: #38038a"/>
    <path d="M 45.090597 72.622365 
L 45.019769 66.120469 
L 49.67135 62.003583 
L 49.705802 68.448278 
z
" clip-path="url(#p73be9da275)" style="fill: #5d0094"/>
    <path d="M 65.44056 73.278414 
L 69.787802 69.086563 
L 69.886754 63.758463 
L 65.512915 67.9031 
z
" clip-path="url(#p73be9da275)" style="fill: #240144"/>
    <path d="M 60.178117 66.294238 
L 65.512915 67.9031 
L 69.886754 63.758463 
L 64.601837 62.193373 
z
" clip-path="url(#p73be9da275)" style="fill: #42017e"/>
    <path d="M 39.908938 71.002187 
L 45.090597 72.622365 
L 45.037841 67.779464 
L 39.826604 66.175696 
z
" clip-path="url(#p73be9da275)" style="fill: #45028f"/>
    <path d="M 54.895449 70.041357 
L 54.903944 59.843257 
L 60.212742 61.418217 
L 60.140076 71.651312 
z
" clip-path="url(#p73be9da275)" style="fill: #440c40"/>
    <path d="M 50.327619 74.259853 
L 54.895449 70.041357 
L 60.140076 71.651312 
L 55.620896 75.914932 
z
" clip-path="url(#p73be9da275)" style="fill: #560f52"/>
    <path d="M 50.327619 74.259853 
L 54.895449 70.041357 
L 54.900836 63.574727 
L 50.297361 67.735756 
z
" clip-path="url(#p73be9da275)" style="fill: #2c0046"/>
    <path d="M 60.140076 71.651312 
L 65.44056 73.278414 
L 65.512915 67.9031 
L 60.178117 66.294238 
z
" clip-path="url(#p73be9da275)" style="fill: #4c0191"/>
    <path d="M 45.019769 66.120469 
L 50.297361 67.735756 
L 54.900836 63.574727 
L 49.67135 62.003583 
z
" clip-path="url(#p73be9da275)" style="fill: #500081"/>
    <path d="M 50.327619 74.259853 
L 50.279899 63.970488 
L 54.903944 59.843257 
L 54.895449 70.041357 
z
" clip-path="url(#p73be9da275)" style="fill: #8f1988"/>
    <path d="M 55.620896 75.914932 
L 60.140076 71.651312 
L 65.44056 73.278414 
L 60.97134 77.587885 
z
" clip-path="url(#p73be9da275)" style="fill: #808512"/>
    <path d="M 45.090597 72.622365 
L 50.327619 74.259853 
L 50.297361 67.735756 
L 45.019769 66.120469 
z
" clip-path="url(#p73be9da275)" style="fill: #5d0094"/>
    <path d="M 55.620896 75.914932 
L 60.140076 71.651312 
L 60.212742 61.418217 
L 55.638552 65.59014 
z
" clip-path="url(#p73be9da275)" style="fill: #440c40"/>
    <path d="M 50.279899 63.970488 
L 55.638552 65.59014 
L 60.212742 61.418217 
L 54.903944 59.843257 
z
" clip-path="url(#p73be9da275)" style="fill: #7c1676"/>
    <path d="M 50.327619 74.259853 
L 55.620896 75.914932 
L 55.638552 65.59014 
L 50.279899 63.970488 
z
" clip-path="url(#p73be9da275)" style="fill: #8f1988"/>
    <path d="M 60.140076 71.651312 
L 60.32563 45.520932 
L 65.793533 47.055596 
L 65.44056 73.278414 
z
" clip-path="url(#p73be9da275)" style="fill: #64680e"/>
    <path d="M 55.620896 75.914932 
L 55.665993 49.543412 
L 60.32563 45.520932 
L 60.140076 71.651312 
z
" clip-path="url(#p73be9da275)" style="fill: #d4dc1e"/>
    <path d="M 60.97134 77.587885 
L 65.44056 73.278414 
L 65.793533 47.055596 
L 61.187088 51.122705 
z
" clip-path="url(#p73be9da275)" style="fill: #64680e"/>
    <path d="M 55.620896 75.914932 
L 60.97134 77.587885 
L 61.187088 51.122705 
L 55.665993 49.543412 
z
" clip-path="url(#p73be9da275)" style="fill: #d4dc1e"/>
    <path d="M 55.665993 49.543412 
L 61.187088 51.122705 
L 65.793533 47.055596 
L 60.32563 45.520932 
z
" clip-path="url(#p73be9da275)" style="fill: #b8bf1a"/>
   </g>
  </g>
  <g id="patch_6">
   <path d="M 129.6 98.72047 
L 221.12047 98.72047 
L 221.12047 7.2 
L 129.6 7.2 
z
" style="fill: #ffffff"/>
  </g>
  <g id="pane3d_4">
   <g id="patch_7">
    <path d="M 148.507399 68.842834 
L 169.512148 51.075163 
L 169.297958 25.150991 
L 147.603538 41.822021 
" style="fill: #f2f2f2; opacity: 0.5; stroke: #f2f2f2; stroke-width: 0.24; stroke-linejoin: miter"/>
   </g>
  </g>
  <g id="pane3d_5">
   <g id="patch_8">
    <path d="M 169.512148 51.075163 
L 203.965388 61.069951 
L 204.822722 34.521148 
L 169.297958 25.150991 
" style="fill: #e6e6e6; opacity: 0.5; stroke: #e6e6e6; stroke-width: 0.24; stroke-linejoin: miter"/>
   </g>
  </g>
  <g id="pane3d_6">
   <g id="patch_9">
    <path d="M 148.507399 68.842834 
L 184.404638 80.147532 
L 203.965388 61.069951 
L 169.512148 51.075163 
" style="fill: #ececec; opacity: 0.5; stroke: #ececec; stroke-width: 0.24; stroke-linejoin: miter"/>
   </g>
  </g>
  <g id="axis3d_4">
   <g id="line2d_16">
    <path d="M 148.507399 68.842834 
L 184.404638 80.147532 
" style="fill: none; stroke: #000000; stroke-width: 0.8; stroke-linecap: square"/>
   </g>
   <g id="text_16">
    <!-- $\delta$ -->
    <g transform="translate(151.92159 100.666249) rotate(-342.51983) scale(0.1 -0.1)">
     <use xlink:href="#CMMI12-e" transform="scale(0.996264)"/>
    </g>
   </g>
   <g id="Line3DCollection_4">
    <path d="M 153.249545 70.336222 
L 174.072191 52.398019 
L 173.995496 26.390033 
" style="fill: none; stroke: #b0b0b0; stroke-width: 0.8"/>
    <path d="M 158.359675 71.945496 
L 178.983134 53.822669 
L 179.055989 27.724809 
" style="fill: none; stroke: #b0b0b0; stroke-width: 0.8"/>
    <path d="M 163.524154 73.571885 
L 183.943196 55.261569 
L 184.168651 29.073345 
" style="fill: none; stroke: #b0b0b0; stroke-width: 0.8"/>
    <path d="M 168.743853 75.215664 
L 188.95312 56.714934 
L 189.334293 30.435856 
" style="fill: none; stroke: #b0b0b0; stroke-width: 0.8"/>
    <path d="M 174.019664 76.877113 
L 194.013659 58.182982 
L 194.553743 31.81256 
" style="fill: none; stroke: #b0b0b0; stroke-width: 0.8"/>
    <path d="M 179.352496 78.55652 
L 199.125586 59.665938 
L 199.827847 33.203679 
" style="fill: none; stroke: #b0b0b0; stroke-width: 0.8"/>
   </g>
   <g id="xtick_13">
    <g id="line2d_17">
     <path d="M 153.426475 70.183801 
L 152.895152 70.641523 
" style="fill: none; stroke: #000000; stroke-width: 0.8; stroke-linecap: square"/>
    </g>
    <g id="text_17">
     <!-- $\mathdefault{0.2}$ -->
     <g transform="translate(141.679613 88.918889) scale(0.08 -0.08)">
      <use xlink:href="#CMR17-30" transform="scale(0.996264)"/>
      <use xlink:href="#CMMI12-3a" transform="translate(45.690477 0) scale(0.996264)"/>
      <use xlink:href="#CMR17-32" transform="translate(72.787654 0) scale(0.996264)"/>
     </g>
    </g>
   </g>
   <g id="xtick_14">
    <g id="line2d_18">
     <path d="M 158.534966 71.791459 
L 158.008561 72.254036 
" style="fill: none; stroke: #000000; stroke-width: 0.8; stroke-linecap: square"/>
    </g>
    <g id="text_18">
     <!-- $\mathdefault{0.3}$ -->
     <g transform="translate(146.8032 90.612399) scale(0.08 -0.08)">
      <use xlink:href="#CMR17-30" transform="scale(0.996264)"/>
      <use xlink:href="#CMMI12-3a" transform="translate(45.690477 0) scale(0.996264)"/>
      <use xlink:href="#CMR17-33" transform="translate(72.787654 0) scale(0.996264)"/>
     </g>
    </g>
   </g>
   <g id="xtick_15">
    <g id="line2d_19">
     <path d="M 163.697762 73.416205 
L 163.176409 73.883717 
" style="fill: none; stroke: #000000; stroke-width: 0.8; stroke-linecap: square"/>
    </g>
    <g id="text_19">
     <!-- $\mathdefault{0.4}$ -->
     <g transform="translate(151.981776 92.324084) scale(0.08 -0.08)">
      <use xlink:href="#CMR17-30" transform="scale(0.996264)"/>
      <use xlink:href="#CMMI12-3a" transform="translate(45.690477 0) scale(0.996264)"/>
      <use xlink:href="#CMR17-34" transform="translate(72.787654 0) scale(0.996264)"/>
     </g>
    </g>
   </g>
   <g id="xtick_16">
    <g id="line2d_20">
     <path d="M 168.915732 75.058316 
L 168.399569 75.530841 
" style="fill: none; stroke: #000000; stroke-width: 0.8; stroke-linecap: square"/>
    </g>
    <g id="text_20">
     <!-- $\mathdefault{0.5}$ -->
     <g transform="translate(157.216231 94.054239) scale(0.08 -0.08)">
      <use xlink:href="#CMR17-30" transform="scale(0.996264)"/>
      <use xlink:href="#CMMI12-3a" transform="translate(45.690477 0) scale(0.996264)"/>
      <use xlink:href="#CMR17-35" transform="translate(72.787654 0) scale(0.996264)"/>
     </g>
    </g>
   </g>
   <g id="xtick_17">
    <g id="line2d_21">
     <path d="M 174.189766 76.71807 
L 173.678936 77.19569 
" style="fill: none; stroke: #000000; stroke-width: 0.8; stroke-linecap: square"/>
    </g>
    <g id="text_21">
     <!-- $\mathdefault{0.6}$ -->
     <g transform="translate(162.507473 95.803164) scale(0.08 -0.08)">
      <use xlink:href="#CMR17-30" transform="scale(0.996264)"/>
      <use xlink:href="#CMMI12-3a" transform="translate(45.690477 0) scale(0.996264)"/>
      <use xlink:href="#CMR17-36" transform="translate(72.787654 0) scale(0.996264)"/>
     </g>
    </g>
   </g>
   <g id="xtick_18">
    <g id="line2d_22">
     <path d="M 179.520773 78.395753 
L 179.015421 78.87855 
" style="fill: none; stroke: #000000; stroke-width: 0.8; stroke-linecap: square"/>
    </g>
    <g id="text_22">
     <!-- $\mathdefault{0.7}$ -->
     <g transform="translate(167.856434 97.571167) scale(0.08 -0.08)">
      <use xlink:href="#CMR17-30" transform="scale(0.996264)"/>
      <use xlink:href="#CMMI12-3a" transform="translate(45.690477 0) scale(0.996264)"/>
      <use xlink:href="#CMR17-37" transform="translate(72.787654 0) scale(0.996264)"/>
     </g>
    </g>
   </g>
  </g>
  <g id="axis3d_5">
   <g id="line2d_23">
    <path d="M 203.965388 61.069951 
L 184.404638 80.147532 
" style="fill: none; stroke: #000000; stroke-width: 0.8; stroke-linecap: square"/>
   </g>
   <g id="text_23">
    <!-- $\Theta$ -->
    <g transform="translate(212.320429 94.391329) rotate(-44.28356) scale(0.1 -0.1)">
     <use xlink:href="#CMR17-2" transform="scale(0.996264)"/>
    </g>
   </g>
   <g id="Line3DCollection_5">
    <path d="M 151.548063 38.790859 
L 152.320635 65.617262 
L 187.962095 76.677948 
" style="fill: none; stroke: #b0b0b0; stroke-width: 0.8"/>
    <path d="M 156.40835 35.055982 
L 157.022749 61.639799 
L 192.344914 72.403388 
" style="fill: none; stroke: #b0b0b0; stroke-width: 0.8"/>
    <path d="M 161.137297 31.422033 
L 161.601614 57.766591 
L 196.608725 68.244897 
" style="fill: none; stroke: #b0b0b0; stroke-width: 0.8"/>
    <path d="M 165.740156 27.884976 
L 166.062012 53.993592 
L 200.75831 64.19781 
" style="fill: none; stroke: #b0b0b0; stroke-width: 0.8"/>
   </g>
   <g id="xtick_19">
    <g id="line2d_24">
     <path d="M 187.666521 76.586222 
L 188.553767 76.861562 
" style="fill: none; stroke: #000000; stroke-width: 0.8; stroke-linecap: square"/>
    </g>
    <g id="text_24">
     <!-- $\mathdefault{35}$ -->
     <g transform="translate(194.183478 93.091274) scale(0.08 -0.08)">
      <use xlink:href="#CMR17-33" transform="scale(0.996264)"/>
      <use xlink:href="#CMR17-35" transform="translate(45.690477 0) scale(0.996264)"/>
     </g>
    </g>
   </g>
   <g id="xtick_20">
    <g id="line2d_25">
     <path d="M 192.05213 72.31417 
L 192.930993 72.581982 
" style="fill: none; stroke: #000000; stroke-width: 0.8; stroke-linecap: square"/>
    </g>
    <g id="text_25">
     <!-- $\mathdefault{50}$ -->
     <g transform="translate(198.428301 88.660821) scale(0.08 -0.08)">
      <use xlink:href="#CMR17-35" transform="scale(0.996264)"/>
      <use xlink:href="#CMR17-30" transform="translate(45.690477 0) scale(0.996264)"/>
     </g>
    </g>
   </g>
   <g id="xtick_21">
    <g id="line2d_26">
     <path d="M 196.31869 68.158084 
L 197.189295 68.418673 
" style="fill: none; stroke: #000000; stroke-width: 0.8; stroke-linecap: square"/>
    </g>
    <g id="text_26">
     <!-- $\mathdefault{65}$ -->
     <g transform="translate(202.557705 84.350834) scale(0.08 -0.08)">
      <use xlink:href="#CMR17-36" transform="scale(0.996264)"/>
      <use xlink:href="#CMR17-35" transform="translate(45.690477 0) scale(0.996264)"/>
     </g>
    </g>
   </g>
   <g id="xtick_22">
    <g id="line2d_27">
     <path d="M 200.470983 64.113307 
L 201.333454 64.366961 
" style="fill: none; stroke: #000000; stroke-width: 0.8; stroke-linecap: square"/>
    </g>
    <g id="text_27">
     <!-- $\mathdefault{80}$ -->
     <g transform="translate(206.576335 80.156466) scale(0.08 -0.08)">
      <use xlink:href="#CMR17-38" transform="scale(0.996264)"/>
      <use xlink:href="#CMR17-30" transform="translate(45.690477 0) scale(0.996264)"/>
     </g>
    </g>
   </g>
  </g>
  <g id="axis3d_6">
   <g id="line2d_28">
    <path d="M 203.965388 61.069951 
L 204.822722 34.521148 
" style="fill: none; stroke: #000000; stroke-width: 0.8; stroke-linecap: square"/>
   </g>
   <g id="text_28">
    <!-- $\sigma_\eta/|\eta|$ -->
    <g transform="translate(234.654112 57.448558) rotate(-88.150403) scale(0.1 -0.1)">
     <defs>
      <path id="CMMI12-11" d="M 3040 1768 
C 3072 1895 3091 1973 3091 2145 
C 3091 2528 2867 2815 2381 2815 
C 1811 2815 1510 2413 1395 2254 
C 1376 2618 1114 2815 832 2815 
C 646 2815 499 2726 378 2483 
C 262 2254 173 1864 173 1839 
C 173 1813 198 1781 243 1781 
C 294 1781 301 1788 339 1934 
C 435 2311 557 2688 813 2688 
C 960 2688 1011 2586 1011 2394 
C 1011 2254 947 2005 902 1807 
L 723 1118 
C 698 996 627 709 595 593 
C 550 428 480 127 480 96 
C 480 6 550 -64 646 -64 
C 723 -64 813 -25 864 70 
C 877 102 934 326 966 453 
L 1107 1028 
L 1318 1871 
C 1331 1909 1491 2228 1728 2432 
C 1894 2586 2112 2688 2362 2688 
C 2618 2688 2707 2496 2707 2241 
C 2707 2055 2682 1953 2650 1831 
L 1907 -1107 
C 1901 -1139 1888 -1177 1888 -1216 
C 1888 -1312 1965 -1376 2061 -1376 
C 2118 -1376 2253 -1350 2304 -1158 
L 3040 1768 
z
" transform="scale(0.015625)"/>
     </defs>
     <use xlink:href="#CMMI12-1b" transform="scale(0.996264)"/>
     <use xlink:href="#CMMI12-11" transform="translate(55.445461 -14.943915) scale(0.697382)"/>
     <use xlink:href="#CMMI12-3d" transform="translate(92.136088 0) scale(0.996264)"/>
     <use xlink:href="#CMSY10-6a" transform="translate(140.911006 0) scale(0.996264)"/>
     <use xlink:href="#CMMI12-11" transform="translate(168.585091 0) scale(0.996264)"/>
     <use xlink:href="#CMSY10-6a" transform="translate(220.288907 0) scale(0.996264)"/>
    </g>
   </g>
   <g id="Line3DCollection_6">
    <path d="M 203.982024 60.55479 
L 169.507987 50.571599 
L 148.489874 68.318938 
" style="fill: none; stroke: #b0b0b0; stroke-width: 0.8"/>
    <path d="M 204.310201 50.392222 
L 169.425948 40.642043 
L 148.144052 57.980631 
" style="fill: none; stroke: #b0b0b0; stroke-width: 0.8"/>
    <path d="M 204.64634 39.983127 
L 169.341987 30.47997 
L 147.789615 47.384756 
" style="fill: none; stroke: #b0b0b0; stroke-width: 0.8"/>
   </g>
   <g id="xtick_23">
    <g id="line2d_29">
     <path d="M 203.696633 60.472144 
L 204.553286 60.720219 
" style="fill: none; stroke: #000000; stroke-width: 0.8; stroke-linecap: square"/>
    </g>
    <g id="text_29">
     <!-- $\mathdefault{0.00}$ -->
     <g transform="translate(211.768228 63.946993) scale(0.08 -0.08)">
      <use xlink:href="#CMR17-30" transform="scale(0.996264)"/>
      <use xlink:href="#CMMI12-3a" transform="translate(45.690477 0) scale(0.996264)"/>
      <use xlink:href="#CMR17-30" transform="translate(72.787654 0) scale(0.996264)"/>
      <use xlink:href="#CMR17-30" transform="translate(118.478131 0) scale(0.996264)"/>
     </g>
    </g>
   </g>
   <g id="xtick_24">
    <g id="line2d_30">
     <path d="M 204.021298 50.311473 
L 204.8885 50.553857 
" style="fill: none; stroke: #000000; stroke-width: 0.8; stroke-linecap: square"/>
    </g>
    <g id="text_30">
     <!-- $\mathdefault{0.01}$ -->
     <g transform="translate(212.276154 53.833767) scale(0.08 -0.08)">
      <use xlink:href="#CMR17-30" transform="scale(0.996264)"/>
      <use xlink:href="#CMMI12-3a" transform="translate(45.690477 0) scale(0.996264)"/>
      <use xlink:href="#CMR17-30" transform="translate(72.787654 0) scale(0.996264)"/>
      <use xlink:href="#CMR17-31" transform="translate(118.478131 0) scale(0.996264)"/>
     </g>
    </g>
   </g>
   <g id="xtick_25">
    <g id="line2d_31">
     <path d="M 204.353837 39.904391 
L 205.231851 40.140734 
" style="fill: none; stroke: #000000; stroke-width: 0.8; stroke-linecap: square"/>
    </g>
    <g id="text_31">
     <!-- $\mathdefault{0.02}$ -->
     <g transform="translate(212.796309 43.477038) scale(0.08 -0.08)">
      <use xlink:href="#CMR17-30" transform="scale(0.996264)"/>
      <use xlink:href="#CMMI12-3a" transform="translate(45.690477 0) scale(0.996264)"/>
      <use xlink:href="#CMR17-30" transform="translate(72.787654 0) scale(0.996264)"/>
      <use xlink:href="#CMR17-32" transform="translate(118.478131 0) scale(0.996264)"/>
     </g>
    </g>
   </g>
  </g>
  <g id="axes_2">
   <g id="Poly3DCollection_2">
    <path d="M 170.37354 52.25835 
L 170.309856 43.495676 
L 175.261677 44.892843 
L 175.27527 53.684981 
z
" clip-path="url(#pa0c7095527)" style="fill: #2d0046"/>
    <path d="M 165.98608 55.994614 
L 170.37354 52.25835 
L 175.27527 53.684981 
L 170.929973 57.458838 
z
" clip-path="url(#pa0c7095527)" style="fill: #3a005a"/>
    <path d="M 175.27527 53.684981 
L 175.266054 47.724231 
L 180.251551 49.14518 
L 180.22612 55.125908 
z
" clip-path="url(#pa0c7095527)" style="fill: #15023f"/>
    <path d="M 165.98608 55.994614 
L 165.876067 47.155078 
L 170.309856 43.495676 
L 170.37354 52.25835 
z
" clip-path="url(#pa0c7095527)" style="fill: #5f0094"/>
    <path d="M 170.929973 57.458838 
L 175.27527 53.684981 
L 180.22612 55.125908 
L 175.924063 58.937929 
z
" clip-path="url(#pa0c7095527)" style="fill: #1a0250"/>
    <path d="M 170.929973 57.458838 
L 170.889938 51.445975 
L 175.266054 47.724231 
L 175.27527 53.684981 
z
" clip-path="url(#pa0c7095527)" style="fill: #2c0485"/>
    <path d="M 180.22612 55.125908 
L 180.255394 48.241598 
L 185.296797 49.673889 
L 185.226832 56.581348 
z
" clip-path="url(#pa0c7095527)" style="fill: #1c0142"/>
    <path d="M 170.929973 57.458838 
L 175.27527 53.684981 
L 175.261677 44.892843 
L 170.870918 48.589447 
z
" clip-path="url(#pa0c7095527)" style="fill: #2d0046"/>
    <path d="M 175.924063 58.937929 
L 180.22612 55.125908 
L 185.226832 56.581348 
L 180.969117 60.432113 
z
" clip-path="url(#pa0c7095527)" style="fill: #240254"/>
    <path d="M 165.876067 47.155078 
L 170.870918 48.589447 
L 175.261677 44.892843 
L 170.309856 43.495676 
z
" clip-path="url(#pa0c7095527)" style="fill: #530081"/>
    <path d="M 175.924063 58.937929 
L 180.22612 55.125908 
L 180.251551 49.14518 
L 175.919284 52.904826 
z
" clip-path="url(#pa0c7095527)" style="fill: #15023f"/>
    <path d="M 165.98608 55.994614 
L 165.886785 48.016309 
L 170.876672 49.453628 
L 170.929973 57.458838 
z
" clip-path="url(#pa0c7095527)" style="fill: #260045"/>
    <path d="M 175.924063 58.937929 
L 175.918562 51.993234 
L 180.255394 48.241598 
L 180.22612 55.125908 
z
" clip-path="url(#pa0c7095527)" style="fill: #3c038c"/>
    <path d="M 165.98608 55.994614 
L 170.929973 57.458838 
L 170.870918 48.589447 
L 165.876067 47.155078 
z
" clip-path="url(#pa0c7095527)" style="fill: #5f0094"/>
    <path d="M 170.889938 51.445975 
L 175.919284 52.904826 
L 180.251551 49.14518 
L 175.266054 47.724231 
z
" clip-path="url(#pa0c7095527)" style="fill: #260473"/>
    <path d="M 161.482531 59.829736 
L 165.98608 55.994614 
L 170.929973 57.458838 
L 166.469115 61.333059 
z
" clip-path="url(#pa0c7095527)" style="fill: #300158"/>
    <path d="M 185.226832 56.581348 
L 185.305965 48.768789 
L 190.404257 50.212605 
L 190.278164 58.05152 
z
" clip-path="url(#pa0c7095527)" style="fill: #250145"/>
    <path d="M 170.929973 57.458838 
L 170.894988 52.204514 
L 175.919887 53.665943 
L 175.924063 58.937929 
z
" clip-path="url(#pa0c7095527)" style="fill: #0c033b"/>
    <path d="M 170.929973 57.458838 
L 175.924063 58.937929 
L 175.919284 52.904826 
L 170.889938 51.445975 
z
" clip-path="url(#pa0c7095527)" style="fill: #2c0485"/>
    <path d="M 180.969117 60.432113 
L 185.226832 56.581348 
L 190.278164 58.05152 
L 186.06592 61.941625 
z
" clip-path="url(#pa0c7095527)" style="fill: #2f0158"/>
    <path d="M 161.482531 59.829736 
L 161.339204 51.781248 
L 165.886785 48.016309 
L 165.98608 55.994614 
z
" clip-path="url(#pa0c7095527)" style="fill: #500192"/>
    <path d="M 180.969117 60.432113 
L 185.226832 56.581348 
L 185.296797 49.673889 
L 181.005037 53.463969 
z
" clip-path="url(#pa0c7095527)" style="fill: #1c0142"/>
    <path d="M 180.969117 60.432113 
L 181.009744 52.550806 
L 185.305965 48.768789 
L 185.226832 56.581348 
z
" clip-path="url(#pa0c7095527)" style="fill: #4d0191"/>
    <path d="M 175.918562 51.993234 
L 181.005037 53.463969 
L 185.296797 49.673889 
L 180.255394 48.241598 
z
" clip-path="url(#pa0c7095527)" style="fill: #340279"/>
    <path d="M 166.469115 61.333059 
L 170.929973 57.458838 
L 175.924063 58.937929 
L 171.507005 62.85185 
z
" clip-path="url(#pa0c7095527)" style="fill: #10034c"/>
    <path d="M 166.469115 61.333059 
L 166.405755 56.032667 
L 170.894988 52.204514 
L 170.929973 57.458838 
z
" clip-path="url(#pa0c7095527)" style="fill: #1a057d"/>
    <path d="M 190.278164 58.05152 
L 190.428343 48.715253 
L 195.588141 50.168752 
L 195.380889 59.53665 
z
" clip-path="url(#pa0c7095527)" style="fill: #310046"/>
    <path d="M 175.924063 58.937929 
L 175.91929 52.911601 
L 181.000287 54.38547 
L 180.969117 60.432113 
z
" clip-path="url(#pa0c7095527)" style="fill: #15023f"/>
    <path d="M 186.06592 61.941625 
L 190.278164 58.05152 
L 195.380889 59.53665 
L 191.215273 63.466699 
z
" clip-path="url(#pa0c7095527)" style="fill: #3f005a"/>
    <path d="M 166.469115 61.333059 
L 170.929973 57.458838 
L 170.876672 49.453628 
L 166.372578 53.257314 
z
" clip-path="url(#pa0c7095527)" style="fill: #260045"/>
    <path d="M 175.924063 58.937929 
L 180.969117 60.432113 
L 181.005037 53.463969 
L 175.918562 51.993234 
z
" clip-path="url(#pa0c7095527)" style="fill: #3c038c"/>
    <path d="M 186.06592 61.941625 
L 190.278164 58.05152 
L 190.404257 50.212605 
L 186.154365 54.033618 
z
" clip-path="url(#pa0c7095527)" style="fill: #250145"/>
    <path d="M 161.339204 51.781248 
L 166.372578 53.257314 
L 170.876672 49.453628 
L 165.886785 48.016309 
z
" clip-path="url(#pa0c7095527)" style="fill: #46017f"/>
    <path d="M 186.06592 61.941625 
L 186.171261 52.522848 
L 190.428343 48.715253 
L 190.278164 58.05152 
z
" clip-path="url(#pa0c7095527)" style="fill: #680195"/>
    <path d="M 171.507005 62.85185 
L 175.924063 58.937929 
L 180.969117 60.432113 
L 176.596998 64.386348 
z
" clip-path="url(#pa0c7095527)" style="fill: #1a0250"/>
    <path d="M 171.507005 62.85185 
L 175.924063 58.937929 
L 175.919887 53.665943 
L 171.474997 57.533569 
z
" clip-path="url(#pa0c7095527)" style="fill: #0c033b"/>
    <path d="M 161.482531 59.829736 
L 161.344615 52.085106 
L 166.376223 53.562216 
L 166.469115 61.333059 
z
" clip-path="url(#pa0c7095527)" style="fill: #230144"/>
    <path d="M 171.507005 62.85185 
L 171.470417 56.772532 
L 175.91929 52.911601 
L 175.924063 58.937929 
z
" clip-path="url(#pa0c7095527)" style="fill: #2c0485"/>
    <path d="M 181.009744 52.550806 
L 186.154365 54.033618 
L 190.404257 50.212605 
L 185.305965 48.768789 
z
" clip-path="url(#pa0c7095527)" style="fill: #43017e"/>
    <path d="M 166.405755 56.032667 
L 171.474997 57.533569 
L 175.919887 53.665943 
L 170.894988 52.204514 
z
" clip-path="url(#pa0c7095527)" style="fill: #17056d"/>
    <path d="M 161.482531 59.829736 
L 166.469115 61.333059 
L 166.372578 53.257314 
L 161.339204 51.781248 
z
" clip-path="url(#pa0c7095527)" style="fill: #500192"/>
    <path d="M 195.380889 59.53665 
L 195.608021 49.270156 
L 200.826756 50.735577 
L 200.535794 61.036967 
z
" clip-path="url(#pa0c7095527)" style="fill: #380345"/>
    <path d="M 191.215273 63.466699 
L 195.380889 59.53665 
L 200.535794 61.036967 
L 196.417992 65.00758 
z
" clip-path="url(#pa0c7095527)" style="fill: #470359"/>
    <path d="M 180.969117 60.432113 
L 181.004245 53.617513 
L 186.142393 55.103984 
L 186.06592 61.941625 
z
" clip-path="url(#pa0c7095527)" style="fill: #1b0141"/>
    <path d="M 156.858224 63.767693 
L 161.482531 59.829736 
L 166.469115 61.333059 
L 161.888023 65.311702 
z
" clip-path="url(#pa0c7095527)" style="fill: #2d0157"/>
    <path d="M 180.969117 60.432113 
L 186.06592 61.941625 
L 186.154365 54.033618 
L 181.009744 52.550806 
z
" clip-path="url(#pa0c7095527)" style="fill: #4d0191"/>
    <path d="M 166.469115 61.333059 
L 166.412143 56.567127 
L 171.478225 58.069848 
L 171.507005 62.85185 
z
" clip-path="url(#pa0c7095527)" style="fill: #050338"/>
    <path d="M 166.469115 61.333059 
L 171.507005 62.85185 
L 171.474997 57.533569 
L 166.405755 56.032667 
z
" clip-path="url(#pa0c7095527)" style="fill: #1a057d"/>
    <path d="M 191.215273 63.466699 
L 195.380889 59.53665 
L 195.588141 50.168752 
L 191.378748 54.01588 
z
" clip-path="url(#pa0c7095527)" style="fill: #310046"/>
    <path d="M 156.858224 63.767693 
L 156.675676 55.95469 
L 161.344615 52.085106 
L 161.482531 59.829736 
z
" clip-path="url(#pa0c7095527)" style="fill: #4b0190"/>
    <path d="M 176.596998 64.386348 
L 180.969117 60.432113 
L 186.06592 61.941625 
L 181.739906 65.936799 
z
" clip-path="url(#pa0c7095527)" style="fill: #230254"/>
    <path d="M 191.215273 63.466699 
L 191.394431 53.109183 
L 195.608021 49.270156 
L 195.380889 59.53665 
z
" clip-path="url(#pa0c7095527)" style="fill: #760693"/>
    <path d="M 176.596998 64.386348 
L 180.969117 60.432113 
L 181.000287 54.38547 
L 176.596998 58.286454 
z
" clip-path="url(#pa0c7095527)" style="fill: #15023f"/>
    <path d="M 176.596998 64.386348 
L 176.596998 57.511651 
L 181.004245 53.617513 
L 180.969117 60.432113 
z
" clip-path="url(#pa0c7095527)" style="fill: #39038b"/>
    <path d="M 171.470417 56.772532 
L 176.596998 58.286454 
L 181.000287 54.38547 
L 175.91929 52.911601 
z
" clip-path="url(#pa0c7095527)" style="fill: #260473"/>
    <path d="M 186.171261 52.522848 
L 191.378748 54.01588 
L 195.588141 50.168752 
L 190.428343 48.715253 
z
" clip-path="url(#pa0c7095527)" style="fill: #5a0181"/>
    <path d="M 186.06592 61.941625 
L 186.151741 54.268173 
L 191.348454 55.767224 
L 191.215273 63.466699 
z
" clip-path="url(#pa0c7095527)" style="fill: #230144"/>
    <path d="M 161.888023 65.311702 
L 166.469115 61.333059 
L 171.507005 62.85185 
L 166.970274 66.871813 
z
" clip-path="url(#pa0c7095527)" style="fill: #070448"/>
    <path d="M 161.888023 65.311702 
L 161.80416 60.50386 
L 166.412143 56.567127 
L 166.469115 61.333059 
z
" clip-path="url(#pa0c7095527)" style="fill: #0b0777"/>
    <path d="M 186.06592 61.941625 
L 191.215273 63.466699 
L 191.378748 54.01588 
L 186.171261 52.522848 
z
" clip-path="url(#pa0c7095527)" style="fill: #680195"/>
    <path d="M 171.507005 62.85185 
L 171.47463 57.47252 
L 176.596998 58.988835 
L 176.596998 64.386348 
z
" clip-path="url(#pa0c7095527)" style="fill: #0d023b"/>
    <path d="M 171.507005 62.85185 
L 176.596998 64.386348 
L 176.596998 58.286454 
L 171.470417 56.772532 
z
" clip-path="url(#pa0c7095527)" style="fill: #2c0485"/>
    <path d="M 161.888023 65.311702 
L 166.469115 61.333059 
L 166.376223 53.562216 
L 161.751279 57.47215 
z
" clip-path="url(#pa0c7095527)" style="fill: #230144"/>
    <path d="M 181.739906 65.936799 
L 186.06592 61.941625 
L 191.215273 63.466699 
L 186.936558 67.503452 
z
" clip-path="url(#pa0c7095527)" style="fill: #2c0157"/>
    <path d="M 196.417992 65.00758 
L 200.535794 61.036967 
L 200.826756 50.735577 
L 196.662188 54.614714 
z
" clip-path="url(#pa0c7095527)" style="fill: #380345"/>
    <path d="M 181.739906 65.936799 
L 186.06592 61.941625 
L 186.142393 55.103984 
L 181.782007 59.038767 
z
" clip-path="url(#pa0c7095527)" style="fill: #1b0141"/>
    <path d="M 156.675676 55.95469 
L 161.751279 57.47215 
L 166.376223 53.562216 
L 161.344615 52.085106 
z
" clip-path="url(#pa0c7095527)" style="fill: #41017d"/>
    <path d="M 181.739906 65.936799 
L 181.787154 58.195471 
L 186.151741 54.268173 
L 186.06592 61.941625 
z
" clip-path="url(#pa0c7095527)" style="fill: #490290"/>
    <path d="M 176.596998 57.511651 
L 181.782007 59.038767 
L 186.142393 55.103984 
L 181.004245 53.617513 
z
" clip-path="url(#pa0c7095527)" style="fill: #320378"/>
    <path d="M 166.970274 66.871813 
L 171.507005 62.85185 
L 176.596998 64.386348 
L 172.105802 68.448278 
z
" clip-path="url(#pa0c7095527)" style="fill: #11034c"/>
    <path d="M 166.970274 66.871813 
L 171.507005 62.85185 
L 171.478225 58.069848 
L 166.9151 62.047699 
z
" clip-path="url(#pa0c7095527)" style="fill: #050338"/>
    <path d="M 191.215273 63.466699 
L 191.36314 54.918209 
L 196.619535 56.43001 
L 196.417992 65.00758 
z
" clip-path="url(#pa0c7095527)" style="fill: #2a0046"/>
    <path d="M 161.80416 60.50386 
L 166.9151 62.047699 
L 171.478225 58.069848 
L 166.412143 56.567127 
z
" clip-path="url(#pa0c7095527)" style="fill: #0a0667"/>
    <path d="M 166.970274 66.871813 
L 166.908207 61.445059 
L 171.47463 57.47252 
L 171.507005 62.85185 
z
" clip-path="url(#pa0c7095527)" style="fill: #1c057e"/>
    <path d="M 191.394431 53.109183 
L 196.662188 54.614714 
L 200.826756 50.735577 
L 195.608021 49.270156 
z
" clip-path="url(#pa0c7095527)" style="fill: #660580"/>
    <path d="M 156.858224 63.767693 
L 161.888023 65.311702 
L 161.751279 57.47215 
L 156.675676 55.95469 
z
" clip-path="url(#pa0c7095527)" style="fill: #4b0190"/>
    <path d="M 191.215273 63.466699 
L 196.417992 65.00758 
L 196.662188 54.614714 
L 191.394431 53.109183 
z
" clip-path="url(#pa0c7095527)" style="fill: #760693"/>
    <path d="M 156.858224 63.767693 
L 156.647555 54.751148 
L 161.730213 56.264451 
L 161.888023 65.311702 
z
" clip-path="url(#pa0c7095527)" style="fill: #2d0046"/>
    <path d="M 176.596998 64.386348 
L 176.596998 58.212693 
L 181.777713 59.742215 
L 181.739906 65.936799 
z
" clip-path="url(#pa0c7095527)" style="fill: #15023f"/>
    <path d="M 186.936558 67.503452 
L 191.215273 63.466699 
L 196.417992 65.00758 
L 192.187802 69.086563 
z
" clip-path="url(#pa0c7095527)" style="fill: #350059"/>
    <path d="M 176.596998 64.386348 
L 181.739906 65.936799 
L 181.782007 59.038767 
L 176.596998 57.511651 
z
" clip-path="url(#pa0c7095527)" style="fill: #39038b"/>
    <path d="M 152.108236 67.812677 
L 156.858224 63.767693 
L 161.888023 65.311702 
L 157.18177 69.399047 
z
" clip-path="url(#pa0c7095527)" style="fill: #3a005a"/>
    <path d="M 186.936558 67.503452 
L 191.215273 63.466699 
L 191.348454 55.767224 
L 187.032049 59.73577 
z
" clip-path="url(#pa0c7095527)" style="fill: #230144"/>
    <path d="M 161.888023 65.311702 
L 166.970274 66.871813 
L 166.9151 62.047699 
L 161.80416 60.50386 
z
" clip-path="url(#pa0c7095527)" style="fill: #0b0777"/>
    <path d="M 186.936558 67.503452 
L 187.04258 58.879116 
L 191.36314 54.918209 
L 191.215273 63.466699 
z
" clip-path="url(#pa0c7095527)" style="fill: #590094"/>
    <path d="M 161.888023 65.311702 
L 161.795192 59.989681 
L 166.909199 61.531763 
L 166.970274 66.871813 
z
" clip-path="url(#pa0c7095527)" style="fill: #0c033b"/>
    <path d="M 172.105802 68.448278 
L 176.596998 64.386348 
L 181.739906 65.936799 
L 177.295449 70.041357 
z
" clip-path="url(#pa0c7095527)" style="fill: #1b0251"/>
    <path d="M 172.105802 68.448278 
L 176.596998 64.386348 
L 176.596998 58.988835 
L 172.076693 63.003113 
z
" clip-path="url(#pa0c7095527)" style="fill: #0d023b"/>
    <path d="M 152.108236 67.812677 
L 151.843281 58.716043 
L 156.647555 54.751148 
L 156.858224 63.767693 
z
" clip-path="url(#pa0c7095527)" style="fill: #5f0094"/>
    <path d="M 181.787154 58.195471 
L 187.032049 59.73577 
L 191.348454 55.767224 
L 186.151741 54.268173 
z
" clip-path="url(#pa0c7095527)" style="fill: #40017d"/>
    <path d="M 172.105802 68.448278 
L 172.072507 62.220041 
L 176.596998 58.212693 
L 176.596998 64.386348 
z
" clip-path="url(#pa0c7095527)" style="fill: #2d0486"/>
    <path d="M 166.908207 61.445059 
L 172.076693 63.003113 
L 176.596998 58.988835 
L 171.47463 57.47252 
z
" clip-path="url(#pa0c7095527)" style="fill: #18046d"/>
    <path d="M 181.739906 65.936799 
L 181.783298 58.827237 
L 187.024255 60.369715 
L 186.936558 67.503452 
z
" clip-path="url(#pa0c7095527)" style="fill: #1d0142"/>
    <path d="M 181.739906 65.936799 
L 186.936558 67.503452 
L 187.032049 59.73577 
L 181.787154 58.195471 
z
" clip-path="url(#pa0c7095527)" style="fill: #490290"/>
    <path d="M 157.18177 69.399047 
L 161.888023 65.311702 
L 166.970274 66.871813 
L 162.308938 71.002187 
z
" clip-path="url(#pa0c7095527)" style="fill: #10034c"/>
    <path d="M 157.18177 69.399047 
L 157.057552 64.030009 
L 161.795192 59.989681 
L 161.888023 65.311702 
z
" clip-path="url(#pa0c7095527)" style="fill: #1a057d"/>
    <path d="M 192.187802 69.086563 
L 196.417992 65.00758 
L 196.619535 56.43001 
L 192.348518 60.43278 
z
" clip-path="url(#pa0c7095527)" style="fill: #2a0046"/>
    <path d="M 166.970274 66.871813 
L 172.105802 68.448278 
L 172.076693 63.003113 
L 166.908207 61.445059 
z
" clip-path="url(#pa0c7095527)" style="fill: #1c057e"/>
    <path d="M 166.970274 66.871813 
L 166.900174 60.742695 
L 172.072925 62.29834 
L 172.105802 68.448278 
z
" clip-path="url(#pa0c7095527)" style="fill: #15023f"/>
    <path d="M 177.295449 70.041357 
L 181.739906 65.936799 
L 186.936558 67.503452 
L 182.540076 71.651312 
z
" clip-path="url(#pa0c7095527)" style="fill: #250255"/>
    <path d="M 157.18177 69.399047 
L 161.888023 65.311702 
L 161.730213 56.264451 
L 156.970591 60.271318 
z
" clip-path="url(#pa0c7095527)" style="fill: #2d0046"/>
    <path d="M 177.295449 70.041357 
L 181.739906 65.936799 
L 181.777713 59.742215 
L 177.300655 63.79193 
z
" clip-path="url(#pa0c7095527)" style="fill: #15023f"/>
    <path d="M 177.295449 70.041357 
L 177.301424 62.868745 
L 181.783298 58.827237 
L 181.739906 65.936799 
z
" clip-path="url(#pa0c7095527)" style="fill: #3e038c"/>
    <path d="M 187.04258 58.879116 
L 192.348518 60.43278 
L 196.619535 56.43001 
L 191.36314 54.918209 
z
" clip-path="url(#pa0c7095527)" style="fill: #4d0080"/>
    <path d="M 172.072507 62.220041 
L 177.300655 63.79193 
L 181.777713 59.742215 
L 176.596998 58.212693 
z
" clip-path="url(#pa0c7095527)" style="fill: #270374"/>
    <path d="M 162.308938 71.002187 
L 166.970274 66.871813 
L 172.105802 68.448278 
L 167.490597 72.622365 
z
" clip-path="url(#pa0c7095527)" style="fill: #1a0250"/>
    <path d="M 186.936558 67.503452 
L 187.03995 59.093007 
L 192.344532 60.647412 
L 192.187802 69.086563 
z
" clip-path="url(#pa0c7095527)" style="fill: #280045"/>
    <path d="M 151.843281 58.716043 
L 156.970591 60.271318 
L 161.730213 56.264451 
L 156.647555 54.751148 
z
" clip-path="url(#pa0c7095527)" style="fill: #530081"/>
    <path d="M 186.936558 67.503452 
L 192.187802 69.086563 
L 192.348518 60.43278 
L 187.04258 58.879116 
z
" clip-path="url(#pa0c7095527)" style="fill: #590094"/>
    <path d="M 162.308938 71.002187 
L 166.970274 66.871813 
L 166.909199 61.531763 
L 162.217038 65.614898 
z
" clip-path="url(#pa0c7095527)" style="fill: #0c033b"/>
    <path d="M 162.308938 71.002187 
L 162.203457 64.818771 
L 166.900174 60.742695 
L 166.970274 66.871813 
z
" clip-path="url(#pa0c7095527)" style="fill: #2c0485"/>
    <path d="M 157.057552 64.030009 
L 162.217038 65.614898 
L 166.909199 61.531763 
L 161.795192 59.989681 
z
" clip-path="url(#pa0c7095527)" style="fill: #17056d"/>
    <path d="M 152.108236 67.812677 
L 157.18177 69.399047 
L 156.970591 60.271318 
L 151.843281 58.716043 
z
" clip-path="url(#pa0c7095527)" style="fill: #5f0094"/>
    <path d="M 172.105802 68.448278 
L 177.295449 70.041357 
L 177.300655 63.79193 
L 172.072507 62.220041 
z
" clip-path="url(#pa0c7095527)" style="fill: #2d0486"/>
    <path d="M 182.540076 71.651312 
L 186.936558 67.503452 
L 192.187802 69.086563 
L 187.84056 73.278414 
z
" clip-path="url(#pa0c7095527)" style="fill: #330059"/>
    <path d="M 172.105802 68.448278 
L 172.064865 60.790549 
L 177.30185 62.357506 
L 177.295449 70.041357 
z
" clip-path="url(#pa0c7095527)" style="fill: #210144"/>
    <path d="M 182.540076 71.651312 
L 186.936558 67.503452 
L 187.024255 60.369715 
L 182.591183 64.454225 
z
" clip-path="url(#pa0c7095527)" style="fill: #1d0142"/>
    <path d="M 182.540076 71.651312 
L 182.600331 63.166002 
L 187.03995 59.093007 
L 186.936558 67.503452 
z
" clip-path="url(#pa0c7095527)" style="fill: #540193"/>
    <path d="M 157.18177 69.399047 
L 162.308938 71.002187 
L 162.217038 65.614898 
L 157.057552 64.030009 
z
" clip-path="url(#pa0c7095527)" style="fill: #1a057d"/>
    <path d="M 167.490597 72.622365 
L 172.105802 68.448278 
L 177.295449 70.041357 
L 172.727619 74.259853 
z
" clip-path="url(#pa0c7095527)" style="fill: #2b0156"/>
    <path d="M 177.301424 62.868745 
L 182.591183 64.454225 
L 187.024255 60.369715 
L 181.783298 58.827237 
z
" clip-path="url(#pa0c7095527)" style="fill: #36027a"/>
    <path d="M 167.490597 72.622365 
L 172.105802 68.448278 
L 172.072925 62.29834 
L 167.423009 66.417872 
z
" clip-path="url(#pa0c7095527)" style="fill: #15023f"/>
    <path d="M 167.490597 72.622365 
L 167.406436 64.896514 
L 172.064865 60.790549 
L 172.105802 68.448278 
z
" clip-path="url(#pa0c7095527)" style="fill: #46028f"/>
    <path d="M 162.203457 64.818771 
L 167.423009 66.417872 
L 172.072925 62.29834 
L 166.900174 60.742695 
z
" clip-path="url(#pa0c7095527)" style="fill: #260473"/>
    <path d="M 177.295449 70.041357 
L 182.540076 71.651312 
L 182.591183 64.454225 
L 177.301424 62.868745 
z
" clip-path="url(#pa0c7095527)" style="fill: #3e038c"/>
    <path d="M 187.84056 73.278414 
L 192.187802 69.086563 
L 192.344532 60.647412 
L 187.955168 64.764043 
z
" clip-path="url(#pa0c7095527)" style="fill: #280045"/>
    <path d="M 177.295449 70.041357 
L 177.304689 58.948022 
L 182.619121 60.519848 
L 182.540076 71.651312 
z
" clip-path="url(#pa0c7095527)" style="fill: #3c0544"/>
    <path d="M 162.308938 71.002187 
L 167.490597 72.622365 
L 167.423009 66.417872 
L 162.203457 64.818771 
z
" clip-path="url(#pa0c7095527)" style="fill: #2c0485"/>
    <path d="M 172.727619 74.259853 
L 177.295449 70.041357 
L 182.540076 71.651312 
L 178.020896 75.914932 
z
" clip-path="url(#pa0c7095527)" style="fill: #4d0757"/>
    <path d="M 182.600331 63.166002 
L 187.955168 64.764043 
L 192.344532 60.647412 
L 187.03995 59.093007 
z
" clip-path="url(#pa0c7095527)" style="fill: #49007f"/>
    <path d="M 172.727619 74.259853 
L 177.295449 70.041357 
L 177.30185 62.357506 
L 172.691665 66.507561 
z
" clip-path="url(#pa0c7095527)" style="fill: #210144"/>
    <path d="M 182.540076 71.651312 
L 187.84056 73.278414 
L 187.955168 64.764043 
L 182.600331 63.166002 
z
" clip-path="url(#pa0c7095527)" style="fill: #540193"/>
    <path d="M 167.406436 64.896514 
L 172.691665 66.507561 
L 177.30185 62.357506 
L 172.064865 60.790549 
z
" clip-path="url(#pa0c7095527)" style="fill: #3d027c"/>
    <path d="M 172.727619 74.259853 
L 172.675709 63.067076 
L 177.304689 58.948022 
L 177.295449 70.041357 
z
" clip-path="url(#pa0c7095527)" style="fill: #7f0c90"/>
    <path d="M 178.020896 75.914932 
L 182.540076 71.651312 
L 187.84056 73.278414 
L 183.37134 77.587885 
z
" clip-path="url(#pa0c7095527)" style="fill: #808512"/>
    <path d="M 167.490597 72.622365 
L 172.727619 74.259853 
L 172.691665 66.507561 
L 167.406436 64.896514 
z
" clip-path="url(#pa0c7095527)" style="fill: #46028f"/>
    <path d="M 178.020896 75.914932 
L 182.540076 71.651312 
L 182.619121 60.519848 
L 178.040102 64.683552 
z
" clip-path="url(#pa0c7095527)" style="fill: #3c0544"/>
    <path d="M 172.675709 63.067076 
L 178.040102 64.683552 
L 182.619121 60.519848 
L 177.304689 58.948022 
z
" clip-path="url(#pa0c7095527)" style="fill: #6e0a7d"/>
    <path d="M 172.727619 74.259853 
L 178.020896 75.914932 
L 178.040102 64.683552 
L 172.675709 63.067076 
z
" clip-path="url(#pa0c7095527)" style="fill: #7f0c90"/>
    <path d="M 182.540076 71.651312 
L 182.72563 45.520932 
L 188.193533 47.055596 
L 187.84056 73.278414 
z
" clip-path="url(#pa0c7095527)" style="fill: #64680e"/>
    <path d="M 178.020896 75.914932 
L 178.065993 49.543412 
L 182.72563 45.520932 
L 182.540076 71.651312 
z
" clip-path="url(#pa0c7095527)" style="fill: #d4dc1e"/>
    <path d="M 183.37134 77.587885 
L 187.84056 73.278414 
L 188.193533 47.055596 
L 183.587088 51.122705 
z
" clip-path="url(#pa0c7095527)" style="fill: #64680e"/>
    <path d="M 178.020896 75.914932 
L 183.37134 77.587885 
L 183.587088 51.122705 
L 178.065993 49.543412 
z
" clip-path="url(#pa0c7095527)" style="fill: #d4dc1e"/>
    <path d="M 178.065993 49.543412 
L 183.587088 51.122705 
L 188.193533 47.055596 
L 182.72563 45.520932 
z
" clip-path="url(#pa0c7095527)" style="fill: #b8bf1a"/>
   </g>
  </g>
 </g>
 <defs>
  <clipPath id="p73be9da275">
   <rect x="7.2" y="7.2" width="91.52047" height="91.52047"/>
  </clipPath>
  <clipPath id="pa0c7095527">
   <rect x="129.6" y="7.2" width="91.52047" height="91.52047"/>
  </clipPath>
 </defs>
</svg>
