<?xml version="1.0" encoding="utf-8" standalone="no"?>
<!DOCTYPE svg PUBLIC "-//W3C//DTD SVG 1.1//EN"
  "http://www.w3.org/Graphics/SVG/1.1/DTD/svg11.dtd">
<svg xmlns:xlink="http://www.w3.org/1999/xlink" width="253.19952pt" height="238.79952pt" viewBox="0 0 253.19952 238.79952" xmlns="http://www.w3.org/2000/svg" version="1.1">
 <metadata>
  <rdf:RDF xmlns:dc="http://purl.org/dc/elements/1.1/" xmlns:cc="http://creativecommons.org/ns#" xmlns:rdf="http://www.w3.org/1999/02/22-rdf-syntax-ns#">
   <cc:Work>
    <dc:type rdf:resource="http://purl.org/dc/dcmitype/StillImage"/>
    <dc:date>1980-01-01T00:00:00+00:00</dc:date>
    <dc:format>image/svg+xml</dc:format>
    <dc:creator>
     <cc:Agent>
      <dc:title>Matplotlib v3.6.2, https://matplotlib.org/</dc:title>
     </cc:Agent>
    </dc:creator>
   </cc:Work>
  </rdf:RDF>
 </metadata>
 <defs>
  <style type="text/css">*{stroke-linejoin: round; stroke-linecap: butt}</style>
 </defs>
 <g id="figure_1">
  <g id="patch_1">
   <path d="M 0 238.79952 
L 253.19952 238.79952 
L 253.19952 0 
L 0 0 
z
" style="fill: #ffffff"/>
  </g>
  <g id="axes_1">
   <g id="patch_2">
    <path d="M 33.707196 202.559296 
L 245.99952 202.559296 
L 245.99952 7.2 
L 33.707196 7.2 
z
" style="fill: #ffffff"/>
   </g>
   <g id="matplotlib.axis_1">
    <g id="xtick_1">
     <g id="line2d_1">
      <defs>
       <path id="m9f879f1dfb" d="M 0 0 
L 0 3.5 
" style="stroke: #000000; stroke-width: 0.8"/>
      </defs>
      <g>
       <use xlink:href="#m9f879f1dfb" x="43.356847" y="202.559296" style="stroke: #000000; stroke-width: 0.8"/>
      </g>
     </g>
     <g id="text_1">
      <!-- $\mathdefault{0}$ -->
      <g transform="translate(41.239756 217.194098) scale(0.08 -0.08)">
       <defs>
        <path id="CMR17-30" d="M 2688 2025 
C 2688 2416 2682 3080 2413 3591 
C 2176 4039 1798 4198 1466 4198 
C 1158 4198 768 4058 525 3597 
C 269 3118 243 2524 243 2025 
C 243 1661 250 1106 448 619 
C 723 -39 1216 -128 1466 -128 
C 1760 -128 2208 -7 2470 600 
C 2662 1042 2688 1559 2688 2025 
z
M 1466 -26 
C 1056 -26 813 325 723 812 
C 653 1188 653 1738 653 2096 
C 653 2588 653 2997 736 3387 
C 858 3929 1216 4096 1466 4096 
C 1728 4096 2067 3923 2189 3400 
C 2272 3036 2278 2607 2278 2096 
C 2278 1680 2278 1169 2202 792 
C 2067 95 1690 -26 1466 -26 
z
" transform="scale(0.015625)"/>
       </defs>
       <use xlink:href="#CMR17-30" transform="scale(0.996264)"/>
      </g>
     </g>
    </g>
    <g id="xtick_2">
     <g id="line2d_2">
      <g>
       <use xlink:href="#m9f879f1dfb" x="70.161434" y="202.559296" style="stroke: #000000; stroke-width: 0.8"/>
      </g>
     </g>
     <g id="text_2">
      <!-- $\mathdefault{25}$ -->
      <g transform="translate(65.927251 217.194098) scale(0.08 -0.08)">
       <defs>
        <path id="CMR17-32" d="M 2669 989 
L 2554 989 
C 2490 536 2438 459 2413 420 
C 2381 369 1920 369 1830 369 
L 602 369 
C 832 619 1280 1072 1824 1597 
C 2214 1967 2669 2402 2669 3035 
C 2669 3790 2067 4224 1395 4224 
C 691 4224 262 3604 262 3030 
C 262 2780 448 2748 525 2748 
C 589 2748 781 2787 781 3010 
C 781 3207 614 3264 525 3264 
C 486 3264 448 3258 422 3245 
C 544 3790 915 4058 1306 4058 
C 1862 4058 2227 3617 2227 3035 
C 2227 2479 1901 2000 1536 1584 
L 262 146 
L 262 0 
L 2515 0 
L 2669 989 
z
" transform="scale(0.015625)"/>
        <path id="CMR17-35" d="M 730 3692 
C 794 3666 1056 3584 1325 3584 
C 1920 3584 2246 3911 2432 4100 
C 2432 4157 2432 4192 2394 4192 
C 2387 4192 2374 4192 2323 4163 
C 2099 4058 1837 3973 1517 3973 
C 1325 3973 1037 3999 723 4139 
C 653 4171 640 4171 634 4171 
C 602 4171 595 4164 595 4037 
L 595 2203 
C 595 2089 595 2057 659 2057 
C 691 2057 704 2070 736 2114 
C 941 2401 1222 2522 1542 2522 
C 1766 2522 2246 2382 2246 1289 
C 2246 1085 2246 715 2054 421 
C 1894 159 1645 25 1370 25 
C 947 25 518 320 403 814 
C 429 807 480 795 506 795 
C 589 795 749 840 749 1038 
C 749 1210 627 1280 506 1280 
C 358 1280 262 1190 262 1011 
C 262 454 704 -128 1382 -128 
C 2042 -128 2669 440 2669 1264 
C 2669 2030 2170 2624 1549 2624 
C 1222 2624 947 2503 730 2274 
L 730 3692 
z
" transform="scale(0.015625)"/>
       </defs>
       <use xlink:href="#CMR17-32" transform="scale(0.996264)"/>
       <use xlink:href="#CMR17-35" transform="translate(45.690477 0) scale(0.996264)"/>
      </g>
     </g>
    </g>
    <g id="xtick_3">
     <g id="line2d_3">
      <g>
       <use xlink:href="#m9f879f1dfb" x="96.96602" y="202.559296" style="stroke: #000000; stroke-width: 0.8"/>
      </g>
     </g>
     <g id="text_3">
      <!-- $\mathdefault{50}$ -->
      <g transform="translate(92.731837 217.194098) scale(0.08 -0.08)">
       <use xlink:href="#CMR17-35" transform="scale(0.996264)"/>
       <use xlink:href="#CMR17-30" transform="translate(45.690477 0) scale(0.996264)"/>
      </g>
     </g>
    </g>
    <g id="xtick_4">
     <g id="line2d_4">
      <g>
       <use xlink:href="#m9f879f1dfb" x="123.770606" y="202.559296" style="stroke: #000000; stroke-width: 0.8"/>
      </g>
     </g>
     <g id="text_4">
      <!-- $\mathdefault{75}$ -->
      <g transform="translate(119.536423 217.194098) scale(0.08 -0.08)">
       <defs>
        <path id="CMR17-37" d="M 2886 3941 
L 2886 4081 
L 1382 4081 
C 634 4081 621 4165 595 4288 
L 480 4288 
L 294 3094 
L 410 3094 
C 429 3215 474 3540 550 3661 
C 589 3712 1062 3712 1171 3712 
L 2579 3712 
L 1869 2661 
C 1395 1954 1069 999 1069 165 
C 1069 89 1069 -128 1299 -128 
C 1530 -128 1530 89 1530 171 
L 1530 465 
C 1530 1508 1709 2196 2003 2636 
L 2886 3941 
z
" transform="scale(0.015625)"/>
       </defs>
       <use xlink:href="#CMR17-37" transform="scale(0.996264)"/>
       <use xlink:href="#CMR17-35" transform="translate(45.690477 0) scale(0.996264)"/>
      </g>
     </g>
    </g>
    <g id="xtick_5">
     <g id="line2d_5">
      <g>
       <use xlink:href="#m9f879f1dfb" x="150.575193" y="202.559296" style="stroke: #000000; stroke-width: 0.8"/>
      </g>
     </g>
     <g id="text_5">
      <!-- $\mathdefault{100}$ -->
      <g transform="translate(144.223918 217.194098) scale(0.08 -0.08)">
       <defs>
        <path id="CMR17-31" d="M 1702 4058 
C 1702 4192 1696 4192 1606 4192 
C 1357 3916 979 3827 621 3827 
C 602 3827 570 3827 563 3808 
C 557 3795 557 3782 557 3648 
C 755 3648 1088 3686 1344 3839 
L 1344 461 
C 1344 236 1331 160 781 160 
L 589 160 
L 589 0 
C 896 0 1216 0 1523 0 
C 1830 0 2150 0 2458 0 
L 2458 160 
L 2266 160 
C 1715 160 1702 230 1702 458 
L 1702 4058 
z
" transform="scale(0.015625)"/>
       </defs>
       <use xlink:href="#CMR17-31" transform="scale(0.996264)"/>
       <use xlink:href="#CMR17-30" transform="translate(45.690477 0) scale(0.996264)"/>
       <use xlink:href="#CMR17-30" transform="translate(91.380954 0) scale(0.996264)"/>
      </g>
     </g>
    </g>
    <g id="xtick_6">
     <g id="line2d_6">
      <g>
       <use xlink:href="#m9f879f1dfb" x="177.379779" y="202.559296" style="stroke: #000000; stroke-width: 0.8"/>
      </g>
     </g>
     <g id="text_6">
      <!-- $\mathdefault{125}$ -->
      <g transform="translate(171.028505 217.194098) scale(0.08 -0.08)">
       <use xlink:href="#CMR17-31" transform="scale(0.996264)"/>
       <use xlink:href="#CMR17-32" transform="translate(45.690477 0) scale(0.996264)"/>
       <use xlink:href="#CMR17-35" transform="translate(91.380954 0) scale(0.996264)"/>
      </g>
     </g>
    </g>
    <g id="xtick_7">
     <g id="line2d_7">
      <g>
       <use xlink:href="#m9f879f1dfb" x="204.184365" y="202.559296" style="stroke: #000000; stroke-width: 0.8"/>
      </g>
     </g>
     <g id="text_7">
      <!-- $\mathdefault{150}$ -->
      <g transform="translate(197.833091 217.194098) scale(0.08 -0.08)">
       <use xlink:href="#CMR17-31" transform="scale(0.996264)"/>
       <use xlink:href="#CMR17-35" transform="translate(45.690477 0) scale(0.996264)"/>
       <use xlink:href="#CMR17-30" transform="translate(91.380954 0) scale(0.996264)"/>
      </g>
     </g>
    </g>
    <g id="xtick_8">
     <g id="line2d_8">
      <g>
       <use xlink:href="#m9f879f1dfb" x="230.988952" y="202.559296" style="stroke: #000000; stroke-width: 0.8"/>
      </g>
     </g>
     <g id="text_8">
      <!-- $\mathdefault{175}$ -->
      <g transform="translate(224.637677 217.194098) scale(0.08 -0.08)">
       <use xlink:href="#CMR17-31" transform="scale(0.996264)"/>
       <use xlink:href="#CMR17-37" transform="translate(45.690477 0) scale(0.996264)"/>
       <use xlink:href="#CMR17-35" transform="translate(91.380954 0) scale(0.996264)"/>
      </g>
     </g>
    </g>
    <g id="text_9">
     <!-- $\tau$ -->
     <g transform="translate(137.675756 229.662342) scale(0.1 -0.1)">
      <defs>
       <path id="CMMI12-1c" d="M 1837 2408 
L 2899 2408 
C 2982 2408 3194 2408 3194 2612 
C 3194 2752 3072 2752 2957 2752 
L 1197 2752 
C 1050 2752 832 2752 538 2440 
C 371 2255 166 1917 166 1879 
C 166 1841 198 1828 237 1828 
C 282 1828 288 1847 320 1885 
C 653 2408 986 2408 1146 2408 
L 1677 2408 
L 1011 223 
C 979 127 979 114 979 95 
C 979 25 1024 -64 1152 -64 
C 1350 -64 1382 108 1402 203 
L 1837 2408 
z
" transform="scale(0.015625)"/>
      </defs>
      <use xlink:href="#CMMI12-1c" transform="scale(0.996264)"/>
     </g>
    </g>
   </g>
   <g id="matplotlib.axis_2">
    <g id="ytick_1">
     <g id="line2d_9">
      <defs>
       <path id="mdcb1346053" d="M 0 0 
L -3.5 0 
" style="stroke: #000000; stroke-width: 0.8"/>
      </defs>
      <g>
       <use xlink:href="#mdcb1346053" x="33.707196" y="193.679328" style="stroke: #000000; stroke-width: 0.8"/>
      </g>
     </g>
     <g id="text_10">
      <!-- $\mathdefault{−1.0}$ -->
      <g transform="translate(7.2 196.446729) scale(0.08 -0.08)">
       <defs>
        <path id="CMSY10-0" d="M 4218 1472 
C 4326 1472 4442 1472 4442 1600 
C 4442 1728 4326 1728 4218 1728 
L 755 1728 
C 646 1728 531 1728 531 1600 
C 531 1472 646 1472 755 1472 
L 4218 1472 
z
" transform="scale(0.015625)"/>
        <path id="CMMI12-3a" d="M 1178 307 
C 1178 492 1024 619 870 619 
C 685 619 557 466 557 313 
C 557 128 710 0 864 0 
C 1050 0 1178 153 1178 307 
z
" transform="scale(0.015625)"/>
       </defs>
       <use xlink:href="#CMSY10-0" transform="scale(0.996264)"/>
       <use xlink:href="#CMR17-31" transform="translate(77.487468 0) scale(0.996264)"/>
       <use xlink:href="#CMMI12-3a" transform="translate(123.177945 0) scale(0.996264)"/>
       <use xlink:href="#CMR17-30" transform="translate(150.275122 0) scale(0.996264)"/>
      </g>
     </g>
    </g>
    <g id="ytick_2">
     <g id="line2d_10">
      <g>
       <use xlink:href="#mdcb1346053" x="33.707196" y="158.362266" style="stroke: #000000; stroke-width: 0.8"/>
      </g>
     </g>
     <g id="text_11">
      <!-- $\mathdefault{−0.8}$ -->
      <g transform="translate(7.2 161.129667) scale(0.08 -0.08)">
       <defs>
        <path id="CMR17-38" d="M 1741 2264 
C 2144 2467 2554 2773 2554 3263 
C 2554 3841 1990 4179 1472 4179 
C 890 4179 378 3759 378 3180 
C 378 3021 416 2747 666 2505 
C 730 2442 998 2251 1171 2130 
C 883 1983 211 1634 211 934 
C 211 279 838 -128 1459 -128 
C 2144 -128 2720 362 2720 1010 
C 2720 1590 2330 1857 2074 2029 
L 1741 2264 
z
M 902 2822 
C 851 2854 595 3051 595 3351 
C 595 3739 998 4032 1459 4032 
C 1965 4032 2336 3676 2336 3262 
C 2336 2669 1670 2331 1638 2331 
C 1632 2331 1626 2331 1574 2370 
L 902 2822 
z
M 2080 1519 
C 2176 1449 2483 1240 2483 851 
C 2483 381 2010 25 1472 25 
C 890 25 448 438 448 940 
C 448 1443 838 1862 1280 2060 
L 2080 1519 
z
" transform="scale(0.015625)"/>
       </defs>
       <use xlink:href="#CMSY10-0" transform="scale(0.996264)"/>
       <use xlink:href="#CMR17-30" transform="translate(77.487468 0) scale(0.996264)"/>
       <use xlink:href="#CMMI12-3a" transform="translate(123.177945 0) scale(0.996264)"/>
       <use xlink:href="#CMR17-38" transform="translate(150.275122 0) scale(0.996264)"/>
      </g>
     </g>
    </g>
    <g id="ytick_3">
     <g id="line2d_11">
      <g>
       <use xlink:href="#mdcb1346053" x="33.707196" y="123.045205" style="stroke: #000000; stroke-width: 0.8"/>
      </g>
     </g>
     <g id="text_12">
      <!-- $\mathdefault{−0.6}$ -->
      <g transform="translate(7.2 125.812606) scale(0.08 -0.08)">
       <defs>
        <path id="CMR17-36" d="M 678 2176 
C 678 3690 1395 4032 1811 4032 
C 1946 4032 2272 4009 2400 3776 
C 2298 3776 2106 3776 2106 3553 
C 2106 3381 2246 3323 2336 3323 
C 2394 3323 2566 3348 2566 3560 
C 2566 3954 2246 4179 1805 4179 
C 1043 4179 243 3390 243 1984 
C 243 253 966 -128 1478 -128 
C 2099 -128 2688 427 2688 1283 
C 2688 2081 2170 2662 1517 2662 
C 1126 2662 838 2407 678 1960 
L 678 2176 
z
M 1478 25 
C 691 25 691 1200 691 1436 
C 691 1896 909 2560 1504 2560 
C 1613 2560 1926 2560 2138 2120 
C 2253 1870 2253 1609 2253 1289 
C 2253 944 2253 690 2118 434 
C 1978 171 1773 25 1478 25 
z
" transform="scale(0.015625)"/>
       </defs>
       <use xlink:href="#CMSY10-0" transform="scale(0.996264)"/>
       <use xlink:href="#CMR17-30" transform="translate(77.487468 0) scale(0.996264)"/>
       <use xlink:href="#CMMI12-3a" transform="translate(123.177945 0) scale(0.996264)"/>
       <use xlink:href="#CMR17-36" transform="translate(150.275122 0) scale(0.996264)"/>
      </g>
     </g>
    </g>
    <g id="ytick_4">
     <g id="line2d_12">
      <g>
       <use xlink:href="#mdcb1346053" x="33.707196" y="87.728144" style="stroke: #000000; stroke-width: 0.8"/>
      </g>
     </g>
     <g id="text_13">
      <!-- $\mathdefault{−0.4}$ -->
      <g transform="translate(7.2 90.495545) scale(0.08 -0.08)">
       <defs>
        <path id="CMR17-34" d="M 2150 4122 
C 2150 4256 2144 4256 2029 4256 
L 128 1254 
L 128 1088 
L 1779 1088 
L 1779 457 
C 1779 224 1766 160 1318 160 
L 1197 160 
L 1197 0 
C 1402 0 1747 0 1965 0 
C 2182 0 2528 0 2733 0 
L 2733 160 
L 2611 160 
C 2163 160 2150 224 2150 457 
L 2150 1088 
L 2803 1088 
L 2803 1254 
L 2150 1254 
L 2150 4122 
z
M 1798 3703 
L 1798 1254 
L 256 1254 
L 1798 3703 
z
" transform="scale(0.015625)"/>
       </defs>
       <use xlink:href="#CMSY10-0" transform="scale(0.996264)"/>
       <use xlink:href="#CMR17-30" transform="translate(77.487468 0) scale(0.996264)"/>
       <use xlink:href="#CMMI12-3a" transform="translate(123.177945 0) scale(0.996264)"/>
       <use xlink:href="#CMR17-34" transform="translate(150.275122 0) scale(0.996264)"/>
      </g>
     </g>
    </g>
    <g id="ytick_5">
     <g id="line2d_13">
      <g>
       <use xlink:href="#mdcb1346053" x="33.707196" y="52.411082" style="stroke: #000000; stroke-width: 0.8"/>
      </g>
     </g>
     <g id="text_14">
      <!-- $\mathdefault{−0.2}$ -->
      <g transform="translate(7.2 55.178483) scale(0.08 -0.08)">
       <use xlink:href="#CMSY10-0" transform="scale(0.996264)"/>
       <use xlink:href="#CMR17-30" transform="translate(77.487468 0) scale(0.996264)"/>
       <use xlink:href="#CMMI12-3a" transform="translate(123.177945 0) scale(0.996264)"/>
       <use xlink:href="#CMR17-32" transform="translate(150.275122 0) scale(0.996264)"/>
      </g>
     </g>
    </g>
    <g id="ytick_6">
     <g id="line2d_14">
      <g>
       <use xlink:href="#mdcb1346053" x="33.707196" y="17.094021" style="stroke: #000000; stroke-width: 0.8"/>
      </g>
     </g>
     <g id="text_15">
      <!-- $\mathdefault{0.0}$ -->
      <g transform="translate(13.786507 19.861422) scale(0.08 -0.08)">
       <use xlink:href="#CMR17-30" transform="scale(0.996264)"/>
       <use xlink:href="#CMMI12-3a" transform="translate(45.690477 0) scale(0.996264)"/>
       <use xlink:href="#CMR17-30" transform="translate(72.787654 0) scale(0.996264)"/>
      </g>
     </g>
    </g>
   </g>
   <g id="line2d_15">
    <path d="M 43.356847 193.679328 
L 52.684843 193.589947 
L 53.006498 193.373778 
L 53.328153 192.853143 
L 53.649808 191.807316 
L 53.971463 189.977791 
L 54.357449 186.368664 
L 54.807767 179.806376 
L 55.386746 167.800806 
L 58.088648 105.66973 
L 58.731958 97.078425 
L 59.761254 86.628484 
L 60.597557 79.942937 
L 61.562522 74.495022 
L 62.591818 70.628892 
L 63.878439 66.872505 
L 64.521749 65.579618 
L 65.293721 63.867412 
L 65.679707 63.645372 
L 66.065693 63.392974 
L 67.15932 62.205079 
L 67.866961 61.777919 
L 68.317278 61.462136 
L 68.703264 61.484183 
L 69.08925 61.677424 
L 69.475236 61.843553 
L 69.925553 61.948269 
L 70.311539 62.323203 
L 70.890518 63.222948 
L 72.048476 65.2893 
L 72.820449 66.135932 
L 73.463759 66.55859 
L 74.107069 66.705314 
L 75.844006 66.737605 
L 86.265629 66.819516 
L 86.715946 67.214396 
L 87.037601 67.789324 
L 87.423587 68.952656 
L 87.873904 71.175331 
L 88.388552 75.007074 
L 89.031862 81.748936 
L 92.119751 117.531093 
L 93.084716 124.721337 
L 93.921019 129.293988 
L 94.950315 133.689088 
L 95.850949 136.466692 
L 96.55859 137.959015 
L 97.652217 139.633566 
L 98.810175 140.849435 
L 100.096796 141.998126 
L 101.576409 143.196681 
L 102.026726 144.207287 
L 102.605705 146.113872 
L 103.313346 149.2532 
L 104.599966 155.058882 
L 105.178945 156.754343 
L 105.693593 157.592803 
L 106.14391 157.961106 
L 106.722889 158.117752 
L 108.138172 158.139792 
L 117.080182 158.037817 
L 117.466168 157.744662 
L 117.787823 157.211772 
L 118.109478 156.212585 
L 118.495464 154.046961 
L 118.945781 149.87626 
L 119.460429 142.725544 
L 120.361063 125.95183 
L 121.840676 99.424977 
L 122.676979 89.443659 
L 123.513282 81.965645 
L 124.349585 76.70559 
L 125.185888 72.724942 
L 125.829199 70.443161 
L 127.630467 65.421194 
L 128.338108 64.754497 
L 128.659763 64.303878 
L 129.431735 62.808276 
L 129.946383 62.271006 
L 130.3967 61.844549 
L 130.718355 61.891797 
L 131.168672 61.994809 
L 131.490327 61.754837 
L 132.004975 61.310883 
L 133.034271 61.023593 
L 133.484588 60.813942 
L 133.806243 61.003489 
L 134.578215 61.83378 
L 135.47885 63.548831 
L 136.701139 65.712523 
L 137.344449 66.376636 
L 137.987759 66.744428 
L 138.6954 66.862835 
L 140.818323 66.881916 
L 150.789629 66.980895 
L 151.111284 67.323804 
L 151.49727 68.132962 
L 151.883256 69.538697 
L 152.333573 72.103654 
L 152.912553 76.880564 
L 153.620194 84.750559 
L 156.386427 117.393418 
L 157.287061 124.210727 
L 157.994702 128.031944 
L 159.216991 133.104529 
L 159.988963 135.533207 
L 161.08259 138.060994 
L 161.854563 139.350352 
L 162.497873 140.167453 
L 165.843085 143.243273 
L 166.293402 144.072678 
L 166.743719 145.39643 
L 167.45136 148.310266 
L 169.059635 155.408918 
L 169.638614 156.897555 
L 170.088931 157.539895 
L 170.60358 157.878582 
L 171.24689 157.990886 
L 174.206116 157.998751 
L 181.411189 157.896378 
L 181.797175 157.623008 
L 182.11883 157.070578 
L 182.440485 156.049462 
L 182.826471 153.913374 
L 183.212457 150.418349 
L 183.727105 143.491466 
L 184.499077 129.487157 
L 186.043021 101.181405 
L 186.814993 91.544419 
L 187.779958 82.476874 
L 188.423269 78.735434 
L 189.77422 71.805148 
L 190.739185 68.95139 
L 192.34746 65.156264 
L 192.926439 64.533355 
L 193.505418 63.996691 
L 194.663376 62.429046 
L 195.242355 62.321069 
L 195.821334 61.570045 
L 196.657637 60.727703 
L 196.979292 60.635009 
L 197.365279 60.8555 
L 198.523237 61.750521 
L 199.166547 62.627849 
L 200.64616 65.267981 
L 201.482463 66.255913 
L 202.125773 66.691577 
L 202.833414 66.885447 
L 203.927041 66.927586 
L 214.991975 67.012132 
L 215.377961 67.34291 
L 215.763947 68.011964 
L 216.149933 69.187573 
L 216.535919 71.076433 
L 217.050567 74.82702 
L 217.693877 81.363811 
L 219.366483 102.43805 
L 220.395779 113.895532 
L 221.425075 122.575887 
L 222.261378 127.832737 
L 223.03335 131.576537 
L 223.805323 134.288139 
L 224.89895 137.2511 
L 225.670922 138.865104 
L 226.700218 140.449761 
L 227.600852 141.250518 
L 229.144796 142.386423 
L 229.852437 142.958402 
L 230.431416 143.80474 
L 230.881733 144.939377 
L 231.460712 147.044351 
L 233.776629 156.498907 
L 234.291277 157.425859 
L 234.741594 157.833483 
L 235.256242 158.005322 
L 236.349869 158.041665 
L 236.349869 158.041665 
" clip-path="url(#p20d6bd06eb)" style="fill: none; stroke: #ff7f0e; stroke-width: 0.5; stroke-linecap: square"/>
   </g>
   <g id="line2d_16">
    <path d="M 43.356847 17.094021 
L 53.907132 16.994949 
L 55.258084 16.853964 
L 55.579739 17.226106 
L 56.351711 18.306102 
L 56.544704 18.264886 
L 56.802028 17.933423 
L 57.638331 16.597778 
L 57.959986 16.460991 
L 58.474634 16.609321 
L 59.568261 16.828626 
L 60.533226 16.474556 
L 61.819846 16.551564 
L 62.141501 16.620352 
L 62.527487 16.995204 
L 62.977804 17.406394 
L 63.299459 17.465213 
L 63.556784 17.331737 
L 64.521749 16.494203 
L 64.843404 16.788977 
L 65.615376 17.710046 
L 65.8727 17.718169 
L 66.773334 17.26881 
L 67.545306 16.780226 
L 67.866961 16.912655 
L 68.960588 17.608419 
L 69.282243 17.582583 
L 70.633194 17.090059 
L 71.791152 17.381501 
L 72.241469 17.470514 
L 72.691787 17.309312 
L 73.721083 16.801907 
L 74.1714 16.858081 
L 75.072034 17.301871 
L 75.586682 17.390662 
L 76.10133 17.226625 
L 77.130626 16.796522 
L 77.645274 16.880637 
L 79.253549 17.387844 
L 79.96119 17.213785 
L 81.440804 16.8082 
L 82.341438 16.840668 
L 83.628058 17.153043 
L 84.914678 17.391888 
L 85.943974 17.339481 
L 87.938235 16.871373 
L 89.675172 16.372652 
L 90.125489 16.497488 
L 92.248413 17.303033 
L 93.34204 17.026629 
L 94.821653 16.784665 
L 95.979611 17.112996 
L 96.622921 17.180878 
L 97.459224 17.222894 
L 98.424189 16.85865 
L 99.067499 16.469401 
L 99.582148 16.270067 
L 100.225458 16.360106 
L 100.933099 16.689503 
L 101.576409 17.010469 
L 102.412712 17.246938 
L 103.377677 17.69596 
L 104.149649 17.590151 
L 104.921621 17.31942 
L 106.272572 16.761949 
L 107.044544 16.636097 
L 107.816516 16.741893 
L 108.910144 17.163092 
L 110.003771 17.529908 
L 110.647081 17.511173 
L 111.290391 17.242076 
L 112.51268 16.63835 
L 112.962997 16.729454 
L 113.541976 17.132445 
L 114.185286 17.528132 
L 114.571272 17.51729 
L 115.021589 17.247723 
L 115.922223 16.648747 
L 116.308209 16.68996 
L 116.758526 16.989547 
L 117.59483 17.578049 
L 117.980816 17.557523 
L 118.431133 17.281311 
L 119.331767 16.668809 
L 119.717753 16.719887 
L 120.554056 16.991099 
L 122.74131 16.824483 
L 123.320289 17.039442 
L 123.770606 17.359114 
L 124.413916 17.893455 
L 124.735571 17.878563 
L 125.057226 17.599333 
L 125.700536 16.952893 
L 126.794164 16.690644 
L 127.244481 16.855755 
L 128.46677 17.519659 
L 128.788425 17.331153 
L 129.303073 16.652569 
L 129.75339 16.211172 
L 130.075045 16.200543 
L 131.68332 16.940169 
L 132.32663 17.368849 
L 132.648285 17.317369 
L 133.227264 16.851911 
L 133.61325 16.658547 
L 133.934905 16.729007 
L 134.578215 17.230004 
L 135.285857 17.600831 
L 135.607512 17.460666 
L 136.443815 16.930397 
L 136.894132 16.909103 
L 137.730435 17.220564 
L 138.309414 17.30099 
L 138.888393 17.147432 
L 139.853358 16.873741 
L 140.432337 16.986255 
L 141.590295 17.31413 
L 142.233605 17.17999 
L 143.391563 16.875477 
L 144.163536 16.964375 
L 146.093466 17.314134 
L 147.187093 17.213925 
L 149.696002 16.875664 
L 150.789629 17.032347 
L 153.941849 17.37302 
L 156.000441 17.231543 
L 156.450758 17.212161 
L 157.158399 17.208624 
L 157.86604 17.329707 
L 158.445019 17.073616 
L 159.409984 16.515577 
L 159.860301 16.524714 
L 162.047556 17.396941 
L 163.076852 17.603016 
L 163.913155 17.569808 
L 164.685127 17.630338 
L 165.328437 17.428316 
L 166.229071 17.310637 
L 167.001043 17.174736 
L 167.708684 16.998852 
L 168.802311 17.153044 
L 170.732242 17.44566 
L 171.632876 17.294331 
L 174.013123 16.744925 
L 174.785095 16.888791 
L 176.650694 17.423683 
L 177.229673 17.190938 
L 178.194638 16.747653 
L 178.644955 16.817829 
L 179.352597 17.233092 
L 179.931576 17.443617 
L 180.381893 17.348844 
L 181.861506 16.753257 
L 182.633478 17.058202 
L 183.276788 17.184943 
L 183.791436 17.102093 
L 184.885063 16.564006 
L 185.657035 16.083126 
L 185.97869 16.169869 
L 186.364676 16.574763 
L 187.136648 17.456966 
L 187.522634 17.555432 
L 187.844289 17.423209 
L 188.358938 16.90559 
L 188.809255 16.541199 
L 189.13091 16.569792 
L 189.516896 16.878177 
L 190.353199 17.697739 
L 190.546192 17.597071 
L 190.996509 16.926964 
L 191.382495 16.549299 
L 191.961474 16.36113 
L 192.283129 16.420021 
L 192.862108 16.852761 
L 193.698411 17.321756 
L 194.020066 17.369626 
L 194.406052 17.193847 
L 195.56401 16.463193 
L 195.949996 16.613392 
L 197.236617 17.302672 
L 197.944258 16.98772 
L 198.458906 16.889066 
L 198.973554 17.006802 
L 199.938519 17.441951 
L 200.388836 17.25547 
L 201.353801 16.739125 
L 201.804118 16.722795 
L 202.254435 16.933209 
L 203.2194 17.459176 
L 203.669717 17.390245 
L 204.377358 16.948064 
L 204.892006 16.729239 
L 205.342323 16.791289 
L 206.049965 17.216809 
L 206.628944 17.457182 
L 207.079261 17.418808 
L 207.786902 17.083235 
L 208.623205 16.750801 
L 209.266515 16.74656 
L 210.167149 17.006348 
L 211.646762 17.438479 
L 212.483065 17.439204 
L 213.44803 17.197324 
L 215.120637 16.751549 
L 215.763947 16.793444 
L 218.208525 17.426143 
L 218.723173 17.206268 
L 219.688138 16.824174 
L 220.395779 16.643926 
L 221.10342 16.596543 
L 222.711695 17.129785 
L 224.062647 17.301423 
L 225.413598 16.707729 
L 226.893211 16.780234 
L 227.536521 16.98608 
L 228.437155 17.270947 
L 229.273458 17.366171 
L 230.109761 17.174882 
L 231.139057 16.687392 
L 231.97536 16.547487 
L 232.811664 16.566442 
L 233.969622 17.00754 
L 235.449235 17.556635 
L 236.156876 17.549992 
L 236.349869 17.512467 
L 236.349869 17.512467 
" clip-path="url(#p20d6bd06eb)" style="fill: none; stroke: #2ca02c; stroke-width: 0.5; stroke-linecap: square"/>
   </g>
   <g id="line2d_17">
    <path d="M 43.356847 17.094021 
L 53.842801 17.196391 
L 54.614774 17.305698 
L 54.936429 17.110209 
L 55.386746 16.513973 
L 55.772732 16.134886 
L 55.965725 16.189711 
L 56.223049 16.548779 
L 57.123683 18.20252 
L 57.381007 17.944239 
L 58.088648 17.032491 
L 58.474634 16.973078 
L 59.375268 17.019883 
L 60.018578 17.369184 
L 60.340233 17.309482 
L 60.919212 17.135724 
L 62.012839 16.985944 
L 62.591818 16.515082 
L 62.849142 16.696987 
L 63.878439 17.904326 
L 64.135763 17.667988 
L 65.100728 16.390045 
L 65.358052 16.588102 
L 66.065693 17.3701 
L 67.223651 17.35573 
L 68.124285 16.554173 
L 68.574602 16.685957 
L 69.217912 17.131177 
L 69.603898 17.351263 
L 70.182877 17.258487 
L 71.276504 17.006204 
L 71.791152 16.897339 
L 72.3058 17.171308 
L 72.88478 17.419602 
L 73.335097 17.351844 
L 74.81471 16.806184 
L 75.329358 16.997826 
L 76.294323 17.392746 
L 76.74464 17.316967 
L 78.288584 16.806979 
L 78.931894 17.015465 
L 80.025521 17.37809 
L 80.733162 17.356179 
L 81.955452 17.035052 
L 83.177741 16.801191 
L 84.078375 16.849988 
L 85.493657 17.202714 
L 87.101932 17.56695 
L 88.195559 17.516277 
L 89.739503 16.834415 
L 90.254152 16.580523 
L 90.833131 16.519626 
L 91.219117 16.661963 
L 92.441406 17.405736 
L 93.020385 17.537991 
L 93.599364 17.466925 
L 95.529294 16.859053 
L 95.91528 16.893688 
L 97.523555 17.339324 
L 98.424189 17.260831 
L 99.775141 17.026297 
L 101.190423 16.47618 
L 101.769402 16.322589 
L 102.348381 16.529146 
L 103.892325 17.367827 
L 104.664297 17.583057 
L 105.693593 17.560836 
L 106.529896 17.316958 
L 108.588489 16.641794 
L 109.29613 16.698698 
L 110.068102 16.985263 
L 111.419053 17.546241 
L 111.933701 17.476893 
L 112.51268 17.137156 
L 113.348983 16.651287 
L 113.734969 16.677813 
L 114.185286 16.948957 
L 115.08592 17.540444 
L 115.471906 17.49626 
L 115.986554 17.146114 
L 116.694195 16.664303 
L 117.080182 16.650885 
L 117.466168 16.866524 
L 118.366802 17.485391 
L 118.752788 17.443146 
L 119.331767 17.130409 
L 119.846415 16.906875 
L 120.16807 16.960486 
L 120.875711 17.237416 
L 123.706275 16.884171 
L 124.349585 16.957835 
L 124.735571 17.196607 
L 125.185888 17.559884 
L 125.443212 17.468788 
L 125.957861 17.144382 
L 126.858495 17.079637 
L 127.82346 16.708535 
L 128.145115 16.855689 
L 128.595432 17.457947 
L 129.045749 17.884326 
L 129.303073 17.84818 
L 129.624728 17.468124 
L 130.203707 16.69737 
L 130.461031 16.706843 
L 130.975679 16.793875 
L 131.425996 16.593908 
L 131.811982 16.49586 
L 132.069306 16.675102 
L 132.96994 17.557329 
L 133.291595 17.470672 
L 133.870574 17.0015 
L 134.385222 16.605941 
L 134.706878 16.652577 
L 135.157195 16.960987 
L 135.800505 17.481681 
L 136.250822 17.338439 
L 137.473111 16.885869 
L 138.05209 17.030871 
L 139.017055 17.313251 
L 139.596034 17.19961 
L 140.753992 16.874523 
L 141.332971 17.004096 
L 142.426598 17.313718 
L 143.069908 17.220581 
L 144.678184 16.87371 
L 145.643149 16.989257 
L 147.766072 17.314208 
L 148.92403 17.205843 
L 152.333573 16.768643 
L 154.00618 16.827779 
L 154.520828 16.781208 
L 155.743117 17.044701 
L 157.029737 17.118712 
L 157.673047 17.188117 
L 158.316357 17.288391 
L 159.15266 17.37507 
L 159.79597 17.290429 
L 161.725901 16.770412 
L 163.784493 17.296637 
L 164.427803 17.558218 
L 164.87812 17.508694 
L 165.585761 17.402699 
L 166.422064 17.395485 
L 167.644353 16.955344 
L 169.123966 16.813914 
L 170.088931 16.952952 
L 172.404848 17.442619 
L 173.305482 17.294194 
L 175.557067 16.762698 
L 176.200377 16.978386 
L 177.358335 17.444154 
L 177.808652 17.357744 
L 179.352597 16.771953 
L 179.867245 17.023201 
L 180.703548 17.439735 
L 181.153865 17.383969 
L 182.569147 16.896665 
L 183.276788 17.211017 
L 183.855767 17.291836 
L 185.399711 17.330675 
L 185.721366 16.992356 
L 186.300345 16.341201 
L 186.557669 16.366957 
L 187.136648 16.807789 
L 188.165945 17.710444 
L 188.423269 17.635988 
L 188.744924 17.236531 
L 189.323903 16.481173 
L 189.645558 16.343397 
L 189.902882 16.497224 
L 190.288868 17.193112 
L 190.674854 17.800517 
L 190.932178 17.815392 
L 192.025805 17.143781 
L 192.604784 16.810954 
L 193.248094 16.892462 
L 193.827073 17.090703 
L 194.663376 17.415514 
L 195.306686 17.223728 
L 195.692672 16.989065 
L 196.271651 16.590693 
L 196.593306 16.623766 
L 196.979292 16.948389 
L 197.558272 17.38412 
L 197.879927 17.369517 
L 199.35954 16.730988 
L 199.681195 16.952048 
L 200.324505 17.420835 
L 200.710491 17.428608 
L 201.482463 17.152521 
L 202.383097 16.722193 
L 202.833414 16.798894 
L 203.541055 17.24354 
L 204.055703 17.459704 
L 204.50602 17.392716 
L 205.213661 16.953439 
L 205.79264 16.723992 
L 206.242958 16.803084 
L 207.979895 17.449665 
L 208.687536 17.211636 
L 209.974156 16.755582 
L 210.746128 16.741154 
L 211.711093 16.971936 
L 213.512361 17.468102 
L 214.284333 17.432324 
L 215.120637 17.176057 
L 216.278595 16.827449 
L 216.986236 16.946026 
L 218.787504 17.734535 
L 219.8168 17.415768 
L 221.425075 16.614556 
L 222.004054 16.623122 
L 222.518702 16.870455 
L 223.67666 17.513773 
L 224.25564 17.463827 
L 225.477929 17.280954 
L 226.056908 16.957366 
L 226.635887 16.725787 
L 227.922507 16.66613 
L 229.981099 17.436615 
L 231.589374 17.241633 
L 233.519305 16.607347 
L 234.355608 16.603061 
L 235.256242 16.86814 
L 236.349869 17.341386 
L 236.349869 17.341386 
" clip-path="url(#p20d6bd06eb)" style="fill: none; stroke: #d62728; stroke-width: 0.5; stroke-linecap: square"/>
   </g>
   <g id="patch_3">
    <path d="M 33.707196 202.559296 
L 33.707196 7.2 
" style="fill: none; stroke: #000000; stroke-width: 0.8; stroke-linejoin: miter; stroke-linecap: square"/>
   </g>
   <g id="patch_4">
    <path d="M 245.99952 202.559296 
L 245.99952 7.2 
" style="fill: none; stroke: #000000; stroke-width: 0.8; stroke-linejoin: miter; stroke-linecap: square"/>
   </g>
   <g id="patch_5">
    <path d="M 33.707196 202.559296 
L 245.99952 202.559296 
" style="fill: none; stroke: #000000; stroke-width: 0.8; stroke-linejoin: miter; stroke-linecap: square"/>
   </g>
   <g id="patch_6">
    <path d="M 33.707196 7.2 
L 245.99952 7.2 
" style="fill: none; stroke: #000000; stroke-width: 0.8; stroke-linejoin: miter; stroke-linecap: square"/>
   </g>
   <g id="legend_1">
    <g id="patch_7">
     <path d="M 40.007196 126.429212 
L 85.914112 126.429212 
Q 87.714112 126.429212 87.714112 124.629212 
L 87.714112 85.130084 
Q 87.714112 83.330084 85.914112 83.330084 
L 40.007196 83.330084 
Q 38.207196 83.330084 38.207196 85.130084 
L 38.207196 124.629212 
Q 38.207196 126.429212 40.007196 126.429212 
z
" style="fill: #ffffff; opacity: 0.8; stroke: #cccccc; stroke-width: 0.24; stroke-linejoin: miter"/>
    </g>
    <g id="line2d_18">
     <path d="M 41.807196 90.504866 
L 50.807196 90.504866 
L 59.807196 90.504866 
" style="fill: none; stroke: #ff7f0e; stroke-width: 0.5; stroke-linecap: square"/>
    </g>
    <g id="text_16">
     <!-- $\langle \sigma_z\rangle$ -->
     <g transform="translate(67.007196 93.654866) scale(0.09 -0.09)">
      <defs>
       <path id="CMSY10-68" d="M 2099 4557 
C 2131 4627 2131 4640 2131 4672 
C 2131 4742 2074 4800 2003 4800 
C 1946 4800 1901 4768 1856 4653 
L 736 1715 
C 723 1677 704 1638 704 1600 
C 704 1581 704 1568 736 1491 
L 1856 -1446 
C 1882 -1517 1914 -1600 2003 -1600 
C 2074 -1600 2131 -1542 2131 -1472 
C 2131 -1453 2131 -1440 2099 -1370 
L 966 1600 
L 2099 4557 
z
" transform="scale(0.015625)"/>
       <path id="CMMI12-1b" d="M 3251 2408 
C 3334 2408 3546 2408 3546 2612 
C 3546 2752 3424 2752 3309 2752 
L 1894 2752 
C 934 2752 243 1686 243 932 
C 243 390 595 -64 1171 -64 
C 1926 -64 2752 747 2752 1705 
C 2752 1954 2694 2196 2541 2408 
L 3251 2408 
z
M 1178 64 
C 851 64 614 313 614 754 
C 614 1137 845 2408 1786 2408 
C 2061 2408 2368 2274 2368 1781 
C 2368 1558 2266 1021 2042 652 
C 1811 275 1466 64 1178 64 
z
" transform="scale(0.015625)"/>
       <path id="CMMI12-7a" d="M 813 486 
C 1088 803 1312 1004 1632 1296 
C 2016 1632 2182 1793 2272 1891 
C 2720 2338 2944 2713 2944 2764 
C 2944 2816 2893 2816 2880 2816 
C 2835 2816 2822 2793 2790 2750 
C 2630 2494 2477 2367 2310 2367 
C 2176 2367 2106 2421 1984 2565 
C 1850 2715 1741 2816 1555 2816 
C 1088 2816 806 2257 806 2128 
C 806 2108 813 2068 870 2068 
C 922 2068 928 2091 947 2133 
C 1056 2372 1363 2414 1485 2414 
C 1619 2414 1747 2376 1882 2327 
C 2125 2240 2227 2240 2291 2240 
C 2336 2240 2362 2240 2394 2246 
C 2182 1994 1837 1683 1549 1418 
L 902 816 
C 512 415 275 33 275 -12 
C 275 -51 307 -64 346 -64 
C 384 -64 390 -57 435 14 
C 538 163 742 384 979 384 
C 1114 384 1178 342 1306 193 
C 1427 61 1536 -64 1741 -64 
C 2368 -64 2726 732 2726 876 
C 2726 903 2720 942 2656 942 
C 2605 942 2598 917 2579 855 
C 2438 488 2061 338 1811 338 
C 1677 338 1549 376 1414 425 
C 1158 512 1088 512 1005 512 
C 941 512 870 512 813 486 
z
" transform="scale(0.015625)"/>
       <path id="CMSY10-69" d="M 1747 1491 
C 1779 1568 1779 1581 1779 1600 
C 1779 1619 1779 1632 1747 1709 
L 627 4653 
C 589 4762 550 4800 480 4800 
C 410 4800 352 4742 352 4672 
C 352 4653 352 4640 384 4570 
L 1517 1600 
L 384 -1357 
C 352 -1427 352 -1440 352 -1472 
C 352 -1542 410 -1600 480 -1600 
C 563 -1600 589 -1536 614 -1472 
L 1747 1491 
z
" transform="scale(0.015625)"/>
      </defs>
      <use xlink:href="#CMSY10-68" transform="scale(0.996264)"/>
      <use xlink:href="#CMMI12-1b" transform="translate(38.743734 0) scale(0.996264)"/>
      <use xlink:href="#CMMI12-7a" transform="translate(94.189195 -14.943915) scale(0.697382)"/>
      <use xlink:href="#CMSY10-69" transform="translate(129.51575 0) scale(0.996264)"/>
     </g>
    </g>
    <g id="line2d_19">
     <path d="M 41.807196 103.971242 
L 50.807196 103.971242 
L 59.807196 103.971242 
" style="fill: none; stroke: #2ca02c; stroke-width: 0.5; stroke-linecap: square"/>
    </g>
    <g id="text_17">
     <!-- $\langle \sigma_x\rangle$ -->
     <g transform="translate(67.007196 107.121242) scale(0.09 -0.09)">
      <defs>
       <path id="CMMI12-78" d="M 3034 2606 
C 2829 2567 2752 2414 2752 2293 
C 2752 2139 2874 2088 2963 2088 
C 3155 2088 3290 2254 3290 2427 
C 3290 2695 2982 2816 2714 2816 
C 2323 2816 2106 2433 2048 2312 
C 1901 2816 1504 2816 1389 2816 
C 736 2816 390 1980 390 1839 
C 390 1814 416 1782 461 1782 
C 512 1782 525 1820 538 1846 
C 755 2555 1184 2689 1370 2689 
C 1658 2689 1715 2420 1715 2267 
C 1715 2127 1677 1980 1600 1673 
L 1382 798 
C 1286 415 1101 64 762 64 
C 730 64 570 64 435 147 
C 666 192 717 383 717 460 
C 717 588 621 664 499 664 
C 346 664 179 530 179 326 
C 179 57 480 -64 755 -64 
C 1062 -64 1280 179 1414 441 
C 1517 64 1837 -64 2074 -64 
C 2726 -64 3072 773 3072 913 
C 3072 945 3046 971 3008 971 
C 2950 971 2944 939 2925 888 
C 2752 326 2381 64 2093 64 
C 1869 64 1747 230 1747 492 
C 1747 632 1773 734 1875 1156 
L 2099 2024 
C 2195 2408 2413 2689 2707 2689 
C 2720 2689 2899 2689 3034 2606 
z
" transform="scale(0.015625)"/>
      </defs>
      <use xlink:href="#CMSY10-68" transform="scale(0.996264)"/>
      <use xlink:href="#CMMI12-1b" transform="translate(38.743734 0) scale(0.996264)"/>
      <use xlink:href="#CMMI12-78" transform="translate(94.189195 -14.943915) scale(0.697382)"/>
      <use xlink:href="#CMSY10-69" transform="translate(133.490986 0) scale(0.996264)"/>
     </g>
    </g>
    <g id="line2d_20">
     <path d="M 41.807196 117.437618 
L 50.807196 117.437618 
L 59.807196 117.437618 
" style="fill: none; stroke: #d62728; stroke-width: 0.5; stroke-linecap: square"/>
    </g>
    <g id="text_18">
     <!-- $\langle \sigma_y\rangle$ -->
     <g transform="translate(67.007196 120.587618) scale(0.09 -0.09)">
      <defs>
       <path id="CMMI12-79" d="M 1683 -700 
C 1510 -939 1261 -1152 947 -1152 
C 870 -1152 563 -1152 467 -889 
C 486 -895 518 -895 531 -895 
C 723 -895 851 -729 851 -582 
C 851 -435 730 -384 634 -384 
C 531 -384 307 -458 307 -759 
C 307 -1071 582 -1286 947 -1286 
C 1587 -1286 2234 -700 2413 6 
L 3040 2485 
C 3046 2517 3059 2556 3059 2594 
C 3059 2689 2982 2753 2886 2753 
C 2829 2753 2694 2727 2643 2535 
L 2170 658 
C 2138 543 2138 530 2086 460 
C 1958 281 1747 64 1440 64 
C 1082 64 1050 415 1050 588 
C 1050 952 1222 1443 1395 1903 
C 1466 2088 1504 2178 1504 2305 
C 1504 2574 1312 2816 998 2816 
C 410 2816 173 1890 173 1839 
C 173 1814 198 1782 243 1782 
C 301 1782 307 1807 333 1897 
C 486 2433 730 2689 979 2689 
C 1037 2689 1146 2689 1146 2478 
C 1146 2312 1075 2127 979 1884 
C 666 1047 666 837 666 683 
C 666 77 1101 -64 1421 -64 
C 1606 -64 1837 -6 2061 230 
L 2067 224 
C 1971 -147 1907 -392 1683 -700 
z
" transform="scale(0.015625)"/>
      </defs>
      <use xlink:href="#CMSY10-68" transform="scale(0.996264)"/>
      <use xlink:href="#CMMI12-1b" transform="translate(38.743734 0) scale(0.996264)"/>
      <use xlink:href="#CMMI12-79" transform="translate(94.189195 -14.943915) scale(0.697382)"/>
      <use xlink:href="#CMSY10-69" transform="translate(130.484301 0) scale(0.996264)"/>
     </g>
    </g>
   </g>
  </g>
 </g>
 <defs>
  <clipPath id="p20d6bd06eb">
   <rect x="33.707196" y="7.2" width="212.292324" height="195.359296"/>
  </clipPath>
 </defs>
</svg>
