<?xml version="1.0" encoding="utf-8" standalone="no"?>
<!DOCTYPE svg PUBLIC "-//W3C//DTD SVG 1.1//EN"
  "http://www.w3.org/Graphics/SVG/1.1/DTD/svg11.dtd">
<svg xmlns:xlink="http://www.w3.org/1999/xlink" width="253.19952pt" height="238.79952pt" viewBox="0 0 253.19952 238.79952" xmlns="http://www.w3.org/2000/svg" version="1.1">
 <metadata>
  <rdf:RDF xmlns:dc="http://purl.org/dc/elements/1.1/" xmlns:cc="http://creativecommons.org/ns#" xmlns:rdf="http://www.w3.org/1999/02/22-rdf-syntax-ns#">
   <cc:Work>
    <dc:type rdf:resource="http://purl.org/dc/dcmitype/StillImage"/>
    <dc:date>1980-01-01T00:00:00+00:00</dc:date>
    <dc:format>image/svg+xml</dc:format>
    <dc:creator>
     <cc:Agent>
      <dc:title>Matplotlib v3.6.2, https://matplotlib.org/</dc:title>
     </cc:Agent>
    </dc:creator>
   </cc:Work>
  </rdf:RDF>
 </metadata>
 <defs>
  <style type="text/css">*{stroke-linejoin: round; stroke-linecap: butt}</style>
 </defs>
 <g id="figure_1">
  <g id="patch_1">
   <path d="M 0 238.79952 
L 253.19952 238.79952 
L 253.19952 0 
L 0 0 
z
" style="fill: #ffffff"/>
  </g>
  <g id="axes_1">
   <g id="patch_2">
    <path d="M 33.707196 202.559296 
L 245.99952 202.559296 
L 245.99952 7.2 
L 33.707196 7.2 
z
" style="fill: #ffffff"/>
   </g>
   <g id="matplotlib.axis_1">
    <g id="xtick_1">
     <g id="line2d_1">
      <defs>
       <path id="m8f31d96333" d="M 0 0 
L 0 3.5 
" style="stroke: #000000; stroke-width: 0.8"/>
      </defs>
      <g>
       <use xlink:href="#m8f31d96333" x="43.356847" y="202.559296" style="stroke: #000000; stroke-width: 0.8"/>
      </g>
     </g>
     <g id="text_1">
      <!-- $\mathdefault{0}$ -->
      <g transform="translate(41.239756 217.194098) scale(0.08 -0.08)">
       <defs>
        <path id="CMR17-30" d="M 2688 2025 
C 2688 2416 2682 3080 2413 3591 
C 2176 4039 1798 4198 1466 4198 
C 1158 4198 768 4058 525 3597 
C 269 3118 243 2524 243 2025 
C 243 1661 250 1106 448 619 
C 723 -39 1216 -128 1466 -128 
C 1760 -128 2208 -7 2470 600 
C 2662 1042 2688 1559 2688 2025 
z
M 1466 -26 
C 1056 -26 813 325 723 812 
C 653 1188 653 1738 653 2096 
C 653 2588 653 2997 736 3387 
C 858 3929 1216 4096 1466 4096 
C 1728 4096 2067 3923 2189 3400 
C 2272 3036 2278 2607 2278 2096 
C 2278 1680 2278 1169 2202 792 
C 2067 95 1690 -26 1466 -26 
z
" transform="scale(0.015625)"/>
       </defs>
       <use xlink:href="#CMR17-30" transform="scale(0.996264)"/>
      </g>
     </g>
    </g>
    <g id="xtick_2">
     <g id="line2d_2">
      <g>
       <use xlink:href="#m8f31d96333" x="70.161434" y="202.559296" style="stroke: #000000; stroke-width: 0.8"/>
      </g>
     </g>
     <g id="text_2">
      <!-- $\mathdefault{25}$ -->
      <g transform="translate(65.927251 217.194098) scale(0.08 -0.08)">
       <defs>
        <path id="CMR17-32" d="M 2669 989 
L 2554 989 
C 2490 536 2438 459 2413 420 
C 2381 369 1920 369 1830 369 
L 602 369 
C 832 619 1280 1072 1824 1597 
C 2214 1967 2669 2402 2669 3035 
C 2669 3790 2067 4224 1395 4224 
C 691 4224 262 3604 262 3030 
C 262 2780 448 2748 525 2748 
C 589 2748 781 2787 781 3010 
C 781 3207 614 3264 525 3264 
C 486 3264 448 3258 422 3245 
C 544 3790 915 4058 1306 4058 
C 1862 4058 2227 3617 2227 3035 
C 2227 2479 1901 2000 1536 1584 
L 262 146 
L 262 0 
L 2515 0 
L 2669 989 
z
" transform="scale(0.015625)"/>
        <path id="CMR17-35" d="M 730 3692 
C 794 3666 1056 3584 1325 3584 
C 1920 3584 2246 3911 2432 4100 
C 2432 4157 2432 4192 2394 4192 
C 2387 4192 2374 4192 2323 4163 
C 2099 4058 1837 3973 1517 3973 
C 1325 3973 1037 3999 723 4139 
C 653 4171 640 4171 634 4171 
C 602 4171 595 4164 595 4037 
L 595 2203 
C 595 2089 595 2057 659 2057 
C 691 2057 704 2070 736 2114 
C 941 2401 1222 2522 1542 2522 
C 1766 2522 2246 2382 2246 1289 
C 2246 1085 2246 715 2054 421 
C 1894 159 1645 25 1370 25 
C 947 25 518 320 403 814 
C 429 807 480 795 506 795 
C 589 795 749 840 749 1038 
C 749 1210 627 1280 506 1280 
C 358 1280 262 1190 262 1011 
C 262 454 704 -128 1382 -128 
C 2042 -128 2669 440 2669 1264 
C 2669 2030 2170 2624 1549 2624 
C 1222 2624 947 2503 730 2274 
L 730 3692 
z
" transform="scale(0.015625)"/>
       </defs>
       <use xlink:href="#CMR17-32" transform="scale(0.996264)"/>
       <use xlink:href="#CMR17-35" transform="translate(45.690477 0) scale(0.996264)"/>
      </g>
     </g>
    </g>
    <g id="xtick_3">
     <g id="line2d_3">
      <g>
       <use xlink:href="#m8f31d96333" x="96.96602" y="202.559296" style="stroke: #000000; stroke-width: 0.8"/>
      </g>
     </g>
     <g id="text_3">
      <!-- $\mathdefault{50}$ -->
      <g transform="translate(92.731837 217.194098) scale(0.08 -0.08)">
       <use xlink:href="#CMR17-35" transform="scale(0.996264)"/>
       <use xlink:href="#CMR17-30" transform="translate(45.690477 0) scale(0.996264)"/>
      </g>
     </g>
    </g>
    <g id="xtick_4">
     <g id="line2d_4">
      <g>
       <use xlink:href="#m8f31d96333" x="123.770606" y="202.559296" style="stroke: #000000; stroke-width: 0.8"/>
      </g>
     </g>
     <g id="text_4">
      <!-- $\mathdefault{75}$ -->
      <g transform="translate(119.536423 217.194098) scale(0.08 -0.08)">
       <defs>
        <path id="CMR17-37" d="M 2886 3941 
L 2886 4081 
L 1382 4081 
C 634 4081 621 4165 595 4288 
L 480 4288 
L 294 3094 
L 410 3094 
C 429 3215 474 3540 550 3661 
C 589 3712 1062 3712 1171 3712 
L 2579 3712 
L 1869 2661 
C 1395 1954 1069 999 1069 165 
C 1069 89 1069 -128 1299 -128 
C 1530 -128 1530 89 1530 171 
L 1530 465 
C 1530 1508 1709 2196 2003 2636 
L 2886 3941 
z
" transform="scale(0.015625)"/>
       </defs>
       <use xlink:href="#CMR17-37" transform="scale(0.996264)"/>
       <use xlink:href="#CMR17-35" transform="translate(45.690477 0) scale(0.996264)"/>
      </g>
     </g>
    </g>
    <g id="xtick_5">
     <g id="line2d_5">
      <g>
       <use xlink:href="#m8f31d96333" x="150.575193" y="202.559296" style="stroke: #000000; stroke-width: 0.8"/>
      </g>
     </g>
     <g id="text_5">
      <!-- $\mathdefault{100}$ -->
      <g transform="translate(144.223918 217.194098) scale(0.08 -0.08)">
       <defs>
        <path id="CMR17-31" d="M 1702 4058 
C 1702 4192 1696 4192 1606 4192 
C 1357 3916 979 3827 621 3827 
C 602 3827 570 3827 563 3808 
C 557 3795 557 3782 557 3648 
C 755 3648 1088 3686 1344 3839 
L 1344 461 
C 1344 236 1331 160 781 160 
L 589 160 
L 589 0 
C 896 0 1216 0 1523 0 
C 1830 0 2150 0 2458 0 
L 2458 160 
L 2266 160 
C 1715 160 1702 230 1702 458 
L 1702 4058 
z
" transform="scale(0.015625)"/>
       </defs>
       <use xlink:href="#CMR17-31" transform="scale(0.996264)"/>
       <use xlink:href="#CMR17-30" transform="translate(45.690477 0) scale(0.996264)"/>
       <use xlink:href="#CMR17-30" transform="translate(91.380954 0) scale(0.996264)"/>
      </g>
     </g>
    </g>
    <g id="xtick_6">
     <g id="line2d_6">
      <g>
       <use xlink:href="#m8f31d96333" x="177.379779" y="202.559296" style="stroke: #000000; stroke-width: 0.8"/>
      </g>
     </g>
     <g id="text_6">
      <!-- $\mathdefault{125}$ -->
      <g transform="translate(171.028505 217.194098) scale(0.08 -0.08)">
       <use xlink:href="#CMR17-31" transform="scale(0.996264)"/>
       <use xlink:href="#CMR17-32" transform="translate(45.690477 0) scale(0.996264)"/>
       <use xlink:href="#CMR17-35" transform="translate(91.380954 0) scale(0.996264)"/>
      </g>
     </g>
    </g>
    <g id="xtick_7">
     <g id="line2d_7">
      <g>
       <use xlink:href="#m8f31d96333" x="204.184365" y="202.559296" style="stroke: #000000; stroke-width: 0.8"/>
      </g>
     </g>
     <g id="text_7">
      <!-- $\mathdefault{150}$ -->
      <g transform="translate(197.833091 217.194098) scale(0.08 -0.08)">
       <use xlink:href="#CMR17-31" transform="scale(0.996264)"/>
       <use xlink:href="#CMR17-35" transform="translate(45.690477 0) scale(0.996264)"/>
       <use xlink:href="#CMR17-30" transform="translate(91.380954 0) scale(0.996264)"/>
      </g>
     </g>
    </g>
    <g id="xtick_8">
     <g id="line2d_8">
      <g>
       <use xlink:href="#m8f31d96333" x="230.988952" y="202.559296" style="stroke: #000000; stroke-width: 0.8"/>
      </g>
     </g>
     <g id="text_8">
      <!-- $\mathdefault{175}$ -->
      <g transform="translate(224.637677 217.194098) scale(0.08 -0.08)">
       <use xlink:href="#CMR17-31" transform="scale(0.996264)"/>
       <use xlink:href="#CMR17-37" transform="translate(45.690477 0) scale(0.996264)"/>
       <use xlink:href="#CMR17-35" transform="translate(91.380954 0) scale(0.996264)"/>
      </g>
     </g>
    </g>
    <g id="text_9">
     <!-- $\tau$ -->
     <g transform="translate(137.675756 229.662342) scale(0.1 -0.1)">
      <defs>
       <path id="CMMI12-1c" d="M 1837 2408 
L 2899 2408 
C 2982 2408 3194 2408 3194 2612 
C 3194 2752 3072 2752 2957 2752 
L 1197 2752 
C 1050 2752 832 2752 538 2440 
C 371 2255 166 1917 166 1879 
C 166 1841 198 1828 237 1828 
C 282 1828 288 1847 320 1885 
C 653 2408 986 2408 1146 2408 
L 1677 2408 
L 1011 223 
C 979 127 979 114 979 95 
C 979 25 1024 -64 1152 -64 
C 1350 -64 1382 108 1402 203 
L 1837 2408 
z
" transform="scale(0.015625)"/>
      </defs>
      <use xlink:href="#CMMI12-1c" transform="scale(0.996264)"/>
     </g>
    </g>
   </g>
   <g id="matplotlib.axis_2">
    <g id="ytick_1">
     <g id="line2d_9">
      <defs>
       <path id="m2fb47fe953" d="M 0 0 
L -3.5 0 
" style="stroke: #000000; stroke-width: 0.8"/>
      </defs>
      <g>
       <use xlink:href="#m2fb47fe953" x="33.707196" y="193.679328" style="stroke: #000000; stroke-width: 0.8"/>
      </g>
     </g>
     <g id="text_10">
      <!-- $\mathdefault{−1.0}$ -->
      <g transform="translate(7.2 196.446729) scale(0.08 -0.08)">
       <defs>
        <path id="CMSY10-0" d="M 4218 1472 
C 4326 1472 4442 1472 4442 1600 
C 4442 1728 4326 1728 4218 1728 
L 755 1728 
C 646 1728 531 1728 531 1600 
C 531 1472 646 1472 755 1472 
L 4218 1472 
z
" transform="scale(0.015625)"/>
        <path id="CMMI12-3a" d="M 1178 307 
C 1178 492 1024 619 870 619 
C 685 619 557 466 557 313 
C 557 128 710 0 864 0 
C 1050 0 1178 153 1178 307 
z
" transform="scale(0.015625)"/>
       </defs>
       <use xlink:href="#CMSY10-0" transform="scale(0.996264)"/>
       <use xlink:href="#CMR17-31" transform="translate(77.487468 0) scale(0.996264)"/>
       <use xlink:href="#CMMI12-3a" transform="translate(123.177945 0) scale(0.996264)"/>
       <use xlink:href="#CMR17-30" transform="translate(150.275122 0) scale(0.996264)"/>
      </g>
     </g>
    </g>
    <g id="ytick_2">
     <g id="line2d_10">
      <g>
       <use xlink:href="#m2fb47fe953" x="33.707196" y="158.344339" style="stroke: #000000; stroke-width: 0.8"/>
      </g>
     </g>
     <g id="text_11">
      <!-- $\mathdefault{−0.8}$ -->
      <g transform="translate(7.2 161.11174) scale(0.08 -0.08)">
       <defs>
        <path id="CMR17-38" d="M 1741 2264 
C 2144 2467 2554 2773 2554 3263 
C 2554 3841 1990 4179 1472 4179 
C 890 4179 378 3759 378 3180 
C 378 3021 416 2747 666 2505 
C 730 2442 998 2251 1171 2130 
C 883 1983 211 1634 211 934 
C 211 279 838 -128 1459 -128 
C 2144 -128 2720 362 2720 1010 
C 2720 1590 2330 1857 2074 2029 
L 1741 2264 
z
M 902 2822 
C 851 2854 595 3051 595 3351 
C 595 3739 998 4032 1459 4032 
C 1965 4032 2336 3676 2336 3262 
C 2336 2669 1670 2331 1638 2331 
C 1632 2331 1626 2331 1574 2370 
L 902 2822 
z
M 2080 1519 
C 2176 1449 2483 1240 2483 851 
C 2483 381 2010 25 1472 25 
C 890 25 448 438 448 940 
C 448 1443 838 1862 1280 2060 
L 2080 1519 
z
" transform="scale(0.015625)"/>
       </defs>
       <use xlink:href="#CMSY10-0" transform="scale(0.996264)"/>
       <use xlink:href="#CMR17-30" transform="translate(77.487468 0) scale(0.996264)"/>
       <use xlink:href="#CMMI12-3a" transform="translate(123.177945 0) scale(0.996264)"/>
       <use xlink:href="#CMR17-38" transform="translate(150.275122 0) scale(0.996264)"/>
      </g>
     </g>
    </g>
    <g id="ytick_3">
     <g id="line2d_11">
      <g>
       <use xlink:href="#m2fb47fe953" x="33.707196" y="123.009351" style="stroke: #000000; stroke-width: 0.8"/>
      </g>
     </g>
     <g id="text_12">
      <!-- $\mathdefault{−0.6}$ -->
      <g transform="translate(7.2 125.776752) scale(0.08 -0.08)">
       <defs>
        <path id="CMR17-36" d="M 678 2176 
C 678 3690 1395 4032 1811 4032 
C 1946 4032 2272 4009 2400 3776 
C 2298 3776 2106 3776 2106 3553 
C 2106 3381 2246 3323 2336 3323 
C 2394 3323 2566 3348 2566 3560 
C 2566 3954 2246 4179 1805 4179 
C 1043 4179 243 3390 243 1984 
C 243 253 966 -128 1478 -128 
C 2099 -128 2688 427 2688 1283 
C 2688 2081 2170 2662 1517 2662 
C 1126 2662 838 2407 678 1960 
L 678 2176 
z
M 1478 25 
C 691 25 691 1200 691 1436 
C 691 1896 909 2560 1504 2560 
C 1613 2560 1926 2560 2138 2120 
C 2253 1870 2253 1609 2253 1289 
C 2253 944 2253 690 2118 434 
C 1978 171 1773 25 1478 25 
z
" transform="scale(0.015625)"/>
       </defs>
       <use xlink:href="#CMSY10-0" transform="scale(0.996264)"/>
       <use xlink:href="#CMR17-30" transform="translate(77.487468 0) scale(0.996264)"/>
       <use xlink:href="#CMMI12-3a" transform="translate(123.177945 0) scale(0.996264)"/>
       <use xlink:href="#CMR17-36" transform="translate(150.275122 0) scale(0.996264)"/>
      </g>
     </g>
    </g>
    <g id="ytick_4">
     <g id="line2d_12">
      <g>
       <use xlink:href="#m2fb47fe953" x="33.707196" y="87.674363" style="stroke: #000000; stroke-width: 0.8"/>
      </g>
     </g>
     <g id="text_13">
      <!-- $\mathdefault{−0.4}$ -->
      <g transform="translate(7.2 90.441763) scale(0.08 -0.08)">
       <defs>
        <path id="CMR17-34" d="M 2150 4122 
C 2150 4256 2144 4256 2029 4256 
L 128 1254 
L 128 1088 
L 1779 1088 
L 1779 457 
C 1779 224 1766 160 1318 160 
L 1197 160 
L 1197 0 
C 1402 0 1747 0 1965 0 
C 2182 0 2528 0 2733 0 
L 2733 160 
L 2611 160 
C 2163 160 2150 224 2150 457 
L 2150 1088 
L 2803 1088 
L 2803 1254 
L 2150 1254 
L 2150 4122 
z
M 1798 3703 
L 1798 1254 
L 256 1254 
L 1798 3703 
z
" transform="scale(0.015625)"/>
       </defs>
       <use xlink:href="#CMSY10-0" transform="scale(0.996264)"/>
       <use xlink:href="#CMR17-30" transform="translate(77.487468 0) scale(0.996264)"/>
       <use xlink:href="#CMMI12-3a" transform="translate(123.177945 0) scale(0.996264)"/>
       <use xlink:href="#CMR17-34" transform="translate(150.275122 0) scale(0.996264)"/>
      </g>
     </g>
    </g>
    <g id="ytick_5">
     <g id="line2d_13">
      <g>
       <use xlink:href="#m2fb47fe953" x="33.707196" y="52.339374" style="stroke: #000000; stroke-width: 0.8"/>
      </g>
     </g>
     <g id="text_14">
      <!-- $\mathdefault{−0.2}$ -->
      <g transform="translate(7.2 55.106775) scale(0.08 -0.08)">
       <use xlink:href="#CMSY10-0" transform="scale(0.996264)"/>
       <use xlink:href="#CMR17-30" transform="translate(77.487468 0) scale(0.996264)"/>
       <use xlink:href="#CMMI12-3a" transform="translate(123.177945 0) scale(0.996264)"/>
       <use xlink:href="#CMR17-32" transform="translate(150.275122 0) scale(0.996264)"/>
      </g>
     </g>
    </g>
    <g id="ytick_6">
     <g id="line2d_14">
      <g>
       <use xlink:href="#m2fb47fe953" x="33.707196" y="17.004386" style="stroke: #000000; stroke-width: 0.8"/>
      </g>
     </g>
     <g id="text_15">
      <!-- $\mathdefault{0.0}$ -->
      <g transform="translate(13.786507 19.771787) scale(0.08 -0.08)">
       <use xlink:href="#CMR17-30" transform="scale(0.996264)"/>
       <use xlink:href="#CMMI12-3a" transform="translate(45.690477 0) scale(0.996264)"/>
       <use xlink:href="#CMR17-30" transform="translate(72.787654 0) scale(0.996264)"/>
      </g>
     </g>
    </g>
   </g>
   <g id="line2d_15">
    <path d="M 43.356847 193.679328 
L 52.363188 193.589223 
L 52.620512 193.350936 
L 52.877836 192.738103 
L 53.13516 191.427064 
L 53.456815 188.181534 
L 53.842801 181.016596 
L 54.42178 164.388042 
L 55.065091 147.367141 
L 56.93069 110.997515 
L 57.702662 101.914476 
L 58.281641 97.295101 
L 58.989282 93.554388 
L 59.889916 89.423203 
L 60.854881 85.304659 
L 62.527487 79.833047 
L 63.428121 77.671181 
L 63.94277 76.309272 
L 64.843404 74.686024 
L 65.358052 73.06254 
L 65.808369 72.45457 
L 66.323017 71.640027 
L 66.837665 70.61579 
L 67.15932 70.635843 
L 67.352313 70.532551 
L 67.673968 69.963141 
L 68.574602 68.064895 
L 68.767595 68.108325 
L 69.475236 68.738648 
L 69.796891 69.315875 
L 70.247208 70.856062 
L 70.826187 73.653193 
L 71.469497 77.869672 
L 73.52809 92.719429 
L 73.978407 94.081847 
L 74.364393 94.573922 
L 74.750379 94.719712 
L 75.844006 94.739484 
L 85.300664 94.643642 
L 85.750981 94.374307 
L 86.136967 93.872282 
L 86.587284 92.837724 
L 87.101932 91.018906 
L 88.388552 86.056295 
L 88.645876 85.746859 
L 88.838869 85.761439 
L 89.096193 86.10323 
L 89.417848 86.990669 
L 89.932496 89.176521 
L 90.897462 94.472002 
L 92.634399 104.163424 
L 93.535033 107.824453 
L 94.757322 111.750812 
L 96.043942 115.209294 
L 96.944576 117.170154 
L 97.652217 118.167196 
L 100.804437 122.165253 
L 101.383416 123.150916 
L 101.833733 124.389628 
L 102.348381 126.515375 
L 102.991691 130.2816 
L 103.956656 137.602158 
L 104.985952 144.957713 
L 105.564931 147.58731 
L 106.015248 148.725834 
L 106.401234 149.201853 
L 106.851551 149.401398 
L 107.687854 149.437818 
L 116.758526 149.341344 
L 117.015851 149.113073 
L 117.273175 148.555913 
L 117.530499 147.406402 
L 117.852154 144.662211 
L 118.23814 138.887976 
L 120.16807 104.313328 
L 120.940042 92.547832 
L 121.647683 85.717631 
L 122.676979 79.343995 
L 123.38462 77.091882 
L 123.963599 75.619163 
L 124.799902 73.246728 
L 125.185888 72.759386 
L 125.700536 72.087778 
L 127.244481 69.155903 
L 128.338108 68.174362 
L 129.11008 66.730655 
L 129.431735 66.242486 
L 130.139376 65.803897 
L 130.589693 65.466806 
L 131.361665 64.606462 
L 131.811982 64.42662 
L 132.648285 63.374054 
L 132.905609 63.355504 
L 133.61325 63.832308 
L 133.870574 64.343891 
L 134.25656 65.738843 
L 135.543181 71.723294 
L 136.379484 78.240217 
L 137.473111 86.376127 
L 137.987759 88.736816 
L 138.373745 89.661602 
L 138.759731 90.05059 
L 139.210048 90.160586 
L 141.590295 90.167674 
L 149.631671 90.06228 
L 150.081988 89.812491 
L 150.532305 89.272909 
L 150.982622 88.348277 
L 151.561601 86.581986 
L 152.590898 83.327679 
L 152.912553 82.977804 
L 153.105546 83.022521 
L 153.36287 83.390888 
L 153.684525 84.326602 
L 154.199173 86.711273 
L 155.164138 92.587331 
L 156.515089 100.54361 
L 157.415723 104.526704 
L 159.988963 114.008469 
L 160.696604 115.694574 
L 161.468577 116.916186 
L 162.497873 118.541129 
L 163.977486 121.113911 
L 165.135444 122.497759 
L 165.714423 123.249231 
L 166.100409 124.131429 
L 166.550726 125.820147 
L 167.065374 128.681306 
L 167.901677 134.825357 
L 169.316959 145.179155 
L 169.895938 147.76981 
L 170.346256 148.894421 
L 170.732242 149.36749 
L 171.182559 149.566981 
L 172.018862 149.603607 
L 181.089534 149.502108 
L 181.346858 149.252823 
L 181.604182 148.656056 
L 181.861506 147.454726 
L 182.183161 144.648744 
L 182.569147 138.818759 
L 184.434746 105.216217 
L 185.33538 91.586539 
L 185.850028 86.710112 
L 186.686331 81.155497 
L 187.329641 78.193955 
L 187.715627 77.180303 
L 188.037282 76.725293 
L 188.358938 75.487353 
L 188.680593 74.540078 
L 190.481861 71.72254 
L 190.803516 71.360154 
L 191.06084 70.697493 
L 191.639819 68.942529 
L 191.897143 68.853412 
L 192.154467 68.751367 
L 192.411791 68.307199 
L 192.862108 67.564539 
L 193.312425 67.220351 
L 193.891404 66.374423 
L 194.27739 66.616965 
L 194.470383 66.321322 
L 195.049362 65.347804 
L 195.306686 65.261493 
L 195.56401 65.177877 
L 195.949996 64.989413 
L 196.271651 64.913798 
L 196.85063 64.591383 
L 197.107955 64.462987 
L 197.42961 64.208954 
L 197.622603 64.378458 
L 198.651899 66.258164 
L 199.423871 69.675906 
L 200.00285 73.192962 
L 202.190104 88.761258 
L 202.640421 90.103196 
L 203.026407 90.583013 
L 203.412393 90.720424 
L 204.570351 90.739284 
L 214.09134 90.630648 
L 214.541657 90.329632 
L 214.927644 89.783042 
L 215.377961 88.684702 
L 215.95694 86.569396 
L 216.793243 83.541365 
L 217.114898 83.082618 
L 217.307891 83.090932 
L 217.565215 83.420807 
L 217.88687 84.27169 
L 218.401518 86.407424 
L 219.366483 91.760548 
L 221.553737 103.727479 
L 222.39004 107.182781 
L 223.933985 112.198704 
L 225.156274 115.628704 
L 225.992577 117.238455 
L 226.957542 118.669631 
L 228.179831 120.324091 
L 229.209127 121.787598 
L 230.04543 122.885922 
L 230.495747 123.992817 
L 230.946064 125.783876 
L 231.525043 129.190576 
L 232.425677 136.125756 
L 233.519305 144.239591 
L 234.098284 147.101259 
L 234.548601 148.434064 
L 234.998918 149.106526 
L 235.449235 149.348803 
L 236.156876 149.399601 
L 236.349869 149.39967 
L 236.349869 149.39967 
" clip-path="url(#p89ac1ef2bf)" style="fill: none; stroke: #ff7f0e; stroke-width: 0.5; stroke-linecap: square"/>
   </g>
   <g id="line2d_16">
    <path d="M 43.356847 17.004386 
L 53.907132 17.114681 
L 54.872098 17.389129 
L 55.451077 17.51125 
L 56.866359 17.504715 
L 57.381007 17.730568 
L 58.603296 17.677644 
L 59.182275 17.40871 
L 59.889916 17.513471 
L 60.340233 17.192289 
L 60.79055 16.873779 
L 61.047874 16.934316 
L 61.948508 17.435234 
L 62.270163 17.181749 
L 63.106466 16.424182 
L 63.428121 16.554246 
L 64.071432 17.126707 
L 64.393087 17.334212 
L 64.650411 17.246105 
L 65.22939 16.903493 
L 65.551045 17.044818 
L 66.001362 17.241264 
L 66.451679 17.124705 
L 67.223651 16.757313 
L 67.673968 17.092174 
L 68.059954 17.247345 
L 68.44594 17.149396 
L 69.024919 16.788731 
L 69.475236 16.581473 
L 70.247208 16.524079 
L 70.568863 16.810775 
L 71.340835 17.763245 
L 71.66249 17.763831 
L 72.112807 17.447074 
L 72.88478 16.92994 
L 73.399428 16.895182 
L 74.235731 17.147136 
L 74.879041 17.216237 
L 75.522351 17.02284 
L 76.358654 16.784783 
L 76.937633 16.87954 
L 78.224253 17.224416 
L 78.931894 17.086693 
L 80.218514 16.788517 
L 81.119148 16.852289 
L 83.821051 17.217683 
L 85.172002 17.034661 
L 87.166263 16.797076 
L 89.54651 16.623792 
L 91.862427 16.842974 
L 93.792357 17.243163 
L 94.499998 16.978322 
L 95.657956 16.473347 
L 96.236935 16.496822 
L 96.751583 16.775507 
L 97.973872 17.598201 
L 98.617182 17.695274 
L 99.131831 17.526086 
L 100.99743 16.584204 
L 101.769402 16.676035 
L 102.605705 16.987307 
L 103.313346 17.192634 
L 103.956656 17.138297 
L 106.594227 16.570288 
L 107.43053 16.807802 
L 109.360461 17.459541 
L 110.068102 17.396575 
L 110.775743 17.092385 
L 111.933701 16.550288 
L 112.384018 16.59824 
L 112.898666 16.898424 
L 113.7993 17.455127 
L 114.185286 17.415475 
L 114.635603 17.124247 
L 115.471906 16.559108 
L 115.857892 16.587035 
L 116.308209 16.876183 
L 117.144513 17.463784 
L 117.530499 17.457585 
L 117.980816 17.181832 
L 118.88145 16.521724 
L 119.267436 16.582712 
L 120.875711 17.286606 
L 121.45469 17.219869 
L 122.098 16.775413 
L 122.483986 16.917575 
L 122.934303 17.029077 
L 124.02793 17.096221 
L 124.478247 17.393135 
L 124.799902 17.283616 
L 125.250219 16.806558 
L 125.829199 16.212753 
L 126.215185 16.079968 
L 126.472509 16.240289 
L 127.308812 17.111343 
L 127.630467 17.074244 
L 128.016453 16.772046 
L 128.659763 16.201769 
L 128.981418 16.308673 
L 130.3967 17.138956 
L 130.911348 16.833203 
L 131.940644 16.217656 
L 132.519623 16.477101 
L 132.96994 16.670985 
L 133.227264 16.523888 
L 133.677581 16.258197 
L 133.934905 16.382048 
L 134.642546 16.861023 
L 135.028533 16.826783 
L 135.993498 16.505092 
L 136.508146 16.763056 
L 137.087125 17.018959 
L 137.537442 16.984761 
L 138.759731 16.741714 
L 139.33871 16.969449 
L 140.175013 17.280511 
L 140.689661 17.194309 
L 142.104943 16.733165 
L 142.748253 16.931414 
L 143.77755 17.271245 
L 144.485191 17.22944 
L 147.251424 16.741472 
L 148.345051 16.945618 
L 150.081988 17.282139 
L 151.046953 17.224683 
L 151.947587 16.979139 
L 152.848222 16.426786 
L 153.427201 16.172108 
L 153.877518 16.231193 
L 154.585159 16.646915 
L 155.614455 17.200149 
L 156.257765 17.314136 
L 156.965406 17.187785 
L 158.059033 16.98066 
L 161.08259 17.115058 
L 162.626535 16.92563 
L 163.527169 17.012753 
L 165.392768 17.363842 
L 166.100409 17.133784 
L 167.708684 16.478263 
L 168.416325 16.501628 
L 169.316959 16.795417 
L 171.375552 17.61407 
L 172.018862 17.528611 
L 172.790834 17.19048 
L 174.399109 16.415932 
L 174.913757 16.423153 
L 175.428405 16.650677 
L 177.03668 17.604898 
L 177.422666 17.414482 
L 178.773617 16.397582 
L 179.095272 16.543253 
L 179.674252 17.140248 
L 180.1889 17.570263 
L 180.510555 17.600678 
L 180.896541 17.365056 
L 181.990168 16.408425 
L 182.311823 16.49128 
L 182.76214 16.928248 
L 183.40545 17.550558 
L 183.791436 17.616404 
L 184.241753 17.426884 
L 184.885063 17.1702 
L 185.271049 17.288732 
L 185.657035 17.352092 
L 186.043021 17.079404 
L 186.493338 16.845865 
L 187.007986 16.865502 
L 187.329641 17.120262 
L 187.779958 17.45155 
L 188.616262 17.653847 
L 189.066579 17.490319 
L 189.516896 17.001066 
L 189.902882 16.640552 
L 190.160206 16.690038 
L 190.932178 17.211559 
L 191.189502 16.947232 
L 191.70415 16.411164 
L 192.025805 16.392589 
L 192.476122 16.70595 
L 193.183763 17.111417 
L 193.698411 17.157818 
L 194.470383 17.176218 
L 195.113693 17.526379 
L 195.757003 17.666408 
L 196.20732 17.765405 
L 196.593306 17.617333 
L 197.365279 17.070744 
L 198.137251 17.64043 
L 199.166547 17.153207 
L 199.552533 16.896519 
L 200.195843 16.674078 
L 200.967815 16.086177 
L 201.28947 16.178912 
L 201.675456 16.581217 
L 202.640421 17.748081 
L 202.897745 17.752018 
L 203.2194 17.513622 
L 204.441689 16.222981 
L 204.763344 16.357249 
L 205.213661 16.895251 
L 205.921302 17.717659 
L 206.242958 17.777092 
L 206.564613 17.599407 
L 207.143592 16.933859 
L 207.786902 16.317765 
L 208.172888 16.223871 
L 208.623205 16.37861 
L 209.330846 16.940616 
L 210.23148 17.602351 
L 210.810459 17.77865 
L 211.389438 17.720915 
L 212.032748 17.419517 
L 214.027009 16.276602 
L 214.541657 16.305362 
L 215.120637 16.565479 
L 216.214264 17.393497 
L 216.986236 17.85405 
L 217.436553 17.895869 
L 217.88687 17.726702 
L 218.465849 17.238384 
L 219.302152 16.544166 
L 219.945462 16.332927 
L 220.588772 16.335863 
L 221.296413 16.601774 
L 222.776026 17.186923 
L 223.67666 17.194025 
L 224.89895 17.012523 
L 226.056908 16.749608 
L 226.764549 16.933848 
L 227.922507 17.264634 
L 228.501486 17.121821 
L 229.788106 16.729383 
L 230.753071 16.713794 
L 236.349869 17.083986 
L 236.349869 17.083986 
" clip-path="url(#p89ac1ef2bf)" style="fill: none; stroke: #2ca02c; stroke-width: 0.5; stroke-linecap: square"/>
   </g>
   <g id="line2d_17">
    <path d="M 43.356847 17.004386 
L 53.907132 16.899292 
L 54.936429 16.776506 
L 55.386746 16.99548 
L 55.837063 17.189945 
L 56.223049 17.111771 
L 57.123683 16.784098 
L 57.509669 16.957685 
L 58.21731 16.912323 
L 58.86062 17.306785 
L 59.117944 17.004269 
L 59.375268 16.794428 
L 59.632592 17.000402 
L 60.082909 17.287466 
L 60.404564 17.397559 
L 60.661888 17.156847 
L 61.240867 16.490826 
L 61.43386 16.496466 
L 61.691184 16.774409 
L 62.334494 17.547331 
L 62.656149 17.583724 
L 62.913473 17.286866 
L 63.36379 16.645237 
L 64.135763 16.529092 
L 64.393087 16.920757 
L 64.779073 17.580583 
L 64.972066 17.464819 
L 65.615376 16.70432 
L 65.8727 16.929637 
L 66.51601 17.46625 
L 66.773334 17.467214 
L 67.030658 17.13307 
L 67.480975 16.469918 
L 67.673968 16.517448 
L 68.059954 16.943828 
L 68.510271 17.314153 
L 69.024919 17.494203 
L 69.603898 17.129237 
L 69.925553 17.152081 
L 70.182877 16.888529 
L 70.761856 16.109547 
L 70.954849 16.196431 
L 71.340835 16.711109 
L 71.855483 17.358572 
L 72.177138 17.466106 
L 72.563125 17.346647 
L 73.785414 16.810092 
L 74.364393 16.875299 
L 75.779675 17.207924 
L 76.487316 16.973226 
L 77.259288 16.783796 
L 77.838267 16.884455 
L 79.189218 17.225018 
L 79.96119 17.115525 
L 81.762459 16.785028 
L 82.856086 16.872725 
L 85.557988 17.21763 
L 88.710207 16.923037 
L 89.739503 16.740886 
L 90.382814 16.900476 
L 91.219117 17.097851 
L 92.119751 16.97782 
L 92.69873 17.008008 
L 93.406371 17.307732 
L 94.114012 17.563097 
L 94.62866 17.525246 
L 95.27197 17.22531 
L 97.2019 16.108589 
L 97.716548 16.248415 
L 98.424189 16.703261 
L 99.646479 17.56442 
L 100.161127 17.615951 
L 100.675775 17.449796 
L 102.348381 16.683742 
L 102.92736 16.806686 
L 104.728628 17.340233 
L 105.436269 17.270246 
L 106.465565 16.896279 
L 107.559192 16.565114 
L 108.331165 16.578644 
L 109.167468 16.836826 
L 110.904405 17.466752 
L 111.419053 17.37436 
L 112.062363 17.003912 
L 112.834335 16.5681 
L 113.220321 16.565011 
L 113.670638 16.79973 
L 114.699934 17.462289 
L 115.08592 17.392249 
L 115.600568 17.020317 
L 116.308209 16.555562 
L 116.694195 16.572137 
L 117.144513 16.841418 
L 118.045147 17.420483 
L 118.431133 17.374233 
L 118.88145 17.030126 
L 119.460429 16.592809 
L 119.846415 16.623393 
L 120.361063 16.847237 
L 120.747049 17.088194 
L 121.197366 17.039674 
L 121.647683 17.621923 
L 121.840676 17.453549 
L 122.419655 16.764059 
L 122.676979 16.835498 
L 123.062965 16.968976 
L 123.448951 17.119438 
L 123.641944 17.089514 
L 124.156592 16.656524 
L 124.542578 17.219599 
L 124.928564 17.624145 
L 125.31455 17.710326 
L 125.571874 17.560729 
L 126.215185 16.875991 
L 126.601171 16.227599 
L 126.794164 16.311964 
L 128.145115 17.808005 
L 128.338108 17.668518 
L 129.238742 16.370996 
L 129.496066 16.40216 
L 130.268038 16.891134 
L 130.654024 17.216484 
L 131.361665 17.227694 
L 131.68332 16.89157 
L 132.069306 16.537378 
L 132.519623 16.550719 
L 132.776947 16.738935 
L 133.355926 17.378994 
L 133.61325 17.110885 
L 134.063567 16.581681 
L 134.320891 16.645308 
L 135.47885 17.247357 
L 135.929167 16.84222 
L 136.315153 16.61066 
L 136.636808 16.638266 
L 137.40878 17.068349 
L 137.923428 17.182339 
L 138.438076 17.041733 
L 139.403041 16.725334 
L 139.917689 16.843184 
L 141.139978 17.282194 
L 141.654626 17.151939 
L 142.876915 16.726153 
L 143.520225 16.834242 
L 145.192832 17.281129 
L 146.093466 17.196517 
L 148.859699 16.74197 
L 149.824664 16.935504 
L 152.526567 17.607193 
L 153.041215 17.488833 
L 153.684525 17.054689 
L 154.392166 16.675592 
L 155.035476 16.574181 
L 155.614455 16.721914 
L 157.415723 17.402882 
L 158.059033 17.156606 
L 158.638012 17.017055 
L 161.66157 17.199888 
L 162.562204 17.327007 
L 163.334176 17.200155 
L 164.749458 16.923504 
L 165.392768 17.092221 
L 166.422064 17.374572 
L 167.065374 17.294628 
L 168.030339 16.935357 
L 169.252628 16.439853 
L 169.960269 16.401055 
L 170.667911 16.601601 
L 171.954531 17.286459 
L 172.790834 17.58647 
L 173.434144 17.58727 
L 174.077454 17.358136 
L 175.10675 16.686383 
L 175.75006 16.404073 
L 176.200377 16.454534 
L 176.650694 16.747241 
L 177.744321 17.605972 
L 178.065976 17.568227 
L 178.451962 17.283186 
L 179.416928 16.413156 
L 179.738583 16.429121 
L 180.124569 16.707996 
L 181.153865 17.62008 
L 181.47552 17.57303 
L 181.861506 17.247792 
L 182.697809 16.416971 
L 183.019464 16.448129 
L 183.40545 16.755606 
L 184.177422 17.439237 
L 184.499077 17.397596 
L 185.078056 17.017081 
L 185.33538 16.964788 
L 185.592704 17.247525 
L 185.914359 17.559736 
L 186.171683 17.436412 
L 186.750662 17.109984 
L 186.943655 16.976002 
L 187.393972 16.446004 
L 188.230276 16.923853 
L 188.551931 17.200748 
L 189.002248 17.236554 
L 189.516896 17.580351 
L 189.709889 17.433579 
L 190.031544 16.785074 
L 190.353199 16.334696 
L 190.546192 16.387209 
L 190.803516 16.826687 
L 191.189502 17.475002 
L 191.382495 17.365637 
L 192.154467 16.662531 
L 192.34746 16.627043 
L 193.441087 17.102884 
L 193.955735 17.146892 
L 194.213059 16.929112 
L 194.599045 16.59666 
L 194.9207 16.694752 
L 195.242355 16.78015 
L 195.757003 16.69955 
L 196.014327 16.953648 
L 196.464644 17.385176 
L 196.85063 17.581947 
L 197.043624 17.330301 
L 197.622603 16.190875 
L 197.815596 16.4202 
L 198.201582 17.038551 
L 198.458906 16.99886 
L 198.651899 17.028462 
L 199.230878 17.455321 
L 199.938519 17.124769 
L 200.517498 17.4533 
L 200.839153 17.211569 
L 201.868449 16.191785 
L 202.125773 16.242663 
L 202.447428 16.541674 
L 203.476724 17.763088 
L 203.798379 17.733826 
L 204.120034 17.448505 
L 205.213661 16.230631 
L 205.535316 16.301158 
L 205.921302 16.685251 
L 206.821937 17.713659 
L 207.143592 17.782609 
L 207.529578 17.606658 
L 208.172888 16.966944 
L 208.880529 16.363446 
L 209.395177 16.223008 
L 209.909825 16.335796 
L 210.617466 16.758169 
L 212.097079 17.690105 
L 212.676058 17.784745 
L 213.255037 17.654581 
L 213.962678 17.249833 
L 215.442292 16.341147 
L 215.95694 16.341706 
L 216.535919 16.583033 
L 217.822539 17.44929 
L 218.53018 17.83637 
L 218.916166 17.802507 
L 219.366483 17.515444 
L 220.974758 16.203811 
L 221.489406 16.234139 
L 222.004054 16.507819 
L 223.355005 17.420134 
L 223.998316 17.519282 
L 225.156274 17.380196 
L 225.992577 17.220623 
L 227.150535 16.882444 
L 227.665183 16.995558 
L 228.694479 17.31152 
L 229.209127 17.183631 
L 230.753071 16.590132 
L 231.396381 16.676047 
L 232.811664 16.899637 
L 234.291277 16.924449 
L 236.349869 16.893365 
L 236.349869 16.893365 
" clip-path="url(#p89ac1ef2bf)" style="fill: none; stroke: #d62728; stroke-width: 0.5; stroke-linecap: square"/>
   </g>
   <g id="patch_3">
    <path d="M 33.707196 202.559296 
L 33.707196 7.2 
" style="fill: none; stroke: #000000; stroke-width: 0.8; stroke-linejoin: miter; stroke-linecap: square"/>
   </g>
   <g id="patch_4">
    <path d="M 245.99952 202.559296 
L 245.99952 7.2 
" style="fill: none; stroke: #000000; stroke-width: 0.8; stroke-linejoin: miter; stroke-linecap: square"/>
   </g>
   <g id="patch_5">
    <path d="M 33.707196 202.559296 
L 245.99952 202.559296 
" style="fill: none; stroke: #000000; stroke-width: 0.8; stroke-linejoin: miter; stroke-linecap: square"/>
   </g>
   <g id="patch_6">
    <path d="M 33.707196 7.2 
L 245.99952 7.2 
" style="fill: none; stroke: #000000; stroke-width: 0.8; stroke-linejoin: miter; stroke-linecap: square"/>
   </g>
   <g id="legend_1">
    <g id="patch_7">
     <path d="M 193.792605 198.059296 
L 239.69952 198.059296 
Q 241.49952 198.059296 241.49952 196.259296 
L 241.49952 156.760168 
Q 241.49952 154.960168 239.69952 154.960168 
L 193.792605 154.960168 
Q 191.992605 154.960168 191.992605 156.760168 
L 191.992605 196.259296 
Q 191.992605 198.059296 193.792605 198.059296 
z
" style="fill: #ffffff; opacity: 0.8; stroke: #cccccc; stroke-width: 0.24; stroke-linejoin: miter"/>
    </g>
    <g id="line2d_18">
     <path d="M 195.592605 162.13495 
L 204.592605 162.13495 
L 213.592605 162.13495 
" style="fill: none; stroke: #ff7f0e; stroke-width: 0.5; stroke-linecap: square"/>
    </g>
    <g id="text_16">
     <!-- $\langle \sigma_z\rangle$ -->
     <g transform="translate(220.792605 165.28495) scale(0.09 -0.09)">
      <defs>
       <path id="CMSY10-68" d="M 2099 4557 
C 2131 4627 2131 4640 2131 4672 
C 2131 4742 2074 4800 2003 4800 
C 1946 4800 1901 4768 1856 4653 
L 736 1715 
C 723 1677 704 1638 704 1600 
C 704 1581 704 1568 736 1491 
L 1856 -1446 
C 1882 -1517 1914 -1600 2003 -1600 
C 2074 -1600 2131 -1542 2131 -1472 
C 2131 -1453 2131 -1440 2099 -1370 
L 966 1600 
L 2099 4557 
z
" transform="scale(0.015625)"/>
       <path id="CMMI12-1b" d="M 3251 2408 
C 3334 2408 3546 2408 3546 2612 
C 3546 2752 3424 2752 3309 2752 
L 1894 2752 
C 934 2752 243 1686 243 932 
C 243 390 595 -64 1171 -64 
C 1926 -64 2752 747 2752 1705 
C 2752 1954 2694 2196 2541 2408 
L 3251 2408 
z
M 1178 64 
C 851 64 614 313 614 754 
C 614 1137 845 2408 1786 2408 
C 2061 2408 2368 2274 2368 1781 
C 2368 1558 2266 1021 2042 652 
C 1811 275 1466 64 1178 64 
z
" transform="scale(0.015625)"/>
       <path id="CMMI12-7a" d="M 813 486 
C 1088 803 1312 1004 1632 1296 
C 2016 1632 2182 1793 2272 1891 
C 2720 2338 2944 2713 2944 2764 
C 2944 2816 2893 2816 2880 2816 
C 2835 2816 2822 2793 2790 2750 
C 2630 2494 2477 2367 2310 2367 
C 2176 2367 2106 2421 1984 2565 
C 1850 2715 1741 2816 1555 2816 
C 1088 2816 806 2257 806 2128 
C 806 2108 813 2068 870 2068 
C 922 2068 928 2091 947 2133 
C 1056 2372 1363 2414 1485 2414 
C 1619 2414 1747 2376 1882 2327 
C 2125 2240 2227 2240 2291 2240 
C 2336 2240 2362 2240 2394 2246 
C 2182 1994 1837 1683 1549 1418 
L 902 816 
C 512 415 275 33 275 -12 
C 275 -51 307 -64 346 -64 
C 384 -64 390 -57 435 14 
C 538 163 742 384 979 384 
C 1114 384 1178 342 1306 193 
C 1427 61 1536 -64 1741 -64 
C 2368 -64 2726 732 2726 876 
C 2726 903 2720 942 2656 942 
C 2605 942 2598 917 2579 855 
C 2438 488 2061 338 1811 338 
C 1677 338 1549 376 1414 425 
C 1158 512 1088 512 1005 512 
C 941 512 870 512 813 486 
z
" transform="scale(0.015625)"/>
       <path id="CMSY10-69" d="M 1747 1491 
C 1779 1568 1779 1581 1779 1600 
C 1779 1619 1779 1632 1747 1709 
L 627 4653 
C 589 4762 550 4800 480 4800 
C 410 4800 352 4742 352 4672 
C 352 4653 352 4640 384 4570 
L 1517 1600 
L 384 -1357 
C 352 -1427 352 -1440 352 -1472 
C 352 -1542 410 -1600 480 -1600 
C 563 -1600 589 -1536 614 -1472 
L 1747 1491 
z
" transform="scale(0.015625)"/>
      </defs>
      <use xlink:href="#CMSY10-68" transform="scale(0.996264)"/>
      <use xlink:href="#CMMI12-1b" transform="translate(38.743734 0) scale(0.996264)"/>
      <use xlink:href="#CMMI12-7a" transform="translate(94.189195 -14.943915) scale(0.697382)"/>
      <use xlink:href="#CMSY10-69" transform="translate(129.51575 0) scale(0.996264)"/>
     </g>
    </g>
    <g id="line2d_19">
     <path d="M 195.592605 175.601326 
L 204.592605 175.601326 
L 213.592605 175.601326 
" style="fill: none; stroke: #2ca02c; stroke-width: 0.5; stroke-linecap: square"/>
    </g>
    <g id="text_17">
     <!-- $\langle \sigma_x\rangle$ -->
     <g transform="translate(220.792605 178.751326) scale(0.09 -0.09)">
      <defs>
       <path id="CMMI12-78" d="M 3034 2606 
C 2829 2567 2752 2414 2752 2293 
C 2752 2139 2874 2088 2963 2088 
C 3155 2088 3290 2254 3290 2427 
C 3290 2695 2982 2816 2714 2816 
C 2323 2816 2106 2433 2048 2312 
C 1901 2816 1504 2816 1389 2816 
C 736 2816 390 1980 390 1839 
C 390 1814 416 1782 461 1782 
C 512 1782 525 1820 538 1846 
C 755 2555 1184 2689 1370 2689 
C 1658 2689 1715 2420 1715 2267 
C 1715 2127 1677 1980 1600 1673 
L 1382 798 
C 1286 415 1101 64 762 64 
C 730 64 570 64 435 147 
C 666 192 717 383 717 460 
C 717 588 621 664 499 664 
C 346 664 179 530 179 326 
C 179 57 480 -64 755 -64 
C 1062 -64 1280 179 1414 441 
C 1517 64 1837 -64 2074 -64 
C 2726 -64 3072 773 3072 913 
C 3072 945 3046 971 3008 971 
C 2950 971 2944 939 2925 888 
C 2752 326 2381 64 2093 64 
C 1869 64 1747 230 1747 492 
C 1747 632 1773 734 1875 1156 
L 2099 2024 
C 2195 2408 2413 2689 2707 2689 
C 2720 2689 2899 2689 3034 2606 
z
" transform="scale(0.015625)"/>
      </defs>
      <use xlink:href="#CMSY10-68" transform="scale(0.996264)"/>
      <use xlink:href="#CMMI12-1b" transform="translate(38.743734 0) scale(0.996264)"/>
      <use xlink:href="#CMMI12-78" transform="translate(94.189195 -14.943915) scale(0.697382)"/>
      <use xlink:href="#CMSY10-69" transform="translate(133.490986 0) scale(0.996264)"/>
     </g>
    </g>
    <g id="line2d_20">
     <path d="M 195.592605 189.067702 
L 204.592605 189.067702 
L 213.592605 189.067702 
" style="fill: none; stroke: #d62728; stroke-width: 0.5; stroke-linecap: square"/>
    </g>
    <g id="text_18">
     <!-- $\langle \sigma_y\rangle$ -->
     <g transform="translate(220.792605 192.217702) scale(0.09 -0.09)">
      <defs>
       <path id="CMMI12-79" d="M 1683 -700 
C 1510 -939 1261 -1152 947 -1152 
C 870 -1152 563 -1152 467 -889 
C 486 -895 518 -895 531 -895 
C 723 -895 851 -729 851 -582 
C 851 -435 730 -384 634 -384 
C 531 -384 307 -458 307 -759 
C 307 -1071 582 -1286 947 -1286 
C 1587 -1286 2234 -700 2413 6 
L 3040 2485 
C 3046 2517 3059 2556 3059 2594 
C 3059 2689 2982 2753 2886 2753 
C 2829 2753 2694 2727 2643 2535 
L 2170 658 
C 2138 543 2138 530 2086 460 
C 1958 281 1747 64 1440 64 
C 1082 64 1050 415 1050 588 
C 1050 952 1222 1443 1395 1903 
C 1466 2088 1504 2178 1504 2305 
C 1504 2574 1312 2816 998 2816 
C 410 2816 173 1890 173 1839 
C 173 1814 198 1782 243 1782 
C 301 1782 307 1807 333 1897 
C 486 2433 730 2689 979 2689 
C 1037 2689 1146 2689 1146 2478 
C 1146 2312 1075 2127 979 1884 
C 666 1047 666 837 666 683 
C 666 77 1101 -64 1421 -64 
C 1606 -64 1837 -6 2061 230 
L 2067 224 
C 1971 -147 1907 -392 1683 -700 
z
" transform="scale(0.015625)"/>
      </defs>
      <use xlink:href="#CMSY10-68" transform="scale(0.996264)"/>
      <use xlink:href="#CMMI12-1b" transform="translate(38.743734 0) scale(0.996264)"/>
      <use xlink:href="#CMMI12-79" transform="translate(94.189195 -14.943915) scale(0.697382)"/>
      <use xlink:href="#CMSY10-69" transform="translate(130.484301 0) scale(0.996264)"/>
     </g>
    </g>
   </g>
  </g>
 </g>
 <defs>
  <clipPath id="p89ac1ef2bf">
   <rect x="33.707196" y="7.2" width="212.292324" height="195.359296"/>
  </clipPath>
 </defs>
</svg>
