<?xml version="1.0" encoding="utf-8" standalone="no"?>
<!DOCTYPE svg PUBLIC "-//W3C//DTD SVG 1.1//EN"
  "http://www.w3.org/Graphics/SVG/1.1/DTD/svg11.dtd">
<svg xmlns:xlink="http://www.w3.org/1999/xlink" width="253.19952pt" height="238.79952pt" viewBox="0 0 253.19952 238.79952" xmlns="http://www.w3.org/2000/svg" version="1.1">
 <metadata>
  <rdf:RDF xmlns:dc="http://purl.org/dc/elements/1.1/" xmlns:cc="http://creativecommons.org/ns#" xmlns:rdf="http://www.w3.org/1999/02/22-rdf-syntax-ns#">
   <cc:Work>
    <dc:type rdf:resource="http://purl.org/dc/dcmitype/StillImage"/>
    <dc:date>1980-01-01T00:00:00+00:00</dc:date>
    <dc:format>image/svg+xml</dc:format>
    <dc:creator>
     <cc:Agent>
      <dc:title>Matplotlib v3.6.2, https://matplotlib.org/</dc:title>
     </cc:Agent>
    </dc:creator>
   </cc:Work>
  </rdf:RDF>
 </metadata>
 <defs>
  <style type="text/css">*{stroke-linejoin: round; stroke-linecap: butt}</style>
 </defs>
 <g id="figure_1">
  <g id="patch_1">
   <path d="M 0 238.79952 
L 253.19952 238.79952 
L 253.19952 0 
L 0 0 
z
" style="fill: #ffffff"/>
  </g>
  <g id="axes_1">
   <g id="patch_2">
    <path d="M 33.707196 202.559296 
L 245.99952 202.559296 
L 245.99952 7.2 
L 33.707196 7.2 
z
" style="fill: #ffffff"/>
   </g>
   <g id="matplotlib.axis_1">
    <g id="xtick_1">
     <g id="line2d_1">
      <defs>
       <path id="m70325588e3" d="M 0 0 
L 0 3.5 
" style="stroke: #000000; stroke-width: 0.8"/>
      </defs>
      <g>
       <use xlink:href="#m70325588e3" x="43.356847" y="202.559296" style="stroke: #000000; stroke-width: 0.8"/>
      </g>
     </g>
     <g id="text_1">
      <!-- $\mathdefault{0}$ -->
      <g transform="translate(41.239756 217.194098) scale(0.08 -0.08)">
       <defs>
        <path id="CMR17-30" d="M 2688 2025 
C 2688 2416 2682 3080 2413 3591 
C 2176 4039 1798 4198 1466 4198 
C 1158 4198 768 4058 525 3597 
C 269 3118 243 2524 243 2025 
C 243 1661 250 1106 448 619 
C 723 -39 1216 -128 1466 -128 
C 1760 -128 2208 -7 2470 600 
C 2662 1042 2688 1559 2688 2025 
z
M 1466 -26 
C 1056 -26 813 325 723 812 
C 653 1188 653 1738 653 2096 
C 653 2588 653 2997 736 3387 
C 858 3929 1216 4096 1466 4096 
C 1728 4096 2067 3923 2189 3400 
C 2272 3036 2278 2607 2278 2096 
C 2278 1680 2278 1169 2202 792 
C 2067 95 1690 -26 1466 -26 
z
" transform="scale(0.015625)"/>
       </defs>
       <use xlink:href="#CMR17-30" transform="scale(0.996264)"/>
      </g>
     </g>
    </g>
    <g id="xtick_2">
     <g id="line2d_2">
      <g>
       <use xlink:href="#m70325588e3" x="70.161434" y="202.559296" style="stroke: #000000; stroke-width: 0.8"/>
      </g>
     </g>
     <g id="text_2">
      <!-- $\mathdefault{25}$ -->
      <g transform="translate(65.927251 217.194098) scale(0.08 -0.08)">
       <defs>
        <path id="CMR17-32" d="M 2669 989 
L 2554 989 
C 2490 536 2438 459 2413 420 
C 2381 369 1920 369 1830 369 
L 602 369 
C 832 619 1280 1072 1824 1597 
C 2214 1967 2669 2402 2669 3035 
C 2669 3790 2067 4224 1395 4224 
C 691 4224 262 3604 262 3030 
C 262 2780 448 2748 525 2748 
C 589 2748 781 2787 781 3010 
C 781 3207 614 3264 525 3264 
C 486 3264 448 3258 422 3245 
C 544 3790 915 4058 1306 4058 
C 1862 4058 2227 3617 2227 3035 
C 2227 2479 1901 2000 1536 1584 
L 262 146 
L 262 0 
L 2515 0 
L 2669 989 
z
" transform="scale(0.015625)"/>
        <path id="CMR17-35" d="M 730 3692 
C 794 3666 1056 3584 1325 3584 
C 1920 3584 2246 3911 2432 4100 
C 2432 4157 2432 4192 2394 4192 
C 2387 4192 2374 4192 2323 4163 
C 2099 4058 1837 3973 1517 3973 
C 1325 3973 1037 3999 723 4139 
C 653 4171 640 4171 634 4171 
C 602 4171 595 4164 595 4037 
L 595 2203 
C 595 2089 595 2057 659 2057 
C 691 2057 704 2070 736 2114 
C 941 2401 1222 2522 1542 2522 
C 1766 2522 2246 2382 2246 1289 
C 2246 1085 2246 715 2054 421 
C 1894 159 1645 25 1370 25 
C 947 25 518 320 403 814 
C 429 807 480 795 506 795 
C 589 795 749 840 749 1038 
C 749 1210 627 1280 506 1280 
C 358 1280 262 1190 262 1011 
C 262 454 704 -128 1382 -128 
C 2042 -128 2669 440 2669 1264 
C 2669 2030 2170 2624 1549 2624 
C 1222 2624 947 2503 730 2274 
L 730 3692 
z
" transform="scale(0.015625)"/>
       </defs>
       <use xlink:href="#CMR17-32" transform="scale(0.996264)"/>
       <use xlink:href="#CMR17-35" transform="translate(45.690477 0) scale(0.996264)"/>
      </g>
     </g>
    </g>
    <g id="xtick_3">
     <g id="line2d_3">
      <g>
       <use xlink:href="#m70325588e3" x="96.96602" y="202.559296" style="stroke: #000000; stroke-width: 0.8"/>
      </g>
     </g>
     <g id="text_3">
      <!-- $\mathdefault{50}$ -->
      <g transform="translate(92.731837 217.194098) scale(0.08 -0.08)">
       <use xlink:href="#CMR17-35" transform="scale(0.996264)"/>
       <use xlink:href="#CMR17-30" transform="translate(45.690477 0) scale(0.996264)"/>
      </g>
     </g>
    </g>
    <g id="xtick_4">
     <g id="line2d_4">
      <g>
       <use xlink:href="#m70325588e3" x="123.770606" y="202.559296" style="stroke: #000000; stroke-width: 0.8"/>
      </g>
     </g>
     <g id="text_4">
      <!-- $\mathdefault{75}$ -->
      <g transform="translate(119.536423 217.194098) scale(0.08 -0.08)">
       <defs>
        <path id="CMR17-37" d="M 2886 3941 
L 2886 4081 
L 1382 4081 
C 634 4081 621 4165 595 4288 
L 480 4288 
L 294 3094 
L 410 3094 
C 429 3215 474 3540 550 3661 
C 589 3712 1062 3712 1171 3712 
L 2579 3712 
L 1869 2661 
C 1395 1954 1069 999 1069 165 
C 1069 89 1069 -128 1299 -128 
C 1530 -128 1530 89 1530 171 
L 1530 465 
C 1530 1508 1709 2196 2003 2636 
L 2886 3941 
z
" transform="scale(0.015625)"/>
       </defs>
       <use xlink:href="#CMR17-37" transform="scale(0.996264)"/>
       <use xlink:href="#CMR17-35" transform="translate(45.690477 0) scale(0.996264)"/>
      </g>
     </g>
    </g>
    <g id="xtick_5">
     <g id="line2d_5">
      <g>
       <use xlink:href="#m70325588e3" x="150.575193" y="202.559296" style="stroke: #000000; stroke-width: 0.8"/>
      </g>
     </g>
     <g id="text_5">
      <!-- $\mathdefault{100}$ -->
      <g transform="translate(144.223918 217.194098) scale(0.08 -0.08)">
       <defs>
        <path id="CMR17-31" d="M 1702 4058 
C 1702 4192 1696 4192 1606 4192 
C 1357 3916 979 3827 621 3827 
C 602 3827 570 3827 563 3808 
C 557 3795 557 3782 557 3648 
C 755 3648 1088 3686 1344 3839 
L 1344 461 
C 1344 236 1331 160 781 160 
L 589 160 
L 589 0 
C 896 0 1216 0 1523 0 
C 1830 0 2150 0 2458 0 
L 2458 160 
L 2266 160 
C 1715 160 1702 230 1702 458 
L 1702 4058 
z
" transform="scale(0.015625)"/>
       </defs>
       <use xlink:href="#CMR17-31" transform="scale(0.996264)"/>
       <use xlink:href="#CMR17-30" transform="translate(45.690477 0) scale(0.996264)"/>
       <use xlink:href="#CMR17-30" transform="translate(91.380954 0) scale(0.996264)"/>
      </g>
     </g>
    </g>
    <g id="xtick_6">
     <g id="line2d_6">
      <g>
       <use xlink:href="#m70325588e3" x="177.379779" y="202.559296" style="stroke: #000000; stroke-width: 0.8"/>
      </g>
     </g>
     <g id="text_6">
      <!-- $\mathdefault{125}$ -->
      <g transform="translate(171.028505 217.194098) scale(0.08 -0.08)">
       <use xlink:href="#CMR17-31" transform="scale(0.996264)"/>
       <use xlink:href="#CMR17-32" transform="translate(45.690477 0) scale(0.996264)"/>
       <use xlink:href="#CMR17-35" transform="translate(91.380954 0) scale(0.996264)"/>
      </g>
     </g>
    </g>
    <g id="xtick_7">
     <g id="line2d_7">
      <g>
       <use xlink:href="#m70325588e3" x="204.184365" y="202.559296" style="stroke: #000000; stroke-width: 0.8"/>
      </g>
     </g>
     <g id="text_7">
      <!-- $\mathdefault{150}$ -->
      <g transform="translate(197.833091 217.194098) scale(0.08 -0.08)">
       <use xlink:href="#CMR17-31" transform="scale(0.996264)"/>
       <use xlink:href="#CMR17-35" transform="translate(45.690477 0) scale(0.996264)"/>
       <use xlink:href="#CMR17-30" transform="translate(91.380954 0) scale(0.996264)"/>
      </g>
     </g>
    </g>
    <g id="xtick_8">
     <g id="line2d_8">
      <g>
       <use xlink:href="#m70325588e3" x="230.988952" y="202.559296" style="stroke: #000000; stroke-width: 0.8"/>
      </g>
     </g>
     <g id="text_8">
      <!-- $\mathdefault{175}$ -->
      <g transform="translate(224.637677 217.194098) scale(0.08 -0.08)">
       <use xlink:href="#CMR17-31" transform="scale(0.996264)"/>
       <use xlink:href="#CMR17-37" transform="translate(45.690477 0) scale(0.996264)"/>
       <use xlink:href="#CMR17-35" transform="translate(91.380954 0) scale(0.996264)"/>
      </g>
     </g>
    </g>
    <g id="text_9">
     <!-- $\tau$ -->
     <g transform="translate(137.675756 229.662342) scale(0.1 -0.1)">
      <defs>
       <path id="CMMI12-1c" d="M 1837 2408 
L 2899 2408 
C 2982 2408 3194 2408 3194 2612 
C 3194 2752 3072 2752 2957 2752 
L 1197 2752 
C 1050 2752 832 2752 538 2440 
C 371 2255 166 1917 166 1879 
C 166 1841 198 1828 237 1828 
C 282 1828 288 1847 320 1885 
C 653 2408 986 2408 1146 2408 
L 1677 2408 
L 1011 223 
C 979 127 979 114 979 95 
C 979 25 1024 -64 1152 -64 
C 1350 -64 1382 108 1402 203 
L 1837 2408 
z
" transform="scale(0.015625)"/>
      </defs>
      <use xlink:href="#CMMI12-1c" transform="scale(0.996264)"/>
     </g>
    </g>
   </g>
   <g id="matplotlib.axis_2">
    <g id="ytick_1">
     <g id="line2d_9">
      <defs>
       <path id="m0d93eed870" d="M 0 0 
L -3.5 0 
" style="stroke: #000000; stroke-width: 0.8"/>
      </defs>
      <g>
       <use xlink:href="#m0d93eed870" x="33.707196" y="193.679328" style="stroke: #000000; stroke-width: 0.8"/>
      </g>
     </g>
     <g id="text_10">
      <!-- $\mathdefault{−1.0}$ -->
      <g transform="translate(7.2 196.446729) scale(0.08 -0.08)">
       <defs>
        <path id="CMSY10-0" d="M 4218 1472 
C 4326 1472 4442 1472 4442 1600 
C 4442 1728 4326 1728 4218 1728 
L 755 1728 
C 646 1728 531 1728 531 1600 
C 531 1472 646 1472 755 1472 
L 4218 1472 
z
" transform="scale(0.015625)"/>
        <path id="CMMI12-3a" d="M 1178 307 
C 1178 492 1024 619 870 619 
C 685 619 557 466 557 313 
C 557 128 710 0 864 0 
C 1050 0 1178 153 1178 307 
z
" transform="scale(0.015625)"/>
       </defs>
       <use xlink:href="#CMSY10-0" transform="scale(0.996264)"/>
       <use xlink:href="#CMR17-31" transform="translate(77.487468 0) scale(0.996264)"/>
       <use xlink:href="#CMMI12-3a" transform="translate(123.177945 0) scale(0.996264)"/>
       <use xlink:href="#CMR17-30" transform="translate(150.275122 0) scale(0.996264)"/>
      </g>
     </g>
    </g>
    <g id="ytick_2">
     <g id="line2d_10">
      <g>
       <use xlink:href="#m0d93eed870" x="33.707196" y="158.368254" style="stroke: #000000; stroke-width: 0.8"/>
      </g>
     </g>
     <g id="text_11">
      <!-- $\mathdefault{−0.8}$ -->
      <g transform="translate(7.2 161.135655) scale(0.08 -0.08)">
       <defs>
        <path id="CMR17-38" d="M 1741 2264 
C 2144 2467 2554 2773 2554 3263 
C 2554 3841 1990 4179 1472 4179 
C 890 4179 378 3759 378 3180 
C 378 3021 416 2747 666 2505 
C 730 2442 998 2251 1171 2130 
C 883 1983 211 1634 211 934 
C 211 279 838 -128 1459 -128 
C 2144 -128 2720 362 2720 1010 
C 2720 1590 2330 1857 2074 2029 
L 1741 2264 
z
M 902 2822 
C 851 2854 595 3051 595 3351 
C 595 3739 998 4032 1459 4032 
C 1965 4032 2336 3676 2336 3262 
C 2336 2669 1670 2331 1638 2331 
C 1632 2331 1626 2331 1574 2370 
L 902 2822 
z
M 2080 1519 
C 2176 1449 2483 1240 2483 851 
C 2483 381 2010 25 1472 25 
C 890 25 448 438 448 940 
C 448 1443 838 1862 1280 2060 
L 2080 1519 
z
" transform="scale(0.015625)"/>
       </defs>
       <use xlink:href="#CMSY10-0" transform="scale(0.996264)"/>
       <use xlink:href="#CMR17-30" transform="translate(77.487468 0) scale(0.996264)"/>
       <use xlink:href="#CMMI12-3a" transform="translate(123.177945 0) scale(0.996264)"/>
       <use xlink:href="#CMR17-38" transform="translate(150.275122 0) scale(0.996264)"/>
      </g>
     </g>
    </g>
    <g id="ytick_3">
     <g id="line2d_11">
      <g>
       <use xlink:href="#m0d93eed870" x="33.707196" y="123.05718" style="stroke: #000000; stroke-width: 0.8"/>
      </g>
     </g>
     <g id="text_12">
      <!-- $\mathdefault{−0.6}$ -->
      <g transform="translate(7.2 125.824581) scale(0.08 -0.08)">
       <defs>
        <path id="CMR17-36" d="M 678 2176 
C 678 3690 1395 4032 1811 4032 
C 1946 4032 2272 4009 2400 3776 
C 2298 3776 2106 3776 2106 3553 
C 2106 3381 2246 3323 2336 3323 
C 2394 3323 2566 3348 2566 3560 
C 2566 3954 2246 4179 1805 4179 
C 1043 4179 243 3390 243 1984 
C 243 253 966 -128 1478 -128 
C 2099 -128 2688 427 2688 1283 
C 2688 2081 2170 2662 1517 2662 
C 1126 2662 838 2407 678 1960 
L 678 2176 
z
M 1478 25 
C 691 25 691 1200 691 1436 
C 691 1896 909 2560 1504 2560 
C 1613 2560 1926 2560 2138 2120 
C 2253 1870 2253 1609 2253 1289 
C 2253 944 2253 690 2118 434 
C 1978 171 1773 25 1478 25 
z
" transform="scale(0.015625)"/>
       </defs>
       <use xlink:href="#CMSY10-0" transform="scale(0.996264)"/>
       <use xlink:href="#CMR17-30" transform="translate(77.487468 0) scale(0.996264)"/>
       <use xlink:href="#CMMI12-3a" transform="translate(123.177945 0) scale(0.996264)"/>
       <use xlink:href="#CMR17-36" transform="translate(150.275122 0) scale(0.996264)"/>
      </g>
     </g>
    </g>
    <g id="ytick_4">
     <g id="line2d_12">
      <g>
       <use xlink:href="#m0d93eed870" x="33.707196" y="87.746106" style="stroke: #000000; stroke-width: 0.8"/>
      </g>
     </g>
     <g id="text_13">
      <!-- $\mathdefault{−0.4}$ -->
      <g transform="translate(7.2 90.513507) scale(0.08 -0.08)">
       <defs>
        <path id="CMR17-34" d="M 2150 4122 
C 2150 4256 2144 4256 2029 4256 
L 128 1254 
L 128 1088 
L 1779 1088 
L 1779 457 
C 1779 224 1766 160 1318 160 
L 1197 160 
L 1197 0 
C 1402 0 1747 0 1965 0 
C 2182 0 2528 0 2733 0 
L 2733 160 
L 2611 160 
C 2163 160 2150 224 2150 457 
L 2150 1088 
L 2803 1088 
L 2803 1254 
L 2150 1254 
L 2150 4122 
z
M 1798 3703 
L 1798 1254 
L 256 1254 
L 1798 3703 
z
" transform="scale(0.015625)"/>
       </defs>
       <use xlink:href="#CMSY10-0" transform="scale(0.996264)"/>
       <use xlink:href="#CMR17-30" transform="translate(77.487468 0) scale(0.996264)"/>
       <use xlink:href="#CMMI12-3a" transform="translate(123.177945 0) scale(0.996264)"/>
       <use xlink:href="#CMR17-34" transform="translate(150.275122 0) scale(0.996264)"/>
      </g>
     </g>
    </g>
    <g id="ytick_5">
     <g id="line2d_13">
      <g>
       <use xlink:href="#m0d93eed870" x="33.707196" y="52.435032" style="stroke: #000000; stroke-width: 0.8"/>
      </g>
     </g>
     <g id="text_14">
      <!-- $\mathdefault{−0.2}$ -->
      <g transform="translate(7.2 55.202433) scale(0.08 -0.08)">
       <use xlink:href="#CMSY10-0" transform="scale(0.996264)"/>
       <use xlink:href="#CMR17-30" transform="translate(77.487468 0) scale(0.996264)"/>
       <use xlink:href="#CMMI12-3a" transform="translate(123.177945 0) scale(0.996264)"/>
       <use xlink:href="#CMR17-32" transform="translate(150.275122 0) scale(0.996264)"/>
      </g>
     </g>
    </g>
    <g id="ytick_6">
     <g id="line2d_14">
      <g>
       <use xlink:href="#m0d93eed870" x="33.707196" y="17.123958" style="stroke: #000000; stroke-width: 0.8"/>
      </g>
     </g>
     <g id="text_15">
      <!-- $\mathdefault{0.0}$ -->
      <g transform="translate(13.786507 19.891359) scale(0.08 -0.08)">
       <use xlink:href="#CMR17-30" transform="scale(0.996264)"/>
       <use xlink:href="#CMMI12-3a" transform="translate(45.690477 0) scale(0.996264)"/>
       <use xlink:href="#CMR17-30" transform="translate(72.787654 0) scale(0.996264)"/>
      </g>
     </g>
    </g>
   </g>
   <g id="line2d_15">
    <path d="M 43.356847 193.679328 
L 52.749174 193.576093 
L 53.070829 193.34773 
L 53.392484 192.82124 
L 53.714139 191.781672 
L 54.035794 189.969429 
L 54.42178 186.398156 
L 54.872098 179.910754 
L 55.451077 168.018832 
L 56.480373 140.988111 
L 57.574 114.587908 
L 58.345972 100.67307 
L 59.117944 90.543915 
L 59.825585 84.02637 
L 60.79055 77.314138 
L 61.819846 71.638741 
L 62.527487 68.868318 
L 63.235128 67.17291 
L 65.22939 63.16185 
L 65.8727 62.059598 
L 66.644672 61.264007 
L 66.966327 61.296887 
L 67.352313 61.338821 
L 67.738299 61.114919 
L 68.44594 60.66955 
L 68.831926 60.672051 
L 69.475236 60.909001 
L 70.633194 62.231893 
L 71.212173 63.174632 
L 72.048476 64.388594 
L 72.820449 65.43004 
L 73.399428 65.856553 
L 74.042738 66.014975 
L 75.329358 66.065974 
L 86.136967 66.161398 
L 86.651615 66.417195 
L 87.037601 66.921694 
L 87.423587 67.894682 
L 87.873904 69.774522 
L 88.452883 73.399028 
L 89.160524 79.329608 
L 91.798096 104.071747 
L 92.827392 110.952252 
L 93.663695 114.893109 
L 94.757322 118.27793 
L 95.400632 119.743192 
L 96.301266 121.413168 
L 97.330562 122.624275 
L 99.71081 124.786916 
L 100.804437 125.296827 
L 101.705071 126.308059 
L 102.155388 127.201512 
L 102.670036 128.689515 
L 103.377677 131.498845 
L 104.535635 135.88888 
L 105.114614 137.297549 
L 105.629262 138.053469 
L 106.14391 138.434118 
L 106.722889 138.571165 
L 108.331165 138.590404 
L 117.208844 138.500205 
L 117.59483 138.221679 
L 117.916485 137.693032 
L 118.23814 136.719652 
L 118.624126 134.733089 
L 119.074443 131.155159 
L 119.589091 125.321083 
L 120.361063 113.340366 
L 121.712014 92.720993 
L 122.419655 84.415852 
L 123.062965 79.307068 
L 123.706275 75.711422 
L 125.057226 70.108875 
L 126.215185 66.563947 
L 126.858495 65.196975 
L 127.630467 63.826338 
L 128.145115 62.981777 
L 129.946383 61.195064 
L 130.268038 61.254436 
L 130.589693 61.292126 
L 131.876313 60.847574 
L 132.905609 60.451038 
L 133.484588 60.546241 
L 133.934905 60.882151 
L 134.83554 61.590606 
L 135.285857 62.022799 
L 135.736174 62.924919 
L 136.379484 64.125259 
L 137.215787 65.203976 
L 137.794766 65.60272 
L 138.438076 65.773532 
L 139.853358 65.802351 
L 150.21065 65.696554 
L 150.725298 65.743377 
L 151.111284 66.018897 
L 151.432939 66.509343 
L 151.818925 67.562609 
L 152.269242 69.555334 
L 152.783891 72.919985 
L 153.491532 79.273927 
L 156.129103 104.627587 
L 157.029737 110.576077 
L 158.059033 115.627248 
L 158.702343 117.757338 
L 159.860301 120.646823 
L 160.503611 121.849695 
L 161.339914 122.782928 
L 162.369211 123.929552 
L 163.205514 124.629257 
L 163.848824 125.119201 
L 164.685127 125.479097 
L 165.52143 125.675857 
L 165.843085 126.021707 
L 166.357733 127.030648 
L 166.936712 128.836366 
L 168.287663 133.975265 
L 169.059635 136.445392 
L 169.702945 137.80775 
L 170.153262 138.335699 
L 170.667911 138.59396 
L 171.439883 138.675314 
L 180.703548 138.675828 
L 181.539851 138.560669 
L 181.925837 138.26762 
L 182.247492 137.72164 
L 182.569147 136.726941 
L 182.955133 134.758573 
L 183.40545 131.196535 
L 183.920098 125.163076 
L 184.820732 111.160917 
L 186.107352 91.849208 
L 186.943655 82.577237 
L 187.522634 78.434286 
L 189.002248 70.350734 
L 189.581227 68.420054 
L 190.288868 66.957356 
L 191.253833 65.145345 
L 192.218798 64.131485 
L 193.119432 62.70897 
L 193.505418 62.305326 
L 193.955735 61.965539 
L 194.599045 61.302724 
L 195.371017 60.933262 
L 195.949996 60.976924 
L 197.622603 60.305664 
L 197.944258 60.458961 
L 199.230878 61.548106 
L 201.93278 64.705578 
L 202.511759 64.918716 
L 203.476724 64.992806 
L 213.834016 64.973304 
L 214.927644 65.027722 
L 215.31363 65.222351 
L 215.699616 65.697437 
L 216.085602 66.639149 
L 216.535919 68.440564 
L 216.986236 71.163306 
L 217.629546 76.597358 
L 218.787504 88.749 
L 219.945462 100.15041 
L 220.910427 107.38299 
L 221.74673 112.360879 
L 222.325709 114.693918 
L 223.805323 119.510612 
L 224.705957 121.468121 
L 225.477929 122.487735 
L 226.056908 122.837842 
L 226.893211 123.443677 
L 228.1155 124.458832 
L 229.723775 125.383885 
L 230.109761 125.858997 
L 230.817402 127.180212 
L 231.33205 128.729693 
L 232.104022 131.872112 
L 233.133319 135.632247 
L 233.776629 137.277454 
L 234.291277 138.048903 
L 234.805925 138.417009 
L 235.384904 138.548483 
L 236.349869 138.567002 
L 236.349869 138.567002 
" clip-path="url(#p6df77c332c)" style="fill: none; stroke: #ff7f0e; stroke-width: 0.5; stroke-linecap: square"/>
   </g>
   <g id="line2d_16">
    <path d="M 43.356847 17.123958 
L 55.579739 17.03514 
L 56.802028 16.528532 
L 57.188014 16.70916 
L 58.152979 17.456158 
L 58.474634 17.340586 
L 58.86062 16.911862 
L 59.50393 16.147265 
L 59.696923 16.161775 
L 59.954247 16.456756 
L 60.79055 17.771171 
L 61.047874 17.754627 
L 61.43386 17.381844 
L 62.012839 16.787783 
L 62.270163 16.842158 
L 62.849142 17.315675 
L 63.36379 17.759656 
L 63.749777 17.775992 
L 64.264425 17.590109 
L 65.679707 16.880286 
L 66.966327 16.720028 
L 67.352313 16.860383 
L 67.995623 17.256634 
L 68.252947 17.130108 
L 68.896257 16.653281 
L 69.217912 16.796854 
L 70.054215 17.265917 
L 70.440201 17.226036 
L 71.469497 16.813777 
L 72.241469 17.219468 
L 72.820449 17.478475 
L 73.206435 17.440662 
L 73.785414 17.083695 
L 74.428724 16.787735 
L 74.879041 16.832659 
L 75.522351 17.193418 
L 76.165661 17.465511 
L 76.615978 17.396666 
L 77.452281 16.925656 
L 77.966929 16.778274 
L 78.481577 16.876797 
L 80.218514 17.469457 
L 80.990486 17.323066 
L 83.11341 16.779664 
L 84.014044 16.865432 
L 87.037601 17.446729 
L 89.096193 17.300469 
L 89.610841 17.331903 
L 90.061158 17.017045 
L 90.704469 16.658474 
L 91.154786 16.578645 
L 91.733765 16.849462 
L 92.69873 17.093987 
L 93.084716 16.905537 
L 93.663695 16.598172 
L 94.950315 16.639617 
L 95.336301 16.893142 
L 95.979611 17.23972 
L 96.880245 17.45496 
L 97.523555 17.516787 
L 98.231196 17.495874 
L 99.582148 17.499281 
L 100.096796 17.566822 
L 101.061761 17.295197 
L 102.155388 17.335292 
L 104.664297 16.701419 
L 105.436269 16.849258 
L 107.945178 17.512852 
L 108.781482 17.381051 
L 111.22606 16.766073 
L 111.86937 17.022296 
L 112.962997 17.511732 
L 113.413314 17.427335 
L 114.120955 16.978849 
L 114.635603 16.745329 
L 115.021589 16.778225 
L 115.536237 17.072937 
L 116.308209 17.501177 
L 116.694195 17.472916 
L 117.208844 17.175286 
L 117.916485 16.76792 
L 118.302471 16.778904 
L 118.817119 17.049849 
L 119.975077 17.714927 
L 120.489725 17.523371 
L 121.712014 16.97241 
L 122.676979 16.927834 
L 123.448951 16.510858 
L 123.963599 16.594511 
L 124.220923 16.79564 
L 124.799902 17.677451 
L 125.185888 18.212495 
L 125.507543 18.266274 
L 125.764867 18.120347 
L 126.150854 17.565971 
L 126.729833 16.725349 
L 127.051488 16.651343 
L 127.501805 16.871773 
L 128.080784 17.198773 
L 129.431735 17.352244 
L 129.882052 17.206373 
L 130.654024 16.774475 
L 131.104341 16.880769 
L 132.069306 17.317931 
L 132.712616 17.35314 
L 133.227264 17.072116 
L 133.934905 16.61121 
L 134.25656 16.633431 
L 135.350188 17.083679 
L 137.151456 17.232873 
L 137.794766 17.278133 
L 138.759731 17.07866 
L 139.531703 16.980589 
L 140.303675 17.132042 
L 141.204309 17.268209 
L 142.040612 17.113208 
L 143.005577 16.978695 
L 143.970543 17.112654 
L 145.321494 17.26982 
L 146.672445 17.160347 
L 148.795368 16.981219 
L 151.883256 16.978953 
L 153.169877 16.553936 
L 153.748856 16.443622 
L 154.520828 16.469035 
L 154.906814 16.490048 
L 155.614455 16.580628 
L 156.450758 16.677561 
L 157.608716 17.097334 
L 158.187695 16.978583 
L 158.831005 16.844693 
L 159.409984 16.658721 
L 160.117625 16.364818 
L 160.632273 16.364917 
L 162.690866 16.900083 
L 163.205514 16.984656 
L 163.5915 17.000902 
L 164.363472 17.261909 
L 164.813789 17.063699 
L 165.714423 16.656541 
L 166.486395 16.805857 
L 167.001043 16.956709 
L 167.708684 17.147682 
L 168.930973 17.515188 
L 169.831607 17.466816 
L 170.796573 17.210567 
L 172.404848 16.75966 
L 173.241151 16.788275 
L 174.141785 17.057427 
L 175.557067 17.503856 
L 176.136046 17.407434 
L 176.908018 16.993165 
L 177.551328 16.746725 
L 178.001645 16.821754 
L 178.644955 17.220145 
L 179.223935 17.493869 
L 179.609921 17.46214 
L 180.124569 17.174266 
L 180.896541 16.755359 
L 181.346858 16.792793 
L 181.861506 17.096272 
L 182.569147 17.514647 
L 182.955133 17.474098 
L 184.306084 16.945586 
L 184.756401 17.224325 
L 185.592704 17.692743 
L 186.043021 17.575895 
L 186.429007 17.184858 
L 187.200979 16.418411 
L 187.458303 16.48986 
L 187.90862 16.985772 
L 188.4876 17.624992 
L 188.873586 17.660673 
L 189.452565 17.417416 
L 190.803516 16.840425 
L 191.125171 16.993768 
L 191.575488 17.231658 
L 191.961474 17.041533 
L 192.411791 16.879094 
L 193.376756 16.896423 
L 194.27739 17.143597 
L 195.306686 16.687509 
L 195.757003 16.868613 
L 196.528975 17.281105 
L 197.558272 17.465104 
L 198.523237 17.156209 
L 199.874188 17.550597 
L 200.324505 17.177148 
L 200.903484 16.695729 
L 201.225139 16.65238 
L 201.546794 16.825365 
L 202.704752 17.725692 
L 203.026407 17.636271 
L 203.476724 17.235808 
L 204.184365 16.585343 
L 204.50602 16.536573 
L 204.827675 16.69268 
L 205.535316 17.40745 
L 205.985634 17.698983 
L 206.307289 17.691163 
L 206.693275 17.461173 
L 207.915564 16.549924 
L 208.365881 16.565691 
L 208.94486 16.846108 
L 210.360142 17.638517 
L 211.003452 17.71644 
L 211.711093 17.556874 
L 212.740389 17.037948 
L 213.769685 16.592018 
L 214.412995 16.55006 
L 215.056306 16.737635 
L 216.342926 17.518407 
L 216.986236 17.826084 
L 217.758208 17.79128 
L 219.623807 16.68029 
L 220.524441 16.837782 
L 221.425075 17.003115 
L 222.325709 17.208876 
L 223.097681 17.501794 
L 223.483667 17.339137 
L 223.933985 17.263196 
L 225.220605 16.976639 
L 225.928246 16.765826 
L 227.407859 16.993055 
L 228.372824 17.161833 
L 229.723775 16.95144 
L 230.109761 16.949356 
L 230.68874 17.042036 
L 231.33205 17.054563 
L 232.683002 17.309881 
L 233.84096 17.391409 
L 236.349869 16.982647 
L 236.349869 16.982647 
" clip-path="url(#p6df77c332c)" style="fill: none; stroke: #2ca02c; stroke-width: 0.5; stroke-linecap: square"/>
   </g>
   <g id="line2d_17">
    <path d="M 43.356847 17.123958 
L 55.193753 17.226333 
L 55.772732 17.462496 
L 56.28738 17.380263 
L 56.737697 17.044225 
L 57.381007 16.529655 
L 57.702662 16.51797 
L 57.959986 16.73838 
L 58.989282 18.012643 
L 59.182275 17.865336 
L 59.50393 17.232985 
L 60.018578 16.167155 
L 60.211571 16.099986 
L 60.404564 16.272287 
L 61.562522 17.853841 
L 61.755515 17.760932 
L 62.849142 16.683037 
L 63.235128 16.831358 
L 64.200094 17.308364 
L 64.779073 17.326583 
L 65.551045 17.251965 
L 66.258686 17.269288 
L 67.738299 16.951839 
L 68.059954 17.285963 
L 68.381609 17.582922 
L 68.574602 17.532403 
L 69.024919 17.046737 
L 69.410905 16.80499 
L 69.668229 16.85827 
L 70.697525 17.407404 
L 71.147842 17.224734 
L 72.048476 16.696687 
L 72.434463 16.8041 
L 73.849745 17.474393 
L 74.364393 17.255187 
L 75.329358 16.781752 
L 75.779675 16.854892 
L 77.323619 17.445691 
L 77.902598 17.185746 
L 78.738901 16.803487 
L 79.253549 16.80141 
L 80.025521 17.068367 
L 81.119148 17.43212 
L 81.891121 17.454657 
L 82.856086 17.244044 
L 84.721685 16.773927 
L 85.557988 16.806007 
L 86.265629 17.026162 
L 87.294925 17.387979 
L 87.873904 17.528259 
L 88.324221 17.62442 
L 90.318483 17.256323 
L 90.961793 16.824706 
L 91.733765 16.697303 
L 92.184082 16.902933 
L 92.763061 17.113993 
L 93.535033 17.214356 
L 93.98535 17.038296 
L 94.885984 16.664983 
L 95.722287 16.911171 
L 96.429928 17.093458 
L 97.523555 17.192075 
L 98.102534 17.157016 
L 98.681513 17.059627 
L 99.903803 17.155454 
L 100.35412 17.103534 
L 101.769402 17.28765 
L 102.091057 17.266979 
L 102.92736 17.474289 
L 104.278311 17.217416 
L 105.757924 16.762499 
L 106.529896 16.754401 
L 107.43053 16.966565 
L 109.360461 17.508899 
L 110.068102 17.449466 
L 110.840074 17.158493 
L 111.933701 16.739798 
L 112.448349 16.807838 
L 113.091659 17.170473 
L 113.7993 17.505601 
L 114.249617 17.441613 
L 114.892927 17.031394 
L 115.471906 16.7465 
L 115.857892 16.776122 
L 116.37254 17.067353 
L 117.144513 17.506269 
L 117.530499 17.466581 
L 118.045147 17.161862 
L 118.817119 16.677272 
L 119.203105 16.716645 
L 120.039408 17.198066 
L 120.489725 17.443398 
L 121.519021 17.290572 
L 122.226662 16.942914 
L 123.062965 17.314668 
L 123.38462 17.10392 
L 124.285254 16.272885 
L 124.542578 16.081526 
L 124.799902 16.185511 
L 125.121557 16.648652 
L 126.022192 18.084784 
L 126.279516 18.112201 
L 126.601171 17.751117 
L 127.308812 16.91172 
L 127.566136 16.814495 
L 128.788425 17.074013 
L 129.238742 17.1371 
L 129.560397 17.244063 
L 130.139376 17.461857 
L 130.461031 17.354985 
L 131.425996 16.848063 
L 131.876313 16.876799 
L 133.420257 17.445997 
L 134.706878 16.965788 
L 135.157195 17.040067 
L 135.929167 17.075149 
L 136.572477 17.032683 
L 137.280118 17.040536 
L 138.759731 17.2612 
L 139.596034 17.079947 
L 140.368006 16.980278 
L 141.139978 17.128855 
L 142.040612 17.269479 
L 142.876915 17.139579 
L 144.034874 16.978046 
L 145.192832 17.099698 
L 146.929769 17.269868 
L 148.345051 17.161339 
L 150.403643 16.992464 
L 152.14058 17.126221 
L 154.00618 17.030127 
L 154.520828 17.06969 
L 155.357131 16.873027 
L 156.257765 16.52686 
L 156.708082 16.696088 
L 158.316357 17.550832 
L 158.766674 17.744935 
L 159.216991 17.646423 
L 160.181956 17.381312 
L 160.760935 17.151059 
L 161.597239 16.834563 
L 162.433542 16.767294 
L 164.041817 17.451645 
L 164.492134 17.387624 
L 165.971747 16.91754 
L 166.422064 16.719785 
L 167.258367 16.648782 
L 169.252628 17.138766 
L 170.667911 17.492664 
L 171.568545 17.459388 
L 172.597841 17.16817 
L 174.077454 16.754218 
L 174.785095 16.796586 
L 175.557067 17.095703 
L 176.586363 17.5 
L 177.101011 17.423273 
L 177.808652 17.007402 
L 178.387631 16.751969 
L 178.837948 16.812168 
L 179.481259 17.21392 
L 180.060238 17.492853 
L 180.446224 17.4645 
L 180.960872 17.179076 
L 181.797175 16.716948 
L 182.183161 16.751069 
L 182.633478 17.057671 
L 183.276788 17.552155 
L 183.598443 17.493856 
L 184.306084 17.004885 
L 184.820732 16.699915 
L 185.271049 16.732342 
L 185.592704 16.984503 
L 186.429007 17.855327 
L 186.686331 17.759744 
L 187.072317 17.318358 
L 187.715627 16.498124 
L 188.037282 16.459115 
L 188.358938 16.659024 
L 189.259572 17.460019 
L 189.645558 17.59183 
L 190.095875 17.461224 
L 190.546192 17.165107 
L 191.125171 16.697297 
L 191.318164 16.755703 
L 192.025805 17.297762 
L 193.698411 16.732965 
L 194.020066 17.08934 
L 194.534714 17.621274 
L 194.792038 17.601804 
L 195.242355 17.242523 
L 195.949996 16.645167 
L 196.271651 16.705602 
L 198.008589 17.404099 
L 198.909223 16.908306 
L 199.35954 17.033925 
L 199.809857 17.354747 
L 200.260174 17.596578 
L 200.581829 17.564912 
L 200.967815 17.278696 
L 201.739787 16.593451 
L 202.061442 16.587865 
L 202.447428 16.839409 
L 203.476724 17.709945 
L 203.798379 17.669462 
L 204.184365 17.376936 
L 205.084999 16.561539 
L 205.406654 16.549019 
L 205.79264 16.784669 
L 206.950599 17.709843 
L 207.336585 17.662365 
L 207.851233 17.333029 
L 208.880529 16.620918 
L 209.395177 16.529276 
L 209.974156 16.652383 
L 210.939121 17.14321 
L 212.032748 17.641935 
L 212.740389 17.713103 
L 213.44803 17.534469 
L 214.284333 17.053131 
L 215.120637 16.63068 
L 215.699616 16.566869 
L 216.60025 16.668239 
L 218.015532 17.570948 
L 218.401518 17.584512 
L 220.653103 17.105344 
L 222.132716 16.939015 
L 223.547998 17.216156 
L 223.998316 17.424889 
L 224.834619 17.460968 
L 227.214866 16.85373 
L 227.729514 17.042253 
L 228.308493 17.302606 
L 229.273458 17.394416 
L 231.396381 16.891124 
L 235.642228 17.302534 
L 236.349869 17.239696 
L 236.349869 17.239696 
" clip-path="url(#p6df77c332c)" style="fill: none; stroke: #d62728; stroke-width: 0.5; stroke-linecap: square"/>
   </g>
   <g id="patch_3">
    <path d="M 33.707196 202.559296 
L 33.707196 7.2 
" style="fill: none; stroke: #000000; stroke-width: 0.8; stroke-linejoin: miter; stroke-linecap: square"/>
   </g>
   <g id="patch_4">
    <path d="M 245.99952 202.559296 
L 245.99952 7.2 
" style="fill: none; stroke: #000000; stroke-width: 0.8; stroke-linejoin: miter; stroke-linecap: square"/>
   </g>
   <g id="patch_5">
    <path d="M 33.707196 202.559296 
L 245.99952 202.559296 
" style="fill: none; stroke: #000000; stroke-width: 0.8; stroke-linejoin: miter; stroke-linecap: square"/>
   </g>
   <g id="patch_6">
    <path d="M 33.707196 7.2 
L 245.99952 7.2 
" style="fill: none; stroke: #000000; stroke-width: 0.8; stroke-linejoin: miter; stroke-linecap: square"/>
   </g>
   <g id="legend_1">
    <g id="patch_7">
     <path d="M 193.792605 198.059296 
L 239.69952 198.059296 
Q 241.49952 198.059296 241.49952 196.259296 
L 241.49952 156.760168 
Q 241.49952 154.960168 239.69952 154.960168 
L 193.792605 154.960168 
Q 191.992605 154.960168 191.992605 156.760168 
L 191.992605 196.259296 
Q 191.992605 198.059296 193.792605 198.059296 
z
" style="fill: #ffffff; opacity: 0.8; stroke: #cccccc; stroke-width: 0.24; stroke-linejoin: miter"/>
    </g>
    <g id="line2d_18">
     <path d="M 195.592605 162.13495 
L 204.592605 162.13495 
L 213.592605 162.13495 
" style="fill: none; stroke: #ff7f0e; stroke-width: 0.5; stroke-linecap: square"/>
    </g>
    <g id="text_16">
     <!-- $\langle \sigma_z\rangle$ -->
     <g transform="translate(220.792605 165.28495) scale(0.09 -0.09)">
      <defs>
       <path id="CMSY10-68" d="M 2099 4557 
C 2131 4627 2131 4640 2131 4672 
C 2131 4742 2074 4800 2003 4800 
C 1946 4800 1901 4768 1856 4653 
L 736 1715 
C 723 1677 704 1638 704 1600 
C 704 1581 704 1568 736 1491 
L 1856 -1446 
C 1882 -1517 1914 -1600 2003 -1600 
C 2074 -1600 2131 -1542 2131 -1472 
C 2131 -1453 2131 -1440 2099 -1370 
L 966 1600 
L 2099 4557 
z
" transform="scale(0.015625)"/>
       <path id="CMMI12-1b" d="M 3251 2408 
C 3334 2408 3546 2408 3546 2612 
C 3546 2752 3424 2752 3309 2752 
L 1894 2752 
C 934 2752 243 1686 243 932 
C 243 390 595 -64 1171 -64 
C 1926 -64 2752 747 2752 1705 
C 2752 1954 2694 2196 2541 2408 
L 3251 2408 
z
M 1178 64 
C 851 64 614 313 614 754 
C 614 1137 845 2408 1786 2408 
C 2061 2408 2368 2274 2368 1781 
C 2368 1558 2266 1021 2042 652 
C 1811 275 1466 64 1178 64 
z
" transform="scale(0.015625)"/>
       <path id="CMMI12-7a" d="M 813 486 
C 1088 803 1312 1004 1632 1296 
C 2016 1632 2182 1793 2272 1891 
C 2720 2338 2944 2713 2944 2764 
C 2944 2816 2893 2816 2880 2816 
C 2835 2816 2822 2793 2790 2750 
C 2630 2494 2477 2367 2310 2367 
C 2176 2367 2106 2421 1984 2565 
C 1850 2715 1741 2816 1555 2816 
C 1088 2816 806 2257 806 2128 
C 806 2108 813 2068 870 2068 
C 922 2068 928 2091 947 2133 
C 1056 2372 1363 2414 1485 2414 
C 1619 2414 1747 2376 1882 2327 
C 2125 2240 2227 2240 2291 2240 
C 2336 2240 2362 2240 2394 2246 
C 2182 1994 1837 1683 1549 1418 
L 902 816 
C 512 415 275 33 275 -12 
C 275 -51 307 -64 346 -64 
C 384 -64 390 -57 435 14 
C 538 163 742 384 979 384 
C 1114 384 1178 342 1306 193 
C 1427 61 1536 -64 1741 -64 
C 2368 -64 2726 732 2726 876 
C 2726 903 2720 942 2656 942 
C 2605 942 2598 917 2579 855 
C 2438 488 2061 338 1811 338 
C 1677 338 1549 376 1414 425 
C 1158 512 1088 512 1005 512 
C 941 512 870 512 813 486 
z
" transform="scale(0.015625)"/>
       <path id="CMSY10-69" d="M 1747 1491 
C 1779 1568 1779 1581 1779 1600 
C 1779 1619 1779 1632 1747 1709 
L 627 4653 
C 589 4762 550 4800 480 4800 
C 410 4800 352 4742 352 4672 
C 352 4653 352 4640 384 4570 
L 1517 1600 
L 384 -1357 
C 352 -1427 352 -1440 352 -1472 
C 352 -1542 410 -1600 480 -1600 
C 563 -1600 589 -1536 614 -1472 
L 1747 1491 
z
" transform="scale(0.015625)"/>
      </defs>
      <use xlink:href="#CMSY10-68" transform="scale(0.996264)"/>
      <use xlink:href="#CMMI12-1b" transform="translate(38.743734 0) scale(0.996264)"/>
      <use xlink:href="#CMMI12-7a" transform="translate(94.189195 -14.943915) scale(0.697382)"/>
      <use xlink:href="#CMSY10-69" transform="translate(129.51575 0) scale(0.996264)"/>
     </g>
    </g>
    <g id="line2d_19">
     <path d="M 195.592605 175.601326 
L 204.592605 175.601326 
L 213.592605 175.601326 
" style="fill: none; stroke: #2ca02c; stroke-width: 0.5; stroke-linecap: square"/>
    </g>
    <g id="text_17">
     <!-- $\langle \sigma_x\rangle$ -->
     <g transform="translate(220.792605 178.751326) scale(0.09 -0.09)">
      <defs>
       <path id="CMMI12-78" d="M 3034 2606 
C 2829 2567 2752 2414 2752 2293 
C 2752 2139 2874 2088 2963 2088 
C 3155 2088 3290 2254 3290 2427 
C 3290 2695 2982 2816 2714 2816 
C 2323 2816 2106 2433 2048 2312 
C 1901 2816 1504 2816 1389 2816 
C 736 2816 390 1980 390 1839 
C 390 1814 416 1782 461 1782 
C 512 1782 525 1820 538 1846 
C 755 2555 1184 2689 1370 2689 
C 1658 2689 1715 2420 1715 2267 
C 1715 2127 1677 1980 1600 1673 
L 1382 798 
C 1286 415 1101 64 762 64 
C 730 64 570 64 435 147 
C 666 192 717 383 717 460 
C 717 588 621 664 499 664 
C 346 664 179 530 179 326 
C 179 57 480 -64 755 -64 
C 1062 -64 1280 179 1414 441 
C 1517 64 1837 -64 2074 -64 
C 2726 -64 3072 773 3072 913 
C 3072 945 3046 971 3008 971 
C 2950 971 2944 939 2925 888 
C 2752 326 2381 64 2093 64 
C 1869 64 1747 230 1747 492 
C 1747 632 1773 734 1875 1156 
L 2099 2024 
C 2195 2408 2413 2689 2707 2689 
C 2720 2689 2899 2689 3034 2606 
z
" transform="scale(0.015625)"/>
      </defs>
      <use xlink:href="#CMSY10-68" transform="scale(0.996264)"/>
      <use xlink:href="#CMMI12-1b" transform="translate(38.743734 0) scale(0.996264)"/>
      <use xlink:href="#CMMI12-78" transform="translate(94.189195 -14.943915) scale(0.697382)"/>
      <use xlink:href="#CMSY10-69" transform="translate(133.490986 0) scale(0.996264)"/>
     </g>
    </g>
    <g id="line2d_20">
     <path d="M 195.592605 189.067702 
L 204.592605 189.067702 
L 213.592605 189.067702 
" style="fill: none; stroke: #d62728; stroke-width: 0.5; stroke-linecap: square"/>
    </g>
    <g id="text_18">
     <!-- $\langle \sigma_y\rangle$ -->
     <g transform="translate(220.792605 192.217702) scale(0.09 -0.09)">
      <defs>
       <path id="CMMI12-79" d="M 1683 -700 
C 1510 -939 1261 -1152 947 -1152 
C 870 -1152 563 -1152 467 -889 
C 486 -895 518 -895 531 -895 
C 723 -895 851 -729 851 -582 
C 851 -435 730 -384 634 -384 
C 531 -384 307 -458 307 -759 
C 307 -1071 582 -1286 947 -1286 
C 1587 -1286 2234 -700 2413 6 
L 3040 2485 
C 3046 2517 3059 2556 3059 2594 
C 3059 2689 2982 2753 2886 2753 
C 2829 2753 2694 2727 2643 2535 
L 2170 658 
C 2138 543 2138 530 2086 460 
C 1958 281 1747 64 1440 64 
C 1082 64 1050 415 1050 588 
C 1050 952 1222 1443 1395 1903 
C 1466 2088 1504 2178 1504 2305 
C 1504 2574 1312 2816 998 2816 
C 410 2816 173 1890 173 1839 
C 173 1814 198 1782 243 1782 
C 301 1782 307 1807 333 1897 
C 486 2433 730 2689 979 2689 
C 1037 2689 1146 2689 1146 2478 
C 1146 2312 1075 2127 979 1884 
C 666 1047 666 837 666 683 
C 666 77 1101 -64 1421 -64 
C 1606 -64 1837 -6 2061 230 
L 2067 224 
C 1971 -147 1907 -392 1683 -700 
z
" transform="scale(0.015625)"/>
      </defs>
      <use xlink:href="#CMSY10-68" transform="scale(0.996264)"/>
      <use xlink:href="#CMMI12-1b" transform="translate(38.743734 0) scale(0.996264)"/>
      <use xlink:href="#CMMI12-79" transform="translate(94.189195 -14.943915) scale(0.697382)"/>
      <use xlink:href="#CMSY10-69" transform="translate(130.484301 0) scale(0.996264)"/>
     </g>
    </g>
   </g>
  </g>
 </g>
 <defs>
  <clipPath id="p6df77c332c">
   <rect x="33.707196" y="7.2" width="212.292324" height="195.359296"/>
  </clipPath>
 </defs>
</svg>
