<?xml version="1.0" encoding="utf-8" standalone="no"?>
<!DOCTYPE svg PUBLIC "-//W3C//DTD SVG 1.1//EN"
  "http://www.w3.org/Graphics/SVG/1.1/DTD/svg11.dtd">
<svg xmlns:xlink="http://www.w3.org/1999/xlink" width="253.19952pt" height="238.79952pt" viewBox="0 0 253.19952 238.79952" xmlns="http://www.w3.org/2000/svg" version="1.1">
 <metadata>
  <rdf:RDF xmlns:dc="http://purl.org/dc/elements/1.1/" xmlns:cc="http://creativecommons.org/ns#" xmlns:rdf="http://www.w3.org/1999/02/22-rdf-syntax-ns#">
   <cc:Work>
    <dc:type rdf:resource="http://purl.org/dc/dcmitype/StillImage"/>
    <dc:date>1980-01-01T00:00:00+00:00</dc:date>
    <dc:format>image/svg+xml</dc:format>
    <dc:creator>
     <cc:Agent>
      <dc:title>Matplotlib v3.6.2, https://matplotlib.org/</dc:title>
     </cc:Agent>
    </dc:creator>
   </cc:Work>
  </rdf:RDF>
 </metadata>
 <defs>
  <style type="text/css">*{stroke-linejoin: round; stroke-linecap: butt}</style>
 </defs>
 <g id="figure_1">
  <g id="patch_1">
   <path d="M 0 238.79952 
L 253.19952 238.79952 
L 253.19952 0 
L 0 0 
z
" style="fill: #ffffff"/>
  </g>
  <g id="axes_1">
   <g id="patch_2">
    <path d="M 33.707196 202.559296 
L 245.99952 202.559296 
L 245.99952 7.2 
L 33.707196 7.2 
z
" style="fill: #ffffff"/>
   </g>
   <g id="matplotlib.axis_1">
    <g id="xtick_1">
     <g id="line2d_1">
      <defs>
       <path id="m8faea056f3" d="M 0 0 
L 0 3.5 
" style="stroke: #000000; stroke-width: 0.8"/>
      </defs>
      <g>
       <use xlink:href="#m8faea056f3" x="43.356847" y="202.559296" style="stroke: #000000; stroke-width: 0.8"/>
      </g>
     </g>
     <g id="text_1">
      <!-- $\mathdefault{0}$ -->
      <g transform="translate(41.239756 217.194098) scale(0.08 -0.08)">
       <defs>
        <path id="CMR17-30" d="M 2688 2025 
C 2688 2416 2682 3080 2413 3591 
C 2176 4039 1798 4198 1466 4198 
C 1158 4198 768 4058 525 3597 
C 269 3118 243 2524 243 2025 
C 243 1661 250 1106 448 619 
C 723 -39 1216 -128 1466 -128 
C 1760 -128 2208 -7 2470 600 
C 2662 1042 2688 1559 2688 2025 
z
M 1466 -26 
C 1056 -26 813 325 723 812 
C 653 1188 653 1738 653 2096 
C 653 2588 653 2997 736 3387 
C 858 3929 1216 4096 1466 4096 
C 1728 4096 2067 3923 2189 3400 
C 2272 3036 2278 2607 2278 2096 
C 2278 1680 2278 1169 2202 792 
C 2067 95 1690 -26 1466 -26 
z
" transform="scale(0.015625)"/>
       </defs>
       <use xlink:href="#CMR17-30" transform="scale(0.996264)"/>
      </g>
     </g>
    </g>
    <g id="xtick_2">
     <g id="line2d_2">
      <g>
       <use xlink:href="#m8faea056f3" x="70.161434" y="202.559296" style="stroke: #000000; stroke-width: 0.8"/>
      </g>
     </g>
     <g id="text_2">
      <!-- $\mathdefault{25}$ -->
      <g transform="translate(65.927251 217.194098) scale(0.08 -0.08)">
       <defs>
        <path id="CMR17-32" d="M 2669 989 
L 2554 989 
C 2490 536 2438 459 2413 420 
C 2381 369 1920 369 1830 369 
L 602 369 
C 832 619 1280 1072 1824 1597 
C 2214 1967 2669 2402 2669 3035 
C 2669 3790 2067 4224 1395 4224 
C 691 4224 262 3604 262 3030 
C 262 2780 448 2748 525 2748 
C 589 2748 781 2787 781 3010 
C 781 3207 614 3264 525 3264 
C 486 3264 448 3258 422 3245 
C 544 3790 915 4058 1306 4058 
C 1862 4058 2227 3617 2227 3035 
C 2227 2479 1901 2000 1536 1584 
L 262 146 
L 262 0 
L 2515 0 
L 2669 989 
z
" transform="scale(0.015625)"/>
        <path id="CMR17-35" d="M 730 3692 
C 794 3666 1056 3584 1325 3584 
C 1920 3584 2246 3911 2432 4100 
C 2432 4157 2432 4192 2394 4192 
C 2387 4192 2374 4192 2323 4163 
C 2099 4058 1837 3973 1517 3973 
C 1325 3973 1037 3999 723 4139 
C 653 4171 640 4171 634 4171 
C 602 4171 595 4164 595 4037 
L 595 2203 
C 595 2089 595 2057 659 2057 
C 691 2057 704 2070 736 2114 
C 941 2401 1222 2522 1542 2522 
C 1766 2522 2246 2382 2246 1289 
C 2246 1085 2246 715 2054 421 
C 1894 159 1645 25 1370 25 
C 947 25 518 320 403 814 
C 429 807 480 795 506 795 
C 589 795 749 840 749 1038 
C 749 1210 627 1280 506 1280 
C 358 1280 262 1190 262 1011 
C 262 454 704 -128 1382 -128 
C 2042 -128 2669 440 2669 1264 
C 2669 2030 2170 2624 1549 2624 
C 1222 2624 947 2503 730 2274 
L 730 3692 
z
" transform="scale(0.015625)"/>
       </defs>
       <use xlink:href="#CMR17-32" transform="scale(0.996264)"/>
       <use xlink:href="#CMR17-35" transform="translate(45.690477 0) scale(0.996264)"/>
      </g>
     </g>
    </g>
    <g id="xtick_3">
     <g id="line2d_3">
      <g>
       <use xlink:href="#m8faea056f3" x="96.96602" y="202.559296" style="stroke: #000000; stroke-width: 0.8"/>
      </g>
     </g>
     <g id="text_3">
      <!-- $\mathdefault{50}$ -->
      <g transform="translate(92.731837 217.194098) scale(0.08 -0.08)">
       <use xlink:href="#CMR17-35" transform="scale(0.996264)"/>
       <use xlink:href="#CMR17-30" transform="translate(45.690477 0) scale(0.996264)"/>
      </g>
     </g>
    </g>
    <g id="xtick_4">
     <g id="line2d_4">
      <g>
       <use xlink:href="#m8faea056f3" x="123.770606" y="202.559296" style="stroke: #000000; stroke-width: 0.8"/>
      </g>
     </g>
     <g id="text_4">
      <!-- $\mathdefault{75}$ -->
      <g transform="translate(119.536423 217.194098) scale(0.08 -0.08)">
       <defs>
        <path id="CMR17-37" d="M 2886 3941 
L 2886 4081 
L 1382 4081 
C 634 4081 621 4165 595 4288 
L 480 4288 
L 294 3094 
L 410 3094 
C 429 3215 474 3540 550 3661 
C 589 3712 1062 3712 1171 3712 
L 2579 3712 
L 1869 2661 
C 1395 1954 1069 999 1069 165 
C 1069 89 1069 -128 1299 -128 
C 1530 -128 1530 89 1530 171 
L 1530 465 
C 1530 1508 1709 2196 2003 2636 
L 2886 3941 
z
" transform="scale(0.015625)"/>
       </defs>
       <use xlink:href="#CMR17-37" transform="scale(0.996264)"/>
       <use xlink:href="#CMR17-35" transform="translate(45.690477 0) scale(0.996264)"/>
      </g>
     </g>
    </g>
    <g id="xtick_5">
     <g id="line2d_5">
      <g>
       <use xlink:href="#m8faea056f3" x="150.575193" y="202.559296" style="stroke: #000000; stroke-width: 0.8"/>
      </g>
     </g>
     <g id="text_5">
      <!-- $\mathdefault{100}$ -->
      <g transform="translate(144.223918 217.194098) scale(0.08 -0.08)">
       <defs>
        <path id="CMR17-31" d="M 1702 4058 
C 1702 4192 1696 4192 1606 4192 
C 1357 3916 979 3827 621 3827 
C 602 3827 570 3827 563 3808 
C 557 3795 557 3782 557 3648 
C 755 3648 1088 3686 1344 3839 
L 1344 461 
C 1344 236 1331 160 781 160 
L 589 160 
L 589 0 
C 896 0 1216 0 1523 0 
C 1830 0 2150 0 2458 0 
L 2458 160 
L 2266 160 
C 1715 160 1702 230 1702 458 
L 1702 4058 
z
" transform="scale(0.015625)"/>
       </defs>
       <use xlink:href="#CMR17-31" transform="scale(0.996264)"/>
       <use xlink:href="#CMR17-30" transform="translate(45.690477 0) scale(0.996264)"/>
       <use xlink:href="#CMR17-30" transform="translate(91.380954 0) scale(0.996264)"/>
      </g>
     </g>
    </g>
    <g id="xtick_6">
     <g id="line2d_6">
      <g>
       <use xlink:href="#m8faea056f3" x="177.379779" y="202.559296" style="stroke: #000000; stroke-width: 0.8"/>
      </g>
     </g>
     <g id="text_6">
      <!-- $\mathdefault{125}$ -->
      <g transform="translate(171.028505 217.194098) scale(0.08 -0.08)">
       <use xlink:href="#CMR17-31" transform="scale(0.996264)"/>
       <use xlink:href="#CMR17-32" transform="translate(45.690477 0) scale(0.996264)"/>
       <use xlink:href="#CMR17-35" transform="translate(91.380954 0) scale(0.996264)"/>
      </g>
     </g>
    </g>
    <g id="xtick_7">
     <g id="line2d_7">
      <g>
       <use xlink:href="#m8faea056f3" x="204.184365" y="202.559296" style="stroke: #000000; stroke-width: 0.8"/>
      </g>
     </g>
     <g id="text_7">
      <!-- $\mathdefault{150}$ -->
      <g transform="translate(197.833091 217.194098) scale(0.08 -0.08)">
       <use xlink:href="#CMR17-31" transform="scale(0.996264)"/>
       <use xlink:href="#CMR17-35" transform="translate(45.690477 0) scale(0.996264)"/>
       <use xlink:href="#CMR17-30" transform="translate(91.380954 0) scale(0.996264)"/>
      </g>
     </g>
    </g>
    <g id="xtick_8">
     <g id="line2d_8">
      <g>
       <use xlink:href="#m8faea056f3" x="230.988952" y="202.559296" style="stroke: #000000; stroke-width: 0.8"/>
      </g>
     </g>
     <g id="text_8">
      <!-- $\mathdefault{175}$ -->
      <g transform="translate(224.637677 217.194098) scale(0.08 -0.08)">
       <use xlink:href="#CMR17-31" transform="scale(0.996264)"/>
       <use xlink:href="#CMR17-37" transform="translate(45.690477 0) scale(0.996264)"/>
       <use xlink:href="#CMR17-35" transform="translate(91.380954 0) scale(0.996264)"/>
      </g>
     </g>
    </g>
    <g id="text_9">
     <!-- $\tau$ -->
     <g transform="translate(137.675756 229.662342) scale(0.1 -0.1)">
      <defs>
       <path id="CMMI12-1c" d="M 1837 2408 
L 2899 2408 
C 2982 2408 3194 2408 3194 2612 
C 3194 2752 3072 2752 2957 2752 
L 1197 2752 
C 1050 2752 832 2752 538 2440 
C 371 2255 166 1917 166 1879 
C 166 1841 198 1828 237 1828 
C 282 1828 288 1847 320 1885 
C 653 2408 986 2408 1146 2408 
L 1677 2408 
L 1011 223 
C 979 127 979 114 979 95 
C 979 25 1024 -64 1152 -64 
C 1350 -64 1382 108 1402 203 
L 1837 2408 
z
" transform="scale(0.015625)"/>
      </defs>
      <use xlink:href="#CMMI12-1c" transform="scale(0.996264)"/>
     </g>
    </g>
   </g>
   <g id="matplotlib.axis_2">
    <g id="ytick_1">
     <g id="line2d_9">
      <defs>
       <path id="m0cf34c1605" d="M 0 0 
L -3.5 0 
" style="stroke: #000000; stroke-width: 0.8"/>
      </defs>
      <g>
       <use xlink:href="#m0cf34c1605" x="33.707196" y="193.679328" style="stroke: #000000; stroke-width: 0.8"/>
      </g>
     </g>
     <g id="text_10">
      <!-- $\mathdefault{−1.0}$ -->
      <g transform="translate(7.2 196.446729) scale(0.08 -0.08)">
       <defs>
        <path id="CMSY10-0" d="M 4218 1472 
C 4326 1472 4442 1472 4442 1600 
C 4442 1728 4326 1728 4218 1728 
L 755 1728 
C 646 1728 531 1728 531 1600 
C 531 1472 646 1472 755 1472 
L 4218 1472 
z
" transform="scale(0.015625)"/>
        <path id="CMMI12-3a" d="M 1178 307 
C 1178 492 1024 619 870 619 
C 685 619 557 466 557 313 
C 557 128 710 0 864 0 
C 1050 0 1178 153 1178 307 
z
" transform="scale(0.015625)"/>
       </defs>
       <use xlink:href="#CMSY10-0" transform="scale(0.996264)"/>
       <use xlink:href="#CMR17-31" transform="translate(77.487468 0) scale(0.996264)"/>
       <use xlink:href="#CMMI12-3a" transform="translate(123.177945 0) scale(0.996264)"/>
       <use xlink:href="#CMR17-30" transform="translate(150.275122 0) scale(0.996264)"/>
      </g>
     </g>
    </g>
    <g id="ytick_2">
     <g id="line2d_10">
      <g>
       <use xlink:href="#m0cf34c1605" x="33.707196" y="158.362754" style="stroke: #000000; stroke-width: 0.8"/>
      </g>
     </g>
     <g id="text_11">
      <!-- $\mathdefault{−0.8}$ -->
      <g transform="translate(7.2 161.130155) scale(0.08 -0.08)">
       <defs>
        <path id="CMR17-38" d="M 1741 2264 
C 2144 2467 2554 2773 2554 3263 
C 2554 3841 1990 4179 1472 4179 
C 890 4179 378 3759 378 3180 
C 378 3021 416 2747 666 2505 
C 730 2442 998 2251 1171 2130 
C 883 1983 211 1634 211 934 
C 211 279 838 -128 1459 -128 
C 2144 -128 2720 362 2720 1010 
C 2720 1590 2330 1857 2074 2029 
L 1741 2264 
z
M 902 2822 
C 851 2854 595 3051 595 3351 
C 595 3739 998 4032 1459 4032 
C 1965 4032 2336 3676 2336 3262 
C 2336 2669 1670 2331 1638 2331 
C 1632 2331 1626 2331 1574 2370 
L 902 2822 
z
M 2080 1519 
C 2176 1449 2483 1240 2483 851 
C 2483 381 2010 25 1472 25 
C 890 25 448 438 448 940 
C 448 1443 838 1862 1280 2060 
L 2080 1519 
z
" transform="scale(0.015625)"/>
       </defs>
       <use xlink:href="#CMSY10-0" transform="scale(0.996264)"/>
       <use xlink:href="#CMR17-30" transform="translate(77.487468 0) scale(0.996264)"/>
       <use xlink:href="#CMMI12-3a" transform="translate(123.177945 0) scale(0.996264)"/>
       <use xlink:href="#CMR17-38" transform="translate(150.275122 0) scale(0.996264)"/>
      </g>
     </g>
    </g>
    <g id="ytick_3">
     <g id="line2d_11">
      <g>
       <use xlink:href="#m0cf34c1605" x="33.707196" y="123.046179" style="stroke: #000000; stroke-width: 0.8"/>
      </g>
     </g>
     <g id="text_12">
      <!-- $\mathdefault{−0.6}$ -->
      <g transform="translate(7.2 125.81358) scale(0.08 -0.08)">
       <defs>
        <path id="CMR17-36" d="M 678 2176 
C 678 3690 1395 4032 1811 4032 
C 1946 4032 2272 4009 2400 3776 
C 2298 3776 2106 3776 2106 3553 
C 2106 3381 2246 3323 2336 3323 
C 2394 3323 2566 3348 2566 3560 
C 2566 3954 2246 4179 1805 4179 
C 1043 4179 243 3390 243 1984 
C 243 253 966 -128 1478 -128 
C 2099 -128 2688 427 2688 1283 
C 2688 2081 2170 2662 1517 2662 
C 1126 2662 838 2407 678 1960 
L 678 2176 
z
M 1478 25 
C 691 25 691 1200 691 1436 
C 691 1896 909 2560 1504 2560 
C 1613 2560 1926 2560 2138 2120 
C 2253 1870 2253 1609 2253 1289 
C 2253 944 2253 690 2118 434 
C 1978 171 1773 25 1478 25 
z
" transform="scale(0.015625)"/>
       </defs>
       <use xlink:href="#CMSY10-0" transform="scale(0.996264)"/>
       <use xlink:href="#CMR17-30" transform="translate(77.487468 0) scale(0.996264)"/>
       <use xlink:href="#CMMI12-3a" transform="translate(123.177945 0) scale(0.996264)"/>
       <use xlink:href="#CMR17-36" transform="translate(150.275122 0) scale(0.996264)"/>
      </g>
     </g>
    </g>
    <g id="ytick_4">
     <g id="line2d_12">
      <g>
       <use xlink:href="#m0cf34c1605" x="33.707196" y="87.729605" style="stroke: #000000; stroke-width: 0.8"/>
      </g>
     </g>
     <g id="text_13">
      <!-- $\mathdefault{−0.4}$ -->
      <g transform="translate(7.2 90.497006) scale(0.08 -0.08)">
       <defs>
        <path id="CMR17-34" d="M 2150 4122 
C 2150 4256 2144 4256 2029 4256 
L 128 1254 
L 128 1088 
L 1779 1088 
L 1779 457 
C 1779 224 1766 160 1318 160 
L 1197 160 
L 1197 0 
C 1402 0 1747 0 1965 0 
C 2182 0 2528 0 2733 0 
L 2733 160 
L 2611 160 
C 2163 160 2150 224 2150 457 
L 2150 1088 
L 2803 1088 
L 2803 1254 
L 2150 1254 
L 2150 4122 
z
M 1798 3703 
L 1798 1254 
L 256 1254 
L 1798 3703 
z
" transform="scale(0.015625)"/>
       </defs>
       <use xlink:href="#CMSY10-0" transform="scale(0.996264)"/>
       <use xlink:href="#CMR17-30" transform="translate(77.487468 0) scale(0.996264)"/>
       <use xlink:href="#CMMI12-3a" transform="translate(123.177945 0) scale(0.996264)"/>
       <use xlink:href="#CMR17-34" transform="translate(150.275122 0) scale(0.996264)"/>
      </g>
     </g>
    </g>
    <g id="ytick_5">
     <g id="line2d_13">
      <g>
       <use xlink:href="#m0cf34c1605" x="33.707196" y="52.413031" style="stroke: #000000; stroke-width: 0.8"/>
      </g>
     </g>
     <g id="text_14">
      <!-- $\mathdefault{−0.2}$ -->
      <g transform="translate(7.2 55.180432) scale(0.08 -0.08)">
       <use xlink:href="#CMSY10-0" transform="scale(0.996264)"/>
       <use xlink:href="#CMR17-30" transform="translate(77.487468 0) scale(0.996264)"/>
       <use xlink:href="#CMMI12-3a" transform="translate(123.177945 0) scale(0.996264)"/>
       <use xlink:href="#CMR17-32" transform="translate(150.275122 0) scale(0.996264)"/>
      </g>
     </g>
    </g>
    <g id="ytick_6">
     <g id="line2d_14">
      <g>
       <use xlink:href="#m0cf34c1605" x="33.707196" y="17.096457" style="stroke: #000000; stroke-width: 0.8"/>
      </g>
     </g>
     <g id="text_15">
      <!-- $\mathdefault{0.0}$ -->
      <g transform="translate(13.786507 19.863858) scale(0.08 -0.08)">
       <use xlink:href="#CMR17-30" transform="scale(0.996264)"/>
       <use xlink:href="#CMMI12-3a" transform="translate(45.690477 0) scale(0.996264)"/>
       <use xlink:href="#CMR17-30" transform="translate(72.787654 0) scale(0.996264)"/>
      </g>
     </g>
    </g>
   </g>
   <g id="line2d_15">
    <path d="M 43.356847 193.679328 
L 52.684843 193.589678 
L 53.006498 193.37521 
L 53.328153 192.861255 
L 53.649808 191.826193 
L 53.971463 190.001009 
L 54.357449 186.376862 
L 54.807767 179.808301 
L 55.386746 167.732347 
L 58.024317 106.660668 
L 58.731958 96.793402 
L 59.568261 88.419076 
L 60.468895 81.248791 
L 61.369529 75.759473 
L 62.205832 72.132299 
L 63.170797 68.651163 
L 63.814108 67.304583 
L 65.22939 64.651206 
L 65.8727 63.658687 
L 67.287982 62.076523 
L 68.638933 61.455675 
L 69.925553 61.603294 
L 70.247208 62.069769 
L 71.791152 64.864512 
L 72.820449 66.414461 
L 73.335097 66.819058 
L 73.978407 67.033567 
L 75.007703 67.083772 
L 86.522953 67.223065 
L 86.908939 67.651079 
L 87.294925 68.50806 
L 87.745242 70.114228 
L 88.195559 72.666798 
L 88.710207 77.031771 
L 89.675172 87.73638 
L 91.476441 107.51805 
L 92.312744 114.698458 
L 93.277709 121.207687 
L 93.98535 124.551575 
L 94.950315 127.959941 
L 95.979611 130.782326 
L 97.008907 132.885353 
L 97.84521 134.248621 
L 98.424189 134.806168 
L 99.324824 135.450443 
L 100.868768 136.429373 
L 101.576409 137.16719 
L 101.962395 137.901106 
L 102.477043 139.52623 
L 103.442008 143.624486 
L 104.599966 148.50181 
L 105.178945 150.10445 
L 105.693593 150.945714 
L 106.14391 151.29941 
L 106.722889 151.448595 
L 108.138172 151.470409 
L 117.080182 151.377636 
L 117.466168 151.127094 
L 117.787823 150.621889 
L 118.109478 149.645927 
L 118.495464 147.570948 
L 118.945781 143.592669 
L 119.460429 136.832266 
L 120.296732 122.431831 
L 121.712014 98.094802 
L 122.419655 89.827001 
L 123.448951 80.724568 
L 124.542578 74.263998 
L 125.121557 71.907177 
L 125.89353 69.150028 
L 126.53684 66.673632 
L 127.18015 65.473623 
L 128.016453 63.885606 
L 128.402439 63.327076 
L 130.654024 61.453677 
L 130.975679 61.629651 
L 131.297334 61.774274 
L 131.618989 61.624659 
L 132.841278 60.872749 
L 133.61325 61.369119 
L 134.192229 61.905916 
L 135.350188 63.376072 
L 136.829801 66.09556 
L 137.537442 66.799807 
L 138.116421 67.067925 
L 138.952724 67.171182 
L 144.613853 67.176246 
L 150.725298 67.255055 
L 151.111284 67.593336 
L 151.49727 68.302062 
L 151.883256 69.476185 
L 152.333573 71.728678 
L 152.912553 75.957225 
L 153.620194 82.852619 
L 156.450758 112.999586 
L 157.480054 120.334414 
L 158.316357 124.736263 
L 159.023998 127.321656 
L 160.117625 130.276947 
L 161.146921 132.695182 
L 162.111887 134.361096 
L 162.94819 135.219152 
L 163.398507 135.540291 
L 165.006782 136.113772 
L 165.457099 136.522164 
L 166.036078 137.374094 
L 166.550726 138.567121 
L 167.129705 140.618515 
L 168.030339 144.725517 
L 168.930973 148.58563 
L 169.509952 150.212364 
L 170.0246 151.06252 
L 170.474918 151.416658 
L 171.053897 151.571539 
L 172.469179 151.593771 
L 181.411189 151.500785 
L 181.797175 151.241629 
L 182.11883 150.717228 
L 182.440485 149.753047 
L 182.826471 147.725654 
L 183.276788 143.74693 
L 183.791436 136.974218 
L 184.627739 122.480299 
L 185.914359 100.32305 
L 186.686331 90.340035 
L 187.522634 82.594186 
L 188.037282 79.40604 
L 190.031544 70.16035 
L 190.803516 67.832616 
L 191.575488 65.788045 
L 192.218798 64.08325 
L 192.733446 63.366186 
L 193.505418 62.745674 
L 194.213059 61.952539 
L 194.727707 61.692696 
L 195.56401 61.622697 
L 196.142989 61.219128 
L 196.528975 61.010287 
L 196.979292 60.898792 
L 197.493941 60.615205 
L 197.751265 60.748642 
L 198.137251 61.334208 
L 198.71623 62.181969 
L 199.681195 63.149245 
L 200.64616 64.848601 
L 201.611125 66.066256 
L 202.254435 66.46419 
L 202.962076 66.628344 
L 204.50602 66.654398 
L 215.184968 66.755274 
L 215.570954 67.15417 
L 215.95694 67.952118 
L 216.342926 69.404903 
L 216.793243 72.072708 
L 217.436553 77.445529 
L 218.272856 86.545274 
L 220.202786 108.281951 
L 221.10342 115.743587 
L 222.004054 121.337159 
L 222.840357 125.183186 
L 223.805323 128.758713 
L 224.770288 131.322342 
L 225.670922 133.063524 
L 226.82888 134.726141 
L 227.600852 135.36193 
L 230.238423 137.079337 
L 230.68874 137.970367 
L 231.139057 139.412842 
L 232.039691 143.394446 
L 233.390643 149.047603 
L 233.969622 150.508334 
L 234.419939 151.15287 
L 234.934587 151.501439 
L 235.577897 151.615277 
L 236.349869 151.623468 
L 236.349869 151.623468 
" clip-path="url(#p82336814fb)" style="fill: none; stroke: #ff7f0e; stroke-width: 0.5; stroke-linecap: square"/>
   </g>
   <g id="line2d_16">
    <path d="M 43.356847 17.096457 
L 53.77847 16.991464 
L 54.743436 16.859993 
L 55.515408 17.078819 
L 56.351711 17.23802 
L 56.802028 17.180624 
L 57.252345 16.926783 
L 57.895655 16.548384 
L 58.281641 16.63857 
L 59.568261 17.246466 
L 60.14724 16.924895 
L 60.79055 16.65982 
L 61.176536 16.806672 
L 62.012839 17.178675 
L 62.849142 17.242284 
L 63.299459 17.05478 
L 64.071432 16.688076 
L 64.457418 16.653622 
L 64.779073 16.881417 
L 65.744038 17.751192 
L 66.194355 17.929841 
L 66.51601 17.807551 
L 67.673968 16.95704 
L 68.059954 17.063257 
L 68.831926 17.400489 
L 69.153581 17.265198 
L 70.37587 16.397371 
L 70.890518 16.572111 
L 72.241469 17.19841 
L 72.756118 17.049828 
L 73.592421 16.780089 
L 74.107069 16.882699 
L 75.45802 17.395882 
L 75.972668 17.21814 
L 77.001964 16.791807 
L 77.516612 16.893027 
L 78.996225 17.399904 
L 79.639535 17.254235 
L 81.183479 16.803418 
L 82.019783 16.835506 
L 83.306403 17.152942 
L 84.528692 17.388564 
L 85.557988 17.332225 
L 87.61658 16.882122 
L 88.195559 16.771434 
L 88.710207 16.98365 
L 89.675172 17.420306 
L 91.540772 17.800005 
L 93.406371 17.277708 
L 94.435667 16.582089 
L 95.078977 16.467584 
L 95.979611 16.677191 
L 96.944576 17.070179 
L 97.523555 17.228329 
L 98.166865 17.376144 
L 99.260493 17.435757 
L 100.611444 16.852411 
L 101.254754 16.605412 
L 101.64074 16.717348 
L 102.605705 17.016422 
L 103.442008 17.227327 
L 104.149649 17.102249 
L 105.757924 16.96432 
L 106.915882 17.001276 
L 110.196764 17.18664 
L 112.577011 17.017175 
L 114.185286 17.206028 
L 116.115216 17.029852 
L 117.401837 17.199836 
L 119.331767 17.034509 
L 119.975077 17.114582 
L 121.261697 16.941171 
L 122.612648 17.256041 
L 124.092261 16.910962 
L 124.67124 16.615824 
L 124.928564 16.692305 
L 125.443212 17.228999 
L 126.086523 17.789556 
L 126.408178 17.806712 
L 126.665502 17.560377 
L 127.566136 16.333763 
L 127.82346 16.461252 
L 128.659763 17.069959 
L 129.045749 17.06767 
L 129.560397 17.059761 
L 130.654024 17.295686 
L 131.104341 17.282666 
L 131.68332 16.946139 
L 132.519623 16.410114 
L 132.776947 16.520055 
L 133.870574 17.461679 
L 134.127898 17.347117 
L 135.092864 16.536149 
L 135.350188 16.689686 
L 135.736174 17.316153 
L 136.250822 18.132135 
L 136.508146 18.242982 
L 136.76547 18.112218 
L 137.087125 17.647398 
L 137.987759 16.156121 
L 138.245083 16.094993 
L 138.502407 16.263363 
L 138.888393 16.848455 
L 139.596034 17.989274 
L 139.917689 18.107956 
L 140.175013 17.946261 
L 140.560999 17.368386 
L 141.332971 16.167907 
L 141.590295 16.080787 
L 141.847619 16.205258 
L 142.233605 16.700633 
L 143.134239 17.98268 
L 143.455894 18.112634 
L 143.77755 18.0227 
L 144.227867 17.623647 
L 145.578818 16.235629 
L 146.093466 16.080685 
L 146.608114 16.18214 
L 147.187093 16.543959 
L 149.245685 18.086122 
L 149.760333 18.085596 
L 150.21065 17.906219 
L 150.85396 17.357709 
L 151.883256 16.505154 
L 152.526567 16.309559 
L 153.298539 16.315198 
L 153.813187 16.660173 
L 154.971145 17.505193 
L 155.807448 17.672957 
L 156.901075 17.30645 
L 158.445019 16.827985 
L 159.345653 16.927853 
L 160.632273 17.472049 
L 161.08259 17.604924 
L 161.66157 17.400723 
L 162.176218 17.252151 
L 165.778754 17.141765 
L 167.194036 16.888401 
L 168.73798 17.048696 
L 170.925235 17.161911 
L 172.726503 17.145957 
L 175.685729 17.053819 
L 177.615659 17.148213 
L 179.288266 17.03847 
L 181.025203 17.148478 
L 182.376154 17.067172 
L 183.276788 17.059595 
L 184.434746 16.853583 
L 185.013725 17.046639 
L 185.528373 17.209817 
L 185.914359 17.025774 
L 186.943655 16.428722 
L 187.26531 16.64075 
L 188.101613 17.322006 
L 188.4876 17.342431 
L 188.809255 17.082752 
L 189.581227 16.261105 
L 189.838551 16.334369 
L 190.224537 16.770343 
L 190.803516 17.487265 
L 191.06084 17.506694 
L 191.446826 17.245824 
L 192.090136 16.810034 
L 192.411791 16.857496 
L 193.63408 17.415123 
L 194.534714 17.404851 
L 195.306686 17.316719 
L 195.885665 17.386767 
L 197.879927 17.047532 
L 198.844892 16.632069 
L 199.230878 16.675451 
L 199.745526 17.097305 
L 200.195843 17.336435 
L 200.581829 17.285407 
L 201.868449 16.82156 
L 202.383097 16.947046 
L 203.605386 17.351252 
L 204.120034 17.218333 
L 205.213661 16.840285 
L 205.728309 16.939417 
L 207.079261 17.351567 
L 207.722571 17.215477 
L 209.137853 16.844966 
L 209.974156 16.903684 
L 212.933382 17.332538 
L 214.09134 17.115164 
L 215.506623 16.858048 
L 216.214264 16.969921 
L 217.693877 17.507196 
L 218.144194 17.469377 
L 219.17349 17.014449 
L 220.138455 16.692694 
L 221.039089 16.691619 
L 221.425075 16.865183 
L 222.132716 17.330132 
L 222.969019 17.730159 
L 223.869654 18.122654 
L 224.577295 18.085491 
L 225.413598 17.753828 
L 226.571556 17.390603 
L 227.343528 17.289946 
L 228.051169 16.999193 
L 229.273458 16.990026 
L 229.852437 16.998712 
L 230.367085 17.025956 
L 232.297015 16.88765 
L 233.261981 16.967029 
L 235.191911 17.261756 
L 236.349869 17.207327 
L 236.349869 17.207327 
" clip-path="url(#p82336814fb)" style="fill: none; stroke: #2ca02c; stroke-width: 0.5; stroke-linecap: square"/>
   </g>
   <g id="line2d_17">
    <path d="M 43.356847 17.096457 
L 53.77847 17.200229 
L 54.486111 17.200199 
L 55.708401 16.969864 
L 56.480373 17.158863 
L 57.252345 17.45819 
L 57.574 17.333257 
L 58.667627 16.690042 
L 58.989282 16.771087 
L 60.211571 17.368937 
L 60.533226 17.145913 
L 61.047874 16.702838 
L 61.369529 16.711791 
L 62.334494 17.062207 
L 62.72048 17.111379 
L 63.36379 17.457792 
L 64.071432 17.325278 
L 64.393087 17.098576 
L 65.100728 16.461987 
L 65.486714 16.626369 
L 65.937031 16.946796 
L 66.837665 17.755357 
L 67.094989 17.731992 
L 67.416644 17.380063 
L 67.995623 16.799964 
L 68.317278 16.704018 
L 68.638933 16.846197 
L 69.603898 17.517032 
L 70.118546 17.299913 
L 71.083511 16.728658 
L 71.469497 16.781026 
L 72.949111 17.353491 
L 73.592421 17.111424 
L 74.428724 16.791691 
L 74.879041 16.861013 
L 76.422985 17.374524 
L 77.001964 17.120631 
L 77.773936 16.802753 
L 78.288584 16.841614 
L 79.253549 17.241337 
L 79.96119 17.399767 
L 80.668831 17.32535 
L 83.370734 16.800042 
L 84.335699 16.974428 
L 86.072636 17.357459 
L 86.97327 17.335848 
L 88.066897 17.063196 
L 88.9032 16.966523 
L 91.026124 17.119592 
L 92.570068 17.456663 
L 93.406371 17.295384 
L 94.62866 16.877976 
L 95.336301 16.824522 
L 96.944576 16.962536 
L 98.231196 17.397999 
L 98.874506 17.475953 
L 99.517817 17.385651 
L 100.482782 17.121098 
L 101.126092 16.844178 
L 102.348381 16.69267 
L 103.056022 16.83495 
L 104.471304 17.145321 
L 105.629262 17.131678 
L 108.395496 16.98584 
L 111.805039 17.130546 
L 113.15599 16.970991 
L 114.120955 17.157609 
L 114.892927 17.221505 
L 115.922223 17.012591 
L 116.629864 16.98686 
L 118.431133 17.158028 
L 119.846415 17.088323 
L 120.747049 17.192033 
L 121.133035 17.095497 
L 121.647683 16.896308 
L 122.033669 17.104836 
L 122.483986 17.283534 
L 122.805641 17.125658 
L 123.191627 16.966631 
L 123.577613 17.077209 
L 124.285254 17.49891 
L 124.542578 17.281631 
L 125.250219 16.485714 
L 125.636205 16.520224 
L 125.957861 16.735097 
L 126.343847 17.31985 
L 126.858495 18.136327 
L 127.051488 18.071306 
L 127.373143 17.536277 
L 127.82346 16.793158 
L 128.145115 16.677493 
L 128.531101 16.820434 
L 129.174411 17.05792 
L 129.817721 16.97873 
L 130.203707 17.062632 
L 130.782686 17.001827 
L 131.747651 17.587135 
L 132.133637 17.438698 
L 132.583954 16.899445 
L 133.034271 16.454502 
L 133.291595 16.502213 
L 133.61325 16.852692 
L 134.25656 17.661687 
L 134.513884 17.672568 
L 134.771209 17.459482 
L 135.800505 16.16629 
L 136.057829 16.332766 
L 136.443815 17.007618 
L 137.087125 18.086216 
L 137.344449 18.18127 
L 137.601773 18.030023 
L 137.987759 17.465756 
L 138.824062 16.14914 
L 139.081386 16.086643 
L 139.33871 16.25284 
L 139.724696 16.836237 
L 140.496668 18.036652 
L 140.753992 18.109266 
L 141.011316 17.956332 
L 141.397302 17.3996 
L 142.169274 16.209029 
L 142.490929 16.0803 
L 142.812584 16.232932 
L 143.262901 16.779169 
L 144.163536 17.919068 
L 144.613853 18.110971 
L 144.999839 18.03912 
L 145.514487 17.69387 
L 147.444417 16.136079 
L 147.959065 16.090472 
L 148.473713 16.272015 
L 149.181354 16.809092 
L 150.467974 17.839583 
L 151.046953 17.994711 
L 151.625932 17.911703 
L 152.076249 17.60107 
L 153.684525 16.249566 
L 154.134842 16.319321 
L 155.099807 16.9077 
L 155.93611 17.460458 
L 156.57942 17.567421 
L 157.351392 17.565487 
L 157.86604 17.551463 
L 158.380688 17.572968 
L 158.959667 17.321786 
L 159.924632 16.887802 
L 160.760935 17.012052 
L 163.398507 17.232865 
L 166.422064 16.815518 
L 167.966008 17.20592 
L 170.217593 17.022193 
L 175.878722 17.012764 
L 177.03668 17.091812 
L 178.3233 17.166683 
L 180.381893 17.073483 
L 181.604182 17.153179 
L 182.890802 17.07286 
L 184.113091 17.271192 
L 185.271049 16.774417 
L 185.592704 17.149448 
L 186.043021 17.614617 
L 186.300345 17.599901 
L 186.622 17.273751 
L 187.329641 16.518581 
L 187.586965 16.571958 
L 188.358938 17.281972 
L 188.873586 17.756016 
L 189.195241 17.703209 
L 189.452565 17.42651 
L 190.160206 16.492577 
L 190.41753 16.46556 
L 190.674854 16.683527 
L 191.446826 17.603743 
L 191.70415 17.57515 
L 192.025805 17.273803 
L 192.669115 16.60212 
L 192.926439 16.610886 
L 194.727707 17.348564 
L 195.113693 17.040745 
L 195.371017 16.941149 
L 197.300948 17.199169 
L 197.686934 17.221981 
L 198.394575 17.420711 
L 198.780561 17.232237 
L 199.616864 16.606634 
L 199.938519 16.817994 
L 200.581829 17.266579 
L 201.096477 17.364775 
L 201.611125 17.210095 
L 202.640421 16.833554 
L 203.155069 16.927923 
L 204.50602 17.346328 
L 205.084999 17.164633 
L 205.985634 16.845104 
L 206.500282 16.90114 
L 208.30155 17.338819 
L 209.266515 17.108171 
L 210.553135 16.849713 
L 211.5181 16.890814 
L 214.863313 17.280114 
L 216.728912 16.787048 
L 217.629546 16.960263 
L 218.465849 17.220567 
L 219.237821 17.570528 
L 219.623807 17.485429 
L 221.682399 16.620073 
L 222.197047 16.645697 
L 223.933985 17.181124 
L 226.121239 17.242092 
L 226.957542 17.040126 
L 227.407859 16.971912 
L 227.858176 17.157212 
L 228.372824 17.351876 
L 233.133319 16.931445 
L 235.256242 17.071752 
L 236.349869 17.225215 
L 236.349869 17.225215 
" clip-path="url(#p82336814fb)" style="fill: none; stroke: #d62728; stroke-width: 0.5; stroke-linecap: square"/>
   </g>
   <g id="patch_3">
    <path d="M 33.707196 202.559296 
L 33.707196 7.2 
" style="fill: none; stroke: #000000; stroke-width: 0.8; stroke-linejoin: miter; stroke-linecap: square"/>
   </g>
   <g id="patch_4">
    <path d="M 245.99952 202.559296 
L 245.99952 7.2 
" style="fill: none; stroke: #000000; stroke-width: 0.8; stroke-linejoin: miter; stroke-linecap: square"/>
   </g>
   <g id="patch_5">
    <path d="M 33.707196 202.559296 
L 245.99952 202.559296 
" style="fill: none; stroke: #000000; stroke-width: 0.8; stroke-linejoin: miter; stroke-linecap: square"/>
   </g>
   <g id="patch_6">
    <path d="M 33.707196 7.2 
L 245.99952 7.2 
" style="fill: none; stroke: #000000; stroke-width: 0.8; stroke-linejoin: miter; stroke-linecap: square"/>
   </g>
   <g id="legend_1">
    <g id="patch_7">
     <path d="M 193.792605 198.059296 
L 239.69952 198.059296 
Q 241.49952 198.059296 241.49952 196.259296 
L 241.49952 156.760168 
Q 241.49952 154.960168 239.69952 154.960168 
L 193.792605 154.960168 
Q 191.992605 154.960168 191.992605 156.760168 
L 191.992605 196.259296 
Q 191.992605 198.059296 193.792605 198.059296 
z
" style="fill: #ffffff; opacity: 0.8; stroke: #cccccc; stroke-width: 0.24; stroke-linejoin: miter"/>
    </g>
    <g id="line2d_18">
     <path d="M 195.592605 162.13495 
L 204.592605 162.13495 
L 213.592605 162.13495 
" style="fill: none; stroke: #ff7f0e; stroke-width: 0.5; stroke-linecap: square"/>
    </g>
    <g id="text_16">
     <!-- $\langle \sigma_z\rangle$ -->
     <g transform="translate(220.792605 165.28495) scale(0.09 -0.09)">
      <defs>
       <path id="CMSY10-68" d="M 2099 4557 
C 2131 4627 2131 4640 2131 4672 
C 2131 4742 2074 4800 2003 4800 
C 1946 4800 1901 4768 1856 4653 
L 736 1715 
C 723 1677 704 1638 704 1600 
C 704 1581 704 1568 736 1491 
L 1856 -1446 
C 1882 -1517 1914 -1600 2003 -1600 
C 2074 -1600 2131 -1542 2131 -1472 
C 2131 -1453 2131 -1440 2099 -1370 
L 966 1600 
L 2099 4557 
z
" transform="scale(0.015625)"/>
       <path id="CMMI12-1b" d="M 3251 2408 
C 3334 2408 3546 2408 3546 2612 
C 3546 2752 3424 2752 3309 2752 
L 1894 2752 
C 934 2752 243 1686 243 932 
C 243 390 595 -64 1171 -64 
C 1926 -64 2752 747 2752 1705 
C 2752 1954 2694 2196 2541 2408 
L 3251 2408 
z
M 1178 64 
C 851 64 614 313 614 754 
C 614 1137 845 2408 1786 2408 
C 2061 2408 2368 2274 2368 1781 
C 2368 1558 2266 1021 2042 652 
C 1811 275 1466 64 1178 64 
z
" transform="scale(0.015625)"/>
       <path id="CMMI12-7a" d="M 813 486 
C 1088 803 1312 1004 1632 1296 
C 2016 1632 2182 1793 2272 1891 
C 2720 2338 2944 2713 2944 2764 
C 2944 2816 2893 2816 2880 2816 
C 2835 2816 2822 2793 2790 2750 
C 2630 2494 2477 2367 2310 2367 
C 2176 2367 2106 2421 1984 2565 
C 1850 2715 1741 2816 1555 2816 
C 1088 2816 806 2257 806 2128 
C 806 2108 813 2068 870 2068 
C 922 2068 928 2091 947 2133 
C 1056 2372 1363 2414 1485 2414 
C 1619 2414 1747 2376 1882 2327 
C 2125 2240 2227 2240 2291 2240 
C 2336 2240 2362 2240 2394 2246 
C 2182 1994 1837 1683 1549 1418 
L 902 816 
C 512 415 275 33 275 -12 
C 275 -51 307 -64 346 -64 
C 384 -64 390 -57 435 14 
C 538 163 742 384 979 384 
C 1114 384 1178 342 1306 193 
C 1427 61 1536 -64 1741 -64 
C 2368 -64 2726 732 2726 876 
C 2726 903 2720 942 2656 942 
C 2605 942 2598 917 2579 855 
C 2438 488 2061 338 1811 338 
C 1677 338 1549 376 1414 425 
C 1158 512 1088 512 1005 512 
C 941 512 870 512 813 486 
z
" transform="scale(0.015625)"/>
       <path id="CMSY10-69" d="M 1747 1491 
C 1779 1568 1779 1581 1779 1600 
C 1779 1619 1779 1632 1747 1709 
L 627 4653 
C 589 4762 550 4800 480 4800 
C 410 4800 352 4742 352 4672 
C 352 4653 352 4640 384 4570 
L 1517 1600 
L 384 -1357 
C 352 -1427 352 -1440 352 -1472 
C 352 -1542 410 -1600 480 -1600 
C 563 -1600 589 -1536 614 -1472 
L 1747 1491 
z
" transform="scale(0.015625)"/>
      </defs>
      <use xlink:href="#CMSY10-68" transform="scale(0.996264)"/>
      <use xlink:href="#CMMI12-1b" transform="translate(38.743734 0) scale(0.996264)"/>
      <use xlink:href="#CMMI12-7a" transform="translate(94.189195 -14.943915) scale(0.697382)"/>
      <use xlink:href="#CMSY10-69" transform="translate(129.51575 0) scale(0.996264)"/>
     </g>
    </g>
    <g id="line2d_19">
     <path d="M 195.592605 175.601326 
L 204.592605 175.601326 
L 213.592605 175.601326 
" style="fill: none; stroke: #2ca02c; stroke-width: 0.5; stroke-linecap: square"/>
    </g>
    <g id="text_17">
     <!-- $\langle \sigma_x\rangle$ -->
     <g transform="translate(220.792605 178.751326) scale(0.09 -0.09)">
      <defs>
       <path id="CMMI12-78" d="M 3034 2606 
C 2829 2567 2752 2414 2752 2293 
C 2752 2139 2874 2088 2963 2088 
C 3155 2088 3290 2254 3290 2427 
C 3290 2695 2982 2816 2714 2816 
C 2323 2816 2106 2433 2048 2312 
C 1901 2816 1504 2816 1389 2816 
C 736 2816 390 1980 390 1839 
C 390 1814 416 1782 461 1782 
C 512 1782 525 1820 538 1846 
C 755 2555 1184 2689 1370 2689 
C 1658 2689 1715 2420 1715 2267 
C 1715 2127 1677 1980 1600 1673 
L 1382 798 
C 1286 415 1101 64 762 64 
C 730 64 570 64 435 147 
C 666 192 717 383 717 460 
C 717 588 621 664 499 664 
C 346 664 179 530 179 326 
C 179 57 480 -64 755 -64 
C 1062 -64 1280 179 1414 441 
C 1517 64 1837 -64 2074 -64 
C 2726 -64 3072 773 3072 913 
C 3072 945 3046 971 3008 971 
C 2950 971 2944 939 2925 888 
C 2752 326 2381 64 2093 64 
C 1869 64 1747 230 1747 492 
C 1747 632 1773 734 1875 1156 
L 2099 2024 
C 2195 2408 2413 2689 2707 2689 
C 2720 2689 2899 2689 3034 2606 
z
" transform="scale(0.015625)"/>
      </defs>
      <use xlink:href="#CMSY10-68" transform="scale(0.996264)"/>
      <use xlink:href="#CMMI12-1b" transform="translate(38.743734 0) scale(0.996264)"/>
      <use xlink:href="#CMMI12-78" transform="translate(94.189195 -14.943915) scale(0.697382)"/>
      <use xlink:href="#CMSY10-69" transform="translate(133.490986 0) scale(0.996264)"/>
     </g>
    </g>
    <g id="line2d_20">
     <path d="M 195.592605 189.067702 
L 204.592605 189.067702 
L 213.592605 189.067702 
" style="fill: none; stroke: #d62728; stroke-width: 0.5; stroke-linecap: square"/>
    </g>
    <g id="text_18">
     <!-- $\langle \sigma_y\rangle$ -->
     <g transform="translate(220.792605 192.217702) scale(0.09 -0.09)">
      <defs>
       <path id="CMMI12-79" d="M 1683 -700 
C 1510 -939 1261 -1152 947 -1152 
C 870 -1152 563 -1152 467 -889 
C 486 -895 518 -895 531 -895 
C 723 -895 851 -729 851 -582 
C 851 -435 730 -384 634 -384 
C 531 -384 307 -458 307 -759 
C 307 -1071 582 -1286 947 -1286 
C 1587 -1286 2234 -700 2413 6 
L 3040 2485 
C 3046 2517 3059 2556 3059 2594 
C 3059 2689 2982 2753 2886 2753 
C 2829 2753 2694 2727 2643 2535 
L 2170 658 
C 2138 543 2138 530 2086 460 
C 1958 281 1747 64 1440 64 
C 1082 64 1050 415 1050 588 
C 1050 952 1222 1443 1395 1903 
C 1466 2088 1504 2178 1504 2305 
C 1504 2574 1312 2816 998 2816 
C 410 2816 173 1890 173 1839 
C 173 1814 198 1782 243 1782 
C 301 1782 307 1807 333 1897 
C 486 2433 730 2689 979 2689 
C 1037 2689 1146 2689 1146 2478 
C 1146 2312 1075 2127 979 1884 
C 666 1047 666 837 666 683 
C 666 77 1101 -64 1421 -64 
C 1606 -64 1837 -6 2061 230 
L 2067 224 
C 1971 -147 1907 -392 1683 -700 
z
" transform="scale(0.015625)"/>
      </defs>
      <use xlink:href="#CMSY10-68" transform="scale(0.996264)"/>
      <use xlink:href="#CMMI12-1b" transform="translate(38.743734 0) scale(0.996264)"/>
      <use xlink:href="#CMMI12-79" transform="translate(94.189195 -14.943915) scale(0.697382)"/>
      <use xlink:href="#CMSY10-69" transform="translate(130.484301 0) scale(0.996264)"/>
     </g>
    </g>
   </g>
  </g>
 </g>
 <defs>
  <clipPath id="p82336814fb">
   <rect x="33.707196" y="7.2" width="212.292324" height="195.359296"/>
  </clipPath>
 </defs>
</svg>
