<?xml version="1.0" encoding="utf-8" standalone="no"?>
<!DOCTYPE svg PUBLIC "-//W3C//DTD SVG 1.1//EN"
  "http://www.w3.org/Graphics/SVG/1.1/DTD/svg11.dtd">
<svg xmlns:xlink="http://www.w3.org/1999/xlink" width="424.559616pt" height="181.19952pt" viewBox="0 0 424.559616 181.19952" xmlns="http://www.w3.org/2000/svg" version="1.1">
 <metadata>
  <rdf:RDF xmlns:dc="http://purl.org/dc/elements/1.1/" xmlns:cc="http://creativecommons.org/ns#" xmlns:rdf="http://www.w3.org/1999/02/22-rdf-syntax-ns#">
   <cc:Work>
    <dc:type rdf:resource="http://purl.org/dc/dcmitype/StillImage"/>
    <dc:date>1980-01-01T00:00:00+00:00</dc:date>
    <dc:format>image/svg+xml</dc:format>
    <dc:creator>
     <cc:Agent>
      <dc:title>Matplotlib v3.6.2, https://matplotlib.org/</dc:title>
     </cc:Agent>
    </dc:creator>
   </cc:Work>
  </rdf:RDF>
 </metadata>
 <defs>
  <style type="text/css">*{stroke-linejoin: round; stroke-linecap: butt}</style>
 </defs>
 <g id="figure_1">
  <g id="patch_1">
   <path d="M 0 181.19952 
L 424.559616 181.19952 
L 424.559616 0 
L 0 0 
z
" style="fill: #ffffff"/>
  </g>
  <g id="axes_1">
   <g id="patch_2">
    <path d="M 70.771301 137.87484 
L 193.80026 137.87484 
L 193.80026 7.2 
L 70.771301 7.2 
z
" style="fill: #ffffff"/>
   </g>
   <g id="matplotlib.axis_1">
    <g id="xtick_1">
     <g id="line2d_1">
      <defs>
       <path id="mcf3a752096" d="M 0 0 
L 0 3.5 
" style="stroke: #000000; stroke-width: 0.8"/>
      </defs>
      <g>
       <use xlink:href="#mcf3a752096" x="126.072196" y="137.87484" style="stroke: #000000; stroke-width: 0.8"/>
      </g>
     </g>
     <g id="text_1">
      <!-- $\mathdefault{50000}$ -->
      <g transform="translate(110.220348 155.968868) scale(0.13 -0.13)">
       <defs>
        <path id="CMR17-35" d="M 730 3692 
C 794 3666 1056 3584 1325 3584 
C 1920 3584 2246 3911 2432 4100 
C 2432 4157 2432 4192 2394 4192 
C 2387 4192 2374 4192 2323 4163 
C 2099 4058 1837 3973 1517 3973 
C 1325 3973 1037 3999 723 4139 
C 653 4171 640 4171 634 4171 
C 602 4171 595 4164 595 4037 
L 595 2203 
C 595 2089 595 2057 659 2057 
C 691 2057 704 2070 736 2114 
C 941 2401 1222 2522 1542 2522 
C 1766 2522 2246 2382 2246 1289 
C 2246 1085 2246 715 2054 421 
C 1894 159 1645 25 1370 25 
C 947 25 518 320 403 814 
C 429 807 480 795 506 795 
C 589 795 749 840 749 1038 
C 749 1210 627 1280 506 1280 
C 358 1280 262 1190 262 1011 
C 262 454 704 -128 1382 -128 
C 2042 -128 2669 440 2669 1264 
C 2669 2030 2170 2624 1549 2624 
C 1222 2624 947 2503 730 2274 
L 730 3692 
z
" transform="scale(0.015625)"/>
        <path id="CMR17-30" d="M 2688 2025 
C 2688 2416 2682 3080 2413 3591 
C 2176 4039 1798 4198 1466 4198 
C 1158 4198 768 4058 525 3597 
C 269 3118 243 2524 243 2025 
C 243 1661 250 1106 448 619 
C 723 -39 1216 -128 1466 -128 
C 1760 -128 2208 -7 2470 600 
C 2662 1042 2688 1559 2688 2025 
z
M 1466 -26 
C 1056 -26 813 325 723 812 
C 653 1188 653 1738 653 2096 
C 653 2588 653 2997 736 3387 
C 858 3929 1216 4096 1466 4096 
C 1728 4096 2067 3923 2189 3400 
C 2272 3036 2278 2607 2278 2096 
C 2278 1680 2278 1169 2202 792 
C 2067 95 1690 -26 1466 -26 
z
" transform="scale(0.015625)"/>
       </defs>
       <use xlink:href="#CMR17-35" transform="scale(0.996264)"/>
       <use xlink:href="#CMR17-30" transform="translate(45.690477 0) scale(0.996264)"/>
       <use xlink:href="#CMR17-30" transform="translate(91.380954 0) scale(0.996264)"/>
       <use xlink:href="#CMR17-30" transform="translate(137.071431 0) scale(0.996264)"/>
       <use xlink:href="#CMR17-30" transform="translate(182.761908 0) scale(0.996264)"/>
      </g>
     </g>
    </g>
    <g id="xtick_2">
     <g id="line2d_2">
      <g>
       <use xlink:href="#mcf3a752096" x="188.208034" y="137.87484" style="stroke: #000000; stroke-width: 0.8"/>
      </g>
     </g>
     <g id="text_2">
      <!-- $\mathdefault{100000}$ -->
      <g transform="translate(169.185816 155.968868) scale(0.13 -0.13)">
       <defs>
        <path id="CMR17-31" d="M 1702 4058 
C 1702 4192 1696 4192 1606 4192 
C 1357 3916 979 3827 621 3827 
C 602 3827 570 3827 563 3808 
C 557 3795 557 3782 557 3648 
C 755 3648 1088 3686 1344 3839 
L 1344 461 
C 1344 236 1331 160 781 160 
L 589 160 
L 589 0 
C 896 0 1216 0 1523 0 
C 1830 0 2150 0 2458 0 
L 2458 160 
L 2266 160 
C 1715 160 1702 230 1702 458 
L 1702 4058 
z
" transform="scale(0.015625)"/>
       </defs>
       <use xlink:href="#CMR17-31" transform="scale(0.996264)"/>
       <use xlink:href="#CMR17-30" transform="translate(45.690477 0) scale(0.996264)"/>
       <use xlink:href="#CMR17-30" transform="translate(91.380954 0) scale(0.996264)"/>
       <use xlink:href="#CMR17-30" transform="translate(137.071431 0) scale(0.996264)"/>
       <use xlink:href="#CMR17-30" transform="translate(182.761908 0) scale(0.996264)"/>
       <use xlink:href="#CMR17-30" transform="translate(228.452386 0) scale(0.996264)"/>
      </g>
     </g>
    </g>
    <g id="text_3">
     <!-- $N$ -->
     <g transform="translate(127.208301 171.481208) scale(0.13 -0.13)">
      <defs>
       <path id="CMMI12-4e" d="M 4736 3698 
C 4806 3974 4909 4166 5395 4166 
C 5414 4166 5491 4166 5491 4279 
C 5491 4352 5434 4352 5408 4352 
C 5280 4352 4954 4352 4826 4352 
L 4518 4352 
C 4429 4352 4314 4352 4224 4352 
C 4186 4352 4109 4352 4109 4230 
C 4109 4166 4160 4166 4205 4166 
C 4589 4166 4614 4019 4614 3903 
C 4614 3846 4608 3826 4589 3737 
L 3866 850 
L 2496 4249 
C 2451 4352 2445 4352 2304 4352 
L 1523 4352 
C 1395 4352 1338 4352 1338 4230 
C 1338 4166 1382 4166 1504 4166 
C 1536 4166 1914 4166 1914 4115 
C 1914 4102 1901 4051 1894 4032 
L 1043 635 
C 966 320 813 186 390 186 
C 358 186 294 186 294 67 
C 294 0 358 0 378 0 
C 506 0 832 0 960 0 
L 1267 0 
C 1357 0 1466 0 1555 0 
C 1600 0 1670 0 1670 122 
C 1670 180 1606 186 1581 186 
C 1370 186 1165 224 1165 454 
C 1165 505 1178 562 1190 613 
L 2054 4032 
C 2093 3968 2093 3956 2118 3898 
L 3642 115 
C 3674 38 3686 0 3744 0 
C 3808 0 3814 19 3840 128 
L 4736 3698 
z
" transform="scale(0.015625)"/>
      </defs>
      <use xlink:href="#CMMI12-4e" transform="scale(0.996264)"/>
     </g>
    </g>
   </g>
   <g id="matplotlib.axis_2">
    <g id="ytick_1">
     <g id="line2d_3">
      <defs>
       <path id="mc184f9f89c" d="M 0 0 
L -3.5 0 
" style="stroke: #000000; stroke-width: 0.8"/>
      </defs>
      <g>
       <use xlink:href="#mc184f9f89c" x="70.771301" y="133.358478" style="stroke: #000000; stroke-width: 0.8"/>
      </g>
     </g>
     <g id="text_4">
      <!-- $\mathdefault{−0.005}$ -->
      <g transform="translate(22.71234 137.855492) scale(0.13 -0.13)">
       <defs>
        <path id="CMSY10-0" d="M 4218 1472 
C 4326 1472 4442 1472 4442 1600 
C 4442 1728 4326 1728 4218 1728 
L 755 1728 
C 646 1728 531 1728 531 1600 
C 531 1472 646 1472 755 1472 
L 4218 1472 
z
" transform="scale(0.015625)"/>
        <path id="CMMI12-3a" d="M 1178 307 
C 1178 492 1024 619 870 619 
C 685 619 557 466 557 313 
C 557 128 710 0 864 0 
C 1050 0 1178 153 1178 307 
z
" transform="scale(0.015625)"/>
       </defs>
       <use xlink:href="#CMSY10-0" transform="scale(0.996264)"/>
       <use xlink:href="#CMR17-30" transform="translate(77.487468 0) scale(0.996264)"/>
       <use xlink:href="#CMMI12-3a" transform="translate(123.177945 0) scale(0.996264)"/>
       <use xlink:href="#CMR17-30" transform="translate(150.275122 0) scale(0.996264)"/>
       <use xlink:href="#CMR17-30" transform="translate(195.965599 0) scale(0.996264)"/>
       <use xlink:href="#CMR17-35" transform="translate(241.656076 0) scale(0.996264)"/>
      </g>
     </g>
    </g>
    <g id="ytick_2">
     <g id="line2d_4">
      <g>
       <use xlink:href="#mc184f9f89c" x="70.771301" y="99.470879" style="stroke: #000000; stroke-width: 0.8"/>
      </g>
     </g>
     <g id="text_5">
      <!-- $\mathdefault{−0.004}$ -->
      <g transform="translate(22.71234 103.967893) scale(0.13 -0.13)">
       <defs>
        <path id="CMR17-34" d="M 2150 4122 
C 2150 4256 2144 4256 2029 4256 
L 128 1254 
L 128 1088 
L 1779 1088 
L 1779 457 
C 1779 224 1766 160 1318 160 
L 1197 160 
L 1197 0 
C 1402 0 1747 0 1965 0 
C 2182 0 2528 0 2733 0 
L 2733 160 
L 2611 160 
C 2163 160 2150 224 2150 457 
L 2150 1088 
L 2803 1088 
L 2803 1254 
L 2150 1254 
L 2150 4122 
z
M 1798 3703 
L 1798 1254 
L 256 1254 
L 1798 3703 
z
" transform="scale(0.015625)"/>
       </defs>
       <use xlink:href="#CMSY10-0" transform="scale(0.996264)"/>
       <use xlink:href="#CMR17-30" transform="translate(77.487468 0) scale(0.996264)"/>
       <use xlink:href="#CMMI12-3a" transform="translate(123.177945 0) scale(0.996264)"/>
       <use xlink:href="#CMR17-30" transform="translate(150.275122 0) scale(0.996264)"/>
       <use xlink:href="#CMR17-30" transform="translate(195.965599 0) scale(0.996264)"/>
       <use xlink:href="#CMR17-34" transform="translate(241.656076 0) scale(0.996264)"/>
      </g>
     </g>
    </g>
    <g id="ytick_3">
     <g id="line2d_5">
      <g>
       <use xlink:href="#mc184f9f89c" x="70.771301" y="65.583281" style="stroke: #000000; stroke-width: 0.8"/>
      </g>
     </g>
     <g id="text_6">
      <!-- $\mathdefault{−0.003}$ -->
      <g transform="translate(22.71234 70.080295) scale(0.13 -0.13)">
       <defs>
        <path id="CMR17-33" d="M 1414 2157 
C 1984 2157 2234 1662 2234 1090 
C 2234 320 1824 25 1453 25 
C 1114 25 563 194 390 693 
C 422 680 454 680 486 680 
C 640 680 755 782 755 948 
C 755 1133 614 1216 486 1216 
C 378 1216 211 1165 211 926 
C 211 335 787 -128 1466 -128 
C 2176 -128 2720 430 2720 1085 
C 2720 1707 2208 2157 1600 2227 
C 2086 2328 2554 2756 2554 3329 
C 2554 3820 2048 4179 1472 4179 
C 890 4179 378 3829 378 3329 
C 378 3110 544 3072 627 3072 
C 762 3072 877 3155 877 3321 
C 877 3486 762 3569 627 3569 
C 602 3569 570 3569 544 3557 
C 730 3959 1235 4032 1459 4032 
C 1683 4032 2106 3925 2106 3320 
C 2106 3143 2080 2828 1862 2550 
C 1670 2304 1453 2304 1242 2284 
C 1210 2284 1062 2269 1037 2269 
C 992 2263 966 2257 966 2208 
C 966 2163 973 2157 1101 2157 
L 1414 2157 
z
" transform="scale(0.015625)"/>
       </defs>
       <use xlink:href="#CMSY10-0" transform="scale(0.996264)"/>
       <use xlink:href="#CMR17-30" transform="translate(77.487468 0) scale(0.996264)"/>
       <use xlink:href="#CMMI12-3a" transform="translate(123.177945 0) scale(0.996264)"/>
       <use xlink:href="#CMR17-30" transform="translate(150.275122 0) scale(0.996264)"/>
       <use xlink:href="#CMR17-30" transform="translate(195.965599 0) scale(0.996264)"/>
       <use xlink:href="#CMR17-33" transform="translate(241.656076 0) scale(0.996264)"/>
      </g>
     </g>
    </g>
    <g id="ytick_4">
     <g id="line2d_6">
      <g>
       <use xlink:href="#mc184f9f89c" x="70.771301" y="31.695683" style="stroke: #000000; stroke-width: 0.8"/>
      </g>
     </g>
     <g id="text_7">
      <!-- $\mathdefault{−0.002}$ -->
      <g transform="translate(22.71234 36.192697) scale(0.13 -0.13)">
       <defs>
        <path id="CMR17-32" d="M 2669 989 
L 2554 989 
C 2490 536 2438 459 2413 420 
C 2381 369 1920 369 1830 369 
L 602 369 
C 832 619 1280 1072 1824 1597 
C 2214 1967 2669 2402 2669 3035 
C 2669 3790 2067 4224 1395 4224 
C 691 4224 262 3604 262 3030 
C 262 2780 448 2748 525 2748 
C 589 2748 781 2787 781 3010 
C 781 3207 614 3264 525 3264 
C 486 3264 448 3258 422 3245 
C 544 3790 915 4058 1306 4058 
C 1862 4058 2227 3617 2227 3035 
C 2227 2479 1901 2000 1536 1584 
L 262 146 
L 262 0 
L 2515 0 
L 2669 989 
z
" transform="scale(0.015625)"/>
       </defs>
       <use xlink:href="#CMSY10-0" transform="scale(0.996264)"/>
       <use xlink:href="#CMR17-30" transform="translate(77.487468 0) scale(0.996264)"/>
       <use xlink:href="#CMMI12-3a" transform="translate(123.177945 0) scale(0.996264)"/>
       <use xlink:href="#CMR17-30" transform="translate(150.275122 0) scale(0.996264)"/>
       <use xlink:href="#CMR17-30" transform="translate(195.965599 0) scale(0.996264)"/>
       <use xlink:href="#CMR17-32" transform="translate(241.656076 0) scale(0.996264)"/>
      </g>
     </g>
    </g>
    <g id="text_8">
     <!-- $P$ -->
     <g transform="translate(16.194028 76.624434) rotate(-90) scale(0.13 -0.13)">
      <defs>
       <path id="CMMI12-50" d="M 1894 2023 
L 2970 2023 
C 3853 2023 4736 2673 4736 3401 
C 4736 3898 4314 4352 3507 4352 
L 1530 4352 
C 1408 4352 1350 4352 1350 4231 
C 1350 4167 1408 4167 1504 4167 
C 1894 4167 1894 4116 1894 4046 
C 1894 4034 1894 3995 1869 3899 
L 1005 472 
C 947 249 934 185 486 185 
C 365 185 301 185 301 70 
C 301 0 358 0 397 0 
C 518 0 646 0 768 0 
L 1517 0 
C 1638 0 1773 0 1894 0 
C 1946 0 2016 0 2016 121 
C 2016 185 1958 185 1862 185 
C 1478 185 1472 230 1472 293 
C 1472 325 1478 369 1485 401 
L 1894 2023 
z
M 2355 3930 
C 2413 4167 2438 4167 2688 4167 
L 3322 4167 
C 3802 4167 4198 4013 4198 3535 
C 4198 3369 4115 2827 3821 2534 
C 3712 2419 3405 2176 2822 2176 
L 1920 2176 
L 2355 3930 
z
" transform="scale(0.015625)"/>
      </defs>
      <use xlink:href="#CMMI12-50" transform="scale(0.996264)"/>
     </g>
    </g>
   </g>
   <g id="line2d_7">
    <path d="M 76.363526 83.116781 
L 88.790694 81.007761 
L 101.217861 84.699029 
L 113.645029 84.131389 
L 126.072196 83.343585 
L 138.499364 83.043553 
L 150.926532 82.091993 
L 163.353699 83.345121 
L 175.780867 83.80698 
L 188.208034 84.181125 
L 188.208034 84.181125 
" clip-path="url(#pd1e16f1d36)" style="fill: none; stroke: #1f77b4; stroke-linecap: square"/>
   </g>
   <g id="line2d_8">
    <path d="M 76.363526 64.890469 
L 88.790694 62.350289 
L 101.217861 66.727076 
L 113.645029 65.905037 
L 126.072196 66.336597 
L 138.499364 65.49056 
L 150.926532 65.17833 
L 163.353699 65.692824 
L 175.780867 65.687958 
L 188.208034 66.365077 
L 188.208034 66.365077 
" clip-path="url(#pd1e16f1d36)" style="fill: none; stroke: #ff7f0e; stroke-linecap: square"/>
   </g>
   <g id="line2d_9">
    <path d="M 76.363526 48.723638 
L 88.790694 44.096392 
L 101.217861 47.803551 
L 113.645029 47.314121 
L 126.072196 47.676983 
L 138.499364 48.269536 
L 150.926532 47.993259 
L 163.353699 48.535768 
L 175.780867 48.872022 
L 175.780867 48.872022 
" clip-path="url(#pd1e16f1d36)" style="fill: none; stroke: #2ca02c; stroke-linecap: square"/>
   </g>
   <g id="line2d_10">
    <path d="M 76.363526 35.188212 
L 88.790694 29.510387 
L 101.217861 32.204321 
L 113.645029 31.967643 
L 126.072196 32.675131 
L 138.499364 32.802031 
L 150.926532 32.369834 
L 163.353699 33.02201 
L 175.780867 33.36898 
L 175.780867 33.36898 
" clip-path="url(#pd1e16f1d36)" style="fill: none; stroke: #d62728; stroke-linecap: square"/>
   </g>
   <g id="line2d_11">
    <path d="M 76.363526 18.066287 
L 88.790694 13.139765 
L 101.217861 16.845073 
L 113.645029 16.601421 
L 126.072196 17.362492 
L 138.499364 17.175579 
L 150.926532 16.967983 
L 163.353699 17.793428 
L 175.780867 18.352134 
L 175.780867 18.352134 
" clip-path="url(#pd1e16f1d36)" style="fill: none; stroke: #9467bd; stroke-linecap: square"/>
   </g>
   <g id="line2d_12">
    <path d="M 76.363526 127.107145 
L 88.790694 126.370407 
L 101.217861 125.12878 
L 113.645029 126.124381 
L 126.072196 125.845147 
L 138.499364 126.004598 
L 150.926532 126.059374 
L 163.353699 125.488255 
L 175.780867 125.30184 
L 175.780867 125.30184 
" clip-path="url(#pd1e16f1d36)" style="fill: none; stroke: #8c564b; stroke-linecap: square"/>
   </g>
   <g id="line2d_13">
    <path d="M 76.363526 110.55232 
L 88.790694 111.192966 
L 101.217861 110.325724 
L 113.645029 110.500986 
L 126.072196 110.208749 
L 138.499364 109.637744 
L 150.926532 109.869306 
L 163.353699 109.325025 
L 175.780867 109.354441 
L 175.780867 109.354441 
" clip-path="url(#pd1e16f1d36)" style="fill: none; stroke: #e377c2; stroke-linecap: square"/>
   </g>
   <g id="line2d_14">
    <path d="M 76.363526 94.380395 
L 88.790694 93.979577 
L 101.217861 93.839203 
L 113.645029 94.415472 
L 126.072196 93.808965 
L 138.499364 93.442878 
L 150.926532 93.32814 
L 163.353699 93.016369 
L 175.780867 93.167234 
L 175.780867 93.167234 
" clip-path="url(#pd1e16f1d36)" style="fill: none; stroke: #7f7f7f; stroke-linecap: square"/>
   </g>
   <g id="line2d_15">
    <path d="M 76.363526 80.025064 
L 88.790694 78.617279 
L 101.217861 77.916271 
L 113.645029 79.126713 
L 126.072196 79.228235 
L 138.499364 79.501702 
L 150.926532 79.496401 
L 163.353699 78.955985 
L 175.780867 79.089358 
L 175.780867 79.089358 
" clip-path="url(#pd1e16f1d36)" style="fill: none; stroke: #bcbd22; stroke-linecap: square"/>
   </g>
   <g id="line2d_16">
    <path d="M 76.363526 67.116054 
L 88.790694 65.449908 
L 101.217861 65.334245 
L 113.645029 65.489331 
L 126.072196 65.866542 
L 138.499364 65.737442 
L 150.926532 65.919488 
L 163.353699 65.047301 
L 175.780867 65.353748 
L 175.780867 65.353748 
" clip-path="url(#pd1e16f1d36)" style="fill: none; stroke: #17becf; stroke-linecap: square"/>
   </g>
   <g id="line2d_17">
    <path d="M 76.363526 131.935074 
L 88.790694 128.998391 
L 101.217861 127.479469 
L 113.645029 126.613372 
L 126.072196 126.366881 
L 138.499364 126.58298 
L 150.926532 126.790816 
L 163.353699 126.987704 
L 175.780867 127.042658 
L 175.780867 127.042658 
" clip-path="url(#pd1e16f1d36)" style="fill: none; stroke: #1f77b4; stroke-linecap: square"/>
   </g>
   <g id="line2d_18">
    <path d="M 76.363526 117.216514 
L 88.790694 114.502207 
L 101.217861 112.464105 
L 113.645029 111.520168 
L 126.072196 111.62369 
L 138.499364 111.251818 
L 150.926532 111.338195 
L 163.353699 111.741 
L 175.780867 111.693828 
L 175.780867 111.693828 
" clip-path="url(#pd1e16f1d36)" style="fill: none; stroke: #ff7f0e; stroke-linecap: square"/>
   </g>
   <g id="line2d_19">
    <path d="M 76.363526 101.186626 
L 88.790694 98.92692 
L 101.217861 97.171241 
L 113.645029 96.790869 
L 126.072196 97.204209 
L 138.499364 97.097852 
L 150.926532 96.669909 
L 163.353699 96.538378 
L 175.780867 96.600313 
L 175.780867 96.600313 
" clip-path="url(#pd1e16f1d36)" style="fill: none; stroke: #2ca02c; stroke-linecap: square"/>
   </g>
   <g id="line2d_20">
    <path d="M 76.363526 81.690345 
L 88.790694 84.772005 
L 101.217861 83.597688 
L 113.645029 81.887771 
L 126.072196 81.656566 
L 138.499364 82.048141 
L 150.926532 81.853287 
L 163.353699 81.909985 
L 175.780867 81.81579 
L 175.780867 81.81579 
" clip-path="url(#pd1e16f1d36)" style="fill: none; stroke: #d62728; stroke-linecap: square"/>
   </g>
   <g id="line2d_21">
    <path d="M 76.363526 64.66497 
L 88.790694 68.987456 
L 101.217861 68.048421 
L 113.645029 67.292727 
L 126.072196 67.300678 
L 138.499364 68.051901 
L 150.926532 67.800934 
L 163.353699 68.577552 
L 175.780867 68.752766 
L 175.780867 68.752766 
" clip-path="url(#pd1e16f1d36)" style="fill: none; stroke: #9467bd; stroke-linecap: square"/>
   </g>
   <g id="line2d_22">
    <path d="M 76.363526 123.339307 
L 88.790694 123.702036 
L 101.217861 123.228149 
L 113.645029 123.800346 
L 126.072196 124.672854 
L 138.499364 124.354825 
L 150.926532 124.621938 
L 163.353699 124.259256 
L 175.780867 124.007807 
L 175.780867 124.007807 
" clip-path="url(#pd1e16f1d36)" style="fill: none; stroke: #8c564b; stroke-linecap: square"/>
   </g>
   <g id="line2d_23">
    <path d="M 76.363526 106.159992 
L 88.790694 107.060049 
L 101.217861 106.151474 
L 113.645029 107.490162 
L 126.072196 108.619549 
L 138.499364 108.538888 
L 150.926532 108.739845 
L 163.353699 108.501157 
L 175.780867 108.547664 
L 175.780867 108.547664 
" clip-path="url(#pd1e16f1d36)" style="fill: none; stroke: #e377c2; stroke-linecap: square"/>
   </g>
   <g id="line2d_24">
    <path d="M 76.363526 97.219588 
L 88.790694 95.120858 
L 101.217861 94.776651 
L 113.645029 94.36759 
L 126.072196 94.147847 
L 138.499364 94.554704 
L 150.926532 94.412676 
L 163.353699 94.558763 
L 175.780867 94.103751 
L 175.780867 94.103751 
" clip-path="url(#pd1e16f1d36)" style="fill: none; stroke: #7f7f7f; stroke-linecap: square"/>
   </g>
   <g id="line2d_25">
    <path d="M 76.363526 83.266861 
L 88.790694 82.044028 
L 101.217861 82.456405 
L 113.645029 81.474843 
L 126.072196 81.385205 
L 138.499364 81.218305 
L 150.926532 81.002342 
L 163.353699 80.567349 
L 175.780867 80.221134 
L 175.780867 80.221134 
" clip-path="url(#pd1e16f1d36)" style="fill: none; stroke: #bcbd22; stroke-linecap: square"/>
   </g>
   <g id="line2d_26">
    <path d="M 76.363526 73.482341 
L 88.790694 71.37269 
L 101.217861 70.125028 
L 113.645029 69.149251 
L 126.072196 68.354552 
L 138.499364 68.439326 
L 150.926532 68.763851 
L 163.353699 68.667357 
L 175.780867 68.058893 
L 175.780867 68.058893 
" clip-path="url(#pd1e16f1d36)" style="fill: none; stroke: #17becf; stroke-linecap: square"/>
   </g>
   <g id="line2d_27">
    <path d="M 76.363526 122.345602 
L 88.790694 123.664087 
L 101.217861 123.523149 
L 113.645029 122.901878 
L 126.072196 122.144084 
L 138.499364 121.678725 
L 150.926532 122.616778 
L 163.353699 122.572218 
L 175.780867 122.380438 
L 175.780867 122.380438 
" clip-path="url(#pd1e16f1d36)" style="fill: none; stroke: #1f77b4; stroke-linecap: square"/>
   </g>
   <g id="line2d_28">
    <path d="M 76.363526 109.627814 
L 88.790694 108.349912 
L 101.217861 108.516696 
L 113.645029 108.248849 
L 126.072196 108.309006 
L 138.499364 108.069805 
L 150.926532 107.428104 
L 163.353699 106.959713 
L 175.780867 106.87625 
L 175.780867 106.87625 
" clip-path="url(#pd1e16f1d36)" style="fill: none; stroke: #ff7f0e; stroke-linecap: square"/>
   </g>
   <g id="line2d_29">
    <path d="M 76.363526 93.886578 
L 88.790694 94.620518 
L 101.217861 94.035645 
L 113.645029 93.676391 
L 126.072196 94.403376 
L 138.499364 94.047864 
L 150.926532 93.346957 
L 163.353699 92.951528 
L 175.780867 92.880246 
L 175.780867 92.880246 
" clip-path="url(#pd1e16f1d36)" style="fill: none; stroke: #2ca02c; stroke-linecap: square"/>
   </g>
   <g id="line2d_30">
    <path d="M 76.363526 81.135898 
L 88.790694 80.354015 
L 101.217861 80.293562 
L 113.645029 80.27374 
L 126.072196 80.774191 
L 138.499364 80.099484 
L 150.926532 79.836636 
L 163.353699 79.256788 
L 175.780867 79.169813 
L 175.780867 79.169813 
" clip-path="url(#pd1e16f1d36)" style="fill: none; stroke: #d62728; stroke-linecap: square"/>
   </g>
   <g id="line2d_31">
    <path d="M 76.363526 70.022975 
L 88.790694 69.763947 
L 101.217861 69.026486 
L 113.645029 69.5258 
L 126.072196 69.64213 
L 138.499364 69.2218 
L 150.926532 68.433407 
L 163.353699 67.850062 
L 175.780867 67.972538 
L 175.780867 67.972538 
" clip-path="url(#pd1e16f1d36)" style="fill: none; stroke: #9467bd; stroke-linecap: square"/>
   </g>
   <g id="patch_3">
    <path d="M 70.771301 137.87484 
L 70.771301 7.2 
" style="fill: none; stroke: #000000; stroke-width: 0.8; stroke-linejoin: miter; stroke-linecap: square"/>
   </g>
   <g id="patch_4">
    <path d="M 193.80026 137.87484 
L 193.80026 7.2 
" style="fill: none; stroke: #000000; stroke-width: 0.8; stroke-linejoin: miter; stroke-linecap: square"/>
   </g>
   <g id="patch_5">
    <path d="M 70.771301 137.87484 
L 193.80026 137.87484 
" style="fill: none; stroke: #000000; stroke-width: 0.8; stroke-linejoin: miter; stroke-linecap: square"/>
   </g>
   <g id="patch_6">
    <path d="M 70.771301 7.2 
L 193.80026 7.2 
" style="fill: none; stroke: #000000; stroke-width: 0.8; stroke-linejoin: miter; stroke-linecap: square"/>
   </g>
  </g>
  <g id="axes_2">
   <g id="patch_7">
    <path d="M 280.900664 137.87484 
L 403.929623 137.87484 
L 403.929623 7.2 
L 280.900664 7.2 
z
" style="fill: #ffffff"/>
   </g>
   <g id="matplotlib.axis_3">
    <g id="xtick_3">
     <g id="line2d_32">
      <g>
       <use xlink:href="#mcf3a752096" x="336.20156" y="137.87484" style="stroke: #000000; stroke-width: 0.8"/>
      </g>
     </g>
     <g id="text_9">
      <!-- $\mathdefault{50000}$ -->
      <g transform="translate(320.349711 155.968868) scale(0.13 -0.13)">
       <use xlink:href="#CMR17-35" transform="scale(0.996264)"/>
       <use xlink:href="#CMR17-30" transform="translate(45.690477 0) scale(0.996264)"/>
       <use xlink:href="#CMR17-30" transform="translate(91.380954 0) scale(0.996264)"/>
       <use xlink:href="#CMR17-30" transform="translate(137.071431 0) scale(0.996264)"/>
       <use xlink:href="#CMR17-30" transform="translate(182.761908 0) scale(0.996264)"/>
      </g>
     </g>
    </g>
    <g id="xtick_4">
     <g id="line2d_33">
      <g>
       <use xlink:href="#mcf3a752096" x="398.337398" y="137.87484" style="stroke: #000000; stroke-width: 0.8"/>
      </g>
     </g>
     <g id="text_10">
      <!-- $\mathdefault{100000}$ -->
      <g transform="translate(379.315179 155.968868) scale(0.13 -0.13)">
       <use xlink:href="#CMR17-31" transform="scale(0.996264)"/>
       <use xlink:href="#CMR17-30" transform="translate(45.690477 0) scale(0.996264)"/>
       <use xlink:href="#CMR17-30" transform="translate(91.380954 0) scale(0.996264)"/>
       <use xlink:href="#CMR17-30" transform="translate(137.071431 0) scale(0.996264)"/>
       <use xlink:href="#CMR17-30" transform="translate(182.761908 0) scale(0.996264)"/>
       <use xlink:href="#CMR17-30" transform="translate(228.452386 0) scale(0.996264)"/>
      </g>
     </g>
    </g>
    <g id="text_11">
     <!-- $N$ -->
     <g transform="translate(337.337665 171.481208) scale(0.13 -0.13)">
      <use xlink:href="#CMMI12-4e" transform="scale(0.996264)"/>
     </g>
    </g>
   </g>
   <g id="matplotlib.axis_4">
    <g id="ytick_5">
     <g id="line2d_34">
      <defs>
       <path id="m62ee841f4e" d="M 0 0 
L -2 0 
" style="stroke: #000000; stroke-width: 0.4"/>
      </defs>
      <g>
       <use xlink:href="#m62ee841f4e" x="280.900664" y="91.647443" style="stroke: #000000; stroke-width: 0.4"/>
      </g>
     </g>
     <g id="text_12">
      <!-- $\mathdefault{3\times10^{-1}}$ -->
      <g transform="translate(228.742977 96.19916) scale(0.13 -0.13)">
       <defs>
        <path id="CMSY10-2" d="M 2490 1785 
L 1210 3059 
C 1133 3136 1120 3148 1069 3148 
C 1005 3148 941 3091 941 3020 
C 941 2976 954 2963 1024 2892 
L 2304 1606 
L 1024 320 
C 954 249 941 236 941 192 
C 941 121 1005 64 1069 64 
C 1120 64 1133 76 1210 153 
L 2483 1427 
L 3808 102 
C 3821 96 3866 64 3904 64 
C 3981 64 4032 121 4032 192 
C 4032 204 4032 230 4013 262 
C 4006 275 2989 1280 2669 1606 
L 3840 2777 
C 3872 2816 3968 2899 4000 2937 
C 4006 2950 4032 2976 4032 3020 
C 4032 3091 3981 3148 3904 3148 
C 3853 3148 3827 3123 3757 3052 
L 2490 1785 
z
" transform="scale(0.015625)"/>
       </defs>
       <use xlink:href="#CMR17-33" transform="scale(0.996264)"/>
       <use xlink:href="#CMSY10-2" transform="translate(67.829684 0) scale(0.996264)"/>
       <use xlink:href="#CMR17-31" transform="translate(167.456359 0) scale(0.996264)"/>
       <use xlink:href="#CMR17-30" transform="translate(213.146836 0) scale(0.996264)"/>
       <use xlink:href="#CMSY10-0" transform="translate(258.837313 36.153639) scale(0.697382)"/>
       <use xlink:href="#CMR17-31" transform="translate(313.078306 36.153639) scale(0.697382)"/>
      </g>
     </g>
    </g>
    <g id="ytick_6">
     <g id="line2d_35">
      <g>
       <use xlink:href="#m62ee841f4e" x="280.900664" y="42.986762" style="stroke: #000000; stroke-width: 0.4"/>
      </g>
     </g>
     <g id="text_13">
      <!-- $\mathdefault{4\times10^{-1}}$ -->
      <g transform="translate(228.742977 47.538479) scale(0.13 -0.13)">
       <use xlink:href="#CMR17-34" transform="scale(0.996264)"/>
       <use xlink:href="#CMSY10-2" transform="translate(67.829684 0) scale(0.996264)"/>
       <use xlink:href="#CMR17-31" transform="translate(167.456359 0) scale(0.996264)"/>
       <use xlink:href="#CMR17-30" transform="translate(213.146836 0) scale(0.996264)"/>
       <use xlink:href="#CMSY10-0" transform="translate(258.837313 36.153639) scale(0.697382)"/>
       <use xlink:href="#CMR17-31" transform="translate(313.078306 36.153639) scale(0.697382)"/>
      </g>
     </g>
    </g>
    <g id="text_14">
     <!-- $\eta$ -->
     <g transform="translate(222.224665 75.665817) rotate(-90) scale(0.13 -0.13)">
      <defs>
       <path id="CMMI12-11" d="M 3040 1768 
C 3072 1895 3091 1973 3091 2145 
C 3091 2528 2867 2815 2381 2815 
C 1811 2815 1510 2413 1395 2254 
C 1376 2618 1114 2815 832 2815 
C 646 2815 499 2726 378 2483 
C 262 2254 173 1864 173 1839 
C 173 1813 198 1781 243 1781 
C 294 1781 301 1788 339 1934 
C 435 2311 557 2688 813 2688 
C 960 2688 1011 2586 1011 2394 
C 1011 2254 947 2005 902 1807 
L 723 1118 
C 698 996 627 709 595 593 
C 550 428 480 127 480 96 
C 480 6 550 -64 646 -64 
C 723 -64 813 -25 864 70 
C 877 102 934 326 966 453 
L 1107 1028 
L 1318 1871 
C 1331 1909 1491 2228 1728 2432 
C 1894 2586 2112 2688 2362 2688 
C 2618 2688 2707 2496 2707 2241 
C 2707 2055 2682 1953 2650 1831 
L 1907 -1107 
C 1901 -1139 1888 -1177 1888 -1216 
C 1888 -1312 1965 -1376 2061 -1376 
C 2118 -1376 2253 -1350 2304 -1158 
L 3040 1768 
z
" transform="scale(0.015625)"/>
      </defs>
      <use xlink:href="#CMMI12-11" transform="scale(0.996264)"/>
     </g>
    </g>
   </g>
   <g id="line2d_36">
    <path d="M 286.49289 47.873568 
L 298.920057 52.130053 
L 311.347225 50.457014 
L 323.774392 50.978136 
L 336.20156 50.82798 
L 348.628728 50.506797 
L 361.055895 51.153583 
L 373.483063 49.592863 
L 385.91023 49.119808 
L 398.337398 48.927947 
L 398.337398 48.927947 
" clip-path="url(#pfdf997f3e0)" style="fill: none; stroke: #1f77b4; stroke-linecap: square"/>
   </g>
   <g id="line2d_37">
    <path d="M 286.49289 61.415439 
L 298.920057 67.435001 
L 311.347225 59.830981 
L 323.774392 63.843974 
L 336.20156 62.22227 
L 348.628728 63.625089 
L 361.055895 63.42954 
L 373.483063 62.691228 
L 385.91023 63.265249 
L 398.337398 62.184065 
L 398.337398 62.184065 
" clip-path="url(#pfdf997f3e0)" style="fill: none; stroke: #ff7f0e; stroke-linecap: square"/>
   </g>
   <g id="line2d_38">
    <path d="M 286.49289 74.244763 
L 298.920057 83.740516 
L 311.347225 77.919535 
L 323.774392 81.227714 
L 336.20156 79.528903 
L 348.628728 79.29622 
L 361.055895 78.891961 
L 373.483063 78.796388 
L 385.91023 78.541407 
L 385.91023 78.541407 
" clip-path="url(#pfdf997f3e0)" style="fill: none; stroke: #2ca02c; stroke-linecap: square"/>
   </g>
   <g id="line2d_39">
    <path d="M 286.49289 85.632874 
L 298.920057 101.446195 
L 311.347225 95.720833 
L 323.774392 100.174318 
L 336.20156 97.657657 
L 348.628728 98.681773 
L 361.055895 97.800541 
L 373.483063 96.64039 
L 385.91023 96.901633 
L 385.91023 96.901633 
" clip-path="url(#pfdf997f3e0)" style="fill: none; stroke: #d62728; stroke-linecap: square"/>
   </g>
   <g id="line2d_40">
    <path d="M 286.49289 113.344355 
L 298.920057 131.935074 
L 311.347225 120.944411 
L 323.774392 124.829652 
L 336.20156 121.39232 
L 348.628728 122.700485 
L 361.055895 121.86624 
L 373.483063 120.779161 
L 385.91023 119.330884 
L 385.91023 119.330884 
" clip-path="url(#pfdf997f3e0)" style="fill: none; stroke: #9467bd; stroke-linecap: square"/>
   </g>
   <g id="line2d_41">
    <path d="M 286.49289 13.139765 
L 298.920057 15.307261 
L 311.347225 17.300121 
L 323.774392 16.750995 
L 336.20156 18.445161 
L 348.628728 17.614759 
L 361.055895 18.215796 
L 373.483063 18.756031 
L 385.91023 18.878552 
L 385.91023 18.878552 
" clip-path="url(#pfdf997f3e0)" style="fill: none; stroke: #8c564b; stroke-linecap: square"/>
   </g>
   <g id="line2d_42">
    <path d="M 286.49289 19.143618 
L 298.920057 20.712377 
L 311.347225 22.319976 
L 323.774392 22.335045 
L 336.20156 23.524999 
L 348.628728 22.978029 
L 361.055895 23.442791 
L 373.483063 23.876007 
L 385.91023 24.033261 
L 385.91023 24.033261 
" clip-path="url(#pfdf997f3e0)" style="fill: none; stroke: #e377c2; stroke-linecap: square"/>
   </g>
   <g id="line2d_43">
    <path d="M 286.49289 26.631408 
L 298.920057 27.54852 
L 311.347225 28.813966 
L 323.774392 29.057691 
L 336.20156 30.103928 
L 348.628728 29.748173 
L 361.055895 30.192929 
L 373.483063 30.549432 
L 385.91023 30.724027 
L 385.91023 30.724027 
" clip-path="url(#pfdf997f3e0)" style="fill: none; stroke: #7f7f7f; stroke-linecap: square"/>
   </g>
   <g id="line2d_44">
    <path d="M 286.49289 30.285543 
L 298.920057 34.654279 
L 311.347225 36.841278 
L 323.774392 36.221622 
L 336.20156 37.457033 
L 348.628728 36.358063 
L 361.055895 36.909699 
L 373.483063 37.788873 
L 385.91023 37.90988 
L 385.91023 37.90988 
" clip-path="url(#pfdf997f3e0)" style="fill: none; stroke: #bcbd22; stroke-linecap: square"/>
   </g>
   <g id="line2d_45">
    <path d="M 286.49289 37.652616 
L 298.920057 41.359951 
L 311.347225 43.114964 
L 323.774392 43.1915 
L 336.20156 43.404699 
L 348.628728 42.71921 
L 361.055895 42.864477 
L 373.483063 44.396462 
L 385.91023 44.175881 
L 385.91023 44.175881 
" clip-path="url(#pfdf997f3e0)" style="fill: none; stroke: #17becf; stroke-linecap: square"/>
   </g>
   <g id="line2d_46">
    <path d="M 286.49289 14.318984 
L 298.920057 16.257705 
L 311.347225 18.144754 
L 323.774392 18.467908 
L 336.20156 18.940631 
L 348.628728 18.994642 
L 361.055895 18.766827 
L 373.483063 18.466586 
L 385.91023 18.842657 
L 385.91023 18.842657 
" clip-path="url(#pfdf997f3e0)" style="fill: none; stroke: #1f77b4; stroke-linecap: square"/>
   </g>
   <g id="line2d_47">
    <path d="M 286.49289 18.898198 
L 298.920057 21.68207 
L 311.347225 23.94424 
L 323.774392 24.351382 
L 336.20156 24.381913 
L 348.628728 24.52555 
L 361.055895 24.426 
L 373.483063 23.596777 
L 385.91023 24.142715 
L 385.91023 24.142715 
" clip-path="url(#pfdf997f3e0)" style="fill: none; stroke: #ff7f0e; stroke-linecap: square"/>
   </g>
   <g id="line2d_48">
    <path d="M 286.49289 23.941196 
L 298.920057 27.617859 
L 311.347225 29.880622 
L 323.774392 29.17114 
L 336.20156 29.341485 
L 348.628728 29.05647 
L 361.055895 29.204012 
L 373.483063 28.97827 
L 385.91023 29.152704 
L 385.91023 29.152704 
" clip-path="url(#pfdf997f3e0)" style="fill: none; stroke: #2ca02c; stroke-linecap: square"/>
   </g>
   <g id="line2d_49">
    <path d="M 286.49289 33.335457 
L 298.920057 31.6975 
L 311.347225 33.955472 
L 323.774392 35.863093 
L 336.20156 35.934733 
L 348.628728 35.287773 
L 361.055895 35.682938 
L 373.483063 35.069703 
L 385.91023 35.476289 
L 385.91023 35.476289 
" clip-path="url(#pfdf997f3e0)" style="fill: none; stroke: #d62728; stroke-linecap: square"/>
   </g>
   <g id="line2d_50">
    <path d="M 286.49289 42.951393 
L 298.920057 37.737162 
L 311.347225 39.109441 
L 323.774392 41.0236 
L 336.20156 41.500489 
L 348.628728 40.899353 
L 361.055895 41.433333 
L 373.483063 40.683561 
L 385.91023 40.850597 
L 385.91023 40.850597 
" clip-path="url(#pfdf997f3e0)" style="fill: none; stroke: #9467bd; stroke-linecap: square"/>
   </g>
   <g id="line2d_51">
    <path d="M 286.49289 21.010202 
L 298.920057 21.484349 
L 311.347225 21.750348 
L 323.774392 21.026243 
L 336.20156 19.785804 
L 348.628728 19.986903 
L 361.055895 20.152765 
L 373.483063 20.01957 
L 385.91023 19.767803 
L 385.91023 19.767803 
" clip-path="url(#pfdf997f3e0)" style="fill: none; stroke: #8c564b; stroke-linecap: square"/>
   </g>
   <g id="line2d_52">
    <path d="M 286.49289 27.49879 
L 298.920057 28.451077 
L 311.347225 29.023244 
L 323.774392 27.863472 
L 336.20156 25.772901 
L 348.628728 25.624901 
L 361.055895 25.48912 
L 373.483063 25.419737 
L 385.91023 25.134197 
L 385.91023 25.134197 
" clip-path="url(#pfdf997f3e0)" style="fill: none; stroke: #e377c2; stroke-linecap: square"/>
   </g>
   <g id="line2d_53">
    <path d="M 286.49289 25.013986 
L 298.920057 26.610358 
L 311.347225 26.926281 
L 323.774392 27.243968 
L 336.20156 27.215031 
L 348.628728 27.245933 
L 361.055895 27.704371 
L 373.483063 27.85922 
L 385.91023 27.762154 
L 385.91023 27.762154 
" clip-path="url(#pfdf997f3e0)" style="fill: none; stroke: #7f7f7f; stroke-linecap: square"/>
   </g>
   <g id="line2d_54">
    <path d="M 286.49289 31.797379 
L 298.920057 32.245542 
L 311.347225 31.601869 
L 323.774392 32.681576 
L 336.20156 32.291731 
L 348.628728 32.551196 
L 361.055895 33.191146 
L 373.483063 33.360327 
L 385.91023 33.182873 
L 385.91023 33.182873 
" clip-path="url(#pfdf997f3e0)" style="fill: none; stroke: #bcbd22; stroke-linecap: square"/>
   </g>
   <g id="line2d_55">
    <path d="M 286.49289 34.471613 
L 298.920057 35.863878 
L 311.347225 35.471794 
L 323.774392 35.905852 
L 336.20156 37.2082 
L 348.628728 37.006295 
L 361.055895 37.567276 
L 373.483063 37.992431 
L 385.91023 37.983878 
L 385.91023 37.983878 
" clip-path="url(#pfdf997f3e0)" style="fill: none; stroke: #17becf; stroke-linecap: square"/>
   </g>
   <g id="line2d_56">
    <path d="M 286.49289 16.7096 
L 298.920057 16.907206 
L 311.347225 16.09047 
L 323.774392 16.815333 
L 336.20156 17.743723 
L 348.628728 17.605001 
L 361.055895 17.545007 
L 373.483063 18.07468 
L 385.91023 18.116694 
L 385.91023 18.116694 
" clip-path="url(#pfdf997f3e0)" style="fill: none; stroke: #1f77b4; stroke-linecap: square"/>
   </g>
   <g id="line2d_57">
    <path d="M 286.49289 22.927686 
L 298.920057 23.655043 
L 311.347225 22.704735 
L 323.774392 23.66613 
L 336.20156 23.366201 
L 348.628728 23.743007 
L 361.055895 24.093017 
L 373.483063 24.176871 
L 385.91023 24.291557 
L 385.91023 24.291557 
" clip-path="url(#pfdf997f3e0)" style="fill: none; stroke: #ff7f0e; stroke-linecap: square"/>
   </g>
   <g id="line2d_58">
    <path d="M 286.49289 31.699861 
L 298.920057 29.585038 
L 311.347225 29.598139 
L 323.774392 30.287859 
L 336.20156 29.548014 
L 348.628728 29.533789 
L 361.055895 29.476658 
L 373.483063 29.616506 
L 385.91023 29.28669 
L 385.91023 29.28669 
" clip-path="url(#pfdf997f3e0)" style="fill: none; stroke: #2ca02c; stroke-linecap: square"/>
   </g>
   <g id="line2d_59">
    <path d="M 286.49289 34.860011 
L 298.920057 33.523785 
L 311.347225 34.177674 
L 323.774392 35.219963 
L 336.20156 34.658165 
L 348.628728 34.987858 
L 361.055895 34.817169 
L 373.483063 35.200346 
L 385.91023 34.59097 
L 385.91023 34.59097 
" clip-path="url(#pfdf997f3e0)" style="fill: none; stroke: #d62728; stroke-linecap: square"/>
   </g>
   <g id="line2d_60">
    <path d="M 286.49289 40.000773 
L 298.920057 37.264604 
L 311.347225 37.997136 
L 323.774392 37.849783 
L 336.20156 37.574461 
L 348.628728 37.462065 
L 361.055895 38.136071 
L 373.483063 38.383466 
L 385.91023 38.088584 
L 385.91023 38.088584 
" clip-path="url(#pfdf997f3e0)" style="fill: none; stroke: #9467bd; stroke-linecap: square"/>
   </g>
   <g id="patch_8">
    <path d="M 280.900664 137.87484 
L 280.900664 7.2 
" style="fill: none; stroke: #000000; stroke-width: 0.8; stroke-linejoin: miter; stroke-linecap: square"/>
   </g>
   <g id="patch_9">
    <path d="M 403.929623 137.87484 
L 403.929623 7.2 
" style="fill: none; stroke: #000000; stroke-width: 0.8; stroke-linejoin: miter; stroke-linecap: square"/>
   </g>
   <g id="patch_10">
    <path d="M 280.900664 137.87484 
L 403.929623 137.87484 
" style="fill: none; stroke: #000000; stroke-width: 0.8; stroke-linejoin: miter; stroke-linecap: square"/>
   </g>
   <g id="patch_11">
    <path d="M 280.900664 7.2 
L 403.929623 7.2 
" style="fill: none; stroke: #000000; stroke-width: 0.8; stroke-linejoin: miter; stroke-linecap: square"/>
   </g>
  </g>
 </g>
 <defs>
  <clipPath id="pd1e16f1d36">
   <rect x="70.771301" y="7.2" width="123.028959" height="130.67484"/>
  </clipPath>
  <clipPath id="pfdf997f3e0">
   <rect x="280.900664" y="7.2" width="123.028959" height="130.67484"/>
  </clipPath>
 </defs>
</svg>
