<?xml version="1.0" encoding="utf-8" standalone="no"?>
<!DOCTYPE svg PUBLIC "-//W3C//DTD SVG 1.1//EN"
  "http://www.w3.org/Graphics/SVG/1.1/DTD/svg11.dtd">
<svg xmlns:xlink="http://www.w3.org/1999/xlink" width="253.19952pt" height="238.79952pt" viewBox="0 0 253.19952 238.79952" xmlns="http://www.w3.org/2000/svg" version="1.1">
 <metadata>
  <rdf:RDF xmlns:dc="http://purl.org/dc/elements/1.1/" xmlns:cc="http://creativecommons.org/ns#" xmlns:rdf="http://www.w3.org/1999/02/22-rdf-syntax-ns#">
   <cc:Work>
    <dc:type rdf:resource="http://purl.org/dc/dcmitype/StillImage"/>
    <dc:date>1980-01-01T00:00:00+00:00</dc:date>
    <dc:format>image/svg+xml</dc:format>
    <dc:creator>
     <cc:Agent>
      <dc:title>Matplotlib v3.6.2, https://matplotlib.org/</dc:title>
     </cc:Agent>
    </dc:creator>
   </cc:Work>
  </rdf:RDF>
 </metadata>
 <defs>
  <style type="text/css">*{stroke-linejoin: round; stroke-linecap: butt}</style>
 </defs>
 <g id="figure_1">
  <g id="patch_1">
   <path d="M 0 238.79952 
L 253.19952 238.79952 
L 253.19952 0 
L 0 0 
z
" style="fill: #ffffff"/>
  </g>
  <g id="axes_1">
   <g id="patch_2">
    <path d="M 33.707196 202.559296 
L 245.99952 202.559296 
L 245.99952 7.2 
L 33.707196 7.2 
z
" style="fill: #ffffff"/>
   </g>
   <g id="matplotlib.axis_1">
    <g id="xtick_1">
     <g id="line2d_1">
      <defs>
       <path id="m94794052cf" d="M 0 0 
L 0 3.5 
" style="stroke: #000000; stroke-width: 0.8"/>
      </defs>
      <g>
       <use xlink:href="#m94794052cf" x="43.356847" y="202.559296" style="stroke: #000000; stroke-width: 0.8"/>
      </g>
     </g>
     <g id="text_1">
      <!-- $\mathdefault{0}$ -->
      <g transform="translate(41.239756 217.194098) scale(0.08 -0.08)">
       <defs>
        <path id="CMR17-30" d="M 2688 2025 
C 2688 2416 2682 3080 2413 3591 
C 2176 4039 1798 4198 1466 4198 
C 1158 4198 768 4058 525 3597 
C 269 3118 243 2524 243 2025 
C 243 1661 250 1106 448 619 
C 723 -39 1216 -128 1466 -128 
C 1760 -128 2208 -7 2470 600 
C 2662 1042 2688 1559 2688 2025 
z
M 1466 -26 
C 1056 -26 813 325 723 812 
C 653 1188 653 1738 653 2096 
C 653 2588 653 2997 736 3387 
C 858 3929 1216 4096 1466 4096 
C 1728 4096 2067 3923 2189 3400 
C 2272 3036 2278 2607 2278 2096 
C 2278 1680 2278 1169 2202 792 
C 2067 95 1690 -26 1466 -26 
z
" transform="scale(0.015625)"/>
       </defs>
       <use xlink:href="#CMR17-30" transform="scale(0.996264)"/>
      </g>
     </g>
    </g>
    <g id="xtick_2">
     <g id="line2d_2">
      <g>
       <use xlink:href="#m94794052cf" x="70.161434" y="202.559296" style="stroke: #000000; stroke-width: 0.8"/>
      </g>
     </g>
     <g id="text_2">
      <!-- $\mathdefault{25}$ -->
      <g transform="translate(65.927251 217.194098) scale(0.08 -0.08)">
       <defs>
        <path id="CMR17-32" d="M 2669 989 
L 2554 989 
C 2490 536 2438 459 2413 420 
C 2381 369 1920 369 1830 369 
L 602 369 
C 832 619 1280 1072 1824 1597 
C 2214 1967 2669 2402 2669 3035 
C 2669 3790 2067 4224 1395 4224 
C 691 4224 262 3604 262 3030 
C 262 2780 448 2748 525 2748 
C 589 2748 781 2787 781 3010 
C 781 3207 614 3264 525 3264 
C 486 3264 448 3258 422 3245 
C 544 3790 915 4058 1306 4058 
C 1862 4058 2227 3617 2227 3035 
C 2227 2479 1901 2000 1536 1584 
L 262 146 
L 262 0 
L 2515 0 
L 2669 989 
z
" transform="scale(0.015625)"/>
        <path id="CMR17-35" d="M 730 3692 
C 794 3666 1056 3584 1325 3584 
C 1920 3584 2246 3911 2432 4100 
C 2432 4157 2432 4192 2394 4192 
C 2387 4192 2374 4192 2323 4163 
C 2099 4058 1837 3973 1517 3973 
C 1325 3973 1037 3999 723 4139 
C 653 4171 640 4171 634 4171 
C 602 4171 595 4164 595 4037 
L 595 2203 
C 595 2089 595 2057 659 2057 
C 691 2057 704 2070 736 2114 
C 941 2401 1222 2522 1542 2522 
C 1766 2522 2246 2382 2246 1289 
C 2246 1085 2246 715 2054 421 
C 1894 159 1645 25 1370 25 
C 947 25 518 320 403 814 
C 429 807 480 795 506 795 
C 589 795 749 840 749 1038 
C 749 1210 627 1280 506 1280 
C 358 1280 262 1190 262 1011 
C 262 454 704 -128 1382 -128 
C 2042 -128 2669 440 2669 1264 
C 2669 2030 2170 2624 1549 2624 
C 1222 2624 947 2503 730 2274 
L 730 3692 
z
" transform="scale(0.015625)"/>
       </defs>
       <use xlink:href="#CMR17-32" transform="scale(0.996264)"/>
       <use xlink:href="#CMR17-35" transform="translate(45.690477 0) scale(0.996264)"/>
      </g>
     </g>
    </g>
    <g id="xtick_3">
     <g id="line2d_3">
      <g>
       <use xlink:href="#m94794052cf" x="96.96602" y="202.559296" style="stroke: #000000; stroke-width: 0.8"/>
      </g>
     </g>
     <g id="text_3">
      <!-- $\mathdefault{50}$ -->
      <g transform="translate(92.731837 217.194098) scale(0.08 -0.08)">
       <use xlink:href="#CMR17-35" transform="scale(0.996264)"/>
       <use xlink:href="#CMR17-30" transform="translate(45.690477 0) scale(0.996264)"/>
      </g>
     </g>
    </g>
    <g id="xtick_4">
     <g id="line2d_4">
      <g>
       <use xlink:href="#m94794052cf" x="123.770606" y="202.559296" style="stroke: #000000; stroke-width: 0.8"/>
      </g>
     </g>
     <g id="text_4">
      <!-- $\mathdefault{75}$ -->
      <g transform="translate(119.536423 217.194098) scale(0.08 -0.08)">
       <defs>
        <path id="CMR17-37" d="M 2886 3941 
L 2886 4081 
L 1382 4081 
C 634 4081 621 4165 595 4288 
L 480 4288 
L 294 3094 
L 410 3094 
C 429 3215 474 3540 550 3661 
C 589 3712 1062 3712 1171 3712 
L 2579 3712 
L 1869 2661 
C 1395 1954 1069 999 1069 165 
C 1069 89 1069 -128 1299 -128 
C 1530 -128 1530 89 1530 171 
L 1530 465 
C 1530 1508 1709 2196 2003 2636 
L 2886 3941 
z
" transform="scale(0.015625)"/>
       </defs>
       <use xlink:href="#CMR17-37" transform="scale(0.996264)"/>
       <use xlink:href="#CMR17-35" transform="translate(45.690477 0) scale(0.996264)"/>
      </g>
     </g>
    </g>
    <g id="xtick_5">
     <g id="line2d_5">
      <g>
       <use xlink:href="#m94794052cf" x="150.575193" y="202.559296" style="stroke: #000000; stroke-width: 0.8"/>
      </g>
     </g>
     <g id="text_5">
      <!-- $\mathdefault{100}$ -->
      <g transform="translate(144.223918 217.194098) scale(0.08 -0.08)">
       <defs>
        <path id="CMR17-31" d="M 1702 4058 
C 1702 4192 1696 4192 1606 4192 
C 1357 3916 979 3827 621 3827 
C 602 3827 570 3827 563 3808 
C 557 3795 557 3782 557 3648 
C 755 3648 1088 3686 1344 3839 
L 1344 461 
C 1344 236 1331 160 781 160 
L 589 160 
L 589 0 
C 896 0 1216 0 1523 0 
C 1830 0 2150 0 2458 0 
L 2458 160 
L 2266 160 
C 1715 160 1702 230 1702 458 
L 1702 4058 
z
" transform="scale(0.015625)"/>
       </defs>
       <use xlink:href="#CMR17-31" transform="scale(0.996264)"/>
       <use xlink:href="#CMR17-30" transform="translate(45.690477 0) scale(0.996264)"/>
       <use xlink:href="#CMR17-30" transform="translate(91.380954 0) scale(0.996264)"/>
      </g>
     </g>
    </g>
    <g id="xtick_6">
     <g id="line2d_6">
      <g>
       <use xlink:href="#m94794052cf" x="177.379779" y="202.559296" style="stroke: #000000; stroke-width: 0.8"/>
      </g>
     </g>
     <g id="text_6">
      <!-- $\mathdefault{125}$ -->
      <g transform="translate(171.028505 217.194098) scale(0.08 -0.08)">
       <use xlink:href="#CMR17-31" transform="scale(0.996264)"/>
       <use xlink:href="#CMR17-32" transform="translate(45.690477 0) scale(0.996264)"/>
       <use xlink:href="#CMR17-35" transform="translate(91.380954 0) scale(0.996264)"/>
      </g>
     </g>
    </g>
    <g id="xtick_7">
     <g id="line2d_7">
      <g>
       <use xlink:href="#m94794052cf" x="204.184365" y="202.559296" style="stroke: #000000; stroke-width: 0.8"/>
      </g>
     </g>
     <g id="text_7">
      <!-- $\mathdefault{150}$ -->
      <g transform="translate(197.833091 217.194098) scale(0.08 -0.08)">
       <use xlink:href="#CMR17-31" transform="scale(0.996264)"/>
       <use xlink:href="#CMR17-35" transform="translate(45.690477 0) scale(0.996264)"/>
       <use xlink:href="#CMR17-30" transform="translate(91.380954 0) scale(0.996264)"/>
      </g>
     </g>
    </g>
    <g id="xtick_8">
     <g id="line2d_8">
      <g>
       <use xlink:href="#m94794052cf" x="230.988952" y="202.559296" style="stroke: #000000; stroke-width: 0.8"/>
      </g>
     </g>
     <g id="text_8">
      <!-- $\mathdefault{175}$ -->
      <g transform="translate(224.637677 217.194098) scale(0.08 -0.08)">
       <use xlink:href="#CMR17-31" transform="scale(0.996264)"/>
       <use xlink:href="#CMR17-37" transform="translate(45.690477 0) scale(0.996264)"/>
       <use xlink:href="#CMR17-35" transform="translate(91.380954 0) scale(0.996264)"/>
      </g>
     </g>
    </g>
    <g id="text_9">
     <!-- $\tau$ -->
     <g transform="translate(137.675756 229.662342) scale(0.1 -0.1)">
      <defs>
       <path id="CMMI12-1c" d="M 1837 2408 
L 2899 2408 
C 2982 2408 3194 2408 3194 2612 
C 3194 2752 3072 2752 2957 2752 
L 1197 2752 
C 1050 2752 832 2752 538 2440 
C 371 2255 166 1917 166 1879 
C 166 1841 198 1828 237 1828 
C 282 1828 288 1847 320 1885 
C 653 2408 986 2408 1146 2408 
L 1677 2408 
L 1011 223 
C 979 127 979 114 979 95 
C 979 25 1024 -64 1152 -64 
C 1350 -64 1382 108 1402 203 
L 1837 2408 
z
" transform="scale(0.015625)"/>
      </defs>
      <use xlink:href="#CMMI12-1c" transform="scale(0.996264)"/>
     </g>
    </g>
   </g>
   <g id="matplotlib.axis_2">
    <g id="ytick_1">
     <g id="line2d_9">
      <defs>
       <path id="m1c6ef14706" d="M 0 0 
L -3.5 0 
" style="stroke: #000000; stroke-width: 0.8"/>
      </defs>
      <g>
       <use xlink:href="#m1c6ef14706" x="33.707196" y="193.679328" style="stroke: #000000; stroke-width: 0.8"/>
      </g>
     </g>
     <g id="text_10">
      <!-- $\mathdefault{−1.0}$ -->
      <g transform="translate(7.2 196.446729) scale(0.08 -0.08)">
       <defs>
        <path id="CMSY10-0" d="M 4218 1472 
C 4326 1472 4442 1472 4442 1600 
C 4442 1728 4326 1728 4218 1728 
L 755 1728 
C 646 1728 531 1728 531 1600 
C 531 1472 646 1472 755 1472 
L 4218 1472 
z
" transform="scale(0.015625)"/>
        <path id="CMMI12-3a" d="M 1178 307 
C 1178 492 1024 619 870 619 
C 685 619 557 466 557 313 
C 557 128 710 0 864 0 
C 1050 0 1178 153 1178 307 
z
" transform="scale(0.015625)"/>
       </defs>
       <use xlink:href="#CMSY10-0" transform="scale(0.996264)"/>
       <use xlink:href="#CMR17-31" transform="translate(77.487468 0) scale(0.996264)"/>
       <use xlink:href="#CMMI12-3a" transform="translate(123.177945 0) scale(0.996264)"/>
       <use xlink:href="#CMR17-30" transform="translate(150.275122 0) scale(0.996264)"/>
      </g>
     </g>
    </g>
    <g id="ytick_2">
     <g id="line2d_10">
      <g>
       <use xlink:href="#m1c6ef14706" x="33.707196" y="158.332842" style="stroke: #000000; stroke-width: 0.8"/>
      </g>
     </g>
     <g id="text_11">
      <!-- $\mathdefault{−0.8}$ -->
      <g transform="translate(7.2 161.100243) scale(0.08 -0.08)">
       <defs>
        <path id="CMR17-38" d="M 1741 2264 
C 2144 2467 2554 2773 2554 3263 
C 2554 3841 1990 4179 1472 4179 
C 890 4179 378 3759 378 3180 
C 378 3021 416 2747 666 2505 
C 730 2442 998 2251 1171 2130 
C 883 1983 211 1634 211 934 
C 211 279 838 -128 1459 -128 
C 2144 -128 2720 362 2720 1010 
C 2720 1590 2330 1857 2074 2029 
L 1741 2264 
z
M 902 2822 
C 851 2854 595 3051 595 3351 
C 595 3739 998 4032 1459 4032 
C 1965 4032 2336 3676 2336 3262 
C 2336 2669 1670 2331 1638 2331 
C 1632 2331 1626 2331 1574 2370 
L 902 2822 
z
M 2080 1519 
C 2176 1449 2483 1240 2483 851 
C 2483 381 2010 25 1472 25 
C 890 25 448 438 448 940 
C 448 1443 838 1862 1280 2060 
L 2080 1519 
z
" transform="scale(0.015625)"/>
       </defs>
       <use xlink:href="#CMSY10-0" transform="scale(0.996264)"/>
       <use xlink:href="#CMR17-30" transform="translate(77.487468 0) scale(0.996264)"/>
       <use xlink:href="#CMMI12-3a" transform="translate(123.177945 0) scale(0.996264)"/>
       <use xlink:href="#CMR17-38" transform="translate(150.275122 0) scale(0.996264)"/>
      </g>
     </g>
    </g>
    <g id="ytick_3">
     <g id="line2d_11">
      <g>
       <use xlink:href="#m1c6ef14706" x="33.707196" y="122.986356" style="stroke: #000000; stroke-width: 0.8"/>
      </g>
     </g>
     <g id="text_12">
      <!-- $\mathdefault{−0.6}$ -->
      <g transform="translate(7.2 125.753757) scale(0.08 -0.08)">
       <defs>
        <path id="CMR17-36" d="M 678 2176 
C 678 3690 1395 4032 1811 4032 
C 1946 4032 2272 4009 2400 3776 
C 2298 3776 2106 3776 2106 3553 
C 2106 3381 2246 3323 2336 3323 
C 2394 3323 2566 3348 2566 3560 
C 2566 3954 2246 4179 1805 4179 
C 1043 4179 243 3390 243 1984 
C 243 253 966 -128 1478 -128 
C 2099 -128 2688 427 2688 1283 
C 2688 2081 2170 2662 1517 2662 
C 1126 2662 838 2407 678 1960 
L 678 2176 
z
M 1478 25 
C 691 25 691 1200 691 1436 
C 691 1896 909 2560 1504 2560 
C 1613 2560 1926 2560 2138 2120 
C 2253 1870 2253 1609 2253 1289 
C 2253 944 2253 690 2118 434 
C 1978 171 1773 25 1478 25 
z
" transform="scale(0.015625)"/>
       </defs>
       <use xlink:href="#CMSY10-0" transform="scale(0.996264)"/>
       <use xlink:href="#CMR17-30" transform="translate(77.487468 0) scale(0.996264)"/>
       <use xlink:href="#CMMI12-3a" transform="translate(123.177945 0) scale(0.996264)"/>
       <use xlink:href="#CMR17-36" transform="translate(150.275122 0) scale(0.996264)"/>
      </g>
     </g>
    </g>
    <g id="ytick_4">
     <g id="line2d_12">
      <g>
       <use xlink:href="#m1c6ef14706" x="33.707196" y="87.63987" style="stroke: #000000; stroke-width: 0.8"/>
      </g>
     </g>
     <g id="text_13">
      <!-- $\mathdefault{−0.4}$ -->
      <g transform="translate(7.2 90.407271) scale(0.08 -0.08)">
       <defs>
        <path id="CMR17-34" d="M 2150 4122 
C 2150 4256 2144 4256 2029 4256 
L 128 1254 
L 128 1088 
L 1779 1088 
L 1779 457 
C 1779 224 1766 160 1318 160 
L 1197 160 
L 1197 0 
C 1402 0 1747 0 1965 0 
C 2182 0 2528 0 2733 0 
L 2733 160 
L 2611 160 
C 2163 160 2150 224 2150 457 
L 2150 1088 
L 2803 1088 
L 2803 1254 
L 2150 1254 
L 2150 4122 
z
M 1798 3703 
L 1798 1254 
L 256 1254 
L 1798 3703 
z
" transform="scale(0.015625)"/>
       </defs>
       <use xlink:href="#CMSY10-0" transform="scale(0.996264)"/>
       <use xlink:href="#CMR17-30" transform="translate(77.487468 0) scale(0.996264)"/>
       <use xlink:href="#CMMI12-3a" transform="translate(123.177945 0) scale(0.996264)"/>
       <use xlink:href="#CMR17-34" transform="translate(150.275122 0) scale(0.996264)"/>
      </g>
     </g>
    </g>
    <g id="ytick_5">
     <g id="line2d_13">
      <g>
       <use xlink:href="#m1c6ef14706" x="33.707196" y="52.293385" style="stroke: #000000; stroke-width: 0.8"/>
      </g>
     </g>
     <g id="text_14">
      <!-- $\mathdefault{−0.2}$ -->
      <g transform="translate(7.2 55.060786) scale(0.08 -0.08)">
       <use xlink:href="#CMSY10-0" transform="scale(0.996264)"/>
       <use xlink:href="#CMR17-30" transform="translate(77.487468 0) scale(0.996264)"/>
       <use xlink:href="#CMMI12-3a" transform="translate(123.177945 0) scale(0.996264)"/>
       <use xlink:href="#CMR17-32" transform="translate(150.275122 0) scale(0.996264)"/>
      </g>
     </g>
    </g>
    <g id="ytick_6">
     <g id="line2d_14">
      <g>
       <use xlink:href="#m1c6ef14706" x="33.707196" y="16.946899" style="stroke: #000000; stroke-width: 0.8"/>
      </g>
     </g>
     <g id="text_15">
      <!-- $\mathdefault{0.0}$ -->
      <g transform="translate(13.786507 19.7143) scale(0.08 -0.08)">
       <use xlink:href="#CMR17-30" transform="scale(0.996264)"/>
       <use xlink:href="#CMMI12-3a" transform="translate(45.690477 0) scale(0.996264)"/>
       <use xlink:href="#CMR17-30" transform="translate(72.787654 0) scale(0.996264)"/>
      </g>
     </g>
    </g>
   </g>
   <g id="line2d_15">
    <path d="M 43.356847 193.679328 
L 52.363188 193.589391 
L 52.620512 193.351509 
L 52.877836 192.739729 
L 53.13516 191.431119 
L 53.456815 188.19257 
L 53.842801 181.045226 
L 54.42178 164.430877 
L 55.129422 145.964661 
L 57.059352 109.227414 
L 57.831324 100.692049 
L 58.410303 96.486548 
L 59.310937 91.913475 
L 60.854881 85.310221 
L 62.656149 79.656737 
L 63.106466 78.703963 
L 64.200094 75.786857 
L 64.779073 74.75281 
L 65.422383 73.026928 
L 66.966327 70.468 
L 67.352313 70.429653 
L 67.609637 70.024237 
L 68.574602 67.971687 
L 68.831926 68.095917 
L 69.539567 68.850256 
L 69.796891 69.28259 
L 70.182877 70.540208 
L 70.697525 72.777934 
L 71.276504 76.501876 
L 73.592421 93.000392 
L 73.978407 94.086697 
L 74.364393 94.571256 
L 74.750379 94.716125 
L 75.844006 94.7365 
L 85.364995 94.626551 
L 85.879643 94.342917 
L 86.32996 93.819262 
L 86.844608 92.844958 
L 88.002566 90.44755 
L 88.25989 90.345325 
L 88.452883 90.474501 
L 88.710207 90.948673 
L 89.096193 92.303855 
L 89.610841 95.162042 
L 90.640138 102.6569 
L 92.05542 112.470922 
L 93.084716 118.113472 
L 94.178343 123.071602 
L 95.400632 127.409167 
L 96.55859 130.730574 
L 97.587886 133.13555 
L 98.424189 134.509669 
L 100.35412 136.941285 
L 101.126092 138.046159 
L 101.64074 139.217276 
L 102.091057 140.848573 
L 102.605705 143.631053 
L 103.313346 148.88483 
L 105.050283 162.419843 
L 105.564931 164.67173 
L 106.015248 165.772284 
L 106.401234 166.223683 
L 106.851551 166.408898 
L 107.752185 166.441577 
L 116.694195 166.355727 
L 116.95152 166.151367 
L 117.208844 165.634856 
L 117.466168 164.531735 
L 117.787823 161.79376 
L 118.173809 155.739175 
L 118.752788 141.751992 
L 119.396098 127.734598 
L 121.390359 95.982103 
L 122.098 89.712386 
L 122.805641 85.316709 
L 123.320289 83.160441 
L 123.899268 81.229689 
L 124.478247 79.426973 
L 126.665502 73.661927 
L 127.244481 72.597698 
L 128.145115 71.523107 
L 128.659763 70.682236 
L 129.431735 69.255817 
L 130.782686 67.598987 
L 131.554658 67.054307 
L 131.747651 66.864676 
L 132.648285 65.486015 
L 133.034271 65.440206 
L 133.420257 65.560818 
L 133.806243 65.969556 
L 134.063567 66.581655 
L 134.513884 68.42622 
L 135.543181 73.458548 
L 136.250822 78.858585 
L 137.601773 89.185318 
L 138.05209 91.090307 
L 138.438076 91.91835 
L 138.824062 92.243711 
L 139.33871 92.328514 
L 145.900473 92.330691 
L 149.760333 92.222611 
L 150.21065 91.970882 
L 150.660967 91.468595 
L 151.239946 90.429815 
L 152.204911 88.622945 
L 152.462235 88.50083 
L 152.655229 88.606939 
L 152.912553 89.051734 
L 153.234208 90.108384 
L 153.684525 92.414414 
L 154.456497 97.742209 
L 156.643751 113.179628 
L 157.737378 119.157755 
L 159.023998 124.775206 
L 159.988963 128.136363 
L 161.146921 131.327913 
L 162.111887 133.366983 
L 163.076852 134.889428 
L 165.650092 138.523678 
L 166.100409 139.712689 
L 166.550726 141.533601 
L 167.129705 144.946903 
L 167.901677 151.078761 
L 169.188297 161.271893 
L 169.767276 164.21461 
L 170.217593 165.54654 
L 170.60358 166.137377 
L 170.989566 166.388491 
L 171.568545 166.469118 
L 178.644955 166.471401 
L 181.025203 166.391708 
L 181.282527 166.180725 
L 181.539851 165.643992 
L 181.797175 164.511078 
L 182.11883 161.751176 
L 182.504816 155.772662 
L 183.083795 142.186421 
L 183.791436 126.914677 
L 185.528373 98.060263 
L 186.300345 90.71336 
L 186.814993 87.12315 
L 187.779958 82.796803 
L 188.358938 80.914574 
L 188.937917 78.924429 
L 189.452565 77.639574 
L 189.902882 76.596167 
L 190.353199 75.644298 
L 191.06084 74.458293 
L 191.382495 73.392281 
L 191.70415 72.426383 
L 191.961474 72.277769 
L 192.154467 72.185544 
L 192.34746 71.782658 
L 192.862108 70.455027 
L 193.119432 70.448227 
L 193.312425 70.346849 
L 193.569749 69.698471 
L 193.891404 69.022043 
L 194.406052 68.873667 
L 195.178024 67.486422 
L 196.20732 66.845798 
L 196.721968 66.460431 
L 197.622603 65.953226 
L 198.201582 66.409455 
L 198.458906 66.916784 
L 198.844892 68.370739 
L 199.616864 72.127327 
L 200.324505 77.234561 
L 202.061442 89.939776 
L 202.511759 91.577488 
L 202.897745 92.239025 
L 203.283731 92.466902 
L 203.927041 92.513509 
L 214.09134 92.417013 
L 214.605988 92.130982 
L 215.056306 91.60468 
L 215.635285 90.499891 
L 216.535919 88.711533 
L 216.793243 88.57767 
L 216.986236 88.681498 
L 217.24356 89.125104 
L 217.565215 90.173577 
L 218.079863 92.792336 
L 218.916166 98.416485 
L 221.360744 115.804568 
L 222.325709 120.460758 
L 223.740992 126.089677 
L 224.705957 129.196813 
L 225.606591 131.341349 
L 226.893211 133.800229 
L 228.372824 136.107161 
L 230.174092 138.920313 
L 230.624409 140.357732 
L 231.139057 142.870737 
L 231.782367 147.311532 
L 233.905291 163.40663 
L 234.419939 165.255975 
L 234.870256 166.07627 
L 235.256242 166.370289 
L 235.77089 166.47104 
L 236.349869 166.477356 
L 236.349869 166.477356 
" clip-path="url(#p90af9533d9)" style="fill: none; stroke: #ff7f0e; stroke-width: 0.5; stroke-linecap: square"/>
   </g>
   <g id="line2d_16">
    <path d="M 43.356847 16.946899 
L 54.293118 17.057984 
L 55.708401 17.255789 
L 56.480373 17.096493 
L 56.93069 17.200469 
L 57.638331 17.402702 
L 58.281641 17.419982 
L 59.246606 17.226916 
L 59.696923 17.380359 
L 60.082909 17.22998 
L 60.854881 16.808499 
L 61.240867 17.002092 
L 61.819846 17.337635 
L 62.07717 17.274259 
L 62.527487 16.835659 
L 62.977804 16.449859 
L 63.299459 16.456617 
L 63.878439 16.805224 
L 64.457418 17.102864 
L 64.779073 16.976153 
L 65.22939 16.810604 
L 65.679707 16.917278 
L 66.065693 16.921207 
L 66.709003 16.633446 
L 67.15932 16.437698 
L 67.480975 16.613558 
L 67.995623 16.860398 
L 68.381609 16.791082 
L 68.960588 16.435339 
L 69.346574 16.274237 
L 70.311539 16.44685 
L 70.633194 16.706448 
L 71.340835 17.391507 
L 71.726821 17.446189 
L 72.3058 17.236574 
L 73.206435 16.952416 
L 74.042738 16.953732 
L 75.45802 16.992541 
L 77.066295 16.891119 
L 78.996225 16.997814 
L 81.312142 16.881173 
L 85.364995 16.972609 
L 86.844608 16.740028 
L 88.25989 16.249526 
L 89.031862 16.108262 
L 89.996827 16.131834 
L 90.7688 16.415483 
L 91.605103 16.658157 
L 94.114012 16.858826 
L 94.885984 16.668861 
L 96.55859 16.120827 
L 97.2019 16.166743 
L 99.646479 16.680756 
L 101.447747 16.472427 
L 102.605705 16.647559 
L 104.020987 16.81702 
L 108.138172 17.039794 
L 109.489123 17.095883 
L 110.775743 16.913458 
L 111.933701 16.791641 
L 112.834335 16.957163 
L 113.7993 17.103225 
L 114.571272 16.943398 
L 115.471906 16.789422 
L 116.179547 16.92846 
L 117.208844 17.125089 
L 117.916485 16.994773 
L 119.717753 16.522946 
L 120.296732 16.76203 
L 120.81138 16.892436 
L 121.583352 16.806451 
L 122.098 16.652595 
L 124.606909 16.808565 
L 125.957861 16.473274 
L 126.343847 16.535207 
L 127.18015 16.944493 
L 128.080784 16.741228 
L 128.531101 16.553219 
L 129.11008 16.415098 
L 129.496066 16.525668 
L 130.525362 17.03365 
L 130.911348 16.963235 
L 131.361665 16.625485 
L 131.940644 16.189591 
L 132.262299 16.274853 
L 132.905609 16.572594 
L 133.162933 16.43851 
L 133.677581 16.115937 
L 134.063567 16.226508 
L 135.028533 16.543021 
L 135.671843 16.612003 
L 136.443815 16.70592 
L 137.151456 16.818498 
L 138.566738 16.833791 
L 139.853358 17.128384 
L 140.560999 16.956382 
L 141.461633 16.761797 
L 142.169274 16.893896 
L 143.262901 17.131216 
L 144.099205 17.034484 
L 145.836142 16.762269 
L 147.058431 16.862165 
L 149.503009 17.133381 
L 152.076249 16.969309 
L 153.684525 16.757767 
L 154.392166 17.022718 
L 155.93611 17.664971 
L 156.57942 17.556275 
L 159.023998 17.025657 
L 159.667308 17.233053 
L 160.760935 17.619125 
L 161.404245 17.598194 
L 165.006782 17.029543 
L 167.322698 17.02491 
L 169.509952 17.152391 
L 173.17682 16.778805 
L 176.007384 17.097134 
L 177.808652 16.762608 
L 179.609921 17.107862 
L 181.153865 16.751875 
L 181.861506 17.027963 
L 182.633478 17.280766 
L 183.083795 17.198568 
L 183.727105 17.032455 
L 184.04876 17.214292 
L 184.756401 17.727725 
L 185.078056 17.688663 
L 185.97869 17.328145 
L 186.622 17.344417 
L 187.329641 17.607098 
L 187.715627 17.412618 
L 188.037282 17.332507 
L 188.809255 17.546209 
L 189.195241 17.188533 
L 189.709889 16.705467 
L 189.902882 16.788681 
L 190.932178 17.680187 
L 191.189502 17.526389 
L 192.090136 16.755057 
L 192.476122 16.742092 
L 193.248094 16.954407 
L 193.891404 17.405573 
L 194.985031 17.412066 
L 195.306686 17.338943 
L 195.628341 17.562816 
L 196.20732 17.952155 
L 196.528975 17.918635 
L 196.85063 17.593565 
L 197.365279 17.055128 
L 197.622603 17.060266 
L 198.265913 17.198963 
L 198.651899 17.350733 
L 199.037885 17.497962 
L 199.423871 17.366386 
L 199.938519 16.954097 
L 200.774822 16.122646 
L 201.096477 16.187894 
L 201.482463 16.544906 
L 202.383097 17.50053 
L 202.704752 17.531971 
L 203.026407 17.34074 
L 204.248696 16.319543 
L 204.570351 16.436055 
L 205.084999 16.950665 
L 205.728309 17.528618 
L 206.049965 17.562718 
L 206.435951 17.351998 
L 207.786902 16.323459 
L 208.237219 16.402294 
L 208.880529 16.807033 
L 209.909825 17.449237 
L 210.553135 17.574375 
L 211.196445 17.459851 
L 212.032748 17.056701 
L 213.383699 16.396758 
L 214.027009 16.350859 
L 214.605988 16.52947 
L 215.506623 17.094002 
L 216.728912 17.828928 
L 217.307891 17.929287 
L 217.88687 17.795586 
L 218.465849 17.420811 
L 219.430814 16.714775 
L 220.009793 16.652167 
L 221.939723 16.870772 
L 223.355005 17.045473 
L 224.191309 16.785574 
L 225.220605 16.51768 
L 225.735253 16.624736 
L 226.442894 17.062325 
L 227.407859 17.639 
L 227.986838 17.704728 
L 228.694479 17.521046 
L 231.074726 16.716892 
L 231.782367 16.861696 
L 233.261981 17.267973 
L 234.226946 17.227414 
L 235.449235 16.91964 
L 236.349869 16.70043 
L 236.349869 16.70043 
" clip-path="url(#p90af9533d9)" style="fill: none; stroke: #2ca02c; stroke-width: 0.5; stroke-linecap: square"/>
   </g>
   <g id="line2d_17">
    <path d="M 43.356847 16.946899 
L 54.100125 16.842952 
L 55.00076 16.74546 
L 55.451077 17.007122 
L 55.837063 17.176063 
L 56.28738 17.056399 
L 57.059352 16.832369 
L 57.574 16.871305 
L 57.959986 16.829865 
L 58.474634 17.082806 
L 58.796289 17.120941 
L 59.117944 16.808868 
L 59.375268 16.679598 
L 59.696923 16.974456 
L 60.14724 17.254077 
L 60.404564 17.280424 
L 60.661888 17.052647 
L 61.176536 16.509028 
L 61.43386 16.489901 
L 61.691184 16.675633 
L 62.527487 17.551059 
L 62.784811 17.362316 
L 63.428121 16.647479 
L 64.135763 16.60109 
L 64.393087 16.873398 
L 64.779073 17.385029 
L 64.972066 17.329178 
L 65.679707 16.828019 
L 66.580341 17.335235 
L 66.837665 17.30293 
L 67.094989 16.92421 
L 67.416644 16.463859 
L 67.673968 16.501794 
L 68.059954 16.859342 
L 68.510271 17.218088 
L 68.960588 17.402715 
L 69.217912 17.081083 
L 69.475236 16.830343 
L 69.796891 16.906222 
L 70.118546 16.87476 
L 70.440201 16.525217 
L 70.761856 16.272259 
L 71.01918 16.352297 
L 71.533828 16.825872 
L 72.048476 17.173328 
L 72.498794 17.169092 
L 74.235731 16.880235 
L 80.926155 16.930861 
L 82.856086 16.877722 
L 85.493657 17.090821 
L 88.131228 17.264586 
L 90.254152 16.612659 
L 90.961793 16.753624 
L 91.926758 16.980832 
L 93.856688 17.164122 
L 94.757322 17.285705 
L 96.108273 17.22838 
L 96.944576 16.977293 
L 97.84521 16.713497 
L 98.874506 16.747355 
L 101.512078 17.039614 
L 102.541374 16.916037 
L 106.465565 16.851277 
L 107.880847 16.799703 
L 109.489123 17.001864 
L 110.840074 17.098993 
L 111.86937 16.928447 
L 112.898666 16.790455 
L 113.670638 16.938214 
L 114.635603 17.104111 
L 115.343244 16.964477 
L 116.308209 16.783936 
L 117.080182 16.918121 
L 118.173809 17.105379 
L 119.074443 17.043423 
L 120.361063 16.752618 
L 120.875711 16.984099 
L 121.197366 16.963705 
L 121.776345 17.274439 
L 122.419655 16.884428 
L 123.062965 16.877115 
L 123.38462 16.849687 
L 123.706275 16.847988 
L 124.02793 16.756251 
L 124.285254 17.001258 
L 124.542578 17.195848 
L 125.31455 17.305841 
L 125.571874 17.265702 
L 126.53684 16.573173 
L 126.729833 16.689264 
L 127.308812 17.246546 
L 127.630467 17.203938 
L 128.016453 17.17858 
L 128.46677 17.263821 
L 129.75339 16.510583 
L 131.618989 17.164231 
L 131.876313 16.869217 
L 132.32663 16.292088 
L 132.519623 16.329283 
L 132.776947 16.660511 
L 133.227264 17.340202 
L 133.420257 17.284431 
L 134.127898 16.737677 
L 134.706878 16.702617 
L 135.028533 16.743708 
L 135.607512 16.88885 
L 136.76547 16.803677 
L 137.537442 16.98779 
L 138.180752 16.874632 
L 139.017055 16.762637 
L 139.724696 16.939621 
L 140.560999 17.131859 
L 141.204309 17.02485 
L 142.362267 16.761825 
L 143.134239 16.893466 
L 144.42086 17.131481 
L 145.450156 17.031791 
L 147.573079 16.761698 
L 148.795368 16.872103 
L 151.239946 17.161594 
L 152.655229 17.156618 
L 153.748856 16.818219 
L 154.778152 16.640452 
L 155.357131 16.748014 
L 157.287061 17.348908 
L 158.187695 17.393076 
L 158.831005 17.131097 
L 160.181956 16.516661 
L 160.696604 16.555711 
L 161.339914 16.851989 
L 162.433542 17.382257 
L 163.012521 17.397951 
L 163.913155 17.155638 
L 165.714423 16.677573 
L 167.001043 16.504475 
L 168.223332 16.639931 
L 171.118228 17.155127 
L 172.404848 16.949903 
L 174.013123 16.72457 
L 174.978088 16.83591 
L 176.715025 17.157702 
L 177.422666 16.964282 
L 178.3233 16.724784 
L 178.902279 16.829471 
L 180.124569 17.166856 
L 180.703548 17.023178 
L 181.797175 16.704814 
L 182.311823 16.79816 
L 183.40545 17.193916 
L 183.791436 16.81929 
L 184.113091 16.57764 
L 184.370415 16.637094 
L 184.949394 17.171637 
L 185.271049 17.416889 
L 185.464042 17.343974 
L 185.914359 17.071072 
L 186.364676 17.016124 
L 186.943655 16.706168 
L 187.779958 17.126583 
L 188.230276 16.67883 
L 188.4876 16.868475 
L 189.195241 17.476311 
L 189.388234 17.471644 
L 189.581227 17.20828 
L 190.095875 16.192492 
L 190.353199 16.245836 
L 190.739185 16.494223 
L 191.318164 17.267612 
L 192.090136 17.097746 
L 192.411791 16.865388 
L 192.99077 17.006465 
L 193.441087 16.655037 
L 193.698411 16.822674 
L 194.020066 17.00999 
L 194.663376 16.995448 
L 194.985031 17.176494 
L 195.178024 16.960759 
L 195.56401 16.462007 
L 195.821334 16.555864 
L 196.20732 16.940125 
L 196.85063 17.67465 
L 197.107955 17.460053 
L 197.815596 16.618536 
L 198.265913 16.786585 
L 198.71623 16.61127 
L 199.037885 16.913074 
L 199.488202 17.311531 
L 200.260174 17.49921 
L 200.517498 17.333654 
L 201.611125 16.275203 
L 201.93278 16.322033 
L 202.318766 16.638283 
L 203.2194 17.534897 
L 203.541055 17.550398 
L 203.927041 17.290909 
L 205.020668 16.323443 
L 205.342323 16.390717 
L 205.79264 16.780784 
L 206.564613 17.503066 
L 206.950599 17.566069 
L 207.336585 17.393551 
L 209.009191 16.320963 
L 209.523839 16.401436 
L 210.295811 16.790979 
L 211.646762 17.486403 
L 212.290072 17.573085 
L 212.933382 17.441345 
L 213.834016 16.990706 
L 215.056306 16.400358 
L 215.635285 16.365945 
L 216.342926 16.56429 
L 217.565215 17.203965 
L 218.723173 17.730816 
L 219.109159 17.598161 
L 219.8168 16.998265 
L 220.395779 16.627324 
L 220.910427 16.552265 
L 221.489406 16.694625 
L 222.583033 17.273084 
L 223.419336 17.628389 
L 223.933985 17.645911 
L 224.448633 17.444985 
L 225.349267 16.772378 
L 226.056908 16.382545 
L 226.571556 16.344878 
L 227.150535 16.548194 
L 228.565817 17.158449 
L 229.530782 17.23146 
L 230.174092 17.050149 
L 231.589374 16.537316 
L 232.361346 16.528068 
L 233.326312 16.781727 
L 234.998918 17.236178 
L 235.899552 17.214973 
L 236.349869 17.13046 
L 236.349869 17.13046 
" clip-path="url(#p90af9533d9)" style="fill: none; stroke: #d62728; stroke-width: 0.5; stroke-linecap: square"/>
   </g>
   <g id="patch_3">
    <path d="M 33.707196 202.559296 
L 33.707196 7.2 
" style="fill: none; stroke: #000000; stroke-width: 0.8; stroke-linejoin: miter; stroke-linecap: square"/>
   </g>
   <g id="patch_4">
    <path d="M 245.99952 202.559296 
L 245.99952 7.2 
" style="fill: none; stroke: #000000; stroke-width: 0.8; stroke-linejoin: miter; stroke-linecap: square"/>
   </g>
   <g id="patch_5">
    <path d="M 33.707196 202.559296 
L 245.99952 202.559296 
" style="fill: none; stroke: #000000; stroke-width: 0.8; stroke-linejoin: miter; stroke-linecap: square"/>
   </g>
   <g id="patch_6">
    <path d="M 33.707196 7.2 
L 245.99952 7.2 
" style="fill: none; stroke: #000000; stroke-width: 0.8; stroke-linejoin: miter; stroke-linecap: square"/>
   </g>
   <g id="legend_1">
    <g id="patch_7">
     <path d="M 116.8999 198.059296 
L 162.806816 198.059296 
Q 164.606816 198.059296 164.606816 196.259296 
L 164.606816 156.760168 
Q 164.606816 154.960168 162.806816 154.960168 
L 116.8999 154.960168 
Q 115.0999 154.960168 115.0999 156.760168 
L 115.0999 196.259296 
Q 115.0999 198.059296 116.8999 198.059296 
z
" style="fill: #ffffff; opacity: 0.8; stroke: #cccccc; stroke-width: 0.24; stroke-linejoin: miter"/>
    </g>
    <g id="line2d_18">
     <path d="M 118.6999 162.13495 
L 127.6999 162.13495 
L 136.6999 162.13495 
" style="fill: none; stroke: #ff7f0e; stroke-width: 0.5; stroke-linecap: square"/>
    </g>
    <g id="text_16">
     <!-- $\langle \sigma_z\rangle$ -->
     <g transform="translate(143.8999 165.28495) scale(0.09 -0.09)">
      <defs>
       <path id="CMSY10-68" d="M 2099 4557 
C 2131 4627 2131 4640 2131 4672 
C 2131 4742 2074 4800 2003 4800 
C 1946 4800 1901 4768 1856 4653 
L 736 1715 
C 723 1677 704 1638 704 1600 
C 704 1581 704 1568 736 1491 
L 1856 -1446 
C 1882 -1517 1914 -1600 2003 -1600 
C 2074 -1600 2131 -1542 2131 -1472 
C 2131 -1453 2131 -1440 2099 -1370 
L 966 1600 
L 2099 4557 
z
" transform="scale(0.015625)"/>
       <path id="CMMI12-1b" d="M 3251 2408 
C 3334 2408 3546 2408 3546 2612 
C 3546 2752 3424 2752 3309 2752 
L 1894 2752 
C 934 2752 243 1686 243 932 
C 243 390 595 -64 1171 -64 
C 1926 -64 2752 747 2752 1705 
C 2752 1954 2694 2196 2541 2408 
L 3251 2408 
z
M 1178 64 
C 851 64 614 313 614 754 
C 614 1137 845 2408 1786 2408 
C 2061 2408 2368 2274 2368 1781 
C 2368 1558 2266 1021 2042 652 
C 1811 275 1466 64 1178 64 
z
" transform="scale(0.015625)"/>
       <path id="CMMI12-7a" d="M 813 486 
C 1088 803 1312 1004 1632 1296 
C 2016 1632 2182 1793 2272 1891 
C 2720 2338 2944 2713 2944 2764 
C 2944 2816 2893 2816 2880 2816 
C 2835 2816 2822 2793 2790 2750 
C 2630 2494 2477 2367 2310 2367 
C 2176 2367 2106 2421 1984 2565 
C 1850 2715 1741 2816 1555 2816 
C 1088 2816 806 2257 806 2128 
C 806 2108 813 2068 870 2068 
C 922 2068 928 2091 947 2133 
C 1056 2372 1363 2414 1485 2414 
C 1619 2414 1747 2376 1882 2327 
C 2125 2240 2227 2240 2291 2240 
C 2336 2240 2362 2240 2394 2246 
C 2182 1994 1837 1683 1549 1418 
L 902 816 
C 512 415 275 33 275 -12 
C 275 -51 307 -64 346 -64 
C 384 -64 390 -57 435 14 
C 538 163 742 384 979 384 
C 1114 384 1178 342 1306 193 
C 1427 61 1536 -64 1741 -64 
C 2368 -64 2726 732 2726 876 
C 2726 903 2720 942 2656 942 
C 2605 942 2598 917 2579 855 
C 2438 488 2061 338 1811 338 
C 1677 338 1549 376 1414 425 
C 1158 512 1088 512 1005 512 
C 941 512 870 512 813 486 
z
" transform="scale(0.015625)"/>
       <path id="CMSY10-69" d="M 1747 1491 
C 1779 1568 1779 1581 1779 1600 
C 1779 1619 1779 1632 1747 1709 
L 627 4653 
C 589 4762 550 4800 480 4800 
C 410 4800 352 4742 352 4672 
C 352 4653 352 4640 384 4570 
L 1517 1600 
L 384 -1357 
C 352 -1427 352 -1440 352 -1472 
C 352 -1542 410 -1600 480 -1600 
C 563 -1600 589 -1536 614 -1472 
L 1747 1491 
z
" transform="scale(0.015625)"/>
      </defs>
      <use xlink:href="#CMSY10-68" transform="scale(0.996264)"/>
      <use xlink:href="#CMMI12-1b" transform="translate(38.743734 0) scale(0.996264)"/>
      <use xlink:href="#CMMI12-7a" transform="translate(94.189195 -14.943915) scale(0.697382)"/>
      <use xlink:href="#CMSY10-69" transform="translate(129.51575 0) scale(0.996264)"/>
     </g>
    </g>
    <g id="line2d_19">
     <path d="M 118.6999 175.601326 
L 127.6999 175.601326 
L 136.6999 175.601326 
" style="fill: none; stroke: #2ca02c; stroke-width: 0.5; stroke-linecap: square"/>
    </g>
    <g id="text_17">
     <!-- $\langle \sigma_x\rangle$ -->
     <g transform="translate(143.8999 178.751326) scale(0.09 -0.09)">
      <defs>
       <path id="CMMI12-78" d="M 3034 2606 
C 2829 2567 2752 2414 2752 2293 
C 2752 2139 2874 2088 2963 2088 
C 3155 2088 3290 2254 3290 2427 
C 3290 2695 2982 2816 2714 2816 
C 2323 2816 2106 2433 2048 2312 
C 1901 2816 1504 2816 1389 2816 
C 736 2816 390 1980 390 1839 
C 390 1814 416 1782 461 1782 
C 512 1782 525 1820 538 1846 
C 755 2555 1184 2689 1370 2689 
C 1658 2689 1715 2420 1715 2267 
C 1715 2127 1677 1980 1600 1673 
L 1382 798 
C 1286 415 1101 64 762 64 
C 730 64 570 64 435 147 
C 666 192 717 383 717 460 
C 717 588 621 664 499 664 
C 346 664 179 530 179 326 
C 179 57 480 -64 755 -64 
C 1062 -64 1280 179 1414 441 
C 1517 64 1837 -64 2074 -64 
C 2726 -64 3072 773 3072 913 
C 3072 945 3046 971 3008 971 
C 2950 971 2944 939 2925 888 
C 2752 326 2381 64 2093 64 
C 1869 64 1747 230 1747 492 
C 1747 632 1773 734 1875 1156 
L 2099 2024 
C 2195 2408 2413 2689 2707 2689 
C 2720 2689 2899 2689 3034 2606 
z
" transform="scale(0.015625)"/>
      </defs>
      <use xlink:href="#CMSY10-68" transform="scale(0.996264)"/>
      <use xlink:href="#CMMI12-1b" transform="translate(38.743734 0) scale(0.996264)"/>
      <use xlink:href="#CMMI12-78" transform="translate(94.189195 -14.943915) scale(0.697382)"/>
      <use xlink:href="#CMSY10-69" transform="translate(133.490986 0) scale(0.996264)"/>
     </g>
    </g>
    <g id="line2d_20">
     <path d="M 118.6999 189.067702 
L 127.6999 189.067702 
L 136.6999 189.067702 
" style="fill: none; stroke: #d62728; stroke-width: 0.5; stroke-linecap: square"/>
    </g>
    <g id="text_18">
     <!-- $\langle \sigma_y\rangle$ -->
     <g transform="translate(143.8999 192.217702) scale(0.09 -0.09)">
      <defs>
       <path id="CMMI12-79" d="M 1683 -700 
C 1510 -939 1261 -1152 947 -1152 
C 870 -1152 563 -1152 467 -889 
C 486 -895 518 -895 531 -895 
C 723 -895 851 -729 851 -582 
C 851 -435 730 -384 634 -384 
C 531 -384 307 -458 307 -759 
C 307 -1071 582 -1286 947 -1286 
C 1587 -1286 2234 -700 2413 6 
L 3040 2485 
C 3046 2517 3059 2556 3059 2594 
C 3059 2689 2982 2753 2886 2753 
C 2829 2753 2694 2727 2643 2535 
L 2170 658 
C 2138 543 2138 530 2086 460 
C 1958 281 1747 64 1440 64 
C 1082 64 1050 415 1050 588 
C 1050 952 1222 1443 1395 1903 
C 1466 2088 1504 2178 1504 2305 
C 1504 2574 1312 2816 998 2816 
C 410 2816 173 1890 173 1839 
C 173 1814 198 1782 243 1782 
C 301 1782 307 1807 333 1897 
C 486 2433 730 2689 979 2689 
C 1037 2689 1146 2689 1146 2478 
C 1146 2312 1075 2127 979 1884 
C 666 1047 666 837 666 683 
C 666 77 1101 -64 1421 -64 
C 1606 -64 1837 -6 2061 230 
L 2067 224 
C 1971 -147 1907 -392 1683 -700 
z
" transform="scale(0.015625)"/>
      </defs>
      <use xlink:href="#CMSY10-68" transform="scale(0.996264)"/>
      <use xlink:href="#CMMI12-1b" transform="translate(38.743734 0) scale(0.996264)"/>
      <use xlink:href="#CMMI12-79" transform="translate(94.189195 -14.943915) scale(0.697382)"/>
      <use xlink:href="#CMSY10-69" transform="translate(130.484301 0) scale(0.996264)"/>
     </g>
    </g>
   </g>
  </g>
 </g>
 <defs>
  <clipPath id="p90af9533d9">
   <rect x="33.707196" y="7.2" width="212.292324" height="195.359296"/>
  </clipPath>
 </defs>
</svg>
