<?xml version="1.0" encoding="utf-8" standalone="no"?>
<!DOCTYPE svg PUBLIC "-//W3C//DTD SVG 1.1//EN"
  "http://www.w3.org/Graphics/SVG/1.1/DTD/svg11.dtd">
<svg xmlns:xlink="http://www.w3.org/1999/xlink" width="253.19952pt" height="238.79952pt" viewBox="0 0 253.19952 238.79952" xmlns="http://www.w3.org/2000/svg" version="1.1">
 <metadata>
  <rdf:RDF xmlns:dc="http://purl.org/dc/elements/1.1/" xmlns:cc="http://creativecommons.org/ns#" xmlns:rdf="http://www.w3.org/1999/02/22-rdf-syntax-ns#">
   <cc:Work>
    <dc:type rdf:resource="http://purl.org/dc/dcmitype/StillImage"/>
    <dc:date>1980-01-01T00:00:00+00:00</dc:date>
    <dc:format>image/svg+xml</dc:format>
    <dc:creator>
     <cc:Agent>
      <dc:title>Matplotlib v3.6.2, https://matplotlib.org/</dc:title>
     </cc:Agent>
    </dc:creator>
   </cc:Work>
  </rdf:RDF>
 </metadata>
 <defs>
  <style type="text/css">*{stroke-linejoin: round; stroke-linecap: butt}</style>
 </defs>
 <g id="figure_1">
  <g id="patch_1">
   <path d="M 0 238.79952 
L 253.19952 238.79952 
L 253.19952 0 
L 0 0 
z
" style="fill: #ffffff"/>
  </g>
  <g id="axes_1">
   <g id="patch_2">
    <path d="M 33.707196 202.559296 
L 245.99952 202.559296 
L 245.99952 7.2 
L 33.707196 7.2 
z
" style="fill: #ffffff"/>
   </g>
   <g id="matplotlib.axis_1">
    <g id="xtick_1">
     <g id="line2d_1">
      <defs>
       <path id="ma0d1d75053" d="M 0 0 
L 0 3.5 
" style="stroke: #000000; stroke-width: 0.8"/>
      </defs>
      <g>
       <use xlink:href="#ma0d1d75053" x="43.356847" y="202.559296" style="stroke: #000000; stroke-width: 0.8"/>
      </g>
     </g>
     <g id="text_1">
      <!-- $\mathdefault{0}$ -->
      <g transform="translate(41.239756 217.194098) scale(0.08 -0.08)">
       <defs>
        <path id="CMR17-30" d="M 2688 2025 
C 2688 2416 2682 3080 2413 3591 
C 2176 4039 1798 4198 1466 4198 
C 1158 4198 768 4058 525 3597 
C 269 3118 243 2524 243 2025 
C 243 1661 250 1106 448 619 
C 723 -39 1216 -128 1466 -128 
C 1760 -128 2208 -7 2470 600 
C 2662 1042 2688 1559 2688 2025 
z
M 1466 -26 
C 1056 -26 813 325 723 812 
C 653 1188 653 1738 653 2096 
C 653 2588 653 2997 736 3387 
C 858 3929 1216 4096 1466 4096 
C 1728 4096 2067 3923 2189 3400 
C 2272 3036 2278 2607 2278 2096 
C 2278 1680 2278 1169 2202 792 
C 2067 95 1690 -26 1466 -26 
z
" transform="scale(0.015625)"/>
       </defs>
       <use xlink:href="#CMR17-30" transform="scale(0.996264)"/>
      </g>
     </g>
    </g>
    <g id="xtick_2">
     <g id="line2d_2">
      <g>
       <use xlink:href="#ma0d1d75053" x="70.161434" y="202.559296" style="stroke: #000000; stroke-width: 0.8"/>
      </g>
     </g>
     <g id="text_2">
      <!-- $\mathdefault{25}$ -->
      <g transform="translate(65.927251 217.194098) scale(0.08 -0.08)">
       <defs>
        <path id="CMR17-32" d="M 2669 989 
L 2554 989 
C 2490 536 2438 459 2413 420 
C 2381 369 1920 369 1830 369 
L 602 369 
C 832 619 1280 1072 1824 1597 
C 2214 1967 2669 2402 2669 3035 
C 2669 3790 2067 4224 1395 4224 
C 691 4224 262 3604 262 3030 
C 262 2780 448 2748 525 2748 
C 589 2748 781 2787 781 3010 
C 781 3207 614 3264 525 3264 
C 486 3264 448 3258 422 3245 
C 544 3790 915 4058 1306 4058 
C 1862 4058 2227 3617 2227 3035 
C 2227 2479 1901 2000 1536 1584 
L 262 146 
L 262 0 
L 2515 0 
L 2669 989 
z
" transform="scale(0.015625)"/>
        <path id="CMR17-35" d="M 730 3692 
C 794 3666 1056 3584 1325 3584 
C 1920 3584 2246 3911 2432 4100 
C 2432 4157 2432 4192 2394 4192 
C 2387 4192 2374 4192 2323 4163 
C 2099 4058 1837 3973 1517 3973 
C 1325 3973 1037 3999 723 4139 
C 653 4171 640 4171 634 4171 
C 602 4171 595 4164 595 4037 
L 595 2203 
C 595 2089 595 2057 659 2057 
C 691 2057 704 2070 736 2114 
C 941 2401 1222 2522 1542 2522 
C 1766 2522 2246 2382 2246 1289 
C 2246 1085 2246 715 2054 421 
C 1894 159 1645 25 1370 25 
C 947 25 518 320 403 814 
C 429 807 480 795 506 795 
C 589 795 749 840 749 1038 
C 749 1210 627 1280 506 1280 
C 358 1280 262 1190 262 1011 
C 262 454 704 -128 1382 -128 
C 2042 -128 2669 440 2669 1264 
C 2669 2030 2170 2624 1549 2624 
C 1222 2624 947 2503 730 2274 
L 730 3692 
z
" transform="scale(0.015625)"/>
       </defs>
       <use xlink:href="#CMR17-32" transform="scale(0.996264)"/>
       <use xlink:href="#CMR17-35" transform="translate(45.690477 0) scale(0.996264)"/>
      </g>
     </g>
    </g>
    <g id="xtick_3">
     <g id="line2d_3">
      <g>
       <use xlink:href="#ma0d1d75053" x="96.96602" y="202.559296" style="stroke: #000000; stroke-width: 0.8"/>
      </g>
     </g>
     <g id="text_3">
      <!-- $\mathdefault{50}$ -->
      <g transform="translate(92.731837 217.194098) scale(0.08 -0.08)">
       <use xlink:href="#CMR17-35" transform="scale(0.996264)"/>
       <use xlink:href="#CMR17-30" transform="translate(45.690477 0) scale(0.996264)"/>
      </g>
     </g>
    </g>
    <g id="xtick_4">
     <g id="line2d_4">
      <g>
       <use xlink:href="#ma0d1d75053" x="123.770606" y="202.559296" style="stroke: #000000; stroke-width: 0.8"/>
      </g>
     </g>
     <g id="text_4">
      <!-- $\mathdefault{75}$ -->
      <g transform="translate(119.536423 217.194098) scale(0.08 -0.08)">
       <defs>
        <path id="CMR17-37" d="M 2886 3941 
L 2886 4081 
L 1382 4081 
C 634 4081 621 4165 595 4288 
L 480 4288 
L 294 3094 
L 410 3094 
C 429 3215 474 3540 550 3661 
C 589 3712 1062 3712 1171 3712 
L 2579 3712 
L 1869 2661 
C 1395 1954 1069 999 1069 165 
C 1069 89 1069 -128 1299 -128 
C 1530 -128 1530 89 1530 171 
L 1530 465 
C 1530 1508 1709 2196 2003 2636 
L 2886 3941 
z
" transform="scale(0.015625)"/>
       </defs>
       <use xlink:href="#CMR17-37" transform="scale(0.996264)"/>
       <use xlink:href="#CMR17-35" transform="translate(45.690477 0) scale(0.996264)"/>
      </g>
     </g>
    </g>
    <g id="xtick_5">
     <g id="line2d_5">
      <g>
       <use xlink:href="#ma0d1d75053" x="150.575193" y="202.559296" style="stroke: #000000; stroke-width: 0.8"/>
      </g>
     </g>
     <g id="text_5">
      <!-- $\mathdefault{100}$ -->
      <g transform="translate(144.223918 217.194098) scale(0.08 -0.08)">
       <defs>
        <path id="CMR17-31" d="M 1702 4058 
C 1702 4192 1696 4192 1606 4192 
C 1357 3916 979 3827 621 3827 
C 602 3827 570 3827 563 3808 
C 557 3795 557 3782 557 3648 
C 755 3648 1088 3686 1344 3839 
L 1344 461 
C 1344 236 1331 160 781 160 
L 589 160 
L 589 0 
C 896 0 1216 0 1523 0 
C 1830 0 2150 0 2458 0 
L 2458 160 
L 2266 160 
C 1715 160 1702 230 1702 458 
L 1702 4058 
z
" transform="scale(0.015625)"/>
       </defs>
       <use xlink:href="#CMR17-31" transform="scale(0.996264)"/>
       <use xlink:href="#CMR17-30" transform="translate(45.690477 0) scale(0.996264)"/>
       <use xlink:href="#CMR17-30" transform="translate(91.380954 0) scale(0.996264)"/>
      </g>
     </g>
    </g>
    <g id="xtick_6">
     <g id="line2d_6">
      <g>
       <use xlink:href="#ma0d1d75053" x="177.379779" y="202.559296" style="stroke: #000000; stroke-width: 0.8"/>
      </g>
     </g>
     <g id="text_6">
      <!-- $\mathdefault{125}$ -->
      <g transform="translate(171.028505 217.194098) scale(0.08 -0.08)">
       <use xlink:href="#CMR17-31" transform="scale(0.996264)"/>
       <use xlink:href="#CMR17-32" transform="translate(45.690477 0) scale(0.996264)"/>
       <use xlink:href="#CMR17-35" transform="translate(91.380954 0) scale(0.996264)"/>
      </g>
     </g>
    </g>
    <g id="xtick_7">
     <g id="line2d_7">
      <g>
       <use xlink:href="#ma0d1d75053" x="204.184365" y="202.559296" style="stroke: #000000; stroke-width: 0.8"/>
      </g>
     </g>
     <g id="text_7">
      <!-- $\mathdefault{150}$ -->
      <g transform="translate(197.833091 217.194098) scale(0.08 -0.08)">
       <use xlink:href="#CMR17-31" transform="scale(0.996264)"/>
       <use xlink:href="#CMR17-35" transform="translate(45.690477 0) scale(0.996264)"/>
       <use xlink:href="#CMR17-30" transform="translate(91.380954 0) scale(0.996264)"/>
      </g>
     </g>
    </g>
    <g id="xtick_8">
     <g id="line2d_8">
      <g>
       <use xlink:href="#ma0d1d75053" x="230.988952" y="202.559296" style="stroke: #000000; stroke-width: 0.8"/>
      </g>
     </g>
     <g id="text_8">
      <!-- $\mathdefault{175}$ -->
      <g transform="translate(224.637677 217.194098) scale(0.08 -0.08)">
       <use xlink:href="#CMR17-31" transform="scale(0.996264)"/>
       <use xlink:href="#CMR17-37" transform="translate(45.690477 0) scale(0.996264)"/>
       <use xlink:href="#CMR17-35" transform="translate(91.380954 0) scale(0.996264)"/>
      </g>
     </g>
    </g>
    <g id="text_9">
     <!-- $\tau$ -->
     <g transform="translate(137.675756 229.662342) scale(0.1 -0.1)">
      <defs>
       <path id="CMMI12-1c" d="M 1837 2408 
L 2899 2408 
C 2982 2408 3194 2408 3194 2612 
C 3194 2752 3072 2752 2957 2752 
L 1197 2752 
C 1050 2752 832 2752 538 2440 
C 371 2255 166 1917 166 1879 
C 166 1841 198 1828 237 1828 
C 282 1828 288 1847 320 1885 
C 653 2408 986 2408 1146 2408 
L 1677 2408 
L 1011 223 
C 979 127 979 114 979 95 
C 979 25 1024 -64 1152 -64 
C 1350 -64 1382 108 1402 203 
L 1837 2408 
z
" transform="scale(0.015625)"/>
      </defs>
      <use xlink:href="#CMMI12-1c" transform="scale(0.996264)"/>
     </g>
    </g>
   </g>
   <g id="matplotlib.axis_2">
    <g id="ytick_1">
     <g id="line2d_9">
      <defs>
       <path id="m98ef801971" d="M 0 0 
L -3.5 0 
" style="stroke: #000000; stroke-width: 0.8"/>
      </defs>
      <g>
       <use xlink:href="#m98ef801971" x="33.707196" y="193.679328" style="stroke: #000000; stroke-width: 0.8"/>
      </g>
     </g>
     <g id="text_10">
      <!-- $\mathdefault{−1.0}$ -->
      <g transform="translate(7.2 196.446729) scale(0.08 -0.08)">
       <defs>
        <path id="CMSY10-0" d="M 4218 1472 
C 4326 1472 4442 1472 4442 1600 
C 4442 1728 4326 1728 4218 1728 
L 755 1728 
C 646 1728 531 1728 531 1600 
C 531 1472 646 1472 755 1472 
L 4218 1472 
z
" transform="scale(0.015625)"/>
        <path id="CMMI12-3a" d="M 1178 307 
C 1178 492 1024 619 870 619 
C 685 619 557 466 557 313 
C 557 128 710 0 864 0 
C 1050 0 1178 153 1178 307 
z
" transform="scale(0.015625)"/>
       </defs>
       <use xlink:href="#CMSY10-0" transform="scale(0.996264)"/>
       <use xlink:href="#CMR17-31" transform="translate(77.487468 0) scale(0.996264)"/>
       <use xlink:href="#CMMI12-3a" transform="translate(123.177945 0) scale(0.996264)"/>
       <use xlink:href="#CMR17-30" transform="translate(150.275122 0) scale(0.996264)"/>
      </g>
     </g>
    </g>
    <g id="ytick_2">
     <g id="line2d_10">
      <g>
       <use xlink:href="#m98ef801971" x="33.707196" y="158.357996" style="stroke: #000000; stroke-width: 0.8"/>
      </g>
     </g>
     <g id="text_11">
      <!-- $\mathdefault{−0.8}$ -->
      <g transform="translate(7.2 161.125397) scale(0.08 -0.08)">
       <defs>
        <path id="CMR17-38" d="M 1741 2264 
C 2144 2467 2554 2773 2554 3263 
C 2554 3841 1990 4179 1472 4179 
C 890 4179 378 3759 378 3180 
C 378 3021 416 2747 666 2505 
C 730 2442 998 2251 1171 2130 
C 883 1983 211 1634 211 934 
C 211 279 838 -128 1459 -128 
C 2144 -128 2720 362 2720 1010 
C 2720 1590 2330 1857 2074 2029 
L 1741 2264 
z
M 902 2822 
C 851 2854 595 3051 595 3351 
C 595 3739 998 4032 1459 4032 
C 1965 4032 2336 3676 2336 3262 
C 2336 2669 1670 2331 1638 2331 
C 1632 2331 1626 2331 1574 2370 
L 902 2822 
z
M 2080 1519 
C 2176 1449 2483 1240 2483 851 
C 2483 381 2010 25 1472 25 
C 890 25 448 438 448 940 
C 448 1443 838 1862 1280 2060 
L 2080 1519 
z
" transform="scale(0.015625)"/>
       </defs>
       <use xlink:href="#CMSY10-0" transform="scale(0.996264)"/>
       <use xlink:href="#CMR17-30" transform="translate(77.487468 0) scale(0.996264)"/>
       <use xlink:href="#CMMI12-3a" transform="translate(123.177945 0) scale(0.996264)"/>
       <use xlink:href="#CMR17-38" transform="translate(150.275122 0) scale(0.996264)"/>
      </g>
     </g>
    </g>
    <g id="ytick_3">
     <g id="line2d_11">
      <g>
       <use xlink:href="#m98ef801971" x="33.707196" y="123.036663" style="stroke: #000000; stroke-width: 0.8"/>
      </g>
     </g>
     <g id="text_12">
      <!-- $\mathdefault{−0.6}$ -->
      <g transform="translate(7.2 125.804064) scale(0.08 -0.08)">
       <defs>
        <path id="CMR17-36" d="M 678 2176 
C 678 3690 1395 4032 1811 4032 
C 1946 4032 2272 4009 2400 3776 
C 2298 3776 2106 3776 2106 3553 
C 2106 3381 2246 3323 2336 3323 
C 2394 3323 2566 3348 2566 3560 
C 2566 3954 2246 4179 1805 4179 
C 1043 4179 243 3390 243 1984 
C 243 253 966 -128 1478 -128 
C 2099 -128 2688 427 2688 1283 
C 2688 2081 2170 2662 1517 2662 
C 1126 2662 838 2407 678 1960 
L 678 2176 
z
M 1478 25 
C 691 25 691 1200 691 1436 
C 691 1896 909 2560 1504 2560 
C 1613 2560 1926 2560 2138 2120 
C 2253 1870 2253 1609 2253 1289 
C 2253 944 2253 690 2118 434 
C 1978 171 1773 25 1478 25 
z
" transform="scale(0.015625)"/>
       </defs>
       <use xlink:href="#CMSY10-0" transform="scale(0.996264)"/>
       <use xlink:href="#CMR17-30" transform="translate(77.487468 0) scale(0.996264)"/>
       <use xlink:href="#CMMI12-3a" transform="translate(123.177945 0) scale(0.996264)"/>
       <use xlink:href="#CMR17-36" transform="translate(150.275122 0) scale(0.996264)"/>
      </g>
     </g>
    </g>
    <g id="ytick_4">
     <g id="line2d_12">
      <g>
       <use xlink:href="#m98ef801971" x="33.707196" y="87.715331" style="stroke: #000000; stroke-width: 0.8"/>
      </g>
     </g>
     <g id="text_13">
      <!-- $\mathdefault{−0.4}$ -->
      <g transform="translate(7.2 90.482732) scale(0.08 -0.08)">
       <defs>
        <path id="CMR17-34" d="M 2150 4122 
C 2150 4256 2144 4256 2029 4256 
L 128 1254 
L 128 1088 
L 1779 1088 
L 1779 457 
C 1779 224 1766 160 1318 160 
L 1197 160 
L 1197 0 
C 1402 0 1747 0 1965 0 
C 2182 0 2528 0 2733 0 
L 2733 160 
L 2611 160 
C 2163 160 2150 224 2150 457 
L 2150 1088 
L 2803 1088 
L 2803 1254 
L 2150 1254 
L 2150 4122 
z
M 1798 3703 
L 1798 1254 
L 256 1254 
L 1798 3703 
z
" transform="scale(0.015625)"/>
       </defs>
       <use xlink:href="#CMSY10-0" transform="scale(0.996264)"/>
       <use xlink:href="#CMR17-30" transform="translate(77.487468 0) scale(0.996264)"/>
       <use xlink:href="#CMMI12-3a" transform="translate(123.177945 0) scale(0.996264)"/>
       <use xlink:href="#CMR17-34" transform="translate(150.275122 0) scale(0.996264)"/>
      </g>
     </g>
    </g>
    <g id="ytick_5">
     <g id="line2d_13">
      <g>
       <use xlink:href="#m98ef801971" x="33.707196" y="52.393999" style="stroke: #000000; stroke-width: 0.8"/>
      </g>
     </g>
     <g id="text_14">
      <!-- $\mathdefault{−0.2}$ -->
      <g transform="translate(7.2 55.1614) scale(0.08 -0.08)">
       <use xlink:href="#CMSY10-0" transform="scale(0.996264)"/>
       <use xlink:href="#CMR17-30" transform="translate(77.487468 0) scale(0.996264)"/>
       <use xlink:href="#CMMI12-3a" transform="translate(123.177945 0) scale(0.996264)"/>
       <use xlink:href="#CMR17-32" transform="translate(150.275122 0) scale(0.996264)"/>
      </g>
     </g>
    </g>
    <g id="ytick_6">
     <g id="line2d_14">
      <g>
       <use xlink:href="#m98ef801971" x="33.707196" y="17.072667" style="stroke: #000000; stroke-width: 0.8"/>
      </g>
     </g>
     <g id="text_15">
      <!-- $\mathdefault{0.0}$ -->
      <g transform="translate(13.786507 19.840068) scale(0.08 -0.08)">
       <use xlink:href="#CMR17-30" transform="scale(0.996264)"/>
       <use xlink:href="#CMMI12-3a" transform="translate(45.690477 0) scale(0.996264)"/>
       <use xlink:href="#CMR17-30" transform="translate(72.787654 0) scale(0.996264)"/>
      </g>
     </g>
    </g>
   </g>
   <g id="line2d_15">
    <path d="M 43.356847 193.679328 
L 52.556181 193.585517 
L 52.877836 193.317952 
L 53.13516 192.811269 
L 53.456815 191.528947 
L 53.77847 189.160534 
L 54.164456 184.414431 
L 54.679105 174.660735 
L 57.445338 114.947496 
L 58.152979 106.136249 
L 58.989282 98.483703 
L 59.889916 92.181333 
L 61.562522 82.527444 
L 62.398825 79.290061 
L 63.36379 74.886922 
L 63.94277 73.396791 
L 64.58608 71.782814 
L 65.422383 69.622948 
L 66.130024 67.966246 
L 66.451679 67.262592 
L 66.709003 67.172095 
L 67.094989 67.144428 
L 67.609637 66.642207 
L 68.252947 65.904288 
L 69.153581 64.678913 
L 69.346574 64.663265 
L 69.539567 64.886047 
L 69.989884 66.000371 
L 71.276504 69.472914 
L 72.756118 74.128259 
L 73.399428 75.342487 
L 73.849745 75.800616 
L 74.364393 76.001976 
L 75.265027 76.046177 
L 85.622319 75.946995 
L 86.265629 75.657933 
L 87.487918 74.980193 
L 87.745242 75.073892 
L 88.066897 75.477835 
L 88.452883 76.465265 
L 88.9032 78.348905 
L 89.54651 82.167652 
L 90.575807 89.978409 
L 92.05542 100.748426 
L 93.149047 106.954582 
L 94.178343 111.601138 
L 95.143308 115.034866 
L 95.979611 117.231747 
L 96.751583 118.803491 
L 98.359858 121.286276 
L 99.646479 122.771876 
L 100.35412 123.374183 
L 101.447747 124.178081 
L 101.898064 124.947852 
L 102.348381 126.229703 
L 102.92736 128.667816 
L 103.892325 134.033973 
L 104.792959 138.590368 
L 105.371938 140.497919 
L 105.886586 141.453525 
L 106.336903 141.844265 
L 106.851551 141.989685 
L 108.266834 142.009552 
L 117.015851 141.906596 
L 117.337506 141.630584 
L 117.59483 141.132178 
L 117.916485 139.949161 
L 118.302471 137.382587 
L 118.752788 132.501138 
L 119.460429 121.694414 
L 120.875711 100.290643 
L 121.905007 88.511221 
L 122.483986 83.831335 
L 123.127296 80.304746 
L 123.770606 78.091142 
L 124.413916 76.018601 
L 125.185888 73.490349 
L 126.665502 69.620696 
L 127.566136 68.232513 
L 128.402439 66.661734 
L 129.75339 64.880359 
L 130.847017 63.490814 
L 133.162933 61.828655 
L 133.484588 61.926265 
L 133.999236 62.381244 
L 134.385222 62.967304 
L 134.899871 64.260197 
L 135.736174 67.087984 
L 136.958463 70.979522 
L 137.537442 72.264973 
L 138.05209 72.919024 
L 138.566738 73.200101 
L 139.274379 73.27183 
L 149.503009 73.251641 
L 150.339312 73.076778 
L 151.818925 72.652389 
L 152.14058 72.834651 
L 152.462235 73.361779 
L 152.848222 74.571514 
L 153.36287 77.136298 
L 154.199173 82.773255 
L 155.678786 94.77243 
L 156.836744 103.242047 
L 157.673047 107.717623 
L 158.831005 112.565803 
L 159.667308 115.269343 
L 160.503611 117.150131 
L 161.725901 119.455983 
L 163.784493 122.217704 
L 164.492134 122.92772 
L 165.714423 123.936029 
L 166.100409 124.585265 
L 166.550726 125.825275 
L 167.129705 128.231767 
L 168.09467 133.530559 
L 169.123966 138.693975 
L 169.702945 140.573253 
L 170.217593 141.524316 
L 170.667911 141.9117 
L 171.182559 142.052073 
L 172.597841 142.071605 
L 181.346858 141.968244 
L 181.668513 141.697087 
L 181.925837 141.204838 
L 182.247492 140.018345 
L 182.633478 137.437014 
L 183.083795 132.540687 
L 183.855767 120.733536 
L 185.399711 97.89331 
L 186.043021 90.552368 
L 187.072317 82.386017 
L 187.522634 80.556896 
L 188.551931 77.006364 
L 189.838551 72.630172 
L 190.674854 70.782442 
L 191.382495 68.915946 
L 192.34746 67.281479 
L 193.312425 66.292178 
L 193.827073 65.05923 
L 194.213059 64.322315 
L 194.470383 64.214739 
L 195.113693 64.331791 
L 195.499679 63.933708 
L 196.014327 63.422782 
L 196.657637 63.047328 
L 197.365279 62.365561 
L 197.622603 62.384301 
L 197.944258 62.701366 
L 199.037885 64.374938 
L 199.616864 65.85371 
L 200.388836 68.663618 
L 201.482463 72.180087 
L 201.997111 73.261394 
L 202.447428 73.7538 
L 202.962076 73.981059 
L 203.798379 74.026448 
L 214.284333 73.919093 
L 214.927644 73.595924 
L 216.085602 72.916237 
L 216.407257 73.044473 
L 216.728912 73.468683 
L 217.114898 74.456201 
L 217.565215 76.374801 
L 218.144194 80.142117 
L 221.875392 107.352136 
L 222.840357 111.862688 
L 223.67666 114.884388 
L 224.512964 117.022361 
L 225.992577 120.048881 
L 226.957542 121.407931 
L 227.729514 122.187964 
L 229.080465 123.177598 
L 229.916768 123.723912 
L 230.367085 124.315915 
L 230.753071 125.176428 
L 231.203388 126.731745 
L 231.911029 130.14619 
L 233.583636 138.765316 
L 234.162615 140.433658 
L 234.612932 141.139666 
L 235.063249 141.464886 
L 235.642228 141.581957 
L 236.349869 141.591251 
L 236.349869 141.591251 
" clip-path="url(#pc26495cb7d)" style="fill: none; stroke: #ff7f0e; stroke-width: 0.5; stroke-linecap: square"/>
   </g>
   <g id="line2d_16">
    <path d="M 43.356847 17.072667 
L 53.392484 17.179007 
L 54.743436 17.406768 
L 56.094387 17.266966 
L 56.93069 17.491946 
L 57.702662 17.346419 
L 58.345972 17.364145 
L 59.761254 17.009554 
L 60.275902 17.127138 
L 61.369529 16.850295 
L 61.819846 16.383302 
L 62.205832 16.084097 
L 62.463156 16.162414 
L 62.784811 16.594687 
L 63.36379 17.476409 
L 63.685446 17.628771 
L 64.007101 17.537397 
L 64.972066 17.040243 
L 65.744038 17.195558 
L 66.130024 17.212485 
L 67.545306 16.892344 
L 69.475236 17.446871 
L 69.861222 17.262522 
L 70.568863 16.821794 
L 71.01918 16.891387 
L 71.598159 16.97297 
L 72.498794 16.975503 
L 73.592421 17.074968 
L 75.007703 17.031771 
L 76.615978 17.122492 
L 78.481577 17.029476 
L 80.540169 17.13308 
L 84.207037 17.037979 
L 86.844608 17.104375 
L 87.938235 17.100331 
L 88.967531 17.366134 
L 89.610841 17.414046 
L 90.575807 17.141574 
L 92.634399 16.659482 
L 93.277709 16.737052 
L 95.979611 17.357342 
L 96.622921 17.187835 
L 97.587886 16.737555 
L 98.424189 16.359911 
L 99.71081 16.257209 
L 100.161127 16.387097 
L 100.740106 16.845831 
L 101.769402 17.67867 
L 102.28405 17.842192 
L 103.056022 17.779676 
L 104.149649 17.456616 
L 106.208241 16.838481 
L 107.237537 16.806658 
L 108.331165 17.014679 
L 110.068102 17.354761 
L 110.840074 17.259026 
L 112.770004 16.82703 
L 113.477645 17.117729 
L 114.185286 17.352641 
L 114.699934 17.265439 
L 116.115216 16.804652 
L 116.694195 17.02717 
L 117.59483 17.381918 
L 118.109478 17.326338 
L 119.331767 17.059832 
L 120.554056 17.33228 
L 121.004373 16.976376 
L 121.390359 16.728942 
L 121.712014 16.803783 
L 122.74131 17.318015 
L 123.191627 17.263559 
L 123.577613 16.902187 
L 124.092261 16.444435 
L 124.413916 16.411101 
L 124.928564 16.653718 
L 125.443212 16.791043 
L 126.794164 16.894863 
L 128.080784 17.790083 
L 128.402439 17.64133 
L 129.174411 17.111545 
L 129.624728 17.332467 
L 130.075045 17.47698 
L 131.940644 17.242732 
L 132.390961 16.980802 
L 132.776947 17.087374 
L 133.227264 17.181771 
L 133.741912 17.027844 
L 134.385222 16.766795 
L 134.706878 16.890655 
L 135.736174 17.569291 
L 136.057829 17.395026 
L 136.636808 16.671751 
L 137.087125 16.303425 
L 137.40878 16.350981 
L 137.794766 16.730736 
L 138.759731 17.866336 
L 139.017055 17.861634 
L 139.33871 17.609575 
L 140.560999 16.258662 
L 140.818323 16.345157 
L 141.204309 16.759217 
L 142.104943 17.834083 
L 142.426598 17.872947 
L 142.748253 17.689123 
L 143.391563 16.965117 
L 144.034874 16.373724 
L 144.485191 16.259154 
L 144.935508 16.387183 
L 145.643149 16.882423 
L 146.801107 17.707045 
L 147.444417 17.884399 
L 148.023396 17.800529 
L 148.666706 17.465989 
L 150.725298 16.191574 
L 151.304277 16.213127 
L 151.947587 16.467156 
L 152.655229 17.017284 
L 153.491532 17.657562 
L 154.00618 17.778666 
L 154.906814 17.723581 
L 157.415723 16.998487 
L 158.059033 16.772963 
L 159.088329 16.718586 
L 163.141183 17.520104 
L 164.041817 17.399811 
L 166.100409 16.923952 
L 166.679388 16.885036 
L 169.316959 17.371549 
L 170.153262 17.48488 
L 170.989566 17.360713 
L 173.82013 16.688738 
L 174.592102 16.90351 
L 176.200377 17.475225 
L 176.715025 17.334817 
L 178.194638 16.681888 
L 178.644955 16.881715 
L 179.674252 17.471948 
L 180.060238 17.412498 
L 180.639217 17.042288 
L 181.282527 16.703238 
L 181.668513 16.740013 
L 182.311823 17.099271 
L 182.890802 17.318446 
L 183.40545 17.257886 
L 184.563408 16.919772 
L 185.206718 17.175545 
L 185.657035 17.270515 
L 186.043021 17.095086 
L 186.622 16.767374 
L 186.943655 16.839528 
L 187.458303 17.238165 
L 187.90862 17.531406 
L 188.230276 17.456941 
L 188.680593 17.104669 
L 189.323903 16.569346 
L 189.645558 16.569071 
L 189.967213 16.799391 
L 190.867847 17.723448 
L 191.125171 17.601717 
L 192.090136 16.801493 
L 192.411791 16.90209 
L 192.926439 17.330693 
L 193.376756 17.633537 
L 193.63408 17.570024 
L 194.856369 16.844533 
L 195.242355 16.919751 
L 196.014327 17.168181 
L 196.593306 17.060274 
L 197.300948 16.948337 
L 197.686934 17.035285 
L 198.201582 17.47307 
L 198.651899 17.770054 
L 199.037885 17.773525 
L 199.423871 17.526561 
L 200.453167 16.611993 
L 200.774822 16.695123 
L 201.225139 17.08057 
L 201.93278 17.691884 
L 202.254435 17.704503 
L 202.57609 17.490064 
L 203.798379 16.391856 
L 204.120034 16.526174 
L 204.570351 17.010804 
L 205.213661 17.681206 
L 205.535316 17.748684 
L 205.856971 17.590115 
L 206.435951 16.96514 
L 207.01493 16.457088 
L 207.400916 16.400922 
L 207.786902 16.57267 
L 209.652501 17.752996 
L 210.23148 17.655248 
L 211.003452 17.259964 
L 212.483065 16.463998 
L 213.126375 16.397627 
L 213.769685 16.575476 
L 214.541657 17.036627 
L 215.699616 17.753158 
L 216.149933 17.773105 
L 216.728912 17.555694 
L 218.337187 16.832173 
L 219.109159 16.84701 
L 220.395779 17.028942 
L 221.039089 16.773919 
L 221.618068 16.616737 
L 223.355005 16.727457 
L 223.998316 17.030857 
L 224.834619 17.445725 
L 225.54226 17.497804 
L 226.635887 17.337602 
L 227.858176 16.860583 
L 228.823141 16.506935 
L 229.595113 16.517124 
L 230.367085 16.666886 
L 231.010395 17.02969 
L 231.782367 17.445264 
L 232.490008 17.552076 
L 233.133319 17.409013 
L 235.191911 16.68311 
L 235.963883 16.675854 
L 236.349869 16.750707 
L 236.349869 16.750707 
" clip-path="url(#pc26495cb7d)" style="fill: none; stroke: #2ca02c; stroke-width: 0.5; stroke-linecap: square"/>
   </g>
   <g id="line2d_17">
    <path d="M 43.356847 17.072667 
L 53.328153 16.970622 
L 54.100125 16.946152 
L 54.807767 17.174795 
L 55.322415 17.277334 
L 55.772732 17.139426 
L 56.480373 16.90143 
L 56.866359 17.145256 
L 57.188014 17.258428 
L 58.024317 17.160565 
L 58.86062 17.360535 
L 59.50393 16.939541 
L 59.825585 16.823136 
L 60.14724 17.024898 
L 60.533226 17.215496 
L 61.112205 17.340141 
L 61.755515 17.815942 
L 62.012839 17.654227 
L 62.398825 16.979866 
L 62.849142 16.244791 
L 63.042135 16.292711 
L 63.36379 16.778381 
L 63.878439 17.47391 
L 64.200094 17.598907 
L 64.521749 17.470561 
L 65.358052 16.86799 
L 65.679707 16.778392 
L 65.937031 16.928279 
L 66.387348 17.267403 
L 66.709003 17.174077 
L 67.738299 16.692815 
L 68.767595 16.906429 
L 70.054215 17.436984 
L 70.37587 17.213334 
L 70.826187 16.918829 
L 71.212173 16.999754 
L 71.791152 17.148752 
L 73.335097 17.086357 
L 74.1714 17.111519 
L 75.844006 17.03104 
L 77.452281 17.12557 
L 79.510873 17.026888 
L 82.019783 17.134417 
L 86.072636 17.064363 
L 87.294925 17.075107 
L 89.096193 16.922558 
L 89.803834 17.337783 
L 90.447145 17.587536 
L 91.154786 17.636033 
L 91.926758 17.423136 
L 92.956054 16.886099 
L 93.792357 16.549047 
L 94.435667 16.530115 
L 95.078977 16.769734 
L 97.459224 17.863741 
L 98.038203 17.8175 
L 98.552851 17.512403 
L 99.453486 16.969379 
L 100.933099 16.432416 
L 101.447747 16.512249 
L 104.21398 17.398016 
L 105.5006 17.361002 
L 106.915882 17.060692 
L 108.331165 16.796241 
L 109.29613 16.860038 
L 110.58275 17.21726 
L 111.419053 17.354934 
L 112.062363 17.233919 
L 113.541976 16.800782 
L 114.120955 17.002713 
L 115.021589 17.351842 
L 115.536237 17.267888 
L 116.95152 16.79218 
L 117.59483 17.002182 
L 118.431133 17.260768 
L 118.88145 17.180934 
L 119.910746 16.818768 
L 120.296732 17.122241 
L 120.875711 17.542701 
L 121.133035 17.461591 
L 121.519021 16.88422 
L 121.840676 16.568366 
L 122.098 16.620491 
L 122.612648 16.822235 
L 122.998634 16.899412 
L 123.706275 17.454368 
L 124.349585 17.09886 
L 124.799902 16.921058 
L 125.250219 17.05644 
L 125.89353 17.234094 
L 126.279516 17.048107 
L 127.115819 16.50096 
L 127.630467 16.617991 
L 127.952122 16.946455 
L 128.531101 17.668074 
L 128.724094 17.657345 
L 128.981418 17.353833 
L 129.367404 16.924977 
L 129.689059 16.921356 
L 130.525362 17.126015 
L 131.04001 17.045732 
L 131.425996 17.184834 
L 132.004975 17.563921 
L 132.262299 17.31164 
L 132.712616 16.833022 
L 132.96994 16.864465 
L 133.677581 17.168913 
L 134.127898 17.113405 
L 134.642546 16.697863 
L 135.028533 16.50703 
L 135.285857 16.62632 
L 135.671843 17.091009 
L 136.250822 17.801748 
L 136.508146 17.831123 
L 136.829801 17.578493 
L 138.05209 16.263203 
L 138.309414 16.359388 
L 138.6954 16.792153 
L 139.531703 17.83447 
L 139.853358 17.863421 
L 140.175013 17.616127 
L 141.397302 16.259393 
L 141.718957 16.371633 
L 142.169274 16.870421 
L 142.941246 17.765648 
L 143.327232 17.886162 
L 143.713219 17.7472 
L 144.292198 17.237816 
L 145.192832 16.457216 
L 145.70748 16.270328 
L 146.222128 16.305628 
L 146.865438 16.601767 
L 149.052692 17.884666 
L 149.631671 17.84899 
L 150.274981 17.577429 
L 151.175615 16.896269 
L 151.947587 16.451946 
L 152.590898 16.285622 
L 153.234208 16.401546 
L 153.941849 16.768728 
L 154.778152 17.175895 
L 155.421462 17.22508 
L 157.287061 17.307108 
L 158.059033 17.293454 
L 158.638012 16.984711 
L 159.602977 16.44013 
L 160.117625 16.479755 
L 161.532908 16.701535 
L 162.562204 16.887675 
L 163.913155 17.206311 
L 167.065374 17.099062 
L 168.287663 16.761448 
L 169.123966 16.788755 
L 170.088931 17.056329 
L 171.504214 17.456843 
L 172.340517 17.433365 
L 173.305482 17.150278 
L 174.849426 16.6726 
L 175.428405 16.734892 
L 176.136046 17.066092 
L 177.03668 17.469398 
L 177.486997 17.412168 
L 178.065976 17.06369 
L 178.773617 16.681931 
L 179.159603 16.71119 
L 179.674252 17.012542 
L 180.446224 17.459273 
L 180.83221 17.430966 
L 181.346858 17.124889 
L 181.990168 16.761681 
L 182.440485 16.799137 
L 183.083795 17.150692 
L 183.727105 17.452977 
L 184.04876 17.342547 
L 184.885063 16.901257 
L 185.271049 16.87746 
L 185.592704 17.092722 
L 186.107352 17.49589 
L 186.364676 17.400173 
L 187.26531 16.692998 
L 187.586965 16.71972 
L 187.90862 17.076101 
L 188.358938 17.537449 
L 188.744924 17.645657 
L 189.066579 17.462169 
L 190.353199 16.367443 
L 190.610523 16.629236 
L 191.382495 17.717732 
L 191.639819 17.57151 
L 192.604784 16.667416 
L 193.055101 16.557568 
L 193.312425 16.739128 
L 193.955735 17.38839 
L 194.27739 17.281714 
L 195.56401 16.735415 
L 196.979292 17.135301 
L 197.493941 16.981382 
L 198.137251 16.590828 
L 198.458906 16.711374 
L 199.037885 17.196465 
L 199.681195 17.742362 
L 199.938519 17.680631 
L 200.388836 17.213615 
L 201.096477 16.5516 
L 201.418132 16.502257 
L 201.739787 16.686118 
L 203.026407 17.743543 
L 203.348062 17.561603 
L 203.991372 16.807362 
L 204.441689 16.428295 
L 204.763344 16.415788 
L 205.084999 16.631407 
L 206.307289 17.75257 
L 206.628944 17.674424 
L 207.079261 17.299241 
L 207.979895 16.490751 
L 208.430212 16.392861 
L 208.880529 16.524358 
L 209.652501 17.035955 
L 210.617466 17.616342 
L 211.260776 17.753534 
L 211.904086 17.648321 
L 212.676058 17.265151 
L 214.155671 16.468025 
L 214.798981 16.398412 
L 215.31363 16.569675 
L 216.986236 17.312871 
L 217.500884 17.337204 
L 218.916166 16.95151 
L 219.495145 16.857816 
L 220.009793 17.034288 
L 221.10342 17.430457 
L 222.004054 17.508328 
L 222.904688 17.43175 
L 223.483667 17.137684 
L 224.25564 16.782052 
L 224.705957 16.771905 
L 225.156274 17.009506 
L 225.992577 17.486883 
L 226.442894 17.467311 
L 227.986838 17.193258 
L 228.951803 17.117327 
L 230.431416 16.738076 
L 231.267719 16.714519 
L 231.97536 16.910896 
L 233.261981 17.341445 
L 234.226946 17.464163 
L 234.998918 17.29771 
L 236.349869 16.801519 
L 236.349869 16.801519 
" clip-path="url(#pc26495cb7d)" style="fill: none; stroke: #d62728; stroke-width: 0.5; stroke-linecap: square"/>
   </g>
   <g id="patch_3">
    <path d="M 33.707196 202.559296 
L 33.707196 7.2 
" style="fill: none; stroke: #000000; stroke-width: 0.8; stroke-linejoin: miter; stroke-linecap: square"/>
   </g>
   <g id="patch_4">
    <path d="M 245.99952 202.559296 
L 245.99952 7.2 
" style="fill: none; stroke: #000000; stroke-width: 0.8; stroke-linejoin: miter; stroke-linecap: square"/>
   </g>
   <g id="patch_5">
    <path d="M 33.707196 202.559296 
L 245.99952 202.559296 
" style="fill: none; stroke: #000000; stroke-width: 0.8; stroke-linejoin: miter; stroke-linecap: square"/>
   </g>
   <g id="patch_6">
    <path d="M 33.707196 7.2 
L 245.99952 7.2 
" style="fill: none; stroke: #000000; stroke-width: 0.8; stroke-linejoin: miter; stroke-linecap: square"/>
   </g>
   <g id="legend_1">
    <g id="patch_7">
     <path d="M 193.792605 198.059296 
L 239.69952 198.059296 
Q 241.49952 198.059296 241.49952 196.259296 
L 241.49952 156.760168 
Q 241.49952 154.960168 239.69952 154.960168 
L 193.792605 154.960168 
Q 191.992605 154.960168 191.992605 156.760168 
L 191.992605 196.259296 
Q 191.992605 198.059296 193.792605 198.059296 
z
" style="fill: #ffffff; opacity: 0.8; stroke: #cccccc; stroke-width: 0.24; stroke-linejoin: miter"/>
    </g>
    <g id="line2d_18">
     <path d="M 195.592605 162.13495 
L 204.592605 162.13495 
L 213.592605 162.13495 
" style="fill: none; stroke: #ff7f0e; stroke-width: 0.5; stroke-linecap: square"/>
    </g>
    <g id="text_16">
     <!-- $\langle \sigma_z\rangle$ -->
     <g transform="translate(220.792605 165.28495) scale(0.09 -0.09)">
      <defs>
       <path id="CMSY10-68" d="M 2099 4557 
C 2131 4627 2131 4640 2131 4672 
C 2131 4742 2074 4800 2003 4800 
C 1946 4800 1901 4768 1856 4653 
L 736 1715 
C 723 1677 704 1638 704 1600 
C 704 1581 704 1568 736 1491 
L 1856 -1446 
C 1882 -1517 1914 -1600 2003 -1600 
C 2074 -1600 2131 -1542 2131 -1472 
C 2131 -1453 2131 -1440 2099 -1370 
L 966 1600 
L 2099 4557 
z
" transform="scale(0.015625)"/>
       <path id="CMMI12-1b" d="M 3251 2408 
C 3334 2408 3546 2408 3546 2612 
C 3546 2752 3424 2752 3309 2752 
L 1894 2752 
C 934 2752 243 1686 243 932 
C 243 390 595 -64 1171 -64 
C 1926 -64 2752 747 2752 1705 
C 2752 1954 2694 2196 2541 2408 
L 3251 2408 
z
M 1178 64 
C 851 64 614 313 614 754 
C 614 1137 845 2408 1786 2408 
C 2061 2408 2368 2274 2368 1781 
C 2368 1558 2266 1021 2042 652 
C 1811 275 1466 64 1178 64 
z
" transform="scale(0.015625)"/>
       <path id="CMMI12-7a" d="M 813 486 
C 1088 803 1312 1004 1632 1296 
C 2016 1632 2182 1793 2272 1891 
C 2720 2338 2944 2713 2944 2764 
C 2944 2816 2893 2816 2880 2816 
C 2835 2816 2822 2793 2790 2750 
C 2630 2494 2477 2367 2310 2367 
C 2176 2367 2106 2421 1984 2565 
C 1850 2715 1741 2816 1555 2816 
C 1088 2816 806 2257 806 2128 
C 806 2108 813 2068 870 2068 
C 922 2068 928 2091 947 2133 
C 1056 2372 1363 2414 1485 2414 
C 1619 2414 1747 2376 1882 2327 
C 2125 2240 2227 2240 2291 2240 
C 2336 2240 2362 2240 2394 2246 
C 2182 1994 1837 1683 1549 1418 
L 902 816 
C 512 415 275 33 275 -12 
C 275 -51 307 -64 346 -64 
C 384 -64 390 -57 435 14 
C 538 163 742 384 979 384 
C 1114 384 1178 342 1306 193 
C 1427 61 1536 -64 1741 -64 
C 2368 -64 2726 732 2726 876 
C 2726 903 2720 942 2656 942 
C 2605 942 2598 917 2579 855 
C 2438 488 2061 338 1811 338 
C 1677 338 1549 376 1414 425 
C 1158 512 1088 512 1005 512 
C 941 512 870 512 813 486 
z
" transform="scale(0.015625)"/>
       <path id="CMSY10-69" d="M 1747 1491 
C 1779 1568 1779 1581 1779 1600 
C 1779 1619 1779 1632 1747 1709 
L 627 4653 
C 589 4762 550 4800 480 4800 
C 410 4800 352 4742 352 4672 
C 352 4653 352 4640 384 4570 
L 1517 1600 
L 384 -1357 
C 352 -1427 352 -1440 352 -1472 
C 352 -1542 410 -1600 480 -1600 
C 563 -1600 589 -1536 614 -1472 
L 1747 1491 
z
" transform="scale(0.015625)"/>
      </defs>
      <use xlink:href="#CMSY10-68" transform="scale(0.996264)"/>
      <use xlink:href="#CMMI12-1b" transform="translate(38.743734 0) scale(0.996264)"/>
      <use xlink:href="#CMMI12-7a" transform="translate(94.189195 -14.943915) scale(0.697382)"/>
      <use xlink:href="#CMSY10-69" transform="translate(129.51575 0) scale(0.996264)"/>
     </g>
    </g>
    <g id="line2d_19">
     <path d="M 195.592605 175.601326 
L 204.592605 175.601326 
L 213.592605 175.601326 
" style="fill: none; stroke: #2ca02c; stroke-width: 0.5; stroke-linecap: square"/>
    </g>
    <g id="text_17">
     <!-- $\langle \sigma_x\rangle$ -->
     <g transform="translate(220.792605 178.751326) scale(0.09 -0.09)">
      <defs>
       <path id="CMMI12-78" d="M 3034 2606 
C 2829 2567 2752 2414 2752 2293 
C 2752 2139 2874 2088 2963 2088 
C 3155 2088 3290 2254 3290 2427 
C 3290 2695 2982 2816 2714 2816 
C 2323 2816 2106 2433 2048 2312 
C 1901 2816 1504 2816 1389 2816 
C 736 2816 390 1980 390 1839 
C 390 1814 416 1782 461 1782 
C 512 1782 525 1820 538 1846 
C 755 2555 1184 2689 1370 2689 
C 1658 2689 1715 2420 1715 2267 
C 1715 2127 1677 1980 1600 1673 
L 1382 798 
C 1286 415 1101 64 762 64 
C 730 64 570 64 435 147 
C 666 192 717 383 717 460 
C 717 588 621 664 499 664 
C 346 664 179 530 179 326 
C 179 57 480 -64 755 -64 
C 1062 -64 1280 179 1414 441 
C 1517 64 1837 -64 2074 -64 
C 2726 -64 3072 773 3072 913 
C 3072 945 3046 971 3008 971 
C 2950 971 2944 939 2925 888 
C 2752 326 2381 64 2093 64 
C 1869 64 1747 230 1747 492 
C 1747 632 1773 734 1875 1156 
L 2099 2024 
C 2195 2408 2413 2689 2707 2689 
C 2720 2689 2899 2689 3034 2606 
z
" transform="scale(0.015625)"/>
      </defs>
      <use xlink:href="#CMSY10-68" transform="scale(0.996264)"/>
      <use xlink:href="#CMMI12-1b" transform="translate(38.743734 0) scale(0.996264)"/>
      <use xlink:href="#CMMI12-78" transform="translate(94.189195 -14.943915) scale(0.697382)"/>
      <use xlink:href="#CMSY10-69" transform="translate(133.490986 0) scale(0.996264)"/>
     </g>
    </g>
    <g id="line2d_20">
     <path d="M 195.592605 189.067702 
L 204.592605 189.067702 
L 213.592605 189.067702 
" style="fill: none; stroke: #d62728; stroke-width: 0.5; stroke-linecap: square"/>
    </g>
    <g id="text_18">
     <!-- $\langle \sigma_y\rangle$ -->
     <g transform="translate(220.792605 192.217702) scale(0.09 -0.09)">
      <defs>
       <path id="CMMI12-79" d="M 1683 -700 
C 1510 -939 1261 -1152 947 -1152 
C 870 -1152 563 -1152 467 -889 
C 486 -895 518 -895 531 -895 
C 723 -895 851 -729 851 -582 
C 851 -435 730 -384 634 -384 
C 531 -384 307 -458 307 -759 
C 307 -1071 582 -1286 947 -1286 
C 1587 -1286 2234 -700 2413 6 
L 3040 2485 
C 3046 2517 3059 2556 3059 2594 
C 3059 2689 2982 2753 2886 2753 
C 2829 2753 2694 2727 2643 2535 
L 2170 658 
C 2138 543 2138 530 2086 460 
C 1958 281 1747 64 1440 64 
C 1082 64 1050 415 1050 588 
C 1050 952 1222 1443 1395 1903 
C 1466 2088 1504 2178 1504 2305 
C 1504 2574 1312 2816 998 2816 
C 410 2816 173 1890 173 1839 
C 173 1814 198 1782 243 1782 
C 301 1782 307 1807 333 1897 
C 486 2433 730 2689 979 2689 
C 1037 2689 1146 2689 1146 2478 
C 1146 2312 1075 2127 979 1884 
C 666 1047 666 837 666 683 
C 666 77 1101 -64 1421 -64 
C 1606 -64 1837 -6 2061 230 
L 2067 224 
C 1971 -147 1907 -392 1683 -700 
z
" transform="scale(0.015625)"/>
      </defs>
      <use xlink:href="#CMSY10-68" transform="scale(0.996264)"/>
      <use xlink:href="#CMMI12-1b" transform="translate(38.743734 0) scale(0.996264)"/>
      <use xlink:href="#CMMI12-79" transform="translate(94.189195 -14.943915) scale(0.697382)"/>
      <use xlink:href="#CMSY10-69" transform="translate(130.484301 0) scale(0.996264)"/>
     </g>
    </g>
   </g>
  </g>
 </g>
 <defs>
  <clipPath id="pc26495cb7d">
   <rect x="33.707196" y="7.2" width="212.292324" height="195.359296"/>
  </clipPath>
 </defs>
</svg>
