<?xml version="1.0" encoding="utf-8" standalone="no"?>
<!DOCTYPE svg PUBLIC "-//W3C//DTD SVG 1.1//EN"
  "http://www.w3.org/Graphics/SVG/1.1/DTD/svg11.dtd">
<svg xmlns:xlink="http://www.w3.org/1999/xlink" width="253.19952pt" height="238.79952pt" viewBox="0 0 253.19952 238.79952" xmlns="http://www.w3.org/2000/svg" version="1.1">
 <metadata>
  <rdf:RDF xmlns:dc="http://purl.org/dc/elements/1.1/" xmlns:cc="http://creativecommons.org/ns#" xmlns:rdf="http://www.w3.org/1999/02/22-rdf-syntax-ns#">
   <cc:Work>
    <dc:type rdf:resource="http://purl.org/dc/dcmitype/StillImage"/>
    <dc:date>1980-01-01T00:00:00+00:00</dc:date>
    <dc:format>image/svg+xml</dc:format>
    <dc:creator>
     <cc:Agent>
      <dc:title>Matplotlib v3.6.2, https://matplotlib.org/</dc:title>
     </cc:Agent>
    </dc:creator>
   </cc:Work>
  </rdf:RDF>
 </metadata>
 <defs>
  <style type="text/css">*{stroke-linejoin: round; stroke-linecap: butt}</style>
 </defs>
 <g id="figure_1">
  <g id="patch_1">
   <path d="M 0 238.79952 
L 253.19952 238.79952 
L 253.19952 0 
L 0 0 
z
" style="fill: #ffffff"/>
  </g>
  <g id="axes_1">
   <g id="patch_2">
    <path d="M 33.707196 202.559296 
L 245.99952 202.559296 
L 245.99952 7.2 
L 33.707196 7.2 
z
" style="fill: #ffffff"/>
   </g>
   <g id="matplotlib.axis_1">
    <g id="xtick_1">
     <g id="line2d_1">
      <defs>
       <path id="m2234160c4e" d="M 0 0 
L 0 3.5 
" style="stroke: #000000; stroke-width: 0.8"/>
      </defs>
      <g>
       <use xlink:href="#m2234160c4e" x="43.356847" y="202.559296" style="stroke: #000000; stroke-width: 0.8"/>
      </g>
     </g>
     <g id="text_1">
      <!-- $\mathdefault{0}$ -->
      <g transform="translate(41.239756 217.194098) scale(0.08 -0.08)">
       <defs>
        <path id="CMR17-30" d="M 2688 2025 
C 2688 2416 2682 3080 2413 3591 
C 2176 4039 1798 4198 1466 4198 
C 1158 4198 768 4058 525 3597 
C 269 3118 243 2524 243 2025 
C 243 1661 250 1106 448 619 
C 723 -39 1216 -128 1466 -128 
C 1760 -128 2208 -7 2470 600 
C 2662 1042 2688 1559 2688 2025 
z
M 1466 -26 
C 1056 -26 813 325 723 812 
C 653 1188 653 1738 653 2096 
C 653 2588 653 2997 736 3387 
C 858 3929 1216 4096 1466 4096 
C 1728 4096 2067 3923 2189 3400 
C 2272 3036 2278 2607 2278 2096 
C 2278 1680 2278 1169 2202 792 
C 2067 95 1690 -26 1466 -26 
z
" transform="scale(0.015625)"/>
       </defs>
       <use xlink:href="#CMR17-30" transform="scale(0.996264)"/>
      </g>
     </g>
    </g>
    <g id="xtick_2">
     <g id="line2d_2">
      <g>
       <use xlink:href="#m2234160c4e" x="70.161434" y="202.559296" style="stroke: #000000; stroke-width: 0.8"/>
      </g>
     </g>
     <g id="text_2">
      <!-- $\mathdefault{25}$ -->
      <g transform="translate(65.927251 217.194098) scale(0.08 -0.08)">
       <defs>
        <path id="CMR17-32" d="M 2669 989 
L 2554 989 
C 2490 536 2438 459 2413 420 
C 2381 369 1920 369 1830 369 
L 602 369 
C 832 619 1280 1072 1824 1597 
C 2214 1967 2669 2402 2669 3035 
C 2669 3790 2067 4224 1395 4224 
C 691 4224 262 3604 262 3030 
C 262 2780 448 2748 525 2748 
C 589 2748 781 2787 781 3010 
C 781 3207 614 3264 525 3264 
C 486 3264 448 3258 422 3245 
C 544 3790 915 4058 1306 4058 
C 1862 4058 2227 3617 2227 3035 
C 2227 2479 1901 2000 1536 1584 
L 262 146 
L 262 0 
L 2515 0 
L 2669 989 
z
" transform="scale(0.015625)"/>
        <path id="CMR17-35" d="M 730 3692 
C 794 3666 1056 3584 1325 3584 
C 1920 3584 2246 3911 2432 4100 
C 2432 4157 2432 4192 2394 4192 
C 2387 4192 2374 4192 2323 4163 
C 2099 4058 1837 3973 1517 3973 
C 1325 3973 1037 3999 723 4139 
C 653 4171 640 4171 634 4171 
C 602 4171 595 4164 595 4037 
L 595 2203 
C 595 2089 595 2057 659 2057 
C 691 2057 704 2070 736 2114 
C 941 2401 1222 2522 1542 2522 
C 1766 2522 2246 2382 2246 1289 
C 2246 1085 2246 715 2054 421 
C 1894 159 1645 25 1370 25 
C 947 25 518 320 403 814 
C 429 807 480 795 506 795 
C 589 795 749 840 749 1038 
C 749 1210 627 1280 506 1280 
C 358 1280 262 1190 262 1011 
C 262 454 704 -128 1382 -128 
C 2042 -128 2669 440 2669 1264 
C 2669 2030 2170 2624 1549 2624 
C 1222 2624 947 2503 730 2274 
L 730 3692 
z
" transform="scale(0.015625)"/>
       </defs>
       <use xlink:href="#CMR17-32" transform="scale(0.996264)"/>
       <use xlink:href="#CMR17-35" transform="translate(45.690477 0) scale(0.996264)"/>
      </g>
     </g>
    </g>
    <g id="xtick_3">
     <g id="line2d_3">
      <g>
       <use xlink:href="#m2234160c4e" x="96.96602" y="202.559296" style="stroke: #000000; stroke-width: 0.8"/>
      </g>
     </g>
     <g id="text_3">
      <!-- $\mathdefault{50}$ -->
      <g transform="translate(92.731837 217.194098) scale(0.08 -0.08)">
       <use xlink:href="#CMR17-35" transform="scale(0.996264)"/>
       <use xlink:href="#CMR17-30" transform="translate(45.690477 0) scale(0.996264)"/>
      </g>
     </g>
    </g>
    <g id="xtick_4">
     <g id="line2d_4">
      <g>
       <use xlink:href="#m2234160c4e" x="123.770606" y="202.559296" style="stroke: #000000; stroke-width: 0.8"/>
      </g>
     </g>
     <g id="text_4">
      <!-- $\mathdefault{75}$ -->
      <g transform="translate(119.536423 217.194098) scale(0.08 -0.08)">
       <defs>
        <path id="CMR17-37" d="M 2886 3941 
L 2886 4081 
L 1382 4081 
C 634 4081 621 4165 595 4288 
L 480 4288 
L 294 3094 
L 410 3094 
C 429 3215 474 3540 550 3661 
C 589 3712 1062 3712 1171 3712 
L 2579 3712 
L 1869 2661 
C 1395 1954 1069 999 1069 165 
C 1069 89 1069 -128 1299 -128 
C 1530 -128 1530 89 1530 171 
L 1530 465 
C 1530 1508 1709 2196 2003 2636 
L 2886 3941 
z
" transform="scale(0.015625)"/>
       </defs>
       <use xlink:href="#CMR17-37" transform="scale(0.996264)"/>
       <use xlink:href="#CMR17-35" transform="translate(45.690477 0) scale(0.996264)"/>
      </g>
     </g>
    </g>
    <g id="xtick_5">
     <g id="line2d_5">
      <g>
       <use xlink:href="#m2234160c4e" x="150.575193" y="202.559296" style="stroke: #000000; stroke-width: 0.8"/>
      </g>
     </g>
     <g id="text_5">
      <!-- $\mathdefault{100}$ -->
      <g transform="translate(144.223918 217.194098) scale(0.08 -0.08)">
       <defs>
        <path id="CMR17-31" d="M 1702 4058 
C 1702 4192 1696 4192 1606 4192 
C 1357 3916 979 3827 621 3827 
C 602 3827 570 3827 563 3808 
C 557 3795 557 3782 557 3648 
C 755 3648 1088 3686 1344 3839 
L 1344 461 
C 1344 236 1331 160 781 160 
L 589 160 
L 589 0 
C 896 0 1216 0 1523 0 
C 1830 0 2150 0 2458 0 
L 2458 160 
L 2266 160 
C 1715 160 1702 230 1702 458 
L 1702 4058 
z
" transform="scale(0.015625)"/>
       </defs>
       <use xlink:href="#CMR17-31" transform="scale(0.996264)"/>
       <use xlink:href="#CMR17-30" transform="translate(45.690477 0) scale(0.996264)"/>
       <use xlink:href="#CMR17-30" transform="translate(91.380954 0) scale(0.996264)"/>
      </g>
     </g>
    </g>
    <g id="xtick_6">
     <g id="line2d_6">
      <g>
       <use xlink:href="#m2234160c4e" x="177.379779" y="202.559296" style="stroke: #000000; stroke-width: 0.8"/>
      </g>
     </g>
     <g id="text_6">
      <!-- $\mathdefault{125}$ -->
      <g transform="translate(171.028505 217.194098) scale(0.08 -0.08)">
       <use xlink:href="#CMR17-31" transform="scale(0.996264)"/>
       <use xlink:href="#CMR17-32" transform="translate(45.690477 0) scale(0.996264)"/>
       <use xlink:href="#CMR17-35" transform="translate(91.380954 0) scale(0.996264)"/>
      </g>
     </g>
    </g>
    <g id="xtick_7">
     <g id="line2d_7">
      <g>
       <use xlink:href="#m2234160c4e" x="204.184365" y="202.559296" style="stroke: #000000; stroke-width: 0.8"/>
      </g>
     </g>
     <g id="text_7">
      <!-- $\mathdefault{150}$ -->
      <g transform="translate(197.833091 217.194098) scale(0.08 -0.08)">
       <use xlink:href="#CMR17-31" transform="scale(0.996264)"/>
       <use xlink:href="#CMR17-35" transform="translate(45.690477 0) scale(0.996264)"/>
       <use xlink:href="#CMR17-30" transform="translate(91.380954 0) scale(0.996264)"/>
      </g>
     </g>
    </g>
    <g id="xtick_8">
     <g id="line2d_8">
      <g>
       <use xlink:href="#m2234160c4e" x="230.988952" y="202.559296" style="stroke: #000000; stroke-width: 0.8"/>
      </g>
     </g>
     <g id="text_8">
      <!-- $\mathdefault{175}$ -->
      <g transform="translate(224.637677 217.194098) scale(0.08 -0.08)">
       <use xlink:href="#CMR17-31" transform="scale(0.996264)"/>
       <use xlink:href="#CMR17-37" transform="translate(45.690477 0) scale(0.996264)"/>
       <use xlink:href="#CMR17-35" transform="translate(91.380954 0) scale(0.996264)"/>
      </g>
     </g>
    </g>
    <g id="text_9">
     <!-- $\tau$ -->
     <g transform="translate(137.675756 229.662342) scale(0.1 -0.1)">
      <defs>
       <path id="CMMI12-1c" d="M 1837 2408 
L 2899 2408 
C 2982 2408 3194 2408 3194 2612 
C 3194 2752 3072 2752 2957 2752 
L 1197 2752 
C 1050 2752 832 2752 538 2440 
C 371 2255 166 1917 166 1879 
C 166 1841 198 1828 237 1828 
C 282 1828 288 1847 320 1885 
C 653 2408 986 2408 1146 2408 
L 1677 2408 
L 1011 223 
C 979 127 979 114 979 95 
C 979 25 1024 -64 1152 -64 
C 1350 -64 1382 108 1402 203 
L 1837 2408 
z
" transform="scale(0.015625)"/>
      </defs>
      <use xlink:href="#CMMI12-1c" transform="scale(0.996264)"/>
     </g>
    </g>
   </g>
   <g id="matplotlib.axis_2">
    <g id="ytick_1">
     <g id="line2d_9">
      <defs>
       <path id="mec7e9f138f" d="M 0 0 
L -3.5 0 
" style="stroke: #000000; stroke-width: 0.8"/>
      </defs>
      <g>
       <use xlink:href="#mec7e9f138f" x="33.707196" y="193.679328" style="stroke: #000000; stroke-width: 0.8"/>
      </g>
     </g>
     <g id="text_10">
      <!-- $\mathdefault{−1.0}$ -->
      <g transform="translate(7.2 196.446729) scale(0.08 -0.08)">
       <defs>
        <path id="CMSY10-0" d="M 4218 1472 
C 4326 1472 4442 1472 4442 1600 
C 4442 1728 4326 1728 4218 1728 
L 755 1728 
C 646 1728 531 1728 531 1600 
C 531 1472 646 1472 755 1472 
L 4218 1472 
z
" transform="scale(0.015625)"/>
        <path id="CMMI12-3a" d="M 1178 307 
C 1178 492 1024 619 870 619 
C 685 619 557 466 557 313 
C 557 128 710 0 864 0 
C 1050 0 1178 153 1178 307 
z
" transform="scale(0.015625)"/>
       </defs>
       <use xlink:href="#CMSY10-0" transform="scale(0.996264)"/>
       <use xlink:href="#CMR17-31" transform="translate(77.487468 0) scale(0.996264)"/>
       <use xlink:href="#CMMI12-3a" transform="translate(123.177945 0) scale(0.996264)"/>
       <use xlink:href="#CMR17-30" transform="translate(150.275122 0) scale(0.996264)"/>
      </g>
     </g>
    </g>
    <g id="ytick_2">
     <g id="line2d_10">
      <g>
       <use xlink:href="#mec7e9f138f" x="33.707196" y="158.351905" style="stroke: #000000; stroke-width: 0.8"/>
      </g>
     </g>
     <g id="text_11">
      <!-- $\mathdefault{−0.8}$ -->
      <g transform="translate(7.2 161.119306) scale(0.08 -0.08)">
       <defs>
        <path id="CMR17-38" d="M 1741 2264 
C 2144 2467 2554 2773 2554 3263 
C 2554 3841 1990 4179 1472 4179 
C 890 4179 378 3759 378 3180 
C 378 3021 416 2747 666 2505 
C 730 2442 998 2251 1171 2130 
C 883 1983 211 1634 211 934 
C 211 279 838 -128 1459 -128 
C 2144 -128 2720 362 2720 1010 
C 2720 1590 2330 1857 2074 2029 
L 1741 2264 
z
M 902 2822 
C 851 2854 595 3051 595 3351 
C 595 3739 998 4032 1459 4032 
C 1965 4032 2336 3676 2336 3262 
C 2336 2669 1670 2331 1638 2331 
C 1632 2331 1626 2331 1574 2370 
L 902 2822 
z
M 2080 1519 
C 2176 1449 2483 1240 2483 851 
C 2483 381 2010 25 1472 25 
C 890 25 448 438 448 940 
C 448 1443 838 1862 1280 2060 
L 2080 1519 
z
" transform="scale(0.015625)"/>
       </defs>
       <use xlink:href="#CMSY10-0" transform="scale(0.996264)"/>
       <use xlink:href="#CMR17-30" transform="translate(77.487468 0) scale(0.996264)"/>
       <use xlink:href="#CMMI12-3a" transform="translate(123.177945 0) scale(0.996264)"/>
       <use xlink:href="#CMR17-38" transform="translate(150.275122 0) scale(0.996264)"/>
      </g>
     </g>
    </g>
    <g id="ytick_3">
     <g id="line2d_11">
      <g>
       <use xlink:href="#mec7e9f138f" x="33.707196" y="123.024482" style="stroke: #000000; stroke-width: 0.8"/>
      </g>
     </g>
     <g id="text_12">
      <!-- $\mathdefault{−0.6}$ -->
      <g transform="translate(7.2 125.791883) scale(0.08 -0.08)">
       <defs>
        <path id="CMR17-36" d="M 678 2176 
C 678 3690 1395 4032 1811 4032 
C 1946 4032 2272 4009 2400 3776 
C 2298 3776 2106 3776 2106 3553 
C 2106 3381 2246 3323 2336 3323 
C 2394 3323 2566 3348 2566 3560 
C 2566 3954 2246 4179 1805 4179 
C 1043 4179 243 3390 243 1984 
C 243 253 966 -128 1478 -128 
C 2099 -128 2688 427 2688 1283 
C 2688 2081 2170 2662 1517 2662 
C 1126 2662 838 2407 678 1960 
L 678 2176 
z
M 1478 25 
C 691 25 691 1200 691 1436 
C 691 1896 909 2560 1504 2560 
C 1613 2560 1926 2560 2138 2120 
C 2253 1870 2253 1609 2253 1289 
C 2253 944 2253 690 2118 434 
C 1978 171 1773 25 1478 25 
z
" transform="scale(0.015625)"/>
       </defs>
       <use xlink:href="#CMSY10-0" transform="scale(0.996264)"/>
       <use xlink:href="#CMR17-30" transform="translate(77.487468 0) scale(0.996264)"/>
       <use xlink:href="#CMMI12-3a" transform="translate(123.177945 0) scale(0.996264)"/>
       <use xlink:href="#CMR17-36" transform="translate(150.275122 0) scale(0.996264)"/>
      </g>
     </g>
    </g>
    <g id="ytick_4">
     <g id="line2d_12">
      <g>
       <use xlink:href="#mec7e9f138f" x="33.707196" y="87.69706" style="stroke: #000000; stroke-width: 0.8"/>
      </g>
     </g>
     <g id="text_13">
      <!-- $\mathdefault{−0.4}$ -->
      <g transform="translate(7.2 90.464461) scale(0.08 -0.08)">
       <defs>
        <path id="CMR17-34" d="M 2150 4122 
C 2150 4256 2144 4256 2029 4256 
L 128 1254 
L 128 1088 
L 1779 1088 
L 1779 457 
C 1779 224 1766 160 1318 160 
L 1197 160 
L 1197 0 
C 1402 0 1747 0 1965 0 
C 2182 0 2528 0 2733 0 
L 2733 160 
L 2611 160 
C 2163 160 2150 224 2150 457 
L 2150 1088 
L 2803 1088 
L 2803 1254 
L 2150 1254 
L 2150 4122 
z
M 1798 3703 
L 1798 1254 
L 256 1254 
L 1798 3703 
z
" transform="scale(0.015625)"/>
       </defs>
       <use xlink:href="#CMSY10-0" transform="scale(0.996264)"/>
       <use xlink:href="#CMR17-30" transform="translate(77.487468 0) scale(0.996264)"/>
       <use xlink:href="#CMMI12-3a" transform="translate(123.177945 0) scale(0.996264)"/>
       <use xlink:href="#CMR17-34" transform="translate(150.275122 0) scale(0.996264)"/>
      </g>
     </g>
    </g>
    <g id="ytick_5">
     <g id="line2d_13">
      <g>
       <use xlink:href="#mec7e9f138f" x="33.707196" y="52.369637" style="stroke: #000000; stroke-width: 0.8"/>
      </g>
     </g>
     <g id="text_14">
      <!-- $\mathdefault{−0.2}$ -->
      <g transform="translate(7.2 55.137038) scale(0.08 -0.08)">
       <use xlink:href="#CMSY10-0" transform="scale(0.996264)"/>
       <use xlink:href="#CMR17-30" transform="translate(77.487468 0) scale(0.996264)"/>
       <use xlink:href="#CMMI12-3a" transform="translate(123.177945 0) scale(0.996264)"/>
       <use xlink:href="#CMR17-32" transform="translate(150.275122 0) scale(0.996264)"/>
      </g>
     </g>
    </g>
    <g id="ytick_6">
     <g id="line2d_14">
      <g>
       <use xlink:href="#mec7e9f138f" x="33.707196" y="17.042214" style="stroke: #000000; stroke-width: 0.8"/>
      </g>
     </g>
     <g id="text_15">
      <!-- $\mathdefault{0.0}$ -->
      <g transform="translate(13.786507 19.809615) scale(0.08 -0.08)">
       <use xlink:href="#CMR17-30" transform="scale(0.996264)"/>
       <use xlink:href="#CMMI12-3a" transform="translate(45.690477 0) scale(0.996264)"/>
       <use xlink:href="#CMR17-30" transform="translate(72.787654 0) scale(0.996264)"/>
      </g>
     </g>
    </g>
   </g>
   <g id="line2d_15">
    <path d="M 43.356847 193.679328 
L 52.684843 193.589921 
L 53.006498 193.373688 
L 53.328153 192.8529 
L 53.649808 191.806767 
L 53.971463 189.976705 
L 54.357449 186.366519 
L 54.807767 179.802306 
L 55.386746 167.793214 
L 58.088648 105.64391 
L 58.731958 97.050085 
L 59.761254 86.597078 
L 60.597557 79.909569 
L 61.562522 74.460056 
L 62.591818 70.592791 
L 63.878439 66.835303 
L 64.521749 65.542036 
L 65.293721 63.829328 
L 65.679707 63.607223 
L 66.065693 63.354751 
L 67.15932 62.166507 
L 67.866961 61.739222 
L 68.317278 61.423346 
L 68.703264 61.445399 
L 69.08925 61.638697 
L 69.475236 61.804875 
L 69.925553 61.909622 
L 70.311539 62.284665 
L 70.890518 63.184674 
L 72.048476 65.251633 
L 72.820449 66.098513 
L 73.463759 66.521295 
L 74.107069 66.668062 
L 75.844006 66.700363 
L 86.201298 66.787698 
L 86.587284 67.110909 
L 86.908939 67.636626 
L 87.294925 68.761714 
L 87.680911 70.55922 
L 88.131228 73.706242 
L 88.710207 79.387367 
L 89.610841 90.90252 
L 91.540772 116.123373 
L 92.441406 124.757805 
L 93.34204 131.178082 
L 94.178343 135.647704 
L 95.27197 140.143221 
L 95.979611 142.199889 
L 97.008907 144.657852 
L 97.716548 145.757607 
L 98.681513 146.864231 
L 100.482782 148.398733 
L 101.190423 149.082372 
L 101.705071 149.851281 
L 102.155388 150.950809 
L 102.734367 153.01809 
L 103.57067 157.048902 
L 104.535635 161.480592 
L 105.114614 163.205388 
L 105.629262 164.124776 
L 106.079579 164.529872 
L 106.658558 164.715789 
L 107.816516 164.746157 
L 117.015851 164.658427 
L 117.401837 164.404166 
L 117.723492 163.912051 
L 118.045147 162.948911 
L 118.431133 160.872956 
L 118.817119 157.505873 
L 119.267436 151.647256 
L 119.910746 139.953597 
L 121.840676 102.272662 
L 122.676979 91.803679 
L 123.513282 83.898262 
L 124.220923 79.20356 
L 125.31455 73.5419 
L 126.215185 70.176817 
L 127.18015 66.873805 
L 127.630467 66.037343 
L 128.531101 65.088778 
L 129.496066 63.038755 
L 131.425996 61.535191 
L 132.455292 61.223731 
L 132.841278 61.043929 
L 133.484588 60.710176 
L 133.741912 60.881733 
L 134.192229 61.562968 
L 136.250822 65.378498 
L 136.894132 66.378194 
L 137.473111 66.849752 
L 138.180752 67.137429 
L 139.145717 67.231894 
L 146.865438 67.234802 
L 150.660967 67.345096 
L 151.046953 67.680809 
L 151.368608 68.296074 
L 151.754594 69.594481 
L 152.204911 72.114561 
L 152.71956 76.407687 
L 153.36287 83.637832 
L 154.906814 104.663025 
L 156.000441 118.037155 
L 156.965406 126.893416 
L 157.737378 132.164559 
L 158.573681 136.138559 
L 159.79597 140.757348 
L 160.696604 143.105587 
L 161.468577 144.643918 
L 162.883859 146.6414 
L 164.299141 147.876286 
L 165.135444 148.367073 
L 165.585761 148.753453 
L 165.971747 149.349436 
L 166.422064 150.493072 
L 167.001043 152.695851 
L 167.966008 157.390326 
L 168.930973 161.788139 
L 169.509952 163.465022 
L 170.0246 164.310411 
L 170.474918 164.679473 
L 171.053897 164.838968 
L 172.469179 164.86019 
L 181.411189 164.775694 
L 181.732844 164.559512 
L 182.054499 164.049461 
L 182.376154 163.073356 
L 182.76214 161.010061 
L 183.148126 157.584917 
L 183.662774 150.700131 
L 184.370415 137.815391 
L 186.171683 102.62273 
L 186.943655 92.860819 
L 187.972951 82.878797 
L 189.066579 76.393574 
L 189.838551 72.471965 
L 190.610523 69.845358 
L 192.283129 65.393097 
L 192.99077 64.431988 
L 193.698411 63.622494 
L 194.663376 62.307319 
L 195.242355 62.210215 
L 196.914961 60.699388 
L 197.236617 60.969824 
L 197.622603 61.22639 
L 198.265913 61.398943 
L 198.780561 61.872437 
L 199.230878 62.616732 
L 200.517498 65.06691 
L 201.28947 66.038572 
L 202.061442 66.665505 
L 202.769083 66.887855 
L 203.734048 66.937361 
L 214.927644 67.035916 
L 215.31363 67.390977 
L 215.635285 67.957047 
L 216.021271 69.14477 
L 216.471588 71.351397 
L 216.986236 75.26399 
L 217.565215 81.489479 
L 218.658842 96.493198 
L 220.138455 115.472044 
L 221.039089 124.276998 
L 221.939723 130.880735 
L 222.840357 136.029197 
L 223.547998 138.847393 
L 224.448633 141.534152 
L 225.349267 143.693156 
L 226.314232 145.37541 
L 227.407859 146.874783 
L 227.986838 147.260781 
L 229.723775 148.627419 
L 230.238423 149.266628 
L 230.68874 150.253724 
L 231.203388 151.935302 
L 231.846698 154.81435 
L 233.19765 161.204515 
L 233.776629 162.990868 
L 234.291277 163.908991 
L 234.805925 164.353368 
L 235.320573 164.503382 
L 236.349869 164.530854 
L 236.349869 164.530854 
" clip-path="url(#p069fbf8d06)" style="fill: none; stroke: #ff7f0e; stroke-width: 0.5; stroke-linecap: square"/>
   </g>
   <g id="line2d_16">
    <path d="M 43.356847 17.042214 
L 53.907132 16.943113 
L 55.258084 16.802087 
L 55.579739 17.174338 
L 56.351711 18.254651 
L 56.544704 18.213423 
L 56.802028 17.881863 
L 57.638331 16.545826 
L 57.959986 16.408999 
L 58.474634 16.557373 
L 59.568261 16.776741 
L 60.533226 16.422567 
L 61.819846 16.499598 
L 62.141501 16.568406 
L 62.527487 16.943368 
L 62.977804 17.35468 
L 63.299459 17.413515 
L 63.556784 17.28 
L 64.521749 16.442221 
L 64.843404 16.737081 
L 65.615376 17.65842 
L 65.8727 17.666545 
L 66.773334 17.217055 
L 67.545306 16.728327 
L 67.866961 16.860795 
L 68.960588 17.556764 
L 69.282243 17.530919 
L 70.633194 17.038251 
L 71.791152 17.329778 
L 72.241469 17.418818 
L 72.691787 17.257568 
L 73.721083 16.750014 
L 74.1714 16.806205 
L 75.072034 17.250126 
L 75.586682 17.338943 
L 76.10133 17.174857 
L 77.130626 16.744628 
L 77.645274 16.828767 
L 79.253549 17.336124 
L 79.96119 17.162014 
L 81.440804 16.756309 
L 82.341438 16.788787 
L 83.628058 17.101253 
L 84.914678 17.339728 
L 85.943974 17.279051 
L 89.031862 16.778602 
L 89.675172 16.880617 
L 90.382814 17.077694 
L 91.090455 17.23551 
L 91.733765 17.363437 
L 92.248413 17.375931 
L 94.692991 16.69553 
L 95.207639 16.696259 
L 95.91528 16.656613 
L 96.687252 16.661869 
L 98.617182 17.018384 
L 99.260493 17.049443 
L 100.675775 17.364409 
L 101.64074 17.174443 
L 102.605705 16.707003 
L 104.406973 16.404274 
L 105.5006 16.700863 
L 107.816516 17.633964 
L 108.459827 17.534061 
L 109.231799 17.183086 
L 110.711412 16.462575 
L 111.22606 16.509517 
L 111.740708 16.807637 
L 112.898666 17.626055 
L 113.284652 17.56241 
L 113.734969 17.203361 
L 114.571272 16.479452 
L 114.892927 16.47407 
L 115.278913 16.724123 
L 116.37254 17.630932 
L 116.694195 17.563757 
L 117.144513 17.188065 
L 117.852154 16.560078 
L 118.23814 16.518955 
L 118.624126 16.750793 
L 119.589091 17.455552 
L 119.910746 17.369036 
L 120.232401 17.052077 
L 120.940042 16.25443 
L 121.197366 16.294964 
L 121.583352 16.678353 
L 122.098 17.161297 
L 122.419655 17.181927 
L 122.934303 16.90533 
L 123.577613 16.582647 
L 123.834937 16.724964 
L 124.349585 17.419496 
L 124.799902 17.842557 
L 125.057226 17.85685 
L 125.378881 17.627219 
L 126.794164 16.271399 
L 127.051488 16.415266 
L 127.437474 16.947194 
L 127.887791 17.454177 
L 128.338108 17.540271 
L 128.788425 17.4065 
L 129.367404 16.8911 
L 129.946383 16.486551 
L 130.268038 16.55284 
L 130.911348 16.78096 
L 131.490327 16.835295 
L 132.32663 17.147594 
L 133.162933 16.940143 
L 133.677581 16.892818 
L 134.192229 17.150139 
L 134.706878 17.355747 
L 135.414519 17.385803 
L 136.636808 16.828866 
L 137.087125 17.021766 
L 137.794766 17.338413 
L 138.245083 17.278755 
L 139.789027 16.754541 
L 140.368006 17.025076 
L 141.139978 17.353681 
L 141.590295 17.300475 
L 142.426598 16.889558 
L 143.005577 16.727559 
L 143.584556 16.805506 
L 145.643149 17.358694 
L 146.543783 17.222363 
L 148.92403 16.731582 
L 149.888995 16.871919 
L 152.14058 17.406662 
L 153.684525 17.311189 
L 155.550124 16.659722 
L 157.480054 17.306347 
L 157.930371 17.452659 
L 158.380688 17.333178 
L 159.667308 16.825039 
L 160.117625 16.944742 
L 160.696604 16.966299 
L 161.468577 16.841228 
L 162.240549 16.674353 
L 163.5915 16.783089 
L 164.23481 17.203711 
L 165.006782 17.625223 
L 165.714423 17.769891 
L 166.550726 17.900747 
L 166.936712 17.773521 
L 168.223332 17.132275 
L 169.445621 16.869003 
L 170.474918 16.846791 
L 171.954531 17.072852 
L 173.434144 17.252312 
L 174.46344 17.149523 
L 176.39337 16.849137 
L 177.229673 17.07862 
L 178.065976 17.251988 
L 178.644955 17.134093 
L 179.802914 16.833825 
L 180.446224 16.991786 
L 181.411189 17.242716 
L 181.925837 17.139768 
L 183.276788 16.699653 
L 184.756401 17.059325 
L 185.528373 16.501921 
L 185.914359 16.314333 
L 186.171683 16.391732 
L 186.557669 16.802684 
L 187.26531 17.677273 
L 187.586965 17.716726 
L 187.972951 17.558513 
L 188.358938 17.144963 
L 189.002248 16.336417 
L 189.259572 16.317412 
L 189.645558 16.567867 
L 190.610523 17.355827 
L 191.125171 17.035313 
L 192.025805 16.592716 
L 192.669115 16.653801 
L 194.020066 17.07091 
L 194.406052 16.826575 
L 194.985031 16.434857 
L 195.306686 16.519747 
L 195.692672 16.889996 
L 196.20732 17.381125 
L 196.593306 17.371409 
L 196.914961 17.119229 
L 197.622603 16.448736 
L 197.944258 16.420626 
L 198.330244 16.643384 
L 199.809857 17.762515 
L 200.131512 17.596525 
L 200.710491 16.910032 
L 201.225139 16.428927 
L 201.611125 16.347728 
L 201.93278 16.510689 
L 202.511759 17.140878 
L 203.026407 17.587441 
L 203.348062 17.632684 
L 203.669717 17.469597 
L 204.377358 16.739387 
L 204.827675 16.453875 
L 205.14933 16.487499 
L 205.535316 16.771903 
L 206.500282 17.611931 
L 206.886268 17.611258 
L 207.336585 17.342459 
L 208.494543 16.49898 
L 209.009191 16.453323 
L 209.58817 16.648403 
L 211.775424 17.636417 
L 212.418734 17.582235 
L 213.190706 17.272019 
L 214.991975 16.450314 
L 215.699616 16.454824 
L 216.407257 16.732793 
L 217.24356 17.274492 
L 217.822539 17.714155 
L 218.272856 17.853557 
L 219.366483 17.699094 
L 220.524441 17.256303 
L 221.360744 16.963372 
L 222.583033 16.996812 
L 223.483667 17.107704 
L 224.191309 17.049399 
L 225.606591 16.800932 
L 226.18557 16.786699 
L 226.957542 16.679116 
L 227.47219 16.636967 
L 228.051169 16.618814 
L 230.238423 16.924317 
L 230.946064 16.817104 
L 231.525043 16.912595 
L 233.261981 17.376582 
L 234.226946 17.434014 
L 235.191911 17.214465 
L 236.349869 16.783902 
L 236.349869 16.783902 
" clip-path="url(#p069fbf8d06)" style="fill: none; stroke: #2ca02c; stroke-width: 0.5; stroke-linecap: square"/>
   </g>
   <g id="line2d_17">
    <path d="M 43.356847 17.042214 
L 53.842801 17.144615 
L 54.614774 17.253954 
L 54.936429 17.058407 
L 55.386746 16.461996 
L 55.772732 16.082798 
L 55.965725 16.13764 
L 56.223049 16.496813 
L 57.123683 18.151039 
L 57.381007 17.892682 
L 58.088648 16.980666 
L 58.474634 16.921236 
L 59.375268 16.968055 
L 60.018578 17.317458 
L 60.340233 17.257739 
L 60.919212 17.08393 
L 62.012839 16.934105 
L 62.591818 16.463106 
L 62.849142 16.645064 
L 63.878439 17.852757 
L 64.135763 17.61635 
L 65.100728 16.338032 
L 65.358052 16.536147 
L 66.065693 17.318374 
L 67.223651 17.304 
L 68.124285 16.502208 
L 68.574602 16.634031 
L 69.217912 17.079381 
L 69.603898 17.299532 
L 70.182877 17.206729 
L 71.276504 16.954372 
L 71.791152 16.845474 
L 72.241469 17.079943 
L 72.88478 17.367891 
L 73.335097 17.300113 
L 74.81471 16.754294 
L 75.329358 16.945991 
L 76.294323 17.341027 
L 76.74464 17.265226 
L 78.288584 16.755088 
L 78.931894 16.963635 
L 80.025521 17.326366 
L 80.733162 17.30445 
L 81.955452 16.983228 
L 83.177741 16.749299 
L 84.078375 16.798043 
L 85.429326 17.141202 
L 86.844608 17.464343 
L 87.809573 17.388268 
L 88.324221 17.183411 
L 89.096193 16.830999 
L 90.447145 16.600707 
L 90.961793 16.79457 
L 91.798096 17.166209 
L 92.634399 17.329896 
L 93.213378 17.406451 
L 96.494259 17.091186 
L 97.330562 16.780394 
L 98.295527 16.506234 
L 98.874506 16.461773 
L 101.319085 17.163415 
L 101.962395 17.341727 
L 102.798698 17.576747 
L 103.377677 17.396986 
L 106.079579 16.45723 
L 106.722889 16.534018 
L 107.559192 16.894713 
L 109.038806 17.580341 
L 109.682116 17.620412 
L 110.261095 17.436988 
L 111.033067 16.925324 
L 111.805039 16.479413 
L 112.255356 16.489259 
L 112.705673 16.766218 
L 113.7993 17.62646 
L 114.120955 17.581266 
L 114.506941 17.290955 
L 115.471906 16.463115 
L 115.793561 16.495532 
L 116.179547 16.781745 
L 117.144513 17.613391 
L 117.466168 17.591931 
L 117.852154 17.323056 
L 118.88145 16.407688 
L 119.203105 16.521808 
L 119.589091 16.965604 
L 120.296732 17.804418 
L 120.489725 17.807124 
L 120.747049 17.528774 
L 121.583352 16.367209 
L 121.840676 16.431261 
L 122.290993 16.943676 
L 122.74131 17.377183 
L 123.127296 17.417182 
L 123.448951 17.257363 
L 124.413916 16.424741 
L 124.67124 16.54687 
L 125.057226 17.014615 
L 125.507543 17.496545 
L 126.086523 17.639081 
L 126.343847 17.571013 
L 126.729833 17.147413 
L 127.437474 16.266592 
L 127.630467 16.343696 
L 129.174411 17.642529 
L 129.496066 17.552371 
L 129.882052 17.158372 
L 130.332369 16.684335 
L 130.589693 16.748607 
L 131.104341 16.906727 
L 131.554658 16.722354 
L 131.876313 16.700866 
L 132.776947 17.178675 
L 133.548919 17.065978 
L 134.449553 16.776074 
L 135.414519 17.246135 
L 135.736174 17.394571 
L 136.12216 17.263515 
L 137.344449 16.775171 
L 137.859097 17.023963 
L 138.566738 17.342616 
L 139.017055 17.30894 
L 139.660365 16.980027 
L 140.303675 16.729472 
L 140.753992 16.79204 
L 142.362267 17.335446 
L 143.005577 17.084841 
L 143.906212 16.748962 
L 144.549522 16.753942 
L 145.514487 17.025665 
L 146.801107 17.339385 
L 147.701741 17.323636 
L 148.859699 17.04388 
L 150.146319 16.782965 
L 151.883256 16.72165 
L 152.848222 16.982292 
L 153.491532 17.19178 
L 154.070511 17.057327 
L 155.485793 16.721931 
L 159.538646 17.195478 
L 160.760935 17.469257 
L 161.404245 17.441717 
L 164.749458 16.708654 
L 165.264106 16.750086 
L 166.550726 17.212071 
L 170.0246 17.052266 
L 171.825869 16.832102 
L 172.983827 16.948764 
L 175.171081 17.243422 
L 176.071715 17.056786 
L 177.165342 16.832494 
L 177.808652 16.961002 
L 178.96661 17.250249 
L 179.609921 17.089985 
L 180.574886 16.83471 
L 181.153865 16.951474 
L 182.504816 17.345914 
L 183.019464 17.175491 
L 184.04876 16.785078 
L 184.627739 17.146553 
L 185.33538 17.423616 
L 185.592704 17.314287 
L 185.97869 16.827308 
L 186.429007 16.296079 
L 186.750662 16.265204 
L 187.072317 16.544024 
L 187.90862 17.496939 
L 188.4876 17.823758 
L 188.680593 17.693723 
L 189.195241 16.830882 
L 189.581227 16.459455 
L 189.902882 16.406667 
L 190.160206 16.58783 
L 190.932178 17.333418 
L 191.639819 17.463627 
L 192.34746 17.118494 
L 193.569749 17.011432 
L 194.213059 17.327618 
L 194.534714 17.361054 
L 194.856369 17.056366 
L 195.371017 16.54803 
L 195.821334 16.468512 
L 196.078658 16.638897 
L 197.107955 17.594512 
L 197.42961 17.442634 
L 197.944258 16.921564 
L 198.394575 16.57133 
L 198.844892 16.487028 
L 199.295209 16.627304 
L 199.681195 16.972577 
L 200.388836 17.715175 
L 200.710491 17.700753 
L 201.160808 17.400073 
L 202.318766 16.418819 
L 202.640421 16.48259 
L 203.090738 16.861544 
L 203.927041 17.613977 
L 204.248696 17.618108 
L 204.634682 17.362627 
L 205.728309 16.445523 
L 206.049965 16.504427 
L 206.500282 16.851788 
L 207.400916 17.589783 
L 207.851233 17.624465 
L 208.365881 17.386236 
L 209.909825 16.483009 
L 210.488804 16.454397 
L 211.196445 16.66062 
L 213.641023 17.658412 
L 214.284333 17.550447 
L 215.056306 17.199984 
L 216.60025 16.511997 
L 217.050567 16.565415 
L 217.88687 16.905033 
L 218.787504 17.384627 
L 219.623807 17.416109 
L 222.068385 16.924064 
L 223.869654 17.279029 
L 224.770288 17.167341 
L 226.121239 17.012863 
L 226.635887 16.967932 
L 227.279197 16.902384 
L 227.922507 16.839313 
L 228.951803 17.012536 
L 229.788106 17.083646 
L 232.747333 16.685938 
L 233.905291 17.013447 
L 235.256242 17.441909 
L 236.028214 17.439795 
L 236.349869 17.378435 
L 236.349869 17.378435 
" clip-path="url(#p069fbf8d06)" style="fill: none; stroke: #d62728; stroke-width: 0.5; stroke-linecap: square"/>
   </g>
   <g id="patch_3">
    <path d="M 33.707196 202.559296 
L 33.707196 7.2 
" style="fill: none; stroke: #000000; stroke-width: 0.8; stroke-linejoin: miter; stroke-linecap: square"/>
   </g>
   <g id="patch_4">
    <path d="M 245.99952 202.559296 
L 245.99952 7.2 
" style="fill: none; stroke: #000000; stroke-width: 0.8; stroke-linejoin: miter; stroke-linecap: square"/>
   </g>
   <g id="patch_5">
    <path d="M 33.707196 202.559296 
L 245.99952 202.559296 
" style="fill: none; stroke: #000000; stroke-width: 0.8; stroke-linejoin: miter; stroke-linecap: square"/>
   </g>
   <g id="patch_6">
    <path d="M 33.707196 7.2 
L 245.99952 7.2 
" style="fill: none; stroke: #000000; stroke-width: 0.8; stroke-linejoin: miter; stroke-linecap: square"/>
   </g>
   <g id="legend_1">
    <g id="patch_7">
     <path d="M 40.007196 126.429212 
L 85.914112 126.429212 
Q 87.714112 126.429212 87.714112 124.629212 
L 87.714112 85.130084 
Q 87.714112 83.330084 85.914112 83.330084 
L 40.007196 83.330084 
Q 38.207196 83.330084 38.207196 85.130084 
L 38.207196 124.629212 
Q 38.207196 126.429212 40.007196 126.429212 
z
" style="fill: #ffffff; opacity: 0.8; stroke: #cccccc; stroke-width: 0.24; stroke-linejoin: miter"/>
    </g>
    <g id="line2d_18">
     <path d="M 41.807196 90.504866 
L 50.807196 90.504866 
L 59.807196 90.504866 
" style="fill: none; stroke: #ff7f0e; stroke-width: 0.5; stroke-linecap: square"/>
    </g>
    <g id="text_16">
     <!-- $\langle \sigma_z\rangle$ -->
     <g transform="translate(67.007196 93.654866) scale(0.09 -0.09)">
      <defs>
       <path id="CMSY10-68" d="M 2099 4557 
C 2131 4627 2131 4640 2131 4672 
C 2131 4742 2074 4800 2003 4800 
C 1946 4800 1901 4768 1856 4653 
L 736 1715 
C 723 1677 704 1638 704 1600 
C 704 1581 704 1568 736 1491 
L 1856 -1446 
C 1882 -1517 1914 -1600 2003 -1600 
C 2074 -1600 2131 -1542 2131 -1472 
C 2131 -1453 2131 -1440 2099 -1370 
L 966 1600 
L 2099 4557 
z
" transform="scale(0.015625)"/>
       <path id="CMMI12-1b" d="M 3251 2408 
C 3334 2408 3546 2408 3546 2612 
C 3546 2752 3424 2752 3309 2752 
L 1894 2752 
C 934 2752 243 1686 243 932 
C 243 390 595 -64 1171 -64 
C 1926 -64 2752 747 2752 1705 
C 2752 1954 2694 2196 2541 2408 
L 3251 2408 
z
M 1178 64 
C 851 64 614 313 614 754 
C 614 1137 845 2408 1786 2408 
C 2061 2408 2368 2274 2368 1781 
C 2368 1558 2266 1021 2042 652 
C 1811 275 1466 64 1178 64 
z
" transform="scale(0.015625)"/>
       <path id="CMMI12-7a" d="M 813 486 
C 1088 803 1312 1004 1632 1296 
C 2016 1632 2182 1793 2272 1891 
C 2720 2338 2944 2713 2944 2764 
C 2944 2816 2893 2816 2880 2816 
C 2835 2816 2822 2793 2790 2750 
C 2630 2494 2477 2367 2310 2367 
C 2176 2367 2106 2421 1984 2565 
C 1850 2715 1741 2816 1555 2816 
C 1088 2816 806 2257 806 2128 
C 806 2108 813 2068 870 2068 
C 922 2068 928 2091 947 2133 
C 1056 2372 1363 2414 1485 2414 
C 1619 2414 1747 2376 1882 2327 
C 2125 2240 2227 2240 2291 2240 
C 2336 2240 2362 2240 2394 2246 
C 2182 1994 1837 1683 1549 1418 
L 902 816 
C 512 415 275 33 275 -12 
C 275 -51 307 -64 346 -64 
C 384 -64 390 -57 435 14 
C 538 163 742 384 979 384 
C 1114 384 1178 342 1306 193 
C 1427 61 1536 -64 1741 -64 
C 2368 -64 2726 732 2726 876 
C 2726 903 2720 942 2656 942 
C 2605 942 2598 917 2579 855 
C 2438 488 2061 338 1811 338 
C 1677 338 1549 376 1414 425 
C 1158 512 1088 512 1005 512 
C 941 512 870 512 813 486 
z
" transform="scale(0.015625)"/>
       <path id="CMSY10-69" d="M 1747 1491 
C 1779 1568 1779 1581 1779 1600 
C 1779 1619 1779 1632 1747 1709 
L 627 4653 
C 589 4762 550 4800 480 4800 
C 410 4800 352 4742 352 4672 
C 352 4653 352 4640 384 4570 
L 1517 1600 
L 384 -1357 
C 352 -1427 352 -1440 352 -1472 
C 352 -1542 410 -1600 480 -1600 
C 563 -1600 589 -1536 614 -1472 
L 1747 1491 
z
" transform="scale(0.015625)"/>
      </defs>
      <use xlink:href="#CMSY10-68" transform="scale(0.996264)"/>
      <use xlink:href="#CMMI12-1b" transform="translate(38.743734 0) scale(0.996264)"/>
      <use xlink:href="#CMMI12-7a" transform="translate(94.189195 -14.943915) scale(0.697382)"/>
      <use xlink:href="#CMSY10-69" transform="translate(129.51575 0) scale(0.996264)"/>
     </g>
    </g>
    <g id="line2d_19">
     <path d="M 41.807196 103.971242 
L 50.807196 103.971242 
L 59.807196 103.971242 
" style="fill: none; stroke: #2ca02c; stroke-width: 0.5; stroke-linecap: square"/>
    </g>
    <g id="text_17">
     <!-- $\langle \sigma_x\rangle$ -->
     <g transform="translate(67.007196 107.121242) scale(0.09 -0.09)">
      <defs>
       <path id="CMMI12-78" d="M 3034 2606 
C 2829 2567 2752 2414 2752 2293 
C 2752 2139 2874 2088 2963 2088 
C 3155 2088 3290 2254 3290 2427 
C 3290 2695 2982 2816 2714 2816 
C 2323 2816 2106 2433 2048 2312 
C 1901 2816 1504 2816 1389 2816 
C 736 2816 390 1980 390 1839 
C 390 1814 416 1782 461 1782 
C 512 1782 525 1820 538 1846 
C 755 2555 1184 2689 1370 2689 
C 1658 2689 1715 2420 1715 2267 
C 1715 2127 1677 1980 1600 1673 
L 1382 798 
C 1286 415 1101 64 762 64 
C 730 64 570 64 435 147 
C 666 192 717 383 717 460 
C 717 588 621 664 499 664 
C 346 664 179 530 179 326 
C 179 57 480 -64 755 -64 
C 1062 -64 1280 179 1414 441 
C 1517 64 1837 -64 2074 -64 
C 2726 -64 3072 773 3072 913 
C 3072 945 3046 971 3008 971 
C 2950 971 2944 939 2925 888 
C 2752 326 2381 64 2093 64 
C 1869 64 1747 230 1747 492 
C 1747 632 1773 734 1875 1156 
L 2099 2024 
C 2195 2408 2413 2689 2707 2689 
C 2720 2689 2899 2689 3034 2606 
z
" transform="scale(0.015625)"/>
      </defs>
      <use xlink:href="#CMSY10-68" transform="scale(0.996264)"/>
      <use xlink:href="#CMMI12-1b" transform="translate(38.743734 0) scale(0.996264)"/>
      <use xlink:href="#CMMI12-78" transform="translate(94.189195 -14.943915) scale(0.697382)"/>
      <use xlink:href="#CMSY10-69" transform="translate(133.490986 0) scale(0.996264)"/>
     </g>
    </g>
    <g id="line2d_20">
     <path d="M 41.807196 117.437618 
L 50.807196 117.437618 
L 59.807196 117.437618 
" style="fill: none; stroke: #d62728; stroke-width: 0.5; stroke-linecap: square"/>
    </g>
    <g id="text_18">
     <!-- $\langle \sigma_y\rangle$ -->
     <g transform="translate(67.007196 120.587618) scale(0.09 -0.09)">
      <defs>
       <path id="CMMI12-79" d="M 1683 -700 
C 1510 -939 1261 -1152 947 -1152 
C 870 -1152 563 -1152 467 -889 
C 486 -895 518 -895 531 -895 
C 723 -895 851 -729 851 -582 
C 851 -435 730 -384 634 -384 
C 531 -384 307 -458 307 -759 
C 307 -1071 582 -1286 947 -1286 
C 1587 -1286 2234 -700 2413 6 
L 3040 2485 
C 3046 2517 3059 2556 3059 2594 
C 3059 2689 2982 2753 2886 2753 
C 2829 2753 2694 2727 2643 2535 
L 2170 658 
C 2138 543 2138 530 2086 460 
C 1958 281 1747 64 1440 64 
C 1082 64 1050 415 1050 588 
C 1050 952 1222 1443 1395 1903 
C 1466 2088 1504 2178 1504 2305 
C 1504 2574 1312 2816 998 2816 
C 410 2816 173 1890 173 1839 
C 173 1814 198 1782 243 1782 
C 301 1782 307 1807 333 1897 
C 486 2433 730 2689 979 2689 
C 1037 2689 1146 2689 1146 2478 
C 1146 2312 1075 2127 979 1884 
C 666 1047 666 837 666 683 
C 666 77 1101 -64 1421 -64 
C 1606 -64 1837 -6 2061 230 
L 2067 224 
C 1971 -147 1907 -392 1683 -700 
z
" transform="scale(0.015625)"/>
      </defs>
      <use xlink:href="#CMSY10-68" transform="scale(0.996264)"/>
      <use xlink:href="#CMMI12-1b" transform="translate(38.743734 0) scale(0.996264)"/>
      <use xlink:href="#CMMI12-79" transform="translate(94.189195 -14.943915) scale(0.697382)"/>
      <use xlink:href="#CMSY10-69" transform="translate(130.484301 0) scale(0.996264)"/>
     </g>
    </g>
   </g>
  </g>
 </g>
 <defs>
  <clipPath id="p069fbf8d06">
   <rect x="33.707196" y="7.2" width="212.292324" height="195.359296"/>
  </clipPath>
 </defs>
</svg>
