<?xml version="1.0" encoding="utf-8" standalone="no"?>
<!DOCTYPE svg PUBLIC "-//W3C//DTD SVG 1.1//EN"
  "http://www.w3.org/Graphics/SVG/1.1/DTD/svg11.dtd">
<svg xmlns:xlink="http://www.w3.org/1999/xlink" width="253.19952pt" height="238.79952pt" viewBox="0 0 253.19952 238.79952" xmlns="http://www.w3.org/2000/svg" version="1.1">
 <metadata>
  <rdf:RDF xmlns:dc="http://purl.org/dc/elements/1.1/" xmlns:cc="http://creativecommons.org/ns#" xmlns:rdf="http://www.w3.org/1999/02/22-rdf-syntax-ns#">
   <cc:Work>
    <dc:type rdf:resource="http://purl.org/dc/dcmitype/StillImage"/>
    <dc:date>1980-01-01T00:00:00+00:00</dc:date>
    <dc:format>image/svg+xml</dc:format>
    <dc:creator>
     <cc:Agent>
      <dc:title>Matplotlib v3.6.2, https://matplotlib.org/</dc:title>
     </cc:Agent>
    </dc:creator>
   </cc:Work>
  </rdf:RDF>
 </metadata>
 <defs>
  <style type="text/css">*{stroke-linejoin: round; stroke-linecap: butt}</style>
 </defs>
 <g id="figure_1">
  <g id="patch_1">
   <path d="M 0 238.79952 
L 253.19952 238.79952 
L 253.19952 0 
L 0 0 
z
" style="fill: #ffffff"/>
  </g>
  <g id="axes_1">
   <g id="patch_2">
    <path d="M 33.707196 202.559296 
L 245.99952 202.559296 
L 245.99952 7.2 
L 33.707196 7.2 
z
" style="fill: #ffffff"/>
   </g>
   <g id="matplotlib.axis_1">
    <g id="xtick_1">
     <g id="line2d_1">
      <defs>
       <path id="m98df921f01" d="M 0 0 
L 0 3.5 
" style="stroke: #000000; stroke-width: 0.8"/>
      </defs>
      <g>
       <use xlink:href="#m98df921f01" x="43.356847" y="202.559296" style="stroke: #000000; stroke-width: 0.8"/>
      </g>
     </g>
     <g id="text_1">
      <!-- $\mathdefault{0}$ -->
      <g transform="translate(41.239756 217.194098) scale(0.08 -0.08)">
       <defs>
        <path id="CMR17-30" d="M 2688 2025 
C 2688 2416 2682 3080 2413 3591 
C 2176 4039 1798 4198 1466 4198 
C 1158 4198 768 4058 525 3597 
C 269 3118 243 2524 243 2025 
C 243 1661 250 1106 448 619 
C 723 -39 1216 -128 1466 -128 
C 1760 -128 2208 -7 2470 600 
C 2662 1042 2688 1559 2688 2025 
z
M 1466 -26 
C 1056 -26 813 325 723 812 
C 653 1188 653 1738 653 2096 
C 653 2588 653 2997 736 3387 
C 858 3929 1216 4096 1466 4096 
C 1728 4096 2067 3923 2189 3400 
C 2272 3036 2278 2607 2278 2096 
C 2278 1680 2278 1169 2202 792 
C 2067 95 1690 -26 1466 -26 
z
" transform="scale(0.015625)"/>
       </defs>
       <use xlink:href="#CMR17-30" transform="scale(0.996264)"/>
      </g>
     </g>
    </g>
    <g id="xtick_2">
     <g id="line2d_2">
      <g>
       <use xlink:href="#m98df921f01" x="70.161434" y="202.559296" style="stroke: #000000; stroke-width: 0.8"/>
      </g>
     </g>
     <g id="text_2">
      <!-- $\mathdefault{25}$ -->
      <g transform="translate(65.927251 217.194098) scale(0.08 -0.08)">
       <defs>
        <path id="CMR17-32" d="M 2669 989 
L 2554 989 
C 2490 536 2438 459 2413 420 
C 2381 369 1920 369 1830 369 
L 602 369 
C 832 619 1280 1072 1824 1597 
C 2214 1967 2669 2402 2669 3035 
C 2669 3790 2067 4224 1395 4224 
C 691 4224 262 3604 262 3030 
C 262 2780 448 2748 525 2748 
C 589 2748 781 2787 781 3010 
C 781 3207 614 3264 525 3264 
C 486 3264 448 3258 422 3245 
C 544 3790 915 4058 1306 4058 
C 1862 4058 2227 3617 2227 3035 
C 2227 2479 1901 2000 1536 1584 
L 262 146 
L 262 0 
L 2515 0 
L 2669 989 
z
" transform="scale(0.015625)"/>
        <path id="CMR17-35" d="M 730 3692 
C 794 3666 1056 3584 1325 3584 
C 1920 3584 2246 3911 2432 4100 
C 2432 4157 2432 4192 2394 4192 
C 2387 4192 2374 4192 2323 4163 
C 2099 4058 1837 3973 1517 3973 
C 1325 3973 1037 3999 723 4139 
C 653 4171 640 4171 634 4171 
C 602 4171 595 4164 595 4037 
L 595 2203 
C 595 2089 595 2057 659 2057 
C 691 2057 704 2070 736 2114 
C 941 2401 1222 2522 1542 2522 
C 1766 2522 2246 2382 2246 1289 
C 2246 1085 2246 715 2054 421 
C 1894 159 1645 25 1370 25 
C 947 25 518 320 403 814 
C 429 807 480 795 506 795 
C 589 795 749 840 749 1038 
C 749 1210 627 1280 506 1280 
C 358 1280 262 1190 262 1011 
C 262 454 704 -128 1382 -128 
C 2042 -128 2669 440 2669 1264 
C 2669 2030 2170 2624 1549 2624 
C 1222 2624 947 2503 730 2274 
L 730 3692 
z
" transform="scale(0.015625)"/>
       </defs>
       <use xlink:href="#CMR17-32" transform="scale(0.996264)"/>
       <use xlink:href="#CMR17-35" transform="translate(45.690477 0) scale(0.996264)"/>
      </g>
     </g>
    </g>
    <g id="xtick_3">
     <g id="line2d_3">
      <g>
       <use xlink:href="#m98df921f01" x="96.96602" y="202.559296" style="stroke: #000000; stroke-width: 0.8"/>
      </g>
     </g>
     <g id="text_3">
      <!-- $\mathdefault{50}$ -->
      <g transform="translate(92.731837 217.194098) scale(0.08 -0.08)">
       <use xlink:href="#CMR17-35" transform="scale(0.996264)"/>
       <use xlink:href="#CMR17-30" transform="translate(45.690477 0) scale(0.996264)"/>
      </g>
     </g>
    </g>
    <g id="xtick_4">
     <g id="line2d_4">
      <g>
       <use xlink:href="#m98df921f01" x="123.770606" y="202.559296" style="stroke: #000000; stroke-width: 0.8"/>
      </g>
     </g>
     <g id="text_4">
      <!-- $\mathdefault{75}$ -->
      <g transform="translate(119.536423 217.194098) scale(0.08 -0.08)">
       <defs>
        <path id="CMR17-37" d="M 2886 3941 
L 2886 4081 
L 1382 4081 
C 634 4081 621 4165 595 4288 
L 480 4288 
L 294 3094 
L 410 3094 
C 429 3215 474 3540 550 3661 
C 589 3712 1062 3712 1171 3712 
L 2579 3712 
L 1869 2661 
C 1395 1954 1069 999 1069 165 
C 1069 89 1069 -128 1299 -128 
C 1530 -128 1530 89 1530 171 
L 1530 465 
C 1530 1508 1709 2196 2003 2636 
L 2886 3941 
z
" transform="scale(0.015625)"/>
       </defs>
       <use xlink:href="#CMR17-37" transform="scale(0.996264)"/>
       <use xlink:href="#CMR17-35" transform="translate(45.690477 0) scale(0.996264)"/>
      </g>
     </g>
    </g>
    <g id="xtick_5">
     <g id="line2d_5">
      <g>
       <use xlink:href="#m98df921f01" x="150.575193" y="202.559296" style="stroke: #000000; stroke-width: 0.8"/>
      </g>
     </g>
     <g id="text_5">
      <!-- $\mathdefault{100}$ -->
      <g transform="translate(144.223918 217.194098) scale(0.08 -0.08)">
       <defs>
        <path id="CMR17-31" d="M 1702 4058 
C 1702 4192 1696 4192 1606 4192 
C 1357 3916 979 3827 621 3827 
C 602 3827 570 3827 563 3808 
C 557 3795 557 3782 557 3648 
C 755 3648 1088 3686 1344 3839 
L 1344 461 
C 1344 236 1331 160 781 160 
L 589 160 
L 589 0 
C 896 0 1216 0 1523 0 
C 1830 0 2150 0 2458 0 
L 2458 160 
L 2266 160 
C 1715 160 1702 230 1702 458 
L 1702 4058 
z
" transform="scale(0.015625)"/>
       </defs>
       <use xlink:href="#CMR17-31" transform="scale(0.996264)"/>
       <use xlink:href="#CMR17-30" transform="translate(45.690477 0) scale(0.996264)"/>
       <use xlink:href="#CMR17-30" transform="translate(91.380954 0) scale(0.996264)"/>
      </g>
     </g>
    </g>
    <g id="xtick_6">
     <g id="line2d_6">
      <g>
       <use xlink:href="#m98df921f01" x="177.379779" y="202.559296" style="stroke: #000000; stroke-width: 0.8"/>
      </g>
     </g>
     <g id="text_6">
      <!-- $\mathdefault{125}$ -->
      <g transform="translate(171.028505 217.194098) scale(0.08 -0.08)">
       <use xlink:href="#CMR17-31" transform="scale(0.996264)"/>
       <use xlink:href="#CMR17-32" transform="translate(45.690477 0) scale(0.996264)"/>
       <use xlink:href="#CMR17-35" transform="translate(91.380954 0) scale(0.996264)"/>
      </g>
     </g>
    </g>
    <g id="xtick_7">
     <g id="line2d_7">
      <g>
       <use xlink:href="#m98df921f01" x="204.184365" y="202.559296" style="stroke: #000000; stroke-width: 0.8"/>
      </g>
     </g>
     <g id="text_7">
      <!-- $\mathdefault{150}$ -->
      <g transform="translate(197.833091 217.194098) scale(0.08 -0.08)">
       <use xlink:href="#CMR17-31" transform="scale(0.996264)"/>
       <use xlink:href="#CMR17-35" transform="translate(45.690477 0) scale(0.996264)"/>
       <use xlink:href="#CMR17-30" transform="translate(91.380954 0) scale(0.996264)"/>
      </g>
     </g>
    </g>
    <g id="xtick_8">
     <g id="line2d_8">
      <g>
       <use xlink:href="#m98df921f01" x="230.988952" y="202.559296" style="stroke: #000000; stroke-width: 0.8"/>
      </g>
     </g>
     <g id="text_8">
      <!-- $\mathdefault{175}$ -->
      <g transform="translate(224.637677 217.194098) scale(0.08 -0.08)">
       <use xlink:href="#CMR17-31" transform="scale(0.996264)"/>
       <use xlink:href="#CMR17-37" transform="translate(45.690477 0) scale(0.996264)"/>
       <use xlink:href="#CMR17-35" transform="translate(91.380954 0) scale(0.996264)"/>
      </g>
     </g>
    </g>
    <g id="text_9">
     <!-- $\tau$ -->
     <g transform="translate(137.675756 229.662342) scale(0.1 -0.1)">
      <defs>
       <path id="CMMI12-1c" d="M 1837 2408 
L 2899 2408 
C 2982 2408 3194 2408 3194 2612 
C 3194 2752 3072 2752 2957 2752 
L 1197 2752 
C 1050 2752 832 2752 538 2440 
C 371 2255 166 1917 166 1879 
C 166 1841 198 1828 237 1828 
C 282 1828 288 1847 320 1885 
C 653 2408 986 2408 1146 2408 
L 1677 2408 
L 1011 223 
C 979 127 979 114 979 95 
C 979 25 1024 -64 1152 -64 
C 1350 -64 1382 108 1402 203 
L 1837 2408 
z
" transform="scale(0.015625)"/>
      </defs>
      <use xlink:href="#CMMI12-1c" transform="scale(0.996264)"/>
     </g>
    </g>
   </g>
   <g id="matplotlib.axis_2">
    <g id="ytick_1">
     <g id="line2d_9">
      <defs>
       <path id="m2cbd8b31ce" d="M 0 0 
L -3.5 0 
" style="stroke: #000000; stroke-width: 0.8"/>
      </defs>
      <g>
       <use xlink:href="#m2cbd8b31ce" x="33.707196" y="193.679328" style="stroke: #000000; stroke-width: 0.8"/>
      </g>
     </g>
     <g id="text_10">
      <!-- $\mathdefault{−1.0}$ -->
      <g transform="translate(7.2 196.446729) scale(0.08 -0.08)">
       <defs>
        <path id="CMSY10-0" d="M 4218 1472 
C 4326 1472 4442 1472 4442 1600 
C 4442 1728 4326 1728 4218 1728 
L 755 1728 
C 646 1728 531 1728 531 1600 
C 531 1472 646 1472 755 1472 
L 4218 1472 
z
" transform="scale(0.015625)"/>
        <path id="CMMI12-3a" d="M 1178 307 
C 1178 492 1024 619 870 619 
C 685 619 557 466 557 313 
C 557 128 710 0 864 0 
C 1050 0 1178 153 1178 307 
z
" transform="scale(0.015625)"/>
       </defs>
       <use xlink:href="#CMSY10-0" transform="scale(0.996264)"/>
       <use xlink:href="#CMR17-31" transform="translate(77.487468 0) scale(0.996264)"/>
       <use xlink:href="#CMMI12-3a" transform="translate(123.177945 0) scale(0.996264)"/>
       <use xlink:href="#CMR17-30" transform="translate(150.275122 0) scale(0.996264)"/>
      </g>
     </g>
    </g>
    <g id="ytick_2">
     <g id="line2d_10">
      <g>
       <use xlink:href="#m2cbd8b31ce" x="33.707196" y="158.416309" style="stroke: #000000; stroke-width: 0.8"/>
      </g>
     </g>
     <g id="text_11">
      <!-- $\mathdefault{−0.8}$ -->
      <g transform="translate(7.2 161.18371) scale(0.08 -0.08)">
       <defs>
        <path id="CMR17-38" d="M 1741 2264 
C 2144 2467 2554 2773 2554 3263 
C 2554 3841 1990 4179 1472 4179 
C 890 4179 378 3759 378 3180 
C 378 3021 416 2747 666 2505 
C 730 2442 998 2251 1171 2130 
C 883 1983 211 1634 211 934 
C 211 279 838 -128 1459 -128 
C 2144 -128 2720 362 2720 1010 
C 2720 1590 2330 1857 2074 2029 
L 1741 2264 
z
M 902 2822 
C 851 2854 595 3051 595 3351 
C 595 3739 998 4032 1459 4032 
C 1965 4032 2336 3676 2336 3262 
C 2336 2669 1670 2331 1638 2331 
C 1632 2331 1626 2331 1574 2370 
L 902 2822 
z
M 2080 1519 
C 2176 1449 2483 1240 2483 851 
C 2483 381 2010 25 1472 25 
C 890 25 448 438 448 940 
C 448 1443 838 1862 1280 2060 
L 2080 1519 
z
" transform="scale(0.015625)"/>
       </defs>
       <use xlink:href="#CMSY10-0" transform="scale(0.996264)"/>
       <use xlink:href="#CMR17-30" transform="translate(77.487468 0) scale(0.996264)"/>
       <use xlink:href="#CMMI12-3a" transform="translate(123.177945 0) scale(0.996264)"/>
       <use xlink:href="#CMR17-38" transform="translate(150.275122 0) scale(0.996264)"/>
      </g>
     </g>
    </g>
    <g id="ytick_3">
     <g id="line2d_11">
      <g>
       <use xlink:href="#m2cbd8b31ce" x="33.707196" y="123.15329" style="stroke: #000000; stroke-width: 0.8"/>
      </g>
     </g>
     <g id="text_12">
      <!-- $\mathdefault{−0.6}$ -->
      <g transform="translate(7.2 125.920691) scale(0.08 -0.08)">
       <defs>
        <path id="CMR17-36" d="M 678 2176 
C 678 3690 1395 4032 1811 4032 
C 1946 4032 2272 4009 2400 3776 
C 2298 3776 2106 3776 2106 3553 
C 2106 3381 2246 3323 2336 3323 
C 2394 3323 2566 3348 2566 3560 
C 2566 3954 2246 4179 1805 4179 
C 1043 4179 243 3390 243 1984 
C 243 253 966 -128 1478 -128 
C 2099 -128 2688 427 2688 1283 
C 2688 2081 2170 2662 1517 2662 
C 1126 2662 838 2407 678 1960 
L 678 2176 
z
M 1478 25 
C 691 25 691 1200 691 1436 
C 691 1896 909 2560 1504 2560 
C 1613 2560 1926 2560 2138 2120 
C 2253 1870 2253 1609 2253 1289 
C 2253 944 2253 690 2118 434 
C 1978 171 1773 25 1478 25 
z
" transform="scale(0.015625)"/>
       </defs>
       <use xlink:href="#CMSY10-0" transform="scale(0.996264)"/>
       <use xlink:href="#CMR17-30" transform="translate(77.487468 0) scale(0.996264)"/>
       <use xlink:href="#CMMI12-3a" transform="translate(123.177945 0) scale(0.996264)"/>
       <use xlink:href="#CMR17-36" transform="translate(150.275122 0) scale(0.996264)"/>
      </g>
     </g>
    </g>
    <g id="ytick_4">
     <g id="line2d_12">
      <g>
       <use xlink:href="#m2cbd8b31ce" x="33.707196" y="87.890272" style="stroke: #000000; stroke-width: 0.8"/>
      </g>
     </g>
     <g id="text_13">
      <!-- $\mathdefault{−0.4}$ -->
      <g transform="translate(7.2 90.657673) scale(0.08 -0.08)">
       <defs>
        <path id="CMR17-34" d="M 2150 4122 
C 2150 4256 2144 4256 2029 4256 
L 128 1254 
L 128 1088 
L 1779 1088 
L 1779 457 
C 1779 224 1766 160 1318 160 
L 1197 160 
L 1197 0 
C 1402 0 1747 0 1965 0 
C 2182 0 2528 0 2733 0 
L 2733 160 
L 2611 160 
C 2163 160 2150 224 2150 457 
L 2150 1088 
L 2803 1088 
L 2803 1254 
L 2150 1254 
L 2150 4122 
z
M 1798 3703 
L 1798 1254 
L 256 1254 
L 1798 3703 
z
" transform="scale(0.015625)"/>
       </defs>
       <use xlink:href="#CMSY10-0" transform="scale(0.996264)"/>
       <use xlink:href="#CMR17-30" transform="translate(77.487468 0) scale(0.996264)"/>
       <use xlink:href="#CMMI12-3a" transform="translate(123.177945 0) scale(0.996264)"/>
       <use xlink:href="#CMR17-34" transform="translate(150.275122 0) scale(0.996264)"/>
      </g>
     </g>
    </g>
    <g id="ytick_5">
     <g id="line2d_13">
      <g>
       <use xlink:href="#m2cbd8b31ce" x="33.707196" y="52.627253" style="stroke: #000000; stroke-width: 0.8"/>
      </g>
     </g>
     <g id="text_14">
      <!-- $\mathdefault{−0.2}$ -->
      <g transform="translate(7.2 55.394654) scale(0.08 -0.08)">
       <use xlink:href="#CMSY10-0" transform="scale(0.996264)"/>
       <use xlink:href="#CMR17-30" transform="translate(77.487468 0) scale(0.996264)"/>
       <use xlink:href="#CMMI12-3a" transform="translate(123.177945 0) scale(0.996264)"/>
       <use xlink:href="#CMR17-32" transform="translate(150.275122 0) scale(0.996264)"/>
      </g>
     </g>
    </g>
    <g id="ytick_6">
     <g id="line2d_14">
      <g>
       <use xlink:href="#m2cbd8b31ce" x="33.707196" y="17.364234" style="stroke: #000000; stroke-width: 0.8"/>
      </g>
     </g>
     <g id="text_15">
      <!-- $\mathdefault{0.0}$ -->
      <g transform="translate(13.786507 20.131635) scale(0.08 -0.08)">
       <use xlink:href="#CMR17-30" transform="scale(0.996264)"/>
       <use xlink:href="#CMMI12-3a" transform="translate(45.690477 0) scale(0.996264)"/>
       <use xlink:href="#CMR17-30" transform="translate(72.787654 0) scale(0.996264)"/>
      </g>
     </g>
    </g>
   </g>
   <g id="line2d_15">
    <path d="M 43.356847 193.679328 
L 52.684843 193.569437 
L 53.006498 193.304987 
L 53.328153 192.670687 
L 53.649808 191.39833 
L 53.971463 189.183363 
L 54.357449 184.892113 
L 54.872098 176.079014 
L 55.64407 158.013863 
L 57.188014 121.971119 
L 58.024317 107.549194 
L 58.796289 98.479128 
L 59.825585 89.024516 
L 60.726219 83.068578 
L 62.141501 75.742655 
L 62.72048 73.745543 
L 63.492453 71.120802 
L 64.135763 69.208807 
L 64.714742 68.161629 
L 65.422383 67.055916 
L 66.644672 64.737289 
L 67.738299 63.81044 
L 68.960588 62.248324 
L 69.603898 62.183591 
L 69.925553 62.42504 
L 70.37587 63.119601 
L 71.276504 65.177266 
L 72.691787 68.650598 
L 73.206435 69.236058 
L 73.849745 69.623698 
L 74.493055 69.751667 
L 76.680309 69.763349 
L 86.008305 69.657061 
L 86.715946 69.68733 
L 87.101932 69.938761 
L 87.423587 70.400426 
L 87.745242 71.248776 
L 88.195559 73.186614 
L 88.774538 76.844925 
L 89.482179 82.962421 
L 92.184082 107.984349 
L 93.149047 114.312149 
L 93.921019 117.99174 
L 94.885984 121.624304 
L 95.722287 124.071036 
L 96.365597 125.363224 
L 98.617182 128.934624 
L 99.260493 129.341657 
L 100.032465 129.70604 
L 100.933099 129.950997 
L 101.319085 130.354483 
L 101.769402 131.177366 
L 102.28405 132.705152 
L 103.056022 135.858101 
L 104.921621 144.153299 
L 105.436269 145.402398 
L 105.886586 146.011073 
L 106.336903 146.293428 
L 106.980213 146.399288 
L 110.454088 146.405635 
L 117.080182 146.301863 
L 117.401837 146.063936 
L 117.723492 145.534388 
L 118.045147 144.529294 
L 118.431133 142.388729 
L 118.88145 138.231071 
L 119.460429 130.226348 
L 121.840676 93.503468 
L 122.548317 86.363209 
L 123.255958 81.245232 
L 123.899268 78.34748 
L 125.829199 70.912839 
L 126.472509 69.120787 
L 126.987157 67.897386 
L 127.694798 66.796815 
L 128.145115 65.938133 
L 128.852756 64.528449 
L 129.431735 64.080927 
L 129.946383 63.595449 
L 130.461031 62.953775 
L 130.782686 62.96114 
L 131.104341 62.908374 
L 132.197968 62.105354 
L 132.841278 61.49649 
L 133.162933 61.551263 
L 133.741912 61.85875 
L 134.192229 62.490215 
L 135.350188 64.377447 
L 136.315153 66.716022 
L 137.087125 68.335224 
L 137.601773 68.963701 
L 138.180752 69.297857 
L 138.888393 69.429515 
L 141.204309 69.441656 
L 151.175615 69.534517 
L 151.561601 69.889252 
L 151.947587 70.641568 
L 152.333573 71.921322 
L 152.783891 74.205845 
L 153.36287 78.589546 
L 154.392166 88.656088 
L 156.129103 105.339982 
L 157.158399 112.557602 
L 157.994702 117.024555 
L 158.766674 120.004342 
L 159.924632 123.574951 
L 160.889597 125.820214 
L 161.790232 127.394083 
L 163.269845 129.192802 
L 164.299141 129.863942 
L 165.457099 130.63549 
L 165.971747 131.367543 
L 166.486395 132.536815 
L 167.065374 134.497394 
L 167.837346 138.074552 
L 168.995304 143.38611 
L 169.574283 145.107995 
L 170.088931 146.004759 
L 170.539249 146.38214 
L 171.053897 146.533126 
L 172.276186 146.559271 
L 181.346858 146.462329 
L 181.732844 146.200171 
L 182.054499 145.673814 
L 182.376154 144.660158 
L 182.76214 142.506388 
L 183.212457 138.412236 
L 183.791436 130.66644 
L 186.300345 92.548263 
L 187.007986 86.235084 
L 188.037282 79.143056 
L 188.873586 74.776383 
L 189.516896 72.567612 
L 190.481861 70.14001 
L 191.575488 67.449393 
L 191.961474 66.929962 
L 192.926439 65.989586 
L 193.376756 65.03184 
L 193.891404 64.162137 
L 194.406052 63.707846 
L 195.757003 62.685784 
L 196.400313 62.051688 
L 197.107955 61.991162 
L 197.558272 61.825794 
L 197.879927 62.016661 
L 198.973554 63.172703 
L 199.552533 64.119415 
L 200.324505 65.95204 
L 201.28947 68.001595 
L 201.868449 68.775625 
L 202.383097 69.103666 
L 203.090738 69.251427 
L 204.956337 69.268084 
L 214.284333 69.164166 
L 215.249299 69.135055 
L 215.635285 69.305234 
L 215.95694 69.688416 
L 216.278595 70.403623 
L 216.664581 71.847098 
L 217.179229 74.79773 
L 217.822539 79.84984 
L 218.787504 89.659702 
L 220.138455 102.752157 
L 221.10342 110.080742 
L 222.068385 115.914398 
L 222.840357 119.347836 
L 223.805323 122.706766 
L 224.641626 124.755006 
L 225.735253 126.766608 
L 227.793845 129.468763 
L 228.244162 129.855825 
L 230.109761 130.934106 
L 230.495747 131.59297 
L 231.010395 132.968201 
L 231.653705 135.445953 
L 233.776629 144.561337 
L 234.291277 145.591737 
L 234.741594 146.058286 
L 235.256242 146.267704 
L 236.156876 146.315562 
L 236.349869 146.315586 
L 236.349869 146.315586 
" clip-path="url(#p76708281e1)" style="fill: none; stroke: #ff7f0e; stroke-width: 0.5; stroke-linecap: square"/>
   </g>
   <g id="line2d_16">
    <path d="M 43.356847 17.364234 
L 53.585477 17.263688 
L 54.807767 17.16505 
L 55.965725 17.110355 
L 56.802028 16.913569 
L 57.188014 17.117233 
L 57.831324 17.482894 
L 58.345972 17.51312 
L 58.924951 17.277372 
L 59.310937 17.245347 
L 60.726219 17.509594 
L 61.305198 17.064456 
L 62.012839 16.439737 
L 62.334494 16.579885 
L 63.299459 17.266438 
L 63.685446 17.252091 
L 64.135763 16.995726 
L 64.972066 16.464908 
L 65.293721 16.524296 
L 65.679707 16.877493 
L 66.130024 17.240045 
L 66.580341 17.294649 
L 68.059954 16.975305 
L 68.767595 16.967285 
L 69.410905 17.193018 
L 69.989884 17.601148 
L 70.633194 18.135487 
L 70.890518 18.097208 
L 71.276504 17.750468 
L 71.984145 17.040298 
L 72.370132 17.022934 
L 72.949111 17.305711 
L 73.592421 17.563837 
L 74.107069 17.505891 
L 75.45802 17.139413 
L 76.10133 17.341353 
L 76.937633 17.595903 
L 77.516612 17.506772 
L 78.931894 17.1318 
L 79.703866 17.276546 
L 81.183479 17.592282 
L 82.148445 17.536289 
L 85.172002 17.163248 
L 87.938235 17.559895 
L 88.517214 17.530302 
L 89.739503 17.291247 
L 91.090455 17.44179 
L 92.119751 17.648127 
L 92.827392 17.477323 
L 94.114012 17.249589 
L 94.62866 17.360092 
L 95.657956 17.71699 
L 96.301266 17.512743 
L 97.652217 17.022808 
L 98.231196 16.870396 
L 98.810175 16.956891 
L 99.646479 17.273832 
L 100.933099 17.918288 
L 101.447747 17.759183 
L 102.412712 17.487295 
L 104.921621 16.829916 
L 105.757924 16.916047 
L 106.529896 17.267988 
L 107.880847 17.891266 
L 108.588489 17.944644 
L 109.231799 17.771191 
L 110.132433 17.259489 
L 111.033067 16.802921 
L 111.483384 16.796082 
L 111.933701 17.009369 
L 113.348983 17.953111 
L 113.734969 17.786133 
L 114.378279 17.144778 
L 114.892927 16.789188 
L 115.214582 16.811802 
L 115.600568 17.087947 
L 116.565533 17.933667 
L 116.887189 17.912315 
L 117.273175 17.622748 
L 118.173809 16.789565 
L 118.495464 16.82696 
L 118.88145 17.169522 
L 119.653422 17.974302 
L 119.975077 18.004693 
L 120.425394 17.816527 
L 121.068704 17.56168 
L 122.033669 17.449584 
L 122.934303 17.147928 
L 123.448951 17.267246 
L 124.02793 17.480028 
L 124.285254 17.327101 
L 125.121557 16.483886 
L 125.378881 16.695024 
L 126.279516 17.785198 
L 126.53684 17.729689 
L 126.858495 17.346976 
L 127.308812 16.819402 
L 127.501805 16.854896 
L 127.887791 17.281648 
L 128.46677 17.854697 
L 128.788425 17.93854 
L 129.11008 17.794384 
L 129.496066 17.337652 
L 130.139376 16.54987 
L 130.3967 16.496404 
L 130.654024 16.702276 
L 131.618989 17.888995 
L 131.876313 17.77634 
L 132.197968 17.300408 
L 132.712616 16.505419 
L 132.905609 16.502355 
L 133.098602 16.731453 
L 133.548919 17.828271 
L 133.870574 18.413967 
L 134.063567 18.47156 
L 134.25656 18.290947 
L 134.642546 17.500823 
L 135.157195 16.592433 
L 135.414519 16.530651 
L 135.671843 16.715655 
L 136.186491 17.463887 
L 136.701139 18.068454 
L 137.022794 18.110494 
L 137.344449 17.870531 
L 138.502407 16.65386 
L 138.824062 16.748721 
L 139.210048 17.141887 
L 140.046351 18.043535 
L 140.368006 18.054658 
L 140.689661 17.825682 
L 141.91195 16.648118 
L 142.233605 16.73618 
L 142.683922 17.1399 
L 143.584556 17.988789 
L 144.034874 18.077262 
L 144.485191 17.921099 
L 145.321494 17.313495 
L 146.222128 16.766157 
L 146.865438 16.647424 
L 147.444417 16.760174 
L 148.216389 17.165015 
L 149.760333 18.048551 
L 150.339312 18.098032 
L 151.046953 17.874474 
L 153.105546 17.191788 
L 153.813187 17.200929 
L 155.807448 17.161436 
L 157.351392 17.153979 
L 159.216991 17.069414 
L 160.310618 17.142711 
L 162.883859 17.763455 
L 164.427803 17.386396 
L 166.16474 17.421067 
L 168.223332 17.229195 
L 169.445621 17.066496 
L 170.474918 17.128323 
L 172.018862 17.507055 
L 173.112489 17.653653 
L 174.013123 17.552591 
L 176.264708 17.113367 
L 176.972349 17.380746 
L 177.808652 17.652674 
L 178.3233 17.557922 
L 179.738583 17.089419 
L 180.317562 17.314839 
L 181.089534 17.626853 
L 181.539851 17.573508 
L 182.11883 17.239743 
L 182.890802 16.795085 
L 183.341119 16.792078 
L 183.920098 17.061948 
L 185.013725 17.635294 
L 185.399711 17.515874 
L 185.914359 16.996163 
L 186.364676 16.688719 
L 186.686331 16.750549 
L 187.007986 17.059426 
L 187.715627 17.857001 
L 187.972951 17.780257 
L 188.423269 17.342014 
L 188.809255 17.03648 
L 189.259572 17.01731 
L 191.832812 17.379842 
L 192.218798 17.464145 
L 192.862108 17.31364 
L 193.248094 17.301171 
L 193.698411 17.550967 
L 194.213059 17.786481 
L 194.727707 17.779291 
L 195.113693 17.550052 
L 195.692672 17.143617 
L 196.014327 17.221548 
L 197.558272 17.866752 
L 198.330244 17.432059 
L 198.973554 17.108042 
L 199.616864 17.160954 
L 200.067181 17.369942 
L 200.581829 17.573581 
L 201.096477 17.486557 
L 202.383097 17.097588 
L 202.962076 17.30927 
L 203.798379 17.637529 
L 204.313027 17.56934 
L 205.79264 17.100597 
L 206.435951 17.337936 
L 207.272254 17.632571 
L 207.851233 17.596981 
L 210.360142 17.108942 
L 211.582431 17.367499 
L 213.062044 17.639157 
L 214.220002 17.57976 
L 216.60025 17.313493 
L 218.015532 17.391221 
L 218.53018 17.549556 
L 219.302152 17.853927 
L 220.138455 17.771886 
L 223.355005 17.098949 
L 224.319971 17.350948 
L 226.249901 18.077776 
L 226.957542 17.91012 
L 228.308493 17.276987 
L 228.887472 17.420413 
L 229.723775 17.532956 
L 231.139057 17.61774 
L 231.653705 17.561114 
L 233.647967 17.105633 
L 234.998918 17.291363 
L 236.349869 17.551325 
L 236.349869 17.551325 
" clip-path="url(#p76708281e1)" style="fill: none; stroke: #2ca02c; stroke-width: 0.5; stroke-linecap: square"/>
   </g>
   <g id="line2d_17">
    <path d="M 43.356847 17.364234 
L 55.708401 17.464228 
L 56.223049 17.596065 
L 56.544704 17.478027 
L 57.381007 16.927991 
L 57.831324 17.197581 
L 58.538965 17.62665 
L 58.924951 17.599908 
L 60.14724 17.12199 
L 60.468895 17.298199 
L 61.498191 17.959228 
L 61.691184 17.835419 
L 62.591818 16.807778 
L 62.913473 16.961118 
L 63.878439 17.668111 
L 64.521749 17.789561 
L 64.843404 17.618054 
L 65.808369 16.740261 
L 66.258686 17.154552 
L 66.773334 17.496642 
L 67.545306 17.617042 
L 69.153581 17.204165 
L 70.054215 16.852427 
L 70.37587 16.994037 
L 70.761856 17.473069 
L 71.212173 17.919455 
L 71.533828 17.914522 
L 71.919814 17.630308 
L 72.627456 17.106311 
L 73.013442 17.056882 
L 73.52809 17.256362 
L 74.300062 17.580295 
L 74.81471 17.550405 
L 76.487316 17.174022 
L 78.288584 17.5492 
L 80.347176 17.15137 
L 81.633797 17.420267 
L 82.920417 17.596488 
L 84.014044 17.506223 
L 86.715946 17.135729 
L 87.423587 17.318522 
L 88.774538 17.652334 
L 89.675172 17.457676 
L 90.447145 17.369138 
L 93.792357 17.319619 
L 95.143308 17.158293 
L 95.722287 17.273277 
L 97.073238 17.605291 
L 97.652217 17.426874 
L 98.552851 17.133353 
L 99.324824 17.096437 
L 99.839472 17.336564 
L 100.482782 17.594634 
L 103.442008 17.805558 
L 104.535635 17.580199 
L 105.371938 17.161426 
L 106.208241 16.830559 
L 106.915882 16.784627 
L 107.623523 16.978531 
L 108.910144 17.647034 
L 109.746447 17.939024 
L 110.325426 17.910059 
L 110.904405 17.638992 
L 112.384018 16.773595 
L 112.770004 16.901927 
L 113.284652 17.351403 
L 113.992293 17.923932 
L 114.313948 17.93544 
L 114.699934 17.695297 
L 115.793561 16.777689 
L 116.115216 16.838985 
L 116.565533 17.220931 
L 117.337506 17.948471 
L 117.659161 17.976997 
L 117.980816 17.765086 
L 119.138774 16.640488 
L 119.396098 16.769252 
L 119.910746 17.411803 
L 120.296732 17.691588 
L 120.682718 17.629606 
L 121.45469 17.373689 
L 122.033669 17.62838 
L 122.355324 17.644191 
L 123.062965 17.244676 
L 123.706275 17.035598 
L 123.963599 17.336646 
L 124.478247 18.096496 
L 124.67124 18.037857 
L 124.928564 17.620879 
L 125.507543 16.560468 
L 125.700536 16.551906 
L 125.957861 16.82496 
L 126.858495 18.103227 
L 127.051488 17.951453 
L 127.437474 17.168477 
L 127.759129 16.741102 
L 128.016453 16.783097 
L 128.595432 17.248045 
L 129.496066 18.152135 
L 129.75339 18.064445 
L 130.139376 17.616001 
L 131.04001 16.414093 
L 131.297334 16.703417 
L 131.876313 17.80025 
L 132.262299 18.352156 
L 132.455292 18.243185 
L 132.712616 17.656455 
L 133.291595 16.138891 
L 133.484588 16.107701 
L 133.677581 16.406877 
L 134.578215 18.486195 
L 134.771209 18.426914 
L 135.028533 18.049888 
L 135.800505 16.709931 
L 136.12216 16.568398 
L 136.379484 16.699031 
L 136.76547 17.193736 
L 137.40878 18.020595 
L 137.730435 18.116823 
L 138.05209 17.952706 
L 138.566738 17.335577 
L 139.145717 16.715389 
L 139.467372 16.656955 
L 139.789027 16.846789 
L 140.368006 17.557978 
L 140.882654 18.039867 
L 141.204309 18.059111 
L 141.525964 17.846588 
L 142.876915 16.647171 
L 143.262901 16.766842 
L 143.841881 17.254482 
L 144.678184 17.932539 
L 145.192832 18.079632 
L 145.70748 18.001974 
L 146.415121 17.642447 
L 148.087727 16.704061 
L 148.731037 16.656265 
L 149.374347 16.841363 
L 150.339312 17.39176 
L 151.175615 17.776401 
L 152.14058 17.979829 
L 152.590898 17.838714 
L 153.555863 17.476968 
L 155.228469 17.106335 
L 155.614455 17.231032 
L 156.322096 17.557832 
L 157.351392 17.569448 
L 158.702343 17.326766 
L 159.79597 17.101906 
L 160.760935 16.924345 
L 161.275583 16.997453 
L 162.433542 17.300986 
L 165.006782 17.252092 
L 166.036078 17.252672 
L 168.351994 17.679921 
L 169.38129 17.508108 
L 171.439883 17.07507 
L 172.404848 17.178852 
L 174.978088 17.634495 
L 175.75006 17.425207 
L 176.908018 17.075024 
L 177.422666 17.164854 
L 178.902279 17.637845 
L 179.481259 17.41028 
L 180.317562 17.079348 
L 180.767879 17.141938 
L 181.47552 17.528808 
L 182.11883 17.768546 
L 182.633478 17.702985 
L 183.534112 17.241618 
L 184.306084 16.95158 
L 184.627739 17.082596 
L 185.97869 17.966351 
L 186.300345 17.621145 
L 187.007986 16.793986 
L 187.26531 16.716685 
L 187.458303 16.858355 
L 188.358938 17.956057 
L 188.616262 17.839623 
L 189.452565 17.310805 
L 190.095875 17.227954 
L 190.546192 17.135138 
L 191.382495 17.319329 
L 191.70415 17.247374 
L 192.797777 17.478552 
L 193.827073 16.999891 
L 194.406052 17.346297 
L 195.178024 17.813746 
L 195.435348 17.650289 
L 196.078658 17.080465 
L 197.172286 17.138301 
L 198.201582 17.713222 
L 198.587568 17.58776 
L 199.552533 17.026603 
L 200.131512 16.97271 
L 200.581829 17.268782 
L 201.225139 17.654282 
L 201.675456 17.622568 
L 203.348062 17.121287 
L 204.055703 17.43809 
L 204.699013 17.642344 
L 205.213661 17.548421 
L 206.564613 17.086844 
L 207.143592 17.232984 
L 208.430212 17.639026 
L 209.137853 17.580079 
L 211.904086 17.098096 
L 212.997713 17.296776 
L 214.670319 17.606655 
L 216.407257 17.596389 
L 217.114898 17.455862 
L 218.594511 17.079043 
L 219.237821 17.155811 
L 220.46011 17.197779 
L 222.261378 17.130782 
L 223.612329 16.632184 
L 224.191309 16.446195 
L 224.89895 16.553324 
L 225.349267 16.839203 
L 226.571556 17.800906 
L 227.021873 17.927002 
L 228.501486 17.854668 
L 230.302754 17.644169 
L 231.33205 17.785382 
L 233.261981 17.422432 
L 235.449235 17.133431 
L 236.349869 17.228926 
L 236.349869 17.228926 
" clip-path="url(#p76708281e1)" style="fill: none; stroke: #d62728; stroke-width: 0.5; stroke-linecap: square"/>
   </g>
   <g id="patch_3">
    <path d="M 33.707196 202.559296 
L 33.707196 7.2 
" style="fill: none; stroke: #000000; stroke-width: 0.8; stroke-linejoin: miter; stroke-linecap: square"/>
   </g>
   <g id="patch_4">
    <path d="M 245.99952 202.559296 
L 245.99952 7.2 
" style="fill: none; stroke: #000000; stroke-width: 0.8; stroke-linejoin: miter; stroke-linecap: square"/>
   </g>
   <g id="patch_5">
    <path d="M 33.707196 202.559296 
L 245.99952 202.559296 
" style="fill: none; stroke: #000000; stroke-width: 0.8; stroke-linejoin: miter; stroke-linecap: square"/>
   </g>
   <g id="patch_6">
    <path d="M 33.707196 7.2 
L 245.99952 7.2 
" style="fill: none; stroke: #000000; stroke-width: 0.8; stroke-linejoin: miter; stroke-linecap: square"/>
   </g>
   <g id="legend_1">
    <g id="patch_7">
     <path d="M 193.792605 198.059296 
L 239.69952 198.059296 
Q 241.49952 198.059296 241.49952 196.259296 
L 241.49952 156.760168 
Q 241.49952 154.960168 239.69952 154.960168 
L 193.792605 154.960168 
Q 191.992605 154.960168 191.992605 156.760168 
L 191.992605 196.259296 
Q 191.992605 198.059296 193.792605 198.059296 
z
" style="fill: #ffffff; opacity: 0.8; stroke: #cccccc; stroke-width: 0.24; stroke-linejoin: miter"/>
    </g>
    <g id="line2d_18">
     <path d="M 195.592605 162.13495 
L 204.592605 162.13495 
L 213.592605 162.13495 
" style="fill: none; stroke: #ff7f0e; stroke-width: 0.5; stroke-linecap: square"/>
    </g>
    <g id="text_16">
     <!-- $\langle \sigma_z\rangle$ -->
     <g transform="translate(220.792605 165.28495) scale(0.09 -0.09)">
      <defs>
       <path id="CMSY10-68" d="M 2099 4557 
C 2131 4627 2131 4640 2131 4672 
C 2131 4742 2074 4800 2003 4800 
C 1946 4800 1901 4768 1856 4653 
L 736 1715 
C 723 1677 704 1638 704 1600 
C 704 1581 704 1568 736 1491 
L 1856 -1446 
C 1882 -1517 1914 -1600 2003 -1600 
C 2074 -1600 2131 -1542 2131 -1472 
C 2131 -1453 2131 -1440 2099 -1370 
L 966 1600 
L 2099 4557 
z
" transform="scale(0.015625)"/>
       <path id="CMMI12-1b" d="M 3251 2408 
C 3334 2408 3546 2408 3546 2612 
C 3546 2752 3424 2752 3309 2752 
L 1894 2752 
C 934 2752 243 1686 243 932 
C 243 390 595 -64 1171 -64 
C 1926 -64 2752 747 2752 1705 
C 2752 1954 2694 2196 2541 2408 
L 3251 2408 
z
M 1178 64 
C 851 64 614 313 614 754 
C 614 1137 845 2408 1786 2408 
C 2061 2408 2368 2274 2368 1781 
C 2368 1558 2266 1021 2042 652 
C 1811 275 1466 64 1178 64 
z
" transform="scale(0.015625)"/>
       <path id="CMMI12-7a" d="M 813 486 
C 1088 803 1312 1004 1632 1296 
C 2016 1632 2182 1793 2272 1891 
C 2720 2338 2944 2713 2944 2764 
C 2944 2816 2893 2816 2880 2816 
C 2835 2816 2822 2793 2790 2750 
C 2630 2494 2477 2367 2310 2367 
C 2176 2367 2106 2421 1984 2565 
C 1850 2715 1741 2816 1555 2816 
C 1088 2816 806 2257 806 2128 
C 806 2108 813 2068 870 2068 
C 922 2068 928 2091 947 2133 
C 1056 2372 1363 2414 1485 2414 
C 1619 2414 1747 2376 1882 2327 
C 2125 2240 2227 2240 2291 2240 
C 2336 2240 2362 2240 2394 2246 
C 2182 1994 1837 1683 1549 1418 
L 902 816 
C 512 415 275 33 275 -12 
C 275 -51 307 -64 346 -64 
C 384 -64 390 -57 435 14 
C 538 163 742 384 979 384 
C 1114 384 1178 342 1306 193 
C 1427 61 1536 -64 1741 -64 
C 2368 -64 2726 732 2726 876 
C 2726 903 2720 942 2656 942 
C 2605 942 2598 917 2579 855 
C 2438 488 2061 338 1811 338 
C 1677 338 1549 376 1414 425 
C 1158 512 1088 512 1005 512 
C 941 512 870 512 813 486 
z
" transform="scale(0.015625)"/>
       <path id="CMSY10-69" d="M 1747 1491 
C 1779 1568 1779 1581 1779 1600 
C 1779 1619 1779 1632 1747 1709 
L 627 4653 
C 589 4762 550 4800 480 4800 
C 410 4800 352 4742 352 4672 
C 352 4653 352 4640 384 4570 
L 1517 1600 
L 384 -1357 
C 352 -1427 352 -1440 352 -1472 
C 352 -1542 410 -1600 480 -1600 
C 563 -1600 589 -1536 614 -1472 
L 1747 1491 
z
" transform="scale(0.015625)"/>
      </defs>
      <use xlink:href="#CMSY10-68" transform="scale(0.996264)"/>
      <use xlink:href="#CMMI12-1b" transform="translate(38.743734 0) scale(0.996264)"/>
      <use xlink:href="#CMMI12-7a" transform="translate(94.189195 -14.943915) scale(0.697382)"/>
      <use xlink:href="#CMSY10-69" transform="translate(129.51575 0) scale(0.996264)"/>
     </g>
    </g>
    <g id="line2d_19">
     <path d="M 195.592605 175.601326 
L 204.592605 175.601326 
L 213.592605 175.601326 
" style="fill: none; stroke: #2ca02c; stroke-width: 0.5; stroke-linecap: square"/>
    </g>
    <g id="text_17">
     <!-- $\langle \sigma_x\rangle$ -->
     <g transform="translate(220.792605 178.751326) scale(0.09 -0.09)">
      <defs>
       <path id="CMMI12-78" d="M 3034 2606 
C 2829 2567 2752 2414 2752 2293 
C 2752 2139 2874 2088 2963 2088 
C 3155 2088 3290 2254 3290 2427 
C 3290 2695 2982 2816 2714 2816 
C 2323 2816 2106 2433 2048 2312 
C 1901 2816 1504 2816 1389 2816 
C 736 2816 390 1980 390 1839 
C 390 1814 416 1782 461 1782 
C 512 1782 525 1820 538 1846 
C 755 2555 1184 2689 1370 2689 
C 1658 2689 1715 2420 1715 2267 
C 1715 2127 1677 1980 1600 1673 
L 1382 798 
C 1286 415 1101 64 762 64 
C 730 64 570 64 435 147 
C 666 192 717 383 717 460 
C 717 588 621 664 499 664 
C 346 664 179 530 179 326 
C 179 57 480 -64 755 -64 
C 1062 -64 1280 179 1414 441 
C 1517 64 1837 -64 2074 -64 
C 2726 -64 3072 773 3072 913 
C 3072 945 3046 971 3008 971 
C 2950 971 2944 939 2925 888 
C 2752 326 2381 64 2093 64 
C 1869 64 1747 230 1747 492 
C 1747 632 1773 734 1875 1156 
L 2099 2024 
C 2195 2408 2413 2689 2707 2689 
C 2720 2689 2899 2689 3034 2606 
z
" transform="scale(0.015625)"/>
      </defs>
      <use xlink:href="#CMSY10-68" transform="scale(0.996264)"/>
      <use xlink:href="#CMMI12-1b" transform="translate(38.743734 0) scale(0.996264)"/>
      <use xlink:href="#CMMI12-78" transform="translate(94.189195 -14.943915) scale(0.697382)"/>
      <use xlink:href="#CMSY10-69" transform="translate(133.490986 0) scale(0.996264)"/>
     </g>
    </g>
    <g id="line2d_20">
     <path d="M 195.592605 189.067702 
L 204.592605 189.067702 
L 213.592605 189.067702 
" style="fill: none; stroke: #d62728; stroke-width: 0.5; stroke-linecap: square"/>
    </g>
    <g id="text_18">
     <!-- $\langle \sigma_y\rangle$ -->
     <g transform="translate(220.792605 192.217702) scale(0.09 -0.09)">
      <defs>
       <path id="CMMI12-79" d="M 1683 -700 
C 1510 -939 1261 -1152 947 -1152 
C 870 -1152 563 -1152 467 -889 
C 486 -895 518 -895 531 -895 
C 723 -895 851 -729 851 -582 
C 851 -435 730 -384 634 -384 
C 531 -384 307 -458 307 -759 
C 307 -1071 582 -1286 947 -1286 
C 1587 -1286 2234 -700 2413 6 
L 3040 2485 
C 3046 2517 3059 2556 3059 2594 
C 3059 2689 2982 2753 2886 2753 
C 2829 2753 2694 2727 2643 2535 
L 2170 658 
C 2138 543 2138 530 2086 460 
C 1958 281 1747 64 1440 64 
C 1082 64 1050 415 1050 588 
C 1050 952 1222 1443 1395 1903 
C 1466 2088 1504 2178 1504 2305 
C 1504 2574 1312 2816 998 2816 
C 410 2816 173 1890 173 1839 
C 173 1814 198 1782 243 1782 
C 301 1782 307 1807 333 1897 
C 486 2433 730 2689 979 2689 
C 1037 2689 1146 2689 1146 2478 
C 1146 2312 1075 2127 979 1884 
C 666 1047 666 837 666 683 
C 666 77 1101 -64 1421 -64 
C 1606 -64 1837 -6 2061 230 
L 2067 224 
C 1971 -147 1907 -392 1683 -700 
z
" transform="scale(0.015625)"/>
      </defs>
      <use xlink:href="#CMSY10-68" transform="scale(0.996264)"/>
      <use xlink:href="#CMMI12-1b" transform="translate(38.743734 0) scale(0.996264)"/>
      <use xlink:href="#CMMI12-79" transform="translate(94.189195 -14.943915) scale(0.697382)"/>
      <use xlink:href="#CMSY10-69" transform="translate(130.484301 0) scale(0.996264)"/>
     </g>
    </g>
   </g>
  </g>
 </g>
 <defs>
  <clipPath id="p76708281e1">
   <rect x="33.707196" y="7.2" width="212.292324" height="195.359296"/>
  </clipPath>
 </defs>
</svg>
