<?xml version="1.0" encoding="utf-8" standalone="no"?>
<!DOCTYPE svg PUBLIC "-//W3C//DTD SVG 1.1//EN"
  "http://www.w3.org/Graphics/SVG/1.1/DTD/svg11.dtd">
<svg xmlns:xlink="http://www.w3.org/1999/xlink" width="424.55952pt" height="181.19952pt" viewBox="0 0 424.55952 181.19952" xmlns="http://www.w3.org/2000/svg" version="1.1">
 <metadata>
  <rdf:RDF xmlns:dc="http://purl.org/dc/elements/1.1/" xmlns:cc="http://creativecommons.org/ns#" xmlns:rdf="http://www.w3.org/1999/02/22-rdf-syntax-ns#">
   <cc:Work>
    <dc:type rdf:resource="http://purl.org/dc/dcmitype/StillImage"/>
    <dc:date>1980-01-01T00:00:00+00:00</dc:date>
    <dc:format>image/svg+xml</dc:format>
    <dc:creator>
     <cc:Agent>
      <dc:title>Matplotlib v3.6.2, https://matplotlib.org/</dc:title>
     </cc:Agent>
    </dc:creator>
   </cc:Work>
  </rdf:RDF>
 </metadata>
 <defs>
  <style type="text/css">*{stroke-linejoin: round; stroke-linecap: butt}</style>
 </defs>
 <g id="figure_1">
  <g id="patch_1">
   <path d="M 0 181.19952 
L 424.55952 181.19952 
L 424.55952 0 
L 0 0 
z
" style="fill: #ffffff"/>
  </g>
  <g id="axes_1">
   <g id="patch_2">
    <path d="M 62.137023 137.87484 
L 417.35952 137.87484 
L 417.35952 7.2 
L 62.137023 7.2 
z
" style="fill: #ffffff"/>
   </g>
   <g id="matplotlib.axis_1">
    <g id="xtick_1">
     <g id="line2d_1">
      <defs>
       <path id="m1b7e7fe774" d="M 0 0 
L 0 3.5 
" style="stroke: #000000; stroke-width: 0.8"/>
      </defs>
      <g>
       <use xlink:href="#m1b7e7fe774" x="78.2835" y="137.87484" style="stroke: #000000; stroke-width: 0.8"/>
      </g>
     </g>
     <g id="text_1">
      <!-- $\mathdefault{0}$ -->
      <g transform="translate(75.11313 155.968868) scale(0.13 -0.13)">
       <defs>
        <path id="CMR17-30" d="M 2688 2025 
C 2688 2416 2682 3080 2413 3591 
C 2176 4039 1798 4198 1466 4198 
C 1158 4198 768 4058 525 3597 
C 269 3118 243 2524 243 2025 
C 243 1661 250 1106 448 619 
C 723 -39 1216 -128 1466 -128 
C 1760 -128 2208 -7 2470 600 
C 2662 1042 2688 1559 2688 2025 
z
M 1466 -26 
C 1056 -26 813 325 723 812 
C 653 1188 653 1738 653 2096 
C 653 2588 653 2997 736 3387 
C 858 3929 1216 4096 1466 4096 
C 1728 4096 2067 3923 2189 3400 
C 2272 3036 2278 2607 2278 2096 
C 2278 1680 2278 1169 2202 792 
C 2067 95 1690 -26 1466 -26 
z
" transform="scale(0.015625)"/>
       </defs>
       <use xlink:href="#CMR17-30" transform="scale(0.996264)"/>
      </g>
     </g>
    </g>
    <g id="xtick_2">
     <g id="line2d_2">
      <g>
       <use xlink:href="#m1b7e7fe774" x="123.134825" y="137.87484" style="stroke: #000000; stroke-width: 0.8"/>
      </g>
     </g>
     <g id="text_2">
      <!-- $\mathdefault{25}$ -->
      <g transform="translate(116.794086 155.968868) scale(0.13 -0.13)">
       <defs>
        <path id="CMR17-32" d="M 2669 989 
L 2554 989 
C 2490 536 2438 459 2413 420 
C 2381 369 1920 369 1830 369 
L 602 369 
C 832 619 1280 1072 1824 1597 
C 2214 1967 2669 2402 2669 3035 
C 2669 3790 2067 4224 1395 4224 
C 691 4224 262 3604 262 3030 
C 262 2780 448 2748 525 2748 
C 589 2748 781 2787 781 3010 
C 781 3207 614 3264 525 3264 
C 486 3264 448 3258 422 3245 
C 544 3790 915 4058 1306 4058 
C 1862 4058 2227 3617 2227 3035 
C 2227 2479 1901 2000 1536 1584 
L 262 146 
L 262 0 
L 2515 0 
L 2669 989 
z
" transform="scale(0.015625)"/>
        <path id="CMR17-35" d="M 730 3692 
C 794 3666 1056 3584 1325 3584 
C 1920 3584 2246 3911 2432 4100 
C 2432 4157 2432 4192 2394 4192 
C 2387 4192 2374 4192 2323 4163 
C 2099 4058 1837 3973 1517 3973 
C 1325 3973 1037 3999 723 4139 
C 653 4171 640 4171 634 4171 
C 602 4171 595 4164 595 4037 
L 595 2203 
C 595 2089 595 2057 659 2057 
C 691 2057 704 2070 736 2114 
C 941 2401 1222 2522 1542 2522 
C 1766 2522 2246 2382 2246 1289 
C 2246 1085 2246 715 2054 421 
C 1894 159 1645 25 1370 25 
C 947 25 518 320 403 814 
C 429 807 480 795 506 795 
C 589 795 749 840 749 1038 
C 749 1210 627 1280 506 1280 
C 358 1280 262 1190 262 1011 
C 262 454 704 -128 1382 -128 
C 2042 -128 2669 440 2669 1264 
C 2669 2030 2170 2624 1549 2624 
C 1222 2624 947 2503 730 2274 
L 730 3692 
z
" transform="scale(0.015625)"/>
       </defs>
       <use xlink:href="#CMR17-32" transform="scale(0.996264)"/>
       <use xlink:href="#CMR17-35" transform="translate(45.690477 0) scale(0.996264)"/>
      </g>
     </g>
    </g>
    <g id="xtick_3">
     <g id="line2d_3">
      <g>
       <use xlink:href="#m1b7e7fe774" x="167.986151" y="137.87484" style="stroke: #000000; stroke-width: 0.8"/>
      </g>
     </g>
     <g id="text_3">
      <!-- $\mathdefault{50}$ -->
      <g transform="translate(161.645411 155.968868) scale(0.13 -0.13)">
       <use xlink:href="#CMR17-35" transform="scale(0.996264)"/>
       <use xlink:href="#CMR17-30" transform="translate(45.690477 0) scale(0.996264)"/>
      </g>
     </g>
    </g>
    <g id="xtick_4">
     <g id="line2d_4">
      <g>
       <use xlink:href="#m1b7e7fe774" x="212.837476" y="137.87484" style="stroke: #000000; stroke-width: 0.8"/>
      </g>
     </g>
     <g id="text_4">
      <!-- $\mathdefault{75}$ -->
      <g transform="translate(206.496737 155.968868) scale(0.13 -0.13)">
       <defs>
        <path id="CMR17-37" d="M 2886 3941 
L 2886 4081 
L 1382 4081 
C 634 4081 621 4165 595 4288 
L 480 4288 
L 294 3094 
L 410 3094 
C 429 3215 474 3540 550 3661 
C 589 3712 1062 3712 1171 3712 
L 2579 3712 
L 1869 2661 
C 1395 1954 1069 999 1069 165 
C 1069 89 1069 -128 1299 -128 
C 1530 -128 1530 89 1530 171 
L 1530 465 
C 1530 1508 1709 2196 2003 2636 
L 2886 3941 
z
" transform="scale(0.015625)"/>
       </defs>
       <use xlink:href="#CMR17-37" transform="scale(0.996264)"/>
       <use xlink:href="#CMR17-35" transform="translate(45.690477 0) scale(0.996264)"/>
      </g>
     </g>
    </g>
    <g id="xtick_5">
     <g id="line2d_5">
      <g>
       <use xlink:href="#m1b7e7fe774" x="257.688802" y="137.87484" style="stroke: #000000; stroke-width: 0.8"/>
      </g>
     </g>
     <g id="text_5">
      <!-- $\mathdefault{100}$ -->
      <g transform="translate(248.177692 155.968868) scale(0.13 -0.13)">
       <defs>
        <path id="CMR17-31" d="M 1702 4058 
C 1702 4192 1696 4192 1606 4192 
C 1357 3916 979 3827 621 3827 
C 602 3827 570 3827 563 3808 
C 557 3795 557 3782 557 3648 
C 755 3648 1088 3686 1344 3839 
L 1344 461 
C 1344 236 1331 160 781 160 
L 589 160 
L 589 0 
C 896 0 1216 0 1523 0 
C 1830 0 2150 0 2458 0 
L 2458 160 
L 2266 160 
C 1715 160 1702 230 1702 458 
L 1702 4058 
z
" transform="scale(0.015625)"/>
       </defs>
       <use xlink:href="#CMR17-31" transform="scale(0.996264)"/>
       <use xlink:href="#CMR17-30" transform="translate(45.690477 0) scale(0.996264)"/>
       <use xlink:href="#CMR17-30" transform="translate(91.380954 0) scale(0.996264)"/>
      </g>
     </g>
    </g>
    <g id="xtick_6">
     <g id="line2d_6">
      <g>
       <use xlink:href="#m1b7e7fe774" x="302.540127" y="137.87484" style="stroke: #000000; stroke-width: 0.8"/>
      </g>
     </g>
     <g id="text_6">
      <!-- $\mathdefault{125}$ -->
      <g transform="translate(293.029018 155.968868) scale(0.13 -0.13)">
       <use xlink:href="#CMR17-31" transform="scale(0.996264)"/>
       <use xlink:href="#CMR17-32" transform="translate(45.690477 0) scale(0.996264)"/>
       <use xlink:href="#CMR17-35" transform="translate(91.380954 0) scale(0.996264)"/>
      </g>
     </g>
    </g>
    <g id="xtick_7">
     <g id="line2d_7">
      <g>
       <use xlink:href="#m1b7e7fe774" x="347.391452" y="137.87484" style="stroke: #000000; stroke-width: 0.8"/>
      </g>
     </g>
     <g id="text_7">
      <!-- $\mathdefault{150}$ -->
      <g transform="translate(337.880343 155.968868) scale(0.13 -0.13)">
       <use xlink:href="#CMR17-31" transform="scale(0.996264)"/>
       <use xlink:href="#CMR17-35" transform="translate(45.690477 0) scale(0.996264)"/>
       <use xlink:href="#CMR17-30" transform="translate(91.380954 0) scale(0.996264)"/>
      </g>
     </g>
    </g>
    <g id="xtick_8">
     <g id="line2d_8">
      <g>
       <use xlink:href="#m1b7e7fe774" x="392.242778" y="137.87484" style="stroke: #000000; stroke-width: 0.8"/>
      </g>
     </g>
     <g id="text_8">
      <!-- $\mathdefault{175}$ -->
      <g transform="translate(382.731669 155.968868) scale(0.13 -0.13)">
       <use xlink:href="#CMR17-31" transform="scale(0.996264)"/>
       <use xlink:href="#CMR17-37" transform="translate(45.690477 0) scale(0.996264)"/>
       <use xlink:href="#CMR17-35" transform="translate(91.380954 0) scale(0.996264)"/>
      </g>
     </g>
    </g>
    <g id="text_9">
     <!-- $\tau$ -->
     <g transform="translate(236.994628 171.481208) scale(0.13 -0.13)">
      <defs>
       <path id="CMMI12-1c" d="M 1837 2408 
L 2899 2408 
C 2982 2408 3194 2408 3194 2612 
C 3194 2752 3072 2752 2957 2752 
L 1197 2752 
C 1050 2752 832 2752 538 2440 
C 371 2255 166 1917 166 1879 
C 166 1841 198 1828 237 1828 
C 282 1828 288 1847 320 1885 
C 653 2408 986 2408 1146 2408 
L 1677 2408 
L 1011 223 
C 979 127 979 114 979 95 
C 979 25 1024 -64 1152 -64 
C 1350 -64 1382 108 1402 203 
L 1837 2408 
z
" transform="scale(0.015625)"/>
      </defs>
      <use xlink:href="#CMMI12-1c" transform="scale(0.996264)"/>
     </g>
    </g>
   </g>
   <g id="matplotlib.axis_2">
    <g id="ytick_1">
     <g id="line2d_9">
      <defs>
       <path id="m9adde1f4be" d="M 0 0 
L -3.5 0 
" style="stroke: #000000; stroke-width: 0.8"/>
      </defs>
      <g>
       <use xlink:href="#m9adde1f4be" x="62.137023" y="131.935074" style="stroke: #000000; stroke-width: 0.8"/>
      </g>
     </g>
     <g id="text_10">
      <!-- $\mathdefault{0.000}$ -->
      <g transform="translate(24.151432 136.432088) scale(0.13 -0.13)">
       <defs>
        <path id="CMMI12-3a" d="M 1178 307 
C 1178 492 1024 619 870 619 
C 685 619 557 466 557 313 
C 557 128 710 0 864 0 
C 1050 0 1178 153 1178 307 
z
" transform="scale(0.015625)"/>
       </defs>
       <use xlink:href="#CMR17-30" transform="scale(0.996264)"/>
       <use xlink:href="#CMMI12-3a" transform="translate(45.690477 0) scale(0.996264)"/>
       <use xlink:href="#CMR17-30" transform="translate(72.787654 0) scale(0.996264)"/>
       <use xlink:href="#CMR17-30" transform="translate(118.478131 0) scale(0.996264)"/>
       <use xlink:href="#CMR17-30" transform="translate(164.168608 0) scale(0.996264)"/>
      </g>
     </g>
    </g>
    <g id="ytick_2">
     <g id="line2d_10">
      <g>
       <use xlink:href="#m9adde1f4be" x="62.137023" y="99.700894" style="stroke: #000000; stroke-width: 0.8"/>
      </g>
     </g>
     <g id="text_11">
      <!-- $\mathdefault{0.005}$ -->
      <g transform="translate(24.151432 104.197908) scale(0.13 -0.13)">
       <use xlink:href="#CMR17-30" transform="scale(0.996264)"/>
       <use xlink:href="#CMMI12-3a" transform="translate(45.690477 0) scale(0.996264)"/>
       <use xlink:href="#CMR17-30" transform="translate(72.787654 0) scale(0.996264)"/>
       <use xlink:href="#CMR17-30" transform="translate(118.478131 0) scale(0.996264)"/>
       <use xlink:href="#CMR17-35" transform="translate(164.168608 0) scale(0.996264)"/>
      </g>
     </g>
    </g>
    <g id="ytick_3">
     <g id="line2d_11">
      <g>
       <use xlink:href="#m9adde1f4be" x="62.137023" y="67.466715" style="stroke: #000000; stroke-width: 0.8"/>
      </g>
     </g>
     <g id="text_12">
      <!-- $\mathdefault{0.010}$ -->
      <g transform="translate(24.151432 71.963729) scale(0.13 -0.13)">
       <use xlink:href="#CMR17-30" transform="scale(0.996264)"/>
       <use xlink:href="#CMMI12-3a" transform="translate(45.690477 0) scale(0.996264)"/>
       <use xlink:href="#CMR17-30" transform="translate(72.787654 0) scale(0.996264)"/>
       <use xlink:href="#CMR17-31" transform="translate(118.478131 0) scale(0.996264)"/>
       <use xlink:href="#CMR17-30" transform="translate(164.168608 0) scale(0.996264)"/>
      </g>
     </g>
    </g>
    <g id="ytick_4">
     <g id="line2d_12">
      <g>
       <use xlink:href="#m9adde1f4be" x="62.137023" y="35.232535" style="stroke: #000000; stroke-width: 0.8"/>
      </g>
     </g>
     <g id="text_13">
      <!-- $\mathdefault{0.015}$ -->
      <g transform="translate(24.151432 39.729549) scale(0.13 -0.13)">
       <use xlink:href="#CMR17-30" transform="scale(0.996264)"/>
       <use xlink:href="#CMMI12-3a" transform="translate(45.690477 0) scale(0.996264)"/>
       <use xlink:href="#CMR17-30" transform="translate(72.787654 0) scale(0.996264)"/>
       <use xlink:href="#CMR17-31" transform="translate(118.478131 0) scale(0.996264)"/>
       <use xlink:href="#CMR17-35" transform="translate(164.168608 0) scale(0.996264)"/>
      </g>
     </g>
    </g>
    <g id="text_14">
     <!-- $\Delta||H||/\max||H||$ -->
     <g transform="translate(16.913574 120.849421) rotate(-90) scale(0.13 -0.13)">
      <defs>
       <path id="CMR17-1" d="M 2598 4403 
C 2547 4512 2522 4512 2470 4512 
C 2394 4512 2387 4499 2342 4409 
L 269 109 
C 262 96 237 38 237 32 
C 237 6 243 0 358 0 
L 4576 0 
C 4691 0 4698 6 4698 32 
C 4698 38 4672 96 4666 109 
L 2598 4403 
z
M 2310 4038 
L 4083 358 
L 531 358 
L 2310 4038 
z
" transform="scale(0.015625)"/>
       <path id="CMSY10-6a" d="M 1018 4570 
C 1018 4685 1018 4800 890 4800 
C 762 4800 762 4685 762 4570 
L 762 -1370 
C 762 -1485 762 -1600 890 -1600 
C 1018 -1600 1018 -1485 1018 -1370 
L 1018 4570 
z
" transform="scale(0.015625)"/>
       <path id="CMMI12-48" d="M 4787 3887 
C 4845 4103 4858 4167 5312 4167 
C 5427 4167 5491 4167 5491 4282 
C 5491 4352 5434 4352 5395 4352 
C 5280 4352 5146 4352 5024 4352 
L 4269 4352 
C 4147 4352 4013 4352 3891 4352 
C 3846 4352 3770 4352 3770 4231 
C 3770 4167 3814 4167 3936 4167 
C 4320 4167 4320 4116 4320 4046 
C 4320 4034 4320 3995 4294 3900 
L 3904 2361 
L 1971 2361 
L 2355 3887 
C 2413 4103 2426 4167 2880 4167 
C 2995 4167 3059 4167 3059 4282 
C 3059 4352 3002 4352 2963 4352 
C 2848 4352 2714 4352 2592 4352 
L 1837 4352 
C 1715 4352 1581 4352 1459 4352 
C 1414 4352 1338 4352 1338 4231 
C 1338 4167 1382 4167 1504 4167 
C 1888 4167 1888 4116 1888 4046 
C 1888 4034 1888 3995 1862 3899 
L 998 472 
C 941 249 928 185 486 185 
C 339 185 294 185 294 64 
C 294 0 365 0 384 0 
C 499 0 634 0 755 0 
L 1510 0 
C 1632 0 1766 0 1888 0 
C 1939 0 2010 0 2010 121 
C 2010 185 1952 185 1856 185 
C 1466 185 1466 236 1466 300 
C 1466 307 1466 351 1478 402 
L 1920 2176 
L 3859 2176 
C 3750 1753 3424 416 3411 376 
C 3341 185 3238 185 2861 185 
C 2784 185 2726 185 2726 64 
C 2726 0 2797 0 2816 0 
C 2931 0 3066 0 3187 0 
L 3942 0 
C 4064 0 4198 0 4320 0 
C 4371 0 4442 0 4442 121 
C 4442 185 4384 185 4288 185 
C 3898 185 3898 236 3898 300 
C 3898 307 3898 351 3910 402 
L 4787 3887 
z
" transform="scale(0.015625)"/>
       <path id="CMMI12-3d" d="M 2746 4562 
C 2746 4569 2784 4666 2784 4678 
C 2784 4755 2720 4800 2669 4800 
C 2637 4800 2579 4800 2528 4659 
L 384 -1363 
C 384 -1370 346 -1465 346 -1478 
C 346 -1555 410 -1600 461 -1600 
C 499 -1600 557 -1593 602 -1459 
L 2746 4562 
z
" transform="scale(0.015625)"/>
       <path id="CMR17-6d" d="M 4326 1933 
C 4326 2252 4269 2790 3507 2790 
C 3072 2790 2771 2496 2656 2151 
L 2650 2151 
C 2573 2676 2195 2790 1837 2790 
C 1331 2790 1069 2400 973 2144 
L 966 2144 
L 966 2790 
L 211 2720 
L 211 2554 
C 589 2554 646 2515 646 2208 
L 646 428 
C 646 184 621 153 211 153 
L 211 -13 
C 365 0 646 0 813 0 
C 979 0 1267 0 1421 -13 
L 1421 153 
C 1011 153 986 178 986 428 
L 986 1658 
C 986 2247 1344 2688 1792 2688 
C 2266 2688 2317 2266 2317 1958 
L 2317 428 
C 2317 184 2291 153 1882 153 
L 1882 -13 
C 2035 0 2317 0 2483 0 
C 2650 0 2938 0 3091 -13 
L 3091 153 
C 2682 153 2656 178 2656 428 
L 2656 1658 
C 2656 2247 3014 2688 3462 2688 
C 3936 2688 3987 2266 3987 1958 
L 3987 428 
C 3987 184 3962 153 3552 153 
L 3552 -13 
C 3706 0 3987 0 4154 0 
C 4320 0 4608 0 4762 -13 
L 4762 153 
C 4352 153 4326 178 4326 428 
L 4326 1933 
z
" transform="scale(0.015625)"/>
       <path id="CMR17-61" d="M 2304 1653 
C 2304 2072 2304 2294 2035 2543 
C 1798 2752 1523 2816 1306 2816 
C 800 2816 435 2407 435 1971 
C 435 1728 627 1728 666 1728 
C 749 1728 896 1778 896 1954 
C 896 2112 774 2181 666 2181 
C 640 2181 608 2174 589 2168 
C 723 2592 1069 2714 1293 2714 
C 1613 2714 1965 2429 1965 1885 
L 1965 1600 
C 1587 1600 1133 1549 774 1357 
C 371 1133 256 813 256 570 
C 256 77 832 -64 1171 -64 
C 1523 -64 1850 139 1990 511 
C 2003 233 2182 -18 2464 -18 
C 2598 -18 2938 70 2938 567 
L 2938 920 
L 2822 920 
L 2822 562 
C 2822 178 2650 128 2566 128 
C 2304 128 2304 458 2304 738 
L 2304 1653 
z
M 1965 870 
C 1965 317 1568 38 1216 38 
C 896 38 646 275 646 570 
C 646 761 730 1100 1101 1305 
C 1408 1478 1760 1504 1965 1504 
L 1965 870 
z
" transform="scale(0.015625)"/>
       <path id="CMR17-78" d="M 1664 1477 
C 1856 1726 2074 2006 2253 2216 
C 2464 2458 2707 2560 2989 2560 
L 2989 2726 
C 2880 2726 2656 2726 2541 2726 
C 2368 2726 2170 2726 2022 2732 
L 2022 2566 
C 2112 2553 2163 2489 2163 2400 
C 2163 2285 2099 2215 2067 2171 
L 1594 1573 
L 1030 2306 
C 973 2376 973 2388 973 2420 
C 973 2497 1037 2560 1146 2560 
L 1146 2732 
C 992 2726 717 2726 557 2726 
C 384 2726 179 2726 38 2732 
L 38 2560 
C 384 2560 461 2534 614 2343 
L 1350 1395 
C 1363 1382 1395 1344 1395 1325 
C 1395 1299 838 619 768 530 
C 480 185 179 160 6 160 
L 6 0 
C 115 0 339 0 454 0 
C 582 0 864 0 979 -6 
L 979 160 
C 941 166 838 179 838 325 
C 838 440 890 510 947 586 
L 1478 1236 
L 2035 512 
C 2086 442 2163 346 2163 301 
C 2163 211 2086 160 1984 160 
L 1984 -6 
C 2138 0 2413 0 2573 0 
C 2746 0 2950 0 3091 -6 
L 3091 160 
C 2771 160 2675 172 2522 370 
L 1664 1477 
z
" transform="scale(0.015625)"/>
      </defs>
      <use xlink:href="#CMR17-1" transform="scale(0.996264)"/>
      <use xlink:href="#CMSY10-6a" transform="translate(76.91959 0) scale(0.996264)"/>
      <use xlink:href="#CMSY10-6a" transform="translate(104.593675 0) scale(0.996264)"/>
      <use xlink:href="#CMMI12-48" transform="translate(132.267759 0) scale(0.996264)"/>
      <use xlink:href="#CMSY10-6a" transform="translate(220.789532 0) scale(0.996264)"/>
      <use xlink:href="#CMSY10-6a" transform="translate(248.463617 0) scale(0.996264)"/>
      <use xlink:href="#CMMI12-3d" transform="translate(276.137701 0) scale(0.996264)"/>
      <use xlink:href="#CMR17-6d" transform="translate(341.517025 0) scale(0.996264)"/>
      <use xlink:href="#CMR17-61" transform="translate(418.436615 0) scale(0.996264)"/>
      <use xlink:href="#CMR17-78" transform="translate(464.127092 0) scale(0.996264)"/>
      <use xlink:href="#CMSY10-6a" transform="translate(529.024413 0) scale(0.996264)"/>
      <use xlink:href="#CMSY10-6a" transform="translate(556.698498 0) scale(0.996264)"/>
      <use xlink:href="#CMMI12-48" transform="translate(584.372583 0) scale(0.996264)"/>
      <use xlink:href="#CMSY10-6a" transform="translate(672.894356 0) scale(0.996264)"/>
      <use xlink:href="#CMSY10-6a" transform="translate(700.56844 0) scale(0.996264)"/>
     </g>
    </g>
   </g>
   <g id="line2d_13">
    <path d="M 78.2835 131.935074 
L 78.60643 131.602881 
L 78.929359 131.287949 
L 79.144645 131.301381 
L 79.467575 131.641938 
L 79.682861 131.934763 
L 80.113434 131.493605 
L 80.759293 131.079582 
L 81.189866 130.256034 
L 81.620439 129.51339 
L 81.943368 129.294909 
L 82.589227 129.112066 
L 83.34273 128.406043 
L 83.880945 128.628581 
L 84.096232 128.256952 
L 84.849734 126.239492 
L 85.06502 126.217935 
L 85.603236 126.525163 
L 85.818523 126.120886 
L 86.464382 124.493089 
L 86.572025 124.511028 
L 86.787311 124.869913 
L 87.217884 126.317849 
L 87.863743 128.675359 
L 88.07903 128.86247 
L 88.294316 128.647495 
L 89.155461 127.058923 
L 89.370748 127.090841 
L 90.231893 127.806948 
L 90.554823 127.691647 
L 90.877752 127.309393 
L 91.523611 126.275916 
L 91.738898 126.273108 
L 92.061827 126.647013 
L 92.600043 127.33198 
L 92.922973 127.344161 
L 93.676475 127.072428 
L 95.075836 127.178066 
L 95.614052 126.659054 
L 95.936982 126.433696 
L 96.259911 126.495977 
L 96.582841 126.893705 
L 97.336343 128.032936 
L 97.551629 128.087363 
L 97.766916 127.960845 
L 98.520418 127.216744 
L 98.735704 127.324889 
L 99.59685 128.180397 
L 99.812136 127.961966 
L 100.135066 127.079926 
L 100.673282 125.470593 
L 100.780925 125.433877 
L 100.996211 125.789976 
L 101.857357 128.414129 
L 102.072643 127.735737 
L 102.503216 124.412652 
L 103.364361 118.055153 
L 103.687291 116.494948 
L 103.902577 116.094001 
L 104.117863 116.203415 
L 104.548436 116.85162 
L 104.656079 116.836657 
L 104.871366 116.44194 
L 105.301938 114.726638 
L 106.055441 111.124948 
L 106.270727 110.974952 
L 106.486013 111.64224 
L 106.808943 114.049414 
L 107.670088 120.93661 
L 108.531234 127.947951 
L 109.06945 131.858467 
L 109.500023 130.643736 
L 109.715309 130.650445 
L 110.038238 131.039622 
L 110.145882 131.003717 
L 110.361168 130.460782 
L 110.791741 129.15426 
L 110.899384 129.21565 
L 111.222313 130.143913 
L 111.545243 130.732977 
L 111.652886 130.677995 
L 111.868173 130.154646 
L 112.191102 128.49023 
L 113.052247 123.505527 
L 113.375177 122.846273 
L 114.128679 122.284947 
L 114.343966 122.695867 
L 114.666895 124.489789 
L 115.635684 131.51453 
L 116.066257 128.228681 
L 116.281543 127.588751 
L 116.496829 127.507573 
L 116.819759 127.96977 
L 117.035045 128.216687 
L 117.142688 128.171043 
L 117.357975 127.571398 
L 117.788547 124.902995 
L 118.21912 122.776422 
L 118.434407 122.359463 
L 118.54205 122.327697 
L 118.757336 122.608305 
L 118.972622 123.320361 
L 119.295552 125.298204 
L 120.049054 130.985373 
L 120.264341 131.166764 
L 120.479627 130.757904 
L 120.802557 129.569243 
L 121.878988 124.851587 
L 122.309561 124.355851 
L 122.524847 124.341761 
L 122.95542 124.570702 
L 123.063063 124.44669 
L 123.27835 123.657849 
L 123.708922 120.213746 
L 124.139495 117.004162 
L 124.462425 116.025988 
L 124.677711 115.987978 
L 125.000641 116.368714 
L 126.077072 117.844413 
L 126.292359 117.861905 
L 126.615288 117.554887 
L 127.045861 117.108277 
L 127.368791 117.034069 
L 127.907006 117.191216 
L 128.660509 117.377228 
L 131.997447 117.453991 
L 142.22355 117.44666 
L 168.380842 117.511027 
L 169.134345 117.739507 
L 169.457274 117.569579 
L 170.103133 117.126801 
L 170.426063 117.201922 
L 171.502495 117.764582 
L 171.825424 117.443946 
L 172.471283 116.68888 
L 172.794213 116.663542 
L 173.117142 116.967514 
L 173.440072 117.662017 
L 174.516504 120.78405 
L 174.73179 120.775001 
L 175.05472 120.440471 
L 176.131152 118.622586 
L 176.561724 117.315315 
L 177.315227 114.751301 
L 177.638156 114.221845 
L 177.853442 114.152963 
L 178.284015 114.40285 
L 178.929874 114.644402 
L 179.46809 114.697229 
L 180.544522 114.513251 
L 181.082738 114.975909 
L 181.943883 115.701136 
L 182.482099 116.192181 
L 183.343245 117.383646 
L 183.558531 117.191303 
L 183.989104 116.173426 
L 184.419676 115.381831 
L 184.957892 114.987167 
L 185.496108 114.792976 
L 186.464897 114.677498 
L 187.110756 114.256557 
L 187.541329 114.109732 
L 188.294831 113.608106 
L 188.617761 113.907977 
L 188.94069 114.14687 
L 189.155976 113.980528 
L 189.478906 113.148171 
L 190.017122 111.410698 
L 190.232408 111.303934 
L 190.447695 111.640422 
L 190.878267 112.96179 
L 191.847056 116.102141 
L 192.062342 116.076444 
L 192.708201 115.691593 
L 193.031131 115.399176 
L 193.67699 114.382292 
L 193.892276 114.467819 
L 194.215206 114.739428 
L 194.430492 114.557125 
L 194.753422 113.49577 
L 195.291638 111.560212 
L 195.506924 111.318848 
L 195.72221 111.488216 
L 195.937497 112.085302 
L 196.906285 115.791132 
L 197.121572 115.800688 
L 197.444501 115.415182 
L 197.875074 114.894834 
L 198.305647 114.895301 
L 198.628576 114.788931 
L 199.920295 113.887852 
L 200.45851 113.569424 
L 200.889083 113.386123 
L 201.534942 113.39866 
L 201.965515 113.633982 
L 202.503731 113.944731 
L 202.82666 113.924104 
L 203.364876 113.619451 
L 204.118379 112.91464 
L 204.548951 112.616695 
L 205.087167 112.556374 
L 205.410097 112.695925 
L 205.733026 113.121618 
L 206.378885 114.146799 
L 206.594172 114.071149 
L 207.240031 113.247019 
L 207.455317 113.82363 
L 207.88589 115.519971 
L 208.101176 115.622444 
L 208.854679 114.675324 
L 209.069965 114.507192 
L 209.392894 113.682729 
L 209.715824 113.10972 
L 209.93111 113.317455 
L 210.361683 114.471743 
L 211.115185 117.119118 
L 211.545758 119.309238 
L 212.62219 125.526238 
L 213.375692 128.222881 
L 213.590978 128.391462 
L 213.698622 128.173864 
L 213.913908 126.958639 
L 214.344481 121.988082 
L 214.882697 115.687987 
L 215.205626 113.803018 
L 216.282058 109.927927 
L 216.712631 108.011154 
L 216.820274 107.957594 
L 217.03556 108.424494 
L 218.111992 112.798226 
L 218.542565 114.971323 
L 218.757851 115.32442 
L 219.296067 115.557208 
L 219.511353 116.116062 
L 219.834283 117.799065 
L 220.480142 121.680964 
L 220.695428 121.844536 
L 220.910715 121.946769 
L 221.126001 122.560616 
L 221.556574 125.239572 
L 222.202433 129.089624 
L 222.417719 129.408062 
L 222.633006 128.925585 
L 223.494151 125.631252 
L 223.709437 125.427047 
L 224.247653 125.250941 
L 224.570583 124.581128 
L 225.001156 123.629151 
L 225.216442 123.519739 
L 225.969944 123.720703 
L 226.400517 124.186229 
L 226.615803 124.67042 
L 226.938733 126.076017 
L 227.692235 130.8734 
L 227.799878 131.742061 
L 228.015165 130.261258 
L 228.445737 127.258102 
L 228.661024 126.759518 
L 228.768667 126.790557 
L 228.983953 127.233288 
L 229.414526 128.189503 
L 229.629812 128.26198 
L 230.060385 128.188417 
L 230.275672 128.433097 
L 230.813887 129.772692 
L 231.459747 131.022888 
L 231.675033 130.986737 
L 231.997962 130.214424 
L 232.320892 129.513726 
L 232.536178 129.503085 
L 233.397324 130.266005 
L 233.720253 130.167343 
L 234.366112 129.73443 
L 234.581399 129.831123 
L 234.904328 130.241111 
L 235.765474 131.536271 
L 235.98076 131.517336 
L 236.411333 131.121602 
L 236.949549 130.725759 
L 237.595408 130.625341 
L 239.640628 130.613694 
L 249.759087 130.620984 
L 275.055235 130.527825 
L 276.346953 130.247913 
L 277.315742 129.579774 
L 277.638671 129.807448 
L 278.069244 130.515921 
L 278.822746 131.896578 
L 279.253319 130.839964 
L 280.222107 127.985713 
L 280.437394 128.184841 
L 280.760323 129.143791 
L 281.513826 131.722594 
L 282.052042 130.066271 
L 282.590257 129.168501 
L 283.236117 128.361314 
L 283.451403 128.413819 
L 283.666689 128.830556 
L 283.989619 130.107275 
L 284.312548 131.830009 
L 285.066051 129.408129 
L 285.38898 128.995321 
L 285.71191 127.865035 
L 286.573055 123.825564 
L 286.895985 123.358625 
L 287.111271 123.309915 
L 287.326557 123.459616 
L 287.649487 124.076232 
L 288.187703 125.25684 
L 288.510632 125.453507 
L 288.941205 125.640912 
L 289.371778 126.19364 
L 290.12528 127.431936 
L 290.340566 127.294888 
L 290.663496 126.539677 
L 291.416998 124.309517 
L 292.601073 122.605081 
L 292.81636 122.86042 
L 293.139289 123.743086 
L 294.215721 127.419093 
L 294.431007 127.090621 
L 294.753937 125.889273 
L 295.292153 122.878486 
L 295.938012 119.27878 
L 296.260941 118.528948 
L 296.476228 118.505724 
L 296.691514 118.894953 
L 297.445016 120.907461 
L 298.198519 121.811987 
L 299.167307 123.209047 
L 299.382594 123.045038 
L 299.59788 122.476912 
L 300.028453 120.364541 
L 300.997241 115.00261 
L 301.320171 114.188774 
L 301.535457 114.078604 
L 302.073673 114.093507 
L 302.28896 113.868131 
L 303.473035 112.065663 
L 304.226537 111.257783 
L 304.441823 111.390519 
L 304.764753 111.658651 
L 304.980039 111.453731 
L 305.302969 110.366023 
L 305.733541 108.829315 
L 305.948828 108.600704 
L 306.164114 108.794791 
L 306.487044 109.633928 
L 307.132903 111.429352 
L 307.348189 111.654594 
L 307.563475 111.631632 
L 307.886405 111.233815 
L 308.532264 110.346339 
L 308.855194 110.232943 
L 309.285766 110.388687 
L 310.039269 111.018763 
L 310.792771 111.748693 
L 311.1157 111.680304 
L 311.869203 111.077372 
L 312.192132 110.582844 
L 312.622705 109.33113 
L 313.376207 106.880847 
L 313.699137 106.306649 
L 313.80678 106.267284 
L 314.022066 106.585939 
L 314.344996 107.966286 
L 314.775569 109.802403 
L 314.990855 110.071762 
L 315.098498 109.99266 
L 315.313784 109.417004 
L 315.636714 107.699281 
L 316.282573 103.912607 
L 316.497859 103.662593 
L 316.713146 104.142041 
L 317.251362 106.826467 
L 318.004864 110.319647 
L 318.22015 110.656504 
L 318.327794 110.549077 
L 318.54308 109.800025 
L 319.188939 106.709811 
L 319.296582 106.677119 
L 319.511869 107.117491 
L 319.942441 109.087138 
L 320.373014 110.952976 
L 320.480657 111.033953 
L 320.5883 110.906792 
L 320.803587 110.161559 
L 321.664732 105.52812 
L 322.418234 101.274756 
L 322.633521 100.776231 
L 322.741164 100.745765 
L 322.95645 101.090416 
L 323.709953 103.221053 
L 323.817596 103.134836 
L 324.032882 102.360979 
L 324.678741 98.820816 
L 324.786384 98.737747 
L 325.001671 99.052007 
L 325.539887 100.279072 
L 326.293389 101.281458 
L 326.616318 101.086376 
L 327.154534 100.379998 
L 327.908037 99.500417 
L 328.123323 99.525984 
L 328.338609 99.916556 
L 329.199755 102.031415 
L 329.415041 102.099473 
L 329.630328 101.752483 
L 330.0609 100.110202 
L 330.922046 96.401317 
L 331.567905 95.442603 
L 331.998478 94.010915 
L 332.644337 90.883249 
L 333.290196 87.889984 
L 333.505482 87.780877 
L 334.043698 88.616139 
L 334.258984 88.388348 
L 334.7972 87.518674 
L 335.012487 87.261939 
L 335.227773 86.639664 
L 335.658346 85.199178 
L 335.765989 85.354364 
L 335.981275 86.665957 
L 336.734777 93.070343 
L 336.842421 93.208589 
L 336.950064 93.123246 
L 337.16535 92.467983 
L 337.595923 90.18766 
L 338.564712 84.679437 
L 338.779998 84.244995 
L 338.995284 84.235979 
L 339.748787 84.961883 
L 339.964073 84.687622 
L 340.932862 82.603278 
L 341.363434 82.500026 
L 341.686364 82.691485 
L 342.332223 83.238941 
L 342.655152 83.243826 
L 342.978082 82.968543 
L 343.839227 81.943436 
L 344.162157 81.878971 
L 345.776805 81.98625 
L 347.391452 81.946314 
L 358.693986 81.940073 
L 384.097777 82.033149 
L 385.389495 82.421114 
L 386.465927 82.352864 
L 386.681213 82.025799 
L 387.004143 81.078443 
L 387.650002 78.935684 
L 387.865288 78.779862 
L 388.080575 79.027489 
L 388.403504 79.987166 
L 388.94172 81.685619 
L 389.157007 81.857461 
L 389.372293 81.677906 
L 389.695222 80.921161 
L 390.341082 79.25566 
L 390.556368 79.207179 
L 390.879297 79.612848 
L 391.30987 80.106105 
L 391.525157 80.069316 
L 392.278659 79.698003 
L 392.601588 79.761436 
L 392.924518 80.194398 
L 393.785663 81.772244 
L 394.00095 81.865832 
L 394.216236 81.736851 
L 394.431522 81.338192 
L 395.292668 79.043424 
L 395.400311 79.120768 
L 395.615597 79.677079 
L 396.907316 84.535273 
L 397.122602 84.681297 
L 397.445532 84.580787 
L 397.983747 84.064526 
L 398.41432 83.323321 
L 398.844893 82.110928 
L 399.383109 80.447316 
L 399.598395 80.220226 
L 399.813682 80.340845 
L 400.136611 81.118028 
L 400.890113 84.013381 
L 401.213043 85.695137 
L 401.213043 85.695137 
" clip-path="url(#p34445269b1)" style="fill: none; stroke: #1f77b4; stroke-linecap: square"/>
   </g>
   <g id="line2d_14">
    <path d="M 78.2835 131.935074 
L 87.863743 131.875954 
L 88.186673 131.533925 
L 88.509602 130.838681 
L 89.047818 129.450554 
L 89.263105 129.451 
L 89.478391 129.884861 
L 90.016607 131.199811 
L 90.12425 131.222037 
L 90.339536 130.87504 
L 90.662466 129.396982 
L 91.200682 126.614317 
L 91.308325 126.568758 
L 91.415968 126.85598 
L 91.631254 128.369288 
L 91.954184 131.823823 
L 92.384757 129.457883 
L 92.600043 129.384262 
L 92.815329 129.758794 
L 93.461189 131.226884 
L 93.676475 131.096103 
L 93.891761 130.493879 
L 94.53762 127.901105 
L 94.645264 127.920964 
L 94.86055 128.477758 
L 95.398766 130.424249 
L 95.506409 130.494366 
L 95.614052 130.353188 
L 95.829339 129.34115 
L 96.152268 126.133976 
L 96.798127 119.229586 
L 97.013414 118.703725 
L 97.121057 118.813551 
L 97.336343 119.550196 
L 98.089845 122.938943 
L 98.305132 123.346881 
L 98.520418 123.357628 
L 98.950991 123.032201 
L 99.166277 123.466549 
L 99.489207 125.038557 
L 100.350352 129.438815 
L 100.565639 130.071538 
L 100.673282 130.077207 
L 100.888568 129.333245 
L 101.749713 124.313403 
L 101.965 124.263259 
L 102.180286 124.70187 
L 102.503216 126.055082 
L 102.933788 129.066809 
L 103.256718 131.804473 
L 103.579648 129.821349 
L 103.687291 129.718963 
L 103.794934 129.93617 
L 104.117863 131.883897 
L 104.440793 130.388116 
L 104.548436 130.396061 
L 104.871366 131.499453 
L 105.517225 125.59516 
L 105.732511 124.942544 
L 105.947798 124.908993 
L 106.163084 125.245627 
L 106.486013 126.160801 
L 107.131873 128.366055 
L 107.562445 128.865564 
L 107.993018 129.495187 
L 108.315948 130.251968 
L 108.638877 131.643617 
L 108.74652 131.583094 
L 109.284736 128.467147 
L 109.392379 128.252458 
L 109.500023 128.289579 
L 109.715309 129.159031 
L 110.038238 131.686213 
L 110.145882 131.409825 
L 110.361168 130.461239 
L 110.576454 130.244795 
L 110.791741 130.109579 
L 111.007027 129.341628 
L 111.4376 125.781854 
L 111.760529 123.906545 
L 111.975816 123.718684 
L 112.191102 124.08403 
L 112.514032 125.272256 
L 112.944604 128.029752 
L 113.590463 131.908908 
L 113.913393 131.060134 
L 114.021036 130.992558 
L 114.128679 131.058953 
L 114.451609 131.796493 
L 114.989825 129.535121 
L 115.420397 128.872509 
L 115.635684 127.770458 
L 116.389186 121.249875 
L 117.788547 107.84365 
L 118.003834 107.431698 
L 118.111477 107.446774 
L 118.326763 107.80127 
L 118.649693 109.043105 
L 118.972622 111.390538 
L 119.510838 117.650608 
L 120.049054 123.418824 
L 120.371984 124.768138 
L 120.694913 125.154658 
L 120.9102 125.416892 
L 121.233129 126.312688 
L 121.556059 127.075155 
L 121.663702 127.101377 
L 121.878988 126.698414 
L 122.201918 125.08405 
L 122.740134 120.859175 
L 123.27835 114.444426 
L 123.708922 109.886341 
L 123.924209 109.084951 
L 124.031852 109.0628 
L 124.247138 109.520977 
L 125.108284 112.648231 
L 125.215927 112.604512 
L 125.431213 112.152685 
L 126.400002 109.537285 
L 126.507645 109.446801 
L 126.615288 109.531744 
L 126.830575 110.302893 
L 128.122293 117.292865 
L 128.337579 117.545296 
L 128.552866 117.377678 
L 128.983438 116.372558 
L 129.736941 114.577793 
L 130.05987 114.24193 
L 130.3828 114.193716 
L 131.997447 114.434551 
L 133.073879 114.430558 
L 140.285972 114.503712 
L 140.824188 114.812236 
L 142.761765 116.599579 
L 143.407625 117.721855 
L 143.622911 117.777513 
L 143.838197 117.603541 
L 144.161127 117.024553 
L 144.5917 115.70081 
L 145.560488 112.239635 
L 145.883418 111.750864 
L 146.098704 111.740509 
L 146.31399 112.014588 
L 146.744563 113.17588 
L 147.390422 114.96474 
L 147.605709 114.977155 
L 147.820995 114.536469 
L 148.251568 112.690406 
L 149.112713 108.622012 
L 149.650929 106.857202 
L 149.973859 106.384342 
L 150.512074 105.98395 
L 151.05029 105.120015 
L 151.157934 105.156823 
L 151.37322 105.605171 
L 152.234365 108.407625 
L 152.449652 108.163091 
L 153.41844 106.01507 
L 153.956656 103.863973 
L 154.387229 102.485783 
L 154.602515 102.273898 
L 154.817802 102.353823 
L 155.356018 102.795018 
L 155.571304 102.708048 
L 155.894234 102.294454 
L 157.185952 100.287341 
L 157.508881 99.836682 
L 157.939454 98.763772 
L 158.585313 96.358038 
L 159.554102 92.594652 
L 159.877031 92.019109 
L 160.092318 91.922115 
L 160.415247 92.095702 
L 160.84582 92.716313 
L 161.706965 94.160353 
L 161.922252 94.000413 
L 162.245181 93.215288 
L 162.998683 91.11425 
L 163.429256 90.731481 
L 163.859829 90.242065 
L 164.182758 89.548393 
L 164.720974 87.665303 
L 166.335622 81.723256 
L 166.550908 81.487372 
L 166.766195 81.620523 
L 167.196768 82.497129 
L 167.734983 83.448802 
L 168.919058 84.79406 
L 169.241988 84.793874 
L 169.780204 84.685424 
L 170.31842 84.858372 
L 170.641349 84.670751 
L 171.394852 84.174448 
L 171.717781 84.266503 
L 172.040711 84.404813 
L 172.255997 84.236374 
L 172.578927 83.40344 
L 173.117142 81.939339 
L 173.332429 81.863022 
L 173.547715 82.062213 
L 173.978288 82.953743 
L 174.516504 84.056372 
L 174.947077 84.35525 
L 175.377649 84.63772 
L 176.238795 85.479671 
L 176.561724 85.442333 
L 177.530513 85.068623 
L 177.961086 85.07017 
L 178.391658 84.790296 
L 179.360447 83.973923 
L 179.683376 84.413672 
L 180.113949 85.120942 
L 180.329236 85.176107 
L 180.652165 84.880265 
L 181.190381 84.325941 
L 181.620954 84.268276 
L 182.15917 84.361667 
L 182.482099 84.637571 
L 183.020315 85.219331 
L 183.235601 85.245433 
L 183.558531 85.039918 
L 184.096747 84.665037 
L 184.634963 84.640232 
L 186.141967 84.674894 
L 194.215206 84.724076 
L 194.645779 84.968351 
L 195.076351 85.226317 
L 195.291638 85.146865 
L 195.614567 84.638649 
L 196.152783 83.692642 
L 196.36807 83.760761 
L 196.583356 84.171294 
L 196.906285 85.478109 
L 197.444501 88.962978 
L 197.875074 93.086974 
L 198.41329 98.782794 
L 198.628576 99.56284 
L 198.73622 99.512531 
L 198.951506 98.689502 
L 199.597365 95.338562 
L 199.920295 94.777003 
L 200.243224 94.304211 
L 200.566154 93.312788 
L 201.427299 89.266432 
L 201.642585 89.831294 
L 202.396088 93.186623 
L 202.611374 93.220144 
L 202.82666 92.816646 
L 203.14959 91.337171 
L 204.871881 79.156643 
L 205.733026 70.505338 
L 205.948313 69.907213 
L 206.055956 69.991414 
L 206.378885 71.04032 
L 206.809458 73.051029 
L 207.132388 75.776402 
L 207.778247 81.689067 
L 207.993533 81.962945 
L 208.208819 81.497099 
L 208.531749 80.731666 
L 208.854679 80.592907 
L 209.069965 80.384591 
L 209.392894 79.517062 
L 209.715824 78.71181 
L 209.93111 78.630027 
L 210.146397 79.04657 
L 210.469326 80.681327 
L 211.222829 85.658913 
L 211.976331 88.469302 
L 212.514547 91.668604 
L 212.729833 92.205549 
L 212.837476 92.209426 
L 213.052763 91.596207 
L 213.375692 89.375058 
L 214.021551 82.705289 
L 214.66741 76.651983 
L 215.205626 74.004454 
L 215.851485 70.86647 
L 216.604988 66.697091 
L 216.927917 66.240488 
L 217.250847 66.21657 
L 217.573776 66.538602 
L 218.004349 67.040613 
L 218.327278 67.097731 
L 218.865494 67.027489 
L 219.080781 67.401308 
L 219.511353 69.090926 
L 220.157213 71.40888 
L 220.372499 71.619985 
L 220.587785 71.295725 
L 220.803072 70.908713 
L 220.910715 70.926955 
L 221.126001 71.650345 
L 222.525363 80.002666 
L 222.848292 80.526802 
L 223.386508 81.190807 
L 223.817081 81.74547 
L 223.924724 81.704074 
L 224.14001 81.195193 
L 224.46294 79.372704 
L 224.785869 77.577405 
L 224.893512 77.350708 
L 225.001156 77.384569 
L 225.216442 78.169033 
L 226.292874 84.268873 
L 226.723447 85.406114 
L 227.799878 89.742334 
L 228.122808 90.350526 
L 228.445737 91.667877 
L 229.306883 96.22532 
L 229.845099 97.387742 
L 229.952742 97.418529 
L 230.060385 97.275378 
L 230.275672 96.413144 
L 231.029174 92.057455 
L 231.24446 91.815897 
L 231.459747 91.965585 
L 231.675033 92.526146 
L 232.105606 94.766705 
L 232.428535 95.895828 
L 232.643822 95.885274 
L 233.93554 94.367171 
L 234.258469 94.460705 
L 234.581399 94.570624 
L 234.796685 94.373836 
L 235.011971 93.700731 
L 235.765474 90.125998 
L 235.98076 90.139896 
L 236.841906 91.011485 
L 237.272478 91.035605 
L 239.425342 90.729305 
L 245.883933 90.724334 
L 248.575012 90.849417 
L 249.005585 91.110765 
L 249.328515 91.662211 
L 250.297303 93.987898 
L 250.51259 93.846794 
L 250.835519 93.056667 
L 251.696665 90.567964 
L 252.019594 90.318695 
L 252.23488 90.487814 
L 252.88074 91.610574 
L 252.988383 91.565373 
L 253.203669 91.064406 
L 253.526599 89.413634 
L 254.280101 85.297256 
L 255.033603 83.221994 
L 256.217678 79.911415 
L 256.325321 79.932122 
L 256.540608 80.343916 
L 256.863537 81.79862 
L 257.724683 86.337962 
L 257.939969 86.54807 
L 258.155255 86.110834 
L 258.478185 84.443937 
L 259.124044 80.780371 
L 259.33933 80.5575 
L 259.554617 80.882438 
L 260.631049 83.511179 
L 260.953978 83.856819 
L 261.169264 83.82454 
L 261.384551 83.496223 
L 261.815124 82.230863 
L 262.568626 79.561199 
L 263.106842 76.156997 
L 263.645058 73.355346 
L 263.967987 72.757275 
L 264.183274 72.812147 
L 264.39856 73.229699 
L 264.721489 74.440823 
L 265.582635 78.3123 
L 265.797921 78.501568 
L 266.013208 78.247097 
L 266.336137 77.188356 
L 267.627855 71.694362 
L 267.843142 71.532621 
L 268.166071 71.603852 
L 268.596644 71.687701 
L 268.81193 71.512479 
L 269.13486 70.78572 
L 269.673076 68.522831 
L 270.103648 67.01556 
L 270.426578 66.605135 
L 271.718296 66.221046 
L 272.041226 66.306695 
L 272.902371 66.794942 
L 273.225301 66.575408 
L 273.978803 65.788328 
L 274.301733 65.798511 
L 275.055235 66.174388 
L 275.378164 66.587504 
L 275.91638 67.34158 
L 276.131667 67.356243 
L 276.885169 66.881286 
L 277.208098 66.483517 
L 277.531028 65.71559 
L 278.499817 62.978823 
L 279.899178 60.926347 
L 280.114464 61.125437 
L 280.437394 61.879269 
L 281.298539 64.458344 
L 281.513826 64.531246 
L 282.159685 64.337731 
L 282.913187 64.857758 
L 283.128473 64.480667 
L 283.451403 63.309517 
L 284.420192 59.256194 
L 284.635478 59.015033 
L 284.850764 59.153615 
L 285.173694 59.931481 
L 286.034839 62.409531 
L 286.250126 62.397381 
L 286.465412 61.992968 
L 286.895985 60.432259 
L 287.434201 58.522176 
L 287.864773 57.753071 
L 288.618276 56.931654 
L 288.833562 57.077236 
L 289.156492 57.828667 
L 289.694707 59.109533 
L 289.909994 59.190386 
L 290.232923 58.929168 
L 290.878782 58.314724 
L 291.524641 58.117268 
L 292.385787 58.103721 
L 302.073673 58.225604 
L 302.504246 58.295229 
L 303.042462 58.198165 
L 303.257748 58.498296 
L 303.688321 59.356374 
L 303.903607 59.328436 
L 304.226537 58.66864 
L 304.549466 58.230862 
L 304.65711 58.344934 
L 304.872396 59.180295 
L 305.195325 61.942943 
L 305.948828 69.122384 
L 306.164114 69.680359 
L 306.3794 69.591962 
L 306.809973 69.182017 
L 307.02526 69.355895 
L 307.563475 70.231706 
L 307.886405 70.184335 
L 308.101691 70.209178 
L 308.639907 70.737672 
L 308.74755 70.600354 
L 308.962837 69.765441 
L 309.931625 64.116335 
L 310.577485 61.921954 
L 311.869203 56.535058 
L 311.976846 56.51142 
L 312.192132 56.861014 
L 312.622705 58.468368 
L 313.053278 59.795903 
L 313.160921 59.873331 
L 313.268564 59.790873 
L 313.48385 58.973954 
L 313.80678 55.724107 
L 314.667925 44.605089 
L 315.098498 42.194152 
L 315.529071 40.72582 
L 315.744357 40.499606 
L 315.959644 40.663727 
L 316.282573 41.430976 
L 316.605503 42.837656 
L 318.327794 52.105513 
L 318.650723 53.309587 
L 318.758366 53.381762 
L 318.866009 53.244621 
L 319.081296 52.419866 
L 319.511869 50.260148 
L 319.619512 50.101433 
L 319.727155 50.27632 
L 319.942441 51.808148 
L 320.803587 61.048442 
L 320.91123 60.925964 
L 321.126516 59.881262 
L 321.557089 55.775148 
L 321.987662 51.925509 
L 322.418234 50.132489 
L 322.741164 48.887259 
L 323.171737 46.139593 
L 323.925239 41.516581 
L 324.786384 36.556311 
L 325.432243 32.522192 
L 325.862816 31.442926 
L 326.831605 29.482716 
L 327.262178 27.236177 
L 327.585107 25.698333 
L 327.800393 25.444125 
L 328.01568 26.000286 
L 328.338609 28.136566 
L 328.984468 33.37748 
L 329.307398 34.176848 
L 329.737971 34.473865 
L 330.0609 35.266707 
L 330.706759 37.707142 
L 331.783191 43.071859 
L 332.213764 43.764403 
L 332.644337 44.486018 
L 332.859623 44.49584 
L 333.074909 44.270016 
L 334.151341 42.499754 
L 334.581914 42.361479 
L 334.7972 41.982979 
L 335.012487 41.126935 
L 335.765989 36.599216 
L 335.873632 36.771302 
L 336.088918 37.867916 
L 336.627134 41.093577 
L 336.734777 41.289429 
L 336.842421 41.254415 
L 337.057707 40.558079 
L 337.703566 36.568783 
L 338.134139 33.414962 
L 338.672355 27.298586 
L 339.102927 23.252803 
L 339.425857 22.062195 
L 339.5335 22.002016 
L 339.748787 22.304004 
L 340.394646 23.720229 
L 340.717575 23.993633 
L 340.932862 23.86962 
L 341.363434 23.237265 
L 341.471077 23.296562 
L 341.686364 23.908964 
L 342.978082 29.829868 
L 343.193368 29.941945 
L 343.408655 29.503778 
L 344.377443 26.17135 
L 344.59273 26.213275 
L 345.561518 26.966577 
L 347.822025 26.82746 
L 355.249405 26.937703 
L 355.895264 27.050398 
L 356.218193 26.893671 
L 356.864052 26.225996 
L 357.402268 25.527275 
L 357.832841 24.425919 
L 358.263414 23.301852 
L 358.4787 23.244062 
L 358.693986 23.538415 
L 359.232202 24.45951 
L 359.555132 24.61457 
L 359.985705 24.79213 
L 360.416277 24.979396 
L 360.631564 24.787332 
L 361.16978 23.979725 
L 361.277423 24.012299 
L 361.492709 24.458339 
L 361.815639 26.086908 
L 362.89207 32.960245 
L 363.215 33.482331 
L 363.645573 33.655577 
L 363.968502 33.551947 
L 364.183789 33.250857 
L 364.506718 32.271449 
L 365.475507 28.300797 
L 366.121366 27.523595 
L 366.982511 25.322098 
L 367.197798 25.794025 
L 367.520727 27.422112 
L 368.058943 30.271741 
L 368.381873 30.887679 
L 368.597159 30.887061 
L 369.027732 30.473359 
L 369.565948 29.616874 
L 370.427093 28.005834 
L 371.072952 27.372557 
L 372.579957 24.91361 
L 372.795243 25.122155 
L 373.548745 26.490702 
L 373.764032 26.38208 
L 374.302248 25.909092 
L 374.517534 26.04989 
L 374.948107 26.932988 
L 375.271036 27.402399 
L 375.486323 27.371695 
L 376.132182 26.852729 
L 376.455111 27.038363 
L 376.885684 27.310422 
L 377.10097 27.176983 
L 377.531543 26.400061 
L 377.962116 25.795385 
L 378.177402 25.763709 
L 378.500332 26.011616 
L 379.361477 27.009 
L 379.576763 26.961997 
L 379.899693 26.548118 
L 382.052557 22.288233 
L 382.483129 21.898548 
L 382.806059 21.857264 
L 383.128988 22.079631 
L 383.667204 22.528271 
L 383.882491 22.497675 
L 384.20542 22.113314 
L 384.635993 21.039488 
L 385.281852 19.332903 
L 385.497138 19.222555 
L 385.712425 19.32573 
L 386.035354 19.746851 
L 386.8965 21.165534 
L 387.542359 21.519541 
L 387.757645 21.435279 
L 387.972932 21.099949 
L 388.295861 20.168986 
L 389.372293 16.360116 
L 389.587579 16.598313 
L 390.341082 18.178458 
L 390.556368 18.048789 
L 390.879297 17.217643 
L 391.955729 13.490973 
L 392.171016 13.328988 
L 392.386302 13.422142 
L 392.924518 13.83393 
L 393.139804 13.681762 
L 393.67802 13.139765 
L 393.893307 13.238536 
L 394.969738 14.273153 
L 395.507954 14.668261 
L 395.938527 15.328196 
L 396.584386 16.48719 
L 396.799672 16.475504 
L 397.122602 16.049489 
L 398.41432 13.94858 
L 398.73725 13.740416 
L 399.167822 13.72815 
L 400.136611 13.753566 
L 401.213043 13.76082 
L 401.213043 13.76082 
" clip-path="url(#p34445269b1)" style="fill: none; stroke: #ff7f0e; stroke-linecap: square"/>
   </g>
   <g id="patch_3">
    <path d="M 62.137023 137.87484 
L 62.137023 7.2 
" style="fill: none; stroke: #000000; stroke-width: 0.8; stroke-linejoin: miter; stroke-linecap: square"/>
   </g>
   <g id="patch_4">
    <path d="M 417.35952 137.87484 
L 417.35952 7.2 
" style="fill: none; stroke: #000000; stroke-width: 0.8; stroke-linejoin: miter; stroke-linecap: square"/>
   </g>
   <g id="patch_5">
    <path d="M 62.137023 137.87484 
L 417.35952 137.87484 
" style="fill: none; stroke: #000000; stroke-width: 0.8; stroke-linejoin: miter; stroke-linecap: square"/>
   </g>
   <g id="patch_6">
    <path d="M 62.137023 7.2 
L 417.35952 7.2 
" style="fill: none; stroke: #000000; stroke-width: 0.8; stroke-linejoin: miter; stroke-linecap: square"/>
   </g>
  </g>
 </g>
 <defs>
  <clipPath id="p34445269b1">
   <rect x="62.137023" y="7.2" width="355.222497" height="130.67484"/>
  </clipPath>
 </defs>
</svg>
