<?xml version="1.0" encoding="utf-8" standalone="no"?>
<!DOCTYPE svg PUBLIC "-//W3C//DTD SVG 1.1//EN"
  "http://www.w3.org/Graphics/SVG/1.1/DTD/svg11.dtd">
<svg xmlns:xlink="http://www.w3.org/1999/xlink" width="253.19952pt" height="238.79952pt" viewBox="0 0 253.19952 238.79952" xmlns="http://www.w3.org/2000/svg" version="1.1">
 <metadata>
  <rdf:RDF xmlns:dc="http://purl.org/dc/elements/1.1/" xmlns:cc="http://creativecommons.org/ns#" xmlns:rdf="http://www.w3.org/1999/02/22-rdf-syntax-ns#">
   <cc:Work>
    <dc:type rdf:resource="http://purl.org/dc/dcmitype/StillImage"/>
    <dc:date>1980-01-01T00:00:00+00:00</dc:date>
    <dc:format>image/svg+xml</dc:format>
    <dc:creator>
     <cc:Agent>
      <dc:title>Matplotlib v3.6.2, https://matplotlib.org/</dc:title>
     </cc:Agent>
    </dc:creator>
   </cc:Work>
  </rdf:RDF>
 </metadata>
 <defs>
  <style type="text/css">*{stroke-linejoin: round; stroke-linecap: butt}</style>
 </defs>
 <g id="figure_1">
  <g id="patch_1">
   <path d="M 0 238.79952 
L 253.19952 238.79952 
L 253.19952 0 
L 0 0 
z
" style="fill: #ffffff"/>
  </g>
  <g id="axes_1">
   <g id="patch_2">
    <path d="M 33.707196 202.559296 
L 245.99952 202.559296 
L 245.99952 7.2 
L 33.707196 7.2 
z
" style="fill: #ffffff"/>
   </g>
   <g id="matplotlib.axis_1">
    <g id="xtick_1">
     <g id="line2d_1">
      <defs>
       <path id="m51189612dc" d="M 0 0 
L 0 3.5 
" style="stroke: #000000; stroke-width: 0.8"/>
      </defs>
      <g>
       <use xlink:href="#m51189612dc" x="43.356847" y="202.559296" style="stroke: #000000; stroke-width: 0.8"/>
      </g>
     </g>
     <g id="text_1">
      <!-- $\mathdefault{0}$ -->
      <g transform="translate(41.239756 217.194098) scale(0.08 -0.08)">
       <defs>
        <path id="CMR17-30" d="M 2688 2025 
C 2688 2416 2682 3080 2413 3591 
C 2176 4039 1798 4198 1466 4198 
C 1158 4198 768 4058 525 3597 
C 269 3118 243 2524 243 2025 
C 243 1661 250 1106 448 619 
C 723 -39 1216 -128 1466 -128 
C 1760 -128 2208 -7 2470 600 
C 2662 1042 2688 1559 2688 2025 
z
M 1466 -26 
C 1056 -26 813 325 723 812 
C 653 1188 653 1738 653 2096 
C 653 2588 653 2997 736 3387 
C 858 3929 1216 4096 1466 4096 
C 1728 4096 2067 3923 2189 3400 
C 2272 3036 2278 2607 2278 2096 
C 2278 1680 2278 1169 2202 792 
C 2067 95 1690 -26 1466 -26 
z
" transform="scale(0.015625)"/>
       </defs>
       <use xlink:href="#CMR17-30" transform="scale(0.996264)"/>
      </g>
     </g>
    </g>
    <g id="xtick_2">
     <g id="line2d_2">
      <g>
       <use xlink:href="#m51189612dc" x="70.161434" y="202.559296" style="stroke: #000000; stroke-width: 0.8"/>
      </g>
     </g>
     <g id="text_2">
      <!-- $\mathdefault{25}$ -->
      <g transform="translate(65.927251 217.194098) scale(0.08 -0.08)">
       <defs>
        <path id="CMR17-32" d="M 2669 989 
L 2554 989 
C 2490 536 2438 459 2413 420 
C 2381 369 1920 369 1830 369 
L 602 369 
C 832 619 1280 1072 1824 1597 
C 2214 1967 2669 2402 2669 3035 
C 2669 3790 2067 4224 1395 4224 
C 691 4224 262 3604 262 3030 
C 262 2780 448 2748 525 2748 
C 589 2748 781 2787 781 3010 
C 781 3207 614 3264 525 3264 
C 486 3264 448 3258 422 3245 
C 544 3790 915 4058 1306 4058 
C 1862 4058 2227 3617 2227 3035 
C 2227 2479 1901 2000 1536 1584 
L 262 146 
L 262 0 
L 2515 0 
L 2669 989 
z
" transform="scale(0.015625)"/>
        <path id="CMR17-35" d="M 730 3692 
C 794 3666 1056 3584 1325 3584 
C 1920 3584 2246 3911 2432 4100 
C 2432 4157 2432 4192 2394 4192 
C 2387 4192 2374 4192 2323 4163 
C 2099 4058 1837 3973 1517 3973 
C 1325 3973 1037 3999 723 4139 
C 653 4171 640 4171 634 4171 
C 602 4171 595 4164 595 4037 
L 595 2203 
C 595 2089 595 2057 659 2057 
C 691 2057 704 2070 736 2114 
C 941 2401 1222 2522 1542 2522 
C 1766 2522 2246 2382 2246 1289 
C 2246 1085 2246 715 2054 421 
C 1894 159 1645 25 1370 25 
C 947 25 518 320 403 814 
C 429 807 480 795 506 795 
C 589 795 749 840 749 1038 
C 749 1210 627 1280 506 1280 
C 358 1280 262 1190 262 1011 
C 262 454 704 -128 1382 -128 
C 2042 -128 2669 440 2669 1264 
C 2669 2030 2170 2624 1549 2624 
C 1222 2624 947 2503 730 2274 
L 730 3692 
z
" transform="scale(0.015625)"/>
       </defs>
       <use xlink:href="#CMR17-32" transform="scale(0.996264)"/>
       <use xlink:href="#CMR17-35" transform="translate(45.690477 0) scale(0.996264)"/>
      </g>
     </g>
    </g>
    <g id="xtick_3">
     <g id="line2d_3">
      <g>
       <use xlink:href="#m51189612dc" x="96.96602" y="202.559296" style="stroke: #000000; stroke-width: 0.8"/>
      </g>
     </g>
     <g id="text_3">
      <!-- $\mathdefault{50}$ -->
      <g transform="translate(92.731837 217.194098) scale(0.08 -0.08)">
       <use xlink:href="#CMR17-35" transform="scale(0.996264)"/>
       <use xlink:href="#CMR17-30" transform="translate(45.690477 0) scale(0.996264)"/>
      </g>
     </g>
    </g>
    <g id="xtick_4">
     <g id="line2d_4">
      <g>
       <use xlink:href="#m51189612dc" x="123.770606" y="202.559296" style="stroke: #000000; stroke-width: 0.8"/>
      </g>
     </g>
     <g id="text_4">
      <!-- $\mathdefault{75}$ -->
      <g transform="translate(119.536423 217.194098) scale(0.08 -0.08)">
       <defs>
        <path id="CMR17-37" d="M 2886 3941 
L 2886 4081 
L 1382 4081 
C 634 4081 621 4165 595 4288 
L 480 4288 
L 294 3094 
L 410 3094 
C 429 3215 474 3540 550 3661 
C 589 3712 1062 3712 1171 3712 
L 2579 3712 
L 1869 2661 
C 1395 1954 1069 999 1069 165 
C 1069 89 1069 -128 1299 -128 
C 1530 -128 1530 89 1530 171 
L 1530 465 
C 1530 1508 1709 2196 2003 2636 
L 2886 3941 
z
" transform="scale(0.015625)"/>
       </defs>
       <use xlink:href="#CMR17-37" transform="scale(0.996264)"/>
       <use xlink:href="#CMR17-35" transform="translate(45.690477 0) scale(0.996264)"/>
      </g>
     </g>
    </g>
    <g id="xtick_5">
     <g id="line2d_5">
      <g>
       <use xlink:href="#m51189612dc" x="150.575193" y="202.559296" style="stroke: #000000; stroke-width: 0.8"/>
      </g>
     </g>
     <g id="text_5">
      <!-- $\mathdefault{100}$ -->
      <g transform="translate(144.223918 217.194098) scale(0.08 -0.08)">
       <defs>
        <path id="CMR17-31" d="M 1702 4058 
C 1702 4192 1696 4192 1606 4192 
C 1357 3916 979 3827 621 3827 
C 602 3827 570 3827 563 3808 
C 557 3795 557 3782 557 3648 
C 755 3648 1088 3686 1344 3839 
L 1344 461 
C 1344 236 1331 160 781 160 
L 589 160 
L 589 0 
C 896 0 1216 0 1523 0 
C 1830 0 2150 0 2458 0 
L 2458 160 
L 2266 160 
C 1715 160 1702 230 1702 458 
L 1702 4058 
z
" transform="scale(0.015625)"/>
       </defs>
       <use xlink:href="#CMR17-31" transform="scale(0.996264)"/>
       <use xlink:href="#CMR17-30" transform="translate(45.690477 0) scale(0.996264)"/>
       <use xlink:href="#CMR17-30" transform="translate(91.380954 0) scale(0.996264)"/>
      </g>
     </g>
    </g>
    <g id="xtick_6">
     <g id="line2d_6">
      <g>
       <use xlink:href="#m51189612dc" x="177.379779" y="202.559296" style="stroke: #000000; stroke-width: 0.8"/>
      </g>
     </g>
     <g id="text_6">
      <!-- $\mathdefault{125}$ -->
      <g transform="translate(171.028505 217.194098) scale(0.08 -0.08)">
       <use xlink:href="#CMR17-31" transform="scale(0.996264)"/>
       <use xlink:href="#CMR17-32" transform="translate(45.690477 0) scale(0.996264)"/>
       <use xlink:href="#CMR17-35" transform="translate(91.380954 0) scale(0.996264)"/>
      </g>
     </g>
    </g>
    <g id="xtick_7">
     <g id="line2d_7">
      <g>
       <use xlink:href="#m51189612dc" x="204.184365" y="202.559296" style="stroke: #000000; stroke-width: 0.8"/>
      </g>
     </g>
     <g id="text_7">
      <!-- $\mathdefault{150}$ -->
      <g transform="translate(197.833091 217.194098) scale(0.08 -0.08)">
       <use xlink:href="#CMR17-31" transform="scale(0.996264)"/>
       <use xlink:href="#CMR17-35" transform="translate(45.690477 0) scale(0.996264)"/>
       <use xlink:href="#CMR17-30" transform="translate(91.380954 0) scale(0.996264)"/>
      </g>
     </g>
    </g>
    <g id="xtick_8">
     <g id="line2d_8">
      <g>
       <use xlink:href="#m51189612dc" x="230.988952" y="202.559296" style="stroke: #000000; stroke-width: 0.8"/>
      </g>
     </g>
     <g id="text_8">
      <!-- $\mathdefault{175}$ -->
      <g transform="translate(224.637677 217.194098) scale(0.08 -0.08)">
       <use xlink:href="#CMR17-31" transform="scale(0.996264)"/>
       <use xlink:href="#CMR17-37" transform="translate(45.690477 0) scale(0.996264)"/>
       <use xlink:href="#CMR17-35" transform="translate(91.380954 0) scale(0.996264)"/>
      </g>
     </g>
    </g>
    <g id="text_9">
     <!-- $\tau$ -->
     <g transform="translate(137.675756 229.662342) scale(0.1 -0.1)">
      <defs>
       <path id="CMMI12-1c" d="M 1837 2408 
L 2899 2408 
C 2982 2408 3194 2408 3194 2612 
C 3194 2752 3072 2752 2957 2752 
L 1197 2752 
C 1050 2752 832 2752 538 2440 
C 371 2255 166 1917 166 1879 
C 166 1841 198 1828 237 1828 
C 282 1828 288 1847 320 1885 
C 653 2408 986 2408 1146 2408 
L 1677 2408 
L 1011 223 
C 979 127 979 114 979 95 
C 979 25 1024 -64 1152 -64 
C 1350 -64 1382 108 1402 203 
L 1837 2408 
z
" transform="scale(0.015625)"/>
      </defs>
      <use xlink:href="#CMMI12-1c" transform="scale(0.996264)"/>
     </g>
    </g>
   </g>
   <g id="matplotlib.axis_2">
    <g id="ytick_1">
     <g id="line2d_9">
      <defs>
       <path id="m34736479fc" d="M 0 0 
L -3.5 0 
" style="stroke: #000000; stroke-width: 0.8"/>
      </defs>
      <g>
       <use xlink:href="#m34736479fc" x="33.707196" y="193.679328" style="stroke: #000000; stroke-width: 0.8"/>
      </g>
     </g>
     <g id="text_10">
      <!-- $\mathdefault{−1.0}$ -->
      <g transform="translate(7.2 196.446729) scale(0.08 -0.08)">
       <defs>
        <path id="CMSY10-0" d="M 4218 1472 
C 4326 1472 4442 1472 4442 1600 
C 4442 1728 4326 1728 4218 1728 
L 755 1728 
C 646 1728 531 1728 531 1600 
C 531 1472 646 1472 755 1472 
L 4218 1472 
z
" transform="scale(0.015625)"/>
        <path id="CMMI12-3a" d="M 1178 307 
C 1178 492 1024 619 870 619 
C 685 619 557 466 557 313 
C 557 128 710 0 864 0 
C 1050 0 1178 153 1178 307 
z
" transform="scale(0.015625)"/>
       </defs>
       <use xlink:href="#CMSY10-0" transform="scale(0.996264)"/>
       <use xlink:href="#CMR17-31" transform="translate(77.487468 0) scale(0.996264)"/>
       <use xlink:href="#CMMI12-3a" transform="translate(123.177945 0) scale(0.996264)"/>
       <use xlink:href="#CMR17-30" transform="translate(150.275122 0) scale(0.996264)"/>
      </g>
     </g>
    </g>
    <g id="ytick_2">
     <g id="line2d_10">
      <g>
       <use xlink:href="#m34736479fc" x="33.707196" y="158.365546" style="stroke: #000000; stroke-width: 0.8"/>
      </g>
     </g>
     <g id="text_11">
      <!-- $\mathdefault{−0.8}$ -->
      <g transform="translate(7.2 161.132946) scale(0.08 -0.08)">
       <defs>
        <path id="CMR17-38" d="M 1741 2264 
C 2144 2467 2554 2773 2554 3263 
C 2554 3841 1990 4179 1472 4179 
C 890 4179 378 3759 378 3180 
C 378 3021 416 2747 666 2505 
C 730 2442 998 2251 1171 2130 
C 883 1983 211 1634 211 934 
C 211 279 838 -128 1459 -128 
C 2144 -128 2720 362 2720 1010 
C 2720 1590 2330 1857 2074 2029 
L 1741 2264 
z
M 902 2822 
C 851 2854 595 3051 595 3351 
C 595 3739 998 4032 1459 4032 
C 1965 4032 2336 3676 2336 3262 
C 2336 2669 1670 2331 1638 2331 
C 1632 2331 1626 2331 1574 2370 
L 902 2822 
z
M 2080 1519 
C 2176 1449 2483 1240 2483 851 
C 2483 381 2010 25 1472 25 
C 890 25 448 438 448 940 
C 448 1443 838 1862 1280 2060 
L 2080 1519 
z
" transform="scale(0.015625)"/>
       </defs>
       <use xlink:href="#CMSY10-0" transform="scale(0.996264)"/>
       <use xlink:href="#CMR17-30" transform="translate(77.487468 0) scale(0.996264)"/>
       <use xlink:href="#CMMI12-3a" transform="translate(123.177945 0) scale(0.996264)"/>
       <use xlink:href="#CMR17-38" transform="translate(150.275122 0) scale(0.996264)"/>
      </g>
     </g>
    </g>
    <g id="ytick_3">
     <g id="line2d_11">
      <g>
       <use xlink:href="#m34736479fc" x="33.707196" y="123.051763" style="stroke: #000000; stroke-width: 0.8"/>
      </g>
     </g>
     <g id="text_12">
      <!-- $\mathdefault{−0.6}$ -->
      <g transform="translate(7.2 125.819164) scale(0.08 -0.08)">
       <defs>
        <path id="CMR17-36" d="M 678 2176 
C 678 3690 1395 4032 1811 4032 
C 1946 4032 2272 4009 2400 3776 
C 2298 3776 2106 3776 2106 3553 
C 2106 3381 2246 3323 2336 3323 
C 2394 3323 2566 3348 2566 3560 
C 2566 3954 2246 4179 1805 4179 
C 1043 4179 243 3390 243 1984 
C 243 253 966 -128 1478 -128 
C 2099 -128 2688 427 2688 1283 
C 2688 2081 2170 2662 1517 2662 
C 1126 2662 838 2407 678 1960 
L 678 2176 
z
M 1478 25 
C 691 25 691 1200 691 1436 
C 691 1896 909 2560 1504 2560 
C 1613 2560 1926 2560 2138 2120 
C 2253 1870 2253 1609 2253 1289 
C 2253 944 2253 690 2118 434 
C 1978 171 1773 25 1478 25 
z
" transform="scale(0.015625)"/>
       </defs>
       <use xlink:href="#CMSY10-0" transform="scale(0.996264)"/>
       <use xlink:href="#CMR17-30" transform="translate(77.487468 0) scale(0.996264)"/>
       <use xlink:href="#CMMI12-3a" transform="translate(123.177945 0) scale(0.996264)"/>
       <use xlink:href="#CMR17-36" transform="translate(150.275122 0) scale(0.996264)"/>
      </g>
     </g>
    </g>
    <g id="ytick_4">
     <g id="line2d_12">
      <g>
       <use xlink:href="#m34736479fc" x="33.707196" y="87.737981" style="stroke: #000000; stroke-width: 0.8"/>
      </g>
     </g>
     <g id="text_13">
      <!-- $\mathdefault{−0.4}$ -->
      <g transform="translate(7.2 90.505382) scale(0.08 -0.08)">
       <defs>
        <path id="CMR17-34" d="M 2150 4122 
C 2150 4256 2144 4256 2029 4256 
L 128 1254 
L 128 1088 
L 1779 1088 
L 1779 457 
C 1779 224 1766 160 1318 160 
L 1197 160 
L 1197 0 
C 1402 0 1747 0 1965 0 
C 2182 0 2528 0 2733 0 
L 2733 160 
L 2611 160 
C 2163 160 2150 224 2150 457 
L 2150 1088 
L 2803 1088 
L 2803 1254 
L 2150 1254 
L 2150 4122 
z
M 1798 3703 
L 1798 1254 
L 256 1254 
L 1798 3703 
z
" transform="scale(0.015625)"/>
       </defs>
       <use xlink:href="#CMSY10-0" transform="scale(0.996264)"/>
       <use xlink:href="#CMR17-30" transform="translate(77.487468 0) scale(0.996264)"/>
       <use xlink:href="#CMMI12-3a" transform="translate(123.177945 0) scale(0.996264)"/>
       <use xlink:href="#CMR17-34" transform="translate(150.275122 0) scale(0.996264)"/>
      </g>
     </g>
    </g>
    <g id="ytick_5">
     <g id="line2d_13">
      <g>
       <use xlink:href="#m34736479fc" x="33.707196" y="52.424199" style="stroke: #000000; stroke-width: 0.8"/>
      </g>
     </g>
     <g id="text_14">
      <!-- $\mathdefault{−0.2}$ -->
      <g transform="translate(7.2 55.1916) scale(0.08 -0.08)">
       <use xlink:href="#CMSY10-0" transform="scale(0.996264)"/>
       <use xlink:href="#CMR17-30" transform="translate(77.487468 0) scale(0.996264)"/>
       <use xlink:href="#CMMI12-3a" transform="translate(123.177945 0) scale(0.996264)"/>
       <use xlink:href="#CMR17-32" transform="translate(150.275122 0) scale(0.996264)"/>
      </g>
     </g>
    </g>
    <g id="ytick_6">
     <g id="line2d_14">
      <g>
       <use xlink:href="#m34736479fc" x="33.707196" y="17.110416" style="stroke: #000000; stroke-width: 0.8"/>
      </g>
     </g>
     <g id="text_15">
      <!-- $\mathdefault{0.0}$ -->
      <g transform="translate(13.786507 19.877817) scale(0.08 -0.08)">
       <use xlink:href="#CMR17-30" transform="scale(0.996264)"/>
       <use xlink:href="#CMMI12-3a" transform="translate(45.690477 0) scale(0.996264)"/>
       <use xlink:href="#CMR17-30" transform="translate(72.787654 0) scale(0.996264)"/>
      </g>
     </g>
    </g>
   </g>
   <g id="line2d_15">
    <path d="M 43.356847 193.679328 
L 52.749174 193.576085 
L 53.070829 193.347705 
L 53.392484 192.821175 
L 53.714139 191.781527 
L 54.035794 189.969144 
L 54.42178 186.397598 
L 54.872098 179.909698 
L 55.451077 168.016864 
L 56.480373 140.98407 
L 57.574 114.581841 
L 58.345972 100.665936 
L 59.117944 90.536005 
L 59.825585 84.017959 
L 60.79055 77.305213 
L 61.819846 71.629381 
L 62.527487 68.858745 
L 63.235128 67.163207 
L 65.22939 63.15184 
L 65.8727 62.049502 
L 66.644672 61.25385 
L 66.966327 61.286733 
L 67.352313 61.32867 
L 67.738299 61.104751 
L 68.44594 60.659348 
L 68.831926 60.661849 
L 69.475236 60.898817 
L 70.633194 62.221811 
L 71.212173 63.164622 
L 72.048476 64.378677 
L 72.820449 65.420203 
L 73.399428 65.846749 
L 74.042738 66.005184 
L 75.329358 66.056186 
L 86.072636 66.155042 
L 86.522953 66.438931 
L 86.844608 66.891229 
L 87.166263 67.694398 
L 87.552249 69.300474 
L 88.002566 72.219999 
L 88.581545 77.563229 
L 89.353517 86.886706 
L 91.219117 110.095072 
L 92.312744 120.327687 
L 93.084716 125.756093 
L 93.921019 129.963121 
L 94.692991 133.012003 
L 95.593625 135.713123 
L 96.622921 138.032465 
L 98.038203 140.270415 
L 99.003168 141.267842 
L 100.225458 142.105536 
L 101.319085 142.689752 
L 101.64074 143.049816 
L 102.026726 143.921736 
L 102.605705 145.794855 
L 103.313346 148.822869 
L 104.471304 153.945308 
L 105.050283 155.603075 
L 105.564931 156.499463 
L 106.079579 156.955121 
L 106.594227 157.115665 
L 107.752185 157.150083 
L 117.208844 157.048166 
L 117.530499 156.81041 
L 117.852154 156.267641 
L 118.173809 155.237487 
L 118.559795 153.143872 
L 119.010112 149.117107 
L 119.52476 142.20808 
L 120.296732 127.929414 
L 121.712014 101.373836 
L 122.483986 90.593337 
L 123.255958 82.883319 
L 123.834937 79.052756 
L 125.121557 72.183262 
L 126.408178 67.339227 
L 126.987157 65.984648 
L 128.402439 63.56561 
L 129.238742 62.589898 
L 129.817721 62.046845 
L 130.075045 62.080156 
L 130.461031 62.170475 
L 130.782686 61.951071 
L 131.747651 61.119134 
L 132.262299 61.098632 
L 132.776947 60.836893 
L 133.484588 60.516598 
L 133.741912 60.667312 
L 135.221526 62.184611 
L 135.736174 63.101037 
L 136.572477 64.505174 
L 137.344449 65.340169 
L 137.923428 65.668253 
L 138.566738 65.782647 
L 140.946985 65.79787 
L 150.532305 65.905146 
L 150.918291 66.221105 
L 151.304277 66.897353 
L 151.690263 68.10602 
L 152.14058 70.367168 
L 152.655229 74.371804 
L 153.298539 81.344904 
L 156.450758 118.690521 
L 157.287061 124.764751 
L 158.123364 129.516792 
L 158.959667 132.967023 
L 159.731639 135.403413 
L 160.825266 137.862836 
L 161.339914 138.578296 
L 163.5915 141.226622 
L 164.492134 141.853063 
L 165.264106 142.121449 
L 165.650092 142.597157 
L 166.229071 143.749893 
L 166.80805 145.565838 
L 167.708684 149.427597 
L 168.995304 154.700091 
L 169.574283 156.123166 
L 170.088931 156.827301 
L 170.60358 157.145046 
L 171.24689 157.244987 
L 174.720764 157.251814 
L 181.47552 157.159209 
L 181.861506 156.875231 
L 182.183161 156.324199 
L 182.504816 155.297575 
L 182.890802 153.180213 
L 183.341119 149.167277 
L 183.855767 142.238845 
L 184.627739 128.208302 
L 186.236014 98.27995 
L 187.007986 88.529877 
L 187.844289 81.070809 
L 188.616262 75.763205 
L 189.388234 71.941364 
L 190.095875 69.206646 
L 190.996509 66.710566 
L 191.768481 65.478083 
L 192.604784 64.059375 
L 193.441087 62.810522 
L 194.084397 61.913182 
L 194.406052 61.630704 
L 195.306686 61.197003 
L 196.078658 60.92228 
L 196.593306 60.828523 
L 197.365279 60.389584 
L 197.751265 60.316472 
L 198.07292 60.474439 
L 198.587568 61.105581 
L 199.423871 62.056046 
L 200.195843 63.029369 
L 200.903484 63.896348 
L 201.546794 64.599945 
L 202.190104 65.01208 
L 202.897745 65.149631 
L 204.827675 65.170423 
L 214.73465 65.277492 
L 215.184968 65.627465 
L 215.570954 66.257289 
L 215.95694 67.433281 
L 216.407257 69.640362 
L 216.857574 72.922171 
L 217.500884 79.566223 
L 218.787504 96.109247 
L 220.009793 110.722422 
L 221.10342 120.919199 
L 221.939723 126.748747 
L 222.776026 130.929899 
L 223.67666 134.199923 
L 224.577295 136.593352 
L 225.54226 138.468555 
L 226.121239 139.33383 
L 228.308493 141.556645 
L 230.04543 142.682818 
L 230.431416 143.213899 
L 230.817402 144.160083 
L 231.460712 146.493767 
L 232.490008 151.09269 
L 233.390643 154.676871 
L 233.969622 156.052287 
L 234.48427 156.722979 
L 234.934587 156.986253 
L 235.577897 157.085803 
L 236.349869 157.092541 
L 236.349869 157.092541 
" clip-path="url(#p3276cd7488)" style="fill: none; stroke: #ff7f0e; stroke-width: 0.5; stroke-linecap: square"/>
   </g>
   <g id="line2d_16">
    <path d="M 43.356847 17.110416 
L 55.579739 17.021591 
L 56.802028 16.514945 
L 57.188014 16.695586 
L 58.152979 17.442642 
L 58.474634 17.327061 
L 58.86062 16.898304 
L 59.50393 16.133648 
L 59.696923 16.148159 
L 59.954247 16.443162 
L 60.79055 17.757679 
L 61.047874 17.741133 
L 61.43386 17.368322 
L 62.012839 16.774215 
L 62.270163 16.828595 
L 62.849142 17.302147 
L 63.36379 17.746163 
L 63.749777 17.7625 
L 64.264425 17.576603 
L 65.679707 16.866725 
L 66.966327 16.706456 
L 67.352313 16.846821 
L 67.995623 17.243103 
L 68.252947 17.116567 
L 68.896257 16.639703 
L 69.217912 16.783287 
L 70.054215 17.252386 
L 70.440201 17.212502 
L 71.469497 16.800211 
L 72.241469 17.205933 
L 72.820449 17.46496 
L 73.206435 17.427144 
L 73.785414 17.07015 
L 74.428724 16.774167 
L 74.879041 16.819094 
L 75.522351 17.179882 
L 76.165661 17.451996 
L 76.615978 17.383145 
L 77.452281 16.912099 
L 77.966929 16.764705 
L 78.481577 16.863237 
L 80.218514 17.455942 
L 80.990486 17.309539 
L 83.11341 16.766095 
L 84.014044 16.851809 
L 86.780277 17.381024 
L 88.066897 17.184691 
L 89.031862 17.04978 
L 89.610841 16.955738 
L 90.382814 16.604261 
L 91.154786 16.458215 
L 91.798096 16.94226 
L 93.213378 17.673738 
L 93.728026 17.653717 
L 94.242674 17.595248 
L 94.821653 17.377597 
L 95.207639 17.281382 
L 95.91528 17.179331 
L 96.55859 17.142517 
L 97.2019 17.234866 
L 97.652217 17.213787 
L 98.231196 17.191923 
L 99.775141 17.215851 
L 100.161127 17.162719 
L 100.868768 16.942677 
L 101.576409 17.014114 
L 101.898064 17.014202 
L 102.541374 16.912033 
L 103.377677 16.968369 
L 112.51268 17.111909 
L 114.378279 17.113558 
L 115.986554 17.112749 
L 117.852154 17.099433 
L 119.846415 17.283808 
L 121.068704 17.480733 
L 121.776345 17.143839 
L 123.062965 16.579844 
L 123.38462 16.753949 
L 124.67124 17.830079 
L 125.121557 17.832762 
L 125.636205 17.368996 
L 126.601171 16.494042 
L 126.858495 16.564286 
L 127.244481 16.976714 
L 127.694798 17.357245 
L 128.080784 17.390713 
L 128.981418 17.241785 
L 129.75339 17.234269 
L 130.139376 16.914773 
L 130.525362 16.647369 
L 130.975679 16.687195 
L 131.425996 16.972202 
L 132.519623 17.492105 
L 132.841278 17.428332 
L 133.291595 17.085815 
L 134.063567 16.356011 
L 134.320891 16.361242 
L 134.771209 16.704162 
L 135.864836 17.51326 
L 136.250822 17.52488 
L 136.76547 17.278377 
L 137.730435 16.808271 
L 138.116421 16.895387 
L 139.467372 17.44109 
L 139.98202 17.230581 
L 140.946985 16.772266 
L 141.397302 16.846537 
L 143.069908 17.427536 
L 143.77755 17.163418 
L 144.806846 16.798492 
L 145.514487 16.79118 
L 146.479452 17.025768 
L 148.152058 17.440795 
L 149.052692 17.394427 
L 150.403643 17.029566 
L 151.49727 16.721321 
L 153.105546 16.681259 
L 153.491532 16.835612 
L 154.585159 17.468927 
L 155.357131 17.520993 
L 156.643751 16.868403 
L 157.994702 16.834858 
L 158.573681 17.097451 
L 159.088329 17.319778 
L 159.860301 17.277387 
L 161.275583 17.239425 
L 161.66157 17.13225 
L 162.240549 17.11181 
L 162.690866 17.030879 
L 163.720162 17.228458 
L 164.299141 17.590911 
L 164.685127 17.577616 
L 166.229071 17.058637 
L 166.872381 16.932153 
L 167.387029 16.856617 
L 168.287663 17.045643 
L 169.188297 17.285693 
L 170.281924 17.370887 
L 171.375552 17.196838 
L 173.305482 16.839798 
L 174.206116 16.926358 
L 176.522032 17.322743 
L 177.486997 16.939147 
L 178.065976 16.841249 
L 178.580624 16.980065 
L 179.674252 17.381763 
L 180.1889 17.274686 
L 181.47552 16.83393 
L 181.990168 16.991943 
L 182.890802 17.351384 
L 183.469781 17.274829 
L 184.563408 17.148184 
L 185.399711 17.489437 
L 186.171683 17.784702 
L 186.493338 17.624445 
L 187.393972 16.98898 
L 187.715627 17.111601 
L 188.358938 17.406279 
L 188.809255 17.300706 
L 189.259572 17.318579 
L 189.838551 17.367817 
L 190.546192 17.084593 
L 190.932178 16.951639 
L 191.768481 17.000635 
L 192.411791 16.674744 
L 192.862108 16.768613 
L 194.148728 17.238631 
L 194.470383 16.995686 
L 194.856369 16.737578 
L 195.178024 16.728432 
L 195.885665 17.102043 
L 196.593306 17.351332 
L 197.043624 17.268476 
L 198.265913 16.967016 
L 198.973554 17.290028 
L 199.681195 17.619498 
L 200.00285 17.526484 
L 201.225139 16.781203 
L 201.611125 16.987112 
L 202.57609 17.65597 
L 202.962076 17.58921 
L 203.412393 17.237222 
L 204.184365 16.607634 
L 204.570351 16.604977 
L 204.956337 16.852491 
L 205.985634 17.639555 
L 206.37162 17.58538 
L 206.886268 17.222301 
L 207.722571 16.631241 
L 208.172888 16.579134 
L 208.687536 16.751263 
L 210.617466 17.637998 
L 211.325107 17.591199 
L 212.16141 17.281138 
L 213.769685 16.611536 
L 214.477326 16.593282 
L 215.056306 16.746039 
L 216.149933 17.461545 
L 216.921905 17.87638 
L 217.693877 17.932414 
L 219.495145 17.378952 
L 220.074124 17.49983 
L 220.717434 17.564579 
L 221.489406 17.425419 
L 222.261378 17.046903 
L 223.547998 16.921405 
L 223.869654 16.979408 
L 225.477929 17.452195 
L 226.82888 17.424055 
L 227.600852 17.180096 
L 228.75881 17.156599 
L 231.074726 17.949768 
L 233.390643 17.281733 
L 234.998918 16.648059 
L 235.77089 16.697409 
L 236.349869 16.874254 
L 236.349869 16.874254 
" clip-path="url(#p3276cd7488)" style="fill: none; stroke: #2ca02c; stroke-width: 0.5; stroke-linecap: square"/>
   </g>
   <g id="line2d_17">
    <path d="M 43.356847 17.110416 
L 55.193753 17.212799 
L 55.772732 17.44898 
L 56.28738 17.366741 
L 56.737697 17.030677 
L 57.381007 16.516068 
L 57.702662 16.504382 
L 57.959986 16.724808 
L 58.989282 17.99917 
L 59.182275 17.851851 
L 59.50393 17.219451 
L 60.018578 16.153539 
L 60.211571 16.086365 
L 60.404564 16.25868 
L 61.562522 17.840355 
L 61.755515 17.747439 
L 62.849142 16.669461 
L 63.235128 16.817794 
L 64.200094 17.294836 
L 64.779073 17.313056 
L 65.551045 17.238433 
L 66.258686 17.255757 
L 67.738299 16.938284 
L 68.059954 17.272433 
L 68.381609 17.569416 
L 68.574602 17.518892 
L 69.024919 17.03319 
L 69.410905 16.791424 
L 69.668229 16.844708 
L 70.697525 17.393884 
L 71.147842 17.2112 
L 72.048476 16.683112 
L 72.434463 16.790534 
L 73.849745 17.460878 
L 74.364393 17.241655 
L 75.329358 16.768184 
L 75.779675 16.84133 
L 77.323619 17.432174 
L 77.902598 17.172209 
L 78.738901 16.789921 
L 79.253549 16.787843 
L 80.025521 17.054821 
L 81.119148 17.418602 
L 81.891121 17.44114 
L 82.856086 17.230512 
L 84.721685 16.768838 
L 85.557988 16.826642 
L 86.32996 17.080017 
L 87.230594 17.390262 
L 87.809573 17.493557 
L 88.324221 17.637639 
L 89.739503 17.464286 
L 90.961793 16.595143 
L 91.991089 16.346197 
L 92.570068 16.460823 
L 93.34204 16.728135 
L 94.178343 17.186193 
L 95.529294 17.684122 
L 96.301266 17.439138 
L 96.880245 17.253394 
L 97.716548 17.21319 
L 98.938837 17.439123 
L 99.968134 17.173771 
L 100.35412 17.014375 
L 100.868768 17.123659 
L 101.769402 17.230656 
L 102.219719 17.237419 
L 102.92736 17.21715 
L 104.406973 17.010322 
L 105.243276 17.088755 
L 106.980213 17.146864 
L 119.717753 17.026367 
L 120.16807 16.941296 
L 120.875711 17.153875 
L 121.519021 17.501872 
L 121.905007 17.302462 
L 122.419655 17.1606 
L 122.869972 17.064688 
L 123.320289 16.576512 
L 123.641944 16.354355 
L 123.963599 16.399842 
L 124.413916 16.743391 
L 125.443212 17.663023 
L 125.957861 17.90189 
L 126.215185 17.75683 
L 127.244481 16.689161 
L 127.566136 16.868962 
L 128.080784 17.159358 
L 128.531101 17.135537 
L 129.367404 17.113647 
L 130.268038 17.504164 
L 130.654024 17.186536 
L 131.233003 16.810605 
L 131.811982 16.807312 
L 132.390961 17.040886 
L 133.291595 17.562124 
L 133.741912 17.507863 
L 134.063567 17.292328 
L 134.706878 16.825552 
L 135.350188 16.565357 
L 135.736174 16.768734 
L 136.829801 17.508796 
L 137.215787 17.446006 
L 137.794766 17.07228 
L 138.373745 16.782474 
L 138.759731 16.810348 
L 139.33871 17.114285 
L 140.046351 17.441984 
L 140.496668 17.392233 
L 141.139978 17.036534 
L 141.783288 16.775379 
L 142.233605 16.826785 
L 143.005577 17.204505 
L 143.713219 17.441518 
L 144.292198 17.405458 
L 145.321494 17.056994 
L 146.35079 16.792657 
L 147.187093 16.798108 
L 148.216389 17.044276 
L 149.824664 17.431813 
L 150.789629 17.379285 
L 151.49727 17.08352 
L 152.783891 16.559729 
L 153.491532 16.455543 
L 154.070511 16.561927 
L 154.906814 17.113922 
L 155.357131 17.311669 
L 156.257765 17.420625 
L 156.836744 17.184617 
L 157.351392 17.014224 
L 159.023998 16.862134 
L 159.538646 16.842319 
L 160.760935 17.296061 
L 164.87812 17.014545 
L 165.907416 17.221794 
L 168.351994 16.894829 
L 169.316959 16.937666 
L 172.147524 17.360898 
L 173.305482 17.132926 
L 174.849426 16.838951 
L 175.621398 16.951343 
L 177.294004 17.365241 
L 177.937314 17.136949 
L 178.773617 16.841692 
L 179.288266 16.923567 
L 180.703548 17.369605 
L 181.282527 17.154222 
L 182.183161 16.795866 
L 182.569147 16.898189 
L 183.534112 17.327063 
L 184.04876 17.241628 
L 185.33538 16.752696 
L 185.657035 16.798483 
L 186.043021 17.169978 
L 186.493338 17.574746 
L 186.750662 17.54125 
L 187.200979 17.165273 
L 187.651296 16.834081 
L 188.037282 16.912824 
L 188.937917 17.066534 
L 189.323903 17.07039 
L 190.546192 17.354309 
L 191.382495 16.933595 
L 191.961474 17.362367 
L 192.411791 17.092396 
L 193.183763 16.708294 
L 193.698411 16.844331 
L 194.020066 17.191644 
L 194.470383 17.73185 
L 194.663376 17.679601 
L 195.113693 17.159094 
L 195.499679 16.863058 
L 196.271651 16.781286 
L 196.657637 17.028579 
L 197.107955 17.31896 
L 197.879927 17.287691 
L 198.587568 16.934266 
L 199.230878 16.910592 
L 199.616864 17.09808 
L 200.324505 17.553284 
L 200.64616 17.485416 
L 201.096477 17.120445 
L 201.675456 16.67929 
L 202.061442 16.670015 
L 202.511759 16.963555 
L 203.412393 17.636443 
L 203.734048 17.614147 
L 204.120034 17.362464 
L 205.084999 16.589966 
L 205.470985 16.62563 
L 205.921302 16.949615 
L 206.757606 17.601683 
L 207.143592 17.637455 
L 207.593909 17.443002 
L 209.073522 16.589966 
L 209.652501 16.612215 
L 210.424473 16.905238 
L 212.097079 17.610127 
L 212.80472 17.628883 
L 213.576692 17.407783 
L 215.699616 16.569433 
L 216.728912 16.750612 
L 217.500884 17.17597 
L 218.272856 17.202442 
L 218.851835 16.983698 
L 219.302152 16.909628 
L 220.074124 17.069332 
L 221.553737 17.574782 
L 222.132716 17.507088 
L 223.998316 16.873223 
L 225.606591 16.961034 
L 226.442894 17.292926 
L 227.214866 17.480231 
L 227.665183 17.467865 
L 228.694479 17.073646 
L 229.723775 16.613632 
L 230.881733 16.870633 
L 232.940326 17.676796 
L 233.647967 17.619224 
L 235.063249 17.180915 
L 236.349869 16.701024 
L 236.349869 16.701024 
" clip-path="url(#p3276cd7488)" style="fill: none; stroke: #d62728; stroke-width: 0.5; stroke-linecap: square"/>
   </g>
   <g id="patch_3">
    <path d="M 33.707196 202.559296 
L 33.707196 7.2 
" style="fill: none; stroke: #000000; stroke-width: 0.8; stroke-linejoin: miter; stroke-linecap: square"/>
   </g>
   <g id="patch_4">
    <path d="M 245.99952 202.559296 
L 245.99952 7.2 
" style="fill: none; stroke: #000000; stroke-width: 0.8; stroke-linejoin: miter; stroke-linecap: square"/>
   </g>
   <g id="patch_5">
    <path d="M 33.707196 202.559296 
L 245.99952 202.559296 
" style="fill: none; stroke: #000000; stroke-width: 0.8; stroke-linejoin: miter; stroke-linecap: square"/>
   </g>
   <g id="patch_6">
    <path d="M 33.707196 7.2 
L 245.99952 7.2 
" style="fill: none; stroke: #000000; stroke-width: 0.8; stroke-linejoin: miter; stroke-linecap: square"/>
   </g>
   <g id="legend_1">
    <g id="patch_7">
     <path d="M 193.792605 198.059296 
L 239.69952 198.059296 
Q 241.49952 198.059296 241.49952 196.259296 
L 241.49952 156.760168 
Q 241.49952 154.960168 239.69952 154.960168 
L 193.792605 154.960168 
Q 191.992605 154.960168 191.992605 156.760168 
L 191.992605 196.259296 
Q 191.992605 198.059296 193.792605 198.059296 
z
" style="fill: #ffffff; opacity: 0.8; stroke: #cccccc; stroke-width: 0.24; stroke-linejoin: miter"/>
    </g>
    <g id="line2d_18">
     <path d="M 195.592605 162.13495 
L 204.592605 162.13495 
L 213.592605 162.13495 
" style="fill: none; stroke: #ff7f0e; stroke-width: 0.5; stroke-linecap: square"/>
    </g>
    <g id="text_16">
     <!-- $\langle \sigma_z\rangle$ -->
     <g transform="translate(220.792605 165.28495) scale(0.09 -0.09)">
      <defs>
       <path id="CMSY10-68" d="M 2099 4557 
C 2131 4627 2131 4640 2131 4672 
C 2131 4742 2074 4800 2003 4800 
C 1946 4800 1901 4768 1856 4653 
L 736 1715 
C 723 1677 704 1638 704 1600 
C 704 1581 704 1568 736 1491 
L 1856 -1446 
C 1882 -1517 1914 -1600 2003 -1600 
C 2074 -1600 2131 -1542 2131 -1472 
C 2131 -1453 2131 -1440 2099 -1370 
L 966 1600 
L 2099 4557 
z
" transform="scale(0.015625)"/>
       <path id="CMMI12-1b" d="M 3251 2408 
C 3334 2408 3546 2408 3546 2612 
C 3546 2752 3424 2752 3309 2752 
L 1894 2752 
C 934 2752 243 1686 243 932 
C 243 390 595 -64 1171 -64 
C 1926 -64 2752 747 2752 1705 
C 2752 1954 2694 2196 2541 2408 
L 3251 2408 
z
M 1178 64 
C 851 64 614 313 614 754 
C 614 1137 845 2408 1786 2408 
C 2061 2408 2368 2274 2368 1781 
C 2368 1558 2266 1021 2042 652 
C 1811 275 1466 64 1178 64 
z
" transform="scale(0.015625)"/>
       <path id="CMMI12-7a" d="M 813 486 
C 1088 803 1312 1004 1632 1296 
C 2016 1632 2182 1793 2272 1891 
C 2720 2338 2944 2713 2944 2764 
C 2944 2816 2893 2816 2880 2816 
C 2835 2816 2822 2793 2790 2750 
C 2630 2494 2477 2367 2310 2367 
C 2176 2367 2106 2421 1984 2565 
C 1850 2715 1741 2816 1555 2816 
C 1088 2816 806 2257 806 2128 
C 806 2108 813 2068 870 2068 
C 922 2068 928 2091 947 2133 
C 1056 2372 1363 2414 1485 2414 
C 1619 2414 1747 2376 1882 2327 
C 2125 2240 2227 2240 2291 2240 
C 2336 2240 2362 2240 2394 2246 
C 2182 1994 1837 1683 1549 1418 
L 902 816 
C 512 415 275 33 275 -12 
C 275 -51 307 -64 346 -64 
C 384 -64 390 -57 435 14 
C 538 163 742 384 979 384 
C 1114 384 1178 342 1306 193 
C 1427 61 1536 -64 1741 -64 
C 2368 -64 2726 732 2726 876 
C 2726 903 2720 942 2656 942 
C 2605 942 2598 917 2579 855 
C 2438 488 2061 338 1811 338 
C 1677 338 1549 376 1414 425 
C 1158 512 1088 512 1005 512 
C 941 512 870 512 813 486 
z
" transform="scale(0.015625)"/>
       <path id="CMSY10-69" d="M 1747 1491 
C 1779 1568 1779 1581 1779 1600 
C 1779 1619 1779 1632 1747 1709 
L 627 4653 
C 589 4762 550 4800 480 4800 
C 410 4800 352 4742 352 4672 
C 352 4653 352 4640 384 4570 
L 1517 1600 
L 384 -1357 
C 352 -1427 352 -1440 352 -1472 
C 352 -1542 410 -1600 480 -1600 
C 563 -1600 589 -1536 614 -1472 
L 1747 1491 
z
" transform="scale(0.015625)"/>
      </defs>
      <use xlink:href="#CMSY10-68" transform="scale(0.996264)"/>
      <use xlink:href="#CMMI12-1b" transform="translate(38.743734 0) scale(0.996264)"/>
      <use xlink:href="#CMMI12-7a" transform="translate(94.189195 -14.943915) scale(0.697382)"/>
      <use xlink:href="#CMSY10-69" transform="translate(129.51575 0) scale(0.996264)"/>
     </g>
    </g>
    <g id="line2d_19">
     <path d="M 195.592605 175.601326 
L 204.592605 175.601326 
L 213.592605 175.601326 
" style="fill: none; stroke: #2ca02c; stroke-width: 0.5; stroke-linecap: square"/>
    </g>
    <g id="text_17">
     <!-- $\langle \sigma_x\rangle$ -->
     <g transform="translate(220.792605 178.751326) scale(0.09 -0.09)">
      <defs>
       <path id="CMMI12-78" d="M 3034 2606 
C 2829 2567 2752 2414 2752 2293 
C 2752 2139 2874 2088 2963 2088 
C 3155 2088 3290 2254 3290 2427 
C 3290 2695 2982 2816 2714 2816 
C 2323 2816 2106 2433 2048 2312 
C 1901 2816 1504 2816 1389 2816 
C 736 2816 390 1980 390 1839 
C 390 1814 416 1782 461 1782 
C 512 1782 525 1820 538 1846 
C 755 2555 1184 2689 1370 2689 
C 1658 2689 1715 2420 1715 2267 
C 1715 2127 1677 1980 1600 1673 
L 1382 798 
C 1286 415 1101 64 762 64 
C 730 64 570 64 435 147 
C 666 192 717 383 717 460 
C 717 588 621 664 499 664 
C 346 664 179 530 179 326 
C 179 57 480 -64 755 -64 
C 1062 -64 1280 179 1414 441 
C 1517 64 1837 -64 2074 -64 
C 2726 -64 3072 773 3072 913 
C 3072 945 3046 971 3008 971 
C 2950 971 2944 939 2925 888 
C 2752 326 2381 64 2093 64 
C 1869 64 1747 230 1747 492 
C 1747 632 1773 734 1875 1156 
L 2099 2024 
C 2195 2408 2413 2689 2707 2689 
C 2720 2689 2899 2689 3034 2606 
z
" transform="scale(0.015625)"/>
      </defs>
      <use xlink:href="#CMSY10-68" transform="scale(0.996264)"/>
      <use xlink:href="#CMMI12-1b" transform="translate(38.743734 0) scale(0.996264)"/>
      <use xlink:href="#CMMI12-78" transform="translate(94.189195 -14.943915) scale(0.697382)"/>
      <use xlink:href="#CMSY10-69" transform="translate(133.490986 0) scale(0.996264)"/>
     </g>
    </g>
    <g id="line2d_20">
     <path d="M 195.592605 189.067702 
L 204.592605 189.067702 
L 213.592605 189.067702 
" style="fill: none; stroke: #d62728; stroke-width: 0.5; stroke-linecap: square"/>
    </g>
    <g id="text_18">
     <!-- $\langle \sigma_y\rangle$ -->
     <g transform="translate(220.792605 192.217702) scale(0.09 -0.09)">
      <defs>
       <path id="CMMI12-79" d="M 1683 -700 
C 1510 -939 1261 -1152 947 -1152 
C 870 -1152 563 -1152 467 -889 
C 486 -895 518 -895 531 -895 
C 723 -895 851 -729 851 -582 
C 851 -435 730 -384 634 -384 
C 531 -384 307 -458 307 -759 
C 307 -1071 582 -1286 947 -1286 
C 1587 -1286 2234 -700 2413 6 
L 3040 2485 
C 3046 2517 3059 2556 3059 2594 
C 3059 2689 2982 2753 2886 2753 
C 2829 2753 2694 2727 2643 2535 
L 2170 658 
C 2138 543 2138 530 2086 460 
C 1958 281 1747 64 1440 64 
C 1082 64 1050 415 1050 588 
C 1050 952 1222 1443 1395 1903 
C 1466 2088 1504 2178 1504 2305 
C 1504 2574 1312 2816 998 2816 
C 410 2816 173 1890 173 1839 
C 173 1814 198 1782 243 1782 
C 301 1782 307 1807 333 1897 
C 486 2433 730 2689 979 2689 
C 1037 2689 1146 2689 1146 2478 
C 1146 2312 1075 2127 979 1884 
C 666 1047 666 837 666 683 
C 666 77 1101 -64 1421 -64 
C 1606 -64 1837 -6 2061 230 
L 2067 224 
C 1971 -147 1907 -392 1683 -700 
z
" transform="scale(0.015625)"/>
      </defs>
      <use xlink:href="#CMSY10-68" transform="scale(0.996264)"/>
      <use xlink:href="#CMMI12-1b" transform="translate(38.743734 0) scale(0.996264)"/>
      <use xlink:href="#CMMI12-79" transform="translate(94.189195 -14.943915) scale(0.697382)"/>
      <use xlink:href="#CMSY10-69" transform="translate(130.484301 0) scale(0.996264)"/>
     </g>
    </g>
   </g>
  </g>
 </g>
 <defs>
  <clipPath id="p3276cd7488">
   <rect x="33.707196" y="7.2" width="212.292324" height="195.359296"/>
  </clipPath>
 </defs>
</svg>
