<?xml version="1.0" encoding="utf-8" standalone="no"?>
<!DOCTYPE svg PUBLIC "-//W3C//DTD SVG 1.1//EN"
  "http://www.w3.org/Graphics/SVG/1.1/DTD/svg11.dtd">
<svg xmlns:xlink="http://www.w3.org/1999/xlink" width="253.19952pt" height="238.79952pt" viewBox="0 0 253.19952 238.79952" xmlns="http://www.w3.org/2000/svg" version="1.1">
 <metadata>
  <rdf:RDF xmlns:dc="http://purl.org/dc/elements/1.1/" xmlns:cc="http://creativecommons.org/ns#" xmlns:rdf="http://www.w3.org/1999/02/22-rdf-syntax-ns#">
   <cc:Work>
    <dc:type rdf:resource="http://purl.org/dc/dcmitype/StillImage"/>
    <dc:date>1980-01-01T00:00:00+00:00</dc:date>
    <dc:format>image/svg+xml</dc:format>
    <dc:creator>
     <cc:Agent>
      <dc:title>Matplotlib v3.6.2, https://matplotlib.org/</dc:title>
     </cc:Agent>
    </dc:creator>
   </cc:Work>
  </rdf:RDF>
 </metadata>
 <defs>
  <style type="text/css">*{stroke-linejoin: round; stroke-linecap: butt}</style>
 </defs>
 <g id="figure_1">
  <g id="patch_1">
   <path d="M 0 238.79952 
L 253.19952 238.79952 
L 253.19952 0 
L 0 0 
z
" style="fill: #ffffff"/>
  </g>
  <g id="axes_1">
   <g id="patch_2">
    <path d="M 33.707196 202.559296 
L 245.99952 202.559296 
L 245.99952 7.2 
L 33.707196 7.2 
z
" style="fill: #ffffff"/>
   </g>
   <g id="matplotlib.axis_1">
    <g id="xtick_1">
     <g id="line2d_1">
      <defs>
       <path id="m35463b66ea" d="M 0 0 
L 0 3.5 
" style="stroke: #000000; stroke-width: 0.8"/>
      </defs>
      <g>
       <use xlink:href="#m35463b66ea" x="43.356847" y="202.559296" style="stroke: #000000; stroke-width: 0.8"/>
      </g>
     </g>
     <g id="text_1">
      <!-- $\mathdefault{0}$ -->
      <g transform="translate(41.239756 217.194098) scale(0.08 -0.08)">
       <defs>
        <path id="CMR17-30" d="M 2688 2025 
C 2688 2416 2682 3080 2413 3591 
C 2176 4039 1798 4198 1466 4198 
C 1158 4198 768 4058 525 3597 
C 269 3118 243 2524 243 2025 
C 243 1661 250 1106 448 619 
C 723 -39 1216 -128 1466 -128 
C 1760 -128 2208 -7 2470 600 
C 2662 1042 2688 1559 2688 2025 
z
M 1466 -26 
C 1056 -26 813 325 723 812 
C 653 1188 653 1738 653 2096 
C 653 2588 653 2997 736 3387 
C 858 3929 1216 4096 1466 4096 
C 1728 4096 2067 3923 2189 3400 
C 2272 3036 2278 2607 2278 2096 
C 2278 1680 2278 1169 2202 792 
C 2067 95 1690 -26 1466 -26 
z
" transform="scale(0.015625)"/>
       </defs>
       <use xlink:href="#CMR17-30" transform="scale(0.996264)"/>
      </g>
     </g>
    </g>
    <g id="xtick_2">
     <g id="line2d_2">
      <g>
       <use xlink:href="#m35463b66ea" x="70.161434" y="202.559296" style="stroke: #000000; stroke-width: 0.8"/>
      </g>
     </g>
     <g id="text_2">
      <!-- $\mathdefault{25}$ -->
      <g transform="translate(65.927251 217.194098) scale(0.08 -0.08)">
       <defs>
        <path id="CMR17-32" d="M 2669 989 
L 2554 989 
C 2490 536 2438 459 2413 420 
C 2381 369 1920 369 1830 369 
L 602 369 
C 832 619 1280 1072 1824 1597 
C 2214 1967 2669 2402 2669 3035 
C 2669 3790 2067 4224 1395 4224 
C 691 4224 262 3604 262 3030 
C 262 2780 448 2748 525 2748 
C 589 2748 781 2787 781 3010 
C 781 3207 614 3264 525 3264 
C 486 3264 448 3258 422 3245 
C 544 3790 915 4058 1306 4058 
C 1862 4058 2227 3617 2227 3035 
C 2227 2479 1901 2000 1536 1584 
L 262 146 
L 262 0 
L 2515 0 
L 2669 989 
z
" transform="scale(0.015625)"/>
        <path id="CMR17-35" d="M 730 3692 
C 794 3666 1056 3584 1325 3584 
C 1920 3584 2246 3911 2432 4100 
C 2432 4157 2432 4192 2394 4192 
C 2387 4192 2374 4192 2323 4163 
C 2099 4058 1837 3973 1517 3973 
C 1325 3973 1037 3999 723 4139 
C 653 4171 640 4171 634 4171 
C 602 4171 595 4164 595 4037 
L 595 2203 
C 595 2089 595 2057 659 2057 
C 691 2057 704 2070 736 2114 
C 941 2401 1222 2522 1542 2522 
C 1766 2522 2246 2382 2246 1289 
C 2246 1085 2246 715 2054 421 
C 1894 159 1645 25 1370 25 
C 947 25 518 320 403 814 
C 429 807 480 795 506 795 
C 589 795 749 840 749 1038 
C 749 1210 627 1280 506 1280 
C 358 1280 262 1190 262 1011 
C 262 454 704 -128 1382 -128 
C 2042 -128 2669 440 2669 1264 
C 2669 2030 2170 2624 1549 2624 
C 1222 2624 947 2503 730 2274 
L 730 3692 
z
" transform="scale(0.015625)"/>
       </defs>
       <use xlink:href="#CMR17-32" transform="scale(0.996264)"/>
       <use xlink:href="#CMR17-35" transform="translate(45.690477 0) scale(0.996264)"/>
      </g>
     </g>
    </g>
    <g id="xtick_3">
     <g id="line2d_3">
      <g>
       <use xlink:href="#m35463b66ea" x="96.96602" y="202.559296" style="stroke: #000000; stroke-width: 0.8"/>
      </g>
     </g>
     <g id="text_3">
      <!-- $\mathdefault{50}$ -->
      <g transform="translate(92.731837 217.194098) scale(0.08 -0.08)">
       <use xlink:href="#CMR17-35" transform="scale(0.996264)"/>
       <use xlink:href="#CMR17-30" transform="translate(45.690477 0) scale(0.996264)"/>
      </g>
     </g>
    </g>
    <g id="xtick_4">
     <g id="line2d_4">
      <g>
       <use xlink:href="#m35463b66ea" x="123.770606" y="202.559296" style="stroke: #000000; stroke-width: 0.8"/>
      </g>
     </g>
     <g id="text_4">
      <!-- $\mathdefault{75}$ -->
      <g transform="translate(119.536423 217.194098) scale(0.08 -0.08)">
       <defs>
        <path id="CMR17-37" d="M 2886 3941 
L 2886 4081 
L 1382 4081 
C 634 4081 621 4165 595 4288 
L 480 4288 
L 294 3094 
L 410 3094 
C 429 3215 474 3540 550 3661 
C 589 3712 1062 3712 1171 3712 
L 2579 3712 
L 1869 2661 
C 1395 1954 1069 999 1069 165 
C 1069 89 1069 -128 1299 -128 
C 1530 -128 1530 89 1530 171 
L 1530 465 
C 1530 1508 1709 2196 2003 2636 
L 2886 3941 
z
" transform="scale(0.015625)"/>
       </defs>
       <use xlink:href="#CMR17-37" transform="scale(0.996264)"/>
       <use xlink:href="#CMR17-35" transform="translate(45.690477 0) scale(0.996264)"/>
      </g>
     </g>
    </g>
    <g id="xtick_5">
     <g id="line2d_5">
      <g>
       <use xlink:href="#m35463b66ea" x="150.575193" y="202.559296" style="stroke: #000000; stroke-width: 0.8"/>
      </g>
     </g>
     <g id="text_5">
      <!-- $\mathdefault{100}$ -->
      <g transform="translate(144.223918 217.194098) scale(0.08 -0.08)">
       <defs>
        <path id="CMR17-31" d="M 1702 4058 
C 1702 4192 1696 4192 1606 4192 
C 1357 3916 979 3827 621 3827 
C 602 3827 570 3827 563 3808 
C 557 3795 557 3782 557 3648 
C 755 3648 1088 3686 1344 3839 
L 1344 461 
C 1344 236 1331 160 781 160 
L 589 160 
L 589 0 
C 896 0 1216 0 1523 0 
C 1830 0 2150 0 2458 0 
L 2458 160 
L 2266 160 
C 1715 160 1702 230 1702 458 
L 1702 4058 
z
" transform="scale(0.015625)"/>
       </defs>
       <use xlink:href="#CMR17-31" transform="scale(0.996264)"/>
       <use xlink:href="#CMR17-30" transform="translate(45.690477 0) scale(0.996264)"/>
       <use xlink:href="#CMR17-30" transform="translate(91.380954 0) scale(0.996264)"/>
      </g>
     </g>
    </g>
    <g id="xtick_6">
     <g id="line2d_6">
      <g>
       <use xlink:href="#m35463b66ea" x="177.379779" y="202.559296" style="stroke: #000000; stroke-width: 0.8"/>
      </g>
     </g>
     <g id="text_6">
      <!-- $\mathdefault{125}$ -->
      <g transform="translate(171.028505 217.194098) scale(0.08 -0.08)">
       <use xlink:href="#CMR17-31" transform="scale(0.996264)"/>
       <use xlink:href="#CMR17-32" transform="translate(45.690477 0) scale(0.996264)"/>
       <use xlink:href="#CMR17-35" transform="translate(91.380954 0) scale(0.996264)"/>
      </g>
     </g>
    </g>
    <g id="xtick_7">
     <g id="line2d_7">
      <g>
       <use xlink:href="#m35463b66ea" x="204.184365" y="202.559296" style="stroke: #000000; stroke-width: 0.8"/>
      </g>
     </g>
     <g id="text_7">
      <!-- $\mathdefault{150}$ -->
      <g transform="translate(197.833091 217.194098) scale(0.08 -0.08)">
       <use xlink:href="#CMR17-31" transform="scale(0.996264)"/>
       <use xlink:href="#CMR17-35" transform="translate(45.690477 0) scale(0.996264)"/>
       <use xlink:href="#CMR17-30" transform="translate(91.380954 0) scale(0.996264)"/>
      </g>
     </g>
    </g>
    <g id="xtick_8">
     <g id="line2d_8">
      <g>
       <use xlink:href="#m35463b66ea" x="230.988952" y="202.559296" style="stroke: #000000; stroke-width: 0.8"/>
      </g>
     </g>
     <g id="text_8">
      <!-- $\mathdefault{175}$ -->
      <g transform="translate(224.637677 217.194098) scale(0.08 -0.08)">
       <use xlink:href="#CMR17-31" transform="scale(0.996264)"/>
       <use xlink:href="#CMR17-37" transform="translate(45.690477 0) scale(0.996264)"/>
       <use xlink:href="#CMR17-35" transform="translate(91.380954 0) scale(0.996264)"/>
      </g>
     </g>
    </g>
    <g id="text_9">
     <!-- $\tau$ -->
     <g transform="translate(137.675756 229.662342) scale(0.1 -0.1)">
      <defs>
       <path id="CMMI12-1c" d="M 1837 2408 
L 2899 2408 
C 2982 2408 3194 2408 3194 2612 
C 3194 2752 3072 2752 2957 2752 
L 1197 2752 
C 1050 2752 832 2752 538 2440 
C 371 2255 166 1917 166 1879 
C 166 1841 198 1828 237 1828 
C 282 1828 288 1847 320 1885 
C 653 2408 986 2408 1146 2408 
L 1677 2408 
L 1011 223 
C 979 127 979 114 979 95 
C 979 25 1024 -64 1152 -64 
C 1350 -64 1382 108 1402 203 
L 1837 2408 
z
" transform="scale(0.015625)"/>
      </defs>
      <use xlink:href="#CMMI12-1c" transform="scale(0.996264)"/>
     </g>
    </g>
   </g>
   <g id="matplotlib.axis_2">
    <g id="ytick_1">
     <g id="line2d_9">
      <defs>
       <path id="m11c382f0ee" d="M 0 0 
L -3.5 0 
" style="stroke: #000000; stroke-width: 0.8"/>
      </defs>
      <g>
       <use xlink:href="#m11c382f0ee" x="33.707196" y="193.679328" style="stroke: #000000; stroke-width: 0.8"/>
      </g>
     </g>
     <g id="text_10">
      <!-- $\mathdefault{−1.0}$ -->
      <g transform="translate(7.2 196.446729) scale(0.08 -0.08)">
       <defs>
        <path id="CMSY10-0" d="M 4218 1472 
C 4326 1472 4442 1472 4442 1600 
C 4442 1728 4326 1728 4218 1728 
L 755 1728 
C 646 1728 531 1728 531 1600 
C 531 1472 646 1472 755 1472 
L 4218 1472 
z
" transform="scale(0.015625)"/>
        <path id="CMMI12-3a" d="M 1178 307 
C 1178 492 1024 619 870 619 
C 685 619 557 466 557 313 
C 557 128 710 0 864 0 
C 1050 0 1178 153 1178 307 
z
" transform="scale(0.015625)"/>
       </defs>
       <use xlink:href="#CMSY10-0" transform="scale(0.996264)"/>
       <use xlink:href="#CMR17-31" transform="translate(77.487468 0) scale(0.996264)"/>
       <use xlink:href="#CMMI12-3a" transform="translate(123.177945 0) scale(0.996264)"/>
       <use xlink:href="#CMR17-30" transform="translate(150.275122 0) scale(0.996264)"/>
      </g>
     </g>
    </g>
    <g id="ytick_2">
     <g id="line2d_10">
      <g>
       <use xlink:href="#m11c382f0ee" x="33.707196" y="158.344023" style="stroke: #000000; stroke-width: 0.8"/>
      </g>
     </g>
     <g id="text_11">
      <!-- $\mathdefault{−0.8}$ -->
      <g transform="translate(7.2 161.111423) scale(0.08 -0.08)">
       <defs>
        <path id="CMR17-38" d="M 1741 2264 
C 2144 2467 2554 2773 2554 3263 
C 2554 3841 1990 4179 1472 4179 
C 890 4179 378 3759 378 3180 
C 378 3021 416 2747 666 2505 
C 730 2442 998 2251 1171 2130 
C 883 1983 211 1634 211 934 
C 211 279 838 -128 1459 -128 
C 2144 -128 2720 362 2720 1010 
C 2720 1590 2330 1857 2074 2029 
L 1741 2264 
z
M 902 2822 
C 851 2854 595 3051 595 3351 
C 595 3739 998 4032 1459 4032 
C 1965 4032 2336 3676 2336 3262 
C 2336 2669 1670 2331 1638 2331 
C 1632 2331 1626 2331 1574 2370 
L 902 2822 
z
M 2080 1519 
C 2176 1449 2483 1240 2483 851 
C 2483 381 2010 25 1472 25 
C 890 25 448 438 448 940 
C 448 1443 838 1862 1280 2060 
L 2080 1519 
z
" transform="scale(0.015625)"/>
       </defs>
       <use xlink:href="#CMSY10-0" transform="scale(0.996264)"/>
       <use xlink:href="#CMR17-30" transform="translate(77.487468 0) scale(0.996264)"/>
       <use xlink:href="#CMMI12-3a" transform="translate(123.177945 0) scale(0.996264)"/>
       <use xlink:href="#CMR17-38" transform="translate(150.275122 0) scale(0.996264)"/>
      </g>
     </g>
    </g>
    <g id="ytick_3">
     <g id="line2d_11">
      <g>
       <use xlink:href="#m11c382f0ee" x="33.707196" y="123.008717" style="stroke: #000000; stroke-width: 0.8"/>
      </g>
     </g>
     <g id="text_12">
      <!-- $\mathdefault{−0.6}$ -->
      <g transform="translate(7.2 125.776118) scale(0.08 -0.08)">
       <defs>
        <path id="CMR17-36" d="M 678 2176 
C 678 3690 1395 4032 1811 4032 
C 1946 4032 2272 4009 2400 3776 
C 2298 3776 2106 3776 2106 3553 
C 2106 3381 2246 3323 2336 3323 
C 2394 3323 2566 3348 2566 3560 
C 2566 3954 2246 4179 1805 4179 
C 1043 4179 243 3390 243 1984 
C 243 253 966 -128 1478 -128 
C 2099 -128 2688 427 2688 1283 
C 2688 2081 2170 2662 1517 2662 
C 1126 2662 838 2407 678 1960 
L 678 2176 
z
M 1478 25 
C 691 25 691 1200 691 1436 
C 691 1896 909 2560 1504 2560 
C 1613 2560 1926 2560 2138 2120 
C 2253 1870 2253 1609 2253 1289 
C 2253 944 2253 690 2118 434 
C 1978 171 1773 25 1478 25 
z
" transform="scale(0.015625)"/>
       </defs>
       <use xlink:href="#CMSY10-0" transform="scale(0.996264)"/>
       <use xlink:href="#CMR17-30" transform="translate(77.487468 0) scale(0.996264)"/>
       <use xlink:href="#CMMI12-3a" transform="translate(123.177945 0) scale(0.996264)"/>
       <use xlink:href="#CMR17-36" transform="translate(150.275122 0) scale(0.996264)"/>
      </g>
     </g>
    </g>
    <g id="ytick_4">
     <g id="line2d_12">
      <g>
       <use xlink:href="#m11c382f0ee" x="33.707196" y="87.673412" style="stroke: #000000; stroke-width: 0.8"/>
      </g>
     </g>
     <g id="text_13">
      <!-- $\mathdefault{−0.4}$ -->
      <g transform="translate(7.2 90.440813) scale(0.08 -0.08)">
       <defs>
        <path id="CMR17-34" d="M 2150 4122 
C 2150 4256 2144 4256 2029 4256 
L 128 1254 
L 128 1088 
L 1779 1088 
L 1779 457 
C 1779 224 1766 160 1318 160 
L 1197 160 
L 1197 0 
C 1402 0 1747 0 1965 0 
C 2182 0 2528 0 2733 0 
L 2733 160 
L 2611 160 
C 2163 160 2150 224 2150 457 
L 2150 1088 
L 2803 1088 
L 2803 1254 
L 2150 1254 
L 2150 4122 
z
M 1798 3703 
L 1798 1254 
L 256 1254 
L 1798 3703 
z
" transform="scale(0.015625)"/>
       </defs>
       <use xlink:href="#CMSY10-0" transform="scale(0.996264)"/>
       <use xlink:href="#CMR17-30" transform="translate(77.487468 0) scale(0.996264)"/>
       <use xlink:href="#CMMI12-3a" transform="translate(123.177945 0) scale(0.996264)"/>
       <use xlink:href="#CMR17-34" transform="translate(150.275122 0) scale(0.996264)"/>
      </g>
     </g>
    </g>
    <g id="ytick_5">
     <g id="line2d_13">
      <g>
       <use xlink:href="#m11c382f0ee" x="33.707196" y="52.338107" style="stroke: #000000; stroke-width: 0.8"/>
      </g>
     </g>
     <g id="text_14">
      <!-- $\mathdefault{−0.2}$ -->
      <g transform="translate(7.2 55.105507) scale(0.08 -0.08)">
       <use xlink:href="#CMSY10-0" transform="scale(0.996264)"/>
       <use xlink:href="#CMR17-30" transform="translate(77.487468 0) scale(0.996264)"/>
       <use xlink:href="#CMMI12-3a" transform="translate(123.177945 0) scale(0.996264)"/>
       <use xlink:href="#CMR17-32" transform="translate(150.275122 0) scale(0.996264)"/>
      </g>
     </g>
    </g>
    <g id="ytick_6">
     <g id="line2d_14">
      <g>
       <use xlink:href="#m11c382f0ee" x="33.707196" y="17.002801" style="stroke: #000000; stroke-width: 0.8"/>
      </g>
     </g>
     <g id="text_15">
      <!-- $\mathdefault{0.0}$ -->
      <g transform="translate(13.786507 19.770202) scale(0.08 -0.08)">
       <use xlink:href="#CMR17-30" transform="scale(0.996264)"/>
       <use xlink:href="#CMMI12-3a" transform="translate(45.690477 0) scale(0.996264)"/>
       <use xlink:href="#CMR17-30" transform="translate(72.787654 0) scale(0.996264)"/>
      </g>
     </g>
    </g>
   </g>
   <g id="line2d_15">
    <path d="M 43.356847 193.679328 
L 52.684843 193.58963 
L 53.006498 193.375049 
L 53.328153 192.860821 
L 53.649808 191.82521 
L 53.971463 189.999058 
L 54.357449 186.372989 
L 54.807767 179.800945 
L 55.386746 167.718585 
L 58.024317 106.614515 
L 58.731958 96.742016 
L 59.568261 88.363248 
L 60.468895 81.189161 
L 61.369529 75.696931 
L 62.205832 72.067833 
L 63.170797 68.584851 
L 63.814108 67.237557 
L 65.22939 64.582773 
L 65.8727 63.589727 
L 67.287982 62.006724 
L 68.638933 61.385546 
L 69.925553 61.533244 
L 70.247208 61.999966 
L 71.791152 64.796191 
L 72.820449 66.346962 
L 73.335097 66.751774 
L 73.978407 66.966396 
L 75.007703 67.016628 
L 85.557988 66.945145 
L 86.394291 66.94911 
L 86.780277 67.18942 
L 87.166263 67.742785 
L 87.61658 68.84033 
L 88.066897 70.606409 
L 88.581545 73.72483 
L 89.289186 79.676435 
L 90.640138 92.88438 
L 91.669434 102.094297 
L 92.570068 108.308201 
L 93.406371 112.55471 
L 94.564329 117.166857 
L 95.464963 119.772853 
L 96.108273 120.965462 
L 97.459224 122.825491 
L 99.003168 124.398354 
L 99.968134 124.919182 
L 101.061761 125.340029 
L 101.576409 125.890304 
L 101.962395 126.63101 
L 102.541374 128.379078 
L 103.313346 131.491293 
L 104.471304 136.149919 
L 105.114614 137.873868 
L 105.629262 138.73409 
L 106.079579 139.120856 
L 106.658558 139.296276 
L 107.880847 139.326659 
L 117.144513 139.216406 
L 117.530499 138.920639 
L 117.852154 138.355537 
L 118.173809 137.31459 
L 118.559795 135.283056 
L 119.010112 131.567533 
L 119.589091 124.453324 
L 120.81138 105.551042 
L 121.776345 91.767389 
L 122.548317 83.80538 
L 123.448951 77.194318 
L 124.285254 73.057683 
L 125.057226 70.348763 
L 126.987157 65.257246 
L 127.887791 63.387064 
L 128.273777 62.769413 
L 130.718355 61.18831 
L 131.104341 61.260248 
L 131.425996 61.265564 
L 132.069306 60.895643 
L 132.455292 60.514913 
L 132.776947 60.268177 
L 133.098602 60.326813 
L 133.61325 60.594275 
L 134.063567 61.138156 
L 137.40878 66.088039 
L 137.987759 66.417681 
L 138.759731 66.573913 
L 140.946985 66.587551 
L 151.046953 66.660999 
L 151.368608 67.004979 
L 151.754594 67.767407 
L 152.14058 69.066765 
L 152.590898 71.416648 
L 153.169877 75.667183 
L 154.134842 84.774424 
L 155.871779 101.231122 
L 156.643751 106.71112 
L 157.544385 111.813542 
L 158.380688 115.122945 
L 159.538646 118.931623 
L 160.503611 121.177821 
L 161.404245 122.637284 
L 162.433542 124.056775 
L 163.141183 124.696616 
L 163.5915 124.974654 
L 164.942451 125.448232 
L 165.650092 126.000861 
L 166.100409 126.668301 
L 166.679388 127.982687 
L 167.258367 129.918085 
L 169.252628 137.271158 
L 169.831607 138.397074 
L 170.346256 138.921841 
L 170.860904 139.120773 
L 171.761538 139.169441 
L 181.411189 139.087692 
L 181.797175 138.841283 
L 182.11883 138.368382 
L 182.440485 137.487869 
L 182.826471 135.61634 
L 183.276788 132.040357 
L 183.855767 125.227656 
L 184.885063 109.418538 
L 186.043021 92.706852 
L 186.814993 84.607792 
L 187.715627 77.759914 
L 188.230276 75.175494 
L 189.066579 72.037124 
L 189.645558 69.367847 
L 190.610523 66.708517 
L 191.125171 65.800288 
L 191.639819 64.887121 
L 192.411791 63.286077 
L 192.926439 62.777837 
L 193.63408 62.1661 
L 194.213059 61.712568 
L 195.306686 61.51917 
L 195.628341 61.401502 
L 196.528975 60.831744 
L 196.914961 60.753135 
L 197.622603 60.401322 
L 197.879927 60.631408 
L 199.166547 62.255356 
L 199.488202 62.765643 
L 200.324505 64.248194 
L 201.739787 65.929865 
L 202.318766 66.260291 
L 203.090738 66.406446 
L 205.020668 66.423157 
L 215.506623 66.508727 
L 215.828278 66.822057 
L 216.149933 67.451886 
L 216.535919 68.781699 
L 216.986236 71.221126 
L 217.565215 75.712712 
L 218.787504 87.50126 
L 220.267117 101.498653 
L 221.167751 108.026252 
L 221.875392 111.649349 
L 222.969019 115.917772 
L 223.67666 117.911946 
L 224.834619 120.799256 
L 225.863915 122.531291 
L 226.764549 123.402917 
L 230.174092 125.84087 
L 230.753071 126.861359 
L 231.267719 128.403352 
L 232.104022 131.849342 
L 233.133319 135.977913 
L 233.776629 137.713733 
L 234.291277 138.567353 
L 234.741594 138.945399 
L 235.320573 139.11869 
L 236.349869 139.146752 
L 236.349869 139.146752 
" clip-path="url(#pb9c6e4b77d)" style="fill: none; stroke: #ff7f0e; stroke-width: 0.5; stroke-linecap: square"/>
   </g>
   <g id="line2d_16">
    <path d="M 43.356847 17.002801 
L 53.77847 16.897753 
L 54.743436 16.766212 
L 55.515408 16.985154 
L 56.351711 17.144439 
L 56.802028 17.087013 
L 57.252345 16.833038 
L 57.895655 16.454438 
L 58.281641 16.544672 
L 59.568261 17.15289 
L 60.14724 16.831149 
L 60.79055 16.565932 
L 61.176536 16.712863 
L 62.012839 17.085063 
L 62.849142 17.148706 
L 63.299459 16.961102 
L 64.071432 16.594204 
L 64.457418 16.559732 
L 64.779073 16.787648 
L 65.744038 17.657883 
L 66.194355 17.836627 
L 66.51601 17.714273 
L 67.673968 16.863311 
L 68.059954 16.969584 
L 68.831926 17.306995 
L 69.153581 17.171632 
L 70.37587 16.303344 
L 70.890518 16.478178 
L 72.241469 17.104809 
L 72.756118 16.956148 
L 73.592421 16.686265 
L 74.107069 16.78893 
L 75.45802 17.302386 
L 75.972668 17.124549 
L 77.001964 16.69799 
L 77.516612 16.799264 
L 78.996225 17.30641 
L 79.639535 17.160664 
L 81.183479 16.709607 
L 82.019783 16.741712 
L 83.306403 17.059316 
L 84.528692 17.297539 
L 85.622319 17.256346 
L 88.452883 16.967792 
L 89.675172 17.213057 
L 90.447145 17.10237 
L 91.605103 17.11159 
L 92.441406 16.937525 
L 93.149047 16.903546 
L 93.792357 16.701856 
L 94.307005 16.603188 
L 97.073238 16.748388 
L 97.523555 16.853029 
L 99.196162 17.442985 
L 99.71081 17.338001 
L 100.547113 17.125511 
L 101.319085 16.975765 
L 103.249015 17.330753 
L 104.149649 16.934225 
L 105.436269 16.528863 
L 106.14391 16.514189 
L 106.980213 16.749502 
L 109.103137 17.489474 
L 109.810778 17.407602 
L 110.58275 17.055803 
L 111.676377 16.52807 
L 112.126694 16.554404 
L 112.641342 16.838752 
L 113.606307 17.476746 
L 113.992293 17.446251 
L 114.44261 17.149298 
L 115.278913 16.537357 
L 115.664899 16.551803 
L 116.115216 16.84413 
L 116.95152 17.4548 
L 117.337506 17.437652 
L 117.787823 17.128926 
L 118.624126 16.516169 
L 119.010112 16.531268 
L 119.589091 16.873413 
L 120.039408 17.010866 
L 120.489725 16.912918 
L 121.261697 16.738908 
L 123.770606 17.249497 
L 124.606909 16.930206 
L 125.185888 17.006187 
L 126.729833 17.256589 
L 127.630467 16.736904 
L 129.367404 16.979457 
L 130.075045 17.50777 
L 130.461031 17.44007 
L 130.975679 17.089173 
L 131.68332 16.640311 
L 132.197968 16.469538 
L 132.583954 16.592959 
L 133.61325 17.307128 
L 133.999236 17.154316 
L 135.157195 16.392077 
L 135.414519 16.66871 
L 136.250822 17.86812 
L 136.508146 17.896195 
L 136.829801 17.64643 
L 137.344449 16.817766 
L 137.794766 16.201575 
L 138.116421 16.084747 
L 138.373745 16.21842 
L 138.759731 16.730276 
L 139.531703 17.84076 
L 139.853358 17.912688 
L 140.110682 17.738748 
L 140.560999 17.08044 
L 141.204309 16.178963 
L 141.525964 16.086171 
L 141.847619 16.290279 
L 142.362267 17.006794 
L 143.005577 17.801779 
L 143.391563 17.923956 
L 143.77755 17.758381 
L 144.356529 17.181819 
L 145.257163 16.306364 
L 145.771811 16.094331 
L 146.286459 16.130259 
L 146.865438 16.416088 
L 147.894734 17.250843 
L 148.731037 17.806187 
L 149.310016 17.92152 
L 149.888995 17.78748 
L 150.403643 17.452194 
L 151.883256 16.289966 
L 152.526567 16.239266 
L 153.684525 16.457981 
L 154.392166 17.133977 
L 154.906814 17.511991 
L 156.000441 17.825606 
L 156.836744 17.572856 
L 157.415723 17.209191 
L 157.994702 16.813272 
L 159.409984 16.508821 
L 160.760935 16.840008 
L 161.146921 16.912052 
L 162.30488 16.743709 
L 163.269845 16.978936 
L 164.556465 17.227674 
L 165.135444 17.029297 
L 167.001043 16.500236 
L 167.837346 16.958221 
L 168.802311 17.304917 
L 169.574283 17.398887 
L 170.410587 17.229028 
L 172.790834 16.587066 
L 173.562806 16.71566 
L 174.656433 17.162682 
L 175.492736 17.414628 
L 176.007384 17.357848 
L 176.650694 17.025683 
L 177.486997 16.598566 
L 177.937314 16.646367 
L 178.451962 16.963531 
L 179.159603 17.393438 
L 179.54559 17.392313 
L 179.995907 17.152426 
L 180.896541 16.601407 
L 181.282527 16.632779 
L 181.797175 16.959456 
L 182.569147 17.446193 
L 182.955133 17.404191 
L 183.40545 17.062051 
L 184.113091 16.466895 
L 184.434746 16.492877 
L 184.820732 16.783295 
L 185.528373 17.418115 
L 185.850028 17.352905 
L 186.300345 16.933095 
L 186.943655 16.283334 
L 187.200979 16.329795 
L 187.586965 16.679241 
L 188.230276 17.62911 
L 188.616262 18.024203 
L 188.809255 17.990091 
L 189.066579 17.698381 
L 189.838551 16.586692 
L 190.095875 16.624963 
L 190.481861 17.002003 
L 190.932178 17.394168 
L 191.382495 17.416959 
L 191.832812 17.200014 
L 192.604784 16.778496 
L 193.055101 16.815265 
L 193.376756 17.011978 
L 194.341721 17.887056 
L 194.599045 17.760972 
L 195.499679 16.950691 
L 196.078658 16.901603 
L 196.400313 17.042893 
L 197.172286 17.516844 
L 197.558272 17.520861 
L 197.879927 17.260844 
L 198.458906 16.745438 
L 198.973554 16.644637 
L 199.552533 16.816744 
L 200.260174 17.040405 
L 200.710491 16.901215 
L 201.418132 16.685773 
L 201.93278 16.790668 
L 203.283731 17.299505 
L 203.798379 17.126241 
L 204.827675 16.702278 
L 205.277992 16.784636 
L 206.757606 17.295321 
L 207.400916 17.090133 
L 208.494543 16.715944 
L 209.202184 16.746571 
L 210.488804 17.102492 
L 211.582431 17.298277 
L 212.547396 17.232569 
L 214.155671 16.81821 
L 215.31363 16.641116 
L 216.214264 16.694631 
L 217.951201 16.945667 
L 218.723173 16.786133 
L 220.331448 16.404528 
L 221.296413 16.74823 
L 222.132716 17.13123 
L 222.711695 17.366618 
L 223.805323 17.800183 
L 224.25564 17.786038 
L 225.284936 17.610386 
L 227.279197 17.328455 
L 228.051169 16.877594 
L 228.437155 16.902188 
L 228.823141 16.890972 
L 229.916768 16.627758 
L 233.004657 17.126794 
L 234.419939 17.490896 
L 235.191911 17.391014 
L 236.156876 17.015464 
L 236.349869 16.928082 
L 236.349869 16.928082 
" clip-path="url(#pb9c6e4b77d)" style="fill: none; stroke: #2ca02c; stroke-width: 0.5; stroke-linecap: square"/>
   </g>
   <g id="line2d_17">
    <path d="M 43.356847 17.002801 
L 53.77847 17.106629 
L 54.486111 17.106599 
L 55.708401 16.876142 
L 56.480373 17.065241 
L 57.252345 17.364726 
L 57.574 17.239727 
L 58.667627 16.596171 
L 58.989282 16.677259 
L 60.211571 17.275426 
L 60.533226 17.052284 
L 61.047874 16.608974 
L 61.369529 16.617931 
L 62.334494 16.968533 
L 62.72048 17.017731 
L 63.36379 17.364328 
L 64.071432 17.231744 
L 64.393087 17.004922 
L 65.100728 16.367995 
L 65.486714 16.532464 
L 65.937031 16.853061 
L 66.837665 17.662051 
L 67.094989 17.638674 
L 67.416644 17.286558 
L 67.995623 16.706151 
L 68.317278 16.610154 
L 68.638933 16.752409 
L 69.603898 17.4236 
L 70.118546 17.206365 
L 71.083511 16.634807 
L 71.469497 16.687204 
L 72.949111 17.259972 
L 73.592421 17.017777 
L 74.428724 16.697874 
L 74.879041 16.767233 
L 76.422985 17.281016 
L 77.001964 17.026988 
L 77.773936 16.708942 
L 78.288584 16.747823 
L 79.253549 17.147758 
L 79.96119 17.306272 
L 80.668831 17.231816 
L 83.370734 16.706228 
L 84.40003 16.89268 
L 85.879643 17.185522 
L 86.844608 17.155407 
L 88.452883 17.007978 
L 90.125489 17.183367 
L 90.833131 17.017713 
L 92.441406 17.241653 
L 93.020385 17.045421 
L 93.856688 16.744939 
L 94.757322 16.806763 
L 96.301266 17.184808 
L 98.745844 17.196154 
L 99.324824 17.149884 
L 100.868768 16.753038 
L 101.962395 16.861797 
L 102.863029 17.130794 
L 103.57067 17.35916 
L 104.728628 17.3973 
L 105.629262 17.080858 
L 107.108875 16.555693 
L 107.880847 16.534281 
L 108.65282 16.746828 
L 110.775743 17.489018 
L 111.290391 17.349164 
L 112.062363 16.849882 
L 112.705673 16.526332 
L 113.091659 16.553927 
L 113.541976 16.824896 
L 114.506941 17.484524 
L 114.892927 17.42487 
L 115.407575 17.04106 
L 116.115216 16.539648 
L 116.501202 16.555589 
L 116.95152 16.863181 
L 117.723492 17.441712 
L 118.109478 17.43145 
L 118.624126 17.130656 
L 119.331767 16.725416 
L 119.782084 16.805181 
L 120.940042 17.18681 
L 121.969338 16.899637 
L 122.998634 16.807362 
L 123.38462 16.886735 
L 123.834937 17.193144 
L 124.156592 17.309202 
L 124.542578 17.033208 
L 124.992895 16.822893 
L 126.343847 16.972552 
L 126.987157 17.503449 
L 127.308812 17.266832 
L 127.694798 17.065304 
L 128.531101 16.935908 
L 129.689059 16.508809 
L 130.718355 17.354904 
L 131.425996 17.446687 
L 131.876313 17.203464 
L 132.96994 16.443499 
L 133.291595 16.671052 
L 134.25656 17.555704 
L 134.578215 17.421368 
L 134.899871 17.026256 
L 135.543181 16.180515 
L 135.800505 16.217194 
L 136.12216 16.549031 
L 137.151456 17.938975 
L 137.40878 17.893504 
L 137.730435 17.55864 
L 138.824062 16.094942 
L 139.081386 16.120729 
L 139.403041 16.428043 
L 140.560999 17.922363 
L 140.818323 17.855232 
L 141.139978 17.51251 
L 142.233605 16.100895 
L 142.55526 16.128399 
L 142.941246 16.463159 
L 144.227867 17.86693 
L 144.613853 17.918887 
L 145.06417 17.741492 
L 145.771811 17.164979 
L 146.865438 16.29049 
L 147.444417 16.09004 
L 147.959065 16.130355 
L 148.538044 16.40866 
L 149.503009 17.188543 
L 150.339312 17.752509 
L 150.918291 17.862209 
L 151.49727 17.735207 
L 151.947587 17.432197 
L 153.298539 16.311875 
L 154.134842 16.146026 
L 155.099807 16.53488 
L 156.57942 17.416704 
L 157.801709 17.75367 
L 158.445019 17.78496 
L 158.959667 17.548539 
L 159.988963 17.014139 
L 162.047556 16.875614 
L 162.690866 16.928215 
L 163.848824 16.938243 
L 165.264106 17.084358 
L 167.708684 16.634952 
L 168.416325 16.661146 
L 169.767276 17.149298 
L 170.732242 17.400533 
L 171.504214 17.37983 
L 172.404848 17.12259 
L 174.077454 16.597791 
L 174.785095 16.645767 
L 175.492736 16.938905 
L 176.586363 17.41453 
L 177.03668 17.354595 
L 177.615659 17.012281 
L 178.3233 16.608466 
L 178.709286 16.61565 
L 179.159603 16.857586 
L 180.060238 17.406889 
L 180.446224 17.373604 
L 180.960872 17.056682 
L 181.732844 16.577086 
L 182.11883 16.593265 
L 182.569147 16.891473 
L 183.534112 17.583761 
L 183.855767 17.545356 
L 184.177422 17.237938 
L 185.013725 16.311538 
L 185.206718 16.342697 
L 185.464042 16.66449 
L 186.171683 17.746209 
L 186.429007 17.728533 
L 186.750662 17.375447 
L 187.586965 16.300308 
L 188.037282 16.246887 
L 188.294607 16.39695 
L 188.616262 16.938533 
L 189.195241 17.959628 
L 189.388234 17.968475 
L 189.645558 17.607219 
L 190.288868 16.575177 
L 190.546192 16.507837 
L 190.867847 16.709746 
L 191.70415 17.390574 
L 192.025805 17.414386 
L 192.34746 17.212425 
L 193.505418 16.26091 
L 193.762742 16.267834 
L 194.020066 16.561214 
L 194.792038 17.709222 
L 195.049362 17.56074 
L 195.692672 17.064819 
L 196.20732 16.734833 
L 196.593306 16.517249 
L 196.979292 16.662381 
L 197.493941 17.122839 
L 198.008589 17.544621 
L 198.330244 17.435186 
L 199.681195 16.745803 
L 200.195843 17.019431 
L 200.710491 17.197226 
L 201.160808 17.148116 
L 202.640421 16.744448 
L 203.412393 17.128879 
L 203.991372 17.303559 
L 204.441689 17.217433 
L 205.856971 16.710567 
L 206.435951 16.912773 
L 207.400916 17.291205 
L 207.979895 17.257798 
L 209.137853 16.863728 
L 210.038487 16.703344 
L 210.939121 16.786376 
L 213.898347 17.278615 
L 214.991975 17.06455 
L 215.699616 16.970765 
L 218.144194 16.844617 
L 218.658842 16.911837 
L 219.945462 17.115751 
L 220.781765 16.748655 
L 221.425075 16.570319 
L 222.197047 16.595339 
L 223.483667 17.166767 
L 224.25564 17.138933 
L 226.314232 16.835196 
L 227.150535 17.162919 
L 227.793845 17.191846 
L 228.437155 17.270045 
L 229.40212 17.02821 
L 230.174092 16.910813 
L 230.753071 16.825779 
L 231.589374 16.715891 
L 232.554339 16.60554 
L 233.776629 16.764477 
L 234.612932 17.06464 
L 235.77089 17.454199 
L 236.349869 17.484128 
L 236.349869 17.484128 
" clip-path="url(#pb9c6e4b77d)" style="fill: none; stroke: #d62728; stroke-width: 0.5; stroke-linecap: square"/>
   </g>
   <g id="patch_3">
    <path d="M 33.707196 202.559296 
L 33.707196 7.2 
" style="fill: none; stroke: #000000; stroke-width: 0.8; stroke-linejoin: miter; stroke-linecap: square"/>
   </g>
   <g id="patch_4">
    <path d="M 245.99952 202.559296 
L 245.99952 7.2 
" style="fill: none; stroke: #000000; stroke-width: 0.8; stroke-linejoin: miter; stroke-linecap: square"/>
   </g>
   <g id="patch_5">
    <path d="M 33.707196 202.559296 
L 245.99952 202.559296 
" style="fill: none; stroke: #000000; stroke-width: 0.8; stroke-linejoin: miter; stroke-linecap: square"/>
   </g>
   <g id="patch_6">
    <path d="M 33.707196 7.2 
L 245.99952 7.2 
" style="fill: none; stroke: #000000; stroke-width: 0.8; stroke-linejoin: miter; stroke-linecap: square"/>
   </g>
   <g id="legend_1">
    <g id="patch_7">
     <path d="M 193.792605 198.059296 
L 239.69952 198.059296 
Q 241.49952 198.059296 241.49952 196.259296 
L 241.49952 156.760168 
Q 241.49952 154.960168 239.69952 154.960168 
L 193.792605 154.960168 
Q 191.992605 154.960168 191.992605 156.760168 
L 191.992605 196.259296 
Q 191.992605 198.059296 193.792605 198.059296 
z
" style="fill: #ffffff; opacity: 0.8; stroke: #cccccc; stroke-width: 0.24; stroke-linejoin: miter"/>
    </g>
    <g id="line2d_18">
     <path d="M 195.592605 162.13495 
L 204.592605 162.13495 
L 213.592605 162.13495 
" style="fill: none; stroke: #ff7f0e; stroke-width: 0.5; stroke-linecap: square"/>
    </g>
    <g id="text_16">
     <!-- $\langle \sigma_z\rangle$ -->
     <g transform="translate(220.792605 165.28495) scale(0.09 -0.09)">
      <defs>
       <path id="CMSY10-68" d="M 2099 4557 
C 2131 4627 2131 4640 2131 4672 
C 2131 4742 2074 4800 2003 4800 
C 1946 4800 1901 4768 1856 4653 
L 736 1715 
C 723 1677 704 1638 704 1600 
C 704 1581 704 1568 736 1491 
L 1856 -1446 
C 1882 -1517 1914 -1600 2003 -1600 
C 2074 -1600 2131 -1542 2131 -1472 
C 2131 -1453 2131 -1440 2099 -1370 
L 966 1600 
L 2099 4557 
z
" transform="scale(0.015625)"/>
       <path id="CMMI12-1b" d="M 3251 2408 
C 3334 2408 3546 2408 3546 2612 
C 3546 2752 3424 2752 3309 2752 
L 1894 2752 
C 934 2752 243 1686 243 932 
C 243 390 595 -64 1171 -64 
C 1926 -64 2752 747 2752 1705 
C 2752 1954 2694 2196 2541 2408 
L 3251 2408 
z
M 1178 64 
C 851 64 614 313 614 754 
C 614 1137 845 2408 1786 2408 
C 2061 2408 2368 2274 2368 1781 
C 2368 1558 2266 1021 2042 652 
C 1811 275 1466 64 1178 64 
z
" transform="scale(0.015625)"/>
       <path id="CMMI12-7a" d="M 813 486 
C 1088 803 1312 1004 1632 1296 
C 2016 1632 2182 1793 2272 1891 
C 2720 2338 2944 2713 2944 2764 
C 2944 2816 2893 2816 2880 2816 
C 2835 2816 2822 2793 2790 2750 
C 2630 2494 2477 2367 2310 2367 
C 2176 2367 2106 2421 1984 2565 
C 1850 2715 1741 2816 1555 2816 
C 1088 2816 806 2257 806 2128 
C 806 2108 813 2068 870 2068 
C 922 2068 928 2091 947 2133 
C 1056 2372 1363 2414 1485 2414 
C 1619 2414 1747 2376 1882 2327 
C 2125 2240 2227 2240 2291 2240 
C 2336 2240 2362 2240 2394 2246 
C 2182 1994 1837 1683 1549 1418 
L 902 816 
C 512 415 275 33 275 -12 
C 275 -51 307 -64 346 -64 
C 384 -64 390 -57 435 14 
C 538 163 742 384 979 384 
C 1114 384 1178 342 1306 193 
C 1427 61 1536 -64 1741 -64 
C 2368 -64 2726 732 2726 876 
C 2726 903 2720 942 2656 942 
C 2605 942 2598 917 2579 855 
C 2438 488 2061 338 1811 338 
C 1677 338 1549 376 1414 425 
C 1158 512 1088 512 1005 512 
C 941 512 870 512 813 486 
z
" transform="scale(0.015625)"/>
       <path id="CMSY10-69" d="M 1747 1491 
C 1779 1568 1779 1581 1779 1600 
C 1779 1619 1779 1632 1747 1709 
L 627 4653 
C 589 4762 550 4800 480 4800 
C 410 4800 352 4742 352 4672 
C 352 4653 352 4640 384 4570 
L 1517 1600 
L 384 -1357 
C 352 -1427 352 -1440 352 -1472 
C 352 -1542 410 -1600 480 -1600 
C 563 -1600 589 -1536 614 -1472 
L 1747 1491 
z
" transform="scale(0.015625)"/>
      </defs>
      <use xlink:href="#CMSY10-68" transform="scale(0.996264)"/>
      <use xlink:href="#CMMI12-1b" transform="translate(38.743734 0) scale(0.996264)"/>
      <use xlink:href="#CMMI12-7a" transform="translate(94.189195 -14.943915) scale(0.697382)"/>
      <use xlink:href="#CMSY10-69" transform="translate(129.51575 0) scale(0.996264)"/>
     </g>
    </g>
    <g id="line2d_19">
     <path d="M 195.592605 175.601326 
L 204.592605 175.601326 
L 213.592605 175.601326 
" style="fill: none; stroke: #2ca02c; stroke-width: 0.5; stroke-linecap: square"/>
    </g>
    <g id="text_17">
     <!-- $\langle \sigma_x\rangle$ -->
     <g transform="translate(220.792605 178.751326) scale(0.09 -0.09)">
      <defs>
       <path id="CMMI12-78" d="M 3034 2606 
C 2829 2567 2752 2414 2752 2293 
C 2752 2139 2874 2088 2963 2088 
C 3155 2088 3290 2254 3290 2427 
C 3290 2695 2982 2816 2714 2816 
C 2323 2816 2106 2433 2048 2312 
C 1901 2816 1504 2816 1389 2816 
C 736 2816 390 1980 390 1839 
C 390 1814 416 1782 461 1782 
C 512 1782 525 1820 538 1846 
C 755 2555 1184 2689 1370 2689 
C 1658 2689 1715 2420 1715 2267 
C 1715 2127 1677 1980 1600 1673 
L 1382 798 
C 1286 415 1101 64 762 64 
C 730 64 570 64 435 147 
C 666 192 717 383 717 460 
C 717 588 621 664 499 664 
C 346 664 179 530 179 326 
C 179 57 480 -64 755 -64 
C 1062 -64 1280 179 1414 441 
C 1517 64 1837 -64 2074 -64 
C 2726 -64 3072 773 3072 913 
C 3072 945 3046 971 3008 971 
C 2950 971 2944 939 2925 888 
C 2752 326 2381 64 2093 64 
C 1869 64 1747 230 1747 492 
C 1747 632 1773 734 1875 1156 
L 2099 2024 
C 2195 2408 2413 2689 2707 2689 
C 2720 2689 2899 2689 3034 2606 
z
" transform="scale(0.015625)"/>
      </defs>
      <use xlink:href="#CMSY10-68" transform="scale(0.996264)"/>
      <use xlink:href="#CMMI12-1b" transform="translate(38.743734 0) scale(0.996264)"/>
      <use xlink:href="#CMMI12-78" transform="translate(94.189195 -14.943915) scale(0.697382)"/>
      <use xlink:href="#CMSY10-69" transform="translate(133.490986 0) scale(0.996264)"/>
     </g>
    </g>
    <g id="line2d_20">
     <path d="M 195.592605 189.067702 
L 204.592605 189.067702 
L 213.592605 189.067702 
" style="fill: none; stroke: #d62728; stroke-width: 0.5; stroke-linecap: square"/>
    </g>
    <g id="text_18">
     <!-- $\langle \sigma_y\rangle$ -->
     <g transform="translate(220.792605 192.217702) scale(0.09 -0.09)">
      <defs>
       <path id="CMMI12-79" d="M 1683 -700 
C 1510 -939 1261 -1152 947 -1152 
C 870 -1152 563 -1152 467 -889 
C 486 -895 518 -895 531 -895 
C 723 -895 851 -729 851 -582 
C 851 -435 730 -384 634 -384 
C 531 -384 307 -458 307 -759 
C 307 -1071 582 -1286 947 -1286 
C 1587 -1286 2234 -700 2413 6 
L 3040 2485 
C 3046 2517 3059 2556 3059 2594 
C 3059 2689 2982 2753 2886 2753 
C 2829 2753 2694 2727 2643 2535 
L 2170 658 
C 2138 543 2138 530 2086 460 
C 1958 281 1747 64 1440 64 
C 1082 64 1050 415 1050 588 
C 1050 952 1222 1443 1395 1903 
C 1466 2088 1504 2178 1504 2305 
C 1504 2574 1312 2816 998 2816 
C 410 2816 173 1890 173 1839 
C 173 1814 198 1782 243 1782 
C 301 1782 307 1807 333 1897 
C 486 2433 730 2689 979 2689 
C 1037 2689 1146 2689 1146 2478 
C 1146 2312 1075 2127 979 1884 
C 666 1047 666 837 666 683 
C 666 77 1101 -64 1421 -64 
C 1606 -64 1837 -6 2061 230 
L 2067 224 
C 1971 -147 1907 -392 1683 -700 
z
" transform="scale(0.015625)"/>
      </defs>
      <use xlink:href="#CMSY10-68" transform="scale(0.996264)"/>
      <use xlink:href="#CMMI12-1b" transform="translate(38.743734 0) scale(0.996264)"/>
      <use xlink:href="#CMMI12-79" transform="translate(94.189195 -14.943915) scale(0.697382)"/>
      <use xlink:href="#CMSY10-69" transform="translate(130.484301 0) scale(0.996264)"/>
     </g>
    </g>
   </g>
  </g>
 </g>
 <defs>
  <clipPath id="pb9c6e4b77d">
   <rect x="33.707196" y="7.2" width="212.292324" height="195.359296"/>
  </clipPath>
 </defs>
</svg>
