<?xml version="1.0" encoding="utf-8" standalone="no"?>
<!DOCTYPE svg PUBLIC "-//W3C//DTD SVG 1.1//EN"
  "http://www.w3.org/Graphics/SVG/1.1/DTD/svg11.dtd">
<svg xmlns:xlink="http://www.w3.org/1999/xlink" width="253.19952pt" height="238.79952pt" viewBox="0 0 253.19952 238.79952" xmlns="http://www.w3.org/2000/svg" version="1.1">
 <metadata>
  <rdf:RDF xmlns:dc="http://purl.org/dc/elements/1.1/" xmlns:cc="http://creativecommons.org/ns#" xmlns:rdf="http://www.w3.org/1999/02/22-rdf-syntax-ns#">
   <cc:Work>
    <dc:type rdf:resource="http://purl.org/dc/dcmitype/StillImage"/>
    <dc:date>1980-01-01T00:00:00+00:00</dc:date>
    <dc:format>image/svg+xml</dc:format>
    <dc:creator>
     <cc:Agent>
      <dc:title>Matplotlib v3.6.2, https://matplotlib.org/</dc:title>
     </cc:Agent>
    </dc:creator>
   </cc:Work>
  </rdf:RDF>
 </metadata>
 <defs>
  <style type="text/css">*{stroke-linejoin: round; stroke-linecap: butt}</style>
 </defs>
 <g id="figure_1">
  <g id="patch_1">
   <path d="M 0 238.79952 
L 253.19952 238.79952 
L 253.19952 0 
L 0 0 
z
" style="fill: #ffffff"/>
  </g>
  <g id="axes_1">
   <g id="patch_2">
    <path d="M 33.707196 202.559296 
L 245.99952 202.559296 
L 245.99952 7.2 
L 33.707196 7.2 
z
" style="fill: #ffffff"/>
   </g>
   <g id="matplotlib.axis_1">
    <g id="xtick_1">
     <g id="line2d_1">
      <defs>
       <path id="mc3a3869e9f" d="M 0 0 
L 0 3.5 
" style="stroke: #000000; stroke-width: 0.8"/>
      </defs>
      <g>
       <use xlink:href="#mc3a3869e9f" x="43.356847" y="202.559296" style="stroke: #000000; stroke-width: 0.8"/>
      </g>
     </g>
     <g id="text_1">
      <!-- $\mathdefault{0}$ -->
      <g transform="translate(41.239756 217.194098) scale(0.08 -0.08)">
       <defs>
        <path id="CMR17-30" d="M 2688 2025 
C 2688 2416 2682 3080 2413 3591 
C 2176 4039 1798 4198 1466 4198 
C 1158 4198 768 4058 525 3597 
C 269 3118 243 2524 243 2025 
C 243 1661 250 1106 448 619 
C 723 -39 1216 -128 1466 -128 
C 1760 -128 2208 -7 2470 600 
C 2662 1042 2688 1559 2688 2025 
z
M 1466 -26 
C 1056 -26 813 325 723 812 
C 653 1188 653 1738 653 2096 
C 653 2588 653 2997 736 3387 
C 858 3929 1216 4096 1466 4096 
C 1728 4096 2067 3923 2189 3400 
C 2272 3036 2278 2607 2278 2096 
C 2278 1680 2278 1169 2202 792 
C 2067 95 1690 -26 1466 -26 
z
" transform="scale(0.015625)"/>
       </defs>
       <use xlink:href="#CMR17-30" transform="scale(0.996264)"/>
      </g>
     </g>
    </g>
    <g id="xtick_2">
     <g id="line2d_2">
      <g>
       <use xlink:href="#mc3a3869e9f" x="70.161434" y="202.559296" style="stroke: #000000; stroke-width: 0.8"/>
      </g>
     </g>
     <g id="text_2">
      <!-- $\mathdefault{25}$ -->
      <g transform="translate(65.927251 217.194098) scale(0.08 -0.08)">
       <defs>
        <path id="CMR17-32" d="M 2669 989 
L 2554 989 
C 2490 536 2438 459 2413 420 
C 2381 369 1920 369 1830 369 
L 602 369 
C 832 619 1280 1072 1824 1597 
C 2214 1967 2669 2402 2669 3035 
C 2669 3790 2067 4224 1395 4224 
C 691 4224 262 3604 262 3030 
C 262 2780 448 2748 525 2748 
C 589 2748 781 2787 781 3010 
C 781 3207 614 3264 525 3264 
C 486 3264 448 3258 422 3245 
C 544 3790 915 4058 1306 4058 
C 1862 4058 2227 3617 2227 3035 
C 2227 2479 1901 2000 1536 1584 
L 262 146 
L 262 0 
L 2515 0 
L 2669 989 
z
" transform="scale(0.015625)"/>
        <path id="CMR17-35" d="M 730 3692 
C 794 3666 1056 3584 1325 3584 
C 1920 3584 2246 3911 2432 4100 
C 2432 4157 2432 4192 2394 4192 
C 2387 4192 2374 4192 2323 4163 
C 2099 4058 1837 3973 1517 3973 
C 1325 3973 1037 3999 723 4139 
C 653 4171 640 4171 634 4171 
C 602 4171 595 4164 595 4037 
L 595 2203 
C 595 2089 595 2057 659 2057 
C 691 2057 704 2070 736 2114 
C 941 2401 1222 2522 1542 2522 
C 1766 2522 2246 2382 2246 1289 
C 2246 1085 2246 715 2054 421 
C 1894 159 1645 25 1370 25 
C 947 25 518 320 403 814 
C 429 807 480 795 506 795 
C 589 795 749 840 749 1038 
C 749 1210 627 1280 506 1280 
C 358 1280 262 1190 262 1011 
C 262 454 704 -128 1382 -128 
C 2042 -128 2669 440 2669 1264 
C 2669 2030 2170 2624 1549 2624 
C 1222 2624 947 2503 730 2274 
L 730 3692 
z
" transform="scale(0.015625)"/>
       </defs>
       <use xlink:href="#CMR17-32" transform="scale(0.996264)"/>
       <use xlink:href="#CMR17-35" transform="translate(45.690477 0) scale(0.996264)"/>
      </g>
     </g>
    </g>
    <g id="xtick_3">
     <g id="line2d_3">
      <g>
       <use xlink:href="#mc3a3869e9f" x="96.96602" y="202.559296" style="stroke: #000000; stroke-width: 0.8"/>
      </g>
     </g>
     <g id="text_3">
      <!-- $\mathdefault{50}$ -->
      <g transform="translate(92.731837 217.194098) scale(0.08 -0.08)">
       <use xlink:href="#CMR17-35" transform="scale(0.996264)"/>
       <use xlink:href="#CMR17-30" transform="translate(45.690477 0) scale(0.996264)"/>
      </g>
     </g>
    </g>
    <g id="xtick_4">
     <g id="line2d_4">
      <g>
       <use xlink:href="#mc3a3869e9f" x="123.770606" y="202.559296" style="stroke: #000000; stroke-width: 0.8"/>
      </g>
     </g>
     <g id="text_4">
      <!-- $\mathdefault{75}$ -->
      <g transform="translate(119.536423 217.194098) scale(0.08 -0.08)">
       <defs>
        <path id="CMR17-37" d="M 2886 3941 
L 2886 4081 
L 1382 4081 
C 634 4081 621 4165 595 4288 
L 480 4288 
L 294 3094 
L 410 3094 
C 429 3215 474 3540 550 3661 
C 589 3712 1062 3712 1171 3712 
L 2579 3712 
L 1869 2661 
C 1395 1954 1069 999 1069 165 
C 1069 89 1069 -128 1299 -128 
C 1530 -128 1530 89 1530 171 
L 1530 465 
C 1530 1508 1709 2196 2003 2636 
L 2886 3941 
z
" transform="scale(0.015625)"/>
       </defs>
       <use xlink:href="#CMR17-37" transform="scale(0.996264)"/>
       <use xlink:href="#CMR17-35" transform="translate(45.690477 0) scale(0.996264)"/>
      </g>
     </g>
    </g>
    <g id="xtick_5">
     <g id="line2d_5">
      <g>
       <use xlink:href="#mc3a3869e9f" x="150.575193" y="202.559296" style="stroke: #000000; stroke-width: 0.8"/>
      </g>
     </g>
     <g id="text_5">
      <!-- $\mathdefault{100}$ -->
      <g transform="translate(144.223918 217.194098) scale(0.08 -0.08)">
       <defs>
        <path id="CMR17-31" d="M 1702 4058 
C 1702 4192 1696 4192 1606 4192 
C 1357 3916 979 3827 621 3827 
C 602 3827 570 3827 563 3808 
C 557 3795 557 3782 557 3648 
C 755 3648 1088 3686 1344 3839 
L 1344 461 
C 1344 236 1331 160 781 160 
L 589 160 
L 589 0 
C 896 0 1216 0 1523 0 
C 1830 0 2150 0 2458 0 
L 2458 160 
L 2266 160 
C 1715 160 1702 230 1702 458 
L 1702 4058 
z
" transform="scale(0.015625)"/>
       </defs>
       <use xlink:href="#CMR17-31" transform="scale(0.996264)"/>
       <use xlink:href="#CMR17-30" transform="translate(45.690477 0) scale(0.996264)"/>
       <use xlink:href="#CMR17-30" transform="translate(91.380954 0) scale(0.996264)"/>
      </g>
     </g>
    </g>
    <g id="xtick_6">
     <g id="line2d_6">
      <g>
       <use xlink:href="#mc3a3869e9f" x="177.379779" y="202.559296" style="stroke: #000000; stroke-width: 0.8"/>
      </g>
     </g>
     <g id="text_6">
      <!-- $\mathdefault{125}$ -->
      <g transform="translate(171.028505 217.194098) scale(0.08 -0.08)">
       <use xlink:href="#CMR17-31" transform="scale(0.996264)"/>
       <use xlink:href="#CMR17-32" transform="translate(45.690477 0) scale(0.996264)"/>
       <use xlink:href="#CMR17-35" transform="translate(91.380954 0) scale(0.996264)"/>
      </g>
     </g>
    </g>
    <g id="xtick_7">
     <g id="line2d_7">
      <g>
       <use xlink:href="#mc3a3869e9f" x="204.184365" y="202.559296" style="stroke: #000000; stroke-width: 0.8"/>
      </g>
     </g>
     <g id="text_7">
      <!-- $\mathdefault{150}$ -->
      <g transform="translate(197.833091 217.194098) scale(0.08 -0.08)">
       <use xlink:href="#CMR17-31" transform="scale(0.996264)"/>
       <use xlink:href="#CMR17-35" transform="translate(45.690477 0) scale(0.996264)"/>
       <use xlink:href="#CMR17-30" transform="translate(91.380954 0) scale(0.996264)"/>
      </g>
     </g>
    </g>
    <g id="xtick_8">
     <g id="line2d_8">
      <g>
       <use xlink:href="#mc3a3869e9f" x="230.988952" y="202.559296" style="stroke: #000000; stroke-width: 0.8"/>
      </g>
     </g>
     <g id="text_8">
      <!-- $\mathdefault{175}$ -->
      <g transform="translate(224.637677 217.194098) scale(0.08 -0.08)">
       <use xlink:href="#CMR17-31" transform="scale(0.996264)"/>
       <use xlink:href="#CMR17-37" transform="translate(45.690477 0) scale(0.996264)"/>
       <use xlink:href="#CMR17-35" transform="translate(91.380954 0) scale(0.996264)"/>
      </g>
     </g>
    </g>
    <g id="text_9">
     <!-- $\tau$ -->
     <g transform="translate(137.675756 229.662342) scale(0.1 -0.1)">
      <defs>
       <path id="CMMI12-1c" d="M 1837 2408 
L 2899 2408 
C 2982 2408 3194 2408 3194 2612 
C 3194 2752 3072 2752 2957 2752 
L 1197 2752 
C 1050 2752 832 2752 538 2440 
C 371 2255 166 1917 166 1879 
C 166 1841 198 1828 237 1828 
C 282 1828 288 1847 320 1885 
C 653 2408 986 2408 1146 2408 
L 1677 2408 
L 1011 223 
C 979 127 979 114 979 95 
C 979 25 1024 -64 1152 -64 
C 1350 -64 1382 108 1402 203 
L 1837 2408 
z
" transform="scale(0.015625)"/>
      </defs>
      <use xlink:href="#CMMI12-1c" transform="scale(0.996264)"/>
     </g>
    </g>
   </g>
   <g id="matplotlib.axis_2">
    <g id="ytick_1">
     <g id="line2d_9">
      <defs>
       <path id="m1a89ae8ada" d="M 0 0 
L -3.5 0 
" style="stroke: #000000; stroke-width: 0.8"/>
      </defs>
      <g>
       <use xlink:href="#m1a89ae8ada" x="33.707196" y="193.679328" style="stroke: #000000; stroke-width: 0.8"/>
      </g>
     </g>
     <g id="text_10">
      <!-- $\mathdefault{−1.0}$ -->
      <g transform="translate(7.2 196.446729) scale(0.08 -0.08)">
       <defs>
        <path id="CMSY10-0" d="M 4218 1472 
C 4326 1472 4442 1472 4442 1600 
C 4442 1728 4326 1728 4218 1728 
L 755 1728 
C 646 1728 531 1728 531 1600 
C 531 1472 646 1472 755 1472 
L 4218 1472 
z
" transform="scale(0.015625)"/>
        <path id="CMMI12-3a" d="M 1178 307 
C 1178 492 1024 619 870 619 
C 685 619 557 466 557 313 
C 557 128 710 0 864 0 
C 1050 0 1178 153 1178 307 
z
" transform="scale(0.015625)"/>
       </defs>
       <use xlink:href="#CMSY10-0" transform="scale(0.996264)"/>
       <use xlink:href="#CMR17-31" transform="translate(77.487468 0) scale(0.996264)"/>
       <use xlink:href="#CMMI12-3a" transform="translate(123.177945 0) scale(0.996264)"/>
       <use xlink:href="#CMR17-30" transform="translate(150.275122 0) scale(0.996264)"/>
      </g>
     </g>
    </g>
    <g id="ytick_2">
     <g id="line2d_10">
      <g>
       <use xlink:href="#m1a89ae8ada" x="33.707196" y="158.376643" style="stroke: #000000; stroke-width: 0.8"/>
      </g>
     </g>
     <g id="text_11">
      <!-- $\mathdefault{−0.8}$ -->
      <g transform="translate(7.2 161.144044) scale(0.08 -0.08)">
       <defs>
        <path id="CMR17-38" d="M 1741 2264 
C 2144 2467 2554 2773 2554 3263 
C 2554 3841 1990 4179 1472 4179 
C 890 4179 378 3759 378 3180 
C 378 3021 416 2747 666 2505 
C 730 2442 998 2251 1171 2130 
C 883 1983 211 1634 211 934 
C 211 279 838 -128 1459 -128 
C 2144 -128 2720 362 2720 1010 
C 2720 1590 2330 1857 2074 2029 
L 1741 2264 
z
M 902 2822 
C 851 2854 595 3051 595 3351 
C 595 3739 998 4032 1459 4032 
C 1965 4032 2336 3676 2336 3262 
C 2336 2669 1670 2331 1638 2331 
C 1632 2331 1626 2331 1574 2370 
L 902 2822 
z
M 2080 1519 
C 2176 1449 2483 1240 2483 851 
C 2483 381 2010 25 1472 25 
C 890 25 448 438 448 940 
C 448 1443 838 1862 1280 2060 
L 2080 1519 
z
" transform="scale(0.015625)"/>
       </defs>
       <use xlink:href="#CMSY10-0" transform="scale(0.996264)"/>
       <use xlink:href="#CMR17-30" transform="translate(77.487468 0) scale(0.996264)"/>
       <use xlink:href="#CMMI12-3a" transform="translate(123.177945 0) scale(0.996264)"/>
       <use xlink:href="#CMR17-38" transform="translate(150.275122 0) scale(0.996264)"/>
      </g>
     </g>
    </g>
    <g id="ytick_3">
     <g id="line2d_11">
      <g>
       <use xlink:href="#m1a89ae8ada" x="33.707196" y="123.073959" style="stroke: #000000; stroke-width: 0.8"/>
      </g>
     </g>
     <g id="text_12">
      <!-- $\mathdefault{−0.6}$ -->
      <g transform="translate(7.2 125.84136) scale(0.08 -0.08)">
       <defs>
        <path id="CMR17-36" d="M 678 2176 
C 678 3690 1395 4032 1811 4032 
C 1946 4032 2272 4009 2400 3776 
C 2298 3776 2106 3776 2106 3553 
C 2106 3381 2246 3323 2336 3323 
C 2394 3323 2566 3348 2566 3560 
C 2566 3954 2246 4179 1805 4179 
C 1043 4179 243 3390 243 1984 
C 243 253 966 -128 1478 -128 
C 2099 -128 2688 427 2688 1283 
C 2688 2081 2170 2662 1517 2662 
C 1126 2662 838 2407 678 1960 
L 678 2176 
z
M 1478 25 
C 691 25 691 1200 691 1436 
C 691 1896 909 2560 1504 2560 
C 1613 2560 1926 2560 2138 2120 
C 2253 1870 2253 1609 2253 1289 
C 2253 944 2253 690 2118 434 
C 1978 171 1773 25 1478 25 
z
" transform="scale(0.015625)"/>
       </defs>
       <use xlink:href="#CMSY10-0" transform="scale(0.996264)"/>
       <use xlink:href="#CMR17-30" transform="translate(77.487468 0) scale(0.996264)"/>
       <use xlink:href="#CMMI12-3a" transform="translate(123.177945 0) scale(0.996264)"/>
       <use xlink:href="#CMR17-36" transform="translate(150.275122 0) scale(0.996264)"/>
      </g>
     </g>
    </g>
    <g id="ytick_4">
     <g id="line2d_12">
      <g>
       <use xlink:href="#m1a89ae8ada" x="33.707196" y="87.771275" style="stroke: #000000; stroke-width: 0.8"/>
      </g>
     </g>
     <g id="text_13">
      <!-- $\mathdefault{−0.4}$ -->
      <g transform="translate(7.2 90.538676) scale(0.08 -0.08)">
       <defs>
        <path id="CMR17-34" d="M 2150 4122 
C 2150 4256 2144 4256 2029 4256 
L 128 1254 
L 128 1088 
L 1779 1088 
L 1779 457 
C 1779 224 1766 160 1318 160 
L 1197 160 
L 1197 0 
C 1402 0 1747 0 1965 0 
C 2182 0 2528 0 2733 0 
L 2733 160 
L 2611 160 
C 2163 160 2150 224 2150 457 
L 2150 1088 
L 2803 1088 
L 2803 1254 
L 2150 1254 
L 2150 4122 
z
M 1798 3703 
L 1798 1254 
L 256 1254 
L 1798 3703 
z
" transform="scale(0.015625)"/>
       </defs>
       <use xlink:href="#CMSY10-0" transform="scale(0.996264)"/>
       <use xlink:href="#CMR17-30" transform="translate(77.487468 0) scale(0.996264)"/>
       <use xlink:href="#CMMI12-3a" transform="translate(123.177945 0) scale(0.996264)"/>
       <use xlink:href="#CMR17-34" transform="translate(150.275122 0) scale(0.996264)"/>
      </g>
     </g>
    </g>
    <g id="ytick_5">
     <g id="line2d_13">
      <g>
       <use xlink:href="#m1a89ae8ada" x="33.707196" y="52.46859" style="stroke: #000000; stroke-width: 0.8"/>
      </g>
     </g>
     <g id="text_14">
      <!-- $\mathdefault{−0.2}$ -->
      <g transform="translate(7.2 55.235991) scale(0.08 -0.08)">
       <use xlink:href="#CMSY10-0" transform="scale(0.996264)"/>
       <use xlink:href="#CMR17-30" transform="translate(77.487468 0) scale(0.996264)"/>
       <use xlink:href="#CMMI12-3a" transform="translate(123.177945 0) scale(0.996264)"/>
       <use xlink:href="#CMR17-32" transform="translate(150.275122 0) scale(0.996264)"/>
      </g>
     </g>
    </g>
    <g id="ytick_6">
     <g id="line2d_14">
      <g>
       <use xlink:href="#m1a89ae8ada" x="33.707196" y="17.165906" style="stroke: #000000; stroke-width: 0.8"/>
      </g>
     </g>
     <g id="text_15">
      <!-- $\mathdefault{0.0}$ -->
      <g transform="translate(13.786507 19.933307) scale(0.08 -0.08)">
       <use xlink:href="#CMR17-30" transform="scale(0.996264)"/>
       <use xlink:href="#CMMI12-3a" transform="translate(45.690477 0) scale(0.996264)"/>
       <use xlink:href="#CMR17-30" transform="translate(72.787654 0) scale(0.996264)"/>
      </g>
     </g>
    </g>
   </g>
   <g id="line2d_15">
    <path d="M 43.356847 193.679328 
L 52.684843 193.589713 
L 53.006498 193.37533 
L 53.328153 192.861577 
L 53.649808 191.826922 
L 53.971463 190.002456 
L 54.357449 186.379734 
L 54.807767 179.813757 
L 55.386746 167.742552 
L 58.024317 106.694892 
L 58.731958 96.831507 
L 59.568261 88.460474 
L 60.468895 81.29301 
L 61.369529 75.805851 
L 62.205832 72.180103 
L 63.170797 68.700336 
L 63.814108 67.354285 
L 65.22939 64.701952 
L 65.8727 63.709823 
L 67.287982 62.128281 
L 68.638933 61.507678 
L 69.925553 61.655239 
L 70.247208 62.12153 
L 71.791152 64.915174 
L 72.820449 66.464513 
L 73.335097 66.868951 
L 73.978407 67.083376 
L 75.007703 67.133561 
L 86.587284 67.237008 
L 86.97327 67.665812 
L 87.359256 68.492992 
L 87.809573 69.990158 
L 88.25989 72.439412 
L 88.838869 77.194038 
L 90.318483 92.4036 
L 91.862427 107.461945 
L 92.763061 114.074873 
L 93.470702 117.911588 
L 94.435667 121.613848 
L 95.207639 123.969403 
L 95.979611 125.780719 
L 97.137569 127.746208 
L 98.745844 129.606821 
L 100.547113 131.019421 
L 101.447747 131.469578 
L 101.898064 132.194419 
L 102.412712 133.415918 
L 102.991691 135.55603 
L 104.985952 143.614745 
L 105.5006 144.633382 
L 106.015248 145.158232 
L 106.529896 145.357582 
L 107.494861 145.403122 
L 117.080182 145.305034 
L 117.466168 145.06211 
L 117.787823 144.601483 
L 118.109478 143.714657 
L 118.495464 141.791266 
L 118.945781 138.046667 
L 119.460429 131.697096 
L 120.361063 116.843656 
L 121.583352 97.292423 
L 122.290993 88.9355 
L 123.448951 78.944073 
L 124.02793 75.696604 
L 125.121557 71.123539 
L 126.601171 66.708447 
L 127.308812 65.105517 
L 128.273777 63.673635 
L 128.981418 63.098062 
L 129.624728 62.477098 
L 131.104341 61.680362 
L 131.490327 61.62817 
L 132.390961 61.068213 
L 132.841278 60.823255 
L 133.420257 60.945843 
L 134.320891 61.550095 
L 134.771209 62.161494 
L 136.057829 64.292514 
L 136.958463 65.837161 
L 137.601773 66.443801 
L 138.180752 66.705802 
L 139.017055 66.807513 
L 144.549522 66.812602 
L 150.725298 66.892654 
L 151.111284 67.181931 
L 151.49727 67.818975 
L 151.883256 68.962071 
L 152.333573 71.128671 
L 152.912553 75.087986 
L 153.684525 82.122958 
L 156.386427 109.092296 
L 157.351392 115.818829 
L 157.994702 118.966961 
L 158.959667 122.214126 
L 159.924632 124.838568 
L 160.889597 126.902097 
L 162.369211 129.057788 
L 162.94819 129.477559 
L 164.23481 130.01253 
L 165.135444 130.539355 
L 165.714423 131.053464 
L 166.16474 131.873764 
L 166.679388 133.277769 
L 167.258367 135.433415 
L 168.995304 142.602918 
L 169.574283 144.081696 
L 170.088931 144.825392 
L 170.60358 145.163045 
L 171.24689 145.277082 
L 174.013123 145.285539 
L 181.47552 145.181038 
L 181.861506 144.913034 
L 182.183161 144.376462 
L 182.504816 143.357835 
L 182.890802 141.216297 
L 183.341119 137.184648 
L 183.920098 129.539003 
L 185.142387 109.271872 
L 186.171683 93.881818 
L 186.879324 86.465947 
L 187.779958 79.004234 
L 188.423269 75.740263 
L 190.546192 67.736068 
L 192.476122 63.66777 
L 192.797777 63.416159 
L 193.248094 63.199334 
L 193.827073 62.392139 
L 194.213059 62.051954 
L 195.049362 61.699442 
L 195.56401 61.604382 
L 196.014327 61.213267 
L 196.464644 60.812758 
L 196.786299 60.87684 
L 197.172286 60.932863 
L 197.751265 60.87344 
L 198.07292 61.106535 
L 199.295209 62.530673 
L 200.839153 64.897116 
L 201.739787 65.93886 
L 202.318766 66.271452 
L 203.090738 66.42572 
L 204.892006 66.443833 
L 215.249299 66.541569 
L 215.635285 66.891022 
L 215.95694 67.46639 
L 216.342926 68.716922 
L 216.793243 71.072062 
L 217.307891 74.993816 
L 218.208525 83.892172 
L 220.46011 106.556133 
L 221.425075 113.503089 
L 222.197047 117.811593 
L 223.162012 121.871612 
L 223.869654 124.043189 
L 224.577295 125.613776 
L 225.606591 127.288667 
L 226.635887 128.719453 
L 227.407859 129.311636 
L 228.179831 129.931559 
L 230.495747 131.938375 
L 230.946064 133.068007 
L 231.525043 135.166478 
L 233.519305 143.267045 
L 234.098284 144.503639 
L 234.612932 145.081794 
L 235.12758 145.309272 
L 235.963883 145.371858 
L 236.349869 145.372261 
L 236.349869 145.372261 
" clip-path="url(#p2eb9c40997)" style="fill: none; stroke: #ff7f0e; stroke-width: 0.5; stroke-linecap: square"/>
   </g>
   <g id="line2d_16">
    <path d="M 43.356847 17.165906 
L 53.77847 17.060955 
L 54.743436 16.929535 
L 55.515408 17.148275 
L 56.351711 17.307413 
L 56.802028 17.25004 
L 57.252345 16.996299 
L 57.895655 16.618049 
L 58.281641 16.708199 
L 59.568261 17.315856 
L 60.14724 16.994412 
L 60.79055 16.72944 
L 61.176536 16.876235 
L 62.012839 17.248091 
L 62.849142 17.311676 
L 63.299459 17.124245 
L 64.071432 16.757686 
L 64.457418 16.723245 
L 64.779073 16.950951 
L 65.744038 17.820383 
L 66.194355 17.998962 
L 66.51601 17.876721 
L 67.673968 17.026544 
L 68.059954 17.132719 
L 68.831926 17.469819 
L 69.153581 17.334581 
L 70.37587 16.467095 
L 70.890518 16.641767 
L 72.241469 17.267819 
L 72.756118 17.119296 
L 73.592421 16.849662 
L 74.107069 16.952232 
L 75.45802 17.465214 
L 75.972668 17.287541 
L 77.001964 16.861376 
L 77.516612 16.962556 
L 78.996225 17.469234 
L 79.639535 17.323623 
L 81.183479 16.872982 
L 82.019783 16.905058 
L 83.306403 17.222369 
L 84.528692 17.458826 
L 85.622319 17.404818 
L 88.131228 17.135598 
L 88.838869 17.412308 
L 89.54651 17.557919 
L 90.897462 17.700428 
L 91.347779 17.747163 
L 92.248413 17.645538 
L 93.020385 17.694138 
L 93.470702 17.397531 
L 94.178343 16.95283 
L 95.078977 16.856349 
L 99.517817 17.004667 
L 100.675775 16.453397 
L 101.190423 16.356575 
L 101.512078 16.493447 
L 102.412712 17.090752 
L 103.506339 17.504185 
L 104.535635 17.499348 
L 105.436269 17.330337 
L 107.494861 16.86723 
L 108.395496 16.922359 
L 109.682116 17.264485 
L 110.711412 17.46929 
L 111.419053 17.372408 
L 113.220321 16.898631 
L 113.863631 17.187607 
L 114.571272 17.464422 
L 115.021589 17.410511 
L 115.857892 16.987116 
L 116.37254 16.860057 
L 116.887189 16.985522 
L 117.980816 17.397164 
L 118.431133 17.313727 
L 120.039408 16.732463 
L 120.489725 16.902955 
L 121.45469 17.469657 
L 121.712014 17.297845 
L 122.612648 16.478813 
L 122.934303 16.582107 
L 123.448951 17.156133 
L 123.834937 17.383669 
L 124.220923 17.274107 
L 124.928564 16.951843 
L 125.31455 17.051699 
L 126.086523 17.598622 
L 126.472509 17.78336 
L 126.729833 17.692738 
L 127.051488 17.29526 
L 127.630467 16.539221 
L 127.952122 16.450549 
L 128.338108 16.602435 
L 130.075045 17.821174 
L 130.525362 17.709698 
L 130.975679 17.341991 
L 131.554658 16.8475 
L 132.069306 16.752511 
L 132.519623 16.885869 
L 132.905609 17.256341 
L 133.484588 17.827172 
L 133.870574 17.93211 
L 134.127898 17.787047 
L 134.642546 17.090901 
L 135.092864 16.564576 
L 135.350188 16.597598 
L 135.671843 16.997772 
L 136.443815 18.072378 
L 136.701139 18.097655 
L 136.958463 17.907345 
L 137.40878 17.207686 
L 137.987759 16.397431 
L 138.309414 16.281281 
L 138.566738 16.413941 
L 138.952724 16.913435 
L 139.724696 17.980885 
L 140.046351 18.043293 
L 140.368006 17.799409 
L 140.946985 16.915556 
L 141.397302 16.367644 
L 141.718957 16.279757 
L 142.040612 16.472004 
L 142.55526 17.147228 
L 143.19857 17.914884 
L 143.584556 18.057902 
L 143.970543 17.936363 
L 144.549522 17.432175 
L 145.578818 16.495806 
L 146.157797 16.282566 
L 146.672445 16.329105 
L 147.251424 16.608992 
L 148.345051 17.468647 
L 149.117023 17.944708 
L 149.696002 18.044587 
L 150.21065 17.920459 
L 150.918291 17.428289 
L 152.204911 16.571875 
L 153.555863 16.285076 
L 154.070511 16.544393 
L 156.000441 17.671672 
L 156.450758 17.748432 
L 157.094068 17.563977 
L 157.480054 17.236739 
L 157.994702 16.784511 
L 158.380688 16.762517 
L 159.667308 17.031612 
L 160.43928 17.436805 
L 161.597239 18.021593 
L 163.655831 17.750892 
L 167.065374 16.724094 
L 169.123966 17.212461 
L 170.0246 17.220834 
L 173.691468 17.12687 
L 176.071715 17.22845 
L 178.065976 17.113309 
L 179.609921 17.239048 
L 181.47552 17.124987 
L 182.826471 17.273938 
L 183.341119 17.066418 
L 184.306084 16.614141 
L 184.756401 16.644842 
L 185.785697 16.983901 
L 186.236014 16.68526 
L 187.007986 16.079968 
L 187.26531 16.231402 
L 188.744924 17.555609 
L 189.066579 17.383172 
L 189.967213 16.66712 
L 190.288868 16.747434 
L 191.511157 17.371541 
L 192.154467 17.366367 
L 193.248094 17.250135 
L 193.698411 17.077707 
L 194.084397 17.212881 
L 195.113693 17.907143 
L 195.435348 17.832744 
L 195.949996 17.406474 
L 196.335982 17.218428 
L 196.721968 17.347918 
L 197.815596 17.802474 
L 198.201582 17.368789 
L 198.973554 16.521457 
L 199.295209 16.532719 
L 199.681195 16.821033 
L 200.324505 17.356457 
L 200.64616 17.322229 
L 201.482463 16.836139 
L 201.93278 16.718567 
L 202.318766 16.832991 
L 203.026407 17.363556 
L 203.541055 17.601072 
L 203.927041 17.535324 
L 204.441689 17.182526 
L 205.14933 16.74493 
L 205.535316 16.764103 
L 206.049965 17.068074 
L 206.886268 17.577341 
L 207.336585 17.577163 
L 207.915564 17.314733 
L 209.009191 16.777507 
L 209.652501 16.738787 
L 210.424473 16.939262 
L 212.483065 17.5988 
L 213.255037 17.541014 
L 214.220002 17.222015 
L 215.699616 16.719359 
L 216.407257 16.75572 
L 217.88687 17.053682 
L 219.688138 16.979782 
L 221.039089 17.287604 
L 222.004054 17.427898 
L 222.583033 17.374478 
L 224.062647 17.652291 
L 226.056908 17.496082 
L 227.536521 17.085 
L 227.986838 16.947763 
L 228.372824 17.056143 
L 228.823141 17.169799 
L 229.852437 17.12816 
L 232.747333 17.228609 
L 236.349869 17.114926 
L 236.349869 17.114926 
" clip-path="url(#p2eb9c40997)" style="fill: none; stroke: #2ca02c; stroke-width: 0.5; stroke-linecap: square"/>
   </g>
   <g id="line2d_17">
    <path d="M 43.356847 17.165906 
L 53.77847 17.269638 
L 54.486111 17.269608 
L 55.708401 17.039363 
L 56.480373 17.228288 
L 57.252345 17.527497 
L 57.574 17.402613 
L 58.667627 16.759651 
L 58.989282 16.840665 
L 60.211571 17.438279 
L 60.533226 17.215343 
L 61.047874 16.772442 
L 61.369529 16.781391 
L 62.334494 17.131669 
L 62.72048 17.180822 
L 63.36379 17.527099 
L 64.071432 17.394638 
L 64.393087 17.168025 
L 65.100728 16.531685 
L 65.486714 16.696003 
L 65.937031 17.016304 
L 66.837665 17.824547 
L 67.094989 17.801191 
L 67.416644 17.4494 
L 67.995623 16.86953 
L 68.317278 16.773621 
L 68.638933 16.915744 
L 69.603898 17.586316 
L 70.118546 17.369282 
L 71.083511 16.798251 
L 71.469497 16.8506 
L 72.949111 17.422839 
L 73.592421 17.180868 
L 74.428724 16.86126 
L 74.879041 16.930555 
L 76.422985 17.443864 
L 77.001964 17.19007 
L 77.773936 16.872318 
L 78.288584 16.911164 
L 79.253549 17.310729 
L 79.96119 17.469097 
L 80.668831 17.394709 
L 83.370734 16.869607 
L 84.40003 17.059866 
L 85.815312 17.354003 
L 86.715946 17.29205 
L 88.710207 17.0535 
L 89.932496 17.295805 
L 90.447145 17.149913 
L 90.961793 17.065567 
L 92.248413 17.157967 
L 92.891723 17.315736 
L 93.470702 17.244202 
L 94.499998 16.967365 
L 95.464963 17.11546 
L 97.330562 17.413524 
L 97.909541 17.523548 
L 98.617182 17.644767 
L 99.260493 17.753294 
L 100.225458 17.378141 
L 101.447747 16.793083 
L 102.412712 16.533935 
L 103.892325 16.955613 
L 105.114614 17.378365 
L 106.208241 17.464066 
L 107.173206 17.311114 
L 109.360461 16.86134 
L 110.196764 16.972588 
L 112.255356 17.436175 
L 112.898666 17.180901 
L 113.734969 16.865275 
L 114.185286 16.924973 
L 115.021589 17.34737 
L 115.536237 17.470359 
L 116.050885 17.334148 
L 117.144513 16.894772 
L 117.659161 16.98614 
L 119.267436 17.474327 
L 120.039408 17.023648 
L 120.618387 16.731174 
L 120.940042 16.821304 
L 121.326028 17.162684 
L 122.033669 17.90226 
L 122.290993 17.734766 
L 122.676979 17.105902 
L 123.127296 16.496083 
L 123.38462 16.494185 
L 123.641944 16.742797 
L 124.285254 17.540067 
L 124.542578 17.467439 
L 125.378881 16.903371 
L 125.957861 16.741752 
L 126.215185 16.839434 
L 126.53684 17.267796 
L 127.051488 17.968757 
L 127.308812 17.974154 
L 127.630467 17.626941 
L 128.531101 16.612193 
L 128.852756 16.619621 
L 129.946383 17.078658 
L 130.3967 17.391127 
L 131.233003 17.770351 
L 131.490327 17.619346 
L 132.455292 16.773707 
L 133.098602 16.55873 
L 133.420257 16.739565 
L 133.870574 17.323267 
L 134.320891 17.862184 
L 134.578215 17.922523 
L 134.83554 17.739611 
L 135.285857 16.933422 
L 135.736174 16.335237 
L 135.993498 16.316449 
L 136.250822 16.574048 
L 137.344449 18.087093 
L 137.601773 18.026837 
L 137.923428 17.700961 
L 139.017055 16.28619 
L 139.274379 16.316882 
L 139.596034 16.619943 
L 140.753992 18.055587 
L 141.011316 17.986459 
L 141.332971 17.654232 
L 142.426598 16.298254 
L 142.748253 16.31195 
L 143.134239 16.610566 
L 144.549522 18.017251 
L 144.999839 18.035603 
L 145.514487 17.798239 
L 146.479452 17.014558 
L 147.380086 16.407423 
L 147.959065 16.273973 
L 148.473713 16.369707 
L 149.117023 16.740078 
L 150.85396 17.921683 
L 151.432939 17.936464 
L 151.947587 17.707145 
L 152.976884 17.100141 
L 154.327835 16.583689 
L 155.228469 16.652562 
L 155.743117 16.927361 
L 156.57942 17.383605 
L 157.608716 17.659074 
L 158.187695 17.710222 
L 159.023998 17.355976 
L 160.43928 16.608137 
L 161.66157 16.647755 
L 162.111887 17.022931 
L 162.626535 17.403248 
L 163.527169 17.628832 
L 164.106148 17.667717 
L 165.778754 16.971007 
L 166.293402 16.827065 
L 167.001043 16.896626 
L 167.837346 17.015064 
L 168.609318 17.033492 
L 170.989566 17.260123 
L 173.17682 17.108761 
L 174.785095 17.096431 
L 177.358335 17.190068 
L 178.709286 17.086838 
L 180.703548 17.201996 
L 182.11883 17.061166 
L 182.955133 17.29346 
L 183.920098 17.582971 
L 184.434746 17.270266 
L 185.271049 16.768433 
L 185.528373 16.975599 
L 186.171683 17.695988 
L 186.429007 17.693171 
L 186.750662 17.442591 
L 187.586965 16.461302 
L 188.358938 16.828985 
L 188.744924 17.219829 
L 189.195241 17.634452 
L 189.452565 17.642632 
L 189.838551 17.367093 
L 190.41753 16.943244 
L 190.867847 16.91522 
L 192.154467 17.07838 
L 192.604784 16.958964 
L 192.99077 17.192592 
L 193.312425 17.324106 
L 193.569749 17.18924 
L 194.148728 16.803988 
L 194.534714 16.845104 
L 195.306686 17.326569 
L 195.757003 17.684231 
L 196.014327 17.593472 
L 196.979292 16.707972 
L 197.300948 16.770306 
L 197.622603 17.143515 
L 198.137251 17.853319 
L 198.458906 17.914435 
L 198.71623 17.729959 
L 199.745526 16.581878 
L 200.067181 16.784363 
L 200.903484 17.474525 
L 201.28947 17.529276 
L 201.675456 17.353301 
L 202.704752 16.727976 
L 203.090738 16.80122 
L 203.669717 17.206858 
L 204.313027 17.588682 
L 204.699013 17.563309 
L 205.213661 17.24176 
L 205.985634 16.751291 
L 206.37162 16.751491 
L 206.886268 17.011001 
L 207.851233 17.564092 
L 208.365881 17.589036 
L 209.009191 17.371865 
L 210.553135 16.763793 
L 211.325107 16.74817 
L 212.16141 16.965491 
L 214.220002 17.610519 
L 214.927644 17.567655 
L 216.664581 17.137412 
L 218.144194 17.063087 
L 218.594511 16.944265 
L 219.752469 16.910896 
L 220.202786 16.916422 
L 221.875392 17.111181 
L 222.261378 17.166245 
L 222.969019 17.389161 
L 223.933985 17.273899 
L 224.89895 17.161828 
L 227.214866 17.214086 
L 227.986838 17.178249 
L 228.694479 17.099907 
L 229.209127 17.031652 
L 230.68874 17.105431 
L 232.361346 17.036547 
L 234.162615 17.199613 
L 236.349869 17.221122 
L 236.349869 17.221122 
" clip-path="url(#p2eb9c40997)" style="fill: none; stroke: #d62728; stroke-width: 0.5; stroke-linecap: square"/>
   </g>
   <g id="patch_3">
    <path d="M 33.707196 202.559296 
L 33.707196 7.2 
" style="fill: none; stroke: #000000; stroke-width: 0.8; stroke-linejoin: miter; stroke-linecap: square"/>
   </g>
   <g id="patch_4">
    <path d="M 245.99952 202.559296 
L 245.99952 7.2 
" style="fill: none; stroke: #000000; stroke-width: 0.8; stroke-linejoin: miter; stroke-linecap: square"/>
   </g>
   <g id="patch_5">
    <path d="M 33.707196 202.559296 
L 245.99952 202.559296 
" style="fill: none; stroke: #000000; stroke-width: 0.8; stroke-linejoin: miter; stroke-linecap: square"/>
   </g>
   <g id="patch_6">
    <path d="M 33.707196 7.2 
L 245.99952 7.2 
" style="fill: none; stroke: #000000; stroke-width: 0.8; stroke-linejoin: miter; stroke-linecap: square"/>
   </g>
   <g id="legend_1">
    <g id="patch_7">
     <path d="M 193.792605 198.059296 
L 239.69952 198.059296 
Q 241.49952 198.059296 241.49952 196.259296 
L 241.49952 156.760168 
Q 241.49952 154.960168 239.69952 154.960168 
L 193.792605 154.960168 
Q 191.992605 154.960168 191.992605 156.760168 
L 191.992605 196.259296 
Q 191.992605 198.059296 193.792605 198.059296 
z
" style="fill: #ffffff; opacity: 0.8; stroke: #cccccc; stroke-width: 0.24; stroke-linejoin: miter"/>
    </g>
    <g id="line2d_18">
     <path d="M 195.592605 162.13495 
L 204.592605 162.13495 
L 213.592605 162.13495 
" style="fill: none; stroke: #ff7f0e; stroke-width: 0.5; stroke-linecap: square"/>
    </g>
    <g id="text_16">
     <!-- $\langle \sigma_z\rangle$ -->
     <g transform="translate(220.792605 165.28495) scale(0.09 -0.09)">
      <defs>
       <path id="CMSY10-68" d="M 2099 4557 
C 2131 4627 2131 4640 2131 4672 
C 2131 4742 2074 4800 2003 4800 
C 1946 4800 1901 4768 1856 4653 
L 736 1715 
C 723 1677 704 1638 704 1600 
C 704 1581 704 1568 736 1491 
L 1856 -1446 
C 1882 -1517 1914 -1600 2003 -1600 
C 2074 -1600 2131 -1542 2131 -1472 
C 2131 -1453 2131 -1440 2099 -1370 
L 966 1600 
L 2099 4557 
z
" transform="scale(0.015625)"/>
       <path id="CMMI12-1b" d="M 3251 2408 
C 3334 2408 3546 2408 3546 2612 
C 3546 2752 3424 2752 3309 2752 
L 1894 2752 
C 934 2752 243 1686 243 932 
C 243 390 595 -64 1171 -64 
C 1926 -64 2752 747 2752 1705 
C 2752 1954 2694 2196 2541 2408 
L 3251 2408 
z
M 1178 64 
C 851 64 614 313 614 754 
C 614 1137 845 2408 1786 2408 
C 2061 2408 2368 2274 2368 1781 
C 2368 1558 2266 1021 2042 652 
C 1811 275 1466 64 1178 64 
z
" transform="scale(0.015625)"/>
       <path id="CMMI12-7a" d="M 813 486 
C 1088 803 1312 1004 1632 1296 
C 2016 1632 2182 1793 2272 1891 
C 2720 2338 2944 2713 2944 2764 
C 2944 2816 2893 2816 2880 2816 
C 2835 2816 2822 2793 2790 2750 
C 2630 2494 2477 2367 2310 2367 
C 2176 2367 2106 2421 1984 2565 
C 1850 2715 1741 2816 1555 2816 
C 1088 2816 806 2257 806 2128 
C 806 2108 813 2068 870 2068 
C 922 2068 928 2091 947 2133 
C 1056 2372 1363 2414 1485 2414 
C 1619 2414 1747 2376 1882 2327 
C 2125 2240 2227 2240 2291 2240 
C 2336 2240 2362 2240 2394 2246 
C 2182 1994 1837 1683 1549 1418 
L 902 816 
C 512 415 275 33 275 -12 
C 275 -51 307 -64 346 -64 
C 384 -64 390 -57 435 14 
C 538 163 742 384 979 384 
C 1114 384 1178 342 1306 193 
C 1427 61 1536 -64 1741 -64 
C 2368 -64 2726 732 2726 876 
C 2726 903 2720 942 2656 942 
C 2605 942 2598 917 2579 855 
C 2438 488 2061 338 1811 338 
C 1677 338 1549 376 1414 425 
C 1158 512 1088 512 1005 512 
C 941 512 870 512 813 486 
z
" transform="scale(0.015625)"/>
       <path id="CMSY10-69" d="M 1747 1491 
C 1779 1568 1779 1581 1779 1600 
C 1779 1619 1779 1632 1747 1709 
L 627 4653 
C 589 4762 550 4800 480 4800 
C 410 4800 352 4742 352 4672 
C 352 4653 352 4640 384 4570 
L 1517 1600 
L 384 -1357 
C 352 -1427 352 -1440 352 -1472 
C 352 -1542 410 -1600 480 -1600 
C 563 -1600 589 -1536 614 -1472 
L 1747 1491 
z
" transform="scale(0.015625)"/>
      </defs>
      <use xlink:href="#CMSY10-68" transform="scale(0.996264)"/>
      <use xlink:href="#CMMI12-1b" transform="translate(38.743734 0) scale(0.996264)"/>
      <use xlink:href="#CMMI12-7a" transform="translate(94.189195 -14.943915) scale(0.697382)"/>
      <use xlink:href="#CMSY10-69" transform="translate(129.51575 0) scale(0.996264)"/>
     </g>
    </g>
    <g id="line2d_19">
     <path d="M 195.592605 175.601326 
L 204.592605 175.601326 
L 213.592605 175.601326 
" style="fill: none; stroke: #2ca02c; stroke-width: 0.5; stroke-linecap: square"/>
    </g>
    <g id="text_17">
     <!-- $\langle \sigma_x\rangle$ -->
     <g transform="translate(220.792605 178.751326) scale(0.09 -0.09)">
      <defs>
       <path id="CMMI12-78" d="M 3034 2606 
C 2829 2567 2752 2414 2752 2293 
C 2752 2139 2874 2088 2963 2088 
C 3155 2088 3290 2254 3290 2427 
C 3290 2695 2982 2816 2714 2816 
C 2323 2816 2106 2433 2048 2312 
C 1901 2816 1504 2816 1389 2816 
C 736 2816 390 1980 390 1839 
C 390 1814 416 1782 461 1782 
C 512 1782 525 1820 538 1846 
C 755 2555 1184 2689 1370 2689 
C 1658 2689 1715 2420 1715 2267 
C 1715 2127 1677 1980 1600 1673 
L 1382 798 
C 1286 415 1101 64 762 64 
C 730 64 570 64 435 147 
C 666 192 717 383 717 460 
C 717 588 621 664 499 664 
C 346 664 179 530 179 326 
C 179 57 480 -64 755 -64 
C 1062 -64 1280 179 1414 441 
C 1517 64 1837 -64 2074 -64 
C 2726 -64 3072 773 3072 913 
C 3072 945 3046 971 3008 971 
C 2950 971 2944 939 2925 888 
C 2752 326 2381 64 2093 64 
C 1869 64 1747 230 1747 492 
C 1747 632 1773 734 1875 1156 
L 2099 2024 
C 2195 2408 2413 2689 2707 2689 
C 2720 2689 2899 2689 3034 2606 
z
" transform="scale(0.015625)"/>
      </defs>
      <use xlink:href="#CMSY10-68" transform="scale(0.996264)"/>
      <use xlink:href="#CMMI12-1b" transform="translate(38.743734 0) scale(0.996264)"/>
      <use xlink:href="#CMMI12-78" transform="translate(94.189195 -14.943915) scale(0.697382)"/>
      <use xlink:href="#CMSY10-69" transform="translate(133.490986 0) scale(0.996264)"/>
     </g>
    </g>
    <g id="line2d_20">
     <path d="M 195.592605 189.067702 
L 204.592605 189.067702 
L 213.592605 189.067702 
" style="fill: none; stroke: #d62728; stroke-width: 0.5; stroke-linecap: square"/>
    </g>
    <g id="text_18">
     <!-- $\langle \sigma_y\rangle$ -->
     <g transform="translate(220.792605 192.217702) scale(0.09 -0.09)">
      <defs>
       <path id="CMMI12-79" d="M 1683 -700 
C 1510 -939 1261 -1152 947 -1152 
C 870 -1152 563 -1152 467 -889 
C 486 -895 518 -895 531 -895 
C 723 -895 851 -729 851 -582 
C 851 -435 730 -384 634 -384 
C 531 -384 307 -458 307 -759 
C 307 -1071 582 -1286 947 -1286 
C 1587 -1286 2234 -700 2413 6 
L 3040 2485 
C 3046 2517 3059 2556 3059 2594 
C 3059 2689 2982 2753 2886 2753 
C 2829 2753 2694 2727 2643 2535 
L 2170 658 
C 2138 543 2138 530 2086 460 
C 1958 281 1747 64 1440 64 
C 1082 64 1050 415 1050 588 
C 1050 952 1222 1443 1395 1903 
C 1466 2088 1504 2178 1504 2305 
C 1504 2574 1312 2816 998 2816 
C 410 2816 173 1890 173 1839 
C 173 1814 198 1782 243 1782 
C 301 1782 307 1807 333 1897 
C 486 2433 730 2689 979 2689 
C 1037 2689 1146 2689 1146 2478 
C 1146 2312 1075 2127 979 1884 
C 666 1047 666 837 666 683 
C 666 77 1101 -64 1421 -64 
C 1606 -64 1837 -6 2061 230 
L 2067 224 
C 1971 -147 1907 -392 1683 -700 
z
" transform="scale(0.015625)"/>
      </defs>
      <use xlink:href="#CMSY10-68" transform="scale(0.996264)"/>
      <use xlink:href="#CMMI12-1b" transform="translate(38.743734 0) scale(0.996264)"/>
      <use xlink:href="#CMMI12-79" transform="translate(94.189195 -14.943915) scale(0.697382)"/>
      <use xlink:href="#CMSY10-69" transform="translate(130.484301 0) scale(0.996264)"/>
     </g>
    </g>
   </g>
  </g>
 </g>
 <defs>
  <clipPath id="p2eb9c40997">
   <rect x="33.707196" y="7.2" width="212.292324" height="195.359296"/>
  </clipPath>
 </defs>
</svg>
