<?xml version="1.0" encoding="utf-8" standalone="no"?>
<!DOCTYPE svg PUBLIC "-//W3C//DTD SVG 1.1//EN"
  "http://www.w3.org/Graphics/SVG/1.1/DTD/svg11.dtd">
<svg xmlns:xlink="http://www.w3.org/1999/xlink" width="253.19952pt" height="238.79952pt" viewBox="0 0 253.19952 238.79952" xmlns="http://www.w3.org/2000/svg" version="1.1">
 <metadata>
  <rdf:RDF xmlns:dc="http://purl.org/dc/elements/1.1/" xmlns:cc="http://creativecommons.org/ns#" xmlns:rdf="http://www.w3.org/1999/02/22-rdf-syntax-ns#">
   <cc:Work>
    <dc:type rdf:resource="http://purl.org/dc/dcmitype/StillImage"/>
    <dc:date>1980-01-01T00:00:00+00:00</dc:date>
    <dc:format>image/svg+xml</dc:format>
    <dc:creator>
     <cc:Agent>
      <dc:title>Matplotlib v3.6.2, https://matplotlib.org/</dc:title>
     </cc:Agent>
    </dc:creator>
   </cc:Work>
  </rdf:RDF>
 </metadata>
 <defs>
  <style type="text/css">*{stroke-linejoin: round; stroke-linecap: butt}</style>
 </defs>
 <g id="figure_1">
  <g id="patch_1">
   <path d="M 0 238.79952 
L 253.19952 238.79952 
L 253.19952 0 
L 0 0 
z
" style="fill: #ffffff"/>
  </g>
  <g id="axes_1">
   <g id="patch_2">
    <path d="M 33.707196 202.559296 
L 245.99952 202.559296 
L 245.99952 7.2 
L 33.707196 7.2 
z
" style="fill: #ffffff"/>
   </g>
   <g id="matplotlib.axis_1">
    <g id="xtick_1">
     <g id="line2d_1">
      <defs>
       <path id="ma18040356c" d="M 0 0 
L 0 3.5 
" style="stroke: #000000; stroke-width: 0.8"/>
      </defs>
      <g>
       <use xlink:href="#ma18040356c" x="43.356847" y="202.559296" style="stroke: #000000; stroke-width: 0.8"/>
      </g>
     </g>
     <g id="text_1">
      <!-- $\mathdefault{0}$ -->
      <g transform="translate(41.239756 217.194098) scale(0.08 -0.08)">
       <defs>
        <path id="CMR17-30" d="M 2688 2025 
C 2688 2416 2682 3080 2413 3591 
C 2176 4039 1798 4198 1466 4198 
C 1158 4198 768 4058 525 3597 
C 269 3118 243 2524 243 2025 
C 243 1661 250 1106 448 619 
C 723 -39 1216 -128 1466 -128 
C 1760 -128 2208 -7 2470 600 
C 2662 1042 2688 1559 2688 2025 
z
M 1466 -26 
C 1056 -26 813 325 723 812 
C 653 1188 653 1738 653 2096 
C 653 2588 653 2997 736 3387 
C 858 3929 1216 4096 1466 4096 
C 1728 4096 2067 3923 2189 3400 
C 2272 3036 2278 2607 2278 2096 
C 2278 1680 2278 1169 2202 792 
C 2067 95 1690 -26 1466 -26 
z
" transform="scale(0.015625)"/>
       </defs>
       <use xlink:href="#CMR17-30" transform="scale(0.996264)"/>
      </g>
     </g>
    </g>
    <g id="xtick_2">
     <g id="line2d_2">
      <g>
       <use xlink:href="#ma18040356c" x="70.161434" y="202.559296" style="stroke: #000000; stroke-width: 0.8"/>
      </g>
     </g>
     <g id="text_2">
      <!-- $\mathdefault{25}$ -->
      <g transform="translate(65.927251 217.194098) scale(0.08 -0.08)">
       <defs>
        <path id="CMR17-32" d="M 2669 989 
L 2554 989 
C 2490 536 2438 459 2413 420 
C 2381 369 1920 369 1830 369 
L 602 369 
C 832 619 1280 1072 1824 1597 
C 2214 1967 2669 2402 2669 3035 
C 2669 3790 2067 4224 1395 4224 
C 691 4224 262 3604 262 3030 
C 262 2780 448 2748 525 2748 
C 589 2748 781 2787 781 3010 
C 781 3207 614 3264 525 3264 
C 486 3264 448 3258 422 3245 
C 544 3790 915 4058 1306 4058 
C 1862 4058 2227 3617 2227 3035 
C 2227 2479 1901 2000 1536 1584 
L 262 146 
L 262 0 
L 2515 0 
L 2669 989 
z
" transform="scale(0.015625)"/>
        <path id="CMR17-35" d="M 730 3692 
C 794 3666 1056 3584 1325 3584 
C 1920 3584 2246 3911 2432 4100 
C 2432 4157 2432 4192 2394 4192 
C 2387 4192 2374 4192 2323 4163 
C 2099 4058 1837 3973 1517 3973 
C 1325 3973 1037 3999 723 4139 
C 653 4171 640 4171 634 4171 
C 602 4171 595 4164 595 4037 
L 595 2203 
C 595 2089 595 2057 659 2057 
C 691 2057 704 2070 736 2114 
C 941 2401 1222 2522 1542 2522 
C 1766 2522 2246 2382 2246 1289 
C 2246 1085 2246 715 2054 421 
C 1894 159 1645 25 1370 25 
C 947 25 518 320 403 814 
C 429 807 480 795 506 795 
C 589 795 749 840 749 1038 
C 749 1210 627 1280 506 1280 
C 358 1280 262 1190 262 1011 
C 262 454 704 -128 1382 -128 
C 2042 -128 2669 440 2669 1264 
C 2669 2030 2170 2624 1549 2624 
C 1222 2624 947 2503 730 2274 
L 730 3692 
z
" transform="scale(0.015625)"/>
       </defs>
       <use xlink:href="#CMR17-32" transform="scale(0.996264)"/>
       <use xlink:href="#CMR17-35" transform="translate(45.690477 0) scale(0.996264)"/>
      </g>
     </g>
    </g>
    <g id="xtick_3">
     <g id="line2d_3">
      <g>
       <use xlink:href="#ma18040356c" x="96.96602" y="202.559296" style="stroke: #000000; stroke-width: 0.8"/>
      </g>
     </g>
     <g id="text_3">
      <!-- $\mathdefault{50}$ -->
      <g transform="translate(92.731837 217.194098) scale(0.08 -0.08)">
       <use xlink:href="#CMR17-35" transform="scale(0.996264)"/>
       <use xlink:href="#CMR17-30" transform="translate(45.690477 0) scale(0.996264)"/>
      </g>
     </g>
    </g>
    <g id="xtick_4">
     <g id="line2d_4">
      <g>
       <use xlink:href="#ma18040356c" x="123.770606" y="202.559296" style="stroke: #000000; stroke-width: 0.8"/>
      </g>
     </g>
     <g id="text_4">
      <!-- $\mathdefault{75}$ -->
      <g transform="translate(119.536423 217.194098) scale(0.08 -0.08)">
       <defs>
        <path id="CMR17-37" d="M 2886 3941 
L 2886 4081 
L 1382 4081 
C 634 4081 621 4165 595 4288 
L 480 4288 
L 294 3094 
L 410 3094 
C 429 3215 474 3540 550 3661 
C 589 3712 1062 3712 1171 3712 
L 2579 3712 
L 1869 2661 
C 1395 1954 1069 999 1069 165 
C 1069 89 1069 -128 1299 -128 
C 1530 -128 1530 89 1530 171 
L 1530 465 
C 1530 1508 1709 2196 2003 2636 
L 2886 3941 
z
" transform="scale(0.015625)"/>
       </defs>
       <use xlink:href="#CMR17-37" transform="scale(0.996264)"/>
       <use xlink:href="#CMR17-35" transform="translate(45.690477 0) scale(0.996264)"/>
      </g>
     </g>
    </g>
    <g id="xtick_5">
     <g id="line2d_5">
      <g>
       <use xlink:href="#ma18040356c" x="150.575193" y="202.559296" style="stroke: #000000; stroke-width: 0.8"/>
      </g>
     </g>
     <g id="text_5">
      <!-- $\mathdefault{100}$ -->
      <g transform="translate(144.223918 217.194098) scale(0.08 -0.08)">
       <defs>
        <path id="CMR17-31" d="M 1702 4058 
C 1702 4192 1696 4192 1606 4192 
C 1357 3916 979 3827 621 3827 
C 602 3827 570 3827 563 3808 
C 557 3795 557 3782 557 3648 
C 755 3648 1088 3686 1344 3839 
L 1344 461 
C 1344 236 1331 160 781 160 
L 589 160 
L 589 0 
C 896 0 1216 0 1523 0 
C 1830 0 2150 0 2458 0 
L 2458 160 
L 2266 160 
C 1715 160 1702 230 1702 458 
L 1702 4058 
z
" transform="scale(0.015625)"/>
       </defs>
       <use xlink:href="#CMR17-31" transform="scale(0.996264)"/>
       <use xlink:href="#CMR17-30" transform="translate(45.690477 0) scale(0.996264)"/>
       <use xlink:href="#CMR17-30" transform="translate(91.380954 0) scale(0.996264)"/>
      </g>
     </g>
    </g>
    <g id="xtick_6">
     <g id="line2d_6">
      <g>
       <use xlink:href="#ma18040356c" x="177.379779" y="202.559296" style="stroke: #000000; stroke-width: 0.8"/>
      </g>
     </g>
     <g id="text_6">
      <!-- $\mathdefault{125}$ -->
      <g transform="translate(171.028505 217.194098) scale(0.08 -0.08)">
       <use xlink:href="#CMR17-31" transform="scale(0.996264)"/>
       <use xlink:href="#CMR17-32" transform="translate(45.690477 0) scale(0.996264)"/>
       <use xlink:href="#CMR17-35" transform="translate(91.380954 0) scale(0.996264)"/>
      </g>
     </g>
    </g>
    <g id="xtick_7">
     <g id="line2d_7">
      <g>
       <use xlink:href="#ma18040356c" x="204.184365" y="202.559296" style="stroke: #000000; stroke-width: 0.8"/>
      </g>
     </g>
     <g id="text_7">
      <!-- $\mathdefault{150}$ -->
      <g transform="translate(197.833091 217.194098) scale(0.08 -0.08)">
       <use xlink:href="#CMR17-31" transform="scale(0.996264)"/>
       <use xlink:href="#CMR17-35" transform="translate(45.690477 0) scale(0.996264)"/>
       <use xlink:href="#CMR17-30" transform="translate(91.380954 0) scale(0.996264)"/>
      </g>
     </g>
    </g>
    <g id="xtick_8">
     <g id="line2d_8">
      <g>
       <use xlink:href="#ma18040356c" x="230.988952" y="202.559296" style="stroke: #000000; stroke-width: 0.8"/>
      </g>
     </g>
     <g id="text_8">
      <!-- $\mathdefault{175}$ -->
      <g transform="translate(224.637677 217.194098) scale(0.08 -0.08)">
       <use xlink:href="#CMR17-31" transform="scale(0.996264)"/>
       <use xlink:href="#CMR17-37" transform="translate(45.690477 0) scale(0.996264)"/>
       <use xlink:href="#CMR17-35" transform="translate(91.380954 0) scale(0.996264)"/>
      </g>
     </g>
    </g>
    <g id="text_9">
     <!-- $\tau$ -->
     <g transform="translate(137.675756 229.662342) scale(0.1 -0.1)">
      <defs>
       <path id="CMMI12-1c" d="M 1837 2408 
L 2899 2408 
C 2982 2408 3194 2408 3194 2612 
C 3194 2752 3072 2752 2957 2752 
L 1197 2752 
C 1050 2752 832 2752 538 2440 
C 371 2255 166 1917 166 1879 
C 166 1841 198 1828 237 1828 
C 282 1828 288 1847 320 1885 
C 653 2408 986 2408 1146 2408 
L 1677 2408 
L 1011 223 
C 979 127 979 114 979 95 
C 979 25 1024 -64 1152 -64 
C 1350 -64 1382 108 1402 203 
L 1837 2408 
z
" transform="scale(0.015625)"/>
      </defs>
      <use xlink:href="#CMMI12-1c" transform="scale(0.996264)"/>
     </g>
    </g>
   </g>
   <g id="matplotlib.axis_2">
    <g id="ytick_1">
     <g id="line2d_9">
      <defs>
       <path id="m8b6a40f2a2" d="M 0 0 
L -3.5 0 
" style="stroke: #000000; stroke-width: 0.8"/>
      </defs>
      <g>
       <use xlink:href="#m8b6a40f2a2" x="33.707196" y="193.679328" style="stroke: #000000; stroke-width: 0.8"/>
      </g>
     </g>
     <g id="text_10">
      <!-- $\mathdefault{−1.0}$ -->
      <g transform="translate(7.2 196.446729) scale(0.08 -0.08)">
       <defs>
        <path id="CMSY10-0" d="M 4218 1472 
C 4326 1472 4442 1472 4442 1600 
C 4442 1728 4326 1728 4218 1728 
L 755 1728 
C 646 1728 531 1728 531 1600 
C 531 1472 646 1472 755 1472 
L 4218 1472 
z
" transform="scale(0.015625)"/>
        <path id="CMMI12-3a" d="M 1178 307 
C 1178 492 1024 619 870 619 
C 685 619 557 466 557 313 
C 557 128 710 0 864 0 
C 1050 0 1178 153 1178 307 
z
" transform="scale(0.015625)"/>
       </defs>
       <use xlink:href="#CMSY10-0" transform="scale(0.996264)"/>
       <use xlink:href="#CMR17-31" transform="translate(77.487468 0) scale(0.996264)"/>
       <use xlink:href="#CMMI12-3a" transform="translate(123.177945 0) scale(0.996264)"/>
       <use xlink:href="#CMR17-30" transform="translate(150.275122 0) scale(0.996264)"/>
      </g>
     </g>
    </g>
    <g id="ytick_2">
     <g id="line2d_10">
      <g>
       <use xlink:href="#m8b6a40f2a2" x="33.707196" y="158.373193" style="stroke: #000000; stroke-width: 0.8"/>
      </g>
     </g>
     <g id="text_11">
      <!-- $\mathdefault{−0.8}$ -->
      <g transform="translate(7.2 161.140594) scale(0.08 -0.08)">
       <defs>
        <path id="CMR17-38" d="M 1741 2264 
C 2144 2467 2554 2773 2554 3263 
C 2554 3841 1990 4179 1472 4179 
C 890 4179 378 3759 378 3180 
C 378 3021 416 2747 666 2505 
C 730 2442 998 2251 1171 2130 
C 883 1983 211 1634 211 934 
C 211 279 838 -128 1459 -128 
C 2144 -128 2720 362 2720 1010 
C 2720 1590 2330 1857 2074 2029 
L 1741 2264 
z
M 902 2822 
C 851 2854 595 3051 595 3351 
C 595 3739 998 4032 1459 4032 
C 1965 4032 2336 3676 2336 3262 
C 2336 2669 1670 2331 1638 2331 
C 1632 2331 1626 2331 1574 2370 
L 902 2822 
z
M 2080 1519 
C 2176 1449 2483 1240 2483 851 
C 2483 381 2010 25 1472 25 
C 890 25 448 438 448 940 
C 448 1443 838 1862 1280 2060 
L 2080 1519 
z
" transform="scale(0.015625)"/>
       </defs>
       <use xlink:href="#CMSY10-0" transform="scale(0.996264)"/>
       <use xlink:href="#CMR17-30" transform="translate(77.487468 0) scale(0.996264)"/>
       <use xlink:href="#CMMI12-3a" transform="translate(123.177945 0) scale(0.996264)"/>
       <use xlink:href="#CMR17-38" transform="translate(150.275122 0) scale(0.996264)"/>
      </g>
     </g>
    </g>
    <g id="ytick_3">
     <g id="line2d_11">
      <g>
       <use xlink:href="#m8b6a40f2a2" x="33.707196" y="123.067059" style="stroke: #000000; stroke-width: 0.8"/>
      </g>
     </g>
     <g id="text_12">
      <!-- $\mathdefault{−0.6}$ -->
      <g transform="translate(7.2 125.83446) scale(0.08 -0.08)">
       <defs>
        <path id="CMR17-36" d="M 678 2176 
C 678 3690 1395 4032 1811 4032 
C 1946 4032 2272 4009 2400 3776 
C 2298 3776 2106 3776 2106 3553 
C 2106 3381 2246 3323 2336 3323 
C 2394 3323 2566 3348 2566 3560 
C 2566 3954 2246 4179 1805 4179 
C 1043 4179 243 3390 243 1984 
C 243 253 966 -128 1478 -128 
C 2099 -128 2688 427 2688 1283 
C 2688 2081 2170 2662 1517 2662 
C 1126 2662 838 2407 678 1960 
L 678 2176 
z
M 1478 25 
C 691 25 691 1200 691 1436 
C 691 1896 909 2560 1504 2560 
C 1613 2560 1926 2560 2138 2120 
C 2253 1870 2253 1609 2253 1289 
C 2253 944 2253 690 2118 434 
C 1978 171 1773 25 1478 25 
z
" transform="scale(0.015625)"/>
       </defs>
       <use xlink:href="#CMSY10-0" transform="scale(0.996264)"/>
       <use xlink:href="#CMR17-30" transform="translate(77.487468 0) scale(0.996264)"/>
       <use xlink:href="#CMMI12-3a" transform="translate(123.177945 0) scale(0.996264)"/>
       <use xlink:href="#CMR17-36" transform="translate(150.275122 0) scale(0.996264)"/>
      </g>
     </g>
    </g>
    <g id="ytick_4">
     <g id="line2d_12">
      <g>
       <use xlink:href="#m8b6a40f2a2" x="33.707196" y="87.760925" style="stroke: #000000; stroke-width: 0.8"/>
      </g>
     </g>
     <g id="text_13">
      <!-- $\mathdefault{−0.4}$ -->
      <g transform="translate(7.2 90.528325) scale(0.08 -0.08)">
       <defs>
        <path id="CMR17-34" d="M 2150 4122 
C 2150 4256 2144 4256 2029 4256 
L 128 1254 
L 128 1088 
L 1779 1088 
L 1779 457 
C 1779 224 1766 160 1318 160 
L 1197 160 
L 1197 0 
C 1402 0 1747 0 1965 0 
C 2182 0 2528 0 2733 0 
L 2733 160 
L 2611 160 
C 2163 160 2150 224 2150 457 
L 2150 1088 
L 2803 1088 
L 2803 1254 
L 2150 1254 
L 2150 4122 
z
M 1798 3703 
L 1798 1254 
L 256 1254 
L 1798 3703 
z
" transform="scale(0.015625)"/>
       </defs>
       <use xlink:href="#CMSY10-0" transform="scale(0.996264)"/>
       <use xlink:href="#CMR17-30" transform="translate(77.487468 0) scale(0.996264)"/>
       <use xlink:href="#CMMI12-3a" transform="translate(123.177945 0) scale(0.996264)"/>
       <use xlink:href="#CMR17-34" transform="translate(150.275122 0) scale(0.996264)"/>
      </g>
     </g>
    </g>
    <g id="ytick_5">
     <g id="line2d_13">
      <g>
       <use xlink:href="#m8b6a40f2a2" x="33.707196" y="52.45479" style="stroke: #000000; stroke-width: 0.8"/>
      </g>
     </g>
     <g id="text_14">
      <!-- $\mathdefault{−0.2}$ -->
      <g transform="translate(7.2 55.222191) scale(0.08 -0.08)">
       <use xlink:href="#CMSY10-0" transform="scale(0.996264)"/>
       <use xlink:href="#CMR17-30" transform="translate(77.487468 0) scale(0.996264)"/>
       <use xlink:href="#CMMI12-3a" transform="translate(123.177945 0) scale(0.996264)"/>
       <use xlink:href="#CMR17-32" transform="translate(150.275122 0) scale(0.996264)"/>
      </g>
     </g>
    </g>
    <g id="ytick_6">
     <g id="line2d_14">
      <g>
       <use xlink:href="#m8b6a40f2a2" x="33.707196" y="17.148656" style="stroke: #000000; stroke-width: 0.8"/>
      </g>
     </g>
     <g id="text_15">
      <!-- $\mathdefault{0.0}$ -->
      <g transform="translate(13.786507 19.916056) scale(0.08 -0.08)">
       <use xlink:href="#CMR17-30" transform="scale(0.996264)"/>
       <use xlink:href="#CMMI12-3a" transform="translate(45.690477 0) scale(0.996264)"/>
       <use xlink:href="#CMR17-30" transform="translate(72.787654 0) scale(0.996264)"/>
      </g>
     </g>
    </g>
   </g>
   <g id="line2d_15">
    <path d="M 43.356847 193.679328 
L 52.556181 193.585557 
L 52.877836 193.318108 
L 53.13516 192.811642 
L 53.456815 191.529872 
L 53.77847 189.162478 
L 54.164456 184.418417 
L 54.679105 174.668918 
L 57.445338 114.981372 
L 58.152979 106.173916 
L 58.989282 98.524663 
L 59.889916 92.225004 
L 61.562522 82.57527 
L 62.398825 79.33928 
L 63.36379 74.938035 
L 63.94277 73.448545 
L 64.58608 71.835263 
L 65.422383 69.676326 
L 66.130024 68.020337 
L 66.451679 67.316985 
L 66.709003 67.226528 
L 67.094989 67.198872 
L 67.609637 66.696868 
L 68.252947 65.959266 
L 69.153581 64.734418 
L 69.346574 64.718777 
L 69.539567 64.941463 
L 69.989884 66.055307 
L 71.276504 69.526356 
L 72.756118 74.179698 
L 73.399428 75.393404 
L 73.849745 75.851336 
L 74.364393 76.052609 
L 75.265027 76.096791 
L 85.493657 76.002292 
L 86.201298 75.749856 
L 87.423587 75.202622 
L 87.680911 75.318473 
L 88.002566 75.771305 
L 88.324221 76.644084 
L 88.774538 78.644383 
L 89.353517 82.356463 
L 90.254152 89.848042 
L 91.926758 103.7864 
L 92.891723 110.04517 
L 93.98535 115.718505 
L 94.757322 118.755986 
L 95.786618 121.792804 
L 96.687252 123.821383 
L 97.587886 125.35858 
L 98.938837 127.144205 
L 99.903803 127.988308 
L 101.254754 129.021256 
L 101.705071 129.867798 
L 102.219719 131.400585 
L 102.798698 133.855699 
L 103.763663 139.15247 
L 104.792959 144.411469 
L 105.371938 146.346391 
L 105.886586 147.318169 
L 106.336903 147.712784 
L 106.851551 147.856478 
L 108.266834 147.876491 
L 116.95152 147.774547 
L 117.273175 147.535598 
L 117.59483 146.964053 
L 117.916485 145.797751 
L 118.23814 143.737164 
L 118.624126 139.81261 
L 119.203105 131.217317 
L 120.940042 103.765138 
L 121.776345 93.111759 
L 122.419655 87.540456 
L 123.255958 82.564868 
L 124.092261 78.566336 
L 125.636205 73.354399 
L 126.601171 70.950216 
L 127.18015 70.204737 
L 127.566136 69.149275 
L 128.145115 67.567108 
L 128.46677 67.370058 
L 128.788425 67.163316 
L 129.174411 66.495124 
L 129.689059 65.722764 
L 130.203707 65.113781 
L 131.104341 63.585102 
L 131.490327 63.389989 
L 132.069306 63.45623 
L 132.519623 62.927152 
L 133.162933 62.297015 
L 133.484588 62.344199 
L 134.127898 62.701825 
L 134.385222 63.171397 
L 134.899871 64.81346 
L 136.958463 71.576389 
L 137.537442 72.942609 
L 138.05209 73.610073 
L 138.502407 73.861165 
L 139.145717 73.947712 
L 144.163536 73.951816 
L 150.146319 73.847319 
L 151.754594 73.485829 
L 152.076249 73.792019 
L 152.397904 74.474049 
L 152.783891 75.866426 
L 153.36287 78.964287 
L 154.134842 84.520976 
L 155.2928 94.864599 
L 156.57942 105.554898 
L 157.544385 111.549588 
L 158.380688 115.333697 
L 159.409984 119.112681 
L 160.181956 121.145226 
L 161.983225 125.193803 
L 163.269845 126.892134 
L 164.170479 127.845279 
L 165.907416 129.371914 
L 166.293402 130.165268 
L 166.743719 131.65415 
L 167.387029 134.724587 
L 169.38129 145.083665 
L 169.895938 146.487376 
L 170.346256 147.165347 
L 170.796573 147.461789 
L 171.375552 147.558096 
L 174.720764 147.564118 
L 181.282527 147.476931 
L 181.604182 147.239972 
L 181.925837 146.652079 
L 182.247492 145.455434 
L 182.633478 142.855182 
L 183.083795 137.859806 
L 183.791436 126.569066 
L 185.142387 105.055156 
L 186.043021 93.557142 
L 186.814993 86.868404 
L 187.329641 84.099708 
L 189.195241 76.688703 
L 190.160206 73.71339 
L 191.253833 70.571936 
L 191.70415 69.728029 
L 192.283129 68.524112 
L 192.99077 67.644403 
L 193.63408 66.175527 
L 194.148728 65.114236 
L 194.406052 64.94554 
L 195.371017 64.789597 
L 196.20732 63.942717 
L 196.528975 63.701517 
L 197.236617 62.907876 
L 197.558272 62.900339 
L 197.815596 63.123967 
L 198.71623 64.159229 
L 199.037885 64.595966 
L 199.488202 65.712581 
L 200.131512 68.057485 
L 200.903484 70.545661 
L 201.868449 73.10362 
L 202.318766 73.722273 
L 202.769083 74.006724 
L 203.348062 74.099767 
L 207.400916 74.104219 
L 214.412995 74.007303 
L 215.442292 73.619774 
L 215.892609 73.556221 
L 216.214264 73.730541 
L 216.535919 74.195682 
L 216.921905 75.232354 
L 217.372222 77.17722 
L 217.951201 80.873481 
L 218.980497 89.556472 
L 221.167751 107.374882 
L 222.068385 112.400102 
L 223.162012 117.064648 
L 224.191309 120.50288 
L 224.963281 122.335827 
L 226.249901 124.768149 
L 227.536521 126.641383 
L 229.530782 128.748198 
L 230.238423 129.475524 
L 230.624409 130.275413 
L 231.074726 131.826681 
L 231.718036 134.992809 
L 233.583636 144.749005 
L 234.162615 146.452281 
L 234.612932 147.17849 
L 235.063249 147.517461 
L 235.642228 147.638511 
L 236.349869 147.648198 
L 236.349869 147.648198 
" clip-path="url(#pb8a7f65996)" style="fill: none; stroke: #ff7f0e; stroke-width: 0.5; stroke-linecap: square"/>
   </g>
   <g id="line2d_16">
    <path d="M 43.356847 17.148656 
L 53.392484 17.25495 
L 54.743436 17.482613 
L 56.094387 17.342871 
L 56.93069 17.567755 
L 57.702662 17.422289 
L 58.345972 17.440008 
L 59.761254 17.085569 
L 60.275902 17.203103 
L 61.369529 16.926379 
L 61.819846 16.459587 
L 62.205832 16.160511 
L 62.463156 16.238794 
L 62.784811 16.670881 
L 63.36379 17.552224 
L 63.685446 17.70452 
L 64.007101 17.613185 
L 64.972066 17.116245 
L 65.744038 17.271494 
L 66.130024 17.288414 
L 67.545306 16.96841 
L 69.475236 17.522698 
L 69.861222 17.338429 
L 70.568863 16.897891 
L 71.01918 16.967454 
L 71.598159 17.049002 
L 72.498794 17.051533 
L 73.592421 17.150956 
L 75.007703 17.107777 
L 76.615978 17.198459 
L 78.481577 17.105483 
L 80.540169 17.209043 
L 84.207037 17.113888 
L 88.195559 17.458176 
L 89.160524 17.780148 
L 89.610841 17.676694 
L 90.189821 17.253057 
L 91.026124 16.673146 
L 91.669434 16.476957 
L 92.184082 16.552159 
L 92.763061 16.908633 
L 93.663695 17.453972 
L 94.178343 17.456079 
L 94.821653 17.207756 
L 96.108273 16.709478 
L 96.751583 16.67355 
L 97.266231 16.868829 
L 98.617182 17.546365 
L 99.067499 17.512484 
L 99.775141 17.127779 
L 100.740106 16.694529 
L 101.64074 16.573022 
L 102.798698 16.672631 
L 103.57067 17.094008 
L 104.85729 17.790017 
L 105.564931 17.915391 
L 106.208241 17.783589 
L 106.980213 17.351087 
L 108.459827 16.467443 
L 109.038806 16.392065 
L 109.617785 16.553224 
L 110.261095 16.991589 
L 111.483384 17.885046 
L 111.86937 17.87414 
L 112.255356 17.629062 
L 112.962997 16.806911 
L 113.413314 16.428892 
L 113.734969 16.411718 
L 114.056624 16.635693 
L 115.343244 17.906411 
L 115.664899 17.742085 
L 116.179547 17.100616 
L 116.758526 16.459377 
L 117.080182 16.403297 
L 117.401837 16.607979 
L 117.980816 17.369055 
L 118.431133 17.819818 
L 118.752788 17.865677 
L 119.138774 17.625513 
L 120.296732 16.68776 
L 120.618387 16.731971 
L 121.004373 17.074792 
L 121.712014 17.725752 
L 122.033669 17.725039 
L 123.191627 17.340911 
L 124.02793 17.237253 
L 124.735571 17.142661 
L 125.121557 17.076885 
L 125.957861 16.700858 
L 126.408178 16.939183 
L 127.630467 17.770285 
L 128.080784 17.746515 
L 128.46677 17.515443 
L 129.174411 16.980735 
L 129.496066 17.148465 
L 130.139376 17.619633 
L 130.461031 17.474582 
L 131.04001 17.146119 
L 132.004975 17.142635 
L 132.390961 17.268363 
L 133.034271 17.549764 
L 133.420257 17.360237 
L 134.063567 17.029444 
L 134.449553 17.087732 
L 135.671843 17.619716 
L 135.993498 17.431254 
L 136.572477 16.70869 
L 137.022794 16.294223 
L 137.344449 16.303897 
L 137.666104 16.593857 
L 138.824062 18.022548 
L 139.081386 17.966227 
L 139.403041 17.642689 
L 140.496668 16.278708 
L 140.753992 16.323999 
L 141.075647 16.632527 
L 142.233605 18.017487 
L 142.55526 17.956845 
L 142.941246 17.607505 
L 144.099205 16.359215 
L 144.485191 16.272004 
L 144.935508 16.410873 
L 145.578818 16.889116 
L 146.801107 17.833435 
L 147.380086 18.01814 
L 147.894734 17.973871 
L 148.473713 17.702951 
L 149.503009 16.899891 
L 150.274981 16.421532 
L 150.85396 16.319367 
L 151.432939 16.437179 
L 152.011918 16.785838 
L 153.427201 17.789273 
L 153.877518 17.785668 
L 154.520828 17.50356 
L 156.515089 16.539683 
L 157.673047 16.554141 
L 158.123364 16.784482 
L 159.667308 17.780714 
L 160.374949 17.880462 
L 161.146921 17.699123 
L 161.790232 17.282416 
L 162.626535 16.714855 
L 163.076852 16.682722 
L 165.714423 16.973651 
L 166.486395 17.034591 
L 167.837346 17.296709 
L 169.059635 17.495395 
L 169.960269 17.495428 
L 170.989566 17.238209 
L 172.662172 16.796062 
L 173.498475 16.835651 
L 174.399109 17.111534 
L 175.685729 17.511422 
L 176.264708 17.423393 
L 177.03668 17.02095 
L 177.67999 16.786451 
L 178.130307 16.865716 
L 178.837948 17.293745 
L 179.352597 17.505819 
L 179.802914 17.442232 
L 180.446224 17.053609 
L 181.025203 16.798411 
L 181.47552 16.865985 
L 182.826471 17.372571 
L 184.370415 17.209071 
L 184.820732 17.20207 
L 185.528373 17.115301 
L 186.171683 17.272639 
L 187.522634 17.05349 
L 188.4876 17.281129 
L 188.873586 17.020005 
L 189.452565 16.5839 
L 189.77422 16.608828 
L 190.160206 16.940337 
L 190.867847 17.569616 
L 191.189502 17.545128 
L 191.639819 17.170144 
L 192.218798 16.767319 
L 192.540453 16.785329 
L 193.762742 17.378626 
L 194.27739 17.407276 
L 195.499679 17.062017 
L 196.335982 17.408085 
L 196.657637 17.165138 
L 197.236617 16.696265 
L 197.558272 16.740167 
L 198.008589 17.154738 
L 198.71623 17.771024 
L 199.102216 17.857714 
L 199.423871 17.703895 
L 199.874188 17.156747 
L 200.388836 16.609461 
L 200.710491 16.524702 
L 201.032146 16.657264 
L 201.546794 17.156377 
L 202.190104 17.719239 
L 202.511759 17.720572 
L 202.897745 17.441511 
L 203.86271 16.543178 
L 204.184365 16.557347 
L 204.570351 16.841182 
L 205.599647 17.765397 
L 205.921302 17.725502 
L 206.37162 17.377935 
L 207.272254 16.585362 
L 207.65824 16.527602 
L 208.108557 16.703946 
L 209.974156 17.76955 
L 210.553135 17.715802 
L 211.325107 17.391536 
L 213.062044 16.559059 
L 213.705354 16.548065 
L 214.348664 16.772173 
L 215.120637 17.320307 
L 216.021271 17.9406 
L 216.60025 18.074024 
L 217.179229 17.976159 
L 220.653103 16.923813 
L 221.232082 17.022824 
L 221.875392 17.378127 
L 222.969019 18.131553 
L 223.805323 18.361583 
L 224.448633 18.349557 
L 224.963281 18.080103 
L 225.799584 17.629883 
L 226.893211 17.395044 
L 228.179831 17.249371 
L 229.209127 17.233963 
L 230.174092 17.288634 
L 231.525043 17.205788 
L 233.068988 16.766102 
L 233.776629 16.759561 
L 234.548601 17.040566 
L 236.028214 17.611679 
L 236.349869 17.651531 
L 236.349869 17.651531 
" clip-path="url(#pb8a7f65996)" style="fill: none; stroke: #2ca02c; stroke-width: 0.5; stroke-linecap: square"/>
   </g>
   <g id="line2d_17">
    <path d="M 43.356847 17.148656 
L 53.328153 17.046654 
L 54.100125 17.022195 
L 54.807767 17.25074 
L 55.322415 17.353235 
L 55.772732 17.215386 
L 56.480373 16.977493 
L 56.866359 17.221214 
L 57.188014 17.334337 
L 58.024317 17.236516 
L 58.86062 17.436399 
L 59.50393 17.015587 
L 59.825585 16.899232 
L 60.14724 17.100907 
L 60.533226 17.291424 
L 61.112205 17.416014 
L 61.755515 17.891611 
L 62.012839 17.729966 
L 62.398825 17.055894 
L 62.849142 16.321136 
L 63.042135 16.369035 
L 63.36379 16.854496 
L 63.878439 17.549726 
L 64.200094 17.674669 
L 64.521749 17.546378 
L 65.358052 16.944067 
L 65.679707 16.854507 
L 65.937031 17.00433 
L 66.387348 17.343308 
L 66.709003 17.250022 
L 67.738299 16.768967 
L 68.767595 16.982489 
L 70.054215 17.512816 
L 70.37587 17.289263 
L 70.826187 16.994884 
L 71.212173 17.075774 
L 71.791152 17.224708 
L 73.335097 17.16234 
L 74.1714 17.187491 
L 75.844006 17.107047 
L 77.452281 17.201536 
L 79.510873 17.102897 
L 82.019783 17.210379 
L 86.201298 17.138247 
L 87.166263 17.059023 
L 88.645876 16.817418 
L 89.096193 17.036974 
L 89.868165 17.775917 
L 90.318483 18.06657 
L 90.640138 18.020759 
L 91.219117 17.635899 
L 92.827392 16.396631 
L 93.213378 16.430215 
L 93.792357 16.763471 
L 94.950315 17.511676 
L 95.529294 17.559757 
L 96.108273 17.369178 
L 97.716548 16.66422 
L 98.102534 16.819751 
L 99.196162 17.396566 
L 99.968134 17.636799 
L 100.804437 17.58565 
L 101.576409 17.28116 
L 103.313346 16.43896 
L 104.149649 16.462524 
L 104.85729 16.702144 
L 105.822255 17.330662 
L 106.722889 17.814254 
L 107.366199 17.905467 
L 107.945178 17.76256 
L 108.717151 17.311363 
L 110.132433 16.435359 
L 110.647081 16.410803 
L 111.097398 16.621408 
L 111.740708 17.235475 
L 112.448349 17.854241 
L 112.770004 17.900751 
L 113.091659 17.736846 
L 113.606307 17.136669 
L 114.249617 16.444995 
L 114.571272 16.405097 
L 114.892927 16.622381 
L 115.536237 17.468601 
L 115.986554 17.875473 
L 116.308209 17.873425 
L 116.629864 17.617588 
L 117.852154 16.356472 
L 118.173809 16.521055 
L 118.688457 17.175546 
L 119.203105 17.703757 
L 119.52476 17.749213 
L 119.910746 17.557611 
L 120.747049 16.79768 
L 121.133035 16.552665 
L 121.390359 16.612416 
L 121.776345 16.978322 
L 122.226662 17.333453 
L 122.548317 17.290097 
L 123.38462 16.93215 
L 123.899268 17.114683 
L 124.349585 17.240233 
L 124.799902 17.282863 
L 125.443212 17.713248 
L 125.700536 17.460384 
L 126.343847 16.748576 
L 126.729833 16.699967 
L 127.308812 16.795515 
L 128.788425 17.740319 
L 129.11008 17.304754 
L 129.496066 16.857315 
L 129.75339 16.8128 
L 130.010714 17.00739 
L 130.589693 17.546445 
L 130.847017 17.441812 
L 131.297334 17.25218 
L 131.940644 17.270164 
L 132.519623 16.816718 
L 132.776947 16.921208 
L 133.420257 17.393994 
L 134.320891 16.956175 
L 134.83554 16.719085 
L 135.157195 16.814496 
L 135.607512 17.245611 
L 136.250822 17.919069 
L 136.508146 17.909458 
L 136.829801 17.635257 
L 138.05209 16.26567 
L 138.309414 16.377984 
L 138.6954 16.849791 
L 139.531703 17.970312 
L 139.789027 18.019458 
L 140.046351 17.87179 
L 140.496668 17.2621 
L 141.139978 16.383393 
L 141.461633 16.273763 
L 141.783288 16.449889 
L 142.297936 17.122372 
L 142.941246 17.896409 
L 143.327232 18.025287 
L 143.713219 17.8746 
L 144.292198 17.324895 
L 145.192832 16.484225 
L 145.70748 16.28368 
L 146.222128 16.322618 
L 146.801107 16.600245 
L 147.959065 17.495368 
L 148.731037 17.940211 
L 149.310016 18.011889 
L 149.824664 17.854928 
L 150.532305 17.370358 
L 151.883256 16.372492 
L 152.397904 16.271084 
L 152.848222 16.401449 
L 153.491532 16.849934 
L 154.520828 17.619261 
L 155.035476 17.6487 
L 156.450758 17.513746 
L 156.965406 17.119003 
L 157.737378 16.551414 
L 158.895336 16.079968 
L 159.409984 16.183321 
L 159.924632 16.522427 
L 161.275583 17.686334 
L 161.790232 17.730614 
L 162.690866 17.472716 
L 164.87812 17.028134 
L 167.194036 17.073751 
L 168.287663 16.873769 
L 169.123966 17.047797 
L 171.118228 17.510432 
L 171.954531 17.438824 
L 173.17682 17.066306 
L 174.334778 16.789278 
L 175.042419 16.85605 
L 175.814391 17.174731 
L 176.715025 17.50866 
L 177.229673 17.432569 
L 177.937314 17.028194 
L 178.516293 16.790084 
L 178.96661 16.857784 
L 179.674252 17.289153 
L 180.1889 17.50487 
L 180.639217 17.44271 
L 181.282527 17.048812 
L 181.797175 16.824581 
L 182.183161 16.885535 
L 183.469781 17.379733 
L 184.627739 17.203062 
L 185.078056 17.333052 
L 185.399711 17.114085 
L 185.721366 16.915914 
L 185.97869 17.086614 
L 186.364676 17.401114 
L 186.686331 17.329682 
L 187.522634 17.065756 
L 187.972951 17.073839 
L 188.423269 17.38365 
L 188.873586 17.687271 
L 189.13091 17.570339 
L 189.77422 16.898951 
L 190.160206 16.569172 
L 190.41753 16.563855 
L 190.739185 16.815903 
L 191.511157 17.65683 
L 191.897143 17.479434 
L 192.34746 17.112713 
L 192.733446 16.795591 
L 193.248094 16.823996 
L 194.020066 16.954737 
L 194.727707 17.376026 
L 195.049362 17.172939 
L 195.692672 16.685293 
L 195.949996 16.758336 
L 196.271651 17.116202 
L 196.721968 17.641672 
L 196.979292 17.552819 
L 198.137251 16.610979 
L 198.587568 16.782286 
L 199.037885 17.113498 
L 199.874188 17.898489 
L 200.131512 17.796708 
L 200.64616 17.228845 
L 201.28947 16.596756 
L 201.611125 16.540032 
L 201.93278 16.708614 
L 202.57609 17.420228 
L 203.026407 17.751394 
L 203.348062 17.736517 
L 203.734048 17.450022 
L 204.699013 16.54504 
L 205.020668 16.554701 
L 205.406654 16.830337 
L 206.435951 17.75387 
L 206.821937 17.72849 
L 207.272254 17.423607 
L 208.365881 16.581536 
L 208.816198 16.527552 
L 209.330846 16.686197 
L 210.488804 17.379571 
L 211.325107 17.726502 
L 211.968417 17.762648 
L 212.676058 17.556509 
L 213.834016 16.911381 
L 214.863313 16.443392 
L 215.442292 16.446375 
L 216.471588 16.711656 
L 218.465849 17.586157 
L 219.623807 17.58435 
L 220.138455 17.462144 
L 221.875392 16.719651 
L 222.583033 16.773402 
L 223.419336 17.164587 
L 224.963281 17.928031 
L 225.477929 17.904042 
L 226.056908 17.608959 
L 227.086204 16.984249 
L 227.793845 16.918539 
L 229.40212 17.075356 
L 231.525043 17.595171 
L 232.425677 17.406192 
L 234.677263 16.655062 
L 235.384904 16.719382 
L 236.285538 17.059732 
L 236.349869 17.08978 
L 236.349869 17.08978 
" clip-path="url(#pb8a7f65996)" style="fill: none; stroke: #d62728; stroke-width: 0.5; stroke-linecap: square"/>
   </g>
   <g id="patch_3">
    <path d="M 33.707196 202.559296 
L 33.707196 7.2 
" style="fill: none; stroke: #000000; stroke-width: 0.8; stroke-linejoin: miter; stroke-linecap: square"/>
   </g>
   <g id="patch_4">
    <path d="M 245.99952 202.559296 
L 245.99952 7.2 
" style="fill: none; stroke: #000000; stroke-width: 0.8; stroke-linejoin: miter; stroke-linecap: square"/>
   </g>
   <g id="patch_5">
    <path d="M 33.707196 202.559296 
L 245.99952 202.559296 
" style="fill: none; stroke: #000000; stroke-width: 0.8; stroke-linejoin: miter; stroke-linecap: square"/>
   </g>
   <g id="patch_6">
    <path d="M 33.707196 7.2 
L 245.99952 7.2 
" style="fill: none; stroke: #000000; stroke-width: 0.8; stroke-linejoin: miter; stroke-linecap: square"/>
   </g>
   <g id="legend_1">
    <g id="patch_7">
     <path d="M 193.792605 198.059296 
L 239.69952 198.059296 
Q 241.49952 198.059296 241.49952 196.259296 
L 241.49952 156.760168 
Q 241.49952 154.960168 239.69952 154.960168 
L 193.792605 154.960168 
Q 191.992605 154.960168 191.992605 156.760168 
L 191.992605 196.259296 
Q 191.992605 198.059296 193.792605 198.059296 
z
" style="fill: #ffffff; opacity: 0.8; stroke: #cccccc; stroke-width: 0.24; stroke-linejoin: miter"/>
    </g>
    <g id="line2d_18">
     <path d="M 195.592605 162.13495 
L 204.592605 162.13495 
L 213.592605 162.13495 
" style="fill: none; stroke: #ff7f0e; stroke-width: 0.5; stroke-linecap: square"/>
    </g>
    <g id="text_16">
     <!-- $\langle \sigma_z\rangle$ -->
     <g transform="translate(220.792605 165.28495) scale(0.09 -0.09)">
      <defs>
       <path id="CMSY10-68" d="M 2099 4557 
C 2131 4627 2131 4640 2131 4672 
C 2131 4742 2074 4800 2003 4800 
C 1946 4800 1901 4768 1856 4653 
L 736 1715 
C 723 1677 704 1638 704 1600 
C 704 1581 704 1568 736 1491 
L 1856 -1446 
C 1882 -1517 1914 -1600 2003 -1600 
C 2074 -1600 2131 -1542 2131 -1472 
C 2131 -1453 2131 -1440 2099 -1370 
L 966 1600 
L 2099 4557 
z
" transform="scale(0.015625)"/>
       <path id="CMMI12-1b" d="M 3251 2408 
C 3334 2408 3546 2408 3546 2612 
C 3546 2752 3424 2752 3309 2752 
L 1894 2752 
C 934 2752 243 1686 243 932 
C 243 390 595 -64 1171 -64 
C 1926 -64 2752 747 2752 1705 
C 2752 1954 2694 2196 2541 2408 
L 3251 2408 
z
M 1178 64 
C 851 64 614 313 614 754 
C 614 1137 845 2408 1786 2408 
C 2061 2408 2368 2274 2368 1781 
C 2368 1558 2266 1021 2042 652 
C 1811 275 1466 64 1178 64 
z
" transform="scale(0.015625)"/>
       <path id="CMMI12-7a" d="M 813 486 
C 1088 803 1312 1004 1632 1296 
C 2016 1632 2182 1793 2272 1891 
C 2720 2338 2944 2713 2944 2764 
C 2944 2816 2893 2816 2880 2816 
C 2835 2816 2822 2793 2790 2750 
C 2630 2494 2477 2367 2310 2367 
C 2176 2367 2106 2421 1984 2565 
C 1850 2715 1741 2816 1555 2816 
C 1088 2816 806 2257 806 2128 
C 806 2108 813 2068 870 2068 
C 922 2068 928 2091 947 2133 
C 1056 2372 1363 2414 1485 2414 
C 1619 2414 1747 2376 1882 2327 
C 2125 2240 2227 2240 2291 2240 
C 2336 2240 2362 2240 2394 2246 
C 2182 1994 1837 1683 1549 1418 
L 902 816 
C 512 415 275 33 275 -12 
C 275 -51 307 -64 346 -64 
C 384 -64 390 -57 435 14 
C 538 163 742 384 979 384 
C 1114 384 1178 342 1306 193 
C 1427 61 1536 -64 1741 -64 
C 2368 -64 2726 732 2726 876 
C 2726 903 2720 942 2656 942 
C 2605 942 2598 917 2579 855 
C 2438 488 2061 338 1811 338 
C 1677 338 1549 376 1414 425 
C 1158 512 1088 512 1005 512 
C 941 512 870 512 813 486 
z
" transform="scale(0.015625)"/>
       <path id="CMSY10-69" d="M 1747 1491 
C 1779 1568 1779 1581 1779 1600 
C 1779 1619 1779 1632 1747 1709 
L 627 4653 
C 589 4762 550 4800 480 4800 
C 410 4800 352 4742 352 4672 
C 352 4653 352 4640 384 4570 
L 1517 1600 
L 384 -1357 
C 352 -1427 352 -1440 352 -1472 
C 352 -1542 410 -1600 480 -1600 
C 563 -1600 589 -1536 614 -1472 
L 1747 1491 
z
" transform="scale(0.015625)"/>
      </defs>
      <use xlink:href="#CMSY10-68" transform="scale(0.996264)"/>
      <use xlink:href="#CMMI12-1b" transform="translate(38.743734 0) scale(0.996264)"/>
      <use xlink:href="#CMMI12-7a" transform="translate(94.189195 -14.943915) scale(0.697382)"/>
      <use xlink:href="#CMSY10-69" transform="translate(129.51575 0) scale(0.996264)"/>
     </g>
    </g>
    <g id="line2d_19">
     <path d="M 195.592605 175.601326 
L 204.592605 175.601326 
L 213.592605 175.601326 
" style="fill: none; stroke: #2ca02c; stroke-width: 0.5; stroke-linecap: square"/>
    </g>
    <g id="text_17">
     <!-- $\langle \sigma_x\rangle$ -->
     <g transform="translate(220.792605 178.751326) scale(0.09 -0.09)">
      <defs>
       <path id="CMMI12-78" d="M 3034 2606 
C 2829 2567 2752 2414 2752 2293 
C 2752 2139 2874 2088 2963 2088 
C 3155 2088 3290 2254 3290 2427 
C 3290 2695 2982 2816 2714 2816 
C 2323 2816 2106 2433 2048 2312 
C 1901 2816 1504 2816 1389 2816 
C 736 2816 390 1980 390 1839 
C 390 1814 416 1782 461 1782 
C 512 1782 525 1820 538 1846 
C 755 2555 1184 2689 1370 2689 
C 1658 2689 1715 2420 1715 2267 
C 1715 2127 1677 1980 1600 1673 
L 1382 798 
C 1286 415 1101 64 762 64 
C 730 64 570 64 435 147 
C 666 192 717 383 717 460 
C 717 588 621 664 499 664 
C 346 664 179 530 179 326 
C 179 57 480 -64 755 -64 
C 1062 -64 1280 179 1414 441 
C 1517 64 1837 -64 2074 -64 
C 2726 -64 3072 773 3072 913 
C 3072 945 3046 971 3008 971 
C 2950 971 2944 939 2925 888 
C 2752 326 2381 64 2093 64 
C 1869 64 1747 230 1747 492 
C 1747 632 1773 734 1875 1156 
L 2099 2024 
C 2195 2408 2413 2689 2707 2689 
C 2720 2689 2899 2689 3034 2606 
z
" transform="scale(0.015625)"/>
      </defs>
      <use xlink:href="#CMSY10-68" transform="scale(0.996264)"/>
      <use xlink:href="#CMMI12-1b" transform="translate(38.743734 0) scale(0.996264)"/>
      <use xlink:href="#CMMI12-78" transform="translate(94.189195 -14.943915) scale(0.697382)"/>
      <use xlink:href="#CMSY10-69" transform="translate(133.490986 0) scale(0.996264)"/>
     </g>
    </g>
    <g id="line2d_20">
     <path d="M 195.592605 189.067702 
L 204.592605 189.067702 
L 213.592605 189.067702 
" style="fill: none; stroke: #d62728; stroke-width: 0.5; stroke-linecap: square"/>
    </g>
    <g id="text_18">
     <!-- $\langle \sigma_y\rangle$ -->
     <g transform="translate(220.792605 192.217702) scale(0.09 -0.09)">
      <defs>
       <path id="CMMI12-79" d="M 1683 -700 
C 1510 -939 1261 -1152 947 -1152 
C 870 -1152 563 -1152 467 -889 
C 486 -895 518 -895 531 -895 
C 723 -895 851 -729 851 -582 
C 851 -435 730 -384 634 -384 
C 531 -384 307 -458 307 -759 
C 307 -1071 582 -1286 947 -1286 
C 1587 -1286 2234 -700 2413 6 
L 3040 2485 
C 3046 2517 3059 2556 3059 2594 
C 3059 2689 2982 2753 2886 2753 
C 2829 2753 2694 2727 2643 2535 
L 2170 658 
C 2138 543 2138 530 2086 460 
C 1958 281 1747 64 1440 64 
C 1082 64 1050 415 1050 588 
C 1050 952 1222 1443 1395 1903 
C 1466 2088 1504 2178 1504 2305 
C 1504 2574 1312 2816 998 2816 
C 410 2816 173 1890 173 1839 
C 173 1814 198 1782 243 1782 
C 301 1782 307 1807 333 1897 
C 486 2433 730 2689 979 2689 
C 1037 2689 1146 2689 1146 2478 
C 1146 2312 1075 2127 979 1884 
C 666 1047 666 837 666 683 
C 666 77 1101 -64 1421 -64 
C 1606 -64 1837 -6 2061 230 
L 2067 224 
C 1971 -147 1907 -392 1683 -700 
z
" transform="scale(0.015625)"/>
      </defs>
      <use xlink:href="#CMSY10-68" transform="scale(0.996264)"/>
      <use xlink:href="#CMMI12-1b" transform="translate(38.743734 0) scale(0.996264)"/>
      <use xlink:href="#CMMI12-79" transform="translate(94.189195 -14.943915) scale(0.697382)"/>
      <use xlink:href="#CMSY10-69" transform="translate(130.484301 0) scale(0.996264)"/>
     </g>
    </g>
   </g>
  </g>
 </g>
 <defs>
  <clipPath id="pb8a7f65996">
   <rect x="33.707196" y="7.2" width="212.292324" height="195.359296"/>
  </clipPath>
 </defs>
</svg>
