<?xml version="1.0" encoding="utf-8" standalone="no"?>
<!DOCTYPE svg PUBLIC "-//W3C//DTD SVG 1.1//EN"
  "http://www.w3.org/Graphics/SVG/1.1/DTD/svg11.dtd">
<svg xmlns:xlink="http://www.w3.org/1999/xlink" width="253.19952pt" height="238.79952pt" viewBox="0 0 253.19952 238.79952" xmlns="http://www.w3.org/2000/svg" version="1.1">
 <metadata>
  <rdf:RDF xmlns:dc="http://purl.org/dc/elements/1.1/" xmlns:cc="http://creativecommons.org/ns#" xmlns:rdf="http://www.w3.org/1999/02/22-rdf-syntax-ns#">
   <cc:Work>
    <dc:type rdf:resource="http://purl.org/dc/dcmitype/StillImage"/>
    <dc:date>1980-01-01T00:00:00+00:00</dc:date>
    <dc:format>image/svg+xml</dc:format>
    <dc:creator>
     <cc:Agent>
      <dc:title>Matplotlib v3.6.2, https://matplotlib.org/</dc:title>
     </cc:Agent>
    </dc:creator>
   </cc:Work>
  </rdf:RDF>
 </metadata>
 <defs>
  <style type="text/css">*{stroke-linejoin: round; stroke-linecap: butt}</style>
 </defs>
 <g id="figure_1">
  <g id="patch_1">
   <path d="M 0 238.79952 
L 253.19952 238.79952 
L 253.19952 0 
L 0 0 
z
" style="fill: #ffffff"/>
  </g>
  <g id="axes_1">
   <g id="patch_2">
    <path d="M 33.707196 202.559296 
L 245.99952 202.559296 
L 245.99952 7.2 
L 33.707196 7.2 
z
" style="fill: #ffffff"/>
   </g>
   <g id="matplotlib.axis_1">
    <g id="xtick_1">
     <g id="line2d_1">
      <defs>
       <path id="mff932e0bd8" d="M 0 0 
L 0 3.5 
" style="stroke: #000000; stroke-width: 0.8"/>
      </defs>
      <g>
       <use xlink:href="#mff932e0bd8" x="43.356847" y="202.559296" style="stroke: #000000; stroke-width: 0.8"/>
      </g>
     </g>
     <g id="text_1">
      <!-- $\mathdefault{0}$ -->
      <g transform="translate(41.239756 217.194098) scale(0.08 -0.08)">
       <defs>
        <path id="CMR17-30" d="M 2688 2025 
C 2688 2416 2682 3080 2413 3591 
C 2176 4039 1798 4198 1466 4198 
C 1158 4198 768 4058 525 3597 
C 269 3118 243 2524 243 2025 
C 243 1661 250 1106 448 619 
C 723 -39 1216 -128 1466 -128 
C 1760 -128 2208 -7 2470 600 
C 2662 1042 2688 1559 2688 2025 
z
M 1466 -26 
C 1056 -26 813 325 723 812 
C 653 1188 653 1738 653 2096 
C 653 2588 653 2997 736 3387 
C 858 3929 1216 4096 1466 4096 
C 1728 4096 2067 3923 2189 3400 
C 2272 3036 2278 2607 2278 2096 
C 2278 1680 2278 1169 2202 792 
C 2067 95 1690 -26 1466 -26 
z
" transform="scale(0.015625)"/>
       </defs>
       <use xlink:href="#CMR17-30" transform="scale(0.996264)"/>
      </g>
     </g>
    </g>
    <g id="xtick_2">
     <g id="line2d_2">
      <g>
       <use xlink:href="#mff932e0bd8" x="70.161434" y="202.559296" style="stroke: #000000; stroke-width: 0.8"/>
      </g>
     </g>
     <g id="text_2">
      <!-- $\mathdefault{25}$ -->
      <g transform="translate(65.927251 217.194098) scale(0.08 -0.08)">
       <defs>
        <path id="CMR17-32" d="M 2669 989 
L 2554 989 
C 2490 536 2438 459 2413 420 
C 2381 369 1920 369 1830 369 
L 602 369 
C 832 619 1280 1072 1824 1597 
C 2214 1967 2669 2402 2669 3035 
C 2669 3790 2067 4224 1395 4224 
C 691 4224 262 3604 262 3030 
C 262 2780 448 2748 525 2748 
C 589 2748 781 2787 781 3010 
C 781 3207 614 3264 525 3264 
C 486 3264 448 3258 422 3245 
C 544 3790 915 4058 1306 4058 
C 1862 4058 2227 3617 2227 3035 
C 2227 2479 1901 2000 1536 1584 
L 262 146 
L 262 0 
L 2515 0 
L 2669 989 
z
" transform="scale(0.015625)"/>
        <path id="CMR17-35" d="M 730 3692 
C 794 3666 1056 3584 1325 3584 
C 1920 3584 2246 3911 2432 4100 
C 2432 4157 2432 4192 2394 4192 
C 2387 4192 2374 4192 2323 4163 
C 2099 4058 1837 3973 1517 3973 
C 1325 3973 1037 3999 723 4139 
C 653 4171 640 4171 634 4171 
C 602 4171 595 4164 595 4037 
L 595 2203 
C 595 2089 595 2057 659 2057 
C 691 2057 704 2070 736 2114 
C 941 2401 1222 2522 1542 2522 
C 1766 2522 2246 2382 2246 1289 
C 2246 1085 2246 715 2054 421 
C 1894 159 1645 25 1370 25 
C 947 25 518 320 403 814 
C 429 807 480 795 506 795 
C 589 795 749 840 749 1038 
C 749 1210 627 1280 506 1280 
C 358 1280 262 1190 262 1011 
C 262 454 704 -128 1382 -128 
C 2042 -128 2669 440 2669 1264 
C 2669 2030 2170 2624 1549 2624 
C 1222 2624 947 2503 730 2274 
L 730 3692 
z
" transform="scale(0.015625)"/>
       </defs>
       <use xlink:href="#CMR17-32" transform="scale(0.996264)"/>
       <use xlink:href="#CMR17-35" transform="translate(45.690477 0) scale(0.996264)"/>
      </g>
     </g>
    </g>
    <g id="xtick_3">
     <g id="line2d_3">
      <g>
       <use xlink:href="#mff932e0bd8" x="96.96602" y="202.559296" style="stroke: #000000; stroke-width: 0.8"/>
      </g>
     </g>
     <g id="text_3">
      <!-- $\mathdefault{50}$ -->
      <g transform="translate(92.731837 217.194098) scale(0.08 -0.08)">
       <use xlink:href="#CMR17-35" transform="scale(0.996264)"/>
       <use xlink:href="#CMR17-30" transform="translate(45.690477 0) scale(0.996264)"/>
      </g>
     </g>
    </g>
    <g id="xtick_4">
     <g id="line2d_4">
      <g>
       <use xlink:href="#mff932e0bd8" x="123.770606" y="202.559296" style="stroke: #000000; stroke-width: 0.8"/>
      </g>
     </g>
     <g id="text_4">
      <!-- $\mathdefault{75}$ -->
      <g transform="translate(119.536423 217.194098) scale(0.08 -0.08)">
       <defs>
        <path id="CMR17-37" d="M 2886 3941 
L 2886 4081 
L 1382 4081 
C 634 4081 621 4165 595 4288 
L 480 4288 
L 294 3094 
L 410 3094 
C 429 3215 474 3540 550 3661 
C 589 3712 1062 3712 1171 3712 
L 2579 3712 
L 1869 2661 
C 1395 1954 1069 999 1069 165 
C 1069 89 1069 -128 1299 -128 
C 1530 -128 1530 89 1530 171 
L 1530 465 
C 1530 1508 1709 2196 2003 2636 
L 2886 3941 
z
" transform="scale(0.015625)"/>
       </defs>
       <use xlink:href="#CMR17-37" transform="scale(0.996264)"/>
       <use xlink:href="#CMR17-35" transform="translate(45.690477 0) scale(0.996264)"/>
      </g>
     </g>
    </g>
    <g id="xtick_5">
     <g id="line2d_5">
      <g>
       <use xlink:href="#mff932e0bd8" x="150.575193" y="202.559296" style="stroke: #000000; stroke-width: 0.8"/>
      </g>
     </g>
     <g id="text_5">
      <!-- $\mathdefault{100}$ -->
      <g transform="translate(144.223918 217.194098) scale(0.08 -0.08)">
       <defs>
        <path id="CMR17-31" d="M 1702 4058 
C 1702 4192 1696 4192 1606 4192 
C 1357 3916 979 3827 621 3827 
C 602 3827 570 3827 563 3808 
C 557 3795 557 3782 557 3648 
C 755 3648 1088 3686 1344 3839 
L 1344 461 
C 1344 236 1331 160 781 160 
L 589 160 
L 589 0 
C 896 0 1216 0 1523 0 
C 1830 0 2150 0 2458 0 
L 2458 160 
L 2266 160 
C 1715 160 1702 230 1702 458 
L 1702 4058 
z
" transform="scale(0.015625)"/>
       </defs>
       <use xlink:href="#CMR17-31" transform="scale(0.996264)"/>
       <use xlink:href="#CMR17-30" transform="translate(45.690477 0) scale(0.996264)"/>
       <use xlink:href="#CMR17-30" transform="translate(91.380954 0) scale(0.996264)"/>
      </g>
     </g>
    </g>
    <g id="xtick_6">
     <g id="line2d_6">
      <g>
       <use xlink:href="#mff932e0bd8" x="177.379779" y="202.559296" style="stroke: #000000; stroke-width: 0.8"/>
      </g>
     </g>
     <g id="text_6">
      <!-- $\mathdefault{125}$ -->
      <g transform="translate(171.028505 217.194098) scale(0.08 -0.08)">
       <use xlink:href="#CMR17-31" transform="scale(0.996264)"/>
       <use xlink:href="#CMR17-32" transform="translate(45.690477 0) scale(0.996264)"/>
       <use xlink:href="#CMR17-35" transform="translate(91.380954 0) scale(0.996264)"/>
      </g>
     </g>
    </g>
    <g id="xtick_7">
     <g id="line2d_7">
      <g>
       <use xlink:href="#mff932e0bd8" x="204.184365" y="202.559296" style="stroke: #000000; stroke-width: 0.8"/>
      </g>
     </g>
     <g id="text_7">
      <!-- $\mathdefault{150}$ -->
      <g transform="translate(197.833091 217.194098) scale(0.08 -0.08)">
       <use xlink:href="#CMR17-31" transform="scale(0.996264)"/>
       <use xlink:href="#CMR17-35" transform="translate(45.690477 0) scale(0.996264)"/>
       <use xlink:href="#CMR17-30" transform="translate(91.380954 0) scale(0.996264)"/>
      </g>
     </g>
    </g>
    <g id="xtick_8">
     <g id="line2d_8">
      <g>
       <use xlink:href="#mff932e0bd8" x="230.988952" y="202.559296" style="stroke: #000000; stroke-width: 0.8"/>
      </g>
     </g>
     <g id="text_8">
      <!-- $\mathdefault{175}$ -->
      <g transform="translate(224.637677 217.194098) scale(0.08 -0.08)">
       <use xlink:href="#CMR17-31" transform="scale(0.996264)"/>
       <use xlink:href="#CMR17-37" transform="translate(45.690477 0) scale(0.996264)"/>
       <use xlink:href="#CMR17-35" transform="translate(91.380954 0) scale(0.996264)"/>
      </g>
     </g>
    </g>
    <g id="text_9">
     <!-- $\tau$ -->
     <g transform="translate(137.675756 229.662342) scale(0.1 -0.1)">
      <defs>
       <path id="CMMI12-1c" d="M 1837 2408 
L 2899 2408 
C 2982 2408 3194 2408 3194 2612 
C 3194 2752 3072 2752 2957 2752 
L 1197 2752 
C 1050 2752 832 2752 538 2440 
C 371 2255 166 1917 166 1879 
C 166 1841 198 1828 237 1828 
C 282 1828 288 1847 320 1885 
C 653 2408 986 2408 1146 2408 
L 1677 2408 
L 1011 223 
C 979 127 979 114 979 95 
C 979 25 1024 -64 1152 -64 
C 1350 -64 1382 108 1402 203 
L 1837 2408 
z
" transform="scale(0.015625)"/>
      </defs>
      <use xlink:href="#CMMI12-1c" transform="scale(0.996264)"/>
     </g>
    </g>
   </g>
   <g id="matplotlib.axis_2">
    <g id="ytick_1">
     <g id="line2d_9">
      <defs>
       <path id="m5ec5b3e617" d="M 0 0 
L -3.5 0 
" style="stroke: #000000; stroke-width: 0.8"/>
      </defs>
      <g>
       <use xlink:href="#m5ec5b3e617" x="33.707196" y="193.679328" style="stroke: #000000; stroke-width: 0.8"/>
      </g>
     </g>
     <g id="text_10">
      <!-- $\mathdefault{−1.0}$ -->
      <g transform="translate(7.2 196.446729) scale(0.08 -0.08)">
       <defs>
        <path id="CMSY10-0" d="M 4218 1472 
C 4326 1472 4442 1472 4442 1600 
C 4442 1728 4326 1728 4218 1728 
L 755 1728 
C 646 1728 531 1728 531 1600 
C 531 1472 646 1472 755 1472 
L 4218 1472 
z
" transform="scale(0.015625)"/>
        <path id="CMMI12-3a" d="M 1178 307 
C 1178 492 1024 619 870 619 
C 685 619 557 466 557 313 
C 557 128 710 0 864 0 
C 1050 0 1178 153 1178 307 
z
" transform="scale(0.015625)"/>
       </defs>
       <use xlink:href="#CMSY10-0" transform="scale(0.996264)"/>
       <use xlink:href="#CMR17-31" transform="translate(77.487468 0) scale(0.996264)"/>
       <use xlink:href="#CMMI12-3a" transform="translate(123.177945 0) scale(0.996264)"/>
       <use xlink:href="#CMR17-30" transform="translate(150.275122 0) scale(0.996264)"/>
      </g>
     </g>
    </g>
    <g id="ytick_2">
     <g id="line2d_10">
      <g>
       <use xlink:href="#m5ec5b3e617" x="33.707196" y="158.366796" style="stroke: #000000; stroke-width: 0.8"/>
      </g>
     </g>
     <g id="text_11">
      <!-- $\mathdefault{−0.8}$ -->
      <g transform="translate(7.2 161.134197) scale(0.08 -0.08)">
       <defs>
        <path id="CMR17-38" d="M 1741 2264 
C 2144 2467 2554 2773 2554 3263 
C 2554 3841 1990 4179 1472 4179 
C 890 4179 378 3759 378 3180 
C 378 3021 416 2747 666 2505 
C 730 2442 998 2251 1171 2130 
C 883 1983 211 1634 211 934 
C 211 279 838 -128 1459 -128 
C 2144 -128 2720 362 2720 1010 
C 2720 1590 2330 1857 2074 2029 
L 1741 2264 
z
M 902 2822 
C 851 2854 595 3051 595 3351 
C 595 3739 998 4032 1459 4032 
C 1965 4032 2336 3676 2336 3262 
C 2336 2669 1670 2331 1638 2331 
C 1632 2331 1626 2331 1574 2370 
L 902 2822 
z
M 2080 1519 
C 2176 1449 2483 1240 2483 851 
C 2483 381 2010 25 1472 25 
C 890 25 448 438 448 940 
C 448 1443 838 1862 1280 2060 
L 2080 1519 
z
" transform="scale(0.015625)"/>
       </defs>
       <use xlink:href="#CMSY10-0" transform="scale(0.996264)"/>
       <use xlink:href="#CMR17-30" transform="translate(77.487468 0) scale(0.996264)"/>
       <use xlink:href="#CMMI12-3a" transform="translate(123.177945 0) scale(0.996264)"/>
       <use xlink:href="#CMR17-38" transform="translate(150.275122 0) scale(0.996264)"/>
      </g>
     </g>
    </g>
    <g id="ytick_3">
     <g id="line2d_11">
      <g>
       <use xlink:href="#m5ec5b3e617" x="33.707196" y="123.054265" style="stroke: #000000; stroke-width: 0.8"/>
      </g>
     </g>
     <g id="text_12">
      <!-- $\mathdefault{−0.6}$ -->
      <g transform="translate(7.2 125.821666) scale(0.08 -0.08)">
       <defs>
        <path id="CMR17-36" d="M 678 2176 
C 678 3690 1395 4032 1811 4032 
C 1946 4032 2272 4009 2400 3776 
C 2298 3776 2106 3776 2106 3553 
C 2106 3381 2246 3323 2336 3323 
C 2394 3323 2566 3348 2566 3560 
C 2566 3954 2246 4179 1805 4179 
C 1043 4179 243 3390 243 1984 
C 243 253 966 -128 1478 -128 
C 2099 -128 2688 427 2688 1283 
C 2688 2081 2170 2662 1517 2662 
C 1126 2662 838 2407 678 1960 
L 678 2176 
z
M 1478 25 
C 691 25 691 1200 691 1436 
C 691 1896 909 2560 1504 2560 
C 1613 2560 1926 2560 2138 2120 
C 2253 1870 2253 1609 2253 1289 
C 2253 944 2253 690 2118 434 
C 1978 171 1773 25 1478 25 
z
" transform="scale(0.015625)"/>
       </defs>
       <use xlink:href="#CMSY10-0" transform="scale(0.996264)"/>
       <use xlink:href="#CMR17-30" transform="translate(77.487468 0) scale(0.996264)"/>
       <use xlink:href="#CMMI12-3a" transform="translate(123.177945 0) scale(0.996264)"/>
       <use xlink:href="#CMR17-36" transform="translate(150.275122 0) scale(0.996264)"/>
      </g>
     </g>
    </g>
    <g id="ytick_4">
     <g id="line2d_12">
      <g>
       <use xlink:href="#m5ec5b3e617" x="33.707196" y="87.741733" style="stroke: #000000; stroke-width: 0.8"/>
      </g>
     </g>
     <g id="text_13">
      <!-- $\mathdefault{−0.4}$ -->
      <g transform="translate(7.2 90.509134) scale(0.08 -0.08)">
       <defs>
        <path id="CMR17-34" d="M 2150 4122 
C 2150 4256 2144 4256 2029 4256 
L 128 1254 
L 128 1088 
L 1779 1088 
L 1779 457 
C 1779 224 1766 160 1318 160 
L 1197 160 
L 1197 0 
C 1402 0 1747 0 1965 0 
C 2182 0 2528 0 2733 0 
L 2733 160 
L 2611 160 
C 2163 160 2150 224 2150 457 
L 2150 1088 
L 2803 1088 
L 2803 1254 
L 2150 1254 
L 2150 4122 
z
M 1798 3703 
L 1798 1254 
L 256 1254 
L 1798 3703 
z
" transform="scale(0.015625)"/>
       </defs>
       <use xlink:href="#CMSY10-0" transform="scale(0.996264)"/>
       <use xlink:href="#CMR17-30" transform="translate(77.487468 0) scale(0.996264)"/>
       <use xlink:href="#CMMI12-3a" transform="translate(123.177945 0) scale(0.996264)"/>
       <use xlink:href="#CMR17-34" transform="translate(150.275122 0) scale(0.996264)"/>
      </g>
     </g>
    </g>
    <g id="ytick_5">
     <g id="line2d_13">
      <g>
       <use xlink:href="#m5ec5b3e617" x="33.707196" y="52.429202" style="stroke: #000000; stroke-width: 0.8"/>
      </g>
     </g>
     <g id="text_14">
      <!-- $\mathdefault{−0.2}$ -->
      <g transform="translate(7.2 55.196603) scale(0.08 -0.08)">
       <use xlink:href="#CMSY10-0" transform="scale(0.996264)"/>
       <use xlink:href="#CMR17-30" transform="translate(77.487468 0) scale(0.996264)"/>
       <use xlink:href="#CMMI12-3a" transform="translate(123.177945 0) scale(0.996264)"/>
       <use xlink:href="#CMR17-32" transform="translate(150.275122 0) scale(0.996264)"/>
      </g>
     </g>
    </g>
    <g id="ytick_6">
     <g id="line2d_14">
      <g>
       <use xlink:href="#m5ec5b3e617" x="33.707196" y="17.11667" style="stroke: #000000; stroke-width: 0.8"/>
      </g>
     </g>
     <g id="text_15">
      <!-- $\mathdefault{0.0}$ -->
      <g transform="translate(13.786507 19.884071) scale(0.08 -0.08)">
       <use xlink:href="#CMR17-30" transform="scale(0.996264)"/>
       <use xlink:href="#CMMI12-3a" transform="translate(45.690477 0) scale(0.996264)"/>
       <use xlink:href="#CMR17-30" transform="translate(72.787654 0) scale(0.996264)"/>
      </g>
     </g>
    </g>
   </g>
   <g id="line2d_15">
    <path d="M 43.356847 193.679328 
L 52.749174 193.576089 
L 53.070829 193.347716 
L 53.392484 192.821205 
L 53.714139 191.781594 
L 54.035794 189.969276 
L 54.42178 186.397856 
L 54.872098 179.910186 
L 55.451077 168.017773 
L 56.480373 140.985936 
L 57.574 114.584643 
L 58.345972 100.66923 
L 59.117944 90.539658 
L 59.825585 84.021843 
L 60.79055 77.309335 
L 61.819846 71.633704 
L 62.527487 68.863166 
L 63.235128 67.167688 
L 65.22939 63.156463 
L 65.8727 62.054165 
L 66.644672 61.258541 
L 66.966327 61.291423 
L 67.352313 61.333358 
L 67.738299 61.109447 
L 68.44594 60.664059 
L 68.831926 60.666561 
L 69.475236 60.90352 
L 70.633194 62.226468 
L 71.212173 63.169245 
L 72.048476 64.383257 
L 72.820449 65.424746 
L 73.399428 65.851277 
L 74.042738 66.009706 
L 75.329358 66.060706 
L 86.201298 66.165242 
L 86.651615 66.421879 
L 87.037601 66.966344 
L 87.423587 68.010398 
L 87.809573 69.692974 
L 88.324221 73.001231 
L 89.031862 79.227175 
L 92.184082 111.037352 
L 93.020385 116.382447 
L 93.98535 120.507334 
L 94.821653 123.499219 
L 95.529294 125.060961 
L 96.55859 126.916052 
L 97.330562 128.168308 
L 97.780879 128.85395 
L 98.359858 129.26038 
L 100.804437 130.549172 
L 101.512078 131.278786 
L 101.962395 132.057182 
L 102.477043 133.399063 
L 103.056022 135.471872 
L 104.728628 142.003982 
L 105.307607 143.312359 
L 105.822255 143.945852 
L 106.336903 144.21292 
L 107.108875 144.2923 
L 116.629864 144.288532 
L 117.273175 144.146292 
L 117.659161 143.81481 
L 117.980816 143.191439 
L 118.302471 142.081655 
L 118.688457 139.913628 
L 119.138774 135.976228 
L 119.653422 129.277392 
L 120.682718 111.902953 
L 121.776345 94.441627 
L 122.548317 85.376986 
L 123.191627 79.910157 
L 123.706275 77.050734 
L 126.086523 66.93951 
L 126.601171 65.610825 
L 128.338108 62.718666 
L 129.238742 61.913841 
L 129.624728 61.67862 
L 130.075045 61.708369 
L 130.461031 61.754374 
L 130.782686 61.49132 
L 131.425996 60.959267 
L 131.811982 60.907354 
L 132.455292 60.831057 
L 133.484588 60.474482 
L 133.741912 60.629957 
L 135.543181 62.554983 
L 136.508146 64.327119 
L 137.40878 65.351333 
L 137.987759 65.668434 
L 138.6954 65.772929 
L 142.619591 65.779746 
L 150.532305 65.882399 
L 150.918291 66.079305 
L 151.304277 66.565567 
L 151.625932 67.338137 
L 152.076249 69.137871 
L 152.590898 72.304043 
L 153.169877 77.3448 
L 154.263504 89.65093 
L 155.485793 102.336306 
L 156.515089 110.701215 
L 157.480054 116.724813 
L 158.252026 120.386014 
L 159.216991 123.774289 
L 159.924632 125.619909 
L 160.567942 126.792888 
L 162.755197 129.568829 
L 163.527169 130.279677 
L 164.041817 130.526775 
L 164.749458 130.636464 
L 165.071113 130.684947 
L 165.52143 131.02561 
L 165.971747 131.722241 
L 166.550726 132.961046 
L 167.129705 134.980853 
L 169.252628 142.763388 
L 169.767276 143.738478 
L 170.217593 144.194728 
L 170.732242 144.413154 
L 171.568545 144.481948 
L 181.346858 144.427916 
L 181.797175 144.198972 
L 182.11883 143.759324 
L 182.440485 142.921863 
L 182.826471 141.165842 
L 183.212457 138.292166 
L 183.727105 132.682069 
L 184.370415 122.954781 
L 186.236014 92.708901 
L 187.007986 83.94337 
L 187.651296 79.017795 
L 188.744924 72.6574 
L 189.388234 69.991179 
L 190.160206 67.856546 
L 191.318164 65.431569 
L 192.604784 63.639117 
L 193.183763 62.686364 
L 194.727707 61.340284 
L 195.949996 61.04192 
L 196.464644 60.978014 
L 197.42961 60.492991 
L 197.751265 60.642314 
L 199.230878 61.791031 
L 200.260174 63.220695 
L 202.061442 65.035233 
L 202.704752 65.201555 
L 203.927041 65.247142 
L 214.991975 65.349896 
L 215.442292 65.64787 
L 215.763947 66.150986 
L 216.085602 67.082985 
L 216.60025 69.444625 
L 217.114898 73.079253 
L 217.822539 79.874279 
L 220.653103 109.230091 
L 221.553737 115.499585 
L 222.261378 118.911809 
L 223.483667 123.284387 
L 224.577295 125.936165 
L 225.735253 127.724796 
L 227.021873 129.176126 
L 227.922507 129.963951 
L 230.04543 131.227838 
L 230.560078 131.955477 
L 231.010395 133.083359 
L 231.589374 135.207597 
L 233.326312 141.994252 
L 233.905291 143.378279 
L 234.419939 144.074236 
L 234.870256 144.346104 
L 235.513566 144.462196 
L 236.349869 144.471171 
L 236.349869 144.471171 
" clip-path="url(#p724008e4e7)" style="fill: none; stroke: #ff7f0e; stroke-width: 0.5; stroke-linecap: square"/>
   </g>
   <g id="line2d_16">
    <path d="M 43.356847 17.11667 
L 55.579739 17.027848 
L 56.802028 16.52122 
L 57.188014 16.701855 
L 58.152979 17.448884 
L 58.474634 17.333307 
L 58.86062 16.904565 
L 59.50393 16.139937 
L 59.696923 16.154447 
L 59.954247 16.44944 
L 60.79055 17.76391 
L 61.047874 17.747365 
L 61.43386 17.374567 
L 62.012839 16.780481 
L 62.270163 16.834859 
L 62.849142 17.308395 
L 63.36379 17.752394 
L 63.749777 17.768731 
L 64.264425 17.58284 
L 65.679707 16.872988 
L 66.966327 16.712724 
L 67.352313 16.853085 
L 67.995623 17.249352 
L 68.252947 17.122821 
L 68.896257 16.645974 
L 69.217912 16.789552 
L 70.054215 17.258635 
L 70.440201 17.218752 
L 71.469497 16.806476 
L 72.241469 17.212184 
L 72.820449 17.471201 
L 73.206435 17.433387 
L 73.785414 17.076405 
L 74.428724 16.780433 
L 74.879041 16.825359 
L 75.522351 17.186133 
L 76.165661 17.458237 
L 76.615978 17.38939 
L 77.452281 16.91836 
L 77.966929 16.770972 
L 78.481577 16.869499 
L 80.218514 17.462184 
L 80.990486 17.315786 
L 83.11341 16.772362 
L 84.014044 16.858067 
L 87.294925 17.505523 
L 88.517214 17.43565 
L 89.675172 17.425068 
L 90.833131 16.510441 
L 91.219117 16.333645 
L 91.798096 16.481755 
L 92.505737 16.779927 
L 93.149047 17.076477 
L 94.564329 17.181259 
L 95.657956 17.046546 
L 96.687252 16.826126 
L 98.102534 16.738091 
L 100.161127 17.677881 
L 100.740106 17.513052 
L 101.898064 17.487091 
L 102.541374 17.176198 
L 104.921621 16.884247 
L 106.079579 17.020862 
L 108.588489 17.292665 
L 109.875109 17.126499 
L 111.354722 16.937593 
L 112.191025 17.079401 
L 113.348983 17.296108 
L 114.056624 17.146284 
L 115.021589 16.935763 
L 115.664899 17.059804 
L 116.694195 17.297244 
L 117.337506 17.166914 
L 118.302471 16.953733 
L 118.817119 17.109984 
L 119.846415 17.451698 
L 120.682718 17.353408 
L 121.776345 17.423198 
L 122.098 17.173837 
L 123.127296 16.134754 
L 123.38462 16.216057 
L 123.706275 16.614143 
L 124.735571 18.086233 
L 125.121557 18.256202 
L 125.443212 18.045536 
L 125.89353 17.488849 
L 126.601171 16.520137 
L 126.858495 16.425104 
L 127.18015 16.563727 
L 128.209446 17.202997 
L 130.010714 16.857045 
L 130.461031 16.70846 
L 131.168672 17.018655 
L 131.68332 17.17587 
L 132.133637 17.347901 
L 132.712616 17.679643 
L 133.034271 17.515975 
L 133.484588 16.908301 
L 133.999236 16.283573 
L 134.25656 16.209044 
L 134.513884 16.39401 
L 135.157195 17.313973 
L 135.671843 17.85931 
L 135.993498 17.885118 
L 136.315153 17.650264 
L 137.537442 16.354014 
L 137.794766 16.419555 
L 138.116421 16.740552 
L 139.081386 17.910317 
L 139.33871 17.915668 
L 139.660365 17.672652 
L 140.946985 16.299558 
L 141.26864 16.473009 
L 141.783288 17.134605 
L 142.362267 17.815842 
L 142.683922 17.93612 
L 143.005577 17.838465 
L 143.455894 17.434863 
L 144.485191 16.435029 
L 144.935508 16.298364 
L 145.385825 16.375221 
L 146.029135 16.743543 
L 147.701741 17.850646 
L 148.28072 17.933903 
L 148.859699 17.784158 
L 149.631671 17.308043 
L 151.175615 16.296089 
L 151.690263 16.24041 
L 152.462235 16.45684 
L 153.234208 16.827911 
L 154.713821 17.404498 
L 155.550124 17.385346 
L 156.708082 16.859377 
L 157.480054 16.822358 
L 159.088329 17.036613 
L 159.474315 17.036525 
L 160.43928 16.953209 
L 161.339914 17.043709 
L 161.66157 17.054938 
L 162.111887 17.134154 
L 162.94819 17.00824 
L 164.041817 17.076422 
L 164.685127 17.099776 
L 165.264106 16.848587 
L 165.843085 16.670315 
L 168.287663 17.01807 
L 169.574283 17.248464 
L 170.732242 17.26742 
L 172.726503 16.980045 
L 173.948792 16.957056 
L 175.235412 17.181418 
L 176.264708 17.292828 
L 177.101011 17.125029 
L 178.065976 16.936941 
L 178.709286 17.056739 
L 179.802914 17.295285 
L 180.446224 17.160198 
L 181.47552 16.918725 
L 182.11883 17.045813 
L 183.019464 17.264066 
L 184.627739 17.204517 
L 186.300345 17.625106 
L 186.686331 17.455118 
L 187.651296 16.768026 
L 187.972951 16.98153 
L 188.873586 17.777052 
L 189.516896 17.847319 
L 189.967213 17.648321 
L 190.674854 17.086027 
L 190.996509 16.928152 
L 191.446826 17.051223 
L 192.090136 17.128491 
L 193.119432 17.031593 
L 193.891404 16.836117 
L 194.663376 16.795789 
L 195.692672 17.207091 
L 196.271651 16.976032 
L 196.721968 16.871164 
L 197.172286 17.06686 
L 197.686934 17.243725 
L 199.230878 17.471397 
L 199.745526 17.495761 
L 200.195843 17.250554 
L 201.032146 16.702865 
L 201.353801 16.739231 
L 201.804118 17.079891 
L 202.511759 17.639945 
L 202.897745 17.656599 
L 203.283731 17.417595 
L 204.377358 16.561208 
L 204.699013 16.627296 
L 205.14933 16.988021 
L 205.921302 17.631999 
L 206.307289 17.651778 
L 206.757606 17.390907 
L 207.851233 16.597916 
L 208.30155 16.575714 
L 208.880529 16.809629 
L 210.488804 17.626544 
L 211.132114 17.664169 
L 211.839755 17.482009 
L 214.348664 16.57128 
L 215.056306 16.690536 
L 215.763947 17.088546 
L 216.664581 17.514189 
L 217.179229 17.602226 
L 217.822539 17.488566 
L 219.366483 16.825503 
L 219.752469 16.763786 
L 220.974758 16.999276 
L 221.618068 17.187447 
L 222.197047 17.258155 
L 222.776026 17.444597 
L 223.290674 17.38274 
L 223.67666 17.317478 
L 224.89895 17.622258 
L 226.121239 17.466911 
L 226.764549 17.488145 
L 228.179831 17.468473 
L 229.016134 17.586947 
L 229.40212 17.544161 
L 230.109761 17.322105 
L 230.753071 17.227267 
L 231.718036 17.015833 
L 232.490008 17.082309 
L 234.48427 17.23565 
L 236.028214 17.149214 
L 236.349869 17.116063 
L 236.349869 17.116063 
" clip-path="url(#p724008e4e7)" style="fill: none; stroke: #2ca02c; stroke-width: 0.5; stroke-linecap: square"/>
   </g>
   <g id="line2d_17">
    <path d="M 43.356847 17.11667 
L 55.193753 17.219049 
L 55.772732 17.455222 
L 56.28738 17.372986 
L 56.737697 17.036934 
L 57.381007 16.522343 
L 57.702662 16.510657 
L 57.959986 16.731076 
L 58.989282 18.005392 
L 59.182275 17.858079 
L 59.50393 17.225701 
L 60.018578 16.159827 
L 60.211571 16.092655 
L 60.404564 16.264964 
L 61.562522 17.846583 
L 61.755515 17.75367 
L 62.849142 16.675731 
L 63.235128 16.824058 
L 64.200094 17.301084 
L 64.779073 17.319303 
L 65.551045 17.244682 
L 66.258686 17.262006 
L 67.738299 16.944544 
L 68.059954 17.278682 
L 68.381609 17.575653 
L 68.574602 17.525132 
L 69.024919 17.039446 
L 69.410905 16.797689 
L 69.668229 16.850971 
L 70.697525 17.400128 
L 71.147842 17.21745 
L 72.048476 16.689382 
L 72.434463 16.796799 
L 73.849745 17.467119 
L 74.364393 17.247905 
L 75.329358 16.77445 
L 75.779675 16.847593 
L 77.323619 17.438416 
L 77.902598 17.178461 
L 78.738901 16.796186 
L 79.253549 16.794109 
L 80.025521 17.061077 
L 81.119148 17.424845 
L 81.891121 17.447383 
L 82.856086 17.236761 
L 84.721685 16.770026 
L 85.68665 16.809255 
L 86.522953 17.049292 
L 87.359256 17.251946 
L 87.809573 17.340979 
L 88.517214 17.518619 
L 90.125489 17.754633 
L 90.575807 17.5585 
L 92.505737 16.614775 
L 93.34204 16.61109 
L 93.98535 16.927327 
L 95.979611 17.728036 
L 96.687252 17.670907 
L 97.266231 17.480351 
L 98.745844 16.548242 
L 99.131831 16.602185 
L 100.032465 16.931884 
L 100.418451 17.053409 
L 101.254754 17.389895 
L 101.705071 17.431258 
L 102.219719 17.453153 
L 103.056022 17.459688 
L 105.757924 16.995015 
L 106.915882 16.940663 
L 108.331165 17.116129 
L 110.003771 17.29718 
L 111.033067 17.16552 
L 112.448349 16.93901 
L 113.220321 17.100989 
L 114.185286 17.297356 
L 114.828596 17.171592 
L 115.857892 16.935554 
L 116.501202 17.057542 
L 117.530499 17.29782 
L 118.109478 17.152886 
L 119.074443 16.791187 
L 120.361063 17.184329 
L 121.068704 16.981163 
L 122.483986 17.655677 
L 122.805641 17.453321 
L 123.191627 16.908016 
L 123.770606 16.131027 
L 124.092261 16.09633 
L 124.413916 16.300863 
L 125.057226 17.176751 
L 125.89353 18.134969 
L 126.150854 18.12948 
L 126.408178 17.845542 
L 127.18015 16.828473 
L 127.501805 16.703051 
L 127.952122 16.878894 
L 128.724094 17.233637 
L 129.045749 17.219927 
L 129.431735 17.173621 
L 130.203707 17.295777 
L 131.104341 16.918177 
L 131.747651 16.950393 
L 132.32663 16.881823 
L 132.583954 17.05931 
L 133.291595 17.738808 
L 133.61325 17.735886 
L 133.934905 17.531296 
L 135.028533 16.311379 
L 135.285857 16.348531 
L 135.607512 16.65663 
L 136.636808 17.911144 
L 136.894132 17.894109 
L 137.215787 17.614 
L 138.373745 16.304919 
L 138.631069 16.390196 
L 139.017055 16.817284 
L 139.853358 17.876085 
L 140.175013 17.917482 
L 140.496668 17.679585 
L 141.783288 16.297289 
L 142.104943 16.432817 
L 142.55526 16.931552 
L 143.327232 17.798578 
L 143.713219 17.935848 
L 144.099205 17.839057 
L 144.678184 17.401799 
L 145.836142 16.471699 
L 146.415121 16.301016 
L 146.9941 16.378384 
L 147.63741 16.708642 
L 149.56734 17.888283 
L 150.146319 17.886145 
L 150.789629 17.641337 
L 151.561601 17.001937 
L 152.655229 16.166382 
L 153.041215 16.118416 
L 153.555863 16.368815 
L 155.228469 17.195165 
L 155.678786 17.252714 
L 156.257765 17.356679 
L 160.246287 17.121214 
L 160.760935 17.266943 
L 162.369211 17.260222 
L 164.041817 17.552053 
L 165.714423 17.038053 
L 166.100409 17.011683 
L 167.322698 16.817231 
L 172.147524 17.287519 
L 173.562806 17.100111 
L 175.042419 16.938158 
L 175.943053 17.07059 
L 177.229673 17.294144 
L 177.937314 17.147808 
L 178.902279 16.936681 
L 179.54559 17.054097 
L 180.639217 17.298304 
L 181.282527 17.169355 
L 182.376154 16.918644 
L 182.890802 17.088623 
L 183.40545 17.226292 
L 184.499077 17.07509 
L 185.721366 16.882877 
L 186.171683 17.156015 
L 186.879324 17.603616 
L 187.136648 17.492555 
L 188.294607 16.513655 
L 188.551931 16.653152 
L 189.195241 17.10915 
L 190.224537 17.612119 
L 190.546192 17.544124 
L 190.867847 17.209562 
L 191.253833 16.849536 
L 191.575488 16.881634 
L 192.090136 16.984349 
L 193.827073 17.195057 
L 194.341721 17.206415 
L 195.306686 17.019963 
L 195.821334 17.242606 
L 196.400313 17.131437 
L 197.172286 16.853706 
L 197.493941 16.986953 
L 198.008589 17.176044 
L 199.230878 17.060191 
L 199.681195 17.25935 
L 200.260174 17.507667 
L 200.64616 17.469853 
L 201.096477 17.141897 
L 201.739787 16.628852 
L 202.061442 16.616904 
L 202.447428 16.847416 
L 203.541055 17.673692 
L 203.86271 17.603115 
L 204.313027 17.2374 
L 205.084999 16.592695 
L 205.406654 16.574779 
L 205.79264 16.789813 
L 206.950599 17.664254 
L 207.336585 17.626077 
L 207.851233 17.322623 
L 208.94486 16.628128 
L 209.523839 16.565597 
L 210.167149 16.741388 
L 212.611727 17.67489 
L 213.319368 17.557235 
L 214.09134 17.186554 
L 215.120637 16.706896 
L 215.828278 16.602175 
L 216.407257 16.706204 
L 217.88687 17.285341 
L 219.881131 17.32765 
L 221.425075 16.900975 
L 221.939723 17.006014 
L 222.518702 17.263626 
L 222.904688 17.133786 
L 223.483667 16.856316 
L 224.834619 17.142035 
L 226.249901 17.155894 
L 226.957542 17.049855 
L 227.729514 17.072337 
L 229.337789 17.336335 
L 229.916768 17.347453 
L 230.431416 17.331085 
L 231.33205 17.131058 
L 233.712298 17.040153 
L 235.513566 17.197788 
L 236.349869 17.228754 
L 236.349869 17.228754 
" clip-path="url(#p724008e4e7)" style="fill: none; stroke: #d62728; stroke-width: 0.5; stroke-linecap: square"/>
   </g>
   <g id="patch_3">
    <path d="M 33.707196 202.559296 
L 33.707196 7.2 
" style="fill: none; stroke: #000000; stroke-width: 0.8; stroke-linejoin: miter; stroke-linecap: square"/>
   </g>
   <g id="patch_4">
    <path d="M 245.99952 202.559296 
L 245.99952 7.2 
" style="fill: none; stroke: #000000; stroke-width: 0.8; stroke-linejoin: miter; stroke-linecap: square"/>
   </g>
   <g id="patch_5">
    <path d="M 33.707196 202.559296 
L 245.99952 202.559296 
" style="fill: none; stroke: #000000; stroke-width: 0.8; stroke-linejoin: miter; stroke-linecap: square"/>
   </g>
   <g id="patch_6">
    <path d="M 33.707196 7.2 
L 245.99952 7.2 
" style="fill: none; stroke: #000000; stroke-width: 0.8; stroke-linejoin: miter; stroke-linecap: square"/>
   </g>
   <g id="legend_1">
    <g id="patch_7">
     <path d="M 193.792605 198.059296 
L 239.69952 198.059296 
Q 241.49952 198.059296 241.49952 196.259296 
L 241.49952 156.760168 
Q 241.49952 154.960168 239.69952 154.960168 
L 193.792605 154.960168 
Q 191.992605 154.960168 191.992605 156.760168 
L 191.992605 196.259296 
Q 191.992605 198.059296 193.792605 198.059296 
z
" style="fill: #ffffff; opacity: 0.8; stroke: #cccccc; stroke-width: 0.24; stroke-linejoin: miter"/>
    </g>
    <g id="line2d_18">
     <path d="M 195.592605 162.13495 
L 204.592605 162.13495 
L 213.592605 162.13495 
" style="fill: none; stroke: #ff7f0e; stroke-width: 0.5; stroke-linecap: square"/>
    </g>
    <g id="text_16">
     <!-- $\langle \sigma_z\rangle$ -->
     <g transform="translate(220.792605 165.28495) scale(0.09 -0.09)">
      <defs>
       <path id="CMSY10-68" d="M 2099 4557 
C 2131 4627 2131 4640 2131 4672 
C 2131 4742 2074 4800 2003 4800 
C 1946 4800 1901 4768 1856 4653 
L 736 1715 
C 723 1677 704 1638 704 1600 
C 704 1581 704 1568 736 1491 
L 1856 -1446 
C 1882 -1517 1914 -1600 2003 -1600 
C 2074 -1600 2131 -1542 2131 -1472 
C 2131 -1453 2131 -1440 2099 -1370 
L 966 1600 
L 2099 4557 
z
" transform="scale(0.015625)"/>
       <path id="CMMI12-1b" d="M 3251 2408 
C 3334 2408 3546 2408 3546 2612 
C 3546 2752 3424 2752 3309 2752 
L 1894 2752 
C 934 2752 243 1686 243 932 
C 243 390 595 -64 1171 -64 
C 1926 -64 2752 747 2752 1705 
C 2752 1954 2694 2196 2541 2408 
L 3251 2408 
z
M 1178 64 
C 851 64 614 313 614 754 
C 614 1137 845 2408 1786 2408 
C 2061 2408 2368 2274 2368 1781 
C 2368 1558 2266 1021 2042 652 
C 1811 275 1466 64 1178 64 
z
" transform="scale(0.015625)"/>
       <path id="CMMI12-7a" d="M 813 486 
C 1088 803 1312 1004 1632 1296 
C 2016 1632 2182 1793 2272 1891 
C 2720 2338 2944 2713 2944 2764 
C 2944 2816 2893 2816 2880 2816 
C 2835 2816 2822 2793 2790 2750 
C 2630 2494 2477 2367 2310 2367 
C 2176 2367 2106 2421 1984 2565 
C 1850 2715 1741 2816 1555 2816 
C 1088 2816 806 2257 806 2128 
C 806 2108 813 2068 870 2068 
C 922 2068 928 2091 947 2133 
C 1056 2372 1363 2414 1485 2414 
C 1619 2414 1747 2376 1882 2327 
C 2125 2240 2227 2240 2291 2240 
C 2336 2240 2362 2240 2394 2246 
C 2182 1994 1837 1683 1549 1418 
L 902 816 
C 512 415 275 33 275 -12 
C 275 -51 307 -64 346 -64 
C 384 -64 390 -57 435 14 
C 538 163 742 384 979 384 
C 1114 384 1178 342 1306 193 
C 1427 61 1536 -64 1741 -64 
C 2368 -64 2726 732 2726 876 
C 2726 903 2720 942 2656 942 
C 2605 942 2598 917 2579 855 
C 2438 488 2061 338 1811 338 
C 1677 338 1549 376 1414 425 
C 1158 512 1088 512 1005 512 
C 941 512 870 512 813 486 
z
" transform="scale(0.015625)"/>
       <path id="CMSY10-69" d="M 1747 1491 
C 1779 1568 1779 1581 1779 1600 
C 1779 1619 1779 1632 1747 1709 
L 627 4653 
C 589 4762 550 4800 480 4800 
C 410 4800 352 4742 352 4672 
C 352 4653 352 4640 384 4570 
L 1517 1600 
L 384 -1357 
C 352 -1427 352 -1440 352 -1472 
C 352 -1542 410 -1600 480 -1600 
C 563 -1600 589 -1536 614 -1472 
L 1747 1491 
z
" transform="scale(0.015625)"/>
      </defs>
      <use xlink:href="#CMSY10-68" transform="scale(0.996264)"/>
      <use xlink:href="#CMMI12-1b" transform="translate(38.743734 0) scale(0.996264)"/>
      <use xlink:href="#CMMI12-7a" transform="translate(94.189195 -14.943915) scale(0.697382)"/>
      <use xlink:href="#CMSY10-69" transform="translate(129.51575 0) scale(0.996264)"/>
     </g>
    </g>
    <g id="line2d_19">
     <path d="M 195.592605 175.601326 
L 204.592605 175.601326 
L 213.592605 175.601326 
" style="fill: none; stroke: #2ca02c; stroke-width: 0.5; stroke-linecap: square"/>
    </g>
    <g id="text_17">
     <!-- $\langle \sigma_x\rangle$ -->
     <g transform="translate(220.792605 178.751326) scale(0.09 -0.09)">
      <defs>
       <path id="CMMI12-78" d="M 3034 2606 
C 2829 2567 2752 2414 2752 2293 
C 2752 2139 2874 2088 2963 2088 
C 3155 2088 3290 2254 3290 2427 
C 3290 2695 2982 2816 2714 2816 
C 2323 2816 2106 2433 2048 2312 
C 1901 2816 1504 2816 1389 2816 
C 736 2816 390 1980 390 1839 
C 390 1814 416 1782 461 1782 
C 512 1782 525 1820 538 1846 
C 755 2555 1184 2689 1370 2689 
C 1658 2689 1715 2420 1715 2267 
C 1715 2127 1677 1980 1600 1673 
L 1382 798 
C 1286 415 1101 64 762 64 
C 730 64 570 64 435 147 
C 666 192 717 383 717 460 
C 717 588 621 664 499 664 
C 346 664 179 530 179 326 
C 179 57 480 -64 755 -64 
C 1062 -64 1280 179 1414 441 
C 1517 64 1837 -64 2074 -64 
C 2726 -64 3072 773 3072 913 
C 3072 945 3046 971 3008 971 
C 2950 971 2944 939 2925 888 
C 2752 326 2381 64 2093 64 
C 1869 64 1747 230 1747 492 
C 1747 632 1773 734 1875 1156 
L 2099 2024 
C 2195 2408 2413 2689 2707 2689 
C 2720 2689 2899 2689 3034 2606 
z
" transform="scale(0.015625)"/>
      </defs>
      <use xlink:href="#CMSY10-68" transform="scale(0.996264)"/>
      <use xlink:href="#CMMI12-1b" transform="translate(38.743734 0) scale(0.996264)"/>
      <use xlink:href="#CMMI12-78" transform="translate(94.189195 -14.943915) scale(0.697382)"/>
      <use xlink:href="#CMSY10-69" transform="translate(133.490986 0) scale(0.996264)"/>
     </g>
    </g>
    <g id="line2d_20">
     <path d="M 195.592605 189.067702 
L 204.592605 189.067702 
L 213.592605 189.067702 
" style="fill: none; stroke: #d62728; stroke-width: 0.5; stroke-linecap: square"/>
    </g>
    <g id="text_18">
     <!-- $\langle \sigma_y\rangle$ -->
     <g transform="translate(220.792605 192.217702) scale(0.09 -0.09)">
      <defs>
       <path id="CMMI12-79" d="M 1683 -700 
C 1510 -939 1261 -1152 947 -1152 
C 870 -1152 563 -1152 467 -889 
C 486 -895 518 -895 531 -895 
C 723 -895 851 -729 851 -582 
C 851 -435 730 -384 634 -384 
C 531 -384 307 -458 307 -759 
C 307 -1071 582 -1286 947 -1286 
C 1587 -1286 2234 -700 2413 6 
L 3040 2485 
C 3046 2517 3059 2556 3059 2594 
C 3059 2689 2982 2753 2886 2753 
C 2829 2753 2694 2727 2643 2535 
L 2170 658 
C 2138 543 2138 530 2086 460 
C 1958 281 1747 64 1440 64 
C 1082 64 1050 415 1050 588 
C 1050 952 1222 1443 1395 1903 
C 1466 2088 1504 2178 1504 2305 
C 1504 2574 1312 2816 998 2816 
C 410 2816 173 1890 173 1839 
C 173 1814 198 1782 243 1782 
C 301 1782 307 1807 333 1897 
C 486 2433 730 2689 979 2689 
C 1037 2689 1146 2689 1146 2478 
C 1146 2312 1075 2127 979 1884 
C 666 1047 666 837 666 683 
C 666 77 1101 -64 1421 -64 
C 1606 -64 1837 -6 2061 230 
L 2067 224 
C 1971 -147 1907 -392 1683 -700 
z
" transform="scale(0.015625)"/>
      </defs>
      <use xlink:href="#CMSY10-68" transform="scale(0.996264)"/>
      <use xlink:href="#CMMI12-1b" transform="translate(38.743734 0) scale(0.996264)"/>
      <use xlink:href="#CMMI12-79" transform="translate(94.189195 -14.943915) scale(0.697382)"/>
      <use xlink:href="#CMSY10-69" transform="translate(130.484301 0) scale(0.996264)"/>
     </g>
    </g>
   </g>
  </g>
 </g>
 <defs>
  <clipPath id="p724008e4e7">
   <rect x="33.707196" y="7.2" width="212.292324" height="195.359296"/>
  </clipPath>
 </defs>
</svg>
