<?xml version="1.0" encoding="utf-8" standalone="no"?>
<!DOCTYPE svg PUBLIC "-//W3C//DTD SVG 1.1//EN"
  "http://www.w3.org/Graphics/SVG/1.1/DTD/svg11.dtd">
<svg xmlns:xlink="http://www.w3.org/1999/xlink" width="253.19952pt" height="238.79952pt" viewBox="0 0 253.19952 238.79952" xmlns="http://www.w3.org/2000/svg" version="1.1">
 <metadata>
  <rdf:RDF xmlns:dc="http://purl.org/dc/elements/1.1/" xmlns:cc="http://creativecommons.org/ns#" xmlns:rdf="http://www.w3.org/1999/02/22-rdf-syntax-ns#">
   <cc:Work>
    <dc:type rdf:resource="http://purl.org/dc/dcmitype/StillImage"/>
    <dc:date>1980-01-01T00:00:00+00:00</dc:date>
    <dc:format>image/svg+xml</dc:format>
    <dc:creator>
     <cc:Agent>
      <dc:title>Matplotlib v3.6.2, https://matplotlib.org/</dc:title>
     </cc:Agent>
    </dc:creator>
   </cc:Work>
  </rdf:RDF>
 </metadata>
 <defs>
  <style type="text/css">*{stroke-linejoin: round; stroke-linecap: butt}</style>
 </defs>
 <g id="figure_1">
  <g id="patch_1">
   <path d="M 0 238.79952 
L 253.19952 238.79952 
L 253.19952 0 
L 0 0 
z
" style="fill: #ffffff"/>
  </g>
  <g id="axes_1">
   <g id="patch_2">
    <path d="M 33.707196 202.559296 
L 245.99952 202.559296 
L 245.99952 7.2 
L 33.707196 7.2 
z
" style="fill: #ffffff"/>
   </g>
   <g id="matplotlib.axis_1">
    <g id="xtick_1">
     <g id="line2d_1">
      <defs>
       <path id="m6f599389a2" d="M 0 0 
L 0 3.5 
" style="stroke: #000000; stroke-width: 0.8"/>
      </defs>
      <g>
       <use xlink:href="#m6f599389a2" x="43.356847" y="202.559296" style="stroke: #000000; stroke-width: 0.8"/>
      </g>
     </g>
     <g id="text_1">
      <!-- $\mathdefault{0}$ -->
      <g transform="translate(41.239756 217.194098) scale(0.08 -0.08)">
       <defs>
        <path id="CMR17-30" d="M 2688 2025 
C 2688 2416 2682 3080 2413 3591 
C 2176 4039 1798 4198 1466 4198 
C 1158 4198 768 4058 525 3597 
C 269 3118 243 2524 243 2025 
C 243 1661 250 1106 448 619 
C 723 -39 1216 -128 1466 -128 
C 1760 -128 2208 -7 2470 600 
C 2662 1042 2688 1559 2688 2025 
z
M 1466 -26 
C 1056 -26 813 325 723 812 
C 653 1188 653 1738 653 2096 
C 653 2588 653 2997 736 3387 
C 858 3929 1216 4096 1466 4096 
C 1728 4096 2067 3923 2189 3400 
C 2272 3036 2278 2607 2278 2096 
C 2278 1680 2278 1169 2202 792 
C 2067 95 1690 -26 1466 -26 
z
" transform="scale(0.015625)"/>
       </defs>
       <use xlink:href="#CMR17-30" transform="scale(0.996264)"/>
      </g>
     </g>
    </g>
    <g id="xtick_2">
     <g id="line2d_2">
      <g>
       <use xlink:href="#m6f599389a2" x="70.161434" y="202.559296" style="stroke: #000000; stroke-width: 0.8"/>
      </g>
     </g>
     <g id="text_2">
      <!-- $\mathdefault{25}$ -->
      <g transform="translate(65.927251 217.194098) scale(0.08 -0.08)">
       <defs>
        <path id="CMR17-32" d="M 2669 989 
L 2554 989 
C 2490 536 2438 459 2413 420 
C 2381 369 1920 369 1830 369 
L 602 369 
C 832 619 1280 1072 1824 1597 
C 2214 1967 2669 2402 2669 3035 
C 2669 3790 2067 4224 1395 4224 
C 691 4224 262 3604 262 3030 
C 262 2780 448 2748 525 2748 
C 589 2748 781 2787 781 3010 
C 781 3207 614 3264 525 3264 
C 486 3264 448 3258 422 3245 
C 544 3790 915 4058 1306 4058 
C 1862 4058 2227 3617 2227 3035 
C 2227 2479 1901 2000 1536 1584 
L 262 146 
L 262 0 
L 2515 0 
L 2669 989 
z
" transform="scale(0.015625)"/>
        <path id="CMR17-35" d="M 730 3692 
C 794 3666 1056 3584 1325 3584 
C 1920 3584 2246 3911 2432 4100 
C 2432 4157 2432 4192 2394 4192 
C 2387 4192 2374 4192 2323 4163 
C 2099 4058 1837 3973 1517 3973 
C 1325 3973 1037 3999 723 4139 
C 653 4171 640 4171 634 4171 
C 602 4171 595 4164 595 4037 
L 595 2203 
C 595 2089 595 2057 659 2057 
C 691 2057 704 2070 736 2114 
C 941 2401 1222 2522 1542 2522 
C 1766 2522 2246 2382 2246 1289 
C 2246 1085 2246 715 2054 421 
C 1894 159 1645 25 1370 25 
C 947 25 518 320 403 814 
C 429 807 480 795 506 795 
C 589 795 749 840 749 1038 
C 749 1210 627 1280 506 1280 
C 358 1280 262 1190 262 1011 
C 262 454 704 -128 1382 -128 
C 2042 -128 2669 440 2669 1264 
C 2669 2030 2170 2624 1549 2624 
C 1222 2624 947 2503 730 2274 
L 730 3692 
z
" transform="scale(0.015625)"/>
       </defs>
       <use xlink:href="#CMR17-32" transform="scale(0.996264)"/>
       <use xlink:href="#CMR17-35" transform="translate(45.690477 0) scale(0.996264)"/>
      </g>
     </g>
    </g>
    <g id="xtick_3">
     <g id="line2d_3">
      <g>
       <use xlink:href="#m6f599389a2" x="96.96602" y="202.559296" style="stroke: #000000; stroke-width: 0.8"/>
      </g>
     </g>
     <g id="text_3">
      <!-- $\mathdefault{50}$ -->
      <g transform="translate(92.731837 217.194098) scale(0.08 -0.08)">
       <use xlink:href="#CMR17-35" transform="scale(0.996264)"/>
       <use xlink:href="#CMR17-30" transform="translate(45.690477 0) scale(0.996264)"/>
      </g>
     </g>
    </g>
    <g id="xtick_4">
     <g id="line2d_4">
      <g>
       <use xlink:href="#m6f599389a2" x="123.770606" y="202.559296" style="stroke: #000000; stroke-width: 0.8"/>
      </g>
     </g>
     <g id="text_4">
      <!-- $\mathdefault{75}$ -->
      <g transform="translate(119.536423 217.194098) scale(0.08 -0.08)">
       <defs>
        <path id="CMR17-37" d="M 2886 3941 
L 2886 4081 
L 1382 4081 
C 634 4081 621 4165 595 4288 
L 480 4288 
L 294 3094 
L 410 3094 
C 429 3215 474 3540 550 3661 
C 589 3712 1062 3712 1171 3712 
L 2579 3712 
L 1869 2661 
C 1395 1954 1069 999 1069 165 
C 1069 89 1069 -128 1299 -128 
C 1530 -128 1530 89 1530 171 
L 1530 465 
C 1530 1508 1709 2196 2003 2636 
L 2886 3941 
z
" transform="scale(0.015625)"/>
       </defs>
       <use xlink:href="#CMR17-37" transform="scale(0.996264)"/>
       <use xlink:href="#CMR17-35" transform="translate(45.690477 0) scale(0.996264)"/>
      </g>
     </g>
    </g>
    <g id="xtick_5">
     <g id="line2d_5">
      <g>
       <use xlink:href="#m6f599389a2" x="150.575193" y="202.559296" style="stroke: #000000; stroke-width: 0.8"/>
      </g>
     </g>
     <g id="text_5">
      <!-- $\mathdefault{100}$ -->
      <g transform="translate(144.223918 217.194098) scale(0.08 -0.08)">
       <defs>
        <path id="CMR17-31" d="M 1702 4058 
C 1702 4192 1696 4192 1606 4192 
C 1357 3916 979 3827 621 3827 
C 602 3827 570 3827 563 3808 
C 557 3795 557 3782 557 3648 
C 755 3648 1088 3686 1344 3839 
L 1344 461 
C 1344 236 1331 160 781 160 
L 589 160 
L 589 0 
C 896 0 1216 0 1523 0 
C 1830 0 2150 0 2458 0 
L 2458 160 
L 2266 160 
C 1715 160 1702 230 1702 458 
L 1702 4058 
z
" transform="scale(0.015625)"/>
       </defs>
       <use xlink:href="#CMR17-31" transform="scale(0.996264)"/>
       <use xlink:href="#CMR17-30" transform="translate(45.690477 0) scale(0.996264)"/>
       <use xlink:href="#CMR17-30" transform="translate(91.380954 0) scale(0.996264)"/>
      </g>
     </g>
    </g>
    <g id="xtick_6">
     <g id="line2d_6">
      <g>
       <use xlink:href="#m6f599389a2" x="177.379779" y="202.559296" style="stroke: #000000; stroke-width: 0.8"/>
      </g>
     </g>
     <g id="text_6">
      <!-- $\mathdefault{125}$ -->
      <g transform="translate(171.028505 217.194098) scale(0.08 -0.08)">
       <use xlink:href="#CMR17-31" transform="scale(0.996264)"/>
       <use xlink:href="#CMR17-32" transform="translate(45.690477 0) scale(0.996264)"/>
       <use xlink:href="#CMR17-35" transform="translate(91.380954 0) scale(0.996264)"/>
      </g>
     </g>
    </g>
    <g id="xtick_7">
     <g id="line2d_7">
      <g>
       <use xlink:href="#m6f599389a2" x="204.184365" y="202.559296" style="stroke: #000000; stroke-width: 0.8"/>
      </g>
     </g>
     <g id="text_7">
      <!-- $\mathdefault{150}$ -->
      <g transform="translate(197.833091 217.194098) scale(0.08 -0.08)">
       <use xlink:href="#CMR17-31" transform="scale(0.996264)"/>
       <use xlink:href="#CMR17-35" transform="translate(45.690477 0) scale(0.996264)"/>
       <use xlink:href="#CMR17-30" transform="translate(91.380954 0) scale(0.996264)"/>
      </g>
     </g>
    </g>
    <g id="xtick_8">
     <g id="line2d_8">
      <g>
       <use xlink:href="#m6f599389a2" x="230.988952" y="202.559296" style="stroke: #000000; stroke-width: 0.8"/>
      </g>
     </g>
     <g id="text_8">
      <!-- $\mathdefault{175}$ -->
      <g transform="translate(224.637677 217.194098) scale(0.08 -0.08)">
       <use xlink:href="#CMR17-31" transform="scale(0.996264)"/>
       <use xlink:href="#CMR17-37" transform="translate(45.690477 0) scale(0.996264)"/>
       <use xlink:href="#CMR17-35" transform="translate(91.380954 0) scale(0.996264)"/>
      </g>
     </g>
    </g>
    <g id="text_9">
     <!-- $\tau$ -->
     <g transform="translate(137.675756 229.662342) scale(0.1 -0.1)">
      <defs>
       <path id="CMMI12-1c" d="M 1837 2408 
L 2899 2408 
C 2982 2408 3194 2408 3194 2612 
C 3194 2752 3072 2752 2957 2752 
L 1197 2752 
C 1050 2752 832 2752 538 2440 
C 371 2255 166 1917 166 1879 
C 166 1841 198 1828 237 1828 
C 282 1828 288 1847 320 1885 
C 653 2408 986 2408 1146 2408 
L 1677 2408 
L 1011 223 
C 979 127 979 114 979 95 
C 979 25 1024 -64 1152 -64 
C 1350 -64 1382 108 1402 203 
L 1837 2408 
z
" transform="scale(0.015625)"/>
      </defs>
      <use xlink:href="#CMMI12-1c" transform="scale(0.996264)"/>
     </g>
    </g>
   </g>
   <g id="matplotlib.axis_2">
    <g id="ytick_1">
     <g id="line2d_9">
      <defs>
       <path id="m44198b94c7" d="M 0 0 
L -3.5 0 
" style="stroke: #000000; stroke-width: 0.8"/>
      </defs>
      <g>
       <use xlink:href="#m44198b94c7" x="33.707196" y="193.679328" style="stroke: #000000; stroke-width: 0.8"/>
      </g>
     </g>
     <g id="text_10">
      <!-- $\mathdefault{−1.0}$ -->
      <g transform="translate(7.2 196.446729) scale(0.08 -0.08)">
       <defs>
        <path id="CMSY10-0" d="M 4218 1472 
C 4326 1472 4442 1472 4442 1600 
C 4442 1728 4326 1728 4218 1728 
L 755 1728 
C 646 1728 531 1728 531 1600 
C 531 1472 646 1472 755 1472 
L 4218 1472 
z
" transform="scale(0.015625)"/>
        <path id="CMMI12-3a" d="M 1178 307 
C 1178 492 1024 619 870 619 
C 685 619 557 466 557 313 
C 557 128 710 0 864 0 
C 1050 0 1178 153 1178 307 
z
" transform="scale(0.015625)"/>
       </defs>
       <use xlink:href="#CMSY10-0" transform="scale(0.996264)"/>
       <use xlink:href="#CMR17-31" transform="translate(77.487468 0) scale(0.996264)"/>
       <use xlink:href="#CMMI12-3a" transform="translate(123.177945 0) scale(0.996264)"/>
       <use xlink:href="#CMR17-30" transform="translate(150.275122 0) scale(0.996264)"/>
      </g>
     </g>
    </g>
    <g id="ytick_2">
     <g id="line2d_10">
      <g>
       <use xlink:href="#m44198b94c7" x="33.707196" y="158.386669" style="stroke: #000000; stroke-width: 0.8"/>
      </g>
     </g>
     <g id="text_11">
      <!-- $\mathdefault{−0.8}$ -->
      <g transform="translate(7.2 161.15407) scale(0.08 -0.08)">
       <defs>
        <path id="CMR17-38" d="M 1741 2264 
C 2144 2467 2554 2773 2554 3263 
C 2554 3841 1990 4179 1472 4179 
C 890 4179 378 3759 378 3180 
C 378 3021 416 2747 666 2505 
C 730 2442 998 2251 1171 2130 
C 883 1983 211 1634 211 934 
C 211 279 838 -128 1459 -128 
C 2144 -128 2720 362 2720 1010 
C 2720 1590 2330 1857 2074 2029 
L 1741 2264 
z
M 902 2822 
C 851 2854 595 3051 595 3351 
C 595 3739 998 4032 1459 4032 
C 1965 4032 2336 3676 2336 3262 
C 2336 2669 1670 2331 1638 2331 
C 1632 2331 1626 2331 1574 2370 
L 902 2822 
z
M 2080 1519 
C 2176 1449 2483 1240 2483 851 
C 2483 381 2010 25 1472 25 
C 890 25 448 438 448 940 
C 448 1443 838 1862 1280 2060 
L 2080 1519 
z
" transform="scale(0.015625)"/>
       </defs>
       <use xlink:href="#CMSY10-0" transform="scale(0.996264)"/>
       <use xlink:href="#CMR17-30" transform="translate(77.487468 0) scale(0.996264)"/>
       <use xlink:href="#CMMI12-3a" transform="translate(123.177945 0) scale(0.996264)"/>
       <use xlink:href="#CMR17-38" transform="translate(150.275122 0) scale(0.996264)"/>
      </g>
     </g>
    </g>
    <g id="ytick_3">
     <g id="line2d_11">
      <g>
       <use xlink:href="#m44198b94c7" x="33.707196" y="123.094011" style="stroke: #000000; stroke-width: 0.8"/>
      </g>
     </g>
     <g id="text_12">
      <!-- $\mathdefault{−0.6}$ -->
      <g transform="translate(7.2 125.861411) scale(0.08 -0.08)">
       <defs>
        <path id="CMR17-36" d="M 678 2176 
C 678 3690 1395 4032 1811 4032 
C 1946 4032 2272 4009 2400 3776 
C 2298 3776 2106 3776 2106 3553 
C 2106 3381 2246 3323 2336 3323 
C 2394 3323 2566 3348 2566 3560 
C 2566 3954 2246 4179 1805 4179 
C 1043 4179 243 3390 243 1984 
C 243 253 966 -128 1478 -128 
C 2099 -128 2688 427 2688 1283 
C 2688 2081 2170 2662 1517 2662 
C 1126 2662 838 2407 678 1960 
L 678 2176 
z
M 1478 25 
C 691 25 691 1200 691 1436 
C 691 1896 909 2560 1504 2560 
C 1613 2560 1926 2560 2138 2120 
C 2253 1870 2253 1609 2253 1289 
C 2253 944 2253 690 2118 434 
C 1978 171 1773 25 1478 25 
z
" transform="scale(0.015625)"/>
       </defs>
       <use xlink:href="#CMSY10-0" transform="scale(0.996264)"/>
       <use xlink:href="#CMR17-30" transform="translate(77.487468 0) scale(0.996264)"/>
       <use xlink:href="#CMMI12-3a" transform="translate(123.177945 0) scale(0.996264)"/>
       <use xlink:href="#CMR17-36" transform="translate(150.275122 0) scale(0.996264)"/>
      </g>
     </g>
    </g>
    <g id="ytick_4">
     <g id="line2d_12">
      <g>
       <use xlink:href="#m44198b94c7" x="33.707196" y="87.801352" style="stroke: #000000; stroke-width: 0.8"/>
      </g>
     </g>
     <g id="text_13">
      <!-- $\mathdefault{−0.4}$ -->
      <g transform="translate(7.2 90.568753) scale(0.08 -0.08)">
       <defs>
        <path id="CMR17-34" d="M 2150 4122 
C 2150 4256 2144 4256 2029 4256 
L 128 1254 
L 128 1088 
L 1779 1088 
L 1779 457 
C 1779 224 1766 160 1318 160 
L 1197 160 
L 1197 0 
C 1402 0 1747 0 1965 0 
C 2182 0 2528 0 2733 0 
L 2733 160 
L 2611 160 
C 2163 160 2150 224 2150 457 
L 2150 1088 
L 2803 1088 
L 2803 1254 
L 2150 1254 
L 2150 4122 
z
M 1798 3703 
L 1798 1254 
L 256 1254 
L 1798 3703 
z
" transform="scale(0.015625)"/>
       </defs>
       <use xlink:href="#CMSY10-0" transform="scale(0.996264)"/>
       <use xlink:href="#CMR17-30" transform="translate(77.487468 0) scale(0.996264)"/>
       <use xlink:href="#CMMI12-3a" transform="translate(123.177945 0) scale(0.996264)"/>
       <use xlink:href="#CMR17-34" transform="translate(150.275122 0) scale(0.996264)"/>
      </g>
     </g>
    </g>
    <g id="ytick_5">
     <g id="line2d_13">
      <g>
       <use xlink:href="#m44198b94c7" x="33.707196" y="52.508693" style="stroke: #000000; stroke-width: 0.8"/>
      </g>
     </g>
     <g id="text_14">
      <!-- $\mathdefault{−0.2}$ -->
      <g transform="translate(7.2 55.276094) scale(0.08 -0.08)">
       <use xlink:href="#CMSY10-0" transform="scale(0.996264)"/>
       <use xlink:href="#CMR17-30" transform="translate(77.487468 0) scale(0.996264)"/>
       <use xlink:href="#CMMI12-3a" transform="translate(123.177945 0) scale(0.996264)"/>
       <use xlink:href="#CMR17-32" transform="translate(150.275122 0) scale(0.996264)"/>
      </g>
     </g>
    </g>
    <g id="ytick_6">
     <g id="line2d_14">
      <g>
       <use xlink:href="#m44198b94c7" x="33.707196" y="17.216035" style="stroke: #000000; stroke-width: 0.8"/>
      </g>
     </g>
     <g id="text_15">
      <!-- $\mathdefault{0.0}$ -->
      <g transform="translate(13.786507 19.983436) scale(0.08 -0.08)">
       <use xlink:href="#CMR17-30" transform="scale(0.996264)"/>
       <use xlink:href="#CMMI12-3a" transform="translate(45.690477 0) scale(0.996264)"/>
       <use xlink:href="#CMR17-30" transform="translate(72.787654 0) scale(0.996264)"/>
      </g>
     </g>
    </g>
   </g>
   <g id="line2d_15">
    <path d="M 43.356847 193.679328 
L 52.620512 193.595192 
L 52.942167 193.376594 
L 53.263822 192.835671 
L 53.585477 191.723059 
L 53.907132 189.731159 
L 54.293118 185.758443 
L 54.743436 178.582343 
L 55.451077 162.736578 
L 57.252345 120.961757 
L 58.088648 106.527652 
L 58.796289 98.0151 
L 59.568261 91.275507 
L 61.240867 79.370316 
L 63.042135 71.602737 
L 64.779073 67.115822 
L 65.293721 66.747995 
L 65.744038 65.787767 
L 66.387348 64.608369 
L 67.738299 63.258959 
L 68.638933 62.715738 
L 69.861222 62.709551 
L 70.118546 63.125913 
L 73.077773 69.362497 
L 73.656752 69.907368 
L 74.1714 70.095028 
L 75.136365 70.140708 
L 86.458622 70.2401 
L 86.844608 70.573252 
L 87.230594 71.284395 
L 87.61658 72.607549 
L 88.066897 75.120833 
L 88.645876 79.941227 
L 89.417848 88.707726 
L 91.862427 118.468971 
L 92.634399 125.032915 
L 93.599364 131.371734 
L 94.564329 136.111022 
L 95.464963 139.688777 
L 96.429928 142.518313 
L 97.459224 144.590867 
L 98.166865 145.670701 
L 98.938837 146.439855 
L 101.061761 148.066277 
L 101.576409 148.90946 
L 102.091057 150.231389 
L 102.670036 152.41521 
L 103.506339 156.618362 
L 104.599966 161.972919 
L 105.178945 163.855723 
L 105.693593 164.820791 
L 106.14391 165.232465 
L 106.658558 165.400801 
L 107.752185 165.433434 
L 117.080182 165.342403 
L 117.401837 165.093307 
L 117.723492 164.482189 
L 118.045147 163.263584 
L 118.431133 160.615324 
L 118.88145 155.518906 
L 119.52476 144.893866 
L 122.033669 99.82156 
L 122.805641 91.65397 
L 123.641944 84.553934 
L 124.413916 80.214557 
L 125.764867 73.961307 
L 126.987157 70.038466 
L 127.630467 68.496706 
L 128.338108 67.31251 
L 129.303073 65.283301 
L 129.689059 64.973922 
L 130.268038 64.655047 
L 130.589693 64.10986 
L 131.233003 62.845869 
L 131.554658 62.720256 
L 131.876313 62.595354 
L 132.32663 62.056749 
L 132.712616 61.742429 
L 133.098602 61.694056 
L 134.449553 62.184942 
L 134.83554 62.869526 
L 137.344449 68.225819 
L 137.859097 68.727628 
L 138.438076 68.938358 
L 139.403041 68.991151 
L 150.789629 69.107838 
L 151.175615 69.416269 
L 151.49727 69.954283 
L 151.883256 71.123762 
L 152.333573 73.416455 
L 152.848222 77.422276 
L 153.491532 84.330757 
L 156.643751 121.843579 
L 157.544385 128.773225 
L 158.445019 134.136355 
L 159.216991 137.329244 
L 160.310618 140.793002 
L 161.339914 143.364286 
L 162.30488 145.095086 
L 163.462838 146.501432 
L 164.23481 147.213283 
L 165.52143 148.080425 
L 166.036078 148.961691 
L 166.486395 150.161617 
L 167.065374 152.476145 
L 168.159001 158.171749 
L 168.995304 161.992404 
L 169.574283 163.762765 
L 170.088931 164.673281 
L 170.539249 165.047368 
L 171.118228 165.202965 
L 172.662172 165.2218 
L 181.346858 165.125759 
L 181.668513 164.899122 
L 181.990168 164.361418 
L 182.311823 163.291966 
L 182.697809 160.965763 
L 183.083795 157.169892 
L 183.598443 149.61693 
L 184.563408 130.973946 
L 185.721366 109.978265 
L 186.814993 94.33896 
L 187.458303 88.390556 
L 188.358938 82.373271 
L 189.581227 76.30287 
L 190.353199 72.678995 
L 190.867847 71.368902 
L 191.639819 69.397602 
L 192.797777 66.467844 
L 193.698411 64.751703 
L 194.020066 64.573881 
L 194.470383 64.37074 
L 195.049362 63.562781 
L 195.499679 63.154742 
L 195.949996 62.777399 
L 196.593306 62.044855 
L 197.365279 61.642848 
L 197.751265 61.433767 
L 198.07292 61.544582 
L 198.458906 61.940899 
L 198.973554 62.847088 
L 201.611125 68.247244 
L 202.125773 68.687155 
L 202.769083 68.928589 
L 203.605386 68.990693 
L 215.249299 69.135087 
L 215.570954 69.501208 
L 215.95694 70.335684 
L 216.342926 71.741653 
L 216.793243 74.447333 
L 217.372222 79.643259 
L 218.208525 89.580241 
L 220.267117 114.817003 
L 221.167751 123.502858 
L 222.132716 130.484565 
L 222.904688 134.692713 
L 223.740992 138.160279 
L 224.641626 140.964911 
L 225.54226 143.133042 
L 226.442894 144.687877 
L 227.343528 146.002454 
L 228.887472 147.578667 
L 230.174092 148.59509 
L 230.560078 149.4123 
L 231.074726 151.080246 
L 231.718036 154.058026 
L 233.390643 162.19385 
L 233.969622 163.908074 
L 234.419939 164.679518 
L 234.870256 165.051789 
L 235.449235 165.204728 
L 236.349869 165.222738 
L 236.349869 165.222738 
" clip-path="url(#pc7fb449cce)" style="fill: none; stroke: #ff7f0e; stroke-width: 0.5; stroke-linecap: square"/>
   </g>
   <g id="line2d_16">
    <path d="M 43.356847 17.216035 
L 53.521146 17.106096 
L 54.743436 17.011365 
L 55.901394 17.082805 
L 56.416042 16.788175 
L 56.866359 16.577339 
L 57.188014 16.689398 
L 57.574 17.143886 
L 58.345972 18.210869 
L 58.603296 18.216631 
L 58.924951 17.889681 
L 59.761254 16.769922 
L 60.018578 16.852386 
L 61.047874 17.652349 
L 61.305198 17.484342 
L 62.205832 16.621876 
L 62.527487 16.708542 
L 63.814108 17.313736 
L 64.264425 17.031192 
L 64.972066 16.558192 
L 65.293721 16.627669 
L 65.744038 17.051857 
L 66.194355 17.423117 
L 66.51601 17.405008 
L 66.966327 17.134948 
L 67.609637 16.439525 
L 68.059954 16.113251 
L 68.381609 16.134578 
L 68.831926 16.39758 
L 69.410905 17.011946 
L 70.054215 17.631896 
L 70.37587 17.660854 
L 70.826187 17.422782 
L 71.726821 16.868689 
L 72.112807 16.917967 
L 72.627456 17.265898 
L 73.270766 17.668284 
L 73.656752 17.660093 
L 74.107069 17.411335 
L 75.072034 16.781171 
L 75.45802 16.826084 
L 75.972668 17.168331 
L 76.680309 17.631859 
L 77.066295 17.635827 
L 77.516612 17.400102 
L 78.545908 16.786935 
L 78.996225 16.809702 
L 79.639535 17.110059 
L 80.668831 17.596917 
L 81.312142 17.65641 
L 82.084114 17.488836 
L 84.464361 16.770595 
L 85.300664 16.87356 
L 86.715946 17.330871 
L 87.809573 17.755128 
L 88.9032 17.775452 
L 89.417848 17.702937 
L 89.932496 17.338156 
L 90.511476 16.956393 
L 91.347779 16.754202 
L 91.926758 16.90016 
L 93.663695 17.539666 
L 94.178343 17.574671 
L 94.821653 17.351701 
L 96.236935 16.758337 
L 98.038203 17.097002 
L 98.874506 17.182552 
L 101.769402 16.777607 
L 102.734367 17.055172 
L 104.342642 17.516084 
L 105.178945 17.606782 
L 106.015248 17.46921 
L 108.524158 16.788071 
L 109.29613 16.93582 
L 110.518419 17.461517 
L 111.22606 17.645667 
L 111.740708 17.563764 
L 112.384018 17.200892 
L 113.15599 16.799173 
L 113.541976 16.822276 
L 114.056624 17.120543 
L 114.892927 17.633932 
L 115.278913 17.599878 
L 115.793561 17.275599 
L 116.501202 16.820106 
L 116.887189 16.819254 
L 117.337506 17.083949 
L 118.302471 17.756297 
L 118.688457 17.741205 
L 119.203105 17.460583 
L 119.910746 17.066148 
L 120.361063 17.088963 
L 121.261697 17.410707 
L 121.905007 17.663106 
L 122.355324 17.606941 
L 123.062965 17.370826 
L 124.156592 17.492882 
L 124.799902 17.22522 
L 125.700536 16.86115 
L 126.408178 16.708888 
L 126.729833 16.92734 
L 127.566136 17.733225 
L 127.887791 17.630834 
L 129.045749 16.927802 
L 130.139376 17.317129 
L 131.618989 17.043597 
L 132.712616 17.318279 
L 133.355926 17.083875 
L 134.642546 17.195643 
L 135.47885 16.97898 
L 136.315153 17.168211 
L 137.537442 17.446551 
L 138.245083 17.289932 
L 139.274379 17.007719 
L 139.853358 17.115391 
L 141.011316 17.423781 
L 141.654626 17.282618 
L 142.748253 17.00777 
L 143.455894 17.112996 
L 144.999839 17.42334 
L 146.029135 17.332173 
L 148.473713 17.008212 
L 149.888995 17.150812 
L 152.076249 17.239781 
L 154.713821 17.134538 
L 155.678786 16.808688 
L 156.515089 16.908184 
L 157.351392 17.165948 
L 158.059033 17.368868 
L 159.474315 17.561251 
L 160.053294 17.590648 
L 161.983225 17.243573 
L 163.012521 16.900748 
L 163.527169 16.901308 
L 165.457099 17.198786 
L 166.293402 17.072023 
L 167.580022 17.105972 
L 168.416325 17.139454 
L 169.960269 17.086904 
L 174.46344 17.228437 
L 176.200377 17.121624 
L 178.580624 17.232271 
L 179.674252 17.111265 
L 180.83221 17.30729 
L 181.732844 17.319599 
L 183.791436 17.257273 
L 184.756401 17.291227 
L 185.721366 17.134184 
L 186.364676 17.051441 
L 187.007986 16.932712 
L 188.294607 16.978173 
L 189.516896 16.497278 
L 189.77422 16.702218 
L 190.288868 17.587058 
L 190.674854 18.079817 
L 190.932178 18.129682 
L 191.189502 17.921422 
L 192.218798 16.751041 
L 192.476122 16.862611 
L 193.376756 17.563643 
L 193.762742 17.294262 
L 194.599045 16.625871 
L 194.856369 16.644409 
L 195.178024 16.982153 
L 196.078658 18.146791 
L 196.400313 18.070515 
L 196.786299 17.693534 
L 197.493941 16.822769 
L 197.751265 16.933519 
L 198.265913 17.542547 
L 198.973554 18.301203 
L 199.295209 18.376923 
L 199.616864 18.175782 
L 200.067181 17.524506 
L 200.64616 16.74717 
L 200.967815 16.674091 
L 201.28947 16.88389 
L 202.447428 18.000786 
L 202.769083 17.875854 
L 203.2194 17.347979 
L 203.927041 16.506325 
L 204.248696 16.450419 
L 204.570351 16.661905 
L 205.14933 17.433665 
L 205.663978 17.948759 
L 205.985634 17.972223 
L 206.307289 17.755545 
L 207.722571 16.439058 
L 208.108557 16.534072 
L 208.687536 16.98256 
L 209.716832 17.817503 
L 210.295811 17.990615 
L 210.87479 17.910132 
L 211.582431 17.545642 
L 213.319368 16.498933 
L 213.898347 16.456464 
L 214.541657 16.633439 
L 215.31363 17.117944 
L 216.535919 17.846468 
L 216.986236 17.893913 
L 217.500884 17.682611 
L 218.594511 17.011035 
L 219.044828 16.838135 
L 219.688138 16.962454 
L 222.776026 17.850842 
L 223.290674 17.593546 
L 224.062647 17.126287 
L 226.314232 16.932928 
L 227.536521 17.171823 
L 228.244162 17.621362 
L 229.080465 18.111136 
L 229.595113 18.194826 
L 230.302754 18.080267 
L 233.390643 16.825904 
L 234.098284 16.891014 
L 235.256242 17.228608 
L 236.349869 17.555905 
L 236.349869 17.555905 
" clip-path="url(#pc7fb449cce)" style="fill: none; stroke: #2ca02c; stroke-width: 0.5; stroke-linecap: square"/>
   </g>
   <g id="line2d_17">
    <path d="M 43.356847 17.216035 
L 55.772732 17.323584 
L 56.416042 17.495749 
L 56.737697 17.332223 
L 57.123683 16.782571 
L 57.638331 16.119853 
L 57.831324 16.090868 
L 58.024317 16.27541 
L 58.345972 17.037569 
L 58.86062 18.175457 
L 59.117944 18.384919 
L 59.310937 18.325666 
L 59.568261 17.901898 
L 60.14724 16.772385 
L 60.404564 16.735294 
L 60.726219 16.971875 
L 61.626853 17.828203 
L 61.884177 17.633647 
L 62.527487 16.961257 
L 62.977804 16.910218 
L 63.36379 17.084109 
L 64.135763 17.522566 
L 64.58608 17.461065 
L 64.972066 17.20048 
L 65.744038 16.561129 
L 66.001362 16.662649 
L 67.223651 17.712722 
L 67.609637 17.663344 
L 67.995623 17.395859 
L 68.767595 16.738018 
L 69.346574 16.644123 
L 69.73256 16.81767 
L 70.890518 17.651603 
L 71.276504 17.606926 
L 71.726821 17.302618 
L 72.370132 16.856921 
L 72.756118 16.827695 
L 73.206435 17.038761 
L 74.300062 17.663726 
L 74.686048 17.575625 
L 75.265027 17.152317 
L 75.844006 16.797368 
L 76.229992 16.801206 
L 76.680309 17.056898 
L 77.580943 17.639606 
L 77.966929 17.634005 
L 78.481577 17.37798 
L 79.510873 16.808542 
L 80.025521 16.785846 
L 80.733162 17.013552 
L 82.341438 17.623508 
L 83.11341 17.640309 
L 83.949713 17.422739 
L 85.879643 16.815559 
L 86.651615 16.852946 
L 87.680911 17.206827 
L 88.645876 17.576052 
L 89.610841 17.722568 
L 92.05542 16.868109 
L 92.570068 16.699576 
L 93.020385 16.772677 
L 93.599364 17.102611 
L 94.692991 17.767236 
L 95.143308 17.822771 
L 96.365597 17.553183 
L 98.231196 16.994159 
L 99.582148 17.007988 
L 100.225458 17.165388 
L 103.956656 16.750482 
L 105.243276 17.247412 
L 106.272572 17.599388 
L 107.044544 17.626416 
L 107.880847 17.416201 
L 109.93944 16.785442 
L 110.58275 16.881437 
L 111.354722 17.255702 
L 112.191025 17.631852 
L 112.641342 17.604326 
L 113.15599 17.325611 
L 114.056624 16.795723 
L 114.44261 16.835086 
L 114.957258 17.161208 
L 115.664899 17.616527 
L 116.050885 17.621467 
L 116.501202 17.374183 
L 117.466168 16.755628 
L 117.852154 16.825339 
L 118.624126 17.324835 
L 119.267436 17.595382 
L 119.653422 17.552661 
L 120.16807 17.22884 
L 120.682718 16.960055 
L 121.197366 16.960535 
L 121.583352 17.124533 
L 122.355324 17.567329 
L 122.676979 17.473684 
L 123.577613 16.957889 
L 124.02793 17.385748 
L 124.349585 17.563566 
L 124.735571 17.440708 
L 125.185888 17.43908 
L 125.957861 17.374367 
L 126.279516 17.068009 
L 126.794164 16.488733 
L 127.051488 16.542098 
L 127.373143 16.923954 
L 127.887791 17.523972 
L 128.273777 17.630677 
L 128.531101 17.490745 
L 129.431735 16.758824 
L 129.882052 17.148801 
L 130.203707 17.308569 
L 131.425996 17.198982 
L 131.940644 16.953972 
L 132.262299 17.111976 
L 132.841278 17.515554 
L 133.098602 17.409743 
L 133.61325 17.140342 
L 134.320891 17.136546 
L 135.028533 17.278342 
L 137.280118 17.144784 
L 138.566738 17.41869 
L 139.210048 17.24369 
L 140.110682 17.007722 
L 140.689661 17.113034 
L 141.91195 17.422654 
L 142.619591 17.265741 
L 143.713219 17.009994 
L 144.549522 17.093518 
L 146.672445 17.424323 
L 147.830403 17.308472 
L 150.081988 17.011219 
L 151.046953 17.16691 
L 152.526567 17.508959 
L 154.327835 17.412491 
L 155.035476 17.330705 
L 155.743117 17.220223 
L 157.094068 17.261208 
L 157.673047 17.113108 
L 158.445019 16.876326 
L 159.409984 16.924943 
L 161.468577 17.256149 
L 163.012521 16.950923 
L 164.041817 17.232236 
L 165.071113 17.366462 
L 167.644353 17.344775 
L 168.995304 17.243864 
L 173.755799 17.288089 
L 175.171081 17.299112 
L 177.551328 17.170678 
L 178.902279 17.315373 
L 181.153865 17.190125 
L 182.11883 17.245676 
L 183.534112 17.211744 
L 186.622 17.30252 
L 187.393972 16.986771 
L 187.844289 17.172494 
L 188.744924 17.678984 
L 189.066579 17.517756 
L 189.452565 16.987596 
L 189.967213 16.260547 
L 190.160206 16.262851 
L 190.41753 16.53065 
L 191.511157 18.110847 
L 191.70415 18.024393 
L 192.025805 17.526058 
L 192.604784 16.638658 
L 192.862108 16.630932 
L 193.119432 16.93558 
L 193.698411 17.714061 
L 194.020066 17.800875 
L 194.341721 17.601758 
L 194.856369 16.914517 
L 195.371017 16.331008 
L 195.56401 16.350717 
L 195.821334 16.656631 
L 196.786299 18.05842 
L 196.979292 18.121293 
L 197.172286 17.95271 
L 198.137251 16.544421 
L 198.523237 16.660254 
L 199.102216 17.081792 
L 200.067181 18.003124 
L 200.324505 17.902725 
L 200.710491 17.453391 
L 201.418132 16.555629 
L 201.739787 16.500933 
L 202.061442 16.719772 
L 202.704752 17.551518 
L 203.155069 17.959354 
L 203.476724 17.956561 
L 203.798379 17.694132 
L 204.956337 16.440259 
L 205.277992 16.541416 
L 205.663978 16.954737 
L 206.500282 17.922212 
L 206.821937 17.989294 
L 207.143592 17.843245 
L 207.722571 17.254353 
L 208.430212 16.589846 
L 208.880529 16.439827 
L 209.330846 16.51929 
L 209.974156 16.900495 
L 211.453769 17.876092 
L 212.097079 17.993253 
L 212.676058 17.865501 
L 213.383699 17.465338 
L 214.73465 16.664881 
L 215.442292 16.554509 
L 216.149933 16.685458 
L 217.179229 17.132274 
L 217.822539 17.355568 
L 218.594511 17.427751 
L 221.167751 16.983772 
L 221.74673 17.111452 
L 223.03335 17.561051 
L 223.869654 17.690079 
L 224.512964 17.753964 
L 225.54226 17.627813 
L 226.18557 17.329149 
L 227.086204 16.784401 
L 227.858176 16.693996 
L 229.40212 16.831618 
L 230.624409 17.308586 
L 231.33205 17.602544 
L 232.104022 17.693005 
L 232.940326 17.461466 
L 234.934587 16.836491 
L 235.706559 16.863084 
L 236.349869 17.021205 
L 236.349869 17.021205 
" clip-path="url(#pc7fb449cce)" style="fill: none; stroke: #d62728; stroke-width: 0.5; stroke-linecap: square"/>
   </g>
   <g id="patch_3">
    <path d="M 33.707196 202.559296 
L 33.707196 7.2 
" style="fill: none; stroke: #000000; stroke-width: 0.8; stroke-linejoin: miter; stroke-linecap: square"/>
   </g>
   <g id="patch_4">
    <path d="M 245.99952 202.559296 
L 245.99952 7.2 
" style="fill: none; stroke: #000000; stroke-width: 0.8; stroke-linejoin: miter; stroke-linecap: square"/>
   </g>
   <g id="patch_5">
    <path d="M 33.707196 202.559296 
L 245.99952 202.559296 
" style="fill: none; stroke: #000000; stroke-width: 0.8; stroke-linejoin: miter; stroke-linecap: square"/>
   </g>
   <g id="patch_6">
    <path d="M 33.707196 7.2 
L 245.99952 7.2 
" style="fill: none; stroke: #000000; stroke-width: 0.8; stroke-linejoin: miter; stroke-linecap: square"/>
   </g>
   <g id="legend_1">
    <g id="patch_7">
     <path d="M 40.007196 126.429212 
L 85.914112 126.429212 
Q 87.714112 126.429212 87.714112 124.629212 
L 87.714112 85.130084 
Q 87.714112 83.330084 85.914112 83.330084 
L 40.007196 83.330084 
Q 38.207196 83.330084 38.207196 85.130084 
L 38.207196 124.629212 
Q 38.207196 126.429212 40.007196 126.429212 
z
" style="fill: #ffffff; opacity: 0.8; stroke: #cccccc; stroke-width: 0.24; stroke-linejoin: miter"/>
    </g>
    <g id="line2d_18">
     <path d="M 41.807196 90.504866 
L 50.807196 90.504866 
L 59.807196 90.504866 
" style="fill: none; stroke: #ff7f0e; stroke-width: 0.5; stroke-linecap: square"/>
    </g>
    <g id="text_16">
     <!-- $\langle \sigma_z\rangle$ -->
     <g transform="translate(67.007196 93.654866) scale(0.09 -0.09)">
      <defs>
       <path id="CMSY10-68" d="M 2099 4557 
C 2131 4627 2131 4640 2131 4672 
C 2131 4742 2074 4800 2003 4800 
C 1946 4800 1901 4768 1856 4653 
L 736 1715 
C 723 1677 704 1638 704 1600 
C 704 1581 704 1568 736 1491 
L 1856 -1446 
C 1882 -1517 1914 -1600 2003 -1600 
C 2074 -1600 2131 -1542 2131 -1472 
C 2131 -1453 2131 -1440 2099 -1370 
L 966 1600 
L 2099 4557 
z
" transform="scale(0.015625)"/>
       <path id="CMMI12-1b" d="M 3251 2408 
C 3334 2408 3546 2408 3546 2612 
C 3546 2752 3424 2752 3309 2752 
L 1894 2752 
C 934 2752 243 1686 243 932 
C 243 390 595 -64 1171 -64 
C 1926 -64 2752 747 2752 1705 
C 2752 1954 2694 2196 2541 2408 
L 3251 2408 
z
M 1178 64 
C 851 64 614 313 614 754 
C 614 1137 845 2408 1786 2408 
C 2061 2408 2368 2274 2368 1781 
C 2368 1558 2266 1021 2042 652 
C 1811 275 1466 64 1178 64 
z
" transform="scale(0.015625)"/>
       <path id="CMMI12-7a" d="M 813 486 
C 1088 803 1312 1004 1632 1296 
C 2016 1632 2182 1793 2272 1891 
C 2720 2338 2944 2713 2944 2764 
C 2944 2816 2893 2816 2880 2816 
C 2835 2816 2822 2793 2790 2750 
C 2630 2494 2477 2367 2310 2367 
C 2176 2367 2106 2421 1984 2565 
C 1850 2715 1741 2816 1555 2816 
C 1088 2816 806 2257 806 2128 
C 806 2108 813 2068 870 2068 
C 922 2068 928 2091 947 2133 
C 1056 2372 1363 2414 1485 2414 
C 1619 2414 1747 2376 1882 2327 
C 2125 2240 2227 2240 2291 2240 
C 2336 2240 2362 2240 2394 2246 
C 2182 1994 1837 1683 1549 1418 
L 902 816 
C 512 415 275 33 275 -12 
C 275 -51 307 -64 346 -64 
C 384 -64 390 -57 435 14 
C 538 163 742 384 979 384 
C 1114 384 1178 342 1306 193 
C 1427 61 1536 -64 1741 -64 
C 2368 -64 2726 732 2726 876 
C 2726 903 2720 942 2656 942 
C 2605 942 2598 917 2579 855 
C 2438 488 2061 338 1811 338 
C 1677 338 1549 376 1414 425 
C 1158 512 1088 512 1005 512 
C 941 512 870 512 813 486 
z
" transform="scale(0.015625)"/>
       <path id="CMSY10-69" d="M 1747 1491 
C 1779 1568 1779 1581 1779 1600 
C 1779 1619 1779 1632 1747 1709 
L 627 4653 
C 589 4762 550 4800 480 4800 
C 410 4800 352 4742 352 4672 
C 352 4653 352 4640 384 4570 
L 1517 1600 
L 384 -1357 
C 352 -1427 352 -1440 352 -1472 
C 352 -1542 410 -1600 480 -1600 
C 563 -1600 589 -1536 614 -1472 
L 1747 1491 
z
" transform="scale(0.015625)"/>
      </defs>
      <use xlink:href="#CMSY10-68" transform="scale(0.996264)"/>
      <use xlink:href="#CMMI12-1b" transform="translate(38.743734 0) scale(0.996264)"/>
      <use xlink:href="#CMMI12-7a" transform="translate(94.189195 -14.943915) scale(0.697382)"/>
      <use xlink:href="#CMSY10-69" transform="translate(129.51575 0) scale(0.996264)"/>
     </g>
    </g>
    <g id="line2d_19">
     <path d="M 41.807196 103.971242 
L 50.807196 103.971242 
L 59.807196 103.971242 
" style="fill: none; stroke: #2ca02c; stroke-width: 0.5; stroke-linecap: square"/>
    </g>
    <g id="text_17">
     <!-- $\langle \sigma_x\rangle$ -->
     <g transform="translate(67.007196 107.121242) scale(0.09 -0.09)">
      <defs>
       <path id="CMMI12-78" d="M 3034 2606 
C 2829 2567 2752 2414 2752 2293 
C 2752 2139 2874 2088 2963 2088 
C 3155 2088 3290 2254 3290 2427 
C 3290 2695 2982 2816 2714 2816 
C 2323 2816 2106 2433 2048 2312 
C 1901 2816 1504 2816 1389 2816 
C 736 2816 390 1980 390 1839 
C 390 1814 416 1782 461 1782 
C 512 1782 525 1820 538 1846 
C 755 2555 1184 2689 1370 2689 
C 1658 2689 1715 2420 1715 2267 
C 1715 2127 1677 1980 1600 1673 
L 1382 798 
C 1286 415 1101 64 762 64 
C 730 64 570 64 435 147 
C 666 192 717 383 717 460 
C 717 588 621 664 499 664 
C 346 664 179 530 179 326 
C 179 57 480 -64 755 -64 
C 1062 -64 1280 179 1414 441 
C 1517 64 1837 -64 2074 -64 
C 2726 -64 3072 773 3072 913 
C 3072 945 3046 971 3008 971 
C 2950 971 2944 939 2925 888 
C 2752 326 2381 64 2093 64 
C 1869 64 1747 230 1747 492 
C 1747 632 1773 734 1875 1156 
L 2099 2024 
C 2195 2408 2413 2689 2707 2689 
C 2720 2689 2899 2689 3034 2606 
z
" transform="scale(0.015625)"/>
      </defs>
      <use xlink:href="#CMSY10-68" transform="scale(0.996264)"/>
      <use xlink:href="#CMMI12-1b" transform="translate(38.743734 0) scale(0.996264)"/>
      <use xlink:href="#CMMI12-78" transform="translate(94.189195 -14.943915) scale(0.697382)"/>
      <use xlink:href="#CMSY10-69" transform="translate(133.490986 0) scale(0.996264)"/>
     </g>
    </g>
    <g id="line2d_20">
     <path d="M 41.807196 117.437618 
L 50.807196 117.437618 
L 59.807196 117.437618 
" style="fill: none; stroke: #d62728; stroke-width: 0.5; stroke-linecap: square"/>
    </g>
    <g id="text_18">
     <!-- $\langle \sigma_y\rangle$ -->
     <g transform="translate(67.007196 120.587618) scale(0.09 -0.09)">
      <defs>
       <path id="CMMI12-79" d="M 1683 -700 
C 1510 -939 1261 -1152 947 -1152 
C 870 -1152 563 -1152 467 -889 
C 486 -895 518 -895 531 -895 
C 723 -895 851 -729 851 -582 
C 851 -435 730 -384 634 -384 
C 531 -384 307 -458 307 -759 
C 307 -1071 582 -1286 947 -1286 
C 1587 -1286 2234 -700 2413 6 
L 3040 2485 
C 3046 2517 3059 2556 3059 2594 
C 3059 2689 2982 2753 2886 2753 
C 2829 2753 2694 2727 2643 2535 
L 2170 658 
C 2138 543 2138 530 2086 460 
C 1958 281 1747 64 1440 64 
C 1082 64 1050 415 1050 588 
C 1050 952 1222 1443 1395 1903 
C 1466 2088 1504 2178 1504 2305 
C 1504 2574 1312 2816 998 2816 
C 410 2816 173 1890 173 1839 
C 173 1814 198 1782 243 1782 
C 301 1782 307 1807 333 1897 
C 486 2433 730 2689 979 2689 
C 1037 2689 1146 2689 1146 2478 
C 1146 2312 1075 2127 979 1884 
C 666 1047 666 837 666 683 
C 666 77 1101 -64 1421 -64 
C 1606 -64 1837 -6 2061 230 
L 2067 224 
C 1971 -147 1907 -392 1683 -700 
z
" transform="scale(0.015625)"/>
      </defs>
      <use xlink:href="#CMSY10-68" transform="scale(0.996264)"/>
      <use xlink:href="#CMMI12-1b" transform="translate(38.743734 0) scale(0.996264)"/>
      <use xlink:href="#CMMI12-79" transform="translate(94.189195 -14.943915) scale(0.697382)"/>
      <use xlink:href="#CMSY10-69" transform="translate(130.484301 0) scale(0.996264)"/>
     </g>
    </g>
   </g>
  </g>
 </g>
 <defs>
  <clipPath id="pc7fb449cce">
   <rect x="33.707196" y="7.2" width="212.292324" height="195.359296"/>
  </clipPath>
 </defs>
</svg>
